<?xml version="1.0" encoding="utf-8" standalone="no"?>
<!DOCTYPE svg PUBLIC "-//W3C//DTD SVG 1.1//EN"
  "http://www.w3.org/Graphics/SVG/1.1/DTD/svg11.dtd">
<!-- Created with matplotlib (https://matplotlib.org/) -->
<svg height="345.6pt" version="1.1" viewBox="0 0 460.8 345.6" width="460.8pt" xmlns="http://www.w3.org/2000/svg" xmlns:xlink="http://www.w3.org/1999/xlink">
 <metadata>
  <rdf:RDF xmlns:cc="http://creativecommons.org/ns#" xmlns:dc="http://purl.org/dc/elements/1.1/" xmlns:rdf="http://www.w3.org/1999/02/22-rdf-syntax-ns#">
   <cc:Work>
    <dc:type rdf:resource="http://purl.org/dc/dcmitype/StillImage"/>
    <dc:date>2020-12-29T02:30:48.383759</dc:date>
    <dc:format>image/svg+xml</dc:format>
    <dc:creator>
     <cc:Agent>
      <dc:title>Matplotlib v3.3.2, https://matplotlib.org/</dc:title>
     </cc:Agent>
    </dc:creator>
   </cc:Work>
  </rdf:RDF>
 </metadata>
 <defs>
  <style type="text/css">*{stroke-linecap:butt;stroke-linejoin:round;}</style>
 </defs>
 <g id="figure_1">
  <g id="patch_1">
   <path d="M 0 345.6 
L 460.8 345.6 
L 460.8 0 
L 0 0 
z
" style="fill:#ffffff;"/>
  </g>
  <g id="axes_1">
   <g id="patch_2">
    <path d="M 57.6 307.584 
L 414.72 307.584 
L 414.72 41.472 
L 57.6 41.472 
z
" style="fill:#ffffff;"/>
   </g>
   <g id="PolyCollection_1">
    <defs>
     <path d="M 90.872607 -81.160673 
L 90.872607 -105.908981 
L 91.769442 -106.206402 
L 92.666278 -105.775282 
L 93.563114 -105.403438 
L 94.45995 -104.854757 
L 95.356786 -103.94095 
L 96.253621 -103.717553 
L 97.150457 -104.21716 
L 98.047293 -105.650937 
L 98.944129 -106.203026 
L 99.840964 -107.518355 
L 100.7378 -107.99653 
L 101.634636 -108.556473 
L 102.531472 -108.693165 
L 103.428307 -109.139479 
L 104.325143 -109.393956 
L 105.221979 -110.350602 
L 106.118815 -111.472508 
L 107.01565 -112.581155 
L 107.912486 -113.708515 
L 108.809322 -115.198951 
L 109.706158 -115.894372 
L 110.602993 -117.200954 
L 111.499829 -118.117171 
L 112.396665 -118.509813 
L 113.293501 -118.575608 
L 114.190337 -118.022875 
L 115.087172 -117.741446 
L 115.984008 -117.727388 
L 116.880844 -118.070075 
L 117.77768 -118.052302 
L 118.674515 -117.931744 
L 119.571351 -117.825915 
L 120.468187 -117.63802 
L 121.365023 -117.44501 
L 122.261858 -116.819011 
L 123.158694 -117.175174 
L 124.05553 -118.523475 
L 124.952366 -119.324396 
L 125.849201 -119.946442 
L 126.746037 -120.254339 
L 127.642873 -120.609441 
L 128.539709 -119.854053 
L 129.436544 -118.86582 
L 130.33338 -117.903543 
L 131.230216 -116.365021 
L 132.127052 -115.640524 
L 133.023887 -114.776538 
L 133.920723 -114.943006 
L 134.817559 -113.896631 
L 135.714395 -113.785984 
L 136.611231 -113.308487 
L 137.508066 -119.613687 
L 138.404902 -120.868037 
L 139.301738 -121.30551 
L 140.198574 -120.963736 
L 141.095409 -120.867136 
L 141.992245 -120.52121 
L 142.889081 -119.64872 
L 143.785917 -118.214966 
L 144.682752 -116.826438 
L 145.579588 -115.257767 
L 146.476424 -112.883839 
L 147.37326 -110.51411 
L 148.270095 -108.032517 
L 149.166931 -104.548298 
L 150.063767 -100.34416 
L 150.960603 -96.237735 
L 151.857438 -93.647357 
L 152.754274 -90.843546 
L 153.65111 -88.190577 
L 154.547946 -84.721254 
L 155.444782 -84.857194 
L 156.341617 -85.730239 
L 157.238453 -85.899262 
L 158.135289 -86.263682 
L 159.032125 -85.596513 
L 159.92896 -86.082809 
L 160.825796 -86.390915 
L 161.722632 -87.439278 
L 162.619468 -88.269339 
L 163.516303 -88.369041 
L 164.413139 -87.714887 
L 165.309975 -88.096117 
L 166.206811 -88.094665 
L 167.103646 -88.181009 
L 168.000482 -88.184989 
L 168.897318 -88.41747 
L 169.794154 -88.357981 
L 170.690989 -87.421271 
L 171.587825 -87.513417 
L 172.484661 -87.143876 
L 173.381497 -87.034118 
L 174.278332 -87.14835 
L 175.175168 -87.964497 
L 176.072004 -88.579812 
L 176.96884 -89.24235 
L 177.865676 -89.754213 
L 178.762511 -90.315074 
L 179.659347 -90.962833 
L 180.556183 -93.04625 
L 181.453019 -96.226772 
L 182.349854 -98.748341 
L 183.24669 -101.209112 
L 184.143526 -102.953576 
L 185.040362 -104.421 
L 185.937197 -105.668737 
L 186.834033 -107.608088 
L 187.730869 -109.491002 
L 188.627705 -112.528075 
L 189.52454 -114.43454 
L 190.421376 -114.020983 
L 191.318212 -113.590525 
L 192.215048 -113.12221 
L 193.111883 -113.287489 
L 194.008719 -113.86288 
L 194.905555 -114.133672 
L 195.802391 -113.972439 
L 196.699227 -114.028558 
L 197.596062 -113.40525 
L 198.492898 -113.680621 
L 199.389734 -114.244079 
L 200.28657 -114.231758 
L 201.183405 -114.193909 
L 202.080241 -114.095299 
L 202.977077 -113.955331 
L 203.873913 -114.054597 
L 204.770748 -114.121158 
L 205.667584 -114.070164 
L 206.56442 -113.047124 
L 207.461256 -112.630254 
L 208.358091 -112.35815 
L 209.254927 -112.462815 
L 210.151763 -112.319001 
L 211.048599 -113.578834 
L 211.945434 -113.590754 
L 212.84227 -113.595593 
L 213.739106 -114.024482 
L 214.635942 -113.895376 
L 215.532777 -113.879293 
L 216.429613 -113.791663 
L 217.326449 -113.649363 
L 218.223285 -113.959756 
L 219.120121 -114.311527 
L 220.016956 -114.319003 
L 220.913792 -114.303972 
L 221.810628 -113.711625 
L 222.707464 -113.298793 
L 223.604299 -112.694625 
L 224.501135 -112.501479 
L 225.397971 -112.501765 
L 226.294807 -112.603989 
L 227.191642 -112.650302 
L 228.088478 -112.653587 
L 228.985314 -111.428895 
L 229.88215 -111.426444 
L 230.778985 -111.417183 
L 231.675821 -110.982125 
L 232.572657 -110.951748 
L 233.469493 -110.879703 
L 234.366328 -110.758726 
L 235.263164 -110.502121 
L 236.16 -109.9863 
L 237.056836 -109.145628 
L 237.953672 -108.960629 
L 238.850507 -108.856086 
L 239.747343 -108.738217 
L 240.644179 -108.766465 
L 241.541015 -108.471363 
L 242.43785 -108.20482 
L 243.334686 -107.981991 
L 244.231522 -108.133596 
L 245.128358 -108.05754 
L 246.025193 -107.99539 
L 246.922029 -107.692471 
L 247.818865 -107.010039 
L 248.715701 -106.38621 
L 249.612536 -106.319069 
L 250.509372 -106.321072 
L 251.406208 -106.318146 
L 252.303044 -106.191081 
L 253.199879 -106.173919 
L 254.096715 -106.179869 
L 254.993551 -106.195838 
L 255.890387 -106.419234 
L 256.787223 -107.006018 
L 257.684058 -107.547983 
L 258.580894 -108.124713 
L 259.47773 -108.956752 
L 260.374566 -111.665605 
L 261.271401 -116.079965 
L 262.168237 -119.160623 
L 263.065073 -121.845247 
L 263.961909 -124.026395 
L 264.858744 -126.66507 
L 265.75558 -128.785796 
L 266.652416 -130.305659 
L 267.549252 -131.79359 
L 268.446087 -132.867573 
L 269.342923 -134.753047 
L 270.239759 -136.30948 
L 271.136595 -137.038964 
L 272.03343 -137.606478 
L 272.930266 -138.388346 
L 273.827102 -138.601945 
L 274.723938 -138.016822 
L 275.620773 -137.273991 
L 276.517609 -136.261397 
L 277.414445 -134.797258 
L 278.311281 -134.132273 
L 279.208117 -134.358053 
L 280.104952 -135.442016 
L 281.001788 -135.551607 
L 281.898624 -135.376982 
L 282.79546 -135.327807 
L 283.692295 -135.24346 
L 284.589131 -134.912453 
L 285.485967 -134.702839 
L 286.382803 -134.454705 
L 287.279638 -134.471745 
L 288.176474 -134.576715 
L 289.07331 -134.60001 
L 289.970146 -134.594909 
L 290.866981 -134.208851 
L 291.763817 -134.081217 
L 292.660653 -134.29115 
L 293.557489 -134.374509 
L 294.454324 -134.487383 
L 295.35116 -136.573724 
L 296.247996 -137.272349 
L 297.144832 -138.224774 
L 298.041668 -137.750405 
L 298.938503 -137.473098 
L 299.835339 -137.423117 
L 300.732175 -137.158077 
L 301.629011 -136.618779 
L 302.525846 -136.023966 
L 303.422682 -135.145427 
L 304.319518 -134.656565 
L 305.216354 -134.066439 
L 306.113189 -133.792599 
L 307.010025 -133.175984 
L 307.906861 -132.464959 
L 308.803697 -131.53112 
L 309.700532 -130.287243 
L 310.597368 -127.818492 
L 311.494204 -125.349562 
L 312.39104 -124.07454 
L 313.287875 -124.201434 
L 314.184711 -124.379539 
L 315.081547 -124.38018 
L 315.978383 -124.369086 
L 316.875218 -124.55798 
L 317.772054 -124.146449 
L 318.66889 -124.07842 
L 319.565726 -123.964913 
L 320.462562 -123.891802 
L 321.359397 -123.64305 
L 322.256233 -123.639848 
L 323.153069 -123.577975 
L 324.049905 -123.11748 
L 324.94674 -122.80903 
L 325.843576 -122.74006 
L 326.740412 -122.780767 
L 327.637248 -123.933452 
L 328.534083 -125.179908 
L 329.430919 -126.659187 
L 330.327755 -127.28879 
L 331.224591 -128.087248 
L 332.121426 -128.952622 
L 333.018262 -129.377192 
L 333.915098 -129.819231 
L 334.811934 -130.46086 
L 335.708769 -131.490243 
L 336.605605 -132.717597 
L 337.502441 -136.19354 
L 338.399277 -139.338534 
L 339.296113 -141.675078 
L 340.192948 -144.085215 
L 341.089784 -145.903908 
L 341.98662 -147.257934 
L 342.883456 -149.554213 
L 343.780291 -150.810756 
L 344.677127 -152.236648 
L 345.573963 -153.734608 
L 346.470799 -155.424352 
L 347.367634 -156.839502 
L 348.26447 -157.561313 
L 349.161306 -158.773469 
L 350.058142 -159.923326 
L 350.954977 -163.929805 
L 351.851813 -166.92466 
L 352.748649 -167.606674 
L 353.645485 -169.402414 
L 354.54232 -170.400736 
L 355.439156 -171.91116 
L 356.335992 -173.993635 
L 357.232828 -176.939532 
L 358.129663 -179.51163 
L 359.026499 -180.991535 
L 359.923335 -181.883335 
L 360.820171 -184.33401 
L 361.717007 -188.193475 
L 362.613842 -191.627815 
L 363.510678 -194.449824 
L 364.407514 -198.844215 
L 365.30435 -202.279617 
L 366.201185 -203.958769 
L 367.098021 -205.382677 
L 367.994857 -207.842692 
L 368.891693 -210.075327 
L 369.788528 -210.14627 
L 370.685364 -209.313614 
L 371.5822 -209.325834 
L 372.479036 -209.3272 
L 373.375871 -211.516317 
L 374.272707 -211.761566 
L 375.169543 -212.978602 
L 376.066379 -214.198169 
L 376.963214 -213.397129 
L 377.86005 -212.252724 
L 378.756886 -212.226559 
L 379.653722 -212.75195 
L 380.550558 -212.605376 
L 381.447393 -212.494236 
L 382.344229 -212.38812 
L 383.241065 -212.288587 
L 384.137901 -212.494696 
L 385.034736 -213.061705 
L 385.931572 -213.212781 
L 386.828408 -214.001329 
L 387.725244 -218.652267 
L 388.622079 -227.029957 
L 389.518915 -234.701398 
L 390.415751 -243.001796 
L 391.312587 -248.777102 
L 392.209422 -252.33113 
L 393.106258 -257.692924 
L 394.003094 -261.244105 
L 394.89993 -265.056798 
L 395.796765 -270.360524 
L 396.693601 -278.839768 
L 397.590437 -285.441965 
L 398.487273 -292.032 
L 398.487273 -176.405677 
L 398.487273 -176.405677 
L 397.590437 -174.300389 
L 396.693601 -173.859138 
L 395.796765 -175.298568 
L 394.89993 -175.067687 
L 394.003094 -173.822108 
L 393.106258 -173.604939 
L 392.209422 -174.388278 
L 391.312587 -174.030072 
L 390.415751 -176.064798 
L 389.518915 -178.741953 
L 388.622079 -181.032919 
L 387.725244 -183.770192 
L 386.828408 -184.265235 
L 385.931572 -184.334765 
L 385.034736 -184.372549 
L 384.137901 -184.154686 
L 383.241065 -183.974313 
L 382.344229 -184.530722 
L 381.447393 -184.842962 
L 380.550558 -183.995014 
L 379.653722 -183.312631 
L 378.756886 -182.333112 
L 377.86005 -179.648176 
L 376.963214 -175.322867 
L 376.066379 -171.947224 
L 375.169543 -170.055452 
L 374.272707 -168.355343 
L 373.375871 -165.520434 
L 372.479036 -163.326989 
L 371.5822 -160.474552 
L 370.685364 -158.244462 
L 369.788528 -155.10581 
L 368.891693 -153.587655 
L 367.994857 -152.698911 
L 367.098021 -150.170231 
L 366.201185 -147.255184 
L 365.30435 -144.091408 
L 364.407514 -142.605843 
L 363.510678 -142.135327 
L 362.613842 -140.720872 
L 361.717007 -139.841644 
L 360.820171 -139.313333 
L 359.923335 -138.690643 
L 359.026499 -136.690006 
L 358.129663 -135.141567 
L 357.232828 -134.51919 
L 356.335992 -134.113414 
L 355.439156 -133.484731 
L 354.54232 -132.500083 
L 353.645485 -130.095898 
L 352.748649 -128.170979 
L 351.851813 -125.535169 
L 350.954977 -124.322543 
L 350.058142 -124.072731 
L 349.161306 -122.581602 
L 348.26447 -121.200993 
L 347.367634 -119.793929 
L 346.470799 -118.99737 
L 345.573963 -118.273837 
L 344.677127 -117.515589 
L 343.780291 -116.551808 
L 342.883456 -115.436037 
L 341.98662 -114.747547 
L 341.089784 -113.630189 
L 340.192948 -113.172554 
L 339.296113 -113.123033 
L 338.399277 -113.081062 
L 337.502441 -113.812144 
L 336.605605 -115.109213 
L 335.708769 -115.158422 
L 334.811934 -115.196279 
L 333.915098 -115.185806 
L 333.018262 -115.011977 
L 332.121426 -114.854109 
L 331.224591 -114.940165 
L 330.327755 -114.982793 
L 329.430919 -114.443181 
L 328.534083 -114.911255 
L 327.637248 -115.309088 
L 326.740412 -116.011434 
L 325.843576 -116.037528 
L 324.94674 -116.004795 
L 324.049905 -115.986899 
L 323.153069 -115.968941 
L 322.256233 -115.979967 
L 321.359397 -115.996398 
L 320.462562 -115.506351 
L 319.565726 -115.302635 
L 318.66889 -114.943743 
L 317.772054 -114.476253 
L 316.875218 -113.334952 
L 315.978383 -112.978867 
L 315.081547 -112.381176 
L 314.184711 -111.752516 
L 313.287875 -111.641848 
L 312.39104 -111.38943 
L 311.494204 -111.154394 
L 310.597368 -109.94652 
L 309.700532 -108.911818 
L 308.803697 -108.491133 
L 307.906861 -108.163746 
L 307.010025 -108.032235 
L 306.113189 -107.959234 
L 305.216354 -107.953393 
L 304.319518 -107.990852 
L 303.422682 -108.198497 
L 302.525846 -108.746965 
L 301.629011 -109.324053 
L 300.732175 -110.075279 
L 299.835339 -111.048945 
L 298.938503 -112.795405 
L 298.041668 -114.115607 
L 297.144832 -115.798655 
L 296.247996 -118.492337 
L 295.35116 -120.65575 
L 294.454324 -124.340709 
L 293.557489 -124.908939 
L 292.660653 -124.762327 
L 291.763817 -124.351774 
L 290.866981 -124.377843 
L 289.970146 -124.344088 
L 289.07331 -124.489976 
L 288.176474 -124.599308 
L 287.279638 -125.227977 
L 286.382803 -125.582082 
L 285.485967 -125.175161 
L 284.589131 -124.498816 
L 283.692295 -123.721985 
L 282.79546 -123.26532 
L 281.898624 -122.987793 
L 281.001788 -122.006995 
L 280.104952 -121.253966 
L 279.208117 -120.99663 
L 278.311281 -120.353618 
L 277.414445 -118.085227 
L 276.517609 -114.443549 
L 275.620773 -111.279142 
L 274.723938 -108.521255 
L 273.827102 -106.110774 
L 272.930266 -103.855878 
L 272.03343 -101.841694 
L 271.136595 -99.934959 
L 270.239759 -98.258691 
L 269.342923 -97.135509 
L 268.446087 -96.353744 
L 267.549252 -95.330339 
L 266.652416 -94.762076 
L 265.75558 -94.325299 
L 264.858744 -94.444928 
L 263.961909 -95.014206 
L 263.065073 -95.452713 
L 262.168237 -96.233803 
L 261.271401 -97.740155 
L 260.374566 -100.45348 
L 259.47773 -102.130056 
L 258.580894 -102.454665 
L 257.684058 -102.506406 
L 256.787223 -102.588554 
L 255.890387 -102.759825 
L 254.993551 -102.826334 
L 254.096715 -102.789884 
L 253.199879 -102.754957 
L 252.303044 -102.678001 
L 251.406208 -102.402587 
L 250.509372 -102.441641 
L 249.612536 -102.454838 
L 248.715701 -102.447531 
L 247.818865 -102.130748 
L 246.922029 -101.744551 
L 246.025193 -101.636943 
L 245.128358 -101.6357 
L 244.231522 -101.726474 
L 243.334686 -101.75073 
L 242.43785 -101.695106 
L 241.541015 -101.637253 
L 240.644179 -101.628847 
L 239.747343 -101.718862 
L 238.850507 -101.938562 
L 237.953672 -102.170523 
L 237.056836 -102.260839 
L 236.16 -102.061947 
L 235.263164 -102.131177 
L 234.366328 -102.445806 
L 233.469493 -103.061661 
L 232.572657 -103.445593 
L 231.675821 -103.965897 
L 230.778985 -104.091968 
L 229.88215 -104.101905 
L 228.985314 -104.102181 
L 228.088478 -103.537268 
L 227.191642 -103.765757 
L 226.294807 -104.044574 
L 225.397971 -104.420707 
L 224.501135 -104.422105 
L 223.604299 -103.963003 
L 222.707464 -102.792709 
L 221.810628 -102.11441 
L 220.913792 -100.878284 
L 220.016956 -100.634626 
L 219.120121 -100.353779 
L 218.223285 -100.087556 
L 217.326449 -100.003138 
L 216.429613 -99.963799 
L 215.532777 -99.935391 
L 214.635942 -99.934266 
L 213.739106 -99.900272 
L 212.84227 -99.958429 
L 211.945434 -99.957329 
L 211.048599 -99.957415 
L 210.151763 -100.182802 
L 209.254927 -99.206286 
L 208.358091 -98.624756 
L 207.461256 -97.270273 
L 206.56442 -97.145048 
L 205.667584 -96.898584 
L 204.770748 -97.299243 
L 203.873913 -97.742662 
L 202.977077 -97.965547 
L 202.080241 -97.424914 
L 201.183405 -96.959495 
L 200.28657 -96.636079 
L 199.389734 -96.061731 
L 198.492898 -95.596572 
L 197.596062 -94.359815 
L 196.699227 -91.829368 
L 195.802391 -89.790518 
L 194.905555 -87.771999 
L 194.008719 -86.123098 
L 193.111883 -84.624529 
L 192.215048 -83.251801 
L 191.318212 -81.195766 
L 190.421376 -78.770549 
L 189.52454 -76.792169 
L 188.627705 -76.135541 
L 187.730869 -76.420152 
L 186.834033 -76.020263 
L 185.937197 -75.772523 
L 185.040362 -74.85309 
L 184.143526 -74.409527 
L 183.24669 -74.103702 
L 182.349854 -74.821288 
L 181.453019 -75.39072 
L 180.556183 -76.74548 
L 179.659347 -77.873034 
L 178.762511 -78.138846 
L 177.865676 -78.386567 
L 176.96884 -78.594378 
L 176.072004 -78.439178 
L 175.175168 -78.426241 
L 174.278332 -78.427761 
L 173.381497 -78.238031 
L 172.484661 -77.943932 
L 171.587825 -77.129259 
L 170.690989 -76.621216 
L 169.794154 -74.343602 
L 168.897318 -73.426175 
L 168.000482 -73.302546 
L 167.103646 -73.289373 
L 166.206811 -73.178866 
L 165.309975 -73.18112 
L 164.413139 -72.91363 
L 163.516303 -71.251876 
L 162.619468 -70.641206 
L 161.722632 -70.365979 
L 160.825796 -70.256656 
L 159.92896 -68.621375 
L 159.032125 -67.152409 
L 158.135289 -64.755081 
L 157.238453 -63.61081 
L 156.341617 -62.226365 
L 155.444782 -61.899248 
L 154.547946 -60.282159 
L 153.65111 -58.309927 
L 152.754274 -56.983719 
L 151.857438 -56.236676 
L 150.960603 -55.464924 
L 150.063767 -53.559647 
L 149.166931 -51.803956 
L 148.270095 -50.698743 
L 147.37326 -50.212749 
L 146.476424 -50.112 
L 145.579588 -50.852062 
L 144.682752 -51.619584 
L 143.785917 -52.556427 
L 142.889081 -53.651088 
L 141.992245 -56.174193 
L 141.095409 -59.271793 
L 140.198574 -63.433685 
L 139.301738 -67.384641 
L 138.404902 -72.599884 
L 137.508066 -77.881389 
L 136.611231 -88.954907 
L 135.714395 -90.128993 
L 134.817559 -91.707938 
L 133.920723 -92.896822 
L 133.023887 -94.714626 
L 132.127052 -94.868081 
L 131.230216 -94.879424 
L 130.33338 -94.620852 
L 129.436544 -95.116744 
L 128.539709 -95.703935 
L 127.642873 -96.28471 
L 126.746037 -97.948661 
L 125.849201 -99.874978 
L 124.952366 -101.675769 
L 124.05553 -103.465972 
L 123.158694 -105.772057 
L 122.261858 -106.42688 
L 121.365023 -105.31293 
L 120.468187 -104.440165 
L 119.571351 -103.918429 
L 118.674515 -103.506547 
L 117.77768 -103.125531 
L 116.880844 -103.023237 
L 115.984008 -102.472971 
L 115.087172 -102.146967 
L 114.190337 -100.843663 
L 113.293501 -98.994228 
L 112.396665 -97.045925 
L 111.499829 -95.649914 
L 110.602993 -94.615705 
L 109.706158 -94.321613 
L 108.809322 -93.895015 
L 107.912486 -93.859666 
L 107.01565 -93.791239 
L 106.118815 -93.994956 
L 105.221979 -94.258931 
L 104.325143 -94.321554 
L 103.428307 -94.210191 
L 102.531472 -94.173621 
L 101.634636 -93.086089 
L 100.7378 -92.439581 
L 99.840964 -91.591709 
L 98.944129 -91.591208 
L 98.047293 -90.673814 
L 97.150457 -90.760908 
L 96.253621 -90.518815 
L 95.356786 -89.456815 
L 94.45995 -87.564917 
L 93.563114 -85.938574 
L 92.666278 -84.524042 
L 91.769442 -82.398157 
L 90.872607 -81.160673 
z
" id="me42ac3783c" style="stroke:#4b0082;stroke-opacity:0.3;"/>
    </defs>
    <g clip-path="url(#p78471d440e)">
     <use style="fill:#4b0082;fill-opacity:0.3;stroke:#4b0082;stroke-opacity:0.3;" x="0" xlink:href="#me42ac3783c" y="345.6"/>
    </g>
   </g>
   <g id="matplotlib.axis_1">
    <g id="xtick_1">
     <g id="line2d_1">
      <defs>
       <path d="M 0 0 
L 0 3.5 
" id="me268a593a7" style="stroke:#000000;stroke-width:0.8;"/>
      </defs>
      <g>
       <use style="stroke:#000000;stroke-width:0.8;" x="73.832727" xlink:href="#me268a593a7" y="307.584"/>
      </g>
     </g>
     <g id="text_1">
      <!-- 2020-01 -->
      <g transform="translate(52.941321 322.182437)scale(0.1 -0.1)">
       <defs>
        <path d="M 19.1875 8.296875 
L 53.609375 8.296875 
L 53.609375 0 
L 7.328125 0 
L 7.328125 8.296875 
Q 12.9375 14.109375 22.625 23.890625 
Q 32.328125 33.6875 34.8125 36.53125 
Q 39.546875 41.84375 41.421875 45.53125 
Q 43.3125 49.21875 43.3125 52.78125 
Q 43.3125 58.59375 39.234375 62.25 
Q 35.15625 65.921875 28.609375 65.921875 
Q 23.96875 65.921875 18.8125 64.3125 
Q 13.671875 62.703125 7.8125 59.421875 
L 7.8125 69.390625 
Q 13.765625 71.78125 18.9375 73 
Q 24.125 74.21875 28.421875 74.21875 
Q 39.75 74.21875 46.484375 68.546875 
Q 53.21875 62.890625 53.21875 53.421875 
Q 53.21875 48.921875 51.53125 44.890625 
Q 49.859375 40.875 45.40625 35.40625 
Q 44.1875 33.984375 37.640625 27.21875 
Q 31.109375 20.453125 19.1875 8.296875 
z
" id="DejaVuSans-50"/>
        <path d="M 31.78125 66.40625 
Q 24.171875 66.40625 20.328125 58.90625 
Q 16.5 51.421875 16.5 36.375 
Q 16.5 21.390625 20.328125 13.890625 
Q 24.171875 6.390625 31.78125 6.390625 
Q 39.453125 6.390625 43.28125 13.890625 
Q 47.125 21.390625 47.125 36.375 
Q 47.125 51.421875 43.28125 58.90625 
Q 39.453125 66.40625 31.78125 66.40625 
z
M 31.78125 74.21875 
Q 44.046875 74.21875 50.515625 64.515625 
Q 56.984375 54.828125 56.984375 36.375 
Q 56.984375 17.96875 50.515625 8.265625 
Q 44.046875 -1.421875 31.78125 -1.421875 
Q 19.53125 -1.421875 13.0625 8.265625 
Q 6.59375 17.96875 6.59375 36.375 
Q 6.59375 54.828125 13.0625 64.515625 
Q 19.53125 74.21875 31.78125 74.21875 
z
" id="DejaVuSans-48"/>
        <path d="M 4.890625 31.390625 
L 31.203125 31.390625 
L 31.203125 23.390625 
L 4.890625 23.390625 
z
" id="DejaVuSans-45"/>
        <path d="M 12.40625 8.296875 
L 28.515625 8.296875 
L 28.515625 63.921875 
L 10.984375 60.40625 
L 10.984375 69.390625 
L 28.421875 72.90625 
L 38.28125 72.90625 
L 38.28125 8.296875 
L 54.390625 8.296875 
L 54.390625 0 
L 12.40625 0 
z
" id="DejaVuSans-49"/>
       </defs>
       <use xlink:href="#DejaVuSans-50"/>
       <use x="63.623047" xlink:href="#DejaVuSans-48"/>
       <use x="127.246094" xlink:href="#DejaVuSans-50"/>
       <use x="190.869141" xlink:href="#DejaVuSans-48"/>
       <use x="254.492188" xlink:href="#DejaVuSans-45"/>
       <use x="290.576172" xlink:href="#DejaVuSans-48"/>
       <use x="354.199219" xlink:href="#DejaVuSans-49"/>
      </g>
     </g>
    </g>
    <g id="xtick_2">
     <g id="line2d_2">
      <g>
       <use style="stroke:#000000;stroke-width:0.8;" x="127.642873" xlink:href="#me268a593a7" y="307.584"/>
      </g>
     </g>
     <g id="text_2">
      <!-- 2020-03 -->
      <g transform="translate(106.751467 322.182437)scale(0.1 -0.1)">
       <defs>
        <path d="M 40.578125 39.3125 
Q 47.65625 37.796875 51.625 33 
Q 55.609375 28.21875 55.609375 21.1875 
Q 55.609375 10.40625 48.1875 4.484375 
Q 40.765625 -1.421875 27.09375 -1.421875 
Q 22.515625 -1.421875 17.65625 -0.515625 
Q 12.796875 0.390625 7.625 2.203125 
L 7.625 11.71875 
Q 11.71875 9.328125 16.59375 8.109375 
Q 21.484375 6.890625 26.8125 6.890625 
Q 36.078125 6.890625 40.9375 10.546875 
Q 45.796875 14.203125 45.796875 21.1875 
Q 45.796875 27.640625 41.28125 31.265625 
Q 36.765625 34.90625 28.71875 34.90625 
L 20.21875 34.90625 
L 20.21875 43.015625 
L 29.109375 43.015625 
Q 36.375 43.015625 40.234375 45.921875 
Q 44.09375 48.828125 44.09375 54.296875 
Q 44.09375 59.90625 40.109375 62.90625 
Q 36.140625 65.921875 28.71875 65.921875 
Q 24.65625 65.921875 20.015625 65.03125 
Q 15.375 64.15625 9.8125 62.3125 
L 9.8125 71.09375 
Q 15.4375 72.65625 20.34375 73.4375 
Q 25.25 74.21875 29.59375 74.21875 
Q 40.828125 74.21875 47.359375 69.109375 
Q 53.90625 64.015625 53.90625 55.328125 
Q 53.90625 49.265625 50.4375 45.09375 
Q 46.96875 40.921875 40.578125 39.3125 
z
" id="DejaVuSans-51"/>
       </defs>
       <use xlink:href="#DejaVuSans-50"/>
       <use x="63.623047" xlink:href="#DejaVuSans-48"/>
       <use x="127.246094" xlink:href="#DejaVuSans-50"/>
       <use x="190.869141" xlink:href="#DejaVuSans-48"/>
       <use x="254.492188" xlink:href="#DejaVuSans-45"/>
       <use x="290.576172" xlink:href="#DejaVuSans-48"/>
       <use x="354.199219" xlink:href="#DejaVuSans-51"/>
      </g>
     </g>
    </g>
    <g id="xtick_3">
     <g id="line2d_3">
      <g>
       <use style="stroke:#000000;stroke-width:0.8;" x="182.349854" xlink:href="#me268a593a7" y="307.584"/>
      </g>
     </g>
     <g id="text_3">
      <!-- 2020-05 -->
      <g transform="translate(161.458448 322.182437)scale(0.1 -0.1)">
       <defs>
        <path d="M 10.796875 72.90625 
L 49.515625 72.90625 
L 49.515625 64.59375 
L 19.828125 64.59375 
L 19.828125 46.734375 
Q 21.96875 47.46875 24.109375 47.828125 
Q 26.265625 48.1875 28.421875 48.1875 
Q 40.625 48.1875 47.75 41.5 
Q 54.890625 34.8125 54.890625 23.390625 
Q 54.890625 11.625 47.5625 5.09375 
Q 40.234375 -1.421875 26.90625 -1.421875 
Q 22.3125 -1.421875 17.546875 -0.640625 
Q 12.796875 0.140625 7.71875 1.703125 
L 7.71875 11.625 
Q 12.109375 9.234375 16.796875 8.0625 
Q 21.484375 6.890625 26.703125 6.890625 
Q 35.15625 6.890625 40.078125 11.328125 
Q 45.015625 15.765625 45.015625 23.390625 
Q 45.015625 31 40.078125 35.4375 
Q 35.15625 39.890625 26.703125 39.890625 
Q 22.75 39.890625 18.8125 39.015625 
Q 14.890625 38.140625 10.796875 36.28125 
z
" id="DejaVuSans-53"/>
       </defs>
       <use xlink:href="#DejaVuSans-50"/>
       <use x="63.623047" xlink:href="#DejaVuSans-48"/>
       <use x="127.246094" xlink:href="#DejaVuSans-50"/>
       <use x="190.869141" xlink:href="#DejaVuSans-48"/>
       <use x="254.492188" xlink:href="#DejaVuSans-45"/>
       <use x="290.576172" xlink:href="#DejaVuSans-48"/>
       <use x="354.199219" xlink:href="#DejaVuSans-53"/>
      </g>
     </g>
    </g>
    <g id="xtick_4">
     <g id="line2d_4">
      <g>
       <use style="stroke:#000000;stroke-width:0.8;" x="237.056836" xlink:href="#me268a593a7" y="307.584"/>
      </g>
     </g>
     <g id="text_4">
      <!-- 2020-07 -->
      <g transform="translate(216.16543 322.182437)scale(0.1 -0.1)">
       <defs>
        <path d="M 8.203125 72.90625 
L 55.078125 72.90625 
L 55.078125 68.703125 
L 28.609375 0 
L 18.3125 0 
L 43.21875 64.59375 
L 8.203125 64.59375 
z
" id="DejaVuSans-55"/>
       </defs>
       <use xlink:href="#DejaVuSans-50"/>
       <use x="63.623047" xlink:href="#DejaVuSans-48"/>
       <use x="127.246094" xlink:href="#DejaVuSans-50"/>
       <use x="190.869141" xlink:href="#DejaVuSans-48"/>
       <use x="254.492188" xlink:href="#DejaVuSans-45"/>
       <use x="290.576172" xlink:href="#DejaVuSans-48"/>
       <use x="354.199219" xlink:href="#DejaVuSans-55"/>
      </g>
     </g>
    </g>
    <g id="xtick_5">
     <g id="line2d_5">
      <g>
       <use style="stroke:#000000;stroke-width:0.8;" x="292.660653" xlink:href="#me268a593a7" y="307.584"/>
      </g>
     </g>
     <g id="text_5">
      <!-- 2020-09 -->
      <g transform="translate(271.769247 322.182437)scale(0.1 -0.1)">
       <defs>
        <path d="M 10.984375 1.515625 
L 10.984375 10.5 
Q 14.703125 8.734375 18.5 7.8125 
Q 22.3125 6.890625 25.984375 6.890625 
Q 35.75 6.890625 40.890625 13.453125 
Q 46.046875 20.015625 46.78125 33.40625 
Q 43.953125 29.203125 39.59375 26.953125 
Q 35.25 24.703125 29.984375 24.703125 
Q 19.046875 24.703125 12.671875 31.3125 
Q 6.296875 37.9375 6.296875 49.421875 
Q 6.296875 60.640625 12.9375 67.421875 
Q 19.578125 74.21875 30.609375 74.21875 
Q 43.265625 74.21875 49.921875 64.515625 
Q 56.59375 54.828125 56.59375 36.375 
Q 56.59375 19.140625 48.40625 8.859375 
Q 40.234375 -1.421875 26.421875 -1.421875 
Q 22.703125 -1.421875 18.890625 -0.6875 
Q 15.09375 0.046875 10.984375 1.515625 
z
M 30.609375 32.421875 
Q 37.25 32.421875 41.125 36.953125 
Q 45.015625 41.5 45.015625 49.421875 
Q 45.015625 57.28125 41.125 61.84375 
Q 37.25 66.40625 30.609375 66.40625 
Q 23.96875 66.40625 20.09375 61.84375 
Q 16.21875 57.28125 16.21875 49.421875 
Q 16.21875 41.5 20.09375 36.953125 
Q 23.96875 32.421875 30.609375 32.421875 
z
" id="DejaVuSans-57"/>
       </defs>
       <use xlink:href="#DejaVuSans-50"/>
       <use x="63.623047" xlink:href="#DejaVuSans-48"/>
       <use x="127.246094" xlink:href="#DejaVuSans-50"/>
       <use x="190.869141" xlink:href="#DejaVuSans-48"/>
       <use x="254.492188" xlink:href="#DejaVuSans-45"/>
       <use x="290.576172" xlink:href="#DejaVuSans-48"/>
       <use x="354.199219" xlink:href="#DejaVuSans-57"/>
      </g>
     </g>
    </g>
    <g id="xtick_6">
     <g id="line2d_6">
      <g>
       <use style="stroke:#000000;stroke-width:0.8;" x="347.367634" xlink:href="#me268a593a7" y="307.584"/>
      </g>
     </g>
     <g id="text_6">
      <!-- 2020-11 -->
      <g transform="translate(326.476228 322.182437)scale(0.1 -0.1)">
       <use xlink:href="#DejaVuSans-50"/>
       <use x="63.623047" xlink:href="#DejaVuSans-48"/>
       <use x="127.246094" xlink:href="#DejaVuSans-50"/>
       <use x="190.869141" xlink:href="#DejaVuSans-48"/>
       <use x="254.492188" xlink:href="#DejaVuSans-45"/>
       <use x="290.576172" xlink:href="#DejaVuSans-49"/>
       <use x="354.199219" xlink:href="#DejaVuSans-49"/>
      </g>
     </g>
    </g>
    <g id="xtick_7">
     <g id="line2d_7">
      <g>
       <use style="stroke:#000000;stroke-width:0.8;" x="402.074616" xlink:href="#me268a593a7" y="307.584"/>
      </g>
     </g>
     <g id="text_7">
      <!-- 2021-01 -->
      <g transform="translate(381.18321 322.182437)scale(0.1 -0.1)">
       <use xlink:href="#DejaVuSans-50"/>
       <use x="63.623047" xlink:href="#DejaVuSans-48"/>
       <use x="127.246094" xlink:href="#DejaVuSans-50"/>
       <use x="190.869141" xlink:href="#DejaVuSans-49"/>
       <use x="254.492188" xlink:href="#DejaVuSans-45"/>
       <use x="290.576172" xlink:href="#DejaVuSans-48"/>
       <use x="354.199219" xlink:href="#DejaVuSans-49"/>
      </g>
     </g>
    </g>
   </g>
   <g id="matplotlib.axis_2">
    <g id="ytick_1">
     <g id="line2d_8">
      <defs>
       <path d="M 0 0 
L -3.5 0 
" id="m789b5569f4" style="stroke:#000000;stroke-width:0.8;"/>
      </defs>
      <g>
       <use style="stroke:#000000;stroke-width:0.8;" x="57.6" xlink:href="#m789b5569f4" y="282.946133"/>
      </g>
     </g>
     <g id="text_8">
      <!-- 5000 -->
      <g transform="translate(25.15 286.745351)scale(0.1 -0.1)">
       <use xlink:href="#DejaVuSans-53"/>
       <use x="63.623047" xlink:href="#DejaVuSans-48"/>
       <use x="127.246094" xlink:href="#DejaVuSans-48"/>
       <use x="190.869141" xlink:href="#DejaVuSans-48"/>
      </g>
     </g>
    </g>
    <g id="ytick_2">
     <g id="line2d_9">
      <g>
       <use style="stroke:#000000;stroke-width:0.8;" x="57.6" xlink:href="#m789b5569f4" y="233.083704"/>
      </g>
     </g>
     <g id="text_9">
      <!-- 10000 -->
      <g transform="translate(18.7875 236.882923)scale(0.1 -0.1)">
       <use xlink:href="#DejaVuSans-49"/>
       <use x="63.623047" xlink:href="#DejaVuSans-48"/>
       <use x="127.246094" xlink:href="#DejaVuSans-48"/>
       <use x="190.869141" xlink:href="#DejaVuSans-48"/>
       <use x="254.492188" xlink:href="#DejaVuSans-48"/>
      </g>
     </g>
    </g>
    <g id="ytick_3">
     <g id="line2d_10">
      <g>
       <use style="stroke:#000000;stroke-width:0.8;" x="57.6" xlink:href="#m789b5569f4" y="183.221276"/>
      </g>
     </g>
     <g id="text_10">
      <!-- 15000 -->
      <g transform="translate(18.7875 187.020495)scale(0.1 -0.1)">
       <use xlink:href="#DejaVuSans-49"/>
       <use x="63.623047" xlink:href="#DejaVuSans-53"/>
       <use x="127.246094" xlink:href="#DejaVuSans-48"/>
       <use x="190.869141" xlink:href="#DejaVuSans-48"/>
       <use x="254.492188" xlink:href="#DejaVuSans-48"/>
      </g>
     </g>
    </g>
    <g id="ytick_4">
     <g id="line2d_11">
      <g>
       <use style="stroke:#000000;stroke-width:0.8;" x="57.6" xlink:href="#m789b5569f4" y="133.358848"/>
      </g>
     </g>
     <g id="text_11">
      <!-- 20000 -->
      <g transform="translate(18.7875 137.158067)scale(0.1 -0.1)">
       <use xlink:href="#DejaVuSans-50"/>
       <use x="63.623047" xlink:href="#DejaVuSans-48"/>
       <use x="127.246094" xlink:href="#DejaVuSans-48"/>
       <use x="190.869141" xlink:href="#DejaVuSans-48"/>
       <use x="254.492188" xlink:href="#DejaVuSans-48"/>
      </g>
     </g>
    </g>
    <g id="ytick_5">
     <g id="line2d_12">
      <g>
       <use style="stroke:#000000;stroke-width:0.8;" x="57.6" xlink:href="#m789b5569f4" y="83.49642"/>
      </g>
     </g>
     <g id="text_12">
      <!-- 25000 -->
      <g transform="translate(18.7875 87.295639)scale(0.1 -0.1)">
       <use xlink:href="#DejaVuSans-50"/>
       <use x="63.623047" xlink:href="#DejaVuSans-53"/>
       <use x="127.246094" xlink:href="#DejaVuSans-48"/>
       <use x="190.869141" xlink:href="#DejaVuSans-48"/>
       <use x="254.492188" xlink:href="#DejaVuSans-48"/>
      </g>
     </g>
    </g>
   </g>
   <g id="line2d_13">
    <path clip-path="url(#p78471d440e)" d="M 90.872607 239.691019 
L 91.769442 239.393598 
L 94.45995 240.745243 
L 95.356786 241.65905 
L 96.253621 241.882447 
L 97.150457 241.38284 
L 98.047293 239.949063 
L 98.944129 239.396974 
L 99.840964 238.081645 
L 101.634636 237.043527 
L 102.531472 236.906835 
L 103.428307 236.460521 
L 104.325143 236.206044 
L 105.221979 235.249398 
L 107.912486 231.891485 
L 108.809322 230.401049 
L 109.706158 229.705628 
L 110.602993 228.399046 
L 111.499829 227.482829 
L 112.396665 227.090187 
L 113.293501 227.024392 
L 114.190337 227.577125 
L 115.087172 227.858554 
L 115.984008 227.872612 
L 116.880844 227.529925 
L 118.674515 227.668256 
L 120.468187 227.96198 
L 121.365023 228.15499 
L 122.261858 228.780989 
L 123.158694 228.424826 
L 124.05553 227.076525 
L 124.952366 226.275604 
L 125.849201 225.653558 
L 127.642873 224.990559 
L 128.539709 225.745947 
L 130.33338 227.696457 
L 131.230216 229.234979 
L 133.023887 230.823462 
L 133.920723 230.656994 
L 134.817559 231.703369 
L 135.714395 231.814016 
L 136.611231 232.291513 
L 137.508066 225.986313 
L 138.404902 224.731963 
L 139.301738 224.29449 
L 140.198574 224.636264 
L 141.095409 224.732864 
L 141.992245 225.07879 
L 142.889081 225.95128 
L 145.579588 230.342233 
L 148.270095 237.567483 
L 149.166931 241.051702 
L 150.960603 249.362265 
L 153.65111 257.409423 
L 154.547946 260.878746 
L 155.444782 260.742806 
L 156.341617 259.869761 
L 157.238453 259.700738 
L 158.135289 259.336318 
L 159.032125 260.003487 
L 159.92896 259.517191 
L 160.825796 259.209085 
L 161.722632 258.160722 
L 162.619468 257.330661 
L 163.516303 257.230959 
L 164.413139 257.885113 
L 165.309975 257.503883 
L 168.000482 257.415011 
L 168.897318 257.18253 
L 169.794154 257.242019 
L 170.690989 258.178729 
L 171.587825 258.086583 
L 172.484661 258.456124 
L 173.381497 258.565882 
L 174.278332 258.45165 
L 175.175168 257.635503 
L 179.659347 254.637167 
L 180.556183 252.55375 
L 181.453019 249.373228 
L 183.24669 244.390888 
L 184.143526 242.646424 
L 185.040362 241.179 
L 185.937197 239.931263 
L 187.730869 236.108998 
L 188.627705 233.071925 
L 189.52454 231.16546 
L 192.215048 232.47779 
L 193.111883 232.312511 
L 194.008719 231.73712 
L 194.905555 231.466328 
L 195.802391 231.627561 
L 196.699227 231.571442 
L 197.596062 232.19475 
L 198.492898 231.919379 
L 199.389734 231.355921 
L 201.183405 231.406091 
L 202.977077 231.644669 
L 204.770748 231.478842 
L 205.667584 231.529836 
L 206.56442 232.552876 
L 207.461256 232.969746 
L 208.358091 233.24185 
L 209.254927 233.137185 
L 210.151763 233.280999 
L 211.048599 232.021166 
L 212.84227 232.004407 
L 213.739106 231.575518 
L 214.635942 231.704624 
L 216.429613 231.808337 
L 217.326449 231.950637 
L 219.120121 231.288473 
L 220.913792 231.296028 
L 221.810628 231.888375 
L 222.707464 232.301207 
L 223.604299 232.905375 
L 224.501135 233.098521 
L 226.294807 232.996011 
L 228.088478 232.946413 
L 228.985314 234.171105 
L 230.778985 234.182817 
L 231.675821 234.617875 
L 233.469493 234.720297 
L 234.366328 234.841274 
L 235.263164 235.097879 
L 236.16 235.6137 
L 237.056836 236.454372 
L 238.850507 236.743914 
L 239.747343 236.861783 
L 240.644179 236.833535 
L 243.334686 237.618009 
L 244.231522 237.466404 
L 246.025193 237.60461 
L 246.922029 237.907529 
L 248.715701 239.21379 
L 250.509372 239.278928 
L 251.406208 239.281854 
L 253.199879 239.426081 
L 254.993551 239.404162 
L 255.890387 239.180766 
L 258.580894 237.475287 
L 259.47773 236.643248 
L 260.374566 233.934395 
L 261.271401 229.520035 
L 263.065073 223.754753 
L 263.961909 221.573605 
L 264.858744 218.93493 
L 265.75558 216.814204 
L 267.549252 213.80641 
L 268.446087 212.732427 
L 269.342923 210.846953 
L 270.239759 209.29052 
L 271.136595 208.561036 
L 272.03343 207.993522 
L 272.930266 207.211654 
L 273.827102 206.998055 
L 274.723938 207.583178 
L 275.620773 208.326009 
L 276.517609 209.338603 
L 277.414445 210.802742 
L 278.311281 211.467727 
L 279.208117 211.241947 
L 280.104952 210.157984 
L 281.001788 210.048393 
L 281.898624 210.223018 
L 283.692295 210.35654 
L 284.589131 210.687547 
L 286.382803 211.145295 
L 289.970146 211.005091 
L 290.866981 211.391149 
L 291.763817 211.518783 
L 292.660653 211.30885 
L 294.454324 211.112617 
L 295.35116 209.026276 
L 296.247996 208.327651 
L 297.144832 207.375226 
L 298.041668 207.849595 
L 298.938503 208.126902 
L 299.835339 208.176883 
L 300.732175 208.441923 
L 302.525846 209.576034 
L 303.422682 210.454573 
L 307.010025 212.424016 
L 307.906861 213.135041 
L 308.803697 214.06888 
L 309.700532 215.312757 
L 311.494204 220.250438 
L 312.39104 221.52546 
L 315.081547 221.21982 
L 315.978383 221.230914 
L 316.875218 221.04202 
L 317.772054 221.453551 
L 320.462562 221.708198 
L 321.359397 221.95695 
L 323.153069 222.022025 
L 324.049905 222.48252 
L 324.94674 222.79097 
L 326.740412 222.819233 
L 328.534083 220.420092 
L 329.430919 218.940813 
L 330.327755 218.31121 
L 332.121426 216.647378 
L 333.915098 215.780769 
L 334.811934 215.13914 
L 335.708769 214.109757 
L 336.605605 212.882403 
L 338.399277 206.261466 
L 340.192948 201.514785 
L 341.089784 199.696092 
L 341.98662 198.342066 
L 342.883456 196.045787 
L 344.677127 193.363352 
L 347.367634 188.760498 
L 348.26447 188.038687 
L 350.058142 185.676674 
L 350.954977 181.670195 
L 351.851813 178.67534 
L 352.748649 177.993326 
L 353.645485 176.197586 
L 354.54232 175.199264 
L 355.439156 173.68884 
L 356.335992 171.606365 
L 358.129663 166.08837 
L 359.026499 164.608465 
L 359.923335 163.716665 
L 360.820171 161.26599 
L 362.613842 153.972185 
L 363.510678 151.150176 
L 364.407514 146.755785 
L 365.30435 143.320383 
L 366.201185 141.641231 
L 367.098021 140.217323 
L 368.891693 135.524673 
L 369.788528 135.45373 
L 370.685364 136.286386 
L 372.479036 136.2728 
L 373.375871 134.083683 
L 374.272707 133.838434 
L 376.066379 131.401831 
L 376.963214 132.202871 
L 377.86005 133.347276 
L 378.756886 133.373441 
L 379.653722 132.84805 
L 382.344229 133.21188 
L 383.241065 133.311413 
L 384.137901 133.105304 
L 385.034736 132.538295 
L 385.931572 132.387219 
L 386.828408 131.598671 
L 387.725244 126.947733 
L 390.415751 102.598204 
L 391.312587 96.822898 
L 392.209422 93.26887 
L 393.106258 87.907076 
L 394.89993 80.543202 
L 395.796765 75.239476 
L 396.693601 66.760232 
L 398.487273 53.568 
L 398.487273 53.568 
" style="fill:none;stroke:#1f77b4;stroke-linecap:square;stroke-width:1.5;"/>
   </g>
   <g id="line2d_14">
    <path clip-path="url(#p78471d440e)" d="M 90.872607 264.439327 
L 91.769442 263.201843 
L 92.666278 261.075958 
L 93.563114 259.661426 
L 94.45995 258.035083 
L 95.356786 256.143185 
L 96.253621 255.081185 
L 97.150457 254.839092 
L 98.047293 254.926186 
L 98.944129 254.008792 
L 99.840964 254.008291 
L 100.7378 253.160419 
L 101.634636 252.513911 
L 102.531472 251.426379 
L 105.221979 251.341069 
L 107.01565 251.808761 
L 108.809322 251.704985 
L 109.706158 251.278387 
L 110.602993 250.984295 
L 111.499829 249.950086 
L 112.396665 248.554075 
L 114.190337 244.756337 
L 115.087172 243.453033 
L 115.984008 243.127029 
L 116.880844 242.576763 
L 117.77768 242.474469 
L 119.571351 241.681571 
L 120.468187 241.159835 
L 121.365023 240.28707 
L 122.261858 239.17312 
L 123.158694 239.827943 
L 124.05553 242.134028 
L 127.642873 249.31529 
L 130.33338 250.979148 
L 131.230216 250.720576 
L 132.127052 250.731919 
L 133.023887 250.885374 
L 133.920723 252.703178 
L 134.817559 253.892062 
L 135.714395 255.471007 
L 136.611231 256.645093 
L 137.508066 267.718611 
L 139.301738 278.215359 
L 141.095409 286.328207 
L 141.992245 289.425807 
L 142.889081 291.948912 
L 144.682752 293.980416 
L 146.476424 295.488 
L 147.37326 295.387251 
L 148.270095 294.901257 
L 149.166931 293.796044 
L 150.960603 290.135076 
L 152.754274 288.616281 
L 153.65111 287.290073 
L 154.547946 285.317841 
L 155.444782 283.700752 
L 156.341617 283.373635 
L 157.238453 281.98919 
L 158.135289 280.844919 
L 159.032125 278.447591 
L 160.825796 275.343344 
L 161.722632 275.234021 
L 162.619468 274.958794 
L 163.516303 274.348124 
L 164.413139 272.68637 
L 165.309975 272.41888 
L 166.206811 272.421134 
L 168.897318 272.173825 
L 169.794154 271.256398 
L 170.690989 268.978784 
L 171.587825 268.470741 
L 172.484661 267.656068 
L 174.278332 267.172239 
L 176.072004 267.160822 
L 176.96884 267.005622 
L 179.659347 267.726966 
L 180.556183 268.85452 
L 181.453019 270.20928 
L 182.349854 270.778712 
L 183.24669 271.496298 
L 184.143526 271.190473 
L 185.040362 270.74691 
L 185.937197 269.827477 
L 186.834033 269.579737 
L 187.730869 269.179848 
L 188.627705 269.464459 
L 189.52454 268.807831 
L 190.421376 266.829451 
L 191.318212 264.404234 
L 192.215048 262.348199 
L 194.008719 259.476902 
L 194.905555 257.828001 
L 196.699227 253.770632 
L 197.596062 251.240185 
L 198.492898 250.003428 
L 202.977077 247.634453 
L 203.873913 247.857338 
L 205.667584 248.701416 
L 206.56442 248.454952 
L 207.461256 248.329727 
L 208.358091 246.975244 
L 209.254927 246.393714 
L 210.151763 245.417198 
L 211.048599 245.642585 
L 217.326449 245.596862 
L 218.223285 245.512444 
L 220.913792 244.721716 
L 221.810628 243.48559 
L 222.707464 242.807291 
L 223.604299 241.636997 
L 224.501135 241.177895 
L 225.397971 241.179293 
L 227.191642 241.834243 
L 228.088478 242.062732 
L 228.985314 241.497819 
L 230.778985 241.508032 
L 231.675821 241.634103 
L 232.572657 242.154407 
L 233.469493 242.538339 
L 234.366328 243.154194 
L 235.263164 243.468823 
L 236.16 243.538053 
L 237.056836 243.339161 
L 237.953672 243.429477 
L 239.747343 243.881138 
L 241.541015 243.962747 
L 244.231522 243.873526 
L 246.025193 243.963057 
L 246.922029 243.855449 
L 248.715701 243.152469 
L 251.406208 243.197413 
L 252.303044 242.921999 
L 254.993551 242.773666 
L 256.787223 243.011446 
L 258.580894 243.145335 
L 259.47773 243.469944 
L 260.374566 245.14652 
L 261.271401 247.859845 
L 262.168237 249.366197 
L 263.065073 250.147287 
L 263.961909 250.585794 
L 264.858744 251.155072 
L 265.75558 251.274701 
L 266.652416 250.837924 
L 267.549252 250.269661 
L 268.446087 249.246256 
L 269.342923 248.464491 
L 270.239759 247.341309 
L 272.03343 243.758306 
L 273.827102 239.489226 
L 274.723938 237.078745 
L 275.620773 234.320858 
L 276.517609 231.156451 
L 277.414445 227.514773 
L 278.311281 225.246382 
L 279.208117 224.60337 
L 280.104952 224.346034 
L 281.001788 223.593005 
L 281.898624 222.612207 
L 282.79546 222.33468 
L 283.692295 221.878015 
L 285.485967 220.424839 
L 286.382803 220.017918 
L 287.279638 220.372023 
L 288.176474 221.000692 
L 290.866981 221.222157 
L 291.763817 221.248226 
L 292.660653 220.837673 
L 293.557489 220.691061 
L 294.454324 221.259291 
L 295.35116 224.94425 
L 296.247996 227.107663 
L 297.144832 229.801345 
L 298.041668 231.484393 
L 298.938503 232.804595 
L 299.835339 234.551055 
L 300.732175 235.524721 
L 301.629011 236.275947 
L 303.422682 237.401503 
L 304.319518 237.609148 
L 306.113189 237.640766 
L 307.906861 237.436254 
L 309.700532 236.688182 
L 310.597368 235.65348 
L 311.494204 234.445606 
L 314.184711 233.847484 
L 315.978383 232.621133 
L 316.875218 232.265048 
L 317.772054 231.123747 
L 319.565726 230.297365 
L 320.462562 230.093649 
L 321.359397 229.603602 
L 324.94674 229.595205 
L 326.740412 229.588566 
L 327.637248 230.290912 
L 329.430919 231.156819 
L 330.327755 230.617207 
L 332.121426 230.745891 
L 333.915098 230.414194 
L 336.605605 230.490787 
L 337.502441 231.787856 
L 338.399277 232.518938 
L 340.192948 232.427446 
L 341.089784 231.969811 
L 341.98662 230.852453 
L 342.883456 230.163963 
L 344.677127 228.084411 
L 347.367634 225.806071 
L 350.058142 221.527269 
L 350.954977 221.277457 
L 351.851813 220.064831 
L 352.748649 217.429021 
L 353.645485 215.504102 
L 354.54232 213.099917 
L 355.439156 212.115269 
L 356.335992 211.486586 
L 357.232828 211.08081 
L 358.129663 210.458433 
L 359.026499 208.909994 
L 359.923335 206.909357 
L 361.717007 205.758356 
L 362.613842 204.879128 
L 363.510678 203.464673 
L 364.407514 202.994157 
L 365.30435 201.508592 
L 367.098021 195.429769 
L 367.994857 192.901089 
L 368.891693 192.012345 
L 369.788528 190.49419 
L 370.685364 187.355538 
L 371.5822 185.125448 
L 372.479036 182.273011 
L 373.375871 180.079566 
L 374.272707 177.244657 
L 376.066379 173.652776 
L 376.963214 170.277133 
L 377.86005 165.951824 
L 378.756886 163.266888 
L 379.653722 162.287369 
L 380.550558 161.604986 
L 381.447393 160.757038 
L 382.344229 161.069278 
L 383.241065 161.625687 
L 385.034736 161.227451 
L 386.828408 161.334765 
L 387.725244 161.829808 
L 388.622079 164.567081 
L 389.518915 166.858047 
L 390.415751 169.535202 
L 391.312587 171.569928 
L 392.209422 171.211722 
L 393.106258 171.995061 
L 394.003094 171.777892 
L 394.89993 170.532313 
L 395.796765 170.301432 
L 396.693601 171.740862 
L 397.590437 171.299611 
L 398.487273 169.194323 
L 398.487273 169.194323 
" style="fill:none;stroke:#ff7f0e;stroke-linecap:square;stroke-width:1.5;"/>
   </g>
   <g id="line2d_15">
    <path clip-path="url(#p78471d440e)" d="M 90.872607 252.065173 
L 92.666278 250.450338 
L 96.253621 248.481816 
L 97.150457 248.110966 
L 102.531472 244.166607 
L 104.325143 243.742245 
L 107.01565 242.413803 
L 107.912486 241.81591 
L 108.809322 241.053017 
L 109.706158 240.492007 
L 110.602993 239.69167 
L 113.293501 236.815082 
L 114.190337 236.166731 
L 115.087172 235.655794 
L 115.984008 235.499821 
L 116.880844 235.053344 
L 118.674515 234.880854 
L 120.468187 234.560907 
L 122.261858 233.977055 
L 123.158694 234.126384 
L 124.952366 235.099918 
L 125.849201 235.68929 
L 126.746037 236.4985 
L 128.539709 237.821006 
L 130.33338 239.337803 
L 131.230216 239.977778 
L 132.127052 240.345698 
L 133.023887 240.854418 
L 133.920723 241.680086 
L 134.817559 242.797716 
L 136.611231 244.468303 
L 137.508066 246.852462 
L 138.404902 248.86604 
L 140.198574 253.401289 
L 141.095409 255.530535 
L 142.889081 258.950096 
L 144.682752 261.376989 
L 145.579588 262.545085 
L 146.476424 264.102081 
L 150.960603 269.748671 
L 153.65111 272.349748 
L 154.547946 273.098293 
L 155.444782 272.221779 
L 156.341617 271.621698 
L 159.032125 269.225539 
L 160.825796 267.276215 
L 162.619468 266.144727 
L 163.516303 265.789542 
L 164.413139 265.285741 
L 165.309975 264.961381 
L 168.000482 264.856232 
L 168.897318 264.678177 
L 169.794154 264.249208 
L 170.690989 263.578757 
L 172.484661 263.056096 
L 174.278332 262.811945 
L 176.96884 261.681636 
L 179.659347 261.182067 
L 180.556183 260.704135 
L 184.143526 256.918449 
L 185.937197 254.87937 
L 187.730869 252.644423 
L 189.52454 249.986645 
L 190.421376 249.204234 
L 191.318212 248.206854 
L 193.111883 246.643991 
L 194.905555 244.647164 
L 198.492898 240.961403 
L 199.389734 240.447095 
L 200.28657 240.166082 
L 203.873913 239.70137 
L 205.667584 240.115626 
L 206.56442 240.503914 
L 207.461256 240.649736 
L 208.358091 240.108547 
L 210.151763 239.349099 
L 211.048599 238.831876 
L 212.84227 238.822989 
L 213.739106 238.637623 
L 217.326449 238.77375 
L 222.707464 237.554249 
L 223.604299 237.271186 
L 224.501135 237.138208 
L 225.397971 237.138764 
L 228.088478 237.504572 
L 228.985314 237.834462 
L 230.778985 237.845424 
L 237.953672 240.034424 
L 239.747343 240.37146 
L 240.644179 240.402344 
L 243.334686 240.733639 
L 244.231522 240.669965 
L 251.406208 241.239633 
L 254.096715 241.115123 
L 255.890387 241.010471 
L 258.580894 240.310311 
L 259.47773 240.056596 
L 260.374566 239.540458 
L 263.961909 236.079699 
L 268.446087 230.989341 
L 271.136595 227.113039 
L 274.723938 222.330961 
L 278.311281 218.357054 
L 279.208117 217.922659 
L 280.104952 217.252009 
L 281.898624 216.417612 
L 283.692295 216.117278 
L 285.485967 215.661 
L 286.382803 215.581606 
L 289.07331 216.055007 
L 291.763817 216.383505 
L 292.660653 216.073261 
L 293.557489 215.958276 
L 294.454324 216.185954 
L 297.144832 218.588285 
L 298.041668 219.666994 
L 300.732175 221.983322 
L 303.422682 223.928038 
L 305.216354 224.590084 
L 306.113189 224.724083 
L 308.803697 225.588873 
L 309.700532 226.000469 
L 311.494204 227.348022 
L 312.39104 227.868015 
L 315.081547 227.219322 
L 318.66889 226.088918 
L 321.359397 225.780276 
L 323.153069 225.826542 
L 324.94674 226.193088 
L 326.740412 226.2039 
L 327.637248 225.97873 
L 329.430919 225.048816 
L 330.327755 224.464208 
L 333.018262 223.405416 
L 334.811934 222.771431 
L 336.605605 221.686595 
L 338.399277 219.390202 
L 341.98662 214.59726 
L 342.883456 213.104875 
L 347.367634 207.283284 
L 348.26447 206.218847 
L 350.058142 203.601971 
L 351.851813 199.370085 
L 353.645485 195.850844 
L 354.54232 194.149591 
L 356.335992 191.546475 
L 358.129663 188.273402 
L 360.820171 183.776328 
L 364.407514 174.874971 
L 366.201185 169.993024 
L 367.098021 167.823546 
L 367.994857 165.329199 
L 368.891693 163.768509 
L 369.788528 162.97396 
L 371.5822 160.699807 
L 372.479036 159.272906 
L 373.375871 157.081625 
L 376.066379 152.527303 
L 376.963214 151.240002 
L 377.86005 149.64955 
L 378.756886 148.320164 
L 379.653722 147.56771 
L 381.447393 146.931401 
L 382.344229 147.140579 
L 383.241065 147.46855 
L 384.137901 147.275309 
L 385.034736 146.882873 
L 385.931572 146.826227 
L 386.828408 146.466718 
L 387.725244 144.38877 
L 390.415751 136.066703 
L 392.209422 132.240296 
L 393.106258 129.951069 
L 394.003094 128.066894 
L 395.796765 122.770454 
L 397.590437 115.728823 
L 398.487273 111.381162 
L 398.487273 111.381162 
" style="fill:none;stroke:#2ca02c;stroke-linecap:square;stroke-width:1.5;"/>
   </g>
   <g id="line2d_16">
    <path clip-path="url(#p78471d440e)" d="M 73.832727 261.121714 
L 74.729563 263.384421 
L 75.626399 259.544897 
L 77.42007 259.447848 
L 79.213742 251.455399 
L 80.110578 252.601122 
L 81.007413 254.854406 
L 81.904249 251.141233 
L 82.801085 252.864861 
L 83.697921 251.244765 
L 84.594756 251.976795 
L 85.491592 244.976625 
L 86.388428 244.966054 
L 87.285264 245.879268 
L 88.182099 244.15067 
L 89.078935 244.041771 
L 89.975771 246.06218 
L 90.872607 246.733162 
L 91.769442 245.772662 
L 92.666278 246.436763 
L 93.563114 249.118015 
L 94.45995 248.675786 
L 95.356786 249.666934 
L 97.150457 244.038413 
L 98.047293 239.134278 
L 98.944129 240.159582 
L 99.840964 237.982937 
L 100.7378 239.604381 
L 101.634636 239.180267 
L 102.531472 239.734555 
L 103.428307 240.147782 
L 104.325143 241.307647 
L 105.221979 236.939035 
L 106.118815 235.571374 
L 107.01565 234.992471 
L 107.912486 234.104306 
L 108.809322 231.475309 
L 109.706158 234.552469 
L 110.602993 230.430026 
L 111.499829 229.613761 
L 112.396665 230.789252 
L 113.293501 229.525953 
L 114.190337 234.050819 
L 115.087172 233.819674 
L 115.984008 236.014817 
L 116.880844 231.230052 
L 117.77768 237.137719 
L 118.674515 236.9998 
L 119.571351 236.119745 
L 120.468187 236.396132 
L 121.365023 233.350236 
L 122.261858 236.428144 
L 123.158694 239.925627 
L 124.05553 245.149215 
L 124.952366 244.885294 
L 125.849201 245.89175 
L 126.746037 247.659506 
L 127.642873 247.640974 
L 128.539709 243.791644 
L 129.436544 245.368012 
L 130.33338 245.370937 
L 131.230216 242.325456 
L 132.127052 241.409217 
L 133.023887 243.994085 
L 133.920723 252.528174 
L 134.817559 253.582647 
L 135.714395 254.033636 
L 136.611231 253.515632 
L 137.508066 283.802919 
L 138.404902 276.667688 
L 139.301738 281.127932 
L 140.198574 279.35544 
L 141.095409 282.510551 
L 141.992245 279.584475 
L 142.889081 278.841241 
L 143.785917 271.175907 
L 144.682752 270.913215 
L 145.579588 271.002901 
L 146.476424 274.931545 
L 147.37326 268.05781 
L 148.270095 265.326928 
L 149.166931 266.115519 
L 150.063767 265.893681 
L 150.960603 266.005572 
L 151.857438 270.71443 
L 152.754274 274.150334 
L 153.65111 267.301247 
L 154.547946 268.486527 
L 155.444782 266.272635 
L 156.341617 264.666068 
L 157.238453 265.59326 
L 158.135289 264.268515 
L 159.032125 265.20897 
L 159.92896 260.031854 
L 160.825796 259.407377 
L 162.619468 259.860327 
L 163.516303 263.899184 
L 164.413139 264.855545 
L 165.309975 261.570608 
L 166.206811 265.363992 
L 167.103646 264.147 
L 168.000482 265.722154 
L 168.897318 262.444472 
L 169.794154 262.135051 
L 170.690989 260.741296 
L 171.587825 261.299357 
L 172.484661 264.035208 
L 173.381497 264.429221 
L 174.278332 261.626454 
L 175.175168 257.446986 
L 176.072004 257.985998 
L 176.96884 257.031582 
L 177.865676 256.991343 
L 178.762511 256.275966 
L 179.659347 255.779586 
L 180.556183 250.3017 
L 181.453019 245.641557 
L 182.349854 245.33418 
L 183.24669 244.138753 
L 184.143526 244.86111 
L 185.040362 245.037125 
L 185.937197 244.050447 
L 186.834033 240.573565 
L 187.730869 239.307034 
L 188.627705 233.216663 
L 189.52454 235.668423 
L 190.421376 248.386982 
L 191.318212 244.481632 
L 192.215048 245.74926 
L 193.111883 242.06692 
L 194.008719 237.246395 
L 195.802391 238.418486 
L 196.699227 235.326267 
L 197.596062 236.708204 
L 198.492898 235.18042 
L 199.389734 235.355387 
L 200.28657 239.713912 
L 201.183405 241.283082 
L 202.977077 241.030479 
L 203.873913 245.286636 
L 204.770748 244.342142 
L 205.667584 243.823573 
L 206.56442 240.982412 
L 207.461256 238.584877 
L 208.358091 237.563195 
L 209.254927 237.61969 
L 210.151763 237.422234 
L 211.048599 231.72246 
L 211.945434 237.128046 
L 212.84227 237.77526 
L 213.739106 234.711164 
L 214.635942 236.277393 
L 215.532777 236.857792 
L 216.429613 235.772636 
L 217.326449 236.384996 
L 219.120121 235.103133 
L 220.016956 238.309786 
L 220.913792 238.744212 
L 221.810628 238.848848 
L 222.707464 241.687466 
L 223.604299 238.162317 
L 225.397971 238.595996 
L 226.294807 240.302288 
L 228.088478 239.674271 
L 229.88215 237.155321 
L 230.778985 237.967231 
L 231.675821 240.322466 
L 232.572657 241.7842 
L 233.469493 241.417561 
L 234.366328 243.140956 
L 235.263164 242.097336 
L 236.16 241.616313 
L 237.056836 241.520926 
L 237.953672 241.06294 
L 238.850507 242.109253 
L 240.644179 242.305137 
L 241.541015 241.029282 
L 242.43785 240.409742 
L 243.334686 240.26805 
L 244.231522 239.028802 
L 245.128358 241.613022 
L 246.025193 240.283341 
L 246.922029 240.273368 
L 247.818865 240.117673 
L 248.715701 241.037692 
L 249.612536 240.920807 
L 250.509372 241.896141 
L 251.406208 241.837353 
L 254.096715 241.207541 
L 254.993551 240.996747 
L 256.787223 237.954117 
L 257.684058 237.626371 
L 258.580894 237.055247 
L 259.47773 235.954983 
L 260.374566 230.086973 
L 261.271401 223.257698 
L 262.168237 223.285737 
L 263.065073 222.577691 
L 263.961909 222.85692 
L 264.858744 219.579396 
L 265.75558 220.106708 
L 266.652416 221.471293 
L 267.549252 220.358863 
L 268.446087 220.922258 
L 269.342923 215.164969 
L 270.239759 214.861331 
L 271.136595 217.441861 
L 272.03343 216.465056 
L 272.930266 213.036216 
L 273.827102 214.809125 
L 274.723938 219.700529 
L 276.517609 215.537116 
L 277.414445 214.179591 
L 278.311281 214.052911 
L 279.208117 214.569785 
L 280.104952 209.872744 
L 281.001788 213.951491 
L 281.898624 214.795189 
L 282.79546 217.295875 
L 283.692295 216.383537 
L 284.589131 217.013044 
L 285.485967 215.691563 
L 286.382803 219.334379 
L 287.279638 218.535617 
L 288.176474 220.098322 
L 289.07331 218.30223 
L 289.970146 217.974946 
L 290.866981 216.559257 
L 291.763817 216.346151 
L 292.660653 213.495661 
L 293.557489 215.176112 
L 294.454324 220.090678 
L 295.35116 230.165772 
L 296.247996 228.700797 
L 297.144832 231.982343 
L 298.041668 231.44692 
L 298.938503 229.926582 
L 299.835339 232.759599 
L 300.732175 229.682927 
L 301.629011 229.288779 
L 302.525846 228.732057 
L 303.422682 229.961632 
L 304.319518 226.299446 
L 305.216354 224.811475 
L 306.113189 222.778302 
L 307.010025 223.738376 
L 307.906861 223.770089 
L 308.803697 222.623771 
L 309.700532 224.578071 
L 310.597368 227.836154 
L 311.494204 227.786673 
L 312.39104 230.490529 
L 313.287875 226.372652 
L 314.184711 225.813068 
L 315.978383 225.58095 
L 316.875218 224.476794 
L 317.772054 225.461889 
L 318.66889 225.688313 
L 319.565726 226.834935 
L 320.462562 227.426012 
L 321.359397 227.548689 
L 323.153069 225.54047 
L 324.049905 227.203664 
L 324.94674 226.643924 
L 325.843576 224.132447 
L 326.740412 222.47765 
L 327.637248 220.07468 
L 328.534083 219.349913 
L 329.430919 217.674636 
L 330.327755 218.798368 
L 331.224591 218.814357 
L 332.121426 218.019899 
L 333.018262 219.864958 
L 333.915098 219.422264 
L 334.811934 217.955776 
L 335.708769 215.546623 
L 336.605605 213.906864 
L 337.502441 205.046194 
L 338.399277 203.286898 
L 339.296113 203.763533 
L 340.192948 201.899193 
L 341.089784 202.777188 
L 341.98662 202.489831 
L 342.883456 196.796223 
L 343.780291 200.409321 
L 344.677127 198.580916 
L 345.573963 197.512596 
L 346.470799 195.217146 
L 347.367634 195.55754 
L 348.26447 197.509621 
L 349.161306 192.886709 
L 350.058142 191.610031 
L 350.954977 177.302058 
L 351.851813 177.347449 
L 352.748649 184.777533 
L 353.645485 178.340044 
L 354.54232 179.88179 
L 355.439156 180.095467 
L 356.335992 176.175316 
L 357.232828 170.246806 
L 358.129663 169.954447 
L 359.026499 172.493741 
L 359.923335 173.565467 
L 360.820171 166.062568 
L 361.717007 156.531564 
L 362.613842 155.445244 
L 363.510678 155.147948 
L 364.407514 146.56807 
L 365.30435 146.347878 
L 366.201185 149.080339 
L 367.098021 149.497155 
L 367.994857 141.723088 
L 368.891693 146.08826 
L 369.788528 161.456476 
L 370.685364 161.717573 
L 371.5822 155.916943 
L 372.479036 151.34376 
L 373.375871 136.26985 
L 374.272707 145.373732 
L 375.169543 141.075358 
L 376.066379 138.841056 
L 376.963214 146.747708 
L 377.86005 141.756429 
L 378.756886 139.474857 
L 379.653722 141.482468 
L 380.550558 150.087161 
L 381.447393 147.77986 
L 382.344229 150.751628 
L 383.241065 152.907296 
L 384.137901 145.215518 
L 385.034736 141.648444 
L 385.931572 140.590164 
L 386.828408 138.898082 
L 387.725244 119.897521 
L 388.622079 105.313409 
L 389.518915 102.112191 
L 390.415751 95.111324 
L 391.312587 98.864053 
L 392.209422 106.251388 
L 393.106258 95.290812 
L 394.003094 101.157559 
L 394.89993 96.164984 
L 395.796765 86.410363 
L 396.693601 69.076704 
L 397.590437 71.047998 
L 398.487273 63.133934 
L 398.487273 63.133934 
" style="fill:none;stroke:#d62728;stroke-linecap:square;stroke-width:1.5;"/>
   </g>
   <g id="patch_3">
    <path d="M 57.6 307.584 
L 57.6 41.472 
" style="fill:none;stroke:#000000;stroke-linecap:square;stroke-linejoin:miter;stroke-width:0.8;"/>
   </g>
   <g id="patch_4">
    <path d="M 414.72 307.584 
L 414.72 41.472 
" style="fill:none;stroke:#000000;stroke-linecap:square;stroke-linejoin:miter;stroke-width:0.8;"/>
   </g>
   <g id="patch_5">
    <path d="M 57.6 307.584 
L 414.72 307.584 
" style="fill:none;stroke:#000000;stroke-linecap:square;stroke-linejoin:miter;stroke-width:0.8;"/>
   </g>
   <g id="patch_6">
    <path d="M 57.6 41.472 
L 414.72 41.472 
" style="fill:none;stroke:#000000;stroke-linecap:square;stroke-linejoin:miter;stroke-width:0.8;"/>
   </g>
   <g id="text_13">
    <!-- Data source: coindesk -->
    <g transform="translate(180.640469 35.472)scale(0.1 -0.1)">
     <defs>
      <path d="M 19.671875 64.796875 
L 19.671875 8.109375 
L 31.59375 8.109375 
Q 46.6875 8.109375 53.6875 14.9375 
Q 60.6875 21.78125 60.6875 36.53125 
Q 60.6875 51.171875 53.6875 57.984375 
Q 46.6875 64.796875 31.59375 64.796875 
z
M 9.8125 72.90625 
L 30.078125 72.90625 
Q 51.265625 72.90625 61.171875 64.09375 
Q 71.09375 55.28125 71.09375 36.53125 
Q 71.09375 17.671875 61.125 8.828125 
Q 51.171875 0 30.078125 0 
L 9.8125 0 
z
" id="DejaVuSans-68"/>
      <path d="M 34.28125 27.484375 
Q 23.390625 27.484375 19.1875 25 
Q 14.984375 22.515625 14.984375 16.5 
Q 14.984375 11.71875 18.140625 8.90625 
Q 21.296875 6.109375 26.703125 6.109375 
Q 34.1875 6.109375 38.703125 11.40625 
Q 43.21875 16.703125 43.21875 25.484375 
L 43.21875 27.484375 
z
M 52.203125 31.203125 
L 52.203125 0 
L 43.21875 0 
L 43.21875 8.296875 
Q 40.140625 3.328125 35.546875 0.953125 
Q 30.953125 -1.421875 24.3125 -1.421875 
Q 15.921875 -1.421875 10.953125 3.296875 
Q 6 8.015625 6 15.921875 
Q 6 25.140625 12.171875 29.828125 
Q 18.359375 34.515625 30.609375 34.515625 
L 43.21875 34.515625 
L 43.21875 35.40625 
Q 43.21875 41.609375 39.140625 45 
Q 35.0625 48.390625 27.6875 48.390625 
Q 23 48.390625 18.546875 47.265625 
Q 14.109375 46.140625 10.015625 43.890625 
L 10.015625 52.203125 
Q 14.9375 54.109375 19.578125 55.046875 
Q 24.21875 56 28.609375 56 
Q 40.484375 56 46.34375 49.84375 
Q 52.203125 43.703125 52.203125 31.203125 
z
" id="DejaVuSans-97"/>
      <path d="M 18.3125 70.21875 
L 18.3125 54.6875 
L 36.8125 54.6875 
L 36.8125 47.703125 
L 18.3125 47.703125 
L 18.3125 18.015625 
Q 18.3125 11.328125 20.140625 9.421875 
Q 21.96875 7.515625 27.59375 7.515625 
L 36.8125 7.515625 
L 36.8125 0 
L 27.59375 0 
Q 17.1875 0 13.234375 3.875 
Q 9.28125 7.765625 9.28125 18.015625 
L 9.28125 47.703125 
L 2.6875 47.703125 
L 2.6875 54.6875 
L 9.28125 54.6875 
L 9.28125 70.21875 
z
" id="DejaVuSans-116"/>
      <path id="DejaVuSans-32"/>
      <path d="M 44.28125 53.078125 
L 44.28125 44.578125 
Q 40.484375 46.53125 36.375 47.5 
Q 32.28125 48.484375 27.875 48.484375 
Q 21.1875 48.484375 17.84375 46.4375 
Q 14.5 44.390625 14.5 40.28125 
Q 14.5 37.15625 16.890625 35.375 
Q 19.28125 33.59375 26.515625 31.984375 
L 29.59375 31.296875 
Q 39.15625 29.25 43.1875 25.515625 
Q 47.21875 21.78125 47.21875 15.09375 
Q 47.21875 7.46875 41.1875 3.015625 
Q 35.15625 -1.421875 24.609375 -1.421875 
Q 20.21875 -1.421875 15.453125 -0.5625 
Q 10.6875 0.296875 5.421875 2 
L 5.421875 11.28125 
Q 10.40625 8.6875 15.234375 7.390625 
Q 20.0625 6.109375 24.8125 6.109375 
Q 31.15625 6.109375 34.5625 8.28125 
Q 37.984375 10.453125 37.984375 14.40625 
Q 37.984375 18.0625 35.515625 20.015625 
Q 33.0625 21.96875 24.703125 23.78125 
L 21.578125 24.515625 
Q 13.234375 26.265625 9.515625 29.90625 
Q 5.8125 33.546875 5.8125 39.890625 
Q 5.8125 47.609375 11.28125 51.796875 
Q 16.75 56 26.8125 56 
Q 31.78125 56 36.171875 55.265625 
Q 40.578125 54.546875 44.28125 53.078125 
z
" id="DejaVuSans-115"/>
      <path d="M 30.609375 48.390625 
Q 23.390625 48.390625 19.1875 42.75 
Q 14.984375 37.109375 14.984375 27.296875 
Q 14.984375 17.484375 19.15625 11.84375 
Q 23.34375 6.203125 30.609375 6.203125 
Q 37.796875 6.203125 41.984375 11.859375 
Q 46.1875 17.53125 46.1875 27.296875 
Q 46.1875 37.015625 41.984375 42.703125 
Q 37.796875 48.390625 30.609375 48.390625 
z
M 30.609375 56 
Q 42.328125 56 49.015625 48.375 
Q 55.71875 40.765625 55.71875 27.296875 
Q 55.71875 13.875 49.015625 6.21875 
Q 42.328125 -1.421875 30.609375 -1.421875 
Q 18.84375 -1.421875 12.171875 6.21875 
Q 5.515625 13.875 5.515625 27.296875 
Q 5.515625 40.765625 12.171875 48.375 
Q 18.84375 56 30.609375 56 
z
" id="DejaVuSans-111"/>
      <path d="M 8.5 21.578125 
L 8.5 54.6875 
L 17.484375 54.6875 
L 17.484375 21.921875 
Q 17.484375 14.15625 20.5 10.265625 
Q 23.53125 6.390625 29.59375 6.390625 
Q 36.859375 6.390625 41.078125 11.03125 
Q 45.3125 15.671875 45.3125 23.6875 
L 45.3125 54.6875 
L 54.296875 54.6875 
L 54.296875 0 
L 45.3125 0 
L 45.3125 8.40625 
Q 42.046875 3.421875 37.71875 1 
Q 33.40625 -1.421875 27.6875 -1.421875 
Q 18.265625 -1.421875 13.375 4.4375 
Q 8.5 10.296875 8.5 21.578125 
z
M 31.109375 56 
z
" id="DejaVuSans-117"/>
      <path d="M 41.109375 46.296875 
Q 39.59375 47.171875 37.8125 47.578125 
Q 36.03125 48 33.890625 48 
Q 26.265625 48 22.1875 43.046875 
Q 18.109375 38.09375 18.109375 28.8125 
L 18.109375 0 
L 9.078125 0 
L 9.078125 54.6875 
L 18.109375 54.6875 
L 18.109375 46.1875 
Q 20.953125 51.171875 25.484375 53.578125 
Q 30.03125 56 36.53125 56 
Q 37.453125 56 38.578125 55.875 
Q 39.703125 55.765625 41.0625 55.515625 
z
" id="DejaVuSans-114"/>
      <path d="M 48.78125 52.59375 
L 48.78125 44.1875 
Q 44.96875 46.296875 41.140625 47.34375 
Q 37.3125 48.390625 33.40625 48.390625 
Q 24.65625 48.390625 19.8125 42.84375 
Q 14.984375 37.3125 14.984375 27.296875 
Q 14.984375 17.28125 19.8125 11.734375 
Q 24.65625 6.203125 33.40625 6.203125 
Q 37.3125 6.203125 41.140625 7.25 
Q 44.96875 8.296875 48.78125 10.40625 
L 48.78125 2.09375 
Q 45.015625 0.34375 40.984375 -0.53125 
Q 36.96875 -1.421875 32.421875 -1.421875 
Q 20.0625 -1.421875 12.78125 6.34375 
Q 5.515625 14.109375 5.515625 27.296875 
Q 5.515625 40.671875 12.859375 48.328125 
Q 20.21875 56 33.015625 56 
Q 37.15625 56 41.109375 55.140625 
Q 45.0625 54.296875 48.78125 52.59375 
z
" id="DejaVuSans-99"/>
      <path d="M 56.203125 29.59375 
L 56.203125 25.203125 
L 14.890625 25.203125 
Q 15.484375 15.921875 20.484375 11.0625 
Q 25.484375 6.203125 34.421875 6.203125 
Q 39.59375 6.203125 44.453125 7.46875 
Q 49.3125 8.734375 54.109375 11.28125 
L 54.109375 2.78125 
Q 49.265625 0.734375 44.1875 -0.34375 
Q 39.109375 -1.421875 33.890625 -1.421875 
Q 20.796875 -1.421875 13.15625 6.1875 
Q 5.515625 13.8125 5.515625 26.8125 
Q 5.515625 40.234375 12.765625 48.109375 
Q 20.015625 56 32.328125 56 
Q 43.359375 56 49.78125 48.890625 
Q 56.203125 41.796875 56.203125 29.59375 
z
M 47.21875 32.234375 
Q 47.125 39.59375 43.09375 43.984375 
Q 39.0625 48.390625 32.421875 48.390625 
Q 24.90625 48.390625 20.390625 44.140625 
Q 15.875 39.890625 15.1875 32.171875 
z
" id="DejaVuSans-101"/>
      <path d="M 11.71875 12.40625 
L 22.015625 12.40625 
L 22.015625 0 
L 11.71875 0 
z
M 11.71875 51.703125 
L 22.015625 51.703125 
L 22.015625 39.3125 
L 11.71875 39.3125 
z
" id="DejaVuSans-58"/>
      <path d="M 9.421875 54.6875 
L 18.40625 54.6875 
L 18.40625 0 
L 9.421875 0 
z
M 9.421875 75.984375 
L 18.40625 75.984375 
L 18.40625 64.59375 
L 9.421875 64.59375 
z
" id="DejaVuSans-105"/>
      <path d="M 54.890625 33.015625 
L 54.890625 0 
L 45.90625 0 
L 45.90625 32.71875 
Q 45.90625 40.484375 42.875 44.328125 
Q 39.84375 48.1875 33.796875 48.1875 
Q 26.515625 48.1875 22.3125 43.546875 
Q 18.109375 38.921875 18.109375 30.90625 
L 18.109375 0 
L 9.078125 0 
L 9.078125 54.6875 
L 18.109375 54.6875 
L 18.109375 46.1875 
Q 21.34375 51.125 25.703125 53.5625 
Q 30.078125 56 35.796875 56 
Q 45.21875 56 50.046875 50.171875 
Q 54.890625 44.34375 54.890625 33.015625 
z
" id="DejaVuSans-110"/>
      <path d="M 45.40625 46.390625 
L 45.40625 75.984375 
L 54.390625 75.984375 
L 54.390625 0 
L 45.40625 0 
L 45.40625 8.203125 
Q 42.578125 3.328125 38.25 0.953125 
Q 33.9375 -1.421875 27.875 -1.421875 
Q 17.96875 -1.421875 11.734375 6.484375 
Q 5.515625 14.40625 5.515625 27.296875 
Q 5.515625 40.1875 11.734375 48.09375 
Q 17.96875 56 27.875 56 
Q 33.9375 56 38.25 53.625 
Q 42.578125 51.265625 45.40625 46.390625 
z
M 14.796875 27.296875 
Q 14.796875 17.390625 18.875 11.75 
Q 22.953125 6.109375 30.078125 6.109375 
Q 37.203125 6.109375 41.296875 11.75 
Q 45.40625 17.390625 45.40625 27.296875 
Q 45.40625 37.203125 41.296875 42.84375 
Q 37.203125 48.484375 30.078125 48.484375 
Q 22.953125 48.484375 18.875 42.84375 
Q 14.796875 37.203125 14.796875 27.296875 
z
" id="DejaVuSans-100"/>
      <path d="M 9.078125 75.984375 
L 18.109375 75.984375 
L 18.109375 31.109375 
L 44.921875 54.6875 
L 56.390625 54.6875 
L 27.390625 29.109375 
L 57.625 0 
L 45.90625 0 
L 18.109375 26.703125 
L 18.109375 0 
L 9.078125 0 
z
" id="DejaVuSans-107"/>
     </defs>
     <use xlink:href="#DejaVuSans-68"/>
     <use x="77.001953" xlink:href="#DejaVuSans-97"/>
     <use x="138.28125" xlink:href="#DejaVuSans-116"/>
     <use x="177.490234" xlink:href="#DejaVuSans-97"/>
     <use x="238.769531" xlink:href="#DejaVuSans-32"/>
     <use x="270.556641" xlink:href="#DejaVuSans-115"/>
     <use x="322.65625" xlink:href="#DejaVuSans-111"/>
     <use x="383.837891" xlink:href="#DejaVuSans-117"/>
     <use x="447.216797" xlink:href="#DejaVuSans-114"/>
     <use x="486.080078" xlink:href="#DejaVuSans-99"/>
     <use x="541.060547" xlink:href="#DejaVuSans-101"/>
     <use x="602.583984" xlink:href="#DejaVuSans-58"/>
     <use x="636.275391" xlink:href="#DejaVuSans-32"/>
     <use x="668.0625" xlink:href="#DejaVuSans-99"/>
     <use x="723.042969" xlink:href="#DejaVuSans-111"/>
     <use x="784.224609" xlink:href="#DejaVuSans-105"/>
     <use x="812.007812" xlink:href="#DejaVuSans-110"/>
     <use x="875.386719" xlink:href="#DejaVuSans-100"/>
     <use x="938.863281" xlink:href="#DejaVuSans-101"/>
     <use x="1000.386719" xlink:href="#DejaVuSans-115"/>
     <use x="1052.486328" xlink:href="#DejaVuSans-107"/>
    </g>
   </g>
   <g id="legend_1">
    <g id="patch_7">
     <path d="M 64.6 108.1845 
L 155.732812 108.1845 
Q 157.732812 108.1845 157.732812 106.1845 
L 157.732812 48.472 
Q 157.732812 46.472 155.732812 46.472 
L 64.6 46.472 
Q 62.6 46.472 62.6 48.472 
L 62.6 106.1845 
Q 62.6 108.1845 64.6 108.1845 
z
" style="fill:#ffffff;opacity:0.8;stroke:#cccccc;stroke-linejoin:miter;"/>
    </g>
    <g id="line2d_17">
     <path d="M 66.6 54.570438 
L 86.6 54.570438 
" style="fill:none;stroke:#1f77b4;stroke-linecap:square;stroke-width:1.5;"/>
    </g>
    <g id="line2d_18"/>
    <g id="text_14">
     <!-- Upper Band -->
     <g transform="translate(94.6 58.070438)scale(0.1 -0.1)">
      <defs>
       <path d="M 8.6875 72.90625 
L 18.609375 72.90625 
L 18.609375 28.609375 
Q 18.609375 16.890625 22.84375 11.734375 
Q 27.09375 6.59375 36.625 6.59375 
Q 46.09375 6.59375 50.34375 11.734375 
Q 54.59375 16.890625 54.59375 28.609375 
L 54.59375 72.90625 
L 64.5 72.90625 
L 64.5 27.390625 
Q 64.5 13.140625 57.4375 5.859375 
Q 50.390625 -1.421875 36.625 -1.421875 
Q 22.796875 -1.421875 15.734375 5.859375 
Q 8.6875 13.140625 8.6875 27.390625 
z
" id="DejaVuSans-85"/>
       <path d="M 18.109375 8.203125 
L 18.109375 -20.796875 
L 9.078125 -20.796875 
L 9.078125 54.6875 
L 18.109375 54.6875 
L 18.109375 46.390625 
Q 20.953125 51.265625 25.265625 53.625 
Q 29.59375 56 35.59375 56 
Q 45.5625 56 51.78125 48.09375 
Q 58.015625 40.1875 58.015625 27.296875 
Q 58.015625 14.40625 51.78125 6.484375 
Q 45.5625 -1.421875 35.59375 -1.421875 
Q 29.59375 -1.421875 25.265625 0.953125 
Q 20.953125 3.328125 18.109375 8.203125 
z
M 48.6875 27.296875 
Q 48.6875 37.203125 44.609375 42.84375 
Q 40.53125 48.484375 33.40625 48.484375 
Q 26.265625 48.484375 22.1875 42.84375 
Q 18.109375 37.203125 18.109375 27.296875 
Q 18.109375 17.390625 22.1875 11.75 
Q 26.265625 6.109375 33.40625 6.109375 
Q 40.53125 6.109375 44.609375 11.75 
Q 48.6875 17.390625 48.6875 27.296875 
z
" id="DejaVuSans-112"/>
       <path d="M 19.671875 34.8125 
L 19.671875 8.109375 
L 35.5 8.109375 
Q 43.453125 8.109375 47.28125 11.40625 
Q 51.125 14.703125 51.125 21.484375 
Q 51.125 28.328125 47.28125 31.5625 
Q 43.453125 34.8125 35.5 34.8125 
z
M 19.671875 64.796875 
L 19.671875 42.828125 
L 34.28125 42.828125 
Q 41.5 42.828125 45.03125 45.53125 
Q 48.578125 48.25 48.578125 53.8125 
Q 48.578125 59.328125 45.03125 62.0625 
Q 41.5 64.796875 34.28125 64.796875 
z
M 9.8125 72.90625 
L 35.015625 72.90625 
Q 46.296875 72.90625 52.390625 68.21875 
Q 58.5 63.53125 58.5 54.890625 
Q 58.5 48.1875 55.375 44.234375 
Q 52.25 40.28125 46.1875 39.3125 
Q 53.46875 37.75 57.5 32.78125 
Q 61.53125 27.828125 61.53125 20.40625 
Q 61.53125 10.640625 54.890625 5.3125 
Q 48.25 0 35.984375 0 
L 9.8125 0 
z
" id="DejaVuSans-66"/>
      </defs>
      <use xlink:href="#DejaVuSans-85"/>
      <use x="73.193359" xlink:href="#DejaVuSans-112"/>
      <use x="136.669922" xlink:href="#DejaVuSans-112"/>
      <use x="200.146484" xlink:href="#DejaVuSans-101"/>
      <use x="261.669922" xlink:href="#DejaVuSans-114"/>
      <use x="302.783203" xlink:href="#DejaVuSans-32"/>
      <use x="334.570312" xlink:href="#DejaVuSans-66"/>
      <use x="403.173828" xlink:href="#DejaVuSans-97"/>
      <use x="464.453125" xlink:href="#DejaVuSans-110"/>
      <use x="527.832031" xlink:href="#DejaVuSans-100"/>
     </g>
    </g>
    <g id="line2d_19">
     <path d="M 66.6 69.248563 
L 86.6 69.248563 
" style="fill:none;stroke:#ff7f0e;stroke-linecap:square;stroke-width:1.5;"/>
    </g>
    <g id="line2d_20"/>
    <g id="text_15">
     <!-- Lower Band -->
     <g transform="translate(94.6 72.748563)scale(0.1 -0.1)">
      <defs>
       <path d="M 9.8125 72.90625 
L 19.671875 72.90625 
L 19.671875 8.296875 
L 55.171875 8.296875 
L 55.171875 0 
L 9.8125 0 
z
" id="DejaVuSans-76"/>
       <path d="M 4.203125 54.6875 
L 13.1875 54.6875 
L 24.421875 12.015625 
L 35.59375 54.6875 
L 46.1875 54.6875 
L 57.421875 12.015625 
L 68.609375 54.6875 
L 77.59375 54.6875 
L 63.28125 0 
L 52.6875 0 
L 40.921875 44.828125 
L 29.109375 0 
L 18.5 0 
z
" id="DejaVuSans-119"/>
      </defs>
      <use xlink:href="#DejaVuSans-76"/>
      <use x="53.962891" xlink:href="#DejaVuSans-111"/>
      <use x="115.144531" xlink:href="#DejaVuSans-119"/>
      <use x="196.931641" xlink:href="#DejaVuSans-101"/>
      <use x="258.455078" xlink:href="#DejaVuSans-114"/>
      <use x="299.568359" xlink:href="#DejaVuSans-32"/>
      <use x="331.355469" xlink:href="#DejaVuSans-66"/>
      <use x="399.958984" xlink:href="#DejaVuSans-97"/>
      <use x="461.238281" xlink:href="#DejaVuSans-110"/>
      <use x="524.617188" xlink:href="#DejaVuSans-100"/>
     </g>
    </g>
    <g id="line2d_21">
     <path d="M 66.6 83.926688 
L 86.6 83.926688 
" style="fill:none;stroke:#2ca02c;stroke-linecap:square;stroke-width:1.5;"/>
    </g>
    <g id="line2d_22"/>
    <g id="text_16">
     <!-- MA -->
     <g transform="translate(94.6 87.426688)scale(0.1 -0.1)">
      <defs>
       <path d="M 9.8125 72.90625 
L 24.515625 72.90625 
L 43.109375 23.296875 
L 61.8125 72.90625 
L 76.515625 72.90625 
L 76.515625 0 
L 66.890625 0 
L 66.890625 64.015625 
L 48.09375 14.015625 
L 38.1875 14.015625 
L 19.390625 64.015625 
L 19.390625 0 
L 9.8125 0 
z
" id="DejaVuSans-77"/>
       <path d="M 34.1875 63.1875 
L 20.796875 26.90625 
L 47.609375 26.90625 
z
M 28.609375 72.90625 
L 39.796875 72.90625 
L 67.578125 0 
L 57.328125 0 
L 50.6875 18.703125 
L 17.828125 18.703125 
L 11.1875 0 
L 0.78125 0 
z
" id="DejaVuSans-65"/>
      </defs>
      <use xlink:href="#DejaVuSans-77"/>
      <use x="86.279297" xlink:href="#DejaVuSans-65"/>
     </g>
    </g>
    <g id="line2d_23">
     <path d="M 66.6 98.604813 
L 86.6 98.604813 
" style="fill:none;stroke:#d62728;stroke-linecap:square;stroke-width:1.5;"/>
    </g>
    <g id="line2d_24"/>
    <g id="text_17">
     <!-- BTC-USD -->
     <g transform="translate(94.6 102.104813)scale(0.1 -0.1)">
      <defs>
       <path d="M -0.296875 72.90625 
L 61.375 72.90625 
L 61.375 64.59375 
L 35.5 64.59375 
L 35.5 0 
L 25.59375 0 
L 25.59375 64.59375 
L -0.296875 64.59375 
z
" id="DejaVuSans-84"/>
       <path d="M 64.40625 67.28125 
L 64.40625 56.890625 
Q 59.421875 61.53125 53.78125 63.8125 
Q 48.140625 66.109375 41.796875 66.109375 
Q 29.296875 66.109375 22.65625 58.46875 
Q 16.015625 50.828125 16.015625 36.375 
Q 16.015625 21.96875 22.65625 14.328125 
Q 29.296875 6.6875 41.796875 6.6875 
Q 48.140625 6.6875 53.78125 8.984375 
Q 59.421875 11.28125 64.40625 15.921875 
L 64.40625 5.609375 
Q 59.234375 2.09375 53.4375 0.328125 
Q 47.65625 -1.421875 41.21875 -1.421875 
Q 24.65625 -1.421875 15.125 8.703125 
Q 5.609375 18.84375 5.609375 36.375 
Q 5.609375 53.953125 15.125 64.078125 
Q 24.65625 74.21875 41.21875 74.21875 
Q 47.75 74.21875 53.53125 72.484375 
Q 59.328125 70.75 64.40625 67.28125 
z
" id="DejaVuSans-67"/>
       <path d="M 53.515625 70.515625 
L 53.515625 60.890625 
Q 47.90625 63.578125 42.921875 64.890625 
Q 37.9375 66.21875 33.296875 66.21875 
Q 25.25 66.21875 20.875 63.09375 
Q 16.5 59.96875 16.5 54.203125 
Q 16.5 49.359375 19.40625 46.890625 
Q 22.3125 44.4375 30.421875 42.921875 
L 36.375 41.703125 
Q 47.40625 39.59375 52.65625 34.296875 
Q 57.90625 29 57.90625 20.125 
Q 57.90625 9.515625 50.796875 4.046875 
Q 43.703125 -1.421875 29.984375 -1.421875 
Q 24.8125 -1.421875 18.96875 -0.25 
Q 13.140625 0.921875 6.890625 3.21875 
L 6.890625 13.375 
Q 12.890625 10.015625 18.65625 8.296875 
Q 24.421875 6.59375 29.984375 6.59375 
Q 38.421875 6.59375 43.015625 9.90625 
Q 47.609375 13.234375 47.609375 19.390625 
Q 47.609375 24.75 44.3125 27.78125 
Q 41.015625 30.8125 33.5 32.328125 
L 27.484375 33.5 
Q 16.453125 35.6875 11.515625 40.375 
Q 6.59375 45.0625 6.59375 53.421875 
Q 6.59375 63.09375 13.40625 68.65625 
Q 20.21875 74.21875 32.171875 74.21875 
Q 37.3125 74.21875 42.625 73.28125 
Q 47.953125 72.359375 53.515625 70.515625 
z
" id="DejaVuSans-83"/>
      </defs>
      <use xlink:href="#DejaVuSans-66"/>
      <use x="68.603516" xlink:href="#DejaVuSans-84"/>
      <use x="123.8125" xlink:href="#DejaVuSans-67"/>
      <use x="193.636719" xlink:href="#DejaVuSans-45"/>
      <use x="229.720703" xlink:href="#DejaVuSans-85"/>
      <use x="302.914062" xlink:href="#DejaVuSans-83"/>
      <use x="366.390625" xlink:href="#DejaVuSans-68"/>
     </g>
    </g>
   </g>
  </g>
  <g id="text_18">
   <!-- Bollinger Band -->
   <g transform="translate(171.90625 19.0695)scale(0.16 -0.16)">
    <defs>
     <path d="M 9.421875 75.984375 
L 18.40625 75.984375 
L 18.40625 0 
L 9.421875 0 
z
" id="DejaVuSans-108"/>
     <path d="M 45.40625 27.984375 
Q 45.40625 37.75 41.375 43.109375 
Q 37.359375 48.484375 30.078125 48.484375 
Q 22.859375 48.484375 18.828125 43.109375 
Q 14.796875 37.75 14.796875 27.984375 
Q 14.796875 18.265625 18.828125 12.890625 
Q 22.859375 7.515625 30.078125 7.515625 
Q 37.359375 7.515625 41.375 12.890625 
Q 45.40625 18.265625 45.40625 27.984375 
z
M 54.390625 6.78125 
Q 54.390625 -7.171875 48.1875 -13.984375 
Q 42 -20.796875 29.203125 -20.796875 
Q 24.46875 -20.796875 20.265625 -20.09375 
Q 16.0625 -19.390625 12.109375 -17.921875 
L 12.109375 -9.1875 
Q 16.0625 -11.328125 19.921875 -12.34375 
Q 23.78125 -13.375 27.78125 -13.375 
Q 36.625 -13.375 41.015625 -8.765625 
Q 45.40625 -4.15625 45.40625 5.171875 
L 45.40625 9.625 
Q 42.625 4.78125 38.28125 2.390625 
Q 33.9375 0 27.875 0 
Q 17.828125 0 11.671875 7.65625 
Q 5.515625 15.328125 5.515625 27.984375 
Q 5.515625 40.671875 11.671875 48.328125 
Q 17.828125 56 27.875 56 
Q 33.9375 56 38.28125 53.609375 
Q 42.625 51.21875 45.40625 46.390625 
L 45.40625 54.6875 
L 54.390625 54.6875 
z
" id="DejaVuSans-103"/>
    </defs>
    <use xlink:href="#DejaVuSans-66"/>
    <use x="68.603516" xlink:href="#DejaVuSans-111"/>
    <use x="129.785156" xlink:href="#DejaVuSans-108"/>
    <use x="157.568359" xlink:href="#DejaVuSans-108"/>
    <use x="185.351562" xlink:href="#DejaVuSans-105"/>
    <use x="213.134766" xlink:href="#DejaVuSans-110"/>
    <use x="276.513672" xlink:href="#DejaVuSans-103"/>
    <use x="339.990234" xlink:href="#DejaVuSans-101"/>
    <use x="401.513672" xlink:href="#DejaVuSans-114"/>
    <use x="442.626953" xlink:href="#DejaVuSans-32"/>
    <use x="474.414062" xlink:href="#DejaVuSans-66"/>
    <use x="543.017578" xlink:href="#DejaVuSans-97"/>
    <use x="604.296875" xlink:href="#DejaVuSans-110"/>
    <use x="667.675781" xlink:href="#DejaVuSans-100"/>
   </g>
  </g>
 </g>
 <defs>
  <clipPath id="p78471d440e">
   <rect height="266.112" width="357.12" x="57.6" y="41.472"/>
  </clipPath>
 </defs>
</svg>
