<?xml version="1.0" encoding="utf-8" standalone="no"?>
<!DOCTYPE svg PUBLIC "-//W3C//DTD SVG 1.1//EN"
  "http://www.w3.org/Graphics/SVG/1.1/DTD/svg11.dtd">
<!-- Created with matplotlib (https://matplotlib.org/) -->
<svg height="345.6pt" version="1.1" viewBox="0 0 460.8 345.6" width="460.8pt" xmlns="http://www.w3.org/2000/svg" xmlns:xlink="http://www.w3.org/1999/xlink">
 <metadata>
  <rdf:RDF xmlns:cc="http://creativecommons.org/ns#" xmlns:dc="http://purl.org/dc/elements/1.1/" xmlns:rdf="http://www.w3.org/1999/02/22-rdf-syntax-ns#">
   <cc:Work>
    <dc:type rdf:resource="http://purl.org/dc/dcmitype/StillImage"/>
    <dc:date>2020-12-29T02:30:47.361335</dc:date>
    <dc:format>image/svg+xml</dc:format>
    <dc:creator>
     <cc:Agent>
      <dc:title>Matplotlib v3.3.2, https://matplotlib.org/</dc:title>
     </cc:Agent>
    </dc:creator>
   </cc:Work>
  </rdf:RDF>
 </metadata>
 <defs>
  <style type="text/css">*{stroke-linecap:butt;stroke-linejoin:round;}</style>
 </defs>
 <g id="figure_1">
  <g id="patch_1">
   <path d="M 0 345.6 
L 460.8 345.6 
L 460.8 0 
L 0 0 
z
" style="fill:#ffffff;"/>
  </g>
  <g id="axes_1">
   <g id="patch_2">
    <path d="M 57.6 307.584 
L 414.72 307.584 
L 414.72 41.472 
L 57.6 41.472 
z
" style="fill:#ffffff;"/>
   </g>
   <g id="PolyCollection_1">
    <defs>
     <path d="M 73.832727 -231.475613 
L 73.832727 -120.927263 
L 74.729563 -120.927263 
L 75.626399 -120.927263 
L 76.523235 -120.927263 
L 77.42007 -120.927263 
L 78.316906 -120.927263 
L 79.213742 -120.927263 
L 80.110578 -120.927263 
L 81.007413 -120.927263 
L 81.904249 -120.927263 
L 82.801085 -120.927263 
L 83.697921 -120.927263 
L 84.594756 -120.927263 
L 85.491592 -120.927263 
L 86.388428 -120.927263 
L 87.285264 -120.927263 
L 88.182099 -120.927263 
L 89.078935 -120.927263 
L 89.975771 -120.927263 
L 90.872607 -120.927263 
L 91.769442 -120.927263 
L 92.666278 -120.927263 
L 93.563114 -120.927263 
L 94.45995 -120.927263 
L 95.356786 -120.927263 
L 96.253621 -120.927263 
L 97.150457 -120.927263 
L 98.047293 -120.927263 
L 98.944129 -120.927263 
L 99.840964 -120.927263 
L 100.7378 -120.927263 
L 101.634636 -120.927263 
L 102.531472 -120.927263 
L 103.428307 -120.927263 
L 104.325143 -120.927263 
L 105.221979 -120.927263 
L 106.118815 -120.927263 
L 107.01565 -120.927263 
L 107.912486 -120.927263 
L 108.809322 -120.927263 
L 109.706158 -120.927263 
L 110.602993 -120.927263 
L 111.499829 -120.927263 
L 112.396665 -120.927263 
L 113.293501 -120.927263 
L 114.190337 -120.927263 
L 115.087172 -120.927263 
L 115.984008 -120.927263 
L 116.880844 -120.927263 
L 117.77768 -120.927263 
L 118.674515 -120.927263 
L 119.571351 -120.927263 
L 120.468187 -120.927263 
L 121.365023 -120.927263 
L 122.261858 -120.927263 
L 123.158694 -120.927263 
L 124.05553 -120.927263 
L 124.952366 -120.927263 
L 125.849201 -120.927263 
L 126.746037 -120.927263 
L 127.642873 -120.927263 
L 128.539709 -120.927263 
L 129.436544 -120.927263 
L 130.33338 -120.927263 
L 131.230216 -120.927263 
L 132.127052 -120.927263 
L 133.023887 -120.927263 
L 133.920723 -120.927263 
L 134.817559 -120.927263 
L 135.714395 -120.927263 
L 136.611231 -120.927263 
L 137.508066 -120.927263 
L 138.404902 -120.927263 
L 139.301738 -120.927263 
L 140.198574 -120.927263 
L 141.095409 -120.927263 
L 141.992245 -120.927263 
L 142.889081 -120.927263 
L 143.785917 -120.927263 
L 144.682752 -120.927263 
L 145.579588 -120.927263 
L 146.476424 -120.927263 
L 147.37326 -120.927263 
L 148.270095 -120.927263 
L 149.166931 -120.927263 
L 150.063767 -120.927263 
L 150.960603 -120.927263 
L 151.857438 -120.927263 
L 152.754274 -120.927263 
L 153.65111 -120.927263 
L 154.547946 -120.927263 
L 155.444782 -120.927263 
L 156.341617 -120.927263 
L 157.238453 -120.927263 
L 158.135289 -120.927263 
L 159.032125 -120.927263 
L 159.92896 -120.927263 
L 160.825796 -120.927263 
L 161.722632 -120.927263 
L 162.619468 -120.927263 
L 163.516303 -120.927263 
L 164.413139 -120.927263 
L 165.309975 -120.927263 
L 166.206811 -120.927263 
L 167.103646 -120.927263 
L 168.000482 -120.927263 
L 168.897318 -120.927263 
L 169.794154 -120.927263 
L 170.690989 -120.927263 
L 171.587825 -120.927263 
L 172.484661 -120.927263 
L 173.381497 -120.927263 
L 174.278332 -120.927263 
L 175.175168 -120.927263 
L 176.072004 -120.927263 
L 176.96884 -120.927263 
L 177.865676 -120.927263 
L 178.762511 -120.927263 
L 179.659347 -120.927263 
L 180.556183 -120.927263 
L 181.453019 -120.927263 
L 182.349854 -120.927263 
L 183.24669 -120.927263 
L 184.143526 -120.927263 
L 185.040362 -120.927263 
L 185.937197 -120.927263 
L 186.834033 -120.927263 
L 187.730869 -120.927263 
L 188.627705 -120.927263 
L 189.52454 -120.927263 
L 190.421376 -120.927263 
L 191.318212 -120.927263 
L 192.215048 -120.927263 
L 193.111883 -120.927263 
L 194.008719 -120.927263 
L 194.905555 -120.927263 
L 195.802391 -120.927263 
L 196.699227 -120.927263 
L 197.596062 -120.927263 
L 198.492898 -120.927263 
L 199.389734 -120.927263 
L 200.28657 -120.927263 
L 201.183405 -120.927263 
L 202.080241 -120.927263 
L 202.977077 -120.927263 
L 203.873913 -120.927263 
L 204.770748 -120.927263 
L 205.667584 -120.927263 
L 206.56442 -120.927263 
L 207.461256 -120.927263 
L 208.358091 -120.927263 
L 209.254927 -120.927263 
L 210.151763 -120.927263 
L 211.048599 -120.927263 
L 211.945434 -120.927263 
L 212.84227 -120.927263 
L 213.739106 -120.927263 
L 214.635942 -120.927263 
L 215.532777 -120.927263 
L 216.429613 -120.927263 
L 217.326449 -120.927263 
L 218.223285 -120.927263 
L 219.120121 -120.927263 
L 220.016956 -120.927263 
L 220.913792 -120.927263 
L 221.810628 -120.927263 
L 222.707464 -120.927263 
L 223.604299 -120.927263 
L 224.501135 -120.927263 
L 225.397971 -120.927263 
L 226.294807 -120.927263 
L 227.191642 -120.927263 
L 228.088478 -120.927263 
L 228.985314 -120.927263 
L 229.88215 -120.927263 
L 230.778985 -120.927263 
L 231.675821 -120.927263 
L 232.572657 -120.927263 
L 233.469493 -120.927263 
L 234.366328 -120.927263 
L 235.263164 -120.927263 
L 236.16 -120.927263 
L 237.056836 -120.927263 
L 237.953672 -120.927263 
L 238.850507 -120.927263 
L 239.747343 -120.927263 
L 240.644179 -120.927263 
L 241.541015 -120.927263 
L 242.43785 -120.927263 
L 243.334686 -120.927263 
L 244.231522 -120.927263 
L 245.128358 -120.927263 
L 246.025193 -120.927263 
L 246.922029 -120.927263 
L 247.818865 -120.927263 
L 248.715701 -120.927263 
L 249.612536 -120.927263 
L 250.509372 -120.927263 
L 251.406208 -120.927263 
L 252.303044 -120.927263 
L 253.199879 -120.927263 
L 254.096715 -120.927263 
L 254.993551 -120.927263 
L 255.890387 -120.927263 
L 256.787223 -120.927263 
L 257.684058 -120.927263 
L 258.580894 -120.927263 
L 259.47773 -120.927263 
L 260.374566 -120.927263 
L 261.271401 -120.927263 
L 262.168237 -120.927263 
L 263.065073 -120.927263 
L 263.961909 -120.927263 
L 264.858744 -120.927263 
L 265.75558 -120.927263 
L 266.652416 -120.927263 
L 267.549252 -120.927263 
L 268.446087 -120.927263 
L 269.342923 -120.927263 
L 270.239759 -120.927263 
L 271.136595 -120.927263 
L 272.03343 -120.927263 
L 272.930266 -120.927263 
L 273.827102 -120.927263 
L 274.723938 -120.927263 
L 275.620773 -120.927263 
L 276.517609 -120.927263 
L 277.414445 -120.927263 
L 278.311281 -120.927263 
L 279.208117 -120.927263 
L 280.104952 -120.927263 
L 281.001788 -120.927263 
L 281.898624 -120.927263 
L 282.79546 -120.927263 
L 283.692295 -120.927263 
L 284.589131 -120.927263 
L 285.485967 -120.927263 
L 286.382803 -120.927263 
L 287.279638 -120.927263 
L 288.176474 -120.927263 
L 289.07331 -120.927263 
L 289.970146 -120.927263 
L 290.866981 -120.927263 
L 291.763817 -120.927263 
L 292.660653 -120.927263 
L 293.557489 -120.927263 
L 294.454324 -120.927263 
L 295.35116 -120.927263 
L 296.247996 -120.927263 
L 297.144832 -120.927263 
L 298.041668 -120.927263 
L 298.938503 -120.927263 
L 299.835339 -120.927263 
L 300.732175 -120.927263 
L 301.629011 -120.927263 
L 302.525846 -120.927263 
L 303.422682 -120.927263 
L 304.319518 -120.927263 
L 305.216354 -120.927263 
L 306.113189 -120.927263 
L 307.010025 -120.927263 
L 307.906861 -120.927263 
L 308.803697 -120.927263 
L 309.700532 -120.927263 
L 310.597368 -120.927263 
L 311.494204 -120.927263 
L 312.39104 -120.927263 
L 313.287875 -120.927263 
L 314.184711 -120.927263 
L 315.081547 -120.927263 
L 315.978383 -120.927263 
L 316.875218 -120.927263 
L 317.772054 -120.927263 
L 318.66889 -120.927263 
L 319.565726 -120.927263 
L 320.462562 -120.927263 
L 321.359397 -120.927263 
L 322.256233 -120.927263 
L 323.153069 -120.927263 
L 324.049905 -120.927263 
L 324.94674 -120.927263 
L 325.843576 -120.927263 
L 326.740412 -120.927263 
L 327.637248 -120.927263 
L 328.534083 -120.927263 
L 329.430919 -120.927263 
L 330.327755 -120.927263 
L 331.224591 -120.927263 
L 332.121426 -120.927263 
L 333.018262 -120.927263 
L 333.915098 -120.927263 
L 334.811934 -120.927263 
L 335.708769 -120.927263 
L 336.605605 -120.927263 
L 337.502441 -120.927263 
L 338.399277 -120.927263 
L 339.296113 -120.927263 
L 340.192948 -120.927263 
L 341.089784 -120.927263 
L 341.98662 -120.927263 
L 342.883456 -120.927263 
L 343.780291 -120.927263 
L 344.677127 -120.927263 
L 345.573963 -120.927263 
L 346.470799 -120.927263 
L 347.367634 -120.927263 
L 348.26447 -120.927263 
L 349.161306 -120.927263 
L 350.058142 -120.927263 
L 350.954977 -120.927263 
L 351.851813 -120.927263 
L 352.748649 -120.927263 
L 353.645485 -120.927263 
L 354.54232 -120.927263 
L 355.439156 -120.927263 
L 356.335992 -120.927263 
L 357.232828 -120.927263 
L 358.129663 -120.927263 
L 359.026499 -120.927263 
L 359.923335 -120.927263 
L 360.820171 -120.927263 
L 361.717007 -120.927263 
L 362.613842 -120.927263 
L 363.510678 -120.927263 
L 364.407514 -120.927263 
L 365.30435 -120.927263 
L 366.201185 -120.927263 
L 367.098021 -120.927263 
L 367.994857 -120.927263 
L 368.891693 -120.927263 
L 369.788528 -120.927263 
L 370.685364 -120.927263 
L 371.5822 -120.927263 
L 372.479036 -120.927263 
L 373.375871 -120.927263 
L 374.272707 -120.927263 
L 375.169543 -120.927263 
L 376.066379 -120.927263 
L 376.963214 -120.927263 
L 377.86005 -120.927263 
L 378.756886 -120.927263 
L 379.653722 -120.927263 
L 380.550558 -120.927263 
L 381.447393 -120.927263 
L 382.344229 -120.927263 
L 383.241065 -120.927263 
L 384.137901 -120.927263 
L 385.034736 -120.927263 
L 385.931572 -120.927263 
L 386.828408 -120.927263 
L 387.725244 -120.927263 
L 388.622079 -120.927263 
L 389.518915 -120.927263 
L 390.415751 -120.927263 
L 391.312587 -120.927263 
L 392.209422 -120.927263 
L 393.106258 -120.927263 
L 394.003094 -120.927263 
L 394.89993 -120.927263 
L 395.796765 -120.927263 
L 396.693601 -120.927263 
L 397.590437 -120.927263 
L 398.487273 -120.927263 
L 398.487273 -231.475613 
L 398.487273 -231.475613 
L 397.590437 -231.475613 
L 396.693601 -231.475613 
L 395.796765 -231.475613 
L 394.89993 -231.475613 
L 394.003094 -231.475613 
L 393.106258 -231.475613 
L 392.209422 -231.475613 
L 391.312587 -231.475613 
L 390.415751 -231.475613 
L 389.518915 -231.475613 
L 388.622079 -231.475613 
L 387.725244 -231.475613 
L 386.828408 -231.475613 
L 385.931572 -231.475613 
L 385.034736 -231.475613 
L 384.137901 -231.475613 
L 383.241065 -231.475613 
L 382.344229 -231.475613 
L 381.447393 -231.475613 
L 380.550558 -231.475613 
L 379.653722 -231.475613 
L 378.756886 -231.475613 
L 377.86005 -231.475613 
L 376.963214 -231.475613 
L 376.066379 -231.475613 
L 375.169543 -231.475613 
L 374.272707 -231.475613 
L 373.375871 -231.475613 
L 372.479036 -231.475613 
L 371.5822 -231.475613 
L 370.685364 -231.475613 
L 369.788528 -231.475613 
L 368.891693 -231.475613 
L 367.994857 -231.475613 
L 367.098021 -231.475613 
L 366.201185 -231.475613 
L 365.30435 -231.475613 
L 364.407514 -231.475613 
L 363.510678 -231.475613 
L 362.613842 -231.475613 
L 361.717007 -231.475613 
L 360.820171 -231.475613 
L 359.923335 -231.475613 
L 359.026499 -231.475613 
L 358.129663 -231.475613 
L 357.232828 -231.475613 
L 356.335992 -231.475613 
L 355.439156 -231.475613 
L 354.54232 -231.475613 
L 353.645485 -231.475613 
L 352.748649 -231.475613 
L 351.851813 -231.475613 
L 350.954977 -231.475613 
L 350.058142 -231.475613 
L 349.161306 -231.475613 
L 348.26447 -231.475613 
L 347.367634 -231.475613 
L 346.470799 -231.475613 
L 345.573963 -231.475613 
L 344.677127 -231.475613 
L 343.780291 -231.475613 
L 342.883456 -231.475613 
L 341.98662 -231.475613 
L 341.089784 -231.475613 
L 340.192948 -231.475613 
L 339.296113 -231.475613 
L 338.399277 -231.475613 
L 337.502441 -231.475613 
L 336.605605 -231.475613 
L 335.708769 -231.475613 
L 334.811934 -231.475613 
L 333.915098 -231.475613 
L 333.018262 -231.475613 
L 332.121426 -231.475613 
L 331.224591 -231.475613 
L 330.327755 -231.475613 
L 329.430919 -231.475613 
L 328.534083 -231.475613 
L 327.637248 -231.475613 
L 326.740412 -231.475613 
L 325.843576 -231.475613 
L 324.94674 -231.475613 
L 324.049905 -231.475613 
L 323.153069 -231.475613 
L 322.256233 -231.475613 
L 321.359397 -231.475613 
L 320.462562 -231.475613 
L 319.565726 -231.475613 
L 318.66889 -231.475613 
L 317.772054 -231.475613 
L 316.875218 -231.475613 
L 315.978383 -231.475613 
L 315.081547 -231.475613 
L 314.184711 -231.475613 
L 313.287875 -231.475613 
L 312.39104 -231.475613 
L 311.494204 -231.475613 
L 310.597368 -231.475613 
L 309.700532 -231.475613 
L 308.803697 -231.475613 
L 307.906861 -231.475613 
L 307.010025 -231.475613 
L 306.113189 -231.475613 
L 305.216354 -231.475613 
L 304.319518 -231.475613 
L 303.422682 -231.475613 
L 302.525846 -231.475613 
L 301.629011 -231.475613 
L 300.732175 -231.475613 
L 299.835339 -231.475613 
L 298.938503 -231.475613 
L 298.041668 -231.475613 
L 297.144832 -231.475613 
L 296.247996 -231.475613 
L 295.35116 -231.475613 
L 294.454324 -231.475613 
L 293.557489 -231.475613 
L 292.660653 -231.475613 
L 291.763817 -231.475613 
L 290.866981 -231.475613 
L 289.970146 -231.475613 
L 289.07331 -231.475613 
L 288.176474 -231.475613 
L 287.279638 -231.475613 
L 286.382803 -231.475613 
L 285.485967 -231.475613 
L 284.589131 -231.475613 
L 283.692295 -231.475613 
L 282.79546 -231.475613 
L 281.898624 -231.475613 
L 281.001788 -231.475613 
L 280.104952 -231.475613 
L 279.208117 -231.475613 
L 278.311281 -231.475613 
L 277.414445 -231.475613 
L 276.517609 -231.475613 
L 275.620773 -231.475613 
L 274.723938 -231.475613 
L 273.827102 -231.475613 
L 272.930266 -231.475613 
L 272.03343 -231.475613 
L 271.136595 -231.475613 
L 270.239759 -231.475613 
L 269.342923 -231.475613 
L 268.446087 -231.475613 
L 267.549252 -231.475613 
L 266.652416 -231.475613 
L 265.75558 -231.475613 
L 264.858744 -231.475613 
L 263.961909 -231.475613 
L 263.065073 -231.475613 
L 262.168237 -231.475613 
L 261.271401 -231.475613 
L 260.374566 -231.475613 
L 259.47773 -231.475613 
L 258.580894 -231.475613 
L 257.684058 -231.475613 
L 256.787223 -231.475613 
L 255.890387 -231.475613 
L 254.993551 -231.475613 
L 254.096715 -231.475613 
L 253.199879 -231.475613 
L 252.303044 -231.475613 
L 251.406208 -231.475613 
L 250.509372 -231.475613 
L 249.612536 -231.475613 
L 248.715701 -231.475613 
L 247.818865 -231.475613 
L 246.922029 -231.475613 
L 246.025193 -231.475613 
L 245.128358 -231.475613 
L 244.231522 -231.475613 
L 243.334686 -231.475613 
L 242.43785 -231.475613 
L 241.541015 -231.475613 
L 240.644179 -231.475613 
L 239.747343 -231.475613 
L 238.850507 -231.475613 
L 237.953672 -231.475613 
L 237.056836 -231.475613 
L 236.16 -231.475613 
L 235.263164 -231.475613 
L 234.366328 -231.475613 
L 233.469493 -231.475613 
L 232.572657 -231.475613 
L 231.675821 -231.475613 
L 230.778985 -231.475613 
L 229.88215 -231.475613 
L 228.985314 -231.475613 
L 228.088478 -231.475613 
L 227.191642 -231.475613 
L 226.294807 -231.475613 
L 225.397971 -231.475613 
L 224.501135 -231.475613 
L 223.604299 -231.475613 
L 222.707464 -231.475613 
L 221.810628 -231.475613 
L 220.913792 -231.475613 
L 220.016956 -231.475613 
L 219.120121 -231.475613 
L 218.223285 -231.475613 
L 217.326449 -231.475613 
L 216.429613 -231.475613 
L 215.532777 -231.475613 
L 214.635942 -231.475613 
L 213.739106 -231.475613 
L 212.84227 -231.475613 
L 211.945434 -231.475613 
L 211.048599 -231.475613 
L 210.151763 -231.475613 
L 209.254927 -231.475613 
L 208.358091 -231.475613 
L 207.461256 -231.475613 
L 206.56442 -231.475613 
L 205.667584 -231.475613 
L 204.770748 -231.475613 
L 203.873913 -231.475613 
L 202.977077 -231.475613 
L 202.080241 -231.475613 
L 201.183405 -231.475613 
L 200.28657 -231.475613 
L 199.389734 -231.475613 
L 198.492898 -231.475613 
L 197.596062 -231.475613 
L 196.699227 -231.475613 
L 195.802391 -231.475613 
L 194.905555 -231.475613 
L 194.008719 -231.475613 
L 193.111883 -231.475613 
L 192.215048 -231.475613 
L 191.318212 -231.475613 
L 190.421376 -231.475613 
L 189.52454 -231.475613 
L 188.627705 -231.475613 
L 187.730869 -231.475613 
L 186.834033 -231.475613 
L 185.937197 -231.475613 
L 185.040362 -231.475613 
L 184.143526 -231.475613 
L 183.24669 -231.475613 
L 182.349854 -231.475613 
L 181.453019 -231.475613 
L 180.556183 -231.475613 
L 179.659347 -231.475613 
L 178.762511 -231.475613 
L 177.865676 -231.475613 
L 176.96884 -231.475613 
L 176.072004 -231.475613 
L 175.175168 -231.475613 
L 174.278332 -231.475613 
L 173.381497 -231.475613 
L 172.484661 -231.475613 
L 171.587825 -231.475613 
L 170.690989 -231.475613 
L 169.794154 -231.475613 
L 168.897318 -231.475613 
L 168.000482 -231.475613 
L 167.103646 -231.475613 
L 166.206811 -231.475613 
L 165.309975 -231.475613 
L 164.413139 -231.475613 
L 163.516303 -231.475613 
L 162.619468 -231.475613 
L 161.722632 -231.475613 
L 160.825796 -231.475613 
L 159.92896 -231.475613 
L 159.032125 -231.475613 
L 158.135289 -231.475613 
L 157.238453 -231.475613 
L 156.341617 -231.475613 
L 155.444782 -231.475613 
L 154.547946 -231.475613 
L 153.65111 -231.475613 
L 152.754274 -231.475613 
L 151.857438 -231.475613 
L 150.960603 -231.475613 
L 150.063767 -231.475613 
L 149.166931 -231.475613 
L 148.270095 -231.475613 
L 147.37326 -231.475613 
L 146.476424 -231.475613 
L 145.579588 -231.475613 
L 144.682752 -231.475613 
L 143.785917 -231.475613 
L 142.889081 -231.475613 
L 141.992245 -231.475613 
L 141.095409 -231.475613 
L 140.198574 -231.475613 
L 139.301738 -231.475613 
L 138.404902 -231.475613 
L 137.508066 -231.475613 
L 136.611231 -231.475613 
L 135.714395 -231.475613 
L 134.817559 -231.475613 
L 133.920723 -231.475613 
L 133.023887 -231.475613 
L 132.127052 -231.475613 
L 131.230216 -231.475613 
L 130.33338 -231.475613 
L 129.436544 -231.475613 
L 128.539709 -231.475613 
L 127.642873 -231.475613 
L 126.746037 -231.475613 
L 125.849201 -231.475613 
L 124.952366 -231.475613 
L 124.05553 -231.475613 
L 123.158694 -231.475613 
L 122.261858 -231.475613 
L 121.365023 -231.475613 
L 120.468187 -231.475613 
L 119.571351 -231.475613 
L 118.674515 -231.475613 
L 117.77768 -231.475613 
L 116.880844 -231.475613 
L 115.984008 -231.475613 
L 115.087172 -231.475613 
L 114.190337 -231.475613 
L 113.293501 -231.475613 
L 112.396665 -231.475613 
L 111.499829 -231.475613 
L 110.602993 -231.475613 
L 109.706158 -231.475613 
L 108.809322 -231.475613 
L 107.912486 -231.475613 
L 107.01565 -231.475613 
L 106.118815 -231.475613 
L 105.221979 -231.475613 
L 104.325143 -231.475613 
L 103.428307 -231.475613 
L 102.531472 -231.475613 
L 101.634636 -231.475613 
L 100.7378 -231.475613 
L 99.840964 -231.475613 
L 98.944129 -231.475613 
L 98.047293 -231.475613 
L 97.150457 -231.475613 
L 96.253621 -231.475613 
L 95.356786 -231.475613 
L 94.45995 -231.475613 
L 93.563114 -231.475613 
L 92.666278 -231.475613 
L 91.769442 -231.475613 
L 90.872607 -231.475613 
L 89.975771 -231.475613 
L 89.078935 -231.475613 
L 88.182099 -231.475613 
L 87.285264 -231.475613 
L 86.388428 -231.475613 
L 85.491592 -231.475613 
L 84.594756 -231.475613 
L 83.697921 -231.475613 
L 82.801085 -231.475613 
L 81.904249 -231.475613 
L 81.007413 -231.475613 
L 80.110578 -231.475613 
L 79.213742 -231.475613 
L 78.316906 -231.475613 
L 77.42007 -231.475613 
L 76.523235 -231.475613 
L 75.626399 -231.475613 
L 74.729563 -231.475613 
L 73.832727 -231.475613 
z
" id="mbe2de29c43" style="stroke:#4b0082;stroke-opacity:0.3;"/>
    </defs>
    <g clip-path="url(#pc9ecb26aa0)">
     <use style="fill:#4b0082;fill-opacity:0.3;stroke:#4b0082;stroke-opacity:0.3;" x="0" xlink:href="#mbe2de29c43" y="345.6"/>
    </g>
   </g>
   <g id="matplotlib.axis_1">
    <g id="xtick_1">
     <g id="line2d_1">
      <defs>
       <path d="M 0 0 
L 0 3.5 
" id="m9e1bd246c5" style="stroke:#000000;stroke-width:0.8;"/>
      </defs>
      <g>
       <use style="stroke:#000000;stroke-width:0.8;" x="73.832727" xlink:href="#m9e1bd246c5" y="307.584"/>
      </g>
     </g>
     <g id="text_1">
      <!-- 2020-01 -->
      <g transform="translate(52.941321 322.182437)scale(0.1 -0.1)">
       <defs>
        <path d="M 19.1875 8.296875 
L 53.609375 8.296875 
L 53.609375 0 
L 7.328125 0 
L 7.328125 8.296875 
Q 12.9375 14.109375 22.625 23.890625 
Q 32.328125 33.6875 34.8125 36.53125 
Q 39.546875 41.84375 41.421875 45.53125 
Q 43.3125 49.21875 43.3125 52.78125 
Q 43.3125 58.59375 39.234375 62.25 
Q 35.15625 65.921875 28.609375 65.921875 
Q 23.96875 65.921875 18.8125 64.3125 
Q 13.671875 62.703125 7.8125 59.421875 
L 7.8125 69.390625 
Q 13.765625 71.78125 18.9375 73 
Q 24.125 74.21875 28.421875 74.21875 
Q 39.75 74.21875 46.484375 68.546875 
Q 53.21875 62.890625 53.21875 53.421875 
Q 53.21875 48.921875 51.53125 44.890625 
Q 49.859375 40.875 45.40625 35.40625 
Q 44.1875 33.984375 37.640625 27.21875 
Q 31.109375 20.453125 19.1875 8.296875 
z
" id="DejaVuSans-50"/>
        <path d="M 31.78125 66.40625 
Q 24.171875 66.40625 20.328125 58.90625 
Q 16.5 51.421875 16.5 36.375 
Q 16.5 21.390625 20.328125 13.890625 
Q 24.171875 6.390625 31.78125 6.390625 
Q 39.453125 6.390625 43.28125 13.890625 
Q 47.125 21.390625 47.125 36.375 
Q 47.125 51.421875 43.28125 58.90625 
Q 39.453125 66.40625 31.78125 66.40625 
z
M 31.78125 74.21875 
Q 44.046875 74.21875 50.515625 64.515625 
Q 56.984375 54.828125 56.984375 36.375 
Q 56.984375 17.96875 50.515625 8.265625 
Q 44.046875 -1.421875 31.78125 -1.421875 
Q 19.53125 -1.421875 13.0625 8.265625 
Q 6.59375 17.96875 6.59375 36.375 
Q 6.59375 54.828125 13.0625 64.515625 
Q 19.53125 74.21875 31.78125 74.21875 
z
" id="DejaVuSans-48"/>
        <path d="M 4.890625 31.390625 
L 31.203125 31.390625 
L 31.203125 23.390625 
L 4.890625 23.390625 
z
" id="DejaVuSans-45"/>
        <path d="M 12.40625 8.296875 
L 28.515625 8.296875 
L 28.515625 63.921875 
L 10.984375 60.40625 
L 10.984375 69.390625 
L 28.421875 72.90625 
L 38.28125 72.90625 
L 38.28125 8.296875 
L 54.390625 8.296875 
L 54.390625 0 
L 12.40625 0 
z
" id="DejaVuSans-49"/>
       </defs>
       <use xlink:href="#DejaVuSans-50"/>
       <use x="63.623047" xlink:href="#DejaVuSans-48"/>
       <use x="127.246094" xlink:href="#DejaVuSans-50"/>
       <use x="190.869141" xlink:href="#DejaVuSans-48"/>
       <use x="254.492188" xlink:href="#DejaVuSans-45"/>
       <use x="290.576172" xlink:href="#DejaVuSans-48"/>
       <use x="354.199219" xlink:href="#DejaVuSans-49"/>
      </g>
     </g>
    </g>
    <g id="xtick_2">
     <g id="line2d_2">
      <g>
       <use style="stroke:#000000;stroke-width:0.8;" x="127.642873" xlink:href="#m9e1bd246c5" y="307.584"/>
      </g>
     </g>
     <g id="text_2">
      <!-- 2020-03 -->
      <g transform="translate(106.751467 322.182437)scale(0.1 -0.1)">
       <defs>
        <path d="M 40.578125 39.3125 
Q 47.65625 37.796875 51.625 33 
Q 55.609375 28.21875 55.609375 21.1875 
Q 55.609375 10.40625 48.1875 4.484375 
Q 40.765625 -1.421875 27.09375 -1.421875 
Q 22.515625 -1.421875 17.65625 -0.515625 
Q 12.796875 0.390625 7.625 2.203125 
L 7.625 11.71875 
Q 11.71875 9.328125 16.59375 8.109375 
Q 21.484375 6.890625 26.8125 6.890625 
Q 36.078125 6.890625 40.9375 10.546875 
Q 45.796875 14.203125 45.796875 21.1875 
Q 45.796875 27.640625 41.28125 31.265625 
Q 36.765625 34.90625 28.71875 34.90625 
L 20.21875 34.90625 
L 20.21875 43.015625 
L 29.109375 43.015625 
Q 36.375 43.015625 40.234375 45.921875 
Q 44.09375 48.828125 44.09375 54.296875 
Q 44.09375 59.90625 40.109375 62.90625 
Q 36.140625 65.921875 28.71875 65.921875 
Q 24.65625 65.921875 20.015625 65.03125 
Q 15.375 64.15625 9.8125 62.3125 
L 9.8125 71.09375 
Q 15.4375 72.65625 20.34375 73.4375 
Q 25.25 74.21875 29.59375 74.21875 
Q 40.828125 74.21875 47.359375 69.109375 
Q 53.90625 64.015625 53.90625 55.328125 
Q 53.90625 49.265625 50.4375 45.09375 
Q 46.96875 40.921875 40.578125 39.3125 
z
" id="DejaVuSans-51"/>
       </defs>
       <use xlink:href="#DejaVuSans-50"/>
       <use x="63.623047" xlink:href="#DejaVuSans-48"/>
       <use x="127.246094" xlink:href="#DejaVuSans-50"/>
       <use x="190.869141" xlink:href="#DejaVuSans-48"/>
       <use x="254.492188" xlink:href="#DejaVuSans-45"/>
       <use x="290.576172" xlink:href="#DejaVuSans-48"/>
       <use x="354.199219" xlink:href="#DejaVuSans-51"/>
      </g>
     </g>
    </g>
    <g id="xtick_3">
     <g id="line2d_3">
      <g>
       <use style="stroke:#000000;stroke-width:0.8;" x="182.349854" xlink:href="#m9e1bd246c5" y="307.584"/>
      </g>
     </g>
     <g id="text_3">
      <!-- 2020-05 -->
      <g transform="translate(161.458448 322.182437)scale(0.1 -0.1)">
       <defs>
        <path d="M 10.796875 72.90625 
L 49.515625 72.90625 
L 49.515625 64.59375 
L 19.828125 64.59375 
L 19.828125 46.734375 
Q 21.96875 47.46875 24.109375 47.828125 
Q 26.265625 48.1875 28.421875 48.1875 
Q 40.625 48.1875 47.75 41.5 
Q 54.890625 34.8125 54.890625 23.390625 
Q 54.890625 11.625 47.5625 5.09375 
Q 40.234375 -1.421875 26.90625 -1.421875 
Q 22.3125 -1.421875 17.546875 -0.640625 
Q 12.796875 0.140625 7.71875 1.703125 
L 7.71875 11.625 
Q 12.109375 9.234375 16.796875 8.0625 
Q 21.484375 6.890625 26.703125 6.890625 
Q 35.15625 6.890625 40.078125 11.328125 
Q 45.015625 15.765625 45.015625 23.390625 
Q 45.015625 31 40.078125 35.4375 
Q 35.15625 39.890625 26.703125 39.890625 
Q 22.75 39.890625 18.8125 39.015625 
Q 14.890625 38.140625 10.796875 36.28125 
z
" id="DejaVuSans-53"/>
       </defs>
       <use xlink:href="#DejaVuSans-50"/>
       <use x="63.623047" xlink:href="#DejaVuSans-48"/>
       <use x="127.246094" xlink:href="#DejaVuSans-50"/>
       <use x="190.869141" xlink:href="#DejaVuSans-48"/>
       <use x="254.492188" xlink:href="#DejaVuSans-45"/>
       <use x="290.576172" xlink:href="#DejaVuSans-48"/>
       <use x="354.199219" xlink:href="#DejaVuSans-53"/>
      </g>
     </g>
    </g>
    <g id="xtick_4">
     <g id="line2d_4">
      <g>
       <use style="stroke:#000000;stroke-width:0.8;" x="237.056836" xlink:href="#m9e1bd246c5" y="307.584"/>
      </g>
     </g>
     <g id="text_4">
      <!-- 2020-07 -->
      <g transform="translate(216.16543 322.182437)scale(0.1 -0.1)">
       <defs>
        <path d="M 8.203125 72.90625 
L 55.078125 72.90625 
L 55.078125 68.703125 
L 28.609375 0 
L 18.3125 0 
L 43.21875 64.59375 
L 8.203125 64.59375 
z
" id="DejaVuSans-55"/>
       </defs>
       <use xlink:href="#DejaVuSans-50"/>
       <use x="63.623047" xlink:href="#DejaVuSans-48"/>
       <use x="127.246094" xlink:href="#DejaVuSans-50"/>
       <use x="190.869141" xlink:href="#DejaVuSans-48"/>
       <use x="254.492188" xlink:href="#DejaVuSans-45"/>
       <use x="290.576172" xlink:href="#DejaVuSans-48"/>
       <use x="354.199219" xlink:href="#DejaVuSans-55"/>
      </g>
     </g>
    </g>
    <g id="xtick_5">
     <g id="line2d_5">
      <g>
       <use style="stroke:#000000;stroke-width:0.8;" x="292.660653" xlink:href="#m9e1bd246c5" y="307.584"/>
      </g>
     </g>
     <g id="text_5">
      <!-- 2020-09 -->
      <g transform="translate(271.769247 322.182437)scale(0.1 -0.1)">
       <defs>
        <path d="M 10.984375 1.515625 
L 10.984375 10.5 
Q 14.703125 8.734375 18.5 7.8125 
Q 22.3125 6.890625 25.984375 6.890625 
Q 35.75 6.890625 40.890625 13.453125 
Q 46.046875 20.015625 46.78125 33.40625 
Q 43.953125 29.203125 39.59375 26.953125 
Q 35.25 24.703125 29.984375 24.703125 
Q 19.046875 24.703125 12.671875 31.3125 
Q 6.296875 37.9375 6.296875 49.421875 
Q 6.296875 60.640625 12.9375 67.421875 
Q 19.578125 74.21875 30.609375 74.21875 
Q 43.265625 74.21875 49.921875 64.515625 
Q 56.59375 54.828125 56.59375 36.375 
Q 56.59375 19.140625 48.40625 8.859375 
Q 40.234375 -1.421875 26.421875 -1.421875 
Q 22.703125 -1.421875 18.890625 -0.6875 
Q 15.09375 0.046875 10.984375 1.515625 
z
M 30.609375 32.421875 
Q 37.25 32.421875 41.125 36.953125 
Q 45.015625 41.5 45.015625 49.421875 
Q 45.015625 57.28125 41.125 61.84375 
Q 37.25 66.40625 30.609375 66.40625 
Q 23.96875 66.40625 20.09375 61.84375 
Q 16.21875 57.28125 16.21875 49.421875 
Q 16.21875 41.5 20.09375 36.953125 
Q 23.96875 32.421875 30.609375 32.421875 
z
" id="DejaVuSans-57"/>
       </defs>
       <use xlink:href="#DejaVuSans-50"/>
       <use x="63.623047" xlink:href="#DejaVuSans-48"/>
       <use x="127.246094" xlink:href="#DejaVuSans-50"/>
       <use x="190.869141" xlink:href="#DejaVuSans-48"/>
       <use x="254.492188" xlink:href="#DejaVuSans-45"/>
       <use x="290.576172" xlink:href="#DejaVuSans-48"/>
       <use x="354.199219" xlink:href="#DejaVuSans-57"/>
      </g>
     </g>
    </g>
    <g id="xtick_6">
     <g id="line2d_6">
      <g>
       <use style="stroke:#000000;stroke-width:0.8;" x="347.367634" xlink:href="#m9e1bd246c5" y="307.584"/>
      </g>
     </g>
     <g id="text_6">
      <!-- 2020-11 -->
      <g transform="translate(326.476228 322.182437)scale(0.1 -0.1)">
       <use xlink:href="#DejaVuSans-50"/>
       <use x="63.623047" xlink:href="#DejaVuSans-48"/>
       <use x="127.246094" xlink:href="#DejaVuSans-50"/>
       <use x="190.869141" xlink:href="#DejaVuSans-48"/>
       <use x="254.492188" xlink:href="#DejaVuSans-45"/>
       <use x="290.576172" xlink:href="#DejaVuSans-49"/>
       <use x="354.199219" xlink:href="#DejaVuSans-49"/>
      </g>
     </g>
    </g>
    <g id="xtick_7">
     <g id="line2d_7">
      <g>
       <use style="stroke:#000000;stroke-width:0.8;" x="402.074616" xlink:href="#m9e1bd246c5" y="307.584"/>
      </g>
     </g>
     <g id="text_7">
      <!-- 2021-01 -->
      <g transform="translate(381.18321 322.182437)scale(0.1 -0.1)">
       <use xlink:href="#DejaVuSans-50"/>
       <use x="63.623047" xlink:href="#DejaVuSans-48"/>
       <use x="127.246094" xlink:href="#DejaVuSans-50"/>
       <use x="190.869141" xlink:href="#DejaVuSans-49"/>
       <use x="254.492188" xlink:href="#DejaVuSans-45"/>
       <use x="290.576172" xlink:href="#DejaVuSans-48"/>
       <use x="354.199219" xlink:href="#DejaVuSans-49"/>
      </g>
     </g>
    </g>
   </g>
   <g id="matplotlib.axis_2">
    <g id="ytick_1">
     <g id="line2d_8">
      <defs>
       <path d="M 0 0 
L -3.5 0 
" id="m9ab116d71f" style="stroke:#000000;stroke-width:0.8;"/>
      </defs>
      <g>
       <use style="stroke:#000000;stroke-width:0.8;" x="57.6" xlink:href="#m9ab116d71f" y="307.584"/>
      </g>
     </g>
     <g id="text_8">
      <!-- 0 -->
      <g transform="translate(44.2375 311.383219)scale(0.1 -0.1)">
       <use xlink:href="#DejaVuSans-48"/>
      </g>
     </g>
    </g>
    <g id="ytick_2">
     <g id="line2d_9">
      <g>
       <use style="stroke:#000000;stroke-width:0.8;" x="57.6" xlink:href="#m9ab116d71f" y="252.309825"/>
      </g>
     </g>
     <g id="text_9">
      <!-- 20 -->
      <g transform="translate(37.875 256.109044)scale(0.1 -0.1)">
       <use xlink:href="#DejaVuSans-50"/>
       <use x="63.623047" xlink:href="#DejaVuSans-48"/>
      </g>
     </g>
    </g>
    <g id="ytick_3">
     <g id="line2d_10">
      <g>
       <use style="stroke:#000000;stroke-width:0.8;" x="57.6" xlink:href="#m9ab116d71f" y="197.03565"/>
      </g>
     </g>
     <g id="text_10">
      <!-- 40 -->
      <g transform="translate(37.875 200.834869)scale(0.1 -0.1)">
       <defs>
        <path d="M 37.796875 64.3125 
L 12.890625 25.390625 
L 37.796875 25.390625 
z
M 35.203125 72.90625 
L 47.609375 72.90625 
L 47.609375 25.390625 
L 58.015625 25.390625 
L 58.015625 17.1875 
L 47.609375 17.1875 
L 47.609375 0 
L 37.796875 0 
L 37.796875 17.1875 
L 4.890625 17.1875 
L 4.890625 26.703125 
z
" id="DejaVuSans-52"/>
       </defs>
       <use xlink:href="#DejaVuSans-52"/>
       <use x="63.623047" xlink:href="#DejaVuSans-48"/>
      </g>
     </g>
    </g>
    <g id="ytick_4">
     <g id="line2d_11">
      <g>
       <use style="stroke:#000000;stroke-width:0.8;" x="57.6" xlink:href="#m9ab116d71f" y="141.761475"/>
      </g>
     </g>
     <g id="text_11">
      <!-- 60 -->
      <g transform="translate(37.875 145.560694)scale(0.1 -0.1)">
       <defs>
        <path d="M 33.015625 40.375 
Q 26.375 40.375 22.484375 35.828125 
Q 18.609375 31.296875 18.609375 23.390625 
Q 18.609375 15.53125 22.484375 10.953125 
Q 26.375 6.390625 33.015625 6.390625 
Q 39.65625 6.390625 43.53125 10.953125 
Q 47.40625 15.53125 47.40625 23.390625 
Q 47.40625 31.296875 43.53125 35.828125 
Q 39.65625 40.375 33.015625 40.375 
z
M 52.59375 71.296875 
L 52.59375 62.3125 
Q 48.875 64.0625 45.09375 64.984375 
Q 41.3125 65.921875 37.59375 65.921875 
Q 27.828125 65.921875 22.671875 59.328125 
Q 17.53125 52.734375 16.796875 39.40625 
Q 19.671875 43.65625 24.015625 45.921875 
Q 28.375 48.1875 33.59375 48.1875 
Q 44.578125 48.1875 50.953125 41.515625 
Q 57.328125 34.859375 57.328125 23.390625 
Q 57.328125 12.15625 50.6875 5.359375 
Q 44.046875 -1.421875 33.015625 -1.421875 
Q 20.359375 -1.421875 13.671875 8.265625 
Q 6.984375 17.96875 6.984375 36.375 
Q 6.984375 53.65625 15.1875 63.9375 
Q 23.390625 74.21875 37.203125 74.21875 
Q 40.921875 74.21875 44.703125 73.484375 
Q 48.484375 72.75 52.59375 71.296875 
z
" id="DejaVuSans-54"/>
       </defs>
       <use xlink:href="#DejaVuSans-54"/>
       <use x="63.623047" xlink:href="#DejaVuSans-48"/>
      </g>
     </g>
    </g>
    <g id="ytick_5">
     <g id="line2d_12">
      <g>
       <use style="stroke:#000000;stroke-width:0.8;" x="57.6" xlink:href="#m9ab116d71f" y="86.4873"/>
      </g>
     </g>
     <g id="text_12">
      <!-- 80 -->
      <g transform="translate(37.875 90.286518)scale(0.1 -0.1)">
       <defs>
        <path d="M 31.78125 34.625 
Q 24.75 34.625 20.71875 30.859375 
Q 16.703125 27.09375 16.703125 20.515625 
Q 16.703125 13.921875 20.71875 10.15625 
Q 24.75 6.390625 31.78125 6.390625 
Q 38.8125 6.390625 42.859375 10.171875 
Q 46.921875 13.96875 46.921875 20.515625 
Q 46.921875 27.09375 42.890625 30.859375 
Q 38.875 34.625 31.78125 34.625 
z
M 21.921875 38.8125 
Q 15.578125 40.375 12.03125 44.71875 
Q 8.5 49.078125 8.5 55.328125 
Q 8.5 64.0625 14.71875 69.140625 
Q 20.953125 74.21875 31.78125 74.21875 
Q 42.671875 74.21875 48.875 69.140625 
Q 55.078125 64.0625 55.078125 55.328125 
Q 55.078125 49.078125 51.53125 44.71875 
Q 48 40.375 41.703125 38.8125 
Q 48.828125 37.15625 52.796875 32.3125 
Q 56.78125 27.484375 56.78125 20.515625 
Q 56.78125 9.90625 50.3125 4.234375 
Q 43.84375 -1.421875 31.78125 -1.421875 
Q 19.734375 -1.421875 13.25 4.234375 
Q 6.78125 9.90625 6.78125 20.515625 
Q 6.78125 27.484375 10.78125 32.3125 
Q 14.796875 37.15625 21.921875 38.8125 
z
M 18.3125 54.390625 
Q 18.3125 48.734375 21.84375 45.5625 
Q 25.390625 42.390625 31.78125 42.390625 
Q 38.140625 42.390625 41.71875 45.5625 
Q 45.3125 48.734375 45.3125 54.390625 
Q 45.3125 60.0625 41.71875 63.234375 
Q 38.140625 66.40625 31.78125 66.40625 
Q 25.390625 66.40625 21.84375 63.234375 
Q 18.3125 60.0625 18.3125 54.390625 
z
" id="DejaVuSans-56"/>
       </defs>
       <use xlink:href="#DejaVuSans-56"/>
       <use x="63.623047" xlink:href="#DejaVuSans-48"/>
      </g>
     </g>
    </g>
   </g>
   <g id="line2d_13">
    <path clip-path="url(#pc9ecb26aa0)" d="M 88.182099 95.611013 
L 89.078935 93.655238 
L 89.975771 99.694872 
L 90.872607 109.607846 
L 91.769442 123.547786 
L 92.666278 131.548002 
L 93.563114 135.049326 
L 95.356786 144.54108 
L 96.253621 146.444821 
L 97.150457 136.625536 
L 98.047293 131.486308 
L 98.944129 130.511134 
L 99.840964 130.758931 
L 100.7378 134.748552 
L 101.634636 135.980979 
L 102.531472 138.129682 
L 103.428307 132.809104 
L 104.325143 132.607481 
L 105.221979 128.595164 
L 106.118815 117.201722 
L 107.01565 100.938152 
L 107.912486 89.012517 
L 108.809322 85.241716 
L 109.706158 92.633 
L 110.602993 104.737734 
L 111.499829 113.307098 
L 112.396665 116.404509 
L 113.293501 112.14631 
L 114.190337 123.205102 
L 115.087172 127.552915 
L 115.984008 141.911638 
L 116.880844 136.595705 
L 117.77768 147.320348 
L 118.674515 156.171585 
L 119.571351 172.98009 
L 120.468187 176.524354 
L 122.261858 178.465358 
L 123.158694 188.972862 
L 124.952366 222.911031 
L 125.849201 231.362092 
L 126.746037 231.305032 
L 127.642873 232.746103 
L 128.539709 221.6552 
L 129.436544 223.824847 
L 130.33338 219.348689 
L 131.230216 217.932971 
L 132.127052 204.847972 
L 133.023887 200.488832 
L 134.817559 231.218702 
L 135.714395 241.205352 
L 136.611231 231.616276 
L 137.508066 240.102415 
L 138.404902 240.936038 
L 139.301738 248.780547 
L 140.198574 238.163309 
L 141.095409 242.725775 
L 141.992245 242.315475 
L 142.889081 243.136172 
L 143.785917 233.874795 
L 145.579588 224.36757 
L 146.476424 222.206627 
L 147.37326 212.963704 
L 148.270095 202.425657 
L 149.166931 194.588013 
L 150.063767 165.434486 
L 150.960603 149.712654 
L 151.857438 128.164236 
L 152.754274 141.378998 
L 153.65111 133.781306 
L 154.547946 134.060103 
L 155.444782 125.481776 
L 156.341617 132.918533 
L 158.135289 144.060657 
L 159.92896 132.754251 
L 160.825796 134.904853 
L 161.722632 138.528169 
L 162.619468 143.132484 
L 163.516303 142.476252 
L 164.413139 143.179571 
L 165.309975 133.627928 
L 166.206811 131.854358 
L 167.103646 132.112311 
L 168.000482 150.718563 
L 168.897318 154.427636 
L 169.794154 158.785361 
L 170.690989 151.37601 
L 171.587825 150.822923 
L 173.381497 179.332572 
L 174.278332 190.260556 
L 175.175168 177.166327 
L 176.96884 139.187796 
L 177.865676 127.291543 
L 178.762511 122.36757 
L 179.659347 118.696535 
L 180.556183 103.146876 
L 181.453019 96.605064 
L 182.349854 85.795684 
L 183.24669 89.188769 
L 184.143526 84.684928 
L 186.834033 59.792618 
L 187.730869 58.326474 
L 188.627705 61.968854 
L 189.52454 70.819667 
L 191.318212 121.042747 
L 192.215048 137.377967 
L 193.111883 142.79392 
L 194.008719 138.91875 
L 194.905555 145.14682 
L 195.802391 147.581476 
L 196.699227 152.968722 
L 198.492898 146.311818 
L 199.389734 150.431083 
L 200.28657 168.56331 
L 201.183405 183.14903 
L 202.080241 191.169996 
L 202.977077 181.633371 
L 203.873913 170.616527 
L 204.770748 165.749923 
L 205.667584 166.903153 
L 206.56442 174.175631 
L 207.461256 172.546738 
L 208.358091 166.241843 
L 209.254927 166.250731 
L 210.151763 161.921342 
L 211.048599 169.117861 
L 211.945434 164.012414 
L 212.84227 161.604123 
L 213.739106 153.620907 
L 214.635942 149.458447 
L 215.532777 144.556381 
L 217.326449 130.815283 
L 218.223285 133.922082 
L 219.120121 149.665419 
L 220.913792 175.466671 
L 221.810628 173.339991 
L 222.707464 189.67552 
L 223.604299 186.525969 
L 224.501135 190.317338 
L 225.397971 185.519712 
L 226.294807 194.802839 
L 227.191642 198.492268 
L 228.088478 200.923288 
L 228.985314 194.149503 
L 229.88215 188.64878 
L 230.778985 187.497517 
L 231.675821 185.972184 
L 232.572657 191.505022 
L 233.469493 191.918431 
L 234.366328 196.860137 
L 235.263164 194.139025 
L 236.16 193.122367 
L 237.056836 193.792046 
L 237.953672 195.400953 
L 238.850507 190.942407 
L 239.747343 190.49446 
L 240.644179 188.29866 
L 241.541015 191.651936 
L 242.43785 196.116145 
L 244.231522 176.211136 
L 245.128358 161.732274 
L 246.025193 157.913379 
L 246.922029 151.438783 
L 247.818865 153.440161 
L 248.715701 157.443944 
L 249.612536 165.355279 
L 250.509372 165.314525 
L 251.406208 165.395282 
L 252.303044 162.326589 
L 253.199879 158.434558 
L 254.096715 171.44644 
L 254.993551 167.658848 
L 255.890387 168.279362 
L 256.787223 140.041242 
L 257.684058 132.454594 
L 258.580894 116.374114 
L 259.47773 110.562712 
L 260.374566 86.42627 
L 262.168237 61.088456 
L 263.065073 59.648431 
L 263.961909 54.683833 
L 264.858744 51.343836 
L 267.549252 99.289897 
L 268.446087 97.394778 
L 269.342923 97.669946 
L 270.239759 96.945825 
L 271.136595 98.61907 
L 272.03343 102.827976 
L 272.930266 112.810169 
L 273.827102 129.658472 
L 274.723938 143.842076 
L 275.620773 148.638322 
L 276.517609 149.725655 
L 277.414445 155.237954 
L 278.311281 147.665142 
L 279.208117 134.678624 
L 280.104952 123.425225 
L 282.79546 168.043759 
L 283.692295 170.800677 
L 284.589131 172.958681 
L 285.485967 174.278318 
L 286.382803 174.000709 
L 287.279638 175.431644 
L 288.176474 181.661879 
L 289.07331 185.14008 
L 289.970146 190.242148 
L 290.866981 184.911019 
L 291.763817 192.561443 
L 292.660653 185.421988 
L 293.557489 188.691846 
L 294.454324 196.890578 
L 295.35116 210.391393 
L 296.247996 221.598683 
L 297.144832 217.162065 
L 298.041668 219.780593 
L 298.938503 216.54076 
L 299.835339 215.669931 
L 300.732175 211.843702 
L 301.629011 211.490512 
L 302.525846 209.372244 
L 303.422682 215.216338 
L 304.319518 213.071458 
L 305.216354 214.282266 
L 306.113189 202.636575 
L 308.803697 116.338961 
L 309.700532 115.244884 
L 310.597368 125.806889 
L 312.39104 158.081694 
L 313.287875 152.302738 
L 314.184711 156.38747 
L 315.081547 151.725258 
L 315.978383 150.510368 
L 316.875218 155.755211 
L 317.772054 160.168505 
L 318.66889 172.281544 
L 319.565726 178.974362 
L 321.359397 194.366665 
L 322.256233 193.282358 
L 323.153069 176.955977 
L 324.049905 163.747111 
L 324.94674 145.830543 
L 325.843576 147.970727 
L 326.740412 138.364936 
L 327.637248 134.637537 
L 328.534083 124.553522 
L 329.430919 113.089447 
L 330.327755 112.205875 
L 331.224591 110.694623 
L 332.121426 107.066049 
L 333.915098 100.685924 
L 334.811934 105.186432 
L 335.708769 101.685637 
L 336.605605 92.003514 
L 337.502441 78.201194 
L 338.399277 66.276511 
L 339.296113 64.58269 
L 340.192948 67.628144 
L 341.089784 73.327809 
L 341.98662 77.26403 
L 342.883456 75.261716 
L 343.780291 79.111525 
L 344.677127 81.655436 
L 345.573963 85.122904 
L 346.470799 79.064106 
L 347.367634 74.941963 
L 349.161306 86.762796 
L 350.058142 95.635076 
L 351.851813 88.164692 
L 352.748649 92.840946 
L 353.645485 99.968794 
L 354.54232 110.029981 
L 355.439156 111.094499 
L 356.335992 109.20333 
L 357.232828 104.008455 
L 358.129663 95.073197 
L 359.026499 97.864476 
L 359.923335 103.386424 
L 360.820171 102.844951 
L 361.717007 96.327445 
L 362.613842 88.947281 
L 363.510678 92.625208 
L 364.407514 94.564279 
L 366.201185 77.192366 
L 367.098021 71.126556 
L 367.994857 73.071733 
L 368.891693 75.566037 
L 369.788528 100.238584 
L 370.685364 128.270663 
L 371.5822 143.947113 
L 372.479036 135.550875 
L 373.375871 123.63874 
L 374.272707 128.794082 
L 375.169543 135.576273 
L 376.066379 144.663764 
L 376.963214 151.415136 
L 377.86005 157.154311 
L 378.756886 160.934913 
L 379.653722 156.556162 
L 381.447393 169.778637 
L 382.344229 167.48808 
L 383.241065 157.706362 
L 384.137901 150.206299 
L 385.034736 151.011141 
L 385.931572 159.881834 
L 386.828408 160.732633 
L 387.725244 152.248872 
L 389.518915 108.389474 
L 390.415751 95.292605 
L 391.312587 90.579356 
L 392.209422 98.047324 
L 393.106258 96.271602 
L 394.003094 96.305268 
L 394.89993 88.066936 
L 395.796765 86.48862 
L 396.693601 78.34011 
L 397.590437 75.316987 
L 398.487273 74.50969 
L 398.487273 74.50969 
" style="fill:none;stroke:#ff6347;stroke-linecap:square;stroke-width:1.5;"/>
   </g>
   <g id="patch_3">
    <path d="M 57.6 307.584 
L 57.6 41.472 
" style="fill:none;stroke:#000000;stroke-linecap:square;stroke-linejoin:miter;stroke-width:0.8;"/>
   </g>
   <g id="patch_4">
    <path d="M 414.72 307.584 
L 414.72 41.472 
" style="fill:none;stroke:#000000;stroke-linecap:square;stroke-linejoin:miter;stroke-width:0.8;"/>
   </g>
   <g id="patch_5">
    <path d="M 57.6 307.584 
L 414.72 307.584 
" style="fill:none;stroke:#000000;stroke-linecap:square;stroke-linejoin:miter;stroke-width:0.8;"/>
   </g>
   <g id="patch_6">
    <path d="M 57.6 41.472 
L 414.72 41.472 
" style="fill:none;stroke:#000000;stroke-linecap:square;stroke-linejoin:miter;stroke-width:0.8;"/>
   </g>
   <g id="text_13">
    <!-- Data source: nomics -->
    <g transform="translate(184.91625 35.472)scale(0.1 -0.1)">
     <defs>
      <path d="M 19.671875 64.796875 
L 19.671875 8.109375 
L 31.59375 8.109375 
Q 46.6875 8.109375 53.6875 14.9375 
Q 60.6875 21.78125 60.6875 36.53125 
Q 60.6875 51.171875 53.6875 57.984375 
Q 46.6875 64.796875 31.59375 64.796875 
z
M 9.8125 72.90625 
L 30.078125 72.90625 
Q 51.265625 72.90625 61.171875 64.09375 
Q 71.09375 55.28125 71.09375 36.53125 
Q 71.09375 17.671875 61.125 8.828125 
Q 51.171875 0 30.078125 0 
L 9.8125 0 
z
" id="DejaVuSans-68"/>
      <path d="M 34.28125 27.484375 
Q 23.390625 27.484375 19.1875 25 
Q 14.984375 22.515625 14.984375 16.5 
Q 14.984375 11.71875 18.140625 8.90625 
Q 21.296875 6.109375 26.703125 6.109375 
Q 34.1875 6.109375 38.703125 11.40625 
Q 43.21875 16.703125 43.21875 25.484375 
L 43.21875 27.484375 
z
M 52.203125 31.203125 
L 52.203125 0 
L 43.21875 0 
L 43.21875 8.296875 
Q 40.140625 3.328125 35.546875 0.953125 
Q 30.953125 -1.421875 24.3125 -1.421875 
Q 15.921875 -1.421875 10.953125 3.296875 
Q 6 8.015625 6 15.921875 
Q 6 25.140625 12.171875 29.828125 
Q 18.359375 34.515625 30.609375 34.515625 
L 43.21875 34.515625 
L 43.21875 35.40625 
Q 43.21875 41.609375 39.140625 45 
Q 35.0625 48.390625 27.6875 48.390625 
Q 23 48.390625 18.546875 47.265625 
Q 14.109375 46.140625 10.015625 43.890625 
L 10.015625 52.203125 
Q 14.9375 54.109375 19.578125 55.046875 
Q 24.21875 56 28.609375 56 
Q 40.484375 56 46.34375 49.84375 
Q 52.203125 43.703125 52.203125 31.203125 
z
" id="DejaVuSans-97"/>
      <path d="M 18.3125 70.21875 
L 18.3125 54.6875 
L 36.8125 54.6875 
L 36.8125 47.703125 
L 18.3125 47.703125 
L 18.3125 18.015625 
Q 18.3125 11.328125 20.140625 9.421875 
Q 21.96875 7.515625 27.59375 7.515625 
L 36.8125 7.515625 
L 36.8125 0 
L 27.59375 0 
Q 17.1875 0 13.234375 3.875 
Q 9.28125 7.765625 9.28125 18.015625 
L 9.28125 47.703125 
L 2.6875 47.703125 
L 2.6875 54.6875 
L 9.28125 54.6875 
L 9.28125 70.21875 
z
" id="DejaVuSans-116"/>
      <path id="DejaVuSans-32"/>
      <path d="M 44.28125 53.078125 
L 44.28125 44.578125 
Q 40.484375 46.53125 36.375 47.5 
Q 32.28125 48.484375 27.875 48.484375 
Q 21.1875 48.484375 17.84375 46.4375 
Q 14.5 44.390625 14.5 40.28125 
Q 14.5 37.15625 16.890625 35.375 
Q 19.28125 33.59375 26.515625 31.984375 
L 29.59375 31.296875 
Q 39.15625 29.25 43.1875 25.515625 
Q 47.21875 21.78125 47.21875 15.09375 
Q 47.21875 7.46875 41.1875 3.015625 
Q 35.15625 -1.421875 24.609375 -1.421875 
Q 20.21875 -1.421875 15.453125 -0.5625 
Q 10.6875 0.296875 5.421875 2 
L 5.421875 11.28125 
Q 10.40625 8.6875 15.234375 7.390625 
Q 20.0625 6.109375 24.8125 6.109375 
Q 31.15625 6.109375 34.5625 8.28125 
Q 37.984375 10.453125 37.984375 14.40625 
Q 37.984375 18.0625 35.515625 20.015625 
Q 33.0625 21.96875 24.703125 23.78125 
L 21.578125 24.515625 
Q 13.234375 26.265625 9.515625 29.90625 
Q 5.8125 33.546875 5.8125 39.890625 
Q 5.8125 47.609375 11.28125 51.796875 
Q 16.75 56 26.8125 56 
Q 31.78125 56 36.171875 55.265625 
Q 40.578125 54.546875 44.28125 53.078125 
z
" id="DejaVuSans-115"/>
      <path d="M 30.609375 48.390625 
Q 23.390625 48.390625 19.1875 42.75 
Q 14.984375 37.109375 14.984375 27.296875 
Q 14.984375 17.484375 19.15625 11.84375 
Q 23.34375 6.203125 30.609375 6.203125 
Q 37.796875 6.203125 41.984375 11.859375 
Q 46.1875 17.53125 46.1875 27.296875 
Q 46.1875 37.015625 41.984375 42.703125 
Q 37.796875 48.390625 30.609375 48.390625 
z
M 30.609375 56 
Q 42.328125 56 49.015625 48.375 
Q 55.71875 40.765625 55.71875 27.296875 
Q 55.71875 13.875 49.015625 6.21875 
Q 42.328125 -1.421875 30.609375 -1.421875 
Q 18.84375 -1.421875 12.171875 6.21875 
Q 5.515625 13.875 5.515625 27.296875 
Q 5.515625 40.765625 12.171875 48.375 
Q 18.84375 56 30.609375 56 
z
" id="DejaVuSans-111"/>
      <path d="M 8.5 21.578125 
L 8.5 54.6875 
L 17.484375 54.6875 
L 17.484375 21.921875 
Q 17.484375 14.15625 20.5 10.265625 
Q 23.53125 6.390625 29.59375 6.390625 
Q 36.859375 6.390625 41.078125 11.03125 
Q 45.3125 15.671875 45.3125 23.6875 
L 45.3125 54.6875 
L 54.296875 54.6875 
L 54.296875 0 
L 45.3125 0 
L 45.3125 8.40625 
Q 42.046875 3.421875 37.71875 1 
Q 33.40625 -1.421875 27.6875 -1.421875 
Q 18.265625 -1.421875 13.375 4.4375 
Q 8.5 10.296875 8.5 21.578125 
z
M 31.109375 56 
z
" id="DejaVuSans-117"/>
      <path d="M 41.109375 46.296875 
Q 39.59375 47.171875 37.8125 47.578125 
Q 36.03125 48 33.890625 48 
Q 26.265625 48 22.1875 43.046875 
Q 18.109375 38.09375 18.109375 28.8125 
L 18.109375 0 
L 9.078125 0 
L 9.078125 54.6875 
L 18.109375 54.6875 
L 18.109375 46.1875 
Q 20.953125 51.171875 25.484375 53.578125 
Q 30.03125 56 36.53125 56 
Q 37.453125 56 38.578125 55.875 
Q 39.703125 55.765625 41.0625 55.515625 
z
" id="DejaVuSans-114"/>
      <path d="M 48.78125 52.59375 
L 48.78125 44.1875 
Q 44.96875 46.296875 41.140625 47.34375 
Q 37.3125 48.390625 33.40625 48.390625 
Q 24.65625 48.390625 19.8125 42.84375 
Q 14.984375 37.3125 14.984375 27.296875 
Q 14.984375 17.28125 19.8125 11.734375 
Q 24.65625 6.203125 33.40625 6.203125 
Q 37.3125 6.203125 41.140625 7.25 
Q 44.96875 8.296875 48.78125 10.40625 
L 48.78125 2.09375 
Q 45.015625 0.34375 40.984375 -0.53125 
Q 36.96875 -1.421875 32.421875 -1.421875 
Q 20.0625 -1.421875 12.78125 6.34375 
Q 5.515625 14.109375 5.515625 27.296875 
Q 5.515625 40.671875 12.859375 48.328125 
Q 20.21875 56 33.015625 56 
Q 37.15625 56 41.109375 55.140625 
Q 45.0625 54.296875 48.78125 52.59375 
z
" id="DejaVuSans-99"/>
      <path d="M 56.203125 29.59375 
L 56.203125 25.203125 
L 14.890625 25.203125 
Q 15.484375 15.921875 20.484375 11.0625 
Q 25.484375 6.203125 34.421875 6.203125 
Q 39.59375 6.203125 44.453125 7.46875 
Q 49.3125 8.734375 54.109375 11.28125 
L 54.109375 2.78125 
Q 49.265625 0.734375 44.1875 -0.34375 
Q 39.109375 -1.421875 33.890625 -1.421875 
Q 20.796875 -1.421875 13.15625 6.1875 
Q 5.515625 13.8125 5.515625 26.8125 
Q 5.515625 40.234375 12.765625 48.109375 
Q 20.015625 56 32.328125 56 
Q 43.359375 56 49.78125 48.890625 
Q 56.203125 41.796875 56.203125 29.59375 
z
M 47.21875 32.234375 
Q 47.125 39.59375 43.09375 43.984375 
Q 39.0625 48.390625 32.421875 48.390625 
Q 24.90625 48.390625 20.390625 44.140625 
Q 15.875 39.890625 15.1875 32.171875 
z
" id="DejaVuSans-101"/>
      <path d="M 11.71875 12.40625 
L 22.015625 12.40625 
L 22.015625 0 
L 11.71875 0 
z
M 11.71875 51.703125 
L 22.015625 51.703125 
L 22.015625 39.3125 
L 11.71875 39.3125 
z
" id="DejaVuSans-58"/>
      <path d="M 54.890625 33.015625 
L 54.890625 0 
L 45.90625 0 
L 45.90625 32.71875 
Q 45.90625 40.484375 42.875 44.328125 
Q 39.84375 48.1875 33.796875 48.1875 
Q 26.515625 48.1875 22.3125 43.546875 
Q 18.109375 38.921875 18.109375 30.90625 
L 18.109375 0 
L 9.078125 0 
L 9.078125 54.6875 
L 18.109375 54.6875 
L 18.109375 46.1875 
Q 21.34375 51.125 25.703125 53.5625 
Q 30.078125 56 35.796875 56 
Q 45.21875 56 50.046875 50.171875 
Q 54.890625 44.34375 54.890625 33.015625 
z
" id="DejaVuSans-110"/>
      <path d="M 52 44.1875 
Q 55.375 50.25 60.0625 53.125 
Q 64.75 56 71.09375 56 
Q 79.640625 56 84.28125 50.015625 
Q 88.921875 44.046875 88.921875 33.015625 
L 88.921875 0 
L 79.890625 0 
L 79.890625 32.71875 
Q 79.890625 40.578125 77.09375 44.375 
Q 74.3125 48.1875 68.609375 48.1875 
Q 61.625 48.1875 57.5625 43.546875 
Q 53.515625 38.921875 53.515625 30.90625 
L 53.515625 0 
L 44.484375 0 
L 44.484375 32.71875 
Q 44.484375 40.625 41.703125 44.40625 
Q 38.921875 48.1875 33.109375 48.1875 
Q 26.21875 48.1875 22.15625 43.53125 
Q 18.109375 38.875 18.109375 30.90625 
L 18.109375 0 
L 9.078125 0 
L 9.078125 54.6875 
L 18.109375 54.6875 
L 18.109375 46.1875 
Q 21.1875 51.21875 25.484375 53.609375 
Q 29.78125 56 35.6875 56 
Q 41.65625 56 45.828125 52.96875 
Q 50 49.953125 52 44.1875 
z
" id="DejaVuSans-109"/>
      <path d="M 9.421875 54.6875 
L 18.40625 54.6875 
L 18.40625 0 
L 9.421875 0 
z
M 9.421875 75.984375 
L 18.40625 75.984375 
L 18.40625 64.59375 
L 9.421875 64.59375 
z
" id="DejaVuSans-105"/>
     </defs>
     <use xlink:href="#DejaVuSans-68"/>
     <use x="77.001953" xlink:href="#DejaVuSans-97"/>
     <use x="138.28125" xlink:href="#DejaVuSans-116"/>
     <use x="177.490234" xlink:href="#DejaVuSans-97"/>
     <use x="238.769531" xlink:href="#DejaVuSans-32"/>
     <use x="270.556641" xlink:href="#DejaVuSans-115"/>
     <use x="322.65625" xlink:href="#DejaVuSans-111"/>
     <use x="383.837891" xlink:href="#DejaVuSans-117"/>
     <use x="447.216797" xlink:href="#DejaVuSans-114"/>
     <use x="486.080078" xlink:href="#DejaVuSans-99"/>
     <use x="541.060547" xlink:href="#DejaVuSans-101"/>
     <use x="602.583984" xlink:href="#DejaVuSans-58"/>
     <use x="636.275391" xlink:href="#DejaVuSans-32"/>
     <use x="668.0625" xlink:href="#DejaVuSans-110"/>
     <use x="731.441406" xlink:href="#DejaVuSans-111"/>
     <use x="792.623047" xlink:href="#DejaVuSans-109"/>
     <use x="890.035156" xlink:href="#DejaVuSans-105"/>
     <use x="917.818359" xlink:href="#DejaVuSans-99"/>
     <use x="972.798828" xlink:href="#DejaVuSans-115"/>
    </g>
   </g>
   <g id="legend_1">
    <g id="patch_7">
     <path d="M 359.473125 64.150125 
L 407.72 64.150125 
Q 409.72 64.150125 409.72 62.150125 
L 409.72 48.472 
Q 409.72 46.472 407.72 46.472 
L 359.473125 46.472 
Q 357.473125 46.472 357.473125 48.472 
L 357.473125 62.150125 
Q 357.473125 64.150125 359.473125 64.150125 
z
" style="fill:#ffffff;opacity:0.8;stroke:#cccccc;stroke-linejoin:miter;"/>
    </g>
    <g id="line2d_14">
     <path d="M 361.473125 54.570438 
L 381.473125 54.570438 
" style="fill:none;stroke:#ff6347;stroke-linecap:square;stroke-width:1.5;"/>
    </g>
    <g id="line2d_15"/>
    <g id="text_14">
     <!-- RSI -->
     <g transform="translate(389.473125 58.070438)scale(0.1 -0.1)">
      <defs>
       <path d="M 44.390625 34.1875 
Q 47.5625 33.109375 50.5625 29.59375 
Q 53.5625 26.078125 56.59375 19.921875 
L 66.609375 0 
L 56 0 
L 46.6875 18.703125 
Q 43.0625 26.03125 39.671875 28.421875 
Q 36.28125 30.8125 30.421875 30.8125 
L 19.671875 30.8125 
L 19.671875 0 
L 9.8125 0 
L 9.8125 72.90625 
L 32.078125 72.90625 
Q 44.578125 72.90625 50.734375 67.671875 
Q 56.890625 62.453125 56.890625 51.90625 
Q 56.890625 45.015625 53.6875 40.46875 
Q 50.484375 35.9375 44.390625 34.1875 
z
M 19.671875 64.796875 
L 19.671875 38.921875 
L 32.078125 38.921875 
Q 39.203125 38.921875 42.84375 42.21875 
Q 46.484375 45.515625 46.484375 51.90625 
Q 46.484375 58.296875 42.84375 61.546875 
Q 39.203125 64.796875 32.078125 64.796875 
z
" id="DejaVuSans-82"/>
       <path d="M 53.515625 70.515625 
L 53.515625 60.890625 
Q 47.90625 63.578125 42.921875 64.890625 
Q 37.9375 66.21875 33.296875 66.21875 
Q 25.25 66.21875 20.875 63.09375 
Q 16.5 59.96875 16.5 54.203125 
Q 16.5 49.359375 19.40625 46.890625 
Q 22.3125 44.4375 30.421875 42.921875 
L 36.375 41.703125 
Q 47.40625 39.59375 52.65625 34.296875 
Q 57.90625 29 57.90625 20.125 
Q 57.90625 9.515625 50.796875 4.046875 
Q 43.703125 -1.421875 29.984375 -1.421875 
Q 24.8125 -1.421875 18.96875 -0.25 
Q 13.140625 0.921875 6.890625 3.21875 
L 6.890625 13.375 
Q 12.890625 10.015625 18.65625 8.296875 
Q 24.421875 6.59375 29.984375 6.59375 
Q 38.421875 6.59375 43.015625 9.90625 
Q 47.609375 13.234375 47.609375 19.390625 
Q 47.609375 24.75 44.3125 27.78125 
Q 41.015625 30.8125 33.5 32.328125 
L 27.484375 33.5 
Q 16.453125 35.6875 11.515625 40.375 
Q 6.59375 45.0625 6.59375 53.421875 
Q 6.59375 63.09375 13.40625 68.65625 
Q 20.21875 74.21875 32.171875 74.21875 
Q 37.3125 74.21875 42.625 73.28125 
Q 47.953125 72.359375 53.515625 70.515625 
z
" id="DejaVuSans-83"/>
       <path d="M 9.8125 72.90625 
L 19.671875 72.90625 
L 19.671875 0 
L 9.8125 0 
z
" id="DejaVuSans-73"/>
      </defs>
      <use xlink:href="#DejaVuSans-82"/>
      <use x="69.482422" xlink:href="#DejaVuSans-83"/>
      <use x="132.958984" xlink:href="#DejaVuSans-73"/>
     </g>
    </g>
   </g>
  </g>
  <g id="text_15">
   <!-- RSI -->
   <g transform="translate(217.4025 19.0695)scale(0.16 -0.16)">
    <use xlink:href="#DejaVuSans-82"/>
    <use x="69.482422" xlink:href="#DejaVuSans-83"/>
    <use x="132.958984" xlink:href="#DejaVuSans-73"/>
   </g>
  </g>
 </g>
 <defs>
  <clipPath id="pc9ecb26aa0">
   <rect height="266.112" width="357.12" x="57.6" y="41.472"/>
  </clipPath>
 </defs>
</svg>
