<?xml version="1.0" encoding="utf-8" standalone="no"?>
<!DOCTYPE svg PUBLIC "-//W3C//DTD SVG 1.1//EN"
  "http://www.w3.org/Graphics/SVG/1.1/DTD/svg11.dtd">
<!-- Created with matplotlib (https://matplotlib.org/) -->
<svg height="345.6pt" version="1.1" viewBox="0 0 460.8 345.6" width="460.8pt" xmlns="http://www.w3.org/2000/svg" xmlns:xlink="http://www.w3.org/1999/xlink">
 <metadata>
  <rdf:RDF xmlns:cc="http://creativecommons.org/ns#" xmlns:dc="http://purl.org/dc/elements/1.1/" xmlns:rdf="http://www.w3.org/1999/02/22-rdf-syntax-ns#">
   <cc:Work>
    <dc:type rdf:resource="http://purl.org/dc/dcmitype/StillImage"/>
    <dc:date>2021-02-07T19:01:56.709160</dc:date>
    <dc:format>image/svg+xml</dc:format>
    <dc:creator>
     <cc:Agent>
      <dc:title>Matplotlib v3.3.2, https://matplotlib.org/</dc:title>
     </cc:Agent>
    </dc:creator>
   </cc:Work>
  </rdf:RDF>
 </metadata>
 <defs>
  <style type="text/css">*{stroke-linecap:butt;stroke-linejoin:round;}</style>
 </defs>
 <g id="figure_1">
  <g id="patch_1">
   <path d="M 0 345.6 
L 460.8 345.6 
L 460.8 0 
L 0 0 
z
" style="fill:#ffffff;"/>
  </g>
  <g id="axes_1">
   <g id="patch_2">
    <path d="M 57.6 307.584 
L 414.72 307.584 
L 414.72 41.472 
L 57.6 41.472 
z
" style="fill:#ffffff;"/>
   </g>
   <g id="PolyCollection_1">
    <defs>
     <path d="M 89.139021 -68.872645 
L 89.139021 -83.89039 
L 89.944615 -84.083177 
L 90.75021 -83.829393 
L 91.555804 -83.612005 
L 92.361399 -83.285211 
L 93.166993 -82.730601 
L 93.972587 -82.5891 
L 94.778182 -82.8914 
L 95.583776 -83.742248 
L 96.389371 -84.083008 
L 97.194965 -84.865853 
L 98.000559 -85.141168 
L 98.806154 -85.459372 
L 99.611748 -85.538681 
L 100.417343 -85.821974 
L 101.222937 -85.982772 
L 102.028531 -86.576763 
L 102.834126 -87.277987 
L 103.63972 -87.973588 
L 104.445315 -88.663 
L 105.250909 -89.570256 
L 106.056503 -90.011171 
L 106.862098 -90.789506 
L 107.667692 -91.358537 
L 108.473287 -91.617369 
L 109.278881 -91.66866 
L 110.084476 -91.346315 
L 110.89007 -91.181642 
L 111.695664 -91.172869 
L 112.501259 -91.385317 
L 113.306853 -91.37051 
L 114.112448 -91.286019 
L 114.918042 -91.207405 
L 115.723636 -91.08369 
L 116.529231 -90.955753 
L 117.334825 -90.558015 
L 118.14042 -90.777355 
L 118.946014 -91.603602 
L 119.751608 -92.113336 
L 120.557203 -92.516909 
L 121.362797 -92.708107 
L 122.168392 -92.920239 
L 122.973986 -92.483205 
L 123.77958 -91.895692 
L 124.585175 -91.304652 
L 125.390769 -90.383293 
L 126.196364 -89.935777 
L 127.001958 -89.40225 
L 127.807552 -89.493149 
L 128.613147 -88.85376 
L 129.418741 -88.739015 
L 130.224336 -88.424487 
L 131.02993 -92.324003 
L 131.835524 -93.045613 
L 132.641119 -93.295322 
L 133.446713 -93.092886 
L 134.252308 -93.041128 
L 135.057902 -92.817681 
L 135.863497 -92.301802 
L 136.669091 -91.442089 
L 137.474685 -90.598694 
L 138.28028 -89.64714 
L 139.085874 -88.213953 
L 139.891469 -86.778316 
L 140.697063 -85.249369 
L 141.502657 -83.144291 
L 142.308252 -80.622658 
L 143.113846 -77.959268 
L 143.919441 -76.365824 
L 144.725035 -74.624803 
L 145.530629 -72.82098 
L 146.336224 -70.576578 
L 147.141818 -70.64732 
L 147.947413 -71.190114 
L 148.753007 -71.345638 
L 149.558601 -71.595643 
L 150.364196 -71.20907 
L 151.16979 -71.656171 
L 151.975385 -71.658356 
L 152.780979 -72.417798 
L 153.586573 -72.94074 
L 154.392168 -73.015897 
L 155.197762 -72.744096 
L 156.003357 -72.838936 
L 156.808951 -72.878987 
L 157.614545 -72.937204 
L 158.42014 -72.925181 
L 159.225734 -73.088595 
L 160.031329 -73.070048 
L 160.836923 -72.616068 
L 161.642517 -72.561961 
L 162.448112 -72.313571 
L 163.253706 -72.24735 
L 164.059301 -72.326733 
L 164.864895 -72.759592 
L 165.67049 -73.172762 
L 166.476084 -73.548949 
L 167.281678 -74.01373 
L 168.087273 -74.630426 
L 168.892867 -75.047154 
L 169.698462 -77.354011 
L 170.504056 -78.85385 
L 171.30965 -80.405277 
L 172.115245 -81.939616 
L 172.920839 -83.104589 
L 173.726434 -84.034136 
L 174.532028 -84.837082 
L 175.337622 -85.836158 
L 176.143217 -87.76171 
L 176.948811 -89.161543 
L 177.754406 -89.991027 
L 178.56 -89.784353 
L 179.365594 -89.327174 
L 180.171189 -89.013581 
L 180.976783 -89.141776 
L 181.782378 -89.564995 
L 182.587972 -89.345159 
L 183.393566 -89.113043 
L 184.199161 -88.966637 
L 185.004755 -88.467938 
L 185.81035 -88.847489 
L 186.615944 -88.852295 
L 187.421538 -88.796915 
L 188.227133 -88.788189 
L 189.032727 -88.757092 
L 189.838322 -88.845877 
L 190.643916 -88.878479 
L 191.44951 -88.932392 
L 192.255105 -88.289568 
L 193.060699 -88.028144 
L 193.866294 -87.909879 
L 194.671888 -88.140047 
L 195.477483 -87.959812 
L 196.283077 -88.758042 
L 197.088671 -88.838251 
L 197.894266 -88.728838 
L 198.69986 -88.98617 
L 199.505455 -89.101574 
L 200.311049 -89.114605 
L 201.116643 -89.154729 
L 201.922238 -89.158505 
L 202.727832 -89.33257 
L 203.533427 -89.592172 
L 204.339021 -89.576759 
L 205.144615 -89.577904 
L 205.95021 -89.203571 
L 206.755804 -88.927116 
L 207.561399 -88.426207 
L 208.366993 -88.296465 
L 209.172587 -88.296727 
L 209.978182 -88.304498 
L 210.783776 -88.301073 
L 211.589371 -88.319819 
L 212.394965 -87.552592 
L 213.200559 -87.618903 
L 214.006154 -87.588945 
L 214.811748 -87.43094 
L 215.617343 -87.403335 
L 216.422937 -87.358554 
L 217.228531 -87.307832 
L 218.034126 -87.062181 
L 218.83972 -86.725429 
L 219.645315 -86.108054 
L 220.450909 -86.107813 
L 221.256503 -86.04936 
L 222.062098 -85.980524 
L 222.867692 -85.959159 
L 223.673287 -85.891034 
L 224.478881 -85.708144 
L 225.284476 -85.570039 
L 226.09007 -85.599381 
L 226.895664 -85.57492 
L 227.701259 -85.532903 
L 228.506853 -85.513621 
L 229.312448 -85.017977 
L 230.118042 -84.482743 
L 230.923636 -84.433331 
L 231.729231 -84.407594 
L 232.534825 -84.407262 
L 233.34042 -84.337734 
L 234.146014 -84.330716 
L 234.951608 -84.336559 
L 235.757203 -84.334274 
L 236.562797 -84.470141 
L 237.368392 -84.830064 
L 238.173986 -85.22803 
L 238.97958 -85.466662 
L 239.785175 -85.901282 
L 240.590769 -86.699068 
L 241.396364 -89.824485 
L 242.201958 -91.694661 
L 243.007552 -93.497198 
L 243.813147 -94.977455 
L 244.618741 -96.646945 
L 245.424336 -98.719339 
L 246.22993 -99.502561 
L 247.035524 -100.358509 
L 247.841119 -100.99827 
L 248.646713 -102.060911 
L 249.452308 -102.950478 
L 250.257902 -103.475645 
L 251.063497 -103.955932 
L 251.869091 -104.07347 
L 252.674685 -104.314287 
L 253.48028 -104.048487 
L 254.285874 -103.723855 
L 255.091469 -103.130324 
L 255.897063 -102.257051 
L 256.702657 -101.160413 
L 257.508252 -101.340498 
L 258.313846 -101.854775 
L 259.119441 -101.942511 
L 259.925035 -101.8441 
L 260.730629 -101.918465 
L 261.536224 -101.844961 
L 262.341818 -101.538397 
L 263.147413 -101.353178 
L 263.953007 -101.01723 
L 264.758601 -101.19401 
L 265.564196 -101.212937 
L 266.36979 -101.324004 
L 267.175385 -101.293859 
L 267.980979 -101.292226 
L 268.786573 -101.17434 
L 269.592168 -101.143067 
L 270.397762 -101.303805 
L 271.203357 -101.295621 
L 272.008951 -102.912747 
L 272.814545 -103.321776 
L 273.62014 -103.78689 
L 274.425734 -103.487076 
L 275.231329 -103.286435 
L 276.036923 -103.251503 
L 276.842517 -102.945931 
L 277.648112 -102.736939 
L 278.453706 -102.337434 
L 279.259301 -101.871722 
L 280.064895 -101.23122 
L 280.87049 -100.92799 
L 281.676084 -100.511119 
L 282.481678 -100.252004 
L 283.287273 -99.799132 
L 284.092867 -99.345614 
L 284.898462 -98.643027 
L 285.704056 -97.815023 
L 286.50965 -96.049685 
L 287.315245 -95.05919 
L 288.120839 -95.042422 
L 288.926434 -95.15287 
L 289.732028 -95.170756 
L 290.537622 -95.220567 
L 291.343217 -95.312037 
L 292.148811 -95.193562 
L 292.954406 -95.171579 
L 293.76 -95.158972 
L 294.565594 -95.100764 
L 295.371189 -95.062074 
L 296.176783 -94.940729 
L 296.982378 -94.94171 
L 297.787972 -94.934844 
L 298.593566 -94.750116 
L 299.399161 -94.578393 
L 300.204755 -94.561418 
L 301.01035 -94.484405 
L 301.815944 -95.082353 
L 302.621538 -95.804663 
L 303.427133 -96.696985 
L 304.232727 -97.0884 
L 305.038322 -97.573131 
L 305.843916 -98.113136 
L 306.64951 -98.374261 
L 307.455105 -98.645856 
L 308.260699 -99.008601 
L 309.066294 -99.622296 
L 309.871888 -100.368295 
L 310.677483 -102.454957 
L 311.483077 -104.400142 
L 312.288671 -105.805538 
L 313.094266 -107.282083 
L 313.89986 -108.409661 
L 314.705455 -109.282751 
L 315.511049 -110.759815 
L 316.316643 -111.570211 
L 317.122238 -112.454325 
L 317.927832 -113.372425 
L 318.733427 -114.41053 
L 319.539021 -115.275536 
L 320.344615 -115.725516 
L 321.15021 -116.410443 
L 321.955804 -117.125258 
L 322.761399 -119.500302 
L 323.566993 -121.322735 
L 324.372587 -121.732774 
L 325.178182 -122.81022 
L 325.983776 -123.466059 
L 326.789371 -124.381848 
L 327.594965 -125.67219 
L 328.400559 -127.455424 
L 329.206154 -128.999583 
L 330.011748 -129.912877 
L 330.817343 -130.468206 
L 331.622937 -131.965834 
L 332.428531 -134.329235 
L 333.234126 -136.463168 
L 334.03972 -138.221273 
L 334.845315 -140.917076 
L 335.650909 -142.992198 
L 336.456503 -144.014319 
L 337.262098 -144.85989 
L 338.067692 -146.287572 
L 338.873287 -147.661333 
L 339.678881 -147.704918 
L 340.484476 -147.184735 
L 341.29007 -147.187849 
L 342.095664 -147.216356 
L 342.901259 -148.526019 
L 343.706853 -148.668255 
L 344.512448 -149.414765 
L 345.318042 -150.127824 
L 346.123636 -149.672021 
L 346.929231 -148.988546 
L 347.734825 -148.968392 
L 348.54042 -149.302216 
L 349.346014 -149.216666 
L 350.151608 -149.160223 
L 350.957203 -149.095993 
L 351.762797 -149.040834 
L 352.568392 -149.177611 
L 353.373986 -149.513567 
L 354.17958 -149.650082 
L 354.985175 -150.115737 
L 355.790769 -152.912558 
L 356.596364 -157.986799 
L 357.401958 -162.728776 
L 358.207552 -167.814595 
L 359.013147 -171.474946 
L 359.818741 -173.701026 
L 360.624336 -177.064993 
L 361.42993 -179.298619 
L 362.235524 -181.651391 
L 363.041119 -184.862622 
L 363.846713 -190.037994 
L 364.652308 -194.128666 
L 365.457902 -198.220284 
L 366.263497 -201.93892 
L 367.069091 -206.591807 
L 367.874685 -210.108711 
L 368.68028 -213.562653 
L 369.485874 -220.307692 
L 370.291469 -226.819646 
L 371.097063 -230.278793 
L 371.902657 -236.690196 
L 372.708252 -246.738497 
L 373.513846 -259.752841 
L 374.319441 -272.43985 
L 375.125035 -281.937505 
L 375.930629 -286.818451 
L 376.736224 -288.606627 
L 377.541818 -288.33636 
L 378.347413 -289.322765 
L 379.153007 -291.62799 
L 379.958601 -292.032 
L 380.764196 -290.885292 
L 381.56979 -289.322422 
L 382.375385 -287.354535 
L 383.180979 -285.490708 
L 383.986573 -282.701384 
L 384.792168 -281.001421 
L 385.597762 -280.616859 
L 386.403357 -281.103381 
L 387.208951 -280.970106 
L 388.014545 -281.567389 
L 388.82014 -281.465134 
L 389.625734 -279.648409 
L 390.431329 -274.052028 
L 391.236923 -268.392226 
L 392.042517 -265.179979 
L 392.848112 -264.379703 
L 393.653706 -264.146403 
L 394.459301 -262.553267 
L 395.264895 -259.826673 
L 396.07049 -259.903107 
L 396.876084 -262.00703 
L 397.681678 -265.985264 
L 398.487273 -268.443298 
L 398.487273 -206.317469 
L 398.487273 -206.317469 
L 397.681678 -207.476397 
L 396.876084 -209.454968 
L 396.07049 -210.465833 
L 395.264895 -210.503489 
L 394.459301 -208.842601 
L 393.653706 -208.334058 
L 392.848112 -208.750333 
L 392.042517 -209.545632 
L 391.236923 -208.872513 
L 390.431329 -206.962791 
L 389.625734 -205.925068 
L 388.82014 -209.695141 
L 388.014545 -212.196486 
L 387.208951 -213.828142 
L 386.403357 -213.560723 
L 385.597762 -214.616516 
L 384.792168 -213.794423 
L 383.986573 -211.068642 
L 383.180979 -204.291889 
L 382.375385 -198.076444 
L 381.56979 -190.474817 
L 380.764196 -183.568862 
L 379.958601 -176.455312 
L 379.153007 -170.488373 
L 378.347413 -163.979308 
L 377.541818 -156.771253 
L 376.736224 -149.645863 
L 375.930629 -144.220189 
L 375.125035 -139.585785 
L 374.319441 -138.798108 
L 373.513846 -141.070804 
L 372.708252 -144.002026 
L 371.902657 -145.503718 
L 371.097063 -144.147007 
L 370.291469 -139.888409 
L 369.485874 -137.982252 
L 368.68028 -136.771452 
L 367.874685 -133.776468 
L 367.069091 -130.604519 
L 366.263497 -128.772924 
L 365.457902 -127.119987 
L 364.652308 -125.86968 
L 363.846713 -125.625124 
L 363.041119 -126.488223 
L 362.235524 -126.323715 
L 361.42993 -125.587384 
L 360.624336 -125.456005 
L 359.818741 -125.973045 
L 359.013147 -125.759604 
L 358.207552 -127.071293 
L 357.401958 -128.721161 
L 356.596364 -130.171451 
L 355.790769 -131.815339 
L 354.985175 -132.092876 
L 354.17958 -132.132438 
L 353.373986 -132.16296 
L 352.568392 -132.027504 
L 351.762797 -131.908036 
L 350.957203 -132.224033 
L 350.151608 -132.420698 
L 349.346014 -131.905682 
L 348.54042 -131.48197 
L 347.734825 -130.879458 
L 346.929231 -129.221389 
L 346.123636 -126.586793 
L 345.318042 -124.537056 
L 344.512448 -123.35214 
L 343.706853 -122.313193 
L 342.901259 -120.592854 
L 342.095664 -119.239526 
L 341.29007 -117.544886 
L 340.484476 -116.165223 
L 339.678881 -114.229126 
L 338.873287 -113.288056 
L 338.067692 -112.721487 
L 337.262098 -111.138975 
L 336.456503 -109.303392 
L 335.650909 -107.374046 
L 334.845315 -106.45779 
L 334.03972 -106.182541 
L 333.234126 -105.344164 
L 332.428531 -104.845161 
L 331.622937 -104.541794 
L 330.817343 -104.186118 
L 330.011748 -102.977783 
L 329.206154 -102.032598 
L 328.400559 -101.628055 
L 327.594965 -101.35311 
L 326.789371 -100.977786 
L 325.983776 -100.351085 
L 325.178182 -98.897222 
L 324.372587 -97.69644 
L 323.566993 -96.080051 
L 322.761399 -95.33572 
L 321.955804 -95.135047 
L 321.15021 -94.236342 
L 320.344615 -93.357586 
L 319.539021 -92.511134 
L 318.733427 -92.012835 
L 317.927832 -91.567764 
L 317.122238 -91.094395 
L 316.316643 -90.49116 
L 315.511049 -89.85686 
L 314.705455 -89.502343 
L 313.89986 -88.876332 
L 313.094266 -88.625176 
L 312.288671 -88.613112 
L 311.483077 -88.577148 
L 310.677483 -89.054533 
L 309.871888 -89.82045 
L 309.066294 -89.872667 
L 308.260699 -89.929071 
L 307.455105 -89.786019 
L 306.64951 -89.69281 
L 305.843916 -89.58702 
L 305.038322 -89.625865 
L 304.232727 -89.689181 
L 303.427133 -89.351715 
L 302.621538 -89.644471 
L 301.815944 -89.797026 
L 301.01035 -90.171845 
L 300.204755 -90.123719 
L 299.399161 -90.11581 
L 298.593566 -90.106948 
L 297.787972 -90.127009 
L 296.982378 -90.128609 
L 296.176783 -90.125057 
L 295.371189 -89.869257 
L 294.565594 -89.747866 
L 293.76 -89.550272 
L 292.954406 -89.278036 
L 292.148811 -88.887231 
L 291.343217 -88.436772 
L 290.537622 -88.292795 
L 289.732028 -88.065364 
L 288.926434 -87.768922 
L 288.120839 -87.725522 
L 287.315245 -87.680082 
L 286.50965 -87.221761 
L 285.704056 -86.36677 
L 284.898462 -85.990941 
L 284.092867 -85.668305 
L 283.287273 -85.544726 
L 282.481678 -85.438917 
L 281.676084 -85.410882 
L 280.87049 -85.401279 
L 280.064895 -85.501066 
L 279.259301 -85.726501 
L 278.453706 -85.996267 
L 277.648112 -86.37828 
L 276.842517 -86.903372 
L 276.036923 -87.591862 
L 275.231329 -88.564644 
L 274.425734 -89.307903 
L 273.62014 -90.227658 
L 272.814545 -91.742601 
L 272.008951 -92.988065 
L 271.203357 -95.556043 
L 270.397762 -95.763356 
L 269.592168 -95.701932 
L 268.786573 -95.509211 
L 267.980979 -95.505126 
L 267.175385 -95.629068 
L 266.36979 -95.761112 
L 265.564196 -96.048135 
L 264.758601 -96.258383 
L 263.953007 -96.680187 
L 263.147413 -95.995639 
L 262.341818 -95.562428 
L 261.536224 -94.880093 
L 260.730629 -94.961641 
L 259.925035 -94.743742 
L 259.119441 -94.218846 
L 258.313846 -93.795109 
L 257.508252 -93.488542 
L 256.702657 -93.117953 
L 255.897063 -90.848101 
L 255.091469 -88.719597 
L 254.285874 -86.758942 
L 253.48028 -85.235896 
L 252.674685 -83.825806 
L 251.869091 -82.527041 
L 251.063497 -81.10139 
L 250.257902 -80.018393 
L 249.452308 -79.044647 
L 248.646713 -78.333357 
L 247.841119 -77.814252 
L 247.035524 -77.234816 
L 246.22993 -76.866362 
L 245.424336 -76.536456 
L 244.618741 -77.075265 
L 243.813147 -77.436509 
L 243.007552 -77.811536 
L 242.201958 -78.485349 
L 241.396364 -79.434897 
L 240.590769 -81.498752 
L 239.785175 -81.929905 
L 238.97958 -81.981725 
L 238.173986 -81.975438 
L 237.368392 -82.043838 
L 236.562797 -82.138844 
L 235.757203 -82.185432 
L 234.951608 -82.171098 
L 234.146014 -82.161061 
L 233.34042 -82.120453 
L 232.534825 -81.965491 
L 231.729231 -81.97817 
L 230.923636 -81.988727 
L 230.118042 -81.979435 
L 229.312448 -81.672785 
L 228.506853 -81.401164 
L 227.701259 -81.413554 
L 226.895664 -81.415357 
L 226.09007 -81.42729 
L 225.284476 -81.436424 
L 224.478881 -81.418521 
L 223.673287 -81.359406 
L 222.867692 -81.496884 
L 222.062098 -81.595822 
L 221.256503 -81.77542 
L 220.450909 -81.947947 
L 219.645315 -81.982108 
L 218.83972 -81.814729 
L 218.034126 -81.835667 
L 217.228531 -81.988761 
L 216.422937 -82.384827 
L 215.617343 -82.651627 
L 214.811748 -82.855838 
L 214.006154 -82.982459 
L 213.200559 -82.982032 
L 212.394965 -82.967953 
L 211.589371 -82.750327 
L 210.783776 -82.820075 
L 209.978182 -83.045171 
L 209.172587 -83.068224 
L 208.366993 -83.126615 
L 207.561399 -82.791242 
L 206.755804 -81.926147 
L 205.95021 -81.380177 
L 205.144615 -80.543876 
L 204.339021 -80.358224 
L 203.533427 -80.272041 
L 202.727832 -80.034226 
L 201.922238 -80.04316 
L 201.116643 -80.044347 
L 200.311049 -80.054166 
L 199.505455 -80.056141 
L 198.69986 -80.0136 
L 197.894266 -79.984029 
L 197.088671 -79.949672 
L 196.283077 -79.894989 
L 195.477483 -79.852365 
L 194.671888 -79.150963 
L 193.866294 -78.812585 
L 193.060699 -78.790314 
L 192.255105 -78.68265 
L 191.44951 -78.521598 
L 190.643916 -78.788037 
L 189.838322 -78.905295 
L 189.032727 -79.098963 
L 188.227133 -78.916655 
L 187.421538 -78.796702 
L 186.615944 -78.59587 
L 185.81035 -78.067947 
L 185.004755 -77.839418 
L 184.199161 -76.155864 
L 183.393566 -74.863864 
L 182.587972 -73.61172 
L 181.782378 -72.316277 
L 180.976783 -71.342572 
L 180.171189 -70.352551 
L 179.365594 -69.014664 
L 178.56 -67.503746 
L 177.754406 -66.133892 
L 176.948811 -65.473794 
L 176.143217 -65.314956 
L 175.337622 -65.434053 
L 174.532028 -65.176413 
L 173.726434 -64.519978 
L 172.920839 -64.216144 
L 172.115245 -64.120149 
L 171.30965 -64.389099 
L 170.504056 -64.761482 
L 169.698462 -65.192303 
L 168.892867 -66.590482 
L 168.087273 -66.768845 
L 167.281678 -67.019843 
L 166.476084 -67.258319 
L 165.67049 -67.16545 
L 164.864895 -67.192461 
L 164.059301 -67.174544 
L 163.253706 -67.053685 
L 162.448112 -66.865156 
L 161.642517 -66.355304 
L 160.836923 -65.866403 
L 160.031329 -64.577904 
L 159.225734 -64.089747 
L 158.42014 -63.800315 
L 157.614545 -63.83732 
L 156.808951 -63.782871 
L 156.003357 -63.757765 
L 155.197762 -63.587464 
L 154.392168 -62.666037 
L 153.586573 -62.328324 
L 152.780979 -62.190581 
L 151.975385 -62.255744 
L 151.16979 -61.186221 
L 150.364196 -60.438364 
L 149.558601 -59.005405 
L 148.753007 -58.348913 
L 147.947413 -57.578743 
L 147.141818 -57.434179 
L 146.336224 -56.43971 
L 145.530629 -55.133023 
L 144.725035 -54.248796 
L 143.919441 -53.765976 
L 143.113846 -53.2668 
L 142.308252 -52.155887 
L 141.502657 -51.1096 
L 140.697063 -50.45147 
L 139.891469 -50.158037 
L 139.085874 -50.112 
L 138.28028 -50.55996 
L 137.474685 -51.035567 
L 136.669091 -51.620285 
L 135.863497 -52.267303 
L 135.057902 -53.811694 
L 134.252308 -55.676719 
L 133.446713 -58.219205 
L 132.641119 -60.628823 
L 131.835524 -63.764657 
L 131.02993 -66.913262 
L 130.224336 -73.71901 
L 129.418741 -74.420905 
L 128.613147 -75.334536 
L 127.807552 -76.052781 
L 127.001958 -77.152545 
L 126.196364 -77.234918 
L 125.390769 -77.249967 
L 124.585175 -77.110774 
L 123.77958 -77.402578 
L 122.973986 -77.772674 
L 122.168392 -78.142761 
L 121.362797 -79.155956 
L 120.557203 -80.323142 
L 119.751608 -81.450767 
L 118.946014 -82.572324 
L 118.14042 -83.977093 
L 117.334825 -84.374403 
L 116.529231 -83.67594 
L 115.723636 -83.13726 
L 114.918042 -82.805996 
L 114.112448 -82.531318 
L 113.306853 -82.26251 
L 112.501259 -82.168801 
L 111.695664 -81.834445 
L 110.89007 -81.618716 
L 110.084476 -80.820612 
L 109.278881 -79.702181 
L 108.473287 -78.532399 
L 107.667692 -77.700903 
L 106.862098 -77.091903 
L 106.056503 -76.900411 
L 105.250909 -76.650708 
L 104.445315 -76.63321 
L 103.63972 -76.592364 
L 102.834126 -76.728614 
L 102.028531 -76.901964 
L 101.222937 -76.94634 
L 100.417343 -76.871533 
L 99.611748 -76.848825 
L 98.806154 -76.183101 
L 98.000559 -75.772753 
L 97.194965 -75.247409 
L 96.389371 -75.23045 
L 95.583776 -74.67451 
L 94.778182 -74.707694 
L 93.972587 -74.563207 
L 93.166993 -73.904109 
L 92.361399 -72.747043 
L 91.555804 -71.758519 
L 90.75021 -70.895373 
L 89.944615 -69.614075 
L 89.139021 -68.872645 
z
" id="md41112565a" style="stroke:#4b0082;stroke-opacity:0.3;"/>
    </defs>
    <g clip-path="url(#p7cd964b841)">
     <use style="fill:#4b0082;fill-opacity:0.3;stroke:#4b0082;stroke-opacity:0.3;" x="0" xlink:href="#md41112565a" y="345.6"/>
    </g>
   </g>
   <g id="matplotlib.axis_1">
    <g id="xtick_1">
     <g id="line2d_1">
      <defs>
       <path d="M 0 0 
L 0 3.5 
" id="mb691bb9e89" style="stroke:#000000;stroke-width:0.8;"/>
      </defs>
      <g>
       <use style="stroke:#000000;stroke-width:0.8;" x="73.832727" xlink:href="#mb691bb9e89" y="307.584"/>
      </g>
     </g>
     <g id="text_1">
      <!-- 2020-01 -->
      <g transform="translate(52.941321 322.182437)scale(0.1 -0.1)">
       <defs>
        <path d="M 19.1875 8.296875 
L 53.609375 8.296875 
L 53.609375 0 
L 7.328125 0 
L 7.328125 8.296875 
Q 12.9375 14.109375 22.625 23.890625 
Q 32.328125 33.6875 34.8125 36.53125 
Q 39.546875 41.84375 41.421875 45.53125 
Q 43.3125 49.21875 43.3125 52.78125 
Q 43.3125 58.59375 39.234375 62.25 
Q 35.15625 65.921875 28.609375 65.921875 
Q 23.96875 65.921875 18.8125 64.3125 
Q 13.671875 62.703125 7.8125 59.421875 
L 7.8125 69.390625 
Q 13.765625 71.78125 18.9375 73 
Q 24.125 74.21875 28.421875 74.21875 
Q 39.75 74.21875 46.484375 68.546875 
Q 53.21875 62.890625 53.21875 53.421875 
Q 53.21875 48.921875 51.53125 44.890625 
Q 49.859375 40.875 45.40625 35.40625 
Q 44.1875 33.984375 37.640625 27.21875 
Q 31.109375 20.453125 19.1875 8.296875 
z
" id="DejaVuSans-50"/>
        <path d="M 31.78125 66.40625 
Q 24.171875 66.40625 20.328125 58.90625 
Q 16.5 51.421875 16.5 36.375 
Q 16.5 21.390625 20.328125 13.890625 
Q 24.171875 6.390625 31.78125 6.390625 
Q 39.453125 6.390625 43.28125 13.890625 
Q 47.125 21.390625 47.125 36.375 
Q 47.125 51.421875 43.28125 58.90625 
Q 39.453125 66.40625 31.78125 66.40625 
z
M 31.78125 74.21875 
Q 44.046875 74.21875 50.515625 64.515625 
Q 56.984375 54.828125 56.984375 36.375 
Q 56.984375 17.96875 50.515625 8.265625 
Q 44.046875 -1.421875 31.78125 -1.421875 
Q 19.53125 -1.421875 13.0625 8.265625 
Q 6.59375 17.96875 6.59375 36.375 
Q 6.59375 54.828125 13.0625 64.515625 
Q 19.53125 74.21875 31.78125 74.21875 
z
" id="DejaVuSans-48"/>
        <path d="M 4.890625 31.390625 
L 31.203125 31.390625 
L 31.203125 23.390625 
L 4.890625 23.390625 
z
" id="DejaVuSans-45"/>
        <path d="M 12.40625 8.296875 
L 28.515625 8.296875 
L 28.515625 63.921875 
L 10.984375 60.40625 
L 10.984375 69.390625 
L 28.421875 72.90625 
L 38.28125 72.90625 
L 38.28125 8.296875 
L 54.390625 8.296875 
L 54.390625 0 
L 12.40625 0 
z
" id="DejaVuSans-49"/>
       </defs>
       <use xlink:href="#DejaVuSans-50"/>
       <use x="63.623047" xlink:href="#DejaVuSans-48"/>
       <use x="127.246094" xlink:href="#DejaVuSans-50"/>
       <use x="190.869141" xlink:href="#DejaVuSans-48"/>
       <use x="254.492188" xlink:href="#DejaVuSans-45"/>
       <use x="290.576172" xlink:href="#DejaVuSans-48"/>
       <use x="354.199219" xlink:href="#DejaVuSans-49"/>
      </g>
     </g>
    </g>
    <g id="xtick_2">
     <g id="line2d_2">
      <g>
       <use style="stroke:#000000;stroke-width:0.8;" x="122.168392" xlink:href="#mb691bb9e89" y="307.584"/>
      </g>
     </g>
     <g id="text_2">
      <!-- 2020-03 -->
      <g transform="translate(101.276985 322.182437)scale(0.1 -0.1)">
       <defs>
        <path d="M 40.578125 39.3125 
Q 47.65625 37.796875 51.625 33 
Q 55.609375 28.21875 55.609375 21.1875 
Q 55.609375 10.40625 48.1875 4.484375 
Q 40.765625 -1.421875 27.09375 -1.421875 
Q 22.515625 -1.421875 17.65625 -0.515625 
Q 12.796875 0.390625 7.625 2.203125 
L 7.625 11.71875 
Q 11.71875 9.328125 16.59375 8.109375 
Q 21.484375 6.890625 26.8125 6.890625 
Q 36.078125 6.890625 40.9375 10.546875 
Q 45.796875 14.203125 45.796875 21.1875 
Q 45.796875 27.640625 41.28125 31.265625 
Q 36.765625 34.90625 28.71875 34.90625 
L 20.21875 34.90625 
L 20.21875 43.015625 
L 29.109375 43.015625 
Q 36.375 43.015625 40.234375 45.921875 
Q 44.09375 48.828125 44.09375 54.296875 
Q 44.09375 59.90625 40.109375 62.90625 
Q 36.140625 65.921875 28.71875 65.921875 
Q 24.65625 65.921875 20.015625 65.03125 
Q 15.375 64.15625 9.8125 62.3125 
L 9.8125 71.09375 
Q 15.4375 72.65625 20.34375 73.4375 
Q 25.25 74.21875 29.59375 74.21875 
Q 40.828125 74.21875 47.359375 69.109375 
Q 53.90625 64.015625 53.90625 55.328125 
Q 53.90625 49.265625 50.4375 45.09375 
Q 46.96875 40.921875 40.578125 39.3125 
z
" id="DejaVuSans-51"/>
       </defs>
       <use xlink:href="#DejaVuSans-50"/>
       <use x="63.623047" xlink:href="#DejaVuSans-48"/>
       <use x="127.246094" xlink:href="#DejaVuSans-50"/>
       <use x="190.869141" xlink:href="#DejaVuSans-48"/>
       <use x="254.492188" xlink:href="#DejaVuSans-45"/>
       <use x="290.576172" xlink:href="#DejaVuSans-48"/>
       <use x="354.199219" xlink:href="#DejaVuSans-51"/>
      </g>
     </g>
    </g>
    <g id="xtick_3">
     <g id="line2d_3">
      <g>
       <use style="stroke:#000000;stroke-width:0.8;" x="171.30965" xlink:href="#mb691bb9e89" y="307.584"/>
      </g>
     </g>
     <g id="text_3">
      <!-- 2020-05 -->
      <g transform="translate(150.418244 322.182437)scale(0.1 -0.1)">
       <defs>
        <path d="M 10.796875 72.90625 
L 49.515625 72.90625 
L 49.515625 64.59375 
L 19.828125 64.59375 
L 19.828125 46.734375 
Q 21.96875 47.46875 24.109375 47.828125 
Q 26.265625 48.1875 28.421875 48.1875 
Q 40.625 48.1875 47.75 41.5 
Q 54.890625 34.8125 54.890625 23.390625 
Q 54.890625 11.625 47.5625 5.09375 
Q 40.234375 -1.421875 26.90625 -1.421875 
Q 22.3125 -1.421875 17.546875 -0.640625 
Q 12.796875 0.140625 7.71875 1.703125 
L 7.71875 11.625 
Q 12.109375 9.234375 16.796875 8.0625 
Q 21.484375 6.890625 26.703125 6.890625 
Q 35.15625 6.890625 40.078125 11.328125 
Q 45.015625 15.765625 45.015625 23.390625 
Q 45.015625 31 40.078125 35.4375 
Q 35.15625 39.890625 26.703125 39.890625 
Q 22.75 39.890625 18.8125 39.015625 
Q 14.890625 38.140625 10.796875 36.28125 
z
" id="DejaVuSans-53"/>
       </defs>
       <use xlink:href="#DejaVuSans-50"/>
       <use x="63.623047" xlink:href="#DejaVuSans-48"/>
       <use x="127.246094" xlink:href="#DejaVuSans-50"/>
       <use x="190.869141" xlink:href="#DejaVuSans-48"/>
       <use x="254.492188" xlink:href="#DejaVuSans-45"/>
       <use x="290.576172" xlink:href="#DejaVuSans-48"/>
       <use x="354.199219" xlink:href="#DejaVuSans-53"/>
      </g>
     </g>
    </g>
    <g id="xtick_4">
     <g id="line2d_4">
      <g>
       <use style="stroke:#000000;stroke-width:0.8;" x="220.450909" xlink:href="#mb691bb9e89" y="307.584"/>
      </g>
     </g>
     <g id="text_4">
      <!-- 2020-07 -->
      <g transform="translate(199.559503 322.182437)scale(0.1 -0.1)">
       <defs>
        <path d="M 8.203125 72.90625 
L 55.078125 72.90625 
L 55.078125 68.703125 
L 28.609375 0 
L 18.3125 0 
L 43.21875 64.59375 
L 8.203125 64.59375 
z
" id="DejaVuSans-55"/>
       </defs>
       <use xlink:href="#DejaVuSans-50"/>
       <use x="63.623047" xlink:href="#DejaVuSans-48"/>
       <use x="127.246094" xlink:href="#DejaVuSans-50"/>
       <use x="190.869141" xlink:href="#DejaVuSans-48"/>
       <use x="254.492188" xlink:href="#DejaVuSans-45"/>
       <use x="290.576172" xlink:href="#DejaVuSans-48"/>
       <use x="354.199219" xlink:href="#DejaVuSans-55"/>
      </g>
     </g>
    </g>
    <g id="xtick_5">
     <g id="line2d_5">
      <g>
       <use style="stroke:#000000;stroke-width:0.8;" x="270.397762" xlink:href="#mb691bb9e89" y="307.584"/>
      </g>
     </g>
     <g id="text_5">
      <!-- 2020-09 -->
      <g transform="translate(249.506356 322.182437)scale(0.1 -0.1)">
       <defs>
        <path d="M 10.984375 1.515625 
L 10.984375 10.5 
Q 14.703125 8.734375 18.5 7.8125 
Q 22.3125 6.890625 25.984375 6.890625 
Q 35.75 6.890625 40.890625 13.453125 
Q 46.046875 20.015625 46.78125 33.40625 
Q 43.953125 29.203125 39.59375 26.953125 
Q 35.25 24.703125 29.984375 24.703125 
Q 19.046875 24.703125 12.671875 31.3125 
Q 6.296875 37.9375 6.296875 49.421875 
Q 6.296875 60.640625 12.9375 67.421875 
Q 19.578125 74.21875 30.609375 74.21875 
Q 43.265625 74.21875 49.921875 64.515625 
Q 56.59375 54.828125 56.59375 36.375 
Q 56.59375 19.140625 48.40625 8.859375 
Q 40.234375 -1.421875 26.421875 -1.421875 
Q 22.703125 -1.421875 18.890625 -0.6875 
Q 15.09375 0.046875 10.984375 1.515625 
z
M 30.609375 32.421875 
Q 37.25 32.421875 41.125 36.953125 
Q 45.015625 41.5 45.015625 49.421875 
Q 45.015625 57.28125 41.125 61.84375 
Q 37.25 66.40625 30.609375 66.40625 
Q 23.96875 66.40625 20.09375 61.84375 
Q 16.21875 57.28125 16.21875 49.421875 
Q 16.21875 41.5 20.09375 36.953125 
Q 23.96875 32.421875 30.609375 32.421875 
z
" id="DejaVuSans-57"/>
       </defs>
       <use xlink:href="#DejaVuSans-50"/>
       <use x="63.623047" xlink:href="#DejaVuSans-48"/>
       <use x="127.246094" xlink:href="#DejaVuSans-50"/>
       <use x="190.869141" xlink:href="#DejaVuSans-48"/>
       <use x="254.492188" xlink:href="#DejaVuSans-45"/>
       <use x="290.576172" xlink:href="#DejaVuSans-48"/>
       <use x="354.199219" xlink:href="#DejaVuSans-57"/>
      </g>
     </g>
    </g>
    <g id="xtick_6">
     <g id="line2d_6">
      <g>
       <use style="stroke:#000000;stroke-width:0.8;" x="319.539021" xlink:href="#mb691bb9e89" y="307.584"/>
      </g>
     </g>
     <g id="text_6">
      <!-- 2020-11 -->
      <g transform="translate(298.647615 322.182437)scale(0.1 -0.1)">
       <use xlink:href="#DejaVuSans-50"/>
       <use x="63.623047" xlink:href="#DejaVuSans-48"/>
       <use x="127.246094" xlink:href="#DejaVuSans-50"/>
       <use x="190.869141" xlink:href="#DejaVuSans-48"/>
       <use x="254.492188" xlink:href="#DejaVuSans-45"/>
       <use x="290.576172" xlink:href="#DejaVuSans-49"/>
       <use x="354.199219" xlink:href="#DejaVuSans-49"/>
      </g>
     </g>
    </g>
    <g id="xtick_7">
     <g id="line2d_7">
      <g>
       <use style="stroke:#000000;stroke-width:0.8;" x="368.68028" xlink:href="#mb691bb9e89" y="307.584"/>
      </g>
     </g>
     <g id="text_7">
      <!-- 2021-01 -->
      <g transform="translate(347.788873 322.182437)scale(0.1 -0.1)">
       <use xlink:href="#DejaVuSans-50"/>
       <use x="63.623047" xlink:href="#DejaVuSans-48"/>
       <use x="127.246094" xlink:href="#DejaVuSans-50"/>
       <use x="190.869141" xlink:href="#DejaVuSans-49"/>
       <use x="254.492188" xlink:href="#DejaVuSans-45"/>
       <use x="290.576172" xlink:href="#DejaVuSans-48"/>
       <use x="354.199219" xlink:href="#DejaVuSans-49"/>
      </g>
     </g>
    </g>
   </g>
   <g id="matplotlib.axis_2">
    <g id="ytick_1">
     <g id="line2d_8">
      <defs>
       <path d="M 0 0 
L -3.5 0 
" id="mdef09380e2" style="stroke:#000000;stroke-width:0.8;"/>
      </defs>
      <g>
       <use style="stroke:#000000;stroke-width:0.8;" x="57.6" xlink:href="#mdef09380e2" y="288.064083"/>
      </g>
     </g>
     <g id="text_8">
      <!-- 5000 -->
      <g transform="translate(25.15 291.863301)scale(0.1 -0.1)">
       <use xlink:href="#DejaVuSans-53"/>
       <use x="63.623047" xlink:href="#DejaVuSans-48"/>
       <use x="127.246094" xlink:href="#DejaVuSans-48"/>
       <use x="190.869141" xlink:href="#DejaVuSans-48"/>
      </g>
     </g>
    </g>
    <g id="ytick_2">
     <g id="line2d_9">
      <g>
       <use style="stroke:#000000;stroke-width:0.8;" x="57.6" xlink:href="#mdef09380e2" y="257.525529"/>
      </g>
     </g>
     <g id="text_9">
      <!-- 10000 -->
      <g transform="translate(18.7875 261.324747)scale(0.1 -0.1)">
       <use xlink:href="#DejaVuSans-49"/>
       <use x="63.623047" xlink:href="#DejaVuSans-48"/>
       <use x="127.246094" xlink:href="#DejaVuSans-48"/>
       <use x="190.869141" xlink:href="#DejaVuSans-48"/>
       <use x="254.492188" xlink:href="#DejaVuSans-48"/>
      </g>
     </g>
    </g>
    <g id="ytick_3">
     <g id="line2d_10">
      <g>
       <use style="stroke:#000000;stroke-width:0.8;" x="57.6" xlink:href="#mdef09380e2" y="226.986975"/>
      </g>
     </g>
     <g id="text_10">
      <!-- 15000 -->
      <g transform="translate(18.7875 230.786194)scale(0.1 -0.1)">
       <use xlink:href="#DejaVuSans-49"/>
       <use x="63.623047" xlink:href="#DejaVuSans-53"/>
       <use x="127.246094" xlink:href="#DejaVuSans-48"/>
       <use x="190.869141" xlink:href="#DejaVuSans-48"/>
       <use x="254.492188" xlink:href="#DejaVuSans-48"/>
      </g>
     </g>
    </g>
    <g id="ytick_4">
     <g id="line2d_11">
      <g>
       <use style="stroke:#000000;stroke-width:0.8;" x="57.6" xlink:href="#mdef09380e2" y="196.448421"/>
      </g>
     </g>
     <g id="text_11">
      <!-- 20000 -->
      <g transform="translate(18.7875 200.24764)scale(0.1 -0.1)">
       <use xlink:href="#DejaVuSans-50"/>
       <use x="63.623047" xlink:href="#DejaVuSans-48"/>
       <use x="127.246094" xlink:href="#DejaVuSans-48"/>
       <use x="190.869141" xlink:href="#DejaVuSans-48"/>
       <use x="254.492188" xlink:href="#DejaVuSans-48"/>
      </g>
     </g>
    </g>
    <g id="ytick_5">
     <g id="line2d_12">
      <g>
       <use style="stroke:#000000;stroke-width:0.8;" x="57.6" xlink:href="#mdef09380e2" y="165.909867"/>
      </g>
     </g>
     <g id="text_12">
      <!-- 25000 -->
      <g transform="translate(18.7875 169.709086)scale(0.1 -0.1)">
       <use xlink:href="#DejaVuSans-50"/>
       <use x="63.623047" xlink:href="#DejaVuSans-53"/>
       <use x="127.246094" xlink:href="#DejaVuSans-48"/>
       <use x="190.869141" xlink:href="#DejaVuSans-48"/>
       <use x="254.492188" xlink:href="#DejaVuSans-48"/>
      </g>
     </g>
    </g>
    <g id="ytick_6">
     <g id="line2d_13">
      <g>
       <use style="stroke:#000000;stroke-width:0.8;" x="57.6" xlink:href="#mdef09380e2" y="135.371314"/>
      </g>
     </g>
     <g id="text_13">
      <!-- 30000 -->
      <g transform="translate(18.7875 139.170532)scale(0.1 -0.1)">
       <use xlink:href="#DejaVuSans-51"/>
       <use x="63.623047" xlink:href="#DejaVuSans-48"/>
       <use x="127.246094" xlink:href="#DejaVuSans-48"/>
       <use x="190.869141" xlink:href="#DejaVuSans-48"/>
       <use x="254.492188" xlink:href="#DejaVuSans-48"/>
      </g>
     </g>
    </g>
    <g id="ytick_7">
     <g id="line2d_14">
      <g>
       <use style="stroke:#000000;stroke-width:0.8;" x="57.6" xlink:href="#mdef09380e2" y="104.83276"/>
      </g>
     </g>
     <g id="text_14">
      <!-- 35000 -->
      <g transform="translate(18.7875 108.631978)scale(0.1 -0.1)">
       <use xlink:href="#DejaVuSans-51"/>
       <use x="63.623047" xlink:href="#DejaVuSans-53"/>
       <use x="127.246094" xlink:href="#DejaVuSans-48"/>
       <use x="190.869141" xlink:href="#DejaVuSans-48"/>
       <use x="254.492188" xlink:href="#DejaVuSans-48"/>
      </g>
     </g>
    </g>
    <g id="ytick_8">
     <g id="line2d_15">
      <g>
       <use style="stroke:#000000;stroke-width:0.8;" x="57.6" xlink:href="#mdef09380e2" y="74.294206"/>
      </g>
     </g>
     <g id="text_15">
      <!-- 40000 -->
      <g transform="translate(18.7875 78.093425)scale(0.1 -0.1)">
       <defs>
        <path d="M 37.796875 64.3125 
L 12.890625 25.390625 
L 37.796875 25.390625 
z
M 35.203125 72.90625 
L 47.609375 72.90625 
L 47.609375 25.390625 
L 58.015625 25.390625 
L 58.015625 17.1875 
L 47.609375 17.1875 
L 47.609375 0 
L 37.796875 0 
L 37.796875 17.1875 
L 4.890625 17.1875 
L 4.890625 26.703125 
z
" id="DejaVuSans-52"/>
       </defs>
       <use xlink:href="#DejaVuSans-52"/>
       <use x="63.623047" xlink:href="#DejaVuSans-48"/>
       <use x="127.246094" xlink:href="#DejaVuSans-48"/>
       <use x="190.869141" xlink:href="#DejaVuSans-48"/>
       <use x="254.492188" xlink:href="#DejaVuSans-48"/>
      </g>
     </g>
    </g>
    <g id="ytick_9">
     <g id="line2d_16">
      <g>
       <use style="stroke:#000000;stroke-width:0.8;" x="57.6" xlink:href="#mdef09380e2" y="43.755652"/>
      </g>
     </g>
     <g id="text_16">
      <!-- 45000 -->
      <g transform="translate(18.7875 47.554871)scale(0.1 -0.1)">
       <use xlink:href="#DejaVuSans-52"/>
       <use x="63.623047" xlink:href="#DejaVuSans-53"/>
       <use x="127.246094" xlink:href="#DejaVuSans-48"/>
       <use x="190.869141" xlink:href="#DejaVuSans-48"/>
       <use x="254.492188" xlink:href="#DejaVuSans-48"/>
      </g>
     </g>
    </g>
   </g>
   <g id="line2d_17">
    <path clip-path="url(#p7cd964b841)" d="M 89.139021 261.70961 
L 89.944615 261.516823 
L 92.361399 262.314789 
L 93.166993 262.869399 
L 93.972587 263.0109 
L 94.778182 262.7086 
L 95.583776 261.857752 
L 96.389371 261.516992 
L 97.194965 260.734147 
L 98.806154 260.140628 
L 99.611748 260.061319 
L 100.417343 259.778026 
L 101.222937 259.617228 
L 102.834126 258.322013 
L 104.445315 256.937 
L 105.250909 256.029744 
L 106.056503 255.588829 
L 106.862098 254.810494 
L 107.667692 254.241463 
L 108.473287 253.982631 
L 109.278881 253.93134 
L 110.084476 254.253685 
L 110.89007 254.418358 
L 111.695664 254.427131 
L 112.501259 254.214683 
L 114.112448 254.313981 
L 116.529231 254.644247 
L 117.334825 255.041985 
L 118.14042 254.822645 
L 118.946014 253.996398 
L 120.557203 253.083091 
L 122.168392 252.679761 
L 122.973986 253.116795 
L 124.585175 254.295348 
L 125.390769 255.216707 
L 127.001958 256.19775 
L 127.807552 256.106851 
L 128.613147 256.74624 
L 129.418741 256.860985 
L 130.224336 257.175513 
L 131.02993 253.275997 
L 131.835524 252.554387 
L 132.641119 252.304678 
L 133.446713 252.507114 
L 134.252308 252.558872 
L 135.057902 252.782319 
L 135.863497 253.298198 
L 138.28028 255.95286 
L 140.697063 260.350631 
L 141.502657 262.455709 
L 143.113846 267.640732 
L 144.725035 270.975197 
L 145.530629 272.77902 
L 146.336224 275.023422 
L 147.141818 274.95268 
L 147.947413 274.409886 
L 149.558601 274.004357 
L 150.364196 274.39093 
L 151.16979 273.943829 
L 151.975385 273.941644 
L 152.780979 273.182202 
L 153.586573 272.65926 
L 154.392168 272.584103 
L 155.197762 272.855904 
L 157.614545 272.662796 
L 158.42014 272.674819 
L 159.225734 272.511405 
L 160.031329 272.529952 
L 160.836923 272.983932 
L 161.642517 273.038039 
L 162.448112 273.286429 
L 163.253706 273.35265 
L 164.059301 273.273267 
L 167.281678 271.58627 
L 168.087273 270.969574 
L 168.892867 270.552846 
L 169.698462 268.245989 
L 172.115245 263.660384 
L 172.920839 262.495411 
L 175.337622 259.763842 
L 176.143217 257.83829 
L 176.948811 256.438457 
L 177.754406 255.608973 
L 178.56 255.815647 
L 179.365594 256.272826 
L 180.171189 256.586419 
L 180.976783 256.458224 
L 181.782378 256.035005 
L 184.199161 256.633363 
L 185.004755 257.132062 
L 185.81035 256.752511 
L 191.44951 256.667608 
L 192.255105 257.310432 
L 193.060699 257.571856 
L 193.866294 257.690121 
L 194.671888 257.459953 
L 195.477483 257.640188 
L 196.283077 256.841958 
L 197.088671 256.761749 
L 197.894266 256.871162 
L 198.69986 256.61383 
L 200.311049 256.485395 
L 202.727832 256.26743 
L 203.533427 256.007828 
L 205.144615 256.022096 
L 207.561399 257.173793 
L 208.366993 257.303535 
L 211.589371 257.280181 
L 212.394965 258.047408 
L 214.006154 258.011055 
L 214.811748 258.16906 
L 217.228531 258.292168 
L 218.83972 258.874571 
L 219.645315 259.491946 
L 221.256503 259.55064 
L 224.478881 259.891856 
L 225.284476 260.029961 
L 226.895664 260.02508 
L 228.506853 260.086379 
L 230.118042 261.117257 
L 234.146014 261.269284 
L 235.757203 261.265726 
L 236.562797 261.129859 
L 239.785175 259.698718 
L 240.590769 258.900932 
L 241.396364 255.775515 
L 243.007552 252.102802 
L 244.618741 248.953055 
L 245.424336 246.880661 
L 247.841119 244.60173 
L 249.452308 242.649522 
L 251.063497 241.644068 
L 251.869091 241.52653 
L 252.674685 241.285713 
L 254.285874 241.876145 
L 255.091469 242.469676 
L 255.897063 243.342949 
L 256.702657 244.439587 
L 257.508252 244.259502 
L 258.313846 243.745225 
L 259.119441 243.657489 
L 259.925035 243.7559 
L 260.730629 243.681535 
L 261.536224 243.755039 
L 262.341818 244.061603 
L 263.147413 244.246822 
L 263.953007 244.58277 
L 264.758601 244.40599 
L 267.980979 244.307774 
L 269.592168 244.456933 
L 270.397762 244.296195 
L 271.203357 244.304379 
L 272.008951 242.687253 
L 273.62014 241.81311 
L 275.231329 242.313565 
L 276.036923 242.348497 
L 278.453706 243.262566 
L 279.259301 243.728278 
L 280.064895 244.36878 
L 282.481678 245.347996 
L 284.092867 246.254386 
L 285.704056 247.784977 
L 286.50965 249.550315 
L 287.315245 250.54081 
L 288.120839 250.557578 
L 289.732028 250.429244 
L 291.343217 250.287963 
L 292.954406 250.428421 
L 295.371189 250.537926 
L 296.176783 250.659271 
L 297.787972 250.665156 
L 299.399161 251.021607 
L 301.01035 251.115595 
L 302.621538 249.795337 
L 303.427133 248.903015 
L 305.038322 248.026869 
L 305.843916 247.486864 
L 308.260699 246.591399 
L 309.871888 245.231705 
L 311.483077 241.199858 
L 313.89986 237.190339 
L 314.705455 236.317249 
L 315.511049 234.840185 
L 317.122238 233.145675 
L 319.539021 230.324464 
L 320.344615 229.874484 
L 321.955804 228.474742 
L 322.761399 226.099698 
L 323.566993 224.277265 
L 324.372587 223.867226 
L 325.178182 222.78978 
L 325.983776 222.133941 
L 326.789371 221.218152 
L 327.594965 219.92781 
L 329.206154 216.600417 
L 330.011748 215.687123 
L 330.817343 215.131794 
L 331.622937 213.634166 
L 333.234126 209.136832 
L 334.03972 207.378727 
L 334.845315 204.682924 
L 335.650909 202.607802 
L 337.262098 200.74011 
L 338.873287 197.938667 
L 339.678881 197.895082 
L 340.484476 198.415265 
L 342.095664 198.383644 
L 342.901259 197.073981 
L 343.706853 196.931745 
L 345.318042 195.472176 
L 346.123636 195.927979 
L 346.929231 196.611454 
L 347.734825 196.631608 
L 348.54042 196.297784 
L 351.762797 196.559166 
L 352.568392 196.422389 
L 353.373986 196.086433 
L 354.17958 195.949918 
L 354.985175 195.484263 
L 355.790769 192.687442 
L 358.207552 177.785405 
L 359.013147 174.125054 
L 359.818741 171.898974 
L 360.624336 168.535007 
L 362.235524 163.948609 
L 363.041119 160.737378 
L 363.846713 155.562006 
L 367.874685 135.491289 
L 368.68028 132.037347 
L 370.291469 118.780354 
L 371.097063 115.321207 
L 371.902657 108.909804 
L 372.708252 98.861503 
L 374.319441 73.16015 
L 375.125035 63.662495 
L 375.930629 58.781549 
L 376.736224 56.993373 
L 377.541818 57.26364 
L 378.347413 56.277235 
L 379.153007 53.97201 
L 379.958601 53.568 
L 380.764196 54.714708 
L 381.56979 56.277578 
L 383.180979 60.109292 
L 383.986573 62.898616 
L 384.792168 64.598579 
L 385.597762 64.983141 
L 386.403357 64.496619 
L 387.208951 64.629894 
L 388.014545 64.032611 
L 388.82014 64.134866 
L 389.625734 65.951591 
L 391.236923 77.207774 
L 392.042517 80.420021 
L 392.848112 81.220297 
L 393.653706 81.453597 
L 394.459301 83.046733 
L 395.264895 85.773327 
L 396.07049 85.696893 
L 396.876084 83.59297 
L 397.681678 79.614736 
L 398.487273 77.156702 
L 398.487273 77.156702 
" style="fill:none;stroke:#1f77b4;stroke-linecap:square;stroke-width:1.5;"/>
   </g>
   <g id="line2d_18">
    <path clip-path="url(#p7cd964b841)" d="M 89.139021 276.727355 
L 89.944615 275.985925 
L 90.75021 274.704627 
L 92.361399 272.852957 
L 93.166993 271.695891 
L 93.972587 271.036793 
L 94.778182 270.892306 
L 95.583776 270.92549 
L 96.389371 270.36955 
L 97.194965 270.352591 
L 99.611748 268.751175 
L 102.028531 268.698036 
L 103.63972 269.007636 
L 105.250909 268.949292 
L 106.862098 268.508097 
L 107.667692 267.899097 
L 108.473287 267.067601 
L 110.084476 264.779388 
L 110.89007 263.981284 
L 111.695664 263.765555 
L 112.501259 263.431199 
L 113.306853 263.33749 
L 115.723636 262.46274 
L 116.529231 261.92406 
L 117.334825 261.225597 
L 118.14042 261.622907 
L 118.946014 263.027676 
L 122.168392 267.457239 
L 124.585175 268.489226 
L 125.390769 268.350033 
L 127.001958 268.447455 
L 127.807552 269.547219 
L 128.613147 270.265464 
L 129.418741 271.179095 
L 130.224336 271.88099 
L 131.02993 278.686738 
L 132.641119 284.971177 
L 134.252308 289.923281 
L 135.057902 291.788306 
L 135.863497 293.332697 
L 137.474685 294.564433 
L 139.085874 295.488 
L 139.891469 295.441963 
L 140.697063 295.14853 
L 141.502657 294.4904 
L 143.113846 292.3332 
L 144.725035 291.351204 
L 145.530629 290.466977 
L 146.336224 289.16029 
L 147.141818 288.165821 
L 147.947413 288.021257 
L 149.558601 286.594595 
L 150.364196 285.161636 
L 151.16979 284.413779 
L 151.975385 283.344256 
L 152.780979 283.409419 
L 153.586573 283.271676 
L 154.392168 282.933963 
L 155.197762 282.012536 
L 156.003357 281.842235 
L 158.42014 281.799685 
L 159.225734 281.510253 
L 160.031329 281.022096 
L 160.836923 279.733597 
L 162.448112 278.734844 
L 164.059301 278.425456 
L 166.476084 278.341681 
L 168.892867 279.009518 
L 169.698462 280.407697 
L 171.30965 281.210901 
L 172.115245 281.479851 
L 172.920839 281.383856 
L 173.726434 281.080022 
L 174.532028 280.423587 
L 175.337622 280.165947 
L 176.143217 280.285044 
L 176.948811 280.126206 
L 177.754406 279.466108 
L 180.171189 275.247449 
L 181.782378 273.283723 
L 184.199161 269.444136 
L 185.004755 267.760582 
L 185.81035 267.532053 
L 186.615944 267.00413 
L 189.032727 266.501037 
L 191.44951 267.078402 
L 193.060699 266.809686 
L 193.866294 266.787415 
L 194.671888 266.449037 
L 195.477483 265.747635 
L 201.116643 265.555653 
L 202.727832 265.565774 
L 203.533427 265.327959 
L 205.144615 265.056124 
L 205.95021 264.219823 
L 206.755804 263.673853 
L 207.561399 262.808758 
L 208.366993 262.473385 
L 209.978182 262.554829 
L 210.783776 262.779925 
L 211.589371 262.849673 
L 212.394965 262.632047 
L 214.006154 262.617541 
L 215.617343 262.948373 
L 216.422937 263.215173 
L 217.228531 263.611239 
L 218.034126 263.764333 
L 218.83972 263.785271 
L 219.645315 263.617892 
L 220.450909 263.652053 
L 223.673287 264.240594 
L 226.09007 264.17271 
L 228.506853 264.198836 
L 230.118042 263.620565 
L 233.34042 263.479547 
L 235.757203 263.414568 
L 239.785175 263.670095 
L 240.590769 264.101248 
L 241.396364 266.165103 
L 242.201958 267.114651 
L 243.007552 267.788464 
L 244.618741 268.524735 
L 245.424336 269.063544 
L 247.035524 268.365184 
L 249.452308 266.555353 
L 251.063497 264.49861 
L 254.285874 258.841058 
L 255.897063 254.751899 
L 256.702657 252.482047 
L 259.119441 251.381154 
L 259.925035 250.856258 
L 260.730629 250.638359 
L 261.536224 250.719907 
L 262.341818 250.037572 
L 263.147413 249.604361 
L 263.953007 248.919813 
L 264.758601 249.341617 
L 267.980979 250.094874 
L 268.786573 250.090789 
L 269.592168 249.898068 
L 270.397762 249.836644 
L 271.203357 250.043957 
L 272.008951 252.611935 
L 272.814545 253.857399 
L 273.62014 255.372342 
L 274.425734 256.292097 
L 275.231329 257.035356 
L 276.036923 258.008138 
L 276.842517 258.696628 
L 277.648112 259.22172 
L 279.259301 259.873499 
L 280.064895 260.098934 
L 281.676084 260.189118 
L 283.287273 260.055274 
L 284.092867 259.931695 
L 285.704056 259.23323 
L 286.50965 258.378239 
L 287.315245 257.919918 
L 288.926434 257.831078 
L 290.537622 257.307205 
L 291.343217 257.163228 
L 292.954406 256.321964 
L 294.565594 255.852134 
L 295.371189 255.730743 
L 296.176783 255.474943 
L 301.01035 255.428155 
L 301.815944 255.802974 
L 302.621538 255.955529 
L 303.427133 256.248285 
L 304.232727 255.910819 
L 305.843916 256.01298 
L 308.260699 255.670929 
L 309.871888 255.77955 
L 310.677483 256.545467 
L 311.483077 257.022852 
L 313.094266 256.974824 
L 313.89986 256.723668 
L 314.705455 256.097657 
L 315.511049 255.74314 
L 317.122238 254.505605 
L 319.539021 253.088866 
L 321.955804 250.464953 
L 322.761399 250.26428 
L 323.566993 249.519949 
L 324.372587 247.90356 
L 325.178182 246.702778 
L 325.983776 245.248915 
L 326.789371 244.622214 
L 329.206154 243.567402 
L 330.011748 242.622217 
L 330.817343 241.413882 
L 333.234126 240.255836 
L 334.03972 239.417459 
L 334.845315 239.14221 
L 335.650909 238.225954 
L 337.262098 234.461025 
L 338.067692 232.878513 
L 338.873287 232.311944 
L 339.678881 231.370874 
L 340.484476 229.434777 
L 341.29007 228.055114 
L 342.095664 226.360474 
L 342.901259 225.007146 
L 343.706853 223.286807 
L 345.318042 221.062944 
L 346.123636 219.013207 
L 346.929231 216.378611 
L 347.734825 214.720542 
L 348.54042 214.11803 
L 350.151608 213.179302 
L 350.957203 213.375967 
L 351.762797 213.691964 
L 353.373986 213.43704 
L 354.985175 213.507124 
L 355.790769 213.784661 
L 358.207552 218.528707 
L 359.013147 219.840396 
L 359.818741 219.626955 
L 360.624336 220.143995 
L 361.42993 220.012616 
L 362.235524 219.276285 
L 363.041119 219.111777 
L 363.846713 219.974876 
L 364.652308 219.73032 
L 365.457902 218.480013 
L 367.069091 214.995481 
L 368.68028 208.828548 
L 369.485874 207.617748 
L 370.291469 205.711591 
L 371.097063 201.452993 
L 371.902657 200.096282 
L 372.708252 201.597974 
L 373.513846 204.529196 
L 374.319441 206.801892 
L 375.125035 206.014215 
L 375.930629 201.379811 
L 376.736224 195.954137 
L 379.153007 175.111627 
L 379.958601 169.144688 
L 383.986573 134.531358 
L 384.792168 131.805577 
L 385.597762 130.983484 
L 386.403357 132.039277 
L 387.208951 131.771858 
L 388.014545 133.403514 
L 388.82014 135.904859 
L 389.625734 139.674932 
L 390.431329 138.637209 
L 391.236923 136.727487 
L 392.042517 136.054368 
L 392.848112 136.849667 
L 393.653706 137.265942 
L 394.459301 136.757399 
L 395.264895 135.096511 
L 396.07049 135.134167 
L 396.876084 136.145032 
L 397.681678 138.123603 
L 398.487273 139.282531 
L 398.487273 139.282531 
" style="fill:none;stroke:#ff7f0e;stroke-linecap:square;stroke-width:1.5;"/>
   </g>
   <g id="line2d_19">
    <path clip-path="url(#p7cd964b841)" d="M 89.139021 269.218482 
L 91.555804 267.914738 
L 93.972587 267.023847 
L 94.778182 266.800453 
L 99.611748 264.406247 
L 102.028531 263.860636 
L 103.63972 263.317024 
L 106.056503 262.144209 
L 107.667692 261.07028 
L 110.084476 259.516536 
L 110.89007 259.199821 
L 111.695664 259.096343 
L 112.501259 258.822941 
L 114.112448 258.691331 
L 115.723636 258.489525 
L 117.334825 258.133791 
L 118.14042 258.222776 
L 120.557203 259.179975 
L 122.168392 260.0685 
L 126.196364 262.014653 
L 127.001958 262.322602 
L 127.807552 262.827035 
L 128.613147 263.505852 
L 130.224336 264.528252 
L 131.02993 265.981367 
L 131.835524 267.194865 
L 133.446713 269.943955 
L 134.252308 271.241076 
L 135.863497 273.315447 
L 143.113846 279.986966 
L 146.336224 282.091856 
L 147.141818 281.55925 
L 148.753007 280.752725 
L 150.364196 279.776283 
L 151.975385 278.64295 
L 153.586573 277.965468 
L 154.392168 277.759033 
L 155.197762 277.43422 
L 156.808951 277.269071 
L 159.225734 277.010829 
L 160.031329 276.776024 
L 160.836923 276.358764 
L 162.448112 276.010636 
L 164.059301 275.849361 
L 166.476084 275.196366 
L 168.892867 274.781182 
L 170.504056 273.792334 
L 173.726434 271.322943 
L 178.56 266.95595 
L 180.976783 265.357826 
L 181.782378 264.659364 
L 185.004755 262.446322 
L 186.615944 261.875917 
L 189.032727 261.671973 
L 191.44951 261.873005 
L 192.255105 262.113891 
L 193.866294 262.238768 
L 197.088671 261.206039 
L 197.894266 261.243567 
L 199.505455 261.021142 
L 202.727832 260.916602 
L 203.533427 260.667894 
L 205.144615 260.53911 
L 206.755804 260.173369 
L 208.366993 259.88846 
L 211.589371 260.064927 
L 212.394965 260.339728 
L 214.006154 260.314298 
L 217.228531 260.951703 
L 219.645315 261.554919 
L 221.256503 261.68761 
L 223.673287 261.97478 
L 226.09007 262.086664 
L 229.312448 262.254619 
L 230.923636 262.388971 
L 234.146014 262.354111 
L 236.562797 262.295508 
L 239.785175 261.684406 
L 240.590769 261.50109 
L 244.618741 258.738895 
L 245.424336 257.972103 
L 247.841119 256.193739 
L 252.674685 251.529954 
L 254.285874 250.358601 
L 255.897063 249.047424 
L 256.702657 248.460817 
L 257.508252 248.18548 
L 258.313846 247.775058 
L 259.925035 247.306079 
L 260.730629 247.159947 
L 261.536224 247.237473 
L 263.953007 246.751292 
L 267.175385 247.138536 
L 268.786573 247.258225 
L 270.397762 247.066419 
L 271.203357 247.174168 
L 275.231329 249.674461 
L 276.842517 250.675349 
L 280.87049 252.435366 
L 282.481678 252.75454 
L 285.704056 253.509104 
L 286.50965 253.964277 
L 287.315245 254.230364 
L 288.926434 254.139104 
L 293.76 253.245378 
L 296.982378 253.064841 
L 298.593566 253.171468 
L 300.204755 253.257432 
L 301.01035 253.271875 
L 301.815944 253.160311 
L 306.64951 251.566464 
L 308.260699 251.131164 
L 309.871888 250.505628 
L 312.288671 248.390675 
L 321.955804 239.469847 
L 323.566993 236.898607 
L 326.789371 232.920183 
L 327.594965 232.08735 
L 330.011748 229.15467 
L 331.622937 227.346186 
L 334.845315 221.912567 
L 338.067692 216.09547 
L 338.873287 215.125305 
L 339.678881 214.632978 
L 342.095664 212.372059 
L 342.901259 211.040563 
L 346.929231 206.495032 
L 347.734825 205.676075 
L 348.54042 205.207907 
L 350.151608 204.809539 
L 351.762797 205.125565 
L 354.17958 204.70874 
L 354.985175 204.495694 
L 355.790769 203.236051 
L 358.207552 198.157056 
L 359.818741 195.762965 
L 360.624336 194.339501 
L 361.42993 193.156999 
L 363.041119 189.924578 
L 364.652308 185.600827 
L 366.263497 180.244078 
L 368.68028 170.432947 
L 372.708252 150.229738 
L 375.930629 130.08068 
L 378.347413 118.948964 
L 379.153007 114.541818 
L 380.764196 108.372923 
L 383.180979 100.708701 
L 383.986573 98.714987 
L 384.792168 98.202078 
L 385.597762 97.983313 
L 386.403357 98.267948 
L 387.208951 98.200876 
L 388.014545 98.718063 
L 388.82014 100.019862 
L 389.625734 102.813261 
L 390.431329 105.092591 
L 391.236923 106.96763 
L 392.042517 108.237194 
L 392.848112 109.034982 
L 393.653706 109.359769 
L 395.264895 110.434919 
L 396.07049 110.41553 
L 396.876084 109.869001 
L 397.681678 108.86917 
L 398.487273 108.219617 
L 398.487273 108.219617 
" style="fill:none;stroke:#2ca02c;stroke-linecap:square;stroke-width:1.5;"/>
   </g>
   <g id="line2d_20">
    <path clip-path="url(#p7cd964b841)" d="M 73.832727 274.684204 
L 74.638322 276.062854 
L 75.443916 273.767632 
L 77.055105 273.712242 
L 78.666294 268.806137 
L 79.471888 269.576906 
L 80.277483 270.906279 
L 81.083077 268.692133 
L 81.888671 269.698547 
L 82.694266 268.743673 
L 83.49986 269.157297 
L 84.305455 264.967814 
L 85.111049 264.982581 
L 85.916643 265.455739 
L 86.722238 264.37855 
L 87.527832 264.317123 
L 88.333427 265.551227 
L 89.139021 265.919167 
L 89.944615 265.342037 
L 90.75021 265.787715 
L 91.555804 267.310055 
L 92.361399 267.083303 
L 93.166993 267.687684 
L 94.778182 264.33826 
L 95.583776 261.400275 
L 96.389371 261.939277 
L 97.194965 260.694095 
L 98.000559 261.691951 
L 98.806154 261.458153 
L 100.417343 261.9078 
L 101.222937 262.626532 
L 102.028531 259.959586 
L 102.834126 259.099814 
L 104.445315 258.248636 
L 105.250909 256.67163 
L 106.056503 258.435857 
L 106.862098 256.089453 
L 107.667692 255.529735 
L 108.473287 256.180034 
L 109.278881 255.476954 
L 110.084476 258.152089 
L 110.89007 258.003956 
L 111.695664 259.330712 
L 112.501259 256.471245 
L 113.306853 259.905069 
L 114.112448 259.848779 
L 114.918042 259.497519 
L 115.723636 259.631485 
L 116.529231 257.800373 
L 117.334825 259.619276 
L 118.14042 261.73929 
L 118.946014 264.88503 
L 119.751608 264.841849 
L 120.557203 265.489156 
L 121.362797 266.43151 
L 122.168392 266.446492 
L 122.973986 264.16066 
L 123.77958 265.105821 
L 124.585175 265.008473 
L 125.390769 263.29861 
L 126.196364 262.777747 
L 127.001958 264.162953 
L 127.807552 269.419358 
L 128.613147 270.047592 
L 129.418741 270.188823 
L 130.224336 270.013018 
L 131.02993 288.559827 
L 131.835524 283.90144 
L 132.641119 286.661616 
L 133.446713 285.739828 
L 134.252308 287.681724 
L 135.057902 285.769751 
L 135.863497 285.444543 
L 136.669091 280.556463 
L 137.474685 280.712649 
L 138.28028 280.718105 
L 139.085874 282.972125 
L 139.891469 279.001827 
L 140.697063 277.363602 
L 141.502657 277.768097 
L 142.308252 277.531207 
L 143.113846 279.687729 
L 143.919441 280.362036 
L 144.725035 282.629595 
L 145.530629 279.384781 
L 146.336224 279.390176 
L 147.141818 277.907705 
L 147.947413 277.027871 
L 148.753007 277.404678 
L 149.558601 276.674859 
L 150.364196 277.217858 
L 151.16979 273.820175 
L 151.975385 274.727453 
L 152.780979 273.613682 
L 153.586573 274.105798 
L 154.392168 276.589406 
L 156.003357 276.350422 
L 156.808951 276.712035 
L 157.614545 276.641434 
L 158.42014 278.021486 
L 159.225734 275.159258 
L 160.031329 275.66594 
L 160.836923 274.284408 
L 161.642517 275.036834 
L 162.448112 276.775558 
L 163.253706 276.684631 
L 164.059301 275.025451 
L 164.864895 272.896923 
L 165.67049 272.813264 
L 166.476084 272.527304 
L 167.281678 271.55712 
L 168.087273 271.07047 
L 168.892867 271.230043 
L 169.698462 265.019014 
L 170.504056 265.89922 
L 171.30965 264.685426 
L 172.115245 263.696533 
L 172.920839 264.102347 
L 173.726434 264.307626 
L 175.337622 262.592093 
L 176.143217 257.601391 
L 176.948811 258.697698 
L 177.754406 260.141014 
L 178.56 265.143754 
L 179.365594 266.14725 
L 180.171189 264.782507 
L 181.782378 258.844026 
L 182.587972 261.771241 
L 183.393566 261.356829 
L 184.199161 259.614529 
L 185.004755 259.381495 
L 185.81035 258.938213 
L 186.615944 260.571924 
L 187.421538 263.230913 
L 188.227133 262.584257 
L 189.032727 262.590251 
L 189.838322 265.356444 
L 190.643916 264.274246 
L 191.44951 264.717352 
L 193.060699 260.235303 
L 193.866294 261.100961 
L 194.671888 259.45829 
L 195.477483 260.935588 
L 196.283077 256.373958 
L 197.088671 260.365845 
L 198.69986 258.902209 
L 199.505455 259.777381 
L 200.311049 259.503965 
L 201.116643 259.078448 
L 201.922238 258.912324 
L 202.727832 258.920615 
L 203.533427 258.256745 
L 204.339021 261.876561 
L 205.144615 260.722274 
L 205.95021 260.73676 
L 206.755804 261.579101 
L 207.561399 261.075494 
L 208.366993 260.362791 
L 210.783776 261.74349 
L 211.589371 261.445613 
L 212.394965 261.869972 
L 213.200559 259.561941 
L 214.006154 259.889894 
L 214.811748 261.748476 
L 215.617343 262.095532 
L 216.422937 262.619788 
L 217.228531 263.546319 
L 218.034126 262.899775 
L 218.83972 262.497517 
L 219.645315 262.7567 
L 220.450909 262.220583 
L 221.256503 263.032076 
L 222.062098 263.221098 
L 222.867692 262.782133 
L 223.673287 263.131523 
L 224.478881 261.60054 
L 225.284476 262.018616 
L 226.09007 261.051702 
L 226.895664 262.107436 
L 227.701259 261.883807 
L 228.506853 262.18669 
L 229.312448 261.802174 
L 230.118042 262.175732 
L 230.923636 262.14968 
L 232.534825 262.74989 
L 234.146014 262.563877 
L 234.951608 262.338728 
L 235.757203 262.636199 
L 236.562797 261.327803 
L 237.368392 260.382901 
L 238.173986 259.925439 
L 238.97958 260.332936 
L 239.785175 259.303527 
L 240.590769 257.934208 
L 241.396364 251.402998 
L 242.201958 251.845427 
L 243.007552 250.820188 
L 243.813147 250.831502 
L 244.618741 249.104232 
L 245.424336 246.46633 
L 246.22993 251.044448 
L 247.035524 249.90566 
L 247.841119 250.266507 
L 248.646713 246.932438 
L 249.452308 246.683404 
L 250.257902 247.574745 
L 251.063497 246.705885 
L 251.869091 247.204315 
L 252.674685 245.931983 
L 253.48028 248.940004 
L 254.285874 247.941294 
L 255.091469 246.661693 
L 255.897063 246.751223 
L 256.702657 246.202067 
L 257.508252 245.896261 
L 258.313846 243.636981 
L 259.119441 245.705452 
L 259.925035 246.566658 
L 260.730629 246.181596 
L 261.536224 248.016853 
L 262.341818 247.286725 
L 263.147413 247.425741 
L 263.953007 246.780515 
L 264.758601 249.382675 
L 265.564196 248.596611 
L 266.36979 249.334308 
L 267.175385 248.327767 
L 267.980979 248.460072 
L 268.786573 247.069995 
L 269.592168 247.325523 
L 270.397762 245.719672 
L 271.203357 248.81666 
L 272.008951 256.259756 
L 272.814545 254.566406 
L 273.62014 256.394558 
L 275.231329 255.14446 
L 276.036923 256.64379 
L 276.842517 256.122225 
L 277.648112 255.357699 
L 279.259301 254.780518 
L 280.064895 255.439884 
L 280.87049 253.412855 
L 281.676084 252.669288 
L 282.481678 251.645111 
L 283.287273 251.798388 
L 284.092867 251.759467 
L 284.898462 250.869501 
L 285.704056 251.847276 
L 286.50965 254.823149 
L 287.315245 254.138389 
L 288.120839 255.973036 
L 288.926434 253.027929 
L 289.732028 253.251277 
L 291.343217 252.78999 
L 292.148811 253.323951 
L 292.954406 252.434006 
L 293.76 252.761412 
L 294.565594 253.708046 
L 296.176783 254.095347 
L 297.787972 252.753946 
L 298.593566 253.693004 
L 299.399161 253.426992 
L 300.204755 251.850136 
L 301.01035 251.158367 
L 301.815944 249.615985 
L 302.621538 249.125597 
L 303.427133 248.142737 
L 304.232727 248.684229 
L 305.038322 248.813773 
L 305.843916 248.23968 
L 306.64951 249.391075 
L 307.455105 249.141954 
L 308.260699 248.265977 
L 309.066294 246.861104 
L 309.871888 245.823586 
L 310.677483 240.500599 
L 311.483077 239.275497 
L 312.288671 239.681749 
L 313.094266 238.481424 
L 313.89986 238.966599 
L 314.705455 238.701998 
L 315.511049 235.111189 
L 316.316643 237.40317 
L 317.122238 236.284873 
L 317.927832 235.701293 
L 318.733427 234.293849 
L 319.539021 234.509684 
L 320.344615 235.719906 
L 321.15021 233.176936 
L 321.955804 232.104485 
L 322.761399 223.633906 
L 323.566993 223.474312 
L 324.372587 228.001699 
L 325.178182 224.078824 
L 325.983776 224.726562 
L 326.789371 225.075697 
L 327.594965 222.618851 
L 328.400559 219.099958 
L 329.206154 218.994397 
L 330.011748 220.381817 
L 330.817343 221.065353 
L 331.622937 216.578145 
L 332.428531 210.735498 
L 333.234126 209.955503 
L 334.03972 209.736483 
L 334.845315 204.583321 
L 335.650909 204.595916 
L 336.456503 206.205234 
L 337.262098 206.365392 
L 338.067692 202.002536 
L 338.873287 204.230605 
L 339.678881 213.62777 
L 340.484476 213.842565 
L 341.29007 210.251054 
L 342.095664 207.495082 
L 342.901259 198.44579 
L 343.706853 203.993103 
L 344.512448 201.245384 
L 345.318042 200.014649 
L 346.123636 204.44248 
L 346.929231 201.554134 
L 347.734825 200.199004 
L 348.54042 201.372134 
L 349.346014 206.573879 
L 350.151608 205.150752 
L 350.957203 207.192276 
L 351.762797 208.307477 
L 352.568392 203.642777 
L 353.373986 201.651276 
L 354.17958 200.942613 
L 354.985175 199.969671 
L 355.790769 188.434922 
L 356.596364 179.53904 
L 357.401958 177.334188 
L 358.207552 173.135569 
L 359.013147 174.959172 
L 359.818741 179.597899 
L 360.624336 172.776104 
L 361.42993 176.364605 
L 362.235524 173.551446 
L 363.041119 167.796752 
L 363.846713 157.076273 
L 364.652308 158.019851 
L 365.457902 153.154627 
L 366.263497 151.435029 
L 367.069091 142.34746 
L 367.874685 141.418947 
L 368.68028 139.153502 
L 369.485874 122.092892 
L 370.291469 116.761507 
L 371.097063 122.79222 
L 371.902657 110.753782 
L 373.513846 76.502964 
L 374.319441 68.992443 
L 375.125035 72.105852 
L 375.930629 84.444399 
L 376.736224 100.637601 
L 377.541818 107.813375 
L 378.347413 91.606853 
L 379.153007 79.653841 
L 379.958601 93.366787 
L 380.764196 98.351435 
L 381.56979 99.723771 
L 382.375385 95.09763 
L 383.180979 98.831278 
L 383.986573 101.544661 
L 384.792168 128.895324 
L 385.597762 117.717583 
L 386.403357 122.454213 
L 387.208951 121.450779 
L 388.014545 121.097513 
L 388.82014 120.108944 
L 389.625734 132.370947 
L 390.431329 114.579028 
L 391.236923 109.606647 
L 392.042517 109.835678 
L 392.848112 116.593355 
L 393.653706 114.309117 
L 395.264895 90.310908 
L 396.07049 92.979007 
L 396.876084 87.420845 
L 397.681678 79.727147 
L 398.487273 82.106569 
L 398.487273 82.106569 
" style="fill:none;stroke:#d62728;stroke-linecap:square;stroke-width:1.5;"/>
   </g>
   <g id="patch_3">
    <path d="M 57.6 307.584 
L 57.6 41.472 
" style="fill:none;stroke:#000000;stroke-linecap:square;stroke-linejoin:miter;stroke-width:0.8;"/>
   </g>
   <g id="patch_4">
    <path d="M 414.72 307.584 
L 414.72 41.472 
" style="fill:none;stroke:#000000;stroke-linecap:square;stroke-linejoin:miter;stroke-width:0.8;"/>
   </g>
   <g id="patch_5">
    <path d="M 57.6 307.584 
L 414.72 307.584 
" style="fill:none;stroke:#000000;stroke-linecap:square;stroke-linejoin:miter;stroke-width:0.8;"/>
   </g>
   <g id="patch_6">
    <path d="M 57.6 41.472 
L 414.72 41.472 
" style="fill:none;stroke:#000000;stroke-linecap:square;stroke-linejoin:miter;stroke-width:0.8;"/>
   </g>
   <g id="text_17">
    <!-- Data source: nomics -->
    <g transform="translate(184.91625 35.472)scale(0.1 -0.1)">
     <defs>
      <path d="M 19.671875 64.796875 
L 19.671875 8.109375 
L 31.59375 8.109375 
Q 46.6875 8.109375 53.6875 14.9375 
Q 60.6875 21.78125 60.6875 36.53125 
Q 60.6875 51.171875 53.6875 57.984375 
Q 46.6875 64.796875 31.59375 64.796875 
z
M 9.8125 72.90625 
L 30.078125 72.90625 
Q 51.265625 72.90625 61.171875 64.09375 
Q 71.09375 55.28125 71.09375 36.53125 
Q 71.09375 17.671875 61.125 8.828125 
Q 51.171875 0 30.078125 0 
L 9.8125 0 
z
" id="DejaVuSans-68"/>
      <path d="M 34.28125 27.484375 
Q 23.390625 27.484375 19.1875 25 
Q 14.984375 22.515625 14.984375 16.5 
Q 14.984375 11.71875 18.140625 8.90625 
Q 21.296875 6.109375 26.703125 6.109375 
Q 34.1875 6.109375 38.703125 11.40625 
Q 43.21875 16.703125 43.21875 25.484375 
L 43.21875 27.484375 
z
M 52.203125 31.203125 
L 52.203125 0 
L 43.21875 0 
L 43.21875 8.296875 
Q 40.140625 3.328125 35.546875 0.953125 
Q 30.953125 -1.421875 24.3125 -1.421875 
Q 15.921875 -1.421875 10.953125 3.296875 
Q 6 8.015625 6 15.921875 
Q 6 25.140625 12.171875 29.828125 
Q 18.359375 34.515625 30.609375 34.515625 
L 43.21875 34.515625 
L 43.21875 35.40625 
Q 43.21875 41.609375 39.140625 45 
Q 35.0625 48.390625 27.6875 48.390625 
Q 23 48.390625 18.546875 47.265625 
Q 14.109375 46.140625 10.015625 43.890625 
L 10.015625 52.203125 
Q 14.9375 54.109375 19.578125 55.046875 
Q 24.21875 56 28.609375 56 
Q 40.484375 56 46.34375 49.84375 
Q 52.203125 43.703125 52.203125 31.203125 
z
" id="DejaVuSans-97"/>
      <path d="M 18.3125 70.21875 
L 18.3125 54.6875 
L 36.8125 54.6875 
L 36.8125 47.703125 
L 18.3125 47.703125 
L 18.3125 18.015625 
Q 18.3125 11.328125 20.140625 9.421875 
Q 21.96875 7.515625 27.59375 7.515625 
L 36.8125 7.515625 
L 36.8125 0 
L 27.59375 0 
Q 17.1875 0 13.234375 3.875 
Q 9.28125 7.765625 9.28125 18.015625 
L 9.28125 47.703125 
L 2.6875 47.703125 
L 2.6875 54.6875 
L 9.28125 54.6875 
L 9.28125 70.21875 
z
" id="DejaVuSans-116"/>
      <path id="DejaVuSans-32"/>
      <path d="M 44.28125 53.078125 
L 44.28125 44.578125 
Q 40.484375 46.53125 36.375 47.5 
Q 32.28125 48.484375 27.875 48.484375 
Q 21.1875 48.484375 17.84375 46.4375 
Q 14.5 44.390625 14.5 40.28125 
Q 14.5 37.15625 16.890625 35.375 
Q 19.28125 33.59375 26.515625 31.984375 
L 29.59375 31.296875 
Q 39.15625 29.25 43.1875 25.515625 
Q 47.21875 21.78125 47.21875 15.09375 
Q 47.21875 7.46875 41.1875 3.015625 
Q 35.15625 -1.421875 24.609375 -1.421875 
Q 20.21875 -1.421875 15.453125 -0.5625 
Q 10.6875 0.296875 5.421875 2 
L 5.421875 11.28125 
Q 10.40625 8.6875 15.234375 7.390625 
Q 20.0625 6.109375 24.8125 6.109375 
Q 31.15625 6.109375 34.5625 8.28125 
Q 37.984375 10.453125 37.984375 14.40625 
Q 37.984375 18.0625 35.515625 20.015625 
Q 33.0625 21.96875 24.703125 23.78125 
L 21.578125 24.515625 
Q 13.234375 26.265625 9.515625 29.90625 
Q 5.8125 33.546875 5.8125 39.890625 
Q 5.8125 47.609375 11.28125 51.796875 
Q 16.75 56 26.8125 56 
Q 31.78125 56 36.171875 55.265625 
Q 40.578125 54.546875 44.28125 53.078125 
z
" id="DejaVuSans-115"/>
      <path d="M 30.609375 48.390625 
Q 23.390625 48.390625 19.1875 42.75 
Q 14.984375 37.109375 14.984375 27.296875 
Q 14.984375 17.484375 19.15625 11.84375 
Q 23.34375 6.203125 30.609375 6.203125 
Q 37.796875 6.203125 41.984375 11.859375 
Q 46.1875 17.53125 46.1875 27.296875 
Q 46.1875 37.015625 41.984375 42.703125 
Q 37.796875 48.390625 30.609375 48.390625 
z
M 30.609375 56 
Q 42.328125 56 49.015625 48.375 
Q 55.71875 40.765625 55.71875 27.296875 
Q 55.71875 13.875 49.015625 6.21875 
Q 42.328125 -1.421875 30.609375 -1.421875 
Q 18.84375 -1.421875 12.171875 6.21875 
Q 5.515625 13.875 5.515625 27.296875 
Q 5.515625 40.765625 12.171875 48.375 
Q 18.84375 56 30.609375 56 
z
" id="DejaVuSans-111"/>
      <path d="M 8.5 21.578125 
L 8.5 54.6875 
L 17.484375 54.6875 
L 17.484375 21.921875 
Q 17.484375 14.15625 20.5 10.265625 
Q 23.53125 6.390625 29.59375 6.390625 
Q 36.859375 6.390625 41.078125 11.03125 
Q 45.3125 15.671875 45.3125 23.6875 
L 45.3125 54.6875 
L 54.296875 54.6875 
L 54.296875 0 
L 45.3125 0 
L 45.3125 8.40625 
Q 42.046875 3.421875 37.71875 1 
Q 33.40625 -1.421875 27.6875 -1.421875 
Q 18.265625 -1.421875 13.375 4.4375 
Q 8.5 10.296875 8.5 21.578125 
z
M 31.109375 56 
z
" id="DejaVuSans-117"/>
      <path d="M 41.109375 46.296875 
Q 39.59375 47.171875 37.8125 47.578125 
Q 36.03125 48 33.890625 48 
Q 26.265625 48 22.1875 43.046875 
Q 18.109375 38.09375 18.109375 28.8125 
L 18.109375 0 
L 9.078125 0 
L 9.078125 54.6875 
L 18.109375 54.6875 
L 18.109375 46.1875 
Q 20.953125 51.171875 25.484375 53.578125 
Q 30.03125 56 36.53125 56 
Q 37.453125 56 38.578125 55.875 
Q 39.703125 55.765625 41.0625 55.515625 
z
" id="DejaVuSans-114"/>
      <path d="M 48.78125 52.59375 
L 48.78125 44.1875 
Q 44.96875 46.296875 41.140625 47.34375 
Q 37.3125 48.390625 33.40625 48.390625 
Q 24.65625 48.390625 19.8125 42.84375 
Q 14.984375 37.3125 14.984375 27.296875 
Q 14.984375 17.28125 19.8125 11.734375 
Q 24.65625 6.203125 33.40625 6.203125 
Q 37.3125 6.203125 41.140625 7.25 
Q 44.96875 8.296875 48.78125 10.40625 
L 48.78125 2.09375 
Q 45.015625 0.34375 40.984375 -0.53125 
Q 36.96875 -1.421875 32.421875 -1.421875 
Q 20.0625 -1.421875 12.78125 6.34375 
Q 5.515625 14.109375 5.515625 27.296875 
Q 5.515625 40.671875 12.859375 48.328125 
Q 20.21875 56 33.015625 56 
Q 37.15625 56 41.109375 55.140625 
Q 45.0625 54.296875 48.78125 52.59375 
z
" id="DejaVuSans-99"/>
      <path d="M 56.203125 29.59375 
L 56.203125 25.203125 
L 14.890625 25.203125 
Q 15.484375 15.921875 20.484375 11.0625 
Q 25.484375 6.203125 34.421875 6.203125 
Q 39.59375 6.203125 44.453125 7.46875 
Q 49.3125 8.734375 54.109375 11.28125 
L 54.109375 2.78125 
Q 49.265625 0.734375 44.1875 -0.34375 
Q 39.109375 -1.421875 33.890625 -1.421875 
Q 20.796875 -1.421875 13.15625 6.1875 
Q 5.515625 13.8125 5.515625 26.8125 
Q 5.515625 40.234375 12.765625 48.109375 
Q 20.015625 56 32.328125 56 
Q 43.359375 56 49.78125 48.890625 
Q 56.203125 41.796875 56.203125 29.59375 
z
M 47.21875 32.234375 
Q 47.125 39.59375 43.09375 43.984375 
Q 39.0625 48.390625 32.421875 48.390625 
Q 24.90625 48.390625 20.390625 44.140625 
Q 15.875 39.890625 15.1875 32.171875 
z
" id="DejaVuSans-101"/>
      <path d="M 11.71875 12.40625 
L 22.015625 12.40625 
L 22.015625 0 
L 11.71875 0 
z
M 11.71875 51.703125 
L 22.015625 51.703125 
L 22.015625 39.3125 
L 11.71875 39.3125 
z
" id="DejaVuSans-58"/>
      <path d="M 54.890625 33.015625 
L 54.890625 0 
L 45.90625 0 
L 45.90625 32.71875 
Q 45.90625 40.484375 42.875 44.328125 
Q 39.84375 48.1875 33.796875 48.1875 
Q 26.515625 48.1875 22.3125 43.546875 
Q 18.109375 38.921875 18.109375 30.90625 
L 18.109375 0 
L 9.078125 0 
L 9.078125 54.6875 
L 18.109375 54.6875 
L 18.109375 46.1875 
Q 21.34375 51.125 25.703125 53.5625 
Q 30.078125 56 35.796875 56 
Q 45.21875 56 50.046875 50.171875 
Q 54.890625 44.34375 54.890625 33.015625 
z
" id="DejaVuSans-110"/>
      <path d="M 52 44.1875 
Q 55.375 50.25 60.0625 53.125 
Q 64.75 56 71.09375 56 
Q 79.640625 56 84.28125 50.015625 
Q 88.921875 44.046875 88.921875 33.015625 
L 88.921875 0 
L 79.890625 0 
L 79.890625 32.71875 
Q 79.890625 40.578125 77.09375 44.375 
Q 74.3125 48.1875 68.609375 48.1875 
Q 61.625 48.1875 57.5625 43.546875 
Q 53.515625 38.921875 53.515625 30.90625 
L 53.515625 0 
L 44.484375 0 
L 44.484375 32.71875 
Q 44.484375 40.625 41.703125 44.40625 
Q 38.921875 48.1875 33.109375 48.1875 
Q 26.21875 48.1875 22.15625 43.53125 
Q 18.109375 38.875 18.109375 30.90625 
L 18.109375 0 
L 9.078125 0 
L 9.078125 54.6875 
L 18.109375 54.6875 
L 18.109375 46.1875 
Q 21.1875 51.21875 25.484375 53.609375 
Q 29.78125 56 35.6875 56 
Q 41.65625 56 45.828125 52.96875 
Q 50 49.953125 52 44.1875 
z
" id="DejaVuSans-109"/>
      <path d="M 9.421875 54.6875 
L 18.40625 54.6875 
L 18.40625 0 
L 9.421875 0 
z
M 9.421875 75.984375 
L 18.40625 75.984375 
L 18.40625 64.59375 
L 9.421875 64.59375 
z
" id="DejaVuSans-105"/>
     </defs>
     <use xlink:href="#DejaVuSans-68"/>
     <use x="77.001953" xlink:href="#DejaVuSans-97"/>
     <use x="138.28125" xlink:href="#DejaVuSans-116"/>
     <use x="177.490234" xlink:href="#DejaVuSans-97"/>
     <use x="238.769531" xlink:href="#DejaVuSans-32"/>
     <use x="270.556641" xlink:href="#DejaVuSans-115"/>
     <use x="322.65625" xlink:href="#DejaVuSans-111"/>
     <use x="383.837891" xlink:href="#DejaVuSans-117"/>
     <use x="447.216797" xlink:href="#DejaVuSans-114"/>
     <use x="486.080078" xlink:href="#DejaVuSans-99"/>
     <use x="541.060547" xlink:href="#DejaVuSans-101"/>
     <use x="602.583984" xlink:href="#DejaVuSans-58"/>
     <use x="636.275391" xlink:href="#DejaVuSans-32"/>
     <use x="668.0625" xlink:href="#DejaVuSans-110"/>
     <use x="731.441406" xlink:href="#DejaVuSans-111"/>
     <use x="792.623047" xlink:href="#DejaVuSans-109"/>
     <use x="890.035156" xlink:href="#DejaVuSans-105"/>
     <use x="917.818359" xlink:href="#DejaVuSans-99"/>
     <use x="972.798828" xlink:href="#DejaVuSans-115"/>
    </g>
   </g>
   <g id="legend_1">
    <g id="patch_7">
     <path d="M 64.6 108.1845 
L 155.732812 108.1845 
Q 157.732812 108.1845 157.732812 106.1845 
L 157.732812 48.472 
Q 157.732812 46.472 155.732812 46.472 
L 64.6 46.472 
Q 62.6 46.472 62.6 48.472 
L 62.6 106.1845 
Q 62.6 108.1845 64.6 108.1845 
z
" style="fill:#ffffff;opacity:0.8;stroke:#cccccc;stroke-linejoin:miter;"/>
    </g>
    <g id="line2d_21">
     <path d="M 66.6 54.570438 
L 86.6 54.570438 
" style="fill:none;stroke:#1f77b4;stroke-linecap:square;stroke-width:1.5;"/>
    </g>
    <g id="line2d_22"/>
    <g id="text_18">
     <!-- Upper Band -->
     <g transform="translate(94.6 58.070438)scale(0.1 -0.1)">
      <defs>
       <path d="M 8.6875 72.90625 
L 18.609375 72.90625 
L 18.609375 28.609375 
Q 18.609375 16.890625 22.84375 11.734375 
Q 27.09375 6.59375 36.625 6.59375 
Q 46.09375 6.59375 50.34375 11.734375 
Q 54.59375 16.890625 54.59375 28.609375 
L 54.59375 72.90625 
L 64.5 72.90625 
L 64.5 27.390625 
Q 64.5 13.140625 57.4375 5.859375 
Q 50.390625 -1.421875 36.625 -1.421875 
Q 22.796875 -1.421875 15.734375 5.859375 
Q 8.6875 13.140625 8.6875 27.390625 
z
" id="DejaVuSans-85"/>
       <path d="M 18.109375 8.203125 
L 18.109375 -20.796875 
L 9.078125 -20.796875 
L 9.078125 54.6875 
L 18.109375 54.6875 
L 18.109375 46.390625 
Q 20.953125 51.265625 25.265625 53.625 
Q 29.59375 56 35.59375 56 
Q 45.5625 56 51.78125 48.09375 
Q 58.015625 40.1875 58.015625 27.296875 
Q 58.015625 14.40625 51.78125 6.484375 
Q 45.5625 -1.421875 35.59375 -1.421875 
Q 29.59375 -1.421875 25.265625 0.953125 
Q 20.953125 3.328125 18.109375 8.203125 
z
M 48.6875 27.296875 
Q 48.6875 37.203125 44.609375 42.84375 
Q 40.53125 48.484375 33.40625 48.484375 
Q 26.265625 48.484375 22.1875 42.84375 
Q 18.109375 37.203125 18.109375 27.296875 
Q 18.109375 17.390625 22.1875 11.75 
Q 26.265625 6.109375 33.40625 6.109375 
Q 40.53125 6.109375 44.609375 11.75 
Q 48.6875 17.390625 48.6875 27.296875 
z
" id="DejaVuSans-112"/>
       <path d="M 19.671875 34.8125 
L 19.671875 8.109375 
L 35.5 8.109375 
Q 43.453125 8.109375 47.28125 11.40625 
Q 51.125 14.703125 51.125 21.484375 
Q 51.125 28.328125 47.28125 31.5625 
Q 43.453125 34.8125 35.5 34.8125 
z
M 19.671875 64.796875 
L 19.671875 42.828125 
L 34.28125 42.828125 
Q 41.5 42.828125 45.03125 45.53125 
Q 48.578125 48.25 48.578125 53.8125 
Q 48.578125 59.328125 45.03125 62.0625 
Q 41.5 64.796875 34.28125 64.796875 
z
M 9.8125 72.90625 
L 35.015625 72.90625 
Q 46.296875 72.90625 52.390625 68.21875 
Q 58.5 63.53125 58.5 54.890625 
Q 58.5 48.1875 55.375 44.234375 
Q 52.25 40.28125 46.1875 39.3125 
Q 53.46875 37.75 57.5 32.78125 
Q 61.53125 27.828125 61.53125 20.40625 
Q 61.53125 10.640625 54.890625 5.3125 
Q 48.25 0 35.984375 0 
L 9.8125 0 
z
" id="DejaVuSans-66"/>
       <path d="M 45.40625 46.390625 
L 45.40625 75.984375 
L 54.390625 75.984375 
L 54.390625 0 
L 45.40625 0 
L 45.40625 8.203125 
Q 42.578125 3.328125 38.25 0.953125 
Q 33.9375 -1.421875 27.875 -1.421875 
Q 17.96875 -1.421875 11.734375 6.484375 
Q 5.515625 14.40625 5.515625 27.296875 
Q 5.515625 40.1875 11.734375 48.09375 
Q 17.96875 56 27.875 56 
Q 33.9375 56 38.25 53.625 
Q 42.578125 51.265625 45.40625 46.390625 
z
M 14.796875 27.296875 
Q 14.796875 17.390625 18.875 11.75 
Q 22.953125 6.109375 30.078125 6.109375 
Q 37.203125 6.109375 41.296875 11.75 
Q 45.40625 17.390625 45.40625 27.296875 
Q 45.40625 37.203125 41.296875 42.84375 
Q 37.203125 48.484375 30.078125 48.484375 
Q 22.953125 48.484375 18.875 42.84375 
Q 14.796875 37.203125 14.796875 27.296875 
z
" id="DejaVuSans-100"/>
      </defs>
      <use xlink:href="#DejaVuSans-85"/>
      <use x="73.193359" xlink:href="#DejaVuSans-112"/>
      <use x="136.669922" xlink:href="#DejaVuSans-112"/>
      <use x="200.146484" xlink:href="#DejaVuSans-101"/>
      <use x="261.669922" xlink:href="#DejaVuSans-114"/>
      <use x="302.783203" xlink:href="#DejaVuSans-32"/>
      <use x="334.570312" xlink:href="#DejaVuSans-66"/>
      <use x="403.173828" xlink:href="#DejaVuSans-97"/>
      <use x="464.453125" xlink:href="#DejaVuSans-110"/>
      <use x="527.832031" xlink:href="#DejaVuSans-100"/>
     </g>
    </g>
    <g id="line2d_23">
     <path d="M 66.6 69.248563 
L 86.6 69.248563 
" style="fill:none;stroke:#ff7f0e;stroke-linecap:square;stroke-width:1.5;"/>
    </g>
    <g id="line2d_24"/>
    <g id="text_19">
     <!-- Lower Band -->
     <g transform="translate(94.6 72.748563)scale(0.1 -0.1)">
      <defs>
       <path d="M 9.8125 72.90625 
L 19.671875 72.90625 
L 19.671875 8.296875 
L 55.171875 8.296875 
L 55.171875 0 
L 9.8125 0 
z
" id="DejaVuSans-76"/>
       <path d="M 4.203125 54.6875 
L 13.1875 54.6875 
L 24.421875 12.015625 
L 35.59375 54.6875 
L 46.1875 54.6875 
L 57.421875 12.015625 
L 68.609375 54.6875 
L 77.59375 54.6875 
L 63.28125 0 
L 52.6875 0 
L 40.921875 44.828125 
L 29.109375 0 
L 18.5 0 
z
" id="DejaVuSans-119"/>
      </defs>
      <use xlink:href="#DejaVuSans-76"/>
      <use x="53.962891" xlink:href="#DejaVuSans-111"/>
      <use x="115.144531" xlink:href="#DejaVuSans-119"/>
      <use x="196.931641" xlink:href="#DejaVuSans-101"/>
      <use x="258.455078" xlink:href="#DejaVuSans-114"/>
      <use x="299.568359" xlink:href="#DejaVuSans-32"/>
      <use x="331.355469" xlink:href="#DejaVuSans-66"/>
      <use x="399.958984" xlink:href="#DejaVuSans-97"/>
      <use x="461.238281" xlink:href="#DejaVuSans-110"/>
      <use x="524.617188" xlink:href="#DejaVuSans-100"/>
     </g>
    </g>
    <g id="line2d_25">
     <path d="M 66.6 83.926688 
L 86.6 83.926688 
" style="fill:none;stroke:#2ca02c;stroke-linecap:square;stroke-width:1.5;"/>
    </g>
    <g id="line2d_26"/>
    <g id="text_20">
     <!-- MA -->
     <g transform="translate(94.6 87.426688)scale(0.1 -0.1)">
      <defs>
       <path d="M 9.8125 72.90625 
L 24.515625 72.90625 
L 43.109375 23.296875 
L 61.8125 72.90625 
L 76.515625 72.90625 
L 76.515625 0 
L 66.890625 0 
L 66.890625 64.015625 
L 48.09375 14.015625 
L 38.1875 14.015625 
L 19.390625 64.015625 
L 19.390625 0 
L 9.8125 0 
z
" id="DejaVuSans-77"/>
       <path d="M 34.1875 63.1875 
L 20.796875 26.90625 
L 47.609375 26.90625 
z
M 28.609375 72.90625 
L 39.796875 72.90625 
L 67.578125 0 
L 57.328125 0 
L 50.6875 18.703125 
L 17.828125 18.703125 
L 11.1875 0 
L 0.78125 0 
z
" id="DejaVuSans-65"/>
      </defs>
      <use xlink:href="#DejaVuSans-77"/>
      <use x="86.279297" xlink:href="#DejaVuSans-65"/>
     </g>
    </g>
    <g id="line2d_27">
     <path d="M 66.6 98.604813 
L 86.6 98.604813 
" style="fill:none;stroke:#d62728;stroke-linecap:square;stroke-width:1.5;"/>
    </g>
    <g id="line2d_28"/>
    <g id="text_21">
     <!-- BTC-USD -->
     <g transform="translate(94.6 102.104813)scale(0.1 -0.1)">
      <defs>
       <path d="M -0.296875 72.90625 
L 61.375 72.90625 
L 61.375 64.59375 
L 35.5 64.59375 
L 35.5 0 
L 25.59375 0 
L 25.59375 64.59375 
L -0.296875 64.59375 
z
" id="DejaVuSans-84"/>
       <path d="M 64.40625 67.28125 
L 64.40625 56.890625 
Q 59.421875 61.53125 53.78125 63.8125 
Q 48.140625 66.109375 41.796875 66.109375 
Q 29.296875 66.109375 22.65625 58.46875 
Q 16.015625 50.828125 16.015625 36.375 
Q 16.015625 21.96875 22.65625 14.328125 
Q 29.296875 6.6875 41.796875 6.6875 
Q 48.140625 6.6875 53.78125 8.984375 
Q 59.421875 11.28125 64.40625 15.921875 
L 64.40625 5.609375 
Q 59.234375 2.09375 53.4375 0.328125 
Q 47.65625 -1.421875 41.21875 -1.421875 
Q 24.65625 -1.421875 15.125 8.703125 
Q 5.609375 18.84375 5.609375 36.375 
Q 5.609375 53.953125 15.125 64.078125 
Q 24.65625 74.21875 41.21875 74.21875 
Q 47.75 74.21875 53.53125 72.484375 
Q 59.328125 70.75 64.40625 67.28125 
z
" id="DejaVuSans-67"/>
       <path d="M 53.515625 70.515625 
L 53.515625 60.890625 
Q 47.90625 63.578125 42.921875 64.890625 
Q 37.9375 66.21875 33.296875 66.21875 
Q 25.25 66.21875 20.875 63.09375 
Q 16.5 59.96875 16.5 54.203125 
Q 16.5 49.359375 19.40625 46.890625 
Q 22.3125 44.4375 30.421875 42.921875 
L 36.375 41.703125 
Q 47.40625 39.59375 52.65625 34.296875 
Q 57.90625 29 57.90625 20.125 
Q 57.90625 9.515625 50.796875 4.046875 
Q 43.703125 -1.421875 29.984375 -1.421875 
Q 24.8125 -1.421875 18.96875 -0.25 
Q 13.140625 0.921875 6.890625 3.21875 
L 6.890625 13.375 
Q 12.890625 10.015625 18.65625 8.296875 
Q 24.421875 6.59375 29.984375 6.59375 
Q 38.421875 6.59375 43.015625 9.90625 
Q 47.609375 13.234375 47.609375 19.390625 
Q 47.609375 24.75 44.3125 27.78125 
Q 41.015625 30.8125 33.5 32.328125 
L 27.484375 33.5 
Q 16.453125 35.6875 11.515625 40.375 
Q 6.59375 45.0625 6.59375 53.421875 
Q 6.59375 63.09375 13.40625 68.65625 
Q 20.21875 74.21875 32.171875 74.21875 
Q 37.3125 74.21875 42.625 73.28125 
Q 47.953125 72.359375 53.515625 70.515625 
z
" id="DejaVuSans-83"/>
      </defs>
      <use xlink:href="#DejaVuSans-66"/>
      <use x="68.603516" xlink:href="#DejaVuSans-84"/>
      <use x="123.8125" xlink:href="#DejaVuSans-67"/>
      <use x="193.636719" xlink:href="#DejaVuSans-45"/>
      <use x="229.720703" xlink:href="#DejaVuSans-85"/>
      <use x="302.914062" xlink:href="#DejaVuSans-83"/>
      <use x="366.390625" xlink:href="#DejaVuSans-68"/>
     </g>
    </g>
   </g>
  </g>
  <g id="text_22">
   <!-- Bollinger Band -->
   <g transform="translate(171.90625 19.0695)scale(0.16 -0.16)">
    <defs>
     <path d="M 9.421875 75.984375 
L 18.40625 75.984375 
L 18.40625 0 
L 9.421875 0 
z
" id="DejaVuSans-108"/>
     <path d="M 45.40625 27.984375 
Q 45.40625 37.75 41.375 43.109375 
Q 37.359375 48.484375 30.078125 48.484375 
Q 22.859375 48.484375 18.828125 43.109375 
Q 14.796875 37.75 14.796875 27.984375 
Q 14.796875 18.265625 18.828125 12.890625 
Q 22.859375 7.515625 30.078125 7.515625 
Q 37.359375 7.515625 41.375 12.890625 
Q 45.40625 18.265625 45.40625 27.984375 
z
M 54.390625 6.78125 
Q 54.390625 -7.171875 48.1875 -13.984375 
Q 42 -20.796875 29.203125 -20.796875 
Q 24.46875 -20.796875 20.265625 -20.09375 
Q 16.0625 -19.390625 12.109375 -17.921875 
L 12.109375 -9.1875 
Q 16.0625 -11.328125 19.921875 -12.34375 
Q 23.78125 -13.375 27.78125 -13.375 
Q 36.625 -13.375 41.015625 -8.765625 
Q 45.40625 -4.15625 45.40625 5.171875 
L 45.40625 9.625 
Q 42.625 4.78125 38.28125 2.390625 
Q 33.9375 0 27.875 0 
Q 17.828125 0 11.671875 7.65625 
Q 5.515625 15.328125 5.515625 27.984375 
Q 5.515625 40.671875 11.671875 48.328125 
Q 17.828125 56 27.875 56 
Q 33.9375 56 38.28125 53.609375 
Q 42.625 51.21875 45.40625 46.390625 
L 45.40625 54.6875 
L 54.390625 54.6875 
z
" id="DejaVuSans-103"/>
    </defs>
    <use xlink:href="#DejaVuSans-66"/>
    <use x="68.603516" xlink:href="#DejaVuSans-111"/>
    <use x="129.785156" xlink:href="#DejaVuSans-108"/>
    <use x="157.568359" xlink:href="#DejaVuSans-108"/>
    <use x="185.351562" xlink:href="#DejaVuSans-105"/>
    <use x="213.134766" xlink:href="#DejaVuSans-110"/>
    <use x="276.513672" xlink:href="#DejaVuSans-103"/>
    <use x="339.990234" xlink:href="#DejaVuSans-101"/>
    <use x="401.513672" xlink:href="#DejaVuSans-114"/>
    <use x="442.626953" xlink:href="#DejaVuSans-32"/>
    <use x="474.414062" xlink:href="#DejaVuSans-66"/>
    <use x="543.017578" xlink:href="#DejaVuSans-97"/>
    <use x="604.296875" xlink:href="#DejaVuSans-110"/>
    <use x="667.675781" xlink:href="#DejaVuSans-100"/>
   </g>
  </g>
 </g>
 <defs>
  <clipPath id="p7cd964b841">
   <rect height="266.112" width="357.12" x="57.6" y="41.472"/>
  </clipPath>
 </defs>
</svg>
