<?xml version="1.0" encoding="utf-8" standalone="no"?>
<!DOCTYPE svg PUBLIC "-//W3C//DTD SVG 1.1//EN"
  "http://www.w3.org/Graphics/SVG/1.1/DTD/svg11.dtd">
<!-- Created with matplotlib (https://matplotlib.org/) -->
<svg height="345.6pt" version="1.1" viewBox="0 0 460.8 345.6" width="460.8pt" xmlns="http://www.w3.org/2000/svg" xmlns:xlink="http://www.w3.org/1999/xlink">
 <metadata>
  <rdf:RDF xmlns:cc="http://creativecommons.org/ns#" xmlns:dc="http://purl.org/dc/elements/1.1/" xmlns:rdf="http://www.w3.org/1999/02/22-rdf-syntax-ns#">
   <cc:Work>
    <dc:type rdf:resource="http://purl.org/dc/dcmitype/StillImage"/>
    <dc:date>2020-12-31T11:01:32.976283</dc:date>
    <dc:format>image/svg+xml</dc:format>
    <dc:creator>
     <cc:Agent>
      <dc:title>Matplotlib v3.3.2, https://matplotlib.org/</dc:title>
     </cc:Agent>
    </dc:creator>
   </cc:Work>
  </rdf:RDF>
 </metadata>
 <defs>
  <style type="text/css">*{stroke-linecap:butt;stroke-linejoin:round;}</style>
 </defs>
 <g id="figure_1">
  <g id="patch_1">
   <path d="M 0 345.6 
L 460.8 345.6 
L 460.8 0 
L 0 0 
z
" style="fill:#ffffff;"/>
  </g>
  <g id="axes_1">
   <g id="patch_2">
    <path d="M 57.6 307.584 
L 414.72 307.584 
L 414.72 41.472 
L 57.6 41.472 
z
" style="fill:#ffffff;"/>
   </g>
   <g id="PolyCollection_1">
    <defs>
     <path d="M 90.778981 -79.48751 
L 90.778981 -102.902172 
L 91.670889 -103.183566 
L 92.562797 -102.775678 
L 93.454705 -102.423873 
L 94.346613 -101.904759 
L 95.238521 -101.040196 
L 96.13043 -100.828837 
L 97.022338 -101.301521 
L 97.914246 -102.658034 
L 98.806154 -103.180372 
L 99.698062 -104.42482 
L 100.58997 -104.877227 
L 101.481878 -105.406995 
L 102.373786 -105.536321 
L 103.265694 -105.958584 
L 104.157602 -106.199348 
L 105.04951 -107.104442 
L 105.941419 -108.16589 
L 106.833327 -109.214794 
L 107.725235 -110.281402 
L 108.617143 -111.691521 
L 109.509051 -112.349467 
L 110.400959 -113.585639 
L 111.292867 -114.452483 
L 112.184775 -114.823966 
L 113.076683 -114.886216 
L 113.968591 -114.363269 
L 114.8605 -114.097005 
L 115.752408 -114.083705 
L 116.644316 -114.407925 
L 117.536224 -114.39111 
L 118.428132 -114.277049 
L 119.32004 -114.176922 
L 120.211948 -113.999153 
L 121.103856 -113.816544 
L 121.995764 -113.224279 
L 122.887672 -113.561249 
L 123.77958 -114.836892 
L 124.671489 -115.594653 
L 125.563397 -116.183178 
L 126.455305 -116.474483 
L 127.347213 -116.810448 
L 128.239121 -116.095767 
L 129.131029 -115.160788 
L 130.022937 -114.250367 
L 130.914845 -112.794754 
L 131.806753 -112.109298 
L 132.698661 -111.291871 
L 133.590569 -111.449369 
L 134.482478 -110.459381 
L 135.374386 -110.354697 
L 136.266294 -109.902931 
L 137.158202 -115.868354 
L 138.05011 -117.055109 
L 138.942018 -117.469008 
L 139.833926 -117.145652 
L 140.725834 -117.054257 
L 141.617742 -116.726972 
L 142.50965 -115.9015 
L 143.401558 -114.545008 
L 144.293467 -113.231306 
L 145.185375 -111.747168 
L 146.077283 -109.501167 
L 146.969191 -107.259139 
L 147.861099 -104.911275 
L 148.753007 -101.614814 
L 149.644915 -97.637231 
L 150.536823 -93.752094 
L 151.428731 -91.301308 
L 152.320639 -88.648589 
L 153.212547 -86.138584 
L 154.104456 -82.856218 
L 154.996364 -82.984832 
L 155.888272 -83.81083 
L 156.78018 -83.970744 
L 157.672088 -84.315527 
L 158.563996 -83.68431 
L 159.455904 -84.1444 
L 160.347812 -84.435903 
L 161.23972 -85.427772 
L 162.131628 -86.213102 
L 163.023536 -86.307431 
L 163.915445 -85.688529 
L 164.807353 -86.049215 
L 165.699261 -86.047841 
L 166.591169 -86.129532 
L 167.483077 -86.133298 
L 168.374985 -86.353251 
L 169.266893 -86.296967 
L 170.158801 -85.410735 
L 171.050709 -85.497915 
L 171.942617 -85.148289 
L 172.834525 -85.044445 
L 173.726434 -85.152521 
L 174.618342 -85.924688 
L 175.51025 -86.506844 
L 176.402158 -87.13368 
L 177.294066 -87.617959 
L 178.185974 -88.148596 
L 179.077882 -88.761448 
L 179.96979 -90.732593 
L 180.861698 -93.741723 
L 181.753606 -96.127407 
L 182.645514 -98.455572 
L 183.537423 -100.106029 
L 184.429331 -101.494376 
L 185.321239 -102.674875 
L 186.213147 -104.509718 
L 187.105055 -106.291164 
L 187.996963 -109.164574 
L 188.888871 -110.968304 
L 189.780779 -110.577032 
L 190.672687 -110.169771 
L 191.564595 -109.726692 
L 192.456503 -109.883065 
L 193.348412 -110.427449 
L 194.24032 -110.683648 
L 195.132228 -110.531104 
L 196.024136 -110.584199 
L 196.916044 -109.99448 
L 197.807952 -110.255012 
L 198.69986 -110.788105 
L 199.591768 -110.776449 
L 200.483676 -110.74064 
L 201.375584 -110.647344 
L 202.267493 -110.514918 
L 203.159401 -110.608835 
L 204.051309 -110.671809 
L 204.943217 -110.623563 
L 205.835125 -109.655653 
L 206.727033 -109.261248 
L 207.618941 -109.003807 
L 208.510849 -109.102831 
L 209.402757 -108.966767 
L 210.294665 -110.158709 
L 211.186573 -110.169988 
L 212.078482 -110.174566 
L 212.97039 -110.580343 
L 213.862298 -110.458193 
L 214.754206 -110.442977 
L 215.646114 -110.360069 
L 216.538022 -110.225438 
L 217.42993 -110.519104 
L 218.321838 -110.851919 
L 219.213746 -110.858993 
L 220.105654 -110.844771 
L 220.997562 -110.284344 
L 221.889471 -109.89376 
L 222.781379 -109.322149 
L 223.673287 -109.139412 
L 224.565195 -109.139682 
L 225.457103 -109.236397 
L 226.349011 -109.280215 
L 227.240919 -109.283323 
L 228.132827 -108.124627 
L 229.024735 -108.122308 
L 229.916643 -108.113547 
L 230.808551 -107.701933 
L 231.70046 -107.673193 
L 232.592368 -107.60503 
L 233.484276 -107.490573 
L 234.376184 -107.247796 
L 235.268092 -106.759771 
L 236.16 -105.964402 
L 237.051908 -105.789373 
L 237.943816 -105.690463 
L 238.835724 -105.578946 
L 239.727632 -105.605672 
L 240.61954 -105.326472 
L 241.511449 -105.074293 
L 242.403357 -104.863472 
L 243.295265 -105.006906 
L 244.187173 -104.934949 
L 245.079081 -104.876148 
L 245.970989 -104.589553 
L 246.862897 -103.943896 
L 247.754805 -103.353684 
L 248.646713 -103.290162 
L 249.538621 -103.292057 
L 250.430529 -103.289289 
L 251.322438 -103.169071 
L 252.214346 -103.152834 
L 253.106254 -103.158463 
L 253.998162 -103.173571 
L 254.89007 -103.384929 
L 255.781978 -103.940092 
L 256.673886 -104.452851 
L 257.565794 -104.998502 
L 258.457702 -105.785704 
L 259.34961 -108.348581 
L 260.241518 -112.525059 
L 261.133427 -115.439705 
L 262.025335 -117.979659 
L 262.917243 -120.043269 
L 263.809151 -122.53975 
L 264.701059 -124.546194 
L 265.592967 -125.984153 
L 266.484875 -127.391903 
L 267.376783 -128.40801 
L 268.268691 -130.191879 
L 269.160599 -131.664438 
L 270.052507 -132.354611 
L 270.944416 -132.891543 
L 271.836324 -133.631278 
L 272.728232 -133.833366 
L 273.62014 -133.279775 
L 274.512048 -132.576973 
L 275.403956 -131.618946 
L 276.295864 -130.233708 
L 277.187772 -129.604557 
L 278.07968 -129.81817 
L 278.971588 -130.84372 
L 279.863497 -130.947406 
L 280.755405 -130.782191 
L 281.647313 -130.735666 
L 282.539221 -130.655864 
L 283.431129 -130.342695 
L 284.323037 -130.144376 
L 285.214945 -129.909614 
L 286.106853 -129.925736 
L 286.998761 -130.025049 
L 287.890669 -130.047089 
L 288.782577 -130.042263 
L 289.674486 -129.677008 
L 290.566394 -129.556253 
L 291.458302 -129.754873 
L 292.35021 -129.83374 
L 293.242118 -129.940531 
L 294.134026 -131.914442 
L 295.025934 -132.575419 
L 295.917842 -133.47652 
L 296.80975 -133.027714 
L 297.701658 -132.765351 
L 298.593566 -132.718063 
L 299.485475 -132.467306 
L 300.377383 -131.95707 
L 301.269291 -131.39431 
L 302.161199 -130.563114 
L 303.053107 -130.100596 
L 303.945015 -129.542271 
L 304.836923 -129.283188 
L 305.728831 -128.699801 
L 306.620739 -128.027092 
L 307.512647 -127.143576 
L 308.404555 -125.96673 
L 309.296464 -123.631015 
L 310.188372 -121.295132 
L 311.08028 -120.08882 
L 311.972188 -120.208875 
L 312.864096 -120.377383 
L 313.756004 -120.377988 
L 314.647912 -120.367493 
L 315.53982 -120.546207 
L 316.431728 -120.156854 
L 317.323636 -120.092491 
L 318.215544 -119.9851 
L 319.107453 -119.915928 
L 319.999361 -119.680581 
L 320.891269 -119.677552 
L 321.783177 -119.619013 
L 322.675085 -119.183334 
L 323.566993 -118.891505 
L 324.458901 -118.826252 
L 325.350809 -118.864766 
L 326.242717 -119.955334 
L 327.134625 -121.134621 
L 328.026533 -122.534183 
L 328.918442 -123.129859 
L 329.81035 -123.885289 
L 330.702258 -124.704029 
L 331.594166 -125.105719 
L 332.486074 -125.523938 
L 333.377982 -126.130991 
L 334.26989 -127.104902 
L 335.161798 -128.266116 
L 336.053706 -131.554746 
L 336.945614 -134.530262 
L 337.837522 -136.740893 
L 338.729431 -139.021152 
L 339.621339 -140.741838 
L 340.513247 -142.022898 
L 341.405155 -144.195434 
L 342.297063 -145.384264 
L 343.188971 -146.733317 
L 344.080879 -148.150554 
L 344.972787 -149.749241 
L 345.864695 -151.088131 
L 346.756603 -151.771044 
L 347.648511 -152.91788 
L 348.54042 -154.005773 
L 349.432328 -157.796349 
L 350.324236 -160.629816 
L 351.216144 -161.275078 
L 352.108052 -162.974048 
L 352.99996 -163.918572 
L 353.891868 -165.347602 
L 354.783776 -167.317856 
L 355.675684 -170.105003 
L 356.567592 -172.538494 
L 357.4595 -173.93865 
L 358.351409 -174.782392 
L 359.243317 -177.101005 
L 360.135225 -180.752489 
L 361.027133 -184.001758 
L 361.919041 -186.671694 
L 362.810949 -190.829279 
L 363.702857 -194.079552 
L 364.594765 -195.668218 
L 365.486673 -197.015393 
L 366.378581 -199.342842 
L 367.27049 -201.455164 
L 368.162398 -201.522284 
L 369.054306 -200.734498 
L 369.946214 -200.74606 
L 370.838122 -200.747352 
L 371.73003 -202.818501 
L 372.621938 -203.050535 
L 373.513846 -204.201986 
L 374.405754 -205.355832 
L 375.297662 -204.597959 
L 376.18957 -203.515225 
L 377.081479 -203.49047 
L 377.973387 -203.987548 
L 378.865295 -203.848872 
L 379.757203 -203.743722 
L 380.649111 -203.643325 
L 381.541019 -203.549155 
L 382.432927 -203.744157 
L 383.324835 -204.280611 
L 384.216743 -204.423545 
L 385.108651 -205.1696 
L 386.000559 -209.569907 
L 386.892468 -217.496137 
L 387.784376 -224.754176 
L 388.676284 -232.607279 
L 389.568192 -238.071363 
L 390.4601 -241.433871 
L 391.352008 -246.506726 
L 392.243916 -249.86654 
L 393.135824 -253.473773 
L 394.027732 -258.491689 
L 394.91964 -266.514002 
L 395.811548 -272.760416 
L 396.703457 -278.995325 
L 397.595365 -284.722492 
L 398.487273 -292.032 
L 398.487273 -174.895776 
L 398.487273 -174.895776 
L 397.595365 -172.175679 
L 396.703457 -169.599916 
L 395.811548 -167.608079 
L 394.91964 -167.190607 
L 394.027732 -168.552468 
L 393.135824 -168.334029 
L 392.243916 -167.155572 
L 391.352008 -166.950106 
L 390.4601 -167.691232 
L 389.568192 -167.352329 
L 388.676284 -169.277407 
L 387.784376 -171.810295 
L 386.892468 -173.977804 
L 386.000559 -176.56757 
L 385.108651 -177.035935 
L 384.216743 -177.101719 
L 383.324835 -177.137467 
L 382.432927 -176.931344 
L 381.541019 -176.760691 
L 380.649111 -177.287116 
L 379.757203 -177.58253 
L 378.865295 -176.780276 
L 377.973387 -176.134666 
L 377.081479 -175.207932 
L 376.18957 -172.667682 
L 375.297662 -168.575458 
L 374.405754 -165.381723 
L 373.513846 -163.591894 
L 372.621938 -161.983402 
L 371.73003 -159.301261 
L 370.838122 -157.226018 
L 369.946214 -154.527293 
L 369.054306 -152.41738 
L 368.162398 -149.447865 
L 367.27049 -148.011521 
L 366.378581 -147.170669 
L 365.486673 -144.778256 
L 364.594765 -142.020296 
L 363.702857 -139.027011 
L 362.810949 -137.621501 
L 361.919041 -137.17634 
L 361.027133 -135.838107 
L 360.135225 -135.00626 
L 359.243317 -134.506419 
L 358.351409 -133.917284 
L 357.4595 -132.024459 
L 356.567592 -130.559462 
L 355.675684 -129.970624 
L 354.783776 -129.586715 
L 353.891868 -128.99191 
L 352.99996 -128.060323 
L 352.108052 -125.785696 
L 351.216144 -123.964508 
L 350.324236 -121.470738 
L 349.432328 -120.323457 
L 348.54042 -120.087108 
L 347.648511 -118.676333 
L 346.756603 -117.370123 
L 345.864695 -116.038883 
L 344.972787 -115.285249 
L 344.080879 -114.600707 
L 343.188971 -113.883319 
L 342.297063 -112.971475 
L 341.405155 -111.915832 
L 340.513247 -111.264443 
L 339.621339 -110.207297 
L 338.729431 -109.774323 
L 337.837522 -109.727471 
L 336.945614 -109.687761 
L 336.053706 -110.379447 
L 335.161798 -111.606619 
L 334.26989 -111.653176 
L 333.377982 -111.688993 
L 332.486074 -111.679084 
L 331.594166 -111.514623 
L 330.702258 -111.365262 
L 329.81035 -111.446681 
L 328.918442 -111.487012 
L 328.026533 -110.976478 
L 327.134625 -111.419329 
L 326.242717 -111.795723 
L 325.350809 -112.46022 
L 324.458901 -112.484909 
L 323.566993 -112.453939 
L 322.675085 -112.437008 
L 321.783177 -112.420017 
L 320.891269 -112.430449 
L 319.999361 -112.445995 
L 319.107453 -111.982356 
L 318.215544 -111.789618 
L 317.323636 -111.450066 
L 316.431728 -111.007768 
L 315.53982 -109.92797 
L 314.647912 -109.591074 
L 313.756004 -109.025592 
L 312.864096 -108.430809 
L 311.972188 -108.326105 
L 311.08028 -108.087289 
L 310.188372 -107.864919 
L 309.296464 -106.722135 
L 308.404555 -105.743191 
L 307.512647 -105.345177 
L 306.620739 -105.035432 
L 305.728831 -104.911008 
L 304.836923 -104.841941 
L 303.945015 -104.836414 
L 303.053107 -104.871855 
L 302.161199 -105.06831 
L 301.269291 -105.587222 
L 300.377383 -106.133212 
L 299.485475 -106.843955 
L 298.593566 -107.765152 
L 297.701658 -109.417498 
L 296.80975 -110.666556 
L 295.917842 -112.258909 
L 295.025934 -114.807432 
L 294.134026 -116.854262 
L 293.242118 -120.340644 
L 292.35021 -120.878254 
L 291.458302 -120.739543 
L 290.566394 -120.351113 
L 289.674486 -120.375777 
L 288.782577 -120.343842 
L 287.890669 -120.481868 
L 286.998761 -120.585309 
L 286.106853 -121.180099 
L 285.214945 -121.515122 
L 284.323037 -121.130129 
L 283.431129 -120.490232 
L 282.539221 -119.755263 
L 281.647313 -119.323207 
L 280.755405 -119.060635 
L 279.863497 -118.132691 
L 278.971588 -117.420241 
L 278.07968 -117.176772 
L 277.187772 -116.568412 
L 276.295864 -114.422261 
L 275.403956 -110.976827 
L 274.512048 -107.982945 
L 273.62014 -105.373676 
L 272.728232 -103.093091 
L 271.836324 -100.959708 
L 270.944416 -99.054065 
L 270.052507 -97.250081 
L 269.160599 -95.664144 
L 268.268691 -94.601489 
L 267.376783 -93.861852 
L 266.484875 -92.893596 
L 265.592967 -92.355956 
L 264.701059 -91.942716 
L 263.809151 -92.055899 
L 262.917243 -92.594499 
L 262.025335 -93.009376 
L 261.133427 -93.748374 
L 260.241518 -95.173552 
L 259.34961 -97.740659 
L 258.457702 -99.326887 
L 257.565794 -99.634004 
L 256.673886 -99.682957 
L 255.781978 -99.760678 
L 254.89007 -99.922719 
L 253.998162 -99.985644 
L 253.106254 -99.951159 
L 252.214346 -99.918114 
L 251.322438 -99.845304 
L 250.430529 -99.584732 
L 249.538621 -99.621682 
L 248.646713 -99.634168 
L 247.754805 -99.627254 
L 246.862897 -99.327542 
L 245.970989 -98.962157 
L 245.079081 -98.860348 
L 244.187173 -98.859172 
L 243.295265 -98.945054 
L 242.403357 -98.968003 
L 241.511449 -98.915377 
L 240.61954 -98.860641 
L 239.727632 -98.852688 
L 238.835724 -98.937852 
L 237.943816 -99.145713 
L 237.051908 -99.365174 
L 236.16 -99.450623 
L 235.268092 -99.262449 
L 234.376184 -99.327948 
L 233.484276 -99.625622 
L 232.592368 -100.20829 
L 231.70046 -100.571533 
L 230.808551 -101.063798 
L 229.916643 -101.183076 
L 229.024735 -101.192477 
L 228.132827 -101.192738 
L 227.240919 -100.658268 
L 226.349011 -100.874443 
L 225.457103 -101.138235 
L 224.565195 -101.4941 
L 223.673287 -101.495422 
L 222.781379 -101.06106 
L 221.889471 -99.953832 
L 220.997562 -99.312085 
L 220.105654 -98.142571 
L 219.213746 -97.912044 
L 218.321838 -97.646332 
L 217.42993 -97.394454 
L 216.538022 -97.314586 
L 215.646114 -97.277367 
L 214.754206 -97.250489 
L 213.862298 -97.249426 
L 212.97039 -97.217263 
L 212.078482 -97.272286 
L 211.186573 -97.271246 
L 210.294665 -97.271327 
L 209.402757 -97.484568 
L 208.510849 -96.560675 
L 207.618941 -96.010483 
L 206.727033 -94.72899 
L 205.835125 -94.610514 
L 204.943217 -94.377331 
L 204.051309 -94.756399 
L 203.159401 -95.175924 
L 202.267493 -95.386797 
L 201.375584 -94.875299 
L 200.483676 -94.43496 
L 199.591768 -94.128972 
L 198.69986 -93.585575 
L 197.807952 -93.145482 
L 196.916044 -91.975372 
L 196.024136 -89.581287 
L 195.132228 -87.652307 
L 194.24032 -85.742563 
L 193.348412 -84.182519 
L 192.456503 -82.764705 
L 191.564595 -81.465951 
L 190.672687 -79.520713 
L 189.780779 -77.226187 
L 188.888871 -75.354419 
L 187.996963 -74.733175 
L 187.105055 -75.002448 
L 186.213147 -74.624109 
L 185.321239 -74.38972 
L 184.429331 -73.519833 
L 183.537423 -73.100173 
L 182.645514 -72.810828 
L 181.753606 -73.489745 
L 180.861698 -74.028491 
L 179.96979 -75.310245 
L 179.077882 -76.377037 
L 178.185974 -76.628525 
L 177.294066 -76.862896 
L 176.402158 -77.059509 
L 175.51025 -76.912673 
L 174.618342 -76.900432 
L 173.726434 -76.901871 
L 172.834525 -76.722365 
L 171.942617 -76.444114 
L 171.050709 -75.673343 
L 170.158801 -75.192678 
L 169.266893 -73.037801 
L 168.374985 -72.169812 
L 167.483077 -72.052845 
L 166.591169 -72.040383 
L 165.699261 -71.93583 
L 164.807353 -71.937963 
L 163.915445 -71.684887 
L 163.023536 -70.112682 
L 162.131628 -69.534921 
L 161.23972 -69.274525 
L 160.347812 -69.171093 
L 159.455904 -67.623935 
L 158.563996 -66.234129 
L 157.672088 -63.96599 
L 156.78018 -62.883381 
L 155.888272 -61.573541 
L 154.996364 -61.264052 
L 154.104456 -59.734106 
L 153.212547 -57.868154 
L 152.320639 -56.613413 
L 151.428731 -55.906627 
L 150.536823 -55.176464 
L 149.644915 -53.373859 
L 148.753007 -51.712779 
L 147.861099 -50.667124 
L 146.969191 -50.20732 
L 146.077283 -50.112 
L 145.185375 -50.812181 
L 144.293467 -51.538342 
L 143.401558 -52.424701 
L 142.50965 -53.460372 
L 141.617742 -55.847512 
L 140.725834 -58.778187 
L 139.833926 -62.715801 
L 138.942018 -66.453846 
L 138.05011 -71.388049 
L 137.158202 -76.384942 
L 136.266294 -86.861726 
L 135.374386 -87.972542 
L 134.482478 -89.4664 
L 133.590569 -90.591217 
L 132.698661 -92.311063 
L 131.806753 -92.456249 
L 130.914845 -92.46698 
L 130.022937 -92.222343 
L 129.131029 -92.691511 
L 128.239121 -93.24706 
L 127.347213 -93.796537 
L 126.455305 -95.370821 
L 125.563397 -97.193332 
L 124.671489 -98.897082 
L 123.77958 -100.590813 
L 122.887672 -102.772627 
L 121.995764 -103.392163 
L 121.103856 -102.338242 
L 120.211948 -101.512509 
L 119.32004 -101.018888 
L 118.428132 -100.629202 
L 117.536224 -100.268718 
L 116.644316 -100.171936 
L 115.752408 -99.651323 
L 114.8605 -99.342887 
L 113.968591 -98.109817 
L 113.076683 -96.360044 
L 112.184775 -94.516732 
L 111.292867 -93.19595 
L 110.400959 -92.217473 
L 109.509051 -91.939229 
L 108.617143 -91.53562 
L 107.725235 -91.502176 
L 106.833327 -91.437436 
L 105.941419 -91.630175 
L 105.04951 -91.879925 
L 104.157602 -91.939173 
L 103.265694 -91.833811 
L 102.373786 -91.799212 
L 101.481878 -90.770285 
L 100.58997 -90.158617 
L 99.698062 -89.356435 
L 98.806154 -89.355961 
L 97.914246 -88.488004 
L 97.022338 -88.570404 
L 96.13043 -88.341358 
L 95.238521 -87.336587 
L 94.346613 -85.54664 
L 93.454705 -84.007938 
L 92.562797 -82.669633 
L 91.670889 -80.658309 
L 90.778981 -79.48751 
z
" id="mfe0f538e79" style="stroke:#4b0082;stroke-opacity:0.3;"/>
    </defs>
    <g clip-path="url(#pb2499794ac)">
     <use style="fill:#4b0082;fill-opacity:0.3;stroke:#4b0082;stroke-opacity:0.3;" x="0" xlink:href="#mfe0f538e79" y="345.6"/>
    </g>
   </g>
   <g id="matplotlib.axis_1">
    <g id="xtick_1">
     <g id="line2d_1">
      <defs>
       <path d="M 0 0 
L 0 3.5 
" id="m0bc560f88a" style="stroke:#000000;stroke-width:0.8;"/>
      </defs>
      <g>
       <use style="stroke:#000000;stroke-width:0.8;" x="73.832727" xlink:href="#m0bc560f88a" y="307.584"/>
      </g>
     </g>
     <g id="text_1">
      <!-- 2020-01 -->
      <g transform="translate(52.941321 322.182437)scale(0.1 -0.1)">
       <defs>
        <path d="M 19.1875 8.296875 
L 53.609375 8.296875 
L 53.609375 0 
L 7.328125 0 
L 7.328125 8.296875 
Q 12.9375 14.109375 22.625 23.890625 
Q 32.328125 33.6875 34.8125 36.53125 
Q 39.546875 41.84375 41.421875 45.53125 
Q 43.3125 49.21875 43.3125 52.78125 
Q 43.3125 58.59375 39.234375 62.25 
Q 35.15625 65.921875 28.609375 65.921875 
Q 23.96875 65.921875 18.8125 64.3125 
Q 13.671875 62.703125 7.8125 59.421875 
L 7.8125 69.390625 
Q 13.765625 71.78125 18.9375 73 
Q 24.125 74.21875 28.421875 74.21875 
Q 39.75 74.21875 46.484375 68.546875 
Q 53.21875 62.890625 53.21875 53.421875 
Q 53.21875 48.921875 51.53125 44.890625 
Q 49.859375 40.875 45.40625 35.40625 
Q 44.1875 33.984375 37.640625 27.21875 
Q 31.109375 20.453125 19.1875 8.296875 
z
" id="DejaVuSans-50"/>
        <path d="M 31.78125 66.40625 
Q 24.171875 66.40625 20.328125 58.90625 
Q 16.5 51.421875 16.5 36.375 
Q 16.5 21.390625 20.328125 13.890625 
Q 24.171875 6.390625 31.78125 6.390625 
Q 39.453125 6.390625 43.28125 13.890625 
Q 47.125 21.390625 47.125 36.375 
Q 47.125 51.421875 43.28125 58.90625 
Q 39.453125 66.40625 31.78125 66.40625 
z
M 31.78125 74.21875 
Q 44.046875 74.21875 50.515625 64.515625 
Q 56.984375 54.828125 56.984375 36.375 
Q 56.984375 17.96875 50.515625 8.265625 
Q 44.046875 -1.421875 31.78125 -1.421875 
Q 19.53125 -1.421875 13.0625 8.265625 
Q 6.59375 17.96875 6.59375 36.375 
Q 6.59375 54.828125 13.0625 64.515625 
Q 19.53125 74.21875 31.78125 74.21875 
z
" id="DejaVuSans-48"/>
        <path d="M 4.890625 31.390625 
L 31.203125 31.390625 
L 31.203125 23.390625 
L 4.890625 23.390625 
z
" id="DejaVuSans-45"/>
        <path d="M 12.40625 8.296875 
L 28.515625 8.296875 
L 28.515625 63.921875 
L 10.984375 60.40625 
L 10.984375 69.390625 
L 28.421875 72.90625 
L 38.28125 72.90625 
L 38.28125 8.296875 
L 54.390625 8.296875 
L 54.390625 0 
L 12.40625 0 
z
" id="DejaVuSans-49"/>
       </defs>
       <use xlink:href="#DejaVuSans-50"/>
       <use x="63.623047" xlink:href="#DejaVuSans-48"/>
       <use x="127.246094" xlink:href="#DejaVuSans-50"/>
       <use x="190.869141" xlink:href="#DejaVuSans-48"/>
       <use x="254.492188" xlink:href="#DejaVuSans-45"/>
       <use x="290.576172" xlink:href="#DejaVuSans-48"/>
       <use x="354.199219" xlink:href="#DejaVuSans-49"/>
      </g>
     </g>
    </g>
    <g id="xtick_2">
     <g id="line2d_2">
      <g>
       <use style="stroke:#000000;stroke-width:0.8;" x="127.347213" xlink:href="#m0bc560f88a" y="307.584"/>
      </g>
     </g>
     <g id="text_2">
      <!-- 2020-03 -->
      <g transform="translate(106.455807 322.182437)scale(0.1 -0.1)">
       <defs>
        <path d="M 40.578125 39.3125 
Q 47.65625 37.796875 51.625 33 
Q 55.609375 28.21875 55.609375 21.1875 
Q 55.609375 10.40625 48.1875 4.484375 
Q 40.765625 -1.421875 27.09375 -1.421875 
Q 22.515625 -1.421875 17.65625 -0.515625 
Q 12.796875 0.390625 7.625 2.203125 
L 7.625 11.71875 
Q 11.71875 9.328125 16.59375 8.109375 
Q 21.484375 6.890625 26.8125 6.890625 
Q 36.078125 6.890625 40.9375 10.546875 
Q 45.796875 14.203125 45.796875 21.1875 
Q 45.796875 27.640625 41.28125 31.265625 
Q 36.765625 34.90625 28.71875 34.90625 
L 20.21875 34.90625 
L 20.21875 43.015625 
L 29.109375 43.015625 
Q 36.375 43.015625 40.234375 45.921875 
Q 44.09375 48.828125 44.09375 54.296875 
Q 44.09375 59.90625 40.109375 62.90625 
Q 36.140625 65.921875 28.71875 65.921875 
Q 24.65625 65.921875 20.015625 65.03125 
Q 15.375 64.15625 9.8125 62.3125 
L 9.8125 71.09375 
Q 15.4375 72.65625 20.34375 73.4375 
Q 25.25 74.21875 29.59375 74.21875 
Q 40.828125 74.21875 47.359375 69.109375 
Q 53.90625 64.015625 53.90625 55.328125 
Q 53.90625 49.265625 50.4375 45.09375 
Q 46.96875 40.921875 40.578125 39.3125 
z
" id="DejaVuSans-51"/>
       </defs>
       <use xlink:href="#DejaVuSans-50"/>
       <use x="63.623047" xlink:href="#DejaVuSans-48"/>
       <use x="127.246094" xlink:href="#DejaVuSans-50"/>
       <use x="190.869141" xlink:href="#DejaVuSans-48"/>
       <use x="254.492188" xlink:href="#DejaVuSans-45"/>
       <use x="290.576172" xlink:href="#DejaVuSans-48"/>
       <use x="354.199219" xlink:href="#DejaVuSans-51"/>
      </g>
     </g>
    </g>
    <g id="xtick_3">
     <g id="line2d_3">
      <g>
       <use style="stroke:#000000;stroke-width:0.8;" x="181.753606" xlink:href="#m0bc560f88a" y="307.584"/>
      </g>
     </g>
     <g id="text_3">
      <!-- 2020-05 -->
      <g transform="translate(160.8622 322.182437)scale(0.1 -0.1)">
       <defs>
        <path d="M 10.796875 72.90625 
L 49.515625 72.90625 
L 49.515625 64.59375 
L 19.828125 64.59375 
L 19.828125 46.734375 
Q 21.96875 47.46875 24.109375 47.828125 
Q 26.265625 48.1875 28.421875 48.1875 
Q 40.625 48.1875 47.75 41.5 
Q 54.890625 34.8125 54.890625 23.390625 
Q 54.890625 11.625 47.5625 5.09375 
Q 40.234375 -1.421875 26.90625 -1.421875 
Q 22.3125 -1.421875 17.546875 -0.640625 
Q 12.796875 0.140625 7.71875 1.703125 
L 7.71875 11.625 
Q 12.109375 9.234375 16.796875 8.0625 
Q 21.484375 6.890625 26.703125 6.890625 
Q 35.15625 6.890625 40.078125 11.328125 
Q 45.015625 15.765625 45.015625 23.390625 
Q 45.015625 31 40.078125 35.4375 
Q 35.15625 39.890625 26.703125 39.890625 
Q 22.75 39.890625 18.8125 39.015625 
Q 14.890625 38.140625 10.796875 36.28125 
z
" id="DejaVuSans-53"/>
       </defs>
       <use xlink:href="#DejaVuSans-50"/>
       <use x="63.623047" xlink:href="#DejaVuSans-48"/>
       <use x="127.246094" xlink:href="#DejaVuSans-50"/>
       <use x="190.869141" xlink:href="#DejaVuSans-48"/>
       <use x="254.492188" xlink:href="#DejaVuSans-45"/>
       <use x="290.576172" xlink:href="#DejaVuSans-48"/>
       <use x="354.199219" xlink:href="#DejaVuSans-53"/>
      </g>
     </g>
    </g>
    <g id="xtick_4">
     <g id="line2d_4">
      <g>
       <use style="stroke:#000000;stroke-width:0.8;" x="236.16" xlink:href="#m0bc560f88a" y="307.584"/>
      </g>
     </g>
     <g id="text_4">
      <!-- 2020-07 -->
      <g transform="translate(215.268594 322.182437)scale(0.1 -0.1)">
       <defs>
        <path d="M 8.203125 72.90625 
L 55.078125 72.90625 
L 55.078125 68.703125 
L 28.609375 0 
L 18.3125 0 
L 43.21875 64.59375 
L 8.203125 64.59375 
z
" id="DejaVuSans-55"/>
       </defs>
       <use xlink:href="#DejaVuSans-50"/>
       <use x="63.623047" xlink:href="#DejaVuSans-48"/>
       <use x="127.246094" xlink:href="#DejaVuSans-50"/>
       <use x="190.869141" xlink:href="#DejaVuSans-48"/>
       <use x="254.492188" xlink:href="#DejaVuSans-45"/>
       <use x="290.576172" xlink:href="#DejaVuSans-48"/>
       <use x="354.199219" xlink:href="#DejaVuSans-55"/>
      </g>
     </g>
    </g>
    <g id="xtick_5">
     <g id="line2d_5">
      <g>
       <use style="stroke:#000000;stroke-width:0.8;" x="291.458302" xlink:href="#m0bc560f88a" y="307.584"/>
      </g>
     </g>
     <g id="text_5">
      <!-- 2020-09 -->
      <g transform="translate(270.566895 322.182437)scale(0.1 -0.1)">
       <defs>
        <path d="M 10.984375 1.515625 
L 10.984375 10.5 
Q 14.703125 8.734375 18.5 7.8125 
Q 22.3125 6.890625 25.984375 6.890625 
Q 35.75 6.890625 40.890625 13.453125 
Q 46.046875 20.015625 46.78125 33.40625 
Q 43.953125 29.203125 39.59375 26.953125 
Q 35.25 24.703125 29.984375 24.703125 
Q 19.046875 24.703125 12.671875 31.3125 
Q 6.296875 37.9375 6.296875 49.421875 
Q 6.296875 60.640625 12.9375 67.421875 
Q 19.578125 74.21875 30.609375 74.21875 
Q 43.265625 74.21875 49.921875 64.515625 
Q 56.59375 54.828125 56.59375 36.375 
Q 56.59375 19.140625 48.40625 8.859375 
Q 40.234375 -1.421875 26.421875 -1.421875 
Q 22.703125 -1.421875 18.890625 -0.6875 
Q 15.09375 0.046875 10.984375 1.515625 
z
M 30.609375 32.421875 
Q 37.25 32.421875 41.125 36.953125 
Q 45.015625 41.5 45.015625 49.421875 
Q 45.015625 57.28125 41.125 61.84375 
Q 37.25 66.40625 30.609375 66.40625 
Q 23.96875 66.40625 20.09375 61.84375 
Q 16.21875 57.28125 16.21875 49.421875 
Q 16.21875 41.5 20.09375 36.953125 
Q 23.96875 32.421875 30.609375 32.421875 
z
" id="DejaVuSans-57"/>
       </defs>
       <use xlink:href="#DejaVuSans-50"/>
       <use x="63.623047" xlink:href="#DejaVuSans-48"/>
       <use x="127.246094" xlink:href="#DejaVuSans-50"/>
       <use x="190.869141" xlink:href="#DejaVuSans-48"/>
       <use x="254.492188" xlink:href="#DejaVuSans-45"/>
       <use x="290.576172" xlink:href="#DejaVuSans-48"/>
       <use x="354.199219" xlink:href="#DejaVuSans-57"/>
      </g>
     </g>
    </g>
    <g id="xtick_6">
     <g id="line2d_6">
      <g>
       <use style="stroke:#000000;stroke-width:0.8;" x="345.864695" xlink:href="#m0bc560f88a" y="307.584"/>
      </g>
     </g>
     <g id="text_6">
      <!-- 2020-11 -->
      <g transform="translate(324.973289 322.182437)scale(0.1 -0.1)">
       <use xlink:href="#DejaVuSans-50"/>
       <use x="63.623047" xlink:href="#DejaVuSans-48"/>
       <use x="127.246094" xlink:href="#DejaVuSans-50"/>
       <use x="190.869141" xlink:href="#DejaVuSans-48"/>
       <use x="254.492188" xlink:href="#DejaVuSans-45"/>
       <use x="290.576172" xlink:href="#DejaVuSans-49"/>
       <use x="354.199219" xlink:href="#DejaVuSans-49"/>
      </g>
     </g>
    </g>
    <g id="xtick_7">
     <g id="line2d_7">
      <g>
       <use style="stroke:#000000;stroke-width:0.8;" x="400.271089" xlink:href="#m0bc560f88a" y="307.584"/>
      </g>
     </g>
     <g id="text_7">
      <!-- 2021-01 -->
      <g transform="translate(379.379683 322.182437)scale(0.1 -0.1)">
       <use xlink:href="#DejaVuSans-50"/>
       <use x="63.623047" xlink:href="#DejaVuSans-48"/>
       <use x="127.246094" xlink:href="#DejaVuSans-50"/>
       <use x="190.869141" xlink:href="#DejaVuSans-49"/>
       <use x="254.492188" xlink:href="#DejaVuSans-45"/>
       <use x="290.576172" xlink:href="#DejaVuSans-48"/>
       <use x="354.199219" xlink:href="#DejaVuSans-49"/>
      </g>
     </g>
    </g>
   </g>
   <g id="matplotlib.axis_2">
    <g id="ytick_1">
     <g id="line2d_8">
      <defs>
       <path d="M 0 0 
L -3.5 0 
" id="m158b84155d" style="stroke:#000000;stroke-width:0.8;"/>
      </defs>
      <g>
       <use style="stroke:#000000;stroke-width:0.8;" x="57.6" xlink:href="#m158b84155d" y="283.621993"/>
      </g>
     </g>
     <g id="text_8">
      <!-- 5000 -->
      <g transform="translate(25.15 287.421212)scale(0.1 -0.1)">
       <use xlink:href="#DejaVuSans-53"/>
       <use x="63.623047" xlink:href="#DejaVuSans-48"/>
       <use x="127.246094" xlink:href="#DejaVuSans-48"/>
       <use x="190.869141" xlink:href="#DejaVuSans-48"/>
      </g>
     </g>
    </g>
    <g id="ytick_2">
     <g id="line2d_9">
      <g>
       <use style="stroke:#000000;stroke-width:0.8;" x="57.6" xlink:href="#m158b84155d" y="236.44657"/>
      </g>
     </g>
     <g id="text_9">
      <!-- 10000 -->
      <g transform="translate(18.7875 240.245789)scale(0.1 -0.1)">
       <use xlink:href="#DejaVuSans-49"/>
       <use x="63.623047" xlink:href="#DejaVuSans-48"/>
       <use x="127.246094" xlink:href="#DejaVuSans-48"/>
       <use x="190.869141" xlink:href="#DejaVuSans-48"/>
       <use x="254.492188" xlink:href="#DejaVuSans-48"/>
      </g>
     </g>
    </g>
    <g id="ytick_3">
     <g id="line2d_10">
      <g>
       <use style="stroke:#000000;stroke-width:0.8;" x="57.6" xlink:href="#m158b84155d" y="189.271147"/>
      </g>
     </g>
     <g id="text_10">
      <!-- 15000 -->
      <g transform="translate(18.7875 193.070366)scale(0.1 -0.1)">
       <use xlink:href="#DejaVuSans-49"/>
       <use x="63.623047" xlink:href="#DejaVuSans-53"/>
       <use x="127.246094" xlink:href="#DejaVuSans-48"/>
       <use x="190.869141" xlink:href="#DejaVuSans-48"/>
       <use x="254.492188" xlink:href="#DejaVuSans-48"/>
      </g>
     </g>
    </g>
    <g id="ytick_4">
     <g id="line2d_11">
      <g>
       <use style="stroke:#000000;stroke-width:0.8;" x="57.6" xlink:href="#m158b84155d" y="142.095724"/>
      </g>
     </g>
     <g id="text_11">
      <!-- 20000 -->
      <g transform="translate(18.7875 145.894943)scale(0.1 -0.1)">
       <use xlink:href="#DejaVuSans-50"/>
       <use x="63.623047" xlink:href="#DejaVuSans-48"/>
       <use x="127.246094" xlink:href="#DejaVuSans-48"/>
       <use x="190.869141" xlink:href="#DejaVuSans-48"/>
       <use x="254.492188" xlink:href="#DejaVuSans-48"/>
      </g>
     </g>
    </g>
    <g id="ytick_5">
     <g id="line2d_12">
      <g>
       <use style="stroke:#000000;stroke-width:0.8;" x="57.6" xlink:href="#m158b84155d" y="94.920301"/>
      </g>
     </g>
     <g id="text_12">
      <!-- 25000 -->
      <g transform="translate(18.7875 98.71952)scale(0.1 -0.1)">
       <use xlink:href="#DejaVuSans-50"/>
       <use x="63.623047" xlink:href="#DejaVuSans-53"/>
       <use x="127.246094" xlink:href="#DejaVuSans-48"/>
       <use x="190.869141" xlink:href="#DejaVuSans-48"/>
       <use x="254.492188" xlink:href="#DejaVuSans-48"/>
      </g>
     </g>
    </g>
    <g id="ytick_6">
     <g id="line2d_13">
      <g>
       <use style="stroke:#000000;stroke-width:0.8;" x="57.6" xlink:href="#m158b84155d" y="47.744878"/>
      </g>
     </g>
     <g id="text_13">
      <!-- 30000 -->
      <g transform="translate(18.7875 51.544096)scale(0.1 -0.1)">
       <use xlink:href="#DejaVuSans-51"/>
       <use x="63.623047" xlink:href="#DejaVuSans-48"/>
       <use x="127.246094" xlink:href="#DejaVuSans-48"/>
       <use x="190.869141" xlink:href="#DejaVuSans-48"/>
       <use x="254.492188" xlink:href="#DejaVuSans-48"/>
      </g>
     </g>
    </g>
   </g>
   <g id="line2d_14">
    <path clip-path="url(#pb2499794ac)" d="M 90.778981 242.697828 
L 91.670889 242.416434 
L 94.346613 243.695241 
L 95.238521 244.559804 
L 96.13043 244.771163 
L 97.022338 244.298479 
L 97.914246 242.941966 
L 98.806154 242.419628 
L 99.698062 241.17518 
L 101.481878 240.193005 
L 102.373786 240.063679 
L 103.265694 239.641416 
L 104.157602 239.400652 
L 105.941419 237.43411 
L 107.725235 235.318598 
L 108.617143 233.908479 
L 109.509051 233.250533 
L 110.400959 232.014361 
L 111.292867 231.147517 
L 112.184775 230.776034 
L 113.076683 230.713784 
L 113.968591 231.236731 
L 114.8605 231.502995 
L 115.752408 231.516295 
L 116.644316 231.192075 
L 118.428132 231.322951 
L 120.211948 231.600847 
L 121.103856 231.783456 
L 121.995764 232.375721 
L 122.887672 232.038751 
L 123.77958 230.763108 
L 124.671489 230.005347 
L 125.563397 229.416822 
L 127.347213 228.789552 
L 128.239121 229.504233 
L 130.022937 231.349633 
L 130.914845 232.805246 
L 132.698661 234.308129 
L 133.590569 234.150631 
L 134.482478 235.140619 
L 135.374386 235.245303 
L 136.266294 235.697069 
L 137.158202 229.731646 
L 138.05011 228.544891 
L 138.942018 228.130992 
L 139.833926 228.454348 
L 140.725834 228.545743 
L 141.617742 228.873028 
L 142.50965 229.6985 
L 145.185375 233.852832 
L 147.861099 240.688725 
L 148.753007 243.985186 
L 150.536823 251.847906 
L 153.212547 259.461416 
L 154.104456 262.743782 
L 154.996364 262.615168 
L 155.888272 261.78917 
L 156.78018 261.629256 
L 157.672088 261.284473 
L 158.563996 261.91569 
L 159.455904 261.4556 
L 160.347812 261.164097 
L 161.23972 260.172228 
L 162.131628 259.386898 
L 163.023536 259.292569 
L 163.915445 259.911471 
L 164.807353 259.550785 
L 167.483077 259.466702 
L 168.374985 259.246749 
L 169.266893 259.303033 
L 170.158801 260.189265 
L 171.050709 260.102085 
L 171.942617 260.451711 
L 172.834525 260.555555 
L 173.726434 260.447479 
L 174.618342 259.675312 
L 179.077882 256.838552 
L 179.96979 254.867407 
L 180.861698 251.858277 
L 182.645514 247.144428 
L 183.537423 245.493971 
L 184.429331 244.105624 
L 185.321239 242.925125 
L 187.105055 239.308836 
L 187.996963 236.435426 
L 188.888871 234.631696 
L 191.564595 235.873308 
L 192.456503 235.716935 
L 193.348412 235.172551 
L 194.24032 234.916352 
L 195.132228 235.068896 
L 196.024136 235.015801 
L 196.916044 235.60552 
L 197.807952 235.344988 
L 198.69986 234.811895 
L 201.375584 234.952656 
L 202.267493 235.085082 
L 204.051309 234.928191 
L 204.943217 234.976437 
L 205.835125 235.944347 
L 206.727033 236.338752 
L 207.618941 236.596193 
L 208.510849 236.497169 
L 209.402757 236.633233 
L 210.294665 235.441291 
L 212.078482 235.425434 
L 212.97039 235.019657 
L 214.754206 235.157023 
L 216.538022 235.374562 
L 218.321838 234.748081 
L 220.105654 234.755229 
L 220.997562 235.315656 
L 221.889471 235.70624 
L 222.781379 236.277851 
L 223.673287 236.460588 
L 225.457103 236.363603 
L 227.240919 236.316677 
L 228.132827 237.475373 
L 229.916643 237.486453 
L 230.808551 237.898067 
L 232.592368 237.99497 
L 233.484276 238.109427 
L 234.376184 238.352204 
L 235.268092 238.840229 
L 236.16 239.635598 
L 237.943816 239.909537 
L 238.835724 240.021054 
L 239.727632 239.994328 
L 242.403357 240.736528 
L 243.295265 240.593094 
L 245.079081 240.723852 
L 245.970989 241.010447 
L 247.754805 242.246316 
L 249.538621 242.307943 
L 250.430529 242.310711 
L 252.214346 242.447166 
L 253.998162 242.426429 
L 254.89007 242.215071 
L 257.565794 240.601498 
L 258.457702 239.814296 
L 259.34961 237.251419 
L 260.241518 233.074941 
L 262.025335 227.620341 
L 262.917243 225.556731 
L 263.809151 223.06025 
L 264.701059 221.053806 
L 266.484875 218.208097 
L 267.376783 217.19199 
L 268.268691 215.408121 
L 269.160599 213.935562 
L 270.052507 213.245389 
L 270.944416 212.708457 
L 271.836324 211.968722 
L 272.728232 211.766634 
L 273.62014 212.320225 
L 274.512048 213.023027 
L 275.403956 213.981054 
L 276.295864 215.366292 
L 277.187772 215.995443 
L 278.07968 215.78183 
L 278.971588 214.75628 
L 279.863497 214.652594 
L 280.755405 214.817809 
L 282.539221 214.944136 
L 284.323037 215.455624 
L 285.214945 215.690386 
L 288.782577 215.557737 
L 289.674486 215.922992 
L 290.566394 216.043747 
L 291.458302 215.845127 
L 293.242118 215.659469 
L 294.134026 213.685558 
L 295.025934 213.024581 
L 295.917842 212.12348 
L 296.80975 212.572286 
L 297.701658 212.834649 
L 298.593566 212.881937 
L 299.485475 213.132694 
L 301.269291 214.20569 
L 302.161199 215.036886 
L 305.728831 216.900199 
L 306.620739 217.572908 
L 307.512647 218.456424 
L 308.404555 219.63327 
L 310.188372 224.304868 
L 311.08028 225.51118 
L 313.756004 225.222012 
L 314.647912 225.232507 
L 315.53982 225.053793 
L 316.431728 225.443146 
L 319.107453 225.684072 
L 319.999361 225.919419 
L 321.783177 225.980987 
L 322.675085 226.416666 
L 323.566993 226.708495 
L 325.350809 226.735234 
L 327.134625 224.465379 
L 328.026533 223.065817 
L 328.918442 222.470141 
L 330.702258 220.895971 
L 332.486074 220.076062 
L 333.377982 219.469009 
L 334.26989 218.495098 
L 335.161798 217.333884 
L 336.945614 211.069738 
L 338.729431 206.578848 
L 339.621339 204.858162 
L 340.513247 203.577102 
L 341.405155 201.404566 
L 343.188971 198.866683 
L 345.864695 194.511869 
L 346.756603 193.828956 
L 348.54042 191.594227 
L 349.432328 187.803651 
L 350.324236 184.970184 
L 351.216144 184.324922 
L 352.108052 182.625952 
L 352.99996 181.681428 
L 353.891868 180.252398 
L 354.783776 178.282144 
L 356.567592 173.061506 
L 357.4595 171.66135 
L 358.351409 170.817608 
L 359.243317 168.498995 
L 361.027133 161.598242 
L 361.919041 158.928306 
L 362.810949 154.770721 
L 363.702857 151.520448 
L 364.594765 149.931782 
L 365.486673 148.584607 
L 367.27049 144.144836 
L 368.162398 144.077716 
L 369.054306 144.865502 
L 370.838122 144.852648 
L 371.73003 142.781499 
L 372.621938 142.549465 
L 374.405754 140.244168 
L 375.297662 141.002041 
L 376.18957 142.084775 
L 377.081479 142.10953 
L 377.973387 141.612452 
L 380.649111 141.956675 
L 381.541019 142.050845 
L 382.432927 141.855843 
L 383.324835 141.319389 
L 384.216743 141.176455 
L 385.108651 140.4304 
L 386.000559 136.030093 
L 388.676284 112.992721 
L 389.568192 107.528637 
L 390.4601 104.166129 
L 391.352008 99.093274 
L 393.135824 92.126227 
L 394.027732 87.108311 
L 394.91964 79.085998 
L 398.487273 53.568 
L 398.487273 53.568 
" style="fill:none;stroke:#1f77b4;stroke-linecap:square;stroke-width:1.5;"/>
   </g>
   <g id="line2d_15">
    <path clip-path="url(#pb2499794ac)" d="M 90.778981 266.11249 
L 91.670889 264.941691 
L 92.562797 262.930367 
L 93.454705 261.592062 
L 94.346613 260.05336 
L 95.238521 258.263413 
L 96.13043 257.258642 
L 97.022338 257.029596 
L 97.914246 257.111996 
L 98.806154 256.244039 
L 99.698062 256.243565 
L 100.58997 255.441383 
L 101.481878 254.829715 
L 102.373786 253.800788 
L 105.04951 253.720075 
L 106.833327 254.162564 
L 108.617143 254.06438 
L 109.509051 253.660771 
L 110.400959 253.382527 
L 111.292867 252.40405 
L 112.184775 251.083268 
L 113.968591 247.490183 
L 114.8605 246.257113 
L 115.752408 245.948677 
L 116.644316 245.428064 
L 117.536224 245.331282 
L 119.32004 244.581112 
L 120.211948 244.087491 
L 121.103856 243.261758 
L 121.995764 242.207837 
L 122.887672 242.827373 
L 123.77958 245.009187 
L 127.347213 251.803463 
L 130.022937 253.377657 
L 130.914845 253.13302 
L 131.806753 253.143751 
L 132.698661 253.288937 
L 133.590569 255.008783 
L 134.482478 256.1336 
L 135.374386 257.627458 
L 136.266294 258.738274 
L 137.158202 269.215058 
L 138.942018 279.146154 
L 140.725834 286.821813 
L 141.617742 289.752488 
L 142.50965 292.139628 
L 144.293467 294.061658 
L 146.077283 295.488 
L 146.969191 295.39268 
L 147.861099 294.932876 
L 148.753007 293.887221 
L 150.536823 290.423536 
L 152.320639 288.986587 
L 153.212547 287.731846 
L 154.104456 285.865894 
L 154.996364 284.335948 
L 155.888272 284.026459 
L 156.78018 282.716619 
L 157.672088 281.63401 
L 158.563996 279.365871 
L 160.347812 276.428907 
L 161.23972 276.325475 
L 162.131628 276.065079 
L 163.023536 275.487318 
L 163.915445 273.915113 
L 164.807353 273.662037 
L 166.591169 273.559617 
L 168.374985 273.430188 
L 169.266893 272.562199 
L 170.158801 270.407322 
L 171.050709 269.926657 
L 171.942617 269.155886 
L 173.726434 268.698129 
L 175.51025 268.687327 
L 176.402158 268.540491 
L 179.077882 269.222963 
L 179.96979 270.289755 
L 180.861698 271.571509 
L 181.753606 272.110255 
L 182.645514 272.789172 
L 183.537423 272.499827 
L 184.429331 272.080167 
L 185.321239 271.21028 
L 186.213147 270.975891 
L 187.105055 270.597552 
L 187.996963 270.866825 
L 188.888871 270.245581 
L 189.780779 268.373813 
L 190.672687 266.079287 
L 191.564595 264.134049 
L 193.348412 261.417481 
L 194.24032 259.857437 
L 196.024136 256.018713 
L 196.916044 253.624628 
L 197.807952 252.454518 
L 202.267493 250.213203 
L 203.159401 250.424076 
L 204.943217 251.222669 
L 206.727033 250.87101 
L 207.618941 249.589517 
L 208.510849 249.039325 
L 209.402757 248.115432 
L 210.294665 248.328673 
L 216.538022 248.285414 
L 217.42993 248.205546 
L 220.105654 247.457429 
L 220.997562 246.287915 
L 221.889471 245.646168 
L 222.781379 244.53894 
L 223.673287 244.104578 
L 224.565195 244.1059 
L 226.349011 244.725557 
L 227.240919 244.941732 
L 228.132827 244.407262 
L 229.916643 244.416924 
L 230.808551 244.536202 
L 231.70046 245.028467 
L 232.592368 245.39171 
L 233.484276 245.974378 
L 234.376184 246.272052 
L 235.268092 246.337551 
L 236.16 246.149377 
L 237.051908 246.234826 
L 238.835724 246.662148 
L 240.61954 246.739359 
L 243.295265 246.654946 
L 245.079081 246.739652 
L 245.970989 246.637843 
L 247.754805 245.972746 
L 250.430529 246.015268 
L 251.322438 245.754696 
L 253.998162 245.614356 
L 255.781978 245.839322 
L 257.565794 245.965996 
L 258.457702 246.273113 
L 259.34961 247.859341 
L 260.241518 250.426448 
L 261.133427 251.851626 
L 262.025335 252.590624 
L 262.917243 253.005501 
L 263.809151 253.544101 
L 264.701059 253.657284 
L 265.592967 253.244044 
L 266.484875 252.706404 
L 267.376783 251.738148 
L 268.268691 250.998511 
L 269.160599 249.935856 
L 270.944416 246.545935 
L 272.728232 242.506909 
L 273.62014 240.226324 
L 274.512048 237.617055 
L 275.403956 234.623173 
L 276.295864 231.177739 
L 277.187772 229.031588 
L 278.07968 228.423228 
L 278.971588 228.179759 
L 279.863497 227.467309 
L 280.755405 226.539365 
L 281.647313 226.276793 
L 282.539221 225.844737 
L 284.323037 224.469871 
L 285.214945 224.084878 
L 286.106853 224.419901 
L 286.998761 225.014691 
L 289.674486 225.224223 
L 290.566394 225.248887 
L 291.458302 224.860457 
L 292.35021 224.721746 
L 293.242118 225.259356 
L 294.134026 228.745738 
L 295.025934 230.792568 
L 295.917842 233.341091 
L 296.80975 234.933444 
L 297.701658 236.182502 
L 298.593566 237.834848 
L 299.485475 238.756045 
L 300.377383 239.466788 
L 302.161199 240.53169 
L 303.053107 240.728145 
L 304.836923 240.758059 
L 306.620739 240.564568 
L 308.404555 239.856809 
L 310.188372 237.735081 
L 312.864096 237.169191 
L 314.647912 236.008926 
L 315.53982 235.67203 
L 316.431728 234.592232 
L 318.215544 233.810382 
L 319.107453 233.617644 
L 319.999361 233.154005 
L 323.566993 233.146061 
L 325.350809 233.13978 
L 326.242717 233.804277 
L 328.026533 234.623522 
L 328.918442 234.112988 
L 330.702258 234.234738 
L 332.486074 233.920916 
L 335.161798 233.993381 
L 336.053706 235.220553 
L 336.945614 235.912239 
L 338.729431 235.825677 
L 339.621339 235.392703 
L 340.513247 234.335557 
L 341.405155 233.684168 
L 343.188971 231.716681 
L 345.864695 229.561117 
L 348.54042 225.512892 
L 349.432328 225.276543 
L 350.324236 224.129262 
L 351.216144 221.635492 
L 352.108052 219.814304 
L 352.99996 217.539677 
L 353.891868 216.60809 
L 354.783776 216.013285 
L 355.675684 215.629376 
L 356.567592 215.040538 
L 357.4595 213.575541 
L 358.351409 211.682716 
L 360.135225 210.59374 
L 361.027133 209.761893 
L 361.919041 208.42366 
L 362.810949 207.978499 
L 363.702857 206.572989 
L 365.486673 200.821744 
L 366.378581 198.429331 
L 367.27049 197.588479 
L 368.162398 196.152135 
L 369.054306 193.18262 
L 369.946214 191.072707 
L 370.838122 188.373982 
L 371.73003 186.298739 
L 372.621938 183.616598 
L 374.405754 180.218277 
L 375.297662 177.024542 
L 376.18957 172.932318 
L 377.081479 170.392068 
L 377.973387 169.465334 
L 378.865295 168.819724 
L 379.757203 168.01747 
L 380.649111 168.312884 
L 381.541019 168.839309 
L 383.324835 168.462533 
L 385.108651 168.564065 
L 386.000559 169.03243 
L 386.892468 171.622196 
L 387.784376 173.789705 
L 388.676284 176.322593 
L 389.568192 178.247671 
L 390.4601 177.908768 
L 391.352008 178.649894 
L 392.243916 178.444428 
L 393.135824 177.265971 
L 394.027732 177.047532 
L 394.91964 178.409393 
L 395.811548 177.991921 
L 396.703457 176.000084 
L 398.487273 170.704224 
L 398.487273 170.704224 
" style="fill:none;stroke:#ff7f0e;stroke-linecap:square;stroke-width:1.5;"/>
   </g>
   <g id="line2d_16">
    <path clip-path="url(#pb2499794ac)" d="M 90.778981 254.405159 
L 92.562797 252.877344 
L 96.13043 251.014902 
L 97.022338 250.664038 
L 102.373786 246.932234 
L 104.157602 246.530739 
L 106.833327 245.273885 
L 107.725235 244.708211 
L 108.617143 243.986429 
L 109.509051 243.455652 
L 110.400959 242.698444 
L 113.076683 239.97687 
L 114.8605 238.880054 
L 115.752408 238.732486 
L 116.644316 238.310069 
L 118.428132 238.146875 
L 120.211948 237.844169 
L 121.995764 237.291779 
L 122.887672 237.433062 
L 125.563397 238.911745 
L 126.455305 239.677348 
L 128.239121 240.928586 
L 130.022937 242.363645 
L 130.914845 242.969133 
L 131.806753 243.317226 
L 132.698661 243.798533 
L 133.590569 244.579707 
L 134.482478 245.637109 
L 136.266294 247.217672 
L 137.158202 249.473352 
L 138.05011 251.378421 
L 139.833926 255.669274 
L 140.725834 257.683778 
L 142.50965 260.919064 
L 144.293467 263.215176 
L 145.185375 264.320325 
L 146.077283 265.793417 
L 150.536823 271.135721 
L 153.212547 273.596631 
L 154.104456 274.304838 
L 154.996364 273.475558 
L 155.888272 272.907814 
L 158.563996 270.64078 
L 160.347812 268.796502 
L 162.131628 267.725989 
L 163.023536 267.389943 
L 163.915445 266.913292 
L 164.807353 266.606411 
L 167.483077 266.506928 
L 168.374985 266.338469 
L 169.266893 265.932616 
L 170.158801 265.298294 
L 171.942617 264.803799 
L 173.726434 264.572804 
L 176.402158 263.503406 
L 179.077882 263.030757 
L 179.96979 262.578581 
L 183.537423 258.996899 
L 185.321239 257.067703 
L 187.105055 254.953194 
L 188.888871 252.438639 
L 189.780779 251.698391 
L 190.672687 250.754758 
L 192.456503 249.276115 
L 194.24032 247.386894 
L 197.807952 243.899753 
L 198.69986 243.41316 
L 199.591768 243.14729 
L 203.159401 242.707621 
L 204.943217 243.099553 
L 205.835125 243.466916 
L 206.727033 243.604881 
L 207.618941 243.092855 
L 209.402757 242.374332 
L 210.294665 241.884982 
L 212.078482 241.876574 
L 212.97039 241.701197 
L 216.538022 241.829988 
L 221.889471 240.676204 
L 222.781379 240.408395 
L 223.673287 240.282583 
L 224.565195 240.283109 
L 227.240919 240.629205 
L 228.132827 240.941317 
L 229.916643 240.951689 
L 237.051908 243.022727 
L 238.835724 243.341601 
L 240.61954 243.506444 
L 242.403357 243.684263 
L 243.295265 243.62402 
L 250.430529 244.162989 
L 253.106254 244.045189 
L 254.89007 243.946176 
L 257.565794 243.283747 
L 258.457702 243.043704 
L 259.34961 242.55538 
L 262.917243 239.281116 
L 267.376783 234.465069 
L 270.052507 230.797654 
L 273.62014 226.273275 
L 277.187772 222.513515 
L 278.07968 222.102529 
L 278.971588 221.468019 
L 280.755405 220.678587 
L 282.539221 220.394437 
L 284.323037 219.962747 
L 285.214945 219.887632 
L 287.890669 220.335521 
L 290.566394 220.646317 
L 291.458302 220.352792 
L 292.35021 220.244003 
L 293.242118 220.459412 
L 295.917842 222.732286 
L 296.80975 223.752865 
L 299.485475 225.944369 
L 302.161199 227.784288 
L 303.945015 228.410657 
L 304.836923 228.537436 
L 307.512647 229.355624 
L 308.404555 229.745039 
L 310.188372 231.019975 
L 311.08028 231.511946 
L 313.756004 230.89821 
L 317.323636 229.828722 
L 319.999361 229.536712 
L 321.783177 229.580485 
L 323.566993 229.927278 
L 325.350809 229.937507 
L 326.242717 229.724471 
L 328.026533 228.844669 
L 328.918442 228.291565 
L 331.594166 227.289829 
L 333.377982 226.690008 
L 335.161798 225.663632 
L 336.945614 223.490988 
L 340.513247 218.95633 
L 341.405155 217.544367 
L 345.864695 212.036493 
L 346.756603 211.029416 
L 348.54042 208.55356 
L 350.324236 204.549723 
L 352.108052 201.220128 
L 352.99996 199.610552 
L 354.783776 197.147715 
L 356.567592 194.051022 
L 359.243317 189.796288 
L 362.810949 181.37461 
L 364.594765 176.755743 
L 365.486673 174.703175 
L 366.378581 172.343244 
L 367.27049 170.866658 
L 368.162398 170.114926 
L 369.946214 167.963323 
L 370.838122 166.613315 
L 371.73003 164.540119 
L 374.405754 160.231222 
L 375.297662 159.013291 
L 376.18957 157.508546 
L 377.081479 156.250799 
L 377.973387 155.538893 
L 379.757203 154.936874 
L 381.541019 155.445077 
L 382.432927 155.262249 
L 383.324835 154.890961 
L 384.216743 154.837368 
L 385.108651 154.497232 
L 386.000559 152.531262 
L 388.676284 144.657657 
L 390.4601 141.037449 
L 391.352008 138.871584 
L 392.243916 137.088944 
L 394.027732 132.077921 
L 395.811548 125.415752 
L 397.595365 117.150915 
L 398.487273 112.136112 
L 398.487273 112.136112 
" style="fill:none;stroke:#2ca02c;stroke-linecap:square;stroke-width:1.5;"/>
   </g>
   <g id="line2d_17">
    <path clip-path="url(#pb2499794ac)" d="M 73.832727 262.973657 
L 74.724635 265.114431 
L 75.616543 261.481813 
L 77.40036 261.389993 
L 79.184176 253.828245 
L 80.076084 254.912226 
L 80.967992 257.044084 
L 81.8599 253.531008 
L 82.751808 255.161752 
L 83.643716 253.628961 
L 84.535624 254.321543 
L 85.427532 247.6986 
L 86.319441 247.688599 
L 87.211349 248.552602 
L 88.103257 246.917155 
L 88.995165 246.814124 
L 89.887073 248.725656 
L 90.778981 249.360481 
L 91.670889 248.451741 
L 92.562797 249.080054 
L 93.454705 251.616818 
L 94.346613 251.198419 
L 95.238521 252.136157 
L 97.022338 246.810948 
L 97.914246 242.171088 
L 98.806154 243.14114 
L 99.698062 241.081792 
L 100.58997 242.615858 
L 101.481878 242.214599 
L 102.373786 242.739017 
L 103.265694 243.129976 
L 104.157602 244.227338 
L 105.04951 240.094143 
L 105.941419 238.800183 
L 106.833327 238.252477 
L 107.725235 237.412173 
L 108.617143 234.924849 
L 109.509051 237.836186 
L 110.400959 233.935894 
L 111.292867 233.163617 
L 112.184775 234.275762 
L 113.076683 233.080541 
L 113.968591 237.361569 
L 114.8605 237.14288 
L 115.752408 239.21973 
L 116.644316 234.692808 
L 117.536224 240.282121 
L 118.428132 240.151634 
L 119.32004 239.319004 
L 120.211948 239.580497 
L 121.103856 236.698739 
L 121.995764 239.610784 
L 122.887672 242.919793 
L 123.77958 247.861891 
L 124.671489 247.612191 
L 125.563397 248.564411 
L 126.455305 250.236906 
L 127.347213 250.219372 
L 128.239121 246.577476 
L 129.131029 248.068896 
L 130.022937 248.071664 
L 130.914845 245.190299 
L 131.806753 244.323435 
L 132.698661 246.769009 
L 133.590569 254.843209 
L 134.482478 255.840859 
L 135.374386 256.267544 
L 136.266294 255.777455 
L 137.158202 284.432609 
L 138.05011 277.681884 
L 138.942018 281.901773 
L 139.833926 280.224797 
L 140.725834 283.209885 
L 141.617742 280.44149 
L 142.50965 279.738308 
L 143.401558 272.486046 
L 144.293467 272.23751 
L 145.185375 272.322363 
L 146.077283 276.039299 
L 146.969191 269.535978 
L 147.861099 266.952259 
L 148.753007 267.698354 
L 149.644915 267.488471 
L 150.536823 267.594332 
L 151.428731 272.049438 
L 152.320639 275.300186 
L 153.212547 268.820186 
L 154.104456 269.941593 
L 154.996364 267.847004 
L 155.888272 266.327012 
L 156.78018 267.204239 
L 157.672088 265.950882 
L 158.563996 266.840658 
L 159.455904 261.942528 
L 160.347812 261.351703 
L 162.131628 261.780244 
L 163.023536 265.601454 
L 163.915445 266.506278 
L 164.807353 263.398361 
L 165.699261 266.987326 
L 166.591169 265.835915 
L 167.483077 267.326187 
L 168.374985 264.225134 
L 169.266893 263.932387 
L 170.158801 262.61374 
L 171.050709 263.141727 
L 171.942617 265.730148 
L 172.834525 266.102928 
L 173.726434 263.451198 
L 174.618342 259.496954 
L 175.51025 260.00692 
L 176.402158 259.103935 
L 177.294066 259.065865 
L 178.185974 258.389039 
L 179.077882 257.919408 
L 179.96979 252.736716 
L 180.861698 248.327701 
L 181.753606 248.036888 
L 182.645514 246.905881 
L 183.537423 247.589311 
L 184.429331 247.75584 
L 185.321239 246.822333 
L 186.213147 243.532814 
L 187.105055 242.334535 
L 187.996963 236.572364 
L 188.888871 238.892003 
L 189.780779 250.925179 
L 190.672687 247.230282 
L 191.564595 248.4296 
L 192.456503 244.945695 
L 193.348412 240.38494 
L 195.132228 241.493869 
L 196.024136 238.568285 
L 196.916044 239.875752 
L 197.807952 238.430297 
L 198.69986 238.595835 
L 199.591768 242.719486 
L 200.483676 244.204097 
L 202.267493 243.965106 
L 203.159401 247.991906 
L 204.051309 247.098309 
L 204.943217 246.607685 
L 205.835125 243.919629 
L 206.727033 241.651293 
L 207.618941 240.684669 
L 208.510849 240.738119 
L 209.402757 240.551304 
L 210.294665 235.158681 
L 211.186573 240.272969 
L 212.078482 240.885306 
L 212.97039 237.986329 
L 213.862298 239.468156 
L 214.754206 240.017278 
L 215.646114 238.990599 
L 216.538022 239.569961 
L 218.321838 238.357175 
L 219.213746 241.391026 
L 220.105654 241.802042 
L 220.997562 241.90104 
L 221.889471 244.58669 
L 222.781379 241.251505 
L 224.565195 241.661813 
L 225.457103 243.276156 
L 227.240919 242.681982 
L 229.024735 240.298774 
L 229.916643 241.066931 
L 230.808551 243.295246 
L 231.70046 244.67821 
L 232.592368 244.331329 
L 233.484276 245.961853 
L 234.376184 244.974472 
L 235.268092 244.51937 
L 236.16 244.429124 
L 237.051908 243.995817 
L 237.943816 244.985746 
L 239.727632 245.171075 
L 240.61954 243.963974 
L 241.511449 243.377819 
L 242.403357 243.243763 
L 243.295265 242.071296 
L 244.187173 244.516257 
L 245.079081 243.25823 
L 245.970989 243.248795 
L 246.862897 243.101489 
L 247.754805 243.971931 
L 248.646713 243.861344 
L 249.538621 244.784119 
L 250.430529 244.728499 
L 253.106254 244.132626 
L 253.998162 243.933192 
L 255.781978 241.054524 
L 256.673886 240.74444 
L 257.565794 240.204093 
L 258.457702 239.16312 
L 259.34961 233.611327 
L 260.241518 227.150071 
L 261.133427 227.1766 
L 262.025335 226.506709 
L 262.917243 226.770891 
L 263.809151 223.669987 
L 264.701059 224.168883 
L 265.592967 225.459933 
L 266.484875 224.407449 
L 267.376783 224.940485 
L 268.268691 219.493446 
L 269.160599 219.20617 
L 270.052507 221.64764 
L 270.944416 220.723474 
L 271.836324 217.479408 
L 272.728232 219.156778 
L 273.62014 223.784592 
L 275.403956 219.845539 
L 276.295864 218.561169 
L 277.187772 218.441315 
L 278.07968 218.930336 
L 278.971588 214.486411 
L 279.863497 218.34536 
L 280.755405 219.143593 
L 281.647313 221.509521 
L 282.539221 220.646347 
L 283.431129 221.241931 
L 284.323037 219.991663 
L 285.214945 223.438174 
L 286.106853 222.682456 
L 286.998761 224.160948 
L 287.890669 222.461645 
L 288.782577 222.151998 
L 289.674486 220.812598 
L 290.566394 220.610976 
L 291.458302 217.914095 
L 292.35021 219.503989 
L 293.242118 224.153716 
L 294.134026 233.685881 
L 295.025934 232.299851 
L 295.917842 235.40456 
L 296.80975 234.89799 
L 297.701658 233.45958 
L 298.593566 236.13993 
L 299.485475 233.229055 
L 300.377383 232.856147 
L 301.269291 232.329426 
L 302.161199 233.492742 
L 303.053107 230.027905 
L 303.945015 228.620118 
L 304.836923 226.69651 
L 305.728831 227.604846 
L 306.620739 227.63485 
L 307.512647 226.550305 
L 308.404555 228.399291 
L 309.296464 231.481801 
L 310.188372 231.434987 
L 311.08028 233.993137 
L 311.972188 230.097166 
L 312.864096 229.567737 
L 314.647912 229.348127 
L 315.53982 228.303472 
L 316.431728 229.235482 
L 317.323636 229.449704 
L 318.215544 230.534537 
L 319.107453 231.093762 
L 319.999361 231.209828 
L 321.783177 229.309829 
L 322.675085 230.883395 
L 323.566993 230.353819 
L 324.458901 227.977682 
L 325.350809 226.412059 
L 326.242717 224.138581 
L 327.134625 223.452871 
L 328.026533 221.867871 
L 328.918442 222.931047 
L 329.81035 222.946175 
L 330.702258 222.194529 
L 331.594166 223.940161 
L 332.486074 223.521322 
L 333.377982 222.133861 
L 334.26989 219.854533 
L 335.161798 218.303138 
L 336.053706 209.919955 
L 336.945614 208.255465 
L 337.837522 208.706415 
L 338.729431 206.942542 
L 339.621339 207.773223 
L 340.513247 207.501351 
L 341.405155 202.114562 
L 342.297063 205.532956 
L 343.188971 203.803081 
L 344.080879 202.792331 
L 344.972787 200.620579 
L 345.864695 200.94263 
L 346.756603 202.789517 
L 347.648511 198.415726 
L 348.54042 197.207846 
L 349.432328 183.670905 
L 350.324236 183.713851 
L 351.216144 190.743539 
L 352.108052 184.652956 
L 352.99996 186.11162 
L 353.891868 186.313783 
L 354.783776 182.604882 
L 355.675684 176.99585 
L 356.567592 176.719245 
L 357.4595 179.121701 
L 358.351409 180.135674 
L 359.243317 173.037093 
L 360.135225 164.0197 
L 361.027133 162.99192 
L 361.919041 162.710645 
L 362.810949 154.593123 
L 363.702857 154.384796 
L 364.594765 156.970009 
L 365.486673 157.364364 
L 366.378581 150.009229 
L 367.27049 154.139169 
L 368.162398 168.679216 
L 369.054306 168.926243 
L 369.946214 163.4382 
L 370.838122 159.111458 
L 371.73003 144.849856 
L 372.621938 153.463145 
L 373.513846 149.396404 
L 374.405754 147.282504 
L 375.297662 154.76308 
L 376.18957 150.040773 
L 377.081479 147.882151 
L 377.973387 149.781575 
L 378.865295 157.922576 
L 379.757203 155.739611 
L 380.649111 158.551235 
L 381.541019 160.590738 
L 382.432927 153.313457 
L 383.324835 149.938607 
L 384.216743 148.937356 
L 385.108651 147.336458 
L 386.000559 129.359806 
L 386.892468 115.561608 
L 387.784376 112.532899 
L 388.676284 105.909297 
L 389.568192 109.459797 
L 390.4601 116.449041 
L 391.352008 106.079112 
L 392.243916 111.62971 
L 393.135824 106.906177 
L 394.027732 97.677216 
L 394.91964 81.27764 
L 395.811548 83.142704 
L 396.703457 75.655116 
L 397.595365 72.710316 
L 398.487273 58.255184 
L 398.487273 58.255184 
" style="fill:none;stroke:#d62728;stroke-linecap:square;stroke-width:1.5;"/>
   </g>
   <g id="patch_3">
    <path d="M 57.6 307.584 
L 57.6 41.472 
" style="fill:none;stroke:#000000;stroke-linecap:square;stroke-linejoin:miter;stroke-width:0.8;"/>
   </g>
   <g id="patch_4">
    <path d="M 414.72 307.584 
L 414.72 41.472 
" style="fill:none;stroke:#000000;stroke-linecap:square;stroke-linejoin:miter;stroke-width:0.8;"/>
   </g>
   <g id="patch_5">
    <path d="M 57.6 307.584 
L 414.72 307.584 
" style="fill:none;stroke:#000000;stroke-linecap:square;stroke-linejoin:miter;stroke-width:0.8;"/>
   </g>
   <g id="patch_6">
    <path d="M 57.6 41.472 
L 414.72 41.472 
" style="fill:none;stroke:#000000;stroke-linecap:square;stroke-linejoin:miter;stroke-width:0.8;"/>
   </g>
   <g id="text_14">
    <!-- Data source: coindesk -->
    <g transform="translate(180.640469 35.472)scale(0.1 -0.1)">
     <defs>
      <path d="M 19.671875 64.796875 
L 19.671875 8.109375 
L 31.59375 8.109375 
Q 46.6875 8.109375 53.6875 14.9375 
Q 60.6875 21.78125 60.6875 36.53125 
Q 60.6875 51.171875 53.6875 57.984375 
Q 46.6875 64.796875 31.59375 64.796875 
z
M 9.8125 72.90625 
L 30.078125 72.90625 
Q 51.265625 72.90625 61.171875 64.09375 
Q 71.09375 55.28125 71.09375 36.53125 
Q 71.09375 17.671875 61.125 8.828125 
Q 51.171875 0 30.078125 0 
L 9.8125 0 
z
" id="DejaVuSans-68"/>
      <path d="M 34.28125 27.484375 
Q 23.390625 27.484375 19.1875 25 
Q 14.984375 22.515625 14.984375 16.5 
Q 14.984375 11.71875 18.140625 8.90625 
Q 21.296875 6.109375 26.703125 6.109375 
Q 34.1875 6.109375 38.703125 11.40625 
Q 43.21875 16.703125 43.21875 25.484375 
L 43.21875 27.484375 
z
M 52.203125 31.203125 
L 52.203125 0 
L 43.21875 0 
L 43.21875 8.296875 
Q 40.140625 3.328125 35.546875 0.953125 
Q 30.953125 -1.421875 24.3125 -1.421875 
Q 15.921875 -1.421875 10.953125 3.296875 
Q 6 8.015625 6 15.921875 
Q 6 25.140625 12.171875 29.828125 
Q 18.359375 34.515625 30.609375 34.515625 
L 43.21875 34.515625 
L 43.21875 35.40625 
Q 43.21875 41.609375 39.140625 45 
Q 35.0625 48.390625 27.6875 48.390625 
Q 23 48.390625 18.546875 47.265625 
Q 14.109375 46.140625 10.015625 43.890625 
L 10.015625 52.203125 
Q 14.9375 54.109375 19.578125 55.046875 
Q 24.21875 56 28.609375 56 
Q 40.484375 56 46.34375 49.84375 
Q 52.203125 43.703125 52.203125 31.203125 
z
" id="DejaVuSans-97"/>
      <path d="M 18.3125 70.21875 
L 18.3125 54.6875 
L 36.8125 54.6875 
L 36.8125 47.703125 
L 18.3125 47.703125 
L 18.3125 18.015625 
Q 18.3125 11.328125 20.140625 9.421875 
Q 21.96875 7.515625 27.59375 7.515625 
L 36.8125 7.515625 
L 36.8125 0 
L 27.59375 0 
Q 17.1875 0 13.234375 3.875 
Q 9.28125 7.765625 9.28125 18.015625 
L 9.28125 47.703125 
L 2.6875 47.703125 
L 2.6875 54.6875 
L 9.28125 54.6875 
L 9.28125 70.21875 
z
" id="DejaVuSans-116"/>
      <path id="DejaVuSans-32"/>
      <path d="M 44.28125 53.078125 
L 44.28125 44.578125 
Q 40.484375 46.53125 36.375 47.5 
Q 32.28125 48.484375 27.875 48.484375 
Q 21.1875 48.484375 17.84375 46.4375 
Q 14.5 44.390625 14.5 40.28125 
Q 14.5 37.15625 16.890625 35.375 
Q 19.28125 33.59375 26.515625 31.984375 
L 29.59375 31.296875 
Q 39.15625 29.25 43.1875 25.515625 
Q 47.21875 21.78125 47.21875 15.09375 
Q 47.21875 7.46875 41.1875 3.015625 
Q 35.15625 -1.421875 24.609375 -1.421875 
Q 20.21875 -1.421875 15.453125 -0.5625 
Q 10.6875 0.296875 5.421875 2 
L 5.421875 11.28125 
Q 10.40625 8.6875 15.234375 7.390625 
Q 20.0625 6.109375 24.8125 6.109375 
Q 31.15625 6.109375 34.5625 8.28125 
Q 37.984375 10.453125 37.984375 14.40625 
Q 37.984375 18.0625 35.515625 20.015625 
Q 33.0625 21.96875 24.703125 23.78125 
L 21.578125 24.515625 
Q 13.234375 26.265625 9.515625 29.90625 
Q 5.8125 33.546875 5.8125 39.890625 
Q 5.8125 47.609375 11.28125 51.796875 
Q 16.75 56 26.8125 56 
Q 31.78125 56 36.171875 55.265625 
Q 40.578125 54.546875 44.28125 53.078125 
z
" id="DejaVuSans-115"/>
      <path d="M 30.609375 48.390625 
Q 23.390625 48.390625 19.1875 42.75 
Q 14.984375 37.109375 14.984375 27.296875 
Q 14.984375 17.484375 19.15625 11.84375 
Q 23.34375 6.203125 30.609375 6.203125 
Q 37.796875 6.203125 41.984375 11.859375 
Q 46.1875 17.53125 46.1875 27.296875 
Q 46.1875 37.015625 41.984375 42.703125 
Q 37.796875 48.390625 30.609375 48.390625 
z
M 30.609375 56 
Q 42.328125 56 49.015625 48.375 
Q 55.71875 40.765625 55.71875 27.296875 
Q 55.71875 13.875 49.015625 6.21875 
Q 42.328125 -1.421875 30.609375 -1.421875 
Q 18.84375 -1.421875 12.171875 6.21875 
Q 5.515625 13.875 5.515625 27.296875 
Q 5.515625 40.765625 12.171875 48.375 
Q 18.84375 56 30.609375 56 
z
" id="DejaVuSans-111"/>
      <path d="M 8.5 21.578125 
L 8.5 54.6875 
L 17.484375 54.6875 
L 17.484375 21.921875 
Q 17.484375 14.15625 20.5 10.265625 
Q 23.53125 6.390625 29.59375 6.390625 
Q 36.859375 6.390625 41.078125 11.03125 
Q 45.3125 15.671875 45.3125 23.6875 
L 45.3125 54.6875 
L 54.296875 54.6875 
L 54.296875 0 
L 45.3125 0 
L 45.3125 8.40625 
Q 42.046875 3.421875 37.71875 1 
Q 33.40625 -1.421875 27.6875 -1.421875 
Q 18.265625 -1.421875 13.375 4.4375 
Q 8.5 10.296875 8.5 21.578125 
z
M 31.109375 56 
z
" id="DejaVuSans-117"/>
      <path d="M 41.109375 46.296875 
Q 39.59375 47.171875 37.8125 47.578125 
Q 36.03125 48 33.890625 48 
Q 26.265625 48 22.1875 43.046875 
Q 18.109375 38.09375 18.109375 28.8125 
L 18.109375 0 
L 9.078125 0 
L 9.078125 54.6875 
L 18.109375 54.6875 
L 18.109375 46.1875 
Q 20.953125 51.171875 25.484375 53.578125 
Q 30.03125 56 36.53125 56 
Q 37.453125 56 38.578125 55.875 
Q 39.703125 55.765625 41.0625 55.515625 
z
" id="DejaVuSans-114"/>
      <path d="M 48.78125 52.59375 
L 48.78125 44.1875 
Q 44.96875 46.296875 41.140625 47.34375 
Q 37.3125 48.390625 33.40625 48.390625 
Q 24.65625 48.390625 19.8125 42.84375 
Q 14.984375 37.3125 14.984375 27.296875 
Q 14.984375 17.28125 19.8125 11.734375 
Q 24.65625 6.203125 33.40625 6.203125 
Q 37.3125 6.203125 41.140625 7.25 
Q 44.96875 8.296875 48.78125 10.40625 
L 48.78125 2.09375 
Q 45.015625 0.34375 40.984375 -0.53125 
Q 36.96875 -1.421875 32.421875 -1.421875 
Q 20.0625 -1.421875 12.78125 6.34375 
Q 5.515625 14.109375 5.515625 27.296875 
Q 5.515625 40.671875 12.859375 48.328125 
Q 20.21875 56 33.015625 56 
Q 37.15625 56 41.109375 55.140625 
Q 45.0625 54.296875 48.78125 52.59375 
z
" id="DejaVuSans-99"/>
      <path d="M 56.203125 29.59375 
L 56.203125 25.203125 
L 14.890625 25.203125 
Q 15.484375 15.921875 20.484375 11.0625 
Q 25.484375 6.203125 34.421875 6.203125 
Q 39.59375 6.203125 44.453125 7.46875 
Q 49.3125 8.734375 54.109375 11.28125 
L 54.109375 2.78125 
Q 49.265625 0.734375 44.1875 -0.34375 
Q 39.109375 -1.421875 33.890625 -1.421875 
Q 20.796875 -1.421875 13.15625 6.1875 
Q 5.515625 13.8125 5.515625 26.8125 
Q 5.515625 40.234375 12.765625 48.109375 
Q 20.015625 56 32.328125 56 
Q 43.359375 56 49.78125 48.890625 
Q 56.203125 41.796875 56.203125 29.59375 
z
M 47.21875 32.234375 
Q 47.125 39.59375 43.09375 43.984375 
Q 39.0625 48.390625 32.421875 48.390625 
Q 24.90625 48.390625 20.390625 44.140625 
Q 15.875 39.890625 15.1875 32.171875 
z
" id="DejaVuSans-101"/>
      <path d="M 11.71875 12.40625 
L 22.015625 12.40625 
L 22.015625 0 
L 11.71875 0 
z
M 11.71875 51.703125 
L 22.015625 51.703125 
L 22.015625 39.3125 
L 11.71875 39.3125 
z
" id="DejaVuSans-58"/>
      <path d="M 9.421875 54.6875 
L 18.40625 54.6875 
L 18.40625 0 
L 9.421875 0 
z
M 9.421875 75.984375 
L 18.40625 75.984375 
L 18.40625 64.59375 
L 9.421875 64.59375 
z
" id="DejaVuSans-105"/>
      <path d="M 54.890625 33.015625 
L 54.890625 0 
L 45.90625 0 
L 45.90625 32.71875 
Q 45.90625 40.484375 42.875 44.328125 
Q 39.84375 48.1875 33.796875 48.1875 
Q 26.515625 48.1875 22.3125 43.546875 
Q 18.109375 38.921875 18.109375 30.90625 
L 18.109375 0 
L 9.078125 0 
L 9.078125 54.6875 
L 18.109375 54.6875 
L 18.109375 46.1875 
Q 21.34375 51.125 25.703125 53.5625 
Q 30.078125 56 35.796875 56 
Q 45.21875 56 50.046875 50.171875 
Q 54.890625 44.34375 54.890625 33.015625 
z
" id="DejaVuSans-110"/>
      <path d="M 45.40625 46.390625 
L 45.40625 75.984375 
L 54.390625 75.984375 
L 54.390625 0 
L 45.40625 0 
L 45.40625 8.203125 
Q 42.578125 3.328125 38.25 0.953125 
Q 33.9375 -1.421875 27.875 -1.421875 
Q 17.96875 -1.421875 11.734375 6.484375 
Q 5.515625 14.40625 5.515625 27.296875 
Q 5.515625 40.1875 11.734375 48.09375 
Q 17.96875 56 27.875 56 
Q 33.9375 56 38.25 53.625 
Q 42.578125 51.265625 45.40625 46.390625 
z
M 14.796875 27.296875 
Q 14.796875 17.390625 18.875 11.75 
Q 22.953125 6.109375 30.078125 6.109375 
Q 37.203125 6.109375 41.296875 11.75 
Q 45.40625 17.390625 45.40625 27.296875 
Q 45.40625 37.203125 41.296875 42.84375 
Q 37.203125 48.484375 30.078125 48.484375 
Q 22.953125 48.484375 18.875 42.84375 
Q 14.796875 37.203125 14.796875 27.296875 
z
" id="DejaVuSans-100"/>
      <path d="M 9.078125 75.984375 
L 18.109375 75.984375 
L 18.109375 31.109375 
L 44.921875 54.6875 
L 56.390625 54.6875 
L 27.390625 29.109375 
L 57.625 0 
L 45.90625 0 
L 18.109375 26.703125 
L 18.109375 0 
L 9.078125 0 
z
" id="DejaVuSans-107"/>
     </defs>
     <use xlink:href="#DejaVuSans-68"/>
     <use x="77.001953" xlink:href="#DejaVuSans-97"/>
     <use x="138.28125" xlink:href="#DejaVuSans-116"/>
     <use x="177.490234" xlink:href="#DejaVuSans-97"/>
     <use x="238.769531" xlink:href="#DejaVuSans-32"/>
     <use x="270.556641" xlink:href="#DejaVuSans-115"/>
     <use x="322.65625" xlink:href="#DejaVuSans-111"/>
     <use x="383.837891" xlink:href="#DejaVuSans-117"/>
     <use x="447.216797" xlink:href="#DejaVuSans-114"/>
     <use x="486.080078" xlink:href="#DejaVuSans-99"/>
     <use x="541.060547" xlink:href="#DejaVuSans-101"/>
     <use x="602.583984" xlink:href="#DejaVuSans-58"/>
     <use x="636.275391" xlink:href="#DejaVuSans-32"/>
     <use x="668.0625" xlink:href="#DejaVuSans-99"/>
     <use x="723.042969" xlink:href="#DejaVuSans-111"/>
     <use x="784.224609" xlink:href="#DejaVuSans-105"/>
     <use x="812.007812" xlink:href="#DejaVuSans-110"/>
     <use x="875.386719" xlink:href="#DejaVuSans-100"/>
     <use x="938.863281" xlink:href="#DejaVuSans-101"/>
     <use x="1000.386719" xlink:href="#DejaVuSans-115"/>
     <use x="1052.486328" xlink:href="#DejaVuSans-107"/>
    </g>
   </g>
   <g id="legend_1">
    <g id="patch_7">
     <path d="M 64.6 108.1845 
L 155.732812 108.1845 
Q 157.732812 108.1845 157.732812 106.1845 
L 157.732812 48.472 
Q 157.732812 46.472 155.732812 46.472 
L 64.6 46.472 
Q 62.6 46.472 62.6 48.472 
L 62.6 106.1845 
Q 62.6 108.1845 64.6 108.1845 
z
" style="fill:#ffffff;opacity:0.8;stroke:#cccccc;stroke-linejoin:miter;"/>
    </g>
    <g id="line2d_18">
     <path d="M 66.6 54.570438 
L 86.6 54.570438 
" style="fill:none;stroke:#1f77b4;stroke-linecap:square;stroke-width:1.5;"/>
    </g>
    <g id="line2d_19"/>
    <g id="text_15">
     <!-- Upper Band -->
     <g transform="translate(94.6 58.070438)scale(0.1 -0.1)">
      <defs>
       <path d="M 8.6875 72.90625 
L 18.609375 72.90625 
L 18.609375 28.609375 
Q 18.609375 16.890625 22.84375 11.734375 
Q 27.09375 6.59375 36.625 6.59375 
Q 46.09375 6.59375 50.34375 11.734375 
Q 54.59375 16.890625 54.59375 28.609375 
L 54.59375 72.90625 
L 64.5 72.90625 
L 64.5 27.390625 
Q 64.5 13.140625 57.4375 5.859375 
Q 50.390625 -1.421875 36.625 -1.421875 
Q 22.796875 -1.421875 15.734375 5.859375 
Q 8.6875 13.140625 8.6875 27.390625 
z
" id="DejaVuSans-85"/>
       <path d="M 18.109375 8.203125 
L 18.109375 -20.796875 
L 9.078125 -20.796875 
L 9.078125 54.6875 
L 18.109375 54.6875 
L 18.109375 46.390625 
Q 20.953125 51.265625 25.265625 53.625 
Q 29.59375 56 35.59375 56 
Q 45.5625 56 51.78125 48.09375 
Q 58.015625 40.1875 58.015625 27.296875 
Q 58.015625 14.40625 51.78125 6.484375 
Q 45.5625 -1.421875 35.59375 -1.421875 
Q 29.59375 -1.421875 25.265625 0.953125 
Q 20.953125 3.328125 18.109375 8.203125 
z
M 48.6875 27.296875 
Q 48.6875 37.203125 44.609375 42.84375 
Q 40.53125 48.484375 33.40625 48.484375 
Q 26.265625 48.484375 22.1875 42.84375 
Q 18.109375 37.203125 18.109375 27.296875 
Q 18.109375 17.390625 22.1875 11.75 
Q 26.265625 6.109375 33.40625 6.109375 
Q 40.53125 6.109375 44.609375 11.75 
Q 48.6875 17.390625 48.6875 27.296875 
z
" id="DejaVuSans-112"/>
       <path d="M 19.671875 34.8125 
L 19.671875 8.109375 
L 35.5 8.109375 
Q 43.453125 8.109375 47.28125 11.40625 
Q 51.125 14.703125 51.125 21.484375 
Q 51.125 28.328125 47.28125 31.5625 
Q 43.453125 34.8125 35.5 34.8125 
z
M 19.671875 64.796875 
L 19.671875 42.828125 
L 34.28125 42.828125 
Q 41.5 42.828125 45.03125 45.53125 
Q 48.578125 48.25 48.578125 53.8125 
Q 48.578125 59.328125 45.03125 62.0625 
Q 41.5 64.796875 34.28125 64.796875 
z
M 9.8125 72.90625 
L 35.015625 72.90625 
Q 46.296875 72.90625 52.390625 68.21875 
Q 58.5 63.53125 58.5 54.890625 
Q 58.5 48.1875 55.375 44.234375 
Q 52.25 40.28125 46.1875 39.3125 
Q 53.46875 37.75 57.5 32.78125 
Q 61.53125 27.828125 61.53125 20.40625 
Q 61.53125 10.640625 54.890625 5.3125 
Q 48.25 0 35.984375 0 
L 9.8125 0 
z
" id="DejaVuSans-66"/>
      </defs>
      <use xlink:href="#DejaVuSans-85"/>
      <use x="73.193359" xlink:href="#DejaVuSans-112"/>
      <use x="136.669922" xlink:href="#DejaVuSans-112"/>
      <use x="200.146484" xlink:href="#DejaVuSans-101"/>
      <use x="261.669922" xlink:href="#DejaVuSans-114"/>
      <use x="302.783203" xlink:href="#DejaVuSans-32"/>
      <use x="334.570312" xlink:href="#DejaVuSans-66"/>
      <use x="403.173828" xlink:href="#DejaVuSans-97"/>
      <use x="464.453125" xlink:href="#DejaVuSans-110"/>
      <use x="527.832031" xlink:href="#DejaVuSans-100"/>
     </g>
    </g>
    <g id="line2d_20">
     <path d="M 66.6 69.248563 
L 86.6 69.248563 
" style="fill:none;stroke:#ff7f0e;stroke-linecap:square;stroke-width:1.5;"/>
    </g>
    <g id="line2d_21"/>
    <g id="text_16">
     <!-- Lower Band -->
     <g transform="translate(94.6 72.748563)scale(0.1 -0.1)">
      <defs>
       <path d="M 9.8125 72.90625 
L 19.671875 72.90625 
L 19.671875 8.296875 
L 55.171875 8.296875 
L 55.171875 0 
L 9.8125 0 
z
" id="DejaVuSans-76"/>
       <path d="M 4.203125 54.6875 
L 13.1875 54.6875 
L 24.421875 12.015625 
L 35.59375 54.6875 
L 46.1875 54.6875 
L 57.421875 12.015625 
L 68.609375 54.6875 
L 77.59375 54.6875 
L 63.28125 0 
L 52.6875 0 
L 40.921875 44.828125 
L 29.109375 0 
L 18.5 0 
z
" id="DejaVuSans-119"/>
      </defs>
      <use xlink:href="#DejaVuSans-76"/>
      <use x="53.962891" xlink:href="#DejaVuSans-111"/>
      <use x="115.144531" xlink:href="#DejaVuSans-119"/>
      <use x="196.931641" xlink:href="#DejaVuSans-101"/>
      <use x="258.455078" xlink:href="#DejaVuSans-114"/>
      <use x="299.568359" xlink:href="#DejaVuSans-32"/>
      <use x="331.355469" xlink:href="#DejaVuSans-66"/>
      <use x="399.958984" xlink:href="#DejaVuSans-97"/>
      <use x="461.238281" xlink:href="#DejaVuSans-110"/>
      <use x="524.617188" xlink:href="#DejaVuSans-100"/>
     </g>
    </g>
    <g id="line2d_22">
     <path d="M 66.6 83.926688 
L 86.6 83.926688 
" style="fill:none;stroke:#2ca02c;stroke-linecap:square;stroke-width:1.5;"/>
    </g>
    <g id="line2d_23"/>
    <g id="text_17">
     <!-- MA -->
     <g transform="translate(94.6 87.426688)scale(0.1 -0.1)">
      <defs>
       <path d="M 9.8125 72.90625 
L 24.515625 72.90625 
L 43.109375 23.296875 
L 61.8125 72.90625 
L 76.515625 72.90625 
L 76.515625 0 
L 66.890625 0 
L 66.890625 64.015625 
L 48.09375 14.015625 
L 38.1875 14.015625 
L 19.390625 64.015625 
L 19.390625 0 
L 9.8125 0 
z
" id="DejaVuSans-77"/>
       <path d="M 34.1875 63.1875 
L 20.796875 26.90625 
L 47.609375 26.90625 
z
M 28.609375 72.90625 
L 39.796875 72.90625 
L 67.578125 0 
L 57.328125 0 
L 50.6875 18.703125 
L 17.828125 18.703125 
L 11.1875 0 
L 0.78125 0 
z
" id="DejaVuSans-65"/>
      </defs>
      <use xlink:href="#DejaVuSans-77"/>
      <use x="86.279297" xlink:href="#DejaVuSans-65"/>
     </g>
    </g>
    <g id="line2d_24">
     <path d="M 66.6 98.604813 
L 86.6 98.604813 
" style="fill:none;stroke:#d62728;stroke-linecap:square;stroke-width:1.5;"/>
    </g>
    <g id="line2d_25"/>
    <g id="text_18">
     <!-- BTC-USD -->
     <g transform="translate(94.6 102.104813)scale(0.1 -0.1)">
      <defs>
       <path d="M -0.296875 72.90625 
L 61.375 72.90625 
L 61.375 64.59375 
L 35.5 64.59375 
L 35.5 0 
L 25.59375 0 
L 25.59375 64.59375 
L -0.296875 64.59375 
z
" id="DejaVuSans-84"/>
       <path d="M 64.40625 67.28125 
L 64.40625 56.890625 
Q 59.421875 61.53125 53.78125 63.8125 
Q 48.140625 66.109375 41.796875 66.109375 
Q 29.296875 66.109375 22.65625 58.46875 
Q 16.015625 50.828125 16.015625 36.375 
Q 16.015625 21.96875 22.65625 14.328125 
Q 29.296875 6.6875 41.796875 6.6875 
Q 48.140625 6.6875 53.78125 8.984375 
Q 59.421875 11.28125 64.40625 15.921875 
L 64.40625 5.609375 
Q 59.234375 2.09375 53.4375 0.328125 
Q 47.65625 -1.421875 41.21875 -1.421875 
Q 24.65625 -1.421875 15.125 8.703125 
Q 5.609375 18.84375 5.609375 36.375 
Q 5.609375 53.953125 15.125 64.078125 
Q 24.65625 74.21875 41.21875 74.21875 
Q 47.75 74.21875 53.53125 72.484375 
Q 59.328125 70.75 64.40625 67.28125 
z
" id="DejaVuSans-67"/>
       <path d="M 53.515625 70.515625 
L 53.515625 60.890625 
Q 47.90625 63.578125 42.921875 64.890625 
Q 37.9375 66.21875 33.296875 66.21875 
Q 25.25 66.21875 20.875 63.09375 
Q 16.5 59.96875 16.5 54.203125 
Q 16.5 49.359375 19.40625 46.890625 
Q 22.3125 44.4375 30.421875 42.921875 
L 36.375 41.703125 
Q 47.40625 39.59375 52.65625 34.296875 
Q 57.90625 29 57.90625 20.125 
Q 57.90625 9.515625 50.796875 4.046875 
Q 43.703125 -1.421875 29.984375 -1.421875 
Q 24.8125 -1.421875 18.96875 -0.25 
Q 13.140625 0.921875 6.890625 3.21875 
L 6.890625 13.375 
Q 12.890625 10.015625 18.65625 8.296875 
Q 24.421875 6.59375 29.984375 6.59375 
Q 38.421875 6.59375 43.015625 9.90625 
Q 47.609375 13.234375 47.609375 19.390625 
Q 47.609375 24.75 44.3125 27.78125 
Q 41.015625 30.8125 33.5 32.328125 
L 27.484375 33.5 
Q 16.453125 35.6875 11.515625 40.375 
Q 6.59375 45.0625 6.59375 53.421875 
Q 6.59375 63.09375 13.40625 68.65625 
Q 20.21875 74.21875 32.171875 74.21875 
Q 37.3125 74.21875 42.625 73.28125 
Q 47.953125 72.359375 53.515625 70.515625 
z
" id="DejaVuSans-83"/>
      </defs>
      <use xlink:href="#DejaVuSans-66"/>
      <use x="68.603516" xlink:href="#DejaVuSans-84"/>
      <use x="123.8125" xlink:href="#DejaVuSans-67"/>
      <use x="193.636719" xlink:href="#DejaVuSans-45"/>
      <use x="229.720703" xlink:href="#DejaVuSans-85"/>
      <use x="302.914062" xlink:href="#DejaVuSans-83"/>
      <use x="366.390625" xlink:href="#DejaVuSans-68"/>
     </g>
    </g>
   </g>
  </g>
  <g id="text_19">
   <!-- Bollinger Band -->
   <g transform="translate(171.90625 19.0695)scale(0.16 -0.16)">
    <defs>
     <path d="M 9.421875 75.984375 
L 18.40625 75.984375 
L 18.40625 0 
L 9.421875 0 
z
" id="DejaVuSans-108"/>
     <path d="M 45.40625 27.984375 
Q 45.40625 37.75 41.375 43.109375 
Q 37.359375 48.484375 30.078125 48.484375 
Q 22.859375 48.484375 18.828125 43.109375 
Q 14.796875 37.75 14.796875 27.984375 
Q 14.796875 18.265625 18.828125 12.890625 
Q 22.859375 7.515625 30.078125 7.515625 
Q 37.359375 7.515625 41.375 12.890625 
Q 45.40625 18.265625 45.40625 27.984375 
z
M 54.390625 6.78125 
Q 54.390625 -7.171875 48.1875 -13.984375 
Q 42 -20.796875 29.203125 -20.796875 
Q 24.46875 -20.796875 20.265625 -20.09375 
Q 16.0625 -19.390625 12.109375 -17.921875 
L 12.109375 -9.1875 
Q 16.0625 -11.328125 19.921875 -12.34375 
Q 23.78125 -13.375 27.78125 -13.375 
Q 36.625 -13.375 41.015625 -8.765625 
Q 45.40625 -4.15625 45.40625 5.171875 
L 45.40625 9.625 
Q 42.625 4.78125 38.28125 2.390625 
Q 33.9375 0 27.875 0 
Q 17.828125 0 11.671875 7.65625 
Q 5.515625 15.328125 5.515625 27.984375 
Q 5.515625 40.671875 11.671875 48.328125 
Q 17.828125 56 27.875 56 
Q 33.9375 56 38.28125 53.609375 
Q 42.625 51.21875 45.40625 46.390625 
L 45.40625 54.6875 
L 54.390625 54.6875 
z
" id="DejaVuSans-103"/>
    </defs>
    <use xlink:href="#DejaVuSans-66"/>
    <use x="68.603516" xlink:href="#DejaVuSans-111"/>
    <use x="129.785156" xlink:href="#DejaVuSans-108"/>
    <use x="157.568359" xlink:href="#DejaVuSans-108"/>
    <use x="185.351562" xlink:href="#DejaVuSans-105"/>
    <use x="213.134766" xlink:href="#DejaVuSans-110"/>
    <use x="276.513672" xlink:href="#DejaVuSans-103"/>
    <use x="339.990234" xlink:href="#DejaVuSans-101"/>
    <use x="401.513672" xlink:href="#DejaVuSans-114"/>
    <use x="442.626953" xlink:href="#DejaVuSans-32"/>
    <use x="474.414062" xlink:href="#DejaVuSans-66"/>
    <use x="543.017578" xlink:href="#DejaVuSans-97"/>
    <use x="604.296875" xlink:href="#DejaVuSans-110"/>
    <use x="667.675781" xlink:href="#DejaVuSans-100"/>
   </g>
  </g>
 </g>
 <defs>
  <clipPath id="pb2499794ac">
   <rect height="266.112" width="357.12" x="57.6" y="41.472"/>
  </clipPath>
 </defs>
</svg>
