<?xml version="1.0" encoding="utf-8" standalone="no"?>
<!DOCTYPE svg PUBLIC "-//W3C//DTD SVG 1.1//EN"
  "http://www.w3.org/Graphics/SVG/1.1/DTD/svg11.dtd">
<!-- Created with matplotlib (https://matplotlib.org/) -->
<svg height="345.6pt" version="1.1" viewBox="0 0 460.8 345.6" width="460.8pt" xmlns="http://www.w3.org/2000/svg" xmlns:xlink="http://www.w3.org/1999/xlink">
 <metadata>
  <rdf:RDF xmlns:cc="http://creativecommons.org/ns#" xmlns:dc="http://purl.org/dc/elements/1.1/" xmlns:rdf="http://www.w3.org/1999/02/22-rdf-syntax-ns#">
   <cc:Work>
    <dc:type rdf:resource="http://purl.org/dc/dcmitype/StillImage"/>
    <dc:date>2021-01-21T08:39:34.323910</dc:date>
    <dc:format>image/svg+xml</dc:format>
    <dc:creator>
     <cc:Agent>
      <dc:title>Matplotlib v3.3.2, https://matplotlib.org/</dc:title>
     </cc:Agent>
    </dc:creator>
   </cc:Work>
  </rdf:RDF>
 </metadata>
 <defs>
  <style type="text/css">*{stroke-linecap:butt;stroke-linejoin:round;}</style>
 </defs>
 <g id="figure_1">
  <g id="patch_1">
   <path d="M 0 345.6 
L 460.8 345.6 
L 460.8 0 
L 0 0 
z
" style="fill:#ffffff;"/>
  </g>
  <g id="axes_1">
   <g id="patch_2">
    <path d="M 57.6 307.584 
L 414.72 307.584 
L 414.72 41.472 
L 57.6 41.472 
z
" style="fill:#ffffff;"/>
   </g>
   <g id="PolyCollection_1">
    <defs>
     <path d="M 89.85464 -68.873379 
L 89.85464 -83.89171 
L 90.697898 -84.084505 
L 91.541157 -83.830711 
L 92.384416 -83.613314 
L 93.227674 -83.286507 
L 94.070933 -82.731876 
L 94.914191 -82.59037 
L 95.75745 -82.892682 
L 96.600708 -83.743563 
L 97.443967 -84.084336 
L 98.287226 -84.867211 
L 99.130484 -85.142538 
L 99.973743 -85.460754 
L 100.817001 -85.540066 
L 101.66026 -85.82337 
L 102.503518 -85.984174 
L 103.346777 -86.578188 
L 104.190035 -87.279439 
L 105.033294 -87.975068 
L 105.876553 -88.664507 
L 106.719811 -89.571799 
L 107.56307 -90.012731 
L 108.406328 -90.791096 
L 109.249587 -91.36015 
L 110.092845 -91.618991 
L 110.936104 -91.670284 
L 111.779362 -91.347927 
L 112.622621 -91.183247 
L 113.46588 -91.174474 
L 114.309138 -91.38693 
L 115.152397 -91.372123 
L 115.995655 -91.287629 
L 116.838914 -91.209012 
L 117.682172 -91.085292 
L 118.525431 -90.95735 
L 119.368689 -90.559596 
L 120.211948 -90.778944 
L 121.055207 -91.605224 
L 121.898465 -92.114978 
L 122.741724 -92.518567 
L 123.584982 -92.709772 
L 124.428241 -92.921912 
L 125.271499 -92.484861 
L 126.114758 -91.897325 
L 126.958017 -91.306262 
L 127.801275 -90.384867 
L 128.644534 -89.937334 
L 129.487792 -89.403786 
L 130.331051 -89.494688 
L 131.174309 -88.855274 
L 132.017568 -88.740525 
L 132.860826 -88.425984 
L 133.704085 -92.325653 
L 134.547344 -93.047291 
L 135.390602 -93.29701 
L 136.233861 -93.094566 
L 137.077119 -93.042806 
L 137.920378 -92.819351 
L 138.763636 -92.303451 
L 139.606895 -91.443705 
L 140.450153 -90.600277 
L 141.293412 -89.648685 
L 142.136671 -88.215443 
L 142.979929 -86.779749 
L 143.823188 -85.250743 
L 144.666446 -83.145582 
L 145.509705 -80.623851 
L 146.352963 -77.960356 
L 147.196222 -76.36685 
L 148.039481 -74.625762 
L 148.882739 -72.821868 
L 149.725998 -70.577378 
L 150.569256 -70.648123 
L 151.412515 -71.190938 
L 152.255773 -71.346468 
L 153.099032 -71.596483 
L 153.94229 -71.209895 
L 154.785549 -71.657013 
L 155.628808 -71.659199 
L 156.472066 -72.41867 
L 157.315325 -72.941633 
L 158.158583 -73.016792 
L 159.001842 -72.744981 
L 159.8451 -72.839824 
L 160.688359 -72.879877 
L 161.531617 -72.938096 
L 162.374876 -72.926072 
L 163.218135 -73.089494 
L 164.061393 -73.070945 
L 164.904652 -72.616947 
L 165.74791 -72.562839 
L 166.591169 -72.314439 
L 167.434427 -72.248215 
L 168.277686 -72.327601 
L 169.120945 -72.760477 
L 169.964203 -73.173663 
L 170.807462 -73.549865 
L 171.65072 -74.014665 
L 172.493979 -74.631385 
L 173.337237 -75.048128 
L 174.180496 -77.355076 
L 175.023754 -78.854974 
L 175.867013 -80.406461 
L 176.710272 -81.94086 
L 177.55353 -83.105879 
L 178.396789 -84.035462 
L 179.240047 -84.838439 
L 180.083306 -85.837555 
L 180.926564 -87.763182 
L 181.769823 -89.163069 
L 182.613081 -89.992586 
L 183.45634 -89.785904 
L 184.299599 -89.328706 
L 185.142857 -89.015102 
L 185.986116 -89.143302 
L 186.829374 -89.566537 
L 187.672633 -89.346692 
L 188.515891 -89.114568 
L 189.35915 -88.968156 
L 190.202409 -88.469437 
L 191.045667 -88.849003 
L 191.888926 -88.85381 
L 192.732184 -88.798427 
L 193.575443 -88.789701 
L 194.418701 -88.758602 
L 195.26196 -88.847391 
L 196.105218 -88.879994 
L 196.948477 -88.93391 
L 197.791736 -88.291061 
L 198.634994 -88.029627 
L 199.478253 -87.911356 
L 200.321511 -88.141533 
L 201.16477 -87.961291 
L 202.008028 -88.759552 
L 202.851287 -88.839765 
L 203.694545 -88.730348 
L 204.537804 -88.98769 
L 205.381063 -89.103098 
L 206.224321 -89.11613 
L 207.06758 -89.156256 
L 207.910838 -89.160032 
L 208.754097 -89.334104 
L 209.597355 -89.593715 
L 210.440614 -89.578301 
L 211.283872 -89.579447 
L 212.127131 -89.205099 
L 212.97039 -88.928633 
L 213.813648 -88.427705 
L 214.656907 -88.297958 
L 215.500165 -88.298219 
L 216.343424 -88.305991 
L 217.186682 -88.302566 
L 218.029941 -88.321312 
L 218.8732 -87.554056 
L 219.716458 -87.620369 
L 220.559717 -87.59041 
L 221.402975 -87.432398 
L 222.246234 -87.404793 
L 223.089492 -87.360009 
L 223.932751 -87.309286 
L 224.776009 -87.063626 
L 225.619268 -86.72686 
L 226.462527 -86.109462 
L 227.305785 -86.10922 
L 228.149044 -86.050765 
L 228.992302 -85.981926 
L 229.835561 -85.96056 
L 230.678819 -85.892432 
L 231.522078 -85.709535 
L 232.365336 -85.571425 
L 233.208595 -85.600768 
L 234.051854 -85.576306 
L 234.895112 -85.534288 
L 235.738371 -85.515005 
L 236.581629 -85.019341 
L 237.424888 -84.484087 
L 238.268146 -84.434673 
L 239.111405 -84.408934 
L 239.954664 -84.408602 
L 240.797922 -84.339072 
L 241.641181 -84.332054 
L 242.484439 -84.337897 
L 243.327698 -84.335612 
L 244.170956 -84.471484 
L 245.014215 -84.831421 
L 245.857473 -85.229403 
L 246.700732 -85.468044 
L 247.543991 -85.902681 
L 248.387249 -86.700498 
L 249.230508 -89.826038 
L 250.073766 -91.696286 
L 250.917025 -93.498894 
L 251.760283 -94.979209 
L 252.603542 -96.648764 
L 253.4468 -98.721239 
L 254.290059 -99.504492 
L 255.133318 -100.360473 
L 255.976576 -101.00026 
L 256.819835 -102.062941 
L 257.663093 -102.952543 
L 258.506352 -103.477731 
L 259.34961 -103.958037 
L 260.192869 -104.075579 
L 261.036128 -104.316406 
L 261.879386 -104.050595 
L 262.722645 -103.725951 
L 263.565903 -103.132396 
L 264.409162 -102.259089 
L 265.25242 -101.162408 
L 266.095679 -101.3425 
L 266.938937 -101.856798 
L 267.782196 -101.944537 
L 268.625455 -101.846122 
L 269.468713 -101.920542 
L 270.311972 -101.847037 
L 271.15523 -101.54046 
L 271.998489 -101.355233 
L 272.841747 -101.019269 
L 273.685006 -101.196058 
L 274.528264 -101.214989 
L 275.371523 -101.326061 
L 276.214782 -101.295918 
L 277.05804 -101.294285 
L 277.901299 -101.176398 
L 278.744557 -101.145122 
L 279.587816 -101.305862 
L 280.431074 -101.29768 
L 281.274333 -102.914864 
L 282.117591 -103.323912 
L 282.96085 -103.789047 
L 283.804109 -103.489229 
L 284.647367 -103.288585 
L 285.490626 -103.253407 
L 286.333884 -102.947183 
L 287.177143 -102.738313 
L 288.020401 -102.338909 
L 288.86366 -101.873402 
L 289.706919 -101.232507 
L 290.550177 -100.929368 
L 291.393436 -100.512774 
L 292.236694 -100.253119 
L 293.079953 -99.799946 
L 293.923211 -99.346943 
L 294.76647 -98.643486 
L 295.609728 -97.811824 
L 296.452987 -96.044767 
L 297.296246 -95.052693 
L 298.139504 -95.035011 
L 298.982763 -95.14487 
L 299.826021 -95.162445 
L 300.66928 -95.212254 
L 301.512538 -95.303753 
L 302.355797 -95.184862 
L 303.199055 -95.163317 
L 304.042314 -95.150396 
L 304.885573 -95.09176 
L 305.728831 -95.052329 
L 306.57209 -94.93185 
L 307.415348 -94.932783 
L 308.258607 -94.92546 
L 309.101865 -94.741428 
L 309.945124 -94.569705 
L 310.788383 -94.551512 
L 311.631641 -94.476374 
L 312.4749 -95.08082 
L 313.318158 -95.80344 
L 314.161417 -96.696034 
L 315.004675 -97.089556 
L 315.847934 -97.574363 
L 316.691192 -98.114089 
L 317.534451 -98.375446 
L 318.37771 -98.647247 
L 319.220968 -99.010168 
L 320.064227 -99.623816 
L 320.907485 -100.370104 
L 321.750744 -102.456705 
L 322.594002 -104.401516 
L 323.437261 -105.806668 
L 324.280519 -107.283236 
L 325.123778 -108.410724 
L 325.967037 -109.283944 
L 326.810295 -110.761144 
L 327.653554 -111.571334 
L 328.496812 -112.455437 
L 329.340071 -113.373821 
L 330.183329 -114.411934 
L 331.026588 -115.277092 
L 331.869847 -115.726993 
L 332.713105 -116.412974 
L 333.556364 -117.127116 
L 334.399622 -119.502752 
L 335.242881 -121.325488 
L 336.086139 -121.735733 
L 336.929398 -122.813275 
L 337.772656 -123.469497 
L 338.615915 -124.385457 
L 339.459174 -125.675661 
L 340.302432 -127.458718 
L 341.145691 -129.002944 
L 341.988949 -129.916166 
L 342.832208 -130.471314 
L 343.675466 -131.969003 
L 344.518725 -134.332081 
L 345.361983 -136.465841 
L 346.205242 -138.224117 
L 347.048501 -140.919945 
L 347.891759 -142.995001 
L 348.735018 -144.017229 
L 349.578276 -144.863323 
L 350.421535 -146.290458 
L 351.264793 -147.664283 
L 352.108052 -147.707911 
L 352.951311 -147.18772 
L 353.794569 -147.190868 
L 354.637828 -147.219313 
L 355.481086 -148.529134 
L 356.324345 -148.671298 
L 357.167603 -149.417921 
L 358.010862 -150.131115 
L 358.85412 -149.675227 
L 359.697379 -148.991916 
L 360.540638 -148.971694 
L 361.383896 -149.30547 
L 362.227155 -149.2199 
L 363.070413 -149.163482 
L 363.913672 -149.099224 
L 364.75693 -149.044156 
L 365.600189 -149.180983 
L 366.443447 -149.517051 
L 367.286706 -149.653658 
L 368.129965 -150.121752 
L 368.973223 -152.917839 
L 369.816482 -157.991598 
L 370.65974 -162.733053 
L 371.502999 -167.832004 
L 372.346257 -171.490587 
L 373.189516 -173.715786 
L 374.032774 -177.079268 
L 374.876033 -179.306861 
L 375.719292 -181.659877 
L 376.56255 -184.870564 
L 377.405809 -190.045849 
L 378.249067 -194.134074 
L 379.092326 -198.226614 
L 379.935584 -201.945034 
L 380.778843 -206.598335 
L 381.622102 -210.114675 
L 382.46536 -213.569923 
L 383.308619 -220.31147 
L 384.151877 -226.823603 
L 384.995136 -230.284268 
L 385.838394 -236.703521 
L 386.681653 -246.752978 
L 387.524911 -259.769545 
L 388.36817 -272.458424 
L 389.211429 -281.955858 
L 390.054687 -286.836772 
L 390.897946 -288.625449 
L 391.741204 -288.354091 
L 392.584463 -289.311555 
L 393.427721 -291.601573 
L 394.27098 -292.032 
L 395.114238 -290.885839 
L 395.957497 -289.325269 
L 396.800756 -287.353963 
L 397.644014 -285.489003 
L 398.487273 -282.699107 
L 398.487273 -211.093233 
L 398.487273 -211.093233 
L 397.644014 -204.311292 
L 396.800756 -198.094346 
L 395.957497 -190.491268 
L 395.114238 -183.584415 
L 394.27098 -176.467604 
L 393.427721 -170.505638 
L 392.584463 -163.990759 
L 391.741204 -156.774024 
L 390.897946 -149.642149 
L 390.054687 -144.216799 
L 389.211429 -139.581962 
L 388.36817 -138.793456 
L 387.524911 -141.071627 
L 386.681653 -144.003455 
L 385.838394 -145.505221 
L 384.995136 -144.152936 
L 384.151877 -139.897298 
L 383.308619 -137.990853 
L 382.46536 -136.777468 
L 381.622102 -133.782885 
L 380.778843 -130.610021 
L 379.935584 -128.778996 
L 379.092326 -127.125636 
L 378.249067 -125.875614 
L 377.405809 -125.629346 
L 376.56255 -126.492013 
L 375.719292 -126.326918 
L 374.876033 -125.590356 
L 374.032774 -125.455788 
L 373.189516 -125.972003 
L 372.346257 -125.757529 
L 371.502999 -127.067403 
L 370.65974 -128.725919 
L 369.816482 -130.1757 
L 368.973223 -131.819099 
L 368.129965 -132.095904 
L 367.286706 -132.136297 
L 366.443447 -132.166823 
L 365.600189 -132.031271 
L 364.75693 -131.911818 
L 363.913672 -132.227951 
L 363.070413 -132.424086 
L 362.227155 -131.909041 
L 361.383896 -131.48519 
L 360.540638 -130.882534 
L 359.697379 -129.22435 
L 358.85412 -126.58987 
L 358.010862 -124.539979 
L 357.167603 -123.35511 
L 356.324345 -122.316103 
L 355.481086 -120.595613 
L 354.637828 -119.242425 
L 353.794569 -117.54778 
L 352.951311 -116.168075 
L 352.108052 -114.231814 
L 351.264793 -113.290708 
L 350.421535 -112.724253 
L 349.578276 -111.140915 
L 348.735018 -109.306381 
L 347.891759 -107.376974 
L 347.048501 -106.460623 
L 346.205242 -106.185247 
L 345.361983 -105.347017 
L 344.518725 -104.84764 
L 343.675466 -104.543777 
L 342.832208 -104.188237 
L 341.988949 -102.979325 
L 341.145691 -102.033961 
L 340.302432 -101.62937 
L 339.459174 -101.35411 
L 338.615915 -100.978497 
L 337.772656 -100.351823 
L 336.929398 -98.898347 
L 336.086139 -97.697548 
L 335.242881 -96.081411 
L 334.399622 -95.337414 
L 333.556364 -95.137283 
L 332.713105 -94.237996 
L 331.869847 -93.359728 
L 331.026588 -92.512982 
L 330.183329 -92.014755 
L 329.340071 -91.569651 
L 328.496812 -91.09638 
L 327.653554 -90.493382 
L 326.810295 -89.858997 
L 325.967037 -89.504071 
L 325.123778 -88.879031 
L 324.280519 -88.627806 
L 323.437261 -88.615746 
L 322.594002 -88.57961 
L 321.750744 -89.056709 
L 320.907485 -89.822545 
L 320.064227 -89.874911 
L 319.220968 -89.931276 
L 318.37771 -89.788287 
L 317.534451 -89.695162 
L 316.691192 -89.589599 
L 315.847934 -89.628211 
L 315.004675 -89.690966 
L 314.161417 -89.357471 
L 313.318158 -89.650303 
L 312.4749 -89.803363 
L 311.631641 -90.181561 
L 310.788383 -90.134519 
L 309.945124 -90.12599 
L 309.101865 -90.117149 
L 308.258607 -90.136601 
L 307.415348 -90.138256 
L 306.57209 -90.1349 
L 305.728831 -89.881004 
L 304.885573 -89.758274 
L 304.042314 -89.560171 
L 303.199055 -89.28757 
L 302.355797 -88.897836 
L 301.512538 -88.447148 
L 300.66928 -88.303179 
L 299.826021 -88.075605 
L 298.982763 -87.778913 
L 298.139504 -87.735537 
L 297.296246 -87.687466 
L 296.452987 -87.227777 
L 295.609728 -86.370933 
L 294.76647 -85.994629 
L 293.923211 -85.671774 
L 293.079953 -85.548114 
L 292.236694 -85.442364 
L 291.393436 -85.414496 
L 290.550177 -85.404678 
L 289.706919 -85.50433 
L 288.86366 -85.72836 
L 288.020401 -85.998954 
L 287.177143 -86.381181 
L 286.333884 -86.90647 
L 285.490626 -87.59375 
L 284.647367 -88.566123 
L 283.804109 -89.309417 
L 282.96085 -90.229214 
L 282.117591 -91.74422 
L 281.274333 -92.989735 
L 280.431074 -95.557809 
L 279.587816 -95.765133 
L 278.744557 -95.703701 
L 277.901299 -95.510971 
L 277.05804 -95.506889 
L 276.214782 -95.630838 
L 275.371523 -95.762889 
L 274.528264 -96.049924 
L 273.685006 -96.260183 
L 272.841747 -96.682005 
L 271.998489 -95.997429 
L 271.15523 -95.5642 
L 270.311972 -94.881836 
L 269.468713 -94.96339 
L 268.625455 -94.745487 
L 267.782196 -94.22057 
L 266.938937 -93.796816 
L 266.095679 -93.490237 
L 265.25242 -93.119634 
L 264.409162 -90.849693 
L 263.565903 -88.721106 
L 262.722645 -86.760374 
L 261.879386 -85.237269 
L 261.036128 -83.827124 
L 260.192869 -82.528308 
L 259.34961 -81.102602 
L 258.506352 -80.019562 
L 257.663093 -79.045778 
L 256.819835 -78.33446 
L 255.976576 -77.815335 
L 255.133318 -77.235876 
L 254.290059 -76.867408 
L 253.4468 -76.537488 
L 252.603542 -77.076319 
L 251.760283 -77.437577 
L 250.917025 -77.812619 
L 250.073766 -78.486458 
L 249.230508 -79.436043 
L 248.387249 -81.499979 
L 247.543991 -81.931149 
L 246.700732 -81.982971 
L 245.857473 -81.976683 
L 245.014215 -82.045086 
L 244.170956 -82.140096 
L 243.327698 -82.186686 
L 242.484439 -82.172351 
L 241.641181 -82.162314 
L 240.797922 -82.121705 
L 239.954664 -81.966736 
L 239.111405 -81.979415 
L 238.268146 -81.989973 
L 237.424888 -81.980681 
L 236.581629 -81.674019 
L 235.738371 -81.402387 
L 234.895112 -81.414778 
L 234.051854 -81.416581 
L 233.208595 -81.428514 
L 232.365336 -81.437649 
L 231.522078 -81.419745 
L 230.678819 -81.360628 
L 229.835561 -81.498111 
L 228.992302 -81.597053 
L 228.149044 -81.776658 
L 227.305785 -81.949192 
L 226.462527 -81.983353 
L 225.619268 -81.815968 
L 224.776009 -81.836907 
L 223.932751 -81.990007 
L 223.089492 -82.386088 
L 222.246234 -82.652899 
L 221.402975 -82.857118 
L 220.559717 -82.983744 
L 219.716458 -82.983317 
L 218.8732 -82.969237 
L 218.029941 -82.751603 
L 217.186682 -82.821354 
L 216.343424 -83.046458 
L 215.500165 -83.069513 
L 214.656907 -83.127906 
L 213.813648 -82.792519 
L 212.97039 -81.927391 
L 212.127131 -81.3814 
L 211.283872 -80.545065 
L 210.440614 -80.359406 
L 209.597355 -80.27322 
L 208.754097 -80.035395 
L 207.910838 -80.04433 
L 207.06758 -80.045517 
L 206.224321 -80.055337 
L 205.381063 -80.057312 
L 204.537804 -80.014769 
L 203.694545 -79.985196 
L 202.851287 -79.950838 
L 202.008028 -79.896154 
L 201.16477 -79.853527 
L 200.321511 -79.152099 
L 199.478253 -78.813707 
L 198.634994 -78.791435 
L 197.791736 -78.683767 
L 196.948477 -78.522708 
L 196.105218 -78.789158 
L 195.26196 -78.906421 
L 194.418701 -79.100096 
L 193.575443 -78.917781 
L 192.732184 -78.797823 
L 191.888926 -78.596984 
L 191.045667 -78.06904 
L 190.202409 -77.840502 
L 189.35915 -76.156882 
L 188.515891 -74.864831 
L 187.672633 -73.612638 
L 186.829374 -72.317145 
L 185.986116 -71.343401 
L 185.142857 -70.353342 
L 184.299599 -69.015403 
L 183.45634 -67.504426 
L 182.613081 -66.134518 
L 181.769823 -65.474395 
L 180.926564 -65.31555 
L 180.083306 -65.434652 
L 179.240047 -65.177001 
L 178.396789 -64.520541 
L 177.55353 -64.216695 
L 176.710272 -64.120696 
L 175.867013 -64.389657 
L 175.023754 -64.762055 
L 174.180496 -65.192892 
L 173.337237 -66.591126 
L 172.493979 -66.769496 
L 171.65072 -67.020504 
L 170.807462 -67.258989 
L 169.964203 -67.166117 
L 169.120945 -67.193128 
L 168.277686 -67.175211 
L 167.434427 -67.054347 
L 166.591169 -66.865811 
L 165.74791 -66.355939 
L 164.904652 -65.867019 
L 164.061393 -64.57847 
L 163.218135 -64.090294 
L 162.374876 -63.80085 
L 161.531617 -63.837856 
L 160.688359 -63.783405 
L 159.8451 -63.758298 
L 159.001842 -63.587991 
L 158.158583 -62.666528 
L 157.315325 -62.328801 
L 156.472066 -62.191053 
L 155.628808 -62.256219 
L 154.785549 -61.186654 
L 153.94229 -60.438767 
L 153.099032 -59.005752 
L 152.255773 -58.349235 
L 151.412515 -57.579035 
L 150.569256 -57.434466 
L 149.725998 -56.439957 
L 148.882739 -55.13322 
L 148.039481 -54.248957 
L 147.196222 -53.766119 
L 146.352963 -53.266923 
L 145.509705 -52.155967 
L 144.666446 -51.109639 
L 143.823188 -50.451484 
L 142.979929 -50.158039 
L 142.136671 -50.112 
L 141.293412 -50.559977 
L 140.450153 -51.035603 
L 139.606895 -51.620344 
L 138.763636 -52.267388 
L 137.920378 -53.811838 
L 137.077119 -55.676936 
L 136.233861 -58.219521 
L 135.390602 -60.629235 
L 134.547344 -63.765191 
L 133.704085 -66.913919 
L 132.860826 -73.719932 
L 132.017568 -74.421855 
L 131.174309 -75.335522 
L 130.331051 -76.053795 
L 129.487792 -77.153602 
L 128.644534 -77.235978 
L 127.801275 -77.251028 
L 126.958017 -77.11183 
L 126.114758 -77.403645 
L 125.271499 -77.773755 
L 124.428241 -78.143856 
L 123.584982 -79.157091 
L 122.741724 -80.324322 
L 121.898465 -81.451992 
L 121.055207 -82.573593 
L 120.211948 -83.978417 
L 119.368689 -84.375743 
L 118.525431 -83.677252 
L 117.682172 -83.138551 
L 116.838914 -82.807274 
L 115.995655 -82.532586 
L 115.152397 -82.263767 
L 114.309138 -82.170054 
L 113.46588 -81.835685 
L 112.622621 -81.619948 
L 111.779362 -80.821813 
L 110.936104 -79.703337 
L 110.092845 -78.53351 
L 109.249587 -77.701981 
L 108.406328 -77.092957 
L 107.56307 -76.901458 
L 106.719811 -76.651745 
L 105.876553 -76.634247 
L 105.033294 -76.593399 
L 104.190035 -76.729655 
L 103.346777 -76.903012 
L 102.503518 -76.947389 
L 101.66026 -76.872579 
L 100.817001 -76.84987 
L 99.973743 -76.18412 
L 99.130484 -75.773756 
L 98.287226 -75.248392 
L 97.443967 -75.231432 
L 96.600708 -74.67547 
L 95.75745 -74.708656 
L 94.914191 -74.564162 
L 94.070933 -73.905039 
L 93.227674 -72.747928 
L 92.384416 -71.759365 
L 91.541157 -70.896185 
L 90.697898 -69.614838 
L 89.85464 -68.873379 
z
" id="m542d8ef01a" style="stroke:#4b0082;stroke-opacity:0.3;"/>
    </defs>
    <g clip-path="url(#pe489cc98fd)">
     <use style="fill:#4b0082;fill-opacity:0.3;stroke:#4b0082;stroke-opacity:0.3;" x="0" xlink:href="#m542d8ef01a" y="345.6"/>
    </g>
   </g>
   <g id="matplotlib.axis_1">
    <g id="xtick_1">
     <g id="line2d_1">
      <defs>
       <path d="M 0 0 
L 0 3.5 
" id="m0798af5848" style="stroke:#000000;stroke-width:0.8;"/>
      </defs>
      <g>
       <use style="stroke:#000000;stroke-width:0.8;" x="73.832727" xlink:href="#m0798af5848" y="307.584"/>
      </g>
     </g>
     <g id="text_1">
      <!-- 2020-01 -->
      <g transform="translate(52.941321 322.182437)scale(0.1 -0.1)">
       <defs>
        <path d="M 19.1875 8.296875 
L 53.609375 8.296875 
L 53.609375 0 
L 7.328125 0 
L 7.328125 8.296875 
Q 12.9375 14.109375 22.625 23.890625 
Q 32.328125 33.6875 34.8125 36.53125 
Q 39.546875 41.84375 41.421875 45.53125 
Q 43.3125 49.21875 43.3125 52.78125 
Q 43.3125 58.59375 39.234375 62.25 
Q 35.15625 65.921875 28.609375 65.921875 
Q 23.96875 65.921875 18.8125 64.3125 
Q 13.671875 62.703125 7.8125 59.421875 
L 7.8125 69.390625 
Q 13.765625 71.78125 18.9375 73 
Q 24.125 74.21875 28.421875 74.21875 
Q 39.75 74.21875 46.484375 68.546875 
Q 53.21875 62.890625 53.21875 53.421875 
Q 53.21875 48.921875 51.53125 44.890625 
Q 49.859375 40.875 45.40625 35.40625 
Q 44.1875 33.984375 37.640625 27.21875 
Q 31.109375 20.453125 19.1875 8.296875 
z
" id="DejaVuSans-50"/>
        <path d="M 31.78125 66.40625 
Q 24.171875 66.40625 20.328125 58.90625 
Q 16.5 51.421875 16.5 36.375 
Q 16.5 21.390625 20.328125 13.890625 
Q 24.171875 6.390625 31.78125 6.390625 
Q 39.453125 6.390625 43.28125 13.890625 
Q 47.125 21.390625 47.125 36.375 
Q 47.125 51.421875 43.28125 58.90625 
Q 39.453125 66.40625 31.78125 66.40625 
z
M 31.78125 74.21875 
Q 44.046875 74.21875 50.515625 64.515625 
Q 56.984375 54.828125 56.984375 36.375 
Q 56.984375 17.96875 50.515625 8.265625 
Q 44.046875 -1.421875 31.78125 -1.421875 
Q 19.53125 -1.421875 13.0625 8.265625 
Q 6.59375 17.96875 6.59375 36.375 
Q 6.59375 54.828125 13.0625 64.515625 
Q 19.53125 74.21875 31.78125 74.21875 
z
" id="DejaVuSans-48"/>
        <path d="M 4.890625 31.390625 
L 31.203125 31.390625 
L 31.203125 23.390625 
L 4.890625 23.390625 
z
" id="DejaVuSans-45"/>
        <path d="M 12.40625 8.296875 
L 28.515625 8.296875 
L 28.515625 63.921875 
L 10.984375 60.40625 
L 10.984375 69.390625 
L 28.421875 72.90625 
L 38.28125 72.90625 
L 38.28125 8.296875 
L 54.390625 8.296875 
L 54.390625 0 
L 12.40625 0 
z
" id="DejaVuSans-49"/>
       </defs>
       <use xlink:href="#DejaVuSans-50"/>
       <use x="63.623047" xlink:href="#DejaVuSans-48"/>
       <use x="127.246094" xlink:href="#DejaVuSans-50"/>
       <use x="190.869141" xlink:href="#DejaVuSans-48"/>
       <use x="254.492188" xlink:href="#DejaVuSans-45"/>
       <use x="290.576172" xlink:href="#DejaVuSans-48"/>
       <use x="354.199219" xlink:href="#DejaVuSans-49"/>
      </g>
     </g>
    </g>
    <g id="xtick_2">
     <g id="line2d_2">
      <g>
       <use style="stroke:#000000;stroke-width:0.8;" x="124.428241" xlink:href="#m0798af5848" y="307.584"/>
      </g>
     </g>
     <g id="text_2">
      <!-- 2020-03 -->
      <g transform="translate(103.536835 322.182437)scale(0.1 -0.1)">
       <defs>
        <path d="M 40.578125 39.3125 
Q 47.65625 37.796875 51.625 33 
Q 55.609375 28.21875 55.609375 21.1875 
Q 55.609375 10.40625 48.1875 4.484375 
Q 40.765625 -1.421875 27.09375 -1.421875 
Q 22.515625 -1.421875 17.65625 -0.515625 
Q 12.796875 0.390625 7.625 2.203125 
L 7.625 11.71875 
Q 11.71875 9.328125 16.59375 8.109375 
Q 21.484375 6.890625 26.8125 6.890625 
Q 36.078125 6.890625 40.9375 10.546875 
Q 45.796875 14.203125 45.796875 21.1875 
Q 45.796875 27.640625 41.28125 31.265625 
Q 36.765625 34.90625 28.71875 34.90625 
L 20.21875 34.90625 
L 20.21875 43.015625 
L 29.109375 43.015625 
Q 36.375 43.015625 40.234375 45.921875 
Q 44.09375 48.828125 44.09375 54.296875 
Q 44.09375 59.90625 40.109375 62.90625 
Q 36.140625 65.921875 28.71875 65.921875 
Q 24.65625 65.921875 20.015625 65.03125 
Q 15.375 64.15625 9.8125 62.3125 
L 9.8125 71.09375 
Q 15.4375 72.65625 20.34375 73.4375 
Q 25.25 74.21875 29.59375 74.21875 
Q 40.828125 74.21875 47.359375 69.109375 
Q 53.90625 64.015625 53.90625 55.328125 
Q 53.90625 49.265625 50.4375 45.09375 
Q 46.96875 40.921875 40.578125 39.3125 
z
" id="DejaVuSans-51"/>
       </defs>
       <use xlink:href="#DejaVuSans-50"/>
       <use x="63.623047" xlink:href="#DejaVuSans-48"/>
       <use x="127.246094" xlink:href="#DejaVuSans-50"/>
       <use x="190.869141" xlink:href="#DejaVuSans-48"/>
       <use x="254.492188" xlink:href="#DejaVuSans-45"/>
       <use x="290.576172" xlink:href="#DejaVuSans-48"/>
       <use x="354.199219" xlink:href="#DejaVuSans-51"/>
      </g>
     </g>
    </g>
    <g id="xtick_3">
     <g id="line2d_3">
      <g>
       <use style="stroke:#000000;stroke-width:0.8;" x="175.867013" xlink:href="#m0798af5848" y="307.584"/>
      </g>
     </g>
     <g id="text_3">
      <!-- 2020-05 -->
      <g transform="translate(154.975607 322.182437)scale(0.1 -0.1)">
       <defs>
        <path d="M 10.796875 72.90625 
L 49.515625 72.90625 
L 49.515625 64.59375 
L 19.828125 64.59375 
L 19.828125 46.734375 
Q 21.96875 47.46875 24.109375 47.828125 
Q 26.265625 48.1875 28.421875 48.1875 
Q 40.625 48.1875 47.75 41.5 
Q 54.890625 34.8125 54.890625 23.390625 
Q 54.890625 11.625 47.5625 5.09375 
Q 40.234375 -1.421875 26.90625 -1.421875 
Q 22.3125 -1.421875 17.546875 -0.640625 
Q 12.796875 0.140625 7.71875 1.703125 
L 7.71875 11.625 
Q 12.109375 9.234375 16.796875 8.0625 
Q 21.484375 6.890625 26.703125 6.890625 
Q 35.15625 6.890625 40.078125 11.328125 
Q 45.015625 15.765625 45.015625 23.390625 
Q 45.015625 31 40.078125 35.4375 
Q 35.15625 39.890625 26.703125 39.890625 
Q 22.75 39.890625 18.8125 39.015625 
Q 14.890625 38.140625 10.796875 36.28125 
z
" id="DejaVuSans-53"/>
       </defs>
       <use xlink:href="#DejaVuSans-50"/>
       <use x="63.623047" xlink:href="#DejaVuSans-48"/>
       <use x="127.246094" xlink:href="#DejaVuSans-50"/>
       <use x="190.869141" xlink:href="#DejaVuSans-48"/>
       <use x="254.492188" xlink:href="#DejaVuSans-45"/>
       <use x="290.576172" xlink:href="#DejaVuSans-48"/>
       <use x="354.199219" xlink:href="#DejaVuSans-53"/>
      </g>
     </g>
    </g>
    <g id="xtick_4">
     <g id="line2d_4">
      <g>
       <use style="stroke:#000000;stroke-width:0.8;" x="227.305785" xlink:href="#m0798af5848" y="307.584"/>
      </g>
     </g>
     <g id="text_4">
      <!-- 2020-07 -->
      <g transform="translate(206.414379 322.182437)scale(0.1 -0.1)">
       <defs>
        <path d="M 8.203125 72.90625 
L 55.078125 72.90625 
L 55.078125 68.703125 
L 28.609375 0 
L 18.3125 0 
L 43.21875 64.59375 
L 8.203125 64.59375 
z
" id="DejaVuSans-55"/>
       </defs>
       <use xlink:href="#DejaVuSans-50"/>
       <use x="63.623047" xlink:href="#DejaVuSans-48"/>
       <use x="127.246094" xlink:href="#DejaVuSans-50"/>
       <use x="190.869141" xlink:href="#DejaVuSans-48"/>
       <use x="254.492188" xlink:href="#DejaVuSans-45"/>
       <use x="290.576172" xlink:href="#DejaVuSans-48"/>
       <use x="354.199219" xlink:href="#DejaVuSans-55"/>
      </g>
     </g>
    </g>
    <g id="xtick_5">
     <g id="line2d_5">
      <g>
       <use style="stroke:#000000;stroke-width:0.8;" x="279.587816" xlink:href="#m0798af5848" y="307.584"/>
      </g>
     </g>
     <g id="text_5">
      <!-- 2020-09 -->
      <g transform="translate(258.69641 322.182437)scale(0.1 -0.1)">
       <defs>
        <path d="M 10.984375 1.515625 
L 10.984375 10.5 
Q 14.703125 8.734375 18.5 7.8125 
Q 22.3125 6.890625 25.984375 6.890625 
Q 35.75 6.890625 40.890625 13.453125 
Q 46.046875 20.015625 46.78125 33.40625 
Q 43.953125 29.203125 39.59375 26.953125 
Q 35.25 24.703125 29.984375 24.703125 
Q 19.046875 24.703125 12.671875 31.3125 
Q 6.296875 37.9375 6.296875 49.421875 
Q 6.296875 60.640625 12.9375 67.421875 
Q 19.578125 74.21875 30.609375 74.21875 
Q 43.265625 74.21875 49.921875 64.515625 
Q 56.59375 54.828125 56.59375 36.375 
Q 56.59375 19.140625 48.40625 8.859375 
Q 40.234375 -1.421875 26.421875 -1.421875 
Q 22.703125 -1.421875 18.890625 -0.6875 
Q 15.09375 0.046875 10.984375 1.515625 
z
M 30.609375 32.421875 
Q 37.25 32.421875 41.125 36.953125 
Q 45.015625 41.5 45.015625 49.421875 
Q 45.015625 57.28125 41.125 61.84375 
Q 37.25 66.40625 30.609375 66.40625 
Q 23.96875 66.40625 20.09375 61.84375 
Q 16.21875 57.28125 16.21875 49.421875 
Q 16.21875 41.5 20.09375 36.953125 
Q 23.96875 32.421875 30.609375 32.421875 
z
" id="DejaVuSans-57"/>
       </defs>
       <use xlink:href="#DejaVuSans-50"/>
       <use x="63.623047" xlink:href="#DejaVuSans-48"/>
       <use x="127.246094" xlink:href="#DejaVuSans-50"/>
       <use x="190.869141" xlink:href="#DejaVuSans-48"/>
       <use x="254.492188" xlink:href="#DejaVuSans-45"/>
       <use x="290.576172" xlink:href="#DejaVuSans-48"/>
       <use x="354.199219" xlink:href="#DejaVuSans-57"/>
      </g>
     </g>
    </g>
    <g id="xtick_6">
     <g id="line2d_6">
      <g>
       <use style="stroke:#000000;stroke-width:0.8;" x="331.026588" xlink:href="#m0798af5848" y="307.584"/>
      </g>
     </g>
     <g id="text_6">
      <!-- 2020-11 -->
      <g transform="translate(310.135182 322.182437)scale(0.1 -0.1)">
       <use xlink:href="#DejaVuSans-50"/>
       <use x="63.623047" xlink:href="#DejaVuSans-48"/>
       <use x="127.246094" xlink:href="#DejaVuSans-50"/>
       <use x="190.869141" xlink:href="#DejaVuSans-48"/>
       <use x="254.492188" xlink:href="#DejaVuSans-45"/>
       <use x="290.576172" xlink:href="#DejaVuSans-49"/>
       <use x="354.199219" xlink:href="#DejaVuSans-49"/>
      </g>
     </g>
    </g>
    <g id="xtick_7">
     <g id="line2d_7">
      <g>
       <use style="stroke:#000000;stroke-width:0.8;" x="382.46536" xlink:href="#m0798af5848" y="307.584"/>
      </g>
     </g>
     <g id="text_7">
      <!-- 2021-01 -->
      <g transform="translate(361.573954 322.182437)scale(0.1 -0.1)">
       <use xlink:href="#DejaVuSans-50"/>
       <use x="63.623047" xlink:href="#DejaVuSans-48"/>
       <use x="127.246094" xlink:href="#DejaVuSans-50"/>
       <use x="190.869141" xlink:href="#DejaVuSans-49"/>
       <use x="254.492188" xlink:href="#DejaVuSans-45"/>
       <use x="290.576172" xlink:href="#DejaVuSans-48"/>
       <use x="354.199219" xlink:href="#DejaVuSans-49"/>
      </g>
     </g>
    </g>
   </g>
   <g id="matplotlib.axis_2">
    <g id="ytick_1">
     <g id="line2d_8">
      <defs>
       <path d="M 0 0 
L -3.5 0 
" id="m1a857145b8" style="stroke:#000000;stroke-width:0.8;"/>
      </defs>
      <g>
       <use style="stroke:#000000;stroke-width:0.8;" x="57.6" xlink:href="#m1a857145b8" y="288.063792"/>
      </g>
     </g>
     <g id="text_8">
      <!-- 5000 -->
      <g transform="translate(25.15 291.863011)scale(0.1 -0.1)">
       <use xlink:href="#DejaVuSans-53"/>
       <use x="63.623047" xlink:href="#DejaVuSans-48"/>
       <use x="127.246094" xlink:href="#DejaVuSans-48"/>
       <use x="190.869141" xlink:href="#DejaVuSans-48"/>
      </g>
     </g>
    </g>
    <g id="ytick_2">
     <g id="line2d_9">
      <g>
       <use style="stroke:#000000;stroke-width:0.8;" x="57.6" xlink:href="#m1a857145b8" y="257.524045"/>
      </g>
     </g>
     <g id="text_9">
      <!-- 10000 -->
      <g transform="translate(18.7875 261.323264)scale(0.1 -0.1)">
       <use xlink:href="#DejaVuSans-49"/>
       <use x="63.623047" xlink:href="#DejaVuSans-48"/>
       <use x="127.246094" xlink:href="#DejaVuSans-48"/>
       <use x="190.869141" xlink:href="#DejaVuSans-48"/>
       <use x="254.492188" xlink:href="#DejaVuSans-48"/>
      </g>
     </g>
    </g>
    <g id="ytick_3">
     <g id="line2d_10">
      <g>
       <use style="stroke:#000000;stroke-width:0.8;" x="57.6" xlink:href="#m1a857145b8" y="226.984297"/>
      </g>
     </g>
     <g id="text_10">
      <!-- 15000 -->
      <g transform="translate(18.7875 230.783516)scale(0.1 -0.1)">
       <use xlink:href="#DejaVuSans-49"/>
       <use x="63.623047" xlink:href="#DejaVuSans-53"/>
       <use x="127.246094" xlink:href="#DejaVuSans-48"/>
       <use x="190.869141" xlink:href="#DejaVuSans-48"/>
       <use x="254.492188" xlink:href="#DejaVuSans-48"/>
      </g>
     </g>
    </g>
    <g id="ytick_4">
     <g id="line2d_11">
      <g>
       <use style="stroke:#000000;stroke-width:0.8;" x="57.6" xlink:href="#m1a857145b8" y="196.44455"/>
      </g>
     </g>
     <g id="text_11">
      <!-- 20000 -->
      <g transform="translate(18.7875 200.243768)scale(0.1 -0.1)">
       <use xlink:href="#DejaVuSans-50"/>
       <use x="63.623047" xlink:href="#DejaVuSans-48"/>
       <use x="127.246094" xlink:href="#DejaVuSans-48"/>
       <use x="190.869141" xlink:href="#DejaVuSans-48"/>
       <use x="254.492188" xlink:href="#DejaVuSans-48"/>
      </g>
     </g>
    </g>
    <g id="ytick_5">
     <g id="line2d_12">
      <g>
       <use style="stroke:#000000;stroke-width:0.8;" x="57.6" xlink:href="#m1a857145b8" y="165.904802"/>
      </g>
     </g>
     <g id="text_12">
      <!-- 25000 -->
      <g transform="translate(18.7875 169.704021)scale(0.1 -0.1)">
       <use xlink:href="#DejaVuSans-50"/>
       <use x="63.623047" xlink:href="#DejaVuSans-53"/>
       <use x="127.246094" xlink:href="#DejaVuSans-48"/>
       <use x="190.869141" xlink:href="#DejaVuSans-48"/>
       <use x="254.492188" xlink:href="#DejaVuSans-48"/>
      </g>
     </g>
    </g>
    <g id="ytick_6">
     <g id="line2d_13">
      <g>
       <use style="stroke:#000000;stroke-width:0.8;" x="57.6" xlink:href="#m1a857145b8" y="135.365055"/>
      </g>
     </g>
     <g id="text_13">
      <!-- 30000 -->
      <g transform="translate(18.7875 139.164273)scale(0.1 -0.1)">
       <use xlink:href="#DejaVuSans-51"/>
       <use x="63.623047" xlink:href="#DejaVuSans-48"/>
       <use x="127.246094" xlink:href="#DejaVuSans-48"/>
       <use x="190.869141" xlink:href="#DejaVuSans-48"/>
       <use x="254.492188" xlink:href="#DejaVuSans-48"/>
      </g>
     </g>
    </g>
    <g id="ytick_7">
     <g id="line2d_14">
      <g>
       <use style="stroke:#000000;stroke-width:0.8;" x="57.6" xlink:href="#m1a857145b8" y="104.825307"/>
      </g>
     </g>
     <g id="text_14">
      <!-- 35000 -->
      <g transform="translate(18.7875 108.624526)scale(0.1 -0.1)">
       <use xlink:href="#DejaVuSans-51"/>
       <use x="63.623047" xlink:href="#DejaVuSans-53"/>
       <use x="127.246094" xlink:href="#DejaVuSans-48"/>
       <use x="190.869141" xlink:href="#DejaVuSans-48"/>
       <use x="254.492188" xlink:href="#DejaVuSans-48"/>
      </g>
     </g>
    </g>
    <g id="ytick_8">
     <g id="line2d_15">
      <g>
       <use style="stroke:#000000;stroke-width:0.8;" x="57.6" xlink:href="#m1a857145b8" y="74.28556"/>
      </g>
     </g>
     <g id="text_15">
      <!-- 40000 -->
      <g transform="translate(18.7875 78.084778)scale(0.1 -0.1)">
       <defs>
        <path d="M 37.796875 64.3125 
L 12.890625 25.390625 
L 37.796875 25.390625 
z
M 35.203125 72.90625 
L 47.609375 72.90625 
L 47.609375 25.390625 
L 58.015625 25.390625 
L 58.015625 17.1875 
L 47.609375 17.1875 
L 47.609375 0 
L 37.796875 0 
L 37.796875 17.1875 
L 4.890625 17.1875 
L 4.890625 26.703125 
z
" id="DejaVuSans-52"/>
       </defs>
       <use xlink:href="#DejaVuSans-52"/>
       <use x="63.623047" xlink:href="#DejaVuSans-48"/>
       <use x="127.246094" xlink:href="#DejaVuSans-48"/>
       <use x="190.869141" xlink:href="#DejaVuSans-48"/>
       <use x="254.492188" xlink:href="#DejaVuSans-48"/>
      </g>
     </g>
    </g>
    <g id="ytick_9">
     <g id="line2d_16">
      <g>
       <use style="stroke:#000000;stroke-width:0.8;" x="57.6" xlink:href="#m1a857145b8" y="43.745812"/>
      </g>
     </g>
     <g id="text_16">
      <!-- 45000 -->
      <g transform="translate(18.7875 47.545031)scale(0.1 -0.1)">
       <use xlink:href="#DejaVuSans-52"/>
       <use x="63.623047" xlink:href="#DejaVuSans-53"/>
       <use x="127.246094" xlink:href="#DejaVuSans-48"/>
       <use x="190.869141" xlink:href="#DejaVuSans-48"/>
       <use x="254.492188" xlink:href="#DejaVuSans-48"/>
      </g>
     </g>
    </g>
   </g>
   <g id="line2d_17">
    <path clip-path="url(#pe489cc98fd)" d="M 89.85464 261.70829 
L 90.697898 261.515495 
L 93.227674 262.313493 
L 94.070933 262.868124 
L 94.914191 263.00963 
L 95.75745 262.707318 
L 96.600708 261.856437 
L 97.443967 261.515664 
L 98.287226 260.732789 
L 99.973743 260.139246 
L 100.817001 260.059934 
L 101.66026 259.77663 
L 102.503518 259.615826 
L 104.190035 258.320561 
L 105.876553 256.935493 
L 106.719811 256.028201 
L 107.56307 255.587269 
L 108.406328 254.808904 
L 109.249587 254.23985 
L 110.092845 253.981009 
L 110.936104 253.929716 
L 111.779362 254.252073 
L 112.622621 254.416753 
L 113.46588 254.425526 
L 114.309138 254.21307 
L 115.995655 254.312371 
L 118.525431 254.64265 
L 119.368689 255.040404 
L 120.211948 254.821056 
L 121.055207 253.994776 
L 122.741724 253.081433 
L 124.428241 252.678088 
L 125.271499 253.115139 
L 126.958017 254.293738 
L 127.801275 255.215133 
L 129.487792 256.196214 
L 130.331051 256.105312 
L 131.174309 256.744726 
L 132.017568 256.859475 
L 132.860826 257.174016 
L 133.704085 253.274347 
L 134.547344 252.552709 
L 135.390602 252.30299 
L 136.233861 252.505434 
L 137.077119 252.557194 
L 137.920378 252.780649 
L 138.763636 253.296549 
L 141.293412 255.951315 
L 143.823188 260.349257 
L 144.666446 262.454418 
L 146.352963 267.639644 
L 148.039481 270.974238 
L 148.882739 272.778132 
L 149.725998 275.022622 
L 150.569256 274.951877 
L 151.412515 274.409062 
L 153.099032 274.003517 
L 153.94229 274.390105 
L 154.785549 273.942987 
L 155.628808 273.940801 
L 156.472066 273.18133 
L 157.315325 272.658367 
L 158.158583 272.583208 
L 159.001842 272.855019 
L 161.531617 272.661904 
L 162.374876 272.673928 
L 163.218135 272.510506 
L 164.061393 272.529055 
L 164.904652 272.983053 
L 165.74791 273.037161 
L 166.591169 273.285561 
L 167.434427 273.351785 
L 168.277686 273.272399 
L 171.65072 271.585335 
L 172.493979 270.968615 
L 173.337237 270.551872 
L 174.180496 268.244924 
L 176.710272 263.65914 
L 177.55353 262.494121 
L 180.083306 259.762445 
L 180.926564 257.836818 
L 181.769823 256.436931 
L 182.613081 255.607414 
L 183.45634 255.814096 
L 184.299599 256.271294 
L 185.142857 256.584898 
L 185.986116 256.456698 
L 186.829374 256.033463 
L 189.35915 256.631844 
L 190.202409 257.130563 
L 191.045667 256.750997 
L 196.948477 256.66609 
L 197.791736 257.308939 
L 198.634994 257.570373 
L 199.478253 257.688644 
L 200.321511 257.458467 
L 201.16477 257.638709 
L 202.008028 256.840448 
L 202.851287 256.760235 
L 203.694545 256.869652 
L 204.537804 256.61231 
L 206.224321 256.48387 
L 208.754097 256.265896 
L 209.597355 256.006285 
L 211.283872 256.020553 
L 213.813648 257.172295 
L 214.656907 257.302042 
L 218.029941 257.278688 
L 218.8732 258.045944 
L 220.559717 258.00959 
L 221.402975 258.167602 
L 223.932751 258.290714 
L 225.619268 258.87314 
L 226.462527 259.490538 
L 228.149044 259.549235 
L 231.522078 259.890465 
L 232.365336 260.028575 
L 234.051854 260.023694 
L 235.738371 260.084995 
L 237.424888 261.115913 
L 241.641181 261.267946 
L 243.327698 261.264388 
L 244.170956 261.128516 
L 247.543991 259.697319 
L 248.387249 258.899502 
L 249.230508 255.773962 
L 250.917025 252.101106 
L 252.603542 248.951236 
L 253.4468 246.878761 
L 255.976576 244.59974 
L 257.663093 242.647457 
L 259.34961 241.641963 
L 260.192869 241.524421 
L 261.036128 241.283594 
L 262.722645 241.874049 
L 263.565903 242.467604 
L 264.409162 243.340911 
L 265.25242 244.437592 
L 266.095679 244.2575 
L 266.938937 243.743202 
L 267.782196 243.655463 
L 268.625455 243.753878 
L 269.468713 243.679458 
L 270.311972 243.752963 
L 271.15523 244.05954 
L 271.998489 244.244767 
L 272.841747 244.580731 
L 273.685006 244.403942 
L 277.05804 244.305715 
L 278.744557 244.454878 
L 279.587816 244.294138 
L 280.431074 244.30232 
L 281.274333 242.685136 
L 282.96085 241.810953 
L 284.647367 242.311415 
L 285.490626 242.346593 
L 288.020401 243.261091 
L 288.86366 243.726598 
L 289.706919 244.367493 
L 292.236694 245.346881 
L 293.923211 246.253057 
L 295.609728 247.788176 
L 296.452987 249.555233 
L 297.296246 250.547307 
L 298.139504 250.564989 
L 299.826021 250.437555 
L 301.512538 250.296247 
L 303.199055 250.436683 
L 305.728831 250.547671 
L 306.57209 250.66815 
L 308.258607 250.67454 
L 309.945124 251.030295 
L 311.631641 251.123626 
L 313.318158 249.79656 
L 314.161417 248.903966 
L 315.847934 248.025637 
L 316.691192 247.485911 
L 319.220968 246.589832 
L 320.907485 245.229896 
L 322.594002 241.198484 
L 325.123778 237.189276 
L 325.967037 236.316056 
L 326.810295 234.838856 
L 328.496812 233.144563 
L 331.026588 230.322908 
L 331.869847 229.873007 
L 333.556364 228.472884 
L 334.399622 226.097248 
L 335.242881 224.274512 
L 336.086139 223.864267 
L 336.929398 222.786725 
L 337.772656 222.130503 
L 338.615915 221.214543 
L 339.459174 219.924339 
L 341.145691 216.597056 
L 341.988949 215.683834 
L 342.832208 215.128686 
L 343.675466 213.630997 
L 345.361983 209.134159 
L 346.205242 207.375883 
L 347.048501 204.680055 
L 347.891759 202.604999 
L 348.735018 201.582771 
L 349.578276 200.736677 
L 351.264793 197.935717 
L 352.108052 197.892089 
L 352.951311 198.41228 
L 354.637828 198.380687 
L 355.481086 197.070866 
L 356.324345 196.928702 
L 358.010862 195.468885 
L 358.85412 195.924773 
L 359.697379 196.608084 
L 360.540638 196.628306 
L 361.383896 196.29453 
L 364.75693 196.555844 
L 365.600189 196.419017 
L 366.443447 196.082949 
L 367.286706 195.946342 
L 368.129965 195.478248 
L 368.973223 192.682161 
L 371.502999 177.767996 
L 372.346257 174.109413 
L 373.189516 171.884214 
L 374.032774 168.520732 
L 375.719292 163.940123 
L 376.56255 160.729436 
L 377.405809 155.554151 
L 381.622102 135.485325 
L 382.46536 132.030077 
L 384.151877 118.776397 
L 384.995136 115.315732 
L 385.838394 108.896479 
L 386.681653 98.847022 
L 388.36817 73.141576 
L 389.211429 63.644142 
L 390.054687 58.763228 
L 390.897946 56.974551 
L 391.741204 57.245909 
L 392.584463 56.288445 
L 393.427721 53.998427 
L 394.27098 53.568 
L 395.114238 54.714161 
L 395.957497 56.274731 
L 397.644014 60.110997 
L 398.487273 62.900893 
L 398.487273 62.900893 
" style="fill:none;stroke:#1f77b4;stroke-linecap:square;stroke-width:1.5;"/>
   </g>
   <g id="line2d_18">
    <path clip-path="url(#pe489cc98fd)" d="M 89.85464 276.726621 
L 90.697898 275.985162 
L 91.541157 274.703815 
L 93.227674 272.852072 
L 94.070933 271.694961 
L 94.914191 271.035838 
L 95.75745 270.891344 
L 96.600708 270.92453 
L 97.443967 270.368568 
L 98.287226 270.351608 
L 100.817001 268.75013 
L 103.346777 268.696988 
L 105.033294 269.006601 
L 106.719811 268.948255 
L 108.406328 268.507043 
L 109.249587 267.898019 
L 110.092845 267.06649 
L 111.779362 264.778187 
L 112.622621 263.980052 
L 113.46588 263.764315 
L 114.309138 263.429946 
L 115.152397 263.336233 
L 117.682172 262.461449 
L 118.525431 261.922748 
L 119.368689 261.224257 
L 120.211948 261.621583 
L 121.055207 263.026407 
L 124.428241 267.456144 
L 126.958017 268.48817 
L 127.801275 268.348972 
L 129.487792 268.446398 
L 130.331051 269.546205 
L 131.174309 270.264478 
L 132.017568 271.178145 
L 132.860826 271.880068 
L 133.704085 278.686081 
L 135.390602 284.970765 
L 137.077119 289.923064 
L 137.920378 291.788162 
L 138.763636 293.332612 
L 140.450153 294.564397 
L 142.136671 295.488 
L 142.979929 295.441961 
L 143.823188 295.148516 
L 144.666446 294.490361 
L 146.352963 292.333077 
L 148.039481 291.351043 
L 148.882739 290.46678 
L 149.725998 289.160043 
L 150.569256 288.165534 
L 151.412515 288.020965 
L 153.099032 286.594248 
L 153.94229 285.161233 
L 154.785549 284.413346 
L 155.628808 283.343781 
L 156.472066 283.408947 
L 157.315325 283.271199 
L 158.158583 282.933472 
L 159.001842 282.012009 
L 159.8451 281.841702 
L 162.374876 281.79915 
L 163.218135 281.509706 
L 164.061393 281.02153 
L 164.904652 279.732981 
L 166.591169 278.734189 
L 168.277686 278.424789 
L 170.807462 278.341011 
L 173.337237 279.008874 
L 174.180496 280.407108 
L 175.867013 281.210343 
L 176.710272 281.479304 
L 177.55353 281.383305 
L 178.396789 281.079459 
L 179.240047 280.422999 
L 180.083306 280.165348 
L 180.926564 280.28445 
L 181.769823 280.125605 
L 182.613081 279.465482 
L 185.142857 275.246658 
L 186.829374 273.282855 
L 189.35915 269.443118 
L 190.202409 267.759498 
L 191.045667 267.53096 
L 191.888926 267.003016 
L 194.418701 266.499904 
L 196.948477 267.077292 
L 198.634994 266.808565 
L 199.478253 266.786293 
L 200.321511 266.447901 
L 201.16477 265.746473 
L 207.06758 265.554483 
L 208.754097 265.564605 
L 209.597355 265.32678 
L 211.283872 265.054935 
L 212.127131 264.2186 
L 212.97039 263.672609 
L 213.813648 262.807481 
L 214.656907 262.472094 
L 216.343424 262.553542 
L 217.186682 262.778646 
L 218.029941 262.848397 
L 218.8732 262.630763 
L 220.559717 262.616256 
L 222.246234 262.947101 
L 223.089492 263.213912 
L 223.932751 263.609993 
L 224.776009 263.763093 
L 225.619268 263.784032 
L 226.462527 263.616647 
L 227.305785 263.650808 
L 230.678819 264.239372 
L 233.208595 264.171486 
L 235.738371 264.197613 
L 237.424888 263.619319 
L 240.797922 263.478295 
L 243.327698 263.413314 
L 247.543991 263.668851 
L 248.387249 264.100021 
L 249.230508 266.163957 
L 250.073766 267.113542 
L 250.917025 267.787381 
L 252.603542 268.523681 
L 253.4468 269.062512 
L 255.133318 268.364124 
L 257.663093 266.554222 
L 259.34961 264.497398 
L 262.722645 258.839626 
L 264.409162 254.750307 
L 265.25242 252.480366 
L 267.782196 251.37943 
L 268.625455 250.854513 
L 269.468713 250.63661 
L 270.311972 250.718164 
L 271.15523 250.0358 
L 271.998489 249.602571 
L 272.841747 248.917995 
L 273.685006 249.339817 
L 277.05804 250.093111 
L 277.901299 250.089029 
L 278.744557 249.896299 
L 279.587816 249.834867 
L 280.431074 250.042191 
L 281.274333 252.610265 
L 282.117591 253.85578 
L 282.96085 255.370786 
L 283.804109 256.290583 
L 284.647367 257.033877 
L 285.490626 258.00625 
L 286.333884 258.69353 
L 287.177143 259.218819 
L 288.86366 259.87164 
L 289.706919 260.09567 
L 291.393436 260.185504 
L 293.079953 260.051886 
L 293.923211 259.928226 
L 295.609728 259.229067 
L 296.452987 258.372223 
L 297.296246 257.912534 
L 298.982763 257.821087 
L 300.66928 257.296821 
L 301.512538 257.152852 
L 303.199055 256.31243 
L 304.885573 255.841726 
L 305.728831 255.718996 
L 306.57209 255.4651 
L 311.631641 255.418439 
L 312.4749 255.796637 
L 313.318158 255.949697 
L 314.161417 256.242529 
L 315.004675 255.909034 
L 316.691192 256.010401 
L 319.220968 255.668724 
L 320.907485 255.777455 
L 321.750744 256.543291 
L 322.594002 257.02039 
L 324.280519 256.972194 
L 325.123778 256.720969 
L 325.967037 256.095929 
L 326.810295 255.741003 
L 328.496812 254.50362 
L 331.026588 253.087018 
L 333.556364 250.462717 
L 334.399622 250.262586 
L 335.242881 249.518589 
L 336.086139 247.902452 
L 336.929398 246.701653 
L 337.772656 245.248177 
L 338.615915 244.621503 
L 341.145691 243.566039 
L 341.988949 242.620675 
L 342.832208 241.411763 
L 345.361983 240.252983 
L 346.205242 239.414753 
L 347.048501 239.139377 
L 347.891759 238.223026 
L 349.578276 234.459085 
L 350.421535 232.875747 
L 351.264793 232.309292 
L 352.108052 231.368186 
L 352.951311 229.431925 
L 353.794569 228.05222 
L 354.637828 226.357575 
L 355.481086 225.004387 
L 356.324345 223.283897 
L 358.010862 221.060021 
L 358.85412 219.01013 
L 359.697379 216.37565 
L 360.540638 214.717466 
L 361.383896 214.11481 
L 363.070413 213.175914 
L 363.913672 213.372049 
L 364.75693 213.688182 
L 366.443447 213.433177 
L 368.129965 213.504096 
L 368.973223 213.780901 
L 371.502999 218.532597 
L 372.346257 219.842471 
L 373.189516 219.627997 
L 374.032774 220.144212 
L 374.876033 220.009644 
L 375.719292 219.273082 
L 376.56255 219.107987 
L 377.405809 219.970654 
L 378.249067 219.724386 
L 379.092326 218.474364 
L 380.778843 214.989979 
L 382.46536 208.822532 
L 383.308619 207.609147 
L 384.151877 205.702702 
L 384.995136 201.447064 
L 385.838394 200.094779 
L 386.681653 201.596545 
L 387.524911 204.528373 
L 388.36817 206.806544 
L 389.211429 206.018038 
L 390.054687 201.383201 
L 390.897946 195.957851 
L 393.427721 175.094362 
L 394.27098 169.132396 
L 397.644014 141.288708 
L 398.487273 134.506767 
L 398.487273 134.506767 
" style="fill:none;stroke:#ff7f0e;stroke-linecap:square;stroke-width:1.5;"/>
   </g>
   <g id="line2d_19">
    <path clip-path="url(#pe489cc98fd)" d="M 89.85464 269.217455 
L 92.384416 267.91366 
L 94.914191 267.022734 
L 95.75745 266.799331 
L 100.817001 264.405032 
L 103.346777 263.8594 
L 105.033294 263.315767 
L 107.56307 262.142905 
L 109.249587 261.068934 
L 111.779362 259.51513 
L 112.622621 259.198402 
L 113.46588 259.09492 
L 114.309138 258.821508 
L 115.995655 258.689893 
L 117.682172 258.488079 
L 119.368689 258.132331 
L 120.211948 258.221319 
L 122.741724 259.178555 
L 124.428241 260.067116 
L 128.644534 262.013344 
L 129.487792 262.321306 
L 130.331051 262.825758 
L 131.174309 263.504602 
L 132.860826 264.527042 
L 133.704085 265.980214 
L 134.547344 267.193759 
L 136.233861 269.942956 
L 137.077119 271.240129 
L 138.763636 273.314581 
L 146.352963 279.98636 
L 149.725998 282.091333 
L 150.569256 281.558706 
L 152.255773 280.752149 
L 153.94229 279.775669 
L 155.628808 278.642291 
L 157.315325 277.964783 
L 158.158583 277.75834 
L 159.001842 277.433514 
L 160.688359 277.268359 
L 163.218135 277.010106 
L 164.061393 276.775292 
L 164.904652 276.358017 
L 166.591169 276.009875 
L 168.277686 275.848594 
L 170.807462 275.195573 
L 173.337237 274.780373 
L 175.023754 273.791486 
L 178.396789 271.321998 
L 183.45634 266.954835 
L 185.986116 265.356648 
L 186.829374 264.658159 
L 190.202409 262.44503 
L 191.888926 261.874603 
L 194.418701 261.670651 
L 196.948477 261.871691 
L 197.791736 262.112586 
L 199.478253 262.237468 
L 202.851287 261.204699 
L 203.694545 261.242228 
L 205.381063 261.019795 
L 208.754097 260.915251 
L 209.597355 260.666533 
L 211.283872 260.537744 
L 212.97039 260.171988 
L 214.656907 259.887068 
L 218.029941 260.063542 
L 218.8732 260.338354 
L 220.559717 260.312923 
L 223.932751 260.950353 
L 226.462527 261.553593 
L 228.149044 261.686289 
L 230.678819 261.97347 
L 233.208595 262.085359 
L 236.581629 262.25332 
L 238.268146 262.387677 
L 241.641181 262.352816 
L 244.170956 262.29421 
L 247.543991 261.683085 
L 248.387249 261.499761 
L 252.603542 258.737458 
L 253.4468 257.970636 
L 255.976576 256.192203 
L 261.036128 251.528235 
L 262.722645 250.356837 
L 264.409162 249.045609 
L 265.25242 248.458979 
L 266.095679 248.183631 
L 266.938937 247.773193 
L 268.625455 247.304196 
L 269.468713 247.158034 
L 270.311972 247.235564 
L 272.841747 246.749363 
L 276.214782 247.136622 
L 277.901299 247.256316 
L 279.587816 247.064503 
L 280.431074 247.172256 
L 284.647367 249.672646 
L 286.333884 250.673174 
L 290.550177 252.432977 
L 292.236694 252.752258 
L 295.609728 253.508622 
L 296.452987 253.963728 
L 297.296246 254.229921 
L 298.982763 254.138108 
L 304.042314 253.244717 
L 307.415348 253.064481 
L 309.101865 253.170712 
L 310.788383 253.256985 
L 311.631641 253.271033 
L 312.4749 253.157909 
L 317.534451 251.564696 
L 319.220968 251.129278 
L 320.907485 250.503676 
L 323.437261 248.388793 
L 333.556364 239.467801 
L 335.242881 236.89655 
L 338.615915 232.918023 
L 339.459174 232.085114 
L 341.988949 229.152255 
L 343.675466 227.34361 
L 347.048501 221.909716 
L 350.421535 216.092645 
L 351.264793 215.122505 
L 352.108052 214.630137 
L 354.637828 212.369131 
L 355.481086 211.037627 
L 359.697379 206.491867 
L 360.540638 205.672886 
L 361.383896 205.20467 
L 363.070413 204.806216 
L 364.75693 205.122013 
L 367.286706 204.705023 
L 368.129965 204.491172 
L 368.973223 203.231531 
L 371.502999 198.150296 
L 373.189516 195.756105 
L 374.032774 194.332472 
L 374.876033 193.151391 
L 376.56255 189.918711 
L 378.249067 185.595156 
L 379.935584 180.237985 
L 382.46536 170.426304 
L 386.681653 150.221784 
L 390.054687 130.073214 
L 392.584463 118.948843 
L 393.427721 114.546394 
L 395.114238 108.364873 
L 397.644014 100.699852 
L 398.487273 98.70383 
L 398.487273 98.70383 
" style="fill:none;stroke:#2ca02c;stroke-linecap:square;stroke-width:1.5;"/>
   </g>
   <g id="line2d_20">
    <path clip-path="url(#pe489cc98fd)" d="M 73.832727 274.683391 
L 74.675986 276.062095 
L 75.519244 273.766783 
L 77.205762 273.711391 
L 78.892279 268.805094 
L 79.735537 269.575893 
L 80.578796 270.905318 
L 81.422054 268.691086 
L 82.265313 269.697539 
L 83.108571 268.742627 
L 83.95183 269.156268 
L 84.795089 264.966621 
L 85.638347 264.981389 
L 86.481606 265.454565 
L 87.324864 264.377334 
L 88.168123 264.315905 
L 89.011381 265.550057 
L 89.85464 265.918011 
L 90.697898 265.340859 
L 91.541157 265.786554 
L 92.384416 267.308954 
L 93.227674 267.082193 
L 94.070933 267.686597 
L 95.75745 264.337043 
L 96.600708 261.398942 
L 97.443967 261.937966 
L 98.287226 260.692735 
L 99.130484 261.69063 
L 99.973743 261.456823 
L 101.66026 261.906487 
L 102.503518 262.625248 
L 103.346777 259.958197 
L 104.190035 259.098392 
L 105.876553 258.24718 
L 106.719811 256.670112 
L 107.56307 258.434408 
L 108.406328 256.087913 
L 109.249587 255.528173 
L 110.092845 256.178497 
L 110.936104 255.47539 
L 111.779362 258.15063 
L 112.622621 258.002491 
L 113.46588 259.329298 
L 114.309138 256.46972 
L 115.152397 259.903678 
L 115.995655 259.847386 
L 116.838914 259.496112 
L 117.682172 259.630083 
L 118.525431 257.7989 
L 119.368689 259.617874 
L 120.211948 261.737971 
L 121.055207 264.883834 
L 121.898465 264.840651 
L 122.741724 265.487983 
L 123.584982 266.430374 
L 124.428241 266.445357 
L 125.271499 264.159436 
L 126.114758 265.104634 
L 126.958017 265.007281 
L 127.801275 263.297352 
L 128.644534 262.776468 
L 129.487792 264.161728 
L 130.331051 269.418339 
L 131.174309 270.046598 
L 132.017568 270.187834 
L 132.860826 270.012022 
L 133.704085 288.559556 
L 134.547344 283.900987 
L 135.390602 286.661271 
L 136.233861 285.739447 
L 137.077119 287.681419 
L 137.920378 285.769371 
L 138.763636 285.444151 
L 139.606895 280.555879 
L 140.450153 280.712071 
L 141.293412 280.717528 
L 142.136671 282.971636 
L 142.979929 279.001183 
L 143.823188 277.362893 
L 144.666446 277.767404 
L 145.509705 277.530505 
L 146.352963 279.687111 
L 147.196222 280.361445 
L 148.039481 282.629093 
L 148.882739 279.384152 
L 149.725998 279.389546 
L 150.569256 277.907018 
L 151.412515 277.027149 
L 152.255773 277.403971 
L 153.099032 276.674124 
L 153.94229 277.217144 
L 154.785549 273.819328 
L 155.628808 274.726641 
L 156.472066 273.612827 
L 157.315325 274.104962 
L 158.158583 276.588667 
L 159.8451 276.349673 
L 160.688359 276.711301 
L 161.531617 276.640698 
L 162.374876 278.020803 
L 163.218135 275.158464 
L 164.061393 275.665165 
L 164.904652 274.28358 
L 165.74791 275.036035 
L 166.591169 276.774827 
L 167.434427 276.683896 
L 168.277686 275.024651 
L 169.120945 272.89604 
L 169.964203 272.812378 
L 170.807462 272.526407 
L 171.65072 271.556185 
L 172.493979 271.069516 
L 173.337237 271.229094 
L 174.180496 265.017823 
L 175.023754 265.898064 
L 175.867013 264.684222 
L 176.710272 263.695291 
L 177.55353 264.10112 
L 178.396789 264.306408 
L 180.083306 262.590807 
L 180.926564 257.59991 
L 181.769823 258.69626 
L 182.613081 260.139633 
L 183.45634 265.142568 
L 184.299599 266.146103 
L 185.142857 264.781307 
L 186.829374 258.842594 
L 187.672633 261.769923 
L 188.515891 261.355495 
L 189.35915 259.613126 
L 190.202409 259.380083 
L 191.045667 258.936785 
L 191.888926 260.570559 
L 192.732184 263.229652 
L 193.575443 262.582971 
L 194.418701 262.588965 
L 195.26196 265.355266 
L 196.105218 264.273026 
L 196.948477 264.716149 
L 198.634994 260.233925 
L 199.478253 261.099617 
L 200.321511 259.456882 
L 201.16477 260.934238 
L 202.008028 256.372429 
L 202.851287 260.364472 
L 204.537804 258.900778 
L 205.381063 259.775985 
L 206.224321 259.502559 
L 207.06758 259.077025 
L 207.910838 258.910894 
L 208.754097 258.919186 
L 209.597355 258.255289 
L 210.440614 261.875247 
L 211.283872 260.720915 
L 212.127131 260.735401 
L 212.97039 261.577776 
L 213.813648 261.074149 
L 214.656907 260.361418 
L 217.186682 261.742171 
L 218.029941 261.444282 
L 218.8732 261.868658 
L 219.716458 259.560537 
L 220.559717 259.888502 
L 221.402975 261.747157 
L 222.246234 262.094226 
L 223.089492 262.618503 
L 223.932751 263.545071 
L 224.776009 262.898501 
L 225.619268 262.496227 
L 226.462527 262.755421 
L 227.305785 262.219282 
L 228.149044 263.030807 
L 228.992302 263.219837 
L 229.835561 262.780855 
L 230.678819 263.130258 
L 231.522078 261.599215 
L 232.365336 262.017308 
L 233.208595 261.050356 
L 234.051854 262.106131 
L 234.895112 261.882493 
L 235.738371 262.185388 
L 236.581629 261.800857 
L 237.424888 262.17443 
L 238.268146 262.148377 
L 239.954664 262.748611 
L 241.641181 262.56259 
L 242.484439 262.337432 
L 243.327698 262.634915 
L 244.170956 261.326468 
L 245.014215 260.381529 
L 245.857473 259.924049 
L 246.700732 260.331562 
L 247.543991 259.302112 
L 248.387249 257.93274 
L 249.230508 251.401275 
L 250.073766 251.843721 
L 250.917025 250.818442 
L 251.760283 250.829756 
L 252.603542 249.102419 
L 253.4468 246.464414 
L 254.290059 251.04271 
L 255.133318 249.903879 
L 255.976576 250.264739 
L 256.819835 246.93054 
L 257.663093 246.681496 
L 258.506352 247.572872 
L 259.34961 246.703978 
L 260.192869 247.202427 
L 261.036128 245.930046 
L 261.879386 248.938184 
L 262.722645 247.939435 
L 263.565903 246.659784 
L 264.409162 246.749318 
L 265.25242 246.20014 
L 266.095679 245.894323 
L 266.938937 243.634954 
L 267.782196 245.703507 
L 268.625455 246.564745 
L 269.468713 246.179195 
L 270.311972 248.014997 
L 271.15523 247.284841 
L 271.998489 247.423862 
L 272.841747 246.778611 
L 273.685006 249.380873 
L 274.528264 248.594778 
L 275.371523 249.332504 
L 276.214782 248.325923 
L 277.05804 248.458233 
L 277.901299 247.068103 
L 278.744557 247.32364 
L 279.587816 245.717727 
L 280.431074 248.814836 
L 281.274333 256.258222 
L 282.117591 254.564807 
L 282.96085 256.39303 
L 284.647367 255.142883 
L 285.490626 256.640264 
L 286.333884 256.114232 
L 287.177143 255.356578 
L 288.86366 254.784866 
L 289.706919 255.427875 
L 290.550177 253.408771 
L 291.393436 252.66254 
L 292.236694 251.650368 
L 293.079953 251.800163 
L 293.923211 251.751666 
L 294.76647 250.874118 
L 295.609728 251.877226 
L 296.452987 254.819851 
L 297.296246 254.138693 
L 298.139504 255.954328 
L 298.982763 253.032453 
L 299.826021 253.250357 
L 301.512538 252.788203 
L 302.355797 253.322298 
L 303.199055 252.432337 
L 304.042314 252.75978 
L 304.885573 253.706484 
L 306.57209 254.093707 
L 308.258607 252.752304 
L 309.101865 253.685222 
L 309.945124 253.428971 
L 310.788383 251.848314 
L 311.631641 251.155079 
L 312.4749 249.614746 
L 313.318158 249.124254 
L 314.161417 248.141069 
L 315.004675 248.684164 
L 315.847934 248.811928 
L 316.691192 248.239215 
L 317.534451 249.388082 
L 318.37771 249.138945 
L 319.220968 248.263197 
L 320.064227 246.859508 
L 320.907485 245.820562 
L 321.750744 240.49883 
L 322.594002 239.274754 
L 323.437261 239.680829 
L 324.280519 238.479603 
L 325.123778 238.965179 
L 325.967037 238.702619 
L 326.810295 235.107716 
L 327.653554 237.402564 
L 328.496812 236.284067 
L 329.340071 235.6982 
L 330.183329 234.292084 
L 331.026588 234.507222 
L 331.869847 235.717692 
L 332.713105 233.16943 
L 333.556364 232.104927 
L 334.399622 223.630419 
L 335.242881 223.471603 
L 336.086139 227.999376 
L 336.929398 224.076105 
L 337.772656 224.723583 
L 338.615915 225.072484 
L 339.459174 222.616584 
L 340.302432 219.097666 
L 341.145691 218.99143 
L 341.988949 220.379321 
L 342.832208 221.062017 
L 343.675466 216.575429 
L 344.518725 210.733141 
L 345.361983 209.952703 
L 346.205242 209.733147 
L 347.048501 204.580039 
L 347.891759 204.593152 
L 348.735018 206.201346 
L 349.578276 206.363146 
L 350.421535 202.000202 
L 351.264793 204.227615 
L 352.108052 213.62426 
L 352.951311 213.838673 
L 353.794569 210.247582 
L 354.637828 207.49268 
L 355.481086 198.442398 
L 356.324345 203.990047 
L 357.167603 201.241356 
L 358.010862 200.010801 
L 358.85412 204.439291 
L 359.697379 201.550333 
L 360.540638 200.195816 
L 361.383896 201.368815 
L 362.227155 206.569888 
L 363.070413 205.146877 
L 363.913672 207.18398 
L 364.75693 208.30515 
L 365.600189 203.638558 
L 366.443447 201.646948 
L 367.286706 200.939389 
L 368.129965 199.950602 
L 368.973223 188.431434 
L 369.816482 179.535074 
L 370.65974 177.330846 
L 371.502999 173.088326 
L 372.346257 174.95531 
L 373.189516 179.593316 
L 374.032774 172.768684 
L 374.876033 176.389189 
L 375.719292 173.543515 
L 376.56255 167.792508 
L 377.405809 157.069646 
L 378.249067 158.023878 
L 379.092326 153.144263 
L 379.935584 151.429084 
L 380.778843 142.340715 
L 381.622102 141.413114 
L 382.46536 139.140247 
L 383.308619 122.09762 
L 384.151877 116.75362 
L 384.995136 122.787572 
L 385.838394 110.716051 
L 387.524911 76.483448 
L 388.36817 68.981245 
L 389.211429 72.095906 
L 390.054687 84.43581 
L 390.897946 100.628408 
L 391.741204 107.784021 
L 392.584463 91.801531 
L 393.427721 79.743539 
L 394.27098 93.145712 
L 395.114238 98.317388 
L 395.957497 99.681423 
L 396.800756 95.111367 
L 397.644014 98.820849 
L 398.487273 101.492669 
L 398.487273 101.492669 
" style="fill:none;stroke:#d62728;stroke-linecap:square;stroke-width:1.5;"/>
   </g>
   <g id="patch_3">
    <path d="M 57.6 307.584 
L 57.6 41.472 
" style="fill:none;stroke:#000000;stroke-linecap:square;stroke-linejoin:miter;stroke-width:0.8;"/>
   </g>
   <g id="patch_4">
    <path d="M 414.72 307.584 
L 414.72 41.472 
" style="fill:none;stroke:#000000;stroke-linecap:square;stroke-linejoin:miter;stroke-width:0.8;"/>
   </g>
   <g id="patch_5">
    <path d="M 57.6 307.584 
L 414.72 307.584 
" style="fill:none;stroke:#000000;stroke-linecap:square;stroke-linejoin:miter;stroke-width:0.8;"/>
   </g>
   <g id="patch_6">
    <path d="M 57.6 41.472 
L 414.72 41.472 
" style="fill:none;stroke:#000000;stroke-linecap:square;stroke-linejoin:miter;stroke-width:0.8;"/>
   </g>
   <g id="text_17">
    <!-- Data source: nomics -->
    <g transform="translate(184.91625 35.472)scale(0.1 -0.1)">
     <defs>
      <path d="M 19.671875 64.796875 
L 19.671875 8.109375 
L 31.59375 8.109375 
Q 46.6875 8.109375 53.6875 14.9375 
Q 60.6875 21.78125 60.6875 36.53125 
Q 60.6875 51.171875 53.6875 57.984375 
Q 46.6875 64.796875 31.59375 64.796875 
z
M 9.8125 72.90625 
L 30.078125 72.90625 
Q 51.265625 72.90625 61.171875 64.09375 
Q 71.09375 55.28125 71.09375 36.53125 
Q 71.09375 17.671875 61.125 8.828125 
Q 51.171875 0 30.078125 0 
L 9.8125 0 
z
" id="DejaVuSans-68"/>
      <path d="M 34.28125 27.484375 
Q 23.390625 27.484375 19.1875 25 
Q 14.984375 22.515625 14.984375 16.5 
Q 14.984375 11.71875 18.140625 8.90625 
Q 21.296875 6.109375 26.703125 6.109375 
Q 34.1875 6.109375 38.703125 11.40625 
Q 43.21875 16.703125 43.21875 25.484375 
L 43.21875 27.484375 
z
M 52.203125 31.203125 
L 52.203125 0 
L 43.21875 0 
L 43.21875 8.296875 
Q 40.140625 3.328125 35.546875 0.953125 
Q 30.953125 -1.421875 24.3125 -1.421875 
Q 15.921875 -1.421875 10.953125 3.296875 
Q 6 8.015625 6 15.921875 
Q 6 25.140625 12.171875 29.828125 
Q 18.359375 34.515625 30.609375 34.515625 
L 43.21875 34.515625 
L 43.21875 35.40625 
Q 43.21875 41.609375 39.140625 45 
Q 35.0625 48.390625 27.6875 48.390625 
Q 23 48.390625 18.546875 47.265625 
Q 14.109375 46.140625 10.015625 43.890625 
L 10.015625 52.203125 
Q 14.9375 54.109375 19.578125 55.046875 
Q 24.21875 56 28.609375 56 
Q 40.484375 56 46.34375 49.84375 
Q 52.203125 43.703125 52.203125 31.203125 
z
" id="DejaVuSans-97"/>
      <path d="M 18.3125 70.21875 
L 18.3125 54.6875 
L 36.8125 54.6875 
L 36.8125 47.703125 
L 18.3125 47.703125 
L 18.3125 18.015625 
Q 18.3125 11.328125 20.140625 9.421875 
Q 21.96875 7.515625 27.59375 7.515625 
L 36.8125 7.515625 
L 36.8125 0 
L 27.59375 0 
Q 17.1875 0 13.234375 3.875 
Q 9.28125 7.765625 9.28125 18.015625 
L 9.28125 47.703125 
L 2.6875 47.703125 
L 2.6875 54.6875 
L 9.28125 54.6875 
L 9.28125 70.21875 
z
" id="DejaVuSans-116"/>
      <path id="DejaVuSans-32"/>
      <path d="M 44.28125 53.078125 
L 44.28125 44.578125 
Q 40.484375 46.53125 36.375 47.5 
Q 32.28125 48.484375 27.875 48.484375 
Q 21.1875 48.484375 17.84375 46.4375 
Q 14.5 44.390625 14.5 40.28125 
Q 14.5 37.15625 16.890625 35.375 
Q 19.28125 33.59375 26.515625 31.984375 
L 29.59375 31.296875 
Q 39.15625 29.25 43.1875 25.515625 
Q 47.21875 21.78125 47.21875 15.09375 
Q 47.21875 7.46875 41.1875 3.015625 
Q 35.15625 -1.421875 24.609375 -1.421875 
Q 20.21875 -1.421875 15.453125 -0.5625 
Q 10.6875 0.296875 5.421875 2 
L 5.421875 11.28125 
Q 10.40625 8.6875 15.234375 7.390625 
Q 20.0625 6.109375 24.8125 6.109375 
Q 31.15625 6.109375 34.5625 8.28125 
Q 37.984375 10.453125 37.984375 14.40625 
Q 37.984375 18.0625 35.515625 20.015625 
Q 33.0625 21.96875 24.703125 23.78125 
L 21.578125 24.515625 
Q 13.234375 26.265625 9.515625 29.90625 
Q 5.8125 33.546875 5.8125 39.890625 
Q 5.8125 47.609375 11.28125 51.796875 
Q 16.75 56 26.8125 56 
Q 31.78125 56 36.171875 55.265625 
Q 40.578125 54.546875 44.28125 53.078125 
z
" id="DejaVuSans-115"/>
      <path d="M 30.609375 48.390625 
Q 23.390625 48.390625 19.1875 42.75 
Q 14.984375 37.109375 14.984375 27.296875 
Q 14.984375 17.484375 19.15625 11.84375 
Q 23.34375 6.203125 30.609375 6.203125 
Q 37.796875 6.203125 41.984375 11.859375 
Q 46.1875 17.53125 46.1875 27.296875 
Q 46.1875 37.015625 41.984375 42.703125 
Q 37.796875 48.390625 30.609375 48.390625 
z
M 30.609375 56 
Q 42.328125 56 49.015625 48.375 
Q 55.71875 40.765625 55.71875 27.296875 
Q 55.71875 13.875 49.015625 6.21875 
Q 42.328125 -1.421875 30.609375 -1.421875 
Q 18.84375 -1.421875 12.171875 6.21875 
Q 5.515625 13.875 5.515625 27.296875 
Q 5.515625 40.765625 12.171875 48.375 
Q 18.84375 56 30.609375 56 
z
" id="DejaVuSans-111"/>
      <path d="M 8.5 21.578125 
L 8.5 54.6875 
L 17.484375 54.6875 
L 17.484375 21.921875 
Q 17.484375 14.15625 20.5 10.265625 
Q 23.53125 6.390625 29.59375 6.390625 
Q 36.859375 6.390625 41.078125 11.03125 
Q 45.3125 15.671875 45.3125 23.6875 
L 45.3125 54.6875 
L 54.296875 54.6875 
L 54.296875 0 
L 45.3125 0 
L 45.3125 8.40625 
Q 42.046875 3.421875 37.71875 1 
Q 33.40625 -1.421875 27.6875 -1.421875 
Q 18.265625 -1.421875 13.375 4.4375 
Q 8.5 10.296875 8.5 21.578125 
z
M 31.109375 56 
z
" id="DejaVuSans-117"/>
      <path d="M 41.109375 46.296875 
Q 39.59375 47.171875 37.8125 47.578125 
Q 36.03125 48 33.890625 48 
Q 26.265625 48 22.1875 43.046875 
Q 18.109375 38.09375 18.109375 28.8125 
L 18.109375 0 
L 9.078125 0 
L 9.078125 54.6875 
L 18.109375 54.6875 
L 18.109375 46.1875 
Q 20.953125 51.171875 25.484375 53.578125 
Q 30.03125 56 36.53125 56 
Q 37.453125 56 38.578125 55.875 
Q 39.703125 55.765625 41.0625 55.515625 
z
" id="DejaVuSans-114"/>
      <path d="M 48.78125 52.59375 
L 48.78125 44.1875 
Q 44.96875 46.296875 41.140625 47.34375 
Q 37.3125 48.390625 33.40625 48.390625 
Q 24.65625 48.390625 19.8125 42.84375 
Q 14.984375 37.3125 14.984375 27.296875 
Q 14.984375 17.28125 19.8125 11.734375 
Q 24.65625 6.203125 33.40625 6.203125 
Q 37.3125 6.203125 41.140625 7.25 
Q 44.96875 8.296875 48.78125 10.40625 
L 48.78125 2.09375 
Q 45.015625 0.34375 40.984375 -0.53125 
Q 36.96875 -1.421875 32.421875 -1.421875 
Q 20.0625 -1.421875 12.78125 6.34375 
Q 5.515625 14.109375 5.515625 27.296875 
Q 5.515625 40.671875 12.859375 48.328125 
Q 20.21875 56 33.015625 56 
Q 37.15625 56 41.109375 55.140625 
Q 45.0625 54.296875 48.78125 52.59375 
z
" id="DejaVuSans-99"/>
      <path d="M 56.203125 29.59375 
L 56.203125 25.203125 
L 14.890625 25.203125 
Q 15.484375 15.921875 20.484375 11.0625 
Q 25.484375 6.203125 34.421875 6.203125 
Q 39.59375 6.203125 44.453125 7.46875 
Q 49.3125 8.734375 54.109375 11.28125 
L 54.109375 2.78125 
Q 49.265625 0.734375 44.1875 -0.34375 
Q 39.109375 -1.421875 33.890625 -1.421875 
Q 20.796875 -1.421875 13.15625 6.1875 
Q 5.515625 13.8125 5.515625 26.8125 
Q 5.515625 40.234375 12.765625 48.109375 
Q 20.015625 56 32.328125 56 
Q 43.359375 56 49.78125 48.890625 
Q 56.203125 41.796875 56.203125 29.59375 
z
M 47.21875 32.234375 
Q 47.125 39.59375 43.09375 43.984375 
Q 39.0625 48.390625 32.421875 48.390625 
Q 24.90625 48.390625 20.390625 44.140625 
Q 15.875 39.890625 15.1875 32.171875 
z
" id="DejaVuSans-101"/>
      <path d="M 11.71875 12.40625 
L 22.015625 12.40625 
L 22.015625 0 
L 11.71875 0 
z
M 11.71875 51.703125 
L 22.015625 51.703125 
L 22.015625 39.3125 
L 11.71875 39.3125 
z
" id="DejaVuSans-58"/>
      <path d="M 54.890625 33.015625 
L 54.890625 0 
L 45.90625 0 
L 45.90625 32.71875 
Q 45.90625 40.484375 42.875 44.328125 
Q 39.84375 48.1875 33.796875 48.1875 
Q 26.515625 48.1875 22.3125 43.546875 
Q 18.109375 38.921875 18.109375 30.90625 
L 18.109375 0 
L 9.078125 0 
L 9.078125 54.6875 
L 18.109375 54.6875 
L 18.109375 46.1875 
Q 21.34375 51.125 25.703125 53.5625 
Q 30.078125 56 35.796875 56 
Q 45.21875 56 50.046875 50.171875 
Q 54.890625 44.34375 54.890625 33.015625 
z
" id="DejaVuSans-110"/>
      <path d="M 52 44.1875 
Q 55.375 50.25 60.0625 53.125 
Q 64.75 56 71.09375 56 
Q 79.640625 56 84.28125 50.015625 
Q 88.921875 44.046875 88.921875 33.015625 
L 88.921875 0 
L 79.890625 0 
L 79.890625 32.71875 
Q 79.890625 40.578125 77.09375 44.375 
Q 74.3125 48.1875 68.609375 48.1875 
Q 61.625 48.1875 57.5625 43.546875 
Q 53.515625 38.921875 53.515625 30.90625 
L 53.515625 0 
L 44.484375 0 
L 44.484375 32.71875 
Q 44.484375 40.625 41.703125 44.40625 
Q 38.921875 48.1875 33.109375 48.1875 
Q 26.21875 48.1875 22.15625 43.53125 
Q 18.109375 38.875 18.109375 30.90625 
L 18.109375 0 
L 9.078125 0 
L 9.078125 54.6875 
L 18.109375 54.6875 
L 18.109375 46.1875 
Q 21.1875 51.21875 25.484375 53.609375 
Q 29.78125 56 35.6875 56 
Q 41.65625 56 45.828125 52.96875 
Q 50 49.953125 52 44.1875 
z
" id="DejaVuSans-109"/>
      <path d="M 9.421875 54.6875 
L 18.40625 54.6875 
L 18.40625 0 
L 9.421875 0 
z
M 9.421875 75.984375 
L 18.40625 75.984375 
L 18.40625 64.59375 
L 9.421875 64.59375 
z
" id="DejaVuSans-105"/>
     </defs>
     <use xlink:href="#DejaVuSans-68"/>
     <use x="77.001953" xlink:href="#DejaVuSans-97"/>
     <use x="138.28125" xlink:href="#DejaVuSans-116"/>
     <use x="177.490234" xlink:href="#DejaVuSans-97"/>
     <use x="238.769531" xlink:href="#DejaVuSans-32"/>
     <use x="270.556641" xlink:href="#DejaVuSans-115"/>
     <use x="322.65625" xlink:href="#DejaVuSans-111"/>
     <use x="383.837891" xlink:href="#DejaVuSans-117"/>
     <use x="447.216797" xlink:href="#DejaVuSans-114"/>
     <use x="486.080078" xlink:href="#DejaVuSans-99"/>
     <use x="541.060547" xlink:href="#DejaVuSans-101"/>
     <use x="602.583984" xlink:href="#DejaVuSans-58"/>
     <use x="636.275391" xlink:href="#DejaVuSans-32"/>
     <use x="668.0625" xlink:href="#DejaVuSans-110"/>
     <use x="731.441406" xlink:href="#DejaVuSans-111"/>
     <use x="792.623047" xlink:href="#DejaVuSans-109"/>
     <use x="890.035156" xlink:href="#DejaVuSans-105"/>
     <use x="917.818359" xlink:href="#DejaVuSans-99"/>
     <use x="972.798828" xlink:href="#DejaVuSans-115"/>
    </g>
   </g>
   <g id="legend_1">
    <g id="patch_7">
     <path d="M 64.6 108.1845 
L 155.732812 108.1845 
Q 157.732812 108.1845 157.732812 106.1845 
L 157.732812 48.472 
Q 157.732812 46.472 155.732812 46.472 
L 64.6 46.472 
Q 62.6 46.472 62.6 48.472 
L 62.6 106.1845 
Q 62.6 108.1845 64.6 108.1845 
z
" style="fill:#ffffff;opacity:0.8;stroke:#cccccc;stroke-linejoin:miter;"/>
    </g>
    <g id="line2d_21">
     <path d="M 66.6 54.570438 
L 86.6 54.570438 
" style="fill:none;stroke:#1f77b4;stroke-linecap:square;stroke-width:1.5;"/>
    </g>
    <g id="line2d_22"/>
    <g id="text_18">
     <!-- Upper Band -->
     <g transform="translate(94.6 58.070438)scale(0.1 -0.1)">
      <defs>
       <path d="M 8.6875 72.90625 
L 18.609375 72.90625 
L 18.609375 28.609375 
Q 18.609375 16.890625 22.84375 11.734375 
Q 27.09375 6.59375 36.625 6.59375 
Q 46.09375 6.59375 50.34375 11.734375 
Q 54.59375 16.890625 54.59375 28.609375 
L 54.59375 72.90625 
L 64.5 72.90625 
L 64.5 27.390625 
Q 64.5 13.140625 57.4375 5.859375 
Q 50.390625 -1.421875 36.625 -1.421875 
Q 22.796875 -1.421875 15.734375 5.859375 
Q 8.6875 13.140625 8.6875 27.390625 
z
" id="DejaVuSans-85"/>
       <path d="M 18.109375 8.203125 
L 18.109375 -20.796875 
L 9.078125 -20.796875 
L 9.078125 54.6875 
L 18.109375 54.6875 
L 18.109375 46.390625 
Q 20.953125 51.265625 25.265625 53.625 
Q 29.59375 56 35.59375 56 
Q 45.5625 56 51.78125 48.09375 
Q 58.015625 40.1875 58.015625 27.296875 
Q 58.015625 14.40625 51.78125 6.484375 
Q 45.5625 -1.421875 35.59375 -1.421875 
Q 29.59375 -1.421875 25.265625 0.953125 
Q 20.953125 3.328125 18.109375 8.203125 
z
M 48.6875 27.296875 
Q 48.6875 37.203125 44.609375 42.84375 
Q 40.53125 48.484375 33.40625 48.484375 
Q 26.265625 48.484375 22.1875 42.84375 
Q 18.109375 37.203125 18.109375 27.296875 
Q 18.109375 17.390625 22.1875 11.75 
Q 26.265625 6.109375 33.40625 6.109375 
Q 40.53125 6.109375 44.609375 11.75 
Q 48.6875 17.390625 48.6875 27.296875 
z
" id="DejaVuSans-112"/>
       <path d="M 19.671875 34.8125 
L 19.671875 8.109375 
L 35.5 8.109375 
Q 43.453125 8.109375 47.28125 11.40625 
Q 51.125 14.703125 51.125 21.484375 
Q 51.125 28.328125 47.28125 31.5625 
Q 43.453125 34.8125 35.5 34.8125 
z
M 19.671875 64.796875 
L 19.671875 42.828125 
L 34.28125 42.828125 
Q 41.5 42.828125 45.03125 45.53125 
Q 48.578125 48.25 48.578125 53.8125 
Q 48.578125 59.328125 45.03125 62.0625 
Q 41.5 64.796875 34.28125 64.796875 
z
M 9.8125 72.90625 
L 35.015625 72.90625 
Q 46.296875 72.90625 52.390625 68.21875 
Q 58.5 63.53125 58.5 54.890625 
Q 58.5 48.1875 55.375 44.234375 
Q 52.25 40.28125 46.1875 39.3125 
Q 53.46875 37.75 57.5 32.78125 
Q 61.53125 27.828125 61.53125 20.40625 
Q 61.53125 10.640625 54.890625 5.3125 
Q 48.25 0 35.984375 0 
L 9.8125 0 
z
" id="DejaVuSans-66"/>
       <path d="M 45.40625 46.390625 
L 45.40625 75.984375 
L 54.390625 75.984375 
L 54.390625 0 
L 45.40625 0 
L 45.40625 8.203125 
Q 42.578125 3.328125 38.25 0.953125 
Q 33.9375 -1.421875 27.875 -1.421875 
Q 17.96875 -1.421875 11.734375 6.484375 
Q 5.515625 14.40625 5.515625 27.296875 
Q 5.515625 40.1875 11.734375 48.09375 
Q 17.96875 56 27.875 56 
Q 33.9375 56 38.25 53.625 
Q 42.578125 51.265625 45.40625 46.390625 
z
M 14.796875 27.296875 
Q 14.796875 17.390625 18.875 11.75 
Q 22.953125 6.109375 30.078125 6.109375 
Q 37.203125 6.109375 41.296875 11.75 
Q 45.40625 17.390625 45.40625 27.296875 
Q 45.40625 37.203125 41.296875 42.84375 
Q 37.203125 48.484375 30.078125 48.484375 
Q 22.953125 48.484375 18.875 42.84375 
Q 14.796875 37.203125 14.796875 27.296875 
z
" id="DejaVuSans-100"/>
      </defs>
      <use xlink:href="#DejaVuSans-85"/>
      <use x="73.193359" xlink:href="#DejaVuSans-112"/>
      <use x="136.669922" xlink:href="#DejaVuSans-112"/>
      <use x="200.146484" xlink:href="#DejaVuSans-101"/>
      <use x="261.669922" xlink:href="#DejaVuSans-114"/>
      <use x="302.783203" xlink:href="#DejaVuSans-32"/>
      <use x="334.570312" xlink:href="#DejaVuSans-66"/>
      <use x="403.173828" xlink:href="#DejaVuSans-97"/>
      <use x="464.453125" xlink:href="#DejaVuSans-110"/>
      <use x="527.832031" xlink:href="#DejaVuSans-100"/>
     </g>
    </g>
    <g id="line2d_23">
     <path d="M 66.6 69.248563 
L 86.6 69.248563 
" style="fill:none;stroke:#ff7f0e;stroke-linecap:square;stroke-width:1.5;"/>
    </g>
    <g id="line2d_24"/>
    <g id="text_19">
     <!-- Lower Band -->
     <g transform="translate(94.6 72.748563)scale(0.1 -0.1)">
      <defs>
       <path d="M 9.8125 72.90625 
L 19.671875 72.90625 
L 19.671875 8.296875 
L 55.171875 8.296875 
L 55.171875 0 
L 9.8125 0 
z
" id="DejaVuSans-76"/>
       <path d="M 4.203125 54.6875 
L 13.1875 54.6875 
L 24.421875 12.015625 
L 35.59375 54.6875 
L 46.1875 54.6875 
L 57.421875 12.015625 
L 68.609375 54.6875 
L 77.59375 54.6875 
L 63.28125 0 
L 52.6875 0 
L 40.921875 44.828125 
L 29.109375 0 
L 18.5 0 
z
" id="DejaVuSans-119"/>
      </defs>
      <use xlink:href="#DejaVuSans-76"/>
      <use x="53.962891" xlink:href="#DejaVuSans-111"/>
      <use x="115.144531" xlink:href="#DejaVuSans-119"/>
      <use x="196.931641" xlink:href="#DejaVuSans-101"/>
      <use x="258.455078" xlink:href="#DejaVuSans-114"/>
      <use x="299.568359" xlink:href="#DejaVuSans-32"/>
      <use x="331.355469" xlink:href="#DejaVuSans-66"/>
      <use x="399.958984" xlink:href="#DejaVuSans-97"/>
      <use x="461.238281" xlink:href="#DejaVuSans-110"/>
      <use x="524.617188" xlink:href="#DejaVuSans-100"/>
     </g>
    </g>
    <g id="line2d_25">
     <path d="M 66.6 83.926688 
L 86.6 83.926688 
" style="fill:none;stroke:#2ca02c;stroke-linecap:square;stroke-width:1.5;"/>
    </g>
    <g id="line2d_26"/>
    <g id="text_20">
     <!-- MA -->
     <g transform="translate(94.6 87.426688)scale(0.1 -0.1)">
      <defs>
       <path d="M 9.8125 72.90625 
L 24.515625 72.90625 
L 43.109375 23.296875 
L 61.8125 72.90625 
L 76.515625 72.90625 
L 76.515625 0 
L 66.890625 0 
L 66.890625 64.015625 
L 48.09375 14.015625 
L 38.1875 14.015625 
L 19.390625 64.015625 
L 19.390625 0 
L 9.8125 0 
z
" id="DejaVuSans-77"/>
       <path d="M 34.1875 63.1875 
L 20.796875 26.90625 
L 47.609375 26.90625 
z
M 28.609375 72.90625 
L 39.796875 72.90625 
L 67.578125 0 
L 57.328125 0 
L 50.6875 18.703125 
L 17.828125 18.703125 
L 11.1875 0 
L 0.78125 0 
z
" id="DejaVuSans-65"/>
      </defs>
      <use xlink:href="#DejaVuSans-77"/>
      <use x="86.279297" xlink:href="#DejaVuSans-65"/>
     </g>
    </g>
    <g id="line2d_27">
     <path d="M 66.6 98.604813 
L 86.6 98.604813 
" style="fill:none;stroke:#d62728;stroke-linecap:square;stroke-width:1.5;"/>
    </g>
    <g id="line2d_28"/>
    <g id="text_21">
     <!-- BTC-USD -->
     <g transform="translate(94.6 102.104813)scale(0.1 -0.1)">
      <defs>
       <path d="M -0.296875 72.90625 
L 61.375 72.90625 
L 61.375 64.59375 
L 35.5 64.59375 
L 35.5 0 
L 25.59375 0 
L 25.59375 64.59375 
L -0.296875 64.59375 
z
" id="DejaVuSans-84"/>
       <path d="M 64.40625 67.28125 
L 64.40625 56.890625 
Q 59.421875 61.53125 53.78125 63.8125 
Q 48.140625 66.109375 41.796875 66.109375 
Q 29.296875 66.109375 22.65625 58.46875 
Q 16.015625 50.828125 16.015625 36.375 
Q 16.015625 21.96875 22.65625 14.328125 
Q 29.296875 6.6875 41.796875 6.6875 
Q 48.140625 6.6875 53.78125 8.984375 
Q 59.421875 11.28125 64.40625 15.921875 
L 64.40625 5.609375 
Q 59.234375 2.09375 53.4375 0.328125 
Q 47.65625 -1.421875 41.21875 -1.421875 
Q 24.65625 -1.421875 15.125 8.703125 
Q 5.609375 18.84375 5.609375 36.375 
Q 5.609375 53.953125 15.125 64.078125 
Q 24.65625 74.21875 41.21875 74.21875 
Q 47.75 74.21875 53.53125 72.484375 
Q 59.328125 70.75 64.40625 67.28125 
z
" id="DejaVuSans-67"/>
       <path d="M 53.515625 70.515625 
L 53.515625 60.890625 
Q 47.90625 63.578125 42.921875 64.890625 
Q 37.9375 66.21875 33.296875 66.21875 
Q 25.25 66.21875 20.875 63.09375 
Q 16.5 59.96875 16.5 54.203125 
Q 16.5 49.359375 19.40625 46.890625 
Q 22.3125 44.4375 30.421875 42.921875 
L 36.375 41.703125 
Q 47.40625 39.59375 52.65625 34.296875 
Q 57.90625 29 57.90625 20.125 
Q 57.90625 9.515625 50.796875 4.046875 
Q 43.703125 -1.421875 29.984375 -1.421875 
Q 24.8125 -1.421875 18.96875 -0.25 
Q 13.140625 0.921875 6.890625 3.21875 
L 6.890625 13.375 
Q 12.890625 10.015625 18.65625 8.296875 
Q 24.421875 6.59375 29.984375 6.59375 
Q 38.421875 6.59375 43.015625 9.90625 
Q 47.609375 13.234375 47.609375 19.390625 
Q 47.609375 24.75 44.3125 27.78125 
Q 41.015625 30.8125 33.5 32.328125 
L 27.484375 33.5 
Q 16.453125 35.6875 11.515625 40.375 
Q 6.59375 45.0625 6.59375 53.421875 
Q 6.59375 63.09375 13.40625 68.65625 
Q 20.21875 74.21875 32.171875 74.21875 
Q 37.3125 74.21875 42.625 73.28125 
Q 47.953125 72.359375 53.515625 70.515625 
z
" id="DejaVuSans-83"/>
      </defs>
      <use xlink:href="#DejaVuSans-66"/>
      <use x="68.603516" xlink:href="#DejaVuSans-84"/>
      <use x="123.8125" xlink:href="#DejaVuSans-67"/>
      <use x="193.636719" xlink:href="#DejaVuSans-45"/>
      <use x="229.720703" xlink:href="#DejaVuSans-85"/>
      <use x="302.914062" xlink:href="#DejaVuSans-83"/>
      <use x="366.390625" xlink:href="#DejaVuSans-68"/>
     </g>
    </g>
   </g>
  </g>
  <g id="text_22">
   <!-- Bollinger Band -->
   <g transform="translate(171.90625 19.0695)scale(0.16 -0.16)">
    <defs>
     <path d="M 9.421875 75.984375 
L 18.40625 75.984375 
L 18.40625 0 
L 9.421875 0 
z
" id="DejaVuSans-108"/>
     <path d="M 45.40625 27.984375 
Q 45.40625 37.75 41.375 43.109375 
Q 37.359375 48.484375 30.078125 48.484375 
Q 22.859375 48.484375 18.828125 43.109375 
Q 14.796875 37.75 14.796875 27.984375 
Q 14.796875 18.265625 18.828125 12.890625 
Q 22.859375 7.515625 30.078125 7.515625 
Q 37.359375 7.515625 41.375 12.890625 
Q 45.40625 18.265625 45.40625 27.984375 
z
M 54.390625 6.78125 
Q 54.390625 -7.171875 48.1875 -13.984375 
Q 42 -20.796875 29.203125 -20.796875 
Q 24.46875 -20.796875 20.265625 -20.09375 
Q 16.0625 -19.390625 12.109375 -17.921875 
L 12.109375 -9.1875 
Q 16.0625 -11.328125 19.921875 -12.34375 
Q 23.78125 -13.375 27.78125 -13.375 
Q 36.625 -13.375 41.015625 -8.765625 
Q 45.40625 -4.15625 45.40625 5.171875 
L 45.40625 9.625 
Q 42.625 4.78125 38.28125 2.390625 
Q 33.9375 0 27.875 0 
Q 17.828125 0 11.671875 7.65625 
Q 5.515625 15.328125 5.515625 27.984375 
Q 5.515625 40.671875 11.671875 48.328125 
Q 17.828125 56 27.875 56 
Q 33.9375 56 38.28125 53.609375 
Q 42.625 51.21875 45.40625 46.390625 
L 45.40625 54.6875 
L 54.390625 54.6875 
z
" id="DejaVuSans-103"/>
    </defs>
    <use xlink:href="#DejaVuSans-66"/>
    <use x="68.603516" xlink:href="#DejaVuSans-111"/>
    <use x="129.785156" xlink:href="#DejaVuSans-108"/>
    <use x="157.568359" xlink:href="#DejaVuSans-108"/>
    <use x="185.351562" xlink:href="#DejaVuSans-105"/>
    <use x="213.134766" xlink:href="#DejaVuSans-110"/>
    <use x="276.513672" xlink:href="#DejaVuSans-103"/>
    <use x="339.990234" xlink:href="#DejaVuSans-101"/>
    <use x="401.513672" xlink:href="#DejaVuSans-114"/>
    <use x="442.626953" xlink:href="#DejaVuSans-32"/>
    <use x="474.414062" xlink:href="#DejaVuSans-66"/>
    <use x="543.017578" xlink:href="#DejaVuSans-97"/>
    <use x="604.296875" xlink:href="#DejaVuSans-110"/>
    <use x="667.675781" xlink:href="#DejaVuSans-100"/>
   </g>
  </g>
 </g>
 <defs>
  <clipPath id="pe489cc98fd">
   <rect height="266.112" width="357.12" x="57.6" y="41.472"/>
  </clipPath>
 </defs>
</svg>
