<?xml version="1.0" encoding="utf-8" standalone="no"?>
<!DOCTYPE svg PUBLIC "-//W3C//DTD SVG 1.1//EN"
  "http://www.w3.org/Graphics/SVG/1.1/DTD/svg11.dtd">
<!-- Created with matplotlib (https://matplotlib.org/) -->
<svg height="345.6pt" version="1.1" viewBox="0 0 460.8 345.6" width="460.8pt" xmlns="http://www.w3.org/2000/svg" xmlns:xlink="http://www.w3.org/1999/xlink">
 <metadata>
  <rdf:RDF xmlns:cc="http://creativecommons.org/ns#" xmlns:dc="http://purl.org/dc/elements/1.1/" xmlns:rdf="http://www.w3.org/1999/02/22-rdf-syntax-ns#">
   <cc:Work>
    <dc:type rdf:resource="http://purl.org/dc/dcmitype/StillImage"/>
    <dc:date>2021-01-24T19:00:12.369483</dc:date>
    <dc:format>image/svg+xml</dc:format>
    <dc:creator>
     <cc:Agent>
      <dc:title>Matplotlib v3.3.2, https://matplotlib.org/</dc:title>
     </cc:Agent>
    </dc:creator>
   </cc:Work>
  </rdf:RDF>
 </metadata>
 <defs>
  <style type="text/css">*{stroke-linecap:butt;stroke-linejoin:round;}</style>
 </defs>
 <g id="figure_1">
  <g id="patch_1">
   <path d="M 0 345.6 
L 460.8 345.6 
L 460.8 0 
L 0 0 
z
" style="fill:#ffffff;"/>
  </g>
  <g id="axes_1">
   <g id="patch_2">
    <path d="M 57.6 307.584 
L 414.72 307.584 
L 414.72 41.472 
L 57.6 41.472 
z
" style="fill:#ffffff;"/>
   </g>
   <g id="PolyCollection_1">
    <defs>
     <path d="M 89.68989 -68.871847 
L 89.68989 -83.888952 
L 90.524478 -84.081731 
L 91.359065 -83.827958 
L 92.193653 -83.610579 
L 93.02824 -83.283799 
L 93.862828 -82.729212 
L 94.697415 -82.587718 
L 95.532003 -82.890005 
L 96.36659 -83.740817 
L 97.201178 -84.081562 
L 98.035765 -84.864373 
L 98.870353 -85.139677 
L 99.70494 -85.457868 
L 100.539528 -85.537173 
L 101.374115 -85.820454 
L 102.208703 -85.981246 
L 103.04329 -86.575211 
L 103.877878 -87.276405 
L 104.712466 -87.971976 
L 105.547053 -88.66136 
L 106.381641 -89.568577 
L 107.216228 -90.009473 
L 108.050816 -90.787775 
L 108.885403 -91.356782 
L 109.719991 -91.615602 
L 110.554578 -91.666891 
L 111.389166 -91.34456 
L 112.223753 -91.179894 
L 113.058341 -91.171122 
L 113.892928 -91.38356 
L 114.727516 -91.368754 
L 115.562103 -91.284267 
L 116.396691 -91.205656 
L 117.231278 -91.081947 
L 118.065866 -90.954015 
L 118.900453 -90.556293 
L 119.735041 -90.775624 
L 120.569628 -91.601836 
L 121.404216 -92.111549 
L 122.238803 -92.515105 
L 123.073391 -92.706294 
L 123.907978 -92.918417 
L 124.742566 -92.481402 
L 125.577154 -91.893913 
L 126.411741 -91.302899 
L 127.246329 -90.381579 
L 128.080916 -89.934082 
L 128.915504 -89.400578 
L 129.750091 -89.491473 
L 130.584679 -88.852111 
L 131.419266 -88.737371 
L 132.253854 -88.422856 
L 133.088441 -92.322207 
L 133.923029 -93.043786 
L 134.757616 -93.293484 
L 135.592204 -93.091057 
L 136.426791 -93.039301 
L 137.261379 -92.815864 
L 138.095966 -92.300007 
L 138.930554 -91.44033 
L 139.765141 -90.596971 
L 140.599729 -89.645457 
L 141.434316 -88.212332 
L 142.268904 -86.776755 
L 143.103491 -85.247874 
L 143.938079 -83.142885 
L 144.772667 -80.62136 
L 145.607254 -77.958083 
L 146.441842 -76.364706 
L 147.276429 -74.62376 
L 148.111017 -72.820014 
L 148.945604 -70.575707 
L 149.780192 -70.646446 
L 150.614779 -71.189217 
L 151.449367 -71.344734 
L 152.283954 -71.594728 
L 153.118542 -71.208172 
L 153.953129 -71.655254 
L 154.787717 -71.657439 
L 155.622304 -72.416848 
L 156.456892 -72.939769 
L 157.291479 -73.014922 
L 158.126067 -72.743133 
L 158.960654 -72.837969 
L 159.795242 -72.878018 
L 160.629829 -72.936233 
L 161.464417 -72.92421 
L 162.299004 -73.087618 
L 163.133592 -73.069071 
L 163.968179 -72.61511 
L 164.802767 -72.561006 
L 165.637355 -72.312626 
L 166.471942 -72.246408 
L 167.30653 -72.325787 
L 168.141117 -72.758628 
L 168.975705 -73.17178 
L 169.810292 -73.547951 
L 170.64488 -74.012713 
L 171.479467 -74.629383 
L 172.314055 -75.046092 
L 173.148642 -77.352851 
L 173.98323 -78.852627 
L 174.817817 -80.403988 
L 175.652405 -81.938261 
L 176.486992 -83.103185 
L 177.32158 -84.032693 
L 178.156167 -84.835604 
L 178.990755 -85.834638 
L 179.825342 -87.760107 
L 180.65993 -89.159881 
L 181.494517 -89.98933 
L 182.329105 -89.782665 
L 183.163692 -89.325504 
L 183.99828 -89.011925 
L 184.832867 -89.140115 
L 185.667455 -89.563315 
L 186.502043 -89.343489 
L 187.33663 -89.111384 
L 188.171218 -88.964984 
L 189.005805 -88.466306 
L 189.840393 -88.84584 
L 190.67498 -88.850646 
L 191.509568 -88.795269 
L 192.344155 -88.786543 
L 193.178743 -88.755447 
L 194.01333 -88.844229 
L 194.847918 -88.876829 
L 195.682505 -88.93074 
L 196.517093 -88.287944 
L 197.35168 -88.026531 
L 198.186268 -87.90827 
L 199.020855 -88.138428 
L 199.855443 -87.958201 
L 200.69003 -88.756397 
L 201.524618 -88.836603 
L 202.359205 -88.727195 
L 203.193793 -88.984516 
L 204.02838 -89.099914 
L 204.862968 -89.112945 
L 205.697556 -89.153068 
L 206.532143 -89.156844 
L 207.366731 -89.330901 
L 208.201318 -89.590492 
L 209.035906 -89.575079 
L 209.870493 -89.576225 
L 210.705081 -89.201907 
L 211.539668 -88.925464 
L 212.374256 -88.424576 
L 213.208843 -88.29484 
L 214.043431 -88.295101 
L 214.878018 -88.302872 
L 215.712606 -88.299448 
L 216.547193 -88.318193 
L 217.381781 -87.550999 
L 218.216368 -87.617306 
L 219.050956 -87.58735 
L 219.885543 -87.429351 
L 220.720131 -87.401748 
L 221.554718 -87.356968 
L 222.389306 -87.306249 
L 223.223893 -87.060609 
L 224.058481 -86.72387 
L 224.893068 -86.106522 
L 225.727656 -86.106281 
L 226.562244 -86.04783 
L 227.396831 -85.978997 
L 228.231419 -85.957633 
L 229.066006 -85.889511 
L 229.900594 -85.706629 
L 230.735181 -85.56853 
L 231.569769 -85.597871 
L 232.404356 -85.57341 
L 233.238944 -85.531396 
L 234.073531 -85.512115 
L 234.908119 -85.016491 
L 235.742706 -84.481281 
L 236.577294 -84.43187 
L 237.411881 -84.406134 
L 238.246469 -84.405802 
L 239.081056 -84.336277 
L 239.915644 -84.32926 
L 240.750231 -84.335102 
L 241.584819 -84.332818 
L 242.419406 -84.468678 
L 243.253994 -84.828586 
L 244.088581 -85.226535 
L 244.923169 -85.465157 
L 245.757756 -85.899759 
L 246.592344 -86.697511 
L 247.426932 -89.822795 
L 248.261519 -91.692891 
L 249.096107 -93.495352 
L 249.930694 -94.975546 
L 250.765282 -96.644965 
L 251.599869 -98.717271 
L 252.434457 -99.500459 
L 253.269044 -100.356371 
L 254.103632 -100.996105 
L 254.938219 -102.0587 
L 255.772807 -102.948229 
L 256.607394 -103.473374 
L 257.441982 -103.95364 
L 258.276569 -104.071173 
L 259.111157 -104.31198 
L 259.945744 -104.046191 
L 260.780332 -103.721574 
L 261.614919 -103.128067 
L 262.449507 -102.254831 
L 263.284094 -101.15824 
L 264.118682 -101.338317 
L 264.953269 -101.852573 
L 265.787857 -101.940305 
L 266.622444 -101.841898 
L 267.457032 -101.916312 
L 268.29162 -101.842813 
L 269.126207 -101.536261 
L 269.960795 -101.351049 
L 270.795382 -101.015113 
L 271.62997 -101.191887 
L 272.464557 -101.210817 
L 273.299145 -101.32188 
L 274.133732 -101.291739 
L 274.96832 -101.290106 
L 275.802907 -101.172228 
L 276.637495 -101.140956 
L 277.472082 -101.301682 
L 278.30667 -101.293501 
L 279.141257 -102.910553 
L 279.975845 -103.319568 
L 280.810432 -103.784664 
L 281.64502 -103.484871 
L 282.479607 -103.284243 
L 283.314195 -103.249068 
L 284.148782 -102.942869 
L 284.98337 -102.734017 
L 285.817957 -102.334645 
L 286.652545 -101.869176 
L 287.487133 -101.228333 
L 288.32172 -100.925219 
L 289.156308 -100.508659 
L 289.990895 -100.249026 
L 290.825483 -99.795889 
L 291.66007 -99.342923 
L 292.494658 -98.639524 
L 293.329245 -97.807929 
L 294.163833 -96.041017 
L 294.99842 -95.049023 
L 295.833008 -95.031343 
L 296.667595 -95.141193 
L 297.502183 -95.158767 
L 298.33677 -95.208571 
L 299.171358 -95.300063 
L 300.005945 -95.181182 
L 300.840533 -95.159639 
L 301.67512 -95.146718 
L 302.509708 -95.088087 
L 303.344295 -95.04866 
L 304.178883 -94.928191 
L 305.01347 -94.929123 
L 305.848058 -94.921802 
L 306.682645 -94.737784 
L 307.517233 -94.566075 
L 308.351821 -94.547884 
L 309.186408 -94.472752 
L 310.020996 -95.077149 
L 310.855583 -95.799709 
L 311.690171 -96.69223 
L 312.524758 -97.08572 
L 313.359346 -97.570488 
L 314.193933 -98.11017 
L 315.028521 -98.371506 
L 315.863108 -98.643285 
L 316.697696 -99.006176 
L 317.532283 -99.619773 
L 318.366871 -100.366 
L 319.201458 -102.452432 
L 320.036046 -104.397083 
L 320.870633 -105.80212 
L 321.705221 -107.278568 
L 322.539808 -108.405964 
L 323.374396 -109.279113 
L 324.208983 -110.756192 
L 325.043571 -111.566316 
L 325.878158 -112.450346 
L 326.712746 -113.368656 
L 327.547333 -114.406684 
L 328.381921 -115.271771 
L 329.216509 -115.721635 
L 330.051096 -116.407561 
L 330.885684 -117.121645 
L 331.720271 -119.497086 
L 332.554859 -121.319674 
L 333.389446 -121.729885 
L 334.224034 -122.807339 
L 335.058621 -123.463507 
L 335.893209 -124.379393 
L 336.727796 -125.669492 
L 337.562384 -127.452403 
L 338.396971 -128.996502 
L 339.231559 -129.90965 
L 340.066146 -130.464753 
L 340.900734 -131.962319 
L 341.735321 -134.325205 
L 342.569909 -136.458791 
L 343.404496 -138.216922 
L 344.239084 -140.912531 
L 345.073671 -142.987417 
L 345.908259 -144.009562 
L 346.742846 -144.855587 
L 347.577434 -146.282605 
L 348.412022 -147.656318 
L 349.246609 -147.699942 
L 350.081197 -147.179794 
L 350.915784 -147.182941 
L 351.750372 -147.211385 
L 352.584959 -148.521098 
L 353.419547 -148.66325 
L 354.254134 -149.409813 
L 355.088722 -150.122949 
L 355.923309 -149.667098 
L 356.757897 -148.983843 
L 357.592484 -148.963622 
L 358.427072 -149.297371 
L 359.261659 -149.211808 
L 360.096247 -149.155395 
L 360.930834 -149.091142 
L 361.765422 -149.036079 
L 362.600009 -149.172894 
L 363.434597 -149.508935 
L 364.269184 -149.645531 
L 365.103772 -150.113586 
L 365.938359 -152.909445 
L 366.772947 -157.98279 
L 367.607534 -162.723858 
L 368.442122 -167.822393 
L 369.27671 -171.480677 
L 370.111297 -173.705694 
L 370.945885 -177.068902 
L 371.780472 -179.296312 
L 372.61506 -181.649136 
L 373.449647 -184.859562 
L 374.284235 -190.034424 
L 375.118822 -194.122315 
L 375.95341 -198.214521 
L 376.787997 -201.932637 
L 377.622585 -206.585559 
L 378.457172 -210.101611 
L 379.29176 -213.556577 
L 380.126347 -220.297574 
L 380.960935 -226.809175 
L 381.795522 -230.269557 
L 382.63011 -236.688286 
L 383.464697 -246.736923 
L 384.299285 -259.752428 
L 385.133872 -272.44027 
L 385.96846 -281.936929 
L 386.803047 -286.817444 
L 387.637635 -288.605976 
L 388.472222 -288.33464 
L 389.30681 -289.326267 
L 390.141398 -291.630483 
L 390.975985 -292.032 
L 391.810573 -290.880347 
L 392.64516 -289.320244 
L 393.479748 -287.349615 
L 394.314335 -285.485396 
L 395.148923 -282.696787 
L 395.98351 -280.980189 
L 396.818098 -280.601685 
L 397.652685 -281.086239 
L 398.487273 -280.951801 
L 398.487273 -213.848063 
L 398.487273 -213.848063 
L 397.652685 -213.578464 
L 396.818098 -214.629809 
L 395.98351 -213.823128 
L 395.148923 -211.068997 
L 394.314335 -204.288669 
L 393.479748 -198.072819 
L 392.64516 -190.470877 
L 391.810573 -183.564927 
L 390.975985 -176.449063 
L 390.141398 -170.481487 
L 389.30681 -163.971405 
L 388.472222 -156.765316 
L 387.637635 -149.634023 
L 386.803047 -144.209116 
L 385.96846 -139.574657 
L 385.133872 -138.786215 
L 384.299285 -141.0642 
L 383.464697 -143.995789 
L 382.63011 -145.497433 
L 381.795522 -144.145258 
L 380.960935 -139.889967 
L 380.126347 -137.983678 
L 379.29176 -136.770392 
L 378.457172 -133.776054 
L 377.622585 -130.603449 
L 376.787997 -128.772573 
L 375.95341 -127.119349 
L 375.118822 -125.869428 
L 374.284235 -125.62318 
L 373.449647 -126.485777 
L 372.61506 -126.320696 
L 371.780472 -125.584194 
L 370.945885 -125.449637 
L 370.111297 -125.965809 
L 369.27671 -125.751353 
L 368.442122 -127.06112 
L 367.607534 -128.719501 
L 366.772947 -130.169163 
L 365.938359 -131.812428 
L 365.103772 -132.089211 
L 364.269184 -132.1296 
L 363.434597 -132.160123 
L 362.600009 -132.024582 
L 361.765422 -131.90514 
L 360.930834 -132.221246 
L 360.096247 -132.417366 
L 359.261659 -131.902363 
L 358.427072 -131.478546 
L 357.592484 -130.875939 
L 356.757897 -129.21789 
L 355.923309 -126.583626 
L 355.088722 -124.533902 
L 354.254134 -123.34913 
L 353.419547 -122.310208 
L 352.584959 -120.589858 
L 351.750372 -119.236781 
L 350.915784 -117.542274 
L 350.081197 -116.162682 
L 349.246609 -114.226579 
L 348.412022 -113.285549 
L 347.577434 -112.719141 
L 346.742846 -111.135932 
L 345.908259 -109.301548 
L 345.073671 -107.372299 
L 344.239084 -106.456022 
L 343.404496 -106.180669 
L 342.569909 -105.342507 
L 341.735321 -104.843171 
L 340.900734 -104.539333 
L 340.066146 -104.183822 
L 339.231559 -102.975008 
L 338.396971 -102.029722 
L 337.562384 -101.625164 
L 336.727796 -101.349926 
L 335.893209 -100.974344 
L 335.058621 -100.347721 
L 334.224034 -98.894364 
L 333.389446 -97.693663 
L 332.554859 -96.077658 
L 331.720271 -95.333721 
L 330.885684 -95.133606 
L 330.051096 -94.234393 
L 329.216509 -93.356197 
L 328.381921 -92.50952 
L 327.547333 -92.011333 
L 326.712746 -91.566266 
L 325.878158 -91.093034 
L 325.043571 -90.490085 
L 324.208983 -89.855752 
L 323.374396 -89.500855 
L 322.539808 -88.875866 
L 321.705221 -88.624662 
L 320.870633 -88.612602 
L 320.036046 -88.576469 
L 319.201458 -89.053529 
L 318.366871 -89.819303 
L 317.532283 -89.871665 
L 316.697696 -89.928025 
L 315.863108 -89.785047 
L 315.028521 -89.69193 
L 314.193933 -89.586376 
L 313.359346 -89.624984 
L 312.524758 -89.687734 
L 311.690171 -89.354267 
L 310.855583 -89.647075 
L 310.020996 -89.800122 
L 309.186408 -90.178289 
L 308.351821 -90.131251 
L 307.517233 -90.122723 
L 306.682645 -90.113883 
L 305.848058 -90.133334 
L 305.01347 -90.134988 
L 304.178883 -90.131632 
L 303.344295 -89.877757 
L 302.509708 -89.755037 
L 301.67512 -89.55695 
L 300.840533 -89.284371 
L 300.005945 -88.894669 
L 299.171358 -88.444018 
L 298.33677 -88.300061 
L 297.502183 -88.072505 
L 296.667595 -87.775838 
L 295.833008 -87.732465 
L 294.99842 -87.684398 
L 294.163833 -87.224746 
L 293.329245 -86.367972 
L 292.494658 -85.991699 
L 291.66007 -85.66887 
L 290.825483 -85.545221 
L 289.990895 -85.43948 
L 289.156308 -85.411614 
L 288.32172 -85.401797 
L 287.487133 -85.50144 
L 286.652545 -85.725452 
L 285.817957 -85.996024 
L 284.98337 -86.37822 
L 284.148782 -86.903466 
L 283.314195 -87.590689 
L 282.479607 -88.562983 
L 281.64502 -89.306216 
L 280.810432 -90.225939 
L 279.975845 -91.740821 
L 279.141257 -92.986234 
L 278.30667 -95.554098 
L 277.472082 -95.761405 
L 276.637495 -95.699978 
L 275.802907 -95.507264 
L 274.96832 -95.503183 
L 274.133732 -95.627121 
L 273.299145 -95.759161 
L 272.464557 -96.046173 
L 271.62997 -96.256415 
L 270.795382 -96.678203 
L 269.960795 -95.993682 
L 269.126207 -95.560489 
L 268.29162 -94.878181 
L 267.457032 -94.959728 
L 266.622444 -94.741843 
L 265.787857 -94.216969 
L 264.953269 -93.79325 
L 264.118682 -93.486696 
L 263.284094 -93.116123 
L 262.449507 -90.846367 
L 261.614919 -88.717954 
L 260.780332 -86.757382 
L 259.945744 -85.234401 
L 259.111157 -83.824371 
L 258.276569 -82.525661 
L 257.441982 -81.100071 
L 256.607394 -80.01712 
L 255.772807 -79.043415 
L 254.938219 -78.332156 
L 254.103632 -77.813073 
L 253.269044 -77.233662 
L 252.434457 -76.865224 
L 251.599869 -76.535331 
L 250.765282 -77.074118 
L 249.930694 -77.435346 
L 249.096107 -77.810357 
L 248.261519 -78.484141 
L 247.426932 -79.433649 
L 246.592344 -81.497416 
L 245.757756 -81.928551 
L 244.923169 -81.980369 
L 244.088581 -81.974082 
L 243.253994 -82.042479 
L 242.419406 -82.137481 
L 241.584819 -82.184067 
L 240.750231 -82.169733 
L 239.915644 -82.159697 
L 239.081056 -82.119091 
L 238.246469 -81.964136 
L 237.411881 -81.976813 
L 236.577294 -81.98737 
L 235.742706 -81.978079 
L 234.908119 -81.671442 
L 234.073531 -81.399832 
L 233.238944 -81.412222 
L 232.404356 -81.414025 
L 231.569769 -81.425957 
L 230.735181 -81.435091 
L 229.900594 -81.417188 
L 229.066006 -81.358076 
L 228.231419 -81.495548 
L 227.396831 -81.594482 
L 226.562244 -81.774072 
L 225.727656 -81.946592 
L 224.893068 -81.980751 
L 224.058481 -81.81338 
L 223.223893 -81.834316 
L 222.389306 -81.987404 
L 221.554718 -82.383453 
L 220.720131 -82.650242 
L 219.885543 -82.854444 
L 219.050956 -82.98106 
L 218.216368 -82.980633 
L 217.381781 -82.966554 
L 216.547193 -82.748938 
L 215.712606 -82.818683 
L 214.878018 -83.043769 
L 214.043431 -83.066822 
L 213.208843 -83.12521 
L 212.374256 -82.789851 
L 211.539668 -81.924793 
L 210.705081 -81.378846 
L 209.870493 -80.542581 
L 209.035906 -80.356936 
L 208.201318 -80.270757 
L 207.366731 -80.032952 
L 206.532143 -80.041886 
L 205.697556 -80.043073 
L 204.862968 -80.052892 
L 204.02838 -80.054867 
L 203.193793 -80.012327 
L 202.359205 -79.982757 
L 201.524618 -79.948402 
L 200.69003 -79.893722 
L 199.855443 -79.851099 
L 199.020855 -79.149727 
L 198.186268 -78.811363 
L 197.35168 -78.789093 
L 196.517093 -78.681434 
L 195.682505 -78.520389 
L 194.847918 -78.786817 
L 194.01333 -78.90407 
L 193.178743 -79.097729 
L 192.344155 -78.91543 
L 191.509568 -78.795481 
L 190.67498 -78.594658 
L 189.840393 -78.066757 
L 189.005805 -77.838238 
L 188.171218 -76.154756 
L 187.33663 -74.86281 
L 186.502043 -73.610719 
L 185.667455 -72.315332 
L 184.832867 -71.341668 
L 183.99828 -70.351689 
L 183.163692 -69.013859 
L 182.329105 -67.503006 
L 181.494517 -66.13321 
L 180.65993 -65.47314 
L 179.825342 -65.314309 
L 178.990755 -65.433401 
L 178.156167 -65.175771 
L 177.32158 -64.519364 
L 176.486992 -64.215544 
L 175.652405 -64.119552 
L 174.817817 -64.388491 
L 173.98323 -64.760859 
L 173.148642 -65.191661 
L 172.314055 -66.58978 
L 171.479467 -66.768136 
L 170.64488 -67.019123 
L 169.810292 -67.257589 
L 168.975705 -67.164724 
L 168.141117 -67.191734 
L 167.30653 -67.173818 
L 166.471942 -67.052964 
L 165.637355 -66.864443 
L 164.802767 -66.354613 
L 163.968179 -65.865733 
L 163.133592 -64.577289 
L 162.299004 -64.089152 
L 161.464417 -63.799733 
L 160.629829 -63.836735 
L 159.795242 -63.782289 
L 158.960654 -63.757184 
L 158.126067 -63.586891 
L 157.291479 -62.665503 
L 156.456892 -62.327804 
L 155.622304 -62.190067 
L 154.787717 -62.255228 
L 153.953129 -61.185749 
L 153.118542 -60.437924 
L 152.283954 -59.005026 
L 151.449367 -58.348563 
L 150.614779 -57.578425 
L 149.780192 -57.433868 
L 148.945604 -56.439441 
L 148.111017 -55.13281 
L 147.276429 -54.24862 
L 146.441842 -53.76582 
L 145.607254 -53.266665 
L 144.772667 -52.1558 
L 143.938079 -51.109558 
L 143.103491 -50.451456 
L 142.268904 -50.158035 
L 141.434316 -50.112 
L 140.599729 -50.559941 
L 139.765141 -51.035528 
L 138.930554 -51.620221 
L 138.095966 -52.267212 
L 137.261379 -53.811536 
L 136.426791 -55.676482 
L 135.592204 -58.21886 
L 134.757616 -60.628376 
L 133.923029 -63.764076 
L 133.088441 -66.912547 
L 132.253854 -73.718005 
L 131.419266 -74.41987 
L 130.584679 -75.333463 
L 129.750091 -76.051677 
L 128.915504 -77.151394 
L 128.080916 -77.233763 
L 127.246329 -77.248812 
L 126.411741 -77.109625 
L 125.577154 -77.401417 
L 124.742566 -77.771496 
L 123.907978 -78.141568 
L 123.073391 -79.15472 
L 122.238803 -80.321856 
L 121.404216 -81.449433 
L 120.569628 -82.570943 
L 119.735041 -83.975652 
L 118.900453 -84.372945 
L 118.065866 -83.674511 
L 117.231278 -83.135854 
L 116.396691 -82.804604 
L 115.562103 -82.529939 
L 114.727516 -82.261142 
L 113.892928 -82.167436 
L 113.058341 -81.833095 
L 112.223753 -81.617376 
L 111.389166 -80.819305 
L 110.554578 -79.700921 
L 109.719991 -78.531189 
L 108.885403 -77.699729 
L 108.050816 -77.090754 
L 107.216228 -76.899271 
L 106.381641 -76.649578 
L 105.547053 -76.632082 
L 104.712466 -76.591237 
L 103.877878 -76.727481 
L 103.04329 -76.900824 
L 102.208703 -76.945198 
L 101.374115 -76.870394 
L 100.539528 -76.847687 
L 99.70494 -76.181991 
L 98.870353 -75.771661 
L 98.035765 -75.246339 
L 97.201178 -75.229381 
L 96.36659 -74.673464 
L 95.532003 -74.706647 
L 94.697415 -74.562166 
L 93.862828 -73.903097 
L 93.02824 -72.74608 
L 92.193653 -71.757598 
L 91.359065 -70.894488 
L 90.524478 -69.613245 
L 89.68989 -68.871847 
z
" id="me4b7d0381f" style="stroke:#4b0082;stroke-opacity:0.3;"/>
    </defs>
    <g clip-path="url(#pdb0b44640f)">
     <use style="fill:#4b0082;fill-opacity:0.3;stroke:#4b0082;stroke-opacity:0.3;" x="0" xlink:href="#me4b7d0381f" y="345.6"/>
    </g>
   </g>
   <g id="matplotlib.axis_1">
    <g id="xtick_1">
     <g id="line2d_1">
      <defs>
       <path d="M 0 0 
L 0 3.5 
" id="m7b5b9cd03b" style="stroke:#000000;stroke-width:0.8;"/>
      </defs>
      <g>
       <use style="stroke:#000000;stroke-width:0.8;" x="73.832727" xlink:href="#m7b5b9cd03b" y="307.584"/>
      </g>
     </g>
     <g id="text_1">
      <!-- 2020-01 -->
      <g transform="translate(52.941321 322.182437)scale(0.1 -0.1)">
       <defs>
        <path d="M 19.1875 8.296875 
L 53.609375 8.296875 
L 53.609375 0 
L 7.328125 0 
L 7.328125 8.296875 
Q 12.9375 14.109375 22.625 23.890625 
Q 32.328125 33.6875 34.8125 36.53125 
Q 39.546875 41.84375 41.421875 45.53125 
Q 43.3125 49.21875 43.3125 52.78125 
Q 43.3125 58.59375 39.234375 62.25 
Q 35.15625 65.921875 28.609375 65.921875 
Q 23.96875 65.921875 18.8125 64.3125 
Q 13.671875 62.703125 7.8125 59.421875 
L 7.8125 69.390625 
Q 13.765625 71.78125 18.9375 73 
Q 24.125 74.21875 28.421875 74.21875 
Q 39.75 74.21875 46.484375 68.546875 
Q 53.21875 62.890625 53.21875 53.421875 
Q 53.21875 48.921875 51.53125 44.890625 
Q 49.859375 40.875 45.40625 35.40625 
Q 44.1875 33.984375 37.640625 27.21875 
Q 31.109375 20.453125 19.1875 8.296875 
z
" id="DejaVuSans-50"/>
        <path d="M 31.78125 66.40625 
Q 24.171875 66.40625 20.328125 58.90625 
Q 16.5 51.421875 16.5 36.375 
Q 16.5 21.390625 20.328125 13.890625 
Q 24.171875 6.390625 31.78125 6.390625 
Q 39.453125 6.390625 43.28125 13.890625 
Q 47.125 21.390625 47.125 36.375 
Q 47.125 51.421875 43.28125 58.90625 
Q 39.453125 66.40625 31.78125 66.40625 
z
M 31.78125 74.21875 
Q 44.046875 74.21875 50.515625 64.515625 
Q 56.984375 54.828125 56.984375 36.375 
Q 56.984375 17.96875 50.515625 8.265625 
Q 44.046875 -1.421875 31.78125 -1.421875 
Q 19.53125 -1.421875 13.0625 8.265625 
Q 6.59375 17.96875 6.59375 36.375 
Q 6.59375 54.828125 13.0625 64.515625 
Q 19.53125 74.21875 31.78125 74.21875 
z
" id="DejaVuSans-48"/>
        <path d="M 4.890625 31.390625 
L 31.203125 31.390625 
L 31.203125 23.390625 
L 4.890625 23.390625 
z
" id="DejaVuSans-45"/>
        <path d="M 12.40625 8.296875 
L 28.515625 8.296875 
L 28.515625 63.921875 
L 10.984375 60.40625 
L 10.984375 69.390625 
L 28.421875 72.90625 
L 38.28125 72.90625 
L 38.28125 8.296875 
L 54.390625 8.296875 
L 54.390625 0 
L 12.40625 0 
z
" id="DejaVuSans-49"/>
       </defs>
       <use xlink:href="#DejaVuSans-50"/>
       <use x="63.623047" xlink:href="#DejaVuSans-48"/>
       <use x="127.246094" xlink:href="#DejaVuSans-50"/>
       <use x="190.869141" xlink:href="#DejaVuSans-48"/>
       <use x="254.492188" xlink:href="#DejaVuSans-45"/>
       <use x="290.576172" xlink:href="#DejaVuSans-48"/>
       <use x="354.199219" xlink:href="#DejaVuSans-49"/>
      </g>
     </g>
    </g>
    <g id="xtick_2">
     <g id="line2d_2">
      <g>
       <use style="stroke:#000000;stroke-width:0.8;" x="123.907978" xlink:href="#m7b5b9cd03b" y="307.584"/>
      </g>
     </g>
     <g id="text_2">
      <!-- 2020-03 -->
      <g transform="translate(103.016572 322.182437)scale(0.1 -0.1)">
       <defs>
        <path d="M 40.578125 39.3125 
Q 47.65625 37.796875 51.625 33 
Q 55.609375 28.21875 55.609375 21.1875 
Q 55.609375 10.40625 48.1875 4.484375 
Q 40.765625 -1.421875 27.09375 -1.421875 
Q 22.515625 -1.421875 17.65625 -0.515625 
Q 12.796875 0.390625 7.625 2.203125 
L 7.625 11.71875 
Q 11.71875 9.328125 16.59375 8.109375 
Q 21.484375 6.890625 26.8125 6.890625 
Q 36.078125 6.890625 40.9375 10.546875 
Q 45.796875 14.203125 45.796875 21.1875 
Q 45.796875 27.640625 41.28125 31.265625 
Q 36.765625 34.90625 28.71875 34.90625 
L 20.21875 34.90625 
L 20.21875 43.015625 
L 29.109375 43.015625 
Q 36.375 43.015625 40.234375 45.921875 
Q 44.09375 48.828125 44.09375 54.296875 
Q 44.09375 59.90625 40.109375 62.90625 
Q 36.140625 65.921875 28.71875 65.921875 
Q 24.65625 65.921875 20.015625 65.03125 
Q 15.375 64.15625 9.8125 62.3125 
L 9.8125 71.09375 
Q 15.4375 72.65625 20.34375 73.4375 
Q 25.25 74.21875 29.59375 74.21875 
Q 40.828125 74.21875 47.359375 69.109375 
Q 53.90625 64.015625 53.90625 55.328125 
Q 53.90625 49.265625 50.4375 45.09375 
Q 46.96875 40.921875 40.578125 39.3125 
z
" id="DejaVuSans-51"/>
       </defs>
       <use xlink:href="#DejaVuSans-50"/>
       <use x="63.623047" xlink:href="#DejaVuSans-48"/>
       <use x="127.246094" xlink:href="#DejaVuSans-50"/>
       <use x="190.869141" xlink:href="#DejaVuSans-48"/>
       <use x="254.492188" xlink:href="#DejaVuSans-45"/>
       <use x="290.576172" xlink:href="#DejaVuSans-48"/>
       <use x="354.199219" xlink:href="#DejaVuSans-51"/>
      </g>
     </g>
    </g>
    <g id="xtick_3">
     <g id="line2d_3">
      <g>
       <use style="stroke:#000000;stroke-width:0.8;" x="174.817817" xlink:href="#m7b5b9cd03b" y="307.584"/>
      </g>
     </g>
     <g id="text_3">
      <!-- 2020-05 -->
      <g transform="translate(153.926411 322.182437)scale(0.1 -0.1)">
       <defs>
        <path d="M 10.796875 72.90625 
L 49.515625 72.90625 
L 49.515625 64.59375 
L 19.828125 64.59375 
L 19.828125 46.734375 
Q 21.96875 47.46875 24.109375 47.828125 
Q 26.265625 48.1875 28.421875 48.1875 
Q 40.625 48.1875 47.75 41.5 
Q 54.890625 34.8125 54.890625 23.390625 
Q 54.890625 11.625 47.5625 5.09375 
Q 40.234375 -1.421875 26.90625 -1.421875 
Q 22.3125 -1.421875 17.546875 -0.640625 
Q 12.796875 0.140625 7.71875 1.703125 
L 7.71875 11.625 
Q 12.109375 9.234375 16.796875 8.0625 
Q 21.484375 6.890625 26.703125 6.890625 
Q 35.15625 6.890625 40.078125 11.328125 
Q 45.015625 15.765625 45.015625 23.390625 
Q 45.015625 31 40.078125 35.4375 
Q 35.15625 39.890625 26.703125 39.890625 
Q 22.75 39.890625 18.8125 39.015625 
Q 14.890625 38.140625 10.796875 36.28125 
z
" id="DejaVuSans-53"/>
       </defs>
       <use xlink:href="#DejaVuSans-50"/>
       <use x="63.623047" xlink:href="#DejaVuSans-48"/>
       <use x="127.246094" xlink:href="#DejaVuSans-50"/>
       <use x="190.869141" xlink:href="#DejaVuSans-48"/>
       <use x="254.492188" xlink:href="#DejaVuSans-45"/>
       <use x="290.576172" xlink:href="#DejaVuSans-48"/>
       <use x="354.199219" xlink:href="#DejaVuSans-53"/>
      </g>
     </g>
    </g>
    <g id="xtick_4">
     <g id="line2d_4">
      <g>
       <use style="stroke:#000000;stroke-width:0.8;" x="225.727656" xlink:href="#m7b5b9cd03b" y="307.584"/>
      </g>
     </g>
     <g id="text_4">
      <!-- 2020-07 -->
      <g transform="translate(204.83625 322.182437)scale(0.1 -0.1)">
       <defs>
        <path d="M 8.203125 72.90625 
L 55.078125 72.90625 
L 55.078125 68.703125 
L 28.609375 0 
L 18.3125 0 
L 43.21875 64.59375 
L 8.203125 64.59375 
z
" id="DejaVuSans-55"/>
       </defs>
       <use xlink:href="#DejaVuSans-50"/>
       <use x="63.623047" xlink:href="#DejaVuSans-48"/>
       <use x="127.246094" xlink:href="#DejaVuSans-50"/>
       <use x="190.869141" xlink:href="#DejaVuSans-48"/>
       <use x="254.492188" xlink:href="#DejaVuSans-45"/>
       <use x="290.576172" xlink:href="#DejaVuSans-48"/>
       <use x="354.199219" xlink:href="#DejaVuSans-55"/>
      </g>
     </g>
    </g>
    <g id="xtick_5">
     <g id="line2d_5">
      <g>
       <use style="stroke:#000000;stroke-width:0.8;" x="277.472082" xlink:href="#m7b5b9cd03b" y="307.584"/>
      </g>
     </g>
     <g id="text_5">
      <!-- 2020-09 -->
      <g transform="translate(256.580676 322.182437)scale(0.1 -0.1)">
       <defs>
        <path d="M 10.984375 1.515625 
L 10.984375 10.5 
Q 14.703125 8.734375 18.5 7.8125 
Q 22.3125 6.890625 25.984375 6.890625 
Q 35.75 6.890625 40.890625 13.453125 
Q 46.046875 20.015625 46.78125 33.40625 
Q 43.953125 29.203125 39.59375 26.953125 
Q 35.25 24.703125 29.984375 24.703125 
Q 19.046875 24.703125 12.671875 31.3125 
Q 6.296875 37.9375 6.296875 49.421875 
Q 6.296875 60.640625 12.9375 67.421875 
Q 19.578125 74.21875 30.609375 74.21875 
Q 43.265625 74.21875 49.921875 64.515625 
Q 56.59375 54.828125 56.59375 36.375 
Q 56.59375 19.140625 48.40625 8.859375 
Q 40.234375 -1.421875 26.421875 -1.421875 
Q 22.703125 -1.421875 18.890625 -0.6875 
Q 15.09375 0.046875 10.984375 1.515625 
z
M 30.609375 32.421875 
Q 37.25 32.421875 41.125 36.953125 
Q 45.015625 41.5 45.015625 49.421875 
Q 45.015625 57.28125 41.125 61.84375 
Q 37.25 66.40625 30.609375 66.40625 
Q 23.96875 66.40625 20.09375 61.84375 
Q 16.21875 57.28125 16.21875 49.421875 
Q 16.21875 41.5 20.09375 36.953125 
Q 23.96875 32.421875 30.609375 32.421875 
z
" id="DejaVuSans-57"/>
       </defs>
       <use xlink:href="#DejaVuSans-50"/>
       <use x="63.623047" xlink:href="#DejaVuSans-48"/>
       <use x="127.246094" xlink:href="#DejaVuSans-50"/>
       <use x="190.869141" xlink:href="#DejaVuSans-48"/>
       <use x="254.492188" xlink:href="#DejaVuSans-45"/>
       <use x="290.576172" xlink:href="#DejaVuSans-48"/>
       <use x="354.199219" xlink:href="#DejaVuSans-57"/>
      </g>
     </g>
    </g>
    <g id="xtick_6">
     <g id="line2d_6">
      <g>
       <use style="stroke:#000000;stroke-width:0.8;" x="328.381921" xlink:href="#m7b5b9cd03b" y="307.584"/>
      </g>
     </g>
     <g id="text_6">
      <!-- 2020-11 -->
      <g transform="translate(307.490515 322.182437)scale(0.1 -0.1)">
       <use xlink:href="#DejaVuSans-50"/>
       <use x="63.623047" xlink:href="#DejaVuSans-48"/>
       <use x="127.246094" xlink:href="#DejaVuSans-50"/>
       <use x="190.869141" xlink:href="#DejaVuSans-48"/>
       <use x="254.492188" xlink:href="#DejaVuSans-45"/>
       <use x="290.576172" xlink:href="#DejaVuSans-49"/>
       <use x="354.199219" xlink:href="#DejaVuSans-49"/>
      </g>
     </g>
    </g>
    <g id="xtick_7">
     <g id="line2d_7">
      <g>
       <use style="stroke:#000000;stroke-width:0.8;" x="379.29176" xlink:href="#m7b5b9cd03b" y="307.584"/>
      </g>
     </g>
     <g id="text_7">
      <!-- 2021-01 -->
      <g transform="translate(358.400354 322.182437)scale(0.1 -0.1)">
       <use xlink:href="#DejaVuSans-50"/>
       <use x="63.623047" xlink:href="#DejaVuSans-48"/>
       <use x="127.246094" xlink:href="#DejaVuSans-50"/>
       <use x="190.869141" xlink:href="#DejaVuSans-49"/>
       <use x="254.492188" xlink:href="#DejaVuSans-45"/>
       <use x="290.576172" xlink:href="#DejaVuSans-48"/>
       <use x="354.199219" xlink:href="#DejaVuSans-49"/>
      </g>
     </g>
    </g>
   </g>
   <g id="matplotlib.axis_2">
    <g id="ytick_1">
     <g id="line2d_8">
      <defs>
       <path d="M 0 0 
L -3.5 0 
" id="mf6a5327e66" style="stroke:#000000;stroke-width:0.8;"/>
      </defs>
      <g>
       <use style="stroke:#000000;stroke-width:0.8;" x="57.6" xlink:href="#mf6a5327e66" y="288.064399"/>
      </g>
     </g>
     <g id="text_8">
      <!-- 5000 -->
      <g transform="translate(25.15 291.863617)scale(0.1 -0.1)">
       <use xlink:href="#DejaVuSans-53"/>
       <use x="63.623047" xlink:href="#DejaVuSans-48"/>
       <use x="127.246094" xlink:href="#DejaVuSans-48"/>
       <use x="190.869141" xlink:href="#DejaVuSans-48"/>
      </g>
     </g>
    </g>
    <g id="ytick_2">
     <g id="line2d_9">
      <g>
       <use style="stroke:#000000;stroke-width:0.8;" x="57.6" xlink:href="#mf6a5327e66" y="257.527144"/>
      </g>
     </g>
     <g id="text_9">
      <!-- 10000 -->
      <g transform="translate(18.7875 261.326363)scale(0.1 -0.1)">
       <use xlink:href="#DejaVuSans-49"/>
       <use x="63.623047" xlink:href="#DejaVuSans-48"/>
       <use x="127.246094" xlink:href="#DejaVuSans-48"/>
       <use x="190.869141" xlink:href="#DejaVuSans-48"/>
       <use x="254.492188" xlink:href="#DejaVuSans-48"/>
      </g>
     </g>
    </g>
    <g id="ytick_3">
     <g id="line2d_10">
      <g>
       <use style="stroke:#000000;stroke-width:0.8;" x="57.6" xlink:href="#mf6a5327e66" y="226.98989"/>
      </g>
     </g>
     <g id="text_10">
      <!-- 15000 -->
      <g transform="translate(18.7875 230.789109)scale(0.1 -0.1)">
       <use xlink:href="#DejaVuSans-49"/>
       <use x="63.623047" xlink:href="#DejaVuSans-53"/>
       <use x="127.246094" xlink:href="#DejaVuSans-48"/>
       <use x="190.869141" xlink:href="#DejaVuSans-48"/>
       <use x="254.492188" xlink:href="#DejaVuSans-48"/>
      </g>
     </g>
    </g>
    <g id="ytick_4">
     <g id="line2d_11">
      <g>
       <use style="stroke:#000000;stroke-width:0.8;" x="57.6" xlink:href="#mf6a5327e66" y="196.452636"/>
      </g>
     </g>
     <g id="text_11">
      <!-- 20000 -->
      <g transform="translate(18.7875 200.251855)scale(0.1 -0.1)">
       <use xlink:href="#DejaVuSans-50"/>
       <use x="63.623047" xlink:href="#DejaVuSans-48"/>
       <use x="127.246094" xlink:href="#DejaVuSans-48"/>
       <use x="190.869141" xlink:href="#DejaVuSans-48"/>
       <use x="254.492188" xlink:href="#DejaVuSans-48"/>
      </g>
     </g>
    </g>
    <g id="ytick_5">
     <g id="line2d_12">
      <g>
       <use style="stroke:#000000;stroke-width:0.8;" x="57.6" xlink:href="#mf6a5327e66" y="165.915382"/>
      </g>
     </g>
     <g id="text_12">
      <!-- 25000 -->
      <g transform="translate(18.7875 169.714601)scale(0.1 -0.1)">
       <use xlink:href="#DejaVuSans-50"/>
       <use x="63.623047" xlink:href="#DejaVuSans-53"/>
       <use x="127.246094" xlink:href="#DejaVuSans-48"/>
       <use x="190.869141" xlink:href="#DejaVuSans-48"/>
       <use x="254.492188" xlink:href="#DejaVuSans-48"/>
      </g>
     </g>
    </g>
    <g id="ytick_6">
     <g id="line2d_13">
      <g>
       <use style="stroke:#000000;stroke-width:0.8;" x="57.6" xlink:href="#mf6a5327e66" y="135.378128"/>
      </g>
     </g>
     <g id="text_13">
      <!-- 30000 -->
      <g transform="translate(18.7875 139.177347)scale(0.1 -0.1)">
       <use xlink:href="#DejaVuSans-51"/>
       <use x="63.623047" xlink:href="#DejaVuSans-48"/>
       <use x="127.246094" xlink:href="#DejaVuSans-48"/>
       <use x="190.869141" xlink:href="#DejaVuSans-48"/>
       <use x="254.492188" xlink:href="#DejaVuSans-48"/>
      </g>
     </g>
    </g>
    <g id="ytick_7">
     <g id="line2d_14">
      <g>
       <use style="stroke:#000000;stroke-width:0.8;" x="57.6" xlink:href="#mf6a5327e66" y="104.840874"/>
      </g>
     </g>
     <g id="text_14">
      <!-- 35000 -->
      <g transform="translate(18.7875 108.640093)scale(0.1 -0.1)">
       <use xlink:href="#DejaVuSans-51"/>
       <use x="63.623047" xlink:href="#DejaVuSans-53"/>
       <use x="127.246094" xlink:href="#DejaVuSans-48"/>
       <use x="190.869141" xlink:href="#DejaVuSans-48"/>
       <use x="254.492188" xlink:href="#DejaVuSans-48"/>
      </g>
     </g>
    </g>
    <g id="ytick_8">
     <g id="line2d_15">
      <g>
       <use style="stroke:#000000;stroke-width:0.8;" x="57.6" xlink:href="#mf6a5327e66" y="74.30362"/>
      </g>
     </g>
     <g id="text_15">
      <!-- 40000 -->
      <g transform="translate(18.7875 78.102839)scale(0.1 -0.1)">
       <defs>
        <path d="M 37.796875 64.3125 
L 12.890625 25.390625 
L 37.796875 25.390625 
z
M 35.203125 72.90625 
L 47.609375 72.90625 
L 47.609375 25.390625 
L 58.015625 25.390625 
L 58.015625 17.1875 
L 47.609375 17.1875 
L 47.609375 0 
L 37.796875 0 
L 37.796875 17.1875 
L 4.890625 17.1875 
L 4.890625 26.703125 
z
" id="DejaVuSans-52"/>
       </defs>
       <use xlink:href="#DejaVuSans-52"/>
       <use x="63.623047" xlink:href="#DejaVuSans-48"/>
       <use x="127.246094" xlink:href="#DejaVuSans-48"/>
       <use x="190.869141" xlink:href="#DejaVuSans-48"/>
       <use x="254.492188" xlink:href="#DejaVuSans-48"/>
      </g>
     </g>
    </g>
    <g id="ytick_9">
     <g id="line2d_16">
      <g>
       <use style="stroke:#000000;stroke-width:0.8;" x="57.6" xlink:href="#mf6a5327e66" y="43.766366"/>
      </g>
     </g>
     <g id="text_16">
      <!-- 45000 -->
      <g transform="translate(18.7875 47.565585)scale(0.1 -0.1)">
       <use xlink:href="#DejaVuSans-52"/>
       <use x="63.623047" xlink:href="#DejaVuSans-53"/>
       <use x="127.246094" xlink:href="#DejaVuSans-48"/>
       <use x="190.869141" xlink:href="#DejaVuSans-48"/>
       <use x="254.492188" xlink:href="#DejaVuSans-48"/>
      </g>
     </g>
    </g>
   </g>
   <g id="line2d_17">
    <path clip-path="url(#pdb0b44640f)" d="M 89.68989 261.711048 
L 90.524478 261.518269 
L 93.02824 262.316201 
L 93.862828 262.870788 
L 94.697415 263.012282 
L 95.532003 262.709995 
L 96.36659 261.859183 
L 97.201178 261.518438 
L 98.035765 260.735627 
L 99.70494 260.142132 
L 100.539528 260.062827 
L 101.374115 259.779546 
L 102.208703 259.618754 
L 103.877878 258.323595 
L 105.547053 256.93864 
L 106.381641 256.031423 
L 107.216228 255.590527 
L 108.050816 254.812225 
L 108.885403 254.243218 
L 109.719991 253.984398 
L 110.554578 253.933109 
L 111.389166 254.25544 
L 112.223753 254.420106 
L 113.058341 254.428878 
L 113.892928 254.21644 
L 115.562103 254.315733 
L 118.065866 254.645985 
L 118.900453 255.043707 
L 119.735041 254.824376 
L 120.569628 253.998164 
L 122.238803 253.084895 
L 123.907978 252.681583 
L 124.742566 253.118598 
L 126.411741 254.297101 
L 127.246329 255.218421 
L 128.915504 256.199422 
L 129.750091 256.108527 
L 130.584679 256.747889 
L 131.419266 256.862629 
L 132.253854 257.177144 
L 133.088441 253.277793 
L 133.923029 252.556214 
L 134.757616 252.306516 
L 135.592204 252.508943 
L 136.426791 252.560699 
L 137.261379 252.784136 
L 138.095966 253.299993 
L 140.599729 255.954543 
L 143.103491 260.352126 
L 143.938079 262.457115 
L 145.607254 267.641917 
L 147.276429 270.97624 
L 148.111017 272.779986 
L 148.945604 275.024293 
L 149.780192 274.953554 
L 150.614779 274.410783 
L 152.283954 274.005272 
L 153.118542 274.391828 
L 153.953129 273.944746 
L 154.787717 273.942561 
L 155.622304 273.183152 
L 156.456892 272.660231 
L 157.291479 272.585078 
L 158.126067 272.856867 
L 160.629829 272.663767 
L 161.464417 272.67579 
L 162.299004 272.512382 
L 163.133592 272.530929 
L 163.968179 272.98489 
L 164.802767 273.038994 
L 165.637355 273.287374 
L 166.471942 273.353592 
L 167.30653 273.274213 
L 170.64488 271.587287 
L 171.479467 270.970617 
L 172.314055 270.553908 
L 173.148642 268.247149 
L 175.652405 263.661739 
L 176.486992 262.496815 
L 178.990755 259.765362 
L 179.825342 257.839893 
L 180.65993 256.440119 
L 181.494517 255.61067 
L 182.329105 255.817335 
L 183.163692 256.274496 
L 183.99828 256.588075 
L 184.832867 256.459885 
L 185.667455 256.036685 
L 188.171218 256.635016 
L 189.005805 257.133694 
L 189.840393 256.75416 
L 195.682505 256.66926 
L 196.517093 257.312056 
L 197.35168 257.573469 
L 198.186268 257.69173 
L 199.020855 257.461572 
L 199.855443 257.641799 
L 200.69003 256.843603 
L 201.524618 256.763397 
L 202.359205 256.872805 
L 203.193793 256.615484 
L 204.862968 256.487055 
L 207.366731 256.269099 
L 208.201318 256.009508 
L 209.870493 256.023775 
L 212.374256 257.175424 
L 213.208843 257.30516 
L 216.547193 257.281807 
L 217.381781 258.049001 
L 219.050956 258.01265 
L 219.885543 258.170649 
L 222.389306 258.293751 
L 224.058481 258.87613 
L 224.893068 259.493478 
L 226.562244 259.55217 
L 229.900594 259.893371 
L 230.735181 260.03147 
L 232.404356 260.02659 
L 234.073531 260.087885 
L 235.742706 261.118719 
L 239.915644 261.27074 
L 241.584819 261.267182 
L 242.419406 261.131322 
L 245.757756 259.700241 
L 246.592344 258.902489 
L 247.426932 255.777205 
L 249.096107 252.104648 
L 250.765282 248.955035 
L 251.599869 246.882729 
L 254.103632 244.603895 
L 255.772807 242.651771 
L 257.441982 241.64636 
L 258.276569 241.528827 
L 259.111157 241.28802 
L 260.780332 241.878426 
L 261.614919 242.471933 
L 262.449507 243.345169 
L 263.284094 244.44176 
L 264.118682 244.261683 
L 264.953269 243.747427 
L 265.787857 243.659695 
L 266.622444 243.758102 
L 267.457032 243.683688 
L 268.29162 243.757187 
L 269.126207 244.063739 
L 269.960795 244.248951 
L 270.795382 244.584887 
L 271.62997 244.408113 
L 274.96832 244.309894 
L 276.637495 244.459044 
L 277.472082 244.298318 
L 278.30667 244.306499 
L 279.141257 242.689447 
L 280.810432 241.815336 
L 282.479607 242.315757 
L 283.314195 242.350932 
L 285.817957 243.265355 
L 286.652545 243.730824 
L 287.487133 244.371667 
L 289.990895 245.350974 
L 291.66007 246.257077 
L 293.329245 247.792071 
L 294.163833 249.558983 
L 294.99842 250.550977 
L 295.833008 250.568657 
L 297.502183 250.441233 
L 299.171358 250.299937 
L 300.840533 250.440361 
L 303.344295 250.55134 
L 304.178883 250.671809 
L 305.848058 250.678198 
L 307.517233 251.033925 
L 309.186408 251.127248 
L 310.855583 249.800291 
L 311.690171 248.90777 
L 313.359346 248.029512 
L 314.193933 247.48983 
L 316.697696 246.593824 
L 318.366871 245.234 
L 320.036046 241.202917 
L 322.539808 237.194036 
L 323.374396 236.320887 
L 324.208983 234.843808 
L 325.878158 233.149654 
L 328.381921 230.328229 
L 329.216509 229.878365 
L 330.885684 228.478355 
L 331.720271 226.102914 
L 332.554859 224.280326 
L 333.389446 223.870115 
L 334.224034 222.792661 
L 335.058621 222.136493 
L 335.893209 221.220607 
L 336.727796 219.930508 
L 338.396971 216.603498 
L 339.231559 215.69035 
L 340.066146 215.135247 
L 340.900734 213.637681 
L 342.569909 209.141209 
L 343.404496 207.383078 
L 344.239084 204.687469 
L 345.073671 202.612583 
L 345.908259 201.590438 
L 346.742846 200.744413 
L 348.412022 197.943682 
L 349.246609 197.900058 
L 350.081197 198.420206 
L 351.750372 198.388615 
L 352.584959 197.078902 
L 353.419547 196.93675 
L 355.088722 195.477051 
L 355.923309 195.932902 
L 356.757897 196.616157 
L 357.592484 196.636378 
L 358.427072 196.302629 
L 361.765422 196.563921 
L 362.600009 196.427106 
L 363.434597 196.091065 
L 364.269184 195.954469 
L 365.103772 195.486414 
L 365.938359 192.690555 
L 368.442122 177.777607 
L 369.27671 174.119323 
L 370.111297 171.894306 
L 370.945885 168.531098 
L 372.61506 163.950864 
L 373.449647 160.740438 
L 374.284235 155.565576 
L 378.457172 135.498389 
L 379.29176 132.043423 
L 380.960935 118.790825 
L 381.795522 115.330443 
L 382.63011 108.911714 
L 383.464697 98.863077 
L 385.133872 73.15973 
L 385.96846 63.663071 
L 386.803047 58.782556 
L 387.637635 56.994024 
L 388.472222 57.26536 
L 389.30681 56.273733 
L 390.141398 53.969517 
L 390.975985 53.568 
L 391.810573 54.719653 
L 392.64516 56.279756 
L 394.314335 60.114604 
L 395.148923 62.903213 
L 395.98351 64.619811 
L 396.818098 64.998315 
L 397.652685 64.513761 
L 398.487273 64.648199 
L 398.487273 64.648199 
" style="fill:none;stroke:#1f77b4;stroke-linecap:square;stroke-width:1.5;"/>
   </g>
   <g id="line2d_18">
    <path clip-path="url(#pdb0b44640f)" d="M 89.68989 276.728153 
L 90.524478 275.986755 
L 91.359065 274.705512 
L 93.02824 272.85392 
L 93.862828 271.696903 
L 94.697415 271.037834 
L 95.532003 270.893353 
L 96.36659 270.926536 
L 97.201178 270.370619 
L 98.035765 270.353661 
L 100.539528 268.752313 
L 103.04329 268.699176 
L 104.712466 269.008763 
L 106.381641 268.950422 
L 108.050816 268.509246 
L 108.885403 267.900271 
L 109.719991 267.068811 
L 111.389166 264.780695 
L 112.223753 263.982624 
L 113.058341 263.766905 
L 113.892928 263.432564 
L 114.727516 263.338858 
L 117.231278 262.464146 
L 118.065866 261.925489 
L 118.900453 261.227055 
L 119.735041 261.624348 
L 120.569628 263.029057 
L 123.907978 267.458432 
L 126.411741 268.490375 
L 127.246329 268.351188 
L 128.915504 268.448606 
L 129.750091 269.548323 
L 130.584679 270.266537 
L 131.419266 271.18013 
L 132.253854 271.881995 
L 133.088441 278.687453 
L 134.757616 284.971624 
L 136.426791 289.923518 
L 137.261379 291.788464 
L 138.095966 293.332788 
L 139.765141 294.564472 
L 141.434316 295.488 
L 142.268904 295.441965 
L 143.103491 295.148544 
L 143.938079 294.490442 
L 145.607254 292.333335 
L 147.276429 291.35138 
L 148.111017 290.46719 
L 148.945604 289.160559 
L 149.780192 288.166132 
L 150.614779 288.021575 
L 152.283954 286.594974 
L 153.118542 285.162076 
L 153.953129 284.414251 
L 154.787717 283.344772 
L 155.622304 283.409933 
L 156.456892 283.272196 
L 157.291479 282.934497 
L 158.126067 282.013109 
L 158.960654 281.842816 
L 161.464417 281.800267 
L 162.299004 281.510848 
L 163.133592 281.022711 
L 163.968179 279.734267 
L 165.637355 278.735557 
L 167.30653 278.426182 
L 169.810292 278.342411 
L 172.314055 279.01022 
L 173.148642 280.408339 
L 174.817817 281.211509 
L 175.652405 281.480448 
L 176.486992 281.384456 
L 177.32158 281.080636 
L 178.156167 280.424229 
L 178.990755 280.166599 
L 179.825342 280.285691 
L 180.65993 280.12686 
L 181.494517 279.46679 
L 183.99828 275.248311 
L 185.667455 273.284668 
L 188.171218 269.445244 
L 189.005805 267.761762 
L 189.840393 267.533243 
L 190.67498 267.005342 
L 193.178743 266.502271 
L 195.682505 267.079611 
L 197.35168 266.810907 
L 198.186268 266.788637 
L 199.020855 266.450273 
L 199.855443 265.748901 
L 205.697556 265.556927 
L 207.366731 265.567048 
L 208.201318 265.329243 
L 209.870493 265.057419 
L 210.705081 264.221154 
L 211.539668 263.675207 
L 212.374256 262.810149 
L 213.208843 262.47479 
L 214.878018 262.556231 
L 215.712606 262.781317 
L 216.547193 262.851062 
L 217.381781 262.633446 
L 219.050956 262.61894 
L 220.720131 262.949758 
L 221.554718 263.216547 
L 222.389306 263.612596 
L 223.223893 263.765684 
L 224.058481 263.78662 
L 224.893068 263.619249 
L 225.727656 263.653408 
L 229.066006 264.241924 
L 231.569769 264.174043 
L 234.073531 264.200168 
L 235.742706 263.621921 
L 239.081056 263.480909 
L 241.584819 263.415933 
L 245.757756 263.671449 
L 246.592344 264.102584 
L 247.426932 266.166351 
L 248.261519 267.115859 
L 249.096107 267.789643 
L 250.765282 268.525882 
L 251.599869 269.064669 
L 253.269044 268.366338 
L 255.772807 266.556585 
L 257.441982 264.499929 
L 260.780332 258.842618 
L 262.449507 254.753633 
L 263.284094 252.483877 
L 265.787857 251.383031 
L 266.622444 250.858157 
L 267.457032 250.640272 
L 268.29162 250.721819 
L 269.126207 250.039511 
L 269.960795 249.606318 
L 270.795382 248.921797 
L 271.62997 249.343585 
L 274.96832 250.096817 
L 275.802907 250.092736 
L 276.637495 249.900022 
L 277.472082 249.838595 
L 278.30667 250.045902 
L 279.141257 252.613766 
L 279.975845 253.859179 
L 280.810432 255.374061 
L 281.64502 256.293784 
L 282.479607 257.037017 
L 283.314195 258.009311 
L 284.148782 258.696534 
L 284.98337 259.22178 
L 286.652545 259.874548 
L 287.487133 260.09856 
L 289.156308 260.188386 
L 290.825483 260.054779 
L 291.66007 259.93113 
L 293.329245 259.232028 
L 294.163833 258.375254 
L 294.99842 257.915602 
L 296.667595 257.824162 
L 298.33677 257.299939 
L 299.171358 257.155982 
L 300.840533 256.315629 
L 302.509708 255.844963 
L 303.344295 255.722243 
L 304.178883 255.468368 
L 309.186408 255.421711 
L 310.020996 255.799878 
L 310.855583 255.952925 
L 311.690171 256.245733 
L 312.524758 255.912266 
L 314.193933 256.013624 
L 316.697696 255.671975 
L 318.366871 255.780697 
L 319.201458 256.546471 
L 320.036046 257.023531 
L 321.705221 256.975338 
L 322.539808 256.724134 
L 323.374396 256.099145 
L 324.208983 255.744248 
L 325.878158 254.506966 
L 328.381921 253.09048 
L 330.885684 250.466394 
L 331.720271 250.266279 
L 332.554859 249.522342 
L 333.389446 247.906337 
L 334.224034 246.705636 
L 335.058621 245.252279 
L 335.893209 244.625656 
L 338.396971 243.570278 
L 339.231559 242.624992 
L 340.066146 241.416178 
L 342.569909 240.257493 
L 343.404496 239.419331 
L 344.239084 239.143978 
L 345.073671 238.227701 
L 346.742846 234.464068 
L 347.577434 232.880859 
L 348.412022 232.314451 
L 349.246609 231.373421 
L 350.081197 229.437318 
L 350.915784 228.057726 
L 351.750372 226.363219 
L 352.584959 225.010142 
L 353.419547 223.289792 
L 355.088722 221.066098 
L 355.923309 219.016374 
L 356.757897 216.38211 
L 357.592484 214.724061 
L 358.427072 214.121454 
L 360.096247 213.182634 
L 360.930834 213.378754 
L 361.765422 213.69486 
L 363.434597 213.439877 
L 365.103772 213.510789 
L 365.938359 213.787572 
L 368.442122 218.53888 
L 369.27671 219.848647 
L 370.111297 219.634191 
L 370.945885 220.150363 
L 371.780472 220.015806 
L 372.61506 219.279304 
L 373.449647 219.114223 
L 374.284235 219.97682 
L 375.118822 219.730572 
L 375.95341 218.480651 
L 377.622585 214.996551 
L 379.29176 208.829608 
L 380.126347 207.616322 
L 380.960935 205.710033 
L 381.795522 201.454742 
L 382.63011 200.102567 
L 383.464697 201.604211 
L 384.299285 204.5358 
L 385.133872 206.813785 
L 385.96846 206.025343 
L 386.803047 201.390884 
L 387.637635 195.965977 
L 390.141398 175.118513 
L 390.975985 169.150937 
L 394.314335 141.311331 
L 395.148923 134.531003 
L 395.98351 131.776872 
L 396.818098 130.970191 
L 397.652685 132.021536 
L 398.487273 131.751937 
L 398.487273 131.751937 
" style="fill:none;stroke:#ff7f0e;stroke-linecap:square;stroke-width:1.5;"/>
   </g>
   <g id="line2d_19">
    <path clip-path="url(#pdb0b44640f)" d="M 89.68989 269.2196 
L 92.193653 267.915912 
L 94.697415 267.025058 
L 95.532003 266.801674 
L 100.539528 264.40757 
L 103.04329 263.861982 
L 104.712466 263.318393 
L 107.216228 262.145628 
L 108.885403 261.071745 
L 111.389166 259.518067 
L 112.223753 259.201365 
L 113.058341 259.097892 
L 113.892928 258.824502 
L 115.562103 258.692897 
L 117.231278 258.4911 
L 118.900453 258.135381 
L 119.735041 258.224362 
L 122.238803 259.18152 
L 123.907978 260.070008 
L 128.080916 262.016077 
L 128.915504 262.324014 
L 129.750091 262.828425 
L 130.584679 263.507213 
L 132.253854 264.529569 
L 133.088441 265.982623 
L 133.923029 267.196069 
L 135.592204 269.945042 
L 136.426791 271.242108 
L 138.095966 273.316391 
L 145.607254 279.987626 
L 148.945604 282.092426 
L 149.780192 281.559843 
L 151.449367 280.753352 
L 153.118542 279.776952 
L 154.787717 278.643667 
L 156.456892 277.966214 
L 157.291479 277.759788 
L 158.126067 277.434988 
L 159.795242 277.269847 
L 162.299004 277.011615 
L 163.133592 276.77682 
L 163.968179 276.359579 
L 165.637355 276.011465 
L 167.30653 275.850197 
L 169.810292 275.19723 
L 172.314055 274.782064 
L 173.98323 273.793257 
L 177.32158 271.323971 
L 182.329105 266.957165 
L 184.832867 265.359108 
L 185.667455 264.660676 
L 189.005805 262.447728 
L 190.67498 261.877348 
L 193.178743 261.673412 
L 195.682505 261.874435 
L 196.517093 262.115311 
L 198.186268 262.240183 
L 201.524618 261.207498 
L 202.359205 261.245024 
L 204.02838 261.022609 
L 207.366731 260.918073 
L 208.201318 260.669376 
L 209.870493 260.540597 
L 211.539668 260.174872 
L 213.208843 259.889975 
L 216.547193 260.066435 
L 217.381781 260.341224 
L 219.050956 260.315795 
L 222.389306 260.953173 
L 224.893068 261.556363 
L 226.562244 261.689049 
L 229.066006 261.976206 
L 231.569769 262.088086 
L 234.908119 262.256033 
L 236.577294 262.39038 
L 239.915644 262.355521 
L 242.419406 262.296921 
L 245.757756 261.685845 
L 246.592344 261.502536 
L 250.765282 258.740459 
L 251.599869 257.973699 
L 254.103632 256.195411 
L 259.111157 251.531825 
L 260.780332 250.360522 
L 262.449507 249.049401 
L 263.284094 248.462819 
L 264.118682 248.187493 
L 264.953269 247.777089 
L 266.622444 247.30813 
L 267.457032 247.16198 
L 268.29162 247.239503 
L 270.795382 246.753342 
L 274.133732 247.14057 
L 275.802907 247.260254 
L 277.472082 247.068457 
L 278.30667 247.1762 
L 282.479607 249.676387 
L 284.148782 250.676833 
L 288.32172 252.436492 
L 289.990895 252.755747 
L 293.329245 253.512049 
L 294.163833 253.967118 
L 294.99842 254.233289 
L 296.667595 254.141485 
L 301.67512 253.248166 
L 305.01347 253.067945 
L 306.682645 253.174167 
L 308.351821 253.260433 
L 309.186408 253.274479 
L 310.020996 253.161365 
L 315.028521 251.568282 
L 316.697696 251.1329 
L 318.366871 250.507348 
L 320.870633 248.392639 
L 330.885684 239.472374 
L 332.554859 236.901334 
L 335.893209 232.923131 
L 336.727796 232.090291 
L 339.231559 229.157671 
L 340.900734 227.349174 
L 344.239084 221.915723 
L 347.577434 216.099127 
L 348.412022 215.129066 
L 349.246609 214.636739 
L 351.750372 212.375917 
L 352.584959 211.044522 
L 356.757897 206.499133 
L 357.592484 205.68022 
L 358.427072 205.212041 
L 360.096247 204.813619 
L 361.765422 205.129391 
L 364.269184 204.712435 
L 365.103772 204.498602 
L 365.938359 203.239063 
L 368.442122 198.158244 
L 370.111297 195.764248 
L 370.945885 194.340731 
L 371.780472 193.159747 
L 373.449647 189.927331 
L 375.118822 185.604128 
L 376.787997 180.247395 
L 379.29176 170.436515 
L 383.464697 150.233644 
L 386.803047 130.08672 
L 389.30681 118.951164 
L 390.141398 114.544015 
L 391.810573 108.377363 
L 394.314335 100.712968 
L 395.148923 98.717108 
L 395.98351 98.198341 
L 396.818098 97.984253 
L 397.652685 98.267649 
L 398.487273 98.200068 
L 398.487273 98.200068 
" style="fill:none;stroke:#2ca02c;stroke-linecap:square;stroke-width:1.5;"/>
   </g>
   <g id="line2d_20">
    <path clip-path="url(#pdb0b44640f)" d="M 73.832727 274.685089 
L 74.667315 276.063681 
L 75.501902 273.768557 
L 77.171077 273.713169 
L 78.840252 268.807272 
L 79.67484 269.578009 
L 80.509427 270.907325 
L 81.344015 268.693274 
L 82.178602 269.699644 
L 83.01319 268.744811 
L 83.847778 269.158418 
L 84.682365 264.969113 
L 85.516953 264.98388 
L 86.35154 265.457017 
L 87.186128 264.379874 
L 88.020715 264.31845 
L 88.855303 265.552501 
L 89.68989 265.920426 
L 90.524478 265.34332 
L 91.359065 265.788979 
L 92.193653 267.311254 
L 93.02824 267.084512 
L 93.862828 267.688867 
L 95.532003 264.339586 
L 96.36659 261.401725 
L 97.201178 261.940705 
L 98.035765 260.695576 
L 98.870353 261.69339 
L 99.70494 261.459601 
L 101.374115 261.909229 
L 102.208703 262.627931 
L 103.04329 259.961098 
L 103.877878 259.101363 
L 105.547053 258.250221 
L 106.381641 256.673282 
L 107.216228 258.437434 
L 108.050816 256.09113 
L 108.885403 255.531436 
L 109.719991 256.181707 
L 110.554578 255.478657 
L 111.389166 258.153678 
L 112.223753 258.005551 
L 113.058341 259.332251 
L 113.892928 256.472906 
L 114.727516 259.906583 
L 115.562103 259.850296 
L 116.396691 259.49905 
L 117.231278 259.633011 
L 118.065866 257.801977 
L 118.900453 259.620803 
L 119.735041 261.740727 
L 120.569628 264.886333 
L 121.404216 264.843153 
L 122.238803 265.490433 
L 123.073391 266.432747 
L 123.907978 266.447728 
L 124.742566 264.161994 
L 125.577154 265.107114 
L 126.411741 265.00977 
L 127.246329 263.29998 
L 128.080916 262.779139 
L 128.915504 264.164286 
L 129.750091 269.420468 
L 130.584679 270.048675 
L 131.419266 270.1899 
L 132.253854 270.014102 
L 133.088441 288.560122 
L 133.923029 283.901934 
L 134.757616 286.661992 
L 135.592204 285.740243 
L 136.426791 287.682056 
L 137.261379 285.770165 
L 138.095966 285.444971 
L 138.930554 280.557098 
L 139.765141 280.713278 
L 140.599729 280.718734 
L 141.434316 282.972657 
L 142.268904 279.002529 
L 143.103491 277.364373 
L 143.938079 277.768851 
L 144.772667 277.531971 
L 145.607254 279.688401 
L 146.441842 280.36268 
L 147.276429 282.630143 
L 148.111017 279.385467 
L 148.945604 279.390861 
L 149.780192 277.908454 
L 150.614779 277.028656 
L 151.449367 277.405448 
L 152.283954 276.67566 
L 153.118542 277.218636 
L 153.953129 273.821098 
L 154.787717 274.728336 
L 155.622304 273.614613 
L 156.456892 274.106708 
L 157.291479 276.59021 
L 158.960654 276.351236 
L 159.795242 276.712834 
L 160.629829 276.642236 
L 161.464417 278.022229 
L 162.299004 275.160124 
L 163.133592 275.666784 
L 163.968179 274.285311 
L 164.802767 275.037704 
L 165.637355 276.776354 
L 166.471942 276.685431 
L 167.30653 275.026322 
L 168.141117 272.897885 
L 168.975705 272.814229 
L 169.810292 272.528282 
L 170.64488 271.558139 
L 171.479467 271.071509 
L 172.314055 271.231075 
L 173.148642 265.02031 
L 173.98323 265.90048 
L 174.817817 264.686737 
L 175.652405 263.697886 
L 176.486992 264.103683 
L 177.32158 264.308953 
L 178.990755 262.593493 
L 179.825342 257.603004 
L 180.65993 258.699264 
L 181.494517 260.142519 
L 182.329105 265.145045 
L 183.163692 266.148498 
L 183.99828 264.783814 
L 185.667455 258.845586 
L 186.502043 261.772676 
L 187.33663 261.358282 
L 188.171218 259.616055 
L 189.005805 259.383032 
L 189.840393 258.939769 
L 190.67498 260.57341 
L 191.509568 263.232286 
L 192.344155 262.585657 
L 193.178743 262.591651 
L 194.01333 265.357726 
L 194.847918 264.275574 
L 195.682505 264.718662 
L 197.35168 260.236803 
L 198.186268 261.102425 
L 199.020855 259.459823 
L 199.855443 260.937059 
L 200.69003 256.375622 
L 201.524618 260.36734 
L 203.193793 258.903766 
L 204.02838 259.778901 
L 204.862968 259.505497 
L 205.697556 259.079998 
L 206.532143 258.91388 
L 207.366731 258.922172 
L 208.201318 258.258329 
L 209.035906 261.877992 
L 209.870493 260.723754 
L 210.705081 260.738239 
L 211.539668 261.580544 
L 212.374256 261.076959 
L 213.208843 260.364286 
L 215.712606 261.744926 
L 216.547193 261.447062 
L 217.381781 261.871403 
L 218.216368 259.56347 
L 219.050956 259.891409 
L 219.885543 261.749912 
L 220.720131 262.096953 
L 221.554718 262.621187 
L 222.389306 263.547679 
L 223.223893 262.901162 
L 224.058481 262.498921 
L 224.893068 262.758093 
L 225.727656 262.221998 
L 226.562244 263.033457 
L 227.396831 263.222471 
L 228.231419 262.783525 
L 229.066006 263.1329 
L 229.900594 261.601982 
L 230.735181 262.020041 
L 231.569769 261.053168 
L 232.404356 262.108857 
L 233.238944 261.885237 
L 234.073531 262.188107 
L 234.908119 261.803608 
L 235.742706 262.17715 
L 236.577294 262.151099 
L 238.246469 262.751284 
L 239.915644 262.565278 
L 240.750231 262.340139 
L 241.584819 262.637598 
L 242.419406 261.329257 
L 243.253994 260.384395 
L 244.088581 259.926953 
L 244.923169 260.334432 
L 245.757756 259.305067 
L 246.592344 257.935807 
L 247.426932 251.404874 
L 248.261519 251.847285 
L 249.096107 250.822089 
L 249.930694 250.833402 
L 250.765282 249.106206 
L 251.599869 246.468417 
L 252.434457 251.046339 
L 253.269044 249.9076 
L 254.103632 250.268432 
L 254.938219 246.934505 
L 255.772807 246.685481 
L 256.607394 247.576784 
L 257.441982 246.707961 
L 258.276569 247.20637 
L 259.111157 245.934092 
L 259.945744 248.941985 
L 260.780332 247.943317 
L 261.614919 246.663771 
L 262.449507 246.753297 
L 263.284094 246.204165 
L 264.118682 245.898372 
L 264.953269 243.639188 
L 265.787857 245.707571 
L 266.622444 246.56874 
L 267.457032 246.183221 
L 268.29162 248.018873 
L 269.126207 247.288777 
L 269.960795 247.427786 
L 270.795382 246.782588 
L 271.62997 249.384638 
L 272.464557 248.598607 
L 273.299145 249.336273 
L 274.133732 248.329774 
L 274.96832 248.462073 
L 275.802907 247.072056 
L 276.637495 247.327573 
L 277.472082 245.72179 
L 278.30667 248.818647 
L 279.141257 256.261425 
L 279.975845 254.568148 
L 280.810432 256.396222 
L 282.479607 255.146178 
L 283.314195 256.643436 
L 284.148782 256.117447 
L 284.98337 255.359855 
L 286.652545 254.788189 
L 287.487133 255.431146 
L 288.32172 253.412207 
L 289.156308 252.666037 
L 289.990895 251.653947 
L 290.825483 251.80373 
L 291.66007 251.755237 
L 292.494658 250.877761 
L 293.329245 251.880786 
L 294.163833 254.823172 
L 294.99842 254.142069 
L 295.833008 255.957555 
L 296.667595 253.035919 
L 297.502183 253.253806 
L 299.171358 252.79169 
L 300.005945 253.325741 
L 300.840533 252.435852 
L 301.67512 252.763268 
L 302.509708 253.709896 
L 304.178883 254.097087 
L 305.848058 252.755793 
L 306.682645 253.688635 
L 307.517233 253.432405 
L 308.351821 251.851877 
L 309.186408 251.158699 
L 310.020996 249.618492 
L 310.855583 249.128039 
L 311.690171 248.144934 
L 312.524758 248.687985 
L 313.359346 248.815739 
L 314.193933 248.243073 
L 315.028521 249.391846 
L 315.863108 249.142729 
L 316.697696 248.267053 
L 317.532283 246.863479 
L 318.366871 245.824617 
L 319.201458 240.50332 
L 320.036046 239.279344 
L 320.870633 239.685386 
L 321.705221 238.484257 
L 322.539808 238.969794 
L 323.374396 238.707255 
L 324.208983 235.112645 
L 325.043571 237.407306 
L 325.878158 236.288901 
L 326.712746 235.703082 
L 327.547333 234.297081 
L 328.381921 234.512201 
L 329.216509 235.722573 
L 330.051096 233.174518 
L 330.885684 232.110102 
L 331.720271 223.636286 
L 332.554859 223.477483 
L 333.389446 228.004886 
L 334.224034 224.081935 
L 335.058621 224.729361 
L 335.893209 225.078234 
L 336.727796 222.622534 
L 337.562384 219.103903 
L 338.396971 218.997676 
L 339.231559 220.385453 
L 340.066146 221.068094 
L 340.900734 216.581872 
L 341.735321 210.740061 
L 342.569909 209.959687 
L 343.404496 209.740149 
L 344.239084 204.587462 
L 345.073671 204.600573 
L 345.908259 206.208636 
L 346.742846 206.370423 
L 347.577434 202.007835 
L 348.412022 204.235066 
L 349.246609 213.630944 
L 350.081197 213.845339 
L 350.915784 210.254541 
L 351.750372 207.499865 
L 352.584959 198.450321 
L 353.419547 203.997517 
L 354.254134 201.249051 
L 355.088722 200.018596 
L 355.923309 204.446725 
L 356.757897 201.558003 
L 357.592484 200.203596 
L 358.427072 201.3765 
L 359.261659 206.577147 
L 360.096247 205.15425 
L 360.930834 207.19119 
L 361.765422 208.312268 
L 362.600009 203.646058 
L 363.434597 201.65461 
L 364.269184 200.947109 
L 365.103772 199.958402 
L 365.938359 188.440175 
L 366.772947 179.544542 
L 367.607534 177.340494 
L 368.442122 173.098319 
L 369.27671 174.965151 
L 370.111297 179.602778 
L 370.945885 172.778704 
L 371.780472 176.398913 
L 372.61506 173.553472 
L 373.449647 167.802934 
L 374.284235 157.080947 
L 375.118822 158.035102 
L 375.95341 153.155885 
L 376.787997 151.440846 
L 377.622585 142.35322 
L 378.457172 141.425693 
L 379.29176 139.153013 
L 380.126347 122.111777 
L 380.960935 116.768213 
L 381.795522 122.801673 
L 382.63011 110.731137 
L 384.299285 76.501329 
L 385.133872 68.999739 
L 385.96846 72.114146 
L 386.803047 84.453042 
L 387.637635 100.644318 
L 388.472222 107.799346 
L 389.30681 91.576307 
L 390.141398 79.659951 
L 390.975985 93.39002 
L 391.810573 98.392987 
L 392.64516 99.69741 
L 393.479748 95.127727 
L 394.314335 98.836906 
L 395.148923 101.508508 
L 395.98351 128.777669 
L 396.818098 117.830012 
L 397.652685 122.436129 
L 398.487273 121.450056 
L 398.487273 121.450056 
" style="fill:none;stroke:#d62728;stroke-linecap:square;stroke-width:1.5;"/>
   </g>
   <g id="patch_3">
    <path d="M 57.6 307.584 
L 57.6 41.472 
" style="fill:none;stroke:#000000;stroke-linecap:square;stroke-linejoin:miter;stroke-width:0.8;"/>
   </g>
   <g id="patch_4">
    <path d="M 414.72 307.584 
L 414.72 41.472 
" style="fill:none;stroke:#000000;stroke-linecap:square;stroke-linejoin:miter;stroke-width:0.8;"/>
   </g>
   <g id="patch_5">
    <path d="M 57.6 307.584 
L 414.72 307.584 
" style="fill:none;stroke:#000000;stroke-linecap:square;stroke-linejoin:miter;stroke-width:0.8;"/>
   </g>
   <g id="patch_6">
    <path d="M 57.6 41.472 
L 414.72 41.472 
" style="fill:none;stroke:#000000;stroke-linecap:square;stroke-linejoin:miter;stroke-width:0.8;"/>
   </g>
   <g id="text_17">
    <!-- Data source: nomics -->
    <g transform="translate(184.91625 35.472)scale(0.1 -0.1)">
     <defs>
      <path d="M 19.671875 64.796875 
L 19.671875 8.109375 
L 31.59375 8.109375 
Q 46.6875 8.109375 53.6875 14.9375 
Q 60.6875 21.78125 60.6875 36.53125 
Q 60.6875 51.171875 53.6875 57.984375 
Q 46.6875 64.796875 31.59375 64.796875 
z
M 9.8125 72.90625 
L 30.078125 72.90625 
Q 51.265625 72.90625 61.171875 64.09375 
Q 71.09375 55.28125 71.09375 36.53125 
Q 71.09375 17.671875 61.125 8.828125 
Q 51.171875 0 30.078125 0 
L 9.8125 0 
z
" id="DejaVuSans-68"/>
      <path d="M 34.28125 27.484375 
Q 23.390625 27.484375 19.1875 25 
Q 14.984375 22.515625 14.984375 16.5 
Q 14.984375 11.71875 18.140625 8.90625 
Q 21.296875 6.109375 26.703125 6.109375 
Q 34.1875 6.109375 38.703125 11.40625 
Q 43.21875 16.703125 43.21875 25.484375 
L 43.21875 27.484375 
z
M 52.203125 31.203125 
L 52.203125 0 
L 43.21875 0 
L 43.21875 8.296875 
Q 40.140625 3.328125 35.546875 0.953125 
Q 30.953125 -1.421875 24.3125 -1.421875 
Q 15.921875 -1.421875 10.953125 3.296875 
Q 6 8.015625 6 15.921875 
Q 6 25.140625 12.171875 29.828125 
Q 18.359375 34.515625 30.609375 34.515625 
L 43.21875 34.515625 
L 43.21875 35.40625 
Q 43.21875 41.609375 39.140625 45 
Q 35.0625 48.390625 27.6875 48.390625 
Q 23 48.390625 18.546875 47.265625 
Q 14.109375 46.140625 10.015625 43.890625 
L 10.015625 52.203125 
Q 14.9375 54.109375 19.578125 55.046875 
Q 24.21875 56 28.609375 56 
Q 40.484375 56 46.34375 49.84375 
Q 52.203125 43.703125 52.203125 31.203125 
z
" id="DejaVuSans-97"/>
      <path d="M 18.3125 70.21875 
L 18.3125 54.6875 
L 36.8125 54.6875 
L 36.8125 47.703125 
L 18.3125 47.703125 
L 18.3125 18.015625 
Q 18.3125 11.328125 20.140625 9.421875 
Q 21.96875 7.515625 27.59375 7.515625 
L 36.8125 7.515625 
L 36.8125 0 
L 27.59375 0 
Q 17.1875 0 13.234375 3.875 
Q 9.28125 7.765625 9.28125 18.015625 
L 9.28125 47.703125 
L 2.6875 47.703125 
L 2.6875 54.6875 
L 9.28125 54.6875 
L 9.28125 70.21875 
z
" id="DejaVuSans-116"/>
      <path id="DejaVuSans-32"/>
      <path d="M 44.28125 53.078125 
L 44.28125 44.578125 
Q 40.484375 46.53125 36.375 47.5 
Q 32.28125 48.484375 27.875 48.484375 
Q 21.1875 48.484375 17.84375 46.4375 
Q 14.5 44.390625 14.5 40.28125 
Q 14.5 37.15625 16.890625 35.375 
Q 19.28125 33.59375 26.515625 31.984375 
L 29.59375 31.296875 
Q 39.15625 29.25 43.1875 25.515625 
Q 47.21875 21.78125 47.21875 15.09375 
Q 47.21875 7.46875 41.1875 3.015625 
Q 35.15625 -1.421875 24.609375 -1.421875 
Q 20.21875 -1.421875 15.453125 -0.5625 
Q 10.6875 0.296875 5.421875 2 
L 5.421875 11.28125 
Q 10.40625 8.6875 15.234375 7.390625 
Q 20.0625 6.109375 24.8125 6.109375 
Q 31.15625 6.109375 34.5625 8.28125 
Q 37.984375 10.453125 37.984375 14.40625 
Q 37.984375 18.0625 35.515625 20.015625 
Q 33.0625 21.96875 24.703125 23.78125 
L 21.578125 24.515625 
Q 13.234375 26.265625 9.515625 29.90625 
Q 5.8125 33.546875 5.8125 39.890625 
Q 5.8125 47.609375 11.28125 51.796875 
Q 16.75 56 26.8125 56 
Q 31.78125 56 36.171875 55.265625 
Q 40.578125 54.546875 44.28125 53.078125 
z
" id="DejaVuSans-115"/>
      <path d="M 30.609375 48.390625 
Q 23.390625 48.390625 19.1875 42.75 
Q 14.984375 37.109375 14.984375 27.296875 
Q 14.984375 17.484375 19.15625 11.84375 
Q 23.34375 6.203125 30.609375 6.203125 
Q 37.796875 6.203125 41.984375 11.859375 
Q 46.1875 17.53125 46.1875 27.296875 
Q 46.1875 37.015625 41.984375 42.703125 
Q 37.796875 48.390625 30.609375 48.390625 
z
M 30.609375 56 
Q 42.328125 56 49.015625 48.375 
Q 55.71875 40.765625 55.71875 27.296875 
Q 55.71875 13.875 49.015625 6.21875 
Q 42.328125 -1.421875 30.609375 -1.421875 
Q 18.84375 -1.421875 12.171875 6.21875 
Q 5.515625 13.875 5.515625 27.296875 
Q 5.515625 40.765625 12.171875 48.375 
Q 18.84375 56 30.609375 56 
z
" id="DejaVuSans-111"/>
      <path d="M 8.5 21.578125 
L 8.5 54.6875 
L 17.484375 54.6875 
L 17.484375 21.921875 
Q 17.484375 14.15625 20.5 10.265625 
Q 23.53125 6.390625 29.59375 6.390625 
Q 36.859375 6.390625 41.078125 11.03125 
Q 45.3125 15.671875 45.3125 23.6875 
L 45.3125 54.6875 
L 54.296875 54.6875 
L 54.296875 0 
L 45.3125 0 
L 45.3125 8.40625 
Q 42.046875 3.421875 37.71875 1 
Q 33.40625 -1.421875 27.6875 -1.421875 
Q 18.265625 -1.421875 13.375 4.4375 
Q 8.5 10.296875 8.5 21.578125 
z
M 31.109375 56 
z
" id="DejaVuSans-117"/>
      <path d="M 41.109375 46.296875 
Q 39.59375 47.171875 37.8125 47.578125 
Q 36.03125 48 33.890625 48 
Q 26.265625 48 22.1875 43.046875 
Q 18.109375 38.09375 18.109375 28.8125 
L 18.109375 0 
L 9.078125 0 
L 9.078125 54.6875 
L 18.109375 54.6875 
L 18.109375 46.1875 
Q 20.953125 51.171875 25.484375 53.578125 
Q 30.03125 56 36.53125 56 
Q 37.453125 56 38.578125 55.875 
Q 39.703125 55.765625 41.0625 55.515625 
z
" id="DejaVuSans-114"/>
      <path d="M 48.78125 52.59375 
L 48.78125 44.1875 
Q 44.96875 46.296875 41.140625 47.34375 
Q 37.3125 48.390625 33.40625 48.390625 
Q 24.65625 48.390625 19.8125 42.84375 
Q 14.984375 37.3125 14.984375 27.296875 
Q 14.984375 17.28125 19.8125 11.734375 
Q 24.65625 6.203125 33.40625 6.203125 
Q 37.3125 6.203125 41.140625 7.25 
Q 44.96875 8.296875 48.78125 10.40625 
L 48.78125 2.09375 
Q 45.015625 0.34375 40.984375 -0.53125 
Q 36.96875 -1.421875 32.421875 -1.421875 
Q 20.0625 -1.421875 12.78125 6.34375 
Q 5.515625 14.109375 5.515625 27.296875 
Q 5.515625 40.671875 12.859375 48.328125 
Q 20.21875 56 33.015625 56 
Q 37.15625 56 41.109375 55.140625 
Q 45.0625 54.296875 48.78125 52.59375 
z
" id="DejaVuSans-99"/>
      <path d="M 56.203125 29.59375 
L 56.203125 25.203125 
L 14.890625 25.203125 
Q 15.484375 15.921875 20.484375 11.0625 
Q 25.484375 6.203125 34.421875 6.203125 
Q 39.59375 6.203125 44.453125 7.46875 
Q 49.3125 8.734375 54.109375 11.28125 
L 54.109375 2.78125 
Q 49.265625 0.734375 44.1875 -0.34375 
Q 39.109375 -1.421875 33.890625 -1.421875 
Q 20.796875 -1.421875 13.15625 6.1875 
Q 5.515625 13.8125 5.515625 26.8125 
Q 5.515625 40.234375 12.765625 48.109375 
Q 20.015625 56 32.328125 56 
Q 43.359375 56 49.78125 48.890625 
Q 56.203125 41.796875 56.203125 29.59375 
z
M 47.21875 32.234375 
Q 47.125 39.59375 43.09375 43.984375 
Q 39.0625 48.390625 32.421875 48.390625 
Q 24.90625 48.390625 20.390625 44.140625 
Q 15.875 39.890625 15.1875 32.171875 
z
" id="DejaVuSans-101"/>
      <path d="M 11.71875 12.40625 
L 22.015625 12.40625 
L 22.015625 0 
L 11.71875 0 
z
M 11.71875 51.703125 
L 22.015625 51.703125 
L 22.015625 39.3125 
L 11.71875 39.3125 
z
" id="DejaVuSans-58"/>
      <path d="M 54.890625 33.015625 
L 54.890625 0 
L 45.90625 0 
L 45.90625 32.71875 
Q 45.90625 40.484375 42.875 44.328125 
Q 39.84375 48.1875 33.796875 48.1875 
Q 26.515625 48.1875 22.3125 43.546875 
Q 18.109375 38.921875 18.109375 30.90625 
L 18.109375 0 
L 9.078125 0 
L 9.078125 54.6875 
L 18.109375 54.6875 
L 18.109375 46.1875 
Q 21.34375 51.125 25.703125 53.5625 
Q 30.078125 56 35.796875 56 
Q 45.21875 56 50.046875 50.171875 
Q 54.890625 44.34375 54.890625 33.015625 
z
" id="DejaVuSans-110"/>
      <path d="M 52 44.1875 
Q 55.375 50.25 60.0625 53.125 
Q 64.75 56 71.09375 56 
Q 79.640625 56 84.28125 50.015625 
Q 88.921875 44.046875 88.921875 33.015625 
L 88.921875 0 
L 79.890625 0 
L 79.890625 32.71875 
Q 79.890625 40.578125 77.09375 44.375 
Q 74.3125 48.1875 68.609375 48.1875 
Q 61.625 48.1875 57.5625 43.546875 
Q 53.515625 38.921875 53.515625 30.90625 
L 53.515625 0 
L 44.484375 0 
L 44.484375 32.71875 
Q 44.484375 40.625 41.703125 44.40625 
Q 38.921875 48.1875 33.109375 48.1875 
Q 26.21875 48.1875 22.15625 43.53125 
Q 18.109375 38.875 18.109375 30.90625 
L 18.109375 0 
L 9.078125 0 
L 9.078125 54.6875 
L 18.109375 54.6875 
L 18.109375 46.1875 
Q 21.1875 51.21875 25.484375 53.609375 
Q 29.78125 56 35.6875 56 
Q 41.65625 56 45.828125 52.96875 
Q 50 49.953125 52 44.1875 
z
" id="DejaVuSans-109"/>
      <path d="M 9.421875 54.6875 
L 18.40625 54.6875 
L 18.40625 0 
L 9.421875 0 
z
M 9.421875 75.984375 
L 18.40625 75.984375 
L 18.40625 64.59375 
L 9.421875 64.59375 
z
" id="DejaVuSans-105"/>
     </defs>
     <use xlink:href="#DejaVuSans-68"/>
     <use x="77.001953" xlink:href="#DejaVuSans-97"/>
     <use x="138.28125" xlink:href="#DejaVuSans-116"/>
     <use x="177.490234" xlink:href="#DejaVuSans-97"/>
     <use x="238.769531" xlink:href="#DejaVuSans-32"/>
     <use x="270.556641" xlink:href="#DejaVuSans-115"/>
     <use x="322.65625" xlink:href="#DejaVuSans-111"/>
     <use x="383.837891" xlink:href="#DejaVuSans-117"/>
     <use x="447.216797" xlink:href="#DejaVuSans-114"/>
     <use x="486.080078" xlink:href="#DejaVuSans-99"/>
     <use x="541.060547" xlink:href="#DejaVuSans-101"/>
     <use x="602.583984" xlink:href="#DejaVuSans-58"/>
     <use x="636.275391" xlink:href="#DejaVuSans-32"/>
     <use x="668.0625" xlink:href="#DejaVuSans-110"/>
     <use x="731.441406" xlink:href="#DejaVuSans-111"/>
     <use x="792.623047" xlink:href="#DejaVuSans-109"/>
     <use x="890.035156" xlink:href="#DejaVuSans-105"/>
     <use x="917.818359" xlink:href="#DejaVuSans-99"/>
     <use x="972.798828" xlink:href="#DejaVuSans-115"/>
    </g>
   </g>
   <g id="legend_1">
    <g id="patch_7">
     <path d="M 64.6 108.1845 
L 155.732812 108.1845 
Q 157.732812 108.1845 157.732812 106.1845 
L 157.732812 48.472 
Q 157.732812 46.472 155.732812 46.472 
L 64.6 46.472 
Q 62.6 46.472 62.6 48.472 
L 62.6 106.1845 
Q 62.6 108.1845 64.6 108.1845 
z
" style="fill:#ffffff;opacity:0.8;stroke:#cccccc;stroke-linejoin:miter;"/>
    </g>
    <g id="line2d_21">
     <path d="M 66.6 54.570438 
L 86.6 54.570438 
" style="fill:none;stroke:#1f77b4;stroke-linecap:square;stroke-width:1.5;"/>
    </g>
    <g id="line2d_22"/>
    <g id="text_18">
     <!-- Upper Band -->
     <g transform="translate(94.6 58.070438)scale(0.1 -0.1)">
      <defs>
       <path d="M 8.6875 72.90625 
L 18.609375 72.90625 
L 18.609375 28.609375 
Q 18.609375 16.890625 22.84375 11.734375 
Q 27.09375 6.59375 36.625 6.59375 
Q 46.09375 6.59375 50.34375 11.734375 
Q 54.59375 16.890625 54.59375 28.609375 
L 54.59375 72.90625 
L 64.5 72.90625 
L 64.5 27.390625 
Q 64.5 13.140625 57.4375 5.859375 
Q 50.390625 -1.421875 36.625 -1.421875 
Q 22.796875 -1.421875 15.734375 5.859375 
Q 8.6875 13.140625 8.6875 27.390625 
z
" id="DejaVuSans-85"/>
       <path d="M 18.109375 8.203125 
L 18.109375 -20.796875 
L 9.078125 -20.796875 
L 9.078125 54.6875 
L 18.109375 54.6875 
L 18.109375 46.390625 
Q 20.953125 51.265625 25.265625 53.625 
Q 29.59375 56 35.59375 56 
Q 45.5625 56 51.78125 48.09375 
Q 58.015625 40.1875 58.015625 27.296875 
Q 58.015625 14.40625 51.78125 6.484375 
Q 45.5625 -1.421875 35.59375 -1.421875 
Q 29.59375 -1.421875 25.265625 0.953125 
Q 20.953125 3.328125 18.109375 8.203125 
z
M 48.6875 27.296875 
Q 48.6875 37.203125 44.609375 42.84375 
Q 40.53125 48.484375 33.40625 48.484375 
Q 26.265625 48.484375 22.1875 42.84375 
Q 18.109375 37.203125 18.109375 27.296875 
Q 18.109375 17.390625 22.1875 11.75 
Q 26.265625 6.109375 33.40625 6.109375 
Q 40.53125 6.109375 44.609375 11.75 
Q 48.6875 17.390625 48.6875 27.296875 
z
" id="DejaVuSans-112"/>
       <path d="M 19.671875 34.8125 
L 19.671875 8.109375 
L 35.5 8.109375 
Q 43.453125 8.109375 47.28125 11.40625 
Q 51.125 14.703125 51.125 21.484375 
Q 51.125 28.328125 47.28125 31.5625 
Q 43.453125 34.8125 35.5 34.8125 
z
M 19.671875 64.796875 
L 19.671875 42.828125 
L 34.28125 42.828125 
Q 41.5 42.828125 45.03125 45.53125 
Q 48.578125 48.25 48.578125 53.8125 
Q 48.578125 59.328125 45.03125 62.0625 
Q 41.5 64.796875 34.28125 64.796875 
z
M 9.8125 72.90625 
L 35.015625 72.90625 
Q 46.296875 72.90625 52.390625 68.21875 
Q 58.5 63.53125 58.5 54.890625 
Q 58.5 48.1875 55.375 44.234375 
Q 52.25 40.28125 46.1875 39.3125 
Q 53.46875 37.75 57.5 32.78125 
Q 61.53125 27.828125 61.53125 20.40625 
Q 61.53125 10.640625 54.890625 5.3125 
Q 48.25 0 35.984375 0 
L 9.8125 0 
z
" id="DejaVuSans-66"/>
       <path d="M 45.40625 46.390625 
L 45.40625 75.984375 
L 54.390625 75.984375 
L 54.390625 0 
L 45.40625 0 
L 45.40625 8.203125 
Q 42.578125 3.328125 38.25 0.953125 
Q 33.9375 -1.421875 27.875 -1.421875 
Q 17.96875 -1.421875 11.734375 6.484375 
Q 5.515625 14.40625 5.515625 27.296875 
Q 5.515625 40.1875 11.734375 48.09375 
Q 17.96875 56 27.875 56 
Q 33.9375 56 38.25 53.625 
Q 42.578125 51.265625 45.40625 46.390625 
z
M 14.796875 27.296875 
Q 14.796875 17.390625 18.875 11.75 
Q 22.953125 6.109375 30.078125 6.109375 
Q 37.203125 6.109375 41.296875 11.75 
Q 45.40625 17.390625 45.40625 27.296875 
Q 45.40625 37.203125 41.296875 42.84375 
Q 37.203125 48.484375 30.078125 48.484375 
Q 22.953125 48.484375 18.875 42.84375 
Q 14.796875 37.203125 14.796875 27.296875 
z
" id="DejaVuSans-100"/>
      </defs>
      <use xlink:href="#DejaVuSans-85"/>
      <use x="73.193359" xlink:href="#DejaVuSans-112"/>
      <use x="136.669922" xlink:href="#DejaVuSans-112"/>
      <use x="200.146484" xlink:href="#DejaVuSans-101"/>
      <use x="261.669922" xlink:href="#DejaVuSans-114"/>
      <use x="302.783203" xlink:href="#DejaVuSans-32"/>
      <use x="334.570312" xlink:href="#DejaVuSans-66"/>
      <use x="403.173828" xlink:href="#DejaVuSans-97"/>
      <use x="464.453125" xlink:href="#DejaVuSans-110"/>
      <use x="527.832031" xlink:href="#DejaVuSans-100"/>
     </g>
    </g>
    <g id="line2d_23">
     <path d="M 66.6 69.248563 
L 86.6 69.248563 
" style="fill:none;stroke:#ff7f0e;stroke-linecap:square;stroke-width:1.5;"/>
    </g>
    <g id="line2d_24"/>
    <g id="text_19">
     <!-- Lower Band -->
     <g transform="translate(94.6 72.748563)scale(0.1 -0.1)">
      <defs>
       <path d="M 9.8125 72.90625 
L 19.671875 72.90625 
L 19.671875 8.296875 
L 55.171875 8.296875 
L 55.171875 0 
L 9.8125 0 
z
" id="DejaVuSans-76"/>
       <path d="M 4.203125 54.6875 
L 13.1875 54.6875 
L 24.421875 12.015625 
L 35.59375 54.6875 
L 46.1875 54.6875 
L 57.421875 12.015625 
L 68.609375 54.6875 
L 77.59375 54.6875 
L 63.28125 0 
L 52.6875 0 
L 40.921875 44.828125 
L 29.109375 0 
L 18.5 0 
z
" id="DejaVuSans-119"/>
      </defs>
      <use xlink:href="#DejaVuSans-76"/>
      <use x="53.962891" xlink:href="#DejaVuSans-111"/>
      <use x="115.144531" xlink:href="#DejaVuSans-119"/>
      <use x="196.931641" xlink:href="#DejaVuSans-101"/>
      <use x="258.455078" xlink:href="#DejaVuSans-114"/>
      <use x="299.568359" xlink:href="#DejaVuSans-32"/>
      <use x="331.355469" xlink:href="#DejaVuSans-66"/>
      <use x="399.958984" xlink:href="#DejaVuSans-97"/>
      <use x="461.238281" xlink:href="#DejaVuSans-110"/>
      <use x="524.617188" xlink:href="#DejaVuSans-100"/>
     </g>
    </g>
    <g id="line2d_25">
     <path d="M 66.6 83.926688 
L 86.6 83.926688 
" style="fill:none;stroke:#2ca02c;stroke-linecap:square;stroke-width:1.5;"/>
    </g>
    <g id="line2d_26"/>
    <g id="text_20">
     <!-- MA -->
     <g transform="translate(94.6 87.426688)scale(0.1 -0.1)">
      <defs>
       <path d="M 9.8125 72.90625 
L 24.515625 72.90625 
L 43.109375 23.296875 
L 61.8125 72.90625 
L 76.515625 72.90625 
L 76.515625 0 
L 66.890625 0 
L 66.890625 64.015625 
L 48.09375 14.015625 
L 38.1875 14.015625 
L 19.390625 64.015625 
L 19.390625 0 
L 9.8125 0 
z
" id="DejaVuSans-77"/>
       <path d="M 34.1875 63.1875 
L 20.796875 26.90625 
L 47.609375 26.90625 
z
M 28.609375 72.90625 
L 39.796875 72.90625 
L 67.578125 0 
L 57.328125 0 
L 50.6875 18.703125 
L 17.828125 18.703125 
L 11.1875 0 
L 0.78125 0 
z
" id="DejaVuSans-65"/>
      </defs>
      <use xlink:href="#DejaVuSans-77"/>
      <use x="86.279297" xlink:href="#DejaVuSans-65"/>
     </g>
    </g>
    <g id="line2d_27">
     <path d="M 66.6 98.604813 
L 86.6 98.604813 
" style="fill:none;stroke:#d62728;stroke-linecap:square;stroke-width:1.5;"/>
    </g>
    <g id="line2d_28"/>
    <g id="text_21">
     <!-- BTC-USD -->
     <g transform="translate(94.6 102.104813)scale(0.1 -0.1)">
      <defs>
       <path d="M -0.296875 72.90625 
L 61.375 72.90625 
L 61.375 64.59375 
L 35.5 64.59375 
L 35.5 0 
L 25.59375 0 
L 25.59375 64.59375 
L -0.296875 64.59375 
z
" id="DejaVuSans-84"/>
       <path d="M 64.40625 67.28125 
L 64.40625 56.890625 
Q 59.421875 61.53125 53.78125 63.8125 
Q 48.140625 66.109375 41.796875 66.109375 
Q 29.296875 66.109375 22.65625 58.46875 
Q 16.015625 50.828125 16.015625 36.375 
Q 16.015625 21.96875 22.65625 14.328125 
Q 29.296875 6.6875 41.796875 6.6875 
Q 48.140625 6.6875 53.78125 8.984375 
Q 59.421875 11.28125 64.40625 15.921875 
L 64.40625 5.609375 
Q 59.234375 2.09375 53.4375 0.328125 
Q 47.65625 -1.421875 41.21875 -1.421875 
Q 24.65625 -1.421875 15.125 8.703125 
Q 5.609375 18.84375 5.609375 36.375 
Q 5.609375 53.953125 15.125 64.078125 
Q 24.65625 74.21875 41.21875 74.21875 
Q 47.75 74.21875 53.53125 72.484375 
Q 59.328125 70.75 64.40625 67.28125 
z
" id="DejaVuSans-67"/>
       <path d="M 53.515625 70.515625 
L 53.515625 60.890625 
Q 47.90625 63.578125 42.921875 64.890625 
Q 37.9375 66.21875 33.296875 66.21875 
Q 25.25 66.21875 20.875 63.09375 
Q 16.5 59.96875 16.5 54.203125 
Q 16.5 49.359375 19.40625 46.890625 
Q 22.3125 44.4375 30.421875 42.921875 
L 36.375 41.703125 
Q 47.40625 39.59375 52.65625 34.296875 
Q 57.90625 29 57.90625 20.125 
Q 57.90625 9.515625 50.796875 4.046875 
Q 43.703125 -1.421875 29.984375 -1.421875 
Q 24.8125 -1.421875 18.96875 -0.25 
Q 13.140625 0.921875 6.890625 3.21875 
L 6.890625 13.375 
Q 12.890625 10.015625 18.65625 8.296875 
Q 24.421875 6.59375 29.984375 6.59375 
Q 38.421875 6.59375 43.015625 9.90625 
Q 47.609375 13.234375 47.609375 19.390625 
Q 47.609375 24.75 44.3125 27.78125 
Q 41.015625 30.8125 33.5 32.328125 
L 27.484375 33.5 
Q 16.453125 35.6875 11.515625 40.375 
Q 6.59375 45.0625 6.59375 53.421875 
Q 6.59375 63.09375 13.40625 68.65625 
Q 20.21875 74.21875 32.171875 74.21875 
Q 37.3125 74.21875 42.625 73.28125 
Q 47.953125 72.359375 53.515625 70.515625 
z
" id="DejaVuSans-83"/>
      </defs>
      <use xlink:href="#DejaVuSans-66"/>
      <use x="68.603516" xlink:href="#DejaVuSans-84"/>
      <use x="123.8125" xlink:href="#DejaVuSans-67"/>
      <use x="193.636719" xlink:href="#DejaVuSans-45"/>
      <use x="229.720703" xlink:href="#DejaVuSans-85"/>
      <use x="302.914062" xlink:href="#DejaVuSans-83"/>
      <use x="366.390625" xlink:href="#DejaVuSans-68"/>
     </g>
    </g>
   </g>
  </g>
  <g id="text_22">
   <!-- Bollinger Band -->
   <g transform="translate(171.90625 19.0695)scale(0.16 -0.16)">
    <defs>
     <path d="M 9.421875 75.984375 
L 18.40625 75.984375 
L 18.40625 0 
L 9.421875 0 
z
" id="DejaVuSans-108"/>
     <path d="M 45.40625 27.984375 
Q 45.40625 37.75 41.375 43.109375 
Q 37.359375 48.484375 30.078125 48.484375 
Q 22.859375 48.484375 18.828125 43.109375 
Q 14.796875 37.75 14.796875 27.984375 
Q 14.796875 18.265625 18.828125 12.890625 
Q 22.859375 7.515625 30.078125 7.515625 
Q 37.359375 7.515625 41.375 12.890625 
Q 45.40625 18.265625 45.40625 27.984375 
z
M 54.390625 6.78125 
Q 54.390625 -7.171875 48.1875 -13.984375 
Q 42 -20.796875 29.203125 -20.796875 
Q 24.46875 -20.796875 20.265625 -20.09375 
Q 16.0625 -19.390625 12.109375 -17.921875 
L 12.109375 -9.1875 
Q 16.0625 -11.328125 19.921875 -12.34375 
Q 23.78125 -13.375 27.78125 -13.375 
Q 36.625 -13.375 41.015625 -8.765625 
Q 45.40625 -4.15625 45.40625 5.171875 
L 45.40625 9.625 
Q 42.625 4.78125 38.28125 2.390625 
Q 33.9375 0 27.875 0 
Q 17.828125 0 11.671875 7.65625 
Q 5.515625 15.328125 5.515625 27.984375 
Q 5.515625 40.671875 11.671875 48.328125 
Q 17.828125 56 27.875 56 
Q 33.9375 56 38.28125 53.609375 
Q 42.625 51.21875 45.40625 46.390625 
L 45.40625 54.6875 
L 54.390625 54.6875 
z
" id="DejaVuSans-103"/>
    </defs>
    <use xlink:href="#DejaVuSans-66"/>
    <use x="68.603516" xlink:href="#DejaVuSans-111"/>
    <use x="129.785156" xlink:href="#DejaVuSans-108"/>
    <use x="157.568359" xlink:href="#DejaVuSans-108"/>
    <use x="185.351562" xlink:href="#DejaVuSans-105"/>
    <use x="213.134766" xlink:href="#DejaVuSans-110"/>
    <use x="276.513672" xlink:href="#DejaVuSans-103"/>
    <use x="339.990234" xlink:href="#DejaVuSans-101"/>
    <use x="401.513672" xlink:href="#DejaVuSans-114"/>
    <use x="442.626953" xlink:href="#DejaVuSans-32"/>
    <use x="474.414062" xlink:href="#DejaVuSans-66"/>
    <use x="543.017578" xlink:href="#DejaVuSans-97"/>
    <use x="604.296875" xlink:href="#DejaVuSans-110"/>
    <use x="667.675781" xlink:href="#DejaVuSans-100"/>
   </g>
  </g>
 </g>
 <defs>
  <clipPath id="pdb0b44640f">
   <rect height="266.112" width="357.12" x="57.6" y="41.472"/>
  </clipPath>
 </defs>
</svg>
