<?xml version="1.0" encoding="utf-8" standalone="no"?>
<!DOCTYPE svg PUBLIC "-//W3C//DTD SVG 1.1//EN"
  "http://www.w3.org/Graphics/SVG/1.1/DTD/svg11.dtd">
<!-- Created with matplotlib (https://matplotlib.org/) -->
<svg height="345.6pt" version="1.1" viewBox="0 0 460.8 345.6" width="460.8pt" xmlns="http://www.w3.org/2000/svg" xmlns:xlink="http://www.w3.org/1999/xlink">
 <metadata>
  <rdf:RDF xmlns:cc="http://creativecommons.org/ns#" xmlns:dc="http://purl.org/dc/elements/1.1/" xmlns:rdf="http://www.w3.org/1999/02/22-rdf-syntax-ns#">
   <cc:Work>
    <dc:type rdf:resource="http://purl.org/dc/dcmitype/StillImage"/>
    <dc:date>2021-03-03T19:00:19.064581</dc:date>
    <dc:format>image/svg+xml</dc:format>
    <dc:creator>
     <cc:Agent>
      <dc:title>Matplotlib v3.3.2, https://matplotlib.org/</dc:title>
     </cc:Agent>
    </dc:creator>
   </cc:Work>
  </rdf:RDF>
 </metadata>
 <defs>
  <style type="text/css">*{stroke-linecap:butt;stroke-linejoin:round;}</style>
 </defs>
 <g id="figure_1">
  <g id="patch_1">
   <path d="M 0 345.6 
L 460.8 345.6 
L 460.8 0 
L 0 0 
z
" style="fill:#ffffff;"/>
  </g>
  <g id="axes_1">
   <g id="patch_2">
    <path d="M 57.6 307.584 
L 414.72 307.584 
L 414.72 41.472 
L 57.6 41.472 
z
" style="fill:#ffffff;"/>
   </g>
   <g id="PolyCollection_1">
    <defs>
     <path d="M 88.278714 -63.516073 
L 88.278714 -74.200206 
L 89.039029 -74.328606 
L 89.799344 -74.142487 
L 90.559659 -73.981958 
L 91.319974 -73.745085 
L 92.08029 -73.350584 
L 92.840605 -73.254141 
L 93.60092 -73.469827 
L 94.361235 -74.088806 
L 95.12155 -74.327149 
L 95.881865 -74.894992 
L 96.64218 -75.101425 
L 97.402495 -75.343159 
L 98.16281 -75.402171 
L 98.923125 -75.59485 
L 99.68344 -75.704711 
L 100.443756 -76.117706 
L 101.204071 -76.602045 
L 101.964386 -77.080661 
L 102.724701 -77.567356 
L 103.485016 -78.210794 
L 104.245331 -78.511016 
L 105.005646 -79.075082 
L 105.765961 -79.470624 
L 106.526276 -79.640132 
L 107.286591 -79.668537 
L 108.046907 -79.429915 
L 108.807222 -79.308419 
L 109.567537 -79.30235 
L 110.327852 -79.450292 
L 111.088167 -79.442619 
L 111.848482 -79.390573 
L 112.608797 -79.344885 
L 113.369112 -79.263769 
L 114.129427 -79.180444 
L 114.889742 -78.910193 
L 115.650057 -79.063953 
L 116.410373 -79.64603 
L 117.170688 -79.991797 
L 117.931003 -80.260342 
L 118.691318 -80.393264 
L 119.451633 -80.546566 
L 120.211948 -80.220456 
L 120.972263 -79.793824 
L 121.732578 -79.378398 
L 122.492893 -78.7142 
L 123.253208 -78.401426 
L 124.013524 -78.028434 
L 124.773839 -78.1003 
L 125.534154 -77.648567 
L 126.294469 -77.6008 
L 127.054784 -77.394659 
L 127.815099 -80.116687 
L 128.575414 -80.658205 
L 129.335729 -80.847067 
L 130.096044 -80.699519 
L 130.856359 -80.657816 
L 131.616674 -80.508475 
L 132.37699 -80.131811 
L 133.137305 -79.512843 
L 133.89762 -78.913399 
L 134.657935 -78.236186 
L 135.41825 -77.211333 
L 136.178565 -76.188294 
L 136.93888 -75.116961 
L 137.699195 -73.612783 
L 138.45951 -71.797808 
L 139.219825 -70.025017 
L 139.980141 -68.90672 
L 140.740456 -67.696282 
L 141.500771 -66.550965 
L 142.261086 -65.053218 
L 143.021401 -65.111905 
L 143.781716 -65.488808 
L 144.542031 -65.561777 
L 145.302346 -65.719102 
L 146.062661 -65.431077 
L 146.822976 -65.641017 
L 147.583291 -65.77403 
L 148.343607 -66.22662 
L 149.103922 -66.584967 
L 149.864237 -66.62801 
L 150.624552 -66.345604 
L 151.384867 -66.510185 
L 152.145182 -66.509558 
L 152.905497 -66.546834 
L 153.665812 -66.548553 
L 154.426127 -66.648917 
L 155.186442 -66.623235 
L 155.946758 -66.218846 
L 156.707073 -66.258627 
L 157.467388 -66.099092 
L 158.227703 -66.051708 
L 158.988018 -66.101023 
L 159.748333 -66.453364 
L 160.508648 -66.719002 
L 161.268963 -67.005028 
L 162.029278 -67.226005 
L 162.789593 -67.468135 
L 163.549908 -67.74778 
L 164.310224 -68.647215 
L 165.070539 -70.020284 
L 165.830854 -71.108874 
L 166.591169 -72.171218 
L 167.351484 -72.924323 
L 168.111799 -73.557827 
L 168.872114 -74.09649 
L 169.632429 -74.933731 
L 170.392744 -75.746606 
L 171.153059 -77.057746 
L 171.913374 -77.880789 
L 172.67369 -77.702252 
L 173.434005 -77.516418 
L 174.19432 -77.314241 
L 174.954635 -77.385594 
L 175.71495 -77.633997 
L 176.475265 -77.750901 
L 177.23558 -77.681295 
L 177.995895 -77.705522 
L 178.75621 -77.436433 
L 179.516525 -77.555314 
L 180.276841 -77.798565 
L 181.037156 -77.793246 
L 181.797471 -77.776906 
L 182.557786 -77.734335 
L 183.318101 -77.673909 
L 184.078416 -77.716763 
L 184.838731 -77.745499 
L 185.599046 -77.723484 
L 186.359361 -77.281826 
L 187.119676 -77.101858 
L 187.879991 -76.984388 
L 188.640307 -77.029572 
L 189.400622 -76.967486 
L 190.160937 -77.511371 
L 190.921252 -77.516517 
L 191.681567 -77.518606 
L 192.441882 -77.703762 
L 193.202197 -77.648026 
L 193.962512 -77.641082 
L 194.722827 -77.603252 
L 195.483142 -77.541819 
L 196.243458 -77.675819 
L 197.003773 -77.827683 
L 197.764088 -77.830911 
L 198.524403 -77.824422 
L 199.284718 -77.568698 
L 200.045033 -77.390474 
L 200.805348 -77.129648 
L 201.565663 -77.046264 
L 202.325978 -77.046388 
L 203.086293 -77.090519 
L 203.846608 -77.110513 
L 204.606924 -77.111931 
L 205.367239 -76.583217 
L 206.127554 -76.582159 
L 206.887869 -76.578161 
L 207.648184 -76.390341 
L 208.408499 -76.377227 
L 209.168814 -76.346125 
L 209.929129 -76.293897 
L 210.689444 -76.183118 
L 211.449759 -75.960432 
L 212.210075 -75.597504 
L 212.97039 -75.517638 
L 213.730705 -75.472506 
L 214.49102 -75.42162 
L 215.251335 -75.433815 
L 216.01165 -75.306416 
L 216.771965 -75.191347 
L 217.53228 -75.095149 
L 218.292595 -75.160598 
L 219.05291 -75.127764 
L 219.813225 -75.100933 
L 220.573541 -74.970159 
L 221.333856 -74.675546 
L 222.094171 -74.406231 
L 222.854486 -74.377246 
L 223.614801 -74.378111 
L 224.375116 -74.376848 
L 225.135431 -74.321992 
L 225.895746 -74.314583 
L 226.656061 -74.317152 
L 227.416376 -74.324046 
L 228.176692 -74.420488 
L 228.937007 -74.67381 
L 229.697322 -74.907782 
L 230.457637 -75.156763 
L 231.217952 -75.515964 
L 231.978267 -76.685408 
L 232.738582 -78.591138 
L 233.498897 -79.921094 
L 234.259212 -81.080077 
L 235.019527 -82.021705 
L 235.779842 -83.160851 
L 236.540158 -84.076394 
L 237.300473 -84.732536 
L 238.060788 -85.374893 
L 238.821103 -85.838544 
L 239.581418 -86.652525 
L 240.341733 -87.324455 
L 241.102048 -87.639382 
L 241.862363 -87.884384 
L 242.622678 -88.221926 
L 243.382993 -88.314139 
L 244.143308 -88.061535 
L 244.903624 -87.740846 
L 245.663939 -87.303697 
L 246.424254 -86.671612 
L 247.184569 -86.38453 
L 247.944884 -86.482002 
L 248.705199 -86.949961 
L 249.465514 -86.997273 
L 250.225829 -86.921885 
L 250.986144 -86.900656 
L 251.746459 -86.864242 
L 252.506775 -86.721343 
L 253.26709 -86.63085 
L 254.027405 -86.523727 
L 254.78772 -86.531084 
L 255.548035 -86.576401 
L 256.30835 -86.586457 
L 257.068665 -86.584255 
L 257.82898 -86.417589 
L 258.589295 -86.362488 
L 259.34961 -86.453119 
L 260.109925 -86.489106 
L 260.870241 -86.537835 
L 261.630556 -87.438533 
L 262.390871 -87.740137 
L 263.151186 -88.15131 
L 263.911501 -87.94652 
L 264.671816 -87.826803 
L 265.432131 -87.805225 
L 266.192446 -87.690805 
L 266.952761 -87.457983 
L 267.713076 -87.201196 
L 268.473392 -86.82192 
L 269.233707 -86.610873 
L 269.994022 -86.356108 
L 270.754337 -86.237889 
L 271.514652 -85.971689 
L 272.274967 -85.664731 
L 273.035282 -85.261582 
L 273.795597 -84.724586 
L 274.555912 -83.658797 
L 275.316227 -82.592931 
L 276.076542 -82.04249 
L 276.836858 -82.097271 
L 277.597173 -82.174161 
L 278.357488 -82.174438 
L 279.117803 -82.169648 
L 279.878118 -82.251196 
L 280.638433 -82.073534 
L 281.398748 -82.044165 
L 282.159063 -81.995162 
L 282.919378 -81.963599 
L 283.679693 -81.85621 
L 284.440009 -81.854828 
L 285.200324 -81.828116 
L 285.960639 -81.629316 
L 286.720954 -81.496154 
L 287.481269 -81.466379 
L 288.241584 -81.483953 
L 289.001899 -81.98158 
L 289.762214 -82.51969 
L 290.522529 -83.158311 
L 291.282844 -83.430119 
L 292.043159 -83.774822 
L 292.803475 -84.148414 
L 293.56379 -84.331706 
L 294.324105 -84.522539 
L 295.08442 -84.799538 
L 295.844735 -85.243935 
L 296.60505 -85.773798 
L 297.365365 -87.274403 
L 298.12568 -88.632133 
L 298.885995 -89.640847 
L 299.64631 -90.681331 
L 300.406626 -91.466482 
L 301.166941 -92.05103 
L 301.927256 -93.042361 
L 302.687571 -93.584825 
L 303.447886 -94.200399 
L 304.208201 -94.847086 
L 304.968516 -95.576568 
L 305.728831 -96.187505 
L 306.489146 -96.499119 
L 307.249461 -97.022421 
L 308.009776 -97.518828 
L 308.770092 -99.248471 
L 309.530407 -100.541385 
L 310.290722 -100.835818 
L 311.051037 -101.61106 
L 311.811352 -102.042047 
L 312.571667 -102.694115 
L 313.331982 -103.593144 
L 314.092297 -104.864922 
L 314.852612 -105.975326 
L 315.612927 -106.614219 
L 316.373242 -106.999219 
L 317.133558 -108.057204 
L 317.893873 -109.72338 
L 318.654188 -111.206024 
L 319.414503 -112.424319 
L 320.174818 -114.321428 
L 320.935133 -115.804531 
L 321.695448 -116.529441 
L 322.455763 -117.144159 
L 323.216078 -118.206176 
L 323.976393 -119.17003 
L 324.736709 -119.200657 
L 325.497024 -118.84119 
L 326.257339 -118.846465 
L 327.017654 -118.847055 
L 327.777969 -119.792122 
L 328.538284 -119.897999 
L 329.298599 -120.423408 
L 330.058914 -120.949909 
L 330.819229 -120.604091 
L 331.579544 -120.110038 
L 332.339859 -120.098742 
L 333.100175 -120.32556 
L 333.86049 -120.262282 
L 334.620805 -120.214301 
L 335.38112 -120.16849 
L 336.141435 -120.12552 
L 336.90175 -120.2145 
L 337.662065 -120.459284 
L 338.42238 -120.524505 
L 339.182695 -120.864931 
L 339.94301 -122.872795 
L 340.703326 -126.489541 
L 341.463641 -129.801391 
L 342.223956 -133.38477 
L 342.984271 -135.878037 
L 343.744586 -137.412352 
L 344.504901 -139.727101 
L 345.265216 -141.260187 
L 346.025531 -142.906171 
L 346.785846 -145.195851 
L 347.546161 -148.85644 
L 348.306476 -151.706685 
L 349.066792 -154.55168 
L 349.827107 -157.164991 
L 350.587422 -160.500327 
L 351.347737 -162.929431 
L 352.108052 -165.384737 
L 352.868367 -170.201782 
L 353.628682 -174.799794 
L 354.388997 -177.228091 
L 355.149312 -181.79037 
L 355.909627 -188.982738 
L 356.669943 -197.954197 
L 357.430258 -206.640083 
L 358.190573 -213.245016 
L 358.950888 -216.600223 
L 359.711203 -217.747815 
L 360.471518 -217.36544 
L 361.231833 -218.242218 
L 361.992148 -219.955632 
L 362.752463 -220.232789 
L 363.512778 -219.428987 
L 364.273093 -218.338936 
L 365.033409 -217.004435 
L 365.793724 -215.728317 
L 366.554039 -213.747845 
L 367.314354 -212.699919 
L 368.074669 -212.408639 
L 368.834984 -212.742544 
L 369.595299 -212.624726 
L 370.355614 -213.062243 
L 371.115929 -212.916563 
L 371.876244 -211.714864 
L 372.63656 -207.975126 
L 373.396875 -204.104624 
L 374.15719 -201.983108 
L 374.917505 -201.507207 
L 375.67782 -201.444822 
L 376.438135 -200.222979 
L 377.19845 -198.596188 
L 377.958765 -198.772363 
L 378.71908 -200.692483 
L 379.479395 -203.554403 
L 380.23971 -205.31596 
L 381.000026 -217.128232 
L 381.760341 -226.335193 
L 382.520656 -231.938098 
L 383.280971 -240.251301 
L 384.041286 -246.441672 
L 384.801601 -251.469642 
L 385.561916 -256.809157 
L 386.322231 -260.66077 
L 387.082546 -263.600641 
L 387.842861 -269.30457 
L 388.603176 -273.618029 
L 389.363492 -280.824443 
L 390.123807 -285.709479 
L 390.884122 -290.531227 
L 391.644437 -292.032 
L 392.404752 -290.974353 
L 393.165067 -288.89459 
L 393.925382 -286.175802 
L 394.685697 -283.366951 
L 395.446012 -279.282779 
L 396.206327 -279.559226 
L 396.966643 -279.648833 
L 397.726958 -279.021938 
L 398.487273 -279.323597 
L 398.487273 -218.992853 
L 398.487273 -218.992853 
L 397.726958 -218.253714 
L 396.966643 -216.056616 
L 396.206327 -214.80413 
L 395.446012 -215.588455 
L 394.685697 -208.349824 
L 393.925382 -202.501302 
L 393.165067 -195.994535 
L 392.404752 -188.425662 
L 391.644437 -182.539372 
L 390.884122 -176.037057 
L 390.123807 -170.570221 
L 389.363492 -165.652791 
L 388.603176 -163.560382 
L 387.842861 -160.421734 
L 387.082546 -158.071735 
L 386.322231 -152.934835 
L 385.561916 -150.149593 
L 384.801601 -148.438028 
L 384.041286 -147.044949 
L 383.280971 -146.646712 
L 382.520656 -148.50816 
L 381.760341 -148.076362 
L 381.000026 -152.551168 
L 380.23971 -159.83996 
L 379.479395 -160.652058 
L 378.71908 -162.039726 
L 377.958765 -162.979523 
L 377.19845 -163.063292 
L 376.438135 -162.061965 
L 375.67782 -161.635512 
L 374.917505 -161.795339 
L 374.15719 -162.324042 
L 373.396875 -161.867481 
L 372.63656 -160.564563 
L 371.876244 -159.923165 
L 371.115929 -162.617798 
L 370.355614 -164.327082 
L 369.595299 -165.530784 
L 368.834984 -165.29259 
L 368.074669 -166.025556 
L 367.314354 -165.381098 
L 366.554039 -163.710322 
L 365.793724 -158.908022 
L 365.033409 -154.59967 
L 364.273093 -149.26 
L 363.512778 -144.379981 
L 362.752463 -139.36526 
L 361.992148 -135.197649 
L 361.231833 -130.698486 
L 360.471518 -125.70027 
L 359.711203 -120.654935 
L 358.950888 -116.788697 
L 358.190573 -113.48227 
L 357.430258 -112.867803 
L 356.669943 -114.32889 
L 355.909627 -116.264591 
L 355.149312 -117.423299 
L 354.388997 -116.524314 
L 353.628682 -113.539628 
L 352.868367 -112.214172 
L 352.108052 -111.42161 
L 351.347737 -109.321667 
L 350.587422 -107.050956 
L 349.827107 -105.809773 
L 349.066792 -104.63445 
L 348.306476 -103.725573 
L 347.546161 -103.53508 
L 346.785846 -104.156498 
L 346.025531 -104.056825 
L 345.265216 -103.519093 
L 344.504901 -103.425339 
L 343.744586 -103.763516 
L 342.984271 -103.608874 
L 342.223956 -104.487289 
L 341.463641 -105.643048 
L 340.703326 -106.632084 
L 339.94301 -107.813797 
L 339.182695 -108.027513 
L 338.42238 -108.05753 
L 337.662065 -108.073842 
L 336.90175 -107.979788 
L 336.141435 -107.901919 
L 335.38112 -108.142127 
L 334.620805 -108.276924 
L 333.86049 -107.910855 
L 333.100175 -107.616263 
L 332.339859 -107.193393 
L 331.579544 -106.034275 
L 330.819229 -104.166989 
L 330.058914 -102.709684 
L 329.298599 -101.892984 
L 328.538284 -101.159027 
L 327.777969 -99.935164 
L 327.017654 -98.988229 
L 326.257339 -97.756798 
L 325.497024 -96.794042 
L 324.736709 -95.43905 
L 323.976393 -94.783645 
L 323.216078 -94.399963 
L 322.455763 -93.308303 
L 321.695448 -92.049843 
L 320.935133 -90.684004 
L 320.174818 -90.042669 
L 319.414503 -89.839541 
L 318.654188 -89.228904 
L 317.893873 -88.849332 
L 317.133558 -88.621254 
L 316.373242 -88.352431 
L 315.612927 -87.488733 
L 314.852612 -86.820254 
L 314.092297 -86.551566 
L 313.331982 -86.376388 
L 312.571667 -86.104978 
L 311.811352 -85.679894 
L 311.051037 -84.64198 
L 310.290722 -83.81097 
L 309.530407 -82.67306 
L 308.770092 -82.149555 
L 308.009776 -82.041708 
L 307.249461 -81.397971 
L 306.489146 -80.801946 
L 305.728831 -80.1945 
L 304.968516 -79.850616 
L 304.208201 -79.538258 
L 303.447886 -79.210914 
L 302.687571 -78.794838 
L 301.927256 -78.313147 
L 301.166941 -78.015918 
L 300.406626 -77.533541 
L 299.64631 -77.335975 
L 298.885995 -77.314597 
L 298.12568 -77.296477 
L 297.365365 -77.612094 
L 296.60505 -78.172053 
L 295.844735 -78.193297 
L 295.08442 -78.209641 
L 294.324105 -78.205119 
L 293.56379 -78.130075 
L 292.803475 -78.061922 
L 292.043159 -78.099073 
L 291.282844 -78.117477 
L 290.522529 -77.88452 
L 289.762214 -78.086593 
L 289.001899 -78.258342 
L 288.241584 -78.561552 
L 287.481269 -78.572818 
L 286.720954 -78.558686 
L 285.960639 -78.550961 
L 285.200324 -78.543208 
L 284.440009 -78.547968 
L 283.679693 -78.555061 
L 282.919378 -78.343502 
L 282.159063 -78.255556 
L 281.398748 -78.100618 
L 280.638433 -77.898797 
L 279.878118 -77.406084 
L 279.117803 -77.252358 
L 278.357488 -76.994328 
L 277.597173 -76.722928 
L 276.836858 -76.675152 
L 276.076542 -76.56618 
L 275.316227 -76.464712 
L 274.555912 -75.943259 
L 273.795597 -75.496566 
L 273.035282 -75.314951 
L 272.274967 -75.173614 
L 271.514652 -75.11684 
L 270.754337 -75.085324 
L 269.994022 -75.082802 
L 269.233707 -75.098974 
L 268.473392 -75.188617 
L 267.713076 -75.425397 
L 266.952761 -75.674533 
L 266.192446 -75.998845 
L 265.432131 -76.419188 
L 264.671816 -77.173155 
L 263.911501 -77.743102 
L 263.151186 -78.469694 
L 262.390871 -79.632587 
L 261.630556 -80.566558 
L 260.870241 -82.157397 
L 260.109925 -82.402709 
L 259.34961 -82.339415 
L 258.589295 -82.162174 
L 257.82898 -82.173429 
L 257.068665 -82.158856 
L 256.30835 -82.221838 
L 255.548035 -82.269038 
L 254.78772 -82.540442 
L 254.027405 -82.693313 
L 253.26709 -82.51764 
L 252.506775 -82.225654 
L 251.746459 -81.890287 
L 250.986144 -81.69314 
L 250.225829 -81.573328 
L 249.465514 -81.149906 
L 248.705199 -80.824815 
L 247.944884 -80.71372 
L 247.184569 -80.436124 
L 246.424254 -79.456833 
L 245.663939 -77.884679 
L 244.903624 -76.518567 
L 244.143308 -75.327955 
L 243.382993 -74.287323 
L 242.622678 -73.313858 
L 241.862363 -72.444311 
L 241.102048 -71.621151 
L 240.341733 -70.897487 
L 239.581418 -70.412596 
L 238.821103 -70.075099 
L 238.060788 -69.633283 
L 237.300473 -69.387958 
L 236.540158 -69.199396 
L 235.779842 -69.251041 
L 235.019527 -69.496805 
L 234.259212 -69.686113 
L 233.498897 -70.023319 
L 232.738582 -70.673629 
L 231.978267 -71.845003 
L 231.217952 -72.5688 
L 230.457637 -72.708938 
L 229.697322 -72.731275 
L 228.937007 -72.766739 
L 228.176692 -72.840679 
L 227.416376 -72.869392 
L 226.656061 -72.853656 
L 225.895746 -72.838577 
L 225.135431 -72.805354 
L 224.375116 -72.686455 
L 223.614801 -72.703315 
L 222.854486 -72.709012 
L 222.094171 -72.705858 
L 221.333856 -72.569099 
L 220.573541 -72.402373 
L 219.813225 -72.355918 
L 219.05291 -72.355381 
L 218.292595 -72.394569 
L 217.53228 -72.405041 
L 216.771965 -72.381027 
L 216.01165 -72.356052 
L 215.251335 -72.352423 
L 214.49102 -72.391283 
L 213.730705 -72.48613 
L 212.97039 -72.58627 
L 212.210075 -72.625261 
L 211.449759 -72.539397 
L 210.689444 -72.569284 
L 209.929129 -72.705113 
L 209.168814 -72.970985 
L 208.408499 -73.136733 
L 207.648184 -73.361354 
L 206.887869 -73.415781 
L 206.127554 -73.42007 
L 205.367239 -73.42019 
L 204.606924 -73.17631 
L 203.846608 -73.274951 
L 203.086293 -73.39532 
L 202.325978 -73.557701 
L 201.565663 -73.558304 
L 200.805348 -73.360105 
L 200.045033 -72.854875 
L 199.284718 -72.562046 
L 198.524403 -72.028396 
L 197.764088 -71.923206 
L 197.003773 -71.801961 
L 196.243458 -71.687029 
L 195.483142 -71.650585 
L 194.722827 -71.633602 
L 193.962512 -71.621338 
L 193.202197 -71.620852 
L 192.441882 -71.606177 
L 191.681567 -71.631284 
L 190.921252 -71.630809 
L 190.160937 -71.630846 
L 189.400622 -71.728148 
L 188.640307 -71.306575 
L 187.879991 -71.055521 
L 187.119676 -70.470775 
L 186.359361 -70.416714 
L 185.599046 -70.310313 
L 184.838731 -70.483282 
L 184.078416 -70.674711 
L 183.318101 -70.770933 
L 182.557786 -70.537536 
L 181.797471 -70.336609 
L 181.037156 -70.196986 
L 180.276841 -69.949034 
L 179.516525 -69.748219 
L 178.75621 -69.214297 
L 177.995895 -68.121874 
L 177.23558 -67.241678 
L 176.475265 -66.37026 
L 175.71495 -65.65841 
L 174.954635 -65.01146 
L 174.19432 -64.418838 
L 173.434005 -63.531224 
L 172.67369 -62.484229 
L 171.913374 -61.63014 
L 171.153059 -61.346666 
L 170.392744 -61.469535 
L 169.632429 -61.296899 
L 168.872114 -61.189947 
L 168.111799 -60.793017 
L 167.351484 -60.601525 
L 166.591169 -60.469497 
L 165.830854 -60.779287 
L 165.070539 -61.025118 
L 164.310224 -61.609983 
L 163.549908 -62.096761 
L 162.789593 -62.211516 
L 162.029278 -62.318459 
L 161.268963 -62.408174 
L 160.508648 -62.341172 
L 159.748333 -62.335587 
L 158.988018 -62.336243 
L 158.227703 -62.254335 
L 157.467388 -62.127369 
L 156.707073 -61.775665 
L 155.946758 -61.556337 
L 155.186442 -60.573065 
L 154.426127 -60.177001 
L 153.665812 -60.123629 
L 152.905497 -60.117942 
L 152.145182 -60.070235 
L 151.384867 -60.071208 
L 150.624552 -59.955729 
L 149.864237 -59.23833 
L 149.103922 -58.974697 
L 148.343607 -58.855878 
L 147.583291 -58.808682 
L 146.822976 -58.102713 
L 146.062661 -57.468543 
L 145.302346 -56.433589 
L 144.542031 -55.939593 
L 143.781716 -55.341912 
L 143.021401 -55.200692 
L 142.261086 -54.502576 
L 141.500771 -53.65114 
L 140.740456 -53.078601 
L 139.980141 -52.756094 
L 139.219825 -52.42292 
L 138.45951 -51.60039 
L 137.699195 -50.842437 
L 136.93888 -50.365304 
L 136.178565 -50.155494 
L 135.41825 -50.112 
L 134.657935 -50.431493 
L 133.89762 -50.762841 
L 133.137305 -51.167287 
L 132.37699 -51.639866 
L 131.616674 -52.729119 
L 130.856359 -54.066389 
L 130.096044 -55.863127 
L 129.335729 -57.5688 
L 128.575414 -59.820281 
L 127.815099 -62.100369 
L 127.054784 -66.880935 
L 126.294469 -67.387801 
L 125.534154 -68.06945 
L 124.773839 -68.582706 
L 124.013524 -69.367473 
L 123.253208 -69.433721 
L 122.492893 -69.438618 
L 121.732578 -69.32699 
L 120.972263 -69.541072 
L 120.211948 -69.794569 
L 119.451633 -70.045296 
L 118.691318 -70.763643 
L 117.931003 -71.595257 
L 117.170688 -72.372679 
L 116.410373 -73.145531 
L 115.650057 -74.141094 
L 114.889742 -74.423789 
L 114.129427 -73.942884 
L 113.369112 -73.566101 
L 112.608797 -73.340862 
L 111.848482 -73.163047 
L 111.088167 -72.998558 
L 110.327852 -72.954397 
L 109.567537 -72.71684 
L 108.807222 -72.576101 
L 108.046907 -72.013449 
L 107.286591 -71.215027 
L 106.526276 -70.373922 
L 105.765961 -69.771247 
L 105.005646 -69.324768 
L 104.245331 -69.197805 
L 103.485016 -69.013637 
L 102.724701 -68.998377 
L 101.964386 -68.968836 
L 101.204071 -69.056783 
L 100.443756 -69.170744 
L 99.68344 -69.197779 
L 98.923125 -69.149702 
L 98.16281 -69.133915 
L 97.402495 -68.664414 
L 96.64218 -68.38531 
L 95.881865 -68.019273 
L 95.12155 -68.019057 
L 94.361235 -67.623007 
L 93.60092 -67.660607 
L 92.840605 -67.556092 
L 92.08029 -67.097615 
L 91.319974 -66.28086 
L 90.559659 -65.578749 
L 89.799344 -64.968079 
L 89.039029 -64.05031 
L 88.278714 -63.516073 
z
" id="mfd0324c5e9" style="stroke:#4b0082;stroke-opacity:0.3;"/>
    </defs>
    <g clip-path="url(#p45a6a2fd02)">
     <use style="fill:#4b0082;fill-opacity:0.3;stroke:#4b0082;stroke-opacity:0.3;" x="0" xlink:href="#mfd0324c5e9" y="345.6"/>
    </g>
   </g>
   <g id="matplotlib.axis_1">
    <g id="xtick_1">
     <g id="line2d_1">
      <defs>
       <path d="M 0 0 
L 0 3.5 
" id="mf53255522d" style="stroke:#000000;stroke-width:0.8;"/>
      </defs>
      <g>
       <use style="stroke:#000000;stroke-width:0.8;" x="73.832727" xlink:href="#mf53255522d" y="307.584"/>
      </g>
     </g>
     <g id="text_1">
      <!-- 2020-01 -->
      <g transform="translate(52.941321 322.182437)scale(0.1 -0.1)">
       <defs>
        <path d="M 19.1875 8.296875 
L 53.609375 8.296875 
L 53.609375 0 
L 7.328125 0 
L 7.328125 8.296875 
Q 12.9375 14.109375 22.625 23.890625 
Q 32.328125 33.6875 34.8125 36.53125 
Q 39.546875 41.84375 41.421875 45.53125 
Q 43.3125 49.21875 43.3125 52.78125 
Q 43.3125 58.59375 39.234375 62.25 
Q 35.15625 65.921875 28.609375 65.921875 
Q 23.96875 65.921875 18.8125 64.3125 
Q 13.671875 62.703125 7.8125 59.421875 
L 7.8125 69.390625 
Q 13.765625 71.78125 18.9375 73 
Q 24.125 74.21875 28.421875 74.21875 
Q 39.75 74.21875 46.484375 68.546875 
Q 53.21875 62.890625 53.21875 53.421875 
Q 53.21875 48.921875 51.53125 44.890625 
Q 49.859375 40.875 45.40625 35.40625 
Q 44.1875 33.984375 37.640625 27.21875 
Q 31.109375 20.453125 19.1875 8.296875 
z
" id="DejaVuSans-50"/>
        <path d="M 31.78125 66.40625 
Q 24.171875 66.40625 20.328125 58.90625 
Q 16.5 51.421875 16.5 36.375 
Q 16.5 21.390625 20.328125 13.890625 
Q 24.171875 6.390625 31.78125 6.390625 
Q 39.453125 6.390625 43.28125 13.890625 
Q 47.125 21.390625 47.125 36.375 
Q 47.125 51.421875 43.28125 58.90625 
Q 39.453125 66.40625 31.78125 66.40625 
z
M 31.78125 74.21875 
Q 44.046875 74.21875 50.515625 64.515625 
Q 56.984375 54.828125 56.984375 36.375 
Q 56.984375 17.96875 50.515625 8.265625 
Q 44.046875 -1.421875 31.78125 -1.421875 
Q 19.53125 -1.421875 13.0625 8.265625 
Q 6.59375 17.96875 6.59375 36.375 
Q 6.59375 54.828125 13.0625 64.515625 
Q 19.53125 74.21875 31.78125 74.21875 
z
" id="DejaVuSans-48"/>
        <path d="M 4.890625 31.390625 
L 31.203125 31.390625 
L 31.203125 23.390625 
L 4.890625 23.390625 
z
" id="DejaVuSans-45"/>
        <path d="M 12.40625 8.296875 
L 28.515625 8.296875 
L 28.515625 63.921875 
L 10.984375 60.40625 
L 10.984375 69.390625 
L 28.421875 72.90625 
L 38.28125 72.90625 
L 38.28125 8.296875 
L 54.390625 8.296875 
L 54.390625 0 
L 12.40625 0 
z
" id="DejaVuSans-49"/>
       </defs>
       <use xlink:href="#DejaVuSans-50"/>
       <use x="63.623047" xlink:href="#DejaVuSans-48"/>
       <use x="127.246094" xlink:href="#DejaVuSans-50"/>
       <use x="190.869141" xlink:href="#DejaVuSans-48"/>
       <use x="254.492188" xlink:href="#DejaVuSans-45"/>
       <use x="290.576172" xlink:href="#DejaVuSans-48"/>
       <use x="354.199219" xlink:href="#DejaVuSans-49"/>
      </g>
     </g>
    </g>
    <g id="xtick_2">
     <g id="line2d_2">
      <g>
       <use style="stroke:#000000;stroke-width:0.8;" x="119.451633" xlink:href="#mf53255522d" y="307.584"/>
      </g>
     </g>
     <g id="text_2">
      <!-- 2020-03 -->
      <g transform="translate(98.560227 322.182437)scale(0.1 -0.1)">
       <defs>
        <path d="M 40.578125 39.3125 
Q 47.65625 37.796875 51.625 33 
Q 55.609375 28.21875 55.609375 21.1875 
Q 55.609375 10.40625 48.1875 4.484375 
Q 40.765625 -1.421875 27.09375 -1.421875 
Q 22.515625 -1.421875 17.65625 -0.515625 
Q 12.796875 0.390625 7.625 2.203125 
L 7.625 11.71875 
Q 11.71875 9.328125 16.59375 8.109375 
Q 21.484375 6.890625 26.8125 6.890625 
Q 36.078125 6.890625 40.9375 10.546875 
Q 45.796875 14.203125 45.796875 21.1875 
Q 45.796875 27.640625 41.28125 31.265625 
Q 36.765625 34.90625 28.71875 34.90625 
L 20.21875 34.90625 
L 20.21875 43.015625 
L 29.109375 43.015625 
Q 36.375 43.015625 40.234375 45.921875 
Q 44.09375 48.828125 44.09375 54.296875 
Q 44.09375 59.90625 40.109375 62.90625 
Q 36.140625 65.921875 28.71875 65.921875 
Q 24.65625 65.921875 20.015625 65.03125 
Q 15.375 64.15625 9.8125 62.3125 
L 9.8125 71.09375 
Q 15.4375 72.65625 20.34375 73.4375 
Q 25.25 74.21875 29.59375 74.21875 
Q 40.828125 74.21875 47.359375 69.109375 
Q 53.90625 64.015625 53.90625 55.328125 
Q 53.90625 49.265625 50.4375 45.09375 
Q 46.96875 40.921875 40.578125 39.3125 
z
" id="DejaVuSans-51"/>
       </defs>
       <use xlink:href="#DejaVuSans-50"/>
       <use x="63.623047" xlink:href="#DejaVuSans-48"/>
       <use x="127.246094" xlink:href="#DejaVuSans-50"/>
       <use x="190.869141" xlink:href="#DejaVuSans-48"/>
       <use x="254.492188" xlink:href="#DejaVuSans-45"/>
       <use x="290.576172" xlink:href="#DejaVuSans-48"/>
       <use x="354.199219" xlink:href="#DejaVuSans-51"/>
      </g>
     </g>
    </g>
    <g id="xtick_3">
     <g id="line2d_3">
      <g>
       <use style="stroke:#000000;stroke-width:0.8;" x="165.830854" xlink:href="#mf53255522d" y="307.584"/>
      </g>
     </g>
     <g id="text_3">
      <!-- 2020-05 -->
      <g transform="translate(144.939447 322.182437)scale(0.1 -0.1)">
       <defs>
        <path d="M 10.796875 72.90625 
L 49.515625 72.90625 
L 49.515625 64.59375 
L 19.828125 64.59375 
L 19.828125 46.734375 
Q 21.96875 47.46875 24.109375 47.828125 
Q 26.265625 48.1875 28.421875 48.1875 
Q 40.625 48.1875 47.75 41.5 
Q 54.890625 34.8125 54.890625 23.390625 
Q 54.890625 11.625 47.5625 5.09375 
Q 40.234375 -1.421875 26.90625 -1.421875 
Q 22.3125 -1.421875 17.546875 -0.640625 
Q 12.796875 0.140625 7.71875 1.703125 
L 7.71875 11.625 
Q 12.109375 9.234375 16.796875 8.0625 
Q 21.484375 6.890625 26.703125 6.890625 
Q 35.15625 6.890625 40.078125 11.328125 
Q 45.015625 15.765625 45.015625 23.390625 
Q 45.015625 31 40.078125 35.4375 
Q 35.15625 39.890625 26.703125 39.890625 
Q 22.75 39.890625 18.8125 39.015625 
Q 14.890625 38.140625 10.796875 36.28125 
z
" id="DejaVuSans-53"/>
       </defs>
       <use xlink:href="#DejaVuSans-50"/>
       <use x="63.623047" xlink:href="#DejaVuSans-48"/>
       <use x="127.246094" xlink:href="#DejaVuSans-50"/>
       <use x="190.869141" xlink:href="#DejaVuSans-48"/>
       <use x="254.492188" xlink:href="#DejaVuSans-45"/>
       <use x="290.576172" xlink:href="#DejaVuSans-48"/>
       <use x="354.199219" xlink:href="#DejaVuSans-53"/>
      </g>
     </g>
    </g>
    <g id="xtick_4">
     <g id="line2d_4">
      <g>
       <use style="stroke:#000000;stroke-width:0.8;" x="212.210075" xlink:href="#mf53255522d" y="307.584"/>
      </g>
     </g>
     <g id="text_4">
      <!-- 2020-07 -->
      <g transform="translate(191.318668 322.182437)scale(0.1 -0.1)">
       <defs>
        <path d="M 8.203125 72.90625 
L 55.078125 72.90625 
L 55.078125 68.703125 
L 28.609375 0 
L 18.3125 0 
L 43.21875 64.59375 
L 8.203125 64.59375 
z
" id="DejaVuSans-55"/>
       </defs>
       <use xlink:href="#DejaVuSans-50"/>
       <use x="63.623047" xlink:href="#DejaVuSans-48"/>
       <use x="127.246094" xlink:href="#DejaVuSans-50"/>
       <use x="190.869141" xlink:href="#DejaVuSans-48"/>
       <use x="254.492188" xlink:href="#DejaVuSans-45"/>
       <use x="290.576172" xlink:href="#DejaVuSans-48"/>
       <use x="354.199219" xlink:href="#DejaVuSans-55"/>
      </g>
     </g>
    </g>
    <g id="xtick_5">
     <g id="line2d_5">
      <g>
       <use style="stroke:#000000;stroke-width:0.8;" x="259.34961" xlink:href="#mf53255522d" y="307.584"/>
      </g>
     </g>
     <g id="text_5">
      <!-- 2020-09 -->
      <g transform="translate(238.458204 322.182437)scale(0.1 -0.1)">
       <defs>
        <path d="M 10.984375 1.515625 
L 10.984375 10.5 
Q 14.703125 8.734375 18.5 7.8125 
Q 22.3125 6.890625 25.984375 6.890625 
Q 35.75 6.890625 40.890625 13.453125 
Q 46.046875 20.015625 46.78125 33.40625 
Q 43.953125 29.203125 39.59375 26.953125 
Q 35.25 24.703125 29.984375 24.703125 
Q 19.046875 24.703125 12.671875 31.3125 
Q 6.296875 37.9375 6.296875 49.421875 
Q 6.296875 60.640625 12.9375 67.421875 
Q 19.578125 74.21875 30.609375 74.21875 
Q 43.265625 74.21875 49.921875 64.515625 
Q 56.59375 54.828125 56.59375 36.375 
Q 56.59375 19.140625 48.40625 8.859375 
Q 40.234375 -1.421875 26.421875 -1.421875 
Q 22.703125 -1.421875 18.890625 -0.6875 
Q 15.09375 0.046875 10.984375 1.515625 
z
M 30.609375 32.421875 
Q 37.25 32.421875 41.125 36.953125 
Q 45.015625 41.5 45.015625 49.421875 
Q 45.015625 57.28125 41.125 61.84375 
Q 37.25 66.40625 30.609375 66.40625 
Q 23.96875 66.40625 20.09375 61.84375 
Q 16.21875 57.28125 16.21875 49.421875 
Q 16.21875 41.5 20.09375 36.953125 
Q 23.96875 32.421875 30.609375 32.421875 
z
" id="DejaVuSans-57"/>
       </defs>
       <use xlink:href="#DejaVuSans-50"/>
       <use x="63.623047" xlink:href="#DejaVuSans-48"/>
       <use x="127.246094" xlink:href="#DejaVuSans-50"/>
       <use x="190.869141" xlink:href="#DejaVuSans-48"/>
       <use x="254.492188" xlink:href="#DejaVuSans-45"/>
       <use x="290.576172" xlink:href="#DejaVuSans-48"/>
       <use x="354.199219" xlink:href="#DejaVuSans-57"/>
      </g>
     </g>
    </g>
    <g id="xtick_6">
     <g id="line2d_6">
      <g>
       <use style="stroke:#000000;stroke-width:0.8;" x="305.728831" xlink:href="#mf53255522d" y="307.584"/>
      </g>
     </g>
     <g id="text_6">
      <!-- 2020-11 -->
      <g transform="translate(284.837425 322.182437)scale(0.1 -0.1)">
       <use xlink:href="#DejaVuSans-50"/>
       <use x="63.623047" xlink:href="#DejaVuSans-48"/>
       <use x="127.246094" xlink:href="#DejaVuSans-50"/>
       <use x="190.869141" xlink:href="#DejaVuSans-48"/>
       <use x="254.492188" xlink:href="#DejaVuSans-45"/>
       <use x="290.576172" xlink:href="#DejaVuSans-49"/>
       <use x="354.199219" xlink:href="#DejaVuSans-49"/>
      </g>
     </g>
    </g>
    <g id="xtick_7">
     <g id="line2d_7">
      <g>
       <use style="stroke:#000000;stroke-width:0.8;" x="352.108052" xlink:href="#mf53255522d" y="307.584"/>
      </g>
     </g>
     <g id="text_7">
      <!-- 2021-01 -->
      <g transform="translate(331.216646 322.182437)scale(0.1 -0.1)">
       <use xlink:href="#DejaVuSans-50"/>
       <use x="63.623047" xlink:href="#DejaVuSans-48"/>
       <use x="127.246094" xlink:href="#DejaVuSans-50"/>
       <use x="190.869141" xlink:href="#DejaVuSans-49"/>
       <use x="254.492188" xlink:href="#DejaVuSans-45"/>
       <use x="290.576172" xlink:href="#DejaVuSans-48"/>
       <use x="354.199219" xlink:href="#DejaVuSans-49"/>
      </g>
     </g>
    </g>
    <g id="xtick_8">
     <g id="line2d_8">
      <g>
       <use style="stroke:#000000;stroke-width:0.8;" x="396.966643" xlink:href="#mf53255522d" y="307.584"/>
      </g>
     </g>
     <g id="text_8">
      <!-- 2021-03 -->
      <g transform="translate(376.075236 322.182437)scale(0.1 -0.1)">
       <use xlink:href="#DejaVuSans-50"/>
       <use x="63.623047" xlink:href="#DejaVuSans-48"/>
       <use x="127.246094" xlink:href="#DejaVuSans-50"/>
       <use x="190.869141" xlink:href="#DejaVuSans-49"/>
       <use x="254.492188" xlink:href="#DejaVuSans-45"/>
       <use x="290.576172" xlink:href="#DejaVuSans-48"/>
       <use x="354.199219" xlink:href="#DejaVuSans-51"/>
      </g>
     </g>
    </g>
   </g>
   <g id="matplotlib.axis_2">
    <g id="ytick_1">
     <g id="line2d_9">
      <defs>
       <path d="M 0 0 
L -3.5 0 
" id="m561cf936bc" style="stroke:#000000;stroke-width:0.8;"/>
      </defs>
      <g>
       <use style="stroke:#000000;stroke-width:0.8;" x="57.6" xlink:href="#m561cf936bc" y="268.547339"/>
      </g>
     </g>
     <g id="text_9">
      <!-- 10000 -->
      <g transform="translate(18.7875 272.346558)scale(0.1 -0.1)">
       <use xlink:href="#DejaVuSans-49"/>
       <use x="63.623047" xlink:href="#DejaVuSans-48"/>
       <use x="127.246094" xlink:href="#DejaVuSans-48"/>
       <use x="190.869141" xlink:href="#DejaVuSans-48"/>
       <use x="254.492188" xlink:href="#DejaVuSans-48"/>
      </g>
     </g>
    </g>
    <g id="ytick_2">
     <g id="line2d_10">
      <g>
       <use style="stroke:#000000;stroke-width:0.8;" x="57.6" xlink:href="#m561cf936bc" y="225.494958"/>
      </g>
     </g>
     <g id="text_10">
      <!-- 20000 -->
      <g transform="translate(18.7875 229.294177)scale(0.1 -0.1)">
       <use xlink:href="#DejaVuSans-50"/>
       <use x="63.623047" xlink:href="#DejaVuSans-48"/>
       <use x="127.246094" xlink:href="#DejaVuSans-48"/>
       <use x="190.869141" xlink:href="#DejaVuSans-48"/>
       <use x="254.492188" xlink:href="#DejaVuSans-48"/>
      </g>
     </g>
    </g>
    <g id="ytick_3">
     <g id="line2d_11">
      <g>
       <use style="stroke:#000000;stroke-width:0.8;" x="57.6" xlink:href="#m561cf936bc" y="182.442577"/>
      </g>
     </g>
     <g id="text_11">
      <!-- 30000 -->
      <g transform="translate(18.7875 186.241796)scale(0.1 -0.1)">
       <use xlink:href="#DejaVuSans-51"/>
       <use x="63.623047" xlink:href="#DejaVuSans-48"/>
       <use x="127.246094" xlink:href="#DejaVuSans-48"/>
       <use x="190.869141" xlink:href="#DejaVuSans-48"/>
       <use x="254.492188" xlink:href="#DejaVuSans-48"/>
      </g>
     </g>
    </g>
    <g id="ytick_4">
     <g id="line2d_12">
      <g>
       <use style="stroke:#000000;stroke-width:0.8;" x="57.6" xlink:href="#m561cf936bc" y="139.390196"/>
      </g>
     </g>
     <g id="text_12">
      <!-- 40000 -->
      <g transform="translate(18.7875 143.189414)scale(0.1 -0.1)">
       <defs>
        <path d="M 37.796875 64.3125 
L 12.890625 25.390625 
L 37.796875 25.390625 
z
M 35.203125 72.90625 
L 47.609375 72.90625 
L 47.609375 25.390625 
L 58.015625 25.390625 
L 58.015625 17.1875 
L 47.609375 17.1875 
L 47.609375 0 
L 37.796875 0 
L 37.796875 17.1875 
L 4.890625 17.1875 
L 4.890625 26.703125 
z
" id="DejaVuSans-52"/>
       </defs>
       <use xlink:href="#DejaVuSans-52"/>
       <use x="63.623047" xlink:href="#DejaVuSans-48"/>
       <use x="127.246094" xlink:href="#DejaVuSans-48"/>
       <use x="190.869141" xlink:href="#DejaVuSans-48"/>
       <use x="254.492188" xlink:href="#DejaVuSans-48"/>
      </g>
     </g>
    </g>
    <g id="ytick_5">
     <g id="line2d_13">
      <g>
       <use style="stroke:#000000;stroke-width:0.8;" x="57.6" xlink:href="#m561cf936bc" y="96.337814"/>
      </g>
     </g>
     <g id="text_13">
      <!-- 50000 -->
      <g transform="translate(18.7875 100.137033)scale(0.1 -0.1)">
       <use xlink:href="#DejaVuSans-53"/>
       <use x="63.623047" xlink:href="#DejaVuSans-48"/>
       <use x="127.246094" xlink:href="#DejaVuSans-48"/>
       <use x="190.869141" xlink:href="#DejaVuSans-48"/>
       <use x="254.492188" xlink:href="#DejaVuSans-48"/>
      </g>
     </g>
    </g>
    <g id="ytick_6">
     <g id="line2d_14">
      <g>
       <use style="stroke:#000000;stroke-width:0.8;" x="57.6" xlink:href="#m561cf936bc" y="53.285433"/>
      </g>
     </g>
     <g id="text_14">
      <!-- 60000 -->
      <g transform="translate(18.7875 57.084652)scale(0.1 -0.1)">
       <defs>
        <path d="M 33.015625 40.375 
Q 26.375 40.375 22.484375 35.828125 
Q 18.609375 31.296875 18.609375 23.390625 
Q 18.609375 15.53125 22.484375 10.953125 
Q 26.375 6.390625 33.015625 6.390625 
Q 39.65625 6.390625 43.53125 10.953125 
Q 47.40625 15.53125 47.40625 23.390625 
Q 47.40625 31.296875 43.53125 35.828125 
Q 39.65625 40.375 33.015625 40.375 
z
M 52.59375 71.296875 
L 52.59375 62.3125 
Q 48.875 64.0625 45.09375 64.984375 
Q 41.3125 65.921875 37.59375 65.921875 
Q 27.828125 65.921875 22.671875 59.328125 
Q 17.53125 52.734375 16.796875 39.40625 
Q 19.671875 43.65625 24.015625 45.921875 
Q 28.375 48.1875 33.59375 48.1875 
Q 44.578125 48.1875 50.953125 41.515625 
Q 57.328125 34.859375 57.328125 23.390625 
Q 57.328125 12.15625 50.6875 5.359375 
Q 44.046875 -1.421875 33.015625 -1.421875 
Q 20.359375 -1.421875 13.671875 8.265625 
Q 6.984375 17.96875 6.984375 36.375 
Q 6.984375 53.65625 15.1875 63.9375 
Q 23.390625 74.21875 37.203125 74.21875 
Q 40.921875 74.21875 44.703125 73.484375 
Q 48.484375 72.75 52.59375 71.296875 
z
" id="DejaVuSans-54"/>
       </defs>
       <use xlink:href="#DejaVuSans-54"/>
       <use x="63.623047" xlink:href="#DejaVuSans-48"/>
       <use x="127.246094" xlink:href="#DejaVuSans-48"/>
       <use x="190.869141" xlink:href="#DejaVuSans-48"/>
       <use x="254.492188" xlink:href="#DejaVuSans-48"/>
      </g>
     </g>
    </g>
   </g>
   <g id="line2d_15">
    <path clip-path="url(#p45a6a2fd02)" d="M 88.278714 271.399794 
L 89.039029 271.271394 
L 91.319974 271.854915 
L 92.08029 272.249416 
L 92.840605 272.345859 
L 93.60092 272.130173 
L 94.361235 271.511194 
L 95.12155 271.272851 
L 95.881865 270.705008 
L 98.16281 270.197829 
L 99.68344 269.895289 
L 101.204071 268.997955 
L 102.724701 268.032644 
L 103.485016 267.389206 
L 104.245331 267.088984 
L 105.005646 266.524918 
L 105.765961 266.129376 
L 106.526276 265.959868 
L 107.286591 265.931463 
L 108.046907 266.170085 
L 108.807222 266.291581 
L 109.567537 266.29765 
L 110.327852 266.149708 
L 112.608797 266.255115 
L 114.129427 266.419556 
L 114.889742 266.689807 
L 115.650057 266.536047 
L 116.410373 265.95397 
L 117.931003 265.339658 
L 119.451633 265.053434 
L 120.972263 265.806176 
L 121.732578 266.221602 
L 122.492893 266.8858 
L 124.013524 267.571566 
L 124.773839 267.4997 
L 125.534154 267.951433 
L 126.294469 267.9992 
L 127.054784 268.205341 
L 127.815099 265.483313 
L 128.575414 264.941795 
L 129.335729 264.752933 
L 131.616674 265.091525 
L 132.37699 265.468189 
L 134.657935 267.363814 
L 136.93888 270.483039 
L 137.699195 271.987217 
L 139.219825 275.574983 
L 141.500771 279.049035 
L 142.261086 280.546782 
L 143.021401 280.488095 
L 143.781716 280.111192 
L 145.302346 279.880898 
L 146.062661 280.168923 
L 147.583291 279.82597 
L 149.103922 279.015033 
L 149.864237 278.97199 
L 150.624552 279.254396 
L 151.384867 279.089815 
L 153.665812 279.051447 
L 154.426127 278.951083 
L 155.186442 278.976765 
L 155.946758 279.381154 
L 156.707073 279.341373 
L 158.227703 279.548292 
L 158.988018 279.498977 
L 160.508648 278.880998 
L 163.549908 277.85222 
L 164.310224 276.952785 
L 165.070539 275.579716 
L 166.591169 273.428782 
L 168.111799 272.042173 
L 168.872114 271.50351 
L 170.392744 269.853394 
L 171.153059 268.542254 
L 171.913374 267.719211 
L 174.19432 268.285759 
L 174.954635 268.214406 
L 175.71495 267.966003 
L 176.475265 267.849099 
L 179.516525 268.044686 
L 180.276841 267.801435 
L 185.599046 267.876516 
L 186.359361 268.318174 
L 187.879991 268.615612 
L 189.400622 268.632514 
L 190.160937 268.088629 
L 191.681567 268.081394 
L 192.441882 267.896238 
L 195.483142 268.058181 
L 197.003773 267.772317 
L 198.524403 267.775578 
L 200.805348 268.470352 
L 202.325978 268.553612 
L 204.606924 268.488069 
L 205.367239 269.016783 
L 206.887869 269.021839 
L 207.648184 269.209659 
L 209.929129 269.306103 
L 211.449759 269.639568 
L 212.210075 270.002496 
L 214.49102 270.17838 
L 215.251335 270.166185 
L 217.53228 270.504851 
L 219.05291 270.472236 
L 220.573541 270.629841 
L 222.094171 271.193769 
L 226.656061 271.282848 
L 228.176692 271.179512 
L 231.217952 270.084036 
L 231.978267 268.914592 
L 232.738582 267.008862 
L 234.259212 264.519923 
L 235.019527 263.578295 
L 235.779842 262.439149 
L 236.540158 261.523606 
L 238.060788 260.225107 
L 238.821103 259.761456 
L 240.341733 258.275545 
L 242.622678 257.378074 
L 243.382993 257.285861 
L 244.903624 257.859154 
L 245.663939 258.296303 
L 246.424254 258.928388 
L 247.184569 259.21547 
L 247.944884 259.117998 
L 248.705199 258.650039 
L 249.465514 258.602727 
L 254.78772 259.068916 
L 257.068665 259.015745 
L 258.589295 259.237512 
L 260.870241 259.062165 
L 261.630556 258.161467 
L 263.151186 257.44869 
L 264.671816 257.773197 
L 266.192446 257.909195 
L 267.713076 258.398804 
L 268.473392 258.77808 
L 272.274967 259.935269 
L 273.035282 260.338418 
L 273.795597 260.875414 
L 275.316227 263.007069 
L 276.076542 263.55751 
L 279.878118 263.348804 
L 280.638433 263.526466 
L 285.200324 263.771884 
L 286.720954 264.103846 
L 288.241584 264.116047 
L 289.762214 263.08031 
L 290.522529 262.441689 
L 292.043159 261.825178 
L 292.803475 261.451586 
L 295.08442 260.800462 
L 296.60505 259.826202 
L 298.12568 256.967867 
L 299.64631 254.918669 
L 300.406626 254.133518 
L 301.166941 253.54897 
L 301.927256 252.557639 
L 303.447886 251.399601 
L 305.728831 249.412495 
L 306.489146 249.100881 
L 308.009776 248.081172 
L 308.770092 246.351529 
L 309.530407 245.058615 
L 310.290722 244.764182 
L 311.051037 243.98894 
L 311.811352 243.557953 
L 312.571667 242.905885 
L 313.331982 242.006856 
L 314.852612 239.624674 
L 315.612927 238.985781 
L 316.373242 238.600781 
L 317.133558 237.542796 
L 318.654188 234.393976 
L 319.414503 233.175681 
L 320.174818 231.278572 
L 320.935133 229.795469 
L 322.455763 228.455841 
L 323.976393 226.42997 
L 324.736709 226.399343 
L 325.497024 226.75881 
L 327.017654 226.752945 
L 327.777969 225.807878 
L 328.538284 225.702001 
L 330.058914 224.650091 
L 330.819229 224.995909 
L 331.579544 225.489962 
L 332.339859 225.501258 
L 333.100175 225.27444 
L 336.141435 225.47448 
L 336.90175 225.3855 
L 337.662065 225.140716 
L 338.42238 225.075495 
L 339.182695 224.735069 
L 339.94301 222.727205 
L 342.223956 212.21523 
L 342.984271 209.721963 
L 343.744586 208.187648 
L 344.504901 205.872899 
L 346.025531 202.693829 
L 346.785846 200.404149 
L 347.546161 196.74356 
L 351.347737 182.670569 
L 352.108052 180.215263 
L 353.628682 170.800206 
L 354.388997 168.371909 
L 355.149312 163.80963 
L 355.909627 156.617262 
L 357.430258 138.959917 
L 358.190573 132.354984 
L 358.950888 128.999777 
L 359.711203 127.852185 
L 360.471518 128.23456 
L 361.231833 127.357782 
L 361.992148 125.644368 
L 362.752463 125.367211 
L 363.512778 126.171013 
L 364.273093 127.261064 
L 365.793724 129.871683 
L 366.554039 131.852155 
L 367.314354 132.900081 
L 368.074669 133.191361 
L 368.834984 132.857456 
L 369.595299 132.975274 
L 370.355614 132.537757 
L 371.115929 132.683437 
L 371.876244 133.885136 
L 373.396875 141.495376 
L 374.15719 143.616892 
L 374.917505 144.092793 
L 375.67782 144.155178 
L 376.438135 145.377021 
L 377.19845 147.003812 
L 377.958765 146.827637 
L 378.71908 144.907517 
L 379.479395 142.045597 
L 380.23971 140.28404 
L 381.000026 128.471768 
L 381.760341 119.264807 
L 382.520656 113.661902 
L 383.280971 105.348699 
L 384.041286 99.158328 
L 385.561916 88.790843 
L 386.322231 84.93923 
L 387.082546 81.999359 
L 387.842861 76.29543 
L 388.603176 71.981971 
L 389.363492 64.775557 
L 390.884122 55.068773 
L 391.644437 53.568 
L 392.404752 54.625647 
L 393.165067 56.70541 
L 394.685697 62.233049 
L 395.446012 66.317221 
L 396.206327 66.040774 
L 396.966643 65.951167 
L 397.726958 66.578062 
L 398.487273 66.276403 
L 398.487273 66.276403 
" style="fill:none;stroke:#1f77b4;stroke-linecap:square;stroke-width:1.5;"/>
   </g>
   <g id="line2d_16">
    <path clip-path="url(#p45a6a2fd02)" d="M 88.278714 282.083927 
L 89.039029 281.54969 
L 89.799344 280.631921 
L 91.319974 279.31914 
L 92.08029 278.502385 
L 92.840605 278.043908 
L 93.60092 277.939393 
L 94.361235 277.976993 
L 95.12155 277.580943 
L 95.881865 277.580727 
L 98.16281 276.466085 
L 100.443756 276.429256 
L 101.964386 276.631164 
L 103.485016 276.586363 
L 105.005646 276.275232 
L 105.765961 275.828753 
L 106.526276 275.226078 
L 108.046907 273.586551 
L 108.807222 273.023899 
L 112.608797 272.259138 
L 113.369112 272.033899 
L 114.889742 271.176211 
L 115.650057 271.458906 
L 116.410373 272.454469 
L 119.451633 275.554704 
L 121.732578 276.27301 
L 122.492893 276.161382 
L 124.013524 276.232527 
L 124.773839 277.017294 
L 125.534154 277.53055 
L 126.294469 278.212199 
L 127.054784 278.719065 
L 127.815099 283.499631 
L 129.335729 288.0312 
L 130.856359 291.533611 
L 131.616674 292.870881 
L 132.37699 293.960134 
L 133.89762 294.837159 
L 135.41825 295.488 
L 136.178565 295.444506 
L 136.93888 295.234696 
L 137.699195 294.757563 
L 139.219825 293.17708 
L 140.740456 292.521399 
L 141.500771 291.94886 
L 143.021401 290.399308 
L 143.781716 290.258088 
L 145.302346 289.166411 
L 146.062661 288.131457 
L 147.583291 286.791318 
L 149.103922 286.625303 
L 149.864237 286.36167 
L 150.624552 285.644271 
L 151.384867 285.528792 
L 154.426127 285.422999 
L 155.186442 285.026935 
L 155.946758 284.043663 
L 156.707073 283.824335 
L 157.467388 283.472631 
L 158.988018 283.263757 
L 162.029278 283.281541 
L 163.549908 283.503239 
L 165.070539 284.574882 
L 166.591169 285.130503 
L 168.111799 284.806983 
L 168.872114 284.410053 
L 170.392744 284.130465 
L 171.153059 284.253334 
L 171.913374 283.96986 
L 172.67369 283.115771 
L 174.19432 281.181162 
L 175.71495 279.94159 
L 176.475265 279.22974 
L 177.995895 277.478126 
L 178.75621 276.385703 
L 179.516525 275.851781 
L 183.318101 274.829067 
L 184.838731 275.116718 
L 185.599046 275.289687 
L 187.119676 275.129225 
L 187.879991 274.544479 
L 188.640307 274.293425 
L 189.400622 273.871852 
L 190.921252 273.969191 
L 196.243458 273.912971 
L 198.524403 273.571604 
L 199.284718 273.037954 
L 200.045033 272.745125 
L 200.805348 272.239895 
L 201.565663 272.041696 
L 202.325978 272.042299 
L 204.606924 272.42369 
L 205.367239 272.17981 
L 207.648184 272.238646 
L 210.689444 273.030716 
L 211.449759 273.060603 
L 212.210075 272.974739 
L 213.730705 273.11387 
L 215.251335 273.247577 
L 220.573541 273.197627 
L 222.094171 272.894142 
L 225.135431 272.794646 
L 228.176692 272.759321 
L 231.217952 273.0312 
L 231.978267 273.754997 
L 232.738582 274.926371 
L 233.498897 275.576681 
L 234.259212 275.913887 
L 236.540158 276.400604 
L 238.060788 275.966717 
L 240.341733 274.702513 
L 241.862363 273.155689 
L 243.382993 271.312677 
L 244.903624 269.081433 
L 247.184569 265.163876 
L 247.944884 264.88628 
L 248.705199 264.775185 
L 250.986144 263.90686 
L 251.746459 263.709713 
L 253.26709 263.08236 
L 254.027405 262.906687 
L 254.78772 263.059558 
L 255.548035 263.330962 
L 258.589295 263.437826 
L 260.109925 263.197291 
L 260.870241 263.442603 
L 261.630556 265.033442 
L 262.390871 265.967413 
L 263.151186 267.130306 
L 263.911501 267.856898 
L 264.671816 268.426845 
L 265.432131 269.180812 
L 266.952761 269.925467 
L 268.473392 270.411383 
L 269.994022 270.517198 
L 272.274967 270.426386 
L 273.795597 270.103434 
L 275.316227 269.135288 
L 277.597173 268.877072 
L 279.117803 268.347642 
L 279.878118 268.193916 
L 280.638433 267.701203 
L 282.159063 267.344444 
L 282.919378 267.256498 
L 283.679693 267.044939 
L 288.241584 267.038448 
L 289.001899 267.341658 
L 290.522529 267.71548 
L 291.282844 267.482523 
L 293.56379 267.469925 
L 295.08442 267.390359 
L 296.60505 267.427947 
L 297.365365 267.987906 
L 298.12568 268.303523 
L 299.64631 268.264025 
L 300.406626 268.066459 
L 301.166941 267.584082 
L 301.927256 267.286853 
L 303.447886 266.389086 
L 305.728831 265.4055 
L 308.009776 263.558292 
L 308.770092 263.450445 
L 309.530407 262.92694 
L 310.290722 261.78903 
L 311.051037 260.95802 
L 311.811352 259.920106 
L 312.571667 259.495022 
L 314.852612 258.779746 
L 315.612927 258.111267 
L 316.373242 257.247569 
L 318.654188 256.371096 
L 319.414503 255.760459 
L 320.174818 255.557331 
L 320.935133 254.915996 
L 322.455763 252.291697 
L 323.216078 251.200037 
L 323.976393 250.816355 
L 324.736709 250.16095 
L 325.497024 248.805958 
L 326.257339 247.843202 
L 327.017654 246.611771 
L 327.777969 245.664836 
L 328.538284 244.440973 
L 330.058914 242.890316 
L 330.819229 241.433011 
L 331.579544 239.565725 
L 332.339859 238.406607 
L 333.100175 237.983737 
L 334.620805 237.323076 
L 336.90175 237.620212 
L 338.42238 237.54247 
L 339.182695 237.572487 
L 339.94301 237.786203 
L 341.463641 239.956952 
L 342.223956 241.112711 
L 342.984271 241.991126 
L 343.744586 241.836484 
L 344.504901 242.174661 
L 345.265216 242.080907 
L 346.025531 241.543175 
L 346.785846 241.443502 
L 347.546161 242.06492 
L 348.306476 241.874427 
L 349.066792 240.96555 
L 350.587422 238.549044 
L 352.108052 234.17839 
L 352.868367 233.385828 
L 353.628682 232.060372 
L 354.388997 229.075686 
L 355.149312 228.176701 
L 355.909627 229.335409 
L 356.669943 231.27111 
L 357.430258 232.732197 
L 358.190573 232.11773 
L 358.950888 228.811303 
L 359.711203 224.945065 
L 361.992148 210.402351 
L 362.752463 206.23474 
L 366.554039 181.889678 
L 367.314354 180.218902 
L 368.074669 179.574444 
L 368.834984 180.30741 
L 369.595299 180.069216 
L 370.355614 181.272918 
L 371.115929 182.982202 
L 371.876244 185.676835 
L 372.63656 185.035437 
L 373.396875 183.732519 
L 374.15719 183.275958 
L 374.917505 183.804661 
L 375.67782 183.964488 
L 376.438135 183.538035 
L 377.19845 182.536708 
L 377.958765 182.620477 
L 378.71908 183.560274 
L 379.479395 184.947942 
L 380.23971 185.76004 
L 381.000026 193.048832 
L 381.760341 197.523638 
L 382.520656 197.09184 
L 383.280971 198.953288 
L 384.041286 198.555051 
L 384.801601 197.161972 
L 385.561916 195.450407 
L 386.322231 192.665165 
L 387.082546 187.528265 
L 387.842861 185.178266 
L 388.603176 182.039618 
L 389.363492 179.947209 
L 390.884122 169.562943 
L 395.446012 130.011545 
L 396.206327 130.79587 
L 396.966643 129.543384 
L 397.726958 127.346286 
L 398.487273 126.607147 
L 398.487273 126.607147 
" style="fill:none;stroke:#ff7f0e;stroke-linecap:square;stroke-width:1.5;"/>
   </g>
   <g id="line2d_17">
    <path clip-path="url(#p45a6a2fd02)" d="M 88.278714 276.74186 
L 90.559659 275.819647 
L 92.840605 275.194883 
L 93.60092 275.034783 
L 98.16281 273.331957 
L 100.443756 272.955775 
L 102.724701 272.317134 
L 106.526276 270.592973 
L 107.286591 270.158218 
L 108.807222 269.65774 
L 109.567537 269.590405 
L 110.327852 269.397656 
L 112.608797 269.257127 
L 115.650057 268.997476 
L 117.931003 269.672201 
L 119.451633 270.304069 
L 123.253208 271.682426 
L 124.013524 271.902047 
L 124.773839 272.258497 
L 126.294469 273.105699 
L 127.054784 273.462203 
L 129.335729 276.392066 
L 130.856359 278.237897 
L 132.37699 279.714161 
L 136.93888 282.858867 
L 139.219825 284.376032 
L 142.261086 285.822103 
L 143.781716 285.18464 
L 146.822976 283.728135 
L 147.583291 283.308644 
L 149.864237 282.66683 
L 151.384867 282.309303 
L 153.665812 282.263909 
L 155.186442 282.00185 
L 155.946758 281.712408 
L 157.467388 281.48677 
L 158.988018 281.381367 
L 161.268963 280.893399 
L 163.549908 280.677729 
L 164.310224 280.471401 
L 168.111799 278.424578 
L 170.392744 276.991929 
L 171.913374 275.844535 
L 174.954635 274.401473 
L 178.75621 272.274635 
L 180.276841 271.726201 
L 182.557786 271.464065 
L 183.318101 271.377579 
L 184.838731 271.48561 
L 187.119676 271.813683 
L 188.640307 271.431927 
L 190.160937 271.028892 
L 196.243458 270.918576 
L 197.764088 270.722942 
L 200.045033 270.477325 
L 201.565663 270.297716 
L 203.846608 270.407268 
L 207.648184 270.724152 
L 214.49102 271.693548 
L 219.813225 271.871575 
L 224.375116 272.068349 
L 229.697322 271.780471 
L 231.978267 271.334795 
L 235.779842 269.394054 
L 238.821103 267.643178 
L 243.382993 264.299269 
L 245.663939 263.005812 
L 247.184569 262.189673 
L 250.986144 261.303102 
L 254.027405 260.99148 
L 258.589295 261.337669 
L 260.109925 261.154092 
L 260.870241 261.252384 
L 263.151186 262.289498 
L 264.671816 263.100021 
L 266.192446 263.755175 
L 268.473392 264.594732 
L 270.754337 264.938394 
L 273.795597 265.489424 
L 275.316227 266.071178 
L 276.076542 266.295665 
L 279.117803 265.888997 
L 282.159063 265.474641 
L 285.200324 265.414338 
L 286.720954 265.57258 
L 288.241584 265.577247 
L 289.762214 265.296859 
L 292.803475 264.494832 
L 295.844735 263.881384 
L 296.60505 263.627074 
L 298.885995 262.122278 
L 305.728831 257.408998 
L 307.249461 256.389804 
L 308.009776 255.819732 
L 309.530407 253.992778 
L 312.571667 251.200453 
L 314.092297 249.891756 
L 317.893873 246.313644 
L 320.174818 243.417951 
L 323.216078 239.296931 
L 323.976393 238.623163 
L 324.736709 238.280147 
L 327.017654 236.682358 
L 327.777969 235.736357 
L 331.579544 232.527844 
L 332.339859 231.953932 
L 333.100175 231.629089 
L 334.620805 231.354387 
L 336.141435 231.586281 
L 339.182695 231.153778 
L 339.94301 230.256704 
L 342.223956 226.66397 
L 343.744586 225.012066 
L 346.785846 220.923825 
L 348.306476 217.883871 
L 349.827107 214.112618 
L 352.108052 207.196827 
L 355.909627 192.976335 
L 358.950888 178.90554 
L 361.231833 171.129648 
L 361.992148 168.02336 
L 363.512778 163.695516 
L 365.793724 158.28183 
L 366.554039 156.870917 
L 367.314354 156.559492 
L 368.074669 156.382903 
L 368.834984 156.582433 
L 369.595299 156.522245 
L 370.355614 156.905338 
L 371.115929 157.832819 
L 371.876244 159.780986 
L 372.63656 161.330156 
L 373.396875 162.613947 
L 374.15719 163.446425 
L 374.917505 163.948727 
L 375.67782 164.059833 
L 377.19845 164.77026 
L 377.958765 164.724057 
L 378.71908 164.233895 
L 379.479395 163.496769 
L 380.23971 163.02204 
L 381.760341 158.394222 
L 383.280971 152.150993 
L 386.322231 138.802197 
L 389.363492 122.361383 
L 391.644437 108.314314 
L 393.925382 101.261448 
L 395.446012 98.164383 
L 396.206327 98.418322 
L 398.487273 96.441775 
L 398.487273 96.441775 
" style="fill:none;stroke:#2ca02c;stroke-linecap:square;stroke-width:1.5;"/>
   </g>
   <g id="line2d_18">
    <path clip-path="url(#p45a6a2fd02)" d="M 73.832727 280.651674 
L 74.593042 281.628511 
L 75.353357 279.970944 
L 76.873988 279.929047 
L 78.394618 276.478614 
L 79.154933 276.973236 
L 79.915248 277.946004 
L 80.675563 276.342985 
L 81.435878 277.087095 
L 82.196193 276.38768 
L 82.956508 276.703706 
L 83.716824 273.681651 
L 84.477139 273.677088 
L 85.237454 274.071333 
L 85.997769 273.325077 
L 86.758084 273.278064 
L 87.518399 274.150298 
L 88.278714 274.439969 
L 89.039029 274.02531 
L 89.799344 274.31201 
L 90.559659 275.469538 
L 91.319974 275.278622 
L 92.08029 275.706512 
L 93.60092 273.276615 
L 94.361235 271.159442 
L 95.12155 271.602078 
L 95.881865 270.662395 
L 96.64218 271.362391 
L 97.402495 271.179296 
L 98.923125 271.596984 
L 99.68344 272.097711 
L 100.443756 270.21173 
L 101.204071 269.621295 
L 101.964386 269.371376 
L 102.724701 268.987945 
L 103.485016 267.852976 
L 104.245331 269.181422 
L 105.005646 267.401715 
L 105.765961 267.049324 
L 106.526276 267.556797 
L 107.286591 267.011417 
L 108.046907 268.964854 
L 108.807222 268.865066 
L 109.567537 269.812735 
L 110.327852 267.747096 
L 111.088167 270.297505 
L 111.848482 270.237963 
L 112.608797 269.858033 
L 113.369112 269.977353 
L 114.129427 268.662404 
L 115.650057 271.501077 
L 116.410373 273.756161 
L 117.170688 273.642223 
L 117.931003 274.076722 
L 118.691318 274.839883 
L 119.451633 274.831882 
L 120.211948 273.170081 
L 120.972263 273.850618 
L 121.732578 273.85188 
L 122.492893 272.537111 
L 123.253208 272.14156 
L 124.013524 273.257478 
L 124.773839 276.941743 
L 125.534154 277.396972 
L 126.294469 277.591669 
L 127.054784 277.36804 
L 127.815099 290.443414 
L 128.575414 287.363052 
L 129.335729 289.288592 
L 130.096044 288.523386 
L 130.856359 289.885484 
L 131.616674 288.622263 
L 132.37699 288.3014 
L 133.137305 284.992187 
L 133.89762 284.878779 
L 134.657935 284.917498 
L 135.41825 286.613539 
L 136.178565 283.646068 
L 136.93888 282.467114 
L 137.699195 282.807558 
L 138.45951 282.711788 
L 139.219825 282.760093 
L 139.980141 284.792962 
L 140.740456 286.276281 
L 141.500771 283.319451 
L 142.261086 283.83115 
L 143.021401 282.875387 
L 143.781716 282.181813 
L 144.542031 282.582093 
L 145.302346 282.010185 
L 146.062661 282.41619 
L 146.822976 280.181169 
L 147.583291 279.911575 
L 149.103922 280.107119 
L 149.864237 281.85074 
L 150.624552 282.263613 
L 151.384867 280.845467 
L 152.145182 282.483115 
L 152.905497 281.957726 
L 153.665812 282.637738 
L 154.426127 281.222725 
L 155.186442 281.089144 
L 155.946758 280.487444 
L 156.707073 280.728365 
L 157.467388 281.909464 
L 158.227703 282.079564 
L 158.988018 280.869577 
L 159.748333 279.065251 
L 160.508648 279.297949 
L 161.268963 278.885917 
L 162.029278 278.868545 
L 163.549908 278.345415 
L 165.070539 273.96871 
L 165.830854 273.836012 
L 166.591169 273.319933 
L 167.351484 273.631782 
L 168.111799 273.70777 
L 168.872114 273.28181 
L 169.632429 271.780799 
L 170.392744 271.234023 
L 171.153059 268.604739 
L 171.913374 269.663192 
L 172.67369 275.153942 
L 173.434005 273.467957 
L 174.19432 274.015207 
L 174.954635 272.425498 
L 175.71495 270.344421 
L 177.23558 270.850426 
L 177.995895 269.51548 
L 178.75621 270.112078 
L 179.516525 269.452516 
L 180.276841 269.528051 
L 181.037156 271.409677 
L 181.797471 272.087106 
L 183.318101 271.978054 
L 184.078416 273.815487 
L 184.838731 273.407738 
L 185.599046 273.183865 
L 187.119676 270.922259 
L 187.879991 270.481188 
L 189.400622 270.420333 
L 190.160937 267.959674 
L 190.921252 270.293329 
L 191.681567 270.572739 
L 192.441882 269.249933 
L 193.202197 269.926092 
L 193.962512 270.176657 
L 194.722827 269.708182 
L 195.483142 269.972545 
L 197.003773 269.41915 
L 197.764088 270.803499 
L 198.524403 270.991046 
L 199.284718 271.036219 
L 200.045033 272.261683 
L 200.805348 270.739836 
L 202.325978 270.92706 
L 203.086293 271.663686 
L 204.606924 271.392564 
L 206.127554 270.305103 
L 206.887869 270.655614 
L 207.648184 271.672397 
L 208.408499 272.303444 
L 209.168814 272.145162 
L 209.929129 272.889172 
L 210.689444 272.438629 
L 211.449759 272.230966 
L 212.210075 272.189786 
L 212.97039 271.992068 
L 213.730705 272.443774 
L 215.251335 272.528339 
L 216.01165 271.977538 
L 216.771965 271.710075 
L 217.53228 271.648905 
L 218.292595 271.113907 
L 219.05291 272.229545 
L 219.813225 271.655506 
L 221.333856 271.583985 
L 222.094171 271.981168 
L 222.854486 271.930708 
L 223.614801 272.351771 
L 225.895746 272.180487 
L 227.416376 271.963492 
L 228.937007 270.649953 
L 230.457637 270.2619 
L 231.217952 269.786903 
L 231.978267 267.253615 
L 232.738582 264.305338 
L 233.498897 264.317443 
L 234.259212 264.011771 
L 235.019527 264.132318 
L 235.779842 262.717372 
L 236.540158 262.945019 
L 237.300473 263.534126 
L 238.060788 263.053877 
L 238.821103 263.297101 
L 239.581418 260.811613 
L 240.341733 260.680528 
L 241.102048 261.794573 
L 241.862363 261.372875 
L 242.622678 259.892605 
L 243.382993 260.65799 
L 244.143308 262.769667 
L 245.663939 260.972273 
L 246.424254 260.386214 
L 247.184569 260.331524 
L 247.944884 260.554665 
L 248.705199 258.526898 
L 249.465514 260.28774 
L 250.225829 260.651974 
L 250.986144 261.731549 
L 251.746459 261.337682 
L 252.506775 261.609448 
L 253.26709 261.038949 
L 254.027405 262.611596 
L 254.78772 262.266761 
L 255.548035 262.941398 
L 256.30835 262.166005 
L 257.068665 262.024712 
L 257.82898 261.413543 
L 258.589295 261.321543 
L 259.34961 260.090953 
L 260.109925 260.816423 
L 260.870241 262.938098 
L 261.630556 267.287634 
L 262.390871 266.655187 
L 263.151186 268.071869 
L 263.911501 267.840721 
L 264.671816 267.184373 
L 265.432131 268.407419 
L 266.192446 267.079184 
L 267.713076 266.668682 
L 268.473392 267.199504 
L 269.233707 265.618496 
L 269.994022 264.976121 
L 270.754337 264.098377 
L 271.514652 264.512852 
L 272.274967 264.526543 
L 273.035282 264.031664 
L 273.795597 264.875358 
L 274.555912 266.281911 
L 275.316227 266.260549 
L 276.076542 267.427835 
L 276.836858 265.6501 
L 277.597173 265.408521 
L 279.117803 265.308313 
L 279.878118 264.831636 
L 280.638433 265.256913 
L 281.398748 265.354663 
L 282.159063 265.849673 
L 282.919378 266.104848 
L 283.679693 266.157809 
L 285.200324 265.290837 
L 285.960639 266.008857 
L 286.720954 265.767211 
L 287.481269 264.682977 
L 288.241584 263.968582 
L 289.001899 262.931192 
L 289.762214 262.618302 
L 290.522529 261.895065 
L 291.282844 262.380193 
L 292.043159 262.387096 
L 292.803475 262.044119 
L 293.56379 262.840653 
L 294.324105 262.649536 
L 295.08442 262.016436 
L 295.844735 260.976377 
L 296.60505 260.268474 
L 297.365365 256.44322 
L 298.12568 255.683711 
L 298.885995 255.88948 
L 299.64631 255.084623 
L 300.406626 255.463663 
L 301.166941 255.339608 
L 301.927256 252.881611 
L 302.687571 254.441428 
L 303.447886 253.652084 
L 304.208201 253.190878 
L 304.968516 252.199905 
L 305.728831 252.346857 
L 306.489146 253.189594 
L 307.249461 251.193829 
L 308.009776 250.642672 
L 308.770092 244.465753 
L 309.530407 244.485349 
L 310.290722 247.693003 
L 311.051037 244.913864 
L 311.811352 245.579454 
L 312.571667 245.671701 
L 313.331982 243.979326 
L 314.092297 241.419919 
L 314.852612 241.293704 
L 315.612927 242.389947 
L 316.373242 242.852623 
L 317.133558 239.613534 
L 317.893873 235.498889 
L 318.654188 235.029912 
L 319.414503 234.901566 
L 320.174818 231.197533 
L 320.935133 231.102473 
L 321.695448 232.282109 
L 322.455763 232.462053 
L 323.216078 229.105898 
L 323.976393 230.990393 
L 324.736709 237.625031 
L 325.497024 237.73775 
L 326.257339 235.23355 
L 327.017654 233.259254 
L 327.777969 226.751671 
L 328.538284 230.681923 
L 329.298599 228.826265 
L 330.058914 227.861691 
L 330.819229 231.275085 
L 331.579544 229.120291 
L 332.339859 228.13531 
L 333.100175 229.002019 
L 333.86049 232.716766 
L 334.620805 231.720677 
L 335.38112 233.003624 
L 336.141435 233.934251 
L 336.90175 230.613621 
L 337.662065 229.073673 
L 338.42238 228.616801 
L 339.182695 227.88631 
L 339.94301 219.683547 
L 340.703326 213.387416 
L 341.463641 212.005413 
L 342.223956 208.983057 
L 342.984271 210.603154 
L 343.744586 213.792352 
L 344.504901 209.060544 
L 345.265216 211.593287 
L 346.025531 209.437934 
L 346.785846 205.226751 
L 347.546161 197.743608 
L 348.306476 198.594639 
L 349.066792 195.178045 
L 349.827107 193.83433 
L 350.587422 187.23844 
L 351.347737 186.936105 
L 352.108052 185.06113 
L 352.868367 172.977597 
L 353.628682 169.38212 
L 354.388997 173.756479 
L 355.149312 165.070912 
L 356.669943 141.647834 
L 357.430258 136.735062 
L 358.190573 138.409168 
L 358.950888 147.176004 
L 359.711203 158.92225 
L 360.471518 164.963683 
L 361.231833 150.687987 
L 361.992148 143.100988 
L 362.752463 153.295928 
L 363.512778 156.485449 
L 364.273093 157.278367 
L 365.033409 153.782636 
L 365.793724 156.916095 
L 366.554039 158.71783 
L 367.314354 178.832635 
L 368.074669 169.445816 
L 368.834984 173.372717 
L 369.595299 172.552735 
L 370.355614 172.732758 
L 371.115929 171.600445 
L 371.876244 180.611157 
L 372.63656 167.718469 
L 373.396875 164.084998 
L 374.15719 163.825557 
L 374.917505 168.968287 
L 375.67782 167.185803 
L 377.19845 149.355631 
L 377.958765 152.371874 
L 378.71908 146.682207 
L 379.479395 142.535854 
L 380.23971 144.28805 
L 381.000026 111.681296 
L 381.760341 111.396275 
L 382.520656 118.48561 
L 383.280971 104.928257 
L 384.041286 107.486645 
L 384.801601 108.342246 
L 385.561916 102.221956 
L 386.322231 105.231891 
L 387.082546 99.843448 
L 387.842861 87.179195 
L 388.603176 89.563924 
L 389.363492 70.837329 
L 390.123807 70.943626 
L 390.884122 64.299954 
L 391.644437 78.611018 
L 392.404752 101.069199 
L 393.165067 97.480769 
L 393.925382 108.802412 
L 394.685697 112.139158 
L 395.446012 112.743448 
L 396.206327 116.760085 
L 396.966643 97.975341 
L 397.726958 102.783581 
L 398.487273 94.520279 
L 398.487273 94.520279 
" style="fill:none;stroke:#d62728;stroke-linecap:square;stroke-width:1.5;"/>
   </g>
   <g id="patch_3">
    <path d="M 57.6 307.584 
L 57.6 41.472 
" style="fill:none;stroke:#000000;stroke-linecap:square;stroke-linejoin:miter;stroke-width:0.8;"/>
   </g>
   <g id="patch_4">
    <path d="M 414.72 307.584 
L 414.72 41.472 
" style="fill:none;stroke:#000000;stroke-linecap:square;stroke-linejoin:miter;stroke-width:0.8;"/>
   </g>
   <g id="patch_5">
    <path d="M 57.6 307.584 
L 414.72 307.584 
" style="fill:none;stroke:#000000;stroke-linecap:square;stroke-linejoin:miter;stroke-width:0.8;"/>
   </g>
   <g id="patch_6">
    <path d="M 57.6 41.472 
L 414.72 41.472 
" style="fill:none;stroke:#000000;stroke-linecap:square;stroke-linejoin:miter;stroke-width:0.8;"/>
   </g>
   <g id="text_15">
    <!-- Data source: coindesk -->
    <g transform="translate(180.640469 35.472)scale(0.1 -0.1)">
     <defs>
      <path d="M 19.671875 64.796875 
L 19.671875 8.109375 
L 31.59375 8.109375 
Q 46.6875 8.109375 53.6875 14.9375 
Q 60.6875 21.78125 60.6875 36.53125 
Q 60.6875 51.171875 53.6875 57.984375 
Q 46.6875 64.796875 31.59375 64.796875 
z
M 9.8125 72.90625 
L 30.078125 72.90625 
Q 51.265625 72.90625 61.171875 64.09375 
Q 71.09375 55.28125 71.09375 36.53125 
Q 71.09375 17.671875 61.125 8.828125 
Q 51.171875 0 30.078125 0 
L 9.8125 0 
z
" id="DejaVuSans-68"/>
      <path d="M 34.28125 27.484375 
Q 23.390625 27.484375 19.1875 25 
Q 14.984375 22.515625 14.984375 16.5 
Q 14.984375 11.71875 18.140625 8.90625 
Q 21.296875 6.109375 26.703125 6.109375 
Q 34.1875 6.109375 38.703125 11.40625 
Q 43.21875 16.703125 43.21875 25.484375 
L 43.21875 27.484375 
z
M 52.203125 31.203125 
L 52.203125 0 
L 43.21875 0 
L 43.21875 8.296875 
Q 40.140625 3.328125 35.546875 0.953125 
Q 30.953125 -1.421875 24.3125 -1.421875 
Q 15.921875 -1.421875 10.953125 3.296875 
Q 6 8.015625 6 15.921875 
Q 6 25.140625 12.171875 29.828125 
Q 18.359375 34.515625 30.609375 34.515625 
L 43.21875 34.515625 
L 43.21875 35.40625 
Q 43.21875 41.609375 39.140625 45 
Q 35.0625 48.390625 27.6875 48.390625 
Q 23 48.390625 18.546875 47.265625 
Q 14.109375 46.140625 10.015625 43.890625 
L 10.015625 52.203125 
Q 14.9375 54.109375 19.578125 55.046875 
Q 24.21875 56 28.609375 56 
Q 40.484375 56 46.34375 49.84375 
Q 52.203125 43.703125 52.203125 31.203125 
z
" id="DejaVuSans-97"/>
      <path d="M 18.3125 70.21875 
L 18.3125 54.6875 
L 36.8125 54.6875 
L 36.8125 47.703125 
L 18.3125 47.703125 
L 18.3125 18.015625 
Q 18.3125 11.328125 20.140625 9.421875 
Q 21.96875 7.515625 27.59375 7.515625 
L 36.8125 7.515625 
L 36.8125 0 
L 27.59375 0 
Q 17.1875 0 13.234375 3.875 
Q 9.28125 7.765625 9.28125 18.015625 
L 9.28125 47.703125 
L 2.6875 47.703125 
L 2.6875 54.6875 
L 9.28125 54.6875 
L 9.28125 70.21875 
z
" id="DejaVuSans-116"/>
      <path id="DejaVuSans-32"/>
      <path d="M 44.28125 53.078125 
L 44.28125 44.578125 
Q 40.484375 46.53125 36.375 47.5 
Q 32.28125 48.484375 27.875 48.484375 
Q 21.1875 48.484375 17.84375 46.4375 
Q 14.5 44.390625 14.5 40.28125 
Q 14.5 37.15625 16.890625 35.375 
Q 19.28125 33.59375 26.515625 31.984375 
L 29.59375 31.296875 
Q 39.15625 29.25 43.1875 25.515625 
Q 47.21875 21.78125 47.21875 15.09375 
Q 47.21875 7.46875 41.1875 3.015625 
Q 35.15625 -1.421875 24.609375 -1.421875 
Q 20.21875 -1.421875 15.453125 -0.5625 
Q 10.6875 0.296875 5.421875 2 
L 5.421875 11.28125 
Q 10.40625 8.6875 15.234375 7.390625 
Q 20.0625 6.109375 24.8125 6.109375 
Q 31.15625 6.109375 34.5625 8.28125 
Q 37.984375 10.453125 37.984375 14.40625 
Q 37.984375 18.0625 35.515625 20.015625 
Q 33.0625 21.96875 24.703125 23.78125 
L 21.578125 24.515625 
Q 13.234375 26.265625 9.515625 29.90625 
Q 5.8125 33.546875 5.8125 39.890625 
Q 5.8125 47.609375 11.28125 51.796875 
Q 16.75 56 26.8125 56 
Q 31.78125 56 36.171875 55.265625 
Q 40.578125 54.546875 44.28125 53.078125 
z
" id="DejaVuSans-115"/>
      <path d="M 30.609375 48.390625 
Q 23.390625 48.390625 19.1875 42.75 
Q 14.984375 37.109375 14.984375 27.296875 
Q 14.984375 17.484375 19.15625 11.84375 
Q 23.34375 6.203125 30.609375 6.203125 
Q 37.796875 6.203125 41.984375 11.859375 
Q 46.1875 17.53125 46.1875 27.296875 
Q 46.1875 37.015625 41.984375 42.703125 
Q 37.796875 48.390625 30.609375 48.390625 
z
M 30.609375 56 
Q 42.328125 56 49.015625 48.375 
Q 55.71875 40.765625 55.71875 27.296875 
Q 55.71875 13.875 49.015625 6.21875 
Q 42.328125 -1.421875 30.609375 -1.421875 
Q 18.84375 -1.421875 12.171875 6.21875 
Q 5.515625 13.875 5.515625 27.296875 
Q 5.515625 40.765625 12.171875 48.375 
Q 18.84375 56 30.609375 56 
z
" id="DejaVuSans-111"/>
      <path d="M 8.5 21.578125 
L 8.5 54.6875 
L 17.484375 54.6875 
L 17.484375 21.921875 
Q 17.484375 14.15625 20.5 10.265625 
Q 23.53125 6.390625 29.59375 6.390625 
Q 36.859375 6.390625 41.078125 11.03125 
Q 45.3125 15.671875 45.3125 23.6875 
L 45.3125 54.6875 
L 54.296875 54.6875 
L 54.296875 0 
L 45.3125 0 
L 45.3125 8.40625 
Q 42.046875 3.421875 37.71875 1 
Q 33.40625 -1.421875 27.6875 -1.421875 
Q 18.265625 -1.421875 13.375 4.4375 
Q 8.5 10.296875 8.5 21.578125 
z
M 31.109375 56 
z
" id="DejaVuSans-117"/>
      <path d="M 41.109375 46.296875 
Q 39.59375 47.171875 37.8125 47.578125 
Q 36.03125 48 33.890625 48 
Q 26.265625 48 22.1875 43.046875 
Q 18.109375 38.09375 18.109375 28.8125 
L 18.109375 0 
L 9.078125 0 
L 9.078125 54.6875 
L 18.109375 54.6875 
L 18.109375 46.1875 
Q 20.953125 51.171875 25.484375 53.578125 
Q 30.03125 56 36.53125 56 
Q 37.453125 56 38.578125 55.875 
Q 39.703125 55.765625 41.0625 55.515625 
z
" id="DejaVuSans-114"/>
      <path d="M 48.78125 52.59375 
L 48.78125 44.1875 
Q 44.96875 46.296875 41.140625 47.34375 
Q 37.3125 48.390625 33.40625 48.390625 
Q 24.65625 48.390625 19.8125 42.84375 
Q 14.984375 37.3125 14.984375 27.296875 
Q 14.984375 17.28125 19.8125 11.734375 
Q 24.65625 6.203125 33.40625 6.203125 
Q 37.3125 6.203125 41.140625 7.25 
Q 44.96875 8.296875 48.78125 10.40625 
L 48.78125 2.09375 
Q 45.015625 0.34375 40.984375 -0.53125 
Q 36.96875 -1.421875 32.421875 -1.421875 
Q 20.0625 -1.421875 12.78125 6.34375 
Q 5.515625 14.109375 5.515625 27.296875 
Q 5.515625 40.671875 12.859375 48.328125 
Q 20.21875 56 33.015625 56 
Q 37.15625 56 41.109375 55.140625 
Q 45.0625 54.296875 48.78125 52.59375 
z
" id="DejaVuSans-99"/>
      <path d="M 56.203125 29.59375 
L 56.203125 25.203125 
L 14.890625 25.203125 
Q 15.484375 15.921875 20.484375 11.0625 
Q 25.484375 6.203125 34.421875 6.203125 
Q 39.59375 6.203125 44.453125 7.46875 
Q 49.3125 8.734375 54.109375 11.28125 
L 54.109375 2.78125 
Q 49.265625 0.734375 44.1875 -0.34375 
Q 39.109375 -1.421875 33.890625 -1.421875 
Q 20.796875 -1.421875 13.15625 6.1875 
Q 5.515625 13.8125 5.515625 26.8125 
Q 5.515625 40.234375 12.765625 48.109375 
Q 20.015625 56 32.328125 56 
Q 43.359375 56 49.78125 48.890625 
Q 56.203125 41.796875 56.203125 29.59375 
z
M 47.21875 32.234375 
Q 47.125 39.59375 43.09375 43.984375 
Q 39.0625 48.390625 32.421875 48.390625 
Q 24.90625 48.390625 20.390625 44.140625 
Q 15.875 39.890625 15.1875 32.171875 
z
" id="DejaVuSans-101"/>
      <path d="M 11.71875 12.40625 
L 22.015625 12.40625 
L 22.015625 0 
L 11.71875 0 
z
M 11.71875 51.703125 
L 22.015625 51.703125 
L 22.015625 39.3125 
L 11.71875 39.3125 
z
" id="DejaVuSans-58"/>
      <path d="M 9.421875 54.6875 
L 18.40625 54.6875 
L 18.40625 0 
L 9.421875 0 
z
M 9.421875 75.984375 
L 18.40625 75.984375 
L 18.40625 64.59375 
L 9.421875 64.59375 
z
" id="DejaVuSans-105"/>
      <path d="M 54.890625 33.015625 
L 54.890625 0 
L 45.90625 0 
L 45.90625 32.71875 
Q 45.90625 40.484375 42.875 44.328125 
Q 39.84375 48.1875 33.796875 48.1875 
Q 26.515625 48.1875 22.3125 43.546875 
Q 18.109375 38.921875 18.109375 30.90625 
L 18.109375 0 
L 9.078125 0 
L 9.078125 54.6875 
L 18.109375 54.6875 
L 18.109375 46.1875 
Q 21.34375 51.125 25.703125 53.5625 
Q 30.078125 56 35.796875 56 
Q 45.21875 56 50.046875 50.171875 
Q 54.890625 44.34375 54.890625 33.015625 
z
" id="DejaVuSans-110"/>
      <path d="M 45.40625 46.390625 
L 45.40625 75.984375 
L 54.390625 75.984375 
L 54.390625 0 
L 45.40625 0 
L 45.40625 8.203125 
Q 42.578125 3.328125 38.25 0.953125 
Q 33.9375 -1.421875 27.875 -1.421875 
Q 17.96875 -1.421875 11.734375 6.484375 
Q 5.515625 14.40625 5.515625 27.296875 
Q 5.515625 40.1875 11.734375 48.09375 
Q 17.96875 56 27.875 56 
Q 33.9375 56 38.25 53.625 
Q 42.578125 51.265625 45.40625 46.390625 
z
M 14.796875 27.296875 
Q 14.796875 17.390625 18.875 11.75 
Q 22.953125 6.109375 30.078125 6.109375 
Q 37.203125 6.109375 41.296875 11.75 
Q 45.40625 17.390625 45.40625 27.296875 
Q 45.40625 37.203125 41.296875 42.84375 
Q 37.203125 48.484375 30.078125 48.484375 
Q 22.953125 48.484375 18.875 42.84375 
Q 14.796875 37.203125 14.796875 27.296875 
z
" id="DejaVuSans-100"/>
      <path d="M 9.078125 75.984375 
L 18.109375 75.984375 
L 18.109375 31.109375 
L 44.921875 54.6875 
L 56.390625 54.6875 
L 27.390625 29.109375 
L 57.625 0 
L 45.90625 0 
L 18.109375 26.703125 
L 18.109375 0 
L 9.078125 0 
z
" id="DejaVuSans-107"/>
     </defs>
     <use xlink:href="#DejaVuSans-68"/>
     <use x="77.001953" xlink:href="#DejaVuSans-97"/>
     <use x="138.28125" xlink:href="#DejaVuSans-116"/>
     <use x="177.490234" xlink:href="#DejaVuSans-97"/>
     <use x="238.769531" xlink:href="#DejaVuSans-32"/>
     <use x="270.556641" xlink:href="#DejaVuSans-115"/>
     <use x="322.65625" xlink:href="#DejaVuSans-111"/>
     <use x="383.837891" xlink:href="#DejaVuSans-117"/>
     <use x="447.216797" xlink:href="#DejaVuSans-114"/>
     <use x="486.080078" xlink:href="#DejaVuSans-99"/>
     <use x="541.060547" xlink:href="#DejaVuSans-101"/>
     <use x="602.583984" xlink:href="#DejaVuSans-58"/>
     <use x="636.275391" xlink:href="#DejaVuSans-32"/>
     <use x="668.0625" xlink:href="#DejaVuSans-99"/>
     <use x="723.042969" xlink:href="#DejaVuSans-111"/>
     <use x="784.224609" xlink:href="#DejaVuSans-105"/>
     <use x="812.007812" xlink:href="#DejaVuSans-110"/>
     <use x="875.386719" xlink:href="#DejaVuSans-100"/>
     <use x="938.863281" xlink:href="#DejaVuSans-101"/>
     <use x="1000.386719" xlink:href="#DejaVuSans-115"/>
     <use x="1052.486328" xlink:href="#DejaVuSans-107"/>
    </g>
   </g>
   <g id="legend_1">
    <g id="patch_7">
     <path d="M 64.6 108.1845 
L 155.732812 108.1845 
Q 157.732812 108.1845 157.732812 106.1845 
L 157.732812 48.472 
Q 157.732812 46.472 155.732812 46.472 
L 64.6 46.472 
Q 62.6 46.472 62.6 48.472 
L 62.6 106.1845 
Q 62.6 108.1845 64.6 108.1845 
z
" style="fill:#ffffff;opacity:0.8;stroke:#cccccc;stroke-linejoin:miter;"/>
    </g>
    <g id="line2d_19">
     <path d="M 66.6 54.570438 
L 86.6 54.570438 
" style="fill:none;stroke:#1f77b4;stroke-linecap:square;stroke-width:1.5;"/>
    </g>
    <g id="line2d_20"/>
    <g id="text_16">
     <!-- Upper Band -->
     <g transform="translate(94.6 58.070438)scale(0.1 -0.1)">
      <defs>
       <path d="M 8.6875 72.90625 
L 18.609375 72.90625 
L 18.609375 28.609375 
Q 18.609375 16.890625 22.84375 11.734375 
Q 27.09375 6.59375 36.625 6.59375 
Q 46.09375 6.59375 50.34375 11.734375 
Q 54.59375 16.890625 54.59375 28.609375 
L 54.59375 72.90625 
L 64.5 72.90625 
L 64.5 27.390625 
Q 64.5 13.140625 57.4375 5.859375 
Q 50.390625 -1.421875 36.625 -1.421875 
Q 22.796875 -1.421875 15.734375 5.859375 
Q 8.6875 13.140625 8.6875 27.390625 
z
" id="DejaVuSans-85"/>
       <path d="M 18.109375 8.203125 
L 18.109375 -20.796875 
L 9.078125 -20.796875 
L 9.078125 54.6875 
L 18.109375 54.6875 
L 18.109375 46.390625 
Q 20.953125 51.265625 25.265625 53.625 
Q 29.59375 56 35.59375 56 
Q 45.5625 56 51.78125 48.09375 
Q 58.015625 40.1875 58.015625 27.296875 
Q 58.015625 14.40625 51.78125 6.484375 
Q 45.5625 -1.421875 35.59375 -1.421875 
Q 29.59375 -1.421875 25.265625 0.953125 
Q 20.953125 3.328125 18.109375 8.203125 
z
M 48.6875 27.296875 
Q 48.6875 37.203125 44.609375 42.84375 
Q 40.53125 48.484375 33.40625 48.484375 
Q 26.265625 48.484375 22.1875 42.84375 
Q 18.109375 37.203125 18.109375 27.296875 
Q 18.109375 17.390625 22.1875 11.75 
Q 26.265625 6.109375 33.40625 6.109375 
Q 40.53125 6.109375 44.609375 11.75 
Q 48.6875 17.390625 48.6875 27.296875 
z
" id="DejaVuSans-112"/>
       <path d="M 19.671875 34.8125 
L 19.671875 8.109375 
L 35.5 8.109375 
Q 43.453125 8.109375 47.28125 11.40625 
Q 51.125 14.703125 51.125 21.484375 
Q 51.125 28.328125 47.28125 31.5625 
Q 43.453125 34.8125 35.5 34.8125 
z
M 19.671875 64.796875 
L 19.671875 42.828125 
L 34.28125 42.828125 
Q 41.5 42.828125 45.03125 45.53125 
Q 48.578125 48.25 48.578125 53.8125 
Q 48.578125 59.328125 45.03125 62.0625 
Q 41.5 64.796875 34.28125 64.796875 
z
M 9.8125 72.90625 
L 35.015625 72.90625 
Q 46.296875 72.90625 52.390625 68.21875 
Q 58.5 63.53125 58.5 54.890625 
Q 58.5 48.1875 55.375 44.234375 
Q 52.25 40.28125 46.1875 39.3125 
Q 53.46875 37.75 57.5 32.78125 
Q 61.53125 27.828125 61.53125 20.40625 
Q 61.53125 10.640625 54.890625 5.3125 
Q 48.25 0 35.984375 0 
L 9.8125 0 
z
" id="DejaVuSans-66"/>
      </defs>
      <use xlink:href="#DejaVuSans-85"/>
      <use x="73.193359" xlink:href="#DejaVuSans-112"/>
      <use x="136.669922" xlink:href="#DejaVuSans-112"/>
      <use x="200.146484" xlink:href="#DejaVuSans-101"/>
      <use x="261.669922" xlink:href="#DejaVuSans-114"/>
      <use x="302.783203" xlink:href="#DejaVuSans-32"/>
      <use x="334.570312" xlink:href="#DejaVuSans-66"/>
      <use x="403.173828" xlink:href="#DejaVuSans-97"/>
      <use x="464.453125" xlink:href="#DejaVuSans-110"/>
      <use x="527.832031" xlink:href="#DejaVuSans-100"/>
     </g>
    </g>
    <g id="line2d_21">
     <path d="M 66.6 69.248563 
L 86.6 69.248563 
" style="fill:none;stroke:#ff7f0e;stroke-linecap:square;stroke-width:1.5;"/>
    </g>
    <g id="line2d_22"/>
    <g id="text_17">
     <!-- Lower Band -->
     <g transform="translate(94.6 72.748563)scale(0.1 -0.1)">
      <defs>
       <path d="M 9.8125 72.90625 
L 19.671875 72.90625 
L 19.671875 8.296875 
L 55.171875 8.296875 
L 55.171875 0 
L 9.8125 0 
z
" id="DejaVuSans-76"/>
       <path d="M 4.203125 54.6875 
L 13.1875 54.6875 
L 24.421875 12.015625 
L 35.59375 54.6875 
L 46.1875 54.6875 
L 57.421875 12.015625 
L 68.609375 54.6875 
L 77.59375 54.6875 
L 63.28125 0 
L 52.6875 0 
L 40.921875 44.828125 
L 29.109375 0 
L 18.5 0 
z
" id="DejaVuSans-119"/>
      </defs>
      <use xlink:href="#DejaVuSans-76"/>
      <use x="53.962891" xlink:href="#DejaVuSans-111"/>
      <use x="115.144531" xlink:href="#DejaVuSans-119"/>
      <use x="196.931641" xlink:href="#DejaVuSans-101"/>
      <use x="258.455078" xlink:href="#DejaVuSans-114"/>
      <use x="299.568359" xlink:href="#DejaVuSans-32"/>
      <use x="331.355469" xlink:href="#DejaVuSans-66"/>
      <use x="399.958984" xlink:href="#DejaVuSans-97"/>
      <use x="461.238281" xlink:href="#DejaVuSans-110"/>
      <use x="524.617188" xlink:href="#DejaVuSans-100"/>
     </g>
    </g>
    <g id="line2d_23">
     <path d="M 66.6 83.926688 
L 86.6 83.926688 
" style="fill:none;stroke:#2ca02c;stroke-linecap:square;stroke-width:1.5;"/>
    </g>
    <g id="line2d_24"/>
    <g id="text_18">
     <!-- MA -->
     <g transform="translate(94.6 87.426688)scale(0.1 -0.1)">
      <defs>
       <path d="M 9.8125 72.90625 
L 24.515625 72.90625 
L 43.109375 23.296875 
L 61.8125 72.90625 
L 76.515625 72.90625 
L 76.515625 0 
L 66.890625 0 
L 66.890625 64.015625 
L 48.09375 14.015625 
L 38.1875 14.015625 
L 19.390625 64.015625 
L 19.390625 0 
L 9.8125 0 
z
" id="DejaVuSans-77"/>
       <path d="M 34.1875 63.1875 
L 20.796875 26.90625 
L 47.609375 26.90625 
z
M 28.609375 72.90625 
L 39.796875 72.90625 
L 67.578125 0 
L 57.328125 0 
L 50.6875 18.703125 
L 17.828125 18.703125 
L 11.1875 0 
L 0.78125 0 
z
" id="DejaVuSans-65"/>
      </defs>
      <use xlink:href="#DejaVuSans-77"/>
      <use x="86.279297" xlink:href="#DejaVuSans-65"/>
     </g>
    </g>
    <g id="line2d_25">
     <path d="M 66.6 98.604813 
L 86.6 98.604813 
" style="fill:none;stroke:#d62728;stroke-linecap:square;stroke-width:1.5;"/>
    </g>
    <g id="line2d_26"/>
    <g id="text_19">
     <!-- BTC-USD -->
     <g transform="translate(94.6 102.104813)scale(0.1 -0.1)">
      <defs>
       <path d="M -0.296875 72.90625 
L 61.375 72.90625 
L 61.375 64.59375 
L 35.5 64.59375 
L 35.5 0 
L 25.59375 0 
L 25.59375 64.59375 
L -0.296875 64.59375 
z
" id="DejaVuSans-84"/>
       <path d="M 64.40625 67.28125 
L 64.40625 56.890625 
Q 59.421875 61.53125 53.78125 63.8125 
Q 48.140625 66.109375 41.796875 66.109375 
Q 29.296875 66.109375 22.65625 58.46875 
Q 16.015625 50.828125 16.015625 36.375 
Q 16.015625 21.96875 22.65625 14.328125 
Q 29.296875 6.6875 41.796875 6.6875 
Q 48.140625 6.6875 53.78125 8.984375 
Q 59.421875 11.28125 64.40625 15.921875 
L 64.40625 5.609375 
Q 59.234375 2.09375 53.4375 0.328125 
Q 47.65625 -1.421875 41.21875 -1.421875 
Q 24.65625 -1.421875 15.125 8.703125 
Q 5.609375 18.84375 5.609375 36.375 
Q 5.609375 53.953125 15.125 64.078125 
Q 24.65625 74.21875 41.21875 74.21875 
Q 47.75 74.21875 53.53125 72.484375 
Q 59.328125 70.75 64.40625 67.28125 
z
" id="DejaVuSans-67"/>
       <path d="M 53.515625 70.515625 
L 53.515625 60.890625 
Q 47.90625 63.578125 42.921875 64.890625 
Q 37.9375 66.21875 33.296875 66.21875 
Q 25.25 66.21875 20.875 63.09375 
Q 16.5 59.96875 16.5 54.203125 
Q 16.5 49.359375 19.40625 46.890625 
Q 22.3125 44.4375 30.421875 42.921875 
L 36.375 41.703125 
Q 47.40625 39.59375 52.65625 34.296875 
Q 57.90625 29 57.90625 20.125 
Q 57.90625 9.515625 50.796875 4.046875 
Q 43.703125 -1.421875 29.984375 -1.421875 
Q 24.8125 -1.421875 18.96875 -0.25 
Q 13.140625 0.921875 6.890625 3.21875 
L 6.890625 13.375 
Q 12.890625 10.015625 18.65625 8.296875 
Q 24.421875 6.59375 29.984375 6.59375 
Q 38.421875 6.59375 43.015625 9.90625 
Q 47.609375 13.234375 47.609375 19.390625 
Q 47.609375 24.75 44.3125 27.78125 
Q 41.015625 30.8125 33.5 32.328125 
L 27.484375 33.5 
Q 16.453125 35.6875 11.515625 40.375 
Q 6.59375 45.0625 6.59375 53.421875 
Q 6.59375 63.09375 13.40625 68.65625 
Q 20.21875 74.21875 32.171875 74.21875 
Q 37.3125 74.21875 42.625 73.28125 
Q 47.953125 72.359375 53.515625 70.515625 
z
" id="DejaVuSans-83"/>
      </defs>
      <use xlink:href="#DejaVuSans-66"/>
      <use x="68.603516" xlink:href="#DejaVuSans-84"/>
      <use x="123.8125" xlink:href="#DejaVuSans-67"/>
      <use x="193.636719" xlink:href="#DejaVuSans-45"/>
      <use x="229.720703" xlink:href="#DejaVuSans-85"/>
      <use x="302.914062" xlink:href="#DejaVuSans-83"/>
      <use x="366.390625" xlink:href="#DejaVuSans-68"/>
     </g>
    </g>
   </g>
  </g>
  <g id="text_20">
   <!-- Bollinger Band -->
   <g transform="translate(171.90625 19.0695)scale(0.16 -0.16)">
    <defs>
     <path d="M 9.421875 75.984375 
L 18.40625 75.984375 
L 18.40625 0 
L 9.421875 0 
z
" id="DejaVuSans-108"/>
     <path d="M 45.40625 27.984375 
Q 45.40625 37.75 41.375 43.109375 
Q 37.359375 48.484375 30.078125 48.484375 
Q 22.859375 48.484375 18.828125 43.109375 
Q 14.796875 37.75 14.796875 27.984375 
Q 14.796875 18.265625 18.828125 12.890625 
Q 22.859375 7.515625 30.078125 7.515625 
Q 37.359375 7.515625 41.375 12.890625 
Q 45.40625 18.265625 45.40625 27.984375 
z
M 54.390625 6.78125 
Q 54.390625 -7.171875 48.1875 -13.984375 
Q 42 -20.796875 29.203125 -20.796875 
Q 24.46875 -20.796875 20.265625 -20.09375 
Q 16.0625 -19.390625 12.109375 -17.921875 
L 12.109375 -9.1875 
Q 16.0625 -11.328125 19.921875 -12.34375 
Q 23.78125 -13.375 27.78125 -13.375 
Q 36.625 -13.375 41.015625 -8.765625 
Q 45.40625 -4.15625 45.40625 5.171875 
L 45.40625 9.625 
Q 42.625 4.78125 38.28125 2.390625 
Q 33.9375 0 27.875 0 
Q 17.828125 0 11.671875 7.65625 
Q 5.515625 15.328125 5.515625 27.984375 
Q 5.515625 40.671875 11.671875 48.328125 
Q 17.828125 56 27.875 56 
Q 33.9375 56 38.28125 53.609375 
Q 42.625 51.21875 45.40625 46.390625 
L 45.40625 54.6875 
L 54.390625 54.6875 
z
" id="DejaVuSans-103"/>
    </defs>
    <use xlink:href="#DejaVuSans-66"/>
    <use x="68.603516" xlink:href="#DejaVuSans-111"/>
    <use x="129.785156" xlink:href="#DejaVuSans-108"/>
    <use x="157.568359" xlink:href="#DejaVuSans-108"/>
    <use x="185.351562" xlink:href="#DejaVuSans-105"/>
    <use x="213.134766" xlink:href="#DejaVuSans-110"/>
    <use x="276.513672" xlink:href="#DejaVuSans-103"/>
    <use x="339.990234" xlink:href="#DejaVuSans-101"/>
    <use x="401.513672" xlink:href="#DejaVuSans-114"/>
    <use x="442.626953" xlink:href="#DejaVuSans-32"/>
    <use x="474.414062" xlink:href="#DejaVuSans-66"/>
    <use x="543.017578" xlink:href="#DejaVuSans-97"/>
    <use x="604.296875" xlink:href="#DejaVuSans-110"/>
    <use x="667.675781" xlink:href="#DejaVuSans-100"/>
   </g>
  </g>
 </g>
 <defs>
  <clipPath id="p45a6a2fd02">
   <rect height="266.112" width="357.12" x="57.6" y="41.472"/>
  </clipPath>
 </defs>
</svg>
