<?xml version="1.0" encoding="utf-8" standalone="no"?>
<!DOCTYPE svg PUBLIC "-//W3C//DTD SVG 1.1//EN"
  "http://www.w3.org/Graphics/SVG/1.1/DTD/svg11.dtd">
<!-- Created with matplotlib (https://matplotlib.org/) -->
<svg height="345.6pt" version="1.1" viewBox="0 0 460.8 345.6" width="460.8pt" xmlns="http://www.w3.org/2000/svg" xmlns:xlink="http://www.w3.org/1999/xlink">
 <metadata>
  <rdf:RDF xmlns:cc="http://creativecommons.org/ns#" xmlns:dc="http://purl.org/dc/elements/1.1/" xmlns:rdf="http://www.w3.org/1999/02/22-rdf-syntax-ns#">
   <cc:Work>
    <dc:type rdf:resource="http://purl.org/dc/dcmitype/StillImage"/>
    <dc:date>2021-02-14T20:13:20.787560</dc:date>
    <dc:format>image/svg+xml</dc:format>
    <dc:creator>
     <cc:Agent>
      <dc:title>Matplotlib v3.3.2, https://matplotlib.org/</dc:title>
     </cc:Agent>
    </dc:creator>
   </cc:Work>
  </rdf:RDF>
 </metadata>
 <defs>
  <style type="text/css">*{stroke-linecap:butt;stroke-linejoin:round;}</style>
 </defs>
 <g id="figure_1">
  <g id="patch_1">
   <path d="M 0 345.6 
L 460.8 345.6 
L 460.8 0 
L 0 0 
z
" style="fill:#ffffff;"/>
  </g>
  <g id="axes_1">
   <g id="patch_2">
    <path d="M 57.6 307.584 
L 414.72 307.584 
L 414.72 41.472 
L 57.6 41.472 
z
" style="fill:#ffffff;"/>
   </g>
   <g id="PolyCollection_1">
    <defs>
     <path d="M 88.877694 -65.800234 
L 88.877694 -78.305028 
L 89.669534 -78.455309 
L 90.461375 -78.237473 
L 91.253215 -78.049588 
L 92.045055 -77.772352 
L 92.836896 -77.310624 
L 93.628736 -77.197747 
L 94.420576 -77.450187 
L 95.212417 -78.174644 
L 96.004257 -78.453603 
L 96.796098 -79.118211 
L 97.587938 -79.359823 
L 98.379778 -79.64275 
L 99.171619 -79.711817 
L 99.963459 -79.93733 
L 100.755299 -80.065912 
L 101.54714 -80.549285 
L 102.33898 -81.11616 
L 103.13082 -81.676336 
L 103.922661 -82.245967 
L 104.714501 -82.999053 
L 105.506341 -83.350434 
L 106.298182 -84.010622 
L 107.090022 -84.473567 
L 107.881863 -84.671961 
L 108.673703 -84.705206 
L 109.465543 -84.425922 
L 110.257384 -84.283721 
L 111.049224 -84.276618 
L 111.841064 -84.449771 
L 112.632905 -84.44079 
L 113.424745 -84.379875 
L 114.216585 -84.326402 
L 115.008426 -84.231463 
L 115.800266 -84.133939 
L 116.592106 -83.817635 
L 117.383947 -83.997596 
L 118.175787 -84.678864 
L 118.967627 -85.083552 
L 119.759468 -85.397859 
L 120.551308 -85.553433 
L 121.343149 -85.732858 
L 122.134989 -85.351177 
L 122.926829 -84.851844 
L 123.71867 -84.365625 
L 124.51051 -83.588243 
L 125.30235 -83.22217 
L 126.094191 -82.785616 
L 126.886031 -82.869729 
L 127.677871 -82.341018 
L 128.469712 -82.285111 
L 129.261552 -82.043841 
L 130.053392 -85.229725 
L 130.845233 -85.863521 
L 131.637073 -86.084567 
L 132.428914 -85.911876 
L 133.220754 -85.863066 
L 134.012594 -85.688277 
L 134.804435 -85.247427 
L 135.596275 -84.522981 
L 136.388115 -83.821387 
L 137.179956 -83.028771 
L 137.971796 -81.829276 
L 138.763636 -80.631902 
L 139.555477 -79.378006 
L 140.347317 -77.617504 
L 141.139157 -75.493243 
L 141.930998 -73.418353 
L 142.722838 -72.109491 
L 143.514678 -70.692784 
L 144.306519 -69.352295 
L 145.098359 -67.599321 
L 145.8902 -67.668008 
L 146.68204 -68.109139 
L 147.47388 -68.194543 
L 148.265721 -68.378677 
L 149.057561 -68.04157 
L 149.849401 -68.287285 
L 150.641242 -68.442964 
L 151.433082 -68.97268 
L 152.224922 -69.392092 
L 153.016763 -69.44247 
L 153.808603 -69.111939 
L 154.600443 -69.304567 
L 155.392284 -69.303833 
L 156.184124 -69.347461 
L 156.975965 -69.349472 
L 157.767805 -69.46694 
L 158.559645 -69.436881 
L 159.351486 -68.963581 
L 160.143326 -69.010141 
L 160.935166 -68.82342 
L 161.727007 -68.767961 
L 162.518847 -68.82568 
L 163.310687 -69.238062 
L 164.102528 -69.548968 
L 164.894368 -69.883734 
L 165.686208 -70.142368 
L 166.478049 -70.425759 
L 167.269889 -70.753058 
L 168.061729 -71.805764 
L 168.85357 -73.412814 
L 169.64541 -74.686909 
L 170.437251 -75.930285 
L 171.229091 -76.811725 
L 172.020931 -77.553183 
L 172.812772 -78.183638 
L 173.604612 -79.163551 
L 174.396452 -80.114947 
L 175.188293 -81.649516 
L 175.980133 -82.612812 
L 176.771973 -82.403851 
L 177.563814 -82.186349 
L 178.355654 -81.94972 
L 179.147494 -82.033232 
L 179.939335 -82.323964 
L 180.731175 -82.46079 
L 181.523016 -82.379322 
L 182.314856 -82.407678 
L 183.106696 -82.092734 
L 183.898537 -82.231873 
L 184.690377 -82.516576 
L 185.482217 -82.510351 
L 186.274058 -82.491227 
L 187.065898 -82.441401 
L 187.857738 -82.370678 
L 188.649579 -82.420835 
L 189.441419 -82.454467 
L 190.233259 -82.428701 
L 191.0251 -81.911781 
L 191.81694 -81.701145 
L 192.60878 -81.563657 
L 193.400621 -81.616541 
L 194.192461 -81.543875 
L 194.984302 -82.180442 
L 195.776142 -82.186465 
L 196.567982 -82.18891 
L 197.359823 -82.405619 
L 198.151663 -82.340384 
L 198.943503 -82.332257 
L 199.735344 -82.28798 
L 200.527184 -82.216079 
L 201.319024 -82.372914 
L 202.110865 -82.550656 
L 202.902705 -82.554434 
L 203.694545 -82.546839 
L 204.486386 -82.247538 
L 205.278226 -82.038943 
L 206.070067 -81.73367 
L 206.861907 -81.636078 
L 207.653747 -81.636222 
L 208.445588 -81.687874 
L 209.237428 -81.711275 
L 210.029268 -81.712935 
L 210.821109 -81.094123 
L 211.612949 -81.092885 
L 212.404789 -81.088206 
L 213.19663 -80.86838 
L 213.98847 -80.853031 
L 214.78031 -80.816629 
L 215.572151 -80.755501 
L 216.363991 -80.625844 
L 217.155831 -80.365211 
L 217.947672 -79.940437 
L 218.739512 -79.846961 
L 219.531353 -79.794138 
L 220.323193 -79.734581 
L 221.115033 -79.748854 
L 221.906874 -79.599745 
L 222.698714 -79.465067 
L 223.490554 -79.352477 
L 224.282395 -79.429079 
L 225.074235 -79.39065 
L 225.866075 -79.359247 
L 226.657916 -79.206188 
L 227.449756 -78.86137 
L 228.241596 -78.546162 
L 229.033437 -78.512237 
L 229.825277 -78.513249 
L 230.617118 -78.511771 
L 231.408958 -78.447568 
L 232.200798 -78.438896 
L 232.992639 -78.441903 
L 233.784479 -78.449971 
L 234.576319 -78.562848 
L 235.36816 -78.859338 
L 236.16 -79.133181 
L 236.95184 -79.424591 
L 237.743681 -79.845002 
L 238.535521 -81.213728 
L 239.327361 -83.44421 
L 240.119202 -85.000802 
L 240.911042 -86.357285 
L 241.702882 -87.459373 
L 242.494723 -88.792639 
L 243.286563 -89.864197 
L 244.078404 -90.632151 
L 244.870244 -91.383971 
L 245.662084 -91.926632 
L 246.453925 -92.879322 
L 247.245765 -93.665754 
L 248.037605 -94.034347 
L 248.829446 -94.3211 
L 249.621286 -94.716161 
L 250.413126 -94.824088 
L 251.204967 -94.528438 
L 251.996807 -94.153101 
L 252.788647 -93.641459 
L 253.580488 -92.901661 
L 254.372328 -92.565658 
L 255.164169 -92.67974 
L 255.956009 -93.227443 
L 256.747849 -93.282817 
L 257.53969 -93.194583 
L 258.33153 -93.169736 
L 259.12337 -93.127117 
L 259.915211 -92.959866 
L 260.707051 -92.853953 
L 261.498891 -92.728576 
L 262.290732 -92.737186 
L 263.082572 -92.790225 
L 263.874412 -92.801996 
L 264.666253 -92.799418 
L 265.458093 -92.604351 
L 266.249933 -92.53986 
L 267.041774 -92.645935 
L 267.833614 -92.688055 
L 268.625455 -92.745088 
L 269.417295 -93.799271 
L 270.209135 -94.152271 
L 271.000976 -94.633512 
L 271.792816 -94.393823 
L 272.584656 -94.253706 
L 273.376497 -94.228451 
L 274.168337 -94.094533 
L 274.960177 -93.822037 
L 275.752018 -93.52149 
L 276.543858 -93.077583 
L 277.335698 -92.830571 
L 278.127539 -92.532393 
L 278.919379 -92.394028 
L 279.71122 -92.082465 
L 280.50306 -91.723199 
L 281.2949 -91.25135 
L 282.086741 -90.622846 
L 282.878581 -89.375438 
L 283.670421 -88.127941 
L 284.462262 -87.483699 
L 285.254102 -87.547816 
L 286.045942 -87.637809 
L 286.837783 -87.638132 
L 287.629623 -87.632527 
L 288.421463 -87.727971 
L 289.213304 -87.520034 
L 290.005144 -87.48566 
L 290.796984 -87.428307 
L 291.588825 -87.391365 
L 292.380665 -87.265676 
L 293.172506 -87.264059 
L 293.964346 -87.232795 
L 294.756186 -87.000117 
L 295.548027 -86.844264 
L 296.339867 -86.809415 
L 297.131707 -86.829983 
L 297.923548 -87.41241 
L 298.715388 -88.042218 
L 299.507228 -88.789666 
L 300.299069 -89.107792 
L 301.090909 -89.511235 
L 301.882749 -89.94849 
L 302.67459 -90.163016 
L 303.46643 -90.38637 
L 304.258271 -90.710571 
L 305.050111 -91.230697 
L 305.841951 -91.850852 
L 306.633792 -93.607172 
L 307.425632 -95.196271 
L 308.217472 -96.376877 
L 309.009313 -97.594668 
L 309.801153 -98.513615 
L 310.592993 -99.197775 
L 311.384834 -100.358036 
L 312.176674 -100.992941 
L 312.968514 -101.713414 
L 313.760355 -102.470301 
L 314.552195 -103.324093 
L 315.344035 -104.039138 
L 316.135876 -104.403854 
L 316.927716 -105.016331 
L 317.719557 -105.597329 
L 318.511397 -107.621717 
L 319.303237 -109.134954 
L 320.095078 -109.479561 
L 320.886918 -110.38691 
L 321.678758 -110.891341 
L 322.470599 -111.654527 
L 323.262439 -112.706757 
L 324.054279 -114.195256 
L 324.84612 -115.494882 
L 325.63796 -116.242647 
L 326.4298 -116.693255 
L 327.221641 -117.931529 
L 328.013481 -119.881634 
L 328.805322 -121.616933 
L 329.597162 -123.042834 
L 330.389002 -125.263227 
L 331.180843 -126.999062 
L 331.972683 -127.847502 
L 332.764523 -128.566973 
L 333.556364 -129.809966 
L 334.348204 -130.938069 
L 335.140044 -130.973915 
L 335.931885 -130.553191 
L 336.723725 -130.559366 
L 337.515565 -130.560056 
L 338.307406 -131.66617 
L 339.099246 -131.79009 
L 339.891086 -132.405032 
L 340.682927 -133.021253 
L 341.474767 -132.616505 
L 342.266608 -132.038261 
L 343.058448 -132.025041 
L 343.850288 -132.29051 
L 344.642129 -132.216449 
L 345.433969 -132.160292 
L 346.225809 -132.106674 
L 347.01765 -132.056382 
L 347.80949 -132.160525 
L 348.60133 -132.447022 
L 349.393171 -132.523357 
L 350.185011 -132.921794 
L 350.976851 -135.271814 
L 351.768692 -139.504883 
L 352.560532 -143.381099 
L 353.352373 -147.575114 
L 354.144213 -150.493253 
L 354.936053 -152.289028 
L 355.727894 -154.998228 
L 356.519734 -156.792564 
L 357.311574 -158.719037 
L 358.103415 -161.398897 
L 358.895255 -165.683279 
L 359.687095 -169.019229 
L 360.478936 -172.349034 
L 361.270776 -175.407674 
L 362.062616 -179.311377 
L 362.854457 -182.15442 
L 363.646297 -185.02813 
L 364.438137 -190.666038 
L 365.229978 -196.047588 
L 366.021818 -198.889686 
L 366.813659 -204.229414 
L 367.605499 -212.647419 
L 368.397339 -223.147686 
L 369.18918 -233.313716 
L 369.98102 -241.044182 
L 370.77286 -244.971144 
L 371.564701 -246.314293 
L 372.356541 -245.866759 
L 373.148381 -246.892947 
L 373.940222 -248.898341 
L 374.732062 -249.222727 
L 375.523902 -248.281951 
L 376.315743 -247.006146 
L 377.107583 -245.444236 
L 377.899424 -243.950658 
L 378.691264 -241.632697 
L 379.483104 -240.406196 
L 380.274945 -240.06528 
L 381.066785 -240.456085 
L 381.858625 -240.318189 
L 382.650466 -240.830263 
L 383.442306 -240.659759 
L 384.234146 -239.25328 
L 385.025987 -234.87626 
L 385.817827 -230.346195 
L 386.609667 -227.863155 
L 387.401508 -227.306157 
L 388.193348 -227.233141 
L 388.985188 -225.803086 
L 389.777029 -223.899078 
L 390.568869 -224.105273 
L 391.36071 -226.352598 
L 392.15255 -229.702212 
L 392.94439 -231.763951 
L 393.736231 -245.589129 
L 394.528071 -256.36503 
L 395.319911 -262.922714 
L 396.111752 -272.652554 
L 396.903592 -279.897813 
L 397.695432 -285.782588 
L 398.487273 -292.032 
L 398.487273 -167.196796 
L 398.487273 -167.196796 
L 397.695432 -165.193567 
L 396.903592 -163.563096 
L 396.111752 -163.096997 
L 395.319911 -165.27565 
L 394.528071 -164.77027 
L 393.736231 -170.007618 
L 392.94439 -178.538479 
L 392.15255 -179.488965 
L 391.36071 -181.113103 
L 390.568869 -182.213048 
L 389.777029 -182.311092 
L 388.985188 -181.139131 
L 388.193348 -180.640007 
L 387.401508 -180.82707 
L 386.609667 -181.445868 
L 385.817827 -180.911505 
L 385.025987 -179.386559 
L 384.234146 -178.635863 
L 383.442306 -181.789682 
L 382.650466 -183.790242 
L 381.858625 -185.199064 
L 381.066785 -184.920281 
L 380.274945 -185.778149 
L 379.483104 -185.023871 
L 378.691264 -183.068382 
L 377.899424 -177.447731 
L 377.107583 -172.405202 
L 376.315743 -166.155609 
L 375.523902 -160.443996 
L 374.732062 -154.574727 
L 373.940222 -149.696921 
L 373.148381 -144.431066 
L 372.356541 -138.581114 
L 371.564701 -132.676013 
L 370.77286 -128.150937 
L 369.98102 -124.281068 
L 369.18918 -123.561892 
L 368.397339 -125.27196 
L 367.605499 -127.53752 
L 366.813659 -128.89368 
L 366.021818 -127.841502 
L 365.229978 -124.348201 
L 364.438137 -122.796877 
L 363.646297 -121.869256 
L 362.854457 -119.411466 
L 362.062616 -116.753808 
L 361.270776 -115.301118 
L 360.478936 -113.92551 
L 359.687095 -112.861753 
L 358.895255 -112.638799 
L 358.103415 -113.366112 
L 357.311574 -113.249453 
L 356.519734 -112.620088 
L 355.727894 -112.510357 
L 354.936053 -112.906162 
L 354.144213 -112.725168 
L 353.352373 -113.753272 
L 352.560532 -115.105981 
L 351.768692 -116.263557 
L 350.976851 -117.646643 
L 350.185011 -117.896778 
L 349.393171 -117.93191 
L 348.60133 -117.951001 
L 347.80949 -117.84092 
L 347.01765 -117.749781 
L 346.225809 -118.030923 
L 345.433969 -118.188691 
L 344.642129 -117.760241 
L 343.850288 -117.415447 
L 343.058448 -116.920517 
L 342.266608 -115.563876 
L 341.474767 -113.37839 
L 340.682927 -111.672749 
L 339.891086 -110.716876 
L 339.099246 -109.857848 
L 338.307406 -108.425428 
L 337.515565 -107.317127 
L 336.723725 -105.875851 
L 335.931885 -104.749034 
L 335.140044 -103.16314 
L 334.348204 -102.396049 
L 333.556364 -101.946985 
L 332.764523 -100.669297 
L 331.972683 -99.196386 
L 331.180843 -97.597797 
L 330.389002 -96.847173 
L 329.597162 -96.609431 
L 328.805322 -95.894737 
L 328.013481 -95.450482 
L 327.221641 -95.183538 
L 326.4298 -94.868905 
L 325.63796 -93.858026 
L 324.84612 -93.075633 
L 324.054279 -92.761159 
L 323.262439 -92.556129 
L 322.470599 -92.238469 
L 321.678758 -91.740947 
L 320.886918 -90.526163 
L 320.095078 -89.553543 
L 319.303237 -88.221724 
L 318.511397 -87.60901 
L 317.719557 -87.482785 
L 316.927716 -86.729349 
L 316.135876 -86.031757 
L 315.344035 -85.320798 
L 314.552195 -84.918313 
L 313.760355 -84.552727 
L 312.968514 -84.169601 
L 312.176674 -83.682623 
L 311.384834 -83.118848 
L 310.592993 -82.770968 
L 309.801153 -82.206391 
L 309.009313 -81.975157 
L 308.217472 -81.950136 
L 307.425632 -81.928928 
L 306.633792 -82.298329 
L 305.841951 -82.95371 
L 305.050111 -82.978574 
L 304.258271 -82.997703 
L 303.46643 -82.992411 
L 302.67459 -82.904579 
L 301.882749 -82.824811 
L 301.090909 -82.868294 
L 300.299069 -82.889833 
L 299.507228 -82.617178 
L 298.715388 -82.853686 
L 297.923548 -83.054703 
L 297.131707 -83.409583 
L 296.339867 -83.422768 
L 295.548027 -83.406228 
L 294.756186 -83.397186 
L 293.964346 -83.388112 
L 293.172506 -83.393683 
L 292.380665 -83.401986 
L 291.588825 -83.154375 
L 290.796984 -83.051442 
L 290.005144 -82.870102 
L 289.213304 -82.633889 
L 288.421463 -82.057214 
L 287.629623 -81.877291 
L 286.837783 -81.575291 
L 286.045942 -81.257642 
L 285.254102 -81.201724 
L 284.462262 -81.074183 
L 283.670421 -80.955424 
L 282.878581 -80.345111 
L 282.086741 -79.822298 
L 281.2949 -79.609735 
L 280.50306 -79.444313 
L 279.71122 -79.377864 
L 278.919379 -79.340978 
L 278.127539 -79.338026 
L 277.335698 -79.356954 
L 276.543858 -79.461872 
L 275.752018 -79.739001 
L 274.960177 -80.030592 
L 274.168337 -80.41017 
L 273.376497 -80.902143 
L 272.584656 -81.784592 
L 271.792816 -82.451662 
L 271.000976 -83.302071 
L 270.209135 -84.66313 
L 269.417295 -85.756257 
L 268.625455 -87.618189 
L 267.833614 -87.905303 
L 267.041774 -87.831224 
L 266.249933 -87.62378 
L 265.458093 -87.636952 
L 264.666253 -87.619896 
L 263.874412 -87.69361 
L 263.082572 -87.748853 
L 262.290732 -88.066506 
L 261.498891 -88.245428 
L 260.707051 -88.039819 
L 259.915211 -87.698077 
L 259.12337 -87.305561 
L 258.33153 -87.074818 
L 257.53969 -86.934589 
L 256.747849 -86.439013 
L 255.956009 -86.058523 
L 255.164169 -85.928497 
L 254.372328 -85.603597 
L 253.580488 -84.457427 
L 252.788647 -82.617364 
L 251.996807 -81.018457 
L 251.204967 -79.624955 
L 250.413126 -78.40699 
L 249.621286 -77.267639 
L 248.829446 -76.249915 
L 248.037605 -75.286482 
L 247.245765 -74.439499 
L 246.453925 -73.87198 
L 245.662084 -73.47697 
L 244.870244 -72.959865 
L 244.078404 -72.672734 
L 243.286563 -72.45204 
L 242.494723 -72.512486 
L 241.702882 -72.80013 
L 240.911042 -73.021698 
L 240.119202 -73.416367 
L 239.327361 -74.177494 
L 238.535521 -75.54848 
L 237.743681 -76.395618 
L 236.95184 -76.559636 
L 236.16 -76.58578 
L 235.36816 -76.627287 
L 234.576319 -76.713827 
L 233.784479 -76.747432 
L 232.992639 -76.729015 
L 232.200798 -76.711367 
L 231.408958 -76.672483 
L 230.617118 -76.533322 
L 229.825277 -76.553055 
L 229.033437 -76.559723 
L 228.241596 -76.556031 
L 227.449756 -76.395968 
L 226.657916 -76.200831 
L 225.866075 -76.146459 
L 225.074235 -76.145831 
L 224.282395 -76.191697 
L 223.490554 -76.203953 
L 222.698714 -76.175847 
L 221.906874 -76.146615 
L 221.115033 -76.142368 
L 220.323193 -76.18785 
L 219.531353 -76.29886 
L 218.739512 -76.416065 
L 217.947672 -76.4617 
L 217.155831 -76.361204 
L 216.363991 -76.396184 
L 215.572151 -76.55516 
L 214.78031 -76.866338 
L 213.98847 -77.060331 
L 213.19663 -77.323229 
L 212.404789 -77.386931 
L 211.612949 -77.391951 
L 210.821109 -77.392091 
L 210.029268 -77.106652 
L 209.237428 -77.222103 
L 208.445588 -77.362983 
L 207.653747 -77.553035 
L 206.861907 -77.553741 
L 206.070067 -77.321767 
L 205.278226 -76.730443 
L 204.486386 -76.387712 
L 203.694545 -75.763124 
L 202.902705 -75.640009 
L 202.110865 -75.498103 
L 201.319024 -75.363586 
L 200.527184 -75.320931 
L 199.735344 -75.301054 
L 198.943503 -75.2867 
L 198.151663 -75.286132 
L 197.359823 -75.268956 
L 196.567982 -75.298341 
L 195.776142 -75.297785 
L 194.984302 -75.297829 
L 194.192461 -75.411712 
L 193.400621 -74.918299 
L 192.60878 -74.624464 
L 191.81694 -73.940073 
L 191.0251 -73.8768 
L 190.233259 -73.752266 
L 189.441419 -73.954711 
L 188.649579 -74.178761 
L 187.857738 -74.29138 
L 187.065898 -74.01821 
L 186.274058 -73.783043 
L 185.482217 -73.619628 
L 184.690377 -73.329423 
L 183.898537 -73.094387 
L 183.106696 -72.46948 
L 182.314856 -71.190899 
L 181.523016 -70.160712 
L 180.731175 -69.140797 
L 179.939335 -68.307642 
L 179.147494 -67.550447 
L 178.355654 -66.856837 
L 177.563814 -65.817966 
L 176.771973 -64.592556 
L 175.980133 -63.592922 
L 175.188293 -63.261142 
L 174.396452 -63.40495 
L 173.604612 -63.202895 
L 172.812772 -63.077717 
L 172.020931 -62.613147 
L 171.229091 -62.389024 
L 170.437251 -62.234497 
L 169.64541 -62.597078 
L 168.85357 -62.8848 
L 168.061729 -63.569331 
L 167.269889 -64.13906 
L 166.478049 -64.27337 
L 165.686208 -64.398537 
L 164.894368 -64.50354 
L 164.102528 -64.425121 
L 163.310687 -64.418584 
L 162.518847 -64.419352 
L 161.727007 -64.323486 
L 160.935166 -64.174883 
L 160.143326 -63.763247 
L 159.351486 -63.506543 
L 158.559645 -62.355713 
L 157.767805 -61.892157 
L 156.975965 -61.82969 
L 156.184124 -61.823034 
L 155.392284 -61.767197 
L 154.600443 -61.768336 
L 153.808603 -61.633179 
L 153.016763 -60.79353 
L 152.224922 -60.484972 
L 151.433082 -60.345905 
L 150.641242 -60.290666 
L 149.849401 -59.464394 
L 149.057561 -58.722156 
L 148.265721 -57.510838 
L 147.47388 -56.932662 
L 146.68204 -56.233131 
L 145.8902 -56.067846 
L 145.098359 -55.250765 
L 144.306519 -54.254238 
L 143.514678 -53.584133 
L 142.722838 -53.206668 
L 141.930998 -52.816719 
L 141.139157 -51.854023 
L 140.347317 -50.966909 
L 139.555477 -50.408469 
L 138.763636 -50.162906 
L 137.971796 -50.112 
L 137.179956 -50.485938 
L 136.388115 -50.87375 
L 135.596275 -51.347117 
L 134.804435 -51.900226 
L 134.012594 -53.175097 
L 133.220754 -54.740249 
L 132.428914 -56.843164 
L 131.637073 -58.839498 
L 130.845233 -61.47465 
L 130.053392 -64.143282 
L 129.261552 -69.738495 
L 128.469712 -70.331736 
L 127.677871 -71.129543 
L 126.886031 -71.730261 
L 126.094191 -72.648759 
L 125.30235 -72.726296 
L 124.51051 -72.732028 
L 123.71867 -72.601377 
L 122.926829 -72.85194 
L 122.134989 -73.148636 
L 121.343149 -73.442089 
L 120.551308 -74.282848 
L 119.759468 -75.256175 
L 118.967627 -76.166076 
L 118.175787 -77.070628 
L 117.383947 -78.235844 
L 116.592106 -78.566712 
L 115.800266 -78.003857 
L 115.008426 -77.562867 
L 114.216585 -77.299245 
L 113.424745 -77.091129 
L 112.632905 -76.89861 
L 111.841064 -76.846923 
L 111.049224 -76.568885 
L 110.257384 -76.404163 
L 109.465543 -75.745631 
L 108.673703 -74.811151 
L 107.881863 -73.826715 
L 107.090022 -73.12134 
L 106.298182 -72.598776 
L 105.506341 -72.450178 
L 104.714501 -72.234627 
L 103.922661 -72.216766 
L 103.13082 -72.182191 
L 102.33898 -72.285125 
L 101.54714 -72.418506 
L 100.755299 -72.450148 
L 99.963459 -72.393879 
L 99.171619 -72.3754 
L 98.379778 -71.825893 
L 97.587938 -71.499227 
L 96.796098 -71.070815 
L 96.004257 -71.070562 
L 95.212417 -70.607023 
L 94.420576 -70.651029 
L 93.628736 -70.528705 
L 92.836896 -69.992099 
L 92.045055 -69.036163 
L 91.253215 -68.214406 
L 90.461375 -67.499673 
L 89.669534 -66.425509 
L 88.877694 -65.800234 
z
" id="me6d816ce53" style="stroke:#4b0082;stroke-opacity:0.3;"/>
    </defs>
    <g clip-path="url(#pe24610a701)">
     <use style="fill:#4b0082;fill-opacity:0.3;stroke:#4b0082;stroke-opacity:0.3;" x="0" xlink:href="#me6d816ce53" y="345.6"/>
    </g>
   </g>
   <g id="matplotlib.axis_1">
    <g id="xtick_1">
     <g id="line2d_1">
      <defs>
       <path d="M 0 0 
L 0 3.5 
" id="me1db61dc02" style="stroke:#000000;stroke-width:0.8;"/>
      </defs>
      <g>
       <use style="stroke:#000000;stroke-width:0.8;" x="73.832727" xlink:href="#me1db61dc02" y="307.584"/>
      </g>
     </g>
     <g id="text_1">
      <!-- 2020-01 -->
      <g transform="translate(52.941321 322.182437)scale(0.1 -0.1)">
       <defs>
        <path d="M 19.1875 8.296875 
L 53.609375 8.296875 
L 53.609375 0 
L 7.328125 0 
L 7.328125 8.296875 
Q 12.9375 14.109375 22.625 23.890625 
Q 32.328125 33.6875 34.8125 36.53125 
Q 39.546875 41.84375 41.421875 45.53125 
Q 43.3125 49.21875 43.3125 52.78125 
Q 43.3125 58.59375 39.234375 62.25 
Q 35.15625 65.921875 28.609375 65.921875 
Q 23.96875 65.921875 18.8125 64.3125 
Q 13.671875 62.703125 7.8125 59.421875 
L 7.8125 69.390625 
Q 13.765625 71.78125 18.9375 73 
Q 24.125 74.21875 28.421875 74.21875 
Q 39.75 74.21875 46.484375 68.546875 
Q 53.21875 62.890625 53.21875 53.421875 
Q 53.21875 48.921875 51.53125 44.890625 
Q 49.859375 40.875 45.40625 35.40625 
Q 44.1875 33.984375 37.640625 27.21875 
Q 31.109375 20.453125 19.1875 8.296875 
z
" id="DejaVuSans-50"/>
        <path d="M 31.78125 66.40625 
Q 24.171875 66.40625 20.328125 58.90625 
Q 16.5 51.421875 16.5 36.375 
Q 16.5 21.390625 20.328125 13.890625 
Q 24.171875 6.390625 31.78125 6.390625 
Q 39.453125 6.390625 43.28125 13.890625 
Q 47.125 21.390625 47.125 36.375 
Q 47.125 51.421875 43.28125 58.90625 
Q 39.453125 66.40625 31.78125 66.40625 
z
M 31.78125 74.21875 
Q 44.046875 74.21875 50.515625 64.515625 
Q 56.984375 54.828125 56.984375 36.375 
Q 56.984375 17.96875 50.515625 8.265625 
Q 44.046875 -1.421875 31.78125 -1.421875 
Q 19.53125 -1.421875 13.0625 8.265625 
Q 6.59375 17.96875 6.59375 36.375 
Q 6.59375 54.828125 13.0625 64.515625 
Q 19.53125 74.21875 31.78125 74.21875 
z
" id="DejaVuSans-48"/>
        <path d="M 4.890625 31.390625 
L 31.203125 31.390625 
L 31.203125 23.390625 
L 4.890625 23.390625 
z
" id="DejaVuSans-45"/>
        <path d="M 12.40625 8.296875 
L 28.515625 8.296875 
L 28.515625 63.921875 
L 10.984375 60.40625 
L 10.984375 69.390625 
L 28.421875 72.90625 
L 38.28125 72.90625 
L 38.28125 8.296875 
L 54.390625 8.296875 
L 54.390625 0 
L 12.40625 0 
z
" id="DejaVuSans-49"/>
       </defs>
       <use xlink:href="#DejaVuSans-50"/>
       <use x="63.623047" xlink:href="#DejaVuSans-48"/>
       <use x="127.246094" xlink:href="#DejaVuSans-50"/>
       <use x="190.869141" xlink:href="#DejaVuSans-48"/>
       <use x="254.492188" xlink:href="#DejaVuSans-45"/>
       <use x="290.576172" xlink:href="#DejaVuSans-48"/>
       <use x="354.199219" xlink:href="#DejaVuSans-49"/>
      </g>
     </g>
    </g>
    <g id="xtick_2">
     <g id="line2d_2">
      <g>
       <use style="stroke:#000000;stroke-width:0.8;" x="121.343149" xlink:href="#me1db61dc02" y="307.584"/>
      </g>
     </g>
     <g id="text_2">
      <!-- 2020-03 -->
      <g transform="translate(100.451742 322.182437)scale(0.1 -0.1)">
       <defs>
        <path d="M 40.578125 39.3125 
Q 47.65625 37.796875 51.625 33 
Q 55.609375 28.21875 55.609375 21.1875 
Q 55.609375 10.40625 48.1875 4.484375 
Q 40.765625 -1.421875 27.09375 -1.421875 
Q 22.515625 -1.421875 17.65625 -0.515625 
Q 12.796875 0.390625 7.625 2.203125 
L 7.625 11.71875 
Q 11.71875 9.328125 16.59375 8.109375 
Q 21.484375 6.890625 26.8125 6.890625 
Q 36.078125 6.890625 40.9375 10.546875 
Q 45.796875 14.203125 45.796875 21.1875 
Q 45.796875 27.640625 41.28125 31.265625 
Q 36.765625 34.90625 28.71875 34.90625 
L 20.21875 34.90625 
L 20.21875 43.015625 
L 29.109375 43.015625 
Q 36.375 43.015625 40.234375 45.921875 
Q 44.09375 48.828125 44.09375 54.296875 
Q 44.09375 59.90625 40.109375 62.90625 
Q 36.140625 65.921875 28.71875 65.921875 
Q 24.65625 65.921875 20.015625 65.03125 
Q 15.375 64.15625 9.8125 62.3125 
L 9.8125 71.09375 
Q 15.4375 72.65625 20.34375 73.4375 
Q 25.25 74.21875 29.59375 74.21875 
Q 40.828125 74.21875 47.359375 69.109375 
Q 53.90625 64.015625 53.90625 55.328125 
Q 53.90625 49.265625 50.4375 45.09375 
Q 46.96875 40.921875 40.578125 39.3125 
z
" id="DejaVuSans-51"/>
       </defs>
       <use xlink:href="#DejaVuSans-50"/>
       <use x="63.623047" xlink:href="#DejaVuSans-48"/>
       <use x="127.246094" xlink:href="#DejaVuSans-50"/>
       <use x="190.869141" xlink:href="#DejaVuSans-48"/>
       <use x="254.492188" xlink:href="#DejaVuSans-45"/>
       <use x="290.576172" xlink:href="#DejaVuSans-48"/>
       <use x="354.199219" xlink:href="#DejaVuSans-51"/>
      </g>
     </g>
    </g>
    <g id="xtick_3">
     <g id="line2d_3">
      <g>
       <use style="stroke:#000000;stroke-width:0.8;" x="169.64541" xlink:href="#me1db61dc02" y="307.584"/>
      </g>
     </g>
     <g id="text_3">
      <!-- 2020-05 -->
      <g transform="translate(148.754004 322.182437)scale(0.1 -0.1)">
       <defs>
        <path d="M 10.796875 72.90625 
L 49.515625 72.90625 
L 49.515625 64.59375 
L 19.828125 64.59375 
L 19.828125 46.734375 
Q 21.96875 47.46875 24.109375 47.828125 
Q 26.265625 48.1875 28.421875 48.1875 
Q 40.625 48.1875 47.75 41.5 
Q 54.890625 34.8125 54.890625 23.390625 
Q 54.890625 11.625 47.5625 5.09375 
Q 40.234375 -1.421875 26.90625 -1.421875 
Q 22.3125 -1.421875 17.546875 -0.640625 
Q 12.796875 0.140625 7.71875 1.703125 
L 7.71875 11.625 
Q 12.109375 9.234375 16.796875 8.0625 
Q 21.484375 6.890625 26.703125 6.890625 
Q 35.15625 6.890625 40.078125 11.328125 
Q 45.015625 15.765625 45.015625 23.390625 
Q 45.015625 31 40.078125 35.4375 
Q 35.15625 39.890625 26.703125 39.890625 
Q 22.75 39.890625 18.8125 39.015625 
Q 14.890625 38.140625 10.796875 36.28125 
z
" id="DejaVuSans-53"/>
       </defs>
       <use xlink:href="#DejaVuSans-50"/>
       <use x="63.623047" xlink:href="#DejaVuSans-48"/>
       <use x="127.246094" xlink:href="#DejaVuSans-50"/>
       <use x="190.869141" xlink:href="#DejaVuSans-48"/>
       <use x="254.492188" xlink:href="#DejaVuSans-45"/>
       <use x="290.576172" xlink:href="#DejaVuSans-48"/>
       <use x="354.199219" xlink:href="#DejaVuSans-53"/>
      </g>
     </g>
    </g>
    <g id="xtick_4">
     <g id="line2d_4">
      <g>
       <use style="stroke:#000000;stroke-width:0.8;" x="217.947672" xlink:href="#me1db61dc02" y="307.584"/>
      </g>
     </g>
     <g id="text_4">
      <!-- 2020-07 -->
      <g transform="translate(197.056266 322.182437)scale(0.1 -0.1)">
       <defs>
        <path d="M 8.203125 72.90625 
L 55.078125 72.90625 
L 55.078125 68.703125 
L 28.609375 0 
L 18.3125 0 
L 43.21875 64.59375 
L 8.203125 64.59375 
z
" id="DejaVuSans-55"/>
       </defs>
       <use xlink:href="#DejaVuSans-50"/>
       <use x="63.623047" xlink:href="#DejaVuSans-48"/>
       <use x="127.246094" xlink:href="#DejaVuSans-50"/>
       <use x="190.869141" xlink:href="#DejaVuSans-48"/>
       <use x="254.492188" xlink:href="#DejaVuSans-45"/>
       <use x="290.576172" xlink:href="#DejaVuSans-48"/>
       <use x="354.199219" xlink:href="#DejaVuSans-55"/>
      </g>
     </g>
    </g>
    <g id="xtick_5">
     <g id="line2d_5">
      <g>
       <use style="stroke:#000000;stroke-width:0.8;" x="267.041774" xlink:href="#me1db61dc02" y="307.584"/>
      </g>
     </g>
     <g id="text_5">
      <!-- 2020-09 -->
      <g transform="translate(246.150368 322.182437)scale(0.1 -0.1)">
       <defs>
        <path d="M 10.984375 1.515625 
L 10.984375 10.5 
Q 14.703125 8.734375 18.5 7.8125 
Q 22.3125 6.890625 25.984375 6.890625 
Q 35.75 6.890625 40.890625 13.453125 
Q 46.046875 20.015625 46.78125 33.40625 
Q 43.953125 29.203125 39.59375 26.953125 
Q 35.25 24.703125 29.984375 24.703125 
Q 19.046875 24.703125 12.671875 31.3125 
Q 6.296875 37.9375 6.296875 49.421875 
Q 6.296875 60.640625 12.9375 67.421875 
Q 19.578125 74.21875 30.609375 74.21875 
Q 43.265625 74.21875 49.921875 64.515625 
Q 56.59375 54.828125 56.59375 36.375 
Q 56.59375 19.140625 48.40625 8.859375 
Q 40.234375 -1.421875 26.421875 -1.421875 
Q 22.703125 -1.421875 18.890625 -0.6875 
Q 15.09375 0.046875 10.984375 1.515625 
z
M 30.609375 32.421875 
Q 37.25 32.421875 41.125 36.953125 
Q 45.015625 41.5 45.015625 49.421875 
Q 45.015625 57.28125 41.125 61.84375 
Q 37.25 66.40625 30.609375 66.40625 
Q 23.96875 66.40625 20.09375 61.84375 
Q 16.21875 57.28125 16.21875 49.421875 
Q 16.21875 41.5 20.09375 36.953125 
Q 23.96875 32.421875 30.609375 32.421875 
z
" id="DejaVuSans-57"/>
       </defs>
       <use xlink:href="#DejaVuSans-50"/>
       <use x="63.623047" xlink:href="#DejaVuSans-48"/>
       <use x="127.246094" xlink:href="#DejaVuSans-50"/>
       <use x="190.869141" xlink:href="#DejaVuSans-48"/>
       <use x="254.492188" xlink:href="#DejaVuSans-45"/>
       <use x="290.576172" xlink:href="#DejaVuSans-48"/>
       <use x="354.199219" xlink:href="#DejaVuSans-57"/>
      </g>
     </g>
    </g>
    <g id="xtick_6">
     <g id="line2d_6">
      <g>
       <use style="stroke:#000000;stroke-width:0.8;" x="315.344035" xlink:href="#me1db61dc02" y="307.584"/>
      </g>
     </g>
     <g id="text_6">
      <!-- 2020-11 -->
      <g transform="translate(294.452629 322.182437)scale(0.1 -0.1)">
       <use xlink:href="#DejaVuSans-50"/>
       <use x="63.623047" xlink:href="#DejaVuSans-48"/>
       <use x="127.246094" xlink:href="#DejaVuSans-50"/>
       <use x="190.869141" xlink:href="#DejaVuSans-48"/>
       <use x="254.492188" xlink:href="#DejaVuSans-45"/>
       <use x="290.576172" xlink:href="#DejaVuSans-49"/>
       <use x="354.199219" xlink:href="#DejaVuSans-49"/>
      </g>
     </g>
    </g>
    <g id="xtick_7">
     <g id="line2d_7">
      <g>
       <use style="stroke:#000000;stroke-width:0.8;" x="363.646297" xlink:href="#me1db61dc02" y="307.584"/>
      </g>
     </g>
     <g id="text_7">
      <!-- 2021-01 -->
      <g transform="translate(342.754891 322.182437)scale(0.1 -0.1)">
       <use xlink:href="#DejaVuSans-50"/>
       <use x="63.623047" xlink:href="#DejaVuSans-48"/>
       <use x="127.246094" xlink:href="#DejaVuSans-50"/>
       <use x="190.869141" xlink:href="#DejaVuSans-49"/>
       <use x="254.492188" xlink:href="#DejaVuSans-45"/>
       <use x="290.576172" xlink:href="#DejaVuSans-48"/>
       <use x="354.199219" xlink:href="#DejaVuSans-49"/>
      </g>
     </g>
    </g>
    <g id="xtick_8">
     <g id="line2d_8">
      <g>
       <use style="stroke:#000000;stroke-width:0.8;" x="410.364878" xlink:href="#me1db61dc02" y="307.584"/>
      </g>
     </g>
     <g id="text_8">
      <!-- 2021-03 -->
      <g transform="translate(389.473472 322.182437)scale(0.1 -0.1)">
       <use xlink:href="#DejaVuSans-50"/>
       <use x="63.623047" xlink:href="#DejaVuSans-48"/>
       <use x="127.246094" xlink:href="#DejaVuSans-50"/>
       <use x="190.869141" xlink:href="#DejaVuSans-49"/>
       <use x="254.492188" xlink:href="#DejaVuSans-45"/>
       <use x="290.576172" xlink:href="#DejaVuSans-48"/>
       <use x="354.199219" xlink:href="#DejaVuSans-51"/>
      </g>
     </g>
    </g>
   </g>
   <g id="matplotlib.axis_2">
    <g id="ytick_1">
     <g id="line2d_9">
      <defs>
       <path d="M 0 0 
L -3.5 0 
" id="md562e592ef" style="stroke:#000000;stroke-width:0.8;"/>
      </defs>
      <g>
       <use style="stroke:#000000;stroke-width:0.8;" x="57.6" xlink:href="#md562e592ef" y="263.956436"/>
      </g>
     </g>
     <g id="text_9">
      <!-- 10000 -->
      <g transform="translate(18.7875 267.755655)scale(0.1 -0.1)">
       <use xlink:href="#DejaVuSans-49"/>
       <use x="63.623047" xlink:href="#DejaVuSans-48"/>
       <use x="127.246094" xlink:href="#DejaVuSans-48"/>
       <use x="190.869141" xlink:href="#DejaVuSans-48"/>
       <use x="254.492188" xlink:href="#DejaVuSans-48"/>
      </g>
     </g>
    </g>
    <g id="ytick_2">
     <g id="line2d_10">
      <g>
       <use style="stroke:#000000;stroke-width:0.8;" x="57.6" xlink:href="#md562e592ef" y="213.567586"/>
      </g>
     </g>
     <g id="text_10">
      <!-- 20000 -->
      <g transform="translate(18.7875 217.366805)scale(0.1 -0.1)">
       <use xlink:href="#DejaVuSans-50"/>
       <use x="63.623047" xlink:href="#DejaVuSans-48"/>
       <use x="127.246094" xlink:href="#DejaVuSans-48"/>
       <use x="190.869141" xlink:href="#DejaVuSans-48"/>
       <use x="254.492188" xlink:href="#DejaVuSans-48"/>
      </g>
     </g>
    </g>
    <g id="ytick_3">
     <g id="line2d_11">
      <g>
       <use style="stroke:#000000;stroke-width:0.8;" x="57.6" xlink:href="#md562e592ef" y="163.178736"/>
      </g>
     </g>
     <g id="text_11">
      <!-- 30000 -->
      <g transform="translate(18.7875 166.977955)scale(0.1 -0.1)">
       <use xlink:href="#DejaVuSans-51"/>
       <use x="63.623047" xlink:href="#DejaVuSans-48"/>
       <use x="127.246094" xlink:href="#DejaVuSans-48"/>
       <use x="190.869141" xlink:href="#DejaVuSans-48"/>
       <use x="254.492188" xlink:href="#DejaVuSans-48"/>
      </g>
     </g>
    </g>
    <g id="ytick_4">
     <g id="line2d_12">
      <g>
       <use style="stroke:#000000;stroke-width:0.8;" x="57.6" xlink:href="#md562e592ef" y="112.789886"/>
      </g>
     </g>
     <g id="text_12">
      <!-- 40000 -->
      <g transform="translate(18.7875 116.589105)scale(0.1 -0.1)">
       <defs>
        <path d="M 37.796875 64.3125 
L 12.890625 25.390625 
L 37.796875 25.390625 
z
M 35.203125 72.90625 
L 47.609375 72.90625 
L 47.609375 25.390625 
L 58.015625 25.390625 
L 58.015625 17.1875 
L 47.609375 17.1875 
L 47.609375 0 
L 37.796875 0 
L 37.796875 17.1875 
L 4.890625 17.1875 
L 4.890625 26.703125 
z
" id="DejaVuSans-52"/>
       </defs>
       <use xlink:href="#DejaVuSans-52"/>
       <use x="63.623047" xlink:href="#DejaVuSans-48"/>
       <use x="127.246094" xlink:href="#DejaVuSans-48"/>
       <use x="190.869141" xlink:href="#DejaVuSans-48"/>
       <use x="254.492188" xlink:href="#DejaVuSans-48"/>
      </g>
     </g>
    </g>
    <g id="ytick_5">
     <g id="line2d_13">
      <g>
       <use style="stroke:#000000;stroke-width:0.8;" x="57.6" xlink:href="#md562e592ef" y="62.401036"/>
      </g>
     </g>
     <g id="text_13">
      <!-- 50000 -->
      <g transform="translate(18.7875 66.200254)scale(0.1 -0.1)">
       <use xlink:href="#DejaVuSans-53"/>
       <use x="63.623047" xlink:href="#DejaVuSans-48"/>
       <use x="127.246094" xlink:href="#DejaVuSans-48"/>
       <use x="190.869141" xlink:href="#DejaVuSans-48"/>
       <use x="254.492188" xlink:href="#DejaVuSans-48"/>
      </g>
     </g>
    </g>
   </g>
   <g id="line2d_14">
    <path clip-path="url(#pe24610a701)" d="M 88.877694 267.294972 
L 89.669534 267.144691 
L 92.045055 267.827648 
L 92.836896 268.289376 
L 93.628736 268.402253 
L 94.420576 268.149813 
L 95.212417 267.425356 
L 96.004257 267.146397 
L 96.796098 266.481789 
L 98.379778 265.95725 
L 99.171619 265.888183 
L 100.755299 265.534088 
L 102.33898 264.48384 
L 103.922661 263.354033 
L 104.714501 262.600947 
L 105.506341 262.249566 
L 106.298182 261.589378 
L 107.090022 261.126433 
L 107.881863 260.928039 
L 108.673703 260.894794 
L 109.465543 261.174078 
L 110.257384 261.316279 
L 111.049224 261.323382 
L 111.841064 261.150229 
L 114.216585 261.273598 
L 115.800266 261.466061 
L 116.592106 261.782365 
L 117.383947 261.602404 
L 118.175787 260.921136 
L 119.759468 260.202141 
L 121.343149 259.867142 
L 122.926829 260.748156 
L 123.71867 261.234375 
L 124.51051 262.011757 
L 126.094191 262.814384 
L 126.886031 262.730271 
L 127.677871 263.258982 
L 128.469712 263.314889 
L 129.261552 263.556159 
L 130.053392 260.370275 
L 130.845233 259.736479 
L 131.637073 259.515433 
L 132.428914 259.688124 
L 133.220754 259.736934 
L 134.012594 259.911723 
L 134.804435 260.352573 
L 137.179956 262.571229 
L 139.555477 266.221994 
L 140.347317 267.982496 
L 141.930998 272.181647 
L 144.306519 276.247705 
L 145.098359 278.000679 
L 145.8902 277.931992 
L 146.68204 277.490861 
L 148.265721 277.221323 
L 149.057561 277.55843 
L 150.641242 277.157036 
L 152.224922 276.207908 
L 153.016763 276.15753 
L 153.808603 276.488061 
L 154.600443 276.295433 
L 156.975965 276.250528 
L 157.767805 276.13306 
L 158.559645 276.163119 
L 159.351486 276.636419 
L 160.143326 276.589859 
L 160.935166 276.77658 
L 161.727007 276.832039 
L 162.518847 276.77432 
L 164.102528 276.051032 
L 165.686208 275.457632 
L 167.269889 274.846942 
L 168.061729 273.794236 
L 168.85357 272.187186 
L 170.437251 269.669715 
L 172.020931 268.046817 
L 172.812772 267.416362 
L 174.396452 265.485053 
L 175.188293 263.950484 
L 175.980133 262.987188 
L 178.355654 263.65028 
L 179.147494 263.566768 
L 179.939335 263.276036 
L 180.731175 263.13921 
L 182.314856 263.192322 
L 183.106696 263.507266 
L 183.898537 263.368127 
L 184.690377 263.083424 
L 187.065898 263.158599 
L 187.857738 263.229322 
L 190.233259 263.171299 
L 191.0251 263.688219 
L 192.60878 264.036343 
L 193.400621 263.983459 
L 194.192461 264.056125 
L 194.984302 263.419558 
L 196.567982 263.41109 
L 197.359823 263.194381 
L 200.527184 263.383921 
L 202.110865 263.049344 
L 203.694545 263.053161 
L 206.070067 263.86633 
L 207.653747 263.963778 
L 210.029268 263.887065 
L 210.821109 264.505877 
L 212.404789 264.511794 
L 213.19663 264.73162 
L 215.572151 264.844499 
L 216.363991 264.974156 
L 217.155831 265.234789 
L 217.947672 265.659563 
L 220.323193 265.865419 
L 221.115033 265.851146 
L 223.490554 266.247523 
L 224.282395 266.170921 
L 226.657916 266.393812 
L 228.241596 267.053838 
L 232.992639 267.158097 
L 234.576319 267.037152 
L 237.743681 265.754998 
L 238.535521 264.386272 
L 239.327361 262.15579 
L 240.911042 259.242715 
L 241.702882 258.140627 
L 242.494723 256.807361 
L 243.286563 255.735803 
L 244.870244 254.216029 
L 245.662084 253.673368 
L 247.245765 251.934246 
L 249.621286 250.883839 
L 250.413126 250.775912 
L 251.996807 251.446899 
L 252.788647 251.958541 
L 253.580488 252.698339 
L 254.372328 253.034342 
L 255.164169 252.92026 
L 255.956009 252.372557 
L 256.747849 252.317183 
L 262.290732 252.862814 
L 264.666253 252.800582 
L 265.458093 252.995649 
L 266.249933 253.06014 
L 267.833614 252.911945 
L 268.625455 252.854912 
L 269.417295 251.800729 
L 270.209135 251.447729 
L 271.000976 250.966488 
L 272.584656 251.346294 
L 274.168337 251.505467 
L 275.752018 252.07851 
L 276.543858 252.522417 
L 279.71122 253.517535 
L 281.2949 254.34865 
L 282.086741 254.977154 
L 283.670421 257.472059 
L 284.462262 258.116301 
L 288.421463 257.872029 
L 289.213304 258.079966 
L 291.588825 258.208635 
L 292.380665 258.334324 
L 293.964346 258.367205 
L 295.548027 258.755736 
L 297.131707 258.770017 
L 298.715388 257.557782 
L 299.507228 256.810334 
L 301.090909 256.088765 
L 301.882749 255.65151 
L 303.46643 255.21363 
L 304.258271 254.889429 
L 305.841951 253.749148 
L 307.425632 250.403729 
L 309.009313 248.005332 
L 309.801153 247.086385 
L 310.592993 246.402225 
L 311.384834 245.241964 
L 312.968514 243.886586 
L 315.344035 241.560862 
L 316.135876 241.196146 
L 317.719557 240.002671 
L 318.511397 237.978283 
L 319.303237 236.465046 
L 320.095078 236.120439 
L 320.886918 235.21309 
L 321.678758 234.708659 
L 322.470599 233.945473 
L 323.262439 232.893243 
L 324.84612 230.105118 
L 325.63796 229.357353 
L 326.4298 228.906745 
L 327.221641 227.668471 
L 328.805322 223.983067 
L 329.597162 222.557166 
L 330.389002 220.336773 
L 331.180843 218.600938 
L 332.764523 217.033027 
L 334.348204 214.661931 
L 335.140044 214.626085 
L 335.931885 215.046809 
L 337.515565 215.039944 
L 338.307406 213.93383 
L 339.099246 213.80991 
L 340.682927 212.578747 
L 341.474767 212.983495 
L 342.266608 213.561739 
L 343.058448 213.574959 
L 343.850288 213.30949 
L 347.01765 213.543618 
L 347.80949 213.439475 
L 348.60133 213.152978 
L 349.393171 213.076643 
L 350.185011 212.678206 
L 350.976851 210.328186 
L 353.352373 198.024886 
L 354.144213 195.106747 
L 354.936053 193.310972 
L 355.727894 190.601772 
L 357.311574 186.880963 
L 358.103415 184.201103 
L 358.895255 179.916721 
L 362.854457 163.44558 
L 363.646297 160.57187 
L 365.229978 149.552412 
L 366.021818 146.710314 
L 366.813659 141.370586 
L 367.605499 132.952581 
L 369.18918 112.286284 
L 369.98102 104.555818 
L 370.77286 100.628856 
L 371.564701 99.285707 
L 372.356541 99.733241 
L 373.148381 98.707053 
L 373.940222 96.701659 
L 374.732062 96.377273 
L 375.523902 97.318049 
L 376.315743 98.593854 
L 377.899424 101.649342 
L 378.691264 103.967303 
L 379.483104 105.193804 
L 380.274945 105.53472 
L 381.066785 105.143915 
L 381.858625 105.281811 
L 382.650466 104.769737 
L 383.442306 104.940241 
L 384.234146 106.34672 
L 385.817827 115.253805 
L 386.609667 117.736845 
L 387.401508 118.293843 
L 388.193348 118.366859 
L 388.985188 119.796914 
L 389.777029 121.700922 
L 390.568869 121.494727 
L 391.36071 119.247402 
L 392.15255 115.897788 
L 392.94439 113.836049 
L 393.736231 100.010871 
L 394.528071 89.23497 
L 395.319911 82.677286 
L 396.111752 72.947446 
L 396.903592 65.702187 
L 398.487273 53.568 
L 398.487273 53.568 
" style="fill:none;stroke:#1f77b4;stroke-linecap:square;stroke-width:1.5;"/>
   </g>
   <g id="line2d_15">
    <path clip-path="url(#pe24610a701)" d="M 88.877694 279.799766 
L 89.669534 279.174491 
L 90.461375 278.100327 
L 92.045055 276.563837 
L 92.836896 275.607901 
L 93.628736 275.071295 
L 94.420576 274.948971 
L 95.212417 274.992977 
L 96.004257 274.529438 
L 96.796098 274.529185 
L 99.171619 273.2246 
L 101.54714 273.181494 
L 103.13082 273.417809 
L 104.714501 273.365373 
L 106.298182 273.001224 
L 107.090022 272.47866 
L 107.881863 271.773285 
L 109.465543 269.854369 
L 110.257384 269.195837 
L 114.216585 268.300755 
L 115.008426 268.037133 
L 116.592106 267.033288 
L 117.383947 267.364156 
L 118.175787 268.529372 
L 121.343149 272.157911 
L 123.71867 272.998623 
L 124.51051 272.867972 
L 126.094191 272.951241 
L 126.886031 273.869739 
L 127.677871 274.470457 
L 128.469712 275.268264 
L 129.261552 275.861505 
L 130.053392 281.456718 
L 131.637073 286.760502 
L 133.220754 290.859751 
L 134.012594 292.424903 
L 134.804435 293.699774 
L 136.388115 294.72625 
L 137.971796 295.488 
L 138.763636 295.437094 
L 139.555477 295.191531 
L 140.347317 294.633091 
L 141.930998 292.783281 
L 143.514678 292.015867 
L 144.306519 291.345762 
L 145.098359 290.349235 
L 145.8902 289.532154 
L 146.68204 289.366869 
L 148.265721 288.089162 
L 149.057561 286.877844 
L 150.641242 285.309334 
L 152.224922 285.115028 
L 153.016763 284.80647 
L 153.808603 283.966821 
L 154.600443 283.831664 
L 156.975965 283.77031 
L 157.767805 283.707843 
L 158.559645 283.244287 
L 159.351486 282.093457 
L 160.143326 281.836753 
L 160.935166 281.425117 
L 162.518847 281.180648 
L 165.686208 281.201463 
L 167.269889 281.46094 
L 168.85357 282.7152 
L 170.437251 283.365503 
L 172.020931 282.986853 
L 172.812772 282.522283 
L 174.396452 282.19505 
L 175.188293 282.338858 
L 175.980133 282.007078 
L 176.771973 281.007444 
L 178.355654 278.743163 
L 179.939335 277.292358 
L 180.731175 276.459203 
L 182.314856 274.409101 
L 183.106696 273.13052 
L 183.898537 272.505613 
L 187.857738 271.30862 
L 189.441419 271.645289 
L 190.233259 271.847734 
L 191.81694 271.659927 
L 192.60878 270.975536 
L 193.400621 270.681701 
L 194.192461 270.188288 
L 194.984302 270.302171 
L 201.319024 270.236414 
L 203.694545 269.836876 
L 204.486386 269.212288 
L 205.278226 268.869557 
L 206.070067 268.278233 
L 206.861907 268.046259 
L 207.653747 268.046965 
L 209.237428 268.377897 
L 210.029268 268.493348 
L 210.821109 268.207909 
L 213.19663 268.276771 
L 215.572151 269.04484 
L 216.363991 269.203816 
L 217.155831 269.238796 
L 217.947672 269.1383 
L 219.531353 269.30114 
L 221.115033 269.457632 
L 226.657916 269.399169 
L 228.241596 269.043969 
L 231.408958 268.927517 
L 233.784479 268.852568 
L 236.95184 269.040364 
L 237.743681 269.204382 
L 238.535521 270.05152 
L 239.327361 271.422506 
L 240.119202 272.183633 
L 240.911042 272.578302 
L 243.286563 273.14796 
L 244.870244 272.640135 
L 247.245765 271.160501 
L 248.829446 269.350085 
L 250.413126 267.19301 
L 251.996807 264.581543 
L 254.372328 259.996403 
L 255.164169 259.671503 
L 255.956009 259.541477 
L 257.53969 258.665411 
L 259.12337 258.294439 
L 260.707051 257.560181 
L 261.498891 257.354572 
L 262.290732 257.533494 
L 263.082572 257.851147 
L 266.249933 257.97622 
L 267.041774 257.768776 
L 267.833614 257.694697 
L 268.625455 257.981811 
L 269.417295 259.843743 
L 270.209135 260.93687 
L 271.000976 262.297929 
L 271.792816 263.148338 
L 272.584656 263.815408 
L 273.376497 264.697857 
L 274.960177 265.569408 
L 276.543858 266.138128 
L 278.127539 266.261974 
L 280.50306 266.155687 
L 282.086741 265.777702 
L 283.670421 264.644576 
L 286.045942 264.342358 
L 287.629623 263.722709 
L 288.421463 263.542786 
L 289.213304 262.966111 
L 290.796984 262.548558 
L 291.588825 262.445625 
L 292.380665 262.198014 
L 297.131707 262.190417 
L 297.923548 262.545297 
L 299.507228 262.982822 
L 300.299069 262.710167 
L 302.67459 262.695421 
L 304.258271 262.602297 
L 305.841951 262.64629 
L 306.633792 263.301671 
L 307.425632 263.671072 
L 309.009313 263.624843 
L 309.801153 263.393609 
L 310.592993 262.829032 
L 311.384834 262.481152 
L 312.968514 261.430399 
L 315.344035 260.279202 
L 317.719557 258.117215 
L 318.511397 257.99099 
L 319.303237 257.378276 
L 320.095078 256.046457 
L 320.886918 255.073837 
L 321.678758 253.859053 
L 322.470599 253.361531 
L 324.84612 252.524367 
L 325.63796 251.741974 
L 326.4298 250.731095 
L 328.805322 249.705263 
L 329.597162 248.990569 
L 330.389002 248.752827 
L 331.180843 248.002203 
L 332.764523 244.930703 
L 333.556364 243.653015 
L 334.348204 243.203951 
L 335.140044 242.43686 
L 335.931885 240.850966 
L 336.723725 239.724149 
L 337.515565 238.282873 
L 338.307406 237.174572 
L 339.099246 235.742152 
L 340.682927 233.927251 
L 341.474767 232.22161 
L 342.266608 230.036124 
L 343.058448 228.679483 
L 343.850288 228.184553 
L 345.433969 227.411309 
L 346.225809 227.569077 
L 347.01765 227.850219 
L 349.393171 227.66809 
L 350.185011 227.703222 
L 350.976851 227.953357 
L 351.768692 229.336443 
L 354.144213 232.874832 
L 354.936053 232.693838 
L 355.727894 233.089643 
L 356.519734 232.979912 
L 357.311574 232.350547 
L 358.103415 232.233888 
L 358.895255 232.961201 
L 359.687095 232.738247 
L 360.478936 231.67449 
L 362.062616 228.846192 
L 363.646297 223.730744 
L 364.438137 222.803123 
L 365.229978 221.251799 
L 366.021818 217.758498 
L 366.813659 216.70632 
L 367.605499 218.06248 
L 368.397339 220.32804 
L 369.18918 222.038108 
L 369.98102 221.318932 
L 370.77286 217.449063 
L 371.564701 212.923987 
L 373.940222 195.903079 
L 374.732062 191.025273 
L 377.899424 168.152269 
L 378.691264 162.531618 
L 379.483104 160.576129 
L 380.274945 159.821851 
L 381.066785 160.679719 
L 381.858625 160.400936 
L 382.650466 161.809758 
L 383.442306 163.810318 
L 384.234146 166.964137 
L 385.025987 166.213441 
L 385.817827 164.688495 
L 386.609667 164.154132 
L 387.401508 164.77293 
L 388.193348 164.959993 
L 388.985188 164.460869 
L 389.777029 163.288908 
L 390.568869 163.386952 
L 391.36071 164.486897 
L 392.15255 166.111035 
L 392.94439 167.061521 
L 393.736231 175.592382 
L 394.528071 180.82973 
L 395.319911 180.32435 
L 396.111752 182.503003 
L 396.903592 182.036904 
L 397.695432 180.406433 
L 398.487273 178.403204 
L 398.487273 178.403204 
" style="fill:none;stroke:#ff7f0e;stroke-linecap:square;stroke-width:1.5;"/>
   </g>
   <g id="line2d_16">
    <path clip-path="url(#pe24610a701)" d="M 88.877694 273.547369 
L 91.253215 272.468003 
L 93.628736 271.736774 
L 94.420576 271.549392 
L 99.171619 269.556391 
L 101.54714 269.116104 
L 103.922661 268.368634 
L 107.881863 266.350662 
L 108.673703 265.841822 
L 110.257384 265.256058 
L 111.049224 265.177248 
L 111.841064 264.951653 
L 114.216585 264.787177 
L 115.800266 264.531102 
L 116.592106 264.407827 
L 117.383947 264.48328 
L 119.759468 265.272983 
L 121.343149 266.012527 
L 125.30235 267.625767 
L 126.094191 267.882812 
L 126.886031 268.300005 
L 127.677871 268.864719 
L 129.261552 269.708832 
L 131.637073 273.137967 
L 133.220754 275.298343 
L 134.804435 277.026174 
L 138.763636 280.202596 
L 140.347317 281.307793 
L 141.930998 282.482464 
L 144.306519 283.796733 
L 145.098359 284.174957 
L 145.8902 283.732073 
L 147.47388 283.036398 
L 149.057561 282.218137 
L 150.641242 281.233185 
L 152.224922 280.661468 
L 154.600443 280.063549 
L 156.975965 280.010419 
L 157.767805 279.920452 
L 158.559645 279.703703 
L 159.351486 279.364938 
L 160.935166 279.100848 
L 162.518847 278.977484 
L 164.894368 278.406363 
L 167.269889 278.153941 
L 168.061729 277.912453 
L 172.020931 275.516835 
L 174.396452 273.840051 
L 175.980133 272.497133 
L 179.147494 270.808161 
L 183.106696 268.318893 
L 184.690377 267.677001 
L 186.274058 267.462865 
L 187.857738 267.268971 
L 189.441419 267.395411 
L 191.81694 267.779391 
L 193.400621 267.33258 
L 194.984302 266.860865 
L 201.319024 266.73175 
L 202.902705 266.502779 
L 204.486386 266.282375 
L 207.653747 266.005371 
L 213.98847 266.643319 
L 216.363991 267.088986 
L 218.739512 267.468487 
L 221.906874 267.72682 
L 225.074235 267.83176 
L 227.449756 267.971331 
L 229.033437 268.06402 
L 233.784479 268.001298 
L 235.36816 267.856687 
L 237.743681 267.47969 
L 238.535521 267.218896 
L 242.494723 264.947437 
L 245.662084 262.898199 
L 250.413126 258.984461 
L 251.996807 258.014221 
L 254.372328 256.515373 
L 255.164169 256.295882 
L 255.956009 255.957017 
L 257.53969 255.535414 
L 259.915211 255.271028 
L 261.498891 255.112998 
L 266.249933 255.51818 
L 267.833614 255.303321 
L 268.625455 255.418362 
L 271.000976 256.632209 
L 271.792816 257.177257 
L 274.960177 258.673686 
L 277.335698 259.506237 
L 279.71122 259.869836 
L 282.086741 260.377428 
L 283.670421 261.058318 
L 284.462262 261.321059 
L 287.629623 260.845091 
L 290.796984 260.360125 
L 293.964346 260.289546 
L 295.548027 260.474754 
L 297.131707 260.480217 
L 298.715388 260.152048 
L 301.882749 259.213349 
L 304.258271 258.745863 
L 305.841951 258.197719 
L 308.217472 256.436494 
L 315.344035 250.920032 
L 316.927716 249.72716 
L 317.719557 249.059943 
L 319.303237 246.921661 
L 322.470599 243.653502 
L 323.262439 242.968557 
L 325.63796 240.549663 
L 327.221641 239.042467 
L 330.389002 234.5448 
L 333.556364 229.721524 
L 334.348204 228.932941 
L 335.140044 228.531472 
L 337.515565 226.661408 
L 338.307406 225.554201 
L 340.682927 223.252999 
L 341.474767 222.602553 
L 343.058448 221.127221 
L 343.850288 220.747022 
L 345.433969 220.425508 
L 347.01765 220.696918 
L 349.393171 220.372366 
L 350.185011 220.190714 
L 350.976851 219.140771 
L 353.352373 214.935807 
L 354.936053 213.002405 
L 355.727894 211.845707 
L 356.519734 210.893674 
L 358.103415 208.217496 
L 359.687095 204.659509 
L 361.270776 200.245604 
L 363.646297 192.151307 
L 367.605499 175.507531 
L 370.77286 159.03896 
L 373.148381 149.937993 
L 373.940222 146.302369 
L 375.523902 141.237027 
L 377.899424 134.900805 
L 378.691264 133.249461 
L 379.483104 132.884967 
L 380.274945 132.678286 
L 381.066785 132.911817 
L 381.858625 132.841373 
L 382.650466 133.289748 
L 383.442306 134.37528 
L 384.234146 136.655429 
L 385.025987 138.46859 
L 385.817827 139.97115 
L 386.609667 140.945488 
L 387.401508 141.533387 
L 388.193348 141.663426 
L 389.777029 142.494915 
L 390.568869 142.440839 
L 391.36071 141.86715 
L 392.15255 141.004412 
L 392.94439 140.448785 
L 394.528071 135.03235 
L 396.111752 127.725225 
L 398.487273 115.985602 
L 398.487273 115.985602 
" style="fill:none;stroke:#2ca02c;stroke-linecap:square;stroke-width:1.5;"/>
   </g>
   <g id="line2d_17">
    <path clip-path="url(#pe24610a701)" d="M 73.832727 278.123446 
L 74.624568 279.266744 
L 75.416408 277.326714 
L 77.000089 277.277677 
L 78.583769 273.239263 
L 79.37561 273.818172 
L 80.16745 274.956708 
L 80.95929 273.080521 
L 81.751131 273.951434 
L 82.542971 273.132834 
L 83.334812 273.502713 
L 84.126652 269.965676 
L 84.918492 269.960335 
L 85.710333 270.421762 
L 86.502173 269.548339 
L 87.294013 269.493314 
L 88.085854 270.514184 
L 88.877694 270.853217 
L 89.669534 270.367897 
L 90.461375 270.703453 
L 91.253215 272.058232 
L 92.045055 271.834783 
L 92.836896 272.335589 
L 94.420576 269.491617 
L 95.212417 267.013662 
L 96.004257 267.531726 
L 96.796098 266.431914 
L 97.587938 267.251195 
L 98.379778 267.036899 
L 99.963459 267.525764 
L 100.755299 268.11182 
L 101.54714 265.904452 
L 102.33898 265.213403 
L 103.13082 264.920895 
L 103.922661 264.472124 
L 104.714501 263.143748 
L 105.506341 264.698572 
L 106.298182 262.615589 
L 107.090022 262.203147 
L 107.881863 262.797098 
L 108.673703 262.15878 
L 109.465543 264.445099 
L 110.257384 264.328306 
L 111.049224 265.437465 
L 111.841064 263.019825 
L 112.632905 266.004844 
L 113.424745 265.935156 
L 114.216585 265.490483 
L 115.008426 265.630135 
L 115.800266 264.091109 
L 117.383947 267.413514 
L 118.175787 270.052882 
L 118.967627 269.919528 
L 119.759468 270.428069 
L 120.551308 271.321279 
L 121.343149 271.311915 
L 122.134989 269.36693 
L 122.926829 270.163435 
L 123.71867 270.164913 
L 124.51051 268.626097 
L 125.30235 268.163141 
L 126.094191 269.46922 
L 126.886031 273.781313 
L 127.677871 274.314116 
L 128.469712 274.541991 
L 129.261552 274.280255 
L 130.053392 289.583777 
L 130.845233 285.978496 
L 131.637073 288.232163 
L 132.428914 287.33656 
L 133.220754 288.930771 
L 134.012594 287.452287 
L 134.804435 287.076747 
L 135.596275 283.203616 
L 136.388115 283.070883 
L 137.179956 283.1162 
L 137.971796 285.10126 
L 138.763636 281.628108 
L 139.555477 280.248251 
L 140.347317 280.64671 
L 141.139157 280.53462 
L 141.930998 280.591156 
L 142.722838 282.970442 
L 143.514678 284.706531 
L 144.306519 281.245833 
L 145.098359 281.84473 
L 145.8902 280.726097 
L 146.68204 279.914333 
L 147.47388 280.382823 
L 148.265721 279.713458 
L 149.057561 280.18865 
L 149.849401 277.572763 
L 150.641242 277.257228 
L 152.224922 277.486094 
L 153.016763 279.526843 
L 153.808603 280.010072 
L 154.600443 278.350263 
L 155.392284 280.266979 
L 156.184124 279.652059 
L 156.975965 280.447951 
L 157.767805 278.791808 
L 158.559645 278.635464 
L 159.351486 277.931229 
L 160.143326 278.213205 
L 160.935166 279.595573 
L 161.727007 279.794659 
L 162.518847 278.378481 
L 163.310687 276.266684 
L 164.102528 276.539036 
L 164.894368 276.056789 
L 165.686208 276.036457 
L 167.269889 275.424182 
L 168.061729 272.656323 
L 168.85357 270.301652 
L 169.64541 270.146341 
L 170.437251 269.542317 
L 171.229091 269.907309 
L 172.020931 269.996245 
L 172.812772 269.497698 
L 173.604612 267.740903 
L 174.396452 267.100952 
L 175.188293 264.023617 
L 175.980133 265.262439 
L 176.771973 271.688857 
L 177.563814 269.715567 
L 178.355654 270.356072 
L 179.147494 268.495464 
L 179.939335 266.059755 
L 181.523016 266.651988 
L 182.314856 265.089555 
L 183.106696 265.787819 
L 183.898537 265.015862 
L 184.690377 265.104269 
L 185.482217 267.306539 
L 186.274058 268.099407 
L 187.857738 267.971772 
L 188.649579 270.122318 
L 189.441419 269.645085 
L 190.233259 269.383063 
L 191.81694 266.736061 
L 192.60878 266.219828 
L 193.400621 266.248373 
L 194.192461 266.148603 
L 194.984302 263.268628 
L 195.776142 265.999956 
L 196.567982 266.326979 
L 197.359823 264.778757 
L 198.151663 265.570139 
L 198.943503 265.863402 
L 199.735344 265.315096 
L 200.527184 265.624509 
L 202.110865 264.97681 
L 202.902705 266.597064 
L 203.694545 266.81657 
L 204.486386 266.869441 
L 205.278226 268.303734 
L 206.070067 266.522551 
L 207.653747 266.74168 
L 208.445588 267.603833 
L 210.029268 267.286509 
L 211.612949 266.013737 
L 212.404789 266.423978 
L 213.19663 267.614028 
L 213.98847 268.352611 
L 214.78031 268.167357 
L 215.572151 269.038152 
L 216.363991 268.510832 
L 217.155831 268.267782 
L 217.947672 268.219585 
L 218.739512 267.988174 
L 219.531353 268.516854 
L 221.115033 268.61583 
L 221.906874 267.971168 
L 222.698714 267.658127 
L 223.490554 267.586533 
L 224.282395 266.960367 
L 225.074235 268.266119 
L 225.866075 267.594259 
L 227.449756 267.510551 
L 228.241596 267.975417 
L 229.033437 267.916357 
L 229.825277 268.409173 
L 231.408958 268.28858 
L 233.784479 267.954728 
L 235.36816 266.417352 
L 236.16 266.251749 
L 236.95184 265.963172 
L 237.743681 265.407232 
L 238.535521 262.442251 
L 239.327361 258.991564 
L 240.119202 259.005731 
L 240.911042 258.647971 
L 241.702882 258.789059 
L 242.494723 257.132996 
L 243.286563 257.399436 
L 244.078404 258.088932 
L 244.870244 257.526844 
L 245.662084 257.811516 
L 246.453925 254.90248 
L 247.245765 254.749058 
L 248.037605 256.052945 
L 248.829446 255.559386 
L 249.621286 253.826866 
L 250.413126 254.722679 
L 251.204967 257.194202 
L 252.788647 255.090518 
L 253.580488 254.40459 
L 254.372328 254.340581 
L 255.164169 254.601746 
L 255.956009 252.228431 
L 256.747849 254.289335 
L 257.53969 254.715638 
L 258.33153 255.979181 
L 259.12337 255.518196 
L 259.915211 255.836273 
L 260.707051 255.168557 
L 261.498891 257.009194 
L 262.290732 256.605597 
L 263.082572 257.395198 
L 263.874412 256.487671 
L 264.666253 256.322301 
L 265.458093 255.606984 
L 266.249933 255.499306 
L 267.041774 254.059014 
L 267.833614 254.90811 
L 268.625455 257.391336 
L 269.417295 262.482067 
L 270.209135 261.741846 
L 271.000976 263.399942 
L 271.792816 263.129404 
L 272.584656 262.361209 
L 273.376497 263.792672 
L 274.168337 262.238096 
L 275.752018 261.757641 
L 276.543858 262.378919 
L 277.335698 260.528495 
L 278.127539 259.776654 
L 278.919379 258.749335 
L 279.71122 259.23444 
L 280.50306 259.250464 
L 281.2949 258.671254 
L 282.086741 259.65872 
L 282.878581 261.30496 
L 283.670421 261.279959 
L 284.462262 262.64616 
L 285.254102 260.565484 
L 286.045942 260.282738 
L 287.629623 260.165454 
L 288.421463 259.607547 
L 289.213304 260.105295 
L 290.005144 260.219702 
L 290.796984 260.799066 
L 291.588825 261.097724 
L 292.380665 261.15971 
L 293.964346 260.145 
L 294.756186 260.985376 
L 295.548027 260.702552 
L 296.339867 259.433556 
L 297.131707 258.597422 
L 297.923548 257.383252 
L 298.715388 257.017043 
L 299.507228 256.170561 
L 300.299069 256.738359 
L 301.090909 256.746438 
L 301.882749 256.345015 
L 302.67459 257.277285 
L 303.46643 257.0536 
L 304.258271 256.312615 
L 305.050111 255.095321 
L 305.841951 254.266786 
L 306.633792 249.789678 
L 307.425632 248.900743 
L 308.217472 249.141576 
L 309.009313 248.199565 
L 309.801153 248.643197 
L 310.592993 248.498002 
L 311.384834 245.621143 
L 312.176674 247.446765 
L 312.968514 246.52291 
L 313.760355 245.983111 
L 314.552195 244.823269 
L 315.344035 244.995263 
L 316.135876 245.981608 
L 316.927716 243.645749 
L 317.719557 243.000671 
L 318.511397 235.771156 
L 319.303237 235.794091 
L 320.095078 239.548354 
L 320.886918 236.295628 
L 321.678758 237.07464 
L 322.470599 237.182606 
L 323.262439 235.201837 
L 324.054279 232.206287 
L 324.84612 232.058564 
L 325.63796 233.341615 
L 326.4298 233.883136 
L 327.221641 230.09208 
L 328.013481 225.276267 
L 328.805322 224.727372 
L 329.597162 224.577155 
L 330.389002 220.241925 
L 331.180843 220.130667 
L 331.972683 221.511321 
L 332.764523 221.721929 
L 333.556364 217.793859 
L 334.348204 219.999487 
L 335.140044 227.76472 
L 335.931885 227.896647 
L 336.723725 224.965712 
L 337.515565 222.65498 
L 338.307406 215.038453 
L 339.099246 219.638451 
L 339.891086 217.466574 
L 340.682927 216.337629 
L 341.474767 220.332692 
L 342.266608 217.810705 
L 343.058448 216.657875 
L 343.850288 217.672278 
L 344.642129 222.020047 
L 345.433969 220.854217 
L 346.225809 222.355788 
L 347.01765 223.445001 
L 347.80949 219.558509 
L 348.60133 217.756142 
L 349.393171 217.221416 
L 350.185011 216.366443 
L 350.976851 206.765864 
L 351.768692 199.396822 
L 352.560532 197.779315 
L 353.352373 194.241925 
L 354.144213 196.138099 
L 354.936053 199.870763 
L 355.727894 194.332616 
L 356.519734 197.296959 
L 357.311574 194.774317 
L 358.103415 189.845515 
L 358.895255 181.087185 
L 359.687095 182.083238 
L 360.478936 178.084429 
L 361.270776 176.511735 
L 362.062616 168.791852 
L 362.854457 168.437996 
L 363.646297 166.243512 
L 364.438137 152.100848 
L 365.229978 147.892673 
L 366.021818 153.012458 
L 366.813659 142.846801 
L 368.397339 115.432243 
L 369.18918 109.682296 
L 369.98102 111.641684 
L 370.77286 121.902457 
L 371.564701 135.650358 
L 372.356541 142.7213 
L 373.148381 126.012911 
L 373.940222 117.133027 
L 374.732062 129.065266 
L 375.523902 132.798307 
L 376.315743 133.726344 
L 377.107583 129.634912 
L 377.899424 133.302339 
L 378.691264 135.411103 
L 379.483104 158.953631 
L 380.274945 147.967224 
L 381.066785 152.5633 
L 381.858625 151.603586 
L 382.650466 151.814287 
L 383.442306 150.489018 
L 384.234146 161.035228 
L 385.025987 145.945522 
L 385.817827 141.69288 
L 386.609667 141.389228 
L 387.401508 147.408319 
L 388.193348 145.322086 
L 389.777029 124.45351 
L 390.568869 127.983745 
L 391.36071 121.324514 
L 392.15255 116.471589 
L 392.94439 118.522373 
L 393.736231 80.359168 
L 394.528071 80.025578 
L 395.319911 88.322992 
L 396.111752 72.455358 
L 396.903592 75.449716 
L 397.695432 76.451118 
L 398.487273 69.287881 
L 398.487273 69.287881 
" style="fill:none;stroke:#d62728;stroke-linecap:square;stroke-width:1.5;"/>
   </g>
   <g id="patch_3">
    <path d="M 57.6 307.584 
L 57.6 41.472 
" style="fill:none;stroke:#000000;stroke-linecap:square;stroke-linejoin:miter;stroke-width:0.8;"/>
   </g>
   <g id="patch_4">
    <path d="M 414.72 307.584 
L 414.72 41.472 
" style="fill:none;stroke:#000000;stroke-linecap:square;stroke-linejoin:miter;stroke-width:0.8;"/>
   </g>
   <g id="patch_5">
    <path d="M 57.6 307.584 
L 414.72 307.584 
" style="fill:none;stroke:#000000;stroke-linecap:square;stroke-linejoin:miter;stroke-width:0.8;"/>
   </g>
   <g id="patch_6">
    <path d="M 57.6 41.472 
L 414.72 41.472 
" style="fill:none;stroke:#000000;stroke-linecap:square;stroke-linejoin:miter;stroke-width:0.8;"/>
   </g>
   <g id="text_14">
    <!-- Data source: coindesk -->
    <g transform="translate(180.640469 35.472)scale(0.1 -0.1)">
     <defs>
      <path d="M 19.671875 64.796875 
L 19.671875 8.109375 
L 31.59375 8.109375 
Q 46.6875 8.109375 53.6875 14.9375 
Q 60.6875 21.78125 60.6875 36.53125 
Q 60.6875 51.171875 53.6875 57.984375 
Q 46.6875 64.796875 31.59375 64.796875 
z
M 9.8125 72.90625 
L 30.078125 72.90625 
Q 51.265625 72.90625 61.171875 64.09375 
Q 71.09375 55.28125 71.09375 36.53125 
Q 71.09375 17.671875 61.125 8.828125 
Q 51.171875 0 30.078125 0 
L 9.8125 0 
z
" id="DejaVuSans-68"/>
      <path d="M 34.28125 27.484375 
Q 23.390625 27.484375 19.1875 25 
Q 14.984375 22.515625 14.984375 16.5 
Q 14.984375 11.71875 18.140625 8.90625 
Q 21.296875 6.109375 26.703125 6.109375 
Q 34.1875 6.109375 38.703125 11.40625 
Q 43.21875 16.703125 43.21875 25.484375 
L 43.21875 27.484375 
z
M 52.203125 31.203125 
L 52.203125 0 
L 43.21875 0 
L 43.21875 8.296875 
Q 40.140625 3.328125 35.546875 0.953125 
Q 30.953125 -1.421875 24.3125 -1.421875 
Q 15.921875 -1.421875 10.953125 3.296875 
Q 6 8.015625 6 15.921875 
Q 6 25.140625 12.171875 29.828125 
Q 18.359375 34.515625 30.609375 34.515625 
L 43.21875 34.515625 
L 43.21875 35.40625 
Q 43.21875 41.609375 39.140625 45 
Q 35.0625 48.390625 27.6875 48.390625 
Q 23 48.390625 18.546875 47.265625 
Q 14.109375 46.140625 10.015625 43.890625 
L 10.015625 52.203125 
Q 14.9375 54.109375 19.578125 55.046875 
Q 24.21875 56 28.609375 56 
Q 40.484375 56 46.34375 49.84375 
Q 52.203125 43.703125 52.203125 31.203125 
z
" id="DejaVuSans-97"/>
      <path d="M 18.3125 70.21875 
L 18.3125 54.6875 
L 36.8125 54.6875 
L 36.8125 47.703125 
L 18.3125 47.703125 
L 18.3125 18.015625 
Q 18.3125 11.328125 20.140625 9.421875 
Q 21.96875 7.515625 27.59375 7.515625 
L 36.8125 7.515625 
L 36.8125 0 
L 27.59375 0 
Q 17.1875 0 13.234375 3.875 
Q 9.28125 7.765625 9.28125 18.015625 
L 9.28125 47.703125 
L 2.6875 47.703125 
L 2.6875 54.6875 
L 9.28125 54.6875 
L 9.28125 70.21875 
z
" id="DejaVuSans-116"/>
      <path id="DejaVuSans-32"/>
      <path d="M 44.28125 53.078125 
L 44.28125 44.578125 
Q 40.484375 46.53125 36.375 47.5 
Q 32.28125 48.484375 27.875 48.484375 
Q 21.1875 48.484375 17.84375 46.4375 
Q 14.5 44.390625 14.5 40.28125 
Q 14.5 37.15625 16.890625 35.375 
Q 19.28125 33.59375 26.515625 31.984375 
L 29.59375 31.296875 
Q 39.15625 29.25 43.1875 25.515625 
Q 47.21875 21.78125 47.21875 15.09375 
Q 47.21875 7.46875 41.1875 3.015625 
Q 35.15625 -1.421875 24.609375 -1.421875 
Q 20.21875 -1.421875 15.453125 -0.5625 
Q 10.6875 0.296875 5.421875 2 
L 5.421875 11.28125 
Q 10.40625 8.6875 15.234375 7.390625 
Q 20.0625 6.109375 24.8125 6.109375 
Q 31.15625 6.109375 34.5625 8.28125 
Q 37.984375 10.453125 37.984375 14.40625 
Q 37.984375 18.0625 35.515625 20.015625 
Q 33.0625 21.96875 24.703125 23.78125 
L 21.578125 24.515625 
Q 13.234375 26.265625 9.515625 29.90625 
Q 5.8125 33.546875 5.8125 39.890625 
Q 5.8125 47.609375 11.28125 51.796875 
Q 16.75 56 26.8125 56 
Q 31.78125 56 36.171875 55.265625 
Q 40.578125 54.546875 44.28125 53.078125 
z
" id="DejaVuSans-115"/>
      <path d="M 30.609375 48.390625 
Q 23.390625 48.390625 19.1875 42.75 
Q 14.984375 37.109375 14.984375 27.296875 
Q 14.984375 17.484375 19.15625 11.84375 
Q 23.34375 6.203125 30.609375 6.203125 
Q 37.796875 6.203125 41.984375 11.859375 
Q 46.1875 17.53125 46.1875 27.296875 
Q 46.1875 37.015625 41.984375 42.703125 
Q 37.796875 48.390625 30.609375 48.390625 
z
M 30.609375 56 
Q 42.328125 56 49.015625 48.375 
Q 55.71875 40.765625 55.71875 27.296875 
Q 55.71875 13.875 49.015625 6.21875 
Q 42.328125 -1.421875 30.609375 -1.421875 
Q 18.84375 -1.421875 12.171875 6.21875 
Q 5.515625 13.875 5.515625 27.296875 
Q 5.515625 40.765625 12.171875 48.375 
Q 18.84375 56 30.609375 56 
z
" id="DejaVuSans-111"/>
      <path d="M 8.5 21.578125 
L 8.5 54.6875 
L 17.484375 54.6875 
L 17.484375 21.921875 
Q 17.484375 14.15625 20.5 10.265625 
Q 23.53125 6.390625 29.59375 6.390625 
Q 36.859375 6.390625 41.078125 11.03125 
Q 45.3125 15.671875 45.3125 23.6875 
L 45.3125 54.6875 
L 54.296875 54.6875 
L 54.296875 0 
L 45.3125 0 
L 45.3125 8.40625 
Q 42.046875 3.421875 37.71875 1 
Q 33.40625 -1.421875 27.6875 -1.421875 
Q 18.265625 -1.421875 13.375 4.4375 
Q 8.5 10.296875 8.5 21.578125 
z
M 31.109375 56 
z
" id="DejaVuSans-117"/>
      <path d="M 41.109375 46.296875 
Q 39.59375 47.171875 37.8125 47.578125 
Q 36.03125 48 33.890625 48 
Q 26.265625 48 22.1875 43.046875 
Q 18.109375 38.09375 18.109375 28.8125 
L 18.109375 0 
L 9.078125 0 
L 9.078125 54.6875 
L 18.109375 54.6875 
L 18.109375 46.1875 
Q 20.953125 51.171875 25.484375 53.578125 
Q 30.03125 56 36.53125 56 
Q 37.453125 56 38.578125 55.875 
Q 39.703125 55.765625 41.0625 55.515625 
z
" id="DejaVuSans-114"/>
      <path d="M 48.78125 52.59375 
L 48.78125 44.1875 
Q 44.96875 46.296875 41.140625 47.34375 
Q 37.3125 48.390625 33.40625 48.390625 
Q 24.65625 48.390625 19.8125 42.84375 
Q 14.984375 37.3125 14.984375 27.296875 
Q 14.984375 17.28125 19.8125 11.734375 
Q 24.65625 6.203125 33.40625 6.203125 
Q 37.3125 6.203125 41.140625 7.25 
Q 44.96875 8.296875 48.78125 10.40625 
L 48.78125 2.09375 
Q 45.015625 0.34375 40.984375 -0.53125 
Q 36.96875 -1.421875 32.421875 -1.421875 
Q 20.0625 -1.421875 12.78125 6.34375 
Q 5.515625 14.109375 5.515625 27.296875 
Q 5.515625 40.671875 12.859375 48.328125 
Q 20.21875 56 33.015625 56 
Q 37.15625 56 41.109375 55.140625 
Q 45.0625 54.296875 48.78125 52.59375 
z
" id="DejaVuSans-99"/>
      <path d="M 56.203125 29.59375 
L 56.203125 25.203125 
L 14.890625 25.203125 
Q 15.484375 15.921875 20.484375 11.0625 
Q 25.484375 6.203125 34.421875 6.203125 
Q 39.59375 6.203125 44.453125 7.46875 
Q 49.3125 8.734375 54.109375 11.28125 
L 54.109375 2.78125 
Q 49.265625 0.734375 44.1875 -0.34375 
Q 39.109375 -1.421875 33.890625 -1.421875 
Q 20.796875 -1.421875 13.15625 6.1875 
Q 5.515625 13.8125 5.515625 26.8125 
Q 5.515625 40.234375 12.765625 48.109375 
Q 20.015625 56 32.328125 56 
Q 43.359375 56 49.78125 48.890625 
Q 56.203125 41.796875 56.203125 29.59375 
z
M 47.21875 32.234375 
Q 47.125 39.59375 43.09375 43.984375 
Q 39.0625 48.390625 32.421875 48.390625 
Q 24.90625 48.390625 20.390625 44.140625 
Q 15.875 39.890625 15.1875 32.171875 
z
" id="DejaVuSans-101"/>
      <path d="M 11.71875 12.40625 
L 22.015625 12.40625 
L 22.015625 0 
L 11.71875 0 
z
M 11.71875 51.703125 
L 22.015625 51.703125 
L 22.015625 39.3125 
L 11.71875 39.3125 
z
" id="DejaVuSans-58"/>
      <path d="M 9.421875 54.6875 
L 18.40625 54.6875 
L 18.40625 0 
L 9.421875 0 
z
M 9.421875 75.984375 
L 18.40625 75.984375 
L 18.40625 64.59375 
L 9.421875 64.59375 
z
" id="DejaVuSans-105"/>
      <path d="M 54.890625 33.015625 
L 54.890625 0 
L 45.90625 0 
L 45.90625 32.71875 
Q 45.90625 40.484375 42.875 44.328125 
Q 39.84375 48.1875 33.796875 48.1875 
Q 26.515625 48.1875 22.3125 43.546875 
Q 18.109375 38.921875 18.109375 30.90625 
L 18.109375 0 
L 9.078125 0 
L 9.078125 54.6875 
L 18.109375 54.6875 
L 18.109375 46.1875 
Q 21.34375 51.125 25.703125 53.5625 
Q 30.078125 56 35.796875 56 
Q 45.21875 56 50.046875 50.171875 
Q 54.890625 44.34375 54.890625 33.015625 
z
" id="DejaVuSans-110"/>
      <path d="M 45.40625 46.390625 
L 45.40625 75.984375 
L 54.390625 75.984375 
L 54.390625 0 
L 45.40625 0 
L 45.40625 8.203125 
Q 42.578125 3.328125 38.25 0.953125 
Q 33.9375 -1.421875 27.875 -1.421875 
Q 17.96875 -1.421875 11.734375 6.484375 
Q 5.515625 14.40625 5.515625 27.296875 
Q 5.515625 40.1875 11.734375 48.09375 
Q 17.96875 56 27.875 56 
Q 33.9375 56 38.25 53.625 
Q 42.578125 51.265625 45.40625 46.390625 
z
M 14.796875 27.296875 
Q 14.796875 17.390625 18.875 11.75 
Q 22.953125 6.109375 30.078125 6.109375 
Q 37.203125 6.109375 41.296875 11.75 
Q 45.40625 17.390625 45.40625 27.296875 
Q 45.40625 37.203125 41.296875 42.84375 
Q 37.203125 48.484375 30.078125 48.484375 
Q 22.953125 48.484375 18.875 42.84375 
Q 14.796875 37.203125 14.796875 27.296875 
z
" id="DejaVuSans-100"/>
      <path d="M 9.078125 75.984375 
L 18.109375 75.984375 
L 18.109375 31.109375 
L 44.921875 54.6875 
L 56.390625 54.6875 
L 27.390625 29.109375 
L 57.625 0 
L 45.90625 0 
L 18.109375 26.703125 
L 18.109375 0 
L 9.078125 0 
z
" id="DejaVuSans-107"/>
     </defs>
     <use xlink:href="#DejaVuSans-68"/>
     <use x="77.001953" xlink:href="#DejaVuSans-97"/>
     <use x="138.28125" xlink:href="#DejaVuSans-116"/>
     <use x="177.490234" xlink:href="#DejaVuSans-97"/>
     <use x="238.769531" xlink:href="#DejaVuSans-32"/>
     <use x="270.556641" xlink:href="#DejaVuSans-115"/>
     <use x="322.65625" xlink:href="#DejaVuSans-111"/>
     <use x="383.837891" xlink:href="#DejaVuSans-117"/>
     <use x="447.216797" xlink:href="#DejaVuSans-114"/>
     <use x="486.080078" xlink:href="#DejaVuSans-99"/>
     <use x="541.060547" xlink:href="#DejaVuSans-101"/>
     <use x="602.583984" xlink:href="#DejaVuSans-58"/>
     <use x="636.275391" xlink:href="#DejaVuSans-32"/>
     <use x="668.0625" xlink:href="#DejaVuSans-99"/>
     <use x="723.042969" xlink:href="#DejaVuSans-111"/>
     <use x="784.224609" xlink:href="#DejaVuSans-105"/>
     <use x="812.007812" xlink:href="#DejaVuSans-110"/>
     <use x="875.386719" xlink:href="#DejaVuSans-100"/>
     <use x="938.863281" xlink:href="#DejaVuSans-101"/>
     <use x="1000.386719" xlink:href="#DejaVuSans-115"/>
     <use x="1052.486328" xlink:href="#DejaVuSans-107"/>
    </g>
   </g>
   <g id="legend_1">
    <g id="patch_7">
     <path d="M 64.6 108.1845 
L 155.732812 108.1845 
Q 157.732812 108.1845 157.732812 106.1845 
L 157.732812 48.472 
Q 157.732812 46.472 155.732812 46.472 
L 64.6 46.472 
Q 62.6 46.472 62.6 48.472 
L 62.6 106.1845 
Q 62.6 108.1845 64.6 108.1845 
z
" style="fill:#ffffff;opacity:0.8;stroke:#cccccc;stroke-linejoin:miter;"/>
    </g>
    <g id="line2d_18">
     <path d="M 66.6 54.570438 
L 86.6 54.570438 
" style="fill:none;stroke:#1f77b4;stroke-linecap:square;stroke-width:1.5;"/>
    </g>
    <g id="line2d_19"/>
    <g id="text_15">
     <!-- Upper Band -->
     <g transform="translate(94.6 58.070438)scale(0.1 -0.1)">
      <defs>
       <path d="M 8.6875 72.90625 
L 18.609375 72.90625 
L 18.609375 28.609375 
Q 18.609375 16.890625 22.84375 11.734375 
Q 27.09375 6.59375 36.625 6.59375 
Q 46.09375 6.59375 50.34375 11.734375 
Q 54.59375 16.890625 54.59375 28.609375 
L 54.59375 72.90625 
L 64.5 72.90625 
L 64.5 27.390625 
Q 64.5 13.140625 57.4375 5.859375 
Q 50.390625 -1.421875 36.625 -1.421875 
Q 22.796875 -1.421875 15.734375 5.859375 
Q 8.6875 13.140625 8.6875 27.390625 
z
" id="DejaVuSans-85"/>
       <path d="M 18.109375 8.203125 
L 18.109375 -20.796875 
L 9.078125 -20.796875 
L 9.078125 54.6875 
L 18.109375 54.6875 
L 18.109375 46.390625 
Q 20.953125 51.265625 25.265625 53.625 
Q 29.59375 56 35.59375 56 
Q 45.5625 56 51.78125 48.09375 
Q 58.015625 40.1875 58.015625 27.296875 
Q 58.015625 14.40625 51.78125 6.484375 
Q 45.5625 -1.421875 35.59375 -1.421875 
Q 29.59375 -1.421875 25.265625 0.953125 
Q 20.953125 3.328125 18.109375 8.203125 
z
M 48.6875 27.296875 
Q 48.6875 37.203125 44.609375 42.84375 
Q 40.53125 48.484375 33.40625 48.484375 
Q 26.265625 48.484375 22.1875 42.84375 
Q 18.109375 37.203125 18.109375 27.296875 
Q 18.109375 17.390625 22.1875 11.75 
Q 26.265625 6.109375 33.40625 6.109375 
Q 40.53125 6.109375 44.609375 11.75 
Q 48.6875 17.390625 48.6875 27.296875 
z
" id="DejaVuSans-112"/>
       <path d="M 19.671875 34.8125 
L 19.671875 8.109375 
L 35.5 8.109375 
Q 43.453125 8.109375 47.28125 11.40625 
Q 51.125 14.703125 51.125 21.484375 
Q 51.125 28.328125 47.28125 31.5625 
Q 43.453125 34.8125 35.5 34.8125 
z
M 19.671875 64.796875 
L 19.671875 42.828125 
L 34.28125 42.828125 
Q 41.5 42.828125 45.03125 45.53125 
Q 48.578125 48.25 48.578125 53.8125 
Q 48.578125 59.328125 45.03125 62.0625 
Q 41.5 64.796875 34.28125 64.796875 
z
M 9.8125 72.90625 
L 35.015625 72.90625 
Q 46.296875 72.90625 52.390625 68.21875 
Q 58.5 63.53125 58.5 54.890625 
Q 58.5 48.1875 55.375 44.234375 
Q 52.25 40.28125 46.1875 39.3125 
Q 53.46875 37.75 57.5 32.78125 
Q 61.53125 27.828125 61.53125 20.40625 
Q 61.53125 10.640625 54.890625 5.3125 
Q 48.25 0 35.984375 0 
L 9.8125 0 
z
" id="DejaVuSans-66"/>
      </defs>
      <use xlink:href="#DejaVuSans-85"/>
      <use x="73.193359" xlink:href="#DejaVuSans-112"/>
      <use x="136.669922" xlink:href="#DejaVuSans-112"/>
      <use x="200.146484" xlink:href="#DejaVuSans-101"/>
      <use x="261.669922" xlink:href="#DejaVuSans-114"/>
      <use x="302.783203" xlink:href="#DejaVuSans-32"/>
      <use x="334.570312" xlink:href="#DejaVuSans-66"/>
      <use x="403.173828" xlink:href="#DejaVuSans-97"/>
      <use x="464.453125" xlink:href="#DejaVuSans-110"/>
      <use x="527.832031" xlink:href="#DejaVuSans-100"/>
     </g>
    </g>
    <g id="line2d_20">
     <path d="M 66.6 69.248563 
L 86.6 69.248563 
" style="fill:none;stroke:#ff7f0e;stroke-linecap:square;stroke-width:1.5;"/>
    </g>
    <g id="line2d_21"/>
    <g id="text_16">
     <!-- Lower Band -->
     <g transform="translate(94.6 72.748563)scale(0.1 -0.1)">
      <defs>
       <path d="M 9.8125 72.90625 
L 19.671875 72.90625 
L 19.671875 8.296875 
L 55.171875 8.296875 
L 55.171875 0 
L 9.8125 0 
z
" id="DejaVuSans-76"/>
       <path d="M 4.203125 54.6875 
L 13.1875 54.6875 
L 24.421875 12.015625 
L 35.59375 54.6875 
L 46.1875 54.6875 
L 57.421875 12.015625 
L 68.609375 54.6875 
L 77.59375 54.6875 
L 63.28125 0 
L 52.6875 0 
L 40.921875 44.828125 
L 29.109375 0 
L 18.5 0 
z
" id="DejaVuSans-119"/>
      </defs>
      <use xlink:href="#DejaVuSans-76"/>
      <use x="53.962891" xlink:href="#DejaVuSans-111"/>
      <use x="115.144531" xlink:href="#DejaVuSans-119"/>
      <use x="196.931641" xlink:href="#DejaVuSans-101"/>
      <use x="258.455078" xlink:href="#DejaVuSans-114"/>
      <use x="299.568359" xlink:href="#DejaVuSans-32"/>
      <use x="331.355469" xlink:href="#DejaVuSans-66"/>
      <use x="399.958984" xlink:href="#DejaVuSans-97"/>
      <use x="461.238281" xlink:href="#DejaVuSans-110"/>
      <use x="524.617188" xlink:href="#DejaVuSans-100"/>
     </g>
    </g>
    <g id="line2d_22">
     <path d="M 66.6 83.926688 
L 86.6 83.926688 
" style="fill:none;stroke:#2ca02c;stroke-linecap:square;stroke-width:1.5;"/>
    </g>
    <g id="line2d_23"/>
    <g id="text_17">
     <!-- MA -->
     <g transform="translate(94.6 87.426688)scale(0.1 -0.1)">
      <defs>
       <path d="M 9.8125 72.90625 
L 24.515625 72.90625 
L 43.109375 23.296875 
L 61.8125 72.90625 
L 76.515625 72.90625 
L 76.515625 0 
L 66.890625 0 
L 66.890625 64.015625 
L 48.09375 14.015625 
L 38.1875 14.015625 
L 19.390625 64.015625 
L 19.390625 0 
L 9.8125 0 
z
" id="DejaVuSans-77"/>
       <path d="M 34.1875 63.1875 
L 20.796875 26.90625 
L 47.609375 26.90625 
z
M 28.609375 72.90625 
L 39.796875 72.90625 
L 67.578125 0 
L 57.328125 0 
L 50.6875 18.703125 
L 17.828125 18.703125 
L 11.1875 0 
L 0.78125 0 
z
" id="DejaVuSans-65"/>
      </defs>
      <use xlink:href="#DejaVuSans-77"/>
      <use x="86.279297" xlink:href="#DejaVuSans-65"/>
     </g>
    </g>
    <g id="line2d_24">
     <path d="M 66.6 98.604813 
L 86.6 98.604813 
" style="fill:none;stroke:#d62728;stroke-linecap:square;stroke-width:1.5;"/>
    </g>
    <g id="line2d_25"/>
    <g id="text_18">
     <!-- BTC-USD -->
     <g transform="translate(94.6 102.104813)scale(0.1 -0.1)">
      <defs>
       <path d="M -0.296875 72.90625 
L 61.375 72.90625 
L 61.375 64.59375 
L 35.5 64.59375 
L 35.5 0 
L 25.59375 0 
L 25.59375 64.59375 
L -0.296875 64.59375 
z
" id="DejaVuSans-84"/>
       <path d="M 64.40625 67.28125 
L 64.40625 56.890625 
Q 59.421875 61.53125 53.78125 63.8125 
Q 48.140625 66.109375 41.796875 66.109375 
Q 29.296875 66.109375 22.65625 58.46875 
Q 16.015625 50.828125 16.015625 36.375 
Q 16.015625 21.96875 22.65625 14.328125 
Q 29.296875 6.6875 41.796875 6.6875 
Q 48.140625 6.6875 53.78125 8.984375 
Q 59.421875 11.28125 64.40625 15.921875 
L 64.40625 5.609375 
Q 59.234375 2.09375 53.4375 0.328125 
Q 47.65625 -1.421875 41.21875 -1.421875 
Q 24.65625 -1.421875 15.125 8.703125 
Q 5.609375 18.84375 5.609375 36.375 
Q 5.609375 53.953125 15.125 64.078125 
Q 24.65625 74.21875 41.21875 74.21875 
Q 47.75 74.21875 53.53125 72.484375 
Q 59.328125 70.75 64.40625 67.28125 
z
" id="DejaVuSans-67"/>
       <path d="M 53.515625 70.515625 
L 53.515625 60.890625 
Q 47.90625 63.578125 42.921875 64.890625 
Q 37.9375 66.21875 33.296875 66.21875 
Q 25.25 66.21875 20.875 63.09375 
Q 16.5 59.96875 16.5 54.203125 
Q 16.5 49.359375 19.40625 46.890625 
Q 22.3125 44.4375 30.421875 42.921875 
L 36.375 41.703125 
Q 47.40625 39.59375 52.65625 34.296875 
Q 57.90625 29 57.90625 20.125 
Q 57.90625 9.515625 50.796875 4.046875 
Q 43.703125 -1.421875 29.984375 -1.421875 
Q 24.8125 -1.421875 18.96875 -0.25 
Q 13.140625 0.921875 6.890625 3.21875 
L 6.890625 13.375 
Q 12.890625 10.015625 18.65625 8.296875 
Q 24.421875 6.59375 29.984375 6.59375 
Q 38.421875 6.59375 43.015625 9.90625 
Q 47.609375 13.234375 47.609375 19.390625 
Q 47.609375 24.75 44.3125 27.78125 
Q 41.015625 30.8125 33.5 32.328125 
L 27.484375 33.5 
Q 16.453125 35.6875 11.515625 40.375 
Q 6.59375 45.0625 6.59375 53.421875 
Q 6.59375 63.09375 13.40625 68.65625 
Q 20.21875 74.21875 32.171875 74.21875 
Q 37.3125 74.21875 42.625 73.28125 
Q 47.953125 72.359375 53.515625 70.515625 
z
" id="DejaVuSans-83"/>
      </defs>
      <use xlink:href="#DejaVuSans-66"/>
      <use x="68.603516" xlink:href="#DejaVuSans-84"/>
      <use x="123.8125" xlink:href="#DejaVuSans-67"/>
      <use x="193.636719" xlink:href="#DejaVuSans-45"/>
      <use x="229.720703" xlink:href="#DejaVuSans-85"/>
      <use x="302.914062" xlink:href="#DejaVuSans-83"/>
      <use x="366.390625" xlink:href="#DejaVuSans-68"/>
     </g>
    </g>
   </g>
  </g>
  <g id="text_19">
   <!-- Bollinger Band -->
   <g transform="translate(171.90625 19.0695)scale(0.16 -0.16)">
    <defs>
     <path d="M 9.421875 75.984375 
L 18.40625 75.984375 
L 18.40625 0 
L 9.421875 0 
z
" id="DejaVuSans-108"/>
     <path d="M 45.40625 27.984375 
Q 45.40625 37.75 41.375 43.109375 
Q 37.359375 48.484375 30.078125 48.484375 
Q 22.859375 48.484375 18.828125 43.109375 
Q 14.796875 37.75 14.796875 27.984375 
Q 14.796875 18.265625 18.828125 12.890625 
Q 22.859375 7.515625 30.078125 7.515625 
Q 37.359375 7.515625 41.375 12.890625 
Q 45.40625 18.265625 45.40625 27.984375 
z
M 54.390625 6.78125 
Q 54.390625 -7.171875 48.1875 -13.984375 
Q 42 -20.796875 29.203125 -20.796875 
Q 24.46875 -20.796875 20.265625 -20.09375 
Q 16.0625 -19.390625 12.109375 -17.921875 
L 12.109375 -9.1875 
Q 16.0625 -11.328125 19.921875 -12.34375 
Q 23.78125 -13.375 27.78125 -13.375 
Q 36.625 -13.375 41.015625 -8.765625 
Q 45.40625 -4.15625 45.40625 5.171875 
L 45.40625 9.625 
Q 42.625 4.78125 38.28125 2.390625 
Q 33.9375 0 27.875 0 
Q 17.828125 0 11.671875 7.65625 
Q 5.515625 15.328125 5.515625 27.984375 
Q 5.515625 40.671875 11.671875 48.328125 
Q 17.828125 56 27.875 56 
Q 33.9375 56 38.28125 53.609375 
Q 42.625 51.21875 45.40625 46.390625 
L 45.40625 54.6875 
L 54.390625 54.6875 
z
" id="DejaVuSans-103"/>
    </defs>
    <use xlink:href="#DejaVuSans-66"/>
    <use x="68.603516" xlink:href="#DejaVuSans-111"/>
    <use x="129.785156" xlink:href="#DejaVuSans-108"/>
    <use x="157.568359" xlink:href="#DejaVuSans-108"/>
    <use x="185.351562" xlink:href="#DejaVuSans-105"/>
    <use x="213.134766" xlink:href="#DejaVuSans-110"/>
    <use x="276.513672" xlink:href="#DejaVuSans-103"/>
    <use x="339.990234" xlink:href="#DejaVuSans-101"/>
    <use x="401.513672" xlink:href="#DejaVuSans-114"/>
    <use x="442.626953" xlink:href="#DejaVuSans-32"/>
    <use x="474.414062" xlink:href="#DejaVuSans-66"/>
    <use x="543.017578" xlink:href="#DejaVuSans-97"/>
    <use x="604.296875" xlink:href="#DejaVuSans-110"/>
    <use x="667.675781" xlink:href="#DejaVuSans-100"/>
   </g>
  </g>
 </g>
 <defs>
  <clipPath id="pe24610a701">
   <rect height="266.112" width="357.12" x="57.6" y="41.472"/>
  </clipPath>
 </defs>
</svg>
