<?xml version="1.0" encoding="utf-8" standalone="no"?>
<!DOCTYPE svg PUBLIC "-//W3C//DTD SVG 1.1//EN"
  "http://www.w3.org/Graphics/SVG/1.1/DTD/svg11.dtd">
<!-- Created with matplotlib (https://matplotlib.org/) -->
<svg height="345.6pt" version="1.1" viewBox="0 0 460.8 345.6" width="460.8pt" xmlns="http://www.w3.org/2000/svg" xmlns:xlink="http://www.w3.org/1999/xlink">
 <metadata>
  <rdf:RDF xmlns:cc="http://creativecommons.org/ns#" xmlns:dc="http://purl.org/dc/elements/1.1/" xmlns:rdf="http://www.w3.org/1999/02/22-rdf-syntax-ns#">
   <cc:Work>
    <dc:type rdf:resource="http://purl.org/dc/dcmitype/StillImage"/>
    <dc:date>2021-04-18T07:36:11.366157</dc:date>
    <dc:format>image/svg+xml</dc:format>
    <dc:creator>
     <cc:Agent>
      <dc:title>Matplotlib v3.3.2, https://matplotlib.org/</dc:title>
     </cc:Agent>
    </dc:creator>
   </cc:Work>
  </rdf:RDF>
 </metadata>
 <defs>
  <style type="text/css">*{stroke-linecap:butt;stroke-linejoin:round;}</style>
 </defs>
 <g id="figure_1">
  <g id="patch_1">
   <path d="M 0 345.6 
L 460.8 345.6 
L 460.8 0 
L 0 0 
z
" style="fill:#ffffff;"/>
  </g>
  <g id="axes_1">
   <g id="patch_2">
    <path d="M 57.6 307.584 
L 414.72 307.584 
L 414.72 41.472 
L 57.6 41.472 
z
" style="fill:#ffffff;"/>
   </g>
   <g id="PolyCollection_1">
    <defs>
     <path d="M 86.929195 -62.702616 
L 86.929195 -72.738357 
L 87.618483 -72.858965 
L 88.307771 -72.684141 
L 88.997058 -72.533354 
L 89.686346 -72.310857 
L 90.375634 -71.940297 
L 91.064922 -71.849707 
L 91.75421 -72.052303 
L 92.443497 -72.633717 
L 93.132785 -72.857596 
L 93.822073 -73.390978 
L 94.511361 -73.584884 
L 95.200649 -73.811947 
L 95.889936 -73.867378 
L 96.579224 -74.048364 
L 97.268512 -74.151557 
L 97.9578 -74.539489 
L 98.647087 -74.994435 
L 99.336375 -75.444005 
L 100.025663 -75.901163 
L 100.714951 -76.505553 
L 101.404239 -76.787555 
L 102.093526 -77.31739 
L 102.782814 -77.688927 
L 103.472102 -77.848148 
L 104.16139 -77.874829 
L 104.850677 -77.650689 
L 105.539965 -77.536566 
L 106.229253 -77.530865 
L 106.918541 -77.669829 
L 107.607829 -77.662622 
L 108.297116 -77.613735 
L 108.986404 -77.570819 
L 109.675692 -77.494626 
L 110.36498 -77.416358 
L 111.054268 -77.162508 
L 111.743555 -77.306936 
L 112.432843 -77.853689 
L 113.122131 -78.178472 
L 113.811419 -78.430719 
L 114.500706 -78.555575 
L 115.189994 -78.699573 
L 115.879282 -78.393254 
L 116.56857 -77.992514 
L 117.257858 -77.602298 
L 117.947145 -76.978409 
L 118.636433 -76.684617 
L 119.325721 -76.33426 
L 120.015009 -76.401765 
L 120.704296 -75.977447 
L 121.393584 -75.932578 
L 122.082872 -75.738947 
L 122.77216 -78.295783 
L 123.461448 -78.804437 
L 124.150735 -78.981838 
L 124.840023 -78.843244 
L 125.529311 -78.804072 
L 126.218599 -78.663794 
L 126.907887 -78.309989 
L 127.597174 -77.728584 
L 128.286462 -77.165519 
L 128.97575 -76.529404 
L 129.665038 -75.566747 
L 130.354325 -74.605793 
L 131.043613 -73.599477 
L 131.732901 -72.186584 
L 132.422189 -70.481754 
L 133.111477 -68.816549 
L 133.800764 -67.766119 
L 134.490052 -66.629139 
L 135.17934 -65.553328 
L 135.868628 -64.146475 
L 136.557915 -64.201601 
L 137.247203 -64.555631 
L 137.936491 -64.624172 
L 138.625779 -64.771949 
L 139.315067 -64.501403 
L 140.004354 -64.698602 
L 140.693642 -64.823543 
L 141.38293 -65.248667 
L 142.072218 -65.585267 
L 142.761506 -65.625697 
L 143.450793 -65.36043 
L 144.140081 -65.515023 
L 144.829369 -65.514434 
L 145.518657 -65.549448 
L 146.207944 -65.551062 
L 146.897232 -65.645336 
L 147.58652 -65.621212 
L 148.275808 -65.241365 
L 148.965096 -65.278731 
L 149.654383 -65.128878 
L 150.343671 -65.08437 
L 151.032959 -65.130692 
L 151.722247 -65.46165 
L 152.411534 -65.711167 
L 153.100822 -65.979835 
L 153.79011 -66.187402 
L 154.479398 -66.414838 
L 155.168686 -66.677512 
L 155.857973 -67.522363 
L 156.547261 -68.812103 
L 157.236549 -69.83463 
L 157.925837 -70.832503 
L 158.615124 -71.539904 
L 159.304412 -72.134963 
L 159.9937 -72.640935 
L 160.682988 -73.427366 
L 161.372276 -74.19091 
L 162.061563 -75.422481 
L 162.750851 -76.195576 
L 163.440139 -76.027873 
L 164.129427 -75.853317 
L 164.818715 -75.66341 
L 165.508002 -75.730432 
L 166.19729 -75.96376 
L 166.886578 -76.07357 
L 167.575866 -76.008188 
L 168.265153 -76.030945 
L 168.954441 -75.778186 
L 169.643729 -75.889852 
L 170.333017 -76.118341 
L 171.022305 -76.113345 
L 171.711592 -76.097997 
L 172.40088 -76.058009 
L 173.090168 -76.001251 
L 173.779456 -76.041504 
L 174.468743 -76.068495 
L 175.158031 -76.047817 
L 175.847319 -75.632962 
L 176.536607 -75.463916 
L 177.225895 -75.353574 
L 177.915182 -75.396017 
L 178.60447 -75.337699 
L 179.293758 -75.848576 
L 179.983046 -75.85341 
L 180.672334 -75.855372 
L 181.361621 -76.029292 
L 182.050909 -75.976938 
L 182.740197 -75.970416 
L 183.429485 -75.934881 
L 184.118772 -75.877177 
L 184.80806 -76.003045 
L 185.497348 -76.145692 
L 186.186636 -76.148724 
L 186.875924 -76.142629 
L 187.565211 -75.902425 
L 188.254499 -75.735016 
L 188.943787 -75.490019 
L 189.633075 -75.411696 
L 190.322362 -75.411812 
L 191.01165 -75.453265 
L 191.700938 -75.472045 
L 192.390226 -75.473377 
L 193.079514 -74.97675 
L 193.768801 -74.975756 
L 194.458089 -74.972 
L 195.147377 -74.795579 
L 195.836665 -74.783261 
L 196.525953 -74.754046 
L 197.21524 -74.704988 
L 197.904528 -74.600932 
L 198.593816 -74.39176 
L 199.283104 -74.050857 
L 199.972391 -73.975838 
L 200.661679 -73.933444 
L 201.350967 -73.885647 
L 202.040255 -73.897102 
L 202.729543 -73.777434 
L 203.41883 -73.669348 
L 204.108118 -73.578988 
L 204.797406 -73.640466 
L 205.486694 -73.609624 
L 206.175981 -73.584422 
L 206.865269 -73.461584 
L 207.554557 -73.18485 
L 208.243845 -72.931879 
L 208.933133 -72.904653 
L 209.62242 -72.905465 
L 210.311708 -72.904279 
L 211.000996 -72.852752 
L 211.690284 -72.845793 
L 212.379572 -72.848206 
L 213.068859 -72.854681 
L 213.758147 -72.945271 
L 214.447435 -73.183219 
L 215.136723 -73.402993 
L 215.82601 -73.636863 
L 216.515298 -73.974266 
L 217.204586 -75.072739 
L 217.893874 -76.862815 
L 218.583162 -78.11206 
L 219.272449 -79.200708 
L 219.961737 -80.08519 
L 220.651025 -81.155205 
L 221.340313 -82.015185 
L 222.0296 -82.631508 
L 222.718888 -83.234882 
L 223.408176 -83.670396 
L 224.097464 -84.434978 
L 224.786752 -85.066131 
L 225.476039 -85.361945 
L 226.165327 -85.592079 
L 226.854615 -85.909136 
L 227.543903 -85.995753 
L 228.233191 -85.758479 
L 228.922478 -85.457252 
L 229.611766 -85.046633 
L 230.301054 -84.452906 
L 230.990342 -84.183247 
L 231.679629 -84.274803 
L 232.368917 -84.714364 
L 233.058205 -84.758804 
L 233.747493 -84.687992 
L 234.436781 -84.66805 
L 235.126068 -84.633847 
L 235.815356 -84.49962 
L 236.504644 -84.414618 
L 237.193932 -84.313997 
L 237.883219 -84.320907 
L 238.572507 -84.363474 
L 239.261795 -84.37292 
L 239.951083 -84.370852 
L 240.640371 -84.2143 
L 241.329658 -84.162543 
L 242.018946 -84.247673 
L 242.708234 -84.281476 
L 243.397522 -84.327248 
L 244.086809 -85.173285 
L 244.776097 -85.456586 
L 245.465385 -85.842806 
L 246.154673 -85.650444 
L 246.843961 -85.537992 
L 247.533248 -85.517724 
L 248.222536 -85.410247 
L 248.911824 -85.191555 
L 249.601112 -84.950351 
L 250.2904 -84.594093 
L 250.979687 -84.395854 
L 251.668975 -84.15655 
L 252.358263 -84.045505 
L 253.047551 -83.79546 
L 253.736838 -83.50713 
L 254.426126 -83.128447 
L 255.115414 -82.62404 
L 255.804702 -81.622931 
L 256.49399 -80.62175 
L 257.183277 -80.104713 
L 257.872565 -80.15617 
L 258.561853 -80.228394 
L 259.251141 -80.228654 
L 259.940428 -80.224155 
L 260.629716 -80.300754 
L 261.319004 -80.133873 
L 262.008292 -80.106287 
L 262.69758 -80.060258 
L 263.386867 -80.030611 
L 264.076155 -79.929739 
L 264.765443 -79.92844 
L 265.454731 -79.90335 
L 266.144019 -79.716614 
L 266.833306 -79.591533 
L 267.522594 -79.563565 
L 268.211882 -79.580073 
L 268.90117 -80.0475 
L 269.590457 -80.552954 
L 270.279745 -81.152819 
L 270.969033 -81.408131 
L 271.658321 -81.731915 
L 272.347609 -82.082835 
L 273.036896 -82.255003 
L 273.726184 -82.434256 
L 274.415472 -82.694444 
L 275.10476 -83.111872 
L 275.794047 -83.609579 
L 276.483335 -85.019116 
L 277.172623 -86.294449 
L 277.861911 -87.241946 
L 278.551199 -88.219286 
L 279.240486 -88.956789 
L 279.929774 -89.505863 
L 280.619062 -90.437032 
L 281.30835 -90.946575 
L 281.997638 -91.524792 
L 282.686925 -92.132233 
L 283.376213 -92.817445 
L 284.065501 -93.391306 
L 284.754789 -93.684009 
L 285.444076 -94.175553 
L 286.133364 -94.641834 
L 286.822652 -96.26651 
L 287.51194 -97.48096 
L 288.201228 -97.757525 
L 288.890515 -98.48572 
L 289.579803 -98.890551 
L 290.269091 -99.503047 
L 290.958379 -100.347516 
L 291.647666 -101.542113 
L 292.336954 -102.58513 
L 293.026242 -103.18525 
L 293.71553 -103.546886 
L 294.404818 -104.540664 
L 295.094105 -106.105724 
L 295.783393 -107.498391 
L 296.472681 -108.64275 
L 297.161969 -110.42473 
L 297.851257 -111.817827 
L 298.540544 -112.498744 
L 299.229832 -113.076156 
L 299.91912 -114.073722 
L 300.608408 -114.979083 
L 301.297695 -115.007851 
L 301.986983 -114.670199 
L 302.676271 -114.675154 
L 303.365559 -114.675708 
L 304.054847 -115.563422 
L 304.744134 -115.662873 
L 305.433422 -116.156396 
L 306.12271 -116.650945 
L 306.811998 -116.326114 
L 307.501285 -115.862044 
L 308.190573 -115.851434 
L 308.879861 -116.064486 
L 309.569149 -116.005048 
L 310.258437 -115.95998 
L 310.947724 -115.916949 
L 311.637012 -115.876587 
L 312.3263 -115.960167 
L 313.015588 -116.190095 
L 313.704876 -116.251359 
L 314.394163 -116.571125 
L 315.083451 -118.457137 
L 315.772739 -121.854392 
L 316.462027 -124.965255 
L 317.151314 -128.331168 
L 317.840602 -130.673125 
L 318.52989 -132.114327 
L 319.219178 -134.2886 
L 319.908466 -135.728647 
L 320.597753 -137.274741 
L 321.287041 -139.425466 
L 321.976329 -142.863903 
L 322.665617 -145.541175 
L 323.354904 -148.213515 
L 324.044192 -150.668231 
L 324.73348 -153.801154 
L 325.422768 -156.082842 
L 326.112056 -158.389142 
L 326.801343 -162.913854 
L 327.490631 -167.232825 
L 328.179919 -169.513755 
L 328.869207 -173.799162 
L 329.558494 -180.555044 
L 330.247782 -188.982049 
L 330.93707 -197.140812 
L 331.626358 -203.344909 
L 332.315646 -206.496498 
L 333.004933 -207.574445 
L 333.694221 -207.215275 
L 334.383509 -208.038844 
L 335.072797 -209.648276 
L 335.762085 -209.908612 
L 336.451372 -209.153591 
L 337.14066 -208.129692 
L 337.829948 -206.876179 
L 338.519236 -205.677505 
L 339.208523 -203.817222 
L 339.897811 -202.832892 
L 340.587099 -202.559289 
L 341.276387 -202.872931 
L 341.965675 -202.762262 
L 342.654962 -203.173228 
L 343.34425 -203.036389 
L 344.033538 -201.907618 
L 344.722826 -198.394834 
L 345.412113 -194.759223 
L 346.101401 -192.766456 
L 346.790689 -192.319436 
L 347.479977 -192.260837 
L 348.169265 -191.113145 
L 348.858552 -189.58508 
L 349.54784 -189.750562 
L 350.237128 -191.554156 
L 350.926416 -194.242394 
L 351.615704 -195.897046 
L 352.304991 -206.992463 
L 352.994279 -215.640678 
L 353.683567 -220.903558 
L 354.372855 -228.712255 
L 355.062142 -234.526949 
L 355.75143 -239.249784 
L 356.440718 -244.265259 
L 357.130006 -247.883128 
L 357.819294 -250.644585 
L 358.508581 -256.002358 
L 359.197869 -260.054045 
L 359.887157 -266.823121 
L 360.576445 -271.411698 
L 361.265732 -275.940827 
L 361.95502 -277.350521 
L 362.644308 -276.35706 
L 363.333596 -274.403512 
L 364.022884 -271.849721 
L 364.712171 -269.211331 
L 365.401459 -265.375017 
L 366.090747 -265.634686 
L 366.780035 -265.718856 
L 367.469323 -265.130005 
L 368.15861 -265.413357 
L 368.847898 -265.360333 
L 369.537186 -265.277293 
L 370.226474 -265.286028 
L 370.915761 -265.623865 
L 371.605049 -266.450238 
L 372.294337 -268.060696 
L 372.983625 -270.480455 
L 373.672913 -272.153121 
L 374.3622 -273.258186 
L 375.051488 -277.16668 
L 375.740776 -280.580375 
L 376.430064 -282.391278 
L 377.119351 -284.759882 
L 377.808639 -287.79519 
L 378.497927 -289.129184 
L 379.187215 -290.032733 
L 379.876503 -289.599962 
L 380.56579 -290.250789 
L 381.255078 -289.181379 
L 381.944366 -288.717785 
L 382.633654 -287.116957 
L 383.322942 -285.806577 
L 384.012229 -283.667358 
L 384.701517 -282.558366 
L 385.390805 -281.933857 
L 386.080093 -282.404857 
L 386.76938 -283.39039 
L 387.458668 -283.864841 
L 388.147956 -284.483291 
L 388.837244 -282.712277 
L 389.526532 -281.812683 
L 390.215819 -282.479286 
L 390.905107 -283.455677 
L 391.594395 -283.001806 
L 392.283683 -282.638514 
L 392.97297 -282.646808 
L 393.662258 -282.647043 
L 394.351546 -283.948552 
L 395.040834 -285.23611 
L 395.730122 -286.216481 
L 396.419409 -289.037691 
L 397.108697 -289.066703 
L 397.797985 -291.372851 
L 398.487273 -292.021412 
L 398.487273 -256.776888 
L 398.487273 -256.776888 
L 397.797985 -255.184641 
L 397.108697 -254.183741 
L 396.419409 -249.517583 
L 395.730122 -247.78004 
L 395.040834 -246.530829 
L 394.351546 -245.432891 
L 393.662258 -245.756219 
L 392.97297 -245.756252 
L 392.283683 -245.757298 
L 391.594395 -246.076271 
L 390.905107 -245.981731 
L 390.215819 -246.060689 
L 389.526532 -245.688095 
L 388.837244 -245.567444 
L 388.147956 -244.687606 
L 387.458668 -244.710872 
L 386.76938 -244.794583 
L 386.080093 -244.605064 
L 385.390805 -243.980466 
L 384.701517 -241.987508 
L 384.012229 -238.909983 
L 383.322942 -234.280084 
L 382.633654 -231.933108 
L 381.944366 -228.744333 
L 381.255078 -226.695024 
L 380.56579 -223.365378 
L 379.876503 -220.880783 
L 379.187215 -215.24639 
L 378.497927 -211.345759 
L 377.808639 -208.106695 
L 377.119351 -206.37207 
L 376.430064 -205.834286 
L 375.740776 -204.915113 
L 375.051488 -206.35775 
L 374.3622 -208.752496 
L 373.672913 -209.309014 
L 372.983625 -210.211514 
L 372.294337 -210.885554 
L 371.605049 -211.361674 
L 370.915761 -210.890892 
L 370.226474 -209.994585 
L 369.537186 -209.900699 
L 368.847898 -209.183044 
L 368.15861 -208.743925 
L 367.469323 -208.049642 
L 366.780035 -205.98588 
L 366.090747 -204.809404 
L 365.401459 -205.546131 
L 364.712171 -198.746793 
L 364.022884 -193.253203 
L 363.333596 -187.141314 
L 362.644308 -180.031775 
L 361.95502 -174.502708 
L 361.265732 -168.395002 
L 360.576445 -163.259933 
L 359.887157 -158.640929 
L 359.197869 -156.675503 
L 358.508581 -153.72733 
L 357.819294 -151.519947 
L 357.130006 -146.694792 
L 356.440718 -144.078578 
L 355.75143 -142.470884 
L 355.062142 -141.162347 
L 354.372855 -140.788278 
L 353.683567 -142.53676 
L 352.994279 -142.131167 
L 352.304991 -146.334408 
L 351.615704 -153.180863 
L 350.926416 -153.943677 
L 350.237128 -155.247132 
L 349.54784 -156.129894 
L 348.858552 -156.208579 
L 348.169265 -155.268021 
L 347.479977 -154.867448 
L 346.790689 -155.017576 
L 346.101401 -155.514193 
L 345.412113 -155.085339 
L 344.722826 -153.861492 
L 344.033538 -153.259019 
L 343.34425 -155.790121 
L 342.654962 -157.395674 
L 341.965675 -158.526326 
L 341.276387 -158.302588 
L 340.587099 -158.991071 
L 339.897811 -158.385724 
L 339.208523 -156.816344 
L 338.519236 -152.305482 
L 337.829948 -148.258593 
L 337.14066 -143.242972 
L 336.451372 -138.659109 
L 335.762085 -133.948718 
L 335.072797 -130.034028 
L 334.383509 -125.807908 
L 333.694221 -121.11302 
L 333.004933 -116.373872 
L 332.315646 -112.742266 
L 331.626358 -109.636497 
L 330.93707 -109.059321 
L 330.247782 -110.431739 
L 329.558494 -112.249967 
L 328.869207 -113.338356 
L 328.179919 -112.493928 
L 327.490631 -109.690374 
L 326.801343 -108.445357 
L 326.112056 -107.700893 
L 325.422768 -105.72839 
L 324.73348 -103.595483 
L 324.044192 -102.429624 
L 323.354904 -101.325628 
L 322.665617 -100.471909 
L 321.976329 -100.292976 
L 321.287041 -100.876682 
L 320.597753 -100.783057 
L 319.908466 -100.27796 
L 319.219178 -100.189895 
L 318.52989 -100.507549 
L 317.840602 -100.362292 
L 317.151314 -101.187398 
L 316.462027 -102.273017 
L 315.772739 -103.202031 
L 315.083451 -104.312029 
L 314.394163 -104.512775 
L 313.704876 -104.540971 
L 313.015588 -104.556292 
L 312.3263 -104.467946 
L 311.637012 -104.394803 
L 310.947724 -104.620433 
L 310.258437 -104.74705 
L 309.569149 -104.403197 
L 308.879861 -104.126482 
L 308.190573 -103.729276 
L 307.501285 -102.640501 
L 306.811998 -100.886536 
L 306.12271 -99.517671 
L 305.433422 -98.750535 
L 304.744134 -98.06112 
L 304.054847 -96.911529 
L 303.365559 -96.022061 
L 302.676271 -94.865362 
L 301.986983 -93.961034 
L 301.297695 -92.688272 
L 300.608408 -92.072642 
L 299.91912 -91.712245 
L 299.229832 -90.686835 
L 298.540544 -89.504747 
L 297.851257 -88.221798 
L 297.161969 -87.619383 
L 296.472681 -87.428583 
L 295.783393 -86.855004 
L 295.094105 -86.498467 
L 294.404818 -86.28423 
L 293.71553 -86.031721 
L 293.026242 -85.220439 
L 292.336954 -84.592528 
L 291.647666 -84.340146 
L 290.958379 -84.175599 
L 290.269091 -83.920661 
L 289.579803 -83.521374 
L 288.890515 -82.546447 
L 288.201228 -81.765869 
L 287.51194 -80.697016 
L 286.822652 -80.205281 
L 286.133364 -80.10398 
L 285.444076 -79.499309 
L 284.754789 -78.939455 
L 284.065501 -78.368873 
L 283.376213 -78.045859 
L 282.686925 -77.752457 
L 281.997638 -77.444978 
L 281.30835 -77.054153 
L 280.619062 -76.601695 
L 279.929774 -76.322504 
L 279.240486 -75.869401 
L 278.551199 -75.683825 
L 277.861911 -75.663744 
L 277.172623 -75.646724 
L 276.483335 -75.943187 
L 275.794047 -76.469164 
L 275.10476 -76.489118 
L 274.415472 -76.50447 
L 273.726184 -76.500223 
L 273.036896 -76.429733 
L 272.347609 -76.365716 
L 271.658321 -76.400613 
L 270.969033 -76.417899 
L 270.279745 -76.19908 
L 269.590457 -76.388889 
L 268.90117 -76.550215 
L 268.211882 -76.835025 
L 267.522594 -76.845607 
L 266.833306 -76.832333 
L 266.144019 -76.825076 
L 265.454731 -76.817794 
L 264.765443 -76.822265 
L 264.076155 -76.828928 
L 263.386867 -76.630208 
L 262.69758 -76.547599 
L 262.008292 -76.402064 
L 261.319004 -76.212491 
L 260.629716 -75.749679 
L 259.940428 -75.605282 
L 259.251141 -75.362911 
L 258.561853 -75.107982 
L 257.872565 -75.063105 
L 257.183277 -74.960746 
L 256.49399 -74.865436 
L 255.804702 -74.375629 
L 255.115414 -73.956044 
L 254.426126 -73.785452 
L 253.736838 -73.652692 
L 253.047551 -73.599363 
L 252.358263 -73.56976 
L 251.668975 -73.567391 
L 250.979687 -73.582581 
L 250.2904 -73.666784 
L 249.601112 -73.889194 
L 248.911824 -74.123211 
L 248.222536 -74.427842 
L 247.533248 -74.822675 
L 246.843961 -75.530886 
L 246.154673 -76.066244 
L 245.465385 -76.748741 
L 244.776097 -77.841062 
L 244.086809 -78.718352 
L 243.397522 -80.212648 
L 242.708234 -80.443072 
L 242.018946 -80.383619 
L 241.329658 -80.217135 
L 240.640371 -80.227706 
L 239.951083 -80.214018 
L 239.261795 -80.273178 
L 238.572507 -80.317513 
L 237.883219 -80.572446 
L 237.193932 -80.71604 
L 236.504644 -80.551028 
L 235.815356 -80.276762 
L 235.126068 -79.961748 
L 234.436781 -79.776565 
L 233.747493 -79.664024 
L 233.058205 -79.266298 
L 232.368917 -78.960936 
L 231.679629 -78.856583 
L 230.990342 -78.595834 
L 230.301054 -77.675974 
L 229.611766 -76.199229 
L 228.922478 -74.916023 
L 228.233191 -73.797666 
L 227.543903 -72.820187 
L 226.854615 -71.905799 
L 226.165327 -71.089022 
L 225.476039 -70.315818 
L 224.786752 -69.636071 
L 224.097464 -69.180607 
L 223.408176 -68.863592 
L 222.718888 -68.448589 
L 222.0296 -68.218151 
L 221.340313 -68.041033 
L 220.651025 -68.089544 
L 219.961737 -68.320393 
L 219.272449 -68.498213 
L 218.583162 -68.814954 
L 217.893874 -69.425799 
L 217.204586 -70.526085 
L 216.515298 -71.205957 
L 215.82601 -71.33759 
L 215.136723 -71.358571 
L 214.447435 -71.391884 
L 213.758147 -71.461336 
L 213.068859 -71.488306 
L 212.379572 -71.473525 
L 211.690284 -71.459362 
L 211.000996 -71.428155 
L 210.311708 -71.316472 
L 209.62242 -71.332308 
L 208.933133 -71.33766 
L 208.243845 -71.334697 
L 207.554557 -71.206238 
L 206.865269 -71.04963 
L 206.175981 -71.005994 
L 205.486694 -71.00549 
L 204.797406 -71.0423 
L 204.108118 -71.052136 
L 203.41883 -71.02958 
L 202.729543 -71.006119 
L 202.040255 -71.002711 
L 201.350967 -71.039213 
L 200.661679 -71.128304 
L 199.972391 -71.222367 
L 199.283104 -71.258991 
L 198.593816 -71.178338 
L 197.904528 -71.206411 
L 197.21524 -71.333997 
L 196.525953 -71.583734 
L 195.836665 -71.739423 
L 195.147377 -71.950413 
L 194.458089 -72.001536 
L 193.768801 -72.005566 
L 193.079514 -72.005678 
L 192.390226 -71.776599 
L 191.700938 -71.869254 
L 191.01165 -71.982317 
L 190.322362 -72.134844 
L 189.633075 -72.135411 
L 188.943787 -71.949239 
L 188.254499 -71.474671 
L 187.565211 -71.199612 
L 186.875924 -70.698348 
L 186.186636 -70.599542 
L 185.497348 -70.485655 
L 184.80806 -70.377698 
L 184.118772 -70.343466 
L 183.429485 -70.327513 
L 182.740197 -70.315993 
L 182.050909 -70.315537 
L 181.361621 -70.301752 
L 180.672334 -70.325336 
L 179.983046 -70.32489 
L 179.293758 -70.324925 
L 178.60447 -70.416322 
L 177.915182 -70.020332 
L 177.225895 -69.784515 
L 176.536607 -69.235256 
L 175.847319 -69.184476 
L 175.158031 -69.084531 
L 174.468743 -69.247003 
L 173.779456 -69.426815 
L 173.090168 -69.517198 
L 172.40088 -69.297965 
L 171.711592 -69.109231 
L 171.022305 -68.978082 
L 170.333017 -68.745177 
L 169.643729 -68.556549 
L 168.954441 -68.055029 
L 168.265153 -67.028902 
L 167.575866 -66.202124 
L 166.886578 -65.38359 
L 166.19729 -64.71494 
L 165.508002 -64.107252 
L 164.818715 -63.550594 
L 164.129427 -62.716847 
L 163.440139 -61.733392 
L 162.750851 -60.931135 
L 162.061563 -60.664864 
L 161.372276 -60.780277 
L 160.682988 -60.618117 
L 159.9937 -60.517656 
L 159.304412 -60.144814 
L 158.615124 -59.964944 
L 157.925837 -59.840928 
L 157.236549 -60.131918 
L 156.547261 -60.36283 
L 155.857973 -60.912201 
L 155.168686 -61.369438 
L 154.479398 -61.477228 
L 153.79011 -61.577682 
L 153.100822 -61.661952 
L 152.411534 -61.599017 
L 151.722247 -61.59377 
L 151.032959 -61.594387 
L 150.343671 -61.517449 
L 149.654383 -61.398188 
L 148.965096 -61.067829 
L 148.275808 -60.861811 
L 147.58652 -59.938211 
L 146.897232 -59.566183 
L 146.207944 -59.51605 
L 145.518657 -59.510708 
L 144.829369 -59.465896 
L 144.140081 -59.46681 
L 143.450793 -59.35834 
L 142.761506 -58.684478 
L 142.072218 -58.436844 
L 141.38293 -58.325236 
L 140.693642 -58.280904 
L 140.004354 -57.617778 
L 139.315067 -57.022094 
L 138.625779 -56.049948 
L 137.936491 -55.585932 
L 137.247203 -55.024523 
L 136.557915 -54.891873 
L 135.868628 -54.236124 
L 135.17934 -53.436359 
L 134.490052 -52.898566 
L 133.800764 -52.595631 
L 133.111477 -52.282676 
L 132.422189 -51.510063 
L 131.732901 -50.798109 
L 131.043613 -50.349931 
L 130.354325 -50.152855 
L 129.665038 -50.112 
L 128.97575 -50.412104 
L 128.286462 -50.723344 
L 127.597174 -51.103245 
L 126.907887 -51.547143 
L 126.218599 -52.570293 
L 125.529311 -53.826408 
L 124.840023 -55.514106 
L 124.150735 -57.116267 
L 123.461448 -59.231112 
L 122.77216 -61.372826 
L 122.082872 -65.863273 
L 121.393584 -66.339379 
L 120.704296 -66.979661 
L 120.015009 -67.461768 
L 119.325721 -68.198909 
L 118.636433 -68.261137 
L 117.947145 -68.265737 
L 117.257858 -68.160883 
L 116.56857 -68.361973 
L 115.879282 -68.600087 
L 115.189994 -68.835598 
L 114.500706 -69.51035 
L 113.811419 -70.291495 
L 113.122131 -71.021738 
L 112.432843 -71.747687 
L 111.743555 -72.682833 
L 111.054268 -72.948372 
L 110.36498 -72.496651 
L 109.675692 -72.142735 
L 108.986404 -71.931164 
L 108.297116 -71.764141 
L 107.607829 -71.609634 
L 106.918541 -71.568153 
L 106.229253 -71.345013 
L 105.539965 -71.212814 
L 104.850677 -70.684309 
L 104.16139 -69.93434 
L 103.472102 -69.14428 
L 102.782814 -68.57818 
L 102.093526 -68.158796 
L 101.404239 -68.039538 
L 100.714951 -67.866547 
L 100.025663 -67.852213 
L 99.336375 -67.824465 
L 98.647087 -67.907074 
L 97.9578 -68.01412 
L 97.268512 -68.039514 
L 96.579224 -67.994355 
L 95.889936 -67.979525 
L 95.200649 -67.538518 
L 94.511361 -67.276351 
L 93.822073 -66.932529 
L 93.132785 -66.932325 
L 92.443497 -66.560311 
L 91.75421 -66.595628 
L 91.064922 -66.497457 
L 90.375634 -66.066803 
L 89.686346 -65.299615 
L 88.997058 -64.640113 
L 88.307771 -64.066503 
L 87.618483 -63.204431 
L 86.929195 -62.702616 
z
" id="m623c11af9c" style="stroke:#4b0082;stroke-opacity:0.3;"/>
    </defs>
    <g clip-path="url(#p1600e538d0)">
     <use style="fill:#4b0082;fill-opacity:0.3;stroke:#4b0082;stroke-opacity:0.3;" x="0" xlink:href="#m623c11af9c" y="345.6"/>
    </g>
   </g>
   <g id="matplotlib.axis_1">
    <g id="xtick_1">
     <g id="line2d_1">
      <defs>
       <path d="M 0 0 
L 0 3.5 
" id="mc93c5004bc" style="stroke:#000000;stroke-width:0.8;"/>
      </defs>
      <g>
       <use style="stroke:#000000;stroke-width:0.8;" x="73.832727" xlink:href="#mc93c5004bc" y="307.584"/>
      </g>
     </g>
     <g id="text_1">
      <!-- 2020-01 -->
      <g transform="translate(52.941321 322.182437)scale(0.1 -0.1)">
       <defs>
        <path d="M 19.1875 8.296875 
L 53.609375 8.296875 
L 53.609375 0 
L 7.328125 0 
L 7.328125 8.296875 
Q 12.9375 14.109375 22.625 23.890625 
Q 32.328125 33.6875 34.8125 36.53125 
Q 39.546875 41.84375 41.421875 45.53125 
Q 43.3125 49.21875 43.3125 52.78125 
Q 43.3125 58.59375 39.234375 62.25 
Q 35.15625 65.921875 28.609375 65.921875 
Q 23.96875 65.921875 18.8125 64.3125 
Q 13.671875 62.703125 7.8125 59.421875 
L 7.8125 69.390625 
Q 13.765625 71.78125 18.9375 73 
Q 24.125 74.21875 28.421875 74.21875 
Q 39.75 74.21875 46.484375 68.546875 
Q 53.21875 62.890625 53.21875 53.421875 
Q 53.21875 48.921875 51.53125 44.890625 
Q 49.859375 40.875 45.40625 35.40625 
Q 44.1875 33.984375 37.640625 27.21875 
Q 31.109375 20.453125 19.1875 8.296875 
z
" id="DejaVuSans-50"/>
        <path d="M 31.78125 66.40625 
Q 24.171875 66.40625 20.328125 58.90625 
Q 16.5 51.421875 16.5 36.375 
Q 16.5 21.390625 20.328125 13.890625 
Q 24.171875 6.390625 31.78125 6.390625 
Q 39.453125 6.390625 43.28125 13.890625 
Q 47.125 21.390625 47.125 36.375 
Q 47.125 51.421875 43.28125 58.90625 
Q 39.453125 66.40625 31.78125 66.40625 
z
M 31.78125 74.21875 
Q 44.046875 74.21875 50.515625 64.515625 
Q 56.984375 54.828125 56.984375 36.375 
Q 56.984375 17.96875 50.515625 8.265625 
Q 44.046875 -1.421875 31.78125 -1.421875 
Q 19.53125 -1.421875 13.0625 8.265625 
Q 6.59375 17.96875 6.59375 36.375 
Q 6.59375 54.828125 13.0625 64.515625 
Q 19.53125 74.21875 31.78125 74.21875 
z
" id="DejaVuSans-48"/>
        <path d="M 4.890625 31.390625 
L 31.203125 31.390625 
L 31.203125 23.390625 
L 4.890625 23.390625 
z
" id="DejaVuSans-45"/>
        <path d="M 12.40625 8.296875 
L 28.515625 8.296875 
L 28.515625 63.921875 
L 10.984375 60.40625 
L 10.984375 69.390625 
L 28.421875 72.90625 
L 38.28125 72.90625 
L 38.28125 8.296875 
L 54.390625 8.296875 
L 54.390625 0 
L 12.40625 0 
z
" id="DejaVuSans-49"/>
       </defs>
       <use xlink:href="#DejaVuSans-50"/>
       <use x="63.623047" xlink:href="#DejaVuSans-48"/>
       <use x="127.246094" xlink:href="#DejaVuSans-50"/>
       <use x="190.869141" xlink:href="#DejaVuSans-48"/>
       <use x="254.492188" xlink:href="#DejaVuSans-45"/>
       <use x="290.576172" xlink:href="#DejaVuSans-48"/>
       <use x="354.199219" xlink:href="#DejaVuSans-49"/>
      </g>
     </g>
    </g>
    <g id="xtick_2">
     <g id="line2d_2">
      <g>
       <use style="stroke:#000000;stroke-width:0.8;" x="115.189994" xlink:href="#mc93c5004bc" y="307.584"/>
      </g>
     </g>
     <g id="text_2">
      <!-- 2020-03 -->
      <g transform="translate(94.298588 322.182437)scale(0.1 -0.1)">
       <defs>
        <path d="M 40.578125 39.3125 
Q 47.65625 37.796875 51.625 33 
Q 55.609375 28.21875 55.609375 21.1875 
Q 55.609375 10.40625 48.1875 4.484375 
Q 40.765625 -1.421875 27.09375 -1.421875 
Q 22.515625 -1.421875 17.65625 -0.515625 
Q 12.796875 0.390625 7.625 2.203125 
L 7.625 11.71875 
Q 11.71875 9.328125 16.59375 8.109375 
Q 21.484375 6.890625 26.8125 6.890625 
Q 36.078125 6.890625 40.9375 10.546875 
Q 45.796875 14.203125 45.796875 21.1875 
Q 45.796875 27.640625 41.28125 31.265625 
Q 36.765625 34.90625 28.71875 34.90625 
L 20.21875 34.90625 
L 20.21875 43.015625 
L 29.109375 43.015625 
Q 36.375 43.015625 40.234375 45.921875 
Q 44.09375 48.828125 44.09375 54.296875 
Q 44.09375 59.90625 40.109375 62.90625 
Q 36.140625 65.921875 28.71875 65.921875 
Q 24.65625 65.921875 20.015625 65.03125 
Q 15.375 64.15625 9.8125 62.3125 
L 9.8125 71.09375 
Q 15.4375 72.65625 20.34375 73.4375 
Q 25.25 74.21875 29.59375 74.21875 
Q 40.828125 74.21875 47.359375 69.109375 
Q 53.90625 64.015625 53.90625 55.328125 
Q 53.90625 49.265625 50.4375 45.09375 
Q 46.96875 40.921875 40.578125 39.3125 
z
" id="DejaVuSans-51"/>
       </defs>
       <use xlink:href="#DejaVuSans-50"/>
       <use x="63.623047" xlink:href="#DejaVuSans-48"/>
       <use x="127.246094" xlink:href="#DejaVuSans-50"/>
       <use x="190.869141" xlink:href="#DejaVuSans-48"/>
       <use x="254.492188" xlink:href="#DejaVuSans-45"/>
       <use x="290.576172" xlink:href="#DejaVuSans-48"/>
       <use x="354.199219" xlink:href="#DejaVuSans-51"/>
      </g>
     </g>
    </g>
    <g id="xtick_3">
     <g id="line2d_3">
      <g>
       <use style="stroke:#000000;stroke-width:0.8;" x="157.236549" xlink:href="#mc93c5004bc" y="307.584"/>
      </g>
     </g>
     <g id="text_3">
      <!-- 2020-05 -->
      <g transform="translate(136.345143 322.182437)scale(0.1 -0.1)">
       <defs>
        <path d="M 10.796875 72.90625 
L 49.515625 72.90625 
L 49.515625 64.59375 
L 19.828125 64.59375 
L 19.828125 46.734375 
Q 21.96875 47.46875 24.109375 47.828125 
Q 26.265625 48.1875 28.421875 48.1875 
Q 40.625 48.1875 47.75 41.5 
Q 54.890625 34.8125 54.890625 23.390625 
Q 54.890625 11.625 47.5625 5.09375 
Q 40.234375 -1.421875 26.90625 -1.421875 
Q 22.3125 -1.421875 17.546875 -0.640625 
Q 12.796875 0.140625 7.71875 1.703125 
L 7.71875 11.625 
Q 12.109375 9.234375 16.796875 8.0625 
Q 21.484375 6.890625 26.703125 6.890625 
Q 35.15625 6.890625 40.078125 11.328125 
Q 45.015625 15.765625 45.015625 23.390625 
Q 45.015625 31 40.078125 35.4375 
Q 35.15625 39.890625 26.703125 39.890625 
Q 22.75 39.890625 18.8125 39.015625 
Q 14.890625 38.140625 10.796875 36.28125 
z
" id="DejaVuSans-53"/>
       </defs>
       <use xlink:href="#DejaVuSans-50"/>
       <use x="63.623047" xlink:href="#DejaVuSans-48"/>
       <use x="127.246094" xlink:href="#DejaVuSans-50"/>
       <use x="190.869141" xlink:href="#DejaVuSans-48"/>
       <use x="254.492188" xlink:href="#DejaVuSans-45"/>
       <use x="290.576172" xlink:href="#DejaVuSans-48"/>
       <use x="354.199219" xlink:href="#DejaVuSans-53"/>
      </g>
     </g>
    </g>
    <g id="xtick_4">
     <g id="line2d_4">
      <g>
       <use style="stroke:#000000;stroke-width:0.8;" x="199.283104" xlink:href="#mc93c5004bc" y="307.584"/>
      </g>
     </g>
     <g id="text_4">
      <!-- 2020-07 -->
      <g transform="translate(178.391697 322.182437)scale(0.1 -0.1)">
       <defs>
        <path d="M 8.203125 72.90625 
L 55.078125 72.90625 
L 55.078125 68.703125 
L 28.609375 0 
L 18.3125 0 
L 43.21875 64.59375 
L 8.203125 64.59375 
z
" id="DejaVuSans-55"/>
       </defs>
       <use xlink:href="#DejaVuSans-50"/>
       <use x="63.623047" xlink:href="#DejaVuSans-48"/>
       <use x="127.246094" xlink:href="#DejaVuSans-50"/>
       <use x="190.869141" xlink:href="#DejaVuSans-48"/>
       <use x="254.492188" xlink:href="#DejaVuSans-45"/>
       <use x="290.576172" xlink:href="#DejaVuSans-48"/>
       <use x="354.199219" xlink:href="#DejaVuSans-55"/>
      </g>
     </g>
    </g>
    <g id="xtick_5">
     <g id="line2d_5">
      <g>
       <use style="stroke:#000000;stroke-width:0.8;" x="242.018946" xlink:href="#mc93c5004bc" y="307.584"/>
      </g>
     </g>
     <g id="text_5">
      <!-- 2020-09 -->
      <g transform="translate(221.12754 322.182437)scale(0.1 -0.1)">
       <defs>
        <path d="M 10.984375 1.515625 
L 10.984375 10.5 
Q 14.703125 8.734375 18.5 7.8125 
Q 22.3125 6.890625 25.984375 6.890625 
Q 35.75 6.890625 40.890625 13.453125 
Q 46.046875 20.015625 46.78125 33.40625 
Q 43.953125 29.203125 39.59375 26.953125 
Q 35.25 24.703125 29.984375 24.703125 
Q 19.046875 24.703125 12.671875 31.3125 
Q 6.296875 37.9375 6.296875 49.421875 
Q 6.296875 60.640625 12.9375 67.421875 
Q 19.578125 74.21875 30.609375 74.21875 
Q 43.265625 74.21875 49.921875 64.515625 
Q 56.59375 54.828125 56.59375 36.375 
Q 56.59375 19.140625 48.40625 8.859375 
Q 40.234375 -1.421875 26.421875 -1.421875 
Q 22.703125 -1.421875 18.890625 -0.6875 
Q 15.09375 0.046875 10.984375 1.515625 
z
M 30.609375 32.421875 
Q 37.25 32.421875 41.125 36.953125 
Q 45.015625 41.5 45.015625 49.421875 
Q 45.015625 57.28125 41.125 61.84375 
Q 37.25 66.40625 30.609375 66.40625 
Q 23.96875 66.40625 20.09375 61.84375 
Q 16.21875 57.28125 16.21875 49.421875 
Q 16.21875 41.5 20.09375 36.953125 
Q 23.96875 32.421875 30.609375 32.421875 
z
" id="DejaVuSans-57"/>
       </defs>
       <use xlink:href="#DejaVuSans-50"/>
       <use x="63.623047" xlink:href="#DejaVuSans-48"/>
       <use x="127.246094" xlink:href="#DejaVuSans-50"/>
       <use x="190.869141" xlink:href="#DejaVuSans-48"/>
       <use x="254.492188" xlink:href="#DejaVuSans-45"/>
       <use x="290.576172" xlink:href="#DejaVuSans-48"/>
       <use x="354.199219" xlink:href="#DejaVuSans-57"/>
      </g>
     </g>
    </g>
    <g id="xtick_6">
     <g id="line2d_6">
      <g>
       <use style="stroke:#000000;stroke-width:0.8;" x="284.065501" xlink:href="#mc93c5004bc" y="307.584"/>
      </g>
     </g>
     <g id="text_6">
      <!-- 2020-11 -->
      <g transform="translate(263.174095 322.182437)scale(0.1 -0.1)">
       <use xlink:href="#DejaVuSans-50"/>
       <use x="63.623047" xlink:href="#DejaVuSans-48"/>
       <use x="127.246094" xlink:href="#DejaVuSans-50"/>
       <use x="190.869141" xlink:href="#DejaVuSans-48"/>
       <use x="254.492188" xlink:href="#DejaVuSans-45"/>
       <use x="290.576172" xlink:href="#DejaVuSans-49"/>
       <use x="354.199219" xlink:href="#DejaVuSans-49"/>
      </g>
     </g>
    </g>
    <g id="xtick_7">
     <g id="line2d_7">
      <g>
       <use style="stroke:#000000;stroke-width:0.8;" x="326.112056" xlink:href="#mc93c5004bc" y="307.584"/>
      </g>
     </g>
     <g id="text_7">
      <!-- 2021-01 -->
      <g transform="translate(305.220649 322.182437)scale(0.1 -0.1)">
       <use xlink:href="#DejaVuSans-50"/>
       <use x="63.623047" xlink:href="#DejaVuSans-48"/>
       <use x="127.246094" xlink:href="#DejaVuSans-50"/>
       <use x="190.869141" xlink:href="#DejaVuSans-49"/>
       <use x="254.492188" xlink:href="#DejaVuSans-45"/>
       <use x="290.576172" xlink:href="#DejaVuSans-48"/>
       <use x="354.199219" xlink:href="#DejaVuSans-49"/>
      </g>
     </g>
    </g>
    <g id="xtick_8">
     <g id="line2d_8">
      <g>
       <use style="stroke:#000000;stroke-width:0.8;" x="366.780035" xlink:href="#mc93c5004bc" y="307.584"/>
      </g>
     </g>
     <g id="text_8">
      <!-- 2021-03 -->
      <g transform="translate(345.888628 322.182437)scale(0.1 -0.1)">
       <use xlink:href="#DejaVuSans-50"/>
       <use x="63.623047" xlink:href="#DejaVuSans-48"/>
       <use x="127.246094" xlink:href="#DejaVuSans-50"/>
       <use x="190.869141" xlink:href="#DejaVuSans-49"/>
       <use x="254.492188" xlink:href="#DejaVuSans-45"/>
       <use x="290.576172" xlink:href="#DejaVuSans-48"/>
       <use x="354.199219" xlink:href="#DejaVuSans-51"/>
      </g>
     </g>
    </g>
    <g id="xtick_9">
     <g id="line2d_9">
      <g>
       <use style="stroke:#000000;stroke-width:0.8;" x="408.826589" xlink:href="#mc93c5004bc" y="307.584"/>
      </g>
     </g>
     <g id="text_9">
      <!-- 2021-05 -->
      <g transform="translate(387.935183 322.182437)scale(0.1 -0.1)">
       <use xlink:href="#DejaVuSans-50"/>
       <use x="63.623047" xlink:href="#DejaVuSans-48"/>
       <use x="127.246094" xlink:href="#DejaVuSans-50"/>
       <use x="190.869141" xlink:href="#DejaVuSans-49"/>
       <use x="254.492188" xlink:href="#DejaVuSans-45"/>
       <use x="290.576172" xlink:href="#DejaVuSans-48"/>
       <use x="354.199219" xlink:href="#DejaVuSans-53"/>
      </g>
     </g>
    </g>
   </g>
   <g id="matplotlib.axis_2">
    <g id="ytick_1">
     <g id="line2d_10">
      <defs>
       <path d="M 0 0 
L -3.5 0 
" id="m3483570f46" style="stroke:#000000;stroke-width:0.8;"/>
      </defs>
      <g>
       <use style="stroke:#000000;stroke-width:0.8;" x="57.6" xlink:href="#m3483570f46" y="270.182296"/>
      </g>
     </g>
     <g id="text_10">
      <!-- 10000 -->
      <g transform="translate(18.7875 273.981515)scale(0.1 -0.1)">
       <use xlink:href="#DejaVuSans-49"/>
       <use x="63.623047" xlink:href="#DejaVuSans-48"/>
       <use x="127.246094" xlink:href="#DejaVuSans-48"/>
       <use x="190.869141" xlink:href="#DejaVuSans-48"/>
       <use x="254.492188" xlink:href="#DejaVuSans-48"/>
      </g>
     </g>
    </g>
    <g id="ytick_2">
     <g id="line2d_11">
      <g>
       <use style="stroke:#000000;stroke-width:0.8;" x="57.6" xlink:href="#m3483570f46" y="229.742649"/>
      </g>
     </g>
     <g id="text_11">
      <!-- 20000 -->
      <g transform="translate(18.7875 233.541868)scale(0.1 -0.1)">
       <use xlink:href="#DejaVuSans-50"/>
       <use x="63.623047" xlink:href="#DejaVuSans-48"/>
       <use x="127.246094" xlink:href="#DejaVuSans-48"/>
       <use x="190.869141" xlink:href="#DejaVuSans-48"/>
       <use x="254.492188" xlink:href="#DejaVuSans-48"/>
      </g>
     </g>
    </g>
    <g id="ytick_3">
     <g id="line2d_12">
      <g>
       <use style="stroke:#000000;stroke-width:0.8;" x="57.6" xlink:href="#m3483570f46" y="189.303002"/>
      </g>
     </g>
     <g id="text_12">
      <!-- 30000 -->
      <g transform="translate(18.7875 193.10222)scale(0.1 -0.1)">
       <use xlink:href="#DejaVuSans-51"/>
       <use x="63.623047" xlink:href="#DejaVuSans-48"/>
       <use x="127.246094" xlink:href="#DejaVuSans-48"/>
       <use x="190.869141" xlink:href="#DejaVuSans-48"/>
       <use x="254.492188" xlink:href="#DejaVuSans-48"/>
      </g>
     </g>
    </g>
    <g id="ytick_4">
     <g id="line2d_13">
      <g>
       <use style="stroke:#000000;stroke-width:0.8;" x="57.6" xlink:href="#m3483570f46" y="148.863354"/>
      </g>
     </g>
     <g id="text_13">
      <!-- 40000 -->
      <g transform="translate(18.7875 152.662573)scale(0.1 -0.1)">
       <defs>
        <path d="M 37.796875 64.3125 
L 12.890625 25.390625 
L 37.796875 25.390625 
z
M 35.203125 72.90625 
L 47.609375 72.90625 
L 47.609375 25.390625 
L 58.015625 25.390625 
L 58.015625 17.1875 
L 47.609375 17.1875 
L 47.609375 0 
L 37.796875 0 
L 37.796875 17.1875 
L 4.890625 17.1875 
L 4.890625 26.703125 
z
" id="DejaVuSans-52"/>
       </defs>
       <use xlink:href="#DejaVuSans-52"/>
       <use x="63.623047" xlink:href="#DejaVuSans-48"/>
       <use x="127.246094" xlink:href="#DejaVuSans-48"/>
       <use x="190.869141" xlink:href="#DejaVuSans-48"/>
       <use x="254.492188" xlink:href="#DejaVuSans-48"/>
      </g>
     </g>
    </g>
    <g id="ytick_5">
     <g id="line2d_14">
      <g>
       <use style="stroke:#000000;stroke-width:0.8;" x="57.6" xlink:href="#m3483570f46" y="108.423707"/>
      </g>
     </g>
     <g id="text_14">
      <!-- 50000 -->
      <g transform="translate(18.7875 112.222926)scale(0.1 -0.1)">
       <use xlink:href="#DejaVuSans-53"/>
       <use x="63.623047" xlink:href="#DejaVuSans-48"/>
       <use x="127.246094" xlink:href="#DejaVuSans-48"/>
       <use x="190.869141" xlink:href="#DejaVuSans-48"/>
       <use x="254.492188" xlink:href="#DejaVuSans-48"/>
      </g>
     </g>
    </g>
    <g id="ytick_6">
     <g id="line2d_15">
      <g>
       <use style="stroke:#000000;stroke-width:0.8;" x="57.6" xlink:href="#m3483570f46" y="67.98406"/>
      </g>
     </g>
     <g id="text_15">
      <!-- 60000 -->
      <g transform="translate(18.7875 71.783279)scale(0.1 -0.1)">
       <defs>
        <path d="M 33.015625 40.375 
Q 26.375 40.375 22.484375 35.828125 
Q 18.609375 31.296875 18.609375 23.390625 
Q 18.609375 15.53125 22.484375 10.953125 
Q 26.375 6.390625 33.015625 6.390625 
Q 39.65625 6.390625 43.53125 10.953125 
Q 47.40625 15.53125 47.40625 23.390625 
Q 47.40625 31.296875 43.53125 35.828125 
Q 39.65625 40.375 33.015625 40.375 
z
M 52.59375 71.296875 
L 52.59375 62.3125 
Q 48.875 64.0625 45.09375 64.984375 
Q 41.3125 65.921875 37.59375 65.921875 
Q 27.828125 65.921875 22.671875 59.328125 
Q 17.53125 52.734375 16.796875 39.40625 
Q 19.671875 43.65625 24.015625 45.921875 
Q 28.375 48.1875 33.59375 48.1875 
Q 44.578125 48.1875 50.953125 41.515625 
Q 57.328125 34.859375 57.328125 23.390625 
Q 57.328125 12.15625 50.6875 5.359375 
Q 44.046875 -1.421875 33.015625 -1.421875 
Q 20.359375 -1.421875 13.671875 8.265625 
Q 6.984375 17.96875 6.984375 36.375 
Q 6.984375 53.65625 15.1875 63.9375 
Q 23.390625 74.21875 37.203125 74.21875 
Q 40.921875 74.21875 44.703125 73.484375 
Q 48.484375 72.75 52.59375 71.296875 
z
" id="DejaVuSans-54"/>
       </defs>
       <use xlink:href="#DejaVuSans-54"/>
       <use x="63.623047" xlink:href="#DejaVuSans-48"/>
       <use x="127.246094" xlink:href="#DejaVuSans-48"/>
       <use x="190.869141" xlink:href="#DejaVuSans-48"/>
       <use x="254.492188" xlink:href="#DejaVuSans-48"/>
      </g>
     </g>
    </g>
   </g>
   <g id="line2d_16">
    <path clip-path="url(#p1600e538d0)" d="M 86.929195 272.861643 
L 87.618483 272.741035 
L 89.686346 273.289143 
L 90.375634 273.659703 
L 91.064922 273.750293 
L 91.75421 273.547697 
L 92.443497 272.966283 
L 93.132785 272.742404 
L 93.822073 272.209022 
L 95.889936 271.732622 
L 97.268512 271.448443 
L 98.647087 270.605565 
L 100.025663 269.698837 
L 100.714951 269.094447 
L 101.404239 268.812445 
L 102.093526 268.28261 
L 102.782814 267.911073 
L 103.472102 267.751852 
L 104.16139 267.725171 
L 105.539965 268.063434 
L 106.229253 268.069135 
L 106.918541 267.930171 
L 108.986404 268.029181 
L 110.36498 268.183642 
L 111.054268 268.437492 
L 111.743555 268.293064 
L 112.432843 267.746311 
L 113.811419 267.169281 
L 115.189994 266.900427 
L 116.56857 267.607486 
L 117.257858 267.997702 
L 117.947145 268.621591 
L 119.325721 269.26574 
L 120.015009 269.198235 
L 120.704296 269.622553 
L 121.393584 269.667422 
L 122.082872 269.861053 
L 122.77216 267.304217 
L 123.461448 266.795563 
L 124.150735 266.618162 
L 126.218599 266.936206 
L 126.907887 267.290011 
L 128.97575 269.070596 
L 131.043613 272.000523 
L 131.732901 273.413416 
L 133.111477 276.783451 
L 135.17934 280.046672 
L 135.868628 281.453525 
L 136.557915 281.398399 
L 137.247203 281.044369 
L 138.625779 280.828051 
L 139.315067 281.098597 
L 140.693642 280.776457 
L 142.072218 280.014733 
L 142.761506 279.974303 
L 143.450793 280.23957 
L 144.140081 280.084977 
L 146.207944 280.048938 
L 146.897232 279.954664 
L 147.58652 279.978788 
L 148.275808 280.358635 
L 148.965096 280.321269 
L 150.343671 280.51563 
L 151.032959 280.469308 
L 152.411534 279.888833 
L 155.168686 278.922488 
L 155.857973 278.077637 
L 156.547261 276.787897 
L 157.925837 274.767497 
L 159.304412 273.465037 
L 159.9937 272.959065 
L 161.372276 271.40909 
L 162.061563 270.177519 
L 162.750851 269.404424 
L 164.818715 269.93659 
L 165.508002 269.869568 
L 166.19729 269.63624 
L 166.886578 269.52643 
L 169.643729 269.710148 
L 170.333017 269.481659 
L 175.158031 269.552183 
L 175.847319 269.967038 
L 177.225895 270.246426 
L 178.60447 270.262301 
L 179.293758 269.751424 
L 180.672334 269.744628 
L 181.361621 269.570708 
L 184.118772 269.722823 
L 186.186636 269.451276 
L 186.875924 269.457371 
L 188.943787 270.109981 
L 190.322362 270.188188 
L 192.390226 270.126623 
L 193.079514 270.62325 
L 194.458089 270.628 
L 195.147377 270.804421 
L 197.21524 270.895012 
L 198.593816 271.20824 
L 199.283104 271.549143 
L 201.350967 271.714353 
L 202.040255 271.702898 
L 204.108118 272.021012 
L 205.486694 271.990376 
L 206.865269 272.138416 
L 208.243845 272.668121 
L 212.379572 272.751794 
L 213.758147 272.654729 
L 216.515298 271.625734 
L 217.204586 270.527261 
L 217.893874 268.737185 
L 219.272449 266.399292 
L 219.961737 265.51481 
L 220.651025 264.444795 
L 221.340313 263.584815 
L 222.718888 262.365118 
L 223.408176 261.929604 
L 224.786752 260.533869 
L 226.854615 259.690864 
L 227.543903 259.604247 
L 228.922478 260.142748 
L 229.611766 260.553367 
L 230.301054 261.147094 
L 230.990342 261.416753 
L 231.679629 261.325197 
L 232.368917 260.885636 
L 233.058205 260.841196 
L 237.883219 261.279093 
L 239.951083 261.229148 
L 241.329658 261.437457 
L 243.397522 261.272752 
L 244.086809 260.426715 
L 245.465385 259.757194 
L 246.843961 260.062008 
L 248.222536 260.189753 
L 249.601112 260.649649 
L 250.2904 261.005907 
L 253.736838 262.09287 
L 255.115414 262.97596 
L 256.49399 264.97825 
L 257.183277 265.495287 
L 260.629716 265.299246 
L 261.319004 265.466127 
L 265.454731 265.69665 
L 266.833306 266.008467 
L 268.211882 266.019927 
L 269.590457 265.047046 
L 270.279745 264.447181 
L 271.658321 263.868085 
L 272.347609 263.517165 
L 274.415472 262.905556 
L 275.794047 261.990421 
L 277.172623 259.305551 
L 279.240486 256.643211 
L 279.929774 256.094137 
L 280.619062 255.162968 
L 281.997638 254.075208 
L 284.065501 252.208694 
L 284.754789 251.915991 
L 286.133364 250.958166 
L 286.822652 249.33349 
L 287.51194 248.11904 
L 288.201228 247.842475 
L 288.890515 247.11428 
L 289.579803 246.709449 
L 290.269091 246.096953 
L 290.958379 245.252484 
L 292.336954 243.01487 
L 293.026242 242.41475 
L 293.71553 242.053114 
L 294.404818 241.059336 
L 295.783393 238.101609 
L 296.472681 236.95725 
L 297.161969 235.17527 
L 297.851257 233.782173 
L 299.229832 232.523844 
L 300.608408 230.620917 
L 301.297695 230.592149 
L 301.986983 230.929801 
L 303.365559 230.924292 
L 304.054847 230.036578 
L 304.744134 229.937127 
L 306.12271 228.949055 
L 306.811998 229.273886 
L 307.501285 229.737956 
L 308.190573 229.748566 
L 308.879861 229.535514 
L 311.637012 229.723413 
L 312.3263 229.639833 
L 313.015588 229.409905 
L 313.704876 229.348641 
L 314.394163 229.028875 
L 315.083451 227.142863 
L 317.151314 217.268832 
L 317.840602 214.926875 
L 318.52989 213.485673 
L 319.219178 211.3114 
L 320.597753 208.325259 
L 321.287041 206.174534 
L 321.976329 202.736097 
L 325.422768 189.517158 
L 326.112056 187.210858 
L 327.490631 178.367175 
L 328.179919 176.086245 
L 328.869207 171.800838 
L 329.558494 165.044956 
L 330.93707 148.459188 
L 331.626358 142.255091 
L 332.315646 139.103502 
L 333.004933 138.025555 
L 333.694221 138.384725 
L 334.383509 137.561156 
L 335.072797 135.951724 
L 335.762085 135.691388 
L 336.451372 136.446409 
L 337.14066 137.470308 
L 338.519236 139.922495 
L 339.208523 141.782778 
L 339.897811 142.767108 
L 340.587099 143.040711 
L 341.276387 142.727069 
L 341.965675 142.837738 
L 342.654962 142.426772 
L 343.34425 142.563611 
L 344.033538 143.692382 
L 345.412113 150.840777 
L 346.101401 152.833544 
L 346.790689 153.280564 
L 347.479977 153.339163 
L 348.169265 154.486855 
L 348.858552 156.01492 
L 349.54784 155.849438 
L 350.237128 154.045844 
L 350.926416 151.357606 
L 351.615704 149.702954 
L 352.304991 138.607537 
L 352.994279 129.959322 
L 353.683567 124.696442 
L 354.372855 116.887745 
L 355.062142 111.073051 
L 356.440718 101.334741 
L 357.130006 97.716872 
L 357.819294 94.955415 
L 358.508581 89.597642 
L 359.197869 85.545955 
L 359.887157 78.776879 
L 361.265732 69.659173 
L 361.95502 68.249479 
L 362.644308 69.24294 
L 363.333596 71.196488 
L 364.712171 76.388669 
L 365.401459 80.224983 
L 366.090747 79.965314 
L 366.780035 79.881144 
L 367.469323 80.469995 
L 368.15861 80.186643 
L 370.226474 80.313972 
L 370.915761 79.976135 
L 371.605049 79.149762 
L 372.294337 77.539304 
L 372.983625 75.119545 
L 373.672913 73.446879 
L 374.3622 72.341814 
L 375.740776 65.019625 
L 376.430064 63.208722 
L 377.119351 60.840118 
L 377.808639 57.80481 
L 378.497927 56.470816 
L 379.187215 55.567267 
L 379.876503 56.000038 
L 380.56579 55.349211 
L 381.255078 56.418621 
L 381.944366 56.882215 
L 382.633654 58.483043 
L 383.322942 59.793423 
L 384.012229 61.932642 
L 384.701517 63.041634 
L 385.390805 63.666143 
L 386.080093 63.195143 
L 386.76938 62.20961 
L 387.458668 61.735159 
L 388.147956 61.116709 
L 388.837244 62.887723 
L 389.526532 63.787317 
L 390.215819 63.120714 
L 390.905107 62.144323 
L 392.283683 62.961486 
L 393.662258 62.952957 
L 395.040834 60.36389 
L 395.730122 59.383519 
L 396.419409 56.562309 
L 397.108697 56.533297 
L 397.797985 54.227149 
L 398.487273 53.578588 
L 398.487273 53.578588 
" style="fill:none;stroke:#1f77b4;stroke-linecap:square;stroke-width:1.5;"/>
   </g>
   <g id="line2d_17">
    <path clip-path="url(#p1600e538d0)" d="M 86.929195 282.897384 
L 87.618483 282.395569 
L 88.307771 281.533497 
L 89.686346 280.300385 
L 90.375634 279.533197 
L 91.064922 279.102543 
L 91.75421 279.004372 
L 92.443497 279.039689 
L 93.132785 278.667675 
L 93.822073 278.667471 
L 95.889936 277.620475 
L 97.9578 277.58588 
L 99.336375 277.775535 
L 100.714951 277.733453 
L 102.093526 277.441204 
L 102.782814 277.02182 
L 103.472102 276.45572 
L 104.850677 274.915691 
L 105.539965 274.387186 
L 108.986404 273.668836 
L 109.675692 273.457265 
L 111.054268 272.651628 
L 111.743555 272.917167 
L 112.432843 273.852313 
L 115.189994 276.764402 
L 117.257858 277.439117 
L 118.636433 277.338863 
L 119.325721 277.401091 
L 120.015009 278.138232 
L 120.704296 278.620339 
L 121.393584 279.260621 
L 122.082872 279.736727 
L 122.77216 284.227174 
L 124.150735 288.483733 
L 126.218599 293.029707 
L 126.907887 294.052857 
L 128.286462 294.876656 
L 129.665038 295.488 
L 130.354325 295.447145 
L 131.043613 295.250069 
L 131.732901 294.801891 
L 133.111477 293.317324 
L 134.490052 292.701434 
L 135.17934 292.163641 
L 136.557915 290.708127 
L 137.247203 290.575477 
L 138.625779 289.550052 
L 139.315067 288.577906 
L 140.693642 287.319096 
L 142.072218 287.163156 
L 142.761506 286.915522 
L 143.450793 286.24166 
L 144.829369 286.134104 
L 146.897232 286.033817 
L 147.58652 285.661789 
L 148.275808 284.738189 
L 148.965096 284.532171 
L 149.654383 284.201812 
L 151.032959 284.005613 
L 153.79011 284.022318 
L 155.168686 284.230562 
L 156.547261 285.23717 
L 157.925837 285.759072 
L 159.304412 285.455186 
L 159.9937 285.082344 
L 161.372276 284.819723 
L 162.061563 284.935136 
L 162.750851 284.668865 
L 163.440139 283.866608 
L 164.818715 282.049406 
L 166.19729 280.88506 
L 167.575866 279.397876 
L 168.265153 278.571098 
L 168.954441 277.544971 
L 169.643729 277.043451 
L 173.090168 276.082802 
L 174.468743 276.352997 
L 175.158031 276.515469 
L 176.536607 276.364744 
L 177.225895 275.815485 
L 177.915182 275.579668 
L 178.60447 275.183678 
L 179.983046 275.27511 
L 184.80806 275.222302 
L 186.875924 274.901652 
L 187.565211 274.400388 
L 188.254499 274.125329 
L 188.943787 273.650761 
L 189.633075 273.464589 
L 190.322362 273.465156 
L 192.390226 273.823401 
L 193.079514 273.594322 
L 195.147377 273.649587 
L 197.904528 274.393589 
L 204.108118 274.547864 
L 206.865269 274.55037 
L 208.243845 274.265303 
L 211.690284 274.140638 
L 213.758147 274.138664 
L 216.515298 274.394043 
L 217.204586 275.073915 
L 217.893874 276.174201 
L 218.583162 276.785046 
L 219.272449 277.101787 
L 221.340313 277.558967 
L 222.718888 277.151411 
L 224.786752 275.963929 
L 226.165327 274.510978 
L 227.543903 272.779813 
L 228.922478 270.683977 
L 230.990342 267.004166 
L 231.679629 266.743417 
L 232.368917 266.639064 
L 234.436781 265.823435 
L 235.126068 265.638252 
L 236.504644 265.048972 
L 237.193932 264.88396 
L 239.951083 265.385982 
L 241.329658 265.382865 
L 242.708234 265.156928 
L 243.397522 265.387352 
L 244.086809 266.881648 
L 244.776097 267.758938 
L 245.465385 268.851259 
L 247.533248 270.777325 
L 248.911824 271.476789 
L 250.2904 271.933216 
L 251.668975 272.032609 
L 253.736838 271.947308 
L 255.115414 271.643956 
L 256.49399 270.734564 
L 258.561853 270.492018 
L 259.940428 269.994718 
L 260.629716 269.850321 
L 261.319004 269.387509 
L 262.69758 269.052401 
L 263.386867 268.969792 
L 264.076155 268.771072 
L 268.211882 268.764975 
L 268.90117 269.049785 
L 270.279745 269.40092 
L 270.969033 269.182101 
L 273.036896 269.170267 
L 274.415472 269.09553 
L 275.794047 269.130836 
L 276.483335 269.656813 
L 277.172623 269.953276 
L 278.551199 269.916175 
L 279.240486 269.730599 
L 279.929774 269.277496 
L 280.619062 268.998305 
L 281.997638 268.155022 
L 284.065501 267.231127 
L 286.133364 265.49602 
L 286.822652 265.394719 
L 287.51194 264.902984 
L 288.201228 263.834131 
L 288.890515 263.053553 
L 289.579803 262.078626 
L 290.269091 261.679339 
L 292.336954 261.007472 
L 293.026242 260.379561 
L 293.71553 259.568279 
L 295.783393 258.744996 
L 296.472681 258.171417 
L 297.161969 257.980617 
L 297.851257 257.378202 
L 299.229832 254.913165 
L 299.91912 253.887755 
L 300.608408 253.527358 
L 301.297695 252.911728 
L 301.986983 251.638966 
L 302.676271 250.734638 
L 303.365559 249.577939 
L 304.054847 248.688471 
L 304.744134 247.53888 
L 306.12271 246.082329 
L 306.811998 244.713464 
L 307.501285 242.959499 
L 308.190573 241.870724 
L 309.569149 241.196803 
L 310.258437 240.85295 
L 312.3263 241.132054 
L 313.704876 241.059029 
L 314.394163 241.087225 
L 315.083451 241.287971 
L 317.151314 244.412602 
L 317.840602 245.237708 
L 318.52989 245.092451 
L 319.219178 245.410105 
L 319.908466 245.32204 
L 320.597753 244.816943 
L 321.287041 244.723318 
L 321.976329 245.307024 
L 322.665617 245.128091 
L 323.354904 244.274372 
L 324.73348 242.004517 
L 326.112056 237.899107 
L 326.801343 237.154643 
L 327.490631 235.909626 
L 328.179919 233.106072 
L 328.869207 232.261644 
L 329.558494 233.350033 
L 330.247782 235.168261 
L 330.93707 236.540679 
L 331.626358 235.963503 
L 332.315646 232.857734 
L 333.004933 229.226128 
L 335.072797 215.565972 
L 335.762085 211.651282 
L 339.208523 188.783656 
L 339.897811 187.214276 
L 340.587099 186.608929 
L 341.276387 187.297412 
L 341.965675 187.073674 
L 342.654962 188.204326 
L 343.34425 189.809879 
L 344.033538 192.340981 
L 344.722826 191.738508 
L 345.412113 190.514661 
L 346.101401 190.085807 
L 346.790689 190.582424 
L 347.479977 190.732552 
L 348.169265 190.331979 
L 348.858552 189.391421 
L 349.54784 189.470106 
L 350.237128 190.352868 
L 350.926416 191.656323 
L 351.615704 192.419137 
L 352.304991 199.265592 
L 352.994279 203.468833 
L 353.683567 203.06324 
L 354.372855 204.811722 
L 355.062142 204.437653 
L 355.75143 203.129116 
L 356.440718 201.521422 
L 357.130006 198.905208 
L 357.819294 194.080053 
L 358.508581 191.87267 
L 359.197869 188.924497 
L 359.887157 186.959071 
L 361.265732 177.204998 
L 365.401459 140.053869 
L 366.090747 140.790596 
L 366.780035 139.61412 
L 367.469323 137.550358 
L 368.15861 136.856075 
L 368.847898 136.416956 
L 369.537186 135.699301 
L 370.226474 135.605415 
L 370.915761 134.709108 
L 371.605049 134.238326 
L 372.294337 134.714446 
L 372.983625 135.388486 
L 373.672913 136.290986 
L 374.3622 136.847504 
L 375.051488 139.24225 
L 375.740776 140.684887 
L 376.430064 139.765714 
L 377.119351 139.22793 
L 377.808639 137.493305 
L 378.497927 134.254241 
L 379.187215 130.35361 
L 379.876503 124.719217 
L 380.56579 122.234622 
L 381.255078 118.904976 
L 381.944366 116.855667 
L 382.633654 113.666892 
L 383.322942 111.319916 
L 384.012229 106.690017 
L 384.701517 103.612492 
L 385.390805 101.619534 
L 386.080093 100.994936 
L 386.76938 100.805417 
L 388.147956 100.912394 
L 388.837244 100.032556 
L 389.526532 99.911905 
L 390.215819 99.539311 
L 390.905107 99.618269 
L 391.594395 99.523729 
L 392.283683 99.842702 
L 393.662258 99.843781 
L 394.351546 100.167109 
L 395.730122 97.81996 
L 396.419409 96.082417 
L 397.108697 91.416259 
L 397.797985 90.415359 
L 398.487273 88.823112 
L 398.487273 88.823112 
" style="fill:none;stroke:#ff7f0e;stroke-linecap:square;stroke-width:1.5;"/>
   </g>
   <g id="line2d_18">
    <path clip-path="url(#p1600e538d0)" d="M 86.929195 277.879513 
L 88.997058 277.013267 
L 91.064922 276.426418 
L 91.75421 276.276034 
L 95.889936 274.676548 
L 97.9578 274.323196 
L 100.025663 273.723312 
L 103.472102 272.103786 
L 104.16139 271.695415 
L 105.539965 271.22531 
L 106.229253 271.162061 
L 106.918541 270.981009 
L 108.986404 270.849008 
L 111.743555 270.605115 
L 113.811419 271.238893 
L 115.879282 272.10333 
L 117.947145 272.977927 
L 119.325721 273.333415 
L 120.704296 274.121446 
L 122.082872 274.79889 
L 124.150735 277.550948 
L 125.529311 279.28476 
L 126.907887 280.671434 
L 131.043613 283.625296 
L 133.800764 285.419125 
L 134.490052 285.836147 
L 135.868628 286.4087 
L 137.247203 285.809923 
L 140.004354 284.44181 
L 140.693642 284.047777 
L 142.761506 283.444912 
L 144.140081 283.109083 
L 146.207944 283.066444 
L 147.58652 282.820289 
L 148.275808 282.548412 
L 149.654383 282.336467 
L 151.032959 282.237461 
L 153.100822 281.779106 
L 155.168686 281.576525 
L 155.857973 281.382718 
L 159.304412 279.460112 
L 161.372276 278.114406 
L 162.750851 277.036645 
L 165.508002 275.681158 
L 168.954441 273.683392 
L 170.333017 273.168241 
L 172.40088 272.922013 
L 173.779456 272.86584 
L 176.536607 273.250414 
L 177.915182 272.891825 
L 179.293758 272.51325 
L 184.80806 272.409629 
L 186.186636 272.225867 
L 188.254499 271.995156 
L 189.633075 271.826447 
L 191.700938 271.92935 
L 195.147377 272.227004 
L 201.350967 273.13757 
L 206.865269 273.344393 
L 209.62242 273.481113 
L 213.068859 273.428506 
L 214.447435 273.312449 
L 216.515298 273.009889 
L 217.204586 272.800588 
L 220.651025 270.977626 
L 223.408176 269.333006 
L 227.543903 266.19203 
L 229.611766 264.977069 
L 230.990342 264.21046 
L 234.436781 263.377692 
L 237.193932 263.084981 
L 241.329658 263.410161 
L 242.708234 263.237726 
L 243.397522 263.330052 
L 246.843961 265.065561 
L 248.222536 265.680955 
L 250.979687 266.610782 
L 255.804702 267.60072 
L 257.183277 268.06727 
L 260.629716 267.574783 
L 262.008292 267.345825 
L 264.765443 267.224647 
L 266.144019 267.329155 
L 267.522594 267.395414 
L 268.90117 267.301142 
L 275.794047 265.560629 
L 277.861911 264.147155 
L 286.133364 258.227093 
L 287.51194 256.511012 
L 290.269091 253.888146 
L 291.647666 252.65887 
L 295.094105 249.297905 
L 297.161969 246.577944 
L 299.91912 242.707016 
L 300.608408 242.074138 
L 301.297695 241.751938 
L 303.365559 240.251116 
L 304.054847 239.362524 
L 307.501285 236.348727 
L 308.190573 235.809645 
L 308.879861 235.504516 
L 310.258437 235.246485 
L 311.637012 235.464305 
L 314.394163 235.05805 
L 315.083451 234.215417 
L 317.151314 230.840717 
L 318.52989 229.289062 
L 321.287041 225.448926 
L 322.665617 222.593458 
L 324.044192 219.051072 
L 326.112056 212.554982 
L 329.558494 199.197494 
L 332.315646 185.980618 
L 334.383509 178.676624 
L 335.072797 175.758848 
L 336.451372 171.69365 
L 338.519236 166.608506 
L 339.208523 165.283217 
L 339.897811 164.990692 
L 340.587099 164.82482 
L 341.276387 165.01224 
L 341.965675 164.955706 
L 342.654962 165.315549 
L 343.34425 166.186745 
L 344.033538 168.016682 
L 345.412113 170.677719 
L 346.101401 171.459676 
L 346.790689 171.931494 
L 347.479977 172.035857 
L 348.858552 172.703171 
L 349.54784 172.659772 
L 350.237128 172.199356 
L 350.926416 171.506965 
L 351.615704 171.061046 
L 352.994279 166.714078 
L 355.062142 157.755352 
L 357.130006 148.31104 
L 359.887157 132.867975 
L 361.95502 119.673385 
L 364.022884 113.048538 
L 365.401459 110.139426 
L 366.090747 110.377955 
L 368.15861 108.521359 
L 368.847898 108.328312 
L 369.537186 108.011004 
L 370.226474 107.959693 
L 372.294337 106.126875 
L 372.983625 105.254016 
L 374.3622 104.594659 
L 375.051488 103.837785 
L 375.740776 102.852256 
L 377.119351 100.034024 
L 379.876503 90.359627 
L 380.56579 88.791917 
L 381.255078 87.661798 
L 382.633654 86.074967 
L 383.322942 85.55667 
L 384.012229 84.311329 
L 384.701517 83.327063 
L 386.080093 82.095039 
L 386.76938 81.507513 
L 388.147956 81.014552 
L 389.526532 81.849611 
L 390.905107 80.881296 
L 391.594395 81.060961 
L 392.283683 81.402094 
L 393.662258 81.398369 
L 394.351546 80.909279 
L 395.730122 78.601739 
L 397.108697 73.974778 
L 397.797985 72.321254 
L 398.487273 71.20085 
L 398.487273 71.20085 
" style="fill:none;stroke:#2ca02c;stroke-linecap:square;stroke-width:1.5;"/>
   </g>
   <g id="line2d_19">
    <path clip-path="url(#p1600e538d0)" d="M 73.832727 281.552051 
L 74.522015 282.469607 
L 75.211303 280.912633 
L 76.589878 280.873278 
L 77.968454 277.632243 
L 78.657742 278.096847 
L 79.34703 279.010581 
L 80.036317 277.504844 
L 80.725605 278.203796 
L 81.414893 277.546828 
L 82.104181 277.843675 
L 82.793468 275.00502 
L 83.482756 275.000734 
L 84.172044 275.371053 
L 84.861332 274.670086 
L 85.55062 274.625926 
L 86.239907 275.445226 
L 86.929195 275.717318 
L 87.618483 275.327823 
L 88.307771 275.597124 
L 88.997058 276.684405 
L 89.686346 276.505075 
L 90.375634 276.906998 
L 91.75421 274.624564 
L 92.443497 272.635877 
L 93.132785 273.051651 
L 93.822073 272.168995 
L 94.511361 272.82651 
L 95.200649 272.654527 
L 96.579224 273.046866 
L 97.268512 273.517205 
L 97.9578 271.745679 
L 98.647087 271.191076 
L 99.336375 270.956324 
L 100.025663 270.596162 
L 100.714951 269.530072 
L 101.404239 270.777898 
L 102.093526 269.106197 
L 102.782814 268.775192 
L 103.472102 269.251868 
L 104.16139 268.739585 
L 104.850677 270.574473 
L 105.539965 270.480741 
L 106.229253 271.370898 
L 106.918541 269.430617 
L 107.607829 271.826249 
L 108.297116 271.770321 
L 108.986404 271.413448 
L 109.675692 271.525526 
L 110.36498 270.290378 
L 111.743555 272.956779 
L 112.432843 275.075008 
L 113.122131 274.967985 
L 113.811419 275.376115 
L 114.500706 276.092962 
L 115.189994 276.085446 
L 115.879282 274.524496 
L 116.56857 275.163733 
L 117.257858 275.164919 
L 117.947145 273.929939 
L 118.636433 273.558393 
L 119.325721 274.606589 
L 120.015009 278.067266 
L 120.704296 278.494868 
L 121.393584 278.677749 
L 122.082872 278.467692 
L 122.77216 290.749557 
L 123.461448 287.856134 
L 124.150735 289.664817 
L 124.840023 288.94605 
L 125.529311 290.225486 
L 126.218599 289.038926 
L 126.907887 288.737536 
L 127.597174 285.629149 
L 128.286462 285.522624 
L 128.97575 285.558993 
L 129.665038 287.152107 
L 130.354325 284.364723 
L 131.043613 283.257317 
L 131.732901 283.5771 
L 132.422189 283.487142 
L 133.111477 283.532515 
L 133.800764 285.442015 
L 134.490052 286.835316 
L 135.17934 284.057928 
L 135.868628 284.538573 
L 136.557915 283.640813 
L 137.247203 282.98933 
L 137.936491 283.365318 
L 138.625779 282.828117 
L 139.315067 283.209484 
L 140.004354 281.1101 
L 140.693642 280.856867 
L 142.072218 281.040544 
L 142.761506 282.678349 
L 143.450793 283.066165 
L 144.140081 281.734083 
L 144.829369 283.272347 
L 145.518657 282.778842 
L 146.207944 283.417586 
L 146.897232 282.088446 
L 147.58652 281.962972 
L 148.275808 281.397787 
L 148.965096 281.624088 
L 149.654383 282.733509 
L 150.343671 282.893286 
L 151.032959 281.75673 
L 151.722247 280.061904 
L 152.411534 280.28048 
L 153.100822 279.893453 
L 153.79011 279.877135 
L 155.168686 279.385753 
L 156.547261 275.274659 
L 157.236549 275.150014 
L 157.925837 274.665253 
L 158.615124 274.958178 
L 159.304412 275.029554 
L 159.9937 274.629444 
L 160.682988 273.219526 
L 161.372276 272.705932 
L 162.061563 270.236212 
L 162.750851 271.230431 
L 163.440139 276.387962 
L 164.129427 274.804295 
L 164.818715 275.318333 
L 165.508002 273.825099 
L 166.19729 271.870318 
L 167.575866 272.345615 
L 168.265153 271.091683 
L 168.954441 271.652075 
L 169.643729 271.03254 
L 170.333017 271.103491 
L 171.022305 272.870926 
L 171.711592 273.507244 
L 173.090168 273.40481 
L 173.779456 275.130734 
L 174.468743 274.74773 
L 175.158031 274.537444 
L 176.536607 272.413089 
L 177.225895 271.998784 
L 178.60447 271.941623 
L 179.293758 269.630295 
L 179.983046 271.822326 
L 180.672334 272.084779 
L 181.361621 270.842251 
L 182.050909 271.477376 
L 182.740197 271.712734 
L 183.429485 271.27269 
L 184.118772 271.52101 
L 185.497348 271.001199 
L 186.186636 272.301536 
L 186.875924 272.477701 
L 187.565211 272.520132 
L 188.254499 273.671227 
L 188.943787 272.241736 
L 190.322362 272.417598 
L 191.01165 273.10952 
L 192.390226 272.854851 
L 193.768801 271.833386 
L 194.458089 272.162626 
L 195.147377 273.117702 
L 195.836665 273.710453 
L 196.525953 273.561777 
L 197.21524 274.260634 
L 197.904528 273.837434 
L 198.593816 273.642373 
L 199.283104 273.603692 
L 199.972391 273.417973 
L 200.661679 273.842266 
L 202.040255 273.9217 
L 202.729543 273.404325 
L 203.41883 273.153094 
L 204.108118 273.095636 
L 204.797406 272.593106 
L 205.486694 273.641038 
L 206.175981 273.101836 
L 207.554557 273.034656 
L 208.243845 273.407735 
L 208.933133 273.360337 
L 209.62242 273.755847 
L 211.690284 273.594957 
L 213.068859 273.391131 
L 214.447435 272.157308 
L 215.82601 271.792805 
L 216.515298 271.346634 
L 217.893874 266.19773 
L 218.583162 266.209101 
L 219.272449 265.921979 
L 219.961737 266.03521 
L 220.651025 264.706134 
L 221.340313 264.919966 
L 222.0296 265.473322 
L 222.718888 265.022217 
L 223.408176 265.250681 
L 224.097464 262.91603 
L 224.786752 262.792901 
L 225.476039 263.839337 
L 226.165327 263.443231 
L 226.854615 262.052795 
L 227.543903 262.771731 
L 228.233191 264.755255 
L 229.611766 263.06694 
L 230.301054 262.516447 
L 230.990342 262.465077 
L 231.679629 262.674676 
L 232.368917 260.769968 
L 233.058205 262.42395 
L 233.747493 262.76608 
L 234.436781 263.780138 
L 235.126068 263.410174 
L 235.815356 263.665447 
L 236.504644 263.12957 
L 237.193932 264.606777 
L 237.883219 264.282869 
L 238.572507 264.916565 
L 239.261795 264.188228 
L 239.951083 264.05551 
L 240.640371 263.481431 
L 241.329658 263.395014 
L 242.018946 262.239105 
L 242.708234 262.920549 
L 243.397522 264.913465 
L 244.086809 268.999039 
L 244.776097 268.404974 
L 245.465385 269.735681 
L 246.154673 269.51856 
L 246.843961 268.902044 
L 247.533248 270.050867 
L 248.222536 268.803239 
L 249.601112 268.41765 
L 250.2904 268.916258 
L 250.979687 267.431197 
L 251.668975 266.827806 
L 252.358263 266.00333 
L 253.047551 266.392651 
L 253.736838 266.405511 
L 254.426126 265.940665 
L 255.115414 266.733158 
L 255.804702 268.05435 
L 256.49399 268.034285 
L 257.183277 269.130732 
L 257.872565 267.460882 
L 258.561853 267.233964 
L 259.940428 267.139837 
L 260.629716 266.692089 
L 261.319004 267.091557 
L 262.008292 267.183374 
L 262.69758 267.648344 
L 263.386867 267.888033 
L 264.076155 267.93778 
L 265.454731 267.123423 
L 266.144019 267.797868 
L 266.833306 267.570886 
L 267.522594 266.552452 
L 268.211882 265.881411 
L 268.90117 264.906978 
L 269.590457 264.613076 
L 270.279745 263.93373 
L 270.969033 264.389418 
L 271.658321 264.395901 
L 272.347609 264.073739 
L 273.036896 264.821933 
L 273.726184 264.642415 
L 274.415472 264.047736 
L 275.10476 263.070795 
L 275.794047 262.405853 
L 276.483335 258.812743 
L 277.172623 258.099327 
L 277.861911 258.292608 
L 278.551199 257.536596 
L 279.240486 257.892633 
L 279.929774 257.776107 
L 280.619062 255.467279 
L 281.30835 256.932434 
L 281.997638 256.190994 
L 282.686925 255.757777 
L 283.376213 254.826944 
L 284.065501 254.964978 
L 284.754789 255.756571 
L 285.444076 253.881923 
L 286.133364 253.364215 
L 286.822652 247.562157 
L 287.51194 247.580564 
L 288.201228 250.593553 
L 288.890515 247.983073 
L 289.579803 248.60827 
L 290.269091 248.694919 
L 290.958379 247.10525 
L 291.647666 244.701166 
L 292.336954 244.582611 
L 293.026242 245.612326 
L 293.71553 246.046924 
L 294.404818 243.004407 
L 295.094105 239.139468 
L 295.783393 238.698952 
L 296.472681 238.578395 
L 297.161969 235.09915 
L 297.851257 235.009859 
L 298.540544 236.117905 
L 299.229832 236.286929 
L 299.91912 233.13445 
L 300.608408 234.904581 
L 301.297695 241.13658 
L 301.986983 241.242458 
L 302.676271 238.890232 
L 303.365559 237.03575 
L 304.054847 230.923095 
L 304.744134 234.614831 
L 305.433422 232.871788 
L 306.12271 231.965751 
L 306.811998 235.171995 
L 307.501285 233.14797 
L 308.190573 232.222765 
L 308.879861 233.036876 
L 309.569149 236.526184 
L 310.258437 235.590545 
L 310.947724 236.795633 
L 311.637012 237.669783 
L 312.3263 234.550673 
L 313.015588 233.104181 
L 313.704876 232.675036 
L 314.394163 231.988876 
L 315.083451 224.283916 
L 315.772739 218.369881 
L 316.462027 217.071748 
L 317.151314 214.232811 
L 317.840602 215.754588 
L 318.52989 218.750243 
L 319.219178 214.305595 
L 319.908466 216.684633 
L 320.597753 214.660083 
L 321.287041 210.704465 
L 321.976329 203.675454 
L 322.665617 204.474838 
L 323.354904 201.265588 
L 324.044192 200.00342 
L 324.73348 193.807817 
L 325.422768 193.523829 
L 326.112056 191.762642 
L 326.801343 180.412426 
L 327.490631 177.035149 
L 328.179919 181.14404 
L 328.869207 172.985577 
L 330.247782 150.983982 
L 330.93707 146.369354 
L 331.626358 147.941863 
L 332.315646 156.176662 
L 333.004933 167.210061 
L 333.694221 172.884856 
L 334.383509 159.475513 
L 335.072797 152.348949 
L 335.762085 161.925185 
L 336.451372 164.921143 
L 337.14066 165.66594 
L 337.829948 162.382356 
L 338.519236 165.325654 
L 339.208523 167.018047 
L 339.897811 185.912137 
L 340.587099 177.09498 
L 341.276387 180.783568 
L 341.965675 180.013347 
L 342.654962 180.182446 
L 343.34425 179.11885 
L 344.033538 187.582726 
L 344.722826 175.47246 
L 345.412113 172.059496 
L 346.101401 171.815799 
L 346.790689 176.64643 
L 347.479977 174.972121 
L 348.858552 158.224014 
L 349.54784 161.057209 
L 350.237128 155.712833 
L 350.926416 151.818111 
L 351.615704 153.463971 
L 352.304991 122.836034 
L 352.994279 122.56831 
L 353.683567 129.227412 
L 354.372855 116.492819 
L 355.062142 118.895945 
L 355.75143 119.699622 
L 356.440718 113.950756 
L 357.130006 116.778026 
L 357.819294 111.716593 
L 358.508581 99.8209 
L 359.197869 102.060906 
L 359.887157 84.470779 
L 360.576445 84.570624 
L 361.265732 78.330139 
L 361.95502 91.772703 
L 362.644308 112.867957 
L 363.333596 109.497299 
L 364.022884 120.131861 
L 364.712171 123.266109 
L 365.401459 123.833727 
L 366.090747 127.606605 
L 366.780035 109.961856 
L 367.469323 114.478298 
L 368.15861 106.716474 
L 368.847898 115.035003 
L 369.537186 113.353462 
L 370.226474 112.924546 
L 370.915761 104.436594 
L 371.605049 98.745044 
L 372.294337 88.477512 
L 372.983625 84.603724 
L 373.672913 76.769115 
L 374.3622 79.085148 
L 375.051488 63.192663 
L 375.740776 72.062122 
L 376.430064 85.567192 
L 377.119351 80.433426 
L 377.808639 72.432522 
L 378.497927 77.535541 
L 379.187215 75.791918 
L 379.876503 75.590387 
L 380.56579 78.607643 
L 381.255078 91.875932 
L 381.944366 90.859333 
L 382.633654 99.155527 
L 383.322942 102.987507 
L 384.012229 88.01774 
L 384.701517 84.751261 
L 385.390805 85.060564 
L 386.080093 77.521522 
L 386.76938 72.853209 
L 387.458668 72.861722 
L 388.147956 73.133308 
L 388.837244 72.104408 
L 389.526532 79.85156 
L 390.215819 75.17522 
L 390.905107 71.4591 
L 391.594395 76.025828 
L 392.283683 84.358195 
L 392.97297 75.719437 
L 393.662258 75.588372 
L 394.351546 68.825832 
L 395.040834 68.020968 
L 395.730122 68.563506 
L 396.419409 53.568 
L 397.108697 56.035809 
L 397.797985 54.947255 
L 398.487273 62.343194 
L 398.487273 62.343194 
" style="fill:none;stroke:#d62728;stroke-linecap:square;stroke-width:1.5;"/>
   </g>
   <g id="patch_3">
    <path d="M 57.6 307.584 
L 57.6 41.472 
" style="fill:none;stroke:#000000;stroke-linecap:square;stroke-linejoin:miter;stroke-width:0.8;"/>
   </g>
   <g id="patch_4">
    <path d="M 414.72 307.584 
L 414.72 41.472 
" style="fill:none;stroke:#000000;stroke-linecap:square;stroke-linejoin:miter;stroke-width:0.8;"/>
   </g>
   <g id="patch_5">
    <path d="M 57.6 307.584 
L 414.72 307.584 
" style="fill:none;stroke:#000000;stroke-linecap:square;stroke-linejoin:miter;stroke-width:0.8;"/>
   </g>
   <g id="patch_6">
    <path d="M 57.6 41.472 
L 414.72 41.472 
" style="fill:none;stroke:#000000;stroke-linecap:square;stroke-linejoin:miter;stroke-width:0.8;"/>
   </g>
   <g id="text_16">
    <!-- Data source: coindesk -->
    <g transform="translate(180.640469 35.472)scale(0.1 -0.1)">
     <defs>
      <path d="M 19.671875 64.796875 
L 19.671875 8.109375 
L 31.59375 8.109375 
Q 46.6875 8.109375 53.6875 14.9375 
Q 60.6875 21.78125 60.6875 36.53125 
Q 60.6875 51.171875 53.6875 57.984375 
Q 46.6875 64.796875 31.59375 64.796875 
z
M 9.8125 72.90625 
L 30.078125 72.90625 
Q 51.265625 72.90625 61.171875 64.09375 
Q 71.09375 55.28125 71.09375 36.53125 
Q 71.09375 17.671875 61.125 8.828125 
Q 51.171875 0 30.078125 0 
L 9.8125 0 
z
" id="DejaVuSans-68"/>
      <path d="M 34.28125 27.484375 
Q 23.390625 27.484375 19.1875 25 
Q 14.984375 22.515625 14.984375 16.5 
Q 14.984375 11.71875 18.140625 8.90625 
Q 21.296875 6.109375 26.703125 6.109375 
Q 34.1875 6.109375 38.703125 11.40625 
Q 43.21875 16.703125 43.21875 25.484375 
L 43.21875 27.484375 
z
M 52.203125 31.203125 
L 52.203125 0 
L 43.21875 0 
L 43.21875 8.296875 
Q 40.140625 3.328125 35.546875 0.953125 
Q 30.953125 -1.421875 24.3125 -1.421875 
Q 15.921875 -1.421875 10.953125 3.296875 
Q 6 8.015625 6 15.921875 
Q 6 25.140625 12.171875 29.828125 
Q 18.359375 34.515625 30.609375 34.515625 
L 43.21875 34.515625 
L 43.21875 35.40625 
Q 43.21875 41.609375 39.140625 45 
Q 35.0625 48.390625 27.6875 48.390625 
Q 23 48.390625 18.546875 47.265625 
Q 14.109375 46.140625 10.015625 43.890625 
L 10.015625 52.203125 
Q 14.9375 54.109375 19.578125 55.046875 
Q 24.21875 56 28.609375 56 
Q 40.484375 56 46.34375 49.84375 
Q 52.203125 43.703125 52.203125 31.203125 
z
" id="DejaVuSans-97"/>
      <path d="M 18.3125 70.21875 
L 18.3125 54.6875 
L 36.8125 54.6875 
L 36.8125 47.703125 
L 18.3125 47.703125 
L 18.3125 18.015625 
Q 18.3125 11.328125 20.140625 9.421875 
Q 21.96875 7.515625 27.59375 7.515625 
L 36.8125 7.515625 
L 36.8125 0 
L 27.59375 0 
Q 17.1875 0 13.234375 3.875 
Q 9.28125 7.765625 9.28125 18.015625 
L 9.28125 47.703125 
L 2.6875 47.703125 
L 2.6875 54.6875 
L 9.28125 54.6875 
L 9.28125 70.21875 
z
" id="DejaVuSans-116"/>
      <path id="DejaVuSans-32"/>
      <path d="M 44.28125 53.078125 
L 44.28125 44.578125 
Q 40.484375 46.53125 36.375 47.5 
Q 32.28125 48.484375 27.875 48.484375 
Q 21.1875 48.484375 17.84375 46.4375 
Q 14.5 44.390625 14.5 40.28125 
Q 14.5 37.15625 16.890625 35.375 
Q 19.28125 33.59375 26.515625 31.984375 
L 29.59375 31.296875 
Q 39.15625 29.25 43.1875 25.515625 
Q 47.21875 21.78125 47.21875 15.09375 
Q 47.21875 7.46875 41.1875 3.015625 
Q 35.15625 -1.421875 24.609375 -1.421875 
Q 20.21875 -1.421875 15.453125 -0.5625 
Q 10.6875 0.296875 5.421875 2 
L 5.421875 11.28125 
Q 10.40625 8.6875 15.234375 7.390625 
Q 20.0625 6.109375 24.8125 6.109375 
Q 31.15625 6.109375 34.5625 8.28125 
Q 37.984375 10.453125 37.984375 14.40625 
Q 37.984375 18.0625 35.515625 20.015625 
Q 33.0625 21.96875 24.703125 23.78125 
L 21.578125 24.515625 
Q 13.234375 26.265625 9.515625 29.90625 
Q 5.8125 33.546875 5.8125 39.890625 
Q 5.8125 47.609375 11.28125 51.796875 
Q 16.75 56 26.8125 56 
Q 31.78125 56 36.171875 55.265625 
Q 40.578125 54.546875 44.28125 53.078125 
z
" id="DejaVuSans-115"/>
      <path d="M 30.609375 48.390625 
Q 23.390625 48.390625 19.1875 42.75 
Q 14.984375 37.109375 14.984375 27.296875 
Q 14.984375 17.484375 19.15625 11.84375 
Q 23.34375 6.203125 30.609375 6.203125 
Q 37.796875 6.203125 41.984375 11.859375 
Q 46.1875 17.53125 46.1875 27.296875 
Q 46.1875 37.015625 41.984375 42.703125 
Q 37.796875 48.390625 30.609375 48.390625 
z
M 30.609375 56 
Q 42.328125 56 49.015625 48.375 
Q 55.71875 40.765625 55.71875 27.296875 
Q 55.71875 13.875 49.015625 6.21875 
Q 42.328125 -1.421875 30.609375 -1.421875 
Q 18.84375 -1.421875 12.171875 6.21875 
Q 5.515625 13.875 5.515625 27.296875 
Q 5.515625 40.765625 12.171875 48.375 
Q 18.84375 56 30.609375 56 
z
" id="DejaVuSans-111"/>
      <path d="M 8.5 21.578125 
L 8.5 54.6875 
L 17.484375 54.6875 
L 17.484375 21.921875 
Q 17.484375 14.15625 20.5 10.265625 
Q 23.53125 6.390625 29.59375 6.390625 
Q 36.859375 6.390625 41.078125 11.03125 
Q 45.3125 15.671875 45.3125 23.6875 
L 45.3125 54.6875 
L 54.296875 54.6875 
L 54.296875 0 
L 45.3125 0 
L 45.3125 8.40625 
Q 42.046875 3.421875 37.71875 1 
Q 33.40625 -1.421875 27.6875 -1.421875 
Q 18.265625 -1.421875 13.375 4.4375 
Q 8.5 10.296875 8.5 21.578125 
z
M 31.109375 56 
z
" id="DejaVuSans-117"/>
      <path d="M 41.109375 46.296875 
Q 39.59375 47.171875 37.8125 47.578125 
Q 36.03125 48 33.890625 48 
Q 26.265625 48 22.1875 43.046875 
Q 18.109375 38.09375 18.109375 28.8125 
L 18.109375 0 
L 9.078125 0 
L 9.078125 54.6875 
L 18.109375 54.6875 
L 18.109375 46.1875 
Q 20.953125 51.171875 25.484375 53.578125 
Q 30.03125 56 36.53125 56 
Q 37.453125 56 38.578125 55.875 
Q 39.703125 55.765625 41.0625 55.515625 
z
" id="DejaVuSans-114"/>
      <path d="M 48.78125 52.59375 
L 48.78125 44.1875 
Q 44.96875 46.296875 41.140625 47.34375 
Q 37.3125 48.390625 33.40625 48.390625 
Q 24.65625 48.390625 19.8125 42.84375 
Q 14.984375 37.3125 14.984375 27.296875 
Q 14.984375 17.28125 19.8125 11.734375 
Q 24.65625 6.203125 33.40625 6.203125 
Q 37.3125 6.203125 41.140625 7.25 
Q 44.96875 8.296875 48.78125 10.40625 
L 48.78125 2.09375 
Q 45.015625 0.34375 40.984375 -0.53125 
Q 36.96875 -1.421875 32.421875 -1.421875 
Q 20.0625 -1.421875 12.78125 6.34375 
Q 5.515625 14.109375 5.515625 27.296875 
Q 5.515625 40.671875 12.859375 48.328125 
Q 20.21875 56 33.015625 56 
Q 37.15625 56 41.109375 55.140625 
Q 45.0625 54.296875 48.78125 52.59375 
z
" id="DejaVuSans-99"/>
      <path d="M 56.203125 29.59375 
L 56.203125 25.203125 
L 14.890625 25.203125 
Q 15.484375 15.921875 20.484375 11.0625 
Q 25.484375 6.203125 34.421875 6.203125 
Q 39.59375 6.203125 44.453125 7.46875 
Q 49.3125 8.734375 54.109375 11.28125 
L 54.109375 2.78125 
Q 49.265625 0.734375 44.1875 -0.34375 
Q 39.109375 -1.421875 33.890625 -1.421875 
Q 20.796875 -1.421875 13.15625 6.1875 
Q 5.515625 13.8125 5.515625 26.8125 
Q 5.515625 40.234375 12.765625 48.109375 
Q 20.015625 56 32.328125 56 
Q 43.359375 56 49.78125 48.890625 
Q 56.203125 41.796875 56.203125 29.59375 
z
M 47.21875 32.234375 
Q 47.125 39.59375 43.09375 43.984375 
Q 39.0625 48.390625 32.421875 48.390625 
Q 24.90625 48.390625 20.390625 44.140625 
Q 15.875 39.890625 15.1875 32.171875 
z
" id="DejaVuSans-101"/>
      <path d="M 11.71875 12.40625 
L 22.015625 12.40625 
L 22.015625 0 
L 11.71875 0 
z
M 11.71875 51.703125 
L 22.015625 51.703125 
L 22.015625 39.3125 
L 11.71875 39.3125 
z
" id="DejaVuSans-58"/>
      <path d="M 9.421875 54.6875 
L 18.40625 54.6875 
L 18.40625 0 
L 9.421875 0 
z
M 9.421875 75.984375 
L 18.40625 75.984375 
L 18.40625 64.59375 
L 9.421875 64.59375 
z
" id="DejaVuSans-105"/>
      <path d="M 54.890625 33.015625 
L 54.890625 0 
L 45.90625 0 
L 45.90625 32.71875 
Q 45.90625 40.484375 42.875 44.328125 
Q 39.84375 48.1875 33.796875 48.1875 
Q 26.515625 48.1875 22.3125 43.546875 
Q 18.109375 38.921875 18.109375 30.90625 
L 18.109375 0 
L 9.078125 0 
L 9.078125 54.6875 
L 18.109375 54.6875 
L 18.109375 46.1875 
Q 21.34375 51.125 25.703125 53.5625 
Q 30.078125 56 35.796875 56 
Q 45.21875 56 50.046875 50.171875 
Q 54.890625 44.34375 54.890625 33.015625 
z
" id="DejaVuSans-110"/>
      <path d="M 45.40625 46.390625 
L 45.40625 75.984375 
L 54.390625 75.984375 
L 54.390625 0 
L 45.40625 0 
L 45.40625 8.203125 
Q 42.578125 3.328125 38.25 0.953125 
Q 33.9375 -1.421875 27.875 -1.421875 
Q 17.96875 -1.421875 11.734375 6.484375 
Q 5.515625 14.40625 5.515625 27.296875 
Q 5.515625 40.1875 11.734375 48.09375 
Q 17.96875 56 27.875 56 
Q 33.9375 56 38.25 53.625 
Q 42.578125 51.265625 45.40625 46.390625 
z
M 14.796875 27.296875 
Q 14.796875 17.390625 18.875 11.75 
Q 22.953125 6.109375 30.078125 6.109375 
Q 37.203125 6.109375 41.296875 11.75 
Q 45.40625 17.390625 45.40625 27.296875 
Q 45.40625 37.203125 41.296875 42.84375 
Q 37.203125 48.484375 30.078125 48.484375 
Q 22.953125 48.484375 18.875 42.84375 
Q 14.796875 37.203125 14.796875 27.296875 
z
" id="DejaVuSans-100"/>
      <path d="M 9.078125 75.984375 
L 18.109375 75.984375 
L 18.109375 31.109375 
L 44.921875 54.6875 
L 56.390625 54.6875 
L 27.390625 29.109375 
L 57.625 0 
L 45.90625 0 
L 18.109375 26.703125 
L 18.109375 0 
L 9.078125 0 
z
" id="DejaVuSans-107"/>
     </defs>
     <use xlink:href="#DejaVuSans-68"/>
     <use x="77.001953" xlink:href="#DejaVuSans-97"/>
     <use x="138.28125" xlink:href="#DejaVuSans-116"/>
     <use x="177.490234" xlink:href="#DejaVuSans-97"/>
     <use x="238.769531" xlink:href="#DejaVuSans-32"/>
     <use x="270.556641" xlink:href="#DejaVuSans-115"/>
     <use x="322.65625" xlink:href="#DejaVuSans-111"/>
     <use x="383.837891" xlink:href="#DejaVuSans-117"/>
     <use x="447.216797" xlink:href="#DejaVuSans-114"/>
     <use x="486.080078" xlink:href="#DejaVuSans-99"/>
     <use x="541.060547" xlink:href="#DejaVuSans-101"/>
     <use x="602.583984" xlink:href="#DejaVuSans-58"/>
     <use x="636.275391" xlink:href="#DejaVuSans-32"/>
     <use x="668.0625" xlink:href="#DejaVuSans-99"/>
     <use x="723.042969" xlink:href="#DejaVuSans-111"/>
     <use x="784.224609" xlink:href="#DejaVuSans-105"/>
     <use x="812.007812" xlink:href="#DejaVuSans-110"/>
     <use x="875.386719" xlink:href="#DejaVuSans-100"/>
     <use x="938.863281" xlink:href="#DejaVuSans-101"/>
     <use x="1000.386719" xlink:href="#DejaVuSans-115"/>
     <use x="1052.486328" xlink:href="#DejaVuSans-107"/>
    </g>
   </g>
   <g id="legend_1">
    <g id="patch_7">
     <path d="M 64.6 108.1845 
L 155.732812 108.1845 
Q 157.732812 108.1845 157.732812 106.1845 
L 157.732812 48.472 
Q 157.732812 46.472 155.732812 46.472 
L 64.6 46.472 
Q 62.6 46.472 62.6 48.472 
L 62.6 106.1845 
Q 62.6 108.1845 64.6 108.1845 
z
" style="fill:#ffffff;opacity:0.8;stroke:#cccccc;stroke-linejoin:miter;"/>
    </g>
    <g id="line2d_20">
     <path d="M 66.6 54.570438 
L 86.6 54.570438 
" style="fill:none;stroke:#1f77b4;stroke-linecap:square;stroke-width:1.5;"/>
    </g>
    <g id="line2d_21"/>
    <g id="text_17">
     <!-- Upper Band -->
     <g transform="translate(94.6 58.070438)scale(0.1 -0.1)">
      <defs>
       <path d="M 8.6875 72.90625 
L 18.609375 72.90625 
L 18.609375 28.609375 
Q 18.609375 16.890625 22.84375 11.734375 
Q 27.09375 6.59375 36.625 6.59375 
Q 46.09375 6.59375 50.34375 11.734375 
Q 54.59375 16.890625 54.59375 28.609375 
L 54.59375 72.90625 
L 64.5 72.90625 
L 64.5 27.390625 
Q 64.5 13.140625 57.4375 5.859375 
Q 50.390625 -1.421875 36.625 -1.421875 
Q 22.796875 -1.421875 15.734375 5.859375 
Q 8.6875 13.140625 8.6875 27.390625 
z
" id="DejaVuSans-85"/>
       <path d="M 18.109375 8.203125 
L 18.109375 -20.796875 
L 9.078125 -20.796875 
L 9.078125 54.6875 
L 18.109375 54.6875 
L 18.109375 46.390625 
Q 20.953125 51.265625 25.265625 53.625 
Q 29.59375 56 35.59375 56 
Q 45.5625 56 51.78125 48.09375 
Q 58.015625 40.1875 58.015625 27.296875 
Q 58.015625 14.40625 51.78125 6.484375 
Q 45.5625 -1.421875 35.59375 -1.421875 
Q 29.59375 -1.421875 25.265625 0.953125 
Q 20.953125 3.328125 18.109375 8.203125 
z
M 48.6875 27.296875 
Q 48.6875 37.203125 44.609375 42.84375 
Q 40.53125 48.484375 33.40625 48.484375 
Q 26.265625 48.484375 22.1875 42.84375 
Q 18.109375 37.203125 18.109375 27.296875 
Q 18.109375 17.390625 22.1875 11.75 
Q 26.265625 6.109375 33.40625 6.109375 
Q 40.53125 6.109375 44.609375 11.75 
Q 48.6875 17.390625 48.6875 27.296875 
z
" id="DejaVuSans-112"/>
       <path d="M 19.671875 34.8125 
L 19.671875 8.109375 
L 35.5 8.109375 
Q 43.453125 8.109375 47.28125 11.40625 
Q 51.125 14.703125 51.125 21.484375 
Q 51.125 28.328125 47.28125 31.5625 
Q 43.453125 34.8125 35.5 34.8125 
z
M 19.671875 64.796875 
L 19.671875 42.828125 
L 34.28125 42.828125 
Q 41.5 42.828125 45.03125 45.53125 
Q 48.578125 48.25 48.578125 53.8125 
Q 48.578125 59.328125 45.03125 62.0625 
Q 41.5 64.796875 34.28125 64.796875 
z
M 9.8125 72.90625 
L 35.015625 72.90625 
Q 46.296875 72.90625 52.390625 68.21875 
Q 58.5 63.53125 58.5 54.890625 
Q 58.5 48.1875 55.375 44.234375 
Q 52.25 40.28125 46.1875 39.3125 
Q 53.46875 37.75 57.5 32.78125 
Q 61.53125 27.828125 61.53125 20.40625 
Q 61.53125 10.640625 54.890625 5.3125 
Q 48.25 0 35.984375 0 
L 9.8125 0 
z
" id="DejaVuSans-66"/>
      </defs>
      <use xlink:href="#DejaVuSans-85"/>
      <use x="73.193359" xlink:href="#DejaVuSans-112"/>
      <use x="136.669922" xlink:href="#DejaVuSans-112"/>
      <use x="200.146484" xlink:href="#DejaVuSans-101"/>
      <use x="261.669922" xlink:href="#DejaVuSans-114"/>
      <use x="302.783203" xlink:href="#DejaVuSans-32"/>
      <use x="334.570312" xlink:href="#DejaVuSans-66"/>
      <use x="403.173828" xlink:href="#DejaVuSans-97"/>
      <use x="464.453125" xlink:href="#DejaVuSans-110"/>
      <use x="527.832031" xlink:href="#DejaVuSans-100"/>
     </g>
    </g>
    <g id="line2d_22">
     <path d="M 66.6 69.248563 
L 86.6 69.248563 
" style="fill:none;stroke:#ff7f0e;stroke-linecap:square;stroke-width:1.5;"/>
    </g>
    <g id="line2d_23"/>
    <g id="text_18">
     <!-- Lower Band -->
     <g transform="translate(94.6 72.748563)scale(0.1 -0.1)">
      <defs>
       <path d="M 9.8125 72.90625 
L 19.671875 72.90625 
L 19.671875 8.296875 
L 55.171875 8.296875 
L 55.171875 0 
L 9.8125 0 
z
" id="DejaVuSans-76"/>
       <path d="M 4.203125 54.6875 
L 13.1875 54.6875 
L 24.421875 12.015625 
L 35.59375 54.6875 
L 46.1875 54.6875 
L 57.421875 12.015625 
L 68.609375 54.6875 
L 77.59375 54.6875 
L 63.28125 0 
L 52.6875 0 
L 40.921875 44.828125 
L 29.109375 0 
L 18.5 0 
z
" id="DejaVuSans-119"/>
      </defs>
      <use xlink:href="#DejaVuSans-76"/>
      <use x="53.962891" xlink:href="#DejaVuSans-111"/>
      <use x="115.144531" xlink:href="#DejaVuSans-119"/>
      <use x="196.931641" xlink:href="#DejaVuSans-101"/>
      <use x="258.455078" xlink:href="#DejaVuSans-114"/>
      <use x="299.568359" xlink:href="#DejaVuSans-32"/>
      <use x="331.355469" xlink:href="#DejaVuSans-66"/>
      <use x="399.958984" xlink:href="#DejaVuSans-97"/>
      <use x="461.238281" xlink:href="#DejaVuSans-110"/>
      <use x="524.617188" xlink:href="#DejaVuSans-100"/>
     </g>
    </g>
    <g id="line2d_24">
     <path d="M 66.6 83.926688 
L 86.6 83.926688 
" style="fill:none;stroke:#2ca02c;stroke-linecap:square;stroke-width:1.5;"/>
    </g>
    <g id="line2d_25"/>
    <g id="text_19">
     <!-- MA -->
     <g transform="translate(94.6 87.426688)scale(0.1 -0.1)">
      <defs>
       <path d="M 9.8125 72.90625 
L 24.515625 72.90625 
L 43.109375 23.296875 
L 61.8125 72.90625 
L 76.515625 72.90625 
L 76.515625 0 
L 66.890625 0 
L 66.890625 64.015625 
L 48.09375 14.015625 
L 38.1875 14.015625 
L 19.390625 64.015625 
L 19.390625 0 
L 9.8125 0 
z
" id="DejaVuSans-77"/>
       <path d="M 34.1875 63.1875 
L 20.796875 26.90625 
L 47.609375 26.90625 
z
M 28.609375 72.90625 
L 39.796875 72.90625 
L 67.578125 0 
L 57.328125 0 
L 50.6875 18.703125 
L 17.828125 18.703125 
L 11.1875 0 
L 0.78125 0 
z
" id="DejaVuSans-65"/>
      </defs>
      <use xlink:href="#DejaVuSans-77"/>
      <use x="86.279297" xlink:href="#DejaVuSans-65"/>
     </g>
    </g>
    <g id="line2d_26">
     <path d="M 66.6 98.604813 
L 86.6 98.604813 
" style="fill:none;stroke:#d62728;stroke-linecap:square;stroke-width:1.5;"/>
    </g>
    <g id="line2d_27"/>
    <g id="text_20">
     <!-- BTC-USD -->
     <g transform="translate(94.6 102.104813)scale(0.1 -0.1)">
      <defs>
       <path d="M -0.296875 72.90625 
L 61.375 72.90625 
L 61.375 64.59375 
L 35.5 64.59375 
L 35.5 0 
L 25.59375 0 
L 25.59375 64.59375 
L -0.296875 64.59375 
z
" id="DejaVuSans-84"/>
       <path d="M 64.40625 67.28125 
L 64.40625 56.890625 
Q 59.421875 61.53125 53.78125 63.8125 
Q 48.140625 66.109375 41.796875 66.109375 
Q 29.296875 66.109375 22.65625 58.46875 
Q 16.015625 50.828125 16.015625 36.375 
Q 16.015625 21.96875 22.65625 14.328125 
Q 29.296875 6.6875 41.796875 6.6875 
Q 48.140625 6.6875 53.78125 8.984375 
Q 59.421875 11.28125 64.40625 15.921875 
L 64.40625 5.609375 
Q 59.234375 2.09375 53.4375 0.328125 
Q 47.65625 -1.421875 41.21875 -1.421875 
Q 24.65625 -1.421875 15.125 8.703125 
Q 5.609375 18.84375 5.609375 36.375 
Q 5.609375 53.953125 15.125 64.078125 
Q 24.65625 74.21875 41.21875 74.21875 
Q 47.75 74.21875 53.53125 72.484375 
Q 59.328125 70.75 64.40625 67.28125 
z
" id="DejaVuSans-67"/>
       <path d="M 53.515625 70.515625 
L 53.515625 60.890625 
Q 47.90625 63.578125 42.921875 64.890625 
Q 37.9375 66.21875 33.296875 66.21875 
Q 25.25 66.21875 20.875 63.09375 
Q 16.5 59.96875 16.5 54.203125 
Q 16.5 49.359375 19.40625 46.890625 
Q 22.3125 44.4375 30.421875 42.921875 
L 36.375 41.703125 
Q 47.40625 39.59375 52.65625 34.296875 
Q 57.90625 29 57.90625 20.125 
Q 57.90625 9.515625 50.796875 4.046875 
Q 43.703125 -1.421875 29.984375 -1.421875 
Q 24.8125 -1.421875 18.96875 -0.25 
Q 13.140625 0.921875 6.890625 3.21875 
L 6.890625 13.375 
Q 12.890625 10.015625 18.65625 8.296875 
Q 24.421875 6.59375 29.984375 6.59375 
Q 38.421875 6.59375 43.015625 9.90625 
Q 47.609375 13.234375 47.609375 19.390625 
Q 47.609375 24.75 44.3125 27.78125 
Q 41.015625 30.8125 33.5 32.328125 
L 27.484375 33.5 
Q 16.453125 35.6875 11.515625 40.375 
Q 6.59375 45.0625 6.59375 53.421875 
Q 6.59375 63.09375 13.40625 68.65625 
Q 20.21875 74.21875 32.171875 74.21875 
Q 37.3125 74.21875 42.625 73.28125 
Q 47.953125 72.359375 53.515625 70.515625 
z
" id="DejaVuSans-83"/>
      </defs>
      <use xlink:href="#DejaVuSans-66"/>
      <use x="68.603516" xlink:href="#DejaVuSans-84"/>
      <use x="123.8125" xlink:href="#DejaVuSans-67"/>
      <use x="193.636719" xlink:href="#DejaVuSans-45"/>
      <use x="229.720703" xlink:href="#DejaVuSans-85"/>
      <use x="302.914062" xlink:href="#DejaVuSans-83"/>
      <use x="366.390625" xlink:href="#DejaVuSans-68"/>
     </g>
    </g>
   </g>
  </g>
  <g id="text_21">
   <!-- Bollinger Band -->
   <g transform="translate(171.90625 19.0695)scale(0.16 -0.16)">
    <defs>
     <path d="M 9.421875 75.984375 
L 18.40625 75.984375 
L 18.40625 0 
L 9.421875 0 
z
" id="DejaVuSans-108"/>
     <path d="M 45.40625 27.984375 
Q 45.40625 37.75 41.375 43.109375 
Q 37.359375 48.484375 30.078125 48.484375 
Q 22.859375 48.484375 18.828125 43.109375 
Q 14.796875 37.75 14.796875 27.984375 
Q 14.796875 18.265625 18.828125 12.890625 
Q 22.859375 7.515625 30.078125 7.515625 
Q 37.359375 7.515625 41.375 12.890625 
Q 45.40625 18.265625 45.40625 27.984375 
z
M 54.390625 6.78125 
Q 54.390625 -7.171875 48.1875 -13.984375 
Q 42 -20.796875 29.203125 -20.796875 
Q 24.46875 -20.796875 20.265625 -20.09375 
Q 16.0625 -19.390625 12.109375 -17.921875 
L 12.109375 -9.1875 
Q 16.0625 -11.328125 19.921875 -12.34375 
Q 23.78125 -13.375 27.78125 -13.375 
Q 36.625 -13.375 41.015625 -8.765625 
Q 45.40625 -4.15625 45.40625 5.171875 
L 45.40625 9.625 
Q 42.625 4.78125 38.28125 2.390625 
Q 33.9375 0 27.875 0 
Q 17.828125 0 11.671875 7.65625 
Q 5.515625 15.328125 5.515625 27.984375 
Q 5.515625 40.671875 11.671875 48.328125 
Q 17.828125 56 27.875 56 
Q 33.9375 56 38.28125 53.609375 
Q 42.625 51.21875 45.40625 46.390625 
L 45.40625 54.6875 
L 54.390625 54.6875 
z
" id="DejaVuSans-103"/>
    </defs>
    <use xlink:href="#DejaVuSans-66"/>
    <use x="68.603516" xlink:href="#DejaVuSans-111"/>
    <use x="129.785156" xlink:href="#DejaVuSans-108"/>
    <use x="157.568359" xlink:href="#DejaVuSans-108"/>
    <use x="185.351562" xlink:href="#DejaVuSans-105"/>
    <use x="213.134766" xlink:href="#DejaVuSans-110"/>
    <use x="276.513672" xlink:href="#DejaVuSans-103"/>
    <use x="339.990234" xlink:href="#DejaVuSans-101"/>
    <use x="401.513672" xlink:href="#DejaVuSans-114"/>
    <use x="442.626953" xlink:href="#DejaVuSans-32"/>
    <use x="474.414062" xlink:href="#DejaVuSans-66"/>
    <use x="543.017578" xlink:href="#DejaVuSans-97"/>
    <use x="604.296875" xlink:href="#DejaVuSans-110"/>
    <use x="667.675781" xlink:href="#DejaVuSans-100"/>
   </g>
  </g>
 </g>
 <defs>
  <clipPath id="p1600e538d0">
   <rect height="266.112" width="357.12" x="57.6" y="41.472"/>
  </clipPath>
 </defs>
</svg>
