<?xml version="1.0" encoding="utf-8" standalone="no"?>
<!DOCTYPE svg PUBLIC "-//W3C//DTD SVG 1.1//EN"
  "http://www.w3.org/Graphics/SVG/1.1/DTD/svg11.dtd">
<!-- Created with matplotlib (https://matplotlib.org/) -->
<svg height="345.6pt" version="1.1" viewBox="0 0 460.8 345.6" width="460.8pt" xmlns="http://www.w3.org/2000/svg" xmlns:xlink="http://www.w3.org/1999/xlink">
 <metadata>
  <rdf:RDF xmlns:cc="http://creativecommons.org/ns#" xmlns:dc="http://purl.org/dc/elements/1.1/" xmlns:rdf="http://www.w3.org/1999/02/22-rdf-syntax-ns#">
   <cc:Work>
    <dc:type rdf:resource="http://purl.org/dc/dcmitype/StillImage"/>
    <dc:date>2021-06-03T02:49:48.827953</dc:date>
    <dc:format>image/svg+xml</dc:format>
    <dc:creator>
     <cc:Agent>
      <dc:title>Matplotlib v3.3.2, https://matplotlib.org/</dc:title>
     </cc:Agent>
    </dc:creator>
   </cc:Work>
  </rdf:RDF>
 </metadata>
 <defs>
  <style type="text/css">*{stroke-linecap:butt;stroke-linejoin:round;}</style>
 </defs>
 <g id="figure_1">
  <g id="patch_1">
   <path d="M 0 345.6 
L 460.8 345.6 
L 460.8 0 
L 0 0 
z
" style="fill:#ffffff;"/>
  </g>
  <g id="axes_1">
   <g id="patch_2">
    <path d="M 57.6 307.584 
L 414.72 307.584 
L 414.72 41.472 
L 57.6 41.472 
z
" style="fill:#ffffff;"/>
   </g>
   <g id="PolyCollection_1">
    <defs>
     <path d="M 85.763939 -62.125478 
L 85.763939 -71.801393 
L 86.391897 -71.916852 
L 87.019856 -71.750207 
L 87.647814 -71.603749 
L 88.275773 -71.38885 
L 88.903731 -71.032237 
L 89.53169 -70.938528 
L 90.159648 -71.13071 
L 90.787607 -71.686433 
L 91.415565 -71.902126 
L 92.043524 -72.405217 
L 92.671482 -72.581966 
L 93.299441 -72.797297 
L 93.927399 -72.850244 
L 94.555358 -73.028597 
L 95.183316 -73.130803 
L 95.811275 -73.506912 
L 96.439233 -73.949826 
L 97.067192 -74.38485 
L 97.69515 -74.823502 
L 98.323109 -75.400078 
L 98.951067 -75.677354 
L 99.579026 -76.173605 
L 100.206984 -76.53674 
L 100.834943 -76.695874 
L 101.462901 -76.720983 
L 102.09086 -76.503909 
L 102.718818 -76.392574 
L 103.346777 -76.386356 
L 103.974735 -76.517849 
L 104.602694 -76.509323 
L 105.230652 -76.456131 
L 105.858611 -76.411762 
L 106.486569 -76.337415 
L 107.114528 -76.260336 
L 107.742486 -76.019612 
L 108.370445 -76.163377 
L 108.998403 -76.68901 
L 109.626362 -77.013634 
L 110.25432 -77.268423 
L 110.882279 -77.38765 
L 111.510237 -77.522714 
L 112.138196 -77.238543 
L 112.766154 -76.852698 
L 113.394113 -76.468178 
L 114.022071 -75.866931 
L 114.65003 -75.576395 
L 115.277988 -75.235145 
L 115.905947 -75.295805 
L 116.533905 -74.88472 
L 117.161864 -74.808478 
L 117.789822 -74.609599 
L 118.417781 -77.110941 
L 119.045739 -77.572087 
L 119.673698 -77.731283 
L 120.301656 -77.598677 
L 120.929615 -77.55703 
L 121.557573 -77.408311 
L 122.185532 -77.071685 
L 122.81349 -76.519337 
L 123.441449 -75.980083 
L 124.069407 -75.373121 
L 124.697366 -74.455229 
L 125.325324 -73.540856 
L 125.953283 -72.569445 
L 126.581241 -71.229644 
L 127.2092 -69.622467 
L 127.837158 -67.928756 
L 128.465117 -66.921993 
L 129.093075 -65.823493 
L 129.721034 -64.679977 
L 130.348992 -63.266017 
L 130.976951 -63.303468 
L 131.604909 -63.655171 
L 132.232868 -63.745323 
L 132.860826 -63.902899 
L 133.488785 -63.653479 
L 134.116743 -63.940595 
L 134.744702 -63.943899 
L 135.37266 -64.428039 
L 136.000619 -64.758571 
L 136.628577 -64.80423 
L 137.256536 -64.627304 
L 137.884494 -64.685802 
L 138.512453 -64.708383 
L 139.140411 -64.745 
L 139.76837 -64.737346 
L 140.396328 -64.841176 
L 141.024287 -64.828845 
L 141.652245 -64.538344 
L 142.280204 -64.501381 
L 142.908162 -64.345108 
L 143.536121 -64.303267 
L 144.164079 -64.356515 
L 144.792038 -64.636211 
L 145.419996 -64.902162 
L 146.047955 -65.145029 
L 146.675913 -65.430848 
L 147.303872 -65.821444 
L 147.93183 -66.083613 
L 148.559789 -67.553289 
L 149.187747 -68.502836 
L 149.815706 -69.482668 
L 150.443664 -70.463437 
L 151.071623 -71.203214 
L 151.699582 -71.793239 
L 152.32754 -72.303211 
L 152.955499 -72.935561 
L 153.583457 -74.162521 
L 154.211416 -75.050734 
L 154.839374 -75.569076 
L 155.467333 -75.434336 
L 156.095291 -75.1396 
L 156.72325 -74.941507 
L 157.351208 -75.02753 
L 157.979167 -75.306596 
L 158.607125 -75.170427 
L 159.235084 -75.027003 
L 159.863042 -74.941582 
L 160.491001 -74.630255 
L 161.118959 -74.878685 
L 161.746918 -74.881115 
L 162.374876 -74.844319 
L 163.002835 -74.839589 
L 163.630793 -74.819815 
L 164.258752 -74.875002 
L 164.88671 -74.894572 
L 165.514669 -74.928401 
L 166.142627 -74.523106 
L 166.770586 -74.365507 
L 167.398544 -74.301656 
L 168.026503 -74.448407 
L 168.654461 -74.329675 
L 169.28242 -74.825879 
L 169.910378 -74.87053 
L 170.538337 -74.795064 
L 171.166295 -74.957541 
L 171.794254 -75.02881 
L 172.422212 -75.031211 
L 173.050171 -75.05173 
L 173.678129 -75.047948 
L 174.306088 -75.15656 
L 174.934046 -75.320056 
L 175.562005 -75.310887 
L 176.189963 -75.311766 
L 176.817922 -75.072489 
L 177.44588 -74.899727 
L 178.073839 -74.585576 
L 178.701797 -74.505973 
L 179.329756 -74.505535 
L 179.957714 -74.51148 
L 180.585673 -74.50556 
L 181.213631 -74.517901 
L 181.84159 -74.030534 
L 182.469548 -74.07601 
L 183.097507 -74.058504 
L 183.725465 -73.956076 
L 184.353424 -73.937384 
L 184.981382 -73.909973 
L 185.609341 -73.877411 
L 186.237299 -73.720747 
L 186.865258 -73.507461 
L 187.493216 -73.113352 
L 188.121175 -73.113284 
L 188.749133 -73.076209 
L 189.377092 -73.031679 
L 190.00505 -73.018119 
L 190.633009 -72.975294 
L 191.260967 -72.859596 
L 191.888926 -72.772832 
L 192.516884 -72.793631 
L 193.144843 -72.778868 
L 193.772801 -72.75318 
L 194.40076 -72.742143 
L 195.028718 -72.427195 
L 195.656677 -72.086593 
L 196.284635 -72.057598 
L 196.912594 -72.042282 
L 197.540552 -72.0422 
L 198.168511 -71.997262 
L 198.796469 -71.992586 
L 199.424428 -71.996956 
L 200.052386 -71.995146 
L 200.680345 -72.083704 
L 201.308303 -72.310934 
L 201.936262 -72.564809 
L 202.56422 -72.715987 
L 203.192179 -72.993761 
L 203.820137 -73.505887 
L 204.448096 -75.501319 
L 205.076054 -76.698594 
L 205.704013 -77.84664 
L 206.331971 -78.787401 
L 206.95993 -79.848047 
L 207.587888 -81.167737 
L 208.215847 -81.669442 
L 208.843805 -82.210219 
L 209.471764 -82.614416 
L 210.099722 -83.293695 
L 210.727681 -83.856565 
L 211.355639 -84.186498 
L 211.983598 -84.492728 
L 212.611556 -84.566316 
L 213.239515 -84.720736 
L 213.867473 -84.54604 
L 214.495432 -84.336781 
L 215.12339 -83.957478 
L 215.751349 -83.400964 
L 216.379307 -82.708699 
L 217.007266 -82.83106 
L 217.635224 -83.175003 
L 218.263183 -83.232731 
L 218.891141 -83.170966 
L 219.5191 -83.216792 
L 220.147058 -83.16949 
L 220.775017 -82.98301 
L 221.402975 -82.865617 
L 222.030934 -82.656099 
L 222.658892 -82.767365 
L 223.286851 -82.777984 
L 223.914809 -82.847903 
L 224.542768 -82.827802 
L 225.170726 -82.825798 
L 225.798685 -82.751062 
L 226.426643 -82.728191 
L 227.054602 -82.826204 
L 227.68256 -82.821639 
L 228.310519 -83.871318 
L 228.938477 -84.127727 
L 229.566436 -84.419723 
L 230.194394 -84.218523 
L 230.822353 -84.086492 
L 231.450311 -84.060637 
L 232.07827 -83.863554 
L 232.706228 -83.732635 
L 233.334187 -83.475169 
L 233.962145 -83.175125 
L 234.590104 -82.760416 
L 235.218062 -82.56748 
L 235.846021 -82.298267 
L 236.473979 -82.132467 
L 237.101938 -81.840926 
L 237.729896 -81.548106 
L 238.357855 -81.090981 
L 238.985813 -80.561542 
L 239.613772 -79.437157 
L 240.24173 -78.807575 
L 240.869689 -78.791801 
L 241.497647 -78.864637 
L 242.125606 -78.875406 
L 242.753564 -78.907288 
L 243.381523 -78.968131 
L 244.009481 -78.892833 
L 244.63744 -78.880017 
L 245.265398 -78.871436 
L 245.893357 -78.834663 
L 246.521315 -78.810867 
L 247.149274 -78.732048 
L 247.777232 -78.732619 
L 248.405191 -78.729434 
L 249.033149 -78.611386 
L 249.661108 -78.501759 
L 250.289066 -78.492004 
L 250.917025 -78.447508 
L 251.544983 -78.831497 
L 252.172942 -79.290868 
L 252.8009 -79.856524 
L 253.428859 -80.104421 
L 254.056817 -80.410757 
L 254.684776 -80.753466 
L 255.312734 -80.917086 
L 255.940693 -81.087605 
L 256.568651 -81.317769 
L 257.19661 -81.708941 
L 257.824568 -82.182195 
L 258.452527 -83.516794 
L 259.080485 -84.760365 
L 259.708444 -85.656691 
L 260.336402 -86.597497 
L 260.964361 -87.315574 
L 261.592319 -87.868655 
L 262.220278 -88.812805 
L 262.848236 -89.326281 
L 263.476195 -89.891787 
L 264.104153 -90.475778 
L 264.732112 -91.13968 
L 265.36007 -91.692021 
L 265.988029 -91.97859 
L 266.615987 -92.419889 
L 267.243946 -92.875493 
L 267.871904 -94.394063 
L 268.499863 -95.552611 
L 269.127821 -95.809582 
L 269.75578 -96.494866 
L 270.383738 -96.9124 
L 271.011697 -97.495751 
L 271.639655 -98.319689 
L 272.267614 -99.457121 
L 272.895572 -100.444323 
L 273.523531 -101.022982 
L 274.151489 -101.372417 
L 274.779448 -102.331431 
L 275.407406 -103.837652 
L 276.035365 -105.188256 
L 276.663323 -106.298451 
L 277.291282 -108.01955 
L 277.91924 -109.367647 
L 278.547199 -110.023942 
L 279.175157 -110.573807 
L 279.803116 -111.497823 
L 280.431074 -112.363896 
L 281.059033 -112.38791 
L 281.686991 -112.05255 
L 282.31495 -112.055015 
L 282.942908 -112.074019 
L 283.570867 -112.917687 
L 284.198825 -113.003009 
L 284.826784 -113.479929 
L 285.454742 -113.939058 
L 286.082701 -113.643055 
L 286.710659 -113.202072 
L 287.338618 -113.190806 
L 287.966576 -113.398445 
L 288.594535 -113.342304 
L 289.222493 -113.303244 
L 289.850452 -113.261528 
L 290.47841 -113.219113 
L 291.106369 -113.302754 
L 291.734327 -113.51569 
L 292.362286 -113.592468 
L 292.990244 -113.891253 
L 293.618203 -115.683187 
L 294.246161 -118.910057 
L 294.87412 -121.929437 
L 295.502078 -125.17318 
L 296.130037 -127.46632 
L 296.757995 -128.856495 
L 297.385954 -130.968034 
L 298.013912 -132.357438 
L 298.641871 -133.845933 
L 299.269829 -135.902124 
L 299.897788 -139.201313 
L 300.525746 -141.776137 
L 301.153705 -144.362137 
L 301.781663 -146.71538 
L 302.409622 -149.668437 
L 303.03758 -151.900931 
L 303.665539 -154.098751 
L 304.293497 -158.362942 
L 304.921456 -162.313663 
L 305.549414 -164.521851 
L 306.177373 -168.588923 
L 306.805331 -175.128099 
L 307.43329 -183.349719 
L 308.061248 -191.252166 
L 308.689207 -197.190733 
L 309.317165 -200.236568 
L 309.945124 -201.301075 
L 310.573082 -200.963824 
L 311.201041 -201.795333 
L 311.828999 -203.370431 
L 312.456958 -203.667232 
L 313.084916 -202.967224 
L 313.712875 -202.014314 
L 314.340833 -200.823218 
L 314.968792 -199.666803 
L 315.59675 -197.934878 
L 316.224709 -196.983316 
L 316.852667 -196.693516 
L 317.480626 -196.932772 
L 318.108584 -196.827243 
L 318.736543 -197.197398 
L 319.364501 -197.076746 
L 319.99246 -195.936812 
L 320.620418 -192.533747 
L 321.248377 -189.104381 
L 321.876336 -187.200837 
L 322.504294 -186.770204 
L 323.132253 -186.721265 
L 323.760211 -185.604229 
L 324.38817 -184.099892 
L 325.016128 -184.264577 
L 325.644087 -185.939313 
L 326.272045 -188.544078 
L 326.900004 -190.169677 
L 327.527962 -200.816492 
L 328.155921 -209.086207 
L 328.783879 -214.17135 
L 329.411838 -221.680986 
L 330.039796 -227.301405 
L 330.667755 -231.869475 
L 331.295713 -236.739848 
L 331.923672 -240.221648 
L 332.55163 -242.928535 
L 333.179589 -248.12309 
L 333.807547 -252.00076 
L 334.435506 -258.469167 
L 335.063464 -262.91361 
L 335.691423 -267.303367 
L 336.319381 -268.642652 
L 336.94734 -267.678484 
L 337.575298 -265.839199 
L 338.203257 -263.343127 
L 338.831215 -260.793963 
L 339.459174 -257.090876 
L 340.087132 -257.34671 
L 340.715091 -257.423862 
L 341.343049 -256.850257 
L 341.971008 -257.123511 
L 342.598966 -257.071925 
L 343.226925 -256.991321 
L 343.854883 -256.997336 
L 344.482842 -257.298941 
L 345.1108 -258.10149 
L 345.738759 -259.541067 
L 346.366717 -261.845892 
L 346.994676 -263.400246 
L 347.622634 -264.473354 
L 348.250593 -268.035633 
L 348.878551 -271.382201 
L 349.50651 -273.182321 
L 350.134468 -275.467487 
L 350.762427 -278.339532 
L 351.390385 -279.727385 
L 352.018344 -280.624787 
L 352.646302 -280.218406 
L 353.274261 -280.901552 
L 353.902219 -279.8546 
L 354.530178 -279.426039 
L 355.158136 -277.914393 
L 355.786095 -276.619795 
L 356.414053 -274.489551 
L 357.042012 -273.330155 
L 357.66997 -272.703263 
L 358.297929 -273.110688 
L 358.925887 -274.06447 
L 359.553846 -274.541704 
L 360.181804 -275.107538 
L 360.809763 -273.555663 
L 361.437721 -272.702964 
L 362.06568 -273.315244 
L 362.693638 -274.160385 
L 363.321597 -273.766703 
L 363.949555 -273.389096 
L 364.577514 -273.367755 
L 365.205472 -273.386685 
L 365.833431 -274.588983 
L 366.461389 -275.83841 
L 367.089348 -276.796809 
L 367.717306 -279.512824 
L 368.345265 -279.661826 
L 368.973223 -281.92332 
L 369.601182 -282.57257 
L 370.22914 -282.287709 
L 370.857099 -282.649479 
L 371.485057 -283.268582 
L 372.113016 -283.438539 
L 372.740974 -284.664583 
L 373.368933 -286.689789 
L 373.996891 -288.699871 
L 374.62485 -290.546196 
L 375.252808 -292.032 
L 375.880767 -291.69493 
L 376.508725 -291.641994 
L 377.136684 -291.169951 
L 377.764642 -290.624049 
L 378.392601 -289.857634 
L 379.020559 -288.933316 
L 379.648518 -287.743051 
L 380.276476 -283.870671 
L 380.904435 -279.452317 
L 381.532393 -274.846933 
L 382.160352 -271.221878 
L 382.78831 -269.005009 
L 383.416269 -270.607094 
L 384.044227 -271.884987 
L 384.672186 -271.674197 
L 385.300144 -272.313583 
L 385.928103 -273.166979 
L 386.556061 -273.755539 
L 387.18402 -273.886806 
L 387.811978 -275.440163 
L 388.439937 -277.7022 
L 389.067895 -280.903787 
L 389.695854 -283.354703 
L 390.323812 -289.178352 
L 390.951771 -288.881678 
L 391.579729 -289.054263 
L 392.207688 -288.518104 
L 392.835646 -287.77464 
L 393.463605 -286.456199 
L 394.091563 -282.194192 
L 394.719522 -277.647138 
L 395.34748 -271.707788 
L 395.975439 -263.62331 
L 396.603397 -254.717452 
L 397.231356 -246.22893 
L 397.859314 -234.38991 
L 398.487273 -228.874251 
L 398.487273 -153.812418 
L 398.487273 -153.812418 
L 397.859314 -153.358664 
L 397.231356 -149.105839 
L 396.603397 -148.496592 
L 395.975439 -148.782042 
L 395.34748 -149.727625 
L 394.719522 -151.076795 
L 394.091563 -153.166502 
L 393.463605 -156.328943 
L 392.835646 -160.651499 
L 392.207688 -168.618068 
L 391.579729 -175.51051 
L 390.951771 -183.615883 
L 390.323812 -190.029745 
L 389.695854 -202.371589 
L 389.067895 -209.476166 
L 388.439937 -217.158535 
L 387.811978 -222.357832 
L 387.18402 -224.808543 
L 386.556061 -225.05163 
L 385.928103 -226.184966 
L 385.300144 -227.837124 
L 384.672186 -227.35137 
L 384.044227 -227.367201 
L 383.416269 -227.609336 
L 382.78831 -228.202513 
L 382.160352 -227.102358 
L 381.532393 -225.438378 
L 380.904435 -223.079794 
L 380.276476 -222.419052 
L 379.648518 -221.00894 
L 379.020559 -221.066215 
L 378.392601 -220.996923 
L 377.764642 -220.981733 
L 377.136684 -222.235533 
L 376.508725 -223.018964 
L 375.880767 -223.34397 
L 375.252808 -224.540718 
L 374.62485 -229.867481 
L 373.996891 -234.852446 
L 373.368933 -239.208888 
L 372.740974 -244.041546 
L 372.113016 -247.155514 
L 371.485057 -248.206933 
L 370.857099 -250.07072 
L 370.22914 -250.923683 
L 369.601182 -248.95434 
L 368.973223 -247.436916 
L 368.345265 -246.543832 
L 367.717306 -242.219365 
L 367.089348 -240.646583 
L 366.461389 -239.553559 
L 365.833431 -238.528819 
L 365.205472 -238.841969 
L 364.577514 -238.845259 
L 363.949555 -238.842636 
L 363.321597 -239.134657 
L 362.693638 -239.058976 
L 362.06568 -239.098107 
L 361.437721 -238.754059 
L 360.809763 -238.628858 
L 360.181804 -237.866198 
L 359.553846 -237.8844 
L 358.925887 -237.959402 
L 358.297929 -237.756828 
L 357.66997 -237.072956 
L 357.042012 -235.127513 
L 356.414053 -232.049387 
L 355.786095 -227.487085 
L 355.158136 -225.161177 
L 354.530178 -222.107589 
L 353.902219 -220.08195 
L 353.274261 -216.820368 
L 352.646302 -214.469316 
L 352.018344 -209.013831 
L 351.390385 -205.292768 
L 350.762427 -202.267593 
L 350.134468 -200.605868 
L 349.50651 -200.098654 
L 348.878551 -199.24489 
L 348.250593 -200.673433 
L 347.622634 -202.856296 
L 346.994676 -203.401159 
L 346.366717 -204.236721 
L 345.738759 -204.869702 
L 345.1108 -205.285686 
L 344.482842 -204.842168 
L 343.854883 -203.980593 
L 343.226925 -203.9096 
L 342.598966 -203.208007 
L 341.971008 -202.740647 
L 341.343049 -202.05528 
L 340.715091 -200.07628 
L 340.087132 -198.895284 
L 339.459174 -199.608761 
L 338.831215 -193.043329 
L 338.203257 -187.7114 
L 337.575298 -181.74399 
L 336.94734 -174.960122 
L 336.319381 -169.606453 
L 335.691423 -163.72275 
L 335.063464 -158.809604 
L 334.435506 -154.387532 
L 333.807547 -152.461182 
L 333.179589 -149.612909 
L 332.55163 -147.513299 
L 331.923672 -142.916434 
L 331.295713 -140.385072 
L 330.667755 -138.885266 
L 330.039796 -137.638569 
L 329.411838 -137.299748 
L 328.783879 -138.986075 
L 328.155921 -138.607981 
L 327.527962 -142.621379 
L 326.900004 -149.188493 
L 326.272045 -149.937727 
L 325.644087 -151.20473 
L 325.016128 -152.020315 
L 324.38817 -152.100067 
L 323.760211 -151.175071 
L 323.132253 -150.783371 
L 322.504294 -150.912933 
L 321.876336 -151.386605 
L 321.248377 -150.98497 
L 320.620418 -149.847396 
L 319.99246 -149.246897 
L 319.364501 -151.632063 
L 318.736543 -153.193105 
L 318.108584 -154.204413 
L 317.480626 -153.990634 
L 316.852667 -154.506257 
L 316.224709 -153.864008 
L 315.59675 -152.340435 
L 314.968792 -148.070165 
L 314.340833 -144.156251 
L 313.712875 -139.354026 
L 313.084916 -134.985923 
L 312.456958 -130.480131 
L 311.828999 -126.737056 
L 311.201041 -122.693298 
L 310.573082 -118.209593 
L 309.945124 -113.678555 
L 309.317165 -110.221394 
L 308.689207 -107.259029 
L 308.061248 -106.715093 
L 307.43329 -108.081984 
L 306.805331 -109.930591 
L 306.177373 -111.010732 
L 305.549414 -110.170755 
L 304.921456 -107.484485 
L 304.293497 -106.164608 
L 303.665539 -105.387272 
L 303.03758 -103.486812 
L 302.409622 -101.471017 
L 301.781663 -100.30517 
L 301.153705 -99.248995 
L 300.525746 -98.444832 
L 299.897788 -98.275252 
L 299.269829 -98.83249 
L 298.641871 -98.737874 
L 298.013912 -98.264954 
L 297.385954 -98.173667 
L 296.757995 -98.490744 
L 296.130037 -98.339771 
L 295.502078 -99.156438 
L 294.87412 -100.210037 
L 294.246161 -101.134014 
L 293.618203 -102.169795 
L 292.990244 -102.347865 
L 292.362286 -102.372658 
L 291.734327 -102.390647 
L 291.106369 -102.310124 
L 290.47841 -102.238627 
L 289.850452 -102.44674 
L 289.222493 -102.576506 
L 288.594535 -102.246507 
L 287.966576 -101.977011 
L 287.338618 -101.594204 
L 286.710659 -100.543954 
L 286.082701 -98.861369 
L 285.454742 -97.554098 
L 284.826784 -96.803652 
L 284.198825 -96.142484 
L 283.570867 -95.045773 
L 282.942908 -94.187516 
L 282.31495 -93.110062 
L 281.686991 -92.23076 
L 281.059033 -90.997314 
L 280.431074 -90.399764 
L 279.803116 -90.035668 
L 279.175157 -89.033493 
L 278.547199 -87.8721 
L 277.91924 -86.643009 
L 277.291282 -86.074428 
L 276.663323 -85.901888 
L 276.035365 -85.360112 
L 275.407406 -85.036469 
L 274.779448 -84.839996 
L 274.151489 -84.616973 
L 273.523531 -83.843388 
L 272.895572 -83.238685 
L 272.267614 -82.982396 
L 271.639655 -82.808313 
L 271.011697 -82.571617 
L 270.383738 -82.173363 
L 269.75578 -81.244174 
L 269.127821 -80.477549 
L 268.499863 -79.443506 
L 267.871904 -78.964312 
L 267.243946 -78.837188 
L 266.615987 -78.264344 
L 265.988029 -77.706093 
L 265.36007 -77.16732 
L 264.732112 -76.850642 
L 264.104153 -76.569885 
L 263.476195 -76.268921 
L 262.848236 -75.887267 
L 262.220278 -75.48289 
L 261.592319 -75.25887 
L 260.964361 -74.856196 
L 260.336402 -74.696407 
L 259.708444 -74.688473 
L 259.080485 -74.6646 
L 258.452527 -74.970075 
L 257.824568 -75.461039 
L 257.19661 -75.494008 
L 256.568651 -75.531048 
L 255.940693 -75.441215 
L 255.312734 -75.383322 
L 254.684776 -75.316194 
L 254.056817 -75.340875 
L 253.428859 -75.380478 
L 252.8009 -75.163784 
L 252.172942 -75.346566 
L 251.544983 -75.440117 
L 250.917025 -75.679542 
L 250.289066 -75.6518 
L 249.661108 -75.647248 
L 249.033149 -75.641565 
L 248.405191 -75.655742 
L 247.777232 -75.65651 
L 247.149274 -75.654465 
L 246.521315 -75.489496 
L 245.893357 -75.414983 
L 245.265398 -75.290641 
L 244.63744 -75.115076 
L 244.009481 -74.866615 
L 243.381523 -74.577737 
L 242.753564 -74.485598 
L 242.125606 -74.336591 
L 241.497647 -74.14276 
L 240.869689 -74.114398 
L 240.24173 -74.072584 
L 239.613772 -73.782157 
L 238.985813 -73.2393 
L 238.357855 -72.999581 
L 237.729896 -72.78883 
L 237.101938 -72.708267 
L 236.473979 -72.639569 
L 235.846021 -72.621426 
L 235.218062 -72.614829 
L 234.590104 -72.678199 
L 233.962145 -72.820641 
L 233.334187 -72.990567 
L 232.706228 -73.232383 
L 232.07827 -73.568211 
L 231.450311 -74.005093 
L 230.822353 -74.623583 
L 230.194394 -75.095952 
L 229.566436 -75.681467 
L 228.938477 -76.650946 
L 228.310519 -77.446569 
L 227.68256 -79.112307 
L 227.054602 -79.248435 
L 226.426643 -79.20517 
L 225.798685 -79.077432 
L 225.170726 -79.074448 
L 224.542768 -79.152381 
L 223.914809 -79.236028 
L 223.286851 -79.416996 
L 222.658892 -79.548823 
L 222.030934 -79.820436 
L 221.402975 -79.385445 
L 220.775017 -79.108073 
L 220.147058 -78.684677 
L 219.5191 -78.740755 
L 218.891141 -78.601394 
L 218.263183 -78.268552 
L 217.635224 -78.001168 
L 217.007266 -77.820116 
L 216.379307 -77.590362 
L 215.751349 -76.149926 
L 215.12339 -74.794 
L 214.495432 -73.542843 
L 213.867473 -72.572639 
L 213.239515 -71.672776 
L 212.611556 -70.845968 
L 211.983598 -69.935859 
L 211.355639 -69.246395 
L 210.727681 -68.624069 
L 210.099722 -68.166031 
L 209.471764 -67.834735 
L 208.843805 -67.463416 
L 208.215847 -67.226515 
L 207.587888 -67.016835 
L 206.95993 -67.358852 
L 206.331971 -67.587114 
L 205.704013 -67.823113 
L 205.076054 -68.250459 
L 204.448096 -68.859162 
L 203.820137 -70.175485 
L 203.192179 -70.452808 
L 202.56422 -70.485205 
L 201.936262 -70.480071 
L 201.308303 -70.522286 
L 200.680345 -70.57979 
L 200.052386 -70.609529 
L 199.424428 -70.598665 
L 198.796469 -70.591577 
L 198.168511 -70.563584 
L 197.540552 -70.46414 
L 196.912594 -70.471344 
L 196.284635 -70.477924 
L 195.656677 -70.47256 
L 195.028718 -70.277547 
L 194.40076 -70.105074 
L 193.772801 -70.111945 
L 193.144843 -70.113161 
L 192.516884 -70.120453 
L 191.888926 -70.127051 
L 191.260967 -70.116086 
L 190.633009 -70.078155 
L 190.00505 -70.165262 
L 189.377092 -70.226959 
L 188.749133 -70.340825 
L 188.121175 -70.450393 
L 187.493216 -70.471565 
L 186.865258 -70.365147 
L 186.237299 -70.378649 
L 185.609341 -70.476414 
L 184.981382 -70.729065 
L 184.353424 -70.900296 
L 183.725465 -71.030508 
L 183.097507 -71.110812 
L 182.469548 -71.110516 
L 181.84159 -71.099014 
L 181.213631 -70.961565 
L 180.585673 -71.009184 
L 179.957714 -71.153434 
L 179.329756 -71.171644 
L 178.701797 -71.211851 
L 178.073839 -71.003453 
L 177.44588 -70.460956 
L 176.817922 -70.120372 
L 176.189963 -69.588353 
L 175.562005 -69.474336 
L 174.934046 -69.424067 
L 174.306088 -69.270371 
L 173.678129 -69.275527 
L 173.050171 -69.27432 
L 172.422212 -69.279412 
L 171.794254 -69.27978 
L 171.166295 -69.254258 
L 170.538337 -69.234253 
L 169.910378 -69.210716 
L 169.28242 -69.176255 
L 168.654461 -69.13863 
L 168.026503 -68.685014 
L 167.398544 -68.465122 
L 166.770586 -68.454281 
L 166.142627 -68.390003 
L 165.514669 -68.289278 
L 164.88671 -68.454006 
L 164.258752 -68.525172 
L 163.630793 -68.645665 
L 163.002835 -68.526162 
L 162.374876 -68.449725 
L 161.746918 -68.318338 
L 161.118959 -67.979773 
L 160.491001 -67.838479 
L 159.863042 -66.76881 
L 159.235084 -65.950248 
L 158.607125 -65.152199 
L 157.979167 -64.331575 
L 157.351208 -63.719539 
L 156.72325 -63.093822 
L 156.095291 -62.24396 
L 155.467333 -61.27784 
L 154.839374 -60.401583 
L 154.211416 -59.976343 
L 153.583457 -59.875064 
L 152.955499 -59.952987 
L 152.32754 -59.788548 
L 151.699582 -59.367499 
L 151.071623 -59.171199 
L 150.443664 -59.106573 
L 149.815706 -59.277599 
L 149.187747 -59.506128 
L 148.559789 -59.773674 
L 147.93183 -60.663357 
L 147.303872 -60.775337 
L 146.675913 -60.934429 
L 146.047955 -61.080893 
L 145.419996 -61.025753 
L 144.792038 -61.047146 
L 144.164079 -61.039699 
L 143.536121 -60.967789 
L 142.908162 -60.849361 
L 142.280204 -60.528935 
L 141.652245 -60.21462 
L 141.024287 -59.389686 
L 140.396328 -59.075156 
L 139.76837 -58.88561 
L 139.140411 -58.909828 
L 138.512453 -58.874046 
L 137.884494 -58.860168 
L 137.256536 -58.753528 
L 136.628577 -58.164088 
L 136.000619 -57.949609 
L 135.37266 -57.859171 
L 134.744702 -57.902739 
L 134.116743 -57.220703 
L 133.488785 -56.738979 
L 132.860826 -55.815971 
L 132.232868 -55.385148 
L 131.604909 -54.870641 
L 130.976951 -54.770088 
L 130.348992 -54.116152 
L 129.721034 -53.296666 
L 129.093075 -52.73824 
L 128.465117 -52.437672 
L 127.837158 -52.124868 
L 127.2092 -51.420934 
L 126.581241 -50.753372 
L 125.953283 -50.334863 
L 125.325324 -50.145028 
L 124.697366 -50.112 
L 124.069407 -50.393034 
L 123.441449 -50.691393 
L 122.81349 -51.059168 
L 122.185532 -51.461928 
L 121.557573 -52.436926 
L 120.929615 -53.620364 
L 120.301656 -55.235204 
L 119.673698 -56.773375 
L 119.045739 -58.78757 
L 118.417781 -60.807504 
L 117.789822 -65.174696 
L 117.161864 -65.622908 
L 116.533905 -66.202531 
L 115.905947 -66.663908 
L 115.277988 -67.371755 
L 114.65003 -67.426077 
L 114.022071 -67.434141 
L 113.394113 -67.340347 
L 112.766154 -67.52563 
L 112.138196 -67.759841 
L 111.510237 -67.995741 
L 110.882279 -68.647457 
L 110.25432 -69.396215 
L 109.626362 -70.118765 
L 108.998403 -70.837124 
L 108.370445 -71.738148 
L 107.742486 -72.001205 
L 107.114528 -71.575733 
L 106.486569 -71.238885 
L 105.858611 -71.036966 
L 105.230652 -70.876383 
L 104.602694 -70.712878 
L 103.974735 -70.661741 
L 103.346777 -70.447385 
L 102.718818 -70.318379 
L 102.09086 -69.807953 
L 101.462901 -69.081258 
L 100.834943 -68.320737 
L 100.206984 -67.779802 
L 99.579026 -67.384249 
L 98.951067 -67.262101 
L 98.323109 -67.098425 
L 97.69515 -67.083904 
L 97.067192 -67.057202 
L 96.439233 -67.140318 
L 95.811275 -67.250259 
L 95.183316 -67.276671 
L 94.555358 -67.23451 
L 93.927399 -67.222648 
L 93.299441 -66.797088 
L 92.671482 -66.543225 
L 92.043524 -66.210491 
L 91.415565 -66.202984 
L 90.787607 -65.845331 
L 90.159648 -65.880185 
L 89.53169 -65.784989 
L 88.903731 -65.364299 
L 88.275773 -64.626919 
L 87.647814 -63.991713 
L 87.019856 -63.434191 
L 86.391897 -62.607898 
L 85.763939 -62.125478 
z
" id="ma2b706c50d" style="stroke:#4b0082;stroke-opacity:0.3;"/>
    </defs>
    <g clip-path="url(#p1c113599f5)">
     <use style="fill:#4b0082;fill-opacity:0.3;stroke:#4b0082;stroke-opacity:0.3;" x="0" xlink:href="#ma2b706c50d" y="345.6"/>
    </g>
   </g>
   <g id="matplotlib.axis_1">
    <g id="xtick_1">
     <g id="line2d_1">
      <defs>
       <path d="M 0 0 
L 0 3.5 
" id="ma693df67c9" style="stroke:#000000;stroke-width:0.8;"/>
      </defs>
      <g>
       <use style="stroke:#000000;stroke-width:0.8;" x="73.832727" xlink:href="#ma693df67c9" y="307.584"/>
      </g>
     </g>
     <g id="text_1">
      <!-- 2020-01 -->
      <g transform="translate(52.941321 322.182437)scale(0.1 -0.1)">
       <defs>
        <path d="M 19.1875 8.296875 
L 53.609375 8.296875 
L 53.609375 0 
L 7.328125 0 
L 7.328125 8.296875 
Q 12.9375 14.109375 22.625 23.890625 
Q 32.328125 33.6875 34.8125 36.53125 
Q 39.546875 41.84375 41.421875 45.53125 
Q 43.3125 49.21875 43.3125 52.78125 
Q 43.3125 58.59375 39.234375 62.25 
Q 35.15625 65.921875 28.609375 65.921875 
Q 23.96875 65.921875 18.8125 64.3125 
Q 13.671875 62.703125 7.8125 59.421875 
L 7.8125 69.390625 
Q 13.765625 71.78125 18.9375 73 
Q 24.125 74.21875 28.421875 74.21875 
Q 39.75 74.21875 46.484375 68.546875 
Q 53.21875 62.890625 53.21875 53.421875 
Q 53.21875 48.921875 51.53125 44.890625 
Q 49.859375 40.875 45.40625 35.40625 
Q 44.1875 33.984375 37.640625 27.21875 
Q 31.109375 20.453125 19.1875 8.296875 
z
" id="DejaVuSans-50"/>
        <path d="M 31.78125 66.40625 
Q 24.171875 66.40625 20.328125 58.90625 
Q 16.5 51.421875 16.5 36.375 
Q 16.5 21.390625 20.328125 13.890625 
Q 24.171875 6.390625 31.78125 6.390625 
Q 39.453125 6.390625 43.28125 13.890625 
Q 47.125 21.390625 47.125 36.375 
Q 47.125 51.421875 43.28125 58.90625 
Q 39.453125 66.40625 31.78125 66.40625 
z
M 31.78125 74.21875 
Q 44.046875 74.21875 50.515625 64.515625 
Q 56.984375 54.828125 56.984375 36.375 
Q 56.984375 17.96875 50.515625 8.265625 
Q 44.046875 -1.421875 31.78125 -1.421875 
Q 19.53125 -1.421875 13.0625 8.265625 
Q 6.59375 17.96875 6.59375 36.375 
Q 6.59375 54.828125 13.0625 64.515625 
Q 19.53125 74.21875 31.78125 74.21875 
z
" id="DejaVuSans-48"/>
        <path d="M 4.890625 31.390625 
L 31.203125 31.390625 
L 31.203125 23.390625 
L 4.890625 23.390625 
z
" id="DejaVuSans-45"/>
        <path d="M 12.40625 8.296875 
L 28.515625 8.296875 
L 28.515625 63.921875 
L 10.984375 60.40625 
L 10.984375 69.390625 
L 28.421875 72.90625 
L 38.28125 72.90625 
L 38.28125 8.296875 
L 54.390625 8.296875 
L 54.390625 0 
L 12.40625 0 
z
" id="DejaVuSans-49"/>
       </defs>
       <use xlink:href="#DejaVuSans-50"/>
       <use x="63.623047" xlink:href="#DejaVuSans-48"/>
       <use x="127.246094" xlink:href="#DejaVuSans-50"/>
       <use x="190.869141" xlink:href="#DejaVuSans-48"/>
       <use x="254.492188" xlink:href="#DejaVuSans-45"/>
       <use x="290.576172" xlink:href="#DejaVuSans-48"/>
       <use x="354.199219" xlink:href="#DejaVuSans-49"/>
      </g>
     </g>
    </g>
    <g id="xtick_2">
     <g id="line2d_2">
      <g>
       <use style="stroke:#000000;stroke-width:0.8;" x="111.510237" xlink:href="#ma693df67c9" y="307.584"/>
      </g>
     </g>
     <g id="text_2">
      <!-- 2020-03 -->
      <g transform="translate(90.618831 322.182437)scale(0.1 -0.1)">
       <defs>
        <path d="M 40.578125 39.3125 
Q 47.65625 37.796875 51.625 33 
Q 55.609375 28.21875 55.609375 21.1875 
Q 55.609375 10.40625 48.1875 4.484375 
Q 40.765625 -1.421875 27.09375 -1.421875 
Q 22.515625 -1.421875 17.65625 -0.515625 
Q 12.796875 0.390625 7.625 2.203125 
L 7.625 11.71875 
Q 11.71875 9.328125 16.59375 8.109375 
Q 21.484375 6.890625 26.8125 6.890625 
Q 36.078125 6.890625 40.9375 10.546875 
Q 45.796875 14.203125 45.796875 21.1875 
Q 45.796875 27.640625 41.28125 31.265625 
Q 36.765625 34.90625 28.71875 34.90625 
L 20.21875 34.90625 
L 20.21875 43.015625 
L 29.109375 43.015625 
Q 36.375 43.015625 40.234375 45.921875 
Q 44.09375 48.828125 44.09375 54.296875 
Q 44.09375 59.90625 40.109375 62.90625 
Q 36.140625 65.921875 28.71875 65.921875 
Q 24.65625 65.921875 20.015625 65.03125 
Q 15.375 64.15625 9.8125 62.3125 
L 9.8125 71.09375 
Q 15.4375 72.65625 20.34375 73.4375 
Q 25.25 74.21875 29.59375 74.21875 
Q 40.828125 74.21875 47.359375 69.109375 
Q 53.90625 64.015625 53.90625 55.328125 
Q 53.90625 49.265625 50.4375 45.09375 
Q 46.96875 40.921875 40.578125 39.3125 
z
" id="DejaVuSans-51"/>
       </defs>
       <use xlink:href="#DejaVuSans-50"/>
       <use x="63.623047" xlink:href="#DejaVuSans-48"/>
       <use x="127.246094" xlink:href="#DejaVuSans-50"/>
       <use x="190.869141" xlink:href="#DejaVuSans-48"/>
       <use x="254.492188" xlink:href="#DejaVuSans-45"/>
       <use x="290.576172" xlink:href="#DejaVuSans-48"/>
       <use x="354.199219" xlink:href="#DejaVuSans-51"/>
      </g>
     </g>
    </g>
    <g id="xtick_3">
     <g id="line2d_3">
      <g>
       <use style="stroke:#000000;stroke-width:0.8;" x="149.815706" xlink:href="#ma693df67c9" y="307.584"/>
      </g>
     </g>
     <g id="text_3">
      <!-- 2020-05 -->
      <g transform="translate(128.9243 322.182437)scale(0.1 -0.1)">
       <defs>
        <path d="M 10.796875 72.90625 
L 49.515625 72.90625 
L 49.515625 64.59375 
L 19.828125 64.59375 
L 19.828125 46.734375 
Q 21.96875 47.46875 24.109375 47.828125 
Q 26.265625 48.1875 28.421875 48.1875 
Q 40.625 48.1875 47.75 41.5 
Q 54.890625 34.8125 54.890625 23.390625 
Q 54.890625 11.625 47.5625 5.09375 
Q 40.234375 -1.421875 26.90625 -1.421875 
Q 22.3125 -1.421875 17.546875 -0.640625 
Q 12.796875 0.140625 7.71875 1.703125 
L 7.71875 11.625 
Q 12.109375 9.234375 16.796875 8.0625 
Q 21.484375 6.890625 26.703125 6.890625 
Q 35.15625 6.890625 40.078125 11.328125 
Q 45.015625 15.765625 45.015625 23.390625 
Q 45.015625 31 40.078125 35.4375 
Q 35.15625 39.890625 26.703125 39.890625 
Q 22.75 39.890625 18.8125 39.015625 
Q 14.890625 38.140625 10.796875 36.28125 
z
" id="DejaVuSans-53"/>
       </defs>
       <use xlink:href="#DejaVuSans-50"/>
       <use x="63.623047" xlink:href="#DejaVuSans-48"/>
       <use x="127.246094" xlink:href="#DejaVuSans-50"/>
       <use x="190.869141" xlink:href="#DejaVuSans-48"/>
       <use x="254.492188" xlink:href="#DejaVuSans-45"/>
       <use x="290.576172" xlink:href="#DejaVuSans-48"/>
       <use x="354.199219" xlink:href="#DejaVuSans-53"/>
      </g>
     </g>
    </g>
    <g id="xtick_4">
     <g id="line2d_4">
      <g>
       <use style="stroke:#000000;stroke-width:0.8;" x="188.121175" xlink:href="#ma693df67c9" y="307.584"/>
      </g>
     </g>
     <g id="text_4">
      <!-- 2020-07 -->
      <g transform="translate(167.229768 322.182437)scale(0.1 -0.1)">
       <defs>
        <path d="M 8.203125 72.90625 
L 55.078125 72.90625 
L 55.078125 68.703125 
L 28.609375 0 
L 18.3125 0 
L 43.21875 64.59375 
L 8.203125 64.59375 
z
" id="DejaVuSans-55"/>
       </defs>
       <use xlink:href="#DejaVuSans-50"/>
       <use x="63.623047" xlink:href="#DejaVuSans-48"/>
       <use x="127.246094" xlink:href="#DejaVuSans-50"/>
       <use x="190.869141" xlink:href="#DejaVuSans-48"/>
       <use x="254.492188" xlink:href="#DejaVuSans-45"/>
       <use x="290.576172" xlink:href="#DejaVuSans-48"/>
       <use x="354.199219" xlink:href="#DejaVuSans-55"/>
      </g>
     </g>
    </g>
    <g id="xtick_5">
     <g id="line2d_5">
      <g>
       <use style="stroke:#000000;stroke-width:0.8;" x="227.054602" xlink:href="#ma693df67c9" y="307.584"/>
      </g>
     </g>
     <g id="text_5">
      <!-- 2020-09 -->
      <g transform="translate(206.163195 322.182437)scale(0.1 -0.1)">
       <defs>
        <path d="M 10.984375 1.515625 
L 10.984375 10.5 
Q 14.703125 8.734375 18.5 7.8125 
Q 22.3125 6.890625 25.984375 6.890625 
Q 35.75 6.890625 40.890625 13.453125 
Q 46.046875 20.015625 46.78125 33.40625 
Q 43.953125 29.203125 39.59375 26.953125 
Q 35.25 24.703125 29.984375 24.703125 
Q 19.046875 24.703125 12.671875 31.3125 
Q 6.296875 37.9375 6.296875 49.421875 
Q 6.296875 60.640625 12.9375 67.421875 
Q 19.578125 74.21875 30.609375 74.21875 
Q 43.265625 74.21875 49.921875 64.515625 
Q 56.59375 54.828125 56.59375 36.375 
Q 56.59375 19.140625 48.40625 8.859375 
Q 40.234375 -1.421875 26.421875 -1.421875 
Q 22.703125 -1.421875 18.890625 -0.6875 
Q 15.09375 0.046875 10.984375 1.515625 
z
M 30.609375 32.421875 
Q 37.25 32.421875 41.125 36.953125 
Q 45.015625 41.5 45.015625 49.421875 
Q 45.015625 57.28125 41.125 61.84375 
Q 37.25 66.40625 30.609375 66.40625 
Q 23.96875 66.40625 20.09375 61.84375 
Q 16.21875 57.28125 16.21875 49.421875 
Q 16.21875 41.5 20.09375 36.953125 
Q 23.96875 32.421875 30.609375 32.421875 
z
" id="DejaVuSans-57"/>
       </defs>
       <use xlink:href="#DejaVuSans-50"/>
       <use x="63.623047" xlink:href="#DejaVuSans-48"/>
       <use x="127.246094" xlink:href="#DejaVuSans-50"/>
       <use x="190.869141" xlink:href="#DejaVuSans-48"/>
       <use x="254.492188" xlink:href="#DejaVuSans-45"/>
       <use x="290.576172" xlink:href="#DejaVuSans-48"/>
       <use x="354.199219" xlink:href="#DejaVuSans-57"/>
      </g>
     </g>
    </g>
    <g id="xtick_6">
     <g id="line2d_6">
      <g>
       <use style="stroke:#000000;stroke-width:0.8;" x="265.36007" xlink:href="#ma693df67c9" y="307.584"/>
      </g>
     </g>
     <g id="text_6">
      <!-- 2020-11 -->
      <g transform="translate(244.468664 322.182437)scale(0.1 -0.1)">
       <use xlink:href="#DejaVuSans-50"/>
       <use x="63.623047" xlink:href="#DejaVuSans-48"/>
       <use x="127.246094" xlink:href="#DejaVuSans-50"/>
       <use x="190.869141" xlink:href="#DejaVuSans-48"/>
       <use x="254.492188" xlink:href="#DejaVuSans-45"/>
       <use x="290.576172" xlink:href="#DejaVuSans-49"/>
       <use x="354.199219" xlink:href="#DejaVuSans-49"/>
      </g>
     </g>
    </g>
    <g id="xtick_7">
     <g id="line2d_7">
      <g>
       <use style="stroke:#000000;stroke-width:0.8;" x="303.665539" xlink:href="#ma693df67c9" y="307.584"/>
      </g>
     </g>
     <g id="text_7">
      <!-- 2021-01 -->
      <g transform="translate(282.774133 322.182437)scale(0.1 -0.1)">
       <use xlink:href="#DejaVuSans-50"/>
       <use x="63.623047" xlink:href="#DejaVuSans-48"/>
       <use x="127.246094" xlink:href="#DejaVuSans-50"/>
       <use x="190.869141" xlink:href="#DejaVuSans-49"/>
       <use x="254.492188" xlink:href="#DejaVuSans-45"/>
       <use x="290.576172" xlink:href="#DejaVuSans-48"/>
       <use x="354.199219" xlink:href="#DejaVuSans-49"/>
      </g>
     </g>
    </g>
    <g id="xtick_8">
     <g id="line2d_8">
      <g>
       <use style="stroke:#000000;stroke-width:0.8;" x="340.715091" xlink:href="#ma693df67c9" y="307.584"/>
      </g>
     </g>
     <g id="text_8">
      <!-- 2021-03 -->
      <g transform="translate(319.823684 322.182437)scale(0.1 -0.1)">
       <use xlink:href="#DejaVuSans-50"/>
       <use x="63.623047" xlink:href="#DejaVuSans-48"/>
       <use x="127.246094" xlink:href="#DejaVuSans-50"/>
       <use x="190.869141" xlink:href="#DejaVuSans-49"/>
       <use x="254.492188" xlink:href="#DejaVuSans-45"/>
       <use x="290.576172" xlink:href="#DejaVuSans-48"/>
       <use x="354.199219" xlink:href="#DejaVuSans-51"/>
      </g>
     </g>
    </g>
    <g id="xtick_9">
     <g id="line2d_9">
      <g>
       <use style="stroke:#000000;stroke-width:0.8;" x="379.020559" xlink:href="#ma693df67c9" y="307.584"/>
      </g>
     </g>
     <g id="text_9">
      <!-- 2021-05 -->
      <g transform="translate(358.129153 322.182437)scale(0.1 -0.1)">
       <use xlink:href="#DejaVuSans-50"/>
       <use x="63.623047" xlink:href="#DejaVuSans-48"/>
       <use x="127.246094" xlink:href="#DejaVuSans-50"/>
       <use x="190.869141" xlink:href="#DejaVuSans-49"/>
       <use x="254.492188" xlink:href="#DejaVuSans-45"/>
       <use x="290.576172" xlink:href="#DejaVuSans-48"/>
       <use x="354.199219" xlink:href="#DejaVuSans-53"/>
      </g>
     </g>
    </g>
   </g>
   <g id="matplotlib.axis_2">
    <g id="ytick_1">
     <g id="line2d_10">
      <defs>
       <path d="M 0 0 
L -3.5 0 
" id="ma6929d3017" style="stroke:#000000;stroke-width:0.8;"/>
      </defs>
      <g>
       <use style="stroke:#000000;stroke-width:0.8;" x="57.6" xlink:href="#ma6929d3017" y="271.245107"/>
      </g>
     </g>
     <g id="text_10">
      <!-- 10000 -->
      <g transform="translate(18.7875 275.044326)scale(0.1 -0.1)">
       <use xlink:href="#DejaVuSans-49"/>
       <use x="63.623047" xlink:href="#DejaVuSans-48"/>
       <use x="127.246094" xlink:href="#DejaVuSans-48"/>
       <use x="190.869141" xlink:href="#DejaVuSans-48"/>
       <use x="254.492188" xlink:href="#DejaVuSans-48"/>
      </g>
     </g>
    </g>
    <g id="ytick_2">
     <g id="line2d_11">
      <g>
       <use style="stroke:#000000;stroke-width:0.8;" x="57.6" xlink:href="#ma6929d3017" y="232.357461"/>
      </g>
     </g>
     <g id="text_11">
      <!-- 20000 -->
      <g transform="translate(18.7875 236.15668)scale(0.1 -0.1)">
       <use xlink:href="#DejaVuSans-50"/>
       <use x="63.623047" xlink:href="#DejaVuSans-48"/>
       <use x="127.246094" xlink:href="#DejaVuSans-48"/>
       <use x="190.869141" xlink:href="#DejaVuSans-48"/>
       <use x="254.492188" xlink:href="#DejaVuSans-48"/>
      </g>
     </g>
    </g>
    <g id="ytick_3">
     <g id="line2d_12">
      <g>
       <use style="stroke:#000000;stroke-width:0.8;" x="57.6" xlink:href="#ma6929d3017" y="193.469815"/>
      </g>
     </g>
     <g id="text_12">
      <!-- 30000 -->
      <g transform="translate(18.7875 197.269034)scale(0.1 -0.1)">
       <use xlink:href="#DejaVuSans-51"/>
       <use x="63.623047" xlink:href="#DejaVuSans-48"/>
       <use x="127.246094" xlink:href="#DejaVuSans-48"/>
       <use x="190.869141" xlink:href="#DejaVuSans-48"/>
       <use x="254.492188" xlink:href="#DejaVuSans-48"/>
      </g>
     </g>
    </g>
    <g id="ytick_4">
     <g id="line2d_13">
      <g>
       <use style="stroke:#000000;stroke-width:0.8;" x="57.6" xlink:href="#ma6929d3017" y="154.582169"/>
      </g>
     </g>
     <g id="text_13">
      <!-- 40000 -->
      <g transform="translate(18.7875 158.381387)scale(0.1 -0.1)">
       <defs>
        <path d="M 37.796875 64.3125 
L 12.890625 25.390625 
L 37.796875 25.390625 
z
M 35.203125 72.90625 
L 47.609375 72.90625 
L 47.609375 25.390625 
L 58.015625 25.390625 
L 58.015625 17.1875 
L 47.609375 17.1875 
L 47.609375 0 
L 37.796875 0 
L 37.796875 17.1875 
L 4.890625 17.1875 
L 4.890625 26.703125 
z
" id="DejaVuSans-52"/>
       </defs>
       <use xlink:href="#DejaVuSans-52"/>
       <use x="63.623047" xlink:href="#DejaVuSans-48"/>
       <use x="127.246094" xlink:href="#DejaVuSans-48"/>
       <use x="190.869141" xlink:href="#DejaVuSans-48"/>
       <use x="254.492188" xlink:href="#DejaVuSans-48"/>
      </g>
     </g>
    </g>
    <g id="ytick_5">
     <g id="line2d_14">
      <g>
       <use style="stroke:#000000;stroke-width:0.8;" x="57.6" xlink:href="#ma6929d3017" y="115.694522"/>
      </g>
     </g>
     <g id="text_14">
      <!-- 50000 -->
      <g transform="translate(18.7875 119.493741)scale(0.1 -0.1)">
       <use xlink:href="#DejaVuSans-53"/>
       <use x="63.623047" xlink:href="#DejaVuSans-48"/>
       <use x="127.246094" xlink:href="#DejaVuSans-48"/>
       <use x="190.869141" xlink:href="#DejaVuSans-48"/>
       <use x="254.492188" xlink:href="#DejaVuSans-48"/>
      </g>
     </g>
    </g>
    <g id="ytick_6">
     <g id="line2d_15">
      <g>
       <use style="stroke:#000000;stroke-width:0.8;" x="57.6" xlink:href="#ma6929d3017" y="76.806876"/>
      </g>
     </g>
     <g id="text_15">
      <!-- 60000 -->
      <g transform="translate(18.7875 80.606095)scale(0.1 -0.1)">
       <defs>
        <path d="M 33.015625 40.375 
Q 26.375 40.375 22.484375 35.828125 
Q 18.609375 31.296875 18.609375 23.390625 
Q 18.609375 15.53125 22.484375 10.953125 
Q 26.375 6.390625 33.015625 6.390625 
Q 39.65625 6.390625 43.53125 10.953125 
Q 47.40625 15.53125 47.40625 23.390625 
Q 47.40625 31.296875 43.53125 35.828125 
Q 39.65625 40.375 33.015625 40.375 
z
M 52.59375 71.296875 
L 52.59375 62.3125 
Q 48.875 64.0625 45.09375 64.984375 
Q 41.3125 65.921875 37.59375 65.921875 
Q 27.828125 65.921875 22.671875 59.328125 
Q 17.53125 52.734375 16.796875 39.40625 
Q 19.671875 43.65625 24.015625 45.921875 
Q 28.375 48.1875 33.59375 48.1875 
Q 44.578125 48.1875 50.953125 41.515625 
Q 57.328125 34.859375 57.328125 23.390625 
Q 57.328125 12.15625 50.6875 5.359375 
Q 44.046875 -1.421875 33.015625 -1.421875 
Q 20.359375 -1.421875 13.671875 8.265625 
Q 6.984375 17.96875 6.984375 36.375 
Q 6.984375 53.65625 15.1875 63.9375 
Q 23.390625 74.21875 37.203125 74.21875 
Q 40.921875 74.21875 44.703125 73.484375 
Q 48.484375 72.75 52.59375 71.296875 
z
" id="DejaVuSans-54"/>
       </defs>
       <use xlink:href="#DejaVuSans-54"/>
       <use x="63.623047" xlink:href="#DejaVuSans-48"/>
       <use x="127.246094" xlink:href="#DejaVuSans-48"/>
       <use x="190.869141" xlink:href="#DejaVuSans-48"/>
       <use x="254.492188" xlink:href="#DejaVuSans-48"/>
      </g>
     </g>
    </g>
   </g>
   <g id="line2d_16">
    <path clip-path="url(#p1c113599f5)" d="M 85.763939 273.798607 
L 86.391897 273.683148 
L 88.275773 274.21115 
L 88.903731 274.567763 
L 89.53169 274.661472 
L 90.159648 274.46929 
L 90.787607 273.913567 
L 91.415565 273.697874 
L 92.043524 273.194783 
L 94.555358 272.571403 
L 95.183316 272.469197 
L 97.067192 271.21515 
L 97.69515 270.776498 
L 98.323109 270.199922 
L 98.951067 269.922646 
L 100.206984 269.06326 
L 100.834943 268.904126 
L 101.462901 268.879017 
L 102.718818 269.207426 
L 103.346777 269.213644 
L 103.974735 269.082151 
L 105.858611 269.188238 
L 107.114528 269.339664 
L 107.742486 269.580388 
L 108.370445 269.436623 
L 108.998403 268.91099 
L 110.25432 268.331577 
L 111.510237 268.077286 
L 112.766154 268.747302 
L 113.394113 269.131822 
L 114.022071 269.733069 
L 115.277988 270.364855 
L 115.905947 270.304195 
L 116.533905 270.71528 
L 117.161864 270.791522 
L 117.789822 270.990401 
L 118.417781 268.489059 
L 119.045739 268.027913 
L 119.673698 267.868717 
L 121.557573 268.191689 
L 122.185532 268.528315 
L 124.069407 270.226879 
L 125.953283 273.030555 
L 126.581241 274.370356 
L 127.837158 277.671244 
L 129.093075 279.776507 
L 129.721034 280.920023 
L 130.348992 282.333983 
L 130.976951 282.296532 
L 131.604909 281.944829 
L 132.860826 281.697101 
L 133.488785 281.946521 
L 134.116743 281.659405 
L 134.744702 281.656101 
L 135.37266 281.171961 
L 136.000619 280.841429 
L 136.628577 280.79577 
L 137.256536 280.972696 
L 139.140411 280.855 
L 139.76837 280.862654 
L 140.396328 280.758824 
L 141.024287 280.771155 
L 141.652245 281.061656 
L 142.280204 281.098619 
L 143.536121 281.296733 
L 144.164079 281.243485 
L 147.93183 279.516387 
L 148.559789 278.046711 
L 151.071623 274.396786 
L 152.955499 272.664439 
L 153.583457 271.437479 
L 154.211416 270.549266 
L 154.839374 270.030924 
L 155.467333 270.165664 
L 156.72325 270.658493 
L 157.351208 270.57247 
L 157.979167 270.293404 
L 159.863042 270.658418 
L 160.491001 270.969745 
L 161.118959 270.721315 
L 165.514669 270.671599 
L 166.142627 271.076894 
L 167.398544 271.298344 
L 168.026503 271.151593 
L 168.654461 271.270325 
L 169.28242 270.774121 
L 169.910378 270.72947 
L 170.538337 270.804936 
L 171.794254 270.57119 
L 173.678129 270.552052 
L 175.562005 270.289113 
L 176.189963 270.288234 
L 178.073839 271.014424 
L 179.329756 271.094465 
L 181.213631 271.082099 
L 181.84159 271.569466 
L 183.097507 271.541496 
L 184.353424 271.662616 
L 185.609341 271.722589 
L 186.865258 272.092539 
L 187.493216 272.486648 
L 190.00505 272.581881 
L 191.260967 272.740404 
L 192.516884 272.806369 
L 194.40076 272.857857 
L 195.656677 273.513407 
L 199.424428 273.603044 
L 200.680345 273.516296 
L 203.192179 272.606239 
L 203.820137 272.094113 
L 204.448096 270.098681 
L 205.704013 267.75336 
L 206.95993 265.751953 
L 207.587888 264.432263 
L 210.099722 262.306305 
L 210.727681 261.743435 
L 211.983598 261.107272 
L 213.239515 260.879264 
L 214.495432 261.263219 
L 215.12339 261.642522 
L 216.379307 262.891301 
L 217.007266 262.76894 
L 217.635224 262.424997 
L 218.263183 262.367269 
L 219.5191 262.383208 
L 220.147058 262.43051 
L 222.030934 262.943901 
L 223.286851 262.822016 
L 224.542768 262.772198 
L 227.68256 262.778361 
L 228.310519 261.728682 
L 229.566436 261.180277 
L 230.822353 261.513508 
L 231.450311 261.539363 
L 233.962145 262.424875 
L 234.590104 262.839584 
L 236.473979 263.467533 
L 237.729896 264.051894 
L 238.985813 265.038458 
L 239.613772 266.162843 
L 240.24173 266.792425 
L 241.497647 266.735363 
L 245.893357 266.765337 
L 249.033149 266.988614 
L 250.289066 267.107996 
L 250.917025 267.152492 
L 252.172942 266.309132 
L 252.8009 265.743476 
L 254.056817 265.189243 
L 254.684776 264.846534 
L 256.568651 264.282231 
L 257.824568 263.417805 
L 259.080485 260.839635 
L 260.964361 258.284426 
L 261.592319 257.731345 
L 262.220278 256.787195 
L 264.104153 255.124222 
L 265.36007 253.907979 
L 265.988029 253.62141 
L 267.243946 252.724507 
L 267.871904 251.205937 
L 268.499863 250.047389 
L 269.127821 249.790418 
L 269.75578 249.105134 
L 270.383738 248.6876 
L 271.011697 248.104249 
L 271.639655 247.280311 
L 272.895572 245.155677 
L 273.523531 244.577018 
L 274.151489 244.227583 
L 274.779448 243.268569 
L 276.035365 240.411744 
L 276.663323 239.301549 
L 277.291282 237.58045 
L 277.91924 236.232353 
L 279.175157 235.026193 
L 280.431074 233.236104 
L 281.059033 233.21209 
L 281.686991 233.54745 
L 282.942908 233.525981 
L 283.570867 232.682313 
L 284.198825 232.596991 
L 285.454742 231.660942 
L 286.082701 231.956945 
L 286.710659 232.397928 
L 287.338618 232.409194 
L 287.966576 232.201555 
L 290.47841 232.380887 
L 291.106369 232.297246 
L 291.734327 232.08431 
L 292.362286 232.007532 
L 292.990244 231.708747 
L 293.618203 229.916813 
L 295.502078 220.42682 
L 296.130037 218.13368 
L 296.757995 216.743505 
L 297.385954 214.631966 
L 298.641871 211.754067 
L 299.269829 209.697876 
L 299.897788 206.398687 
L 303.03758 193.699069 
L 303.665539 191.501249 
L 304.921456 183.286337 
L 305.549414 181.078149 
L 306.177373 177.011077 
L 306.805331 170.471901 
L 308.061248 154.347834 
L 308.689207 148.409267 
L 309.317165 145.363432 
L 309.945124 144.298925 
L 310.573082 144.636176 
L 311.201041 143.804667 
L 311.828999 142.229569 
L 312.456958 141.932768 
L 313.084916 142.632776 
L 313.712875 143.585686 
L 314.968792 145.933197 
L 315.59675 147.665122 
L 316.224709 148.616684 
L 316.852667 148.906484 
L 317.480626 148.667228 
L 318.108584 148.772757 
L 318.736543 148.402602 
L 319.364501 148.523254 
L 319.99246 149.663188 
L 321.248377 156.495619 
L 321.876336 158.399163 
L 322.504294 158.829796 
L 323.132253 158.878735 
L 323.760211 159.995771 
L 324.38817 161.500108 
L 325.016128 161.335423 
L 325.644087 159.660687 
L 326.272045 157.055922 
L 326.900004 155.430323 
L 327.527962 144.783508 
L 328.155921 136.513793 
L 328.783879 131.42865 
L 329.411838 123.919014 
L 330.039796 118.298595 
L 331.923672 105.378352 
L 332.55163 102.671465 
L 333.179589 97.47691 
L 333.807547 93.59924 
L 334.435506 87.130833 
L 335.691423 78.296633 
L 336.319381 76.957348 
L 336.94734 77.921516 
L 337.575298 79.760801 
L 338.831215 84.806037 
L 339.459174 88.509124 
L 340.087132 88.25329 
L 340.715091 88.176138 
L 341.343049 88.749743 
L 341.971008 88.476489 
L 343.854883 88.602664 
L 344.482842 88.301059 
L 345.1108 87.49851 
L 345.738759 86.058933 
L 346.366717 83.754108 
L 346.994676 82.199754 
L 347.622634 81.126646 
L 348.878551 74.217799 
L 349.50651 72.417679 
L 350.134468 70.132513 
L 350.762427 67.260468 
L 351.390385 65.872615 
L 352.018344 64.975213 
L 352.646302 65.381594 
L 353.274261 64.698448 
L 353.902219 65.7454 
L 354.530178 66.173961 
L 355.786095 68.980205 
L 356.414053 71.110449 
L 357.042012 72.269845 
L 357.66997 72.896737 
L 358.297929 72.489312 
L 358.925887 71.53553 
L 360.181804 70.492462 
L 360.809763 72.044337 
L 361.437721 72.897036 
L 362.06568 72.284756 
L 362.693638 71.439615 
L 363.949555 72.210904 
L 365.205472 72.213315 
L 367.089348 68.803191 
L 367.717306 66.087176 
L 368.345265 65.938174 
L 368.973223 63.67668 
L 369.601182 63.02743 
L 370.22914 63.312291 
L 370.857099 62.950521 
L 371.485057 62.331418 
L 372.113016 62.161461 
L 372.740974 60.935417 
L 374.62485 55.053804 
L 375.252808 53.568 
L 375.880767 53.90507 
L 376.508725 53.958006 
L 377.764642 54.975951 
L 379.020559 56.666684 
L 379.648518 57.856949 
L 380.904435 66.147683 
L 381.532393 70.753067 
L 382.160352 74.378122 
L 382.78831 76.594991 
L 383.416269 74.992906 
L 384.044227 73.715013 
L 384.672186 73.925803 
L 385.300144 73.286417 
L 385.928103 72.433021 
L 386.556061 71.844461 
L 387.18402 71.713194 
L 387.811978 70.159837 
L 388.439937 67.8978 
L 389.067895 64.696213 
L 389.695854 62.245297 
L 390.323812 56.421648 
L 390.951771 56.718322 
L 391.579729 56.545737 
L 392.207688 57.081896 
L 392.835646 57.82536 
L 393.463605 59.143801 
L 394.719522 67.952862 
L 395.34748 73.892212 
L 397.231356 99.37107 
L 397.859314 111.21009 
L 398.487273 116.725749 
L 398.487273 116.725749 
" style="fill:none;stroke:#1f77b4;stroke-linecap:square;stroke-width:1.5;"/>
   </g>
   <g id="line2d_17">
    <path clip-path="url(#p1c113599f5)" d="M 85.763939 283.474522 
L 86.391897 282.992102 
L 87.019856 282.165809 
L 88.275773 280.973081 
L 88.903731 280.235701 
L 89.53169 279.815011 
L 90.159648 279.719815 
L 90.787607 279.754669 
L 91.415565 279.397016 
L 92.043524 279.389509 
L 93.927399 278.377352 
L 95.811275 278.349741 
L 97.067192 278.542798 
L 98.323109 278.501575 
L 99.579026 278.215751 
L 100.206984 277.820198 
L 100.834943 277.279263 
L 102.09086 275.792047 
L 102.718818 275.281621 
L 105.858611 274.563034 
L 106.486569 274.361115 
L 107.742486 273.598795 
L 108.370445 273.861852 
L 109.626362 275.481235 
L 111.510237 277.604259 
L 113.394113 278.259653 
L 114.65003 278.173923 
L 115.277988 278.228245 
L 115.905947 278.936092 
L 117.789822 280.425304 
L 118.417781 284.792496 
L 119.673698 288.826625 
L 121.557573 293.163074 
L 122.185532 294.138072 
L 123.441449 294.908607 
L 124.697366 295.488 
L 125.325324 295.454972 
L 125.953283 295.265137 
L 126.581241 294.846628 
L 127.837158 293.475132 
L 129.093075 292.86176 
L 129.721034 292.303334 
L 130.976951 290.829912 
L 131.604909 290.729359 
L 132.860826 289.784029 
L 133.488785 288.861021 
L 134.116743 288.379297 
L 134.744702 287.697261 
L 135.37266 287.740829 
L 136.000619 287.650391 
L 136.628577 287.435912 
L 137.256536 286.846472 
L 138.512453 286.725954 
L 140.396328 286.524844 
L 141.024287 286.210314 
L 141.652245 285.38538 
L 142.908162 284.750639 
L 144.164079 284.560301 
L 146.047955 284.519107 
L 147.93183 284.936643 
L 148.559789 285.826326 
L 149.815706 286.322401 
L 150.443664 286.493427 
L 151.071623 286.428801 
L 151.699582 286.232501 
L 152.32754 285.811452 
L 152.955499 285.647013 
L 153.583457 285.724936 
L 154.211416 285.623657 
L 154.839374 285.198417 
L 157.351208 281.880461 
L 157.979167 281.268425 
L 159.863042 278.83119 
L 160.491001 277.761521 
L 161.118959 277.620227 
L 161.746918 277.281662 
L 163.630793 276.954335 
L 165.514669 277.310722 
L 166.770586 277.145719 
L 167.398544 277.134878 
L 168.026503 276.914986 
L 168.654461 276.46137 
L 172.422212 276.320588 
L 174.306088 276.329629 
L 175.562005 276.125664 
L 176.189963 276.011647 
L 176.817922 275.479628 
L 177.44588 275.139044 
L 178.073839 274.596547 
L 178.701797 274.388149 
L 181.84159 274.500986 
L 183.725465 274.569492 
L 184.981382 274.870935 
L 185.609341 275.123586 
L 186.865258 275.234853 
L 187.493216 275.128435 
L 188.749133 275.259175 
L 190.633009 275.521845 
L 192.516884 275.479547 
L 194.40076 275.494926 
L 195.656677 275.12744 
L 203.192179 275.147192 
L 203.820137 275.424515 
L 204.448096 276.740838 
L 205.076054 277.349541 
L 205.704013 277.776887 
L 207.587888 278.583165 
L 208.843805 278.136584 
L 210.727681 276.975931 
L 211.983598 275.664141 
L 214.495432 272.057157 
L 215.751349 269.450074 
L 216.379307 268.009638 
L 219.5191 266.859245 
L 220.147058 266.915323 
L 220.775017 266.491927 
L 221.402975 266.214555 
L 222.030934 265.779564 
L 222.658892 266.051177 
L 225.170726 266.525552 
L 225.798685 266.522568 
L 227.054602 266.351565 
L 227.68256 266.487693 
L 228.310519 268.153431 
L 230.194394 270.504048 
L 230.822353 270.976417 
L 231.450311 271.594907 
L 232.706228 272.367617 
L 233.962145 272.779359 
L 235.218062 272.985171 
L 237.101938 272.891733 
L 237.729896 272.81117 
L 238.985813 272.3607 
L 239.613772 271.817843 
L 240.24173 271.527416 
L 241.497647 271.45724 
L 242.753564 271.114402 
L 243.381523 271.022263 
L 244.63744 270.484924 
L 245.893357 270.185017 
L 248.405191 269.944258 
L 250.917025 269.920458 
L 251.544983 270.159883 
L 252.8009 270.436216 
L 253.428859 270.219522 
L 254.684776 270.283806 
L 257.19661 270.105992 
L 257.824568 270.138961 
L 258.452527 270.629925 
L 259.080485 270.9354 
L 260.336402 270.903593 
L 260.964361 270.743804 
L 261.592319 270.34113 
L 262.220278 270.11711 
L 264.104153 269.030115 
L 265.36007 268.43268 
L 267.243946 266.762812 
L 267.871904 266.635688 
L 268.499863 266.156494 
L 269.127821 265.122451 
L 270.383738 263.426637 
L 271.011697 263.028383 
L 272.895572 262.361315 
L 273.523531 261.756612 
L 274.151489 260.983027 
L 276.035365 260.239888 
L 276.663323 259.698112 
L 277.291282 259.525572 
L 277.91924 258.956991 
L 279.175157 256.566507 
L 279.803116 255.564332 
L 280.431074 255.200236 
L 281.059033 254.602686 
L 281.686991 253.36924 
L 282.31495 252.489938 
L 284.198825 249.457516 
L 285.454742 248.045902 
L 286.082701 246.738631 
L 286.710659 245.056046 
L 287.338618 244.005796 
L 288.594535 243.353493 
L 289.222493 243.023494 
L 290.47841 243.361373 
L 292.362286 243.227342 
L 292.990244 243.252135 
L 293.618203 243.430205 
L 295.502078 246.443562 
L 296.130037 247.260229 
L 296.757995 247.109256 
L 297.385954 247.426333 
L 298.013912 247.335046 
L 298.641871 246.862126 
L 299.269829 246.76751 
L 299.897788 247.324748 
L 300.525746 247.155168 
L 301.153705 246.351005 
L 302.409622 244.128983 
L 303.665539 240.212728 
L 304.293497 239.435392 
L 304.921456 238.115515 
L 305.549414 235.429245 
L 306.177373 234.589268 
L 306.805331 235.669409 
L 307.43329 237.518016 
L 308.061248 238.884907 
L 308.689207 238.340971 
L 309.945124 231.921445 
L 311.828999 218.862944 
L 312.456958 215.119869 
L 315.59675 193.259565 
L 316.224709 191.735992 
L 316.852667 191.093743 
L 317.480626 191.609366 
L 318.108584 191.395587 
L 318.736543 192.406895 
L 319.364501 193.967937 
L 319.99246 196.353103 
L 320.620418 195.752604 
L 321.248377 194.61503 
L 321.876336 194.213395 
L 322.504294 194.687067 
L 323.132253 194.816629 
L 323.760211 194.424929 
L 324.38817 193.499933 
L 325.016128 193.579685 
L 325.644087 194.39527 
L 326.272045 195.662273 
L 326.900004 196.411507 
L 327.527962 202.978621 
L 328.155921 206.992019 
L 328.783879 206.613925 
L 329.411838 208.300252 
L 330.039796 207.961431 
L 330.667755 206.714734 
L 331.295713 205.214928 
L 331.923672 202.683566 
L 332.55163 198.086701 
L 333.179589 195.987091 
L 333.807547 193.138818 
L 334.435506 191.212468 
L 335.691423 181.87725 
L 339.459174 145.991239 
L 340.087132 146.704716 
L 340.715091 145.52372 
L 341.343049 143.54472 
L 341.971008 142.859353 
L 342.598966 142.391993 
L 343.226925 141.6904 
L 343.854883 141.619407 
L 344.482842 140.757832 
L 345.1108 140.314314 
L 345.738759 140.730298 
L 346.366717 141.363279 
L 346.994676 142.198841 
L 347.622634 142.743704 
L 348.250593 144.926567 
L 348.878551 146.35511 
L 349.50651 145.501346 
L 350.134468 144.994132 
L 350.762427 143.332407 
L 351.390385 140.307232 
L 352.018344 136.586169 
L 352.646302 131.130684 
L 353.274261 128.779632 
L 353.902219 125.51805 
L 354.530178 123.492411 
L 355.158136 120.438823 
L 355.786095 118.112915 
L 356.414053 113.550613 
L 357.042012 110.472487 
L 357.66997 108.527044 
L 358.297929 107.843172 
L 358.925887 107.640598 
L 360.181804 107.733802 
L 360.809763 106.971142 
L 361.437721 106.845941 
L 362.06568 106.501893 
L 362.693638 106.541024 
L 363.321597 106.465343 
L 363.949555 106.757364 
L 365.205472 106.758031 
L 365.833431 107.071181 
L 367.089348 104.953417 
L 367.717306 103.380635 
L 368.345265 99.056168 
L 368.973223 98.163084 
L 369.601182 96.64566 
L 370.22914 94.676317 
L 370.857099 95.52928 
L 371.485057 97.393067 
L 372.113016 98.444486 
L 372.740974 101.558454 
L 375.252808 121.059282 
L 375.880767 122.25603 
L 376.508725 122.581036 
L 377.136684 123.364467 
L 377.764642 124.618267 
L 379.648518 124.59106 
L 380.276476 123.180948 
L 380.904435 122.520206 
L 381.532393 120.161622 
L 382.160352 118.497642 
L 382.78831 117.397487 
L 383.416269 117.990664 
L 384.044227 118.232799 
L 384.672186 118.24863 
L 385.300144 117.762876 
L 385.928103 119.415034 
L 386.556061 120.54837 
L 387.18402 120.791457 
L 387.811978 123.242168 
L 388.439937 128.441465 
L 389.695854 143.228411 
L 390.323812 155.570255 
L 390.951771 161.984117 
L 392.835646 184.948501 
L 393.463605 189.271057 
L 394.091563 192.433498 
L 394.719522 194.523205 
L 395.34748 195.872375 
L 395.975439 196.817958 
L 396.603397 197.103408 
L 397.231356 196.494161 
L 397.859314 192.241336 
L 398.487273 191.787582 
L 398.487273 191.787582 
" style="fill:none;stroke:#ff7f0e;stroke-linecap:square;stroke-width:1.5;"/>
   </g>
   <g id="line2d_18">
    <path clip-path="url(#p1c113599f5)" d="M 85.763939 278.636564 
L 87.647814 277.802269 
L 89.53169 277.238241 
L 90.159648 277.094552 
L 93.927399 275.563554 
L 95.811275 275.221415 
L 97.69515 274.646297 
L 100.834943 273.091694 
L 101.462901 272.698879 
L 102.718818 272.244524 
L 106.486569 271.81185 
L 107.742486 271.589591 
L 108.370445 271.649238 
L 110.25432 272.267681 
L 112.766154 273.410836 
L 114.022071 273.949464 
L 115.277988 274.29655 
L 117.789822 275.707853 
L 119.673698 278.347671 
L 121.557573 280.677382 
L 122.185532 281.333194 
L 127.837158 285.573188 
L 130.348992 286.908915 
L 131.604909 286.337094 
L 134.116743 285.019351 
L 135.37266 284.456395 
L 137.256536 283.909584 
L 139.140411 283.772586 
L 139.76837 283.788522 
L 141.024287 283.490734 
L 141.652245 283.223518 
L 142.908162 283.002766 
L 144.164079 282.901893 
L 146.675913 282.417361 
L 147.93183 282.226515 
L 149.187747 281.595518 
L 151.699582 280.019631 
L 155.467333 277.243912 
L 157.979167 275.780914 
L 161.118959 274.170771 
L 161.746918 274.000273 
L 164.258752 273.899913 
L 165.514669 273.991161 
L 166.770586 274.190106 
L 167.398544 274.216611 
L 169.910378 273.559377 
L 170.538337 273.585342 
L 171.794254 273.445705 
L 174.306088 273.386535 
L 174.934046 273.227939 
L 176.189963 273.149941 
L 178.073839 272.805486 
L 179.329756 272.76141 
L 181.213631 272.860267 
L 181.84159 273.035226 
L 183.097507 273.015342 
L 186.865258 273.663696 
L 187.493216 273.807542 
L 188.749133 273.891483 
L 191.260967 274.112159 
L 193.772801 274.167438 
L 195.028718 274.247629 
L 196.284635 274.332239 
L 200.052386 274.297663 
L 201.308303 274.18339 
L 203.820137 273.759314 
L 206.95993 271.996551 
L 208.215847 271.152022 
L 210.099722 269.870137 
L 213.239515 267.403244 
L 215.12339 266.224261 
L 216.379307 265.450469 
L 219.5191 264.621226 
L 220.147058 264.672917 
L 222.030934 264.361733 
L 224.542768 264.609908 
L 226.426643 264.633319 
L 227.054602 264.562681 
L 227.68256 264.633027 
L 233.962145 267.602117 
L 234.590104 267.880693 
L 239.613772 268.990343 
L 240.24173 269.159921 
L 241.497647 269.096302 
L 245.893357 268.475177 
L 248.405191 268.407412 
L 250.289066 268.528098 
L 251.544983 268.464193 
L 255.312734 267.449796 
L 257.19661 266.998525 
L 257.824568 266.778383 
L 259.708444 265.427418 
L 267.243946 259.74366 
L 269.127821 257.456434 
L 270.383738 256.057119 
L 271.639655 255.035999 
L 273.523531 253.166815 
L 274.779448 252.014286 
L 277.91924 247.594672 
L 279.803116 244.833254 
L 280.431074 244.21817 
L 281.059033 243.907388 
L 282.942908 242.469232 
L 283.570867 241.61827 
L 287.338618 238.207495 
L 287.966576 237.912272 
L 289.222493 237.660125 
L 290.47841 237.87113 
L 292.990244 237.480441 
L 293.618203 236.673509 
L 295.502078 233.435191 
L 296.757995 231.92638 
L 299.269829 228.232693 
L 300.525746 225.489515 
L 301.781663 222.089725 
L 303.665539 215.856989 
L 306.805331 203.070655 
L 309.317165 190.371019 
L 311.201041 183.355685 
L 311.828999 180.546256 
L 313.084916 176.623426 
L 314.968792 171.731516 
L 315.59675 170.462343 
L 316.852667 170.000114 
L 317.480626 170.138297 
L 318.108584 170.084172 
L 318.736543 170.404749 
L 319.364501 171.245595 
L 319.99246 173.008145 
L 321.248377 175.555325 
L 321.876336 176.306279 
L 322.504294 176.758432 
L 323.132253 176.847682 
L 324.38817 177.500021 
L 325.016128 177.457554 
L 325.644087 177.027979 
L 326.272045 176.359098 
L 326.900004 175.920915 
L 328.155921 171.752906 
L 330.039796 163.130013 
L 331.923672 154.030959 
L 334.435506 139.171651 
L 336.319381 126.475448 
L 338.203257 120.072737 
L 339.459174 117.250182 
L 340.087132 117.479003 
L 341.971008 115.667921 
L 343.854883 115.111036 
L 345.738759 113.394616 
L 346.366717 112.558693 
L 347.622634 111.935175 
L 348.250593 111.245467 
L 348.878551 110.286454 
L 350.134468 107.563322 
L 352.646302 98.256139 
L 353.274261 96.73904 
L 353.902219 95.631725 
L 355.158136 94.062215 
L 355.786095 93.54656 
L 356.414053 92.330531 
L 357.042012 91.371166 
L 358.297929 90.166242 
L 358.925887 89.588064 
L 360.181804 89.113132 
L 361.437721 89.871489 
L 362.693638 88.99032 
L 363.321597 89.14932 
L 363.949555 89.484134 
L 365.205472 89.485673 
L 365.833431 89.041099 
L 367.089348 86.878304 
L 368.345265 82.497171 
L 368.973223 80.919882 
L 369.601182 79.836545 
L 370.22914 78.994304 
L 370.857099 79.239901 
L 371.485057 79.862242 
L 372.113016 80.302974 
L 372.740974 81.246935 
L 374.62485 85.393162 
L 375.252808 87.313641 
L 375.880767 88.08055 
L 376.508725 88.269521 
L 377.136684 88.897258 
L 377.764642 89.797109 
L 379.020559 90.600234 
L 379.648518 91.224004 
L 380.276476 92.455138 
L 380.904435 94.333945 
L 382.160352 96.437882 
L 382.78831 96.996239 
L 384.044227 95.973906 
L 384.672186 96.087217 
L 385.300144 95.524647 
L 386.556061 96.196415 
L 387.18402 96.252326 
L 387.811978 96.701003 
L 388.439937 98.169633 
L 389.695854 102.736854 
L 390.951771 109.351219 
L 392.835646 121.38693 
L 393.463605 124.207429 
L 395.975439 139.397324 
L 397.231356 147.932615 
L 397.859314 151.725713 
L 398.487273 154.256666 
L 398.487273 154.256666 
" style="fill:none;stroke:#2ca02c;stroke-linecap:square;stroke-width:1.5;"/>
   </g>
   <g id="line2d_19">
    <path clip-path="url(#p1c113599f5)" d="M 73.832727 282.168345 
L 74.460686 283.046175 
L 75.088644 281.579991 
L 76.344561 281.521196 
L 77.600478 278.394811 
L 78.228437 278.821972 
L 78.856395 279.727166 
L 79.484354 278.287359 
L 80.112312 278.934574 
L 80.740271 278.32478 
L 81.368229 278.613329 
L 81.996188 275.873498 
L 82.624146 275.866535 
L 83.252105 276.229622 
L 83.880063 275.514922 
L 84.508022 275.490592 
L 85.13598 276.29745 
L 85.763939 276.548355 
L 86.391897 276.189566 
L 87.019856 276.449692 
L 87.647814 277.469356 
L 88.275773 277.321825 
L 88.903731 277.713538 
L 90.159648 275.521025 
L 90.787607 273.61329 
L 91.415565 273.993711 
L 92.043524 273.181368 
L 92.671482 273.839747 
L 93.299441 273.632838 
L 94.555358 273.971343 
L 95.183316 274.422869 
L 95.811275 272.732655 
L 96.439233 272.185192 
L 97.69515 271.643916 
L 98.323109 270.637384 
L 98.951067 271.780038 
L 99.579026 270.265702 
L 100.206984 269.882477 
L 100.834943 270.32113 
L 101.462901 269.857238 
L 102.09086 271.599676 
L 102.718818 271.530123 
L 103.346777 272.385413 
L 103.974735 270.535212 
L 104.602694 272.755262 
L 105.230652 272.736619 
L 105.858611 272.470703 
L 106.486569 272.552536 
L 107.114528 271.373655 
L 108.370445 273.925587 
L 108.998403 275.939095 
L 109.626362 275.908866 
L 110.25432 276.321521 
L 110.882279 276.932694 
L 111.510237 276.946566 
L 112.138196 275.466397 
L 112.766154 276.083047 
L 113.394113 276.019154 
L 114.022071 274.931768 
L 114.65003 274.585673 
L 115.277988 275.485842 
L 115.905947 278.857287 
L 116.533905 279.259827 
L 117.161864 279.313912 
L 117.789822 279.207536 
L 118.417781 291.129198 
L 119.045739 288.140423 
L 119.673698 289.923642 
L 120.301656 289.283158 
L 120.929615 290.490452 
L 121.557573 289.260673 
L 122.185532 289.0251 
L 122.81349 285.872598 
L 123.441449 286.00298 
L 124.069407 285.999787 
L 124.697366 287.455651 
L 125.325324 284.896498 
L 125.953283 283.834917 
L 126.581241 284.144689 
L 127.2092 283.981824 
L 127.837158 285.383603 
L 128.465117 285.796883 
L 129.093075 287.239144 
L 129.721034 285.164818 
L 130.348992 285.152269 
L 130.976951 284.215335 
L 131.604909 283.617864 
L 132.232868 283.877053 
L 132.860826 283.399168 
L 133.488785 283.754572 
L 134.116743 281.57227 
L 134.744702 282.171696 
L 135.37266 281.466877 
L 136.000619 281.793279 
L 136.628577 283.398407 
L 137.884494 283.245111 
L 138.512453 283.470332 
L 139.140411 283.42071 
L 139.76837 284.300541 
L 140.396328 282.449835 
L 141.024287 282.774891 
L 141.652245 281.894815 
L 142.280204 282.391302 
L 142.908162 283.510739 
L 143.536121 283.449461 
L 144.164079 282.366289 
L 144.792038 281.005624 
L 145.419996 280.953577 
L 146.047955 280.77451 
L 146.675913 280.178719 
L 147.303872 279.856648 
L 147.93183 279.964992 
L 148.559789 275.993357 
L 149.187747 276.578391 
L 150.443664 275.147673 
L 151.071623 275.426305 
L 151.699582 275.557458 
L 152.955499 274.481951 
L 153.583457 271.284512 
L 154.211416 271.999897 
L 154.839374 272.955484 
L 155.467333 276.095566 
L 156.095291 276.735614 
L 156.72325 275.848605 
L 157.979167 272.04255 
L 158.607125 273.929961 
L 159.235084 273.632477 
L 159.863042 272.525242 
L 160.491001 272.381559 
L 161.118959 272.096121 
L 161.746918 273.168441 
L 162.374876 274.871582 
L 163.002835 274.430602 
L 163.630793 274.429015 
L 164.258752 276.210515 
L 164.88671 275.506299 
L 165.514669 275.790939 
L 166.770586 272.933105 
L 167.398544 273.485581 
L 168.026503 272.429128 
L 168.654461 273.386788 
L 169.28242 270.510312 
L 169.910378 273.097101 
L 171.166295 272.105142 
L 171.794254 272.664565 
L 172.422212 272.504915 
L 173.050171 272.227286 
L 173.678129 272.121869 
L 174.306088 272.13389 
L 174.934046 271.699659 
L 175.562005 274.019598 
L 176.189963 273.280056 
L 176.817922 273.283094 
L 177.44588 273.828081 
L 178.073839 273.507487 
L 178.701797 273.042264 
L 180.585673 273.930831 
L 181.213631 273.739566 
L 181.84159 274.00949 
L 182.469548 272.527317 
L 183.097507 272.733952 
L 183.725465 273.932466 
L 184.981382 274.491331 
L 185.609341 275.079415 
L 186.237299 274.666157 
L 186.865258 274.401772 
L 187.493216 274.57657 
L 188.121175 274.231998 
L 188.749133 274.746489 
L 189.377092 274.867052 
L 190.00505 274.580646 
L 190.633009 274.806808 
L 191.260967 273.819939 
L 191.888926 274.097527 
L 192.516884 273.466231 
L 193.144843 274.151381 
L 193.772801 274.008612 
L 194.40076 274.188568 
L 195.028718 273.95206 
L 195.656677 274.189853 
L 196.284635 274.168775 
L 197.540552 274.564194 
L 198.796469 274.432996 
L 199.424428 274.287191 
L 200.052386 274.48603 
L 200.680345 273.643809 
L 201.308303 273.049226 
L 201.936262 272.750454 
L 202.56422 273.017517 
L 203.192179 272.35304 
L 203.820137 271.471906 
L 204.448096 267.306445 
L 205.076054 267.580508 
L 205.704013 266.944379 
L 206.331971 266.960995 
L 206.95993 265.86473 
L 207.587888 264.175329 
L 208.215847 267.076011 
L 208.843805 266.391987 
L 209.471764 266.617402 
L 210.099722 264.45844 
L 210.727681 264.325269 
L 211.355639 264.910404 
L 211.983598 264.330254 
L 212.611556 264.649053 
L 213.239515 263.83153 
L 213.867473 265.797556 
L 214.495432 265.141005 
L 215.12339 264.298982 
L 215.751349 264.358916 
L 216.379307 263.990193 
L 217.007266 263.785298 
L 217.635224 262.330562 
L 218.263183 263.693248 
L 218.891141 264.250228 
L 219.5191 264.012861 
L 220.147058 265.209133 
L 220.775017 264.706849 
L 221.402975 264.792205 
L 222.030934 264.362671 
L 222.658892 266.0619 
L 223.286851 265.53736 
L 223.914809 266.02088 
L 224.542768 265.367732 
L 225.170726 265.44843 
L 225.798685 264.549054 
L 226.426643 264.748883 
L 227.054602 263.728227 
L 227.68256 265.705909 
L 228.310519 270.519512 
L 228.938477 269.38233 
L 229.566436 270.560126 
L 230.822353 269.737254 
L 231.450311 270.693674 
L 232.07827 270.352507 
L 232.706228 269.876608 
L 233.962145 269.491911 
L 234.590104 269.934185 
L 235.218062 268.624951 
L 235.846021 268.163522 
L 236.473979 267.497454 
L 237.101938 267.596159 
L 237.729896 267.571001 
L 238.357855 267.012798 
L 238.985813 267.646071 
L 239.613772 269.543512 
L 240.24173 269.097467 
L 240.869689 270.259107 
L 241.497647 268.370347 
L 242.125606 268.514122 
L 243.381523 268.207438 
L 244.009481 268.557874 
L 244.63744 267.996058 
L 245.265398 268.206767 
L 245.893357 268.823984 
L 247.149274 269.072683 
L 248.405191 268.203056 
L 249.033149 268.819703 
L 249.661108 268.635597 
L 250.289066 267.623031 
L 250.917025 267.180342 
L 251.544983 266.200428 
L 252.172942 265.885314 
L 252.8009 265.268733 
L 253.428859 265.613187 
L 254.056817 265.703014 
L 254.684776 265.333844 
L 255.312734 266.081348 
L 255.940693 265.923311 
L 256.568651 265.357909 
L 257.19661 264.454732 
L 257.824568 263.803922 
L 258.452527 260.387638 
L 259.080485 259.603781 
L 259.708444 259.870692 
L 260.336402 259.111375 
L 260.964361 259.424397 
L 261.592319 259.262162 
L 262.220278 256.953888 
L 262.848236 258.444508 
L 263.476195 257.708742 
L 264.104153 257.350879 
L 264.732112 256.438717 
L 265.36007 256.578548 
L 265.988029 257.359767 
L 266.615987 255.707513 
L 267.243946 255.049364 
L 267.871904 249.624414 
L 268.499863 249.545877 
L 269.127821 252.447773 
L 269.75578 249.935644 
L 270.383738 250.336699 
L 271.011697 250.571574 
L 271.639655 248.997448 
L 272.267614 246.755542 
L 272.895572 246.676468 
L 273.523531 247.590779 
L 274.151489 248.031957 
L 274.779448 245.133517 
L 275.407406 241.417567 
L 276.035365 240.966266 
L 276.663323 240.83118 
L 277.291282 237.502321 
L 277.91924 237.411773 
L 278.547199 238.505905 
L 279.175157 238.594936 
L 279.803116 235.787449 
L 280.431074 237.32272 
L 281.059033 243.330241 
L 281.686991 243.466916 
L 282.31495 241.117974 
L 282.942908 239.372113 
L 283.570867 233.552328 
L 284.198825 237.177125 
L 284.826784 235.37466 
L 285.454742 234.580715 
L 286.082701 237.478093 
L 286.710659 235.615936 
L 287.338618 234.743677 
L 287.966576 235.513116 
L 288.594535 238.83271 
L 289.222493 237.921793 
L 289.850452 239.217138 
L 290.47841 239.917047 
L 291.106369 236.954534 
L 291.734327 235.660346 
L 292.362286 235.199558 
L 292.990244 234.582809 
L 293.618203 227.1916 
L 294.246161 221.556013 
L 294.87412 220.163944 
L 295.502078 217.470687 
L 296.130037 218.787597 
L 296.757995 221.765637 
L 297.385954 217.430046 
L 298.013912 219.773804 
L 298.641871 217.863941 
L 299.269829 214.107858 
L 299.897788 207.324175 
L 300.525746 208.069068 
L 301.153705 204.931079 
L 301.781663 203.827625 
L 302.409622 198.028096 
L 303.03758 197.434154 
L 303.665539 195.971734 
L 304.293497 185.245074 
L 304.921456 182.493579 
L 305.549414 185.638228 
L 306.177373 178.121113 
L 307.43329 156.433804 
L 308.061248 152.115125 
L 308.689207 153.962576 
L 309.317165 161.683633 
L 309.945124 172.213364 
L 310.573082 177.835942 
L 311.201041 164.711796 
L 311.828999 157.919291 
L 312.456958 166.925425 
L 313.084916 170.011219 
L 313.712875 170.779154 
L 314.340833 167.716329 
L 314.968792 170.453114 
L 315.59675 172.0507 
L 316.224709 190.251618 
L 316.852667 181.720596 
L 317.480626 185.257246 
L 318.108584 184.555722 
L 318.736543 184.532647 
L 319.364501 183.782602 
L 319.99246 191.684809 
L 320.620418 180.140794 
L 321.248377 176.880493 
L 321.876336 176.702719 
L 322.504294 181.256414 
L 323.132253 179.620949 
L 324.38817 163.712696 
L 325.016128 166.07609 
L 326.272045 157.401535 
L 326.900004 158.952676 
L 327.527962 129.656101 
L 328.155921 129.487531 
L 328.783879 135.619253 
L 329.411838 123.487493 
L 330.039796 125.664853 
L 330.667755 126.408053 
L 331.295713 120.830861 
L 331.923672 123.650983 
L 332.55163 118.647282 
L 333.179589 107.19914 
L 333.807547 109.621072 
L 334.435506 92.755151 
L 335.063464 92.591253 
L 335.691423 86.591919 
L 336.319381 99.735295 
L 336.94734 119.817678 
L 337.575298 116.630255 
L 338.203257 126.70635 
L 338.831215 129.573873 
L 339.459174 130.329236 
L 340.087132 134.232528 
L 340.715091 116.906059 
L 341.343049 121.565295 
L 341.971008 113.901292 
L 342.598966 121.507108 
L 343.226925 120.198163 
L 343.854883 120.060776 
L 344.482842 112.01918 
L 345.1108 106.186615 
L 345.738759 96.963211 
L 346.366717 92.902623 
L 346.994676 85.567236 
L 347.622634 87.308804 
L 348.250593 72.797762 
L 348.878551 80.555042 
L 349.50651 93.278843 
L 350.134468 88.706447 
L 350.762427 81.368647 
L 351.390385 85.443603 
L 352.018344 84.144578 
L 352.646302 83.741492 
L 353.274261 86.564076 
L 353.902219 99.419001 
L 354.530178 97.930511 
L 355.158136 106.087688 
L 355.786095 109.885064 
L 356.414053 95.740192 
L 357.042012 92.831878 
L 357.66997 93.001109 
L 358.297929 86.050245 
L 358.925887 81.339056 
L 360.181804 81.832479 
L 360.809763 80.689908 
L 361.437721 87.830037 
L 362.06568 83.715557 
L 362.693638 80.646349 
L 363.321597 84.548658 
L 363.949555 92.139886 
L 364.577514 84.331753 
L 365.205472 83.585089 
L 365.833431 77.672595 
L 366.461389 76.677327 
L 367.089348 77.416294 
L 367.717306 63.199713 
L 368.345265 65.150373 
L 368.973223 64.194422 
L 369.601182 71.165135 
L 370.22914 76.156291 
L 370.857099 90.962169 
L 371.485057 93.785893 
L 372.113016 90.359544 
L 372.740974 100.711708 
L 373.368933 108.764429 
L 373.996891 111.293639 
L 375.252808 119.055938 
L 375.880767 99.886829 
L 376.508725 95.919317 
L 377.136684 96.88649 
L 377.764642 101.582114 
L 378.392601 85.184842 
L 379.020559 85.227582 
L 379.648518 89.891692 
L 380.276476 87.822395 
L 380.904435 102.726498 
L 381.532393 86.662423 
L 382.160352 90.775882 
L 382.78831 87.323434 
L 383.416269 80.873086 
L 384.044227 83.428313 
L 384.672186 92.625758 
L 385.300144 89.460307 
L 385.928103 116.752045 
L 386.556061 116.741398 
L 387.18402 116.220171 
L 387.811978 128.029476 
L 388.439937 129.259432 
L 389.067895 140.727122 
L 389.695854 143.423105 
L 390.323812 166.764061 
L 390.951771 152.290203 
L 391.579729 164.555476 
L 392.207688 164.177698 
L 392.835646 174.922717 
L 393.463605 159.13647 
L 394.091563 160.906911 
L 394.719522 157.143484 
L 395.34748 160.208633 
L 395.975439 171.173696 
L 396.603397 175.341395 
L 397.231356 171.418503 
L 397.859314 165.322258 
L 398.487273 167.371101 
L 398.487273 167.371101 
" style="fill:none;stroke:#d62728;stroke-linecap:square;stroke-width:1.5;"/>
   </g>
   <g id="patch_3">
    <path d="M 57.6 307.584 
L 57.6 41.472 
" style="fill:none;stroke:#000000;stroke-linecap:square;stroke-linejoin:miter;stroke-width:0.8;"/>
   </g>
   <g id="patch_4">
    <path d="M 414.72 307.584 
L 414.72 41.472 
" style="fill:none;stroke:#000000;stroke-linecap:square;stroke-linejoin:miter;stroke-width:0.8;"/>
   </g>
   <g id="patch_5">
    <path d="M 57.6 307.584 
L 414.72 307.584 
" style="fill:none;stroke:#000000;stroke-linecap:square;stroke-linejoin:miter;stroke-width:0.8;"/>
   </g>
   <g id="patch_6">
    <path d="M 57.6 41.472 
L 414.72 41.472 
" style="fill:none;stroke:#000000;stroke-linecap:square;stroke-linejoin:miter;stroke-width:0.8;"/>
   </g>
   <g id="text_16">
    <!-- Data source: nomics -->
    <g transform="translate(184.91625 35.472)scale(0.1 -0.1)">
     <defs>
      <path d="M 19.671875 64.796875 
L 19.671875 8.109375 
L 31.59375 8.109375 
Q 46.6875 8.109375 53.6875 14.9375 
Q 60.6875 21.78125 60.6875 36.53125 
Q 60.6875 51.171875 53.6875 57.984375 
Q 46.6875 64.796875 31.59375 64.796875 
z
M 9.8125 72.90625 
L 30.078125 72.90625 
Q 51.265625 72.90625 61.171875 64.09375 
Q 71.09375 55.28125 71.09375 36.53125 
Q 71.09375 17.671875 61.125 8.828125 
Q 51.171875 0 30.078125 0 
L 9.8125 0 
z
" id="DejaVuSans-68"/>
      <path d="M 34.28125 27.484375 
Q 23.390625 27.484375 19.1875 25 
Q 14.984375 22.515625 14.984375 16.5 
Q 14.984375 11.71875 18.140625 8.90625 
Q 21.296875 6.109375 26.703125 6.109375 
Q 34.1875 6.109375 38.703125 11.40625 
Q 43.21875 16.703125 43.21875 25.484375 
L 43.21875 27.484375 
z
M 52.203125 31.203125 
L 52.203125 0 
L 43.21875 0 
L 43.21875 8.296875 
Q 40.140625 3.328125 35.546875 0.953125 
Q 30.953125 -1.421875 24.3125 -1.421875 
Q 15.921875 -1.421875 10.953125 3.296875 
Q 6 8.015625 6 15.921875 
Q 6 25.140625 12.171875 29.828125 
Q 18.359375 34.515625 30.609375 34.515625 
L 43.21875 34.515625 
L 43.21875 35.40625 
Q 43.21875 41.609375 39.140625 45 
Q 35.0625 48.390625 27.6875 48.390625 
Q 23 48.390625 18.546875 47.265625 
Q 14.109375 46.140625 10.015625 43.890625 
L 10.015625 52.203125 
Q 14.9375 54.109375 19.578125 55.046875 
Q 24.21875 56 28.609375 56 
Q 40.484375 56 46.34375 49.84375 
Q 52.203125 43.703125 52.203125 31.203125 
z
" id="DejaVuSans-97"/>
      <path d="M 18.3125 70.21875 
L 18.3125 54.6875 
L 36.8125 54.6875 
L 36.8125 47.703125 
L 18.3125 47.703125 
L 18.3125 18.015625 
Q 18.3125 11.328125 20.140625 9.421875 
Q 21.96875 7.515625 27.59375 7.515625 
L 36.8125 7.515625 
L 36.8125 0 
L 27.59375 0 
Q 17.1875 0 13.234375 3.875 
Q 9.28125 7.765625 9.28125 18.015625 
L 9.28125 47.703125 
L 2.6875 47.703125 
L 2.6875 54.6875 
L 9.28125 54.6875 
L 9.28125 70.21875 
z
" id="DejaVuSans-116"/>
      <path id="DejaVuSans-32"/>
      <path d="M 44.28125 53.078125 
L 44.28125 44.578125 
Q 40.484375 46.53125 36.375 47.5 
Q 32.28125 48.484375 27.875 48.484375 
Q 21.1875 48.484375 17.84375 46.4375 
Q 14.5 44.390625 14.5 40.28125 
Q 14.5 37.15625 16.890625 35.375 
Q 19.28125 33.59375 26.515625 31.984375 
L 29.59375 31.296875 
Q 39.15625 29.25 43.1875 25.515625 
Q 47.21875 21.78125 47.21875 15.09375 
Q 47.21875 7.46875 41.1875 3.015625 
Q 35.15625 -1.421875 24.609375 -1.421875 
Q 20.21875 -1.421875 15.453125 -0.5625 
Q 10.6875 0.296875 5.421875 2 
L 5.421875 11.28125 
Q 10.40625 8.6875 15.234375 7.390625 
Q 20.0625 6.109375 24.8125 6.109375 
Q 31.15625 6.109375 34.5625 8.28125 
Q 37.984375 10.453125 37.984375 14.40625 
Q 37.984375 18.0625 35.515625 20.015625 
Q 33.0625 21.96875 24.703125 23.78125 
L 21.578125 24.515625 
Q 13.234375 26.265625 9.515625 29.90625 
Q 5.8125 33.546875 5.8125 39.890625 
Q 5.8125 47.609375 11.28125 51.796875 
Q 16.75 56 26.8125 56 
Q 31.78125 56 36.171875 55.265625 
Q 40.578125 54.546875 44.28125 53.078125 
z
" id="DejaVuSans-115"/>
      <path d="M 30.609375 48.390625 
Q 23.390625 48.390625 19.1875 42.75 
Q 14.984375 37.109375 14.984375 27.296875 
Q 14.984375 17.484375 19.15625 11.84375 
Q 23.34375 6.203125 30.609375 6.203125 
Q 37.796875 6.203125 41.984375 11.859375 
Q 46.1875 17.53125 46.1875 27.296875 
Q 46.1875 37.015625 41.984375 42.703125 
Q 37.796875 48.390625 30.609375 48.390625 
z
M 30.609375 56 
Q 42.328125 56 49.015625 48.375 
Q 55.71875 40.765625 55.71875 27.296875 
Q 55.71875 13.875 49.015625 6.21875 
Q 42.328125 -1.421875 30.609375 -1.421875 
Q 18.84375 -1.421875 12.171875 6.21875 
Q 5.515625 13.875 5.515625 27.296875 
Q 5.515625 40.765625 12.171875 48.375 
Q 18.84375 56 30.609375 56 
z
" id="DejaVuSans-111"/>
      <path d="M 8.5 21.578125 
L 8.5 54.6875 
L 17.484375 54.6875 
L 17.484375 21.921875 
Q 17.484375 14.15625 20.5 10.265625 
Q 23.53125 6.390625 29.59375 6.390625 
Q 36.859375 6.390625 41.078125 11.03125 
Q 45.3125 15.671875 45.3125 23.6875 
L 45.3125 54.6875 
L 54.296875 54.6875 
L 54.296875 0 
L 45.3125 0 
L 45.3125 8.40625 
Q 42.046875 3.421875 37.71875 1 
Q 33.40625 -1.421875 27.6875 -1.421875 
Q 18.265625 -1.421875 13.375 4.4375 
Q 8.5 10.296875 8.5 21.578125 
z
M 31.109375 56 
z
" id="DejaVuSans-117"/>
      <path d="M 41.109375 46.296875 
Q 39.59375 47.171875 37.8125 47.578125 
Q 36.03125 48 33.890625 48 
Q 26.265625 48 22.1875 43.046875 
Q 18.109375 38.09375 18.109375 28.8125 
L 18.109375 0 
L 9.078125 0 
L 9.078125 54.6875 
L 18.109375 54.6875 
L 18.109375 46.1875 
Q 20.953125 51.171875 25.484375 53.578125 
Q 30.03125 56 36.53125 56 
Q 37.453125 56 38.578125 55.875 
Q 39.703125 55.765625 41.0625 55.515625 
z
" id="DejaVuSans-114"/>
      <path d="M 48.78125 52.59375 
L 48.78125 44.1875 
Q 44.96875 46.296875 41.140625 47.34375 
Q 37.3125 48.390625 33.40625 48.390625 
Q 24.65625 48.390625 19.8125 42.84375 
Q 14.984375 37.3125 14.984375 27.296875 
Q 14.984375 17.28125 19.8125 11.734375 
Q 24.65625 6.203125 33.40625 6.203125 
Q 37.3125 6.203125 41.140625 7.25 
Q 44.96875 8.296875 48.78125 10.40625 
L 48.78125 2.09375 
Q 45.015625 0.34375 40.984375 -0.53125 
Q 36.96875 -1.421875 32.421875 -1.421875 
Q 20.0625 -1.421875 12.78125 6.34375 
Q 5.515625 14.109375 5.515625 27.296875 
Q 5.515625 40.671875 12.859375 48.328125 
Q 20.21875 56 33.015625 56 
Q 37.15625 56 41.109375 55.140625 
Q 45.0625 54.296875 48.78125 52.59375 
z
" id="DejaVuSans-99"/>
      <path d="M 56.203125 29.59375 
L 56.203125 25.203125 
L 14.890625 25.203125 
Q 15.484375 15.921875 20.484375 11.0625 
Q 25.484375 6.203125 34.421875 6.203125 
Q 39.59375 6.203125 44.453125 7.46875 
Q 49.3125 8.734375 54.109375 11.28125 
L 54.109375 2.78125 
Q 49.265625 0.734375 44.1875 -0.34375 
Q 39.109375 -1.421875 33.890625 -1.421875 
Q 20.796875 -1.421875 13.15625 6.1875 
Q 5.515625 13.8125 5.515625 26.8125 
Q 5.515625 40.234375 12.765625 48.109375 
Q 20.015625 56 32.328125 56 
Q 43.359375 56 49.78125 48.890625 
Q 56.203125 41.796875 56.203125 29.59375 
z
M 47.21875 32.234375 
Q 47.125 39.59375 43.09375 43.984375 
Q 39.0625 48.390625 32.421875 48.390625 
Q 24.90625 48.390625 20.390625 44.140625 
Q 15.875 39.890625 15.1875 32.171875 
z
" id="DejaVuSans-101"/>
      <path d="M 11.71875 12.40625 
L 22.015625 12.40625 
L 22.015625 0 
L 11.71875 0 
z
M 11.71875 51.703125 
L 22.015625 51.703125 
L 22.015625 39.3125 
L 11.71875 39.3125 
z
" id="DejaVuSans-58"/>
      <path d="M 54.890625 33.015625 
L 54.890625 0 
L 45.90625 0 
L 45.90625 32.71875 
Q 45.90625 40.484375 42.875 44.328125 
Q 39.84375 48.1875 33.796875 48.1875 
Q 26.515625 48.1875 22.3125 43.546875 
Q 18.109375 38.921875 18.109375 30.90625 
L 18.109375 0 
L 9.078125 0 
L 9.078125 54.6875 
L 18.109375 54.6875 
L 18.109375 46.1875 
Q 21.34375 51.125 25.703125 53.5625 
Q 30.078125 56 35.796875 56 
Q 45.21875 56 50.046875 50.171875 
Q 54.890625 44.34375 54.890625 33.015625 
z
" id="DejaVuSans-110"/>
      <path d="M 52 44.1875 
Q 55.375 50.25 60.0625 53.125 
Q 64.75 56 71.09375 56 
Q 79.640625 56 84.28125 50.015625 
Q 88.921875 44.046875 88.921875 33.015625 
L 88.921875 0 
L 79.890625 0 
L 79.890625 32.71875 
Q 79.890625 40.578125 77.09375 44.375 
Q 74.3125 48.1875 68.609375 48.1875 
Q 61.625 48.1875 57.5625 43.546875 
Q 53.515625 38.921875 53.515625 30.90625 
L 53.515625 0 
L 44.484375 0 
L 44.484375 32.71875 
Q 44.484375 40.625 41.703125 44.40625 
Q 38.921875 48.1875 33.109375 48.1875 
Q 26.21875 48.1875 22.15625 43.53125 
Q 18.109375 38.875 18.109375 30.90625 
L 18.109375 0 
L 9.078125 0 
L 9.078125 54.6875 
L 18.109375 54.6875 
L 18.109375 46.1875 
Q 21.1875 51.21875 25.484375 53.609375 
Q 29.78125 56 35.6875 56 
Q 41.65625 56 45.828125 52.96875 
Q 50 49.953125 52 44.1875 
z
" id="DejaVuSans-109"/>
      <path d="M 9.421875 54.6875 
L 18.40625 54.6875 
L 18.40625 0 
L 9.421875 0 
z
M 9.421875 75.984375 
L 18.40625 75.984375 
L 18.40625 64.59375 
L 9.421875 64.59375 
z
" id="DejaVuSans-105"/>
     </defs>
     <use xlink:href="#DejaVuSans-68"/>
     <use x="77.001953" xlink:href="#DejaVuSans-97"/>
     <use x="138.28125" xlink:href="#DejaVuSans-116"/>
     <use x="177.490234" xlink:href="#DejaVuSans-97"/>
     <use x="238.769531" xlink:href="#DejaVuSans-32"/>
     <use x="270.556641" xlink:href="#DejaVuSans-115"/>
     <use x="322.65625" xlink:href="#DejaVuSans-111"/>
     <use x="383.837891" xlink:href="#DejaVuSans-117"/>
     <use x="447.216797" xlink:href="#DejaVuSans-114"/>
     <use x="486.080078" xlink:href="#DejaVuSans-99"/>
     <use x="541.060547" xlink:href="#DejaVuSans-101"/>
     <use x="602.583984" xlink:href="#DejaVuSans-58"/>
     <use x="636.275391" xlink:href="#DejaVuSans-32"/>
     <use x="668.0625" xlink:href="#DejaVuSans-110"/>
     <use x="731.441406" xlink:href="#DejaVuSans-111"/>
     <use x="792.623047" xlink:href="#DejaVuSans-109"/>
     <use x="890.035156" xlink:href="#DejaVuSans-105"/>
     <use x="917.818359" xlink:href="#DejaVuSans-99"/>
     <use x="972.798828" xlink:href="#DejaVuSans-115"/>
    </g>
   </g>
   <g id="legend_1">
    <g id="patch_7">
     <path d="M 64.6 108.1845 
L 155.732812 108.1845 
Q 157.732812 108.1845 157.732812 106.1845 
L 157.732812 48.472 
Q 157.732812 46.472 155.732812 46.472 
L 64.6 46.472 
Q 62.6 46.472 62.6 48.472 
L 62.6 106.1845 
Q 62.6 108.1845 64.6 108.1845 
z
" style="fill:#ffffff;opacity:0.8;stroke:#cccccc;stroke-linejoin:miter;"/>
    </g>
    <g id="line2d_20">
     <path d="M 66.6 54.570438 
L 86.6 54.570438 
" style="fill:none;stroke:#1f77b4;stroke-linecap:square;stroke-width:1.5;"/>
    </g>
    <g id="line2d_21"/>
    <g id="text_17">
     <!-- Upper Band -->
     <g transform="translate(94.6 58.070438)scale(0.1 -0.1)">
      <defs>
       <path d="M 8.6875 72.90625 
L 18.609375 72.90625 
L 18.609375 28.609375 
Q 18.609375 16.890625 22.84375 11.734375 
Q 27.09375 6.59375 36.625 6.59375 
Q 46.09375 6.59375 50.34375 11.734375 
Q 54.59375 16.890625 54.59375 28.609375 
L 54.59375 72.90625 
L 64.5 72.90625 
L 64.5 27.390625 
Q 64.5 13.140625 57.4375 5.859375 
Q 50.390625 -1.421875 36.625 -1.421875 
Q 22.796875 -1.421875 15.734375 5.859375 
Q 8.6875 13.140625 8.6875 27.390625 
z
" id="DejaVuSans-85"/>
       <path d="M 18.109375 8.203125 
L 18.109375 -20.796875 
L 9.078125 -20.796875 
L 9.078125 54.6875 
L 18.109375 54.6875 
L 18.109375 46.390625 
Q 20.953125 51.265625 25.265625 53.625 
Q 29.59375 56 35.59375 56 
Q 45.5625 56 51.78125 48.09375 
Q 58.015625 40.1875 58.015625 27.296875 
Q 58.015625 14.40625 51.78125 6.484375 
Q 45.5625 -1.421875 35.59375 -1.421875 
Q 29.59375 -1.421875 25.265625 0.953125 
Q 20.953125 3.328125 18.109375 8.203125 
z
M 48.6875 27.296875 
Q 48.6875 37.203125 44.609375 42.84375 
Q 40.53125 48.484375 33.40625 48.484375 
Q 26.265625 48.484375 22.1875 42.84375 
Q 18.109375 37.203125 18.109375 27.296875 
Q 18.109375 17.390625 22.1875 11.75 
Q 26.265625 6.109375 33.40625 6.109375 
Q 40.53125 6.109375 44.609375 11.75 
Q 48.6875 17.390625 48.6875 27.296875 
z
" id="DejaVuSans-112"/>
       <path d="M 19.671875 34.8125 
L 19.671875 8.109375 
L 35.5 8.109375 
Q 43.453125 8.109375 47.28125 11.40625 
Q 51.125 14.703125 51.125 21.484375 
Q 51.125 28.328125 47.28125 31.5625 
Q 43.453125 34.8125 35.5 34.8125 
z
M 19.671875 64.796875 
L 19.671875 42.828125 
L 34.28125 42.828125 
Q 41.5 42.828125 45.03125 45.53125 
Q 48.578125 48.25 48.578125 53.8125 
Q 48.578125 59.328125 45.03125 62.0625 
Q 41.5 64.796875 34.28125 64.796875 
z
M 9.8125 72.90625 
L 35.015625 72.90625 
Q 46.296875 72.90625 52.390625 68.21875 
Q 58.5 63.53125 58.5 54.890625 
Q 58.5 48.1875 55.375 44.234375 
Q 52.25 40.28125 46.1875 39.3125 
Q 53.46875 37.75 57.5 32.78125 
Q 61.53125 27.828125 61.53125 20.40625 
Q 61.53125 10.640625 54.890625 5.3125 
Q 48.25 0 35.984375 0 
L 9.8125 0 
z
" id="DejaVuSans-66"/>
       <path d="M 45.40625 46.390625 
L 45.40625 75.984375 
L 54.390625 75.984375 
L 54.390625 0 
L 45.40625 0 
L 45.40625 8.203125 
Q 42.578125 3.328125 38.25 0.953125 
Q 33.9375 -1.421875 27.875 -1.421875 
Q 17.96875 -1.421875 11.734375 6.484375 
Q 5.515625 14.40625 5.515625 27.296875 
Q 5.515625 40.1875 11.734375 48.09375 
Q 17.96875 56 27.875 56 
Q 33.9375 56 38.25 53.625 
Q 42.578125 51.265625 45.40625 46.390625 
z
M 14.796875 27.296875 
Q 14.796875 17.390625 18.875 11.75 
Q 22.953125 6.109375 30.078125 6.109375 
Q 37.203125 6.109375 41.296875 11.75 
Q 45.40625 17.390625 45.40625 27.296875 
Q 45.40625 37.203125 41.296875 42.84375 
Q 37.203125 48.484375 30.078125 48.484375 
Q 22.953125 48.484375 18.875 42.84375 
Q 14.796875 37.203125 14.796875 27.296875 
z
" id="DejaVuSans-100"/>
      </defs>
      <use xlink:href="#DejaVuSans-85"/>
      <use x="73.193359" xlink:href="#DejaVuSans-112"/>
      <use x="136.669922" xlink:href="#DejaVuSans-112"/>
      <use x="200.146484" xlink:href="#DejaVuSans-101"/>
      <use x="261.669922" xlink:href="#DejaVuSans-114"/>
      <use x="302.783203" xlink:href="#DejaVuSans-32"/>
      <use x="334.570312" xlink:href="#DejaVuSans-66"/>
      <use x="403.173828" xlink:href="#DejaVuSans-97"/>
      <use x="464.453125" xlink:href="#DejaVuSans-110"/>
      <use x="527.832031" xlink:href="#DejaVuSans-100"/>
     </g>
    </g>
    <g id="line2d_22">
     <path d="M 66.6 69.248563 
L 86.6 69.248563 
" style="fill:none;stroke:#ff7f0e;stroke-linecap:square;stroke-width:1.5;"/>
    </g>
    <g id="line2d_23"/>
    <g id="text_18">
     <!-- Lower Band -->
     <g transform="translate(94.6 72.748563)scale(0.1 -0.1)">
      <defs>
       <path d="M 9.8125 72.90625 
L 19.671875 72.90625 
L 19.671875 8.296875 
L 55.171875 8.296875 
L 55.171875 0 
L 9.8125 0 
z
" id="DejaVuSans-76"/>
       <path d="M 4.203125 54.6875 
L 13.1875 54.6875 
L 24.421875 12.015625 
L 35.59375 54.6875 
L 46.1875 54.6875 
L 57.421875 12.015625 
L 68.609375 54.6875 
L 77.59375 54.6875 
L 63.28125 0 
L 52.6875 0 
L 40.921875 44.828125 
L 29.109375 0 
L 18.5 0 
z
" id="DejaVuSans-119"/>
      </defs>
      <use xlink:href="#DejaVuSans-76"/>
      <use x="53.962891" xlink:href="#DejaVuSans-111"/>
      <use x="115.144531" xlink:href="#DejaVuSans-119"/>
      <use x="196.931641" xlink:href="#DejaVuSans-101"/>
      <use x="258.455078" xlink:href="#DejaVuSans-114"/>
      <use x="299.568359" xlink:href="#DejaVuSans-32"/>
      <use x="331.355469" xlink:href="#DejaVuSans-66"/>
      <use x="399.958984" xlink:href="#DejaVuSans-97"/>
      <use x="461.238281" xlink:href="#DejaVuSans-110"/>
      <use x="524.617188" xlink:href="#DejaVuSans-100"/>
     </g>
    </g>
    <g id="line2d_24">
     <path d="M 66.6 83.926688 
L 86.6 83.926688 
" style="fill:none;stroke:#2ca02c;stroke-linecap:square;stroke-width:1.5;"/>
    </g>
    <g id="line2d_25"/>
    <g id="text_19">
     <!-- MA -->
     <g transform="translate(94.6 87.426688)scale(0.1 -0.1)">
      <defs>
       <path d="M 9.8125 72.90625 
L 24.515625 72.90625 
L 43.109375 23.296875 
L 61.8125 72.90625 
L 76.515625 72.90625 
L 76.515625 0 
L 66.890625 0 
L 66.890625 64.015625 
L 48.09375 14.015625 
L 38.1875 14.015625 
L 19.390625 64.015625 
L 19.390625 0 
L 9.8125 0 
z
" id="DejaVuSans-77"/>
       <path d="M 34.1875 63.1875 
L 20.796875 26.90625 
L 47.609375 26.90625 
z
M 28.609375 72.90625 
L 39.796875 72.90625 
L 67.578125 0 
L 57.328125 0 
L 50.6875 18.703125 
L 17.828125 18.703125 
L 11.1875 0 
L 0.78125 0 
z
" id="DejaVuSans-65"/>
      </defs>
      <use xlink:href="#DejaVuSans-77"/>
      <use x="86.279297" xlink:href="#DejaVuSans-65"/>
     </g>
    </g>
    <g id="line2d_26">
     <path d="M 66.6 98.604813 
L 86.6 98.604813 
" style="fill:none;stroke:#d62728;stroke-linecap:square;stroke-width:1.5;"/>
    </g>
    <g id="line2d_27"/>
    <g id="text_20">
     <!-- BTC-USD -->
     <g transform="translate(94.6 102.104813)scale(0.1 -0.1)">
      <defs>
       <path d="M -0.296875 72.90625 
L 61.375 72.90625 
L 61.375 64.59375 
L 35.5 64.59375 
L 35.5 0 
L 25.59375 0 
L 25.59375 64.59375 
L -0.296875 64.59375 
z
" id="DejaVuSans-84"/>
       <path d="M 64.40625 67.28125 
L 64.40625 56.890625 
Q 59.421875 61.53125 53.78125 63.8125 
Q 48.140625 66.109375 41.796875 66.109375 
Q 29.296875 66.109375 22.65625 58.46875 
Q 16.015625 50.828125 16.015625 36.375 
Q 16.015625 21.96875 22.65625 14.328125 
Q 29.296875 6.6875 41.796875 6.6875 
Q 48.140625 6.6875 53.78125 8.984375 
Q 59.421875 11.28125 64.40625 15.921875 
L 64.40625 5.609375 
Q 59.234375 2.09375 53.4375 0.328125 
Q 47.65625 -1.421875 41.21875 -1.421875 
Q 24.65625 -1.421875 15.125 8.703125 
Q 5.609375 18.84375 5.609375 36.375 
Q 5.609375 53.953125 15.125 64.078125 
Q 24.65625 74.21875 41.21875 74.21875 
Q 47.75 74.21875 53.53125 72.484375 
Q 59.328125 70.75 64.40625 67.28125 
z
" id="DejaVuSans-67"/>
       <path d="M 53.515625 70.515625 
L 53.515625 60.890625 
Q 47.90625 63.578125 42.921875 64.890625 
Q 37.9375 66.21875 33.296875 66.21875 
Q 25.25 66.21875 20.875 63.09375 
Q 16.5 59.96875 16.5 54.203125 
Q 16.5 49.359375 19.40625 46.890625 
Q 22.3125 44.4375 30.421875 42.921875 
L 36.375 41.703125 
Q 47.40625 39.59375 52.65625 34.296875 
Q 57.90625 29 57.90625 20.125 
Q 57.90625 9.515625 50.796875 4.046875 
Q 43.703125 -1.421875 29.984375 -1.421875 
Q 24.8125 -1.421875 18.96875 -0.25 
Q 13.140625 0.921875 6.890625 3.21875 
L 6.890625 13.375 
Q 12.890625 10.015625 18.65625 8.296875 
Q 24.421875 6.59375 29.984375 6.59375 
Q 38.421875 6.59375 43.015625 9.90625 
Q 47.609375 13.234375 47.609375 19.390625 
Q 47.609375 24.75 44.3125 27.78125 
Q 41.015625 30.8125 33.5 32.328125 
L 27.484375 33.5 
Q 16.453125 35.6875 11.515625 40.375 
Q 6.59375 45.0625 6.59375 53.421875 
Q 6.59375 63.09375 13.40625 68.65625 
Q 20.21875 74.21875 32.171875 74.21875 
Q 37.3125 74.21875 42.625 73.28125 
Q 47.953125 72.359375 53.515625 70.515625 
z
" id="DejaVuSans-83"/>
      </defs>
      <use xlink:href="#DejaVuSans-66"/>
      <use x="68.603516" xlink:href="#DejaVuSans-84"/>
      <use x="123.8125" xlink:href="#DejaVuSans-67"/>
      <use x="193.636719" xlink:href="#DejaVuSans-45"/>
      <use x="229.720703" xlink:href="#DejaVuSans-85"/>
      <use x="302.914062" xlink:href="#DejaVuSans-83"/>
      <use x="366.390625" xlink:href="#DejaVuSans-68"/>
     </g>
    </g>
   </g>
  </g>
  <g id="text_21">
   <!-- Bollinger Band -->
   <g transform="translate(171.90625 19.0695)scale(0.16 -0.16)">
    <defs>
     <path d="M 9.421875 75.984375 
L 18.40625 75.984375 
L 18.40625 0 
L 9.421875 0 
z
" id="DejaVuSans-108"/>
     <path d="M 45.40625 27.984375 
Q 45.40625 37.75 41.375 43.109375 
Q 37.359375 48.484375 30.078125 48.484375 
Q 22.859375 48.484375 18.828125 43.109375 
Q 14.796875 37.75 14.796875 27.984375 
Q 14.796875 18.265625 18.828125 12.890625 
Q 22.859375 7.515625 30.078125 7.515625 
Q 37.359375 7.515625 41.375 12.890625 
Q 45.40625 18.265625 45.40625 27.984375 
z
M 54.390625 6.78125 
Q 54.390625 -7.171875 48.1875 -13.984375 
Q 42 -20.796875 29.203125 -20.796875 
Q 24.46875 -20.796875 20.265625 -20.09375 
Q 16.0625 -19.390625 12.109375 -17.921875 
L 12.109375 -9.1875 
Q 16.0625 -11.328125 19.921875 -12.34375 
Q 23.78125 -13.375 27.78125 -13.375 
Q 36.625 -13.375 41.015625 -8.765625 
Q 45.40625 -4.15625 45.40625 5.171875 
L 45.40625 9.625 
Q 42.625 4.78125 38.28125 2.390625 
Q 33.9375 0 27.875 0 
Q 17.828125 0 11.671875 7.65625 
Q 5.515625 15.328125 5.515625 27.984375 
Q 5.515625 40.671875 11.671875 48.328125 
Q 17.828125 56 27.875 56 
Q 33.9375 56 38.28125 53.609375 
Q 42.625 51.21875 45.40625 46.390625 
L 45.40625 54.6875 
L 54.390625 54.6875 
z
" id="DejaVuSans-103"/>
    </defs>
    <use xlink:href="#DejaVuSans-66"/>
    <use x="68.603516" xlink:href="#DejaVuSans-111"/>
    <use x="129.785156" xlink:href="#DejaVuSans-108"/>
    <use x="157.568359" xlink:href="#DejaVuSans-108"/>
    <use x="185.351562" xlink:href="#DejaVuSans-105"/>
    <use x="213.134766" xlink:href="#DejaVuSans-110"/>
    <use x="276.513672" xlink:href="#DejaVuSans-103"/>
    <use x="339.990234" xlink:href="#DejaVuSans-101"/>
    <use x="401.513672" xlink:href="#DejaVuSans-114"/>
    <use x="442.626953" xlink:href="#DejaVuSans-32"/>
    <use x="474.414062" xlink:href="#DejaVuSans-66"/>
    <use x="543.017578" xlink:href="#DejaVuSans-97"/>
    <use x="604.296875" xlink:href="#DejaVuSans-110"/>
    <use x="667.675781" xlink:href="#DejaVuSans-100"/>
   </g>
  </g>
 </g>
 <defs>
  <clipPath id="p1c113599f5">
   <rect height="266.112" width="357.12" x="57.6" y="41.472"/>
  </clipPath>
 </defs>
</svg>
