<?xml version="1.0" encoding="utf-8" standalone="no"?>
<!DOCTYPE svg PUBLIC "-//W3C//DTD SVG 1.1//EN"
  "http://www.w3.org/Graphics/SVG/1.1/DTD/svg11.dtd">
<!-- Created with matplotlib (https://matplotlib.org/) -->
<svg height="345.6pt" version="1.1" viewBox="0 0 460.8 345.6" width="460.8pt" xmlns="http://www.w3.org/2000/svg" xmlns:xlink="http://www.w3.org/1999/xlink">
 <metadata>
  <rdf:RDF xmlns:cc="http://creativecommons.org/ns#" xmlns:dc="http://purl.org/dc/elements/1.1/" xmlns:rdf="http://www.w3.org/1999/02/22-rdf-syntax-ns#">
   <cc:Work>
    <dc:type rdf:resource="http://purl.org/dc/dcmitype/StillImage"/>
    <dc:date>2020-12-30T13:13:06.724140</dc:date>
    <dc:format>image/svg+xml</dc:format>
    <dc:creator>
     <cc:Agent>
      <dc:title>Matplotlib v3.3.2, https://matplotlib.org/</dc:title>
     </cc:Agent>
    </dc:creator>
   </cc:Work>
  </rdf:RDF>
 </metadata>
 <defs>
  <style type="text/css">*{stroke-linecap:butt;stroke-linejoin:round;}</style>
 </defs>
 <g id="figure_1">
  <g id="patch_1">
   <path d="M 0 345.6 
L 460.8 345.6 
L 460.8 0 
L 0 0 
z
" style="fill:#ffffff;"/>
  </g>
  <g id="axes_1">
   <g id="patch_2">
    <path d="M 57.6 307.584 
L 414.72 307.584 
L 414.72 41.472 
L 57.6 41.472 
z
" style="fill:#ffffff;"/>
   </g>
   <g id="PolyCollection_1">
    <defs>
     <path d="M 90.825665 -80.015469 
L 90.825665 -103.947644 
L 91.72003 -104.254657 
L 92.614395 -103.85002 
L 93.50876 -103.50352 
L 94.403125 -102.982667 
L 95.297491 -102.099107 
L 96.191856 -101.874014 
L 97.086221 -102.356582 
L 97.980586 -103.714325 
L 98.874951 -104.256508 
L 99.769316 -105.505055 
L 100.663681 -105.943643 
L 101.558047 -106.451427 
L 102.452412 -106.577393 
L 103.346777 -107.029046 
L 104.241142 -107.285053 
L 105.135507 -108.232204 
L 106.029872 -109.349042 
L 106.924237 -110.457188 
L 107.818603 -111.556224 
L 108.712968 -113.001921 
L 109.607333 -113.704376 
L 110.501698 -114.944985 
L 111.396063 -115.851501 
L 112.290428 -116.26353 
L 113.184793 -116.345529 
L 114.079159 -115.831546 
L 114.973524 -115.569335 
L 115.867889 -115.555516 
L 116.762254 -115.893964 
L 117.656619 -115.870484 
L 118.550984 -115.735711 
L 119.445349 -115.610648 
L 120.339715 -115.413588 
L 121.23408 -115.210273 
L 122.128445 -114.576159 
L 123.02281 -114.925838 
L 123.917175 -116.243266 
L 124.81154 -117.05588 
L 125.705905 -117.698544 
L 126.60027 -118.002607 
L 127.494636 -118.340375 
L 128.389001 -117.643503 
L 129.283366 -116.707294 
L 130.177731 -115.765098 
L 131.072096 -114.295839 
L 131.966461 -113.582846 
L 132.860826 -112.732549 
L 133.755192 -112.877772 
L 134.649557 -111.859436 
L 135.543922 -111.676468 
L 136.438287 -111.175687 
L 137.332652 -117.391231 
L 138.227017 -118.541339 
L 139.121382 -118.938392 
L 140.015748 -118.61497 
L 140.910113 -118.532124 
L 141.804478 -118.175936 
L 142.698843 -117.35368 
L 143.593208 -115.983302 
L 144.487573 -114.638812 
L 145.381938 -113.121971 
L 146.276304 -110.837709 
L 147.170669 -108.549789 
L 148.065034 -106.113407 
L 148.959399 -102.75903 
L 149.853764 -98.74015 
L 150.748129 -94.494798 
L 151.642494 -91.95555 
L 152.53686 -89.182697 
L 153.431225 -86.307377 
L 154.32559 -82.733734 
L 155.219955 -82.846777 
L 156.11432 -83.712793 
L 157.008685 -83.960307 
L 157.90305 -84.358816 
L 158.797415 -83.742379 
L 159.691781 -84.456369 
L 160.586146 -84.460445 
L 161.480511 -85.670817 
L 162.374876 -86.503865 
L 163.269241 -86.623291 
L 164.163606 -86.189587 
L 165.057971 -86.340487 
L 165.952337 -86.403874 
L 166.846702 -86.496581 
L 167.741067 -86.477396 
L 168.635432 -86.737639 
L 169.529797 -86.707805 
L 170.424162 -85.983946 
L 171.318527 -85.897376 
L 172.212893 -85.502351 
L 173.107258 -85.39742 
L 174.001623 -85.524115 
L 174.895988 -86.215014 
L 175.790353 -86.874134 
L 176.684718 -87.47404 
L 177.579083 -88.213937 
L 178.473449 -89.196115 
L 179.367814 -89.860917 
L 180.262179 -93.538779 
L 181.156544 -95.927293 
L 182.050909 -98.399577 
L 182.945274 -100.845099 
L 183.839639 -102.701189 
L 184.734005 -104.181974 
L 185.62837 -105.461267 
L 186.522735 -107.051113 
L 187.4171 -110.11837 
L 188.311465 -112.354963 
L 189.20583 -113.680583 
L 190.100195 -113.350645 
L 190.99456 -112.620706 
L 191.888926 -112.120571 
L 192.783291 -112.32526 
L 193.677656 -113.000949 
L 194.572021 -112.650916 
L 195.466386 -112.281424 
L 196.360751 -112.048507 
L 197.255116 -111.255908 
L 198.149482 -111.860604 
L 199.043847 -111.867736 
L 199.938212 -111.779651 
L 200.832577 -111.765804 
L 201.726942 -111.716344 
L 202.621307 -111.85802 
L 203.515672 -111.910205 
L 204.410038 -111.996011 
L 205.304403 -110.973748 
L 206.198768 -110.551332 
L 207.093133 -110.359671 
L 207.987498 -110.727083 
L 208.881863 -110.437587 
L 209.776228 -111.710073 
L 210.670594 -111.838132 
L 211.564959 -111.663672 
L 212.459324 -112.073294 
L 213.353689 -112.257622 
L 214.248054 -112.277644 
L 215.142419 -112.340663 
L 216.036784 -112.347187 
L 216.93115 -112.623941 
L 217.825515 -113.037324 
L 218.71988 -113.012668 
L 219.614245 -113.01435 
L 220.50861 -112.417285 
L 221.402975 -111.975914 
L 222.29734 -111.17828 
L 223.191705 -110.971677 
L 224.086071 -110.972199 
L 224.980436 -110.985114 
L 225.874801 -110.979321 
L 226.769166 -111.009125 
L 227.663531 -109.785421 
L 228.557896 -109.891301 
L 229.452261 -109.843078 
L 230.346627 -109.591834 
L 231.240992 -109.547046 
L 232.135357 -109.475894 
L 233.029722 -109.395325 
L 233.924087 -109.002566 
L 234.818452 -108.466716 
L 235.712817 -107.483996 
L 236.607183 -107.483582 
L 237.501548 -107.391112 
L 238.395913 -107.28135 
L 239.290278 -107.247231 
L 240.184643 -107.138892 
L 241.079008 -106.847775 
L 241.973373 -106.627431 
L 242.867739 -106.675652 
L 243.762104 -106.636483 
L 244.656469 -106.569377 
L 245.550834 -106.53863 
L 246.445199 -105.748229 
L 247.339564 -104.893172 
L 248.233929 -104.815208 
L 249.128295 -104.774055 
L 250.02266 -104.773532 
L 250.917025 -104.663096 
L 251.81139 -104.652067 
L 252.705755 -104.661407 
L 253.60012 -104.657709 
L 254.494485 -104.874871 
L 255.38885 -105.448287 
L 256.283216 -106.08169 
L 257.177581 -106.46196 
L 258.071946 -107.155297 
L 258.966311 -108.428013 
L 259.860676 -113.414366 
L 260.755041 -116.393478 
L 261.649406 -119.264955 
L 262.543772 -121.623705 
L 263.438137 -124.283463 
L 264.332502 -127.586349 
L 265.226867 -128.833943 
L 266.121232 -130.196822 
L 267.015597 -131.216113 
L 267.909962 -132.909802 
L 268.804328 -134.325966 
L 269.698693 -135.162416 
L 270.593058 -135.927971 
L 271.487423 -136.114882 
L 272.381788 -136.498414 
L 273.276153 -136.074821 
L 274.170518 -135.556559 
L 275.064884 -134.610441 
L 275.959249 -133.218197 
L 276.853614 -131.471163 
L 277.747979 -131.760089 
L 278.642344 -132.579154 
L 279.536709 -132.718844 
L 280.431074 -132.561918 
L 281.32544 -132.680331 
L 282.219805 -132.562868 
L 283.11417 -132.074234 
L 284.008535 -131.778199 
L 284.9029 -131.242774 
L 285.797265 -131.524231 
L 286.69163 -131.554911 
L 287.585995 -131.731764 
L 288.480361 -131.683414 
L 289.374726 -131.680793 
L 290.269091 -131.493311 
L 291.163456 -131.443456 
L 292.057821 -131.70014 
L 292.952186 -131.686827 
L 293.846551 -134.265786 
L 294.740917 -134.917597 
L 295.635282 -135.658084 
L 296.529647 -135.180527 
L 297.424012 -134.860625 
L 298.318377 -134.805057 
L 299.212742 -134.317266 
L 300.107107 -133.984718 
L 301.001473 -133.348253 
L 301.895838 -132.606201 
L 302.790203 -131.584644 
L 303.684568 -131.101367 
L 304.578933 -130.437867 
L 305.473298 -130.023828 
L 306.367663 -129.300731 
L 307.262029 -128.578475 
L 308.156394 -127.457229 
L 309.050759 -126.132944 
L 309.945124 -123.315514 
L 310.839489 -121.734605 
L 311.733854 -121.706381 
L 312.628219 -121.881962 
L 313.522585 -121.90989 
L 314.41695 -121.989509 
L 315.311315 -122.135589 
L 316.20568 -121.94588 
L 317.100045 -121.912124 
L 317.99441 -121.891625 
L 318.888775 -121.798146 
L 319.78314 -121.735474 
L 320.677506 -121.543673 
L 321.571871 -121.545188 
L 322.466236 -121.534107 
L 323.360601 -121.240941 
L 324.254966 -120.967667 
L 325.149331 -120.9399 
L 326.043696 -120.820013 
L 326.938062 -121.782869 
L 327.832427 -122.934525 
L 328.726792 -124.356991 
L 329.621157 -124.983221 
L 330.515522 -125.755447 
L 331.409887 -126.615147 
L 332.304252 -127.031165 
L 333.198618 -127.464482 
L 334.092983 -128.042905 
L 334.987348 -129.021361 
L 335.881713 -130.210704 
L 336.776078 -133.536638 
L 337.670443 -136.636683 
L 338.564808 -138.876069 
L 339.459174 -141.229534 
L 340.353539 -143.026565 
L 341.247904 -144.418031 
L 342.142269 -146.770813 
L 343.036634 -148.061424 
L 343.930999 -149.470264 
L 344.825364 -150.934171 
L 345.71973 -152.588702 
L 346.614095 -153.967605 
L 347.50846 -154.684614 
L 348.402825 -155.777668 
L 349.29719 -156.916063 
L 350.191555 -160.702749 
L 351.08592 -163.608768 
L 351.980285 -164.262104 
L 352.874651 -165.978703 
L 353.769016 -167.024165 
L 354.663381 -168.483248 
L 355.557746 -170.539189 
L 356.452111 -173.38057 
L 357.346476 -175.841705 
L 358.240841 -177.29712 
L 359.135207 -178.181945 
L 360.029572 -180.568811 
L 360.923937 -184.335557 
L 361.818302 -187.734486 
L 362.712667 -190.536589 
L 363.607032 -194.831872 
L 364.501397 -198.138958 
L 365.395763 -199.767618 
L 366.290128 -201.114832 
L 367.184493 -203.389727 
L 368.078858 -205.579201 
L 368.973223 -205.648737 
L 369.867588 -204.819568 
L 370.761953 -204.824411 
L 371.656319 -204.869762 
L 372.550684 -206.958024 
L 373.445049 -207.185244 
L 374.339414 -208.374956 
L 375.233779 -209.512177 
L 376.128144 -208.785623 
L 377.022509 -207.697257 
L 377.916875 -207.666066 
L 378.81124 -208.198657 
L 379.705605 -208.062114 
L 380.59997 -207.972243 
L 381.494335 -207.86987 
L 382.3887 -207.782105 
L 383.283065 -207.999803 
L 384.177431 -208.53558 
L 385.071796 -208.753019 
L 385.966161 -209.499381 
L 386.860526 -213.956351 
L 387.754891 -222.044058 
L 388.649256 -229.598775 
L 389.543621 -237.725188 
L 390.437986 -243.555631 
L 391.332352 -247.101144 
L 392.226717 -252.422929 
L 393.121082 -255.98928 
L 394.015447 -259.728209 
L 394.909812 -264.834127 
L 395.804177 -273.061639 
L 396.698542 -279.58687 
L 397.592908 -286.10713 
L 398.487273 -292.032 
L 398.487273 -175.500794 
L 398.487273 -175.500794 
L 397.592908 -172.867593 
L 396.698542 -170.876782 
L 395.804177 -170.492919 
L 394.909812 -171.858126 
L 394.015447 -171.590759 
L 393.121082 -170.412202 
L 392.226717 -170.206709 
L 391.332352 -171.007706 
L 390.437986 -170.665895 
L 389.543621 -172.753453 
L 388.649256 -175.39646 
L 387.754891 -177.705346 
L 386.860526 -180.325252 
L 385.966161 -180.766162 
L 385.071796 -180.830582 
L 384.177431 -180.879153 
L 383.283065 -180.662719 
L 382.3887 -180.472369 
L 381.494335 -180.976772 
L 380.59997 -181.288301 
L 379.705605 -180.468027 
L 378.81124 -179.792252 
L 377.916875 -178.832969 
L 377.022509 -176.191462 
L 376.128144 -171.993728 
L 375.233779 -168.72725 
L 374.339414 -166.839467 
L 373.445049 -165.183594 
L 372.550684 -162.441867 
L 371.656319 -160.285531 
L 370.761953 -157.585004 
L 369.867588 -155.386 
L 368.973223 -152.300164 
L 368.078858 -150.801574 
L 367.184493 -149.899579 
L 366.290128 -147.377113 
L 365.395763 -144.45296 
L 364.501397 -141.377955 
L 363.607032 -139.917783 
L 362.712667 -139.478386 
L 361.818302 -138.142723 
L 360.923937 -137.345773 
L 360.029572 -136.861547 
L 359.135207 -136.294566 
L 358.240841 -134.368046 
L 357.346476 -132.861528 
L 356.452111 -132.21708 
L 355.557746 -131.77837 
L 354.663381 -131.180033 
L 353.769016 -130.181253 
L 352.874651 -127.864645 
L 351.980285 -125.950789 
L 351.08592 -123.375086 
L 350.191555 -122.190096 
L 349.29719 -121.871052 
L 348.402825 -120.437728 
L 347.50846 -119.037718 
L 346.614095 -117.688261 
L 345.71973 -116.894417 
L 344.825364 -116.185229 
L 343.930999 -115.431182 
L 343.036634 -114.470154 
L 342.142269 -113.459032 
L 341.247904 -112.891955 
L 340.353539 -111.895612 
L 339.459174 -111.495852 
L 338.564808 -111.476843 
L 337.670443 -111.419304 
L 336.776078 -112.179827 
L 335.881713 -113.400498 
L 334.987348 -113.483889 
L 334.092983 -113.574265 
L 333.198618 -113.345747 
L 332.304252 -113.197516 
L 331.409887 -113.029207 
L 330.515522 -113.090183 
L 329.621157 -113.190224 
L 328.726792 -112.657243 
L 327.832427 -113.123647 
L 326.938062 -113.367458 
L 326.043696 -113.969781 
L 325.149331 -113.894743 
L 324.254966 -113.88174 
L 323.360601 -113.868106 
L 322.466236 -113.899187 
L 321.571871 -113.901676 
L 320.677506 -113.896255 
L 319.78314 -113.491746 
L 318.888775 -113.296527 
L 317.99441 -112.98077 
L 317.100045 -112.546356 
L 316.20568 -111.925522 
L 315.311315 -111.207493 
L 314.41695 -110.978298 
L 313.522585 -110.615744 
L 312.628219 -110.143105 
L 311.733854 -110.073904 
L 310.839489 -109.997308 
L 309.945124 -109.264809 
L 309.050759 -107.898271 
L 308.156394 -107.299154 
L 307.262029 -106.784417 
L 306.367663 -106.5874 
L 305.473298 -106.418593 
L 304.578933 -106.374131 
L 303.684568 -106.358795 
L 302.790203 -106.517513 
L 301.895838 -106.874366 
L 301.001473 -107.305387 
L 300.107107 -107.914684 
L 299.212742 -108.751925 
L 298.318377 -109.847237 
L 297.424012 -111.396977 
L 296.529647 -112.581154 
L 295.635282 -114.046947 
L 294.740917 -116.46069 
L 293.846551 -118.445927 
L 292.952186 -122.540672 
L 292.057821 -122.871334 
L 291.163456 -122.773431 
L 290.269091 -122.466867 
L 289.374726 -122.460389 
L 288.480361 -122.658089 
L 287.585995 -122.868031 
L 286.69163 -123.325002 
L 285.797265 -123.660571 
L 284.9029 -124.332626 
L 284.008535 -123.241568 
L 283.11417 -122.549664 
L 282.219805 -121.462034 
L 281.32544 -121.592228 
L 280.431074 -121.244898 
L 279.536709 -120.408858 
L 278.642344 -119.733512 
L 277.747979 -119.244829 
L 276.853614 -118.65753 
L 275.959249 -115.041082 
L 275.064884 -111.648696 
L 274.170518 -108.523343 
L 273.276153 -106.09523 
L 272.381788 -103.847864 
L 271.487423 -101.778384 
L 270.593058 -99.505624 
L 269.698693 -97.779671 
L 268.804328 -96.227523 
L 267.909962 -95.09209 
L 267.015597 -94.264649 
L 266.121232 -93.34066 
L 265.226867 -92.752796 
L 264.332502 -92.226188 
L 263.438137 -93.084798 
L 262.543772 -93.65972 
L 261.649406 -94.256832 
L 260.755041 -95.329345 
L 259.860676 -96.84136 
L 258.966311 -100.134279 
L 258.071946 -100.822191 
L 257.177581 -100.9052 
L 256.283216 -100.895161 
L 255.38885 -101.00324 
L 254.494485 -101.153986 
L 253.60012 -101.22877 
L 252.705755 -101.205689 
L 251.81139 -101.18986 
L 250.917025 -101.125339 
L 250.02266 -100.879453 
L 249.128295 -100.899604 
L 248.233929 -100.916555 
L 247.339564 -100.902014 
L 246.445199 -100.412141 
L 245.550834 -99.978999 
L 244.656469 -99.998741 
L 243.762104 -100.001647 
L 242.867739 -100.020765 
L 241.973373 -100.035723 
L 241.079008 -100.007154 
L 240.184643 -99.913173 
L 239.290278 -100.132298 
L 238.395913 -100.289917 
L 237.501548 -100.576435 
L 236.607183 -100.85217 
L 235.712817 -100.906094 
L 234.818452 -100.640586 
L 233.924087 -100.674092 
L 233.029722 -100.917153 
L 232.135357 -101.54825 
L 231.240992 -101.973597 
L 230.346627 -102.298754 
L 229.452261 -102.501436 
L 228.557896 -102.500561 
L 227.663531 -102.478406 
L 226.769166 -102.13083 
L 225.874801 -102.241851 
L 224.980436 -102.600221 
L 224.086071 -102.638468 
L 223.191705 -102.73088 
L 222.29734 -102.196803 
L 221.402975 -100.819261 
L 220.50861 -99.947942 
L 219.614245 -98.614192 
L 218.71988 -98.318367 
L 217.825515 -98.180817 
L 216.93115 -97.80202 
L 216.036784 -97.815958 
L 215.142419 -97.81801 
L 214.248054 -97.833422 
L 213.353689 -97.836455 
L 212.459324 -97.768778 
L 211.564959 -97.7215 
L 210.670594 -97.666579 
L 209.776228 -97.579511 
L 208.881863 -97.511715 
L 207.987498 -96.389999 
L 207.093133 -95.851506 
L 206.198768 -95.81504 
L 205.304403 -95.640942 
L 204.410038 -95.386024 
L 203.515672 -95.809354 
L 202.621307 -95.997161 
L 201.726942 -96.306286 
L 200.832577 -96.016097 
L 199.938212 -95.825703 
L 199.043847 -95.505786 
L 198.149482 -94.663822 
L 197.255116 -94.300178 
L 196.360751 -91.619534 
L 195.466386 -89.560552 
L 194.572021 -87.5655 
L 193.677656 -85.50144 
L 192.783291 -83.95059 
L 191.888926 -82.373535 
L 190.99456 -80.240928 
L 190.100195 -77.833282 
L 189.20583 -75.649004 
L 188.311465 -74.59837 
L 187.4171 -74.348447 
L 186.522735 -74.537051 
L 185.62837 -74.125137 
L 184.734005 -73.078015 
L 183.839639 -72.593238 
L 182.945274 -72.43919 
L 182.050909 -72.867563 
L 181.156544 -73.460472 
L 180.262179 -74.145388 
L 179.367814 -76.374352 
L 178.473449 -76.658996 
L 177.579083 -77.058666 
L 176.684718 -77.438343 
L 175.790353 -77.290563 
L 174.895988 -77.333991 
L 174.001623 -77.305875 
L 173.107258 -77.114076 
L 172.212893 -76.814766 
L 171.318527 -76.003775 
L 170.424162 -75.224098 
L 169.529797 -73.169897 
L 168.635432 -72.391671 
L 167.741067 -71.929793 
L 166.846702 -71.989063 
L 165.952337 -71.902325 
L 165.057971 -71.862474 
L 164.163606 -71.591003 
L 163.269241 -70.12189 
L 162.374876 -69.583328 
L 161.480511 -69.36328 
L 160.586146 -69.466708 
L 159.691781 -67.762276 
L 158.797415 -66.570978 
L 157.90305 -64.286294 
L 157.008685 -63.239595 
L 156.11432 -62.011437 
L 155.219955 -61.780637 
L 154.32559 -60.19462 
L 153.431225 -58.114273 
L 152.53686 -56.704722 
L 151.642494 -55.936384 
L 150.748129 -55.140844 
L 149.853764 -53.369992 
L 148.959399 -51.702312 
L 148.065034 -50.653473 
L 147.170669 -50.185644 
L 146.276304 -50.112 
L 145.381938 -50.825731 
L 144.487573 -51.583405 
L 143.593208 -52.514911 
L 142.698843 -53.54581 
L 141.804478 -56.006722 
L 140.910113 -58.978582 
L 140.015748 -63.030516 
L 139.121382 -66.870277 
L 138.227017 -71.867462 
L 137.332652 -76.886198 
L 136.438287 -87.734172 
L 135.543922 -88.853782 
L 134.649557 -90.309157 
L 133.755192 -91.45532 
L 132.860826 -93.208304 
L 131.966461 -93.339366 
L 131.072096 -93.363359 
L 130.177731 -93.141203 
L 129.283366 -93.606304 
L 128.389001 -94.196344 
L 127.494636 -94.786094 
L 126.60027 -96.400519 
L 125.705905 -98.260149 
L 124.81154 -100.057014 
L 123.917175 -101.844903 
L 123.02281 -104.08457 
L 122.128445 -104.71823 
L 121.23408 -103.604534 
L 120.339715 -102.746645 
L 119.445349 -102.218789 
L 118.550984 -101.781497 
L 117.656619 -101.3529 
L 116.762254 -101.204375 
L 115.867889 -100.671151 
L 114.973524 -100.328382 
L 114.079159 -99.057104 
L 113.184793 -97.274742 
L 112.290428 -95.410416 
L 111.396063 -94.084419 
L 110.501698 -93.113648 
L 109.607333 -92.808464 
L 108.712968 -92.410094 
L 107.818603 -92.381225 
L 106.924237 -92.31615 
L 106.029872 -92.532999 
L 105.135507 -92.808861 
L 104.241142 -92.879817 
L 103.346777 -92.760237 
L 102.452412 -92.724371 
L 101.558047 -91.662593 
L 100.663681 -91.009253 
L 99.769316 -90.172121 
L 98.874951 -90.146013 
L 97.980586 -89.25905 
L 97.086221 -89.313089 
L 96.191856 -89.083527 
L 95.297491 -88.033553 
L 94.403125 -86.190031 
L 93.50876 -84.615004 
L 92.614395 -83.239293 
L 91.72003 -81.19706 
L 90.825665 -80.015469 
z
" id="md896da14d1" style="stroke:#4b0082;stroke-opacity:0.3;"/>
    </defs>
    <g clip-path="url(#p8a5a5f91c7)">
     <use style="fill:#4b0082;fill-opacity:0.3;stroke:#4b0082;stroke-opacity:0.3;" x="0" xlink:href="#md896da14d1" y="345.6"/>
    </g>
   </g>
   <g id="matplotlib.axis_1">
    <g id="xtick_1">
     <g id="line2d_1">
      <defs>
       <path d="M 0 0 
L 0 3.5 
" id="m2214ed5570" style="stroke:#000000;stroke-width:0.8;"/>
      </defs>
      <g>
       <use style="stroke:#000000;stroke-width:0.8;" x="73.832727" xlink:href="#m2214ed5570" y="307.584"/>
      </g>
     </g>
     <g id="text_1">
      <!-- 2020-01 -->
      <g transform="translate(52.941321 322.182437)scale(0.1 -0.1)">
       <defs>
        <path d="M 19.1875 8.296875 
L 53.609375 8.296875 
L 53.609375 0 
L 7.328125 0 
L 7.328125 8.296875 
Q 12.9375 14.109375 22.625 23.890625 
Q 32.328125 33.6875 34.8125 36.53125 
Q 39.546875 41.84375 41.421875 45.53125 
Q 43.3125 49.21875 43.3125 52.78125 
Q 43.3125 58.59375 39.234375 62.25 
Q 35.15625 65.921875 28.609375 65.921875 
Q 23.96875 65.921875 18.8125 64.3125 
Q 13.671875 62.703125 7.8125 59.421875 
L 7.8125 69.390625 
Q 13.765625 71.78125 18.9375 73 
Q 24.125 74.21875 28.421875 74.21875 
Q 39.75 74.21875 46.484375 68.546875 
Q 53.21875 62.890625 53.21875 53.421875 
Q 53.21875 48.921875 51.53125 44.890625 
Q 49.859375 40.875 45.40625 35.40625 
Q 44.1875 33.984375 37.640625 27.21875 
Q 31.109375 20.453125 19.1875 8.296875 
z
" id="DejaVuSans-50"/>
        <path d="M 31.78125 66.40625 
Q 24.171875 66.40625 20.328125 58.90625 
Q 16.5 51.421875 16.5 36.375 
Q 16.5 21.390625 20.328125 13.890625 
Q 24.171875 6.390625 31.78125 6.390625 
Q 39.453125 6.390625 43.28125 13.890625 
Q 47.125 21.390625 47.125 36.375 
Q 47.125 51.421875 43.28125 58.90625 
Q 39.453125 66.40625 31.78125 66.40625 
z
M 31.78125 74.21875 
Q 44.046875 74.21875 50.515625 64.515625 
Q 56.984375 54.828125 56.984375 36.375 
Q 56.984375 17.96875 50.515625 8.265625 
Q 44.046875 -1.421875 31.78125 -1.421875 
Q 19.53125 -1.421875 13.0625 8.265625 
Q 6.59375 17.96875 6.59375 36.375 
Q 6.59375 54.828125 13.0625 64.515625 
Q 19.53125 74.21875 31.78125 74.21875 
z
" id="DejaVuSans-48"/>
        <path d="M 4.890625 31.390625 
L 31.203125 31.390625 
L 31.203125 23.390625 
L 4.890625 23.390625 
z
" id="DejaVuSans-45"/>
        <path d="M 12.40625 8.296875 
L 28.515625 8.296875 
L 28.515625 63.921875 
L 10.984375 60.40625 
L 10.984375 69.390625 
L 28.421875 72.90625 
L 38.28125 72.90625 
L 38.28125 8.296875 
L 54.390625 8.296875 
L 54.390625 0 
L 12.40625 0 
z
" id="DejaVuSans-49"/>
       </defs>
       <use xlink:href="#DejaVuSans-50"/>
       <use x="63.623047" xlink:href="#DejaVuSans-48"/>
       <use x="127.246094" xlink:href="#DejaVuSans-50"/>
       <use x="190.869141" xlink:href="#DejaVuSans-48"/>
       <use x="254.492188" xlink:href="#DejaVuSans-45"/>
       <use x="290.576172" xlink:href="#DejaVuSans-48"/>
       <use x="354.199219" xlink:href="#DejaVuSans-49"/>
      </g>
     </g>
    </g>
    <g id="xtick_2">
     <g id="line2d_2">
      <g>
       <use style="stroke:#000000;stroke-width:0.8;" x="127.494636" xlink:href="#m2214ed5570" y="307.584"/>
      </g>
     </g>
     <g id="text_2">
      <!-- 2020-03 -->
      <g transform="translate(106.603229 322.182437)scale(0.1 -0.1)">
       <defs>
        <path d="M 40.578125 39.3125 
Q 47.65625 37.796875 51.625 33 
Q 55.609375 28.21875 55.609375 21.1875 
Q 55.609375 10.40625 48.1875 4.484375 
Q 40.765625 -1.421875 27.09375 -1.421875 
Q 22.515625 -1.421875 17.65625 -0.515625 
Q 12.796875 0.390625 7.625 2.203125 
L 7.625 11.71875 
Q 11.71875 9.328125 16.59375 8.109375 
Q 21.484375 6.890625 26.8125 6.890625 
Q 36.078125 6.890625 40.9375 10.546875 
Q 45.796875 14.203125 45.796875 21.1875 
Q 45.796875 27.640625 41.28125 31.265625 
Q 36.765625 34.90625 28.71875 34.90625 
L 20.21875 34.90625 
L 20.21875 43.015625 
L 29.109375 43.015625 
Q 36.375 43.015625 40.234375 45.921875 
Q 44.09375 48.828125 44.09375 54.296875 
Q 44.09375 59.90625 40.109375 62.90625 
Q 36.140625 65.921875 28.71875 65.921875 
Q 24.65625 65.921875 20.015625 65.03125 
Q 15.375 64.15625 9.8125 62.3125 
L 9.8125 71.09375 
Q 15.4375 72.65625 20.34375 73.4375 
Q 25.25 74.21875 29.59375 74.21875 
Q 40.828125 74.21875 47.359375 69.109375 
Q 53.90625 64.015625 53.90625 55.328125 
Q 53.90625 49.265625 50.4375 45.09375 
Q 46.96875 40.921875 40.578125 39.3125 
z
" id="DejaVuSans-51"/>
       </defs>
       <use xlink:href="#DejaVuSans-50"/>
       <use x="63.623047" xlink:href="#DejaVuSans-48"/>
       <use x="127.246094" xlink:href="#DejaVuSans-50"/>
       <use x="190.869141" xlink:href="#DejaVuSans-48"/>
       <use x="254.492188" xlink:href="#DejaVuSans-45"/>
       <use x="290.576172" xlink:href="#DejaVuSans-48"/>
       <use x="354.199219" xlink:href="#DejaVuSans-51"/>
      </g>
     </g>
    </g>
    <g id="xtick_3">
     <g id="line2d_3">
      <g>
       <use style="stroke:#000000;stroke-width:0.8;" x="182.050909" xlink:href="#m2214ed5570" y="307.584"/>
      </g>
     </g>
     <g id="text_3">
      <!-- 2020-05 -->
      <g transform="translate(161.159503 322.182437)scale(0.1 -0.1)">
       <defs>
        <path d="M 10.796875 72.90625 
L 49.515625 72.90625 
L 49.515625 64.59375 
L 19.828125 64.59375 
L 19.828125 46.734375 
Q 21.96875 47.46875 24.109375 47.828125 
Q 26.265625 48.1875 28.421875 48.1875 
Q 40.625 48.1875 47.75 41.5 
Q 54.890625 34.8125 54.890625 23.390625 
Q 54.890625 11.625 47.5625 5.09375 
Q 40.234375 -1.421875 26.90625 -1.421875 
Q 22.3125 -1.421875 17.546875 -0.640625 
Q 12.796875 0.140625 7.71875 1.703125 
L 7.71875 11.625 
Q 12.109375 9.234375 16.796875 8.0625 
Q 21.484375 6.890625 26.703125 6.890625 
Q 35.15625 6.890625 40.078125 11.328125 
Q 45.015625 15.765625 45.015625 23.390625 
Q 45.015625 31 40.078125 35.4375 
Q 35.15625 39.890625 26.703125 39.890625 
Q 22.75 39.890625 18.8125 39.015625 
Q 14.890625 38.140625 10.796875 36.28125 
z
" id="DejaVuSans-53"/>
       </defs>
       <use xlink:href="#DejaVuSans-50"/>
       <use x="63.623047" xlink:href="#DejaVuSans-48"/>
       <use x="127.246094" xlink:href="#DejaVuSans-50"/>
       <use x="190.869141" xlink:href="#DejaVuSans-48"/>
       <use x="254.492188" xlink:href="#DejaVuSans-45"/>
       <use x="290.576172" xlink:href="#DejaVuSans-48"/>
       <use x="354.199219" xlink:href="#DejaVuSans-53"/>
      </g>
     </g>
    </g>
    <g id="xtick_4">
     <g id="line2d_4">
      <g>
       <use style="stroke:#000000;stroke-width:0.8;" x="236.607183" xlink:href="#m2214ed5570" y="307.584"/>
      </g>
     </g>
     <g id="text_4">
      <!-- 2020-07 -->
      <g transform="translate(215.715776 322.182437)scale(0.1 -0.1)">
       <defs>
        <path d="M 8.203125 72.90625 
L 55.078125 72.90625 
L 55.078125 68.703125 
L 28.609375 0 
L 18.3125 0 
L 43.21875 64.59375 
L 8.203125 64.59375 
z
" id="DejaVuSans-55"/>
       </defs>
       <use xlink:href="#DejaVuSans-50"/>
       <use x="63.623047" xlink:href="#DejaVuSans-48"/>
       <use x="127.246094" xlink:href="#DejaVuSans-50"/>
       <use x="190.869141" xlink:href="#DejaVuSans-48"/>
       <use x="254.492188" xlink:href="#DejaVuSans-45"/>
       <use x="290.576172" xlink:href="#DejaVuSans-48"/>
       <use x="354.199219" xlink:href="#DejaVuSans-55"/>
      </g>
     </g>
    </g>
    <g id="xtick_5">
     <g id="line2d_5">
      <g>
       <use style="stroke:#000000;stroke-width:0.8;" x="292.057821" xlink:href="#m2214ed5570" y="307.584"/>
      </g>
     </g>
     <g id="text_5">
      <!-- 2020-09 -->
      <g transform="translate(271.166415 322.182437)scale(0.1 -0.1)">
       <defs>
        <path d="M 10.984375 1.515625 
L 10.984375 10.5 
Q 14.703125 8.734375 18.5 7.8125 
Q 22.3125 6.890625 25.984375 6.890625 
Q 35.75 6.890625 40.890625 13.453125 
Q 46.046875 20.015625 46.78125 33.40625 
Q 43.953125 29.203125 39.59375 26.953125 
Q 35.25 24.703125 29.984375 24.703125 
Q 19.046875 24.703125 12.671875 31.3125 
Q 6.296875 37.9375 6.296875 49.421875 
Q 6.296875 60.640625 12.9375 67.421875 
Q 19.578125 74.21875 30.609375 74.21875 
Q 43.265625 74.21875 49.921875 64.515625 
Q 56.59375 54.828125 56.59375 36.375 
Q 56.59375 19.140625 48.40625 8.859375 
Q 40.234375 -1.421875 26.421875 -1.421875 
Q 22.703125 -1.421875 18.890625 -0.6875 
Q 15.09375 0.046875 10.984375 1.515625 
z
M 30.609375 32.421875 
Q 37.25 32.421875 41.125 36.953125 
Q 45.015625 41.5 45.015625 49.421875 
Q 45.015625 57.28125 41.125 61.84375 
Q 37.25 66.40625 30.609375 66.40625 
Q 23.96875 66.40625 20.09375 61.84375 
Q 16.21875 57.28125 16.21875 49.421875 
Q 16.21875 41.5 20.09375 36.953125 
Q 23.96875 32.421875 30.609375 32.421875 
z
" id="DejaVuSans-57"/>
       </defs>
       <use xlink:href="#DejaVuSans-50"/>
       <use x="63.623047" xlink:href="#DejaVuSans-48"/>
       <use x="127.246094" xlink:href="#DejaVuSans-50"/>
       <use x="190.869141" xlink:href="#DejaVuSans-48"/>
       <use x="254.492188" xlink:href="#DejaVuSans-45"/>
       <use x="290.576172" xlink:href="#DejaVuSans-48"/>
       <use x="354.199219" xlink:href="#DejaVuSans-57"/>
      </g>
     </g>
    </g>
    <g id="xtick_6">
     <g id="line2d_6">
      <g>
       <use style="stroke:#000000;stroke-width:0.8;" x="346.614095" xlink:href="#m2214ed5570" y="307.584"/>
      </g>
     </g>
     <g id="text_6">
      <!-- 2020-11 -->
      <g transform="translate(325.722688 322.182437)scale(0.1 -0.1)">
       <use xlink:href="#DejaVuSans-50"/>
       <use x="63.623047" xlink:href="#DejaVuSans-48"/>
       <use x="127.246094" xlink:href="#DejaVuSans-50"/>
       <use x="190.869141" xlink:href="#DejaVuSans-48"/>
       <use x="254.492188" xlink:href="#DejaVuSans-45"/>
       <use x="290.576172" xlink:href="#DejaVuSans-49"/>
       <use x="354.199219" xlink:href="#DejaVuSans-49"/>
      </g>
     </g>
    </g>
    <g id="xtick_7">
     <g id="line2d_7">
      <g>
       <use style="stroke:#000000;stroke-width:0.8;" x="401.170368" xlink:href="#m2214ed5570" y="307.584"/>
      </g>
     </g>
     <g id="text_7">
      <!-- 2021-01 -->
      <g transform="translate(380.278962 322.182437)scale(0.1 -0.1)">
       <use xlink:href="#DejaVuSans-50"/>
       <use x="63.623047" xlink:href="#DejaVuSans-48"/>
       <use x="127.246094" xlink:href="#DejaVuSans-50"/>
       <use x="190.869141" xlink:href="#DejaVuSans-49"/>
       <use x="254.492188" xlink:href="#DejaVuSans-45"/>
       <use x="290.576172" xlink:href="#DejaVuSans-48"/>
       <use x="354.199219" xlink:href="#DejaVuSans-49"/>
      </g>
     </g>
    </g>
   </g>
   <g id="matplotlib.axis_2">
    <g id="ytick_1">
     <g id="line2d_8">
      <defs>
       <path d="M 0 0 
L -3.5 0 
" id="mfc8bef325b" style="stroke:#000000;stroke-width:0.8;"/>
      </defs>
      <g>
       <use style="stroke:#000000;stroke-width:0.8;" x="57.6" xlink:href="#mfc8bef325b" y="283.652025"/>
      </g>
     </g>
     <g id="text_8">
      <!-- 5000 -->
      <g transform="translate(25.15 287.451244)scale(0.1 -0.1)">
       <use xlink:href="#DejaVuSans-53"/>
       <use x="63.623047" xlink:href="#DejaVuSans-48"/>
       <use x="127.246094" xlink:href="#DejaVuSans-48"/>
       <use x="190.869141" xlink:href="#DejaVuSans-48"/>
      </g>
     </g>
    </g>
    <g id="ytick_2">
     <g id="line2d_9">
      <g>
       <use style="stroke:#000000;stroke-width:0.8;" x="57.6" xlink:href="#mfc8bef325b" y="234.981788"/>
      </g>
     </g>
     <g id="text_9">
      <!-- 10000 -->
      <g transform="translate(18.7875 238.781007)scale(0.1 -0.1)">
       <use xlink:href="#DejaVuSans-49"/>
       <use x="63.623047" xlink:href="#DejaVuSans-48"/>
       <use x="127.246094" xlink:href="#DejaVuSans-48"/>
       <use x="190.869141" xlink:href="#DejaVuSans-48"/>
       <use x="254.492188" xlink:href="#DejaVuSans-48"/>
      </g>
     </g>
    </g>
    <g id="ytick_3">
     <g id="line2d_10">
      <g>
       <use style="stroke:#000000;stroke-width:0.8;" x="57.6" xlink:href="#mfc8bef325b" y="186.31155"/>
      </g>
     </g>
     <g id="text_10">
      <!-- 15000 -->
      <g transform="translate(18.7875 190.110769)scale(0.1 -0.1)">
       <use xlink:href="#DejaVuSans-49"/>
       <use x="63.623047" xlink:href="#DejaVuSans-53"/>
       <use x="127.246094" xlink:href="#DejaVuSans-48"/>
       <use x="190.869141" xlink:href="#DejaVuSans-48"/>
       <use x="254.492188" xlink:href="#DejaVuSans-48"/>
      </g>
     </g>
    </g>
    <g id="ytick_4">
     <g id="line2d_11">
      <g>
       <use style="stroke:#000000;stroke-width:0.8;" x="57.6" xlink:href="#mfc8bef325b" y="137.641313"/>
      </g>
     </g>
     <g id="text_11">
      <!-- 20000 -->
      <g transform="translate(18.7875 141.440532)scale(0.1 -0.1)">
       <use xlink:href="#DejaVuSans-50"/>
       <use x="63.623047" xlink:href="#DejaVuSans-48"/>
       <use x="127.246094" xlink:href="#DejaVuSans-48"/>
       <use x="190.869141" xlink:href="#DejaVuSans-48"/>
       <use x="254.492188" xlink:href="#DejaVuSans-48"/>
      </g>
     </g>
    </g>
    <g id="ytick_5">
     <g id="line2d_12">
      <g>
       <use style="stroke:#000000;stroke-width:0.8;" x="57.6" xlink:href="#mfc8bef325b" y="88.971076"/>
      </g>
     </g>
     <g id="text_12">
      <!-- 25000 -->
      <g transform="translate(18.7875 92.770295)scale(0.1 -0.1)">
       <use xlink:href="#DejaVuSans-50"/>
       <use x="63.623047" xlink:href="#DejaVuSans-53"/>
       <use x="127.246094" xlink:href="#DejaVuSans-48"/>
       <use x="190.869141" xlink:href="#DejaVuSans-48"/>
       <use x="254.492188" xlink:href="#DejaVuSans-48"/>
      </g>
     </g>
    </g>
   </g>
   <g id="line2d_13">
    <path clip-path="url(#p8a5a5f91c7)" d="M 90.825665 241.652356 
L 91.72003 241.345343 
L 94.403125 242.617333 
L 95.297491 243.500893 
L 96.191856 243.725986 
L 97.086221 243.243418 
L 97.980586 241.885675 
L 98.874951 241.343492 
L 99.769316 240.094945 
L 101.558047 239.148573 
L 102.452412 239.022607 
L 103.346777 238.570954 
L 104.241142 238.314947 
L 105.135507 237.367796 
L 107.818603 234.043776 
L 108.712968 232.598079 
L 109.607333 231.895624 
L 110.501698 230.655015 
L 111.396063 229.748499 
L 112.290428 229.33647 
L 113.184793 229.254471 
L 114.079159 229.768454 
L 114.973524 230.030665 
L 115.867889 230.044484 
L 116.762254 229.706036 
L 117.656619 229.729516 
L 120.339715 230.186412 
L 121.23408 230.389727 
L 122.128445 231.023841 
L 123.02281 230.674162 
L 123.917175 229.356734 
L 124.81154 228.54412 
L 125.705905 227.901456 
L 127.494636 227.259625 
L 128.389001 227.956497 
L 130.177731 229.834902 
L 131.072096 231.304161 
L 132.860826 232.867451 
L 133.755192 232.722228 
L 134.649557 233.740564 
L 135.543922 233.923532 
L 136.438287 234.424313 
L 137.332652 228.208769 
L 138.227017 227.058661 
L 139.121382 226.661608 
L 140.015748 226.98503 
L 140.910113 227.067876 
L 141.804478 227.424064 
L 142.698843 228.24632 
L 145.381938 232.478029 
L 148.065034 239.486593 
L 148.959399 242.84097 
L 150.748129 251.105202 
L 152.53686 256.417303 
L 153.431225 259.292623 
L 154.32559 262.866266 
L 155.219955 262.753223 
L 156.11432 261.887207 
L 157.008685 261.639693 
L 157.90305 261.241184 
L 158.797415 261.857621 
L 159.691781 261.143631 
L 160.586146 261.139555 
L 161.480511 259.929183 
L 162.374876 259.096135 
L 163.269241 258.976709 
L 164.163606 259.410413 
L 165.952337 259.196126 
L 166.846702 259.103419 
L 167.741067 259.122604 
L 168.635432 258.862361 
L 169.529797 258.892195 
L 170.424162 259.616054 
L 171.318527 259.702624 
L 172.212893 260.097649 
L 173.107258 260.20258 
L 174.001623 260.075885 
L 177.579083 257.386063 
L 178.473449 256.403885 
L 179.367814 255.739083 
L 180.262179 252.061221 
L 182.945274 244.754901 
L 183.839639 242.898811 
L 186.522735 238.548887 
L 187.4171 235.48163 
L 188.311465 233.245037 
L 189.20583 231.919417 
L 190.100195 232.249355 
L 190.99456 232.979294 
L 191.888926 233.479429 
L 192.783291 233.27474 
L 193.677656 232.599051 
L 196.360751 233.551493 
L 197.255116 234.344092 
L 198.149482 233.739396 
L 199.938212 233.820349 
L 201.726942 233.883656 
L 203.515672 233.689795 
L 204.410038 233.603989 
L 205.304403 234.626252 
L 206.198768 235.048668 
L 207.093133 235.240329 
L 207.987498 234.872917 
L 208.881863 235.162413 
L 209.776228 233.889927 
L 210.670594 233.761868 
L 211.564959 233.936328 
L 212.459324 233.526706 
L 213.353689 233.342378 
L 216.036784 233.252813 
L 216.93115 232.976059 
L 217.825515 232.562676 
L 219.614245 232.58565 
L 220.50861 233.182715 
L 221.402975 233.624086 
L 222.29734 234.42172 
L 223.191705 234.628323 
L 226.769166 234.590875 
L 227.663531 235.814579 
L 228.557896 235.708699 
L 229.452261 235.756922 
L 230.346627 236.008166 
L 233.029722 236.204675 
L 233.924087 236.597434 
L 234.818452 237.133284 
L 235.712817 238.116004 
L 237.501548 238.208888 
L 241.079008 238.752225 
L 241.973373 238.972569 
L 243.762104 238.963517 
L 245.550834 239.06137 
L 247.339564 240.706828 
L 249.128295 240.825945 
L 250.917025 240.936904 
L 253.60012 240.942291 
L 254.494485 240.725129 
L 256.283216 239.51831 
L 257.177581 239.13804 
L 258.071946 238.444703 
L 258.966311 237.171987 
L 259.860676 232.185634 
L 261.649406 226.335045 
L 263.438137 221.316537 
L 264.332502 218.013651 
L 267.015597 214.383887 
L 267.909962 212.690198 
L 268.804328 211.274034 
L 270.593058 209.672029 
L 271.487423 209.485118 
L 272.381788 209.101586 
L 274.170518 210.043441 
L 275.064884 210.989559 
L 275.959249 212.381803 
L 276.853614 214.128837 
L 277.747979 213.839911 
L 278.642344 213.020846 
L 279.536709 212.881156 
L 280.431074 213.038082 
L 281.32544 212.919669 
L 282.219805 213.037132 
L 283.11417 213.525766 
L 284.008535 213.821801 
L 284.9029 214.357226 
L 285.797265 214.075769 
L 286.69163 214.045089 
L 287.585995 213.868236 
L 291.163456 214.156544 
L 292.057821 213.89986 
L 292.952186 213.913173 
L 293.846551 211.334214 
L 295.635282 209.941916 
L 296.529647 210.419473 
L 297.424012 210.739375 
L 298.318377 210.794943 
L 299.212742 211.282734 
L 300.107107 211.615282 
L 301.895838 212.993799 
L 302.790203 214.015356 
L 303.684568 214.498633 
L 304.578933 215.162133 
L 305.473298 215.576172 
L 307.262029 217.021525 
L 308.156394 218.142771 
L 309.050759 219.467056 
L 309.945124 222.284486 
L 310.839489 223.865395 
L 311.733854 223.893619 
L 312.628219 223.718038 
L 314.41695 223.610491 
L 315.311315 223.464411 
L 316.20568 223.65412 
L 319.78314 223.864526 
L 320.677506 224.056327 
L 322.466236 224.065893 
L 324.254966 224.632333 
L 326.043696 224.779987 
L 326.938062 223.817131 
L 327.832427 222.665475 
L 328.726792 221.243009 
L 329.621157 220.616779 
L 331.409887 218.984853 
L 333.198618 218.135518 
L 334.092983 217.557095 
L 334.987348 216.578639 
L 335.881713 215.389296 
L 337.670443 208.963317 
L 339.459174 204.370466 
L 340.353539 202.573435 
L 341.247904 201.181969 
L 342.142269 198.829187 
L 343.930999 196.129736 
L 346.614095 191.632395 
L 347.50846 190.915386 
L 349.29719 188.683937 
L 350.191555 184.897251 
L 351.08592 181.991232 
L 351.980285 181.337896 
L 352.874651 179.621297 
L 353.769016 178.575835 
L 354.663381 177.116752 
L 355.557746 175.060811 
L 356.452111 172.21943 
L 357.346476 169.758295 
L 358.240841 168.30288 
L 359.135207 167.418055 
L 360.029572 165.031189 
L 361.818302 157.865514 
L 362.712667 155.063411 
L 363.607032 150.768128 
L 364.501397 147.461042 
L 365.395763 145.832382 
L 366.290128 144.485168 
L 368.078858 140.020799 
L 368.973223 139.951263 
L 369.867588 140.780432 
L 371.656319 140.730238 
L 372.550684 138.641976 
L 373.445049 138.414756 
L 375.233779 136.087823 
L 376.128144 136.814377 
L 377.022509 137.902743 
L 377.916875 137.933934 
L 378.81124 137.401343 
L 381.494335 137.73013 
L 382.3887 137.817895 
L 383.283065 137.600197 
L 384.177431 137.06442 
L 385.071796 136.846981 
L 385.966161 136.100619 
L 386.860526 131.643649 
L 389.543621 107.874812 
L 390.437986 102.044369 
L 391.332352 98.498856 
L 392.226717 93.177071 
L 394.015447 85.871791 
L 394.909812 80.765873 
L 395.804177 72.538361 
L 398.487273 53.568 
L 398.487273 53.568 
" style="fill:none;stroke:#1f77b4;stroke-linecap:square;stroke-width:1.5;"/>
   </g>
   <g id="line2d_14">
    <path clip-path="url(#p8a5a5f91c7)" d="M 90.825665 265.584531 
L 91.72003 264.40294 
L 92.614395 262.360707 
L 94.403125 259.409969 
L 95.297491 257.566447 
L 96.191856 256.516473 
L 97.086221 256.286911 
L 97.980586 256.34095 
L 98.874951 255.453987 
L 99.769316 255.427879 
L 100.663681 254.590747 
L 101.558047 253.937407 
L 102.452412 252.875629 
L 105.135507 252.791139 
L 106.924237 253.28385 
L 108.712968 253.189906 
L 110.501698 252.486352 
L 111.396063 251.515581 
L 112.290428 250.189584 
L 114.079159 246.542896 
L 114.973524 245.271618 
L 115.867889 244.928849 
L 116.762254 244.395625 
L 117.656619 244.2471 
L 120.339715 242.853355 
L 121.23408 241.995466 
L 122.128445 240.88177 
L 123.02281 241.51543 
L 123.917175 243.755097 
L 127.494636 250.813906 
L 130.177731 252.458797 
L 131.072096 252.236641 
L 132.860826 252.391696 
L 133.755192 254.14468 
L 134.649557 255.290843 
L 135.543922 256.746218 
L 136.438287 257.865828 
L 137.332652 268.713802 
L 139.121382 278.729723 
L 140.910113 286.621418 
L 141.804478 289.593278 
L 142.698843 292.05419 
L 144.487573 294.016595 
L 146.276304 295.488 
L 147.170669 295.414356 
L 148.065034 294.946527 
L 148.959399 293.897688 
L 150.748129 290.459156 
L 152.53686 288.895278 
L 153.431225 287.485727 
L 154.32559 285.40538 
L 155.219955 283.819363 
L 156.11432 283.588563 
L 157.90305 281.313706 
L 158.797415 279.029022 
L 159.691781 277.837724 
L 160.586146 276.133292 
L 161.480511 276.23672 
L 162.374876 276.016672 
L 163.269241 275.47811 
L 164.163606 274.008997 
L 165.057971 273.737526 
L 167.741067 273.670207 
L 168.635432 273.208329 
L 169.529797 272.430103 
L 170.424162 270.375902 
L 172.212893 268.785234 
L 174.001623 268.294125 
L 176.684718 268.161657 
L 179.367814 269.225648 
L 180.262179 271.454612 
L 182.050909 272.732437 
L 182.945274 273.16081 
L 183.839639 273.006762 
L 184.734005 272.521985 
L 185.62837 271.474863 
L 186.522735 271.062949 
L 187.4171 271.251553 
L 188.311465 271.00163 
L 189.20583 269.950996 
L 191.888926 263.226465 
L 193.677656 260.09856 
L 196.360751 253.980466 
L 197.255116 251.299822 
L 198.149482 250.936178 
L 199.043847 250.094214 
L 199.938212 249.774297 
L 201.726942 249.293714 
L 202.621307 249.602839 
L 203.515672 249.790646 
L 204.410038 250.213976 
L 206.198768 249.78496 
L 207.093133 249.748494 
L 207.987498 249.210001 
L 208.881863 248.088285 
L 214.248054 247.766578 
L 216.93115 247.79798 
L 217.825515 247.419183 
L 218.71988 247.281633 
L 219.614245 246.985808 
L 220.50861 245.652058 
L 221.402975 244.780739 
L 222.29734 243.403197 
L 223.191705 242.86912 
L 224.980436 242.999779 
L 225.874801 243.358149 
L 226.769166 243.46917 
L 227.663531 243.121594 
L 229.452261 243.098564 
L 230.346627 243.301246 
L 232.135357 244.05175 
L 233.029722 244.682847 
L 233.924087 244.925908 
L 234.818452 244.959414 
L 235.712817 244.693906 
L 236.607183 244.74783 
L 239.290278 245.467702 
L 240.184643 245.686827 
L 241.973373 245.564277 
L 245.550834 245.621001 
L 247.339564 244.697986 
L 250.02266 244.720547 
L 250.917025 244.474661 
L 253.60012 244.37123 
L 258.071946 244.777809 
L 258.966311 245.465721 
L 259.860676 248.75864 
L 260.755041 250.270655 
L 261.649406 251.343168 
L 263.438137 252.515202 
L 264.332502 253.373812 
L 266.121232 252.25934 
L 268.804328 249.372477 
L 270.593058 246.094376 
L 274.170518 237.076657 
L 275.959249 230.558918 
L 276.853614 226.94247 
L 279.536709 225.191142 
L 280.431074 224.355102 
L 281.32544 224.007772 
L 282.219805 224.137966 
L 283.11417 223.050336 
L 284.008535 222.358432 
L 284.9029 221.267374 
L 285.797265 221.939429 
L 286.69163 222.274998 
L 287.585995 222.731969 
L 289.374726 223.139611 
L 290.269091 223.133133 
L 291.163456 222.826569 
L 292.057821 222.728666 
L 292.952186 223.059328 
L 293.846551 227.154073 
L 294.740917 229.13931 
L 295.635282 231.553053 
L 296.529647 233.018846 
L 297.424012 234.203023 
L 298.318377 235.752763 
L 299.212742 236.848075 
L 300.107107 237.685316 
L 301.001473 238.294613 
L 302.790203 239.082487 
L 303.684568 239.241205 
L 305.473298 239.181407 
L 307.262029 238.815583 
L 309.050759 237.701729 
L 309.945124 236.335191 
L 310.839489 235.602692 
L 312.628219 235.456895 
L 314.41695 234.621702 
L 315.311315 234.392507 
L 317.100045 233.053644 
L 318.888775 232.303473 
L 319.78314 232.108254 
L 320.677506 231.703745 
L 326.043696 231.630219 
L 326.938062 232.232542 
L 327.832427 232.476353 
L 328.726792 232.942757 
L 329.621157 232.409776 
L 331.409887 232.570793 
L 334.092983 232.025735 
L 335.881713 232.199502 
L 336.776078 233.420173 
L 337.670443 234.180696 
L 339.459174 234.104148 
L 340.353539 233.704388 
L 341.247904 232.708045 
L 342.142269 232.140968 
L 343.930999 230.168818 
L 346.614095 227.911739 
L 349.29719 223.728948 
L 350.191555 223.409904 
L 351.08592 222.224914 
L 351.980285 219.649211 
L 352.874651 217.735355 
L 353.769016 215.418747 
L 354.663381 214.419967 
L 355.557746 213.82163 
L 356.452111 213.38292 
L 357.346476 212.738472 
L 358.240841 211.231954 
L 359.135207 209.305434 
L 360.923937 208.254227 
L 361.818302 207.457277 
L 362.712667 206.121614 
L 363.607032 205.682217 
L 364.501397 204.222045 
L 366.290128 198.222887 
L 367.184493 195.700421 
L 368.078858 194.798426 
L 368.973223 193.299836 
L 369.867588 190.214 
L 370.761953 188.014996 
L 371.656319 185.314469 
L 372.550684 183.158133 
L 373.445049 180.416406 
L 375.233779 176.87275 
L 376.128144 173.606272 
L 377.022509 169.408538 
L 377.916875 166.767031 
L 378.81124 165.807748 
L 379.705605 165.131973 
L 380.59997 164.311699 
L 381.494335 164.623228 
L 382.3887 165.127631 
L 384.177431 164.720847 
L 385.966161 164.833838 
L 386.860526 165.274748 
L 389.543621 172.846547 
L 390.437986 174.934105 
L 391.332352 174.592294 
L 392.226717 175.393291 
L 393.121082 175.187798 
L 394.015447 174.009241 
L 394.909812 173.741874 
L 395.804177 175.107081 
L 396.698542 174.723218 
L 397.592908 172.732407 
L 398.487273 170.099206 
L 398.487273 170.099206 
" style="fill:none;stroke:#ff7f0e;stroke-linecap:square;stroke-width:1.5;"/>
   </g>
   <g id="line2d_15">
    <path clip-path="url(#p8a5a5f91c7)" d="M 90.825665 253.618443 
L 92.614395 252.055343 
L 96.191856 250.12123 
L 97.086221 249.765164 
L 102.452412 245.949118 
L 104.241142 245.517565 
L 106.924237 244.213331 
L 107.818603 243.631275 
L 108.712968 242.893992 
L 109.607333 242.34358 
L 110.501698 241.570684 
L 113.184793 238.789865 
L 114.973524 237.651141 
L 115.867889 237.486666 
L 116.762254 237.050831 
L 118.550984 236.841396 
L 120.339715 236.519883 
L 122.128445 235.952806 
L 123.02281 236.094796 
L 124.81154 237.043553 
L 125.705905 237.620653 
L 127.494636 239.036765 
L 129.283366 240.443201 
L 131.072096 241.770401 
L 131.966461 242.138894 
L 132.860826 242.629574 
L 133.755192 243.433454 
L 134.649557 244.515704 
L 136.438287 246.14507 
L 137.332652 248.461286 
L 138.227017 250.3956 
L 140.015748 254.777257 
L 140.910113 256.844647 
L 142.698843 260.150255 
L 148.959399 268.369329 
L 150.748129 270.782179 
L 154.32559 274.135823 
L 155.219955 273.286293 
L 156.11432 272.737885 
L 158.797415 270.443321 
L 160.586146 268.636423 
L 162.374876 267.556403 
L 163.269241 267.22741 
L 164.163606 266.709705 
L 165.057971 266.49852 
L 167.741067 266.396406 
L 169.529797 265.661149 
L 170.424162 264.995978 
L 171.318527 264.649425 
L 173.107258 264.344252 
L 174.001623 264.185005 
L 176.684718 263.143808 
L 178.473449 262.672444 
L 179.367814 262.482366 
L 181.156544 260.906117 
L 183.839639 257.952787 
L 184.734005 256.970006 
L 187.4171 253.366592 
L 189.20583 250.935206 
L 190.99456 249.169183 
L 192.783291 247.462075 
L 193.677656 246.348805 
L 197.255116 242.821957 
L 199.043847 241.913239 
L 201.726942 241.588685 
L 204.410038 241.908982 
L 205.304403 242.292655 
L 207.093133 242.494412 
L 208.881863 241.625349 
L 209.776228 240.955208 
L 210.670594 240.847644 
L 211.564959 240.907414 
L 213.353689 240.552961 
L 216.036784 240.518428 
L 216.93115 240.38702 
L 217.825515 239.99093 
L 219.614245 239.785729 
L 220.50861 239.417386 
L 223.191705 238.748721 
L 226.769166 239.030022 
L 227.663531 239.468086 
L 229.452261 239.427743 
L 233.029722 240.443761 
L 235.712817 241.404955 
L 236.607183 241.432124 
L 240.184643 242.073967 
L 241.973373 242.268423 
L 244.656469 242.315941 
L 245.550834 242.341185 
L 247.339564 242.702407 
L 250.02266 242.773507 
L 252.705755 242.666452 
L 254.494485 242.585571 
L 257.177581 241.91642 
L 258.966311 241.318854 
L 262.543772 237.958287 
L 263.438137 236.91587 
L 264.332502 235.693731 
L 266.121232 233.831259 
L 267.015597 232.859619 
L 272.381788 225.426861 
L 274.170518 223.560049 
L 275.959249 221.470361 
L 276.853614 220.535654 
L 277.747979 220.097541 
L 278.642344 219.443667 
L 280.431074 218.696592 
L 281.32544 218.463721 
L 282.219805 218.587549 
L 284.008535 218.090116 
L 284.9029 217.8123 
L 287.585995 218.300103 
L 290.269091 218.619911 
L 292.057821 218.314263 
L 292.952186 218.48625 
L 295.635282 220.747485 
L 296.529647 221.719159 
L 300.107107 224.650299 
L 302.790203 226.548922 
L 304.578933 227.194001 
L 306.367663 227.655934 
L 308.156394 228.221808 
L 309.050759 228.584392 
L 309.945124 229.309839 
L 310.839489 229.734043 
L 312.628219 229.587466 
L 317.99441 228.163802 
L 320.677506 227.880036 
L 322.466236 227.883353 
L 324.254966 228.175296 
L 326.043696 228.205103 
L 326.938062 228.024836 
L 328.726792 227.092883 
L 329.621157 226.513278 
L 334.092983 224.791415 
L 335.881713 223.794399 
L 337.670443 221.572007 
L 341.247904 216.945007 
L 342.142269 215.485077 
L 349.29719 206.206443 
L 351.08592 202.108073 
L 352.874651 198.678326 
L 353.769016 196.997291 
L 355.557746 194.44122 
L 357.346476 191.248383 
L 360.029572 186.884821 
L 363.607032 178.225173 
L 367.184493 168.955347 
L 368.078858 167.409613 
L 368.973223 166.62555 
L 370.761953 164.395292 
L 371.656319 163.022353 
L 372.550684 160.900055 
L 375.233779 156.480286 
L 376.128144 155.210324 
L 377.022509 153.655641 
L 377.916875 152.350483 
L 378.81124 151.604546 
L 380.59997 150.969728 
L 382.3887 151.472763 
L 383.283065 151.268739 
L 384.177431 150.892634 
L 385.071796 150.8082 
L 385.966161 150.467228 
L 386.860526 148.459199 
L 389.543621 140.360679 
L 391.332352 136.545575 
L 392.226717 134.285181 
L 393.121082 132.399259 
L 394.909812 127.253874 
L 396.698542 120.368174 
L 398.487273 111.833603 
L 398.487273 111.833603 
" style="fill:none;stroke:#2ca02c;stroke-linecap:square;stroke-width:1.5;"/>
   </g>
   <g id="line2d_16">
    <path clip-path="url(#p8a5a5f91c7)" d="M 73.832727 262.328491 
L 74.727092 264.526854 
L 75.621458 260.868505 
L 76.515823 260.760145 
L 77.410188 260.778441 
L 79.198918 252.958885 
L 80.093283 254.189663 
L 80.987648 256.310936 
L 81.882014 252.77676 
L 82.776379 254.382517 
L 83.670744 252.860125 
L 84.565109 253.524671 
L 85.459474 246.840779 
L 86.353839 246.870971 
L 87.248204 247.621577 
L 88.142569 245.904068 
L 89.036935 245.807105 
L 89.9313 247.774934 
L 90.825665 248.366758 
L 91.72003 247.44245 
L 92.614395 248.150893 
L 93.50876 250.576403 
L 94.403125 250.218402 
L 95.297491 251.178816 
L 97.086221 245.83758 
L 97.980586 241.152624 
L 98.874951 242.019477 
L 99.769316 240.030215 
L 100.663681 241.625314 
L 101.558047 241.248887 
L 103.346777 241.965586 
L 104.241142 243.115115 
L 105.135507 238.859616 
L 106.029872 237.494307 
L 106.924237 236.894135 
L 107.818603 236.133819 
L 108.712968 233.621105 
L 109.607333 236.434207 
L 110.501698 232.692961 
L 111.396063 231.80353 
L 112.290428 232.838147 
L 113.184793 231.715564 
L 114.079159 235.984081 
L 114.973524 235.746914 
L 115.867889 237.863126 
L 116.762254 233.302762 
L 117.656619 238.779756 
L 118.550984 238.687076 
L 119.445349 238.126604 
L 120.339715 238.339254 
L 121.23408 235.419854 
L 122.128445 238.3193 
L 123.02281 241.699417 
L 123.917175 246.716695 
L 124.81154 246.646896 
L 125.705905 247.675819 
L 126.60027 249.176785 
L 127.494636 249.200765 
L 128.389001 245.559181 
L 129.283366 247.066031 
L 130.177731 246.911113 
L 131.072096 244.186593 
L 131.966461 243.353936 
L 132.860826 245.56051 
L 133.755192 253.940731 
L 134.649557 254.947761 
L 135.543922 255.16318 
L 136.438287 254.890986 
L 137.332652 284.450907 
L 138.227017 277.025533 
L 139.121382 281.421177 
L 140.015748 279.951124 
L 140.910113 283.047222 
L 141.804478 279.997167 
L 142.698843 279.478581 
L 143.593208 271.688588 
L 144.487573 271.936737 
L 145.381938 271.945922 
L 146.276304 275.539109 
L 147.170669 269.208795 
L 148.065034 266.596642 
L 148.959399 267.241966 
L 149.853764 266.865933 
L 150.748129 270.30551 
L 151.642494 271.37781 
L 152.53686 274.992919 
L 153.431225 269.820867 
L 154.32559 269.823954 
L 155.219955 267.4603 
L 156.11432 266.057376 
L 157.008685 266.664461 
L 157.90305 265.499039 
L 158.797415 266.364751 
L 159.691781 260.944293 
L 160.586146 262.393494 
L 161.480511 260.619154 
L 162.374876 261.405773 
L 163.269241 265.366046 
L 165.057971 264.985092 
L 165.952337 265.564252 
L 166.846702 265.447519 
L 167.741067 267.650488 
L 168.635432 263.084293 
L 169.529797 263.893888 
L 170.424162 261.689501 
L 171.318527 262.8898 
L 172.212893 265.664296 
L 173.107258 265.516506 
L 174.001623 262.87244 
L 174.895988 259.474306 
L 175.790353 259.342122 
L 176.684718 258.887886 
L 177.579083 257.342089 
L 178.473449 256.568417 
L 179.367814 256.81758 
L 180.262179 246.916785 
L 181.156544 248.330071 
L 182.050909 246.391264 
L 182.945274 244.813608 
L 183.839639 245.462875 
L 184.734005 245.791901 
L 186.522735 243.066689 
L 187.4171 235.107359 
L 188.311465 236.824337 
L 189.20583 239.127254 
L 190.100195 247.120899 
L 190.99456 248.739431 
L 191.888926 246.547734 
L 193.677656 237.076723 
L 194.572021 241.747619 
L 195.466386 241.086489 
L 196.360751 238.307781 
L 197.255116 237.937124 
L 198.149482 237.233386 
L 199.043847 239.839106 
L 199.938212 244.072942 
L 200.832577 243.048134 
L 201.726942 243.05559 
L 202.621307 247.466386 
L 203.515672 245.742565 
L 204.410038 246.441929 
L 206.198768 239.307521 
L 207.093133 240.679203 
L 207.987498 238.061857 
L 208.881863 240.41722 
L 209.776228 233.144918 
L 210.670594 239.505588 
L 212.459324 237.178634 
L 213.353689 238.566429 
L 214.248054 238.137897 
L 215.142419 237.461051 
L 216.036784 237.188671 
L 216.93115 237.210943 
L 217.825515 236.151142 
L 218.71988 241.919189 
L 219.614245 240.080524 
L 220.50861 240.09953 
L 221.402975 241.443087 
L 222.29734 240.642853 
L 223.191705 239.506062 
L 225.874801 241.703482 
L 226.769166 241.229389 
L 227.663531 241.906197 
L 228.557896 238.225237 
L 229.452261 238.74559 
L 230.346627 241.717891 
L 231.240992 242.265891 
L 232.135357 243.102879 
L 233.029722 244.577713 
L 233.924087 243.546871 
L 234.818452 242.904499 
L 235.712817 243.323265 
L 236.607183 242.462576 
L 237.501548 243.762559 
L 238.395913 244.062333 
L 239.290278 243.360472 
L 240.184643 243.917487 
L 241.079008 241.477422 
L 241.973373 242.144185 
L 242.867739 240.599889 
L 243.762104 242.286352 
L 244.656469 241.929513 
L 245.550834 242.411079 
L 246.445199 241.797834 
L 247.339564 242.397423 
L 248.233929 242.352133 
L 250.02266 243.309617 
L 250.917025 243.223218 
L 251.81139 243.011951 
L 252.705755 242.65281 
L 253.60012 243.129433 
L 254.494485 241.038799 
L 255.38885 239.535852 
L 256.283216 238.809101 
L 257.177581 239.457381 
L 258.071946 237.814207 
L 258.966311 235.629386 
L 259.860676 225.209835 
L 260.755041 225.928924 
L 261.649406 224.296719 
L 262.543772 224.313124 
L 263.438137 221.562722 
L 264.332502 217.355072 
L 265.226867 224.655414 
L 266.121232 222.844693 
L 267.015597 223.414118 
L 267.909962 218.098326 
L 268.804328 217.707246 
L 269.698693 219.12597 
L 270.593058 217.737731 
L 271.487423 218.532716 
L 272.381788 216.508681 
L 273.276153 221.298126 
L 274.170518 219.710594 
L 275.064884 217.665027 
L 275.959249 217.81279 
L 276.853614 216.935242 
L 277.747979 216.447586 
L 278.642344 212.851446 
L 279.536709 216.146361 
L 280.431074 217.521975 
L 281.32544 216.905299 
L 282.219805 219.83164 
L 283.11417 218.66545 
L 284.008535 218.886001 
L 284.9029 217.857788 
L 285.797265 222.004312 
L 286.69163 220.756133 
L 287.585995 221.927156 
L 288.480361 220.320642 
L 289.374726 220.535928 
L 290.269091 218.318721 
L 291.163456 218.731036 
L 292.057821 216.164721 
L 292.952186 221.104783 
L 293.846551 232.970649 
L 294.740917 230.269509 
L 295.635282 233.180142 
L 296.529647 232.284939 
L 297.424012 231.187162 
L 298.318377 233.57505 
L 299.212742 232.736334 
L 300.107107 231.52952 
L 301.895838 230.616734 
L 302.790203 231.641888 
L 303.684568 228.424253 
L 304.578933 227.237776 
L 305.473298 225.622929 
L 306.367663 225.863536 
L 307.262029 225.788316 
L 308.156394 224.383816 
L 309.050759 225.982711 
L 309.945124 230.673652 
L 310.839489 229.588875 
L 311.733854 232.486933 
L 312.628219 227.821683 
L 313.522585 228.174476 
L 315.311315 227.434406 
L 316.20568 228.291847 
L 317.100045 226.865568 
L 317.99441 227.390357 
L 318.888775 228.900305 
L 319.78314 229.291261 
L 320.677506 229.514809 
L 322.466236 227.373483 
L 323.360601 228.865392 
L 324.254966 228.459938 
L 325.149331 225.935961 
L 326.043696 224.832306 
L 326.938062 222.377373 
L 327.832427 221.5952 
L 328.726792 220.02827 
L 329.621157 220.894814 
L 330.515522 221.099836 
L 331.409887 220.187236 
L 332.304252 222.019947 
L 333.198618 221.61893 
L 334.092983 220.222427 
L 334.987348 217.984769 
L 335.881713 216.330845 
L 336.776078 207.847669 
L 337.670443 205.89604 
L 338.564808 206.545559 
L 339.459174 204.630151 
L 340.353539 205.405569 
L 341.247904 204.987301 
L 342.142269 199.261347 
L 343.036634 202.918638 
L 343.930999 201.13362 
L 344.825364 200.197833 
L 345.71973 197.958003 
L 346.614095 198.300807 
L 347.50846 200.230159 
L 348.402825 196.169197 
L 349.29719 194.470044 
L 350.191555 180.962639 
L 351.08592 180.708835 
L 351.980285 187.932043 
L 352.874651 181.680218 
L 353.769016 182.710152 
L 354.663381 183.269032 
L 355.557746 179.35326 
L 356.452111 173.744656 
L 357.346476 173.574309 
L 358.240841 175.786244 
L 359.135207 176.873845 
L 360.029572 169.722883 
L 360.923937 160.408918 
L 361.818302 159.174832 
L 362.712667 158.820178 
L 363.607032 150.6112 
L 364.501397 150.62822 
L 365.395763 153.19352 
L 366.290128 153.455518 
L 367.184493 146.496439 
L 368.078858 150.047955 
L 368.973223 165.02757 
L 369.867588 165.365374 
L 370.761953 159.641744 
L 371.656319 155.251369 
L 372.550684 140.823067 
L 373.445049 149.663781 
L 374.339414 145.288806 
L 375.233779 143.324269 
L 376.128144 150.387001 
L 377.022509 145.780175 
L 377.916875 143.619719 
L 378.81124 145.490181 
L 379.705605 153.782508 
L 380.59997 151.516147 
L 381.494335 154.750226 
L 382.3887 156.549886 
L 383.283065 149.11305 
L 384.177431 145.93341 
L 385.071796 144.807758 
L 385.966161 143.228523 
L 386.860526 124.866983 
L 387.754891 110.68736 
L 388.649256 107.183437 
L 389.543621 100.417302 
L 390.437986 103.394214 
L 391.332352 110.790537 
L 392.226717 100.080931 
L 393.121082 105.60583 
L 394.015447 101.212143 
L 394.909812 92.047326 
L 395.804177 74.996664 
L 396.698542 76.39924 
L 397.592908 68.671806 
L 398.487273 65.935431 
L 398.487273 65.935431 
" style="fill:none;stroke:#d62728;stroke-linecap:square;stroke-width:1.5;"/>
   </g>
   <g id="patch_3">
    <path d="M 57.6 307.584 
L 57.6 41.472 
" style="fill:none;stroke:#000000;stroke-linecap:square;stroke-linejoin:miter;stroke-width:0.8;"/>
   </g>
   <g id="patch_4">
    <path d="M 414.72 307.584 
L 414.72 41.472 
" style="fill:none;stroke:#000000;stroke-linecap:square;stroke-linejoin:miter;stroke-width:0.8;"/>
   </g>
   <g id="patch_5">
    <path d="M 57.6 307.584 
L 414.72 307.584 
" style="fill:none;stroke:#000000;stroke-linecap:square;stroke-linejoin:miter;stroke-width:0.8;"/>
   </g>
   <g id="patch_6">
    <path d="M 57.6 41.472 
L 414.72 41.472 
" style="fill:none;stroke:#000000;stroke-linecap:square;stroke-linejoin:miter;stroke-width:0.8;"/>
   </g>
   <g id="text_13">
    <!-- Data source: nomics -->
    <g transform="translate(184.91625 35.472)scale(0.1 -0.1)">
     <defs>
      <path d="M 19.671875 64.796875 
L 19.671875 8.109375 
L 31.59375 8.109375 
Q 46.6875 8.109375 53.6875 14.9375 
Q 60.6875 21.78125 60.6875 36.53125 
Q 60.6875 51.171875 53.6875 57.984375 
Q 46.6875 64.796875 31.59375 64.796875 
z
M 9.8125 72.90625 
L 30.078125 72.90625 
Q 51.265625 72.90625 61.171875 64.09375 
Q 71.09375 55.28125 71.09375 36.53125 
Q 71.09375 17.671875 61.125 8.828125 
Q 51.171875 0 30.078125 0 
L 9.8125 0 
z
" id="DejaVuSans-68"/>
      <path d="M 34.28125 27.484375 
Q 23.390625 27.484375 19.1875 25 
Q 14.984375 22.515625 14.984375 16.5 
Q 14.984375 11.71875 18.140625 8.90625 
Q 21.296875 6.109375 26.703125 6.109375 
Q 34.1875 6.109375 38.703125 11.40625 
Q 43.21875 16.703125 43.21875 25.484375 
L 43.21875 27.484375 
z
M 52.203125 31.203125 
L 52.203125 0 
L 43.21875 0 
L 43.21875 8.296875 
Q 40.140625 3.328125 35.546875 0.953125 
Q 30.953125 -1.421875 24.3125 -1.421875 
Q 15.921875 -1.421875 10.953125 3.296875 
Q 6 8.015625 6 15.921875 
Q 6 25.140625 12.171875 29.828125 
Q 18.359375 34.515625 30.609375 34.515625 
L 43.21875 34.515625 
L 43.21875 35.40625 
Q 43.21875 41.609375 39.140625 45 
Q 35.0625 48.390625 27.6875 48.390625 
Q 23 48.390625 18.546875 47.265625 
Q 14.109375 46.140625 10.015625 43.890625 
L 10.015625 52.203125 
Q 14.9375 54.109375 19.578125 55.046875 
Q 24.21875 56 28.609375 56 
Q 40.484375 56 46.34375 49.84375 
Q 52.203125 43.703125 52.203125 31.203125 
z
" id="DejaVuSans-97"/>
      <path d="M 18.3125 70.21875 
L 18.3125 54.6875 
L 36.8125 54.6875 
L 36.8125 47.703125 
L 18.3125 47.703125 
L 18.3125 18.015625 
Q 18.3125 11.328125 20.140625 9.421875 
Q 21.96875 7.515625 27.59375 7.515625 
L 36.8125 7.515625 
L 36.8125 0 
L 27.59375 0 
Q 17.1875 0 13.234375 3.875 
Q 9.28125 7.765625 9.28125 18.015625 
L 9.28125 47.703125 
L 2.6875 47.703125 
L 2.6875 54.6875 
L 9.28125 54.6875 
L 9.28125 70.21875 
z
" id="DejaVuSans-116"/>
      <path id="DejaVuSans-32"/>
      <path d="M 44.28125 53.078125 
L 44.28125 44.578125 
Q 40.484375 46.53125 36.375 47.5 
Q 32.28125 48.484375 27.875 48.484375 
Q 21.1875 48.484375 17.84375 46.4375 
Q 14.5 44.390625 14.5 40.28125 
Q 14.5 37.15625 16.890625 35.375 
Q 19.28125 33.59375 26.515625 31.984375 
L 29.59375 31.296875 
Q 39.15625 29.25 43.1875 25.515625 
Q 47.21875 21.78125 47.21875 15.09375 
Q 47.21875 7.46875 41.1875 3.015625 
Q 35.15625 -1.421875 24.609375 -1.421875 
Q 20.21875 -1.421875 15.453125 -0.5625 
Q 10.6875 0.296875 5.421875 2 
L 5.421875 11.28125 
Q 10.40625 8.6875 15.234375 7.390625 
Q 20.0625 6.109375 24.8125 6.109375 
Q 31.15625 6.109375 34.5625 8.28125 
Q 37.984375 10.453125 37.984375 14.40625 
Q 37.984375 18.0625 35.515625 20.015625 
Q 33.0625 21.96875 24.703125 23.78125 
L 21.578125 24.515625 
Q 13.234375 26.265625 9.515625 29.90625 
Q 5.8125 33.546875 5.8125 39.890625 
Q 5.8125 47.609375 11.28125 51.796875 
Q 16.75 56 26.8125 56 
Q 31.78125 56 36.171875 55.265625 
Q 40.578125 54.546875 44.28125 53.078125 
z
" id="DejaVuSans-115"/>
      <path d="M 30.609375 48.390625 
Q 23.390625 48.390625 19.1875 42.75 
Q 14.984375 37.109375 14.984375 27.296875 
Q 14.984375 17.484375 19.15625 11.84375 
Q 23.34375 6.203125 30.609375 6.203125 
Q 37.796875 6.203125 41.984375 11.859375 
Q 46.1875 17.53125 46.1875 27.296875 
Q 46.1875 37.015625 41.984375 42.703125 
Q 37.796875 48.390625 30.609375 48.390625 
z
M 30.609375 56 
Q 42.328125 56 49.015625 48.375 
Q 55.71875 40.765625 55.71875 27.296875 
Q 55.71875 13.875 49.015625 6.21875 
Q 42.328125 -1.421875 30.609375 -1.421875 
Q 18.84375 -1.421875 12.171875 6.21875 
Q 5.515625 13.875 5.515625 27.296875 
Q 5.515625 40.765625 12.171875 48.375 
Q 18.84375 56 30.609375 56 
z
" id="DejaVuSans-111"/>
      <path d="M 8.5 21.578125 
L 8.5 54.6875 
L 17.484375 54.6875 
L 17.484375 21.921875 
Q 17.484375 14.15625 20.5 10.265625 
Q 23.53125 6.390625 29.59375 6.390625 
Q 36.859375 6.390625 41.078125 11.03125 
Q 45.3125 15.671875 45.3125 23.6875 
L 45.3125 54.6875 
L 54.296875 54.6875 
L 54.296875 0 
L 45.3125 0 
L 45.3125 8.40625 
Q 42.046875 3.421875 37.71875 1 
Q 33.40625 -1.421875 27.6875 -1.421875 
Q 18.265625 -1.421875 13.375 4.4375 
Q 8.5 10.296875 8.5 21.578125 
z
M 31.109375 56 
z
" id="DejaVuSans-117"/>
      <path d="M 41.109375 46.296875 
Q 39.59375 47.171875 37.8125 47.578125 
Q 36.03125 48 33.890625 48 
Q 26.265625 48 22.1875 43.046875 
Q 18.109375 38.09375 18.109375 28.8125 
L 18.109375 0 
L 9.078125 0 
L 9.078125 54.6875 
L 18.109375 54.6875 
L 18.109375 46.1875 
Q 20.953125 51.171875 25.484375 53.578125 
Q 30.03125 56 36.53125 56 
Q 37.453125 56 38.578125 55.875 
Q 39.703125 55.765625 41.0625 55.515625 
z
" id="DejaVuSans-114"/>
      <path d="M 48.78125 52.59375 
L 48.78125 44.1875 
Q 44.96875 46.296875 41.140625 47.34375 
Q 37.3125 48.390625 33.40625 48.390625 
Q 24.65625 48.390625 19.8125 42.84375 
Q 14.984375 37.3125 14.984375 27.296875 
Q 14.984375 17.28125 19.8125 11.734375 
Q 24.65625 6.203125 33.40625 6.203125 
Q 37.3125 6.203125 41.140625 7.25 
Q 44.96875 8.296875 48.78125 10.40625 
L 48.78125 2.09375 
Q 45.015625 0.34375 40.984375 -0.53125 
Q 36.96875 -1.421875 32.421875 -1.421875 
Q 20.0625 -1.421875 12.78125 6.34375 
Q 5.515625 14.109375 5.515625 27.296875 
Q 5.515625 40.671875 12.859375 48.328125 
Q 20.21875 56 33.015625 56 
Q 37.15625 56 41.109375 55.140625 
Q 45.0625 54.296875 48.78125 52.59375 
z
" id="DejaVuSans-99"/>
      <path d="M 56.203125 29.59375 
L 56.203125 25.203125 
L 14.890625 25.203125 
Q 15.484375 15.921875 20.484375 11.0625 
Q 25.484375 6.203125 34.421875 6.203125 
Q 39.59375 6.203125 44.453125 7.46875 
Q 49.3125 8.734375 54.109375 11.28125 
L 54.109375 2.78125 
Q 49.265625 0.734375 44.1875 -0.34375 
Q 39.109375 -1.421875 33.890625 -1.421875 
Q 20.796875 -1.421875 13.15625 6.1875 
Q 5.515625 13.8125 5.515625 26.8125 
Q 5.515625 40.234375 12.765625 48.109375 
Q 20.015625 56 32.328125 56 
Q 43.359375 56 49.78125 48.890625 
Q 56.203125 41.796875 56.203125 29.59375 
z
M 47.21875 32.234375 
Q 47.125 39.59375 43.09375 43.984375 
Q 39.0625 48.390625 32.421875 48.390625 
Q 24.90625 48.390625 20.390625 44.140625 
Q 15.875 39.890625 15.1875 32.171875 
z
" id="DejaVuSans-101"/>
      <path d="M 11.71875 12.40625 
L 22.015625 12.40625 
L 22.015625 0 
L 11.71875 0 
z
M 11.71875 51.703125 
L 22.015625 51.703125 
L 22.015625 39.3125 
L 11.71875 39.3125 
z
" id="DejaVuSans-58"/>
      <path d="M 54.890625 33.015625 
L 54.890625 0 
L 45.90625 0 
L 45.90625 32.71875 
Q 45.90625 40.484375 42.875 44.328125 
Q 39.84375 48.1875 33.796875 48.1875 
Q 26.515625 48.1875 22.3125 43.546875 
Q 18.109375 38.921875 18.109375 30.90625 
L 18.109375 0 
L 9.078125 0 
L 9.078125 54.6875 
L 18.109375 54.6875 
L 18.109375 46.1875 
Q 21.34375 51.125 25.703125 53.5625 
Q 30.078125 56 35.796875 56 
Q 45.21875 56 50.046875 50.171875 
Q 54.890625 44.34375 54.890625 33.015625 
z
" id="DejaVuSans-110"/>
      <path d="M 52 44.1875 
Q 55.375 50.25 60.0625 53.125 
Q 64.75 56 71.09375 56 
Q 79.640625 56 84.28125 50.015625 
Q 88.921875 44.046875 88.921875 33.015625 
L 88.921875 0 
L 79.890625 0 
L 79.890625 32.71875 
Q 79.890625 40.578125 77.09375 44.375 
Q 74.3125 48.1875 68.609375 48.1875 
Q 61.625 48.1875 57.5625 43.546875 
Q 53.515625 38.921875 53.515625 30.90625 
L 53.515625 0 
L 44.484375 0 
L 44.484375 32.71875 
Q 44.484375 40.625 41.703125 44.40625 
Q 38.921875 48.1875 33.109375 48.1875 
Q 26.21875 48.1875 22.15625 43.53125 
Q 18.109375 38.875 18.109375 30.90625 
L 18.109375 0 
L 9.078125 0 
L 9.078125 54.6875 
L 18.109375 54.6875 
L 18.109375 46.1875 
Q 21.1875 51.21875 25.484375 53.609375 
Q 29.78125 56 35.6875 56 
Q 41.65625 56 45.828125 52.96875 
Q 50 49.953125 52 44.1875 
z
" id="DejaVuSans-109"/>
      <path d="M 9.421875 54.6875 
L 18.40625 54.6875 
L 18.40625 0 
L 9.421875 0 
z
M 9.421875 75.984375 
L 18.40625 75.984375 
L 18.40625 64.59375 
L 9.421875 64.59375 
z
" id="DejaVuSans-105"/>
     </defs>
     <use xlink:href="#DejaVuSans-68"/>
     <use x="77.001953" xlink:href="#DejaVuSans-97"/>
     <use x="138.28125" xlink:href="#DejaVuSans-116"/>
     <use x="177.490234" xlink:href="#DejaVuSans-97"/>
     <use x="238.769531" xlink:href="#DejaVuSans-32"/>
     <use x="270.556641" xlink:href="#DejaVuSans-115"/>
     <use x="322.65625" xlink:href="#DejaVuSans-111"/>
     <use x="383.837891" xlink:href="#DejaVuSans-117"/>
     <use x="447.216797" xlink:href="#DejaVuSans-114"/>
     <use x="486.080078" xlink:href="#DejaVuSans-99"/>
     <use x="541.060547" xlink:href="#DejaVuSans-101"/>
     <use x="602.583984" xlink:href="#DejaVuSans-58"/>
     <use x="636.275391" xlink:href="#DejaVuSans-32"/>
     <use x="668.0625" xlink:href="#DejaVuSans-110"/>
     <use x="731.441406" xlink:href="#DejaVuSans-111"/>
     <use x="792.623047" xlink:href="#DejaVuSans-109"/>
     <use x="890.035156" xlink:href="#DejaVuSans-105"/>
     <use x="917.818359" xlink:href="#DejaVuSans-99"/>
     <use x="972.798828" xlink:href="#DejaVuSans-115"/>
    </g>
   </g>
   <g id="legend_1">
    <g id="patch_7">
     <path d="M 64.6 108.1845 
L 155.732812 108.1845 
Q 157.732812 108.1845 157.732812 106.1845 
L 157.732812 48.472 
Q 157.732812 46.472 155.732812 46.472 
L 64.6 46.472 
Q 62.6 46.472 62.6 48.472 
L 62.6 106.1845 
Q 62.6 108.1845 64.6 108.1845 
z
" style="fill:#ffffff;opacity:0.8;stroke:#cccccc;stroke-linejoin:miter;"/>
    </g>
    <g id="line2d_17">
     <path d="M 66.6 54.570438 
L 86.6 54.570438 
" style="fill:none;stroke:#1f77b4;stroke-linecap:square;stroke-width:1.5;"/>
    </g>
    <g id="line2d_18"/>
    <g id="text_14">
     <!-- Upper Band -->
     <g transform="translate(94.6 58.070438)scale(0.1 -0.1)">
      <defs>
       <path d="M 8.6875 72.90625 
L 18.609375 72.90625 
L 18.609375 28.609375 
Q 18.609375 16.890625 22.84375 11.734375 
Q 27.09375 6.59375 36.625 6.59375 
Q 46.09375 6.59375 50.34375 11.734375 
Q 54.59375 16.890625 54.59375 28.609375 
L 54.59375 72.90625 
L 64.5 72.90625 
L 64.5 27.390625 
Q 64.5 13.140625 57.4375 5.859375 
Q 50.390625 -1.421875 36.625 -1.421875 
Q 22.796875 -1.421875 15.734375 5.859375 
Q 8.6875 13.140625 8.6875 27.390625 
z
" id="DejaVuSans-85"/>
       <path d="M 18.109375 8.203125 
L 18.109375 -20.796875 
L 9.078125 -20.796875 
L 9.078125 54.6875 
L 18.109375 54.6875 
L 18.109375 46.390625 
Q 20.953125 51.265625 25.265625 53.625 
Q 29.59375 56 35.59375 56 
Q 45.5625 56 51.78125 48.09375 
Q 58.015625 40.1875 58.015625 27.296875 
Q 58.015625 14.40625 51.78125 6.484375 
Q 45.5625 -1.421875 35.59375 -1.421875 
Q 29.59375 -1.421875 25.265625 0.953125 
Q 20.953125 3.328125 18.109375 8.203125 
z
M 48.6875 27.296875 
Q 48.6875 37.203125 44.609375 42.84375 
Q 40.53125 48.484375 33.40625 48.484375 
Q 26.265625 48.484375 22.1875 42.84375 
Q 18.109375 37.203125 18.109375 27.296875 
Q 18.109375 17.390625 22.1875 11.75 
Q 26.265625 6.109375 33.40625 6.109375 
Q 40.53125 6.109375 44.609375 11.75 
Q 48.6875 17.390625 48.6875 27.296875 
z
" id="DejaVuSans-112"/>
       <path d="M 19.671875 34.8125 
L 19.671875 8.109375 
L 35.5 8.109375 
Q 43.453125 8.109375 47.28125 11.40625 
Q 51.125 14.703125 51.125 21.484375 
Q 51.125 28.328125 47.28125 31.5625 
Q 43.453125 34.8125 35.5 34.8125 
z
M 19.671875 64.796875 
L 19.671875 42.828125 
L 34.28125 42.828125 
Q 41.5 42.828125 45.03125 45.53125 
Q 48.578125 48.25 48.578125 53.8125 
Q 48.578125 59.328125 45.03125 62.0625 
Q 41.5 64.796875 34.28125 64.796875 
z
M 9.8125 72.90625 
L 35.015625 72.90625 
Q 46.296875 72.90625 52.390625 68.21875 
Q 58.5 63.53125 58.5 54.890625 
Q 58.5 48.1875 55.375 44.234375 
Q 52.25 40.28125 46.1875 39.3125 
Q 53.46875 37.75 57.5 32.78125 
Q 61.53125 27.828125 61.53125 20.40625 
Q 61.53125 10.640625 54.890625 5.3125 
Q 48.25 0 35.984375 0 
L 9.8125 0 
z
" id="DejaVuSans-66"/>
       <path d="M 45.40625 46.390625 
L 45.40625 75.984375 
L 54.390625 75.984375 
L 54.390625 0 
L 45.40625 0 
L 45.40625 8.203125 
Q 42.578125 3.328125 38.25 0.953125 
Q 33.9375 -1.421875 27.875 -1.421875 
Q 17.96875 -1.421875 11.734375 6.484375 
Q 5.515625 14.40625 5.515625 27.296875 
Q 5.515625 40.1875 11.734375 48.09375 
Q 17.96875 56 27.875 56 
Q 33.9375 56 38.25 53.625 
Q 42.578125 51.265625 45.40625 46.390625 
z
M 14.796875 27.296875 
Q 14.796875 17.390625 18.875 11.75 
Q 22.953125 6.109375 30.078125 6.109375 
Q 37.203125 6.109375 41.296875 11.75 
Q 45.40625 17.390625 45.40625 27.296875 
Q 45.40625 37.203125 41.296875 42.84375 
Q 37.203125 48.484375 30.078125 48.484375 
Q 22.953125 48.484375 18.875 42.84375 
Q 14.796875 37.203125 14.796875 27.296875 
z
" id="DejaVuSans-100"/>
      </defs>
      <use xlink:href="#DejaVuSans-85"/>
      <use x="73.193359" xlink:href="#DejaVuSans-112"/>
      <use x="136.669922" xlink:href="#DejaVuSans-112"/>
      <use x="200.146484" xlink:href="#DejaVuSans-101"/>
      <use x="261.669922" xlink:href="#DejaVuSans-114"/>
      <use x="302.783203" xlink:href="#DejaVuSans-32"/>
      <use x="334.570312" xlink:href="#DejaVuSans-66"/>
      <use x="403.173828" xlink:href="#DejaVuSans-97"/>
      <use x="464.453125" xlink:href="#DejaVuSans-110"/>
      <use x="527.832031" xlink:href="#DejaVuSans-100"/>
     </g>
    </g>
    <g id="line2d_19">
     <path d="M 66.6 69.248563 
L 86.6 69.248563 
" style="fill:none;stroke:#ff7f0e;stroke-linecap:square;stroke-width:1.5;"/>
    </g>
    <g id="line2d_20"/>
    <g id="text_15">
     <!-- Lower Band -->
     <g transform="translate(94.6 72.748563)scale(0.1 -0.1)">
      <defs>
       <path d="M 9.8125 72.90625 
L 19.671875 72.90625 
L 19.671875 8.296875 
L 55.171875 8.296875 
L 55.171875 0 
L 9.8125 0 
z
" id="DejaVuSans-76"/>
       <path d="M 4.203125 54.6875 
L 13.1875 54.6875 
L 24.421875 12.015625 
L 35.59375 54.6875 
L 46.1875 54.6875 
L 57.421875 12.015625 
L 68.609375 54.6875 
L 77.59375 54.6875 
L 63.28125 0 
L 52.6875 0 
L 40.921875 44.828125 
L 29.109375 0 
L 18.5 0 
z
" id="DejaVuSans-119"/>
      </defs>
      <use xlink:href="#DejaVuSans-76"/>
      <use x="53.962891" xlink:href="#DejaVuSans-111"/>
      <use x="115.144531" xlink:href="#DejaVuSans-119"/>
      <use x="196.931641" xlink:href="#DejaVuSans-101"/>
      <use x="258.455078" xlink:href="#DejaVuSans-114"/>
      <use x="299.568359" xlink:href="#DejaVuSans-32"/>
      <use x="331.355469" xlink:href="#DejaVuSans-66"/>
      <use x="399.958984" xlink:href="#DejaVuSans-97"/>
      <use x="461.238281" xlink:href="#DejaVuSans-110"/>
      <use x="524.617188" xlink:href="#DejaVuSans-100"/>
     </g>
    </g>
    <g id="line2d_21">
     <path d="M 66.6 83.926688 
L 86.6 83.926688 
" style="fill:none;stroke:#2ca02c;stroke-linecap:square;stroke-width:1.5;"/>
    </g>
    <g id="line2d_22"/>
    <g id="text_16">
     <!-- MA -->
     <g transform="translate(94.6 87.426688)scale(0.1 -0.1)">
      <defs>
       <path d="M 9.8125 72.90625 
L 24.515625 72.90625 
L 43.109375 23.296875 
L 61.8125 72.90625 
L 76.515625 72.90625 
L 76.515625 0 
L 66.890625 0 
L 66.890625 64.015625 
L 48.09375 14.015625 
L 38.1875 14.015625 
L 19.390625 64.015625 
L 19.390625 0 
L 9.8125 0 
z
" id="DejaVuSans-77"/>
       <path d="M 34.1875 63.1875 
L 20.796875 26.90625 
L 47.609375 26.90625 
z
M 28.609375 72.90625 
L 39.796875 72.90625 
L 67.578125 0 
L 57.328125 0 
L 50.6875 18.703125 
L 17.828125 18.703125 
L 11.1875 0 
L 0.78125 0 
z
" id="DejaVuSans-65"/>
      </defs>
      <use xlink:href="#DejaVuSans-77"/>
      <use x="86.279297" xlink:href="#DejaVuSans-65"/>
     </g>
    </g>
    <g id="line2d_23">
     <path d="M 66.6 98.604813 
L 86.6 98.604813 
" style="fill:none;stroke:#d62728;stroke-linecap:square;stroke-width:1.5;"/>
    </g>
    <g id="line2d_24"/>
    <g id="text_17">
     <!-- BTC-USD -->
     <g transform="translate(94.6 102.104813)scale(0.1 -0.1)">
      <defs>
       <path d="M -0.296875 72.90625 
L 61.375 72.90625 
L 61.375 64.59375 
L 35.5 64.59375 
L 35.5 0 
L 25.59375 0 
L 25.59375 64.59375 
L -0.296875 64.59375 
z
" id="DejaVuSans-84"/>
       <path d="M 64.40625 67.28125 
L 64.40625 56.890625 
Q 59.421875 61.53125 53.78125 63.8125 
Q 48.140625 66.109375 41.796875 66.109375 
Q 29.296875 66.109375 22.65625 58.46875 
Q 16.015625 50.828125 16.015625 36.375 
Q 16.015625 21.96875 22.65625 14.328125 
Q 29.296875 6.6875 41.796875 6.6875 
Q 48.140625 6.6875 53.78125 8.984375 
Q 59.421875 11.28125 64.40625 15.921875 
L 64.40625 5.609375 
Q 59.234375 2.09375 53.4375 0.328125 
Q 47.65625 -1.421875 41.21875 -1.421875 
Q 24.65625 -1.421875 15.125 8.703125 
Q 5.609375 18.84375 5.609375 36.375 
Q 5.609375 53.953125 15.125 64.078125 
Q 24.65625 74.21875 41.21875 74.21875 
Q 47.75 74.21875 53.53125 72.484375 
Q 59.328125 70.75 64.40625 67.28125 
z
" id="DejaVuSans-67"/>
       <path d="M 53.515625 70.515625 
L 53.515625 60.890625 
Q 47.90625 63.578125 42.921875 64.890625 
Q 37.9375 66.21875 33.296875 66.21875 
Q 25.25 66.21875 20.875 63.09375 
Q 16.5 59.96875 16.5 54.203125 
Q 16.5 49.359375 19.40625 46.890625 
Q 22.3125 44.4375 30.421875 42.921875 
L 36.375 41.703125 
Q 47.40625 39.59375 52.65625 34.296875 
Q 57.90625 29 57.90625 20.125 
Q 57.90625 9.515625 50.796875 4.046875 
Q 43.703125 -1.421875 29.984375 -1.421875 
Q 24.8125 -1.421875 18.96875 -0.25 
Q 13.140625 0.921875 6.890625 3.21875 
L 6.890625 13.375 
Q 12.890625 10.015625 18.65625 8.296875 
Q 24.421875 6.59375 29.984375 6.59375 
Q 38.421875 6.59375 43.015625 9.90625 
Q 47.609375 13.234375 47.609375 19.390625 
Q 47.609375 24.75 44.3125 27.78125 
Q 41.015625 30.8125 33.5 32.328125 
L 27.484375 33.5 
Q 16.453125 35.6875 11.515625 40.375 
Q 6.59375 45.0625 6.59375 53.421875 
Q 6.59375 63.09375 13.40625 68.65625 
Q 20.21875 74.21875 32.171875 74.21875 
Q 37.3125 74.21875 42.625 73.28125 
Q 47.953125 72.359375 53.515625 70.515625 
z
" id="DejaVuSans-83"/>
      </defs>
      <use xlink:href="#DejaVuSans-66"/>
      <use x="68.603516" xlink:href="#DejaVuSans-84"/>
      <use x="123.8125" xlink:href="#DejaVuSans-67"/>
      <use x="193.636719" xlink:href="#DejaVuSans-45"/>
      <use x="229.720703" xlink:href="#DejaVuSans-85"/>
      <use x="302.914062" xlink:href="#DejaVuSans-83"/>
      <use x="366.390625" xlink:href="#DejaVuSans-68"/>
     </g>
    </g>
   </g>
  </g>
  <g id="text_18">
   <!-- Bollinger Band -->
   <g transform="translate(171.90625 19.0695)scale(0.16 -0.16)">
    <defs>
     <path d="M 9.421875 75.984375 
L 18.40625 75.984375 
L 18.40625 0 
L 9.421875 0 
z
" id="DejaVuSans-108"/>
     <path d="M 45.40625 27.984375 
Q 45.40625 37.75 41.375 43.109375 
Q 37.359375 48.484375 30.078125 48.484375 
Q 22.859375 48.484375 18.828125 43.109375 
Q 14.796875 37.75 14.796875 27.984375 
Q 14.796875 18.265625 18.828125 12.890625 
Q 22.859375 7.515625 30.078125 7.515625 
Q 37.359375 7.515625 41.375 12.890625 
Q 45.40625 18.265625 45.40625 27.984375 
z
M 54.390625 6.78125 
Q 54.390625 -7.171875 48.1875 -13.984375 
Q 42 -20.796875 29.203125 -20.796875 
Q 24.46875 -20.796875 20.265625 -20.09375 
Q 16.0625 -19.390625 12.109375 -17.921875 
L 12.109375 -9.1875 
Q 16.0625 -11.328125 19.921875 -12.34375 
Q 23.78125 -13.375 27.78125 -13.375 
Q 36.625 -13.375 41.015625 -8.765625 
Q 45.40625 -4.15625 45.40625 5.171875 
L 45.40625 9.625 
Q 42.625 4.78125 38.28125 2.390625 
Q 33.9375 0 27.875 0 
Q 17.828125 0 11.671875 7.65625 
Q 5.515625 15.328125 5.515625 27.984375 
Q 5.515625 40.671875 11.671875 48.328125 
Q 17.828125 56 27.875 56 
Q 33.9375 56 38.28125 53.609375 
Q 42.625 51.21875 45.40625 46.390625 
L 45.40625 54.6875 
L 54.390625 54.6875 
z
" id="DejaVuSans-103"/>
    </defs>
    <use xlink:href="#DejaVuSans-66"/>
    <use x="68.603516" xlink:href="#DejaVuSans-111"/>
    <use x="129.785156" xlink:href="#DejaVuSans-108"/>
    <use x="157.568359" xlink:href="#DejaVuSans-108"/>
    <use x="185.351562" xlink:href="#DejaVuSans-105"/>
    <use x="213.134766" xlink:href="#DejaVuSans-110"/>
    <use x="276.513672" xlink:href="#DejaVuSans-103"/>
    <use x="339.990234" xlink:href="#DejaVuSans-101"/>
    <use x="401.513672" xlink:href="#DejaVuSans-114"/>
    <use x="442.626953" xlink:href="#DejaVuSans-32"/>
    <use x="474.414062" xlink:href="#DejaVuSans-66"/>
    <use x="543.017578" xlink:href="#DejaVuSans-97"/>
    <use x="604.296875" xlink:href="#DejaVuSans-110"/>
    <use x="667.675781" xlink:href="#DejaVuSans-100"/>
   </g>
  </g>
 </g>
 <defs>
  <clipPath id="p8a5a5f91c7">
   <rect height="266.112" width="357.12" x="57.6" y="41.472"/>
  </clipPath>
 </defs>
</svg>
