<?xml version="1.0" encoding="utf-8" standalone="no"?>
<!DOCTYPE svg PUBLIC "-//W3C//DTD SVG 1.1//EN"
  "http://www.w3.org/Graphics/SVG/1.1/DTD/svg11.dtd">
<!-- Created with matplotlib (https://matplotlib.org/) -->
<svg height="345.6pt" version="1.1" viewBox="0 0 460.8 345.6" width="460.8pt" xmlns="http://www.w3.org/2000/svg" xmlns:xlink="http://www.w3.org/1999/xlink">
 <metadata>
  <rdf:RDF xmlns:cc="http://creativecommons.org/ns#" xmlns:dc="http://purl.org/dc/elements/1.1/" xmlns:rdf="http://www.w3.org/1999/02/22-rdf-syntax-ns#">
   <cc:Work>
    <dc:type rdf:resource="http://purl.org/dc/dcmitype/StillImage"/>
    <dc:date>2021-02-08T19:00:18.526273</dc:date>
    <dc:format>image/svg+xml</dc:format>
    <dc:creator>
     <cc:Agent>
      <dc:title>Matplotlib v3.3.2, https://matplotlib.org/</dc:title>
     </cc:Agent>
    </dc:creator>
   </cc:Work>
  </rdf:RDF>
 </metadata>
 <defs>
  <style type="text/css">*{stroke-linecap:butt;stroke-linejoin:round;}</style>
 </defs>
 <g id="figure_1">
  <g id="patch_1">
   <path d="M 0 345.6 
L 460.8 345.6 
L 460.8 0 
L 0 0 
z
" style="fill:#ffffff;"/>
  </g>
  <g id="axes_1">
   <g id="patch_2">
    <path d="M 57.6 307.584 
L 414.72 307.584 
L 414.72 41.472 
L 57.6 41.472 
z
" style="fill:#ffffff;"/>
   </g>
   <g id="PolyCollection_1">
    <defs>
     <path d="M 89.101134 -67.753976 
L 89.101134 -81.81606 
L 89.904734 -81.985056 
L 90.708335 -81.740092 
L 91.511935 -81.528809 
L 92.315536 -81.217046 
L 93.119136 -80.697818 
L 93.922736 -80.570883 
L 94.726337 -80.854761 
L 95.529937 -81.669439 
L 96.333537 -81.983138 
L 97.137138 -82.730513 
L 97.940738 -83.002214 
L 98.744338 -83.320375 
L 99.547939 -83.398044 
L 100.351539 -83.651642 
L 101.15514 -83.796237 
L 101.95874 -84.339807 
L 102.76234 -84.977278 
L 103.565941 -85.607215 
L 104.369541 -86.247785 
L 105.173141 -87.094657 
L 105.976742 -87.489798 
L 106.780342 -88.232203 
L 107.583942 -88.752801 
L 108.387543 -88.975901 
L 109.191143 -89.013287 
L 109.994743 -88.699222 
L 110.798344 -88.539312 
L 111.601944 -88.531325 
L 112.405545 -88.726041 
L 113.209145 -88.715942 
L 114.012745 -88.647441 
L 114.816346 -88.587308 
L 115.619946 -88.480546 
L 116.423546 -88.370876 
L 117.227147 -88.015181 
L 118.030747 -88.217555 
L 118.834347 -88.983664 
L 119.637948 -89.438751 
L 120.441548 -89.7922 
L 121.245149 -89.967148 
L 122.048749 -90.168918 
L 122.852349 -89.739704 
L 123.65595 -89.178186 
L 124.45955 -88.631416 
L 125.26315 -87.757223 
L 126.066751 -87.34556 
L 126.870351 -86.85464 
L 127.673951 -86.949228 
L 128.477552 -86.354674 
L 129.281152 -86.291804 
L 130.084752 -86.020488 
L 130.888353 -89.603127 
L 131.691953 -90.315853 
L 132.495554 -90.564428 
L 133.299154 -90.37023 
L 134.102754 -90.315342 
L 134.906355 -90.118785 
L 135.709955 -89.623033 
L 136.513555 -88.808368 
L 137.317156 -88.019402 
L 138.120756 -87.128076 
L 138.924356 -85.779201 
L 139.727957 -84.432712 
L 140.531557 -83.022662 
L 141.335158 -81.042915 
L 142.138758 -78.654107 
L 142.942358 -76.320821 
L 143.745959 -74.848958 
L 144.549559 -73.255822 
L 145.353159 -71.748394 
L 146.15676 -69.777112 
L 146.96036 -69.854354 
L 147.76396 -70.350421 
L 148.567561 -70.44646 
L 149.371161 -70.653526 
L 150.174761 -70.274437 
L 150.978362 -70.550752 
L 151.781962 -70.725819 
L 152.585563 -71.321504 
L 153.389163 -71.793147 
L 154.192763 -71.849799 
L 154.996364 -71.478106 
L 155.799964 -71.694722 
L 156.603564 -71.693897 
L 157.407165 -71.742958 
L 158.210765 -71.74522 
L 159.014365 -71.877316 
L 159.817966 -71.843514 
L 160.621566 -71.311272 
L 161.425167 -71.36363 
L 162.228767 -71.153655 
L 163.032367 -71.09129 
L 163.835968 -71.156197 
L 164.639568 -71.619935 
L 165.443168 -71.969559 
L 166.246769 -72.346016 
L 167.050369 -72.636859 
L 167.853969 -72.955542 
L 168.65757 -73.323601 
L 169.46117 -74.507407 
L 170.26477 -76.314592 
L 171.068371 -77.747357 
L 171.871971 -79.145577 
L 172.675572 -80.136788 
L 173.479172 -80.970584 
L 174.282772 -81.679553 
L 175.086373 -82.7815 
L 175.889973 -83.851378 
L 176.693573 -85.577055 
L 177.497174 -86.660316 
L 178.300774 -86.425331 
L 179.104374 -86.180743 
L 179.907975 -85.914645 
L 180.711575 -86.008557 
L 181.515176 -86.335496 
L 182.318776 -86.489361 
L 183.122376 -86.397748 
L 183.925977 -86.429636 
L 184.729577 -86.075469 
L 185.533177 -86.231936 
L 186.336778 -86.552095 
L 187.140378 -86.545094 
L 187.943978 -86.523589 
L 188.747579 -86.467558 
L 189.551179 -86.388028 
L 190.354779 -86.444431 
L 191.15838 -86.482251 
L 191.96198 -86.453276 
L 192.765581 -85.871981 
L 193.569181 -85.635114 
L 194.372781 -85.480503 
L 195.176382 -85.539974 
L 195.979982 -85.458258 
L 196.783582 -86.1741 
L 197.587183 -86.180873 
L 198.390783 -86.183623 
L 199.194383 -86.427319 
L 199.997984 -86.353961 
L 200.801584 -86.344822 
L 201.605185 -86.29503 
L 202.408785 -86.214175 
L 203.212385 -86.390542 
L 204.015986 -86.590419 
L 204.819586 -86.594667 
L 205.623186 -86.586127 
L 206.426787 -86.249552 
L 207.230387 -86.01498 
L 208.033987 -85.671689 
L 208.837588 -85.561943 
L 209.641188 -85.562105 
L 210.444788 -85.620189 
L 211.248389 -85.646505 
L 212.051989 -85.648372 
L 212.85559 -84.952496 
L 213.65919 -84.951104 
L 214.46279 -84.945842 
L 215.266391 -84.69864 
L 216.069991 -84.68138 
L 216.873591 -84.640444 
L 217.677192 -84.571704 
L 218.480792 -84.4259 
L 219.284392 -84.132809 
L 220.087993 -83.655136 
L 220.891593 -83.550019 
L 221.695194 -83.490617 
L 222.498794 -83.423643 
L 223.302394 -83.439694 
L 224.105995 -83.272015 
L 224.909595 -83.120565 
L 225.713195 -82.993953 
L 226.516796 -83.080095 
L 227.320396 -83.03688 
L 228.123996 -83.001566 
L 228.927597 -82.829446 
L 229.731197 -82.441686 
L 230.534797 -82.087224 
L 231.338398 -82.049074 
L 232.141998 -82.050212 
L 232.945599 -82.04855 
L 233.749199 -81.976351 
L 234.552799 -81.966599 
L 235.3564 -81.96998 
L 236.16 -81.979053 
L 236.9636 -82.105988 
L 237.767201 -82.439401 
L 238.570801 -82.747347 
L 239.374401 -83.075048 
L 240.178002 -83.547816 
L 240.981602 -85.086996 
L 241.785203 -87.595252 
L 242.588803 -89.345695 
L 243.392403 -90.871108 
L 244.196004 -92.110445 
L 244.999604 -93.60975 
L 245.803204 -94.814755 
L 246.606805 -95.678347 
L 247.410405 -96.523795 
L 248.214005 -97.134037 
L 249.017606 -98.20537 
L 249.821206 -99.089741 
L 250.624806 -99.504237 
L 251.428407 -99.8267 
L 252.232007 -100.270961 
L 253.035608 -100.392329 
L 253.839208 -100.05986 
L 254.642808 -99.63778 
L 255.446409 -99.06242 
L 256.250009 -98.230491 
L 257.053609 -97.852644 
L 257.85721 -97.980933 
L 258.66081 -98.596845 
L 259.46441 -98.659115 
L 260.268011 -98.559892 
L 261.071611 -98.531951 
L 261.875212 -98.484024 
L 262.678812 -98.295945 
L 263.482412 -98.176841 
L 264.286013 -98.035851 
L 265.089613 -98.045533 
L 265.893213 -98.105178 
L 266.696814 -98.118414 
L 267.500414 -98.115516 
L 268.304014 -97.896156 
L 269.107615 -97.823634 
L 269.911215 -97.942918 
L 270.714815 -97.990283 
L 271.518416 -98.054419 
L 272.322016 -99.239886 
L 273.125617 -99.636847 
L 273.929217 -100.178019 
L 274.732817 -99.90848 
L 275.536418 -99.750913 
L 276.340018 -99.722514 
L 277.143618 -99.571918 
L 277.947219 -99.265486 
L 278.750819 -98.927511 
L 279.554419 -98.428322 
L 280.35802 -98.150548 
L 281.16162 -97.815237 
L 281.965221 -97.65964 
L 282.768821 -97.309277 
L 283.572421 -96.905269 
L 284.376022 -96.374658 
L 285.179622 -95.667883 
L 285.983222 -94.265129 
L 286.786823 -92.862273 
L 287.590423 -92.137801 
L 288.394023 -92.209903 
L 289.197624 -92.311103 
L 290.001224 -92.311467 
L 290.804824 -92.305163 
L 291.608425 -92.412493 
L 292.412025 -92.17866 
L 293.215626 -92.140006 
L 294.019226 -92.075511 
L 294.822826 -92.033968 
L 295.626427 -91.892627 
L 296.430027 -91.890807 
L 297.233627 -91.855651 
L 298.037228 -91.593996 
L 298.840828 -91.418733 
L 299.644428 -91.379544 
L 300.448029 -91.402674 
L 301.251629 -92.057634 
L 302.05523 -92.765876 
L 302.85883 -93.606407 
L 303.66243 -93.96415 
L 304.466031 -94.417837 
L 305.269631 -94.909546 
L 306.073231 -95.150788 
L 306.876832 -95.401957 
L 307.680432 -95.766533 
L 308.484032 -96.351432 
L 309.287633 -97.04882 
L 310.091233 -99.023864 
L 310.894833 -100.810862 
L 311.698434 -102.138495 
L 312.502034 -103.507944 
L 313.305635 -104.541332 
L 314.109235 -105.310695 
L 314.912835 -106.61545 
L 315.716436 -107.329422 
L 316.520036 -108.13962 
L 317.323636 -108.990766 
L 318.127237 -109.950885 
L 318.930837 -110.754979 
L 319.734437 -111.165115 
L 320.538038 -111.853867 
L 321.341638 -112.50722 
L 322.145239 -114.783717 
L 322.948839 -116.485405 
L 323.752439 -116.872928 
L 324.55604 -117.893274 
L 325.35964 -118.460525 
L 326.16324 -119.318753 
L 326.966841 -120.502024 
L 327.770441 -122.175894 
L 328.574041 -123.63737 
L 329.377642 -124.478258 
L 330.181242 -124.984982 
L 330.984842 -126.377465 
L 331.788443 -128.570428 
L 332.592043 -130.521833 
L 333.395644 -132.125309 
L 334.199244 -134.62222 
L 335.002844 -136.574228 
L 335.806445 -137.528329 
L 336.610045 -138.337399 
L 337.413645 -139.735189 
L 338.217246 -141.003781 
L 339.020846 -141.044091 
L 339.824446 -140.570972 
L 340.628047 -140.577916 
L 341.431647 -140.578692 
L 342.235248 -141.822557 
L 343.038848 -141.961908 
L 343.842448 -142.653433 
L 344.646049 -143.346395 
L 345.449649 -142.891241 
L 346.253249 -142.240986 
L 347.05685 -142.226119 
L 347.86045 -142.524648 
L 348.66405 -142.441364 
L 349.467651 -142.378214 
L 350.271251 -142.317919 
L 351.074851 -142.261364 
L 351.878452 -142.378476 
L 352.682052 -142.700652 
L 353.485653 -142.786494 
L 354.289253 -143.23455 
L 355.092853 -145.877231 
L 355.896454 -150.637467 
L 356.700054 -154.996409 
L 357.503654 -159.712728 
L 358.307255 -162.994279 
L 359.110855 -165.013691 
L 359.914455 -168.060283 
L 360.718056 -170.078078 
L 361.521656 -172.244465 
L 362.325257 -175.258062 
L 363.128857 -180.076002 
L 363.932457 -183.827395 
L 364.736058 -187.571879 
L 365.539658 -191.011429 
L 366.343258 -195.401282 
L 367.146859 -198.598384 
L 367.950459 -201.829973 
L 368.754059 -208.17 
L 369.55766 -214.221744 
L 370.36126 -217.417783 
L 371.16486 -223.422497 
L 371.968461 -232.888842 
L 372.772061 -244.696765 
L 373.575662 -256.128827 
L 374.379262 -264.822009 
L 375.182862 -269.238017 
L 375.986463 -270.748437 
L 376.790063 -270.245168 
L 377.593663 -271.399153 
L 378.397264 -273.654289 
L 379.200864 -274.019073 
L 380.004464 -272.961138 
L 380.808065 -271.52645 
L 381.611665 -269.770026 
L 382.415266 -268.090444 
L 383.218866 -265.483815 
L 384.022466 -264.104571 
L 384.826067 -263.721199 
L 385.629667 -264.160674 
L 386.433267 -264.005605 
L 387.236868 -264.581449 
L 388.040468 -264.389712 
L 388.844068 -262.808076 
L 389.647669 -257.885963 
L 390.451269 -252.791743 
L 391.254869 -249.999477 
L 392.05847 -249.373113 
L 392.86207 -249.291004 
L 393.665671 -247.682857 
L 394.469271 -245.541731 
L 395.272871 -245.773606 
L 396.076472 -248.300802 
L 396.880072 -252.067562 
L 397.683672 -254.386061 
L 398.487273 -269.932963 
L 398.487273 -184.938875 
L 398.487273 -184.938875 
L 397.683672 -194.53213 
L 396.880072 -195.600985 
L 396.076472 -197.427386 
L 395.272871 -198.664313 
L 394.469271 -198.774567 
L 393.665671 -197.456656 
L 392.86207 -196.895373 
L 392.05847 -197.105732 
L 391.254869 -197.801592 
L 390.451269 -197.200682 
L 389.647669 -195.485826 
L 388.844068 -194.641641 
L 388.040468 -198.188223 
L 387.236868 -200.437924 
L 386.433267 -202.022194 
L 385.629667 -201.708692 
L 384.826067 -202.673396 
L 384.022466 -201.825183 
L 383.218866 -199.626166 
L 382.415266 -193.305545 
L 381.611665 -187.635043 
L 380.808065 -180.607153 
L 380.004464 -174.184242 
L 379.200864 -167.584041 
L 378.397264 -162.098775 
L 377.593663 -156.177134 
L 376.790063 -149.598656 
L 375.986463 -142.958161 
L 375.182862 -137.869552 
L 374.379262 -133.517748 
L 373.575662 -132.709009 
L 372.772061 -134.63204 
L 371.968461 -137.179743 
L 371.16486 -138.704793 
L 370.36126 -137.521582 
L 369.55766 -133.593241 
L 368.754059 -131.848722 
L 367.950459 -130.805579 
L 367.146859 -128.041707 
L 366.343258 -125.053076 
L 365.539658 -123.419475 
L 364.736058 -121.872555 
L 363.932457 -120.676323 
L 363.128857 -120.425602 
L 362.325257 -121.243492 
L 361.521656 -121.112304 
L 360.718056 -120.404561 
L 359.914455 -120.281165 
L 359.110855 -120.726262 
L 358.307255 -120.522727 
L 357.503654 -121.678867 
L 356.700054 -123.200036 
L 355.896454 -124.501772 
L 355.092853 -126.057101 
L 354.289253 -126.338386 
L 353.485653 -126.377894 
L 352.682052 -126.399363 
L 351.878452 -126.275572 
L 351.074851 -126.173084 
L 350.271251 -126.489237 
L 349.467651 -126.666653 
L 348.66405 -126.184846 
L 347.86045 -125.797113 
L 347.05685 -125.240547 
L 346.253249 -123.714956 
L 345.449649 -121.257299 
L 344.646049 -119.339245 
L 343.842448 -118.264333 
L 343.038848 -117.298324 
L 342.235248 -115.687518 
L 341.431647 -114.441194 
L 340.628047 -112.820428 
L 339.824446 -111.553283 
L 339.020846 -109.769889 
L 338.217246 -108.907267 
L 337.413645 -108.402279 
L 336.610045 -106.965474 
L 335.806445 -105.309132 
L 335.002844 -103.511463 
L 334.199244 -102.667359 
L 333.395644 -102.40001 
L 332.592043 -101.596311 
L 331.788443 -101.096731 
L 330.984842 -100.796542 
L 330.181242 -100.442727 
L 329.377642 -99.305958 
L 328.574041 -98.426129 
L 327.770441 -98.072492 
L 326.966841 -97.841928 
L 326.16324 -97.484708 
L 325.35964 -96.925227 
L 324.55604 -95.55916 
L 323.752439 -94.465414 
L 322.948839 -92.967736 
L 322.145239 -92.278717 
L 321.341638 -92.136773 
L 320.538038 -91.289508 
L 319.734437 -90.505041 
L 318.930837 -89.705541 
L 318.127237 -89.252933 
L 317.323636 -88.841819 
L 316.520036 -88.41098 
L 315.716436 -87.863356 
L 314.912835 -87.229371 
L 314.109235 -86.838168 
L 313.305635 -86.20328 
L 312.502034 -85.94325 
L 311.698434 -85.915113 
L 310.894833 -85.891264 
L 310.091233 -86.306668 
L 309.287633 -87.043667 
L 308.484032 -87.071628 
L 307.680432 -87.093139 
L 306.876832 -87.087188 
L 306.073231 -86.988418 
L 305.269631 -86.898716 
L 304.466031 -86.947614 
L 303.66243 -86.971835 
L 302.85883 -86.665226 
L 302.05523 -86.931187 
L 301.251629 -87.157237 
L 300.448029 -87.556313 
L 299.644428 -87.57114 
L 298.840828 -87.55254 
L 298.037228 -87.542372 
L 297.233627 -87.532168 
L 296.430027 -87.538433 
L 295.626427 -87.547769 
L 294.822826 -87.269323 
L 294.019226 -87.153571 
L 293.215626 -86.949647 
L 292.412025 -86.684017 
L 291.608425 -86.035526 
L 290.804824 -85.833197 
L 290.001224 -85.493586 
L 289.197624 -85.136379 
L 288.394023 -85.073498 
L 287.590423 -84.930073 
L 286.786823 -84.796524 
L 285.983222 -84.110206 
L 285.179622 -83.522284 
L 284.376022 -83.283249 
L 283.572421 -83.097226 
L 282.768821 -83.022501 
L 281.965221 -82.981022 
L 281.16162 -82.977703 
L 280.35802 -82.998988 
L 279.554419 -83.116972 
L 278.750819 -83.428614 
L 277.947219 -83.756517 
L 277.143618 -84.183367 
L 276.340018 -84.736607 
L 275.536418 -85.728953 
L 274.732817 -86.479097 
L 273.929217 -87.435411 
L 273.125617 -88.965971 
L 272.322016 -90.195231 
L 271.518416 -92.289039 
L 270.714815 -92.61191 
L 269.911215 -92.528605 
L 269.107615 -92.295326 
L 268.304014 -92.310139 
L 267.500414 -92.290959 
L 266.696814 -92.373854 
L 265.893213 -92.435976 
L 265.089613 -92.793188 
L 264.286013 -92.994392 
L 263.482412 -92.763178 
L 262.678812 -92.378876 
L 261.875212 -91.937478 
L 261.071611 -91.677999 
L 260.268011 -91.520307 
L 259.46441 -90.963014 
L 258.66081 -90.53514 
L 257.85721 -90.38892 
L 257.053609 -90.023559 
L 256.250009 -88.73465 
L 255.446409 -86.665435 
L 254.642808 -84.867407 
L 253.839208 -83.300365 
L 253.035608 -81.93072 
L 252.232007 -80.649479 
L 251.428407 -79.505012 
L 250.624806 -78.421598 
L 249.821206 -77.469136 
L 249.017606 -76.83094 
L 248.214005 -76.386738 
L 247.410405 -75.805235 
L 246.606805 -75.482346 
L 245.803204 -75.234167 
L 244.999604 -75.302141 
L 244.196004 -75.625607 
L 243.392403 -75.874768 
L 242.588803 -76.318587 
L 241.785203 -77.174502 
L 240.981602 -78.716223 
L 240.178002 -79.66886 
L 239.374401 -79.853305 
L 238.570801 -79.882704 
L 237.767201 -79.929381 
L 236.9636 -80.026698 
L 236.16 -80.064488 
L 235.3564 -80.043777 
L 234.552799 -80.023932 
L 233.749199 -79.980205 
L 232.945599 -79.823714 
L 232.141998 -79.845904 
L 231.338398 -79.853403 
L 230.534797 -79.849251 
L 229.731197 -79.669254 
L 228.927597 -79.449815 
L 228.123996 -79.388672 
L 227.320396 -79.387966 
L 226.516796 -79.439544 
L 225.713195 -79.453326 
L 224.909595 -79.42172 
L 224.105995 -79.388848 
L 223.302394 -79.384072 
L 222.498794 -79.435218 
L 221.695194 -79.560053 
L 220.891593 -79.691854 
L 220.087993 -79.743172 
L 219.284392 -79.630161 
L 218.480792 -79.669497 
L 217.677192 -79.848271 
L 216.873591 -80.198202 
L 216.069991 -80.416354 
L 215.266391 -80.711992 
L 214.46279 -80.783627 
L 213.65919 -80.789273 
L 212.85559 -80.78943 
L 212.051989 -80.468444 
L 211.248389 -80.598272 
L 210.444788 -80.756697 
L 209.641188 -80.970417 
L 208.837588 -80.971211 
L 208.033987 -80.710348 
L 207.230387 -80.045383 
L 206.426787 -79.65997 
L 205.623186 -78.957599 
L 204.819586 -78.819151 
L 204.015986 -78.659573 
L 203.212385 -78.508304 
L 202.408785 -78.460337 
L 201.605185 -78.437985 
L 200.801584 -78.421843 
L 199.997984 -78.421204 
L 199.194383 -78.401889 
L 198.390783 -78.434934 
L 197.587183 -78.434309 
L 196.783582 -78.434358 
L 195.979982 -78.562423 
L 195.176382 -78.007563 
L 194.372781 -77.677135 
L 193.569181 -76.907513 
L 192.765581 -76.83636 
L 191.96198 -76.696318 
L 191.15838 -76.923974 
L 190.354779 -77.175926 
L 189.551179 -77.30257 
L 188.747579 -76.995381 
L 187.943978 -76.730928 
L 187.140378 -76.547161 
L 186.336778 -76.220815 
L 185.533177 -75.956509 
L 184.729577 -75.253779 
L 183.925977 -73.81597 
L 183.122376 -72.657487 
L 182.318776 -71.510557 
L 181.515176 -70.573645 
L 180.711575 -69.722152 
L 179.907975 -68.942163 
L 179.104374 -67.773916 
L 178.300774 -66.395898 
L 177.497174 -65.271775 
L 176.693573 -64.898677 
L 175.889973 -65.060393 
L 175.086373 -64.833175 
L 174.282772 -64.692409 
L 173.479172 -64.169983 
L 172.675572 -63.917949 
L 171.871971 -63.744178 
L 171.068371 -64.151913 
L 170.26477 -64.475466 
L 169.46117 -65.245246 
L 168.65757 -65.885927 
L 167.853969 -66.036962 
L 167.050369 -66.177718 
L 166.246769 -66.295797 
L 165.443168 -66.207612 
L 164.639568 -66.200261 
L 163.835968 -66.201125 
L 163.032367 -66.09332 
L 162.228767 -65.926211 
L 161.425167 -65.463311 
L 160.621566 -65.174639 
L 159.817966 -63.88049 
L 159.014365 -63.359204 
L 158.210765 -63.288958 
L 157.407165 -63.281473 
L 156.603564 -63.218682 
L 155.799964 -63.219963 
L 154.996364 -63.067974 
L 154.192763 -62.123759 
L 153.389163 -61.776774 
L 152.585563 -61.620389 
L 151.781962 -61.558271 
L 150.978362 -60.629099 
L 150.174761 -59.794426 
L 149.371161 -58.432255 
L 148.567561 -57.782076 
L 147.76396 -56.995429 
L 146.96036 -56.80956 
L 146.15676 -55.890724 
L 145.353159 -54.770094 
L 144.549559 -54.016537 
L 143.745959 -53.592064 
L 142.942358 -53.153552 
L 142.138758 -52.070967 
L 141.335158 -51.073376 
L 140.531557 -50.44539 
L 139.727957 -50.169246 
L 138.924356 -50.112 
L 138.120756 -50.532506 
L 137.317156 -50.968615 
L 136.513555 -51.500933 
L 135.709955 -52.122924 
L 134.906355 -53.556562 
L 134.102754 -55.31663 
L 133.299154 -57.681433 
L 132.495554 -59.926381 
L 131.691953 -62.889703 
L 130.888353 -65.890674 
L 130.084752 -72.18269 
L 129.281152 -72.84981 
L 128.477552 -73.746973 
L 127.673951 -74.422501 
L 126.870351 -75.455384 
L 126.066751 -75.542578 
L 125.26315 -75.549023 
L 124.45955 -75.402102 
L 123.65595 -75.683869 
L 122.852349 -76.017514 
L 122.048749 -76.347512 
L 121.245149 -77.292976 
L 120.441548 -78.387516 
L 119.637948 -79.410733 
L 118.834347 -80.427933 
L 118.030747 -81.738259 
L 117.227147 -82.110332 
L 116.423546 -81.477382 
L 115.619946 -80.981474 
L 114.816346 -80.685021 
L 114.012745 -80.450988 
L 113.209145 -80.234493 
L 112.405545 -80.176369 
L 111.601944 -79.863706 
L 110.798344 -79.678469 
L 109.994743 -78.937927 
L 109.191143 -77.887071 
L 108.387543 -76.780038 
L 107.583942 -75.986819 
L 106.780342 -75.399177 
L 105.976742 -75.232073 
L 105.173141 -74.989679 
L 104.369541 -74.969593 
L 103.565941 -74.930712 
L 102.76234 -75.046465 
L 101.95874 -75.196457 
L 101.15514 -75.232039 
L 100.351539 -75.168763 
L 99.547939 -75.147983 
L 98.744338 -74.530043 
L 97.940738 -74.162695 
L 97.137138 -73.680931 
L 96.333537 -73.680646 
L 95.529937 -73.15938 
L 94.726337 -73.208866 
L 93.922736 -73.071309 
L 93.119136 -72.467876 
L 92.315536 -71.392892 
L 91.511935 -70.468798 
L 90.708335 -69.665055 
L 89.904734 -68.457119 
L 89.101134 -67.753976 
z
" id="mdd6178e58e" style="stroke:#4b0082;stroke-opacity:0.3;"/>
    </defs>
    <g clip-path="url(#pd215f9ad0e)">
     <use style="fill:#4b0082;fill-opacity:0.3;stroke:#4b0082;stroke-opacity:0.3;" x="0" xlink:href="#mdd6178e58e" y="345.6"/>
    </g>
   </g>
   <g id="matplotlib.axis_1">
    <g id="xtick_1">
     <g id="line2d_1">
      <defs>
       <path d="M 0 0 
L 0 3.5 
" id="m98f6070f2e" style="stroke:#000000;stroke-width:0.8;"/>
      </defs>
      <g>
       <use style="stroke:#000000;stroke-width:0.8;" x="73.832727" xlink:href="#m98f6070f2e" y="307.584"/>
      </g>
     </g>
     <g id="text_1">
      <!-- 2020-01 -->
      <g transform="translate(52.941321 322.182437)scale(0.1 -0.1)">
       <defs>
        <path d="M 19.1875 8.296875 
L 53.609375 8.296875 
L 53.609375 0 
L 7.328125 0 
L 7.328125 8.296875 
Q 12.9375 14.109375 22.625 23.890625 
Q 32.328125 33.6875 34.8125 36.53125 
Q 39.546875 41.84375 41.421875 45.53125 
Q 43.3125 49.21875 43.3125 52.78125 
Q 43.3125 58.59375 39.234375 62.25 
Q 35.15625 65.921875 28.609375 65.921875 
Q 23.96875 65.921875 18.8125 64.3125 
Q 13.671875 62.703125 7.8125 59.421875 
L 7.8125 69.390625 
Q 13.765625 71.78125 18.9375 73 
Q 24.125 74.21875 28.421875 74.21875 
Q 39.75 74.21875 46.484375 68.546875 
Q 53.21875 62.890625 53.21875 53.421875 
Q 53.21875 48.921875 51.53125 44.890625 
Q 49.859375 40.875 45.40625 35.40625 
Q 44.1875 33.984375 37.640625 27.21875 
Q 31.109375 20.453125 19.1875 8.296875 
z
" id="DejaVuSans-50"/>
        <path d="M 31.78125 66.40625 
Q 24.171875 66.40625 20.328125 58.90625 
Q 16.5 51.421875 16.5 36.375 
Q 16.5 21.390625 20.328125 13.890625 
Q 24.171875 6.390625 31.78125 6.390625 
Q 39.453125 6.390625 43.28125 13.890625 
Q 47.125 21.390625 47.125 36.375 
Q 47.125 51.421875 43.28125 58.90625 
Q 39.453125 66.40625 31.78125 66.40625 
z
M 31.78125 74.21875 
Q 44.046875 74.21875 50.515625 64.515625 
Q 56.984375 54.828125 56.984375 36.375 
Q 56.984375 17.96875 50.515625 8.265625 
Q 44.046875 -1.421875 31.78125 -1.421875 
Q 19.53125 -1.421875 13.0625 8.265625 
Q 6.59375 17.96875 6.59375 36.375 
Q 6.59375 54.828125 13.0625 64.515625 
Q 19.53125 74.21875 31.78125 74.21875 
z
" id="DejaVuSans-48"/>
        <path d="M 4.890625 31.390625 
L 31.203125 31.390625 
L 31.203125 23.390625 
L 4.890625 23.390625 
z
" id="DejaVuSans-45"/>
        <path d="M 12.40625 8.296875 
L 28.515625 8.296875 
L 28.515625 63.921875 
L 10.984375 60.40625 
L 10.984375 69.390625 
L 28.421875 72.90625 
L 38.28125 72.90625 
L 38.28125 8.296875 
L 54.390625 8.296875 
L 54.390625 0 
L 12.40625 0 
z
" id="DejaVuSans-49"/>
       </defs>
       <use xlink:href="#DejaVuSans-50"/>
       <use x="63.623047" xlink:href="#DejaVuSans-48"/>
       <use x="127.246094" xlink:href="#DejaVuSans-50"/>
       <use x="190.869141" xlink:href="#DejaVuSans-48"/>
       <use x="254.492188" xlink:href="#DejaVuSans-45"/>
       <use x="290.576172" xlink:href="#DejaVuSans-48"/>
       <use x="354.199219" xlink:href="#DejaVuSans-49"/>
      </g>
     </g>
    </g>
    <g id="xtick_2">
     <g id="line2d_2">
      <g>
       <use style="stroke:#000000;stroke-width:0.8;" x="122.048749" xlink:href="#m98f6070f2e" y="307.584"/>
      </g>
     </g>
     <g id="text_2">
      <!-- 2020-03 -->
      <g transform="translate(101.157343 322.182437)scale(0.1 -0.1)">
       <defs>
        <path d="M 40.578125 39.3125 
Q 47.65625 37.796875 51.625 33 
Q 55.609375 28.21875 55.609375 21.1875 
Q 55.609375 10.40625 48.1875 4.484375 
Q 40.765625 -1.421875 27.09375 -1.421875 
Q 22.515625 -1.421875 17.65625 -0.515625 
Q 12.796875 0.390625 7.625 2.203125 
L 7.625 11.71875 
Q 11.71875 9.328125 16.59375 8.109375 
Q 21.484375 6.890625 26.8125 6.890625 
Q 36.078125 6.890625 40.9375 10.546875 
Q 45.796875 14.203125 45.796875 21.1875 
Q 45.796875 27.640625 41.28125 31.265625 
Q 36.765625 34.90625 28.71875 34.90625 
L 20.21875 34.90625 
L 20.21875 43.015625 
L 29.109375 43.015625 
Q 36.375 43.015625 40.234375 45.921875 
Q 44.09375 48.828125 44.09375 54.296875 
Q 44.09375 59.90625 40.109375 62.90625 
Q 36.140625 65.921875 28.71875 65.921875 
Q 24.65625 65.921875 20.015625 65.03125 
Q 15.375 64.15625 9.8125 62.3125 
L 9.8125 71.09375 
Q 15.4375 72.65625 20.34375 73.4375 
Q 25.25 74.21875 29.59375 74.21875 
Q 40.828125 74.21875 47.359375 69.109375 
Q 53.90625 64.015625 53.90625 55.328125 
Q 53.90625 49.265625 50.4375 45.09375 
Q 46.96875 40.921875 40.578125 39.3125 
z
" id="DejaVuSans-51"/>
       </defs>
       <use xlink:href="#DejaVuSans-50"/>
       <use x="63.623047" xlink:href="#DejaVuSans-48"/>
       <use x="127.246094" xlink:href="#DejaVuSans-50"/>
       <use x="190.869141" xlink:href="#DejaVuSans-48"/>
       <use x="254.492188" xlink:href="#DejaVuSans-45"/>
       <use x="290.576172" xlink:href="#DejaVuSans-48"/>
       <use x="354.199219" xlink:href="#DejaVuSans-51"/>
      </g>
     </g>
    </g>
    <g id="xtick_3">
     <g id="line2d_3">
      <g>
       <use style="stroke:#000000;stroke-width:0.8;" x="171.068371" xlink:href="#m98f6070f2e" y="307.584"/>
      </g>
     </g>
     <g id="text_3">
      <!-- 2020-05 -->
      <g transform="translate(150.176965 322.182437)scale(0.1 -0.1)">
       <defs>
        <path d="M 10.796875 72.90625 
L 49.515625 72.90625 
L 49.515625 64.59375 
L 19.828125 64.59375 
L 19.828125 46.734375 
Q 21.96875 47.46875 24.109375 47.828125 
Q 26.265625 48.1875 28.421875 48.1875 
Q 40.625 48.1875 47.75 41.5 
Q 54.890625 34.8125 54.890625 23.390625 
Q 54.890625 11.625 47.5625 5.09375 
Q 40.234375 -1.421875 26.90625 -1.421875 
Q 22.3125 -1.421875 17.546875 -0.640625 
Q 12.796875 0.140625 7.71875 1.703125 
L 7.71875 11.625 
Q 12.109375 9.234375 16.796875 8.0625 
Q 21.484375 6.890625 26.703125 6.890625 
Q 35.15625 6.890625 40.078125 11.328125 
Q 45.015625 15.765625 45.015625 23.390625 
Q 45.015625 31 40.078125 35.4375 
Q 35.15625 39.890625 26.703125 39.890625 
Q 22.75 39.890625 18.8125 39.015625 
Q 14.890625 38.140625 10.796875 36.28125 
z
" id="DejaVuSans-53"/>
       </defs>
       <use xlink:href="#DejaVuSans-50"/>
       <use x="63.623047" xlink:href="#DejaVuSans-48"/>
       <use x="127.246094" xlink:href="#DejaVuSans-50"/>
       <use x="190.869141" xlink:href="#DejaVuSans-48"/>
       <use x="254.492188" xlink:href="#DejaVuSans-45"/>
       <use x="290.576172" xlink:href="#DejaVuSans-48"/>
       <use x="354.199219" xlink:href="#DejaVuSans-53"/>
      </g>
     </g>
    </g>
    <g id="xtick_4">
     <g id="line2d_4">
      <g>
       <use style="stroke:#000000;stroke-width:0.8;" x="220.087993" xlink:href="#m98f6070f2e" y="307.584"/>
      </g>
     </g>
     <g id="text_4">
      <!-- 2020-07 -->
      <g transform="translate(199.196587 322.182437)scale(0.1 -0.1)">
       <defs>
        <path d="M 8.203125 72.90625 
L 55.078125 72.90625 
L 55.078125 68.703125 
L 28.609375 0 
L 18.3125 0 
L 43.21875 64.59375 
L 8.203125 64.59375 
z
" id="DejaVuSans-55"/>
       </defs>
       <use xlink:href="#DejaVuSans-50"/>
       <use x="63.623047" xlink:href="#DejaVuSans-48"/>
       <use x="127.246094" xlink:href="#DejaVuSans-50"/>
       <use x="190.869141" xlink:href="#DejaVuSans-48"/>
       <use x="254.492188" xlink:href="#DejaVuSans-45"/>
       <use x="290.576172" xlink:href="#DejaVuSans-48"/>
       <use x="354.199219" xlink:href="#DejaVuSans-55"/>
      </g>
     </g>
    </g>
    <g id="xtick_5">
     <g id="line2d_5">
      <g>
       <use style="stroke:#000000;stroke-width:0.8;" x="269.911215" xlink:href="#m98f6070f2e" y="307.584"/>
      </g>
     </g>
     <g id="text_5">
      <!-- 2020-09 -->
      <g transform="translate(249.019809 322.182437)scale(0.1 -0.1)">
       <defs>
        <path d="M 10.984375 1.515625 
L 10.984375 10.5 
Q 14.703125 8.734375 18.5 7.8125 
Q 22.3125 6.890625 25.984375 6.890625 
Q 35.75 6.890625 40.890625 13.453125 
Q 46.046875 20.015625 46.78125 33.40625 
Q 43.953125 29.203125 39.59375 26.953125 
Q 35.25 24.703125 29.984375 24.703125 
Q 19.046875 24.703125 12.671875 31.3125 
Q 6.296875 37.9375 6.296875 49.421875 
Q 6.296875 60.640625 12.9375 67.421875 
Q 19.578125 74.21875 30.609375 74.21875 
Q 43.265625 74.21875 49.921875 64.515625 
Q 56.59375 54.828125 56.59375 36.375 
Q 56.59375 19.140625 48.40625 8.859375 
Q 40.234375 -1.421875 26.421875 -1.421875 
Q 22.703125 -1.421875 18.890625 -0.6875 
Q 15.09375 0.046875 10.984375 1.515625 
z
M 30.609375 32.421875 
Q 37.25 32.421875 41.125 36.953125 
Q 45.015625 41.5 45.015625 49.421875 
Q 45.015625 57.28125 41.125 61.84375 
Q 37.25 66.40625 30.609375 66.40625 
Q 23.96875 66.40625 20.09375 61.84375 
Q 16.21875 57.28125 16.21875 49.421875 
Q 16.21875 41.5 20.09375 36.953125 
Q 23.96875 32.421875 30.609375 32.421875 
z
" id="DejaVuSans-57"/>
       </defs>
       <use xlink:href="#DejaVuSans-50"/>
       <use x="63.623047" xlink:href="#DejaVuSans-48"/>
       <use x="127.246094" xlink:href="#DejaVuSans-50"/>
       <use x="190.869141" xlink:href="#DejaVuSans-48"/>
       <use x="254.492188" xlink:href="#DejaVuSans-45"/>
       <use x="290.576172" xlink:href="#DejaVuSans-48"/>
       <use x="354.199219" xlink:href="#DejaVuSans-57"/>
      </g>
     </g>
    </g>
    <g id="xtick_6">
     <g id="line2d_6">
      <g>
       <use style="stroke:#000000;stroke-width:0.8;" x="318.930837" xlink:href="#m98f6070f2e" y="307.584"/>
      </g>
     </g>
     <g id="text_6">
      <!-- 2020-11 -->
      <g transform="translate(298.039431 322.182437)scale(0.1 -0.1)">
       <use xlink:href="#DejaVuSans-50"/>
       <use x="63.623047" xlink:href="#DejaVuSans-48"/>
       <use x="127.246094" xlink:href="#DejaVuSans-50"/>
       <use x="190.869141" xlink:href="#DejaVuSans-48"/>
       <use x="254.492188" xlink:href="#DejaVuSans-45"/>
       <use x="290.576172" xlink:href="#DejaVuSans-49"/>
       <use x="354.199219" xlink:href="#DejaVuSans-49"/>
      </g>
     </g>
    </g>
    <g id="xtick_7">
     <g id="line2d_7">
      <g>
       <use style="stroke:#000000;stroke-width:0.8;" x="367.950459" xlink:href="#m98f6070f2e" y="307.584"/>
      </g>
     </g>
     <g id="text_7">
      <!-- 2021-01 -->
      <g transform="translate(347.059053 322.182437)scale(0.1 -0.1)">
       <use xlink:href="#DejaVuSans-50"/>
       <use x="63.623047" xlink:href="#DejaVuSans-48"/>
       <use x="127.246094" xlink:href="#DejaVuSans-50"/>
       <use x="190.869141" xlink:href="#DejaVuSans-49"/>
       <use x="254.492188" xlink:href="#DejaVuSans-45"/>
       <use x="290.576172" xlink:href="#DejaVuSans-48"/>
       <use x="354.199219" xlink:href="#DejaVuSans-49"/>
      </g>
     </g>
    </g>
   </g>
   <g id="matplotlib.axis_2">
    <g id="ytick_1">
     <g id="line2d_8">
      <defs>
       <path d="M 0 0 
L -3.5 0 
" id="m137d5c5821" style="stroke:#000000;stroke-width:0.8;"/>
      </defs>
      <g>
       <use style="stroke:#000000;stroke-width:0.8;" x="57.6" xlink:href="#m137d5c5821" y="260.029638"/>
      </g>
     </g>
     <g id="text_8">
      <!-- 10000 -->
      <g transform="translate(18.7875 263.828857)scale(0.1 -0.1)">
       <use xlink:href="#DejaVuSans-49"/>
       <use x="63.623047" xlink:href="#DejaVuSans-48"/>
       <use x="127.246094" xlink:href="#DejaVuSans-48"/>
       <use x="190.869141" xlink:href="#DejaVuSans-48"/>
       <use x="254.492188" xlink:href="#DejaVuSans-48"/>
      </g>
     </g>
    </g>
    <g id="ytick_2">
     <g id="line2d_9">
      <g>
       <use style="stroke:#000000;stroke-width:0.8;" x="57.6" xlink:href="#m137d5c5821" y="203.365589"/>
      </g>
     </g>
     <g id="text_9">
      <!-- 20000 -->
      <g transform="translate(18.7875 207.164808)scale(0.1 -0.1)">
       <use xlink:href="#DejaVuSans-50"/>
       <use x="63.623047" xlink:href="#DejaVuSans-48"/>
       <use x="127.246094" xlink:href="#DejaVuSans-48"/>
       <use x="190.869141" xlink:href="#DejaVuSans-48"/>
       <use x="254.492188" xlink:href="#DejaVuSans-48"/>
      </g>
     </g>
    </g>
    <g id="ytick_3">
     <g id="line2d_10">
      <g>
       <use style="stroke:#000000;stroke-width:0.8;" x="57.6" xlink:href="#m137d5c5821" y="146.701541"/>
      </g>
     </g>
     <g id="text_10">
      <!-- 30000 -->
      <g transform="translate(18.7875 150.500759)scale(0.1 -0.1)">
       <use xlink:href="#DejaVuSans-51"/>
       <use x="63.623047" xlink:href="#DejaVuSans-48"/>
       <use x="127.246094" xlink:href="#DejaVuSans-48"/>
       <use x="190.869141" xlink:href="#DejaVuSans-48"/>
       <use x="254.492188" xlink:href="#DejaVuSans-48"/>
      </g>
     </g>
    </g>
    <g id="ytick_4">
     <g id="line2d_11">
      <g>
       <use style="stroke:#000000;stroke-width:0.8;" x="57.6" xlink:href="#m137d5c5821" y="90.037492"/>
      </g>
     </g>
     <g id="text_11">
      <!-- 40000 -->
      <g transform="translate(18.7875 93.836711)scale(0.1 -0.1)">
       <defs>
        <path d="M 37.796875 64.3125 
L 12.890625 25.390625 
L 37.796875 25.390625 
z
M 35.203125 72.90625 
L 47.609375 72.90625 
L 47.609375 25.390625 
L 58.015625 25.390625 
L 58.015625 17.1875 
L 47.609375 17.1875 
L 47.609375 0 
L 37.796875 0 
L 37.796875 17.1875 
L 4.890625 17.1875 
L 4.890625 26.703125 
z
" id="DejaVuSans-52"/>
       </defs>
       <use xlink:href="#DejaVuSans-52"/>
       <use x="63.623047" xlink:href="#DejaVuSans-48"/>
       <use x="127.246094" xlink:href="#DejaVuSans-48"/>
       <use x="190.869141" xlink:href="#DejaVuSans-48"/>
       <use x="254.492188" xlink:href="#DejaVuSans-48"/>
      </g>
     </g>
    </g>
   </g>
   <g id="line2d_12">
    <path clip-path="url(#pd215f9ad0e)" d="M 89.101134 263.78394 
L 89.904734 263.614944 
L 92.315536 264.382954 
L 93.119136 264.902182 
L 93.922736 265.029117 
L 94.726337 264.745239 
L 95.529937 263.930561 
L 96.333537 263.616862 
L 97.137138 262.869487 
L 98.744338 262.279625 
L 99.547939 262.201956 
L 101.15514 261.803763 
L 102.76234 260.622722 
L 104.369541 259.352215 
L 105.173141 258.505343 
L 105.976742 258.110202 
L 106.780342 257.367797 
L 107.583942 256.847199 
L 108.387543 256.624099 
L 109.191143 256.586713 
L 109.994743 256.900778 
L 110.798344 257.060688 
L 111.601944 257.068675 
L 112.405545 256.873959 
L 114.816346 257.012692 
L 116.423546 257.229124 
L 117.227147 257.584819 
L 118.030747 257.382445 
L 118.834347 256.616336 
L 120.441548 255.8078 
L 122.048749 255.431082 
L 122.852349 255.860296 
L 124.45955 256.968584 
L 125.26315 257.842777 
L 126.870351 258.74536 
L 127.673951 258.650772 
L 128.477552 259.245326 
L 129.281152 259.308196 
L 130.084752 259.579512 
L 130.888353 255.996873 
L 131.691953 255.284147 
L 132.495554 255.035572 
L 133.299154 255.22977 
L 134.102754 255.284658 
L 134.906355 255.481215 
L 135.709955 255.976967 
L 138.120756 258.471924 
L 140.531557 262.577338 
L 141.335158 264.557085 
L 142.942358 269.279179 
L 145.353159 273.851606 
L 146.15676 275.822888 
L 146.96036 275.745646 
L 147.76396 275.249579 
L 149.371161 274.946474 
L 150.174761 275.325563 
L 151.781962 274.874181 
L 153.389163 273.806853 
L 154.192763 273.750201 
L 154.996364 274.121894 
L 155.799964 273.905278 
L 158.210765 273.85478 
L 159.014365 273.722684 
L 159.817966 273.756486 
L 160.621566 274.288728 
L 161.425167 274.23637 
L 162.228767 274.446345 
L 163.032367 274.50871 
L 163.835968 274.443803 
L 165.443168 273.630441 
L 167.050369 272.963141 
L 168.65757 272.276399 
L 169.46117 271.092593 
L 170.26477 269.285408 
L 171.871971 266.454423 
L 173.479172 264.629416 
L 174.282772 263.920447 
L 175.889973 261.748622 
L 176.693573 260.022945 
L 177.497174 258.939684 
L 179.907975 259.685355 
L 180.711575 259.591443 
L 181.515176 259.264504 
L 182.318776 259.110639 
L 183.122376 259.202252 
L 183.925977 259.170364 
L 184.729577 259.524531 
L 185.533177 259.368064 
L 186.336778 259.047905 
L 188.747579 259.132442 
L 189.551179 259.211972 
L 191.96198 259.146724 
L 192.765581 259.728019 
L 194.372781 260.119497 
L 195.176382 260.060026 
L 195.979982 260.141742 
L 196.783582 259.4259 
L 198.390783 259.416377 
L 199.194383 259.172681 
L 202.408785 259.385825 
L 204.015986 259.009581 
L 205.623186 259.013873 
L 208.033987 259.928311 
L 209.641188 260.037895 
L 212.051989 259.951628 
L 212.85559 260.647504 
L 214.46279 260.654158 
L 215.266391 260.90136 
L 217.677192 261.028296 
L 218.480792 261.1741 
L 219.284392 261.467191 
L 220.087993 261.944864 
L 222.498794 262.176357 
L 223.302394 262.160306 
L 225.713195 262.606047 
L 226.516796 262.519905 
L 228.123996 262.598434 
L 228.927597 262.770554 
L 230.534797 263.512776 
L 234.552799 263.633401 
L 236.16 263.620947 
L 236.9636 263.494012 
L 240.178002 262.052184 
L 240.981602 260.513004 
L 241.785203 258.004748 
L 243.392403 254.728892 
L 244.196004 253.489555 
L 244.999604 251.99025 
L 245.803204 250.785245 
L 247.410405 249.076205 
L 248.214005 248.465963 
L 249.017606 247.39463 
L 249.821206 246.510259 
L 252.232007 245.329039 
L 253.035608 245.207671 
L 254.642808 245.96222 
L 255.446409 246.53758 
L 256.250009 247.369509 
L 257.053609 247.747356 
L 257.85721 247.619067 
L 258.66081 247.003155 
L 259.46441 246.940885 
L 261.071611 247.068049 
L 261.875212 247.115976 
L 263.482412 247.423159 
L 264.286013 247.564149 
L 267.500414 247.484484 
L 268.304014 247.703844 
L 269.107615 247.776366 
L 270.714815 247.609717 
L 271.518416 247.545581 
L 272.322016 246.360114 
L 273.125617 245.963153 
L 273.929217 245.421981 
L 275.536418 245.849087 
L 276.340018 245.877486 
L 277.143618 246.028082 
L 278.750819 246.672489 
L 279.554419 247.171678 
L 282.768821 248.290723 
L 283.572421 248.694731 
L 284.376022 249.225342 
L 285.179622 249.932117 
L 286.786823 252.737727 
L 287.590423 253.462199 
L 290.001224 253.288533 
L 290.804824 253.294837 
L 291.608425 253.187507 
L 292.412025 253.42134 
L 294.822826 253.566032 
L 295.626427 253.707373 
L 297.233627 253.744349 
L 298.840828 254.181267 
L 300.448029 254.197326 
L 302.05523 252.834124 
L 302.85883 251.993593 
L 304.466031 251.182163 
L 305.269631 250.690454 
L 306.876832 250.198043 
L 307.680432 249.833467 
L 309.287633 248.55118 
L 310.894833 244.789138 
L 312.502034 242.092056 
L 313.305635 241.058668 
L 314.109235 240.289305 
L 314.912835 238.98455 
L 316.520036 237.46038 
L 318.930837 234.845021 
L 319.734437 234.434885 
L 321.341638 233.09278 
L 322.145239 230.816283 
L 322.948839 229.114595 
L 323.752439 228.727072 
L 324.55604 227.706726 
L 325.35964 227.139475 
L 326.16324 226.281247 
L 326.966841 225.097976 
L 328.574041 221.96263 
L 329.377642 221.121742 
L 330.181242 220.615018 
L 330.984842 219.222535 
L 332.592043 215.078167 
L 333.395644 213.474691 
L 334.199244 210.97778 
L 335.002844 209.025772 
L 336.610045 207.262601 
L 338.217246 204.596219 
L 339.020846 204.555909 
L 339.824446 205.029028 
L 341.431647 205.021308 
L 342.235248 203.777443 
L 343.038848 203.638092 
L 344.646049 202.253605 
L 345.449649 202.708759 
L 346.253249 203.359014 
L 347.05685 203.373881 
L 347.86045 203.075352 
L 351.074851 203.338636 
L 351.878452 203.221524 
L 352.682052 202.899348 
L 353.485653 202.813506 
L 354.289253 202.36545 
L 355.092853 199.722769 
L 357.503654 185.887272 
L 358.307255 182.605721 
L 359.110855 180.586309 
L 359.914455 177.539717 
L 361.521656 173.355535 
L 362.325257 170.341938 
L 363.128857 165.523998 
L 367.146859 147.001616 
L 367.950459 143.770027 
L 369.55766 131.378256 
L 370.36126 128.182217 
L 371.16486 122.177503 
L 371.968461 112.711158 
L 373.575662 89.471173 
L 374.379262 80.777991 
L 375.182862 76.361983 
L 375.986463 74.851563 
L 376.790063 75.354832 
L 377.593663 74.200847 
L 378.397264 71.945711 
L 379.200864 71.580927 
L 380.004464 72.638862 
L 380.808065 74.07355 
L 382.415266 77.509556 
L 383.218866 80.116185 
L 384.022466 81.495429 
L 384.826067 81.878801 
L 385.629667 81.439326 
L 386.433267 81.594395 
L 387.236868 81.018551 
L 388.040468 81.210288 
L 388.844068 82.791924 
L 390.451269 92.808257 
L 391.254869 95.600523 
L 392.05847 96.226887 
L 392.86207 96.308996 
L 393.665671 97.917143 
L 394.469271 100.058269 
L 395.272871 99.826394 
L 396.076472 97.299198 
L 396.880072 93.532438 
L 397.683672 91.213939 
L 398.487273 75.667037 
L 398.487273 75.667037 
" style="fill:none;stroke:#1f77b4;stroke-linecap:square;stroke-width:1.5;"/>
   </g>
   <g id="line2d_13">
    <path clip-path="url(#pd215f9ad0e)" d="M 89.101134 277.846024 
L 89.904734 277.142881 
L 90.708335 275.934945 
L 92.315536 274.207108 
L 93.119136 273.132124 
L 93.922736 272.528691 
L 94.726337 272.391134 
L 95.529937 272.44062 
L 96.333537 271.919354 
L 97.137138 271.919069 
L 99.547939 270.452017 
L 101.95874 270.403543 
L 103.565941 270.669288 
L 105.173141 270.610321 
L 106.780342 270.200823 
L 107.583942 269.613181 
L 108.387543 268.819962 
L 109.994743 266.662073 
L 110.798344 265.921531 
L 111.601944 265.736294 
L 112.405545 265.423631 
L 113.209145 265.365507 
L 115.619946 264.618526 
L 116.423546 264.122618 
L 117.227147 263.489668 
L 118.030747 263.861741 
L 118.834347 265.172067 
L 122.048749 269.252488 
L 124.45955 270.197898 
L 125.26315 270.050977 
L 126.870351 270.144616 
L 127.673951 271.177499 
L 128.477552 271.853027 
L 129.281152 272.75019 
L 130.084752 273.41731 
L 130.888353 279.709326 
L 132.495554 285.673619 
L 134.102754 290.28337 
L 134.906355 292.043438 
L 135.709955 293.477076 
L 137.317156 294.631385 
L 138.924356 295.488 
L 139.727957 295.430754 
L 140.531557 295.15461 
L 141.335158 294.526624 
L 142.942358 292.446448 
L 144.549559 291.583463 
L 145.353159 290.829906 
L 146.15676 289.709276 
L 146.96036 288.79044 
L 147.76396 288.604571 
L 149.371161 287.167745 
L 150.174761 285.805574 
L 151.781962 284.041729 
L 153.389163 283.823226 
L 154.192763 283.476241 
L 154.996364 282.532026 
L 155.799964 282.380037 
L 158.210765 282.311042 
L 159.014365 282.240796 
L 159.817966 281.71951 
L 160.621566 280.425361 
L 161.425167 280.136689 
L 162.228767 279.673789 
L 163.835968 279.398875 
L 167.050369 279.422282 
L 168.65757 279.714073 
L 170.26477 281.124534 
L 171.871971 281.855822 
L 173.479172 281.430017 
L 174.282772 280.907591 
L 175.889973 280.539607 
L 176.693573 280.701323 
L 177.497174 280.328225 
L 178.300774 279.204102 
L 179.907975 276.657837 
L 181.515176 275.026355 
L 182.318776 274.089443 
L 183.925977 271.78403 
L 184.729577 270.346221 
L 185.533177 269.643491 
L 189.551179 268.29743 
L 190.354779 268.424074 
L 191.96198 268.903682 
L 193.569181 268.692487 
L 194.372781 267.922865 
L 195.176382 267.592437 
L 195.979982 267.037577 
L 196.783582 267.165642 
L 203.212385 267.091696 
L 205.623186 266.642401 
L 206.426787 265.94003 
L 207.230387 265.554617 
L 208.033987 264.889652 
L 208.837588 264.628789 
L 209.641188 264.629583 
L 211.248389 265.001728 
L 212.051989 265.131556 
L 212.85559 264.81057 
L 215.266391 264.888008 
L 217.677192 265.751729 
L 218.480792 265.930503 
L 219.284392 265.969839 
L 220.087993 265.856828 
L 221.695194 266.039947 
L 223.302394 266.215928 
L 228.927597 266.150185 
L 230.534797 265.750749 
L 232.945599 265.776286 
L 234.552799 265.576068 
L 236.9636 265.573302 
L 238.570801 265.717296 
L 239.374401 265.746695 
L 240.178002 265.93114 
L 240.981602 266.883777 
L 241.785203 268.425498 
L 242.588803 269.281413 
L 243.392403 269.725232 
L 245.803204 270.365833 
L 247.410405 269.794765 
L 248.214005 269.213262 
L 249.017606 268.76906 
L 249.821206 268.130864 
L 251.428407 266.094988 
L 253.035608 263.66928 
L 254.642808 260.732593 
L 257.053609 255.576441 
L 257.85721 255.21108 
L 258.66081 255.06486 
L 259.46441 254.636986 
L 260.268011 254.079693 
L 261.875212 253.662522 
L 263.482412 252.836822 
L 264.286013 252.605608 
L 265.089613 252.806812 
L 265.893213 253.164024 
L 269.107615 253.304674 
L 269.911215 253.071395 
L 270.714815 252.98809 
L 271.518416 253.310961 
L 272.322016 255.404769 
L 273.125617 256.634029 
L 273.929217 258.164589 
L 274.732817 259.120903 
L 275.536418 259.871047 
L 276.340018 260.863393 
L 277.947219 261.843483 
L 279.554419 262.483028 
L 281.16162 262.622297 
L 283.572421 262.502774 
L 285.179622 262.077716 
L 286.786823 260.803476 
L 289.197624 260.463621 
L 290.804824 259.766803 
L 291.608425 259.564474 
L 292.412025 258.915983 
L 294.019226 258.446429 
L 294.822826 258.330677 
L 295.626427 258.052231 
L 300.448029 258.043687 
L 301.251629 258.442763 
L 302.85883 258.934774 
L 303.66243 258.628165 
L 306.073231 258.611582 
L 307.680432 258.506861 
L 309.287633 258.556333 
L 310.091233 259.293332 
L 310.894833 259.708736 
L 312.502034 259.65675 
L 313.305635 259.39672 
L 314.109235 258.761832 
L 314.912835 258.370629 
L 316.520036 257.18902 
L 318.930837 255.894459 
L 321.341638 253.463227 
L 322.145239 253.321283 
L 322.948839 252.632264 
L 323.752439 251.134586 
L 324.55604 250.04084 
L 325.35964 248.674773 
L 326.16324 248.115292 
L 326.966841 247.758072 
L 327.770441 247.527508 
L 328.574041 247.173871 
L 329.377642 246.294042 
L 330.181242 245.157273 
L 332.592043 244.003689 
L 333.395644 243.19999 
L 334.199244 242.932641 
L 335.002844 242.088537 
L 336.610045 238.634526 
L 337.413645 237.197721 
L 338.217246 236.692733 
L 339.020846 235.830111 
L 339.824446 234.046717 
L 340.628047 232.779572 
L 341.431647 231.158806 
L 342.235248 229.912482 
L 343.038848 228.301676 
L 344.646049 226.260755 
L 345.449649 224.342701 
L 346.253249 221.885044 
L 347.05685 220.359453 
L 347.86045 219.802887 
L 349.467651 218.933347 
L 350.271251 219.110763 
L 351.074851 219.426916 
L 353.485653 219.222106 
L 354.289253 219.261614 
L 355.092853 219.542899 
L 355.896454 221.098228 
L 356.700054 222.399964 
L 357.503654 223.921133 
L 358.307255 225.077273 
L 359.110855 224.873738 
L 359.914455 225.318835 
L 360.718056 225.195439 
L 361.521656 224.487696 
L 362.325257 224.356508 
L 363.128857 225.174398 
L 363.932457 224.923677 
L 364.736058 223.727445 
L 366.343258 220.546924 
L 367.950459 214.794421 
L 368.754059 213.751278 
L 369.55766 212.006759 
L 370.36126 208.078418 
L 371.16486 206.895207 
L 371.968461 208.420257 
L 372.772061 210.96796 
L 373.575662 212.890991 
L 374.379262 212.082252 
L 375.182862 207.730448 
L 375.986463 202.641839 
L 378.397264 183.501225 
L 379.200864 178.015959 
L 382.415266 152.294455 
L 383.218866 145.973834 
L 384.022466 143.774817 
L 384.826067 142.926604 
L 385.629667 143.891308 
L 386.433267 143.577806 
L 387.236868 145.162076 
L 388.040468 147.411777 
L 388.844068 150.958359 
L 389.647669 150.114174 
L 390.451269 148.399318 
L 391.254869 147.798408 
L 392.05847 148.494268 
L 392.86207 148.704627 
L 393.665671 148.143344 
L 394.469271 146.825433 
L 395.272871 146.935687 
L 396.076472 148.172614 
L 396.880072 149.999015 
L 397.683672 151.06787 
L 398.487273 160.661125 
L 398.487273 160.661125 
" style="fill:none;stroke:#ff7f0e;stroke-linecap:square;stroke-width:1.5;"/>
   </g>
   <g id="line2d_14">
    <path clip-path="url(#pd215f9ad0e)" d="M 89.101134 270.814982 
L 91.511935 269.601197 
L 93.922736 268.778904 
L 94.726337 268.568186 
L 99.547939 266.326986 
L 101.95874 265.831868 
L 104.369541 264.991311 
L 108.387543 262.72203 
L 109.191143 262.149821 
L 110.798344 261.491109 
L 111.601944 261.402485 
L 112.405545 261.148795 
L 114.012745 261.050786 
L 115.619946 260.86899 
L 117.227147 260.537243 
L 118.030747 260.622093 
L 120.441548 261.510142 
L 122.048749 262.341785 
L 126.066751 264.155931 
L 126.870351 264.444988 
L 127.673951 264.914135 
L 128.477552 265.549177 
L 130.084752 266.498411 
L 132.495554 270.354596 
L 134.102754 272.784014 
L 135.709955 274.727022 
L 139.727957 278.299021 
L 141.335158 279.541855 
L 142.942358 280.862814 
L 145.353159 282.340756 
L 146.15676 282.766082 
L 146.96036 282.268043 
L 148.567561 281.485732 
L 150.174761 280.565568 
L 151.781962 279.457955 
L 153.389163 278.815039 
L 155.799964 278.142657 
L 158.210765 278.082911 
L 159.014365 277.98174 
L 159.817966 277.737998 
L 160.621566 277.357045 
L 162.228767 277.060067 
L 163.835968 276.921339 
L 166.246769 276.279093 
L 168.65757 275.995236 
L 169.46117 275.723674 
L 173.479172 273.029717 
L 175.889973 271.144114 
L 177.497174 269.633954 
L 179.104374 268.62267 
L 181.515176 267.145429 
L 185.533177 264.505777 
L 186.336778 264.213545 
L 187.943978 263.972742 
L 189.551179 263.754701 
L 191.15838 263.896887 
L 193.569181 264.328687 
L 195.176382 263.826232 
L 196.783582 263.295771 
L 202.408785 263.262744 
L 209.641188 262.333739 
L 216.069991 263.051133 
L 218.480792 263.552301 
L 220.891593 263.979064 
L 224.105995 264.269568 
L 226.516796 264.340181 
L 232.945599 264.663868 
L 238.570801 264.284974 
L 240.178002 263.991662 
L 240.981602 263.69839 
L 244.196004 261.731974 
L 249.017606 258.081845 
L 252.232007 255.13978 
L 253.035608 254.438476 
L 254.642808 253.347407 
L 256.250009 252.117429 
L 257.053609 251.661899 
L 257.85721 251.415073 
L 258.66081 251.034008 
L 260.268011 250.5599 
L 262.678812 250.262589 
L 264.286013 250.084878 
L 268.304014 250.496853 
L 269.107615 250.54052 
L 270.714815 250.298903 
L 271.518416 250.428271 
L 273.929217 251.793285 
L 274.732817 252.406211 
L 277.143618 253.722358 
L 279.554419 254.827353 
L 281.16162 255.20353 
L 282.768821 255.434111 
L 285.179622 256.004917 
L 286.786823 256.770601 
L 287.590423 257.066063 
L 290.804824 256.53082 
L 294.019226 255.985459 
L 297.233627 255.906091 
L 298.840828 256.114363 
L 300.448029 256.120506 
L 301.251629 255.992564 
L 302.85883 255.464184 
L 304.466031 254.917274 
L 306.876832 254.355428 
L 308.484032 253.88847 
L 309.287633 253.553756 
L 311.698434 251.573196 
L 318.930837 245.36974 
L 320.538038 244.028313 
L 321.341638 243.278003 
L 322.948839 240.87343 
L 326.16324 237.198269 
L 326.966841 236.428024 
L 329.377642 233.707892 
L 330.984842 232.012996 
L 334.199244 226.955211 
L 337.413645 221.531266 
L 338.217246 220.644476 
L 339.020846 220.19301 
L 341.431647 218.090057 
L 342.235248 216.844963 
L 344.646049 214.25718 
L 345.449649 213.52573 
L 347.05685 211.866667 
L 347.86045 211.439119 
L 349.467651 211.077566 
L 351.074851 211.382776 
L 351.878452 211.272976 
L 352.682052 211.049993 
L 353.485653 211.017806 
L 354.289253 210.813532 
L 355.092853 209.632834 
L 357.503654 204.904203 
L 359.110855 202.730024 
L 359.914455 201.429276 
L 360.718056 200.35868 
L 362.325257 197.349223 
L 363.932457 193.348141 
L 365.539658 188.384548 
L 367.950459 179.282224 
L 371.968461 160.565708 
L 375.182862 142.046215 
L 377.593663 131.811856 
L 378.397264 127.723468 
L 380.004464 122.02731 
L 382.415266 114.902005 
L 383.218866 113.045009 
L 384.022466 112.635123 
L 384.826067 112.402703 
L 385.629667 112.665317 
L 386.433267 112.586101 
L 387.236868 113.090313 
L 388.040468 114.311033 
L 388.844068 116.875141 
L 389.647669 118.914105 
L 390.451269 120.603787 
L 391.254869 121.699465 
L 392.05847 122.360578 
L 392.86207 122.506812 
L 394.469271 123.441851 
L 395.272871 123.38104 
L 396.076472 122.735906 
L 396.880072 121.765727 
L 397.683672 121.140905 
L 398.487273 118.164081 
L 398.487273 118.164081 
" style="fill:none;stroke:#2ca02c;stroke-linecap:square;stroke-width:1.5;"/>
   </g>
   <g id="line2d_15">
    <path clip-path="url(#pd215f9ad0e)" d="M 73.832727 275.960943 
L 74.636328 277.246622 
L 75.439928 275.06499 
L 77.047129 275.009846 
L 78.654329 270.468506 
L 79.45793 271.11951 
L 80.26153 272.399835 
L 81.065131 270.289996 
L 81.868731 271.269368 
L 82.672331 270.348823 
L 83.475932 270.764765 
L 84.279532 266.787241 
L 85.083132 266.781235 
L 85.886733 267.300127 
L 86.690333 266.317931 
L 87.493933 266.256054 
L 88.297534 267.404058 
L 89.101134 267.785313 
L 89.904734 267.239553 
L 90.708335 267.616898 
L 91.511935 269.140396 
L 92.315536 268.889119 
L 93.119136 269.452293 
L 94.726337 266.254146 
L 95.529937 263.467597 
L 96.333537 264.050179 
L 97.137138 262.813401 
L 97.940738 263.734712 
L 98.744338 263.493728 
L 100.351539 264.043474 
L 101.15514 264.702514 
L 101.95874 262.220252 
L 102.76234 261.443142 
L 103.565941 261.114207 
L 104.369541 260.609548 
L 105.173141 259.115742 
L 105.976742 260.864196 
L 106.780342 258.521808 
L 107.583942 258.058003 
L 108.387543 258.725921 
L 109.191143 258.00811 
L 109.994743 260.579156 
L 110.798344 260.447819 
L 111.601944 261.695108 
L 112.405545 258.976385 
L 113.209145 262.333145 
L 114.012745 262.254779 
L 114.816346 261.754728 
L 115.619946 261.911772 
L 116.423546 260.181082 
L 118.030747 263.917245 
L 118.834347 266.885308 
L 119.637948 266.735347 
L 120.441548 267.307219 
L 121.245149 268.311665 
L 122.048749 268.301135 
L 122.852349 266.113931 
L 123.65595 267.009629 
L 124.45955 267.011291 
L 125.26315 265.280837 
L 126.066751 264.760227 
L 126.870351 266.228959 
L 127.673951 271.078061 
L 128.477552 271.677217 
L 129.281152 271.93347 
L 130.084752 271.639138 
L 130.888353 288.848492 
L 131.691953 284.794226 
L 132.495554 287.328554 
L 133.299154 286.321417 
L 134.102754 288.114164 
L 134.906355 286.451555 
L 135.709955 286.029247 
L 136.513555 281.673775 
L 137.317156 281.524512 
L 138.120756 281.575472 
L 138.924356 283.807743 
L 139.727957 279.90206 
L 140.531557 278.350362 
L 141.335158 278.798443 
L 142.138758 278.672394 
L 142.942358 278.735971 
L 143.745959 281.411562 
L 144.549559 283.363855 
L 145.353159 279.472178 
L 146.15676 280.145659 
L 146.96036 278.887717 
L 147.76396 277.974859 
L 148.567561 278.501693 
L 149.371161 277.748968 
L 150.174761 278.283338 
L 150.978362 275.341681 
L 151.781962 274.98685 
L 153.389163 275.244219 
L 154.192763 277.539113 
L 154.996364 278.082521 
L 155.799964 276.216007 
L 156.603564 278.371422 
L 157.407165 277.679923 
L 158.210765 278.574931 
L 159.014365 276.71254 
L 159.817966 276.536726 
L 160.621566 275.744789 
L 161.425167 276.061881 
L 162.228767 277.616402 
L 163.032367 277.840282 
L 163.835968 276.247739 
L 164.639568 273.872949 
L 165.443168 274.179218 
L 166.246769 273.636914 
L 167.050369 273.614051 
L 168.65757 272.925526 
L 169.46117 269.812969 
L 170.26477 267.165058 
L 171.068371 266.990406 
L 171.871971 266.31116 
L 172.675572 266.721606 
L 173.479172 266.821618 
L 174.282772 266.260984 
L 175.086373 264.285406 
L 175.889973 263.565758 
L 176.693573 260.105185 
L 177.497174 261.498285 
L 178.300774 268.72502 
L 179.104374 266.505985 
L 179.907975 267.226256 
L 180.711575 265.133936 
L 181.515176 262.394895 
L 183.122376 263.060881 
L 183.925977 261.303871 
L 184.729577 262.089093 
L 185.533177 261.221 
L 186.336778 261.320417 
L 187.140378 263.796947 
L 187.943978 264.688556 
L 189.551179 264.545026 
L 190.354779 266.963391 
L 191.15838 266.426726 
L 191.96198 266.132073 
L 192.765581 264.517714 
L 193.569181 263.155425 
L 194.372781 262.574902 
L 195.176382 262.607002 
L 195.979982 262.494808 
L 196.783582 259.256174 
L 197.587183 262.327649 
L 198.390783 262.695398 
L 199.194383 260.954367 
L 199.997984 261.844304 
L 200.801584 262.174089 
L 201.605185 261.557499 
L 202.408785 261.905445 
L 204.015986 261.177085 
L 204.819586 262.999118 
L 205.623186 263.24596 
L 206.426787 263.305415 
L 207.230387 264.918329 
L 208.033987 262.915326 
L 209.641188 263.161743 
L 210.444788 264.131265 
L 212.051989 263.774423 
L 213.65919 262.343146 
L 214.46279 262.804477 
L 215.266391 264.14273 
L 216.069991 264.973293 
L 216.873591 264.764968 
L 217.677192 265.744207 
L 218.480792 265.151218 
L 219.284392 264.877899 
L 220.087993 264.8237 
L 220.891593 264.56347 
L 221.695194 265.15799 
L 223.302394 265.269292 
L 224.105995 264.544346 
L 224.909595 264.192321 
L 225.713195 264.111811 
L 226.516796 263.407665 
L 227.320396 264.876029 
L 228.123996 264.120499 
L 229.731197 264.026366 
L 230.534797 264.549125 
L 231.338398 264.48271 
L 232.141998 265.036898 
L 233.749199 264.901287 
L 236.16 264.52586 
L 237.767201 262.797025 
L 238.570801 262.610799 
L 239.374401 262.286284 
L 240.178002 261.661109 
L 240.981602 258.326883 
L 241.785203 254.446463 
L 242.588803 254.462395 
L 243.392403 254.060081 
L 244.196004 254.21874 
L 244.999604 252.356438 
L 245.803204 252.656059 
L 246.606805 253.431421 
L 247.410405 252.799334 
L 248.214005 253.119457 
L 249.017606 249.848143 
L 249.821206 249.675615 
L 250.624806 251.141882 
L 251.428407 250.586858 
L 252.232007 248.638578 
L 253.035608 249.645951 
L 253.839208 252.425266 
L 255.446409 250.059599 
L 256.250009 249.288248 
L 257.053609 249.216268 
L 257.85721 249.509957 
L 258.66081 246.841081 
L 259.46441 249.15864 
L 260.268011 249.638033 
L 261.071611 251.058932 
L 261.875212 250.540538 
L 262.678812 250.898227 
L 263.482412 250.147356 
L 264.286013 252.217218 
L 265.089613 251.763359 
L 265.893213 252.651293 
L 266.696814 251.630747 
L 267.500414 251.444783 
L 268.304014 250.640383 
L 269.107615 250.519295 
L 269.911215 248.899636 
L 270.714815 249.854475 
L 271.518416 252.64695 
L 272.322016 258.371658 
L 273.125617 257.539253 
L 273.929217 259.40384 
L 274.732817 259.099611 
L 275.536418 258.235749 
L 276.340018 259.84548 
L 277.143618 258.097303 
L 278.750819 257.557015 
L 279.554419 258.255665 
L 280.35802 256.174796 
L 281.16162 255.329325 
L 281.965221 254.174069 
L 282.768821 254.719586 
L 283.572421 254.737606 
L 284.376022 254.086263 
L 285.179622 255.196704 
L 285.983222 257.047959 
L 286.786823 257.019844 
L 287.590423 258.556186 
L 288.394023 256.216392 
L 289.197624 255.898435 
L 290.804824 255.766544 
L 291.608425 255.139158 
L 292.412025 255.698893 
L 293.215626 255.827548 
L 294.019226 256.479063 
L 294.822826 256.814916 
L 295.626427 256.884621 
L 297.233627 255.743543 
L 298.037228 256.688576 
L 298.840828 256.37053 
L 299.644428 254.943499 
L 300.448029 254.003237 
L 301.251629 252.63786 
L 302.05523 252.226045 
L 302.85883 251.274146 
L 303.66243 251.912655 
L 304.466031 251.92174 
L 305.269631 251.470326 
L 306.073231 252.518696 
L 306.876832 252.267155 
L 307.680432 251.433891 
L 308.484032 250.065001 
L 309.287633 249.133283 
L 310.091233 244.098616 
L 310.894833 243.098977 
L 311.698434 243.369803 
L 312.502034 242.310478 
L 313.305635 242.809358 
L 314.109235 242.646081 
L 314.912835 239.410951 
L 315.716436 241.463927 
L 316.520036 240.42502 
L 317.323636 239.817997 
L 318.127237 238.513713 
L 318.930837 238.707127 
L 319.734437 239.816307 
L 320.538038 237.18955 
L 321.341638 236.464137 
L 322.145239 228.334291 
L 322.948839 228.360083 
L 323.752439 232.581885 
L 324.55604 228.924079 
L 325.35964 229.800105 
L 326.16324 229.921517 
L 326.966841 227.694072 
L 327.770441 224.32547 
L 328.574041 224.15935 
L 329.377642 225.602187 
L 330.181242 226.211146 
L 330.984842 221.947969 
L 331.788443 216.532416 
L 332.592043 215.915165 
L 333.395644 215.74624 
L 334.199244 210.871121 
L 335.002844 210.746006 
L 335.806445 212.298601 
L 336.610045 212.535438 
L 337.413645 208.118183 
L 338.217246 210.598491 
L 339.020846 219.33077 
L 339.824446 219.479126 
L 340.628047 216.183186 
L 341.431647 213.584686 
L 342.235248 205.019632 
L 343.038848 210.192493 
L 343.842448 207.75014 
L 344.646049 206.480601 
L 345.449649 210.973191 
L 346.253249 208.137127 
L 347.05685 206.840729 
L 347.86045 207.981461 
L 348.66405 212.870682 
L 349.467651 211.559664 
L 350.271251 213.248234 
L 351.074851 214.473093 
L 351.878452 210.102595 
L 352.682052 208.07577 
L 353.485653 207.474451 
L 354.289253 206.513004 
L 355.092853 195.716811 
L 355.896454 187.430063 
L 356.700054 185.611118 
L 357.503654 181.633198 
L 358.307255 183.765514 
L 359.110855 187.963026 
L 359.914455 181.735184 
L 360.718056 185.068693 
L 361.521656 182.231892 
L 362.325257 176.689279 
L 363.128857 166.840227 
L 363.932457 167.960324 
L 364.736058 163.463522 
L 365.539658 161.694971 
L 366.343258 153.013689 
L 367.146859 152.615766 
L 367.950459 150.14799 
L 368.754059 134.244063 
L 369.55766 129.511821 
L 370.36126 135.2692 
L 371.16486 123.837559 
L 372.772061 93.008917 
L 373.575662 86.542897 
L 374.379262 88.746298 
L 375.182862 100.284902 
L 375.986463 115.744904 
L 376.790063 123.696428 
L 377.593663 104.907253 
L 378.397264 94.921508 
L 379.200864 108.339734 
L 380.004464 112.537671 
L 380.808065 113.581281 
L 381.611665 108.980321 
L 382.415266 113.104472 
L 383.218866 115.475853 
L 384.022466 141.95026 
L 384.826067 129.595656 
L 385.629667 134.764107 
L 386.433267 133.684874 
L 387.236868 133.921814 
L 388.040468 132.431503 
L 388.844068 144.29109 
L 389.647669 127.322181 
L 390.451269 122.539933 
L 391.254869 122.198466 
L 392.05847 128.967148 
L 392.86207 126.621105 
L 394.469271 103.153651 
L 395.272871 107.123525 
L 396.076472 99.634984 
L 396.880072 94.177698 
L 397.683672 96.483877 
L 398.487273 53.568 
L 398.487273 53.568 
" style="fill:none;stroke:#d62728;stroke-linecap:square;stroke-width:1.5;"/>
   </g>
   <g id="patch_3">
    <path d="M 57.6 307.584 
L 57.6 41.472 
" style="fill:none;stroke:#000000;stroke-linecap:square;stroke-linejoin:miter;stroke-width:0.8;"/>
   </g>
   <g id="patch_4">
    <path d="M 414.72 307.584 
L 414.72 41.472 
" style="fill:none;stroke:#000000;stroke-linecap:square;stroke-linejoin:miter;stroke-width:0.8;"/>
   </g>
   <g id="patch_5">
    <path d="M 57.6 307.584 
L 414.72 307.584 
" style="fill:none;stroke:#000000;stroke-linecap:square;stroke-linejoin:miter;stroke-width:0.8;"/>
   </g>
   <g id="patch_6">
    <path d="M 57.6 41.472 
L 414.72 41.472 
" style="fill:none;stroke:#000000;stroke-linecap:square;stroke-linejoin:miter;stroke-width:0.8;"/>
   </g>
   <g id="text_12">
    <!-- Data source: coindesk -->
    <g transform="translate(180.640469 35.472)scale(0.1 -0.1)">
     <defs>
      <path d="M 19.671875 64.796875 
L 19.671875 8.109375 
L 31.59375 8.109375 
Q 46.6875 8.109375 53.6875 14.9375 
Q 60.6875 21.78125 60.6875 36.53125 
Q 60.6875 51.171875 53.6875 57.984375 
Q 46.6875 64.796875 31.59375 64.796875 
z
M 9.8125 72.90625 
L 30.078125 72.90625 
Q 51.265625 72.90625 61.171875 64.09375 
Q 71.09375 55.28125 71.09375 36.53125 
Q 71.09375 17.671875 61.125 8.828125 
Q 51.171875 0 30.078125 0 
L 9.8125 0 
z
" id="DejaVuSans-68"/>
      <path d="M 34.28125 27.484375 
Q 23.390625 27.484375 19.1875 25 
Q 14.984375 22.515625 14.984375 16.5 
Q 14.984375 11.71875 18.140625 8.90625 
Q 21.296875 6.109375 26.703125 6.109375 
Q 34.1875 6.109375 38.703125 11.40625 
Q 43.21875 16.703125 43.21875 25.484375 
L 43.21875 27.484375 
z
M 52.203125 31.203125 
L 52.203125 0 
L 43.21875 0 
L 43.21875 8.296875 
Q 40.140625 3.328125 35.546875 0.953125 
Q 30.953125 -1.421875 24.3125 -1.421875 
Q 15.921875 -1.421875 10.953125 3.296875 
Q 6 8.015625 6 15.921875 
Q 6 25.140625 12.171875 29.828125 
Q 18.359375 34.515625 30.609375 34.515625 
L 43.21875 34.515625 
L 43.21875 35.40625 
Q 43.21875 41.609375 39.140625 45 
Q 35.0625 48.390625 27.6875 48.390625 
Q 23 48.390625 18.546875 47.265625 
Q 14.109375 46.140625 10.015625 43.890625 
L 10.015625 52.203125 
Q 14.9375 54.109375 19.578125 55.046875 
Q 24.21875 56 28.609375 56 
Q 40.484375 56 46.34375 49.84375 
Q 52.203125 43.703125 52.203125 31.203125 
z
" id="DejaVuSans-97"/>
      <path d="M 18.3125 70.21875 
L 18.3125 54.6875 
L 36.8125 54.6875 
L 36.8125 47.703125 
L 18.3125 47.703125 
L 18.3125 18.015625 
Q 18.3125 11.328125 20.140625 9.421875 
Q 21.96875 7.515625 27.59375 7.515625 
L 36.8125 7.515625 
L 36.8125 0 
L 27.59375 0 
Q 17.1875 0 13.234375 3.875 
Q 9.28125 7.765625 9.28125 18.015625 
L 9.28125 47.703125 
L 2.6875 47.703125 
L 2.6875 54.6875 
L 9.28125 54.6875 
L 9.28125 70.21875 
z
" id="DejaVuSans-116"/>
      <path id="DejaVuSans-32"/>
      <path d="M 44.28125 53.078125 
L 44.28125 44.578125 
Q 40.484375 46.53125 36.375 47.5 
Q 32.28125 48.484375 27.875 48.484375 
Q 21.1875 48.484375 17.84375 46.4375 
Q 14.5 44.390625 14.5 40.28125 
Q 14.5 37.15625 16.890625 35.375 
Q 19.28125 33.59375 26.515625 31.984375 
L 29.59375 31.296875 
Q 39.15625 29.25 43.1875 25.515625 
Q 47.21875 21.78125 47.21875 15.09375 
Q 47.21875 7.46875 41.1875 3.015625 
Q 35.15625 -1.421875 24.609375 -1.421875 
Q 20.21875 -1.421875 15.453125 -0.5625 
Q 10.6875 0.296875 5.421875 2 
L 5.421875 11.28125 
Q 10.40625 8.6875 15.234375 7.390625 
Q 20.0625 6.109375 24.8125 6.109375 
Q 31.15625 6.109375 34.5625 8.28125 
Q 37.984375 10.453125 37.984375 14.40625 
Q 37.984375 18.0625 35.515625 20.015625 
Q 33.0625 21.96875 24.703125 23.78125 
L 21.578125 24.515625 
Q 13.234375 26.265625 9.515625 29.90625 
Q 5.8125 33.546875 5.8125 39.890625 
Q 5.8125 47.609375 11.28125 51.796875 
Q 16.75 56 26.8125 56 
Q 31.78125 56 36.171875 55.265625 
Q 40.578125 54.546875 44.28125 53.078125 
z
" id="DejaVuSans-115"/>
      <path d="M 30.609375 48.390625 
Q 23.390625 48.390625 19.1875 42.75 
Q 14.984375 37.109375 14.984375 27.296875 
Q 14.984375 17.484375 19.15625 11.84375 
Q 23.34375 6.203125 30.609375 6.203125 
Q 37.796875 6.203125 41.984375 11.859375 
Q 46.1875 17.53125 46.1875 27.296875 
Q 46.1875 37.015625 41.984375 42.703125 
Q 37.796875 48.390625 30.609375 48.390625 
z
M 30.609375 56 
Q 42.328125 56 49.015625 48.375 
Q 55.71875 40.765625 55.71875 27.296875 
Q 55.71875 13.875 49.015625 6.21875 
Q 42.328125 -1.421875 30.609375 -1.421875 
Q 18.84375 -1.421875 12.171875 6.21875 
Q 5.515625 13.875 5.515625 27.296875 
Q 5.515625 40.765625 12.171875 48.375 
Q 18.84375 56 30.609375 56 
z
" id="DejaVuSans-111"/>
      <path d="M 8.5 21.578125 
L 8.5 54.6875 
L 17.484375 54.6875 
L 17.484375 21.921875 
Q 17.484375 14.15625 20.5 10.265625 
Q 23.53125 6.390625 29.59375 6.390625 
Q 36.859375 6.390625 41.078125 11.03125 
Q 45.3125 15.671875 45.3125 23.6875 
L 45.3125 54.6875 
L 54.296875 54.6875 
L 54.296875 0 
L 45.3125 0 
L 45.3125 8.40625 
Q 42.046875 3.421875 37.71875 1 
Q 33.40625 -1.421875 27.6875 -1.421875 
Q 18.265625 -1.421875 13.375 4.4375 
Q 8.5 10.296875 8.5 21.578125 
z
M 31.109375 56 
z
" id="DejaVuSans-117"/>
      <path d="M 41.109375 46.296875 
Q 39.59375 47.171875 37.8125 47.578125 
Q 36.03125 48 33.890625 48 
Q 26.265625 48 22.1875 43.046875 
Q 18.109375 38.09375 18.109375 28.8125 
L 18.109375 0 
L 9.078125 0 
L 9.078125 54.6875 
L 18.109375 54.6875 
L 18.109375 46.1875 
Q 20.953125 51.171875 25.484375 53.578125 
Q 30.03125 56 36.53125 56 
Q 37.453125 56 38.578125 55.875 
Q 39.703125 55.765625 41.0625 55.515625 
z
" id="DejaVuSans-114"/>
      <path d="M 48.78125 52.59375 
L 48.78125 44.1875 
Q 44.96875 46.296875 41.140625 47.34375 
Q 37.3125 48.390625 33.40625 48.390625 
Q 24.65625 48.390625 19.8125 42.84375 
Q 14.984375 37.3125 14.984375 27.296875 
Q 14.984375 17.28125 19.8125 11.734375 
Q 24.65625 6.203125 33.40625 6.203125 
Q 37.3125 6.203125 41.140625 7.25 
Q 44.96875 8.296875 48.78125 10.40625 
L 48.78125 2.09375 
Q 45.015625 0.34375 40.984375 -0.53125 
Q 36.96875 -1.421875 32.421875 -1.421875 
Q 20.0625 -1.421875 12.78125 6.34375 
Q 5.515625 14.109375 5.515625 27.296875 
Q 5.515625 40.671875 12.859375 48.328125 
Q 20.21875 56 33.015625 56 
Q 37.15625 56 41.109375 55.140625 
Q 45.0625 54.296875 48.78125 52.59375 
z
" id="DejaVuSans-99"/>
      <path d="M 56.203125 29.59375 
L 56.203125 25.203125 
L 14.890625 25.203125 
Q 15.484375 15.921875 20.484375 11.0625 
Q 25.484375 6.203125 34.421875 6.203125 
Q 39.59375 6.203125 44.453125 7.46875 
Q 49.3125 8.734375 54.109375 11.28125 
L 54.109375 2.78125 
Q 49.265625 0.734375 44.1875 -0.34375 
Q 39.109375 -1.421875 33.890625 -1.421875 
Q 20.796875 -1.421875 13.15625 6.1875 
Q 5.515625 13.8125 5.515625 26.8125 
Q 5.515625 40.234375 12.765625 48.109375 
Q 20.015625 56 32.328125 56 
Q 43.359375 56 49.78125 48.890625 
Q 56.203125 41.796875 56.203125 29.59375 
z
M 47.21875 32.234375 
Q 47.125 39.59375 43.09375 43.984375 
Q 39.0625 48.390625 32.421875 48.390625 
Q 24.90625 48.390625 20.390625 44.140625 
Q 15.875 39.890625 15.1875 32.171875 
z
" id="DejaVuSans-101"/>
      <path d="M 11.71875 12.40625 
L 22.015625 12.40625 
L 22.015625 0 
L 11.71875 0 
z
M 11.71875 51.703125 
L 22.015625 51.703125 
L 22.015625 39.3125 
L 11.71875 39.3125 
z
" id="DejaVuSans-58"/>
      <path d="M 9.421875 54.6875 
L 18.40625 54.6875 
L 18.40625 0 
L 9.421875 0 
z
M 9.421875 75.984375 
L 18.40625 75.984375 
L 18.40625 64.59375 
L 9.421875 64.59375 
z
" id="DejaVuSans-105"/>
      <path d="M 54.890625 33.015625 
L 54.890625 0 
L 45.90625 0 
L 45.90625 32.71875 
Q 45.90625 40.484375 42.875 44.328125 
Q 39.84375 48.1875 33.796875 48.1875 
Q 26.515625 48.1875 22.3125 43.546875 
Q 18.109375 38.921875 18.109375 30.90625 
L 18.109375 0 
L 9.078125 0 
L 9.078125 54.6875 
L 18.109375 54.6875 
L 18.109375 46.1875 
Q 21.34375 51.125 25.703125 53.5625 
Q 30.078125 56 35.796875 56 
Q 45.21875 56 50.046875 50.171875 
Q 54.890625 44.34375 54.890625 33.015625 
z
" id="DejaVuSans-110"/>
      <path d="M 45.40625 46.390625 
L 45.40625 75.984375 
L 54.390625 75.984375 
L 54.390625 0 
L 45.40625 0 
L 45.40625 8.203125 
Q 42.578125 3.328125 38.25 0.953125 
Q 33.9375 -1.421875 27.875 -1.421875 
Q 17.96875 -1.421875 11.734375 6.484375 
Q 5.515625 14.40625 5.515625 27.296875 
Q 5.515625 40.1875 11.734375 48.09375 
Q 17.96875 56 27.875 56 
Q 33.9375 56 38.25 53.625 
Q 42.578125 51.265625 45.40625 46.390625 
z
M 14.796875 27.296875 
Q 14.796875 17.390625 18.875 11.75 
Q 22.953125 6.109375 30.078125 6.109375 
Q 37.203125 6.109375 41.296875 11.75 
Q 45.40625 17.390625 45.40625 27.296875 
Q 45.40625 37.203125 41.296875 42.84375 
Q 37.203125 48.484375 30.078125 48.484375 
Q 22.953125 48.484375 18.875 42.84375 
Q 14.796875 37.203125 14.796875 27.296875 
z
" id="DejaVuSans-100"/>
      <path d="M 9.078125 75.984375 
L 18.109375 75.984375 
L 18.109375 31.109375 
L 44.921875 54.6875 
L 56.390625 54.6875 
L 27.390625 29.109375 
L 57.625 0 
L 45.90625 0 
L 18.109375 26.703125 
L 18.109375 0 
L 9.078125 0 
z
" id="DejaVuSans-107"/>
     </defs>
     <use xlink:href="#DejaVuSans-68"/>
     <use x="77.001953" xlink:href="#DejaVuSans-97"/>
     <use x="138.28125" xlink:href="#DejaVuSans-116"/>
     <use x="177.490234" xlink:href="#DejaVuSans-97"/>
     <use x="238.769531" xlink:href="#DejaVuSans-32"/>
     <use x="270.556641" xlink:href="#DejaVuSans-115"/>
     <use x="322.65625" xlink:href="#DejaVuSans-111"/>
     <use x="383.837891" xlink:href="#DejaVuSans-117"/>
     <use x="447.216797" xlink:href="#DejaVuSans-114"/>
     <use x="486.080078" xlink:href="#DejaVuSans-99"/>
     <use x="541.060547" xlink:href="#DejaVuSans-101"/>
     <use x="602.583984" xlink:href="#DejaVuSans-58"/>
     <use x="636.275391" xlink:href="#DejaVuSans-32"/>
     <use x="668.0625" xlink:href="#DejaVuSans-99"/>
     <use x="723.042969" xlink:href="#DejaVuSans-111"/>
     <use x="784.224609" xlink:href="#DejaVuSans-105"/>
     <use x="812.007812" xlink:href="#DejaVuSans-110"/>
     <use x="875.386719" xlink:href="#DejaVuSans-100"/>
     <use x="938.863281" xlink:href="#DejaVuSans-101"/>
     <use x="1000.386719" xlink:href="#DejaVuSans-115"/>
     <use x="1052.486328" xlink:href="#DejaVuSans-107"/>
    </g>
   </g>
   <g id="legend_1">
    <g id="patch_7">
     <path d="M 64.6 108.1845 
L 155.732812 108.1845 
Q 157.732812 108.1845 157.732812 106.1845 
L 157.732812 48.472 
Q 157.732812 46.472 155.732812 46.472 
L 64.6 46.472 
Q 62.6 46.472 62.6 48.472 
L 62.6 106.1845 
Q 62.6 108.1845 64.6 108.1845 
z
" style="fill:#ffffff;opacity:0.8;stroke:#cccccc;stroke-linejoin:miter;"/>
    </g>
    <g id="line2d_16">
     <path d="M 66.6 54.570438 
L 86.6 54.570438 
" style="fill:none;stroke:#1f77b4;stroke-linecap:square;stroke-width:1.5;"/>
    </g>
    <g id="line2d_17"/>
    <g id="text_13">
     <!-- Upper Band -->
     <g transform="translate(94.6 58.070438)scale(0.1 -0.1)">
      <defs>
       <path d="M 8.6875 72.90625 
L 18.609375 72.90625 
L 18.609375 28.609375 
Q 18.609375 16.890625 22.84375 11.734375 
Q 27.09375 6.59375 36.625 6.59375 
Q 46.09375 6.59375 50.34375 11.734375 
Q 54.59375 16.890625 54.59375 28.609375 
L 54.59375 72.90625 
L 64.5 72.90625 
L 64.5 27.390625 
Q 64.5 13.140625 57.4375 5.859375 
Q 50.390625 -1.421875 36.625 -1.421875 
Q 22.796875 -1.421875 15.734375 5.859375 
Q 8.6875 13.140625 8.6875 27.390625 
z
" id="DejaVuSans-85"/>
       <path d="M 18.109375 8.203125 
L 18.109375 -20.796875 
L 9.078125 -20.796875 
L 9.078125 54.6875 
L 18.109375 54.6875 
L 18.109375 46.390625 
Q 20.953125 51.265625 25.265625 53.625 
Q 29.59375 56 35.59375 56 
Q 45.5625 56 51.78125 48.09375 
Q 58.015625 40.1875 58.015625 27.296875 
Q 58.015625 14.40625 51.78125 6.484375 
Q 45.5625 -1.421875 35.59375 -1.421875 
Q 29.59375 -1.421875 25.265625 0.953125 
Q 20.953125 3.328125 18.109375 8.203125 
z
M 48.6875 27.296875 
Q 48.6875 37.203125 44.609375 42.84375 
Q 40.53125 48.484375 33.40625 48.484375 
Q 26.265625 48.484375 22.1875 42.84375 
Q 18.109375 37.203125 18.109375 27.296875 
Q 18.109375 17.390625 22.1875 11.75 
Q 26.265625 6.109375 33.40625 6.109375 
Q 40.53125 6.109375 44.609375 11.75 
Q 48.6875 17.390625 48.6875 27.296875 
z
" id="DejaVuSans-112"/>
       <path d="M 19.671875 34.8125 
L 19.671875 8.109375 
L 35.5 8.109375 
Q 43.453125 8.109375 47.28125 11.40625 
Q 51.125 14.703125 51.125 21.484375 
Q 51.125 28.328125 47.28125 31.5625 
Q 43.453125 34.8125 35.5 34.8125 
z
M 19.671875 64.796875 
L 19.671875 42.828125 
L 34.28125 42.828125 
Q 41.5 42.828125 45.03125 45.53125 
Q 48.578125 48.25 48.578125 53.8125 
Q 48.578125 59.328125 45.03125 62.0625 
Q 41.5 64.796875 34.28125 64.796875 
z
M 9.8125 72.90625 
L 35.015625 72.90625 
Q 46.296875 72.90625 52.390625 68.21875 
Q 58.5 63.53125 58.5 54.890625 
Q 58.5 48.1875 55.375 44.234375 
Q 52.25 40.28125 46.1875 39.3125 
Q 53.46875 37.75 57.5 32.78125 
Q 61.53125 27.828125 61.53125 20.40625 
Q 61.53125 10.640625 54.890625 5.3125 
Q 48.25 0 35.984375 0 
L 9.8125 0 
z
" id="DejaVuSans-66"/>
      </defs>
      <use xlink:href="#DejaVuSans-85"/>
      <use x="73.193359" xlink:href="#DejaVuSans-112"/>
      <use x="136.669922" xlink:href="#DejaVuSans-112"/>
      <use x="200.146484" xlink:href="#DejaVuSans-101"/>
      <use x="261.669922" xlink:href="#DejaVuSans-114"/>
      <use x="302.783203" xlink:href="#DejaVuSans-32"/>
      <use x="334.570312" xlink:href="#DejaVuSans-66"/>
      <use x="403.173828" xlink:href="#DejaVuSans-97"/>
      <use x="464.453125" xlink:href="#DejaVuSans-110"/>
      <use x="527.832031" xlink:href="#DejaVuSans-100"/>
     </g>
    </g>
    <g id="line2d_18">
     <path d="M 66.6 69.248563 
L 86.6 69.248563 
" style="fill:none;stroke:#ff7f0e;stroke-linecap:square;stroke-width:1.5;"/>
    </g>
    <g id="line2d_19"/>
    <g id="text_14">
     <!-- Lower Band -->
     <g transform="translate(94.6 72.748563)scale(0.1 -0.1)">
      <defs>
       <path d="M 9.8125 72.90625 
L 19.671875 72.90625 
L 19.671875 8.296875 
L 55.171875 8.296875 
L 55.171875 0 
L 9.8125 0 
z
" id="DejaVuSans-76"/>
       <path d="M 4.203125 54.6875 
L 13.1875 54.6875 
L 24.421875 12.015625 
L 35.59375 54.6875 
L 46.1875 54.6875 
L 57.421875 12.015625 
L 68.609375 54.6875 
L 77.59375 54.6875 
L 63.28125 0 
L 52.6875 0 
L 40.921875 44.828125 
L 29.109375 0 
L 18.5 0 
z
" id="DejaVuSans-119"/>
      </defs>
      <use xlink:href="#DejaVuSans-76"/>
      <use x="53.962891" xlink:href="#DejaVuSans-111"/>
      <use x="115.144531" xlink:href="#DejaVuSans-119"/>
      <use x="196.931641" xlink:href="#DejaVuSans-101"/>
      <use x="258.455078" xlink:href="#DejaVuSans-114"/>
      <use x="299.568359" xlink:href="#DejaVuSans-32"/>
      <use x="331.355469" xlink:href="#DejaVuSans-66"/>
      <use x="399.958984" xlink:href="#DejaVuSans-97"/>
      <use x="461.238281" xlink:href="#DejaVuSans-110"/>
      <use x="524.617188" xlink:href="#DejaVuSans-100"/>
     </g>
    </g>
    <g id="line2d_20">
     <path d="M 66.6 83.926688 
L 86.6 83.926688 
" style="fill:none;stroke:#2ca02c;stroke-linecap:square;stroke-width:1.5;"/>
    </g>
    <g id="line2d_21"/>
    <g id="text_15">
     <!-- MA -->
     <g transform="translate(94.6 87.426688)scale(0.1 -0.1)">
      <defs>
       <path d="M 9.8125 72.90625 
L 24.515625 72.90625 
L 43.109375 23.296875 
L 61.8125 72.90625 
L 76.515625 72.90625 
L 76.515625 0 
L 66.890625 0 
L 66.890625 64.015625 
L 48.09375 14.015625 
L 38.1875 14.015625 
L 19.390625 64.015625 
L 19.390625 0 
L 9.8125 0 
z
" id="DejaVuSans-77"/>
       <path d="M 34.1875 63.1875 
L 20.796875 26.90625 
L 47.609375 26.90625 
z
M 28.609375 72.90625 
L 39.796875 72.90625 
L 67.578125 0 
L 57.328125 0 
L 50.6875 18.703125 
L 17.828125 18.703125 
L 11.1875 0 
L 0.78125 0 
z
" id="DejaVuSans-65"/>
      </defs>
      <use xlink:href="#DejaVuSans-77"/>
      <use x="86.279297" xlink:href="#DejaVuSans-65"/>
     </g>
    </g>
    <g id="line2d_22">
     <path d="M 66.6 98.604813 
L 86.6 98.604813 
" style="fill:none;stroke:#d62728;stroke-linecap:square;stroke-width:1.5;"/>
    </g>
    <g id="line2d_23"/>
    <g id="text_16">
     <!-- BTC-USD -->
     <g transform="translate(94.6 102.104813)scale(0.1 -0.1)">
      <defs>
       <path d="M -0.296875 72.90625 
L 61.375 72.90625 
L 61.375 64.59375 
L 35.5 64.59375 
L 35.5 0 
L 25.59375 0 
L 25.59375 64.59375 
L -0.296875 64.59375 
z
" id="DejaVuSans-84"/>
       <path d="M 64.40625 67.28125 
L 64.40625 56.890625 
Q 59.421875 61.53125 53.78125 63.8125 
Q 48.140625 66.109375 41.796875 66.109375 
Q 29.296875 66.109375 22.65625 58.46875 
Q 16.015625 50.828125 16.015625 36.375 
Q 16.015625 21.96875 22.65625 14.328125 
Q 29.296875 6.6875 41.796875 6.6875 
Q 48.140625 6.6875 53.78125 8.984375 
Q 59.421875 11.28125 64.40625 15.921875 
L 64.40625 5.609375 
Q 59.234375 2.09375 53.4375 0.328125 
Q 47.65625 -1.421875 41.21875 -1.421875 
Q 24.65625 -1.421875 15.125 8.703125 
Q 5.609375 18.84375 5.609375 36.375 
Q 5.609375 53.953125 15.125 64.078125 
Q 24.65625 74.21875 41.21875 74.21875 
Q 47.75 74.21875 53.53125 72.484375 
Q 59.328125 70.75 64.40625 67.28125 
z
" id="DejaVuSans-67"/>
       <path d="M 53.515625 70.515625 
L 53.515625 60.890625 
Q 47.90625 63.578125 42.921875 64.890625 
Q 37.9375 66.21875 33.296875 66.21875 
Q 25.25 66.21875 20.875 63.09375 
Q 16.5 59.96875 16.5 54.203125 
Q 16.5 49.359375 19.40625 46.890625 
Q 22.3125 44.4375 30.421875 42.921875 
L 36.375 41.703125 
Q 47.40625 39.59375 52.65625 34.296875 
Q 57.90625 29 57.90625 20.125 
Q 57.90625 9.515625 50.796875 4.046875 
Q 43.703125 -1.421875 29.984375 -1.421875 
Q 24.8125 -1.421875 18.96875 -0.25 
Q 13.140625 0.921875 6.890625 3.21875 
L 6.890625 13.375 
Q 12.890625 10.015625 18.65625 8.296875 
Q 24.421875 6.59375 29.984375 6.59375 
Q 38.421875 6.59375 43.015625 9.90625 
Q 47.609375 13.234375 47.609375 19.390625 
Q 47.609375 24.75 44.3125 27.78125 
Q 41.015625 30.8125 33.5 32.328125 
L 27.484375 33.5 
Q 16.453125 35.6875 11.515625 40.375 
Q 6.59375 45.0625 6.59375 53.421875 
Q 6.59375 63.09375 13.40625 68.65625 
Q 20.21875 74.21875 32.171875 74.21875 
Q 37.3125 74.21875 42.625 73.28125 
Q 47.953125 72.359375 53.515625 70.515625 
z
" id="DejaVuSans-83"/>
      </defs>
      <use xlink:href="#DejaVuSans-66"/>
      <use x="68.603516" xlink:href="#DejaVuSans-84"/>
      <use x="123.8125" xlink:href="#DejaVuSans-67"/>
      <use x="193.636719" xlink:href="#DejaVuSans-45"/>
      <use x="229.720703" xlink:href="#DejaVuSans-85"/>
      <use x="302.914062" xlink:href="#DejaVuSans-83"/>
      <use x="366.390625" xlink:href="#DejaVuSans-68"/>
     </g>
    </g>
   </g>
  </g>
  <g id="text_17">
   <!-- Bollinger Band -->
   <g transform="translate(171.90625 19.0695)scale(0.16 -0.16)">
    <defs>
     <path d="M 9.421875 75.984375 
L 18.40625 75.984375 
L 18.40625 0 
L 9.421875 0 
z
" id="DejaVuSans-108"/>
     <path d="M 45.40625 27.984375 
Q 45.40625 37.75 41.375 43.109375 
Q 37.359375 48.484375 30.078125 48.484375 
Q 22.859375 48.484375 18.828125 43.109375 
Q 14.796875 37.75 14.796875 27.984375 
Q 14.796875 18.265625 18.828125 12.890625 
Q 22.859375 7.515625 30.078125 7.515625 
Q 37.359375 7.515625 41.375 12.890625 
Q 45.40625 18.265625 45.40625 27.984375 
z
M 54.390625 6.78125 
Q 54.390625 -7.171875 48.1875 -13.984375 
Q 42 -20.796875 29.203125 -20.796875 
Q 24.46875 -20.796875 20.265625 -20.09375 
Q 16.0625 -19.390625 12.109375 -17.921875 
L 12.109375 -9.1875 
Q 16.0625 -11.328125 19.921875 -12.34375 
Q 23.78125 -13.375 27.78125 -13.375 
Q 36.625 -13.375 41.015625 -8.765625 
Q 45.40625 -4.15625 45.40625 5.171875 
L 45.40625 9.625 
Q 42.625 4.78125 38.28125 2.390625 
Q 33.9375 0 27.875 0 
Q 17.828125 0 11.671875 7.65625 
Q 5.515625 15.328125 5.515625 27.984375 
Q 5.515625 40.671875 11.671875 48.328125 
Q 17.828125 56 27.875 56 
Q 33.9375 56 38.28125 53.609375 
Q 42.625 51.21875 45.40625 46.390625 
L 45.40625 54.6875 
L 54.390625 54.6875 
z
" id="DejaVuSans-103"/>
    </defs>
    <use xlink:href="#DejaVuSans-66"/>
    <use x="68.603516" xlink:href="#DejaVuSans-111"/>
    <use x="129.785156" xlink:href="#DejaVuSans-108"/>
    <use x="157.568359" xlink:href="#DejaVuSans-108"/>
    <use x="185.351562" xlink:href="#DejaVuSans-105"/>
    <use x="213.134766" xlink:href="#DejaVuSans-110"/>
    <use x="276.513672" xlink:href="#DejaVuSans-103"/>
    <use x="339.990234" xlink:href="#DejaVuSans-101"/>
    <use x="401.513672" xlink:href="#DejaVuSans-114"/>
    <use x="442.626953" xlink:href="#DejaVuSans-32"/>
    <use x="474.414062" xlink:href="#DejaVuSans-66"/>
    <use x="543.017578" xlink:href="#DejaVuSans-97"/>
    <use x="604.296875" xlink:href="#DejaVuSans-110"/>
    <use x="667.675781" xlink:href="#DejaVuSans-100"/>
   </g>
  </g>
 </g>
 <defs>
  <clipPath id="pd215f9ad0e">
   <rect height="266.112" width="357.12" x="57.6" y="41.472"/>
  </clipPath>
 </defs>
</svg>
