<?xml version="1.0" encoding="utf-8" standalone="no"?>
<!DOCTYPE svg PUBLIC "-//W3C//DTD SVG 1.1//EN"
  "http://www.w3.org/Graphics/SVG/1.1/DTD/svg11.dtd">
<!-- Created with matplotlib (https://matplotlib.org/) -->
<svg height="345.6pt" version="1.1" viewBox="0 0 460.8 345.6" width="460.8pt" xmlns="http://www.w3.org/2000/svg" xmlns:xlink="http://www.w3.org/1999/xlink">
 <metadata>
  <rdf:RDF xmlns:cc="http://creativecommons.org/ns#" xmlns:dc="http://purl.org/dc/elements/1.1/" xmlns:rdf="http://www.w3.org/1999/02/22-rdf-syntax-ns#">
   <cc:Work>
    <dc:type rdf:resource="http://purl.org/dc/dcmitype/StillImage"/>
    <dc:date>2021-02-01T19:00:09.557190</dc:date>
    <dc:format>image/svg+xml</dc:format>
    <dc:creator>
     <cc:Agent>
      <dc:title>Matplotlib v3.3.2, https://matplotlib.org/</dc:title>
     </cc:Agent>
    </dc:creator>
   </cc:Work>
  </rdf:RDF>
 </metadata>
 <defs>
  <style type="text/css">*{stroke-linecap:butt;stroke-linejoin:round;}</style>
 </defs>
 <g id="figure_1">
  <g id="patch_1">
   <path d="M 0 345.6 
L 460.8 345.6 
L 460.8 0 
L 0 0 
z
" style="fill:#ffffff;"/>
  </g>
  <g id="axes_1">
   <g id="patch_2">
    <path d="M 57.6 307.584 
L 414.72 307.584 
L 414.72 41.472 
L 57.6 41.472 
z
" style="fill:#ffffff;"/>
   </g>
   <g id="PolyCollection_1">
    <defs>
     <path d="M 89.37035 -69.173241 
L 89.37035 -84.366595 
L 90.18812 -84.549187 
L 91.00589 -84.284516 
L 91.823659 -84.056236 
L 92.641429 -83.719392 
L 93.459199 -83.158392 
L 94.276968 -83.021246 
L 95.094738 -83.327961 
L 95.912507 -84.208179 
L 96.730277 -84.547114 
L 97.548047 -85.354614 
L 98.365816 -85.648173 
L 99.183586 -85.99193 
L 100.001356 -86.075847 
L 100.819125 -86.349846 
L 101.636895 -86.506074 
L 102.454665 -87.093373 
L 103.272434 -87.782127 
L 104.090204 -88.462742 
L 104.907973 -89.154845 
L 105.725743 -90.069846 
L 106.543513 -90.496776 
L 107.361282 -91.298906 
L 108.179052 -91.861385 
L 108.996822 -92.102433 
L 109.814591 -92.142826 
L 110.632361 -91.803495 
L 111.450131 -91.630721 
L 112.2679 -91.622091 
L 113.08567 -91.832472 
L 113.903439 -91.821561 
L 114.721209 -91.747549 
L 115.538979 -91.682578 
L 116.356748 -91.567227 
L 117.174518 -91.448735 
L 117.992288 -91.064425 
L 118.810057 -91.283079 
L 119.627827 -92.110821 
L 120.445597 -92.602518 
L 121.263366 -92.984402 
L 122.081136 -93.173424 
L 122.898905 -93.391426 
L 123.716675 -92.927683 
L 124.534445 -92.320991 
L 125.352214 -91.730235 
L 126.169984 -90.785714 
L 126.987754 -90.340934 
L 127.805523 -89.810521 
L 128.623293 -89.912718 
L 129.441063 -89.270332 
L 130.258832 -89.202405 
L 131.076602 -88.909262 
L 131.894371 -92.780118 
L 132.712141 -93.550182 
L 133.529911 -93.818754 
L 134.34768 -93.608934 
L 135.16545 -93.549629 
L 135.98322 -93.33726 
L 136.800989 -92.801626 
L 137.618759 -91.921423 
L 138.436529 -91.068985 
L 139.254298 -90.105954 
L 140.072068 -88.648565 
L 140.889837 -87.193753 
L 141.707607 -85.670266 
L 142.525377 -83.531252 
L 143.343146 -80.950269 
L 144.160916 -78.429274 
L 144.978686 -76.839003 
L 145.796455 -75.117701 
L 146.614225 -73.489004 
L 147.431995 -71.359135 
L 148.249764 -71.442591 
L 149.067534 -71.978566 
L 149.885303 -72.082332 
L 150.703073 -72.306055 
L 151.520843 -71.89647 
L 152.338612 -72.195014 
L 153.156382 -72.384165 
L 153.974152 -73.02777 
L 154.791921 -73.537357 
L 155.609691 -73.598566 
L 156.42746 -73.196971 
L 157.24523 -73.431014 
L 158.063 -73.430122 
L 158.880769 -73.48313 
L 159.698539 -73.485574 
L 160.516309 -73.628297 
L 161.334078 -73.591776 
L 162.151848 -73.016716 
L 162.969618 -73.073285 
L 163.787387 -72.846419 
L 164.605157 -72.779037 
L 165.422926 -72.849165 
L 166.240696 -73.350211 
L 167.058466 -73.727961 
L 167.876235 -74.134703 
L 168.694005 -74.448944 
L 169.511775 -74.793265 
L 170.329544 -75.190933 
L 171.147314 -76.469974 
L 171.965084 -78.422544 
L 172.782853 -79.970572 
L 173.600623 -81.481276 
L 174.418392 -82.552228 
L 175.236162 -83.453102 
L 176.053932 -84.219106 
L 176.871701 -85.409703 
L 177.689471 -86.565651 
L 178.507241 -88.430156 
L 179.32501 -89.600563 
L 180.14278 -89.346674 
L 180.96055 -89.08241 
L 181.778319 -88.794904 
L 182.596089 -88.896371 
L 183.413858 -89.249612 
L 184.231628 -89.415856 
L 185.049398 -89.316872 
L 185.867167 -89.351325 
L 186.684937 -88.968667 
L 187.502707 -89.137721 
L 188.320476 -89.483636 
L 189.138246 -89.476072 
L 189.956016 -89.452836 
L 190.773785 -89.392298 
L 191.591555 -89.30637 
L 192.409324 -89.36731 
L 193.227094 -89.408173 
L 194.044864 -89.376867 
L 194.862633 -88.748808 
L 195.680403 -88.492885 
L 196.498173 -88.325836 
L 197.315942 -88.390092 
L 198.133712 -88.301802 
L 198.951482 -89.075232 
L 199.769251 -89.08255 
L 200.587021 -89.085521 
L 201.40479 -89.348822 
L 202.22256 -89.269562 
L 203.04033 -89.259688 
L 203.858099 -89.205891 
L 204.675869 -89.118531 
L 205.493639 -89.309086 
L 206.311408 -89.525043 
L 207.129178 -89.529633 
L 207.946948 -89.520405 
L 208.764717 -89.156754 
L 209.582487 -88.903311 
L 210.400256 -88.532403 
L 211.218026 -88.413828 
L 212.035796 -88.414003 
L 212.853565 -88.47676 
L 213.671335 -88.505193 
L 214.489105 -88.50721 
L 215.306874 -87.755353 
L 216.124644 -87.753848 
L 216.942414 -87.748163 
L 217.760183 -87.481074 
L 218.577953 -87.462425 
L 219.395722 -87.418196 
L 220.213492 -87.343926 
L 221.031262 -87.186393 
L 221.849031 -86.869722 
L 222.666801 -86.353621 
L 223.484571 -86.240048 
L 224.30234 -86.175867 
L 225.12011 -86.103506 
L 225.93788 -86.120848 
L 226.755649 -85.93968 
L 227.573419 -85.776045 
L 228.391188 -85.639247 
L 229.208958 -85.73232 
L 230.026728 -85.685628 
L 230.844497 -85.647473 
L 231.662267 -85.461506 
L 232.480037 -85.042551 
L 233.297806 -84.659574 
L 234.115576 -84.618355 
L 234.933346 -84.619584 
L 235.751115 -84.617788 
L 236.568885 -84.539781 
L 237.386654 -84.529245 
L 238.204424 -84.532898 
L 239.022194 -84.542701 
L 239.839963 -84.679847 
L 240.657733 -85.040083 
L 241.475503 -85.372803 
L 242.293272 -85.726866 
L 243.111042 -86.237668 
L 243.928812 -87.900673 
L 244.746581 -90.610714 
L 245.564351 -92.501976 
L 246.38212 -94.150106 
L 247.19989 -95.489146 
L 248.01766 -97.109067 
L 248.835429 -98.411012 
L 249.653199 -99.344079 
L 250.470969 -100.257542 
L 251.288738 -100.916876 
L 252.106508 -102.074396 
L 252.924278 -103.029914 
L 253.742047 -103.477754 
L 254.559817 -103.82616 
L 255.377586 -104.30616 
L 256.195356 -104.437292 
L 257.013126 -104.078076 
L 257.830895 -103.622041 
L 258.648665 -103.000395 
L 259.466435 -102.101538 
L 260.284204 -101.693294 
L 261.101974 -101.831904 
L 261.919744 -102.497365 
L 262.737513 -102.564644 
L 263.555283 -102.457439 
L 264.373052 -102.42725 
L 265.190822 -102.375468 
L 266.008592 -102.172258 
L 266.826361 -102.043573 
L 267.644131 -101.89124 
L 268.461901 -101.901701 
L 269.27967 -101.966144 
L 270.09744 -101.980445 
L 270.91521 -101.977313 
L 271.732979 -101.740306 
L 272.550749 -101.66195 
L 273.368518 -101.790831 
L 274.186288 -101.842006 
L 275.004058 -101.911301 
L 275.821827 -103.192137 
L 276.639597 -103.621033 
L 277.457367 -104.205741 
L 278.275136 -103.914519 
L 279.092906 -103.744276 
L 279.910676 -103.713592 
L 280.728445 -103.55088 
L 281.546215 -103.219797 
L 282.363984 -102.854632 
L 283.181754 -102.315284 
L 283.999524 -102.015164 
L 284.817293 -101.652877 
L 285.635063 -101.484763 
L 286.452833 -101.106214 
L 287.270602 -100.669705 
L 288.088372 -100.096407 
L 288.906142 -99.332773 
L 289.723911 -97.81717 
L 290.541681 -96.301457 
L 291.35945 -95.518702 
L 292.17722 -95.596605 
L 292.99499 -95.705946 
L 293.812759 -95.706339 
L 294.630529 -95.699528 
L 295.448299 -95.815493 
L 296.266068 -95.562848 
L 297.083838 -95.521084 
L 297.901608 -95.4514 
L 298.719377 -95.406516 
L 299.537147 -95.253804 
L 300.354916 -95.251838 
L 301.172686 -95.213853 
L 301.990456 -94.931149 
L 302.808225 -94.741787 
L 303.625995 -94.699445 
L 304.443765 -94.724436 
L 305.261534 -95.432086 
L 306.079304 -96.197304 
L 306.897074 -97.105455 
L 307.714843 -97.491978 
L 308.532613 -97.982163 
L 309.350382 -98.513429 
L 310.168152 -98.774079 
L 310.985922 -99.045454 
L 311.803691 -99.439359 
L 312.621461 -100.071313 
L 313.439231 -100.824804 
L 314.257 -102.958736 
L 315.07477 -104.889495 
L 315.89254 -106.323934 
L 316.710309 -107.803553 
L 317.528079 -108.920076 
L 318.345848 -109.751332 
L 319.163618 -111.161052 
L 319.981388 -111.932462 
L 320.799157 -112.807839 
L 321.616927 -113.727458 
L 322.434697 -114.764818 
L 323.252466 -115.633599 
L 324.070236 -116.07673 
L 324.888005 -116.82089 
L 325.705775 -117.526805 
L 326.523545 -119.986442 
L 327.341314 -121.825027 
L 328.159084 -122.243726 
L 328.976854 -123.346157 
L 329.794623 -123.959042 
L 330.612393 -124.886314 
L 331.430163 -126.164776 
L 332.247932 -127.973306 
L 333.065702 -129.552355 
L 333.883471 -130.460891 
L 334.701241 -131.00838 
L 335.519011 -132.512886 
L 336.33678 -134.882269 
L 337.15455 -136.990661 
L 337.97232 -138.723135 
L 338.790089 -141.420917 
L 339.607859 -143.529961 
L 340.425629 -144.560817 
L 341.243398 -145.434976 
L 342.061168 -146.945215 
L 342.878937 -148.315863 
L 343.696707 -148.359416 
L 344.514477 -147.848236 
L 345.332246 -147.855738 
L 346.150016 -147.856577 
L 346.967786 -149.200508 
L 347.785555 -149.35107 
L 348.603325 -150.098227 
L 349.421095 -150.846937 
L 350.238864 -150.355167 
L 351.056634 -149.6526 
L 351.874403 -149.636536 
L 352.692173 -149.959082 
L 353.509943 -149.869098 
L 354.327712 -149.800867 
L 355.145482 -149.735721 
L 355.963252 -149.674616 
L 356.781021 -149.80115 
L 357.598791 -150.149245 
L 358.416561 -150.241993 
L 359.23433 -150.726094 
L 360.0521 -153.581374 
L 360.869869 -158.724562 
L 361.687639 -163.434174 
L 362.505409 -168.529912 
L 363.323178 -172.075458 
L 364.140948 -174.257328 
L 364.958718 -177.549013 
L 365.776487 -179.729136 
L 366.594257 -182.069805 
L 367.412027 -185.325841 
L 368.229796 -190.531375 
L 369.047566 -194.584562 
L 369.865335 -198.630282 
L 370.683105 -202.346538 
L 371.500875 -207.089546 
L 372.318644 -210.54385 
L 373.136414 -214.035414 
L 373.954184 -220.885486 
L 374.771953 -227.424082 
L 375.589723 -230.877237 
L 376.407493 -237.365019 
L 377.225262 -247.592915 
L 378.043032 -260.350764 
L 378.860801 -272.702515 
L 379.678571 -282.095048 
L 380.496341 -286.866316 
L 381.31411 -288.498247 
L 382.13188 -287.954491 
L 382.94965 -289.201312 
L 383.767419 -291.63787 
L 384.585189 -292.032 
L 385.402959 -290.888955 
L 386.220728 -289.338849 
L 387.038498 -287.441124 
L 387.856267 -285.626423 
L 388.674037 -282.810095 
L 389.491807 -281.319894 
L 390.309576 -280.90568 
L 391.127346 -281.38051 
L 391.945116 -281.212966 
L 392.762885 -281.835136 
L 393.580655 -281.627973 
L 394.398425 -279.919098 
L 395.216194 -274.601009 
L 396.033964 -269.096969 
L 396.851733 -266.08007 
L 397.669503 -265.403316 
L 398.487273 -265.314602 
L 398.487273 -208.703835 
L 398.487273 -208.703835 
L 397.669503 -208.931117 
L 396.851733 -209.682957 
L 396.033964 -209.033706 
L 395.216194 -207.180893 
L 394.398425 -206.268795 
L 393.580655 -210.100693 
L 392.762885 -212.531378 
L 391.945116 -214.2431 
L 391.127346 -213.904377 
L 390.309576 -214.946689 
L 389.491807 -214.030239 
L 388.674037 -211.654316 
L 387.856267 -204.825212 
L 387.038498 -198.698527 
L 386.220728 -191.105257 
L 385.402959 -184.165633 
L 384.585189 -177.034458 
L 383.767419 -171.107913 
L 382.94965 -164.709886 
L 382.13188 -157.602181 
L 381.31411 -150.427469 
L 380.496341 -144.929492 
L 379.678571 -140.227592 
L 378.860801 -139.353791 
L 378.043032 -141.431528 
L 377.225262 -144.184188 
L 376.407493 -145.831926 
L 375.589723 -144.553527 
L 374.771953 -140.309158 
L 373.954184 -138.424296 
L 373.136414 -137.297234 
L 372.318644 -134.311014 
L 371.500875 -131.081953 
L 370.683105 -129.316931 
L 369.865335 -127.645564 
L 369.047566 -126.353097 
L 368.229796 -126.082207 
L 367.412027 -126.965894 
L 366.594257 -126.824153 
L 365.776487 -126.059473 
L 364.958718 -125.92615 
L 364.140948 -126.407054 
L 363.323178 -126.187146 
L 362.505409 -127.436294 
L 361.687639 -129.079839 
L 360.869869 -130.486297 
L 360.0521 -132.16675 
L 359.23433 -132.470664 
L 358.416561 -132.51335 
L 357.598791 -132.536546 
L 356.781021 -132.402797 
L 355.963252 -132.292063 
L 355.145482 -132.63365 
L 354.327712 -132.825339 
L 353.509943 -132.304771 
L 352.692173 -131.885846 
L 351.874403 -131.284505 
L 351.056634 -129.636183 
L 350.238864 -126.980812 
L 349.421095 -124.908454 
L 348.603325 -123.747067 
L 347.785555 -122.703345 
L 346.967786 -120.962952 
L 346.150016 -119.616364 
L 345.332246 -117.86521 
L 344.514477 -116.496125 
L 343.696707 -114.56926 
L 342.878937 -113.637242 
L 342.061168 -113.091629 
L 341.243398 -111.539235 
L 340.425629 -109.749644 
L 339.607859 -107.807355 
L 338.790089 -106.895345 
L 337.97232 -106.606488 
L 337.15455 -105.738132 
L 336.33678 -105.198362 
L 335.519011 -104.874024 
L 334.701241 -104.491745 
L 333.883471 -103.263524 
L 333.065702 -102.312914 
L 332.247932 -101.930828 
L 331.430163 -101.681716 
L 330.612393 -101.295758 
L 329.794623 -100.691268 
L 328.976854 -99.215303 
L 328.159084 -98.033567 
L 327.341314 -96.415404 
L 326.523545 -95.670955 
L 325.705775 -95.517592 
L 324.888005 -94.602165 
L 324.070236 -93.754589 
L 323.252466 -92.890772 
L 322.434697 -92.401752 
L 321.616927 -91.957565 
L 320.799157 -91.492065 
L 319.981388 -90.900385 
L 319.163618 -90.215397 
L 318.345848 -89.792723 
L 317.528079 -89.10676 
L 316.710309 -88.825811 
L 315.89254 -88.79541 
L 315.07477 -88.769642 
L 314.257 -89.218465 
L 313.439231 -90.014755 
L 312.621461 -90.044965 
L 311.803691 -90.068206 
L 310.985922 -90.061776 
L 310.168152 -89.95506 
L 309.350382 -89.858142 
L 308.532613 -89.910974 
L 307.714843 -89.937144 
L 306.897074 -89.605868 
L 306.079304 -89.893226 
L 305.261534 -90.137461 
L 304.443765 -90.568641 
L 303.625995 -90.584661 
L 302.808225 -90.564566 
L 301.990456 -90.553579 
L 301.172686 -90.542554 
L 300.354916 -90.549323 
L 299.537147 -90.559411 
L 298.719377 -90.258564 
L 297.901608 -90.1335 
L 297.083838 -89.91317 
L 296.266068 -89.626171 
L 295.448299 -88.925509 
L 294.630529 -88.706903 
L 293.812759 -88.339972 
L 292.99499 -87.954029 
L 292.17722 -87.886088 
L 291.35945 -87.731125 
L 290.541681 -87.586832 
L 289.723911 -86.845301 
L 288.906142 -86.210082 
L 288.088372 -85.951817 
L 287.270602 -85.750829 
L 286.452833 -85.670093 
L 285.635063 -85.625276 
L 284.817293 -85.62169 
L 283.999524 -85.644687 
L 283.181754 -85.772163 
L 282.363984 -86.108876 
L 281.546215 -86.463159 
L 280.728445 -86.924348 
L 279.910676 -87.522096 
L 279.092906 -88.594273 
L 278.275136 -89.404765 
L 277.457367 -90.438014 
L 276.639597 -92.091705 
L 275.821827 -93.419856 
L 275.004058 -95.682107 
L 274.186288 -96.030952 
L 273.368518 -95.940945 
L 272.550749 -95.6889 
L 271.732979 -95.704904 
L 270.91521 -95.684182 
L 270.09744 -95.773745 
L 269.27967 -95.840865 
L 268.461901 -96.226814 
L 267.644131 -96.444205 
L 266.826361 -96.19439 
L 266.008592 -95.779172 
L 265.190822 -95.302263 
L 264.373052 -95.02191 
L 263.555283 -94.851532 
L 262.737513 -94.249405 
L 261.919744 -93.78711 
L 261.101974 -93.629127 
L 260.284204 -93.234373 
L 259.466435 -91.841774 
L 258.648665 -89.606094 
L 257.830895 -87.663417 
L 257.013126 -85.97031 
L 256.195356 -84.490479 
L 255.377586 -83.106165 
L 254.559817 -81.869627 
L 253.742047 -80.699055 
L 252.924278 -79.669969 
L 252.106508 -78.980431 
L 251.288738 -78.500494 
L 250.470969 -77.87221 
L 249.653199 -77.523345 
L 248.835429 -77.255201 
L 248.01766 -77.328643 
L 247.19989 -77.678131 
L 246.38212 -77.947337 
L 245.564351 -78.42686 
L 244.746581 -79.351632 
L 243.928812 -81.017382 
L 243.111042 -82.046657 
L 242.293272 -82.24594 
L 241.475503 -82.277704 
L 240.657733 -82.328136 
L 239.839963 -82.433282 
L 239.022194 -82.474113 
L 238.204424 -82.451736 
L 237.386654 -82.430294 
L 236.568885 -82.383049 
L 235.751115 -82.213968 
L 234.933346 -82.237944 
L 234.115576 -82.246046 
L 233.297806 -82.24156 
L 232.480037 -82.047082 
L 231.662267 -81.80999 
L 230.844497 -81.743928 
L 230.026728 -81.743165 
L 229.208958 -81.798893 
L 228.391188 -81.813783 
L 227.573419 -81.779635 
L 226.755649 -81.744119 
L 225.93788 -81.738958 
L 225.12011 -81.794219 
L 224.30234 -81.929096 
L 223.484571 -82.071501 
L 222.666801 -82.126947 
L 221.849031 -82.004844 
L 221.031262 -82.047345 
L 220.213492 -82.240501 
L 219.395722 -82.618583 
L 218.577953 -82.854285 
L 217.760183 -83.173707 
L 216.942414 -83.251105 
L 216.124644 -83.257205 
L 215.306874 -83.257374 
L 214.489105 -82.910566 
L 213.671335 -83.050838 
L 212.853565 -83.222008 
L 212.035796 -83.452922 
L 211.218026 -83.45378 
L 210.400256 -83.171931 
L 209.582487 -82.45347 
L 208.764717 -82.037052 
L 207.946948 -81.278176 
L 207.129178 -81.128591 
L 206.311408 -80.956175 
L 205.493639 -80.792736 
L 204.675869 -80.740911 
L 203.858099 -80.71676 
L 203.04033 -80.69932 
L 202.22256 -80.69863 
L 201.40479 -80.67776 
L 200.587021 -80.713463 
L 199.769251 -80.712788 
L 198.951482 -80.712841 
L 198.133712 -80.851209 
L 197.315942 -80.251711 
L 196.498173 -79.894702 
L 195.680403 -79.063164 
L 194.862633 -78.986287 
L 194.044864 -78.834979 
L 193.227094 -79.08095 
L 192.409324 -79.353171 
L 191.591555 -79.490003 
L 190.773785 -79.158101 
L 189.956016 -78.872373 
L 189.138246 -78.673823 
L 188.320476 -78.321223 
L 187.502707 -78.035654 
L 186.684937 -77.276391 
L 185.867167 -75.722912 
L 185.049398 -74.471232 
L 184.231628 -73.232033 
L 183.413858 -72.219748 
L 182.596089 -71.299754 
L 181.778319 -70.457016 
L 180.96055 -69.194786 
L 180.14278 -67.705909 
L 179.32501 -66.491352 
L 178.507241 -66.088239 
L 177.689471 -66.262965 
L 176.871701 -66.017468 
L 176.053932 -65.865377 
L 175.236162 -65.300923 
L 174.418392 -65.028613 
L 173.600623 -64.840862 
L 172.782853 -65.281399 
L 171.965084 -65.630982 
L 171.147314 -66.462689 
L 170.329544 -67.154911 
L 169.511775 -67.318097 
L 168.694005 -67.470177 
L 167.876235 -67.597755 
L 167.058466 -67.502475 
L 166.240696 -67.494533 
L 165.422926 -67.495466 
L 164.605157 -67.378989 
L 163.787387 -67.198436 
L 162.969618 -66.698297 
L 162.151848 -66.386402 
L 161.334078 -64.988141 
L 160.516309 -64.424918 
L 159.698539 -64.349021 
L 158.880769 -64.340934 
L 158.063 -64.273092 
L 157.24523 -64.274476 
L 156.42746 -64.11026 
L 155.609691 -63.090084 
L 154.791921 -62.715185 
L 153.974152 -62.546218 
L 153.156382 -62.479104 
L 152.338612 -61.475181 
L 151.520843 -60.57336 
L 150.703073 -59.101605 
L 149.885303 -58.39912 
L 149.067534 -57.549189 
L 148.249764 -57.348367 
L 147.431995 -56.355612 
L 146.614225 -55.144829 
L 145.796455 -54.33065 
L 144.978686 -53.872029 
L 144.160916 -53.39824 
L 143.343146 -52.228562 
L 142.525377 -51.150717 
L 141.707607 -50.47221 
L 140.889837 -50.173851 
L 140.072068 -50.112 
L 139.254298 -50.566335 
L 138.436529 -51.037528 
L 137.618759 -51.61267 
L 136.800989 -52.284699 
L 135.98322 -53.833671 
L 135.16545 -55.735333 
L 134.34768 -58.29038 
L 133.529911 -60.715931 
L 132.712141 -63.917646 
L 131.894371 -67.160041 
L 131.076602 -73.958238 
L 130.258832 -74.679026 
L 129.441063 -75.648364 
L 128.623293 -76.378238 
L 127.805523 -77.494215 
L 126.987754 -77.588423 
L 126.169984 -77.595386 
L 125.352214 -77.436646 
L 124.534445 -77.741081 
L 123.716675 -78.101566 
L 122.898905 -78.458112 
L 122.081136 -79.479637 
L 121.263366 -80.662232 
L 120.445597 -81.767764 
L 119.627827 -82.866796 
L 118.810057 -84.282536 
L 117.992288 -84.684541 
L 117.174518 -84.000671 
L 116.356748 -83.464868 
L 115.538979 -83.144566 
L 114.721209 -82.891706 
L 113.903439 -82.657794 
L 113.08567 -82.594994 
L 112.2679 -82.257178 
L 111.450131 -82.057039 
L 110.632361 -81.256922 
L 109.814591 -80.121526 
L 108.996822 -78.925434 
L 108.179052 -78.068402 
L 107.361282 -77.433486 
L 106.543513 -77.252938 
L 105.725743 -76.991044 
L 104.907973 -76.969342 
L 104.090204 -76.927334 
L 103.272434 -77.052398 
L 102.454665 -77.214457 
L 101.636895 -77.252902 
L 100.819125 -77.184535 
L 100.001356 -77.162084 
L 99.183586 -76.494431 
L 98.365816 -76.097531 
L 97.548047 -75.57701 
L 96.730277 -75.576702 
L 95.912507 -75.013501 
L 95.094738 -75.066968 
L 94.276968 -74.918344 
L 93.459199 -74.266367 
L 92.641429 -73.104902 
L 91.823659 -72.106466 
L 91.00589 -71.238064 
L 90.18812 -69.932951 
L 89.37035 -69.173241 
z
" id="mcc41f5e9cb" style="stroke:#4b0082;stroke-opacity:0.3;"/>
    </defs>
    <g clip-path="url(#p634a8831d5)">
     <use style="fill:#4b0082;fill-opacity:0.3;stroke:#4b0082;stroke-opacity:0.3;" x="0" xlink:href="#mcc41f5e9cb" y="345.6"/>
    </g>
   </g>
   <g id="matplotlib.axis_1">
    <g id="xtick_1">
     <g id="line2d_1">
      <defs>
       <path d="M 0 0 
L 0 3.5 
" id="mbe7723bd22" style="stroke:#000000;stroke-width:0.8;"/>
      </defs>
      <g>
       <use style="stroke:#000000;stroke-width:0.8;" x="73.832727" xlink:href="#mbe7723bd22" y="307.584"/>
      </g>
     </g>
     <g id="text_1">
      <!-- 2020-01 -->
      <g transform="translate(52.941321 322.182437)scale(0.1 -0.1)">
       <defs>
        <path d="M 19.1875 8.296875 
L 53.609375 8.296875 
L 53.609375 0 
L 7.328125 0 
L 7.328125 8.296875 
Q 12.9375 14.109375 22.625 23.890625 
Q 32.328125 33.6875 34.8125 36.53125 
Q 39.546875 41.84375 41.421875 45.53125 
Q 43.3125 49.21875 43.3125 52.78125 
Q 43.3125 58.59375 39.234375 62.25 
Q 35.15625 65.921875 28.609375 65.921875 
Q 23.96875 65.921875 18.8125 64.3125 
Q 13.671875 62.703125 7.8125 59.421875 
L 7.8125 69.390625 
Q 13.765625 71.78125 18.9375 73 
Q 24.125 74.21875 28.421875 74.21875 
Q 39.75 74.21875 46.484375 68.546875 
Q 53.21875 62.890625 53.21875 53.421875 
Q 53.21875 48.921875 51.53125 44.890625 
Q 49.859375 40.875 45.40625 35.40625 
Q 44.1875 33.984375 37.640625 27.21875 
Q 31.109375 20.453125 19.1875 8.296875 
z
" id="DejaVuSans-50"/>
        <path d="M 31.78125 66.40625 
Q 24.171875 66.40625 20.328125 58.90625 
Q 16.5 51.421875 16.5 36.375 
Q 16.5 21.390625 20.328125 13.890625 
Q 24.171875 6.390625 31.78125 6.390625 
Q 39.453125 6.390625 43.28125 13.890625 
Q 47.125 21.390625 47.125 36.375 
Q 47.125 51.421875 43.28125 58.90625 
Q 39.453125 66.40625 31.78125 66.40625 
z
M 31.78125 74.21875 
Q 44.046875 74.21875 50.515625 64.515625 
Q 56.984375 54.828125 56.984375 36.375 
Q 56.984375 17.96875 50.515625 8.265625 
Q 44.046875 -1.421875 31.78125 -1.421875 
Q 19.53125 -1.421875 13.0625 8.265625 
Q 6.59375 17.96875 6.59375 36.375 
Q 6.59375 54.828125 13.0625 64.515625 
Q 19.53125 74.21875 31.78125 74.21875 
z
" id="DejaVuSans-48"/>
        <path d="M 4.890625 31.390625 
L 31.203125 31.390625 
L 31.203125 23.390625 
L 4.890625 23.390625 
z
" id="DejaVuSans-45"/>
        <path d="M 12.40625 8.296875 
L 28.515625 8.296875 
L 28.515625 63.921875 
L 10.984375 60.40625 
L 10.984375 69.390625 
L 28.421875 72.90625 
L 38.28125 72.90625 
L 38.28125 8.296875 
L 54.390625 8.296875 
L 54.390625 0 
L 12.40625 0 
z
" id="DejaVuSans-49"/>
       </defs>
       <use xlink:href="#DejaVuSans-50"/>
       <use x="63.623047" xlink:href="#DejaVuSans-48"/>
       <use x="127.246094" xlink:href="#DejaVuSans-50"/>
       <use x="190.869141" xlink:href="#DejaVuSans-48"/>
       <use x="254.492188" xlink:href="#DejaVuSans-45"/>
       <use x="290.576172" xlink:href="#DejaVuSans-48"/>
       <use x="354.199219" xlink:href="#DejaVuSans-49"/>
      </g>
     </g>
    </g>
    <g id="xtick_2">
     <g id="line2d_2">
      <g>
       <use style="stroke:#000000;stroke-width:0.8;" x="122.898905" xlink:href="#mbe7723bd22" y="307.584"/>
      </g>
     </g>
     <g id="text_2">
      <!-- 2020-03 -->
      <g transform="translate(102.007499 322.182437)scale(0.1 -0.1)">
       <defs>
        <path d="M 40.578125 39.3125 
Q 47.65625 37.796875 51.625 33 
Q 55.609375 28.21875 55.609375 21.1875 
Q 55.609375 10.40625 48.1875 4.484375 
Q 40.765625 -1.421875 27.09375 -1.421875 
Q 22.515625 -1.421875 17.65625 -0.515625 
Q 12.796875 0.390625 7.625 2.203125 
L 7.625 11.71875 
Q 11.71875 9.328125 16.59375 8.109375 
Q 21.484375 6.890625 26.8125 6.890625 
Q 36.078125 6.890625 40.9375 10.546875 
Q 45.796875 14.203125 45.796875 21.1875 
Q 45.796875 27.640625 41.28125 31.265625 
Q 36.765625 34.90625 28.71875 34.90625 
L 20.21875 34.90625 
L 20.21875 43.015625 
L 29.109375 43.015625 
Q 36.375 43.015625 40.234375 45.921875 
Q 44.09375 48.828125 44.09375 54.296875 
Q 44.09375 59.90625 40.109375 62.90625 
Q 36.140625 65.921875 28.71875 65.921875 
Q 24.65625 65.921875 20.015625 65.03125 
Q 15.375 64.15625 9.8125 62.3125 
L 9.8125 71.09375 
Q 15.4375 72.65625 20.34375 73.4375 
Q 25.25 74.21875 29.59375 74.21875 
Q 40.828125 74.21875 47.359375 69.109375 
Q 53.90625 64.015625 53.90625 55.328125 
Q 53.90625 49.265625 50.4375 45.09375 
Q 46.96875 40.921875 40.578125 39.3125 
z
" id="DejaVuSans-51"/>
       </defs>
       <use xlink:href="#DejaVuSans-50"/>
       <use x="63.623047" xlink:href="#DejaVuSans-48"/>
       <use x="127.246094" xlink:href="#DejaVuSans-50"/>
       <use x="190.869141" xlink:href="#DejaVuSans-48"/>
       <use x="254.492188" xlink:href="#DejaVuSans-45"/>
       <use x="290.576172" xlink:href="#DejaVuSans-48"/>
       <use x="354.199219" xlink:href="#DejaVuSans-51"/>
      </g>
     </g>
    </g>
    <g id="xtick_3">
     <g id="line2d_3">
      <g>
       <use style="stroke:#000000;stroke-width:0.8;" x="172.782853" xlink:href="#mbe7723bd22" y="307.584"/>
      </g>
     </g>
     <g id="text_3">
      <!-- 2020-05 -->
      <g transform="translate(151.891447 322.182437)scale(0.1 -0.1)">
       <defs>
        <path d="M 10.796875 72.90625 
L 49.515625 72.90625 
L 49.515625 64.59375 
L 19.828125 64.59375 
L 19.828125 46.734375 
Q 21.96875 47.46875 24.109375 47.828125 
Q 26.265625 48.1875 28.421875 48.1875 
Q 40.625 48.1875 47.75 41.5 
Q 54.890625 34.8125 54.890625 23.390625 
Q 54.890625 11.625 47.5625 5.09375 
Q 40.234375 -1.421875 26.90625 -1.421875 
Q 22.3125 -1.421875 17.546875 -0.640625 
Q 12.796875 0.140625 7.71875 1.703125 
L 7.71875 11.625 
Q 12.109375 9.234375 16.796875 8.0625 
Q 21.484375 6.890625 26.703125 6.890625 
Q 35.15625 6.890625 40.078125 11.328125 
Q 45.015625 15.765625 45.015625 23.390625 
Q 45.015625 31 40.078125 35.4375 
Q 35.15625 39.890625 26.703125 39.890625 
Q 22.75 39.890625 18.8125 39.015625 
Q 14.890625 38.140625 10.796875 36.28125 
z
" id="DejaVuSans-53"/>
       </defs>
       <use xlink:href="#DejaVuSans-50"/>
       <use x="63.623047" xlink:href="#DejaVuSans-48"/>
       <use x="127.246094" xlink:href="#DejaVuSans-50"/>
       <use x="190.869141" xlink:href="#DejaVuSans-48"/>
       <use x="254.492188" xlink:href="#DejaVuSans-45"/>
       <use x="290.576172" xlink:href="#DejaVuSans-48"/>
       <use x="354.199219" xlink:href="#DejaVuSans-53"/>
      </g>
     </g>
    </g>
    <g id="xtick_4">
     <g id="line2d_4">
      <g>
       <use style="stroke:#000000;stroke-width:0.8;" x="222.666801" xlink:href="#mbe7723bd22" y="307.584"/>
      </g>
     </g>
     <g id="text_4">
      <!-- 2020-07 -->
      <g transform="translate(201.775395 322.182437)scale(0.1 -0.1)">
       <defs>
        <path d="M 8.203125 72.90625 
L 55.078125 72.90625 
L 55.078125 68.703125 
L 28.609375 0 
L 18.3125 0 
L 43.21875 64.59375 
L 8.203125 64.59375 
z
" id="DejaVuSans-55"/>
       </defs>
       <use xlink:href="#DejaVuSans-50"/>
       <use x="63.623047" xlink:href="#DejaVuSans-48"/>
       <use x="127.246094" xlink:href="#DejaVuSans-50"/>
       <use x="190.869141" xlink:href="#DejaVuSans-48"/>
       <use x="254.492188" xlink:href="#DejaVuSans-45"/>
       <use x="290.576172" xlink:href="#DejaVuSans-48"/>
       <use x="354.199219" xlink:href="#DejaVuSans-55"/>
      </g>
     </g>
    </g>
    <g id="xtick_5">
     <g id="line2d_5">
      <g>
       <use style="stroke:#000000;stroke-width:0.8;" x="273.368518" xlink:href="#mbe7723bd22" y="307.584"/>
      </g>
     </g>
     <g id="text_5">
      <!-- 2020-09 -->
      <g transform="translate(252.477112 322.182437)scale(0.1 -0.1)">
       <defs>
        <path d="M 10.984375 1.515625 
L 10.984375 10.5 
Q 14.703125 8.734375 18.5 7.8125 
Q 22.3125 6.890625 25.984375 6.890625 
Q 35.75 6.890625 40.890625 13.453125 
Q 46.046875 20.015625 46.78125 33.40625 
Q 43.953125 29.203125 39.59375 26.953125 
Q 35.25 24.703125 29.984375 24.703125 
Q 19.046875 24.703125 12.671875 31.3125 
Q 6.296875 37.9375 6.296875 49.421875 
Q 6.296875 60.640625 12.9375 67.421875 
Q 19.578125 74.21875 30.609375 74.21875 
Q 43.265625 74.21875 49.921875 64.515625 
Q 56.59375 54.828125 56.59375 36.375 
Q 56.59375 19.140625 48.40625 8.859375 
Q 40.234375 -1.421875 26.421875 -1.421875 
Q 22.703125 -1.421875 18.890625 -0.6875 
Q 15.09375 0.046875 10.984375 1.515625 
z
M 30.609375 32.421875 
Q 37.25 32.421875 41.125 36.953125 
Q 45.015625 41.5 45.015625 49.421875 
Q 45.015625 57.28125 41.125 61.84375 
Q 37.25 66.40625 30.609375 66.40625 
Q 23.96875 66.40625 20.09375 61.84375 
Q 16.21875 57.28125 16.21875 49.421875 
Q 16.21875 41.5 20.09375 36.953125 
Q 23.96875 32.421875 30.609375 32.421875 
z
" id="DejaVuSans-57"/>
       </defs>
       <use xlink:href="#DejaVuSans-50"/>
       <use x="63.623047" xlink:href="#DejaVuSans-48"/>
       <use x="127.246094" xlink:href="#DejaVuSans-50"/>
       <use x="190.869141" xlink:href="#DejaVuSans-48"/>
       <use x="254.492188" xlink:href="#DejaVuSans-45"/>
       <use x="290.576172" xlink:href="#DejaVuSans-48"/>
       <use x="354.199219" xlink:href="#DejaVuSans-57"/>
      </g>
     </g>
    </g>
    <g id="xtick_6">
     <g id="line2d_6">
      <g>
       <use style="stroke:#000000;stroke-width:0.8;" x="323.252466" xlink:href="#mbe7723bd22" y="307.584"/>
      </g>
     </g>
     <g id="text_6">
      <!-- 2020-11 -->
      <g transform="translate(302.36106 322.182437)scale(0.1 -0.1)">
       <use xlink:href="#DejaVuSans-50"/>
       <use x="63.623047" xlink:href="#DejaVuSans-48"/>
       <use x="127.246094" xlink:href="#DejaVuSans-50"/>
       <use x="190.869141" xlink:href="#DejaVuSans-48"/>
       <use x="254.492188" xlink:href="#DejaVuSans-45"/>
       <use x="290.576172" xlink:href="#DejaVuSans-49"/>
       <use x="354.199219" xlink:href="#DejaVuSans-49"/>
      </g>
     </g>
    </g>
    <g id="xtick_7">
     <g id="line2d_7">
      <g>
       <use style="stroke:#000000;stroke-width:0.8;" x="373.136414" xlink:href="#mbe7723bd22" y="307.584"/>
      </g>
     </g>
     <g id="text_7">
      <!-- 2021-01 -->
      <g transform="translate(352.245008 322.182437)scale(0.1 -0.1)">
       <use xlink:href="#DejaVuSans-50"/>
       <use x="63.623047" xlink:href="#DejaVuSans-48"/>
       <use x="127.246094" xlink:href="#DejaVuSans-50"/>
       <use x="190.869141" xlink:href="#DejaVuSans-49"/>
       <use x="254.492188" xlink:href="#DejaVuSans-45"/>
       <use x="290.576172" xlink:href="#DejaVuSans-48"/>
       <use x="354.199219" xlink:href="#DejaVuSans-49"/>
      </g>
     </g>
    </g>
   </g>
   <g id="matplotlib.axis_2">
    <g id="ytick_1">
     <g id="line2d_8">
      <defs>
       <path d="M 0 0 
L -3.5 0 
" id="m7a34c8de9a" style="stroke:#000000;stroke-width:0.8;"/>
      </defs>
      <g>
       <use style="stroke:#000000;stroke-width:0.8;" x="57.6" xlink:href="#m7a34c8de9a" y="287.788361"/>
      </g>
     </g>
     <g id="text_8">
      <!-- 5000 -->
      <g transform="translate(25.15 291.58758)scale(0.1 -0.1)">
       <use xlink:href="#DejaVuSans-53"/>
       <use x="63.623047" xlink:href="#DejaVuSans-48"/>
       <use x="127.246094" xlink:href="#DejaVuSans-48"/>
       <use x="190.869141" xlink:href="#DejaVuSans-48"/>
      </g>
     </g>
    </g>
    <g id="ytick_2">
     <g id="line2d_9">
      <g>
       <use style="stroke:#000000;stroke-width:0.8;" x="57.6" xlink:href="#m7a34c8de9a" y="257.177076"/>
      </g>
     </g>
     <g id="text_9">
      <!-- 10000 -->
      <g transform="translate(18.7875 260.976295)scale(0.1 -0.1)">
       <use xlink:href="#DejaVuSans-49"/>
       <use x="63.623047" xlink:href="#DejaVuSans-48"/>
       <use x="127.246094" xlink:href="#DejaVuSans-48"/>
       <use x="190.869141" xlink:href="#DejaVuSans-48"/>
       <use x="254.492188" xlink:href="#DejaVuSans-48"/>
      </g>
     </g>
    </g>
    <g id="ytick_3">
     <g id="line2d_10">
      <g>
       <use style="stroke:#000000;stroke-width:0.8;" x="57.6" xlink:href="#m7a34c8de9a" y="226.56579"/>
      </g>
     </g>
     <g id="text_10">
      <!-- 15000 -->
      <g transform="translate(18.7875 230.365009)scale(0.1 -0.1)">
       <use xlink:href="#DejaVuSans-49"/>
       <use x="63.623047" xlink:href="#DejaVuSans-53"/>
       <use x="127.246094" xlink:href="#DejaVuSans-48"/>
       <use x="190.869141" xlink:href="#DejaVuSans-48"/>
       <use x="254.492188" xlink:href="#DejaVuSans-48"/>
      </g>
     </g>
    </g>
    <g id="ytick_4">
     <g id="line2d_11">
      <g>
       <use style="stroke:#000000;stroke-width:0.8;" x="57.6" xlink:href="#m7a34c8de9a" y="195.954505"/>
      </g>
     </g>
     <g id="text_11">
      <!-- 20000 -->
      <g transform="translate(18.7875 199.753724)scale(0.1 -0.1)">
       <use xlink:href="#DejaVuSans-50"/>
       <use x="63.623047" xlink:href="#DejaVuSans-48"/>
       <use x="127.246094" xlink:href="#DejaVuSans-48"/>
       <use x="190.869141" xlink:href="#DejaVuSans-48"/>
       <use x="254.492188" xlink:href="#DejaVuSans-48"/>
      </g>
     </g>
    </g>
    <g id="ytick_5">
     <g id="line2d_12">
      <g>
       <use style="stroke:#000000;stroke-width:0.8;" x="57.6" xlink:href="#m7a34c8de9a" y="165.343219"/>
      </g>
     </g>
     <g id="text_12">
      <!-- 25000 -->
      <g transform="translate(18.7875 169.142438)scale(0.1 -0.1)">
       <use xlink:href="#DejaVuSans-50"/>
       <use x="63.623047" xlink:href="#DejaVuSans-53"/>
       <use x="127.246094" xlink:href="#DejaVuSans-48"/>
       <use x="190.869141" xlink:href="#DejaVuSans-48"/>
       <use x="254.492188" xlink:href="#DejaVuSans-48"/>
      </g>
     </g>
    </g>
    <g id="ytick_6">
     <g id="line2d_13">
      <g>
       <use style="stroke:#000000;stroke-width:0.8;" x="57.6" xlink:href="#m7a34c8de9a" y="134.731934"/>
      </g>
     </g>
     <g id="text_13">
      <!-- 30000 -->
      <g transform="translate(18.7875 138.531153)scale(0.1 -0.1)">
       <use xlink:href="#DejaVuSans-51"/>
       <use x="63.623047" xlink:href="#DejaVuSans-48"/>
       <use x="127.246094" xlink:href="#DejaVuSans-48"/>
       <use x="190.869141" xlink:href="#DejaVuSans-48"/>
       <use x="254.492188" xlink:href="#DejaVuSans-48"/>
      </g>
     </g>
    </g>
    <g id="ytick_7">
     <g id="line2d_14">
      <g>
       <use style="stroke:#000000;stroke-width:0.8;" x="57.6" xlink:href="#m7a34c8de9a" y="104.120648"/>
      </g>
     </g>
     <g id="text_14">
      <!-- 35000 -->
      <g transform="translate(18.7875 107.919867)scale(0.1 -0.1)">
       <use xlink:href="#DejaVuSans-51"/>
       <use x="63.623047" xlink:href="#DejaVuSans-53"/>
       <use x="127.246094" xlink:href="#DejaVuSans-48"/>
       <use x="190.869141" xlink:href="#DejaVuSans-48"/>
       <use x="254.492188" xlink:href="#DejaVuSans-48"/>
      </g>
     </g>
    </g>
    <g id="ytick_8">
     <g id="line2d_15">
      <g>
       <use style="stroke:#000000;stroke-width:0.8;" x="57.6" xlink:href="#m7a34c8de9a" y="73.509363"/>
      </g>
     </g>
     <g id="text_15">
      <!-- 40000 -->
      <g transform="translate(18.7875 77.308582)scale(0.1 -0.1)">
       <defs>
        <path d="M 37.796875 64.3125 
L 12.890625 25.390625 
L 37.796875 25.390625 
z
M 35.203125 72.90625 
L 47.609375 72.90625 
L 47.609375 25.390625 
L 58.015625 25.390625 
L 58.015625 17.1875 
L 47.609375 17.1875 
L 47.609375 0 
L 37.796875 0 
L 37.796875 17.1875 
L 4.890625 17.1875 
L 4.890625 26.703125 
z
" id="DejaVuSans-52"/>
       </defs>
       <use xlink:href="#DejaVuSans-52"/>
       <use x="63.623047" xlink:href="#DejaVuSans-48"/>
       <use x="127.246094" xlink:href="#DejaVuSans-48"/>
       <use x="190.869141" xlink:href="#DejaVuSans-48"/>
       <use x="254.492188" xlink:href="#DejaVuSans-48"/>
      </g>
     </g>
    </g>
    <g id="ytick_9">
     <g id="line2d_16">
      <g>
       <use style="stroke:#000000;stroke-width:0.8;" x="57.6" xlink:href="#m7a34c8de9a" y="42.898077"/>
      </g>
     </g>
     <g id="text_16">
      <!-- 45000 -->
      <g transform="translate(18.7875 46.697296)scale(0.1 -0.1)">
       <use xlink:href="#DejaVuSans-52"/>
       <use x="63.623047" xlink:href="#DejaVuSans-53"/>
       <use x="127.246094" xlink:href="#DejaVuSans-48"/>
       <use x="190.869141" xlink:href="#DejaVuSans-48"/>
       <use x="254.492188" xlink:href="#DejaVuSans-48"/>
      </g>
     </g>
    </g>
   </g>
   <g id="line2d_17">
    <path clip-path="url(#p634a8831d5)" d="M 89.37035 261.233405 
L 90.18812 261.050813 
L 92.641429 261.880608 
L 93.459199 262.441608 
L 94.276968 262.578754 
L 95.094738 262.272039 
L 95.912507 261.391821 
L 96.730277 261.052886 
L 97.548047 260.245386 
L 99.183586 259.60807 
L 100.001356 259.524153 
L 100.819125 259.250154 
L 101.636895 259.093926 
L 103.272434 257.817873 
L 104.907973 256.445155 
L 105.725743 255.530154 
L 106.543513 255.103224 
L 107.361282 254.301094 
L 108.179052 253.738615 
L 108.996822 253.497567 
L 109.814591 253.457174 
L 110.632361 253.796505 
L 111.450131 253.969279 
L 112.2679 253.977909 
L 113.08567 253.767528 
L 114.721209 253.852451 
L 117.174518 254.151265 
L 117.992288 254.535575 
L 118.810057 254.316921 
L 119.627827 253.489179 
L 121.263366 252.615598 
L 122.898905 252.208574 
L 123.716675 252.672317 
L 125.352214 253.869765 
L 126.169984 254.814286 
L 127.805523 255.789479 
L 128.623293 255.687282 
L 129.441063 256.329668 
L 130.258832 256.397595 
L 131.076602 256.690738 
L 131.894371 252.819882 
L 132.712141 252.049818 
L 133.529911 251.781246 
L 134.34768 251.991066 
L 135.16545 252.050371 
L 135.98322 252.26274 
L 136.800989 252.798374 
L 139.254298 255.494046 
L 141.707607 259.929734 
L 142.525377 262.068748 
L 144.160916 267.170726 
L 146.614225 272.110996 
L 147.431995 274.240865 
L 148.249764 274.157409 
L 149.067534 273.621434 
L 149.885303 273.517668 
L 150.703073 273.293945 
L 151.520843 273.70353 
L 153.156382 273.215835 
L 154.791921 272.062643 
L 155.609691 272.001434 
L 156.42746 272.403029 
L 157.24523 272.168986 
L 159.698539 272.114426 
L 160.516309 271.971703 
L 161.334078 272.008224 
L 162.151848 272.583284 
L 162.969618 272.526715 
L 163.787387 272.753581 
L 164.605157 272.820963 
L 165.422926 272.750835 
L 167.058466 271.872039 
L 168.694005 271.151056 
L 170.329544 270.409067 
L 171.147314 269.130026 
L 171.965084 267.177456 
L 173.600623 264.118724 
L 175.236162 262.146898 
L 176.053932 261.380894 
L 177.689471 259.034349 
L 178.507241 257.169844 
L 179.32501 255.999437 
L 181.778319 256.805096 
L 182.596089 256.703629 
L 183.413858 256.350388 
L 184.231628 256.184144 
L 185.049398 256.283128 
L 185.867167 256.248675 
L 186.684937 256.631333 
L 187.502707 256.462279 
L 188.320476 256.116364 
L 190.773785 256.207702 
L 191.591555 256.29363 
L 193.227094 256.191827 
L 194.044864 256.223133 
L 194.862633 256.851192 
L 196.498173 257.274164 
L 197.315942 257.209908 
L 198.133712 257.298198 
L 198.951482 256.524768 
L 200.587021 256.514479 
L 201.40479 256.251178 
L 204.675869 256.481469 
L 206.311408 256.074957 
L 207.946948 256.079595 
L 210.400256 257.067597 
L 211.218026 257.186172 
L 214.489105 257.09279 
L 215.306874 257.844647 
L 216.942414 257.851837 
L 217.760183 258.118926 
L 220.213492 258.256074 
L 221.031262 258.413607 
L 221.849031 258.730278 
L 222.666801 259.246379 
L 225.12011 259.496494 
L 225.93788 259.479152 
L 228.391188 259.960753 
L 229.208958 259.86768 
L 230.844497 259.952527 
L 231.662267 260.138494 
L 233.297806 260.940426 
L 237.386654 261.070755 
L 239.022194 261.057299 
L 239.839963 260.920153 
L 243.111042 259.362332 
L 243.928812 257.699327 
L 244.746581 254.989286 
L 246.38212 251.449894 
L 247.19989 250.110854 
L 248.01766 248.490933 
L 248.835429 247.188988 
L 250.470969 245.342458 
L 251.288738 244.683124 
L 252.106508 243.525604 
L 252.924278 242.570086 
L 255.377586 241.29384 
L 256.195356 241.162708 
L 257.830895 241.977959 
L 258.648665 242.599605 
L 259.466435 243.498462 
L 260.284204 243.906706 
L 261.101974 243.768096 
L 261.919744 243.102635 
L 262.737513 243.035356 
L 264.373052 243.17275 
L 265.190822 243.224532 
L 266.826361 243.556427 
L 267.644131 243.70876 
L 270.91521 243.622687 
L 271.732979 243.859694 
L 272.550749 243.93805 
L 274.186288 243.757994 
L 275.004058 243.688699 
L 275.821827 242.407863 
L 276.639597 241.978967 
L 277.457367 241.394259 
L 278.275136 241.685481 
L 279.092906 241.855724 
L 279.910676 241.886408 
L 280.728445 242.04912 
L 282.363984 242.745368 
L 283.181754 243.284716 
L 286.452833 244.493786 
L 287.270602 244.930295 
L 288.088372 245.503593 
L 288.906142 246.267227 
L 290.541681 249.298543 
L 291.35945 250.081298 
L 293.812759 249.893661 
L 294.630529 249.900472 
L 295.448299 249.784507 
L 296.266068 250.037152 
L 298.719377 250.193484 
L 299.537147 250.346196 
L 301.172686 250.386147 
L 302.808225 250.858213 
L 304.443765 250.875564 
L 306.079304 249.402696 
L 306.897074 248.494545 
L 308.532613 247.617837 
L 309.350382 247.086571 
L 310.985922 246.554546 
L 311.803691 246.160641 
L 313.439231 244.775196 
L 315.07477 240.710505 
L 316.710309 237.796447 
L 317.528079 236.679924 
L 318.345848 235.848668 
L 319.163618 234.438948 
L 320.799157 232.792161 
L 323.252466 229.966401 
L 324.070236 229.52327 
L 325.705775 228.073195 
L 326.523545 225.613558 
L 327.341314 223.774973 
L 328.159084 223.356274 
L 328.976854 222.253843 
L 329.794623 221.640958 
L 330.612393 220.713686 
L 331.430163 219.435224 
L 333.065702 216.047645 
L 333.883471 215.139109 
L 334.701241 214.59162 
L 335.519011 213.087114 
L 337.15455 208.609339 
L 337.97232 206.876865 
L 338.790089 204.179083 
L 339.607859 202.070039 
L 341.243398 200.165024 
L 342.878937 197.284137 
L 343.696707 197.240584 
L 344.514477 197.751764 
L 346.150016 197.743423 
L 346.967786 196.399492 
L 347.785555 196.24893 
L 349.421095 194.753063 
L 350.238864 195.244833 
L 351.056634 195.9474 
L 351.874403 195.963464 
L 352.692173 195.640918 
L 355.963252 195.925384 
L 356.781021 195.79885 
L 357.598791 195.450755 
L 358.416561 195.358007 
L 359.23433 194.873906 
L 360.0521 192.018626 
L 362.505409 177.070088 
L 363.323178 173.524542 
L 364.140948 171.342672 
L 364.958718 168.050987 
L 366.594257 163.530195 
L 367.412027 160.274159 
L 368.229796 155.068625 
L 372.318644 135.05615 
L 373.136414 131.564586 
L 374.771953 118.175918 
L 375.589723 114.722763 
L 376.407493 108.234981 
L 377.225262 98.007085 
L 378.860801 72.897485 
L 379.678571 63.504952 
L 380.496341 58.733684 
L 381.31411 57.101753 
L 382.13188 57.645509 
L 382.94965 56.398688 
L 383.767419 53.96213 
L 384.585189 53.568 
L 385.402959 54.711045 
L 386.220728 56.261151 
L 387.856267 59.973577 
L 388.674037 62.789905 
L 389.491807 64.280106 
L 390.309576 64.69432 
L 391.127346 64.21949 
L 391.945116 64.387034 
L 392.762885 63.764864 
L 393.580655 63.972027 
L 394.398425 65.680902 
L 396.033964 76.503031 
L 396.851733 79.51993 
L 397.669503 80.196684 
L 398.487273 80.285398 
L 398.487273 80.285398 
" style="fill:none;stroke:#1f77b4;stroke-linecap:square;stroke-width:1.5;"/>
   </g>
   <g id="line2d_18">
    <path clip-path="url(#p634a8831d5)" d="M 89.37035 276.426759 
L 90.18812 275.667049 
L 91.00589 274.361936 
L 92.641429 272.495098 
L 93.459199 271.333633 
L 94.276968 270.681656 
L 95.094738 270.533032 
L 95.912507 270.586499 
L 96.730277 270.023298 
L 97.548047 270.02299 
L 100.001356 268.437916 
L 102.454665 268.385543 
L 104.090204 268.672666 
L 105.725743 268.608956 
L 107.361282 268.166514 
L 108.179052 267.531598 
L 108.996822 266.674566 
L 110.632361 264.343078 
L 111.450131 263.542961 
L 112.2679 263.342822 
L 113.08567 263.005006 
L 113.903439 262.942206 
L 116.356748 262.135132 
L 117.174518 261.599329 
L 117.992288 260.915459 
L 118.810057 261.317464 
L 119.627827 262.733204 
L 122.898905 267.141888 
L 125.352214 268.163354 
L 126.169984 268.004614 
L 127.805523 268.105785 
L 128.623293 269.221762 
L 129.441063 269.951636 
L 130.258832 270.920974 
L 131.076602 271.641762 
L 131.894371 278.439959 
L 133.529911 284.884069 
L 135.16545 289.864667 
L 135.98322 291.766329 
L 136.800989 293.315301 
L 138.436529 294.562472 
L 140.072068 295.488 
L 140.889837 295.426149 
L 141.707607 295.12779 
L 142.525377 294.449283 
L 144.160916 292.20176 
L 145.796455 291.26935 
L 146.614225 290.455171 
L 147.431995 289.244388 
L 148.249764 288.251633 
L 149.067534 288.050811 
L 150.703073 286.498395 
L 151.520843 285.02664 
L 153.156382 283.120896 
L 154.791921 282.884815 
L 155.609691 282.509916 
L 156.42746 281.48974 
L 157.24523 281.325524 
L 159.698539 281.250979 
L 160.516309 281.175082 
L 161.334078 280.611859 
L 162.151848 279.213598 
L 162.969618 278.901703 
L 163.787387 278.401564 
L 165.422926 278.104534 
L 168.694005 278.129823 
L 170.329544 278.445089 
L 171.965084 279.969018 
L 173.600623 280.759138 
L 175.236162 280.299077 
L 176.053932 279.734623 
L 177.689471 279.337035 
L 178.507241 279.511761 
L 179.32501 279.108648 
L 180.14278 277.894091 
L 181.778319 275.142984 
L 183.413858 273.380252 
L 184.231628 272.367967 
L 185.867167 269.877088 
L 186.684937 268.323609 
L 187.502707 267.564346 
L 191.591555 266.109997 
L 192.409324 266.246829 
L 194.044864 266.765021 
L 195.680403 266.536836 
L 196.498173 265.705298 
L 197.315942 265.348289 
L 198.133712 264.748791 
L 198.951482 264.887159 
L 205.493639 264.807264 
L 207.946948 264.321824 
L 208.764717 263.562948 
L 209.582487 263.14653 
L 210.400256 262.428069 
L 211.218026 262.14622 
L 212.035796 262.147078 
L 213.671335 262.549162 
L 214.489105 262.689434 
L 215.306874 262.342626 
L 217.760183 262.426293 
L 220.213492 263.359499 
L 221.031262 263.552655 
L 221.849031 263.595156 
L 222.666801 263.473053 
L 224.30234 263.670904 
L 225.93788 263.861042 
L 231.662267 263.79001 
L 233.297806 263.35844 
L 235.751115 263.386032 
L 236.568885 263.216951 
L 239.022194 263.125887 
L 242.293272 263.35406 
L 243.111042 263.553343 
L 243.928812 264.582618 
L 244.746581 266.248368 
L 245.564351 267.17314 
L 246.38212 267.652663 
L 248.835429 268.344799 
L 250.470969 267.72779 
L 251.288738 267.099506 
L 252.106508 266.619569 
L 252.924278 265.930031 
L 254.559817 263.730373 
L 256.195356 261.109521 
L 257.830895 257.936583 
L 258.648665 255.993906 
L 259.466435 253.758226 
L 260.284204 252.365627 
L 261.101974 251.970873 
L 261.919744 251.81289 
L 262.737513 251.350595 
L 263.555283 250.748468 
L 265.190822 250.297737 
L 266.826361 249.40561 
L 267.644131 249.155795 
L 268.461901 249.373186 
L 269.27967 249.759135 
L 271.732979 249.895096 
L 272.550749 249.9111 
L 273.368518 249.659055 
L 274.186288 249.569048 
L 275.004058 249.917893 
L 275.821827 252.180144 
L 276.639597 253.508295 
L 277.457367 255.161986 
L 278.275136 256.195235 
L 279.092906 257.005727 
L 279.910676 258.077904 
L 281.546215 259.136841 
L 283.181754 259.827837 
L 284.817293 259.97831 
L 286.452833 259.929907 
L 287.270602 259.849171 
L 288.906142 259.389918 
L 290.541681 258.013168 
L 292.99499 257.645971 
L 294.630529 256.893097 
L 295.448299 256.674491 
L 296.266068 255.973829 
L 297.901608 255.4665 
L 298.719377 255.341436 
L 299.537147 255.040589 
L 304.443765 255.031359 
L 305.261534 255.462539 
L 306.897074 255.994132 
L 307.714843 255.662856 
L 310.168152 255.64494 
L 311.803691 255.531794 
L 313.439231 255.585245 
L 314.257 256.381535 
L 315.07477 256.830358 
L 316.710309 256.774189 
L 317.528079 256.49324 
L 318.345848 255.807277 
L 319.163618 255.384603 
L 320.799157 254.107935 
L 323.252466 252.709228 
L 325.705775 250.082408 
L 326.523545 249.929045 
L 327.341314 249.184596 
L 328.159084 247.566433 
L 328.976854 246.384697 
L 329.794623 244.908732 
L 330.612393 244.304242 
L 331.430163 243.918284 
L 332.247932 243.669172 
L 333.065702 243.287086 
L 333.883471 242.336476 
L 334.701241 241.108255 
L 337.15455 239.861868 
L 337.97232 238.993512 
L 338.790089 238.704655 
L 339.607859 237.792645 
L 341.243398 234.060765 
L 342.061168 232.508371 
L 342.878937 231.962758 
L 343.696707 231.03074 
L 344.514477 229.103875 
L 345.332246 227.73479 
L 346.150016 225.983636 
L 346.967786 224.637048 
L 347.785555 222.896655 
L 349.421095 220.691546 
L 350.238864 218.619188 
L 351.056634 215.963817 
L 351.874403 214.315495 
L 352.692173 213.714154 
L 354.327712 212.774661 
L 355.145482 212.96635 
L 355.963252 213.307937 
L 358.416561 213.08665 
L 359.23433 213.129336 
L 360.0521 213.43325 
L 360.869869 215.113703 
L 361.687639 216.520161 
L 362.505409 218.163706 
L 363.323178 219.412854 
L 364.140948 219.192946 
L 364.958718 219.67385 
L 365.776487 219.540527 
L 366.594257 218.775847 
L 367.412027 218.634106 
L 368.229796 219.517793 
L 369.047566 219.246903 
L 369.865335 217.954436 
L 371.500875 214.518047 
L 373.136414 208.302766 
L 373.954184 207.175704 
L 374.771953 205.290842 
L 375.589723 201.046473 
L 376.407493 199.768074 
L 377.225262 201.415812 
L 378.043032 204.168472 
L 378.860801 206.246209 
L 379.678571 205.372408 
L 380.496341 200.670508 
L 381.31411 195.172531 
L 383.767419 174.492087 
L 384.585189 168.565542 
L 387.856267 140.774788 
L 388.674037 133.945684 
L 389.491807 131.569761 
L 390.309576 130.653311 
L 391.127346 131.695623 
L 391.945116 131.3569 
L 392.762885 133.068622 
L 393.580655 135.499307 
L 394.398425 139.331205 
L 395.216194 138.419107 
L 396.033964 136.566294 
L 396.851733 135.917043 
L 397.669503 136.668883 
L 398.487273 136.896165 
L 398.487273 136.896165 
" style="fill:none;stroke:#ff7f0e;stroke-linecap:square;stroke-width:1.5;"/>
   </g>
   <g id="line2d_19">
    <path clip-path="url(#p634a8831d5)" d="M 89.37035 268.830082 
L 91.823659 267.518649 
L 94.276968 266.630205 
L 95.094738 266.402535 
L 100.001356 263.981035 
L 102.454665 263.446085 
L 104.090204 262.904962 
L 106.543513 261.725143 
L 108.179052 260.635107 
L 110.632361 259.069792 
L 111.450131 258.75612 
L 112.2679 258.660366 
L 113.08567 258.386267 
L 114.721209 258.280373 
L 116.356748 258.083953 
L 117.992288 257.725517 
L 118.810057 257.817193 
L 121.263366 258.776683 
L 122.898905 259.675231 
L 126.987754 261.635321 
L 127.805523 261.947632 
L 128.623293 262.454522 
L 129.441063 263.140652 
L 131.076602 264.16625 
L 133.529911 268.332658 
L 135.16545 270.957519 
L 136.800989 273.056838 
L 140.889837 276.916198 
L 142.525377 278.259016 
L 144.160916 279.686243 
L 146.614225 281.283084 
L 147.431995 281.742626 
L 148.249764 281.204521 
L 149.885303 280.359274 
L 151.520843 279.365085 
L 153.156382 278.168366 
L 154.791921 277.473729 
L 157.24523 276.747255 
L 159.698539 276.682703 
L 160.516309 276.573392 
L 161.334078 276.310042 
L 162.151848 275.898441 
L 163.787387 275.577572 
L 165.422926 275.427684 
L 167.876235 274.733771 
L 170.329544 274.427078 
L 171.147314 274.133669 
L 175.236162 271.222988 
L 177.689471 269.185692 
L 179.32501 267.554042 
L 180.14278 267.073708 
L 181.778319 265.97404 
L 182.596089 265.501937 
L 185.867167 263.062881 
L 187.502707 262.013312 
L 188.320476 261.697571 
L 189.956016 261.437395 
L 191.591555 261.201813 
L 193.227094 261.355438 
L 195.680403 261.821975 
L 196.498173 261.489731 
L 198.133712 261.023494 
L 198.951482 260.705963 
L 204.675869 260.670279 
L 212.035796 259.666537 
L 218.577953 260.441645 
L 220.213492 260.807787 
L 223.484571 261.444226 
L 226.755649 261.758101 
L 228.391188 261.873485 
L 230.026728 261.885604 
L 231.662267 261.964252 
L 234.115576 262.1678 
L 239.022194 262.091593 
L 240.657733 261.91589 
L 243.111042 261.457838 
L 243.928812 261.140973 
L 247.19989 259.016362 
L 252.106508 255.072586 
L 255.377586 251.893837 
L 256.195356 251.136114 
L 257.830895 249.957271 
L 259.466435 248.628344 
L 260.284204 248.136167 
L 261.101974 247.869485 
L 261.919744 247.457763 
L 263.555283 246.945514 
L 266.008592 246.624285 
L 267.644131 246.432278 
L 271.732979 246.877395 
L 272.550749 246.924575 
L 273.368518 246.734112 
L 274.186288 246.663521 
L 275.004058 246.803296 
L 277.457367 248.278123 
L 278.275136 248.940358 
L 280.728445 250.362386 
L 283.181754 251.556276 
L 284.817293 251.962716 
L 286.452833 252.211847 
L 288.906142 252.828573 
L 290.541681 253.655855 
L 291.35945 253.975086 
L 293.812759 253.576844 
L 297.083838 252.882873 
L 299.537147 252.693393 
L 301.172686 252.721796 
L 302.808225 252.946824 
L 304.443765 252.953461 
L 305.261534 252.815227 
L 306.897074 252.244339 
L 307.714843 251.885439 
L 310.985922 251.046385 
L 312.621461 250.541861 
L 313.439231 250.180221 
L 315.89254 248.040328 
L 323.252466 241.337815 
L 324.070236 240.684341 
L 325.705775 239.077802 
L 327.341314 236.479784 
L 330.612393 232.508964 
L 331.430163 231.676754 
L 333.883471 228.737792 
L 335.519011 226.906545 
L 338.790089 221.441869 
L 342.061168 215.581578 
L 342.878937 214.623447 
L 343.696707 214.135662 
L 345.332246 212.739526 
L 346.150016 211.86353 
L 346.967786 210.51827 
L 349.421095 207.722304 
L 350.238864 206.932011 
L 351.874403 205.139479 
L 352.692173 204.677536 
L 354.327712 204.286897 
L 355.963252 204.61666 
L 356.781021 204.498027 
L 357.598791 204.257105 
L 358.416561 204.222329 
L 359.23433 204.001621 
L 360.0521 202.725938 
L 362.505409 197.616897 
L 364.140948 195.267809 
L 364.958718 193.862418 
L 365.776487 192.705695 
L 367.412027 189.454133 
L 369.047566 185.131171 
L 370.683105 179.768266 
L 373.136414 169.933676 
L 377.225262 149.711449 
L 380.496341 129.702096 
L 382.94965 118.644401 
L 383.767419 114.227109 
L 385.402959 108.072706 
L 387.038498 102.530174 
L 388.674037 98.367795 
L 389.491807 97.924933 
L 390.309576 97.673815 
L 391.127346 97.957556 
L 391.945116 97.871967 
L 392.762885 98.416743 
L 393.580655 99.735667 
L 394.398425 102.506054 
L 395.216194 104.709049 
L 396.033964 106.534663 
L 396.851733 107.718486 
L 397.669503 108.432784 
L 398.487273 108.590782 
L 398.487273 108.590782 
" style="fill:none;stroke:#2ca02c;stroke-linecap:square;stroke-width:1.5;"/>
   </g>
   <g id="line2d_20">
    <path clip-path="url(#p634a8831d5)" d="M 73.832727 274.390026 
L 74.650497 275.779136 
L 75.468267 273.421995 
L 77.103806 273.362415 
L 78.739345 268.455732 
L 79.557115 269.159109 
L 80.374884 270.542433 
L 81.192654 268.262861 
L 82.010424 269.321022 
L 82.828193 268.32642 
L 83.645963 268.775825 
L 84.463733 264.478316 
L 85.281502 264.471827 
L 86.099272 265.032462 
L 86.917041 263.971251 
L 87.734811 263.904396 
L 88.552581 265.144754 
L 89.37035 265.556681 
L 90.18812 264.967016 
L 91.00589 265.374717 
L 91.823659 267.020778 
L 92.641429 266.749286 
L 93.459199 267.357767 
L 95.094738 263.902334 
L 95.912507 260.891613 
L 96.730277 261.521062 
L 97.548047 260.184788 
L 98.365816 261.180216 
L 99.183586 260.919846 
L 100.819125 261.513818 
L 101.636895 262.225877 
L 102.454665 259.54392 
L 103.272434 258.704293 
L 104.090204 258.348896 
L 104.907973 257.803638 
L 105.725743 256.189658 
L 106.543513 258.078772 
L 107.361282 255.547943 
L 108.179052 255.046826 
L 108.996822 255.768477 
L 109.814591 254.99292 
L 110.632361 257.770802 
L 111.450131 257.628898 
L 112.2679 258.97653 
L 113.08567 256.039091 
L 113.903439 259.665896 
L 114.721209 259.581225 
L 115.538979 259.040946 
L 116.356748 259.210625 
L 117.174518 257.340704 
L 118.810057 261.377434 
L 119.627827 264.584272 
L 120.445597 264.422247 
L 121.263366 265.040125 
L 122.081136 266.125377 
L 122.898905 266.114 
L 123.716675 263.750839 
L 124.534445 264.718595 
L 125.352214 264.72039 
L 126.169984 262.850725 
L 126.987754 262.288232 
L 127.805523 263.875121 
L 128.623293 269.114324 
L 129.441063 269.761681 
L 130.258832 270.03855 
L 131.076602 269.72054 
L 131.894371 288.314355 
L 132.712141 283.933931 
L 133.529911 286.672141 
L 134.34768 285.583981 
L 135.16545 287.520952 
L 135.98322 285.724589 
L 136.800989 285.268307 
L 137.618759 280.562445 
L 138.436529 280.401174 
L 139.254298 280.456234 
L 140.072068 282.868087 
L 140.889837 278.648199 
L 141.707607 276.97167 
L 142.525377 277.455797 
L 143.343146 277.319608 
L 144.160916 277.3883 
L 144.978686 280.279137 
L 145.796455 282.38849 
L 146.614225 278.183734 
L 147.431995 278.911395 
L 148.249764 277.552254 
L 149.067534 276.565958 
L 149.885303 277.135175 
L 150.703073 276.321894 
L 151.520843 276.899254 
L 152.338612 273.720945 
L 153.156382 273.337569 
L 154.791921 273.615642 
L 155.609691 276.095156 
L 156.42746 276.682281 
L 157.24523 274.665609 
L 158.063 276.994424 
L 158.880769 276.247294 
L 159.698539 277.214305 
L 160.516309 275.202087 
L 161.334078 275.012129 
L 162.151848 274.156482 
L 162.969618 274.499084 
L 163.787387 276.178664 
L 164.605157 276.420554 
L 165.422926 274.699894 
L 166.240696 272.134056 
L 167.058466 272.464964 
L 167.876235 271.879033 
L 168.694005 271.85433 
L 169.511775 271.41515 
L 170.329544 271.110415 
L 171.147314 267.747459 
L 171.965084 264.886528 
L 172.782853 264.697825 
L 173.600623 263.963935 
L 174.418392 264.4074 
L 175.236162 264.515458 
L 176.053932 263.909722 
L 176.871701 261.775212 
L 177.689471 260.99767 
L 178.507241 257.258701 
L 179.32501 258.763873 
L 180.14278 266.571985 
L 180.96055 264.174433 
L 181.778319 264.952648 
L 182.596089 262.692005 
L 183.413858 259.732613 
L 185.049398 260.452177 
L 185.867167 258.553818 
L 186.684937 259.40221 
L 187.502707 258.46428 
L 188.320476 258.571695 
L 189.138246 261.247458 
L 189.956016 262.210796 
L 191.591555 262.055719 
L 192.409324 264.668637 
L 193.227094 264.088798 
L 194.044864 263.770441 
L 194.862633 262.02621 
L 195.680403 260.554327 
L 196.498173 259.927102 
L 197.315942 259.961784 
L 198.133712 259.840564 
L 198.951482 256.341388 
L 199.769251 259.659957 
L 200.587021 260.057292 
L 201.40479 258.176198 
L 202.22256 259.137729 
L 203.04033 259.494044 
L 203.858099 258.827851 
L 204.675869 259.203788 
L 206.311408 258.416833 
L 207.129178 260.385445 
L 207.946948 260.652145 
L 208.764717 260.716383 
L 209.582487 262.459053 
L 210.400256 260.294912 
L 212.035796 260.561153 
L 212.853565 261.608672 
L 214.489105 261.223123 
L 216.124644 259.676702 
L 216.942414 260.175145 
L 217.760183 261.621059 
L 218.577953 262.518439 
L 219.395722 262.293354 
L 220.213492 263.351372 
L 221.031262 262.710678 
L 221.849031 262.415371 
L 222.666801 262.356811 
L 223.484571 262.075647 
L 224.30234 262.717994 
L 225.93788 262.83825 
L 226.755649 262.054984 
L 227.573419 261.674639 
L 228.391188 261.587652 
L 229.208958 260.826859 
L 230.026728 262.413351 
L 230.844497 261.597039 
L 232.480037 261.495333 
L 233.297806 262.060147 
L 234.115576 261.988389 
L 234.933346 262.587161 
L 236.568885 262.44064 
L 238.204424 262.16442 
L 239.022194 262.03501 
L 240.657733 260.167094 
L 241.475503 259.965886 
L 242.293272 259.615265 
L 243.111042 258.939796 
L 243.928812 255.337338 
L 244.746581 251.144744 
L 245.564351 251.161958 
L 246.38212 250.727278 
L 247.19989 250.898701 
L 248.01766 248.88658 
L 248.835429 249.210305 
L 249.653199 250.048044 
L 250.470969 249.365106 
L 251.288738 249.710983 
L 252.106508 246.176498 
L 252.924278 245.99009 
L 253.742047 247.574316 
L 254.559817 246.974641 
L 255.377586 244.869625 
L 256.195356 245.95804 
L 257.013126 248.960946 
L 258.648665 246.404964 
L 259.466435 245.57156 
L 260.284204 245.493789 
L 261.101974 245.811106 
L 261.919744 242.927522 
L 262.737513 245.431526 
L 263.555283 245.949484 
L 264.373052 247.484692 
L 265.190822 246.924595 
L 266.008592 247.311059 
L 266.826361 246.499782 
L 267.644131 248.736161 
L 268.461901 248.245789 
L 269.27967 249.205156 
L 270.09744 248.102509 
L 270.91521 247.901585 
L 271.732979 247.032472 
L 272.550749 246.901643 
L 273.368518 245.151685 
L 274.186288 246.183339 
L 275.004058 249.200464 
L 275.821827 255.385714 
L 276.639597 254.486344 
L 277.457367 256.500934 
L 278.275136 256.17223 
L 279.092906 255.238871 
L 279.910676 256.978102 
L 280.728445 255.089288 
L 282.363984 254.505535 
L 283.181754 255.260389 
L 283.999524 253.012119 
L 284.817293 252.098631 
L 285.635063 250.850436 
L 286.452833 251.43984 
L 287.270602 251.459309 
L 288.088372 250.755567 
L 288.906142 251.955341 
L 289.723911 253.955526 
L 290.541681 253.92515 
L 291.35945 255.585087 
L 292.17722 253.057061 
L 292.99499 252.713524 
L 294.630529 252.571023 
L 295.448299 251.893166 
L 296.266068 252.49793 
L 297.083838 252.636935 
L 297.901608 253.340863 
L 298.719377 253.703734 
L 299.537147 253.779047 
L 301.172686 252.546172 
L 301.990456 253.567231 
L 302.808225 253.223599 
L 303.625995 251.681766 
L 304.443765 250.665861 
L 305.261534 249.190642 
L 306.079304 248.745697 
L 306.897074 247.717219 
L 307.714843 248.407096 
L 308.532613 248.416911 
L 309.350382 247.929182 
L 310.168152 249.061891 
L 310.985922 248.790114 
L 311.803691 247.889816 
L 312.621461 246.410801 
L 313.439231 245.404129 
L 314.257 239.964431 
L 315.07477 238.884373 
L 315.89254 239.176987 
L 316.710309 238.032441 
L 317.528079 238.571455 
L 318.345848 238.395042 
L 319.163618 234.899652 
L 319.981388 237.117786 
L 320.799157 235.995301 
L 321.616927 235.339444 
L 322.434697 233.930233 
L 323.252466 234.139206 
L 324.070236 235.337618 
L 324.888005 232.499543 
L 325.705775 231.715772 
L 326.523545 222.931894 
L 327.341314 222.959761 
L 328.159084 227.521199 
L 328.976854 223.569129 
L 329.794623 224.51563 
L 330.612393 224.64681 
L 331.430163 222.240171 
L 332.247932 218.60057 
L 333.065702 218.421087 
L 333.883471 219.979997 
L 334.701241 220.637946 
L 335.519011 216.031804 
L 336.33678 210.180579 
L 337.15455 209.513672 
L 337.97232 209.331157 
L 338.790089 204.063843 
L 339.607859 203.928663 
L 340.425629 205.606162 
L 341.243398 205.862051 
L 342.061168 201.089436 
L 342.878937 203.76928 
L 343.696707 213.204056 
L 344.514477 213.364347 
L 345.332246 209.803254 
L 346.150016 206.99571 
L 346.967786 197.741612 
L 347.785555 203.33062 
L 348.603325 200.691785 
L 349.421095 199.320113 
L 350.238864 204.174125 
L 351.056634 201.109905 
L 351.874403 199.709214 
L 352.692173 200.941716 
L 353.509943 206.224265 
L 354.327712 204.807778 
L 355.145482 206.632191 
L 355.963252 207.955588 
L 356.781021 203.233491 
L 357.598791 201.043611 
L 358.416561 200.393917 
L 359.23433 199.355123 
L 360.0521 187.690396 
L 360.869869 178.736993 
L 361.687639 176.771718 
L 362.505409 172.473782 
L 363.323178 174.777638 
L 364.140948 179.312833 
L 364.958718 172.583972 
L 365.776487 176.185655 
L 366.594257 173.120639 
L 367.412027 167.132133 
L 368.229796 156.490742 
L 369.047566 157.700949 
L 369.865335 152.842386 
L 370.683105 150.931559 
L 371.500875 141.551883 
L 372.318644 141.121948 
L 373.136414 138.455644 
L 373.954184 121.272274 
L 374.771953 116.159332 
L 375.589723 122.379882 
L 376.407493 110.028586 
L 378.043032 76.719834 
L 378.860801 69.733634 
L 379.678571 72.114295 
L 380.496341 84.581159 
L 381.31411 101.284891 
L 382.13188 109.876101 
L 382.94965 89.57537 
L 383.767419 78.786289 
L 384.585189 93.283988 
L 385.402959 97.819642 
L 386.220728 98.947208 
L 387.038498 93.976109 
L 387.856267 98.432041 
L 388.674037 100.994195 
L 389.491807 129.598421 
L 390.309576 116.249911 
L 391.127346 121.834155 
L 391.945116 120.668099 
L 392.762885 120.924101 
L 393.580655 119.313897 
L 394.398425 132.127567 
L 395.216194 113.793539 
L 396.033964 108.626568 
L 396.851733 108.257631 
L 397.669503 115.570841 
L 398.487273 113.036063 
L 398.487273 113.036063 
" style="fill:none;stroke:#d62728;stroke-linecap:square;stroke-width:1.5;"/>
   </g>
   <g id="patch_3">
    <path d="M 57.6 307.584 
L 57.6 41.472 
" style="fill:none;stroke:#000000;stroke-linecap:square;stroke-linejoin:miter;stroke-width:0.8;"/>
   </g>
   <g id="patch_4">
    <path d="M 414.72 307.584 
L 414.72 41.472 
" style="fill:none;stroke:#000000;stroke-linecap:square;stroke-linejoin:miter;stroke-width:0.8;"/>
   </g>
   <g id="patch_5">
    <path d="M 57.6 307.584 
L 414.72 307.584 
" style="fill:none;stroke:#000000;stroke-linecap:square;stroke-linejoin:miter;stroke-width:0.8;"/>
   </g>
   <g id="patch_6">
    <path d="M 57.6 41.472 
L 414.72 41.472 
" style="fill:none;stroke:#000000;stroke-linecap:square;stroke-linejoin:miter;stroke-width:0.8;"/>
   </g>
   <g id="text_17">
    <!-- Data source: coindesk -->
    <g transform="translate(180.640469 35.472)scale(0.1 -0.1)">
     <defs>
      <path d="M 19.671875 64.796875 
L 19.671875 8.109375 
L 31.59375 8.109375 
Q 46.6875 8.109375 53.6875 14.9375 
Q 60.6875 21.78125 60.6875 36.53125 
Q 60.6875 51.171875 53.6875 57.984375 
Q 46.6875 64.796875 31.59375 64.796875 
z
M 9.8125 72.90625 
L 30.078125 72.90625 
Q 51.265625 72.90625 61.171875 64.09375 
Q 71.09375 55.28125 71.09375 36.53125 
Q 71.09375 17.671875 61.125 8.828125 
Q 51.171875 0 30.078125 0 
L 9.8125 0 
z
" id="DejaVuSans-68"/>
      <path d="M 34.28125 27.484375 
Q 23.390625 27.484375 19.1875 25 
Q 14.984375 22.515625 14.984375 16.5 
Q 14.984375 11.71875 18.140625 8.90625 
Q 21.296875 6.109375 26.703125 6.109375 
Q 34.1875 6.109375 38.703125 11.40625 
Q 43.21875 16.703125 43.21875 25.484375 
L 43.21875 27.484375 
z
M 52.203125 31.203125 
L 52.203125 0 
L 43.21875 0 
L 43.21875 8.296875 
Q 40.140625 3.328125 35.546875 0.953125 
Q 30.953125 -1.421875 24.3125 -1.421875 
Q 15.921875 -1.421875 10.953125 3.296875 
Q 6 8.015625 6 15.921875 
Q 6 25.140625 12.171875 29.828125 
Q 18.359375 34.515625 30.609375 34.515625 
L 43.21875 34.515625 
L 43.21875 35.40625 
Q 43.21875 41.609375 39.140625 45 
Q 35.0625 48.390625 27.6875 48.390625 
Q 23 48.390625 18.546875 47.265625 
Q 14.109375 46.140625 10.015625 43.890625 
L 10.015625 52.203125 
Q 14.9375 54.109375 19.578125 55.046875 
Q 24.21875 56 28.609375 56 
Q 40.484375 56 46.34375 49.84375 
Q 52.203125 43.703125 52.203125 31.203125 
z
" id="DejaVuSans-97"/>
      <path d="M 18.3125 70.21875 
L 18.3125 54.6875 
L 36.8125 54.6875 
L 36.8125 47.703125 
L 18.3125 47.703125 
L 18.3125 18.015625 
Q 18.3125 11.328125 20.140625 9.421875 
Q 21.96875 7.515625 27.59375 7.515625 
L 36.8125 7.515625 
L 36.8125 0 
L 27.59375 0 
Q 17.1875 0 13.234375 3.875 
Q 9.28125 7.765625 9.28125 18.015625 
L 9.28125 47.703125 
L 2.6875 47.703125 
L 2.6875 54.6875 
L 9.28125 54.6875 
L 9.28125 70.21875 
z
" id="DejaVuSans-116"/>
      <path id="DejaVuSans-32"/>
      <path d="M 44.28125 53.078125 
L 44.28125 44.578125 
Q 40.484375 46.53125 36.375 47.5 
Q 32.28125 48.484375 27.875 48.484375 
Q 21.1875 48.484375 17.84375 46.4375 
Q 14.5 44.390625 14.5 40.28125 
Q 14.5 37.15625 16.890625 35.375 
Q 19.28125 33.59375 26.515625 31.984375 
L 29.59375 31.296875 
Q 39.15625 29.25 43.1875 25.515625 
Q 47.21875 21.78125 47.21875 15.09375 
Q 47.21875 7.46875 41.1875 3.015625 
Q 35.15625 -1.421875 24.609375 -1.421875 
Q 20.21875 -1.421875 15.453125 -0.5625 
Q 10.6875 0.296875 5.421875 2 
L 5.421875 11.28125 
Q 10.40625 8.6875 15.234375 7.390625 
Q 20.0625 6.109375 24.8125 6.109375 
Q 31.15625 6.109375 34.5625 8.28125 
Q 37.984375 10.453125 37.984375 14.40625 
Q 37.984375 18.0625 35.515625 20.015625 
Q 33.0625 21.96875 24.703125 23.78125 
L 21.578125 24.515625 
Q 13.234375 26.265625 9.515625 29.90625 
Q 5.8125 33.546875 5.8125 39.890625 
Q 5.8125 47.609375 11.28125 51.796875 
Q 16.75 56 26.8125 56 
Q 31.78125 56 36.171875 55.265625 
Q 40.578125 54.546875 44.28125 53.078125 
z
" id="DejaVuSans-115"/>
      <path d="M 30.609375 48.390625 
Q 23.390625 48.390625 19.1875 42.75 
Q 14.984375 37.109375 14.984375 27.296875 
Q 14.984375 17.484375 19.15625 11.84375 
Q 23.34375 6.203125 30.609375 6.203125 
Q 37.796875 6.203125 41.984375 11.859375 
Q 46.1875 17.53125 46.1875 27.296875 
Q 46.1875 37.015625 41.984375 42.703125 
Q 37.796875 48.390625 30.609375 48.390625 
z
M 30.609375 56 
Q 42.328125 56 49.015625 48.375 
Q 55.71875 40.765625 55.71875 27.296875 
Q 55.71875 13.875 49.015625 6.21875 
Q 42.328125 -1.421875 30.609375 -1.421875 
Q 18.84375 -1.421875 12.171875 6.21875 
Q 5.515625 13.875 5.515625 27.296875 
Q 5.515625 40.765625 12.171875 48.375 
Q 18.84375 56 30.609375 56 
z
" id="DejaVuSans-111"/>
      <path d="M 8.5 21.578125 
L 8.5 54.6875 
L 17.484375 54.6875 
L 17.484375 21.921875 
Q 17.484375 14.15625 20.5 10.265625 
Q 23.53125 6.390625 29.59375 6.390625 
Q 36.859375 6.390625 41.078125 11.03125 
Q 45.3125 15.671875 45.3125 23.6875 
L 45.3125 54.6875 
L 54.296875 54.6875 
L 54.296875 0 
L 45.3125 0 
L 45.3125 8.40625 
Q 42.046875 3.421875 37.71875 1 
Q 33.40625 -1.421875 27.6875 -1.421875 
Q 18.265625 -1.421875 13.375 4.4375 
Q 8.5 10.296875 8.5 21.578125 
z
M 31.109375 56 
z
" id="DejaVuSans-117"/>
      <path d="M 41.109375 46.296875 
Q 39.59375 47.171875 37.8125 47.578125 
Q 36.03125 48 33.890625 48 
Q 26.265625 48 22.1875 43.046875 
Q 18.109375 38.09375 18.109375 28.8125 
L 18.109375 0 
L 9.078125 0 
L 9.078125 54.6875 
L 18.109375 54.6875 
L 18.109375 46.1875 
Q 20.953125 51.171875 25.484375 53.578125 
Q 30.03125 56 36.53125 56 
Q 37.453125 56 38.578125 55.875 
Q 39.703125 55.765625 41.0625 55.515625 
z
" id="DejaVuSans-114"/>
      <path d="M 48.78125 52.59375 
L 48.78125 44.1875 
Q 44.96875 46.296875 41.140625 47.34375 
Q 37.3125 48.390625 33.40625 48.390625 
Q 24.65625 48.390625 19.8125 42.84375 
Q 14.984375 37.3125 14.984375 27.296875 
Q 14.984375 17.28125 19.8125 11.734375 
Q 24.65625 6.203125 33.40625 6.203125 
Q 37.3125 6.203125 41.140625 7.25 
Q 44.96875 8.296875 48.78125 10.40625 
L 48.78125 2.09375 
Q 45.015625 0.34375 40.984375 -0.53125 
Q 36.96875 -1.421875 32.421875 -1.421875 
Q 20.0625 -1.421875 12.78125 6.34375 
Q 5.515625 14.109375 5.515625 27.296875 
Q 5.515625 40.671875 12.859375 48.328125 
Q 20.21875 56 33.015625 56 
Q 37.15625 56 41.109375 55.140625 
Q 45.0625 54.296875 48.78125 52.59375 
z
" id="DejaVuSans-99"/>
      <path d="M 56.203125 29.59375 
L 56.203125 25.203125 
L 14.890625 25.203125 
Q 15.484375 15.921875 20.484375 11.0625 
Q 25.484375 6.203125 34.421875 6.203125 
Q 39.59375 6.203125 44.453125 7.46875 
Q 49.3125 8.734375 54.109375 11.28125 
L 54.109375 2.78125 
Q 49.265625 0.734375 44.1875 -0.34375 
Q 39.109375 -1.421875 33.890625 -1.421875 
Q 20.796875 -1.421875 13.15625 6.1875 
Q 5.515625 13.8125 5.515625 26.8125 
Q 5.515625 40.234375 12.765625 48.109375 
Q 20.015625 56 32.328125 56 
Q 43.359375 56 49.78125 48.890625 
Q 56.203125 41.796875 56.203125 29.59375 
z
M 47.21875 32.234375 
Q 47.125 39.59375 43.09375 43.984375 
Q 39.0625 48.390625 32.421875 48.390625 
Q 24.90625 48.390625 20.390625 44.140625 
Q 15.875 39.890625 15.1875 32.171875 
z
" id="DejaVuSans-101"/>
      <path d="M 11.71875 12.40625 
L 22.015625 12.40625 
L 22.015625 0 
L 11.71875 0 
z
M 11.71875 51.703125 
L 22.015625 51.703125 
L 22.015625 39.3125 
L 11.71875 39.3125 
z
" id="DejaVuSans-58"/>
      <path d="M 9.421875 54.6875 
L 18.40625 54.6875 
L 18.40625 0 
L 9.421875 0 
z
M 9.421875 75.984375 
L 18.40625 75.984375 
L 18.40625 64.59375 
L 9.421875 64.59375 
z
" id="DejaVuSans-105"/>
      <path d="M 54.890625 33.015625 
L 54.890625 0 
L 45.90625 0 
L 45.90625 32.71875 
Q 45.90625 40.484375 42.875 44.328125 
Q 39.84375 48.1875 33.796875 48.1875 
Q 26.515625 48.1875 22.3125 43.546875 
Q 18.109375 38.921875 18.109375 30.90625 
L 18.109375 0 
L 9.078125 0 
L 9.078125 54.6875 
L 18.109375 54.6875 
L 18.109375 46.1875 
Q 21.34375 51.125 25.703125 53.5625 
Q 30.078125 56 35.796875 56 
Q 45.21875 56 50.046875 50.171875 
Q 54.890625 44.34375 54.890625 33.015625 
z
" id="DejaVuSans-110"/>
      <path d="M 45.40625 46.390625 
L 45.40625 75.984375 
L 54.390625 75.984375 
L 54.390625 0 
L 45.40625 0 
L 45.40625 8.203125 
Q 42.578125 3.328125 38.25 0.953125 
Q 33.9375 -1.421875 27.875 -1.421875 
Q 17.96875 -1.421875 11.734375 6.484375 
Q 5.515625 14.40625 5.515625 27.296875 
Q 5.515625 40.1875 11.734375 48.09375 
Q 17.96875 56 27.875 56 
Q 33.9375 56 38.25 53.625 
Q 42.578125 51.265625 45.40625 46.390625 
z
M 14.796875 27.296875 
Q 14.796875 17.390625 18.875 11.75 
Q 22.953125 6.109375 30.078125 6.109375 
Q 37.203125 6.109375 41.296875 11.75 
Q 45.40625 17.390625 45.40625 27.296875 
Q 45.40625 37.203125 41.296875 42.84375 
Q 37.203125 48.484375 30.078125 48.484375 
Q 22.953125 48.484375 18.875 42.84375 
Q 14.796875 37.203125 14.796875 27.296875 
z
" id="DejaVuSans-100"/>
      <path d="M 9.078125 75.984375 
L 18.109375 75.984375 
L 18.109375 31.109375 
L 44.921875 54.6875 
L 56.390625 54.6875 
L 27.390625 29.109375 
L 57.625 0 
L 45.90625 0 
L 18.109375 26.703125 
L 18.109375 0 
L 9.078125 0 
z
" id="DejaVuSans-107"/>
     </defs>
     <use xlink:href="#DejaVuSans-68"/>
     <use x="77.001953" xlink:href="#DejaVuSans-97"/>
     <use x="138.28125" xlink:href="#DejaVuSans-116"/>
     <use x="177.490234" xlink:href="#DejaVuSans-97"/>
     <use x="238.769531" xlink:href="#DejaVuSans-32"/>
     <use x="270.556641" xlink:href="#DejaVuSans-115"/>
     <use x="322.65625" xlink:href="#DejaVuSans-111"/>
     <use x="383.837891" xlink:href="#DejaVuSans-117"/>
     <use x="447.216797" xlink:href="#DejaVuSans-114"/>
     <use x="486.080078" xlink:href="#DejaVuSans-99"/>
     <use x="541.060547" xlink:href="#DejaVuSans-101"/>
     <use x="602.583984" xlink:href="#DejaVuSans-58"/>
     <use x="636.275391" xlink:href="#DejaVuSans-32"/>
     <use x="668.0625" xlink:href="#DejaVuSans-99"/>
     <use x="723.042969" xlink:href="#DejaVuSans-111"/>
     <use x="784.224609" xlink:href="#DejaVuSans-105"/>
     <use x="812.007812" xlink:href="#DejaVuSans-110"/>
     <use x="875.386719" xlink:href="#DejaVuSans-100"/>
     <use x="938.863281" xlink:href="#DejaVuSans-101"/>
     <use x="1000.386719" xlink:href="#DejaVuSans-115"/>
     <use x="1052.486328" xlink:href="#DejaVuSans-107"/>
    </g>
   </g>
   <g id="legend_1">
    <g id="patch_7">
     <path d="M 64.6 108.1845 
L 155.732812 108.1845 
Q 157.732812 108.1845 157.732812 106.1845 
L 157.732812 48.472 
Q 157.732812 46.472 155.732812 46.472 
L 64.6 46.472 
Q 62.6 46.472 62.6 48.472 
L 62.6 106.1845 
Q 62.6 108.1845 64.6 108.1845 
z
" style="fill:#ffffff;opacity:0.8;stroke:#cccccc;stroke-linejoin:miter;"/>
    </g>
    <g id="line2d_21">
     <path d="M 66.6 54.570438 
L 86.6 54.570438 
" style="fill:none;stroke:#1f77b4;stroke-linecap:square;stroke-width:1.5;"/>
    </g>
    <g id="line2d_22"/>
    <g id="text_18">
     <!-- Upper Band -->
     <g transform="translate(94.6 58.070438)scale(0.1 -0.1)">
      <defs>
       <path d="M 8.6875 72.90625 
L 18.609375 72.90625 
L 18.609375 28.609375 
Q 18.609375 16.890625 22.84375 11.734375 
Q 27.09375 6.59375 36.625 6.59375 
Q 46.09375 6.59375 50.34375 11.734375 
Q 54.59375 16.890625 54.59375 28.609375 
L 54.59375 72.90625 
L 64.5 72.90625 
L 64.5 27.390625 
Q 64.5 13.140625 57.4375 5.859375 
Q 50.390625 -1.421875 36.625 -1.421875 
Q 22.796875 -1.421875 15.734375 5.859375 
Q 8.6875 13.140625 8.6875 27.390625 
z
" id="DejaVuSans-85"/>
       <path d="M 18.109375 8.203125 
L 18.109375 -20.796875 
L 9.078125 -20.796875 
L 9.078125 54.6875 
L 18.109375 54.6875 
L 18.109375 46.390625 
Q 20.953125 51.265625 25.265625 53.625 
Q 29.59375 56 35.59375 56 
Q 45.5625 56 51.78125 48.09375 
Q 58.015625 40.1875 58.015625 27.296875 
Q 58.015625 14.40625 51.78125 6.484375 
Q 45.5625 -1.421875 35.59375 -1.421875 
Q 29.59375 -1.421875 25.265625 0.953125 
Q 20.953125 3.328125 18.109375 8.203125 
z
M 48.6875 27.296875 
Q 48.6875 37.203125 44.609375 42.84375 
Q 40.53125 48.484375 33.40625 48.484375 
Q 26.265625 48.484375 22.1875 42.84375 
Q 18.109375 37.203125 18.109375 27.296875 
Q 18.109375 17.390625 22.1875 11.75 
Q 26.265625 6.109375 33.40625 6.109375 
Q 40.53125 6.109375 44.609375 11.75 
Q 48.6875 17.390625 48.6875 27.296875 
z
" id="DejaVuSans-112"/>
       <path d="M 19.671875 34.8125 
L 19.671875 8.109375 
L 35.5 8.109375 
Q 43.453125 8.109375 47.28125 11.40625 
Q 51.125 14.703125 51.125 21.484375 
Q 51.125 28.328125 47.28125 31.5625 
Q 43.453125 34.8125 35.5 34.8125 
z
M 19.671875 64.796875 
L 19.671875 42.828125 
L 34.28125 42.828125 
Q 41.5 42.828125 45.03125 45.53125 
Q 48.578125 48.25 48.578125 53.8125 
Q 48.578125 59.328125 45.03125 62.0625 
Q 41.5 64.796875 34.28125 64.796875 
z
M 9.8125 72.90625 
L 35.015625 72.90625 
Q 46.296875 72.90625 52.390625 68.21875 
Q 58.5 63.53125 58.5 54.890625 
Q 58.5 48.1875 55.375 44.234375 
Q 52.25 40.28125 46.1875 39.3125 
Q 53.46875 37.75 57.5 32.78125 
Q 61.53125 27.828125 61.53125 20.40625 
Q 61.53125 10.640625 54.890625 5.3125 
Q 48.25 0 35.984375 0 
L 9.8125 0 
z
" id="DejaVuSans-66"/>
      </defs>
      <use xlink:href="#DejaVuSans-85"/>
      <use x="73.193359" xlink:href="#DejaVuSans-112"/>
      <use x="136.669922" xlink:href="#DejaVuSans-112"/>
      <use x="200.146484" xlink:href="#DejaVuSans-101"/>
      <use x="261.669922" xlink:href="#DejaVuSans-114"/>
      <use x="302.783203" xlink:href="#DejaVuSans-32"/>
      <use x="334.570312" xlink:href="#DejaVuSans-66"/>
      <use x="403.173828" xlink:href="#DejaVuSans-97"/>
      <use x="464.453125" xlink:href="#DejaVuSans-110"/>
      <use x="527.832031" xlink:href="#DejaVuSans-100"/>
     </g>
    </g>
    <g id="line2d_23">
     <path d="M 66.6 69.248563 
L 86.6 69.248563 
" style="fill:none;stroke:#ff7f0e;stroke-linecap:square;stroke-width:1.5;"/>
    </g>
    <g id="line2d_24"/>
    <g id="text_19">
     <!-- Lower Band -->
     <g transform="translate(94.6 72.748563)scale(0.1 -0.1)">
      <defs>
       <path d="M 9.8125 72.90625 
L 19.671875 72.90625 
L 19.671875 8.296875 
L 55.171875 8.296875 
L 55.171875 0 
L 9.8125 0 
z
" id="DejaVuSans-76"/>
       <path d="M 4.203125 54.6875 
L 13.1875 54.6875 
L 24.421875 12.015625 
L 35.59375 54.6875 
L 46.1875 54.6875 
L 57.421875 12.015625 
L 68.609375 54.6875 
L 77.59375 54.6875 
L 63.28125 0 
L 52.6875 0 
L 40.921875 44.828125 
L 29.109375 0 
L 18.5 0 
z
" id="DejaVuSans-119"/>
      </defs>
      <use xlink:href="#DejaVuSans-76"/>
      <use x="53.962891" xlink:href="#DejaVuSans-111"/>
      <use x="115.144531" xlink:href="#DejaVuSans-119"/>
      <use x="196.931641" xlink:href="#DejaVuSans-101"/>
      <use x="258.455078" xlink:href="#DejaVuSans-114"/>
      <use x="299.568359" xlink:href="#DejaVuSans-32"/>
      <use x="331.355469" xlink:href="#DejaVuSans-66"/>
      <use x="399.958984" xlink:href="#DejaVuSans-97"/>
      <use x="461.238281" xlink:href="#DejaVuSans-110"/>
      <use x="524.617188" xlink:href="#DejaVuSans-100"/>
     </g>
    </g>
    <g id="line2d_25">
     <path d="M 66.6 83.926688 
L 86.6 83.926688 
" style="fill:none;stroke:#2ca02c;stroke-linecap:square;stroke-width:1.5;"/>
    </g>
    <g id="line2d_26"/>
    <g id="text_20">
     <!-- MA -->
     <g transform="translate(94.6 87.426688)scale(0.1 -0.1)">
      <defs>
       <path d="M 9.8125 72.90625 
L 24.515625 72.90625 
L 43.109375 23.296875 
L 61.8125 72.90625 
L 76.515625 72.90625 
L 76.515625 0 
L 66.890625 0 
L 66.890625 64.015625 
L 48.09375 14.015625 
L 38.1875 14.015625 
L 19.390625 64.015625 
L 19.390625 0 
L 9.8125 0 
z
" id="DejaVuSans-77"/>
       <path d="M 34.1875 63.1875 
L 20.796875 26.90625 
L 47.609375 26.90625 
z
M 28.609375 72.90625 
L 39.796875 72.90625 
L 67.578125 0 
L 57.328125 0 
L 50.6875 18.703125 
L 17.828125 18.703125 
L 11.1875 0 
L 0.78125 0 
z
" id="DejaVuSans-65"/>
      </defs>
      <use xlink:href="#DejaVuSans-77"/>
      <use x="86.279297" xlink:href="#DejaVuSans-65"/>
     </g>
    </g>
    <g id="line2d_27">
     <path d="M 66.6 98.604813 
L 86.6 98.604813 
" style="fill:none;stroke:#d62728;stroke-linecap:square;stroke-width:1.5;"/>
    </g>
    <g id="line2d_28"/>
    <g id="text_21">
     <!-- BTC-USD -->
     <g transform="translate(94.6 102.104813)scale(0.1 -0.1)">
      <defs>
       <path d="M -0.296875 72.90625 
L 61.375 72.90625 
L 61.375 64.59375 
L 35.5 64.59375 
L 35.5 0 
L 25.59375 0 
L 25.59375 64.59375 
L -0.296875 64.59375 
z
" id="DejaVuSans-84"/>
       <path d="M 64.40625 67.28125 
L 64.40625 56.890625 
Q 59.421875 61.53125 53.78125 63.8125 
Q 48.140625 66.109375 41.796875 66.109375 
Q 29.296875 66.109375 22.65625 58.46875 
Q 16.015625 50.828125 16.015625 36.375 
Q 16.015625 21.96875 22.65625 14.328125 
Q 29.296875 6.6875 41.796875 6.6875 
Q 48.140625 6.6875 53.78125 8.984375 
Q 59.421875 11.28125 64.40625 15.921875 
L 64.40625 5.609375 
Q 59.234375 2.09375 53.4375 0.328125 
Q 47.65625 -1.421875 41.21875 -1.421875 
Q 24.65625 -1.421875 15.125 8.703125 
Q 5.609375 18.84375 5.609375 36.375 
Q 5.609375 53.953125 15.125 64.078125 
Q 24.65625 74.21875 41.21875 74.21875 
Q 47.75 74.21875 53.53125 72.484375 
Q 59.328125 70.75 64.40625 67.28125 
z
" id="DejaVuSans-67"/>
       <path d="M 53.515625 70.515625 
L 53.515625 60.890625 
Q 47.90625 63.578125 42.921875 64.890625 
Q 37.9375 66.21875 33.296875 66.21875 
Q 25.25 66.21875 20.875 63.09375 
Q 16.5 59.96875 16.5 54.203125 
Q 16.5 49.359375 19.40625 46.890625 
Q 22.3125 44.4375 30.421875 42.921875 
L 36.375 41.703125 
Q 47.40625 39.59375 52.65625 34.296875 
Q 57.90625 29 57.90625 20.125 
Q 57.90625 9.515625 50.796875 4.046875 
Q 43.703125 -1.421875 29.984375 -1.421875 
Q 24.8125 -1.421875 18.96875 -0.25 
Q 13.140625 0.921875 6.890625 3.21875 
L 6.890625 13.375 
Q 12.890625 10.015625 18.65625 8.296875 
Q 24.421875 6.59375 29.984375 6.59375 
Q 38.421875 6.59375 43.015625 9.90625 
Q 47.609375 13.234375 47.609375 19.390625 
Q 47.609375 24.75 44.3125 27.78125 
Q 41.015625 30.8125 33.5 32.328125 
L 27.484375 33.5 
Q 16.453125 35.6875 11.515625 40.375 
Q 6.59375 45.0625 6.59375 53.421875 
Q 6.59375 63.09375 13.40625 68.65625 
Q 20.21875 74.21875 32.171875 74.21875 
Q 37.3125 74.21875 42.625 73.28125 
Q 47.953125 72.359375 53.515625 70.515625 
z
" id="DejaVuSans-83"/>
      </defs>
      <use xlink:href="#DejaVuSans-66"/>
      <use x="68.603516" xlink:href="#DejaVuSans-84"/>
      <use x="123.8125" xlink:href="#DejaVuSans-67"/>
      <use x="193.636719" xlink:href="#DejaVuSans-45"/>
      <use x="229.720703" xlink:href="#DejaVuSans-85"/>
      <use x="302.914062" xlink:href="#DejaVuSans-83"/>
      <use x="366.390625" xlink:href="#DejaVuSans-68"/>
     </g>
    </g>
   </g>
  </g>
  <g id="text_22">
   <!-- Bollinger Band -->
   <g transform="translate(171.90625 19.0695)scale(0.16 -0.16)">
    <defs>
     <path d="M 9.421875 75.984375 
L 18.40625 75.984375 
L 18.40625 0 
L 9.421875 0 
z
" id="DejaVuSans-108"/>
     <path d="M 45.40625 27.984375 
Q 45.40625 37.75 41.375 43.109375 
Q 37.359375 48.484375 30.078125 48.484375 
Q 22.859375 48.484375 18.828125 43.109375 
Q 14.796875 37.75 14.796875 27.984375 
Q 14.796875 18.265625 18.828125 12.890625 
Q 22.859375 7.515625 30.078125 7.515625 
Q 37.359375 7.515625 41.375 12.890625 
Q 45.40625 18.265625 45.40625 27.984375 
z
M 54.390625 6.78125 
Q 54.390625 -7.171875 48.1875 -13.984375 
Q 42 -20.796875 29.203125 -20.796875 
Q 24.46875 -20.796875 20.265625 -20.09375 
Q 16.0625 -19.390625 12.109375 -17.921875 
L 12.109375 -9.1875 
Q 16.0625 -11.328125 19.921875 -12.34375 
Q 23.78125 -13.375 27.78125 -13.375 
Q 36.625 -13.375 41.015625 -8.765625 
Q 45.40625 -4.15625 45.40625 5.171875 
L 45.40625 9.625 
Q 42.625 4.78125 38.28125 2.390625 
Q 33.9375 0 27.875 0 
Q 17.828125 0 11.671875 7.65625 
Q 5.515625 15.328125 5.515625 27.984375 
Q 5.515625 40.671875 11.671875 48.328125 
Q 17.828125 56 27.875 56 
Q 33.9375 56 38.28125 53.609375 
Q 42.625 51.21875 45.40625 46.390625 
L 45.40625 54.6875 
L 54.390625 54.6875 
z
" id="DejaVuSans-103"/>
    </defs>
    <use xlink:href="#DejaVuSans-66"/>
    <use x="68.603516" xlink:href="#DejaVuSans-111"/>
    <use x="129.785156" xlink:href="#DejaVuSans-108"/>
    <use x="157.568359" xlink:href="#DejaVuSans-108"/>
    <use x="185.351562" xlink:href="#DejaVuSans-105"/>
    <use x="213.134766" xlink:href="#DejaVuSans-110"/>
    <use x="276.513672" xlink:href="#DejaVuSans-103"/>
    <use x="339.990234" xlink:href="#DejaVuSans-101"/>
    <use x="401.513672" xlink:href="#DejaVuSans-114"/>
    <use x="442.626953" xlink:href="#DejaVuSans-32"/>
    <use x="474.414062" xlink:href="#DejaVuSans-66"/>
    <use x="543.017578" xlink:href="#DejaVuSans-97"/>
    <use x="604.296875" xlink:href="#DejaVuSans-110"/>
    <use x="667.675781" xlink:href="#DejaVuSans-100"/>
   </g>
  </g>
 </g>
 <defs>
  <clipPath id="p634a8831d5">
   <rect height="266.112" width="357.12" x="57.6" y="41.472"/>
  </clipPath>
 </defs>
</svg>
