<?xml version="1.0" encoding="utf-8" standalone="no"?>
<!DOCTYPE svg PUBLIC "-//W3C//DTD SVG 1.1//EN"
  "http://www.w3.org/Graphics/SVG/1.1/DTD/svg11.dtd">
<!-- Created with matplotlib (https://matplotlib.org/) -->
<svg height="345.6pt" version="1.1" viewBox="0 0 460.8 345.6" width="460.8pt" xmlns="http://www.w3.org/2000/svg" xmlns:xlink="http://www.w3.org/1999/xlink">
 <metadata>
  <rdf:RDF xmlns:cc="http://creativecommons.org/ns#" xmlns:dc="http://purl.org/dc/elements/1.1/" xmlns:rdf="http://www.w3.org/1999/02/22-rdf-syntax-ns#">
   <cc:Work>
    <dc:type rdf:resource="http://purl.org/dc/dcmitype/StillImage"/>
    <dc:date>2020-12-30T13:13:05.705174</dc:date>
    <dc:format>image/svg+xml</dc:format>
    <dc:creator>
     <cc:Agent>
      <dc:title>Matplotlib v3.3.2, https://matplotlib.org/</dc:title>
     </cc:Agent>
    </dc:creator>
   </cc:Work>
  </rdf:RDF>
 </metadata>
 <defs>
  <style type="text/css">*{stroke-linecap:butt;stroke-linejoin:round;}</style>
 </defs>
 <g id="figure_1">
  <g id="patch_1">
   <path d="M 0 345.6 
L 460.8 345.6 
L 460.8 0 
L 0 0 
z
" style="fill:#ffffff;"/>
  </g>
  <g id="axes_1">
   <g id="patch_2">
    <path d="M 57.6 307.584 
L 414.72 307.584 
L 414.72 41.472 
L 57.6 41.472 
z
" style="fill:#ffffff;"/>
   </g>
   <g id="PolyCollection_1">
    <defs>
     <path d="M 90.825665 -80.402732 
L 90.825665 -104.546899 
L 91.72003 -104.83706 
L 92.614395 -104.416464 
L 93.50876 -104.053698 
L 94.403125 -103.518411 
L 95.297491 -102.626911 
L 96.191856 -102.408968 
L 97.086221 -102.896378 
L 97.980586 -104.295155 
L 98.874951 -104.833767 
L 99.769316 -106.116986 
L 100.663681 -106.583489 
L 101.558047 -107.129762 
L 102.452412 -107.263117 
L 103.346777 -107.698536 
L 104.241142 -107.946802 
L 105.135507 -108.880095 
L 106.029872 -109.974613 
L 106.924237 -111.056196 
L 107.818603 -112.156036 
L 108.712968 -113.610088 
L 109.607333 -114.288534 
L 110.501698 -115.56322 
L 111.396063 -116.457071 
L 112.290428 -116.840128 
L 113.184793 -116.904317 
L 114.079159 -116.365077 
L 114.973524 -116.090517 
L 115.867889 -116.076803 
L 116.762254 -116.411124 
L 117.656619 -116.393785 
L 118.550984 -116.276171 
L 119.445349 -116.172924 
L 120.339715 -115.989617 
L 121.23408 -115.801318 
L 122.128445 -115.1906 
L 123.02281 -115.538069 
L 123.917175 -116.853456 
L 124.81154 -117.634825 
L 125.705905 -118.241687 
L 126.60027 -118.542068 
L 127.494636 -118.888501 
L 128.389001 -118.151553 
L 129.283366 -117.187444 
L 130.177731 -116.248657 
L 131.072096 -114.747693 
L 131.966461 -114.040882 
L 132.860826 -113.197987 
L 133.755192 -113.360392 
L 134.649557 -112.33956 
L 135.543922 -112.231614 
L 136.438287 -111.765773 
L 137.332652 -117.917055 
L 138.227017 -119.140784 
L 139.121382 -119.567578 
L 140.015748 -119.234147 
L 140.910113 -119.139905 
L 141.804478 -118.802424 
L 142.698843 -117.951233 
L 143.593208 -116.552478 
L 144.487573 -115.197847 
L 145.381938 -113.667469 
L 146.276304 -111.351492 
L 147.170669 -109.039611 
L 148.065034 -106.618597 
L 148.959399 -103.219432 
L 149.853764 -99.117923 
L 150.748129 -95.111742 
L 151.642494 -92.584599 
L 152.53686 -89.849232 
L 153.431225 -87.261026 
L 154.32559 -83.876395 
L 155.219955 -84.009016 
L 156.11432 -84.860749 
L 157.008685 -85.025645 
L 157.90305 -85.38117 
L 158.797415 -84.730287 
L 159.691781 -85.204711 
L 160.586146 -85.505296 
L 161.480511 -86.528067 
L 162.374876 -87.337865 
L 163.269241 -87.435134 
L 164.163606 -86.796948 
L 165.057971 -87.168872 
L 165.952337 -87.167455 
L 166.846702 -87.251692 
L 167.741067 -87.255575 
L 168.635432 -87.482381 
L 169.529797 -87.424344 
L 170.424162 -86.5105 
L 171.318527 -86.600396 
L 172.212893 -86.239877 
L 173.107258 -86.132798 
L 174.001623 -86.244241 
L 174.895988 -87.040466 
L 175.790353 -87.640759 
L 176.684718 -88.287124 
L 177.579083 -88.786492 
L 178.473449 -89.333662 
L 179.367814 -89.965608 
L 180.262179 -91.998165 
L 181.156544 -95.101047 
L 182.050909 -97.56106 
L 182.945274 -99.961761 
L 183.839639 -101.66364 
L 184.734005 -103.095242 
L 185.62837 -104.312521 
L 186.522735 -106.204529 
L 187.4171 -108.041478 
L 188.311465 -111.004412 
L 189.20583 -112.864338 
L 190.100195 -112.460877 
L 190.99456 -112.040926 
L 191.888926 -111.584043 
L 192.783291 -111.745288 
L 193.677656 -112.306633 
L 194.572021 -112.570815 
L 195.466386 -112.413517 
L 196.360751 -112.468267 
L 197.255116 -111.860174 
L 198.149482 -112.128823 
L 199.043847 -112.678526 
L 199.938212 -112.666506 
L 200.832577 -112.629581 
L 201.726942 -112.533379 
L 202.621307 -112.396827 
L 203.515672 -112.49367 
L 204.410038 -112.558606 
L 205.304403 -112.508857 
L 206.198768 -111.510791 
L 207.093133 -111.104097 
L 207.987498 -110.838636 
L 208.881863 -110.940745 
L 209.776228 -110.800442 
L 210.670594 -112.029521 
L 211.564959 -112.04115 
L 212.459324 -112.045871 
L 213.353689 -112.46429 
L 214.248054 -112.338335 
L 215.142419 -112.322645 
L 216.036784 -112.237154 
L 216.93115 -112.098328 
L 217.825515 -112.401144 
L 218.71988 -112.744328 
L 219.614245 -112.751622 
L 220.50861 -112.736957 
L 221.402975 -112.15907 
L 222.29734 -111.756316 
L 223.191705 -111.166897 
L 224.086071 -110.978466 
L 224.980436 -110.978744 
L 225.874801 -111.078473 
L 226.769166 -111.123656 
L 227.663531 -111.126861 
L 228.557896 -109.932064 
L 229.452261 -109.929673 
L 230.346627 -109.920639 
L 231.240992 -109.496201 
L 232.135357 -109.466565 
L 233.029722 -109.396279 
L 233.924087 -109.278255 
L 234.818452 -109.027915 
L 235.712817 -108.524685 
L 236.607183 -107.704536 
L 237.501548 -107.524053 
L 238.395913 -107.422062 
L 239.290278 -107.30707 
L 240.184643 -107.334629 
L 241.079008 -107.04673 
L 241.973373 -106.786694 
L 242.867739 -106.569305 
L 243.762104 -106.717208 
L 244.656469 -106.643009 
L 245.550834 -106.582376 
L 246.445199 -106.286852 
L 247.339564 -105.621079 
L 248.233929 -105.012479 
L 249.128295 -104.946977 
L 250.02266 -104.948931 
L 250.917025 -104.946077 
L 251.81139 -104.822113 
L 252.705755 -104.80537 
L 253.60012 -104.811175 
L 254.494485 -104.826754 
L 255.38885 -105.044697 
L 256.283216 -105.617156 
L 257.177581 -106.145891 
L 258.071946 -106.708542 
L 258.966311 -107.520271 
L 259.860676 -110.162996 
L 260.755041 -114.469596 
L 261.649406 -117.475051 
L 262.543772 -120.094139 
L 263.438137 -122.222043 
L 264.332502 -124.796304 
L 265.226867 -126.86526 
L 266.121232 -128.348021 
L 267.015597 -129.79963 
L 267.909962 -130.847395 
L 268.804328 -132.686842 
L 269.698693 -134.20528 
L 270.593058 -134.916956 
L 271.487423 -135.470617 
L 272.381788 -136.233398 
L 273.276153 -136.441783 
L 274.170518 -135.870944 
L 275.064884 -135.146246 
L 275.959249 -134.158371 
L 276.853614 -132.729974 
L 277.747979 -132.081222 
L 278.642344 -132.30149 
L 279.536709 -133.358992 
L 280.431074 -133.465908 
L 281.32544 -133.295546 
L 282.219805 -133.247571 
L 283.11417 -133.165283 
L 284.008535 -132.842357 
L 284.9029 -132.637859 
L 285.797265 -132.395783 
L 286.69163 -132.412407 
L 287.585995 -132.514815 
L 288.480361 -132.537541 
L 289.374726 -132.532565 
L 290.269091 -132.15593 
L 291.163456 -132.031412 
L 292.057821 -132.236221 
L 292.952186 -132.317545 
L 293.846551 -132.427664 
L 294.740917 -134.463074 
L 295.635282 -135.144644 
L 296.529647 -136.073819 
L 297.424012 -135.611031 
L 298.318377 -135.340493 
L 299.212742 -135.291732 
L 300.107107 -135.033162 
L 301.001473 -134.507029 
L 301.895838 -133.926736 
L 302.790203 -133.069644 
L 303.684568 -132.592715 
L 304.578933 -132.016995 
L 305.473298 -131.74984 
L 306.367663 -131.148277 
L 307.262029 -130.454609 
L 308.156394 -129.543566 
L 309.050759 -128.330055 
L 309.945124 -125.921569 
L 310.839489 -123.512909 
L 311.733854 -122.269013 
L 312.628219 -122.392809 
L 313.522585 -122.566566 
L 314.41695 -122.567191 
L 315.311315 -122.556368 
L 316.20568 -122.74065 
L 317.100045 -122.339166 
L 317.99441 -122.272798 
L 318.888775 -122.162061 
L 319.78314 -122.090735 
L 320.677506 -121.848055 
L 321.571871 -121.844932 
L 322.466236 -121.784569 
L 323.360601 -121.335316 
L 324.254966 -121.034395 
L 325.149331 -120.967109 
L 326.043696 -121.006822 
L 326.938062 -122.131368 
L 327.832427 -123.347397 
L 328.726792 -124.790564 
L 329.621157 -125.404798 
L 330.515522 -126.183764 
L 331.409887 -127.028013 
L 332.304252 -127.442219 
L 333.198618 -127.873468 
L 334.092983 -128.499433 
L 334.987348 -129.503688 
L 335.881713 -130.701081 
L 336.776078 -134.09217 
L 337.670443 -137.160391 
L 338.564808 -139.439897 
L 339.459174 -141.791199 
L 340.353539 -143.565495 
L 341.247904 -144.886467 
L 342.142269 -147.126691 
L 343.036634 -148.35256 
L 343.930999 -149.743644 
L 344.825364 -151.205037 
L 345.71973 -152.853532 
L 346.614095 -154.234136 
L 347.50846 -154.938327 
L 348.402825 -156.120892 
L 349.29719 -157.24268 
L 350.191555 -161.151355 
L 351.08592 -164.073101 
L 351.980285 -164.738467 
L 352.874651 -166.49037 
L 353.769016 -167.464322 
L 354.663381 -168.937874 
L 355.557746 -170.969513 
L 356.452111 -173.843497 
L 357.346476 -176.352806 
L 358.240841 -177.796585 
L 359.135207 -178.666615 
L 360.029572 -181.057465 
L 360.923937 -184.822715 
L 361.818302 -188.173218 
L 362.712667 -190.926338 
L 363.607032 -195.213456 
L 364.501397 -198.564995 
L 365.395763 -200.203157 
L 366.290128 -201.592305 
L 367.184493 -203.992268 
L 368.078858 -206.170401 
L 368.973223 -206.239612 
L 369.867588 -205.427282 
L 370.761953 -205.439205 
L 371.656319 -205.440537 
L 372.550684 -207.576214 
L 373.445049 -207.815477 
L 374.339414 -209.002803 
L 375.233779 -210.192599 
L 376.128144 -209.411113 
L 377.022509 -208.294645 
L 377.916875 -208.269119 
L 378.81124 -208.781684 
L 379.705605 -208.638688 
L 380.59997 -208.530261 
L 381.494335 -208.426736 
L 382.3887 -208.329633 
L 383.283065 -208.53071 
L 384.177431 -209.083877 
L 385.071796 -209.231265 
L 385.966161 -210.000564 
L 386.860526 -214.537966 
L 387.754891 -222.711145 
L 388.649256 -230.195315 
L 389.543621 -238.29309 
L 390.437986 -243.927412 
L 391.332352 -247.394682 
L 392.226717 -252.625586 
L 393.121082 -256.090078 
L 394.015447 -259.809698 
L 394.909812 -264.983953 
L 395.804177 -273.256207 
L 396.698542 -279.697235 
L 397.592908 -286.126398 
L 398.487273 -292.032 
L 398.487273 -175.978687 
L 398.487273 -175.978687 
L 397.592908 -173.322673 
L 396.698542 -171.268779 
L 395.804177 -170.8383 
L 394.909812 -172.242591 
L 394.015447 -172.017346 
L 393.121082 -170.802173 
L 392.226717 -170.590306 
L 391.332352 -171.354522 
L 390.437986 -171.005061 
L 389.543621 -172.990116 
L 388.649256 -175.601918 
L 387.754891 -177.836958 
L 386.860526 -180.507411 
L 385.966161 -180.990369 
L 385.071796 -181.058202 
L 384.177431 -181.095063 
L 383.283065 -180.882519 
L 382.3887 -180.706549 
L 381.494335 -181.249375 
L 380.59997 -181.553993 
L 379.705605 -180.726744 
L 378.81124 -180.061019 
L 377.916875 -179.105412 
L 377.022509 -176.486019 
L 376.128144 -172.266297 
L 375.233779 -168.973058 
L 374.339414 -167.127466 
L 373.445049 -165.468859 
L 372.550684 -162.703154 
L 371.656319 -160.563255 
L 370.761953 -157.780449 
L 369.867588 -155.604799 
L 368.973223 -152.542766 
L 368.078858 -151.061671 
L 367.184493 -150.194622 
L 366.290128 -147.727671 
L 365.395763 -144.883784 
L 364.501397 -141.797241 
L 363.607032 -140.347941 
L 362.712667 -139.88891 
L 361.818302 -138.508984 
L 360.923937 -137.651219 
L 360.029572 -137.135805 
L 359.135207 -136.528316 
L 358.240841 -134.576518 
L 357.346476 -133.065878 
L 356.452111 -132.458694 
L 355.557746 -132.062823 
L 354.663381 -131.449488 
L 353.769016 -130.488876 
L 352.874651 -128.14338 
L 351.980285 -126.265452 
L 351.08592 -123.693986 
L 350.191555 -122.510961 
L 349.29719 -122.267247 
L 348.402825 -120.812518 
L 347.50846 -119.465613 
L 346.614095 -118.092897 
L 345.71973 -117.315782 
L 344.825364 -116.609913 
L 343.930999 -115.870174 
L 343.036634 -114.92992 
L 342.142269 -113.841387 
L 341.247904 -113.169704 
L 340.353539 -112.079622 
L 339.459174 -111.633158 
L 338.564808 -111.584847 
L 337.670443 -111.5439 
L 336.776078 -112.257136 
L 335.881713 -113.522541 
L 334.987348 -113.570549 
L 334.092983 -113.607482 
L 333.198618 -113.597264 
L 332.304252 -113.427679 
L 331.409887 -113.273664 
L 330.515522 -113.35762 
L 329.621157 -113.399208 
L 328.726792 -112.872768 
L 327.832427 -113.329416 
L 326.938062 -113.717537 
L 326.043696 -114.402737 
L 325.149331 -114.428195 
L 324.254966 -114.39626 
L 323.360601 -114.378801 
L 322.466236 -114.361282 
L 321.571871 -114.372039 
L 320.677506 -114.388068 
L 319.78314 -113.909985 
L 318.888775 -113.711242 
L 317.99441 -113.361111 
L 317.100045 -112.905033 
L 316.20568 -111.791592 
L 315.311315 -111.4442 
L 314.41695 -110.861099 
L 313.522585 -110.247786 
L 312.628219 -110.13982 
L 311.733854 -109.893563 
L 310.839489 -109.664265 
L 309.945124 -108.485877 
L 309.050759 -107.476433 
L 308.156394 -107.066018 
L 307.262029 -106.746623 
L 306.367663 -106.618322 
L 305.473298 -106.547103 
L 304.578933 -106.541404 
L 303.684568 -106.577949 
L 302.790203 -106.780525 
L 301.895838 -107.315605 
L 301.001473 -107.878605 
L 300.107107 -108.611492 
L 299.212742 -109.56139 
L 298.318377 -111.265216 
L 297.424012 -112.55319 
L 296.529647 -114.195153 
L 295.635282 -116.823078 
L 294.740917 -118.933679 
L 293.846551 -122.528683 
L 292.952186 -123.083042 
L 292.057821 -122.94001 
L 291.163456 -122.539478 
L 290.269091 -122.564911 
L 289.374726 -122.53198 
L 288.480361 -122.674307 
L 287.585995 -122.78097 
L 286.69163 -123.394292 
L 285.797265 -123.739753 
L 284.9029 -123.342765 
L 284.008535 -122.682931 
L 283.11417 -121.925063 
L 282.219805 -121.479547 
L 281.32544 -121.208794 
L 280.431074 -120.251939 
L 279.536709 -119.517292 
L 278.642344 -119.266238 
L 277.747979 -118.638923 
L 276.853614 -116.425907 
L 275.959249 -112.873127 
L 275.064884 -109.785968 
L 274.170518 -107.095405 
L 273.276153 -104.743767 
L 272.381788 -102.543916 
L 271.487423 -100.5789 
L 270.593058 -98.718712 
L 269.698693 -97.083363 
L 268.804328 -95.9876 
L 267.909962 -95.224919 
L 267.015597 -94.226497 
L 266.121232 -93.672106 
L 265.226867 -93.245991 
L 264.332502 -93.3627 
L 263.438137 -93.918081 
L 262.543772 -94.345883 
L 261.649406 -95.107906 
L 260.755041 -96.577486 
L 259.860676 -99.224575 
L 258.966311 -100.860223 
L 258.071946 -101.176908 
L 257.177581 -101.227386 
L 256.283216 -101.307529 
L 255.38885 -101.474619 
L 254.494485 -101.539504 
L 253.60012 -101.503944 
L 252.705755 -101.46987 
L 251.81139 -101.394792 
L 250.917025 -101.126101 
L 250.02266 -101.164202 
L 249.128295 -101.177077 
L 248.233929 -101.169948 
L 247.339564 -100.860898 
L 246.445199 -100.484129 
L 245.550834 -100.379148 
L 244.656469 -100.377936 
L 243.762104 -100.466494 
L 242.867739 -100.490157 
L 241.973373 -100.435891 
L 241.079008 -100.379451 
L 240.184643 -100.37125 
L 239.290278 -100.459067 
L 238.395913 -100.673404 
L 237.501548 -100.899702 
L 236.607183 -100.987814 
L 235.712817 -100.793777 
L 234.818452 -100.861317 
L 233.924087 -101.168265 
L 233.029722 -101.769086 
L 232.135357 -102.143646 
L 231.240992 -102.651249 
L 230.346627 -102.774243 
L 229.452261 -102.783937 
L 228.557896 -102.784206 
L 227.663531 -102.233084 
L 226.769166 -102.455994 
L 225.874801 -102.728005 
L 224.980436 -103.094957 
L 224.086071 -103.09632 
L 223.191705 -102.648425 
L 222.29734 -101.5067 
L 221.402975 -100.844959 
L 220.50861 -99.639009 
L 219.614245 -99.401299 
L 218.71988 -99.127308 
L 217.825515 -98.867583 
L 216.93115 -98.785226 
L 216.036784 -98.746848 
L 215.142419 -98.719133 
L 214.248054 -98.718036 
L 213.353689 -98.684872 
L 212.459324 -98.741609 
L 211.564959 -98.740536 
L 210.670594 -98.74062 
L 209.776228 -98.960505 
L 208.881863 -98.007826 
L 207.987498 -97.440493 
L 207.093133 -96.119074 
L 206.198768 -95.996907 
L 205.304403 -95.756459 
L 204.410038 -96.147337 
L 203.515672 -96.579932 
L 202.621307 -96.797376 
L 201.726942 -96.269941 
L 200.832577 -95.815883 
L 199.938212 -95.500362 
L 199.043847 -94.940035 
L 198.149482 -94.48623 
L 197.255116 -93.279665 
L 196.360751 -90.81099 
L 195.466386 -88.821911 
L 194.572021 -86.852667 
L 193.677656 -85.244017 
L 192.783291 -83.78203 
L 191.888926 -82.442813 
L 190.99456 -80.436969 
L 190.100195 -78.070954 
L 189.20583 -76.14087 
L 188.311465 -75.500271 
L 187.4171 -75.777933 
L 186.522735 -75.387807 
L 185.62837 -75.146115 
L 184.734005 -74.249126 
L 183.839639 -73.81639 
L 182.945274 -73.518031 
L 182.050909 -74.2181 
L 181.156544 -74.773631 
L 180.262179 -76.09532 
L 179.367814 -77.195348 
L 178.473449 -77.454672 
L 177.579083 -77.696345 
L 176.684718 -77.899084 
L 175.790353 -77.747672 
L 174.895988 -77.735051 
L 174.001623 -77.736534 
L 173.107258 -77.551436 
L 172.212893 -77.264516 
L 171.318527 -76.469731 
L 170.424162 -75.97409 
L 169.529797 -73.752075 
L 168.635432 -72.857044 
L 167.741067 -72.736433 
L 166.846702 -72.723582 
L 165.952337 -72.615772 
L 165.057971 -72.617971 
L 164.163606 -72.357011 
L 163.269241 -70.735822 
L 162.374876 -70.14006 
L 161.480511 -69.871551 
L 160.586146 -69.764897 
L 159.691781 -68.169536 
L 158.797415 -66.736429 
L 157.90305 -64.397624 
L 157.008685 -63.281285 
L 156.11432 -61.930636 
L 155.219955 -61.611505 
L 154.32559 -60.033892 
L 153.431225 -58.109804 
L 152.53686 -56.815971 
L 151.642494 -56.087164 
L 150.748129 -55.334252 
L 149.853764 -53.475486 
L 148.959399 -51.762653 
L 148.065034 -50.68442 
L 147.170669 -50.210289 
L 146.276304 -50.112 
L 145.381938 -50.833996 
L 144.487573 -51.582781 
L 143.593208 -52.496755 
L 142.698843 -53.564694 
L 141.804478 -56.026207 
L 140.910113 -59.04819 
L 140.015748 -63.108484 
L 139.121382 -66.962992 
L 138.227017 -72.050924 
L 137.332652 -77.2035 
L 136.438287 -88.006698 
L 135.543922 -89.152123 
L 134.649557 -90.692523 
L 133.755192 -91.852385 
L 132.860826 -93.625814 
L 131.966461 -93.775523 
L 131.072096 -93.786589 
L 130.177731 -93.53433 
L 129.283366 -94.018116 
L 128.389001 -94.590973 
L 127.494636 -95.15757 
L 126.60027 -96.780902 
L 125.705905 -98.660195 
L 124.81154 -100.417026 
L 123.917175 -102.163528 
L 123.02281 -104.413318 
L 122.128445 -105.052156 
L 121.23408 -103.965399 
L 120.339715 -103.11394 
L 119.445349 -102.604939 
L 118.550984 -102.203112 
L 117.656619 -101.831397 
L 116.762254 -101.7316 
L 115.867889 -101.194767 
L 114.973524 -100.876721 
L 114.079159 -99.605233 
L 113.184793 -97.800945 
L 112.290428 -95.900203 
L 111.396063 -94.53827 
L 110.501698 -93.529308 
L 109.607333 -93.242396 
L 108.712968 -92.826211 
L 107.818603 -92.791725 
L 106.924237 -92.724968 
L 106.029872 -92.923712 
L 105.135507 -93.181244 
L 104.241142 -93.242338 
L 103.346777 -93.133693 
L 102.452412 -93.098016 
L 101.558047 -92.037032 
L 100.663681 -91.406307 
L 99.769316 -90.579132 
L 98.874951 -90.578643 
L 97.980586 -89.683645 
L 97.086221 -89.768612 
L 96.191856 -89.532429 
L 95.297491 -88.496354 
L 94.403125 -86.65064 
L 93.50876 -85.063998 
L 92.614395 -83.683997 
L 91.72003 -81.610007 
L 90.825665 -80.402732 
z
" id="m84529897e3" style="stroke:#4b0082;stroke-opacity:0.3;"/>
    </defs>
    <g clip-path="url(#p0023b96424)">
     <use style="fill:#4b0082;fill-opacity:0.3;stroke:#4b0082;stroke-opacity:0.3;" x="0" xlink:href="#m84529897e3" y="345.6"/>
    </g>
   </g>
   <g id="matplotlib.axis_1">
    <g id="xtick_1">
     <g id="line2d_1">
      <defs>
       <path d="M 0 0 
L 0 3.5 
" id="m6aaa9c678e" style="stroke:#000000;stroke-width:0.8;"/>
      </defs>
      <g>
       <use style="stroke:#000000;stroke-width:0.8;" x="73.832727" xlink:href="#m6aaa9c678e" y="307.584"/>
      </g>
     </g>
     <g id="text_1">
      <!-- 2020-01 -->
      <g transform="translate(52.941321 322.182437)scale(0.1 -0.1)">
       <defs>
        <path d="M 19.1875 8.296875 
L 53.609375 8.296875 
L 53.609375 0 
L 7.328125 0 
L 7.328125 8.296875 
Q 12.9375 14.109375 22.625 23.890625 
Q 32.328125 33.6875 34.8125 36.53125 
Q 39.546875 41.84375 41.421875 45.53125 
Q 43.3125 49.21875 43.3125 52.78125 
Q 43.3125 58.59375 39.234375 62.25 
Q 35.15625 65.921875 28.609375 65.921875 
Q 23.96875 65.921875 18.8125 64.3125 
Q 13.671875 62.703125 7.8125 59.421875 
L 7.8125 69.390625 
Q 13.765625 71.78125 18.9375 73 
Q 24.125 74.21875 28.421875 74.21875 
Q 39.75 74.21875 46.484375 68.546875 
Q 53.21875 62.890625 53.21875 53.421875 
Q 53.21875 48.921875 51.53125 44.890625 
Q 49.859375 40.875 45.40625 35.40625 
Q 44.1875 33.984375 37.640625 27.21875 
Q 31.109375 20.453125 19.1875 8.296875 
z
" id="DejaVuSans-50"/>
        <path d="M 31.78125 66.40625 
Q 24.171875 66.40625 20.328125 58.90625 
Q 16.5 51.421875 16.5 36.375 
Q 16.5 21.390625 20.328125 13.890625 
Q 24.171875 6.390625 31.78125 6.390625 
Q 39.453125 6.390625 43.28125 13.890625 
Q 47.125 21.390625 47.125 36.375 
Q 47.125 51.421875 43.28125 58.90625 
Q 39.453125 66.40625 31.78125 66.40625 
z
M 31.78125 74.21875 
Q 44.046875 74.21875 50.515625 64.515625 
Q 56.984375 54.828125 56.984375 36.375 
Q 56.984375 17.96875 50.515625 8.265625 
Q 44.046875 -1.421875 31.78125 -1.421875 
Q 19.53125 -1.421875 13.0625 8.265625 
Q 6.59375 17.96875 6.59375 36.375 
Q 6.59375 54.828125 13.0625 64.515625 
Q 19.53125 74.21875 31.78125 74.21875 
z
" id="DejaVuSans-48"/>
        <path d="M 4.890625 31.390625 
L 31.203125 31.390625 
L 31.203125 23.390625 
L 4.890625 23.390625 
z
" id="DejaVuSans-45"/>
        <path d="M 12.40625 8.296875 
L 28.515625 8.296875 
L 28.515625 63.921875 
L 10.984375 60.40625 
L 10.984375 69.390625 
L 28.421875 72.90625 
L 38.28125 72.90625 
L 38.28125 8.296875 
L 54.390625 8.296875 
L 54.390625 0 
L 12.40625 0 
z
" id="DejaVuSans-49"/>
       </defs>
       <use xlink:href="#DejaVuSans-50"/>
       <use x="63.623047" xlink:href="#DejaVuSans-48"/>
       <use x="127.246094" xlink:href="#DejaVuSans-50"/>
       <use x="190.869141" xlink:href="#DejaVuSans-48"/>
       <use x="254.492188" xlink:href="#DejaVuSans-45"/>
       <use x="290.576172" xlink:href="#DejaVuSans-48"/>
       <use x="354.199219" xlink:href="#DejaVuSans-49"/>
      </g>
     </g>
    </g>
    <g id="xtick_2">
     <g id="line2d_2">
      <g>
       <use style="stroke:#000000;stroke-width:0.8;" x="127.494636" xlink:href="#m6aaa9c678e" y="307.584"/>
      </g>
     </g>
     <g id="text_2">
      <!-- 2020-03 -->
      <g transform="translate(106.603229 322.182437)scale(0.1 -0.1)">
       <defs>
        <path d="M 40.578125 39.3125 
Q 47.65625 37.796875 51.625 33 
Q 55.609375 28.21875 55.609375 21.1875 
Q 55.609375 10.40625 48.1875 4.484375 
Q 40.765625 -1.421875 27.09375 -1.421875 
Q 22.515625 -1.421875 17.65625 -0.515625 
Q 12.796875 0.390625 7.625 2.203125 
L 7.625 11.71875 
Q 11.71875 9.328125 16.59375 8.109375 
Q 21.484375 6.890625 26.8125 6.890625 
Q 36.078125 6.890625 40.9375 10.546875 
Q 45.796875 14.203125 45.796875 21.1875 
Q 45.796875 27.640625 41.28125 31.265625 
Q 36.765625 34.90625 28.71875 34.90625 
L 20.21875 34.90625 
L 20.21875 43.015625 
L 29.109375 43.015625 
Q 36.375 43.015625 40.234375 45.921875 
Q 44.09375 48.828125 44.09375 54.296875 
Q 44.09375 59.90625 40.109375 62.90625 
Q 36.140625 65.921875 28.71875 65.921875 
Q 24.65625 65.921875 20.015625 65.03125 
Q 15.375 64.15625 9.8125 62.3125 
L 9.8125 71.09375 
Q 15.4375 72.65625 20.34375 73.4375 
Q 25.25 74.21875 29.59375 74.21875 
Q 40.828125 74.21875 47.359375 69.109375 
Q 53.90625 64.015625 53.90625 55.328125 
Q 53.90625 49.265625 50.4375 45.09375 
Q 46.96875 40.921875 40.578125 39.3125 
z
" id="DejaVuSans-51"/>
       </defs>
       <use xlink:href="#DejaVuSans-50"/>
       <use x="63.623047" xlink:href="#DejaVuSans-48"/>
       <use x="127.246094" xlink:href="#DejaVuSans-50"/>
       <use x="190.869141" xlink:href="#DejaVuSans-48"/>
       <use x="254.492188" xlink:href="#DejaVuSans-45"/>
       <use x="290.576172" xlink:href="#DejaVuSans-48"/>
       <use x="354.199219" xlink:href="#DejaVuSans-51"/>
      </g>
     </g>
    </g>
    <g id="xtick_3">
     <g id="line2d_3">
      <g>
       <use style="stroke:#000000;stroke-width:0.8;" x="182.050909" xlink:href="#m6aaa9c678e" y="307.584"/>
      </g>
     </g>
     <g id="text_3">
      <!-- 2020-05 -->
      <g transform="translate(161.159503 322.182437)scale(0.1 -0.1)">
       <defs>
        <path d="M 10.796875 72.90625 
L 49.515625 72.90625 
L 49.515625 64.59375 
L 19.828125 64.59375 
L 19.828125 46.734375 
Q 21.96875 47.46875 24.109375 47.828125 
Q 26.265625 48.1875 28.421875 48.1875 
Q 40.625 48.1875 47.75 41.5 
Q 54.890625 34.8125 54.890625 23.390625 
Q 54.890625 11.625 47.5625 5.09375 
Q 40.234375 -1.421875 26.90625 -1.421875 
Q 22.3125 -1.421875 17.546875 -0.640625 
Q 12.796875 0.140625 7.71875 1.703125 
L 7.71875 11.625 
Q 12.109375 9.234375 16.796875 8.0625 
Q 21.484375 6.890625 26.703125 6.890625 
Q 35.15625 6.890625 40.078125 11.328125 
Q 45.015625 15.765625 45.015625 23.390625 
Q 45.015625 31 40.078125 35.4375 
Q 35.15625 39.890625 26.703125 39.890625 
Q 22.75 39.890625 18.8125 39.015625 
Q 14.890625 38.140625 10.796875 36.28125 
z
" id="DejaVuSans-53"/>
       </defs>
       <use xlink:href="#DejaVuSans-50"/>
       <use x="63.623047" xlink:href="#DejaVuSans-48"/>
       <use x="127.246094" xlink:href="#DejaVuSans-50"/>
       <use x="190.869141" xlink:href="#DejaVuSans-48"/>
       <use x="254.492188" xlink:href="#DejaVuSans-45"/>
       <use x="290.576172" xlink:href="#DejaVuSans-48"/>
       <use x="354.199219" xlink:href="#DejaVuSans-53"/>
      </g>
     </g>
    </g>
    <g id="xtick_4">
     <g id="line2d_4">
      <g>
       <use style="stroke:#000000;stroke-width:0.8;" x="236.607183" xlink:href="#m6aaa9c678e" y="307.584"/>
      </g>
     </g>
     <g id="text_4">
      <!-- 2020-07 -->
      <g transform="translate(215.715776 322.182437)scale(0.1 -0.1)">
       <defs>
        <path d="M 8.203125 72.90625 
L 55.078125 72.90625 
L 55.078125 68.703125 
L 28.609375 0 
L 18.3125 0 
L 43.21875 64.59375 
L 8.203125 64.59375 
z
" id="DejaVuSans-55"/>
       </defs>
       <use xlink:href="#DejaVuSans-50"/>
       <use x="63.623047" xlink:href="#DejaVuSans-48"/>
       <use x="127.246094" xlink:href="#DejaVuSans-50"/>
       <use x="190.869141" xlink:href="#DejaVuSans-48"/>
       <use x="254.492188" xlink:href="#DejaVuSans-45"/>
       <use x="290.576172" xlink:href="#DejaVuSans-48"/>
       <use x="354.199219" xlink:href="#DejaVuSans-55"/>
      </g>
     </g>
    </g>
    <g id="xtick_5">
     <g id="line2d_5">
      <g>
       <use style="stroke:#000000;stroke-width:0.8;" x="292.057821" xlink:href="#m6aaa9c678e" y="307.584"/>
      </g>
     </g>
     <g id="text_5">
      <!-- 2020-09 -->
      <g transform="translate(271.166415 322.182437)scale(0.1 -0.1)">
       <defs>
        <path d="M 10.984375 1.515625 
L 10.984375 10.5 
Q 14.703125 8.734375 18.5 7.8125 
Q 22.3125 6.890625 25.984375 6.890625 
Q 35.75 6.890625 40.890625 13.453125 
Q 46.046875 20.015625 46.78125 33.40625 
Q 43.953125 29.203125 39.59375 26.953125 
Q 35.25 24.703125 29.984375 24.703125 
Q 19.046875 24.703125 12.671875 31.3125 
Q 6.296875 37.9375 6.296875 49.421875 
Q 6.296875 60.640625 12.9375 67.421875 
Q 19.578125 74.21875 30.609375 74.21875 
Q 43.265625 74.21875 49.921875 64.515625 
Q 56.59375 54.828125 56.59375 36.375 
Q 56.59375 19.140625 48.40625 8.859375 
Q 40.234375 -1.421875 26.421875 -1.421875 
Q 22.703125 -1.421875 18.890625 -0.6875 
Q 15.09375 0.046875 10.984375 1.515625 
z
M 30.609375 32.421875 
Q 37.25 32.421875 41.125 36.953125 
Q 45.015625 41.5 45.015625 49.421875 
Q 45.015625 57.28125 41.125 61.84375 
Q 37.25 66.40625 30.609375 66.40625 
Q 23.96875 66.40625 20.09375 61.84375 
Q 16.21875 57.28125 16.21875 49.421875 
Q 16.21875 41.5 20.09375 36.953125 
Q 23.96875 32.421875 30.609375 32.421875 
z
" id="DejaVuSans-57"/>
       </defs>
       <use xlink:href="#DejaVuSans-50"/>
       <use x="63.623047" xlink:href="#DejaVuSans-48"/>
       <use x="127.246094" xlink:href="#DejaVuSans-50"/>
       <use x="190.869141" xlink:href="#DejaVuSans-48"/>
       <use x="254.492188" xlink:href="#DejaVuSans-45"/>
       <use x="290.576172" xlink:href="#DejaVuSans-48"/>
       <use x="354.199219" xlink:href="#DejaVuSans-57"/>
      </g>
     </g>
    </g>
    <g id="xtick_6">
     <g id="line2d_6">
      <g>
       <use style="stroke:#000000;stroke-width:0.8;" x="346.614095" xlink:href="#m6aaa9c678e" y="307.584"/>
      </g>
     </g>
     <g id="text_6">
      <!-- 2020-11 -->
      <g transform="translate(325.722688 322.182437)scale(0.1 -0.1)">
       <use xlink:href="#DejaVuSans-50"/>
       <use x="63.623047" xlink:href="#DejaVuSans-48"/>
       <use x="127.246094" xlink:href="#DejaVuSans-50"/>
       <use x="190.869141" xlink:href="#DejaVuSans-48"/>
       <use x="254.492188" xlink:href="#DejaVuSans-45"/>
       <use x="290.576172" xlink:href="#DejaVuSans-49"/>
       <use x="354.199219" xlink:href="#DejaVuSans-49"/>
      </g>
     </g>
    </g>
    <g id="xtick_7">
     <g id="line2d_7">
      <g>
       <use style="stroke:#000000;stroke-width:0.8;" x="401.170368" xlink:href="#m6aaa9c678e" y="307.584"/>
      </g>
     </g>
     <g id="text_7">
      <!-- 2021-01 -->
      <g transform="translate(380.278962 322.182437)scale(0.1 -0.1)">
       <use xlink:href="#DejaVuSans-50"/>
       <use x="63.623047" xlink:href="#DejaVuSans-48"/>
       <use x="127.246094" xlink:href="#DejaVuSans-50"/>
       <use x="190.869141" xlink:href="#DejaVuSans-49"/>
       <use x="254.492188" xlink:href="#DejaVuSans-45"/>
       <use x="290.576172" xlink:href="#DejaVuSans-48"/>
       <use x="354.199219" xlink:href="#DejaVuSans-49"/>
      </g>
     </g>
    </g>
   </g>
   <g id="matplotlib.axis_2">
    <g id="ytick_1">
     <g id="line2d_8">
      <defs>
       <path d="M 0 0 
L -3.5 0 
" id="me0e8e18034" style="stroke:#000000;stroke-width:0.8;"/>
      </defs>
      <g>
       <use style="stroke:#000000;stroke-width:0.8;" x="57.6" xlink:href="#me0e8e18034" y="283.252297"/>
      </g>
     </g>
     <g id="text_8">
      <!-- 5000 -->
      <g transform="translate(25.15 287.051516)scale(0.1 -0.1)">
       <use xlink:href="#DejaVuSans-53"/>
       <use x="63.623047" xlink:href="#DejaVuSans-48"/>
       <use x="127.246094" xlink:href="#DejaVuSans-48"/>
       <use x="190.869141" xlink:href="#DejaVuSans-48"/>
      </g>
     </g>
    </g>
    <g id="ytick_2">
     <g id="line2d_9">
      <g>
       <use style="stroke:#000000;stroke-width:0.8;" x="57.6" xlink:href="#me0e8e18034" y="234.60708"/>
      </g>
     </g>
     <g id="text_9">
      <!-- 10000 -->
      <g transform="translate(18.7875 238.406298)scale(0.1 -0.1)">
       <use xlink:href="#DejaVuSans-49"/>
       <use x="63.623047" xlink:href="#DejaVuSans-48"/>
       <use x="127.246094" xlink:href="#DejaVuSans-48"/>
       <use x="190.869141" xlink:href="#DejaVuSans-48"/>
       <use x="254.492188" xlink:href="#DejaVuSans-48"/>
      </g>
     </g>
    </g>
    <g id="ytick_3">
     <g id="line2d_10">
      <g>
       <use style="stroke:#000000;stroke-width:0.8;" x="57.6" xlink:href="#me0e8e18034" y="185.961862"/>
      </g>
     </g>
     <g id="text_10">
      <!-- 15000 -->
      <g transform="translate(18.7875 189.761081)scale(0.1 -0.1)">
       <use xlink:href="#DejaVuSans-49"/>
       <use x="63.623047" xlink:href="#DejaVuSans-53"/>
       <use x="127.246094" xlink:href="#DejaVuSans-48"/>
       <use x="190.869141" xlink:href="#DejaVuSans-48"/>
       <use x="254.492188" xlink:href="#DejaVuSans-48"/>
      </g>
     </g>
    </g>
    <g id="ytick_4">
     <g id="line2d_11">
      <g>
       <use style="stroke:#000000;stroke-width:0.8;" x="57.6" xlink:href="#me0e8e18034" y="137.316645"/>
      </g>
     </g>
     <g id="text_11">
      <!-- 20000 -->
      <g transform="translate(18.7875 141.115864)scale(0.1 -0.1)">
       <use xlink:href="#DejaVuSans-50"/>
       <use x="63.623047" xlink:href="#DejaVuSans-48"/>
       <use x="127.246094" xlink:href="#DejaVuSans-48"/>
       <use x="190.869141" xlink:href="#DejaVuSans-48"/>
       <use x="254.492188" xlink:href="#DejaVuSans-48"/>
      </g>
     </g>
    </g>
    <g id="ytick_5">
     <g id="line2d_12">
      <g>
       <use style="stroke:#000000;stroke-width:0.8;" x="57.6" xlink:href="#me0e8e18034" y="88.671427"/>
      </g>
     </g>
     <g id="text_12">
      <!-- 25000 -->
      <g transform="translate(18.7875 92.470646)scale(0.1 -0.1)">
       <use xlink:href="#DejaVuSans-50"/>
       <use x="63.623047" xlink:href="#DejaVuSans-53"/>
       <use x="127.246094" xlink:href="#DejaVuSans-48"/>
       <use x="190.869141" xlink:href="#DejaVuSans-48"/>
       <use x="254.492188" xlink:href="#DejaVuSans-48"/>
      </g>
     </g>
    </g>
   </g>
   <g id="line2d_13">
    <path clip-path="url(#p0023b96424)" d="M 90.825665 241.053101 
L 91.72003 240.76294 
L 94.403125 242.081589 
L 95.297491 242.973089 
L 96.191856 243.191032 
L 97.086221 242.703622 
L 97.980586 241.304845 
L 98.874951 240.766233 
L 99.769316 239.483014 
L 101.558047 238.470238 
L 102.452412 238.336883 
L 103.346777 237.901464 
L 104.241142 237.653198 
L 105.135507 236.719905 
L 107.818603 233.443964 
L 108.712968 231.989912 
L 109.607333 231.311466 
L 110.501698 230.03678 
L 111.396063 229.142929 
L 112.290428 228.759872 
L 113.184793 228.695683 
L 114.079159 229.234923 
L 114.973524 229.509483 
L 115.867889 229.523197 
L 116.762254 229.188876 
L 118.550984 229.323829 
L 120.339715 229.610383 
L 121.23408 229.798682 
L 122.128445 230.4094 
L 123.02281 230.061931 
L 123.917175 228.746544 
L 124.81154 227.965175 
L 125.705905 227.358313 
L 127.494636 226.711499 
L 128.389001 227.448447 
L 130.177731 229.351343 
L 131.072096 230.852307 
L 132.860826 232.402013 
L 133.755192 232.239608 
L 134.649557 233.26044 
L 135.543922 233.368386 
L 136.438287 233.834227 
L 137.332652 227.682945 
L 138.227017 226.459216 
L 139.121382 226.032422 
L 140.015748 226.365853 
L 140.910113 226.460095 
L 141.804478 226.797576 
L 142.698843 227.648767 
L 145.381938 231.932531 
L 148.065034 238.981403 
L 148.959399 242.380568 
L 150.748129 250.488258 
L 153.431225 258.338974 
L 154.32559 261.723605 
L 155.219955 261.590984 
L 156.11432 260.739251 
L 157.008685 260.574355 
L 157.90305 260.21883 
L 158.797415 260.869713 
L 159.691781 260.395289 
L 160.586146 260.094704 
L 161.480511 259.071933 
L 162.374876 258.262135 
L 163.269241 258.164866 
L 164.163606 258.803052 
L 165.057971 258.431128 
L 167.741067 258.344425 
L 168.635432 258.117619 
L 169.529797 258.175656 
L 170.424162 259.0895 
L 171.318527 258.999604 
L 172.212893 259.360123 
L 173.107258 259.467202 
L 174.001623 259.355759 
L 174.895988 258.559534 
L 179.367814 255.634392 
L 180.262179 253.601835 
L 181.156544 250.498953 
L 182.945274 245.638239 
L 183.839639 243.93636 
L 184.734005 242.504758 
L 185.62837 241.287479 
L 187.4171 237.558522 
L 188.311465 234.595588 
L 189.20583 232.735662 
L 191.888926 234.015957 
L 192.783291 233.854712 
L 193.677656 233.293367 
L 194.572021 233.029185 
L 195.466386 233.186483 
L 196.360751 233.131733 
L 197.255116 233.739826 
L 198.149482 233.471177 
L 199.043847 232.921474 
L 201.726942 233.066621 
L 202.621307 233.203173 
L 204.410038 233.041394 
L 205.304403 233.091143 
L 206.198768 234.089209 
L 207.093133 234.495903 
L 207.987498 234.761364 
L 208.881863 234.659255 
L 209.776228 234.799558 
L 210.670594 233.570479 
L 212.459324 233.554129 
L 213.353689 233.13571 
L 215.142419 233.277355 
L 216.93115 233.501672 
L 218.71988 232.855672 
L 220.50861 232.863043 
L 221.402975 233.44093 
L 222.29734 233.843684 
L 223.191705 234.433103 
L 224.086071 234.621534 
L 225.874801 234.521527 
L 227.663531 234.473139 
L 228.557896 235.667936 
L 230.346627 235.679361 
L 231.240992 236.103799 
L 233.029722 236.203721 
L 233.924087 236.321745 
L 234.818452 236.572085 
L 235.712817 237.075315 
L 236.607183 237.895464 
L 238.395913 238.177938 
L 239.290278 238.29293 
L 240.184643 238.265371 
L 242.867739 239.030695 
L 243.762104 238.882792 
L 245.550834 239.017624 
L 246.445199 239.313148 
L 248.233929 240.587521 
L 250.02266 240.651069 
L 250.917025 240.653923 
L 252.705755 240.79463 
L 254.494485 240.773246 
L 255.38885 240.555303 
L 258.071946 238.891458 
L 258.966311 238.079729 
L 259.860676 235.437004 
L 260.755041 231.130404 
L 262.543772 225.505861 
L 263.438137 223.377957 
L 264.332502 220.803696 
L 265.226867 218.73474 
L 267.015597 215.80037 
L 267.909962 214.752605 
L 268.804328 212.913158 
L 269.698693 211.39472 
L 270.593058 210.683044 
L 271.487423 210.129383 
L 272.381788 209.366602 
L 273.276153 209.158217 
L 274.170518 209.729056 
L 275.064884 210.453754 
L 275.959249 211.441629 
L 276.853614 212.870026 
L 277.747979 213.518778 
L 278.642344 213.29851 
L 279.536709 212.241008 
L 280.431074 212.134092 
L 281.32544 212.304454 
L 283.11417 212.434717 
L 284.008535 212.757643 
L 285.797265 213.204217 
L 289.374726 213.067435 
L 290.269091 213.44407 
L 291.163456 213.568588 
L 292.057821 213.363779 
L 293.846551 213.172336 
L 294.740917 211.136926 
L 295.635282 210.455356 
L 296.529647 209.526181 
L 297.424012 209.988969 
L 298.318377 210.259507 
L 299.212742 210.308268 
L 300.107107 210.566838 
L 301.895838 211.673264 
L 302.790203 212.530356 
L 306.367663 214.451723 
L 307.262029 215.145391 
L 308.156394 216.056434 
L 309.050759 217.269945 
L 310.839489 222.087091 
L 311.733854 223.330987 
L 314.41695 223.032809 
L 315.311315 223.043632 
L 316.20568 222.85935 
L 317.100045 223.260834 
L 319.78314 223.509265 
L 320.677506 223.751945 
L 322.466236 223.815431 
L 323.360601 224.264684 
L 324.254966 224.565605 
L 326.043696 224.593178 
L 327.832427 222.252603 
L 328.726792 220.809436 
L 329.621157 220.195202 
L 331.409887 218.571987 
L 333.198618 217.726532 
L 334.092983 217.100567 
L 334.987348 216.096312 
L 335.881713 214.898919 
L 337.670443 208.439609 
L 339.459174 203.808801 
L 340.353539 202.034505 
L 341.247904 200.713533 
L 342.142269 198.473309 
L 343.930999 195.856356 
L 346.614095 191.365864 
L 347.50846 190.661673 
L 349.29719 188.35732 
L 350.191555 184.448645 
L 351.08592 181.526899 
L 351.980285 180.861533 
L 352.874651 179.10963 
L 353.769016 178.135678 
L 354.663381 176.662126 
L 355.557746 174.630487 
L 357.346476 169.247194 
L 358.240841 167.803415 
L 359.135207 166.933385 
L 360.029572 164.542535 
L 361.818302 157.426782 
L 362.712667 154.673662 
L 363.607032 150.386544 
L 364.501397 147.035005 
L 365.395763 145.396843 
L 366.290128 144.007695 
L 368.078858 139.429599 
L 368.973223 139.360388 
L 369.867588 140.172718 
L 371.656319 140.159463 
L 372.550684 138.023786 
L 373.445049 137.784523 
L 375.233779 135.407401 
L 376.128144 136.188887 
L 377.022509 137.305355 
L 377.916875 137.330881 
L 378.81124 136.818316 
L 381.494335 137.173264 
L 382.3887 137.270367 
L 383.283065 137.06929 
L 384.177431 136.516123 
L 385.071796 136.368735 
L 385.966161 135.599436 
L 386.860526 131.062034 
L 389.543621 107.30691 
L 390.437986 101.672588 
L 391.332352 98.205318 
L 392.226717 92.974414 
L 394.015447 85.790302 
L 394.909812 80.616047 
L 395.804177 72.343793 
L 398.487273 53.568 
L 398.487273 53.568 
" style="fill:none;stroke:#1f77b4;stroke-linecap:square;stroke-width:1.5;"/>
   </g>
   <g id="line2d_14">
    <path clip-path="url(#p0023b96424)" d="M 90.825665 265.197268 
L 91.72003 263.989993 
L 92.614395 261.916003 
L 93.50876 260.536002 
L 94.403125 258.94936 
L 95.297491 257.103646 
L 96.191856 256.067571 
L 97.086221 255.831388 
L 97.980586 255.916355 
L 98.874951 255.021357 
L 99.769316 255.020868 
L 100.663681 254.193693 
L 101.558047 253.562968 
L 102.452412 252.501984 
L 105.135507 252.418756 
L 106.924237 252.875032 
L 108.712968 252.773789 
L 109.607333 252.357604 
L 110.501698 252.070692 
L 111.396063 251.06173 
L 112.290428 249.699797 
L 114.079159 245.994767 
L 114.973524 244.723279 
L 115.867889 244.405233 
L 116.762254 243.8684 
L 117.656619 243.768603 
L 119.445349 242.995061 
L 120.339715 242.48606 
L 121.23408 241.634601 
L 122.128445 240.547844 
L 123.02281 241.186682 
L 123.917175 243.436472 
L 127.494636 250.44243 
L 130.177731 252.06567 
L 131.072096 251.813411 
L 131.966461 251.824477 
L 132.860826 251.974186 
L 133.755192 253.747615 
L 134.649557 254.907477 
L 135.543922 256.447877 
L 136.438287 257.593302 
L 137.332652 268.3965 
L 139.121382 278.637008 
L 140.910113 286.55181 
L 141.804478 289.573793 
L 142.698843 292.035306 
L 144.487573 294.017219 
L 146.276304 295.488 
L 147.170669 295.389711 
L 148.065034 294.91558 
L 148.959399 293.837347 
L 150.748129 290.265748 
L 152.53686 288.784029 
L 153.431225 287.490196 
L 154.32559 285.566108 
L 155.219955 283.988495 
L 156.11432 283.669364 
L 157.008685 282.318715 
L 157.90305 281.202376 
L 158.797415 278.863571 
L 160.586146 275.835103 
L 161.480511 275.728449 
L 162.374876 275.45994 
L 163.269241 274.864178 
L 164.163606 273.242989 
L 165.057971 272.982029 
L 166.846702 272.876418 
L 168.635432 272.742956 
L 169.529797 271.847925 
L 170.424162 269.62591 
L 171.318527 269.130269 
L 172.212893 268.335484 
L 174.001623 267.863466 
L 175.790353 267.852328 
L 176.684718 267.700916 
L 179.367814 268.404652 
L 180.262179 269.50468 
L 181.156544 270.826369 
L 182.050909 271.3819 
L 182.945274 272.081969 
L 183.839639 271.78361 
L 184.734005 271.350874 
L 185.62837 270.453885 
L 186.522735 270.212193 
L 187.4171 269.822067 
L 188.311465 270.099729 
L 189.20583 269.45913 
L 190.100195 267.529046 
L 190.99456 265.163031 
L 191.888926 263.157187 
L 193.677656 260.355983 
L 194.572021 258.747333 
L 196.360751 254.78901 
L 197.255116 252.320335 
L 198.149482 251.11377 
L 202.621307 248.802624 
L 203.515672 249.020068 
L 205.304403 249.843541 
L 206.198768 249.603093 
L 207.093133 249.480926 
L 207.987498 248.159507 
L 208.881863 247.592174 
L 209.776228 246.639495 
L 210.670594 246.85938 
L 216.93115 246.814774 
L 217.825515 246.732417 
L 220.50861 245.960991 
L 221.402975 244.755041 
L 222.29734 244.0933 
L 223.191705 242.951575 
L 224.086071 242.50368 
L 224.980436 242.505043 
L 226.769166 243.144006 
L 227.663531 243.366916 
L 228.557896 242.815794 
L 230.346627 242.825757 
L 231.240992 242.948751 
L 232.135357 243.456354 
L 233.029722 243.830914 
L 233.924087 244.431735 
L 234.818452 244.738683 
L 235.712817 244.806223 
L 236.607183 244.612186 
L 237.501548 244.700298 
L 239.290278 245.140933 
L 241.079008 245.220549 
L 243.762104 245.133506 
L 245.550834 245.220852 
L 246.445199 245.115871 
L 248.233929 244.430052 
L 250.917025 244.473899 
L 251.81139 244.205208 
L 254.494485 244.060496 
L 256.283216 244.292471 
L 258.071946 244.423092 
L 258.966311 244.739777 
L 259.860676 246.375425 
L 260.755041 249.022514 
L 261.649406 250.492094 
L 262.543772 251.254117 
L 263.438137 251.681919 
L 264.332502 252.2373 
L 265.226867 252.354009 
L 266.121232 251.927894 
L 267.015597 251.373503 
L 267.909962 250.375081 
L 268.804328 249.6124 
L 269.698693 248.516637 
L 271.487423 245.0211 
L 273.276153 240.856233 
L 274.170518 238.504595 
L 275.064884 235.814032 
L 275.959249 232.726873 
L 276.853614 229.174093 
L 277.747979 226.961077 
L 278.642344 226.333762 
L 279.536709 226.082708 
L 280.431074 225.348061 
L 281.32544 224.391206 
L 282.219805 224.120453 
L 283.11417 223.674937 
L 284.9029 222.257235 
L 285.797265 221.860247 
L 286.69163 222.205708 
L 287.585995 222.81903 
L 290.269091 223.035089 
L 291.163456 223.060522 
L 292.057821 222.65999 
L 292.952186 222.516958 
L 293.846551 223.071317 
L 294.740917 226.666321 
L 295.635282 228.776922 
L 296.529647 231.404847 
L 297.424012 233.04681 
L 298.318377 234.334784 
L 299.212742 236.03861 
L 300.107107 236.988508 
L 301.001473 237.721395 
L 302.790203 238.819475 
L 303.684568 239.022051 
L 305.473298 239.052897 
L 307.262029 238.853377 
L 309.050759 238.123567 
L 309.945124 237.114123 
L 310.839489 235.935735 
L 313.522585 235.352214 
L 315.311315 234.1558 
L 316.20568 233.808408 
L 317.100045 232.694967 
L 318.888775 231.888758 
L 319.78314 231.690015 
L 320.677506 231.211932 
L 324.254966 231.20374 
L 326.043696 231.197263 
L 326.938062 231.882463 
L 328.726792 232.727232 
L 329.621157 232.200792 
L 331.409887 232.326336 
L 333.198618 232.002736 
L 335.881713 232.077459 
L 336.776078 233.342864 
L 337.670443 234.0561 
L 339.459174 233.966842 
L 340.353539 233.520378 
L 341.247904 232.430296 
L 342.142269 231.758613 
L 343.930999 229.729826 
L 346.614095 227.507103 
L 349.29719 223.332753 
L 350.191555 223.089039 
L 351.08592 221.906014 
L 351.980285 219.334548 
L 352.874651 217.45662 
L 353.769016 215.111124 
L 354.663381 214.150512 
L 355.557746 213.537177 
L 356.452111 213.141306 
L 357.346476 212.534122 
L 358.240841 211.023482 
L 359.135207 209.071684 
L 360.923937 207.948781 
L 361.818302 207.091016 
L 362.712667 205.71109 
L 363.607032 205.252059 
L 364.501397 203.802759 
L 366.290128 197.872329 
L 367.184493 195.405378 
L 368.078858 194.538329 
L 368.973223 193.057234 
L 369.867588 189.995201 
L 370.761953 187.819551 
L 371.656319 185.036745 
L 372.550684 182.896846 
L 373.445049 180.131141 
L 375.233779 176.626942 
L 376.128144 173.333703 
L 377.022509 169.113981 
L 377.916875 166.494588 
L 378.81124 165.538981 
L 379.705605 164.873256 
L 380.59997 164.046007 
L 381.494335 164.350625 
L 382.3887 164.893451 
L 384.177431 164.504937 
L 385.966161 164.609631 
L 386.860526 165.092589 
L 387.754891 167.763042 
L 388.649256 169.998082 
L 389.543621 172.609884 
L 390.437986 174.594939 
L 391.332352 174.245478 
L 392.226717 175.009694 
L 393.121082 174.797827 
L 394.015447 173.582654 
L 394.909812 173.357409 
L 395.804177 174.7617 
L 396.698542 174.331221 
L 397.592908 172.277327 
L 398.487273 169.621313 
L 398.487273 169.621313 
" style="fill:none;stroke:#ff7f0e;stroke-linecap:square;stroke-width:1.5;"/>
   </g>
   <g id="line2d_15">
    <path clip-path="url(#p0023b96424)" d="M 90.825665 253.125185 
L 92.614395 251.549769 
L 96.191856 249.629302 
L 97.086221 249.267505 
L 102.452412 245.419433 
L 104.241142 245.00543 
L 106.924237 243.709418 
L 107.818603 243.12612 
L 108.712968 242.38185 
L 109.607333 241.834535 
L 110.501698 241.053736 
L 113.184793 238.247369 
L 114.973524 237.116381 
L 115.867889 236.964215 
L 116.762254 236.528638 
L 118.550984 236.360359 
L 120.339715 236.048222 
L 122.128445 235.478622 
L 123.02281 235.624306 
L 125.705905 237.149059 
L 126.60027 237.938515 
L 128.389001 239.228737 
L 130.177731 240.708506 
L 131.072096 241.332859 
L 131.966461 241.691797 
L 132.860826 242.188099 
L 133.755192 242.993612 
L 134.649557 244.083958 
L 136.438287 245.713765 
L 137.332652 248.039723 
L 138.227017 250.004146 
L 140.015748 254.428684 
L 140.910113 256.505952 
L 142.698843 259.842037 
L 144.487573 262.209686 
L 145.381938 263.349268 
L 146.276304 264.868254 
L 150.748129 270.377003 
L 153.431225 272.914585 
L 154.32559 273.644857 
L 155.219955 272.78974 
L 156.11432 272.204307 
L 158.797415 269.866642 
L 160.586146 267.964903 
L 162.374876 266.861037 
L 163.269241 266.514522 
L 164.163606 266.02302 
L 165.057971 265.706578 
L 167.741067 265.603996 
L 168.635432 265.430288 
L 169.529797 265.011791 
L 170.424162 264.357705 
L 172.212893 263.847804 
L 174.001623 263.609612 
L 176.684718 262.506896 
L 179.367814 262.019522 
L 180.262179 261.553257 
L 183.839639 257.859985 
L 185.62837 255.870682 
L 187.4171 253.690294 
L 189.20583 251.097396 
L 190.100195 250.334084 
L 190.99456 249.361052 
L 192.783291 247.836341 
L 194.572021 245.888259 
L 198.149482 242.292473 
L 199.043847 241.79072 
L 199.938212 241.516566 
L 203.515672 241.063199 
L 205.304403 241.467342 
L 206.198768 241.846151 
L 207.093133 241.988414 
L 207.987498 241.460436 
L 209.776228 240.719527 
L 210.670594 240.21493 
L 212.459324 240.20626 
L 213.353689 240.025419 
L 216.93115 240.158223 
L 222.29734 238.968492 
L 223.191705 238.692339 
L 224.086071 238.562607 
L 224.980436 238.563149 
L 227.663531 238.920028 
L 228.557896 239.241865 
L 230.346627 239.252559 
L 237.501548 241.388122 
L 239.290278 241.716931 
L 241.079008 241.88691 
L 242.867739 242.070269 
L 243.762104 242.008149 
L 250.917025 242.563911 
L 253.60012 242.44244 
L 255.38885 242.340342 
L 258.071946 241.657275 
L 258.966311 241.409753 
L 259.860676 240.906214 
L 263.438137 237.529938 
L 267.909962 232.563843 
L 270.593058 228.782166 
L 274.170518 224.116826 
L 277.747979 220.239927 
L 278.642344 219.816136 
L 279.536709 219.161858 
L 281.32544 218.34783 
L 283.11417 218.054827 
L 284.9029 217.609688 
L 285.797265 217.532232 
L 288.480361 217.994076 
L 291.163456 218.314555 
L 292.057821 218.011885 
L 292.952186 217.899707 
L 293.846551 218.121827 
L 296.529647 220.465514 
L 297.424012 221.51789 
L 300.107107 223.777673 
L 302.790203 225.674916 
L 304.578933 226.3208 
L 305.473298 226.451528 
L 308.156394 227.295208 
L 309.050759 227.696756 
L 310.839489 229.011413 
L 311.733854 229.518712 
L 314.41695 228.885855 
L 317.99441 227.783046 
L 320.677506 227.481938 
L 322.466236 227.527075 
L 324.254966 227.884672 
L 326.043696 227.89522 
L 326.938062 227.675548 
L 328.726792 226.768334 
L 329.621157 226.197997 
L 332.304252 225.165051 
L 334.092983 224.546543 
L 335.881713 223.488189 
L 337.670443 221.247855 
L 341.247904 216.571915 
L 342.142269 215.115961 
L 346.614095 209.436483 
L 347.50846 208.39803 
L 349.29719 205.845036 
L 351.08592 201.716457 
L 352.874651 198.283125 
L 353.769016 196.623401 
L 355.557746 194.083832 
L 357.346476 190.890658 
L 360.029572 186.503365 
L 363.607032 177.819301 
L 365.395763 173.056529 
L 366.290128 170.940012 
L 367.184493 168.506555 
L 368.078858 166.983964 
L 368.973223 166.208811 
L 370.761953 163.990173 
L 371.656319 162.598104 
L 372.550684 160.460316 
L 375.233779 156.017172 
L 376.128144 154.761295 
L 377.022509 153.209668 
L 377.916875 151.912735 
L 378.81124 151.178648 
L 380.59997 150.557873 
L 381.494335 150.761944 
L 382.3887 151.081909 
L 383.283065 150.893385 
L 384.177431 150.51053 
L 385.071796 150.455266 
L 385.966161 150.104534 
L 386.860526 148.077311 
L 389.543621 139.958397 
L 391.332352 136.225398 
L 392.226717 133.992054 
L 393.121082 132.153874 
L 394.909812 126.986728 
L 396.698542 120.116993 
L 398.487273 111.594657 
L 398.487273 111.594657 
" style="fill:none;stroke:#2ca02c;stroke-linecap:square;stroke-width:1.5;"/>
   </g>
   <g id="line2d_16">
    <path clip-path="url(#p0023b96424)" d="M 73.832727 261.960642 
L 74.727092 264.168114 
L 75.621458 260.422318 
L 77.410188 260.327638 
L 79.198918 252.530296 
L 80.093283 253.64805 
L 80.987648 255.846328 
L 81.882014 252.223799 
L 82.776379 253.90535 
L 83.670744 252.324803 
L 84.565109 253.038964 
L 85.459474 246.209677 
L 86.353839 246.199364 
L 87.248204 247.090286 
L 88.142569 245.403886 
L 89.036935 245.297644 
L 89.9313 247.268732 
L 90.825665 247.923335 
L 91.72003 246.986282 
L 92.614395 247.634172 
L 93.50876 250.249971 
L 94.403125 249.818536 
L 95.297491 250.785489 
L 97.086221 245.294369 
L 97.980586 240.50995 
L 98.874951 241.510225 
L 99.769316 239.386715 
L 100.663681 240.968577 
L 101.558047 240.554817 
L 102.452412 241.095573 
L 103.346777 241.498713 
L 104.241142 242.630265 
L 105.135507 238.368296 
L 106.029872 237.034022 
L 106.924237 236.469251 
L 107.818603 235.602766 
L 108.712968 233.037947 
L 109.607333 236.03999 
L 110.501698 232.018181 
L 111.396063 231.221842 
L 112.290428 232.368638 
L 113.184793 231.136178 
L 114.079159 235.550586 
L 114.973524 235.325083 
L 115.867889 237.46664 
L 116.762254 232.798677 
L 117.656619 238.56213 
L 118.550984 238.427578 
L 119.445349 237.569006 
L 120.339715 237.838647 
L 121.23408 234.867105 
L 122.128445 237.869877 
L 123.02281 241.281982 
L 123.917175 246.378055 
L 124.81154 246.120576 
L 125.705905 247.102463 
L 126.60027 248.827066 
L 127.494636 248.808986 
L 128.389001 245.053624 
L 129.283366 246.59151 
L 130.177731 246.594363 
L 131.072096 243.623227 
L 131.966461 242.729355 
L 132.860826 245.251123 
L 133.755192 253.576882 
L 134.649557 254.605615 
L 135.543922 255.045594 
L 136.438287 254.540236 
L 137.332652 284.088168 
L 138.227017 277.127118 
L 139.121382 281.478481 
L 140.015748 279.749258 
L 140.910113 282.827349 
L 141.804478 279.972702 
L 142.698843 279.247612 
L 143.593208 271.769399 
L 144.487573 271.513119 
L 145.381938 271.600616 
L 146.276304 275.433357 
L 147.170669 268.727419 
L 148.065034 266.063201 
L 148.959399 266.832542 
L 149.853764 266.616119 
L 150.748129 266.725279 
L 151.642494 271.319187 
L 152.53686 274.671215 
L 153.431225 267.989325 
L 154.32559 269.14567 
L 155.219955 266.985823 
L 156.11432 265.418474 
L 157.008685 266.323032 
L 157.90305 265.030626 
L 158.797415 265.948123 
L 159.691781 260.897387 
L 160.586146 260.288155 
L 162.374876 260.730048 
L 163.269241 264.67031 
L 164.163606 265.603326 
L 165.057971 262.398579 
L 165.952337 266.099361 
L 166.846702 264.912077 
L 167.741067 266.44878 
L 168.635432 263.251111 
L 169.529797 262.949243 
L 170.424162 261.589512 
L 171.318527 262.133949 
L 172.212893 264.803015 
L 173.107258 265.187409 
L 174.001623 262.453061 
L 174.895988 258.375619 
L 175.790353 258.901474 
L 176.684718 257.970356 
L 177.579083 257.931099 
L 178.473449 257.233186 
L 179.367814 256.748923 
L 180.262179 251.40476 
L 181.156544 246.858378 
L 182.050909 246.558504 
L 182.945274 245.392259 
L 183.839639 246.096983 
L 184.734005 246.2687 
L 185.62837 245.306109 
L 186.522735 241.914102 
L 187.4171 240.678489 
L 188.311465 234.736792 
L 189.20583 237.128702 
L 190.100195 249.536783 
L 190.99456 245.726768 
L 191.888926 246.963451 
L 192.783291 243.371002 
L 193.677656 238.668153 
L 195.466386 239.811631 
L 196.360751 236.794898 
L 197.255116 238.1431 
L 198.149482 236.652611 
L 199.043847 236.823307 
L 199.938212 241.075434 
L 200.832577 242.606299 
L 202.621307 242.359862 
L 203.515672 246.512121 
L 204.410038 245.590683 
L 205.304403 245.084773 
L 206.198768 242.312968 
L 207.093133 239.973961 
L 207.987498 238.97722 
L 208.881863 239.032335 
L 209.776228 238.8397 
L 210.670594 233.279065 
L 211.564959 238.552693 
L 212.459324 239.184108 
L 213.353689 236.194811 
L 214.248054 237.722806 
L 215.142419 238.289036 
L 216.036784 237.23037 
L 216.93115 237.827782 
L 218.71988 236.577211 
L 219.614245 239.705585 
L 220.50861 240.129406 
L 221.402975 240.231488 
L 222.29734 243.000812 
L 223.191705 239.561717 
L 224.980436 239.984808 
L 225.874801 241.649448 
L 227.663531 241.036761 
L 229.452261 238.579302 
L 230.346627 239.371392 
L 231.240992 241.669133 
L 232.135357 243.095184 
L 233.029722 242.737495 
L 233.924087 244.41882 
L 234.818452 243.400676 
L 235.712817 242.931395 
L 236.607183 242.838337 
L 237.501548 242.391531 
L 238.395913 243.412302 
L 240.184643 243.603404 
L 241.079008 242.358695 
L 241.973373 241.754278 
L 242.867739 241.616045 
L 243.762104 240.407049 
L 244.656469 242.928185 
L 245.550834 241.630963 
L 246.445199 241.621234 
L 247.339564 241.469339 
L 248.233929 242.3669 
L 249.128295 242.252867 
L 250.02266 243.204392 
L 250.917025 243.147039 
L 253.60012 242.532602 
L 254.494485 242.326954 
L 256.283216 239.358599 
L 257.177581 239.038853 
L 258.071946 238.481671 
L 258.966311 237.408266 
L 259.860676 231.683502 
L 260.755041 225.020939 
L 261.649406 225.048294 
L 262.543772 224.357532 
L 263.438137 224.629946 
L 264.332502 221.43243 
L 265.226867 221.94687 
L 266.121232 223.278144 
L 267.015597 222.192869 
L 267.909962 222.742511 
L 268.804328 217.125765 
L 269.698693 216.829539 
L 270.593058 219.347075 
L 271.487423 218.394115 
L 272.381788 215.048978 
L 273.276153 216.778607 
L 274.170518 221.550606 
L 275.959249 217.488828 
L 276.853614 216.164442 
L 277.747979 216.040854 
L 278.642344 216.54511 
L 279.536709 211.962731 
L 280.431074 215.94191 
L 281.32544 216.765012 
L 282.219805 219.204652 
L 283.11417 218.314586 
L 284.008535 218.928726 
L 284.9029 217.639504 
L 285.797265 221.193394 
L 286.69163 220.414131 
L 287.585995 221.938688 
L 288.480361 220.186441 
L 289.374726 219.867147 
L 290.269091 218.486017 
L 291.163456 218.278113 
L 292.057821 215.497208 
L 292.952186 217.136636 
L 293.846551 221.93123 
L 294.740917 231.760378 
L 295.635282 230.331165 
L 296.529647 233.532604 
L 297.424012 233.010252 
L 298.318377 231.527027 
L 299.212742 234.290886 
L 300.107107 231.28932 
L 301.001473 230.904793 
L 301.895838 230.361662 
L 302.790203 231.561222 
L 303.684568 227.988435 
L 304.578933 226.536786 
L 305.473298 224.553247 
L 306.367663 225.489883 
L 307.262029 225.520822 
L 308.156394 224.402487 
L 309.050759 226.30908 
L 309.945124 229.487629 
L 310.839489 229.439356 
L 311.733854 232.077207 
L 312.628219 228.059854 
L 313.522585 227.51393 
L 315.311315 227.287478 
L 316.20568 226.210276 
L 317.100045 227.171323 
L 317.99441 227.392219 
L 318.888775 228.510851 
L 319.78314 229.087499 
L 320.677506 229.207181 
L 322.466236 227.247986 
L 323.360601 228.870579 
L 324.254966 228.324503 
L 325.149331 225.874335 
L 326.043696 224.259933 
L 326.938062 221.915623 
L 327.832427 221.208549 
L 328.726792 219.574167 
L 329.621157 220.670468 
L 330.515522 220.686067 
L 331.409887 219.911002 
L 332.304252 221.711021 
L 333.198618 221.279134 
L 334.092983 219.848445 
L 334.987348 217.498102 
L 335.881713 215.898372 
L 336.776078 207.254003 
L 337.670443 205.537654 
L 338.564808 206.002654 
L 339.459174 204.183826 
L 340.353539 205.040387 
L 341.247904 204.760045 
L 342.142269 199.205425 
L 343.036634 202.730323 
L 343.930999 200.946552 
L 344.825364 199.904311 
L 345.71973 197.664896 
L 346.614095 197.996981 
L 347.50846 199.901409 
L 348.402825 195.391348 
L 349.29719 194.145836 
L 350.191555 180.18714 
L 351.08592 180.231423 
L 351.980285 187.480128 
L 352.874651 181.199787 
L 353.769016 182.703897 
L 354.663381 182.912359 
L 355.557746 179.087904 
L 356.452111 173.304117 
L 357.346476 173.018894 
L 358.240841 175.496201 
L 359.135207 176.541764 
L 360.029572 169.222021 
L 360.923937 159.923683 
L 361.818302 158.863881 
L 362.712667 158.573843 
L 363.607032 150.203412 
L 364.501397 149.988595 
L 365.395763 152.654352 
L 366.290128 153.060993 
L 367.184493 145.476702 
L 368.078858 149.735314 
L 368.973223 164.728371 
L 369.867588 164.983094 
L 370.761953 159.324065 
L 371.656319 154.86252 
L 372.550684 140.156585 
L 373.445049 149.038228 
L 374.339414 144.844784 
L 375.233779 142.665024 
L 376.128144 150.378664 
L 377.022509 145.509229 
L 377.916875 143.283353 
L 378.81124 145.241956 
L 379.705605 153.636597 
L 380.59997 151.38562 
L 381.494335 154.284843 
L 382.3887 156.387888 
L 383.283065 148.883877 
L 384.177431 145.40388 
L 385.071796 144.371434 
L 385.966161 142.720659 
L 386.860526 124.183928 
L 387.754891 109.955834 
L 388.649256 106.832762 
L 389.543621 100.002796 
L 390.437986 103.663915 
L 391.332352 110.870916 
L 392.226717 100.177902 
L 393.121082 105.901434 
L 394.015447 101.030734 
L 394.909812 91.514237 
L 395.804177 74.603717 
L 396.698542 76.526889 
L 397.592908 68.806017 
L 398.487273 65.76947 
L 398.487273 65.76947 
" style="fill:none;stroke:#d62728;stroke-linecap:square;stroke-width:1.5;"/>
   </g>
   <g id="patch_3">
    <path d="M 57.6 307.584 
L 57.6 41.472 
" style="fill:none;stroke:#000000;stroke-linecap:square;stroke-linejoin:miter;stroke-width:0.8;"/>
   </g>
   <g id="patch_4">
    <path d="M 414.72 307.584 
L 414.72 41.472 
" style="fill:none;stroke:#000000;stroke-linecap:square;stroke-linejoin:miter;stroke-width:0.8;"/>
   </g>
   <g id="patch_5">
    <path d="M 57.6 307.584 
L 414.72 307.584 
" style="fill:none;stroke:#000000;stroke-linecap:square;stroke-linejoin:miter;stroke-width:0.8;"/>
   </g>
   <g id="patch_6">
    <path d="M 57.6 41.472 
L 414.72 41.472 
" style="fill:none;stroke:#000000;stroke-linecap:square;stroke-linejoin:miter;stroke-width:0.8;"/>
   </g>
   <g id="text_13">
    <!-- Data source: coindesk -->
    <g transform="translate(180.640469 35.472)scale(0.1 -0.1)">
     <defs>
      <path d="M 19.671875 64.796875 
L 19.671875 8.109375 
L 31.59375 8.109375 
Q 46.6875 8.109375 53.6875 14.9375 
Q 60.6875 21.78125 60.6875 36.53125 
Q 60.6875 51.171875 53.6875 57.984375 
Q 46.6875 64.796875 31.59375 64.796875 
z
M 9.8125 72.90625 
L 30.078125 72.90625 
Q 51.265625 72.90625 61.171875 64.09375 
Q 71.09375 55.28125 71.09375 36.53125 
Q 71.09375 17.671875 61.125 8.828125 
Q 51.171875 0 30.078125 0 
L 9.8125 0 
z
" id="DejaVuSans-68"/>
      <path d="M 34.28125 27.484375 
Q 23.390625 27.484375 19.1875 25 
Q 14.984375 22.515625 14.984375 16.5 
Q 14.984375 11.71875 18.140625 8.90625 
Q 21.296875 6.109375 26.703125 6.109375 
Q 34.1875 6.109375 38.703125 11.40625 
Q 43.21875 16.703125 43.21875 25.484375 
L 43.21875 27.484375 
z
M 52.203125 31.203125 
L 52.203125 0 
L 43.21875 0 
L 43.21875 8.296875 
Q 40.140625 3.328125 35.546875 0.953125 
Q 30.953125 -1.421875 24.3125 -1.421875 
Q 15.921875 -1.421875 10.953125 3.296875 
Q 6 8.015625 6 15.921875 
Q 6 25.140625 12.171875 29.828125 
Q 18.359375 34.515625 30.609375 34.515625 
L 43.21875 34.515625 
L 43.21875 35.40625 
Q 43.21875 41.609375 39.140625 45 
Q 35.0625 48.390625 27.6875 48.390625 
Q 23 48.390625 18.546875 47.265625 
Q 14.109375 46.140625 10.015625 43.890625 
L 10.015625 52.203125 
Q 14.9375 54.109375 19.578125 55.046875 
Q 24.21875 56 28.609375 56 
Q 40.484375 56 46.34375 49.84375 
Q 52.203125 43.703125 52.203125 31.203125 
z
" id="DejaVuSans-97"/>
      <path d="M 18.3125 70.21875 
L 18.3125 54.6875 
L 36.8125 54.6875 
L 36.8125 47.703125 
L 18.3125 47.703125 
L 18.3125 18.015625 
Q 18.3125 11.328125 20.140625 9.421875 
Q 21.96875 7.515625 27.59375 7.515625 
L 36.8125 7.515625 
L 36.8125 0 
L 27.59375 0 
Q 17.1875 0 13.234375 3.875 
Q 9.28125 7.765625 9.28125 18.015625 
L 9.28125 47.703125 
L 2.6875 47.703125 
L 2.6875 54.6875 
L 9.28125 54.6875 
L 9.28125 70.21875 
z
" id="DejaVuSans-116"/>
      <path id="DejaVuSans-32"/>
      <path d="M 44.28125 53.078125 
L 44.28125 44.578125 
Q 40.484375 46.53125 36.375 47.5 
Q 32.28125 48.484375 27.875 48.484375 
Q 21.1875 48.484375 17.84375 46.4375 
Q 14.5 44.390625 14.5 40.28125 
Q 14.5 37.15625 16.890625 35.375 
Q 19.28125 33.59375 26.515625 31.984375 
L 29.59375 31.296875 
Q 39.15625 29.25 43.1875 25.515625 
Q 47.21875 21.78125 47.21875 15.09375 
Q 47.21875 7.46875 41.1875 3.015625 
Q 35.15625 -1.421875 24.609375 -1.421875 
Q 20.21875 -1.421875 15.453125 -0.5625 
Q 10.6875 0.296875 5.421875 2 
L 5.421875 11.28125 
Q 10.40625 8.6875 15.234375 7.390625 
Q 20.0625 6.109375 24.8125 6.109375 
Q 31.15625 6.109375 34.5625 8.28125 
Q 37.984375 10.453125 37.984375 14.40625 
Q 37.984375 18.0625 35.515625 20.015625 
Q 33.0625 21.96875 24.703125 23.78125 
L 21.578125 24.515625 
Q 13.234375 26.265625 9.515625 29.90625 
Q 5.8125 33.546875 5.8125 39.890625 
Q 5.8125 47.609375 11.28125 51.796875 
Q 16.75 56 26.8125 56 
Q 31.78125 56 36.171875 55.265625 
Q 40.578125 54.546875 44.28125 53.078125 
z
" id="DejaVuSans-115"/>
      <path d="M 30.609375 48.390625 
Q 23.390625 48.390625 19.1875 42.75 
Q 14.984375 37.109375 14.984375 27.296875 
Q 14.984375 17.484375 19.15625 11.84375 
Q 23.34375 6.203125 30.609375 6.203125 
Q 37.796875 6.203125 41.984375 11.859375 
Q 46.1875 17.53125 46.1875 27.296875 
Q 46.1875 37.015625 41.984375 42.703125 
Q 37.796875 48.390625 30.609375 48.390625 
z
M 30.609375 56 
Q 42.328125 56 49.015625 48.375 
Q 55.71875 40.765625 55.71875 27.296875 
Q 55.71875 13.875 49.015625 6.21875 
Q 42.328125 -1.421875 30.609375 -1.421875 
Q 18.84375 -1.421875 12.171875 6.21875 
Q 5.515625 13.875 5.515625 27.296875 
Q 5.515625 40.765625 12.171875 48.375 
Q 18.84375 56 30.609375 56 
z
" id="DejaVuSans-111"/>
      <path d="M 8.5 21.578125 
L 8.5 54.6875 
L 17.484375 54.6875 
L 17.484375 21.921875 
Q 17.484375 14.15625 20.5 10.265625 
Q 23.53125 6.390625 29.59375 6.390625 
Q 36.859375 6.390625 41.078125 11.03125 
Q 45.3125 15.671875 45.3125 23.6875 
L 45.3125 54.6875 
L 54.296875 54.6875 
L 54.296875 0 
L 45.3125 0 
L 45.3125 8.40625 
Q 42.046875 3.421875 37.71875 1 
Q 33.40625 -1.421875 27.6875 -1.421875 
Q 18.265625 -1.421875 13.375 4.4375 
Q 8.5 10.296875 8.5 21.578125 
z
M 31.109375 56 
z
" id="DejaVuSans-117"/>
      <path d="M 41.109375 46.296875 
Q 39.59375 47.171875 37.8125 47.578125 
Q 36.03125 48 33.890625 48 
Q 26.265625 48 22.1875 43.046875 
Q 18.109375 38.09375 18.109375 28.8125 
L 18.109375 0 
L 9.078125 0 
L 9.078125 54.6875 
L 18.109375 54.6875 
L 18.109375 46.1875 
Q 20.953125 51.171875 25.484375 53.578125 
Q 30.03125 56 36.53125 56 
Q 37.453125 56 38.578125 55.875 
Q 39.703125 55.765625 41.0625 55.515625 
z
" id="DejaVuSans-114"/>
      <path d="M 48.78125 52.59375 
L 48.78125 44.1875 
Q 44.96875 46.296875 41.140625 47.34375 
Q 37.3125 48.390625 33.40625 48.390625 
Q 24.65625 48.390625 19.8125 42.84375 
Q 14.984375 37.3125 14.984375 27.296875 
Q 14.984375 17.28125 19.8125 11.734375 
Q 24.65625 6.203125 33.40625 6.203125 
Q 37.3125 6.203125 41.140625 7.25 
Q 44.96875 8.296875 48.78125 10.40625 
L 48.78125 2.09375 
Q 45.015625 0.34375 40.984375 -0.53125 
Q 36.96875 -1.421875 32.421875 -1.421875 
Q 20.0625 -1.421875 12.78125 6.34375 
Q 5.515625 14.109375 5.515625 27.296875 
Q 5.515625 40.671875 12.859375 48.328125 
Q 20.21875 56 33.015625 56 
Q 37.15625 56 41.109375 55.140625 
Q 45.0625 54.296875 48.78125 52.59375 
z
" id="DejaVuSans-99"/>
      <path d="M 56.203125 29.59375 
L 56.203125 25.203125 
L 14.890625 25.203125 
Q 15.484375 15.921875 20.484375 11.0625 
Q 25.484375 6.203125 34.421875 6.203125 
Q 39.59375 6.203125 44.453125 7.46875 
Q 49.3125 8.734375 54.109375 11.28125 
L 54.109375 2.78125 
Q 49.265625 0.734375 44.1875 -0.34375 
Q 39.109375 -1.421875 33.890625 -1.421875 
Q 20.796875 -1.421875 13.15625 6.1875 
Q 5.515625 13.8125 5.515625 26.8125 
Q 5.515625 40.234375 12.765625 48.109375 
Q 20.015625 56 32.328125 56 
Q 43.359375 56 49.78125 48.890625 
Q 56.203125 41.796875 56.203125 29.59375 
z
M 47.21875 32.234375 
Q 47.125 39.59375 43.09375 43.984375 
Q 39.0625 48.390625 32.421875 48.390625 
Q 24.90625 48.390625 20.390625 44.140625 
Q 15.875 39.890625 15.1875 32.171875 
z
" id="DejaVuSans-101"/>
      <path d="M 11.71875 12.40625 
L 22.015625 12.40625 
L 22.015625 0 
L 11.71875 0 
z
M 11.71875 51.703125 
L 22.015625 51.703125 
L 22.015625 39.3125 
L 11.71875 39.3125 
z
" id="DejaVuSans-58"/>
      <path d="M 9.421875 54.6875 
L 18.40625 54.6875 
L 18.40625 0 
L 9.421875 0 
z
M 9.421875 75.984375 
L 18.40625 75.984375 
L 18.40625 64.59375 
L 9.421875 64.59375 
z
" id="DejaVuSans-105"/>
      <path d="M 54.890625 33.015625 
L 54.890625 0 
L 45.90625 0 
L 45.90625 32.71875 
Q 45.90625 40.484375 42.875 44.328125 
Q 39.84375 48.1875 33.796875 48.1875 
Q 26.515625 48.1875 22.3125 43.546875 
Q 18.109375 38.921875 18.109375 30.90625 
L 18.109375 0 
L 9.078125 0 
L 9.078125 54.6875 
L 18.109375 54.6875 
L 18.109375 46.1875 
Q 21.34375 51.125 25.703125 53.5625 
Q 30.078125 56 35.796875 56 
Q 45.21875 56 50.046875 50.171875 
Q 54.890625 44.34375 54.890625 33.015625 
z
" id="DejaVuSans-110"/>
      <path d="M 45.40625 46.390625 
L 45.40625 75.984375 
L 54.390625 75.984375 
L 54.390625 0 
L 45.40625 0 
L 45.40625 8.203125 
Q 42.578125 3.328125 38.25 0.953125 
Q 33.9375 -1.421875 27.875 -1.421875 
Q 17.96875 -1.421875 11.734375 6.484375 
Q 5.515625 14.40625 5.515625 27.296875 
Q 5.515625 40.1875 11.734375 48.09375 
Q 17.96875 56 27.875 56 
Q 33.9375 56 38.25 53.625 
Q 42.578125 51.265625 45.40625 46.390625 
z
M 14.796875 27.296875 
Q 14.796875 17.390625 18.875 11.75 
Q 22.953125 6.109375 30.078125 6.109375 
Q 37.203125 6.109375 41.296875 11.75 
Q 45.40625 17.390625 45.40625 27.296875 
Q 45.40625 37.203125 41.296875 42.84375 
Q 37.203125 48.484375 30.078125 48.484375 
Q 22.953125 48.484375 18.875 42.84375 
Q 14.796875 37.203125 14.796875 27.296875 
z
" id="DejaVuSans-100"/>
      <path d="M 9.078125 75.984375 
L 18.109375 75.984375 
L 18.109375 31.109375 
L 44.921875 54.6875 
L 56.390625 54.6875 
L 27.390625 29.109375 
L 57.625 0 
L 45.90625 0 
L 18.109375 26.703125 
L 18.109375 0 
L 9.078125 0 
z
" id="DejaVuSans-107"/>
     </defs>
     <use xlink:href="#DejaVuSans-68"/>
     <use x="77.001953" xlink:href="#DejaVuSans-97"/>
     <use x="138.28125" xlink:href="#DejaVuSans-116"/>
     <use x="177.490234" xlink:href="#DejaVuSans-97"/>
     <use x="238.769531" xlink:href="#DejaVuSans-32"/>
     <use x="270.556641" xlink:href="#DejaVuSans-115"/>
     <use x="322.65625" xlink:href="#DejaVuSans-111"/>
     <use x="383.837891" xlink:href="#DejaVuSans-117"/>
     <use x="447.216797" xlink:href="#DejaVuSans-114"/>
     <use x="486.080078" xlink:href="#DejaVuSans-99"/>
     <use x="541.060547" xlink:href="#DejaVuSans-101"/>
     <use x="602.583984" xlink:href="#DejaVuSans-58"/>
     <use x="636.275391" xlink:href="#DejaVuSans-32"/>
     <use x="668.0625" xlink:href="#DejaVuSans-99"/>
     <use x="723.042969" xlink:href="#DejaVuSans-111"/>
     <use x="784.224609" xlink:href="#DejaVuSans-105"/>
     <use x="812.007812" xlink:href="#DejaVuSans-110"/>
     <use x="875.386719" xlink:href="#DejaVuSans-100"/>
     <use x="938.863281" xlink:href="#DejaVuSans-101"/>
     <use x="1000.386719" xlink:href="#DejaVuSans-115"/>
     <use x="1052.486328" xlink:href="#DejaVuSans-107"/>
    </g>
   </g>
   <g id="legend_1">
    <g id="patch_7">
     <path d="M 64.6 108.1845 
L 155.732812 108.1845 
Q 157.732812 108.1845 157.732812 106.1845 
L 157.732812 48.472 
Q 157.732812 46.472 155.732812 46.472 
L 64.6 46.472 
Q 62.6 46.472 62.6 48.472 
L 62.6 106.1845 
Q 62.6 108.1845 64.6 108.1845 
z
" style="fill:#ffffff;opacity:0.8;stroke:#cccccc;stroke-linejoin:miter;"/>
    </g>
    <g id="line2d_17">
     <path d="M 66.6 54.570438 
L 86.6 54.570438 
" style="fill:none;stroke:#1f77b4;stroke-linecap:square;stroke-width:1.5;"/>
    </g>
    <g id="line2d_18"/>
    <g id="text_14">
     <!-- Upper Band -->
     <g transform="translate(94.6 58.070438)scale(0.1 -0.1)">
      <defs>
       <path d="M 8.6875 72.90625 
L 18.609375 72.90625 
L 18.609375 28.609375 
Q 18.609375 16.890625 22.84375 11.734375 
Q 27.09375 6.59375 36.625 6.59375 
Q 46.09375 6.59375 50.34375 11.734375 
Q 54.59375 16.890625 54.59375 28.609375 
L 54.59375 72.90625 
L 64.5 72.90625 
L 64.5 27.390625 
Q 64.5 13.140625 57.4375 5.859375 
Q 50.390625 -1.421875 36.625 -1.421875 
Q 22.796875 -1.421875 15.734375 5.859375 
Q 8.6875 13.140625 8.6875 27.390625 
z
" id="DejaVuSans-85"/>
       <path d="M 18.109375 8.203125 
L 18.109375 -20.796875 
L 9.078125 -20.796875 
L 9.078125 54.6875 
L 18.109375 54.6875 
L 18.109375 46.390625 
Q 20.953125 51.265625 25.265625 53.625 
Q 29.59375 56 35.59375 56 
Q 45.5625 56 51.78125 48.09375 
Q 58.015625 40.1875 58.015625 27.296875 
Q 58.015625 14.40625 51.78125 6.484375 
Q 45.5625 -1.421875 35.59375 -1.421875 
Q 29.59375 -1.421875 25.265625 0.953125 
Q 20.953125 3.328125 18.109375 8.203125 
z
M 48.6875 27.296875 
Q 48.6875 37.203125 44.609375 42.84375 
Q 40.53125 48.484375 33.40625 48.484375 
Q 26.265625 48.484375 22.1875 42.84375 
Q 18.109375 37.203125 18.109375 27.296875 
Q 18.109375 17.390625 22.1875 11.75 
Q 26.265625 6.109375 33.40625 6.109375 
Q 40.53125 6.109375 44.609375 11.75 
Q 48.6875 17.390625 48.6875 27.296875 
z
" id="DejaVuSans-112"/>
       <path d="M 19.671875 34.8125 
L 19.671875 8.109375 
L 35.5 8.109375 
Q 43.453125 8.109375 47.28125 11.40625 
Q 51.125 14.703125 51.125 21.484375 
Q 51.125 28.328125 47.28125 31.5625 
Q 43.453125 34.8125 35.5 34.8125 
z
M 19.671875 64.796875 
L 19.671875 42.828125 
L 34.28125 42.828125 
Q 41.5 42.828125 45.03125 45.53125 
Q 48.578125 48.25 48.578125 53.8125 
Q 48.578125 59.328125 45.03125 62.0625 
Q 41.5 64.796875 34.28125 64.796875 
z
M 9.8125 72.90625 
L 35.015625 72.90625 
Q 46.296875 72.90625 52.390625 68.21875 
Q 58.5 63.53125 58.5 54.890625 
Q 58.5 48.1875 55.375 44.234375 
Q 52.25 40.28125 46.1875 39.3125 
Q 53.46875 37.75 57.5 32.78125 
Q 61.53125 27.828125 61.53125 20.40625 
Q 61.53125 10.640625 54.890625 5.3125 
Q 48.25 0 35.984375 0 
L 9.8125 0 
z
" id="DejaVuSans-66"/>
      </defs>
      <use xlink:href="#DejaVuSans-85"/>
      <use x="73.193359" xlink:href="#DejaVuSans-112"/>
      <use x="136.669922" xlink:href="#DejaVuSans-112"/>
      <use x="200.146484" xlink:href="#DejaVuSans-101"/>
      <use x="261.669922" xlink:href="#DejaVuSans-114"/>
      <use x="302.783203" xlink:href="#DejaVuSans-32"/>
      <use x="334.570312" xlink:href="#DejaVuSans-66"/>
      <use x="403.173828" xlink:href="#DejaVuSans-97"/>
      <use x="464.453125" xlink:href="#DejaVuSans-110"/>
      <use x="527.832031" xlink:href="#DejaVuSans-100"/>
     </g>
    </g>
    <g id="line2d_19">
     <path d="M 66.6 69.248563 
L 86.6 69.248563 
" style="fill:none;stroke:#ff7f0e;stroke-linecap:square;stroke-width:1.5;"/>
    </g>
    <g id="line2d_20"/>
    <g id="text_15">
     <!-- Lower Band -->
     <g transform="translate(94.6 72.748563)scale(0.1 -0.1)">
      <defs>
       <path d="M 9.8125 72.90625 
L 19.671875 72.90625 
L 19.671875 8.296875 
L 55.171875 8.296875 
L 55.171875 0 
L 9.8125 0 
z
" id="DejaVuSans-76"/>
       <path d="M 4.203125 54.6875 
L 13.1875 54.6875 
L 24.421875 12.015625 
L 35.59375 54.6875 
L 46.1875 54.6875 
L 57.421875 12.015625 
L 68.609375 54.6875 
L 77.59375 54.6875 
L 63.28125 0 
L 52.6875 0 
L 40.921875 44.828125 
L 29.109375 0 
L 18.5 0 
z
" id="DejaVuSans-119"/>
      </defs>
      <use xlink:href="#DejaVuSans-76"/>
      <use x="53.962891" xlink:href="#DejaVuSans-111"/>
      <use x="115.144531" xlink:href="#DejaVuSans-119"/>
      <use x="196.931641" xlink:href="#DejaVuSans-101"/>
      <use x="258.455078" xlink:href="#DejaVuSans-114"/>
      <use x="299.568359" xlink:href="#DejaVuSans-32"/>
      <use x="331.355469" xlink:href="#DejaVuSans-66"/>
      <use x="399.958984" xlink:href="#DejaVuSans-97"/>
      <use x="461.238281" xlink:href="#DejaVuSans-110"/>
      <use x="524.617188" xlink:href="#DejaVuSans-100"/>
     </g>
    </g>
    <g id="line2d_21">
     <path d="M 66.6 83.926688 
L 86.6 83.926688 
" style="fill:none;stroke:#2ca02c;stroke-linecap:square;stroke-width:1.5;"/>
    </g>
    <g id="line2d_22"/>
    <g id="text_16">
     <!-- MA -->
     <g transform="translate(94.6 87.426688)scale(0.1 -0.1)">
      <defs>
       <path d="M 9.8125 72.90625 
L 24.515625 72.90625 
L 43.109375 23.296875 
L 61.8125 72.90625 
L 76.515625 72.90625 
L 76.515625 0 
L 66.890625 0 
L 66.890625 64.015625 
L 48.09375 14.015625 
L 38.1875 14.015625 
L 19.390625 64.015625 
L 19.390625 0 
L 9.8125 0 
z
" id="DejaVuSans-77"/>
       <path d="M 34.1875 63.1875 
L 20.796875 26.90625 
L 47.609375 26.90625 
z
M 28.609375 72.90625 
L 39.796875 72.90625 
L 67.578125 0 
L 57.328125 0 
L 50.6875 18.703125 
L 17.828125 18.703125 
L 11.1875 0 
L 0.78125 0 
z
" id="DejaVuSans-65"/>
      </defs>
      <use xlink:href="#DejaVuSans-77"/>
      <use x="86.279297" xlink:href="#DejaVuSans-65"/>
     </g>
    </g>
    <g id="line2d_23">
     <path d="M 66.6 98.604813 
L 86.6 98.604813 
" style="fill:none;stroke:#d62728;stroke-linecap:square;stroke-width:1.5;"/>
    </g>
    <g id="line2d_24"/>
    <g id="text_17">
     <!-- BTC-USD -->
     <g transform="translate(94.6 102.104813)scale(0.1 -0.1)">
      <defs>
       <path d="M -0.296875 72.90625 
L 61.375 72.90625 
L 61.375 64.59375 
L 35.5 64.59375 
L 35.5 0 
L 25.59375 0 
L 25.59375 64.59375 
L -0.296875 64.59375 
z
" id="DejaVuSans-84"/>
       <path d="M 64.40625 67.28125 
L 64.40625 56.890625 
Q 59.421875 61.53125 53.78125 63.8125 
Q 48.140625 66.109375 41.796875 66.109375 
Q 29.296875 66.109375 22.65625 58.46875 
Q 16.015625 50.828125 16.015625 36.375 
Q 16.015625 21.96875 22.65625 14.328125 
Q 29.296875 6.6875 41.796875 6.6875 
Q 48.140625 6.6875 53.78125 8.984375 
Q 59.421875 11.28125 64.40625 15.921875 
L 64.40625 5.609375 
Q 59.234375 2.09375 53.4375 0.328125 
Q 47.65625 -1.421875 41.21875 -1.421875 
Q 24.65625 -1.421875 15.125 8.703125 
Q 5.609375 18.84375 5.609375 36.375 
Q 5.609375 53.953125 15.125 64.078125 
Q 24.65625 74.21875 41.21875 74.21875 
Q 47.75 74.21875 53.53125 72.484375 
Q 59.328125 70.75 64.40625 67.28125 
z
" id="DejaVuSans-67"/>
       <path d="M 53.515625 70.515625 
L 53.515625 60.890625 
Q 47.90625 63.578125 42.921875 64.890625 
Q 37.9375 66.21875 33.296875 66.21875 
Q 25.25 66.21875 20.875 63.09375 
Q 16.5 59.96875 16.5 54.203125 
Q 16.5 49.359375 19.40625 46.890625 
Q 22.3125 44.4375 30.421875 42.921875 
L 36.375 41.703125 
Q 47.40625 39.59375 52.65625 34.296875 
Q 57.90625 29 57.90625 20.125 
Q 57.90625 9.515625 50.796875 4.046875 
Q 43.703125 -1.421875 29.984375 -1.421875 
Q 24.8125 -1.421875 18.96875 -0.25 
Q 13.140625 0.921875 6.890625 3.21875 
L 6.890625 13.375 
Q 12.890625 10.015625 18.65625 8.296875 
Q 24.421875 6.59375 29.984375 6.59375 
Q 38.421875 6.59375 43.015625 9.90625 
Q 47.609375 13.234375 47.609375 19.390625 
Q 47.609375 24.75 44.3125 27.78125 
Q 41.015625 30.8125 33.5 32.328125 
L 27.484375 33.5 
Q 16.453125 35.6875 11.515625 40.375 
Q 6.59375 45.0625 6.59375 53.421875 
Q 6.59375 63.09375 13.40625 68.65625 
Q 20.21875 74.21875 32.171875 74.21875 
Q 37.3125 74.21875 42.625 73.28125 
Q 47.953125 72.359375 53.515625 70.515625 
z
" id="DejaVuSans-83"/>
      </defs>
      <use xlink:href="#DejaVuSans-66"/>
      <use x="68.603516" xlink:href="#DejaVuSans-84"/>
      <use x="123.8125" xlink:href="#DejaVuSans-67"/>
      <use x="193.636719" xlink:href="#DejaVuSans-45"/>
      <use x="229.720703" xlink:href="#DejaVuSans-85"/>
      <use x="302.914062" xlink:href="#DejaVuSans-83"/>
      <use x="366.390625" xlink:href="#DejaVuSans-68"/>
     </g>
    </g>
   </g>
  </g>
  <g id="text_18">
   <!-- Bollinger Band -->
   <g transform="translate(171.90625 19.0695)scale(0.16 -0.16)">
    <defs>
     <path d="M 9.421875 75.984375 
L 18.40625 75.984375 
L 18.40625 0 
L 9.421875 0 
z
" id="DejaVuSans-108"/>
     <path d="M 45.40625 27.984375 
Q 45.40625 37.75 41.375 43.109375 
Q 37.359375 48.484375 30.078125 48.484375 
Q 22.859375 48.484375 18.828125 43.109375 
Q 14.796875 37.75 14.796875 27.984375 
Q 14.796875 18.265625 18.828125 12.890625 
Q 22.859375 7.515625 30.078125 7.515625 
Q 37.359375 7.515625 41.375 12.890625 
Q 45.40625 18.265625 45.40625 27.984375 
z
M 54.390625 6.78125 
Q 54.390625 -7.171875 48.1875 -13.984375 
Q 42 -20.796875 29.203125 -20.796875 
Q 24.46875 -20.796875 20.265625 -20.09375 
Q 16.0625 -19.390625 12.109375 -17.921875 
L 12.109375 -9.1875 
Q 16.0625 -11.328125 19.921875 -12.34375 
Q 23.78125 -13.375 27.78125 -13.375 
Q 36.625 -13.375 41.015625 -8.765625 
Q 45.40625 -4.15625 45.40625 5.171875 
L 45.40625 9.625 
Q 42.625 4.78125 38.28125 2.390625 
Q 33.9375 0 27.875 0 
Q 17.828125 0 11.671875 7.65625 
Q 5.515625 15.328125 5.515625 27.984375 
Q 5.515625 40.671875 11.671875 48.328125 
Q 17.828125 56 27.875 56 
Q 33.9375 56 38.28125 53.609375 
Q 42.625 51.21875 45.40625 46.390625 
L 45.40625 54.6875 
L 54.390625 54.6875 
z
" id="DejaVuSans-103"/>
    </defs>
    <use xlink:href="#DejaVuSans-66"/>
    <use x="68.603516" xlink:href="#DejaVuSans-111"/>
    <use x="129.785156" xlink:href="#DejaVuSans-108"/>
    <use x="157.568359" xlink:href="#DejaVuSans-108"/>
    <use x="185.351562" xlink:href="#DejaVuSans-105"/>
    <use x="213.134766" xlink:href="#DejaVuSans-110"/>
    <use x="276.513672" xlink:href="#DejaVuSans-103"/>
    <use x="339.990234" xlink:href="#DejaVuSans-101"/>
    <use x="401.513672" xlink:href="#DejaVuSans-114"/>
    <use x="442.626953" xlink:href="#DejaVuSans-32"/>
    <use x="474.414062" xlink:href="#DejaVuSans-66"/>
    <use x="543.017578" xlink:href="#DejaVuSans-97"/>
    <use x="604.296875" xlink:href="#DejaVuSans-110"/>
    <use x="667.675781" xlink:href="#DejaVuSans-100"/>
   </g>
  </g>
 </g>
 <defs>
  <clipPath id="p0023b96424">
   <rect height="266.112" width="357.12" x="57.6" y="41.472"/>
  </clipPath>
 </defs>
</svg>
