<?xml version="1.0" encoding="utf-8" standalone="no"?>
<!DOCTYPE svg PUBLIC "-//W3C//DTD SVG 1.1//EN"
  "http://www.w3.org/Graphics/SVG/1.1/DTD/svg11.dtd">
<!-- Created with matplotlib (https://matplotlib.org/) -->
<svg height="345.6pt" version="1.1" viewBox="0 0 460.8 345.6" width="460.8pt" xmlns="http://www.w3.org/2000/svg" xmlns:xlink="http://www.w3.org/1999/xlink">
 <metadata>
  <rdf:RDF xmlns:cc="http://creativecommons.org/ns#" xmlns:dc="http://purl.org/dc/elements/1.1/" xmlns:rdf="http://www.w3.org/1999/02/22-rdf-syntax-ns#">
   <cc:Work>
    <dc:type rdf:resource="http://purl.org/dc/dcmitype/StillImage"/>
    <dc:date>2021-01-08T02:24:58.532105</dc:date>
    <dc:format>image/svg+xml</dc:format>
    <dc:creator>
     <cc:Agent>
      <dc:title>Matplotlib v3.3.2, https://matplotlib.org/</dc:title>
     </cc:Agent>
    </dc:creator>
   </cc:Work>
  </rdf:RDF>
 </metadata>
 <defs>
  <style type="text/css">*{stroke-linecap:butt;stroke-linejoin:round;}</style>
 </defs>
 <g id="figure_1">
  <g id="patch_1">
   <path d="M 0 345.6 
L 460.8 345.6 
L 460.8 0 
L 0 0 
z
" style="fill:#ffffff;"/>
  </g>
  <g id="axes_1">
   <g id="patch_2">
    <path d="M 57.6 307.584 
L 414.72 307.584 
L 414.72 41.472 
L 57.6 41.472 
z
" style="fill:#ffffff;"/>
   </g>
   <g id="PolyCollection_1">
    <defs>
     <path d="M 90.414545 -71.190458 
L 90.414545 -87.991696 
L 91.287273 -88.193611 
L 92.16 -87.90093 
L 93.032727 -87.648492 
L 93.905455 -87.276001 
L 94.778182 -86.655631 
L 95.650909 -86.503971 
L 96.523636 -86.843146 
L 97.396364 -87.816515 
L 98.269091 -88.191319 
L 99.141818 -89.084275 
L 100.014545 -89.408901 
L 100.887273 -89.789037 
L 101.76 -89.881835 
L 102.632727 -90.184831 
L 103.505455 -90.357592 
L 104.378182 -91.007044 
L 105.250909 -91.768688 
L 106.123636 -92.521331 
L 106.996364 -93.286678 
L 107.869091 -94.298512 
L 108.741818 -94.770622 
L 109.614545 -95.65764 
L 110.487273 -96.279646 
L 111.36 -96.546204 
L 112.232727 -96.590872 
L 113.105455 -96.21563 
L 113.978182 -96.024572 
L 114.850909 -96.015028 
L 115.723636 -96.247673 
L 116.596364 -96.235607 
L 117.469091 -96.153762 
L 118.341818 -96.081916 
L 119.214545 -95.954358 
L 120.087273 -95.823326 
L 120.96 -95.398345 
L 121.832727 -95.640139 
L 122.705455 -96.555479 
L 123.578182 -97.099212 
L 124.450909 -97.521509 
L 125.323636 -97.730536 
L 126.196364 -97.971608 
L 127.069091 -97.458788 
L 127.941818 -96.787891 
L 128.814545 -96.134617 
L 129.687273 -95.090138 
L 130.56 -94.598289 
L 131.432727 -94.011742 
L 132.305455 -94.124755 
L 133.178182 -93.414387 
L 134.050909 -93.339271 
L 134.923636 -93.015105 
L 135.796364 -97.295607 
L 136.669091 -98.147165 
L 137.541818 -98.444159 
L 138.414545 -98.212134 
L 139.287273 -98.146554 
L 140.16 -97.91171 
L 141.032727 -97.31939 
L 141.905455 -96.346037 
L 142.778182 -95.403387 
L 143.650909 -94.338441 
L 144.523636 -92.726818 
L 145.396364 -91.118047 
L 146.269091 -89.433332 
L 147.141818 -87.06795 
L 148.014545 -84.213827 
L 148.887273 -81.426039 
L 149.76 -79.667472 
L 150.632727 -77.764008 
L 151.505455 -75.962949 
L 152.378182 -73.607681 
L 153.250909 -73.699968 
L 154.123636 -74.292665 
L 154.996364 -74.407411 
L 155.869091 -74.654811 
L 156.741818 -74.20188 
L 157.614545 -74.532019 
L 158.487273 -74.741187 
L 159.36 -75.452904 
L 160.232727 -76.01642 
L 161.105455 -76.084106 
L 161.978182 -75.640011 
L 162.850909 -75.898822 
L 163.723636 -75.897836 
L 164.596364 -75.956454 
L 165.469091 -75.959156 
L 166.341818 -76.116984 
L 167.214545 -76.076598 
L 168.087273 -75.44068 
L 168.96 -75.503236 
L 169.832727 -75.252361 
L 170.705455 -75.177848 
L 171.578182 -75.255398 
L 172.450909 -75.809468 
L 173.323636 -76.227195 
L 174.196364 -76.676982 
L 175.069091 -77.024478 
L 175.941818 -77.405238 
L 176.814545 -77.844991 
L 177.687273 -79.25939 
L 178.56 -81.418597 
L 179.432727 -83.13045 
L 180.305455 -84.801029 
L 181.178182 -85.985318 
L 182.050909 -86.98153 
L 182.923636 -87.828599 
L 183.796364 -89.145194 
L 184.669091 -90.423474 
L 185.541818 -92.485296 
L 186.414545 -93.779565 
L 187.287273 -93.498808 
L 188.16 -93.206577 
L 189.032727 -92.888645 
L 189.905455 -93.00085 
L 190.778182 -93.391474 
L 191.650909 -93.575311 
L 192.523636 -93.465852 
L 193.396364 -93.503951 
L 194.269091 -93.080796 
L 195.141818 -93.267742 
L 196.014545 -93.650264 
L 196.887273 -93.6419 
L 197.76 -93.616205 
L 198.632727 -93.54926 
L 199.505455 -93.454238 
L 200.378182 -93.521628 
L 201.250909 -93.566815 
L 202.123636 -93.532196 
L 202.996364 -92.83767 
L 203.869091 -92.554664 
L 204.741818 -92.369937 
L 205.614545 -92.440992 
L 206.487273 -92.343359 
L 207.36 -93.19864 
L 208.232727 -93.206732 
L 209.105455 -93.210017 
L 209.978182 -93.501183 
L 210.850909 -93.413535 
L 211.723636 -93.402616 
L 212.596364 -93.343126 
L 213.469091 -93.246521 
L 214.341818 -93.457242 
L 215.214545 -93.696053 
L 216.087273 -93.701129 
L 216.96 -93.690925 
L 217.832727 -93.288789 
L 218.705455 -93.008524 
L 219.578182 -92.598364 
L 220.450909 -92.46724 
L 221.323636 -92.467434 
L 222.196364 -92.536833 
L 223.069091 -92.568274 
L 223.941818 -92.570504 
L 224.814545 -91.739079 
L 225.687273 -91.737416 
L 226.56 -91.731129 
L 227.432727 -91.435774 
L 228.305455 -91.415152 
L 229.178182 -91.366242 
L 230.050909 -91.284112 
L 230.923636 -91.109907 
L 231.796364 -90.759724 
L 232.669091 -90.189006 
L 233.541818 -90.063413 
L 234.414545 -89.99244 
L 235.287273 -89.912421 
L 236.16 -89.931598 
L 237.032727 -89.731257 
L 237.905455 -89.550306 
L 238.778182 -89.399031 
L 239.650909 -89.501953 
L 240.523636 -89.45032 
L 241.396364 -89.408127 
L 242.269091 -89.20248 
L 243.141818 -88.739188 
L 244.014545 -88.31568 
L 244.887273 -88.270099 
L 245.76 -88.271459 
L 246.632727 -88.269473 
L 247.505455 -88.18321 
L 248.378182 -88.171559 
L 249.250909 -88.175599 
L 250.123636 -88.186439 
L 250.996364 -88.338099 
L 251.869091 -88.736458 
L 252.741818 -89.104389 
L 253.614545 -89.495922 
L 254.487273 -90.060781 
L 255.36 -91.899778 
L 256.232727 -94.896618 
L 257.105455 -96.988029 
L 257.978182 -98.810578 
L 258.850909 -100.291326 
L 259.723636 -102.082681 
L 260.596364 -103.522408 
L 261.469091 -104.554219 
L 262.341818 -105.564353 
L 263.214545 -106.293463 
L 264.087273 -107.573481 
L 264.96 -108.630119 
L 265.832727 -109.125354 
L 266.705455 -109.510631 
L 267.578182 -110.041429 
L 268.450909 -110.186438 
L 269.323636 -109.789207 
L 270.196364 -109.28491 
L 271.069091 -108.597476 
L 271.941818 -107.603496 
L 272.814545 -107.152048 
L 273.687273 -107.305326 
L 274.56 -108.041212 
L 275.432727 -108.115611 
L 276.305455 -107.997061 
L 277.178182 -107.963677 
L 278.050909 -107.906415 
L 278.923636 -107.6817 
L 279.796364 -107.539396 
L 280.669091 -107.370942 
L 281.541818 -107.38251 
L 282.414545 -107.453772 
L 283.287273 -107.469587 
L 284.16 -107.466124 
L 285.032727 -107.204035 
L 285.905455 -107.117386 
L 286.778182 -107.259907 
L 287.650909 -107.316498 
L 288.523636 -107.393126 
L 289.396364 -108.80951 
L 290.269091 -109.283796 
L 291.141818 -109.930382 
L 292.014545 -109.608341 
L 292.887273 -109.420081 
L 293.76 -109.38615 
L 294.632727 -109.206219 
L 295.505455 -108.840098 
L 296.378182 -108.436288 
L 297.250909 -107.839862 
L 298.123636 -107.507981 
L 298.996364 -107.107354 
L 299.869091 -106.921448 
L 300.741818 -106.502838 
L 301.614545 -106.020134 
L 302.487273 -105.386165 
L 303.36 -104.541717 
L 304.232727 -102.86572 
L 305.105455 -101.189603 
L 305.978182 -100.32401 
L 306.850909 -100.410157 
L 307.723636 -100.531069 
L 308.596364 -100.531504 
L 309.469091 -100.523973 
L 310.341818 -100.65221 
L 311.214545 -100.372828 
L 312.087273 -100.326645 
L 312.96 -100.249586 
L 313.832727 -100.199952 
L 314.705455 -100.031078 
L 315.578182 -100.028905 
L 316.450909 -99.9869 
L 317.323636 -99.674277 
L 318.196364 -99.464875 
L 319.069091 -99.418053 
L 319.941818 -99.445688 
L 320.814545 -100.228228 
L 321.687273 -101.074427 
L 322.56 -102.078686 
L 323.432727 -102.506114 
L 324.305455 -103.048175 
L 325.178182 -103.635663 
L 326.050909 -103.923897 
L 326.923636 -104.223991 
L 327.796364 -104.659583 
L 328.669091 -105.358415 
L 329.541818 -106.191646 
L 330.414545 -108.551409 
L 331.287273 -110.686497 
L 332.16 -112.27274 
L 333.032727 -113.908944 
L 333.905455 -115.143626 
L 334.778182 -116.062853 
L 335.650909 -117.621761 
L 336.523636 -118.474808 
L 337.396364 -119.442824 
L 338.269091 -120.459766 
L 339.141818 -121.606907 
L 340.014545 -122.56763 
L 340.887273 -123.057656 
L 341.76 -123.88057 
L 342.632727 -124.66119 
L 343.505455 -127.381125 
L 344.378182 -129.414285 
L 345.250909 -129.877294 
L 346.123636 -131.096394 
L 346.996364 -131.774139 
L 347.869091 -132.799542 
L 348.741818 -134.213302 
L 349.614545 -136.213225 
L 350.487273 -137.959382 
L 351.36 -138.964067 
L 352.232727 -139.569496 
L 353.105455 -141.233221 
L 353.978182 -143.853351 
L 354.850909 -146.18487 
L 355.723636 -148.100688 
L 356.596364 -151.083972 
L 357.469091 -153.416212 
L 358.341818 -154.556162 
L 359.214545 -155.522831 
L 360.087273 -157.192897 
L 360.96 -158.708598 
L 361.832727 -158.75676 
L 362.705455 -158.191482 
L 363.578182 -158.199779 
L 364.450909 -158.200706 
L 365.323636 -159.686863 
L 366.196364 -159.853359 
L 367.069091 -160.679586 
L 367.941818 -161.50753 
L 368.814545 -160.963717 
L 369.687273 -160.186799 
L 370.56 -160.169036 
L 371.432727 -160.525715 
L 372.305455 -160.426208 
L 373.178182 -160.350757 
L 374.050909 -160.278717 
L 374.923636 -160.211145 
L 375.796364 -160.35107 
L 376.669091 -160.736003 
L 377.541818 -160.838566 
L 378.414545 -161.373899 
L 379.287273 -164.531348 
L 380.16 -170.21883 
L 381.032727 -175.426851 
L 381.905455 -181.061862 
L 382.778182 -184.982627 
L 383.650909 -187.395401 
L 384.523636 -191.035438 
L 385.396364 -193.446279 
L 386.269091 -196.034657 
L 387.141818 -199.635274 
L 388.014545 -205.3917 
L 388.887273 -209.873828 
L 389.76 -214.347699 
L 390.632727 -218.457239 
L 391.505455 -223.702192 
L 392.378182 -227.522058 
L 393.250909 -231.383128 
L 394.123636 -238.95813 
L 394.996364 -246.188694 
L 395.869091 -250.00729 
L 396.741818 -257.181662 
L 397.614545 -268.491958 
L 398.487273 -282.599946 
L 398.487273 -151.095706 
L 398.487273 -151.095706 
L 397.614545 -154.139675 
L 396.741818 -155.96179 
L 395.869091 -154.548101 
L 394.996364 -149.854558 
L 394.123636 -147.770224 
L 393.250909 -146.523887 
L 392.378182 -143.221641 
L 391.505455 -139.650854 
L 390.632727 -137.699043 
L 389.76 -135.850799 
L 388.887273 -134.421553 
L 388.014545 -134.121994 
L 387.141818 -135.099201 
L 386.269091 -134.942459 
L 385.396364 -134.096855 
L 384.523636 -133.949423 
L 383.650909 -134.481219 
L 382.778182 -134.238039 
L 381.905455 -135.619382 
L 381.032727 -137.436861 
L 380.16 -138.992161 
L 379.287273 -140.850454 
L 378.414545 -141.18653 
L 377.541818 -141.233733 
L 376.669091 -141.259384 
L 375.796364 -141.11148 
L 374.923636 -140.989028 
L 374.050909 -141.366765 
L 373.178182 -141.57874 
L 372.305455 -141.003081 
L 371.432727 -140.539822 
L 370.56 -139.874842 
L 369.687273 -138.052081 
L 368.814545 -135.115697 
L 367.941818 -132.824026 
L 367.069091 -131.539731 
L 366.196364 -130.385554 
L 365.323636 -128.460978 
L 364.450909 -126.971883 
L 363.578182 -125.035408 
L 362.705455 -123.521435 
L 361.832727 -121.390653 
L 360.96 -120.360002 
L 360.087273 -119.756647 
L 359.214545 -118.039966 
L 358.341818 -116.060986 
L 357.469091 -113.913148 
L 356.596364 -112.904622 
L 355.723636 -112.585195 
L 354.850909 -111.624944 
L 353.978182 -111.02805 
L 353.105455 -110.669388 
L 352.232727 -110.246653 
L 351.36 -108.888453 
L 350.487273 -107.837241 
L 349.614545 -107.414719 
L 348.741818 -107.139245 
L 347.869091 -106.712442 
L 346.996364 -106.043979 
L 346.123636 -104.411816 
L 345.250909 -103.105019 
L 344.378182 -101.315609 
L 343.505455 -100.492375 
L 342.632727 -100.322782 
L 341.76 -99.310478 
L 340.887273 -98.373204 
L 340.014545 -97.41797 
L 339.141818 -96.877199 
L 338.269091 -96.386004 
L 337.396364 -95.871241 
L 336.523636 -95.216945 
L 335.650909 -94.459466 
L 334.778182 -93.992061 
L 333.905455 -93.233504 
L 333.032727 -92.922822 
L 332.16 -92.889204 
L 331.287273 -92.86071 
L 330.414545 -93.357031 
L 329.541818 -94.23759 
L 328.669091 -94.270997 
L 327.796364 -94.296698 
L 326.923636 -94.289588 
L 326.050909 -94.171578 
L 325.178182 -94.064404 
L 324.305455 -94.122826 
L 323.432727 -94.151766 
L 322.56 -93.785431 
L 321.687273 -94.1032 
L 320.814545 -94.373282 
L 319.941818 -94.850093 
L 319.069091 -94.867809 
L 318.196364 -94.845586 
L 317.323636 -94.833437 
L 316.450909 -94.821246 
L 315.578182 -94.828731 
L 314.705455 -94.839886 
L 313.832727 -94.507201 
L 312.96 -94.368901 
L 312.087273 -94.125255 
L 311.214545 -93.807883 
L 310.341818 -93.033072 
L 309.469091 -92.791331 
L 308.596364 -92.385568 
L 307.723636 -91.958781 
L 306.850909 -91.88365 
L 305.978182 -91.712288 
L 305.105455 -91.552725 
L 304.232727 -90.732719 
L 303.36 -90.030275 
L 302.487273 -89.744679 
L 301.614545 -89.522421 
L 300.741818 -89.43314 
L 299.869091 -89.383581 
L 298.996364 -89.379616 
L 298.123636 -89.405046 
L 297.250909 -89.546013 
L 296.378182 -89.91836 
L 295.505455 -90.310136 
L 294.632727 -90.820131 
L 293.76 -91.481137 
L 292.887273 -92.666782 
L 292.014545 -93.563046 
L 291.141818 -94.705642 
L 290.269091 -96.53434 
L 289.396364 -98.003047 
L 288.523636 -100.504708 
L 287.650909 -100.890471 
L 286.778182 -100.790938 
L 285.905455 -100.51222 
L 285.032727 -100.529917 
L 284.16 -100.507002 
L 283.287273 -100.606043 
L 282.414545 -100.680267 
L 281.541818 -101.107061 
L 280.669091 -101.347457 
L 279.796364 -101.071204 
L 278.923636 -100.612044 
L 278.050909 -100.084666 
L 277.178182 -99.774643 
L 276.305455 -99.586234 
L 275.432727 -98.920386 
L 274.56 -98.409167 
L 273.687273 -98.234465 
L 272.814545 -97.797935 
L 271.941818 -96.257959 
L 271.069091 -93.785681 
L 270.196364 -91.637415 
L 269.323636 -89.765129 
L 268.450909 -88.128691 
L 267.578182 -86.597877 
L 266.705455 -85.230479 
L 265.832727 -83.936027 
L 264.96 -82.798034 
L 264.087273 -82.035524 
L 263.214545 -81.504796 
L 262.341818 -80.810022 
L 261.469091 -80.424237 
L 260.596364 -80.127716 
L 259.723636 -80.208931 
L 258.850909 -80.595404 
L 257.978182 -80.8931 
L 257.105455 -81.42337 
L 256.232727 -82.446009 
L 255.36 -84.288042 
L 254.487273 -85.426243 
L 253.614545 -85.646616 
L 252.741818 -85.681742 
L 251.869091 -85.737511 
L 250.996364 -85.853784 
L 250.123636 -85.898936 
L 249.250909 -85.874191 
L 248.378182 -85.850479 
L 247.505455 -85.798235 
L 246.632727 -85.611261 
L 245.76 -85.637773 
L 244.887273 -85.646733 
L 244.014545 -85.641772 
L 243.141818 -85.426713 
L 242.269091 -85.164531 
L 241.396364 -85.091477 
L 240.523636 -85.090633 
L 239.650909 -85.152258 
L 238.778182 -85.168725 
L 237.905455 -85.130963 
L 237.032727 -85.091688 
L 236.16 -85.085981 
L 235.287273 -85.14709 
L 234.414545 -85.296241 
L 233.541818 -85.453716 
L 232.669091 -85.51503 
L 231.796364 -85.380006 
L 230.923636 -85.427004 
L 230.050909 -85.640601 
L 229.178182 -86.058695 
L 228.305455 -86.319341 
L 227.432727 -86.672567 
L 226.56 -86.758155 
L 225.687273 -86.764901 
L 224.814545 -86.765089 
L 223.941818 -86.381578 
L 223.069091 -86.536695 
L 222.196364 -86.72598 
L 221.323636 -86.981331 
L 220.450909 -86.98228 
L 219.578182 -86.670602 
L 218.705455 -85.876109 
L 217.832727 -85.415622 
L 216.96 -84.576435 
L 216.087273 -84.411019 
L 215.214545 -84.220357 
L 214.341818 -84.039622 
L 213.469091 -83.982312 
L 212.596364 -83.955606 
L 211.723636 -83.93632 
L 210.850909 -83.935556 
L 209.978182 -83.912478 
L 209.105455 -83.95196 
L 208.232727 -83.951214 
L 207.36 -83.951272 
L 206.487273 -84.104283 
L 205.614545 -83.441342 
L 204.741818 -83.04655 
L 203.869091 -82.127013 
L 202.996364 -82.042 
L 202.123636 -81.874679 
L 201.250909 -82.14668 
L 200.378182 -82.447711 
L 199.505455 -82.599024 
L 198.632727 -82.231997 
L 197.76 -81.91603 
L 196.887273 -81.696469 
L 196.014545 -81.306553 
L 195.141818 -80.990763 
L 194.269091 -80.151149 
L 193.396364 -78.433268 
L 192.523636 -77.049125 
L 191.650909 -75.678784 
L 190.778182 -74.55937 
L 189.905455 -73.542015 
L 189.032727 -72.610092 
L 188.16 -71.214282 
L 187.287273 -69.56784 
L 186.414545 -68.224749 
L 185.541818 -67.778975 
L 184.669091 -67.972192 
L 183.796364 -67.700714 
L 182.923636 -67.532528 
L 182.050909 -66.908339 
L 181.178182 -66.60721 
L 180.305455 -66.399591 
L 179.432727 -66.886749 
L 178.56 -67.273327 
L 177.687273 -68.193052 
L 176.814545 -68.958531 
L 175.941818 -69.138987 
L 175.069091 -69.30716 
L 174.196364 -69.44824 
L 173.323636 -69.342878 
L 172.450909 -69.334094 
L 171.578182 -69.335127 
L 170.705455 -69.206322 
L 169.832727 -69.006663 
L 168.96 -68.453594 
L 168.087273 -68.108692 
L 167.214545 -66.562455 
L 166.341818 -65.939628 
L 165.469091 -65.855698 
L 164.596364 -65.846756 
L 163.723636 -65.771734 
L 162.850909 -65.773264 
L 161.978182 -65.59167 
L 161.105455 -64.463531 
L 160.232727 -64.048957 
L 159.36 -63.862109 
L 158.487273 -63.787891 
L 157.614545 -62.677725 
L 156.741818 -61.680467 
L 155.869091 -60.052959 
L 154.996364 -59.276131 
L 154.123636 -58.336253 
L 153.250909 -58.114178 
L 152.378182 -57.016362 
L 151.505455 -55.677444 
L 150.632727 -54.777102 
L 149.76 -54.269946 
L 148.887273 -53.746016 
L 148.014545 -52.452554 
L 147.141818 -51.260642 
L 146.269091 -50.51033 
L 145.396364 -50.180397 
L 144.523636 -50.112 
L 143.650909 -50.614417 
L 142.778182 -51.135475 
L 141.905455 -51.771483 
L 141.032727 -52.514632 
L 140.16 -54.227528 
L 139.287273 -56.33044 
L 138.414545 -59.155883 
L 137.541818 -61.838125 
L 136.669091 -65.378672 
L 135.796364 -68.964203 
L 134.923636 -76.481841 
L 134.050909 -77.27891 
L 133.178182 -78.350831 
L 132.305455 -79.157946 
L 131.432727 -80.392024 
L 130.56 -80.496203 
L 129.687273 -80.503903 
L 128.814545 -80.328363 
L 127.941818 -80.665016 
L 127.069091 -81.063651 
L 126.196364 -81.457929 
L 125.323636 -82.58756 
L 124.450909 -83.895307 
L 123.578182 -85.117835 
L 122.705455 -86.333176 
L 121.832727 -87.898741 
L 120.96 -88.34329 
L 120.087273 -87.587047 
L 119.214545 -86.994541 
L 118.341818 -86.640342 
L 117.469091 -86.360722 
L 116.596364 -86.102056 
L 115.723636 -86.03261 
L 114.850909 -85.659043 
L 113.978182 -85.437724 
L 113.105455 -84.552932 
L 112.232727 -83.297379 
L 111.36 -81.974707 
L 110.487273 -81.026976 
L 109.614545 -80.324869 
L 108.741818 -80.125214 
L 107.869091 -79.835603 
L 106.996364 -79.811605 
L 106.123636 -79.765151 
L 105.250909 -79.903451 
L 104.378182 -80.08266 
L 103.505455 -80.125174 
L 102.632727 -80.049571 
L 101.76 -80.024744 
L 100.887273 -79.286436 
L 100.014545 -78.847532 
L 99.141818 -78.271925 
L 98.269091 -78.271585 
L 97.396364 -77.648781 
L 96.523636 -77.707907 
L 95.650909 -77.543554 
L 94.778182 -76.822579 
L 93.905455 -75.538199 
L 93.032727 -74.4341 
L 92.16 -73.473797 
L 91.287273 -72.030566 
L 90.414545 -71.190458 
z
" id="m7559f65eaf" style="stroke:#4b0082;stroke-opacity:0.3;"/>
    </defs>
    <g clip-path="url(#p45c1b537aa)">
     <use style="fill:#4b0082;fill-opacity:0.3;stroke:#4b0082;stroke-opacity:0.3;" x="0" xlink:href="#m7559f65eaf" y="345.6"/>
    </g>
   </g>
   <g id="matplotlib.axis_1">
    <g id="xtick_1">
     <g id="line2d_1">
      <defs>
       <path d="M 0 0 
L 0 3.5 
" id="m89e777176e" style="stroke:#000000;stroke-width:0.8;"/>
      </defs>
      <g>
       <use style="stroke:#000000;stroke-width:0.8;" x="73.832727" xlink:href="#m89e777176e" y="307.584"/>
      </g>
     </g>
     <g id="text_1">
      <!-- 2020-01 -->
      <g transform="translate(52.941321 322.182437)scale(0.1 -0.1)">
       <defs>
        <path d="M 19.1875 8.296875 
L 53.609375 8.296875 
L 53.609375 0 
L 7.328125 0 
L 7.328125 8.296875 
Q 12.9375 14.109375 22.625 23.890625 
Q 32.328125 33.6875 34.8125 36.53125 
Q 39.546875 41.84375 41.421875 45.53125 
Q 43.3125 49.21875 43.3125 52.78125 
Q 43.3125 58.59375 39.234375 62.25 
Q 35.15625 65.921875 28.609375 65.921875 
Q 23.96875 65.921875 18.8125 64.3125 
Q 13.671875 62.703125 7.8125 59.421875 
L 7.8125 69.390625 
Q 13.765625 71.78125 18.9375 73 
Q 24.125 74.21875 28.421875 74.21875 
Q 39.75 74.21875 46.484375 68.546875 
Q 53.21875 62.890625 53.21875 53.421875 
Q 53.21875 48.921875 51.53125 44.890625 
Q 49.859375 40.875 45.40625 35.40625 
Q 44.1875 33.984375 37.640625 27.21875 
Q 31.109375 20.453125 19.1875 8.296875 
z
" id="DejaVuSans-50"/>
        <path d="M 31.78125 66.40625 
Q 24.171875 66.40625 20.328125 58.90625 
Q 16.5 51.421875 16.5 36.375 
Q 16.5 21.390625 20.328125 13.890625 
Q 24.171875 6.390625 31.78125 6.390625 
Q 39.453125 6.390625 43.28125 13.890625 
Q 47.125 21.390625 47.125 36.375 
Q 47.125 51.421875 43.28125 58.90625 
Q 39.453125 66.40625 31.78125 66.40625 
z
M 31.78125 74.21875 
Q 44.046875 74.21875 50.515625 64.515625 
Q 56.984375 54.828125 56.984375 36.375 
Q 56.984375 17.96875 50.515625 8.265625 
Q 44.046875 -1.421875 31.78125 -1.421875 
Q 19.53125 -1.421875 13.0625 8.265625 
Q 6.59375 17.96875 6.59375 36.375 
Q 6.59375 54.828125 13.0625 64.515625 
Q 19.53125 74.21875 31.78125 74.21875 
z
" id="DejaVuSans-48"/>
        <path d="M 4.890625 31.390625 
L 31.203125 31.390625 
L 31.203125 23.390625 
L 4.890625 23.390625 
z
" id="DejaVuSans-45"/>
        <path d="M 12.40625 8.296875 
L 28.515625 8.296875 
L 28.515625 63.921875 
L 10.984375 60.40625 
L 10.984375 69.390625 
L 28.421875 72.90625 
L 38.28125 72.90625 
L 38.28125 8.296875 
L 54.390625 8.296875 
L 54.390625 0 
L 12.40625 0 
z
" id="DejaVuSans-49"/>
       </defs>
       <use xlink:href="#DejaVuSans-50"/>
       <use x="63.623047" xlink:href="#DejaVuSans-48"/>
       <use x="127.246094" xlink:href="#DejaVuSans-50"/>
       <use x="190.869141" xlink:href="#DejaVuSans-48"/>
       <use x="254.492188" xlink:href="#DejaVuSans-45"/>
       <use x="290.576172" xlink:href="#DejaVuSans-48"/>
       <use x="354.199219" xlink:href="#DejaVuSans-49"/>
      </g>
     </g>
    </g>
    <g id="xtick_2">
     <g id="line2d_2">
      <g>
       <use style="stroke:#000000;stroke-width:0.8;" x="126.196364" xlink:href="#m89e777176e" y="307.584"/>
      </g>
     </g>
     <g id="text_2">
      <!-- 2020-03 -->
      <g transform="translate(105.304957 322.182437)scale(0.1 -0.1)">
       <defs>
        <path d="M 40.578125 39.3125 
Q 47.65625 37.796875 51.625 33 
Q 55.609375 28.21875 55.609375 21.1875 
Q 55.609375 10.40625 48.1875 4.484375 
Q 40.765625 -1.421875 27.09375 -1.421875 
Q 22.515625 -1.421875 17.65625 -0.515625 
Q 12.796875 0.390625 7.625 2.203125 
L 7.625 11.71875 
Q 11.71875 9.328125 16.59375 8.109375 
Q 21.484375 6.890625 26.8125 6.890625 
Q 36.078125 6.890625 40.9375 10.546875 
Q 45.796875 14.203125 45.796875 21.1875 
Q 45.796875 27.640625 41.28125 31.265625 
Q 36.765625 34.90625 28.71875 34.90625 
L 20.21875 34.90625 
L 20.21875 43.015625 
L 29.109375 43.015625 
Q 36.375 43.015625 40.234375 45.921875 
Q 44.09375 48.828125 44.09375 54.296875 
Q 44.09375 59.90625 40.109375 62.90625 
Q 36.140625 65.921875 28.71875 65.921875 
Q 24.65625 65.921875 20.015625 65.03125 
Q 15.375 64.15625 9.8125 62.3125 
L 9.8125 71.09375 
Q 15.4375 72.65625 20.34375 73.4375 
Q 25.25 74.21875 29.59375 74.21875 
Q 40.828125 74.21875 47.359375 69.109375 
Q 53.90625 64.015625 53.90625 55.328125 
Q 53.90625 49.265625 50.4375 45.09375 
Q 46.96875 40.921875 40.578125 39.3125 
z
" id="DejaVuSans-51"/>
       </defs>
       <use xlink:href="#DejaVuSans-50"/>
       <use x="63.623047" xlink:href="#DejaVuSans-48"/>
       <use x="127.246094" xlink:href="#DejaVuSans-50"/>
       <use x="190.869141" xlink:href="#DejaVuSans-48"/>
       <use x="254.492188" xlink:href="#DejaVuSans-45"/>
       <use x="290.576172" xlink:href="#DejaVuSans-48"/>
       <use x="354.199219" xlink:href="#DejaVuSans-51"/>
      </g>
     </g>
    </g>
    <g id="xtick_3">
     <g id="line2d_3">
      <g>
       <use style="stroke:#000000;stroke-width:0.8;" x="179.432727" xlink:href="#m89e777176e" y="307.584"/>
      </g>
     </g>
     <g id="text_3">
      <!-- 2020-05 -->
      <g transform="translate(158.541321 322.182437)scale(0.1 -0.1)">
       <defs>
        <path d="M 10.796875 72.90625 
L 49.515625 72.90625 
L 49.515625 64.59375 
L 19.828125 64.59375 
L 19.828125 46.734375 
Q 21.96875 47.46875 24.109375 47.828125 
Q 26.265625 48.1875 28.421875 48.1875 
Q 40.625 48.1875 47.75 41.5 
Q 54.890625 34.8125 54.890625 23.390625 
Q 54.890625 11.625 47.5625 5.09375 
Q 40.234375 -1.421875 26.90625 -1.421875 
Q 22.3125 -1.421875 17.546875 -0.640625 
Q 12.796875 0.140625 7.71875 1.703125 
L 7.71875 11.625 
Q 12.109375 9.234375 16.796875 8.0625 
Q 21.484375 6.890625 26.703125 6.890625 
Q 35.15625 6.890625 40.078125 11.328125 
Q 45.015625 15.765625 45.015625 23.390625 
Q 45.015625 31 40.078125 35.4375 
Q 35.15625 39.890625 26.703125 39.890625 
Q 22.75 39.890625 18.8125 39.015625 
Q 14.890625 38.140625 10.796875 36.28125 
z
" id="DejaVuSans-53"/>
       </defs>
       <use xlink:href="#DejaVuSans-50"/>
       <use x="63.623047" xlink:href="#DejaVuSans-48"/>
       <use x="127.246094" xlink:href="#DejaVuSans-50"/>
       <use x="190.869141" xlink:href="#DejaVuSans-48"/>
       <use x="254.492188" xlink:href="#DejaVuSans-45"/>
       <use x="290.576172" xlink:href="#DejaVuSans-48"/>
       <use x="354.199219" xlink:href="#DejaVuSans-53"/>
      </g>
     </g>
    </g>
    <g id="xtick_4">
     <g id="line2d_4">
      <g>
       <use style="stroke:#000000;stroke-width:0.8;" x="232.669091" xlink:href="#m89e777176e" y="307.584"/>
      </g>
     </g>
     <g id="text_4">
      <!-- 2020-07 -->
      <g transform="translate(211.777685 322.182437)scale(0.1 -0.1)">
       <defs>
        <path d="M 8.203125 72.90625 
L 55.078125 72.90625 
L 55.078125 68.703125 
L 28.609375 0 
L 18.3125 0 
L 43.21875 64.59375 
L 8.203125 64.59375 
z
" id="DejaVuSans-55"/>
       </defs>
       <use xlink:href="#DejaVuSans-50"/>
       <use x="63.623047" xlink:href="#DejaVuSans-48"/>
       <use x="127.246094" xlink:href="#DejaVuSans-50"/>
       <use x="190.869141" xlink:href="#DejaVuSans-48"/>
       <use x="254.492188" xlink:href="#DejaVuSans-45"/>
       <use x="290.576172" xlink:href="#DejaVuSans-48"/>
       <use x="354.199219" xlink:href="#DejaVuSans-55"/>
      </g>
     </g>
    </g>
    <g id="xtick_5">
     <g id="line2d_5">
      <g>
       <use style="stroke:#000000;stroke-width:0.8;" x="286.778182" xlink:href="#m89e777176e" y="307.584"/>
      </g>
     </g>
     <g id="text_5">
      <!-- 2020-09 -->
      <g transform="translate(265.886776 322.182437)scale(0.1 -0.1)">
       <defs>
        <path d="M 10.984375 1.515625 
L 10.984375 10.5 
Q 14.703125 8.734375 18.5 7.8125 
Q 22.3125 6.890625 25.984375 6.890625 
Q 35.75 6.890625 40.890625 13.453125 
Q 46.046875 20.015625 46.78125 33.40625 
Q 43.953125 29.203125 39.59375 26.953125 
Q 35.25 24.703125 29.984375 24.703125 
Q 19.046875 24.703125 12.671875 31.3125 
Q 6.296875 37.9375 6.296875 49.421875 
Q 6.296875 60.640625 12.9375 67.421875 
Q 19.578125 74.21875 30.609375 74.21875 
Q 43.265625 74.21875 49.921875 64.515625 
Q 56.59375 54.828125 56.59375 36.375 
Q 56.59375 19.140625 48.40625 8.859375 
Q 40.234375 -1.421875 26.421875 -1.421875 
Q 22.703125 -1.421875 18.890625 -0.6875 
Q 15.09375 0.046875 10.984375 1.515625 
z
M 30.609375 32.421875 
Q 37.25 32.421875 41.125 36.953125 
Q 45.015625 41.5 45.015625 49.421875 
Q 45.015625 57.28125 41.125 61.84375 
Q 37.25 66.40625 30.609375 66.40625 
Q 23.96875 66.40625 20.09375 61.84375 
Q 16.21875 57.28125 16.21875 49.421875 
Q 16.21875 41.5 20.09375 36.953125 
Q 23.96875 32.421875 30.609375 32.421875 
z
" id="DejaVuSans-57"/>
       </defs>
       <use xlink:href="#DejaVuSans-50"/>
       <use x="63.623047" xlink:href="#DejaVuSans-48"/>
       <use x="127.246094" xlink:href="#DejaVuSans-50"/>
       <use x="190.869141" xlink:href="#DejaVuSans-48"/>
       <use x="254.492188" xlink:href="#DejaVuSans-45"/>
       <use x="290.576172" xlink:href="#DejaVuSans-48"/>
       <use x="354.199219" xlink:href="#DejaVuSans-57"/>
      </g>
     </g>
    </g>
    <g id="xtick_6">
     <g id="line2d_6">
      <g>
       <use style="stroke:#000000;stroke-width:0.8;" x="340.014545" xlink:href="#m89e777176e" y="307.584"/>
      </g>
     </g>
     <g id="text_6">
      <!-- 2020-11 -->
      <g transform="translate(319.123139 322.182437)scale(0.1 -0.1)">
       <use xlink:href="#DejaVuSans-50"/>
       <use x="63.623047" xlink:href="#DejaVuSans-48"/>
       <use x="127.246094" xlink:href="#DejaVuSans-50"/>
       <use x="190.869141" xlink:href="#DejaVuSans-48"/>
       <use x="254.492188" xlink:href="#DejaVuSans-45"/>
       <use x="290.576172" xlink:href="#DejaVuSans-49"/>
       <use x="354.199219" xlink:href="#DejaVuSans-49"/>
      </g>
     </g>
    </g>
    <g id="xtick_7">
     <g id="line2d_7">
      <g>
       <use style="stroke:#000000;stroke-width:0.8;" x="393.250909" xlink:href="#m89e777176e" y="307.584"/>
      </g>
     </g>
     <g id="text_7">
      <!-- 2021-01 -->
      <g transform="translate(372.359503 322.182437)scale(0.1 -0.1)">
       <use xlink:href="#DejaVuSans-50"/>
       <use x="63.623047" xlink:href="#DejaVuSans-48"/>
       <use x="127.246094" xlink:href="#DejaVuSans-50"/>
       <use x="190.869141" xlink:href="#DejaVuSans-49"/>
       <use x="254.492188" xlink:href="#DejaVuSans-45"/>
       <use x="290.576172" xlink:href="#DejaVuSans-48"/>
       <use x="354.199219" xlink:href="#DejaVuSans-49"/>
      </g>
     </g>
    </g>
   </g>
   <g id="matplotlib.axis_2">
    <g id="ytick_1">
     <g id="line2d_8">
      <defs>
       <path d="M 0 0 
L -3.5 0 
" id="m37b1bde6a8" style="stroke:#000000;stroke-width:0.8;"/>
      </defs>
      <g>
       <use style="stroke:#000000;stroke-width:0.8;" x="57.6" xlink:href="#m37b1bde6a8" y="286.973523"/>
      </g>
     </g>
     <g id="text_8">
      <!-- 5000 -->
      <g transform="translate(25.15 290.772741)scale(0.1 -0.1)">
       <use xlink:href="#DejaVuSans-53"/>
       <use x="63.623047" xlink:href="#DejaVuSans-48"/>
       <use x="127.246094" xlink:href="#DejaVuSans-48"/>
       <use x="190.869141" xlink:href="#DejaVuSans-48"/>
      </g>
     </g>
    </g>
    <g id="ytick_2">
     <g id="line2d_9">
      <g>
       <use style="stroke:#000000;stroke-width:0.8;" x="57.6" xlink:href="#m37b1bde6a8" y="253.122701"/>
      </g>
     </g>
     <g id="text_9">
      <!-- 10000 -->
      <g transform="translate(18.7875 256.92192)scale(0.1 -0.1)">
       <use xlink:href="#DejaVuSans-49"/>
       <use x="63.623047" xlink:href="#DejaVuSans-48"/>
       <use x="127.246094" xlink:href="#DejaVuSans-48"/>
       <use x="190.869141" xlink:href="#DejaVuSans-48"/>
       <use x="254.492188" xlink:href="#DejaVuSans-48"/>
      </g>
     </g>
    </g>
    <g id="ytick_3">
     <g id="line2d_10">
      <g>
       <use style="stroke:#000000;stroke-width:0.8;" x="57.6" xlink:href="#m37b1bde6a8" y="219.271879"/>
      </g>
     </g>
     <g id="text_10">
      <!-- 15000 -->
      <g transform="translate(18.7875 223.071098)scale(0.1 -0.1)">
       <use xlink:href="#DejaVuSans-49"/>
       <use x="63.623047" xlink:href="#DejaVuSans-53"/>
       <use x="127.246094" xlink:href="#DejaVuSans-48"/>
       <use x="190.869141" xlink:href="#DejaVuSans-48"/>
       <use x="254.492188" xlink:href="#DejaVuSans-48"/>
      </g>
     </g>
    </g>
    <g id="ytick_4">
     <g id="line2d_11">
      <g>
       <use style="stroke:#000000;stroke-width:0.8;" x="57.6" xlink:href="#m37b1bde6a8" y="185.421058"/>
      </g>
     </g>
     <g id="text_11">
      <!-- 20000 -->
      <g transform="translate(18.7875 189.220277)scale(0.1 -0.1)">
       <use xlink:href="#DejaVuSans-50"/>
       <use x="63.623047" xlink:href="#DejaVuSans-48"/>
       <use x="127.246094" xlink:href="#DejaVuSans-48"/>
       <use x="190.869141" xlink:href="#DejaVuSans-48"/>
       <use x="254.492188" xlink:href="#DejaVuSans-48"/>
      </g>
     </g>
    </g>
    <g id="ytick_5">
     <g id="line2d_12">
      <g>
       <use style="stroke:#000000;stroke-width:0.8;" x="57.6" xlink:href="#m37b1bde6a8" y="151.570236"/>
      </g>
     </g>
     <g id="text_12">
      <!-- 25000 -->
      <g transform="translate(18.7875 155.369455)scale(0.1 -0.1)">
       <use xlink:href="#DejaVuSans-50"/>
       <use x="63.623047" xlink:href="#DejaVuSans-53"/>
       <use x="127.246094" xlink:href="#DejaVuSans-48"/>
       <use x="190.869141" xlink:href="#DejaVuSans-48"/>
       <use x="254.492188" xlink:href="#DejaVuSans-48"/>
      </g>
     </g>
    </g>
    <g id="ytick_6">
     <g id="line2d_13">
      <g>
       <use style="stroke:#000000;stroke-width:0.8;" x="57.6" xlink:href="#m37b1bde6a8" y="117.719414"/>
      </g>
     </g>
     <g id="text_13">
      <!-- 30000 -->
      <g transform="translate(18.7875 121.518633)scale(0.1 -0.1)">
       <use xlink:href="#DejaVuSans-51"/>
       <use x="63.623047" xlink:href="#DejaVuSans-48"/>
       <use x="127.246094" xlink:href="#DejaVuSans-48"/>
       <use x="190.869141" xlink:href="#DejaVuSans-48"/>
       <use x="254.492188" xlink:href="#DejaVuSans-48"/>
      </g>
     </g>
    </g>
    <g id="ytick_7">
     <g id="line2d_14">
      <g>
       <use style="stroke:#000000;stroke-width:0.8;" x="57.6" xlink:href="#m37b1bde6a8" y="83.868593"/>
      </g>
     </g>
     <g id="text_14">
      <!-- 35000 -->
      <g transform="translate(18.7875 87.667812)scale(0.1 -0.1)">
       <use xlink:href="#DejaVuSans-51"/>
       <use x="63.623047" xlink:href="#DejaVuSans-53"/>
       <use x="127.246094" xlink:href="#DejaVuSans-48"/>
       <use x="190.869141" xlink:href="#DejaVuSans-48"/>
       <use x="254.492188" xlink:href="#DejaVuSans-48"/>
      </g>
     </g>
    </g>
    <g id="ytick_8">
     <g id="line2d_15">
      <g>
       <use style="stroke:#000000;stroke-width:0.8;" x="57.6" xlink:href="#m37b1bde6a8" y="50.017771"/>
      </g>
     </g>
     <g id="text_15">
      <!-- 40000 -->
      <g transform="translate(18.7875 53.81699)scale(0.1 -0.1)">
       <defs>
        <path d="M 37.796875 64.3125 
L 12.890625 25.390625 
L 37.796875 25.390625 
z
M 35.203125 72.90625 
L 47.609375 72.90625 
L 47.609375 25.390625 
L 58.015625 25.390625 
L 58.015625 17.1875 
L 47.609375 17.1875 
L 47.609375 0 
L 37.796875 0 
L 37.796875 17.1875 
L 4.890625 17.1875 
L 4.890625 26.703125 
z
" id="DejaVuSans-52"/>
       </defs>
       <use xlink:href="#DejaVuSans-52"/>
       <use x="63.623047" xlink:href="#DejaVuSans-48"/>
       <use x="127.246094" xlink:href="#DejaVuSans-48"/>
       <use x="190.869141" xlink:href="#DejaVuSans-48"/>
       <use x="254.492188" xlink:href="#DejaVuSans-48"/>
      </g>
     </g>
    </g>
   </g>
   <g id="line2d_16">
    <path clip-path="url(#p45c1b537aa)" d="M 90.414545 257.608304 
L 91.287273 257.406389 
L 93.905455 258.323999 
L 94.778182 258.944369 
L 95.650909 259.096029 
L 96.523636 258.756854 
L 97.396364 257.783485 
L 98.269091 257.408681 
L 99.141818 256.515725 
L 100.887273 255.810963 
L 101.76 255.718165 
L 102.632727 255.415169 
L 103.505455 255.242408 
L 105.250909 253.831312 
L 106.996364 252.313322 
L 107.869091 251.301488 
L 108.741818 250.829378 
L 109.614545 249.94236 
L 110.487273 249.320354 
L 111.36 249.053796 
L 112.232727 249.009128 
L 113.105455 249.38437 
L 113.978182 249.575428 
L 114.850909 249.584972 
L 115.723636 249.352327 
L 117.469091 249.446238 
L 119.214545 249.645642 
L 120.087273 249.776674 
L 120.96 250.201655 
L 121.832727 249.959861 
L 122.705455 249.044521 
L 124.450909 248.078491 
L 126.196364 247.628392 
L 127.069091 248.141212 
L 128.814545 249.465383 
L 129.687273 250.509862 
L 131.432727 251.588258 
L 132.305455 251.475245 
L 133.178182 252.185613 
L 134.050909 252.260729 
L 134.923636 252.584895 
L 135.796364 248.304393 
L 136.669091 247.452835 
L 137.541818 247.155841 
L 138.414545 247.387866 
L 139.287273 247.453446 
L 140.16 247.68829 
L 141.032727 248.28061 
L 143.650909 251.261559 
L 146.269091 256.166668 
L 147.141818 258.53205 
L 148.887273 264.173961 
L 151.505455 269.637051 
L 152.378182 271.992319 
L 153.250909 271.900032 
L 154.123636 271.307335 
L 154.996364 271.192589 
L 155.869091 270.945189 
L 156.741818 271.39812 
L 157.614545 271.067981 
L 158.487273 270.858813 
L 159.36 270.147096 
L 160.232727 269.58358 
L 161.105455 269.515894 
L 161.978182 269.959989 
L 162.850909 269.701178 
L 165.469091 269.640844 
L 166.341818 269.483016 
L 167.214545 269.523402 
L 168.087273 270.15932 
L 168.96 270.096764 
L 169.832727 270.347639 
L 170.705455 270.422152 
L 171.578182 270.344602 
L 172.450909 269.790532 
L 176.814545 267.755009 
L 177.687273 266.34061 
L 178.56 264.181403 
L 180.305455 260.798971 
L 181.178182 259.614682 
L 182.923636 257.771401 
L 184.669091 255.176526 
L 185.541818 253.114704 
L 186.414545 251.820435 
L 189.032727 252.711355 
L 189.905455 252.59915 
L 190.778182 252.208526 
L 191.650909 252.024689 
L 192.523636 252.134148 
L 193.396364 252.096049 
L 194.269091 252.519204 
L 195.141818 252.332258 
L 196.014545 251.949736 
L 198.632727 252.05074 
L 199.505455 252.145762 
L 201.250909 252.033185 
L 202.123636 252.067804 
L 202.996364 252.76233 
L 204.741818 253.230063 
L 205.614545 253.159008 
L 206.487273 253.256641 
L 207.36 252.40136 
L 209.105455 252.389983 
L 209.978182 252.098817 
L 213.469091 252.353479 
L 215.214545 251.903947 
L 216.96 251.909075 
L 219.578182 253.001636 
L 220.450909 253.13276 
L 223.941818 253.029496 
L 224.814545 253.860921 
L 226.56 253.868871 
L 227.432727 254.164226 
L 230.050909 254.315888 
L 230.923636 254.490093 
L 231.796364 254.840276 
L 232.669091 255.410994 
L 235.287273 255.687579 
L 236.16 255.668402 
L 238.778182 256.200969 
L 239.650909 256.098047 
L 241.396364 256.191873 
L 242.269091 256.39752 
L 244.014545 257.28432 
L 248.378182 257.428441 
L 250.123636 257.413561 
L 250.996364 257.261901 
L 253.614545 256.104078 
L 254.487273 255.539219 
L 255.36 253.700222 
L 256.232727 250.703382 
L 257.978182 246.789422 
L 258.850909 245.308674 
L 259.723636 243.517319 
L 260.596364 242.077592 
L 262.341818 240.035647 
L 263.214545 239.306537 
L 264.087273 238.026519 
L 264.96 236.969881 
L 267.578182 235.558571 
L 268.450909 235.413562 
L 270.196364 236.31509 
L 271.069091 237.002524 
L 271.941818 237.996504 
L 272.814545 238.447952 
L 273.687273 238.294674 
L 274.56 237.558788 
L 275.432727 237.484389 
L 277.178182 237.636323 
L 278.050909 237.693585 
L 279.796364 238.060604 
L 280.669091 238.229058 
L 284.16 238.133876 
L 285.032727 238.395965 
L 285.905455 238.482614 
L 287.650909 238.283502 
L 288.523636 238.206874 
L 289.396364 236.79049 
L 290.269091 236.316204 
L 291.141818 235.669618 
L 292.014545 235.991659 
L 292.887273 236.179919 
L 293.76 236.21385 
L 294.632727 236.393781 
L 296.378182 237.163712 
L 297.250909 237.760138 
L 300.741818 239.097162 
L 301.614545 239.579866 
L 302.487273 240.213835 
L 303.36 241.058283 
L 305.105455 244.410397 
L 305.978182 245.27599 
L 308.596364 245.068496 
L 309.469091 245.076027 
L 310.341818 244.94779 
L 311.214545 245.227172 
L 313.832727 245.400048 
L 314.705455 245.568922 
L 316.450909 245.6131 
L 318.196364 246.135125 
L 319.941818 246.154312 
L 321.687273 244.525573 
L 322.56 243.521314 
L 324.305455 242.551825 
L 325.178182 241.964337 
L 326.923636 241.376009 
L 327.796364 240.940417 
L 329.541818 239.408354 
L 331.287273 234.913503 
L 333.032727 231.691056 
L 333.905455 230.456374 
L 334.778182 229.537147 
L 335.650909 227.978239 
L 337.396364 226.157176 
L 340.014545 223.03237 
L 340.887273 222.542344 
L 342.632727 220.93881 
L 343.505455 218.218875 
L 344.378182 216.185715 
L 345.250909 215.722706 
L 346.123636 214.503606 
L 346.996364 213.825861 
L 347.869091 212.800458 
L 348.741818 211.386698 
L 350.487273 207.640618 
L 351.36 206.635933 
L 352.232727 206.030504 
L 353.105455 204.366779 
L 354.850909 199.41513 
L 355.723636 197.499312 
L 356.596364 194.516028 
L 357.469091 192.183788 
L 359.214545 190.077169 
L 360.96 186.891402 
L 361.832727 186.84324 
L 362.705455 187.408518 
L 364.450909 187.399294 
L 365.323636 185.913137 
L 366.196364 185.746641 
L 367.941818 184.09247 
L 368.814545 184.636283 
L 369.687273 185.413201 
L 370.56 185.430964 
L 371.432727 185.074285 
L 374.923636 185.388855 
L 375.796364 185.24893 
L 376.669091 184.863997 
L 377.541818 184.761434 
L 378.414545 184.226101 
L 379.287273 181.068652 
L 381.905455 164.538138 
L 382.778182 160.617373 
L 383.650909 158.204599 
L 384.523636 154.564562 
L 386.269091 149.565343 
L 387.141818 145.964726 
L 388.014545 140.2083 
L 392.378182 118.077942 
L 393.250909 114.216872 
L 394.996364 99.411306 
L 395.869091 95.59271 
L 396.741818 88.418338 
L 397.614545 77.108042 
L 398.487273 63.000054 
L 398.487273 63.000054 
" style="fill:none;stroke:#1f77b4;stroke-linecap:square;stroke-width:1.5;"/>
   </g>
   <g id="line2d_17">
    <path clip-path="url(#p45c1b537aa)" d="M 90.414545 274.409542 
L 91.287273 273.569434 
L 92.16 272.126203 
L 93.905455 270.061801 
L 94.778182 268.777421 
L 95.650909 268.056446 
L 96.523636 267.892093 
L 97.396364 267.951219 
L 98.269091 267.328415 
L 99.141818 267.328075 
L 100.014545 266.752468 
L 100.887273 266.313564 
L 101.76 265.575256 
L 104.378182 265.51734 
L 106.123636 265.834849 
L 107.869091 265.764397 
L 109.614545 265.275131 
L 110.487273 264.573024 
L 111.36 263.625293 
L 113.105455 261.047068 
L 113.978182 260.162276 
L 114.850909 259.940957 
L 115.723636 259.56739 
L 116.596364 259.497944 
L 118.341818 258.959658 
L 119.214545 258.605459 
L 120.087273 258.012953 
L 120.96 257.25671 
L 121.832727 257.701259 
L 122.705455 259.266824 
L 126.196364 264.142071 
L 128.814545 265.271637 
L 129.687273 265.096097 
L 131.432727 265.207976 
L 132.305455 266.442054 
L 133.178182 267.249169 
L 134.050909 268.32109 
L 134.923636 269.118159 
L 135.796364 276.635797 
L 137.541818 283.761875 
L 139.287273 289.26956 
L 140.16 291.372472 
L 141.032727 293.085368 
L 142.778182 294.464525 
L 144.523636 295.488 
L 145.396364 295.419603 
L 146.269091 295.08967 
L 147.141818 294.339358 
L 148.887273 291.853984 
L 150.632727 290.822898 
L 151.505455 289.922556 
L 152.378182 288.583638 
L 153.250909 287.485822 
L 154.123636 287.263747 
L 155.869091 285.547041 
L 156.741818 283.919533 
L 158.487273 281.812109 
L 159.36 281.737891 
L 160.232727 281.551043 
L 161.105455 281.136469 
L 161.978182 280.00833 
L 162.850909 279.826736 
L 165.469091 279.744302 
L 166.341818 279.660372 
L 167.214545 279.037545 
L 168.087273 277.491308 
L 168.96 277.146406 
L 169.832727 276.593337 
L 171.578182 276.264873 
L 173.323636 276.257122 
L 174.196364 276.15176 
L 176.814545 276.641469 
L 177.687273 277.406948 
L 178.56 278.326673 
L 180.305455 279.200409 
L 182.050909 278.691661 
L 182.923636 278.067472 
L 184.669091 277.627808 
L 185.541818 277.821025 
L 186.414545 277.375251 
L 187.287273 276.03216 
L 188.16 274.385718 
L 189.032727 272.989908 
L 190.778182 271.04063 
L 191.650909 269.921216 
L 193.396364 267.166732 
L 194.269091 265.448851 
L 195.141818 264.609237 
L 199.505455 263.000976 
L 200.378182 263.152289 
L 202.123636 263.725321 
L 203.869091 263.472987 
L 204.741818 262.55345 
L 205.614545 262.158658 
L 206.487273 261.495717 
L 207.36 261.648728 
L 214.341818 261.560378 
L 216.96 261.023565 
L 217.832727 260.184378 
L 218.705455 259.723891 
L 219.578182 258.929398 
L 220.450909 258.61772 
L 221.323636 258.618669 
L 223.069091 259.063305 
L 223.941818 259.218422 
L 224.814545 258.834911 
L 227.432727 258.927433 
L 230.050909 259.959399 
L 230.923636 260.172996 
L 231.796364 260.219994 
L 232.669091 260.08497 
L 234.414545 260.303759 
L 236.16 260.514019 
L 242.269091 260.435469 
L 244.014545 259.958228 
L 246.632727 259.988739 
L 247.505455 259.801765 
L 250.123636 259.701064 
L 253.614545 259.953384 
L 254.487273 260.173757 
L 255.36 261.311958 
L 256.232727 263.153991 
L 257.105455 264.17663 
L 257.978182 264.7069 
L 259.723636 265.391069 
L 260.596364 265.472284 
L 262.341818 264.789978 
L 263.214545 264.095204 
L 264.087273 263.564476 
L 264.96 262.801966 
L 266.705455 260.369521 
L 268.450909 257.471309 
L 270.196364 253.962585 
L 271.069091 251.814319 
L 271.941818 249.342041 
L 272.814545 247.802065 
L 273.687273 247.365535 
L 274.56 247.190833 
L 275.432727 246.679614 
L 276.305455 246.013766 
L 277.178182 245.825357 
L 278.050909 245.515334 
L 279.796364 244.528796 
L 280.669091 244.252543 
L 281.541818 244.492939 
L 282.414545 244.919733 
L 285.032727 245.070083 
L 285.905455 245.08778 
L 286.778182 244.809062 
L 287.650909 244.709529 
L 288.523636 245.095292 
L 289.396364 247.596953 
L 290.269091 249.06566 
L 291.141818 250.894358 
L 292.014545 252.036954 
L 292.887273 252.933218 
L 293.76 254.118863 
L 294.632727 254.779869 
L 296.378182 255.68164 
L 297.250909 256.053987 
L 298.123636 256.194954 
L 300.741818 256.16686 
L 301.614545 256.077579 
L 303.36 255.569725 
L 305.105455 254.047275 
L 307.723636 253.641219 
L 309.469091 252.808669 
L 310.341818 252.566928 
L 311.214545 251.792117 
L 312.96 251.231099 
L 313.832727 251.092799 
L 314.705455 250.760114 
L 319.941818 250.749907 
L 320.814545 251.226718 
L 322.56 251.814569 
L 323.432727 251.448234 
L 326.050909 251.428422 
L 327.796364 251.303302 
L 329.541818 251.36241 
L 330.414545 252.242969 
L 331.287273 252.73929 
L 333.032727 252.677178 
L 333.905455 252.366496 
L 334.778182 251.607939 
L 335.650909 251.140534 
L 337.396364 249.728759 
L 340.014545 248.18203 
L 342.632727 245.277218 
L 343.505455 245.107625 
L 344.378182 244.284391 
L 345.250909 242.494981 
L 346.123636 241.188184 
L 346.996364 239.556021 
L 347.869091 238.887558 
L 348.741818 238.460755 
L 349.614545 238.185281 
L 350.487273 237.762759 
L 351.36 236.711547 
L 352.232727 235.353347 
L 354.850909 233.975056 
L 355.723636 233.014805 
L 356.596364 232.695378 
L 357.469091 231.686852 
L 359.214545 227.560034 
L 360.087273 225.843353 
L 360.96 225.239998 
L 361.832727 224.209347 
L 362.705455 222.078565 
L 363.578182 220.564592 
L 364.450909 218.628117 
L 365.323636 217.139022 
L 366.196364 215.214446 
L 367.941818 212.775974 
L 368.814545 210.484303 
L 369.687273 207.547919 
L 370.56 205.725158 
L 371.432727 205.060178 
L 373.178182 204.02126 
L 374.050909 204.233235 
L 374.923636 204.610972 
L 376.669091 204.340616 
L 378.414545 204.41347 
L 379.287273 204.749546 
L 380.16 206.607839 
L 381.032727 208.163139 
L 381.905455 209.980618 
L 382.778182 211.361961 
L 383.650909 211.118781 
L 384.523636 211.650577 
L 385.396364 211.503145 
L 386.269091 210.657541 
L 387.141818 210.500799 
L 388.014545 211.478006 
L 388.887273 211.178447 
L 389.76 209.749201 
L 391.505455 205.949146 
L 393.250909 199.076113 
L 394.123636 197.829776 
L 394.996364 195.745442 
L 395.869091 191.051899 
L 396.741818 189.63821 
L 397.614545 191.460325 
L 398.487273 194.504294 
L 398.487273 194.504294 
" style="fill:none;stroke:#ff7f0e;stroke-linecap:square;stroke-width:1.5;"/>
   </g>
   <g id="line2d_18">
    <path clip-path="url(#p45c1b537aa)" d="M 90.414545 266.008923 
L 93.032727 264.558704 
L 95.650909 263.576238 
L 96.523636 263.324474 
L 101.76 260.64671 
L 104.378182 260.055148 
L 106.123636 259.456759 
L 108.741818 258.152082 
L 110.487273 256.946689 
L 113.105455 255.215719 
L 113.978182 254.868852 
L 114.850909 254.762965 
L 115.723636 254.459859 
L 117.469091 254.342758 
L 119.214545 254.125551 
L 120.96 253.729183 
L 121.832727 253.83056 
L 124.450909 254.891592 
L 126.196364 255.885231 
L 130.56 258.052754 
L 131.432727 258.398117 
L 132.305455 258.95865 
L 133.178182 259.717391 
L 134.923636 260.851527 
L 135.796364 262.470095 
L 136.669091 263.837081 
L 138.414545 266.915991 
L 139.287273 268.361503 
L 141.032727 270.682989 
L 145.396364 274.950778 
L 147.141818 276.435704 
L 148.887273 278.013972 
L 151.505455 279.779803 
L 152.378182 280.287979 
L 153.250909 279.692927 
L 154.996364 278.758229 
L 156.741818 277.658826 
L 158.487273 276.335461 
L 160.232727 275.567312 
L 162.850909 274.763957 
L 165.469091 274.692573 
L 166.341818 274.571694 
L 167.214545 274.280474 
L 168.087273 273.825314 
L 169.832727 273.470488 
L 171.578182 273.304738 
L 174.196364 272.537389 
L 176.814545 272.198239 
L 177.687273 271.873779 
L 182.050909 268.655066 
L 184.669091 266.402167 
L 186.414545 264.597843 
L 187.287273 264.066676 
L 189.032727 262.850632 
L 189.905455 262.328567 
L 193.396364 259.631391 
L 195.141818 258.470748 
L 196.014545 258.121592 
L 197.76 257.833882 
L 199.505455 257.573369 
L 201.250909 257.743252 
L 203.869091 258.259162 
L 204.741818 257.891757 
L 206.487273 257.376179 
L 207.36 257.025044 
L 209.105455 257.019011 
L 209.978182 256.893169 
L 213.469091 256.985584 
L 221.323636 255.875617 
L 227.432727 256.545829 
L 234.414545 257.955659 
L 237.032727 258.188528 
L 238.778182 258.316122 
L 240.523636 258.329524 
L 242.269091 258.416495 
L 244.887273 258.641584 
L 250.123636 258.557313 
L 251.869091 258.363016 
L 254.487273 257.856488 
L 255.36 257.50609 
L 258.850909 255.156635 
L 263.214545 251.700871 
L 267.578182 247.280347 
L 268.450909 246.442436 
L 270.196364 245.138837 
L 271.941818 243.669273 
L 272.814545 243.125009 
L 273.687273 242.830104 
L 274.56 242.374811 
L 276.305455 241.808352 
L 278.050909 241.60446 
L 280.669091 241.240801 
L 285.032727 241.733024 
L 285.905455 241.785197 
L 286.778182 241.574578 
L 287.650909 241.496516 
L 288.523636 241.651083 
L 291.141818 243.281988 
L 292.014545 244.014307 
L 294.632727 245.586825 
L 297.250909 246.907063 
L 298.996364 247.356515 
L 300.741818 247.632011 
L 303.36 248.314004 
L 305.105455 249.228836 
L 305.978182 249.581851 
L 308.596364 249.141464 
L 312.087273 248.37405 
L 314.705455 248.164518 
L 316.450909 248.195927 
L 318.196364 248.444769 
L 319.941818 248.452109 
L 320.814545 248.299245 
L 322.56 247.667941 
L 323.432727 247.27106 
L 326.923636 246.343211 
L 327.796364 246.12186 
L 329.541818 245.385382 
L 331.287273 243.826397 
L 334.778182 240.572543 
L 335.650909 239.559386 
L 340.014545 235.6072 
L 340.887273 234.88457 
L 342.632727 233.108014 
L 344.378182 230.235053 
L 347.869091 225.844008 
L 348.741818 224.923727 
L 351.36 221.67374 
L 353.105455 219.648696 
L 356.596364 213.605703 
L 360.087273 207.125228 
L 360.96 206.0657 
L 361.832727 205.526294 
L 363.578182 203.982407 
L 364.450909 203.013706 
L 365.323636 201.526079 
L 367.941818 198.434222 
L 368.814545 197.560293 
L 369.687273 196.48056 
L 370.56 195.578061 
L 371.432727 195.067231 
L 373.178182 194.635251 
L 374.923636 194.999913 
L 375.796364 194.868725 
L 376.669091 194.602307 
L 377.541818 194.56385 
L 378.414545 194.319785 
L 379.287273 192.909099 
L 381.905455 187.259378 
L 383.650909 184.66169 
L 384.523636 183.10757 
L 385.396364 181.828433 
L 387.141818 178.232763 
L 388.887273 173.45231 
L 390.632727 167.521859 
L 393.250909 156.646492 
L 397.614545 134.284184 
L 398.487273 128.752174 
L 398.487273 128.752174 
" style="fill:none;stroke:#2ca02c;stroke-linecap:square;stroke-width:1.5;"/>
   </g>
   <g id="line2d_19">
    <path clip-path="url(#p45c1b537aa)" d="M 73.832727 272.157267 
L 74.705455 273.693383 
L 75.578182 271.08679 
L 77.323636 271.020905 
L 79.069091 265.594957 
L 79.941818 266.37277 
L 80.814545 267.902489 
L 81.687273 265.381675 
L 82.56 266.551818 
L 83.432727 265.45196 
L 84.305455 265.948924 
L 85.178182 261.196618 
L 86.050909 261.189442 
L 86.923636 261.809409 
L 87.796364 260.635891 
L 88.669091 260.561961 
L 89.541818 261.933585 
L 90.414545 262.389104 
L 91.287273 261.737036 
L 92.16 262.187883 
L 93.032727 264.008144 
L 93.905455 263.707921 
L 94.778182 264.380796 
L 96.523636 260.559681 
L 97.396364 257.230341 
L 98.269091 257.926403 
L 99.141818 256.448714 
L 100.014545 257.549486 
L 100.887273 257.261562 
L 102.632727 257.918392 
L 103.505455 258.705807 
L 104.378182 255.740024 
L 105.250909 254.811541 
L 106.123636 254.418533 
L 106.996364 253.815571 
L 107.869091 252.030787 
L 108.741818 254.119822 
L 109.614545 251.32116 
L 110.487273 250.767011 
L 111.36 251.565033 
L 112.232727 250.7074 
L 113.105455 253.77926 
L 113.978182 253.622339 
L 114.850909 255.112588 
L 115.723636 251.864285 
L 116.596364 255.874908 
L 117.469091 255.781277 
L 118.341818 255.183821 
L 119.214545 255.371456 
L 120.087273 253.303645 
L 121.832727 257.767575 
L 122.705455 261.313787 
L 123.578182 261.134615 
L 124.450909 261.817882 
L 125.323636 263.017985 
L 126.196364 263.005403 
L 127.069091 260.392153 
L 127.941818 261.462325 
L 128.814545 261.464311 
L 129.687273 259.396782 
L 130.56 258.774761 
L 131.432727 260.529588 
L 132.305455 266.323247 
L 133.178182 267.039112 
L 134.050909 267.345282 
L 134.923636 266.993617 
L 135.796364 287.555181 
L 136.669091 282.711185 
L 137.541818 285.739175 
L 138.414545 284.535857 
L 139.287273 286.677813 
L 140.16 284.691346 
L 141.032727 284.186776 
L 141.905455 278.982901 
L 142.778182 278.804563 
L 143.650909 278.86545 
L 144.523636 281.532545 
L 145.396364 276.866074 
L 146.269091 275.01212 
L 147.141818 275.547483 
L 148.014545 275.39688 
L 148.887273 275.472841 
L 149.76 278.669611 
L 150.632727 281.002192 
L 151.505455 276.352455 
L 152.378182 277.157123 
L 153.250909 275.654146 
L 154.123636 274.563473 
L 154.996364 275.192929 
L 155.869091 274.29358 
L 156.741818 274.932041 
L 157.614545 271.417378 
L 158.487273 270.99343 
L 160.232727 271.300931 
L 161.105455 274.042847 
L 161.978182 274.692106 
L 162.850909 272.462014 
L 163.723636 275.037283 
L 164.596364 274.211086 
L 165.469091 275.280433 
L 166.341818 273.055267 
L 167.214545 272.845205 
L 168.087273 271.899007 
L 168.96 272.277865 
L 169.832727 274.135192 
L 170.705455 274.402682 
L 171.578182 272.499927 
L 172.450909 269.662551 
L 173.323636 270.028478 
L 174.196364 269.38054 
L 175.069091 269.353222 
L 175.941818 268.867564 
L 176.814545 268.53058 
L 177.687273 264.811728 
L 178.56 261.64803 
L 179.432727 261.439357 
L 180.305455 260.627801 
L 181.178182 261.118197 
L 182.050909 261.237691 
L 182.923636 260.567851 
L 183.796364 258.20745 
L 184.669091 257.347622 
L 185.541818 253.212964 
L 186.414545 254.877426 
L 187.287273 263.511857 
L 188.16 260.860576 
L 189.032727 261.721148 
L 189.905455 259.221265 
L 190.778182 255.948686 
L 192.523636 256.7444 
L 193.396364 254.645142 
L 194.269091 255.583317 
L 195.141818 254.546128 
L 196.014545 254.664911 
L 196.887273 257.623845 
L 197.76 258.68913 
L 199.505455 258.517642 
L 200.378182 261.40708 
L 201.250909 260.765878 
L 202.123636 260.41383 
L 202.996364 258.48501 
L 203.869091 256.857361 
L 204.741818 256.163757 
L 205.614545 256.20211 
L 206.487273 256.068061 
L 207.36 252.198574 
L 208.232727 255.868341 
L 209.105455 256.307725 
L 209.978182 254.227558 
L 210.850909 255.290846 
L 211.723636 255.68487 
L 212.596364 254.948174 
L 213.469091 255.363896 
L 215.214545 254.493659 
L 216.087273 256.670606 
L 216.96 256.965531 
L 217.832727 257.036567 
L 218.705455 258.96366 
L 219.578182 256.570492 
L 221.323636 256.864909 
L 222.196364 258.023285 
L 223.941818 257.596933 
L 225.687273 255.886858 
L 226.56 256.438051 
L 227.432727 258.036983 
L 228.305455 259.029331 
L 229.178182 258.780426 
L 230.050909 259.950412 
L 230.923636 259.241914 
L 231.796364 258.915355 
L 232.669091 258.850599 
L 233.541818 258.539679 
L 234.414545 259.250004 
L 236.16 259.382987 
L 237.032727 258.516829 
L 237.905455 258.096233 
L 238.778182 258.00004 
L 239.650909 257.158735 
L 240.523636 258.913121 
L 241.396364 258.010421 
L 243.141818 257.897952 
L 244.014545 258.522539 
L 244.887273 258.443187 
L 245.76 259.105326 
L 247.505455 258.943299 
L 249.250909 258.637846 
L 250.123636 258.494742 
L 251.869091 256.429148 
L 252.741818 256.206646 
L 253.614545 255.818919 
L 254.487273 255.071967 
L 255.36 251.088267 
L 256.232727 246.451979 
L 257.105455 246.471015 
L 257.978182 245.990333 
L 258.850909 246.179898 
L 259.723636 243.954838 
L 260.596364 244.312822 
L 261.469091 245.239217 
L 262.341818 244.484005 
L 263.214545 244.866486 
L 264.087273 240.957952 
L 264.96 240.751817 
L 265.832727 242.503698 
L 266.705455 241.840561 
L 267.578182 239.512775 
L 268.450909 240.716375 
L 269.323636 244.037073 
L 271.069091 241.210597 
L 271.941818 240.288995 
L 272.814545 240.202993 
L 273.687273 240.553891 
L 274.56 237.365144 
L 275.432727 240.134141 
L 276.305455 240.706914 
L 277.178182 242.404591 
L 278.050909 241.785219 
L 278.923636 242.212581 
L 279.796364 241.315448 
L 280.669091 243.788499 
L 281.541818 243.246232 
L 282.414545 244.307128 
L 283.287273 243.087789 
L 284.16 242.865601 
L 285.032727 241.904512 
L 285.905455 241.759838 
L 286.778182 239.824685 
L 287.650909 240.965517 
L 288.523636 244.301939 
L 289.396364 251.141762 
L 290.269091 250.147214 
L 291.141818 252.375004 
L 292.014545 252.011514 
L 292.887273 250.97938 
L 293.76 252.902671 
L 294.632727 250.813967 
L 296.378182 250.168436 
L 297.250909 251.003175 
L 298.123636 248.516975 
L 298.996364 247.506814 
L 299.869091 246.126525 
L 300.741818 246.778304 
L 301.614545 246.799833 
L 302.487273 246.021616 
L 303.36 247.34836 
L 304.232727 249.560221 
L 305.105455 249.526629 
L 305.978182 251.362235 
L 306.850909 248.566673 
L 307.723636 248.18678 
L 309.469091 248.029198 
L 310.341818 247.279604 
L 311.214545 247.94837 
L 312.087273 248.102085 
L 312.96 248.880509 
L 313.832727 249.281782 
L 314.705455 249.365066 
L 316.450909 248.001718 
L 317.323636 249.130833 
L 318.196364 248.750835 
L 319.069091 247.045833 
L 319.941818 245.922417 
L 320.814545 244.291078 
L 321.687273 243.799045 
L 322.56 242.661725 
L 323.432727 243.42461 
L 324.305455 243.435465 
L 325.178182 242.896119 
L 326.050909 244.148701 
L 326.923636 243.848163 
L 327.796364 242.852587 
L 328.669091 241.217051 
L 329.541818 240.103844 
L 330.414545 234.088474 
L 331.287273 232.894116 
L 332.16 233.217696 
L 333.032727 231.952025 
L 333.905455 232.548082 
L 334.778182 232.352999 
L 335.650909 228.487698 
L 336.523636 230.940574 
L 337.396364 229.699298 
L 338.269091 228.974033 
L 339.141818 227.415688 
L 340.014545 227.646776 
L 340.887273 228.972013 
L 341.76 225.83359 
L 342.632727 224.966874 
L 343.505455 215.253415 
L 344.378182 215.28423 
L 345.250909 220.328397 
L 346.123636 215.958087 
L 346.996364 217.004754 
L 347.869091 217.149817 
L 348.741818 214.488488 
L 349.614545 210.463715 
L 350.487273 210.265237 
L 351.36 211.989124 
L 352.232727 212.716702 
L 353.105455 207.623101 
L 353.978182 201.152652 
L 354.850909 200.415166 
L 355.723636 200.213337 
L 356.596364 194.388592 
L 357.469091 194.239107 
L 358.341818 196.094132 
L 359.214545 196.377102 
L 360.087273 191.099409 
L 360.96 194.062856 
L 361.832727 204.496097 
L 362.705455 204.673352 
L 363.578182 200.735395 
L 364.450909 197.630733 
L 365.323636 187.397291 
L 366.196364 193.577774 
L 367.069091 190.659676 
L 367.941818 189.142843 
L 368.814545 194.510545 
L 369.687273 191.122044 
L 370.56 189.57312 
L 371.432727 190.936056 
L 372.305455 196.777648 
L 373.178182 195.211257 
L 374.050909 197.228744 
L 374.923636 198.692193 
L 375.796364 193.470365 
L 376.669091 191.048735 
L 377.541818 190.330285 
L 378.414545 189.181557 
L 379.287273 176.282374 
L 380.16 166.381449 
L 381.032727 164.208192 
L 381.905455 159.455413 
L 382.778182 162.003082 
L 383.650909 167.018228 
L 384.523636 159.577264 
L 385.396364 163.560107 
L 386.269091 160.170726 
L 387.141818 153.548467 
L 388.014545 141.780917 
L 388.887273 143.119198 
L 389.76 137.746463 
L 390.632727 135.633416 
L 391.505455 125.261107 
L 392.378182 124.785672 
L 393.250909 121.837198 
L 394.123636 102.835344 
L 394.996364 97.181309 
L 395.869091 104.060168 
L 396.741818 90.401756 
L 398.487273 53.568 
L 398.487273 53.568 
" style="fill:none;stroke:#d62728;stroke-linecap:square;stroke-width:1.5;"/>
   </g>
   <g id="patch_3">
    <path d="M 57.6 307.584 
L 57.6 41.472 
" style="fill:none;stroke:#000000;stroke-linecap:square;stroke-linejoin:miter;stroke-width:0.8;"/>
   </g>
   <g id="patch_4">
    <path d="M 414.72 307.584 
L 414.72 41.472 
" style="fill:none;stroke:#000000;stroke-linecap:square;stroke-linejoin:miter;stroke-width:0.8;"/>
   </g>
   <g id="patch_5">
    <path d="M 57.6 307.584 
L 414.72 307.584 
" style="fill:none;stroke:#000000;stroke-linecap:square;stroke-linejoin:miter;stroke-width:0.8;"/>
   </g>
   <g id="patch_6">
    <path d="M 57.6 41.472 
L 414.72 41.472 
" style="fill:none;stroke:#000000;stroke-linecap:square;stroke-linejoin:miter;stroke-width:0.8;"/>
   </g>
   <g id="text_16">
    <!-- Data source: coindesk -->
    <g transform="translate(180.640469 35.472)scale(0.1 -0.1)">
     <defs>
      <path d="M 19.671875 64.796875 
L 19.671875 8.109375 
L 31.59375 8.109375 
Q 46.6875 8.109375 53.6875 14.9375 
Q 60.6875 21.78125 60.6875 36.53125 
Q 60.6875 51.171875 53.6875 57.984375 
Q 46.6875 64.796875 31.59375 64.796875 
z
M 9.8125 72.90625 
L 30.078125 72.90625 
Q 51.265625 72.90625 61.171875 64.09375 
Q 71.09375 55.28125 71.09375 36.53125 
Q 71.09375 17.671875 61.125 8.828125 
Q 51.171875 0 30.078125 0 
L 9.8125 0 
z
" id="DejaVuSans-68"/>
      <path d="M 34.28125 27.484375 
Q 23.390625 27.484375 19.1875 25 
Q 14.984375 22.515625 14.984375 16.5 
Q 14.984375 11.71875 18.140625 8.90625 
Q 21.296875 6.109375 26.703125 6.109375 
Q 34.1875 6.109375 38.703125 11.40625 
Q 43.21875 16.703125 43.21875 25.484375 
L 43.21875 27.484375 
z
M 52.203125 31.203125 
L 52.203125 0 
L 43.21875 0 
L 43.21875 8.296875 
Q 40.140625 3.328125 35.546875 0.953125 
Q 30.953125 -1.421875 24.3125 -1.421875 
Q 15.921875 -1.421875 10.953125 3.296875 
Q 6 8.015625 6 15.921875 
Q 6 25.140625 12.171875 29.828125 
Q 18.359375 34.515625 30.609375 34.515625 
L 43.21875 34.515625 
L 43.21875 35.40625 
Q 43.21875 41.609375 39.140625 45 
Q 35.0625 48.390625 27.6875 48.390625 
Q 23 48.390625 18.546875 47.265625 
Q 14.109375 46.140625 10.015625 43.890625 
L 10.015625 52.203125 
Q 14.9375 54.109375 19.578125 55.046875 
Q 24.21875 56 28.609375 56 
Q 40.484375 56 46.34375 49.84375 
Q 52.203125 43.703125 52.203125 31.203125 
z
" id="DejaVuSans-97"/>
      <path d="M 18.3125 70.21875 
L 18.3125 54.6875 
L 36.8125 54.6875 
L 36.8125 47.703125 
L 18.3125 47.703125 
L 18.3125 18.015625 
Q 18.3125 11.328125 20.140625 9.421875 
Q 21.96875 7.515625 27.59375 7.515625 
L 36.8125 7.515625 
L 36.8125 0 
L 27.59375 0 
Q 17.1875 0 13.234375 3.875 
Q 9.28125 7.765625 9.28125 18.015625 
L 9.28125 47.703125 
L 2.6875 47.703125 
L 2.6875 54.6875 
L 9.28125 54.6875 
L 9.28125 70.21875 
z
" id="DejaVuSans-116"/>
      <path id="DejaVuSans-32"/>
      <path d="M 44.28125 53.078125 
L 44.28125 44.578125 
Q 40.484375 46.53125 36.375 47.5 
Q 32.28125 48.484375 27.875 48.484375 
Q 21.1875 48.484375 17.84375 46.4375 
Q 14.5 44.390625 14.5 40.28125 
Q 14.5 37.15625 16.890625 35.375 
Q 19.28125 33.59375 26.515625 31.984375 
L 29.59375 31.296875 
Q 39.15625 29.25 43.1875 25.515625 
Q 47.21875 21.78125 47.21875 15.09375 
Q 47.21875 7.46875 41.1875 3.015625 
Q 35.15625 -1.421875 24.609375 -1.421875 
Q 20.21875 -1.421875 15.453125 -0.5625 
Q 10.6875 0.296875 5.421875 2 
L 5.421875 11.28125 
Q 10.40625 8.6875 15.234375 7.390625 
Q 20.0625 6.109375 24.8125 6.109375 
Q 31.15625 6.109375 34.5625 8.28125 
Q 37.984375 10.453125 37.984375 14.40625 
Q 37.984375 18.0625 35.515625 20.015625 
Q 33.0625 21.96875 24.703125 23.78125 
L 21.578125 24.515625 
Q 13.234375 26.265625 9.515625 29.90625 
Q 5.8125 33.546875 5.8125 39.890625 
Q 5.8125 47.609375 11.28125 51.796875 
Q 16.75 56 26.8125 56 
Q 31.78125 56 36.171875 55.265625 
Q 40.578125 54.546875 44.28125 53.078125 
z
" id="DejaVuSans-115"/>
      <path d="M 30.609375 48.390625 
Q 23.390625 48.390625 19.1875 42.75 
Q 14.984375 37.109375 14.984375 27.296875 
Q 14.984375 17.484375 19.15625 11.84375 
Q 23.34375 6.203125 30.609375 6.203125 
Q 37.796875 6.203125 41.984375 11.859375 
Q 46.1875 17.53125 46.1875 27.296875 
Q 46.1875 37.015625 41.984375 42.703125 
Q 37.796875 48.390625 30.609375 48.390625 
z
M 30.609375 56 
Q 42.328125 56 49.015625 48.375 
Q 55.71875 40.765625 55.71875 27.296875 
Q 55.71875 13.875 49.015625 6.21875 
Q 42.328125 -1.421875 30.609375 -1.421875 
Q 18.84375 -1.421875 12.171875 6.21875 
Q 5.515625 13.875 5.515625 27.296875 
Q 5.515625 40.765625 12.171875 48.375 
Q 18.84375 56 30.609375 56 
z
" id="DejaVuSans-111"/>
      <path d="M 8.5 21.578125 
L 8.5 54.6875 
L 17.484375 54.6875 
L 17.484375 21.921875 
Q 17.484375 14.15625 20.5 10.265625 
Q 23.53125 6.390625 29.59375 6.390625 
Q 36.859375 6.390625 41.078125 11.03125 
Q 45.3125 15.671875 45.3125 23.6875 
L 45.3125 54.6875 
L 54.296875 54.6875 
L 54.296875 0 
L 45.3125 0 
L 45.3125 8.40625 
Q 42.046875 3.421875 37.71875 1 
Q 33.40625 -1.421875 27.6875 -1.421875 
Q 18.265625 -1.421875 13.375 4.4375 
Q 8.5 10.296875 8.5 21.578125 
z
M 31.109375 56 
z
" id="DejaVuSans-117"/>
      <path d="M 41.109375 46.296875 
Q 39.59375 47.171875 37.8125 47.578125 
Q 36.03125 48 33.890625 48 
Q 26.265625 48 22.1875 43.046875 
Q 18.109375 38.09375 18.109375 28.8125 
L 18.109375 0 
L 9.078125 0 
L 9.078125 54.6875 
L 18.109375 54.6875 
L 18.109375 46.1875 
Q 20.953125 51.171875 25.484375 53.578125 
Q 30.03125 56 36.53125 56 
Q 37.453125 56 38.578125 55.875 
Q 39.703125 55.765625 41.0625 55.515625 
z
" id="DejaVuSans-114"/>
      <path d="M 48.78125 52.59375 
L 48.78125 44.1875 
Q 44.96875 46.296875 41.140625 47.34375 
Q 37.3125 48.390625 33.40625 48.390625 
Q 24.65625 48.390625 19.8125 42.84375 
Q 14.984375 37.3125 14.984375 27.296875 
Q 14.984375 17.28125 19.8125 11.734375 
Q 24.65625 6.203125 33.40625 6.203125 
Q 37.3125 6.203125 41.140625 7.25 
Q 44.96875 8.296875 48.78125 10.40625 
L 48.78125 2.09375 
Q 45.015625 0.34375 40.984375 -0.53125 
Q 36.96875 -1.421875 32.421875 -1.421875 
Q 20.0625 -1.421875 12.78125 6.34375 
Q 5.515625 14.109375 5.515625 27.296875 
Q 5.515625 40.671875 12.859375 48.328125 
Q 20.21875 56 33.015625 56 
Q 37.15625 56 41.109375 55.140625 
Q 45.0625 54.296875 48.78125 52.59375 
z
" id="DejaVuSans-99"/>
      <path d="M 56.203125 29.59375 
L 56.203125 25.203125 
L 14.890625 25.203125 
Q 15.484375 15.921875 20.484375 11.0625 
Q 25.484375 6.203125 34.421875 6.203125 
Q 39.59375 6.203125 44.453125 7.46875 
Q 49.3125 8.734375 54.109375 11.28125 
L 54.109375 2.78125 
Q 49.265625 0.734375 44.1875 -0.34375 
Q 39.109375 -1.421875 33.890625 -1.421875 
Q 20.796875 -1.421875 13.15625 6.1875 
Q 5.515625 13.8125 5.515625 26.8125 
Q 5.515625 40.234375 12.765625 48.109375 
Q 20.015625 56 32.328125 56 
Q 43.359375 56 49.78125 48.890625 
Q 56.203125 41.796875 56.203125 29.59375 
z
M 47.21875 32.234375 
Q 47.125 39.59375 43.09375 43.984375 
Q 39.0625 48.390625 32.421875 48.390625 
Q 24.90625 48.390625 20.390625 44.140625 
Q 15.875 39.890625 15.1875 32.171875 
z
" id="DejaVuSans-101"/>
      <path d="M 11.71875 12.40625 
L 22.015625 12.40625 
L 22.015625 0 
L 11.71875 0 
z
M 11.71875 51.703125 
L 22.015625 51.703125 
L 22.015625 39.3125 
L 11.71875 39.3125 
z
" id="DejaVuSans-58"/>
      <path d="M 9.421875 54.6875 
L 18.40625 54.6875 
L 18.40625 0 
L 9.421875 0 
z
M 9.421875 75.984375 
L 18.40625 75.984375 
L 18.40625 64.59375 
L 9.421875 64.59375 
z
" id="DejaVuSans-105"/>
      <path d="M 54.890625 33.015625 
L 54.890625 0 
L 45.90625 0 
L 45.90625 32.71875 
Q 45.90625 40.484375 42.875 44.328125 
Q 39.84375 48.1875 33.796875 48.1875 
Q 26.515625 48.1875 22.3125 43.546875 
Q 18.109375 38.921875 18.109375 30.90625 
L 18.109375 0 
L 9.078125 0 
L 9.078125 54.6875 
L 18.109375 54.6875 
L 18.109375 46.1875 
Q 21.34375 51.125 25.703125 53.5625 
Q 30.078125 56 35.796875 56 
Q 45.21875 56 50.046875 50.171875 
Q 54.890625 44.34375 54.890625 33.015625 
z
" id="DejaVuSans-110"/>
      <path d="M 45.40625 46.390625 
L 45.40625 75.984375 
L 54.390625 75.984375 
L 54.390625 0 
L 45.40625 0 
L 45.40625 8.203125 
Q 42.578125 3.328125 38.25 0.953125 
Q 33.9375 -1.421875 27.875 -1.421875 
Q 17.96875 -1.421875 11.734375 6.484375 
Q 5.515625 14.40625 5.515625 27.296875 
Q 5.515625 40.1875 11.734375 48.09375 
Q 17.96875 56 27.875 56 
Q 33.9375 56 38.25 53.625 
Q 42.578125 51.265625 45.40625 46.390625 
z
M 14.796875 27.296875 
Q 14.796875 17.390625 18.875 11.75 
Q 22.953125 6.109375 30.078125 6.109375 
Q 37.203125 6.109375 41.296875 11.75 
Q 45.40625 17.390625 45.40625 27.296875 
Q 45.40625 37.203125 41.296875 42.84375 
Q 37.203125 48.484375 30.078125 48.484375 
Q 22.953125 48.484375 18.875 42.84375 
Q 14.796875 37.203125 14.796875 27.296875 
z
" id="DejaVuSans-100"/>
      <path d="M 9.078125 75.984375 
L 18.109375 75.984375 
L 18.109375 31.109375 
L 44.921875 54.6875 
L 56.390625 54.6875 
L 27.390625 29.109375 
L 57.625 0 
L 45.90625 0 
L 18.109375 26.703125 
L 18.109375 0 
L 9.078125 0 
z
" id="DejaVuSans-107"/>
     </defs>
     <use xlink:href="#DejaVuSans-68"/>
     <use x="77.001953" xlink:href="#DejaVuSans-97"/>
     <use x="138.28125" xlink:href="#DejaVuSans-116"/>
     <use x="177.490234" xlink:href="#DejaVuSans-97"/>
     <use x="238.769531" xlink:href="#DejaVuSans-32"/>
     <use x="270.556641" xlink:href="#DejaVuSans-115"/>
     <use x="322.65625" xlink:href="#DejaVuSans-111"/>
     <use x="383.837891" xlink:href="#DejaVuSans-117"/>
     <use x="447.216797" xlink:href="#DejaVuSans-114"/>
     <use x="486.080078" xlink:href="#DejaVuSans-99"/>
     <use x="541.060547" xlink:href="#DejaVuSans-101"/>
     <use x="602.583984" xlink:href="#DejaVuSans-58"/>
     <use x="636.275391" xlink:href="#DejaVuSans-32"/>
     <use x="668.0625" xlink:href="#DejaVuSans-99"/>
     <use x="723.042969" xlink:href="#DejaVuSans-111"/>
     <use x="784.224609" xlink:href="#DejaVuSans-105"/>
     <use x="812.007812" xlink:href="#DejaVuSans-110"/>
     <use x="875.386719" xlink:href="#DejaVuSans-100"/>
     <use x="938.863281" xlink:href="#DejaVuSans-101"/>
     <use x="1000.386719" xlink:href="#DejaVuSans-115"/>
     <use x="1052.486328" xlink:href="#DejaVuSans-107"/>
    </g>
   </g>
   <g id="legend_1">
    <g id="patch_7">
     <path d="M 64.6 108.1845 
L 155.732812 108.1845 
Q 157.732812 108.1845 157.732812 106.1845 
L 157.732812 48.472 
Q 157.732812 46.472 155.732812 46.472 
L 64.6 46.472 
Q 62.6 46.472 62.6 48.472 
L 62.6 106.1845 
Q 62.6 108.1845 64.6 108.1845 
z
" style="fill:#ffffff;opacity:0.8;stroke:#cccccc;stroke-linejoin:miter;"/>
    </g>
    <g id="line2d_20">
     <path d="M 66.6 54.570438 
L 86.6 54.570438 
" style="fill:none;stroke:#1f77b4;stroke-linecap:square;stroke-width:1.5;"/>
    </g>
    <g id="line2d_21"/>
    <g id="text_17">
     <!-- Upper Band -->
     <g transform="translate(94.6 58.070438)scale(0.1 -0.1)">
      <defs>
       <path d="M 8.6875 72.90625 
L 18.609375 72.90625 
L 18.609375 28.609375 
Q 18.609375 16.890625 22.84375 11.734375 
Q 27.09375 6.59375 36.625 6.59375 
Q 46.09375 6.59375 50.34375 11.734375 
Q 54.59375 16.890625 54.59375 28.609375 
L 54.59375 72.90625 
L 64.5 72.90625 
L 64.5 27.390625 
Q 64.5 13.140625 57.4375 5.859375 
Q 50.390625 -1.421875 36.625 -1.421875 
Q 22.796875 -1.421875 15.734375 5.859375 
Q 8.6875 13.140625 8.6875 27.390625 
z
" id="DejaVuSans-85"/>
       <path d="M 18.109375 8.203125 
L 18.109375 -20.796875 
L 9.078125 -20.796875 
L 9.078125 54.6875 
L 18.109375 54.6875 
L 18.109375 46.390625 
Q 20.953125 51.265625 25.265625 53.625 
Q 29.59375 56 35.59375 56 
Q 45.5625 56 51.78125 48.09375 
Q 58.015625 40.1875 58.015625 27.296875 
Q 58.015625 14.40625 51.78125 6.484375 
Q 45.5625 -1.421875 35.59375 -1.421875 
Q 29.59375 -1.421875 25.265625 0.953125 
Q 20.953125 3.328125 18.109375 8.203125 
z
M 48.6875 27.296875 
Q 48.6875 37.203125 44.609375 42.84375 
Q 40.53125 48.484375 33.40625 48.484375 
Q 26.265625 48.484375 22.1875 42.84375 
Q 18.109375 37.203125 18.109375 27.296875 
Q 18.109375 17.390625 22.1875 11.75 
Q 26.265625 6.109375 33.40625 6.109375 
Q 40.53125 6.109375 44.609375 11.75 
Q 48.6875 17.390625 48.6875 27.296875 
z
" id="DejaVuSans-112"/>
       <path d="M 19.671875 34.8125 
L 19.671875 8.109375 
L 35.5 8.109375 
Q 43.453125 8.109375 47.28125 11.40625 
Q 51.125 14.703125 51.125 21.484375 
Q 51.125 28.328125 47.28125 31.5625 
Q 43.453125 34.8125 35.5 34.8125 
z
M 19.671875 64.796875 
L 19.671875 42.828125 
L 34.28125 42.828125 
Q 41.5 42.828125 45.03125 45.53125 
Q 48.578125 48.25 48.578125 53.8125 
Q 48.578125 59.328125 45.03125 62.0625 
Q 41.5 64.796875 34.28125 64.796875 
z
M 9.8125 72.90625 
L 35.015625 72.90625 
Q 46.296875 72.90625 52.390625 68.21875 
Q 58.5 63.53125 58.5 54.890625 
Q 58.5 48.1875 55.375 44.234375 
Q 52.25 40.28125 46.1875 39.3125 
Q 53.46875 37.75 57.5 32.78125 
Q 61.53125 27.828125 61.53125 20.40625 
Q 61.53125 10.640625 54.890625 5.3125 
Q 48.25 0 35.984375 0 
L 9.8125 0 
z
" id="DejaVuSans-66"/>
      </defs>
      <use xlink:href="#DejaVuSans-85"/>
      <use x="73.193359" xlink:href="#DejaVuSans-112"/>
      <use x="136.669922" xlink:href="#DejaVuSans-112"/>
      <use x="200.146484" xlink:href="#DejaVuSans-101"/>
      <use x="261.669922" xlink:href="#DejaVuSans-114"/>
      <use x="302.783203" xlink:href="#DejaVuSans-32"/>
      <use x="334.570312" xlink:href="#DejaVuSans-66"/>
      <use x="403.173828" xlink:href="#DejaVuSans-97"/>
      <use x="464.453125" xlink:href="#DejaVuSans-110"/>
      <use x="527.832031" xlink:href="#DejaVuSans-100"/>
     </g>
    </g>
    <g id="line2d_22">
     <path d="M 66.6 69.248563 
L 86.6 69.248563 
" style="fill:none;stroke:#ff7f0e;stroke-linecap:square;stroke-width:1.5;"/>
    </g>
    <g id="line2d_23"/>
    <g id="text_18">
     <!-- Lower Band -->
     <g transform="translate(94.6 72.748563)scale(0.1 -0.1)">
      <defs>
       <path d="M 9.8125 72.90625 
L 19.671875 72.90625 
L 19.671875 8.296875 
L 55.171875 8.296875 
L 55.171875 0 
L 9.8125 0 
z
" id="DejaVuSans-76"/>
       <path d="M 4.203125 54.6875 
L 13.1875 54.6875 
L 24.421875 12.015625 
L 35.59375 54.6875 
L 46.1875 54.6875 
L 57.421875 12.015625 
L 68.609375 54.6875 
L 77.59375 54.6875 
L 63.28125 0 
L 52.6875 0 
L 40.921875 44.828125 
L 29.109375 0 
L 18.5 0 
z
" id="DejaVuSans-119"/>
      </defs>
      <use xlink:href="#DejaVuSans-76"/>
      <use x="53.962891" xlink:href="#DejaVuSans-111"/>
      <use x="115.144531" xlink:href="#DejaVuSans-119"/>
      <use x="196.931641" xlink:href="#DejaVuSans-101"/>
      <use x="258.455078" xlink:href="#DejaVuSans-114"/>
      <use x="299.568359" xlink:href="#DejaVuSans-32"/>
      <use x="331.355469" xlink:href="#DejaVuSans-66"/>
      <use x="399.958984" xlink:href="#DejaVuSans-97"/>
      <use x="461.238281" xlink:href="#DejaVuSans-110"/>
      <use x="524.617188" xlink:href="#DejaVuSans-100"/>
     </g>
    </g>
    <g id="line2d_24">
     <path d="M 66.6 83.926688 
L 86.6 83.926688 
" style="fill:none;stroke:#2ca02c;stroke-linecap:square;stroke-width:1.5;"/>
    </g>
    <g id="line2d_25"/>
    <g id="text_19">
     <!-- MA -->
     <g transform="translate(94.6 87.426688)scale(0.1 -0.1)">
      <defs>
       <path d="M 9.8125 72.90625 
L 24.515625 72.90625 
L 43.109375 23.296875 
L 61.8125 72.90625 
L 76.515625 72.90625 
L 76.515625 0 
L 66.890625 0 
L 66.890625 64.015625 
L 48.09375 14.015625 
L 38.1875 14.015625 
L 19.390625 64.015625 
L 19.390625 0 
L 9.8125 0 
z
" id="DejaVuSans-77"/>
       <path d="M 34.1875 63.1875 
L 20.796875 26.90625 
L 47.609375 26.90625 
z
M 28.609375 72.90625 
L 39.796875 72.90625 
L 67.578125 0 
L 57.328125 0 
L 50.6875 18.703125 
L 17.828125 18.703125 
L 11.1875 0 
L 0.78125 0 
z
" id="DejaVuSans-65"/>
      </defs>
      <use xlink:href="#DejaVuSans-77"/>
      <use x="86.279297" xlink:href="#DejaVuSans-65"/>
     </g>
    </g>
    <g id="line2d_26">
     <path d="M 66.6 98.604813 
L 86.6 98.604813 
" style="fill:none;stroke:#d62728;stroke-linecap:square;stroke-width:1.5;"/>
    </g>
    <g id="line2d_27"/>
    <g id="text_20">
     <!-- BTC-USD -->
     <g transform="translate(94.6 102.104813)scale(0.1 -0.1)">
      <defs>
       <path d="M -0.296875 72.90625 
L 61.375 72.90625 
L 61.375 64.59375 
L 35.5 64.59375 
L 35.5 0 
L 25.59375 0 
L 25.59375 64.59375 
L -0.296875 64.59375 
z
" id="DejaVuSans-84"/>
       <path d="M 64.40625 67.28125 
L 64.40625 56.890625 
Q 59.421875 61.53125 53.78125 63.8125 
Q 48.140625 66.109375 41.796875 66.109375 
Q 29.296875 66.109375 22.65625 58.46875 
Q 16.015625 50.828125 16.015625 36.375 
Q 16.015625 21.96875 22.65625 14.328125 
Q 29.296875 6.6875 41.796875 6.6875 
Q 48.140625 6.6875 53.78125 8.984375 
Q 59.421875 11.28125 64.40625 15.921875 
L 64.40625 5.609375 
Q 59.234375 2.09375 53.4375 0.328125 
Q 47.65625 -1.421875 41.21875 -1.421875 
Q 24.65625 -1.421875 15.125 8.703125 
Q 5.609375 18.84375 5.609375 36.375 
Q 5.609375 53.953125 15.125 64.078125 
Q 24.65625 74.21875 41.21875 74.21875 
Q 47.75 74.21875 53.53125 72.484375 
Q 59.328125 70.75 64.40625 67.28125 
z
" id="DejaVuSans-67"/>
       <path d="M 53.515625 70.515625 
L 53.515625 60.890625 
Q 47.90625 63.578125 42.921875 64.890625 
Q 37.9375 66.21875 33.296875 66.21875 
Q 25.25 66.21875 20.875 63.09375 
Q 16.5 59.96875 16.5 54.203125 
Q 16.5 49.359375 19.40625 46.890625 
Q 22.3125 44.4375 30.421875 42.921875 
L 36.375 41.703125 
Q 47.40625 39.59375 52.65625 34.296875 
Q 57.90625 29 57.90625 20.125 
Q 57.90625 9.515625 50.796875 4.046875 
Q 43.703125 -1.421875 29.984375 -1.421875 
Q 24.8125 -1.421875 18.96875 -0.25 
Q 13.140625 0.921875 6.890625 3.21875 
L 6.890625 13.375 
Q 12.890625 10.015625 18.65625 8.296875 
Q 24.421875 6.59375 29.984375 6.59375 
Q 38.421875 6.59375 43.015625 9.90625 
Q 47.609375 13.234375 47.609375 19.390625 
Q 47.609375 24.75 44.3125 27.78125 
Q 41.015625 30.8125 33.5 32.328125 
L 27.484375 33.5 
Q 16.453125 35.6875 11.515625 40.375 
Q 6.59375 45.0625 6.59375 53.421875 
Q 6.59375 63.09375 13.40625 68.65625 
Q 20.21875 74.21875 32.171875 74.21875 
Q 37.3125 74.21875 42.625 73.28125 
Q 47.953125 72.359375 53.515625 70.515625 
z
" id="DejaVuSans-83"/>
      </defs>
      <use xlink:href="#DejaVuSans-66"/>
      <use x="68.603516" xlink:href="#DejaVuSans-84"/>
      <use x="123.8125" xlink:href="#DejaVuSans-67"/>
      <use x="193.636719" xlink:href="#DejaVuSans-45"/>
      <use x="229.720703" xlink:href="#DejaVuSans-85"/>
      <use x="302.914062" xlink:href="#DejaVuSans-83"/>
      <use x="366.390625" xlink:href="#DejaVuSans-68"/>
     </g>
    </g>
   </g>
  </g>
  <g id="text_21">
   <!-- Bollinger Band -->
   <g transform="translate(171.90625 19.0695)scale(0.16 -0.16)">
    <defs>
     <path d="M 9.421875 75.984375 
L 18.40625 75.984375 
L 18.40625 0 
L 9.421875 0 
z
" id="DejaVuSans-108"/>
     <path d="M 45.40625 27.984375 
Q 45.40625 37.75 41.375 43.109375 
Q 37.359375 48.484375 30.078125 48.484375 
Q 22.859375 48.484375 18.828125 43.109375 
Q 14.796875 37.75 14.796875 27.984375 
Q 14.796875 18.265625 18.828125 12.890625 
Q 22.859375 7.515625 30.078125 7.515625 
Q 37.359375 7.515625 41.375 12.890625 
Q 45.40625 18.265625 45.40625 27.984375 
z
M 54.390625 6.78125 
Q 54.390625 -7.171875 48.1875 -13.984375 
Q 42 -20.796875 29.203125 -20.796875 
Q 24.46875 -20.796875 20.265625 -20.09375 
Q 16.0625 -19.390625 12.109375 -17.921875 
L 12.109375 -9.1875 
Q 16.0625 -11.328125 19.921875 -12.34375 
Q 23.78125 -13.375 27.78125 -13.375 
Q 36.625 -13.375 41.015625 -8.765625 
Q 45.40625 -4.15625 45.40625 5.171875 
L 45.40625 9.625 
Q 42.625 4.78125 38.28125 2.390625 
Q 33.9375 0 27.875 0 
Q 17.828125 0 11.671875 7.65625 
Q 5.515625 15.328125 5.515625 27.984375 
Q 5.515625 40.671875 11.671875 48.328125 
Q 17.828125 56 27.875 56 
Q 33.9375 56 38.28125 53.609375 
Q 42.625 51.21875 45.40625 46.390625 
L 45.40625 54.6875 
L 54.390625 54.6875 
z
" id="DejaVuSans-103"/>
    </defs>
    <use xlink:href="#DejaVuSans-66"/>
    <use x="68.603516" xlink:href="#DejaVuSans-111"/>
    <use x="129.785156" xlink:href="#DejaVuSans-108"/>
    <use x="157.568359" xlink:href="#DejaVuSans-108"/>
    <use x="185.351562" xlink:href="#DejaVuSans-105"/>
    <use x="213.134766" xlink:href="#DejaVuSans-110"/>
    <use x="276.513672" xlink:href="#DejaVuSans-103"/>
    <use x="339.990234" xlink:href="#DejaVuSans-101"/>
    <use x="401.513672" xlink:href="#DejaVuSans-114"/>
    <use x="442.626953" xlink:href="#DejaVuSans-32"/>
    <use x="474.414062" xlink:href="#DejaVuSans-66"/>
    <use x="543.017578" xlink:href="#DejaVuSans-97"/>
    <use x="604.296875" xlink:href="#DejaVuSans-110"/>
    <use x="667.675781" xlink:href="#DejaVuSans-100"/>
   </g>
  </g>
 </g>
 <defs>
  <clipPath id="p45c1b537aa">
   <rect height="266.112" width="357.12" x="57.6" y="41.472"/>
  </clipPath>
 </defs>
</svg>
