<?xml version="1.0" encoding="utf-8" standalone="no"?>
<!DOCTYPE svg PUBLIC "-//W3C//DTD SVG 1.1//EN"
  "http://www.w3.org/Graphics/SVG/1.1/DTD/svg11.dtd">
<!-- Created with matplotlib (https://matplotlib.org/) -->
<svg height="345.6pt" version="1.1" viewBox="0 0 460.8 345.6" width="460.8pt" xmlns="http://www.w3.org/2000/svg" xmlns:xlink="http://www.w3.org/1999/xlink">
 <metadata>
  <rdf:RDF xmlns:cc="http://creativecommons.org/ns#" xmlns:dc="http://purl.org/dc/elements/1.1/" xmlns:rdf="http://www.w3.org/1999/02/22-rdf-syntax-ns#">
   <cc:Work>
    <dc:type rdf:resource="http://purl.org/dc/dcmitype/StillImage"/>
    <dc:date>2021-03-08T19:00:20.743820</dc:date>
    <dc:format>image/svg+xml</dc:format>
    <dc:creator>
     <cc:Agent>
      <dc:title>Matplotlib v3.3.2, https://matplotlib.org/</dc:title>
     </cc:Agent>
    </dc:creator>
   </cc:Work>
  </rdf:RDF>
 </metadata>
 <defs>
  <style type="text/css">*{stroke-linecap:butt;stroke-linejoin:round;}</style>
 </defs>
 <g id="figure_1">
  <g id="patch_1">
   <path d="M 0 345.6 
L 460.8 345.6 
L 460.8 0 
L 0 0 
z
" style="fill:#ffffff;"/>
  </g>
  <g id="axes_1">
   <g id="patch_2">
    <path d="M 57.6 307.584 
L 414.72 307.584 
L 414.72 41.472 
L 57.6 41.472 
z
" style="fill:#ffffff;"/>
   </g>
   <g id="PolyCollection_1">
    <defs>
     <path d="M 88.111515 -63.516073 
L 88.111515 -74.200206 
L 88.86303 -74.328606 
L 89.614545 -74.142487 
L 90.366061 -73.981958 
L 91.117576 -73.745085 
L 91.869091 -73.350584 
L 92.620606 -73.254141 
L 93.372121 -73.469827 
L 94.123636 -74.088806 
L 94.875152 -74.327149 
L 95.626667 -74.894992 
L 96.378182 -75.101425 
L 97.129697 -75.343159 
L 97.881212 -75.402171 
L 98.632727 -75.59485 
L 99.384242 -75.704711 
L 100.135758 -76.117706 
L 100.887273 -76.602045 
L 101.638788 -77.080661 
L 102.390303 -77.567356 
L 103.141818 -78.210794 
L 103.893333 -78.511016 
L 104.644848 -79.075082 
L 105.396364 -79.470624 
L 106.147879 -79.640132 
L 106.899394 -79.668537 
L 107.650909 -79.429915 
L 108.402424 -79.308419 
L 109.153939 -79.30235 
L 109.905455 -79.450292 
L 110.65697 -79.442619 
L 111.408485 -79.390573 
L 112.16 -79.344885 
L 112.911515 -79.263769 
L 113.66303 -79.180444 
L 114.414545 -78.910193 
L 115.166061 -79.063953 
L 115.917576 -79.64603 
L 116.669091 -79.991797 
L 117.420606 -80.260342 
L 118.172121 -80.393264 
L 118.923636 -80.546566 
L 119.675152 -80.220456 
L 120.426667 -79.793824 
L 121.178182 -79.378398 
L 121.929697 -78.7142 
L 122.681212 -78.401426 
L 123.432727 -78.028434 
L 124.184242 -78.1003 
L 124.935758 -77.648567 
L 125.687273 -77.6008 
L 126.438788 -77.394659 
L 127.190303 -80.116687 
L 127.941818 -80.658205 
L 128.693333 -80.847067 
L 129.444848 -80.699519 
L 130.196364 -80.657816 
L 130.947879 -80.508475 
L 131.699394 -80.131811 
L 132.450909 -79.512843 
L 133.202424 -78.913399 
L 133.953939 -78.236186 
L 134.705455 -77.211333 
L 135.45697 -76.188294 
L 136.208485 -75.116961 
L 136.96 -73.612783 
L 137.711515 -71.797808 
L 138.46303 -70.025017 
L 139.214545 -68.90672 
L 139.966061 -67.696282 
L 140.717576 -66.550965 
L 141.469091 -65.053218 
L 142.220606 -65.111905 
L 142.972121 -65.488808 
L 143.723636 -65.561777 
L 144.475152 -65.719102 
L 145.226667 -65.431077 
L 145.978182 -65.641017 
L 146.729697 -65.77403 
L 147.481212 -66.22662 
L 148.232727 -66.584967 
L 148.984242 -66.62801 
L 149.735758 -66.345604 
L 150.487273 -66.510185 
L 151.238788 -66.509558 
L 151.990303 -66.546834 
L 152.741818 -66.548553 
L 153.493333 -66.648917 
L 154.244848 -66.623235 
L 154.996364 -66.218846 
L 155.747879 -66.258627 
L 156.499394 -66.099092 
L 157.250909 -66.051708 
L 158.002424 -66.101023 
L 158.753939 -66.453364 
L 159.505455 -66.719002 
L 160.25697 -67.005028 
L 161.008485 -67.226005 
L 161.76 -67.468135 
L 162.511515 -67.74778 
L 163.26303 -68.647215 
L 164.014545 -70.020284 
L 164.766061 -71.108874 
L 165.517576 -72.171218 
L 166.269091 -72.924323 
L 167.020606 -73.557827 
L 167.772121 -74.09649 
L 168.523636 -74.933731 
L 169.275152 -75.746606 
L 170.026667 -77.057746 
L 170.778182 -77.880789 
L 171.529697 -77.702252 
L 172.281212 -77.516418 
L 173.032727 -77.314241 
L 173.784242 -77.385594 
L 174.535758 -77.633997 
L 175.287273 -77.750901 
L 176.038788 -77.681295 
L 176.790303 -77.705522 
L 177.541818 -77.436433 
L 178.293333 -77.555314 
L 179.044848 -77.798565 
L 179.796364 -77.793246 
L 180.547879 -77.776906 
L 181.299394 -77.734335 
L 182.050909 -77.673909 
L 182.802424 -77.716763 
L 183.553939 -77.745499 
L 184.305455 -77.723484 
L 185.05697 -77.281826 
L 185.808485 -77.101858 
L 186.56 -76.984388 
L 187.311515 -77.029572 
L 188.06303 -76.967486 
L 188.814545 -77.511371 
L 189.566061 -77.516517 
L 190.317576 -77.518606 
L 191.069091 -77.703762 
L 191.820606 -77.648026 
L 192.572121 -77.641082 
L 193.323636 -77.603252 
L 194.075152 -77.541819 
L 194.826667 -77.675819 
L 195.578182 -77.827683 
L 196.329697 -77.830911 
L 197.081212 -77.824422 
L 197.832727 -77.568698 
L 198.584242 -77.390474 
L 199.335758 -77.129648 
L 200.087273 -77.046264 
L 200.838788 -77.046388 
L 201.590303 -77.090519 
L 202.341818 -77.110513 
L 203.093333 -77.111931 
L 203.844848 -76.583217 
L 204.596364 -76.582159 
L 205.347879 -76.578161 
L 206.099394 -76.390341 
L 206.850909 -76.377227 
L 207.602424 -76.346125 
L 208.353939 -76.293897 
L 209.105455 -76.183118 
L 209.85697 -75.960432 
L 210.608485 -75.597504 
L 211.36 -75.517638 
L 212.111515 -75.472506 
L 212.86303 -75.42162 
L 213.614545 -75.433815 
L 214.366061 -75.306416 
L 215.117576 -75.191347 
L 215.869091 -75.095149 
L 216.620606 -75.160598 
L 217.372121 -75.127764 
L 218.123636 -75.100933 
L 218.875152 -74.970159 
L 219.626667 -74.675546 
L 220.378182 -74.406231 
L 221.129697 -74.377246 
L 221.881212 -74.378111 
L 222.632727 -74.376848 
L 223.384242 -74.321992 
L 224.135758 -74.314583 
L 224.887273 -74.317152 
L 225.638788 -74.324046 
L 226.390303 -74.420488 
L 227.141818 -74.67381 
L 227.893333 -74.907782 
L 228.644848 -75.156763 
L 229.396364 -75.515964 
L 230.147879 -76.685408 
L 230.899394 -78.591138 
L 231.650909 -79.921094 
L 232.402424 -81.080077 
L 233.153939 -82.021705 
L 233.905455 -83.160851 
L 234.65697 -84.076394 
L 235.408485 -84.732536 
L 236.16 -85.374893 
L 236.911515 -85.838544 
L 237.66303 -86.652525 
L 238.414545 -87.324455 
L 239.166061 -87.639382 
L 239.917576 -87.884384 
L 240.669091 -88.221926 
L 241.420606 -88.314139 
L 242.172121 -88.061535 
L 242.923636 -87.740846 
L 243.675152 -87.303697 
L 244.426667 -86.671612 
L 245.178182 -86.38453 
L 245.929697 -86.482002 
L 246.681212 -86.949961 
L 247.432727 -86.997273 
L 248.184242 -86.921885 
L 248.935758 -86.900656 
L 249.687273 -86.864242 
L 250.438788 -86.721343 
L 251.190303 -86.63085 
L 251.941818 -86.523727 
L 252.693333 -86.531084 
L 253.444848 -86.576401 
L 254.196364 -86.586457 
L 254.947879 -86.584255 
L 255.699394 -86.417589 
L 256.450909 -86.362488 
L 257.202424 -86.453119 
L 257.953939 -86.489106 
L 258.705455 -86.537835 
L 259.45697 -87.438533 
L 260.208485 -87.740137 
L 260.96 -88.15131 
L 261.711515 -87.94652 
L 262.46303 -87.826803 
L 263.214545 -87.805225 
L 263.966061 -87.690805 
L 264.717576 -87.457983 
L 265.469091 -87.201196 
L 266.220606 -86.82192 
L 266.972121 -86.610873 
L 267.723636 -86.356108 
L 268.475152 -86.237889 
L 269.226667 -85.971689 
L 269.978182 -85.664731 
L 270.729697 -85.261582 
L 271.481212 -84.724586 
L 272.232727 -83.658797 
L 272.984242 -82.592931 
L 273.735758 -82.04249 
L 274.487273 -82.097271 
L 275.238788 -82.174161 
L 275.990303 -82.174438 
L 276.741818 -82.169648 
L 277.493333 -82.251196 
L 278.244848 -82.073534 
L 278.996364 -82.044165 
L 279.747879 -81.995162 
L 280.499394 -81.963599 
L 281.250909 -81.85621 
L 282.002424 -81.854828 
L 282.753939 -81.828116 
L 283.505455 -81.629316 
L 284.25697 -81.496154 
L 285.008485 -81.466379 
L 285.76 -81.483953 
L 286.511515 -81.98158 
L 287.26303 -82.51969 
L 288.014545 -83.158311 
L 288.766061 -83.430119 
L 289.517576 -83.774822 
L 290.269091 -84.148414 
L 291.020606 -84.331706 
L 291.772121 -84.522539 
L 292.523636 -84.799538 
L 293.275152 -85.243935 
L 294.026667 -85.773798 
L 294.778182 -87.274403 
L 295.529697 -88.632133 
L 296.281212 -89.640847 
L 297.032727 -90.681331 
L 297.784242 -91.466482 
L 298.535758 -92.05103 
L 299.287273 -93.042361 
L 300.038788 -93.584825 
L 300.790303 -94.200399 
L 301.541818 -94.847086 
L 302.293333 -95.576568 
L 303.044848 -96.187505 
L 303.796364 -96.499119 
L 304.547879 -97.022421 
L 305.299394 -97.518828 
L 306.050909 -99.248471 
L 306.802424 -100.541385 
L 307.553939 -100.835818 
L 308.305455 -101.61106 
L 309.05697 -102.042047 
L 309.808485 -102.694115 
L 310.56 -103.593144 
L 311.311515 -104.864922 
L 312.06303 -105.975326 
L 312.814545 -106.614219 
L 313.566061 -106.999219 
L 314.317576 -108.057204 
L 315.069091 -109.72338 
L 315.820606 -111.206024 
L 316.572121 -112.424319 
L 317.323636 -114.321428 
L 318.075152 -115.804531 
L 318.826667 -116.529441 
L 319.578182 -117.144159 
L 320.329697 -118.206176 
L 321.081212 -119.17003 
L 321.832727 -119.200657 
L 322.584242 -118.84119 
L 323.335758 -118.846465 
L 324.087273 -118.847055 
L 324.838788 -119.792122 
L 325.590303 -119.897999 
L 326.341818 -120.423408 
L 327.093333 -120.949909 
L 327.844848 -120.604091 
L 328.596364 -120.110038 
L 329.347879 -120.098742 
L 330.099394 -120.32556 
L 330.850909 -120.262282 
L 331.602424 -120.214301 
L 332.353939 -120.16849 
L 333.105455 -120.12552 
L 333.85697 -120.2145 
L 334.608485 -120.459284 
L 335.36 -120.524505 
L 336.111515 -120.864931 
L 336.86303 -122.872795 
L 337.614545 -126.489541 
L 338.366061 -129.801391 
L 339.117576 -133.38477 
L 339.869091 -135.878037 
L 340.620606 -137.412352 
L 341.372121 -139.727101 
L 342.123636 -141.260187 
L 342.875152 -142.906171 
L 343.626667 -145.195851 
L 344.378182 -148.85644 
L 345.129697 -151.706685 
L 345.881212 -154.55168 
L 346.632727 -157.164991 
L 347.384242 -160.500327 
L 348.135758 -162.929431 
L 348.887273 -165.384737 
L 349.638788 -170.201782 
L 350.390303 -174.799794 
L 351.141818 -177.228091 
L 351.893333 -181.79037 
L 352.644848 -188.982738 
L 353.396364 -197.954197 
L 354.147879 -206.640083 
L 354.899394 -213.245016 
L 355.650909 -216.600223 
L 356.402424 -217.747815 
L 357.153939 -217.36544 
L 357.905455 -218.242218 
L 358.65697 -219.955632 
L 359.408485 -220.232789 
L 360.16 -219.428987 
L 360.911515 -218.338936 
L 361.66303 -217.004435 
L 362.414545 -215.728317 
L 363.166061 -213.747845 
L 363.917576 -212.699919 
L 364.669091 -212.408639 
L 365.420606 -212.742544 
L 366.172121 -212.624726 
L 366.923636 -213.062243 
L 367.675152 -212.916563 
L 368.426667 -211.714864 
L 369.178182 -207.975126 
L 369.929697 -204.104624 
L 370.681212 -201.983108 
L 371.432727 -201.507207 
L 372.184242 -201.444822 
L 372.935758 -200.222979 
L 373.687273 -198.596188 
L 374.438788 -198.772363 
L 375.190303 -200.692483 
L 375.941818 -203.554403 
L 376.693333 -205.31596 
L 377.444848 -217.128232 
L 378.196364 -226.335193 
L 378.947879 -231.938098 
L 379.699394 -240.251301 
L 380.450909 -246.441672 
L 381.202424 -251.469642 
L 381.953939 -256.809157 
L 382.705455 -260.66077 
L 383.45697 -263.600641 
L 384.208485 -269.30457 
L 384.96 -273.618029 
L 385.711515 -280.824443 
L 386.46303 -285.709479 
L 387.214545 -290.531227 
L 387.966061 -292.032 
L 388.717576 -290.974353 
L 389.469091 -288.89459 
L 390.220606 -286.175802 
L 390.972121 -283.366951 
L 391.723636 -279.282779 
L 392.475152 -279.559226 
L 393.226667 -279.648833 
L 393.978182 -279.021938 
L 394.729697 -279.323597 
L 395.481212 -279.267146 
L 396.232727 -279.178742 
L 396.984242 -279.188041 
L 397.735758 -279.547705 
L 398.487273 -280.427468 
L 398.487273 -221.77973 
L 398.487273 -221.77973 
L 397.735758 -221.278531 
L 396.984242 -220.324316 
L 396.232727 -220.224364 
L 395.481212 -219.460342 
L 394.729697 -218.992853 
L 393.978182 -218.253714 
L 393.226667 -216.056616 
L 392.475152 -214.80413 
L 391.723636 -215.588455 
L 390.972121 -208.349824 
L 390.220606 -202.501302 
L 389.469091 -195.994535 
L 388.717576 -188.425662 
L 387.966061 -182.539372 
L 387.214545 -176.037057 
L 386.46303 -170.570221 
L 385.711515 -165.652791 
L 384.96 -163.560382 
L 384.208485 -160.421734 
L 383.45697 -158.071735 
L 382.705455 -152.934835 
L 381.953939 -150.149593 
L 381.202424 -148.438028 
L 380.450909 -147.044949 
L 379.699394 -146.646712 
L 378.947879 -148.50816 
L 378.196364 -148.076362 
L 377.444848 -152.551168 
L 376.693333 -159.83996 
L 375.941818 -160.652058 
L 375.190303 -162.039726 
L 374.438788 -162.979523 
L 373.687273 -163.063292 
L 372.935758 -162.061965 
L 372.184242 -161.635512 
L 371.432727 -161.795339 
L 370.681212 -162.324042 
L 369.929697 -161.867481 
L 369.178182 -160.564563 
L 368.426667 -159.923165 
L 367.675152 -162.617798 
L 366.923636 -164.327082 
L 366.172121 -165.530784 
L 365.420606 -165.29259 
L 364.669091 -166.025556 
L 363.917576 -165.381098 
L 363.166061 -163.710322 
L 362.414545 -158.908022 
L 361.66303 -154.59967 
L 360.911515 -149.26 
L 360.16 -144.379981 
L 359.408485 -139.36526 
L 358.65697 -135.197649 
L 357.905455 -130.698486 
L 357.153939 -125.70027 
L 356.402424 -120.654935 
L 355.650909 -116.788697 
L 354.899394 -113.48227 
L 354.147879 -112.867803 
L 353.396364 -114.32889 
L 352.644848 -116.264591 
L 351.893333 -117.423299 
L 351.141818 -116.524314 
L 350.390303 -113.539628 
L 349.638788 -112.214172 
L 348.887273 -111.42161 
L 348.135758 -109.321667 
L 347.384242 -107.050956 
L 346.632727 -105.809773 
L 345.881212 -104.63445 
L 345.129697 -103.725573 
L 344.378182 -103.53508 
L 343.626667 -104.156498 
L 342.875152 -104.056825 
L 342.123636 -103.519093 
L 341.372121 -103.425339 
L 340.620606 -103.763516 
L 339.869091 -103.608874 
L 339.117576 -104.487289 
L 338.366061 -105.643048 
L 337.614545 -106.632084 
L 336.86303 -107.813797 
L 336.111515 -108.027513 
L 335.36 -108.05753 
L 334.608485 -108.073842 
L 333.85697 -107.979788 
L 333.105455 -107.901919 
L 332.353939 -108.142127 
L 331.602424 -108.276924 
L 330.850909 -107.910855 
L 330.099394 -107.616263 
L 329.347879 -107.193393 
L 328.596364 -106.034275 
L 327.844848 -104.166989 
L 327.093333 -102.709684 
L 326.341818 -101.892984 
L 325.590303 -101.159027 
L 324.838788 -99.935164 
L 324.087273 -98.988229 
L 323.335758 -97.756798 
L 322.584242 -96.794042 
L 321.832727 -95.43905 
L 321.081212 -94.783645 
L 320.329697 -94.399963 
L 319.578182 -93.308303 
L 318.826667 -92.049843 
L 318.075152 -90.684004 
L 317.323636 -90.042669 
L 316.572121 -89.839541 
L 315.820606 -89.228904 
L 315.069091 -88.849332 
L 314.317576 -88.621254 
L 313.566061 -88.352431 
L 312.814545 -87.488733 
L 312.06303 -86.820254 
L 311.311515 -86.551566 
L 310.56 -86.376388 
L 309.808485 -86.104978 
L 309.05697 -85.679894 
L 308.305455 -84.64198 
L 307.553939 -83.81097 
L 306.802424 -82.67306 
L 306.050909 -82.149555 
L 305.299394 -82.041708 
L 304.547879 -81.397971 
L 303.796364 -80.801946 
L 303.044848 -80.1945 
L 302.293333 -79.850616 
L 301.541818 -79.538258 
L 300.790303 -79.210914 
L 300.038788 -78.794838 
L 299.287273 -78.313147 
L 298.535758 -78.015918 
L 297.784242 -77.533541 
L 297.032727 -77.335975 
L 296.281212 -77.314597 
L 295.529697 -77.296477 
L 294.778182 -77.612094 
L 294.026667 -78.172053 
L 293.275152 -78.193297 
L 292.523636 -78.209641 
L 291.772121 -78.205119 
L 291.020606 -78.130075 
L 290.269091 -78.061922 
L 289.517576 -78.099073 
L 288.766061 -78.117477 
L 288.014545 -77.88452 
L 287.26303 -78.086593 
L 286.511515 -78.258342 
L 285.76 -78.561552 
L 285.008485 -78.572818 
L 284.25697 -78.558686 
L 283.505455 -78.550961 
L 282.753939 -78.543208 
L 282.002424 -78.547968 
L 281.250909 -78.555061 
L 280.499394 -78.343502 
L 279.747879 -78.255556 
L 278.996364 -78.100618 
L 278.244848 -77.898797 
L 277.493333 -77.406084 
L 276.741818 -77.252358 
L 275.990303 -76.994328 
L 275.238788 -76.722928 
L 274.487273 -76.675152 
L 273.735758 -76.56618 
L 272.984242 -76.464712 
L 272.232727 -75.943259 
L 271.481212 -75.496566 
L 270.729697 -75.314951 
L 269.978182 -75.173614 
L 269.226667 -75.11684 
L 268.475152 -75.085324 
L 267.723636 -75.082802 
L 266.972121 -75.098974 
L 266.220606 -75.188617 
L 265.469091 -75.425397 
L 264.717576 -75.674533 
L 263.966061 -75.998845 
L 263.214545 -76.419188 
L 262.46303 -77.173155 
L 261.711515 -77.743102 
L 260.96 -78.469694 
L 260.208485 -79.632587 
L 259.45697 -80.566558 
L 258.705455 -82.157397 
L 257.953939 -82.402709 
L 257.202424 -82.339415 
L 256.450909 -82.162174 
L 255.699394 -82.173429 
L 254.947879 -82.158856 
L 254.196364 -82.221838 
L 253.444848 -82.269038 
L 252.693333 -82.540442 
L 251.941818 -82.693313 
L 251.190303 -82.51764 
L 250.438788 -82.225654 
L 249.687273 -81.890287 
L 248.935758 -81.69314 
L 248.184242 -81.573328 
L 247.432727 -81.149906 
L 246.681212 -80.824815 
L 245.929697 -80.71372 
L 245.178182 -80.436124 
L 244.426667 -79.456833 
L 243.675152 -77.884679 
L 242.923636 -76.518567 
L 242.172121 -75.327955 
L 241.420606 -74.287323 
L 240.669091 -73.313858 
L 239.917576 -72.444311 
L 239.166061 -71.621151 
L 238.414545 -70.897487 
L 237.66303 -70.412596 
L 236.911515 -70.075099 
L 236.16 -69.633283 
L 235.408485 -69.387958 
L 234.65697 -69.199396 
L 233.905455 -69.251041 
L 233.153939 -69.496805 
L 232.402424 -69.686113 
L 231.650909 -70.023319 
L 230.899394 -70.673629 
L 230.147879 -71.845003 
L 229.396364 -72.5688 
L 228.644848 -72.708938 
L 227.893333 -72.731275 
L 227.141818 -72.766739 
L 226.390303 -72.840679 
L 225.638788 -72.869392 
L 224.887273 -72.853656 
L 224.135758 -72.838577 
L 223.384242 -72.805354 
L 222.632727 -72.686455 
L 221.881212 -72.703315 
L 221.129697 -72.709012 
L 220.378182 -72.705858 
L 219.626667 -72.569099 
L 218.875152 -72.402373 
L 218.123636 -72.355918 
L 217.372121 -72.355381 
L 216.620606 -72.394569 
L 215.869091 -72.405041 
L 215.117576 -72.381027 
L 214.366061 -72.356052 
L 213.614545 -72.352423 
L 212.86303 -72.391283 
L 212.111515 -72.48613 
L 211.36 -72.58627 
L 210.608485 -72.625261 
L 209.85697 -72.539397 
L 209.105455 -72.569284 
L 208.353939 -72.705113 
L 207.602424 -72.970985 
L 206.850909 -73.136733 
L 206.099394 -73.361354 
L 205.347879 -73.415781 
L 204.596364 -73.42007 
L 203.844848 -73.42019 
L 203.093333 -73.17631 
L 202.341818 -73.274951 
L 201.590303 -73.39532 
L 200.838788 -73.557701 
L 200.087273 -73.558304 
L 199.335758 -73.360105 
L 198.584242 -72.854875 
L 197.832727 -72.562046 
L 197.081212 -72.028396 
L 196.329697 -71.923206 
L 195.578182 -71.801961 
L 194.826667 -71.687029 
L 194.075152 -71.650585 
L 193.323636 -71.633602 
L 192.572121 -71.621338 
L 191.820606 -71.620852 
L 191.069091 -71.606177 
L 190.317576 -71.631284 
L 189.566061 -71.630809 
L 188.814545 -71.630846 
L 188.06303 -71.728148 
L 187.311515 -71.306575 
L 186.56 -71.055521 
L 185.808485 -70.470775 
L 185.05697 -70.416714 
L 184.305455 -70.310313 
L 183.553939 -70.483282 
L 182.802424 -70.674711 
L 182.050909 -70.770933 
L 181.299394 -70.537536 
L 180.547879 -70.336609 
L 179.796364 -70.196986 
L 179.044848 -69.949034 
L 178.293333 -69.748219 
L 177.541818 -69.214297 
L 176.790303 -68.121874 
L 176.038788 -67.241678 
L 175.287273 -66.37026 
L 174.535758 -65.65841 
L 173.784242 -65.01146 
L 173.032727 -64.418838 
L 172.281212 -63.531224 
L 171.529697 -62.484229 
L 170.778182 -61.63014 
L 170.026667 -61.346666 
L 169.275152 -61.469535 
L 168.523636 -61.296899 
L 167.772121 -61.189947 
L 167.020606 -60.793017 
L 166.269091 -60.601525 
L 165.517576 -60.469497 
L 164.766061 -60.779287 
L 164.014545 -61.025118 
L 163.26303 -61.609983 
L 162.511515 -62.096761 
L 161.76 -62.211516 
L 161.008485 -62.318459 
L 160.25697 -62.408174 
L 159.505455 -62.341172 
L 158.753939 -62.335587 
L 158.002424 -62.336243 
L 157.250909 -62.254335 
L 156.499394 -62.127369 
L 155.747879 -61.775665 
L 154.996364 -61.556337 
L 154.244848 -60.573065 
L 153.493333 -60.177001 
L 152.741818 -60.123629 
L 151.990303 -60.117942 
L 151.238788 -60.070235 
L 150.487273 -60.071208 
L 149.735758 -59.955729 
L 148.984242 -59.23833 
L 148.232727 -58.974697 
L 147.481212 -58.855878 
L 146.729697 -58.808682 
L 145.978182 -58.102713 
L 145.226667 -57.468543 
L 144.475152 -56.433589 
L 143.723636 -55.939593 
L 142.972121 -55.341912 
L 142.220606 -55.200692 
L 141.469091 -54.502576 
L 140.717576 -53.65114 
L 139.966061 -53.078601 
L 139.214545 -52.756094 
L 138.46303 -52.42292 
L 137.711515 -51.60039 
L 136.96 -50.842437 
L 136.208485 -50.365304 
L 135.45697 -50.155494 
L 134.705455 -50.112 
L 133.953939 -50.431493 
L 133.202424 -50.762841 
L 132.450909 -51.167287 
L 131.699394 -51.639866 
L 130.947879 -52.729119 
L 130.196364 -54.066389 
L 129.444848 -55.863127 
L 128.693333 -57.5688 
L 127.941818 -59.820281 
L 127.190303 -62.100369 
L 126.438788 -66.880935 
L 125.687273 -67.387801 
L 124.935758 -68.06945 
L 124.184242 -68.582706 
L 123.432727 -69.367473 
L 122.681212 -69.433721 
L 121.929697 -69.438618 
L 121.178182 -69.32699 
L 120.426667 -69.541072 
L 119.675152 -69.794569 
L 118.923636 -70.045296 
L 118.172121 -70.763643 
L 117.420606 -71.595257 
L 116.669091 -72.372679 
L 115.917576 -73.145531 
L 115.166061 -74.141094 
L 114.414545 -74.423789 
L 113.66303 -73.942884 
L 112.911515 -73.566101 
L 112.16 -73.340862 
L 111.408485 -73.163047 
L 110.65697 -72.998558 
L 109.905455 -72.954397 
L 109.153939 -72.71684 
L 108.402424 -72.576101 
L 107.650909 -72.013449 
L 106.899394 -71.215027 
L 106.147879 -70.373922 
L 105.396364 -69.771247 
L 104.644848 -69.324768 
L 103.893333 -69.197805 
L 103.141818 -69.013637 
L 102.390303 -68.998377 
L 101.638788 -68.968836 
L 100.887273 -69.056783 
L 100.135758 -69.170744 
L 99.384242 -69.197779 
L 98.632727 -69.149702 
L 97.881212 -69.133915 
L 97.129697 -68.664414 
L 96.378182 -68.38531 
L 95.626667 -68.019273 
L 94.875152 -68.019057 
L 94.123636 -67.623007 
L 93.372121 -67.660607 
L 92.620606 -67.556092 
L 91.869091 -67.097615 
L 91.117576 -66.28086 
L 90.366061 -65.578749 
L 89.614545 -64.968079 
L 88.86303 -64.05031 
L 88.111515 -63.516073 
z
" id="mf8a3289d98" style="stroke:#4b0082;stroke-opacity:0.3;"/>
    </defs>
    <g clip-path="url(#p349b0aa199)">
     <use style="fill:#4b0082;fill-opacity:0.3;stroke:#4b0082;stroke-opacity:0.3;" x="0" xlink:href="#mf8a3289d98" y="345.6"/>
    </g>
   </g>
   <g id="matplotlib.axis_1">
    <g id="xtick_1">
     <g id="line2d_1">
      <defs>
       <path d="M 0 0 
L 0 3.5 
" id="m4ba29afdb1" style="stroke:#000000;stroke-width:0.8;"/>
      </defs>
      <g>
       <use style="stroke:#000000;stroke-width:0.8;" x="73.832727" xlink:href="#m4ba29afdb1" y="307.584"/>
      </g>
     </g>
     <g id="text_1">
      <!-- 2020-01 -->
      <g transform="translate(52.941321 322.182437)scale(0.1 -0.1)">
       <defs>
        <path d="M 19.1875 8.296875 
L 53.609375 8.296875 
L 53.609375 0 
L 7.328125 0 
L 7.328125 8.296875 
Q 12.9375 14.109375 22.625 23.890625 
Q 32.328125 33.6875 34.8125 36.53125 
Q 39.546875 41.84375 41.421875 45.53125 
Q 43.3125 49.21875 43.3125 52.78125 
Q 43.3125 58.59375 39.234375 62.25 
Q 35.15625 65.921875 28.609375 65.921875 
Q 23.96875 65.921875 18.8125 64.3125 
Q 13.671875 62.703125 7.8125 59.421875 
L 7.8125 69.390625 
Q 13.765625 71.78125 18.9375 73 
Q 24.125 74.21875 28.421875 74.21875 
Q 39.75 74.21875 46.484375 68.546875 
Q 53.21875 62.890625 53.21875 53.421875 
Q 53.21875 48.921875 51.53125 44.890625 
Q 49.859375 40.875 45.40625 35.40625 
Q 44.1875 33.984375 37.640625 27.21875 
Q 31.109375 20.453125 19.1875 8.296875 
z
" id="DejaVuSans-50"/>
        <path d="M 31.78125 66.40625 
Q 24.171875 66.40625 20.328125 58.90625 
Q 16.5 51.421875 16.5 36.375 
Q 16.5 21.390625 20.328125 13.890625 
Q 24.171875 6.390625 31.78125 6.390625 
Q 39.453125 6.390625 43.28125 13.890625 
Q 47.125 21.390625 47.125 36.375 
Q 47.125 51.421875 43.28125 58.90625 
Q 39.453125 66.40625 31.78125 66.40625 
z
M 31.78125 74.21875 
Q 44.046875 74.21875 50.515625 64.515625 
Q 56.984375 54.828125 56.984375 36.375 
Q 56.984375 17.96875 50.515625 8.265625 
Q 44.046875 -1.421875 31.78125 -1.421875 
Q 19.53125 -1.421875 13.0625 8.265625 
Q 6.59375 17.96875 6.59375 36.375 
Q 6.59375 54.828125 13.0625 64.515625 
Q 19.53125 74.21875 31.78125 74.21875 
z
" id="DejaVuSans-48"/>
        <path d="M 4.890625 31.390625 
L 31.203125 31.390625 
L 31.203125 23.390625 
L 4.890625 23.390625 
z
" id="DejaVuSans-45"/>
        <path d="M 12.40625 8.296875 
L 28.515625 8.296875 
L 28.515625 63.921875 
L 10.984375 60.40625 
L 10.984375 69.390625 
L 28.421875 72.90625 
L 38.28125 72.90625 
L 38.28125 8.296875 
L 54.390625 8.296875 
L 54.390625 0 
L 12.40625 0 
z
" id="DejaVuSans-49"/>
       </defs>
       <use xlink:href="#DejaVuSans-50"/>
       <use x="63.623047" xlink:href="#DejaVuSans-48"/>
       <use x="127.246094" xlink:href="#DejaVuSans-50"/>
       <use x="190.869141" xlink:href="#DejaVuSans-48"/>
       <use x="254.492188" xlink:href="#DejaVuSans-45"/>
       <use x="290.576172" xlink:href="#DejaVuSans-48"/>
       <use x="354.199219" xlink:href="#DejaVuSans-49"/>
      </g>
     </g>
    </g>
    <g id="xtick_2">
     <g id="line2d_2">
      <g>
       <use style="stroke:#000000;stroke-width:0.8;" x="118.923636" xlink:href="#m4ba29afdb1" y="307.584"/>
      </g>
     </g>
     <g id="text_2">
      <!-- 2020-03 -->
      <g transform="translate(98.03223 322.182437)scale(0.1 -0.1)">
       <defs>
        <path d="M 40.578125 39.3125 
Q 47.65625 37.796875 51.625 33 
Q 55.609375 28.21875 55.609375 21.1875 
Q 55.609375 10.40625 48.1875 4.484375 
Q 40.765625 -1.421875 27.09375 -1.421875 
Q 22.515625 -1.421875 17.65625 -0.515625 
Q 12.796875 0.390625 7.625 2.203125 
L 7.625 11.71875 
Q 11.71875 9.328125 16.59375 8.109375 
Q 21.484375 6.890625 26.8125 6.890625 
Q 36.078125 6.890625 40.9375 10.546875 
Q 45.796875 14.203125 45.796875 21.1875 
Q 45.796875 27.640625 41.28125 31.265625 
Q 36.765625 34.90625 28.71875 34.90625 
L 20.21875 34.90625 
L 20.21875 43.015625 
L 29.109375 43.015625 
Q 36.375 43.015625 40.234375 45.921875 
Q 44.09375 48.828125 44.09375 54.296875 
Q 44.09375 59.90625 40.109375 62.90625 
Q 36.140625 65.921875 28.71875 65.921875 
Q 24.65625 65.921875 20.015625 65.03125 
Q 15.375 64.15625 9.8125 62.3125 
L 9.8125 71.09375 
Q 15.4375 72.65625 20.34375 73.4375 
Q 25.25 74.21875 29.59375 74.21875 
Q 40.828125 74.21875 47.359375 69.109375 
Q 53.90625 64.015625 53.90625 55.328125 
Q 53.90625 49.265625 50.4375 45.09375 
Q 46.96875 40.921875 40.578125 39.3125 
z
" id="DejaVuSans-51"/>
       </defs>
       <use xlink:href="#DejaVuSans-50"/>
       <use x="63.623047" xlink:href="#DejaVuSans-48"/>
       <use x="127.246094" xlink:href="#DejaVuSans-50"/>
       <use x="190.869141" xlink:href="#DejaVuSans-48"/>
       <use x="254.492188" xlink:href="#DejaVuSans-45"/>
       <use x="290.576172" xlink:href="#DejaVuSans-48"/>
       <use x="354.199219" xlink:href="#DejaVuSans-51"/>
      </g>
     </g>
    </g>
    <g id="xtick_3">
     <g id="line2d_3">
      <g>
       <use style="stroke:#000000;stroke-width:0.8;" x="164.766061" xlink:href="#m4ba29afdb1" y="307.584"/>
      </g>
     </g>
     <g id="text_3">
      <!-- 2020-05 -->
      <g transform="translate(143.874654 322.182437)scale(0.1 -0.1)">
       <defs>
        <path d="M 10.796875 72.90625 
L 49.515625 72.90625 
L 49.515625 64.59375 
L 19.828125 64.59375 
L 19.828125 46.734375 
Q 21.96875 47.46875 24.109375 47.828125 
Q 26.265625 48.1875 28.421875 48.1875 
Q 40.625 48.1875 47.75 41.5 
Q 54.890625 34.8125 54.890625 23.390625 
Q 54.890625 11.625 47.5625 5.09375 
Q 40.234375 -1.421875 26.90625 -1.421875 
Q 22.3125 -1.421875 17.546875 -0.640625 
Q 12.796875 0.140625 7.71875 1.703125 
L 7.71875 11.625 
Q 12.109375 9.234375 16.796875 8.0625 
Q 21.484375 6.890625 26.703125 6.890625 
Q 35.15625 6.890625 40.078125 11.328125 
Q 45.015625 15.765625 45.015625 23.390625 
Q 45.015625 31 40.078125 35.4375 
Q 35.15625 39.890625 26.703125 39.890625 
Q 22.75 39.890625 18.8125 39.015625 
Q 14.890625 38.140625 10.796875 36.28125 
z
" id="DejaVuSans-53"/>
       </defs>
       <use xlink:href="#DejaVuSans-50"/>
       <use x="63.623047" xlink:href="#DejaVuSans-48"/>
       <use x="127.246094" xlink:href="#DejaVuSans-50"/>
       <use x="190.869141" xlink:href="#DejaVuSans-48"/>
       <use x="254.492188" xlink:href="#DejaVuSans-45"/>
       <use x="290.576172" xlink:href="#DejaVuSans-48"/>
       <use x="354.199219" xlink:href="#DejaVuSans-53"/>
      </g>
     </g>
    </g>
    <g id="xtick_4">
     <g id="line2d_4">
      <g>
       <use style="stroke:#000000;stroke-width:0.8;" x="210.608485" xlink:href="#m4ba29afdb1" y="307.584"/>
      </g>
     </g>
     <g id="text_4">
      <!-- 2020-07 -->
      <g transform="translate(189.717079 322.182437)scale(0.1 -0.1)">
       <defs>
        <path d="M 8.203125 72.90625 
L 55.078125 72.90625 
L 55.078125 68.703125 
L 28.609375 0 
L 18.3125 0 
L 43.21875 64.59375 
L 8.203125 64.59375 
z
" id="DejaVuSans-55"/>
       </defs>
       <use xlink:href="#DejaVuSans-50"/>
       <use x="63.623047" xlink:href="#DejaVuSans-48"/>
       <use x="127.246094" xlink:href="#DejaVuSans-50"/>
       <use x="190.869141" xlink:href="#DejaVuSans-48"/>
       <use x="254.492188" xlink:href="#DejaVuSans-45"/>
       <use x="290.576172" xlink:href="#DejaVuSans-48"/>
       <use x="354.199219" xlink:href="#DejaVuSans-55"/>
      </g>
     </g>
    </g>
    <g id="xtick_5">
     <g id="line2d_5">
      <g>
       <use style="stroke:#000000;stroke-width:0.8;" x="257.202424" xlink:href="#m4ba29afdb1" y="307.584"/>
      </g>
     </g>
     <g id="text_5">
      <!-- 2020-09 -->
      <g transform="translate(236.311018 322.182437)scale(0.1 -0.1)">
       <defs>
        <path d="M 10.984375 1.515625 
L 10.984375 10.5 
Q 14.703125 8.734375 18.5 7.8125 
Q 22.3125 6.890625 25.984375 6.890625 
Q 35.75 6.890625 40.890625 13.453125 
Q 46.046875 20.015625 46.78125 33.40625 
Q 43.953125 29.203125 39.59375 26.953125 
Q 35.25 24.703125 29.984375 24.703125 
Q 19.046875 24.703125 12.671875 31.3125 
Q 6.296875 37.9375 6.296875 49.421875 
Q 6.296875 60.640625 12.9375 67.421875 
Q 19.578125 74.21875 30.609375 74.21875 
Q 43.265625 74.21875 49.921875 64.515625 
Q 56.59375 54.828125 56.59375 36.375 
Q 56.59375 19.140625 48.40625 8.859375 
Q 40.234375 -1.421875 26.421875 -1.421875 
Q 22.703125 -1.421875 18.890625 -0.6875 
Q 15.09375 0.046875 10.984375 1.515625 
z
M 30.609375 32.421875 
Q 37.25 32.421875 41.125 36.953125 
Q 45.015625 41.5 45.015625 49.421875 
Q 45.015625 57.28125 41.125 61.84375 
Q 37.25 66.40625 30.609375 66.40625 
Q 23.96875 66.40625 20.09375 61.84375 
Q 16.21875 57.28125 16.21875 49.421875 
Q 16.21875 41.5 20.09375 36.953125 
Q 23.96875 32.421875 30.609375 32.421875 
z
" id="DejaVuSans-57"/>
       </defs>
       <use xlink:href="#DejaVuSans-50"/>
       <use x="63.623047" xlink:href="#DejaVuSans-48"/>
       <use x="127.246094" xlink:href="#DejaVuSans-50"/>
       <use x="190.869141" xlink:href="#DejaVuSans-48"/>
       <use x="254.492188" xlink:href="#DejaVuSans-45"/>
       <use x="290.576172" xlink:href="#DejaVuSans-48"/>
       <use x="354.199219" xlink:href="#DejaVuSans-57"/>
      </g>
     </g>
    </g>
    <g id="xtick_6">
     <g id="line2d_6">
      <g>
       <use style="stroke:#000000;stroke-width:0.8;" x="303.044848" xlink:href="#m4ba29afdb1" y="307.584"/>
      </g>
     </g>
     <g id="text_6">
      <!-- 2020-11 -->
      <g transform="translate(282.153442 322.182437)scale(0.1 -0.1)">
       <use xlink:href="#DejaVuSans-50"/>
       <use x="63.623047" xlink:href="#DejaVuSans-48"/>
       <use x="127.246094" xlink:href="#DejaVuSans-50"/>
       <use x="190.869141" xlink:href="#DejaVuSans-48"/>
       <use x="254.492188" xlink:href="#DejaVuSans-45"/>
       <use x="290.576172" xlink:href="#DejaVuSans-49"/>
       <use x="354.199219" xlink:href="#DejaVuSans-49"/>
      </g>
     </g>
    </g>
    <g id="xtick_7">
     <g id="line2d_7">
      <g>
       <use style="stroke:#000000;stroke-width:0.8;" x="348.887273" xlink:href="#m4ba29afdb1" y="307.584"/>
      </g>
     </g>
     <g id="text_7">
      <!-- 2021-01 -->
      <g transform="translate(327.995866 322.182437)scale(0.1 -0.1)">
       <use xlink:href="#DejaVuSans-50"/>
       <use x="63.623047" xlink:href="#DejaVuSans-48"/>
       <use x="127.246094" xlink:href="#DejaVuSans-50"/>
       <use x="190.869141" xlink:href="#DejaVuSans-49"/>
       <use x="254.492188" xlink:href="#DejaVuSans-45"/>
       <use x="290.576172" xlink:href="#DejaVuSans-48"/>
       <use x="354.199219" xlink:href="#DejaVuSans-49"/>
      </g>
     </g>
    </g>
    <g id="xtick_8">
     <g id="line2d_8">
      <g>
       <use style="stroke:#000000;stroke-width:0.8;" x="393.226667" xlink:href="#m4ba29afdb1" y="307.584"/>
      </g>
     </g>
     <g id="text_8">
      <!-- 2021-03 -->
      <g transform="translate(372.33526 322.182437)scale(0.1 -0.1)">
       <use xlink:href="#DejaVuSans-50"/>
       <use x="63.623047" xlink:href="#DejaVuSans-48"/>
       <use x="127.246094" xlink:href="#DejaVuSans-50"/>
       <use x="190.869141" xlink:href="#DejaVuSans-49"/>
       <use x="254.492188" xlink:href="#DejaVuSans-45"/>
       <use x="290.576172" xlink:href="#DejaVuSans-48"/>
       <use x="354.199219" xlink:href="#DejaVuSans-51"/>
      </g>
     </g>
    </g>
   </g>
   <g id="matplotlib.axis_2">
    <g id="ytick_1">
     <g id="line2d_9">
      <defs>
       <path d="M 0 0 
L -3.5 0 
" id="m5e4fba80e4" style="stroke:#000000;stroke-width:0.8;"/>
      </defs>
      <g>
       <use style="stroke:#000000;stroke-width:0.8;" x="57.6" xlink:href="#m5e4fba80e4" y="268.547339"/>
      </g>
     </g>
     <g id="text_9">
      <!-- 10000 -->
      <g transform="translate(18.7875 272.346558)scale(0.1 -0.1)">
       <use xlink:href="#DejaVuSans-49"/>
       <use x="63.623047" xlink:href="#DejaVuSans-48"/>
       <use x="127.246094" xlink:href="#DejaVuSans-48"/>
       <use x="190.869141" xlink:href="#DejaVuSans-48"/>
       <use x="254.492188" xlink:href="#DejaVuSans-48"/>
      </g>
     </g>
    </g>
    <g id="ytick_2">
     <g id="line2d_10">
      <g>
       <use style="stroke:#000000;stroke-width:0.8;" x="57.6" xlink:href="#m5e4fba80e4" y="225.494958"/>
      </g>
     </g>
     <g id="text_10">
      <!-- 20000 -->
      <g transform="translate(18.7875 229.294177)scale(0.1 -0.1)">
       <use xlink:href="#DejaVuSans-50"/>
       <use x="63.623047" xlink:href="#DejaVuSans-48"/>
       <use x="127.246094" xlink:href="#DejaVuSans-48"/>
       <use x="190.869141" xlink:href="#DejaVuSans-48"/>
       <use x="254.492188" xlink:href="#DejaVuSans-48"/>
      </g>
     </g>
    </g>
    <g id="ytick_3">
     <g id="line2d_11">
      <g>
       <use style="stroke:#000000;stroke-width:0.8;" x="57.6" xlink:href="#m5e4fba80e4" y="182.442577"/>
      </g>
     </g>
     <g id="text_11">
      <!-- 30000 -->
      <g transform="translate(18.7875 186.241796)scale(0.1 -0.1)">
       <use xlink:href="#DejaVuSans-51"/>
       <use x="63.623047" xlink:href="#DejaVuSans-48"/>
       <use x="127.246094" xlink:href="#DejaVuSans-48"/>
       <use x="190.869141" xlink:href="#DejaVuSans-48"/>
       <use x="254.492188" xlink:href="#DejaVuSans-48"/>
      </g>
     </g>
    </g>
    <g id="ytick_4">
     <g id="line2d_12">
      <g>
       <use style="stroke:#000000;stroke-width:0.8;" x="57.6" xlink:href="#m5e4fba80e4" y="139.390196"/>
      </g>
     </g>
     <g id="text_12">
      <!-- 40000 -->
      <g transform="translate(18.7875 143.189414)scale(0.1 -0.1)">
       <defs>
        <path d="M 37.796875 64.3125 
L 12.890625 25.390625 
L 37.796875 25.390625 
z
M 35.203125 72.90625 
L 47.609375 72.90625 
L 47.609375 25.390625 
L 58.015625 25.390625 
L 58.015625 17.1875 
L 47.609375 17.1875 
L 47.609375 0 
L 37.796875 0 
L 37.796875 17.1875 
L 4.890625 17.1875 
L 4.890625 26.703125 
z
" id="DejaVuSans-52"/>
       </defs>
       <use xlink:href="#DejaVuSans-52"/>
       <use x="63.623047" xlink:href="#DejaVuSans-48"/>
       <use x="127.246094" xlink:href="#DejaVuSans-48"/>
       <use x="190.869141" xlink:href="#DejaVuSans-48"/>
       <use x="254.492188" xlink:href="#DejaVuSans-48"/>
      </g>
     </g>
    </g>
    <g id="ytick_5">
     <g id="line2d_13">
      <g>
       <use style="stroke:#000000;stroke-width:0.8;" x="57.6" xlink:href="#m5e4fba80e4" y="96.337814"/>
      </g>
     </g>
     <g id="text_13">
      <!-- 50000 -->
      <g transform="translate(18.7875 100.137033)scale(0.1 -0.1)">
       <use xlink:href="#DejaVuSans-53"/>
       <use x="63.623047" xlink:href="#DejaVuSans-48"/>
       <use x="127.246094" xlink:href="#DejaVuSans-48"/>
       <use x="190.869141" xlink:href="#DejaVuSans-48"/>
       <use x="254.492188" xlink:href="#DejaVuSans-48"/>
      </g>
     </g>
    </g>
    <g id="ytick_6">
     <g id="line2d_14">
      <g>
       <use style="stroke:#000000;stroke-width:0.8;" x="57.6" xlink:href="#m5e4fba80e4" y="53.285433"/>
      </g>
     </g>
     <g id="text_14">
      <!-- 60000 -->
      <g transform="translate(18.7875 57.084652)scale(0.1 -0.1)">
       <defs>
        <path d="M 33.015625 40.375 
Q 26.375 40.375 22.484375 35.828125 
Q 18.609375 31.296875 18.609375 23.390625 
Q 18.609375 15.53125 22.484375 10.953125 
Q 26.375 6.390625 33.015625 6.390625 
Q 39.65625 6.390625 43.53125 10.953125 
Q 47.40625 15.53125 47.40625 23.390625 
Q 47.40625 31.296875 43.53125 35.828125 
Q 39.65625 40.375 33.015625 40.375 
z
M 52.59375 71.296875 
L 52.59375 62.3125 
Q 48.875 64.0625 45.09375 64.984375 
Q 41.3125 65.921875 37.59375 65.921875 
Q 27.828125 65.921875 22.671875 59.328125 
Q 17.53125 52.734375 16.796875 39.40625 
Q 19.671875 43.65625 24.015625 45.921875 
Q 28.375 48.1875 33.59375 48.1875 
Q 44.578125 48.1875 50.953125 41.515625 
Q 57.328125 34.859375 57.328125 23.390625 
Q 57.328125 12.15625 50.6875 5.359375 
Q 44.046875 -1.421875 33.015625 -1.421875 
Q 20.359375 -1.421875 13.671875 8.265625 
Q 6.984375 17.96875 6.984375 36.375 
Q 6.984375 53.65625 15.1875 63.9375 
Q 23.390625 74.21875 37.203125 74.21875 
Q 40.921875 74.21875 44.703125 73.484375 
Q 48.484375 72.75 52.59375 71.296875 
z
" id="DejaVuSans-54"/>
       </defs>
       <use xlink:href="#DejaVuSans-54"/>
       <use x="63.623047" xlink:href="#DejaVuSans-48"/>
       <use x="127.246094" xlink:href="#DejaVuSans-48"/>
       <use x="190.869141" xlink:href="#DejaVuSans-48"/>
       <use x="254.492188" xlink:href="#DejaVuSans-48"/>
      </g>
     </g>
    </g>
   </g>
   <g id="line2d_15">
    <path clip-path="url(#p349b0aa199)" d="M 88.111515 271.399794 
L 88.86303 271.271394 
L 91.117576 271.854915 
L 91.869091 272.249416 
L 92.620606 272.345859 
L 93.372121 272.130173 
L 94.123636 271.511194 
L 94.875152 271.272851 
L 95.626667 270.705008 
L 97.881212 270.197829 
L 99.384242 269.895289 
L 100.887273 268.997955 
L 102.390303 268.032644 
L 103.141818 267.389206 
L 103.893333 267.088984 
L 104.644848 266.524918 
L 105.396364 266.129376 
L 106.147879 265.959868 
L 106.899394 265.931463 
L 107.650909 266.170085 
L 108.402424 266.291581 
L 109.153939 266.29765 
L 109.905455 266.149708 
L 112.16 266.255115 
L 113.66303 266.419556 
L 114.414545 266.689807 
L 115.166061 266.536047 
L 115.917576 265.95397 
L 117.420606 265.339658 
L 118.923636 265.053434 
L 120.426667 265.806176 
L 121.178182 266.221602 
L 121.929697 266.8858 
L 123.432727 267.571566 
L 124.184242 267.4997 
L 124.935758 267.951433 
L 125.687273 267.9992 
L 126.438788 268.205341 
L 127.190303 265.483313 
L 127.941818 264.941795 
L 128.693333 264.752933 
L 130.947879 265.091525 
L 131.699394 265.468189 
L 133.953939 267.363814 
L 136.208485 270.483039 
L 136.96 271.987217 
L 138.46303 275.574983 
L 140.717576 279.049035 
L 141.469091 280.546782 
L 142.220606 280.488095 
L 142.972121 280.111192 
L 144.475152 279.880898 
L 145.226667 280.168923 
L 146.729697 279.82597 
L 148.232727 279.015033 
L 148.984242 278.97199 
L 149.735758 279.254396 
L 150.487273 279.089815 
L 152.741818 279.051447 
L 153.493333 278.951083 
L 154.244848 278.976765 
L 154.996364 279.381154 
L 155.747879 279.341373 
L 157.250909 279.548292 
L 158.002424 279.498977 
L 159.505455 278.880998 
L 162.511515 277.85222 
L 163.26303 276.952785 
L 164.014545 275.579716 
L 165.517576 273.428782 
L 167.020606 272.042173 
L 167.772121 271.50351 
L 169.275152 269.853394 
L 170.026667 268.542254 
L 170.778182 267.719211 
L 173.032727 268.285759 
L 173.784242 268.214406 
L 174.535758 267.966003 
L 175.287273 267.849099 
L 178.293333 268.044686 
L 179.044848 267.801435 
L 184.305455 267.876516 
L 185.05697 268.318174 
L 186.56 268.615612 
L 188.06303 268.632514 
L 188.814545 268.088629 
L 190.317576 268.081394 
L 191.069091 267.896238 
L 194.075152 268.058181 
L 195.578182 267.772317 
L 197.081212 267.775578 
L 199.335758 268.470352 
L 200.838788 268.553612 
L 203.093333 268.488069 
L 203.844848 269.016783 
L 205.347879 269.021839 
L 206.099394 269.209659 
L 208.353939 269.306103 
L 209.85697 269.639568 
L 210.608485 270.002496 
L 212.86303 270.17838 
L 213.614545 270.166185 
L 215.869091 270.504851 
L 217.372121 270.472236 
L 218.875152 270.629841 
L 220.378182 271.193769 
L 224.887273 271.282848 
L 226.390303 271.179512 
L 229.396364 270.084036 
L 230.147879 268.914592 
L 230.899394 267.008862 
L 232.402424 264.519923 
L 233.153939 263.578295 
L 233.905455 262.439149 
L 234.65697 261.523606 
L 236.16 260.225107 
L 236.911515 259.761456 
L 238.414545 258.275545 
L 240.669091 257.378074 
L 241.420606 257.285861 
L 242.923636 257.859154 
L 243.675152 258.296303 
L 244.426667 258.928388 
L 245.178182 259.21547 
L 245.929697 259.117998 
L 246.681212 258.650039 
L 247.432727 258.602727 
L 252.693333 259.068916 
L 254.947879 259.015745 
L 256.450909 259.237512 
L 258.705455 259.062165 
L 259.45697 258.161467 
L 260.96 257.44869 
L 262.46303 257.773197 
L 263.966061 257.909195 
L 265.469091 258.398804 
L 266.220606 258.77808 
L 269.978182 259.935269 
L 270.729697 260.338418 
L 271.481212 260.875414 
L 272.984242 263.007069 
L 273.735758 263.55751 
L 277.493333 263.348804 
L 278.244848 263.526466 
L 282.753939 263.771884 
L 284.25697 264.103846 
L 285.76 264.116047 
L 287.26303 263.08031 
L 288.014545 262.441689 
L 289.517576 261.825178 
L 290.269091 261.451586 
L 292.523636 260.800462 
L 294.026667 259.826202 
L 295.529697 256.967867 
L 297.032727 254.918669 
L 297.784242 254.133518 
L 298.535758 253.54897 
L 299.287273 252.557639 
L 300.790303 251.399601 
L 303.044848 249.412495 
L 303.796364 249.100881 
L 305.299394 248.081172 
L 306.050909 246.351529 
L 306.802424 245.058615 
L 307.553939 244.764182 
L 308.305455 243.98894 
L 309.05697 243.557953 
L 309.808485 242.905885 
L 310.56 242.006856 
L 312.06303 239.624674 
L 312.814545 238.985781 
L 313.566061 238.600781 
L 314.317576 237.542796 
L 315.820606 234.393976 
L 316.572121 233.175681 
L 317.323636 231.278572 
L 318.075152 229.795469 
L 319.578182 228.455841 
L 321.081212 226.42997 
L 321.832727 226.399343 
L 322.584242 226.75881 
L 324.087273 226.752945 
L 324.838788 225.807878 
L 325.590303 225.702001 
L 327.093333 224.650091 
L 327.844848 224.995909 
L 328.596364 225.489962 
L 329.347879 225.501258 
L 330.099394 225.27444 
L 333.105455 225.47448 
L 333.85697 225.3855 
L 334.608485 225.140716 
L 335.36 225.075495 
L 336.111515 224.735069 
L 336.86303 222.727205 
L 339.117576 212.21523 
L 339.869091 209.721963 
L 340.620606 208.187648 
L 341.372121 205.872899 
L 342.875152 202.693829 
L 343.626667 200.404149 
L 344.378182 196.74356 
L 348.135758 182.670569 
L 348.887273 180.215263 
L 350.390303 170.800206 
L 351.141818 168.371909 
L 351.893333 163.80963 
L 352.644848 156.617262 
L 354.147879 138.959917 
L 354.899394 132.354984 
L 355.650909 128.999777 
L 356.402424 127.852185 
L 357.153939 128.23456 
L 357.905455 127.357782 
L 358.65697 125.644368 
L 359.408485 125.367211 
L 360.16 126.171013 
L 360.911515 127.261064 
L 362.414545 129.871683 
L 363.166061 131.852155 
L 363.917576 132.900081 
L 364.669091 133.191361 
L 365.420606 132.857456 
L 366.172121 132.975274 
L 366.923636 132.537757 
L 367.675152 132.683437 
L 368.426667 133.885136 
L 369.929697 141.495376 
L 370.681212 143.616892 
L 371.432727 144.092793 
L 372.184242 144.155178 
L 372.935758 145.377021 
L 373.687273 147.003812 
L 374.438788 146.827637 
L 375.190303 144.907517 
L 375.941818 142.045597 
L 376.693333 140.28404 
L 377.444848 128.471768 
L 378.196364 119.264807 
L 378.947879 113.661902 
L 379.699394 105.348699 
L 380.450909 99.158328 
L 381.953939 88.790843 
L 382.705455 84.93923 
L 383.45697 81.999359 
L 384.208485 76.29543 
L 384.96 71.981971 
L 385.711515 64.775557 
L 387.214545 55.068773 
L 387.966061 53.568 
L 388.717576 54.625647 
L 389.469091 56.70541 
L 390.972121 62.233049 
L 391.723636 66.317221 
L 392.475152 66.040774 
L 393.226667 65.951167 
L 393.978182 66.578062 
L 394.729697 66.276403 
L 396.984242 66.411959 
L 397.735758 66.052295 
L 398.487273 65.172532 
L 398.487273 65.172532 
" style="fill:none;stroke:#1f77b4;stroke-linecap:square;stroke-width:1.5;"/>
   </g>
   <g id="line2d_16">
    <path clip-path="url(#p349b0aa199)" d="M 88.111515 282.083927 
L 88.86303 281.54969 
L 89.614545 280.631921 
L 91.117576 279.31914 
L 91.869091 278.502385 
L 92.620606 278.043908 
L 93.372121 277.939393 
L 94.123636 277.976993 
L 94.875152 277.580943 
L 95.626667 277.580727 
L 97.881212 276.466085 
L 100.135758 276.429256 
L 101.638788 276.631164 
L 103.141818 276.586363 
L 104.644848 276.275232 
L 105.396364 275.828753 
L 106.147879 275.226078 
L 107.650909 273.586551 
L 108.402424 273.023899 
L 112.16 272.259138 
L 112.911515 272.033899 
L 114.414545 271.176211 
L 115.166061 271.458906 
L 115.917576 272.454469 
L 118.923636 275.554704 
L 121.178182 276.27301 
L 121.929697 276.161382 
L 123.432727 276.232527 
L 124.184242 277.017294 
L 124.935758 277.53055 
L 125.687273 278.212199 
L 126.438788 278.719065 
L 127.190303 283.499631 
L 128.693333 288.0312 
L 130.196364 291.533611 
L 130.947879 292.870881 
L 131.699394 293.960134 
L 133.202424 294.837159 
L 134.705455 295.488 
L 135.45697 295.444506 
L 136.208485 295.234696 
L 136.96 294.757563 
L 138.46303 293.17708 
L 139.966061 292.521399 
L 140.717576 291.94886 
L 142.220606 290.399308 
L 142.972121 290.258088 
L 144.475152 289.166411 
L 145.226667 288.131457 
L 146.729697 286.791318 
L 148.232727 286.625303 
L 148.984242 286.36167 
L 149.735758 285.644271 
L 150.487273 285.528792 
L 153.493333 285.422999 
L 154.244848 285.026935 
L 154.996364 284.043663 
L 155.747879 283.824335 
L 156.499394 283.472631 
L 158.002424 283.263757 
L 161.008485 283.281541 
L 162.511515 283.503239 
L 164.014545 284.574882 
L 165.517576 285.130503 
L 167.020606 284.806983 
L 167.772121 284.410053 
L 169.275152 284.130465 
L 170.026667 284.253334 
L 170.778182 283.96986 
L 171.529697 283.115771 
L 173.032727 281.181162 
L 174.535758 279.94159 
L 175.287273 279.22974 
L 176.790303 277.478126 
L 177.541818 276.385703 
L 178.293333 275.851781 
L 182.050909 274.829067 
L 183.553939 275.116718 
L 184.305455 275.289687 
L 185.808485 275.129225 
L 186.56 274.544479 
L 187.311515 274.293425 
L 188.06303 273.871852 
L 189.566061 273.969191 
L 194.826667 273.912971 
L 197.081212 273.571604 
L 197.832727 273.037954 
L 198.584242 272.745125 
L 199.335758 272.239895 
L 200.087273 272.041696 
L 200.838788 272.042299 
L 203.093333 272.42369 
L 203.844848 272.17981 
L 206.099394 272.238646 
L 209.105455 273.030716 
L 209.85697 273.060603 
L 210.608485 272.974739 
L 212.111515 273.11387 
L 213.614545 273.247577 
L 218.875152 273.197627 
L 220.378182 272.894142 
L 223.384242 272.794646 
L 226.390303 272.759321 
L 229.396364 273.0312 
L 230.147879 273.754997 
L 230.899394 274.926371 
L 231.650909 275.576681 
L 232.402424 275.913887 
L 234.65697 276.400604 
L 236.16 275.966717 
L 238.414545 274.702513 
L 239.917576 273.155689 
L 241.420606 271.312677 
L 242.923636 269.081433 
L 245.178182 265.163876 
L 245.929697 264.88628 
L 246.681212 264.775185 
L 248.935758 263.90686 
L 249.687273 263.709713 
L 251.190303 263.08236 
L 251.941818 262.906687 
L 252.693333 263.059558 
L 253.444848 263.330962 
L 256.450909 263.437826 
L 257.953939 263.197291 
L 258.705455 263.442603 
L 259.45697 265.033442 
L 260.208485 265.967413 
L 260.96 267.130306 
L 261.711515 267.856898 
L 262.46303 268.426845 
L 263.214545 269.180812 
L 264.717576 269.925467 
L 266.220606 270.411383 
L 267.723636 270.517198 
L 269.978182 270.426386 
L 271.481212 270.103434 
L 272.984242 269.135288 
L 275.238788 268.877072 
L 276.741818 268.347642 
L 277.493333 268.193916 
L 278.244848 267.701203 
L 279.747879 267.344444 
L 280.499394 267.256498 
L 281.250909 267.044939 
L 285.76 267.038448 
L 286.511515 267.341658 
L 288.014545 267.71548 
L 288.766061 267.482523 
L 291.020606 267.469925 
L 292.523636 267.390359 
L 294.026667 267.427947 
L 294.778182 267.987906 
L 295.529697 268.303523 
L 297.032727 268.264025 
L 297.784242 268.066459 
L 298.535758 267.584082 
L 299.287273 267.286853 
L 300.790303 266.389086 
L 303.044848 265.4055 
L 305.299394 263.558292 
L 306.050909 263.450445 
L 306.802424 262.92694 
L 307.553939 261.78903 
L 308.305455 260.95802 
L 309.05697 259.920106 
L 309.808485 259.495022 
L 312.06303 258.779746 
L 312.814545 258.111267 
L 313.566061 257.247569 
L 315.820606 256.371096 
L 316.572121 255.760459 
L 317.323636 255.557331 
L 318.075152 254.915996 
L 319.578182 252.291697 
L 320.329697 251.200037 
L 321.081212 250.816355 
L 321.832727 250.16095 
L 322.584242 248.805958 
L 323.335758 247.843202 
L 324.087273 246.611771 
L 324.838788 245.664836 
L 325.590303 244.440973 
L 327.093333 242.890316 
L 327.844848 241.433011 
L 328.596364 239.565725 
L 329.347879 238.406607 
L 330.099394 237.983737 
L 331.602424 237.323076 
L 333.85697 237.620212 
L 335.36 237.54247 
L 336.111515 237.572487 
L 336.86303 237.786203 
L 338.366061 239.956952 
L 339.117576 241.112711 
L 339.869091 241.991126 
L 340.620606 241.836484 
L 341.372121 242.174661 
L 342.123636 242.080907 
L 342.875152 241.543175 
L 343.626667 241.443502 
L 344.378182 242.06492 
L 345.129697 241.874427 
L 345.881212 240.96555 
L 347.384242 238.549044 
L 348.887273 234.17839 
L 349.638788 233.385828 
L 350.390303 232.060372 
L 351.141818 229.075686 
L 351.893333 228.176701 
L 352.644848 229.335409 
L 353.396364 231.27111 
L 354.147879 232.732197 
L 354.899394 232.11773 
L 355.650909 228.811303 
L 356.402424 224.945065 
L 358.65697 210.402351 
L 359.408485 206.23474 
L 363.166061 181.889678 
L 363.917576 180.218902 
L 364.669091 179.574444 
L 365.420606 180.30741 
L 366.172121 180.069216 
L 366.923636 181.272918 
L 367.675152 182.982202 
L 368.426667 185.676835 
L 369.178182 185.035437 
L 369.929697 183.732519 
L 370.681212 183.275958 
L 371.432727 183.804661 
L 372.184242 183.964488 
L 372.935758 183.538035 
L 373.687273 182.536708 
L 374.438788 182.620477 
L 375.190303 183.560274 
L 375.941818 184.947942 
L 376.693333 185.76004 
L 377.444848 193.048832 
L 378.196364 197.523638 
L 378.947879 197.09184 
L 379.699394 198.953288 
L 380.450909 198.555051 
L 381.202424 197.161972 
L 381.953939 195.450407 
L 382.705455 192.665165 
L 383.45697 187.528265 
L 384.208485 185.178266 
L 384.96 182.039618 
L 385.711515 179.947209 
L 387.214545 169.562943 
L 391.723636 130.011545 
L 392.475152 130.79587 
L 393.226667 129.543384 
L 393.978182 127.346286 
L 394.729697 126.607147 
L 395.481212 126.139658 
L 396.232727 125.375636 
L 396.984242 125.275684 
L 397.735758 124.321469 
L 398.487273 123.82027 
L 398.487273 123.82027 
" style="fill:none;stroke:#ff7f0e;stroke-linecap:square;stroke-width:1.5;"/>
   </g>
   <g id="line2d_17">
    <path clip-path="url(#p349b0aa199)" d="M 88.111515 276.74186 
L 90.366061 275.819647 
L 92.620606 275.194883 
L 93.372121 275.034783 
L 97.881212 273.331957 
L 100.135758 272.955775 
L 102.390303 272.317134 
L 106.147879 270.592973 
L 106.899394 270.158218 
L 108.402424 269.65774 
L 109.153939 269.590405 
L 109.905455 269.397656 
L 112.16 269.257127 
L 115.166061 268.997476 
L 117.420606 269.672201 
L 118.923636 270.304069 
L 122.681212 271.682426 
L 123.432727 271.902047 
L 124.184242 272.258497 
L 125.687273 273.105699 
L 126.438788 273.462203 
L 128.693333 276.392066 
L 130.196364 278.237897 
L 131.699394 279.714161 
L 136.208485 282.858867 
L 138.46303 284.376032 
L 141.469091 285.822103 
L 142.972121 285.18464 
L 145.978182 283.728135 
L 146.729697 283.308644 
L 148.984242 282.66683 
L 150.487273 282.309303 
L 152.741818 282.263909 
L 154.244848 282.00185 
L 154.996364 281.712408 
L 156.499394 281.48677 
L 158.002424 281.381367 
L 160.25697 280.893399 
L 162.511515 280.677729 
L 163.26303 280.471401 
L 167.020606 278.424578 
L 169.275152 276.991929 
L 170.778182 275.844535 
L 173.784242 274.401473 
L 177.541818 272.274635 
L 179.044848 271.726201 
L 181.299394 271.464065 
L 182.050909 271.377579 
L 183.553939 271.48561 
L 185.808485 271.813683 
L 187.311515 271.431927 
L 188.814545 271.028892 
L 194.826667 270.918576 
L 196.329697 270.722942 
L 198.584242 270.477325 
L 200.087273 270.297716 
L 202.341818 270.407268 
L 206.099394 270.724152 
L 212.86303 271.693548 
L 218.123636 271.871575 
L 222.632727 272.068349 
L 227.893333 271.780471 
L 230.147879 271.334795 
L 233.905455 269.394054 
L 236.911515 267.643178 
L 241.420606 264.299269 
L 243.675152 263.005812 
L 245.178182 262.189673 
L 248.935758 261.303102 
L 251.941818 260.99148 
L 256.450909 261.337669 
L 257.953939 261.154092 
L 258.705455 261.252384 
L 260.96 262.289498 
L 262.46303 263.100021 
L 263.966061 263.755175 
L 266.220606 264.594732 
L 268.475152 264.938394 
L 271.481212 265.489424 
L 272.984242 266.071178 
L 273.735758 266.295665 
L 276.741818 265.888997 
L 279.747879 265.474641 
L 282.753939 265.414338 
L 284.25697 265.57258 
L 285.76 265.577247 
L 287.26303 265.296859 
L 290.269091 264.494832 
L 293.275152 263.881384 
L 294.026667 263.627074 
L 296.281212 262.122278 
L 303.044848 257.408998 
L 304.547879 256.389804 
L 305.299394 255.819732 
L 306.802424 253.992778 
L 309.808485 251.200453 
L 311.311515 249.891756 
L 315.069091 246.313644 
L 317.323636 243.417951 
L 320.329697 239.296931 
L 321.081212 238.623163 
L 321.832727 238.280147 
L 324.087273 236.682358 
L 324.838788 235.736357 
L 328.596364 232.527844 
L 329.347879 231.953932 
L 330.099394 231.629089 
L 331.602424 231.354387 
L 333.105455 231.586281 
L 336.111515 231.153778 
L 336.86303 230.256704 
L 339.117576 226.66397 
L 340.620606 225.012066 
L 343.626667 220.923825 
L 345.129697 217.883871 
L 346.632727 214.112618 
L 348.887273 207.196827 
L 352.644848 192.976335 
L 355.650909 178.90554 
L 357.905455 171.129648 
L 358.65697 168.02336 
L 360.16 163.695516 
L 362.414545 158.28183 
L 363.166061 156.870917 
L 363.917576 156.559492 
L 364.669091 156.382903 
L 365.420606 156.582433 
L 366.172121 156.522245 
L 366.923636 156.905338 
L 367.675152 157.832819 
L 368.426667 159.780986 
L 369.178182 161.330156 
L 369.929697 162.613947 
L 370.681212 163.446425 
L 371.432727 163.948727 
L 372.184242 164.059833 
L 373.687273 164.77026 
L 374.438788 164.724057 
L 375.190303 164.233895 
L 375.941818 163.496769 
L 376.693333 163.02204 
L 378.196364 158.394222 
L 379.699394 152.150993 
L 382.705455 138.802197 
L 385.711515 122.361383 
L 387.966061 108.314314 
L 390.220606 101.261448 
L 391.723636 98.164383 
L 392.475152 98.418322 
L 394.729697 96.441775 
L 395.481212 96.236256 
L 396.232727 95.898447 
L 396.984242 95.843821 
L 398.487273 94.496401 
L 398.487273 94.496401 
" style="fill:none;stroke:#2ca02c;stroke-linecap:square;stroke-width:1.5;"/>
   </g>
   <g id="line2d_18">
    <path clip-path="url(#p349b0aa199)" d="M 73.832727 280.651674 
L 74.584242 281.628511 
L 75.335758 279.970944 
L 76.838788 279.929047 
L 78.341818 276.478614 
L 79.093333 276.973236 
L 79.844848 277.946004 
L 80.596364 276.342985 
L 81.347879 277.087095 
L 82.099394 276.38768 
L 82.850909 276.703706 
L 83.602424 273.681651 
L 84.353939 273.677088 
L 85.105455 274.071333 
L 85.85697 273.325077 
L 86.608485 273.278064 
L 87.36 274.150298 
L 88.111515 274.439969 
L 88.86303 274.02531 
L 89.614545 274.31201 
L 90.366061 275.469538 
L 91.117576 275.278622 
L 91.869091 275.706512 
L 93.372121 273.276615 
L 94.123636 271.159442 
L 94.875152 271.602078 
L 95.626667 270.662395 
L 96.378182 271.362391 
L 97.129697 271.179296 
L 98.632727 271.596984 
L 99.384242 272.097711 
L 100.135758 270.21173 
L 100.887273 269.621295 
L 101.638788 269.371376 
L 102.390303 268.987945 
L 103.141818 267.852976 
L 103.893333 269.181422 
L 104.644848 267.401715 
L 105.396364 267.049324 
L 106.147879 267.556797 
L 106.899394 267.011417 
L 107.650909 268.964854 
L 108.402424 268.865066 
L 109.153939 269.812735 
L 109.905455 267.747096 
L 110.65697 270.297505 
L 111.408485 270.237963 
L 112.16 269.858033 
L 112.911515 269.977353 
L 113.66303 268.662404 
L 115.166061 271.501077 
L 115.917576 273.756161 
L 116.669091 273.642223 
L 117.420606 274.076722 
L 118.172121 274.839883 
L 118.923636 274.831882 
L 119.675152 273.170081 
L 120.426667 273.850618 
L 121.178182 273.85188 
L 121.929697 272.537111 
L 122.681212 272.14156 
L 123.432727 273.257478 
L 124.184242 276.941743 
L 124.935758 277.396972 
L 125.687273 277.591669 
L 126.438788 277.36804 
L 127.190303 290.443414 
L 127.941818 287.363052 
L 128.693333 289.288592 
L 129.444848 288.523386 
L 130.196364 289.885484 
L 130.947879 288.622263 
L 131.699394 288.3014 
L 132.450909 284.992187 
L 133.202424 284.878779 
L 133.953939 284.917498 
L 134.705455 286.613539 
L 135.45697 283.646068 
L 136.208485 282.467114 
L 136.96 282.807558 
L 137.711515 282.711788 
L 138.46303 282.760093 
L 139.214545 284.792962 
L 139.966061 286.276281 
L 140.717576 283.319451 
L 141.469091 283.83115 
L 142.220606 282.875387 
L 142.972121 282.181813 
L 143.723636 282.582093 
L 144.475152 282.010185 
L 145.226667 282.41619 
L 145.978182 280.181169 
L 146.729697 279.911575 
L 148.232727 280.107119 
L 148.984242 281.85074 
L 149.735758 282.263613 
L 150.487273 280.845467 
L 151.238788 282.483115 
L 151.990303 281.957726 
L 152.741818 282.637738 
L 153.493333 281.222725 
L 154.244848 281.089144 
L 154.996364 280.487444 
L 155.747879 280.728365 
L 156.499394 281.909464 
L 157.250909 282.079564 
L 158.002424 280.869577 
L 158.753939 279.065251 
L 159.505455 279.297949 
L 160.25697 278.885917 
L 161.008485 278.868545 
L 162.511515 278.345415 
L 164.014545 273.96871 
L 164.766061 273.836012 
L 165.517576 273.319933 
L 166.269091 273.631782 
L 167.020606 273.70777 
L 167.772121 273.28181 
L 168.523636 271.780799 
L 169.275152 271.234023 
L 170.026667 268.604739 
L 170.778182 269.663192 
L 171.529697 275.153942 
L 172.281212 273.467957 
L 173.032727 274.015207 
L 173.784242 272.425498 
L 174.535758 270.344421 
L 176.038788 270.850426 
L 176.790303 269.51548 
L 177.541818 270.112078 
L 178.293333 269.452516 
L 179.044848 269.528051 
L 179.796364 271.409677 
L 180.547879 272.087106 
L 182.050909 271.978054 
L 182.802424 273.815487 
L 183.553939 273.407738 
L 184.305455 273.183865 
L 185.808485 270.922259 
L 186.56 270.481188 
L 188.06303 270.420333 
L 188.814545 267.959674 
L 189.566061 270.293329 
L 190.317576 270.572739 
L 191.069091 269.249933 
L 191.820606 269.926092 
L 192.572121 270.176657 
L 193.323636 269.708182 
L 194.075152 269.972545 
L 195.578182 269.41915 
L 196.329697 270.803499 
L 197.081212 270.991046 
L 197.832727 271.036219 
L 198.584242 272.261683 
L 199.335758 270.739836 
L 200.838788 270.92706 
L 201.590303 271.663686 
L 203.093333 271.392564 
L 204.596364 270.305103 
L 205.347879 270.655614 
L 206.099394 271.672397 
L 206.850909 272.303444 
L 207.602424 272.145162 
L 208.353939 272.889172 
L 209.105455 272.438629 
L 209.85697 272.230966 
L 210.608485 272.189786 
L 211.36 271.992068 
L 212.111515 272.443774 
L 213.614545 272.528339 
L 214.366061 271.977538 
L 215.117576 271.710075 
L 215.869091 271.648905 
L 216.620606 271.113907 
L 217.372121 272.229545 
L 218.123636 271.655506 
L 219.626667 271.583985 
L 220.378182 271.981168 
L 221.129697 271.930708 
L 221.881212 272.351771 
L 224.135758 272.180487 
L 225.638788 271.963492 
L 227.141818 270.649953 
L 228.644848 270.2619 
L 229.396364 269.786903 
L 230.147879 267.253615 
L 230.899394 264.305338 
L 231.650909 264.317443 
L 232.402424 264.011771 
L 233.153939 264.132318 
L 233.905455 262.717372 
L 234.65697 262.945019 
L 235.408485 263.534126 
L 236.16 263.053877 
L 236.911515 263.297101 
L 237.66303 260.811613 
L 238.414545 260.680528 
L 239.166061 261.794573 
L 239.917576 261.372875 
L 240.669091 259.892605 
L 241.420606 260.65799 
L 242.172121 262.769667 
L 243.675152 260.972273 
L 244.426667 260.386214 
L 245.178182 260.331524 
L 245.929697 260.554665 
L 246.681212 258.526898 
L 247.432727 260.28774 
L 248.184242 260.651974 
L 248.935758 261.731549 
L 249.687273 261.337682 
L 250.438788 261.609448 
L 251.190303 261.038949 
L 251.941818 262.611596 
L 252.693333 262.266761 
L 253.444848 262.941398 
L 254.196364 262.166005 
L 254.947879 262.024712 
L 255.699394 261.413543 
L 256.450909 261.321543 
L 257.202424 260.090953 
L 257.953939 260.816423 
L 258.705455 262.938098 
L 259.45697 267.287634 
L 260.208485 266.655187 
L 260.96 268.071869 
L 261.711515 267.840721 
L 262.46303 267.184373 
L 263.214545 268.407419 
L 263.966061 267.079184 
L 265.469091 266.668682 
L 266.220606 267.199504 
L 266.972121 265.618496 
L 267.723636 264.976121 
L 268.475152 264.098377 
L 269.226667 264.512852 
L 269.978182 264.526543 
L 270.729697 264.031664 
L 271.481212 264.875358 
L 272.232727 266.281911 
L 272.984242 266.260549 
L 273.735758 267.427835 
L 274.487273 265.6501 
L 275.238788 265.408521 
L 276.741818 265.308313 
L 277.493333 264.831636 
L 278.244848 265.256913 
L 278.996364 265.354663 
L 279.747879 265.849673 
L 280.499394 266.104848 
L 281.250909 266.157809 
L 282.753939 265.290837 
L 283.505455 266.008857 
L 284.25697 265.767211 
L 285.008485 264.682977 
L 285.76 263.968582 
L 286.511515 262.931192 
L 287.26303 262.618302 
L 288.014545 261.895065 
L 288.766061 262.380193 
L 289.517576 262.387096 
L 290.269091 262.044119 
L 291.020606 262.840653 
L 291.772121 262.649536 
L 292.523636 262.016436 
L 293.275152 260.976377 
L 294.026667 260.268474 
L 294.778182 256.44322 
L 295.529697 255.683711 
L 296.281212 255.88948 
L 297.032727 255.084623 
L 297.784242 255.463663 
L 298.535758 255.339608 
L 299.287273 252.881611 
L 300.038788 254.441428 
L 300.790303 253.652084 
L 301.541818 253.190878 
L 302.293333 252.199905 
L 303.044848 252.346857 
L 303.796364 253.189594 
L 304.547879 251.193829 
L 305.299394 250.642672 
L 306.050909 244.465753 
L 306.802424 244.485349 
L 307.553939 247.693003 
L 308.305455 244.913864 
L 309.05697 245.579454 
L 309.808485 245.671701 
L 310.56 243.979326 
L 311.311515 241.419919 
L 312.06303 241.293704 
L 312.814545 242.389947 
L 313.566061 242.852623 
L 314.317576 239.613534 
L 315.069091 235.498889 
L 315.820606 235.029912 
L 316.572121 234.901566 
L 317.323636 231.197533 
L 318.075152 231.102473 
L 318.826667 232.282109 
L 319.578182 232.462053 
L 320.329697 229.105898 
L 321.081212 230.990393 
L 321.832727 237.625031 
L 322.584242 237.73775 
L 323.335758 235.23355 
L 324.087273 233.259254 
L 324.838788 226.751671 
L 325.590303 230.681923 
L 326.341818 228.826265 
L 327.093333 227.861691 
L 327.844848 231.275085 
L 328.596364 229.120291 
L 329.347879 228.13531 
L 330.099394 229.002019 
L 330.850909 232.716766 
L 331.602424 231.720677 
L 332.353939 233.003624 
L 333.105455 233.934251 
L 333.85697 230.613621 
L 334.608485 229.073673 
L 335.36 228.616801 
L 336.111515 227.88631 
L 336.86303 219.683547 
L 337.614545 213.387416 
L 338.366061 212.005413 
L 339.117576 208.983057 
L 339.869091 210.603154 
L 340.620606 213.792352 
L 341.372121 209.060544 
L 342.123636 211.593287 
L 342.875152 209.437934 
L 343.626667 205.226751 
L 344.378182 197.743608 
L 345.129697 198.594639 
L 345.881212 195.178045 
L 346.632727 193.83433 
L 347.384242 187.23844 
L 348.135758 186.936105 
L 348.887273 185.06113 
L 349.638788 172.977597 
L 350.390303 169.38212 
L 351.141818 173.756479 
L 351.893333 165.070912 
L 353.396364 141.647834 
L 354.147879 136.735062 
L 354.899394 138.409168 
L 355.650909 147.176004 
L 356.402424 158.92225 
L 357.153939 164.963683 
L 357.905455 150.687987 
L 358.65697 143.100988 
L 359.408485 153.295928 
L 360.16 156.485449 
L 360.911515 157.278367 
L 361.66303 153.782636 
L 362.414545 156.916095 
L 363.166061 158.71783 
L 363.917576 178.832635 
L 364.669091 169.445816 
L 365.420606 173.372717 
L 366.172121 172.552735 
L 366.923636 172.732758 
L 367.675152 171.600445 
L 368.426667 180.611157 
L 369.178182 167.718469 
L 369.929697 164.084998 
L 370.681212 163.825557 
L 371.432727 168.968287 
L 372.184242 167.185803 
L 373.687273 149.355631 
L 374.438788 152.371874 
L 375.190303 146.682207 
L 375.941818 142.535854 
L 376.693333 144.28805 
L 377.444848 111.681296 
L 378.196364 111.396275 
L 378.947879 118.48561 
L 379.699394 104.928257 
L 380.450909 107.486645 
L 381.202424 108.342246 
L 381.953939 102.221956 
L 382.705455 105.231891 
L 383.45697 99.843448 
L 384.208485 87.179195 
L 384.96 89.563924 
L 385.711515 70.837329 
L 386.46303 70.943626 
L 387.214545 64.299954 
L 387.966061 78.611018 
L 388.717576 101.069199 
L 389.469091 97.480769 
L 390.220606 108.802412 
L 390.972121 112.139158 
L 391.723636 112.743448 
L 392.475152 116.760085 
L 393.226667 97.975341 
L 393.978182 102.783581 
L 394.729697 94.520279 
L 395.481212 103.376254 
L 396.232727 101.586072 
L 396.984242 101.129444 
L 397.735758 92.093101 
L 398.487273 86.03383 
L 398.487273 86.03383 
" style="fill:none;stroke:#d62728;stroke-linecap:square;stroke-width:1.5;"/>
   </g>
   <g id="patch_3">
    <path d="M 57.6 307.584 
L 57.6 41.472 
" style="fill:none;stroke:#000000;stroke-linecap:square;stroke-linejoin:miter;stroke-width:0.8;"/>
   </g>
   <g id="patch_4">
    <path d="M 414.72 307.584 
L 414.72 41.472 
" style="fill:none;stroke:#000000;stroke-linecap:square;stroke-linejoin:miter;stroke-width:0.8;"/>
   </g>
   <g id="patch_5">
    <path d="M 57.6 307.584 
L 414.72 307.584 
" style="fill:none;stroke:#000000;stroke-linecap:square;stroke-linejoin:miter;stroke-width:0.8;"/>
   </g>
   <g id="patch_6">
    <path d="M 57.6 41.472 
L 414.72 41.472 
" style="fill:none;stroke:#000000;stroke-linecap:square;stroke-linejoin:miter;stroke-width:0.8;"/>
   </g>
   <g id="text_15">
    <!-- Data source: coindesk -->
    <g transform="translate(180.640469 35.472)scale(0.1 -0.1)">
     <defs>
      <path d="M 19.671875 64.796875 
L 19.671875 8.109375 
L 31.59375 8.109375 
Q 46.6875 8.109375 53.6875 14.9375 
Q 60.6875 21.78125 60.6875 36.53125 
Q 60.6875 51.171875 53.6875 57.984375 
Q 46.6875 64.796875 31.59375 64.796875 
z
M 9.8125 72.90625 
L 30.078125 72.90625 
Q 51.265625 72.90625 61.171875 64.09375 
Q 71.09375 55.28125 71.09375 36.53125 
Q 71.09375 17.671875 61.125 8.828125 
Q 51.171875 0 30.078125 0 
L 9.8125 0 
z
" id="DejaVuSans-68"/>
      <path d="M 34.28125 27.484375 
Q 23.390625 27.484375 19.1875 25 
Q 14.984375 22.515625 14.984375 16.5 
Q 14.984375 11.71875 18.140625 8.90625 
Q 21.296875 6.109375 26.703125 6.109375 
Q 34.1875 6.109375 38.703125 11.40625 
Q 43.21875 16.703125 43.21875 25.484375 
L 43.21875 27.484375 
z
M 52.203125 31.203125 
L 52.203125 0 
L 43.21875 0 
L 43.21875 8.296875 
Q 40.140625 3.328125 35.546875 0.953125 
Q 30.953125 -1.421875 24.3125 -1.421875 
Q 15.921875 -1.421875 10.953125 3.296875 
Q 6 8.015625 6 15.921875 
Q 6 25.140625 12.171875 29.828125 
Q 18.359375 34.515625 30.609375 34.515625 
L 43.21875 34.515625 
L 43.21875 35.40625 
Q 43.21875 41.609375 39.140625 45 
Q 35.0625 48.390625 27.6875 48.390625 
Q 23 48.390625 18.546875 47.265625 
Q 14.109375 46.140625 10.015625 43.890625 
L 10.015625 52.203125 
Q 14.9375 54.109375 19.578125 55.046875 
Q 24.21875 56 28.609375 56 
Q 40.484375 56 46.34375 49.84375 
Q 52.203125 43.703125 52.203125 31.203125 
z
" id="DejaVuSans-97"/>
      <path d="M 18.3125 70.21875 
L 18.3125 54.6875 
L 36.8125 54.6875 
L 36.8125 47.703125 
L 18.3125 47.703125 
L 18.3125 18.015625 
Q 18.3125 11.328125 20.140625 9.421875 
Q 21.96875 7.515625 27.59375 7.515625 
L 36.8125 7.515625 
L 36.8125 0 
L 27.59375 0 
Q 17.1875 0 13.234375 3.875 
Q 9.28125 7.765625 9.28125 18.015625 
L 9.28125 47.703125 
L 2.6875 47.703125 
L 2.6875 54.6875 
L 9.28125 54.6875 
L 9.28125 70.21875 
z
" id="DejaVuSans-116"/>
      <path id="DejaVuSans-32"/>
      <path d="M 44.28125 53.078125 
L 44.28125 44.578125 
Q 40.484375 46.53125 36.375 47.5 
Q 32.28125 48.484375 27.875 48.484375 
Q 21.1875 48.484375 17.84375 46.4375 
Q 14.5 44.390625 14.5 40.28125 
Q 14.5 37.15625 16.890625 35.375 
Q 19.28125 33.59375 26.515625 31.984375 
L 29.59375 31.296875 
Q 39.15625 29.25 43.1875 25.515625 
Q 47.21875 21.78125 47.21875 15.09375 
Q 47.21875 7.46875 41.1875 3.015625 
Q 35.15625 -1.421875 24.609375 -1.421875 
Q 20.21875 -1.421875 15.453125 -0.5625 
Q 10.6875 0.296875 5.421875 2 
L 5.421875 11.28125 
Q 10.40625 8.6875 15.234375 7.390625 
Q 20.0625 6.109375 24.8125 6.109375 
Q 31.15625 6.109375 34.5625 8.28125 
Q 37.984375 10.453125 37.984375 14.40625 
Q 37.984375 18.0625 35.515625 20.015625 
Q 33.0625 21.96875 24.703125 23.78125 
L 21.578125 24.515625 
Q 13.234375 26.265625 9.515625 29.90625 
Q 5.8125 33.546875 5.8125 39.890625 
Q 5.8125 47.609375 11.28125 51.796875 
Q 16.75 56 26.8125 56 
Q 31.78125 56 36.171875 55.265625 
Q 40.578125 54.546875 44.28125 53.078125 
z
" id="DejaVuSans-115"/>
      <path d="M 30.609375 48.390625 
Q 23.390625 48.390625 19.1875 42.75 
Q 14.984375 37.109375 14.984375 27.296875 
Q 14.984375 17.484375 19.15625 11.84375 
Q 23.34375 6.203125 30.609375 6.203125 
Q 37.796875 6.203125 41.984375 11.859375 
Q 46.1875 17.53125 46.1875 27.296875 
Q 46.1875 37.015625 41.984375 42.703125 
Q 37.796875 48.390625 30.609375 48.390625 
z
M 30.609375 56 
Q 42.328125 56 49.015625 48.375 
Q 55.71875 40.765625 55.71875 27.296875 
Q 55.71875 13.875 49.015625 6.21875 
Q 42.328125 -1.421875 30.609375 -1.421875 
Q 18.84375 -1.421875 12.171875 6.21875 
Q 5.515625 13.875 5.515625 27.296875 
Q 5.515625 40.765625 12.171875 48.375 
Q 18.84375 56 30.609375 56 
z
" id="DejaVuSans-111"/>
      <path d="M 8.5 21.578125 
L 8.5 54.6875 
L 17.484375 54.6875 
L 17.484375 21.921875 
Q 17.484375 14.15625 20.5 10.265625 
Q 23.53125 6.390625 29.59375 6.390625 
Q 36.859375 6.390625 41.078125 11.03125 
Q 45.3125 15.671875 45.3125 23.6875 
L 45.3125 54.6875 
L 54.296875 54.6875 
L 54.296875 0 
L 45.3125 0 
L 45.3125 8.40625 
Q 42.046875 3.421875 37.71875 1 
Q 33.40625 -1.421875 27.6875 -1.421875 
Q 18.265625 -1.421875 13.375 4.4375 
Q 8.5 10.296875 8.5 21.578125 
z
M 31.109375 56 
z
" id="DejaVuSans-117"/>
      <path d="M 41.109375 46.296875 
Q 39.59375 47.171875 37.8125 47.578125 
Q 36.03125 48 33.890625 48 
Q 26.265625 48 22.1875 43.046875 
Q 18.109375 38.09375 18.109375 28.8125 
L 18.109375 0 
L 9.078125 0 
L 9.078125 54.6875 
L 18.109375 54.6875 
L 18.109375 46.1875 
Q 20.953125 51.171875 25.484375 53.578125 
Q 30.03125 56 36.53125 56 
Q 37.453125 56 38.578125 55.875 
Q 39.703125 55.765625 41.0625 55.515625 
z
" id="DejaVuSans-114"/>
      <path d="M 48.78125 52.59375 
L 48.78125 44.1875 
Q 44.96875 46.296875 41.140625 47.34375 
Q 37.3125 48.390625 33.40625 48.390625 
Q 24.65625 48.390625 19.8125 42.84375 
Q 14.984375 37.3125 14.984375 27.296875 
Q 14.984375 17.28125 19.8125 11.734375 
Q 24.65625 6.203125 33.40625 6.203125 
Q 37.3125 6.203125 41.140625 7.25 
Q 44.96875 8.296875 48.78125 10.40625 
L 48.78125 2.09375 
Q 45.015625 0.34375 40.984375 -0.53125 
Q 36.96875 -1.421875 32.421875 -1.421875 
Q 20.0625 -1.421875 12.78125 6.34375 
Q 5.515625 14.109375 5.515625 27.296875 
Q 5.515625 40.671875 12.859375 48.328125 
Q 20.21875 56 33.015625 56 
Q 37.15625 56 41.109375 55.140625 
Q 45.0625 54.296875 48.78125 52.59375 
z
" id="DejaVuSans-99"/>
      <path d="M 56.203125 29.59375 
L 56.203125 25.203125 
L 14.890625 25.203125 
Q 15.484375 15.921875 20.484375 11.0625 
Q 25.484375 6.203125 34.421875 6.203125 
Q 39.59375 6.203125 44.453125 7.46875 
Q 49.3125 8.734375 54.109375 11.28125 
L 54.109375 2.78125 
Q 49.265625 0.734375 44.1875 -0.34375 
Q 39.109375 -1.421875 33.890625 -1.421875 
Q 20.796875 -1.421875 13.15625 6.1875 
Q 5.515625 13.8125 5.515625 26.8125 
Q 5.515625 40.234375 12.765625 48.109375 
Q 20.015625 56 32.328125 56 
Q 43.359375 56 49.78125 48.890625 
Q 56.203125 41.796875 56.203125 29.59375 
z
M 47.21875 32.234375 
Q 47.125 39.59375 43.09375 43.984375 
Q 39.0625 48.390625 32.421875 48.390625 
Q 24.90625 48.390625 20.390625 44.140625 
Q 15.875 39.890625 15.1875 32.171875 
z
" id="DejaVuSans-101"/>
      <path d="M 11.71875 12.40625 
L 22.015625 12.40625 
L 22.015625 0 
L 11.71875 0 
z
M 11.71875 51.703125 
L 22.015625 51.703125 
L 22.015625 39.3125 
L 11.71875 39.3125 
z
" id="DejaVuSans-58"/>
      <path d="M 9.421875 54.6875 
L 18.40625 54.6875 
L 18.40625 0 
L 9.421875 0 
z
M 9.421875 75.984375 
L 18.40625 75.984375 
L 18.40625 64.59375 
L 9.421875 64.59375 
z
" id="DejaVuSans-105"/>
      <path d="M 54.890625 33.015625 
L 54.890625 0 
L 45.90625 0 
L 45.90625 32.71875 
Q 45.90625 40.484375 42.875 44.328125 
Q 39.84375 48.1875 33.796875 48.1875 
Q 26.515625 48.1875 22.3125 43.546875 
Q 18.109375 38.921875 18.109375 30.90625 
L 18.109375 0 
L 9.078125 0 
L 9.078125 54.6875 
L 18.109375 54.6875 
L 18.109375 46.1875 
Q 21.34375 51.125 25.703125 53.5625 
Q 30.078125 56 35.796875 56 
Q 45.21875 56 50.046875 50.171875 
Q 54.890625 44.34375 54.890625 33.015625 
z
" id="DejaVuSans-110"/>
      <path d="M 45.40625 46.390625 
L 45.40625 75.984375 
L 54.390625 75.984375 
L 54.390625 0 
L 45.40625 0 
L 45.40625 8.203125 
Q 42.578125 3.328125 38.25 0.953125 
Q 33.9375 -1.421875 27.875 -1.421875 
Q 17.96875 -1.421875 11.734375 6.484375 
Q 5.515625 14.40625 5.515625 27.296875 
Q 5.515625 40.1875 11.734375 48.09375 
Q 17.96875 56 27.875 56 
Q 33.9375 56 38.25 53.625 
Q 42.578125 51.265625 45.40625 46.390625 
z
M 14.796875 27.296875 
Q 14.796875 17.390625 18.875 11.75 
Q 22.953125 6.109375 30.078125 6.109375 
Q 37.203125 6.109375 41.296875 11.75 
Q 45.40625 17.390625 45.40625 27.296875 
Q 45.40625 37.203125 41.296875 42.84375 
Q 37.203125 48.484375 30.078125 48.484375 
Q 22.953125 48.484375 18.875 42.84375 
Q 14.796875 37.203125 14.796875 27.296875 
z
" id="DejaVuSans-100"/>
      <path d="M 9.078125 75.984375 
L 18.109375 75.984375 
L 18.109375 31.109375 
L 44.921875 54.6875 
L 56.390625 54.6875 
L 27.390625 29.109375 
L 57.625 0 
L 45.90625 0 
L 18.109375 26.703125 
L 18.109375 0 
L 9.078125 0 
z
" id="DejaVuSans-107"/>
     </defs>
     <use xlink:href="#DejaVuSans-68"/>
     <use x="77.001953" xlink:href="#DejaVuSans-97"/>
     <use x="138.28125" xlink:href="#DejaVuSans-116"/>
     <use x="177.490234" xlink:href="#DejaVuSans-97"/>
     <use x="238.769531" xlink:href="#DejaVuSans-32"/>
     <use x="270.556641" xlink:href="#DejaVuSans-115"/>
     <use x="322.65625" xlink:href="#DejaVuSans-111"/>
     <use x="383.837891" xlink:href="#DejaVuSans-117"/>
     <use x="447.216797" xlink:href="#DejaVuSans-114"/>
     <use x="486.080078" xlink:href="#DejaVuSans-99"/>
     <use x="541.060547" xlink:href="#DejaVuSans-101"/>
     <use x="602.583984" xlink:href="#DejaVuSans-58"/>
     <use x="636.275391" xlink:href="#DejaVuSans-32"/>
     <use x="668.0625" xlink:href="#DejaVuSans-99"/>
     <use x="723.042969" xlink:href="#DejaVuSans-111"/>
     <use x="784.224609" xlink:href="#DejaVuSans-105"/>
     <use x="812.007812" xlink:href="#DejaVuSans-110"/>
     <use x="875.386719" xlink:href="#DejaVuSans-100"/>
     <use x="938.863281" xlink:href="#DejaVuSans-101"/>
     <use x="1000.386719" xlink:href="#DejaVuSans-115"/>
     <use x="1052.486328" xlink:href="#DejaVuSans-107"/>
    </g>
   </g>
   <g id="legend_1">
    <g id="patch_7">
     <path d="M 64.6 108.1845 
L 155.732812 108.1845 
Q 157.732812 108.1845 157.732812 106.1845 
L 157.732812 48.472 
Q 157.732812 46.472 155.732812 46.472 
L 64.6 46.472 
Q 62.6 46.472 62.6 48.472 
L 62.6 106.1845 
Q 62.6 108.1845 64.6 108.1845 
z
" style="fill:#ffffff;opacity:0.8;stroke:#cccccc;stroke-linejoin:miter;"/>
    </g>
    <g id="line2d_19">
     <path d="M 66.6 54.570438 
L 86.6 54.570438 
" style="fill:none;stroke:#1f77b4;stroke-linecap:square;stroke-width:1.5;"/>
    </g>
    <g id="line2d_20"/>
    <g id="text_16">
     <!-- Upper Band -->
     <g transform="translate(94.6 58.070438)scale(0.1 -0.1)">
      <defs>
       <path d="M 8.6875 72.90625 
L 18.609375 72.90625 
L 18.609375 28.609375 
Q 18.609375 16.890625 22.84375 11.734375 
Q 27.09375 6.59375 36.625 6.59375 
Q 46.09375 6.59375 50.34375 11.734375 
Q 54.59375 16.890625 54.59375 28.609375 
L 54.59375 72.90625 
L 64.5 72.90625 
L 64.5 27.390625 
Q 64.5 13.140625 57.4375 5.859375 
Q 50.390625 -1.421875 36.625 -1.421875 
Q 22.796875 -1.421875 15.734375 5.859375 
Q 8.6875 13.140625 8.6875 27.390625 
z
" id="DejaVuSans-85"/>
       <path d="M 18.109375 8.203125 
L 18.109375 -20.796875 
L 9.078125 -20.796875 
L 9.078125 54.6875 
L 18.109375 54.6875 
L 18.109375 46.390625 
Q 20.953125 51.265625 25.265625 53.625 
Q 29.59375 56 35.59375 56 
Q 45.5625 56 51.78125 48.09375 
Q 58.015625 40.1875 58.015625 27.296875 
Q 58.015625 14.40625 51.78125 6.484375 
Q 45.5625 -1.421875 35.59375 -1.421875 
Q 29.59375 -1.421875 25.265625 0.953125 
Q 20.953125 3.328125 18.109375 8.203125 
z
M 48.6875 27.296875 
Q 48.6875 37.203125 44.609375 42.84375 
Q 40.53125 48.484375 33.40625 48.484375 
Q 26.265625 48.484375 22.1875 42.84375 
Q 18.109375 37.203125 18.109375 27.296875 
Q 18.109375 17.390625 22.1875 11.75 
Q 26.265625 6.109375 33.40625 6.109375 
Q 40.53125 6.109375 44.609375 11.75 
Q 48.6875 17.390625 48.6875 27.296875 
z
" id="DejaVuSans-112"/>
       <path d="M 19.671875 34.8125 
L 19.671875 8.109375 
L 35.5 8.109375 
Q 43.453125 8.109375 47.28125 11.40625 
Q 51.125 14.703125 51.125 21.484375 
Q 51.125 28.328125 47.28125 31.5625 
Q 43.453125 34.8125 35.5 34.8125 
z
M 19.671875 64.796875 
L 19.671875 42.828125 
L 34.28125 42.828125 
Q 41.5 42.828125 45.03125 45.53125 
Q 48.578125 48.25 48.578125 53.8125 
Q 48.578125 59.328125 45.03125 62.0625 
Q 41.5 64.796875 34.28125 64.796875 
z
M 9.8125 72.90625 
L 35.015625 72.90625 
Q 46.296875 72.90625 52.390625 68.21875 
Q 58.5 63.53125 58.5 54.890625 
Q 58.5 48.1875 55.375 44.234375 
Q 52.25 40.28125 46.1875 39.3125 
Q 53.46875 37.75 57.5 32.78125 
Q 61.53125 27.828125 61.53125 20.40625 
Q 61.53125 10.640625 54.890625 5.3125 
Q 48.25 0 35.984375 0 
L 9.8125 0 
z
" id="DejaVuSans-66"/>
      </defs>
      <use xlink:href="#DejaVuSans-85"/>
      <use x="73.193359" xlink:href="#DejaVuSans-112"/>
      <use x="136.669922" xlink:href="#DejaVuSans-112"/>
      <use x="200.146484" xlink:href="#DejaVuSans-101"/>
      <use x="261.669922" xlink:href="#DejaVuSans-114"/>
      <use x="302.783203" xlink:href="#DejaVuSans-32"/>
      <use x="334.570312" xlink:href="#DejaVuSans-66"/>
      <use x="403.173828" xlink:href="#DejaVuSans-97"/>
      <use x="464.453125" xlink:href="#DejaVuSans-110"/>
      <use x="527.832031" xlink:href="#DejaVuSans-100"/>
     </g>
    </g>
    <g id="line2d_21">
     <path d="M 66.6 69.248563 
L 86.6 69.248563 
" style="fill:none;stroke:#ff7f0e;stroke-linecap:square;stroke-width:1.5;"/>
    </g>
    <g id="line2d_22"/>
    <g id="text_17">
     <!-- Lower Band -->
     <g transform="translate(94.6 72.748563)scale(0.1 -0.1)">
      <defs>
       <path d="M 9.8125 72.90625 
L 19.671875 72.90625 
L 19.671875 8.296875 
L 55.171875 8.296875 
L 55.171875 0 
L 9.8125 0 
z
" id="DejaVuSans-76"/>
       <path d="M 4.203125 54.6875 
L 13.1875 54.6875 
L 24.421875 12.015625 
L 35.59375 54.6875 
L 46.1875 54.6875 
L 57.421875 12.015625 
L 68.609375 54.6875 
L 77.59375 54.6875 
L 63.28125 0 
L 52.6875 0 
L 40.921875 44.828125 
L 29.109375 0 
L 18.5 0 
z
" id="DejaVuSans-119"/>
      </defs>
      <use xlink:href="#DejaVuSans-76"/>
      <use x="53.962891" xlink:href="#DejaVuSans-111"/>
      <use x="115.144531" xlink:href="#DejaVuSans-119"/>
      <use x="196.931641" xlink:href="#DejaVuSans-101"/>
      <use x="258.455078" xlink:href="#DejaVuSans-114"/>
      <use x="299.568359" xlink:href="#DejaVuSans-32"/>
      <use x="331.355469" xlink:href="#DejaVuSans-66"/>
      <use x="399.958984" xlink:href="#DejaVuSans-97"/>
      <use x="461.238281" xlink:href="#DejaVuSans-110"/>
      <use x="524.617188" xlink:href="#DejaVuSans-100"/>
     </g>
    </g>
    <g id="line2d_23">
     <path d="M 66.6 83.926688 
L 86.6 83.926688 
" style="fill:none;stroke:#2ca02c;stroke-linecap:square;stroke-width:1.5;"/>
    </g>
    <g id="line2d_24"/>
    <g id="text_18">
     <!-- MA -->
     <g transform="translate(94.6 87.426688)scale(0.1 -0.1)">
      <defs>
       <path d="M 9.8125 72.90625 
L 24.515625 72.90625 
L 43.109375 23.296875 
L 61.8125 72.90625 
L 76.515625 72.90625 
L 76.515625 0 
L 66.890625 0 
L 66.890625 64.015625 
L 48.09375 14.015625 
L 38.1875 14.015625 
L 19.390625 64.015625 
L 19.390625 0 
L 9.8125 0 
z
" id="DejaVuSans-77"/>
       <path d="M 34.1875 63.1875 
L 20.796875 26.90625 
L 47.609375 26.90625 
z
M 28.609375 72.90625 
L 39.796875 72.90625 
L 67.578125 0 
L 57.328125 0 
L 50.6875 18.703125 
L 17.828125 18.703125 
L 11.1875 0 
L 0.78125 0 
z
" id="DejaVuSans-65"/>
      </defs>
      <use xlink:href="#DejaVuSans-77"/>
      <use x="86.279297" xlink:href="#DejaVuSans-65"/>
     </g>
    </g>
    <g id="line2d_25">
     <path d="M 66.6 98.604813 
L 86.6 98.604813 
" style="fill:none;stroke:#d62728;stroke-linecap:square;stroke-width:1.5;"/>
    </g>
    <g id="line2d_26"/>
    <g id="text_19">
     <!-- BTC-USD -->
     <g transform="translate(94.6 102.104813)scale(0.1 -0.1)">
      <defs>
       <path d="M -0.296875 72.90625 
L 61.375 72.90625 
L 61.375 64.59375 
L 35.5 64.59375 
L 35.5 0 
L 25.59375 0 
L 25.59375 64.59375 
L -0.296875 64.59375 
z
" id="DejaVuSans-84"/>
       <path d="M 64.40625 67.28125 
L 64.40625 56.890625 
Q 59.421875 61.53125 53.78125 63.8125 
Q 48.140625 66.109375 41.796875 66.109375 
Q 29.296875 66.109375 22.65625 58.46875 
Q 16.015625 50.828125 16.015625 36.375 
Q 16.015625 21.96875 22.65625 14.328125 
Q 29.296875 6.6875 41.796875 6.6875 
Q 48.140625 6.6875 53.78125 8.984375 
Q 59.421875 11.28125 64.40625 15.921875 
L 64.40625 5.609375 
Q 59.234375 2.09375 53.4375 0.328125 
Q 47.65625 -1.421875 41.21875 -1.421875 
Q 24.65625 -1.421875 15.125 8.703125 
Q 5.609375 18.84375 5.609375 36.375 
Q 5.609375 53.953125 15.125 64.078125 
Q 24.65625 74.21875 41.21875 74.21875 
Q 47.75 74.21875 53.53125 72.484375 
Q 59.328125 70.75 64.40625 67.28125 
z
" id="DejaVuSans-67"/>
       <path d="M 53.515625 70.515625 
L 53.515625 60.890625 
Q 47.90625 63.578125 42.921875 64.890625 
Q 37.9375 66.21875 33.296875 66.21875 
Q 25.25 66.21875 20.875 63.09375 
Q 16.5 59.96875 16.5 54.203125 
Q 16.5 49.359375 19.40625 46.890625 
Q 22.3125 44.4375 30.421875 42.921875 
L 36.375 41.703125 
Q 47.40625 39.59375 52.65625 34.296875 
Q 57.90625 29 57.90625 20.125 
Q 57.90625 9.515625 50.796875 4.046875 
Q 43.703125 -1.421875 29.984375 -1.421875 
Q 24.8125 -1.421875 18.96875 -0.25 
Q 13.140625 0.921875 6.890625 3.21875 
L 6.890625 13.375 
Q 12.890625 10.015625 18.65625 8.296875 
Q 24.421875 6.59375 29.984375 6.59375 
Q 38.421875 6.59375 43.015625 9.90625 
Q 47.609375 13.234375 47.609375 19.390625 
Q 47.609375 24.75 44.3125 27.78125 
Q 41.015625 30.8125 33.5 32.328125 
L 27.484375 33.5 
Q 16.453125 35.6875 11.515625 40.375 
Q 6.59375 45.0625 6.59375 53.421875 
Q 6.59375 63.09375 13.40625 68.65625 
Q 20.21875 74.21875 32.171875 74.21875 
Q 37.3125 74.21875 42.625 73.28125 
Q 47.953125 72.359375 53.515625 70.515625 
z
" id="DejaVuSans-83"/>
      </defs>
      <use xlink:href="#DejaVuSans-66"/>
      <use x="68.603516" xlink:href="#DejaVuSans-84"/>
      <use x="123.8125" xlink:href="#DejaVuSans-67"/>
      <use x="193.636719" xlink:href="#DejaVuSans-45"/>
      <use x="229.720703" xlink:href="#DejaVuSans-85"/>
      <use x="302.914062" xlink:href="#DejaVuSans-83"/>
      <use x="366.390625" xlink:href="#DejaVuSans-68"/>
     </g>
    </g>
   </g>
  </g>
  <g id="text_20">
   <!-- Bollinger Band -->
   <g transform="translate(171.90625 19.0695)scale(0.16 -0.16)">
    <defs>
     <path d="M 9.421875 75.984375 
L 18.40625 75.984375 
L 18.40625 0 
L 9.421875 0 
z
" id="DejaVuSans-108"/>
     <path d="M 45.40625 27.984375 
Q 45.40625 37.75 41.375 43.109375 
Q 37.359375 48.484375 30.078125 48.484375 
Q 22.859375 48.484375 18.828125 43.109375 
Q 14.796875 37.75 14.796875 27.984375 
Q 14.796875 18.265625 18.828125 12.890625 
Q 22.859375 7.515625 30.078125 7.515625 
Q 37.359375 7.515625 41.375 12.890625 
Q 45.40625 18.265625 45.40625 27.984375 
z
M 54.390625 6.78125 
Q 54.390625 -7.171875 48.1875 -13.984375 
Q 42 -20.796875 29.203125 -20.796875 
Q 24.46875 -20.796875 20.265625 -20.09375 
Q 16.0625 -19.390625 12.109375 -17.921875 
L 12.109375 -9.1875 
Q 16.0625 -11.328125 19.921875 -12.34375 
Q 23.78125 -13.375 27.78125 -13.375 
Q 36.625 -13.375 41.015625 -8.765625 
Q 45.40625 -4.15625 45.40625 5.171875 
L 45.40625 9.625 
Q 42.625 4.78125 38.28125 2.390625 
Q 33.9375 0 27.875 0 
Q 17.828125 0 11.671875 7.65625 
Q 5.515625 15.328125 5.515625 27.984375 
Q 5.515625 40.671875 11.671875 48.328125 
Q 17.828125 56 27.875 56 
Q 33.9375 56 38.28125 53.609375 
Q 42.625 51.21875 45.40625 46.390625 
L 45.40625 54.6875 
L 54.390625 54.6875 
z
" id="DejaVuSans-103"/>
    </defs>
    <use xlink:href="#DejaVuSans-66"/>
    <use x="68.603516" xlink:href="#DejaVuSans-111"/>
    <use x="129.785156" xlink:href="#DejaVuSans-108"/>
    <use x="157.568359" xlink:href="#DejaVuSans-108"/>
    <use x="185.351562" xlink:href="#DejaVuSans-105"/>
    <use x="213.134766" xlink:href="#DejaVuSans-110"/>
    <use x="276.513672" xlink:href="#DejaVuSans-103"/>
    <use x="339.990234" xlink:href="#DejaVuSans-101"/>
    <use x="401.513672" xlink:href="#DejaVuSans-114"/>
    <use x="442.626953" xlink:href="#DejaVuSans-32"/>
    <use x="474.414062" xlink:href="#DejaVuSans-66"/>
    <use x="543.017578" xlink:href="#DejaVuSans-97"/>
    <use x="604.296875" xlink:href="#DejaVuSans-110"/>
    <use x="667.675781" xlink:href="#DejaVuSans-100"/>
   </g>
  </g>
 </g>
 <defs>
  <clipPath id="p349b0aa199">
   <rect height="266.112" width="357.12" x="57.6" y="41.472"/>
  </clipPath>
 </defs>
</svg>
