<?xml version="1.0" encoding="utf-8" standalone="no"?>
<!DOCTYPE svg PUBLIC "-//W3C//DTD SVG 1.1//EN"
  "http://www.w3.org/Graphics/SVG/1.1/DTD/svg11.dtd">
<!-- Created with matplotlib (https://matplotlib.org/) -->
<svg height="345.6pt" version="1.1" viewBox="0 0 460.8 345.6" width="460.8pt" xmlns="http://www.w3.org/2000/svg" xmlns:xlink="http://www.w3.org/1999/xlink">
 <metadata>
  <rdf:RDF xmlns:cc="http://creativecommons.org/ns#" xmlns:dc="http://purl.org/dc/elements/1.1/" xmlns:rdf="http://www.w3.org/1999/02/22-rdf-syntax-ns#">
   <cc:Work>
    <dc:type rdf:resource="http://purl.org/dc/dcmitype/StillImage"/>
    <dc:date>2021-02-14T20:13:21.693412</dc:date>
    <dc:format>image/svg+xml</dc:format>
    <dc:creator>
     <cc:Agent>
      <dc:title>Matplotlib v3.3.2, https://matplotlib.org/</dc:title>
     </cc:Agent>
    </dc:creator>
   </cc:Work>
  </rdf:RDF>
 </metadata>
 <defs>
  <style type="text/css">*{stroke-linecap:butt;stroke-linejoin:round;}</style>
 </defs>
 <g id="figure_1">
  <g id="patch_1">
   <path d="M 0 345.6 
L 460.8 345.6 
L 460.8 0 
L 0 0 
z
" style="fill:#ffffff;"/>
  </g>
  <g id="axes_1">
   <g id="patch_2">
    <path d="M 57.6 307.584 
L 414.72 307.584 
L 414.72 41.472 
L 57.6 41.472 
z
" style="fill:#ffffff;"/>
   </g>
   <g id="PolyCollection_1">
    <defs>
     <path d="M 88.877694 -65.682727 
L 88.877694 -78.146967 
L 89.669534 -78.306974 
L 90.461375 -78.096342 
L 91.253215 -77.915917 
L 92.045055 -77.644688 
L 92.836896 -77.18438 
L 93.628736 -77.066939 
L 94.420576 -77.317838 
L 95.212417 -78.024014 
L 96.004257 -78.306834 
L 96.796098 -78.95657 
L 97.587938 -79.185073 
L 98.379778 -79.449172 
L 99.171619 -79.514995 
L 99.963459 -79.75012 
L 100.755299 -79.883577 
L 101.54714 -80.37657 
L 102.33898 -80.958563 
L 103.13082 -81.535889 
L 103.922661 -82.108079 
L 104.714501 -82.861072 
L 105.506341 -83.227017 
L 106.298182 -83.87301 
L 107.090022 -84.345287 
L 107.881863 -84.560109 
L 108.673703 -84.602679 
L 109.465543 -84.335143 
L 110.257384 -84.19847 
L 111.049224 -84.191189 
L 111.841064 -84.367513 
L 112.632905 -84.355224 
L 113.424745 -84.2851 
L 114.216585 -84.219852 
L 115.008426 -84.117173 
L 115.800266 -84.010989 
L 116.592106 -83.680879 
L 117.383947 -83.862924 
L 118.175787 -84.548683 
L 118.967627 -84.971746 
L 119.759468 -85.306698 
L 120.551308 -85.465386 
L 121.343149 -85.641449 
L 122.134989 -85.278725 
L 122.926829 -84.791108 
L 123.71867 -84.300564 
L 124.51051 -83.535866 
L 125.30235 -83.164442 
L 126.094191 -82.721632 
L 126.886031 -82.797075 
L 127.677871 -82.266403 
L 128.469712 -82.171169 
L 129.261552 -81.91012 
L 130.053392 -85.146593 
L 130.845233 -85.745505 
L 131.637073 -85.952756 
L 132.428914 -85.78474 
L 133.220754 -85.741783 
L 134.012594 -85.556329 
L 134.804435 -85.128166 
L 135.596275 -84.414633 
L 136.388115 -83.714642 
L 137.179956 -82.924883 
L 137.971796 -81.735384 
L 138.763636 -80.543852 
L 139.555477 -79.274876 
L 140.347317 -77.527729 
L 141.139157 -75.434856 
L 141.930998 -73.224328 
L 142.722838 -71.901822 
L 143.514678 -70.456831 
L 144.306519 -68.959716 
L 145.098359 -67.096935 
L 145.8902 -67.155649 
L 146.68204 -67.60615 
L 147.47388 -67.73523 
L 148.265721 -67.942726 
L 149.057561 -67.621884 
L 149.849401 -67.992963 
L 150.641242 -67.994776 
L 151.433082 -68.625088 
L 152.224922 -69.059114 
L 153.016763 -69.121491 
L 153.808603 -68.895905 
L 154.600443 -68.974619 
L 155.392284 -69.00786 
L 156.184124 -69.056179 
L 156.975965 -69.046199 
L 157.767805 -69.181828 
L 158.559645 -69.166435 
L 159.351486 -68.789646 
L 160.143326 -68.744739 
L 160.935166 -68.538584 
L 161.727007 -68.483622 
L 162.518847 -68.549507 
L 163.310687 -68.908766 
L 164.102528 -69.251684 
L 164.894368 -69.563907 
L 165.686208 -69.94966 
L 166.478049 -70.461498 
L 167.269889 -70.807368 
L 168.061729 -72.721985 
L 168.85357 -73.966803 
L 169.64541 -75.254437 
L 170.437251 -76.527888 
L 171.229091 -77.494778 
L 172.020931 -78.266272 
L 172.812772 -78.932691 
L 173.604612 -79.761892 
L 174.396452 -81.360037 
L 175.188293 -82.521853 
L 175.980133 -83.210298 
L 176.771973 -83.038765 
L 177.563814 -82.659321 
L 178.355654 -82.399049 
L 179.147494 -82.505448 
L 179.939335 -82.856705 
L 180.731175 -82.674248 
L 181.523016 -82.4816 
L 182.314856 -82.360088 
L 183.106696 -81.946184 
L 183.898537 -82.261198 
L 184.690377 -82.265188 
L 185.482217 -82.219224 
L 186.274058 -82.211982 
L 187.065898 -82.186172 
L 187.857738 -82.259861 
L 188.649579 -82.286919 
L 189.441419 -82.331666 
L 190.233259 -81.798143 
L 191.0251 -81.581169 
L 191.81694 -81.483013 
L 192.60878 -81.674044 
L 193.400621 -81.524455 
L 194.192461 -82.18696 
L 194.984302 -82.253531 
L 195.776142 -82.162722 
L 196.567982 -82.3763 
L 197.359823 -82.472081 
L 198.151663 -82.482896 
L 198.943503 -82.516198 
L 199.735344 -82.519332 
L 200.527184 -82.6638 
L 201.319024 -82.879261 
L 202.110865 -82.866469 
L 202.902705 -82.86742 
L 203.694545 -82.556735 
L 204.486386 -82.327286 
L 205.278226 -81.911548 
L 206.070067 -81.803867 
L 206.861907 -81.804084 
L 207.653747 -81.810533 
L 208.445588 -81.807691 
L 209.237428 -81.823249 
L 210.029268 -81.186476 
L 210.821109 -81.241512 
L 211.612949 -81.216648 
L 212.404789 -81.085509 
L 213.19663 -81.062598 
L 213.98847 -81.02543 
L 214.78031 -80.983333 
L 215.572151 -80.779451 
L 216.363991 -80.499957 
L 217.155831 -79.987557 
L 217.947672 -79.987356 
L 218.739512 -79.938842 
L 219.531353 -79.881711 
L 220.323193 -79.863979 
L 221.115033 -79.807437 
L 221.906874 -79.655644 
L 222.698714 -79.541021 
L 223.490554 -79.565375 
L 224.282395 -79.545072 
L 225.074235 -79.5102 
L 225.866075 -79.494197 
L 226.657916 -79.082828 
L 227.449756 -78.638601 
L 228.241596 -78.597591 
L 229.033437 -78.57623 
L 229.825277 -78.575954 
L 230.617118 -78.518248 
L 231.408958 -78.512424 
L 232.200798 -78.517273 
L 232.992639 -78.515377 
L 233.784479 -78.628142 
L 234.576319 -78.926866 
L 235.36816 -79.257165 
L 236.16 -79.455222 
L 236.95184 -79.815942 
L 237.743681 -80.478079 
L 238.535521 -83.072074 
L 239.327361 -84.624259 
L 240.119202 -86.120306 
L 240.911042 -87.348871 
L 241.702882 -88.734494 
L 242.494723 -90.454514 
L 243.286563 -91.104563 
L 244.078404 -91.814972 
L 244.870244 -92.345953 
L 245.662084 -93.22791 
L 246.453925 -93.966221 
L 247.245765 -94.402095 
L 248.037605 -94.800717 
L 248.829446 -94.89827 
L 249.621286 -95.09814 
L 250.413126 -94.877535 
L 251.204967 -94.608101 
L 251.996807 -94.115489 
L 252.788647 -93.390701 
L 253.580488 -92.480527 
L 254.372328 -92.629991 
L 255.164169 -93.056825 
L 255.956009 -93.129641 
L 256.747849 -93.047963 
L 257.53969 -93.109683 
L 258.33153 -93.048677 
L 259.12337 -92.794239 
L 259.915211 -92.640513 
L 260.707051 -92.361686 
L 261.498891 -92.508408 
L 262.290732 -92.524119 
L 263.082572 -92.6163 
L 263.874412 -92.591281 
L 264.666253 -92.589925 
L 265.458093 -92.492084 
L 266.249933 -92.466129 
L 267.041774 -92.599536 
L 267.833614 -92.592743 
L 268.625455 -93.934905 
L 269.417295 -94.274386 
L 270.209135 -94.660415 
L 271.000976 -94.411579 
L 271.792816 -94.245056 
L 272.584656 -94.21606 
L 273.376497 -93.962446 
L 274.168337 -93.788988 
L 274.960177 -93.457412 
L 275.752018 -93.070887 
L 276.543858 -92.539291 
L 277.335698 -92.287619 
L 278.127539 -91.941631 
L 278.919379 -91.726573 
L 279.71122 -91.350705 
L 280.50306 -90.974299 
L 281.2949 -90.391175 
L 282.086741 -89.703959 
L 282.878581 -88.238785 
L 283.670421 -87.416707 
L 284.462262 -87.40279 
L 285.254102 -87.494457 
L 286.045942 -87.509302 
L 286.837783 -87.550643 
L 287.629623 -87.626561 
L 288.421463 -87.528228 
L 289.213304 -87.509984 
L 290.005144 -87.49952 
L 290.796984 -87.451209 
L 291.588825 -87.4191 
L 292.380665 -87.318388 
L 293.172506 -87.319203 
L 293.964346 -87.313502 
L 294.756186 -87.160183 
L 295.548027 -87.017657 
L 296.339867 -87.003563 
L 297.131707 -86.939613 
L 297.923548 -87.4359 
L 298.715388 -88.035417 
L 299.507228 -88.775971 
L 300.299069 -89.101004 
L 301.090909 -89.503273 
L 301.882749 -89.951549 
L 302.67459 -90.168263 
L 303.46643 -90.393671 
L 304.258271 -90.694725 
L 305.050111 -91.204054 
L 305.841951 -91.823195 
L 306.633792 -93.555023 
L 307.425632 -95.169445 
L 308.217472 -96.335867 
L 309.009313 -97.561341 
L 309.801153 -98.497185 
L 310.592993 -99.221814 
L 311.384834 -100.447717 
L 312.176674 -101.120309 
L 312.968514 -101.854077 
L 313.760355 -102.616059 
L 314.552195 -103.477647 
L 315.344035 -104.195556 
L 316.135876 -104.569071 
L 316.927716 -105.137518 
L 317.719557 -105.730862 
L 318.511397 -107.702045 
L 319.303237 -109.214605 
L 320.095078 -109.554921 
L 320.886918 -110.449162 
L 321.678758 -110.993483 
L 322.470599 -111.753549 
L 323.262439 -112.824494 
L 324.054279 -114.304525 
L 324.84612 -115.586124 
L 325.63796 -116.344129 
L 326.4298 -116.805033 
L 327.221641 -118.048016 
L 328.013481 -120.009562 
L 328.805322 -121.780659 
L 329.597162 -123.239827 
L 330.389002 -125.477255 
L 331.180843 -127.199538 
L 331.972683 -128.047864 
L 332.764523 -128.749658 
L 333.556364 -129.934608 
L 334.348204 -131.074781 
L 335.140044 -131.110955 
L 335.931885 -130.67922 
L 336.723725 -130.681805 
L 337.515565 -130.705465 
L 338.307406 -131.792437 
L 339.099246 -131.910487 
L 339.891086 -132.53007 
L 340.682927 -133.121887 
L 341.474767 -132.743587 
L 342.266608 -132.176325 
L 343.058448 -132.159598 
L 343.850288 -132.436669 
L 344.642129 -132.365666 
L 345.433969 -132.31882 
L 346.225809 -132.265511 
L 347.01765 -132.219732 
L 347.80949 -132.333252 
L 348.60133 -132.612078 
L 349.393171 -132.72538 
L 350.185011 -133.111857 
L 350.976851 -135.433131 
L 351.768692 -139.644585 
L 352.560532 -143.580275 
L 353.352373 -147.801339 
L 354.144213 -150.839311 
L 354.936053 -152.686872 
L 355.727894 -155.478857 
L 356.519734 -157.332678 
L 357.311574 -159.285403 
L 358.103415 -161.950628 
L 358.895255 -166.246036 
L 359.687095 -169.641169 
L 360.478936 -173.03708 
L 361.270776 -176.12343 
L 362.062616 -179.985182 
L 362.854457 -182.904099 
L 363.646297 -185.770761 
L 364.438137 -191.36892 
L 365.229978 -196.773651 
L 366.021818 -199.644636 
L 366.813659 -204.965887 
L 367.605499 -213.305654 
L 368.397339 -224.107143 
L 369.18918 -234.636936 
L 369.98102 -242.519664 
L 370.77286 -246.570687 
L 371.564701 -248.05481 
L 372.356541 -247.830481 
L 373.148381 -248.649161 
L 373.940222 -250.562419 
L 374.732062 -250.897739 
L 375.523902 -249.946007 
L 376.315743 -248.648873 
L 377.107583 -247.01559 
L 377.899424 -245.468672 
L 378.691264 -243.153624 
L 379.483104 -241.74271 
L 380.274945 -241.423535 
L 381.066785 -241.827338 
L 381.858625 -241.716727 
L 382.650466 -242.212455 
L 383.442306 -242.127582 
L 384.234146 -240.619748 
L 385.025987 -235.974936 
L 385.817827 -231.277498 
L 386.609667 -228.611432 
L 387.401508 -227.947642 
L 388.193348 -227.754491 
L 388.985188 -226.441893 
L 389.777029 -224.190548 
L 390.568869 -224.242034 
L 391.36071 -225.996417 
L 392.15255 -229.301896 
L 392.94439 -231.340527 
L 393.736231 -245.049456 
L 394.528071 -255.643469 
L 395.319911 -262.491167 
L 396.111752 -272.233359 
L 396.903592 -279.691425 
L 397.695432 -285.693519 
L 398.487273 -292.032 
L 398.487273 -167.525502 
L 398.487273 -167.525502 
L 397.695432 -165.688412 
L 396.903592 -164.171409 
L 396.111752 -163.901747 
L 395.319911 -166.095104 
L 394.528071 -165.974952 
L 393.736231 -171.187734 
L 392.94439 -179.749929 
L 392.15255 -180.710334 
L 391.36071 -182.353933 
L 390.568869 -183.197242 
L 389.777029 -183.222549 
L 388.985188 -181.850886 
L 388.193348 -181.429609 
L 387.401508 -181.770754 
L 386.609667 -182.436746 
L 385.817827 -181.878075 
L 385.025987 -180.293074 
L 384.234146 -179.431795 
L 383.442306 -182.560826 
L 382.650466 -184.636857 
L 381.858625 -185.991085 
L 381.066785 -185.769141 
L 380.274945 -186.645427 
L 379.483104 -185.963115 
L 378.691264 -183.700807 
L 377.899424 -178.076323 
L 377.107583 -172.917709 
L 376.315743 -166.608605 
L 375.523902 -160.876883 
L 374.732062 -154.972869 
L 373.940222 -150.020512 
L 373.148381 -144.618199 
L 372.356541 -138.635742 
L 371.564701 -132.721878 
L 370.77286 -128.218742 
L 369.98102 -124.372325 
L 369.18918 -123.718567 
L 368.397339 -125.60482 
L 367.605499 -128.037642 
L 366.813659 -129.283997 
L 366.021818 -128.157967 
L 365.229978 -124.623469 
L 364.438137 -123.041433 
L 363.646297 -122.036498 
L 362.854457 -119.550759 
L 362.062616 -116.918141 
L 361.270776 -115.397981 
L 360.478936 -114.026099 
L 359.687095 -112.988384 
L 358.895255 -112.785422 
L 358.103415 -113.501778 
L 357.311574 -113.365248 
L 356.519734 -112.75412 
L 355.727894 -112.645074 
L 354.936053 -113.074202 
L 354.144213 -112.897046 
L 353.352373 -113.985705 
L 352.560532 -115.355041 
L 351.768692 -116.558737 
L 350.976851 -117.92311 
L 350.185011 -118.153458 
L 349.393171 -118.186292 
L 348.60133 -118.211625 
L 347.80949 -118.099199 
L 347.01765 -118.000044 
L 346.225809 -118.262316 
L 345.433969 -118.425541 
L 344.642129 -117.998096 
L 343.850288 -117.64643 
L 343.058448 -117.146367 
L 342.266608 -115.770224 
L 341.474767 -113.583594 
L 340.682927 -111.882381 
L 339.891086 -110.898938 
L 339.099246 -110.03665 
L 338.307406 -108.608826 
L 337.515565 -107.485599 
L 336.723725 -106.079101 
L 335.931885 -104.934026 
L 335.140044 -103.327128 
L 334.348204 -102.546071 
L 333.556364 -102.075828 
L 332.764523 -100.762429 
L 331.972683 -99.238952 
L 331.180843 -97.637655 
L 330.389002 -96.877192 
L 329.597162 -96.648743 
L 328.805322 -95.952915 
L 328.013481 -95.53876 
L 327.221641 -95.286977 
L 326.4298 -94.991776 
L 325.63796 -93.988897 
L 324.84612 -93.204425 
L 324.054279 -92.868665 
L 323.262439 -92.640472 
L 322.470599 -92.328971 
L 321.678758 -91.808822 
L 320.886918 -90.60216 
L 320.095078 -89.605542 
L 319.303237 -88.263989 
L 318.511397 -87.646217 
L 317.719557 -87.479642 
L 316.927716 -86.733845 
L 316.135876 -86.00447 
L 315.344035 -85.302054 
L 314.552195 -84.888448 
L 313.760355 -84.519054 
L 312.968514 -84.126163 
L 312.176674 -83.625466 
L 311.384834 -83.099004 
L 310.592993 -82.804754 
L 309.801153 -82.28518 
L 309.009313 -82.076715 
L 308.217472 -82.066692 
L 307.425632 -82.036831 
L 306.633792 -82.433017 
L 305.841951 -83.068669 
L 305.050111 -83.111991 
L 304.258271 -83.15879 
L 303.46643 -83.040042 
L 302.67459 -82.962676 
L 301.882749 -82.874865 
L 301.090909 -82.907151 
L 300.299069 -82.959674 
L 299.507228 -82.679696 
L 298.715388 -82.922646 
L 297.923548 -83.04928 
L 297.131707 -83.360377 
L 296.339867 -83.320414 
L 295.548027 -83.313848 
L 294.756186 -83.306492 
L 293.964346 -83.323139 
L 293.172506 -83.324467 
L 292.380665 -83.321519 
L 291.588825 -83.109215 
L 290.796984 -83.008475 
L 290.005144 -82.844482 
L 289.213304 -82.618536 
L 288.421463 -82.294181 
L 287.629623 -81.920321 
L 286.837783 -81.800825 
L 286.045942 -81.612064 
L 285.254102 -81.366027 
L 284.462262 -81.330006 
L 283.670421 -81.292292 
L 282.878581 -80.9119 
L 282.086741 -80.202285 
L 281.2949 -79.89036 
L 280.50306 -79.622582 
L 279.71122 -79.520016 
L 278.919379 -79.432197 
L 278.127539 -79.40893 
L 277.335698 -79.40096 
L 276.543858 -79.48378 
L 275.752018 -79.670883 
L 274.960177 -79.894781 
L 274.168337 -80.211839 
L 273.376497 -80.647648 
L 272.584656 -81.219074 
L 271.792816 -82.026446 
L 271.000976 -82.643328 
L 270.209135 -83.406694 
L 269.417295 -84.664048 
L 268.625455 -85.697742 
L 267.833614 -87.829081 
L 267.041774 -88.001144 
L 266.249933 -87.950163 
L 265.458093 -87.790211 
L 264.666253 -87.786821 
L 263.874412 -87.889689 
L 263.082572 -87.999281 
L 262.290732 -88.237503 
L 261.498891 -88.412003 
L 260.707051 -88.762087 
L 259.915211 -88.193934 
L 259.12337 -87.834383 
L 258.33153 -87.268066 
L 257.53969 -87.335747 
L 256.747849 -87.154899 
L 255.956009 -86.719252 
L 255.164169 -86.367562 
L 254.372328 -86.113122 
L 253.580488 -85.805545 
L 252.788647 -83.921642 
L 251.996807 -82.155052 
L 251.204967 -80.527772 
L 250.413126 -79.263693 
L 249.621286 -78.093364 
L 248.829446 -77.015431 
L 248.037605 -75.832188 
L 247.245765 -74.933335 
L 246.453925 -74.125158 
L 245.662084 -73.53481 
L 244.870244 -73.10397 
L 244.078404 -72.623057 
L 243.286563 -72.317252 
L 242.494723 -72.04344 
L 241.702882 -72.490635 
L 240.911042 -72.790456 
L 240.119202 -73.101716 
L 239.327361 -73.660959 
L 238.535521 -74.449052 
L 237.743681 -76.161985 
L 236.95184 -76.519828 
L 236.16 -76.562837 
L 235.36816 -76.557619 
L 234.576319 -76.614389 
L 233.784479 -76.693241 
L 232.992639 -76.731908 
L 232.200798 -76.72001 
L 231.408958 -76.711681 
L 230.617118 -76.677977 
L 229.825277 -76.549364 
L 229.033437 -76.559886 
L 228.241596 -76.568649 
L 227.449756 -76.560937 
L 226.657916 -76.306427 
L 225.866075 -76.080991 
L 225.074235 -76.091274 
L 224.282395 -76.09277 
L 223.490554 -76.102674 
L 222.698714 -76.110255 
L 221.906874 -76.095396 
L 221.115033 -76.046333 
L 220.323193 -76.160435 
L 219.531353 -76.24255 
L 218.739512 -76.391611 
L 217.947672 -76.534803 
L 217.155831 -76.563155 
L 216.363991 -76.424236 
L 215.572151 -76.441614 
L 214.78031 -76.568677 
L 213.98847 -76.897399 
L 213.19663 -77.118834 
L 212.404789 -77.288323 
L 211.612949 -77.393414 
L 210.821109 -77.39306 
L 210.029268 -77.381374 
L 209.237428 -77.200752 
L 208.445588 -77.258641 
L 207.653747 -77.445463 
L 206.861907 -77.464597 
L 206.070067 -77.513059 
L 205.278226 -77.23471 
L 204.486386 -76.51671 
L 203.694545 -76.063572 
L 202.902705 -75.369469 
L 202.110865 -75.215384 
L 201.319024 -75.143855 
L 200.527184 -74.946476 
L 199.735344 -74.953891 
L 198.943503 -74.954876 
L 198.151663 -74.963026 
L 197.359823 -74.964665 
L 196.567982 -74.929357 
L 195.776142 -74.904814 
L 194.984302 -74.876299 
L 194.192461 -74.830915 
L 193.400621 -74.795537 
L 192.60878 -74.213397 
L 191.81694 -73.932554 
L 191.0251 -73.91407 
L 190.233259 -73.824712 
L 189.441419 -73.691044 
L 188.649579 -73.91218 
L 187.857738 -74.0095 
L 187.065898 -74.170238 
L 186.274058 -74.018929 
L 185.482217 -73.919372 
L 184.690377 -73.752688 
L 183.898537 -73.314529 
L 183.106696 -73.124857 
L 182.314856 -71.727562 
L 181.523016 -70.655243 
L 180.731175 -69.616004 
L 179.939335 -68.540829 
L 179.147494 -67.732685 
L 178.355654 -66.911 
L 177.563814 -65.800597 
L 176.771973 -64.546585 
L 175.980133 -63.40965 
L 175.188293 -62.861791 
L 174.396452 -62.72996 
L 173.604612 -62.828807 
L 172.812772 -62.614973 
L 172.020931 -62.070154 
L 171.229091 -61.817982 
L 170.437251 -61.738309 
L 169.64541 -61.961529 
L 168.85357 -62.270595 
L 168.061729 -62.628162 
L 167.269889 -63.788605 
L 166.478049 -63.936641 
L 165.686208 -64.144961 
L 164.894368 -64.342888 
L 164.102528 -64.26581 
L 163.310687 -64.288228 
L 162.518847 -64.273358 
L 161.727007 -64.173049 
L 160.935166 -64.016576 
L 160.143326 -63.593415 
L 159.351486 -63.187643 
L 158.559645 -62.118231 
L 157.767805 -61.713077 
L 156.975965 -61.472857 
L 156.184124 -61.50357 
L 155.392284 -61.458379 
L 154.600443 -61.437542 
L 153.808603 -61.296198 
L 153.016763 -60.531443 
L 152.224922 -60.251152 
L 151.433082 -60.13683 
L 150.641242 -60.190914 
L 149.849401 -59.303244 
L 149.057561 -58.682547 
L 148.265721 -57.493237 
L 147.47388 -56.948371 
L 146.68204 -56.309154 
L 145.8902 -56.189171 
L 145.098359 -55.363794 
L 144.306519 -54.279286 
L 143.514678 -53.545406 
L 142.722838 -53.144681 
L 141.930998 -52.730381 
L 141.139157 -51.80836 
L 140.347317 -50.939976 
L 139.555477 -50.393749 
L 138.763636 -50.150209 
L 137.971796 -50.112 
L 137.179956 -50.483792 
L 136.388115 -50.878531 
L 135.596275 -51.363828 
L 134.804435 -51.900832 
L 134.012594 -53.182626 
L 133.220754 -54.730536 
L 132.428914 -56.840717 
L 131.637073 -58.840622 
L 130.845233 -61.443262 
L 130.053392 -64.056502 
L 129.261552 -69.705052 
L 128.469712 -70.287602 
L 127.677871 -71.045886 
L 126.886031 -71.642007 
L 126.094191 -72.554775 
L 125.30235 -72.623141 
L 124.51051 -72.635632 
L 123.71867 -72.520106 
L 122.926829 -72.762294 
L 122.134989 -73.069461 
L 121.343149 -73.376622 
L 120.551308 -74.217541 
L 119.759468 -75.186267 
L 118.967627 -76.122159 
L 118.175787 -77.053016 
L 117.383947 -78.218928 
L 116.592106 -78.548683 
L 115.800266 -77.96898 
L 115.008426 -77.521894 
L 114.216585 -77.246955 
L 113.424745 -77.018982 
L 112.632905 -76.79588 
L 111.841064 -76.718104 
L 111.049224 -76.4406 
L 110.257384 -76.261552 
L 109.465543 -75.599152 
L 108.673703 -74.670889 
L 107.881863 -73.700008 
L 107.090022 -73.009894 
L 106.298182 -72.504443 
L 105.506341 -72.345512 
L 104.714501 -72.138266 
L 103.922661 -72.123744 
L 103.13082 -72.089842 
L 102.33898 -72.202926 
L 101.54714 -72.346801 
L 100.755299 -72.383631 
L 99.963459 -72.321544 
L 99.171619 -72.302697 
L 98.379778 -71.750167 
L 97.587938 -71.409592 
L 96.796098 -70.973574 
L 96.004257 -70.959498 
L 95.212417 -70.498086 
L 94.420576 -70.525628 
L 93.628736 -70.405708 
L 92.836896 -69.858678 
L 92.045055 -68.898351 
L 91.253215 -68.077908 
L 90.461375 -67.361525 
L 89.669534 -66.29809 
L 88.877694 -65.682727 
z
" id="mba663f6749" style="stroke:#4b0082;stroke-opacity:0.3;"/>
    </defs>
    <g clip-path="url(#p74eacd54ac)">
     <use style="fill:#4b0082;fill-opacity:0.3;stroke:#4b0082;stroke-opacity:0.3;" x="0" xlink:href="#mba663f6749" y="345.6"/>
    </g>
   </g>
   <g id="matplotlib.axis_1">
    <g id="xtick_1">
     <g id="line2d_1">
      <defs>
       <path d="M 0 0 
L 0 3.5 
" id="md74f17f8d8" style="stroke:#000000;stroke-width:0.8;"/>
      </defs>
      <g>
       <use style="stroke:#000000;stroke-width:0.8;" x="73.832727" xlink:href="#md74f17f8d8" y="307.584"/>
      </g>
     </g>
     <g id="text_1">
      <!-- 2020-01 -->
      <g transform="translate(52.941321 322.182437)scale(0.1 -0.1)">
       <defs>
        <path d="M 19.1875 8.296875 
L 53.609375 8.296875 
L 53.609375 0 
L 7.328125 0 
L 7.328125 8.296875 
Q 12.9375 14.109375 22.625 23.890625 
Q 32.328125 33.6875 34.8125 36.53125 
Q 39.546875 41.84375 41.421875 45.53125 
Q 43.3125 49.21875 43.3125 52.78125 
Q 43.3125 58.59375 39.234375 62.25 
Q 35.15625 65.921875 28.609375 65.921875 
Q 23.96875 65.921875 18.8125 64.3125 
Q 13.671875 62.703125 7.8125 59.421875 
L 7.8125 69.390625 
Q 13.765625 71.78125 18.9375 73 
Q 24.125 74.21875 28.421875 74.21875 
Q 39.75 74.21875 46.484375 68.546875 
Q 53.21875 62.890625 53.21875 53.421875 
Q 53.21875 48.921875 51.53125 44.890625 
Q 49.859375 40.875 45.40625 35.40625 
Q 44.1875 33.984375 37.640625 27.21875 
Q 31.109375 20.453125 19.1875 8.296875 
z
" id="DejaVuSans-50"/>
        <path d="M 31.78125 66.40625 
Q 24.171875 66.40625 20.328125 58.90625 
Q 16.5 51.421875 16.5 36.375 
Q 16.5 21.390625 20.328125 13.890625 
Q 24.171875 6.390625 31.78125 6.390625 
Q 39.453125 6.390625 43.28125 13.890625 
Q 47.125 21.390625 47.125 36.375 
Q 47.125 51.421875 43.28125 58.90625 
Q 39.453125 66.40625 31.78125 66.40625 
z
M 31.78125 74.21875 
Q 44.046875 74.21875 50.515625 64.515625 
Q 56.984375 54.828125 56.984375 36.375 
Q 56.984375 17.96875 50.515625 8.265625 
Q 44.046875 -1.421875 31.78125 -1.421875 
Q 19.53125 -1.421875 13.0625 8.265625 
Q 6.59375 17.96875 6.59375 36.375 
Q 6.59375 54.828125 13.0625 64.515625 
Q 19.53125 74.21875 31.78125 74.21875 
z
" id="DejaVuSans-48"/>
        <path d="M 4.890625 31.390625 
L 31.203125 31.390625 
L 31.203125 23.390625 
L 4.890625 23.390625 
z
" id="DejaVuSans-45"/>
        <path d="M 12.40625 8.296875 
L 28.515625 8.296875 
L 28.515625 63.921875 
L 10.984375 60.40625 
L 10.984375 69.390625 
L 28.421875 72.90625 
L 38.28125 72.90625 
L 38.28125 8.296875 
L 54.390625 8.296875 
L 54.390625 0 
L 12.40625 0 
z
" id="DejaVuSans-49"/>
       </defs>
       <use xlink:href="#DejaVuSans-50"/>
       <use x="63.623047" xlink:href="#DejaVuSans-48"/>
       <use x="127.246094" xlink:href="#DejaVuSans-50"/>
       <use x="190.869141" xlink:href="#DejaVuSans-48"/>
       <use x="254.492188" xlink:href="#DejaVuSans-45"/>
       <use x="290.576172" xlink:href="#DejaVuSans-48"/>
       <use x="354.199219" xlink:href="#DejaVuSans-49"/>
      </g>
     </g>
    </g>
    <g id="xtick_2">
     <g id="line2d_2">
      <g>
       <use style="stroke:#000000;stroke-width:0.8;" x="121.343149" xlink:href="#md74f17f8d8" y="307.584"/>
      </g>
     </g>
     <g id="text_2">
      <!-- 2020-03 -->
      <g transform="translate(100.451742 322.182437)scale(0.1 -0.1)">
       <defs>
        <path d="M 40.578125 39.3125 
Q 47.65625 37.796875 51.625 33 
Q 55.609375 28.21875 55.609375 21.1875 
Q 55.609375 10.40625 48.1875 4.484375 
Q 40.765625 -1.421875 27.09375 -1.421875 
Q 22.515625 -1.421875 17.65625 -0.515625 
Q 12.796875 0.390625 7.625 2.203125 
L 7.625 11.71875 
Q 11.71875 9.328125 16.59375 8.109375 
Q 21.484375 6.890625 26.8125 6.890625 
Q 36.078125 6.890625 40.9375 10.546875 
Q 45.796875 14.203125 45.796875 21.1875 
Q 45.796875 27.640625 41.28125 31.265625 
Q 36.765625 34.90625 28.71875 34.90625 
L 20.21875 34.90625 
L 20.21875 43.015625 
L 29.109375 43.015625 
Q 36.375 43.015625 40.234375 45.921875 
Q 44.09375 48.828125 44.09375 54.296875 
Q 44.09375 59.90625 40.109375 62.90625 
Q 36.140625 65.921875 28.71875 65.921875 
Q 24.65625 65.921875 20.015625 65.03125 
Q 15.375 64.15625 9.8125 62.3125 
L 9.8125 71.09375 
Q 15.4375 72.65625 20.34375 73.4375 
Q 25.25 74.21875 29.59375 74.21875 
Q 40.828125 74.21875 47.359375 69.109375 
Q 53.90625 64.015625 53.90625 55.328125 
Q 53.90625 49.265625 50.4375 45.09375 
Q 46.96875 40.921875 40.578125 39.3125 
z
" id="DejaVuSans-51"/>
       </defs>
       <use xlink:href="#DejaVuSans-50"/>
       <use x="63.623047" xlink:href="#DejaVuSans-48"/>
       <use x="127.246094" xlink:href="#DejaVuSans-50"/>
       <use x="190.869141" xlink:href="#DejaVuSans-48"/>
       <use x="254.492188" xlink:href="#DejaVuSans-45"/>
       <use x="290.576172" xlink:href="#DejaVuSans-48"/>
       <use x="354.199219" xlink:href="#DejaVuSans-51"/>
      </g>
     </g>
    </g>
    <g id="xtick_3">
     <g id="line2d_3">
      <g>
       <use style="stroke:#000000;stroke-width:0.8;" x="169.64541" xlink:href="#md74f17f8d8" y="307.584"/>
      </g>
     </g>
     <g id="text_3">
      <!-- 2020-05 -->
      <g transform="translate(148.754004 322.182437)scale(0.1 -0.1)">
       <defs>
        <path d="M 10.796875 72.90625 
L 49.515625 72.90625 
L 49.515625 64.59375 
L 19.828125 64.59375 
L 19.828125 46.734375 
Q 21.96875 47.46875 24.109375 47.828125 
Q 26.265625 48.1875 28.421875 48.1875 
Q 40.625 48.1875 47.75 41.5 
Q 54.890625 34.8125 54.890625 23.390625 
Q 54.890625 11.625 47.5625 5.09375 
Q 40.234375 -1.421875 26.90625 -1.421875 
Q 22.3125 -1.421875 17.546875 -0.640625 
Q 12.796875 0.140625 7.71875 1.703125 
L 7.71875 11.625 
Q 12.109375 9.234375 16.796875 8.0625 
Q 21.484375 6.890625 26.703125 6.890625 
Q 35.15625 6.890625 40.078125 11.328125 
Q 45.015625 15.765625 45.015625 23.390625 
Q 45.015625 31 40.078125 35.4375 
Q 35.15625 39.890625 26.703125 39.890625 
Q 22.75 39.890625 18.8125 39.015625 
Q 14.890625 38.140625 10.796875 36.28125 
z
" id="DejaVuSans-53"/>
       </defs>
       <use xlink:href="#DejaVuSans-50"/>
       <use x="63.623047" xlink:href="#DejaVuSans-48"/>
       <use x="127.246094" xlink:href="#DejaVuSans-50"/>
       <use x="190.869141" xlink:href="#DejaVuSans-48"/>
       <use x="254.492188" xlink:href="#DejaVuSans-45"/>
       <use x="290.576172" xlink:href="#DejaVuSans-48"/>
       <use x="354.199219" xlink:href="#DejaVuSans-53"/>
      </g>
     </g>
    </g>
    <g id="xtick_4">
     <g id="line2d_4">
      <g>
       <use style="stroke:#000000;stroke-width:0.8;" x="217.947672" xlink:href="#md74f17f8d8" y="307.584"/>
      </g>
     </g>
     <g id="text_4">
      <!-- 2020-07 -->
      <g transform="translate(197.056266 322.182437)scale(0.1 -0.1)">
       <defs>
        <path d="M 8.203125 72.90625 
L 55.078125 72.90625 
L 55.078125 68.703125 
L 28.609375 0 
L 18.3125 0 
L 43.21875 64.59375 
L 8.203125 64.59375 
z
" id="DejaVuSans-55"/>
       </defs>
       <use xlink:href="#DejaVuSans-50"/>
       <use x="63.623047" xlink:href="#DejaVuSans-48"/>
       <use x="127.246094" xlink:href="#DejaVuSans-50"/>
       <use x="190.869141" xlink:href="#DejaVuSans-48"/>
       <use x="254.492188" xlink:href="#DejaVuSans-45"/>
       <use x="290.576172" xlink:href="#DejaVuSans-48"/>
       <use x="354.199219" xlink:href="#DejaVuSans-55"/>
      </g>
     </g>
    </g>
    <g id="xtick_5">
     <g id="line2d_5">
      <g>
       <use style="stroke:#000000;stroke-width:0.8;" x="267.041774" xlink:href="#md74f17f8d8" y="307.584"/>
      </g>
     </g>
     <g id="text_5">
      <!-- 2020-09 -->
      <g transform="translate(246.150368 322.182437)scale(0.1 -0.1)">
       <defs>
        <path d="M 10.984375 1.515625 
L 10.984375 10.5 
Q 14.703125 8.734375 18.5 7.8125 
Q 22.3125 6.890625 25.984375 6.890625 
Q 35.75 6.890625 40.890625 13.453125 
Q 46.046875 20.015625 46.78125 33.40625 
Q 43.953125 29.203125 39.59375 26.953125 
Q 35.25 24.703125 29.984375 24.703125 
Q 19.046875 24.703125 12.671875 31.3125 
Q 6.296875 37.9375 6.296875 49.421875 
Q 6.296875 60.640625 12.9375 67.421875 
Q 19.578125 74.21875 30.609375 74.21875 
Q 43.265625 74.21875 49.921875 64.515625 
Q 56.59375 54.828125 56.59375 36.375 
Q 56.59375 19.140625 48.40625 8.859375 
Q 40.234375 -1.421875 26.421875 -1.421875 
Q 22.703125 -1.421875 18.890625 -0.6875 
Q 15.09375 0.046875 10.984375 1.515625 
z
M 30.609375 32.421875 
Q 37.25 32.421875 41.125 36.953125 
Q 45.015625 41.5 45.015625 49.421875 
Q 45.015625 57.28125 41.125 61.84375 
Q 37.25 66.40625 30.609375 66.40625 
Q 23.96875 66.40625 20.09375 61.84375 
Q 16.21875 57.28125 16.21875 49.421875 
Q 16.21875 41.5 20.09375 36.953125 
Q 23.96875 32.421875 30.609375 32.421875 
z
" id="DejaVuSans-57"/>
       </defs>
       <use xlink:href="#DejaVuSans-50"/>
       <use x="63.623047" xlink:href="#DejaVuSans-48"/>
       <use x="127.246094" xlink:href="#DejaVuSans-50"/>
       <use x="190.869141" xlink:href="#DejaVuSans-48"/>
       <use x="254.492188" xlink:href="#DejaVuSans-45"/>
       <use x="290.576172" xlink:href="#DejaVuSans-48"/>
       <use x="354.199219" xlink:href="#DejaVuSans-57"/>
      </g>
     </g>
    </g>
    <g id="xtick_6">
     <g id="line2d_6">
      <g>
       <use style="stroke:#000000;stroke-width:0.8;" x="315.344035" xlink:href="#md74f17f8d8" y="307.584"/>
      </g>
     </g>
     <g id="text_6">
      <!-- 2020-11 -->
      <g transform="translate(294.452629 322.182437)scale(0.1 -0.1)">
       <use xlink:href="#DejaVuSans-50"/>
       <use x="63.623047" xlink:href="#DejaVuSans-48"/>
       <use x="127.246094" xlink:href="#DejaVuSans-50"/>
       <use x="190.869141" xlink:href="#DejaVuSans-48"/>
       <use x="254.492188" xlink:href="#DejaVuSans-45"/>
       <use x="290.576172" xlink:href="#DejaVuSans-49"/>
       <use x="354.199219" xlink:href="#DejaVuSans-49"/>
      </g>
     </g>
    </g>
    <g id="xtick_7">
     <g id="line2d_7">
      <g>
       <use style="stroke:#000000;stroke-width:0.8;" x="363.646297" xlink:href="#md74f17f8d8" y="307.584"/>
      </g>
     </g>
     <g id="text_7">
      <!-- 2021-01 -->
      <g transform="translate(342.754891 322.182437)scale(0.1 -0.1)">
       <use xlink:href="#DejaVuSans-50"/>
       <use x="63.623047" xlink:href="#DejaVuSans-48"/>
       <use x="127.246094" xlink:href="#DejaVuSans-50"/>
       <use x="190.869141" xlink:href="#DejaVuSans-49"/>
       <use x="254.492188" xlink:href="#DejaVuSans-45"/>
       <use x="290.576172" xlink:href="#DejaVuSans-48"/>
       <use x="354.199219" xlink:href="#DejaVuSans-49"/>
      </g>
     </g>
    </g>
    <g id="xtick_8">
     <g id="line2d_8">
      <g>
       <use style="stroke:#000000;stroke-width:0.8;" x="410.364878" xlink:href="#md74f17f8d8" y="307.584"/>
      </g>
     </g>
     <g id="text_8">
      <!-- 2021-03 -->
      <g transform="translate(389.473472 322.182437)scale(0.1 -0.1)">
       <use xlink:href="#DejaVuSans-50"/>
       <use x="63.623047" xlink:href="#DejaVuSans-48"/>
       <use x="127.246094" xlink:href="#DejaVuSans-50"/>
       <use x="190.869141" xlink:href="#DejaVuSans-49"/>
       <use x="254.492188" xlink:href="#DejaVuSans-45"/>
       <use x="290.576172" xlink:href="#DejaVuSans-48"/>
       <use x="354.199219" xlink:href="#DejaVuSans-51"/>
      </g>
     </g>
    </g>
   </g>
   <g id="matplotlib.axis_2">
    <g id="ytick_1">
     <g id="line2d_9">
      <defs>
       <path d="M 0 0 
L -3.5 0 
" id="m9c3e968580" style="stroke:#000000;stroke-width:0.8;"/>
      </defs>
      <g>
       <use style="stroke:#000000;stroke-width:0.8;" x="57.6" xlink:href="#m9c3e968580" y="263.980381"/>
      </g>
     </g>
     <g id="text_9">
      <!-- 10000 -->
      <g transform="translate(18.7875 267.7796)scale(0.1 -0.1)">
       <use xlink:href="#DejaVuSans-49"/>
       <use x="63.623047" xlink:href="#DejaVuSans-48"/>
       <use x="127.246094" xlink:href="#DejaVuSans-48"/>
       <use x="190.869141" xlink:href="#DejaVuSans-48"/>
       <use x="254.492188" xlink:href="#DejaVuSans-48"/>
      </g>
     </g>
    </g>
    <g id="ytick_2">
     <g id="line2d_10">
      <g>
       <use style="stroke:#000000;stroke-width:0.8;" x="57.6" xlink:href="#m9c3e968580" y="213.288364"/>
      </g>
     </g>
     <g id="text_10">
      <!-- 20000 -->
      <g transform="translate(18.7875 217.087583)scale(0.1 -0.1)">
       <use xlink:href="#DejaVuSans-50"/>
       <use x="63.623047" xlink:href="#DejaVuSans-48"/>
       <use x="127.246094" xlink:href="#DejaVuSans-48"/>
       <use x="190.869141" xlink:href="#DejaVuSans-48"/>
       <use x="254.492188" xlink:href="#DejaVuSans-48"/>
      </g>
     </g>
    </g>
    <g id="ytick_3">
     <g id="line2d_11">
      <g>
       <use style="stroke:#000000;stroke-width:0.8;" x="57.6" xlink:href="#m9c3e968580" y="162.596347"/>
      </g>
     </g>
     <g id="text_11">
      <!-- 30000 -->
      <g transform="translate(18.7875 166.395566)scale(0.1 -0.1)">
       <use xlink:href="#DejaVuSans-51"/>
       <use x="63.623047" xlink:href="#DejaVuSans-48"/>
       <use x="127.246094" xlink:href="#DejaVuSans-48"/>
       <use x="190.869141" xlink:href="#DejaVuSans-48"/>
       <use x="254.492188" xlink:href="#DejaVuSans-48"/>
      </g>
     </g>
    </g>
    <g id="ytick_4">
     <g id="line2d_12">
      <g>
       <use style="stroke:#000000;stroke-width:0.8;" x="57.6" xlink:href="#m9c3e968580" y="111.904331"/>
      </g>
     </g>
     <g id="text_12">
      <!-- 40000 -->
      <g transform="translate(18.7875 115.703549)scale(0.1 -0.1)">
       <defs>
        <path d="M 37.796875 64.3125 
L 12.890625 25.390625 
L 37.796875 25.390625 
z
M 35.203125 72.90625 
L 47.609375 72.90625 
L 47.609375 25.390625 
L 58.015625 25.390625 
L 58.015625 17.1875 
L 47.609375 17.1875 
L 47.609375 0 
L 37.796875 0 
L 37.796875 17.1875 
L 4.890625 17.1875 
L 4.890625 26.703125 
z
" id="DejaVuSans-52"/>
       </defs>
       <use xlink:href="#DejaVuSans-52"/>
       <use x="63.623047" xlink:href="#DejaVuSans-48"/>
       <use x="127.246094" xlink:href="#DejaVuSans-48"/>
       <use x="190.869141" xlink:href="#DejaVuSans-48"/>
       <use x="254.492188" xlink:href="#DejaVuSans-48"/>
      </g>
     </g>
    </g>
    <g id="ytick_5">
     <g id="line2d_13">
      <g>
       <use style="stroke:#000000;stroke-width:0.8;" x="57.6" xlink:href="#m9c3e968580" y="61.212314"/>
      </g>
     </g>
     <g id="text_13">
      <!-- 50000 -->
      <g transform="translate(18.7875 65.011532)scale(0.1 -0.1)">
       <use xlink:href="#DejaVuSans-53"/>
       <use x="63.623047" xlink:href="#DejaVuSans-48"/>
       <use x="127.246094" xlink:href="#DejaVuSans-48"/>
       <use x="190.869141" xlink:href="#DejaVuSans-48"/>
       <use x="254.492188" xlink:href="#DejaVuSans-48"/>
      </g>
     </g>
    </g>
   </g>
   <g id="line2d_14">
    <path clip-path="url(#p74eacd54ac)" d="M 88.877694 267.453033 
L 89.669534 267.293026 
L 92.045055 267.955312 
L 92.836896 268.41562 
L 93.628736 268.533061 
L 94.420576 268.282162 
L 95.212417 267.575986 
L 96.004257 267.293166 
L 96.796098 266.64343 
L 98.379778 266.150828 
L 99.171619 266.085005 
L 100.755299 265.716423 
L 102.33898 264.641437 
L 103.922661 263.491921 
L 104.714501 262.738928 
L 105.506341 262.372983 
L 106.298182 261.72699 
L 107.090022 261.254713 
L 107.881863 261.039891 
L 108.673703 260.997321 
L 109.465543 261.264857 
L 110.257384 261.40153 
L 111.049224 261.408811 
L 111.841064 261.232487 
L 114.216585 261.380148 
L 115.800266 261.589011 
L 116.592106 261.919121 
L 117.383947 261.737076 
L 118.175787 261.051317 
L 119.759468 260.293302 
L 121.343149 259.958551 
L 122.134989 260.321275 
L 123.71867 261.299436 
L 124.51051 262.064134 
L 126.094191 262.878368 
L 126.886031 262.802925 
L 127.677871 263.333597 
L 128.469712 263.428831 
L 129.261552 263.68988 
L 130.053392 260.453407 
L 130.845233 259.854495 
L 131.637073 259.647244 
L 132.428914 259.81526 
L 133.220754 259.858217 
L 134.012594 260.043671 
L 134.804435 260.471834 
L 137.179956 262.675117 
L 139.555477 266.325124 
L 140.347317 268.072271 
L 141.930998 272.375672 
L 143.514678 275.143169 
L 144.306519 276.640284 
L 145.098359 278.503065 
L 145.8902 278.444351 
L 146.68204 277.99385 
L 148.265721 277.657274 
L 149.057561 277.978116 
L 149.849401 277.607037 
L 150.641242 277.605224 
L 151.433082 276.974912 
L 152.224922 276.540886 
L 153.016763 276.478509 
L 153.808603 276.704095 
L 156.184124 276.543821 
L 156.975965 276.553801 
L 157.767805 276.418172 
L 158.559645 276.433565 
L 159.351486 276.810354 
L 160.143326 276.855261 
L 160.935166 277.061416 
L 161.727007 277.116378 
L 162.518847 277.050493 
L 167.269889 274.792632 
L 168.061729 272.878015 
L 171.229091 268.105222 
L 173.604612 265.838108 
L 174.396452 264.239963 
L 175.188293 263.078147 
L 175.980133 262.389702 
L 176.771973 262.561235 
L 178.355654 263.200951 
L 179.147494 263.094552 
L 179.939335 262.743295 
L 182.314856 263.239912 
L 183.106696 263.653816 
L 183.898537 263.338802 
L 189.441419 263.268334 
L 190.233259 263.801857 
L 191.0251 264.018831 
L 191.81694 264.116987 
L 192.60878 263.925956 
L 193.400621 264.075545 
L 194.192461 263.41304 
L 194.984302 263.346469 
L 195.776142 263.437278 
L 196.567982 263.2237 
L 198.151663 263.117104 
L 200.527184 262.9362 
L 201.319024 262.720739 
L 202.902705 262.73258 
L 205.278226 263.688452 
L 206.861907 263.795916 
L 209.237428 263.776751 
L 210.029268 264.413524 
L 211.612949 264.383352 
L 213.19663 264.537402 
L 214.78031 264.616667 
L 216.363991 265.100043 
L 217.155831 265.612443 
L 219.531353 265.718289 
L 221.115033 265.792563 
L 222.698714 266.058979 
L 225.074235 266.0898 
L 225.866075 266.105803 
L 227.449756 266.961399 
L 231.408958 267.087576 
L 233.784479 266.971858 
L 236.95184 265.784058 
L 237.743681 265.121921 
L 238.535521 262.527926 
L 240.119202 259.479694 
L 241.702882 256.865506 
L 242.494723 255.145486 
L 244.870244 253.254047 
L 246.453925 251.633779 
L 248.037605 250.799283 
L 249.621286 250.50186 
L 251.204967 250.991899 
L 251.996807 251.484511 
L 252.788647 252.209299 
L 253.580488 253.119473 
L 254.372328 252.970009 
L 255.164169 252.543175 
L 255.956009 252.470359 
L 256.747849 252.552037 
L 257.53969 252.490317 
L 258.33153 252.551323 
L 260.707051 253.238314 
L 261.498891 253.091592 
L 265.458093 253.107916 
L 266.249933 253.133871 
L 267.041774 253.000464 
L 267.833614 253.007257 
L 268.625455 251.665095 
L 270.209135 250.939585 
L 271.792816 251.354944 
L 272.584656 251.38394 
L 274.960177 252.142588 
L 275.752018 252.529113 
L 276.543858 253.060709 
L 278.919379 253.873427 
L 280.50306 254.625701 
L 282.086741 255.896041 
L 282.878581 257.361215 
L 283.670421 258.183293 
L 285.254102 258.105543 
L 290.005144 258.10048 
L 294.756186 258.439817 
L 295.548027 258.582343 
L 297.131707 258.660387 
L 298.715388 257.564583 
L 299.507228 256.824029 
L 301.090909 256.096727 
L 301.882749 255.648451 
L 304.258271 254.905275 
L 305.841951 253.776805 
L 307.425632 250.430555 
L 309.801153 247.102815 
L 310.592993 246.378186 
L 311.384834 245.152283 
L 312.968514 243.745923 
L 315.344035 241.404444 
L 316.135876 241.030929 
L 317.719557 239.869138 
L 318.511397 237.897955 
L 319.303237 236.385395 
L 320.095078 236.045079 
L 320.886918 235.150838 
L 321.678758 234.606517 
L 322.470599 233.846451 
L 323.262439 232.775506 
L 324.84612 230.013876 
L 325.63796 229.255871 
L 326.4298 228.794967 
L 327.221641 227.551984 
L 328.805322 223.819341 
L 329.597162 222.360173 
L 330.389002 220.122745 
L 331.180843 218.400462 
L 332.764523 216.850342 
L 334.348204 214.525219 
L 335.140044 214.489045 
L 335.931885 214.92078 
L 337.515565 214.894535 
L 338.307406 213.807563 
L 339.099246 213.689513 
L 340.682927 212.478113 
L 341.474767 212.856413 
L 342.266608 213.423675 
L 343.058448 213.440402 
L 343.850288 213.163331 
L 347.01765 213.380268 
L 347.80949 213.266748 
L 348.60133 212.987922 
L 349.393171 212.87462 
L 350.185011 212.488143 
L 350.976851 210.166869 
L 353.352373 197.798661 
L 354.144213 194.760689 
L 354.936053 192.913128 
L 355.727894 190.121143 
L 357.311574 186.314597 
L 358.103415 183.649372 
L 358.895255 179.353964 
L 362.854457 162.695901 
L 363.646297 159.829239 
L 365.229978 148.826349 
L 366.021818 145.955364 
L 366.813659 140.634113 
L 367.605499 132.294346 
L 369.18918 110.963064 
L 369.98102 103.080336 
L 370.77286 99.029313 
L 371.564701 97.54519 
L 372.356541 97.769519 
L 373.148381 96.950839 
L 373.940222 95.037581 
L 374.732062 94.702261 
L 375.523902 95.653993 
L 376.315743 96.951127 
L 377.899424 100.131328 
L 378.691264 102.446376 
L 379.483104 103.85729 
L 380.274945 104.176465 
L 381.066785 103.772662 
L 381.858625 103.883273 
L 382.650466 103.387545 
L 383.442306 103.472418 
L 384.234146 104.980252 
L 385.817827 114.322502 
L 386.609667 116.988568 
L 387.401508 117.652358 
L 388.193348 117.845509 
L 388.985188 119.158107 
L 389.777029 121.409452 
L 390.568869 121.357966 
L 391.36071 119.603583 
L 392.15255 116.298104 
L 392.94439 114.259473 
L 393.736231 100.550544 
L 394.528071 89.956531 
L 395.319911 83.108833 
L 396.111752 73.366641 
L 396.903592 65.908575 
L 398.487273 53.568 
L 398.487273 53.568 
" style="fill:none;stroke:#1f77b4;stroke-linecap:square;stroke-width:1.5;"/>
   </g>
   <g id="line2d_15">
    <path clip-path="url(#p74eacd54ac)" d="M 88.877694 279.917273 
L 89.669534 279.30191 
L 90.461375 278.238475 
L 92.045055 276.701649 
L 92.836896 275.741322 
L 93.628736 275.194292 
L 94.420576 275.074372 
L 95.212417 275.101914 
L 96.004257 274.640502 
L 96.796098 274.626426 
L 99.171619 273.297303 
L 101.54714 273.253199 
L 103.13082 273.510158 
L 104.714501 273.461734 
L 106.298182 273.095557 
L 107.090022 272.590106 
L 107.881863 271.899992 
L 109.465543 270.000848 
L 110.257384 269.338448 
L 114.216585 268.353045 
L 115.008426 268.078106 
L 115.800266 267.63102 
L 116.592106 267.051317 
L 117.383947 267.381072 
L 118.175787 268.546984 
L 121.343149 272.223378 
L 123.71867 273.079894 
L 124.51051 272.964368 
L 126.094191 273.045225 
L 126.886031 273.957993 
L 127.677871 274.554114 
L 128.469712 275.312398 
L 129.261552 275.894948 
L 130.053392 281.543498 
L 131.637073 286.759378 
L 133.220754 290.869464 
L 134.012594 292.417374 
L 134.804435 293.699168 
L 136.388115 294.721469 
L 137.971796 295.488 
L 138.763636 295.449791 
L 139.555477 295.206251 
L 140.347317 294.660024 
L 141.930998 292.869619 
L 143.514678 292.054594 
L 144.306519 291.320714 
L 145.098359 290.236206 
L 145.8902 289.410829 
L 146.68204 289.290846 
L 148.265721 288.106763 
L 149.057561 286.917453 
L 149.849401 286.296756 
L 150.641242 285.409086 
L 151.433082 285.46317 
L 152.224922 285.348848 
L 153.016763 285.068557 
L 153.808603 284.303802 
L 154.600443 284.162458 
L 156.975965 284.127143 
L 157.767805 283.886923 
L 158.559645 283.481769 
L 159.351486 282.412357 
L 160.935166 281.583424 
L 162.518847 281.326642 
L 164.894368 281.257112 
L 167.269889 281.811395 
L 168.061729 282.971838 
L 169.64541 283.638471 
L 170.437251 283.861691 
L 171.229091 283.782018 
L 172.020931 283.529846 
L 172.812772 282.985027 
L 173.604612 282.771193 
L 174.396452 282.87004 
L 175.188293 282.738209 
L 175.980133 282.19035 
L 178.355654 278.689 
L 179.939335 277.059171 
L 182.314856 273.872438 
L 183.106696 272.475143 
L 183.898537 272.285471 
L 184.690377 271.847312 
L 187.065898 271.429762 
L 189.441419 271.908956 
L 191.0251 271.68593 
L 191.81694 271.667446 
L 192.60878 271.386603 
L 193.400621 270.804463 
L 198.943503 270.645124 
L 200.527184 270.653524 
L 201.319024 270.456145 
L 202.902705 270.230531 
L 203.694545 269.536428 
L 204.486386 269.08329 
L 205.278226 268.36529 
L 206.070067 268.086941 
L 208.445588 268.341359 
L 209.237428 268.399248 
L 210.029268 268.218626 
L 211.612949 268.206586 
L 213.19663 268.481166 
L 215.572151 269.158386 
L 216.363991 269.175764 
L 217.155831 269.036845 
L 217.947672 269.065197 
L 221.115033 269.553667 
L 223.490554 269.497326 
L 225.866075 269.519009 
L 227.449756 269.039063 
L 230.617118 268.922023 
L 232.992639 268.868092 
L 236.95184 269.080172 
L 237.743681 269.438015 
L 238.535521 271.150948 
L 239.327361 271.939041 
L 240.119202 272.498284 
L 241.702882 273.109365 
L 242.494723 273.55656 
L 244.078404 272.976943 
L 246.453925 271.474842 
L 248.037605 269.767812 
L 251.204967 265.072228 
L 252.788647 261.678358 
L 253.580488 259.794455 
L 257.53969 258.264253 
L 258.33153 258.331934 
L 259.12337 257.765617 
L 259.915211 257.406066 
L 260.707051 256.837913 
L 261.498891 257.187997 
L 264.666253 257.813179 
L 265.458093 257.809789 
L 267.041774 257.598856 
L 267.833614 257.770919 
L 268.625455 259.902258 
L 269.417295 260.935952 
L 270.209135 262.193306 
L 272.584656 264.380926 
L 274.168337 265.388161 
L 275.752018 265.929117 
L 277.335698 266.19904 
L 279.71122 266.079984 
L 280.50306 265.977418 
L 282.086741 265.397715 
L 282.878581 264.6881 
L 283.670421 264.307708 
L 285.254102 264.233973 
L 286.837783 263.799175 
L 287.629623 263.679679 
L 289.213304 262.981464 
L 290.796984 262.591525 
L 293.964346 262.276861 
L 297.131707 262.239623 
L 297.923548 262.55072 
L 298.715388 262.677354 
L 299.507228 262.920304 
L 300.299069 262.640326 
L 301.882749 262.725135 
L 304.258271 262.44121 
L 305.841951 262.531331 
L 306.633792 263.166983 
L 307.425632 263.563169 
L 309.009313 263.523285 
L 309.801153 263.31482 
L 310.592993 262.795246 
L 311.384834 262.500996 
L 312.968514 261.473837 
L 315.344035 260.297946 
L 317.719557 258.120358 
L 318.511397 257.953783 
L 319.303237 257.336011 
L 320.095078 255.994458 
L 320.886918 254.99784 
L 321.678758 253.791178 
L 322.470599 253.271029 
L 324.84612 252.395575 
L 325.63796 251.611103 
L 326.4298 250.608224 
L 328.805322 249.647085 
L 329.597162 248.951257 
L 330.389002 248.722808 
L 331.180843 247.962345 
L 332.764523 244.837571 
L 333.556364 243.524172 
L 334.348204 243.053929 
L 335.140044 242.272872 
L 335.931885 240.665974 
L 336.723725 239.520899 
L 337.515565 238.114401 
L 338.307406 236.991174 
L 339.099246 235.56335 
L 340.682927 233.717619 
L 341.474767 232.016406 
L 342.266608 229.829776 
L 343.058448 228.453633 
L 343.850288 227.95357 
L 345.433969 227.174459 
L 347.01765 227.599956 
L 349.393171 227.413708 
L 350.185011 227.446542 
L 350.976851 227.67689 
L 353.352373 231.614295 
L 354.144213 232.702954 
L 354.936053 232.525798 
L 355.727894 232.954926 
L 356.519734 232.84588 
L 357.311574 232.234752 
L 358.103415 232.098222 
L 358.895255 232.814578 
L 359.687095 232.611616 
L 360.478936 231.573901 
L 362.062616 228.681859 
L 363.646297 223.563502 
L 364.438137 222.558567 
L 365.229978 220.976531 
L 366.021818 217.442033 
L 366.813659 216.316003 
L 367.605499 217.562358 
L 368.397339 219.99518 
L 369.18918 221.881433 
L 369.98102 221.227675 
L 370.77286 217.381258 
L 371.564701 212.878122 
L 373.940222 195.579488 
L 374.732062 190.627131 
L 378.691264 161.899193 
L 379.483104 159.636885 
L 380.274945 158.954573 
L 381.066785 159.830859 
L 381.858625 159.608915 
L 382.650466 160.963143 
L 383.442306 163.039174 
L 384.234146 166.168205 
L 385.025987 165.306926 
L 385.817827 163.721925 
L 386.609667 163.163254 
L 387.401508 163.829246 
L 388.193348 164.170391 
L 388.985188 163.749114 
L 389.777029 162.377451 
L 390.568869 162.402758 
L 391.36071 163.246067 
L 392.15255 164.889666 
L 392.94439 165.850071 
L 393.736231 174.412266 
L 394.528071 179.625048 
L 395.319911 179.504896 
L 396.111752 181.698253 
L 396.903592 181.428591 
L 397.695432 179.911588 
L 398.487273 178.074498 
L 398.487273 178.074498 
" style="fill:none;stroke:#ff7f0e;stroke-linecap:square;stroke-width:1.5;"/>
   </g>
   <g id="line2d_16">
    <path clip-path="url(#p74eacd54ac)" d="M 88.877694 273.685153 
L 91.253215 272.603088 
L 93.628736 271.863677 
L 94.420576 271.678267 
L 99.171619 269.691154 
L 101.54714 269.238315 
L 103.922661 268.484089 
L 107.881863 266.469941 
L 108.673703 265.963216 
L 110.257384 265.369989 
L 111.049224 265.284106 
L 111.841064 265.057191 
L 114.216585 264.866596 
L 115.800266 264.610015 
L 116.592106 264.485219 
L 117.383947 264.559074 
L 119.759468 265.353517 
L 121.343149 266.090965 
L 125.30235 267.706208 
L 126.094191 267.961797 
L 126.886031 268.380459 
L 127.677871 268.943855 
L 129.261552 269.792414 
L 130.845233 272.005616 
L 132.428914 274.287272 
L 133.220754 275.36384 
L 134.804435 277.085501 
L 141.930998 282.622645 
L 145.098359 284.369635 
L 145.8902 283.92759 
L 147.47388 283.2582 
L 149.057561 282.447785 
L 150.641242 281.507155 
L 152.224922 280.944867 
L 155.392284 280.366881 
L 157.767805 280.152547 
L 158.559645 279.957667 
L 159.351486 279.611355 
L 160.935166 279.32242 
L 162.518847 279.188567 
L 165.686208 278.55269 
L 167.269889 278.302014 
L 168.85357 277.481301 
L 172.020931 275.431787 
L 176.771973 271.807325 
L 179.147494 270.480934 
L 180.731175 269.454874 
L 183.898537 267.812136 
L 184.690377 267.591062 
L 187.065898 267.421795 
L 189.441419 267.588645 
L 190.233259 267.788572 
L 191.81694 267.892217 
L 194.984302 267.035085 
L 195.776142 267.066232 
L 197.359823 266.881627 
L 200.527184 266.794862 
L 201.319024 266.588442 
L 202.902705 266.481556 
L 204.486386 266.178002 
L 206.070067 265.941537 
L 209.237428 266.087999 
L 210.029268 266.316075 
L 211.612949 266.294969 
L 215.572151 266.989468 
L 217.947672 267.33892 
L 221.906874 267.72448 
L 224.282395 267.781079 
L 226.657916 267.905372 
L 228.241596 268.01688 
L 232.200798 267.981358 
L 233.784479 267.939309 
L 237.743681 267.279968 
L 241.702882 264.987435 
L 242.494723 264.351023 
L 244.870244 262.875039 
L 249.621286 259.004248 
L 251.996807 257.464729 
L 253.580488 256.456964 
L 257.53969 255.377285 
L 258.33153 255.441629 
L 260.707051 255.038113 
L 263.874412 255.359515 
L 265.458093 255.458852 
L 267.041774 255.29966 
L 267.833614 255.389088 
L 271.792816 257.464249 
L 274.168337 258.599586 
L 276.543858 259.588465 
L 279.71122 260.16464 
L 282.086741 260.646878 
L 282.878581 261.024657 
L 283.670421 261.2455 
L 285.254102 261.169758 
L 290.005144 260.427999 
L 293.172506 260.278165 
L 294.756186 260.366663 
L 296.339867 260.438011 
L 297.923548 260.35741 
L 302.67459 259.034531 
L 304.258271 258.673242 
L 305.841951 258.154068 
L 308.217472 256.398721 
L 317.719557 248.994748 
L 319.303237 246.860703 
L 322.470599 243.55874 
L 323.262439 242.867517 
L 325.63796 240.433487 
L 327.221641 238.932504 
L 330.389002 234.422776 
L 333.556364 229.594782 
L 334.348204 228.789574 
L 335.140044 228.380958 
L 337.515565 226.504468 
L 338.307406 225.399368 
L 342.266608 221.626725 
L 343.058448 220.947018 
L 343.850288 220.55845 
L 345.433969 220.227819 
L 347.01765 220.490112 
L 350.185011 219.967342 
L 350.976851 218.92188 
L 353.352373 214.706478 
L 354.936053 212.719463 
L 355.727894 211.538035 
L 356.519734 210.556601 
L 358.103415 207.873797 
L 359.687095 204.285224 
L 361.270776 199.839294 
L 363.646297 191.69637 
L 367.605499 174.928352 
L 370.77286 158.205286 
L 373.148381 148.96632 
L 373.940222 145.308534 
L 375.523902 140.188555 
L 377.899424 133.827502 
L 378.691264 132.172785 
L 379.483104 131.747088 
L 380.274945 131.565519 
L 381.066785 131.801761 
L 381.858625 131.746094 
L 382.650466 132.175344 
L 383.442306 133.255796 
L 384.234146 135.574228 
L 385.025987 137.465995 
L 385.817827 139.022214 
L 386.609667 140.075911 
L 387.401508 140.740802 
L 388.193348 141.00795 
L 389.777029 141.893452 
L 390.568869 141.880362 
L 391.36071 141.424825 
L 392.15255 140.593885 
L 392.94439 140.054772 
L 394.528071 134.79079 
L 396.111752 127.532447 
L 398.487273 115.821249 
L 398.487273 115.821249 
" style="fill:none;stroke:#2ca02c;stroke-linecap:square;stroke-width:1.5;"/>
   </g>
   <g id="line2d_17">
    <path clip-path="url(#p74eacd54ac)" d="M 73.832727 278.221525 
L 74.624568 279.365759 
L 75.416408 277.4608 
L 77.000089 277.414828 
L 78.583769 273.342919 
L 79.37561 273.982633 
L 80.16745 275.085969 
L 80.95929 273.2483 
L 81.751131 274.083591 
L 82.542971 273.291076 
L 83.334812 273.634372 
L 84.126652 270.157236 
L 84.918492 270.169493 
L 85.710333 270.562198 
L 86.502173 269.668166 
L 87.294013 269.617184 
L 88.085854 270.64145 
L 88.877694 270.946828 
L 89.669534 270.467829 
L 90.461375 270.837727 
L 91.253215 272.10122 
L 92.045055 271.913024 
L 92.836896 272.41464 
L 94.420576 269.634727 
L 95.212417 267.196294 
L 96.004257 267.643649 
L 96.796098 266.610188 
L 97.587938 267.438377 
L 98.379778 267.244331 
L 99.963459 267.617524 
L 100.755299 268.214048 
L 101.54714 266.00057 
L 102.33898 265.286987 
L 103.922661 264.580536 
L 104.714501 263.271673 
L 105.506341 264.735924 
L 106.298182 262.788485 
L 107.090022 262.323937 
L 107.881863 262.863664 
L 108.673703 262.280131 
L 109.465543 264.500406 
L 110.257384 264.37746 
L 111.049224 265.478624 
L 111.841064 263.10536 
L 112.632905 265.955322 
L 113.424745 265.908604 
L 114.216585 265.617069 
L 115.008426 265.728256 
L 115.800266 264.208493 
L 116.592106 265.718124 
L 117.383947 267.477666 
L 118.175787 270.088528 
L 118.967627 270.052689 
L 119.759468 270.589933 
L 120.551308 271.372057 
L 121.343149 271.384491 
L 122.134989 269.487325 
L 122.926829 270.271778 
L 123.71867 270.190982 
L 124.51051 268.771851 
L 125.30235 268.339551 
L 126.094191 269.489228 
L 126.886031 273.851873 
L 127.677871 274.373287 
L 128.469712 274.490504 
L 129.261552 274.344592 
L 130.053392 289.737842 
L 130.845233 285.871532 
L 131.637073 288.162388 
L 132.428914 287.397334 
L 133.220754 289.009044 
L 134.012594 287.422169 
L 134.804435 287.152257 
L 135.596275 283.095309 
L 136.388115 283.224938 
L 137.179956 283.229467 
L 137.971796 285.10023 
L 138.763636 281.805012 
L 139.555477 280.445338 
L 140.347317 280.781056 
L 141.139157 280.584445 
L 141.930998 282.374288 
L 142.722838 282.933941 
L 143.514678 284.815942 
L 144.306519 282.122851 
L 145.098359 282.127328 
L 145.8902 280.896926 
L 146.68204 280.166692 
L 147.47388 280.47943 
L 148.265721 279.873704 
L 149.057561 280.324375 
L 149.849401 277.504409 
L 150.641242 278.25742 
L 151.433082 277.333026 
L 152.224922 277.741466 
L 153.016763 279.80278 
L 154.600443 279.604431 
L 155.392284 279.904558 
L 156.184124 279.845962 
L 156.975965 280.99136 
L 157.767805 278.615804 
L 158.559645 279.036334 
L 159.351486 277.889707 
L 160.143326 278.514196 
L 160.935166 279.957281 
L 161.727007 279.881814 
L 162.518847 278.504748 
L 163.310687 276.73814 
L 164.102528 276.668705 
L 164.894368 276.431368 
L 165.686208 275.626146 
L 166.478049 275.222243 
L 167.269889 275.354683 
L 168.061729 270.19973 
L 168.85357 270.930273 
L 169.64541 269.922864 
L 170.437251 269.102115 
L 171.229091 269.438927 
L 172.020931 269.609302 
L 173.604612 268.185465 
L 174.396452 264.043345 
L 175.188293 264.953243 
L 175.980133 266.151149 
L 176.771973 270.303261 
L 177.563814 271.136129 
L 178.355654 270.003438 
L 179.939335 265.074691 
L 180.731175 267.504184 
L 181.523016 267.160236 
L 182.314856 265.714183 
L 183.106696 265.520773 
L 183.898537 265.152863 
L 184.690377 266.50879 
L 185.482217 268.715665 
L 186.274058 268.178961 
L 187.065898 268.183936 
L 187.857738 270.479786 
L 188.649579 269.581597 
L 189.441419 269.949361 
L 191.0251 266.229406 
L 191.81694 266.947874 
L 192.60878 265.58451 
L 193.400621 266.81062 
L 194.192461 263.024615 
L 194.984302 266.337751 
L 196.567982 265.122981 
L 197.359823 265.849345 
L 198.151663 265.622419 
L 198.943503 265.269254 
L 199.735344 265.131376 
L 200.527184 265.138258 
L 201.319024 264.587267 
L 202.110865 267.591597 
L 202.902705 266.633576 
L 203.694545 266.645599 
L 204.486386 267.344715 
L 205.278226 266.926737 
L 206.070067 266.335216 
L 208.445588 267.481152 
L 209.237428 267.233924 
L 210.029268 267.586128 
L 210.821109 265.670537 
L 211.612949 265.942727 
L 212.404789 267.48529 
L 213.19663 267.773335 
L 213.98847 268.208451 
L 214.78031 268.977442 
L 215.572151 268.440831 
L 216.363991 268.10697 
L 217.155831 268.322084 
L 217.947672 267.877123 
L 218.739512 268.550636 
L 219.531353 268.707519 
L 220.323193 268.343192 
L 221.115033 268.633174 
L 221.906874 267.362508 
L 222.698714 267.709498 
L 223.490554 266.90699 
L 224.282395 267.783215 
L 225.074235 267.59761 
L 225.866075 267.848993 
L 226.657916 267.529858 
L 227.449756 267.839899 
L 228.241596 267.818276 
L 229.825277 268.316432 
L 231.408958 268.162047 
L 232.200798 267.97518 
L 232.992639 268.222072 
L 233.784479 267.136146 
L 234.576319 266.351908 
L 235.36816 265.972229 
L 236.16 266.310438 
L 236.95184 265.456062 
L 237.743681 264.319572 
L 238.535521 258.898879 
L 239.327361 259.266081 
L 240.119202 258.415166 
L 240.911042 258.424559 
L 241.702882 256.990974 
L 242.494723 254.801605 
L 243.286563 258.601294 
L 244.078404 257.656137 
L 244.870244 257.955629 
L 245.662084 255.188461 
L 246.453925 254.981772 
L 247.245765 255.721538 
L 248.037605 255.000428 
L 248.829446 255.414109 
L 249.621286 254.358114 
L 250.413126 256.854674 
L 251.204967 256.025777 
L 251.996807 254.963748 
L 252.788647 255.038059 
L 253.580488 254.582275 
L 254.372328 254.328468 
L 255.164169 252.453333 
L 255.956009 254.170116 
L 256.747849 254.884868 
L 257.53969 254.565289 
L 258.33153 256.088479 
L 259.12337 255.482507 
L 259.915211 255.597885 
L 260.707051 255.062364 
L 261.498891 257.222078 
L 262.290732 256.569676 
L 263.082572 257.181934 
L 263.874412 256.34654 
L 264.666253 256.456346 
L 265.458093 255.302628 
L 266.249933 255.514708 
L 267.041774 254.181906 
L 267.833614 256.752302 
L 268.625455 262.92983 
L 269.417295 261.524407 
L 270.209135 263.041712 
L 271.792816 262.004171 
L 272.584656 263.248547 
L 273.376497 262.815686 
L 274.168337 262.181152 
L 275.752018 261.702112 
L 276.543858 262.249364 
L 277.335698 260.566996 
L 278.127539 259.94986 
L 278.919379 259.099828 
L 279.71122 259.22704 
L 280.50306 259.194737 
L 281.2949 258.456094 
L 282.086741 259.267616 
L 282.878581 261.737494 
L 283.670421 261.169164 
L 284.462262 262.691862 
L 285.254102 260.247521 
L 286.045942 260.432892 
L 287.629623 260.050038 
L 288.421463 260.493279 
L 289.213304 259.754577 
L 290.005144 260.026337 
L 290.796984 260.812023 
L 292.380665 261.133442 
L 293.964346 260.020148 
L 294.756186 260.799495 
L 295.548027 260.578737 
L 296.339867 259.270015 
L 297.131707 258.695968 
L 297.923548 257.415713 
L 298.715388 257.008664 
L 299.507228 256.193128 
L 300.299069 256.641745 
L 301.090909 256.750057 
L 301.882749 256.273007 
L 302.67459 257.22908 
L 303.46643 257.022286 
L 304.258271 256.295263 
L 305.050111 255.129276 
L 305.841951 254.268149 
L 306.633792 249.850258 
L 307.425632 248.833432 
L 308.217472 249.170623 
L 309.009313 248.17439 
L 309.801153 248.57707 
L 310.592993 248.357459 
L 311.384834 245.37721 
L 312.176674 247.279471 
L 312.968514 246.35132 
L 313.760355 245.866988 
L 314.552195 244.698841 
L 315.344035 244.877979 
L 316.135876 245.882427 
L 316.927716 243.771842 
L 317.719557 242.8816 
L 318.511397 235.851489 
L 319.303237 235.718977 
L 320.095078 239.476563 
L 320.886918 236.220702 
L 321.678758 236.758312 
L 322.470599 237.048115 
L 323.262439 235.008961 
L 324.054279 232.088386 
L 324.84612 232.000803 
L 325.63796 233.1523 
L 326.4298 233.71962 
L 327.221641 229.99538 
L 328.013481 225.146174 
L 328.805322 224.498803 
L 329.597162 224.317022 
L 330.389002 220.040071 
L 331.180843 220.05052 
L 331.972683 221.3862 
L 332.764523 221.519136 
L 333.556364 217.898097 
L 334.348204 219.747338 
L 335.140044 227.546666 
L 335.931885 227.724937 
L 336.723725 224.744102 
L 337.515565 222.456737 
L 338.307406 214.946113 
L 339.099246 219.550221 
L 339.891086 217.269678 
L 340.682927 216.24821 
L 341.474767 219.923164 
L 342.266608 217.525939 
L 343.058448 216.401226 
L 343.850288 217.374826 
L 344.642129 221.69218 
L 345.433969 220.511028 
L 346.225809 222.205418 
L 347.01765 223.131029 
L 347.80949 219.259447 
L 348.60133 217.606618 
L 349.393171 217.018401 
L 350.185011 216.210903 
L 350.976851 206.637416 
L 351.768692 199.25413 
L 352.560532 197.424159 
L 353.352373 193.939455 
L 354.144213 195.452983 
L 354.936053 199.303046 
L 355.727894 193.641113 
L 356.519734 196.61954 
L 357.311574 194.284633 
L 358.103415 189.508387 
L 358.895255 180.610704 
L 359.687095 181.393884 
L 360.478936 177.355921 
L 361.270776 175.928701 
L 362.062616 168.386304 
L 362.854457 167.615671 
L 363.646297 165.73544 
L 364.438137 151.57568 
L 365.229978 147.150734 
L 366.021818 152.156073 
L 366.813659 142.164603 
L 368.397339 113.737488 
L 369.18918 107.50406 
L 369.98102 110.088124 
L 370.77286 120.328639 
L 371.564701 133.768524 
L 372.356541 139.724195 
L 373.148381 126.273256 
L 373.940222 116.352671 
L 374.732062 127.733942 
L 375.523902 131.871055 
L 376.315743 133.010047 
L 377.107583 129.170493 
L 377.899424 132.269343 
L 378.691264 134.521316 
L 379.483104 157.221498 
L 380.274945 147.944307 
L 381.066785 151.875566 
L 381.858625 151.042745 
L 382.650466 150.7496 
L 383.442306 149.929055 
L 384.234146 160.106131 
L 385.025987 145.339393 
L 385.817827 141.212495 
L 386.609667 141.402587 
L 387.401508 147.066342 
L 388.193348 145.067164 
L 389.777029 125.149501 
L 390.568869 127.472148 
L 391.36071 122.760311 
L 392.15255 116.391249 
L 392.94439 118.388234 
L 393.736231 80.80201 
L 394.528071 80.709001 
L 395.319911 87.542997 
L 396.111752 72.455955 
L 396.903592 74.598289 
L 397.695432 75.851781 
L 398.487273 68.99388 
L 398.487273 68.99388 
" style="fill:none;stroke:#d62728;stroke-linecap:square;stroke-width:1.5;"/>
   </g>
   <g id="patch_3">
    <path d="M 57.6 307.584 
L 57.6 41.472 
" style="fill:none;stroke:#000000;stroke-linecap:square;stroke-linejoin:miter;stroke-width:0.8;"/>
   </g>
   <g id="patch_4">
    <path d="M 414.72 307.584 
L 414.72 41.472 
" style="fill:none;stroke:#000000;stroke-linecap:square;stroke-linejoin:miter;stroke-width:0.8;"/>
   </g>
   <g id="patch_5">
    <path d="M 57.6 307.584 
L 414.72 307.584 
" style="fill:none;stroke:#000000;stroke-linecap:square;stroke-linejoin:miter;stroke-width:0.8;"/>
   </g>
   <g id="patch_6">
    <path d="M 57.6 41.472 
L 414.72 41.472 
" style="fill:none;stroke:#000000;stroke-linecap:square;stroke-linejoin:miter;stroke-width:0.8;"/>
   </g>
   <g id="text_14">
    <!-- Data source: nomics -->
    <g transform="translate(184.91625 35.472)scale(0.1 -0.1)">
     <defs>
      <path d="M 19.671875 64.796875 
L 19.671875 8.109375 
L 31.59375 8.109375 
Q 46.6875 8.109375 53.6875 14.9375 
Q 60.6875 21.78125 60.6875 36.53125 
Q 60.6875 51.171875 53.6875 57.984375 
Q 46.6875 64.796875 31.59375 64.796875 
z
M 9.8125 72.90625 
L 30.078125 72.90625 
Q 51.265625 72.90625 61.171875 64.09375 
Q 71.09375 55.28125 71.09375 36.53125 
Q 71.09375 17.671875 61.125 8.828125 
Q 51.171875 0 30.078125 0 
L 9.8125 0 
z
" id="DejaVuSans-68"/>
      <path d="M 34.28125 27.484375 
Q 23.390625 27.484375 19.1875 25 
Q 14.984375 22.515625 14.984375 16.5 
Q 14.984375 11.71875 18.140625 8.90625 
Q 21.296875 6.109375 26.703125 6.109375 
Q 34.1875 6.109375 38.703125 11.40625 
Q 43.21875 16.703125 43.21875 25.484375 
L 43.21875 27.484375 
z
M 52.203125 31.203125 
L 52.203125 0 
L 43.21875 0 
L 43.21875 8.296875 
Q 40.140625 3.328125 35.546875 0.953125 
Q 30.953125 -1.421875 24.3125 -1.421875 
Q 15.921875 -1.421875 10.953125 3.296875 
Q 6 8.015625 6 15.921875 
Q 6 25.140625 12.171875 29.828125 
Q 18.359375 34.515625 30.609375 34.515625 
L 43.21875 34.515625 
L 43.21875 35.40625 
Q 43.21875 41.609375 39.140625 45 
Q 35.0625 48.390625 27.6875 48.390625 
Q 23 48.390625 18.546875 47.265625 
Q 14.109375 46.140625 10.015625 43.890625 
L 10.015625 52.203125 
Q 14.9375 54.109375 19.578125 55.046875 
Q 24.21875 56 28.609375 56 
Q 40.484375 56 46.34375 49.84375 
Q 52.203125 43.703125 52.203125 31.203125 
z
" id="DejaVuSans-97"/>
      <path d="M 18.3125 70.21875 
L 18.3125 54.6875 
L 36.8125 54.6875 
L 36.8125 47.703125 
L 18.3125 47.703125 
L 18.3125 18.015625 
Q 18.3125 11.328125 20.140625 9.421875 
Q 21.96875 7.515625 27.59375 7.515625 
L 36.8125 7.515625 
L 36.8125 0 
L 27.59375 0 
Q 17.1875 0 13.234375 3.875 
Q 9.28125 7.765625 9.28125 18.015625 
L 9.28125 47.703125 
L 2.6875 47.703125 
L 2.6875 54.6875 
L 9.28125 54.6875 
L 9.28125 70.21875 
z
" id="DejaVuSans-116"/>
      <path id="DejaVuSans-32"/>
      <path d="M 44.28125 53.078125 
L 44.28125 44.578125 
Q 40.484375 46.53125 36.375 47.5 
Q 32.28125 48.484375 27.875 48.484375 
Q 21.1875 48.484375 17.84375 46.4375 
Q 14.5 44.390625 14.5 40.28125 
Q 14.5 37.15625 16.890625 35.375 
Q 19.28125 33.59375 26.515625 31.984375 
L 29.59375 31.296875 
Q 39.15625 29.25 43.1875 25.515625 
Q 47.21875 21.78125 47.21875 15.09375 
Q 47.21875 7.46875 41.1875 3.015625 
Q 35.15625 -1.421875 24.609375 -1.421875 
Q 20.21875 -1.421875 15.453125 -0.5625 
Q 10.6875 0.296875 5.421875 2 
L 5.421875 11.28125 
Q 10.40625 8.6875 15.234375 7.390625 
Q 20.0625 6.109375 24.8125 6.109375 
Q 31.15625 6.109375 34.5625 8.28125 
Q 37.984375 10.453125 37.984375 14.40625 
Q 37.984375 18.0625 35.515625 20.015625 
Q 33.0625 21.96875 24.703125 23.78125 
L 21.578125 24.515625 
Q 13.234375 26.265625 9.515625 29.90625 
Q 5.8125 33.546875 5.8125 39.890625 
Q 5.8125 47.609375 11.28125 51.796875 
Q 16.75 56 26.8125 56 
Q 31.78125 56 36.171875 55.265625 
Q 40.578125 54.546875 44.28125 53.078125 
z
" id="DejaVuSans-115"/>
      <path d="M 30.609375 48.390625 
Q 23.390625 48.390625 19.1875 42.75 
Q 14.984375 37.109375 14.984375 27.296875 
Q 14.984375 17.484375 19.15625 11.84375 
Q 23.34375 6.203125 30.609375 6.203125 
Q 37.796875 6.203125 41.984375 11.859375 
Q 46.1875 17.53125 46.1875 27.296875 
Q 46.1875 37.015625 41.984375 42.703125 
Q 37.796875 48.390625 30.609375 48.390625 
z
M 30.609375 56 
Q 42.328125 56 49.015625 48.375 
Q 55.71875 40.765625 55.71875 27.296875 
Q 55.71875 13.875 49.015625 6.21875 
Q 42.328125 -1.421875 30.609375 -1.421875 
Q 18.84375 -1.421875 12.171875 6.21875 
Q 5.515625 13.875 5.515625 27.296875 
Q 5.515625 40.765625 12.171875 48.375 
Q 18.84375 56 30.609375 56 
z
" id="DejaVuSans-111"/>
      <path d="M 8.5 21.578125 
L 8.5 54.6875 
L 17.484375 54.6875 
L 17.484375 21.921875 
Q 17.484375 14.15625 20.5 10.265625 
Q 23.53125 6.390625 29.59375 6.390625 
Q 36.859375 6.390625 41.078125 11.03125 
Q 45.3125 15.671875 45.3125 23.6875 
L 45.3125 54.6875 
L 54.296875 54.6875 
L 54.296875 0 
L 45.3125 0 
L 45.3125 8.40625 
Q 42.046875 3.421875 37.71875 1 
Q 33.40625 -1.421875 27.6875 -1.421875 
Q 18.265625 -1.421875 13.375 4.4375 
Q 8.5 10.296875 8.5 21.578125 
z
M 31.109375 56 
z
" id="DejaVuSans-117"/>
      <path d="M 41.109375 46.296875 
Q 39.59375 47.171875 37.8125 47.578125 
Q 36.03125 48 33.890625 48 
Q 26.265625 48 22.1875 43.046875 
Q 18.109375 38.09375 18.109375 28.8125 
L 18.109375 0 
L 9.078125 0 
L 9.078125 54.6875 
L 18.109375 54.6875 
L 18.109375 46.1875 
Q 20.953125 51.171875 25.484375 53.578125 
Q 30.03125 56 36.53125 56 
Q 37.453125 56 38.578125 55.875 
Q 39.703125 55.765625 41.0625 55.515625 
z
" id="DejaVuSans-114"/>
      <path d="M 48.78125 52.59375 
L 48.78125 44.1875 
Q 44.96875 46.296875 41.140625 47.34375 
Q 37.3125 48.390625 33.40625 48.390625 
Q 24.65625 48.390625 19.8125 42.84375 
Q 14.984375 37.3125 14.984375 27.296875 
Q 14.984375 17.28125 19.8125 11.734375 
Q 24.65625 6.203125 33.40625 6.203125 
Q 37.3125 6.203125 41.140625 7.25 
Q 44.96875 8.296875 48.78125 10.40625 
L 48.78125 2.09375 
Q 45.015625 0.34375 40.984375 -0.53125 
Q 36.96875 -1.421875 32.421875 -1.421875 
Q 20.0625 -1.421875 12.78125 6.34375 
Q 5.515625 14.109375 5.515625 27.296875 
Q 5.515625 40.671875 12.859375 48.328125 
Q 20.21875 56 33.015625 56 
Q 37.15625 56 41.109375 55.140625 
Q 45.0625 54.296875 48.78125 52.59375 
z
" id="DejaVuSans-99"/>
      <path d="M 56.203125 29.59375 
L 56.203125 25.203125 
L 14.890625 25.203125 
Q 15.484375 15.921875 20.484375 11.0625 
Q 25.484375 6.203125 34.421875 6.203125 
Q 39.59375 6.203125 44.453125 7.46875 
Q 49.3125 8.734375 54.109375 11.28125 
L 54.109375 2.78125 
Q 49.265625 0.734375 44.1875 -0.34375 
Q 39.109375 -1.421875 33.890625 -1.421875 
Q 20.796875 -1.421875 13.15625 6.1875 
Q 5.515625 13.8125 5.515625 26.8125 
Q 5.515625 40.234375 12.765625 48.109375 
Q 20.015625 56 32.328125 56 
Q 43.359375 56 49.78125 48.890625 
Q 56.203125 41.796875 56.203125 29.59375 
z
M 47.21875 32.234375 
Q 47.125 39.59375 43.09375 43.984375 
Q 39.0625 48.390625 32.421875 48.390625 
Q 24.90625 48.390625 20.390625 44.140625 
Q 15.875 39.890625 15.1875 32.171875 
z
" id="DejaVuSans-101"/>
      <path d="M 11.71875 12.40625 
L 22.015625 12.40625 
L 22.015625 0 
L 11.71875 0 
z
M 11.71875 51.703125 
L 22.015625 51.703125 
L 22.015625 39.3125 
L 11.71875 39.3125 
z
" id="DejaVuSans-58"/>
      <path d="M 54.890625 33.015625 
L 54.890625 0 
L 45.90625 0 
L 45.90625 32.71875 
Q 45.90625 40.484375 42.875 44.328125 
Q 39.84375 48.1875 33.796875 48.1875 
Q 26.515625 48.1875 22.3125 43.546875 
Q 18.109375 38.921875 18.109375 30.90625 
L 18.109375 0 
L 9.078125 0 
L 9.078125 54.6875 
L 18.109375 54.6875 
L 18.109375 46.1875 
Q 21.34375 51.125 25.703125 53.5625 
Q 30.078125 56 35.796875 56 
Q 45.21875 56 50.046875 50.171875 
Q 54.890625 44.34375 54.890625 33.015625 
z
" id="DejaVuSans-110"/>
      <path d="M 52 44.1875 
Q 55.375 50.25 60.0625 53.125 
Q 64.75 56 71.09375 56 
Q 79.640625 56 84.28125 50.015625 
Q 88.921875 44.046875 88.921875 33.015625 
L 88.921875 0 
L 79.890625 0 
L 79.890625 32.71875 
Q 79.890625 40.578125 77.09375 44.375 
Q 74.3125 48.1875 68.609375 48.1875 
Q 61.625 48.1875 57.5625 43.546875 
Q 53.515625 38.921875 53.515625 30.90625 
L 53.515625 0 
L 44.484375 0 
L 44.484375 32.71875 
Q 44.484375 40.625 41.703125 44.40625 
Q 38.921875 48.1875 33.109375 48.1875 
Q 26.21875 48.1875 22.15625 43.53125 
Q 18.109375 38.875 18.109375 30.90625 
L 18.109375 0 
L 9.078125 0 
L 9.078125 54.6875 
L 18.109375 54.6875 
L 18.109375 46.1875 
Q 21.1875 51.21875 25.484375 53.609375 
Q 29.78125 56 35.6875 56 
Q 41.65625 56 45.828125 52.96875 
Q 50 49.953125 52 44.1875 
z
" id="DejaVuSans-109"/>
      <path d="M 9.421875 54.6875 
L 18.40625 54.6875 
L 18.40625 0 
L 9.421875 0 
z
M 9.421875 75.984375 
L 18.40625 75.984375 
L 18.40625 64.59375 
L 9.421875 64.59375 
z
" id="DejaVuSans-105"/>
     </defs>
     <use xlink:href="#DejaVuSans-68"/>
     <use x="77.001953" xlink:href="#DejaVuSans-97"/>
     <use x="138.28125" xlink:href="#DejaVuSans-116"/>
     <use x="177.490234" xlink:href="#DejaVuSans-97"/>
     <use x="238.769531" xlink:href="#DejaVuSans-32"/>
     <use x="270.556641" xlink:href="#DejaVuSans-115"/>
     <use x="322.65625" xlink:href="#DejaVuSans-111"/>
     <use x="383.837891" xlink:href="#DejaVuSans-117"/>
     <use x="447.216797" xlink:href="#DejaVuSans-114"/>
     <use x="486.080078" xlink:href="#DejaVuSans-99"/>
     <use x="541.060547" xlink:href="#DejaVuSans-101"/>
     <use x="602.583984" xlink:href="#DejaVuSans-58"/>
     <use x="636.275391" xlink:href="#DejaVuSans-32"/>
     <use x="668.0625" xlink:href="#DejaVuSans-110"/>
     <use x="731.441406" xlink:href="#DejaVuSans-111"/>
     <use x="792.623047" xlink:href="#DejaVuSans-109"/>
     <use x="890.035156" xlink:href="#DejaVuSans-105"/>
     <use x="917.818359" xlink:href="#DejaVuSans-99"/>
     <use x="972.798828" xlink:href="#DejaVuSans-115"/>
    </g>
   </g>
   <g id="legend_1">
    <g id="patch_7">
     <path d="M 64.6 108.1845 
L 155.732812 108.1845 
Q 157.732812 108.1845 157.732812 106.1845 
L 157.732812 48.472 
Q 157.732812 46.472 155.732812 46.472 
L 64.6 46.472 
Q 62.6 46.472 62.6 48.472 
L 62.6 106.1845 
Q 62.6 108.1845 64.6 108.1845 
z
" style="fill:#ffffff;opacity:0.8;stroke:#cccccc;stroke-linejoin:miter;"/>
    </g>
    <g id="line2d_18">
     <path d="M 66.6 54.570438 
L 86.6 54.570438 
" style="fill:none;stroke:#1f77b4;stroke-linecap:square;stroke-width:1.5;"/>
    </g>
    <g id="line2d_19"/>
    <g id="text_15">
     <!-- Upper Band -->
     <g transform="translate(94.6 58.070438)scale(0.1 -0.1)">
      <defs>
       <path d="M 8.6875 72.90625 
L 18.609375 72.90625 
L 18.609375 28.609375 
Q 18.609375 16.890625 22.84375 11.734375 
Q 27.09375 6.59375 36.625 6.59375 
Q 46.09375 6.59375 50.34375 11.734375 
Q 54.59375 16.890625 54.59375 28.609375 
L 54.59375 72.90625 
L 64.5 72.90625 
L 64.5 27.390625 
Q 64.5 13.140625 57.4375 5.859375 
Q 50.390625 -1.421875 36.625 -1.421875 
Q 22.796875 -1.421875 15.734375 5.859375 
Q 8.6875 13.140625 8.6875 27.390625 
z
" id="DejaVuSans-85"/>
       <path d="M 18.109375 8.203125 
L 18.109375 -20.796875 
L 9.078125 -20.796875 
L 9.078125 54.6875 
L 18.109375 54.6875 
L 18.109375 46.390625 
Q 20.953125 51.265625 25.265625 53.625 
Q 29.59375 56 35.59375 56 
Q 45.5625 56 51.78125 48.09375 
Q 58.015625 40.1875 58.015625 27.296875 
Q 58.015625 14.40625 51.78125 6.484375 
Q 45.5625 -1.421875 35.59375 -1.421875 
Q 29.59375 -1.421875 25.265625 0.953125 
Q 20.953125 3.328125 18.109375 8.203125 
z
M 48.6875 27.296875 
Q 48.6875 37.203125 44.609375 42.84375 
Q 40.53125 48.484375 33.40625 48.484375 
Q 26.265625 48.484375 22.1875 42.84375 
Q 18.109375 37.203125 18.109375 27.296875 
Q 18.109375 17.390625 22.1875 11.75 
Q 26.265625 6.109375 33.40625 6.109375 
Q 40.53125 6.109375 44.609375 11.75 
Q 48.6875 17.390625 48.6875 27.296875 
z
" id="DejaVuSans-112"/>
       <path d="M 19.671875 34.8125 
L 19.671875 8.109375 
L 35.5 8.109375 
Q 43.453125 8.109375 47.28125 11.40625 
Q 51.125 14.703125 51.125 21.484375 
Q 51.125 28.328125 47.28125 31.5625 
Q 43.453125 34.8125 35.5 34.8125 
z
M 19.671875 64.796875 
L 19.671875 42.828125 
L 34.28125 42.828125 
Q 41.5 42.828125 45.03125 45.53125 
Q 48.578125 48.25 48.578125 53.8125 
Q 48.578125 59.328125 45.03125 62.0625 
Q 41.5 64.796875 34.28125 64.796875 
z
M 9.8125 72.90625 
L 35.015625 72.90625 
Q 46.296875 72.90625 52.390625 68.21875 
Q 58.5 63.53125 58.5 54.890625 
Q 58.5 48.1875 55.375 44.234375 
Q 52.25 40.28125 46.1875 39.3125 
Q 53.46875 37.75 57.5 32.78125 
Q 61.53125 27.828125 61.53125 20.40625 
Q 61.53125 10.640625 54.890625 5.3125 
Q 48.25 0 35.984375 0 
L 9.8125 0 
z
" id="DejaVuSans-66"/>
       <path d="M 45.40625 46.390625 
L 45.40625 75.984375 
L 54.390625 75.984375 
L 54.390625 0 
L 45.40625 0 
L 45.40625 8.203125 
Q 42.578125 3.328125 38.25 0.953125 
Q 33.9375 -1.421875 27.875 -1.421875 
Q 17.96875 -1.421875 11.734375 6.484375 
Q 5.515625 14.40625 5.515625 27.296875 
Q 5.515625 40.1875 11.734375 48.09375 
Q 17.96875 56 27.875 56 
Q 33.9375 56 38.25 53.625 
Q 42.578125 51.265625 45.40625 46.390625 
z
M 14.796875 27.296875 
Q 14.796875 17.390625 18.875 11.75 
Q 22.953125 6.109375 30.078125 6.109375 
Q 37.203125 6.109375 41.296875 11.75 
Q 45.40625 17.390625 45.40625 27.296875 
Q 45.40625 37.203125 41.296875 42.84375 
Q 37.203125 48.484375 30.078125 48.484375 
Q 22.953125 48.484375 18.875 42.84375 
Q 14.796875 37.203125 14.796875 27.296875 
z
" id="DejaVuSans-100"/>
      </defs>
      <use xlink:href="#DejaVuSans-85"/>
      <use x="73.193359" xlink:href="#DejaVuSans-112"/>
      <use x="136.669922" xlink:href="#DejaVuSans-112"/>
      <use x="200.146484" xlink:href="#DejaVuSans-101"/>
      <use x="261.669922" xlink:href="#DejaVuSans-114"/>
      <use x="302.783203" xlink:href="#DejaVuSans-32"/>
      <use x="334.570312" xlink:href="#DejaVuSans-66"/>
      <use x="403.173828" xlink:href="#DejaVuSans-97"/>
      <use x="464.453125" xlink:href="#DejaVuSans-110"/>
      <use x="527.832031" xlink:href="#DejaVuSans-100"/>
     </g>
    </g>
    <g id="line2d_20">
     <path d="M 66.6 69.248563 
L 86.6 69.248563 
" style="fill:none;stroke:#ff7f0e;stroke-linecap:square;stroke-width:1.5;"/>
    </g>
    <g id="line2d_21"/>
    <g id="text_16">
     <!-- Lower Band -->
     <g transform="translate(94.6 72.748563)scale(0.1 -0.1)">
      <defs>
       <path d="M 9.8125 72.90625 
L 19.671875 72.90625 
L 19.671875 8.296875 
L 55.171875 8.296875 
L 55.171875 0 
L 9.8125 0 
z
" id="DejaVuSans-76"/>
       <path d="M 4.203125 54.6875 
L 13.1875 54.6875 
L 24.421875 12.015625 
L 35.59375 54.6875 
L 46.1875 54.6875 
L 57.421875 12.015625 
L 68.609375 54.6875 
L 77.59375 54.6875 
L 63.28125 0 
L 52.6875 0 
L 40.921875 44.828125 
L 29.109375 0 
L 18.5 0 
z
" id="DejaVuSans-119"/>
      </defs>
      <use xlink:href="#DejaVuSans-76"/>
      <use x="53.962891" xlink:href="#DejaVuSans-111"/>
      <use x="115.144531" xlink:href="#DejaVuSans-119"/>
      <use x="196.931641" xlink:href="#DejaVuSans-101"/>
      <use x="258.455078" xlink:href="#DejaVuSans-114"/>
      <use x="299.568359" xlink:href="#DejaVuSans-32"/>
      <use x="331.355469" xlink:href="#DejaVuSans-66"/>
      <use x="399.958984" xlink:href="#DejaVuSans-97"/>
      <use x="461.238281" xlink:href="#DejaVuSans-110"/>
      <use x="524.617188" xlink:href="#DejaVuSans-100"/>
     </g>
    </g>
    <g id="line2d_22">
     <path d="M 66.6 83.926688 
L 86.6 83.926688 
" style="fill:none;stroke:#2ca02c;stroke-linecap:square;stroke-width:1.5;"/>
    </g>
    <g id="line2d_23"/>
    <g id="text_17">
     <!-- MA -->
     <g transform="translate(94.6 87.426688)scale(0.1 -0.1)">
      <defs>
       <path d="M 9.8125 72.90625 
L 24.515625 72.90625 
L 43.109375 23.296875 
L 61.8125 72.90625 
L 76.515625 72.90625 
L 76.515625 0 
L 66.890625 0 
L 66.890625 64.015625 
L 48.09375 14.015625 
L 38.1875 14.015625 
L 19.390625 64.015625 
L 19.390625 0 
L 9.8125 0 
z
" id="DejaVuSans-77"/>
       <path d="M 34.1875 63.1875 
L 20.796875 26.90625 
L 47.609375 26.90625 
z
M 28.609375 72.90625 
L 39.796875 72.90625 
L 67.578125 0 
L 57.328125 0 
L 50.6875 18.703125 
L 17.828125 18.703125 
L 11.1875 0 
L 0.78125 0 
z
" id="DejaVuSans-65"/>
      </defs>
      <use xlink:href="#DejaVuSans-77"/>
      <use x="86.279297" xlink:href="#DejaVuSans-65"/>
     </g>
    </g>
    <g id="line2d_24">
     <path d="M 66.6 98.604813 
L 86.6 98.604813 
" style="fill:none;stroke:#d62728;stroke-linecap:square;stroke-width:1.5;"/>
    </g>
    <g id="line2d_25"/>
    <g id="text_18">
     <!-- BTC-USD -->
     <g transform="translate(94.6 102.104813)scale(0.1 -0.1)">
      <defs>
       <path d="M -0.296875 72.90625 
L 61.375 72.90625 
L 61.375 64.59375 
L 35.5 64.59375 
L 35.5 0 
L 25.59375 0 
L 25.59375 64.59375 
L -0.296875 64.59375 
z
" id="DejaVuSans-84"/>
       <path d="M 64.40625 67.28125 
L 64.40625 56.890625 
Q 59.421875 61.53125 53.78125 63.8125 
Q 48.140625 66.109375 41.796875 66.109375 
Q 29.296875 66.109375 22.65625 58.46875 
Q 16.015625 50.828125 16.015625 36.375 
Q 16.015625 21.96875 22.65625 14.328125 
Q 29.296875 6.6875 41.796875 6.6875 
Q 48.140625 6.6875 53.78125 8.984375 
Q 59.421875 11.28125 64.40625 15.921875 
L 64.40625 5.609375 
Q 59.234375 2.09375 53.4375 0.328125 
Q 47.65625 -1.421875 41.21875 -1.421875 
Q 24.65625 -1.421875 15.125 8.703125 
Q 5.609375 18.84375 5.609375 36.375 
Q 5.609375 53.953125 15.125 64.078125 
Q 24.65625 74.21875 41.21875 74.21875 
Q 47.75 74.21875 53.53125 72.484375 
Q 59.328125 70.75 64.40625 67.28125 
z
" id="DejaVuSans-67"/>
       <path d="M 53.515625 70.515625 
L 53.515625 60.890625 
Q 47.90625 63.578125 42.921875 64.890625 
Q 37.9375 66.21875 33.296875 66.21875 
Q 25.25 66.21875 20.875 63.09375 
Q 16.5 59.96875 16.5 54.203125 
Q 16.5 49.359375 19.40625 46.890625 
Q 22.3125 44.4375 30.421875 42.921875 
L 36.375 41.703125 
Q 47.40625 39.59375 52.65625 34.296875 
Q 57.90625 29 57.90625 20.125 
Q 57.90625 9.515625 50.796875 4.046875 
Q 43.703125 -1.421875 29.984375 -1.421875 
Q 24.8125 -1.421875 18.96875 -0.25 
Q 13.140625 0.921875 6.890625 3.21875 
L 6.890625 13.375 
Q 12.890625 10.015625 18.65625 8.296875 
Q 24.421875 6.59375 29.984375 6.59375 
Q 38.421875 6.59375 43.015625 9.90625 
Q 47.609375 13.234375 47.609375 19.390625 
Q 47.609375 24.75 44.3125 27.78125 
Q 41.015625 30.8125 33.5 32.328125 
L 27.484375 33.5 
Q 16.453125 35.6875 11.515625 40.375 
Q 6.59375 45.0625 6.59375 53.421875 
Q 6.59375 63.09375 13.40625 68.65625 
Q 20.21875 74.21875 32.171875 74.21875 
Q 37.3125 74.21875 42.625 73.28125 
Q 47.953125 72.359375 53.515625 70.515625 
z
" id="DejaVuSans-83"/>
      </defs>
      <use xlink:href="#DejaVuSans-66"/>
      <use x="68.603516" xlink:href="#DejaVuSans-84"/>
      <use x="123.8125" xlink:href="#DejaVuSans-67"/>
      <use x="193.636719" xlink:href="#DejaVuSans-45"/>
      <use x="229.720703" xlink:href="#DejaVuSans-85"/>
      <use x="302.914062" xlink:href="#DejaVuSans-83"/>
      <use x="366.390625" xlink:href="#DejaVuSans-68"/>
     </g>
    </g>
   </g>
  </g>
  <g id="text_19">
   <!-- Bollinger Band -->
   <g transform="translate(171.90625 19.0695)scale(0.16 -0.16)">
    <defs>
     <path d="M 9.421875 75.984375 
L 18.40625 75.984375 
L 18.40625 0 
L 9.421875 0 
z
" id="DejaVuSans-108"/>
     <path d="M 45.40625 27.984375 
Q 45.40625 37.75 41.375 43.109375 
Q 37.359375 48.484375 30.078125 48.484375 
Q 22.859375 48.484375 18.828125 43.109375 
Q 14.796875 37.75 14.796875 27.984375 
Q 14.796875 18.265625 18.828125 12.890625 
Q 22.859375 7.515625 30.078125 7.515625 
Q 37.359375 7.515625 41.375 12.890625 
Q 45.40625 18.265625 45.40625 27.984375 
z
M 54.390625 6.78125 
Q 54.390625 -7.171875 48.1875 -13.984375 
Q 42 -20.796875 29.203125 -20.796875 
Q 24.46875 -20.796875 20.265625 -20.09375 
Q 16.0625 -19.390625 12.109375 -17.921875 
L 12.109375 -9.1875 
Q 16.0625 -11.328125 19.921875 -12.34375 
Q 23.78125 -13.375 27.78125 -13.375 
Q 36.625 -13.375 41.015625 -8.765625 
Q 45.40625 -4.15625 45.40625 5.171875 
L 45.40625 9.625 
Q 42.625 4.78125 38.28125 2.390625 
Q 33.9375 0 27.875 0 
Q 17.828125 0 11.671875 7.65625 
Q 5.515625 15.328125 5.515625 27.984375 
Q 5.515625 40.671875 11.671875 48.328125 
Q 17.828125 56 27.875 56 
Q 33.9375 56 38.28125 53.609375 
Q 42.625 51.21875 45.40625 46.390625 
L 45.40625 54.6875 
L 54.390625 54.6875 
z
" id="DejaVuSans-103"/>
    </defs>
    <use xlink:href="#DejaVuSans-66"/>
    <use x="68.603516" xlink:href="#DejaVuSans-111"/>
    <use x="129.785156" xlink:href="#DejaVuSans-108"/>
    <use x="157.568359" xlink:href="#DejaVuSans-108"/>
    <use x="185.351562" xlink:href="#DejaVuSans-105"/>
    <use x="213.134766" xlink:href="#DejaVuSans-110"/>
    <use x="276.513672" xlink:href="#DejaVuSans-103"/>
    <use x="339.990234" xlink:href="#DejaVuSans-101"/>
    <use x="401.513672" xlink:href="#DejaVuSans-114"/>
    <use x="442.626953" xlink:href="#DejaVuSans-32"/>
    <use x="474.414062" xlink:href="#DejaVuSans-66"/>
    <use x="543.017578" xlink:href="#DejaVuSans-97"/>
    <use x="604.296875" xlink:href="#DejaVuSans-110"/>
    <use x="667.675781" xlink:href="#DejaVuSans-100"/>
   </g>
  </g>
 </g>
 <defs>
  <clipPath id="p74eacd54ac">
   <rect height="266.112" width="357.12" x="57.6" y="41.472"/>
  </clipPath>
 </defs>
</svg>
