<?xml version="1.0" encoding="utf-8" standalone="no"?>
<!DOCTYPE svg PUBLIC "-//W3C//DTD SVG 1.1//EN"
  "http://www.w3.org/Graphics/SVG/1.1/DTD/svg11.dtd">
<!-- Created with matplotlib (https://matplotlib.org/) -->
<svg height="345.6pt" version="1.1" viewBox="0 0 460.8 345.6" width="460.8pt" xmlns="http://www.w3.org/2000/svg" xmlns:xlink="http://www.w3.org/1999/xlink">
 <metadata>
  <rdf:RDF xmlns:cc="http://creativecommons.org/ns#" xmlns:dc="http://purl.org/dc/elements/1.1/" xmlns:rdf="http://www.w3.org/1999/02/22-rdf-syntax-ns#">
   <cc:Work>
    <dc:type rdf:resource="http://purl.org/dc/dcmitype/StillImage"/>
    <dc:date>2021-03-14T19:38:57.531439</dc:date>
    <dc:format>image/svg+xml</dc:format>
    <dc:creator>
     <cc:Agent>
      <dc:title>Matplotlib v3.3.2, https://matplotlib.org/</dc:title>
     </cc:Agent>
    </dc:creator>
   </cc:Work>
  </rdf:RDF>
 </metadata>
 <defs>
  <style type="text/css">*{stroke-linecap:butt;stroke-linejoin:round;}</style>
 </defs>
 <g id="figure_1">
  <g id="patch_1">
   <path d="M 0 345.6 
L 460.8 345.6 
L 460.8 0 
L 0 0 
z
" style="fill:#ffffff;"/>
  </g>
  <g id="axes_1">
   <g id="patch_2">
    <path d="M 57.6 307.584 
L 414.72 307.584 
L 414.72 41.472 
L 57.6 41.472 
z
" style="fill:#ffffff;"/>
   </g>
   <g id="PolyCollection_1">
    <defs>
     <path d="M 87.948142 -63.224281 
L 87.948142 -73.675832 
L 88.691059 -73.801437 
L 89.433975 -73.619369 
L 90.176892 -73.462335 
L 90.919809 -73.230619 
L 91.662725 -72.844706 
L 92.405642 -72.750362 
L 93.148558 -72.961353 
L 93.891475 -73.566857 
L 94.634392 -73.800012 
L 95.377308 -74.355493 
L 96.120225 -74.557433 
L 96.863141 -74.793904 
L 97.606058 -74.851631 
L 98.348974 -75.040116 
L 99.091891 -75.147585 
L 99.834808 -75.55159 
L 100.577724 -76.025386 
L 101.320641 -76.493583 
L 102.063557 -76.969682 
L 102.806474 -77.599114 
L 103.54939 -77.8928 
L 104.292307 -78.444588 
L 105.035224 -78.831519 
L 105.77814 -78.997337 
L 106.521057 -79.025123 
L 107.263973 -78.791696 
L 108.00689 -78.672845 
L 108.749807 -78.666908 
L 109.492723 -78.811629 
L 110.23564 -78.804124 
L 110.978556 -78.75321 
L 111.721473 -78.708517 
L 112.464389 -78.629167 
L 113.207306 -78.547656 
L 113.950223 -78.283288 
L 114.693139 -78.4337 
L 115.436056 -79.003106 
L 116.178972 -79.341346 
L 116.921889 -79.604045 
L 117.664805 -79.734074 
L 118.407722 -79.884038 
L 119.150639 -79.565028 
L 119.893555 -79.147683 
L 120.636472 -78.7413 
L 121.379388 -78.091562 
L 122.122305 -77.785596 
L 122.865222 -77.420723 
L 123.608138 -77.491025 
L 124.351055 -77.049126 
L 125.093971 -77.002399 
L 125.836888 -76.800745 
L 126.579804 -79.463518 
L 127.322721 -79.993247 
L 128.065638 -80.177998 
L 128.808554 -80.033662 
L 129.551471 -79.992867 
L 130.294387 -79.846777 
L 131.037304 -79.478313 
L 131.780221 -78.872819 
L 132.523137 -78.286424 
L 133.266054 -77.623953 
L 134.00897 -76.621411 
L 134.751887 -75.620642 
L 135.494803 -74.572631 
L 136.23772 -73.101197 
L 136.980637 -71.325732 
L 137.723553 -69.591532 
L 138.46647 -68.49758 
L 139.209386 -67.313492 
L 139.952303 -66.193106 
L 140.695219 -64.727964 
L 141.438136 -64.785373 
L 142.181053 -65.154072 
L 142.923969 -65.225453 
L 143.666886 -65.379353 
L 144.409802 -65.097598 
L 145.152719 -65.302967 
L 145.895636 -65.433084 
L 146.638552 -65.875823 
L 147.381469 -66.226369 
L 148.124385 -66.268474 
L 148.867302 -65.992216 
L 149.610218 -66.153215 
L 150.353135 -66.152601 
L 151.096052 -66.189066 
L 151.838968 -66.190747 
L 152.581885 -66.288927 
L 153.324801 -66.263804 
L 154.067718 -65.868218 
L 154.810634 -65.907132 
L 155.553551 -65.75107 
L 156.296468 -65.704718 
L 157.039384 -65.75296 
L 157.782301 -66.09763 
L 158.525217 -66.357486 
L 159.268134 -66.637285 
L 160.011051 -66.853452 
L 160.753967 -67.090311 
L 161.496884 -67.363869 
L 162.2398 -68.243724 
L 162.982717 -69.586902 
L 163.725633 -70.651795 
L 164.46855 -71.691013 
L 165.211467 -72.427724 
L 165.954383 -73.047437 
L 166.6973 -73.574374 
L 167.440216 -74.393389 
L 168.183133 -75.188569 
L 168.92605 -76.471167 
L 169.668966 -77.276293 
L 170.411883 -77.101642 
L 171.154799 -76.919854 
L 171.897716 -76.722078 
L 172.640632 -76.791877 
L 173.383549 -77.034873 
L 174.126466 -77.149232 
L 174.869382 -77.081141 
L 175.612299 -77.104841 
L 176.355215 -76.84161 
L 177.098132 -76.957903 
L 177.841048 -77.195859 
L 178.583965 -77.190655 
L 179.326882 -77.174671 
L 180.069798 -77.133027 
L 180.812715 -77.073917 
L 181.555631 -77.115838 
L 182.298548 -77.143948 
L 183.041465 -77.122412 
L 183.784381 -76.690368 
L 184.527298 -76.514318 
L 185.270214 -76.399405 
L 186.013131 -76.443606 
L 186.756047 -76.382872 
L 187.498964 -76.914916 
L 188.241881 -76.919951 
L 188.984797 -76.921994 
L 189.727714 -77.10312 
L 190.47063 -77.048596 
L 191.213547 -77.041804 
L 191.956463 -77.004797 
L 192.69938 -76.944702 
L 193.442297 -77.075785 
L 194.185213 -77.224343 
L 194.92813 -77.2275 
L 195.671046 -77.221152 
L 196.413963 -76.970996 
L 197.15688 -76.796651 
L 197.899796 -76.541503 
L 198.642713 -76.459935 
L 199.385629 -76.460055 
L 200.128546 -76.503226 
L 200.871462 -76.522785 
L 201.614379 -76.524172 
L 202.357296 -76.006968 
L 203.100212 -76.005933 
L 203.843129 -76.002022 
L 204.586045 -75.81829 
L 205.328962 -75.805462 
L 206.071879 -75.775036 
L 206.814795 -75.723946 
L 207.557712 -75.615578 
L 208.300628 -75.39774 
L 209.043545 -75.042713 
L 209.786461 -74.964585 
L 210.529378 -74.920435 
L 211.272295 -74.870658 
L 212.015211 -74.882587 
L 212.758128 -74.757961 
L 213.501044 -74.645397 
L 214.243961 -74.551293 
L 214.986877 -74.615318 
L 215.729794 -74.583198 
L 216.472711 -74.556951 
L 217.215627 -74.429024 
L 217.958544 -74.140824 
L 218.70146 -73.877372 
L 219.444377 -73.849018 
L 220.187294 -73.849864 
L 220.93021 -73.848628 
L 221.673127 -73.794967 
L 222.416043 -73.787719 
L 223.15896 -73.790232 
L 223.901876 -73.796976 
L 224.644793 -73.891319 
L 225.38771 -74.139126 
L 226.130626 -74.368005 
L 226.873543 -74.611566 
L 227.616459 -74.962948 
L 228.359376 -76.106934 
L 229.102292 -77.971178 
L 229.845209 -79.272183 
L 230.588126 -80.405936 
L 231.331042 -81.327065 
L 232.073959 -82.441414 
L 232.816875 -83.337026 
L 233.559792 -83.978885 
L 234.302709 -84.607259 
L 235.045625 -85.060816 
L 235.788542 -85.857078 
L 236.531458 -86.514381 
L 237.274375 -86.822452 
L 238.017291 -87.062121 
L 238.760208 -87.392315 
L 239.503125 -87.48252 
L 240.246041 -87.235415 
L 240.988958 -86.921707 
L 241.731874 -86.494075 
L 242.474791 -85.875749 
L 243.217708 -85.594916 
L 243.960624 -85.690266 
L 244.703541 -86.148039 
L 245.446457 -86.194321 
L 246.189374 -86.120574 
L 246.93229 -86.099807 
L 247.675207 -86.064186 
L 248.418124 -85.924397 
L 249.16104 -85.835874 
L 249.903957 -85.731084 
L 250.646873 -85.73828 
L 251.38979 -85.78261 
L 252.132706 -85.792448 
L 252.875623 -85.790294 
L 253.61854 -85.627256 
L 254.361456 -85.573355 
L 255.104373 -85.662012 
L 255.847289 -85.697216 
L 256.590206 -85.744884 
L 257.333123 -86.625975 
L 258.076039 -86.921013 
L 258.818956 -87.323236 
L 259.561872 -87.122903 
L 260.304789 -87.005793 
L 261.047705 -86.984685 
L 261.790622 -86.872755 
L 262.533539 -86.645002 
L 263.276455 -86.393804 
L 264.019372 -86.022785 
L 264.762288 -85.816332 
L 265.505205 -85.567114 
L 266.248121 -85.451468 
L 266.991038 -85.191062 
L 267.733955 -84.890787 
L 268.476871 -84.496414 
L 269.219788 -83.971107 
L 269.962704 -82.92852 
L 270.705621 -81.885857 
L 271.448538 -81.347398 
L 272.191454 -81.400987 
L 272.934371 -81.476203 
L 273.677287 -81.476473 
L 274.420204 -81.471788 
L 275.16312 -81.551561 
L 275.906037 -81.377766 
L 276.648954 -81.349036 
L 277.39187 -81.3011 
L 278.134787 -81.270225 
L 278.877703 -81.165173 
L 279.62062 -81.163821 
L 280.363537 -81.137691 
L 281.106453 -80.943218 
L 281.84937 -80.812955 
L 282.592286 -80.783828 
L 283.335203 -80.801019 
L 284.078119 -81.287814 
L 284.821036 -81.81421 
L 285.563953 -82.438929 
L 286.306869 -82.70482 
L 287.049786 -83.042019 
L 287.792702 -83.407478 
L 288.535619 -83.58678 
L 289.278535 -83.77346 
L 290.021452 -84.044428 
L 290.764369 -84.479151 
L 291.507285 -84.997479 
L 292.250202 -86.465418 
L 292.993118 -87.793592 
L 293.736035 -88.780347 
L 294.478952 -89.798181 
L 295.221868 -90.56624 
L 295.964785 -91.138063 
L 296.707701 -92.107814 
L 297.450618 -92.638469 
L 298.193534 -93.240643 
L 298.936451 -93.873252 
L 299.679368 -94.586854 
L 300.422284 -95.184491 
L 301.165201 -95.489322 
L 301.908117 -96.001232 
L 302.651034 -96.486833 
L 303.39395 -98.178824 
L 304.136867 -99.443592 
L 304.879784 -99.731616 
L 305.6227 -100.489982 
L 306.365617 -100.911587 
L 307.108533 -101.54946 
L 307.85145 -102.428918 
L 308.594367 -103.67301 
L 309.337283 -104.759243 
L 310.0802 -105.384227 
L 310.823116 -105.760846 
L 311.566033 -106.7958 
L 312.308949 -108.425705 
L 313.051866 -109.876074 
L 313.794783 -111.067847 
L 314.537699 -112.923659 
L 315.280616 -114.374476 
L 316.023532 -115.083606 
L 316.766449 -115.684942 
L 317.509366 -116.72384 
L 318.252282 -117.666712 
L 318.995199 -117.696672 
L 319.738115 -117.34503 
L 320.481032 -117.350191 
L 321.223948 -117.350768 
L 321.966865 -118.275262 
L 322.709782 -118.378834 
L 323.452698 -118.892805 
L 324.195615 -119.407845 
L 324.938531 -119.069555 
L 325.681448 -118.586257 
L 326.424364 -118.575207 
L 327.167281 -118.797087 
L 327.910198 -118.735186 
L 328.653114 -118.688251 
L 329.396031 -118.643437 
L 330.138947 -118.601402 
L 330.881864 -118.688445 
L 331.624781 -118.927901 
L 332.367697 -118.991702 
L 333.110614 -119.324717 
L 333.85353 -121.288872 
L 334.596447 -124.826886 
L 335.339363 -128.06664 
L 336.08228 -131.572013 
L 336.825197 -134.011004 
L 337.568113 -135.511919 
L 338.31103 -137.776278 
L 339.053946 -139.27599 
L 339.796863 -140.886143 
L 340.539779 -143.125979 
L 341.282696 -146.706881 
L 342.025613 -149.495079 
L 342.768529 -152.278142 
L 343.511446 -154.834564 
L 344.254362 -158.097293 
L 344.997279 -160.473518 
L 345.740196 -162.875375 
L 346.483112 -167.587559 
L 347.226029 -172.085477 
L 347.968945 -174.460912 
L 348.711862 -178.923876 
L 349.454778 -185.959674 
L 350.197695 -194.735834 
L 350.940612 -203.232638 
L 351.683528 -209.693788 
L 352.426445 -212.975957 
L 353.169361 -214.098566 
L 353.912278 -213.724515 
L 354.655195 -214.582207 
L 355.398111 -216.258322 
L 356.141028 -216.529445 
L 356.883944 -215.743141 
L 357.626861 -214.676819 
L 358.369777 -213.371369 
L 359.112694 -212.123031 
L 359.855611 -210.185671 
L 360.598527 -209.160557 
L 361.341444 -208.875618 
L 362.08436 -209.202255 
L 362.827277 -209.087001 
L 363.570193 -209.514994 
L 364.31311 -209.372486 
L 365.056027 -208.196946 
L 365.798943 -204.538618 
L 366.54186 -200.752373 
L 367.284776 -198.67704 
L 368.027693 -198.211498 
L 368.77061 -198.150472 
L 369.513526 -196.955227 
L 370.256443 -195.36385 
L 370.999359 -195.536189 
L 371.742276 -197.414511 
L 372.485192 -200.21413 
L 373.228109 -201.937339 
L 373.971026 -213.492471 
L 374.713942 -222.499007 
L 375.456859 -227.979942 
L 376.199775 -236.112176 
L 376.942692 -242.167789 
L 377.685608 -247.086305 
L 378.428525 -252.309586 
L 379.171442 -256.077353 
L 379.914358 -258.953226 
L 380.657275 -264.532987 
L 381.400191 -268.752547 
L 382.143108 -275.802085 
L 382.886025 -280.580779 
L 383.628941 -285.297563 
L 384.371858 -286.765666 
L 385.114774 -285.731042 
L 385.857691 -283.696553 
L 386.600607 -281.036951 
L 387.343524 -278.289245 
L 388.086441 -274.293981 
L 388.829357 -274.56441 
L 389.572274 -274.652067 
L 390.31519 -274.038818 
L 391.058107 -274.33391 
L 391.801024 -274.278689 
L 392.54394 -274.192209 
L 393.286857 -274.201306 
L 394.029773 -274.55314 
L 394.77269 -275.413752 
L 395.515606 -277.090936 
L 396.258523 -279.610953 
L 397.00144 -281.352922 
L 397.744356 -282.503773 
L 398.487273 -286.574207 
L 398.487273 -212.83146 
L 398.487273 -212.83146 
L 397.744356 -215.325427 
L 397.00144 -215.905003 
L 396.258523 -216.844896 
L 395.515606 -217.546864 
L 394.77269 -218.042711 
L 394.029773 -217.552423 
L 393.286857 -216.61898 
L 392.54394 -216.521204 
L 391.801024 -215.773814 
L 391.058107 -215.316501 
L 390.31519 -214.593452 
L 389.572274 -212.444182 
L 388.829357 -211.218962 
L 388.086441 -211.986214 
L 387.343524 -204.905159 
L 386.600607 -199.183954 
L 385.857691 -192.818832 
L 385.114774 -185.414724 
L 384.371858 -179.656572 
L 383.628941 -173.295806 
L 382.886025 -167.947977 
L 382.143108 -163.137594 
L 381.400191 -161.090735 
L 380.657275 -158.020411 
L 379.914358 -155.72157 
L 379.171442 -150.696494 
L 378.428525 -147.971884 
L 377.685608 -146.297578 
L 376.942692 -144.934824 
L 376.199775 -144.545257 
L 375.456859 -146.366183 
L 374.713942 -145.943785 
L 373.971026 -150.321179 
L 373.228109 -157.451302 
L 372.485192 -158.245721 
L 371.742276 -159.603182 
L 370.999359 -160.52252 
L 370.256443 -160.604465 
L 369.513526 -159.624937 
L 368.77061 -159.207767 
L 368.027693 -159.364115 
L 367.284776 -159.881308 
L 366.54186 -159.434686 
L 365.798943 -158.160131 
L 365.056027 -157.532696 
L 364.31311 -160.168669 
L 363.570193 -161.840744 
L 362.827277 -163.018243 
L 362.08436 -162.785235 
L 361.341444 -163.502244 
L 360.598527 -162.871815 
L 359.855611 -161.237411 
L 359.112694 -156.539652 
L 358.369777 -152.325088 
L 357.626861 -147.101656 
L 356.883944 -142.327869 
L 356.141028 -137.422314 
L 355.398111 -133.345427 
L 354.655195 -128.944207 
L 353.912278 -124.054796 
L 353.169361 -119.119292 
L 352.426445 -115.337218 
L 351.683528 -112.102768 
L 350.940612 -111.501678 
L 350.197695 -112.930959 
L 349.454778 -114.824521 
L 348.711862 -115.958005 
L 347.968945 -115.078591 
L 347.226029 -112.158878 
L 346.483112 -110.862275 
L 345.740196 -110.086966 
L 344.997279 -108.032737 
L 344.254362 -105.811457 
L 343.511446 -104.597294 
L 342.768529 -103.447556 
L 342.025613 -102.558464 
L 341.282696 -102.372118 
L 340.539779 -102.980009 
L 339.796863 -102.882505 
L 339.053946 -102.356479 
L 338.31103 -102.264766 
L 337.568113 -102.595581 
L 336.825197 -102.444305 
L 336.08228 -103.303598 
L 335.339363 -104.434198 
L 334.596447 -105.401704 
L 333.85353 -106.557692 
L 333.110614 -106.766755 
L 332.367697 -106.796119 
L 331.624781 -106.812076 
L 330.881864 -106.720069 
L 330.138947 -106.643895 
L 329.396031 -106.878874 
L 328.653114 -107.010737 
L 327.910198 -106.652637 
L 327.167281 -106.364458 
L 326.424364 -105.950793 
L 325.681448 -104.816908 
L 324.938531 -102.990271 
L 324.195615 -101.56469 
L 323.452698 -100.765769 
L 322.709782 -100.047789 
L 321.966865 -98.850568 
L 321.223948 -97.924246 
L 320.481032 -96.719623 
L 319.738115 -95.777825 
L 318.995199 -94.452329 
L 318.252282 -93.811192 
L 317.509366 -93.435863 
L 316.766449 -92.367967 
L 316.023532 -91.136902 
L 315.280616 -89.800796 
L 314.537699 -89.173422 
L 313.794783 -88.974716 
L 313.051866 -88.377372 
L 312.308949 -88.006062 
L 311.566033 -87.782949 
L 310.823116 -87.519979 
L 310.0802 -86.675082 
L 309.337283 -86.021155 
L 308.594367 -85.758317 
L 307.85145 -85.586952 
L 307.108533 -85.321451 
L 306.365617 -84.90562 
L 305.6227 -83.8903 
L 304.879784 -83.07738 
L 304.136867 -81.964241 
L 303.39395 -81.452132 
L 302.651034 -81.346634 
L 301.908117 -80.716909 
L 301.165201 -80.133859 
L 300.422284 -79.539637 
L 299.679368 -79.203239 
L 298.936451 -78.897681 
L 298.193534 -78.577462 
L 297.450618 -78.170444 
L 296.707701 -77.699239 
L 295.964785 -77.40848 
L 295.221868 -76.936604 
L 294.478952 -76.743339 
L 293.736035 -76.722426 
L 292.993118 -76.7047 
L 292.250202 -77.013447 
L 291.507285 -77.561217 
L 290.764369 -77.581998 
L 290.021452 -77.597986 
L 289.278535 -77.593563 
L 288.535619 -77.520152 
L 287.792702 -77.453482 
L 287.049786 -77.489825 
L 286.306869 -77.507828 
L 285.563953 -77.279942 
L 284.821036 -77.477616 
L 284.078119 -77.645626 
L 283.335203 -77.942237 
L 282.592286 -77.953257 
L 281.84937 -77.939433 
L 281.106453 -77.931875 
L 280.363537 -77.924291 
L 279.62062 -77.928948 
L 278.877703 -77.935887 
L 278.134787 -77.728933 
L 277.39187 -77.642902 
L 276.648954 -77.491337 
L 275.906037 -77.293909 
L 275.16312 -76.811922 
L 274.420204 -76.661542 
L 273.677287 -76.409129 
L 272.934371 -76.143637 
L 272.191454 -76.096901 
L 271.448538 -75.990301 
L 270.705621 -75.891042 
L 269.962704 -75.380941 
L 269.219788 -74.943971 
L 268.476871 -74.766311 
L 267.733955 -74.62805 
L 266.991038 -74.572512 
L 266.248121 -74.541682 
L 265.505205 -74.539215 
L 264.762288 -74.555035 
L 264.019372 -74.642726 
L 263.276455 -74.874352 
L 262.533539 -75.118064 
L 261.790622 -75.435317 
L 261.047705 -75.84651 
L 260.304789 -76.584064 
L 259.561872 -77.141603 
L 258.818956 -77.852378 
L 258.076039 -78.989956 
L 257.333123 -79.903595 
L 256.590206 -81.459804 
L 255.847289 -81.699776 
L 255.104373 -81.63786 
L 254.361456 -81.464477 
L 253.61854 -81.475486 
L 252.875623 -81.461231 
L 252.132706 -81.522842 
L 251.38979 -81.569014 
L 250.646873 -81.83451 
L 249.903957 -81.984053 
L 249.16104 -81.812205 
L 248.418124 -81.526575 
L 247.675207 -81.198509 
L 246.93229 -81.005653 
L 246.189374 -80.888449 
L 245.446457 -80.474245 
L 244.703541 -80.15623 
L 243.960624 -80.047554 
L 243.217708 -79.776001 
L 242.474791 -78.818028 
L 241.731874 -77.280098 
L 240.988958 -75.943725 
L 240.246041 -74.779032 
L 239.503125 -73.761052 
L 238.760208 -72.808779 
L 238.017291 -71.958161 
L 237.274375 -71.152921 
L 236.531458 -70.445009 
L 235.788542 -69.970674 
L 235.045625 -69.640524 
L 234.302709 -69.208326 
L 233.559792 -68.968341 
L 232.816875 -68.783884 
L 232.073959 -68.834405 
L 231.331042 -69.074819 
L 230.588126 -69.260006 
L 229.845209 -69.589872 
L 229.102292 -70.226025 
L 228.359376 -71.371899 
L 227.616459 -72.07994 
L 226.873543 -72.217027 
L 226.130626 -72.238878 
L 225.38771 -72.27357 
L 224.644793 -72.3459 
L 223.901876 -72.373988 
L 223.15896 -72.358595 
L 222.416043 -72.343845 
L 221.673127 -72.311345 
L 220.93021 -72.195034 
L 220.187294 -72.211527 
L 219.444377 -72.2171 
L 218.70146 -72.214014 
L 217.958544 -72.080232 
L 217.215627 -71.917136 
L 216.472711 -71.871692 
L 215.729794 -71.871167 
L 214.986877 -71.909502 
L 214.243961 -71.919746 
L 213.501044 -71.896255 
L 212.758128 -71.871823 
L 212.015211 -71.868273 
L 211.272295 -71.906287 
L 210.529378 -71.999069 
L 209.786461 -72.09703 
L 209.043545 -72.135172 
L 208.300628 -72.051177 
L 207.557712 -72.080413 
L 206.814795 -72.213286 
L 206.071879 -72.47337 
L 205.328962 -72.63551 
L 204.586045 -72.855241 
L 203.843129 -72.908483 
L 203.100212 -72.912679 
L 202.357296 -72.912796 
L 201.614379 -72.674225 
L 200.871462 -72.770719 
L 200.128546 -72.888467 
L 199.385629 -73.047314 
L 198.642713 -73.047904 
L 197.899796 -72.854019 
L 197.15688 -72.359788 
L 196.413963 -72.073333 
L 195.671046 -71.5513 
L 194.92813 -71.448399 
L 194.185213 -71.329794 
L 193.442297 -71.217364 
L 192.69938 -71.181713 
L 191.956463 -71.1651 
L 191.213547 -71.153103 
L 190.47063 -71.152628 
L 189.727714 -71.138272 
L 188.984797 -71.162832 
L 188.241881 -71.162368 
L 187.498964 -71.162404 
L 186.756047 -71.257588 
L 186.013131 -70.845192 
L 185.270214 -70.599604 
L 184.527298 -70.027587 
L 183.784381 -69.974703 
L 183.041465 -69.870618 
L 182.298548 -70.039821 
L 181.555631 -70.227084 
L 180.812715 -70.321211 
L 180.069798 -70.092894 
L 179.326882 -69.896341 
L 178.583965 -69.759758 
L 177.841048 -69.517203 
L 177.098132 -69.32076 
L 176.355215 -68.798461 
L 175.612299 -67.729818 
L 174.869382 -66.868784 
L 174.126466 -66.016335 
L 173.383549 -65.319982 
L 172.640632 -64.687115 
L 171.897716 -64.107394 
L 171.154799 -63.239102 
L 170.411883 -62.214899 
L 169.668966 -61.379402 
L 168.92605 -61.102099 
L 168.183133 -61.222294 
L 167.440216 -61.053416 
L 166.6973 -60.948792 
L 165.954383 -60.560502 
L 165.211467 -60.37318 
L 164.46855 -60.244026 
L 163.725633 -60.547072 
L 162.982717 -60.787551 
L 162.2398 -61.359685 
L 161.496884 -61.835866 
L 160.753967 -61.948122 
L 160.011051 -62.052738 
L 159.268134 -62.1405 
L 158.525217 -62.074957 
L 157.782301 -62.069493 
L 157.039384 -62.070135 
L 156.296468 -61.99001 
L 155.553551 -61.865807 
L 154.810634 -61.52176 
L 154.067718 -61.307206 
L 153.324801 -60.345339 
L 152.581885 -59.957897 
L 151.838968 -59.905686 
L 151.096052 -59.900123 
L 150.353135 -59.853455 
L 149.610218 -59.854407 
L 148.867302 -59.741442 
L 148.124385 -59.03966 
L 147.381469 -58.781766 
L 146.638552 -58.665534 
L 145.895636 -58.619365 
L 145.152719 -57.928764 
L 144.409802 -57.308399 
L 143.666886 -56.295975 
L 142.923969 -55.812733 
L 142.181053 -55.228063 
L 141.438136 -55.089917 
L 140.695219 -54.406998 
L 139.952303 -53.574097 
L 139.209386 -53.014021 
L 138.46647 -52.698535 
L 137.723553 -52.372613 
L 136.980637 -51.567989 
L 136.23772 -50.826536 
L 135.494803 -50.35979 
L 134.751887 -50.154548 
L 134.00897 -50.112 
L 133.266054 -50.424538 
L 132.523137 -50.748673 
L 131.780221 -51.144315 
L 131.037304 -51.606606 
L 130.294387 -52.672148 
L 129.551471 -53.980307 
L 128.808554 -55.737931 
L 128.065638 -57.406474 
L 127.322721 -59.608943 
L 126.579804 -61.839395 
L 125.836888 -66.515894 
L 125.093971 -67.011726 
L 124.351055 -67.678536 
L 123.608138 -68.180618 
L 122.865222 -68.948302 
L 122.122305 -69.013108 
L 121.379388 -69.017898 
L 120.636472 -68.9087 
L 119.893555 -69.118122 
L 119.150639 -69.366101 
L 118.407722 -69.61137 
L 117.664805 -70.31408 
L 116.921889 -71.12759 
L 116.178972 -71.888089 
L 115.436056 -72.644116 
L 114.693139 -73.618007 
L 113.950223 -73.894548 
L 113.207306 -73.424112 
L 112.464389 -73.055531 
L 111.721473 -72.835195 
L 110.978556 -72.661251 
L 110.23564 -72.500343 
L 109.492723 -72.457143 
L 108.749807 -72.224758 
L 108.00689 -72.087082 
L 107.263973 -71.536679 
L 106.521057 -70.755637 
L 105.77814 -69.932842 
L 105.035224 -69.343287 
L 104.292307 -68.906527 
L 103.54939 -68.782327 
L 102.806474 -68.602169 
L 102.063557 -68.587241 
L 101.320641 -68.558343 
L 100.577724 -68.644375 
L 99.834808 -68.755856 
L 99.091891 -68.782302 
L 98.348974 -68.735272 
L 97.606058 -68.719828 
L 96.863141 -68.260548 
L 96.120225 -67.98752 
L 95.377308 -67.629451 
L 94.634392 -67.62924 
L 93.891475 -67.241812 
L 93.148558 -67.278593 
L 92.405642 -67.176354 
L 91.662725 -66.727856 
L 90.919809 -65.928882 
L 90.176892 -65.242055 
L 89.433975 -64.644679 
L 88.691059 -63.746888 
L 87.948142 -63.224281 
z
" id="m463f71c0db" style="stroke:#4b0082;stroke-opacity:0.3;"/>
    </defs>
    <g clip-path="url(#pe43c57094f)">
     <use style="fill:#4b0082;fill-opacity:0.3;stroke:#4b0082;stroke-opacity:0.3;" x="0" xlink:href="#m463f71c0db" y="345.6"/>
    </g>
   </g>
   <g id="matplotlib.axis_1">
    <g id="xtick_1">
     <g id="line2d_1">
      <defs>
       <path d="M 0 0 
L 0 3.5 
" id="m8141208d2e" style="stroke:#000000;stroke-width:0.8;"/>
      </defs>
      <g>
       <use style="stroke:#000000;stroke-width:0.8;" x="73.832727" xlink:href="#m8141208d2e" y="307.584"/>
      </g>
     </g>
     <g id="text_1">
      <!-- 2020-01 -->
      <g transform="translate(52.941321 322.182437)scale(0.1 -0.1)">
       <defs>
        <path d="M 19.1875 8.296875 
L 53.609375 8.296875 
L 53.609375 0 
L 7.328125 0 
L 7.328125 8.296875 
Q 12.9375 14.109375 22.625 23.890625 
Q 32.328125 33.6875 34.8125 36.53125 
Q 39.546875 41.84375 41.421875 45.53125 
Q 43.3125 49.21875 43.3125 52.78125 
Q 43.3125 58.59375 39.234375 62.25 
Q 35.15625 65.921875 28.609375 65.921875 
Q 23.96875 65.921875 18.8125 64.3125 
Q 13.671875 62.703125 7.8125 59.421875 
L 7.8125 69.390625 
Q 13.765625 71.78125 18.9375 73 
Q 24.125 74.21875 28.421875 74.21875 
Q 39.75 74.21875 46.484375 68.546875 
Q 53.21875 62.890625 53.21875 53.421875 
Q 53.21875 48.921875 51.53125 44.890625 
Q 49.859375 40.875 45.40625 35.40625 
Q 44.1875 33.984375 37.640625 27.21875 
Q 31.109375 20.453125 19.1875 8.296875 
z
" id="DejaVuSans-50"/>
        <path d="M 31.78125 66.40625 
Q 24.171875 66.40625 20.328125 58.90625 
Q 16.5 51.421875 16.5 36.375 
Q 16.5 21.390625 20.328125 13.890625 
Q 24.171875 6.390625 31.78125 6.390625 
Q 39.453125 6.390625 43.28125 13.890625 
Q 47.125 21.390625 47.125 36.375 
Q 47.125 51.421875 43.28125 58.90625 
Q 39.453125 66.40625 31.78125 66.40625 
z
M 31.78125 74.21875 
Q 44.046875 74.21875 50.515625 64.515625 
Q 56.984375 54.828125 56.984375 36.375 
Q 56.984375 17.96875 50.515625 8.265625 
Q 44.046875 -1.421875 31.78125 -1.421875 
Q 19.53125 -1.421875 13.0625 8.265625 
Q 6.59375 17.96875 6.59375 36.375 
Q 6.59375 54.828125 13.0625 64.515625 
Q 19.53125 74.21875 31.78125 74.21875 
z
" id="DejaVuSans-48"/>
        <path d="M 4.890625 31.390625 
L 31.203125 31.390625 
L 31.203125 23.390625 
L 4.890625 23.390625 
z
" id="DejaVuSans-45"/>
        <path d="M 12.40625 8.296875 
L 28.515625 8.296875 
L 28.515625 63.921875 
L 10.984375 60.40625 
L 10.984375 69.390625 
L 28.421875 72.90625 
L 38.28125 72.90625 
L 38.28125 8.296875 
L 54.390625 8.296875 
L 54.390625 0 
L 12.40625 0 
z
" id="DejaVuSans-49"/>
       </defs>
       <use xlink:href="#DejaVuSans-50"/>
       <use x="63.623047" xlink:href="#DejaVuSans-48"/>
       <use x="127.246094" xlink:href="#DejaVuSans-50"/>
       <use x="190.869141" xlink:href="#DejaVuSans-48"/>
       <use x="254.492188" xlink:href="#DejaVuSans-45"/>
       <use x="290.576172" xlink:href="#DejaVuSans-48"/>
       <use x="354.199219" xlink:href="#DejaVuSans-49"/>
      </g>
     </g>
    </g>
    <g id="xtick_2">
     <g id="line2d_2">
      <g>
       <use style="stroke:#000000;stroke-width:0.8;" x="118.407722" xlink:href="#m8141208d2e" y="307.584"/>
      </g>
     </g>
     <g id="text_2">
      <!-- 2020-03 -->
      <g transform="translate(97.516316 322.182437)scale(0.1 -0.1)">
       <defs>
        <path d="M 40.578125 39.3125 
Q 47.65625 37.796875 51.625 33 
Q 55.609375 28.21875 55.609375 21.1875 
Q 55.609375 10.40625 48.1875 4.484375 
Q 40.765625 -1.421875 27.09375 -1.421875 
Q 22.515625 -1.421875 17.65625 -0.515625 
Q 12.796875 0.390625 7.625 2.203125 
L 7.625 11.71875 
Q 11.71875 9.328125 16.59375 8.109375 
Q 21.484375 6.890625 26.8125 6.890625 
Q 36.078125 6.890625 40.9375 10.546875 
Q 45.796875 14.203125 45.796875 21.1875 
Q 45.796875 27.640625 41.28125 31.265625 
Q 36.765625 34.90625 28.71875 34.90625 
L 20.21875 34.90625 
L 20.21875 43.015625 
L 29.109375 43.015625 
Q 36.375 43.015625 40.234375 45.921875 
Q 44.09375 48.828125 44.09375 54.296875 
Q 44.09375 59.90625 40.109375 62.90625 
Q 36.140625 65.921875 28.71875 65.921875 
Q 24.65625 65.921875 20.015625 65.03125 
Q 15.375 64.15625 9.8125 62.3125 
L 9.8125 71.09375 
Q 15.4375 72.65625 20.34375 73.4375 
Q 25.25 74.21875 29.59375 74.21875 
Q 40.828125 74.21875 47.359375 69.109375 
Q 53.90625 64.015625 53.90625 55.328125 
Q 53.90625 49.265625 50.4375 45.09375 
Q 46.96875 40.921875 40.578125 39.3125 
z
" id="DejaVuSans-51"/>
       </defs>
       <use xlink:href="#DejaVuSans-50"/>
       <use x="63.623047" xlink:href="#DejaVuSans-48"/>
       <use x="127.246094" xlink:href="#DejaVuSans-50"/>
       <use x="190.869141" xlink:href="#DejaVuSans-48"/>
       <use x="254.492188" xlink:href="#DejaVuSans-45"/>
       <use x="290.576172" xlink:href="#DejaVuSans-48"/>
       <use x="354.199219" xlink:href="#DejaVuSans-51"/>
      </g>
     </g>
    </g>
    <g id="xtick_3">
     <g id="line2d_3">
      <g>
       <use style="stroke:#000000;stroke-width:0.8;" x="163.725633" xlink:href="#m8141208d2e" y="307.584"/>
      </g>
     </g>
     <g id="text_3">
      <!-- 2020-05 -->
      <g transform="translate(142.834227 322.182437)scale(0.1 -0.1)">
       <defs>
        <path d="M 10.796875 72.90625 
L 49.515625 72.90625 
L 49.515625 64.59375 
L 19.828125 64.59375 
L 19.828125 46.734375 
Q 21.96875 47.46875 24.109375 47.828125 
Q 26.265625 48.1875 28.421875 48.1875 
Q 40.625 48.1875 47.75 41.5 
Q 54.890625 34.8125 54.890625 23.390625 
Q 54.890625 11.625 47.5625 5.09375 
Q 40.234375 -1.421875 26.90625 -1.421875 
Q 22.3125 -1.421875 17.546875 -0.640625 
Q 12.796875 0.140625 7.71875 1.703125 
L 7.71875 11.625 
Q 12.109375 9.234375 16.796875 8.0625 
Q 21.484375 6.890625 26.703125 6.890625 
Q 35.15625 6.890625 40.078125 11.328125 
Q 45.015625 15.765625 45.015625 23.390625 
Q 45.015625 31 40.078125 35.4375 
Q 35.15625 39.890625 26.703125 39.890625 
Q 22.75 39.890625 18.8125 39.015625 
Q 14.890625 38.140625 10.796875 36.28125 
z
" id="DejaVuSans-53"/>
       </defs>
       <use xlink:href="#DejaVuSans-50"/>
       <use x="63.623047" xlink:href="#DejaVuSans-48"/>
       <use x="127.246094" xlink:href="#DejaVuSans-50"/>
       <use x="190.869141" xlink:href="#DejaVuSans-48"/>
       <use x="254.492188" xlink:href="#DejaVuSans-45"/>
       <use x="290.576172" xlink:href="#DejaVuSans-48"/>
       <use x="354.199219" xlink:href="#DejaVuSans-53"/>
      </g>
     </g>
    </g>
    <g id="xtick_4">
     <g id="line2d_4">
      <g>
       <use style="stroke:#000000;stroke-width:0.8;" x="209.043545" xlink:href="#m8141208d2e" y="307.584"/>
      </g>
     </g>
     <g id="text_4">
      <!-- 2020-07 -->
      <g transform="translate(188.152139 322.182437)scale(0.1 -0.1)">
       <defs>
        <path d="M 8.203125 72.90625 
L 55.078125 72.90625 
L 55.078125 68.703125 
L 28.609375 0 
L 18.3125 0 
L 43.21875 64.59375 
L 8.203125 64.59375 
z
" id="DejaVuSans-55"/>
       </defs>
       <use xlink:href="#DejaVuSans-50"/>
       <use x="63.623047" xlink:href="#DejaVuSans-48"/>
       <use x="127.246094" xlink:href="#DejaVuSans-50"/>
       <use x="190.869141" xlink:href="#DejaVuSans-48"/>
       <use x="254.492188" xlink:href="#DejaVuSans-45"/>
       <use x="290.576172" xlink:href="#DejaVuSans-48"/>
       <use x="354.199219" xlink:href="#DejaVuSans-55"/>
      </g>
     </g>
    </g>
    <g id="xtick_5">
     <g id="line2d_5">
      <g>
       <use style="stroke:#000000;stroke-width:0.8;" x="255.104373" xlink:href="#m8141208d2e" y="307.584"/>
      </g>
     </g>
     <g id="text_5">
      <!-- 2020-09 -->
      <g transform="translate(234.212967 322.182437)scale(0.1 -0.1)">
       <defs>
        <path d="M 10.984375 1.515625 
L 10.984375 10.5 
Q 14.703125 8.734375 18.5 7.8125 
Q 22.3125 6.890625 25.984375 6.890625 
Q 35.75 6.890625 40.890625 13.453125 
Q 46.046875 20.015625 46.78125 33.40625 
Q 43.953125 29.203125 39.59375 26.953125 
Q 35.25 24.703125 29.984375 24.703125 
Q 19.046875 24.703125 12.671875 31.3125 
Q 6.296875 37.9375 6.296875 49.421875 
Q 6.296875 60.640625 12.9375 67.421875 
Q 19.578125 74.21875 30.609375 74.21875 
Q 43.265625 74.21875 49.921875 64.515625 
Q 56.59375 54.828125 56.59375 36.375 
Q 56.59375 19.140625 48.40625 8.859375 
Q 40.234375 -1.421875 26.421875 -1.421875 
Q 22.703125 -1.421875 18.890625 -0.6875 
Q 15.09375 0.046875 10.984375 1.515625 
z
M 30.609375 32.421875 
Q 37.25 32.421875 41.125 36.953125 
Q 45.015625 41.5 45.015625 49.421875 
Q 45.015625 57.28125 41.125 61.84375 
Q 37.25 66.40625 30.609375 66.40625 
Q 23.96875 66.40625 20.09375 61.84375 
Q 16.21875 57.28125 16.21875 49.421875 
Q 16.21875 41.5 20.09375 36.953125 
Q 23.96875 32.421875 30.609375 32.421875 
z
" id="DejaVuSans-57"/>
       </defs>
       <use xlink:href="#DejaVuSans-50"/>
       <use x="63.623047" xlink:href="#DejaVuSans-48"/>
       <use x="127.246094" xlink:href="#DejaVuSans-50"/>
       <use x="190.869141" xlink:href="#DejaVuSans-48"/>
       <use x="254.492188" xlink:href="#DejaVuSans-45"/>
       <use x="290.576172" xlink:href="#DejaVuSans-48"/>
       <use x="354.199219" xlink:href="#DejaVuSans-57"/>
      </g>
     </g>
    </g>
    <g id="xtick_6">
     <g id="line2d_6">
      <g>
       <use style="stroke:#000000;stroke-width:0.8;" x="300.422284" xlink:href="#m8141208d2e" y="307.584"/>
      </g>
     </g>
     <g id="text_6">
      <!-- 2020-11 -->
      <g transform="translate(279.530878 322.182437)scale(0.1 -0.1)">
       <use xlink:href="#DejaVuSans-50"/>
       <use x="63.623047" xlink:href="#DejaVuSans-48"/>
       <use x="127.246094" xlink:href="#DejaVuSans-50"/>
       <use x="190.869141" xlink:href="#DejaVuSans-48"/>
       <use x="254.492188" xlink:href="#DejaVuSans-45"/>
       <use x="290.576172" xlink:href="#DejaVuSans-49"/>
       <use x="354.199219" xlink:href="#DejaVuSans-49"/>
      </g>
     </g>
    </g>
    <g id="xtick_7">
     <g id="line2d_7">
      <g>
       <use style="stroke:#000000;stroke-width:0.8;" x="345.740196" xlink:href="#m8141208d2e" y="307.584"/>
      </g>
     </g>
     <g id="text_7">
      <!-- 2021-01 -->
      <g transform="translate(324.848789 322.182437)scale(0.1 -0.1)">
       <use xlink:href="#DejaVuSans-50"/>
       <use x="63.623047" xlink:href="#DejaVuSans-48"/>
       <use x="127.246094" xlink:href="#DejaVuSans-50"/>
       <use x="190.869141" xlink:href="#DejaVuSans-49"/>
       <use x="254.492188" xlink:href="#DejaVuSans-45"/>
       <use x="290.576172" xlink:href="#DejaVuSans-48"/>
       <use x="354.199219" xlink:href="#DejaVuSans-49"/>
      </g>
     </g>
    </g>
    <g id="xtick_8">
     <g id="line2d_8">
      <g>
       <use style="stroke:#000000;stroke-width:0.8;" x="389.572274" xlink:href="#m8141208d2e" y="307.584"/>
      </g>
     </g>
     <g id="text_8">
      <!-- 2021-03 -->
      <g transform="translate(368.680868 322.182437)scale(0.1 -0.1)">
       <use xlink:href="#DejaVuSans-50"/>
       <use x="63.623047" xlink:href="#DejaVuSans-48"/>
       <use x="127.246094" xlink:href="#DejaVuSans-50"/>
       <use x="190.869141" xlink:href="#DejaVuSans-49"/>
       <use x="254.492188" xlink:href="#DejaVuSans-45"/>
       <use x="290.576172" xlink:href="#DejaVuSans-48"/>
       <use x="354.199219" xlink:href="#DejaVuSans-51"/>
      </g>
     </g>
    </g>
   </g>
   <g id="matplotlib.axis_2">
    <g id="ytick_1">
     <g id="line2d_9">
      <defs>
       <path d="M 0 0 
L -3.5 0 
" id="md58351b350" style="stroke:#000000;stroke-width:0.8;"/>
      </defs>
      <g>
       <use style="stroke:#000000;stroke-width:0.8;" x="57.6" xlink:href="#md58351b350" y="269.133808"/>
      </g>
     </g>
     <g id="text_9">
      <!-- 10000 -->
      <g transform="translate(18.7875 272.933027)scale(0.1 -0.1)">
       <use xlink:href="#DejaVuSans-49"/>
       <use x="63.623047" xlink:href="#DejaVuSans-48"/>
       <use x="127.246094" xlink:href="#DejaVuSans-48"/>
       <use x="190.869141" xlink:href="#DejaVuSans-48"/>
       <use x="254.492188" xlink:href="#DejaVuSans-48"/>
      </g>
     </g>
    </g>
    <g id="ytick_2">
     <g id="line2d_10">
      <g>
       <use style="stroke:#000000;stroke-width:0.8;" x="57.6" xlink:href="#md58351b350" y="227.01863"/>
      </g>
     </g>
     <g id="text_10">
      <!-- 20000 -->
      <g transform="translate(18.7875 230.817849)scale(0.1 -0.1)">
       <use xlink:href="#DejaVuSans-50"/>
       <use x="63.623047" xlink:href="#DejaVuSans-48"/>
       <use x="127.246094" xlink:href="#DejaVuSans-48"/>
       <use x="190.869141" xlink:href="#DejaVuSans-48"/>
       <use x="254.492188" xlink:href="#DejaVuSans-48"/>
      </g>
     </g>
    </g>
    <g id="ytick_3">
     <g id="line2d_11">
      <g>
       <use style="stroke:#000000;stroke-width:0.8;" x="57.6" xlink:href="#md58351b350" y="184.903452"/>
      </g>
     </g>
     <g id="text_11">
      <!-- 30000 -->
      <g transform="translate(18.7875 188.702671)scale(0.1 -0.1)">
       <use xlink:href="#DejaVuSans-51"/>
       <use x="63.623047" xlink:href="#DejaVuSans-48"/>
       <use x="127.246094" xlink:href="#DejaVuSans-48"/>
       <use x="190.869141" xlink:href="#DejaVuSans-48"/>
       <use x="254.492188" xlink:href="#DejaVuSans-48"/>
      </g>
     </g>
    </g>
    <g id="ytick_4">
     <g id="line2d_12">
      <g>
       <use style="stroke:#000000;stroke-width:0.8;" x="57.6" xlink:href="#md58351b350" y="142.788274"/>
      </g>
     </g>
     <g id="text_12">
      <!-- 40000 -->
      <g transform="translate(18.7875 146.587493)scale(0.1 -0.1)">
       <defs>
        <path d="M 37.796875 64.3125 
L 12.890625 25.390625 
L 37.796875 25.390625 
z
M 35.203125 72.90625 
L 47.609375 72.90625 
L 47.609375 25.390625 
L 58.015625 25.390625 
L 58.015625 17.1875 
L 47.609375 17.1875 
L 47.609375 0 
L 37.796875 0 
L 37.796875 17.1875 
L 4.890625 17.1875 
L 4.890625 26.703125 
z
" id="DejaVuSans-52"/>
       </defs>
       <use xlink:href="#DejaVuSans-52"/>
       <use x="63.623047" xlink:href="#DejaVuSans-48"/>
       <use x="127.246094" xlink:href="#DejaVuSans-48"/>
       <use x="190.869141" xlink:href="#DejaVuSans-48"/>
       <use x="254.492188" xlink:href="#DejaVuSans-48"/>
      </g>
     </g>
    </g>
    <g id="ytick_5">
     <g id="line2d_13">
      <g>
       <use style="stroke:#000000;stroke-width:0.8;" x="57.6" xlink:href="#md58351b350" y="100.673097"/>
      </g>
     </g>
     <g id="text_13">
      <!-- 50000 -->
      <g transform="translate(18.7875 104.472315)scale(0.1 -0.1)">
       <use xlink:href="#DejaVuSans-53"/>
       <use x="63.623047" xlink:href="#DejaVuSans-48"/>
       <use x="127.246094" xlink:href="#DejaVuSans-48"/>
       <use x="190.869141" xlink:href="#DejaVuSans-48"/>
       <use x="254.492188" xlink:href="#DejaVuSans-48"/>
      </g>
     </g>
    </g>
    <g id="ytick_6">
     <g id="line2d_14">
      <g>
       <use style="stroke:#000000;stroke-width:0.8;" x="57.6" xlink:href="#md58351b350" y="58.557919"/>
      </g>
     </g>
     <g id="text_14">
      <!-- 60000 -->
      <g transform="translate(18.7875 62.357137)scale(0.1 -0.1)">
       <defs>
        <path d="M 33.015625 40.375 
Q 26.375 40.375 22.484375 35.828125 
Q 18.609375 31.296875 18.609375 23.390625 
Q 18.609375 15.53125 22.484375 10.953125 
Q 26.375 6.390625 33.015625 6.390625 
Q 39.65625 6.390625 43.53125 10.953125 
Q 47.40625 15.53125 47.40625 23.390625 
Q 47.40625 31.296875 43.53125 35.828125 
Q 39.65625 40.375 33.015625 40.375 
z
M 52.59375 71.296875 
L 52.59375 62.3125 
Q 48.875 64.0625 45.09375 64.984375 
Q 41.3125 65.921875 37.59375 65.921875 
Q 27.828125 65.921875 22.671875 59.328125 
Q 17.53125 52.734375 16.796875 39.40625 
Q 19.671875 43.65625 24.015625 45.921875 
Q 28.375 48.1875 33.59375 48.1875 
Q 44.578125 48.1875 50.953125 41.515625 
Q 57.328125 34.859375 57.328125 23.390625 
Q 57.328125 12.15625 50.6875 5.359375 
Q 44.046875 -1.421875 33.015625 -1.421875 
Q 20.359375 -1.421875 13.671875 8.265625 
Q 6.984375 17.96875 6.984375 36.375 
Q 6.984375 53.65625 15.1875 63.9375 
Q 23.390625 74.21875 37.203125 74.21875 
Q 40.921875 74.21875 44.703125 73.484375 
Q 48.484375 72.75 52.59375 71.296875 
z
" id="DejaVuSans-54"/>
       </defs>
       <use xlink:href="#DejaVuSans-54"/>
       <use x="63.623047" xlink:href="#DejaVuSans-48"/>
       <use x="127.246094" xlink:href="#DejaVuSans-48"/>
       <use x="190.869141" xlink:href="#DejaVuSans-48"/>
       <use x="254.492188" xlink:href="#DejaVuSans-48"/>
      </g>
     </g>
    </g>
   </g>
   <g id="line2d_15">
    <path clip-path="url(#pe43c57094f)" d="M 87.948142 271.924168 
L 88.691059 271.798563 
L 90.919809 272.369381 
L 91.662725 272.755294 
L 92.405642 272.849638 
L 93.148558 272.638647 
L 93.891475 272.033143 
L 94.634392 271.799988 
L 95.377308 271.244507 
L 97.606058 270.748369 
L 99.091891 270.452415 
L 100.577724 269.574614 
L 102.063557 268.630318 
L 102.806474 268.000886 
L 103.54939 267.7072 
L 104.292307 267.155412 
L 105.035224 266.768481 
L 105.77814 266.602663 
L 106.521057 266.574877 
L 108.00689 266.927155 
L 108.749807 266.933092 
L 109.492723 266.788371 
L 111.721473 266.891483 
L 113.207306 267.052344 
L 113.950223 267.316712 
L 114.693139 267.1663 
L 115.436056 266.596894 
L 116.921889 265.995955 
L 118.407722 265.715962 
L 119.893555 266.452317 
L 120.636472 266.8587 
L 121.379388 267.508438 
L 122.865222 268.179277 
L 123.608138 268.108975 
L 124.351055 268.550874 
L 125.093971 268.597601 
L 125.836888 268.799255 
L 126.579804 266.136482 
L 127.322721 265.606753 
L 128.065638 265.422002 
L 130.294387 265.753223 
L 131.037304 266.121687 
L 133.266054 267.976047 
L 135.494803 271.027369 
L 136.23772 272.498803 
L 137.723553 276.008468 
L 139.952303 279.406894 
L 140.695219 280.872036 
L 141.438136 280.814627 
L 142.181053 280.445928 
L 143.666886 280.220647 
L 144.409802 280.502402 
L 145.895636 280.166916 
L 147.381469 279.373631 
L 148.124385 279.331526 
L 148.867302 279.607784 
L 149.610218 279.446785 
L 151.838968 279.409253 
L 152.581885 279.311073 
L 153.324801 279.336196 
L 154.067718 279.731782 
L 154.810634 279.692868 
L 156.296468 279.895282 
L 157.039384 279.84704 
L 158.525217 279.242514 
L 161.496884 278.236131 
L 162.2398 277.356276 
L 162.982717 276.013098 
L 164.46855 273.908987 
L 165.954383 272.552563 
L 166.6973 272.025626 
L 168.183133 270.411431 
L 168.92605 269.128833 
L 169.668966 268.323707 
L 171.897716 268.877922 
L 172.640632 268.808123 
L 173.383549 268.565127 
L 174.126466 268.450768 
L 177.098132 268.642097 
L 177.841048 268.404141 
L 183.041465 268.477588 
L 183.784381 268.909632 
L 185.270214 269.200595 
L 186.756047 269.217128 
L 187.498964 268.685084 
L 188.984797 268.678006 
L 189.727714 268.49688 
L 192.69938 268.655298 
L 194.92813 268.3725 
L 195.671046 268.378848 
L 197.899796 269.058497 
L 199.385629 269.139945 
L 201.614379 269.075828 
L 202.357296 269.593032 
L 203.843129 269.597978 
L 204.586045 269.78171 
L 206.814795 269.876054 
L 208.300628 270.20226 
L 209.043545 270.557287 
L 211.272295 270.729342 
L 212.015211 270.717413 
L 214.243961 271.048707 
L 215.729794 271.016802 
L 217.215627 271.170976 
L 218.70146 271.722628 
L 223.15896 271.809768 
L 224.644793 271.708681 
L 227.616459 270.637052 
L 228.359376 269.493066 
L 229.102292 267.628822 
L 230.588126 265.194064 
L 231.331042 264.272935 
L 232.073959 263.158586 
L 232.816875 262.262974 
L 234.302709 260.992741 
L 235.045625 260.539184 
L 236.531458 259.085619 
L 238.760208 258.207685 
L 239.503125 258.11748 
L 240.988958 258.678293 
L 241.731874 259.105925 
L 242.474791 259.724251 
L 243.217708 260.005084 
L 243.960624 259.909734 
L 244.703541 259.451961 
L 245.446457 259.405679 
L 250.646873 259.86172 
L 252.875623 259.809706 
L 254.361456 260.026645 
L 256.590206 259.855116 
L 257.333123 258.974025 
L 258.818956 258.276764 
L 260.304789 258.594207 
L 261.790622 258.727245 
L 263.276455 259.206196 
L 264.019372 259.577215 
L 267.733955 260.709213 
L 268.476871 261.103586 
L 269.219788 261.628893 
L 270.705621 263.714143 
L 271.448538 264.252602 
L 275.16312 264.048439 
L 275.906037 264.222234 
L 280.363537 264.462309 
L 281.84937 264.787045 
L 283.335203 264.798981 
L 284.821036 263.78579 
L 285.563953 263.161071 
L 287.049786 262.557981 
L 287.792702 262.192522 
L 290.021452 261.555572 
L 291.507285 260.602521 
L 292.993118 257.806408 
L 294.478952 255.801819 
L 295.221868 255.03376 
L 295.964785 254.461937 
L 296.707701 253.492186 
L 298.193534 252.359357 
L 300.422284 250.415509 
L 301.165201 250.110678 
L 302.651034 249.113167 
L 303.39395 247.421176 
L 304.136867 246.156408 
L 304.879784 245.868384 
L 305.6227 245.110018 
L 306.365617 244.688413 
L 307.108533 244.05054 
L 307.85145 243.171082 
L 309.337283 240.840757 
L 310.0802 240.215773 
L 310.823116 239.839154 
L 311.566033 238.8042 
L 313.051866 235.723926 
L 313.794783 234.532153 
L 314.537699 232.676341 
L 315.280616 231.225524 
L 316.766449 229.915058 
L 318.252282 227.933288 
L 318.995199 227.903328 
L 319.738115 228.25497 
L 321.223948 228.249232 
L 321.966865 227.324738 
L 322.709782 227.221166 
L 324.195615 226.192155 
L 324.938531 226.530445 
L 325.681448 227.013743 
L 326.424364 227.024793 
L 327.167281 226.802913 
L 330.138947 226.998598 
L 330.881864 226.911555 
L 331.624781 226.672099 
L 332.367697 226.608298 
L 333.110614 226.275283 
L 333.85353 224.311128 
L 336.08228 214.027987 
L 336.825197 211.588996 
L 337.568113 210.088081 
L 338.31103 207.823722 
L 339.796863 204.713857 
L 340.539779 202.474021 
L 341.282696 198.893119 
L 344.997279 185.126482 
L 345.740196 182.724625 
L 347.226029 173.514523 
L 347.968945 171.139088 
L 348.711862 166.676124 
L 349.454778 159.640326 
L 350.940612 142.367362 
L 351.683528 135.906212 
L 352.426445 132.624043 
L 353.169361 131.501434 
L 353.912278 131.875485 
L 354.655195 131.017793 
L 355.398111 129.341678 
L 356.141028 129.070555 
L 356.883944 129.856859 
L 357.626861 130.923181 
L 359.112694 133.476969 
L 359.855611 135.414329 
L 360.598527 136.439443 
L 361.341444 136.724382 
L 362.08436 136.397745 
L 362.827277 136.512999 
L 363.570193 136.085006 
L 364.31311 136.227514 
L 365.056027 137.403054 
L 366.54186 144.847627 
L 367.284776 146.92296 
L 368.027693 147.388502 
L 368.77061 147.449528 
L 369.513526 148.644773 
L 370.256443 150.23615 
L 370.999359 150.063811 
L 371.742276 148.185489 
L 372.485192 145.38587 
L 373.228109 143.662661 
L 373.971026 132.107529 
L 374.713942 123.100993 
L 375.456859 117.620058 
L 376.199775 109.487824 
L 376.942692 103.432211 
L 378.428525 93.290414 
L 379.171442 89.522647 
L 379.914358 86.646774 
L 380.657275 81.067013 
L 381.400191 76.847453 
L 382.143108 69.797915 
L 383.628941 60.302437 
L 384.371858 58.834334 
L 385.114774 59.868958 
L 385.857691 61.903447 
L 387.343524 67.310755 
L 388.086441 71.306019 
L 388.829357 71.03559 
L 389.572274 70.947933 
L 390.31519 71.561182 
L 391.058107 71.26609 
L 393.286857 71.398694 
L 394.029773 71.04686 
L 394.77269 70.186248 
L 395.515606 68.509064 
L 396.258523 65.989047 
L 397.00144 64.247078 
L 397.744356 63.096227 
L 398.487273 59.025793 
L 398.487273 59.025793 
" style="fill:none;stroke:#1f77b4;stroke-linecap:square;stroke-width:1.5;"/>
   </g>
   <g id="line2d_16">
    <path clip-path="url(#pe43c57094f)" d="M 87.948142 282.375719 
L 88.691059 281.853112 
L 89.433975 280.955321 
L 90.919809 279.671118 
L 91.662725 278.872144 
L 92.405642 278.423646 
L 93.148558 278.321407 
L 93.891475 278.358188 
L 94.634392 277.97076 
L 95.377308 277.970549 
L 97.606058 276.880172 
L 99.834808 276.844144 
L 101.320641 277.041657 
L 102.806474 276.997831 
L 104.292307 276.693473 
L 105.035224 276.256713 
L 105.77814 275.667158 
L 107.263973 274.063321 
L 108.00689 273.512918 
L 111.721473 272.764805 
L 112.464389 272.544469 
L 113.950223 271.705452 
L 114.693139 271.981993 
L 115.436056 272.955884 
L 118.407722 275.98863 
L 120.636472 276.6913 
L 121.379388 276.582102 
L 122.865222 276.651698 
L 123.608138 277.419382 
L 124.351055 277.921464 
L 125.093971 278.588274 
L 125.836888 279.084106 
L 126.579804 283.760605 
L 128.065638 288.193526 
L 130.294387 292.927852 
L 131.037304 293.993394 
L 132.523137 294.851327 
L 134.00897 295.488 
L 134.751887 295.445452 
L 135.494803 295.24021 
L 136.23772 294.773464 
L 137.723553 293.227387 
L 139.209386 292.585979 
L 139.952303 292.025903 
L 141.438136 290.510083 
L 142.181053 290.371937 
L 143.666886 289.304025 
L 144.409802 288.291601 
L 145.895636 286.980635 
L 147.381469 286.818234 
L 148.124385 286.56034 
L 148.867302 285.858558 
L 149.610218 285.745593 
L 152.581885 285.642103 
L 153.324801 285.254661 
L 154.067718 284.292794 
L 154.810634 284.07824 
L 155.553551 283.734193 
L 157.039384 283.529865 
L 160.011051 283.547262 
L 161.496884 283.764134 
L 162.982717 284.812449 
L 164.46855 285.355974 
L 165.954383 285.039498 
L 166.6973 284.651208 
L 168.183133 284.377706 
L 168.92605 284.497901 
L 169.668966 284.220598 
L 170.411883 283.385101 
L 171.897716 281.492606 
L 173.383549 280.280018 
L 174.126466 279.583665 
L 175.612299 277.870182 
L 176.355215 276.801539 
L 177.098132 276.27924 
L 180.812715 275.278789 
L 182.298548 275.560179 
L 183.041465 275.729382 
L 184.527298 275.572413 
L 185.270214 275.000396 
L 186.013131 274.754808 
L 186.756047 274.342412 
L 188.241881 274.437632 
L 193.442297 274.382636 
L 195.671046 274.0487 
L 196.413963 273.526667 
L 197.15688 273.240212 
L 197.899796 272.745981 
L 198.642713 272.552096 
L 199.385629 272.552686 
L 201.614379 272.925775 
L 202.357296 272.687204 
L 204.586045 272.744759 
L 207.557712 273.519587 
L 208.300628 273.548823 
L 209.043545 273.464828 
L 210.529378 273.600931 
L 212.015211 273.731727 
L 217.215627 273.682864 
L 218.70146 273.385986 
L 221.673127 273.288655 
L 224.644793 273.2541 
L 227.616459 273.52006 
L 228.359376 274.228101 
L 229.102292 275.373975 
L 229.845209 276.010128 
L 230.588126 276.339994 
L 232.816875 276.816116 
L 234.302709 276.391674 
L 236.531458 275.154991 
L 238.017291 273.641839 
L 239.503125 271.838948 
L 240.988958 269.656275 
L 243.217708 265.823999 
L 243.960624 265.552446 
L 244.703541 265.44377 
L 246.93229 264.594347 
L 247.675207 264.401491 
L 249.16104 263.787795 
L 249.903957 263.615947 
L 250.646873 263.76549 
L 251.38979 264.030986 
L 254.361456 264.135523 
L 255.847289 263.900224 
L 256.590206 264.140196 
L 257.333123 265.696405 
L 258.076039 266.610044 
L 258.818956 267.747622 
L 261.047705 269.75349 
L 262.533539 270.481936 
L 264.019372 270.957274 
L 265.505205 271.060785 
L 267.733955 270.97195 
L 269.219788 270.656029 
L 270.705621 269.708958 
L 272.934371 269.456363 
L 274.420204 268.938458 
L 275.16312 268.788078 
L 275.906037 268.306091 
L 277.39187 267.957098 
L 278.134787 267.871067 
L 278.877703 267.664113 
L 283.335203 267.657763 
L 284.078119 267.954374 
L 285.563953 268.320058 
L 286.306869 268.092172 
L 288.535619 268.079848 
L 290.021452 268.002014 
L 291.507285 268.038783 
L 292.250202 268.586553 
L 292.993118 268.8953 
L 294.478952 268.856661 
L 295.221868 268.663396 
L 295.964785 268.19152 
L 296.707701 267.900761 
L 298.193534 267.022538 
L 300.422284 266.060363 
L 302.651034 264.253366 
L 303.39395 264.147868 
L 304.136867 263.635759 
L 304.879784 262.52262 
L 305.6227 261.7097 
L 306.365617 260.69438 
L 307.108533 260.278549 
L 309.337283 259.578845 
L 310.0802 258.924918 
L 310.823116 258.080021 
L 313.051866 257.222628 
L 313.794783 256.625284 
L 314.537699 256.426578 
L 315.280616 255.799204 
L 316.766449 253.232033 
L 317.509366 252.164137 
L 318.252282 251.788808 
L 318.995199 251.147671 
L 319.738115 249.822175 
L 320.481032 248.880377 
L 321.223948 247.675754 
L 321.966865 246.749432 
L 322.709782 245.552211 
L 324.195615 244.03531 
L 324.938531 242.609729 
L 325.681448 240.783092 
L 326.424364 239.649207 
L 327.910198 238.947363 
L 328.653114 238.589263 
L 330.881864 238.879931 
L 332.367697 238.803881 
L 333.110614 238.833245 
L 333.85353 239.042308 
L 335.339363 241.165802 
L 336.08228 242.296402 
L 336.825197 243.155695 
L 337.568113 243.004419 
L 338.31103 243.335234 
L 339.053946 243.243521 
L 339.796863 242.717495 
L 340.539779 242.619991 
L 341.282696 243.227882 
L 342.025613 243.041536 
L 342.768529 242.152444 
L 344.254362 239.788543 
L 345.740196 235.513034 
L 346.483112 234.737725 
L 347.226029 233.441122 
L 347.968945 230.521409 
L 348.711862 229.641995 
L 349.454778 230.775479 
L 350.197695 232.669041 
L 350.940612 234.098322 
L 351.683528 233.497232 
L 352.426445 230.262782 
L 353.169361 226.480708 
L 355.398111 212.254573 
L 356.141028 208.177686 
L 359.855611 184.362589 
L 360.598527 182.728185 
L 361.341444 182.097756 
L 362.08436 182.814765 
L 362.827277 182.581757 
L 363.570193 183.759256 
L 364.31311 185.431331 
L 365.056027 188.067304 
L 365.798943 187.439869 
L 366.54186 186.165314 
L 367.284776 185.718692 
L 368.027693 186.235885 
L 368.77061 186.392233 
L 369.513526 185.975063 
L 370.256443 184.995535 
L 370.999359 185.07748 
L 371.742276 185.996818 
L 372.485192 187.354279 
L 373.228109 188.148698 
L 373.971026 195.278821 
L 374.713942 199.656215 
L 375.456859 199.233817 
L 376.199775 201.054743 
L 376.942692 200.665176 
L 377.685608 199.302422 
L 378.428525 197.628116 
L 379.171442 194.903506 
L 379.914358 189.87843 
L 380.657275 187.579589 
L 381.400191 184.509265 
L 382.143108 182.462406 
L 383.628941 172.304194 
L 388.086441 133.613786 
L 388.829357 134.381038 
L 389.572274 133.155818 
L 390.31519 131.006548 
L 391.058107 130.283499 
L 391.801024 129.826186 
L 392.54394 129.078796 
L 393.286857 128.98102 
L 394.029773 128.047577 
L 394.77269 127.557289 
L 395.515606 128.053136 
L 396.258523 128.755104 
L 397.00144 129.694997 
L 397.744356 130.274573 
L 398.487273 132.76854 
L 398.487273 132.76854 
" style="fill:none;stroke:#ff7f0e;stroke-linecap:square;stroke-width:1.5;"/>
   </g>
   <g id="line2d_17">
    <path clip-path="url(#pe43c57094f)" d="M 87.948142 277.149943 
L 90.176892 276.247805 
L 92.405642 275.636642 
L 93.148558 275.480027 
L 97.606058 273.81427 
L 99.834808 273.446277 
L 102.063557 272.821538 
L 105.77814 271.134911 
L 106.521057 270.70962 
L 108.00689 270.220037 
L 108.749807 270.154167 
L 109.492723 269.965614 
L 111.721473 269.828144 
L 114.693139 269.574146 
L 116.921889 270.234183 
L 118.407722 270.852296 
L 122.122305 272.200648 
L 122.865222 272.415487 
L 123.608138 272.764178 
L 125.093971 273.592937 
L 125.836888 273.941681 
L 128.065638 276.807764 
L 129.551471 278.613413 
L 131.037304 280.057541 
L 135.494803 283.13379 
L 137.723553 284.617927 
L 140.695219 286.032519 
L 142.181053 285.408933 
L 145.152719 283.984135 
L 145.895636 283.573775 
L 148.124385 282.945933 
L 149.610218 282.596189 
L 151.838968 282.551783 
L 153.324801 282.295429 
L 154.067718 282.012288 
L 155.553551 281.791561 
L 157.039384 281.688453 
L 159.268134 281.211108 
L 161.496884 281.000133 
L 162.2398 280.798296 
L 165.954383 278.79603 
L 168.183133 277.394569 
L 169.668966 276.272152 
L 172.640632 274.860504 
L 176.355215 272.779965 
L 177.841048 272.243469 
L 180.069798 271.987039 
L 181.555631 271.928539 
L 184.527298 272.329047 
L 186.013131 271.955601 
L 187.498964 271.56134 
L 193.442297 271.453425 
L 194.92813 271.26205 
L 197.15688 271.02178 
L 198.642713 270.846081 
L 200.871462 270.953248 
L 204.586045 271.263234 
L 211.272295 272.211528 
L 217.215627 272.42692 
L 220.187294 272.569305 
L 223.901876 272.514518 
L 225.38771 272.393652 
L 227.616459 272.078556 
L 228.359376 271.860584 
L 232.073959 269.96209 
L 235.045625 268.24933 
L 239.503125 264.978214 
L 241.731874 263.712914 
L 243.217708 262.914541 
L 246.93229 262.04727 
L 249.903957 261.742431 
L 254.361456 262.081084 
L 255.847289 261.901504 
L 256.590206 261.997656 
L 260.304789 263.805072 
L 261.790622 264.445964 
L 264.019372 265.267244 
L 266.248121 265.603425 
L 269.219788 266.142461 
L 271.448538 266.931151 
L 274.420204 266.533335 
L 277.39187 266.127999 
L 280.363537 266.069009 
L 281.84937 266.223806 
L 283.335203 266.228372 
L 284.821036 265.954087 
L 287.792702 265.16952 
L 290.764369 264.569425 
L 291.507285 264.320652 
L 293.736035 262.848614 
L 302.651034 256.683267 
L 304.136867 254.896083 
L 307.108533 252.164545 
L 308.594367 250.884336 
L 312.308949 247.384116 
L 314.537699 244.55146 
L 317.509366 240.520149 
L 318.252282 239.861048 
L 318.995199 239.525499 
L 321.223948 237.962493 
L 321.966865 237.037085 
L 325.681448 233.898418 
L 326.424364 233.337 
L 327.167281 233.019228 
L 328.653114 232.750506 
L 330.138947 232.977351 
L 333.110614 232.554264 
L 333.85353 231.676718 
L 336.08228 228.162194 
L 337.568113 226.54625 
L 340.539779 222.547006 
L 342.025613 219.573228 
L 343.511446 215.884071 
L 345.740196 209.118829 
L 349.454778 195.207902 
L 352.426445 181.443413 
L 354.655195 173.836793 
L 355.398111 170.798126 
L 356.883944 166.564495 
L 359.112694 161.268659 
L 359.855611 159.888459 
L 360.598527 159.583814 
L 361.341444 159.411069 
L 362.08436 159.606255 
L 362.827277 159.547378 
L 363.570193 159.922131 
L 364.31311 160.829422 
L 365.056027 162.735179 
L 365.798943 164.250626 
L 366.54186 165.506471 
L 367.284776 166.320826 
L 368.027693 166.812193 
L 368.77061 166.920881 
L 370.256443 167.615843 
L 370.999359 167.570646 
L 371.742276 167.091154 
L 372.485192 166.370075 
L 373.228109 165.90568 
L 374.713942 161.378604 
L 376.199775 155.271283 
L 379.171442 142.213076 
L 382.143108 126.130161 
L 384.371858 112.388881 
L 386.600607 105.489548 
L 388.086441 102.459903 
L 388.829357 102.708314 
L 391.058107 100.774794 
L 391.801024 100.573749 
L 392.54394 100.243294 
L 393.286857 100.189857 
L 395.515606 98.2811 
L 396.258523 97.372076 
L 397.744356 96.6854 
L 398.487273 95.897166 
L 398.487273 95.897166 
" style="fill:none;stroke:#2ca02c;stroke-linecap:square;stroke-width:1.5;"/>
   </g>
   <g id="line2d_18">
    <path clip-path="url(#pe43c57094f)" d="M 73.832727 280.974645 
L 74.575644 281.930217 
L 75.31856 280.308734 
L 76.804394 280.267748 
L 78.290227 276.892427 
L 79.033143 277.376282 
L 79.77606 278.327874 
L 80.518976 276.759751 
L 81.261893 277.487662 
L 82.00481 276.803473 
L 82.747726 277.11262 
L 83.490643 274.156352 
L 84.233559 274.151888 
L 84.976476 274.537551 
L 85.719393 273.80754 
L 86.462309 273.76155 
L 87.205226 274.614797 
L 87.948142 274.898162 
L 88.691059 274.492529 
L 89.433975 274.772988 
L 90.176892 275.905318 
L 90.919809 275.718558 
L 91.662725 276.137134 
L 93.148558 273.760132 
L 93.891475 271.689048 
L 94.634392 272.122048 
L 95.377308 271.202821 
L 96.120225 271.887579 
L 96.863141 271.70847 
L 98.348974 272.117065 
L 99.091891 272.606892 
L 99.834808 270.761967 
L 100.577724 270.184385 
L 101.320641 269.939906 
L 102.063557 269.564822 
L 102.806474 268.454561 
L 103.54939 269.754088 
L 104.292307 268.013123 
L 105.035224 267.668403 
L 105.77814 268.164829 
L 106.521057 267.631321 
L 107.263973 269.542234 
L 108.00689 269.444618 
L 108.749807 270.371657 
L 109.492723 268.350985 
L 110.23564 270.845874 
L 110.978556 270.787629 
L 111.721473 270.41597 
L 112.464389 270.532692 
L 113.207306 269.246368 
L 114.693139 272.023246 
L 115.436056 274.229239 
L 116.178972 274.117781 
L 116.921889 274.542822 
L 117.664805 275.28937 
L 118.407722 275.281543 
L 119.150639 273.655918 
L 119.893555 274.32164 
L 120.636472 274.322875 
L 121.379388 273.036727 
L 122.122305 272.649787 
L 122.865222 273.741412 
L 123.608138 277.345475 
L 124.351055 277.790793 
L 125.093971 277.981252 
L 125.836888 277.762492 
L 126.579804 290.55323 
L 127.322721 287.539924 
L 128.065638 289.423546 
L 128.808554 288.674998 
L 129.551471 290.007445 
L 130.294387 288.771723 
L 131.037304 288.457845 
L 131.780221 285.220669 
L 132.523137 285.10973 
L 133.266054 285.147606 
L 134.00897 286.806727 
L 134.751887 283.903854 
L 135.494803 282.750564 
L 136.23772 283.083597 
L 136.980637 282.989912 
L 137.723553 283.037165 
L 138.46647 285.025781 
L 139.209386 286.47681 
L 139.952303 283.584347 
L 140.695219 284.084907 
L 141.438136 283.14995 
L 142.181053 282.471474 
L 142.923969 282.86304 
L 143.666886 282.303582 
L 144.409802 282.700749 
L 145.152719 280.514382 
L 145.895636 280.250657 
L 147.381469 280.441944 
L 148.124385 282.147609 
L 148.867302 282.551493 
L 149.610218 281.164219 
L 150.353135 282.766217 
L 151.096052 282.252265 
L 151.838968 282.917474 
L 152.581885 281.533264 
L 153.324801 281.402591 
L 154.067718 280.813989 
L 154.810634 281.049666 
L 155.553551 282.205054 
L 156.296468 282.371451 
L 157.039384 281.187804 
L 157.782301 279.422757 
L 158.525217 279.650389 
L 159.268134 279.247326 
L 160.011051 279.230332 
L 161.496884 278.718591 
L 162.982717 274.437162 
L 163.725633 274.307352 
L 164.46855 273.802507 
L 165.211467 274.107568 
L 165.954383 274.181902 
L 166.6973 273.765214 
L 167.440216 272.296879 
L 168.183133 271.762006 
L 168.92605 269.189958 
L 169.668966 270.22537 
L 170.411883 275.596593 
L 171.154799 273.94731 
L 171.897716 274.482646 
L 172.640632 272.927543 
L 173.383549 270.891769 
L 174.869382 271.38676 
L 175.612299 270.080873 
L 176.355215 270.664484 
L 177.098132 270.01928 
L 177.841048 270.093171 
L 178.583965 271.933836 
L 179.326882 272.596518 
L 180.812715 272.48984 
L 181.555631 274.287274 
L 182.298548 273.888401 
L 183.041465 273.669402 
L 184.527298 271.457029 
L 185.270214 271.025559 
L 186.756047 270.966029 
L 187.498964 268.558936 
L 188.241881 270.841789 
L 188.984797 271.115117 
L 189.727714 269.821107 
L 190.47063 270.482547 
L 191.213547 270.727657 
L 191.956463 270.269381 
L 192.69938 270.527989 
L 194.185213 269.98664 
L 194.92813 271.340854 
L 195.671046 271.524318 
L 196.413963 271.568508 
L 197.15688 272.767295 
L 197.899796 271.278576 
L 199.385629 271.461725 
L 200.128546 272.182315 
L 201.614379 271.917095 
L 203.100212 270.853308 
L 203.843129 271.196188 
L 204.586045 272.190836 
L 205.328962 272.808147 
L 206.071879 272.65331 
L 206.814795 273.381124 
L 207.557712 272.940388 
L 208.300628 272.737246 
L 209.043545 272.696963 
L 209.786461 272.503549 
L 210.529378 272.945421 
L 212.015211 273.028146 
L 212.758128 272.489335 
L 213.501044 272.227694 
L 214.243961 272.167856 
L 214.986877 271.644504 
L 215.729794 272.735856 
L 216.472711 272.174313 
L 217.958544 272.10435 
L 218.70146 272.492886 
L 219.444377 272.443524 
L 220.187294 272.855421 
L 222.416043 272.687866 
L 223.901876 272.475595 
L 225.38771 271.19065 
L 226.873543 270.811045 
L 227.616459 270.346388 
L 228.359376 267.868247 
L 229.102292 264.98415 
L 229.845209 264.995992 
L 230.588126 264.696974 
L 231.331042 264.814897 
L 232.073959 263.430753 
L 232.816875 263.653444 
L 233.559792 264.229727 
L 234.302709 263.759932 
L 235.045625 263.997862 
L 235.788542 261.56648 
L 236.531458 261.438249 
L 237.274375 262.528042 
L 238.017291 262.115524 
L 238.760208 260.667478 
L 239.503125 261.416202 
L 240.246041 263.481909 
L 241.731874 261.723643 
L 242.474791 261.150341 
L 243.217708 261.096842 
L 243.960624 261.315125 
L 244.703541 259.3315 
L 245.446457 261.054011 
L 246.189374 261.410317 
L 246.93229 262.46639 
L 247.675207 262.081098 
L 248.418124 262.346947 
L 249.16104 261.788868 
L 249.903957 263.327279 
L 250.646873 262.989951 
L 251.38979 263.649902 
L 252.132706 262.891388 
L 252.875623 262.753172 
L 253.61854 262.155307 
L 254.361456 262.065309 
L 255.104373 260.861508 
L 255.847289 261.571186 
L 256.590206 263.646674 
L 257.333123 267.901525 
L 258.076039 267.282846 
L 258.818956 268.668688 
L 259.561872 268.442572 
L 260.304789 267.800512 
L 261.047705 268.996934 
L 261.790622 267.697613 
L 263.276455 267.296047 
L 264.019372 267.815314 
L 264.762288 266.268723 
L 265.505205 265.640332 
L 266.248121 264.781695 
L 266.991038 265.187147 
L 267.733955 265.20054 
L 268.476871 264.716434 
L 269.219788 265.541762 
L 269.962704 266.917695 
L 270.705621 266.896799 
L 271.448538 268.038674 
L 272.191454 266.299639 
L 272.934371 266.063318 
L 274.420204 265.965292 
L 275.16312 265.498992 
L 275.906037 265.915011 
L 276.648954 266.010632 
L 277.39187 266.494867 
L 278.134787 266.744487 
L 278.877703 266.796295 
L 280.363537 265.948197 
L 281.106453 266.650586 
L 281.84937 266.4142 
L 282.592286 265.353569 
L 283.335203 264.654725 
L 284.078119 263.639918 
L 284.821036 263.333839 
L 285.563953 262.626346 
L 286.306869 263.100914 
L 287.049786 263.107666 
L 287.792702 262.772156 
L 288.535619 263.55135 
L 289.278535 263.364394 
L 290.021452 262.745076 
L 290.764369 261.727657 
L 291.507285 261.035165 
L 292.250202 257.293182 
L 292.993118 256.550207 
L 293.736035 256.751496 
L 294.478952 255.96416 
L 295.221868 256.33495 
L 295.964785 256.213595 
L 296.707701 253.809106 
L 297.450618 255.334967 
L 298.193534 254.562806 
L 298.936451 254.11164 
L 299.679368 253.14224 
L 300.422284 253.285993 
L 301.165201 254.110384 
L 301.908117 252.158064 
L 302.651034 251.618906 
L 303.39395 245.576452 
L 304.136867 245.595621 
L 304.879784 248.733448 
L 305.6227 246.014808 
L 306.365617 246.665908 
L 307.108533 246.756147 
L 307.85145 245.100613 
L 308.594367 242.596922 
L 309.337283 242.473455 
L 310.0802 243.545833 
L 310.823116 243.998438 
L 311.566033 240.829861 
L 312.308949 236.804787 
L 313.051866 236.346019 
L 313.794783 236.220467 
L 314.537699 232.597066 
L 315.280616 232.504076 
L 316.023532 233.658032 
L 316.766449 233.834059 
L 317.509366 230.550964 
L 318.252282 232.394436 
L 318.995199 238.884645 
L 319.738115 238.994909 
L 320.481032 236.545224 
L 321.223948 234.613906 
L 321.966865 228.247986 
L 322.709782 232.092681 
L 323.452698 230.277418 
L 324.195615 229.333842 
L 324.938531 232.67293 
L 325.681448 230.565044 
L 326.424364 229.601505 
L 327.167281 230.449346 
L 327.910198 234.083227 
L 328.653114 233.108822 
L 329.396031 234.36384 
L 330.138947 235.274209 
L 330.881864 232.025865 
L 331.624781 230.51944 
L 332.367697 230.072514 
L 333.110614 229.357925 
L 333.85353 221.333727 
L 334.596447 215.174656 
L 335.339363 213.822738 
L 336.08228 210.866175 
L 336.825197 212.451004 
L 337.568113 215.570777 
L 338.31103 210.941975 
L 339.053946 213.419583 
L 339.796863 211.31115 
L 340.539779 207.19164 
L 341.282696 199.871397 
L 342.025613 200.703902 
L 342.768529 197.361683 
L 343.511446 196.04722 
L 344.254362 189.594915 
L 344.997279 189.299161 
L 345.740196 187.465003 
L 346.483112 175.644515 
L 347.226029 172.127308 
L 347.968945 176.406441 
L 348.711862 167.90995 
L 350.197695 144.996766 
L 350.940612 140.19094 
L 351.683528 141.828603 
L 352.426445 150.404594 
L 353.169361 161.895138 
L 353.912278 167.805055 
L 354.655195 153.840126 
L 355.398111 146.418287 
L 356.141028 156.391295 
L 356.883944 159.511383 
L 357.626861 160.287039 
L 358.369777 156.867407 
L 359.112694 159.932655 
L 359.855611 161.695168 
L 360.598527 181.372095 
L 361.341444 172.189617 
L 362.08436 176.031034 
L 362.827277 175.228901 
L 363.570193 175.405006 
L 364.31311 174.297342 
L 365.056027 183.111901 
L 365.798943 170.499872 
L 366.54186 166.945498 
L 367.284776 166.691705 
L 368.027693 171.722483 
L 368.77061 169.978802 
L 370.256443 152.536773 
L 370.999359 155.487355 
L 371.742276 149.921547 
L 372.485192 145.865455 
L 373.228109 147.579508 
L 373.971026 115.682567 
L 374.713942 115.403751 
L 375.456859 122.338758 
L 376.199775 109.076535 
L 376.942692 111.579229 
L 377.685608 112.416205 
L 378.428525 106.429146 
L 379.171442 109.373559 
L 379.914358 104.102416 
L 380.657275 91.713851 
L 381.400191 94.046666 
L 382.143108 75.727729 
L 382.886025 75.831712 
L 383.628941 69.332666 
L 384.371858 83.332193 
L 385.114774 105.301484 
L 385.857691 101.79117 
L 386.600607 112.866353 
L 387.343524 116.130462 
L 388.086441 116.721598 
L 388.829357 120.650796 
L 389.572274 102.274976 
L 390.31519 106.978546 
L 391.058107 98.895127 
L 391.801024 107.558318 
L 392.54394 105.807105 
L 393.286857 105.360418 
L 394.029773 96.520786 
L 394.77269 90.593418 
L 395.515606 79.900473 
L 396.258523 75.866183 
L 397.00144 67.706964 
L 397.744356 70.118956 
L 398.487273 53.568 
L 398.487273 53.568 
" style="fill:none;stroke:#d62728;stroke-linecap:square;stroke-width:1.5;"/>
   </g>
   <g id="patch_3">
    <path d="M 57.6 307.584 
L 57.6 41.472 
" style="fill:none;stroke:#000000;stroke-linecap:square;stroke-linejoin:miter;stroke-width:0.8;"/>
   </g>
   <g id="patch_4">
    <path d="M 414.72 307.584 
L 414.72 41.472 
" style="fill:none;stroke:#000000;stroke-linecap:square;stroke-linejoin:miter;stroke-width:0.8;"/>
   </g>
   <g id="patch_5">
    <path d="M 57.6 307.584 
L 414.72 307.584 
" style="fill:none;stroke:#000000;stroke-linecap:square;stroke-linejoin:miter;stroke-width:0.8;"/>
   </g>
   <g id="patch_6">
    <path d="M 57.6 41.472 
L 414.72 41.472 
" style="fill:none;stroke:#000000;stroke-linecap:square;stroke-linejoin:miter;stroke-width:0.8;"/>
   </g>
   <g id="text_15">
    <!-- Data source: coindesk -->
    <g transform="translate(180.640469 35.472)scale(0.1 -0.1)">
     <defs>
      <path d="M 19.671875 64.796875 
L 19.671875 8.109375 
L 31.59375 8.109375 
Q 46.6875 8.109375 53.6875 14.9375 
Q 60.6875 21.78125 60.6875 36.53125 
Q 60.6875 51.171875 53.6875 57.984375 
Q 46.6875 64.796875 31.59375 64.796875 
z
M 9.8125 72.90625 
L 30.078125 72.90625 
Q 51.265625 72.90625 61.171875 64.09375 
Q 71.09375 55.28125 71.09375 36.53125 
Q 71.09375 17.671875 61.125 8.828125 
Q 51.171875 0 30.078125 0 
L 9.8125 0 
z
" id="DejaVuSans-68"/>
      <path d="M 34.28125 27.484375 
Q 23.390625 27.484375 19.1875 25 
Q 14.984375 22.515625 14.984375 16.5 
Q 14.984375 11.71875 18.140625 8.90625 
Q 21.296875 6.109375 26.703125 6.109375 
Q 34.1875 6.109375 38.703125 11.40625 
Q 43.21875 16.703125 43.21875 25.484375 
L 43.21875 27.484375 
z
M 52.203125 31.203125 
L 52.203125 0 
L 43.21875 0 
L 43.21875 8.296875 
Q 40.140625 3.328125 35.546875 0.953125 
Q 30.953125 -1.421875 24.3125 -1.421875 
Q 15.921875 -1.421875 10.953125 3.296875 
Q 6 8.015625 6 15.921875 
Q 6 25.140625 12.171875 29.828125 
Q 18.359375 34.515625 30.609375 34.515625 
L 43.21875 34.515625 
L 43.21875 35.40625 
Q 43.21875 41.609375 39.140625 45 
Q 35.0625 48.390625 27.6875 48.390625 
Q 23 48.390625 18.546875 47.265625 
Q 14.109375 46.140625 10.015625 43.890625 
L 10.015625 52.203125 
Q 14.9375 54.109375 19.578125 55.046875 
Q 24.21875 56 28.609375 56 
Q 40.484375 56 46.34375 49.84375 
Q 52.203125 43.703125 52.203125 31.203125 
z
" id="DejaVuSans-97"/>
      <path d="M 18.3125 70.21875 
L 18.3125 54.6875 
L 36.8125 54.6875 
L 36.8125 47.703125 
L 18.3125 47.703125 
L 18.3125 18.015625 
Q 18.3125 11.328125 20.140625 9.421875 
Q 21.96875 7.515625 27.59375 7.515625 
L 36.8125 7.515625 
L 36.8125 0 
L 27.59375 0 
Q 17.1875 0 13.234375 3.875 
Q 9.28125 7.765625 9.28125 18.015625 
L 9.28125 47.703125 
L 2.6875 47.703125 
L 2.6875 54.6875 
L 9.28125 54.6875 
L 9.28125 70.21875 
z
" id="DejaVuSans-116"/>
      <path id="DejaVuSans-32"/>
      <path d="M 44.28125 53.078125 
L 44.28125 44.578125 
Q 40.484375 46.53125 36.375 47.5 
Q 32.28125 48.484375 27.875 48.484375 
Q 21.1875 48.484375 17.84375 46.4375 
Q 14.5 44.390625 14.5 40.28125 
Q 14.5 37.15625 16.890625 35.375 
Q 19.28125 33.59375 26.515625 31.984375 
L 29.59375 31.296875 
Q 39.15625 29.25 43.1875 25.515625 
Q 47.21875 21.78125 47.21875 15.09375 
Q 47.21875 7.46875 41.1875 3.015625 
Q 35.15625 -1.421875 24.609375 -1.421875 
Q 20.21875 -1.421875 15.453125 -0.5625 
Q 10.6875 0.296875 5.421875 2 
L 5.421875 11.28125 
Q 10.40625 8.6875 15.234375 7.390625 
Q 20.0625 6.109375 24.8125 6.109375 
Q 31.15625 6.109375 34.5625 8.28125 
Q 37.984375 10.453125 37.984375 14.40625 
Q 37.984375 18.0625 35.515625 20.015625 
Q 33.0625 21.96875 24.703125 23.78125 
L 21.578125 24.515625 
Q 13.234375 26.265625 9.515625 29.90625 
Q 5.8125 33.546875 5.8125 39.890625 
Q 5.8125 47.609375 11.28125 51.796875 
Q 16.75 56 26.8125 56 
Q 31.78125 56 36.171875 55.265625 
Q 40.578125 54.546875 44.28125 53.078125 
z
" id="DejaVuSans-115"/>
      <path d="M 30.609375 48.390625 
Q 23.390625 48.390625 19.1875 42.75 
Q 14.984375 37.109375 14.984375 27.296875 
Q 14.984375 17.484375 19.15625 11.84375 
Q 23.34375 6.203125 30.609375 6.203125 
Q 37.796875 6.203125 41.984375 11.859375 
Q 46.1875 17.53125 46.1875 27.296875 
Q 46.1875 37.015625 41.984375 42.703125 
Q 37.796875 48.390625 30.609375 48.390625 
z
M 30.609375 56 
Q 42.328125 56 49.015625 48.375 
Q 55.71875 40.765625 55.71875 27.296875 
Q 55.71875 13.875 49.015625 6.21875 
Q 42.328125 -1.421875 30.609375 -1.421875 
Q 18.84375 -1.421875 12.171875 6.21875 
Q 5.515625 13.875 5.515625 27.296875 
Q 5.515625 40.765625 12.171875 48.375 
Q 18.84375 56 30.609375 56 
z
" id="DejaVuSans-111"/>
      <path d="M 8.5 21.578125 
L 8.5 54.6875 
L 17.484375 54.6875 
L 17.484375 21.921875 
Q 17.484375 14.15625 20.5 10.265625 
Q 23.53125 6.390625 29.59375 6.390625 
Q 36.859375 6.390625 41.078125 11.03125 
Q 45.3125 15.671875 45.3125 23.6875 
L 45.3125 54.6875 
L 54.296875 54.6875 
L 54.296875 0 
L 45.3125 0 
L 45.3125 8.40625 
Q 42.046875 3.421875 37.71875 1 
Q 33.40625 -1.421875 27.6875 -1.421875 
Q 18.265625 -1.421875 13.375 4.4375 
Q 8.5 10.296875 8.5 21.578125 
z
M 31.109375 56 
z
" id="DejaVuSans-117"/>
      <path d="M 41.109375 46.296875 
Q 39.59375 47.171875 37.8125 47.578125 
Q 36.03125 48 33.890625 48 
Q 26.265625 48 22.1875 43.046875 
Q 18.109375 38.09375 18.109375 28.8125 
L 18.109375 0 
L 9.078125 0 
L 9.078125 54.6875 
L 18.109375 54.6875 
L 18.109375 46.1875 
Q 20.953125 51.171875 25.484375 53.578125 
Q 30.03125 56 36.53125 56 
Q 37.453125 56 38.578125 55.875 
Q 39.703125 55.765625 41.0625 55.515625 
z
" id="DejaVuSans-114"/>
      <path d="M 48.78125 52.59375 
L 48.78125 44.1875 
Q 44.96875 46.296875 41.140625 47.34375 
Q 37.3125 48.390625 33.40625 48.390625 
Q 24.65625 48.390625 19.8125 42.84375 
Q 14.984375 37.3125 14.984375 27.296875 
Q 14.984375 17.28125 19.8125 11.734375 
Q 24.65625 6.203125 33.40625 6.203125 
Q 37.3125 6.203125 41.140625 7.25 
Q 44.96875 8.296875 48.78125 10.40625 
L 48.78125 2.09375 
Q 45.015625 0.34375 40.984375 -0.53125 
Q 36.96875 -1.421875 32.421875 -1.421875 
Q 20.0625 -1.421875 12.78125 6.34375 
Q 5.515625 14.109375 5.515625 27.296875 
Q 5.515625 40.671875 12.859375 48.328125 
Q 20.21875 56 33.015625 56 
Q 37.15625 56 41.109375 55.140625 
Q 45.0625 54.296875 48.78125 52.59375 
z
" id="DejaVuSans-99"/>
      <path d="M 56.203125 29.59375 
L 56.203125 25.203125 
L 14.890625 25.203125 
Q 15.484375 15.921875 20.484375 11.0625 
Q 25.484375 6.203125 34.421875 6.203125 
Q 39.59375 6.203125 44.453125 7.46875 
Q 49.3125 8.734375 54.109375 11.28125 
L 54.109375 2.78125 
Q 49.265625 0.734375 44.1875 -0.34375 
Q 39.109375 -1.421875 33.890625 -1.421875 
Q 20.796875 -1.421875 13.15625 6.1875 
Q 5.515625 13.8125 5.515625 26.8125 
Q 5.515625 40.234375 12.765625 48.109375 
Q 20.015625 56 32.328125 56 
Q 43.359375 56 49.78125 48.890625 
Q 56.203125 41.796875 56.203125 29.59375 
z
M 47.21875 32.234375 
Q 47.125 39.59375 43.09375 43.984375 
Q 39.0625 48.390625 32.421875 48.390625 
Q 24.90625 48.390625 20.390625 44.140625 
Q 15.875 39.890625 15.1875 32.171875 
z
" id="DejaVuSans-101"/>
      <path d="M 11.71875 12.40625 
L 22.015625 12.40625 
L 22.015625 0 
L 11.71875 0 
z
M 11.71875 51.703125 
L 22.015625 51.703125 
L 22.015625 39.3125 
L 11.71875 39.3125 
z
" id="DejaVuSans-58"/>
      <path d="M 9.421875 54.6875 
L 18.40625 54.6875 
L 18.40625 0 
L 9.421875 0 
z
M 9.421875 75.984375 
L 18.40625 75.984375 
L 18.40625 64.59375 
L 9.421875 64.59375 
z
" id="DejaVuSans-105"/>
      <path d="M 54.890625 33.015625 
L 54.890625 0 
L 45.90625 0 
L 45.90625 32.71875 
Q 45.90625 40.484375 42.875 44.328125 
Q 39.84375 48.1875 33.796875 48.1875 
Q 26.515625 48.1875 22.3125 43.546875 
Q 18.109375 38.921875 18.109375 30.90625 
L 18.109375 0 
L 9.078125 0 
L 9.078125 54.6875 
L 18.109375 54.6875 
L 18.109375 46.1875 
Q 21.34375 51.125 25.703125 53.5625 
Q 30.078125 56 35.796875 56 
Q 45.21875 56 50.046875 50.171875 
Q 54.890625 44.34375 54.890625 33.015625 
z
" id="DejaVuSans-110"/>
      <path d="M 45.40625 46.390625 
L 45.40625 75.984375 
L 54.390625 75.984375 
L 54.390625 0 
L 45.40625 0 
L 45.40625 8.203125 
Q 42.578125 3.328125 38.25 0.953125 
Q 33.9375 -1.421875 27.875 -1.421875 
Q 17.96875 -1.421875 11.734375 6.484375 
Q 5.515625 14.40625 5.515625 27.296875 
Q 5.515625 40.1875 11.734375 48.09375 
Q 17.96875 56 27.875 56 
Q 33.9375 56 38.25 53.625 
Q 42.578125 51.265625 45.40625 46.390625 
z
M 14.796875 27.296875 
Q 14.796875 17.390625 18.875 11.75 
Q 22.953125 6.109375 30.078125 6.109375 
Q 37.203125 6.109375 41.296875 11.75 
Q 45.40625 17.390625 45.40625 27.296875 
Q 45.40625 37.203125 41.296875 42.84375 
Q 37.203125 48.484375 30.078125 48.484375 
Q 22.953125 48.484375 18.875 42.84375 
Q 14.796875 37.203125 14.796875 27.296875 
z
" id="DejaVuSans-100"/>
      <path d="M 9.078125 75.984375 
L 18.109375 75.984375 
L 18.109375 31.109375 
L 44.921875 54.6875 
L 56.390625 54.6875 
L 27.390625 29.109375 
L 57.625 0 
L 45.90625 0 
L 18.109375 26.703125 
L 18.109375 0 
L 9.078125 0 
z
" id="DejaVuSans-107"/>
     </defs>
     <use xlink:href="#DejaVuSans-68"/>
     <use x="77.001953" xlink:href="#DejaVuSans-97"/>
     <use x="138.28125" xlink:href="#DejaVuSans-116"/>
     <use x="177.490234" xlink:href="#DejaVuSans-97"/>
     <use x="238.769531" xlink:href="#DejaVuSans-32"/>
     <use x="270.556641" xlink:href="#DejaVuSans-115"/>
     <use x="322.65625" xlink:href="#DejaVuSans-111"/>
     <use x="383.837891" xlink:href="#DejaVuSans-117"/>
     <use x="447.216797" xlink:href="#DejaVuSans-114"/>
     <use x="486.080078" xlink:href="#DejaVuSans-99"/>
     <use x="541.060547" xlink:href="#DejaVuSans-101"/>
     <use x="602.583984" xlink:href="#DejaVuSans-58"/>
     <use x="636.275391" xlink:href="#DejaVuSans-32"/>
     <use x="668.0625" xlink:href="#DejaVuSans-99"/>
     <use x="723.042969" xlink:href="#DejaVuSans-111"/>
     <use x="784.224609" xlink:href="#DejaVuSans-105"/>
     <use x="812.007812" xlink:href="#DejaVuSans-110"/>
     <use x="875.386719" xlink:href="#DejaVuSans-100"/>
     <use x="938.863281" xlink:href="#DejaVuSans-101"/>
     <use x="1000.386719" xlink:href="#DejaVuSans-115"/>
     <use x="1052.486328" xlink:href="#DejaVuSans-107"/>
    </g>
   </g>
   <g id="legend_1">
    <g id="patch_7">
     <path d="M 64.6 108.1845 
L 155.732812 108.1845 
Q 157.732812 108.1845 157.732812 106.1845 
L 157.732812 48.472 
Q 157.732812 46.472 155.732812 46.472 
L 64.6 46.472 
Q 62.6 46.472 62.6 48.472 
L 62.6 106.1845 
Q 62.6 108.1845 64.6 108.1845 
z
" style="fill:#ffffff;opacity:0.8;stroke:#cccccc;stroke-linejoin:miter;"/>
    </g>
    <g id="line2d_19">
     <path d="M 66.6 54.570438 
L 86.6 54.570438 
" style="fill:none;stroke:#1f77b4;stroke-linecap:square;stroke-width:1.5;"/>
    </g>
    <g id="line2d_20"/>
    <g id="text_16">
     <!-- Upper Band -->
     <g transform="translate(94.6 58.070438)scale(0.1 -0.1)">
      <defs>
       <path d="M 8.6875 72.90625 
L 18.609375 72.90625 
L 18.609375 28.609375 
Q 18.609375 16.890625 22.84375 11.734375 
Q 27.09375 6.59375 36.625 6.59375 
Q 46.09375 6.59375 50.34375 11.734375 
Q 54.59375 16.890625 54.59375 28.609375 
L 54.59375 72.90625 
L 64.5 72.90625 
L 64.5 27.390625 
Q 64.5 13.140625 57.4375 5.859375 
Q 50.390625 -1.421875 36.625 -1.421875 
Q 22.796875 -1.421875 15.734375 5.859375 
Q 8.6875 13.140625 8.6875 27.390625 
z
" id="DejaVuSans-85"/>
       <path d="M 18.109375 8.203125 
L 18.109375 -20.796875 
L 9.078125 -20.796875 
L 9.078125 54.6875 
L 18.109375 54.6875 
L 18.109375 46.390625 
Q 20.953125 51.265625 25.265625 53.625 
Q 29.59375 56 35.59375 56 
Q 45.5625 56 51.78125 48.09375 
Q 58.015625 40.1875 58.015625 27.296875 
Q 58.015625 14.40625 51.78125 6.484375 
Q 45.5625 -1.421875 35.59375 -1.421875 
Q 29.59375 -1.421875 25.265625 0.953125 
Q 20.953125 3.328125 18.109375 8.203125 
z
M 48.6875 27.296875 
Q 48.6875 37.203125 44.609375 42.84375 
Q 40.53125 48.484375 33.40625 48.484375 
Q 26.265625 48.484375 22.1875 42.84375 
Q 18.109375 37.203125 18.109375 27.296875 
Q 18.109375 17.390625 22.1875 11.75 
Q 26.265625 6.109375 33.40625 6.109375 
Q 40.53125 6.109375 44.609375 11.75 
Q 48.6875 17.390625 48.6875 27.296875 
z
" id="DejaVuSans-112"/>
       <path d="M 19.671875 34.8125 
L 19.671875 8.109375 
L 35.5 8.109375 
Q 43.453125 8.109375 47.28125 11.40625 
Q 51.125 14.703125 51.125 21.484375 
Q 51.125 28.328125 47.28125 31.5625 
Q 43.453125 34.8125 35.5 34.8125 
z
M 19.671875 64.796875 
L 19.671875 42.828125 
L 34.28125 42.828125 
Q 41.5 42.828125 45.03125 45.53125 
Q 48.578125 48.25 48.578125 53.8125 
Q 48.578125 59.328125 45.03125 62.0625 
Q 41.5 64.796875 34.28125 64.796875 
z
M 9.8125 72.90625 
L 35.015625 72.90625 
Q 46.296875 72.90625 52.390625 68.21875 
Q 58.5 63.53125 58.5 54.890625 
Q 58.5 48.1875 55.375 44.234375 
Q 52.25 40.28125 46.1875 39.3125 
Q 53.46875 37.75 57.5 32.78125 
Q 61.53125 27.828125 61.53125 20.40625 
Q 61.53125 10.640625 54.890625 5.3125 
Q 48.25 0 35.984375 0 
L 9.8125 0 
z
" id="DejaVuSans-66"/>
      </defs>
      <use xlink:href="#DejaVuSans-85"/>
      <use x="73.193359" xlink:href="#DejaVuSans-112"/>
      <use x="136.669922" xlink:href="#DejaVuSans-112"/>
      <use x="200.146484" xlink:href="#DejaVuSans-101"/>
      <use x="261.669922" xlink:href="#DejaVuSans-114"/>
      <use x="302.783203" xlink:href="#DejaVuSans-32"/>
      <use x="334.570312" xlink:href="#DejaVuSans-66"/>
      <use x="403.173828" xlink:href="#DejaVuSans-97"/>
      <use x="464.453125" xlink:href="#DejaVuSans-110"/>
      <use x="527.832031" xlink:href="#DejaVuSans-100"/>
     </g>
    </g>
    <g id="line2d_21">
     <path d="M 66.6 69.248563 
L 86.6 69.248563 
" style="fill:none;stroke:#ff7f0e;stroke-linecap:square;stroke-width:1.5;"/>
    </g>
    <g id="line2d_22"/>
    <g id="text_17">
     <!-- Lower Band -->
     <g transform="translate(94.6 72.748563)scale(0.1 -0.1)">
      <defs>
       <path d="M 9.8125 72.90625 
L 19.671875 72.90625 
L 19.671875 8.296875 
L 55.171875 8.296875 
L 55.171875 0 
L 9.8125 0 
z
" id="DejaVuSans-76"/>
       <path d="M 4.203125 54.6875 
L 13.1875 54.6875 
L 24.421875 12.015625 
L 35.59375 54.6875 
L 46.1875 54.6875 
L 57.421875 12.015625 
L 68.609375 54.6875 
L 77.59375 54.6875 
L 63.28125 0 
L 52.6875 0 
L 40.921875 44.828125 
L 29.109375 0 
L 18.5 0 
z
" id="DejaVuSans-119"/>
      </defs>
      <use xlink:href="#DejaVuSans-76"/>
      <use x="53.962891" xlink:href="#DejaVuSans-111"/>
      <use x="115.144531" xlink:href="#DejaVuSans-119"/>
      <use x="196.931641" xlink:href="#DejaVuSans-101"/>
      <use x="258.455078" xlink:href="#DejaVuSans-114"/>
      <use x="299.568359" xlink:href="#DejaVuSans-32"/>
      <use x="331.355469" xlink:href="#DejaVuSans-66"/>
      <use x="399.958984" xlink:href="#DejaVuSans-97"/>
      <use x="461.238281" xlink:href="#DejaVuSans-110"/>
      <use x="524.617188" xlink:href="#DejaVuSans-100"/>
     </g>
    </g>
    <g id="line2d_23">
     <path d="M 66.6 83.926688 
L 86.6 83.926688 
" style="fill:none;stroke:#2ca02c;stroke-linecap:square;stroke-width:1.5;"/>
    </g>
    <g id="line2d_24"/>
    <g id="text_18">
     <!-- MA -->
     <g transform="translate(94.6 87.426688)scale(0.1 -0.1)">
      <defs>
       <path d="M 9.8125 72.90625 
L 24.515625 72.90625 
L 43.109375 23.296875 
L 61.8125 72.90625 
L 76.515625 72.90625 
L 76.515625 0 
L 66.890625 0 
L 66.890625 64.015625 
L 48.09375 14.015625 
L 38.1875 14.015625 
L 19.390625 64.015625 
L 19.390625 0 
L 9.8125 0 
z
" id="DejaVuSans-77"/>
       <path d="M 34.1875 63.1875 
L 20.796875 26.90625 
L 47.609375 26.90625 
z
M 28.609375 72.90625 
L 39.796875 72.90625 
L 67.578125 0 
L 57.328125 0 
L 50.6875 18.703125 
L 17.828125 18.703125 
L 11.1875 0 
L 0.78125 0 
z
" id="DejaVuSans-65"/>
      </defs>
      <use xlink:href="#DejaVuSans-77"/>
      <use x="86.279297" xlink:href="#DejaVuSans-65"/>
     </g>
    </g>
    <g id="line2d_25">
     <path d="M 66.6 98.604813 
L 86.6 98.604813 
" style="fill:none;stroke:#d62728;stroke-linecap:square;stroke-width:1.5;"/>
    </g>
    <g id="line2d_26"/>
    <g id="text_19">
     <!-- BTC-USD -->
     <g transform="translate(94.6 102.104813)scale(0.1 -0.1)">
      <defs>
       <path d="M -0.296875 72.90625 
L 61.375 72.90625 
L 61.375 64.59375 
L 35.5 64.59375 
L 35.5 0 
L 25.59375 0 
L 25.59375 64.59375 
L -0.296875 64.59375 
z
" id="DejaVuSans-84"/>
       <path d="M 64.40625 67.28125 
L 64.40625 56.890625 
Q 59.421875 61.53125 53.78125 63.8125 
Q 48.140625 66.109375 41.796875 66.109375 
Q 29.296875 66.109375 22.65625 58.46875 
Q 16.015625 50.828125 16.015625 36.375 
Q 16.015625 21.96875 22.65625 14.328125 
Q 29.296875 6.6875 41.796875 6.6875 
Q 48.140625 6.6875 53.78125 8.984375 
Q 59.421875 11.28125 64.40625 15.921875 
L 64.40625 5.609375 
Q 59.234375 2.09375 53.4375 0.328125 
Q 47.65625 -1.421875 41.21875 -1.421875 
Q 24.65625 -1.421875 15.125 8.703125 
Q 5.609375 18.84375 5.609375 36.375 
Q 5.609375 53.953125 15.125 64.078125 
Q 24.65625 74.21875 41.21875 74.21875 
Q 47.75 74.21875 53.53125 72.484375 
Q 59.328125 70.75 64.40625 67.28125 
z
" id="DejaVuSans-67"/>
       <path d="M 53.515625 70.515625 
L 53.515625 60.890625 
Q 47.90625 63.578125 42.921875 64.890625 
Q 37.9375 66.21875 33.296875 66.21875 
Q 25.25 66.21875 20.875 63.09375 
Q 16.5 59.96875 16.5 54.203125 
Q 16.5 49.359375 19.40625 46.890625 
Q 22.3125 44.4375 30.421875 42.921875 
L 36.375 41.703125 
Q 47.40625 39.59375 52.65625 34.296875 
Q 57.90625 29 57.90625 20.125 
Q 57.90625 9.515625 50.796875 4.046875 
Q 43.703125 -1.421875 29.984375 -1.421875 
Q 24.8125 -1.421875 18.96875 -0.25 
Q 13.140625 0.921875 6.890625 3.21875 
L 6.890625 13.375 
Q 12.890625 10.015625 18.65625 8.296875 
Q 24.421875 6.59375 29.984375 6.59375 
Q 38.421875 6.59375 43.015625 9.90625 
Q 47.609375 13.234375 47.609375 19.390625 
Q 47.609375 24.75 44.3125 27.78125 
Q 41.015625 30.8125 33.5 32.328125 
L 27.484375 33.5 
Q 16.453125 35.6875 11.515625 40.375 
Q 6.59375 45.0625 6.59375 53.421875 
Q 6.59375 63.09375 13.40625 68.65625 
Q 20.21875 74.21875 32.171875 74.21875 
Q 37.3125 74.21875 42.625 73.28125 
Q 47.953125 72.359375 53.515625 70.515625 
z
" id="DejaVuSans-83"/>
      </defs>
      <use xlink:href="#DejaVuSans-66"/>
      <use x="68.603516" xlink:href="#DejaVuSans-84"/>
      <use x="123.8125" xlink:href="#DejaVuSans-67"/>
      <use x="193.636719" xlink:href="#DejaVuSans-45"/>
      <use x="229.720703" xlink:href="#DejaVuSans-85"/>
      <use x="302.914062" xlink:href="#DejaVuSans-83"/>
      <use x="366.390625" xlink:href="#DejaVuSans-68"/>
     </g>
    </g>
   </g>
  </g>
  <g id="text_20">
   <!-- Bollinger Band -->
   <g transform="translate(171.90625 19.0695)scale(0.16 -0.16)">
    <defs>
     <path d="M 9.421875 75.984375 
L 18.40625 75.984375 
L 18.40625 0 
L 9.421875 0 
z
" id="DejaVuSans-108"/>
     <path d="M 45.40625 27.984375 
Q 45.40625 37.75 41.375 43.109375 
Q 37.359375 48.484375 30.078125 48.484375 
Q 22.859375 48.484375 18.828125 43.109375 
Q 14.796875 37.75 14.796875 27.984375 
Q 14.796875 18.265625 18.828125 12.890625 
Q 22.859375 7.515625 30.078125 7.515625 
Q 37.359375 7.515625 41.375 12.890625 
Q 45.40625 18.265625 45.40625 27.984375 
z
M 54.390625 6.78125 
Q 54.390625 -7.171875 48.1875 -13.984375 
Q 42 -20.796875 29.203125 -20.796875 
Q 24.46875 -20.796875 20.265625 -20.09375 
Q 16.0625 -19.390625 12.109375 -17.921875 
L 12.109375 -9.1875 
Q 16.0625 -11.328125 19.921875 -12.34375 
Q 23.78125 -13.375 27.78125 -13.375 
Q 36.625 -13.375 41.015625 -8.765625 
Q 45.40625 -4.15625 45.40625 5.171875 
L 45.40625 9.625 
Q 42.625 4.78125 38.28125 2.390625 
Q 33.9375 0 27.875 0 
Q 17.828125 0 11.671875 7.65625 
Q 5.515625 15.328125 5.515625 27.984375 
Q 5.515625 40.671875 11.671875 48.328125 
Q 17.828125 56 27.875 56 
Q 33.9375 56 38.28125 53.609375 
Q 42.625 51.21875 45.40625 46.390625 
L 45.40625 54.6875 
L 54.390625 54.6875 
z
" id="DejaVuSans-103"/>
    </defs>
    <use xlink:href="#DejaVuSans-66"/>
    <use x="68.603516" xlink:href="#DejaVuSans-111"/>
    <use x="129.785156" xlink:href="#DejaVuSans-108"/>
    <use x="157.568359" xlink:href="#DejaVuSans-108"/>
    <use x="185.351562" xlink:href="#DejaVuSans-105"/>
    <use x="213.134766" xlink:href="#DejaVuSans-110"/>
    <use x="276.513672" xlink:href="#DejaVuSans-103"/>
    <use x="339.990234" xlink:href="#DejaVuSans-101"/>
    <use x="401.513672" xlink:href="#DejaVuSans-114"/>
    <use x="442.626953" xlink:href="#DejaVuSans-32"/>
    <use x="474.414062" xlink:href="#DejaVuSans-66"/>
    <use x="543.017578" xlink:href="#DejaVuSans-97"/>
    <use x="604.296875" xlink:href="#DejaVuSans-110"/>
    <use x="667.675781" xlink:href="#DejaVuSans-100"/>
   </g>
  </g>
 </g>
 <defs>
  <clipPath id="pe43c57094f">
   <rect height="266.112" width="357.12" x="57.6" y="41.472"/>
  </clipPath>
 </defs>
</svg>
