<?xml version="1.0" encoding="utf-8" standalone="no"?>
<!DOCTYPE svg PUBLIC "-//W3C//DTD SVG 1.1//EN"
  "http://www.w3.org/Graphics/SVG/1.1/DTD/svg11.dtd">
<!-- Created with matplotlib (https://matplotlib.org/) -->
<svg height="345.6pt" version="1.1" viewBox="0 0 460.8 345.6" width="460.8pt" xmlns="http://www.w3.org/2000/svg" xmlns:xlink="http://www.w3.org/1999/xlink">
 <metadata>
  <rdf:RDF xmlns:cc="http://creativecommons.org/ns#" xmlns:dc="http://purl.org/dc/elements/1.1/" xmlns:rdf="http://www.w3.org/1999/02/22-rdf-syntax-ns#">
   <cc:Work>
    <dc:type rdf:resource="http://purl.org/dc/dcmitype/StillImage"/>
    <dc:date>2021-01-25T19:00:13.961893</dc:date>
    <dc:format>image/svg+xml</dc:format>
    <dc:creator>
     <cc:Agent>
      <dc:title>Matplotlib v3.3.2, https://matplotlib.org/</dc:title>
     </cc:Agent>
    </dc:creator>
   </cc:Work>
  </rdf:RDF>
 </metadata>
 <defs>
  <style type="text/css">*{stroke-linecap:butt;stroke-linejoin:round;}</style>
 </defs>
 <g id="figure_1">
  <g id="patch_1">
   <path d="M 0 345.6 
L 460.8 345.6 
L 460.8 0 
L 0 0 
z
" style="fill:#ffffff;"/>
  </g>
  <g id="axes_1">
   <g id="patch_2">
    <path d="M 57.6 307.584 
L 414.72 307.584 
L 414.72 41.472 
L 57.6 41.472 
z
" style="fill:#ffffff;"/>
   </g>
   <g id="PolyCollection_1">
    <defs>
     <path d="M 89.649231 -69.173241 
L 89.649231 -84.366595 
L 90.481678 -84.549187 
L 91.314126 -84.284516 
L 92.146573 -84.056236 
L 92.979021 -83.719392 
L 93.811469 -83.158392 
L 94.643916 -83.021246 
L 95.476364 -83.327961 
L 96.308811 -84.208179 
L 97.141259 -84.547114 
L 97.973706 -85.354614 
L 98.806154 -85.648173 
L 99.638601 -85.99193 
L 100.471049 -86.075847 
L 101.303497 -86.349846 
L 102.135944 -86.506074 
L 102.968392 -87.093373 
L 103.800839 -87.782127 
L 104.633287 -88.462742 
L 105.465734 -89.154845 
L 106.298182 -90.069846 
L 107.130629 -90.496776 
L 107.963077 -91.298906 
L 108.795524 -91.861385 
L 109.627972 -92.102433 
L 110.46042 -92.142826 
L 111.292867 -91.803495 
L 112.125315 -91.630721 
L 112.957762 -91.622091 
L 113.79021 -91.832472 
L 114.622657 -91.821561 
L 115.455105 -91.747549 
L 116.287552 -91.682578 
L 117.12 -91.567227 
L 117.952448 -91.448735 
L 118.784895 -91.064425 
L 119.617343 -91.283079 
L 120.44979 -92.110821 
L 121.282238 -92.602518 
L 122.114685 -92.984402 
L 122.947133 -93.173424 
L 123.77958 -93.391426 
L 124.612028 -92.927683 
L 125.444476 -92.320991 
L 126.276923 -91.730235 
L 127.109371 -90.785714 
L 127.941818 -90.340934 
L 128.774266 -89.810521 
L 129.606713 -89.912718 
L 130.439161 -89.270332 
L 131.271608 -89.202405 
L 132.104056 -88.909262 
L 132.936503 -92.780118 
L 133.768951 -93.550182 
L 134.601399 -93.818754 
L 135.433846 -93.608934 
L 136.266294 -93.549629 
L 137.098741 -93.33726 
L 137.931189 -92.801626 
L 138.763636 -91.921423 
L 139.596084 -91.068985 
L 140.428531 -90.105954 
L 141.260979 -88.648565 
L 142.093427 -87.193753 
L 142.925874 -85.670266 
L 143.758322 -83.531252 
L 144.590769 -80.950269 
L 145.423217 -78.429274 
L 146.255664 -76.839003 
L 147.088112 -75.117701 
L 147.920559 -73.489004 
L 148.753007 -71.359135 
L 149.585455 -71.442591 
L 150.417902 -71.978566 
L 151.25035 -72.082332 
L 152.082797 -72.306055 
L 152.915245 -71.89647 
L 153.747692 -72.195014 
L 154.58014 -72.384165 
L 155.412587 -73.02777 
L 156.245035 -73.537357 
L 157.077483 -73.598566 
L 157.90993 -73.196971 
L 158.742378 -73.431014 
L 159.574825 -73.430122 
L 160.407273 -73.48313 
L 161.23972 -73.485574 
L 162.072168 -73.628297 
L 162.904615 -73.591776 
L 163.737063 -73.016716 
L 164.56951 -73.073285 
L 165.401958 -72.846419 
L 166.234406 -72.779037 
L 167.066853 -72.849165 
L 167.899301 -73.350211 
L 168.731748 -73.727961 
L 169.564196 -74.134703 
L 170.396643 -74.448944 
L 171.229091 -74.793265 
L 172.061538 -75.190933 
L 172.893986 -76.469974 
L 173.726434 -78.422544 
L 174.558881 -79.970572 
L 175.391329 -81.481276 
L 176.223776 -82.552228 
L 177.056224 -83.453102 
L 177.888671 -84.219106 
L 178.721119 -85.409703 
L 179.553566 -86.565651 
L 180.386014 -88.430156 
L 181.218462 -89.600563 
L 182.050909 -89.346674 
L 182.883357 -89.08241 
L 183.715804 -88.794904 
L 184.548252 -88.896371 
L 185.380699 -89.249612 
L 186.213147 -89.415856 
L 187.045594 -89.316872 
L 187.878042 -89.351325 
L 188.71049 -88.968667 
L 189.542937 -89.137721 
L 190.375385 -89.483636 
L 191.207832 -89.476072 
L 192.04028 -89.452836 
L 192.872727 -89.392298 
L 193.705175 -89.30637 
L 194.537622 -89.36731 
L 195.37007 -89.408173 
L 196.202517 -89.376867 
L 197.034965 -88.748808 
L 197.867413 -88.492885 
L 198.69986 -88.325836 
L 199.532308 -88.390092 
L 200.364755 -88.301802 
L 201.197203 -89.075232 
L 202.02965 -89.08255 
L 202.862098 -89.085521 
L 203.694545 -89.348822 
L 204.526993 -89.269562 
L 205.359441 -89.259688 
L 206.191888 -89.205891 
L 207.024336 -89.118531 
L 207.856783 -89.309086 
L 208.689231 -89.525043 
L 209.521678 -89.529633 
L 210.354126 -89.520405 
L 211.186573 -89.156754 
L 212.019021 -88.903311 
L 212.851469 -88.532403 
L 213.683916 -88.413828 
L 214.516364 -88.414003 
L 215.348811 -88.47676 
L 216.181259 -88.505193 
L 217.013706 -88.50721 
L 217.846154 -87.755353 
L 218.678601 -87.753848 
L 219.511049 -87.748163 
L 220.343497 -87.481074 
L 221.175944 -87.462425 
L 222.008392 -87.418196 
L 222.840839 -87.343926 
L 223.673287 -87.186393 
L 224.505734 -86.869722 
L 225.338182 -86.353621 
L 226.170629 -86.240048 
L 227.003077 -86.175867 
L 227.835524 -86.103506 
L 228.667972 -86.120848 
L 229.50042 -85.93968 
L 230.332867 -85.776045 
L 231.165315 -85.639247 
L 231.997762 -85.73232 
L 232.83021 -85.685628 
L 233.662657 -85.647473 
L 234.495105 -85.461506 
L 235.327552 -85.042551 
L 236.16 -84.659574 
L 236.992448 -84.618355 
L 237.824895 -84.619584 
L 238.657343 -84.617788 
L 239.48979 -84.539781 
L 240.322238 -84.529245 
L 241.154685 -84.532898 
L 241.987133 -84.542701 
L 242.81958 -84.679847 
L 243.652028 -85.040083 
L 244.484476 -85.372803 
L 245.316923 -85.726866 
L 246.149371 -86.237668 
L 246.981818 -87.900673 
L 247.814266 -90.610714 
L 248.646713 -92.501976 
L 249.479161 -94.150106 
L 250.311608 -95.489146 
L 251.144056 -97.109067 
L 251.976503 -98.411012 
L 252.808951 -99.344079 
L 253.641399 -100.257542 
L 254.473846 -100.916876 
L 255.306294 -102.074396 
L 256.138741 -103.029914 
L 256.971189 -103.477754 
L 257.803636 -103.82616 
L 258.636084 -104.30616 
L 259.468531 -104.437292 
L 260.300979 -104.078076 
L 261.133427 -103.622041 
L 261.965874 -103.000395 
L 262.798322 -102.101538 
L 263.630769 -101.693294 
L 264.463217 -101.831904 
L 265.295664 -102.497365 
L 266.128112 -102.564644 
L 266.960559 -102.457439 
L 267.793007 -102.42725 
L 268.625455 -102.375468 
L 269.457902 -102.172258 
L 270.29035 -102.043573 
L 271.122797 -101.89124 
L 271.955245 -101.901701 
L 272.787692 -101.966144 
L 273.62014 -101.980445 
L 274.452587 -101.977313 
L 275.285035 -101.740306 
L 276.117483 -101.66195 
L 276.94993 -101.790831 
L 277.782378 -101.842006 
L 278.614825 -101.911301 
L 279.447273 -103.192137 
L 280.27972 -103.621033 
L 281.112168 -104.205741 
L 281.944615 -103.914519 
L 282.777063 -103.744276 
L 283.60951 -103.713592 
L 284.441958 -103.55088 
L 285.274406 -103.219797 
L 286.106853 -102.854632 
L 286.939301 -102.315284 
L 287.771748 -102.015164 
L 288.604196 -101.652877 
L 289.436643 -101.484763 
L 290.269091 -101.106214 
L 291.101538 -100.669705 
L 291.933986 -100.096407 
L 292.766434 -99.332773 
L 293.598881 -97.81717 
L 294.431329 -96.301457 
L 295.263776 -95.518702 
L 296.096224 -95.596605 
L 296.928671 -95.705946 
L 297.761119 -95.706339 
L 298.593566 -95.699528 
L 299.426014 -95.815493 
L 300.258462 -95.562848 
L 301.090909 -95.521084 
L 301.923357 -95.4514 
L 302.755804 -95.406516 
L 303.588252 -95.253804 
L 304.420699 -95.251838 
L 305.253147 -95.213853 
L 306.085594 -94.931149 
L 306.918042 -94.741787 
L 307.75049 -94.699445 
L 308.582937 -94.724436 
L 309.415385 -95.432086 
L 310.247832 -96.197304 
L 311.08028 -97.105455 
L 311.912727 -97.491978 
L 312.745175 -97.982163 
L 313.577622 -98.513429 
L 314.41007 -98.774079 
L 315.242517 -99.045454 
L 316.074965 -99.439359 
L 316.907413 -100.071313 
L 317.73986 -100.824804 
L 318.572308 -102.958736 
L 319.404755 -104.889495 
L 320.237203 -106.323934 
L 321.06965 -107.803553 
L 321.902098 -108.920076 
L 322.734545 -109.751332 
L 323.566993 -111.161052 
L 324.399441 -111.932462 
L 325.231888 -112.807839 
L 326.064336 -113.727458 
L 326.896783 -114.764818 
L 327.729231 -115.633599 
L 328.561678 -116.07673 
L 329.394126 -116.82089 
L 330.226573 -117.526805 
L 331.059021 -119.986442 
L 331.891469 -121.825027 
L 332.723916 -122.243726 
L 333.556364 -123.346157 
L 334.388811 -123.959042 
L 335.221259 -124.886314 
L 336.053706 -126.164776 
L 336.886154 -127.973306 
L 337.718601 -129.552355 
L 338.551049 -130.460891 
L 339.383497 -131.00838 
L 340.215944 -132.512886 
L 341.048392 -134.882269 
L 341.880839 -136.990661 
L 342.713287 -138.723135 
L 343.545734 -141.420917 
L 344.378182 -143.529961 
L 345.210629 -144.560817 
L 346.043077 -145.434976 
L 346.875524 -146.945215 
L 347.707972 -148.315863 
L 348.54042 -148.359416 
L 349.372867 -147.848236 
L 350.205315 -147.855738 
L 351.037762 -147.856577 
L 351.87021 -149.200508 
L 352.702657 -149.35107 
L 353.535105 -150.098227 
L 354.367552 -150.846937 
L 355.2 -150.355167 
L 356.032448 -149.6526 
L 356.864895 -149.636536 
L 357.697343 -149.959082 
L 358.52979 -149.869098 
L 359.362238 -149.800867 
L 360.194685 -149.735721 
L 361.027133 -149.674616 
L 361.85958 -149.80115 
L 362.692028 -150.149245 
L 363.524476 -150.241993 
L 364.356923 -150.726094 
L 365.189371 -153.581374 
L 366.021818 -158.724562 
L 366.854266 -163.434174 
L 367.686713 -168.529912 
L 368.519161 -172.075458 
L 369.351608 -174.257328 
L 370.184056 -177.549013 
L 371.016503 -179.729136 
L 371.848951 -182.069805 
L 372.681399 -185.325841 
L 373.513846 -190.531375 
L 374.346294 -194.584562 
L 375.178741 -198.630282 
L 376.011189 -202.346538 
L 376.843636 -207.089546 
L 377.676084 -210.54385 
L 378.508531 -214.035414 
L 379.340979 -220.885486 
L 380.173427 -227.424082 
L 381.005874 -230.877237 
L 381.838322 -237.365019 
L 382.670769 -247.592915 
L 383.503217 -260.350764 
L 384.335664 -272.702515 
L 385.168112 -282.095048 
L 386.000559 -286.866316 
L 386.833007 -288.498247 
L 387.665455 -287.954491 
L 388.497902 -289.201312 
L 389.33035 -291.63787 
L 390.162797 -292.032 
L 390.995245 -290.888955 
L 391.827692 -289.338849 
L 392.66014 -287.441124 
L 393.492587 -285.626423 
L 394.325035 -282.810095 
L 395.157483 -281.319894 
L 395.98993 -280.90568 
L 396.822378 -281.38051 
L 397.654825 -281.212966 
L 398.487273 -281.835136 
L 398.487273 -212.531378 
L 398.487273 -212.531378 
L 397.654825 -214.2431 
L 396.822378 -213.904377 
L 395.98993 -214.946689 
L 395.157483 -214.030239 
L 394.325035 -211.654316 
L 393.492587 -204.825212 
L 392.66014 -198.698527 
L 391.827692 -191.105257 
L 390.995245 -184.165633 
L 390.162797 -177.034458 
L 389.33035 -171.107913 
L 388.497902 -164.709886 
L 387.665455 -157.602181 
L 386.833007 -150.427469 
L 386.000559 -144.929492 
L 385.168112 -140.227592 
L 384.335664 -139.353791 
L 383.503217 -141.431528 
L 382.670769 -144.184188 
L 381.838322 -145.831926 
L 381.005874 -144.553527 
L 380.173427 -140.309158 
L 379.340979 -138.424296 
L 378.508531 -137.297234 
L 377.676084 -134.311014 
L 376.843636 -131.081953 
L 376.011189 -129.316931 
L 375.178741 -127.645564 
L 374.346294 -126.353097 
L 373.513846 -126.082207 
L 372.681399 -126.965894 
L 371.848951 -126.824153 
L 371.016503 -126.059473 
L 370.184056 -125.92615 
L 369.351608 -126.407054 
L 368.519161 -126.187146 
L 367.686713 -127.436294 
L 366.854266 -129.079839 
L 366.021818 -130.486297 
L 365.189371 -132.16675 
L 364.356923 -132.470664 
L 363.524476 -132.51335 
L 362.692028 -132.536546 
L 361.85958 -132.402797 
L 361.027133 -132.292063 
L 360.194685 -132.63365 
L 359.362238 -132.825339 
L 358.52979 -132.304771 
L 357.697343 -131.885846 
L 356.864895 -131.284505 
L 356.032448 -129.636183 
L 355.2 -126.980812 
L 354.367552 -124.908454 
L 353.535105 -123.747067 
L 352.702657 -122.703345 
L 351.87021 -120.962952 
L 351.037762 -119.616364 
L 350.205315 -117.86521 
L 349.372867 -116.496125 
L 348.54042 -114.56926 
L 347.707972 -113.637242 
L 346.875524 -113.091629 
L 346.043077 -111.539235 
L 345.210629 -109.749644 
L 344.378182 -107.807355 
L 343.545734 -106.895345 
L 342.713287 -106.606488 
L 341.880839 -105.738132 
L 341.048392 -105.198362 
L 340.215944 -104.874024 
L 339.383497 -104.491745 
L 338.551049 -103.263524 
L 337.718601 -102.312914 
L 336.886154 -101.930828 
L 336.053706 -101.681716 
L 335.221259 -101.295758 
L 334.388811 -100.691268 
L 333.556364 -99.215303 
L 332.723916 -98.033567 
L 331.891469 -96.415404 
L 331.059021 -95.670955 
L 330.226573 -95.517592 
L 329.394126 -94.602165 
L 328.561678 -93.754589 
L 327.729231 -92.890772 
L 326.896783 -92.401752 
L 326.064336 -91.957565 
L 325.231888 -91.492065 
L 324.399441 -90.900385 
L 323.566993 -90.215397 
L 322.734545 -89.792723 
L 321.902098 -89.10676 
L 321.06965 -88.825811 
L 320.237203 -88.79541 
L 319.404755 -88.769642 
L 318.572308 -89.218465 
L 317.73986 -90.014755 
L 316.907413 -90.044965 
L 316.074965 -90.068206 
L 315.242517 -90.061776 
L 314.41007 -89.95506 
L 313.577622 -89.858142 
L 312.745175 -89.910974 
L 311.912727 -89.937144 
L 311.08028 -89.605868 
L 310.247832 -89.893226 
L 309.415385 -90.137461 
L 308.582937 -90.568641 
L 307.75049 -90.584661 
L 306.918042 -90.564566 
L 306.085594 -90.553579 
L 305.253147 -90.542554 
L 304.420699 -90.549323 
L 303.588252 -90.559411 
L 302.755804 -90.258564 
L 301.923357 -90.1335 
L 301.090909 -89.91317 
L 300.258462 -89.626171 
L 299.426014 -88.925509 
L 298.593566 -88.706903 
L 297.761119 -88.339972 
L 296.928671 -87.954029 
L 296.096224 -87.886088 
L 295.263776 -87.731125 
L 294.431329 -87.586832 
L 293.598881 -86.845301 
L 292.766434 -86.210082 
L 291.933986 -85.951817 
L 291.101538 -85.750829 
L 290.269091 -85.670093 
L 289.436643 -85.625276 
L 288.604196 -85.62169 
L 287.771748 -85.644687 
L 286.939301 -85.772163 
L 286.106853 -86.108876 
L 285.274406 -86.463159 
L 284.441958 -86.924348 
L 283.60951 -87.522096 
L 282.777063 -88.594273 
L 281.944615 -89.404765 
L 281.112168 -90.438014 
L 280.27972 -92.091705 
L 279.447273 -93.419856 
L 278.614825 -95.682107 
L 277.782378 -96.030952 
L 276.94993 -95.940945 
L 276.117483 -95.6889 
L 275.285035 -95.704904 
L 274.452587 -95.684182 
L 273.62014 -95.773745 
L 272.787692 -95.840865 
L 271.955245 -96.226814 
L 271.122797 -96.444205 
L 270.29035 -96.19439 
L 269.457902 -95.779172 
L 268.625455 -95.302263 
L 267.793007 -95.02191 
L 266.960559 -94.851532 
L 266.128112 -94.249405 
L 265.295664 -93.78711 
L 264.463217 -93.629127 
L 263.630769 -93.234373 
L 262.798322 -91.841774 
L 261.965874 -89.606094 
L 261.133427 -87.663417 
L 260.300979 -85.97031 
L 259.468531 -84.490479 
L 258.636084 -83.106165 
L 257.803636 -81.869627 
L 256.971189 -80.699055 
L 256.138741 -79.669969 
L 255.306294 -78.980431 
L 254.473846 -78.500494 
L 253.641399 -77.87221 
L 252.808951 -77.523345 
L 251.976503 -77.255201 
L 251.144056 -77.328643 
L 250.311608 -77.678131 
L 249.479161 -77.947337 
L 248.646713 -78.42686 
L 247.814266 -79.351632 
L 246.981818 -81.017382 
L 246.149371 -82.046657 
L 245.316923 -82.24594 
L 244.484476 -82.277704 
L 243.652028 -82.328136 
L 242.81958 -82.433282 
L 241.987133 -82.474113 
L 241.154685 -82.451736 
L 240.322238 -82.430294 
L 239.48979 -82.383049 
L 238.657343 -82.213968 
L 237.824895 -82.237944 
L 236.992448 -82.246046 
L 236.16 -82.24156 
L 235.327552 -82.047082 
L 234.495105 -81.80999 
L 233.662657 -81.743928 
L 232.83021 -81.743165 
L 231.997762 -81.798893 
L 231.165315 -81.813783 
L 230.332867 -81.779635 
L 229.50042 -81.744119 
L 228.667972 -81.738958 
L 227.835524 -81.794219 
L 227.003077 -81.929096 
L 226.170629 -82.071501 
L 225.338182 -82.126947 
L 224.505734 -82.004844 
L 223.673287 -82.047345 
L 222.840839 -82.240501 
L 222.008392 -82.618583 
L 221.175944 -82.854285 
L 220.343497 -83.173707 
L 219.511049 -83.251105 
L 218.678601 -83.257205 
L 217.846154 -83.257374 
L 217.013706 -82.910566 
L 216.181259 -83.050838 
L 215.348811 -83.222008 
L 214.516364 -83.452922 
L 213.683916 -83.45378 
L 212.851469 -83.171931 
L 212.019021 -82.45347 
L 211.186573 -82.037052 
L 210.354126 -81.278176 
L 209.521678 -81.128591 
L 208.689231 -80.956175 
L 207.856783 -80.792736 
L 207.024336 -80.740911 
L 206.191888 -80.71676 
L 205.359441 -80.69932 
L 204.526993 -80.69863 
L 203.694545 -80.67776 
L 202.862098 -80.713463 
L 202.02965 -80.712788 
L 201.197203 -80.712841 
L 200.364755 -80.851209 
L 199.532308 -80.251711 
L 198.69986 -79.894702 
L 197.867413 -79.063164 
L 197.034965 -78.986287 
L 196.202517 -78.834979 
L 195.37007 -79.08095 
L 194.537622 -79.353171 
L 193.705175 -79.490003 
L 192.872727 -79.158101 
L 192.04028 -78.872373 
L 191.207832 -78.673823 
L 190.375385 -78.321223 
L 189.542937 -78.035654 
L 188.71049 -77.276391 
L 187.878042 -75.722912 
L 187.045594 -74.471232 
L 186.213147 -73.232033 
L 185.380699 -72.219748 
L 184.548252 -71.299754 
L 183.715804 -70.457016 
L 182.883357 -69.194786 
L 182.050909 -67.705909 
L 181.218462 -66.491352 
L 180.386014 -66.088239 
L 179.553566 -66.262965 
L 178.721119 -66.017468 
L 177.888671 -65.865377 
L 177.056224 -65.300923 
L 176.223776 -65.028613 
L 175.391329 -64.840862 
L 174.558881 -65.281399 
L 173.726434 -65.630982 
L 172.893986 -66.462689 
L 172.061538 -67.154911 
L 171.229091 -67.318097 
L 170.396643 -67.470177 
L 169.564196 -67.597755 
L 168.731748 -67.502475 
L 167.899301 -67.494533 
L 167.066853 -67.495466 
L 166.234406 -67.378989 
L 165.401958 -67.198436 
L 164.56951 -66.698297 
L 163.737063 -66.386402 
L 162.904615 -64.988141 
L 162.072168 -64.424918 
L 161.23972 -64.349021 
L 160.407273 -64.340934 
L 159.574825 -64.273092 
L 158.742378 -64.274476 
L 157.90993 -64.11026 
L 157.077483 -63.090084 
L 156.245035 -62.715185 
L 155.412587 -62.546218 
L 154.58014 -62.479104 
L 153.747692 -61.475181 
L 152.915245 -60.57336 
L 152.082797 -59.101605 
L 151.25035 -58.39912 
L 150.417902 -57.549189 
L 149.585455 -57.348367 
L 148.753007 -56.355612 
L 147.920559 -55.144829 
L 147.088112 -54.33065 
L 146.255664 -53.872029 
L 145.423217 -53.39824 
L 144.590769 -52.228562 
L 143.758322 -51.150717 
L 142.925874 -50.47221 
L 142.093427 -50.173851 
L 141.260979 -50.112 
L 140.428531 -50.566335 
L 139.596084 -51.037528 
L 138.763636 -51.61267 
L 137.931189 -52.284699 
L 137.098741 -53.833671 
L 136.266294 -55.735333 
L 135.433846 -58.29038 
L 134.601399 -60.715931 
L 133.768951 -63.917646 
L 132.936503 -67.160041 
L 132.104056 -73.958238 
L 131.271608 -74.679026 
L 130.439161 -75.648364 
L 129.606713 -76.378238 
L 128.774266 -77.494215 
L 127.941818 -77.588423 
L 127.109371 -77.595386 
L 126.276923 -77.436646 
L 125.444476 -77.741081 
L 124.612028 -78.101566 
L 123.77958 -78.458112 
L 122.947133 -79.479637 
L 122.114685 -80.662232 
L 121.282238 -81.767764 
L 120.44979 -82.866796 
L 119.617343 -84.282536 
L 118.784895 -84.684541 
L 117.952448 -84.000671 
L 117.12 -83.464868 
L 116.287552 -83.144566 
L 115.455105 -82.891706 
L 114.622657 -82.657794 
L 113.79021 -82.594994 
L 112.957762 -82.257178 
L 112.125315 -82.057039 
L 111.292867 -81.256922 
L 110.46042 -80.121526 
L 109.627972 -78.925434 
L 108.795524 -78.068402 
L 107.963077 -77.433486 
L 107.130629 -77.252938 
L 106.298182 -76.991044 
L 105.465734 -76.969342 
L 104.633287 -76.927334 
L 103.800839 -77.052398 
L 102.968392 -77.214457 
L 102.135944 -77.252902 
L 101.303497 -77.184535 
L 100.471049 -77.162084 
L 99.638601 -76.494431 
L 98.806154 -76.097531 
L 97.973706 -75.57701 
L 97.141259 -75.576702 
L 96.308811 -75.013501 
L 95.476364 -75.066968 
L 94.643916 -74.918344 
L 93.811469 -74.266367 
L 92.979021 -73.104902 
L 92.146573 -72.106466 
L 91.314126 -71.238064 
L 90.481678 -69.932951 
L 89.649231 -69.173241 
z
" id="m7d9c96856a" style="stroke:#4b0082;stroke-opacity:0.3;"/>
    </defs>
    <g clip-path="url(#pafa1a25ce6)">
     <use style="fill:#4b0082;fill-opacity:0.3;stroke:#4b0082;stroke-opacity:0.3;" x="0" xlink:href="#m7d9c96856a" y="345.6"/>
    </g>
   </g>
   <g id="matplotlib.axis_1">
    <g id="xtick_1">
     <g id="line2d_1">
      <defs>
       <path d="M 0 0 
L 0 3.5 
" id="m9b759c555b" style="stroke:#000000;stroke-width:0.8;"/>
      </defs>
      <g>
       <use style="stroke:#000000;stroke-width:0.8;" x="73.832727" xlink:href="#m9b759c555b" y="307.584"/>
      </g>
     </g>
     <g id="text_1">
      <!-- 2020-01 -->
      <g transform="translate(52.941321 322.182437)scale(0.1 -0.1)">
       <defs>
        <path d="M 19.1875 8.296875 
L 53.609375 8.296875 
L 53.609375 0 
L 7.328125 0 
L 7.328125 8.296875 
Q 12.9375 14.109375 22.625 23.890625 
Q 32.328125 33.6875 34.8125 36.53125 
Q 39.546875 41.84375 41.421875 45.53125 
Q 43.3125 49.21875 43.3125 52.78125 
Q 43.3125 58.59375 39.234375 62.25 
Q 35.15625 65.921875 28.609375 65.921875 
Q 23.96875 65.921875 18.8125 64.3125 
Q 13.671875 62.703125 7.8125 59.421875 
L 7.8125 69.390625 
Q 13.765625 71.78125 18.9375 73 
Q 24.125 74.21875 28.421875 74.21875 
Q 39.75 74.21875 46.484375 68.546875 
Q 53.21875 62.890625 53.21875 53.421875 
Q 53.21875 48.921875 51.53125 44.890625 
Q 49.859375 40.875 45.40625 35.40625 
Q 44.1875 33.984375 37.640625 27.21875 
Q 31.109375 20.453125 19.1875 8.296875 
z
" id="DejaVuSans-50"/>
        <path d="M 31.78125 66.40625 
Q 24.171875 66.40625 20.328125 58.90625 
Q 16.5 51.421875 16.5 36.375 
Q 16.5 21.390625 20.328125 13.890625 
Q 24.171875 6.390625 31.78125 6.390625 
Q 39.453125 6.390625 43.28125 13.890625 
Q 47.125 21.390625 47.125 36.375 
Q 47.125 51.421875 43.28125 58.90625 
Q 39.453125 66.40625 31.78125 66.40625 
z
M 31.78125 74.21875 
Q 44.046875 74.21875 50.515625 64.515625 
Q 56.984375 54.828125 56.984375 36.375 
Q 56.984375 17.96875 50.515625 8.265625 
Q 44.046875 -1.421875 31.78125 -1.421875 
Q 19.53125 -1.421875 13.0625 8.265625 
Q 6.59375 17.96875 6.59375 36.375 
Q 6.59375 54.828125 13.0625 64.515625 
Q 19.53125 74.21875 31.78125 74.21875 
z
" id="DejaVuSans-48"/>
        <path d="M 4.890625 31.390625 
L 31.203125 31.390625 
L 31.203125 23.390625 
L 4.890625 23.390625 
z
" id="DejaVuSans-45"/>
        <path d="M 12.40625 8.296875 
L 28.515625 8.296875 
L 28.515625 63.921875 
L 10.984375 60.40625 
L 10.984375 69.390625 
L 28.421875 72.90625 
L 38.28125 72.90625 
L 38.28125 8.296875 
L 54.390625 8.296875 
L 54.390625 0 
L 12.40625 0 
z
" id="DejaVuSans-49"/>
       </defs>
       <use xlink:href="#DejaVuSans-50"/>
       <use x="63.623047" xlink:href="#DejaVuSans-48"/>
       <use x="127.246094" xlink:href="#DejaVuSans-50"/>
       <use x="190.869141" xlink:href="#DejaVuSans-48"/>
       <use x="254.492188" xlink:href="#DejaVuSans-45"/>
       <use x="290.576172" xlink:href="#DejaVuSans-48"/>
       <use x="354.199219" xlink:href="#DejaVuSans-49"/>
      </g>
     </g>
    </g>
    <g id="xtick_2">
     <g id="line2d_2">
      <g>
       <use style="stroke:#000000;stroke-width:0.8;" x="123.77958" xlink:href="#m9b759c555b" y="307.584"/>
      </g>
     </g>
     <g id="text_2">
      <!-- 2020-03 -->
      <g transform="translate(102.888174 322.182437)scale(0.1 -0.1)">
       <defs>
        <path d="M 40.578125 39.3125 
Q 47.65625 37.796875 51.625 33 
Q 55.609375 28.21875 55.609375 21.1875 
Q 55.609375 10.40625 48.1875 4.484375 
Q 40.765625 -1.421875 27.09375 -1.421875 
Q 22.515625 -1.421875 17.65625 -0.515625 
Q 12.796875 0.390625 7.625 2.203125 
L 7.625 11.71875 
Q 11.71875 9.328125 16.59375 8.109375 
Q 21.484375 6.890625 26.8125 6.890625 
Q 36.078125 6.890625 40.9375 10.546875 
Q 45.796875 14.203125 45.796875 21.1875 
Q 45.796875 27.640625 41.28125 31.265625 
Q 36.765625 34.90625 28.71875 34.90625 
L 20.21875 34.90625 
L 20.21875 43.015625 
L 29.109375 43.015625 
Q 36.375 43.015625 40.234375 45.921875 
Q 44.09375 48.828125 44.09375 54.296875 
Q 44.09375 59.90625 40.109375 62.90625 
Q 36.140625 65.921875 28.71875 65.921875 
Q 24.65625 65.921875 20.015625 65.03125 
Q 15.375 64.15625 9.8125 62.3125 
L 9.8125 71.09375 
Q 15.4375 72.65625 20.34375 73.4375 
Q 25.25 74.21875 29.59375 74.21875 
Q 40.828125 74.21875 47.359375 69.109375 
Q 53.90625 64.015625 53.90625 55.328125 
Q 53.90625 49.265625 50.4375 45.09375 
Q 46.96875 40.921875 40.578125 39.3125 
z
" id="DejaVuSans-51"/>
       </defs>
       <use xlink:href="#DejaVuSans-50"/>
       <use x="63.623047" xlink:href="#DejaVuSans-48"/>
       <use x="127.246094" xlink:href="#DejaVuSans-50"/>
       <use x="190.869141" xlink:href="#DejaVuSans-48"/>
       <use x="254.492188" xlink:href="#DejaVuSans-45"/>
       <use x="290.576172" xlink:href="#DejaVuSans-48"/>
       <use x="354.199219" xlink:href="#DejaVuSans-51"/>
      </g>
     </g>
    </g>
    <g id="xtick_3">
     <g id="line2d_3">
      <g>
       <use style="stroke:#000000;stroke-width:0.8;" x="174.558881" xlink:href="#m9b759c555b" y="307.584"/>
      </g>
     </g>
     <g id="text_3">
      <!-- 2020-05 -->
      <g transform="translate(153.667475 322.182437)scale(0.1 -0.1)">
       <defs>
        <path d="M 10.796875 72.90625 
L 49.515625 72.90625 
L 49.515625 64.59375 
L 19.828125 64.59375 
L 19.828125 46.734375 
Q 21.96875 47.46875 24.109375 47.828125 
Q 26.265625 48.1875 28.421875 48.1875 
Q 40.625 48.1875 47.75 41.5 
Q 54.890625 34.8125 54.890625 23.390625 
Q 54.890625 11.625 47.5625 5.09375 
Q 40.234375 -1.421875 26.90625 -1.421875 
Q 22.3125 -1.421875 17.546875 -0.640625 
Q 12.796875 0.140625 7.71875 1.703125 
L 7.71875 11.625 
Q 12.109375 9.234375 16.796875 8.0625 
Q 21.484375 6.890625 26.703125 6.890625 
Q 35.15625 6.890625 40.078125 11.328125 
Q 45.015625 15.765625 45.015625 23.390625 
Q 45.015625 31 40.078125 35.4375 
Q 35.15625 39.890625 26.703125 39.890625 
Q 22.75 39.890625 18.8125 39.015625 
Q 14.890625 38.140625 10.796875 36.28125 
z
" id="DejaVuSans-53"/>
       </defs>
       <use xlink:href="#DejaVuSans-50"/>
       <use x="63.623047" xlink:href="#DejaVuSans-48"/>
       <use x="127.246094" xlink:href="#DejaVuSans-50"/>
       <use x="190.869141" xlink:href="#DejaVuSans-48"/>
       <use x="254.492188" xlink:href="#DejaVuSans-45"/>
       <use x="290.576172" xlink:href="#DejaVuSans-48"/>
       <use x="354.199219" xlink:href="#DejaVuSans-53"/>
      </g>
     </g>
    </g>
    <g id="xtick_4">
     <g id="line2d_4">
      <g>
       <use style="stroke:#000000;stroke-width:0.8;" x="225.338182" xlink:href="#m9b759c555b" y="307.584"/>
      </g>
     </g>
     <g id="text_4">
      <!-- 2020-07 -->
      <g transform="translate(204.446776 322.182437)scale(0.1 -0.1)">
       <defs>
        <path d="M 8.203125 72.90625 
L 55.078125 72.90625 
L 55.078125 68.703125 
L 28.609375 0 
L 18.3125 0 
L 43.21875 64.59375 
L 8.203125 64.59375 
z
" id="DejaVuSans-55"/>
       </defs>
       <use xlink:href="#DejaVuSans-50"/>
       <use x="63.623047" xlink:href="#DejaVuSans-48"/>
       <use x="127.246094" xlink:href="#DejaVuSans-50"/>
       <use x="190.869141" xlink:href="#DejaVuSans-48"/>
       <use x="254.492188" xlink:href="#DejaVuSans-45"/>
       <use x="290.576172" xlink:href="#DejaVuSans-48"/>
       <use x="354.199219" xlink:href="#DejaVuSans-55"/>
      </g>
     </g>
    </g>
    <g id="xtick_5">
     <g id="line2d_5">
      <g>
       <use style="stroke:#000000;stroke-width:0.8;" x="276.94993" xlink:href="#m9b759c555b" y="307.584"/>
      </g>
     </g>
     <g id="text_5">
      <!-- 2020-09 -->
      <g transform="translate(256.058524 322.182437)scale(0.1 -0.1)">
       <defs>
        <path d="M 10.984375 1.515625 
L 10.984375 10.5 
Q 14.703125 8.734375 18.5 7.8125 
Q 22.3125 6.890625 25.984375 6.890625 
Q 35.75 6.890625 40.890625 13.453125 
Q 46.046875 20.015625 46.78125 33.40625 
Q 43.953125 29.203125 39.59375 26.953125 
Q 35.25 24.703125 29.984375 24.703125 
Q 19.046875 24.703125 12.671875 31.3125 
Q 6.296875 37.9375 6.296875 49.421875 
Q 6.296875 60.640625 12.9375 67.421875 
Q 19.578125 74.21875 30.609375 74.21875 
Q 43.265625 74.21875 49.921875 64.515625 
Q 56.59375 54.828125 56.59375 36.375 
Q 56.59375 19.140625 48.40625 8.859375 
Q 40.234375 -1.421875 26.421875 -1.421875 
Q 22.703125 -1.421875 18.890625 -0.6875 
Q 15.09375 0.046875 10.984375 1.515625 
z
M 30.609375 32.421875 
Q 37.25 32.421875 41.125 36.953125 
Q 45.015625 41.5 45.015625 49.421875 
Q 45.015625 57.28125 41.125 61.84375 
Q 37.25 66.40625 30.609375 66.40625 
Q 23.96875 66.40625 20.09375 61.84375 
Q 16.21875 57.28125 16.21875 49.421875 
Q 16.21875 41.5 20.09375 36.953125 
Q 23.96875 32.421875 30.609375 32.421875 
z
" id="DejaVuSans-57"/>
       </defs>
       <use xlink:href="#DejaVuSans-50"/>
       <use x="63.623047" xlink:href="#DejaVuSans-48"/>
       <use x="127.246094" xlink:href="#DejaVuSans-50"/>
       <use x="190.869141" xlink:href="#DejaVuSans-48"/>
       <use x="254.492188" xlink:href="#DejaVuSans-45"/>
       <use x="290.576172" xlink:href="#DejaVuSans-48"/>
       <use x="354.199219" xlink:href="#DejaVuSans-57"/>
      </g>
     </g>
    </g>
    <g id="xtick_6">
     <g id="line2d_6">
      <g>
       <use style="stroke:#000000;stroke-width:0.8;" x="327.729231" xlink:href="#m9b759c555b" y="307.584"/>
      </g>
     </g>
     <g id="text_6">
      <!-- 2020-11 -->
      <g transform="translate(306.837825 322.182437)scale(0.1 -0.1)">
       <use xlink:href="#DejaVuSans-50"/>
       <use x="63.623047" xlink:href="#DejaVuSans-48"/>
       <use x="127.246094" xlink:href="#DejaVuSans-50"/>
       <use x="190.869141" xlink:href="#DejaVuSans-48"/>
       <use x="254.492188" xlink:href="#DejaVuSans-45"/>
       <use x="290.576172" xlink:href="#DejaVuSans-49"/>
       <use x="354.199219" xlink:href="#DejaVuSans-49"/>
      </g>
     </g>
    </g>
    <g id="xtick_7">
     <g id="line2d_7">
      <g>
       <use style="stroke:#000000;stroke-width:0.8;" x="378.508531" xlink:href="#m9b759c555b" y="307.584"/>
      </g>
     </g>
     <g id="text_7">
      <!-- 2021-01 -->
      <g transform="translate(357.617125 322.182437)scale(0.1 -0.1)">
       <use xlink:href="#DejaVuSans-50"/>
       <use x="63.623047" xlink:href="#DejaVuSans-48"/>
       <use x="127.246094" xlink:href="#DejaVuSans-50"/>
       <use x="190.869141" xlink:href="#DejaVuSans-49"/>
       <use x="254.492188" xlink:href="#DejaVuSans-45"/>
       <use x="290.576172" xlink:href="#DejaVuSans-48"/>
       <use x="354.199219" xlink:href="#DejaVuSans-49"/>
      </g>
     </g>
    </g>
   </g>
   <g id="matplotlib.axis_2">
    <g id="ytick_1">
     <g id="line2d_8">
      <defs>
       <path d="M 0 0 
L -3.5 0 
" id="m88b140485a" style="stroke:#000000;stroke-width:0.8;"/>
      </defs>
      <g>
       <use style="stroke:#000000;stroke-width:0.8;" x="57.6" xlink:href="#m88b140485a" y="287.788361"/>
      </g>
     </g>
     <g id="text_8">
      <!-- 5000 -->
      <g transform="translate(25.15 291.58758)scale(0.1 -0.1)">
       <use xlink:href="#DejaVuSans-53"/>
       <use x="63.623047" xlink:href="#DejaVuSans-48"/>
       <use x="127.246094" xlink:href="#DejaVuSans-48"/>
       <use x="190.869141" xlink:href="#DejaVuSans-48"/>
      </g>
     </g>
    </g>
    <g id="ytick_2">
     <g id="line2d_9">
      <g>
       <use style="stroke:#000000;stroke-width:0.8;" x="57.6" xlink:href="#m88b140485a" y="257.177076"/>
      </g>
     </g>
     <g id="text_9">
      <!-- 10000 -->
      <g transform="translate(18.7875 260.976295)scale(0.1 -0.1)">
       <use xlink:href="#DejaVuSans-49"/>
       <use x="63.623047" xlink:href="#DejaVuSans-48"/>
       <use x="127.246094" xlink:href="#DejaVuSans-48"/>
       <use x="190.869141" xlink:href="#DejaVuSans-48"/>
       <use x="254.492188" xlink:href="#DejaVuSans-48"/>
      </g>
     </g>
    </g>
    <g id="ytick_3">
     <g id="line2d_10">
      <g>
       <use style="stroke:#000000;stroke-width:0.8;" x="57.6" xlink:href="#m88b140485a" y="226.56579"/>
      </g>
     </g>
     <g id="text_10">
      <!-- 15000 -->
      <g transform="translate(18.7875 230.365009)scale(0.1 -0.1)">
       <use xlink:href="#DejaVuSans-49"/>
       <use x="63.623047" xlink:href="#DejaVuSans-53"/>
       <use x="127.246094" xlink:href="#DejaVuSans-48"/>
       <use x="190.869141" xlink:href="#DejaVuSans-48"/>
       <use x="254.492188" xlink:href="#DejaVuSans-48"/>
      </g>
     </g>
    </g>
    <g id="ytick_4">
     <g id="line2d_11">
      <g>
       <use style="stroke:#000000;stroke-width:0.8;" x="57.6" xlink:href="#m88b140485a" y="195.954505"/>
      </g>
     </g>
     <g id="text_11">
      <!-- 20000 -->
      <g transform="translate(18.7875 199.753724)scale(0.1 -0.1)">
       <use xlink:href="#DejaVuSans-50"/>
       <use x="63.623047" xlink:href="#DejaVuSans-48"/>
       <use x="127.246094" xlink:href="#DejaVuSans-48"/>
       <use x="190.869141" xlink:href="#DejaVuSans-48"/>
       <use x="254.492188" xlink:href="#DejaVuSans-48"/>
      </g>
     </g>
    </g>
    <g id="ytick_5">
     <g id="line2d_12">
      <g>
       <use style="stroke:#000000;stroke-width:0.8;" x="57.6" xlink:href="#m88b140485a" y="165.343219"/>
      </g>
     </g>
     <g id="text_12">
      <!-- 25000 -->
      <g transform="translate(18.7875 169.142438)scale(0.1 -0.1)">
       <use xlink:href="#DejaVuSans-50"/>
       <use x="63.623047" xlink:href="#DejaVuSans-53"/>
       <use x="127.246094" xlink:href="#DejaVuSans-48"/>
       <use x="190.869141" xlink:href="#DejaVuSans-48"/>
       <use x="254.492188" xlink:href="#DejaVuSans-48"/>
      </g>
     </g>
    </g>
    <g id="ytick_6">
     <g id="line2d_13">
      <g>
       <use style="stroke:#000000;stroke-width:0.8;" x="57.6" xlink:href="#m88b140485a" y="134.731934"/>
      </g>
     </g>
     <g id="text_13">
      <!-- 30000 -->
      <g transform="translate(18.7875 138.531153)scale(0.1 -0.1)">
       <use xlink:href="#DejaVuSans-51"/>
       <use x="63.623047" xlink:href="#DejaVuSans-48"/>
       <use x="127.246094" xlink:href="#DejaVuSans-48"/>
       <use x="190.869141" xlink:href="#DejaVuSans-48"/>
       <use x="254.492188" xlink:href="#DejaVuSans-48"/>
      </g>
     </g>
    </g>
    <g id="ytick_7">
     <g id="line2d_14">
      <g>
       <use style="stroke:#000000;stroke-width:0.8;" x="57.6" xlink:href="#m88b140485a" y="104.120648"/>
      </g>
     </g>
     <g id="text_14">
      <!-- 35000 -->
      <g transform="translate(18.7875 107.919867)scale(0.1 -0.1)">
       <use xlink:href="#DejaVuSans-51"/>
       <use x="63.623047" xlink:href="#DejaVuSans-53"/>
       <use x="127.246094" xlink:href="#DejaVuSans-48"/>
       <use x="190.869141" xlink:href="#DejaVuSans-48"/>
       <use x="254.492188" xlink:href="#DejaVuSans-48"/>
      </g>
     </g>
    </g>
    <g id="ytick_8">
     <g id="line2d_15">
      <g>
       <use style="stroke:#000000;stroke-width:0.8;" x="57.6" xlink:href="#m88b140485a" y="73.509363"/>
      </g>
     </g>
     <g id="text_15">
      <!-- 40000 -->
      <g transform="translate(18.7875 77.308582)scale(0.1 -0.1)">
       <defs>
        <path d="M 37.796875 64.3125 
L 12.890625 25.390625 
L 37.796875 25.390625 
z
M 35.203125 72.90625 
L 47.609375 72.90625 
L 47.609375 25.390625 
L 58.015625 25.390625 
L 58.015625 17.1875 
L 47.609375 17.1875 
L 47.609375 0 
L 37.796875 0 
L 37.796875 17.1875 
L 4.890625 17.1875 
L 4.890625 26.703125 
z
" id="DejaVuSans-52"/>
       </defs>
       <use xlink:href="#DejaVuSans-52"/>
       <use x="63.623047" xlink:href="#DejaVuSans-48"/>
       <use x="127.246094" xlink:href="#DejaVuSans-48"/>
       <use x="190.869141" xlink:href="#DejaVuSans-48"/>
       <use x="254.492188" xlink:href="#DejaVuSans-48"/>
      </g>
     </g>
    </g>
    <g id="ytick_9">
     <g id="line2d_16">
      <g>
       <use style="stroke:#000000;stroke-width:0.8;" x="57.6" xlink:href="#m88b140485a" y="42.898077"/>
      </g>
     </g>
     <g id="text_16">
      <!-- 45000 -->
      <g transform="translate(18.7875 46.697296)scale(0.1 -0.1)">
       <use xlink:href="#DejaVuSans-52"/>
       <use x="63.623047" xlink:href="#DejaVuSans-53"/>
       <use x="127.246094" xlink:href="#DejaVuSans-48"/>
       <use x="190.869141" xlink:href="#DejaVuSans-48"/>
       <use x="254.492188" xlink:href="#DejaVuSans-48"/>
      </g>
     </g>
    </g>
   </g>
   <g id="line2d_17">
    <path clip-path="url(#pafa1a25ce6)" d="M 89.649231 261.233405 
L 90.481678 261.050813 
L 92.979021 261.880608 
L 93.811469 262.441608 
L 94.643916 262.578754 
L 95.476364 262.272039 
L 96.308811 261.391821 
L 97.141259 261.052886 
L 97.973706 260.245386 
L 99.638601 259.60807 
L 100.471049 259.524153 
L 101.303497 259.250154 
L 102.135944 259.093926 
L 103.800839 257.817873 
L 105.465734 256.445155 
L 106.298182 255.530154 
L 107.130629 255.103224 
L 107.963077 254.301094 
L 108.795524 253.738615 
L 109.627972 253.497567 
L 110.46042 253.457174 
L 111.292867 253.796505 
L 112.125315 253.969279 
L 112.957762 253.977909 
L 113.79021 253.767528 
L 115.455105 253.852451 
L 117.952448 254.151265 
L 118.784895 254.535575 
L 119.617343 254.316921 
L 120.44979 253.489179 
L 122.114685 252.615598 
L 123.77958 252.208574 
L 124.612028 252.672317 
L 126.276923 253.869765 
L 127.109371 254.814286 
L 128.774266 255.789479 
L 129.606713 255.687282 
L 130.439161 256.329668 
L 131.271608 256.397595 
L 132.104056 256.690738 
L 132.936503 252.819882 
L 133.768951 252.049818 
L 134.601399 251.781246 
L 135.433846 251.991066 
L 136.266294 252.050371 
L 137.098741 252.26274 
L 137.931189 252.798374 
L 140.428531 255.494046 
L 142.925874 259.929734 
L 143.758322 262.068748 
L 145.423217 267.170726 
L 147.920559 272.110996 
L 148.753007 274.240865 
L 149.585455 274.157409 
L 150.417902 273.621434 
L 151.25035 273.517668 
L 152.082797 273.293945 
L 152.915245 273.70353 
L 154.58014 273.215835 
L 156.245035 272.062643 
L 157.077483 272.001434 
L 157.90993 272.403029 
L 158.742378 272.168986 
L 161.23972 272.114426 
L 162.072168 271.971703 
L 162.904615 272.008224 
L 163.737063 272.583284 
L 164.56951 272.526715 
L 165.401958 272.753581 
L 166.234406 272.820963 
L 167.066853 272.750835 
L 168.731748 271.872039 
L 170.396643 271.151056 
L 172.061538 270.409067 
L 172.893986 269.130026 
L 173.726434 267.177456 
L 175.391329 264.118724 
L 177.056224 262.146898 
L 177.888671 261.380894 
L 179.553566 259.034349 
L 180.386014 257.169844 
L 181.218462 255.999437 
L 183.715804 256.805096 
L 184.548252 256.703629 
L 185.380699 256.350388 
L 186.213147 256.184144 
L 187.045594 256.283128 
L 187.878042 256.248675 
L 188.71049 256.631333 
L 189.542937 256.462279 
L 190.375385 256.116364 
L 192.872727 256.207702 
L 193.705175 256.29363 
L 195.37007 256.191827 
L 196.202517 256.223133 
L 197.034965 256.851192 
L 198.69986 257.274164 
L 199.532308 257.209908 
L 200.364755 257.298198 
L 201.197203 256.524768 
L 202.862098 256.514479 
L 203.694545 256.251178 
L 207.024336 256.481469 
L 208.689231 256.074957 
L 210.354126 256.079595 
L 212.851469 257.067597 
L 213.683916 257.186172 
L 217.013706 257.09279 
L 217.846154 257.844647 
L 219.511049 257.851837 
L 220.343497 258.118926 
L 222.840839 258.256074 
L 223.673287 258.413607 
L 224.505734 258.730278 
L 225.338182 259.246379 
L 227.835524 259.496494 
L 228.667972 259.479152 
L 231.165315 259.960753 
L 231.997762 259.86768 
L 233.662657 259.952527 
L 234.495105 260.138494 
L 236.16 260.940426 
L 240.322238 261.070755 
L 241.987133 261.057299 
L 242.81958 260.920153 
L 246.149371 259.362332 
L 246.981818 257.699327 
L 247.814266 254.989286 
L 249.479161 251.449894 
L 250.311608 250.110854 
L 251.144056 248.490933 
L 251.976503 247.188988 
L 253.641399 245.342458 
L 254.473846 244.683124 
L 255.306294 243.525604 
L 256.138741 242.570086 
L 258.636084 241.29384 
L 259.468531 241.162708 
L 261.133427 241.977959 
L 261.965874 242.599605 
L 262.798322 243.498462 
L 263.630769 243.906706 
L 264.463217 243.768096 
L 265.295664 243.102635 
L 266.128112 243.035356 
L 267.793007 243.17275 
L 268.625455 243.224532 
L 270.29035 243.556427 
L 271.122797 243.70876 
L 274.452587 243.622687 
L 275.285035 243.859694 
L 276.117483 243.93805 
L 277.782378 243.757994 
L 278.614825 243.688699 
L 279.447273 242.407863 
L 280.27972 241.978967 
L 281.112168 241.394259 
L 281.944615 241.685481 
L 282.777063 241.855724 
L 283.60951 241.886408 
L 284.441958 242.04912 
L 286.106853 242.745368 
L 286.939301 243.284716 
L 290.269091 244.493786 
L 291.101538 244.930295 
L 291.933986 245.503593 
L 292.766434 246.267227 
L 294.431329 249.298543 
L 295.263776 250.081298 
L 297.761119 249.893661 
L 298.593566 249.900472 
L 299.426014 249.784507 
L 300.258462 250.037152 
L 302.755804 250.193484 
L 303.588252 250.346196 
L 305.253147 250.386147 
L 306.918042 250.858213 
L 308.582937 250.875564 
L 310.247832 249.402696 
L 311.08028 248.494545 
L 312.745175 247.617837 
L 313.577622 247.086571 
L 315.242517 246.554546 
L 316.074965 246.160641 
L 317.73986 244.775196 
L 319.404755 240.710505 
L 321.06965 237.796447 
L 321.902098 236.679924 
L 322.734545 235.848668 
L 323.566993 234.438948 
L 325.231888 232.792161 
L 327.729231 229.966401 
L 328.561678 229.52327 
L 330.226573 228.073195 
L 331.059021 225.613558 
L 331.891469 223.774973 
L 332.723916 223.356274 
L 333.556364 222.253843 
L 334.388811 221.640958 
L 335.221259 220.713686 
L 336.053706 219.435224 
L 337.718601 216.047645 
L 338.551049 215.139109 
L 339.383497 214.59162 
L 340.215944 213.087114 
L 341.880839 208.609339 
L 342.713287 206.876865 
L 343.545734 204.179083 
L 344.378182 202.070039 
L 346.043077 200.165024 
L 347.707972 197.284137 
L 348.54042 197.240584 
L 349.372867 197.751764 
L 351.037762 197.743423 
L 351.87021 196.399492 
L 352.702657 196.24893 
L 354.367552 194.753063 
L 355.2 195.244833 
L 356.032448 195.9474 
L 356.864895 195.963464 
L 357.697343 195.640918 
L 361.027133 195.925384 
L 361.85958 195.79885 
L 362.692028 195.450755 
L 363.524476 195.358007 
L 364.356923 194.873906 
L 365.189371 192.018626 
L 367.686713 177.070088 
L 368.519161 173.524542 
L 369.351608 171.342672 
L 370.184056 168.050987 
L 371.848951 163.530195 
L 372.681399 160.274159 
L 373.513846 155.068625 
L 377.676084 135.05615 
L 378.508531 131.564586 
L 380.173427 118.175918 
L 381.005874 114.722763 
L 381.838322 108.234981 
L 382.670769 98.007085 
L 384.335664 72.897485 
L 385.168112 63.504952 
L 386.000559 58.733684 
L 386.833007 57.101753 
L 387.665455 57.645509 
L 388.497902 56.398688 
L 389.33035 53.96213 
L 390.162797 53.568 
L 390.995245 54.711045 
L 391.827692 56.261151 
L 393.492587 59.973577 
L 394.325035 62.789905 
L 395.157483 64.280106 
L 395.98993 64.69432 
L 396.822378 64.21949 
L 397.654825 64.387034 
L 398.487273 63.764864 
L 398.487273 63.764864 
" style="fill:none;stroke:#1f77b4;stroke-linecap:square;stroke-width:1.5;"/>
   </g>
   <g id="line2d_18">
    <path clip-path="url(#pafa1a25ce6)" d="M 89.649231 276.426759 
L 90.481678 275.667049 
L 91.314126 274.361936 
L 92.979021 272.495098 
L 93.811469 271.333633 
L 94.643916 270.681656 
L 95.476364 270.533032 
L 96.308811 270.586499 
L 97.141259 270.023298 
L 97.973706 270.02299 
L 100.471049 268.437916 
L 102.968392 268.385543 
L 104.633287 268.672666 
L 106.298182 268.608956 
L 107.963077 268.166514 
L 108.795524 267.531598 
L 109.627972 266.674566 
L 111.292867 264.343078 
L 112.125315 263.542961 
L 112.957762 263.342822 
L 113.79021 263.005006 
L 114.622657 262.942206 
L 117.12 262.135132 
L 117.952448 261.599329 
L 118.784895 260.915459 
L 119.617343 261.317464 
L 120.44979 262.733204 
L 123.77958 267.141888 
L 126.276923 268.163354 
L 127.109371 268.004614 
L 128.774266 268.105785 
L 129.606713 269.221762 
L 130.439161 269.951636 
L 131.271608 270.920974 
L 132.104056 271.641762 
L 132.936503 278.439959 
L 134.601399 284.884069 
L 136.266294 289.864667 
L 137.098741 291.766329 
L 137.931189 293.315301 
L 139.596084 294.562472 
L 141.260979 295.488 
L 142.093427 295.426149 
L 142.925874 295.12779 
L 143.758322 294.449283 
L 145.423217 292.20176 
L 147.088112 291.26935 
L 147.920559 290.455171 
L 148.753007 289.244388 
L 149.585455 288.251633 
L 150.417902 288.050811 
L 152.082797 286.498395 
L 152.915245 285.02664 
L 154.58014 283.120896 
L 156.245035 282.884815 
L 157.077483 282.509916 
L 157.90993 281.48974 
L 158.742378 281.325524 
L 161.23972 281.250979 
L 162.072168 281.175082 
L 162.904615 280.611859 
L 163.737063 279.213598 
L 164.56951 278.901703 
L 165.401958 278.401564 
L 167.066853 278.104534 
L 170.396643 278.129823 
L 172.061538 278.445089 
L 173.726434 279.969018 
L 175.391329 280.759138 
L 177.056224 280.299077 
L 177.888671 279.734623 
L 179.553566 279.337035 
L 180.386014 279.511761 
L 181.218462 279.108648 
L 182.050909 277.894091 
L 183.715804 275.142984 
L 185.380699 273.380252 
L 186.213147 272.367967 
L 187.878042 269.877088 
L 188.71049 268.323609 
L 189.542937 267.564346 
L 193.705175 266.109997 
L 194.537622 266.246829 
L 196.202517 266.765021 
L 197.867413 266.536836 
L 198.69986 265.705298 
L 199.532308 265.348289 
L 200.364755 264.748791 
L 201.197203 264.887159 
L 207.856783 264.807264 
L 210.354126 264.321824 
L 211.186573 263.562948 
L 212.019021 263.14653 
L 212.851469 262.428069 
L 213.683916 262.14622 
L 214.516364 262.147078 
L 216.181259 262.549162 
L 217.013706 262.689434 
L 217.846154 262.342626 
L 220.343497 262.426293 
L 222.840839 263.359499 
L 223.673287 263.552655 
L 224.505734 263.595156 
L 225.338182 263.473053 
L 227.003077 263.670904 
L 228.667972 263.861042 
L 234.495105 263.79001 
L 236.16 263.35844 
L 238.657343 263.386032 
L 239.48979 263.216951 
L 241.987133 263.125887 
L 245.316923 263.35406 
L 246.149371 263.553343 
L 246.981818 264.582618 
L 247.814266 266.248368 
L 248.646713 267.17314 
L 249.479161 267.652663 
L 251.976503 268.344799 
L 253.641399 267.72779 
L 254.473846 267.099506 
L 255.306294 266.619569 
L 256.138741 265.930031 
L 257.803636 263.730373 
L 259.468531 261.109521 
L 261.133427 257.936583 
L 261.965874 255.993906 
L 262.798322 253.758226 
L 263.630769 252.365627 
L 264.463217 251.970873 
L 265.295664 251.81289 
L 266.128112 251.350595 
L 266.960559 250.748468 
L 268.625455 250.297737 
L 270.29035 249.40561 
L 271.122797 249.155795 
L 271.955245 249.373186 
L 272.787692 249.759135 
L 275.285035 249.895096 
L 276.117483 249.9111 
L 276.94993 249.659055 
L 277.782378 249.569048 
L 278.614825 249.917893 
L 279.447273 252.180144 
L 280.27972 253.508295 
L 281.112168 255.161986 
L 281.944615 256.195235 
L 282.777063 257.005727 
L 283.60951 258.077904 
L 285.274406 259.136841 
L 286.939301 259.827837 
L 288.604196 259.97831 
L 290.269091 259.929907 
L 291.101538 259.849171 
L 292.766434 259.389918 
L 294.431329 258.013168 
L 296.928671 257.645971 
L 298.593566 256.893097 
L 299.426014 256.674491 
L 300.258462 255.973829 
L 301.923357 255.4665 
L 302.755804 255.341436 
L 303.588252 255.040589 
L 308.582937 255.031359 
L 309.415385 255.462539 
L 311.08028 255.994132 
L 311.912727 255.662856 
L 314.41007 255.64494 
L 316.074965 255.531794 
L 317.73986 255.585245 
L 318.572308 256.381535 
L 319.404755 256.830358 
L 321.06965 256.774189 
L 321.902098 256.49324 
L 322.734545 255.807277 
L 323.566993 255.384603 
L 325.231888 254.107935 
L 327.729231 252.709228 
L 330.226573 250.082408 
L 331.059021 249.929045 
L 331.891469 249.184596 
L 332.723916 247.566433 
L 333.556364 246.384697 
L 334.388811 244.908732 
L 335.221259 244.304242 
L 336.053706 243.918284 
L 336.886154 243.669172 
L 337.718601 243.287086 
L 338.551049 242.336476 
L 339.383497 241.108255 
L 341.880839 239.861868 
L 342.713287 238.993512 
L 343.545734 238.704655 
L 344.378182 237.792645 
L 346.043077 234.060765 
L 346.875524 232.508371 
L 347.707972 231.962758 
L 348.54042 231.03074 
L 349.372867 229.103875 
L 350.205315 227.73479 
L 351.037762 225.983636 
L 351.87021 224.637048 
L 352.702657 222.896655 
L 354.367552 220.691546 
L 355.2 218.619188 
L 356.032448 215.963817 
L 356.864895 214.315495 
L 357.697343 213.714154 
L 359.362238 212.774661 
L 360.194685 212.96635 
L 361.027133 213.307937 
L 363.524476 213.08665 
L 364.356923 213.129336 
L 365.189371 213.43325 
L 366.021818 215.113703 
L 366.854266 216.520161 
L 367.686713 218.163706 
L 368.519161 219.412854 
L 369.351608 219.192946 
L 370.184056 219.67385 
L 371.016503 219.540527 
L 371.848951 218.775847 
L 372.681399 218.634106 
L 373.513846 219.517793 
L 374.346294 219.246903 
L 375.178741 217.954436 
L 376.843636 214.518047 
L 378.508531 208.302766 
L 379.340979 207.175704 
L 380.173427 205.290842 
L 381.005874 201.046473 
L 381.838322 199.768074 
L 382.670769 201.415812 
L 383.503217 204.168472 
L 384.335664 206.246209 
L 385.168112 205.372408 
L 386.000559 200.670508 
L 386.833007 195.172531 
L 389.33035 174.492087 
L 390.162797 168.565542 
L 393.492587 140.774788 
L 394.325035 133.945684 
L 395.157483 131.569761 
L 395.98993 130.653311 
L 396.822378 131.695623 
L 397.654825 131.3569 
L 398.487273 133.068622 
L 398.487273 133.068622 
" style="fill:none;stroke:#ff7f0e;stroke-linecap:square;stroke-width:1.5;"/>
   </g>
   <g id="line2d_19">
    <path clip-path="url(#pafa1a25ce6)" d="M 89.649231 268.830082 
L 92.146573 267.518649 
L 94.643916 266.630205 
L 95.476364 266.402535 
L 100.471049 263.981035 
L 102.968392 263.446085 
L 104.633287 262.904962 
L 107.130629 261.725143 
L 108.795524 260.635107 
L 111.292867 259.069792 
L 112.125315 258.75612 
L 112.957762 258.660366 
L 113.79021 258.386267 
L 115.455105 258.280373 
L 117.12 258.083953 
L 118.784895 257.725517 
L 119.617343 257.817193 
L 122.114685 258.776683 
L 123.77958 259.675231 
L 127.941818 261.635321 
L 128.774266 261.947632 
L 129.606713 262.454522 
L 130.439161 263.140652 
L 132.104056 264.16625 
L 132.936503 265.629921 
L 133.768951 266.866086 
L 135.433846 269.650343 
L 136.266294 270.957519 
L 137.931189 273.056838 
L 142.093427 276.916198 
L 143.758322 278.259016 
L 145.423217 279.686243 
L 147.920559 281.283084 
L 148.753007 281.742626 
L 149.585455 281.204521 
L 151.25035 280.359274 
L 152.915245 279.365085 
L 154.58014 278.168366 
L 156.245035 277.473729 
L 158.742378 276.747255 
L 161.23972 276.682703 
L 162.072168 276.573392 
L 162.904615 276.310042 
L 163.737063 275.898441 
L 165.401958 275.577572 
L 167.066853 275.427684 
L 169.564196 274.733771 
L 172.061538 274.427078 
L 172.893986 274.133669 
L 177.056224 271.222988 
L 179.553566 269.185692 
L 181.218462 267.554042 
L 182.050909 267.073708 
L 183.715804 265.97404 
L 184.548252 265.501937 
L 187.878042 263.062881 
L 189.542937 262.013312 
L 190.375385 261.697571 
L 192.04028 261.437395 
L 193.705175 261.201813 
L 195.37007 261.355438 
L 197.867413 261.821975 
L 198.69986 261.489731 
L 200.364755 261.023494 
L 201.197203 260.705963 
L 207.024336 260.670279 
L 214.516364 259.666537 
L 221.175944 260.441645 
L 222.840839 260.807787 
L 226.170629 261.444226 
L 229.50042 261.758101 
L 231.165315 261.873485 
L 232.83021 261.885604 
L 234.495105 261.964252 
L 236.992448 262.1678 
L 241.987133 262.091593 
L 243.652028 261.91589 
L 246.149371 261.457838 
L 246.981818 261.140973 
L 250.311608 259.016362 
L 255.306294 255.072586 
L 258.636084 251.893837 
L 259.468531 251.136114 
L 261.133427 249.957271 
L 262.798322 248.628344 
L 263.630769 248.136167 
L 264.463217 247.869485 
L 265.295664 247.457763 
L 266.960559 246.945514 
L 269.457902 246.624285 
L 271.122797 246.432278 
L 275.285035 246.877395 
L 276.117483 246.924575 
L 276.94993 246.734112 
L 277.782378 246.663521 
L 278.614825 246.803296 
L 281.112168 248.278123 
L 281.944615 248.940358 
L 284.441958 250.362386 
L 286.939301 251.556276 
L 288.604196 251.962716 
L 290.269091 252.211847 
L 292.766434 252.828573 
L 294.431329 253.655855 
L 295.263776 253.975086 
L 297.761119 253.576844 
L 301.090909 252.882873 
L 303.588252 252.693393 
L 305.253147 252.721796 
L 306.918042 252.946824 
L 308.582937 252.953461 
L 309.415385 252.815227 
L 311.08028 252.244339 
L 311.912727 251.885439 
L 315.242517 251.046385 
L 316.907413 250.541861 
L 317.73986 250.180221 
L 320.237203 248.040328 
L 327.729231 241.337815 
L 328.561678 240.684341 
L 330.226573 239.077802 
L 331.891469 236.479784 
L 335.221259 232.508964 
L 336.053706 231.676754 
L 338.551049 228.737792 
L 340.215944 226.906545 
L 343.545734 221.441869 
L 346.875524 215.581578 
L 347.707972 214.623447 
L 348.54042 214.135662 
L 350.205315 212.739526 
L 351.037762 211.86353 
L 351.87021 210.51827 
L 354.367552 207.722304 
L 355.2 206.932011 
L 356.864895 205.139479 
L 357.697343 204.677536 
L 359.362238 204.286897 
L 361.027133 204.61666 
L 361.85958 204.498027 
L 362.692028 204.257105 
L 363.524476 204.222329 
L 364.356923 204.001621 
L 365.189371 202.725938 
L 367.686713 197.616897 
L 369.351608 195.267809 
L 370.184056 193.862418 
L 371.016503 192.705695 
L 372.681399 189.454133 
L 374.346294 185.131171 
L 376.011189 179.768266 
L 378.508531 169.933676 
L 382.670769 149.711449 
L 386.000559 129.702096 
L 388.497902 118.644401 
L 389.33035 114.227109 
L 390.995245 108.072706 
L 392.66014 102.530174 
L 394.325035 98.367795 
L 395.157483 97.924933 
L 395.98993 97.673815 
L 396.822378 97.957556 
L 397.654825 97.871967 
L 398.487273 98.416743 
L 398.487273 98.416743 
" style="fill:none;stroke:#2ca02c;stroke-linecap:square;stroke-width:1.5;"/>
   </g>
   <g id="line2d_20">
    <path clip-path="url(#pafa1a25ce6)" d="M 73.832727 274.390026 
L 74.665175 275.779136 
L 75.497622 273.421995 
L 77.162517 273.362415 
L 78.827413 268.455732 
L 79.65986 269.159109 
L 80.492308 270.542433 
L 81.324755 268.262861 
L 82.157203 269.321022 
L 82.98965 268.32642 
L 83.822098 268.775825 
L 84.654545 264.478316 
L 85.486993 264.471827 
L 86.319441 265.032462 
L 87.151888 263.971251 
L 87.984336 263.904396 
L 88.816783 265.144754 
L 89.649231 265.556681 
L 90.481678 264.967016 
L 91.314126 265.374717 
L 92.146573 267.020778 
L 92.979021 266.749286 
L 93.811469 267.357767 
L 95.476364 263.902334 
L 96.308811 260.891613 
L 97.141259 261.521062 
L 97.973706 260.184788 
L 98.806154 261.180216 
L 99.638601 260.919846 
L 101.303497 261.513818 
L 102.135944 262.225877 
L 102.968392 259.54392 
L 103.800839 258.704293 
L 104.633287 258.348896 
L 105.465734 257.803638 
L 106.298182 256.189658 
L 107.130629 258.078772 
L 107.963077 255.547943 
L 108.795524 255.046826 
L 109.627972 255.768477 
L 110.46042 254.99292 
L 111.292867 257.770802 
L 112.125315 257.628898 
L 112.957762 258.97653 
L 113.79021 256.039091 
L 114.622657 259.665896 
L 115.455105 259.581225 
L 116.287552 259.040946 
L 117.12 259.210625 
L 117.952448 257.340704 
L 119.617343 261.377434 
L 120.44979 264.584272 
L 121.282238 264.422247 
L 122.114685 265.040125 
L 122.947133 266.125377 
L 123.77958 266.114 
L 124.612028 263.750839 
L 125.444476 264.718595 
L 126.276923 264.72039 
L 127.109371 262.850725 
L 127.941818 262.288232 
L 128.774266 263.875121 
L 129.606713 269.114324 
L 130.439161 269.761681 
L 131.271608 270.03855 
L 132.104056 269.72054 
L 132.936503 288.314355 
L 133.768951 283.933931 
L 134.601399 286.672141 
L 135.433846 285.583981 
L 136.266294 287.520952 
L 137.098741 285.724589 
L 137.931189 285.268307 
L 138.763636 280.562445 
L 139.596084 280.401174 
L 140.428531 280.456234 
L 141.260979 282.868087 
L 142.093427 278.648199 
L 142.925874 276.97167 
L 143.758322 277.455797 
L 144.590769 277.319608 
L 145.423217 277.3883 
L 146.255664 280.279137 
L 147.088112 282.38849 
L 147.920559 278.183734 
L 148.753007 278.911395 
L 149.585455 277.552254 
L 150.417902 276.565958 
L 151.25035 277.135175 
L 152.082797 276.321894 
L 152.915245 276.899254 
L 153.747692 273.720945 
L 154.58014 273.337569 
L 156.245035 273.615642 
L 157.077483 276.095156 
L 157.90993 276.682281 
L 158.742378 274.665609 
L 159.574825 276.994424 
L 160.407273 276.247294 
L 161.23972 277.214305 
L 162.072168 275.202087 
L 162.904615 275.012129 
L 163.737063 274.156482 
L 164.56951 274.499084 
L 165.401958 276.178664 
L 166.234406 276.420554 
L 167.066853 274.699894 
L 167.899301 272.134056 
L 168.731748 272.464964 
L 169.564196 271.879033 
L 170.396643 271.85433 
L 171.229091 271.41515 
L 172.061538 271.110415 
L 172.893986 267.747459 
L 173.726434 264.886528 
L 174.558881 264.697825 
L 175.391329 263.963935 
L 176.223776 264.4074 
L 177.056224 264.515458 
L 177.888671 263.909722 
L 178.721119 261.775212 
L 179.553566 260.99767 
L 180.386014 257.258701 
L 181.218462 258.763873 
L 182.050909 266.571985 
L 182.883357 264.174433 
L 183.715804 264.952648 
L 184.548252 262.692005 
L 185.380699 259.732613 
L 187.045594 260.452177 
L 187.878042 258.553818 
L 188.71049 259.40221 
L 189.542937 258.46428 
L 190.375385 258.571695 
L 191.207832 261.247458 
L 192.04028 262.210796 
L 193.705175 262.055719 
L 194.537622 264.668637 
L 195.37007 264.088798 
L 196.202517 263.770441 
L 197.034965 262.02621 
L 197.867413 260.554327 
L 198.69986 259.927102 
L 199.532308 259.961784 
L 200.364755 259.840564 
L 201.197203 256.341388 
L 202.02965 259.659957 
L 202.862098 260.057292 
L 203.694545 258.176198 
L 204.526993 259.137729 
L 205.359441 259.494044 
L 206.191888 258.827851 
L 207.024336 259.203788 
L 208.689231 258.416833 
L 209.521678 260.385445 
L 210.354126 260.652145 
L 211.186573 260.716383 
L 212.019021 262.459053 
L 212.851469 260.294912 
L 214.516364 260.561153 
L 215.348811 261.608672 
L 217.013706 261.223123 
L 218.678601 259.676702 
L 219.511049 260.175145 
L 220.343497 261.621059 
L 221.175944 262.518439 
L 222.008392 262.293354 
L 222.840839 263.351372 
L 223.673287 262.710678 
L 224.505734 262.415371 
L 225.338182 262.356811 
L 226.170629 262.075647 
L 227.003077 262.717994 
L 228.667972 262.83825 
L 229.50042 262.054984 
L 230.332867 261.674639 
L 231.165315 261.587652 
L 231.997762 260.826859 
L 232.83021 262.413351 
L 233.662657 261.597039 
L 235.327552 261.495333 
L 236.16 262.060147 
L 236.992448 261.988389 
L 237.824895 262.587161 
L 239.48979 262.44064 
L 241.154685 262.16442 
L 241.987133 262.03501 
L 243.652028 260.167094 
L 244.484476 259.965886 
L 245.316923 259.615265 
L 246.149371 258.939796 
L 246.981818 255.337338 
L 247.814266 251.144744 
L 248.646713 251.161958 
L 249.479161 250.727278 
L 250.311608 250.898701 
L 251.144056 248.88658 
L 251.976503 249.210305 
L 252.808951 250.048044 
L 253.641399 249.365106 
L 254.473846 249.710983 
L 255.306294 246.176498 
L 256.138741 245.99009 
L 256.971189 247.574316 
L 257.803636 246.974641 
L 258.636084 244.869625 
L 259.468531 245.95804 
L 260.300979 248.960946 
L 261.965874 246.404964 
L 262.798322 245.57156 
L 263.630769 245.493789 
L 264.463217 245.811106 
L 265.295664 242.927522 
L 266.128112 245.431526 
L 266.960559 245.949484 
L 267.793007 247.484692 
L 268.625455 246.924595 
L 269.457902 247.311059 
L 270.29035 246.499782 
L 271.122797 248.736161 
L 271.955245 248.245789 
L 272.787692 249.205156 
L 273.62014 248.102509 
L 274.452587 247.901585 
L 275.285035 247.032472 
L 276.117483 246.901643 
L 276.94993 245.151685 
L 277.782378 246.183339 
L 278.614825 249.200464 
L 279.447273 255.385714 
L 280.27972 254.486344 
L 281.112168 256.500934 
L 281.944615 256.17223 
L 282.777063 255.238871 
L 283.60951 256.978102 
L 284.441958 255.089288 
L 286.106853 254.505535 
L 286.939301 255.260389 
L 287.771748 253.012119 
L 288.604196 252.098631 
L 289.436643 250.850436 
L 290.269091 251.43984 
L 291.101538 251.459309 
L 291.933986 250.755567 
L 292.766434 251.955341 
L 293.598881 253.955526 
L 294.431329 253.92515 
L 295.263776 255.585087 
L 296.096224 253.057061 
L 296.928671 252.713524 
L 298.593566 252.571023 
L 299.426014 251.893166 
L 300.258462 252.49793 
L 301.090909 252.636935 
L 301.923357 253.340863 
L 302.755804 253.703734 
L 303.588252 253.779047 
L 305.253147 252.546172 
L 306.085594 253.567231 
L 306.918042 253.223599 
L 307.75049 251.681766 
L 308.582937 250.665861 
L 309.415385 249.190642 
L 310.247832 248.745697 
L 311.08028 247.717219 
L 311.912727 248.407096 
L 312.745175 248.416911 
L 313.577622 247.929182 
L 314.41007 249.061891 
L 315.242517 248.790114 
L 316.074965 247.889816 
L 316.907413 246.410801 
L 317.73986 245.404129 
L 318.572308 239.964431 
L 319.404755 238.884373 
L 320.237203 239.176987 
L 321.06965 238.032441 
L 321.902098 238.571455 
L 322.734545 238.395042 
L 323.566993 234.899652 
L 324.399441 237.117786 
L 325.231888 235.995301 
L 326.064336 235.339444 
L 326.896783 233.930233 
L 327.729231 234.139206 
L 328.561678 235.337618 
L 329.394126 232.499543 
L 330.226573 231.715772 
L 331.059021 222.931894 
L 331.891469 222.959761 
L 332.723916 227.521199 
L 333.556364 223.569129 
L 334.388811 224.51563 
L 335.221259 224.64681 
L 336.053706 222.240171 
L 336.886154 218.60057 
L 337.718601 218.421087 
L 338.551049 219.979997 
L 339.383497 220.637946 
L 340.215944 216.031804 
L 341.048392 210.180579 
L 341.880839 209.513672 
L 342.713287 209.331157 
L 343.545734 204.063843 
L 344.378182 203.928663 
L 345.210629 205.606162 
L 346.043077 205.862051 
L 346.875524 201.089436 
L 347.707972 203.76928 
L 348.54042 213.204056 
L 349.372867 213.364347 
L 350.205315 209.803254 
L 351.037762 206.99571 
L 351.87021 197.741612 
L 352.702657 203.33062 
L 353.535105 200.691785 
L 354.367552 199.320113 
L 355.2 204.174125 
L 356.032448 201.109905 
L 356.864895 199.709214 
L 357.697343 200.941716 
L 358.52979 206.224265 
L 359.362238 204.807778 
L 360.194685 206.632191 
L 361.027133 207.955588 
L 361.85958 203.233491 
L 362.692028 201.043611 
L 363.524476 200.393917 
L 364.356923 199.355123 
L 365.189371 187.690396 
L 366.021818 178.736993 
L 366.854266 176.771718 
L 367.686713 172.473782 
L 368.519161 174.777638 
L 369.351608 179.312833 
L 370.184056 172.583972 
L 371.016503 176.185655 
L 371.848951 173.120639 
L 372.681399 167.132133 
L 373.513846 156.490742 
L 374.346294 157.700949 
L 375.178741 152.842386 
L 376.011189 150.931559 
L 376.843636 141.551883 
L 377.676084 141.121948 
L 378.508531 138.455644 
L 379.340979 121.272274 
L 380.173427 116.159332 
L 381.005874 122.379882 
L 381.838322 110.028586 
L 383.503217 76.719834 
L 384.335664 69.733634 
L 385.168112 72.114295 
L 386.000559 84.581159 
L 386.833007 101.284891 
L 387.665455 109.876101 
L 388.497902 89.57537 
L 389.33035 78.786289 
L 390.162797 93.283988 
L 390.995245 97.819642 
L 391.827692 98.947208 
L 392.66014 93.976109 
L 393.492587 98.432041 
L 394.325035 100.994195 
L 395.157483 129.598421 
L 395.98993 116.249911 
L 396.822378 121.834155 
L 397.654825 120.668099 
L 398.487273 120.924101 
L 398.487273 120.924101 
" style="fill:none;stroke:#d62728;stroke-linecap:square;stroke-width:1.5;"/>
   </g>
   <g id="patch_3">
    <path d="M 57.6 307.584 
L 57.6 41.472 
" style="fill:none;stroke:#000000;stroke-linecap:square;stroke-linejoin:miter;stroke-width:0.8;"/>
   </g>
   <g id="patch_4">
    <path d="M 414.72 307.584 
L 414.72 41.472 
" style="fill:none;stroke:#000000;stroke-linecap:square;stroke-linejoin:miter;stroke-width:0.8;"/>
   </g>
   <g id="patch_5">
    <path d="M 57.6 307.584 
L 414.72 307.584 
" style="fill:none;stroke:#000000;stroke-linecap:square;stroke-linejoin:miter;stroke-width:0.8;"/>
   </g>
   <g id="patch_6">
    <path d="M 57.6 41.472 
L 414.72 41.472 
" style="fill:none;stroke:#000000;stroke-linecap:square;stroke-linejoin:miter;stroke-width:0.8;"/>
   </g>
   <g id="text_17">
    <!-- Data source: coindesk -->
    <g transform="translate(180.640469 35.472)scale(0.1 -0.1)">
     <defs>
      <path d="M 19.671875 64.796875 
L 19.671875 8.109375 
L 31.59375 8.109375 
Q 46.6875 8.109375 53.6875 14.9375 
Q 60.6875 21.78125 60.6875 36.53125 
Q 60.6875 51.171875 53.6875 57.984375 
Q 46.6875 64.796875 31.59375 64.796875 
z
M 9.8125 72.90625 
L 30.078125 72.90625 
Q 51.265625 72.90625 61.171875 64.09375 
Q 71.09375 55.28125 71.09375 36.53125 
Q 71.09375 17.671875 61.125 8.828125 
Q 51.171875 0 30.078125 0 
L 9.8125 0 
z
" id="DejaVuSans-68"/>
      <path d="M 34.28125 27.484375 
Q 23.390625 27.484375 19.1875 25 
Q 14.984375 22.515625 14.984375 16.5 
Q 14.984375 11.71875 18.140625 8.90625 
Q 21.296875 6.109375 26.703125 6.109375 
Q 34.1875 6.109375 38.703125 11.40625 
Q 43.21875 16.703125 43.21875 25.484375 
L 43.21875 27.484375 
z
M 52.203125 31.203125 
L 52.203125 0 
L 43.21875 0 
L 43.21875 8.296875 
Q 40.140625 3.328125 35.546875 0.953125 
Q 30.953125 -1.421875 24.3125 -1.421875 
Q 15.921875 -1.421875 10.953125 3.296875 
Q 6 8.015625 6 15.921875 
Q 6 25.140625 12.171875 29.828125 
Q 18.359375 34.515625 30.609375 34.515625 
L 43.21875 34.515625 
L 43.21875 35.40625 
Q 43.21875 41.609375 39.140625 45 
Q 35.0625 48.390625 27.6875 48.390625 
Q 23 48.390625 18.546875 47.265625 
Q 14.109375 46.140625 10.015625 43.890625 
L 10.015625 52.203125 
Q 14.9375 54.109375 19.578125 55.046875 
Q 24.21875 56 28.609375 56 
Q 40.484375 56 46.34375 49.84375 
Q 52.203125 43.703125 52.203125 31.203125 
z
" id="DejaVuSans-97"/>
      <path d="M 18.3125 70.21875 
L 18.3125 54.6875 
L 36.8125 54.6875 
L 36.8125 47.703125 
L 18.3125 47.703125 
L 18.3125 18.015625 
Q 18.3125 11.328125 20.140625 9.421875 
Q 21.96875 7.515625 27.59375 7.515625 
L 36.8125 7.515625 
L 36.8125 0 
L 27.59375 0 
Q 17.1875 0 13.234375 3.875 
Q 9.28125 7.765625 9.28125 18.015625 
L 9.28125 47.703125 
L 2.6875 47.703125 
L 2.6875 54.6875 
L 9.28125 54.6875 
L 9.28125 70.21875 
z
" id="DejaVuSans-116"/>
      <path id="DejaVuSans-32"/>
      <path d="M 44.28125 53.078125 
L 44.28125 44.578125 
Q 40.484375 46.53125 36.375 47.5 
Q 32.28125 48.484375 27.875 48.484375 
Q 21.1875 48.484375 17.84375 46.4375 
Q 14.5 44.390625 14.5 40.28125 
Q 14.5 37.15625 16.890625 35.375 
Q 19.28125 33.59375 26.515625 31.984375 
L 29.59375 31.296875 
Q 39.15625 29.25 43.1875 25.515625 
Q 47.21875 21.78125 47.21875 15.09375 
Q 47.21875 7.46875 41.1875 3.015625 
Q 35.15625 -1.421875 24.609375 -1.421875 
Q 20.21875 -1.421875 15.453125 -0.5625 
Q 10.6875 0.296875 5.421875 2 
L 5.421875 11.28125 
Q 10.40625 8.6875 15.234375 7.390625 
Q 20.0625 6.109375 24.8125 6.109375 
Q 31.15625 6.109375 34.5625 8.28125 
Q 37.984375 10.453125 37.984375 14.40625 
Q 37.984375 18.0625 35.515625 20.015625 
Q 33.0625 21.96875 24.703125 23.78125 
L 21.578125 24.515625 
Q 13.234375 26.265625 9.515625 29.90625 
Q 5.8125 33.546875 5.8125 39.890625 
Q 5.8125 47.609375 11.28125 51.796875 
Q 16.75 56 26.8125 56 
Q 31.78125 56 36.171875 55.265625 
Q 40.578125 54.546875 44.28125 53.078125 
z
" id="DejaVuSans-115"/>
      <path d="M 30.609375 48.390625 
Q 23.390625 48.390625 19.1875 42.75 
Q 14.984375 37.109375 14.984375 27.296875 
Q 14.984375 17.484375 19.15625 11.84375 
Q 23.34375 6.203125 30.609375 6.203125 
Q 37.796875 6.203125 41.984375 11.859375 
Q 46.1875 17.53125 46.1875 27.296875 
Q 46.1875 37.015625 41.984375 42.703125 
Q 37.796875 48.390625 30.609375 48.390625 
z
M 30.609375 56 
Q 42.328125 56 49.015625 48.375 
Q 55.71875 40.765625 55.71875 27.296875 
Q 55.71875 13.875 49.015625 6.21875 
Q 42.328125 -1.421875 30.609375 -1.421875 
Q 18.84375 -1.421875 12.171875 6.21875 
Q 5.515625 13.875 5.515625 27.296875 
Q 5.515625 40.765625 12.171875 48.375 
Q 18.84375 56 30.609375 56 
z
" id="DejaVuSans-111"/>
      <path d="M 8.5 21.578125 
L 8.5 54.6875 
L 17.484375 54.6875 
L 17.484375 21.921875 
Q 17.484375 14.15625 20.5 10.265625 
Q 23.53125 6.390625 29.59375 6.390625 
Q 36.859375 6.390625 41.078125 11.03125 
Q 45.3125 15.671875 45.3125 23.6875 
L 45.3125 54.6875 
L 54.296875 54.6875 
L 54.296875 0 
L 45.3125 0 
L 45.3125 8.40625 
Q 42.046875 3.421875 37.71875 1 
Q 33.40625 -1.421875 27.6875 -1.421875 
Q 18.265625 -1.421875 13.375 4.4375 
Q 8.5 10.296875 8.5 21.578125 
z
M 31.109375 56 
z
" id="DejaVuSans-117"/>
      <path d="M 41.109375 46.296875 
Q 39.59375 47.171875 37.8125 47.578125 
Q 36.03125 48 33.890625 48 
Q 26.265625 48 22.1875 43.046875 
Q 18.109375 38.09375 18.109375 28.8125 
L 18.109375 0 
L 9.078125 0 
L 9.078125 54.6875 
L 18.109375 54.6875 
L 18.109375 46.1875 
Q 20.953125 51.171875 25.484375 53.578125 
Q 30.03125 56 36.53125 56 
Q 37.453125 56 38.578125 55.875 
Q 39.703125 55.765625 41.0625 55.515625 
z
" id="DejaVuSans-114"/>
      <path d="M 48.78125 52.59375 
L 48.78125 44.1875 
Q 44.96875 46.296875 41.140625 47.34375 
Q 37.3125 48.390625 33.40625 48.390625 
Q 24.65625 48.390625 19.8125 42.84375 
Q 14.984375 37.3125 14.984375 27.296875 
Q 14.984375 17.28125 19.8125 11.734375 
Q 24.65625 6.203125 33.40625 6.203125 
Q 37.3125 6.203125 41.140625 7.25 
Q 44.96875 8.296875 48.78125 10.40625 
L 48.78125 2.09375 
Q 45.015625 0.34375 40.984375 -0.53125 
Q 36.96875 -1.421875 32.421875 -1.421875 
Q 20.0625 -1.421875 12.78125 6.34375 
Q 5.515625 14.109375 5.515625 27.296875 
Q 5.515625 40.671875 12.859375 48.328125 
Q 20.21875 56 33.015625 56 
Q 37.15625 56 41.109375 55.140625 
Q 45.0625 54.296875 48.78125 52.59375 
z
" id="DejaVuSans-99"/>
      <path d="M 56.203125 29.59375 
L 56.203125 25.203125 
L 14.890625 25.203125 
Q 15.484375 15.921875 20.484375 11.0625 
Q 25.484375 6.203125 34.421875 6.203125 
Q 39.59375 6.203125 44.453125 7.46875 
Q 49.3125 8.734375 54.109375 11.28125 
L 54.109375 2.78125 
Q 49.265625 0.734375 44.1875 -0.34375 
Q 39.109375 -1.421875 33.890625 -1.421875 
Q 20.796875 -1.421875 13.15625 6.1875 
Q 5.515625 13.8125 5.515625 26.8125 
Q 5.515625 40.234375 12.765625 48.109375 
Q 20.015625 56 32.328125 56 
Q 43.359375 56 49.78125 48.890625 
Q 56.203125 41.796875 56.203125 29.59375 
z
M 47.21875 32.234375 
Q 47.125 39.59375 43.09375 43.984375 
Q 39.0625 48.390625 32.421875 48.390625 
Q 24.90625 48.390625 20.390625 44.140625 
Q 15.875 39.890625 15.1875 32.171875 
z
" id="DejaVuSans-101"/>
      <path d="M 11.71875 12.40625 
L 22.015625 12.40625 
L 22.015625 0 
L 11.71875 0 
z
M 11.71875 51.703125 
L 22.015625 51.703125 
L 22.015625 39.3125 
L 11.71875 39.3125 
z
" id="DejaVuSans-58"/>
      <path d="M 9.421875 54.6875 
L 18.40625 54.6875 
L 18.40625 0 
L 9.421875 0 
z
M 9.421875 75.984375 
L 18.40625 75.984375 
L 18.40625 64.59375 
L 9.421875 64.59375 
z
" id="DejaVuSans-105"/>
      <path d="M 54.890625 33.015625 
L 54.890625 0 
L 45.90625 0 
L 45.90625 32.71875 
Q 45.90625 40.484375 42.875 44.328125 
Q 39.84375 48.1875 33.796875 48.1875 
Q 26.515625 48.1875 22.3125 43.546875 
Q 18.109375 38.921875 18.109375 30.90625 
L 18.109375 0 
L 9.078125 0 
L 9.078125 54.6875 
L 18.109375 54.6875 
L 18.109375 46.1875 
Q 21.34375 51.125 25.703125 53.5625 
Q 30.078125 56 35.796875 56 
Q 45.21875 56 50.046875 50.171875 
Q 54.890625 44.34375 54.890625 33.015625 
z
" id="DejaVuSans-110"/>
      <path d="M 45.40625 46.390625 
L 45.40625 75.984375 
L 54.390625 75.984375 
L 54.390625 0 
L 45.40625 0 
L 45.40625 8.203125 
Q 42.578125 3.328125 38.25 0.953125 
Q 33.9375 -1.421875 27.875 -1.421875 
Q 17.96875 -1.421875 11.734375 6.484375 
Q 5.515625 14.40625 5.515625 27.296875 
Q 5.515625 40.1875 11.734375 48.09375 
Q 17.96875 56 27.875 56 
Q 33.9375 56 38.25 53.625 
Q 42.578125 51.265625 45.40625 46.390625 
z
M 14.796875 27.296875 
Q 14.796875 17.390625 18.875 11.75 
Q 22.953125 6.109375 30.078125 6.109375 
Q 37.203125 6.109375 41.296875 11.75 
Q 45.40625 17.390625 45.40625 27.296875 
Q 45.40625 37.203125 41.296875 42.84375 
Q 37.203125 48.484375 30.078125 48.484375 
Q 22.953125 48.484375 18.875 42.84375 
Q 14.796875 37.203125 14.796875 27.296875 
z
" id="DejaVuSans-100"/>
      <path d="M 9.078125 75.984375 
L 18.109375 75.984375 
L 18.109375 31.109375 
L 44.921875 54.6875 
L 56.390625 54.6875 
L 27.390625 29.109375 
L 57.625 0 
L 45.90625 0 
L 18.109375 26.703125 
L 18.109375 0 
L 9.078125 0 
z
" id="DejaVuSans-107"/>
     </defs>
     <use xlink:href="#DejaVuSans-68"/>
     <use x="77.001953" xlink:href="#DejaVuSans-97"/>
     <use x="138.28125" xlink:href="#DejaVuSans-116"/>
     <use x="177.490234" xlink:href="#DejaVuSans-97"/>
     <use x="238.769531" xlink:href="#DejaVuSans-32"/>
     <use x="270.556641" xlink:href="#DejaVuSans-115"/>
     <use x="322.65625" xlink:href="#DejaVuSans-111"/>
     <use x="383.837891" xlink:href="#DejaVuSans-117"/>
     <use x="447.216797" xlink:href="#DejaVuSans-114"/>
     <use x="486.080078" xlink:href="#DejaVuSans-99"/>
     <use x="541.060547" xlink:href="#DejaVuSans-101"/>
     <use x="602.583984" xlink:href="#DejaVuSans-58"/>
     <use x="636.275391" xlink:href="#DejaVuSans-32"/>
     <use x="668.0625" xlink:href="#DejaVuSans-99"/>
     <use x="723.042969" xlink:href="#DejaVuSans-111"/>
     <use x="784.224609" xlink:href="#DejaVuSans-105"/>
     <use x="812.007812" xlink:href="#DejaVuSans-110"/>
     <use x="875.386719" xlink:href="#DejaVuSans-100"/>
     <use x="938.863281" xlink:href="#DejaVuSans-101"/>
     <use x="1000.386719" xlink:href="#DejaVuSans-115"/>
     <use x="1052.486328" xlink:href="#DejaVuSans-107"/>
    </g>
   </g>
   <g id="legend_1">
    <g id="patch_7">
     <path d="M 64.6 108.1845 
L 155.732812 108.1845 
Q 157.732812 108.1845 157.732812 106.1845 
L 157.732812 48.472 
Q 157.732812 46.472 155.732812 46.472 
L 64.6 46.472 
Q 62.6 46.472 62.6 48.472 
L 62.6 106.1845 
Q 62.6 108.1845 64.6 108.1845 
z
" style="fill:#ffffff;opacity:0.8;stroke:#cccccc;stroke-linejoin:miter;"/>
    </g>
    <g id="line2d_21">
     <path d="M 66.6 54.570438 
L 86.6 54.570438 
" style="fill:none;stroke:#1f77b4;stroke-linecap:square;stroke-width:1.5;"/>
    </g>
    <g id="line2d_22"/>
    <g id="text_18">
     <!-- Upper Band -->
     <g transform="translate(94.6 58.070438)scale(0.1 -0.1)">
      <defs>
       <path d="M 8.6875 72.90625 
L 18.609375 72.90625 
L 18.609375 28.609375 
Q 18.609375 16.890625 22.84375 11.734375 
Q 27.09375 6.59375 36.625 6.59375 
Q 46.09375 6.59375 50.34375 11.734375 
Q 54.59375 16.890625 54.59375 28.609375 
L 54.59375 72.90625 
L 64.5 72.90625 
L 64.5 27.390625 
Q 64.5 13.140625 57.4375 5.859375 
Q 50.390625 -1.421875 36.625 -1.421875 
Q 22.796875 -1.421875 15.734375 5.859375 
Q 8.6875 13.140625 8.6875 27.390625 
z
" id="DejaVuSans-85"/>
       <path d="M 18.109375 8.203125 
L 18.109375 -20.796875 
L 9.078125 -20.796875 
L 9.078125 54.6875 
L 18.109375 54.6875 
L 18.109375 46.390625 
Q 20.953125 51.265625 25.265625 53.625 
Q 29.59375 56 35.59375 56 
Q 45.5625 56 51.78125 48.09375 
Q 58.015625 40.1875 58.015625 27.296875 
Q 58.015625 14.40625 51.78125 6.484375 
Q 45.5625 -1.421875 35.59375 -1.421875 
Q 29.59375 -1.421875 25.265625 0.953125 
Q 20.953125 3.328125 18.109375 8.203125 
z
M 48.6875 27.296875 
Q 48.6875 37.203125 44.609375 42.84375 
Q 40.53125 48.484375 33.40625 48.484375 
Q 26.265625 48.484375 22.1875 42.84375 
Q 18.109375 37.203125 18.109375 27.296875 
Q 18.109375 17.390625 22.1875 11.75 
Q 26.265625 6.109375 33.40625 6.109375 
Q 40.53125 6.109375 44.609375 11.75 
Q 48.6875 17.390625 48.6875 27.296875 
z
" id="DejaVuSans-112"/>
       <path d="M 19.671875 34.8125 
L 19.671875 8.109375 
L 35.5 8.109375 
Q 43.453125 8.109375 47.28125 11.40625 
Q 51.125 14.703125 51.125 21.484375 
Q 51.125 28.328125 47.28125 31.5625 
Q 43.453125 34.8125 35.5 34.8125 
z
M 19.671875 64.796875 
L 19.671875 42.828125 
L 34.28125 42.828125 
Q 41.5 42.828125 45.03125 45.53125 
Q 48.578125 48.25 48.578125 53.8125 
Q 48.578125 59.328125 45.03125 62.0625 
Q 41.5 64.796875 34.28125 64.796875 
z
M 9.8125 72.90625 
L 35.015625 72.90625 
Q 46.296875 72.90625 52.390625 68.21875 
Q 58.5 63.53125 58.5 54.890625 
Q 58.5 48.1875 55.375 44.234375 
Q 52.25 40.28125 46.1875 39.3125 
Q 53.46875 37.75 57.5 32.78125 
Q 61.53125 27.828125 61.53125 20.40625 
Q 61.53125 10.640625 54.890625 5.3125 
Q 48.25 0 35.984375 0 
L 9.8125 0 
z
" id="DejaVuSans-66"/>
      </defs>
      <use xlink:href="#DejaVuSans-85"/>
      <use x="73.193359" xlink:href="#DejaVuSans-112"/>
      <use x="136.669922" xlink:href="#DejaVuSans-112"/>
      <use x="200.146484" xlink:href="#DejaVuSans-101"/>
      <use x="261.669922" xlink:href="#DejaVuSans-114"/>
      <use x="302.783203" xlink:href="#DejaVuSans-32"/>
      <use x="334.570312" xlink:href="#DejaVuSans-66"/>
      <use x="403.173828" xlink:href="#DejaVuSans-97"/>
      <use x="464.453125" xlink:href="#DejaVuSans-110"/>
      <use x="527.832031" xlink:href="#DejaVuSans-100"/>
     </g>
    </g>
    <g id="line2d_23">
     <path d="M 66.6 69.248563 
L 86.6 69.248563 
" style="fill:none;stroke:#ff7f0e;stroke-linecap:square;stroke-width:1.5;"/>
    </g>
    <g id="line2d_24"/>
    <g id="text_19">
     <!-- Lower Band -->
     <g transform="translate(94.6 72.748563)scale(0.1 -0.1)">
      <defs>
       <path d="M 9.8125 72.90625 
L 19.671875 72.90625 
L 19.671875 8.296875 
L 55.171875 8.296875 
L 55.171875 0 
L 9.8125 0 
z
" id="DejaVuSans-76"/>
       <path d="M 4.203125 54.6875 
L 13.1875 54.6875 
L 24.421875 12.015625 
L 35.59375 54.6875 
L 46.1875 54.6875 
L 57.421875 12.015625 
L 68.609375 54.6875 
L 77.59375 54.6875 
L 63.28125 0 
L 52.6875 0 
L 40.921875 44.828125 
L 29.109375 0 
L 18.5 0 
z
" id="DejaVuSans-119"/>
      </defs>
      <use xlink:href="#DejaVuSans-76"/>
      <use x="53.962891" xlink:href="#DejaVuSans-111"/>
      <use x="115.144531" xlink:href="#DejaVuSans-119"/>
      <use x="196.931641" xlink:href="#DejaVuSans-101"/>
      <use x="258.455078" xlink:href="#DejaVuSans-114"/>
      <use x="299.568359" xlink:href="#DejaVuSans-32"/>
      <use x="331.355469" xlink:href="#DejaVuSans-66"/>
      <use x="399.958984" xlink:href="#DejaVuSans-97"/>
      <use x="461.238281" xlink:href="#DejaVuSans-110"/>
      <use x="524.617188" xlink:href="#DejaVuSans-100"/>
     </g>
    </g>
    <g id="line2d_25">
     <path d="M 66.6 83.926688 
L 86.6 83.926688 
" style="fill:none;stroke:#2ca02c;stroke-linecap:square;stroke-width:1.5;"/>
    </g>
    <g id="line2d_26"/>
    <g id="text_20">
     <!-- MA -->
     <g transform="translate(94.6 87.426688)scale(0.1 -0.1)">
      <defs>
       <path d="M 9.8125 72.90625 
L 24.515625 72.90625 
L 43.109375 23.296875 
L 61.8125 72.90625 
L 76.515625 72.90625 
L 76.515625 0 
L 66.890625 0 
L 66.890625 64.015625 
L 48.09375 14.015625 
L 38.1875 14.015625 
L 19.390625 64.015625 
L 19.390625 0 
L 9.8125 0 
z
" id="DejaVuSans-77"/>
       <path d="M 34.1875 63.1875 
L 20.796875 26.90625 
L 47.609375 26.90625 
z
M 28.609375 72.90625 
L 39.796875 72.90625 
L 67.578125 0 
L 57.328125 0 
L 50.6875 18.703125 
L 17.828125 18.703125 
L 11.1875 0 
L 0.78125 0 
z
" id="DejaVuSans-65"/>
      </defs>
      <use xlink:href="#DejaVuSans-77"/>
      <use x="86.279297" xlink:href="#DejaVuSans-65"/>
     </g>
    </g>
    <g id="line2d_27">
     <path d="M 66.6 98.604813 
L 86.6 98.604813 
" style="fill:none;stroke:#d62728;stroke-linecap:square;stroke-width:1.5;"/>
    </g>
    <g id="line2d_28"/>
    <g id="text_21">
     <!-- BTC-USD -->
     <g transform="translate(94.6 102.104813)scale(0.1 -0.1)">
      <defs>
       <path d="M -0.296875 72.90625 
L 61.375 72.90625 
L 61.375 64.59375 
L 35.5 64.59375 
L 35.5 0 
L 25.59375 0 
L 25.59375 64.59375 
L -0.296875 64.59375 
z
" id="DejaVuSans-84"/>
       <path d="M 64.40625 67.28125 
L 64.40625 56.890625 
Q 59.421875 61.53125 53.78125 63.8125 
Q 48.140625 66.109375 41.796875 66.109375 
Q 29.296875 66.109375 22.65625 58.46875 
Q 16.015625 50.828125 16.015625 36.375 
Q 16.015625 21.96875 22.65625 14.328125 
Q 29.296875 6.6875 41.796875 6.6875 
Q 48.140625 6.6875 53.78125 8.984375 
Q 59.421875 11.28125 64.40625 15.921875 
L 64.40625 5.609375 
Q 59.234375 2.09375 53.4375 0.328125 
Q 47.65625 -1.421875 41.21875 -1.421875 
Q 24.65625 -1.421875 15.125 8.703125 
Q 5.609375 18.84375 5.609375 36.375 
Q 5.609375 53.953125 15.125 64.078125 
Q 24.65625 74.21875 41.21875 74.21875 
Q 47.75 74.21875 53.53125 72.484375 
Q 59.328125 70.75 64.40625 67.28125 
z
" id="DejaVuSans-67"/>
       <path d="M 53.515625 70.515625 
L 53.515625 60.890625 
Q 47.90625 63.578125 42.921875 64.890625 
Q 37.9375 66.21875 33.296875 66.21875 
Q 25.25 66.21875 20.875 63.09375 
Q 16.5 59.96875 16.5 54.203125 
Q 16.5 49.359375 19.40625 46.890625 
Q 22.3125 44.4375 30.421875 42.921875 
L 36.375 41.703125 
Q 47.40625 39.59375 52.65625 34.296875 
Q 57.90625 29 57.90625 20.125 
Q 57.90625 9.515625 50.796875 4.046875 
Q 43.703125 -1.421875 29.984375 -1.421875 
Q 24.8125 -1.421875 18.96875 -0.25 
Q 13.140625 0.921875 6.890625 3.21875 
L 6.890625 13.375 
Q 12.890625 10.015625 18.65625 8.296875 
Q 24.421875 6.59375 29.984375 6.59375 
Q 38.421875 6.59375 43.015625 9.90625 
Q 47.609375 13.234375 47.609375 19.390625 
Q 47.609375 24.75 44.3125 27.78125 
Q 41.015625 30.8125 33.5 32.328125 
L 27.484375 33.5 
Q 16.453125 35.6875 11.515625 40.375 
Q 6.59375 45.0625 6.59375 53.421875 
Q 6.59375 63.09375 13.40625 68.65625 
Q 20.21875 74.21875 32.171875 74.21875 
Q 37.3125 74.21875 42.625 73.28125 
Q 47.953125 72.359375 53.515625 70.515625 
z
" id="DejaVuSans-83"/>
      </defs>
      <use xlink:href="#DejaVuSans-66"/>
      <use x="68.603516" xlink:href="#DejaVuSans-84"/>
      <use x="123.8125" xlink:href="#DejaVuSans-67"/>
      <use x="193.636719" xlink:href="#DejaVuSans-45"/>
      <use x="229.720703" xlink:href="#DejaVuSans-85"/>
      <use x="302.914062" xlink:href="#DejaVuSans-83"/>
      <use x="366.390625" xlink:href="#DejaVuSans-68"/>
     </g>
    </g>
   </g>
  </g>
  <g id="text_22">
   <!-- Bollinger Band -->
   <g transform="translate(171.90625 19.0695)scale(0.16 -0.16)">
    <defs>
     <path d="M 9.421875 75.984375 
L 18.40625 75.984375 
L 18.40625 0 
L 9.421875 0 
z
" id="DejaVuSans-108"/>
     <path d="M 45.40625 27.984375 
Q 45.40625 37.75 41.375 43.109375 
Q 37.359375 48.484375 30.078125 48.484375 
Q 22.859375 48.484375 18.828125 43.109375 
Q 14.796875 37.75 14.796875 27.984375 
Q 14.796875 18.265625 18.828125 12.890625 
Q 22.859375 7.515625 30.078125 7.515625 
Q 37.359375 7.515625 41.375 12.890625 
Q 45.40625 18.265625 45.40625 27.984375 
z
M 54.390625 6.78125 
Q 54.390625 -7.171875 48.1875 -13.984375 
Q 42 -20.796875 29.203125 -20.796875 
Q 24.46875 -20.796875 20.265625 -20.09375 
Q 16.0625 -19.390625 12.109375 -17.921875 
L 12.109375 -9.1875 
Q 16.0625 -11.328125 19.921875 -12.34375 
Q 23.78125 -13.375 27.78125 -13.375 
Q 36.625 -13.375 41.015625 -8.765625 
Q 45.40625 -4.15625 45.40625 5.171875 
L 45.40625 9.625 
Q 42.625 4.78125 38.28125 2.390625 
Q 33.9375 0 27.875 0 
Q 17.828125 0 11.671875 7.65625 
Q 5.515625 15.328125 5.515625 27.984375 
Q 5.515625 40.671875 11.671875 48.328125 
Q 17.828125 56 27.875 56 
Q 33.9375 56 38.28125 53.609375 
Q 42.625 51.21875 45.40625 46.390625 
L 45.40625 54.6875 
L 54.390625 54.6875 
z
" id="DejaVuSans-103"/>
    </defs>
    <use xlink:href="#DejaVuSans-66"/>
    <use x="68.603516" xlink:href="#DejaVuSans-111"/>
    <use x="129.785156" xlink:href="#DejaVuSans-108"/>
    <use x="157.568359" xlink:href="#DejaVuSans-108"/>
    <use x="185.351562" xlink:href="#DejaVuSans-105"/>
    <use x="213.134766" xlink:href="#DejaVuSans-110"/>
    <use x="276.513672" xlink:href="#DejaVuSans-103"/>
    <use x="339.990234" xlink:href="#DejaVuSans-101"/>
    <use x="401.513672" xlink:href="#DejaVuSans-114"/>
    <use x="442.626953" xlink:href="#DejaVuSans-32"/>
    <use x="474.414062" xlink:href="#DejaVuSans-66"/>
    <use x="543.017578" xlink:href="#DejaVuSans-97"/>
    <use x="604.296875" xlink:href="#DejaVuSans-110"/>
    <use x="667.675781" xlink:href="#DejaVuSans-100"/>
   </g>
  </g>
 </g>
 <defs>
  <clipPath id="pafa1a25ce6">
   <rect height="266.112" width="357.12" x="57.6" y="41.472"/>
  </clipPath>
 </defs>
</svg>
