<?xml version="1.0" encoding="utf-8" standalone="no"?>
<!DOCTYPE svg PUBLIC "-//W3C//DTD SVG 1.1//EN"
  "http://www.w3.org/Graphics/SVG/1.1/DTD/svg11.dtd">
<!-- Created with matplotlib (https://matplotlib.org/) -->
<svg height="345.6pt" version="1.1" viewBox="0 0 460.8 345.6" width="460.8pt" xmlns="http://www.w3.org/2000/svg" xmlns:xlink="http://www.w3.org/1999/xlink">
 <metadata>
  <rdf:RDF xmlns:cc="http://creativecommons.org/ns#" xmlns:dc="http://purl.org/dc/elements/1.1/" xmlns:rdf="http://www.w3.org/1999/02/22-rdf-syntax-ns#">
   <cc:Work>
    <dc:type rdf:resource="http://purl.org/dc/dcmitype/StillImage"/>
    <dc:date>2021-02-23T19:59:38.455612</dc:date>
    <dc:format>image/svg+xml</dc:format>
    <dc:creator>
     <cc:Agent>
      <dc:title>Matplotlib v3.3.2, https://matplotlib.org/</dc:title>
     </cc:Agent>
    </dc:creator>
   </cc:Work>
  </rdf:RDF>
 </metadata>
 <defs>
  <style type="text/css">*{stroke-linecap:butt;stroke-linejoin:round;}</style>
 </defs>
 <g id="figure_1">
  <g id="patch_1">
   <path d="M 0 345.6 
L 460.8 345.6 
L 460.8 0 
L 0 0 
z
" style="fill:#ffffff;"/>
  </g>
  <g id="axes_1">
   <g id="patch_2">
    <path d="M 57.6 307.584 
L 414.72 307.584 
L 414.72 41.472 
L 57.6 41.472 
z
" style="fill:#ffffff;"/>
   </g>
   <g id="PolyCollection_1">
    <defs>
     <path d="M 88.554532 -63.287483 
L 88.554532 -73.834351 
L 89.329364 -73.969744 
L 90.104196 -73.791513 
L 90.879028 -73.638842 
L 91.65386 -73.409337 
L 92.428692 -73.019838 
L 93.203524 -72.920463 
L 93.978355 -73.132767 
L 94.753187 -73.730312 
L 95.528019 -73.969625 
L 96.302851 -74.519412 
L 97.077683 -74.712764 
L 97.852515 -74.936237 
L 98.627346 -74.991935 
L 99.402178 -75.19089 
L 100.17701 -75.303818 
L 100.951842 -75.720973 
L 101.726674 -76.213438 
L 102.501506 -76.701955 
L 103.276338 -77.186125 
L 104.051169 -77.823285 
L 104.826001 -78.132937 
L 105.600833 -78.679556 
L 106.375665 -79.079183 
L 107.150497 -79.260959 
L 107.925329 -79.296981 
L 108.700161 -79.0706 
L 109.474992 -78.954951 
L 110.249824 -78.94879 
L 111.024656 -79.097991 
L 111.799488 -79.087592 
L 112.57432 -79.028254 
L 113.349152 -78.973044 
L 114.123984 -78.88616 
L 114.898815 -78.796311 
L 115.673647 -78.516981 
L 116.448479 -78.671023 
L 117.223311 -79.251291 
L 117.998143 -79.609274 
L 118.772975 -79.892701 
L 119.547806 -80.026978 
L 120.322638 -80.175956 
L 121.09747 -79.86903 
L 121.872302 -79.456424 
L 122.647134 -79.04134 
L 123.421966 -78.394276 
L 124.196798 -78.079988 
L 124.971629 -77.705295 
L 125.746461 -77.769133 
L 126.521293 -77.320094 
L 127.296125 -77.23951 
L 128.070957 -77.018618 
L 128.845789 -79.757224 
L 129.620621 -80.264006 
L 130.395452 -80.439375 
L 131.170284 -80.297206 
L 131.945116 -80.260856 
L 132.719948 -80.103931 
L 133.49478 -79.741632 
L 134.269612 -79.137861 
L 135.044443 -78.54555 
L 135.819275 -77.87728 
L 136.594107 -76.870762 
L 137.368939 -75.862523 
L 138.143771 -74.788753 
L 138.918603 -73.31037 
L 139.693435 -71.539443 
L 140.468266 -69.66896 
L 141.243098 -68.549894 
L 142.01793 -67.327186 
L 142.792762 -66.060371 
L 143.567594 -64.48414 
L 144.342426 -64.533821 
L 145.117258 -64.915022 
L 145.892089 -65.024246 
L 146.666921 -65.199822 
L 147.441753 -64.928335 
L 148.216585 -65.242336 
L 148.991417 -65.243873 
L 149.766249 -65.777224 
L 150.54108 -66.144485 
L 151.315912 -66.197268 
L 152.090744 -66.006385 
L 152.865576 -66.072991 
L 153.640408 -66.101118 
L 154.41524 -66.142004 
L 155.190072 -66.13356 
L 155.964903 -66.248326 
L 156.739735 -66.2353 
L 157.514567 -65.916474 
L 158.289399 -65.878475 
L 159.064231 -65.704033 
L 159.839063 -65.657526 
L 160.613895 -65.713277 
L 161.388726 -66.017272 
L 162.163558 -66.30744 
L 162.93839 -66.571634 
L 163.713222 -66.898047 
L 164.488054 -67.331148 
L 165.262886 -67.623813 
L 166.037718 -69.243905 
L 166.812549 -70.29723 
L 167.587381 -71.386786 
L 168.362213 -72.464345 
L 169.137045 -73.2825 
L 169.911877 -73.935317 
L 170.686709 -74.499222 
L 171.46154 -75.200866 
L 172.236372 -76.553171 
L 173.011204 -77.536266 
L 173.786036 -78.118808 
L 174.560868 -77.97366 
L 175.3357 -77.652584 
L 176.110532 -77.43235 
L 176.885363 -77.52238 
L 177.660195 -77.819604 
L 178.435027 -77.665215 
L 179.209859 -77.502203 
L 179.984691 -77.399383 
L 180.759523 -77.049152 
L 181.534355 -77.315709 
L 182.309186 -77.319084 
L 183.084018 -77.280191 
L 183.85885 -77.274063 
L 184.633682 -77.252223 
L 185.408514 -77.314577 
L 186.183346 -77.337473 
L 186.958177 -77.375327 
L 187.733009 -76.92388 
L 188.507841 -76.740317 
L 189.282673 -76.657278 
L 190.057505 -76.818947 
L 190.832337 -76.692374 
L 191.607169 -77.253025 
L 192.382 -77.309364 
L 193.156832 -77.232552 
L 193.931664 -77.413252 
L 194.706496 -77.494303 
L 195.481328 -77.503458 
L 196.25616 -77.531628 
L 197.030992 -77.534274 
L 197.805823 -77.656511 
L 198.580655 -77.838833 
L 199.355487 -77.828008 
L 200.130319 -77.828812 
L 200.905151 -77.56591 
L 201.679983 -77.371752 
L 202.454814 -77.020008 
L 203.229646 -76.928912 
L 204.004478 -76.929095 
L 204.77931 -76.934562 
L 205.554142 -76.932135 
L 206.328974 -76.945304 
L 207.103806 -76.406407 
L 207.878637 -76.452973 
L 208.653469 -76.431909 
L 209.428301 -76.320956 
L 210.203133 -76.301545 
L 210.977965 -76.270083 
L 211.752797 -76.234451 
L 212.527629 -76.061925 
L 213.30246 -75.825413 
L 214.077292 -75.391775 
L 214.852124 -75.391608 
L 215.626956 -75.350523 
L 216.401788 -75.302169 
L 217.17662 -75.28716 
L 217.951452 -75.239326 
L 218.726283 -75.110911 
L 219.501115 -75.013951 
L 220.275947 -75.034567 
L 221.050779 -75.01739 
L 221.825611 -74.987888 
L 222.600443 -74.974347 
L 223.375274 -74.626246 
L 224.150106 -74.25036 
L 224.924938 -74.21568 
L 225.69977 -74.197605 
L 226.474602 -74.197373 
L 227.249434 -74.148544 
L 228.024266 -74.143616 
L 228.799097 -74.147724 
L 229.573929 -74.146113 
L 230.348761 -74.241554 
L 231.123593 -74.494334 
L 231.898425 -74.773822 
L 232.673257 -74.941421 
L 233.448089 -75.246698 
L 234.22292 -75.806992 
L 234.997752 -78.001983 
L 235.772584 -79.315333 
L 236.547416 -80.581215 
L 237.322248 -81.620741 
L 238.09708 -82.793185 
L 238.871911 -84.248652 
L 239.646743 -84.798732 
L 240.421575 -85.399906 
L 241.196407 -85.849198 
L 241.971239 -86.595478 
L 242.746071 -87.220185 
L 243.520903 -87.588973 
L 244.295734 -87.926263 
L 245.070566 -88.008805 
L 245.845398 -88.177933 
L 246.62023 -87.991258 
L 247.395062 -87.763249 
L 248.169894 -87.346423 
L 248.944726 -86.733157 
L 249.719557 -85.963023 
L 250.494389 -86.089513 
L 251.269221 -86.450616 
L 252.044053 -86.512228 
L 252.818885 -86.443077 
L 253.593717 -86.495271 
L 254.368548 -86.443639 
L 255.14338 -86.228359 
L 255.918212 -86.098331 
L 256.693044 -85.862401 
L 257.467876 -85.986594 
L 258.242708 -85.999878 
L 259.01754 -86.077872 
L 259.792371 -86.056696 
L 260.567203 -86.055539 
L 261.342035 -85.972737 
L 262.116867 -85.950795 
L 262.891699 -86.06368 
L 263.666531 -86.057939 
L 264.441363 -87.193625 
L 265.216194 -87.480875 
L 265.991026 -87.807563 
L 266.765858 -87.597058 
L 267.54069 -87.456149 
L 268.315522 -87.431624 
L 269.090354 -87.217026 
L 269.865186 -87.070264 
L 270.640017 -86.7897 
L 271.414849 -86.462631 
L 272.189681 -86.012816 
L 272.964513 -85.799879 
L 273.739345 -85.507091 
L 274.514177 -85.325094 
L 275.289008 -85.007004 
L 276.06384 -84.688439 
L 276.838672 -84.194975 
L 277.613504 -83.613338 
L 278.388336 -82.373461 
L 279.163168 -81.677851 
L 279.938 -81.666092 
L 280.712831 -81.743652 
L 281.487663 -81.756204 
L 282.262495 -81.791181 
L 283.037327 -81.855417 
L 283.812159 -81.772192 
L 284.586991 -81.756782 
L 285.361823 -81.74795 
L 286.136654 -81.707075 
L 286.911486 -81.679909 
L 287.686318 -81.594692 
L 288.46115 -81.595378 
L 289.235982 -81.590545 
L 290.010814 -81.460792 
L 290.785645 -81.340206 
L 291.560477 -81.328357 
L 292.335309 -81.274323 
L 293.110141 -81.694342 
L 293.884973 -82.201711 
L 294.659805 -82.828357 
L 295.434637 -83.103415 
L 296.209468 -83.443802 
L 296.9843 -83.823136 
L 297.759132 -84.006536 
L 298.533964 -84.19727 
L 299.308796 -84.45201 
L 300.083628 -84.882974 
L 300.85846 -85.406879 
L 301.633291 -86.872184 
L 302.408123 -88.238286 
L 303.182955 -89.225277 
L 303.957787 -90.262245 
L 304.732619 -91.054165 
L 305.507451 -91.667331 
L 306.282282 -92.704621 
L 307.057114 -93.273698 
L 307.831946 -93.894601 
L 308.606778 -94.539369 
L 309.38161 -95.268449 
L 310.156442 -95.875924 
L 310.931274 -96.191972 
L 311.706105 -96.673027 
L 312.480937 -97.175133 
L 313.255769 -98.843121 
L 314.030601 -100.122941 
L 314.805433 -100.410913 
L 315.580265 -101.167562 
L 316.355097 -101.628178 
L 317.129928 -102.271291 
L 317.90476 -103.177473 
L 318.679592 -104.429821 
L 319.454424 -105.514259 
L 320.229256 -106.155675 
L 321.004088 -106.545678 
L 321.77892 -107.597508 
L 322.553751 -109.257279 
L 323.328583 -110.755928 
L 324.103415 -111.9906 
L 324.878247 -113.883825 
L 325.653079 -115.341136 
L 326.427911 -116.058944 
L 327.202742 -116.652786 
L 327.977574 -117.655486 
L 328.752406 -118.620276 
L 329.527238 -118.65087 
L 330.30207 -118.285559 
L 331.076902 -118.287749 
L 331.851734 -118.307811 
L 332.626565 -119.227506 
L 333.401397 -119.327414 
L 334.176229 -119.851772 
L 334.951061 -120.352543 
L 335.725893 -120.032442 
L 336.500725 -119.552415 
L 337.275557 -119.538329 
L 338.050388 -119.772773 
L 338.82522 -119.712691 
L 339.600052 -119.673038 
L 340.374884 -119.627933 
L 341.149716 -119.589205 
L 341.924548 -119.68526 
L 342.699379 -119.921175 
L 343.474211 -120.017018 
L 344.249043 -120.344083 
L 345.023875 -122.30823 
L 345.798707 -125.871936 
L 346.573539 -129.20221 
L 347.348371 -132.773952 
L 348.123202 -135.344496 
L 348.898034 -136.907766 
L 349.672866 -139.270198 
L 350.447698 -140.838931 
L 351.22253 -142.491399 
L 351.997362 -144.746607 
L 352.772194 -148.381217 
L 353.547025 -151.254101 
L 354.321857 -154.12766 
L 355.096689 -156.739454 
L 355.871521 -160.007287 
L 356.646353 -162.477435 
L 357.421185 -164.90315 
L 358.196016 -169.640221 
L 358.970848 -174.213714 
L 359.74568 -176.643295 
L 360.520512 -181.146097 
L 361.295344 -188.202998 
L 362.070176 -197.34288 
L 362.845008 -206.252926 
L 363.619839 -212.92322 
L 364.394671 -216.351035 
L 365.169503 -217.606796 
L 365.944335 -217.416999 
L 366.719167 -218.109732 
L 367.493999 -219.728682 
L 368.268831 -220.012312 
L 369.043662 -219.206887 
L 369.818494 -218.109192 
L 370.593326 -216.727147 
L 371.368158 -215.418169 
L 372.14299 -213.459308 
L 372.917822 -212.265427 
L 373.692654 -211.995432 
L 374.467485 -212.33717 
L 375.242317 -212.243618 
L 376.017149 -212.663097 
L 376.791981 -212.591313 
L 377.566813 -211.315468 
L 378.341645 -207.38514 
L 379.116476 -203.410092 
L 379.891308 -201.154101 
L 380.66614 -200.592402 
L 381.440972 -200.428925 
L 382.215804 -199.318239 
L 382.990636 -197.412924 
L 383.765468 -197.456458 
L 384.540299 -198.940905 
L 385.315131 -201.737671 
L 386.089963 -203.452266 
L 386.864795 -215.104482 
L 387.639627 -224.055475 
L 388.414459 -229.825637 
L 389.189291 -238.108166 
L 389.964122 -244.408868 
L 390.738954 -249.480179 
L 391.513786 -254.849316 
L 392.288618 -258.850556 
L 393.06345 -262.085017 
L 393.838282 -267.919833 
L 394.613113 -272.436833 
L 395.387945 -279.847641 
L 396.162777 -285.192756 
L 396.937609 -290.310423 
L 397.712441 -292.032 
L 398.487273 -291.171834 
L 398.487273 -186.368217 
L 398.487273 -186.368217 
L 397.712441 -180.283083 
L 396.937609 -173.889757 
L 396.162777 -168.624614 
L 395.387945 -164.020396 
L 394.613113 -162.053082 
L 393.838282 -159.08693 
L 393.06345 -156.899456 
L 392.288618 -152.070147 
L 391.513786 -149.44387 
L 390.738954 -147.891506 
L 389.964122 -146.602958 
L 389.189291 -146.367331 
L 388.414459 -148.24733 
L 387.639627 -148.130381 
L 386.864795 -152.529836 
L 386.089963 -159.813976 
L 385.315131 -160.620812 
L 384.540299 -162.011441 
L 383.765468 -162.724996 
L 382.990636 -162.746394 
L 382.215804 -161.585558 
L 381.440972 -161.229095 
L 380.66614 -161.517817 
L 379.891308 -162.081403 
L 379.116476 -161.608678 
L 378.341645 -160.2674 
L 377.566813 -159.538651 
L 376.791981 -162.186456 
L 376.017149 -163.943268 
L 375.242317 -165.089234 
L 374.467485 -164.901514 
L 373.692654 -165.643123 
L 372.917822 -165.065962 
L 372.14299 -163.151667 
L 371.368158 -158.392504 
L 370.593326 -154.027355 
L 369.818494 -148.688834 
L 369.043662 -143.83867 
L 368.268831 -138.842699 
L 367.493999 -134.651964 
L 366.719167 -130.08054 
L 365.944335 -125.018349 
L 365.169503 -120.014169 
L 364.394671 -116.203576 
L 363.619839 -112.948671 
L 362.845008 -112.395435 
L 362.070176 -113.991472 
L 361.295344 -116.049958 
L 360.520512 -117.104555 
L 359.74568 -116.151738 
L 358.970848 -113.161079 
L 358.196016 -111.822437 
L 357.421185 -110.972078 
L 356.646353 -108.868706 
L 355.871521 -106.641186 
L 355.096689 -105.354959 
L 354.321857 -104.1942 
L 353.547025 -103.316114 
L 352.772194 -103.144384 
L 351.997362 -103.750537 
L 351.22253 -103.634993 
L 350.447698 -103.117953 
L 349.672866 -103.025728 
L 348.898034 -103.388859 
L 348.123202 -103.238932 
L 347.348371 -104.160033 
L 346.573539 -105.318735 
L 345.798707 -106.337274 
L 345.023875 -107.491842 
L 344.249043 -107.686701 
L 343.474211 -107.714498 
L 342.699379 -107.735924 
L 341.924548 -107.640773 
L 341.149716 -107.556871 
L 340.374884 -107.778792 
L 339.600052 -107.916887 
L 338.82522 -107.55519 
L 338.050388 -107.257639 
L 337.275557 -106.834499 
L 336.500725 -105.670127 
L 335.725893 -103.819831 
L 334.951061 -102.380305 
L 334.176229 -101.548128 
L 333.401397 -100.818521 
L 332.626565 -99.610329 
L 331.851734 -98.659845 
L 331.076902 -97.469751 
L 330.30207 -96.500813 
L 329.527238 -95.141116 
L 328.752406 -94.480188 
L 327.977574 -94.082302 
L 327.202742 -92.970987 
L 326.427911 -91.681915 
L 325.653079 -90.32691 
L 324.878247 -89.683405 
L 324.103415 -89.490093 
L 323.328583 -88.901274 
L 322.553751 -88.550827 
L 321.77892 -88.337712 
L 321.004088 -88.087942 
L 320.229256 -87.239351 
L 319.454424 -86.575588 
L 318.679592 -86.291479 
L 317.90476 -86.09838 
L 317.129928 -85.834792 
L 316.355097 -85.394599 
L 315.580265 -84.373563 
L 314.805433 -83.530218 
L 314.030601 -82.395028 
L 313.255769 -81.87223 
L 312.480937 -81.731302 
L 311.706105 -81.100248 
L 310.931274 -80.483084 
L 310.156442 -79.88872 
L 309.38161 -79.538737 
L 308.606778 -79.2262 
L 307.831946 -78.893757 
L 307.057114 -78.47009 
L 306.282282 -78.024591 
L 305.507451 -77.775565 
L 304.732619 -77.335894 
L 303.957787 -77.159488 
L 303.182955 -77.150965 
L 302.408123 -77.125668 
L 301.633291 -77.460891 
L 300.85846 -77.998634 
L 300.083628 -78.035298 
L 299.308796 -78.074874 
L 298.533964 -77.974361 
L 297.759132 -77.908878 
L 296.9843 -77.834563 
L 296.209468 -77.86187 
L 295.434637 -77.906294 
L 294.659805 -77.669377 
L 293.884973 -77.874944 
L 293.110141 -77.982138 
L 292.335309 -78.245423 
L 291.560477 -78.211657 
L 290.785645 -78.206137 
L 290.010814 -78.199907 
L 289.235982 -78.213976 
L 288.46115 -78.215101 
L 287.686318 -78.212614 
L 286.911486 -78.032972 
L 286.136654 -77.947742 
L 285.361823 -77.808996 
L 284.586991 -77.617808 
L 283.812159 -77.343385 
L 283.037327 -77.027017 
L 282.262495 -76.925894 
L 281.487663 -76.766166 
L 280.712831 -76.557964 
L 279.938 -76.527497 
L 279.163168 -76.495628 
L 278.388336 -76.173756 
L 277.613504 -75.573233 
L 276.838672 -75.309213 
L 276.06384 -75.082613 
L 275.289008 -74.995811 
L 274.514177 -74.921497 
L 273.739345 -74.901807 
L 272.964513 -74.895059 
L 272.189681 -74.96516 
L 271.414849 -75.123505 
L 270.640017 -75.312976 
L 269.865186 -75.581275 
L 269.090354 -75.950066 
L 268.315522 -76.433587 
L 267.54069 -77.116804 
L 266.765858 -77.638831 
L 265.991026 -78.284833 
L 265.216194 -79.348845 
L 264.441363 -80.223535 
L 263.666531 -82.027007 
L 262.891699 -82.172652 
L 262.116867 -82.129505 
L 261.342035 -81.994154 
L 260.567203 -81.991282 
L 259.792371 -82.078315 
L 259.01754 -82.171039 
L 258.242708 -82.372591 
L 257.467876 -82.520228 
L 256.693044 -82.816536 
L 255.918212 -82.3358 
L 255.14338 -82.031646 
L 254.368548 -81.552496 
L 253.593717 -81.609786 
L 252.818885 -81.456732 
L 252.044053 -81.088048 
L 251.269221 -80.790445 
L 250.494389 -80.575082 
L 249.719557 -80.314855 
L 248.944726 -78.720783 
L 248.169894 -77.225994 
L 247.395062 -75.849036 
L 246.62023 -74.779404 
L 245.845398 -73.7891 
L 245.070566 -72.876994 
L 244.295734 -71.875758 
L 243.520903 -71.115167 
L 242.746071 -70.431292 
L 241.971239 -69.931732 
L 241.196407 -69.567149 
L 240.421575 -69.160203 
L 239.646743 -68.901446 
L 238.871911 -68.669758 
L 238.09708 -69.048181 
L 237.322248 -69.301853 
L 236.547416 -69.565196 
L 235.772584 -70.03839 
L 234.997752 -70.7052 
L 234.22292 -72.154648 
L 233.448089 -72.457445 
L 232.673257 -72.493859 
L 231.898425 -72.489441 
L 231.123593 -72.537456 
L 230.348761 -72.604182 
L 229.573929 -72.636914 
L 228.799097 -72.626816 
L 228.024266 -72.619762 
L 227.249434 -72.591234 
L 226.474602 -72.482399 
L 225.69977 -72.491296 
L 224.924938 -72.498709 
L 224.150106 -72.492193 
L 223.375274 -72.276841 
L 222.600443 -72.086076 
L 221.825611 -72.094778 
L 221.050779 -72.096044 
L 220.275947 -72.10442 
L 219.501115 -72.110838 
L 218.726283 -72.09827 
L 217.951452 -72.056765 
L 217.17662 -72.153312 
L 216.401788 -72.222792 
L 215.626956 -72.348928 
L 214.852124 -72.470072 
L 214.077292 -72.494029 
L 213.30246 -72.376459 
L 212.527629 -72.391158 
L 211.752797 -72.498673 
L 210.977965 -72.776822 
L 210.203133 -72.964198 
L 209.428301 -73.107603 
L 208.653469 -73.196556 
L 207.878637 -73.196254 
L 207.103806 -73.186375 
L 206.328974 -73.033497 
L 205.554142 -73.08251 
L 204.77931 -73.240595 
L 204.004478 -73.256816 
L 203.229646 -73.297866 
L 202.454814 -73.06239 
L 201.679983 -72.454915 
L 200.905151 -72.071483 
L 200.130319 -71.484141 
L 199.355487 -71.353747 
L 198.580655 -71.293256 
L 197.805823 -71.126229 
L 197.030992 -71.132496 
L 196.25616 -71.133328 
L 195.481328 -71.140221 
L 194.706496 -71.141608 
L 193.931664 -71.111725 
L 193.156832 -71.090941 
L 192.382 -71.066821 
L 191.607169 -71.028412 
L 190.832337 -70.998505 
L 190.057505 -70.505903 
L 189.282673 -70.268265 
L 188.507841 -70.252626 
L 187.733009 -70.177024 
L 186.958177 -70.063908 
L 186.183346 -70.251002 
L 185.408514 -70.333353 
L 184.633682 -70.469365 
L 183.85885 -70.341332 
L 183.084018 -70.257091 
L 182.309186 -70.116047 
L 181.534355 -69.745288 
L 180.759523 -69.584794 
L 179.984691 -68.402445 
L 179.209859 -67.495081 
L 178.435027 -66.615708 
L 177.660195 -65.705928 
L 176.885363 -65.0221 
L 176.110532 -64.326815 
L 175.3357 -63.387226 
L 174.560868 -62.326115 
L 173.786036 -61.364072 
L 173.011204 -60.900489 
L 172.236372 -60.788937 
L 171.46154 -60.872579 
L 170.686709 -60.691639 
L 169.911877 -60.230626 
L 169.137045 -60.017246 
L 168.362213 -59.94983 
L 167.587381 -60.138712 
L 166.812549 -60.400233 
L 166.037718 -60.702793 
L 165.262886 -61.684726 
L 164.488054 -61.809989 
L 163.713222 -61.986263 
L 162.93839 -62.153743 
L 162.163558 -62.088521 
L 161.388726 -62.107489 
L 160.613895 -62.094907 
L 159.839063 -62.010029 
L 159.064231 -61.877625 
L 158.289399 -61.519561 
L 157.514567 -61.176208 
L 156.739735 -60.271303 
L 155.964903 -59.928473 
L 155.190072 -59.725205 
L 154.41524 -59.751195 
L 153.640408 -59.712956 
L 152.865576 -59.695324 
L 152.090744 -59.575723 
L 151.315912 -58.928612 
L 150.54108 -58.691439 
L 149.766249 -58.594704 
L 148.991417 -58.640468 
L 148.216585 -57.88935 
L 147.441753 -57.364139 
L 146.666921 -56.357781 
L 145.892089 -55.896731 
L 145.117258 -55.355846 
L 144.342426 -55.254321 
L 143.567594 -54.555911 
L 142.792762 -53.638232 
L 142.01793 -53.017245 
L 141.243098 -52.678163 
L 140.468266 -52.327595 
L 139.693435 -51.547409 
L 138.918603 -50.812609 
L 138.143771 -50.350408 
L 137.368939 -50.144331 
L 136.594107 -50.112 
L 135.819275 -50.426599 
L 135.044443 -50.760615 
L 134.269612 -51.171259 
L 133.49478 -51.625656 
L 132.719948 -52.710272 
L 131.945116 -54.020067 
L 131.170284 -55.805639 
L 130.395452 -57.497899 
L 129.620621 -59.700175 
L 128.845789 -61.911421 
L 128.070957 -66.691054 
L 127.296125 -67.183991 
L 126.521293 -67.825628 
L 125.746461 -68.330047 
L 124.971629 -69.102404 
L 124.196798 -69.160254 
L 123.421966 -69.170823 
L 122.647134 -69.073069 
L 121.872302 -69.278001 
L 121.09747 -69.537917 
L 120.322638 -69.797827 
L 119.547806 -70.509388 
L 118.772975 -71.329094 
L 117.998143 -72.121019 
L 117.223311 -72.908681 
L 116.448479 -73.895242 
L 115.673647 -74.17427 
L 114.898815 -73.683743 
L 114.123984 -73.305432 
L 113.349152 -73.072787 
L 112.57432 -72.879883 
L 111.799488 -72.691101 
L 111.024656 -72.625289 
L 110.249824 -72.390474 
L 109.474992 -72.238969 
L 108.700161 -71.678465 
L 107.925329 -70.892997 
L 107.150497 -70.071467 
L 106.375665 -69.487513 
L 105.600833 -69.059816 
L 104.826001 -68.925332 
L 104.051169 -68.749967 
L 103.276338 -68.737679 
L 102.501506 -68.708993 
L 101.726674 -68.804681 
L 100.951842 -68.926423 
L 100.17701 -68.957588 
L 99.402178 -68.905051 
L 98.627346 -68.889104 
L 97.852515 -68.42157 
L 97.077683 -68.133385 
L 96.302851 -67.76444 
L 95.528019 -67.752529 
L 94.753187 -67.362096 
L 93.978355 -67.385401 
L 93.203524 -67.283928 
L 92.428692 -66.821049 
L 91.65386 -66.008448 
L 90.879028 -65.314214 
L 90.104196 -64.708032 
L 89.329364 -63.808185 
L 88.554532 -63.287483 
z
" id="m1cfb23050d" style="stroke:#4b0082;stroke-opacity:0.3;"/>
    </defs>
    <g clip-path="url(#p4e87300b10)">
     <use style="fill:#4b0082;fill-opacity:0.3;stroke:#4b0082;stroke-opacity:0.3;" x="0" xlink:href="#m1cfb23050d" y="345.6"/>
    </g>
   </g>
   <g id="matplotlib.axis_1">
    <g id="xtick_1">
     <g id="line2d_1">
      <defs>
       <path d="M 0 0 
L 0 3.5 
" id="m4d73b28d1a" style="stroke:#000000;stroke-width:0.8;"/>
      </defs>
      <g>
       <use style="stroke:#000000;stroke-width:0.8;" x="73.832727" xlink:href="#m4d73b28d1a" y="307.584"/>
      </g>
     </g>
     <g id="text_1">
      <!-- 2020-01 -->
      <g transform="translate(52.941321 322.182437)scale(0.1 -0.1)">
       <defs>
        <path d="M 19.1875 8.296875 
L 53.609375 8.296875 
L 53.609375 0 
L 7.328125 0 
L 7.328125 8.296875 
Q 12.9375 14.109375 22.625 23.890625 
Q 32.328125 33.6875 34.8125 36.53125 
Q 39.546875 41.84375 41.421875 45.53125 
Q 43.3125 49.21875 43.3125 52.78125 
Q 43.3125 58.59375 39.234375 62.25 
Q 35.15625 65.921875 28.609375 65.921875 
Q 23.96875 65.921875 18.8125 64.3125 
Q 13.671875 62.703125 7.8125 59.421875 
L 7.8125 69.390625 
Q 13.765625 71.78125 18.9375 73 
Q 24.125 74.21875 28.421875 74.21875 
Q 39.75 74.21875 46.484375 68.546875 
Q 53.21875 62.890625 53.21875 53.421875 
Q 53.21875 48.921875 51.53125 44.890625 
Q 49.859375 40.875 45.40625 35.40625 
Q 44.1875 33.984375 37.640625 27.21875 
Q 31.109375 20.453125 19.1875 8.296875 
z
" id="DejaVuSans-50"/>
        <path d="M 31.78125 66.40625 
Q 24.171875 66.40625 20.328125 58.90625 
Q 16.5 51.421875 16.5 36.375 
Q 16.5 21.390625 20.328125 13.890625 
Q 24.171875 6.390625 31.78125 6.390625 
Q 39.453125 6.390625 43.28125 13.890625 
Q 47.125 21.390625 47.125 36.375 
Q 47.125 51.421875 43.28125 58.90625 
Q 39.453125 66.40625 31.78125 66.40625 
z
M 31.78125 74.21875 
Q 44.046875 74.21875 50.515625 64.515625 
Q 56.984375 54.828125 56.984375 36.375 
Q 56.984375 17.96875 50.515625 8.265625 
Q 44.046875 -1.421875 31.78125 -1.421875 
Q 19.53125 -1.421875 13.0625 8.265625 
Q 6.59375 17.96875 6.59375 36.375 
Q 6.59375 54.828125 13.0625 64.515625 
Q 19.53125 74.21875 31.78125 74.21875 
z
" id="DejaVuSans-48"/>
        <path d="M 4.890625 31.390625 
L 31.203125 31.390625 
L 31.203125 23.390625 
L 4.890625 23.390625 
z
" id="DejaVuSans-45"/>
        <path d="M 12.40625 8.296875 
L 28.515625 8.296875 
L 28.515625 63.921875 
L 10.984375 60.40625 
L 10.984375 69.390625 
L 28.421875 72.90625 
L 38.28125 72.90625 
L 38.28125 8.296875 
L 54.390625 8.296875 
L 54.390625 0 
L 12.40625 0 
z
" id="DejaVuSans-49"/>
       </defs>
       <use xlink:href="#DejaVuSans-50"/>
       <use x="63.623047" xlink:href="#DejaVuSans-48"/>
       <use x="127.246094" xlink:href="#DejaVuSans-50"/>
       <use x="190.869141" xlink:href="#DejaVuSans-48"/>
       <use x="254.492188" xlink:href="#DejaVuSans-45"/>
       <use x="290.576172" xlink:href="#DejaVuSans-48"/>
       <use x="354.199219" xlink:href="#DejaVuSans-49"/>
      </g>
     </g>
    </g>
    <g id="xtick_2">
     <g id="line2d_2">
      <g>
       <use style="stroke:#000000;stroke-width:0.8;" x="120.322638" xlink:href="#m4d73b28d1a" y="307.584"/>
      </g>
     </g>
     <g id="text_2">
      <!-- 2020-03 -->
      <g transform="translate(99.431232 322.182437)scale(0.1 -0.1)">
       <defs>
        <path d="M 40.578125 39.3125 
Q 47.65625 37.796875 51.625 33 
Q 55.609375 28.21875 55.609375 21.1875 
Q 55.609375 10.40625 48.1875 4.484375 
Q 40.765625 -1.421875 27.09375 -1.421875 
Q 22.515625 -1.421875 17.65625 -0.515625 
Q 12.796875 0.390625 7.625 2.203125 
L 7.625 11.71875 
Q 11.71875 9.328125 16.59375 8.109375 
Q 21.484375 6.890625 26.8125 6.890625 
Q 36.078125 6.890625 40.9375 10.546875 
Q 45.796875 14.203125 45.796875 21.1875 
Q 45.796875 27.640625 41.28125 31.265625 
Q 36.765625 34.90625 28.71875 34.90625 
L 20.21875 34.90625 
L 20.21875 43.015625 
L 29.109375 43.015625 
Q 36.375 43.015625 40.234375 45.921875 
Q 44.09375 48.828125 44.09375 54.296875 
Q 44.09375 59.90625 40.109375 62.90625 
Q 36.140625 65.921875 28.71875 65.921875 
Q 24.65625 65.921875 20.015625 65.03125 
Q 15.375 64.15625 9.8125 62.3125 
L 9.8125 71.09375 
Q 15.4375 72.65625 20.34375 73.4375 
Q 25.25 74.21875 29.59375 74.21875 
Q 40.828125 74.21875 47.359375 69.109375 
Q 53.90625 64.015625 53.90625 55.328125 
Q 53.90625 49.265625 50.4375 45.09375 
Q 46.96875 40.921875 40.578125 39.3125 
z
" id="DejaVuSans-51"/>
       </defs>
       <use xlink:href="#DejaVuSans-50"/>
       <use x="63.623047" xlink:href="#DejaVuSans-48"/>
       <use x="127.246094" xlink:href="#DejaVuSans-50"/>
       <use x="190.869141" xlink:href="#DejaVuSans-48"/>
       <use x="254.492188" xlink:href="#DejaVuSans-45"/>
       <use x="290.576172" xlink:href="#DejaVuSans-48"/>
       <use x="354.199219" xlink:href="#DejaVuSans-51"/>
      </g>
     </g>
    </g>
    <g id="xtick_3">
     <g id="line2d_3">
      <g>
       <use style="stroke:#000000;stroke-width:0.8;" x="167.587381" xlink:href="#m4d73b28d1a" y="307.584"/>
      </g>
     </g>
     <g id="text_3">
      <!-- 2020-05 -->
      <g transform="translate(146.695975 322.182437)scale(0.1 -0.1)">
       <defs>
        <path d="M 10.796875 72.90625 
L 49.515625 72.90625 
L 49.515625 64.59375 
L 19.828125 64.59375 
L 19.828125 46.734375 
Q 21.96875 47.46875 24.109375 47.828125 
Q 26.265625 48.1875 28.421875 48.1875 
Q 40.625 48.1875 47.75 41.5 
Q 54.890625 34.8125 54.890625 23.390625 
Q 54.890625 11.625 47.5625 5.09375 
Q 40.234375 -1.421875 26.90625 -1.421875 
Q 22.3125 -1.421875 17.546875 -0.640625 
Q 12.796875 0.140625 7.71875 1.703125 
L 7.71875 11.625 
Q 12.109375 9.234375 16.796875 8.0625 
Q 21.484375 6.890625 26.703125 6.890625 
Q 35.15625 6.890625 40.078125 11.328125 
Q 45.015625 15.765625 45.015625 23.390625 
Q 45.015625 31 40.078125 35.4375 
Q 35.15625 39.890625 26.703125 39.890625 
Q 22.75 39.890625 18.8125 39.015625 
Q 14.890625 38.140625 10.796875 36.28125 
z
" id="DejaVuSans-53"/>
       </defs>
       <use xlink:href="#DejaVuSans-50"/>
       <use x="63.623047" xlink:href="#DejaVuSans-48"/>
       <use x="127.246094" xlink:href="#DejaVuSans-50"/>
       <use x="190.869141" xlink:href="#DejaVuSans-48"/>
       <use x="254.492188" xlink:href="#DejaVuSans-45"/>
       <use x="290.576172" xlink:href="#DejaVuSans-48"/>
       <use x="354.199219" xlink:href="#DejaVuSans-53"/>
      </g>
     </g>
    </g>
    <g id="xtick_4">
     <g id="line2d_4">
      <g>
       <use style="stroke:#000000;stroke-width:0.8;" x="214.852124" xlink:href="#m4d73b28d1a" y="307.584"/>
      </g>
     </g>
     <g id="text_4">
      <!-- 2020-07 -->
      <g transform="translate(193.960718 322.182437)scale(0.1 -0.1)">
       <defs>
        <path d="M 8.203125 72.90625 
L 55.078125 72.90625 
L 55.078125 68.703125 
L 28.609375 0 
L 18.3125 0 
L 43.21875 64.59375 
L 8.203125 64.59375 
z
" id="DejaVuSans-55"/>
       </defs>
       <use xlink:href="#DejaVuSans-50"/>
       <use x="63.623047" xlink:href="#DejaVuSans-48"/>
       <use x="127.246094" xlink:href="#DejaVuSans-50"/>
       <use x="190.869141" xlink:href="#DejaVuSans-48"/>
       <use x="254.492188" xlink:href="#DejaVuSans-45"/>
       <use x="290.576172" xlink:href="#DejaVuSans-48"/>
       <use x="354.199219" xlink:href="#DejaVuSans-55"/>
      </g>
     </g>
    </g>
    <g id="xtick_5">
     <g id="line2d_5">
      <g>
       <use style="stroke:#000000;stroke-width:0.8;" x="262.891699" xlink:href="#m4d73b28d1a" y="307.584"/>
      </g>
     </g>
     <g id="text_5">
      <!-- 2020-09 -->
      <g transform="translate(242.000293 322.182437)scale(0.1 -0.1)">
       <defs>
        <path d="M 10.984375 1.515625 
L 10.984375 10.5 
Q 14.703125 8.734375 18.5 7.8125 
Q 22.3125 6.890625 25.984375 6.890625 
Q 35.75 6.890625 40.890625 13.453125 
Q 46.046875 20.015625 46.78125 33.40625 
Q 43.953125 29.203125 39.59375 26.953125 
Q 35.25 24.703125 29.984375 24.703125 
Q 19.046875 24.703125 12.671875 31.3125 
Q 6.296875 37.9375 6.296875 49.421875 
Q 6.296875 60.640625 12.9375 67.421875 
Q 19.578125 74.21875 30.609375 74.21875 
Q 43.265625 74.21875 49.921875 64.515625 
Q 56.59375 54.828125 56.59375 36.375 
Q 56.59375 19.140625 48.40625 8.859375 
Q 40.234375 -1.421875 26.421875 -1.421875 
Q 22.703125 -1.421875 18.890625 -0.6875 
Q 15.09375 0.046875 10.984375 1.515625 
z
M 30.609375 32.421875 
Q 37.25 32.421875 41.125 36.953125 
Q 45.015625 41.5 45.015625 49.421875 
Q 45.015625 57.28125 41.125 61.84375 
Q 37.25 66.40625 30.609375 66.40625 
Q 23.96875 66.40625 20.09375 61.84375 
Q 16.21875 57.28125 16.21875 49.421875 
Q 16.21875 41.5 20.09375 36.953125 
Q 23.96875 32.421875 30.609375 32.421875 
z
" id="DejaVuSans-57"/>
       </defs>
       <use xlink:href="#DejaVuSans-50"/>
       <use x="63.623047" xlink:href="#DejaVuSans-48"/>
       <use x="127.246094" xlink:href="#DejaVuSans-50"/>
       <use x="190.869141" xlink:href="#DejaVuSans-48"/>
       <use x="254.492188" xlink:href="#DejaVuSans-45"/>
       <use x="290.576172" xlink:href="#DejaVuSans-48"/>
       <use x="354.199219" xlink:href="#DejaVuSans-57"/>
      </g>
     </g>
    </g>
    <g id="xtick_6">
     <g id="line2d_6">
      <g>
       <use style="stroke:#000000;stroke-width:0.8;" x="310.156442" xlink:href="#m4d73b28d1a" y="307.584"/>
      </g>
     </g>
     <g id="text_6">
      <!-- 2020-11 -->
      <g transform="translate(289.265035 322.182437)scale(0.1 -0.1)">
       <use xlink:href="#DejaVuSans-50"/>
       <use x="63.623047" xlink:href="#DejaVuSans-48"/>
       <use x="127.246094" xlink:href="#DejaVuSans-50"/>
       <use x="190.869141" xlink:href="#DejaVuSans-48"/>
       <use x="254.492188" xlink:href="#DejaVuSans-45"/>
       <use x="290.576172" xlink:href="#DejaVuSans-49"/>
       <use x="354.199219" xlink:href="#DejaVuSans-49"/>
      </g>
     </g>
    </g>
    <g id="xtick_7">
     <g id="line2d_7">
      <g>
       <use style="stroke:#000000;stroke-width:0.8;" x="357.421185" xlink:href="#m4d73b28d1a" y="307.584"/>
      </g>
     </g>
     <g id="text_7">
      <!-- 2021-01 -->
      <g transform="translate(336.529778 322.182437)scale(0.1 -0.1)">
       <use xlink:href="#DejaVuSans-50"/>
       <use x="63.623047" xlink:href="#DejaVuSans-48"/>
       <use x="127.246094" xlink:href="#DejaVuSans-50"/>
       <use x="190.869141" xlink:href="#DejaVuSans-49"/>
       <use x="254.492188" xlink:href="#DejaVuSans-45"/>
       <use x="290.576172" xlink:href="#DejaVuSans-48"/>
       <use x="354.199219" xlink:href="#DejaVuSans-49"/>
      </g>
     </g>
    </g>
    <g id="xtick_8">
     <g id="line2d_8">
      <g>
       <use style="stroke:#000000;stroke-width:0.8;" x="403.136264" xlink:href="#m4d73b28d1a" y="307.584"/>
      </g>
     </g>
     <g id="text_8">
      <!-- 2021-03 -->
      <g transform="translate(382.244858 322.182437)scale(0.1 -0.1)">
       <use xlink:href="#DejaVuSans-50"/>
       <use x="63.623047" xlink:href="#DejaVuSans-48"/>
       <use x="127.246094" xlink:href="#DejaVuSans-50"/>
       <use x="190.869141" xlink:href="#DejaVuSans-49"/>
       <use x="254.492188" xlink:href="#DejaVuSans-45"/>
       <use x="290.576172" xlink:href="#DejaVuSans-48"/>
       <use x="354.199219" xlink:href="#DejaVuSans-51"/>
      </g>
     </g>
    </g>
   </g>
   <g id="matplotlib.axis_2">
    <g id="ytick_1">
     <g id="line2d_9">
      <defs>
       <path d="M 0 0 
L -3.5 0 
" id="m96bb1e994c" style="stroke:#000000;stroke-width:0.8;"/>
      </defs>
      <g>
       <use style="stroke:#000000;stroke-width:0.8;" x="57.6" xlink:href="#m96bb1e994c" y="268.827195"/>
      </g>
     </g>
     <g id="text_9">
      <!-- 10000 -->
      <g transform="translate(18.7875 272.626414)scale(0.1 -0.1)">
       <use xlink:href="#DejaVuSans-49"/>
       <use x="63.623047" xlink:href="#DejaVuSans-48"/>
       <use x="127.246094" xlink:href="#DejaVuSans-48"/>
       <use x="190.869141" xlink:href="#DejaVuSans-48"/>
       <use x="254.492188" xlink:href="#DejaVuSans-48"/>
      </g>
     </g>
    </g>
    <g id="ytick_2">
     <g id="line2d_10">
      <g>
       <use style="stroke:#000000;stroke-width:0.8;" x="57.6" xlink:href="#m96bb1e994c" y="225.933127"/>
      </g>
     </g>
     <g id="text_10">
      <!-- 20000 -->
      <g transform="translate(18.7875 229.732346)scale(0.1 -0.1)">
       <use xlink:href="#DejaVuSans-50"/>
       <use x="63.623047" xlink:href="#DejaVuSans-48"/>
       <use x="127.246094" xlink:href="#DejaVuSans-48"/>
       <use x="190.869141" xlink:href="#DejaVuSans-48"/>
       <use x="254.492188" xlink:href="#DejaVuSans-48"/>
      </g>
     </g>
    </g>
    <g id="ytick_3">
     <g id="line2d_11">
      <g>
       <use style="stroke:#000000;stroke-width:0.8;" x="57.6" xlink:href="#m96bb1e994c" y="183.039059"/>
      </g>
     </g>
     <g id="text_11">
      <!-- 30000 -->
      <g transform="translate(18.7875 186.838278)scale(0.1 -0.1)">
       <use xlink:href="#DejaVuSans-51"/>
       <use x="63.623047" xlink:href="#DejaVuSans-48"/>
       <use x="127.246094" xlink:href="#DejaVuSans-48"/>
       <use x="190.869141" xlink:href="#DejaVuSans-48"/>
       <use x="254.492188" xlink:href="#DejaVuSans-48"/>
      </g>
     </g>
    </g>
    <g id="ytick_4">
     <g id="line2d_12">
      <g>
       <use style="stroke:#000000;stroke-width:0.8;" x="57.6" xlink:href="#m96bb1e994c" y="140.144991"/>
      </g>
     </g>
     <g id="text_12">
      <!-- 40000 -->
      <g transform="translate(18.7875 143.94421)scale(0.1 -0.1)">
       <defs>
        <path d="M 37.796875 64.3125 
L 12.890625 25.390625 
L 37.796875 25.390625 
z
M 35.203125 72.90625 
L 47.609375 72.90625 
L 47.609375 25.390625 
L 58.015625 25.390625 
L 58.015625 17.1875 
L 47.609375 17.1875 
L 47.609375 0 
L 37.796875 0 
L 37.796875 17.1875 
L 4.890625 17.1875 
L 4.890625 26.703125 
z
" id="DejaVuSans-52"/>
       </defs>
       <use xlink:href="#DejaVuSans-52"/>
       <use x="63.623047" xlink:href="#DejaVuSans-48"/>
       <use x="127.246094" xlink:href="#DejaVuSans-48"/>
       <use x="190.869141" xlink:href="#DejaVuSans-48"/>
       <use x="254.492188" xlink:href="#DejaVuSans-48"/>
      </g>
     </g>
    </g>
    <g id="ytick_5">
     <g id="line2d_13">
      <g>
       <use style="stroke:#000000;stroke-width:0.8;" x="57.6" xlink:href="#m96bb1e994c" y="97.250923"/>
      </g>
     </g>
     <g id="text_13">
      <!-- 50000 -->
      <g transform="translate(18.7875 101.050142)scale(0.1 -0.1)">
       <use xlink:href="#DejaVuSans-53"/>
       <use x="63.623047" xlink:href="#DejaVuSans-48"/>
       <use x="127.246094" xlink:href="#DejaVuSans-48"/>
       <use x="190.869141" xlink:href="#DejaVuSans-48"/>
       <use x="254.492188" xlink:href="#DejaVuSans-48"/>
      </g>
     </g>
    </g>
    <g id="ytick_6">
     <g id="line2d_14">
      <g>
       <use style="stroke:#000000;stroke-width:0.8;" x="57.6" xlink:href="#m96bb1e994c" y="54.356855"/>
      </g>
     </g>
     <g id="text_14">
      <!-- 60000 -->
      <g transform="translate(18.7875 58.156074)scale(0.1 -0.1)">
       <defs>
        <path d="M 33.015625 40.375 
Q 26.375 40.375 22.484375 35.828125 
Q 18.609375 31.296875 18.609375 23.390625 
Q 18.609375 15.53125 22.484375 10.953125 
Q 26.375 6.390625 33.015625 6.390625 
Q 39.65625 6.390625 43.53125 10.953125 
Q 47.40625 15.53125 47.40625 23.390625 
Q 47.40625 31.296875 43.53125 35.828125 
Q 39.65625 40.375 33.015625 40.375 
z
M 52.59375 71.296875 
L 52.59375 62.3125 
Q 48.875 64.0625 45.09375 64.984375 
Q 41.3125 65.921875 37.59375 65.921875 
Q 27.828125 65.921875 22.671875 59.328125 
Q 17.53125 52.734375 16.796875 39.40625 
Q 19.671875 43.65625 24.015625 45.921875 
Q 28.375 48.1875 33.59375 48.1875 
Q 44.578125 48.1875 50.953125 41.515625 
Q 57.328125 34.859375 57.328125 23.390625 
Q 57.328125 12.15625 50.6875 5.359375 
Q 44.046875 -1.421875 33.015625 -1.421875 
Q 20.359375 -1.421875 13.671875 8.265625 
Q 6.984375 17.96875 6.984375 36.375 
Q 6.984375 53.65625 15.1875 63.9375 
Q 23.390625 74.21875 37.203125 74.21875 
Q 40.921875 74.21875 44.703125 73.484375 
Q 48.484375 72.75 52.59375 71.296875 
z
" id="DejaVuSans-54"/>
       </defs>
       <use xlink:href="#DejaVuSans-54"/>
       <use x="63.623047" xlink:href="#DejaVuSans-48"/>
       <use x="127.246094" xlink:href="#DejaVuSans-48"/>
       <use x="190.869141" xlink:href="#DejaVuSans-48"/>
       <use x="254.492188" xlink:href="#DejaVuSans-48"/>
      </g>
     </g>
    </g>
   </g>
   <g id="line2d_15">
    <path clip-path="url(#p4e87300b10)" d="M 88.554532 271.765649 
L 89.329364 271.630256 
L 91.65386 272.190663 
L 92.428692 272.580162 
L 93.203524 272.679537 
L 93.978355 272.467233 
L 94.753187 271.869688 
L 95.528019 271.630375 
L 96.302851 271.080588 
L 99.402178 270.40911 
L 100.17701 270.296182 
L 101.726674 269.386562 
L 103.276338 268.413875 
L 104.051169 267.776715 
L 104.826001 267.467063 
L 105.600833 266.920444 
L 106.375665 266.520817 
L 107.150497 266.339041 
L 107.925329 266.303019 
L 109.474992 266.645049 
L 110.249824 266.65121 
L 111.024656 266.502009 
L 113.349152 266.626956 
L 114.898815 266.803689 
L 115.673647 267.083019 
L 116.448479 266.928977 
L 117.223311 266.348709 
L 118.772975 265.707299 
L 120.322638 265.424044 
L 121.872302 266.143576 
L 122.647134 266.55866 
L 123.421966 267.205724 
L 124.971629 267.894705 
L 125.746461 267.830867 
L 126.521293 268.279906 
L 127.296125 268.36049 
L 128.070957 268.581382 
L 128.845789 265.842776 
L 129.620621 265.335994 
L 130.395452 265.160625 
L 132.719948 265.496069 
L 133.49478 265.858368 
L 135.819275 267.72272 
L 138.143771 270.811247 
L 138.918603 272.28963 
L 140.468266 275.93104 
L 142.01793 278.272814 
L 142.792762 279.539629 
L 143.567594 281.11586 
L 144.342426 281.066179 
L 145.117258 280.684978 
L 146.666921 280.400178 
L 147.441753 280.671665 
L 148.216585 280.357664 
L 148.991417 280.356127 
L 149.766249 279.822776 
L 150.54108 279.455515 
L 151.315912 279.402732 
L 152.090744 279.593615 
L 154.41524 279.457996 
L 155.190072 279.46644 
L 155.964903 279.351674 
L 156.739735 279.3647 
L 157.514567 279.683526 
L 158.289399 279.721525 
L 159.064231 279.895967 
L 160.613895 279.886723 
L 165.262886 277.976187 
L 166.037718 276.356095 
L 169.137045 272.3175 
L 171.46154 270.399134 
L 172.236372 269.046829 
L 173.011204 268.063734 
L 173.786036 267.481192 
L 174.560868 267.62634 
L 176.110532 268.16765 
L 176.885363 268.07762 
L 177.660195 267.780396 
L 179.984691 268.200617 
L 180.759523 268.550848 
L 181.534355 268.284291 
L 186.958177 268.224673 
L 187.733009 268.67612 
L 189.282673 268.942722 
L 190.057505 268.781053 
L 190.832337 268.907626 
L 191.607169 268.346975 
L 192.382 268.290636 
L 193.156832 268.367448 
L 194.706496 268.105697 
L 197.030992 268.065726 
L 199.355487 267.771992 
L 200.130319 267.771188 
L 202.454814 268.579992 
L 204.004478 268.670905 
L 206.328974 268.654696 
L 207.103806 269.193593 
L 208.653469 269.168091 
L 210.203133 269.298455 
L 211.752797 269.365549 
L 213.30246 269.774587 
L 214.077292 270.208225 
L 217.17662 270.31284 
L 218.726283 270.489089 
L 219.501115 270.586049 
L 221.825611 270.612112 
L 222.600443 270.625653 
L 224.150106 271.34964 
L 228.799097 271.452276 
L 230.348761 271.358446 
L 233.448089 270.353302 
L 234.22292 269.793008 
L 234.997752 267.598017 
L 236.547416 265.018785 
L 238.09708 262.806815 
L 238.871911 261.351348 
L 241.196407 259.750802 
L 242.746071 258.379815 
L 244.295734 257.673737 
L 245.845398 257.422067 
L 247.395062 257.836751 
L 248.169894 258.253577 
L 248.944726 258.866843 
L 249.719557 259.636977 
L 250.494389 259.510487 
L 251.269221 259.149384 
L 252.044053 259.087772 
L 252.818885 259.156923 
L 254.368548 259.156361 
L 256.693044 259.737599 
L 258.242708 259.600122 
L 259.792371 259.543304 
L 263.666531 259.542061 
L 264.441363 258.406375 
L 265.991026 257.792437 
L 267.54069 258.143851 
L 268.315522 258.168376 
L 271.414849 259.137369 
L 272.189681 259.587184 
L 274.514177 260.274906 
L 276.06384 260.911561 
L 277.613504 261.986662 
L 278.388336 263.226539 
L 279.163168 263.922149 
L 280.712831 263.856348 
L 285.361823 263.85205 
L 290.010814 264.139208 
L 291.560477 264.271643 
L 292.335309 264.325677 
L 293.884973 263.398289 
L 294.659805 262.771643 
L 296.209468 262.156198 
L 296.9843 261.776864 
L 299.308796 261.14799 
L 300.85846 260.193121 
L 302.408123 257.361714 
L 304.732619 254.545835 
L 305.507451 253.932669 
L 306.282282 252.895379 
L 308.606778 251.060631 
L 310.156442 249.724076 
L 310.931274 249.408028 
L 312.480937 248.424867 
L 313.255769 246.756879 
L 314.030601 245.477059 
L 314.805433 245.189087 
L 315.580265 244.432438 
L 316.355097 243.971822 
L 317.129928 243.328709 
L 317.90476 242.422527 
L 319.454424 240.085741 
L 320.229256 239.444325 
L 321.004088 239.054322 
L 321.77892 238.002492 
L 323.328583 234.844072 
L 324.103415 233.6094 
L 324.878247 231.716175 
L 325.653079 230.258864 
L 327.202742 228.947214 
L 328.752406 226.979724 
L 329.527238 226.94913 
L 330.30207 227.314441 
L 331.851734 227.292189 
L 332.626565 226.372494 
L 333.401397 226.272586 
L 334.951061 225.247457 
L 335.725893 225.567558 
L 336.500725 226.047585 
L 337.275557 226.061671 
L 338.050388 225.827227 
L 341.149716 226.010795 
L 341.924548 225.91474 
L 342.699379 225.678825 
L 343.474211 225.582982 
L 344.249043 225.255917 
L 345.023875 223.29177 
L 347.348371 212.826048 
L 348.123202 210.255504 
L 348.898034 208.692234 
L 349.672866 206.329802 
L 351.22253 203.108601 
L 351.997362 200.853393 
L 352.772194 197.218783 
L 356.646353 183.122565 
L 357.421185 180.69685 
L 358.970848 171.386286 
L 359.74568 168.956705 
L 360.520512 164.453903 
L 361.295344 157.397002 
L 362.845008 139.347074 
L 363.619839 132.67678 
L 364.394671 129.248965 
L 365.169503 127.993204 
L 365.944335 128.183001 
L 366.719167 127.490268 
L 367.493999 125.871318 
L 368.268831 125.587688 
L 369.043662 126.393113 
L 369.818494 127.490808 
L 371.368158 130.181831 
L 372.14299 132.140692 
L 372.917822 133.334573 
L 373.692654 133.604568 
L 374.467485 133.26283 
L 375.242317 133.356382 
L 376.017149 132.936903 
L 376.791981 133.008687 
L 377.566813 134.284532 
L 379.116476 142.189908 
L 379.891308 144.445899 
L 380.66614 145.007598 
L 381.440972 145.171075 
L 382.215804 146.281761 
L 382.990636 148.187076 
L 383.765468 148.143542 
L 384.540299 146.659095 
L 385.315131 143.862329 
L 386.089963 142.147734 
L 386.864795 130.495518 
L 387.639627 121.544525 
L 388.414459 115.774363 
L 389.189291 107.491834 
L 389.964122 101.191132 
L 391.513786 90.750684 
L 392.288618 86.749444 
L 393.06345 83.514983 
L 393.838282 77.680167 
L 394.613113 73.163167 
L 395.387945 65.752359 
L 396.937609 55.289577 
L 397.712441 53.568 
L 398.487273 54.428166 
L 398.487273 54.428166 
" style="fill:none;stroke:#1f77b4;stroke-linecap:square;stroke-width:1.5;"/>
   </g>
   <g id="line2d_16">
    <path clip-path="url(#p4e87300b10)" d="M 88.554532 282.312517 
L 89.329364 281.791815 
L 90.104196 280.891968 
L 91.65386 279.591552 
L 92.428692 278.778951 
L 93.203524 278.316072 
L 93.978355 278.214599 
L 94.753187 278.237904 
L 95.528019 277.847471 
L 96.302851 277.83556 
L 98.627346 276.710896 
L 100.951842 276.673577 
L 102.501506 276.891007 
L 104.051169 276.850033 
L 105.600833 276.540184 
L 106.375665 276.112487 
L 107.150497 275.528533 
L 108.700161 273.921535 
L 109.474992 273.361031 
L 113.349152 272.527213 
L 114.123984 272.294568 
L 115.673647 271.42573 
L 116.448479 271.704758 
L 117.223311 272.691319 
L 120.322638 275.802173 
L 122.647134 276.526931 
L 124.196798 276.439746 
L 124.971629 276.497596 
L 125.746461 277.269953 
L 126.521293 277.774372 
L 127.296125 278.416009 
L 128.070957 278.908946 
L 128.845789 283.688579 
L 130.395452 288.102101 
L 131.945116 291.579933 
L 132.719948 292.889728 
L 133.49478 293.974344 
L 135.044443 294.839385 
L 136.594107 295.488 
L 137.368939 295.455669 
L 138.143771 295.249592 
L 138.918603 294.787391 
L 140.468266 293.272405 
L 142.01793 292.582755 
L 142.792762 291.961768 
L 143.567594 291.044089 
L 144.342426 290.345679 
L 145.117258 290.244154 
L 146.666921 289.242219 
L 147.441753 288.235861 
L 148.216585 287.71065 
L 148.991417 286.959532 
L 149.766249 287.005296 
L 150.54108 286.908561 
L 151.315912 286.671388 
L 152.090744 286.024277 
L 153.640408 285.887044 
L 155.964903 285.671527 
L 156.739735 285.328697 
L 157.514567 284.423792 
L 159.064231 283.722375 
L 160.613895 283.505093 
L 162.93839 283.446257 
L 165.262886 283.915274 
L 166.037718 284.897207 
L 167.587381 285.461288 
L 168.362213 285.65017 
L 169.137045 285.582754 
L 169.911877 285.369374 
L 170.686709 284.908361 
L 171.46154 284.727421 
L 172.236372 284.811063 
L 173.011204 284.699511 
L 173.786036 284.235928 
L 176.110532 281.273185 
L 177.660195 279.894072 
L 179.984691 277.197555 
L 180.759523 276.015206 
L 181.534355 275.854712 
L 182.309186 275.483953 
L 184.633682 275.130635 
L 186.958177 275.536092 
L 188.507841 275.347374 
L 189.282673 275.331735 
L 190.057505 275.094097 
L 190.832337 274.601495 
L 197.030992 274.467504 
L 197.805823 274.473771 
L 199.355487 274.246253 
L 200.130319 274.115859 
L 200.905151 273.528517 
L 201.679983 273.145085 
L 202.454814 272.53761 
L 203.229646 272.302134 
L 207.103806 272.413625 
L 209.428301 272.492397 
L 210.977965 272.823178 
L 211.752797 273.101327 
L 213.30246 273.223541 
L 214.077292 273.105971 
L 215.626956 273.251072 
L 217.951452 273.543235 
L 220.275947 273.49558 
L 222.600443 273.513924 
L 224.150106 273.107807 
L 232.673257 273.106141 
L 233.448089 273.142555 
L 234.22292 273.445352 
L 234.997752 274.8948 
L 235.772584 275.56161 
L 236.547416 276.034804 
L 238.871911 276.930242 
L 240.421575 276.439797 
L 242.746071 275.168708 
L 244.295734 273.724242 
L 247.395062 269.750964 
L 248.944726 266.879217 
L 249.719557 265.285145 
L 253.593717 263.990214 
L 254.368548 264.047504 
L 255.14338 263.568354 
L 255.918212 263.2642 
L 256.693044 262.783464 
L 257.467876 263.079772 
L 260.567203 263.608718 
L 261.342035 263.605846 
L 262.891699 263.427348 
L 263.666531 263.572993 
L 264.441363 265.376465 
L 265.216194 266.251155 
L 265.991026 267.315167 
L 268.315522 269.166413 
L 269.865186 270.018725 
L 271.414849 270.476495 
L 272.964513 270.704941 
L 275.289008 270.604189 
L 276.06384 270.517387 
L 277.613504 270.026767 
L 278.388336 269.426244 
L 279.163168 269.104372 
L 280.712831 269.042036 
L 282.262495 268.674106 
L 283.037327 268.572983 
L 284.586991 267.982192 
L 286.136654 267.652258 
L 289.235982 267.386024 
L 292.335309 267.354577 
L 293.110141 267.617862 
L 294.659805 267.930623 
L 295.434637 267.693706 
L 296.9843 267.765437 
L 300.083628 267.564702 
L 300.85846 267.601366 
L 301.633291 268.139109 
L 302.408123 268.474332 
L 303.957787 268.440512 
L 304.732619 268.264106 
L 305.507451 267.824435 
L 306.282282 267.575409 
L 307.831946 266.706243 
L 310.156442 265.71128 
L 312.480937 263.868698 
L 313.255769 263.72777 
L 314.030601 263.204972 
L 314.805433 262.069782 
L 315.580265 261.226437 
L 316.355097 260.205401 
L 317.129928 259.765208 
L 319.454424 259.024412 
L 320.229256 258.360649 
L 321.004088 257.512058 
L 323.328583 256.698726 
L 324.103415 256.109907 
L 324.878247 255.916595 
L 325.653079 255.27309 
L 327.202742 252.629013 
L 327.977574 251.517698 
L 328.752406 251.119812 
L 329.527238 250.458884 
L 330.30207 249.099187 
L 331.076902 248.130249 
L 331.851734 246.940155 
L 332.626565 245.989671 
L 333.401397 244.781479 
L 334.951061 243.219695 
L 335.725893 241.780169 
L 336.500725 239.929873 
L 337.275557 238.765501 
L 338.82522 238.04481 
L 339.600052 237.683113 
L 341.149716 238.043129 
L 343.474211 237.885502 
L 344.249043 237.913299 
L 345.023875 238.108158 
L 347.348371 241.439967 
L 348.123202 242.361068 
L 348.898034 242.211141 
L 349.672866 242.574272 
L 350.447698 242.482047 
L 351.22253 241.965007 
L 351.997362 241.849463 
L 352.772194 242.455616 
L 353.547025 242.283886 
L 354.321857 241.4058 
L 355.871521 238.958814 
L 357.421185 234.627922 
L 358.196016 233.777563 
L 358.970848 232.438921 
L 359.74568 229.448262 
L 360.520512 228.495445 
L 361.295344 229.550042 
L 362.070176 231.608528 
L 362.845008 233.204565 
L 363.619839 232.651329 
L 364.394671 229.396424 
L 365.169503 225.585831 
L 367.493999 210.948036 
L 368.268831 206.757301 
L 372.14299 182.448333 
L 372.917822 180.534038 
L 373.692654 179.956877 
L 374.467485 180.698486 
L 375.242317 180.510766 
L 376.017149 181.656732 
L 376.791981 183.413544 
L 377.566813 186.061349 
L 378.341645 185.3326 
L 379.116476 183.991322 
L 379.891308 183.518597 
L 380.66614 184.082183 
L 381.440972 184.370905 
L 382.215804 184.014442 
L 382.990636 182.853606 
L 383.765468 182.875004 
L 384.540299 183.588559 
L 385.315131 184.979188 
L 386.089963 185.786024 
L 386.864795 193.070164 
L 387.639627 197.469619 
L 388.414459 197.35267 
L 389.189291 199.232669 
L 389.964122 198.997042 
L 390.738954 197.708494 
L 391.513786 196.15613 
L 392.288618 193.529853 
L 393.06345 188.700544 
L 393.838282 186.51307 
L 394.613113 183.546918 
L 395.387945 181.579604 
L 396.937609 171.710243 
L 398.487273 159.231783 
L 398.487273 159.231783 
" style="fill:none;stroke:#ff7f0e;stroke-linecap:square;stroke-width:1.5;"/>
   </g>
   <g id="line2d_17">
    <path clip-path="url(#p4e87300b10)" d="M 88.554532 277.039083 
L 90.879028 276.123472 
L 93.203524 275.497804 
L 93.978355 275.340916 
L 98.627346 273.659481 
L 100.951842 273.276302 
L 103.276338 272.638098 
L 107.150497 270.933787 
L 107.925329 270.505011 
L 109.474992 270.00304 
L 110.249824 269.930368 
L 111.024656 269.73836 
L 113.349152 269.577084 
L 116.448479 269.316868 
L 118.772975 269.989102 
L 121.09747 270.896526 
L 123.421966 271.81745 
L 124.971629 272.19615 
L 125.746461 272.55041 
L 127.296125 273.38825 
L 128.070957 273.745164 
L 130.395452 276.631363 
L 131.945116 278.459538 
L 133.49478 279.916356 
L 140.468266 284.601722 
L 143.567594 286.079974 
L 144.342426 285.705929 
L 145.892089 285.139511 
L 147.441753 284.453763 
L 148.991417 283.65783 
L 151.315912 283.03706 
L 152.090744 282.808946 
L 153.640408 282.692963 
L 155.964903 282.511601 
L 156.739735 282.346698 
L 157.514567 282.053659 
L 159.064231 281.809171 
L 160.613895 281.695908 
L 163.713222 281.157845 
L 165.262886 280.945731 
L 166.812549 280.251268 
L 169.911877 278.517028 
L 174.560868 275.450112 
L 176.885363 274.32776 
L 178.435027 273.459538 
L 181.534355 272.069502 
L 182.309186 271.882434 
L 185.408514 271.776035 
L 186.958177 271.880383 
L 187.733009 272.049548 
L 189.282673 272.137229 
L 192.382 271.411907 
L 193.156832 271.438254 
L 194.706496 271.282044 
L 197.805823 271.20863 
L 198.580655 271.033955 
L 200.130319 270.943523 
L 202.454814 270.558801 
L 204.004478 270.507045 
L 206.328974 270.610599 
L 207.103806 270.803609 
L 208.653469 270.785767 
L 212.527629 271.373458 
L 214.852124 271.66916 
L 218.726283 271.995409 
L 221.825611 272.058667 
L 223.375274 272.148456 
L 224.924938 272.242806 
L 229.573929 272.208486 
L 231.123593 272.084105 
L 234.22292 271.61918 
L 238.09708 269.679317 
L 238.871911 269.140795 
L 241.196407 267.891826 
L 245.845398 264.616484 
L 248.169894 263.313792 
L 249.719557 262.461061 
L 253.593717 261.547471 
L 254.368548 261.601933 
L 256.693044 261.260531 
L 259.792371 261.532495 
L 262.116867 261.55985 
L 262.891699 261.481834 
L 263.666531 261.557527 
L 268.315522 263.667395 
L 269.865186 264.27423 
L 272.189681 265.111012 
L 278.388336 266.326392 
L 279.163168 266.51326 
L 280.712831 266.449192 
L 286.136654 265.772591 
L 289.235982 265.69774 
L 291.560477 265.829993 
L 293.110141 265.76176 
L 297.759132 264.642293 
L 299.308796 264.336558 
L 300.85846 263.897244 
L 303.182955 262.411879 
L 312.480937 256.146782 
L 314.030601 254.341016 
L 317.129928 251.546958 
L 318.679592 250.23935 
L 322.553751 246.695947 
L 324.878247 243.816385 
L 327.977574 239.731106 
L 328.752406 239.049768 
L 329.527238 238.704007 
L 331.851734 237.116172 
L 332.626565 236.181082 
L 336.500725 232.988729 
L 337.275557 232.413586 
L 338.050388 232.084794 
L 339.600052 231.805038 
L 341.149716 232.026962 
L 344.249043 231.584608 
L 345.023875 230.699964 
L 347.348371 227.133008 
L 348.898034 225.451687 
L 351.997362 221.351428 
L 353.547025 218.314892 
L 355.096689 214.552793 
L 357.421185 207.662386 
L 361.295344 193.473522 
L 364.394671 179.322695 
L 366.719167 171.504864 
L 367.493999 168.409677 
L 369.043662 164.077221 
L 371.368158 158.694664 
L 372.14299 157.294513 
L 372.917822 156.934305 
L 373.692654 156.780722 
L 374.467485 156.980658 
L 375.242317 156.933574 
L 376.017149 157.296818 
L 376.791981 158.211116 
L 377.566813 160.172941 
L 378.341645 161.77373 
L 379.116476 163.090615 
L 379.891308 163.982248 
L 380.66614 164.544891 
L 381.440972 164.77099 
L 382.990636 165.520341 
L 383.765468 165.509273 
L 384.540299 165.123827 
L 385.315131 164.420759 
L 386.089963 163.966879 
L 387.639627 159.507072 
L 389.189291 153.362252 
L 392.288618 140.139648 
L 395.387945 123.665982 
L 397.712441 109.442459 
L 398.487273 106.829975 
L 398.487273 106.829975 
" style="fill:none;stroke:#2ca02c;stroke-linecap:square;stroke-width:1.5;"/>
   </g>
   <g id="line2d_18">
    <path clip-path="url(#p4e87300b10)" d="M 73.832727 280.877625 
L 74.607559 281.845842 
L 75.382391 280.233923 
L 76.932055 280.195022 
L 78.481718 276.749495 
L 79.25655 277.290802 
L 80.031382 278.224412 
L 80.806214 276.669432 
L 81.581046 277.376229 
L 82.355878 276.705627 
L 83.130709 276.996113 
L 83.905541 274.053866 
L 84.680373 274.064236 
L 85.455205 274.396532 
L 86.230037 273.640029 
L 87.004869 273.596889 
L 87.779701 274.463593 
L 88.554532 274.721995 
L 89.329364 274.31668 
L 90.104196 274.629677 
L 90.879028 275.698807 
L 91.65386 275.539561 
L 92.428692 275.964013 
L 93.978355 273.611734 
L 94.753187 271.548405 
L 95.528019 271.926943 
L 96.302851 271.052459 
L 97.077683 271.753248 
L 97.852515 271.589053 
L 99.402178 271.904837 
L 100.17701 272.409598 
L 100.951842 270.536619 
L 101.726674 269.932806 
L 103.276338 269.335029 
L 104.051169 268.227508 
L 104.826001 269.466513 
L 105.600833 267.818649 
L 106.375665 267.425562 
L 107.150497 267.882263 
L 107.925329 267.388495 
L 108.700161 269.267225 
L 109.474992 269.163192 
L 110.249824 270.094964 
L 111.024656 268.086779 
L 111.799488 270.498331 
L 112.57432 270.4588 
L 113.349152 270.212112 
L 114.123984 270.306195 
L 114.898815 269.020217 
L 116.448479 271.786494 
L 117.223311 273.995727 
L 117.998143 273.965401 
L 118.772975 274.420001 
L 119.547806 275.08181 
L 120.322638 275.092332 
L 121.09747 273.487007 
L 121.872302 274.150787 
L 122.647134 274.08242 
L 123.421966 272.881594 
L 124.196798 272.515795 
L 124.971629 273.488617 
L 125.746461 277.180157 
L 126.521293 277.621362 
L 127.296125 277.720547 
L 128.070957 277.597081 
L 128.845789 290.622388 
L 129.620621 287.350832 
L 130.395452 289.289286 
L 131.170284 288.64192 
L 131.945116 290.005702 
L 132.719948 288.662935 
L 133.49478 288.434544 
L 134.269612 285.001676 
L 135.819275 285.115196 
L 136.594107 286.69818 
L 137.368939 283.909865 
L 138.143771 282.759349 
L 138.918603 283.043424 
L 139.693435 282.877057 
L 140.468266 284.391582 
L 141.243098 284.865138 
L 142.01793 286.45763 
L 142.792762 284.178819 
L 143.567594 284.182602 
L 144.342426 283.141482 
L 145.117258 282.523565 
L 145.892089 282.788199 
L 146.666921 282.275657 
L 147.441753 282.657001 
L 148.216585 280.270811 
L 148.991417 280.907996 
L 149.766249 280.125802 
L 150.54108 280.471409 
L 151.315912 282.215634 
L 152.865576 282.047805 
L 153.640408 282.301757 
L 154.41524 282.252174 
L 155.190072 283.221394 
L 155.964903 281.211245 
L 156.739735 281.567093 
L 157.514567 280.596848 
L 158.289399 281.125273 
L 159.064231 282.346378 
L 159.839063 282.282518 
L 160.613895 281.117272 
L 161.388726 279.622421 
L 162.163558 279.56367 
L 162.93839 279.362838 
L 163.713222 278.681486 
L 164.488054 278.339718 
L 165.262886 278.451784 
L 166.037718 274.089809 
L 166.812549 274.707989 
L 168.362213 273.161039 
L 169.137045 273.446042 
L 169.911877 273.590206 
L 171.46154 272.385408 
L 172.236372 268.880455 
L 173.011204 269.650386 
L 173.786036 270.664022 
L 174.560868 274.177423 
L 175.3357 274.882172 
L 176.110532 273.923721 
L 177.660195 269.753158 
L 178.435027 271.808924 
L 179.209859 271.517883 
L 179.984691 270.294274 
L 180.759523 270.130608 
L 181.534355 269.819298 
L 182.309186 270.96664 
L 183.084018 272.834044 
L 183.85885 272.379906 
L 184.633682 272.384104 
L 185.408514 274.326791 
L 186.183346 273.56677 
L 186.958177 273.877807 
L 188.507841 270.729997 
L 189.282673 271.338022 
L 190.057505 270.184353 
L 190.832337 271.221877 
L 191.607169 268.018149 
L 192.382 270.821777 
L 193.931664 269.794076 
L 194.706496 270.408546 
L 197.030992 269.801154 
L 197.805823 269.806942 
L 198.580655 269.340556 
L 199.355487 271.88324 
L 200.130319 271.072128 
L 200.905151 271.082392 
L 201.679983 271.67404 
L 202.454814 271.32049 
L 203.229646 270.819958 
L 205.554142 271.789464 
L 206.328974 271.580314 
L 207.103806 271.878345 
L 207.878637 270.257329 
L 208.653469 270.487699 
L 209.428301 271.793136 
L 210.203133 272.03671 
L 210.977965 272.404982 
L 211.752797 273.055634 
L 212.527629 272.601561 
L 213.30246 272.319053 
L 214.077292 272.50124 
L 214.852124 272.124485 
L 215.626956 272.694416 
L 216.401788 272.827297 
L 217.17662 272.518924 
L 217.951452 272.7643 
L 218.726283 271.689051 
L 219.501115 271.982605 
L 220.275947 271.303581 
L 221.050779 272.044989 
L 221.825611 271.888004 
L 222.600443 272.100771 
L 223.375274 271.830689 
L 224.150106 272.093046 
L 224.924938 272.074775 
L 226.474602 272.496279 
L 228.024266 272.365564 
L 228.799097 272.207436 
L 229.573929 272.416366 
L 230.348761 271.497403 
L 231.123593 270.833862 
L 231.898425 270.512577 
L 232.673257 270.79875 
L 233.448089 270.075669 
L 234.22292 269.114088 
L 234.997752 264.527172 
L 235.772584 264.838176 
L 236.547416 264.118111 
L 237.322248 264.126171 
L 238.09708 262.913059 
L 238.871911 261.06024 
L 239.646743 264.275364 
L 240.421575 263.475474 
L 241.196407 263.729196 
L 241.971239 261.387654 
L 242.746071 261.212891 
L 243.520903 261.838943 
L 244.295734 261.228624 
L 245.070566 261.578585 
L 245.845398 260.685065 
L 246.62023 262.797568 
L 247.395062 262.096342 
L 248.169894 261.19744 
L 248.944726 261.260438 
L 249.719557 260.874709 
L 250.494389 260.660003 
L 251.269221 259.073513 
L 252.044053 260.525958 
L 252.818885 261.130849 
L 253.593717 260.860569 
L 254.368548 262.149467 
L 255.14338 261.63666 
L 255.918212 261.734224 
L 256.693044 261.281126 
L 257.467876 263.108808 
L 258.242708 262.556415 
L 259.01754 263.074532 
L 259.792371 262.367619 
L 260.567203 262.460489 
L 261.342035 261.484361 
L 262.116867 261.663477 
L 262.891699 260.536018 
L 263.666531 262.711302 
L 264.441363 267.9383 
L 265.216194 266.749105 
L 265.991026 268.033247 
L 267.54069 267.155312 
L 268.315522 268.208273 
L 269.090354 267.841766 
L 269.865186 267.304985 
L 271.414849 266.899631 
L 272.189681 267.362723 
L 272.964513 265.939186 
L 273.739345 265.416817 
L 274.514177 264.697591 
L 275.289008 264.805387 
L 276.06384 264.778121 
L 276.838672 264.152999 
L 277.613504 264.839647 
L 278.388336 266.929566 
L 279.163168 266.448667 
L 279.938 267.737208 
L 280.712831 265.668831 
L 281.487663 265.825712 
L 283.037327 265.501715 
L 283.812159 265.876847 
L 284.586991 265.251634 
L 285.361823 265.481425 
L 286.136654 266.146582 
L 287.686318 266.418468 
L 289.235982 265.476411 
L 290.010814 266.135803 
L 290.785645 265.948953 
L 291.560477 264.841404 
L 292.335309 264.355675 
L 293.110141 263.272312 
L 293.884973 262.927812 
L 294.659805 262.237878 
L 295.434637 262.617452 
L 296.209468 262.709206 
L 296.9843 262.30544 
L 297.759132 263.114396 
L 298.533964 262.939544 
L 299.308796 262.324322 
L 300.083628 261.337749 
L 300.85846 260.609017 
L 301.633291 256.870961 
L 302.408123 256.0102 
L 303.182955 256.295601 
L 303.957787 255.452531 
L 304.732619 255.793159 
L 305.507451 255.607428 
L 306.282282 253.085799 
L 307.057114 254.695642 
L 307.831946 253.909968 
L 308.606778 253.500199 
L 309.38161 252.51164 
L 310.156442 252.663301 
L 310.931274 253.513341 
L 311.706105 251.727011 
L 312.480937 250.97384 
L 313.255769 245.025234 
L 314.030601 244.913369 
L 314.805433 248.092701 
L 315.580265 245.337804 
L 316.355097 245.792497 
L 317.129928 246.037904 
L 317.90476 244.312498 
L 318.679592 241.841129 
L 319.454424 241.767068 
L 320.229256 242.741375 
L 321.004088 243.221474 
L 321.77892 240.069799 
L 322.553751 235.966789 
L 323.328583 235.419002 
L 324.103415 235.265299 
L 324.878247 231.646259 
L 325.653079 231.655143 
L 326.427911 232.785212 
L 327.202742 232.897869 
L 327.977574 229.833691 
L 328.752406 231.398474 
L 329.527238 237.998156 
L 330.30207 238.148846 
L 331.076902 235.626519 
L 331.851734 233.690934 
L 332.626565 227.336111 
L 333.401397 231.231504 
L 334.176229 229.301477 
L 334.951061 228.437584 
L 335.725893 231.547129 
L 336.500725 229.518785 
L 337.275557 228.566934 
L 338.050388 229.390948 
L 338.82522 233.044317 
L 339.600052 232.044857 
L 340.374884 233.478262 
L 341.149716 234.261636 
L 341.924548 230.985645 
L 342.699379 229.587195 
L 343.474211 229.089533 
L 344.249043 228.405788 
L 345.023875 220.305277 
L 345.798707 214.057464 
L 346.573539 212.509168 
L 347.348371 209.560542 
L 348.123202 210.841676 
L 348.898034 214.099528 
L 349.672866 209.308472 
L 350.447698 211.828006 
L 351.22253 209.852049 
L 351.997362 205.811267 
L 352.772194 198.282357 
L 353.547025 198.94481 
L 354.321857 195.527861 
L 355.096689 194.319331 
L 355.871521 187.937664 
L 356.646353 187.28495 
L 357.421185 185.694781 
L 358.196016 173.712899 
L 358.970848 169.968185 
L 359.74568 174.203374 
L 360.520512 165.749094 
L 362.070176 141.695203 
L 362.845008 136.420447 
L 363.619839 138.606378 
L 364.394671 147.272335 
L 365.169503 158.644927 
L 365.944335 163.684174 
L 366.719167 152.302802 
L 367.493999 143.907533 
L 368.268831 153.538702 
L 369.043662 157.039352 
L 369.818494 158.003177 
L 370.593326 154.754576 
L 371.368158 157.37595 
L 372.14299 159.281931 
L 372.917822 178.490633 
L 373.692654 170.641242 
L 374.467485 173.966894 
L 375.242317 173.261695 
L 376.017149 173.013975 
L 376.791981 172.320386 
L 377.566813 180.931703 
L 378.341645 168.436235 
L 379.116476 164.944084 
L 379.891308 165.104989 
L 380.66614 169.897782 
L 381.440972 168.20616 
L 382.990636 151.352325 
L 383.765468 153.31734 
L 384.540299 149.330426 
L 385.315131 143.941816 
L 386.089963 145.676988 
L 386.864795 113.695189 
L 387.639627 113.766546 
L 388.414459 119.619529 
L 389.189291 106.615942 
L 389.964122 108.603595 
L 390.738954 109.663112 
L 391.513786 103.798963 
L 392.288618 106.045213 
L 393.06345 100.294007 
L 393.838282 88.213331 
L 394.613113 90.112569 
L 395.387945 71.323773 
L 396.162777 70.40445 
L 396.937609 64.37805 
L 397.712441 78.696009 
L 398.487273 99.102643 
L 398.487273 99.102643 
" style="fill:none;stroke:#d62728;stroke-linecap:square;stroke-width:1.5;"/>
   </g>
   <g id="patch_3">
    <path d="M 57.6 307.584 
L 57.6 41.472 
" style="fill:none;stroke:#000000;stroke-linecap:square;stroke-linejoin:miter;stroke-width:0.8;"/>
   </g>
   <g id="patch_4">
    <path d="M 414.72 307.584 
L 414.72 41.472 
" style="fill:none;stroke:#000000;stroke-linecap:square;stroke-linejoin:miter;stroke-width:0.8;"/>
   </g>
   <g id="patch_5">
    <path d="M 57.6 307.584 
L 414.72 307.584 
" style="fill:none;stroke:#000000;stroke-linecap:square;stroke-linejoin:miter;stroke-width:0.8;"/>
   </g>
   <g id="patch_6">
    <path d="M 57.6 41.472 
L 414.72 41.472 
" style="fill:none;stroke:#000000;stroke-linecap:square;stroke-linejoin:miter;stroke-width:0.8;"/>
   </g>
   <g id="text_15">
    <!-- Data source: nomics -->
    <g transform="translate(184.91625 35.472)scale(0.1 -0.1)">
     <defs>
      <path d="M 19.671875 64.796875 
L 19.671875 8.109375 
L 31.59375 8.109375 
Q 46.6875 8.109375 53.6875 14.9375 
Q 60.6875 21.78125 60.6875 36.53125 
Q 60.6875 51.171875 53.6875 57.984375 
Q 46.6875 64.796875 31.59375 64.796875 
z
M 9.8125 72.90625 
L 30.078125 72.90625 
Q 51.265625 72.90625 61.171875 64.09375 
Q 71.09375 55.28125 71.09375 36.53125 
Q 71.09375 17.671875 61.125 8.828125 
Q 51.171875 0 30.078125 0 
L 9.8125 0 
z
" id="DejaVuSans-68"/>
      <path d="M 34.28125 27.484375 
Q 23.390625 27.484375 19.1875 25 
Q 14.984375 22.515625 14.984375 16.5 
Q 14.984375 11.71875 18.140625 8.90625 
Q 21.296875 6.109375 26.703125 6.109375 
Q 34.1875 6.109375 38.703125 11.40625 
Q 43.21875 16.703125 43.21875 25.484375 
L 43.21875 27.484375 
z
M 52.203125 31.203125 
L 52.203125 0 
L 43.21875 0 
L 43.21875 8.296875 
Q 40.140625 3.328125 35.546875 0.953125 
Q 30.953125 -1.421875 24.3125 -1.421875 
Q 15.921875 -1.421875 10.953125 3.296875 
Q 6 8.015625 6 15.921875 
Q 6 25.140625 12.171875 29.828125 
Q 18.359375 34.515625 30.609375 34.515625 
L 43.21875 34.515625 
L 43.21875 35.40625 
Q 43.21875 41.609375 39.140625 45 
Q 35.0625 48.390625 27.6875 48.390625 
Q 23 48.390625 18.546875 47.265625 
Q 14.109375 46.140625 10.015625 43.890625 
L 10.015625 52.203125 
Q 14.9375 54.109375 19.578125 55.046875 
Q 24.21875 56 28.609375 56 
Q 40.484375 56 46.34375 49.84375 
Q 52.203125 43.703125 52.203125 31.203125 
z
" id="DejaVuSans-97"/>
      <path d="M 18.3125 70.21875 
L 18.3125 54.6875 
L 36.8125 54.6875 
L 36.8125 47.703125 
L 18.3125 47.703125 
L 18.3125 18.015625 
Q 18.3125 11.328125 20.140625 9.421875 
Q 21.96875 7.515625 27.59375 7.515625 
L 36.8125 7.515625 
L 36.8125 0 
L 27.59375 0 
Q 17.1875 0 13.234375 3.875 
Q 9.28125 7.765625 9.28125 18.015625 
L 9.28125 47.703125 
L 2.6875 47.703125 
L 2.6875 54.6875 
L 9.28125 54.6875 
L 9.28125 70.21875 
z
" id="DejaVuSans-116"/>
      <path id="DejaVuSans-32"/>
      <path d="M 44.28125 53.078125 
L 44.28125 44.578125 
Q 40.484375 46.53125 36.375 47.5 
Q 32.28125 48.484375 27.875 48.484375 
Q 21.1875 48.484375 17.84375 46.4375 
Q 14.5 44.390625 14.5 40.28125 
Q 14.5 37.15625 16.890625 35.375 
Q 19.28125 33.59375 26.515625 31.984375 
L 29.59375 31.296875 
Q 39.15625 29.25 43.1875 25.515625 
Q 47.21875 21.78125 47.21875 15.09375 
Q 47.21875 7.46875 41.1875 3.015625 
Q 35.15625 -1.421875 24.609375 -1.421875 
Q 20.21875 -1.421875 15.453125 -0.5625 
Q 10.6875 0.296875 5.421875 2 
L 5.421875 11.28125 
Q 10.40625 8.6875 15.234375 7.390625 
Q 20.0625 6.109375 24.8125 6.109375 
Q 31.15625 6.109375 34.5625 8.28125 
Q 37.984375 10.453125 37.984375 14.40625 
Q 37.984375 18.0625 35.515625 20.015625 
Q 33.0625 21.96875 24.703125 23.78125 
L 21.578125 24.515625 
Q 13.234375 26.265625 9.515625 29.90625 
Q 5.8125 33.546875 5.8125 39.890625 
Q 5.8125 47.609375 11.28125 51.796875 
Q 16.75 56 26.8125 56 
Q 31.78125 56 36.171875 55.265625 
Q 40.578125 54.546875 44.28125 53.078125 
z
" id="DejaVuSans-115"/>
      <path d="M 30.609375 48.390625 
Q 23.390625 48.390625 19.1875 42.75 
Q 14.984375 37.109375 14.984375 27.296875 
Q 14.984375 17.484375 19.15625 11.84375 
Q 23.34375 6.203125 30.609375 6.203125 
Q 37.796875 6.203125 41.984375 11.859375 
Q 46.1875 17.53125 46.1875 27.296875 
Q 46.1875 37.015625 41.984375 42.703125 
Q 37.796875 48.390625 30.609375 48.390625 
z
M 30.609375 56 
Q 42.328125 56 49.015625 48.375 
Q 55.71875 40.765625 55.71875 27.296875 
Q 55.71875 13.875 49.015625 6.21875 
Q 42.328125 -1.421875 30.609375 -1.421875 
Q 18.84375 -1.421875 12.171875 6.21875 
Q 5.515625 13.875 5.515625 27.296875 
Q 5.515625 40.765625 12.171875 48.375 
Q 18.84375 56 30.609375 56 
z
" id="DejaVuSans-111"/>
      <path d="M 8.5 21.578125 
L 8.5 54.6875 
L 17.484375 54.6875 
L 17.484375 21.921875 
Q 17.484375 14.15625 20.5 10.265625 
Q 23.53125 6.390625 29.59375 6.390625 
Q 36.859375 6.390625 41.078125 11.03125 
Q 45.3125 15.671875 45.3125 23.6875 
L 45.3125 54.6875 
L 54.296875 54.6875 
L 54.296875 0 
L 45.3125 0 
L 45.3125 8.40625 
Q 42.046875 3.421875 37.71875 1 
Q 33.40625 -1.421875 27.6875 -1.421875 
Q 18.265625 -1.421875 13.375 4.4375 
Q 8.5 10.296875 8.5 21.578125 
z
M 31.109375 56 
z
" id="DejaVuSans-117"/>
      <path d="M 41.109375 46.296875 
Q 39.59375 47.171875 37.8125 47.578125 
Q 36.03125 48 33.890625 48 
Q 26.265625 48 22.1875 43.046875 
Q 18.109375 38.09375 18.109375 28.8125 
L 18.109375 0 
L 9.078125 0 
L 9.078125 54.6875 
L 18.109375 54.6875 
L 18.109375 46.1875 
Q 20.953125 51.171875 25.484375 53.578125 
Q 30.03125 56 36.53125 56 
Q 37.453125 56 38.578125 55.875 
Q 39.703125 55.765625 41.0625 55.515625 
z
" id="DejaVuSans-114"/>
      <path d="M 48.78125 52.59375 
L 48.78125 44.1875 
Q 44.96875 46.296875 41.140625 47.34375 
Q 37.3125 48.390625 33.40625 48.390625 
Q 24.65625 48.390625 19.8125 42.84375 
Q 14.984375 37.3125 14.984375 27.296875 
Q 14.984375 17.28125 19.8125 11.734375 
Q 24.65625 6.203125 33.40625 6.203125 
Q 37.3125 6.203125 41.140625 7.25 
Q 44.96875 8.296875 48.78125 10.40625 
L 48.78125 2.09375 
Q 45.015625 0.34375 40.984375 -0.53125 
Q 36.96875 -1.421875 32.421875 -1.421875 
Q 20.0625 -1.421875 12.78125 6.34375 
Q 5.515625 14.109375 5.515625 27.296875 
Q 5.515625 40.671875 12.859375 48.328125 
Q 20.21875 56 33.015625 56 
Q 37.15625 56 41.109375 55.140625 
Q 45.0625 54.296875 48.78125 52.59375 
z
" id="DejaVuSans-99"/>
      <path d="M 56.203125 29.59375 
L 56.203125 25.203125 
L 14.890625 25.203125 
Q 15.484375 15.921875 20.484375 11.0625 
Q 25.484375 6.203125 34.421875 6.203125 
Q 39.59375 6.203125 44.453125 7.46875 
Q 49.3125 8.734375 54.109375 11.28125 
L 54.109375 2.78125 
Q 49.265625 0.734375 44.1875 -0.34375 
Q 39.109375 -1.421875 33.890625 -1.421875 
Q 20.796875 -1.421875 13.15625 6.1875 
Q 5.515625 13.8125 5.515625 26.8125 
Q 5.515625 40.234375 12.765625 48.109375 
Q 20.015625 56 32.328125 56 
Q 43.359375 56 49.78125 48.890625 
Q 56.203125 41.796875 56.203125 29.59375 
z
M 47.21875 32.234375 
Q 47.125 39.59375 43.09375 43.984375 
Q 39.0625 48.390625 32.421875 48.390625 
Q 24.90625 48.390625 20.390625 44.140625 
Q 15.875 39.890625 15.1875 32.171875 
z
" id="DejaVuSans-101"/>
      <path d="M 11.71875 12.40625 
L 22.015625 12.40625 
L 22.015625 0 
L 11.71875 0 
z
M 11.71875 51.703125 
L 22.015625 51.703125 
L 22.015625 39.3125 
L 11.71875 39.3125 
z
" id="DejaVuSans-58"/>
      <path d="M 54.890625 33.015625 
L 54.890625 0 
L 45.90625 0 
L 45.90625 32.71875 
Q 45.90625 40.484375 42.875 44.328125 
Q 39.84375 48.1875 33.796875 48.1875 
Q 26.515625 48.1875 22.3125 43.546875 
Q 18.109375 38.921875 18.109375 30.90625 
L 18.109375 0 
L 9.078125 0 
L 9.078125 54.6875 
L 18.109375 54.6875 
L 18.109375 46.1875 
Q 21.34375 51.125 25.703125 53.5625 
Q 30.078125 56 35.796875 56 
Q 45.21875 56 50.046875 50.171875 
Q 54.890625 44.34375 54.890625 33.015625 
z
" id="DejaVuSans-110"/>
      <path d="M 52 44.1875 
Q 55.375 50.25 60.0625 53.125 
Q 64.75 56 71.09375 56 
Q 79.640625 56 84.28125 50.015625 
Q 88.921875 44.046875 88.921875 33.015625 
L 88.921875 0 
L 79.890625 0 
L 79.890625 32.71875 
Q 79.890625 40.578125 77.09375 44.375 
Q 74.3125 48.1875 68.609375 48.1875 
Q 61.625 48.1875 57.5625 43.546875 
Q 53.515625 38.921875 53.515625 30.90625 
L 53.515625 0 
L 44.484375 0 
L 44.484375 32.71875 
Q 44.484375 40.625 41.703125 44.40625 
Q 38.921875 48.1875 33.109375 48.1875 
Q 26.21875 48.1875 22.15625 43.53125 
Q 18.109375 38.875 18.109375 30.90625 
L 18.109375 0 
L 9.078125 0 
L 9.078125 54.6875 
L 18.109375 54.6875 
L 18.109375 46.1875 
Q 21.1875 51.21875 25.484375 53.609375 
Q 29.78125 56 35.6875 56 
Q 41.65625 56 45.828125 52.96875 
Q 50 49.953125 52 44.1875 
z
" id="DejaVuSans-109"/>
      <path d="M 9.421875 54.6875 
L 18.40625 54.6875 
L 18.40625 0 
L 9.421875 0 
z
M 9.421875 75.984375 
L 18.40625 75.984375 
L 18.40625 64.59375 
L 9.421875 64.59375 
z
" id="DejaVuSans-105"/>
     </defs>
     <use xlink:href="#DejaVuSans-68"/>
     <use x="77.001953" xlink:href="#DejaVuSans-97"/>
     <use x="138.28125" xlink:href="#DejaVuSans-116"/>
     <use x="177.490234" xlink:href="#DejaVuSans-97"/>
     <use x="238.769531" xlink:href="#DejaVuSans-32"/>
     <use x="270.556641" xlink:href="#DejaVuSans-115"/>
     <use x="322.65625" xlink:href="#DejaVuSans-111"/>
     <use x="383.837891" xlink:href="#DejaVuSans-117"/>
     <use x="447.216797" xlink:href="#DejaVuSans-114"/>
     <use x="486.080078" xlink:href="#DejaVuSans-99"/>
     <use x="541.060547" xlink:href="#DejaVuSans-101"/>
     <use x="602.583984" xlink:href="#DejaVuSans-58"/>
     <use x="636.275391" xlink:href="#DejaVuSans-32"/>
     <use x="668.0625" xlink:href="#DejaVuSans-110"/>
     <use x="731.441406" xlink:href="#DejaVuSans-111"/>
     <use x="792.623047" xlink:href="#DejaVuSans-109"/>
     <use x="890.035156" xlink:href="#DejaVuSans-105"/>
     <use x="917.818359" xlink:href="#DejaVuSans-99"/>
     <use x="972.798828" xlink:href="#DejaVuSans-115"/>
    </g>
   </g>
   <g id="legend_1">
    <g id="patch_7">
     <path d="M 64.6 108.1845 
L 155.732812 108.1845 
Q 157.732812 108.1845 157.732812 106.1845 
L 157.732812 48.472 
Q 157.732812 46.472 155.732812 46.472 
L 64.6 46.472 
Q 62.6 46.472 62.6 48.472 
L 62.6 106.1845 
Q 62.6 108.1845 64.6 108.1845 
z
" style="fill:#ffffff;opacity:0.8;stroke:#cccccc;stroke-linejoin:miter;"/>
    </g>
    <g id="line2d_19">
     <path d="M 66.6 54.570438 
L 86.6 54.570438 
" style="fill:none;stroke:#1f77b4;stroke-linecap:square;stroke-width:1.5;"/>
    </g>
    <g id="line2d_20"/>
    <g id="text_16">
     <!-- Upper Band -->
     <g transform="translate(94.6 58.070438)scale(0.1 -0.1)">
      <defs>
       <path d="M 8.6875 72.90625 
L 18.609375 72.90625 
L 18.609375 28.609375 
Q 18.609375 16.890625 22.84375 11.734375 
Q 27.09375 6.59375 36.625 6.59375 
Q 46.09375 6.59375 50.34375 11.734375 
Q 54.59375 16.890625 54.59375 28.609375 
L 54.59375 72.90625 
L 64.5 72.90625 
L 64.5 27.390625 
Q 64.5 13.140625 57.4375 5.859375 
Q 50.390625 -1.421875 36.625 -1.421875 
Q 22.796875 -1.421875 15.734375 5.859375 
Q 8.6875 13.140625 8.6875 27.390625 
z
" id="DejaVuSans-85"/>
       <path d="M 18.109375 8.203125 
L 18.109375 -20.796875 
L 9.078125 -20.796875 
L 9.078125 54.6875 
L 18.109375 54.6875 
L 18.109375 46.390625 
Q 20.953125 51.265625 25.265625 53.625 
Q 29.59375 56 35.59375 56 
Q 45.5625 56 51.78125 48.09375 
Q 58.015625 40.1875 58.015625 27.296875 
Q 58.015625 14.40625 51.78125 6.484375 
Q 45.5625 -1.421875 35.59375 -1.421875 
Q 29.59375 -1.421875 25.265625 0.953125 
Q 20.953125 3.328125 18.109375 8.203125 
z
M 48.6875 27.296875 
Q 48.6875 37.203125 44.609375 42.84375 
Q 40.53125 48.484375 33.40625 48.484375 
Q 26.265625 48.484375 22.1875 42.84375 
Q 18.109375 37.203125 18.109375 27.296875 
Q 18.109375 17.390625 22.1875 11.75 
Q 26.265625 6.109375 33.40625 6.109375 
Q 40.53125 6.109375 44.609375 11.75 
Q 48.6875 17.390625 48.6875 27.296875 
z
" id="DejaVuSans-112"/>
       <path d="M 19.671875 34.8125 
L 19.671875 8.109375 
L 35.5 8.109375 
Q 43.453125 8.109375 47.28125 11.40625 
Q 51.125 14.703125 51.125 21.484375 
Q 51.125 28.328125 47.28125 31.5625 
Q 43.453125 34.8125 35.5 34.8125 
z
M 19.671875 64.796875 
L 19.671875 42.828125 
L 34.28125 42.828125 
Q 41.5 42.828125 45.03125 45.53125 
Q 48.578125 48.25 48.578125 53.8125 
Q 48.578125 59.328125 45.03125 62.0625 
Q 41.5 64.796875 34.28125 64.796875 
z
M 9.8125 72.90625 
L 35.015625 72.90625 
Q 46.296875 72.90625 52.390625 68.21875 
Q 58.5 63.53125 58.5 54.890625 
Q 58.5 48.1875 55.375 44.234375 
Q 52.25 40.28125 46.1875 39.3125 
Q 53.46875 37.75 57.5 32.78125 
Q 61.53125 27.828125 61.53125 20.40625 
Q 61.53125 10.640625 54.890625 5.3125 
Q 48.25 0 35.984375 0 
L 9.8125 0 
z
" id="DejaVuSans-66"/>
       <path d="M 45.40625 46.390625 
L 45.40625 75.984375 
L 54.390625 75.984375 
L 54.390625 0 
L 45.40625 0 
L 45.40625 8.203125 
Q 42.578125 3.328125 38.25 0.953125 
Q 33.9375 -1.421875 27.875 -1.421875 
Q 17.96875 -1.421875 11.734375 6.484375 
Q 5.515625 14.40625 5.515625 27.296875 
Q 5.515625 40.1875 11.734375 48.09375 
Q 17.96875 56 27.875 56 
Q 33.9375 56 38.25 53.625 
Q 42.578125 51.265625 45.40625 46.390625 
z
M 14.796875 27.296875 
Q 14.796875 17.390625 18.875 11.75 
Q 22.953125 6.109375 30.078125 6.109375 
Q 37.203125 6.109375 41.296875 11.75 
Q 45.40625 17.390625 45.40625 27.296875 
Q 45.40625 37.203125 41.296875 42.84375 
Q 37.203125 48.484375 30.078125 48.484375 
Q 22.953125 48.484375 18.875 42.84375 
Q 14.796875 37.203125 14.796875 27.296875 
z
" id="DejaVuSans-100"/>
      </defs>
      <use xlink:href="#DejaVuSans-85"/>
      <use x="73.193359" xlink:href="#DejaVuSans-112"/>
      <use x="136.669922" xlink:href="#DejaVuSans-112"/>
      <use x="200.146484" xlink:href="#DejaVuSans-101"/>
      <use x="261.669922" xlink:href="#DejaVuSans-114"/>
      <use x="302.783203" xlink:href="#DejaVuSans-32"/>
      <use x="334.570312" xlink:href="#DejaVuSans-66"/>
      <use x="403.173828" xlink:href="#DejaVuSans-97"/>
      <use x="464.453125" xlink:href="#DejaVuSans-110"/>
      <use x="527.832031" xlink:href="#DejaVuSans-100"/>
     </g>
    </g>
    <g id="line2d_21">
     <path d="M 66.6 69.248563 
L 86.6 69.248563 
" style="fill:none;stroke:#ff7f0e;stroke-linecap:square;stroke-width:1.5;"/>
    </g>
    <g id="line2d_22"/>
    <g id="text_17">
     <!-- Lower Band -->
     <g transform="translate(94.6 72.748563)scale(0.1 -0.1)">
      <defs>
       <path d="M 9.8125 72.90625 
L 19.671875 72.90625 
L 19.671875 8.296875 
L 55.171875 8.296875 
L 55.171875 0 
L 9.8125 0 
z
" id="DejaVuSans-76"/>
       <path d="M 4.203125 54.6875 
L 13.1875 54.6875 
L 24.421875 12.015625 
L 35.59375 54.6875 
L 46.1875 54.6875 
L 57.421875 12.015625 
L 68.609375 54.6875 
L 77.59375 54.6875 
L 63.28125 0 
L 52.6875 0 
L 40.921875 44.828125 
L 29.109375 0 
L 18.5 0 
z
" id="DejaVuSans-119"/>
      </defs>
      <use xlink:href="#DejaVuSans-76"/>
      <use x="53.962891" xlink:href="#DejaVuSans-111"/>
      <use x="115.144531" xlink:href="#DejaVuSans-119"/>
      <use x="196.931641" xlink:href="#DejaVuSans-101"/>
      <use x="258.455078" xlink:href="#DejaVuSans-114"/>
      <use x="299.568359" xlink:href="#DejaVuSans-32"/>
      <use x="331.355469" xlink:href="#DejaVuSans-66"/>
      <use x="399.958984" xlink:href="#DejaVuSans-97"/>
      <use x="461.238281" xlink:href="#DejaVuSans-110"/>
      <use x="524.617188" xlink:href="#DejaVuSans-100"/>
     </g>
    </g>
    <g id="line2d_23">
     <path d="M 66.6 83.926688 
L 86.6 83.926688 
" style="fill:none;stroke:#2ca02c;stroke-linecap:square;stroke-width:1.5;"/>
    </g>
    <g id="line2d_24"/>
    <g id="text_18">
     <!-- MA -->
     <g transform="translate(94.6 87.426688)scale(0.1 -0.1)">
      <defs>
       <path d="M 9.8125 72.90625 
L 24.515625 72.90625 
L 43.109375 23.296875 
L 61.8125 72.90625 
L 76.515625 72.90625 
L 76.515625 0 
L 66.890625 0 
L 66.890625 64.015625 
L 48.09375 14.015625 
L 38.1875 14.015625 
L 19.390625 64.015625 
L 19.390625 0 
L 9.8125 0 
z
" id="DejaVuSans-77"/>
       <path d="M 34.1875 63.1875 
L 20.796875 26.90625 
L 47.609375 26.90625 
z
M 28.609375 72.90625 
L 39.796875 72.90625 
L 67.578125 0 
L 57.328125 0 
L 50.6875 18.703125 
L 17.828125 18.703125 
L 11.1875 0 
L 0.78125 0 
z
" id="DejaVuSans-65"/>
      </defs>
      <use xlink:href="#DejaVuSans-77"/>
      <use x="86.279297" xlink:href="#DejaVuSans-65"/>
     </g>
    </g>
    <g id="line2d_25">
     <path d="M 66.6 98.604813 
L 86.6 98.604813 
" style="fill:none;stroke:#d62728;stroke-linecap:square;stroke-width:1.5;"/>
    </g>
    <g id="line2d_26"/>
    <g id="text_19">
     <!-- BTC-USD -->
     <g transform="translate(94.6 102.104813)scale(0.1 -0.1)">
      <defs>
       <path d="M -0.296875 72.90625 
L 61.375 72.90625 
L 61.375 64.59375 
L 35.5 64.59375 
L 35.5 0 
L 25.59375 0 
L 25.59375 64.59375 
L -0.296875 64.59375 
z
" id="DejaVuSans-84"/>
       <path d="M 64.40625 67.28125 
L 64.40625 56.890625 
Q 59.421875 61.53125 53.78125 63.8125 
Q 48.140625 66.109375 41.796875 66.109375 
Q 29.296875 66.109375 22.65625 58.46875 
Q 16.015625 50.828125 16.015625 36.375 
Q 16.015625 21.96875 22.65625 14.328125 
Q 29.296875 6.6875 41.796875 6.6875 
Q 48.140625 6.6875 53.78125 8.984375 
Q 59.421875 11.28125 64.40625 15.921875 
L 64.40625 5.609375 
Q 59.234375 2.09375 53.4375 0.328125 
Q 47.65625 -1.421875 41.21875 -1.421875 
Q 24.65625 -1.421875 15.125 8.703125 
Q 5.609375 18.84375 5.609375 36.375 
Q 5.609375 53.953125 15.125 64.078125 
Q 24.65625 74.21875 41.21875 74.21875 
Q 47.75 74.21875 53.53125 72.484375 
Q 59.328125 70.75 64.40625 67.28125 
z
" id="DejaVuSans-67"/>
       <path d="M 53.515625 70.515625 
L 53.515625 60.890625 
Q 47.90625 63.578125 42.921875 64.890625 
Q 37.9375 66.21875 33.296875 66.21875 
Q 25.25 66.21875 20.875 63.09375 
Q 16.5 59.96875 16.5 54.203125 
Q 16.5 49.359375 19.40625 46.890625 
Q 22.3125 44.4375 30.421875 42.921875 
L 36.375 41.703125 
Q 47.40625 39.59375 52.65625 34.296875 
Q 57.90625 29 57.90625 20.125 
Q 57.90625 9.515625 50.796875 4.046875 
Q 43.703125 -1.421875 29.984375 -1.421875 
Q 24.8125 -1.421875 18.96875 -0.25 
Q 13.140625 0.921875 6.890625 3.21875 
L 6.890625 13.375 
Q 12.890625 10.015625 18.65625 8.296875 
Q 24.421875 6.59375 29.984375 6.59375 
Q 38.421875 6.59375 43.015625 9.90625 
Q 47.609375 13.234375 47.609375 19.390625 
Q 47.609375 24.75 44.3125 27.78125 
Q 41.015625 30.8125 33.5 32.328125 
L 27.484375 33.5 
Q 16.453125 35.6875 11.515625 40.375 
Q 6.59375 45.0625 6.59375 53.421875 
Q 6.59375 63.09375 13.40625 68.65625 
Q 20.21875 74.21875 32.171875 74.21875 
Q 37.3125 74.21875 42.625 73.28125 
Q 47.953125 72.359375 53.515625 70.515625 
z
" id="DejaVuSans-83"/>
      </defs>
      <use xlink:href="#DejaVuSans-66"/>
      <use x="68.603516" xlink:href="#DejaVuSans-84"/>
      <use x="123.8125" xlink:href="#DejaVuSans-67"/>
      <use x="193.636719" xlink:href="#DejaVuSans-45"/>
      <use x="229.720703" xlink:href="#DejaVuSans-85"/>
      <use x="302.914062" xlink:href="#DejaVuSans-83"/>
      <use x="366.390625" xlink:href="#DejaVuSans-68"/>
     </g>
    </g>
   </g>
  </g>
  <g id="text_20">
   <!-- Bollinger Band -->
   <g transform="translate(171.90625 19.0695)scale(0.16 -0.16)">
    <defs>
     <path d="M 9.421875 75.984375 
L 18.40625 75.984375 
L 18.40625 0 
L 9.421875 0 
z
" id="DejaVuSans-108"/>
     <path d="M 45.40625 27.984375 
Q 45.40625 37.75 41.375 43.109375 
Q 37.359375 48.484375 30.078125 48.484375 
Q 22.859375 48.484375 18.828125 43.109375 
Q 14.796875 37.75 14.796875 27.984375 
Q 14.796875 18.265625 18.828125 12.890625 
Q 22.859375 7.515625 30.078125 7.515625 
Q 37.359375 7.515625 41.375 12.890625 
Q 45.40625 18.265625 45.40625 27.984375 
z
M 54.390625 6.78125 
Q 54.390625 -7.171875 48.1875 -13.984375 
Q 42 -20.796875 29.203125 -20.796875 
Q 24.46875 -20.796875 20.265625 -20.09375 
Q 16.0625 -19.390625 12.109375 -17.921875 
L 12.109375 -9.1875 
Q 16.0625 -11.328125 19.921875 -12.34375 
Q 23.78125 -13.375 27.78125 -13.375 
Q 36.625 -13.375 41.015625 -8.765625 
Q 45.40625 -4.15625 45.40625 5.171875 
L 45.40625 9.625 
Q 42.625 4.78125 38.28125 2.390625 
Q 33.9375 0 27.875 0 
Q 17.828125 0 11.671875 7.65625 
Q 5.515625 15.328125 5.515625 27.984375 
Q 5.515625 40.671875 11.671875 48.328125 
Q 17.828125 56 27.875 56 
Q 33.9375 56 38.28125 53.609375 
Q 42.625 51.21875 45.40625 46.390625 
L 45.40625 54.6875 
L 54.390625 54.6875 
z
" id="DejaVuSans-103"/>
    </defs>
    <use xlink:href="#DejaVuSans-66"/>
    <use x="68.603516" xlink:href="#DejaVuSans-111"/>
    <use x="129.785156" xlink:href="#DejaVuSans-108"/>
    <use x="157.568359" xlink:href="#DejaVuSans-108"/>
    <use x="185.351562" xlink:href="#DejaVuSans-105"/>
    <use x="213.134766" xlink:href="#DejaVuSans-110"/>
    <use x="276.513672" xlink:href="#DejaVuSans-103"/>
    <use x="339.990234" xlink:href="#DejaVuSans-101"/>
    <use x="401.513672" xlink:href="#DejaVuSans-114"/>
    <use x="442.626953" xlink:href="#DejaVuSans-32"/>
    <use x="474.414062" xlink:href="#DejaVuSans-66"/>
    <use x="543.017578" xlink:href="#DejaVuSans-97"/>
    <use x="604.296875" xlink:href="#DejaVuSans-110"/>
    <use x="667.675781" xlink:href="#DejaVuSans-100"/>
   </g>
  </g>
 </g>
 <defs>
  <clipPath id="p4e87300b10">
   <rect height="266.112" width="357.12" x="57.6" y="41.472"/>
  </clipPath>
 </defs>
</svg>
