<?xml version="1.0" encoding="utf-8" standalone="no"?>
<!DOCTYPE svg PUBLIC "-//W3C//DTD SVG 1.1//EN"
  "http://www.w3.org/Graphics/SVG/1.1/DTD/svg11.dtd">
<!-- Created with matplotlib (https://matplotlib.org/) -->
<svg height="345.6pt" version="1.1" viewBox="0 0 460.8 345.6" width="460.8pt" xmlns="http://www.w3.org/2000/svg" xmlns:xlink="http://www.w3.org/1999/xlink">
 <metadata>
  <rdf:RDF xmlns:cc="http://creativecommons.org/ns#" xmlns:dc="http://purl.org/dc/elements/1.1/" xmlns:rdf="http://www.w3.org/1999/02/22-rdf-syntax-ns#">
   <cc:Work>
    <dc:type rdf:resource="http://purl.org/dc/dcmitype/StillImage"/>
    <dc:date>2021-01-01T19:00:35.397803</dc:date>
    <dc:format>image/svg+xml</dc:format>
    <dc:creator>
     <cc:Agent>
      <dc:title>Matplotlib v3.3.2, https://matplotlib.org/</dc:title>
     </cc:Agent>
    </dc:creator>
   </cc:Work>
  </rdf:RDF>
 </metadata>
 <defs>
  <style type="text/css">*{stroke-linecap:butt;stroke-linejoin:round;}</style>
 </defs>
 <g id="figure_1">
  <g id="patch_1">
   <path d="M 0 345.6 
L 460.8 345.6 
L 460.8 0 
L 0 0 
z
" style="fill:#ffffff;"/>
  </g>
  <g id="axes_1">
   <g id="patch_2">
    <path d="M 57.6 307.584 
L 414.72 307.584 
L 414.72 41.472 
L 57.6 41.472 
z
" style="fill:#ffffff;"/>
   </g>
   <g id="PolyCollection_1">
    <defs>
     <path d="M 90.686379 -77.888004 
L 90.686379 -100.117539 
L 91.573413 -100.40271 
L 92.460447 -100.02686 
L 93.347481 -99.705011 
L 94.234516 -99.221214 
L 95.12155 -98.400514 
L 96.008584 -98.191435 
L 96.895618 -98.639672 
L 97.782653 -99.900819 
L 98.669687 -100.404429 
L 99.556721 -101.564148 
L 100.443756 -101.971533 
L 101.33079 -102.443191 
L 102.217824 -102.560196 
L 103.104858 -102.979716 
L 103.991893 -103.217509 
L 104.878927 -104.097276 
L 105.765961 -105.134657 
L 106.652996 -106.163965 
L 107.54003 -107.184811 
L 108.427064 -108.527654 
L 109.314098 -109.180133 
L 110.201133 -110.33248 
L 111.088167 -111.174502 
L 111.975201 -111.557218 
L 112.862235 -111.633383 
L 113.74927 -111.155968 
L 114.636304 -110.912411 
L 115.523338 -110.899576 
L 116.410373 -111.213944 
L 117.297407 -111.192135 
L 118.184441 -111.066951 
L 119.071475 -110.950785 
L 119.95851 -110.767745 
L 120.845544 -110.578894 
L 121.732578 -109.989894 
L 122.619613 -110.314695 
L 123.506647 -111.538396 
L 124.393681 -112.293196 
L 125.280715 -112.890139 
L 126.16775 -113.172569 
L 127.054784 -113.486307 
L 127.941818 -112.839014 
L 128.828852 -111.96941 
L 129.715887 -111.094247 
L 130.602921 -109.729517 
L 131.489955 -109.06725 
L 132.37699 -108.277446 
L 133.264024 -108.412338 
L 134.151058 -107.46645 
L 135.038092 -107.2965 
L 135.925127 -106.831347 
L 136.812161 -112.604689 
L 137.699195 -113.672974 
L 138.58623 -114.041778 
L 139.473264 -113.741366 
L 140.360298 -113.664414 
L 141.247332 -113.333567 
L 142.134367 -112.56981 
L 143.021401 -111.296927 
L 143.908435 -110.04809 
L 144.795469 -108.639163 
L 145.682504 -106.517414 
L 146.569538 -104.392266 
L 147.456572 -102.129219 
L 148.343607 -99.013488 
L 149.230641 -95.280529 
L 150.117675 -91.33721 
L 151.004709 -88.978615 
L 151.891744 -86.403035 
L 152.778778 -83.732278 
L 153.665812 -80.412879 
L 154.552846 -80.517881 
L 155.439881 -81.322284 
L 156.326915 -81.552189 
L 157.213949 -81.922346 
L 158.100984 -81.349765 
L 158.988018 -82.012959 
L 159.875052 -82.016745 
L 160.762086 -83.141006 
L 161.649121 -83.914787 
L 162.536155 -84.025716 
L 163.423189 -83.622868 
L 164.310224 -83.763032 
L 165.197258 -83.82191 
L 166.084292 -83.908021 
L 166.971326 -83.890201 
L 167.858361 -84.131929 
L 168.745395 -84.104218 
L 169.632429 -83.431857 
L 170.519463 -83.351446 
L 171.406498 -82.984525 
L 172.293532 -82.887059 
L 173.180566 -83.004741 
L 174.067601 -83.646486 
L 174.954635 -84.258713 
L 175.841669 -84.815939 
L 176.728703 -85.503197 
L 177.615738 -86.415499 
L 178.502772 -87.033003 
L 179.389806 -90.449206 
L 180.276841 -92.667791 
L 181.163875 -94.964186 
L 182.050909 -97.235722 
L 182.937943 -98.959762 
L 183.824978 -100.335197 
L 184.712012 -101.523475 
L 185.599046 -103.000213 
L 186.48608 -105.849252 
L 187.373115 -107.926724 
L 188.260149 -109.158034 
L 189.147183 -108.851569 
L 190.034218 -108.173561 
L 190.921252 -107.709007 
L 191.808286 -107.899133 
L 192.69532 -108.526752 
L 193.582355 -108.201622 
L 194.469389 -107.858417 
L 195.356423 -107.64207 
L 196.243458 -106.905861 
L 197.130492 -107.467535 
L 198.017526 -107.47416 
L 198.90456 -107.392342 
L 199.791595 -107.37948 
L 200.678629 -107.333539 
L 201.565663 -107.465136 
L 202.452697 -107.513608 
L 203.339732 -107.593309 
L 204.226766 -106.643775 
L 205.1138 -106.251411 
L 206.000835 -106.073385 
L 206.887869 -106.414658 
L 207.774903 -106.145759 
L 208.661937 -107.327714 
L 209.548972 -107.446663 
L 210.436006 -107.284615 
L 211.32304 -107.665094 
L 212.210075 -107.836308 
L 213.097109 -107.854905 
L 213.984143 -107.913441 
L 214.871177 -107.919501 
L 215.758212 -108.176565 
L 216.645246 -108.560538 
L 217.53228 -108.537637 
L 218.419314 -108.539199 
L 219.306349 -107.984612 
L 220.193383 -107.574642 
L 221.080417 -106.833755 
L 221.967452 -106.641851 
L 222.854486 -106.642336 
L 223.74152 -106.654332 
L 224.628554 -106.648951 
L 225.515589 -106.676635 
L 226.402623 -105.539991 
L 227.289657 -105.638338 
L 228.176692 -105.593546 
L 229.063726 -105.360176 
L 229.95076 -105.318574 
L 230.837794 -105.252485 
L 231.724829 -105.177648 
L 232.611863 -104.812831 
L 233.498897 -104.315104 
L 234.385931 -103.402299 
L 235.272966 -103.401914 
L 236.16 -103.316023 
L 237.047034 -103.21407 
L 237.934069 -103.182378 
L 238.821103 -103.081747 
L 239.708137 -102.811342 
L 240.595171 -102.606673 
L 241.482206 -102.651464 
L 242.36924 -102.615082 
L 243.256274 -102.55275 
L 244.143308 -102.524191 
L 245.030343 -101.790022 
L 245.917377 -100.995798 
L 246.804411 -100.92338 
L 247.691446 -100.885155 
L 248.57848 -100.884669 
L 249.465514 -100.78209 
L 250.352548 -100.771846 
L 251.239583 -100.780521 
L 252.126617 -100.777087 
L 253.013651 -100.978798 
L 253.900686 -101.511419 
L 254.78772 -102.099759 
L 255.674754 -102.452975 
L 256.561788 -103.096985 
L 257.448823 -104.279154 
L 258.335857 -108.910757 
L 259.222891 -111.677921 
L 260.109925 -114.345108 
L 260.99696 -116.536047 
L 261.883994 -119.006578 
L 262.771028 -122.074481 
L 263.658063 -123.233316 
L 264.545097 -124.499234 
L 265.432131 -125.446008 
L 266.319165 -127.019201 
L 267.2062 -128.334612 
L 268.093234 -129.111554 
L 268.980268 -129.822644 
L 269.867303 -129.996257 
L 270.754337 -130.352503 
L 271.641371 -129.959047 
L 272.528405 -129.477655 
L 273.41544 -128.598849 
L 274.302474 -127.305655 
L 275.189508 -125.682913 
L 276.076542 -125.951283 
L 276.963577 -126.712077 
L 277.850611 -126.841828 
L 278.737645 -126.696067 
L 279.62468 -126.806055 
L 280.511714 -126.696949 
L 281.398748 -126.243079 
L 282.285782 -125.968105 
L 283.172817 -125.470772 
L 284.059851 -125.732205 
L 284.946885 -125.760703 
L 285.83392 -125.924973 
L 286.720954 -125.880064 
L 287.607988 -125.877629 
L 288.495022 -125.703485 
L 289.382057 -125.657177 
L 290.269091 -125.8956 
L 291.156125 -125.883234 
L 292.043159 -128.278714 
L 292.930194 -128.884152 
L 293.817228 -129.571957 
L 294.704262 -129.128377 
L 295.591297 -128.831233 
L 296.478331 -128.779619 
L 297.365365 -128.326531 
L 298.252399 -128.017643 
L 299.139434 -127.426459 
L 300.026468 -126.737199 
L 300.913502 -125.78832 
L 301.800537 -125.339426 
L 302.687571 -124.72313 
L 303.574605 -124.338547 
L 304.461639 -123.666895 
L 305.348674 -122.996024 
L 306.235708 -121.954548 
L 307.122742 -120.724479 
L 308.009776 -118.107492 
L 308.896811 -116.639057 
L 309.783845 -116.612841 
L 310.670879 -116.77593 
L 311.557914 -116.801871 
L 312.444948 -116.875825 
L 313.331982 -117.011513 
L 314.219016 -116.835301 
L 315.106051 -116.803946 
L 315.993085 -116.784906 
L 316.880119 -116.698077 
L 317.767154 -116.639864 
L 318.654188 -116.461708 
L 319.541222 -116.463115 
L 320.428256 -116.452822 
L 321.315291 -116.180514 
L 322.202325 -115.926682 
L 323.089359 -115.90089 
L 323.976393 -115.789532 
L 324.863428 -116.683887 
L 325.750462 -117.753609 
L 326.637496 -119.074874 
L 327.524531 -119.656552 
L 328.411565 -120.373838 
L 329.298599 -121.172375 
L 330.185633 -121.558796 
L 331.072668 -121.961284 
L 331.959702 -122.498556 
L 332.846736 -123.4074 
L 333.73377 -124.512128 
L 334.620805 -127.60144 
L 335.507839 -130.480935 
L 336.394873 -132.561001 
L 337.281908 -134.74703 
L 338.168942 -136.416212 
L 339.055976 -137.708684 
L 339.94301 -139.894079 
L 340.830045 -141.092869 
L 341.717079 -142.401478 
L 342.604113 -143.761237 
L 343.491148 -145.298057 
L 344.378182 -146.578859 
L 345.265216 -147.244856 
L 346.15225 -148.260145 
L 347.039285 -149.31755 
L 347.926319 -152.834835 
L 348.813353 -155.534107 
L 349.700387 -156.140961 
L 350.587422 -157.735434 
L 351.474456 -158.706517 
L 352.36149 -160.061794 
L 353.248525 -161.971467 
L 354.135559 -164.610699 
L 355.022593 -166.896739 
L 355.909627 -168.248609 
L 356.796662 -169.070484 
L 357.683696 -171.287538 
L 358.57073 -174.7863 
L 359.457765 -177.943415 
L 360.344799 -180.546163 
L 361.231833 -184.535861 
L 362.118867 -187.607667 
L 363.005902 -189.120456 
L 363.892936 -190.371824 
L 364.77997 -192.484873 
L 365.667004 -194.518578 
L 366.554039 -194.583167 
L 367.441073 -193.812988 
L 368.328107 -193.817487 
L 369.215142 -193.859612 
L 370.102176 -195.799305 
L 370.98921 -196.01036 
L 371.876244 -197.11543 
L 372.763279 -198.171744 
L 373.650313 -197.496881 
L 374.537347 -196.485945 
L 375.424382 -196.456974 
L 376.311416 -196.951674 
L 377.19845 -196.824846 
L 378.085484 -196.741368 
L 378.972519 -196.646278 
L 379.859553 -196.564757 
L 380.746587 -196.766967 
L 381.633621 -197.264627 
L 382.520656 -197.466596 
L 383.40769 -198.159859 
L 384.294724 -202.29974 
L 385.181759 -209.812052 
L 386.068793 -216.829293 
L 386.955827 -224.377557 
L 387.842861 -229.793197 
L 388.729896 -233.086467 
L 389.61693 -238.064935 
L 390.503964 -241.361214 
L 391.390999 -244.844204 
L 392.278033 -249.584002 
L 393.165067 -257.222397 
L 394.052101 -263.280637 
L 394.939136 -269.334276 
L 395.82617 -274.83516 
L 396.713204 -281.701794 
L 397.600238 -286.915004 
L 398.487273 -292.032 
L 398.487273 -178.420131 
L 398.487273 -178.420131 
L 397.600238 -173.990272 
L 396.713204 -169.299946 
L 395.82617 -166.579815 
L 394.939136 -164.131485 
L 394.052101 -162.27957 
L 393.165067 -161.920259 
L 392.278033 -163.184563 
L 391.390999 -162.933356 
L 390.503964 -161.842602 
L 389.61693 -161.642994 
L 388.729896 -162.406651 
L 387.842861 -162.089158 
L 386.955827 -164.028198 
L 386.068793 -166.483169 
L 385.181759 -168.627791 
L 384.294724 -171.061305 
L 383.40769 -171.470848 
L 382.520656 -171.530684 
L 381.633621 -171.5758 
L 380.746587 -171.374764 
L 379.859553 -171.197957 
L 378.972519 -171.666473 
L 378.085484 -171.955839 
L 377.19845 -171.193923 
L 376.311416 -170.566226 
L 375.424382 -169.675191 
L 374.537347 -167.221612 
L 373.650313 -163.322524 
L 372.763279 -160.288438 
L 371.876244 -158.53496 
L 370.98921 -156.996893 
L 370.102176 -154.450224 
L 369.215142 -152.4473 
L 368.328107 -149.9389 
L 367.441073 -147.896343 
L 366.554039 -145.030046 
L 365.667004 -143.638073 
L 364.77997 -142.80025 
L 363.892936 -140.457244 
L 363.005902 -137.741127 
L 362.118867 -134.884892 
L 361.231833 -133.528603 
L 360.344799 -133.120467 
L 359.457765 -131.879828 
L 358.57073 -131.139577 
L 357.683696 -130.689801 
L 356.796662 -130.163158 
L 355.909627 -128.373699 
L 355.022593 -126.974361 
L 354.135559 -126.375762 
L 353.248525 -125.968264 
L 352.36149 -125.412495 
L 351.474456 -124.484772 
L 350.587422 -122.332979 
L 349.700387 -120.555283 
L 348.813353 -118.162827 
L 347.926319 -117.062142 
L 347.039285 -116.765796 
L 346.15225 -115.434445 
L 345.265216 -114.134038 
L 344.378182 -112.880587 
L 343.491148 -112.143221 
L 342.604113 -111.484487 
L 341.717079 -110.784087 
L 340.830045 -109.891431 
L 339.94301 -108.952244 
L 339.055976 -108.425511 
L 338.168942 -107.500053 
L 337.281908 -107.128733 
L 336.394873 -107.111077 
L 335.507839 -107.057632 
L 334.620805 -107.764048 
L 333.73377 -108.897874 
L 332.846736 -108.975333 
L 331.959702 -109.059279 
L 331.072668 -108.847019 
L 330.185633 -108.709334 
L 329.298599 -108.552999 
L 328.411565 -108.609637 
L 327.524531 -108.70256 
L 326.637496 -108.207498 
L 325.750462 -108.64072 
L 324.863428 -108.867186 
L 323.976393 -109.426656 
L 323.089359 -109.356957 
L 322.202325 -109.344879 
L 321.315291 -109.332215 
L 320.428256 -109.361085 
L 319.541222 -109.363397 
L 318.654188 -109.358361 
L 317.767154 -108.982631 
L 316.880119 -108.8013 
L 315.993085 -108.508008 
L 315.106051 -108.1045 
L 314.219016 -107.527835 
L 313.331982 -106.86089 
L 312.444948 -106.648001 
L 311.557914 -106.311241 
L 310.670879 -105.872227 
L 309.783845 -105.807949 
L 308.896811 -105.736803 
L 308.009776 -105.056417 
L 307.122742 -103.787101 
L 306.235708 -103.230608 
L 305.348674 -102.752491 
L 304.461639 -102.569491 
L 303.574605 -102.412694 
L 302.687571 -102.371395 
L 301.800537 -102.35715 
L 300.913502 -102.504575 
L 300.026468 -102.83604 
L 299.139434 -103.236396 
L 298.252399 -103.802346 
L 297.365365 -104.580021 
L 296.478331 -105.597408 
L 295.591297 -107.036893 
L 294.704262 -108.136823 
L 293.817228 -109.498333 
L 292.930194 -111.740351 
L 292.043159 -113.58435 
L 291.156125 -117.387776 
L 290.269091 -117.694914 
L 289.382057 -117.603976 
L 288.495022 -117.319222 
L 287.607988 -117.313205 
L 286.720954 -117.49684 
L 285.83392 -117.691845 
L 284.946885 -118.116306 
L 284.059851 -118.428001 
L 283.172817 -119.052243 
L 282.285782 -118.038808 
L 281.398748 -117.396129 
L 280.511714 -116.385877 
L 279.62468 -116.506808 
L 278.737645 -116.18419 
L 277.850611 -115.407629 
L 276.963577 -114.78033 
L 276.076542 -114.326415 
L 275.189508 -113.780898 
L 274.302474 -110.42174 
L 273.41544 -107.270704 
L 272.528405 -104.367702 
L 271.641371 -102.112335 
L 270.754337 -100.024858 
L 269.867303 -98.10261 
L 268.980268 -95.991543 
L 268.093234 -94.388382 
L 267.2062 -92.946661 
L 266.319165 -91.892007 
L 265.432131 -91.123435 
L 264.545097 -90.265183 
L 263.658063 -89.719141 
L 262.771028 -89.229999 
L 261.883994 -90.027523 
L 260.99696 -90.561543 
L 260.109925 -91.116173 
L 259.222891 -92.112384 
L 258.335857 -93.516827 
L 257.448823 -96.575473 
L 256.561788 -97.214444 
L 255.674754 -97.291547 
L 254.78772 -97.282223 
L 253.900686 -97.382613 
L 253.013651 -97.522634 
L 252.126617 -97.592097 
L 251.239583 -97.570658 
L 250.352548 -97.555955 
L 249.465514 -97.496025 
L 248.57848 -97.267633 
L 247.691446 -97.28635 
L 246.804411 -97.302094 
L 245.917377 -97.288589 
L 245.030343 -96.833567 
L 244.143308 -96.431241 
L 243.256274 -96.449578 
L 242.36924 -96.452277 
L 241.482206 -96.470035 
L 240.595171 -96.483929 
L 239.708137 -96.457392 
L 238.821103 -96.370098 
L 237.934069 -96.573633 
L 237.047034 -96.720038 
L 236.16 -96.986173 
L 235.272966 -97.24229 
L 234.385931 -97.292378 
L 233.498897 -97.04576 
L 232.611863 -97.076881 
L 231.724829 -97.30265 
L 230.837794 -97.888848 
L 229.95076 -98.283934 
L 229.063726 -98.585958 
L 228.176692 -98.77422 
L 227.289657 -98.773408 
L 226.402623 -98.752829 
L 225.515589 -98.429981 
L 224.628554 -98.533103 
L 223.74152 -98.865977 
L 222.854486 -98.901503 
L 221.967452 -98.987341 
L 221.080417 -98.49126 
L 220.193383 -97.211723 
L 219.306349 -96.402393 
L 218.419314 -95.163531 
L 217.53228 -94.888753 
L 216.645246 -94.760989 
L 215.758212 -94.409141 
L 214.871177 -94.422087 
L 213.984143 -94.423994 
L 213.097109 -94.438309 
L 212.210075 -94.441126 
L 211.32304 -94.378264 
L 210.436006 -94.33435 
L 209.548972 -94.283336 
L 208.661937 -94.202463 
L 207.774903 -94.13949 
L 206.887869 -93.097577 
L 206.000835 -92.597396 
L 205.1138 -92.563524 
L 204.226766 -92.401812 
L 203.339732 -92.16503 
L 202.452697 -92.558243 
L 201.565663 -92.732688 
L 200.678629 -93.019821 
L 199.791595 -92.750277 
L 198.90456 -92.573428 
L 198.017526 -92.276272 
L 197.130492 -91.494208 
L 196.243458 -91.156435 
L 195.356423 -88.666504 
L 194.469389 -86.754008 
L 193.582355 -84.900893 
L 192.69532 -82.983679 
L 191.808286 -81.543164 
L 190.921252 -80.078307 
L 190.034218 -78.097423 
L 189.147183 -75.861068 
L 188.260149 -73.832189 
L 187.373115 -72.856302 
L 186.48608 -72.624159 
L 185.599046 -72.799345 
L 184.712012 -72.416736 
L 183.824978 -71.444111 
L 182.937943 -70.993823 
L 182.050909 -70.850735 
L 181.163875 -71.248632 
L 180.276841 -71.799358 
L 179.389806 -72.435547 
L 178.502772 -74.505932 
L 177.615738 -74.770325 
L 176.728703 -75.141561 
L 175.841669 -75.494227 
L 174.954635 -75.35696 
L 174.067601 -75.397298 
L 173.180566 -75.371183 
L 172.293532 -75.193029 
L 171.406498 -74.915013 
L 170.519463 -74.16172 
L 169.632429 -73.437513 
L 168.745395 -71.529456 
L 167.858361 -70.806597 
L 166.971326 -70.377579 
L 166.084292 -70.432632 
L 165.197258 -70.352065 
L 164.310224 -70.315049 
L 163.423189 -70.062892 
L 162.536155 -68.698298 
L 161.649121 -68.198052 
L 160.762086 -67.993659 
L 159.875052 -68.089729 
L 158.988018 -66.506557 
L 158.100984 -65.400014 
L 157.213949 -63.277872 
L 156.326915 -62.30564 
L 155.439881 -61.164859 
L 154.552846 -60.950479 
L 153.665812 -59.477298 
L 152.778778 -57.544956 
L 151.891744 -56.235687 
L 151.004709 -55.522012 
L 150.117675 -54.78307 
L 149.230641 -53.138204 
L 148.343607 -51.589171 
L 147.456572 -50.61495 
L 146.569538 -50.180405 
L 145.682504 -50.112 
L 144.795469 -50.774953 
L 143.908435 -51.478723 
L 143.021401 -52.343957 
L 142.134367 -53.301513 
L 141.247332 -55.587346 
L 140.360298 -58.347774 
L 139.473264 -62.111436 
L 138.58623 -65.678019 
L 137.699195 -70.319682 
L 136.812161 -74.981363 
L 135.925127 -85.057564 
L 135.038092 -86.09752 
L 134.151058 -87.449353 
L 133.264024 -88.513974 
L 132.37699 -90.142243 
L 131.489955 -90.263981 
L 130.602921 -90.286266 
L 129.715887 -90.079915 
L 128.828852 -90.511927 
L 127.941818 -91.059989 
L 127.054784 -91.607782 
L 126.16775 -93.107349 
L 125.280715 -94.834677 
L 124.393681 -96.503705 
L 123.506647 -98.164396 
L 122.619613 -100.244723 
L 121.732578 -100.833301 
L 120.845544 -99.798839 
L 119.95851 -99.001984 
L 119.071475 -98.511682 
L 118.184441 -98.105501 
L 117.297407 -97.707396 
L 116.410373 -97.569438 
L 115.523338 -97.074149 
L 114.636304 -96.755767 
L 113.74927 -95.574933 
L 112.862235 -93.919376 
L 111.975201 -92.187686 
L 111.088167 -90.956027 
L 110.201133 -90.054321 
L 109.314098 -89.770849 
L 108.427064 -89.400821 
L 107.54003 -89.374006 
L 106.652996 -89.313561 
L 105.765961 -89.514982 
L 104.878927 -89.771218 
L 103.991893 -89.837125 
L 103.104858 -89.726053 
L 102.217824 -89.692739 
L 101.33079 -88.7065 
L 100.443756 -88.099642 
L 99.556721 -87.322067 
L 98.669687 -87.297816 
L 97.782653 -86.473956 
L 96.895618 -86.52415 
L 96.008584 -86.310921 
L 95.12155 -85.335647 
L 94.234516 -83.62328 
L 93.347481 -82.160308 
L 92.460447 -80.882471 
L 91.573413 -78.985531 
L 90.686379 -77.888004 
z
" id="m7c9fbce24f" style="stroke:#4b0082;stroke-opacity:0.3;"/>
    </defs>
    <g clip-path="url(#p02034b5482)">
     <use style="fill:#4b0082;fill-opacity:0.3;stroke:#4b0082;stroke-opacity:0.3;" x="0" xlink:href="#m7c9fbce24f" y="345.6"/>
    </g>
   </g>
   <g id="matplotlib.axis_1">
    <g id="xtick_1">
     <g id="line2d_1">
      <defs>
       <path d="M 0 0 
L 0 3.5 
" id="m14cb4d0b92" style="stroke:#000000;stroke-width:0.8;"/>
      </defs>
      <g>
       <use style="stroke:#000000;stroke-width:0.8;" x="73.832727" xlink:href="#m14cb4d0b92" y="307.584"/>
      </g>
     </g>
     <g id="text_1">
      <!-- 2020-01 -->
      <g transform="translate(52.941321 322.182437)scale(0.1 -0.1)">
       <defs>
        <path d="M 19.1875 8.296875 
L 53.609375 8.296875 
L 53.609375 0 
L 7.328125 0 
L 7.328125 8.296875 
Q 12.9375 14.109375 22.625 23.890625 
Q 32.328125 33.6875 34.8125 36.53125 
Q 39.546875 41.84375 41.421875 45.53125 
Q 43.3125 49.21875 43.3125 52.78125 
Q 43.3125 58.59375 39.234375 62.25 
Q 35.15625 65.921875 28.609375 65.921875 
Q 23.96875 65.921875 18.8125 64.3125 
Q 13.671875 62.703125 7.8125 59.421875 
L 7.8125 69.390625 
Q 13.765625 71.78125 18.9375 73 
Q 24.125 74.21875 28.421875 74.21875 
Q 39.75 74.21875 46.484375 68.546875 
Q 53.21875 62.890625 53.21875 53.421875 
Q 53.21875 48.921875 51.53125 44.890625 
Q 49.859375 40.875 45.40625 35.40625 
Q 44.1875 33.984375 37.640625 27.21875 
Q 31.109375 20.453125 19.1875 8.296875 
z
" id="DejaVuSans-50"/>
        <path d="M 31.78125 66.40625 
Q 24.171875 66.40625 20.328125 58.90625 
Q 16.5 51.421875 16.5 36.375 
Q 16.5 21.390625 20.328125 13.890625 
Q 24.171875 6.390625 31.78125 6.390625 
Q 39.453125 6.390625 43.28125 13.890625 
Q 47.125 21.390625 47.125 36.375 
Q 47.125 51.421875 43.28125 58.90625 
Q 39.453125 66.40625 31.78125 66.40625 
z
M 31.78125 74.21875 
Q 44.046875 74.21875 50.515625 64.515625 
Q 56.984375 54.828125 56.984375 36.375 
Q 56.984375 17.96875 50.515625 8.265625 
Q 44.046875 -1.421875 31.78125 -1.421875 
Q 19.53125 -1.421875 13.0625 8.265625 
Q 6.59375 17.96875 6.59375 36.375 
Q 6.59375 54.828125 13.0625 64.515625 
Q 19.53125 74.21875 31.78125 74.21875 
z
" id="DejaVuSans-48"/>
        <path d="M 4.890625 31.390625 
L 31.203125 31.390625 
L 31.203125 23.390625 
L 4.890625 23.390625 
z
" id="DejaVuSans-45"/>
        <path d="M 12.40625 8.296875 
L 28.515625 8.296875 
L 28.515625 63.921875 
L 10.984375 60.40625 
L 10.984375 69.390625 
L 28.421875 72.90625 
L 38.28125 72.90625 
L 38.28125 8.296875 
L 54.390625 8.296875 
L 54.390625 0 
L 12.40625 0 
z
" id="DejaVuSans-49"/>
       </defs>
       <use xlink:href="#DejaVuSans-50"/>
       <use x="63.623047" xlink:href="#DejaVuSans-48"/>
       <use x="127.246094" xlink:href="#DejaVuSans-50"/>
       <use x="190.869141" xlink:href="#DejaVuSans-48"/>
       <use x="254.492188" xlink:href="#DejaVuSans-45"/>
       <use x="290.576172" xlink:href="#DejaVuSans-48"/>
       <use x="354.199219" xlink:href="#DejaVuSans-49"/>
      </g>
     </g>
    </g>
    <g id="xtick_2">
     <g id="line2d_2">
      <g>
       <use style="stroke:#000000;stroke-width:0.8;" x="127.054784" xlink:href="#m14cb4d0b92" y="307.584"/>
      </g>
     </g>
     <g id="text_2">
      <!-- 2020-03 -->
      <g transform="translate(106.163378 322.182437)scale(0.1 -0.1)">
       <defs>
        <path d="M 40.578125 39.3125 
Q 47.65625 37.796875 51.625 33 
Q 55.609375 28.21875 55.609375 21.1875 
Q 55.609375 10.40625 48.1875 4.484375 
Q 40.765625 -1.421875 27.09375 -1.421875 
Q 22.515625 -1.421875 17.65625 -0.515625 
Q 12.796875 0.390625 7.625 2.203125 
L 7.625 11.71875 
Q 11.71875 9.328125 16.59375 8.109375 
Q 21.484375 6.890625 26.8125 6.890625 
Q 36.078125 6.890625 40.9375 10.546875 
Q 45.796875 14.203125 45.796875 21.1875 
Q 45.796875 27.640625 41.28125 31.265625 
Q 36.765625 34.90625 28.71875 34.90625 
L 20.21875 34.90625 
L 20.21875 43.015625 
L 29.109375 43.015625 
Q 36.375 43.015625 40.234375 45.921875 
Q 44.09375 48.828125 44.09375 54.296875 
Q 44.09375 59.90625 40.109375 62.90625 
Q 36.140625 65.921875 28.71875 65.921875 
Q 24.65625 65.921875 20.015625 65.03125 
Q 15.375 64.15625 9.8125 62.3125 
L 9.8125 71.09375 
Q 15.4375 72.65625 20.34375 73.4375 
Q 25.25 74.21875 29.59375 74.21875 
Q 40.828125 74.21875 47.359375 69.109375 
Q 53.90625 64.015625 53.90625 55.328125 
Q 53.90625 49.265625 50.4375 45.09375 
Q 46.96875 40.921875 40.578125 39.3125 
z
" id="DejaVuSans-51"/>
       </defs>
       <use xlink:href="#DejaVuSans-50"/>
       <use x="63.623047" xlink:href="#DejaVuSans-48"/>
       <use x="127.246094" xlink:href="#DejaVuSans-50"/>
       <use x="190.869141" xlink:href="#DejaVuSans-48"/>
       <use x="254.492188" xlink:href="#DejaVuSans-45"/>
       <use x="290.576172" xlink:href="#DejaVuSans-48"/>
       <use x="354.199219" xlink:href="#DejaVuSans-51"/>
      </g>
     </g>
    </g>
    <g id="xtick_3">
     <g id="line2d_3">
      <g>
       <use style="stroke:#000000;stroke-width:0.8;" x="181.163875" xlink:href="#m14cb4d0b92" y="307.584"/>
      </g>
     </g>
     <g id="text_3">
      <!-- 2020-05 -->
      <g transform="translate(160.272469 322.182437)scale(0.1 -0.1)">
       <defs>
        <path d="M 10.796875 72.90625 
L 49.515625 72.90625 
L 49.515625 64.59375 
L 19.828125 64.59375 
L 19.828125 46.734375 
Q 21.96875 47.46875 24.109375 47.828125 
Q 26.265625 48.1875 28.421875 48.1875 
Q 40.625 48.1875 47.75 41.5 
Q 54.890625 34.8125 54.890625 23.390625 
Q 54.890625 11.625 47.5625 5.09375 
Q 40.234375 -1.421875 26.90625 -1.421875 
Q 22.3125 -1.421875 17.546875 -0.640625 
Q 12.796875 0.140625 7.71875 1.703125 
L 7.71875 11.625 
Q 12.109375 9.234375 16.796875 8.0625 
Q 21.484375 6.890625 26.703125 6.890625 
Q 35.15625 6.890625 40.078125 11.328125 
Q 45.015625 15.765625 45.015625 23.390625 
Q 45.015625 31 40.078125 35.4375 
Q 35.15625 39.890625 26.703125 39.890625 
Q 22.75 39.890625 18.8125 39.015625 
Q 14.890625 38.140625 10.796875 36.28125 
z
" id="DejaVuSans-53"/>
       </defs>
       <use xlink:href="#DejaVuSans-50"/>
       <use x="63.623047" xlink:href="#DejaVuSans-48"/>
       <use x="127.246094" xlink:href="#DejaVuSans-50"/>
       <use x="190.869141" xlink:href="#DejaVuSans-48"/>
       <use x="254.492188" xlink:href="#DejaVuSans-45"/>
       <use x="290.576172" xlink:href="#DejaVuSans-48"/>
       <use x="354.199219" xlink:href="#DejaVuSans-53"/>
      </g>
     </g>
    </g>
    <g id="xtick_4">
     <g id="line2d_4">
      <g>
       <use style="stroke:#000000;stroke-width:0.8;" x="235.272966" xlink:href="#m14cb4d0b92" y="307.584"/>
      </g>
     </g>
     <g id="text_4">
      <!-- 2020-07 -->
      <g transform="translate(214.381559 322.182437)scale(0.1 -0.1)">
       <defs>
        <path d="M 8.203125 72.90625 
L 55.078125 72.90625 
L 55.078125 68.703125 
L 28.609375 0 
L 18.3125 0 
L 43.21875 64.59375 
L 8.203125 64.59375 
z
" id="DejaVuSans-55"/>
       </defs>
       <use xlink:href="#DejaVuSans-50"/>
       <use x="63.623047" xlink:href="#DejaVuSans-48"/>
       <use x="127.246094" xlink:href="#DejaVuSans-50"/>
       <use x="190.869141" xlink:href="#DejaVuSans-48"/>
       <use x="254.492188" xlink:href="#DejaVuSans-45"/>
       <use x="290.576172" xlink:href="#DejaVuSans-48"/>
       <use x="354.199219" xlink:href="#DejaVuSans-55"/>
      </g>
     </g>
    </g>
    <g id="xtick_5">
     <g id="line2d_5">
      <g>
       <use style="stroke:#000000;stroke-width:0.8;" x="290.269091" xlink:href="#m14cb4d0b92" y="307.584"/>
      </g>
     </g>
     <g id="text_5">
      <!-- 2020-09 -->
      <g transform="translate(269.377685 322.182437)scale(0.1 -0.1)">
       <defs>
        <path d="M 10.984375 1.515625 
L 10.984375 10.5 
Q 14.703125 8.734375 18.5 7.8125 
Q 22.3125 6.890625 25.984375 6.890625 
Q 35.75 6.890625 40.890625 13.453125 
Q 46.046875 20.015625 46.78125 33.40625 
Q 43.953125 29.203125 39.59375 26.953125 
Q 35.25 24.703125 29.984375 24.703125 
Q 19.046875 24.703125 12.671875 31.3125 
Q 6.296875 37.9375 6.296875 49.421875 
Q 6.296875 60.640625 12.9375 67.421875 
Q 19.578125 74.21875 30.609375 74.21875 
Q 43.265625 74.21875 49.921875 64.515625 
Q 56.59375 54.828125 56.59375 36.375 
Q 56.59375 19.140625 48.40625 8.859375 
Q 40.234375 -1.421875 26.421875 -1.421875 
Q 22.703125 -1.421875 18.890625 -0.6875 
Q 15.09375 0.046875 10.984375 1.515625 
z
M 30.609375 32.421875 
Q 37.25 32.421875 41.125 36.953125 
Q 45.015625 41.5 45.015625 49.421875 
Q 45.015625 57.28125 41.125 61.84375 
Q 37.25 66.40625 30.609375 66.40625 
Q 23.96875 66.40625 20.09375 61.84375 
Q 16.21875 57.28125 16.21875 49.421875 
Q 16.21875 41.5 20.09375 36.953125 
Q 23.96875 32.421875 30.609375 32.421875 
z
" id="DejaVuSans-57"/>
       </defs>
       <use xlink:href="#DejaVuSans-50"/>
       <use x="63.623047" xlink:href="#DejaVuSans-48"/>
       <use x="127.246094" xlink:href="#DejaVuSans-50"/>
       <use x="190.869141" xlink:href="#DejaVuSans-48"/>
       <use x="254.492188" xlink:href="#DejaVuSans-45"/>
       <use x="290.576172" xlink:href="#DejaVuSans-48"/>
       <use x="354.199219" xlink:href="#DejaVuSans-57"/>
      </g>
     </g>
    </g>
    <g id="xtick_6">
     <g id="line2d_6">
      <g>
       <use style="stroke:#000000;stroke-width:0.8;" x="344.378182" xlink:href="#m14cb4d0b92" y="307.584"/>
      </g>
     </g>
     <g id="text_6">
      <!-- 2020-11 -->
      <g transform="translate(323.486776 322.182437)scale(0.1 -0.1)">
       <use xlink:href="#DejaVuSans-50"/>
       <use x="63.623047" xlink:href="#DejaVuSans-48"/>
       <use x="127.246094" xlink:href="#DejaVuSans-50"/>
       <use x="190.869141" xlink:href="#DejaVuSans-48"/>
       <use x="254.492188" xlink:href="#DejaVuSans-45"/>
       <use x="290.576172" xlink:href="#DejaVuSans-49"/>
       <use x="354.199219" xlink:href="#DejaVuSans-49"/>
      </g>
     </g>
    </g>
    <g id="xtick_7">
     <g id="line2d_7">
      <g>
       <use style="stroke:#000000;stroke-width:0.8;" x="398.487273" xlink:href="#m14cb4d0b92" y="307.584"/>
      </g>
     </g>
     <g id="text_7">
      <!-- 2021-01 -->
      <g transform="translate(377.595866 322.182437)scale(0.1 -0.1)">
       <use xlink:href="#DejaVuSans-50"/>
       <use x="63.623047" xlink:href="#DejaVuSans-48"/>
       <use x="127.246094" xlink:href="#DejaVuSans-50"/>
       <use x="190.869141" xlink:href="#DejaVuSans-49"/>
       <use x="254.492188" xlink:href="#DejaVuSans-45"/>
       <use x="290.576172" xlink:href="#DejaVuSans-48"/>
       <use x="354.199219" xlink:href="#DejaVuSans-49"/>
      </g>
     </g>
    </g>
   </g>
   <g id="matplotlib.axis_2">
    <g id="ytick_1">
     <g id="line2d_8">
      <defs>
       <path d="M 0 0 
L -3.5 0 
" id="m1a362af346" style="stroke:#000000;stroke-width:0.8;"/>
      </defs>
      <g>
       <use style="stroke:#000000;stroke-width:0.8;" x="57.6" xlink:href="#m1a362af346" y="284.494089"/>
      </g>
     </g>
     <g id="text_8">
      <!-- 5000 -->
      <g transform="translate(25.15 288.293307)scale(0.1 -0.1)">
       <use xlink:href="#DejaVuSans-53"/>
       <use x="63.623047" xlink:href="#DejaVuSans-48"/>
       <use x="127.246094" xlink:href="#DejaVuSans-48"/>
       <use x="190.869141" xlink:href="#DejaVuSans-48"/>
      </g>
     </g>
    </g>
    <g id="ytick_2">
     <g id="line2d_9">
      <g>
       <use style="stroke:#000000;stroke-width:0.8;" x="57.6" xlink:href="#m1a362af346" y="239.286467"/>
      </g>
     </g>
     <g id="text_9">
      <!-- 10000 -->
      <g transform="translate(18.7875 243.085686)scale(0.1 -0.1)">
       <use xlink:href="#DejaVuSans-49"/>
       <use x="63.623047" xlink:href="#DejaVuSans-48"/>
       <use x="127.246094" xlink:href="#DejaVuSans-48"/>
       <use x="190.869141" xlink:href="#DejaVuSans-48"/>
       <use x="254.492188" xlink:href="#DejaVuSans-48"/>
      </g>
     </g>
    </g>
    <g id="ytick_3">
     <g id="line2d_10">
      <g>
       <use style="stroke:#000000;stroke-width:0.8;" x="57.6" xlink:href="#m1a362af346" y="194.078845"/>
      </g>
     </g>
     <g id="text_10">
      <!-- 15000 -->
      <g transform="translate(18.7875 197.878064)scale(0.1 -0.1)">
       <use xlink:href="#DejaVuSans-49"/>
       <use x="63.623047" xlink:href="#DejaVuSans-53"/>
       <use x="127.246094" xlink:href="#DejaVuSans-48"/>
       <use x="190.869141" xlink:href="#DejaVuSans-48"/>
       <use x="254.492188" xlink:href="#DejaVuSans-48"/>
      </g>
     </g>
    </g>
    <g id="ytick_4">
     <g id="line2d_11">
      <g>
       <use style="stroke:#000000;stroke-width:0.8;" x="57.6" xlink:href="#m1a362af346" y="148.871224"/>
      </g>
     </g>
     <g id="text_11">
      <!-- 20000 -->
      <g transform="translate(18.7875 152.670442)scale(0.1 -0.1)">
       <use xlink:href="#DejaVuSans-50"/>
       <use x="63.623047" xlink:href="#DejaVuSans-48"/>
       <use x="127.246094" xlink:href="#DejaVuSans-48"/>
       <use x="190.869141" xlink:href="#DejaVuSans-48"/>
       <use x="254.492188" xlink:href="#DejaVuSans-48"/>
      </g>
     </g>
    </g>
    <g id="ytick_5">
     <g id="line2d_12">
      <g>
       <use style="stroke:#000000;stroke-width:0.8;" x="57.6" xlink:href="#m1a362af346" y="103.663602"/>
      </g>
     </g>
     <g id="text_12">
      <!-- 25000 -->
      <g transform="translate(18.7875 107.462821)scale(0.1 -0.1)">
       <use xlink:href="#DejaVuSans-50"/>
       <use x="63.623047" xlink:href="#DejaVuSans-53"/>
       <use x="127.246094" xlink:href="#DejaVuSans-48"/>
       <use x="190.869141" xlink:href="#DejaVuSans-48"/>
       <use x="254.492188" xlink:href="#DejaVuSans-48"/>
      </g>
     </g>
    </g>
    <g id="ytick_6">
     <g id="line2d_13">
      <g>
       <use style="stroke:#000000;stroke-width:0.8;" x="57.6" xlink:href="#m1a362af346" y="58.45598"/>
      </g>
     </g>
     <g id="text_13">
      <!-- 30000 -->
      <g transform="translate(18.7875 62.255199)scale(0.1 -0.1)">
       <use xlink:href="#DejaVuSans-51"/>
       <use x="63.623047" xlink:href="#DejaVuSans-48"/>
       <use x="127.246094" xlink:href="#DejaVuSans-48"/>
       <use x="190.869141" xlink:href="#DejaVuSans-48"/>
       <use x="254.492188" xlink:href="#DejaVuSans-48"/>
      </g>
     </g>
    </g>
   </g>
   <g id="line2d_14">
    <path clip-path="url(#p02034b5482)" d="M 90.686379 245.482461 
L 91.573413 245.19729 
L 94.234516 246.378786 
L 95.12155 247.199486 
L 96.008584 247.408565 
L 96.895618 246.960328 
L 97.782653 245.699181 
L 98.669687 245.195571 
L 99.556721 244.035852 
L 101.33079 243.156809 
L 102.217824 243.039804 
L 103.104858 242.620284 
L 103.991893 242.382491 
L 104.878927 241.502724 
L 107.54003 238.415189 
L 108.427064 237.072346 
L 109.314098 236.419867 
L 110.201133 235.26752 
L 111.088167 234.425498 
L 111.975201 234.042782 
L 112.862235 233.966617 
L 113.74927 234.444032 
L 114.636304 234.687589 
L 115.523338 234.700424 
L 116.410373 234.386056 
L 118.184441 234.533049 
L 119.95851 234.832255 
L 120.845544 235.021106 
L 121.732578 235.610106 
L 122.619613 235.285305 
L 123.506647 234.061604 
L 124.393681 233.306804 
L 125.280715 232.709861 
L 127.054784 232.113693 
L 127.941818 232.760986 
L 129.715887 234.505753 
L 130.602921 235.870483 
L 132.37699 237.322554 
L 133.264024 237.187662 
L 134.151058 238.13355 
L 135.038092 238.3035 
L 135.925127 238.768653 
L 136.812161 232.995311 
L 137.699195 231.927026 
L 138.58623 231.558222 
L 139.473264 231.858634 
L 140.360298 231.935586 
L 141.247332 232.266433 
L 142.134367 233.03019 
L 144.795469 236.960837 
L 147.456572 243.470781 
L 148.343607 246.586512 
L 150.117675 254.26279 
L 151.891744 259.196965 
L 152.778778 261.867722 
L 153.665812 265.187121 
L 154.552846 265.082119 
L 155.439881 264.277716 
L 156.326915 264.047811 
L 157.213949 263.677654 
L 158.100984 264.250235 
L 158.988018 263.587041 
L 159.875052 263.583255 
L 160.762086 262.458994 
L 161.649121 261.685213 
L 162.536155 261.574284 
L 163.423189 261.977132 
L 165.197258 261.77809 
L 168.745395 261.495782 
L 169.632429 262.168143 
L 170.519463 262.248554 
L 171.406498 262.615475 
L 172.293532 262.712941 
L 173.180566 262.595259 
L 176.728703 260.096803 
L 177.615738 259.184501 
L 178.502772 258.566997 
L 179.389806 255.150794 
L 182.050909 248.364278 
L 182.937943 246.640238 
L 185.599046 242.599787 
L 186.48608 239.750748 
L 187.373115 237.673276 
L 188.260149 236.441966 
L 189.147183 236.748431 
L 190.034218 237.426439 
L 190.921252 237.890993 
L 191.808286 237.700867 
L 192.69532 237.073248 
L 195.356423 237.95793 
L 196.243458 238.694139 
L 197.130492 238.132465 
L 199.791595 238.22052 
L 200.678629 238.266461 
L 202.452697 238.086392 
L 203.339732 238.006691 
L 204.226766 238.956225 
L 205.1138 239.348589 
L 206.000835 239.526615 
L 206.887869 239.185342 
L 207.774903 239.454241 
L 208.661937 238.272286 
L 209.548972 238.153337 
L 210.436006 238.315385 
L 211.32304 237.934906 
L 212.210075 237.763692 
L 214.871177 237.680499 
L 215.758212 237.423435 
L 216.645246 237.039462 
L 218.419314 237.060801 
L 219.306349 237.615388 
L 220.193383 238.025358 
L 221.080417 238.766245 
L 221.967452 238.958149 
L 225.515589 238.923365 
L 226.402623 240.060009 
L 227.289657 239.961662 
L 228.176692 240.006454 
L 229.063726 240.239824 
L 231.724829 240.422352 
L 232.611863 240.787169 
L 233.498897 241.284896 
L 234.385931 242.197701 
L 236.16 242.283977 
L 239.708137 242.788658 
L 240.595171 242.993327 
L 242.36924 242.984918 
L 244.143308 243.075809 
L 245.917377 244.604202 
L 249.465514 244.81791 
L 252.126617 244.822913 
L 253.013651 244.621202 
L 256.561788 242.503015 
L 257.448823 241.320846 
L 258.335857 236.689243 
L 260.109925 231.254892 
L 261.883994 226.593422 
L 262.771028 223.525519 
L 265.432131 220.153992 
L 266.319165 218.580799 
L 267.2062 217.265388 
L 268.980268 215.777356 
L 269.867303 215.603743 
L 270.754337 215.247497 
L 272.528405 216.122345 
L 273.41544 217.001151 
L 274.302474 218.294345 
L 275.189508 219.917087 
L 276.076542 219.648717 
L 276.963577 218.887923 
L 277.850611 218.758172 
L 278.737645 218.903933 
L 279.62468 218.793945 
L 280.511714 218.903051 
L 281.398748 219.356921 
L 282.285782 219.631895 
L 283.172817 220.129228 
L 284.059851 219.867795 
L 284.946885 219.839297 
L 285.83392 219.675027 
L 289.382057 219.942823 
L 290.269091 219.7044 
L 291.156125 219.716766 
L 292.043159 217.321286 
L 293.817228 216.028043 
L 294.704262 216.471623 
L 295.591297 216.768767 
L 296.478331 216.820381 
L 297.365365 217.273469 
L 298.252399 217.582357 
L 300.026468 218.862801 
L 300.913502 219.81168 
L 301.800537 220.260574 
L 302.687571 220.87687 
L 303.574605 221.261453 
L 305.348674 222.603976 
L 306.235708 223.645452 
L 307.122742 224.875521 
L 308.009776 227.492508 
L 308.896811 228.960943 
L 309.783845 228.987159 
L 310.670879 228.82407 
L 312.444948 228.724175 
L 313.331982 228.588487 
L 314.219016 228.764699 
L 317.767154 228.960136 
L 318.654188 229.138292 
L 320.428256 229.147178 
L 322.202325 229.673318 
L 323.976393 229.810468 
L 324.863428 228.916113 
L 325.750462 227.846391 
L 326.637496 226.525126 
L 327.524531 225.943448 
L 329.298599 224.427625 
L 331.072668 223.638716 
L 331.959702 223.101444 
L 332.846736 222.1926 
L 333.73377 221.087872 
L 335.507839 215.119065 
L 337.281908 210.85297 
L 338.168942 209.183788 
L 339.055976 207.891316 
L 339.94301 205.705921 
L 341.717079 203.198522 
L 344.378182 199.021141 
L 345.265216 198.355144 
L 347.039285 196.28245 
L 347.926319 192.765165 
L 348.813353 190.065893 
L 349.700387 189.459039 
L 350.587422 187.864566 
L 351.474456 186.893483 
L 352.36149 185.538206 
L 353.248525 183.628533 
L 354.135559 180.989301 
L 355.022593 178.703261 
L 355.909627 177.351391 
L 356.796662 176.529516 
L 357.683696 174.312462 
L 359.457765 167.656585 
L 360.344799 165.053837 
L 361.231833 161.064139 
L 362.118867 157.992333 
L 363.005902 156.479544 
L 363.892936 155.228176 
L 365.667004 151.081422 
L 366.554039 151.016833 
L 367.441073 151.787012 
L 369.215142 151.740388 
L 370.102176 149.800695 
L 370.98921 149.58964 
L 372.763279 147.428256 
L 373.650313 148.103119 
L 374.537347 149.114055 
L 375.424382 149.143026 
L 376.311416 148.648326 
L 378.972519 148.953722 
L 379.859553 149.035243 
L 380.746587 148.833033 
L 381.633621 148.335373 
L 382.520656 148.133404 
L 383.40769 147.440141 
L 384.294724 143.30026 
L 386.955827 121.222443 
L 387.842861 115.806803 
L 388.729896 112.513533 
L 389.61693 107.535065 
L 391.390999 100.755796 
L 392.278033 96.015998 
L 393.165067 88.377603 
L 397.600238 58.684996 
L 398.487273 53.568 
L 398.487273 53.568 
" style="fill:none;stroke:#1f77b4;stroke-linecap:square;stroke-width:1.5;"/>
   </g>
   <g id="line2d_15">
    <path clip-path="url(#p02034b5482)" d="M 90.686379 267.711996 
L 91.573413 266.614469 
L 92.460447 264.717529 
L 94.234516 261.97672 
L 95.12155 260.264353 
L 96.008584 259.289079 
L 96.895618 259.07585 
L 97.782653 259.126044 
L 98.669687 258.302184 
L 99.556721 258.277933 
L 100.443756 257.500358 
L 101.33079 256.8935 
L 102.217824 255.907261 
L 104.878927 255.828782 
L 106.652996 256.286439 
L 108.427064 256.199179 
L 110.201133 255.545679 
L 111.088167 254.643973 
L 111.975201 253.412314 
L 113.74927 250.025067 
L 114.636304 248.844233 
L 115.523338 248.525851 
L 116.410373 248.030562 
L 117.297407 247.892604 
L 119.95851 246.598016 
L 120.845544 245.801161 
L 121.732578 244.766699 
L 122.619613 245.355277 
L 123.506647 247.435604 
L 127.054784 253.992218 
L 129.715887 255.520085 
L 130.602921 255.313734 
L 132.37699 255.457757 
L 133.264024 257.086026 
L 134.151058 258.150647 
L 135.038092 259.50248 
L 135.925127 260.542436 
L 136.812161 270.618637 
L 138.58623 279.921981 
L 140.360298 287.252226 
L 141.247332 290.012654 
L 142.134367 292.298487 
L 143.908435 294.121277 
L 145.682504 295.488 
L 146.569538 295.419595 
L 147.456572 294.98505 
L 148.343607 294.010829 
L 150.117675 290.81693 
L 151.891744 289.364313 
L 152.778778 288.055044 
L 153.665812 286.122702 
L 154.552846 284.649521 
L 155.439881 284.435141 
L 157.213949 282.322128 
L 158.100984 280.199986 
L 158.988018 279.093443 
L 159.875052 277.510271 
L 160.762086 277.606341 
L 161.649121 277.401948 
L 162.536155 276.901702 
L 163.423189 275.537108 
L 164.310224 275.284951 
L 166.971326 275.222421 
L 167.858361 274.793403 
L 168.745395 274.070544 
L 169.632429 272.162487 
L 171.406498 270.684987 
L 173.180566 270.228817 
L 175.841669 270.105773 
L 178.502772 271.094068 
L 179.389806 273.164453 
L 181.163875 274.351368 
L 182.050909 274.749265 
L 182.937943 274.606177 
L 183.824978 274.155889 
L 184.712012 273.183264 
L 185.599046 272.800655 
L 186.48608 272.975841 
L 187.373115 272.743698 
L 188.260149 271.767811 
L 190.921252 265.521693 
L 192.69532 262.616321 
L 195.356423 256.933496 
L 196.243458 254.443565 
L 197.130492 254.105792 
L 198.017526 253.323728 
L 198.90456 253.026572 
L 200.678629 252.580179 
L 203.339732 253.43497 
L 205.1138 253.036476 
L 206.000835 253.002604 
L 206.887869 252.502423 
L 207.774903 251.46051 
L 213.097109 251.161691 
L 215.758212 251.190859 
L 216.645246 250.839011 
L 217.53228 250.711247 
L 218.419314 250.436469 
L 219.306349 249.197607 
L 220.193383 248.388277 
L 221.080417 247.10874 
L 221.967452 246.612659 
L 223.74152 246.734023 
L 224.628554 247.066897 
L 225.515589 247.170019 
L 226.402623 246.847171 
L 228.176692 246.82578 
L 229.063726 247.014042 
L 230.837794 247.711152 
L 231.724829 248.29735 
L 232.611863 248.523119 
L 233.498897 248.55424 
L 234.385931 248.307622 
L 235.272966 248.35771 
L 237.934069 249.026367 
L 238.821103 249.229902 
L 240.595171 249.116071 
L 244.143308 249.168759 
L 245.917377 248.311411 
L 248.57848 248.332367 
L 249.465514 248.103975 
L 252.126617 248.007903 
L 256.561788 248.385556 
L 257.448823 249.024527 
L 258.335857 252.083173 
L 259.222891 253.487616 
L 260.109925 254.483827 
L 261.883994 255.572477 
L 262.771028 256.370001 
L 264.545097 255.334817 
L 267.2062 252.653339 
L 268.980268 249.608457 
L 272.528405 241.232298 
L 274.302474 235.17826 
L 275.189508 231.819102 
L 277.850611 230.192371 
L 278.737645 229.41581 
L 279.62468 229.093192 
L 280.511714 229.214123 
L 281.398748 228.203871 
L 282.285782 227.561192 
L 283.172817 226.547757 
L 284.059851 227.171999 
L 286.720954 228.10316 
L 287.607988 228.286795 
L 288.495022 228.280778 
L 289.382057 227.996024 
L 290.269091 227.905086 
L 291.156125 228.212224 
L 292.043159 232.01565 
L 292.930194 233.859649 
L 293.817228 236.101667 
L 294.704262 237.463177 
L 295.591297 238.563107 
L 296.478331 240.002592 
L 297.365365 241.019979 
L 298.252399 241.797654 
L 299.139434 242.363604 
L 300.913502 243.095425 
L 301.800537 243.24285 
L 303.574605 243.187306 
L 305.348674 242.847509 
L 307.122742 241.812899 
L 308.009776 240.543583 
L 308.896811 239.863197 
L 310.670879 239.727773 
L 312.444948 238.951999 
L 313.331982 238.73911 
L 315.106051 237.4955 
L 316.880119 236.7987 
L 317.767154 236.617369 
L 318.654188 236.241639 
L 323.976393 236.173344 
L 324.863428 236.732814 
L 325.750462 236.95928 
L 326.637496 237.392502 
L 327.524531 236.89744 
L 329.298599 237.047001 
L 331.959702 236.540721 
L 333.73377 236.702126 
L 334.620805 237.835952 
L 335.507839 238.542368 
L 337.281908 238.471267 
L 338.168942 238.099947 
L 339.055976 237.174489 
L 339.94301 236.647756 
L 341.717079 234.815913 
L 344.378182 232.719413 
L 347.039285 228.834204 
L 347.926319 228.537858 
L 348.813353 227.437173 
L 349.700387 225.044717 
L 350.587422 223.267021 
L 351.474456 221.115228 
L 352.36149 220.187505 
L 353.248525 219.631736 
L 354.135559 219.224238 
L 355.022593 218.625639 
L 355.909627 217.226301 
L 356.796662 215.436842 
L 358.57073 214.460423 
L 359.457765 213.720172 
L 360.344799 212.479533 
L 361.231833 212.071397 
L 362.118867 210.715108 
L 363.892936 205.142756 
L 364.77997 202.79975 
L 365.667004 201.961927 
L 366.554039 200.569954 
L 367.441073 197.703657 
L 368.328107 195.6611 
L 369.215142 193.1527 
L 370.102176 191.149776 
L 370.98921 188.603107 
L 372.763279 185.311562 
L 373.650313 182.277476 
L 374.537347 178.378388 
L 375.424382 175.924809 
L 376.311416 175.033774 
L 378.085484 173.644161 
L 378.972519 173.933527 
L 379.859553 174.402043 
L 381.633621 174.0242 
L 383.40769 174.129152 
L 384.294724 174.538695 
L 386.955827 181.571802 
L 387.842861 183.510842 
L 388.729896 183.193349 
L 389.61693 183.957006 
L 390.503964 183.757398 
L 391.390999 182.666644 
L 392.278033 182.415437 
L 393.165067 183.679741 
L 394.052101 183.32043 
L 394.939136 181.468515 
L 396.713204 176.300054 
L 398.487273 167.179869 
L 398.487273 167.179869 
" style="fill:none;stroke:#ff7f0e;stroke-linecap:square;stroke-width:1.5;"/>
   </g>
   <g id="line2d_16">
    <path clip-path="url(#p02034b5482)" d="M 90.686379 256.597229 
L 92.460447 255.145334 
L 96.008584 253.348822 
L 96.895618 253.018089 
L 102.217824 249.473533 
L 103.991893 249.072683 
L 106.652996 247.861237 
L 107.54003 247.320591 
L 108.427064 246.635762 
L 109.314098 246.124509 
L 110.201133 245.4066 
L 112.862235 242.82362 
L 114.636304 241.765911 
L 115.523338 241.613137 
L 116.410373 241.208309 
L 118.184441 241.013774 
L 119.95851 240.715135 
L 121.732578 240.188403 
L 122.619613 240.320291 
L 124.393681 241.201549 
L 125.280715 241.737592 
L 127.054784 243.052955 
L 128.828852 244.359331 
L 130.602921 245.592108 
L 132.37699 246.390156 
L 133.264024 247.136844 
L 134.151058 248.142098 
L 135.925127 249.655544 
L 136.812161 251.806974 
L 137.699195 253.603672 
L 139.473264 257.673599 
L 140.360298 259.593906 
L 142.134367 262.664338 
L 148.343607 270.298671 
L 150.117675 272.53986 
L 153.665812 275.654911 
L 154.552846 274.86582 
L 155.439881 274.356429 
L 158.100984 272.22511 
L 159.875052 270.546763 
L 161.649121 269.54358 
L 162.536155 269.237993 
L 163.423189 268.75712 
L 164.310224 268.560959 
L 166.971326 268.46611 
L 168.745395 267.783163 
L 169.632429 267.165315 
L 170.519463 266.843417 
L 172.293532 266.559956 
L 173.180566 266.412038 
L 175.841669 265.444917 
L 178.502772 264.830532 
L 180.276841 263.366425 
L 182.937943 260.623208 
L 183.824978 259.710346 
L 186.48608 256.363295 
L 188.260149 254.104889 
L 190.034218 252.464508 
L 191.808286 250.878851 
L 192.69532 249.844784 
L 196.243458 246.568852 
L 198.017526 245.724784 
L 200.678629 245.42332 
L 203.339732 245.72083 
L 204.226766 246.077207 
L 206.000835 246.26461 
L 207.774903 245.457376 
L 208.661937 244.834912 
L 209.548972 244.735001 
L 210.436006 244.790518 
L 212.210075 244.461283 
L 214.871177 244.429206 
L 215.758212 244.307147 
L 216.645246 243.939236 
L 218.419314 243.748635 
L 219.306349 243.406497 
L 221.967452 242.785404 
L 225.515589 243.046692 
L 226.402623 243.45359 
L 228.176692 243.416117 
L 231.724829 244.359851 
L 234.385931 245.252662 
L 235.272966 245.277898 
L 238.821103 245.874077 
L 241.482206 246.03925 
L 244.143308 246.122284 
L 245.917377 246.457807 
L 248.57848 246.523849 
L 251.239583 246.42441 
L 253.013651 246.349284 
L 255.674754 245.727739 
L 257.448823 245.172686 
L 260.99696 242.051205 
L 261.883994 241.08295 
L 262.771028 239.94776 
L 264.545097 238.217792 
L 265.432131 237.315278 
L 270.754337 230.41132 
L 272.528405 228.677321 
L 274.302474 226.736302 
L 275.189508 225.868094 
L 276.076542 225.461151 
L 276.963577 224.853797 
L 278.737645 224.159872 
L 279.62468 223.943568 
L 280.511714 224.058587 
L 283.172817 223.338492 
L 285.83392 223.791591 
L 288.495022 224.088646 
L 290.269091 223.804743 
L 291.156125 223.964495 
L 293.817228 226.064855 
L 294.704262 226.9674 
L 298.252399 229.690006 
L 300.913502 231.453552 
L 302.687571 232.052738 
L 304.461639 232.481807 
L 306.235708 233.007422 
L 307.122742 233.34421 
L 308.009776 234.018045 
L 308.896811 234.41207 
L 310.670879 234.275921 
L 315.993085 232.953543 
L 318.654188 232.689965 
L 320.428256 232.693046 
L 322.202325 232.96422 
L 323.976393 232.991906 
L 324.863428 232.824464 
L 326.637496 231.958814 
L 327.524531 231.420444 
L 331.959702 229.821082 
L 333.73377 228.894999 
L 335.507839 226.830717 
L 339.055976 222.532902 
L 339.94301 221.176839 
L 347.039285 212.558327 
L 348.813353 208.751533 
L 350.587422 205.565794 
L 351.474456 204.004355 
L 353.248525 201.630135 
L 355.022593 198.66445 
L 357.683696 194.611331 
L 361.231833 186.567768 
L 364.77997 177.957439 
L 365.667004 176.521675 
L 366.554039 175.793393 
L 368.328107 173.721807 
L 369.215142 172.446544 
L 370.102176 170.475236 
L 372.763279 166.369909 
L 373.650313 165.190298 
L 374.537347 163.746221 
L 375.424382 162.533918 
L 376.311416 161.84105 
L 378.085484 161.251396 
L 379.859553 161.718643 
L 380.746587 161.529135 
L 381.633621 161.179787 
L 382.520656 161.10136 
L 383.40769 160.784647 
L 384.294724 158.919477 
L 386.955827 151.397122 
L 388.729896 147.853441 
L 389.61693 145.746035 
L 390.503964 143.998092 
L 392.278033 139.215718 
L 394.052101 132.819897 
L 395.82617 124.892513 
L 398.487273 110.373935 
L 398.487273 110.373935 
" style="fill:none;stroke:#2ca02c;stroke-linecap:square;stroke-width:1.5;"/>
   </g>
   <g id="line2d_17">
    <path clip-path="url(#p02034b5482)" d="M 73.832727 264.687605 
L 74.719762 266.729566 
L 75.606796 263.331488 
L 76.49383 263.230838 
L 77.380864 263.247832 
L 79.154933 255.984594 
L 80.041967 257.127809 
L 80.929001 259.098165 
L 81.816036 255.815426 
L 82.70307 257.306942 
L 83.590104 255.89286 
L 84.477139 256.510128 
L 85.364173 250.301757 
L 86.251207 250.329801 
L 87.138241 251.027006 
L 88.025276 249.431688 
L 88.91231 249.341624 
L 89.799344 251.169452 
L 90.686379 251.719172 
L 91.573413 250.860623 
L 92.460447 251.518664 
L 93.347481 253.771612 
L 94.234516 253.439082 
L 95.12155 254.331167 
L 96.895618 249.36993 
L 97.782653 245.018283 
L 98.669687 245.823464 
L 99.556721 243.975727 
L 100.443756 245.457344 
L 101.33079 245.107697 
L 103.104858 245.773407 
L 103.991893 246.841153 
L 104.878927 242.888409 
L 105.765961 241.620235 
L 106.652996 241.062761 
L 107.54003 240.356538 
L 108.427064 238.022589 
L 109.314098 240.635555 
L 110.201133 237.160478 
L 111.088167 236.334325 
L 111.975201 237.295334 
L 112.862235 236.252616 
L 113.74927 240.217453 
L 114.636304 239.997158 
L 115.523338 241.962814 
L 116.410373 237.726895 
L 117.297407 242.814231 
L 118.184441 242.728145 
L 119.071475 242.207547 
L 119.95851 242.405068 
L 120.845544 239.693367 
L 121.732578 242.386533 
L 122.619613 245.526174 
L 123.506647 250.186501 
L 124.393681 250.121668 
L 125.280715 251.077389 
L 126.16775 252.471569 
L 127.054784 252.493843 
L 127.941818 249.111337 
L 128.828852 250.510984 
L 129.715887 250.367087 
L 130.602921 247.836401 
L 131.489955 247.062984 
L 132.37699 249.112572 
L 133.264024 256.896587 
L 134.151058 257.831972 
L 135.038092 258.032066 
L 135.925127 257.779237 
L 136.812161 285.236134 
L 137.699195 278.339035 
L 138.58623 282.421953 
L 139.473264 281.056486 
L 140.360298 283.932314 
L 141.247332 281.099254 
L 142.134367 280.617562 
L 143.021401 273.381784 
L 143.908435 273.612278 
L 144.795469 273.62081 
L 145.682504 276.958361 
L 146.569538 271.078413 
L 147.456572 268.652101 
L 148.343607 269.251513 
L 149.230641 268.902233 
L 150.117675 272.097104 
L 151.004709 273.093116 
L 151.891744 276.45103 
L 152.778778 271.64694 
L 153.665812 271.649807 
L 154.552846 269.454314 
L 155.439881 268.151201 
L 156.326915 268.715095 
L 157.213949 267.632586 
L 158.100984 268.436707 
L 158.988018 263.401885 
L 159.875052 264.747983 
L 160.762086 263.099877 
L 161.649121 263.830533 
L 162.536155 267.509055 
L 164.310224 267.155204 
L 165.197258 267.693159 
L 166.084292 267.584732 
L 166.971326 269.630972 
L 167.858361 265.389636 
L 168.745395 266.141633 
L 169.632429 264.094076 
L 170.519463 265.20898 
L 171.406498 267.786086 
L 172.293532 267.64881 
L 173.180566 265.192855 
L 174.067601 262.036479 
L 174.954635 261.913699 
L 175.841669 261.49178 
L 176.728703 260.055958 
L 177.615738 259.337328 
L 178.502772 259.568764 
L 179.389806 250.372356 
L 180.276841 251.685095 
L 181.163875 249.884222 
L 182.050909 248.418808 
L 182.937943 249.021883 
L 183.824978 249.327501 
L 185.599046 246.796172 
L 186.48608 239.403105 
L 187.373115 240.997929 
L 188.260149 243.137006 
L 189.147183 250.561948 
L 190.034218 252.06533 
L 190.921252 250.02956 
L 192.69532 241.232359 
L 193.582355 245.570947 
L 194.469389 244.956853 
L 195.356423 242.375834 
L 196.243458 242.031548 
L 197.130492 241.377876 
L 198.017526 243.798214 
L 198.90456 247.730836 
L 199.791595 246.778937 
L 200.678629 246.785863 
L 201.565663 250.882856 
L 202.452697 249.281675 
L 203.339732 249.931283 
L 205.1138 243.304448 
L 206.000835 244.578543 
L 206.887869 242.147406 
L 207.774903 244.335199 
L 208.661937 237.58028 
L 209.548972 243.488424 
L 211.32304 241.327019 
L 212.210075 242.616081 
L 213.097109 242.218037 
L 213.984143 241.589344 
L 214.871177 241.336343 
L 215.758212 241.357031 
L 216.645246 240.372628 
L 217.53228 245.730311 
L 218.419314 244.022456 
L 219.306349 244.04011 
L 220.193383 245.288081 
L 221.080417 244.544779 
L 221.967452 243.488864 
L 224.628554 245.52995 
L 225.515589 245.089586 
L 226.402623 245.718243 
L 227.289657 242.299163 
L 228.176692 242.782496 
L 229.063726 245.543334 
L 229.95076 246.052347 
L 230.837794 246.829788 
L 231.724829 248.199696 
L 232.611863 247.242192 
L 233.498897 246.645522 
L 234.385931 247.034495 
L 235.272966 246.235039 
L 236.16 247.442536 
L 237.047034 247.720982 
L 237.934069 247.069054 
L 238.821103 247.586441 
L 239.708137 245.319973 
L 240.595171 245.939299 
L 241.482206 244.504871 
L 242.36924 246.071352 
L 243.256274 245.7399 
L 244.143308 246.187205 
L 245.030343 245.61759 
L 245.917377 246.174521 
L 246.804411 246.132453 
L 248.57848 247.021818 
L 249.465514 246.941565 
L 250.352548 246.745329 
L 251.239583 246.411738 
L 252.126617 246.854452 
L 253.013651 244.912555 
L 253.900686 243.516535 
L 254.78772 242.841488 
L 255.674754 243.443647 
L 256.561788 241.917375 
L 257.448823 239.887992 
L 258.335857 230.209734 
L 259.222891 230.877664 
L 260.109925 229.361581 
L 260.99696 229.376819 
L 261.883994 226.822093 
L 262.771028 222.913794 
L 263.658063 229.694757 
L 264.545097 228.012859 
L 265.432131 228.541772 
L 266.319165 223.604169 
L 267.2062 223.240913 
L 268.093234 224.558702 
L 268.980268 223.269229 
L 269.867303 224.007655 
L 270.754337 222.127618 
L 271.641371 226.576321 
L 272.528405 225.101734 
L 273.41544 223.201697 
L 274.302474 223.338948 
L 275.189508 222.523832 
L 276.076542 222.07087 
L 276.963577 218.730575 
L 277.850611 221.791076 
L 278.737645 223.068823 
L 279.62468 222.49602 
L 280.511714 225.214168 
L 281.398748 224.130945 
L 282.285782 224.335806 
L 283.172817 223.380744 
L 284.059851 227.232266 
L 284.946885 226.072888 
L 285.83392 227.160599 
L 286.720954 225.66838 
L 287.607988 225.868349 
L 288.495022 223.808884 
L 289.382057 224.191865 
L 290.269091 221.808129 
L 291.156125 226.396734 
L 292.043159 237.41841 
L 292.930194 234.909441 
L 293.817228 237.612998 
L 294.704262 236.781484 
L 295.591297 235.761807 
L 296.478331 237.979811 
L 297.365365 237.200765 
L 298.252399 236.079809 
L 300.026468 235.231962 
L 300.913502 236.184183 
L 301.800537 233.195464 
L 302.687571 232.093398 
L 303.574605 230.593438 
L 304.461639 230.816928 
L 305.348674 230.747059 
L 306.235708 229.442482 
L 307.122742 230.927624 
L 308.009776 235.284831 
L 308.896811 234.27723 
L 309.783845 236.969107 
L 310.670879 232.635763 
L 311.557914 232.963457 
L 313.331982 232.276039 
L 314.219016 233.072478 
L 315.106051 231.747671 
L 315.993085 232.235124 
L 316.880119 233.637648 
L 317.767154 234.00079 
L 318.654188 234.208433 
L 320.428256 232.219451 
L 321.315291 233.605218 
L 322.202325 233.228611 
L 323.089359 230.8842 
L 323.976393 229.859064 
L 324.863428 227.578786 
L 325.750462 226.85226 
L 326.637496 225.396808 
L 327.524531 226.201703 
L 328.411565 226.392139 
L 329.298599 225.544465 
L 330.185633 227.246788 
L 331.072668 226.874302 
L 331.959702 225.577152 
L 332.846736 223.498691 
L 333.73377 221.962435 
L 334.620805 214.082789 
L 335.507839 212.270007 
L 336.394873 212.873317 
L 337.281908 211.094179 
L 338.168942 211.814431 
L 339.055976 211.425921 
L 339.94301 206.107336 
L 340.830045 209.504432 
L 341.717079 207.846408 
L 342.604113 206.977196 
L 343.491148 204.896717 
L 344.378182 205.215133 
L 345.265216 207.007223 
L 346.15225 203.235176 
L 347.039285 201.656908 
L 347.926319 189.110479 
L 348.813353 188.874731 
L 349.700387 195.584049 
L 350.587422 189.777006 
L 351.474456 190.733666 
L 352.36149 191.252785 
L 353.248525 187.615598 
L 354.135559 182.406015 
L 355.022593 182.247788 
L 355.909627 184.302356 
L 356.796662 185.31258 
L 357.683696 178.670369 
L 358.57073 170.01904 
L 359.457765 168.872753 
L 360.344799 168.54333 
L 361.231833 160.918375 
L 362.118867 160.934184 
L 363.005902 163.316978 
L 363.892936 163.560336 
L 364.77997 157.096356 
L 365.667004 160.395202 
L 366.554039 174.309101 
L 367.441073 174.622872 
L 368.328107 169.306446 
L 369.215142 165.228422 
L 370.102176 151.826613 
L 370.98921 160.03836 
L 371.876244 155.97464 
L 372.763279 154.149869 
L 373.650313 160.710127 
L 374.537347 156.431051 
L 375.424382 154.424299 
L 376.311416 156.161688 
L 377.19845 163.864062 
L 378.085484 161.758946 
L 378.972519 164.762933 
L 379.859553 166.434557 
L 380.746587 159.52681 
L 381.633621 156.573384 
L 382.520656 155.527815 
L 383.40769 154.060935 
L 384.294724 137.005715 
L 385.181759 123.834894 
L 386.068793 120.580255 
L 386.955827 114.295493 
L 387.842861 117.060614 
L 388.729896 123.93073 
L 389.61693 113.82653 
L 390.503964 119.190994 
L 391.390999 114.972699 
L 392.278033 106.520994 
L 393.165067 90.683391 
L 394.052101 91.986182 
L 394.939136 84.808512 
L 395.82617 82.266814 
L 396.713204 68.895275 
L 397.600238 67.399199 
L 398.487273 64.058265 
L 398.487273 64.058265 
" style="fill:none;stroke:#d62728;stroke-linecap:square;stroke-width:1.5;"/>
   </g>
   <g id="patch_3">
    <path d="M 57.6 307.584 
L 57.6 41.472 
" style="fill:none;stroke:#000000;stroke-linecap:square;stroke-linejoin:miter;stroke-width:0.8;"/>
   </g>
   <g id="patch_4">
    <path d="M 414.72 307.584 
L 414.72 41.472 
" style="fill:none;stroke:#000000;stroke-linecap:square;stroke-linejoin:miter;stroke-width:0.8;"/>
   </g>
   <g id="patch_5">
    <path d="M 57.6 307.584 
L 414.72 307.584 
" style="fill:none;stroke:#000000;stroke-linecap:square;stroke-linejoin:miter;stroke-width:0.8;"/>
   </g>
   <g id="patch_6">
    <path d="M 57.6 41.472 
L 414.72 41.472 
" style="fill:none;stroke:#000000;stroke-linecap:square;stroke-linejoin:miter;stroke-width:0.8;"/>
   </g>
   <g id="text_14">
    <!-- Data source: nomics -->
    <g transform="translate(184.91625 35.472)scale(0.1 -0.1)">
     <defs>
      <path d="M 19.671875 64.796875 
L 19.671875 8.109375 
L 31.59375 8.109375 
Q 46.6875 8.109375 53.6875 14.9375 
Q 60.6875 21.78125 60.6875 36.53125 
Q 60.6875 51.171875 53.6875 57.984375 
Q 46.6875 64.796875 31.59375 64.796875 
z
M 9.8125 72.90625 
L 30.078125 72.90625 
Q 51.265625 72.90625 61.171875 64.09375 
Q 71.09375 55.28125 71.09375 36.53125 
Q 71.09375 17.671875 61.125 8.828125 
Q 51.171875 0 30.078125 0 
L 9.8125 0 
z
" id="DejaVuSans-68"/>
      <path d="M 34.28125 27.484375 
Q 23.390625 27.484375 19.1875 25 
Q 14.984375 22.515625 14.984375 16.5 
Q 14.984375 11.71875 18.140625 8.90625 
Q 21.296875 6.109375 26.703125 6.109375 
Q 34.1875 6.109375 38.703125 11.40625 
Q 43.21875 16.703125 43.21875 25.484375 
L 43.21875 27.484375 
z
M 52.203125 31.203125 
L 52.203125 0 
L 43.21875 0 
L 43.21875 8.296875 
Q 40.140625 3.328125 35.546875 0.953125 
Q 30.953125 -1.421875 24.3125 -1.421875 
Q 15.921875 -1.421875 10.953125 3.296875 
Q 6 8.015625 6 15.921875 
Q 6 25.140625 12.171875 29.828125 
Q 18.359375 34.515625 30.609375 34.515625 
L 43.21875 34.515625 
L 43.21875 35.40625 
Q 43.21875 41.609375 39.140625 45 
Q 35.0625 48.390625 27.6875 48.390625 
Q 23 48.390625 18.546875 47.265625 
Q 14.109375 46.140625 10.015625 43.890625 
L 10.015625 52.203125 
Q 14.9375 54.109375 19.578125 55.046875 
Q 24.21875 56 28.609375 56 
Q 40.484375 56 46.34375 49.84375 
Q 52.203125 43.703125 52.203125 31.203125 
z
" id="DejaVuSans-97"/>
      <path d="M 18.3125 70.21875 
L 18.3125 54.6875 
L 36.8125 54.6875 
L 36.8125 47.703125 
L 18.3125 47.703125 
L 18.3125 18.015625 
Q 18.3125 11.328125 20.140625 9.421875 
Q 21.96875 7.515625 27.59375 7.515625 
L 36.8125 7.515625 
L 36.8125 0 
L 27.59375 0 
Q 17.1875 0 13.234375 3.875 
Q 9.28125 7.765625 9.28125 18.015625 
L 9.28125 47.703125 
L 2.6875 47.703125 
L 2.6875 54.6875 
L 9.28125 54.6875 
L 9.28125 70.21875 
z
" id="DejaVuSans-116"/>
      <path id="DejaVuSans-32"/>
      <path d="M 44.28125 53.078125 
L 44.28125 44.578125 
Q 40.484375 46.53125 36.375 47.5 
Q 32.28125 48.484375 27.875 48.484375 
Q 21.1875 48.484375 17.84375 46.4375 
Q 14.5 44.390625 14.5 40.28125 
Q 14.5 37.15625 16.890625 35.375 
Q 19.28125 33.59375 26.515625 31.984375 
L 29.59375 31.296875 
Q 39.15625 29.25 43.1875 25.515625 
Q 47.21875 21.78125 47.21875 15.09375 
Q 47.21875 7.46875 41.1875 3.015625 
Q 35.15625 -1.421875 24.609375 -1.421875 
Q 20.21875 -1.421875 15.453125 -0.5625 
Q 10.6875 0.296875 5.421875 2 
L 5.421875 11.28125 
Q 10.40625 8.6875 15.234375 7.390625 
Q 20.0625 6.109375 24.8125 6.109375 
Q 31.15625 6.109375 34.5625 8.28125 
Q 37.984375 10.453125 37.984375 14.40625 
Q 37.984375 18.0625 35.515625 20.015625 
Q 33.0625 21.96875 24.703125 23.78125 
L 21.578125 24.515625 
Q 13.234375 26.265625 9.515625 29.90625 
Q 5.8125 33.546875 5.8125 39.890625 
Q 5.8125 47.609375 11.28125 51.796875 
Q 16.75 56 26.8125 56 
Q 31.78125 56 36.171875 55.265625 
Q 40.578125 54.546875 44.28125 53.078125 
z
" id="DejaVuSans-115"/>
      <path d="M 30.609375 48.390625 
Q 23.390625 48.390625 19.1875 42.75 
Q 14.984375 37.109375 14.984375 27.296875 
Q 14.984375 17.484375 19.15625 11.84375 
Q 23.34375 6.203125 30.609375 6.203125 
Q 37.796875 6.203125 41.984375 11.859375 
Q 46.1875 17.53125 46.1875 27.296875 
Q 46.1875 37.015625 41.984375 42.703125 
Q 37.796875 48.390625 30.609375 48.390625 
z
M 30.609375 56 
Q 42.328125 56 49.015625 48.375 
Q 55.71875 40.765625 55.71875 27.296875 
Q 55.71875 13.875 49.015625 6.21875 
Q 42.328125 -1.421875 30.609375 -1.421875 
Q 18.84375 -1.421875 12.171875 6.21875 
Q 5.515625 13.875 5.515625 27.296875 
Q 5.515625 40.765625 12.171875 48.375 
Q 18.84375 56 30.609375 56 
z
" id="DejaVuSans-111"/>
      <path d="M 8.5 21.578125 
L 8.5 54.6875 
L 17.484375 54.6875 
L 17.484375 21.921875 
Q 17.484375 14.15625 20.5 10.265625 
Q 23.53125 6.390625 29.59375 6.390625 
Q 36.859375 6.390625 41.078125 11.03125 
Q 45.3125 15.671875 45.3125 23.6875 
L 45.3125 54.6875 
L 54.296875 54.6875 
L 54.296875 0 
L 45.3125 0 
L 45.3125 8.40625 
Q 42.046875 3.421875 37.71875 1 
Q 33.40625 -1.421875 27.6875 -1.421875 
Q 18.265625 -1.421875 13.375 4.4375 
Q 8.5 10.296875 8.5 21.578125 
z
M 31.109375 56 
z
" id="DejaVuSans-117"/>
      <path d="M 41.109375 46.296875 
Q 39.59375 47.171875 37.8125 47.578125 
Q 36.03125 48 33.890625 48 
Q 26.265625 48 22.1875 43.046875 
Q 18.109375 38.09375 18.109375 28.8125 
L 18.109375 0 
L 9.078125 0 
L 9.078125 54.6875 
L 18.109375 54.6875 
L 18.109375 46.1875 
Q 20.953125 51.171875 25.484375 53.578125 
Q 30.03125 56 36.53125 56 
Q 37.453125 56 38.578125 55.875 
Q 39.703125 55.765625 41.0625 55.515625 
z
" id="DejaVuSans-114"/>
      <path d="M 48.78125 52.59375 
L 48.78125 44.1875 
Q 44.96875 46.296875 41.140625 47.34375 
Q 37.3125 48.390625 33.40625 48.390625 
Q 24.65625 48.390625 19.8125 42.84375 
Q 14.984375 37.3125 14.984375 27.296875 
Q 14.984375 17.28125 19.8125 11.734375 
Q 24.65625 6.203125 33.40625 6.203125 
Q 37.3125 6.203125 41.140625 7.25 
Q 44.96875 8.296875 48.78125 10.40625 
L 48.78125 2.09375 
Q 45.015625 0.34375 40.984375 -0.53125 
Q 36.96875 -1.421875 32.421875 -1.421875 
Q 20.0625 -1.421875 12.78125 6.34375 
Q 5.515625 14.109375 5.515625 27.296875 
Q 5.515625 40.671875 12.859375 48.328125 
Q 20.21875 56 33.015625 56 
Q 37.15625 56 41.109375 55.140625 
Q 45.0625 54.296875 48.78125 52.59375 
z
" id="DejaVuSans-99"/>
      <path d="M 56.203125 29.59375 
L 56.203125 25.203125 
L 14.890625 25.203125 
Q 15.484375 15.921875 20.484375 11.0625 
Q 25.484375 6.203125 34.421875 6.203125 
Q 39.59375 6.203125 44.453125 7.46875 
Q 49.3125 8.734375 54.109375 11.28125 
L 54.109375 2.78125 
Q 49.265625 0.734375 44.1875 -0.34375 
Q 39.109375 -1.421875 33.890625 -1.421875 
Q 20.796875 -1.421875 13.15625 6.1875 
Q 5.515625 13.8125 5.515625 26.8125 
Q 5.515625 40.234375 12.765625 48.109375 
Q 20.015625 56 32.328125 56 
Q 43.359375 56 49.78125 48.890625 
Q 56.203125 41.796875 56.203125 29.59375 
z
M 47.21875 32.234375 
Q 47.125 39.59375 43.09375 43.984375 
Q 39.0625 48.390625 32.421875 48.390625 
Q 24.90625 48.390625 20.390625 44.140625 
Q 15.875 39.890625 15.1875 32.171875 
z
" id="DejaVuSans-101"/>
      <path d="M 11.71875 12.40625 
L 22.015625 12.40625 
L 22.015625 0 
L 11.71875 0 
z
M 11.71875 51.703125 
L 22.015625 51.703125 
L 22.015625 39.3125 
L 11.71875 39.3125 
z
" id="DejaVuSans-58"/>
      <path d="M 54.890625 33.015625 
L 54.890625 0 
L 45.90625 0 
L 45.90625 32.71875 
Q 45.90625 40.484375 42.875 44.328125 
Q 39.84375 48.1875 33.796875 48.1875 
Q 26.515625 48.1875 22.3125 43.546875 
Q 18.109375 38.921875 18.109375 30.90625 
L 18.109375 0 
L 9.078125 0 
L 9.078125 54.6875 
L 18.109375 54.6875 
L 18.109375 46.1875 
Q 21.34375 51.125 25.703125 53.5625 
Q 30.078125 56 35.796875 56 
Q 45.21875 56 50.046875 50.171875 
Q 54.890625 44.34375 54.890625 33.015625 
z
" id="DejaVuSans-110"/>
      <path d="M 52 44.1875 
Q 55.375 50.25 60.0625 53.125 
Q 64.75 56 71.09375 56 
Q 79.640625 56 84.28125 50.015625 
Q 88.921875 44.046875 88.921875 33.015625 
L 88.921875 0 
L 79.890625 0 
L 79.890625 32.71875 
Q 79.890625 40.578125 77.09375 44.375 
Q 74.3125 48.1875 68.609375 48.1875 
Q 61.625 48.1875 57.5625 43.546875 
Q 53.515625 38.921875 53.515625 30.90625 
L 53.515625 0 
L 44.484375 0 
L 44.484375 32.71875 
Q 44.484375 40.625 41.703125 44.40625 
Q 38.921875 48.1875 33.109375 48.1875 
Q 26.21875 48.1875 22.15625 43.53125 
Q 18.109375 38.875 18.109375 30.90625 
L 18.109375 0 
L 9.078125 0 
L 9.078125 54.6875 
L 18.109375 54.6875 
L 18.109375 46.1875 
Q 21.1875 51.21875 25.484375 53.609375 
Q 29.78125 56 35.6875 56 
Q 41.65625 56 45.828125 52.96875 
Q 50 49.953125 52 44.1875 
z
" id="DejaVuSans-109"/>
      <path d="M 9.421875 54.6875 
L 18.40625 54.6875 
L 18.40625 0 
L 9.421875 0 
z
M 9.421875 75.984375 
L 18.40625 75.984375 
L 18.40625 64.59375 
L 9.421875 64.59375 
z
" id="DejaVuSans-105"/>
     </defs>
     <use xlink:href="#DejaVuSans-68"/>
     <use x="77.001953" xlink:href="#DejaVuSans-97"/>
     <use x="138.28125" xlink:href="#DejaVuSans-116"/>
     <use x="177.490234" xlink:href="#DejaVuSans-97"/>
     <use x="238.769531" xlink:href="#DejaVuSans-32"/>
     <use x="270.556641" xlink:href="#DejaVuSans-115"/>
     <use x="322.65625" xlink:href="#DejaVuSans-111"/>
     <use x="383.837891" xlink:href="#DejaVuSans-117"/>
     <use x="447.216797" xlink:href="#DejaVuSans-114"/>
     <use x="486.080078" xlink:href="#DejaVuSans-99"/>
     <use x="541.060547" xlink:href="#DejaVuSans-101"/>
     <use x="602.583984" xlink:href="#DejaVuSans-58"/>
     <use x="636.275391" xlink:href="#DejaVuSans-32"/>
     <use x="668.0625" xlink:href="#DejaVuSans-110"/>
     <use x="731.441406" xlink:href="#DejaVuSans-111"/>
     <use x="792.623047" xlink:href="#DejaVuSans-109"/>
     <use x="890.035156" xlink:href="#DejaVuSans-105"/>
     <use x="917.818359" xlink:href="#DejaVuSans-99"/>
     <use x="972.798828" xlink:href="#DejaVuSans-115"/>
    </g>
   </g>
   <g id="legend_1">
    <g id="patch_7">
     <path d="M 64.6 108.1845 
L 155.732812 108.1845 
Q 157.732812 108.1845 157.732812 106.1845 
L 157.732812 48.472 
Q 157.732812 46.472 155.732812 46.472 
L 64.6 46.472 
Q 62.6 46.472 62.6 48.472 
L 62.6 106.1845 
Q 62.6 108.1845 64.6 108.1845 
z
" style="fill:#ffffff;opacity:0.8;stroke:#cccccc;stroke-linejoin:miter;"/>
    </g>
    <g id="line2d_18">
     <path d="M 66.6 54.570438 
L 86.6 54.570438 
" style="fill:none;stroke:#1f77b4;stroke-linecap:square;stroke-width:1.5;"/>
    </g>
    <g id="line2d_19"/>
    <g id="text_15">
     <!-- Upper Band -->
     <g transform="translate(94.6 58.070438)scale(0.1 -0.1)">
      <defs>
       <path d="M 8.6875 72.90625 
L 18.609375 72.90625 
L 18.609375 28.609375 
Q 18.609375 16.890625 22.84375 11.734375 
Q 27.09375 6.59375 36.625 6.59375 
Q 46.09375 6.59375 50.34375 11.734375 
Q 54.59375 16.890625 54.59375 28.609375 
L 54.59375 72.90625 
L 64.5 72.90625 
L 64.5 27.390625 
Q 64.5 13.140625 57.4375 5.859375 
Q 50.390625 -1.421875 36.625 -1.421875 
Q 22.796875 -1.421875 15.734375 5.859375 
Q 8.6875 13.140625 8.6875 27.390625 
z
" id="DejaVuSans-85"/>
       <path d="M 18.109375 8.203125 
L 18.109375 -20.796875 
L 9.078125 -20.796875 
L 9.078125 54.6875 
L 18.109375 54.6875 
L 18.109375 46.390625 
Q 20.953125 51.265625 25.265625 53.625 
Q 29.59375 56 35.59375 56 
Q 45.5625 56 51.78125 48.09375 
Q 58.015625 40.1875 58.015625 27.296875 
Q 58.015625 14.40625 51.78125 6.484375 
Q 45.5625 -1.421875 35.59375 -1.421875 
Q 29.59375 -1.421875 25.265625 0.953125 
Q 20.953125 3.328125 18.109375 8.203125 
z
M 48.6875 27.296875 
Q 48.6875 37.203125 44.609375 42.84375 
Q 40.53125 48.484375 33.40625 48.484375 
Q 26.265625 48.484375 22.1875 42.84375 
Q 18.109375 37.203125 18.109375 27.296875 
Q 18.109375 17.390625 22.1875 11.75 
Q 26.265625 6.109375 33.40625 6.109375 
Q 40.53125 6.109375 44.609375 11.75 
Q 48.6875 17.390625 48.6875 27.296875 
z
" id="DejaVuSans-112"/>
       <path d="M 19.671875 34.8125 
L 19.671875 8.109375 
L 35.5 8.109375 
Q 43.453125 8.109375 47.28125 11.40625 
Q 51.125 14.703125 51.125 21.484375 
Q 51.125 28.328125 47.28125 31.5625 
Q 43.453125 34.8125 35.5 34.8125 
z
M 19.671875 64.796875 
L 19.671875 42.828125 
L 34.28125 42.828125 
Q 41.5 42.828125 45.03125 45.53125 
Q 48.578125 48.25 48.578125 53.8125 
Q 48.578125 59.328125 45.03125 62.0625 
Q 41.5 64.796875 34.28125 64.796875 
z
M 9.8125 72.90625 
L 35.015625 72.90625 
Q 46.296875 72.90625 52.390625 68.21875 
Q 58.5 63.53125 58.5 54.890625 
Q 58.5 48.1875 55.375 44.234375 
Q 52.25 40.28125 46.1875 39.3125 
Q 53.46875 37.75 57.5 32.78125 
Q 61.53125 27.828125 61.53125 20.40625 
Q 61.53125 10.640625 54.890625 5.3125 
Q 48.25 0 35.984375 0 
L 9.8125 0 
z
" id="DejaVuSans-66"/>
       <path d="M 45.40625 46.390625 
L 45.40625 75.984375 
L 54.390625 75.984375 
L 54.390625 0 
L 45.40625 0 
L 45.40625 8.203125 
Q 42.578125 3.328125 38.25 0.953125 
Q 33.9375 -1.421875 27.875 -1.421875 
Q 17.96875 -1.421875 11.734375 6.484375 
Q 5.515625 14.40625 5.515625 27.296875 
Q 5.515625 40.1875 11.734375 48.09375 
Q 17.96875 56 27.875 56 
Q 33.9375 56 38.25 53.625 
Q 42.578125 51.265625 45.40625 46.390625 
z
M 14.796875 27.296875 
Q 14.796875 17.390625 18.875 11.75 
Q 22.953125 6.109375 30.078125 6.109375 
Q 37.203125 6.109375 41.296875 11.75 
Q 45.40625 17.390625 45.40625 27.296875 
Q 45.40625 37.203125 41.296875 42.84375 
Q 37.203125 48.484375 30.078125 48.484375 
Q 22.953125 48.484375 18.875 42.84375 
Q 14.796875 37.203125 14.796875 27.296875 
z
" id="DejaVuSans-100"/>
      </defs>
      <use xlink:href="#DejaVuSans-85"/>
      <use x="73.193359" xlink:href="#DejaVuSans-112"/>
      <use x="136.669922" xlink:href="#DejaVuSans-112"/>
      <use x="200.146484" xlink:href="#DejaVuSans-101"/>
      <use x="261.669922" xlink:href="#DejaVuSans-114"/>
      <use x="302.783203" xlink:href="#DejaVuSans-32"/>
      <use x="334.570312" xlink:href="#DejaVuSans-66"/>
      <use x="403.173828" xlink:href="#DejaVuSans-97"/>
      <use x="464.453125" xlink:href="#DejaVuSans-110"/>
      <use x="527.832031" xlink:href="#DejaVuSans-100"/>
     </g>
    </g>
    <g id="line2d_20">
     <path d="M 66.6 69.248563 
L 86.6 69.248563 
" style="fill:none;stroke:#ff7f0e;stroke-linecap:square;stroke-width:1.5;"/>
    </g>
    <g id="line2d_21"/>
    <g id="text_16">
     <!-- Lower Band -->
     <g transform="translate(94.6 72.748563)scale(0.1 -0.1)">
      <defs>
       <path d="M 9.8125 72.90625 
L 19.671875 72.90625 
L 19.671875 8.296875 
L 55.171875 8.296875 
L 55.171875 0 
L 9.8125 0 
z
" id="DejaVuSans-76"/>
       <path d="M 4.203125 54.6875 
L 13.1875 54.6875 
L 24.421875 12.015625 
L 35.59375 54.6875 
L 46.1875 54.6875 
L 57.421875 12.015625 
L 68.609375 54.6875 
L 77.59375 54.6875 
L 63.28125 0 
L 52.6875 0 
L 40.921875 44.828125 
L 29.109375 0 
L 18.5 0 
z
" id="DejaVuSans-119"/>
      </defs>
      <use xlink:href="#DejaVuSans-76"/>
      <use x="53.962891" xlink:href="#DejaVuSans-111"/>
      <use x="115.144531" xlink:href="#DejaVuSans-119"/>
      <use x="196.931641" xlink:href="#DejaVuSans-101"/>
      <use x="258.455078" xlink:href="#DejaVuSans-114"/>
      <use x="299.568359" xlink:href="#DejaVuSans-32"/>
      <use x="331.355469" xlink:href="#DejaVuSans-66"/>
      <use x="399.958984" xlink:href="#DejaVuSans-97"/>
      <use x="461.238281" xlink:href="#DejaVuSans-110"/>
      <use x="524.617188" xlink:href="#DejaVuSans-100"/>
     </g>
    </g>
    <g id="line2d_22">
     <path d="M 66.6 83.926688 
L 86.6 83.926688 
" style="fill:none;stroke:#2ca02c;stroke-linecap:square;stroke-width:1.5;"/>
    </g>
    <g id="line2d_23"/>
    <g id="text_17">
     <!-- MA -->
     <g transform="translate(94.6 87.426688)scale(0.1 -0.1)">
      <defs>
       <path d="M 9.8125 72.90625 
L 24.515625 72.90625 
L 43.109375 23.296875 
L 61.8125 72.90625 
L 76.515625 72.90625 
L 76.515625 0 
L 66.890625 0 
L 66.890625 64.015625 
L 48.09375 14.015625 
L 38.1875 14.015625 
L 19.390625 64.015625 
L 19.390625 0 
L 9.8125 0 
z
" id="DejaVuSans-77"/>
       <path d="M 34.1875 63.1875 
L 20.796875 26.90625 
L 47.609375 26.90625 
z
M 28.609375 72.90625 
L 39.796875 72.90625 
L 67.578125 0 
L 57.328125 0 
L 50.6875 18.703125 
L 17.828125 18.703125 
L 11.1875 0 
L 0.78125 0 
z
" id="DejaVuSans-65"/>
      </defs>
      <use xlink:href="#DejaVuSans-77"/>
      <use x="86.279297" xlink:href="#DejaVuSans-65"/>
     </g>
    </g>
    <g id="line2d_24">
     <path d="M 66.6 98.604813 
L 86.6 98.604813 
" style="fill:none;stroke:#d62728;stroke-linecap:square;stroke-width:1.5;"/>
    </g>
    <g id="line2d_25"/>
    <g id="text_18">
     <!-- BTC-USD -->
     <g transform="translate(94.6 102.104813)scale(0.1 -0.1)">
      <defs>
       <path d="M -0.296875 72.90625 
L 61.375 72.90625 
L 61.375 64.59375 
L 35.5 64.59375 
L 35.5 0 
L 25.59375 0 
L 25.59375 64.59375 
L -0.296875 64.59375 
z
" id="DejaVuSans-84"/>
       <path d="M 64.40625 67.28125 
L 64.40625 56.890625 
Q 59.421875 61.53125 53.78125 63.8125 
Q 48.140625 66.109375 41.796875 66.109375 
Q 29.296875 66.109375 22.65625 58.46875 
Q 16.015625 50.828125 16.015625 36.375 
Q 16.015625 21.96875 22.65625 14.328125 
Q 29.296875 6.6875 41.796875 6.6875 
Q 48.140625 6.6875 53.78125 8.984375 
Q 59.421875 11.28125 64.40625 15.921875 
L 64.40625 5.609375 
Q 59.234375 2.09375 53.4375 0.328125 
Q 47.65625 -1.421875 41.21875 -1.421875 
Q 24.65625 -1.421875 15.125 8.703125 
Q 5.609375 18.84375 5.609375 36.375 
Q 5.609375 53.953125 15.125 64.078125 
Q 24.65625 74.21875 41.21875 74.21875 
Q 47.75 74.21875 53.53125 72.484375 
Q 59.328125 70.75 64.40625 67.28125 
z
" id="DejaVuSans-67"/>
       <path d="M 53.515625 70.515625 
L 53.515625 60.890625 
Q 47.90625 63.578125 42.921875 64.890625 
Q 37.9375 66.21875 33.296875 66.21875 
Q 25.25 66.21875 20.875 63.09375 
Q 16.5 59.96875 16.5 54.203125 
Q 16.5 49.359375 19.40625 46.890625 
Q 22.3125 44.4375 30.421875 42.921875 
L 36.375 41.703125 
Q 47.40625 39.59375 52.65625 34.296875 
Q 57.90625 29 57.90625 20.125 
Q 57.90625 9.515625 50.796875 4.046875 
Q 43.703125 -1.421875 29.984375 -1.421875 
Q 24.8125 -1.421875 18.96875 -0.25 
Q 13.140625 0.921875 6.890625 3.21875 
L 6.890625 13.375 
Q 12.890625 10.015625 18.65625 8.296875 
Q 24.421875 6.59375 29.984375 6.59375 
Q 38.421875 6.59375 43.015625 9.90625 
Q 47.609375 13.234375 47.609375 19.390625 
Q 47.609375 24.75 44.3125 27.78125 
Q 41.015625 30.8125 33.5 32.328125 
L 27.484375 33.5 
Q 16.453125 35.6875 11.515625 40.375 
Q 6.59375 45.0625 6.59375 53.421875 
Q 6.59375 63.09375 13.40625 68.65625 
Q 20.21875 74.21875 32.171875 74.21875 
Q 37.3125 74.21875 42.625 73.28125 
Q 47.953125 72.359375 53.515625 70.515625 
z
" id="DejaVuSans-83"/>
      </defs>
      <use xlink:href="#DejaVuSans-66"/>
      <use x="68.603516" xlink:href="#DejaVuSans-84"/>
      <use x="123.8125" xlink:href="#DejaVuSans-67"/>
      <use x="193.636719" xlink:href="#DejaVuSans-45"/>
      <use x="229.720703" xlink:href="#DejaVuSans-85"/>
      <use x="302.914062" xlink:href="#DejaVuSans-83"/>
      <use x="366.390625" xlink:href="#DejaVuSans-68"/>
     </g>
    </g>
   </g>
  </g>
  <g id="text_19">
   <!-- Bollinger Band -->
   <g transform="translate(171.90625 19.0695)scale(0.16 -0.16)">
    <defs>
     <path d="M 9.421875 75.984375 
L 18.40625 75.984375 
L 18.40625 0 
L 9.421875 0 
z
" id="DejaVuSans-108"/>
     <path d="M 45.40625 27.984375 
Q 45.40625 37.75 41.375 43.109375 
Q 37.359375 48.484375 30.078125 48.484375 
Q 22.859375 48.484375 18.828125 43.109375 
Q 14.796875 37.75 14.796875 27.984375 
Q 14.796875 18.265625 18.828125 12.890625 
Q 22.859375 7.515625 30.078125 7.515625 
Q 37.359375 7.515625 41.375 12.890625 
Q 45.40625 18.265625 45.40625 27.984375 
z
M 54.390625 6.78125 
Q 54.390625 -7.171875 48.1875 -13.984375 
Q 42 -20.796875 29.203125 -20.796875 
Q 24.46875 -20.796875 20.265625 -20.09375 
Q 16.0625 -19.390625 12.109375 -17.921875 
L 12.109375 -9.1875 
Q 16.0625 -11.328125 19.921875 -12.34375 
Q 23.78125 -13.375 27.78125 -13.375 
Q 36.625 -13.375 41.015625 -8.765625 
Q 45.40625 -4.15625 45.40625 5.171875 
L 45.40625 9.625 
Q 42.625 4.78125 38.28125 2.390625 
Q 33.9375 0 27.875 0 
Q 17.828125 0 11.671875 7.65625 
Q 5.515625 15.328125 5.515625 27.984375 
Q 5.515625 40.671875 11.671875 48.328125 
Q 17.828125 56 27.875 56 
Q 33.9375 56 38.28125 53.609375 
Q 42.625 51.21875 45.40625 46.390625 
L 45.40625 54.6875 
L 54.390625 54.6875 
z
" id="DejaVuSans-103"/>
    </defs>
    <use xlink:href="#DejaVuSans-66"/>
    <use x="68.603516" xlink:href="#DejaVuSans-111"/>
    <use x="129.785156" xlink:href="#DejaVuSans-108"/>
    <use x="157.568359" xlink:href="#DejaVuSans-108"/>
    <use x="185.351562" xlink:href="#DejaVuSans-105"/>
    <use x="213.134766" xlink:href="#DejaVuSans-110"/>
    <use x="276.513672" xlink:href="#DejaVuSans-103"/>
    <use x="339.990234" xlink:href="#DejaVuSans-101"/>
    <use x="401.513672" xlink:href="#DejaVuSans-114"/>
    <use x="442.626953" xlink:href="#DejaVuSans-32"/>
    <use x="474.414062" xlink:href="#DejaVuSans-66"/>
    <use x="543.017578" xlink:href="#DejaVuSans-97"/>
    <use x="604.296875" xlink:href="#DejaVuSans-110"/>
    <use x="667.675781" xlink:href="#DejaVuSans-100"/>
   </g>
  </g>
 </g>
 <defs>
  <clipPath id="p02034b5482">
   <rect height="266.112" width="357.12" x="57.6" y="41.472"/>
  </clipPath>
 </defs>
</svg>
