<?xml version="1.0" encoding="utf-8" standalone="no"?>
<!DOCTYPE svg PUBLIC "-//W3C//DTD SVG 1.1//EN"
  "http://www.w3.org/Graphics/SVG/1.1/DTD/svg11.dtd">
<!-- Created with matplotlib (https://matplotlib.org/) -->
<svg height="345.6pt" version="1.1" viewBox="0 0 460.8 345.6" width="460.8pt" xmlns="http://www.w3.org/2000/svg" xmlns:xlink="http://www.w3.org/1999/xlink">
 <metadata>
  <rdf:RDF xmlns:cc="http://creativecommons.org/ns#" xmlns:dc="http://purl.org/dc/elements/1.1/" xmlns:rdf="http://www.w3.org/1999/02/22-rdf-syntax-ns#">
   <cc:Work>
    <dc:type rdf:resource="http://purl.org/dc/dcmitype/StillImage"/>
    <dc:date>2020-12-31T11:01:35.440848</dc:date>
    <dc:format>image/svg+xml</dc:format>
    <dc:creator>
     <cc:Agent>
      <dc:title>Matplotlib v3.3.2, https://matplotlib.org/</dc:title>
     </cc:Agent>
    </dc:creator>
   </cc:Work>
  </rdf:RDF>
 </metadata>
 <defs>
  <style type="text/css">*{stroke-linecap:butt;stroke-linejoin:round;}</style>
 </defs>
 <g id="figure_1">
  <g id="patch_1">
   <path d="M 0 345.6 
L 460.8 345.6 
L 460.8 0 
L 0 0 
z
" style="fill:#ffffff;"/>
  </g>
  <g id="axes_1">
   <g id="patch_2">
    <path d="M 57.6 307.584 
L 414.72 307.584 
L 414.72 41.472 
L 57.6 41.472 
z
" style="fill:#ffffff;"/>
   </g>
   <g id="PolyCollection_1">
    <path clip-path="url(#p859b0f0693)" d="M 119.32004 246.239647 
L 119.32004 246.239647 
L 120.211948 245.548146 
L 121.103856 245.959911 
L 121.995764 245.959911 
L 122.887672 246.665882 
L 123.77958 248.961413 
L 124.671489 249.510647 
L 125.563397 249.886705 
L 126.455305 250.781989 
L 127.347213 250.781989 
L 128.239121 250.781989 
L 129.131029 251.534188 
L 129.612429 252.007487 
L 129.131029 252.007487 
L 128.239121 252.45725 
L 127.347213 252.45725 
L 126.455305 253.464858 
L 125.563397 253.464858 
L 124.671489 253.464858 
L 123.77958 253.743137 
L 122.887672 255.791215 
L 121.995764 255.793521 
L 121.103856 255.840365 
L 120.211948 257.784899 
L 119.32004 257.784899 
z
" style="fill:#008000;fill-opacity:0.5;"/>
    <path clip-path="url(#p859b0f0693)" d="M 175.272026 274.164536 
L 175.51025 273.675696 
L 176.402158 273.440013 
L 177.294066 272.07735 
L 178.185974 271.536529 
L 179.077882 271.536529 
L 179.96979 266.528709 
L 180.861698 265.818976 
L 181.753606 264.624447 
L 182.645514 263.805869 
L 183.537423 263.564186 
L 184.429331 263.553997 
L 185.321239 263.151154 
L 186.213147 262.340747 
L 187.105055 256.823848 
L 187.996963 255.64378 
L 188.888871 255.565944 
L 189.780779 256.338992 
L 190.672687 256.011588 
L 191.564595 256.011588 
L 192.456503 256.011588 
L 193.348412 256.011588 
L 194.24032 256.011588 
L 195.132228 256.457021 
L 196.024136 255.812765 
L 196.916044 254.890907 
L 197.807952 254.222968 
L 198.69986 253.981285 
L 199.591768 253.038631 
L 200.483676 252.658992 
L 201.375584 252.573938 
L 202.267493 251.186796 
L 203.159401 251.715743 
L 204.051309 251.715743 
L 204.943217 251.715743 
L 205.835125 252.253834 
L 206.727033 252.253834 
L 207.618941 251.930672 
L 208.510849 251.930672 
L 209.402757 250.145964 
L 210.294665 250.145964 
L 211.186573 249.906794 
L 212.078482 249.775479 
L 212.97039 248.388084 
L 213.862298 247.780966 
L 214.754206 247.458802 
L 215.646114 247.458802 
L 216.538022 247.458802 
L 217.42993 248.238703 
L 218.321838 248.238703 
L 219.213746 248.374058 
L 220.105654 248.484066 
L 220.997562 248.510563 
L 221.889471 249.229374 
L 222.781379 249.229374 
L 223.673287 249.229374 
L 224.565195 249.229374 
L 225.457103 250.099737 
L 226.349011 249.860566 
L 227.240919 249.729251 
L 228.132827 248.856051 
L 229.024735 248.856051 
L 229.916643 248.505288 
L 230.808551 248.510398 
L 231.70046 248.905042 
L 232.592368 249.684943 
L 233.484276 250.372074 
L 234.376184 250.372074 
L 235.268092 250.372074 
L 235.607045 250.423376 
L 235.268092 250.931052 
L 234.376184 250.931052 
L 233.484276 250.931052 
L 232.592368 250.931052 
L 231.70046 250.931052 
L 230.808551 250.931052 
L 229.916643 250.931052 
L 229.024735 250.931052 
L 228.132827 250.931052 
L 227.240919 250.931052 
L 226.349011 250.931052 
L 225.457103 251.900763 
L 224.565195 254.675048 
L 223.673287 254.926441 
L 222.781379 255.288744 
L 221.889471 255.309123 
L 220.997562 255.792489 
L 220.105654 255.792489 
L 219.213746 257.636204 
L 218.321838 259.05567 
L 217.42993 259.05567 
L 216.538022 259.05567 
L 215.646114 259.05567 
L 214.754206 259.05567 
L 213.862298 259.05567 
L 212.97039 259.710478 
L 212.078482 259.710478 
L 211.186573 259.710478 
L 210.294665 259.710478 
L 209.402757 259.710478 
L 208.510849 260.728705 
L 207.618941 260.728705 
L 206.727033 260.728705 
L 205.835125 260.728705 
L 204.943217 260.728705 
L 204.051309 260.728705 
L 203.159401 260.728705 
L 202.267493 260.728705 
L 201.375584 260.728705 
L 200.483676 261.007498 
L 199.591768 262.128727 
L 198.69986 262.128727 
L 197.807952 264.997171 
L 196.916044 264.997171 
L 196.024136 264.997171 
L 195.132228 264.997171 
L 194.24032 264.997171 
L 193.348412 264.997171 
L 192.456503 264.997171 
L 191.564595 265.392817 
L 190.672687 265.392817 
L 189.780779 265.392817 
L 188.888871 265.392817 
L 187.996963 267.372889 
L 187.105055 267.749301 
L 186.213147 273.360973 
L 185.321239 274.045684 
L 184.429331 274.267375 
L 183.537423 274.267375 
L 182.645514 274.921897 
L 181.753606 275.740475 
L 180.861698 276.013146 
L 179.96979 276.013146 
L 179.077882 279.657572 
L 178.185974 275.309433 
L 177.294066 274.164536 
L 176.402158 274.164536 
L 175.51025 274.164536 
z
" style="fill:#008000;fill-opacity:0.5;"/>
    <path clip-path="url(#p859b0f0693)" d="M 257.881085 249.738296 
L 258.457702 248.975971 
L 259.34961 243.529678 
L 260.241518 243.455775 
L 261.133427 242.92862 
L 262.025335 242.548103 
L 262.917243 240.636025 
L 263.809151 238.369861 
L 264.701059 238.225238 
L 265.592967 237.946622 
L 266.484875 236.460691 
L 267.376783 234.738442 
L 268.268691 234.738442 
L 269.160599 234.629855 
L 270.052507 234.629855 
L 270.944416 234.278978 
L 271.836324 233.839822 
L 272.728232 233.824935 
L 273.62014 233.640355 
L 274.512048 233.600323 
L 275.403956 233.217047 
L 276.295864 233.163669 
L 277.187772 232.751452 
L 278.07968 230.495613 
L 278.971588 230.412619 
L 279.863497 230.267996 
L 280.755405 229.989381 
L 281.647313 227.940094 
L 282.539221 226.17228 
L 283.431129 226.17228 
L 284.323037 226.063692 
L 285.214945 226.579894 
L 286.106853 227.083813 
L 286.998761 227.474154 
L 287.890669 227.474154 
L 288.782577 227.582227 
L 289.674486 227.582227 
L 290.566394 227.373585 
L 291.458302 226.934354 
L 292.35021 226.934354 
L 293.242118 226.934354 
L 294.134026 232.033032 
L 295.025934 232.033032 
L 295.917842 232.953037 
L 296.80975 232.953037 
L 297.701658 232.953037 
L 298.593566 233.346679 
L 299.485475 234.628273 
L 300.062503 236.16648 
L 299.485475 236.658838 
L 298.593566 236.765595 
L 297.701658 236.9134 
L 296.80975 236.993465 
L 295.917842 237.084564 
L 295.025934 237.114338 
L 294.134026 237.114338 
L 293.242118 237.114338 
L 292.35021 237.114338 
L 291.458302 237.114338 
L 290.566394 237.114338 
L 289.674486 237.114338 
L 288.782577 237.114338 
L 287.890669 237.114338 
L 286.998761 237.114338 
L 286.106853 237.114338 
L 285.214945 237.321475 
L 284.323037 237.321475 
L 283.431129 237.321475 
L 282.539221 237.321475 
L 281.647313 237.321475 
L 280.755405 237.321475 
L 279.863497 237.321475 
L 278.971588 237.744776 
L 278.07968 237.744776 
L 277.187772 239.61066 
L 276.295864 239.64236 
L 275.403956 239.64236 
L 274.512048 239.64236 
L 273.62014 239.64236 
L 272.728232 239.64236 
L 271.836324 239.64236 
L 270.944416 240.081516 
L 270.052507 240.081516 
L 269.160599 240.081516 
L 268.268691 240.081516 
L 267.376783 240.081516 
L 266.484875 240.081516 
L 265.592967 240.081516 
L 264.701059 240.081516 
L 263.809151 240.081516 
L 262.917243 242.264686 
L 262.025335 243.68324 
L 261.133427 243.68324 
L 260.241518 244.157017 
L 259.34961 244.157017 
L 258.457702 249.563277 
z
" style="fill:#008000;fill-opacity:0.5;"/>
    <path clip-path="url(#p859b0f0693)" d="M 329.955943 234.206238 
L 330.702258 234.087635 
L 331.594166 233.451664 
L 332.486074 233.032626 
L 333.377982 232.424132 
L 334.26989 230.56579 
L 335.161798 229.70764 
L 336.053706 225.306082 
L 336.945614 224.293464 
L 337.837522 224.293464 
L 338.729431 223.636648 
L 339.621339 223.524547 
L 340.513247 223.153194 
L 341.405155 219.757491 
L 342.297063 219.342262 
L 343.188971 217.011142 
L 344.080879 216.686339 
L 344.972787 216.010089 
L 345.864695 215.618581 
L 346.756603 214.98261 
L 347.648511 213.562672 
L 348.54042 211.545721 
L 349.432328 204.484198 
L 350.324236 203.88951 
L 351.216144 203.618984 
L 352.108052 203.618231 
L 352.99996 203.618231 
L 353.891868 203.618231 
L 354.783776 201.632138 
L 355.675684 198.027433 
L 356.567592 195.598822 
L 357.4595 195.183593 
L 358.351409 192.939842 
L 359.243317 189.431078 
L 360.135225 184.59846 
L 361.027133 183.708377 
L 361.919041 182.531679 
L 362.810949 177.538743 
L 363.702857 177.011904 
L 364.594765 177.011904 
L 365.486673 176.548904 
L 366.378581 172.243476 
L 367.27049 169.829227 
L 368.162398 171.076342 
L 369.054306 171.142458 
L 369.946214 169.971817 
L 370.838122 169.64853 
L 371.73003 164.974694 
L 372.621938 164.974694 
L 373.513846 164.974694 
L 374.405754 163.789074 
L 375.297662 163.789074 
L 376.18957 163.789074 
L 377.081479 161.327521 
L 377.973387 159.508592 
L 378.865295 159.190389 
L 379.757203 159.839272 
L 380.649111 160.007532 
L 381.541019 158.653475 
L 382.432927 157.629859 
L 383.324835 157.629859 
L 384.216743 157.629859 
L 385.108651 157.528371 
L 386.000559 148.625396 
L 386.892468 141.268195 
L 387.784376 139.450158 
L 388.676284 135.9395 
L 389.568192 133.991743 
L 390.4601 133.088468 
L 391.352008 132.558521 
L 392.243916 130.661173 
L 393.135824 125.08762 
L 394.027732 117.551206 
L 394.91964 108.704345 
L 395.811548 108.704345 
L 396.703457 105.422646 
L 397.595365 104.002857 
L 398.487273 95.243647 
L 398.487273 95.243647 
L 398.487273 122.117511 
L 397.595365 129.586833 
L 396.703457 133.377861 
L 395.811548 136.65956 
L 394.91964 136.65956 
L 394.027732 148.966751 
L 393.135824 153.694188 
L 392.243916 156.035469 
L 391.352008 156.035469 
L 390.4601 156.297432 
L 389.568192 156.298938 
L 388.676284 156.83999 
L 387.784376 161.276648 
L 386.892468 163.094684 
L 386.000559 171.505563 
L 385.108651 179.930027 
L 384.216743 179.930027 
L 383.324835 180.429563 
L 382.432927 180.429563 
L 381.541019 181.079168 
L 380.649111 185.566669 
L 379.757203 186.397128 
L 378.865295 187.617248 
L 377.973387 188.359953 
L 377.081479 188.584156 
L 376.18957 188.584156 
L 375.297662 188.584156 
L 374.405754 188.584156 
L 373.513846 188.584156 
L 372.621938 188.584156 
L 371.73003 188.69037 
L 370.838122 192.851029 
L 369.946214 193.689104 
L 369.054306 194.961045 
L 368.162398 195.244526 
L 367.27049 195.244526 
L 366.378581 195.244526 
L 365.486673 197.554239 
L 364.594765 197.554239 
L 363.702857 197.554239 
L 362.810949 197.554239 
L 361.919041 201.813527 
L 361.027133 201.997542 
L 360.135225 202.637857 
L 359.243317 207.470476 
L 358.351409 209.468817 
L 357.4595 209.468817 
L 356.567592 210.958717 
L 355.675684 211.047102 
L 354.783776 213.957167 
L 353.891868 214.660517 
L 352.99996 214.660517 
L 352.108052 214.660517 
L 351.216144 214.660517 
L 350.324236 214.660517 
L 349.432328 214.792206 
L 348.54042 221.800622 
L 347.648511 222.68224 
L 346.756603 223.610374 
L 345.864695 223.610374 
L 344.972787 223.610374 
L 344.080879 225.435798 
L 343.188971 225.435798 
L 342.297063 225.435798 
L 341.405155 225.435798 
L 340.513247 228.221441 
L 339.621339 228.221441 
L 338.729431 228.221441 
L 337.837522 228.878257 
L 336.945614 228.878257 
L 336.053706 229.890875 
L 335.161798 234.206238 
L 334.26989 234.206238 
L 333.377982 234.206238 
L 332.486074 234.206238 
L 331.594166 234.206238 
L 330.702258 234.206238 
z
" style="fill:#008000;fill-opacity:0.5;"/>
   </g>
   <g id="PolyCollection_2">
    <path clip-path="url(#p859b0f0693)" d="M 129.612429 252.007487 
L 130.022937 252.411087 
L 130.914845 253.056332 
L 131.806753 252.840317 
L 132.698661 252.840317 
L 133.590569 255.306062 
L 134.482478 255.840102 
L 135.374386 256.068505 
L 136.266294 256.48027 
L 137.158202 271.556973 
L 138.05011 271.556973 
L 138.942018 271.556973 
L 139.833926 272.678656 
L 140.725834 274.852725 
L 141.617742 275.099249 
L 142.50965 275.099249 
L 143.401558 275.099249 
L 144.293467 280.209227 
L 145.185375 280.758866 
L 146.077283 281.188096 
L 146.969191 280.544766 
L 147.861099 279.867099 
L 148.753007 279.126141 
L 149.644915 278.937935 
L 150.536823 277.947899 
L 151.428731 277.947899 
L 152.320639 277.947899 
L 153.212547 277.947899 
L 154.104456 277.750076 
L 154.996364 278.322524 
L 155.888272 280.356693 
L 156.78018 280.603216 
L 157.672088 280.458367 
L 158.563996 280.458367 
L 159.455904 280.847137 
L 160.347812 279.085654 
L 161.23972 278.916953 
L 162.131628 278.356339 
L 163.023536 278.184303 
L 163.915445 277.443345 
L 164.807353 277.157827 
L 165.699261 276.207047 
L 166.591169 276.207047 
L 167.483077 276.297743 
L 168.374985 276.297743 
L 169.266893 276.303991 
L 170.158801 276.377598 
L 171.050709 276.377598 
L 171.942617 276.377598 
L 172.834525 276.377598 
L 173.726434 276.377598 
L 174.618342 275.505907 
L 175.272026 274.164536 
L 174.618342 274.164536 
L 173.726434 274.164536 
L 172.834525 274.164536 
L 171.942617 274.164536 
L 171.050709 274.164536 
L 170.158801 274.164536 
L 169.266893 274.164536 
L 168.374985 273.306076 
L 167.483077 271.552277 
L 166.591169 270.047879 
L 165.699261 270.047879 
L 164.807353 270.047879 
L 163.915445 270.047879 
L 163.023536 270.047879 
L 162.131628 268.94941 
L 161.23972 268.94941 
L 160.347812 268.94941 
L 159.455904 268.94941 
L 158.563996 268.125881 
L 157.672088 268.125881 
L 156.78018 268.125881 
L 155.888272 268.125881 
L 154.996364 268.125881 
L 154.104456 268.125881 
L 153.212547 268.125881 
L 152.320639 268.125881 
L 151.428731 268.125881 
L 150.536823 268.125881 
L 149.644915 268.125881 
L 148.753007 268.125881 
L 147.861099 268.125881 
L 146.969191 268.125881 
L 146.077283 268.125881 
L 145.185375 268.125881 
L 144.293467 268.125881 
L 143.401558 268.125881 
L 142.50965 268.125881 
L 141.617742 268.125881 
L 140.725834 268.125881 
L 139.833926 268.125881 
L 138.942018 268.125881 
L 138.05011 268.125881 
L 137.158202 268.125881 
L 136.266294 253.049178 
L 135.374386 253.049178 
L 134.482478 252.820774 
L 133.590569 252.286734 
L 132.698661 250.837654 
L 131.806753 250.837654 
L 130.914845 250.837654 
L 130.022937 252.007487 
z
" style="fill:#ff0000;fill-opacity:0.5;"/>
    <path clip-path="url(#p859b0f0693)" d="M 235.607045 250.423376 
L 236.16 250.507069 
L 237.051908 251.278169 
L 237.943816 251.420336 
L 238.835724 251.471361 
L 239.727632 251.471361 
L 240.61954 251.753864 
L 241.511449 251.542213 
L 242.403357 251.314556 
L 243.295265 251.314556 
L 244.187173 251.314556 
L 245.079081 251.314556 
L 245.970989 251.314556 
L 246.862897 251.314556 
L 247.754805 251.139294 
L 248.646713 251.139294 
L 249.538621 251.210987 
L 250.430529 251.521769 
L 251.322438 251.656763 
L 252.214346 252.137821 
L 253.106254 252.137821 
L 253.998162 251.940906 
L 254.89007 251.274957 
L 255.781978 250.897877 
L 256.673886 250.686226 
L 257.565794 250.155131 
L 257.881085 249.738296 
L 257.565794 249.833995 
L 256.673886 249.833995 
L 255.781978 249.833995 
L 254.89007 248.274193 
L 253.998162 248.274193 
L 253.106254 248.274193 
L 252.214346 248.274193 
L 251.322438 248.274193 
L 250.430529 248.619906 
L 249.538621 248.882536 
L 248.646713 249.360876 
L 247.754805 249.360876 
L 246.862897 249.360876 
L 245.970989 249.360876 
L 245.079081 249.360876 
L 244.187173 249.360876 
L 243.295265 249.360876 
L 242.403357 249.360876 
L 241.511449 249.360876 
L 240.61954 249.360876 
L 239.727632 249.360876 
L 238.835724 249.360876 
L 237.943816 249.360876 
L 237.051908 249.595173 
L 236.16 249.595173 
z
" style="fill:#ff0000;fill-opacity:0.5;"/>
    <path clip-path="url(#p859b0f0693)" d="M 300.062503 236.16648 
L 300.377383 237.005866 
L 301.269291 237.860661 
L 302.161199 237.955504 
L 303.053107 237.386712 
L 303.945015 237.078906 
L 304.836923 236.659968 
L 305.728831 236.659968 
L 306.620739 235.951451 
L 307.512647 235.629989 
L 308.404555 235.629989 
L 309.296464 235.629989 
L 310.188372 235.091763 
L 311.08028 235.76392 
L 311.972188 235.76392 
L 312.864096 235.76392 
L 313.756004 235.76392 
L 314.647912 237.045513 
L 315.53982 238.310988 
L 316.431728 238.540026 
L 317.323636 238.540026 
L 318.215544 238.540026 
L 319.107453 237.764011 
L 319.999361 237.795076 
L 320.891269 237.795076 
L 321.783177 237.220489 
L 322.675085 237.220489 
L 323.566993 237.220489 
L 324.458901 236.979322 
L 325.350809 236.693003 
L 326.242717 235.535594 
L 327.134625 235.129757 
L 328.026533 234.229375 
L 328.918442 234.229375 
L 329.81035 234.229375 
L 329.955943 234.206238 
L 329.81035 234.206238 
L 328.918442 234.206238 
L 328.026533 234.206238 
L 327.134625 234.206238 
L 326.242717 234.206238 
L 325.350809 234.206238 
L 324.458901 234.196712 
L 323.566993 232.487121 
L 322.675085 232.487121 
L 321.783177 232.487121 
L 320.891269 232.487121 
L 319.999361 232.487121 
L 319.107453 232.487121 
L 318.215544 232.487121 
L 317.323636 232.487121 
L 316.431728 232.487121 
L 315.53982 232.487121 
L 314.647912 232.487121 
L 313.756004 232.487121 
L 312.864096 232.487121 
L 311.972188 232.487121 
L 311.08028 232.487121 
L 310.188372 232.487121 
L 309.296464 232.487121 
L 308.404555 232.487121 
L 307.512647 232.487121 
L 306.620739 232.487121 
L 305.728831 232.487121 
L 304.836923 232.487121 
L 303.945015 234.105428 
L 303.053107 234.662659 
L 302.161199 234.951906 
L 301.269291 235.117893 
L 300.377383 235.897804 
z
" style="fill:#ff0000;fill-opacity:0.5;"/>
   </g>
   <g id="matplotlib.axis_1">
    <g id="xtick_1">
     <g id="line2d_1">
      <defs>
       <path d="M 0 0 
L 0 3.5 
" id="mc4de0f8c15" style="stroke:#000000;stroke-width:0.8;"/>
      </defs>
      <g>
       <use style="stroke:#000000;stroke-width:0.8;" x="73.832727" xlink:href="#mc4de0f8c15" y="307.584"/>
      </g>
     </g>
     <g id="text_1">
      <!-- 2020-01 -->
      <g transform="translate(52.941321 322.182437)scale(0.1 -0.1)">
       <defs>
        <path d="M 19.1875 8.296875 
L 53.609375 8.296875 
L 53.609375 0 
L 7.328125 0 
L 7.328125 8.296875 
Q 12.9375 14.109375 22.625 23.890625 
Q 32.328125 33.6875 34.8125 36.53125 
Q 39.546875 41.84375 41.421875 45.53125 
Q 43.3125 49.21875 43.3125 52.78125 
Q 43.3125 58.59375 39.234375 62.25 
Q 35.15625 65.921875 28.609375 65.921875 
Q 23.96875 65.921875 18.8125 64.3125 
Q 13.671875 62.703125 7.8125 59.421875 
L 7.8125 69.390625 
Q 13.765625 71.78125 18.9375 73 
Q 24.125 74.21875 28.421875 74.21875 
Q 39.75 74.21875 46.484375 68.546875 
Q 53.21875 62.890625 53.21875 53.421875 
Q 53.21875 48.921875 51.53125 44.890625 
Q 49.859375 40.875 45.40625 35.40625 
Q 44.1875 33.984375 37.640625 27.21875 
Q 31.109375 20.453125 19.1875 8.296875 
z
" id="DejaVuSans-50"/>
        <path d="M 31.78125 66.40625 
Q 24.171875 66.40625 20.328125 58.90625 
Q 16.5 51.421875 16.5 36.375 
Q 16.5 21.390625 20.328125 13.890625 
Q 24.171875 6.390625 31.78125 6.390625 
Q 39.453125 6.390625 43.28125 13.890625 
Q 47.125 21.390625 47.125 36.375 
Q 47.125 51.421875 43.28125 58.90625 
Q 39.453125 66.40625 31.78125 66.40625 
z
M 31.78125 74.21875 
Q 44.046875 74.21875 50.515625 64.515625 
Q 56.984375 54.828125 56.984375 36.375 
Q 56.984375 17.96875 50.515625 8.265625 
Q 44.046875 -1.421875 31.78125 -1.421875 
Q 19.53125 -1.421875 13.0625 8.265625 
Q 6.59375 17.96875 6.59375 36.375 
Q 6.59375 54.828125 13.0625 64.515625 
Q 19.53125 74.21875 31.78125 74.21875 
z
" id="DejaVuSans-48"/>
        <path d="M 4.890625 31.390625 
L 31.203125 31.390625 
L 31.203125 23.390625 
L 4.890625 23.390625 
z
" id="DejaVuSans-45"/>
        <path d="M 12.40625 8.296875 
L 28.515625 8.296875 
L 28.515625 63.921875 
L 10.984375 60.40625 
L 10.984375 69.390625 
L 28.421875 72.90625 
L 38.28125 72.90625 
L 38.28125 8.296875 
L 54.390625 8.296875 
L 54.390625 0 
L 12.40625 0 
z
" id="DejaVuSans-49"/>
       </defs>
       <use xlink:href="#DejaVuSans-50"/>
       <use x="63.623047" xlink:href="#DejaVuSans-48"/>
       <use x="127.246094" xlink:href="#DejaVuSans-50"/>
       <use x="190.869141" xlink:href="#DejaVuSans-48"/>
       <use x="254.492188" xlink:href="#DejaVuSans-45"/>
       <use x="290.576172" xlink:href="#DejaVuSans-48"/>
       <use x="354.199219" xlink:href="#DejaVuSans-49"/>
      </g>
     </g>
    </g>
    <g id="xtick_2">
     <g id="line2d_2">
      <g>
       <use style="stroke:#000000;stroke-width:0.8;" x="127.347213" xlink:href="#mc4de0f8c15" y="307.584"/>
      </g>
     </g>
     <g id="text_2">
      <!-- 2020-03 -->
      <g transform="translate(106.455807 322.182437)scale(0.1 -0.1)">
       <defs>
        <path d="M 40.578125 39.3125 
Q 47.65625 37.796875 51.625 33 
Q 55.609375 28.21875 55.609375 21.1875 
Q 55.609375 10.40625 48.1875 4.484375 
Q 40.765625 -1.421875 27.09375 -1.421875 
Q 22.515625 -1.421875 17.65625 -0.515625 
Q 12.796875 0.390625 7.625 2.203125 
L 7.625 11.71875 
Q 11.71875 9.328125 16.59375 8.109375 
Q 21.484375 6.890625 26.8125 6.890625 
Q 36.078125 6.890625 40.9375 10.546875 
Q 45.796875 14.203125 45.796875 21.1875 
Q 45.796875 27.640625 41.28125 31.265625 
Q 36.765625 34.90625 28.71875 34.90625 
L 20.21875 34.90625 
L 20.21875 43.015625 
L 29.109375 43.015625 
Q 36.375 43.015625 40.234375 45.921875 
Q 44.09375 48.828125 44.09375 54.296875 
Q 44.09375 59.90625 40.109375 62.90625 
Q 36.140625 65.921875 28.71875 65.921875 
Q 24.65625 65.921875 20.015625 65.03125 
Q 15.375 64.15625 9.8125 62.3125 
L 9.8125 71.09375 
Q 15.4375 72.65625 20.34375 73.4375 
Q 25.25 74.21875 29.59375 74.21875 
Q 40.828125 74.21875 47.359375 69.109375 
Q 53.90625 64.015625 53.90625 55.328125 
Q 53.90625 49.265625 50.4375 45.09375 
Q 46.96875 40.921875 40.578125 39.3125 
z
" id="DejaVuSans-51"/>
       </defs>
       <use xlink:href="#DejaVuSans-50"/>
       <use x="63.623047" xlink:href="#DejaVuSans-48"/>
       <use x="127.246094" xlink:href="#DejaVuSans-50"/>
       <use x="190.869141" xlink:href="#DejaVuSans-48"/>
       <use x="254.492188" xlink:href="#DejaVuSans-45"/>
       <use x="290.576172" xlink:href="#DejaVuSans-48"/>
       <use x="354.199219" xlink:href="#DejaVuSans-51"/>
      </g>
     </g>
    </g>
    <g id="xtick_3">
     <g id="line2d_3">
      <g>
       <use style="stroke:#000000;stroke-width:0.8;" x="181.753606" xlink:href="#mc4de0f8c15" y="307.584"/>
      </g>
     </g>
     <g id="text_3">
      <!-- 2020-05 -->
      <g transform="translate(160.8622 322.182437)scale(0.1 -0.1)">
       <defs>
        <path d="M 10.796875 72.90625 
L 49.515625 72.90625 
L 49.515625 64.59375 
L 19.828125 64.59375 
L 19.828125 46.734375 
Q 21.96875 47.46875 24.109375 47.828125 
Q 26.265625 48.1875 28.421875 48.1875 
Q 40.625 48.1875 47.75 41.5 
Q 54.890625 34.8125 54.890625 23.390625 
Q 54.890625 11.625 47.5625 5.09375 
Q 40.234375 -1.421875 26.90625 -1.421875 
Q 22.3125 -1.421875 17.546875 -0.640625 
Q 12.796875 0.140625 7.71875 1.703125 
L 7.71875 11.625 
Q 12.109375 9.234375 16.796875 8.0625 
Q 21.484375 6.890625 26.703125 6.890625 
Q 35.15625 6.890625 40.078125 11.328125 
Q 45.015625 15.765625 45.015625 23.390625 
Q 45.015625 31 40.078125 35.4375 
Q 35.15625 39.890625 26.703125 39.890625 
Q 22.75 39.890625 18.8125 39.015625 
Q 14.890625 38.140625 10.796875 36.28125 
z
" id="DejaVuSans-53"/>
       </defs>
       <use xlink:href="#DejaVuSans-50"/>
       <use x="63.623047" xlink:href="#DejaVuSans-48"/>
       <use x="127.246094" xlink:href="#DejaVuSans-50"/>
       <use x="190.869141" xlink:href="#DejaVuSans-48"/>
       <use x="254.492188" xlink:href="#DejaVuSans-45"/>
       <use x="290.576172" xlink:href="#DejaVuSans-48"/>
       <use x="354.199219" xlink:href="#DejaVuSans-53"/>
      </g>
     </g>
    </g>
    <g id="xtick_4">
     <g id="line2d_4">
      <g>
       <use style="stroke:#000000;stroke-width:0.8;" x="236.16" xlink:href="#mc4de0f8c15" y="307.584"/>
      </g>
     </g>
     <g id="text_4">
      <!-- 2020-07 -->
      <g transform="translate(215.268594 322.182437)scale(0.1 -0.1)">
       <defs>
        <path d="M 8.203125 72.90625 
L 55.078125 72.90625 
L 55.078125 68.703125 
L 28.609375 0 
L 18.3125 0 
L 43.21875 64.59375 
L 8.203125 64.59375 
z
" id="DejaVuSans-55"/>
       </defs>
       <use xlink:href="#DejaVuSans-50"/>
       <use x="63.623047" xlink:href="#DejaVuSans-48"/>
       <use x="127.246094" xlink:href="#DejaVuSans-50"/>
       <use x="190.869141" xlink:href="#DejaVuSans-48"/>
       <use x="254.492188" xlink:href="#DejaVuSans-45"/>
       <use x="290.576172" xlink:href="#DejaVuSans-48"/>
       <use x="354.199219" xlink:href="#DejaVuSans-55"/>
      </g>
     </g>
    </g>
    <g id="xtick_5">
     <g id="line2d_5">
      <g>
       <use style="stroke:#000000;stroke-width:0.8;" x="291.458302" xlink:href="#mc4de0f8c15" y="307.584"/>
      </g>
     </g>
     <g id="text_5">
      <!-- 2020-09 -->
      <g transform="translate(270.566895 322.182437)scale(0.1 -0.1)">
       <defs>
        <path d="M 10.984375 1.515625 
L 10.984375 10.5 
Q 14.703125 8.734375 18.5 7.8125 
Q 22.3125 6.890625 25.984375 6.890625 
Q 35.75 6.890625 40.890625 13.453125 
Q 46.046875 20.015625 46.78125 33.40625 
Q 43.953125 29.203125 39.59375 26.953125 
Q 35.25 24.703125 29.984375 24.703125 
Q 19.046875 24.703125 12.671875 31.3125 
Q 6.296875 37.9375 6.296875 49.421875 
Q 6.296875 60.640625 12.9375 67.421875 
Q 19.578125 74.21875 30.609375 74.21875 
Q 43.265625 74.21875 49.921875 64.515625 
Q 56.59375 54.828125 56.59375 36.375 
Q 56.59375 19.140625 48.40625 8.859375 
Q 40.234375 -1.421875 26.421875 -1.421875 
Q 22.703125 -1.421875 18.890625 -0.6875 
Q 15.09375 0.046875 10.984375 1.515625 
z
M 30.609375 32.421875 
Q 37.25 32.421875 41.125 36.953125 
Q 45.015625 41.5 45.015625 49.421875 
Q 45.015625 57.28125 41.125 61.84375 
Q 37.25 66.40625 30.609375 66.40625 
Q 23.96875 66.40625 20.09375 61.84375 
Q 16.21875 57.28125 16.21875 49.421875 
Q 16.21875 41.5 20.09375 36.953125 
Q 23.96875 32.421875 30.609375 32.421875 
z
" id="DejaVuSans-57"/>
       </defs>
       <use xlink:href="#DejaVuSans-50"/>
       <use x="63.623047" xlink:href="#DejaVuSans-48"/>
       <use x="127.246094" xlink:href="#DejaVuSans-50"/>
       <use x="190.869141" xlink:href="#DejaVuSans-48"/>
       <use x="254.492188" xlink:href="#DejaVuSans-45"/>
       <use x="290.576172" xlink:href="#DejaVuSans-48"/>
       <use x="354.199219" xlink:href="#DejaVuSans-57"/>
      </g>
     </g>
    </g>
    <g id="xtick_6">
     <g id="line2d_6">
      <g>
       <use style="stroke:#000000;stroke-width:0.8;" x="345.864695" xlink:href="#mc4de0f8c15" y="307.584"/>
      </g>
     </g>
     <g id="text_6">
      <!-- 2020-11 -->
      <g transform="translate(324.973289 322.182437)scale(0.1 -0.1)">
       <use xlink:href="#DejaVuSans-50"/>
       <use x="63.623047" xlink:href="#DejaVuSans-48"/>
       <use x="127.246094" xlink:href="#DejaVuSans-50"/>
       <use x="190.869141" xlink:href="#DejaVuSans-48"/>
       <use x="254.492188" xlink:href="#DejaVuSans-45"/>
       <use x="290.576172" xlink:href="#DejaVuSans-49"/>
       <use x="354.199219" xlink:href="#DejaVuSans-49"/>
      </g>
     </g>
    </g>
    <g id="xtick_7">
     <g id="line2d_7">
      <g>
       <use style="stroke:#000000;stroke-width:0.8;" x="400.271089" xlink:href="#mc4de0f8c15" y="307.584"/>
      </g>
     </g>
     <g id="text_7">
      <!-- 2021-01 -->
      <g transform="translate(379.379683 322.182437)scale(0.1 -0.1)">
       <use xlink:href="#DejaVuSans-50"/>
       <use x="63.623047" xlink:href="#DejaVuSans-48"/>
       <use x="127.246094" xlink:href="#DejaVuSans-50"/>
       <use x="190.869141" xlink:href="#DejaVuSans-49"/>
       <use x="254.492188" xlink:href="#DejaVuSans-45"/>
       <use x="290.576172" xlink:href="#DejaVuSans-48"/>
       <use x="354.199219" xlink:href="#DejaVuSans-49"/>
      </g>
     </g>
    </g>
   </g>
   <g id="matplotlib.axis_2">
    <g id="ytick_1">
     <g id="line2d_8">
      <defs>
       <path d="M 0 0 
L -3.5 0 
" id="md6fe25f86e" style="stroke:#000000;stroke-width:0.8;"/>
      </defs>
      <g>
       <use style="stroke:#000000;stroke-width:0.8;" x="57.6" xlink:href="#md6fe25f86e" y="294.639574"/>
      </g>
     </g>
     <g id="text_8">
      <!-- 5000 -->
      <g transform="translate(25.15 298.438792)scale(0.1 -0.1)">
       <use xlink:href="#DejaVuSans-53"/>
       <use x="63.623047" xlink:href="#DejaVuSans-48"/>
       <use x="127.246094" xlink:href="#DejaVuSans-48"/>
       <use x="190.869141" xlink:href="#DejaVuSans-48"/>
      </g>
     </g>
    </g>
    <g id="ytick_2">
     <g id="line2d_9">
      <g>
       <use style="stroke:#000000;stroke-width:0.8;" x="57.6" xlink:href="#md6fe25f86e" y="244.133755"/>
      </g>
     </g>
     <g id="text_9">
      <!-- 10000 -->
      <g transform="translate(18.7875 247.932974)scale(0.1 -0.1)">
       <use xlink:href="#DejaVuSans-49"/>
       <use x="63.623047" xlink:href="#DejaVuSans-48"/>
       <use x="127.246094" xlink:href="#DejaVuSans-48"/>
       <use x="190.869141" xlink:href="#DejaVuSans-48"/>
       <use x="254.492188" xlink:href="#DejaVuSans-48"/>
      </g>
     </g>
    </g>
    <g id="ytick_3">
     <g id="line2d_10">
      <g>
       <use style="stroke:#000000;stroke-width:0.8;" x="57.6" xlink:href="#md6fe25f86e" y="193.627936"/>
      </g>
     </g>
     <g id="text_10">
      <!-- 15000 -->
      <g transform="translate(18.7875 197.427155)scale(0.1 -0.1)">
       <use xlink:href="#DejaVuSans-49"/>
       <use x="63.623047" xlink:href="#DejaVuSans-53"/>
       <use x="127.246094" xlink:href="#DejaVuSans-48"/>
       <use x="190.869141" xlink:href="#DejaVuSans-48"/>
       <use x="254.492188" xlink:href="#DejaVuSans-48"/>
      </g>
     </g>
    </g>
    <g id="ytick_4">
     <g id="line2d_11">
      <g>
       <use style="stroke:#000000;stroke-width:0.8;" x="57.6" xlink:href="#md6fe25f86e" y="143.122117"/>
      </g>
     </g>
     <g id="text_11">
      <!-- 20000 -->
      <g transform="translate(18.7875 146.921336)scale(0.1 -0.1)">
       <use xlink:href="#DejaVuSans-50"/>
       <use x="63.623047" xlink:href="#DejaVuSans-48"/>
       <use x="127.246094" xlink:href="#DejaVuSans-48"/>
       <use x="190.869141" xlink:href="#DejaVuSans-48"/>
       <use x="254.492188" xlink:href="#DejaVuSans-48"/>
      </g>
     </g>
    </g>
    <g id="ytick_5">
     <g id="line2d_12">
      <g>
       <use style="stroke:#000000;stroke-width:0.8;" x="57.6" xlink:href="#md6fe25f86e" y="92.616298"/>
      </g>
     </g>
     <g id="text_12">
      <!-- 25000 -->
      <g transform="translate(18.7875 96.415517)scale(0.1 -0.1)">
       <use xlink:href="#DejaVuSans-50"/>
       <use x="63.623047" xlink:href="#DejaVuSans-53"/>
       <use x="127.246094" xlink:href="#DejaVuSans-48"/>
       <use x="190.869141" xlink:href="#DejaVuSans-48"/>
       <use x="254.492188" xlink:href="#DejaVuSans-48"/>
      </g>
     </g>
    </g>
    <g id="ytick_6">
     <g id="line2d_13">
      <g>
       <use style="stroke:#000000;stroke-width:0.8;" x="57.6" xlink:href="#md6fe25f86e" y="42.11048"/>
      </g>
     </g>
     <g id="text_13">
      <!-- 30000 -->
      <g transform="translate(18.7875 45.909698)scale(0.1 -0.1)">
       <use xlink:href="#DejaVuSans-51"/>
       <use x="63.623047" xlink:href="#DejaVuSans-48"/>
       <use x="127.246094" xlink:href="#DejaVuSans-48"/>
       <use x="190.869141" xlink:href="#DejaVuSans-48"/>
       <use x="254.492188" xlink:href="#DejaVuSans-48"/>
      </g>
     </g>
    </g>
   </g>
   <g id="line2d_14">
    <path clip-path="url(#p859b0f0693)" d="M 73.832727 272.522688 
L 74.724635 274.809277 
L 75.616543 270.966583 
L 77.40036 270.870702 
L 79.184176 262.765679 
L 80.076084 263.98453 
L 80.967992 266.226347 
L 81.8599 262.512072 
L 82.751808 264.218165 
L 83.643716 262.60776 
L 84.535624 263.323303 
L 85.427532 256.310068 
L 86.319441 256.32038 
L 87.211349 257.172337 
L 88.103257 255.405743 
L 88.995165 255.300281 
L 89.887073 257.344542 
L 90.778981 257.991435 
L 91.670889 257.025404 
L 92.562797 257.72932 
L 93.454705 260.345738 
L 94.346613 259.936019 
L 95.238521 260.936305 
L 97.022338 255.314393 
L 97.914246 250.399861 
L 98.806154 251.368901 
L 99.698062 249.234393 
L 100.58997 250.883205 
L 101.481878 250.473099 
L 103.265694 251.334963 
L 104.157602 252.518821 
L 105.04951 248.098332 
L 105.941419 246.697278 
L 106.833327 246.092688 
L 107.725235 245.24838 
L 108.617143 242.61318 
L 109.509051 245.631211 
L 110.400959 241.60222 
L 111.292867 240.727334 
L 112.184775 241.859482 
L 113.076683 240.637222 
L 113.968591 245.143599 
L 114.8605 244.903479 
L 115.752408 247.113225 
L 116.644316 242.323795 
L 117.536224 248.157521 
L 118.428132 248.039584 
L 119.32004 247.303073 
L 120.211948 247.553385 
L 121.103856 244.496034 
L 121.995764 247.559244 
L 122.887672 251.084349 
L 123.77958 256.333095 
L 124.671489 256.163216 
L 125.563397 257.206802 
L 126.455305 258.880872 
L 127.347213 258.883928 
L 128.239121 255.044966 
L 129.131029 256.625161 
L 130.022937 256.546262 
L 130.914845 253.590236 
L 131.806753 252.694175 
L 132.698661 255.148183 
L 133.590569 263.818425 
L 134.482478 264.87497 
L 135.374386 265.215146 
L 136.266294 264.811572 
L 137.158202 295.488 
L 138.05011 288.021641 
L 138.942018 292.561251 
L 139.833926 290.900822 
L 140.725834 294.105166 
L 141.617742 291.040707 
L 142.50965 290.395222 
L 143.401558 282.471206 
L 145.185375 282.517107 
L 146.077283 286.371126 
L 146.969191 279.605382 
L 147.861099 276.866987 
L 148.753007 277.601202 
L 149.644915 277.293744 
L 150.536823 279.135062 
L 151.428731 282.076241 
L 152.320639 285.692086 
L 153.212547 279.539798 
L 154.104456 280.141686 
L 154.996364 277.794058 
L 155.888272 276.252492 
L 156.78018 277.03706 
L 157.672088 275.761453 
L 158.563996 276.686929 
L 159.455904 271.252526 
L 160.347812 271.688187 
L 161.23972 270.86463 
L 162.131628 271.405098 
L 163.023536 275.505401 
L 163.915445 275.895823 
L 164.807353 274.128429 
L 165.699261 276.350096 
L 166.591169 275.67318 
L 167.483077 277.613946 
L 168.374985 273.584755 
L 169.266893 273.848113 
L 170.158801 271.998481 
L 171.050709 272.903895 
L 171.942617 275.72904 
L 172.834525 275.851906 
L 173.726434 273.060547 
L 174.618342 269.180701 
L 175.51025 269.385101 
L 177.294066 267.843624 
L 178.185974 267.079895 
L 179.077882 266.957782 
L 179.96979 259.046398 
L 180.861698 257.419555 
L 181.753606 256.257919 
L 182.645514 254.833915 
L 183.537423 255.53663 
L 184.429331 255.796491 
L 185.321239 254.5675 
L 186.213147 252.121917 
L 187.105055 247.350724 
L 187.996963 245.157112 
L 188.888871 247.593695 
L 189.780779 258.182592 
L 190.672687 257.044508 
L 191.564595 256.549322 
L 193.348412 247.328929 
L 194.24032 250.050378 
L 195.132228 250.003033 
L 196.024136 246.99522 
L 196.916044 247.502787 
L 197.807952 246.363898 
L 198.69986 247.804507 
L 199.591768 252.208646 
L 200.483676 252.471626 
L 201.375584 252.429879 
L 202.267493 254.636137 
L 203.159401 255.897258 
L 204.051309 255.781787 
L 204.943217 253.619559 
L 205.835125 250.378506 
L 206.727033 249.875978 
L 207.618941 248.000517 
L 208.510849 249.251226 
L 209.402757 245.377937 
L 210.294665 245.791557 
L 211.186573 247.889224 
L 212.078482 247.649651 
L 212.97039 246.817902 
L 213.862298 247.388774 
L 214.754206 247.331531 
L 215.646114 246.640626 
L 216.538022 246.962313 
L 217.42993 246.098837 
L 218.321838 248.756019 
L 219.213746 249.426029 
L 220.105654 249.655906 
L 220.997562 250.406014 
L 221.889471 251.428429 
L 222.781379 249.053279 
L 224.565195 250.013044 
L 225.457103 251.277219 
L 226.349011 250.850144 
L 227.240919 251.064338 
L 228.132827 248.468703 
L 229.024735 248.148708 
L 229.916643 250.102101 
L 230.808551 251.579248 
L 231.70046 252.753823 
L 232.592368 253.333366 
L 233.484276 253.671323 
L 234.376184 252.80948 
L 235.268092 252.783145 
L 236.16 252.288261 
L 237.051908 252.730819 
L 237.943816 253.416266 
L 238.835724 253.110485 
L 239.727632 253.440318 
L 240.61954 251.528113 
L 241.511449 251.560301 
L 242.403357 250.687271 
L 243.295265 250.934686 
L 244.187173 252.05832 
L 245.970989 251.311527 
L 246.862897 251.543776 
L 247.754805 251.986223 
L 248.646713 252.183751 
L 249.538621 252.917783 
L 250.430529 252.843181 
L 252.214346 252.376056 
L 253.106254 252.47555 
L 253.998162 251.284053 
L 254.89007 249.743204 
L 255.781978 248.586213 
L 256.673886 248.75659 
L 257.565794 247.61477 
L 258.457702 245.923929 
L 259.34961 237.545805 
L 260.241518 234.460213 
L 261.133427 233.627532 
L 262.025335 233.277452 
L 262.917243 231.991802 
L 263.809151 228.148725 
L 264.701059 232.203619 
L 266.484875 231.687267 
L 267.376783 229.214462 
L 268.268691 226.095759 
L 270.052507 227.264712 
L 270.944416 227.182491 
L 271.836324 224.395764 
L 272.728232 227.778695 
L 273.62014 229.432253 
L 274.512048 227.244186 
L 275.403956 226.338996 
L 276.295864 225.196153 
L 277.187772 224.878971 
L 278.07968 223.274859 
L 278.971588 222.605626 
L 279.863497 225.385062 
L 280.755405 225.492387 
L 281.647313 228.277217 
L 282.539221 227.210075 
L 283.431129 227.643325 
L 284.323037 226.440563 
L 285.214945 230.436928 
L 286.106853 229.384767 
L 286.998761 230.783795 
L 287.890669 229.040609 
L 288.782577 228.986558 
L 289.674486 227.119166 
L 290.566394 227.225171 
L 291.458302 224.449985 
L 292.35021 227.864239 
L 293.242118 236.509921 
L 294.134026 240.210963 
L 295.025934 240.979227 
L 295.917842 242.176689 
L 296.80975 241.335933 
L 297.701658 241.804929 
L 298.593566 242.804541 
L 299.485475 240.620191 
L 300.377383 240.209687 
L 301.269291 239.665015 
L 302.161199 240.819645 
L 303.053107 237.295431 
L 303.945015 235.926233 
L 304.836923 234.058654 
L 305.728831 234.669726 
L 306.620739 234.646758 
L 307.512647 233.337469 
L 308.404555 235.156825 
L 309.296464 239.240816 
L 310.188372 238.652912 
L 311.08028 241.525963 
L 311.972188 237.019858 
L 312.864096 236.919505 
L 316.431728 236.062514 
L 317.323636 236.449477 
L 318.215544 237.813633 
L 319.107453 238.315836 
L 319.999361 238.493955 
L 321.783177 236.365847 
L 322.675085 237.982262 
L 323.566993 237.488408 
L 324.458901 234.906882 
L 325.350809 233.496168 
L 326.242717 231.00542 
L 327.134625 230.232524 
L 328.026533 228.571064 
L 328.918442 229.589793 
L 329.81035 229.704268 
L 330.702258 228.828404 
L 331.594166 230.713753 
L 332.486074 230.281479 
L 333.377982 228.814187 
L 334.26989 226.433043 
L 335.161798 224.744434 
L 336.053706 215.855375 
L 336.945614 213.951759 
L 337.837522 214.530159 
L 338.729431 212.592138 
L 339.621339 213.439132 
L 340.513247 213.076577 
L 341.405155 207.222087 
L 342.297063 210.949559 
L 343.188971 209.09739 
L 344.080879 208.070798 
L 344.972787 205.746111 
L 345.864695 206.096371 
L 346.756603 208.086064 
L 347.648511 203.637723 
L 348.54042 202.109529 
L 349.432328 187.854816 
L 350.324236 187.746116 
L 351.216144 195.256909 
L 352.108052 188.752827 
L 352.99996 190.068036 
L 353.891868 190.466232 
L 354.783776 186.449138 
L 355.675684 180.536569 
L 356.567592 180.300117 
L 357.4595 182.733825 
L 358.351409 183.840913 
L 359.243317 176.330728 
L 360.135225 166.671116 
L 361.027133 165.480633 
L 361.919041 165.146052 
L 362.810949 156.54147 
L 363.702857 156.438785 
L 364.594765 159.153669 
L 365.486673 159.500706 
L 366.378581 151.952747 
L 367.27049 156.006226 
L 368.162398 171.561768 
L 369.054306 171.869272 
L 369.946214 165.961786 
L 370.838122 161.367712 
L 371.73003 146.247275 
L 372.621938 155.44502 
L 373.513846 150.998114 
L 374.405754 148.847233 
L 375.297662 156.516121 
L 376.18957 151.597994 
L 377.081479 149.32152 
L 377.973387 151.30878 
L 378.865295 159.969176 
L 379.757203 157.624725 
L 380.649111 160.807804 
L 381.541019 162.833313 
L 382.432927 155.079142 
L 383.324835 151.622812 
L 384.216743 150.502791 
L 385.108651 148.826436 
L 386.000559 129.676551 
L 386.892468 114.933202 
L 387.784376 111.493904 
L 388.676284 104.437644 
L 389.568192 107.882813 
L 390.4601 115.461777 
L 391.352008 104.266584 
L 392.243916 110.191876 
L 393.135824 105.383681 
L 394.027732 95.688205 
L 394.91964 78.062683 
L 395.811548 79.788785 
L 396.703457 71.771259 
L 397.595365 68.775125 
L 398.487273 53.568 
L 398.487273 53.568 
" style="fill:none;stroke:#000000;stroke-linecap:square;stroke-width:1.5;"/>
   </g>
   <g id="line2d_15">
    <path clip-path="url(#p859b0f0693)" d="M 80.967992 268.807152 
L 81.8599 268.712654 
L 82.751808 266.768121 
L 84.535624 266.718971 
L 85.427532 261.590965 
L 86.319441 261.312687 
L 87.211349 261.312687 
L 88.103257 260.826668 
L 88.995165 259.76875 
L 89.887073 259.76875 
L 90.778981 259.318987 
L 91.670889 259.318987 
L 92.562797 256.663341 
L 93.454705 257.871153 
L 94.346613 257.871153 
L 95.238521 258.149154 
L 97.022338 258.164966 
L 97.914246 255.734142 
L 98.806154 255.734142 
L 99.698062 255.151772 
L 102.373786 255.151772 
L 104.157602 252.301199 
L 105.04951 250.310824 
L 105.941419 249.602423 
L 107.725235 248.896524 
L 108.617143 247.592784 
L 109.509051 247.592784 
L 111.292867 246.649722 
L 112.184775 244.437231 
L 113.076683 243.698935 
L 114.8605 243.182909 
L 115.752408 243.923517 
L 116.644316 243.923517 
L 117.536224 244.492213 
L 120.211948 244.492213 
L 121.103856 245.315743 
L 121.995764 245.315743 
L 122.887672 246.727683 
L 123.77958 249.373178 
L 124.671489 250.471647 
L 125.563397 250.847704 
L 126.455305 251.742988 
L 128.239121 251.742988 
L 129.131029 253.247386 
L 130.022937 255.001185 
L 130.914845 256.291674 
L 131.806753 255.859644 
L 132.698661 255.859644 
L 133.590569 258.325389 
L 134.482478 258.859429 
L 135.374386 259.087833 
L 136.266294 259.087833 
L 137.158202 274.164536 
L 138.942018 274.164536 
L 139.833926 275.309433 
L 140.725834 279.657572 
L 141.617742 280.150619 
L 143.401558 280.150619 
L 144.293467 288.866177 
L 145.185375 288.211656 
L 146.077283 288.211656 
L 147.861099 285.569662 
L 148.753007 284.087746 
L 149.644915 283.711334 
L 150.536823 281.731262 
L 153.212547 281.731262 
L 154.104456 281.335616 
L 154.996364 281.335616 
L 155.888272 281.055814 
L 156.78018 281.055814 
L 157.672088 280.766116 
L 158.563996 280.766116 
L 159.455904 278.402853 
L 160.347812 275.534409 
L 161.23972 275.365708 
L 162.131628 274.244479 
L 163.023536 273.900408 
L 163.915445 273.900408 
L 164.807353 273.705784 
L 168.374985 273.965687 
L 169.266893 274.37383 
L 170.158801 274.521045 
L 173.726434 274.521045 
L 174.618342 273.371674 
L 175.51025 272.648282 
L 176.402158 272.412598 
L 177.294066 271.61055 
L 178.185974 271.209125 
L 179.077882 271.209125 
L 179.96979 266.201305 
L 180.861698 264.781839 
L 181.753606 262.665453 
L 182.645514 261.846875 
L 183.537423 261.363509 
L 184.429331 261.34313 
L 185.321239 260.759135 
L 186.213147 259.823032 
L 187.105055 252.918991 
L 187.996963 250.558854 
L 188.888871 250.403182 
L 189.780779 251.949279 
L 194.24032 251.949279 
L 195.132228 252.840145 
L 196.024136 252.971098 
L 196.916044 252.971098 
L 197.807952 251.635219 
L 198.69986 251.635219 
L 199.591768 249.770291 
L 200.483676 249.373316 
L 202.267493 249.454601 
L 203.159401 251.482208 
L 204.943217 251.482208 
L 205.835125 252.558388 
L 206.727033 252.558388 
L 207.618941 251.912066 
L 208.510849 251.912066 
L 209.402757 249.360876 
L 210.294665 249.360876 
L 211.186573 248.882536 
L 212.078482 248.619906 
L 212.97039 247.180995 
L 213.862298 245.966759 
L 214.754206 245.556728 
L 216.538022 245.556728 
L 217.42993 247.116529 
L 218.321838 247.116529 
L 220.105654 247.607256 
L 220.997562 247.660249 
L 221.889471 249.097872 
L 224.565195 249.097872 
L 225.457103 250.838597 
L 227.240919 250.838597 
L 228.132827 250.174032 
L 229.024735 250.174032 
L 229.916643 249.472506 
L 230.808551 249.482725 
L 231.70046 250.223022 
L 232.592368 250.223022 
L 233.484276 250.910154 
L 235.268092 250.910154 
L 236.16 251.180143 
L 237.051908 252.722343 
L 237.943816 253.006677 
L 239.727632 253.108728 
L 241.511449 252.174272 
L 242.403357 251.718958 
L 246.862897 251.718958 
L 247.754805 251.368435 
L 248.646713 251.368435 
L 249.538621 251.511821 
L 250.430529 252.133383 
L 253.106254 252.133383 
L 253.998162 251.739552 
L 254.89007 250.959737 
L 255.781978 250.582657 
L 256.673886 250.582657 
L 257.565794 250.036676 
L 258.457702 248.811966 
L 259.34961 243.325641 
L 260.241518 243.177835 
L 261.133427 242.597302 
L 262.025335 241.836268 
L 263.809151 237.288645 
L 264.701059 236.999398 
L 265.592967 236.442168 
L 266.484875 233.470304 
L 267.376783 230.025807 
L 268.268691 230.025807 
L 269.160599 229.808632 
L 270.052507 229.808632 
L 270.944416 229.106879 
L 271.836324 228.667723 
L 272.728232 228.667723 
L 273.62014 228.389663 
L 274.512048 228.389663 
L 275.403956 227.770916 
L 277.187772 227.739217 
L 278.07968 225.873333 
L 280.755405 225.873333 
L 281.647313 224.746624 
L 283.431129 224.655492 
L 284.323037 224.655492 
L 285.214945 225.687896 
L 286.106853 227.397487 
L 286.998761 228.178167 
L 287.890669 228.178167 
L 288.782577 228.672373 
L 290.566394 228.672373 
L 291.458302 227.793913 
L 293.242118 227.793913 
L 294.134026 232.89259 
L 295.025934 232.89259 
L 295.917842 233.812595 
L 297.701658 233.812595 
L 298.593566 234.206238 
L 299.485475 236.769425 
L 300.377383 241.524611 
L 301.269291 241.524611 
L 302.161199 241.704771 
L 303.053107 240.567186 
L 303.945015 239.951573 
L 304.836923 239.113698 
L 305.728831 239.113698 
L 306.620739 237.696664 
L 307.512647 237.053741 
L 309.296464 237.053741 
L 310.188372 235.977289 
L 311.08028 237.321601 
L 314.647912 237.321601 
L 315.53982 238.1512 
L 316.431728 238.609277 
L 318.215544 238.609277 
L 319.107453 237.057247 
L 320.891269 237.119377 
L 323.566993 237.119377 
L 325.350809 236.064404 
L 326.242717 234.790644 
L 327.134625 234.384807 
L 328.026533 233.397056 
L 329.81035 233.397056 
L 330.702258 233.113575 
L 331.594166 231.841633 
L 332.486074 231.003558 
L 334.26989 228.620071 
L 335.161798 227.761921 
L 336.053706 223.360363 
L 336.945614 222.347745 
L 337.837522 222.347745 
L 338.729431 221.690929 
L 339.621339 221.466726 
L 340.513247 220.724021 
L 341.405155 216.718258 
L 342.297063 215.8878 
L 343.188971 211.400299 
L 345.864695 209.574907 
L 346.756603 209.574907 
L 347.648511 208.50124 
L 348.54042 206.565944 
L 349.432328 199.557528 
L 350.324236 198.499841 
L 351.216144 197.958788 
L 353.891868 197.957282 
L 354.783776 194.91265 
L 356.567592 187.807294 
L 358.351409 187.807294 
L 360.135225 178.605094 
L 361.027133 177.96478 
L 361.919041 175.795398 
L 362.810949 170.214347 
L 365.486673 170.214347 
L 366.378581 164.279517 
L 367.27049 159.452524 
L 368.162398 161.946754 
L 369.054306 162.078987 
L 370.838122 162.078987 
L 371.73003 159.135316 
L 376.18957 159.135316 
L 377.081479 156.197578 
L 377.973387 153.881482 
L 378.865295 153.245075 
L 379.757203 154.542842 
L 380.649111 154.879363 
L 381.541019 155.971104 
L 382.432927 156.124401 
L 384.216743 156.124401 
L 385.108651 155.921426 
L 386.000559 146.394406 
L 386.892468 139.037205 
L 387.784376 137.219169 
L 389.568192 129.812997 
L 390.4601 128.006446 
L 392.243916 126.351558 
L 393.135824 116.728693 
L 394.027732 105.736725 
L 394.91964 96.889864 
L 395.811548 96.889864 
L 396.703457 93.608165 
L 397.595365 92.188376 
L 398.487273 82.139277 
L 398.487273 82.139277 
" style="fill:none;stroke:#dc143c;stroke-linecap:square;stroke-width:1.5;"/>
   </g>
   <g id="line2d_16">
    <path clip-path="url(#p859b0f0693)" d="M 96.13043 265.096398 
L 97.022338 265.096398 
L 97.914246 260.736853 
L 98.806154 260.690009 
L 99.698062 260.105333 
L 100.58997 258.057254 
L 101.481878 257.778976 
L 103.265694 257.778976 
L 104.157602 256.771368 
L 105.04951 256.163993 
L 105.941419 255.005831 
L 106.833327 254.694427 
L 107.725235 253.130099 
L 108.617143 251.826358 
L 109.509051 251.826358 
L 111.292867 250.883297 
L 117.536224 250.837654 
L 119.32004 247.987081 
L 120.211948 246.60408 
L 122.887672 246.60408 
L 123.77958 248.549648 
L 124.671489 248.549648 
L 125.563397 248.925706 
L 126.455305 249.82099 
L 132.698661 249.82099 
L 133.590569 252.286734 
L 134.482478 252.820774 
L 135.374386 253.049178 
L 136.266294 253.872708 
L 137.158202 268.94941 
L 138.942018 268.94941 
L 139.833926 270.047879 
L 143.401558 270.047879 
L 144.293467 271.552277 
L 145.185375 273.306076 
L 146.077283 274.164536 
L 154.104456 274.164536 
L 154.996364 275.309433 
L 155.888272 279.657572 
L 156.78018 280.150619 
L 158.563996 280.150619 
L 159.455904 283.291421 
L 160.347812 282.6369 
L 161.23972 282.468199 
L 163.023536 282.468199 
L 163.915445 280.986282 
L 164.807353 280.60987 
L 165.699261 278.629798 
L 168.374985 278.629798 
L 169.266893 278.234152 
L 173.726434 278.234152 
L 174.618342 277.64014 
L 175.51025 274.703111 
L 176.402158 274.467428 
L 177.294066 272.54415 
L 178.185974 271.863932 
L 179.077882 271.863932 
L 179.96979 266.856113 
L 180.861698 266.856113 
L 181.753606 266.583442 
L 182.645514 265.764864 
L 184.429331 265.764864 
L 185.321239 265.543172 
L 186.213147 264.858462 
L 187.105055 260.728705 
L 189.780779 260.728705 
L 190.672687 260.073897 
L 195.132228 260.073897 
L 196.024136 258.654431 
L 196.916044 256.810717 
L 197.807952 256.810717 
L 198.69986 256.327351 
L 199.591768 256.306971 
L 201.375584 255.693275 
L 202.267493 252.918991 
L 203.159401 251.949279 
L 208.510849 251.949279 
L 209.402757 250.931052 
L 212.078482 250.931052 
L 212.97039 249.595173 
L 213.862298 249.595173 
L 214.754206 249.360876 
L 225.457103 249.360876 
L 226.349011 248.882536 
L 227.240919 248.619906 
L 228.132827 247.538071 
L 231.70046 247.587062 
L 232.592368 249.146863 
L 233.484276 249.833995 
L 239.727632 249.833995 
L 240.61954 250.910154 
L 250.430529 250.910154 
L 251.322438 251.180143 
L 252.214346 252.142259 
L 253.998162 252.142259 
L 254.89007 251.590176 
L 256.673886 250.789794 
L 257.565794 250.273586 
L 258.457702 249.139976 
L 259.34961 243.733715 
L 260.241518 243.733715 
L 261.133427 243.259938 
L 262.025335 243.259938 
L 262.917243 241.634247 
L 263.809151 239.451077 
L 270.944416 239.451077 
L 271.836324 239.011921 
L 273.62014 238.891048 
L 276.295864 238.556421 
L 277.187772 237.763688 
L 278.07968 235.117893 
L 278.971588 234.951906 
L 279.863497 234.662659 
L 280.755405 234.105428 
L 281.647313 231.133565 
L 282.539221 227.689068 
L 283.431129 227.689068 
L 284.323037 227.471893 
L 285.214945 227.471893 
L 286.106853 226.77014 
L 287.890669 226.77014 
L 288.782577 226.49208 
L 289.674486 226.49208 
L 290.566394 226.074796 
L 293.242118 226.074796 
L 294.134026 231.173473 
L 295.025934 231.173473 
L 295.917842 232.093478 
L 297.701658 232.093478 
L 298.593566 232.487121 
L 300.377383 232.487121 
L 301.269291 234.196712 
L 311.972188 234.206238 
L 313.756004 234.206238 
L 314.647912 236.769425 
L 315.53982 238.470776 
L 320.891269 238.470776 
L 321.783177 237.321601 
L 325.350809 237.321601 
L 326.242717 236.280544 
L 327.134625 235.874707 
L 328.026533 235.061694 
L 333.377982 235.061694 
L 334.26989 232.511509 
L 335.161798 231.653359 
L 336.053706 227.251801 
L 336.945614 226.239183 
L 337.837522 226.239183 
L 338.729431 225.582367 
L 340.513247 225.582367 
L 341.405155 222.796724 
L 342.297063 222.796724 
L 343.188971 222.621986 
L 344.080879 222.621986 
L 344.972787 221.945736 
L 345.864695 221.662255 
L 346.756603 220.390313 
L 347.648511 218.624104 
L 348.54042 216.525497 
L 349.432328 209.410868 
L 350.324236 209.279179 
L 353.891868 209.279179 
L 354.783776 208.351626 
L 355.675684 204.698856 
L 356.567592 203.39035 
L 357.4595 202.559892 
L 358.351409 198.072391 
L 359.243317 195.424444 
L 360.135225 190.591825 
L 361.027133 189.451974 
L 361.919041 189.26796 
L 362.810949 184.863139 
L 363.702857 183.809461 
L 364.594765 183.809461 
L 365.486673 182.883462 
L 366.378581 180.207436 
L 369.054306 180.205929 
L 369.946214 177.864648 
L 370.838122 177.218072 
L 371.73003 170.814071 
L 373.513846 170.814071 
L 374.405754 168.442832 
L 376.18957 168.442832 
L 377.081479 166.457465 
L 377.973387 165.135702 
L 380.649111 165.135702 
L 381.541019 161.335846 
L 382.432927 159.135316 
L 385.108651 159.135316 
L 386.892468 143.499184 
L 387.784376 141.681148 
L 388.676284 138.170489 
L 390.4601 138.170489 
L 391.352008 137.908527 
L 392.243916 134.970788 
L 393.135824 133.446548 
L 394.027732 129.365687 
L 394.91964 120.518826 
L 395.811548 120.518826 
L 396.703457 117.237127 
L 397.595365 115.817338 
L 398.487273 108.348017 
L 398.487273 108.348017 
" style="fill:none;stroke:#00008b;stroke-linecap:square;stroke-width:1.5;"/>
   </g>
   <g id="line2d_17">
    <path clip-path="url(#p859b0f0693)" d="M 96.13043 261.622776 
L 97.022338 261.630682 
L 97.914246 258.235498 
L 98.806154 258.212076 
L 99.698062 257.628552 
L 100.58997 256.604513 
L 101.481878 256.465374 
L 102.373786 256.465374 
L 103.265694 255.794556 
L 105.04951 253.237409 
L 105.941419 252.304127 
L 106.833327 251.992723 
L 107.725235 251.013311 
L 108.617143 249.709571 
L 109.509051 249.709571 
L 111.292867 248.766509 
L 112.184775 247.660264 
L 113.076683 247.268295 
L 114.8605 247.010282 
L 115.752408 247.380586 
L 116.644316 247.380586 
L 117.536224 247.664934 
L 120.211948 245.548146 
L 121.103856 245.959911 
L 121.995764 245.959911 
L 122.887672 246.665882 
L 123.77958 248.961413 
L 124.671489 249.510647 
L 125.563397 249.886705 
L 126.455305 250.781989 
L 128.239121 250.781989 
L 130.914845 253.056332 
L 131.806753 252.840317 
L 132.698661 252.840317 
L 133.590569 255.306062 
L 134.482478 255.840102 
L 135.374386 256.068505 
L 136.266294 256.48027 
L 137.158202 271.556973 
L 138.942018 271.556973 
L 139.833926 272.678656 
L 140.725834 274.852725 
L 141.617742 275.099249 
L 143.401558 275.099249 
L 144.293467 280.209227 
L 146.077283 281.188096 
L 148.753007 279.126141 
L 149.644915 278.937935 
L 150.536823 277.947899 
L 153.212547 277.947899 
L 154.104456 277.750076 
L 154.996364 278.322524 
L 155.888272 280.356693 
L 156.78018 280.603216 
L 157.672088 280.458367 
L 158.563996 280.458367 
L 159.455904 280.847137 
L 160.347812 279.085654 
L 161.23972 278.916953 
L 162.131628 278.356339 
L 163.023536 278.184303 
L 163.915445 277.443345 
L 164.807353 277.157827 
L 165.699261 276.207047 
L 169.266893 276.303991 
L 171.050709 276.377598 
L 173.726434 276.377598 
L 174.618342 275.505907 
L 175.51025 273.675696 
L 176.402158 273.440013 
L 177.294066 272.07735 
L 178.185974 271.536529 
L 179.077882 271.536529 
L 179.96979 266.528709 
L 180.861698 265.818976 
L 181.753606 264.624447 
L 182.645514 263.805869 
L 183.537423 263.564186 
L 184.429331 263.553997 
L 185.321239 263.151154 
L 186.213147 262.340747 
L 187.105055 256.823848 
L 187.996963 255.64378 
L 188.888871 255.565944 
L 189.780779 256.338992 
L 190.672687 256.011588 
L 194.24032 256.011588 
L 195.132228 256.457021 
L 196.024136 255.812765 
L 196.916044 254.890907 
L 197.807952 254.222968 
L 198.69986 253.981285 
L 199.591768 253.038631 
L 200.483676 252.658992 
L 201.375584 252.573938 
L 202.267493 251.186796 
L 203.159401 251.715743 
L 204.943217 251.715743 
L 205.835125 252.253834 
L 206.727033 252.253834 
L 207.618941 251.930672 
L 208.510849 251.930672 
L 209.402757 250.145964 
L 210.294665 250.145964 
L 212.078482 249.775479 
L 212.97039 248.388084 
L 213.862298 247.780966 
L 214.754206 247.458802 
L 216.538022 247.458802 
L 217.42993 248.238703 
L 218.321838 248.238703 
L 220.105654 248.484066 
L 220.997562 248.510563 
L 221.889471 249.229374 
L 224.565195 249.229374 
L 225.457103 250.099737 
L 227.240919 249.729251 
L 228.132827 248.856051 
L 229.024735 248.856051 
L 229.916643 248.505288 
L 230.808551 248.510398 
L 231.70046 248.905042 
L 233.484276 250.372074 
L 235.268092 250.372074 
L 236.16 250.507069 
L 237.051908 251.278169 
L 238.835724 251.471361 
L 239.727632 251.471361 
L 240.61954 251.753864 
L 242.403357 251.314556 
L 246.862897 251.314556 
L 247.754805 251.139294 
L 249.538621 251.210987 
L 250.430529 251.521769 
L 251.322438 251.656763 
L 252.214346 252.137821 
L 253.106254 252.137821 
L 253.998162 251.940906 
L 254.89007 251.274957 
L 255.781978 250.897877 
L 256.673886 250.686226 
L 257.565794 250.155131 
L 258.457702 248.975971 
L 259.34961 243.529678 
L 260.241518 243.455775 
L 261.133427 242.92862 
L 262.025335 242.548103 
L 262.917243 240.636025 
L 263.809151 238.369861 
L 264.701059 238.225238 
L 265.592967 237.946622 
L 266.484875 236.460691 
L 267.376783 234.738442 
L 270.052507 234.629855 
L 271.836324 233.839822 
L 272.728232 233.824935 
L 273.62014 233.640355 
L 274.512048 233.600323 
L 275.403956 233.217047 
L 276.295864 233.163669 
L 277.187772 232.751452 
L 278.07968 230.495613 
L 279.863497 230.267996 
L 280.755405 229.989381 
L 281.647313 227.940094 
L 282.539221 226.17228 
L 284.323037 226.063692 
L 286.106853 227.083813 
L 286.998761 227.474154 
L 290.566394 227.373585 
L 291.458302 226.934354 
L 293.242118 226.934354 
L 294.134026 232.033032 
L 295.025934 232.033032 
L 295.917842 232.953037 
L 297.701658 232.953037 
L 298.593566 233.346679 
L 299.485475 234.628273 
L 300.377383 237.005866 
L 301.269291 237.860661 
L 302.161199 237.955504 
L 303.053107 237.386712 
L 304.836923 236.659968 
L 305.728831 236.659968 
L 306.620739 235.951451 
L 307.512647 235.629989 
L 309.296464 235.629989 
L 310.188372 235.091763 
L 311.08028 235.76392 
L 313.756004 235.76392 
L 315.53982 238.310988 
L 316.431728 238.540026 
L 318.215544 238.540026 
L 319.107453 237.764011 
L 320.891269 237.795076 
L 321.783177 237.220489 
L 323.566993 237.220489 
L 325.350809 236.693003 
L 326.242717 235.535594 
L 327.134625 235.129757 
L 328.026533 234.229375 
L 329.81035 234.229375 
L 330.702258 234.087635 
L 331.594166 233.451664 
L 332.486074 233.032626 
L 333.377982 232.424132 
L 334.26989 230.56579 
L 335.161798 229.70764 
L 336.053706 225.306082 
L 336.945614 224.293464 
L 337.837522 224.293464 
L 338.729431 223.636648 
L 339.621339 223.524547 
L 340.513247 223.153194 
L 341.405155 219.757491 
L 342.297063 219.342262 
L 343.188971 217.011142 
L 344.080879 216.686339 
L 344.972787 216.010089 
L 345.864695 215.618581 
L 346.756603 214.98261 
L 347.648511 213.562672 
L 348.54042 211.545721 
L 349.432328 204.484198 
L 350.324236 203.88951 
L 351.216144 203.618984 
L 353.891868 203.618231 
L 354.783776 201.632138 
L 355.675684 198.027433 
L 356.567592 195.598822 
L 357.4595 195.183593 
L 358.351409 192.939842 
L 359.243317 189.431078 
L 360.135225 184.59846 
L 361.027133 183.708377 
L 361.919041 182.531679 
L 362.810949 177.538743 
L 363.702857 177.011904 
L 364.594765 177.011904 
L 365.486673 176.548904 
L 366.378581 172.243476 
L 367.27049 169.829227 
L 368.162398 171.076342 
L 369.054306 171.142458 
L 369.946214 169.971817 
L 370.838122 169.64853 
L 371.73003 164.974694 
L 373.513846 164.974694 
L 374.405754 163.789074 
L 376.18957 163.789074 
L 377.081479 161.327521 
L 377.973387 159.508592 
L 378.865295 159.190389 
L 379.757203 159.839272 
L 380.649111 160.007532 
L 381.541019 158.653475 
L 382.432927 157.629859 
L 385.108651 157.528371 
L 386.000559 148.625396 
L 386.892468 141.268195 
L 387.784376 139.450158 
L 388.676284 135.9395 
L 389.568192 133.991743 
L 390.4601 133.088468 
L 391.352008 132.558521 
L 392.243916 130.661173 
L 393.135824 125.08762 
L 394.027732 117.551206 
L 394.91964 108.704345 
L 395.811548 108.704345 
L 396.703457 105.422646 
L 397.595365 104.002857 
L 398.487273 95.243647 
L 398.487273 95.243647 
" style="fill:none;stroke:#1f77b4;stroke-linecap:square;stroke-width:1.5;"/>
   </g>
   <g id="line2d_18">
    <path clip-path="url(#p859b0f0693)" d="M 119.32004 257.784899 
L 120.211948 257.784899 
L 121.103856 255.840365 
L 122.887672 255.791215 
L 123.77958 253.743137 
L 124.671489 253.464858 
L 126.455305 253.464858 
L 127.347213 252.45725 
L 128.239121 252.45725 
L 129.131029 252.007487 
L 130.022937 252.007487 
L 130.914845 250.837654 
L 132.698661 250.837654 
L 133.590569 252.286734 
L 134.482478 252.820774 
L 135.374386 253.049178 
L 136.266294 253.049178 
L 137.158202 268.125881 
L 158.563996 268.125881 
L 159.455904 268.94941 
L 162.131628 268.94941 
L 163.023536 270.047879 
L 166.591169 270.047879 
L 167.483077 271.552277 
L 168.374985 273.306076 
L 169.266893 274.164536 
L 177.294066 274.164536 
L 178.185974 275.309433 
L 179.077882 279.657572 
L 179.96979 276.013146 
L 180.861698 276.013146 
L 181.753606 275.740475 
L 182.645514 274.921897 
L 183.537423 274.267375 
L 184.429331 274.267375 
L 185.321239 274.045684 
L 186.213147 273.360973 
L 187.105055 267.749301 
L 187.996963 267.372889 
L 188.888871 265.392817 
L 191.564595 265.392817 
L 192.456503 264.997171 
L 197.807952 264.997171 
L 198.69986 262.128727 
L 199.591768 262.128727 
L 200.483676 261.007498 
L 201.375584 260.728705 
L 208.510849 260.728705 
L 209.402757 259.710478 
L 212.97039 259.710478 
L 213.862298 259.05567 
L 218.321838 259.05567 
L 219.213746 257.636204 
L 220.105654 255.792489 
L 220.997562 255.792489 
L 221.889471 255.309123 
L 222.781379 255.288744 
L 224.565195 254.675048 
L 225.457103 251.900763 
L 226.349011 250.931052 
L 235.268092 250.931052 
L 236.16 249.595173 
L 237.051908 249.595173 
L 237.943816 249.360876 
L 248.646713 249.360876 
L 249.538621 248.882536 
L 251.322438 248.274193 
L 254.89007 248.274193 
L 255.781978 249.833995 
L 257.565794 249.833995 
L 258.457702 249.563277 
L 259.34961 244.157017 
L 260.241518 244.157017 
L 261.133427 243.68324 
L 262.025335 243.68324 
L 262.917243 242.264686 
L 263.809151 240.081516 
L 270.944416 240.081516 
L 271.836324 239.64236 
L 277.187772 239.61066 
L 278.07968 237.744776 
L 278.971588 237.744776 
L 279.863497 237.321475 
L 285.214945 237.321475 
L 286.106853 237.114338 
L 295.917842 237.084564 
L 299.485475 236.658838 
L 301.269291 235.117893 
L 302.161199 234.951906 
L 303.053107 234.662659 
L 303.945015 234.105428 
L 304.836923 232.487121 
L 323.566993 232.487121 
L 324.458901 234.196712 
L 335.161798 234.206238 
L 336.053706 229.890875 
L 336.945614 228.878257 
L 337.837522 228.878257 
L 338.729431 228.221441 
L 340.513247 228.221441 
L 341.405155 225.435798 
L 344.080879 225.435798 
L 344.972787 223.610374 
L 346.756603 223.610374 
L 348.54042 221.800622 
L 349.432328 214.792206 
L 350.324236 214.660517 
L 353.891868 214.660517 
L 354.783776 213.957167 
L 355.675684 211.047102 
L 356.567592 210.958717 
L 357.4595 209.468817 
L 358.351409 209.468817 
L 359.243317 207.470476 
L 360.135225 202.637857 
L 361.027133 201.997542 
L 361.919041 201.813527 
L 362.810949 197.554239 
L 365.486673 197.554239 
L 366.378581 195.244526 
L 368.162398 195.244526 
L 369.054306 194.961045 
L 369.946214 193.689104 
L 370.838122 192.851029 
L 371.73003 188.69037 
L 373.513846 188.584156 
L 377.081479 188.584156 
L 377.973387 188.359953 
L 378.865295 187.617248 
L 379.757203 186.397128 
L 380.649111 185.566669 
L 381.541019 181.079168 
L 382.432927 180.429563 
L 383.324835 180.429563 
L 384.216743 179.930027 
L 385.108651 179.930027 
L 386.892468 163.094684 
L 387.784376 161.276648 
L 388.676284 156.83999 
L 389.568192 156.298938 
L 390.4601 156.297432 
L 391.352008 156.035469 
L 392.243916 156.035469 
L 393.135824 153.694188 
L 394.027732 148.966751 
L 394.91964 136.65956 
L 395.811548 136.65956 
L 396.703457 133.377861 
L 397.595365 129.586833 
L 398.487273 122.117511 
L 398.487273 122.117511 
" style="fill:none;stroke:#ff7f0e;stroke-linecap:square;stroke-width:1.5;"/>
   </g>
   <g id="line2d_19">
    <path clip-path="url(#p859b0f0693)" d="M 119.32004 262.407653 
L 120.211948 261.745795 
L 121.103856 260.806971 
L 124.671489 257.82389 
L 127.347213 256.35611 
L 129.131029 255.127855 
L 131.806753 253.270667 
L 132.698661 252.859545 
L 136.266294 250.536598 
L 142.50965 247.103067 
L 144.293467 246.577496 
L 145.185375 246.430971 
L 146.077283 246.502123 
L 148.753007 247.170827 
L 152.320639 248.354886 
L 154.996364 249.465518 
L 155.888272 249.831555 
L 158.563996 252.513075 
L 159.455904 253.442858 
L 160.347812 255.379181 
L 162.131628 258.785573 
L 163.915445 262.421137 
L 165.699261 265.732417 
L 169.266893 271.237545 
L 171.050709 272.928932 
L 173.726434 275.200409 
L 178.185974 280.228989 
L 179.077882 281.040693 
L 180.861698 281.967813 
L 181.753606 282.409035 
L 182.645514 282.656764 
L 183.537423 281.741387 
L 184.429331 281.081502 
L 185.321239 280.267804 
L 187.105055 278.975313 
L 188.888871 277.784643 
L 191.564595 276.992976 
L 192.456503 276.511322 
L 193.348412 276.218749 
L 195.132228 275.994316 
L 196.024136 275.93886 
L 196.916044 275.705225 
L 197.807952 275.209243 
L 198.69986 274.582051 
L 202.267493 272.921256 
L 207.618941 268.905876 
L 208.510849 268.258276 
L 209.402757 267.358911 
L 212.078482 264.040726 
L 214.754206 261.92167 
L 216.538022 260.138172 
L 218.321838 258.269729 
L 220.105654 256.176866 
L 221.889471 254.469273 
L 224.565195 252.681604 
L 225.457103 252.207694 
L 229.916643 251.533028 
L 231.70046 251.02871 
L 232.592368 250.769327 
L 233.484276 250.709359 
L 235.268092 250.816592 
L 237.051908 250.008114 
L 237.943816 249.653584 
L 238.835724 249.441811 
L 239.727632 249.42771 
L 241.511449 249.227766 
L 245.079081 249.698918 
L 250.430529 248.865881 
L 252.214346 248.58201 
L 253.106254 248.590707 
L 254.89007 248.863066 
L 256.673886 249.472112 
L 261.133427 250.508684 
L 263.809151 251.215497 
L 265.592967 251.371864 
L 273.62014 251.916375 
L 276.295864 252.330781 
L 278.07968 252.203634 
L 281.647313 251.368411 
L 282.539221 250.801393 
L 285.214945 248.574763 
L 288.782577 245.385661 
L 290.566394 243.766766 
L 303.053107 230.053939 
L 303.945015 229.203078 
L 304.836923 228.524358 
L 305.728831 228.12683 
L 307.512647 227.58822 
L 309.296464 227.378699 
L 310.188372 227.480048 
L 314.647912 226.928708 
L 315.53982 226.974329 
L 316.431728 227.329914 
L 317.323636 227.831009 
L 319.107453 229.022604 
L 320.891269 230.040466 
L 325.350809 233.187561 
L 327.134625 234.046954 
L 329.81035 234.825589 
L 333.377982 235.954127 
L 334.26989 236.434333 
L 336.053706 237.120242 
L 338.729431 238.269378 
L 339.621339 238.25217 
L 347.648511 236.92017 
L 350.324236 236.177586 
L 353.891868 235.407621 
L 354.783776 235.236734 
L 356.567592 234.513731 
L 359.243317 232.650944 
L 363.702857 228.253283 
L 366.378581 224.893499 
L 369.946214 220.232113 
L 371.73003 217.822275 
L 373.513846 214.528543 
L 374.405754 213.24723 
L 377.973387 206.974153 
L 379.757203 203.194962 
L 381.541019 199.94101 
L 382.432927 198.420832 
L 385.108651 192.890976 
L 386.892468 188.524228 
L 388.676284 184.69664 
L 390.4601 180.496286 
L 392.243916 177.865076 
L 394.027732 174.619142 
L 394.91964 172.470594 
L 396.703457 169.810679 
L 397.595365 168.025691 
L 398.487273 166.785818 
L 398.487273 166.785818 
" style="fill:none;stroke:#008000;stroke-linecap:square;stroke-width:1.5;"/>
   </g>
   <g id="patch_3">
    <path d="M 57.6 307.584 
L 57.6 41.472 
" style="fill:none;stroke:#000000;stroke-linecap:square;stroke-linejoin:miter;stroke-width:0.8;"/>
   </g>
   <g id="patch_4">
    <path d="M 414.72 307.584 
L 414.72 41.472 
" style="fill:none;stroke:#000000;stroke-linecap:square;stroke-linejoin:miter;stroke-width:0.8;"/>
   </g>
   <g id="patch_5">
    <path d="M 57.6 307.584 
L 414.72 307.584 
" style="fill:none;stroke:#000000;stroke-linecap:square;stroke-linejoin:miter;stroke-width:0.8;"/>
   </g>
   <g id="patch_6">
    <path d="M 57.6 41.472 
L 414.72 41.472 
" style="fill:none;stroke:#000000;stroke-linecap:square;stroke-linejoin:miter;stroke-width:0.8;"/>
   </g>
   <g id="text_14">
    <!-- Data source: ['coindesk', 'nomics'] -->
    <g transform="translate(150.2225 35.472)scale(0.1 -0.1)">
     <defs>
      <path d="M 19.671875 64.796875 
L 19.671875 8.109375 
L 31.59375 8.109375 
Q 46.6875 8.109375 53.6875 14.9375 
Q 60.6875 21.78125 60.6875 36.53125 
Q 60.6875 51.171875 53.6875 57.984375 
Q 46.6875 64.796875 31.59375 64.796875 
z
M 9.8125 72.90625 
L 30.078125 72.90625 
Q 51.265625 72.90625 61.171875 64.09375 
Q 71.09375 55.28125 71.09375 36.53125 
Q 71.09375 17.671875 61.125 8.828125 
Q 51.171875 0 30.078125 0 
L 9.8125 0 
z
" id="DejaVuSans-68"/>
      <path d="M 34.28125 27.484375 
Q 23.390625 27.484375 19.1875 25 
Q 14.984375 22.515625 14.984375 16.5 
Q 14.984375 11.71875 18.140625 8.90625 
Q 21.296875 6.109375 26.703125 6.109375 
Q 34.1875 6.109375 38.703125 11.40625 
Q 43.21875 16.703125 43.21875 25.484375 
L 43.21875 27.484375 
z
M 52.203125 31.203125 
L 52.203125 0 
L 43.21875 0 
L 43.21875 8.296875 
Q 40.140625 3.328125 35.546875 0.953125 
Q 30.953125 -1.421875 24.3125 -1.421875 
Q 15.921875 -1.421875 10.953125 3.296875 
Q 6 8.015625 6 15.921875 
Q 6 25.140625 12.171875 29.828125 
Q 18.359375 34.515625 30.609375 34.515625 
L 43.21875 34.515625 
L 43.21875 35.40625 
Q 43.21875 41.609375 39.140625 45 
Q 35.0625 48.390625 27.6875 48.390625 
Q 23 48.390625 18.546875 47.265625 
Q 14.109375 46.140625 10.015625 43.890625 
L 10.015625 52.203125 
Q 14.9375 54.109375 19.578125 55.046875 
Q 24.21875 56 28.609375 56 
Q 40.484375 56 46.34375 49.84375 
Q 52.203125 43.703125 52.203125 31.203125 
z
" id="DejaVuSans-97"/>
      <path d="M 18.3125 70.21875 
L 18.3125 54.6875 
L 36.8125 54.6875 
L 36.8125 47.703125 
L 18.3125 47.703125 
L 18.3125 18.015625 
Q 18.3125 11.328125 20.140625 9.421875 
Q 21.96875 7.515625 27.59375 7.515625 
L 36.8125 7.515625 
L 36.8125 0 
L 27.59375 0 
Q 17.1875 0 13.234375 3.875 
Q 9.28125 7.765625 9.28125 18.015625 
L 9.28125 47.703125 
L 2.6875 47.703125 
L 2.6875 54.6875 
L 9.28125 54.6875 
L 9.28125 70.21875 
z
" id="DejaVuSans-116"/>
      <path id="DejaVuSans-32"/>
      <path d="M 44.28125 53.078125 
L 44.28125 44.578125 
Q 40.484375 46.53125 36.375 47.5 
Q 32.28125 48.484375 27.875 48.484375 
Q 21.1875 48.484375 17.84375 46.4375 
Q 14.5 44.390625 14.5 40.28125 
Q 14.5 37.15625 16.890625 35.375 
Q 19.28125 33.59375 26.515625 31.984375 
L 29.59375 31.296875 
Q 39.15625 29.25 43.1875 25.515625 
Q 47.21875 21.78125 47.21875 15.09375 
Q 47.21875 7.46875 41.1875 3.015625 
Q 35.15625 -1.421875 24.609375 -1.421875 
Q 20.21875 -1.421875 15.453125 -0.5625 
Q 10.6875 0.296875 5.421875 2 
L 5.421875 11.28125 
Q 10.40625 8.6875 15.234375 7.390625 
Q 20.0625 6.109375 24.8125 6.109375 
Q 31.15625 6.109375 34.5625 8.28125 
Q 37.984375 10.453125 37.984375 14.40625 
Q 37.984375 18.0625 35.515625 20.015625 
Q 33.0625 21.96875 24.703125 23.78125 
L 21.578125 24.515625 
Q 13.234375 26.265625 9.515625 29.90625 
Q 5.8125 33.546875 5.8125 39.890625 
Q 5.8125 47.609375 11.28125 51.796875 
Q 16.75 56 26.8125 56 
Q 31.78125 56 36.171875 55.265625 
Q 40.578125 54.546875 44.28125 53.078125 
z
" id="DejaVuSans-115"/>
      <path d="M 30.609375 48.390625 
Q 23.390625 48.390625 19.1875 42.75 
Q 14.984375 37.109375 14.984375 27.296875 
Q 14.984375 17.484375 19.15625 11.84375 
Q 23.34375 6.203125 30.609375 6.203125 
Q 37.796875 6.203125 41.984375 11.859375 
Q 46.1875 17.53125 46.1875 27.296875 
Q 46.1875 37.015625 41.984375 42.703125 
Q 37.796875 48.390625 30.609375 48.390625 
z
M 30.609375 56 
Q 42.328125 56 49.015625 48.375 
Q 55.71875 40.765625 55.71875 27.296875 
Q 55.71875 13.875 49.015625 6.21875 
Q 42.328125 -1.421875 30.609375 -1.421875 
Q 18.84375 -1.421875 12.171875 6.21875 
Q 5.515625 13.875 5.515625 27.296875 
Q 5.515625 40.765625 12.171875 48.375 
Q 18.84375 56 30.609375 56 
z
" id="DejaVuSans-111"/>
      <path d="M 8.5 21.578125 
L 8.5 54.6875 
L 17.484375 54.6875 
L 17.484375 21.921875 
Q 17.484375 14.15625 20.5 10.265625 
Q 23.53125 6.390625 29.59375 6.390625 
Q 36.859375 6.390625 41.078125 11.03125 
Q 45.3125 15.671875 45.3125 23.6875 
L 45.3125 54.6875 
L 54.296875 54.6875 
L 54.296875 0 
L 45.3125 0 
L 45.3125 8.40625 
Q 42.046875 3.421875 37.71875 1 
Q 33.40625 -1.421875 27.6875 -1.421875 
Q 18.265625 -1.421875 13.375 4.4375 
Q 8.5 10.296875 8.5 21.578125 
z
M 31.109375 56 
z
" id="DejaVuSans-117"/>
      <path d="M 41.109375 46.296875 
Q 39.59375 47.171875 37.8125 47.578125 
Q 36.03125 48 33.890625 48 
Q 26.265625 48 22.1875 43.046875 
Q 18.109375 38.09375 18.109375 28.8125 
L 18.109375 0 
L 9.078125 0 
L 9.078125 54.6875 
L 18.109375 54.6875 
L 18.109375 46.1875 
Q 20.953125 51.171875 25.484375 53.578125 
Q 30.03125 56 36.53125 56 
Q 37.453125 56 38.578125 55.875 
Q 39.703125 55.765625 41.0625 55.515625 
z
" id="DejaVuSans-114"/>
      <path d="M 48.78125 52.59375 
L 48.78125 44.1875 
Q 44.96875 46.296875 41.140625 47.34375 
Q 37.3125 48.390625 33.40625 48.390625 
Q 24.65625 48.390625 19.8125 42.84375 
Q 14.984375 37.3125 14.984375 27.296875 
Q 14.984375 17.28125 19.8125 11.734375 
Q 24.65625 6.203125 33.40625 6.203125 
Q 37.3125 6.203125 41.140625 7.25 
Q 44.96875 8.296875 48.78125 10.40625 
L 48.78125 2.09375 
Q 45.015625 0.34375 40.984375 -0.53125 
Q 36.96875 -1.421875 32.421875 -1.421875 
Q 20.0625 -1.421875 12.78125 6.34375 
Q 5.515625 14.109375 5.515625 27.296875 
Q 5.515625 40.671875 12.859375 48.328125 
Q 20.21875 56 33.015625 56 
Q 37.15625 56 41.109375 55.140625 
Q 45.0625 54.296875 48.78125 52.59375 
z
" id="DejaVuSans-99"/>
      <path d="M 56.203125 29.59375 
L 56.203125 25.203125 
L 14.890625 25.203125 
Q 15.484375 15.921875 20.484375 11.0625 
Q 25.484375 6.203125 34.421875 6.203125 
Q 39.59375 6.203125 44.453125 7.46875 
Q 49.3125 8.734375 54.109375 11.28125 
L 54.109375 2.78125 
Q 49.265625 0.734375 44.1875 -0.34375 
Q 39.109375 -1.421875 33.890625 -1.421875 
Q 20.796875 -1.421875 13.15625 6.1875 
Q 5.515625 13.8125 5.515625 26.8125 
Q 5.515625 40.234375 12.765625 48.109375 
Q 20.015625 56 32.328125 56 
Q 43.359375 56 49.78125 48.890625 
Q 56.203125 41.796875 56.203125 29.59375 
z
M 47.21875 32.234375 
Q 47.125 39.59375 43.09375 43.984375 
Q 39.0625 48.390625 32.421875 48.390625 
Q 24.90625 48.390625 20.390625 44.140625 
Q 15.875 39.890625 15.1875 32.171875 
z
" id="DejaVuSans-101"/>
      <path d="M 11.71875 12.40625 
L 22.015625 12.40625 
L 22.015625 0 
L 11.71875 0 
z
M 11.71875 51.703125 
L 22.015625 51.703125 
L 22.015625 39.3125 
L 11.71875 39.3125 
z
" id="DejaVuSans-58"/>
      <path d="M 8.59375 75.984375 
L 29.296875 75.984375 
L 29.296875 69 
L 17.578125 69 
L 17.578125 -6.203125 
L 29.296875 -6.203125 
L 29.296875 -13.1875 
L 8.59375 -13.1875 
z
" id="DejaVuSans-91"/>
      <path d="M 17.921875 72.90625 
L 17.921875 45.796875 
L 9.625 45.796875 
L 9.625 72.90625 
z
" id="DejaVuSans-39"/>
      <path d="M 9.421875 54.6875 
L 18.40625 54.6875 
L 18.40625 0 
L 9.421875 0 
z
M 9.421875 75.984375 
L 18.40625 75.984375 
L 18.40625 64.59375 
L 9.421875 64.59375 
z
" id="DejaVuSans-105"/>
      <path d="M 54.890625 33.015625 
L 54.890625 0 
L 45.90625 0 
L 45.90625 32.71875 
Q 45.90625 40.484375 42.875 44.328125 
Q 39.84375 48.1875 33.796875 48.1875 
Q 26.515625 48.1875 22.3125 43.546875 
Q 18.109375 38.921875 18.109375 30.90625 
L 18.109375 0 
L 9.078125 0 
L 9.078125 54.6875 
L 18.109375 54.6875 
L 18.109375 46.1875 
Q 21.34375 51.125 25.703125 53.5625 
Q 30.078125 56 35.796875 56 
Q 45.21875 56 50.046875 50.171875 
Q 54.890625 44.34375 54.890625 33.015625 
z
" id="DejaVuSans-110"/>
      <path d="M 45.40625 46.390625 
L 45.40625 75.984375 
L 54.390625 75.984375 
L 54.390625 0 
L 45.40625 0 
L 45.40625 8.203125 
Q 42.578125 3.328125 38.25 0.953125 
Q 33.9375 -1.421875 27.875 -1.421875 
Q 17.96875 -1.421875 11.734375 6.484375 
Q 5.515625 14.40625 5.515625 27.296875 
Q 5.515625 40.1875 11.734375 48.09375 
Q 17.96875 56 27.875 56 
Q 33.9375 56 38.25 53.625 
Q 42.578125 51.265625 45.40625 46.390625 
z
M 14.796875 27.296875 
Q 14.796875 17.390625 18.875 11.75 
Q 22.953125 6.109375 30.078125 6.109375 
Q 37.203125 6.109375 41.296875 11.75 
Q 45.40625 17.390625 45.40625 27.296875 
Q 45.40625 37.203125 41.296875 42.84375 
Q 37.203125 48.484375 30.078125 48.484375 
Q 22.953125 48.484375 18.875 42.84375 
Q 14.796875 37.203125 14.796875 27.296875 
z
" id="DejaVuSans-100"/>
      <path d="M 9.078125 75.984375 
L 18.109375 75.984375 
L 18.109375 31.109375 
L 44.921875 54.6875 
L 56.390625 54.6875 
L 27.390625 29.109375 
L 57.625 0 
L 45.90625 0 
L 18.109375 26.703125 
L 18.109375 0 
L 9.078125 0 
z
" id="DejaVuSans-107"/>
      <path d="M 11.71875 12.40625 
L 22.015625 12.40625 
L 22.015625 4 
L 14.015625 -11.625 
L 7.71875 -11.625 
L 11.71875 4 
z
" id="DejaVuSans-44"/>
      <path d="M 52 44.1875 
Q 55.375 50.25 60.0625 53.125 
Q 64.75 56 71.09375 56 
Q 79.640625 56 84.28125 50.015625 
Q 88.921875 44.046875 88.921875 33.015625 
L 88.921875 0 
L 79.890625 0 
L 79.890625 32.71875 
Q 79.890625 40.578125 77.09375 44.375 
Q 74.3125 48.1875 68.609375 48.1875 
Q 61.625 48.1875 57.5625 43.546875 
Q 53.515625 38.921875 53.515625 30.90625 
L 53.515625 0 
L 44.484375 0 
L 44.484375 32.71875 
Q 44.484375 40.625 41.703125 44.40625 
Q 38.921875 48.1875 33.109375 48.1875 
Q 26.21875 48.1875 22.15625 43.53125 
Q 18.109375 38.875 18.109375 30.90625 
L 18.109375 0 
L 9.078125 0 
L 9.078125 54.6875 
L 18.109375 54.6875 
L 18.109375 46.1875 
Q 21.1875 51.21875 25.484375 53.609375 
Q 29.78125 56 35.6875 56 
Q 41.65625 56 45.828125 52.96875 
Q 50 49.953125 52 44.1875 
z
" id="DejaVuSans-109"/>
      <path d="M 30.421875 75.984375 
L 30.421875 -13.1875 
L 9.71875 -13.1875 
L 9.71875 -6.203125 
L 21.390625 -6.203125 
L 21.390625 69 
L 9.71875 69 
L 9.71875 75.984375 
z
" id="DejaVuSans-93"/>
     </defs>
     <use xlink:href="#DejaVuSans-68"/>
     <use x="77.001953" xlink:href="#DejaVuSans-97"/>
     <use x="138.28125" xlink:href="#DejaVuSans-116"/>
     <use x="177.490234" xlink:href="#DejaVuSans-97"/>
     <use x="238.769531" xlink:href="#DejaVuSans-32"/>
     <use x="270.556641" xlink:href="#DejaVuSans-115"/>
     <use x="322.65625" xlink:href="#DejaVuSans-111"/>
     <use x="383.837891" xlink:href="#DejaVuSans-117"/>
     <use x="447.216797" xlink:href="#DejaVuSans-114"/>
     <use x="486.080078" xlink:href="#DejaVuSans-99"/>
     <use x="541.060547" xlink:href="#DejaVuSans-101"/>
     <use x="602.583984" xlink:href="#DejaVuSans-58"/>
     <use x="636.275391" xlink:href="#DejaVuSans-32"/>
     <use x="668.0625" xlink:href="#DejaVuSans-91"/>
     <use x="707.076172" xlink:href="#DejaVuSans-39"/>
     <use x="734.566406" xlink:href="#DejaVuSans-99"/>
     <use x="789.546875" xlink:href="#DejaVuSans-111"/>
     <use x="850.728516" xlink:href="#DejaVuSans-105"/>
     <use x="878.511719" xlink:href="#DejaVuSans-110"/>
     <use x="941.890625" xlink:href="#DejaVuSans-100"/>
     <use x="1005.367188" xlink:href="#DejaVuSans-101"/>
     <use x="1066.890625" xlink:href="#DejaVuSans-115"/>
     <use x="1118.990234" xlink:href="#DejaVuSans-107"/>
     <use x="1176.900391" xlink:href="#DejaVuSans-39"/>
     <use x="1204.390625" xlink:href="#DejaVuSans-44"/>
     <use x="1236.177734" xlink:href="#DejaVuSans-32"/>
     <use x="1267.964844" xlink:href="#DejaVuSans-39"/>
     <use x="1295.455078" xlink:href="#DejaVuSans-110"/>
     <use x="1358.833984" xlink:href="#DejaVuSans-111"/>
     <use x="1420.015625" xlink:href="#DejaVuSans-109"/>
     <use x="1517.427734" xlink:href="#DejaVuSans-105"/>
     <use x="1545.210938" xlink:href="#DejaVuSans-99"/>
     <use x="1600.191406" xlink:href="#DejaVuSans-115"/>
     <use x="1652.291016" xlink:href="#DejaVuSans-39"/>
     <use x="1679.78125" xlink:href="#DejaVuSans-93"/>
    </g>
   </g>
   <g id="legend_1">
    <g id="patch_7">
     <path d="M 64.6 137.54075 
L 232.189063 137.54075 
Q 234.189063 137.54075 234.189063 135.54075 
L 234.189063 48.472 
Q 234.189063 46.472 232.189063 46.472 
L 64.6 46.472 
Q 62.6 46.472 62.6 48.472 
L 62.6 135.54075 
Q 62.6 137.54075 64.6 137.54075 
z
" style="fill:#ffffff;opacity:0.8;stroke:#cccccc;stroke-linejoin:miter;"/>
    </g>
    <g id="line2d_20">
     <path d="M 66.6 54.570438 
L 86.6 54.570438 
" style="fill:none;stroke:#000000;stroke-linecap:square;stroke-width:1.5;"/>
    </g>
    <g id="line2d_21"/>
    <g id="text_15">
     <!-- Price -->
     <g transform="translate(94.6 58.070438)scale(0.1 -0.1)">
      <defs>
       <path d="M 19.671875 64.796875 
L 19.671875 37.40625 
L 32.078125 37.40625 
Q 38.96875 37.40625 42.71875 40.96875 
Q 46.484375 44.53125 46.484375 51.125 
Q 46.484375 57.671875 42.71875 61.234375 
Q 38.96875 64.796875 32.078125 64.796875 
z
M 9.8125 72.90625 
L 32.078125 72.90625 
Q 44.34375 72.90625 50.609375 67.359375 
Q 56.890625 61.8125 56.890625 51.125 
Q 56.890625 40.328125 50.609375 34.8125 
Q 44.34375 29.296875 32.078125 29.296875 
L 19.671875 29.296875 
L 19.671875 0 
L 9.8125 0 
z
" id="DejaVuSans-80"/>
      </defs>
      <use xlink:href="#DejaVuSans-80"/>
      <use x="58.552734" xlink:href="#DejaVuSans-114"/>
      <use x="99.666016" xlink:href="#DejaVuSans-105"/>
      <use x="127.449219" xlink:href="#DejaVuSans-99"/>
      <use x="182.429688" xlink:href="#DejaVuSans-101"/>
     </g>
    </g>
    <g id="line2d_22">
     <path d="M 66.6 69.248563 
L 86.6 69.248563 
" style="fill:none;stroke:#dc143c;stroke-linecap:square;stroke-width:1.5;"/>
    </g>
    <g id="line2d_23"/>
    <g id="text_16">
     <!-- Conversion (Tenkan) -->
     <g transform="translate(94.6 72.748563)scale(0.1 -0.1)">
      <defs>
       <path d="M 64.40625 67.28125 
L 64.40625 56.890625 
Q 59.421875 61.53125 53.78125 63.8125 
Q 48.140625 66.109375 41.796875 66.109375 
Q 29.296875 66.109375 22.65625 58.46875 
Q 16.015625 50.828125 16.015625 36.375 
Q 16.015625 21.96875 22.65625 14.328125 
Q 29.296875 6.6875 41.796875 6.6875 
Q 48.140625 6.6875 53.78125 8.984375 
Q 59.421875 11.28125 64.40625 15.921875 
L 64.40625 5.609375 
Q 59.234375 2.09375 53.4375 0.328125 
Q 47.65625 -1.421875 41.21875 -1.421875 
Q 24.65625 -1.421875 15.125 8.703125 
Q 5.609375 18.84375 5.609375 36.375 
Q 5.609375 53.953125 15.125 64.078125 
Q 24.65625 74.21875 41.21875 74.21875 
Q 47.75 74.21875 53.53125 72.484375 
Q 59.328125 70.75 64.40625 67.28125 
z
" id="DejaVuSans-67"/>
       <path d="M 2.984375 54.6875 
L 12.5 54.6875 
L 29.59375 8.796875 
L 46.6875 54.6875 
L 56.203125 54.6875 
L 35.6875 0 
L 23.484375 0 
z
" id="DejaVuSans-118"/>
       <path d="M 31 75.875 
Q 24.46875 64.65625 21.28125 53.65625 
Q 18.109375 42.671875 18.109375 31.390625 
Q 18.109375 20.125 21.3125 9.0625 
Q 24.515625 -2 31 -13.1875 
L 23.1875 -13.1875 
Q 15.875 -1.703125 12.234375 9.375 
Q 8.59375 20.453125 8.59375 31.390625 
Q 8.59375 42.28125 12.203125 53.3125 
Q 15.828125 64.359375 23.1875 75.875 
z
" id="DejaVuSans-40"/>
       <path d="M -0.296875 72.90625 
L 61.375 72.90625 
L 61.375 64.59375 
L 35.5 64.59375 
L 35.5 0 
L 25.59375 0 
L 25.59375 64.59375 
L -0.296875 64.59375 
z
" id="DejaVuSans-84"/>
       <path d="M 8.015625 75.875 
L 15.828125 75.875 
Q 23.140625 64.359375 26.78125 53.3125 
Q 30.421875 42.28125 30.421875 31.390625 
Q 30.421875 20.453125 26.78125 9.375 
Q 23.140625 -1.703125 15.828125 -13.1875 
L 8.015625 -13.1875 
Q 14.5 -2 17.703125 9.0625 
Q 20.90625 20.125 20.90625 31.390625 
Q 20.90625 42.671875 17.703125 53.65625 
Q 14.5 64.65625 8.015625 75.875 
z
" id="DejaVuSans-41"/>
      </defs>
      <use xlink:href="#DejaVuSans-67"/>
      <use x="69.824219" xlink:href="#DejaVuSans-111"/>
      <use x="131.005859" xlink:href="#DejaVuSans-110"/>
      <use x="194.384766" xlink:href="#DejaVuSans-118"/>
      <use x="253.564453" xlink:href="#DejaVuSans-101"/>
      <use x="315.087891" xlink:href="#DejaVuSans-114"/>
      <use x="356.201172" xlink:href="#DejaVuSans-115"/>
      <use x="408.300781" xlink:href="#DejaVuSans-105"/>
      <use x="436.083984" xlink:href="#DejaVuSans-111"/>
      <use x="497.265625" xlink:href="#DejaVuSans-110"/>
      <use x="560.644531" xlink:href="#DejaVuSans-32"/>
      <use x="592.431641" xlink:href="#DejaVuSans-40"/>
      <use x="631.445312" xlink:href="#DejaVuSans-84"/>
      <use x="675.529297" xlink:href="#DejaVuSans-101"/>
      <use x="737.052734" xlink:href="#DejaVuSans-110"/>
      <use x="800.431641" xlink:href="#DejaVuSans-107"/>
      <use x="856.591797" xlink:href="#DejaVuSans-97"/>
      <use x="917.871094" xlink:href="#DejaVuSans-110"/>
      <use x="981.25" xlink:href="#DejaVuSans-41"/>
     </g>
    </g>
    <g id="line2d_24">
     <path d="M 66.6 83.926688 
L 86.6 83.926688 
" style="fill:none;stroke:#00008b;stroke-linecap:square;stroke-width:1.5;"/>
    </g>
    <g id="line2d_25"/>
    <g id="text_17">
     <!-- Baseline (Kijun) -->
     <g transform="translate(94.6 87.426688)scale(0.1 -0.1)">
      <defs>
       <path d="M 19.671875 34.8125 
L 19.671875 8.109375 
L 35.5 8.109375 
Q 43.453125 8.109375 47.28125 11.40625 
Q 51.125 14.703125 51.125 21.484375 
Q 51.125 28.328125 47.28125 31.5625 
Q 43.453125 34.8125 35.5 34.8125 
z
M 19.671875 64.796875 
L 19.671875 42.828125 
L 34.28125 42.828125 
Q 41.5 42.828125 45.03125 45.53125 
Q 48.578125 48.25 48.578125 53.8125 
Q 48.578125 59.328125 45.03125 62.0625 
Q 41.5 64.796875 34.28125 64.796875 
z
M 9.8125 72.90625 
L 35.015625 72.90625 
Q 46.296875 72.90625 52.390625 68.21875 
Q 58.5 63.53125 58.5 54.890625 
Q 58.5 48.1875 55.375 44.234375 
Q 52.25 40.28125 46.1875 39.3125 
Q 53.46875 37.75 57.5 32.78125 
Q 61.53125 27.828125 61.53125 20.40625 
Q 61.53125 10.640625 54.890625 5.3125 
Q 48.25 0 35.984375 0 
L 9.8125 0 
z
" id="DejaVuSans-66"/>
       <path d="M 9.421875 75.984375 
L 18.40625 75.984375 
L 18.40625 0 
L 9.421875 0 
z
" id="DejaVuSans-108"/>
       <path d="M 9.8125 72.90625 
L 19.671875 72.90625 
L 19.671875 42.09375 
L 52.390625 72.90625 
L 65.09375 72.90625 
L 28.90625 38.921875 
L 67.671875 0 
L 54.6875 0 
L 19.671875 35.109375 
L 19.671875 0 
L 9.8125 0 
z
" id="DejaVuSans-75"/>
       <path d="M 9.421875 54.6875 
L 18.40625 54.6875 
L 18.40625 -0.984375 
Q 18.40625 -11.421875 14.421875 -16.109375 
Q 10.453125 -20.796875 1.609375 -20.796875 
L -1.8125 -20.796875 
L -1.8125 -13.1875 
L 0.59375 -13.1875 
Q 5.71875 -13.1875 7.5625 -10.8125 
Q 9.421875 -8.453125 9.421875 -0.984375 
z
M 9.421875 75.984375 
L 18.40625 75.984375 
L 18.40625 64.59375 
L 9.421875 64.59375 
z
" id="DejaVuSans-106"/>
      </defs>
      <use xlink:href="#DejaVuSans-66"/>
      <use x="68.603516" xlink:href="#DejaVuSans-97"/>
      <use x="129.882812" xlink:href="#DejaVuSans-115"/>
      <use x="181.982422" xlink:href="#DejaVuSans-101"/>
      <use x="243.505859" xlink:href="#DejaVuSans-108"/>
      <use x="271.289062" xlink:href="#DejaVuSans-105"/>
      <use x="299.072266" xlink:href="#DejaVuSans-110"/>
      <use x="362.451172" xlink:href="#DejaVuSans-101"/>
      <use x="423.974609" xlink:href="#DejaVuSans-32"/>
      <use x="455.761719" xlink:href="#DejaVuSans-40"/>
      <use x="494.775391" xlink:href="#DejaVuSans-75"/>
      <use x="560.351562" xlink:href="#DejaVuSans-105"/>
      <use x="588.134766" xlink:href="#DejaVuSans-106"/>
      <use x="615.917969" xlink:href="#DejaVuSans-117"/>
      <use x="679.296875" xlink:href="#DejaVuSans-110"/>
      <use x="742.675781" xlink:href="#DejaVuSans-41"/>
     </g>
    </g>
    <g id="line2d_26">
     <path d="M 66.6 98.604813 
L 86.6 98.604813 
" style="fill:none;stroke:#1f77b4;stroke-linecap:square;stroke-width:1.5;"/>
    </g>
    <g id="line2d_27"/>
    <g id="text_18">
     <!-- Leading Span A (Sankou A) -->
     <g transform="translate(94.6 102.104813)scale(0.1 -0.1)">
      <defs>
       <path d="M 9.8125 72.90625 
L 19.671875 72.90625 
L 19.671875 8.296875 
L 55.171875 8.296875 
L 55.171875 0 
L 9.8125 0 
z
" id="DejaVuSans-76"/>
       <path d="M 45.40625 27.984375 
Q 45.40625 37.75 41.375 43.109375 
Q 37.359375 48.484375 30.078125 48.484375 
Q 22.859375 48.484375 18.828125 43.109375 
Q 14.796875 37.75 14.796875 27.984375 
Q 14.796875 18.265625 18.828125 12.890625 
Q 22.859375 7.515625 30.078125 7.515625 
Q 37.359375 7.515625 41.375 12.890625 
Q 45.40625 18.265625 45.40625 27.984375 
z
M 54.390625 6.78125 
Q 54.390625 -7.171875 48.1875 -13.984375 
Q 42 -20.796875 29.203125 -20.796875 
Q 24.46875 -20.796875 20.265625 -20.09375 
Q 16.0625 -19.390625 12.109375 -17.921875 
L 12.109375 -9.1875 
Q 16.0625 -11.328125 19.921875 -12.34375 
Q 23.78125 -13.375 27.78125 -13.375 
Q 36.625 -13.375 41.015625 -8.765625 
Q 45.40625 -4.15625 45.40625 5.171875 
L 45.40625 9.625 
Q 42.625 4.78125 38.28125 2.390625 
Q 33.9375 0 27.875 0 
Q 17.828125 0 11.671875 7.65625 
Q 5.515625 15.328125 5.515625 27.984375 
Q 5.515625 40.671875 11.671875 48.328125 
Q 17.828125 56 27.875 56 
Q 33.9375 56 38.28125 53.609375 
Q 42.625 51.21875 45.40625 46.390625 
L 45.40625 54.6875 
L 54.390625 54.6875 
z
" id="DejaVuSans-103"/>
       <path d="M 53.515625 70.515625 
L 53.515625 60.890625 
Q 47.90625 63.578125 42.921875 64.890625 
Q 37.9375 66.21875 33.296875 66.21875 
Q 25.25 66.21875 20.875 63.09375 
Q 16.5 59.96875 16.5 54.203125 
Q 16.5 49.359375 19.40625 46.890625 
Q 22.3125 44.4375 30.421875 42.921875 
L 36.375 41.703125 
Q 47.40625 39.59375 52.65625 34.296875 
Q 57.90625 29 57.90625 20.125 
Q 57.90625 9.515625 50.796875 4.046875 
Q 43.703125 -1.421875 29.984375 -1.421875 
Q 24.8125 -1.421875 18.96875 -0.25 
Q 13.140625 0.921875 6.890625 3.21875 
L 6.890625 13.375 
Q 12.890625 10.015625 18.65625 8.296875 
Q 24.421875 6.59375 29.984375 6.59375 
Q 38.421875 6.59375 43.015625 9.90625 
Q 47.609375 13.234375 47.609375 19.390625 
Q 47.609375 24.75 44.3125 27.78125 
Q 41.015625 30.8125 33.5 32.328125 
L 27.484375 33.5 
Q 16.453125 35.6875 11.515625 40.375 
Q 6.59375 45.0625 6.59375 53.421875 
Q 6.59375 63.09375 13.40625 68.65625 
Q 20.21875 74.21875 32.171875 74.21875 
Q 37.3125 74.21875 42.625 73.28125 
Q 47.953125 72.359375 53.515625 70.515625 
z
" id="DejaVuSans-83"/>
       <path d="M 18.109375 8.203125 
L 18.109375 -20.796875 
L 9.078125 -20.796875 
L 9.078125 54.6875 
L 18.109375 54.6875 
L 18.109375 46.390625 
Q 20.953125 51.265625 25.265625 53.625 
Q 29.59375 56 35.59375 56 
Q 45.5625 56 51.78125 48.09375 
Q 58.015625 40.1875 58.015625 27.296875 
Q 58.015625 14.40625 51.78125 6.484375 
Q 45.5625 -1.421875 35.59375 -1.421875 
Q 29.59375 -1.421875 25.265625 0.953125 
Q 20.953125 3.328125 18.109375 8.203125 
z
M 48.6875 27.296875 
Q 48.6875 37.203125 44.609375 42.84375 
Q 40.53125 48.484375 33.40625 48.484375 
Q 26.265625 48.484375 22.1875 42.84375 
Q 18.109375 37.203125 18.109375 27.296875 
Q 18.109375 17.390625 22.1875 11.75 
Q 26.265625 6.109375 33.40625 6.109375 
Q 40.53125 6.109375 44.609375 11.75 
Q 48.6875 17.390625 48.6875 27.296875 
z
" id="DejaVuSans-112"/>
       <path d="M 34.1875 63.1875 
L 20.796875 26.90625 
L 47.609375 26.90625 
z
M 28.609375 72.90625 
L 39.796875 72.90625 
L 67.578125 0 
L 57.328125 0 
L 50.6875 18.703125 
L 17.828125 18.703125 
L 11.1875 0 
L 0.78125 0 
z
" id="DejaVuSans-65"/>
      </defs>
      <use xlink:href="#DejaVuSans-76"/>
      <use x="53.962891" xlink:href="#DejaVuSans-101"/>
      <use x="115.486328" xlink:href="#DejaVuSans-97"/>
      <use x="176.765625" xlink:href="#DejaVuSans-100"/>
      <use x="240.242188" xlink:href="#DejaVuSans-105"/>
      <use x="268.025391" xlink:href="#DejaVuSans-110"/>
      <use x="331.404297" xlink:href="#DejaVuSans-103"/>
      <use x="394.880859" xlink:href="#DejaVuSans-32"/>
      <use x="426.667969" xlink:href="#DejaVuSans-83"/>
      <use x="490.144531" xlink:href="#DejaVuSans-112"/>
      <use x="553.621094" xlink:href="#DejaVuSans-97"/>
      <use x="614.900391" xlink:href="#DejaVuSans-110"/>
      <use x="678.279297" xlink:href="#DejaVuSans-32"/>
      <use x="710.066406" xlink:href="#DejaVuSans-65"/>
      <use x="778.474609" xlink:href="#DejaVuSans-32"/>
      <use x="810.261719" xlink:href="#DejaVuSans-40"/>
      <use x="849.275391" xlink:href="#DejaVuSans-83"/>
      <use x="912.751953" xlink:href="#DejaVuSans-97"/>
      <use x="974.03125" xlink:href="#DejaVuSans-110"/>
      <use x="1037.410156" xlink:href="#DejaVuSans-107"/>
      <use x="1091.695312" xlink:href="#DejaVuSans-111"/>
      <use x="1152.876953" xlink:href="#DejaVuSans-117"/>
      <use x="1216.255859" xlink:href="#DejaVuSans-32"/>
      <use x="1248.042969" xlink:href="#DejaVuSans-65"/>
      <use x="1316.451172" xlink:href="#DejaVuSans-41"/>
     </g>
    </g>
    <g id="line2d_28">
     <path d="M 66.6 113.282938 
L 86.6 113.282938 
" style="fill:none;stroke:#ff7f0e;stroke-linecap:square;stroke-width:1.5;"/>
    </g>
    <g id="line2d_29"/>
    <g id="text_19">
     <!-- Leading Span B (Sankou B) -->
     <g transform="translate(94.6 116.782938)scale(0.1 -0.1)">
      <use xlink:href="#DejaVuSans-76"/>
      <use x="53.962891" xlink:href="#DejaVuSans-101"/>
      <use x="115.486328" xlink:href="#DejaVuSans-97"/>
      <use x="176.765625" xlink:href="#DejaVuSans-100"/>
      <use x="240.242188" xlink:href="#DejaVuSans-105"/>
      <use x="268.025391" xlink:href="#DejaVuSans-110"/>
      <use x="331.404297" xlink:href="#DejaVuSans-103"/>
      <use x="394.880859" xlink:href="#DejaVuSans-32"/>
      <use x="426.667969" xlink:href="#DejaVuSans-83"/>
      <use x="490.144531" xlink:href="#DejaVuSans-112"/>
      <use x="553.621094" xlink:href="#DejaVuSans-97"/>
      <use x="614.900391" xlink:href="#DejaVuSans-110"/>
      <use x="678.279297" xlink:href="#DejaVuSans-32"/>
      <use x="710.066406" xlink:href="#DejaVuSans-66"/>
      <use x="778.669922" xlink:href="#DejaVuSans-32"/>
      <use x="810.457031" xlink:href="#DejaVuSans-40"/>
      <use x="849.470703" xlink:href="#DejaVuSans-83"/>
      <use x="912.947266" xlink:href="#DejaVuSans-97"/>
      <use x="974.226562" xlink:href="#DejaVuSans-110"/>
      <use x="1037.605469" xlink:href="#DejaVuSans-107"/>
      <use x="1091.890625" xlink:href="#DejaVuSans-111"/>
      <use x="1153.072266" xlink:href="#DejaVuSans-117"/>
      <use x="1216.451172" xlink:href="#DejaVuSans-32"/>
      <use x="1248.238281" xlink:href="#DejaVuSans-66"/>
      <use x="1316.841797" xlink:href="#DejaVuSans-41"/>
     </g>
    </g>
    <g id="line2d_30">
     <path d="M 66.6 127.961063 
L 86.6 127.961063 
" style="fill:none;stroke:#008000;stroke-linecap:square;stroke-width:1.5;"/>
    </g>
    <g id="line2d_31"/>
    <g id="text_20">
     <!-- Lagging Span (Chikou) -->
     <g transform="translate(94.6 131.461063)scale(0.1 -0.1)">
      <defs>
       <path d="M 54.890625 33.015625 
L 54.890625 0 
L 45.90625 0 
L 45.90625 32.71875 
Q 45.90625 40.484375 42.875 44.328125 
Q 39.84375 48.1875 33.796875 48.1875 
Q 26.515625 48.1875 22.3125 43.546875 
Q 18.109375 38.921875 18.109375 30.90625 
L 18.109375 0 
L 9.078125 0 
L 9.078125 75.984375 
L 18.109375 75.984375 
L 18.109375 46.1875 
Q 21.34375 51.125 25.703125 53.5625 
Q 30.078125 56 35.796875 56 
Q 45.21875 56 50.046875 50.171875 
Q 54.890625 44.34375 54.890625 33.015625 
z
" id="DejaVuSans-104"/>
      </defs>
      <use xlink:href="#DejaVuSans-76"/>
      <use x="55.712891" xlink:href="#DejaVuSans-97"/>
      <use x="116.992188" xlink:href="#DejaVuSans-103"/>
      <use x="180.46875" xlink:href="#DejaVuSans-103"/>
      <use x="243.945312" xlink:href="#DejaVuSans-105"/>
      <use x="271.728516" xlink:href="#DejaVuSans-110"/>
      <use x="335.107422" xlink:href="#DejaVuSans-103"/>
      <use x="398.583984" xlink:href="#DejaVuSans-32"/>
      <use x="430.371094" xlink:href="#DejaVuSans-83"/>
      <use x="493.847656" xlink:href="#DejaVuSans-112"/>
      <use x="557.324219" xlink:href="#DejaVuSans-97"/>
      <use x="618.603516" xlink:href="#DejaVuSans-110"/>
      <use x="681.982422" xlink:href="#DejaVuSans-32"/>
      <use x="713.769531" xlink:href="#DejaVuSans-40"/>
      <use x="752.783203" xlink:href="#DejaVuSans-67"/>
      <use x="822.607422" xlink:href="#DejaVuSans-104"/>
      <use x="885.986328" xlink:href="#DejaVuSans-105"/>
      <use x="913.769531" xlink:href="#DejaVuSans-107"/>
      <use x="968.054688" xlink:href="#DejaVuSans-111"/>
      <use x="1029.236328" xlink:href="#DejaVuSans-117"/>
      <use x="1092.615234" xlink:href="#DejaVuSans-41"/>
     </g>
    </g>
   </g>
  </g>
  <g id="text_21">
   <!-- Ichimoku Cloud -->
   <g transform="translate(168.81375 19.0695)scale(0.16 -0.16)">
    <defs>
     <path d="M 9.8125 72.90625 
L 19.671875 72.90625 
L 19.671875 0 
L 9.8125 0 
z
" id="DejaVuSans-73"/>
    </defs>
    <use xlink:href="#DejaVuSans-73"/>
    <use x="29.492188" xlink:href="#DejaVuSans-99"/>
    <use x="84.472656" xlink:href="#DejaVuSans-104"/>
    <use x="147.851562" xlink:href="#DejaVuSans-105"/>
    <use x="175.634766" xlink:href="#DejaVuSans-109"/>
    <use x="273.046875" xlink:href="#DejaVuSans-111"/>
    <use x="334.228516" xlink:href="#DejaVuSans-107"/>
    <use x="389.013672" xlink:href="#DejaVuSans-117"/>
    <use x="452.392578" xlink:href="#DejaVuSans-32"/>
    <use x="484.179688" xlink:href="#DejaVuSans-67"/>
    <use x="554.003906" xlink:href="#DejaVuSans-108"/>
    <use x="581.787109" xlink:href="#DejaVuSans-111"/>
    <use x="642.96875" xlink:href="#DejaVuSans-117"/>
    <use x="706.347656" xlink:href="#DejaVuSans-100"/>
   </g>
  </g>
 </g>
 <defs>
  <clipPath id="p859b0f0693">
   <rect height="266.112" width="357.12" x="57.6" y="41.472"/>
  </clipPath>
 </defs>
</svg>
