<?xml version="1.0" encoding="utf-8" standalone="no"?>
<!DOCTYPE svg PUBLIC "-//W3C//DTD SVG 1.1//EN"
  "http://www.w3.org/Graphics/SVG/1.1/DTD/svg11.dtd">
<!-- Created with matplotlib (https://matplotlib.org/) -->
<svg height="345.6pt" version="1.1" viewBox="0 0 460.8 345.6" width="460.8pt" xmlns="http://www.w3.org/2000/svg" xmlns:xlink="http://www.w3.org/1999/xlink">
 <metadata>
  <rdf:RDF xmlns:cc="http://creativecommons.org/ns#" xmlns:dc="http://purl.org/dc/elements/1.1/" xmlns:rdf="http://www.w3.org/1999/02/22-rdf-syntax-ns#">
   <cc:Work>
    <dc:type rdf:resource="http://purl.org/dc/dcmitype/StillImage"/>
    <dc:date>2021-05-08T19:00:06.676781</dc:date>
    <dc:format>image/svg+xml</dc:format>
    <dc:creator>
     <cc:Agent>
      <dc:title>Matplotlib v3.3.2, https://matplotlib.org/</dc:title>
     </cc:Agent>
    </dc:creator>
   </cc:Work>
  </rdf:RDF>
 </metadata>
 <defs>
  <style type="text/css">*{stroke-linecap:butt;stroke-linejoin:round;}</style>
 </defs>
 <g id="figure_1">
  <g id="patch_1">
   <path d="M 0 345.6 
L 460.8 345.6 
L 460.8 0 
L 0 0 
z
" style="fill:#ffffff;"/>
  </g>
  <g id="axes_1">
   <g id="patch_2">
    <path d="M 57.6 307.584 
L 414.72 307.584 
L 414.72 41.472 
L 57.6 41.472 
z
" style="fill:#ffffff;"/>
   </g>
   <g id="matplotlib.axis_1">
    <g id="xtick_1">
     <g id="line2d_1">
      <defs>
       <path d="M 0 0 
L 0 3.5 
" id="m7a3ac048cf" style="stroke:#000000;stroke-width:0.8;"/>
      </defs>
      <g>
       <use style="stroke:#000000;stroke-width:0.8;" x="73.832727" xlink:href="#m7a3ac048cf" y="307.584"/>
      </g>
     </g>
     <g id="text_1">
      <!-- 2020-01 -->
      <g transform="translate(52.941321 322.182437)scale(0.1 -0.1)">
       <defs>
        <path d="M 19.1875 8.296875 
L 53.609375 8.296875 
L 53.609375 0 
L 7.328125 0 
L 7.328125 8.296875 
Q 12.9375 14.109375 22.625 23.890625 
Q 32.328125 33.6875 34.8125 36.53125 
Q 39.546875 41.84375 41.421875 45.53125 
Q 43.3125 49.21875 43.3125 52.78125 
Q 43.3125 58.59375 39.234375 62.25 
Q 35.15625 65.921875 28.609375 65.921875 
Q 23.96875 65.921875 18.8125 64.3125 
Q 13.671875 62.703125 7.8125 59.421875 
L 7.8125 69.390625 
Q 13.765625 71.78125 18.9375 73 
Q 24.125 74.21875 28.421875 74.21875 
Q 39.75 74.21875 46.484375 68.546875 
Q 53.21875 62.890625 53.21875 53.421875 
Q 53.21875 48.921875 51.53125 44.890625 
Q 49.859375 40.875 45.40625 35.40625 
Q 44.1875 33.984375 37.640625 27.21875 
Q 31.109375 20.453125 19.1875 8.296875 
z
" id="DejaVuSans-50"/>
        <path d="M 31.78125 66.40625 
Q 24.171875 66.40625 20.328125 58.90625 
Q 16.5 51.421875 16.5 36.375 
Q 16.5 21.390625 20.328125 13.890625 
Q 24.171875 6.390625 31.78125 6.390625 
Q 39.453125 6.390625 43.28125 13.890625 
Q 47.125 21.390625 47.125 36.375 
Q 47.125 51.421875 43.28125 58.90625 
Q 39.453125 66.40625 31.78125 66.40625 
z
M 31.78125 74.21875 
Q 44.046875 74.21875 50.515625 64.515625 
Q 56.984375 54.828125 56.984375 36.375 
Q 56.984375 17.96875 50.515625 8.265625 
Q 44.046875 -1.421875 31.78125 -1.421875 
Q 19.53125 -1.421875 13.0625 8.265625 
Q 6.59375 17.96875 6.59375 36.375 
Q 6.59375 54.828125 13.0625 64.515625 
Q 19.53125 74.21875 31.78125 74.21875 
z
" id="DejaVuSans-48"/>
        <path d="M 4.890625 31.390625 
L 31.203125 31.390625 
L 31.203125 23.390625 
L 4.890625 23.390625 
z
" id="DejaVuSans-45"/>
        <path d="M 12.40625 8.296875 
L 28.515625 8.296875 
L 28.515625 63.921875 
L 10.984375 60.40625 
L 10.984375 69.390625 
L 28.421875 72.90625 
L 38.28125 72.90625 
L 38.28125 8.296875 
L 54.390625 8.296875 
L 54.390625 0 
L 12.40625 0 
z
" id="DejaVuSans-49"/>
       </defs>
       <use xlink:href="#DejaVuSans-50"/>
       <use x="63.623047" xlink:href="#DejaVuSans-48"/>
       <use x="127.246094" xlink:href="#DejaVuSans-50"/>
       <use x="190.869141" xlink:href="#DejaVuSans-48"/>
       <use x="254.492188" xlink:href="#DejaVuSans-45"/>
       <use x="290.576172" xlink:href="#DejaVuSans-48"/>
       <use x="354.199219" xlink:href="#DejaVuSans-49"/>
      </g>
     </g>
    </g>
    <g id="xtick_2">
     <g id="line2d_2">
      <g>
       <use style="stroke:#000000;stroke-width:0.8;" x="113.424745" xlink:href="#m7a3ac048cf" y="307.584"/>
      </g>
     </g>
     <g id="text_2">
      <!-- 2020-03 -->
      <g transform="translate(92.533339 322.182437)scale(0.1 -0.1)">
       <defs>
        <path d="M 40.578125 39.3125 
Q 47.65625 37.796875 51.625 33 
Q 55.609375 28.21875 55.609375 21.1875 
Q 55.609375 10.40625 48.1875 4.484375 
Q 40.765625 -1.421875 27.09375 -1.421875 
Q 22.515625 -1.421875 17.65625 -0.515625 
Q 12.796875 0.390625 7.625 2.203125 
L 7.625 11.71875 
Q 11.71875 9.328125 16.59375 8.109375 
Q 21.484375 6.890625 26.8125 6.890625 
Q 36.078125 6.890625 40.9375 10.546875 
Q 45.796875 14.203125 45.796875 21.1875 
Q 45.796875 27.640625 41.28125 31.265625 
Q 36.765625 34.90625 28.71875 34.90625 
L 20.21875 34.90625 
L 20.21875 43.015625 
L 29.109375 43.015625 
Q 36.375 43.015625 40.234375 45.921875 
Q 44.09375 48.828125 44.09375 54.296875 
Q 44.09375 59.90625 40.109375 62.90625 
Q 36.140625 65.921875 28.71875 65.921875 
Q 24.65625 65.921875 20.015625 65.03125 
Q 15.375 64.15625 9.8125 62.3125 
L 9.8125 71.09375 
Q 15.4375 72.65625 20.34375 73.4375 
Q 25.25 74.21875 29.59375 74.21875 
Q 40.828125 74.21875 47.359375 69.109375 
Q 53.90625 64.015625 53.90625 55.328125 
Q 53.90625 49.265625 50.4375 45.09375 
Q 46.96875 40.921875 40.578125 39.3125 
z
" id="DejaVuSans-51"/>
       </defs>
       <use xlink:href="#DejaVuSans-50"/>
       <use x="63.623047" xlink:href="#DejaVuSans-48"/>
       <use x="127.246094" xlink:href="#DejaVuSans-50"/>
       <use x="190.869141" xlink:href="#DejaVuSans-48"/>
       <use x="254.492188" xlink:href="#DejaVuSans-45"/>
       <use x="290.576172" xlink:href="#DejaVuSans-48"/>
       <use x="354.199219" xlink:href="#DejaVuSans-51"/>
      </g>
     </g>
    </g>
    <g id="xtick_3">
     <g id="line2d_3">
      <g>
       <use style="stroke:#000000;stroke-width:0.8;" x="153.67663" xlink:href="#m7a3ac048cf" y="307.584"/>
      </g>
     </g>
     <g id="text_3">
      <!-- 2020-05 -->
      <g transform="translate(132.785223 322.182437)scale(0.1 -0.1)">
       <defs>
        <path d="M 10.796875 72.90625 
L 49.515625 72.90625 
L 49.515625 64.59375 
L 19.828125 64.59375 
L 19.828125 46.734375 
Q 21.96875 47.46875 24.109375 47.828125 
Q 26.265625 48.1875 28.421875 48.1875 
Q 40.625 48.1875 47.75 41.5 
Q 54.890625 34.8125 54.890625 23.390625 
Q 54.890625 11.625 47.5625 5.09375 
Q 40.234375 -1.421875 26.90625 -1.421875 
Q 22.3125 -1.421875 17.546875 -0.640625 
Q 12.796875 0.140625 7.71875 1.703125 
L 7.71875 11.625 
Q 12.109375 9.234375 16.796875 8.0625 
Q 21.484375 6.890625 26.703125 6.890625 
Q 35.15625 6.890625 40.078125 11.328125 
Q 45.015625 15.765625 45.015625 23.390625 
Q 45.015625 31 40.078125 35.4375 
Q 35.15625 39.890625 26.703125 39.890625 
Q 22.75 39.890625 18.8125 39.015625 
Q 14.890625 38.140625 10.796875 36.28125 
z
" id="DejaVuSans-53"/>
       </defs>
       <use xlink:href="#DejaVuSans-50"/>
       <use x="63.623047" xlink:href="#DejaVuSans-48"/>
       <use x="127.246094" xlink:href="#DejaVuSans-50"/>
       <use x="190.869141" xlink:href="#DejaVuSans-48"/>
       <use x="254.492188" xlink:href="#DejaVuSans-45"/>
       <use x="290.576172" xlink:href="#DejaVuSans-48"/>
       <use x="354.199219" xlink:href="#DejaVuSans-53"/>
      </g>
     </g>
    </g>
    <g id="xtick_4">
     <g id="line2d_4">
      <g>
       <use style="stroke:#000000;stroke-width:0.8;" x="193.928514" xlink:href="#m7a3ac048cf" y="307.584"/>
      </g>
     </g>
     <g id="text_4">
      <!-- 2020-07 -->
      <g transform="translate(173.037108 322.182437)scale(0.1 -0.1)">
       <defs>
        <path d="M 8.203125 72.90625 
L 55.078125 72.90625 
L 55.078125 68.703125 
L 28.609375 0 
L 18.3125 0 
L 43.21875 64.59375 
L 8.203125 64.59375 
z
" id="DejaVuSans-55"/>
       </defs>
       <use xlink:href="#DejaVuSans-50"/>
       <use x="63.623047" xlink:href="#DejaVuSans-48"/>
       <use x="127.246094" xlink:href="#DejaVuSans-50"/>
       <use x="190.869141" xlink:href="#DejaVuSans-48"/>
       <use x="254.492188" xlink:href="#DejaVuSans-45"/>
       <use x="290.576172" xlink:href="#DejaVuSans-48"/>
       <use x="354.199219" xlink:href="#DejaVuSans-55"/>
      </g>
     </g>
    </g>
    <g id="xtick_5">
     <g id="line2d_5">
      <g>
       <use style="stroke:#000000;stroke-width:0.8;" x="234.840266" xlink:href="#m7a3ac048cf" y="307.584"/>
      </g>
     </g>
     <g id="text_5">
      <!-- 2020-09 -->
      <g transform="translate(213.94886 322.182437)scale(0.1 -0.1)">
       <defs>
        <path d="M 10.984375 1.515625 
L 10.984375 10.5 
Q 14.703125 8.734375 18.5 7.8125 
Q 22.3125 6.890625 25.984375 6.890625 
Q 35.75 6.890625 40.890625 13.453125 
Q 46.046875 20.015625 46.78125 33.40625 
Q 43.953125 29.203125 39.59375 26.953125 
Q 35.25 24.703125 29.984375 24.703125 
Q 19.046875 24.703125 12.671875 31.3125 
Q 6.296875 37.9375 6.296875 49.421875 
Q 6.296875 60.640625 12.9375 67.421875 
Q 19.578125 74.21875 30.609375 74.21875 
Q 43.265625 74.21875 49.921875 64.515625 
Q 56.59375 54.828125 56.59375 36.375 
Q 56.59375 19.140625 48.40625 8.859375 
Q 40.234375 -1.421875 26.421875 -1.421875 
Q 22.703125 -1.421875 18.890625 -0.6875 
Q 15.09375 0.046875 10.984375 1.515625 
z
M 30.609375 32.421875 
Q 37.25 32.421875 41.125 36.953125 
Q 45.015625 41.5 45.015625 49.421875 
Q 45.015625 57.28125 41.125 61.84375 
Q 37.25 66.40625 30.609375 66.40625 
Q 23.96875 66.40625 20.09375 61.84375 
Q 16.21875 57.28125 16.21875 49.421875 
Q 16.21875 41.5 20.09375 36.953125 
Q 23.96875 32.421875 30.609375 32.421875 
z
" id="DejaVuSans-57"/>
       </defs>
       <use xlink:href="#DejaVuSans-50"/>
       <use x="63.623047" xlink:href="#DejaVuSans-48"/>
       <use x="127.246094" xlink:href="#DejaVuSans-50"/>
       <use x="190.869141" xlink:href="#DejaVuSans-48"/>
       <use x="254.492188" xlink:href="#DejaVuSans-45"/>
       <use x="290.576172" xlink:href="#DejaVuSans-48"/>
       <use x="354.199219" xlink:href="#DejaVuSans-57"/>
      </g>
     </g>
    </g>
    <g id="xtick_6">
     <g id="line2d_6">
      <g>
       <use style="stroke:#000000;stroke-width:0.8;" x="275.092151" xlink:href="#m7a3ac048cf" y="307.584"/>
      </g>
     </g>
     <g id="text_6">
      <!-- 2020-11 -->
      <g transform="translate(254.200745 322.182437)scale(0.1 -0.1)">
       <use xlink:href="#DejaVuSans-50"/>
       <use x="63.623047" xlink:href="#DejaVuSans-48"/>
       <use x="127.246094" xlink:href="#DejaVuSans-50"/>
       <use x="190.869141" xlink:href="#DejaVuSans-48"/>
       <use x="254.492188" xlink:href="#DejaVuSans-45"/>
       <use x="290.576172" xlink:href="#DejaVuSans-49"/>
       <use x="354.199219" xlink:href="#DejaVuSans-49"/>
      </g>
     </g>
    </g>
    <g id="xtick_7">
     <g id="line2d_7">
      <g>
       <use style="stroke:#000000;stroke-width:0.8;" x="315.344035" xlink:href="#m7a3ac048cf" y="307.584"/>
      </g>
     </g>
     <g id="text_7">
      <!-- 2021-01 -->
      <g transform="translate(294.452629 322.182437)scale(0.1 -0.1)">
       <use xlink:href="#DejaVuSans-50"/>
       <use x="63.623047" xlink:href="#DejaVuSans-48"/>
       <use x="127.246094" xlink:href="#DejaVuSans-50"/>
       <use x="190.869141" xlink:href="#DejaVuSans-49"/>
       <use x="254.492188" xlink:href="#DejaVuSans-45"/>
       <use x="290.576172" xlink:href="#DejaVuSans-48"/>
       <use x="354.199219" xlink:href="#DejaVuSans-49"/>
      </g>
     </g>
    </g>
    <g id="xtick_8">
     <g id="line2d_8">
      <g>
       <use style="stroke:#000000;stroke-width:0.8;" x="354.276186" xlink:href="#m7a3ac048cf" y="307.584"/>
      </g>
     </g>
     <g id="text_8">
      <!-- 2021-03 -->
      <g transform="translate(333.38478 322.182437)scale(0.1 -0.1)">
       <use xlink:href="#DejaVuSans-50"/>
       <use x="63.623047" xlink:href="#DejaVuSans-48"/>
       <use x="127.246094" xlink:href="#DejaVuSans-50"/>
       <use x="190.869141" xlink:href="#DejaVuSans-49"/>
       <use x="254.492188" xlink:href="#DejaVuSans-45"/>
       <use x="290.576172" xlink:href="#DejaVuSans-48"/>
       <use x="354.199219" xlink:href="#DejaVuSans-51"/>
      </g>
     </g>
    </g>
    <g id="xtick_9">
     <g id="line2d_9">
      <g>
       <use style="stroke:#000000;stroke-width:0.8;" x="394.528071" xlink:href="#m7a3ac048cf" y="307.584"/>
      </g>
     </g>
     <g id="text_9">
      <!-- 2021-05 -->
      <g transform="translate(373.636665 322.182437)scale(0.1 -0.1)">
       <use xlink:href="#DejaVuSans-50"/>
       <use x="63.623047" xlink:href="#DejaVuSans-48"/>
       <use x="127.246094" xlink:href="#DejaVuSans-50"/>
       <use x="190.869141" xlink:href="#DejaVuSans-49"/>
       <use x="254.492188" xlink:href="#DejaVuSans-45"/>
       <use x="290.576172" xlink:href="#DejaVuSans-48"/>
       <use x="354.199219" xlink:href="#DejaVuSans-53"/>
      </g>
     </g>
    </g>
   </g>
   <g id="matplotlib.axis_2">
    <g id="ytick_1">
     <g id="line2d_10">
      <defs>
       <path d="M 0 0 
L -3.5 0 
" id="m596629d41f" style="stroke:#000000;stroke-width:0.8;"/>
      </defs>
      <g>
       <use style="stroke:#000000;stroke-width:0.8;" x="57.6" xlink:href="#m596629d41f" y="307.380672"/>
      </g>
     </g>
     <g id="text_10">
      <!-- −2000 -->
      <g transform="translate(16.770313 311.179891)scale(0.1 -0.1)">
       <defs>
        <path d="M 10.59375 35.5 
L 73.1875 35.5 
L 73.1875 27.203125 
L 10.59375 27.203125 
z
" id="DejaVuSans-8722"/>
       </defs>
       <use xlink:href="#DejaVuSans-8722"/>
       <use x="83.789062" xlink:href="#DejaVuSans-50"/>
       <use x="147.412109" xlink:href="#DejaVuSans-48"/>
       <use x="211.035156" xlink:href="#DejaVuSans-48"/>
       <use x="274.658203" xlink:href="#DejaVuSans-48"/>
      </g>
     </g>
    </g>
    <g id="ytick_2">
     <g id="line2d_11">
      <g>
       <use style="stroke:#000000;stroke-width:0.8;" x="57.6" xlink:href="#m596629d41f" y="272.351539"/>
      </g>
     </g>
     <g id="text_11">
      <!-- −1000 -->
      <g transform="translate(16.770313 276.150758)scale(0.1 -0.1)">
       <use xlink:href="#DejaVuSans-8722"/>
       <use x="83.789062" xlink:href="#DejaVuSans-49"/>
       <use x="147.412109" xlink:href="#DejaVuSans-48"/>
       <use x="211.035156" xlink:href="#DejaVuSans-48"/>
       <use x="274.658203" xlink:href="#DejaVuSans-48"/>
      </g>
     </g>
    </g>
    <g id="ytick_3">
     <g id="line2d_12">
      <g>
       <use style="stroke:#000000;stroke-width:0.8;" x="57.6" xlink:href="#m596629d41f" y="237.322406"/>
      </g>
     </g>
     <g id="text_12">
      <!-- 0 -->
      <g transform="translate(44.2375 241.121624)scale(0.1 -0.1)">
       <use xlink:href="#DejaVuSans-48"/>
      </g>
     </g>
    </g>
    <g id="ytick_4">
     <g id="line2d_13">
      <g>
       <use style="stroke:#000000;stroke-width:0.8;" x="57.6" xlink:href="#m596629d41f" y="202.293272"/>
      </g>
     </g>
     <g id="text_13">
      <!-- 1000 -->
      <g transform="translate(25.15 206.092491)scale(0.1 -0.1)">
       <use xlink:href="#DejaVuSans-49"/>
       <use x="63.623047" xlink:href="#DejaVuSans-48"/>
       <use x="127.246094" xlink:href="#DejaVuSans-48"/>
       <use x="190.869141" xlink:href="#DejaVuSans-48"/>
      </g>
     </g>
    </g>
    <g id="ytick_5">
     <g id="line2d_14">
      <g>
       <use style="stroke:#000000;stroke-width:0.8;" x="57.6" xlink:href="#m596629d41f" y="167.264139"/>
      </g>
     </g>
     <g id="text_14">
      <!-- 2000 -->
      <g transform="translate(25.15 171.063357)scale(0.1 -0.1)">
       <use xlink:href="#DejaVuSans-50"/>
       <use x="63.623047" xlink:href="#DejaVuSans-48"/>
       <use x="127.246094" xlink:href="#DejaVuSans-48"/>
       <use x="190.869141" xlink:href="#DejaVuSans-48"/>
      </g>
     </g>
    </g>
    <g id="ytick_6">
     <g id="line2d_15">
      <g>
       <use style="stroke:#000000;stroke-width:0.8;" x="57.6" xlink:href="#m596629d41f" y="132.235005"/>
      </g>
     </g>
     <g id="text_15">
      <!-- 3000 -->
      <g transform="translate(25.15 136.034224)scale(0.1 -0.1)">
       <use xlink:href="#DejaVuSans-51"/>
       <use x="63.623047" xlink:href="#DejaVuSans-48"/>
       <use x="127.246094" xlink:href="#DejaVuSans-48"/>
       <use x="190.869141" xlink:href="#DejaVuSans-48"/>
      </g>
     </g>
    </g>
    <g id="ytick_7">
     <g id="line2d_16">
      <g>
       <use style="stroke:#000000;stroke-width:0.8;" x="57.6" xlink:href="#m596629d41f" y="97.205872"/>
      </g>
     </g>
     <g id="text_16">
      <!-- 4000 -->
      <g transform="translate(25.15 101.00509)scale(0.1 -0.1)">
       <defs>
        <path d="M 37.796875 64.3125 
L 12.890625 25.390625 
L 37.796875 25.390625 
z
M 35.203125 72.90625 
L 47.609375 72.90625 
L 47.609375 25.390625 
L 58.015625 25.390625 
L 58.015625 17.1875 
L 47.609375 17.1875 
L 47.609375 0 
L 37.796875 0 
L 37.796875 17.1875 
L 4.890625 17.1875 
L 4.890625 26.703125 
z
" id="DejaVuSans-52"/>
       </defs>
       <use xlink:href="#DejaVuSans-52"/>
       <use x="63.623047" xlink:href="#DejaVuSans-48"/>
       <use x="127.246094" xlink:href="#DejaVuSans-48"/>
       <use x="190.869141" xlink:href="#DejaVuSans-48"/>
      </g>
     </g>
    </g>
    <g id="ytick_8">
     <g id="line2d_17">
      <g>
       <use style="stroke:#000000;stroke-width:0.8;" x="57.6" xlink:href="#m596629d41f" y="62.176738"/>
      </g>
     </g>
     <g id="text_17">
      <!-- 5000 -->
      <g transform="translate(25.15 65.975957)scale(0.1 -0.1)">
       <use xlink:href="#DejaVuSans-53"/>
       <use x="63.623047" xlink:href="#DejaVuSans-48"/>
       <use x="127.246094" xlink:href="#DejaVuSans-48"/>
       <use x="190.869141" xlink:href="#DejaVuSans-48"/>
      </g>
     </g>
    </g>
   </g>
   <g id="line2d_18">
    <path clip-path="url(#pde896b8188)" d="M 73.832727 237.322406 
L 398.487273 237.322406 
L 398.487273 237.322406 
" style="fill:none;stroke:#1f77b4;stroke-dasharray:5.55,2.4;stroke-dashoffset:0;stroke-width:1.5;"/>
   </g>
   <g id="line2d_19">
    <path clip-path="url(#pde896b8188)" d="M 73.832727 237.322406 
L 74.492594 237.956429 
L 75.812328 236.884245 
L 76.472195 236.507316 
L 77.132062 235.088144 
L 77.791929 232.895335 
L 78.451796 231.548811 
L 79.111663 231.191021 
L 79.77153 229.940122 
L 80.431397 229.527172 
L 81.091264 228.83851 
L 81.751131 228.600762 
L 82.410998 226.552397 
L 83.070865 225.067325 
L 85.050466 222.755681 
L 85.710333 223.013 
L 86.3702 223.565686 
L 87.030067 223.886336 
L 87.689933 224.476761 
L 88.3498 225.837035 
L 89.669534 228.146583 
L 90.329401 228.477889 
L 90.989268 228.003399 
L 91.649135 226.363681 
L 92.309002 225.491183 
L 92.968869 224.332523 
L 94.288603 223.820502 
L 94.94847 223.967812 
L 95.608337 224.351203 
L 96.268204 225.124401 
L 97.587938 224.030792 
L 98.907672 223.061493 
L 99.567539 222.113415 
L 100.227406 222.406178 
L 101.54714 221.008151 
L 102.207007 221.020258 
L 102.866874 220.861539 
L 104.846475 225.019058 
L 105.506341 225.131522 
L 106.826075 228.567572 
L 108.145809 230.641654 
L 108.805676 230.650657 
L 109.465543 231.59619 
L 110.12541 233.382262 
L 110.785277 236.290187 
L 112.105011 240.51107 
L 112.764878 242.540767 
L 113.424745 244.066323 
L 114.084612 244.106103 
L 114.744479 244.501669 
L 115.404346 244.73059 
L 116.72408 243.045431 
L 117.383947 242.978437 
L 118.703681 247.23979 
L 119.363548 248.809905 
L 120.023415 249.763993 
L 120.683282 258.856382 
L 122.003016 268.506625 
L 123.322749 274.149849 
L 123.982616 275.070346 
L 124.642483 275.153099 
L 126.622084 267.92736 
L 127.281951 266.904268 
L 129.921419 255.156598 
L 130.581286 253.061155 
L 131.241153 252.559515 
L 131.90102 252.95561 
L 132.560887 251.168631 
L 133.220754 249.942908 
L 135.200355 244.942016 
L 135.860222 243.425538 
L 136.520089 242.431384 
L 137.839823 238.14406 
L 138.49969 236.621806 
L 139.159557 235.510352 
L 139.819424 235.791916 
L 140.47929 236.297934 
L 141.139157 235.785603 
L 141.799024 236.464646 
L 142.458891 236.665427 
L 143.118758 237.271587 
L 144.438492 236.400551 
L 145.098359 235.68511 
L 145.758226 235.29961 
L 147.07796 236.297174 
L 147.737827 235.923032 
L 148.397694 234.474737 
L 149.717428 232.554124 
L 151.697029 230.521964 
L 152.356896 228.58154 
L 153.016763 225.855078 
L 154.336497 221.944375 
L 154.996364 220.896782 
L 156.316098 219.772144 
L 157.635831 217.494992 
L 158.295698 215.168596 
L 158.955565 214.285383 
L 159.615432 217.41975 
L 160.935166 220.816192 
L 161.595033 221.389191 
L 162.2549 220.668958 
L 162.914767 220.459288 
L 163.574634 220.650783 
L 164.234501 220.124348 
L 164.894368 220.295115 
L 165.554235 220.194856 
L 166.214102 220.360518 
L 167.533836 223.730259 
L 168.85357 226.603684 
L 169.513437 228.947636 
L 170.173304 230.614851 
L 170.833171 231.852208 
L 171.493038 232.087876 
L 174.132506 230.499931 
L 174.792373 228.781356 
L 175.452239 229.046903 
L 176.112106 229.530613 
L 176.771973 229.139807 
L 177.43184 229.365735 
L 178.091707 229.796049 
L 178.751574 229.914894 
L 179.411441 230.264009 
L 180.071308 230.444468 
L 180.731175 230.47855 
L 182.710776 233.304159 
L 183.370643 234.809818 
L 185.350244 235.565147 
L 186.010111 236.291234 
L 186.669978 236.771665 
L 187.329845 237.078565 
L 187.989712 236.94239 
L 188.649579 236.513609 
L 189.309446 236.414389 
L 189.969313 237.00695 
L 190.62918 237.884388 
L 191.289047 238.462701 
L 191.948914 239.385705 
L 192.60878 239.792915 
L 193.928514 240.014655 
L 194.588381 239.907071 
L 195.908115 240.227897 
L 196.567982 240.328146 
L 197.227849 240.014933 
L 198.547583 239.147682 
L 199.20745 238.452478 
L 199.867317 238.619037 
L 201.846918 237.924119 
L 203.166652 238.020746 
L 204.486386 238.493929 
L 205.80612 238.590394 
L 207.125854 238.359544 
L 207.785721 237.815361 
L 209.105455 236.187761 
L 210.425188 234.570818 
L 211.085055 232.275386 
L 211.744922 228.620886 
L 212.404789 225.864692 
L 213.064656 223.637455 
L 213.724523 222.126665 
L 214.38439 220.197787 
L 215.044257 219.029466 
L 216.363991 218.351147 
L 217.023858 218.448018 
L 217.683725 217.125782 
L 218.343592 216.234922 
L 219.663326 216.671883 
L 220.323193 216.08083 
L 220.98306 216.356603 
L 221.642927 218.182191 
L 222.302794 219.207239 
L 222.962661 219.673546 
L 223.622528 219.859626 
L 224.282395 220.168925 
L 224.942262 220.751565 
L 225.602129 220.080754 
L 226.261996 220.894564 
L 226.921863 221.955785 
L 227.581729 223.66305 
L 228.901463 226.188267 
L 229.56133 226.953665 
L 230.221197 228.692236 
L 230.881064 229.928897 
L 231.540931 231.419925 
L 232.200798 232.1521 
L 232.860665 232.692955 
L 234.180399 232.827446 
L 234.840266 232.122781 
L 235.500133 232.100819 
L 236.16 233.520207 
L 236.819867 237.498692 
L 238.799468 245.346578 
L 239.459335 246.50398 
L 240.119202 248.09997 
L 240.779069 248.365468 
L 241.438936 248.33719 
L 242.098803 248.033513 
L 242.75867 248.01806 
L 243.418537 246.8579 
L 244.078404 245.423338 
L 244.738271 243.637368 
L 246.058004 241.443875 
L 246.717871 240.299056 
L 247.377738 239.915803 
L 248.037605 240.498911 
L 248.697472 240.905699 
L 249.357339 241.941207 
L 250.677073 241.031461 
L 251.996807 240.108083 
L 252.656674 239.419632 
L 253.976408 238.950138 
L 255.296142 239.380675 
L 255.956009 239.603584 
L 256.615876 239.457196 
L 257.275743 239.050497 
L 257.93561 239.178202 
L 258.595477 239.100264 
L 259.255344 238.315211 
L 259.915211 237.225143 
L 261.894812 232.80184 
L 262.554678 231.979954 
L 263.874412 230.792962 
L 265.194146 230.946615 
L 265.854013 230.63886 
L 266.51388 229.798849 
L 267.173747 228.76699 
L 268.493481 222.711944 
L 269.813215 218.915201 
L 270.473082 217.917606 
L 271.132949 217.276633 
L 271.792816 215.407507 
L 272.452683 215.205245 
L 273.772417 214.415886 
L 274.432284 213.743367 
L 275.092151 213.580552 
L 275.752018 214.270537 
L 277.071752 213.303499 
L 277.731619 209.195925 
L 278.391486 206.310989 
L 279.051353 206.48607 
L 279.71122 205.170832 
L 280.371086 204.93878 
L 281.030953 205.185891 
L 281.69082 204.647276 
L 282.350687 202.936449 
L 283.010554 201.905999 
L 283.670421 202.213796 
L 284.330288 203.15535 
L 284.990155 202.180048 
L 285.650022 199.145764 
L 286.309889 196.899145 
L 286.969756 195.516333 
L 287.629623 192.505225 
L 288.28949 190.595134 
L 288.949357 190.396778 
L 289.609224 190.892931 
L 290.269091 189.632428 
L 290.928958 190.411476 
L 292.248692 200.679237 
L 292.908559 203.245094 
L 293.568426 204.362295 
L 294.228293 201.389414 
L 294.88816 202.020685 
L 295.548027 201.713141 
L 296.207894 201.251928 
L 296.867761 203.517126 
L 297.527627 204.278515 
L 298.187494 204.612304 
L 298.847361 205.809128 
L 299.507228 209.51702 
L 300.167095 212.092416 
L 301.486829 218.544731 
L 302.146696 219.200138 
L 303.46643 218.614832 
L 304.126297 218.114299 
L 304.786164 212.616975 
L 306.105898 197.626359 
L 306.765765 190.727845 
L 307.425632 186.905555 
L 308.085499 186.555407 
L 308.745366 183.788401 
L 309.405233 183.874488 
L 310.0651 183.152081 
L 310.724967 180.470118 
L 311.384834 174.159765 
L 312.044701 170.487927 
L 312.704568 166.155211 
L 313.364435 162.699507 
L 314.024302 156.561338 
L 315.344035 149.025806 
L 316.663769 130.79255 
L 317.323636 128.034896 
L 317.983503 121.482351 
L 318.64337 109.866969 
L 319.963104 81.462622 
L 320.622971 73.86186 
L 321.282838 75.459825 
L 321.942705 86.180369 
L 322.602572 100.223309 
L 323.262439 103.522248 
L 323.922306 102.707277 
L 324.582173 110.219944 
L 325.901907 128.84882 
L 326.561774 135.043024 
L 327.881508 151.647493 
L 328.541375 172.379861 
L 330.520976 204.083236 
L 331.180843 211.72035 
L 331.84071 217.26067 
L 332.500576 227.678469 
L 333.160443 227.58237 
L 333.82031 225.259745 
L 334.480177 223.409099 
L 335.140044 225.455645 
L 335.799911 226.037364 
L 336.459778 221.076239 
L 337.119645 211.347145 
L 337.779512 205.978365 
L 339.099246 190.279258 
L 339.759113 185.561767 
L 340.41898 161.291936 
L 341.078847 142.95856 
L 341.738714 134.271561 
L 342.398581 119.840376 
L 343.058448 111.533259 
L 343.718315 107.013663 
L 344.378182 100.985249 
L 345.038049 99.769453 
L 345.697916 96.887052 
L 346.357783 88.009336 
L 347.01765 84.303261 
L 347.677517 70.988812 
L 348.997251 53.568 
L 349.657118 57.935687 
L 350.316984 77.978607 
L 350.976851 93.168535 
L 352.296585 133.999552 
L 353.616319 168.248461 
L 354.276186 170.207448 
L 354.936053 175.627935 
L 355.59592 175.214468 
L 356.255787 181.346346 
L 357.575521 189.272641 
L 358.235388 186.811776 
L 358.895255 181.526553 
L 360.874856 148.150648 
L 361.534723 140.933532 
L 362.19459 125.395966 
L 362.854457 120.626899 
L 363.514324 127.552207 
L 364.174191 130.68157 
L 364.834058 128.820071 
L 365.493925 132.12427 
L 366.153792 134.70704 
L 366.813659 137.760727 
L 367.473525 143.372722 
L 368.133392 158.008516 
L 368.793259 169.676707 
L 370.112993 200.820076 
L 370.77286 203.03448 
L 371.432727 202.903046 
L 372.092594 203.40604 
L 372.752461 198.977219 
L 373.412328 192.71856 
L 374.072195 188.329241 
L 375.391929 183.404511 
L 376.051796 187.623621 
L 376.711663 188.264247 
L 377.37153 186.75742 
L 378.031397 189.308669 
L 378.691264 197.612273 
L 380.010998 199.726653 
L 380.670865 196.364021 
L 381.330732 193.640089 
L 381.990599 192.378647 
L 382.650466 181.540745 
L 383.310333 175.390435 
L 383.9702 170.525412 
L 384.630067 172.585537 
L 385.289933 178.769426 
L 386.609667 209.554148 
L 387.269534 219.048821 
L 387.929401 234.204887 
L 389.249135 267.262351 
L 390.568869 295.488 
L 391.228736 291.731473 
L 391.888603 285.383521 
L 392.54847 280.388744 
L 393.208337 279.611018 
L 394.528071 256.334097 
L 395.847805 245.512772 
L 396.507672 251.947631 
L 397.167539 244.916151 
L 397.827406 242.291656 
L 398.487273 237.627327 
L 398.487273 237.627327 
" style="fill:none;stroke:#0000ff;stroke-linecap:square;stroke-width:1.5;"/>
   </g>
   <g id="line2d_20">
    <path clip-path="url(#pde896b8188)" d="M 73.832727 237.322406 
L 74.492594 237.44921 
L 75.812328 237.323558 
L 76.472195 237.160309 
L 77.132062 236.745876 
L 79.111663 234.310505 
L 80.431397 232.654577 
L 82.410998 230.297074 
L 84.390599 227.28096 
L 85.050466 226.375904 
L 85.710333 225.703323 
L 86.3702 225.275796 
L 87.030067 224.997904 
L 87.689933 224.893675 
L 88.3498 225.082347 
L 89.009667 225.447827 
L 90.329401 226.485641 
L 90.989268 226.789192 
L 91.649135 226.70409 
L 92.309002 226.461509 
L 94.288603 225.271293 
L 94.94847 225.010597 
L 95.608337 224.878718 
L 96.928071 224.8713 
L 98.247805 224.470313 
L 98.907672 224.188549 
L 99.567539 223.773522 
L 100.887273 223.130124 
L 102.207007 222.368635 
L 102.866874 222.067216 
L 103.526741 222.092306 
L 104.186608 222.34249 
L 106.166208 224.065623 
L 110.12541 229.401639 
L 111.445144 232.324736 
L 114.084612 238.705596 
L 115.404346 240.837966 
L 116.064213 241.464805 
L 117.383947 242.020432 
L 118.043814 242.666904 
L 119.363548 244.627166 
L 120.023415 245.654531 
L 121.343149 251.382984 
L 123.322749 261.329752 
L 123.982616 264.077871 
L 124.642483 266.292917 
L 125.30235 267.562123 
L 125.962217 268.088316 
L 126.622084 268.056125 
L 127.281951 267.825754 
L 127.941818 267.028508 
L 128.601685 265.697002 
L 129.921419 262.295282 
L 131.241153 258.870668 
L 133.220754 255.095663 
L 135.200355 250.776216 
L 137.839823 244.727719 
L 139.159557 241.5873 
L 139.819424 240.428223 
L 141.139157 238.838853 
L 142.458891 238.024295 
L 143.778625 237.664733 
L 145.098359 237.066539 
L 145.758226 236.713154 
L 146.418093 236.52797 
L 147.737827 236.370055 
L 149.057561 235.497497 
L 151.697029 233.035083 
L 152.356896 232.144375 
L 153.67663 229.461915 
L 154.996364 226.546082 
L 156.316098 224.193925 
L 157.635831 221.955035 
L 158.955565 219.335275 
L 159.615432 218.95217 
L 160.275299 218.963328 
L 161.595033 219.744959 
L 162.914767 220.035664 
L 163.574634 220.158688 
L 166.214102 220.218787 
L 166.873969 220.556008 
L 167.533836 221.190858 
L 168.85357 222.929294 
L 171.493038 227.788706 
L 172.152905 228.563038 
L 172.812772 229.071163 
L 174.132506 229.626203 
L 175.452239 229.375168 
L 176.771973 229.352967 
L 178.091707 229.443626 
L 180.071308 229.835378 
L 180.731175 229.964013 
L 181.391042 230.267564 
L 182.710776 231.225041 
L 184.03051 232.559664 
L 187.329845 235.145142 
L 187.989712 235.504591 
L 189.969313 236.079785 
L 191.289047 236.845105 
L 193.268647 238.262733 
L 194.588381 238.871908 
L 196.567982 239.535583 
L 197.887716 239.618214 
L 198.547583 239.524107 
L 199.867317 239.171633 
L 203.166652 238.423165 
L 205.146253 238.450467 
L 207.125854 238.458376 
L 207.785721 238.329773 
L 209.105455 237.680909 
L 210.425188 236.700663 
L 211.085055 235.815608 
L 212.404789 232.674269 
L 215.044257 225.673608 
L 216.363991 223.09413 
L 219.003459 219.43819 
L 220.323193 218.324109 
L 220.98306 217.930608 
L 221.642927 217.980924 
L 224.282395 219.061347 
L 224.942262 219.399391 
L 225.602129 219.535663 
L 226.261996 219.807443 
L 226.921863 220.237112 
L 228.241596 221.717974 
L 230.221197 224.522734 
L 232.860665 228.813908 
L 234.180399 230.250034 
L 236.16 231.439906 
L 236.819867 232.651663 
L 237.479734 234.161978 
L 240.119202 241.282326 
L 240.779069 242.698954 
L 241.438936 243.826601 
L 242.75867 245.337999 
L 243.418537 245.641979 
L 244.078404 245.598251 
L 244.738271 245.206074 
L 246.058004 244.010288 
L 247.377738 242.597594 
L 248.037605 242.177857 
L 248.697472 241.923425 
L 250.017206 241.850788 
L 251.33694 241.459815 
L 252.656674 240.835501 
L 253.976408 240.185929 
L 255.296142 239.852745 
L 257.275743 239.597115 
L 258.595477 239.430719 
L 259.255344 239.207617 
L 259.915211 238.811122 
L 261.234945 237.414643 
L 263.214545 234.752003 
L 263.874412 233.960195 
L 265.194146 232.869076 
L 266.51388 231.898196 
L 267.173747 231.271955 
L 267.833614 230.132212 
L 272.452683 219.973097 
L 273.772417 218.031799 
L 275.092151 216.4554 
L 277.071752 215.117047 
L 277.731619 213.932822 
L 278.391486 212.408456 
L 280.371086 208.998435 
L 282.350687 206.601847 
L 283.010554 205.662677 
L 283.670421 204.972901 
L 284.990155 204.123522 
L 285.650022 203.127971 
L 286.969756 200.609031 
L 288.949357 195.92707 
L 290.269091 193.862679 
L 290.928958 193.172439 
L 291.588825 193.710491 
L 292.908559 196.732411 
L 293.568426 198.258388 
L 294.88816 199.511811 
L 295.548027 199.952077 
L 296.207894 200.212047 
L 298.847361 202.894453 
L 299.507228 204.218966 
L 300.167095 205.793656 
L 302.806563 213.162551 
L 303.46643 214.253007 
L 304.126297 215.025265 
L 304.786164 214.543607 
L 305.446031 212.535875 
L 306.105898 209.553972 
L 307.425632 202.012108 
L 308.745366 195.894295 
L 310.0651 191.422683 
L 310.724967 189.23217 
L 312.704568 179.688431 
L 314.024302 172.344785 
L 315.344035 164.50204 
L 316.663769 153.757529 
L 317.983503 143.186872 
L 318.64337 136.522891 
L 319.963104 118.838038 
L 320.622971 109.842803 
L 321.282838 102.966207 
L 321.942705 99.609039 
L 322.602572 99.731893 
L 323.262439 100.489964 
L 323.922306 100.933427 
L 324.582173 102.79073 
L 325.24204 106.1575 
L 326.561774 115.565216 
L 327.881508 127.186502 
L 329.861109 155.501042 
L 331.84071 183.066578 
L 332.500576 191.988956 
L 333.160443 199.107639 
L 333.82031 204.33806 
L 335.140044 211.612943 
L 335.799911 214.497828 
L 336.459778 215.81351 
L 337.119645 214.920237 
L 337.779512 213.131863 
L 338.439379 210.192757 
L 339.759113 202.080399 
L 340.41898 193.922706 
L 343.718315 143.592788 
L 344.378182 135.07128 
L 346.357783 115.030781 
L 347.01765 108.885277 
L 348.997251 85.552917 
L 349.657118 80.029471 
L 350.316984 79.619298 
L 350.976851 82.329146 
L 351.636718 88.675447 
L 352.296585 97.740268 
L 354.936053 139.410942 
L 356.915654 159.946569 
L 357.575521 165.811783 
L 358.235388 170.011782 
L 358.895255 172.314736 
L 359.555122 172.037144 
L 360.214989 169.770115 
L 361.534723 160.543684 
L 362.854457 146.936692 
L 363.514324 143.059795 
L 364.834058 138.231334 
L 365.493925 137.009921 
L 366.153792 136.549345 
L 366.813659 136.791621 
L 367.473525 138.107842 
L 368.133392 142.087977 
L 368.793259 147.605723 
L 369.453126 155.148967 
L 370.77286 172.033447 
L 371.432727 178.207367 
L 372.092594 183.247102 
L 372.752461 186.393125 
L 373.412328 187.658212 
L 374.072195 187.792418 
L 374.732062 187.361195 
L 375.391929 186.569858 
L 376.711663 187.077338 
L 377.37153 187.013354 
L 378.031397 187.472417 
L 379.351131 191.320545 
L 380.010998 193.001767 
L 380.670865 193.674218 
L 381.330732 193.667392 
L 381.990599 193.409643 
L 382.650466 191.035863 
L 384.630067 182.061511 
L 385.289933 181.403094 
L 385.9498 184.09755 
L 386.609667 189.18887 
L 387.269534 195.16086 
L 387.929401 202.969665 
L 389.249135 223.665832 
L 390.568869 247.333828 
L 391.228736 256.213357 
L 391.888603 262.04739 
L 392.54847 265.715661 
L 393.208337 268.494732 
L 393.868204 268.176575 
L 394.528071 265.808079 
L 395.187938 262.899554 
L 395.847805 259.422197 
L 396.507672 257.927284 
L 398.487273 249.700167 
L 398.487273 249.700167 
" style="fill:none;stroke:#ff6347;stroke-linecap:square;stroke-width:1.5;"/>
   </g>
   <g id="patch_3">
    <path d="M 57.6 307.584 
L 57.6 41.472 
" style="fill:none;stroke:#000000;stroke-linecap:square;stroke-linejoin:miter;stroke-width:0.8;"/>
   </g>
   <g id="patch_4">
    <path d="M 414.72 307.584 
L 414.72 41.472 
" style="fill:none;stroke:#000000;stroke-linecap:square;stroke-linejoin:miter;stroke-width:0.8;"/>
   </g>
   <g id="patch_5">
    <path d="M 57.6 307.584 
L 414.72 307.584 
" style="fill:none;stroke:#000000;stroke-linecap:square;stroke-linejoin:miter;stroke-width:0.8;"/>
   </g>
   <g id="patch_6">
    <path d="M 57.6 41.472 
L 414.72 41.472 
" style="fill:none;stroke:#000000;stroke-linecap:square;stroke-linejoin:miter;stroke-width:0.8;"/>
   </g>
   <g id="text_18">
    <!-- Data source: coindesk -->
    <g transform="translate(180.640469 35.472)scale(0.1 -0.1)">
     <defs>
      <path d="M 19.671875 64.796875 
L 19.671875 8.109375 
L 31.59375 8.109375 
Q 46.6875 8.109375 53.6875 14.9375 
Q 60.6875 21.78125 60.6875 36.53125 
Q 60.6875 51.171875 53.6875 57.984375 
Q 46.6875 64.796875 31.59375 64.796875 
z
M 9.8125 72.90625 
L 30.078125 72.90625 
Q 51.265625 72.90625 61.171875 64.09375 
Q 71.09375 55.28125 71.09375 36.53125 
Q 71.09375 17.671875 61.125 8.828125 
Q 51.171875 0 30.078125 0 
L 9.8125 0 
z
" id="DejaVuSans-68"/>
      <path d="M 34.28125 27.484375 
Q 23.390625 27.484375 19.1875 25 
Q 14.984375 22.515625 14.984375 16.5 
Q 14.984375 11.71875 18.140625 8.90625 
Q 21.296875 6.109375 26.703125 6.109375 
Q 34.1875 6.109375 38.703125 11.40625 
Q 43.21875 16.703125 43.21875 25.484375 
L 43.21875 27.484375 
z
M 52.203125 31.203125 
L 52.203125 0 
L 43.21875 0 
L 43.21875 8.296875 
Q 40.140625 3.328125 35.546875 0.953125 
Q 30.953125 -1.421875 24.3125 -1.421875 
Q 15.921875 -1.421875 10.953125 3.296875 
Q 6 8.015625 6 15.921875 
Q 6 25.140625 12.171875 29.828125 
Q 18.359375 34.515625 30.609375 34.515625 
L 43.21875 34.515625 
L 43.21875 35.40625 
Q 43.21875 41.609375 39.140625 45 
Q 35.0625 48.390625 27.6875 48.390625 
Q 23 48.390625 18.546875 47.265625 
Q 14.109375 46.140625 10.015625 43.890625 
L 10.015625 52.203125 
Q 14.9375 54.109375 19.578125 55.046875 
Q 24.21875 56 28.609375 56 
Q 40.484375 56 46.34375 49.84375 
Q 52.203125 43.703125 52.203125 31.203125 
z
" id="DejaVuSans-97"/>
      <path d="M 18.3125 70.21875 
L 18.3125 54.6875 
L 36.8125 54.6875 
L 36.8125 47.703125 
L 18.3125 47.703125 
L 18.3125 18.015625 
Q 18.3125 11.328125 20.140625 9.421875 
Q 21.96875 7.515625 27.59375 7.515625 
L 36.8125 7.515625 
L 36.8125 0 
L 27.59375 0 
Q 17.1875 0 13.234375 3.875 
Q 9.28125 7.765625 9.28125 18.015625 
L 9.28125 47.703125 
L 2.6875 47.703125 
L 2.6875 54.6875 
L 9.28125 54.6875 
L 9.28125 70.21875 
z
" id="DejaVuSans-116"/>
      <path id="DejaVuSans-32"/>
      <path d="M 44.28125 53.078125 
L 44.28125 44.578125 
Q 40.484375 46.53125 36.375 47.5 
Q 32.28125 48.484375 27.875 48.484375 
Q 21.1875 48.484375 17.84375 46.4375 
Q 14.5 44.390625 14.5 40.28125 
Q 14.5 37.15625 16.890625 35.375 
Q 19.28125 33.59375 26.515625 31.984375 
L 29.59375 31.296875 
Q 39.15625 29.25 43.1875 25.515625 
Q 47.21875 21.78125 47.21875 15.09375 
Q 47.21875 7.46875 41.1875 3.015625 
Q 35.15625 -1.421875 24.609375 -1.421875 
Q 20.21875 -1.421875 15.453125 -0.5625 
Q 10.6875 0.296875 5.421875 2 
L 5.421875 11.28125 
Q 10.40625 8.6875 15.234375 7.390625 
Q 20.0625 6.109375 24.8125 6.109375 
Q 31.15625 6.109375 34.5625 8.28125 
Q 37.984375 10.453125 37.984375 14.40625 
Q 37.984375 18.0625 35.515625 20.015625 
Q 33.0625 21.96875 24.703125 23.78125 
L 21.578125 24.515625 
Q 13.234375 26.265625 9.515625 29.90625 
Q 5.8125 33.546875 5.8125 39.890625 
Q 5.8125 47.609375 11.28125 51.796875 
Q 16.75 56 26.8125 56 
Q 31.78125 56 36.171875 55.265625 
Q 40.578125 54.546875 44.28125 53.078125 
z
" id="DejaVuSans-115"/>
      <path d="M 30.609375 48.390625 
Q 23.390625 48.390625 19.1875 42.75 
Q 14.984375 37.109375 14.984375 27.296875 
Q 14.984375 17.484375 19.15625 11.84375 
Q 23.34375 6.203125 30.609375 6.203125 
Q 37.796875 6.203125 41.984375 11.859375 
Q 46.1875 17.53125 46.1875 27.296875 
Q 46.1875 37.015625 41.984375 42.703125 
Q 37.796875 48.390625 30.609375 48.390625 
z
M 30.609375 56 
Q 42.328125 56 49.015625 48.375 
Q 55.71875 40.765625 55.71875 27.296875 
Q 55.71875 13.875 49.015625 6.21875 
Q 42.328125 -1.421875 30.609375 -1.421875 
Q 18.84375 -1.421875 12.171875 6.21875 
Q 5.515625 13.875 5.515625 27.296875 
Q 5.515625 40.765625 12.171875 48.375 
Q 18.84375 56 30.609375 56 
z
" id="DejaVuSans-111"/>
      <path d="M 8.5 21.578125 
L 8.5 54.6875 
L 17.484375 54.6875 
L 17.484375 21.921875 
Q 17.484375 14.15625 20.5 10.265625 
Q 23.53125 6.390625 29.59375 6.390625 
Q 36.859375 6.390625 41.078125 11.03125 
Q 45.3125 15.671875 45.3125 23.6875 
L 45.3125 54.6875 
L 54.296875 54.6875 
L 54.296875 0 
L 45.3125 0 
L 45.3125 8.40625 
Q 42.046875 3.421875 37.71875 1 
Q 33.40625 -1.421875 27.6875 -1.421875 
Q 18.265625 -1.421875 13.375 4.4375 
Q 8.5 10.296875 8.5 21.578125 
z
M 31.109375 56 
z
" id="DejaVuSans-117"/>
      <path d="M 41.109375 46.296875 
Q 39.59375 47.171875 37.8125 47.578125 
Q 36.03125 48 33.890625 48 
Q 26.265625 48 22.1875 43.046875 
Q 18.109375 38.09375 18.109375 28.8125 
L 18.109375 0 
L 9.078125 0 
L 9.078125 54.6875 
L 18.109375 54.6875 
L 18.109375 46.1875 
Q 20.953125 51.171875 25.484375 53.578125 
Q 30.03125 56 36.53125 56 
Q 37.453125 56 38.578125 55.875 
Q 39.703125 55.765625 41.0625 55.515625 
z
" id="DejaVuSans-114"/>
      <path d="M 48.78125 52.59375 
L 48.78125 44.1875 
Q 44.96875 46.296875 41.140625 47.34375 
Q 37.3125 48.390625 33.40625 48.390625 
Q 24.65625 48.390625 19.8125 42.84375 
Q 14.984375 37.3125 14.984375 27.296875 
Q 14.984375 17.28125 19.8125 11.734375 
Q 24.65625 6.203125 33.40625 6.203125 
Q 37.3125 6.203125 41.140625 7.25 
Q 44.96875 8.296875 48.78125 10.40625 
L 48.78125 2.09375 
Q 45.015625 0.34375 40.984375 -0.53125 
Q 36.96875 -1.421875 32.421875 -1.421875 
Q 20.0625 -1.421875 12.78125 6.34375 
Q 5.515625 14.109375 5.515625 27.296875 
Q 5.515625 40.671875 12.859375 48.328125 
Q 20.21875 56 33.015625 56 
Q 37.15625 56 41.109375 55.140625 
Q 45.0625 54.296875 48.78125 52.59375 
z
" id="DejaVuSans-99"/>
      <path d="M 56.203125 29.59375 
L 56.203125 25.203125 
L 14.890625 25.203125 
Q 15.484375 15.921875 20.484375 11.0625 
Q 25.484375 6.203125 34.421875 6.203125 
Q 39.59375 6.203125 44.453125 7.46875 
Q 49.3125 8.734375 54.109375 11.28125 
L 54.109375 2.78125 
Q 49.265625 0.734375 44.1875 -0.34375 
Q 39.109375 -1.421875 33.890625 -1.421875 
Q 20.796875 -1.421875 13.15625 6.1875 
Q 5.515625 13.8125 5.515625 26.8125 
Q 5.515625 40.234375 12.765625 48.109375 
Q 20.015625 56 32.328125 56 
Q 43.359375 56 49.78125 48.890625 
Q 56.203125 41.796875 56.203125 29.59375 
z
M 47.21875 32.234375 
Q 47.125 39.59375 43.09375 43.984375 
Q 39.0625 48.390625 32.421875 48.390625 
Q 24.90625 48.390625 20.390625 44.140625 
Q 15.875 39.890625 15.1875 32.171875 
z
" id="DejaVuSans-101"/>
      <path d="M 11.71875 12.40625 
L 22.015625 12.40625 
L 22.015625 0 
L 11.71875 0 
z
M 11.71875 51.703125 
L 22.015625 51.703125 
L 22.015625 39.3125 
L 11.71875 39.3125 
z
" id="DejaVuSans-58"/>
      <path d="M 9.421875 54.6875 
L 18.40625 54.6875 
L 18.40625 0 
L 9.421875 0 
z
M 9.421875 75.984375 
L 18.40625 75.984375 
L 18.40625 64.59375 
L 9.421875 64.59375 
z
" id="DejaVuSans-105"/>
      <path d="M 54.890625 33.015625 
L 54.890625 0 
L 45.90625 0 
L 45.90625 32.71875 
Q 45.90625 40.484375 42.875 44.328125 
Q 39.84375 48.1875 33.796875 48.1875 
Q 26.515625 48.1875 22.3125 43.546875 
Q 18.109375 38.921875 18.109375 30.90625 
L 18.109375 0 
L 9.078125 0 
L 9.078125 54.6875 
L 18.109375 54.6875 
L 18.109375 46.1875 
Q 21.34375 51.125 25.703125 53.5625 
Q 30.078125 56 35.796875 56 
Q 45.21875 56 50.046875 50.171875 
Q 54.890625 44.34375 54.890625 33.015625 
z
" id="DejaVuSans-110"/>
      <path d="M 45.40625 46.390625 
L 45.40625 75.984375 
L 54.390625 75.984375 
L 54.390625 0 
L 45.40625 0 
L 45.40625 8.203125 
Q 42.578125 3.328125 38.25 0.953125 
Q 33.9375 -1.421875 27.875 -1.421875 
Q 17.96875 -1.421875 11.734375 6.484375 
Q 5.515625 14.40625 5.515625 27.296875 
Q 5.515625 40.1875 11.734375 48.09375 
Q 17.96875 56 27.875 56 
Q 33.9375 56 38.25 53.625 
Q 42.578125 51.265625 45.40625 46.390625 
z
M 14.796875 27.296875 
Q 14.796875 17.390625 18.875 11.75 
Q 22.953125 6.109375 30.078125 6.109375 
Q 37.203125 6.109375 41.296875 11.75 
Q 45.40625 17.390625 45.40625 27.296875 
Q 45.40625 37.203125 41.296875 42.84375 
Q 37.203125 48.484375 30.078125 48.484375 
Q 22.953125 48.484375 18.875 42.84375 
Q 14.796875 37.203125 14.796875 27.296875 
z
" id="DejaVuSans-100"/>
      <path d="M 9.078125 75.984375 
L 18.109375 75.984375 
L 18.109375 31.109375 
L 44.921875 54.6875 
L 56.390625 54.6875 
L 27.390625 29.109375 
L 57.625 0 
L 45.90625 0 
L 18.109375 26.703125 
L 18.109375 0 
L 9.078125 0 
z
" id="DejaVuSans-107"/>
     </defs>
     <use xlink:href="#DejaVuSans-68"/>
     <use x="77.001953" xlink:href="#DejaVuSans-97"/>
     <use x="138.28125" xlink:href="#DejaVuSans-116"/>
     <use x="177.490234" xlink:href="#DejaVuSans-97"/>
     <use x="238.769531" xlink:href="#DejaVuSans-32"/>
     <use x="270.556641" xlink:href="#DejaVuSans-115"/>
     <use x="322.65625" xlink:href="#DejaVuSans-111"/>
     <use x="383.837891" xlink:href="#DejaVuSans-117"/>
     <use x="447.216797" xlink:href="#DejaVuSans-114"/>
     <use x="486.080078" xlink:href="#DejaVuSans-99"/>
     <use x="541.060547" xlink:href="#DejaVuSans-101"/>
     <use x="602.583984" xlink:href="#DejaVuSans-58"/>
     <use x="636.275391" xlink:href="#DejaVuSans-32"/>
     <use x="668.0625" xlink:href="#DejaVuSans-99"/>
     <use x="723.042969" xlink:href="#DejaVuSans-111"/>
     <use x="784.224609" xlink:href="#DejaVuSans-105"/>
     <use x="812.007812" xlink:href="#DejaVuSans-110"/>
     <use x="875.386719" xlink:href="#DejaVuSans-100"/>
     <use x="938.863281" xlink:href="#DejaVuSans-101"/>
     <use x="1000.386719" xlink:href="#DejaVuSans-115"/>
     <use x="1052.486328" xlink:href="#DejaVuSans-107"/>
    </g>
   </g>
   <g id="legend_1">
    <g id="patch_7">
     <path d="M 64.6 78.82825 
L 127.31875 78.82825 
Q 129.31875 78.82825 129.31875 76.82825 
L 129.31875 48.472 
Q 129.31875 46.472 127.31875 46.472 
L 64.6 46.472 
Q 62.6 46.472 62.6 48.472 
L 62.6 76.82825 
Q 62.6 78.82825 64.6 78.82825 
z
" style="fill:#ffffff;opacity:0.8;stroke:#cccccc;stroke-linejoin:miter;"/>
    </g>
    <g id="line2d_21">
     <path d="M 66.6 54.570437 
L 86.6 54.570437 
" style="fill:none;stroke:#0000ff;stroke-linecap:square;stroke-width:1.5;"/>
    </g>
    <g id="line2d_22"/>
    <g id="text_19">
     <!-- MACD -->
     <g transform="translate(94.6 58.070437)scale(0.1 -0.1)">
      <defs>
       <path d="M 9.8125 72.90625 
L 24.515625 72.90625 
L 43.109375 23.296875 
L 61.8125 72.90625 
L 76.515625 72.90625 
L 76.515625 0 
L 66.890625 0 
L 66.890625 64.015625 
L 48.09375 14.015625 
L 38.1875 14.015625 
L 19.390625 64.015625 
L 19.390625 0 
L 9.8125 0 
z
" id="DejaVuSans-77"/>
       <path d="M 34.1875 63.1875 
L 20.796875 26.90625 
L 47.609375 26.90625 
z
M 28.609375 72.90625 
L 39.796875 72.90625 
L 67.578125 0 
L 57.328125 0 
L 50.6875 18.703125 
L 17.828125 18.703125 
L 11.1875 0 
L 0.78125 0 
z
" id="DejaVuSans-65"/>
       <path d="M 64.40625 67.28125 
L 64.40625 56.890625 
Q 59.421875 61.53125 53.78125 63.8125 
Q 48.140625 66.109375 41.796875 66.109375 
Q 29.296875 66.109375 22.65625 58.46875 
Q 16.015625 50.828125 16.015625 36.375 
Q 16.015625 21.96875 22.65625 14.328125 
Q 29.296875 6.6875 41.796875 6.6875 
Q 48.140625 6.6875 53.78125 8.984375 
Q 59.421875 11.28125 64.40625 15.921875 
L 64.40625 5.609375 
Q 59.234375 2.09375 53.4375 0.328125 
Q 47.65625 -1.421875 41.21875 -1.421875 
Q 24.65625 -1.421875 15.125 8.703125 
Q 5.609375 18.84375 5.609375 36.375 
Q 5.609375 53.953125 15.125 64.078125 
Q 24.65625 74.21875 41.21875 74.21875 
Q 47.75 74.21875 53.53125 72.484375 
Q 59.328125 70.75 64.40625 67.28125 
z
" id="DejaVuSans-67"/>
      </defs>
      <use xlink:href="#DejaVuSans-77"/>
      <use x="86.279297" xlink:href="#DejaVuSans-65"/>
      <use x="152.9375" xlink:href="#DejaVuSans-67"/>
      <use x="222.761719" xlink:href="#DejaVuSans-68"/>
     </g>
    </g>
    <g id="line2d_23">
     <path d="M 66.6 69.248562 
L 86.6 69.248562 
" style="fill:none;stroke:#ff6347;stroke-linecap:square;stroke-width:1.5;"/>
    </g>
    <g id="line2d_24"/>
    <g id="text_20">
     <!-- Signal -->
     <g transform="translate(94.6 72.748562)scale(0.1 -0.1)">
      <defs>
       <path d="M 53.515625 70.515625 
L 53.515625 60.890625 
Q 47.90625 63.578125 42.921875 64.890625 
Q 37.9375 66.21875 33.296875 66.21875 
Q 25.25 66.21875 20.875 63.09375 
Q 16.5 59.96875 16.5 54.203125 
Q 16.5 49.359375 19.40625 46.890625 
Q 22.3125 44.4375 30.421875 42.921875 
L 36.375 41.703125 
Q 47.40625 39.59375 52.65625 34.296875 
Q 57.90625 29 57.90625 20.125 
Q 57.90625 9.515625 50.796875 4.046875 
Q 43.703125 -1.421875 29.984375 -1.421875 
Q 24.8125 -1.421875 18.96875 -0.25 
Q 13.140625 0.921875 6.890625 3.21875 
L 6.890625 13.375 
Q 12.890625 10.015625 18.65625 8.296875 
Q 24.421875 6.59375 29.984375 6.59375 
Q 38.421875 6.59375 43.015625 9.90625 
Q 47.609375 13.234375 47.609375 19.390625 
Q 47.609375 24.75 44.3125 27.78125 
Q 41.015625 30.8125 33.5 32.328125 
L 27.484375 33.5 
Q 16.453125 35.6875 11.515625 40.375 
Q 6.59375 45.0625 6.59375 53.421875 
Q 6.59375 63.09375 13.40625 68.65625 
Q 20.21875 74.21875 32.171875 74.21875 
Q 37.3125 74.21875 42.625 73.28125 
Q 47.953125 72.359375 53.515625 70.515625 
z
" id="DejaVuSans-83"/>
       <path d="M 45.40625 27.984375 
Q 45.40625 37.75 41.375 43.109375 
Q 37.359375 48.484375 30.078125 48.484375 
Q 22.859375 48.484375 18.828125 43.109375 
Q 14.796875 37.75 14.796875 27.984375 
Q 14.796875 18.265625 18.828125 12.890625 
Q 22.859375 7.515625 30.078125 7.515625 
Q 37.359375 7.515625 41.375 12.890625 
Q 45.40625 18.265625 45.40625 27.984375 
z
M 54.390625 6.78125 
Q 54.390625 -7.171875 48.1875 -13.984375 
Q 42 -20.796875 29.203125 -20.796875 
Q 24.46875 -20.796875 20.265625 -20.09375 
Q 16.0625 -19.390625 12.109375 -17.921875 
L 12.109375 -9.1875 
Q 16.0625 -11.328125 19.921875 -12.34375 
Q 23.78125 -13.375 27.78125 -13.375 
Q 36.625 -13.375 41.015625 -8.765625 
Q 45.40625 -4.15625 45.40625 5.171875 
L 45.40625 9.625 
Q 42.625 4.78125 38.28125 2.390625 
Q 33.9375 0 27.875 0 
Q 17.828125 0 11.671875 7.65625 
Q 5.515625 15.328125 5.515625 27.984375 
Q 5.515625 40.671875 11.671875 48.328125 
Q 17.828125 56 27.875 56 
Q 33.9375 56 38.28125 53.609375 
Q 42.625 51.21875 45.40625 46.390625 
L 45.40625 54.6875 
L 54.390625 54.6875 
z
" id="DejaVuSans-103"/>
       <path d="M 9.421875 75.984375 
L 18.40625 75.984375 
L 18.40625 0 
L 9.421875 0 
z
" id="DejaVuSans-108"/>
      </defs>
      <use xlink:href="#DejaVuSans-83"/>
      <use x="63.476562" xlink:href="#DejaVuSans-105"/>
      <use x="91.259766" xlink:href="#DejaVuSans-103"/>
      <use x="154.736328" xlink:href="#DejaVuSans-110"/>
      <use x="218.115234" xlink:href="#DejaVuSans-97"/>
      <use x="279.394531" xlink:href="#DejaVuSans-108"/>
     </g>
    </g>
   </g>
  </g>
  <g id="text_21">
   <!-- MACD -->
   <g transform="translate(206.41875 19.0695)scale(0.16 -0.16)">
    <use xlink:href="#DejaVuSans-77"/>
    <use x="86.279297" xlink:href="#DejaVuSans-65"/>
    <use x="152.9375" xlink:href="#DejaVuSans-67"/>
    <use x="222.761719" xlink:href="#DejaVuSans-68"/>
   </g>
  </g>
 </g>
 <defs>
  <clipPath id="pde896b8188">
   <rect height="266.112" width="357.12" x="57.6" y="41.472"/>
  </clipPath>
 </defs>
</svg>
