<?xml version="1.0" encoding="utf-8" standalone="no"?>
<!DOCTYPE svg PUBLIC "-//W3C//DTD SVG 1.1//EN"
  "http://www.w3.org/Graphics/SVG/1.1/DTD/svg11.dtd">
<!-- Created with matplotlib (https://matplotlib.org/) -->
<svg height="345.6pt" version="1.1" viewBox="0 0 460.8 345.6" width="460.8pt" xmlns="http://www.w3.org/2000/svg" xmlns:xlink="http://www.w3.org/1999/xlink">
 <metadata>
  <rdf:RDF xmlns:cc="http://creativecommons.org/ns#" xmlns:dc="http://purl.org/dc/elements/1.1/" xmlns:rdf="http://www.w3.org/1999/02/22-rdf-syntax-ns#">
   <cc:Work>
    <dc:type rdf:resource="http://purl.org/dc/dcmitype/StillImage"/>
    <dc:date>2021-03-08T19:00:13.356946</dc:date>
    <dc:format>image/svg+xml</dc:format>
    <dc:creator>
     <cc:Agent>
      <dc:title>Matplotlib v3.3.2, https://matplotlib.org/</dc:title>
     </cc:Agent>
    </dc:creator>
   </cc:Work>
  </rdf:RDF>
 </metadata>
 <defs>
  <style type="text/css">*{stroke-linecap:butt;stroke-linejoin:round;}</style>
 </defs>
 <g id="figure_1">
  <g id="patch_1">
   <path d="M 0 345.6 
L 460.8 345.6 
L 460.8 0 
L 0 0 
z
" style="fill:#ffffff;"/>
  </g>
  <g id="axes_1">
   <g id="patch_2">
    <path d="M 57.6 307.584 
L 414.72 307.584 
L 414.72 41.472 
L 57.6 41.472 
z
" style="fill:#ffffff;"/>
   </g>
   <g id="matplotlib.axis_1">
    <g id="xtick_1">
     <g id="line2d_1">
      <defs>
       <path d="M 0 0 
L 0 3.5 
" id="mb7753c8e38" style="stroke:#000000;stroke-width:0.8;"/>
      </defs>
      <g>
       <use style="stroke:#000000;stroke-width:0.8;" x="73.832727" xlink:href="#mb7753c8e38" y="307.584"/>
      </g>
     </g>
     <g id="text_1">
      <!-- 2020-01 -->
      <g transform="translate(52.941321 322.182437)scale(0.1 -0.1)">
       <defs>
        <path d="M 19.1875 8.296875 
L 53.609375 8.296875 
L 53.609375 0 
L 7.328125 0 
L 7.328125 8.296875 
Q 12.9375 14.109375 22.625 23.890625 
Q 32.328125 33.6875 34.8125 36.53125 
Q 39.546875 41.84375 41.421875 45.53125 
Q 43.3125 49.21875 43.3125 52.78125 
Q 43.3125 58.59375 39.234375 62.25 
Q 35.15625 65.921875 28.609375 65.921875 
Q 23.96875 65.921875 18.8125 64.3125 
Q 13.671875 62.703125 7.8125 59.421875 
L 7.8125 69.390625 
Q 13.765625 71.78125 18.9375 73 
Q 24.125 74.21875 28.421875 74.21875 
Q 39.75 74.21875 46.484375 68.546875 
Q 53.21875 62.890625 53.21875 53.421875 
Q 53.21875 48.921875 51.53125 44.890625 
Q 49.859375 40.875 45.40625 35.40625 
Q 44.1875 33.984375 37.640625 27.21875 
Q 31.109375 20.453125 19.1875 8.296875 
z
" id="DejaVuSans-50"/>
        <path d="M 31.78125 66.40625 
Q 24.171875 66.40625 20.328125 58.90625 
Q 16.5 51.421875 16.5 36.375 
Q 16.5 21.390625 20.328125 13.890625 
Q 24.171875 6.390625 31.78125 6.390625 
Q 39.453125 6.390625 43.28125 13.890625 
Q 47.125 21.390625 47.125 36.375 
Q 47.125 51.421875 43.28125 58.90625 
Q 39.453125 66.40625 31.78125 66.40625 
z
M 31.78125 74.21875 
Q 44.046875 74.21875 50.515625 64.515625 
Q 56.984375 54.828125 56.984375 36.375 
Q 56.984375 17.96875 50.515625 8.265625 
Q 44.046875 -1.421875 31.78125 -1.421875 
Q 19.53125 -1.421875 13.0625 8.265625 
Q 6.59375 17.96875 6.59375 36.375 
Q 6.59375 54.828125 13.0625 64.515625 
Q 19.53125 74.21875 31.78125 74.21875 
z
" id="DejaVuSans-48"/>
        <path d="M 4.890625 31.390625 
L 31.203125 31.390625 
L 31.203125 23.390625 
L 4.890625 23.390625 
z
" id="DejaVuSans-45"/>
        <path d="M 12.40625 8.296875 
L 28.515625 8.296875 
L 28.515625 63.921875 
L 10.984375 60.40625 
L 10.984375 69.390625 
L 28.421875 72.90625 
L 38.28125 72.90625 
L 38.28125 8.296875 
L 54.390625 8.296875 
L 54.390625 0 
L 12.40625 0 
z
" id="DejaVuSans-49"/>
       </defs>
       <use xlink:href="#DejaVuSans-50"/>
       <use x="63.623047" xlink:href="#DejaVuSans-48"/>
       <use x="127.246094" xlink:href="#DejaVuSans-50"/>
       <use x="190.869141" xlink:href="#DejaVuSans-48"/>
       <use x="254.492188" xlink:href="#DejaVuSans-45"/>
       <use x="290.576172" xlink:href="#DejaVuSans-48"/>
       <use x="354.199219" xlink:href="#DejaVuSans-49"/>
      </g>
     </g>
    </g>
    <g id="xtick_2">
     <g id="line2d_2">
      <g>
       <use style="stroke:#000000;stroke-width:0.8;" x="118.923636" xlink:href="#mb7753c8e38" y="307.584"/>
      </g>
     </g>
     <g id="text_2">
      <!-- 2020-03 -->
      <g transform="translate(98.03223 322.182437)scale(0.1 -0.1)">
       <defs>
        <path d="M 40.578125 39.3125 
Q 47.65625 37.796875 51.625 33 
Q 55.609375 28.21875 55.609375 21.1875 
Q 55.609375 10.40625 48.1875 4.484375 
Q 40.765625 -1.421875 27.09375 -1.421875 
Q 22.515625 -1.421875 17.65625 -0.515625 
Q 12.796875 0.390625 7.625 2.203125 
L 7.625 11.71875 
Q 11.71875 9.328125 16.59375 8.109375 
Q 21.484375 6.890625 26.8125 6.890625 
Q 36.078125 6.890625 40.9375 10.546875 
Q 45.796875 14.203125 45.796875 21.1875 
Q 45.796875 27.640625 41.28125 31.265625 
Q 36.765625 34.90625 28.71875 34.90625 
L 20.21875 34.90625 
L 20.21875 43.015625 
L 29.109375 43.015625 
Q 36.375 43.015625 40.234375 45.921875 
Q 44.09375 48.828125 44.09375 54.296875 
Q 44.09375 59.90625 40.109375 62.90625 
Q 36.140625 65.921875 28.71875 65.921875 
Q 24.65625 65.921875 20.015625 65.03125 
Q 15.375 64.15625 9.8125 62.3125 
L 9.8125 71.09375 
Q 15.4375 72.65625 20.34375 73.4375 
Q 25.25 74.21875 29.59375 74.21875 
Q 40.828125 74.21875 47.359375 69.109375 
Q 53.90625 64.015625 53.90625 55.328125 
Q 53.90625 49.265625 50.4375 45.09375 
Q 46.96875 40.921875 40.578125 39.3125 
z
" id="DejaVuSans-51"/>
       </defs>
       <use xlink:href="#DejaVuSans-50"/>
       <use x="63.623047" xlink:href="#DejaVuSans-48"/>
       <use x="127.246094" xlink:href="#DejaVuSans-50"/>
       <use x="190.869141" xlink:href="#DejaVuSans-48"/>
       <use x="254.492188" xlink:href="#DejaVuSans-45"/>
       <use x="290.576172" xlink:href="#DejaVuSans-48"/>
       <use x="354.199219" xlink:href="#DejaVuSans-51"/>
      </g>
     </g>
    </g>
    <g id="xtick_3">
     <g id="line2d_3">
      <g>
       <use style="stroke:#000000;stroke-width:0.8;" x="164.766061" xlink:href="#mb7753c8e38" y="307.584"/>
      </g>
     </g>
     <g id="text_3">
      <!-- 2020-05 -->
      <g transform="translate(143.874654 322.182437)scale(0.1 -0.1)">
       <defs>
        <path d="M 10.796875 72.90625 
L 49.515625 72.90625 
L 49.515625 64.59375 
L 19.828125 64.59375 
L 19.828125 46.734375 
Q 21.96875 47.46875 24.109375 47.828125 
Q 26.265625 48.1875 28.421875 48.1875 
Q 40.625 48.1875 47.75 41.5 
Q 54.890625 34.8125 54.890625 23.390625 
Q 54.890625 11.625 47.5625 5.09375 
Q 40.234375 -1.421875 26.90625 -1.421875 
Q 22.3125 -1.421875 17.546875 -0.640625 
Q 12.796875 0.140625 7.71875 1.703125 
L 7.71875 11.625 
Q 12.109375 9.234375 16.796875 8.0625 
Q 21.484375 6.890625 26.703125 6.890625 
Q 35.15625 6.890625 40.078125 11.328125 
Q 45.015625 15.765625 45.015625 23.390625 
Q 45.015625 31 40.078125 35.4375 
Q 35.15625 39.890625 26.703125 39.890625 
Q 22.75 39.890625 18.8125 39.015625 
Q 14.890625 38.140625 10.796875 36.28125 
z
" id="DejaVuSans-53"/>
       </defs>
       <use xlink:href="#DejaVuSans-50"/>
       <use x="63.623047" xlink:href="#DejaVuSans-48"/>
       <use x="127.246094" xlink:href="#DejaVuSans-50"/>
       <use x="190.869141" xlink:href="#DejaVuSans-48"/>
       <use x="254.492188" xlink:href="#DejaVuSans-45"/>
       <use x="290.576172" xlink:href="#DejaVuSans-48"/>
       <use x="354.199219" xlink:href="#DejaVuSans-53"/>
      </g>
     </g>
    </g>
    <g id="xtick_4">
     <g id="line2d_4">
      <g>
       <use style="stroke:#000000;stroke-width:0.8;" x="210.608485" xlink:href="#mb7753c8e38" y="307.584"/>
      </g>
     </g>
     <g id="text_4">
      <!-- 2020-07 -->
      <g transform="translate(189.717079 322.182437)scale(0.1 -0.1)">
       <defs>
        <path d="M 8.203125 72.90625 
L 55.078125 72.90625 
L 55.078125 68.703125 
L 28.609375 0 
L 18.3125 0 
L 43.21875 64.59375 
L 8.203125 64.59375 
z
" id="DejaVuSans-55"/>
       </defs>
       <use xlink:href="#DejaVuSans-50"/>
       <use x="63.623047" xlink:href="#DejaVuSans-48"/>
       <use x="127.246094" xlink:href="#DejaVuSans-50"/>
       <use x="190.869141" xlink:href="#DejaVuSans-48"/>
       <use x="254.492188" xlink:href="#DejaVuSans-45"/>
       <use x="290.576172" xlink:href="#DejaVuSans-48"/>
       <use x="354.199219" xlink:href="#DejaVuSans-55"/>
      </g>
     </g>
    </g>
    <g id="xtick_5">
     <g id="line2d_5">
      <g>
       <use style="stroke:#000000;stroke-width:0.8;" x="257.202424" xlink:href="#mb7753c8e38" y="307.584"/>
      </g>
     </g>
     <g id="text_5">
      <!-- 2020-09 -->
      <g transform="translate(236.311018 322.182437)scale(0.1 -0.1)">
       <defs>
        <path d="M 10.984375 1.515625 
L 10.984375 10.5 
Q 14.703125 8.734375 18.5 7.8125 
Q 22.3125 6.890625 25.984375 6.890625 
Q 35.75 6.890625 40.890625 13.453125 
Q 46.046875 20.015625 46.78125 33.40625 
Q 43.953125 29.203125 39.59375 26.953125 
Q 35.25 24.703125 29.984375 24.703125 
Q 19.046875 24.703125 12.671875 31.3125 
Q 6.296875 37.9375 6.296875 49.421875 
Q 6.296875 60.640625 12.9375 67.421875 
Q 19.578125 74.21875 30.609375 74.21875 
Q 43.265625 74.21875 49.921875 64.515625 
Q 56.59375 54.828125 56.59375 36.375 
Q 56.59375 19.140625 48.40625 8.859375 
Q 40.234375 -1.421875 26.421875 -1.421875 
Q 22.703125 -1.421875 18.890625 -0.6875 
Q 15.09375 0.046875 10.984375 1.515625 
z
M 30.609375 32.421875 
Q 37.25 32.421875 41.125 36.953125 
Q 45.015625 41.5 45.015625 49.421875 
Q 45.015625 57.28125 41.125 61.84375 
Q 37.25 66.40625 30.609375 66.40625 
Q 23.96875 66.40625 20.09375 61.84375 
Q 16.21875 57.28125 16.21875 49.421875 
Q 16.21875 41.5 20.09375 36.953125 
Q 23.96875 32.421875 30.609375 32.421875 
z
" id="DejaVuSans-57"/>
       </defs>
       <use xlink:href="#DejaVuSans-50"/>
       <use x="63.623047" xlink:href="#DejaVuSans-48"/>
       <use x="127.246094" xlink:href="#DejaVuSans-50"/>
       <use x="190.869141" xlink:href="#DejaVuSans-48"/>
       <use x="254.492188" xlink:href="#DejaVuSans-45"/>
       <use x="290.576172" xlink:href="#DejaVuSans-48"/>
       <use x="354.199219" xlink:href="#DejaVuSans-57"/>
      </g>
     </g>
    </g>
    <g id="xtick_6">
     <g id="line2d_6">
      <g>
       <use style="stroke:#000000;stroke-width:0.8;" x="303.044848" xlink:href="#mb7753c8e38" y="307.584"/>
      </g>
     </g>
     <g id="text_6">
      <!-- 2020-11 -->
      <g transform="translate(282.153442 322.182437)scale(0.1 -0.1)">
       <use xlink:href="#DejaVuSans-50"/>
       <use x="63.623047" xlink:href="#DejaVuSans-48"/>
       <use x="127.246094" xlink:href="#DejaVuSans-50"/>
       <use x="190.869141" xlink:href="#DejaVuSans-48"/>
       <use x="254.492188" xlink:href="#DejaVuSans-45"/>
       <use x="290.576172" xlink:href="#DejaVuSans-49"/>
       <use x="354.199219" xlink:href="#DejaVuSans-49"/>
      </g>
     </g>
    </g>
    <g id="xtick_7">
     <g id="line2d_7">
      <g>
       <use style="stroke:#000000;stroke-width:0.8;" x="348.887273" xlink:href="#mb7753c8e38" y="307.584"/>
      </g>
     </g>
     <g id="text_7">
      <!-- 2021-01 -->
      <g transform="translate(327.995866 322.182437)scale(0.1 -0.1)">
       <use xlink:href="#DejaVuSans-50"/>
       <use x="63.623047" xlink:href="#DejaVuSans-48"/>
       <use x="127.246094" xlink:href="#DejaVuSans-50"/>
       <use x="190.869141" xlink:href="#DejaVuSans-49"/>
       <use x="254.492188" xlink:href="#DejaVuSans-45"/>
       <use x="290.576172" xlink:href="#DejaVuSans-48"/>
       <use x="354.199219" xlink:href="#DejaVuSans-49"/>
      </g>
     </g>
    </g>
    <g id="xtick_8">
     <g id="line2d_8">
      <g>
       <use style="stroke:#000000;stroke-width:0.8;" x="393.226667" xlink:href="#mb7753c8e38" y="307.584"/>
      </g>
     </g>
     <g id="text_8">
      <!-- 2021-03 -->
      <g transform="translate(372.33526 322.182437)scale(0.1 -0.1)">
       <use xlink:href="#DejaVuSans-50"/>
       <use x="63.623047" xlink:href="#DejaVuSans-48"/>
       <use x="127.246094" xlink:href="#DejaVuSans-50"/>
       <use x="190.869141" xlink:href="#DejaVuSans-49"/>
       <use x="254.492188" xlink:href="#DejaVuSans-45"/>
       <use x="290.576172" xlink:href="#DejaVuSans-48"/>
       <use x="354.199219" xlink:href="#DejaVuSans-51"/>
      </g>
     </g>
    </g>
   </g>
   <g id="matplotlib.axis_2">
    <g id="ytick_1">
     <g id="line2d_9">
      <defs>
       <path d="M 0 0 
L -3.5 0 
" id="m82e2ee483d" style="stroke:#000000;stroke-width:0.8;"/>
      </defs>
      <g>
       <use style="stroke:#000000;stroke-width:0.8;" x="57.6" xlink:href="#m82e2ee483d" y="292.42934"/>
      </g>
     </g>
     <g id="text_9">
      <!-- −1000 -->
      <g transform="translate(16.770313 296.228559)scale(0.1 -0.1)">
       <defs>
        <path d="M 10.59375 35.5 
L 73.1875 35.5 
L 73.1875 27.203125 
L 10.59375 27.203125 
z
" id="DejaVuSans-8722"/>
       </defs>
       <use xlink:href="#DejaVuSans-8722"/>
       <use x="83.789062" xlink:href="#DejaVuSans-49"/>
       <use x="147.412109" xlink:href="#DejaVuSans-48"/>
       <use x="211.035156" xlink:href="#DejaVuSans-48"/>
       <use x="274.658203" xlink:href="#DejaVuSans-48"/>
      </g>
     </g>
    </g>
    <g id="ytick_2">
     <g id="line2d_10">
      <g>
       <use style="stroke:#000000;stroke-width:0.8;" x="57.6" xlink:href="#m82e2ee483d" y="254.185577"/>
      </g>
     </g>
     <g id="text_10">
      <!-- 0 -->
      <g transform="translate(44.2375 257.984796)scale(0.1 -0.1)">
       <use xlink:href="#DejaVuSans-48"/>
      </g>
     </g>
    </g>
    <g id="ytick_3">
     <g id="line2d_11">
      <g>
       <use style="stroke:#000000;stroke-width:0.8;" x="57.6" xlink:href="#m82e2ee483d" y="215.941814"/>
      </g>
     </g>
     <g id="text_11">
      <!-- 1000 -->
      <g transform="translate(25.15 219.741033)scale(0.1 -0.1)">
       <use xlink:href="#DejaVuSans-49"/>
       <use x="63.623047" xlink:href="#DejaVuSans-48"/>
       <use x="127.246094" xlink:href="#DejaVuSans-48"/>
       <use x="190.869141" xlink:href="#DejaVuSans-48"/>
      </g>
     </g>
    </g>
    <g id="ytick_4">
     <g id="line2d_12">
      <g>
       <use style="stroke:#000000;stroke-width:0.8;" x="57.6" xlink:href="#m82e2ee483d" y="177.698052"/>
      </g>
     </g>
     <g id="text_12">
      <!-- 2000 -->
      <g transform="translate(25.15 181.49727)scale(0.1 -0.1)">
       <use xlink:href="#DejaVuSans-50"/>
       <use x="63.623047" xlink:href="#DejaVuSans-48"/>
       <use x="127.246094" xlink:href="#DejaVuSans-48"/>
       <use x="190.869141" xlink:href="#DejaVuSans-48"/>
      </g>
     </g>
    </g>
    <g id="ytick_5">
     <g id="line2d_13">
      <g>
       <use style="stroke:#000000;stroke-width:0.8;" x="57.6" xlink:href="#m82e2ee483d" y="139.454289"/>
      </g>
     </g>
     <g id="text_13">
      <!-- 3000 -->
      <g transform="translate(25.15 143.253508)scale(0.1 -0.1)">
       <use xlink:href="#DejaVuSans-51"/>
       <use x="63.623047" xlink:href="#DejaVuSans-48"/>
       <use x="127.246094" xlink:href="#DejaVuSans-48"/>
       <use x="190.869141" xlink:href="#DejaVuSans-48"/>
      </g>
     </g>
    </g>
    <g id="ytick_6">
     <g id="line2d_14">
      <g>
       <use style="stroke:#000000;stroke-width:0.8;" x="57.6" xlink:href="#m82e2ee483d" y="101.210526"/>
      </g>
     </g>
     <g id="text_14">
      <!-- 4000 -->
      <g transform="translate(25.15 105.009745)scale(0.1 -0.1)">
       <defs>
        <path d="M 37.796875 64.3125 
L 12.890625 25.390625 
L 37.796875 25.390625 
z
M 35.203125 72.90625 
L 47.609375 72.90625 
L 47.609375 25.390625 
L 58.015625 25.390625 
L 58.015625 17.1875 
L 47.609375 17.1875 
L 47.609375 0 
L 37.796875 0 
L 37.796875 17.1875 
L 4.890625 17.1875 
L 4.890625 26.703125 
z
" id="DejaVuSans-52"/>
       </defs>
       <use xlink:href="#DejaVuSans-52"/>
       <use x="63.623047" xlink:href="#DejaVuSans-48"/>
       <use x="127.246094" xlink:href="#DejaVuSans-48"/>
       <use x="190.869141" xlink:href="#DejaVuSans-48"/>
      </g>
     </g>
    </g>
    <g id="ytick_7">
     <g id="line2d_15">
      <g>
       <use style="stroke:#000000;stroke-width:0.8;" x="57.6" xlink:href="#m82e2ee483d" y="62.966763"/>
      </g>
     </g>
     <g id="text_15">
      <!-- 5000 -->
      <g transform="translate(25.15 66.765982)scale(0.1 -0.1)">
       <use xlink:href="#DejaVuSans-53"/>
       <use x="63.623047" xlink:href="#DejaVuSans-48"/>
       <use x="127.246094" xlink:href="#DejaVuSans-48"/>
       <use x="190.869141" xlink:href="#DejaVuSans-48"/>
      </g>
     </g>
    </g>
   </g>
   <g id="line2d_16">
    <path clip-path="url(#p21ac00aee4)" d="M 73.832727 254.185577 
L 398.487273 254.185577 
L 398.487273 254.185577 
" style="fill:none;stroke:#1f77b4;stroke-dasharray:5.55,2.4;stroke-dashoffset:0;stroke-width:1.5;"/>
   </g>
   <g id="line2d_17">
    <path clip-path="url(#p21ac00aee4)" d="M 73.832727 254.185577 
L 74.584242 254.877785 
L 76.087273 253.707207 
L 76.838788 253.295686 
L 77.590303 251.746277 
L 78.341818 249.352234 
L 79.093333 247.882139 
L 79.844848 247.491514 
L 80.596364 246.12582 
L 81.347879 245.674974 
L 82.099394 244.923114 
L 82.850909 244.663547 
L 83.602424 242.427203 
L 84.353939 240.805846 
L 85.105455 239.967399 
L 85.85697 238.943713 
L 86.608485 238.282062 
L 87.36 238.562995 
L 88.111515 239.166401 
L 88.86303 239.516478 
L 89.614545 240.161085 
L 90.366061 241.646192 
L 91.869091 244.167688 
L 92.620606 244.529398 
L 93.372121 244.011364 
L 94.123636 242.221169 
L 94.875152 241.268601 
L 95.626667 240.003611 
L 97.129697 239.444602 
L 97.881212 239.60543 
L 98.632727 240.024005 
L 99.384242 240.86816 
L 100.135758 240.344854 
L 101.638788 239.137016 
L 102.390303 238.615938 
L 103.141818 237.580855 
L 103.893333 237.900485 
L 105.396364 236.374161 
L 106.147879 236.387379 
L 106.899394 236.214094 
L 109.153939 240.753149 
L 109.905455 240.875935 
L 110.65697 242.931086 
L 111.408485 244.627311 
L 112.911515 246.891733 
L 113.66303 246.901562 
L 114.414545 247.933865 
L 115.166061 249.883846 
L 115.917576 253.058632 
L 117.420606 257.666866 
L 118.172121 259.882828 
L 118.923636 261.548386 
L 119.675152 261.591815 
L 120.426667 262.023682 
L 121.178182 262.273612 
L 121.929697 261.44558 
L 122.681212 260.433806 
L 123.432727 260.360664 
L 124.935758 265.013082 
L 125.687273 266.727286 
L 126.438788 267.768931 
L 127.190303 277.69573 
L 128.693333 288.231578 
L 130.196364 294.392681 
L 130.947879 295.397652 
L 131.699394 295.488 
L 133.953939 287.599153 
L 134.705455 286.482172 
L 136.96 276.336886 
L 138.46303 271.368674 
L 139.214545 270.820999 
L 139.966061 271.253443 
L 140.717576 269.302474 
L 141.469091 267.964265 
L 143.723636 262.504441 
L 144.475152 260.848795 
L 145.226667 259.763407 
L 146.729697 255.082635 
L 147.481212 253.420683 
L 148.232727 252.207232 
L 148.984242 252.514634 
L 149.735758 253.06709 
L 150.487273 252.507743 
L 151.238788 253.249101 
L 151.990303 253.468307 
L 152.741818 254.130095 
L 154.244848 253.179124 
L 154.996364 252.398027 
L 155.747879 251.97715 
L 157.250909 253.06626 
L 158.002424 252.657783 
L 158.753939 251.076578 
L 160.25697 248.97971 
L 162.511515 246.761059 
L 163.26303 244.642561 
L 164.014545 241.665891 
L 165.517576 237.396303 
L 166.269091 236.252571 
L 167.772121 235.024726 
L 169.275152 232.538599 
L 170.026667 229.998709 
L 170.778182 229.034444 
L 171.529697 232.456452 
L 173.032727 236.164586 
L 173.784242 236.790169 
L 174.535758 236.00384 
L 175.287273 235.774928 
L 176.038788 235.983997 
L 176.790303 235.409251 
L 177.541818 235.59569 
L 178.293333 235.48623 
L 179.044848 235.667094 
L 179.796364 237.353195 
L 181.299394 241.049009 
L 182.050909 242.483197 
L 182.802424 245.042254 
L 183.553939 246.86247 
L 184.305455 248.213379 
L 185.05697 248.470674 
L 185.808485 248.003931 
L 186.56 247.396142 
L 188.06303 246.737004 
L 188.814545 244.860714 
L 189.566061 245.15063 
L 190.317576 245.678731 
L 191.069091 245.25206 
L 191.820606 245.498722 
L 192.572121 245.968526 
L 193.323636 246.098277 
L 194.075152 246.47943 
L 194.826667 246.67645 
L 195.578182 246.71366 
L 197.081212 248.872639 
L 197.832727 249.798576 
L 198.584242 251.442409 
L 200.838788 252.267055 
L 201.590303 253.059775 
L 202.341818 253.584295 
L 203.093333 253.919359 
L 203.844848 253.770688 
L 204.596364 253.302558 
L 205.347879 253.194231 
L 206.099394 253.841172 
L 206.850909 254.799133 
L 207.602424 255.430518 
L 208.353939 256.438226 
L 209.105455 256.882806 
L 210.608485 257.124895 
L 211.36 257.007437 
L 212.86303 257.357707 
L 213.614545 257.467155 
L 214.366061 257.125199 
L 215.869091 256.17836 
L 216.620606 255.419357 
L 217.372121 255.601201 
L 219.626667 254.84251 
L 221.129697 254.948005 
L 222.632727 255.464612 
L 224.135758 255.56993 
L 225.638788 255.317894 
L 226.390303 254.723772 
L 227.893333 252.946807 
L 229.396364 251.181476 
L 230.147879 248.675392 
L 230.899394 244.685517 
L 231.650909 241.676388 
L 232.402424 239.244757 
L 233.153939 237.595321 
L 233.905455 235.489429 
L 234.65697 234.213892 
L 236.16 233.473324 
L 236.911515 233.579084 
L 237.66303 232.135506 
L 238.414545 231.162892 
L 239.917576 231.639953 
L 240.669091 230.994659 
L 241.420606 231.29574 
L 242.172121 233.288862 
L 242.923636 234.407979 
L 243.675152 234.917079 
L 244.426667 235.120236 
L 245.178182 235.457919 
L 245.929697 236.094028 
L 246.681212 235.361657 
L 247.432727 236.25015 
L 248.184242 237.408759 
L 248.935758 239.2727 
L 250.438788 242.029657 
L 251.190303 242.865296 
L 251.941818 244.763416 
L 252.693333 246.113565 
L 253.444848 247.741425 
L 254.196364 248.540791 
L 254.947879 249.131281 
L 256.450909 249.278114 
L 257.202424 248.508782 
L 257.953939 248.484805 
L 258.705455 250.034451 
L 259.45697 254.378041 
L 261.711515 262.946129 
L 262.46303 264.209746 
L 263.214545 265.952201 
L 263.966061 266.242064 
L 264.717576 266.21119 
L 265.469091 265.879645 
L 266.220606 265.862774 
L 266.972121 264.596145 
L 267.723636 263.029933 
L 268.475152 261.080065 
L 269.226667 259.767527 
L 270.729697 257.435396 
L 271.481212 257.016971 
L 272.232727 257.653592 
L 272.984242 258.09771 
L 273.735758 259.228247 
L 274.487273 258.796788 
L 277.493333 256.475267 
L 278.996364 255.962687 
L 279.747879 256.137328 
L 281.250909 256.676099 
L 282.002424 256.516278 
L 282.753939 256.072256 
L 283.505455 256.21168 
L 284.25697 256.12659 
L 285.008485 255.269492 
L 285.76 254.079389 
L 288.014545 249.250159 
L 288.766061 248.352848 
L 290.269091 247.056925 
L 291.772121 247.224679 
L 292.523636 246.888682 
L 293.275152 245.971583 
L 294.026667 244.845029 
L 295.529697 238.234312 
L 297.032727 234.08914 
L 297.784242 232.999996 
L 298.535758 232.300201 
L 299.287273 230.259545 
L 300.038788 230.038721 
L 301.541818 229.176922 
L 302.293333 228.442687 
L 303.044848 228.26493 
L 303.796364 229.018235 
L 305.299394 227.962452 
L 306.050909 223.477925 
L 306.802424 220.328239 
L 307.553939 220.519386 
L 308.305455 219.083448 
L 309.05697 218.830101 
L 309.808485 219.09989 
L 310.56 218.511846 
L 311.311515 216.644016 
L 312.06303 215.519001 
L 312.814545 215.855045 
L 313.566061 216.883006 
L 314.317576 215.8182 
L 315.069091 212.505459 
L 315.820606 210.052667 
L 316.572121 208.542955 
L 317.323636 205.255517 
L 318.075152 203.170136 
L 318.826667 202.953578 
L 319.578182 203.495262 
L 320.329697 202.119083 
L 321.081212 202.969624 
L 322.584242 214.179659 
L 323.335758 216.980986 
L 324.087273 218.200712 
L 324.838788 214.955009 
L 325.590303 215.644212 
L 326.341818 215.308445 
L 327.093333 214.804906 
L 327.844848 217.277982 
L 328.596364 218.109244 
L 329.347879 218.473664 
L 330.099394 219.780321 
L 330.850909 223.828487 
L 331.602424 226.640227 
L 333.105455 233.684673 
L 333.85697 234.400226 
L 335.36 233.761206 
L 336.111515 233.214739 
L 336.86303 227.212925 
L 337.614545 218.356455 
L 339.117576 203.315027 
L 339.869091 199.141964 
L 340.620606 198.759683 
L 341.372121 195.738748 
L 342.123636 195.832736 
L 342.875152 195.044033 
L 343.626667 192.115946 
L 344.378182 185.226491 
L 345.129697 181.217687 
L 345.881212 176.487357 
L 346.632727 172.714523 
L 347.384242 166.013053 
L 348.135758 161.553188 
L 348.887273 157.785984 
L 350.390303 137.879459 
L 351.141818 134.868735 
L 351.893333 127.714862 
L 352.644848 115.033534 
L 354.147879 84.022516 
L 354.899394 75.724231 
L 355.650909 77.468842 
L 356.402424 89.173211 
L 357.153939 104.504874 
L 357.905455 108.106557 
L 358.65697 107.216796 
L 359.408485 115.418902 
L 360.911515 135.757353 
L 361.66303 142.52 
L 363.166061 160.648264 
L 363.917576 183.283245 
L 366.172121 217.896044 
L 366.923636 226.234017 
L 367.675152 232.282772 
L 368.426667 243.656615 
L 369.178182 243.551697 
L 369.929697 241.015925 
L 370.681212 238.995444 
L 371.432727 241.229803 
L 372.184242 241.864906 
L 372.935758 236.448497 
L 373.687273 225.826563 
L 374.438788 219.965089 
L 375.941818 202.825272 
L 376.693333 197.674857 
L 377.444848 171.177779 
L 378.196364 151.161946 
L 378.947879 141.67774 
L 379.699394 125.922203 
L 380.450909 116.85274 
L 381.202424 111.91838 
L 381.953939 105.336737 
L 382.705455 104.009368 
L 383.45697 100.862449 
L 384.208485 91.170024 
L 384.96 87.12384 
L 385.711515 72.587523 
L 387.214545 53.568 
L 387.966061 58.33651 
L 388.717576 80.218772 
L 389.469091 96.802683 
L 390.972121 141.380768 
L 392.475152 178.772705 
L 393.226667 180.91147 
L 393.978182 186.829395 
L 394.729697 186.377984 
L 395.481212 193.072586 
L 396.984242 201.726278 
L 397.735758 199.039579 
L 398.487273 193.26933 
L 398.487273 193.26933 
" style="fill:none;stroke:#0000ff;stroke-linecap:square;stroke-width:1.5;"/>
   </g>
   <g id="line2d_18">
    <path clip-path="url(#p21ac00aee4)" d="M 73.832727 254.185577 
L 74.584242 254.324019 
L 76.087273 254.186835 
L 76.838788 254.008606 
L 77.590303 253.55614 
L 79.844848 250.897275 
L 81.347879 249.089382 
L 83.602424 246.51553 
L 85.85697 243.222626 
L 86.608485 242.234513 
L 87.36 241.50021 
L 88.111515 241.033448 
L 88.86303 240.730054 
L 89.614545 240.61626 
L 90.366061 240.822247 
L 91.117576 241.221267 
L 92.620606 242.354321 
L 93.372121 242.685729 
L 94.123636 242.592817 
L 94.875152 242.327974 
L 97.129697 241.028533 
L 97.881212 240.743912 
L 98.632727 240.599931 
L 99.384242 240.653577 
L 100.135758 240.591832 
L 101.638788 240.154046 
L 102.390303 239.846425 
L 103.141818 239.393311 
L 104.644848 238.690867 
L 106.147879 237.859497 
L 106.899394 237.530416 
L 107.650909 237.557809 
L 108.402424 237.830952 
L 110.65697 239.712217 
L 115.166061 245.537921 
L 116.669091 248.729271 
L 119.675152 255.695703 
L 121.178182 258.023762 
L 121.929697 258.708125 
L 123.432727 259.314742 
L 124.184242 260.020541 
L 125.687273 262.160697 
L 126.438788 263.282343 
L 127.190303 266.165021 
L 128.693333 273.275513 
L 130.196364 280.396082 
L 130.947879 283.396396 
L 131.699394 285.814717 
L 132.450909 287.200398 
L 133.202424 287.774881 
L 133.953939 287.739735 
L 134.705455 287.488223 
L 135.45697 286.617814 
L 136.208485 285.164115 
L 137.711515 281.450218 
L 139.214545 277.711327 
L 140.717576 274.996295 
L 142.220606 272.088214 
L 147.481212 260.500519 
L 148.232727 258.841862 
L 148.984242 257.576416 
L 150.487273 255.841189 
L 151.238788 255.322772 
L 151.990303 254.951879 
L 153.493333 254.55932 
L 154.996364 253.90623 
L 155.747879 253.520414 
L 156.499394 253.318236 
L 158.002424 253.145829 
L 159.505455 252.193197 
L 162.511515 249.504807 
L 163.26303 248.532358 
L 164.766061 245.603728 
L 166.269091 242.420309 
L 167.772121 239.852294 
L 169.275152 237.407941 
L 170.778182 234.547764 
L 171.529697 234.129502 
L 172.281212 234.141684 
L 173.784242 234.995045 
L 175.287273 235.312429 
L 176.038788 235.446743 
L 179.044848 235.512357 
L 179.796364 235.880525 
L 180.547879 236.573635 
L 182.050909 238.471607 
L 185.05697 243.776969 
L 185.808485 244.622361 
L 186.56 245.177117 
L 187.311515 245.544616 
L 188.06303 245.783093 
L 189.566061 245.50902 
L 191.069091 245.484782 
L 192.572121 245.583761 
L 194.075152 245.845217 
L 195.578182 246.151903 
L 196.329697 246.483311 
L 197.832727 247.528657 
L 199.335758 248.985758 
L 203.093333 251.808506 
L 203.844848 252.200942 
L 206.099394 252.828921 
L 207.602424 253.664474 
L 209.85697 255.212199 
L 211.36 255.877278 
L 213.614545 256.601858 
L 214.366061 256.706526 
L 215.869091 256.58933 
L 217.372121 256.204508 
L 221.129697 255.387353 
L 223.384242 255.417161 
L 225.638788 255.425796 
L 226.390303 255.285391 
L 227.893333 254.576981 
L 229.396364 253.506777 
L 230.147879 252.5405 
L 230.899394 250.969504 
L 235.408485 239.946132 
L 236.16 238.651571 
L 239.166061 234.660124 
L 240.669091 233.443804 
L 241.420606 233.014191 
L 242.172121 233.069125 
L 245.178182 234.248698 
L 245.929697 234.617764 
L 246.681212 234.766543 
L 247.432727 235.063264 
L 248.184242 235.532363 
L 249.687273 237.149124 
L 251.941818 240.211278 
L 254.947879 244.896254 
L 256.450909 246.464173 
L 258.705455 247.76324 
L 259.45697 249.0862 
L 260.208485 250.735116 
L 263.214545 258.5089 
L 263.966061 260.055533 
L 264.717576 261.286664 
L 265.469091 262.20526 
L 266.220606 262.936763 
L 266.972121 263.268639 
L 267.723636 263.220898 
L 268.475152 262.792732 
L 269.978182 261.487207 
L 271.481212 259.94487 
L 272.232727 259.486614 
L 272.984242 259.208834 
L 274.487273 259.129531 
L 275.990303 258.702677 
L 277.493333 258.02107 
L 278.996364 257.311886 
L 280.499394 256.948127 
L 282.002424 256.818233 
L 283.505455 256.577566 
L 284.25697 256.487371 
L 285.008485 256.243795 
L 285.76 255.810914 
L 286.511515 255.131344 
L 288.014545 253.279055 
L 289.517576 251.379289 
L 290.269091 250.514816 
L 291.772121 249.323565 
L 293.275152 248.263587 
L 294.026667 247.579876 
L 294.778182 246.335539 
L 297.032727 241.213923 
L 299.287273 236.545469 
L 300.790303 234.111604 
L 302.293333 232.188272 
L 303.044848 231.403603 
L 305.299394 229.942429 
L 306.050909 228.649528 
L 306.802424 226.98527 
L 309.05697 223.262312 
L 311.311515 220.645788 
L 312.06303 219.620431 
L 312.814545 218.867354 
L 313.566061 218.470484 
L 314.317576 217.940027 
L 315.069091 216.853114 
L 316.572121 214.10301 
L 318.826667 208.991385 
L 320.329697 206.737545 
L 321.081212 205.983961 
L 321.832727 206.57139 
L 322.584242 208.093044 
L 324.087273 211.536648 
L 325.590303 212.905099 
L 326.341818 213.385768 
L 327.093333 213.669596 
L 330.099394 216.598165 
L 330.850909 218.04423 
L 331.602424 219.763429 
L 334.608485 227.808568 
L 335.36 228.999096 
L 336.111515 229.842225 
L 336.86303 229.316365 
L 337.614545 227.124383 
L 338.366061 223.86883 
L 339.869091 215.634848 
L 341.372121 208.955602 
L 342.875152 204.07363 
L 343.626667 201.682093 
L 345.129697 194.956316 
L 346.632727 187.552924 
L 348.887273 174.682475 
L 350.390303 162.951938 
L 351.893333 151.411211 
L 352.644848 144.135675 
L 354.147879 124.82788 
L 354.899394 115.00715 
L 355.650909 107.499489 
L 356.402424 103.834233 
L 357.153939 103.968361 
L 357.905455 104.796 
L 358.65697 105.28016 
L 359.408485 107.307908 
L 360.16 110.983647 
L 361.66303 121.254711 
L 363.166061 133.942484 
L 365.420606 164.855454 
L 366.923636 185.617661 
L 369.178182 212.463835 
L 369.929697 218.174253 
L 371.432727 226.116754 
L 372.184242 229.266384 
L 372.935758 230.702807 
L 373.687273 229.727558 
L 374.438788 227.775064 
L 375.190303 224.566236 
L 376.693333 215.709406 
L 377.444848 206.803081 
L 381.202424 151.854377 
L 381.953939 142.550849 
L 383.45697 128.046532 
L 385.711515 105.686906 
L 387.214545 88.488178 
L 387.966061 82.457845 
L 388.717576 82.01003 
L 389.469091 84.968561 
L 390.220606 91.897263 
L 390.972121 101.793964 
L 393.978182 147.288763 
L 396.232727 169.708948 
L 396.984242 176.112414 
L 397.735758 180.697847 
L 398.487273 183.212143 
L 398.487273 183.212143 
" style="fill:none;stroke:#ff6347;stroke-linecap:square;stroke-width:1.5;"/>
   </g>
   <g id="patch_3">
    <path d="M 57.6 307.584 
L 57.6 41.472 
" style="fill:none;stroke:#000000;stroke-linecap:square;stroke-linejoin:miter;stroke-width:0.8;"/>
   </g>
   <g id="patch_4">
    <path d="M 414.72 307.584 
L 414.72 41.472 
" style="fill:none;stroke:#000000;stroke-linecap:square;stroke-linejoin:miter;stroke-width:0.8;"/>
   </g>
   <g id="patch_5">
    <path d="M 57.6 307.584 
L 414.72 307.584 
" style="fill:none;stroke:#000000;stroke-linecap:square;stroke-linejoin:miter;stroke-width:0.8;"/>
   </g>
   <g id="patch_6">
    <path d="M 57.6 41.472 
L 414.72 41.472 
" style="fill:none;stroke:#000000;stroke-linecap:square;stroke-linejoin:miter;stroke-width:0.8;"/>
   </g>
   <g id="text_16">
    <!-- Data source: coindesk -->
    <g transform="translate(180.640469 35.472)scale(0.1 -0.1)">
     <defs>
      <path d="M 19.671875 64.796875 
L 19.671875 8.109375 
L 31.59375 8.109375 
Q 46.6875 8.109375 53.6875 14.9375 
Q 60.6875 21.78125 60.6875 36.53125 
Q 60.6875 51.171875 53.6875 57.984375 
Q 46.6875 64.796875 31.59375 64.796875 
z
M 9.8125 72.90625 
L 30.078125 72.90625 
Q 51.265625 72.90625 61.171875 64.09375 
Q 71.09375 55.28125 71.09375 36.53125 
Q 71.09375 17.671875 61.125 8.828125 
Q 51.171875 0 30.078125 0 
L 9.8125 0 
z
" id="DejaVuSans-68"/>
      <path d="M 34.28125 27.484375 
Q 23.390625 27.484375 19.1875 25 
Q 14.984375 22.515625 14.984375 16.5 
Q 14.984375 11.71875 18.140625 8.90625 
Q 21.296875 6.109375 26.703125 6.109375 
Q 34.1875 6.109375 38.703125 11.40625 
Q 43.21875 16.703125 43.21875 25.484375 
L 43.21875 27.484375 
z
M 52.203125 31.203125 
L 52.203125 0 
L 43.21875 0 
L 43.21875 8.296875 
Q 40.140625 3.328125 35.546875 0.953125 
Q 30.953125 -1.421875 24.3125 -1.421875 
Q 15.921875 -1.421875 10.953125 3.296875 
Q 6 8.015625 6 15.921875 
Q 6 25.140625 12.171875 29.828125 
Q 18.359375 34.515625 30.609375 34.515625 
L 43.21875 34.515625 
L 43.21875 35.40625 
Q 43.21875 41.609375 39.140625 45 
Q 35.0625 48.390625 27.6875 48.390625 
Q 23 48.390625 18.546875 47.265625 
Q 14.109375 46.140625 10.015625 43.890625 
L 10.015625 52.203125 
Q 14.9375 54.109375 19.578125 55.046875 
Q 24.21875 56 28.609375 56 
Q 40.484375 56 46.34375 49.84375 
Q 52.203125 43.703125 52.203125 31.203125 
z
" id="DejaVuSans-97"/>
      <path d="M 18.3125 70.21875 
L 18.3125 54.6875 
L 36.8125 54.6875 
L 36.8125 47.703125 
L 18.3125 47.703125 
L 18.3125 18.015625 
Q 18.3125 11.328125 20.140625 9.421875 
Q 21.96875 7.515625 27.59375 7.515625 
L 36.8125 7.515625 
L 36.8125 0 
L 27.59375 0 
Q 17.1875 0 13.234375 3.875 
Q 9.28125 7.765625 9.28125 18.015625 
L 9.28125 47.703125 
L 2.6875 47.703125 
L 2.6875 54.6875 
L 9.28125 54.6875 
L 9.28125 70.21875 
z
" id="DejaVuSans-116"/>
      <path id="DejaVuSans-32"/>
      <path d="M 44.28125 53.078125 
L 44.28125 44.578125 
Q 40.484375 46.53125 36.375 47.5 
Q 32.28125 48.484375 27.875 48.484375 
Q 21.1875 48.484375 17.84375 46.4375 
Q 14.5 44.390625 14.5 40.28125 
Q 14.5 37.15625 16.890625 35.375 
Q 19.28125 33.59375 26.515625 31.984375 
L 29.59375 31.296875 
Q 39.15625 29.25 43.1875 25.515625 
Q 47.21875 21.78125 47.21875 15.09375 
Q 47.21875 7.46875 41.1875 3.015625 
Q 35.15625 -1.421875 24.609375 -1.421875 
Q 20.21875 -1.421875 15.453125 -0.5625 
Q 10.6875 0.296875 5.421875 2 
L 5.421875 11.28125 
Q 10.40625 8.6875 15.234375 7.390625 
Q 20.0625 6.109375 24.8125 6.109375 
Q 31.15625 6.109375 34.5625 8.28125 
Q 37.984375 10.453125 37.984375 14.40625 
Q 37.984375 18.0625 35.515625 20.015625 
Q 33.0625 21.96875 24.703125 23.78125 
L 21.578125 24.515625 
Q 13.234375 26.265625 9.515625 29.90625 
Q 5.8125 33.546875 5.8125 39.890625 
Q 5.8125 47.609375 11.28125 51.796875 
Q 16.75 56 26.8125 56 
Q 31.78125 56 36.171875 55.265625 
Q 40.578125 54.546875 44.28125 53.078125 
z
" id="DejaVuSans-115"/>
      <path d="M 30.609375 48.390625 
Q 23.390625 48.390625 19.1875 42.75 
Q 14.984375 37.109375 14.984375 27.296875 
Q 14.984375 17.484375 19.15625 11.84375 
Q 23.34375 6.203125 30.609375 6.203125 
Q 37.796875 6.203125 41.984375 11.859375 
Q 46.1875 17.53125 46.1875 27.296875 
Q 46.1875 37.015625 41.984375 42.703125 
Q 37.796875 48.390625 30.609375 48.390625 
z
M 30.609375 56 
Q 42.328125 56 49.015625 48.375 
Q 55.71875 40.765625 55.71875 27.296875 
Q 55.71875 13.875 49.015625 6.21875 
Q 42.328125 -1.421875 30.609375 -1.421875 
Q 18.84375 -1.421875 12.171875 6.21875 
Q 5.515625 13.875 5.515625 27.296875 
Q 5.515625 40.765625 12.171875 48.375 
Q 18.84375 56 30.609375 56 
z
" id="DejaVuSans-111"/>
      <path d="M 8.5 21.578125 
L 8.5 54.6875 
L 17.484375 54.6875 
L 17.484375 21.921875 
Q 17.484375 14.15625 20.5 10.265625 
Q 23.53125 6.390625 29.59375 6.390625 
Q 36.859375 6.390625 41.078125 11.03125 
Q 45.3125 15.671875 45.3125 23.6875 
L 45.3125 54.6875 
L 54.296875 54.6875 
L 54.296875 0 
L 45.3125 0 
L 45.3125 8.40625 
Q 42.046875 3.421875 37.71875 1 
Q 33.40625 -1.421875 27.6875 -1.421875 
Q 18.265625 -1.421875 13.375 4.4375 
Q 8.5 10.296875 8.5 21.578125 
z
M 31.109375 56 
z
" id="DejaVuSans-117"/>
      <path d="M 41.109375 46.296875 
Q 39.59375 47.171875 37.8125 47.578125 
Q 36.03125 48 33.890625 48 
Q 26.265625 48 22.1875 43.046875 
Q 18.109375 38.09375 18.109375 28.8125 
L 18.109375 0 
L 9.078125 0 
L 9.078125 54.6875 
L 18.109375 54.6875 
L 18.109375 46.1875 
Q 20.953125 51.171875 25.484375 53.578125 
Q 30.03125 56 36.53125 56 
Q 37.453125 56 38.578125 55.875 
Q 39.703125 55.765625 41.0625 55.515625 
z
" id="DejaVuSans-114"/>
      <path d="M 48.78125 52.59375 
L 48.78125 44.1875 
Q 44.96875 46.296875 41.140625 47.34375 
Q 37.3125 48.390625 33.40625 48.390625 
Q 24.65625 48.390625 19.8125 42.84375 
Q 14.984375 37.3125 14.984375 27.296875 
Q 14.984375 17.28125 19.8125 11.734375 
Q 24.65625 6.203125 33.40625 6.203125 
Q 37.3125 6.203125 41.140625 7.25 
Q 44.96875 8.296875 48.78125 10.40625 
L 48.78125 2.09375 
Q 45.015625 0.34375 40.984375 -0.53125 
Q 36.96875 -1.421875 32.421875 -1.421875 
Q 20.0625 -1.421875 12.78125 6.34375 
Q 5.515625 14.109375 5.515625 27.296875 
Q 5.515625 40.671875 12.859375 48.328125 
Q 20.21875 56 33.015625 56 
Q 37.15625 56 41.109375 55.140625 
Q 45.0625 54.296875 48.78125 52.59375 
z
" id="DejaVuSans-99"/>
      <path d="M 56.203125 29.59375 
L 56.203125 25.203125 
L 14.890625 25.203125 
Q 15.484375 15.921875 20.484375 11.0625 
Q 25.484375 6.203125 34.421875 6.203125 
Q 39.59375 6.203125 44.453125 7.46875 
Q 49.3125 8.734375 54.109375 11.28125 
L 54.109375 2.78125 
Q 49.265625 0.734375 44.1875 -0.34375 
Q 39.109375 -1.421875 33.890625 -1.421875 
Q 20.796875 -1.421875 13.15625 6.1875 
Q 5.515625 13.8125 5.515625 26.8125 
Q 5.515625 40.234375 12.765625 48.109375 
Q 20.015625 56 32.328125 56 
Q 43.359375 56 49.78125 48.890625 
Q 56.203125 41.796875 56.203125 29.59375 
z
M 47.21875 32.234375 
Q 47.125 39.59375 43.09375 43.984375 
Q 39.0625 48.390625 32.421875 48.390625 
Q 24.90625 48.390625 20.390625 44.140625 
Q 15.875 39.890625 15.1875 32.171875 
z
" id="DejaVuSans-101"/>
      <path d="M 11.71875 12.40625 
L 22.015625 12.40625 
L 22.015625 0 
L 11.71875 0 
z
M 11.71875 51.703125 
L 22.015625 51.703125 
L 22.015625 39.3125 
L 11.71875 39.3125 
z
" id="DejaVuSans-58"/>
      <path d="M 9.421875 54.6875 
L 18.40625 54.6875 
L 18.40625 0 
L 9.421875 0 
z
M 9.421875 75.984375 
L 18.40625 75.984375 
L 18.40625 64.59375 
L 9.421875 64.59375 
z
" id="DejaVuSans-105"/>
      <path d="M 54.890625 33.015625 
L 54.890625 0 
L 45.90625 0 
L 45.90625 32.71875 
Q 45.90625 40.484375 42.875 44.328125 
Q 39.84375 48.1875 33.796875 48.1875 
Q 26.515625 48.1875 22.3125 43.546875 
Q 18.109375 38.921875 18.109375 30.90625 
L 18.109375 0 
L 9.078125 0 
L 9.078125 54.6875 
L 18.109375 54.6875 
L 18.109375 46.1875 
Q 21.34375 51.125 25.703125 53.5625 
Q 30.078125 56 35.796875 56 
Q 45.21875 56 50.046875 50.171875 
Q 54.890625 44.34375 54.890625 33.015625 
z
" id="DejaVuSans-110"/>
      <path d="M 45.40625 46.390625 
L 45.40625 75.984375 
L 54.390625 75.984375 
L 54.390625 0 
L 45.40625 0 
L 45.40625 8.203125 
Q 42.578125 3.328125 38.25 0.953125 
Q 33.9375 -1.421875 27.875 -1.421875 
Q 17.96875 -1.421875 11.734375 6.484375 
Q 5.515625 14.40625 5.515625 27.296875 
Q 5.515625 40.1875 11.734375 48.09375 
Q 17.96875 56 27.875 56 
Q 33.9375 56 38.25 53.625 
Q 42.578125 51.265625 45.40625 46.390625 
z
M 14.796875 27.296875 
Q 14.796875 17.390625 18.875 11.75 
Q 22.953125 6.109375 30.078125 6.109375 
Q 37.203125 6.109375 41.296875 11.75 
Q 45.40625 17.390625 45.40625 27.296875 
Q 45.40625 37.203125 41.296875 42.84375 
Q 37.203125 48.484375 30.078125 48.484375 
Q 22.953125 48.484375 18.875 42.84375 
Q 14.796875 37.203125 14.796875 27.296875 
z
" id="DejaVuSans-100"/>
      <path d="M 9.078125 75.984375 
L 18.109375 75.984375 
L 18.109375 31.109375 
L 44.921875 54.6875 
L 56.390625 54.6875 
L 27.390625 29.109375 
L 57.625 0 
L 45.90625 0 
L 18.109375 26.703125 
L 18.109375 0 
L 9.078125 0 
z
" id="DejaVuSans-107"/>
     </defs>
     <use xlink:href="#DejaVuSans-68"/>
     <use x="77.001953" xlink:href="#DejaVuSans-97"/>
     <use x="138.28125" xlink:href="#DejaVuSans-116"/>
     <use x="177.490234" xlink:href="#DejaVuSans-97"/>
     <use x="238.769531" xlink:href="#DejaVuSans-32"/>
     <use x="270.556641" xlink:href="#DejaVuSans-115"/>
     <use x="322.65625" xlink:href="#DejaVuSans-111"/>
     <use x="383.837891" xlink:href="#DejaVuSans-117"/>
     <use x="447.216797" xlink:href="#DejaVuSans-114"/>
     <use x="486.080078" xlink:href="#DejaVuSans-99"/>
     <use x="541.060547" xlink:href="#DejaVuSans-101"/>
     <use x="602.583984" xlink:href="#DejaVuSans-58"/>
     <use x="636.275391" xlink:href="#DejaVuSans-32"/>
     <use x="668.0625" xlink:href="#DejaVuSans-99"/>
     <use x="723.042969" xlink:href="#DejaVuSans-111"/>
     <use x="784.224609" xlink:href="#DejaVuSans-105"/>
     <use x="812.007812" xlink:href="#DejaVuSans-110"/>
     <use x="875.386719" xlink:href="#DejaVuSans-100"/>
     <use x="938.863281" xlink:href="#DejaVuSans-101"/>
     <use x="1000.386719" xlink:href="#DejaVuSans-115"/>
     <use x="1052.486328" xlink:href="#DejaVuSans-107"/>
    </g>
   </g>
   <g id="legend_1">
    <g id="patch_7">
     <path d="M 64.6 78.82825 
L 127.31875 78.82825 
Q 129.31875 78.82825 129.31875 76.82825 
L 129.31875 48.472 
Q 129.31875 46.472 127.31875 46.472 
L 64.6 46.472 
Q 62.6 46.472 62.6 48.472 
L 62.6 76.82825 
Q 62.6 78.82825 64.6 78.82825 
z
" style="fill:#ffffff;opacity:0.8;stroke:#cccccc;stroke-linejoin:miter;"/>
    </g>
    <g id="line2d_19">
     <path d="M 66.6 54.570437 
L 86.6 54.570437 
" style="fill:none;stroke:#0000ff;stroke-linecap:square;stroke-width:1.5;"/>
    </g>
    <g id="line2d_20"/>
    <g id="text_17">
     <!-- MACD -->
     <g transform="translate(94.6 58.070437)scale(0.1 -0.1)">
      <defs>
       <path d="M 9.8125 72.90625 
L 24.515625 72.90625 
L 43.109375 23.296875 
L 61.8125 72.90625 
L 76.515625 72.90625 
L 76.515625 0 
L 66.890625 0 
L 66.890625 64.015625 
L 48.09375 14.015625 
L 38.1875 14.015625 
L 19.390625 64.015625 
L 19.390625 0 
L 9.8125 0 
z
" id="DejaVuSans-77"/>
       <path d="M 34.1875 63.1875 
L 20.796875 26.90625 
L 47.609375 26.90625 
z
M 28.609375 72.90625 
L 39.796875 72.90625 
L 67.578125 0 
L 57.328125 0 
L 50.6875 18.703125 
L 17.828125 18.703125 
L 11.1875 0 
L 0.78125 0 
z
" id="DejaVuSans-65"/>
       <path d="M 64.40625 67.28125 
L 64.40625 56.890625 
Q 59.421875 61.53125 53.78125 63.8125 
Q 48.140625 66.109375 41.796875 66.109375 
Q 29.296875 66.109375 22.65625 58.46875 
Q 16.015625 50.828125 16.015625 36.375 
Q 16.015625 21.96875 22.65625 14.328125 
Q 29.296875 6.6875 41.796875 6.6875 
Q 48.140625 6.6875 53.78125 8.984375 
Q 59.421875 11.28125 64.40625 15.921875 
L 64.40625 5.609375 
Q 59.234375 2.09375 53.4375 0.328125 
Q 47.65625 -1.421875 41.21875 -1.421875 
Q 24.65625 -1.421875 15.125 8.703125 
Q 5.609375 18.84375 5.609375 36.375 
Q 5.609375 53.953125 15.125 64.078125 
Q 24.65625 74.21875 41.21875 74.21875 
Q 47.75 74.21875 53.53125 72.484375 
Q 59.328125 70.75 64.40625 67.28125 
z
" id="DejaVuSans-67"/>
      </defs>
      <use xlink:href="#DejaVuSans-77"/>
      <use x="86.279297" xlink:href="#DejaVuSans-65"/>
      <use x="152.9375" xlink:href="#DejaVuSans-67"/>
      <use x="222.761719" xlink:href="#DejaVuSans-68"/>
     </g>
    </g>
    <g id="line2d_21">
     <path d="M 66.6 69.248562 
L 86.6 69.248562 
" style="fill:none;stroke:#ff6347;stroke-linecap:square;stroke-width:1.5;"/>
    </g>
    <g id="line2d_22"/>
    <g id="text_18">
     <!-- Signal -->
     <g transform="translate(94.6 72.748562)scale(0.1 -0.1)">
      <defs>
       <path d="M 53.515625 70.515625 
L 53.515625 60.890625 
Q 47.90625 63.578125 42.921875 64.890625 
Q 37.9375 66.21875 33.296875 66.21875 
Q 25.25 66.21875 20.875 63.09375 
Q 16.5 59.96875 16.5 54.203125 
Q 16.5 49.359375 19.40625 46.890625 
Q 22.3125 44.4375 30.421875 42.921875 
L 36.375 41.703125 
Q 47.40625 39.59375 52.65625 34.296875 
Q 57.90625 29 57.90625 20.125 
Q 57.90625 9.515625 50.796875 4.046875 
Q 43.703125 -1.421875 29.984375 -1.421875 
Q 24.8125 -1.421875 18.96875 -0.25 
Q 13.140625 0.921875 6.890625 3.21875 
L 6.890625 13.375 
Q 12.890625 10.015625 18.65625 8.296875 
Q 24.421875 6.59375 29.984375 6.59375 
Q 38.421875 6.59375 43.015625 9.90625 
Q 47.609375 13.234375 47.609375 19.390625 
Q 47.609375 24.75 44.3125 27.78125 
Q 41.015625 30.8125 33.5 32.328125 
L 27.484375 33.5 
Q 16.453125 35.6875 11.515625 40.375 
Q 6.59375 45.0625 6.59375 53.421875 
Q 6.59375 63.09375 13.40625 68.65625 
Q 20.21875 74.21875 32.171875 74.21875 
Q 37.3125 74.21875 42.625 73.28125 
Q 47.953125 72.359375 53.515625 70.515625 
z
" id="DejaVuSans-83"/>
       <path d="M 45.40625 27.984375 
Q 45.40625 37.75 41.375 43.109375 
Q 37.359375 48.484375 30.078125 48.484375 
Q 22.859375 48.484375 18.828125 43.109375 
Q 14.796875 37.75 14.796875 27.984375 
Q 14.796875 18.265625 18.828125 12.890625 
Q 22.859375 7.515625 30.078125 7.515625 
Q 37.359375 7.515625 41.375 12.890625 
Q 45.40625 18.265625 45.40625 27.984375 
z
M 54.390625 6.78125 
Q 54.390625 -7.171875 48.1875 -13.984375 
Q 42 -20.796875 29.203125 -20.796875 
Q 24.46875 -20.796875 20.265625 -20.09375 
Q 16.0625 -19.390625 12.109375 -17.921875 
L 12.109375 -9.1875 
Q 16.0625 -11.328125 19.921875 -12.34375 
Q 23.78125 -13.375 27.78125 -13.375 
Q 36.625 -13.375 41.015625 -8.765625 
Q 45.40625 -4.15625 45.40625 5.171875 
L 45.40625 9.625 
Q 42.625 4.78125 38.28125 2.390625 
Q 33.9375 0 27.875 0 
Q 17.828125 0 11.671875 7.65625 
Q 5.515625 15.328125 5.515625 27.984375 
Q 5.515625 40.671875 11.671875 48.328125 
Q 17.828125 56 27.875 56 
Q 33.9375 56 38.28125 53.609375 
Q 42.625 51.21875 45.40625 46.390625 
L 45.40625 54.6875 
L 54.390625 54.6875 
z
" id="DejaVuSans-103"/>
       <path d="M 9.421875 75.984375 
L 18.40625 75.984375 
L 18.40625 0 
L 9.421875 0 
z
" id="DejaVuSans-108"/>
      </defs>
      <use xlink:href="#DejaVuSans-83"/>
      <use x="63.476562" xlink:href="#DejaVuSans-105"/>
      <use x="91.259766" xlink:href="#DejaVuSans-103"/>
      <use x="154.736328" xlink:href="#DejaVuSans-110"/>
      <use x="218.115234" xlink:href="#DejaVuSans-97"/>
      <use x="279.394531" xlink:href="#DejaVuSans-108"/>
     </g>
    </g>
   </g>
  </g>
  <g id="text_19">
   <!-- MACD -->
   <g transform="translate(206.41875 19.0695)scale(0.16 -0.16)">
    <use xlink:href="#DejaVuSans-77"/>
    <use x="86.279297" xlink:href="#DejaVuSans-65"/>
    <use x="152.9375" xlink:href="#DejaVuSans-67"/>
    <use x="222.761719" xlink:href="#DejaVuSans-68"/>
   </g>
  </g>
 </g>
 <defs>
  <clipPath id="p21ac00aee4">
   <rect height="266.112" width="357.12" x="57.6" y="41.472"/>
  </clipPath>
 </defs>
</svg>
