<?xml version="1.0" encoding="utf-8" standalone="no"?>
<!DOCTYPE svg PUBLIC "-//W3C//DTD SVG 1.1//EN"
  "http://www.w3.org/Graphics/SVG/1.1/DTD/svg11.dtd">
<!-- Created with matplotlib (https://matplotlib.org/) -->
<svg height="345.6pt" version="1.1" viewBox="0 0 460.8 345.6" width="460.8pt" xmlns="http://www.w3.org/2000/svg" xmlns:xlink="http://www.w3.org/1999/xlink">
 <metadata>
  <rdf:RDF xmlns:cc="http://creativecommons.org/ns#" xmlns:dc="http://purl.org/dc/elements/1.1/" xmlns:rdf="http://www.w3.org/1999/02/22-rdf-syntax-ns#">
   <cc:Work>
    <dc:type rdf:resource="http://purl.org/dc/dcmitype/StillImage"/>
    <dc:date>2021-02-06T11:19:57.600469</dc:date>
    <dc:format>image/svg+xml</dc:format>
    <dc:creator>
     <cc:Agent>
      <dc:title>Matplotlib v3.3.2, https://matplotlib.org/</dc:title>
     </cc:Agent>
    </dc:creator>
   </cc:Work>
  </rdf:RDF>
 </metadata>
 <defs>
  <style type="text/css">*{stroke-linecap:butt;stroke-linejoin:round;}</style>
 </defs>
 <g id="figure_1">
  <g id="patch_1">
   <path d="M 0 345.6 
L 460.8 345.6 
L 460.8 0 
L 0 0 
z
" style="fill:#ffffff;"/>
  </g>
  <g id="axes_1">
   <g id="patch_2">
    <path d="M 57.6 307.584 
L 414.72 307.584 
L 414.72 41.472 
L 57.6 41.472 
z
" style="fill:#ffffff;"/>
   </g>
   <g id="matplotlib.axis_1">
    <g id="xtick_1">
     <g id="line2d_1">
      <defs>
       <path d="M 0 0 
L 0 3.5 
" id="m8e14365424" style="stroke:#000000;stroke-width:0.8;"/>
      </defs>
      <g>
       <use style="stroke:#000000;stroke-width:0.8;" x="73.832727" xlink:href="#m8e14365424" y="307.584"/>
      </g>
     </g>
     <g id="text_1">
      <!-- 2020-01 -->
      <g transform="translate(52.941321 322.182437)scale(0.1 -0.1)">
       <defs>
        <path d="M 19.1875 8.296875 
L 53.609375 8.296875 
L 53.609375 0 
L 7.328125 0 
L 7.328125 8.296875 
Q 12.9375 14.109375 22.625 23.890625 
Q 32.328125 33.6875 34.8125 36.53125 
Q 39.546875 41.84375 41.421875 45.53125 
Q 43.3125 49.21875 43.3125 52.78125 
Q 43.3125 58.59375 39.234375 62.25 
Q 35.15625 65.921875 28.609375 65.921875 
Q 23.96875 65.921875 18.8125 64.3125 
Q 13.671875 62.703125 7.8125 59.421875 
L 7.8125 69.390625 
Q 13.765625 71.78125 18.9375 73 
Q 24.125 74.21875 28.421875 74.21875 
Q 39.75 74.21875 46.484375 68.546875 
Q 53.21875 62.890625 53.21875 53.421875 
Q 53.21875 48.921875 51.53125 44.890625 
Q 49.859375 40.875 45.40625 35.40625 
Q 44.1875 33.984375 37.640625 27.21875 
Q 31.109375 20.453125 19.1875 8.296875 
z
" id="DejaVuSans-50"/>
        <path d="M 31.78125 66.40625 
Q 24.171875 66.40625 20.328125 58.90625 
Q 16.5 51.421875 16.5 36.375 
Q 16.5 21.390625 20.328125 13.890625 
Q 24.171875 6.390625 31.78125 6.390625 
Q 39.453125 6.390625 43.28125 13.890625 
Q 47.125 21.390625 47.125 36.375 
Q 47.125 51.421875 43.28125 58.90625 
Q 39.453125 66.40625 31.78125 66.40625 
z
M 31.78125 74.21875 
Q 44.046875 74.21875 50.515625 64.515625 
Q 56.984375 54.828125 56.984375 36.375 
Q 56.984375 17.96875 50.515625 8.265625 
Q 44.046875 -1.421875 31.78125 -1.421875 
Q 19.53125 -1.421875 13.0625 8.265625 
Q 6.59375 17.96875 6.59375 36.375 
Q 6.59375 54.828125 13.0625 64.515625 
Q 19.53125 74.21875 31.78125 74.21875 
z
" id="DejaVuSans-48"/>
        <path d="M 4.890625 31.390625 
L 31.203125 31.390625 
L 31.203125 23.390625 
L 4.890625 23.390625 
z
" id="DejaVuSans-45"/>
        <path d="M 12.40625 8.296875 
L 28.515625 8.296875 
L 28.515625 63.921875 
L 10.984375 60.40625 
L 10.984375 69.390625 
L 28.421875 72.90625 
L 38.28125 72.90625 
L 38.28125 8.296875 
L 54.390625 8.296875 
L 54.390625 0 
L 12.40625 0 
z
" id="DejaVuSans-49"/>
       </defs>
       <use xlink:href="#DejaVuSans-50"/>
       <use x="63.623047" xlink:href="#DejaVuSans-48"/>
       <use x="127.246094" xlink:href="#DejaVuSans-50"/>
       <use x="190.869141" xlink:href="#DejaVuSans-48"/>
       <use x="254.492188" xlink:href="#DejaVuSans-45"/>
       <use x="290.576172" xlink:href="#DejaVuSans-48"/>
       <use x="354.199219" xlink:href="#DejaVuSans-49"/>
      </g>
     </g>
    </g>
    <g id="xtick_2">
     <g id="line2d_2">
      <g>
       <use style="stroke:#000000;stroke-width:0.8;" x="122.409467" xlink:href="#m8e14365424" y="307.584"/>
      </g>
     </g>
     <g id="text_2">
      <!-- 2020-03 -->
      <g transform="translate(101.518061 322.182437)scale(0.1 -0.1)">
       <defs>
        <path d="M 40.578125 39.3125 
Q 47.65625 37.796875 51.625 33 
Q 55.609375 28.21875 55.609375 21.1875 
Q 55.609375 10.40625 48.1875 4.484375 
Q 40.765625 -1.421875 27.09375 -1.421875 
Q 22.515625 -1.421875 17.65625 -0.515625 
Q 12.796875 0.390625 7.625 2.203125 
L 7.625 11.71875 
Q 11.71875 9.328125 16.59375 8.109375 
Q 21.484375 6.890625 26.8125 6.890625 
Q 36.078125 6.890625 40.9375 10.546875 
Q 45.796875 14.203125 45.796875 21.1875 
Q 45.796875 27.640625 41.28125 31.265625 
Q 36.765625 34.90625 28.71875 34.90625 
L 20.21875 34.90625 
L 20.21875 43.015625 
L 29.109375 43.015625 
Q 36.375 43.015625 40.234375 45.921875 
Q 44.09375 48.828125 44.09375 54.296875 
Q 44.09375 59.90625 40.109375 62.90625 
Q 36.140625 65.921875 28.71875 65.921875 
Q 24.65625 65.921875 20.015625 65.03125 
Q 15.375 64.15625 9.8125 62.3125 
L 9.8125 71.09375 
Q 15.4375 72.65625 20.34375 73.4375 
Q 25.25 74.21875 29.59375 74.21875 
Q 40.828125 74.21875 47.359375 69.109375 
Q 53.90625 64.015625 53.90625 55.328125 
Q 53.90625 49.265625 50.4375 45.09375 
Q 46.96875 40.921875 40.578125 39.3125 
z
" id="DejaVuSans-51"/>
       </defs>
       <use xlink:href="#DejaVuSans-50"/>
       <use x="63.623047" xlink:href="#DejaVuSans-48"/>
       <use x="127.246094" xlink:href="#DejaVuSans-50"/>
       <use x="190.869141" xlink:href="#DejaVuSans-48"/>
       <use x="254.492188" xlink:href="#DejaVuSans-45"/>
       <use x="290.576172" xlink:href="#DejaVuSans-48"/>
       <use x="354.199219" xlink:href="#DejaVuSans-51"/>
      </g>
     </g>
    </g>
    <g id="xtick_3">
     <g id="line2d_3">
      <g>
       <use style="stroke:#000000;stroke-width:0.8;" x="171.79582" xlink:href="#m8e14365424" y="307.584"/>
      </g>
     </g>
     <g id="text_3">
      <!-- 2020-05 -->
      <g transform="translate(150.904413 322.182437)scale(0.1 -0.1)">
       <defs>
        <path d="M 10.796875 72.90625 
L 49.515625 72.90625 
L 49.515625 64.59375 
L 19.828125 64.59375 
L 19.828125 46.734375 
Q 21.96875 47.46875 24.109375 47.828125 
Q 26.265625 48.1875 28.421875 48.1875 
Q 40.625 48.1875 47.75 41.5 
Q 54.890625 34.8125 54.890625 23.390625 
Q 54.890625 11.625 47.5625 5.09375 
Q 40.234375 -1.421875 26.90625 -1.421875 
Q 22.3125 -1.421875 17.546875 -0.640625 
Q 12.796875 0.140625 7.71875 1.703125 
L 7.71875 11.625 
Q 12.109375 9.234375 16.796875 8.0625 
Q 21.484375 6.890625 26.703125 6.890625 
Q 35.15625 6.890625 40.078125 11.328125 
Q 45.015625 15.765625 45.015625 23.390625 
Q 45.015625 31 40.078125 35.4375 
Q 35.15625 39.890625 26.703125 39.890625 
Q 22.75 39.890625 18.8125 39.015625 
Q 14.890625 38.140625 10.796875 36.28125 
z
" id="DejaVuSans-53"/>
       </defs>
       <use xlink:href="#DejaVuSans-50"/>
       <use x="63.623047" xlink:href="#DejaVuSans-48"/>
       <use x="127.246094" xlink:href="#DejaVuSans-50"/>
       <use x="190.869141" xlink:href="#DejaVuSans-48"/>
       <use x="254.492188" xlink:href="#DejaVuSans-45"/>
       <use x="290.576172" xlink:href="#DejaVuSans-48"/>
       <use x="354.199219" xlink:href="#DejaVuSans-53"/>
      </g>
     </g>
    </g>
    <g id="xtick_4">
     <g id="line2d_4">
      <g>
       <use style="stroke:#000000;stroke-width:0.8;" x="221.182172" xlink:href="#m8e14365424" y="307.584"/>
      </g>
     </g>
     <g id="text_4">
      <!-- 2020-07 -->
      <g transform="translate(200.290766 322.182437)scale(0.1 -0.1)">
       <defs>
        <path d="M 8.203125 72.90625 
L 55.078125 72.90625 
L 55.078125 68.703125 
L 28.609375 0 
L 18.3125 0 
L 43.21875 64.59375 
L 8.203125 64.59375 
z
" id="DejaVuSans-55"/>
       </defs>
       <use xlink:href="#DejaVuSans-50"/>
       <use x="63.623047" xlink:href="#DejaVuSans-48"/>
       <use x="127.246094" xlink:href="#DejaVuSans-50"/>
       <use x="190.869141" xlink:href="#DejaVuSans-48"/>
       <use x="254.492188" xlink:href="#DejaVuSans-45"/>
       <use x="290.576172" xlink:href="#DejaVuSans-48"/>
       <use x="354.199219" xlink:href="#DejaVuSans-55"/>
      </g>
     </g>
    </g>
    <g id="xtick_5">
     <g id="line2d_5">
      <g>
       <use style="stroke:#000000;stroke-width:0.8;" x="271.378136" xlink:href="#m8e14365424" y="307.584"/>
      </g>
     </g>
     <g id="text_5">
      <!-- 2020-09 -->
      <g transform="translate(250.48673 322.182437)scale(0.1 -0.1)">
       <defs>
        <path d="M 10.984375 1.515625 
L 10.984375 10.5 
Q 14.703125 8.734375 18.5 7.8125 
Q 22.3125 6.890625 25.984375 6.890625 
Q 35.75 6.890625 40.890625 13.453125 
Q 46.046875 20.015625 46.78125 33.40625 
Q 43.953125 29.203125 39.59375 26.953125 
Q 35.25 24.703125 29.984375 24.703125 
Q 19.046875 24.703125 12.671875 31.3125 
Q 6.296875 37.9375 6.296875 49.421875 
Q 6.296875 60.640625 12.9375 67.421875 
Q 19.578125 74.21875 30.609375 74.21875 
Q 43.265625 74.21875 49.921875 64.515625 
Q 56.59375 54.828125 56.59375 36.375 
Q 56.59375 19.140625 48.40625 8.859375 
Q 40.234375 -1.421875 26.421875 -1.421875 
Q 22.703125 -1.421875 18.890625 -0.6875 
Q 15.09375 0.046875 10.984375 1.515625 
z
M 30.609375 32.421875 
Q 37.25 32.421875 41.125 36.953125 
Q 45.015625 41.5 45.015625 49.421875 
Q 45.015625 57.28125 41.125 61.84375 
Q 37.25 66.40625 30.609375 66.40625 
Q 23.96875 66.40625 20.09375 61.84375 
Q 16.21875 57.28125 16.21875 49.421875 
Q 16.21875 41.5 20.09375 36.953125 
Q 23.96875 32.421875 30.609375 32.421875 
z
" id="DejaVuSans-57"/>
       </defs>
       <use xlink:href="#DejaVuSans-50"/>
       <use x="63.623047" xlink:href="#DejaVuSans-48"/>
       <use x="127.246094" xlink:href="#DejaVuSans-50"/>
       <use x="190.869141" xlink:href="#DejaVuSans-48"/>
       <use x="254.492188" xlink:href="#DejaVuSans-45"/>
       <use x="290.576172" xlink:href="#DejaVuSans-48"/>
       <use x="354.199219" xlink:href="#DejaVuSans-57"/>
      </g>
     </g>
    </g>
    <g id="xtick_6">
     <g id="line2d_6">
      <g>
       <use style="stroke:#000000;stroke-width:0.8;" x="320.764489" xlink:href="#m8e14365424" y="307.584"/>
      </g>
     </g>
     <g id="text_6">
      <!-- 2020-11 -->
      <g transform="translate(299.873083 322.182437)scale(0.1 -0.1)">
       <use xlink:href="#DejaVuSans-50"/>
       <use x="63.623047" xlink:href="#DejaVuSans-48"/>
       <use x="127.246094" xlink:href="#DejaVuSans-50"/>
       <use x="190.869141" xlink:href="#DejaVuSans-48"/>
       <use x="254.492188" xlink:href="#DejaVuSans-45"/>
       <use x="290.576172" xlink:href="#DejaVuSans-49"/>
       <use x="354.199219" xlink:href="#DejaVuSans-49"/>
      </g>
     </g>
    </g>
    <g id="xtick_7">
     <g id="line2d_7">
      <g>
       <use style="stroke:#000000;stroke-width:0.8;" x="370.150841" xlink:href="#m8e14365424" y="307.584"/>
      </g>
     </g>
     <g id="text_7">
      <!-- 2021-01 -->
      <g transform="translate(349.259435 322.182437)scale(0.1 -0.1)">
       <use xlink:href="#DejaVuSans-50"/>
       <use x="63.623047" xlink:href="#DejaVuSans-48"/>
       <use x="127.246094" xlink:href="#DejaVuSans-50"/>
       <use x="190.869141" xlink:href="#DejaVuSans-49"/>
       <use x="254.492188" xlink:href="#DejaVuSans-45"/>
       <use x="290.576172" xlink:href="#DejaVuSans-48"/>
       <use x="354.199219" xlink:href="#DejaVuSans-49"/>
      </g>
     </g>
    </g>
   </g>
   <g id="matplotlib.axis_2">
    <g id="ytick_1">
     <g id="line2d_8">
      <defs>
       <path d="M 0 0 
L -3.5 0 
" id="md536c8cfce" style="stroke:#000000;stroke-width:0.8;"/>
      </defs>
      <g>
       <use style="stroke:#000000;stroke-width:0.8;" x="57.6" xlink:href="#md536c8cfce" y="292.120971"/>
      </g>
     </g>
     <g id="text_8">
      <!-- −1000 -->
      <g transform="translate(16.770313 295.92019)scale(0.1 -0.1)">
       <defs>
        <path d="M 10.59375 35.5 
L 73.1875 35.5 
L 73.1875 27.203125 
L 10.59375 27.203125 
z
" id="DejaVuSans-8722"/>
       </defs>
       <use xlink:href="#DejaVuSans-8722"/>
       <use x="83.789062" xlink:href="#DejaVuSans-49"/>
       <use x="147.412109" xlink:href="#DejaVuSans-48"/>
       <use x="211.035156" xlink:href="#DejaVuSans-48"/>
       <use x="274.658203" xlink:href="#DejaVuSans-48"/>
      </g>
     </g>
    </g>
    <g id="ytick_2">
     <g id="line2d_9">
      <g>
       <use style="stroke:#000000;stroke-width:0.8;" x="57.6" xlink:href="#md536c8cfce" y="250.021533"/>
      </g>
     </g>
     <g id="text_9">
      <!-- 0 -->
      <g transform="translate(44.2375 253.820752)scale(0.1 -0.1)">
       <use xlink:href="#DejaVuSans-48"/>
      </g>
     </g>
    </g>
    <g id="ytick_3">
     <g id="line2d_10">
      <g>
       <use style="stroke:#000000;stroke-width:0.8;" x="57.6" xlink:href="#md536c8cfce" y="207.922095"/>
      </g>
     </g>
     <g id="text_10">
      <!-- 1000 -->
      <g transform="translate(25.15 211.721314)scale(0.1 -0.1)">
       <use xlink:href="#DejaVuSans-49"/>
       <use x="63.623047" xlink:href="#DejaVuSans-48"/>
       <use x="127.246094" xlink:href="#DejaVuSans-48"/>
       <use x="190.869141" xlink:href="#DejaVuSans-48"/>
      </g>
     </g>
    </g>
    <g id="ytick_4">
     <g id="line2d_11">
      <g>
       <use style="stroke:#000000;stroke-width:0.8;" x="57.6" xlink:href="#md536c8cfce" y="165.822658"/>
      </g>
     </g>
     <g id="text_11">
      <!-- 2000 -->
      <g transform="translate(25.15 169.621877)scale(0.1 -0.1)">
       <use xlink:href="#DejaVuSans-50"/>
       <use x="63.623047" xlink:href="#DejaVuSans-48"/>
       <use x="127.246094" xlink:href="#DejaVuSans-48"/>
       <use x="190.869141" xlink:href="#DejaVuSans-48"/>
      </g>
     </g>
    </g>
    <g id="ytick_5">
     <g id="line2d_12">
      <g>
       <use style="stroke:#000000;stroke-width:0.8;" x="57.6" xlink:href="#md536c8cfce" y="123.72322"/>
      </g>
     </g>
     <g id="text_12">
      <!-- 3000 -->
      <g transform="translate(25.15 127.522439)scale(0.1 -0.1)">
       <use xlink:href="#DejaVuSans-51"/>
       <use x="63.623047" xlink:href="#DejaVuSans-48"/>
       <use x="127.246094" xlink:href="#DejaVuSans-48"/>
       <use x="190.869141" xlink:href="#DejaVuSans-48"/>
      </g>
     </g>
    </g>
    <g id="ytick_6">
     <g id="line2d_13">
      <g>
       <use style="stroke:#000000;stroke-width:0.8;" x="57.6" xlink:href="#md536c8cfce" y="81.623783"/>
      </g>
     </g>
     <g id="text_13">
      <!-- 4000 -->
      <g transform="translate(25.15 85.423001)scale(0.1 -0.1)">
       <defs>
        <path d="M 37.796875 64.3125 
L 12.890625 25.390625 
L 37.796875 25.390625 
z
M 35.203125 72.90625 
L 47.609375 72.90625 
L 47.609375 25.390625 
L 58.015625 25.390625 
L 58.015625 17.1875 
L 47.609375 17.1875 
L 47.609375 0 
L 37.796875 0 
L 37.796875 17.1875 
L 4.890625 17.1875 
L 4.890625 26.703125 
z
" id="DejaVuSans-52"/>
       </defs>
       <use xlink:href="#DejaVuSans-52"/>
       <use x="63.623047" xlink:href="#DejaVuSans-48"/>
       <use x="127.246094" xlink:href="#DejaVuSans-48"/>
       <use x="190.869141" xlink:href="#DejaVuSans-48"/>
      </g>
     </g>
    </g>
   </g>
   <g id="line2d_14">
    <path clip-path="url(#p7637a3cad6)" d="M 73.832727 250.021533 
L 398.487273 250.021533 
L 398.487273 250.021533 
" style="fill:none;stroke:#1f77b4;stroke-dasharray:5.55,2.4;stroke-dashoffset:0;stroke-width:1.5;"/>
   </g>
   <g id="line2d_15">
    <path clip-path="url(#p7637a3cad6)" d="M 73.832727 250.021533 
L 74.64234 250.783528 
L 76.261564 249.494934 
L 77.071177 249.041925 
L 77.880789 247.336307 
L 78.690401 244.7009 
L 79.500014 243.082592 
L 80.309626 242.652585 
L 81.119238 241.149205 
L 81.928851 240.652905 
L 82.738463 239.825243 
L 83.548075 239.539507 
L 84.357688 237.077698 
L 85.1673 235.292879 
L 85.976912 234.369901 
L 86.786525 233.243009 
L 87.596137 232.514651 
L 88.405749 232.823907 
L 89.215362 233.488148 
L 90.024974 233.873519 
L 90.834586 234.583114 
L 91.644199 236.217947 
L 93.263423 238.993656 
L 94.073036 239.391834 
L 94.882648 238.821572 
L 95.69226 236.850892 
L 96.501873 235.802289 
L 97.311485 234.409763 
L 98.93071 233.794396 
L 99.740322 233.971439 
L 100.549934 234.432214 
L 101.359547 235.361476 
L 102.169159 234.785411 
L 103.788384 233.4558 
L 104.597996 232.882188 
L 105.407608 231.742749 
L 106.217221 232.094604 
L 107.836445 230.414399 
L 108.646058 230.428949 
L 109.45567 230.238194 
L 111.884507 235.234869 
L 112.694119 235.370034 
L 113.503732 237.632382 
L 114.313344 239.499618 
L 115.932569 241.992335 
L 116.742181 242.003155 
L 117.551793 243.139534 
L 118.361406 245.286108 
L 119.171018 248.780971 
L 120.790243 253.8538 
L 121.599855 256.293172 
L 122.409467 258.126648 
L 123.21908 258.174456 
L 124.028692 258.649864 
L 124.838304 258.92499 
L 125.647917 258.013478 
L 126.457529 256.899698 
L 127.267141 256.819182 
L 128.886366 261.940649 
L 129.695978 263.827677 
L 130.505591 264.974339 
L 131.315203 275.901942 
L 132.934428 287.499997 
L 134.553652 294.282252 
L 135.363265 295.388544 
L 136.172877 295.488 
L 138.601714 286.803812 
L 139.411326 285.574219 
L 141.840163 274.406101 
L 142.649776 271.455391 
L 143.459388 268.937002 
L 144.269 268.334111 
L 145.078613 268.810154 
L 145.888225 266.662491 
L 146.697837 265.189366 
L 149.126674 259.179091 
L 149.936287 257.356526 
L 150.745899 256.161711 
L 152.365124 251.009031 
L 153.174736 249.179524 
L 153.984348 247.843734 
L 154.793961 248.182129 
L 155.603573 248.790281 
L 156.413185 248.174542 
L 157.222798 248.990643 
L 158.03241 249.231949 
L 158.842022 249.960458 
L 160.461247 248.913611 
L 161.270859 248.053765 
L 162.080472 247.590456 
L 163.699696 248.789368 
L 164.509309 248.339709 
L 165.318921 246.59909 
L 166.938146 244.290818 
L 169.366983 241.848486 
L 170.176595 239.516406 
L 170.986207 236.239632 
L 172.605432 231.539591 
L 173.415044 230.28055 
L 175.034269 228.928915 
L 176.653494 226.192141 
L 177.463106 223.396184 
L 178.272718 222.334703 
L 179.082331 226.101712 
L 180.701555 230.183695 
L 181.511168 230.872348 
L 182.32078 230.006743 
L 183.130392 229.754752 
L 183.940005 229.984899 
L 184.749617 229.352208 
L 185.559229 229.557443 
L 186.368842 229.436947 
L 187.178454 229.636047 
L 187.988066 231.492137 
L 189.607291 235.560557 
L 190.416903 237.139338 
L 191.226516 239.956394 
L 192.036128 241.960122 
L 192.84574 243.447227 
L 193.655353 243.730462 
L 194.464965 243.216663 
L 195.274577 242.547598 
L 196.893802 241.822006 
L 197.703414 239.756552 
L 198.513027 240.075697 
L 199.322639 240.65704 
L 200.132251 240.187353 
L 200.941864 240.458883 
L 201.751476 240.976052 
L 202.561088 241.118884 
L 203.370701 241.538465 
L 204.180313 241.755348 
L 204.989925 241.79631 
L 206.60915 244.172953 
L 207.418762 245.192241 
L 208.228375 247.001803 
L 210.657212 247.909589 
L 211.466824 248.782229 
L 212.276436 249.359631 
L 213.086049 249.728476 
L 213.895661 249.564815 
L 214.705273 249.049489 
L 215.514886 248.930241 
L 216.324498 249.642405 
L 217.13411 250.696946 
L 217.943723 251.391986 
L 218.753335 252.501291 
L 219.562947 252.990692 
L 221.182172 253.257188 
L 221.991784 253.127889 
L 223.611009 253.513472 
L 224.420621 253.633955 
L 225.230234 253.257523 
L 226.849458 252.215225 
L 227.659071 251.3797 
L 228.468683 251.579878 
L 230.89752 250.744696 
L 232.516745 250.860827 
L 234.135969 251.429518 
L 235.755194 251.545454 
L 237.374418 251.268009 
L 238.184031 250.613988 
L 239.803255 248.657872 
L 241.42248 246.714563 
L 242.232092 243.95582 
L 243.041705 239.563693 
L 243.851317 236.251187 
L 244.660929 233.574403 
L 245.470542 231.758674 
L 246.280154 229.44047 
L 247.089766 228.036334 
L 248.708991 227.221103 
L 249.518603 227.337527 
L 250.328216 225.748409 
L 251.137828 224.677737 
L 252.757053 225.202895 
L 253.566665 224.492544 
L 254.376277 224.823979 
L 255.18589 227.018044 
L 255.995502 228.249989 
L 256.805114 228.810415 
L 257.614727 229.034054 
L 258.424339 229.405782 
L 259.233951 230.106023 
L 260.043564 229.299815 
L 260.853176 230.277885 
L 261.662788 231.553303 
L 262.472401 233.605164 
L 264.091625 236.640072 
L 264.901238 237.559959 
L 265.71085 239.649445 
L 266.520462 241.135713 
L 267.330075 242.927692 
L 268.139687 243.807649 
L 268.949299 244.457671 
L 270.568524 244.619308 
L 271.378136 243.772412 
L 272.187749 243.746018 
L 272.997361 245.451897 
L 273.806973 250.233401 
L 276.23581 259.66531 
L 277.045423 261.056323 
L 277.855035 262.974449 
L 278.664647 263.293535 
L 279.47426 263.259549 
L 280.283872 262.894578 
L 281.093484 262.876006 
L 281.903097 261.481678 
L 282.712709 259.757563 
L 283.522321 257.611112 
L 284.331934 256.166246 
L 285.951158 253.598993 
L 286.760771 253.138383 
L 287.570383 253.839187 
L 288.379995 254.328081 
L 289.189608 255.572597 
L 289.99922 255.097639 
L 293.237669 252.542066 
L 294.047282 252.196831 
L 294.856894 251.977809 
L 295.666506 252.170056 
L 297.285731 252.763146 
L 298.095343 252.587212 
L 298.904956 252.098424 
L 299.714568 252.251904 
L 300.52418 252.158235 
L 301.333793 251.214727 
L 302.143405 249.904639 
L 304.572242 244.588533 
L 305.381854 243.600758 
L 307.001079 242.174182 
L 308.620304 242.358848 
L 309.429916 241.988976 
L 310.239528 240.979417 
L 311.049141 239.739286 
L 312.668365 232.462087 
L 314.28759 227.899006 
L 315.097202 226.700056 
L 315.906815 225.929709 
L 316.716427 223.683317 
L 317.526039 223.44023 
L 319.145264 222.491546 
L 319.954876 221.683285 
L 320.764489 221.487608 
L 321.574101 222.31686 
L 323.193326 221.154634 
L 324.002938 216.217985 
L 324.81255 212.750752 
L 325.622163 212.961171 
L 326.431775 211.380464 
L 327.241387 211.101575 
L 328.051 211.398563 
L 328.860612 210.751234 
L 329.670224 208.695091 
L 330.479837 207.456655 
L 331.289449 207.826578 
L 332.099061 208.958176 
L 332.908674 207.786018 
L 333.718286 204.139293 
L 334.527898 201.439214 
L 335.337511 199.777294 
L 336.147123 196.158423 
L 336.956735 193.862797 
L 337.766348 193.624405 
L 338.57596 194.220702 
L 339.385572 192.705778 
L 340.195185 193.642069 
L 341.814409 205.982283 
L 342.624022 209.066034 
L 343.433634 210.408732 
L 344.243246 206.835802 
L 345.052859 207.59449 
L 345.862471 207.224871 
L 346.672083 206.670566 
L 347.481696 209.392973 
L 348.291308 210.308041 
L 349.10092 210.709202 
L 349.910533 212.147594 
L 350.720145 216.60389 
L 351.529757 219.699105 
L 353.148982 227.45376 
L 353.958594 228.241455 
L 355.577819 227.53801 
L 356.387431 226.936449 
L 357.197044 220.329541 
L 358.006656 210.580176 
L 359.625881 194.022295 
L 360.435493 189.428511 
L 361.245105 189.00769 
L 362.054718 185.682189 
L 362.86433 185.785652 
L 363.673942 184.917433 
L 364.483555 181.694141 
L 365.293167 174.110103 
L 366.102779 169.697137 
L 366.912392 164.489903 
L 367.722004 160.336698 
L 368.531616 152.959597 
L 369.341229 148.050095 
L 370.150841 143.903088 
L 371.770066 121.989619 
L 372.579678 118.675359 
L 373.38929 110.800244 
L 374.198903 96.840404 
L 375.818127 62.702905 
L 376.62774 53.568 
L 377.437352 55.488499 
L 378.246964 68.372885 
L 379.056577 85.250261 
L 379.866189 89.215061 
L 380.675801 88.235595 
L 381.485414 97.264624 
L 383.104638 119.653565 
L 383.914251 127.098011 
L 385.533475 147.053937 
L 386.343088 171.970942 
L 388.771925 210.073347 
L 389.581537 219.251942 
L 390.391149 225.910523 
L 391.200762 238.431058 
L 392.010374 238.315562 
L 392.819986 235.524137 
L 393.629599 233.299955 
L 394.439211 235.759578 
L 395.248823 236.458712 
L 396.058436 230.496229 
L 396.868048 218.803409 
L 397.67766 212.35099 
L 398.487273 203.286669 
L 398.487273 203.286669 
" style="fill:none;stroke:#0000ff;stroke-linecap:square;stroke-width:1.5;"/>
   </g>
   <g id="line2d_16">
    <path clip-path="url(#p7637a3cad6)" d="M 73.832727 250.021533 
L 74.64234 250.173932 
L 75.451952 250.154914 
L 77.071177 249.826719 
L 77.880789 249.328637 
L 80.309626 246.401709 
L 81.928851 244.411547 
L 84.357688 241.578204 
L 86.786525 237.953315 
L 87.596137 236.865582 
L 88.405749 236.057247 
L 89.215362 235.543427 
L 90.024974 235.209445 
L 90.834586 235.084179 
L 91.644199 235.310933 
L 92.453811 235.750182 
L 94.073036 236.997468 
L 94.882648 237.362289 
L 95.69226 237.26001 
L 96.501873 236.968465 
L 98.93071 235.538016 
L 99.740322 235.224701 
L 100.549934 235.066204 
L 101.359547 235.125258 
L 102.169159 235.057288 
L 103.788384 234.575366 
L 104.597996 234.23673 
L 105.407608 233.737934 
L 107.026833 232.964671 
L 108.646058 232.049483 
L 109.45567 231.687225 
L 110.265282 231.71738 
L 111.074895 232.018061 
L 113.503732 234.088992 
L 116.742181 238.347636 
L 117.551793 239.306016 
L 118.361406 240.502034 
L 119.98063 244.015131 
L 123.21908 251.683908 
L 124.028692 253.077099 
L 124.838304 254.246677 
L 125.647917 255.000037 
L 127.267141 255.667812 
L 128.076754 256.444769 
L 129.695978 258.800691 
L 130.505591 260.035421 
L 131.315203 263.208725 
L 132.934428 271.036086 
L 134.553652 278.874539 
L 135.363265 282.17734 
L 136.172877 284.839472 
L 136.982489 286.364855 
L 137.792102 286.997256 
L 138.601714 286.958568 
L 139.411326 286.681698 
L 140.220939 285.723536 
L 141.030551 284.123277 
L 142.649776 280.034952 
L 144.269 275.919112 
L 145.888225 272.930354 
L 147.50745 269.729085 
L 153.174736 256.973137 
L 153.984348 255.147257 
L 154.793961 253.754231 
L 156.413185 251.844061 
L 157.222798 251.273378 
L 158.03241 250.865092 
L 159.651635 250.432956 
L 161.270859 249.714023 
L 162.080472 249.289309 
L 162.890084 249.066748 
L 164.509309 248.876959 
L 165.318921 248.421385 
L 166.938146 247.120791 
L 169.366983 244.868855 
L 170.176595 243.798365 
L 171.79582 240.574476 
L 173.415044 237.070109 
L 175.034269 234.243191 
L 176.653494 231.552403 
L 178.272718 228.403868 
L 179.082331 227.943436 
L 179.891943 227.956847 
L 181.511168 228.896243 
L 183.130392 229.245624 
L 183.940005 229.393479 
L 187.178454 229.465709 
L 187.988066 229.870995 
L 188.797679 230.633983 
L 190.416903 232.723306 
L 193.655353 238.563545 
L 194.464965 239.494169 
L 195.274577 240.104855 
L 196.08419 240.509404 
L 196.893802 240.771924 
L 198.513027 240.470219 
L 200.132251 240.443538 
L 201.751476 240.552496 
L 203.370701 240.840312 
L 204.989925 241.177917 
L 205.799538 241.542737 
L 207.418762 242.693473 
L 209.037987 244.297476 
L 212.276436 246.823892 
L 213.086049 247.404809 
L 213.895661 247.83681 
L 216.324498 248.528101 
L 217.943723 249.447893 
L 220.37256 251.151657 
L 221.991784 251.883788 
L 224.420621 252.68142 
L 225.230234 252.79664 
L 226.849458 252.667628 
L 228.468683 252.244009 
L 232.516745 251.34447 
L 234.135969 251.338095 
L 237.374418 251.386789 
L 238.184031 251.232228 
L 239.803255 250.452397 
L 241.42248 249.274298 
L 242.232092 248.210602 
L 243.041705 246.48122 
L 247.899379 234.34649 
L 248.708991 232.921413 
L 251.94744 228.527555 
L 253.566665 227.188607 
L 254.376277 226.715682 
L 255.18589 226.776154 
L 257.614727 227.741867 
L 261.662788 229.487732 
L 263.282013 231.267492 
L 265.71085 234.638368 
L 268.949299 239.795675 
L 269.758912 240.74726 
L 270.568524 241.52167 
L 272.997361 242.951706 
L 273.806973 244.408045 
L 274.616586 246.223202 
L 277.855035 254.780726 
L 278.664647 256.483288 
L 279.47426 257.83854 
L 280.283872 258.849748 
L 281.093484 259.654999 
L 281.903097 260.020335 
L 282.712709 259.967781 
L 283.522321 259.496447 
L 285.141546 258.059302 
L 286.760771 256.361469 
L 287.570383 255.857012 
L 288.379995 255.551226 
L 289.99922 255.463928 
L 291.618445 254.99404 
L 293.237669 254.243714 
L 294.856894 253.463032 
L 295.666506 253.204437 
L 297.285731 253.002708 
L 299.714568 252.654678 
L 300.52418 252.55539 
L 301.333793 252.287257 
L 302.143405 251.810734 
L 302.953017 251.062651 
L 303.76263 250.132388 
L 306.191467 246.932319 
L 307.001079 245.980692 
L 307.810691 245.246964 
L 310.239528 243.502498 
L 311.049141 242.749856 
L 311.858753 241.380066 
L 313.477978 237.702871 
L 315.097202 233.933689 
L 317.526039 229.170428 
L 319.145264 226.837297 
L 320.764489 224.942717 
L 323.193326 223.334229 
L 324.002938 221.91098 
L 324.81255 220.078935 
L 327.241387 215.980634 
L 329.670224 213.100316 
L 330.479837 211.971584 
L 331.289449 211.142583 
L 332.099061 210.705701 
L 332.908674 210.121765 
L 333.718286 208.92527 
L 335.337511 205.897906 
L 337.766348 200.270935 
L 339.385572 197.789866 
L 340.195185 196.960307 
L 341.004797 197.60696 
L 341.814409 199.282024 
L 343.433634 203.072807 
L 345.052859 204.579223 
L 345.862471 205.108353 
L 346.672083 205.420795 
L 349.910533 208.644619 
L 350.720145 210.236473 
L 351.529757 212.128999 
L 352.33937 214.397293 
L 353.958594 219.25516 
L 354.768207 220.985237 
L 355.577819 222.295791 
L 356.387431 223.223923 
L 357.197044 222.645046 
L 358.006656 220.232072 
L 358.816268 216.6483 
L 360.435493 207.584181 
L 362.054718 200.231544 
L 363.673942 194.857379 
L 364.483555 192.224732 
L 366.102779 184.820872 
L 367.722004 176.671082 
L 370.150841 162.503055 
L 370.960453 156.489926 
L 372.579678 143.406963 
L 373.38929 136.885619 
L 374.198903 128.876576 
L 375.818127 107.6222 
L 376.62774 96.81136 
L 377.437352 88.546788 
L 378.246964 84.512007 
L 379.056577 84.659658 
L 379.866189 85.570739 
L 380.675801 86.10371 
L 381.485414 88.335893 
L 382.295026 92.382214 
L 383.914251 103.68879 
L 385.533475 117.655723 
L 387.962312 151.68529 
L 389.581537 174.540709 
L 392.010374 204.093472 
L 392.819986 210.379605 
L 394.439211 219.122856 
L 395.248823 222.590027 
L 396.058436 224.171267 
L 396.868048 223.097696 
L 397.67766 220.948355 
L 398.487273 217.416017 
L 398.487273 217.416017 
" style="fill:none;stroke:#ff6347;stroke-linecap:square;stroke-width:1.5;"/>
   </g>
   <g id="patch_3">
    <path d="M 57.6 307.584 
L 57.6 41.472 
" style="fill:none;stroke:#000000;stroke-linecap:square;stroke-linejoin:miter;stroke-width:0.8;"/>
   </g>
   <g id="patch_4">
    <path d="M 414.72 307.584 
L 414.72 41.472 
" style="fill:none;stroke:#000000;stroke-linecap:square;stroke-linejoin:miter;stroke-width:0.8;"/>
   </g>
   <g id="patch_5">
    <path d="M 57.6 307.584 
L 414.72 307.584 
" style="fill:none;stroke:#000000;stroke-linecap:square;stroke-linejoin:miter;stroke-width:0.8;"/>
   </g>
   <g id="patch_6">
    <path d="M 57.6 41.472 
L 414.72 41.472 
" style="fill:none;stroke:#000000;stroke-linecap:square;stroke-linejoin:miter;stroke-width:0.8;"/>
   </g>
   <g id="text_14">
    <!-- Data source: coindesk -->
    <g transform="translate(180.640469 35.472)scale(0.1 -0.1)">
     <defs>
      <path d="M 19.671875 64.796875 
L 19.671875 8.109375 
L 31.59375 8.109375 
Q 46.6875 8.109375 53.6875 14.9375 
Q 60.6875 21.78125 60.6875 36.53125 
Q 60.6875 51.171875 53.6875 57.984375 
Q 46.6875 64.796875 31.59375 64.796875 
z
M 9.8125 72.90625 
L 30.078125 72.90625 
Q 51.265625 72.90625 61.171875 64.09375 
Q 71.09375 55.28125 71.09375 36.53125 
Q 71.09375 17.671875 61.125 8.828125 
Q 51.171875 0 30.078125 0 
L 9.8125 0 
z
" id="DejaVuSans-68"/>
      <path d="M 34.28125 27.484375 
Q 23.390625 27.484375 19.1875 25 
Q 14.984375 22.515625 14.984375 16.5 
Q 14.984375 11.71875 18.140625 8.90625 
Q 21.296875 6.109375 26.703125 6.109375 
Q 34.1875 6.109375 38.703125 11.40625 
Q 43.21875 16.703125 43.21875 25.484375 
L 43.21875 27.484375 
z
M 52.203125 31.203125 
L 52.203125 0 
L 43.21875 0 
L 43.21875 8.296875 
Q 40.140625 3.328125 35.546875 0.953125 
Q 30.953125 -1.421875 24.3125 -1.421875 
Q 15.921875 -1.421875 10.953125 3.296875 
Q 6 8.015625 6 15.921875 
Q 6 25.140625 12.171875 29.828125 
Q 18.359375 34.515625 30.609375 34.515625 
L 43.21875 34.515625 
L 43.21875 35.40625 
Q 43.21875 41.609375 39.140625 45 
Q 35.0625 48.390625 27.6875 48.390625 
Q 23 48.390625 18.546875 47.265625 
Q 14.109375 46.140625 10.015625 43.890625 
L 10.015625 52.203125 
Q 14.9375 54.109375 19.578125 55.046875 
Q 24.21875 56 28.609375 56 
Q 40.484375 56 46.34375 49.84375 
Q 52.203125 43.703125 52.203125 31.203125 
z
" id="DejaVuSans-97"/>
      <path d="M 18.3125 70.21875 
L 18.3125 54.6875 
L 36.8125 54.6875 
L 36.8125 47.703125 
L 18.3125 47.703125 
L 18.3125 18.015625 
Q 18.3125 11.328125 20.140625 9.421875 
Q 21.96875 7.515625 27.59375 7.515625 
L 36.8125 7.515625 
L 36.8125 0 
L 27.59375 0 
Q 17.1875 0 13.234375 3.875 
Q 9.28125 7.765625 9.28125 18.015625 
L 9.28125 47.703125 
L 2.6875 47.703125 
L 2.6875 54.6875 
L 9.28125 54.6875 
L 9.28125 70.21875 
z
" id="DejaVuSans-116"/>
      <path id="DejaVuSans-32"/>
      <path d="M 44.28125 53.078125 
L 44.28125 44.578125 
Q 40.484375 46.53125 36.375 47.5 
Q 32.28125 48.484375 27.875 48.484375 
Q 21.1875 48.484375 17.84375 46.4375 
Q 14.5 44.390625 14.5 40.28125 
Q 14.5 37.15625 16.890625 35.375 
Q 19.28125 33.59375 26.515625 31.984375 
L 29.59375 31.296875 
Q 39.15625 29.25 43.1875 25.515625 
Q 47.21875 21.78125 47.21875 15.09375 
Q 47.21875 7.46875 41.1875 3.015625 
Q 35.15625 -1.421875 24.609375 -1.421875 
Q 20.21875 -1.421875 15.453125 -0.5625 
Q 10.6875 0.296875 5.421875 2 
L 5.421875 11.28125 
Q 10.40625 8.6875 15.234375 7.390625 
Q 20.0625 6.109375 24.8125 6.109375 
Q 31.15625 6.109375 34.5625 8.28125 
Q 37.984375 10.453125 37.984375 14.40625 
Q 37.984375 18.0625 35.515625 20.015625 
Q 33.0625 21.96875 24.703125 23.78125 
L 21.578125 24.515625 
Q 13.234375 26.265625 9.515625 29.90625 
Q 5.8125 33.546875 5.8125 39.890625 
Q 5.8125 47.609375 11.28125 51.796875 
Q 16.75 56 26.8125 56 
Q 31.78125 56 36.171875 55.265625 
Q 40.578125 54.546875 44.28125 53.078125 
z
" id="DejaVuSans-115"/>
      <path d="M 30.609375 48.390625 
Q 23.390625 48.390625 19.1875 42.75 
Q 14.984375 37.109375 14.984375 27.296875 
Q 14.984375 17.484375 19.15625 11.84375 
Q 23.34375 6.203125 30.609375 6.203125 
Q 37.796875 6.203125 41.984375 11.859375 
Q 46.1875 17.53125 46.1875 27.296875 
Q 46.1875 37.015625 41.984375 42.703125 
Q 37.796875 48.390625 30.609375 48.390625 
z
M 30.609375 56 
Q 42.328125 56 49.015625 48.375 
Q 55.71875 40.765625 55.71875 27.296875 
Q 55.71875 13.875 49.015625 6.21875 
Q 42.328125 -1.421875 30.609375 -1.421875 
Q 18.84375 -1.421875 12.171875 6.21875 
Q 5.515625 13.875 5.515625 27.296875 
Q 5.515625 40.765625 12.171875 48.375 
Q 18.84375 56 30.609375 56 
z
" id="DejaVuSans-111"/>
      <path d="M 8.5 21.578125 
L 8.5 54.6875 
L 17.484375 54.6875 
L 17.484375 21.921875 
Q 17.484375 14.15625 20.5 10.265625 
Q 23.53125 6.390625 29.59375 6.390625 
Q 36.859375 6.390625 41.078125 11.03125 
Q 45.3125 15.671875 45.3125 23.6875 
L 45.3125 54.6875 
L 54.296875 54.6875 
L 54.296875 0 
L 45.3125 0 
L 45.3125 8.40625 
Q 42.046875 3.421875 37.71875 1 
Q 33.40625 -1.421875 27.6875 -1.421875 
Q 18.265625 -1.421875 13.375 4.4375 
Q 8.5 10.296875 8.5 21.578125 
z
M 31.109375 56 
z
" id="DejaVuSans-117"/>
      <path d="M 41.109375 46.296875 
Q 39.59375 47.171875 37.8125 47.578125 
Q 36.03125 48 33.890625 48 
Q 26.265625 48 22.1875 43.046875 
Q 18.109375 38.09375 18.109375 28.8125 
L 18.109375 0 
L 9.078125 0 
L 9.078125 54.6875 
L 18.109375 54.6875 
L 18.109375 46.1875 
Q 20.953125 51.171875 25.484375 53.578125 
Q 30.03125 56 36.53125 56 
Q 37.453125 56 38.578125 55.875 
Q 39.703125 55.765625 41.0625 55.515625 
z
" id="DejaVuSans-114"/>
      <path d="M 48.78125 52.59375 
L 48.78125 44.1875 
Q 44.96875 46.296875 41.140625 47.34375 
Q 37.3125 48.390625 33.40625 48.390625 
Q 24.65625 48.390625 19.8125 42.84375 
Q 14.984375 37.3125 14.984375 27.296875 
Q 14.984375 17.28125 19.8125 11.734375 
Q 24.65625 6.203125 33.40625 6.203125 
Q 37.3125 6.203125 41.140625 7.25 
Q 44.96875 8.296875 48.78125 10.40625 
L 48.78125 2.09375 
Q 45.015625 0.34375 40.984375 -0.53125 
Q 36.96875 -1.421875 32.421875 -1.421875 
Q 20.0625 -1.421875 12.78125 6.34375 
Q 5.515625 14.109375 5.515625 27.296875 
Q 5.515625 40.671875 12.859375 48.328125 
Q 20.21875 56 33.015625 56 
Q 37.15625 56 41.109375 55.140625 
Q 45.0625 54.296875 48.78125 52.59375 
z
" id="DejaVuSans-99"/>
      <path d="M 56.203125 29.59375 
L 56.203125 25.203125 
L 14.890625 25.203125 
Q 15.484375 15.921875 20.484375 11.0625 
Q 25.484375 6.203125 34.421875 6.203125 
Q 39.59375 6.203125 44.453125 7.46875 
Q 49.3125 8.734375 54.109375 11.28125 
L 54.109375 2.78125 
Q 49.265625 0.734375 44.1875 -0.34375 
Q 39.109375 -1.421875 33.890625 -1.421875 
Q 20.796875 -1.421875 13.15625 6.1875 
Q 5.515625 13.8125 5.515625 26.8125 
Q 5.515625 40.234375 12.765625 48.109375 
Q 20.015625 56 32.328125 56 
Q 43.359375 56 49.78125 48.890625 
Q 56.203125 41.796875 56.203125 29.59375 
z
M 47.21875 32.234375 
Q 47.125 39.59375 43.09375 43.984375 
Q 39.0625 48.390625 32.421875 48.390625 
Q 24.90625 48.390625 20.390625 44.140625 
Q 15.875 39.890625 15.1875 32.171875 
z
" id="DejaVuSans-101"/>
      <path d="M 11.71875 12.40625 
L 22.015625 12.40625 
L 22.015625 0 
L 11.71875 0 
z
M 11.71875 51.703125 
L 22.015625 51.703125 
L 22.015625 39.3125 
L 11.71875 39.3125 
z
" id="DejaVuSans-58"/>
      <path d="M 9.421875 54.6875 
L 18.40625 54.6875 
L 18.40625 0 
L 9.421875 0 
z
M 9.421875 75.984375 
L 18.40625 75.984375 
L 18.40625 64.59375 
L 9.421875 64.59375 
z
" id="DejaVuSans-105"/>
      <path d="M 54.890625 33.015625 
L 54.890625 0 
L 45.90625 0 
L 45.90625 32.71875 
Q 45.90625 40.484375 42.875 44.328125 
Q 39.84375 48.1875 33.796875 48.1875 
Q 26.515625 48.1875 22.3125 43.546875 
Q 18.109375 38.921875 18.109375 30.90625 
L 18.109375 0 
L 9.078125 0 
L 9.078125 54.6875 
L 18.109375 54.6875 
L 18.109375 46.1875 
Q 21.34375 51.125 25.703125 53.5625 
Q 30.078125 56 35.796875 56 
Q 45.21875 56 50.046875 50.171875 
Q 54.890625 44.34375 54.890625 33.015625 
z
" id="DejaVuSans-110"/>
      <path d="M 45.40625 46.390625 
L 45.40625 75.984375 
L 54.390625 75.984375 
L 54.390625 0 
L 45.40625 0 
L 45.40625 8.203125 
Q 42.578125 3.328125 38.25 0.953125 
Q 33.9375 -1.421875 27.875 -1.421875 
Q 17.96875 -1.421875 11.734375 6.484375 
Q 5.515625 14.40625 5.515625 27.296875 
Q 5.515625 40.1875 11.734375 48.09375 
Q 17.96875 56 27.875 56 
Q 33.9375 56 38.25 53.625 
Q 42.578125 51.265625 45.40625 46.390625 
z
M 14.796875 27.296875 
Q 14.796875 17.390625 18.875 11.75 
Q 22.953125 6.109375 30.078125 6.109375 
Q 37.203125 6.109375 41.296875 11.75 
Q 45.40625 17.390625 45.40625 27.296875 
Q 45.40625 37.203125 41.296875 42.84375 
Q 37.203125 48.484375 30.078125 48.484375 
Q 22.953125 48.484375 18.875 42.84375 
Q 14.796875 37.203125 14.796875 27.296875 
z
" id="DejaVuSans-100"/>
      <path d="M 9.078125 75.984375 
L 18.109375 75.984375 
L 18.109375 31.109375 
L 44.921875 54.6875 
L 56.390625 54.6875 
L 27.390625 29.109375 
L 57.625 0 
L 45.90625 0 
L 18.109375 26.703125 
L 18.109375 0 
L 9.078125 0 
z
" id="DejaVuSans-107"/>
     </defs>
     <use xlink:href="#DejaVuSans-68"/>
     <use x="77.001953" xlink:href="#DejaVuSans-97"/>
     <use x="138.28125" xlink:href="#DejaVuSans-116"/>
     <use x="177.490234" xlink:href="#DejaVuSans-97"/>
     <use x="238.769531" xlink:href="#DejaVuSans-32"/>
     <use x="270.556641" xlink:href="#DejaVuSans-115"/>
     <use x="322.65625" xlink:href="#DejaVuSans-111"/>
     <use x="383.837891" xlink:href="#DejaVuSans-117"/>
     <use x="447.216797" xlink:href="#DejaVuSans-114"/>
     <use x="486.080078" xlink:href="#DejaVuSans-99"/>
     <use x="541.060547" xlink:href="#DejaVuSans-101"/>
     <use x="602.583984" xlink:href="#DejaVuSans-58"/>
     <use x="636.275391" xlink:href="#DejaVuSans-32"/>
     <use x="668.0625" xlink:href="#DejaVuSans-99"/>
     <use x="723.042969" xlink:href="#DejaVuSans-111"/>
     <use x="784.224609" xlink:href="#DejaVuSans-105"/>
     <use x="812.007812" xlink:href="#DejaVuSans-110"/>
     <use x="875.386719" xlink:href="#DejaVuSans-100"/>
     <use x="938.863281" xlink:href="#DejaVuSans-101"/>
     <use x="1000.386719" xlink:href="#DejaVuSans-115"/>
     <use x="1052.486328" xlink:href="#DejaVuSans-107"/>
    </g>
   </g>
   <g id="legend_1">
    <g id="patch_7">
     <path d="M 64.6 78.82825 
L 127.31875 78.82825 
Q 129.31875 78.82825 129.31875 76.82825 
L 129.31875 48.472 
Q 129.31875 46.472 127.31875 46.472 
L 64.6 46.472 
Q 62.6 46.472 62.6 48.472 
L 62.6 76.82825 
Q 62.6 78.82825 64.6 78.82825 
z
" style="fill:#ffffff;opacity:0.8;stroke:#cccccc;stroke-linejoin:miter;"/>
    </g>
    <g id="line2d_17">
     <path d="M 66.6 54.570437 
L 86.6 54.570437 
" style="fill:none;stroke:#0000ff;stroke-linecap:square;stroke-width:1.5;"/>
    </g>
    <g id="line2d_18"/>
    <g id="text_15">
     <!-- MACD -->
     <g transform="translate(94.6 58.070437)scale(0.1 -0.1)">
      <defs>
       <path d="M 9.8125 72.90625 
L 24.515625 72.90625 
L 43.109375 23.296875 
L 61.8125 72.90625 
L 76.515625 72.90625 
L 76.515625 0 
L 66.890625 0 
L 66.890625 64.015625 
L 48.09375 14.015625 
L 38.1875 14.015625 
L 19.390625 64.015625 
L 19.390625 0 
L 9.8125 0 
z
" id="DejaVuSans-77"/>
       <path d="M 34.1875 63.1875 
L 20.796875 26.90625 
L 47.609375 26.90625 
z
M 28.609375 72.90625 
L 39.796875 72.90625 
L 67.578125 0 
L 57.328125 0 
L 50.6875 18.703125 
L 17.828125 18.703125 
L 11.1875 0 
L 0.78125 0 
z
" id="DejaVuSans-65"/>
       <path d="M 64.40625 67.28125 
L 64.40625 56.890625 
Q 59.421875 61.53125 53.78125 63.8125 
Q 48.140625 66.109375 41.796875 66.109375 
Q 29.296875 66.109375 22.65625 58.46875 
Q 16.015625 50.828125 16.015625 36.375 
Q 16.015625 21.96875 22.65625 14.328125 
Q 29.296875 6.6875 41.796875 6.6875 
Q 48.140625 6.6875 53.78125 8.984375 
Q 59.421875 11.28125 64.40625 15.921875 
L 64.40625 5.609375 
Q 59.234375 2.09375 53.4375 0.328125 
Q 47.65625 -1.421875 41.21875 -1.421875 
Q 24.65625 -1.421875 15.125 8.703125 
Q 5.609375 18.84375 5.609375 36.375 
Q 5.609375 53.953125 15.125 64.078125 
Q 24.65625 74.21875 41.21875 74.21875 
Q 47.75 74.21875 53.53125 72.484375 
Q 59.328125 70.75 64.40625 67.28125 
z
" id="DejaVuSans-67"/>
      </defs>
      <use xlink:href="#DejaVuSans-77"/>
      <use x="86.279297" xlink:href="#DejaVuSans-65"/>
      <use x="152.9375" xlink:href="#DejaVuSans-67"/>
      <use x="222.761719" xlink:href="#DejaVuSans-68"/>
     </g>
    </g>
    <g id="line2d_19">
     <path d="M 66.6 69.248562 
L 86.6 69.248562 
" style="fill:none;stroke:#ff6347;stroke-linecap:square;stroke-width:1.5;"/>
    </g>
    <g id="line2d_20"/>
    <g id="text_16">
     <!-- Signal -->
     <g transform="translate(94.6 72.748562)scale(0.1 -0.1)">
      <defs>
       <path d="M 53.515625 70.515625 
L 53.515625 60.890625 
Q 47.90625 63.578125 42.921875 64.890625 
Q 37.9375 66.21875 33.296875 66.21875 
Q 25.25 66.21875 20.875 63.09375 
Q 16.5 59.96875 16.5 54.203125 
Q 16.5 49.359375 19.40625 46.890625 
Q 22.3125 44.4375 30.421875 42.921875 
L 36.375 41.703125 
Q 47.40625 39.59375 52.65625 34.296875 
Q 57.90625 29 57.90625 20.125 
Q 57.90625 9.515625 50.796875 4.046875 
Q 43.703125 -1.421875 29.984375 -1.421875 
Q 24.8125 -1.421875 18.96875 -0.25 
Q 13.140625 0.921875 6.890625 3.21875 
L 6.890625 13.375 
Q 12.890625 10.015625 18.65625 8.296875 
Q 24.421875 6.59375 29.984375 6.59375 
Q 38.421875 6.59375 43.015625 9.90625 
Q 47.609375 13.234375 47.609375 19.390625 
Q 47.609375 24.75 44.3125 27.78125 
Q 41.015625 30.8125 33.5 32.328125 
L 27.484375 33.5 
Q 16.453125 35.6875 11.515625 40.375 
Q 6.59375 45.0625 6.59375 53.421875 
Q 6.59375 63.09375 13.40625 68.65625 
Q 20.21875 74.21875 32.171875 74.21875 
Q 37.3125 74.21875 42.625 73.28125 
Q 47.953125 72.359375 53.515625 70.515625 
z
" id="DejaVuSans-83"/>
       <path d="M 45.40625 27.984375 
Q 45.40625 37.75 41.375 43.109375 
Q 37.359375 48.484375 30.078125 48.484375 
Q 22.859375 48.484375 18.828125 43.109375 
Q 14.796875 37.75 14.796875 27.984375 
Q 14.796875 18.265625 18.828125 12.890625 
Q 22.859375 7.515625 30.078125 7.515625 
Q 37.359375 7.515625 41.375 12.890625 
Q 45.40625 18.265625 45.40625 27.984375 
z
M 54.390625 6.78125 
Q 54.390625 -7.171875 48.1875 -13.984375 
Q 42 -20.796875 29.203125 -20.796875 
Q 24.46875 -20.796875 20.265625 -20.09375 
Q 16.0625 -19.390625 12.109375 -17.921875 
L 12.109375 -9.1875 
Q 16.0625 -11.328125 19.921875 -12.34375 
Q 23.78125 -13.375 27.78125 -13.375 
Q 36.625 -13.375 41.015625 -8.765625 
Q 45.40625 -4.15625 45.40625 5.171875 
L 45.40625 9.625 
Q 42.625 4.78125 38.28125 2.390625 
Q 33.9375 0 27.875 0 
Q 17.828125 0 11.671875 7.65625 
Q 5.515625 15.328125 5.515625 27.984375 
Q 5.515625 40.671875 11.671875 48.328125 
Q 17.828125 56 27.875 56 
Q 33.9375 56 38.28125 53.609375 
Q 42.625 51.21875 45.40625 46.390625 
L 45.40625 54.6875 
L 54.390625 54.6875 
z
" id="DejaVuSans-103"/>
       <path d="M 9.421875 75.984375 
L 18.40625 75.984375 
L 18.40625 0 
L 9.421875 0 
z
" id="DejaVuSans-108"/>
      </defs>
      <use xlink:href="#DejaVuSans-83"/>
      <use x="63.476562" xlink:href="#DejaVuSans-105"/>
      <use x="91.259766" xlink:href="#DejaVuSans-103"/>
      <use x="154.736328" xlink:href="#DejaVuSans-110"/>
      <use x="218.115234" xlink:href="#DejaVuSans-97"/>
      <use x="279.394531" xlink:href="#DejaVuSans-108"/>
     </g>
    </g>
   </g>
  </g>
  <g id="text_17">
   <!-- MACD -->
   <g transform="translate(206.41875 19.0695)scale(0.16 -0.16)">
    <use xlink:href="#DejaVuSans-77"/>
    <use x="86.279297" xlink:href="#DejaVuSans-65"/>
    <use x="152.9375" xlink:href="#DejaVuSans-67"/>
    <use x="222.761719" xlink:href="#DejaVuSans-68"/>
   </g>
  </g>
 </g>
 <defs>
  <clipPath id="p7637a3cad6">
   <rect height="266.112" width="357.12" x="57.6" y="41.472"/>
  </clipPath>
 </defs>
</svg>
