<?xml version="1.0" encoding="utf-8" standalone="no"?>
<!DOCTYPE svg PUBLIC "-//W3C//DTD SVG 1.1//EN"
  "http://www.w3.org/Graphics/SVG/1.1/DTD/svg11.dtd">
<!-- Created with matplotlib (https://matplotlib.org/) -->
<svg height="345.6pt" version="1.1" viewBox="0 0 460.8 345.6" width="460.8pt" xmlns="http://www.w3.org/2000/svg" xmlns:xlink="http://www.w3.org/1999/xlink">
 <metadata>
  <rdf:RDF xmlns:cc="http://creativecommons.org/ns#" xmlns:dc="http://purl.org/dc/elements/1.1/" xmlns:rdf="http://www.w3.org/1999/02/22-rdf-syntax-ns#">
   <cc:Work>
    <dc:type rdf:resource="http://purl.org/dc/dcmitype/StillImage"/>
    <dc:date>2021-03-07T19:00:13.403935</dc:date>
    <dc:format>image/svg+xml</dc:format>
    <dc:creator>
     <cc:Agent>
      <dc:title>Matplotlib v3.3.2, https://matplotlib.org/</dc:title>
     </cc:Agent>
    </dc:creator>
   </cc:Work>
  </rdf:RDF>
 </metadata>
 <defs>
  <style type="text/css">*{stroke-linecap:butt;stroke-linejoin:round;}</style>
 </defs>
 <g id="figure_1">
  <g id="patch_1">
   <path d="M 0 345.6 
L 460.8 345.6 
L 460.8 0 
L 0 0 
z
" style="fill:#ffffff;"/>
  </g>
  <g id="axes_1">
   <g id="patch_2">
    <path d="M 57.6 307.584 
L 414.72 307.584 
L 414.72 41.472 
L 57.6 41.472 
z
" style="fill:#ffffff;"/>
   </g>
   <g id="matplotlib.axis_1">
    <g id="xtick_1">
     <g id="line2d_1">
      <defs>
       <path d="M 0 0 
L 0 3.5 
" id="m15f470e788" style="stroke:#000000;stroke-width:0.8;"/>
      </defs>
      <g>
       <use style="stroke:#000000;stroke-width:0.8;" x="73.832727" xlink:href="#m15f470e788" y="307.584"/>
      </g>
     </g>
     <g id="text_1">
      <!-- 2020-01 -->
      <g transform="translate(52.941321 322.182437)scale(0.1 -0.1)">
       <defs>
        <path d="M 19.1875 8.296875 
L 53.609375 8.296875 
L 53.609375 0 
L 7.328125 0 
L 7.328125 8.296875 
Q 12.9375 14.109375 22.625 23.890625 
Q 32.328125 33.6875 34.8125 36.53125 
Q 39.546875 41.84375 41.421875 45.53125 
Q 43.3125 49.21875 43.3125 52.78125 
Q 43.3125 58.59375 39.234375 62.25 
Q 35.15625 65.921875 28.609375 65.921875 
Q 23.96875 65.921875 18.8125 64.3125 
Q 13.671875 62.703125 7.8125 59.421875 
L 7.8125 69.390625 
Q 13.765625 71.78125 18.9375 73 
Q 24.125 74.21875 28.421875 74.21875 
Q 39.75 74.21875 46.484375 68.546875 
Q 53.21875 62.890625 53.21875 53.421875 
Q 53.21875 48.921875 51.53125 44.890625 
Q 49.859375 40.875 45.40625 35.40625 
Q 44.1875 33.984375 37.640625 27.21875 
Q 31.109375 20.453125 19.1875 8.296875 
z
" id="DejaVuSans-50"/>
        <path d="M 31.78125 66.40625 
Q 24.171875 66.40625 20.328125 58.90625 
Q 16.5 51.421875 16.5 36.375 
Q 16.5 21.390625 20.328125 13.890625 
Q 24.171875 6.390625 31.78125 6.390625 
Q 39.453125 6.390625 43.28125 13.890625 
Q 47.125 21.390625 47.125 36.375 
Q 47.125 51.421875 43.28125 58.90625 
Q 39.453125 66.40625 31.78125 66.40625 
z
M 31.78125 74.21875 
Q 44.046875 74.21875 50.515625 64.515625 
Q 56.984375 54.828125 56.984375 36.375 
Q 56.984375 17.96875 50.515625 8.265625 
Q 44.046875 -1.421875 31.78125 -1.421875 
Q 19.53125 -1.421875 13.0625 8.265625 
Q 6.59375 17.96875 6.59375 36.375 
Q 6.59375 54.828125 13.0625 64.515625 
Q 19.53125 74.21875 31.78125 74.21875 
z
" id="DejaVuSans-48"/>
        <path d="M 4.890625 31.390625 
L 31.203125 31.390625 
L 31.203125 23.390625 
L 4.890625 23.390625 
z
" id="DejaVuSans-45"/>
        <path d="M 12.40625 8.296875 
L 28.515625 8.296875 
L 28.515625 63.921875 
L 10.984375 60.40625 
L 10.984375 69.390625 
L 28.421875 72.90625 
L 38.28125 72.90625 
L 38.28125 8.296875 
L 54.390625 8.296875 
L 54.390625 0 
L 12.40625 0 
z
" id="DejaVuSans-49"/>
       </defs>
       <use xlink:href="#DejaVuSans-50"/>
       <use x="63.623047" xlink:href="#DejaVuSans-48"/>
       <use x="127.246094" xlink:href="#DejaVuSans-50"/>
       <use x="190.869141" xlink:href="#DejaVuSans-48"/>
       <use x="254.492188" xlink:href="#DejaVuSans-45"/>
       <use x="290.576172" xlink:href="#DejaVuSans-48"/>
       <use x="354.199219" xlink:href="#DejaVuSans-49"/>
      </g>
     </g>
    </g>
    <g id="xtick_2">
     <g id="line2d_2">
      <g>
       <use style="stroke:#000000;stroke-width:0.8;" x="119.028256" xlink:href="#m15f470e788" y="307.584"/>
      </g>
     </g>
     <g id="text_2">
      <!-- 2020-03 -->
      <g transform="translate(98.136849 322.182437)scale(0.1 -0.1)">
       <defs>
        <path d="M 40.578125 39.3125 
Q 47.65625 37.796875 51.625 33 
Q 55.609375 28.21875 55.609375 21.1875 
Q 55.609375 10.40625 48.1875 4.484375 
Q 40.765625 -1.421875 27.09375 -1.421875 
Q 22.515625 -1.421875 17.65625 -0.515625 
Q 12.796875 0.390625 7.625 2.203125 
L 7.625 11.71875 
Q 11.71875 9.328125 16.59375 8.109375 
Q 21.484375 6.890625 26.8125 6.890625 
Q 36.078125 6.890625 40.9375 10.546875 
Q 45.796875 14.203125 45.796875 21.1875 
Q 45.796875 27.640625 41.28125 31.265625 
Q 36.765625 34.90625 28.71875 34.90625 
L 20.21875 34.90625 
L 20.21875 43.015625 
L 29.109375 43.015625 
Q 36.375 43.015625 40.234375 45.921875 
Q 44.09375 48.828125 44.09375 54.296875 
Q 44.09375 59.90625 40.109375 62.90625 
Q 36.140625 65.921875 28.71875 65.921875 
Q 24.65625 65.921875 20.015625 65.03125 
Q 15.375 64.15625 9.8125 62.3125 
L 9.8125 71.09375 
Q 15.4375 72.65625 20.34375 73.4375 
Q 25.25 74.21875 29.59375 74.21875 
Q 40.828125 74.21875 47.359375 69.109375 
Q 53.90625 64.015625 53.90625 55.328125 
Q 53.90625 49.265625 50.4375 45.09375 
Q 46.96875 40.921875 40.578125 39.3125 
z
" id="DejaVuSans-51"/>
       </defs>
       <use xlink:href="#DejaVuSans-50"/>
       <use x="63.623047" xlink:href="#DejaVuSans-48"/>
       <use x="127.246094" xlink:href="#DejaVuSans-50"/>
       <use x="190.869141" xlink:href="#DejaVuSans-48"/>
       <use x="254.492188" xlink:href="#DejaVuSans-45"/>
       <use x="290.576172" xlink:href="#DejaVuSans-48"/>
       <use x="354.199219" xlink:href="#DejaVuSans-51"/>
      </g>
     </g>
    </g>
    <g id="xtick_3">
     <g id="line2d_3">
      <g>
       <use style="stroke:#000000;stroke-width:0.8;" x="164.977043" xlink:href="#m15f470e788" y="307.584"/>
      </g>
     </g>
     <g id="text_3">
      <!-- 2020-05 -->
      <g transform="translate(144.085637 322.182437)scale(0.1 -0.1)">
       <defs>
        <path d="M 10.796875 72.90625 
L 49.515625 72.90625 
L 49.515625 64.59375 
L 19.828125 64.59375 
L 19.828125 46.734375 
Q 21.96875 47.46875 24.109375 47.828125 
Q 26.265625 48.1875 28.421875 48.1875 
Q 40.625 48.1875 47.75 41.5 
Q 54.890625 34.8125 54.890625 23.390625 
Q 54.890625 11.625 47.5625 5.09375 
Q 40.234375 -1.421875 26.90625 -1.421875 
Q 22.3125 -1.421875 17.546875 -0.640625 
Q 12.796875 0.140625 7.71875 1.703125 
L 7.71875 11.625 
Q 12.109375 9.234375 16.796875 8.0625 
Q 21.484375 6.890625 26.703125 6.890625 
Q 35.15625 6.890625 40.078125 11.328125 
Q 45.015625 15.765625 45.015625 23.390625 
Q 45.015625 31 40.078125 35.4375 
Q 35.15625 39.890625 26.703125 39.890625 
Q 22.75 39.890625 18.8125 39.015625 
Q 14.890625 38.140625 10.796875 36.28125 
z
" id="DejaVuSans-53"/>
       </defs>
       <use xlink:href="#DejaVuSans-50"/>
       <use x="63.623047" xlink:href="#DejaVuSans-48"/>
       <use x="127.246094" xlink:href="#DejaVuSans-50"/>
       <use x="190.869141" xlink:href="#DejaVuSans-48"/>
       <use x="254.492188" xlink:href="#DejaVuSans-45"/>
       <use x="290.576172" xlink:href="#DejaVuSans-48"/>
       <use x="354.199219" xlink:href="#DejaVuSans-53"/>
      </g>
     </g>
    </g>
    <g id="xtick_4">
     <g id="line2d_4">
      <g>
       <use style="stroke:#000000;stroke-width:0.8;" x="210.92583" xlink:href="#m15f470e788" y="307.584"/>
      </g>
     </g>
     <g id="text_4">
      <!-- 2020-07 -->
      <g transform="translate(190.034424 322.182437)scale(0.1 -0.1)">
       <defs>
        <path d="M 8.203125 72.90625 
L 55.078125 72.90625 
L 55.078125 68.703125 
L 28.609375 0 
L 18.3125 0 
L 43.21875 64.59375 
L 8.203125 64.59375 
z
" id="DejaVuSans-55"/>
       </defs>
       <use xlink:href="#DejaVuSans-50"/>
       <use x="63.623047" xlink:href="#DejaVuSans-48"/>
       <use x="127.246094" xlink:href="#DejaVuSans-50"/>
       <use x="190.869141" xlink:href="#DejaVuSans-48"/>
       <use x="254.492188" xlink:href="#DejaVuSans-45"/>
       <use x="290.576172" xlink:href="#DejaVuSans-48"/>
       <use x="354.199219" xlink:href="#DejaVuSans-55"/>
      </g>
     </g>
    </g>
    <g id="xtick_5">
     <g id="line2d_5">
      <g>
       <use style="stroke:#000000;stroke-width:0.8;" x="257.627876" xlink:href="#m15f470e788" y="307.584"/>
      </g>
     </g>
     <g id="text_5">
      <!-- 2020-09 -->
      <g transform="translate(236.73647 322.182437)scale(0.1 -0.1)">
       <defs>
        <path d="M 10.984375 1.515625 
L 10.984375 10.5 
Q 14.703125 8.734375 18.5 7.8125 
Q 22.3125 6.890625 25.984375 6.890625 
Q 35.75 6.890625 40.890625 13.453125 
Q 46.046875 20.015625 46.78125 33.40625 
Q 43.953125 29.203125 39.59375 26.953125 
Q 35.25 24.703125 29.984375 24.703125 
Q 19.046875 24.703125 12.671875 31.3125 
Q 6.296875 37.9375 6.296875 49.421875 
Q 6.296875 60.640625 12.9375 67.421875 
Q 19.578125 74.21875 30.609375 74.21875 
Q 43.265625 74.21875 49.921875 64.515625 
Q 56.59375 54.828125 56.59375 36.375 
Q 56.59375 19.140625 48.40625 8.859375 
Q 40.234375 -1.421875 26.421875 -1.421875 
Q 22.703125 -1.421875 18.890625 -0.6875 
Q 15.09375 0.046875 10.984375 1.515625 
z
M 30.609375 32.421875 
Q 37.25 32.421875 41.125 36.953125 
Q 45.015625 41.5 45.015625 49.421875 
Q 45.015625 57.28125 41.125 61.84375 
Q 37.25 66.40625 30.609375 66.40625 
Q 23.96875 66.40625 20.09375 61.84375 
Q 16.21875 57.28125 16.21875 49.421875 
Q 16.21875 41.5 20.09375 36.953125 
Q 23.96875 32.421875 30.609375 32.421875 
z
" id="DejaVuSans-57"/>
       </defs>
       <use xlink:href="#DejaVuSans-50"/>
       <use x="63.623047" xlink:href="#DejaVuSans-48"/>
       <use x="127.246094" xlink:href="#DejaVuSans-50"/>
       <use x="190.869141" xlink:href="#DejaVuSans-48"/>
       <use x="254.492188" xlink:href="#DejaVuSans-45"/>
       <use x="290.576172" xlink:href="#DejaVuSans-48"/>
       <use x="354.199219" xlink:href="#DejaVuSans-57"/>
      </g>
     </g>
    </g>
    <g id="xtick_6">
     <g id="line2d_6">
      <g>
       <use style="stroke:#000000;stroke-width:0.8;" x="303.576663" xlink:href="#m15f470e788" y="307.584"/>
      </g>
     </g>
     <g id="text_6">
      <!-- 2020-11 -->
      <g transform="translate(282.685257 322.182437)scale(0.1 -0.1)">
       <use xlink:href="#DejaVuSans-50"/>
       <use x="63.623047" xlink:href="#DejaVuSans-48"/>
       <use x="127.246094" xlink:href="#DejaVuSans-50"/>
       <use x="190.869141" xlink:href="#DejaVuSans-48"/>
       <use x="254.492188" xlink:href="#DejaVuSans-45"/>
       <use x="290.576172" xlink:href="#DejaVuSans-49"/>
       <use x="354.199219" xlink:href="#DejaVuSans-49"/>
      </g>
     </g>
    </g>
    <g id="xtick_7">
     <g id="line2d_7">
      <g>
       <use style="stroke:#000000;stroke-width:0.8;" x="349.52545" xlink:href="#m15f470e788" y="307.584"/>
      </g>
     </g>
     <g id="text_7">
      <!-- 2021-01 -->
      <g transform="translate(328.634044 322.182437)scale(0.1 -0.1)">
       <use xlink:href="#DejaVuSans-50"/>
       <use x="63.623047" xlink:href="#DejaVuSans-48"/>
       <use x="127.246094" xlink:href="#DejaVuSans-50"/>
       <use x="190.869141" xlink:href="#DejaVuSans-49"/>
       <use x="254.492188" xlink:href="#DejaVuSans-45"/>
       <use x="290.576172" xlink:href="#DejaVuSans-48"/>
       <use x="354.199219" xlink:href="#DejaVuSans-49"/>
      </g>
     </g>
    </g>
    <g id="xtick_8">
     <g id="line2d_8">
      <g>
       <use style="stroke:#000000;stroke-width:0.8;" x="393.96772" xlink:href="#m15f470e788" y="307.584"/>
      </g>
     </g>
     <g id="text_8">
      <!-- 2021-03 -->
      <g transform="translate(373.076314 322.182437)scale(0.1 -0.1)">
       <use xlink:href="#DejaVuSans-50"/>
       <use x="63.623047" xlink:href="#DejaVuSans-48"/>
       <use x="127.246094" xlink:href="#DejaVuSans-50"/>
       <use x="190.869141" xlink:href="#DejaVuSans-49"/>
       <use x="254.492188" xlink:href="#DejaVuSans-45"/>
       <use x="290.576172" xlink:href="#DejaVuSans-48"/>
       <use x="354.199219" xlink:href="#DejaVuSans-51"/>
      </g>
     </g>
    </g>
   </g>
   <g id="matplotlib.axis_2">
    <g id="ytick_1">
     <g id="line2d_9">
      <defs>
       <path d="M 0 0 
L -3.5 0 
" id="m446ad073f3" style="stroke:#000000;stroke-width:0.8;"/>
      </defs>
      <g>
       <use style="stroke:#000000;stroke-width:0.8;" x="57.6" xlink:href="#m446ad073f3" y="292.830176"/>
      </g>
     </g>
     <g id="text_9">
      <!-- −1000 -->
      <g transform="translate(16.770313 296.629395)scale(0.1 -0.1)">
       <defs>
        <path d="M 10.59375 35.5 
L 73.1875 35.5 
L 73.1875 27.203125 
L 10.59375 27.203125 
z
" id="DejaVuSans-8722"/>
       </defs>
       <use xlink:href="#DejaVuSans-8722"/>
       <use x="83.789062" xlink:href="#DejaVuSans-49"/>
       <use x="147.412109" xlink:href="#DejaVuSans-48"/>
       <use x="211.035156" xlink:href="#DejaVuSans-48"/>
       <use x="274.658203" xlink:href="#DejaVuSans-48"/>
      </g>
     </g>
    </g>
    <g id="ytick_2">
     <g id="line2d_10">
      <g>
       <use style="stroke:#000000;stroke-width:0.8;" x="57.6" xlink:href="#m446ad073f3" y="254.953134"/>
      </g>
     </g>
     <g id="text_10">
      <!-- 0 -->
      <g transform="translate(44.2375 258.752353)scale(0.1 -0.1)">
       <use xlink:href="#DejaVuSans-48"/>
      </g>
     </g>
    </g>
    <g id="ytick_3">
     <g id="line2d_11">
      <g>
       <use style="stroke:#000000;stroke-width:0.8;" x="57.6" xlink:href="#m446ad073f3" y="217.076092"/>
      </g>
     </g>
     <g id="text_11">
      <!-- 1000 -->
      <g transform="translate(25.15 220.87531)scale(0.1 -0.1)">
       <use xlink:href="#DejaVuSans-49"/>
       <use x="63.623047" xlink:href="#DejaVuSans-48"/>
       <use x="127.246094" xlink:href="#DejaVuSans-48"/>
       <use x="190.869141" xlink:href="#DejaVuSans-48"/>
      </g>
     </g>
    </g>
    <g id="ytick_4">
     <g id="line2d_12">
      <g>
       <use style="stroke:#000000;stroke-width:0.8;" x="57.6" xlink:href="#m446ad073f3" y="179.199049"/>
      </g>
     </g>
     <g id="text_12">
      <!-- 2000 -->
      <g transform="translate(25.15 182.998268)scale(0.1 -0.1)">
       <use xlink:href="#DejaVuSans-50"/>
       <use x="63.623047" xlink:href="#DejaVuSans-48"/>
       <use x="127.246094" xlink:href="#DejaVuSans-48"/>
       <use x="190.869141" xlink:href="#DejaVuSans-48"/>
      </g>
     </g>
    </g>
    <g id="ytick_5">
     <g id="line2d_13">
      <g>
       <use style="stroke:#000000;stroke-width:0.8;" x="57.6" xlink:href="#m446ad073f3" y="141.322007"/>
      </g>
     </g>
     <g id="text_13">
      <!-- 3000 -->
      <g transform="translate(25.15 145.121226)scale(0.1 -0.1)">
       <use xlink:href="#DejaVuSans-51"/>
       <use x="63.623047" xlink:href="#DejaVuSans-48"/>
       <use x="127.246094" xlink:href="#DejaVuSans-48"/>
       <use x="190.869141" xlink:href="#DejaVuSans-48"/>
      </g>
     </g>
    </g>
    <g id="ytick_6">
     <g id="line2d_14">
      <g>
       <use style="stroke:#000000;stroke-width:0.8;" x="57.6" xlink:href="#m446ad073f3" y="103.444965"/>
      </g>
     </g>
     <g id="text_14">
      <!-- 4000 -->
      <g transform="translate(25.15 107.244184)scale(0.1 -0.1)">
       <defs>
        <path d="M 37.796875 64.3125 
L 12.890625 25.390625 
L 37.796875 25.390625 
z
M 35.203125 72.90625 
L 47.609375 72.90625 
L 47.609375 25.390625 
L 58.015625 25.390625 
L 58.015625 17.1875 
L 47.609375 17.1875 
L 47.609375 0 
L 37.796875 0 
L 37.796875 17.1875 
L 4.890625 17.1875 
L 4.890625 26.703125 
z
" id="DejaVuSans-52"/>
       </defs>
       <use xlink:href="#DejaVuSans-52"/>
       <use x="63.623047" xlink:href="#DejaVuSans-48"/>
       <use x="127.246094" xlink:href="#DejaVuSans-48"/>
       <use x="190.869141" xlink:href="#DejaVuSans-48"/>
      </g>
     </g>
    </g>
    <g id="ytick_7">
     <g id="line2d_15">
      <g>
       <use style="stroke:#000000;stroke-width:0.8;" x="57.6" xlink:href="#m446ad073f3" y="65.567923"/>
      </g>
     </g>
     <g id="text_15">
      <!-- 5000 -->
      <g transform="translate(25.15 69.367142)scale(0.1 -0.1)">
       <use xlink:href="#DejaVuSans-53"/>
       <use x="63.623047" xlink:href="#DejaVuSans-48"/>
       <use x="127.246094" xlink:href="#DejaVuSans-48"/>
       <use x="190.869141" xlink:href="#DejaVuSans-48"/>
      </g>
     </g>
    </g>
   </g>
   <g id="line2d_16">
    <path clip-path="url(#p614761998d)" d="M 73.832727 254.953134 
L 398.487273 254.953134 
L 398.487273 254.953134 
" style="fill:none;stroke:#1f77b4;stroke-dasharray:5.55,2.4;stroke-dashoffset:0;stroke-width:1.5;"/>
   </g>
   <g id="line2d_17">
    <path clip-path="url(#p614761998d)" d="M 73.832727 254.953134 
L 74.585986 255.635768 
L 76.092504 254.516831 
L 76.845762 254.127851 
L 77.599021 252.633831 
L 78.35228 250.261433 
L 79.105539 248.837312 
L 79.858798 248.448957 
L 80.612057 247.123368 
L 81.365315 246.67209 
L 82.118574 245.940405 
L 82.871833 245.674503 
L 83.625092 243.499542 
L 84.378351 241.933289 
L 85.131609 241.088691 
L 85.884868 240.051949 
L 86.638127 239.379331 
L 87.391386 239.640058 
L 88.144645 240.20078 
L 88.897903 240.522708 
L 89.651162 241.15996 
L 90.404421 242.569346 
L 91.910939 245.017478 
L 92.664197 245.381923 
L 93.417456 244.898723 
L 94.170715 243.181365 
L 94.923974 242.236567 
L 95.677233 241.025327 
L 97.18375 240.54297 
L 97.937009 240.684495 
L 98.690268 241.057347 
L 99.443527 241.863272 
L 100.196785 241.324594 
L 101.703303 240.067594 
L 102.456562 239.559774 
L 103.209821 238.557048 
L 103.96308 238.830905 
L 105.469597 237.386743 
L 106.222856 237.374406 
L 106.976115 237.217377 
L 109.235891 241.609065 
L 109.98915 241.739507 
L 110.742409 243.690911 
L 111.495668 245.320142 
L 113.002185 247.64534 
L 113.755444 247.69439 
L 114.508703 248.715184 
L 115.261962 250.634774 
L 116.01522 253.744108 
L 117.521738 258.381793 
L 118.274997 260.53957 
L 119.028256 262.173966 
L 119.781514 262.241352 
L 120.534773 262.678469 
L 121.288032 262.88467 
L 122.041291 262.110357 
L 122.79455 261.164518 
L 123.547808 261.037594 
L 125.054326 265.588066 
L 125.807585 267.196582 
L 126.560844 268.230532 
L 127.314103 278.063545 
L 128.82062 288.265754 
L 130.327138 294.403254 
L 131.080397 295.360003 
L 131.833655 295.488 
L 133.340173 290.178161 
L 134.093432 287.796635 
L 134.846691 286.671707 
L 137.859726 274.204962 
L 138.612985 272.95932 
L 139.366243 272.111624 
L 140.119502 272.373713 
L 142.379279 267.327765 
L 143.132537 265.170665 
L 144.639055 261.821931 
L 145.392314 260.658292 
L 146.145573 258.000379 
L 148.405349 253.240241 
L 149.911867 253.722978 
L 150.665126 253.823702 
L 152.171643 254.281321 
L 152.924902 255.117909 
L 153.678161 254.355745 
L 154.43142 254.016308 
L 155.184678 253.077416 
L 155.937937 252.735335 
L 156.691196 253.352762 
L 157.444455 253.809808 
L 158.197714 253.360078 
L 158.950972 251.972862 
L 161.964008 247.671752 
L 162.717266 246.982933 
L 163.470525 243.461419 
L 165.730302 237.103555 
L 166.48356 235.938476 
L 167.990078 234.666387 
L 168.743337 233.953232 
L 169.496596 231.164981 
L 170.249854 229.7939 
L 171.003113 229.720329 
L 172.509631 235.297701 
L 173.26289 237.096941 
L 174.016148 237.19246 
L 174.769407 236.049554 
L 175.522666 236.817485 
L 176.275925 237.421024 
L 177.029184 237.231717 
L 178.535701 237.10515 
L 179.28896 238.065852 
L 180.042219 240.32635 
L 181.548737 243.362959 
L 182.301995 245.975121 
L 183.808513 249.155784 
L 184.561772 249.312652 
L 185.315031 248.419502 
L 186.068289 248.222473 
L 186.821548 247.332195 
L 187.574807 247.452433 
L 188.328066 245.375321 
L 189.081325 245.831918 
L 189.834583 245.912041 
L 190.587842 245.735544 
L 192.09436 246.413346 
L 194.354136 246.788968 
L 195.107395 246.690186 
L 195.860654 248.498007 
L 198.12043 251.296362 
L 198.873689 251.942868 
L 199.626948 252.131029 
L 200.380207 252.533698 
L 201.133466 253.094363 
L 201.886724 253.797026 
L 202.639983 254.213449 
L 203.393242 254.75803 
L 204.146501 254.045297 
L 204.89976 253.659352 
L 206.406277 254.965396 
L 207.159536 255.752868 
L 207.912795 256.819045 
L 208.666054 257.313322 
L 210.172571 257.700631 
L 210.92583 257.58105 
L 212.432348 258.137046 
L 213.185606 258.101426 
L 213.938865 258.210488 
L 214.692124 257.50139 
L 215.445383 257.123589 
L 216.198642 256.324534 
L 218.458418 255.953422 
L 219.211677 255.725964 
L 221.471453 255.826299 
L 222.977971 256.200282 
L 223.73123 256.233258 
L 224.484489 256.133147 
L 225.237747 256.188416 
L 225.991006 255.570369 
L 227.497524 253.638128 
L 228.250783 253.091971 
L 229.004041 252.175885 
L 229.7573 250.812487 
L 230.510559 246.560457 
L 232.017077 240.802983 
L 233.523594 236.60024 
L 234.276853 233.763186 
L 235.030112 234.046719 
L 235.783371 233.94353 
L 236.536629 234.280897 
L 237.289888 233.131368 
L 238.043147 232.356294 
L 238.796406 232.447507 
L 239.549665 232.345568 
L 240.302923 232.769854 
L 241.056182 232.725668 
L 241.809441 234.432407 
L 242.5627 235.509538 
L 243.315959 235.941733 
L 244.069217 236.541472 
L 245.575735 237.323127 
L 246.328994 236.699195 
L 247.082253 237.441595 
L 247.835511 238.648613 
L 248.58877 239.589889 
L 249.342029 241.410212 
L 250.848547 243.794159 
L 251.601806 244.514531 
L 252.355064 246.485326 
L 253.861582 249.164393 
L 255.3681 250.512507 
L 256.121358 250.393769 
L 256.874617 250.478833 
L 257.627876 249.802284 
L 258.381135 250.863153 
L 259.134394 255.42297 
L 260.640911 261.158891 
L 261.39417 263.165598 
L 262.147429 264.303926 
L 262.900688 265.830929 
L 263.653946 266.645221 
L 264.407205 266.771838 
L 265.160464 266.609785 
L 265.913723 266.190982 
L 266.666982 266.060996 
L 267.42024 264.829868 
L 268.173499 263.384757 
L 268.926758 261.649824 
L 271.186534 257.759465 
L 271.939793 257.125695 
L 272.693052 258.076588 
L 273.446311 258.447178 
L 274.19957 259.605423 
L 274.952829 259.002921 
L 276.459346 258.13978 
L 277.212605 257.612946 
L 277.965864 257.434136 
L 278.719123 256.825335 
L 279.472381 256.488847 
L 280.978899 256.924921 
L 281.732158 257.167284 
L 282.485417 256.972021 
L 283.238675 256.492468 
L 283.991934 256.56358 
L 284.745193 256.469403 
L 286.251711 254.5661 
L 288.511487 249.968375 
L 289.264746 249.053045 
L 290.771263 247.798748 
L 292.277781 247.982478 
L 293.03104 247.672855 
L 293.784299 246.818349 
L 294.537557 245.72821 
L 296.044075 239.233722 
L 297.550593 235.17143 
L 298.303852 234.066723 
L 299.05711 233.308375 
L 299.810369 231.184636 
L 300.563628 230.925592 
L 302.070146 230.055564 
L 302.823404 229.339452 
L 303.576663 229.177071 
L 304.329922 229.94242 
L 305.083181 229.568853 
L 305.83644 229.034787 
L 306.589698 224.720482 
L 307.342957 221.607103 
L 308.096216 221.787345 
L 308.849475 220.365962 
L 309.602734 219.966659 
L 310.355992 220.22549 
L 311.109251 219.608634 
L 311.86251 217.787267 
L 312.615769 216.731693 
L 313.369028 217.026484 
L 314.122286 218.027879 
L 314.875545 217.01319 
L 315.628804 213.760315 
L 316.382063 211.295297 
L 317.135322 209.753317 
L 317.88858 206.510906 
L 318.641839 204.528965 
L 319.395098 204.346865 
L 320.148357 204.860257 
L 320.901616 203.6751 
L 321.654874 204.432985 
L 323.161392 215.42523 
L 323.914651 218.152732 
L 324.66791 219.345604 
L 325.421169 216.209553 
L 326.174427 216.938028 
L 327.680945 216.132648 
L 328.434204 218.412933 
L 329.187463 219.187151 
L 329.940721 219.530649 
L 330.69398 220.784053 
L 331.447239 224.728897 
L 332.200498 227.459994 
L 333.707015 234.4615 
L 334.460274 235.159792 
L 335.966792 234.658556 
L 336.720051 234.181796 
L 337.473309 228.338932 
L 338.979827 212.177904 
L 339.733086 204.723616 
L 340.486345 200.357966 
L 341.239603 199.854755 
L 341.992862 196.713351 
L 342.746121 196.690719 
L 343.49938 195.945071 
L 344.252639 193.186928 
L 345.005897 186.426447 
L 345.759156 182.377188 
L 346.512415 177.624849 
L 347.265674 173.931574 
L 348.018933 167.465973 
L 348.772192 162.937491 
L 349.52545 159.318012 
L 351.031968 139.719092 
L 351.785227 136.638992 
L 352.538486 129.620986 
L 353.291744 117.299141 
L 354.798262 85.42093 
L 355.551521 77.06184 
L 356.30478 78.644502 
L 357.058038 89.90467 
L 357.811297 104.156494 
L 358.564556 109.025011 
L 359.317815 108.588513 
L 360.071074 116.698534 
L 361.577591 137.374827 
L 362.33085 144.481176 
L 363.837368 162.452006 
L 364.590626 184.321217 
L 366.097144 209.460618 
L 366.850403 219.455324 
L 367.603662 227.515822 
L 368.35692 233.655691 
L 369.110179 244.773718 
L 369.863438 244.799023 
L 370.616697 242.474652 
L 371.369956 240.90954 
L 372.123215 243.219112 
L 372.876473 243.971068 
L 373.629732 238.795535 
L 374.382991 228.942258 
L 375.13625 222.902917 
L 375.889509 215.728835 
L 376.642767 206.758761 
L 377.396026 201.502721 
L 378.149285 175.464956 
L 378.902544 156.021449 
L 379.655803 146.037958 
L 380.409061 130.297406 
L 381.16232 120.785689 
L 381.915579 115.608845 
L 382.668838 109.010723 
L 383.422097 107.085938 
L 384.175355 103.178273 
L 384.928614 93.294664 
L 385.681873 88.822259 
L 386.435132 73.891609 
L 387.941649 53.568 
L 388.694908 58.100475 
L 393.214461 176.451663 
L 393.96772 179.244308 
L 394.720979 185.553352 
L 395.474238 185.962006 
L 396.227496 191.967641 
L 397.734014 201.496635 
L 398.487273 199.823302 
L 398.487273 199.823302 
" style="fill:none;stroke:#0000ff;stroke-linecap:square;stroke-width:1.5;"/>
   </g>
   <g id="line2d_18">
    <path clip-path="url(#p614761998d)" d="M 73.832727 254.953134 
L 74.585986 255.089661 
L 76.092504 254.9651 
L 76.845762 254.79765 
L 77.599021 254.364886 
L 79.858798 251.772046 
L 81.365315 250.008267 
L 83.625092 247.492433 
L 85.884868 244.268167 
L 86.638127 243.2904 
L 87.391386 242.560331 
L 88.144645 242.088421 
L 88.897903 241.775278 
L 89.651162 241.652215 
L 90.404421 241.835641 
L 91.15768 242.209015 
L 92.664197 243.292951 
L 93.417456 243.614105 
L 94.170715 243.527557 
L 94.923974 243.269359 
L 97.18375 242.030344 
L 97.937009 241.761175 
L 98.690268 241.620409 
L 99.443527 241.668982 
L 100.196785 241.600104 
L 101.703303 241.138799 
L 102.456562 240.822994 
L 103.209821 240.369805 
L 104.716338 239.663335 
L 106.222856 238.841294 
L 106.976115 238.516511 
L 107.729374 238.53714 
L 108.482632 238.795972 
L 110.742409 240.606001 
L 115.261962 246.331843 
L 116.768479 249.48598 
L 119.781514 256.392923 
L 121.288032 258.69696 
L 122.041291 259.379639 
L 123.547808 259.996811 
L 124.301067 260.691282 
L 125.807585 262.775827 
L 126.560844 263.866768 
L 127.314103 266.706124 
L 128.82062 273.656879 
L 130.327138 280.64527 
L 131.080397 283.588216 
L 131.833655 285.968173 
L 132.586914 287.316192 
L 133.340173 287.888586 
L 134.093432 287.870196 
L 134.846691 287.630498 
L 135.599949 286.797368 
L 136.353208 285.401317 
L 139.366243 278.446537 
L 141.62602 274.621578 
L 143.132537 271.564385 
L 146.898831 263.297657 
L 148.405349 259.871976 
L 149.158608 258.604265 
L 149.911867 257.628008 
L 150.665126 256.867147 
L 151.418384 256.312594 
L 152.171643 255.906339 
L 152.924902 255.748653 
L 154.43142 255.179319 
L 155.937937 254.354217 
L 156.691196 254.153926 
L 158.197714 253.940098 
L 158.950972 253.546651 
L 160.45749 252.395727 
L 162.717266 250.091654 
L 164.223784 247.266257 
L 167.236819 240.932968 
L 169.496596 237.060491 
L 170.249854 235.607173 
L 171.003113 234.429804 
L 171.756372 234.028888 
L 172.509631 234.282651 
L 174.016148 235.314899 
L 174.769407 235.46183 
L 177.782443 236.476259 
L 178.535701 236.602037 
L 179.28896 236.8948 
L 180.042219 237.58111 
L 181.548737 239.435569 
L 184.561772 244.679453 
L 185.315031 245.427463 
L 186.068289 245.986465 
L 187.574807 246.494975 
L 188.328066 246.271044 
L 190.587842 246.050295 
L 192.09436 246.136465 
L 195.107395 246.451905 
L 196.613913 247.372212 
L 198.12043 248.610535 
L 199.626948 249.847807 
L 203.393242 252.58633 
L 204.146501 252.878123 
L 205.653018 253.285736 
L 207.159536 254.047908 
L 209.419312 255.610428 
L 210.92583 256.338985 
L 213.185606 257.173717 
L 213.938865 257.381071 
L 215.445383 257.348826 
L 219.211677 256.425603 
L 221.471453 256.099877 
L 225.991006 256.031612 
L 226.744265 255.747626 
L 228.250783 254.878975 
L 229.004041 254.338357 
L 229.7573 253.633183 
L 230.510559 252.218638 
L 232.017077 248.547518 
L 235.030112 240.756787 
L 235.783371 239.394135 
L 238.043147 236.33003 
L 239.549665 234.911934 
L 241.056182 234.131948 
L 241.809441 234.19204 
L 243.315959 234.752778 
L 245.575735 235.847281 
L 246.328994 236.017664 
L 247.082253 236.30245 
L 248.58877 237.335324 
L 250.095288 239.046167 
L 252.355064 242.01668 
L 255.3681 246.469994 
L 256.874617 247.899566 
L 257.627876 248.28011 
L 258.381135 248.796718 
L 259.134394 250.121969 
L 259.887652 251.728057 
L 262.900688 258.990493 
L 263.653946 260.521439 
L 264.407205 261.771519 
L 265.160464 262.739172 
L 265.913723 263.429534 
L 266.666982 263.955826 
L 267.42024 264.130635 
L 268.173499 263.981459 
L 268.926758 263.515132 
L 270.433276 262.125097 
L 271.939793 260.426715 
L 272.693052 259.95669 
L 273.446311 259.654787 
L 274.19957 259.644915 
L 275.706087 259.332252 
L 277.965864 258.524904 
L 280.22564 257.611865 
L 281.732158 257.413037 
L 283.991934 257.039405 
L 284.745193 256.925404 
L 285.498452 256.659956 
L 286.251711 256.241185 
L 287.004969 255.5927 
L 288.511487 253.82106 
L 290.018005 251.987529 
L 290.771263 251.149772 
L 292.277781 250.0005 
L 293.784299 248.991647 
L 294.537557 248.338959 
L 295.290816 247.140406 
L 297.550593 242.14015 
L 299.810369 237.502565 
L 301.316887 235.038332 
L 302.823404 233.101313 
L 303.576663 232.316465 
L 305.83644 230.916634 
L 306.589698 229.677403 
L 307.342957 228.063343 
L 309.602734 224.409098 
L 311.86251 221.781155 
L 312.615769 220.771263 
L 313.369028 220.022307 
L 314.875545 219.101375 
L 315.628804 218.033163 
L 317.135322 215.299135 
L 319.395098 210.260561 
L 320.901616 208.07942 
L 321.654874 207.350133 
L 322.408133 207.930363 
L 323.914651 211.174016 
L 324.66791 212.808333 
L 326.174427 214.178467 
L 326.927686 214.65926 
L 327.680945 214.953938 
L 330.69398 217.748287 
L 331.447239 219.144409 
L 332.200498 220.807526 
L 335.213533 228.715389 
L 335.966792 229.904022 
L 336.720051 230.759577 
L 337.473309 230.275448 
L 338.226568 228.153056 
L 338.979827 224.958026 
L 341.239603 213.411358 
L 341.992862 210.071756 
L 343.49938 205.105453 
L 344.252639 202.721748 
L 345.759156 196.045588 
L 347.265674 188.675467 
L 349.52545 175.971084 
L 350.278709 170.603247 
L 351.785227 158.868931 
L 352.538486 153.019342 
L 353.291744 145.875302 
L 354.798262 126.527817 
L 355.551521 116.634622 
L 356.30478 109.036598 
L 357.058038 105.210212 
L 357.811297 104.999469 
L 358.564556 105.804577 
L 359.317815 106.361364 
L 360.071074 108.428798 
L 360.824332 112.161881 
L 362.33085 122.659811 
L 363.837368 135.49736 
L 365.343885 155.556054 
L 367.603662 187.071675 
L 369.863438 213.812226 
L 370.616697 219.544711 
L 372.123215 227.697964 
L 372.876473 230.952584 
L 373.629732 232.521174 
L 374.382991 231.805391 
L 375.13625 230.024896 
L 375.889509 227.165684 
L 377.396026 218.767984 
L 378.149285 210.107378 
L 382.668838 146.369422 
L 384.928614 123.815601 
L 385.681873 116.816932 
L 387.941649 90.171036 
L 388.694908 83.756924 
L 389.448167 82.659859 
L 390.201426 85.233784 
L 390.954685 91.568203 
L 391.707943 100.983952 
L 394.720979 145.850319 
L 396.227496 161.491653 
L 397.734014 175.16168 
L 398.487273 180.094005 
L 398.487273 180.094005 
" style="fill:none;stroke:#ff6347;stroke-linecap:square;stroke-width:1.5;"/>
   </g>
   <g id="patch_3">
    <path d="M 57.6 307.584 
L 57.6 41.472 
" style="fill:none;stroke:#000000;stroke-linecap:square;stroke-linejoin:miter;stroke-width:0.8;"/>
   </g>
   <g id="patch_4">
    <path d="M 414.72 307.584 
L 414.72 41.472 
" style="fill:none;stroke:#000000;stroke-linecap:square;stroke-linejoin:miter;stroke-width:0.8;"/>
   </g>
   <g id="patch_5">
    <path d="M 57.6 307.584 
L 414.72 307.584 
" style="fill:none;stroke:#000000;stroke-linecap:square;stroke-linejoin:miter;stroke-width:0.8;"/>
   </g>
   <g id="patch_6">
    <path d="M 57.6 41.472 
L 414.72 41.472 
" style="fill:none;stroke:#000000;stroke-linecap:square;stroke-linejoin:miter;stroke-width:0.8;"/>
   </g>
   <g id="text_16">
    <!-- Data source: nomics -->
    <g transform="translate(184.91625 35.472)scale(0.1 -0.1)">
     <defs>
      <path d="M 19.671875 64.796875 
L 19.671875 8.109375 
L 31.59375 8.109375 
Q 46.6875 8.109375 53.6875 14.9375 
Q 60.6875 21.78125 60.6875 36.53125 
Q 60.6875 51.171875 53.6875 57.984375 
Q 46.6875 64.796875 31.59375 64.796875 
z
M 9.8125 72.90625 
L 30.078125 72.90625 
Q 51.265625 72.90625 61.171875 64.09375 
Q 71.09375 55.28125 71.09375 36.53125 
Q 71.09375 17.671875 61.125 8.828125 
Q 51.171875 0 30.078125 0 
L 9.8125 0 
z
" id="DejaVuSans-68"/>
      <path d="M 34.28125 27.484375 
Q 23.390625 27.484375 19.1875 25 
Q 14.984375 22.515625 14.984375 16.5 
Q 14.984375 11.71875 18.140625 8.90625 
Q 21.296875 6.109375 26.703125 6.109375 
Q 34.1875 6.109375 38.703125 11.40625 
Q 43.21875 16.703125 43.21875 25.484375 
L 43.21875 27.484375 
z
M 52.203125 31.203125 
L 52.203125 0 
L 43.21875 0 
L 43.21875 8.296875 
Q 40.140625 3.328125 35.546875 0.953125 
Q 30.953125 -1.421875 24.3125 -1.421875 
Q 15.921875 -1.421875 10.953125 3.296875 
Q 6 8.015625 6 15.921875 
Q 6 25.140625 12.171875 29.828125 
Q 18.359375 34.515625 30.609375 34.515625 
L 43.21875 34.515625 
L 43.21875 35.40625 
Q 43.21875 41.609375 39.140625 45 
Q 35.0625 48.390625 27.6875 48.390625 
Q 23 48.390625 18.546875 47.265625 
Q 14.109375 46.140625 10.015625 43.890625 
L 10.015625 52.203125 
Q 14.9375 54.109375 19.578125 55.046875 
Q 24.21875 56 28.609375 56 
Q 40.484375 56 46.34375 49.84375 
Q 52.203125 43.703125 52.203125 31.203125 
z
" id="DejaVuSans-97"/>
      <path d="M 18.3125 70.21875 
L 18.3125 54.6875 
L 36.8125 54.6875 
L 36.8125 47.703125 
L 18.3125 47.703125 
L 18.3125 18.015625 
Q 18.3125 11.328125 20.140625 9.421875 
Q 21.96875 7.515625 27.59375 7.515625 
L 36.8125 7.515625 
L 36.8125 0 
L 27.59375 0 
Q 17.1875 0 13.234375 3.875 
Q 9.28125 7.765625 9.28125 18.015625 
L 9.28125 47.703125 
L 2.6875 47.703125 
L 2.6875 54.6875 
L 9.28125 54.6875 
L 9.28125 70.21875 
z
" id="DejaVuSans-116"/>
      <path id="DejaVuSans-32"/>
      <path d="M 44.28125 53.078125 
L 44.28125 44.578125 
Q 40.484375 46.53125 36.375 47.5 
Q 32.28125 48.484375 27.875 48.484375 
Q 21.1875 48.484375 17.84375 46.4375 
Q 14.5 44.390625 14.5 40.28125 
Q 14.5 37.15625 16.890625 35.375 
Q 19.28125 33.59375 26.515625 31.984375 
L 29.59375 31.296875 
Q 39.15625 29.25 43.1875 25.515625 
Q 47.21875 21.78125 47.21875 15.09375 
Q 47.21875 7.46875 41.1875 3.015625 
Q 35.15625 -1.421875 24.609375 -1.421875 
Q 20.21875 -1.421875 15.453125 -0.5625 
Q 10.6875 0.296875 5.421875 2 
L 5.421875 11.28125 
Q 10.40625 8.6875 15.234375 7.390625 
Q 20.0625 6.109375 24.8125 6.109375 
Q 31.15625 6.109375 34.5625 8.28125 
Q 37.984375 10.453125 37.984375 14.40625 
Q 37.984375 18.0625 35.515625 20.015625 
Q 33.0625 21.96875 24.703125 23.78125 
L 21.578125 24.515625 
Q 13.234375 26.265625 9.515625 29.90625 
Q 5.8125 33.546875 5.8125 39.890625 
Q 5.8125 47.609375 11.28125 51.796875 
Q 16.75 56 26.8125 56 
Q 31.78125 56 36.171875 55.265625 
Q 40.578125 54.546875 44.28125 53.078125 
z
" id="DejaVuSans-115"/>
      <path d="M 30.609375 48.390625 
Q 23.390625 48.390625 19.1875 42.75 
Q 14.984375 37.109375 14.984375 27.296875 
Q 14.984375 17.484375 19.15625 11.84375 
Q 23.34375 6.203125 30.609375 6.203125 
Q 37.796875 6.203125 41.984375 11.859375 
Q 46.1875 17.53125 46.1875 27.296875 
Q 46.1875 37.015625 41.984375 42.703125 
Q 37.796875 48.390625 30.609375 48.390625 
z
M 30.609375 56 
Q 42.328125 56 49.015625 48.375 
Q 55.71875 40.765625 55.71875 27.296875 
Q 55.71875 13.875 49.015625 6.21875 
Q 42.328125 -1.421875 30.609375 -1.421875 
Q 18.84375 -1.421875 12.171875 6.21875 
Q 5.515625 13.875 5.515625 27.296875 
Q 5.515625 40.765625 12.171875 48.375 
Q 18.84375 56 30.609375 56 
z
" id="DejaVuSans-111"/>
      <path d="M 8.5 21.578125 
L 8.5 54.6875 
L 17.484375 54.6875 
L 17.484375 21.921875 
Q 17.484375 14.15625 20.5 10.265625 
Q 23.53125 6.390625 29.59375 6.390625 
Q 36.859375 6.390625 41.078125 11.03125 
Q 45.3125 15.671875 45.3125 23.6875 
L 45.3125 54.6875 
L 54.296875 54.6875 
L 54.296875 0 
L 45.3125 0 
L 45.3125 8.40625 
Q 42.046875 3.421875 37.71875 1 
Q 33.40625 -1.421875 27.6875 -1.421875 
Q 18.265625 -1.421875 13.375 4.4375 
Q 8.5 10.296875 8.5 21.578125 
z
M 31.109375 56 
z
" id="DejaVuSans-117"/>
      <path d="M 41.109375 46.296875 
Q 39.59375 47.171875 37.8125 47.578125 
Q 36.03125 48 33.890625 48 
Q 26.265625 48 22.1875 43.046875 
Q 18.109375 38.09375 18.109375 28.8125 
L 18.109375 0 
L 9.078125 0 
L 9.078125 54.6875 
L 18.109375 54.6875 
L 18.109375 46.1875 
Q 20.953125 51.171875 25.484375 53.578125 
Q 30.03125 56 36.53125 56 
Q 37.453125 56 38.578125 55.875 
Q 39.703125 55.765625 41.0625 55.515625 
z
" id="DejaVuSans-114"/>
      <path d="M 48.78125 52.59375 
L 48.78125 44.1875 
Q 44.96875 46.296875 41.140625 47.34375 
Q 37.3125 48.390625 33.40625 48.390625 
Q 24.65625 48.390625 19.8125 42.84375 
Q 14.984375 37.3125 14.984375 27.296875 
Q 14.984375 17.28125 19.8125 11.734375 
Q 24.65625 6.203125 33.40625 6.203125 
Q 37.3125 6.203125 41.140625 7.25 
Q 44.96875 8.296875 48.78125 10.40625 
L 48.78125 2.09375 
Q 45.015625 0.34375 40.984375 -0.53125 
Q 36.96875 -1.421875 32.421875 -1.421875 
Q 20.0625 -1.421875 12.78125 6.34375 
Q 5.515625 14.109375 5.515625 27.296875 
Q 5.515625 40.671875 12.859375 48.328125 
Q 20.21875 56 33.015625 56 
Q 37.15625 56 41.109375 55.140625 
Q 45.0625 54.296875 48.78125 52.59375 
z
" id="DejaVuSans-99"/>
      <path d="M 56.203125 29.59375 
L 56.203125 25.203125 
L 14.890625 25.203125 
Q 15.484375 15.921875 20.484375 11.0625 
Q 25.484375 6.203125 34.421875 6.203125 
Q 39.59375 6.203125 44.453125 7.46875 
Q 49.3125 8.734375 54.109375 11.28125 
L 54.109375 2.78125 
Q 49.265625 0.734375 44.1875 -0.34375 
Q 39.109375 -1.421875 33.890625 -1.421875 
Q 20.796875 -1.421875 13.15625 6.1875 
Q 5.515625 13.8125 5.515625 26.8125 
Q 5.515625 40.234375 12.765625 48.109375 
Q 20.015625 56 32.328125 56 
Q 43.359375 56 49.78125 48.890625 
Q 56.203125 41.796875 56.203125 29.59375 
z
M 47.21875 32.234375 
Q 47.125 39.59375 43.09375 43.984375 
Q 39.0625 48.390625 32.421875 48.390625 
Q 24.90625 48.390625 20.390625 44.140625 
Q 15.875 39.890625 15.1875 32.171875 
z
" id="DejaVuSans-101"/>
      <path d="M 11.71875 12.40625 
L 22.015625 12.40625 
L 22.015625 0 
L 11.71875 0 
z
M 11.71875 51.703125 
L 22.015625 51.703125 
L 22.015625 39.3125 
L 11.71875 39.3125 
z
" id="DejaVuSans-58"/>
      <path d="M 54.890625 33.015625 
L 54.890625 0 
L 45.90625 0 
L 45.90625 32.71875 
Q 45.90625 40.484375 42.875 44.328125 
Q 39.84375 48.1875 33.796875 48.1875 
Q 26.515625 48.1875 22.3125 43.546875 
Q 18.109375 38.921875 18.109375 30.90625 
L 18.109375 0 
L 9.078125 0 
L 9.078125 54.6875 
L 18.109375 54.6875 
L 18.109375 46.1875 
Q 21.34375 51.125 25.703125 53.5625 
Q 30.078125 56 35.796875 56 
Q 45.21875 56 50.046875 50.171875 
Q 54.890625 44.34375 54.890625 33.015625 
z
" id="DejaVuSans-110"/>
      <path d="M 52 44.1875 
Q 55.375 50.25 60.0625 53.125 
Q 64.75 56 71.09375 56 
Q 79.640625 56 84.28125 50.015625 
Q 88.921875 44.046875 88.921875 33.015625 
L 88.921875 0 
L 79.890625 0 
L 79.890625 32.71875 
Q 79.890625 40.578125 77.09375 44.375 
Q 74.3125 48.1875 68.609375 48.1875 
Q 61.625 48.1875 57.5625 43.546875 
Q 53.515625 38.921875 53.515625 30.90625 
L 53.515625 0 
L 44.484375 0 
L 44.484375 32.71875 
Q 44.484375 40.625 41.703125 44.40625 
Q 38.921875 48.1875 33.109375 48.1875 
Q 26.21875 48.1875 22.15625 43.53125 
Q 18.109375 38.875 18.109375 30.90625 
L 18.109375 0 
L 9.078125 0 
L 9.078125 54.6875 
L 18.109375 54.6875 
L 18.109375 46.1875 
Q 21.1875 51.21875 25.484375 53.609375 
Q 29.78125 56 35.6875 56 
Q 41.65625 56 45.828125 52.96875 
Q 50 49.953125 52 44.1875 
z
" id="DejaVuSans-109"/>
      <path d="M 9.421875 54.6875 
L 18.40625 54.6875 
L 18.40625 0 
L 9.421875 0 
z
M 9.421875 75.984375 
L 18.40625 75.984375 
L 18.40625 64.59375 
L 9.421875 64.59375 
z
" id="DejaVuSans-105"/>
     </defs>
     <use xlink:href="#DejaVuSans-68"/>
     <use x="77.001953" xlink:href="#DejaVuSans-97"/>
     <use x="138.28125" xlink:href="#DejaVuSans-116"/>
     <use x="177.490234" xlink:href="#DejaVuSans-97"/>
     <use x="238.769531" xlink:href="#DejaVuSans-32"/>
     <use x="270.556641" xlink:href="#DejaVuSans-115"/>
     <use x="322.65625" xlink:href="#DejaVuSans-111"/>
     <use x="383.837891" xlink:href="#DejaVuSans-117"/>
     <use x="447.216797" xlink:href="#DejaVuSans-114"/>
     <use x="486.080078" xlink:href="#DejaVuSans-99"/>
     <use x="541.060547" xlink:href="#DejaVuSans-101"/>
     <use x="602.583984" xlink:href="#DejaVuSans-58"/>
     <use x="636.275391" xlink:href="#DejaVuSans-32"/>
     <use x="668.0625" xlink:href="#DejaVuSans-110"/>
     <use x="731.441406" xlink:href="#DejaVuSans-111"/>
     <use x="792.623047" xlink:href="#DejaVuSans-109"/>
     <use x="890.035156" xlink:href="#DejaVuSans-105"/>
     <use x="917.818359" xlink:href="#DejaVuSans-99"/>
     <use x="972.798828" xlink:href="#DejaVuSans-115"/>
    </g>
   </g>
   <g id="legend_1">
    <g id="patch_7">
     <path d="M 64.6 78.82825 
L 127.31875 78.82825 
Q 129.31875 78.82825 129.31875 76.82825 
L 129.31875 48.472 
Q 129.31875 46.472 127.31875 46.472 
L 64.6 46.472 
Q 62.6 46.472 62.6 48.472 
L 62.6 76.82825 
Q 62.6 78.82825 64.6 78.82825 
z
" style="fill:#ffffff;opacity:0.8;stroke:#cccccc;stroke-linejoin:miter;"/>
    </g>
    <g id="line2d_19">
     <path d="M 66.6 54.570437 
L 86.6 54.570437 
" style="fill:none;stroke:#0000ff;stroke-linecap:square;stroke-width:1.5;"/>
    </g>
    <g id="line2d_20"/>
    <g id="text_17">
     <!-- MACD -->
     <g transform="translate(94.6 58.070437)scale(0.1 -0.1)">
      <defs>
       <path d="M 9.8125 72.90625 
L 24.515625 72.90625 
L 43.109375 23.296875 
L 61.8125 72.90625 
L 76.515625 72.90625 
L 76.515625 0 
L 66.890625 0 
L 66.890625 64.015625 
L 48.09375 14.015625 
L 38.1875 14.015625 
L 19.390625 64.015625 
L 19.390625 0 
L 9.8125 0 
z
" id="DejaVuSans-77"/>
       <path d="M 34.1875 63.1875 
L 20.796875 26.90625 
L 47.609375 26.90625 
z
M 28.609375 72.90625 
L 39.796875 72.90625 
L 67.578125 0 
L 57.328125 0 
L 50.6875 18.703125 
L 17.828125 18.703125 
L 11.1875 0 
L 0.78125 0 
z
" id="DejaVuSans-65"/>
       <path d="M 64.40625 67.28125 
L 64.40625 56.890625 
Q 59.421875 61.53125 53.78125 63.8125 
Q 48.140625 66.109375 41.796875 66.109375 
Q 29.296875 66.109375 22.65625 58.46875 
Q 16.015625 50.828125 16.015625 36.375 
Q 16.015625 21.96875 22.65625 14.328125 
Q 29.296875 6.6875 41.796875 6.6875 
Q 48.140625 6.6875 53.78125 8.984375 
Q 59.421875 11.28125 64.40625 15.921875 
L 64.40625 5.609375 
Q 59.234375 2.09375 53.4375 0.328125 
Q 47.65625 -1.421875 41.21875 -1.421875 
Q 24.65625 -1.421875 15.125 8.703125 
Q 5.609375 18.84375 5.609375 36.375 
Q 5.609375 53.953125 15.125 64.078125 
Q 24.65625 74.21875 41.21875 74.21875 
Q 47.75 74.21875 53.53125 72.484375 
Q 59.328125 70.75 64.40625 67.28125 
z
" id="DejaVuSans-67"/>
      </defs>
      <use xlink:href="#DejaVuSans-77"/>
      <use x="86.279297" xlink:href="#DejaVuSans-65"/>
      <use x="152.9375" xlink:href="#DejaVuSans-67"/>
      <use x="222.761719" xlink:href="#DejaVuSans-68"/>
     </g>
    </g>
    <g id="line2d_21">
     <path d="M 66.6 69.248562 
L 86.6 69.248562 
" style="fill:none;stroke:#ff6347;stroke-linecap:square;stroke-width:1.5;"/>
    </g>
    <g id="line2d_22"/>
    <g id="text_18">
     <!-- Signal -->
     <g transform="translate(94.6 72.748562)scale(0.1 -0.1)">
      <defs>
       <path d="M 53.515625 70.515625 
L 53.515625 60.890625 
Q 47.90625 63.578125 42.921875 64.890625 
Q 37.9375 66.21875 33.296875 66.21875 
Q 25.25 66.21875 20.875 63.09375 
Q 16.5 59.96875 16.5 54.203125 
Q 16.5 49.359375 19.40625 46.890625 
Q 22.3125 44.4375 30.421875 42.921875 
L 36.375 41.703125 
Q 47.40625 39.59375 52.65625 34.296875 
Q 57.90625 29 57.90625 20.125 
Q 57.90625 9.515625 50.796875 4.046875 
Q 43.703125 -1.421875 29.984375 -1.421875 
Q 24.8125 -1.421875 18.96875 -0.25 
Q 13.140625 0.921875 6.890625 3.21875 
L 6.890625 13.375 
Q 12.890625 10.015625 18.65625 8.296875 
Q 24.421875 6.59375 29.984375 6.59375 
Q 38.421875 6.59375 43.015625 9.90625 
Q 47.609375 13.234375 47.609375 19.390625 
Q 47.609375 24.75 44.3125 27.78125 
Q 41.015625 30.8125 33.5 32.328125 
L 27.484375 33.5 
Q 16.453125 35.6875 11.515625 40.375 
Q 6.59375 45.0625 6.59375 53.421875 
Q 6.59375 63.09375 13.40625 68.65625 
Q 20.21875 74.21875 32.171875 74.21875 
Q 37.3125 74.21875 42.625 73.28125 
Q 47.953125 72.359375 53.515625 70.515625 
z
" id="DejaVuSans-83"/>
       <path d="M 45.40625 27.984375 
Q 45.40625 37.75 41.375 43.109375 
Q 37.359375 48.484375 30.078125 48.484375 
Q 22.859375 48.484375 18.828125 43.109375 
Q 14.796875 37.75 14.796875 27.984375 
Q 14.796875 18.265625 18.828125 12.890625 
Q 22.859375 7.515625 30.078125 7.515625 
Q 37.359375 7.515625 41.375 12.890625 
Q 45.40625 18.265625 45.40625 27.984375 
z
M 54.390625 6.78125 
Q 54.390625 -7.171875 48.1875 -13.984375 
Q 42 -20.796875 29.203125 -20.796875 
Q 24.46875 -20.796875 20.265625 -20.09375 
Q 16.0625 -19.390625 12.109375 -17.921875 
L 12.109375 -9.1875 
Q 16.0625 -11.328125 19.921875 -12.34375 
Q 23.78125 -13.375 27.78125 -13.375 
Q 36.625 -13.375 41.015625 -8.765625 
Q 45.40625 -4.15625 45.40625 5.171875 
L 45.40625 9.625 
Q 42.625 4.78125 38.28125 2.390625 
Q 33.9375 0 27.875 0 
Q 17.828125 0 11.671875 7.65625 
Q 5.515625 15.328125 5.515625 27.984375 
Q 5.515625 40.671875 11.671875 48.328125 
Q 17.828125 56 27.875 56 
Q 33.9375 56 38.28125 53.609375 
Q 42.625 51.21875 45.40625 46.390625 
L 45.40625 54.6875 
L 54.390625 54.6875 
z
" id="DejaVuSans-103"/>
       <path d="M 9.421875 75.984375 
L 18.40625 75.984375 
L 18.40625 0 
L 9.421875 0 
z
" id="DejaVuSans-108"/>
      </defs>
      <use xlink:href="#DejaVuSans-83"/>
      <use x="63.476562" xlink:href="#DejaVuSans-105"/>
      <use x="91.259766" xlink:href="#DejaVuSans-103"/>
      <use x="154.736328" xlink:href="#DejaVuSans-110"/>
      <use x="218.115234" xlink:href="#DejaVuSans-97"/>
      <use x="279.394531" xlink:href="#DejaVuSans-108"/>
     </g>
    </g>
   </g>
  </g>
  <g id="text_19">
   <!-- MACD -->
   <g transform="translate(206.41875 19.0695)scale(0.16 -0.16)">
    <use xlink:href="#DejaVuSans-77"/>
    <use x="86.279297" xlink:href="#DejaVuSans-65"/>
    <use x="152.9375" xlink:href="#DejaVuSans-67"/>
    <use x="222.761719" xlink:href="#DejaVuSans-68"/>
   </g>
  </g>
 </g>
 <defs>
  <clipPath id="p614761998d">
   <rect height="266.112" width="357.12" x="57.6" y="41.472"/>
  </clipPath>
 </defs>
</svg>
