<?xml version="1.0" encoding="utf-8" standalone="no"?>
<!DOCTYPE svg PUBLIC "-//W3C//DTD SVG 1.1//EN"
  "http://www.w3.org/Graphics/SVG/1.1/DTD/svg11.dtd">
<!-- Created with matplotlib (https://matplotlib.org/) -->
<svg height="345.6pt" version="1.1" viewBox="0 0 460.8 345.6" width="460.8pt" xmlns="http://www.w3.org/2000/svg" xmlns:xlink="http://www.w3.org/1999/xlink">
 <metadata>
  <rdf:RDF xmlns:cc="http://creativecommons.org/ns#" xmlns:dc="http://purl.org/dc/elements/1.1/" xmlns:rdf="http://www.w3.org/1999/02/22-rdf-syntax-ns#">
   <cc:Work>
    <dc:type rdf:resource="http://purl.org/dc/dcmitype/StillImage"/>
    <dc:date>2021-02-08T19:00:11.064471</dc:date>
    <dc:format>image/svg+xml</dc:format>
    <dc:creator>
     <cc:Agent>
      <dc:title>Matplotlib v3.3.2, https://matplotlib.org/</dc:title>
     </cc:Agent>
    </dc:creator>
   </cc:Work>
  </rdf:RDF>
 </metadata>
 <defs>
  <style type="text/css">*{stroke-linecap:butt;stroke-linejoin:round;}</style>
 </defs>
 <g id="figure_1">
  <g id="patch_1">
   <path d="M 0 345.6 
L 460.8 345.6 
L 460.8 0 
L 0 0 
z
" style="fill:#ffffff;"/>
  </g>
  <g id="axes_1">
   <g id="patch_2">
    <path d="M 57.6 307.584 
L 414.72 307.584 
L 414.72 41.472 
L 57.6 41.472 
z
" style="fill:#ffffff;"/>
   </g>
   <g id="matplotlib.axis_1">
    <g id="xtick_1">
     <g id="line2d_1">
      <defs>
       <path d="M 0 0 
L 0 3.5 
" id="m48b26ae063" style="stroke:#000000;stroke-width:0.8;"/>
      </defs>
      <g>
       <use style="stroke:#000000;stroke-width:0.8;" x="73.832727" xlink:href="#m48b26ae063" y="307.584"/>
      </g>
     </g>
     <g id="text_1">
      <!-- 2020-01 -->
      <g transform="translate(52.941321 322.182437)scale(0.1 -0.1)">
       <defs>
        <path d="M 19.1875 8.296875 
L 53.609375 8.296875 
L 53.609375 0 
L 7.328125 0 
L 7.328125 8.296875 
Q 12.9375 14.109375 22.625 23.890625 
Q 32.328125 33.6875 34.8125 36.53125 
Q 39.546875 41.84375 41.421875 45.53125 
Q 43.3125 49.21875 43.3125 52.78125 
Q 43.3125 58.59375 39.234375 62.25 
Q 35.15625 65.921875 28.609375 65.921875 
Q 23.96875 65.921875 18.8125 64.3125 
Q 13.671875 62.703125 7.8125 59.421875 
L 7.8125 69.390625 
Q 13.765625 71.78125 18.9375 73 
Q 24.125 74.21875 28.421875 74.21875 
Q 39.75 74.21875 46.484375 68.546875 
Q 53.21875 62.890625 53.21875 53.421875 
Q 53.21875 48.921875 51.53125 44.890625 
Q 49.859375 40.875 45.40625 35.40625 
Q 44.1875 33.984375 37.640625 27.21875 
Q 31.109375 20.453125 19.1875 8.296875 
z
" id="DejaVuSans-50"/>
        <path d="M 31.78125 66.40625 
Q 24.171875 66.40625 20.328125 58.90625 
Q 16.5 51.421875 16.5 36.375 
Q 16.5 21.390625 20.328125 13.890625 
Q 24.171875 6.390625 31.78125 6.390625 
Q 39.453125 6.390625 43.28125 13.890625 
Q 47.125 21.390625 47.125 36.375 
Q 47.125 51.421875 43.28125 58.90625 
Q 39.453125 66.40625 31.78125 66.40625 
z
M 31.78125 74.21875 
Q 44.046875 74.21875 50.515625 64.515625 
Q 56.984375 54.828125 56.984375 36.375 
Q 56.984375 17.96875 50.515625 8.265625 
Q 44.046875 -1.421875 31.78125 -1.421875 
Q 19.53125 -1.421875 13.0625 8.265625 
Q 6.59375 17.96875 6.59375 36.375 
Q 6.59375 54.828125 13.0625 64.515625 
Q 19.53125 74.21875 31.78125 74.21875 
z
" id="DejaVuSans-48"/>
        <path d="M 4.890625 31.390625 
L 31.203125 31.390625 
L 31.203125 23.390625 
L 4.890625 23.390625 
z
" id="DejaVuSans-45"/>
        <path d="M 12.40625 8.296875 
L 28.515625 8.296875 
L 28.515625 63.921875 
L 10.984375 60.40625 
L 10.984375 69.390625 
L 28.421875 72.90625 
L 38.28125 72.90625 
L 38.28125 8.296875 
L 54.390625 8.296875 
L 54.390625 0 
L 12.40625 0 
z
" id="DejaVuSans-49"/>
       </defs>
       <use xlink:href="#DejaVuSans-50"/>
       <use x="63.623047" xlink:href="#DejaVuSans-48"/>
       <use x="127.246094" xlink:href="#DejaVuSans-50"/>
       <use x="190.869141" xlink:href="#DejaVuSans-48"/>
       <use x="254.492188" xlink:href="#DejaVuSans-45"/>
       <use x="290.576172" xlink:href="#DejaVuSans-48"/>
       <use x="354.199219" xlink:href="#DejaVuSans-49"/>
      </g>
     </g>
    </g>
    <g id="xtick_2">
     <g id="line2d_2">
      <g>
       <use style="stroke:#000000;stroke-width:0.8;" x="122.048749" xlink:href="#m48b26ae063" y="307.584"/>
      </g>
     </g>
     <g id="text_2">
      <!-- 2020-03 -->
      <g transform="translate(101.157343 322.182437)scale(0.1 -0.1)">
       <defs>
        <path d="M 40.578125 39.3125 
Q 47.65625 37.796875 51.625 33 
Q 55.609375 28.21875 55.609375 21.1875 
Q 55.609375 10.40625 48.1875 4.484375 
Q 40.765625 -1.421875 27.09375 -1.421875 
Q 22.515625 -1.421875 17.65625 -0.515625 
Q 12.796875 0.390625 7.625 2.203125 
L 7.625 11.71875 
Q 11.71875 9.328125 16.59375 8.109375 
Q 21.484375 6.890625 26.8125 6.890625 
Q 36.078125 6.890625 40.9375 10.546875 
Q 45.796875 14.203125 45.796875 21.1875 
Q 45.796875 27.640625 41.28125 31.265625 
Q 36.765625 34.90625 28.71875 34.90625 
L 20.21875 34.90625 
L 20.21875 43.015625 
L 29.109375 43.015625 
Q 36.375 43.015625 40.234375 45.921875 
Q 44.09375 48.828125 44.09375 54.296875 
Q 44.09375 59.90625 40.109375 62.90625 
Q 36.140625 65.921875 28.71875 65.921875 
Q 24.65625 65.921875 20.015625 65.03125 
Q 15.375 64.15625 9.8125 62.3125 
L 9.8125 71.09375 
Q 15.4375 72.65625 20.34375 73.4375 
Q 25.25 74.21875 29.59375 74.21875 
Q 40.828125 74.21875 47.359375 69.109375 
Q 53.90625 64.015625 53.90625 55.328125 
Q 53.90625 49.265625 50.4375 45.09375 
Q 46.96875 40.921875 40.578125 39.3125 
z
" id="DejaVuSans-51"/>
       </defs>
       <use xlink:href="#DejaVuSans-50"/>
       <use x="63.623047" xlink:href="#DejaVuSans-48"/>
       <use x="127.246094" xlink:href="#DejaVuSans-50"/>
       <use x="190.869141" xlink:href="#DejaVuSans-48"/>
       <use x="254.492188" xlink:href="#DejaVuSans-45"/>
       <use x="290.576172" xlink:href="#DejaVuSans-48"/>
       <use x="354.199219" xlink:href="#DejaVuSans-51"/>
      </g>
     </g>
    </g>
    <g id="xtick_3">
     <g id="line2d_3">
      <g>
       <use style="stroke:#000000;stroke-width:0.8;" x="171.068371" xlink:href="#m48b26ae063" y="307.584"/>
      </g>
     </g>
     <g id="text_3">
      <!-- 2020-05 -->
      <g transform="translate(150.176965 322.182437)scale(0.1 -0.1)">
       <defs>
        <path d="M 10.796875 72.90625 
L 49.515625 72.90625 
L 49.515625 64.59375 
L 19.828125 64.59375 
L 19.828125 46.734375 
Q 21.96875 47.46875 24.109375 47.828125 
Q 26.265625 48.1875 28.421875 48.1875 
Q 40.625 48.1875 47.75 41.5 
Q 54.890625 34.8125 54.890625 23.390625 
Q 54.890625 11.625 47.5625 5.09375 
Q 40.234375 -1.421875 26.90625 -1.421875 
Q 22.3125 -1.421875 17.546875 -0.640625 
Q 12.796875 0.140625 7.71875 1.703125 
L 7.71875 11.625 
Q 12.109375 9.234375 16.796875 8.0625 
Q 21.484375 6.890625 26.703125 6.890625 
Q 35.15625 6.890625 40.078125 11.328125 
Q 45.015625 15.765625 45.015625 23.390625 
Q 45.015625 31 40.078125 35.4375 
Q 35.15625 39.890625 26.703125 39.890625 
Q 22.75 39.890625 18.8125 39.015625 
Q 14.890625 38.140625 10.796875 36.28125 
z
" id="DejaVuSans-53"/>
       </defs>
       <use xlink:href="#DejaVuSans-50"/>
       <use x="63.623047" xlink:href="#DejaVuSans-48"/>
       <use x="127.246094" xlink:href="#DejaVuSans-50"/>
       <use x="190.869141" xlink:href="#DejaVuSans-48"/>
       <use x="254.492188" xlink:href="#DejaVuSans-45"/>
       <use x="290.576172" xlink:href="#DejaVuSans-48"/>
       <use x="354.199219" xlink:href="#DejaVuSans-53"/>
      </g>
     </g>
    </g>
    <g id="xtick_4">
     <g id="line2d_4">
      <g>
       <use style="stroke:#000000;stroke-width:0.8;" x="220.087993" xlink:href="#m48b26ae063" y="307.584"/>
      </g>
     </g>
     <g id="text_4">
      <!-- 2020-07 -->
      <g transform="translate(199.196587 322.182437)scale(0.1 -0.1)">
       <defs>
        <path d="M 8.203125 72.90625 
L 55.078125 72.90625 
L 55.078125 68.703125 
L 28.609375 0 
L 18.3125 0 
L 43.21875 64.59375 
L 8.203125 64.59375 
z
" id="DejaVuSans-55"/>
       </defs>
       <use xlink:href="#DejaVuSans-50"/>
       <use x="63.623047" xlink:href="#DejaVuSans-48"/>
       <use x="127.246094" xlink:href="#DejaVuSans-50"/>
       <use x="190.869141" xlink:href="#DejaVuSans-48"/>
       <use x="254.492188" xlink:href="#DejaVuSans-45"/>
       <use x="290.576172" xlink:href="#DejaVuSans-48"/>
       <use x="354.199219" xlink:href="#DejaVuSans-55"/>
      </g>
     </g>
    </g>
    <g id="xtick_5">
     <g id="line2d_5">
      <g>
       <use style="stroke:#000000;stroke-width:0.8;" x="269.911215" xlink:href="#m48b26ae063" y="307.584"/>
      </g>
     </g>
     <g id="text_5">
      <!-- 2020-09 -->
      <g transform="translate(249.019809 322.182437)scale(0.1 -0.1)">
       <defs>
        <path d="M 10.984375 1.515625 
L 10.984375 10.5 
Q 14.703125 8.734375 18.5 7.8125 
Q 22.3125 6.890625 25.984375 6.890625 
Q 35.75 6.890625 40.890625 13.453125 
Q 46.046875 20.015625 46.78125 33.40625 
Q 43.953125 29.203125 39.59375 26.953125 
Q 35.25 24.703125 29.984375 24.703125 
Q 19.046875 24.703125 12.671875 31.3125 
Q 6.296875 37.9375 6.296875 49.421875 
Q 6.296875 60.640625 12.9375 67.421875 
Q 19.578125 74.21875 30.609375 74.21875 
Q 43.265625 74.21875 49.921875 64.515625 
Q 56.59375 54.828125 56.59375 36.375 
Q 56.59375 19.140625 48.40625 8.859375 
Q 40.234375 -1.421875 26.421875 -1.421875 
Q 22.703125 -1.421875 18.890625 -0.6875 
Q 15.09375 0.046875 10.984375 1.515625 
z
M 30.609375 32.421875 
Q 37.25 32.421875 41.125 36.953125 
Q 45.015625 41.5 45.015625 49.421875 
Q 45.015625 57.28125 41.125 61.84375 
Q 37.25 66.40625 30.609375 66.40625 
Q 23.96875 66.40625 20.09375 61.84375 
Q 16.21875 57.28125 16.21875 49.421875 
Q 16.21875 41.5 20.09375 36.953125 
Q 23.96875 32.421875 30.609375 32.421875 
z
" id="DejaVuSans-57"/>
       </defs>
       <use xlink:href="#DejaVuSans-50"/>
       <use x="63.623047" xlink:href="#DejaVuSans-48"/>
       <use x="127.246094" xlink:href="#DejaVuSans-50"/>
       <use x="190.869141" xlink:href="#DejaVuSans-48"/>
       <use x="254.492188" xlink:href="#DejaVuSans-45"/>
       <use x="290.576172" xlink:href="#DejaVuSans-48"/>
       <use x="354.199219" xlink:href="#DejaVuSans-57"/>
      </g>
     </g>
    </g>
    <g id="xtick_6">
     <g id="line2d_6">
      <g>
       <use style="stroke:#000000;stroke-width:0.8;" x="318.930837" xlink:href="#m48b26ae063" y="307.584"/>
      </g>
     </g>
     <g id="text_6">
      <!-- 2020-11 -->
      <g transform="translate(298.039431 322.182437)scale(0.1 -0.1)">
       <use xlink:href="#DejaVuSans-50"/>
       <use x="63.623047" xlink:href="#DejaVuSans-48"/>
       <use x="127.246094" xlink:href="#DejaVuSans-50"/>
       <use x="190.869141" xlink:href="#DejaVuSans-48"/>
       <use x="254.492188" xlink:href="#DejaVuSans-45"/>
       <use x="290.576172" xlink:href="#DejaVuSans-49"/>
       <use x="354.199219" xlink:href="#DejaVuSans-49"/>
      </g>
     </g>
    </g>
    <g id="xtick_7">
     <g id="line2d_7">
      <g>
       <use style="stroke:#000000;stroke-width:0.8;" x="367.950459" xlink:href="#m48b26ae063" y="307.584"/>
      </g>
     </g>
     <g id="text_7">
      <!-- 2021-01 -->
      <g transform="translate(347.059053 322.182437)scale(0.1 -0.1)">
       <use xlink:href="#DejaVuSans-50"/>
       <use x="63.623047" xlink:href="#DejaVuSans-48"/>
       <use x="127.246094" xlink:href="#DejaVuSans-50"/>
       <use x="190.869141" xlink:href="#DejaVuSans-49"/>
       <use x="254.492188" xlink:href="#DejaVuSans-45"/>
       <use x="290.576172" xlink:href="#DejaVuSans-48"/>
       <use x="354.199219" xlink:href="#DejaVuSans-49"/>
      </g>
     </g>
    </g>
   </g>
   <g id="matplotlib.axis_2">
    <g id="ytick_1">
     <g id="line2d_8">
      <defs>
       <path d="M 0 0 
L -3.5 0 
" id="mc1c0c27726" style="stroke:#000000;stroke-width:0.8;"/>
      </defs>
      <g>
       <use style="stroke:#000000;stroke-width:0.8;" x="57.6" xlink:href="#mc1c0c27726" y="292.541419"/>
      </g>
     </g>
     <g id="text_8">
      <!-- −1000 -->
      <g transform="translate(16.770313 296.340637)scale(0.1 -0.1)">
       <defs>
        <path d="M 10.59375 35.5 
L 73.1875 35.5 
L 73.1875 27.203125 
L 10.59375 27.203125 
z
" id="DejaVuSans-8722"/>
       </defs>
       <use xlink:href="#DejaVuSans-8722"/>
       <use x="83.789062" xlink:href="#DejaVuSans-49"/>
       <use x="147.412109" xlink:href="#DejaVuSans-48"/>
       <use x="211.035156" xlink:href="#DejaVuSans-48"/>
       <use x="274.658203" xlink:href="#DejaVuSans-48"/>
      </g>
     </g>
    </g>
    <g id="ytick_2">
     <g id="line2d_9">
      <g>
       <use style="stroke:#000000;stroke-width:0.8;" x="57.6" xlink:href="#mc1c0c27726" y="250.590116"/>
      </g>
     </g>
     <g id="text_9">
      <!-- 0 -->
      <g transform="translate(44.2375 254.389334)scale(0.1 -0.1)">
       <use xlink:href="#DejaVuSans-48"/>
      </g>
     </g>
    </g>
    <g id="ytick_3">
     <g id="line2d_10">
      <g>
       <use style="stroke:#000000;stroke-width:0.8;" x="57.6" xlink:href="#mc1c0c27726" y="208.638813"/>
      </g>
     </g>
     <g id="text_10">
      <!-- 1000 -->
      <g transform="translate(25.15 212.438031)scale(0.1 -0.1)">
       <use xlink:href="#DejaVuSans-49"/>
       <use x="63.623047" xlink:href="#DejaVuSans-48"/>
       <use x="127.246094" xlink:href="#DejaVuSans-48"/>
       <use x="190.869141" xlink:href="#DejaVuSans-48"/>
      </g>
     </g>
    </g>
    <g id="ytick_4">
     <g id="line2d_11">
      <g>
       <use style="stroke:#000000;stroke-width:0.8;" x="57.6" xlink:href="#mc1c0c27726" y="166.68751"/>
      </g>
     </g>
     <g id="text_11">
      <!-- 2000 -->
      <g transform="translate(25.15 170.486728)scale(0.1 -0.1)">
       <use xlink:href="#DejaVuSans-50"/>
       <use x="63.623047" xlink:href="#DejaVuSans-48"/>
       <use x="127.246094" xlink:href="#DejaVuSans-48"/>
       <use x="190.869141" xlink:href="#DejaVuSans-48"/>
      </g>
     </g>
    </g>
    <g id="ytick_5">
     <g id="line2d_12">
      <g>
       <use style="stroke:#000000;stroke-width:0.8;" x="57.6" xlink:href="#mc1c0c27726" y="124.736206"/>
      </g>
     </g>
     <g id="text_12">
      <!-- 3000 -->
      <g transform="translate(25.15 128.535425)scale(0.1 -0.1)">
       <use xlink:href="#DejaVuSans-51"/>
       <use x="63.623047" xlink:href="#DejaVuSans-48"/>
       <use x="127.246094" xlink:href="#DejaVuSans-48"/>
       <use x="190.869141" xlink:href="#DejaVuSans-48"/>
      </g>
     </g>
    </g>
    <g id="ytick_6">
     <g id="line2d_13">
      <g>
       <use style="stroke:#000000;stroke-width:0.8;" x="57.6" xlink:href="#mc1c0c27726" y="82.784903"/>
      </g>
     </g>
     <g id="text_13">
      <!-- 4000 -->
      <g transform="translate(25.15 86.584122)scale(0.1 -0.1)">
       <defs>
        <path d="M 37.796875 64.3125 
L 12.890625 25.390625 
L 37.796875 25.390625 
z
M 35.203125 72.90625 
L 47.609375 72.90625 
L 47.609375 25.390625 
L 58.015625 25.390625 
L 58.015625 17.1875 
L 47.609375 17.1875 
L 47.609375 0 
L 37.796875 0 
L 37.796875 17.1875 
L 4.890625 17.1875 
L 4.890625 26.703125 
z
" id="DejaVuSans-52"/>
       </defs>
       <use xlink:href="#DejaVuSans-52"/>
       <use x="63.623047" xlink:href="#DejaVuSans-48"/>
       <use x="127.246094" xlink:href="#DejaVuSans-48"/>
       <use x="190.869141" xlink:href="#DejaVuSans-48"/>
      </g>
     </g>
    </g>
   </g>
   <g id="line2d_14">
    <path clip-path="url(#pf5cff0712f)" d="M 73.832727 250.590116 
L 398.487273 250.590116 
L 398.487273 250.590116 
" style="fill:none;stroke:#1f77b4;stroke-dasharray:5.55,2.4;stroke-dashoffset:0;stroke-width:1.5;"/>
   </g>
   <g id="line2d_15">
    <path clip-path="url(#pf5cff0712f)" d="M 73.832727 250.590116 
L 74.636328 251.345507 
L 76.243528 250.105123 
L 77.047129 249.673572 
L 77.850729 248.018127 
L 78.654329 245.390059 
L 79.45793 243.812612 
L 80.26153 243.382349 
L 81.065131 241.91421 
L 81.868731 241.414265 
L 82.672331 240.603943 
L 83.475932 240.309512 
L 84.279532 237.900484 
L 85.083132 236.165771 
L 85.886733 235.230299 
L 86.690333 234.082205 
L 87.493933 233.337169 
L 88.297534 233.626257 
L 89.101134 234.247673 
L 89.904734 234.604555 
L 90.708335 235.310531 
L 91.511935 236.871894 
L 93.119136 239.584016 
L 93.922736 239.98794 
L 94.726337 239.45283 
L 95.529937 237.550721 
L 96.333537 236.504393 
L 97.137138 235.16288 
L 97.940738 234.834392 
L 98.744338 234.628479 
L 99.547939 234.785385 
L 100.351539 235.198464 
L 101.15514 236.091314 
L 101.95874 235.494792 
L 103.565941 234.102534 
L 104.369541 233.539846 
L 105.173141 232.429224 
L 105.976742 232.732697 
L 107.583942 231.133217 
L 108.387543 231.119655 
L 109.191143 230.945683 
L 111.601944 235.810258 
L 112.405545 235.954788 
L 113.209145 238.116273 
L 114.012745 239.921053 
L 115.619946 242.496163 
L 116.423546 242.550329 
L 117.227147 243.681003 
L 118.030747 245.807195 
L 118.834347 249.251138 
L 120.441548 254.387691 
L 121.245149 256.777685 
L 122.048749 258.587883 
L 122.852349 258.662531 
L 123.65595 259.146897 
L 124.45955 259.375533 
L 125.26315 258.517675 
L 126.066751 257.46983 
L 126.870351 257.329451 
L 128.477552 262.369631 
L 129.281152 264.151492 
L 130.084752 265.296663 
L 130.888353 276.188467 
L 132.495554 287.49103 
L 134.102754 294.28762 
L 134.906355 295.346571 
L 135.709955 295.488 
L 137.317156 289.605453 
L 138.120756 286.967415 
L 138.924356 285.721046 
L 142.138758 271.911294 
L 142.942358 270.531629 
L 143.745959 269.592908 
L 144.549559 269.88333 
L 146.15676 266.529434 
L 148.567561 260.111388 
L 149.371161 258.197227 
L 150.174761 256.908358 
L 150.978362 253.964895 
L 153.389163 248.692388 
L 154.996364 249.227407 
L 155.799964 249.338891 
L 157.407165 249.845629 
L 158.210765 250.77245 
L 159.014365 249.92824 
L 159.817966 249.551986 
L 160.621566 248.512061 
L 161.425167 248.133256 
L 162.228767 248.817153 
L 163.032367 249.323353 
L 163.835968 248.825286 
L 164.639568 247.288909 
L 167.853969 242.52502 
L 168.65757 241.762103 
L 169.46117 237.861828 
L 171.871971 230.820226 
L 172.675572 229.529966 
L 174.282772 228.121075 
L 175.086373 227.331311 
L 175.889973 224.243097 
L 176.693573 222.724497 
L 177.497174 222.64309 
L 179.104374 228.820226 
L 179.907975 230.813037 
L 180.711575 230.918854 
L 181.515176 229.652996 
L 182.318776 230.50371 
L 183.122376 231.172063 
L 183.925977 230.962347 
L 185.533177 230.822085 
L 186.336778 231.886137 
L 187.140378 234.389862 
L 188.747579 237.753171 
L 189.551179 240.64627 
L 191.15838 244.169144 
L 191.96198 244.343049 
L 192.765581 243.35394 
L 193.569181 243.135772 
L 194.372781 242.149739 
L 195.176382 242.282835 
L 195.979982 239.98237 
L 196.783582 240.488136 
L 197.587183 240.576923 
L 198.390783 240.38123 
L 199.194383 240.823774 
L 199.997984 241.131984 
L 202.408785 241.547663 
L 203.212385 241.438299 
L 204.015986 243.440283 
L 206.426787 246.539851 
L 207.230387 247.255735 
L 208.033987 247.464107 
L 208.837588 247.911635 
L 209.641188 248.532331 
L 210.444788 249.310402 
L 211.248389 249.771372 
L 212.051989 250.374377 
L 212.85559 249.584656 
L 213.65919 249.15708 
L 215.266391 250.603478 
L 216.069991 251.475604 
L 216.873591 252.656469 
L 217.677192 253.203844 
L 219.284392 253.632676 
L 220.087993 253.500254 
L 221.695194 254.115964 
L 222.498794 254.076569 
L 223.302394 254.197409 
L 224.105995 253.412118 
L 224.909595 252.993775 
L 225.713195 252.108829 
L 228.123996 251.698146 
L 228.927597 251.446154 
L 230.534797 251.417686 
L 231.338398 251.557111 
L 232.945599 251.971352 
L 233.749199 252.007925 
L 234.552799 251.897058 
L 235.3564 251.958293 
L 236.16 251.27378 
L 237.767201 249.133703 
L 238.570801 248.528789 
L 239.374401 247.51431 
L 240.178002 246.004264 
L 240.981602 241.294852 
L 242.588803 234.917867 
L 244.196004 230.262941 
L 244.999604 227.120788 
L 245.803204 227.434891 
L 246.606805 227.320894 
L 247.410405 227.694473 
L 248.214005 226.421275 
L 249.017606 225.562733 
L 249.821206 225.663682 
L 250.624806 225.550769 
L 251.428407 226.020753 
L 252.232007 225.97183 
L 253.035608 227.862208 
L 253.839208 229.055066 
L 254.642808 229.533936 
L 255.446409 230.19813 
L 257.053609 231.063716 
L 257.85721 230.372465 
L 258.66081 231.194647 
L 259.46441 232.53171 
L 260.268011 233.574076 
L 261.071611 235.590236 
L 262.678812 238.230536 
L 263.482412 239.028381 
L 264.286013 241.211009 
L 265.893213 244.178585 
L 267.500414 245.671837 
L 268.304014 245.540315 
L 269.107615 245.634828 
L 269.911215 244.885467 
L 270.714815 246.060277 
L 271.518416 251.110561 
L 273.125617 257.463351 
L 273.929217 259.685938 
L 274.732817 260.946547 
L 275.536418 262.637696 
L 276.340018 263.539599 
L 277.143618 263.679746 
L 277.947219 263.500221 
L 278.750819 263.036352 
L 279.554419 262.892364 
L 280.35802 261.528706 
L 281.16162 259.92824 
L 281.965221 258.006728 
L 282.768821 256.500734 
L 283.572421 255.232141 
L 284.376022 253.697698 
L 285.179622 252.995828 
L 285.983222 254.049058 
L 286.786823 254.459625 
L 287.590423 255.742439 
L 288.394023 255.075091 
L 290.001224 254.119059 
L 290.804824 253.535549 
L 291.608425 253.337386 
L 292.412025 252.663202 
L 293.215626 252.290762 
L 294.822826 252.773581 
L 295.626427 253.042125 
L 296.430027 252.825786 
L 297.233627 252.294623 
L 298.037228 252.373575 
L 298.840828 252.269354 
L 299.644428 251.30457 
L 300.448029 250.161509 
L 302.85883 245.069502 
L 303.66243 244.056259 
L 305.269631 242.667123 
L 306.876832 242.870469 
L 307.680432 242.527459 
L 308.484032 241.580842 
L 309.287633 240.373383 
L 310.894833 233.180057 
L 312.502034 228.680843 
L 313.305635 227.457479 
L 314.109235 226.617642 
L 314.912835 224.265362 
L 315.716436 223.978228 
L 317.323636 223.014688 
L 318.127237 222.221573 
L 318.930837 222.041735 
L 319.734437 222.88928 
L 320.538038 222.475644 
L 321.341638 221.884344 
L 322.145239 217.106998 
L 322.948839 213.658193 
L 323.752439 213.857664 
L 324.55604 212.283123 
L 325.35964 211.840965 
L 326.16324 212.127428 
L 326.966841 211.444029 
L 327.770441 209.426637 
L 328.574041 208.257319 
L 329.377642 208.583808 
L 330.181242 209.692833 
L 330.984842 208.569157 
L 331.788443 204.966347 
L 332.592043 202.236186 
L 333.395644 200.528208 
L 334.199244 196.937029 
L 335.002844 194.741759 
L 335.806445 194.540046 
L 336.610045 195.10851 
L 337.413645 193.795656 
L 338.217246 194.635103 
L 339.824446 206.81019 
L 340.628047 209.831211 
L 341.431647 211.152542 
L 342.235248 207.678907 
L 343.038848 208.485904 
L 344.646049 207.594154 
L 345.449649 210.119832 
L 346.253249 210.977253 
L 347.05685 211.357947 
L 347.86045 212.746084 
L 348.66405 217.115072 
L 349.467651 220.139789 
L 351.074851 227.894475 
L 351.878452 228.667895 
L 353.485653 228.112276 
L 354.289253 227.584457 
L 355.092853 221.112966 
L 356.700054 203.213643 
L 357.503654 194.957433 
L 358.307255 190.122074 
L 359.110855 189.56444 
L 359.914455 186.085189 
L 360.718056 186.0606 
L 361.521656 185.235311 
L 362.325257 182.180379 
L 363.128857 174.692514 
L 363.932457 170.207915 
L 364.736058 164.944629 
L 365.539658 160.85478 
L 366.343258 153.693822 
L 367.146859 148.678871 
L 367.950459 144.669889 
L 369.55766 122.963625 
L 370.36126 119.555044 
L 371.16486 111.781686 
L 371.968461 98.133534 
L 373.575662 62.825954 
L 374.379262 53.568 
L 375.182862 55.320413 
L 375.986463 67.791287 
L 376.790063 83.576837 
L 377.593663 88.967846 
L 378.397264 88.484116 
L 379.200864 97.466087 
L 380.808065 120.365611 
L 381.611665 128.235675 
L 383.218866 148.139526 
L 384.022466 172.361094 
L 385.629667 200.203335 
L 386.433267 211.273374 
L 387.236868 220.201008 
L 388.040468 227.000211 
L 388.844068 239.314672 
L 389.647669 239.342684 
L 390.451269 236.768337 
L 391.254869 235.034403 
L 392.05847 237.592229 
L 392.86207 238.456393 
L 393.665671 232.775404 
L 394.469271 221.874707 
L 395.272871 215.123411 
L 396.076472 207.192678 
L 396.880072 197.259279 
L 397.683672 191.387026 
L 398.487273 162.61869 
L 398.487273 162.61869 
" style="fill:none;stroke:#0000ff;stroke-linecap:square;stroke-width:1.5;"/>
   </g>
   <g id="line2d_16">
    <path clip-path="url(#pf5cff0712f)" d="M 73.832727 250.590116 
L 74.636328 250.741194 
L 76.243528 250.602769 
L 77.047129 250.41693 
L 77.850729 249.937169 
L 80.26153 247.064246 
L 81.868731 245.110244 
L 84.279532 242.323368 
L 86.690333 238.752072 
L 87.493933 237.669092 
L 88.297534 236.860525 
L 89.101134 236.337955 
L 89.904734 235.991275 
L 90.708335 235.855126 
L 91.511935 236.058479 
L 92.315536 236.472239 
L 93.922736 237.673263 
L 94.726337 238.029177 
L 95.529937 237.933486 
L 96.333537 237.647667 
L 98.744338 236.275653 
L 99.547939 235.977599 
L 100.351539 235.821772 
L 101.15514 235.87568 
L 101.95874 235.799503 
L 103.565941 235.288728 
L 104.369541 234.938952 
L 105.173141 234.437006 
L 106.780342 233.65458 
L 108.387543 232.744177 
L 109.191143 232.384478 
L 109.994743 232.407384 
L 110.798344 232.694109 
L 113.209145 234.699117 
L 118.030747 241.041242 
L 119.637948 244.534774 
L 122.852349 252.184854 
L 123.65595 253.577262 
L 124.45955 254.736916 
L 125.26315 255.493068 
L 126.870351 256.176627 
L 127.673951 256.945853 
L 129.281152 259.254786 
L 130.084752 260.463161 
L 130.888353 263.608222 
L 132.495554 271.307914 
L 134.102754 279.048714 
L 134.906355 282.308285 
L 135.709955 284.944228 
L 136.513555 286.437156 
L 137.317156 287.070815 
L 138.120756 287.050135 
L 138.924356 286.784317 
L 139.727957 285.861211 
L 140.531557 284.314605 
L 143.745959 276.610266 
L 146.15676 272.373506 
L 147.76396 268.987336 
L 150.978362 261.76018 
L 153.389163 256.037489 
L 154.192763 254.633433 
L 154.996364 253.552227 
L 155.799964 252.70956 
L 156.603564 252.095374 
L 157.407165 251.645425 
L 158.210765 251.47083 
L 159.817966 250.840247 
L 161.425167 249.926339 
L 162.228767 249.704502 
L 163.835968 249.467675 
L 164.639568 249.031922 
L 166.246769 247.757187 
L 168.65757 245.205248 
L 170.26477 242.075929 
L 173.479172 235.061531 
L 175.889973 230.772631 
L 176.693573 229.163004 
L 177.497174 227.859021 
L 178.300774 227.414997 
L 179.104374 227.696043 
L 180.711575 228.839324 
L 181.515176 229.002059 
L 184.729577 230.125629 
L 185.533177 230.264921 
L 186.336778 230.589164 
L 187.140378 231.349303 
L 188.747579 233.403272 
L 191.96198 239.211294 
L 192.765581 240.039823 
L 193.569181 240.659013 
L 195.176382 241.222294 
L 195.979982 240.974309 
L 198.390783 240.729881 
L 199.997984 240.825325 
L 203.212385 241.17452 
L 204.819586 242.1937 
L 206.426787 243.565192 
L 208.033987 244.935462 
L 212.051989 247.96911 
L 212.85559 248.29222 
L 214.46279 248.743507 
L 216.069991 249.587522 
L 218.480792 251.317956 
L 220.087993 252.124771 
L 222.498794 253.049171 
L 223.302394 253.278819 
L 224.909595 253.243138 
L 228.927597 252.220858 
L 231.338398 251.860118 
L 236.16 251.784578 
L 236.9636 251.470054 
L 238.570801 250.507985 
L 239.374401 249.90925 
L 240.178002 249.128253 
L 240.981602 247.561572 
L 242.588803 243.495538 
L 245.803204 234.866704 
L 246.606805 233.357542 
L 249.017606 229.963905 
L 250.624806 228.393242 
L 252.232007 227.529362 
L 253.035608 227.595931 
L 254.642808 228.216994 
L 257.053609 229.429205 
L 257.85721 229.617857 
L 258.66081 229.933215 
L 260.268011 231.077146 
L 261.875212 232.971959 
L 264.286013 236.261894 
L 267.500414 241.194311 
L 269.107615 242.777775 
L 269.911215 243.199313 
L 270.714815 243.771506 
L 271.518416 245.239317 
L 272.322016 247.01817 
L 274.732817 253.167672 
L 276.340018 256.757261 
L 277.143618 258.141758 
L 277.947219 259.213451 
L 278.750819 259.978031 
L 279.554419 260.560898 
L 280.35802 260.754459 
L 281.16162 260.589215 
L 281.965221 260.072718 
L 283.572421 258.533085 
L 285.179622 256.651972 
L 285.983222 256.131389 
L 286.786823 255.797036 
L 287.590423 255.786117 
L 289.197624 255.43983 
L 291.608425 254.545598 
L 294.019226 253.534411 
L 295.626427 253.314221 
L 297.233627 253.032152 
L 298.840828 252.77422 
L 299.644428 252.48029 
L 300.448029 252.016534 
L 301.251629 251.298373 
L 302.05523 250.40305 
L 304.466031 247.305829 
L 305.269631 246.378088 
L 306.073231 245.66406 
L 308.484032 243.987981 
L 309.287633 243.265061 
L 310.091233 241.937493 
L 311.698434 238.328862 
L 313.305635 234.610902 
L 315.716436 229.805944 
L 317.323636 227.429749 
L 318.930837 225.518838 
L 321.341638 223.968445 
L 322.145239 222.596156 
L 322.948839 220.808563 
L 325.35964 216.761258 
L 327.770441 213.850447 
L 328.574041 212.731821 
L 329.377642 211.902219 
L 330.181242 211.460342 
L 330.984842 210.882105 
L 331.788443 209.698953 
L 333.395644 206.670761 
L 335.806445 201.09006 
L 337.413645 198.674131 
L 338.217246 197.866326 
L 339.020846 198.508932 
L 339.824446 200.169184 
L 341.431647 203.91178 
L 343.038848 205.429345 
L 343.842448 205.961967 
L 344.646049 206.288404 
L 347.86045 209.383578 
L 348.66405 210.929877 
L 349.467651 212.771859 
L 350.271251 215.012525 
L 351.878452 219.804711 
L 352.682052 221.530267 
L 353.485653 222.846669 
L 354.289253 223.794226 
L 355.092853 223.257974 
L 355.896454 220.907258 
L 356.700054 217.368535 
L 358.307255 208.333466 
L 359.914455 200.880767 
L 360.718056 197.916733 
L 362.325257 192.740435 
L 363.932457 185.346264 
L 365.539658 177.183705 
L 367.950459 163.113464 
L 368.754059 157.1684 
L 370.36126 144.172965 
L 371.16486 137.694709 
L 371.968461 129.782474 
L 373.575662 108.354126 
L 374.379262 97.3969 
L 375.182862 88.981603 
L 375.986463 84.74354 
L 376.790063 84.510199 
L 377.593663 85.401729 
L 378.397264 86.018206 
L 379.200864 88.307782 
L 380.004464 92.442115 
L 381.611665 104.068586 
L 383.218866 118.286486 
L 384.826067 140.502143 
L 387.236868 175.407066 
L 389.647669 205.023329 
L 390.451269 211.372331 
L 392.05847 220.402242 
L 392.86207 224.013072 
L 393.665671 225.765538 
L 394.469271 224.987372 
L 395.272871 223.01458 
L 396.076472 219.8502 
L 397.683672 210.543018 
L 398.487273 200.958152 
L 398.487273 200.958152 
" style="fill:none;stroke:#ff6347;stroke-linecap:square;stroke-width:1.5;"/>
   </g>
   <g id="patch_3">
    <path d="M 57.6 307.584 
L 57.6 41.472 
" style="fill:none;stroke:#000000;stroke-linecap:square;stroke-linejoin:miter;stroke-width:0.8;"/>
   </g>
   <g id="patch_4">
    <path d="M 414.72 307.584 
L 414.72 41.472 
" style="fill:none;stroke:#000000;stroke-linecap:square;stroke-linejoin:miter;stroke-width:0.8;"/>
   </g>
   <g id="patch_5">
    <path d="M 57.6 307.584 
L 414.72 307.584 
" style="fill:none;stroke:#000000;stroke-linecap:square;stroke-linejoin:miter;stroke-width:0.8;"/>
   </g>
   <g id="patch_6">
    <path d="M 57.6 41.472 
L 414.72 41.472 
" style="fill:none;stroke:#000000;stroke-linecap:square;stroke-linejoin:miter;stroke-width:0.8;"/>
   </g>
   <g id="text_14">
    <!-- Data source: nomics -->
    <g transform="translate(184.91625 35.472)scale(0.1 -0.1)">
     <defs>
      <path d="M 19.671875 64.796875 
L 19.671875 8.109375 
L 31.59375 8.109375 
Q 46.6875 8.109375 53.6875 14.9375 
Q 60.6875 21.78125 60.6875 36.53125 
Q 60.6875 51.171875 53.6875 57.984375 
Q 46.6875 64.796875 31.59375 64.796875 
z
M 9.8125 72.90625 
L 30.078125 72.90625 
Q 51.265625 72.90625 61.171875 64.09375 
Q 71.09375 55.28125 71.09375 36.53125 
Q 71.09375 17.671875 61.125 8.828125 
Q 51.171875 0 30.078125 0 
L 9.8125 0 
z
" id="DejaVuSans-68"/>
      <path d="M 34.28125 27.484375 
Q 23.390625 27.484375 19.1875 25 
Q 14.984375 22.515625 14.984375 16.5 
Q 14.984375 11.71875 18.140625 8.90625 
Q 21.296875 6.109375 26.703125 6.109375 
Q 34.1875 6.109375 38.703125 11.40625 
Q 43.21875 16.703125 43.21875 25.484375 
L 43.21875 27.484375 
z
M 52.203125 31.203125 
L 52.203125 0 
L 43.21875 0 
L 43.21875 8.296875 
Q 40.140625 3.328125 35.546875 0.953125 
Q 30.953125 -1.421875 24.3125 -1.421875 
Q 15.921875 -1.421875 10.953125 3.296875 
Q 6 8.015625 6 15.921875 
Q 6 25.140625 12.171875 29.828125 
Q 18.359375 34.515625 30.609375 34.515625 
L 43.21875 34.515625 
L 43.21875 35.40625 
Q 43.21875 41.609375 39.140625 45 
Q 35.0625 48.390625 27.6875 48.390625 
Q 23 48.390625 18.546875 47.265625 
Q 14.109375 46.140625 10.015625 43.890625 
L 10.015625 52.203125 
Q 14.9375 54.109375 19.578125 55.046875 
Q 24.21875 56 28.609375 56 
Q 40.484375 56 46.34375 49.84375 
Q 52.203125 43.703125 52.203125 31.203125 
z
" id="DejaVuSans-97"/>
      <path d="M 18.3125 70.21875 
L 18.3125 54.6875 
L 36.8125 54.6875 
L 36.8125 47.703125 
L 18.3125 47.703125 
L 18.3125 18.015625 
Q 18.3125 11.328125 20.140625 9.421875 
Q 21.96875 7.515625 27.59375 7.515625 
L 36.8125 7.515625 
L 36.8125 0 
L 27.59375 0 
Q 17.1875 0 13.234375 3.875 
Q 9.28125 7.765625 9.28125 18.015625 
L 9.28125 47.703125 
L 2.6875 47.703125 
L 2.6875 54.6875 
L 9.28125 54.6875 
L 9.28125 70.21875 
z
" id="DejaVuSans-116"/>
      <path id="DejaVuSans-32"/>
      <path d="M 44.28125 53.078125 
L 44.28125 44.578125 
Q 40.484375 46.53125 36.375 47.5 
Q 32.28125 48.484375 27.875 48.484375 
Q 21.1875 48.484375 17.84375 46.4375 
Q 14.5 44.390625 14.5 40.28125 
Q 14.5 37.15625 16.890625 35.375 
Q 19.28125 33.59375 26.515625 31.984375 
L 29.59375 31.296875 
Q 39.15625 29.25 43.1875 25.515625 
Q 47.21875 21.78125 47.21875 15.09375 
Q 47.21875 7.46875 41.1875 3.015625 
Q 35.15625 -1.421875 24.609375 -1.421875 
Q 20.21875 -1.421875 15.453125 -0.5625 
Q 10.6875 0.296875 5.421875 2 
L 5.421875 11.28125 
Q 10.40625 8.6875 15.234375 7.390625 
Q 20.0625 6.109375 24.8125 6.109375 
Q 31.15625 6.109375 34.5625 8.28125 
Q 37.984375 10.453125 37.984375 14.40625 
Q 37.984375 18.0625 35.515625 20.015625 
Q 33.0625 21.96875 24.703125 23.78125 
L 21.578125 24.515625 
Q 13.234375 26.265625 9.515625 29.90625 
Q 5.8125 33.546875 5.8125 39.890625 
Q 5.8125 47.609375 11.28125 51.796875 
Q 16.75 56 26.8125 56 
Q 31.78125 56 36.171875 55.265625 
Q 40.578125 54.546875 44.28125 53.078125 
z
" id="DejaVuSans-115"/>
      <path d="M 30.609375 48.390625 
Q 23.390625 48.390625 19.1875 42.75 
Q 14.984375 37.109375 14.984375 27.296875 
Q 14.984375 17.484375 19.15625 11.84375 
Q 23.34375 6.203125 30.609375 6.203125 
Q 37.796875 6.203125 41.984375 11.859375 
Q 46.1875 17.53125 46.1875 27.296875 
Q 46.1875 37.015625 41.984375 42.703125 
Q 37.796875 48.390625 30.609375 48.390625 
z
M 30.609375 56 
Q 42.328125 56 49.015625 48.375 
Q 55.71875 40.765625 55.71875 27.296875 
Q 55.71875 13.875 49.015625 6.21875 
Q 42.328125 -1.421875 30.609375 -1.421875 
Q 18.84375 -1.421875 12.171875 6.21875 
Q 5.515625 13.875 5.515625 27.296875 
Q 5.515625 40.765625 12.171875 48.375 
Q 18.84375 56 30.609375 56 
z
" id="DejaVuSans-111"/>
      <path d="M 8.5 21.578125 
L 8.5 54.6875 
L 17.484375 54.6875 
L 17.484375 21.921875 
Q 17.484375 14.15625 20.5 10.265625 
Q 23.53125 6.390625 29.59375 6.390625 
Q 36.859375 6.390625 41.078125 11.03125 
Q 45.3125 15.671875 45.3125 23.6875 
L 45.3125 54.6875 
L 54.296875 54.6875 
L 54.296875 0 
L 45.3125 0 
L 45.3125 8.40625 
Q 42.046875 3.421875 37.71875 1 
Q 33.40625 -1.421875 27.6875 -1.421875 
Q 18.265625 -1.421875 13.375 4.4375 
Q 8.5 10.296875 8.5 21.578125 
z
M 31.109375 56 
z
" id="DejaVuSans-117"/>
      <path d="M 41.109375 46.296875 
Q 39.59375 47.171875 37.8125 47.578125 
Q 36.03125 48 33.890625 48 
Q 26.265625 48 22.1875 43.046875 
Q 18.109375 38.09375 18.109375 28.8125 
L 18.109375 0 
L 9.078125 0 
L 9.078125 54.6875 
L 18.109375 54.6875 
L 18.109375 46.1875 
Q 20.953125 51.171875 25.484375 53.578125 
Q 30.03125 56 36.53125 56 
Q 37.453125 56 38.578125 55.875 
Q 39.703125 55.765625 41.0625 55.515625 
z
" id="DejaVuSans-114"/>
      <path d="M 48.78125 52.59375 
L 48.78125 44.1875 
Q 44.96875 46.296875 41.140625 47.34375 
Q 37.3125 48.390625 33.40625 48.390625 
Q 24.65625 48.390625 19.8125 42.84375 
Q 14.984375 37.3125 14.984375 27.296875 
Q 14.984375 17.28125 19.8125 11.734375 
Q 24.65625 6.203125 33.40625 6.203125 
Q 37.3125 6.203125 41.140625 7.25 
Q 44.96875 8.296875 48.78125 10.40625 
L 48.78125 2.09375 
Q 45.015625 0.34375 40.984375 -0.53125 
Q 36.96875 -1.421875 32.421875 -1.421875 
Q 20.0625 -1.421875 12.78125 6.34375 
Q 5.515625 14.109375 5.515625 27.296875 
Q 5.515625 40.671875 12.859375 48.328125 
Q 20.21875 56 33.015625 56 
Q 37.15625 56 41.109375 55.140625 
Q 45.0625 54.296875 48.78125 52.59375 
z
" id="DejaVuSans-99"/>
      <path d="M 56.203125 29.59375 
L 56.203125 25.203125 
L 14.890625 25.203125 
Q 15.484375 15.921875 20.484375 11.0625 
Q 25.484375 6.203125 34.421875 6.203125 
Q 39.59375 6.203125 44.453125 7.46875 
Q 49.3125 8.734375 54.109375 11.28125 
L 54.109375 2.78125 
Q 49.265625 0.734375 44.1875 -0.34375 
Q 39.109375 -1.421875 33.890625 -1.421875 
Q 20.796875 -1.421875 13.15625 6.1875 
Q 5.515625 13.8125 5.515625 26.8125 
Q 5.515625 40.234375 12.765625 48.109375 
Q 20.015625 56 32.328125 56 
Q 43.359375 56 49.78125 48.890625 
Q 56.203125 41.796875 56.203125 29.59375 
z
M 47.21875 32.234375 
Q 47.125 39.59375 43.09375 43.984375 
Q 39.0625 48.390625 32.421875 48.390625 
Q 24.90625 48.390625 20.390625 44.140625 
Q 15.875 39.890625 15.1875 32.171875 
z
" id="DejaVuSans-101"/>
      <path d="M 11.71875 12.40625 
L 22.015625 12.40625 
L 22.015625 0 
L 11.71875 0 
z
M 11.71875 51.703125 
L 22.015625 51.703125 
L 22.015625 39.3125 
L 11.71875 39.3125 
z
" id="DejaVuSans-58"/>
      <path d="M 54.890625 33.015625 
L 54.890625 0 
L 45.90625 0 
L 45.90625 32.71875 
Q 45.90625 40.484375 42.875 44.328125 
Q 39.84375 48.1875 33.796875 48.1875 
Q 26.515625 48.1875 22.3125 43.546875 
Q 18.109375 38.921875 18.109375 30.90625 
L 18.109375 0 
L 9.078125 0 
L 9.078125 54.6875 
L 18.109375 54.6875 
L 18.109375 46.1875 
Q 21.34375 51.125 25.703125 53.5625 
Q 30.078125 56 35.796875 56 
Q 45.21875 56 50.046875 50.171875 
Q 54.890625 44.34375 54.890625 33.015625 
z
" id="DejaVuSans-110"/>
      <path d="M 52 44.1875 
Q 55.375 50.25 60.0625 53.125 
Q 64.75 56 71.09375 56 
Q 79.640625 56 84.28125 50.015625 
Q 88.921875 44.046875 88.921875 33.015625 
L 88.921875 0 
L 79.890625 0 
L 79.890625 32.71875 
Q 79.890625 40.578125 77.09375 44.375 
Q 74.3125 48.1875 68.609375 48.1875 
Q 61.625 48.1875 57.5625 43.546875 
Q 53.515625 38.921875 53.515625 30.90625 
L 53.515625 0 
L 44.484375 0 
L 44.484375 32.71875 
Q 44.484375 40.625 41.703125 44.40625 
Q 38.921875 48.1875 33.109375 48.1875 
Q 26.21875 48.1875 22.15625 43.53125 
Q 18.109375 38.875 18.109375 30.90625 
L 18.109375 0 
L 9.078125 0 
L 9.078125 54.6875 
L 18.109375 54.6875 
L 18.109375 46.1875 
Q 21.1875 51.21875 25.484375 53.609375 
Q 29.78125 56 35.6875 56 
Q 41.65625 56 45.828125 52.96875 
Q 50 49.953125 52 44.1875 
z
" id="DejaVuSans-109"/>
      <path d="M 9.421875 54.6875 
L 18.40625 54.6875 
L 18.40625 0 
L 9.421875 0 
z
M 9.421875 75.984375 
L 18.40625 75.984375 
L 18.40625 64.59375 
L 9.421875 64.59375 
z
" id="DejaVuSans-105"/>
     </defs>
     <use xlink:href="#DejaVuSans-68"/>
     <use x="77.001953" xlink:href="#DejaVuSans-97"/>
     <use x="138.28125" xlink:href="#DejaVuSans-116"/>
     <use x="177.490234" xlink:href="#DejaVuSans-97"/>
     <use x="238.769531" xlink:href="#DejaVuSans-32"/>
     <use x="270.556641" xlink:href="#DejaVuSans-115"/>
     <use x="322.65625" xlink:href="#DejaVuSans-111"/>
     <use x="383.837891" xlink:href="#DejaVuSans-117"/>
     <use x="447.216797" xlink:href="#DejaVuSans-114"/>
     <use x="486.080078" xlink:href="#DejaVuSans-99"/>
     <use x="541.060547" xlink:href="#DejaVuSans-101"/>
     <use x="602.583984" xlink:href="#DejaVuSans-58"/>
     <use x="636.275391" xlink:href="#DejaVuSans-32"/>
     <use x="668.0625" xlink:href="#DejaVuSans-110"/>
     <use x="731.441406" xlink:href="#DejaVuSans-111"/>
     <use x="792.623047" xlink:href="#DejaVuSans-109"/>
     <use x="890.035156" xlink:href="#DejaVuSans-105"/>
     <use x="917.818359" xlink:href="#DejaVuSans-99"/>
     <use x="972.798828" xlink:href="#DejaVuSans-115"/>
    </g>
   </g>
   <g id="legend_1">
    <g id="patch_7">
     <path d="M 64.6 78.82825 
L 127.31875 78.82825 
Q 129.31875 78.82825 129.31875 76.82825 
L 129.31875 48.472 
Q 129.31875 46.472 127.31875 46.472 
L 64.6 46.472 
Q 62.6 46.472 62.6 48.472 
L 62.6 76.82825 
Q 62.6 78.82825 64.6 78.82825 
z
" style="fill:#ffffff;opacity:0.8;stroke:#cccccc;stroke-linejoin:miter;"/>
    </g>
    <g id="line2d_17">
     <path d="M 66.6 54.570437 
L 86.6 54.570437 
" style="fill:none;stroke:#0000ff;stroke-linecap:square;stroke-width:1.5;"/>
    </g>
    <g id="line2d_18"/>
    <g id="text_15">
     <!-- MACD -->
     <g transform="translate(94.6 58.070437)scale(0.1 -0.1)">
      <defs>
       <path d="M 9.8125 72.90625 
L 24.515625 72.90625 
L 43.109375 23.296875 
L 61.8125 72.90625 
L 76.515625 72.90625 
L 76.515625 0 
L 66.890625 0 
L 66.890625 64.015625 
L 48.09375 14.015625 
L 38.1875 14.015625 
L 19.390625 64.015625 
L 19.390625 0 
L 9.8125 0 
z
" id="DejaVuSans-77"/>
       <path d="M 34.1875 63.1875 
L 20.796875 26.90625 
L 47.609375 26.90625 
z
M 28.609375 72.90625 
L 39.796875 72.90625 
L 67.578125 0 
L 57.328125 0 
L 50.6875 18.703125 
L 17.828125 18.703125 
L 11.1875 0 
L 0.78125 0 
z
" id="DejaVuSans-65"/>
       <path d="M 64.40625 67.28125 
L 64.40625 56.890625 
Q 59.421875 61.53125 53.78125 63.8125 
Q 48.140625 66.109375 41.796875 66.109375 
Q 29.296875 66.109375 22.65625 58.46875 
Q 16.015625 50.828125 16.015625 36.375 
Q 16.015625 21.96875 22.65625 14.328125 
Q 29.296875 6.6875 41.796875 6.6875 
Q 48.140625 6.6875 53.78125 8.984375 
Q 59.421875 11.28125 64.40625 15.921875 
L 64.40625 5.609375 
Q 59.234375 2.09375 53.4375 0.328125 
Q 47.65625 -1.421875 41.21875 -1.421875 
Q 24.65625 -1.421875 15.125 8.703125 
Q 5.609375 18.84375 5.609375 36.375 
Q 5.609375 53.953125 15.125 64.078125 
Q 24.65625 74.21875 41.21875 74.21875 
Q 47.75 74.21875 53.53125 72.484375 
Q 59.328125 70.75 64.40625 67.28125 
z
" id="DejaVuSans-67"/>
      </defs>
      <use xlink:href="#DejaVuSans-77"/>
      <use x="86.279297" xlink:href="#DejaVuSans-65"/>
      <use x="152.9375" xlink:href="#DejaVuSans-67"/>
      <use x="222.761719" xlink:href="#DejaVuSans-68"/>
     </g>
    </g>
    <g id="line2d_19">
     <path d="M 66.6 69.248562 
L 86.6 69.248562 
" style="fill:none;stroke:#ff6347;stroke-linecap:square;stroke-width:1.5;"/>
    </g>
    <g id="line2d_20"/>
    <g id="text_16">
     <!-- Signal -->
     <g transform="translate(94.6 72.748562)scale(0.1 -0.1)">
      <defs>
       <path d="M 53.515625 70.515625 
L 53.515625 60.890625 
Q 47.90625 63.578125 42.921875 64.890625 
Q 37.9375 66.21875 33.296875 66.21875 
Q 25.25 66.21875 20.875 63.09375 
Q 16.5 59.96875 16.5 54.203125 
Q 16.5 49.359375 19.40625 46.890625 
Q 22.3125 44.4375 30.421875 42.921875 
L 36.375 41.703125 
Q 47.40625 39.59375 52.65625 34.296875 
Q 57.90625 29 57.90625 20.125 
Q 57.90625 9.515625 50.796875 4.046875 
Q 43.703125 -1.421875 29.984375 -1.421875 
Q 24.8125 -1.421875 18.96875 -0.25 
Q 13.140625 0.921875 6.890625 3.21875 
L 6.890625 13.375 
Q 12.890625 10.015625 18.65625 8.296875 
Q 24.421875 6.59375 29.984375 6.59375 
Q 38.421875 6.59375 43.015625 9.90625 
Q 47.609375 13.234375 47.609375 19.390625 
Q 47.609375 24.75 44.3125 27.78125 
Q 41.015625 30.8125 33.5 32.328125 
L 27.484375 33.5 
Q 16.453125 35.6875 11.515625 40.375 
Q 6.59375 45.0625 6.59375 53.421875 
Q 6.59375 63.09375 13.40625 68.65625 
Q 20.21875 74.21875 32.171875 74.21875 
Q 37.3125 74.21875 42.625 73.28125 
Q 47.953125 72.359375 53.515625 70.515625 
z
" id="DejaVuSans-83"/>
       <path d="M 45.40625 27.984375 
Q 45.40625 37.75 41.375 43.109375 
Q 37.359375 48.484375 30.078125 48.484375 
Q 22.859375 48.484375 18.828125 43.109375 
Q 14.796875 37.75 14.796875 27.984375 
Q 14.796875 18.265625 18.828125 12.890625 
Q 22.859375 7.515625 30.078125 7.515625 
Q 37.359375 7.515625 41.375 12.890625 
Q 45.40625 18.265625 45.40625 27.984375 
z
M 54.390625 6.78125 
Q 54.390625 -7.171875 48.1875 -13.984375 
Q 42 -20.796875 29.203125 -20.796875 
Q 24.46875 -20.796875 20.265625 -20.09375 
Q 16.0625 -19.390625 12.109375 -17.921875 
L 12.109375 -9.1875 
Q 16.0625 -11.328125 19.921875 -12.34375 
Q 23.78125 -13.375 27.78125 -13.375 
Q 36.625 -13.375 41.015625 -8.765625 
Q 45.40625 -4.15625 45.40625 5.171875 
L 45.40625 9.625 
Q 42.625 4.78125 38.28125 2.390625 
Q 33.9375 0 27.875 0 
Q 17.828125 0 11.671875 7.65625 
Q 5.515625 15.328125 5.515625 27.984375 
Q 5.515625 40.671875 11.671875 48.328125 
Q 17.828125 56 27.875 56 
Q 33.9375 56 38.28125 53.609375 
Q 42.625 51.21875 45.40625 46.390625 
L 45.40625 54.6875 
L 54.390625 54.6875 
z
" id="DejaVuSans-103"/>
       <path d="M 9.421875 75.984375 
L 18.40625 75.984375 
L 18.40625 0 
L 9.421875 0 
z
" id="DejaVuSans-108"/>
      </defs>
      <use xlink:href="#DejaVuSans-83"/>
      <use x="63.476562" xlink:href="#DejaVuSans-105"/>
      <use x="91.259766" xlink:href="#DejaVuSans-103"/>
      <use x="154.736328" xlink:href="#DejaVuSans-110"/>
      <use x="218.115234" xlink:href="#DejaVuSans-97"/>
      <use x="279.394531" xlink:href="#DejaVuSans-108"/>
     </g>
    </g>
   </g>
  </g>
  <g id="text_17">
   <!-- MACD -->
   <g transform="translate(206.41875 19.0695)scale(0.16 -0.16)">
    <use xlink:href="#DejaVuSans-77"/>
    <use x="86.279297" xlink:href="#DejaVuSans-65"/>
    <use x="152.9375" xlink:href="#DejaVuSans-67"/>
    <use x="222.761719" xlink:href="#DejaVuSans-68"/>
   </g>
  </g>
 </g>
 <defs>
  <clipPath id="pf5cff0712f">
   <rect height="266.112" width="357.12" x="57.6" y="41.472"/>
  </clipPath>
 </defs>
</svg>
