<?xml version="1.0" encoding="utf-8" standalone="no"?>
<!DOCTYPE svg PUBLIC "-//W3C//DTD SVG 1.1//EN"
  "http://www.w3.org/Graphics/SVG/1.1/DTD/svg11.dtd">
<!-- Created with matplotlib (https://matplotlib.org/) -->
<svg height="345.6pt" version="1.1" viewBox="0 0 460.8 345.6" width="460.8pt" xmlns="http://www.w3.org/2000/svg" xmlns:xlink="http://www.w3.org/1999/xlink">
 <metadata>
  <rdf:RDF xmlns:cc="http://creativecommons.org/ns#" xmlns:dc="http://purl.org/dc/elements/1.1/" xmlns:rdf="http://www.w3.org/1999/02/22-rdf-syntax-ns#">
   <cc:Work>
    <dc:type rdf:resource="http://purl.org/dc/dcmitype/StillImage"/>
    <dc:date>2021-04-17T19:00:07.105546</dc:date>
    <dc:format>image/svg+xml</dc:format>
    <dc:creator>
     <cc:Agent>
      <dc:title>Matplotlib v3.3.2, https://matplotlib.org/</dc:title>
     </cc:Agent>
    </dc:creator>
   </cc:Work>
  </rdf:RDF>
 </metadata>
 <defs>
  <style type="text/css">*{stroke-linecap:butt;stroke-linejoin:round;}</style>
 </defs>
 <g id="figure_1">
  <g id="patch_1">
   <path d="M 0 345.6 
L 460.8 345.6 
L 460.8 0 
L 0 0 
z
" style="fill:#ffffff;"/>
  </g>
  <g id="axes_1">
   <g id="patch_2">
    <path d="M 57.6 307.584 
L 414.72 307.584 
L 414.72 41.472 
L 57.6 41.472 
z
" style="fill:#ffffff;"/>
   </g>
   <g id="matplotlib.axis_1">
    <g id="xtick_1">
     <g id="line2d_1">
      <defs>
       <path d="M 0 0 
L 0 3.5 
" id="m80c157dded" style="stroke:#000000;stroke-width:0.8;"/>
      </defs>
      <g>
       <use style="stroke:#000000;stroke-width:0.8;" x="73.832727" xlink:href="#m80c157dded" y="307.584"/>
      </g>
     </g>
     <g id="text_1">
      <!-- 2020-01 -->
      <g transform="translate(52.941321 322.182437)scale(0.1 -0.1)">
       <defs>
        <path d="M 19.1875 8.296875 
L 53.609375 8.296875 
L 53.609375 0 
L 7.328125 0 
L 7.328125 8.296875 
Q 12.9375 14.109375 22.625 23.890625 
Q 32.328125 33.6875 34.8125 36.53125 
Q 39.546875 41.84375 41.421875 45.53125 
Q 43.3125 49.21875 43.3125 52.78125 
Q 43.3125 58.59375 39.234375 62.25 
Q 35.15625 65.921875 28.609375 65.921875 
Q 23.96875 65.921875 18.8125 64.3125 
Q 13.671875 62.703125 7.8125 59.421875 
L 7.8125 69.390625 
Q 13.765625 71.78125 18.9375 73 
Q 24.125 74.21875 28.421875 74.21875 
Q 39.75 74.21875 46.484375 68.546875 
Q 53.21875 62.890625 53.21875 53.421875 
Q 53.21875 48.921875 51.53125 44.890625 
Q 49.859375 40.875 45.40625 35.40625 
Q 44.1875 33.984375 37.640625 27.21875 
Q 31.109375 20.453125 19.1875 8.296875 
z
" id="DejaVuSans-50"/>
        <path d="M 31.78125 66.40625 
Q 24.171875 66.40625 20.328125 58.90625 
Q 16.5 51.421875 16.5 36.375 
Q 16.5 21.390625 20.328125 13.890625 
Q 24.171875 6.390625 31.78125 6.390625 
Q 39.453125 6.390625 43.28125 13.890625 
Q 47.125 21.390625 47.125 36.375 
Q 47.125 51.421875 43.28125 58.90625 
Q 39.453125 66.40625 31.78125 66.40625 
z
M 31.78125 74.21875 
Q 44.046875 74.21875 50.515625 64.515625 
Q 56.984375 54.828125 56.984375 36.375 
Q 56.984375 17.96875 50.515625 8.265625 
Q 44.046875 -1.421875 31.78125 -1.421875 
Q 19.53125 -1.421875 13.0625 8.265625 
Q 6.59375 17.96875 6.59375 36.375 
Q 6.59375 54.828125 13.0625 64.515625 
Q 19.53125 74.21875 31.78125 74.21875 
z
" id="DejaVuSans-48"/>
        <path d="M 4.890625 31.390625 
L 31.203125 31.390625 
L 31.203125 23.390625 
L 4.890625 23.390625 
z
" id="DejaVuSans-45"/>
        <path d="M 12.40625 8.296875 
L 28.515625 8.296875 
L 28.515625 63.921875 
L 10.984375 60.40625 
L 10.984375 69.390625 
L 28.421875 72.90625 
L 38.28125 72.90625 
L 38.28125 8.296875 
L 54.390625 8.296875 
L 54.390625 0 
L 12.40625 0 
z
" id="DejaVuSans-49"/>
       </defs>
       <use xlink:href="#DejaVuSans-50"/>
       <use x="63.623047" xlink:href="#DejaVuSans-48"/>
       <use x="127.246094" xlink:href="#DejaVuSans-50"/>
       <use x="190.869141" xlink:href="#DejaVuSans-48"/>
       <use x="254.492188" xlink:href="#DejaVuSans-45"/>
       <use x="290.576172" xlink:href="#DejaVuSans-48"/>
       <use x="354.199219" xlink:href="#DejaVuSans-49"/>
      </g>
     </g>
    </g>
    <g id="xtick_2">
     <g id="line2d_2">
      <g>
       <use style="stroke:#000000;stroke-width:0.8;" x="115.189994" xlink:href="#m80c157dded" y="307.584"/>
      </g>
     </g>
     <g id="text_2">
      <!-- 2020-03 -->
      <g transform="translate(94.298588 322.182437)scale(0.1 -0.1)">
       <defs>
        <path d="M 40.578125 39.3125 
Q 47.65625 37.796875 51.625 33 
Q 55.609375 28.21875 55.609375 21.1875 
Q 55.609375 10.40625 48.1875 4.484375 
Q 40.765625 -1.421875 27.09375 -1.421875 
Q 22.515625 -1.421875 17.65625 -0.515625 
Q 12.796875 0.390625 7.625 2.203125 
L 7.625 11.71875 
Q 11.71875 9.328125 16.59375 8.109375 
Q 21.484375 6.890625 26.8125 6.890625 
Q 36.078125 6.890625 40.9375 10.546875 
Q 45.796875 14.203125 45.796875 21.1875 
Q 45.796875 27.640625 41.28125 31.265625 
Q 36.765625 34.90625 28.71875 34.90625 
L 20.21875 34.90625 
L 20.21875 43.015625 
L 29.109375 43.015625 
Q 36.375 43.015625 40.234375 45.921875 
Q 44.09375 48.828125 44.09375 54.296875 
Q 44.09375 59.90625 40.109375 62.90625 
Q 36.140625 65.921875 28.71875 65.921875 
Q 24.65625 65.921875 20.015625 65.03125 
Q 15.375 64.15625 9.8125 62.3125 
L 9.8125 71.09375 
Q 15.4375 72.65625 20.34375 73.4375 
Q 25.25 74.21875 29.59375 74.21875 
Q 40.828125 74.21875 47.359375 69.109375 
Q 53.90625 64.015625 53.90625 55.328125 
Q 53.90625 49.265625 50.4375 45.09375 
Q 46.96875 40.921875 40.578125 39.3125 
z
" id="DejaVuSans-51"/>
       </defs>
       <use xlink:href="#DejaVuSans-50"/>
       <use x="63.623047" xlink:href="#DejaVuSans-48"/>
       <use x="127.246094" xlink:href="#DejaVuSans-50"/>
       <use x="190.869141" xlink:href="#DejaVuSans-48"/>
       <use x="254.492188" xlink:href="#DejaVuSans-45"/>
       <use x="290.576172" xlink:href="#DejaVuSans-48"/>
       <use x="354.199219" xlink:href="#DejaVuSans-51"/>
      </g>
     </g>
    </g>
    <g id="xtick_3">
     <g id="line2d_3">
      <g>
       <use style="stroke:#000000;stroke-width:0.8;" x="157.236549" xlink:href="#m80c157dded" y="307.584"/>
      </g>
     </g>
     <g id="text_3">
      <!-- 2020-05 -->
      <g transform="translate(136.345143 322.182437)scale(0.1 -0.1)">
       <defs>
        <path d="M 10.796875 72.90625 
L 49.515625 72.90625 
L 49.515625 64.59375 
L 19.828125 64.59375 
L 19.828125 46.734375 
Q 21.96875 47.46875 24.109375 47.828125 
Q 26.265625 48.1875 28.421875 48.1875 
Q 40.625 48.1875 47.75 41.5 
Q 54.890625 34.8125 54.890625 23.390625 
Q 54.890625 11.625 47.5625 5.09375 
Q 40.234375 -1.421875 26.90625 -1.421875 
Q 22.3125 -1.421875 17.546875 -0.640625 
Q 12.796875 0.140625 7.71875 1.703125 
L 7.71875 11.625 
Q 12.109375 9.234375 16.796875 8.0625 
Q 21.484375 6.890625 26.703125 6.890625 
Q 35.15625 6.890625 40.078125 11.328125 
Q 45.015625 15.765625 45.015625 23.390625 
Q 45.015625 31 40.078125 35.4375 
Q 35.15625 39.890625 26.703125 39.890625 
Q 22.75 39.890625 18.8125 39.015625 
Q 14.890625 38.140625 10.796875 36.28125 
z
" id="DejaVuSans-53"/>
       </defs>
       <use xlink:href="#DejaVuSans-50"/>
       <use x="63.623047" xlink:href="#DejaVuSans-48"/>
       <use x="127.246094" xlink:href="#DejaVuSans-50"/>
       <use x="190.869141" xlink:href="#DejaVuSans-48"/>
       <use x="254.492188" xlink:href="#DejaVuSans-45"/>
       <use x="290.576172" xlink:href="#DejaVuSans-48"/>
       <use x="354.199219" xlink:href="#DejaVuSans-53"/>
      </g>
     </g>
    </g>
    <g id="xtick_4">
     <g id="line2d_4">
      <g>
       <use style="stroke:#000000;stroke-width:0.8;" x="199.283104" xlink:href="#m80c157dded" y="307.584"/>
      </g>
     </g>
     <g id="text_4">
      <!-- 2020-07 -->
      <g transform="translate(178.391697 322.182437)scale(0.1 -0.1)">
       <defs>
        <path d="M 8.203125 72.90625 
L 55.078125 72.90625 
L 55.078125 68.703125 
L 28.609375 0 
L 18.3125 0 
L 43.21875 64.59375 
L 8.203125 64.59375 
z
" id="DejaVuSans-55"/>
       </defs>
       <use xlink:href="#DejaVuSans-50"/>
       <use x="63.623047" xlink:href="#DejaVuSans-48"/>
       <use x="127.246094" xlink:href="#DejaVuSans-50"/>
       <use x="190.869141" xlink:href="#DejaVuSans-48"/>
       <use x="254.492188" xlink:href="#DejaVuSans-45"/>
       <use x="290.576172" xlink:href="#DejaVuSans-48"/>
       <use x="354.199219" xlink:href="#DejaVuSans-55"/>
      </g>
     </g>
    </g>
    <g id="xtick_5">
     <g id="line2d_5">
      <g>
       <use style="stroke:#000000;stroke-width:0.8;" x="242.018946" xlink:href="#m80c157dded" y="307.584"/>
      </g>
     </g>
     <g id="text_5">
      <!-- 2020-09 -->
      <g transform="translate(221.12754 322.182437)scale(0.1 -0.1)">
       <defs>
        <path d="M 10.984375 1.515625 
L 10.984375 10.5 
Q 14.703125 8.734375 18.5 7.8125 
Q 22.3125 6.890625 25.984375 6.890625 
Q 35.75 6.890625 40.890625 13.453125 
Q 46.046875 20.015625 46.78125 33.40625 
Q 43.953125 29.203125 39.59375 26.953125 
Q 35.25 24.703125 29.984375 24.703125 
Q 19.046875 24.703125 12.671875 31.3125 
Q 6.296875 37.9375 6.296875 49.421875 
Q 6.296875 60.640625 12.9375 67.421875 
Q 19.578125 74.21875 30.609375 74.21875 
Q 43.265625 74.21875 49.921875 64.515625 
Q 56.59375 54.828125 56.59375 36.375 
Q 56.59375 19.140625 48.40625 8.859375 
Q 40.234375 -1.421875 26.421875 -1.421875 
Q 22.703125 -1.421875 18.890625 -0.6875 
Q 15.09375 0.046875 10.984375 1.515625 
z
M 30.609375 32.421875 
Q 37.25 32.421875 41.125 36.953125 
Q 45.015625 41.5 45.015625 49.421875 
Q 45.015625 57.28125 41.125 61.84375 
Q 37.25 66.40625 30.609375 66.40625 
Q 23.96875 66.40625 20.09375 61.84375 
Q 16.21875 57.28125 16.21875 49.421875 
Q 16.21875 41.5 20.09375 36.953125 
Q 23.96875 32.421875 30.609375 32.421875 
z
" id="DejaVuSans-57"/>
       </defs>
       <use xlink:href="#DejaVuSans-50"/>
       <use x="63.623047" xlink:href="#DejaVuSans-48"/>
       <use x="127.246094" xlink:href="#DejaVuSans-50"/>
       <use x="190.869141" xlink:href="#DejaVuSans-48"/>
       <use x="254.492188" xlink:href="#DejaVuSans-45"/>
       <use x="290.576172" xlink:href="#DejaVuSans-48"/>
       <use x="354.199219" xlink:href="#DejaVuSans-57"/>
      </g>
     </g>
    </g>
    <g id="xtick_6">
     <g id="line2d_6">
      <g>
       <use style="stroke:#000000;stroke-width:0.8;" x="284.065501" xlink:href="#m80c157dded" y="307.584"/>
      </g>
     </g>
     <g id="text_6">
      <!-- 2020-11 -->
      <g transform="translate(263.174095 322.182437)scale(0.1 -0.1)">
       <use xlink:href="#DejaVuSans-50"/>
       <use x="63.623047" xlink:href="#DejaVuSans-48"/>
       <use x="127.246094" xlink:href="#DejaVuSans-50"/>
       <use x="190.869141" xlink:href="#DejaVuSans-48"/>
       <use x="254.492188" xlink:href="#DejaVuSans-45"/>
       <use x="290.576172" xlink:href="#DejaVuSans-49"/>
       <use x="354.199219" xlink:href="#DejaVuSans-49"/>
      </g>
     </g>
    </g>
    <g id="xtick_7">
     <g id="line2d_7">
      <g>
       <use style="stroke:#000000;stroke-width:0.8;" x="326.112056" xlink:href="#m80c157dded" y="307.584"/>
      </g>
     </g>
     <g id="text_7">
      <!-- 2021-01 -->
      <g transform="translate(305.220649 322.182437)scale(0.1 -0.1)">
       <use xlink:href="#DejaVuSans-50"/>
       <use x="63.623047" xlink:href="#DejaVuSans-48"/>
       <use x="127.246094" xlink:href="#DejaVuSans-50"/>
       <use x="190.869141" xlink:href="#DejaVuSans-49"/>
       <use x="254.492188" xlink:href="#DejaVuSans-45"/>
       <use x="290.576172" xlink:href="#DejaVuSans-48"/>
       <use x="354.199219" xlink:href="#DejaVuSans-49"/>
      </g>
     </g>
    </g>
    <g id="xtick_8">
     <g id="line2d_8">
      <g>
       <use style="stroke:#000000;stroke-width:0.8;" x="366.780035" xlink:href="#m80c157dded" y="307.584"/>
      </g>
     </g>
     <g id="text_8">
      <!-- 2021-03 -->
      <g transform="translate(345.888628 322.182437)scale(0.1 -0.1)">
       <use xlink:href="#DejaVuSans-50"/>
       <use x="63.623047" xlink:href="#DejaVuSans-48"/>
       <use x="127.246094" xlink:href="#DejaVuSans-50"/>
       <use x="190.869141" xlink:href="#DejaVuSans-49"/>
       <use x="254.492188" xlink:href="#DejaVuSans-45"/>
       <use x="290.576172" xlink:href="#DejaVuSans-48"/>
       <use x="354.199219" xlink:href="#DejaVuSans-51"/>
      </g>
     </g>
    </g>
    <g id="xtick_9">
     <g id="line2d_9">
      <g>
       <use style="stroke:#000000;stroke-width:0.8;" x="408.826589" xlink:href="#m80c157dded" y="307.584"/>
      </g>
     </g>
     <g id="text_9">
      <!-- 2021-05 -->
      <g transform="translate(387.935183 322.182437)scale(0.1 -0.1)">
       <use xlink:href="#DejaVuSans-50"/>
       <use x="63.623047" xlink:href="#DejaVuSans-48"/>
       <use x="127.246094" xlink:href="#DejaVuSans-50"/>
       <use x="190.869141" xlink:href="#DejaVuSans-49"/>
       <use x="254.492188" xlink:href="#DejaVuSans-45"/>
       <use x="290.576172" xlink:href="#DejaVuSans-48"/>
       <use x="354.199219" xlink:href="#DejaVuSans-53"/>
      </g>
     </g>
    </g>
   </g>
   <g id="matplotlib.axis_2">
    <g id="ytick_1">
     <g id="line2d_10">
      <defs>
       <path d="M 0 0 
L -3.5 0 
" id="m21ac649f5d" style="stroke:#000000;stroke-width:0.8;"/>
      </defs>
      <g>
       <use style="stroke:#000000;stroke-width:0.8;" x="57.6" xlink:href="#m21ac649f5d" y="292.42934"/>
      </g>
     </g>
     <g id="text_10">
      <!-- −1000 -->
      <g transform="translate(16.770313 296.228559)scale(0.1 -0.1)">
       <defs>
        <path d="M 10.59375 35.5 
L 73.1875 35.5 
L 73.1875 27.203125 
L 10.59375 27.203125 
z
" id="DejaVuSans-8722"/>
       </defs>
       <use xlink:href="#DejaVuSans-8722"/>
       <use x="83.789062" xlink:href="#DejaVuSans-49"/>
       <use x="147.412109" xlink:href="#DejaVuSans-48"/>
       <use x="211.035156" xlink:href="#DejaVuSans-48"/>
       <use x="274.658203" xlink:href="#DejaVuSans-48"/>
      </g>
     </g>
    </g>
    <g id="ytick_2">
     <g id="line2d_11">
      <g>
       <use style="stroke:#000000;stroke-width:0.8;" x="57.6" xlink:href="#m21ac649f5d" y="254.185577"/>
      </g>
     </g>
     <g id="text_11">
      <!-- 0 -->
      <g transform="translate(44.2375 257.984796)scale(0.1 -0.1)">
       <use xlink:href="#DejaVuSans-48"/>
      </g>
     </g>
    </g>
    <g id="ytick_3">
     <g id="line2d_12">
      <g>
       <use style="stroke:#000000;stroke-width:0.8;" x="57.6" xlink:href="#m21ac649f5d" y="215.941814"/>
      </g>
     </g>
     <g id="text_12">
      <!-- 1000 -->
      <g transform="translate(25.15 219.741033)scale(0.1 -0.1)">
       <use xlink:href="#DejaVuSans-49"/>
       <use x="63.623047" xlink:href="#DejaVuSans-48"/>
       <use x="127.246094" xlink:href="#DejaVuSans-48"/>
       <use x="190.869141" xlink:href="#DejaVuSans-48"/>
      </g>
     </g>
    </g>
    <g id="ytick_4">
     <g id="line2d_13">
      <g>
       <use style="stroke:#000000;stroke-width:0.8;" x="57.6" xlink:href="#m21ac649f5d" y="177.698052"/>
      </g>
     </g>
     <g id="text_13">
      <!-- 2000 -->
      <g transform="translate(25.15 181.49727)scale(0.1 -0.1)">
       <use xlink:href="#DejaVuSans-50"/>
       <use x="63.623047" xlink:href="#DejaVuSans-48"/>
       <use x="127.246094" xlink:href="#DejaVuSans-48"/>
       <use x="190.869141" xlink:href="#DejaVuSans-48"/>
      </g>
     </g>
    </g>
    <g id="ytick_5">
     <g id="line2d_14">
      <g>
       <use style="stroke:#000000;stroke-width:0.8;" x="57.6" xlink:href="#m21ac649f5d" y="139.454289"/>
      </g>
     </g>
     <g id="text_14">
      <!-- 3000 -->
      <g transform="translate(25.15 143.253508)scale(0.1 -0.1)">
       <use xlink:href="#DejaVuSans-51"/>
       <use x="63.623047" xlink:href="#DejaVuSans-48"/>
       <use x="127.246094" xlink:href="#DejaVuSans-48"/>
       <use x="190.869141" xlink:href="#DejaVuSans-48"/>
      </g>
     </g>
    </g>
    <g id="ytick_6">
     <g id="line2d_15">
      <g>
       <use style="stroke:#000000;stroke-width:0.8;" x="57.6" xlink:href="#m21ac649f5d" y="101.210526"/>
      </g>
     </g>
     <g id="text_15">
      <!-- 4000 -->
      <g transform="translate(25.15 105.009745)scale(0.1 -0.1)">
       <defs>
        <path d="M 37.796875 64.3125 
L 12.890625 25.390625 
L 37.796875 25.390625 
z
M 35.203125 72.90625 
L 47.609375 72.90625 
L 47.609375 25.390625 
L 58.015625 25.390625 
L 58.015625 17.1875 
L 47.609375 17.1875 
L 47.609375 0 
L 37.796875 0 
L 37.796875 17.1875 
L 4.890625 17.1875 
L 4.890625 26.703125 
z
" id="DejaVuSans-52"/>
       </defs>
       <use xlink:href="#DejaVuSans-52"/>
       <use x="63.623047" xlink:href="#DejaVuSans-48"/>
       <use x="127.246094" xlink:href="#DejaVuSans-48"/>
       <use x="190.869141" xlink:href="#DejaVuSans-48"/>
      </g>
     </g>
    </g>
    <g id="ytick_7">
     <g id="line2d_16">
      <g>
       <use style="stroke:#000000;stroke-width:0.8;" x="57.6" xlink:href="#m21ac649f5d" y="62.966763"/>
      </g>
     </g>
     <g id="text_16">
      <!-- 5000 -->
      <g transform="translate(25.15 66.765982)scale(0.1 -0.1)">
       <use xlink:href="#DejaVuSans-53"/>
       <use x="63.623047" xlink:href="#DejaVuSans-48"/>
       <use x="127.246094" xlink:href="#DejaVuSans-48"/>
       <use x="190.869141" xlink:href="#DejaVuSans-48"/>
      </g>
     </g>
    </g>
   </g>
   <g id="line2d_17">
    <path clip-path="url(#pfd8a051073)" d="M 73.832727 254.185577 
L 398.487273 254.185577 
L 398.487273 254.185577 
" style="fill:none;stroke:#1f77b4;stroke-dasharray:5.55,2.4;stroke-dashoffset:0;stroke-width:1.5;"/>
   </g>
   <g id="line2d_18">
    <path clip-path="url(#pfd8a051073)" d="M 73.832727 254.185577 
L 74.522015 254.877785 
L 75.900591 253.707207 
L 76.589878 253.295686 
L 77.279166 251.746277 
L 77.968454 249.352234 
L 78.657742 247.882139 
L 79.34703 247.491514 
L 80.036317 246.12582 
L 80.725605 245.674974 
L 81.414893 244.923114 
L 82.104181 244.663547 
L 82.793468 242.427203 
L 83.482756 240.805846 
L 84.172044 239.967399 
L 84.861332 238.943713 
L 85.55062 238.282062 
L 86.239907 238.562995 
L 86.929195 239.166401 
L 87.618483 239.516478 
L 88.307771 240.161085 
L 88.997058 241.646192 
L 90.375634 244.167688 
L 91.064922 244.529398 
L 91.75421 244.011364 
L 92.443497 242.221169 
L 93.132785 241.268601 
L 93.822073 240.003611 
L 95.200649 239.444602 
L 95.889936 239.60543 
L 96.579224 240.024005 
L 97.268512 240.86816 
L 97.9578 240.344854 
L 99.336375 239.137016 
L 100.025663 238.615938 
L 100.714951 237.580855 
L 101.404239 237.900485 
L 102.782814 236.374161 
L 103.472102 236.387379 
L 104.16139 236.214094 
L 106.229253 240.753149 
L 106.918541 240.875935 
L 107.607829 242.931086 
L 108.297116 244.627311 
L 109.675692 246.891733 
L 110.36498 246.901562 
L 111.054268 247.933865 
L 111.743555 249.883846 
L 112.432843 253.058632 
L 113.811419 257.666866 
L 114.500706 259.882828 
L 115.189994 261.548386 
L 115.879282 261.591815 
L 116.56857 262.023682 
L 117.257858 262.273612 
L 117.947145 261.44558 
L 118.636433 260.433806 
L 119.325721 260.360664 
L 120.704296 265.013082 
L 121.393584 266.727286 
L 122.082872 267.768931 
L 122.77216 277.69573 
L 124.150735 288.231578 
L 125.529311 294.392681 
L 126.218599 295.397652 
L 126.907887 295.488 
L 128.97575 287.599153 
L 129.665038 286.482172 
L 131.732901 276.336886 
L 133.111477 271.368674 
L 133.800764 270.820999 
L 134.490052 271.253443 
L 135.17934 269.302474 
L 135.868628 267.964265 
L 137.936491 262.504441 
L 138.625779 260.848795 
L 139.315067 259.763407 
L 140.693642 255.082635 
L 141.38293 253.420683 
L 142.072218 252.207232 
L 142.761506 252.514634 
L 143.450793 253.06709 
L 144.140081 252.507743 
L 144.829369 253.249101 
L 145.518657 253.468307 
L 146.207944 254.130095 
L 147.58652 253.179124 
L 148.275808 252.398027 
L 148.965096 251.97715 
L 150.343671 253.06626 
L 151.032959 252.657783 
L 151.722247 251.076578 
L 153.100822 248.97971 
L 155.168686 246.761059 
L 155.857973 244.642561 
L 156.547261 241.665891 
L 157.925837 237.396303 
L 158.615124 236.252571 
L 159.9937 235.024726 
L 161.372276 232.538599 
L 162.061563 229.998709 
L 162.750851 229.034444 
L 163.440139 232.456452 
L 164.818715 236.164586 
L 165.508002 236.790169 
L 166.19729 236.00384 
L 166.886578 235.774928 
L 167.575866 235.983997 
L 168.265153 235.409251 
L 168.954441 235.59569 
L 169.643729 235.48623 
L 170.333017 235.667094 
L 171.022305 237.353195 
L 172.40088 241.049009 
L 173.090168 242.483197 
L 173.779456 245.042254 
L 174.468743 246.86247 
L 175.158031 248.213379 
L 175.847319 248.470674 
L 176.536607 248.003931 
L 177.225895 247.396142 
L 178.60447 246.737004 
L 179.293758 244.860714 
L 179.983046 245.15063 
L 180.672334 245.678731 
L 181.361621 245.25206 
L 182.050909 245.498722 
L 182.740197 245.968526 
L 183.429485 246.098277 
L 184.118772 246.47943 
L 184.80806 246.67645 
L 185.497348 246.71366 
L 187.565211 249.798576 
L 188.254499 251.442409 
L 190.322362 252.267055 
L 191.01165 253.059775 
L 191.700938 253.584295 
L 192.390226 253.919359 
L 193.079514 253.770688 
L 193.768801 253.302558 
L 194.458089 253.194231 
L 195.147377 253.841172 
L 195.836665 254.799133 
L 196.525953 255.430518 
L 197.21524 256.438226 
L 197.904528 256.882806 
L 199.283104 257.124895 
L 199.972391 257.007437 
L 201.350967 257.357707 
L 202.040255 257.467155 
L 202.729543 257.125199 
L 204.108118 256.17836 
L 204.797406 255.419357 
L 205.486694 255.601201 
L 207.554557 254.84251 
L 208.933133 254.948005 
L 210.311708 255.464612 
L 211.690284 255.56993 
L 213.068859 255.317894 
L 213.758147 254.723772 
L 215.136723 252.946807 
L 216.515298 251.181476 
L 217.204586 248.675392 
L 217.893874 244.685517 
L 218.583162 241.676388 
L 219.272449 239.244757 
L 219.961737 237.595321 
L 220.651025 235.489429 
L 221.340313 234.213892 
L 222.718888 233.473324 
L 223.408176 233.579084 
L 224.097464 232.135506 
L 224.786752 231.162892 
L 226.165327 231.639953 
L 226.854615 230.994659 
L 227.543903 231.29574 
L 228.233191 233.288862 
L 228.922478 234.407979 
L 229.611766 234.917079 
L 230.301054 235.120236 
L 230.990342 235.457919 
L 231.679629 236.094028 
L 232.368917 235.361657 
L 233.058205 236.25015 
L 233.747493 237.408759 
L 234.436781 239.2727 
L 235.815356 242.029657 
L 236.504644 242.865296 
L 237.193932 244.763416 
L 237.883219 246.113565 
L 238.572507 247.741425 
L 239.261795 248.540791 
L 239.951083 249.131281 
L 241.329658 249.278114 
L 242.018946 248.508782 
L 242.708234 248.484805 
L 243.397522 250.034451 
L 244.086809 254.378041 
L 246.154673 262.946129 
L 246.843961 264.209746 
L 247.533248 265.952201 
L 248.222536 266.242064 
L 248.911824 266.21119 
L 249.601112 265.879645 
L 250.2904 265.862774 
L 250.979687 264.596145 
L 251.668975 263.029933 
L 252.358263 261.080065 
L 253.736838 258.685275 
L 254.426126 257.435396 
L 255.115414 257.016971 
L 255.804702 257.653592 
L 256.49399 258.09771 
L 257.183277 259.228247 
L 258.561853 258.235013 
L 259.940428 257.226896 
L 260.629716 256.475267 
L 262.008292 255.962687 
L 262.69758 256.137328 
L 264.076155 256.676099 
L 264.765443 256.516278 
L 265.454731 256.072256 
L 266.144019 256.21168 
L 266.833306 256.12659 
L 267.522594 255.269492 
L 268.211882 254.079389 
L 270.279745 249.250159 
L 270.969033 248.352848 
L 272.347609 247.056925 
L 273.726184 247.224679 
L 274.415472 246.888682 
L 275.10476 245.971583 
L 275.794047 244.845029 
L 277.172623 238.234312 
L 278.551199 234.08914 
L 279.240486 232.999996 
L 279.929774 232.300201 
L 280.619062 230.259545 
L 281.30835 230.038721 
L 282.686925 229.176922 
L 283.376213 228.442687 
L 284.065501 228.26493 
L 284.754789 229.018235 
L 286.133364 227.962452 
L 286.822652 223.477925 
L 287.51194 220.328239 
L 288.201228 220.519386 
L 288.890515 219.083448 
L 289.579803 218.830101 
L 290.269091 219.09989 
L 290.958379 218.511846 
L 291.647666 216.644016 
L 292.336954 215.519001 
L 293.026242 215.855045 
L 293.71553 216.883006 
L 294.404818 215.8182 
L 295.094105 212.505459 
L 295.783393 210.052667 
L 296.472681 208.542955 
L 297.161969 205.255517 
L 297.851257 203.170136 
L 298.540544 202.953578 
L 299.229832 203.495262 
L 299.91912 202.119083 
L 300.608408 202.969624 
L 301.986983 214.179659 
L 302.676271 216.980986 
L 303.365559 218.200712 
L 304.054847 214.955009 
L 304.744134 215.644212 
L 305.433422 215.308445 
L 306.12271 214.804906 
L 306.811998 217.277982 
L 307.501285 218.109244 
L 308.190573 218.473664 
L 308.879861 219.780321 
L 309.569149 223.828487 
L 310.258437 226.640227 
L 311.637012 233.684673 
L 312.3263 234.400226 
L 313.704876 233.761206 
L 314.394163 233.214739 
L 315.083451 227.212925 
L 316.462027 210.846618 
L 317.151314 203.315027 
L 317.840602 199.141964 
L 318.52989 198.759683 
L 319.219178 195.738748 
L 319.908466 195.832736 
L 320.597753 195.044033 
L 321.287041 192.115946 
L 321.976329 185.226491 
L 322.665617 181.217687 
L 323.354904 176.487357 
L 324.044192 172.714523 
L 324.73348 166.013053 
L 326.112056 157.785984 
L 327.490631 137.879459 
L 328.179919 134.868735 
L 328.869207 127.714862 
L 329.558494 115.033534 
L 330.93707 84.022516 
L 331.626358 75.724231 
L 332.315646 77.468842 
L 333.004933 89.173211 
L 333.694221 104.504874 
L 334.383509 108.106557 
L 335.072797 107.216796 
L 335.762085 115.418902 
L 337.14066 135.757353 
L 337.829948 142.52 
L 339.208523 160.648264 
L 339.897811 183.283245 
L 341.965675 217.896044 
L 342.654962 226.234017 
L 343.34425 232.282772 
L 344.033538 243.656615 
L 344.722826 243.551697 
L 345.412113 241.015925 
L 346.101401 238.995444 
L 346.790689 241.229803 
L 347.479977 241.864906 
L 348.169265 236.448497 
L 348.858552 225.826563 
L 349.54784 219.965089 
L 350.926416 202.825272 
L 351.615704 197.674857 
L 352.304991 171.177779 
L 352.994279 151.161946 
L 353.683567 141.67774 
L 354.372855 125.922203 
L 355.062142 116.85274 
L 355.75143 111.91838 
L 356.440718 105.336737 
L 357.130006 104.009368 
L 357.819294 100.862449 
L 358.508581 91.170024 
L 359.197869 87.12384 
L 359.887157 72.587523 
L 361.265732 53.568 
L 361.95502 58.33651 
L 362.644308 80.218772 
L 363.333596 96.802683 
L 364.712171 141.380768 
L 366.090747 178.772705 
L 366.780035 180.91147 
L 367.469323 186.829395 
L 368.15861 186.377984 
L 368.847898 193.072586 
L 370.226474 201.726278 
L 370.915761 199.039579 
L 371.605049 193.26933 
L 373.672913 156.830513 
L 374.3622 148.951081 
L 375.051488 131.98763 
L 375.740776 126.780905 
L 376.430064 134.34175 
L 377.119351 137.758295 
L 377.808639 135.725966 
L 378.497927 139.333392 
L 379.187215 142.153183 
L 379.876503 145.487107 
L 380.56579 151.614116 
L 381.255078 167.59304 
L 381.944366 180.332022 
L 383.322942 214.333423 
L 384.012229 216.751043 
L 384.701517 216.607548 
L 385.390805 217.156702 
L 386.080093 212.321446 
L 386.76938 205.48843 
L 387.458668 200.696302 
L 388.147956 197.756236 
L 388.837244 195.319628 
L 389.526532 199.925927 
L 390.215819 200.625343 
L 390.905107 198.980235 
L 391.594395 201.765612 
L 392.283683 210.83124 
L 393.662258 213.139656 
L 394.351546 209.468435 
L 395.040834 206.494527 
L 395.730122 205.117323 
L 396.419409 193.284825 
L 397.108697 186.5701 
L 397.797985 181.258613 
L 398.487273 183.507796 
L 398.487273 183.507796 
" style="fill:none;stroke:#0000ff;stroke-linecap:square;stroke-width:1.5;"/>
   </g>
   <g id="line2d_19">
    <path clip-path="url(#pfd8a051073)" d="M 73.832727 254.185577 
L 74.522015 254.324019 
L 75.900591 254.186835 
L 76.589878 254.008606 
L 77.279166 253.55614 
L 79.34703 250.897275 
L 80.725605 249.089382 
L 82.793468 246.51553 
L 84.861332 243.222626 
L 85.55062 242.234513 
L 86.239907 241.50021 
L 86.929195 241.033448 
L 87.618483 240.730054 
L 88.307771 240.61626 
L 88.997058 240.822247 
L 89.686346 241.221267 
L 91.064922 242.354321 
L 91.75421 242.685729 
L 92.443497 242.592817 
L 93.132785 242.327974 
L 95.200649 241.028533 
L 95.889936 240.743912 
L 96.579224 240.599931 
L 97.268512 240.653577 
L 97.9578 240.591832 
L 99.336375 240.154046 
L 100.025663 239.846425 
L 100.714951 239.393311 
L 102.093526 238.690867 
L 103.472102 237.859497 
L 104.16139 237.530416 
L 104.850677 237.557809 
L 105.539965 237.830952 
L 107.607829 239.712217 
L 111.743555 245.537921 
L 113.122131 248.729271 
L 115.879282 255.695703 
L 117.257858 258.023762 
L 117.947145 258.708125 
L 119.325721 259.314742 
L 120.015009 260.020541 
L 121.393584 262.160697 
L 122.082872 263.282343 
L 122.77216 266.165021 
L 124.150735 273.275513 
L 125.529311 280.396082 
L 126.218599 283.396396 
L 126.907887 285.814717 
L 127.597174 287.200398 
L 128.286462 287.774881 
L 128.97575 287.739735 
L 129.665038 287.488223 
L 130.354325 286.617814 
L 131.043613 285.164115 
L 132.422189 281.450218 
L 133.800764 277.711327 
L 135.17934 274.996295 
L 136.557915 272.088214 
L 142.761506 257.576416 
L 144.140081 255.841189 
L 144.829369 255.322772 
L 145.518657 254.951879 
L 146.897232 254.55932 
L 148.275808 253.90623 
L 148.965096 253.520414 
L 149.654383 253.318236 
L 151.032959 253.145829 
L 152.411534 252.193197 
L 155.168686 249.504807 
L 155.857973 248.532358 
L 157.236549 245.603728 
L 158.615124 242.420309 
L 159.9937 239.852294 
L 161.372276 237.407941 
L 162.750851 234.547764 
L 163.440139 234.129502 
L 164.129427 234.141684 
L 165.508002 234.995045 
L 166.886578 235.312429 
L 167.575866 235.446743 
L 170.333017 235.512357 
L 171.022305 235.880525 
L 171.711592 236.573635 
L 173.090168 238.471607 
L 175.847319 243.776969 
L 176.536607 244.622361 
L 177.225895 245.177117 
L 177.915182 245.544616 
L 178.60447 245.783093 
L 179.983046 245.50902 
L 181.361621 245.484782 
L 182.740197 245.583761 
L 184.118772 245.845217 
L 185.497348 246.151903 
L 186.186636 246.483311 
L 187.565211 247.528657 
L 188.943787 248.985758 
L 192.390226 251.808506 
L 193.079514 252.200942 
L 195.147377 252.828921 
L 196.525953 253.664474 
L 198.593816 255.212199 
L 199.972391 255.877278 
L 202.040255 256.601858 
L 202.729543 256.706526 
L 204.108118 256.58933 
L 205.486694 256.204508 
L 208.933133 255.387353 
L 211.000996 255.417161 
L 213.068859 255.425796 
L 213.758147 255.285391 
L 215.136723 254.576981 
L 216.515298 253.506777 
L 217.204586 252.5405 
L 217.893874 250.969504 
L 222.0296 239.946132 
L 222.718888 238.651571 
L 225.476039 234.660124 
L 226.854615 233.443804 
L 227.543903 233.014191 
L 228.233191 233.069125 
L 230.990342 234.248698 
L 231.679629 234.617764 
L 232.368917 234.766543 
L 233.058205 235.063264 
L 233.747493 235.532363 
L 235.126068 237.149124 
L 237.193932 240.211278 
L 239.951083 244.896254 
L 241.329658 246.464173 
L 243.397522 247.76324 
L 244.086809 249.0862 
L 244.776097 250.735116 
L 247.533248 258.5089 
L 248.222536 260.055533 
L 248.911824 261.286664 
L 249.601112 262.20526 
L 250.2904 262.936763 
L 250.979687 263.268639 
L 251.668975 263.220898 
L 252.358263 262.792732 
L 253.736838 261.487207 
L 255.115414 259.94487 
L 255.804702 259.486614 
L 256.49399 259.208834 
L 257.872565 259.129531 
L 259.251141 258.702677 
L 260.629716 258.02107 
L 262.008292 257.311886 
L 263.386867 256.948127 
L 264.765443 256.818233 
L 266.144019 256.577566 
L 266.833306 256.487371 
L 267.522594 256.243795 
L 268.211882 255.810914 
L 268.90117 255.131344 
L 270.279745 253.279055 
L 272.347609 250.514816 
L 273.726184 249.323565 
L 275.10476 248.263587 
L 275.794047 247.579876 
L 276.483335 246.335539 
L 281.30835 235.24412 
L 282.686925 233.124668 
L 284.065501 231.403603 
L 286.133364 229.942429 
L 286.822652 228.649528 
L 287.51194 226.98527 
L 289.579803 223.262312 
L 291.647666 220.645788 
L 292.336954 219.620431 
L 293.026242 218.867354 
L 293.71553 218.470484 
L 294.404818 217.940027 
L 295.094105 216.853114 
L 296.472681 214.10301 
L 298.540544 208.991385 
L 299.91912 206.737545 
L 300.608408 205.983961 
L 301.297695 206.57139 
L 302.676271 209.870632 
L 303.365559 211.536648 
L 304.744134 212.905099 
L 305.433422 213.385768 
L 306.12271 213.669596 
L 308.879861 216.598165 
L 309.569149 218.04423 
L 310.258437 219.763429 
L 313.015588 227.808568 
L 313.704876 228.999096 
L 314.394163 229.842225 
L 315.083451 229.316365 
L 315.772739 227.124383 
L 316.462027 223.86883 
L 317.840602 215.634848 
L 319.219178 208.955602 
L 320.597753 204.07363 
L 321.287041 201.682093 
L 322.665617 194.956316 
L 324.044192 187.552924 
L 326.112056 174.682475 
L 327.490631 162.951938 
L 328.869207 151.411211 
L 329.558494 144.135675 
L 330.93707 124.82788 
L 331.626358 115.00715 
L 332.315646 107.499489 
L 333.004933 103.834233 
L 333.694221 103.968361 
L 334.383509 104.796 
L 335.072797 105.28016 
L 335.762085 107.307908 
L 336.451372 110.983647 
L 337.829948 121.254711 
L 339.208523 133.942484 
L 341.276387 164.855454 
L 342.654962 185.617661 
L 344.722826 212.463835 
L 345.412113 218.174253 
L 346.790689 226.116754 
L 347.479977 229.266384 
L 348.169265 230.702807 
L 348.858552 229.727558 
L 349.54784 227.775064 
L 350.237128 224.566236 
L 351.615704 215.709406 
L 352.304991 206.803081 
L 355.75143 151.854377 
L 356.440718 142.550849 
L 358.508581 120.67123 
L 359.197869 113.961752 
L 361.265732 88.488178 
L 361.95502 82.457845 
L 362.644308 82.01003 
L 363.333596 84.968561 
L 364.022884 91.897263 
L 364.712171 101.793964 
L 367.469323 147.288763 
L 369.537186 169.708948 
L 370.226474 176.112414 
L 370.915761 180.697847 
L 371.605049 183.212143 
L 372.294337 182.909077 
L 372.983625 180.434002 
L 374.3622 170.36086 
L 375.740776 155.505152 
L 376.430064 151.272471 
L 377.808639 146.000902 
L 378.497927 144.6674 
L 379.187215 144.164557 
L 379.876503 144.429067 
L 380.56579 145.866077 
L 381.255078 150.211469 
L 381.944366 156.23558 
L 382.633654 164.471069 
L 384.012229 182.90504 
L 384.701517 189.645542 
L 385.390805 195.147774 
L 386.080093 198.582508 
L 386.76938 199.963693 
L 387.458668 200.110214 
L 388.147956 199.639419 
L 388.837244 198.775461 
L 390.215819 199.329512 
L 390.905107 199.259656 
L 391.594395 199.760847 
L 392.97297 203.962119 
L 393.662258 205.797626 
L 394.351546 206.531788 
L 395.040834 206.524336 
L 395.730122 206.242933 
L 396.419409 203.651312 
L 398.487273 193.853382 
L 398.487273 193.853382 
" style="fill:none;stroke:#ff6347;stroke-linecap:square;stroke-width:1.5;"/>
   </g>
   <g id="patch_3">
    <path d="M 57.6 307.584 
L 57.6 41.472 
" style="fill:none;stroke:#000000;stroke-linecap:square;stroke-linejoin:miter;stroke-width:0.8;"/>
   </g>
   <g id="patch_4">
    <path d="M 414.72 307.584 
L 414.72 41.472 
" style="fill:none;stroke:#000000;stroke-linecap:square;stroke-linejoin:miter;stroke-width:0.8;"/>
   </g>
   <g id="patch_5">
    <path d="M 57.6 307.584 
L 414.72 307.584 
" style="fill:none;stroke:#000000;stroke-linecap:square;stroke-linejoin:miter;stroke-width:0.8;"/>
   </g>
   <g id="patch_6">
    <path d="M 57.6 41.472 
L 414.72 41.472 
" style="fill:none;stroke:#000000;stroke-linecap:square;stroke-linejoin:miter;stroke-width:0.8;"/>
   </g>
   <g id="text_17">
    <!-- Data source: coindesk -->
    <g transform="translate(180.640469 35.472)scale(0.1 -0.1)">
     <defs>
      <path d="M 19.671875 64.796875 
L 19.671875 8.109375 
L 31.59375 8.109375 
Q 46.6875 8.109375 53.6875 14.9375 
Q 60.6875 21.78125 60.6875 36.53125 
Q 60.6875 51.171875 53.6875 57.984375 
Q 46.6875 64.796875 31.59375 64.796875 
z
M 9.8125 72.90625 
L 30.078125 72.90625 
Q 51.265625 72.90625 61.171875 64.09375 
Q 71.09375 55.28125 71.09375 36.53125 
Q 71.09375 17.671875 61.125 8.828125 
Q 51.171875 0 30.078125 0 
L 9.8125 0 
z
" id="DejaVuSans-68"/>
      <path d="M 34.28125 27.484375 
Q 23.390625 27.484375 19.1875 25 
Q 14.984375 22.515625 14.984375 16.5 
Q 14.984375 11.71875 18.140625 8.90625 
Q 21.296875 6.109375 26.703125 6.109375 
Q 34.1875 6.109375 38.703125 11.40625 
Q 43.21875 16.703125 43.21875 25.484375 
L 43.21875 27.484375 
z
M 52.203125 31.203125 
L 52.203125 0 
L 43.21875 0 
L 43.21875 8.296875 
Q 40.140625 3.328125 35.546875 0.953125 
Q 30.953125 -1.421875 24.3125 -1.421875 
Q 15.921875 -1.421875 10.953125 3.296875 
Q 6 8.015625 6 15.921875 
Q 6 25.140625 12.171875 29.828125 
Q 18.359375 34.515625 30.609375 34.515625 
L 43.21875 34.515625 
L 43.21875 35.40625 
Q 43.21875 41.609375 39.140625 45 
Q 35.0625 48.390625 27.6875 48.390625 
Q 23 48.390625 18.546875 47.265625 
Q 14.109375 46.140625 10.015625 43.890625 
L 10.015625 52.203125 
Q 14.9375 54.109375 19.578125 55.046875 
Q 24.21875 56 28.609375 56 
Q 40.484375 56 46.34375 49.84375 
Q 52.203125 43.703125 52.203125 31.203125 
z
" id="DejaVuSans-97"/>
      <path d="M 18.3125 70.21875 
L 18.3125 54.6875 
L 36.8125 54.6875 
L 36.8125 47.703125 
L 18.3125 47.703125 
L 18.3125 18.015625 
Q 18.3125 11.328125 20.140625 9.421875 
Q 21.96875 7.515625 27.59375 7.515625 
L 36.8125 7.515625 
L 36.8125 0 
L 27.59375 0 
Q 17.1875 0 13.234375 3.875 
Q 9.28125 7.765625 9.28125 18.015625 
L 9.28125 47.703125 
L 2.6875 47.703125 
L 2.6875 54.6875 
L 9.28125 54.6875 
L 9.28125 70.21875 
z
" id="DejaVuSans-116"/>
      <path id="DejaVuSans-32"/>
      <path d="M 44.28125 53.078125 
L 44.28125 44.578125 
Q 40.484375 46.53125 36.375 47.5 
Q 32.28125 48.484375 27.875 48.484375 
Q 21.1875 48.484375 17.84375 46.4375 
Q 14.5 44.390625 14.5 40.28125 
Q 14.5 37.15625 16.890625 35.375 
Q 19.28125 33.59375 26.515625 31.984375 
L 29.59375 31.296875 
Q 39.15625 29.25 43.1875 25.515625 
Q 47.21875 21.78125 47.21875 15.09375 
Q 47.21875 7.46875 41.1875 3.015625 
Q 35.15625 -1.421875 24.609375 -1.421875 
Q 20.21875 -1.421875 15.453125 -0.5625 
Q 10.6875 0.296875 5.421875 2 
L 5.421875 11.28125 
Q 10.40625 8.6875 15.234375 7.390625 
Q 20.0625 6.109375 24.8125 6.109375 
Q 31.15625 6.109375 34.5625 8.28125 
Q 37.984375 10.453125 37.984375 14.40625 
Q 37.984375 18.0625 35.515625 20.015625 
Q 33.0625 21.96875 24.703125 23.78125 
L 21.578125 24.515625 
Q 13.234375 26.265625 9.515625 29.90625 
Q 5.8125 33.546875 5.8125 39.890625 
Q 5.8125 47.609375 11.28125 51.796875 
Q 16.75 56 26.8125 56 
Q 31.78125 56 36.171875 55.265625 
Q 40.578125 54.546875 44.28125 53.078125 
z
" id="DejaVuSans-115"/>
      <path d="M 30.609375 48.390625 
Q 23.390625 48.390625 19.1875 42.75 
Q 14.984375 37.109375 14.984375 27.296875 
Q 14.984375 17.484375 19.15625 11.84375 
Q 23.34375 6.203125 30.609375 6.203125 
Q 37.796875 6.203125 41.984375 11.859375 
Q 46.1875 17.53125 46.1875 27.296875 
Q 46.1875 37.015625 41.984375 42.703125 
Q 37.796875 48.390625 30.609375 48.390625 
z
M 30.609375 56 
Q 42.328125 56 49.015625 48.375 
Q 55.71875 40.765625 55.71875 27.296875 
Q 55.71875 13.875 49.015625 6.21875 
Q 42.328125 -1.421875 30.609375 -1.421875 
Q 18.84375 -1.421875 12.171875 6.21875 
Q 5.515625 13.875 5.515625 27.296875 
Q 5.515625 40.765625 12.171875 48.375 
Q 18.84375 56 30.609375 56 
z
" id="DejaVuSans-111"/>
      <path d="M 8.5 21.578125 
L 8.5 54.6875 
L 17.484375 54.6875 
L 17.484375 21.921875 
Q 17.484375 14.15625 20.5 10.265625 
Q 23.53125 6.390625 29.59375 6.390625 
Q 36.859375 6.390625 41.078125 11.03125 
Q 45.3125 15.671875 45.3125 23.6875 
L 45.3125 54.6875 
L 54.296875 54.6875 
L 54.296875 0 
L 45.3125 0 
L 45.3125 8.40625 
Q 42.046875 3.421875 37.71875 1 
Q 33.40625 -1.421875 27.6875 -1.421875 
Q 18.265625 -1.421875 13.375 4.4375 
Q 8.5 10.296875 8.5 21.578125 
z
M 31.109375 56 
z
" id="DejaVuSans-117"/>
      <path d="M 41.109375 46.296875 
Q 39.59375 47.171875 37.8125 47.578125 
Q 36.03125 48 33.890625 48 
Q 26.265625 48 22.1875 43.046875 
Q 18.109375 38.09375 18.109375 28.8125 
L 18.109375 0 
L 9.078125 0 
L 9.078125 54.6875 
L 18.109375 54.6875 
L 18.109375 46.1875 
Q 20.953125 51.171875 25.484375 53.578125 
Q 30.03125 56 36.53125 56 
Q 37.453125 56 38.578125 55.875 
Q 39.703125 55.765625 41.0625 55.515625 
z
" id="DejaVuSans-114"/>
      <path d="M 48.78125 52.59375 
L 48.78125 44.1875 
Q 44.96875 46.296875 41.140625 47.34375 
Q 37.3125 48.390625 33.40625 48.390625 
Q 24.65625 48.390625 19.8125 42.84375 
Q 14.984375 37.3125 14.984375 27.296875 
Q 14.984375 17.28125 19.8125 11.734375 
Q 24.65625 6.203125 33.40625 6.203125 
Q 37.3125 6.203125 41.140625 7.25 
Q 44.96875 8.296875 48.78125 10.40625 
L 48.78125 2.09375 
Q 45.015625 0.34375 40.984375 -0.53125 
Q 36.96875 -1.421875 32.421875 -1.421875 
Q 20.0625 -1.421875 12.78125 6.34375 
Q 5.515625 14.109375 5.515625 27.296875 
Q 5.515625 40.671875 12.859375 48.328125 
Q 20.21875 56 33.015625 56 
Q 37.15625 56 41.109375 55.140625 
Q 45.0625 54.296875 48.78125 52.59375 
z
" id="DejaVuSans-99"/>
      <path d="M 56.203125 29.59375 
L 56.203125 25.203125 
L 14.890625 25.203125 
Q 15.484375 15.921875 20.484375 11.0625 
Q 25.484375 6.203125 34.421875 6.203125 
Q 39.59375 6.203125 44.453125 7.46875 
Q 49.3125 8.734375 54.109375 11.28125 
L 54.109375 2.78125 
Q 49.265625 0.734375 44.1875 -0.34375 
Q 39.109375 -1.421875 33.890625 -1.421875 
Q 20.796875 -1.421875 13.15625 6.1875 
Q 5.515625 13.8125 5.515625 26.8125 
Q 5.515625 40.234375 12.765625 48.109375 
Q 20.015625 56 32.328125 56 
Q 43.359375 56 49.78125 48.890625 
Q 56.203125 41.796875 56.203125 29.59375 
z
M 47.21875 32.234375 
Q 47.125 39.59375 43.09375 43.984375 
Q 39.0625 48.390625 32.421875 48.390625 
Q 24.90625 48.390625 20.390625 44.140625 
Q 15.875 39.890625 15.1875 32.171875 
z
" id="DejaVuSans-101"/>
      <path d="M 11.71875 12.40625 
L 22.015625 12.40625 
L 22.015625 0 
L 11.71875 0 
z
M 11.71875 51.703125 
L 22.015625 51.703125 
L 22.015625 39.3125 
L 11.71875 39.3125 
z
" id="DejaVuSans-58"/>
      <path d="M 9.421875 54.6875 
L 18.40625 54.6875 
L 18.40625 0 
L 9.421875 0 
z
M 9.421875 75.984375 
L 18.40625 75.984375 
L 18.40625 64.59375 
L 9.421875 64.59375 
z
" id="DejaVuSans-105"/>
      <path d="M 54.890625 33.015625 
L 54.890625 0 
L 45.90625 0 
L 45.90625 32.71875 
Q 45.90625 40.484375 42.875 44.328125 
Q 39.84375 48.1875 33.796875 48.1875 
Q 26.515625 48.1875 22.3125 43.546875 
Q 18.109375 38.921875 18.109375 30.90625 
L 18.109375 0 
L 9.078125 0 
L 9.078125 54.6875 
L 18.109375 54.6875 
L 18.109375 46.1875 
Q 21.34375 51.125 25.703125 53.5625 
Q 30.078125 56 35.796875 56 
Q 45.21875 56 50.046875 50.171875 
Q 54.890625 44.34375 54.890625 33.015625 
z
" id="DejaVuSans-110"/>
      <path d="M 45.40625 46.390625 
L 45.40625 75.984375 
L 54.390625 75.984375 
L 54.390625 0 
L 45.40625 0 
L 45.40625 8.203125 
Q 42.578125 3.328125 38.25 0.953125 
Q 33.9375 -1.421875 27.875 -1.421875 
Q 17.96875 -1.421875 11.734375 6.484375 
Q 5.515625 14.40625 5.515625 27.296875 
Q 5.515625 40.1875 11.734375 48.09375 
Q 17.96875 56 27.875 56 
Q 33.9375 56 38.25 53.625 
Q 42.578125 51.265625 45.40625 46.390625 
z
M 14.796875 27.296875 
Q 14.796875 17.390625 18.875 11.75 
Q 22.953125 6.109375 30.078125 6.109375 
Q 37.203125 6.109375 41.296875 11.75 
Q 45.40625 17.390625 45.40625 27.296875 
Q 45.40625 37.203125 41.296875 42.84375 
Q 37.203125 48.484375 30.078125 48.484375 
Q 22.953125 48.484375 18.875 42.84375 
Q 14.796875 37.203125 14.796875 27.296875 
z
" id="DejaVuSans-100"/>
      <path d="M 9.078125 75.984375 
L 18.109375 75.984375 
L 18.109375 31.109375 
L 44.921875 54.6875 
L 56.390625 54.6875 
L 27.390625 29.109375 
L 57.625 0 
L 45.90625 0 
L 18.109375 26.703125 
L 18.109375 0 
L 9.078125 0 
z
" id="DejaVuSans-107"/>
     </defs>
     <use xlink:href="#DejaVuSans-68"/>
     <use x="77.001953" xlink:href="#DejaVuSans-97"/>
     <use x="138.28125" xlink:href="#DejaVuSans-116"/>
     <use x="177.490234" xlink:href="#DejaVuSans-97"/>
     <use x="238.769531" xlink:href="#DejaVuSans-32"/>
     <use x="270.556641" xlink:href="#DejaVuSans-115"/>
     <use x="322.65625" xlink:href="#DejaVuSans-111"/>
     <use x="383.837891" xlink:href="#DejaVuSans-117"/>
     <use x="447.216797" xlink:href="#DejaVuSans-114"/>
     <use x="486.080078" xlink:href="#DejaVuSans-99"/>
     <use x="541.060547" xlink:href="#DejaVuSans-101"/>
     <use x="602.583984" xlink:href="#DejaVuSans-58"/>
     <use x="636.275391" xlink:href="#DejaVuSans-32"/>
     <use x="668.0625" xlink:href="#DejaVuSans-99"/>
     <use x="723.042969" xlink:href="#DejaVuSans-111"/>
     <use x="784.224609" xlink:href="#DejaVuSans-105"/>
     <use x="812.007812" xlink:href="#DejaVuSans-110"/>
     <use x="875.386719" xlink:href="#DejaVuSans-100"/>
     <use x="938.863281" xlink:href="#DejaVuSans-101"/>
     <use x="1000.386719" xlink:href="#DejaVuSans-115"/>
     <use x="1052.486328" xlink:href="#DejaVuSans-107"/>
    </g>
   </g>
   <g id="legend_1">
    <g id="patch_7">
     <path d="M 64.6 78.82825 
L 127.31875 78.82825 
Q 129.31875 78.82825 129.31875 76.82825 
L 129.31875 48.472 
Q 129.31875 46.472 127.31875 46.472 
L 64.6 46.472 
Q 62.6 46.472 62.6 48.472 
L 62.6 76.82825 
Q 62.6 78.82825 64.6 78.82825 
z
" style="fill:#ffffff;opacity:0.8;stroke:#cccccc;stroke-linejoin:miter;"/>
    </g>
    <g id="line2d_20">
     <path d="M 66.6 54.570437 
L 86.6 54.570437 
" style="fill:none;stroke:#0000ff;stroke-linecap:square;stroke-width:1.5;"/>
    </g>
    <g id="line2d_21"/>
    <g id="text_18">
     <!-- MACD -->
     <g transform="translate(94.6 58.070437)scale(0.1 -0.1)">
      <defs>
       <path d="M 9.8125 72.90625 
L 24.515625 72.90625 
L 43.109375 23.296875 
L 61.8125 72.90625 
L 76.515625 72.90625 
L 76.515625 0 
L 66.890625 0 
L 66.890625 64.015625 
L 48.09375 14.015625 
L 38.1875 14.015625 
L 19.390625 64.015625 
L 19.390625 0 
L 9.8125 0 
z
" id="DejaVuSans-77"/>
       <path d="M 34.1875 63.1875 
L 20.796875 26.90625 
L 47.609375 26.90625 
z
M 28.609375 72.90625 
L 39.796875 72.90625 
L 67.578125 0 
L 57.328125 0 
L 50.6875 18.703125 
L 17.828125 18.703125 
L 11.1875 0 
L 0.78125 0 
z
" id="DejaVuSans-65"/>
       <path d="M 64.40625 67.28125 
L 64.40625 56.890625 
Q 59.421875 61.53125 53.78125 63.8125 
Q 48.140625 66.109375 41.796875 66.109375 
Q 29.296875 66.109375 22.65625 58.46875 
Q 16.015625 50.828125 16.015625 36.375 
Q 16.015625 21.96875 22.65625 14.328125 
Q 29.296875 6.6875 41.796875 6.6875 
Q 48.140625 6.6875 53.78125 8.984375 
Q 59.421875 11.28125 64.40625 15.921875 
L 64.40625 5.609375 
Q 59.234375 2.09375 53.4375 0.328125 
Q 47.65625 -1.421875 41.21875 -1.421875 
Q 24.65625 -1.421875 15.125 8.703125 
Q 5.609375 18.84375 5.609375 36.375 
Q 5.609375 53.953125 15.125 64.078125 
Q 24.65625 74.21875 41.21875 74.21875 
Q 47.75 74.21875 53.53125 72.484375 
Q 59.328125 70.75 64.40625 67.28125 
z
" id="DejaVuSans-67"/>
      </defs>
      <use xlink:href="#DejaVuSans-77"/>
      <use x="86.279297" xlink:href="#DejaVuSans-65"/>
      <use x="152.9375" xlink:href="#DejaVuSans-67"/>
      <use x="222.761719" xlink:href="#DejaVuSans-68"/>
     </g>
    </g>
    <g id="line2d_22">
     <path d="M 66.6 69.248562 
L 86.6 69.248562 
" style="fill:none;stroke:#ff6347;stroke-linecap:square;stroke-width:1.5;"/>
    </g>
    <g id="line2d_23"/>
    <g id="text_19">
     <!-- Signal -->
     <g transform="translate(94.6 72.748562)scale(0.1 -0.1)">
      <defs>
       <path d="M 53.515625 70.515625 
L 53.515625 60.890625 
Q 47.90625 63.578125 42.921875 64.890625 
Q 37.9375 66.21875 33.296875 66.21875 
Q 25.25 66.21875 20.875 63.09375 
Q 16.5 59.96875 16.5 54.203125 
Q 16.5 49.359375 19.40625 46.890625 
Q 22.3125 44.4375 30.421875 42.921875 
L 36.375 41.703125 
Q 47.40625 39.59375 52.65625 34.296875 
Q 57.90625 29 57.90625 20.125 
Q 57.90625 9.515625 50.796875 4.046875 
Q 43.703125 -1.421875 29.984375 -1.421875 
Q 24.8125 -1.421875 18.96875 -0.25 
Q 13.140625 0.921875 6.890625 3.21875 
L 6.890625 13.375 
Q 12.890625 10.015625 18.65625 8.296875 
Q 24.421875 6.59375 29.984375 6.59375 
Q 38.421875 6.59375 43.015625 9.90625 
Q 47.609375 13.234375 47.609375 19.390625 
Q 47.609375 24.75 44.3125 27.78125 
Q 41.015625 30.8125 33.5 32.328125 
L 27.484375 33.5 
Q 16.453125 35.6875 11.515625 40.375 
Q 6.59375 45.0625 6.59375 53.421875 
Q 6.59375 63.09375 13.40625 68.65625 
Q 20.21875 74.21875 32.171875 74.21875 
Q 37.3125 74.21875 42.625 73.28125 
Q 47.953125 72.359375 53.515625 70.515625 
z
" id="DejaVuSans-83"/>
       <path d="M 45.40625 27.984375 
Q 45.40625 37.75 41.375 43.109375 
Q 37.359375 48.484375 30.078125 48.484375 
Q 22.859375 48.484375 18.828125 43.109375 
Q 14.796875 37.75 14.796875 27.984375 
Q 14.796875 18.265625 18.828125 12.890625 
Q 22.859375 7.515625 30.078125 7.515625 
Q 37.359375 7.515625 41.375 12.890625 
Q 45.40625 18.265625 45.40625 27.984375 
z
M 54.390625 6.78125 
Q 54.390625 -7.171875 48.1875 -13.984375 
Q 42 -20.796875 29.203125 -20.796875 
Q 24.46875 -20.796875 20.265625 -20.09375 
Q 16.0625 -19.390625 12.109375 -17.921875 
L 12.109375 -9.1875 
Q 16.0625 -11.328125 19.921875 -12.34375 
Q 23.78125 -13.375 27.78125 -13.375 
Q 36.625 -13.375 41.015625 -8.765625 
Q 45.40625 -4.15625 45.40625 5.171875 
L 45.40625 9.625 
Q 42.625 4.78125 38.28125 2.390625 
Q 33.9375 0 27.875 0 
Q 17.828125 0 11.671875 7.65625 
Q 5.515625 15.328125 5.515625 27.984375 
Q 5.515625 40.671875 11.671875 48.328125 
Q 17.828125 56 27.875 56 
Q 33.9375 56 38.28125 53.609375 
Q 42.625 51.21875 45.40625 46.390625 
L 45.40625 54.6875 
L 54.390625 54.6875 
z
" id="DejaVuSans-103"/>
       <path d="M 9.421875 75.984375 
L 18.40625 75.984375 
L 18.40625 0 
L 9.421875 0 
z
" id="DejaVuSans-108"/>
      </defs>
      <use xlink:href="#DejaVuSans-83"/>
      <use x="63.476562" xlink:href="#DejaVuSans-105"/>
      <use x="91.259766" xlink:href="#DejaVuSans-103"/>
      <use x="154.736328" xlink:href="#DejaVuSans-110"/>
      <use x="218.115234" xlink:href="#DejaVuSans-97"/>
      <use x="279.394531" xlink:href="#DejaVuSans-108"/>
     </g>
    </g>
   </g>
  </g>
  <g id="text_20">
   <!-- MACD -->
   <g transform="translate(206.41875 19.0695)scale(0.16 -0.16)">
    <use xlink:href="#DejaVuSans-77"/>
    <use x="86.279297" xlink:href="#DejaVuSans-65"/>
    <use x="152.9375" xlink:href="#DejaVuSans-67"/>
    <use x="222.761719" xlink:href="#DejaVuSans-68"/>
   </g>
  </g>
 </g>
 <defs>
  <clipPath id="pfd8a051073">
   <rect height="266.112" width="357.12" x="57.6" y="41.472"/>
  </clipPath>
 </defs>
</svg>
