<?xml version="1.0" encoding="utf-8" standalone="no"?>
<!DOCTYPE svg PUBLIC "-//W3C//DTD SVG 1.1//EN"
  "http://www.w3.org/Graphics/SVG/1.1/DTD/svg11.dtd">
<!-- Created with matplotlib (https://matplotlib.org/) -->
<svg height="345.6pt" version="1.1" viewBox="0 0 460.8 345.6" width="460.8pt" xmlns="http://www.w3.org/2000/svg" xmlns:xlink="http://www.w3.org/1999/xlink">
 <metadata>
  <rdf:RDF xmlns:cc="http://creativecommons.org/ns#" xmlns:dc="http://purl.org/dc/elements/1.1/" xmlns:rdf="http://www.w3.org/1999/02/22-rdf-syntax-ns#">
   <cc:Work>
    <dc:type rdf:resource="http://purl.org/dc/dcmitype/StillImage"/>
    <dc:date>2021-06-03T02:49:44.265785</dc:date>
    <dc:format>image/svg+xml</dc:format>
    <dc:creator>
     <cc:Agent>
      <dc:title>Matplotlib v3.3.2, https://matplotlib.org/</dc:title>
     </cc:Agent>
    </dc:creator>
   </cc:Work>
  </rdf:RDF>
 </metadata>
 <defs>
  <style type="text/css">*{stroke-linecap:butt;stroke-linejoin:round;}</style>
 </defs>
 <g id="figure_1">
  <g id="patch_1">
   <path d="M 0 345.6 
L 460.8 345.6 
L 460.8 0 
L 0 0 
z
" style="fill:#ffffff;"/>
  </g>
  <g id="axes_1">
   <g id="patch_2">
    <path d="M 57.6 307.584 
L 414.72 307.584 
L 414.72 41.472 
L 57.6 41.472 
z
" style="fill:#ffffff;"/>
   </g>
   <g id="matplotlib.axis_1">
    <g id="xtick_1">
     <g id="line2d_1">
      <defs>
       <path d="M 0 0 
L 0 3.5 
" id="m12d2e567cd" style="stroke:#000000;stroke-width:0.8;"/>
      </defs>
      <g>
       <use style="stroke:#000000;stroke-width:0.8;" x="73.832727" xlink:href="#m12d2e567cd" y="307.584"/>
      </g>
     </g>
     <g id="text_1">
      <!-- 2020-01 -->
      <g transform="translate(52.941321 322.182437)scale(0.1 -0.1)">
       <defs>
        <path d="M 19.1875 8.296875 
L 53.609375 8.296875 
L 53.609375 0 
L 7.328125 0 
L 7.328125 8.296875 
Q 12.9375 14.109375 22.625 23.890625 
Q 32.328125 33.6875 34.8125 36.53125 
Q 39.546875 41.84375 41.421875 45.53125 
Q 43.3125 49.21875 43.3125 52.78125 
Q 43.3125 58.59375 39.234375 62.25 
Q 35.15625 65.921875 28.609375 65.921875 
Q 23.96875 65.921875 18.8125 64.3125 
Q 13.671875 62.703125 7.8125 59.421875 
L 7.8125 69.390625 
Q 13.765625 71.78125 18.9375 73 
Q 24.125 74.21875 28.421875 74.21875 
Q 39.75 74.21875 46.484375 68.546875 
Q 53.21875 62.890625 53.21875 53.421875 
Q 53.21875 48.921875 51.53125 44.890625 
Q 49.859375 40.875 45.40625 35.40625 
Q 44.1875 33.984375 37.640625 27.21875 
Q 31.109375 20.453125 19.1875 8.296875 
z
" id="DejaVuSans-50"/>
        <path d="M 31.78125 66.40625 
Q 24.171875 66.40625 20.328125 58.90625 
Q 16.5 51.421875 16.5 36.375 
Q 16.5 21.390625 20.328125 13.890625 
Q 24.171875 6.390625 31.78125 6.390625 
Q 39.453125 6.390625 43.28125 13.890625 
Q 47.125 21.390625 47.125 36.375 
Q 47.125 51.421875 43.28125 58.90625 
Q 39.453125 66.40625 31.78125 66.40625 
z
M 31.78125 74.21875 
Q 44.046875 74.21875 50.515625 64.515625 
Q 56.984375 54.828125 56.984375 36.375 
Q 56.984375 17.96875 50.515625 8.265625 
Q 44.046875 -1.421875 31.78125 -1.421875 
Q 19.53125 -1.421875 13.0625 8.265625 
Q 6.59375 17.96875 6.59375 36.375 
Q 6.59375 54.828125 13.0625 64.515625 
Q 19.53125 74.21875 31.78125 74.21875 
z
" id="DejaVuSans-48"/>
        <path d="M 4.890625 31.390625 
L 31.203125 31.390625 
L 31.203125 23.390625 
L 4.890625 23.390625 
z
" id="DejaVuSans-45"/>
        <path d="M 12.40625 8.296875 
L 28.515625 8.296875 
L 28.515625 63.921875 
L 10.984375 60.40625 
L 10.984375 69.390625 
L 28.421875 72.90625 
L 38.28125 72.90625 
L 38.28125 8.296875 
L 54.390625 8.296875 
L 54.390625 0 
L 12.40625 0 
z
" id="DejaVuSans-49"/>
       </defs>
       <use xlink:href="#DejaVuSans-50"/>
       <use x="63.623047" xlink:href="#DejaVuSans-48"/>
       <use x="127.246094" xlink:href="#DejaVuSans-50"/>
       <use x="190.869141" xlink:href="#DejaVuSans-48"/>
       <use x="254.492188" xlink:href="#DejaVuSans-45"/>
       <use x="290.576172" xlink:href="#DejaVuSans-48"/>
       <use x="354.199219" xlink:href="#DejaVuSans-49"/>
      </g>
     </g>
    </g>
    <g id="xtick_2">
     <g id="line2d_2">
      <g>
       <use style="stroke:#000000;stroke-width:0.8;" x="111.510237" xlink:href="#m12d2e567cd" y="307.584"/>
      </g>
     </g>
     <g id="text_2">
      <!-- 2020-03 -->
      <g transform="translate(90.618831 322.182437)scale(0.1 -0.1)">
       <defs>
        <path d="M 40.578125 39.3125 
Q 47.65625 37.796875 51.625 33 
Q 55.609375 28.21875 55.609375 21.1875 
Q 55.609375 10.40625 48.1875 4.484375 
Q 40.765625 -1.421875 27.09375 -1.421875 
Q 22.515625 -1.421875 17.65625 -0.515625 
Q 12.796875 0.390625 7.625 2.203125 
L 7.625 11.71875 
Q 11.71875 9.328125 16.59375 8.109375 
Q 21.484375 6.890625 26.8125 6.890625 
Q 36.078125 6.890625 40.9375 10.546875 
Q 45.796875 14.203125 45.796875 21.1875 
Q 45.796875 27.640625 41.28125 31.265625 
Q 36.765625 34.90625 28.71875 34.90625 
L 20.21875 34.90625 
L 20.21875 43.015625 
L 29.109375 43.015625 
Q 36.375 43.015625 40.234375 45.921875 
Q 44.09375 48.828125 44.09375 54.296875 
Q 44.09375 59.90625 40.109375 62.90625 
Q 36.140625 65.921875 28.71875 65.921875 
Q 24.65625 65.921875 20.015625 65.03125 
Q 15.375 64.15625 9.8125 62.3125 
L 9.8125 71.09375 
Q 15.4375 72.65625 20.34375 73.4375 
Q 25.25 74.21875 29.59375 74.21875 
Q 40.828125 74.21875 47.359375 69.109375 
Q 53.90625 64.015625 53.90625 55.328125 
Q 53.90625 49.265625 50.4375 45.09375 
Q 46.96875 40.921875 40.578125 39.3125 
z
" id="DejaVuSans-51"/>
       </defs>
       <use xlink:href="#DejaVuSans-50"/>
       <use x="63.623047" xlink:href="#DejaVuSans-48"/>
       <use x="127.246094" xlink:href="#DejaVuSans-50"/>
       <use x="190.869141" xlink:href="#DejaVuSans-48"/>
       <use x="254.492188" xlink:href="#DejaVuSans-45"/>
       <use x="290.576172" xlink:href="#DejaVuSans-48"/>
       <use x="354.199219" xlink:href="#DejaVuSans-51"/>
      </g>
     </g>
    </g>
    <g id="xtick_3">
     <g id="line2d_3">
      <g>
       <use style="stroke:#000000;stroke-width:0.8;" x="149.815706" xlink:href="#m12d2e567cd" y="307.584"/>
      </g>
     </g>
     <g id="text_3">
      <!-- 2020-05 -->
      <g transform="translate(128.9243 322.182437)scale(0.1 -0.1)">
       <defs>
        <path d="M 10.796875 72.90625 
L 49.515625 72.90625 
L 49.515625 64.59375 
L 19.828125 64.59375 
L 19.828125 46.734375 
Q 21.96875 47.46875 24.109375 47.828125 
Q 26.265625 48.1875 28.421875 48.1875 
Q 40.625 48.1875 47.75 41.5 
Q 54.890625 34.8125 54.890625 23.390625 
Q 54.890625 11.625 47.5625 5.09375 
Q 40.234375 -1.421875 26.90625 -1.421875 
Q 22.3125 -1.421875 17.546875 -0.640625 
Q 12.796875 0.140625 7.71875 1.703125 
L 7.71875 11.625 
Q 12.109375 9.234375 16.796875 8.0625 
Q 21.484375 6.890625 26.703125 6.890625 
Q 35.15625 6.890625 40.078125 11.328125 
Q 45.015625 15.765625 45.015625 23.390625 
Q 45.015625 31 40.078125 35.4375 
Q 35.15625 39.890625 26.703125 39.890625 
Q 22.75 39.890625 18.8125 39.015625 
Q 14.890625 38.140625 10.796875 36.28125 
z
" id="DejaVuSans-53"/>
       </defs>
       <use xlink:href="#DejaVuSans-50"/>
       <use x="63.623047" xlink:href="#DejaVuSans-48"/>
       <use x="127.246094" xlink:href="#DejaVuSans-50"/>
       <use x="190.869141" xlink:href="#DejaVuSans-48"/>
       <use x="254.492188" xlink:href="#DejaVuSans-45"/>
       <use x="290.576172" xlink:href="#DejaVuSans-48"/>
       <use x="354.199219" xlink:href="#DejaVuSans-53"/>
      </g>
     </g>
    </g>
    <g id="xtick_4">
     <g id="line2d_4">
      <g>
       <use style="stroke:#000000;stroke-width:0.8;" x="188.121175" xlink:href="#m12d2e567cd" y="307.584"/>
      </g>
     </g>
     <g id="text_4">
      <!-- 2020-07 -->
      <g transform="translate(167.229768 322.182437)scale(0.1 -0.1)">
       <defs>
        <path d="M 8.203125 72.90625 
L 55.078125 72.90625 
L 55.078125 68.703125 
L 28.609375 0 
L 18.3125 0 
L 43.21875 64.59375 
L 8.203125 64.59375 
z
" id="DejaVuSans-55"/>
       </defs>
       <use xlink:href="#DejaVuSans-50"/>
       <use x="63.623047" xlink:href="#DejaVuSans-48"/>
       <use x="127.246094" xlink:href="#DejaVuSans-50"/>
       <use x="190.869141" xlink:href="#DejaVuSans-48"/>
       <use x="254.492188" xlink:href="#DejaVuSans-45"/>
       <use x="290.576172" xlink:href="#DejaVuSans-48"/>
       <use x="354.199219" xlink:href="#DejaVuSans-55"/>
      </g>
     </g>
    </g>
    <g id="xtick_5">
     <g id="line2d_5">
      <g>
       <use style="stroke:#000000;stroke-width:0.8;" x="227.054602" xlink:href="#m12d2e567cd" y="307.584"/>
      </g>
     </g>
     <g id="text_5">
      <!-- 2020-09 -->
      <g transform="translate(206.163195 322.182437)scale(0.1 -0.1)">
       <defs>
        <path d="M 10.984375 1.515625 
L 10.984375 10.5 
Q 14.703125 8.734375 18.5 7.8125 
Q 22.3125 6.890625 25.984375 6.890625 
Q 35.75 6.890625 40.890625 13.453125 
Q 46.046875 20.015625 46.78125 33.40625 
Q 43.953125 29.203125 39.59375 26.953125 
Q 35.25 24.703125 29.984375 24.703125 
Q 19.046875 24.703125 12.671875 31.3125 
Q 6.296875 37.9375 6.296875 49.421875 
Q 6.296875 60.640625 12.9375 67.421875 
Q 19.578125 74.21875 30.609375 74.21875 
Q 43.265625 74.21875 49.921875 64.515625 
Q 56.59375 54.828125 56.59375 36.375 
Q 56.59375 19.140625 48.40625 8.859375 
Q 40.234375 -1.421875 26.421875 -1.421875 
Q 22.703125 -1.421875 18.890625 -0.6875 
Q 15.09375 0.046875 10.984375 1.515625 
z
M 30.609375 32.421875 
Q 37.25 32.421875 41.125 36.953125 
Q 45.015625 41.5 45.015625 49.421875 
Q 45.015625 57.28125 41.125 61.84375 
Q 37.25 66.40625 30.609375 66.40625 
Q 23.96875 66.40625 20.09375 61.84375 
Q 16.21875 57.28125 16.21875 49.421875 
Q 16.21875 41.5 20.09375 36.953125 
Q 23.96875 32.421875 30.609375 32.421875 
z
" id="DejaVuSans-57"/>
       </defs>
       <use xlink:href="#DejaVuSans-50"/>
       <use x="63.623047" xlink:href="#DejaVuSans-48"/>
       <use x="127.246094" xlink:href="#DejaVuSans-50"/>
       <use x="190.869141" xlink:href="#DejaVuSans-48"/>
       <use x="254.492188" xlink:href="#DejaVuSans-45"/>
       <use x="290.576172" xlink:href="#DejaVuSans-48"/>
       <use x="354.199219" xlink:href="#DejaVuSans-57"/>
      </g>
     </g>
    </g>
    <g id="xtick_6">
     <g id="line2d_6">
      <g>
       <use style="stroke:#000000;stroke-width:0.8;" x="265.36007" xlink:href="#m12d2e567cd" y="307.584"/>
      </g>
     </g>
     <g id="text_6">
      <!-- 2020-11 -->
      <g transform="translate(244.468664 322.182437)scale(0.1 -0.1)">
       <use xlink:href="#DejaVuSans-50"/>
       <use x="63.623047" xlink:href="#DejaVuSans-48"/>
       <use x="127.246094" xlink:href="#DejaVuSans-50"/>
       <use x="190.869141" xlink:href="#DejaVuSans-48"/>
       <use x="254.492188" xlink:href="#DejaVuSans-45"/>
       <use x="290.576172" xlink:href="#DejaVuSans-49"/>
       <use x="354.199219" xlink:href="#DejaVuSans-49"/>
      </g>
     </g>
    </g>
    <g id="xtick_7">
     <g id="line2d_7">
      <g>
       <use style="stroke:#000000;stroke-width:0.8;" x="303.665539" xlink:href="#m12d2e567cd" y="307.584"/>
      </g>
     </g>
     <g id="text_7">
      <!-- 2021-01 -->
      <g transform="translate(282.774133 322.182437)scale(0.1 -0.1)">
       <use xlink:href="#DejaVuSans-50"/>
       <use x="63.623047" xlink:href="#DejaVuSans-48"/>
       <use x="127.246094" xlink:href="#DejaVuSans-50"/>
       <use x="190.869141" xlink:href="#DejaVuSans-49"/>
       <use x="254.492188" xlink:href="#DejaVuSans-45"/>
       <use x="290.576172" xlink:href="#DejaVuSans-48"/>
       <use x="354.199219" xlink:href="#DejaVuSans-49"/>
      </g>
     </g>
    </g>
    <g id="xtick_8">
     <g id="line2d_8">
      <g>
       <use style="stroke:#000000;stroke-width:0.8;" x="340.715091" xlink:href="#m12d2e567cd" y="307.584"/>
      </g>
     </g>
     <g id="text_8">
      <!-- 2021-03 -->
      <g transform="translate(319.823684 322.182437)scale(0.1 -0.1)">
       <use xlink:href="#DejaVuSans-50"/>
       <use x="63.623047" xlink:href="#DejaVuSans-48"/>
       <use x="127.246094" xlink:href="#DejaVuSans-50"/>
       <use x="190.869141" xlink:href="#DejaVuSans-49"/>
       <use x="254.492188" xlink:href="#DejaVuSans-45"/>
       <use x="290.576172" xlink:href="#DejaVuSans-48"/>
       <use x="354.199219" xlink:href="#DejaVuSans-51"/>
      </g>
     </g>
    </g>
    <g id="xtick_9">
     <g id="line2d_9">
      <g>
       <use style="stroke:#000000;stroke-width:0.8;" x="379.020559" xlink:href="#m12d2e567cd" y="307.584"/>
      </g>
     </g>
     <g id="text_9">
      <!-- 2021-05 -->
      <g transform="translate(358.129153 322.182437)scale(0.1 -0.1)">
       <use xlink:href="#DejaVuSans-50"/>
       <use x="63.623047" xlink:href="#DejaVuSans-48"/>
       <use x="127.246094" xlink:href="#DejaVuSans-50"/>
       <use x="190.869141" xlink:href="#DejaVuSans-49"/>
       <use x="254.492188" xlink:href="#DejaVuSans-45"/>
       <use x="290.576172" xlink:href="#DejaVuSans-48"/>
       <use x="354.199219" xlink:href="#DejaVuSans-53"/>
      </g>
     </g>
    </g>
   </g>
   <g id="matplotlib.axis_2">
    <g id="ytick_1">
     <g id="line2d_10">
      <defs>
       <path d="M 0 0 
L -3.5 0 
" id="mbf3ba9ab35" style="stroke:#000000;stroke-width:0.8;"/>
      </defs>
      <g>
       <use style="stroke:#000000;stroke-width:0.8;" x="57.6" xlink:href="#mbf3ba9ab35" y="270.625036"/>
      </g>
     </g>
     <g id="text_10">
      <!-- −4000 -->
      <g transform="translate(16.770313 274.424255)scale(0.1 -0.1)">
       <defs>
        <path d="M 10.59375 35.5 
L 73.1875 35.5 
L 73.1875 27.203125 
L 10.59375 27.203125 
z
" id="DejaVuSans-8722"/>
        <path d="M 37.796875 64.3125 
L 12.890625 25.390625 
L 37.796875 25.390625 
z
M 35.203125 72.90625 
L 47.609375 72.90625 
L 47.609375 25.390625 
L 58.015625 25.390625 
L 58.015625 17.1875 
L 47.609375 17.1875 
L 47.609375 0 
L 37.796875 0 
L 37.796875 17.1875 
L 4.890625 17.1875 
L 4.890625 26.703125 
z
" id="DejaVuSans-52"/>
       </defs>
       <use xlink:href="#DejaVuSans-8722"/>
       <use x="83.789062" xlink:href="#DejaVuSans-52"/>
       <use x="147.412109" xlink:href="#DejaVuSans-48"/>
       <use x="211.035156" xlink:href="#DejaVuSans-48"/>
       <use x="274.658203" xlink:href="#DejaVuSans-48"/>
      </g>
     </g>
    </g>
    <g id="ytick_2">
     <g id="line2d_11">
      <g>
       <use style="stroke:#000000;stroke-width:0.8;" x="57.6" xlink:href="#mbf3ba9ab35" y="223.714054"/>
      </g>
     </g>
     <g id="text_11">
      <!-- −2000 -->
      <g transform="translate(16.770313 227.513273)scale(0.1 -0.1)">
       <use xlink:href="#DejaVuSans-8722"/>
       <use x="83.789062" xlink:href="#DejaVuSans-50"/>
       <use x="147.412109" xlink:href="#DejaVuSans-48"/>
       <use x="211.035156" xlink:href="#DejaVuSans-48"/>
       <use x="274.658203" xlink:href="#DejaVuSans-48"/>
      </g>
     </g>
    </g>
    <g id="ytick_3">
     <g id="line2d_12">
      <g>
       <use style="stroke:#000000;stroke-width:0.8;" x="57.6" xlink:href="#mbf3ba9ab35" y="176.803073"/>
      </g>
     </g>
     <g id="text_12">
      <!-- 0 -->
      <g transform="translate(44.2375 180.602292)scale(0.1 -0.1)">
       <use xlink:href="#DejaVuSans-48"/>
      </g>
     </g>
    </g>
    <g id="ytick_4">
     <g id="line2d_13">
      <g>
       <use style="stroke:#000000;stroke-width:0.8;" x="57.6" xlink:href="#mbf3ba9ab35" y="129.892091"/>
      </g>
     </g>
     <g id="text_13">
      <!-- 2000 -->
      <g transform="translate(25.15 133.69131)scale(0.1 -0.1)">
       <use xlink:href="#DejaVuSans-50"/>
       <use x="63.623047" xlink:href="#DejaVuSans-48"/>
       <use x="127.246094" xlink:href="#DejaVuSans-48"/>
       <use x="190.869141" xlink:href="#DejaVuSans-48"/>
      </g>
     </g>
    </g>
    <g id="ytick_5">
     <g id="line2d_14">
      <g>
       <use style="stroke:#000000;stroke-width:0.8;" x="57.6" xlink:href="#mbf3ba9ab35" y="82.98111"/>
      </g>
     </g>
     <g id="text_14">
      <!-- 4000 -->
      <g transform="translate(25.15 86.780329)scale(0.1 -0.1)">
       <use xlink:href="#DejaVuSans-52"/>
       <use x="63.623047" xlink:href="#DejaVuSans-48"/>
       <use x="127.246094" xlink:href="#DejaVuSans-48"/>
       <use x="190.869141" xlink:href="#DejaVuSans-48"/>
      </g>
     </g>
    </g>
   </g>
   <g id="line2d_15">
    <path clip-path="url(#p6e7d5f38a3)" d="M 73.832727 176.803073 
L 398.487273 176.803073 
L 398.487273 176.803073 
" style="fill:none;stroke:#1f77b4;stroke-dasharray:5.55,2.4;stroke-dashoffset:0;stroke-width:1.5;"/>
   </g>
   <g id="line2d_16">
    <path clip-path="url(#p6e7d5f38a3)" d="M 73.832727 176.803073 
L 74.460686 177.225444 
L 75.716603 176.52188 
L 76.344561 176.269288 
L 76.97252 175.329039 
L 77.600478 173.853335 
L 78.228437 172.936303 
L 78.856395 172.697433 
L 79.484354 171.864305 
L 80.112312 171.57926 
L 80.740271 171.122061 
L 81.368229 170.967433 
L 81.996188 169.59451 
L 82.624146 168.597656 
L 84.508022 167.027216 
L 85.13598 167.204566 
L 85.763939 167.573624 
L 86.391897 167.795318 
L 87.019856 168.196823 
L 88.275773 169.824566 
L 88.903731 170.660181 
L 89.53169 170.895222 
L 90.159648 170.581409 
L 90.787607 169.488533 
L 91.415565 168.898688 
L 92.043524 168.135776 
L 93.299441 167.812174 
L 93.927399 167.897857 
L 94.555358 168.135313 
L 95.183316 168.637386 
L 97.69515 167.242804 
L 98.323109 166.622497 
L 98.951067 166.802311 
L 100.206984 165.892315 
L 101.462901 165.782169 
L 103.346777 168.562807 
L 103.974735 168.647387 
L 105.230652 170.9064 
L 106.486569 172.337603 
L 107.114528 172.356933 
L 107.742486 173.000962 
L 108.370445 174.198528 
L 108.998403 176.135279 
L 110.25432 179.018101 
L 110.882279 180.362137 
L 111.510237 181.381271 
L 112.138196 181.415377 
L 112.766154 181.686239 
L 113.394113 181.812063 
L 114.65003 180.734839 
L 115.277988 180.656577 
L 116.533905 183.494504 
L 117.161864 184.479225 
L 117.789822 185.112069 
L 118.417781 191.249349 
L 119.673698 197.623513 
L 120.929615 201.399582 
L 121.557573 201.968465 
L 122.185532 202.014039 
L 123.441449 198.655659 
L 124.069407 197.159408 
L 124.697366 196.455644 
L 127.2092 188.694202 
L 127.837158 187.936385 
L 128.465117 187.414629 
L 129.093075 187.578866 
L 130.976951 184.438547 
L 131.604909 183.082181 
L 132.860826 180.991726 
L 133.488785 180.268115 
L 134.116743 178.611673 
L 136.000619 175.683189 
L 137.256536 176.022174 
L 138.512453 176.271851 
L 139.140411 176.391102 
L 139.76837 176.912561 
L 140.396328 176.42939 
L 141.024287 176.211498 
L 141.652245 175.624074 
L 142.280204 175.416165 
L 143.536121 176.096316 
L 144.164079 175.809322 
L 145.419996 174.257055 
L 146.675913 172.948415 
L 147.303872 172.276754 
L 147.93183 171.854236 
L 148.559789 169.668634 
L 150.443664 165.742296 
L 151.071623 165.023079 
L 152.955499 163.804138 
L 153.583457 162.075757 
L 154.211416 161.233655 
L 154.839374 161.211102 
L 156.095291 164.65768 
L 156.72325 165.760519 
L 157.351208 165.807165 
L 157.979167 165.080966 
L 159.235084 165.909184 
L 160.491001 165.733632 
L 161.118959 165.686837 
L 161.746918 166.292806 
L 162.374876 167.706816 
L 163.630793 169.580595 
L 164.258752 171.205192 
L 165.514669 173.174105 
L 166.142627 173.273481 
L 166.770586 172.719337 
L 167.398544 172.597542 
L 168.026503 172.041729 
L 168.654461 172.121304 
L 169.28242 170.852977 
L 169.910378 171.171723 
L 170.538337 171.228087 
L 171.166295 171.116036 
L 172.422212 171.540295 
L 174.934046 171.713424 
L 175.562005 172.837253 
L 178.073839 174.971695 
L 178.701797 175.083146 
L 179.957714 175.674973 
L 180.585673 176.110892 
L 181.84159 176.704775 
L 182.469548 176.256374 
L 183.097507 176.010717 
L 184.981382 177.313564 
L 185.609341 177.975061 
L 186.237299 178.281131 
L 187.493216 178.51806 
L 188.121175 178.443337 
L 189.377092 178.784463 
L 190.633009 178.82364 
L 191.260967 178.377279 
L 191.888926 178.143188 
L 192.516884 177.640762 
L 196.284635 177.246391 
L 198.796469 177.586586 
L 200.052386 177.556302 
L 200.680345 177.170494 
L 201.936262 175.972516 
L 202.56422 175.636136 
L 203.192179 175.066174 
L 203.820137 174.215456 
L 204.448096 171.5742 
L 205.704013 167.999915 
L 206.95993 165.409485 
L 207.587888 163.65336 
L 208.215847 163.823006 
L 208.843805 163.77472 
L 209.471764 163.99382 
L 210.099722 163.272661 
L 210.727681 162.797768 
L 211.355639 162.866845 
L 211.983598 162.800641 
L 212.611556 163.061735 
L 213.239515 163.029538 
L 213.867473 164.107237 
L 214.495432 164.780367 
L 217.007266 165.860867 
L 217.635224 165.454849 
L 218.263183 165.921729 
L 219.5191 167.274381 
L 220.147058 168.424623 
L 221.402975 169.89908 
L 222.030934 170.334769 
L 222.658892 171.567424 
L 223.914809 173.229619 
L 225.170726 174.058924 
L 225.798685 173.975717 
L 226.426643 174.038894 
L 227.054602 173.628801 
L 227.68256 174.295245 
L 228.310519 177.162051 
L 230.194394 181.974914 
L 230.822353 182.671336 
L 231.450311 183.610275 
L 232.07827 184.104183 
L 232.706228 184.178963 
L 233.334187 184.068359 
L 233.962145 183.798947 
L 234.590104 183.720946 
L 235.846021 182.055784 
L 236.473979 180.974019 
L 238.357855 178.554664 
L 238.985813 178.167382 
L 239.613772 178.761368 
L 240.24173 178.989809 
L 240.869689 179.702795 
L 242.125606 179.059827 
L 243.381523 178.433799 
L 244.009481 178.320176 
L 244.63744 177.943546 
L 245.265398 177.736852 
L 247.149274 178.179907 
L 247.777232 178.058354 
L 248.405191 177.758406 
L 249.661108 177.748981 
L 250.917025 176.559107 
L 252.8009 173.706386 
L 253.428859 173.141011 
L 254.684776 172.370704 
L 255.940693 172.499606 
L 256.568651 172.309317 
L 257.824568 171.103858 
L 259.080485 167.059471 
L 260.336402 164.538429 
L 260.964361 163.855806 
L 261.592319 163.390475 
L 262.220278 162.068115 
L 262.848236 161.917214 
L 265.36007 160.827325 
L 265.988029 161.304612 
L 267.243946 160.731421 
L 267.871904 158.04676 
L 268.499863 156.119352 
L 269.127821 156.241243 
L 269.75578 155.362346 
L 270.383738 155.111058 
L 271.011697 155.274394 
L 271.639655 154.890308 
L 272.267614 153.760403 
L 272.895572 153.099697 
L 273.523531 153.292099 
L 274.151489 153.923046 
L 274.779448 153.283524 
L 275.407406 151.262561 
L 276.035365 149.7531 
L 276.663323 148.813738 
L 277.291282 146.795045 
L 277.91924 145.511852 
L 278.547199 145.389542 
L 279.175157 145.694542 
L 279.803116 144.937183 
L 280.431074 145.445655 
L 281.686991 152.330241 
L 282.31495 154.016076 
L 282.942908 154.756541 
L 283.570867 152.787709 
L 284.198825 153.262941 
L 285.454742 152.747523 
L 286.082701 154.189515 
L 286.710659 154.681002 
L 287.338618 154.898483 
L 287.966576 155.688717 
L 288.594535 158.1457 
L 289.222493 159.845016 
L 290.47841 164.181261 
L 291.106369 164.614201 
L 292.362286 164.275151 
L 292.990244 163.968823 
L 293.618203 160.318774 
L 294.87412 150.296922 
L 295.502078 145.669043 
L 296.130037 143.031651 
L 296.757995 142.783073 
L 297.385954 140.889925 
L 298.013912 140.943664 
L 298.641871 140.475484 
L 299.269829 138.715413 
L 299.897788 134.506493 
L 300.525746 132.049326 
L 301.153705 129.124356 
L 301.781663 126.845128 
L 302.409622 122.838265 
L 303.03758 120.028191 
L 303.665539 117.769925 
L 304.921456 106.029585 
L 305.549414 104.053686 
L 306.177373 99.717781 
L 306.805331 91.831688 
L 308.061248 72.509217 
L 308.689207 67.500279 
L 309.317165 68.536529 
L 309.945124 75.64863 
L 310.573082 85.07887 
L 311.201041 87.197794 
L 311.828999 86.610824 
L 312.456958 91.512114 
L 313.712875 104.011945 
L 314.340833 108.227741 
L 315.59675 119.349397 
L 316.224709 133.24336 
L 318.108584 154.448373 
L 318.736543 159.479886 
L 319.364501 163.258483 
L 319.99246 170.175453 
L 320.620418 170.115815 
L 321.248377 168.576592 
L 321.876336 167.37886 
L 322.504294 168.738892 
L 323.132253 169.109434 
L 323.760211 165.803812 
L 324.38817 159.36858 
L 325.016128 155.662571 
L 326.272045 145.281474 
L 326.900004 142.095139 
L 327.527962 125.8981 
L 328.155921 113.707119 
L 328.783879 107.825122 
L 329.411838 98.165554 
L 330.039796 92.541314 
L 330.667755 89.4527 
L 331.295713 85.344805 
L 331.923672 84.525541 
L 332.55163 82.527714 
L 333.179589 76.528512 
L 333.807547 74.136335 
L 334.435506 65.317013 
L 335.691423 53.568 
L 336.319381 56.571288 
L 336.94734 69.957165 
L 337.575298 80.128653 
L 338.831215 107.275595 
L 340.087132 130.359629 
L 340.715091 131.612674 
L 341.343049 135.351204 
L 341.971008 135.065074 
L 342.598966 138.976111 
L 343.854883 144.418935 
L 344.482842 142.938032 
L 345.1108 139.357346 
L 346.366717 125.750889 
L 346.994676 117.483483 
L 347.622634 112.520139 
L 348.250593 102.382008 
L 348.878551 99.019574 
L 349.50651 103.393714 
L 350.134468 105.457295 
L 350.762427 104.356509 
L 352.646302 109.877688 
L 353.274261 113.496006 
L 353.902219 123.237513 
L 354.530178 130.763989 
L 355.786095 151.450293 
L 356.414053 153.034477 
L 357.042012 153.147168 
L 357.66997 153.586467 
L 358.297929 150.850791 
L 358.925887 146.736401 
L 359.553846 143.95457 
L 360.809763 140.825463 
L 361.437721 143.52528 
L 362.06568 144.040057 
L 362.693638 143.33998 
L 363.321597 145.050442 
L 363.949555 150.404948 
L 364.577514 151.143996 
L 365.205472 151.656173 
L 366.461389 147.641556 
L 367.089348 146.874012 
L 367.717306 139.773373 
L 368.345265 135.570751 
L 368.973223 132.288024 
L 369.601182 133.577365 
L 370.22914 137.481646 
L 371.485057 158.127235 
L 372.113016 164.537716 
L 373.368933 186.526673 
L 375.252808 215.849051 
L 375.880767 213.384259 
L 376.508725 209.127292 
L 377.136684 205.889054 
L 377.764642 205.279824 
L 378.392601 196.588379 
L 379.020559 189.573934 
L 380.276476 182.412936 
L 380.904435 186.571193 
L 381.532393 181.988481 
L 382.160352 180.318149 
L 382.78831 177.308269 
L 383.416269 171.840736 
L 384.044227 168.843063 
L 384.672186 171.010556 
L 385.300144 171.251678 
L 385.928103 184.635373 
L 386.556061 195.026795 
L 387.18402 202.709754 
L 387.811978 214.116024 
L 388.439937 223.219139 
L 389.695854 245.466447 
L 390.323812 263.848392 
L 390.951771 270.294081 
L 391.579729 280.180179 
L 392.207688 286.565841 
L 392.835646 295.488 
L 394.091563 291.517854 
L 394.719522 286.823191 
L 395.34748 283.366053 
L 395.975439 284.718956 
L 396.603397 286.554416 
L 397.231356 284.854213 
L 397.859314 279.357563 
L 398.487273 274.868166 
L 398.487273 274.868166 
" style="fill:none;stroke:#0000ff;stroke-linecap:square;stroke-width:1.5;"/>
   </g>
   <g id="line2d_17">
    <path clip-path="url(#p6e7d5f38a3)" d="M 73.832727 176.803073 
L 75.088644 176.879256 
L 76.344561 176.700082 
L 76.97252 176.425873 
L 78.856395 174.792569 
L 80.740271 173.16952 
L 81.368229 172.729103 
L 85.13598 169.015257 
L 86.391897 168.540608 
L 87.019856 168.471851 
L 87.647814 168.597497 
L 88.903731 169.206365 
L 89.53169 169.544137 
L 90.159648 169.751591 
L 91.415565 169.538921 
L 93.299441 168.760319 
L 94.555358 168.497324 
L 95.811275 168.482379 
L 97.067192 168.201872 
L 98.951067 167.546499 
L 101.462901 166.59149 
L 102.09086 166.606159 
L 102.718818 166.772617 
L 104.602694 167.922158 
L 108.370445 171.511113 
L 109.626362 173.477905 
L 112.138196 177.778436 
L 113.394113 179.21041 
L 114.022071 179.6344 
L 115.277988 180.014905 
L 115.905947 180.44663 
L 117.789822 182.415061 
L 119.045739 186.236549 
L 120.929615 192.858515 
L 121.557573 194.680505 
L 122.185532 196.147212 
L 122.81349 196.96689 
L 123.441449 197.304644 
L 124.069407 197.275597 
L 124.697366 197.111606 
L 125.325324 196.579076 
L 126.581241 194.626863 
L 127.837158 192.339542 
L 128.465117 191.354559 
L 130.348992 188.975852 
L 132.232868 186.07145 
L 136.628577 179.01055 
L 137.884494 177.949679 
L 139.140411 177.369511 
L 140.396328 177.108375 
L 141.652245 176.668015 
L 142.280204 176.417645 
L 143.536121 176.255788 
L 144.164079 176.166494 
L 145.419996 175.588544 
L 146.675913 174.752587 
L 147.93183 173.776784 
L 149.187747 172.027936 
L 151.699582 168.112746 
L 153.583457 165.719699 
L 154.839374 164.100213 
L 155.467333 163.856566 
L 156.095291 164.016789 
L 157.351208 164.653861 
L 158.607125 164.902171 
L 159.863042 165.238674 
L 161.746918 165.584561 
L 163.002835 166.548438 
L 163.630793 167.154869 
L 166.142627 170.402581 
L 167.398544 171.212254 
L 168.654461 171.52678 
L 169.910378 171.34796 
L 172.422212 171.346748 
L 174.934046 171.556524 
L 176.189963 172.131557 
L 178.073839 173.315354 
L 181.84159 175.362309 
L 184.981382 176.259237 
L 186.865258 177.225893 
L 188.121175 177.676129 
L 190.633009 178.316584 
L 191.888926 178.291616 
L 195.656677 177.618193 
L 197.540552 177.495332 
L 200.680345 177.458803 
L 201.936262 177.020609 
L 203.192179 176.408206 
L 203.820137 175.969656 
L 204.448096 175.090565 
L 205.704013 172.809352 
L 208.215847 167.982449 
L 208.843805 167.140903 
L 211.355639 164.773794 
L 212.611556 164.115678 
L 213.239515 163.89845 
L 213.867473 163.940207 
L 215.751349 164.516737 
L 217.007266 164.966063 
L 218.263183 165.235402 
L 219.5191 165.874256 
L 221.402975 167.534525 
L 222.658892 168.789144 
L 225.170726 171.553306 
L 226.426643 172.43801 
L 227.68256 172.999983 
L 228.938477 174.837292 
L 231.450311 179.362162 
L 232.706228 181.084246 
L 233.334187 181.681068 
L 234.590104 182.427905 
L 235.218062 182.532535 
L 235.846021 182.437185 
L 237.101938 181.74093 
L 239.613772 179.926967 
L 240.24173 179.739536 
L 241.497647 179.649665 
L 243.381523 179.190296 
L 246.521315 178.3594 
L 248.405191 178.168059 
L 250.289066 177.862225 
L 250.917025 177.601601 
L 252.172942 176.69559 
L 254.684776 174.443519 
L 255.940693 173.737029 
L 257.19661 173.116565 
L 257.824568 172.714023 
L 258.452527 171.97077 
L 262.848236 165.174337 
L 264.104153 163.845599 
L 265.36007 162.775492 
L 267.243946 161.903957 
L 267.871904 161.132517 
L 268.499863 160.129884 
L 270.383738 157.865567 
L 272.267614 156.236822 
L 272.895572 155.609397 
L 273.523531 155.145938 
L 274.779448 154.577792 
L 275.407406 153.914746 
L 276.663323 152.228681 
L 278.547199 149.090655 
L 279.803116 147.716583 
L 280.431074 147.262397 
L 281.059033 147.628302 
L 282.31495 149.658167 
L 282.942908 150.677842 
L 284.826784 151.833207 
L 285.454742 152.01607 
L 287.966576 153.775458 
L 289.222493 155.688608 
L 291.734327 160.605521 
L 292.362286 161.339447 
L 292.990244 161.865322 
L 293.618203 161.556012 
L 294.246161 160.231874 
L 294.87412 158.244884 
L 296.757995 151.108697 
L 297.385954 149.064942 
L 298.641871 146.047646 
L 299.269829 144.5812 
L 301.153705 138.195169 
L 302.409622 133.307781 
L 303.665539 128.075476 
L 305.549414 117.623676 
L 306.177373 114.042497 
L 306.805331 109.600335 
L 308.061248 97.6947 
L 308.689207 91.655816 
L 309.317165 87.031959 
L 309.945124 84.755293 
L 310.573082 84.820008 
L 311.201041 85.295565 
L 311.828999 85.558617 
L 312.456958 86.749317 
L 313.084916 88.961228 
L 314.340833 95.222645 
L 315.59675 102.993015 
L 317.480626 121.938337 
L 319.364501 140.370299 
L 319.99246 146.331329 
L 320.620418 151.088227 
L 321.248377 154.5859 
L 322.504294 159.463372 
L 323.132253 161.392584 
L 323.760211 162.27483 
L 324.38817 161.69358 
L 325.016128 160.487378 
L 325.644087 158.5418 
L 326.900004 153.130816 
L 327.527962 147.684273 
L 330.667755 114.011703 
L 331.923672 103.527767 
L 333.807547 90.641593 
L 335.691423 75.018501 
L 336.319381 71.329059 
L 336.94734 71.05468 
L 337.575298 72.869475 
L 338.203257 77.105104 
L 338.831215 83.139202 
L 341.343049 111.032744 
L 343.226925 124.74159 
L 343.854883 128.677059 
L 344.482842 131.529254 
L 345.1108 133.094872 
L 345.738759 132.984062 
L 346.366717 131.537428 
L 347.622634 125.485339 
L 348.878551 116.495653 
L 349.50651 113.875265 
L 350.762427 110.624639 
L 351.390385 109.755781 
L 352.018344 109.397882 
L 352.646302 109.493843 
L 353.274261 110.294276 
L 353.902219 112.882923 
L 354.530178 116.459136 
L 355.158136 121.389373 
L 356.414053 132.528141 
L 357.66997 140.03885 
L 358.297929 142.201238 
L 358.925887 143.108271 
L 359.553846 143.277531 
L 360.181804 143.079579 
L 360.809763 142.628756 
L 362.693638 143.111564 
L 363.321597 143.49934 
L 364.577514 146.133168 
L 365.205472 147.237769 
L 365.833431 147.690057 
L 366.461389 147.680357 
L 367.089348 147.519088 
L 367.717306 145.969945 
L 369.601182 139.971225 
L 370.22914 139.473309 
L 370.857099 141.20116 
L 372.113016 148.576643 
L 372.740974 153.797501 
L 373.996891 167.657399 
L 375.252808 183.535315 
L 375.880767 189.505104 
L 376.508725 193.429542 
L 377.136684 195.921444 
L 377.764642 197.79312 
L 378.392601 197.552172 
L 379.020559 195.956524 
L 380.276476 191.683067 
L 380.904435 190.660692 
L 382.78831 185.225358 
L 384.044227 179.807359 
L 384.672186 178.047999 
L 385.300144 176.688734 
L 385.928103 178.278062 
L 386.556061 181.627809 
L 387.18402 185.844198 
L 388.439937 197.842678 
L 389.695854 213.366999 
L 391.579729 242.299586 
L 392.835646 260.01987 
L 393.463605 266.721926 
L 394.091563 271.681112 
L 394.719522 274.709527 
L 396.603397 279.788049 
L 397.231356 280.801282 
L 397.859314 280.512538 
L 398.487273 279.383664 
L 398.487273 279.383664 
" style="fill:none;stroke:#ff6347;stroke-linecap:square;stroke-width:1.5;"/>
   </g>
   <g id="patch_3">
    <path d="M 57.6 307.584 
L 57.6 41.472 
" style="fill:none;stroke:#000000;stroke-linecap:square;stroke-linejoin:miter;stroke-width:0.8;"/>
   </g>
   <g id="patch_4">
    <path d="M 414.72 307.584 
L 414.72 41.472 
" style="fill:none;stroke:#000000;stroke-linecap:square;stroke-linejoin:miter;stroke-width:0.8;"/>
   </g>
   <g id="patch_5">
    <path d="M 57.6 307.584 
L 414.72 307.584 
" style="fill:none;stroke:#000000;stroke-linecap:square;stroke-linejoin:miter;stroke-width:0.8;"/>
   </g>
   <g id="patch_6">
    <path d="M 57.6 41.472 
L 414.72 41.472 
" style="fill:none;stroke:#000000;stroke-linecap:square;stroke-linejoin:miter;stroke-width:0.8;"/>
   </g>
   <g id="text_15">
    <!-- Data source: nomics -->
    <g transform="translate(184.91625 35.472)scale(0.1 -0.1)">
     <defs>
      <path d="M 19.671875 64.796875 
L 19.671875 8.109375 
L 31.59375 8.109375 
Q 46.6875 8.109375 53.6875 14.9375 
Q 60.6875 21.78125 60.6875 36.53125 
Q 60.6875 51.171875 53.6875 57.984375 
Q 46.6875 64.796875 31.59375 64.796875 
z
M 9.8125 72.90625 
L 30.078125 72.90625 
Q 51.265625 72.90625 61.171875 64.09375 
Q 71.09375 55.28125 71.09375 36.53125 
Q 71.09375 17.671875 61.125 8.828125 
Q 51.171875 0 30.078125 0 
L 9.8125 0 
z
" id="DejaVuSans-68"/>
      <path d="M 34.28125 27.484375 
Q 23.390625 27.484375 19.1875 25 
Q 14.984375 22.515625 14.984375 16.5 
Q 14.984375 11.71875 18.140625 8.90625 
Q 21.296875 6.109375 26.703125 6.109375 
Q 34.1875 6.109375 38.703125 11.40625 
Q 43.21875 16.703125 43.21875 25.484375 
L 43.21875 27.484375 
z
M 52.203125 31.203125 
L 52.203125 0 
L 43.21875 0 
L 43.21875 8.296875 
Q 40.140625 3.328125 35.546875 0.953125 
Q 30.953125 -1.421875 24.3125 -1.421875 
Q 15.921875 -1.421875 10.953125 3.296875 
Q 6 8.015625 6 15.921875 
Q 6 25.140625 12.171875 29.828125 
Q 18.359375 34.515625 30.609375 34.515625 
L 43.21875 34.515625 
L 43.21875 35.40625 
Q 43.21875 41.609375 39.140625 45 
Q 35.0625 48.390625 27.6875 48.390625 
Q 23 48.390625 18.546875 47.265625 
Q 14.109375 46.140625 10.015625 43.890625 
L 10.015625 52.203125 
Q 14.9375 54.109375 19.578125 55.046875 
Q 24.21875 56 28.609375 56 
Q 40.484375 56 46.34375 49.84375 
Q 52.203125 43.703125 52.203125 31.203125 
z
" id="DejaVuSans-97"/>
      <path d="M 18.3125 70.21875 
L 18.3125 54.6875 
L 36.8125 54.6875 
L 36.8125 47.703125 
L 18.3125 47.703125 
L 18.3125 18.015625 
Q 18.3125 11.328125 20.140625 9.421875 
Q 21.96875 7.515625 27.59375 7.515625 
L 36.8125 7.515625 
L 36.8125 0 
L 27.59375 0 
Q 17.1875 0 13.234375 3.875 
Q 9.28125 7.765625 9.28125 18.015625 
L 9.28125 47.703125 
L 2.6875 47.703125 
L 2.6875 54.6875 
L 9.28125 54.6875 
L 9.28125 70.21875 
z
" id="DejaVuSans-116"/>
      <path id="DejaVuSans-32"/>
      <path d="M 44.28125 53.078125 
L 44.28125 44.578125 
Q 40.484375 46.53125 36.375 47.5 
Q 32.28125 48.484375 27.875 48.484375 
Q 21.1875 48.484375 17.84375 46.4375 
Q 14.5 44.390625 14.5 40.28125 
Q 14.5 37.15625 16.890625 35.375 
Q 19.28125 33.59375 26.515625 31.984375 
L 29.59375 31.296875 
Q 39.15625 29.25 43.1875 25.515625 
Q 47.21875 21.78125 47.21875 15.09375 
Q 47.21875 7.46875 41.1875 3.015625 
Q 35.15625 -1.421875 24.609375 -1.421875 
Q 20.21875 -1.421875 15.453125 -0.5625 
Q 10.6875 0.296875 5.421875 2 
L 5.421875 11.28125 
Q 10.40625 8.6875 15.234375 7.390625 
Q 20.0625 6.109375 24.8125 6.109375 
Q 31.15625 6.109375 34.5625 8.28125 
Q 37.984375 10.453125 37.984375 14.40625 
Q 37.984375 18.0625 35.515625 20.015625 
Q 33.0625 21.96875 24.703125 23.78125 
L 21.578125 24.515625 
Q 13.234375 26.265625 9.515625 29.90625 
Q 5.8125 33.546875 5.8125 39.890625 
Q 5.8125 47.609375 11.28125 51.796875 
Q 16.75 56 26.8125 56 
Q 31.78125 56 36.171875 55.265625 
Q 40.578125 54.546875 44.28125 53.078125 
z
" id="DejaVuSans-115"/>
      <path d="M 30.609375 48.390625 
Q 23.390625 48.390625 19.1875 42.75 
Q 14.984375 37.109375 14.984375 27.296875 
Q 14.984375 17.484375 19.15625 11.84375 
Q 23.34375 6.203125 30.609375 6.203125 
Q 37.796875 6.203125 41.984375 11.859375 
Q 46.1875 17.53125 46.1875 27.296875 
Q 46.1875 37.015625 41.984375 42.703125 
Q 37.796875 48.390625 30.609375 48.390625 
z
M 30.609375 56 
Q 42.328125 56 49.015625 48.375 
Q 55.71875 40.765625 55.71875 27.296875 
Q 55.71875 13.875 49.015625 6.21875 
Q 42.328125 -1.421875 30.609375 -1.421875 
Q 18.84375 -1.421875 12.171875 6.21875 
Q 5.515625 13.875 5.515625 27.296875 
Q 5.515625 40.765625 12.171875 48.375 
Q 18.84375 56 30.609375 56 
z
" id="DejaVuSans-111"/>
      <path d="M 8.5 21.578125 
L 8.5 54.6875 
L 17.484375 54.6875 
L 17.484375 21.921875 
Q 17.484375 14.15625 20.5 10.265625 
Q 23.53125 6.390625 29.59375 6.390625 
Q 36.859375 6.390625 41.078125 11.03125 
Q 45.3125 15.671875 45.3125 23.6875 
L 45.3125 54.6875 
L 54.296875 54.6875 
L 54.296875 0 
L 45.3125 0 
L 45.3125 8.40625 
Q 42.046875 3.421875 37.71875 1 
Q 33.40625 -1.421875 27.6875 -1.421875 
Q 18.265625 -1.421875 13.375 4.4375 
Q 8.5 10.296875 8.5 21.578125 
z
M 31.109375 56 
z
" id="DejaVuSans-117"/>
      <path d="M 41.109375 46.296875 
Q 39.59375 47.171875 37.8125 47.578125 
Q 36.03125 48 33.890625 48 
Q 26.265625 48 22.1875 43.046875 
Q 18.109375 38.09375 18.109375 28.8125 
L 18.109375 0 
L 9.078125 0 
L 9.078125 54.6875 
L 18.109375 54.6875 
L 18.109375 46.1875 
Q 20.953125 51.171875 25.484375 53.578125 
Q 30.03125 56 36.53125 56 
Q 37.453125 56 38.578125 55.875 
Q 39.703125 55.765625 41.0625 55.515625 
z
" id="DejaVuSans-114"/>
      <path d="M 48.78125 52.59375 
L 48.78125 44.1875 
Q 44.96875 46.296875 41.140625 47.34375 
Q 37.3125 48.390625 33.40625 48.390625 
Q 24.65625 48.390625 19.8125 42.84375 
Q 14.984375 37.3125 14.984375 27.296875 
Q 14.984375 17.28125 19.8125 11.734375 
Q 24.65625 6.203125 33.40625 6.203125 
Q 37.3125 6.203125 41.140625 7.25 
Q 44.96875 8.296875 48.78125 10.40625 
L 48.78125 2.09375 
Q 45.015625 0.34375 40.984375 -0.53125 
Q 36.96875 -1.421875 32.421875 -1.421875 
Q 20.0625 -1.421875 12.78125 6.34375 
Q 5.515625 14.109375 5.515625 27.296875 
Q 5.515625 40.671875 12.859375 48.328125 
Q 20.21875 56 33.015625 56 
Q 37.15625 56 41.109375 55.140625 
Q 45.0625 54.296875 48.78125 52.59375 
z
" id="DejaVuSans-99"/>
      <path d="M 56.203125 29.59375 
L 56.203125 25.203125 
L 14.890625 25.203125 
Q 15.484375 15.921875 20.484375 11.0625 
Q 25.484375 6.203125 34.421875 6.203125 
Q 39.59375 6.203125 44.453125 7.46875 
Q 49.3125 8.734375 54.109375 11.28125 
L 54.109375 2.78125 
Q 49.265625 0.734375 44.1875 -0.34375 
Q 39.109375 -1.421875 33.890625 -1.421875 
Q 20.796875 -1.421875 13.15625 6.1875 
Q 5.515625 13.8125 5.515625 26.8125 
Q 5.515625 40.234375 12.765625 48.109375 
Q 20.015625 56 32.328125 56 
Q 43.359375 56 49.78125 48.890625 
Q 56.203125 41.796875 56.203125 29.59375 
z
M 47.21875 32.234375 
Q 47.125 39.59375 43.09375 43.984375 
Q 39.0625 48.390625 32.421875 48.390625 
Q 24.90625 48.390625 20.390625 44.140625 
Q 15.875 39.890625 15.1875 32.171875 
z
" id="DejaVuSans-101"/>
      <path d="M 11.71875 12.40625 
L 22.015625 12.40625 
L 22.015625 0 
L 11.71875 0 
z
M 11.71875 51.703125 
L 22.015625 51.703125 
L 22.015625 39.3125 
L 11.71875 39.3125 
z
" id="DejaVuSans-58"/>
      <path d="M 54.890625 33.015625 
L 54.890625 0 
L 45.90625 0 
L 45.90625 32.71875 
Q 45.90625 40.484375 42.875 44.328125 
Q 39.84375 48.1875 33.796875 48.1875 
Q 26.515625 48.1875 22.3125 43.546875 
Q 18.109375 38.921875 18.109375 30.90625 
L 18.109375 0 
L 9.078125 0 
L 9.078125 54.6875 
L 18.109375 54.6875 
L 18.109375 46.1875 
Q 21.34375 51.125 25.703125 53.5625 
Q 30.078125 56 35.796875 56 
Q 45.21875 56 50.046875 50.171875 
Q 54.890625 44.34375 54.890625 33.015625 
z
" id="DejaVuSans-110"/>
      <path d="M 52 44.1875 
Q 55.375 50.25 60.0625 53.125 
Q 64.75 56 71.09375 56 
Q 79.640625 56 84.28125 50.015625 
Q 88.921875 44.046875 88.921875 33.015625 
L 88.921875 0 
L 79.890625 0 
L 79.890625 32.71875 
Q 79.890625 40.578125 77.09375 44.375 
Q 74.3125 48.1875 68.609375 48.1875 
Q 61.625 48.1875 57.5625 43.546875 
Q 53.515625 38.921875 53.515625 30.90625 
L 53.515625 0 
L 44.484375 0 
L 44.484375 32.71875 
Q 44.484375 40.625 41.703125 44.40625 
Q 38.921875 48.1875 33.109375 48.1875 
Q 26.21875 48.1875 22.15625 43.53125 
Q 18.109375 38.875 18.109375 30.90625 
L 18.109375 0 
L 9.078125 0 
L 9.078125 54.6875 
L 18.109375 54.6875 
L 18.109375 46.1875 
Q 21.1875 51.21875 25.484375 53.609375 
Q 29.78125 56 35.6875 56 
Q 41.65625 56 45.828125 52.96875 
Q 50 49.953125 52 44.1875 
z
" id="DejaVuSans-109"/>
      <path d="M 9.421875 54.6875 
L 18.40625 54.6875 
L 18.40625 0 
L 9.421875 0 
z
M 9.421875 75.984375 
L 18.40625 75.984375 
L 18.40625 64.59375 
L 9.421875 64.59375 
z
" id="DejaVuSans-105"/>
     </defs>
     <use xlink:href="#DejaVuSans-68"/>
     <use x="77.001953" xlink:href="#DejaVuSans-97"/>
     <use x="138.28125" xlink:href="#DejaVuSans-116"/>
     <use x="177.490234" xlink:href="#DejaVuSans-97"/>
     <use x="238.769531" xlink:href="#DejaVuSans-32"/>
     <use x="270.556641" xlink:href="#DejaVuSans-115"/>
     <use x="322.65625" xlink:href="#DejaVuSans-111"/>
     <use x="383.837891" xlink:href="#DejaVuSans-117"/>
     <use x="447.216797" xlink:href="#DejaVuSans-114"/>
     <use x="486.080078" xlink:href="#DejaVuSans-99"/>
     <use x="541.060547" xlink:href="#DejaVuSans-101"/>
     <use x="602.583984" xlink:href="#DejaVuSans-58"/>
     <use x="636.275391" xlink:href="#DejaVuSans-32"/>
     <use x="668.0625" xlink:href="#DejaVuSans-110"/>
     <use x="731.441406" xlink:href="#DejaVuSans-111"/>
     <use x="792.623047" xlink:href="#DejaVuSans-109"/>
     <use x="890.035156" xlink:href="#DejaVuSans-105"/>
     <use x="917.818359" xlink:href="#DejaVuSans-99"/>
     <use x="972.798828" xlink:href="#DejaVuSans-115"/>
    </g>
   </g>
   <g id="legend_1">
    <g id="patch_7">
     <path d="M 345.00125 78.82825 
L 407.72 78.82825 
Q 409.72 78.82825 409.72 76.82825 
L 409.72 48.472 
Q 409.72 46.472 407.72 46.472 
L 345.00125 46.472 
Q 343.00125 46.472 343.00125 48.472 
L 343.00125 76.82825 
Q 343.00125 78.82825 345.00125 78.82825 
z
" style="fill:#ffffff;opacity:0.8;stroke:#cccccc;stroke-linejoin:miter;"/>
    </g>
    <g id="line2d_18">
     <path d="M 347.00125 54.570437 
L 367.00125 54.570437 
" style="fill:none;stroke:#0000ff;stroke-linecap:square;stroke-width:1.5;"/>
    </g>
    <g id="line2d_19"/>
    <g id="text_16">
     <!-- MACD -->
     <g transform="translate(375.00125 58.070437)scale(0.1 -0.1)">
      <defs>
       <path d="M 9.8125 72.90625 
L 24.515625 72.90625 
L 43.109375 23.296875 
L 61.8125 72.90625 
L 76.515625 72.90625 
L 76.515625 0 
L 66.890625 0 
L 66.890625 64.015625 
L 48.09375 14.015625 
L 38.1875 14.015625 
L 19.390625 64.015625 
L 19.390625 0 
L 9.8125 0 
z
" id="DejaVuSans-77"/>
       <path d="M 34.1875 63.1875 
L 20.796875 26.90625 
L 47.609375 26.90625 
z
M 28.609375 72.90625 
L 39.796875 72.90625 
L 67.578125 0 
L 57.328125 0 
L 50.6875 18.703125 
L 17.828125 18.703125 
L 11.1875 0 
L 0.78125 0 
z
" id="DejaVuSans-65"/>
       <path d="M 64.40625 67.28125 
L 64.40625 56.890625 
Q 59.421875 61.53125 53.78125 63.8125 
Q 48.140625 66.109375 41.796875 66.109375 
Q 29.296875 66.109375 22.65625 58.46875 
Q 16.015625 50.828125 16.015625 36.375 
Q 16.015625 21.96875 22.65625 14.328125 
Q 29.296875 6.6875 41.796875 6.6875 
Q 48.140625 6.6875 53.78125 8.984375 
Q 59.421875 11.28125 64.40625 15.921875 
L 64.40625 5.609375 
Q 59.234375 2.09375 53.4375 0.328125 
Q 47.65625 -1.421875 41.21875 -1.421875 
Q 24.65625 -1.421875 15.125 8.703125 
Q 5.609375 18.84375 5.609375 36.375 
Q 5.609375 53.953125 15.125 64.078125 
Q 24.65625 74.21875 41.21875 74.21875 
Q 47.75 74.21875 53.53125 72.484375 
Q 59.328125 70.75 64.40625 67.28125 
z
" id="DejaVuSans-67"/>
      </defs>
      <use xlink:href="#DejaVuSans-77"/>
      <use x="86.279297" xlink:href="#DejaVuSans-65"/>
      <use x="152.9375" xlink:href="#DejaVuSans-67"/>
      <use x="222.761719" xlink:href="#DejaVuSans-68"/>
     </g>
    </g>
    <g id="line2d_20">
     <path d="M 347.00125 69.248562 
L 367.00125 69.248562 
" style="fill:none;stroke:#ff6347;stroke-linecap:square;stroke-width:1.5;"/>
    </g>
    <g id="line2d_21"/>
    <g id="text_17">
     <!-- Signal -->
     <g transform="translate(375.00125 72.748562)scale(0.1 -0.1)">
      <defs>
       <path d="M 53.515625 70.515625 
L 53.515625 60.890625 
Q 47.90625 63.578125 42.921875 64.890625 
Q 37.9375 66.21875 33.296875 66.21875 
Q 25.25 66.21875 20.875 63.09375 
Q 16.5 59.96875 16.5 54.203125 
Q 16.5 49.359375 19.40625 46.890625 
Q 22.3125 44.4375 30.421875 42.921875 
L 36.375 41.703125 
Q 47.40625 39.59375 52.65625 34.296875 
Q 57.90625 29 57.90625 20.125 
Q 57.90625 9.515625 50.796875 4.046875 
Q 43.703125 -1.421875 29.984375 -1.421875 
Q 24.8125 -1.421875 18.96875 -0.25 
Q 13.140625 0.921875 6.890625 3.21875 
L 6.890625 13.375 
Q 12.890625 10.015625 18.65625 8.296875 
Q 24.421875 6.59375 29.984375 6.59375 
Q 38.421875 6.59375 43.015625 9.90625 
Q 47.609375 13.234375 47.609375 19.390625 
Q 47.609375 24.75 44.3125 27.78125 
Q 41.015625 30.8125 33.5 32.328125 
L 27.484375 33.5 
Q 16.453125 35.6875 11.515625 40.375 
Q 6.59375 45.0625 6.59375 53.421875 
Q 6.59375 63.09375 13.40625 68.65625 
Q 20.21875 74.21875 32.171875 74.21875 
Q 37.3125 74.21875 42.625 73.28125 
Q 47.953125 72.359375 53.515625 70.515625 
z
" id="DejaVuSans-83"/>
       <path d="M 45.40625 27.984375 
Q 45.40625 37.75 41.375 43.109375 
Q 37.359375 48.484375 30.078125 48.484375 
Q 22.859375 48.484375 18.828125 43.109375 
Q 14.796875 37.75 14.796875 27.984375 
Q 14.796875 18.265625 18.828125 12.890625 
Q 22.859375 7.515625 30.078125 7.515625 
Q 37.359375 7.515625 41.375 12.890625 
Q 45.40625 18.265625 45.40625 27.984375 
z
M 54.390625 6.78125 
Q 54.390625 -7.171875 48.1875 -13.984375 
Q 42 -20.796875 29.203125 -20.796875 
Q 24.46875 -20.796875 20.265625 -20.09375 
Q 16.0625 -19.390625 12.109375 -17.921875 
L 12.109375 -9.1875 
Q 16.0625 -11.328125 19.921875 -12.34375 
Q 23.78125 -13.375 27.78125 -13.375 
Q 36.625 -13.375 41.015625 -8.765625 
Q 45.40625 -4.15625 45.40625 5.171875 
L 45.40625 9.625 
Q 42.625 4.78125 38.28125 2.390625 
Q 33.9375 0 27.875 0 
Q 17.828125 0 11.671875 7.65625 
Q 5.515625 15.328125 5.515625 27.984375 
Q 5.515625 40.671875 11.671875 48.328125 
Q 17.828125 56 27.875 56 
Q 33.9375 56 38.28125 53.609375 
Q 42.625 51.21875 45.40625 46.390625 
L 45.40625 54.6875 
L 54.390625 54.6875 
z
" id="DejaVuSans-103"/>
       <path d="M 9.421875 75.984375 
L 18.40625 75.984375 
L 18.40625 0 
L 9.421875 0 
z
" id="DejaVuSans-108"/>
      </defs>
      <use xlink:href="#DejaVuSans-83"/>
      <use x="63.476562" xlink:href="#DejaVuSans-105"/>
      <use x="91.259766" xlink:href="#DejaVuSans-103"/>
      <use x="154.736328" xlink:href="#DejaVuSans-110"/>
      <use x="218.115234" xlink:href="#DejaVuSans-97"/>
      <use x="279.394531" xlink:href="#DejaVuSans-108"/>
     </g>
    </g>
   </g>
  </g>
  <g id="text_18">
   <!-- MACD -->
   <g transform="translate(206.41875 19.0695)scale(0.16 -0.16)">
    <use xlink:href="#DejaVuSans-77"/>
    <use x="86.279297" xlink:href="#DejaVuSans-65"/>
    <use x="152.9375" xlink:href="#DejaVuSans-67"/>
    <use x="222.761719" xlink:href="#DejaVuSans-68"/>
   </g>
  </g>
 </g>
 <defs>
  <clipPath id="p6e7d5f38a3">
   <rect height="266.112" width="357.12" x="57.6" y="41.472"/>
  </clipPath>
 </defs>
</svg>
