<?xml version="1.0" encoding="utf-8" standalone="no"?>
<!DOCTYPE svg PUBLIC "-//W3C//DTD SVG 1.1//EN"
  "http://www.w3.org/Graphics/SVG/1.1/DTD/svg11.dtd">
<!-- Created with matplotlib (https://matplotlib.org/) -->
<svg height="345.6pt" version="1.1" viewBox="0 0 460.8 345.6" width="460.8pt" xmlns="http://www.w3.org/2000/svg" xmlns:xlink="http://www.w3.org/1999/xlink">
 <metadata>
  <rdf:RDF xmlns:cc="http://creativecommons.org/ns#" xmlns:dc="http://purl.org/dc/elements/1.1/" xmlns:rdf="http://www.w3.org/1999/02/22-rdf-syntax-ns#">
   <cc:Work>
    <dc:type rdf:resource="http://purl.org/dc/dcmitype/StillImage"/>
    <dc:date>2021-02-07T19:01:51.566015</dc:date>
    <dc:format>image/svg+xml</dc:format>
    <dc:creator>
     <cc:Agent>
      <dc:title>Matplotlib v3.3.2, https://matplotlib.org/</dc:title>
     </cc:Agent>
    </dc:creator>
   </cc:Work>
  </rdf:RDF>
 </metadata>
 <defs>
  <style type="text/css">*{stroke-linecap:butt;stroke-linejoin:round;}</style>
 </defs>
 <g id="figure_1">
  <g id="patch_1">
   <path d="M 0 345.6 
L 460.8 345.6 
L 460.8 0 
L 0 0 
z
" style="fill:#ffffff;"/>
  </g>
  <g id="axes_1">
   <g id="patch_2">
    <path d="M 57.6 307.584 
L 414.72 307.584 
L 414.72 41.472 
L 57.6 41.472 
z
" style="fill:#ffffff;"/>
   </g>
   <g id="matplotlib.axis_1">
    <g id="xtick_1">
     <g id="line2d_1">
      <defs>
       <path d="M 0 0 
L 0 3.5 
" id="m5014f4cec0" style="stroke:#000000;stroke-width:0.8;"/>
      </defs>
      <g>
       <use style="stroke:#000000;stroke-width:0.8;" x="73.832727" xlink:href="#m5014f4cec0" y="307.584"/>
      </g>
     </g>
     <g id="text_1">
      <!-- 2020-01 -->
      <g transform="translate(52.941321 322.182437)scale(0.1 -0.1)">
       <defs>
        <path d="M 19.1875 8.296875 
L 53.609375 8.296875 
L 53.609375 0 
L 7.328125 0 
L 7.328125 8.296875 
Q 12.9375 14.109375 22.625 23.890625 
Q 32.328125 33.6875 34.8125 36.53125 
Q 39.546875 41.84375 41.421875 45.53125 
Q 43.3125 49.21875 43.3125 52.78125 
Q 43.3125 58.59375 39.234375 62.25 
Q 35.15625 65.921875 28.609375 65.921875 
Q 23.96875 65.921875 18.8125 64.3125 
Q 13.671875 62.703125 7.8125 59.421875 
L 7.8125 69.390625 
Q 13.765625 71.78125 18.9375 73 
Q 24.125 74.21875 28.421875 74.21875 
Q 39.75 74.21875 46.484375 68.546875 
Q 53.21875 62.890625 53.21875 53.421875 
Q 53.21875 48.921875 51.53125 44.890625 
Q 49.859375 40.875 45.40625 35.40625 
Q 44.1875 33.984375 37.640625 27.21875 
Q 31.109375 20.453125 19.1875 8.296875 
z
" id="DejaVuSans-50"/>
        <path d="M 31.78125 66.40625 
Q 24.171875 66.40625 20.328125 58.90625 
Q 16.5 51.421875 16.5 36.375 
Q 16.5 21.390625 20.328125 13.890625 
Q 24.171875 6.390625 31.78125 6.390625 
Q 39.453125 6.390625 43.28125 13.890625 
Q 47.125 21.390625 47.125 36.375 
Q 47.125 51.421875 43.28125 58.90625 
Q 39.453125 66.40625 31.78125 66.40625 
z
M 31.78125 74.21875 
Q 44.046875 74.21875 50.515625 64.515625 
Q 56.984375 54.828125 56.984375 36.375 
Q 56.984375 17.96875 50.515625 8.265625 
Q 44.046875 -1.421875 31.78125 -1.421875 
Q 19.53125 -1.421875 13.0625 8.265625 
Q 6.59375 17.96875 6.59375 36.375 
Q 6.59375 54.828125 13.0625 64.515625 
Q 19.53125 74.21875 31.78125 74.21875 
z
" id="DejaVuSans-48"/>
        <path d="M 4.890625 31.390625 
L 31.203125 31.390625 
L 31.203125 23.390625 
L 4.890625 23.390625 
z
" id="DejaVuSans-45"/>
        <path d="M 12.40625 8.296875 
L 28.515625 8.296875 
L 28.515625 63.921875 
L 10.984375 60.40625 
L 10.984375 69.390625 
L 28.421875 72.90625 
L 38.28125 72.90625 
L 38.28125 8.296875 
L 54.390625 8.296875 
L 54.390625 0 
L 12.40625 0 
z
" id="DejaVuSans-49"/>
       </defs>
       <use xlink:href="#DejaVuSans-50"/>
       <use x="63.623047" xlink:href="#DejaVuSans-48"/>
       <use x="127.246094" xlink:href="#DejaVuSans-50"/>
       <use x="190.869141" xlink:href="#DejaVuSans-48"/>
       <use x="254.492188" xlink:href="#DejaVuSans-45"/>
       <use x="290.576172" xlink:href="#DejaVuSans-48"/>
       <use x="354.199219" xlink:href="#DejaVuSans-49"/>
      </g>
     </g>
    </g>
    <g id="xtick_2">
     <g id="line2d_2">
      <g>
       <use style="stroke:#000000;stroke-width:0.8;" x="122.168392" xlink:href="#m5014f4cec0" y="307.584"/>
      </g>
     </g>
     <g id="text_2">
      <!-- 2020-03 -->
      <g transform="translate(101.276985 322.182437)scale(0.1 -0.1)">
       <defs>
        <path d="M 40.578125 39.3125 
Q 47.65625 37.796875 51.625 33 
Q 55.609375 28.21875 55.609375 21.1875 
Q 55.609375 10.40625 48.1875 4.484375 
Q 40.765625 -1.421875 27.09375 -1.421875 
Q 22.515625 -1.421875 17.65625 -0.515625 
Q 12.796875 0.390625 7.625 2.203125 
L 7.625 11.71875 
Q 11.71875 9.328125 16.59375 8.109375 
Q 21.484375 6.890625 26.8125 6.890625 
Q 36.078125 6.890625 40.9375 10.546875 
Q 45.796875 14.203125 45.796875 21.1875 
Q 45.796875 27.640625 41.28125 31.265625 
Q 36.765625 34.90625 28.71875 34.90625 
L 20.21875 34.90625 
L 20.21875 43.015625 
L 29.109375 43.015625 
Q 36.375 43.015625 40.234375 45.921875 
Q 44.09375 48.828125 44.09375 54.296875 
Q 44.09375 59.90625 40.109375 62.90625 
Q 36.140625 65.921875 28.71875 65.921875 
Q 24.65625 65.921875 20.015625 65.03125 
Q 15.375 64.15625 9.8125 62.3125 
L 9.8125 71.09375 
Q 15.4375 72.65625 20.34375 73.4375 
Q 25.25 74.21875 29.59375 74.21875 
Q 40.828125 74.21875 47.359375 69.109375 
Q 53.90625 64.015625 53.90625 55.328125 
Q 53.90625 49.265625 50.4375 45.09375 
Q 46.96875 40.921875 40.578125 39.3125 
z
" id="DejaVuSans-51"/>
       </defs>
       <use xlink:href="#DejaVuSans-50"/>
       <use x="63.623047" xlink:href="#DejaVuSans-48"/>
       <use x="127.246094" xlink:href="#DejaVuSans-50"/>
       <use x="190.869141" xlink:href="#DejaVuSans-48"/>
       <use x="254.492188" xlink:href="#DejaVuSans-45"/>
       <use x="290.576172" xlink:href="#DejaVuSans-48"/>
       <use x="354.199219" xlink:href="#DejaVuSans-51"/>
      </g>
     </g>
    </g>
    <g id="xtick_3">
     <g id="line2d_3">
      <g>
       <use style="stroke:#000000;stroke-width:0.8;" x="171.30965" xlink:href="#m5014f4cec0" y="307.584"/>
      </g>
     </g>
     <g id="text_3">
      <!-- 2020-05 -->
      <g transform="translate(150.418244 322.182437)scale(0.1 -0.1)">
       <defs>
        <path d="M 10.796875 72.90625 
L 49.515625 72.90625 
L 49.515625 64.59375 
L 19.828125 64.59375 
L 19.828125 46.734375 
Q 21.96875 47.46875 24.109375 47.828125 
Q 26.265625 48.1875 28.421875 48.1875 
Q 40.625 48.1875 47.75 41.5 
Q 54.890625 34.8125 54.890625 23.390625 
Q 54.890625 11.625 47.5625 5.09375 
Q 40.234375 -1.421875 26.90625 -1.421875 
Q 22.3125 -1.421875 17.546875 -0.640625 
Q 12.796875 0.140625 7.71875 1.703125 
L 7.71875 11.625 
Q 12.109375 9.234375 16.796875 8.0625 
Q 21.484375 6.890625 26.703125 6.890625 
Q 35.15625 6.890625 40.078125 11.328125 
Q 45.015625 15.765625 45.015625 23.390625 
Q 45.015625 31 40.078125 35.4375 
Q 35.15625 39.890625 26.703125 39.890625 
Q 22.75 39.890625 18.8125 39.015625 
Q 14.890625 38.140625 10.796875 36.28125 
z
" id="DejaVuSans-53"/>
       </defs>
       <use xlink:href="#DejaVuSans-50"/>
       <use x="63.623047" xlink:href="#DejaVuSans-48"/>
       <use x="127.246094" xlink:href="#DejaVuSans-50"/>
       <use x="190.869141" xlink:href="#DejaVuSans-48"/>
       <use x="254.492188" xlink:href="#DejaVuSans-45"/>
       <use x="290.576172" xlink:href="#DejaVuSans-48"/>
       <use x="354.199219" xlink:href="#DejaVuSans-53"/>
      </g>
     </g>
    </g>
    <g id="xtick_4">
     <g id="line2d_4">
      <g>
       <use style="stroke:#000000;stroke-width:0.8;" x="220.450909" xlink:href="#m5014f4cec0" y="307.584"/>
      </g>
     </g>
     <g id="text_4">
      <!-- 2020-07 -->
      <g transform="translate(199.559503 322.182437)scale(0.1 -0.1)">
       <defs>
        <path d="M 8.203125 72.90625 
L 55.078125 72.90625 
L 55.078125 68.703125 
L 28.609375 0 
L 18.3125 0 
L 43.21875 64.59375 
L 8.203125 64.59375 
z
" id="DejaVuSans-55"/>
       </defs>
       <use xlink:href="#DejaVuSans-50"/>
       <use x="63.623047" xlink:href="#DejaVuSans-48"/>
       <use x="127.246094" xlink:href="#DejaVuSans-50"/>
       <use x="190.869141" xlink:href="#DejaVuSans-48"/>
       <use x="254.492188" xlink:href="#DejaVuSans-45"/>
       <use x="290.576172" xlink:href="#DejaVuSans-48"/>
       <use x="354.199219" xlink:href="#DejaVuSans-55"/>
      </g>
     </g>
    </g>
    <g id="xtick_5">
     <g id="line2d_5">
      <g>
       <use style="stroke:#000000;stroke-width:0.8;" x="270.397762" xlink:href="#m5014f4cec0" y="307.584"/>
      </g>
     </g>
     <g id="text_5">
      <!-- 2020-09 -->
      <g transform="translate(249.506356 322.182437)scale(0.1 -0.1)">
       <defs>
        <path d="M 10.984375 1.515625 
L 10.984375 10.5 
Q 14.703125 8.734375 18.5 7.8125 
Q 22.3125 6.890625 25.984375 6.890625 
Q 35.75 6.890625 40.890625 13.453125 
Q 46.046875 20.015625 46.78125 33.40625 
Q 43.953125 29.203125 39.59375 26.953125 
Q 35.25 24.703125 29.984375 24.703125 
Q 19.046875 24.703125 12.671875 31.3125 
Q 6.296875 37.9375 6.296875 49.421875 
Q 6.296875 60.640625 12.9375 67.421875 
Q 19.578125 74.21875 30.609375 74.21875 
Q 43.265625 74.21875 49.921875 64.515625 
Q 56.59375 54.828125 56.59375 36.375 
Q 56.59375 19.140625 48.40625 8.859375 
Q 40.234375 -1.421875 26.421875 -1.421875 
Q 22.703125 -1.421875 18.890625 -0.6875 
Q 15.09375 0.046875 10.984375 1.515625 
z
M 30.609375 32.421875 
Q 37.25 32.421875 41.125 36.953125 
Q 45.015625 41.5 45.015625 49.421875 
Q 45.015625 57.28125 41.125 61.84375 
Q 37.25 66.40625 30.609375 66.40625 
Q 23.96875 66.40625 20.09375 61.84375 
Q 16.21875 57.28125 16.21875 49.421875 
Q 16.21875 41.5 20.09375 36.953125 
Q 23.96875 32.421875 30.609375 32.421875 
z
" id="DejaVuSans-57"/>
       </defs>
       <use xlink:href="#DejaVuSans-50"/>
       <use x="63.623047" xlink:href="#DejaVuSans-48"/>
       <use x="127.246094" xlink:href="#DejaVuSans-50"/>
       <use x="190.869141" xlink:href="#DejaVuSans-48"/>
       <use x="254.492188" xlink:href="#DejaVuSans-45"/>
       <use x="290.576172" xlink:href="#DejaVuSans-48"/>
       <use x="354.199219" xlink:href="#DejaVuSans-57"/>
      </g>
     </g>
    </g>
    <g id="xtick_6">
     <g id="line2d_6">
      <g>
       <use style="stroke:#000000;stroke-width:0.8;" x="319.539021" xlink:href="#m5014f4cec0" y="307.584"/>
      </g>
     </g>
     <g id="text_6">
      <!-- 2020-11 -->
      <g transform="translate(298.647615 322.182437)scale(0.1 -0.1)">
       <use xlink:href="#DejaVuSans-50"/>
       <use x="63.623047" xlink:href="#DejaVuSans-48"/>
       <use x="127.246094" xlink:href="#DejaVuSans-50"/>
       <use x="190.869141" xlink:href="#DejaVuSans-48"/>
       <use x="254.492188" xlink:href="#DejaVuSans-45"/>
       <use x="290.576172" xlink:href="#DejaVuSans-49"/>
       <use x="354.199219" xlink:href="#DejaVuSans-49"/>
      </g>
     </g>
    </g>
    <g id="xtick_7">
     <g id="line2d_7">
      <g>
       <use style="stroke:#000000;stroke-width:0.8;" x="368.68028" xlink:href="#m5014f4cec0" y="307.584"/>
      </g>
     </g>
     <g id="text_7">
      <!-- 2021-01 -->
      <g transform="translate(347.788873 322.182437)scale(0.1 -0.1)">
       <use xlink:href="#DejaVuSans-50"/>
       <use x="63.623047" xlink:href="#DejaVuSans-48"/>
       <use x="127.246094" xlink:href="#DejaVuSans-50"/>
       <use x="190.869141" xlink:href="#DejaVuSans-49"/>
       <use x="254.492188" xlink:href="#DejaVuSans-45"/>
       <use x="290.576172" xlink:href="#DejaVuSans-48"/>
       <use x="354.199219" xlink:href="#DejaVuSans-49"/>
      </g>
     </g>
    </g>
   </g>
   <g id="matplotlib.axis_2">
    <g id="ytick_1">
     <g id="line2d_8">
      <defs>
       <path d="M 0 0 
L -3.5 0 
" id="m309c6ca698" style="stroke:#000000;stroke-width:0.8;"/>
      </defs>
      <g>
       <use style="stroke:#000000;stroke-width:0.8;" x="57.6" xlink:href="#m309c6ca698" y="292.541418"/>
      </g>
     </g>
     <g id="text_8">
      <!-- −1000 -->
      <g transform="translate(16.770313 296.340637)scale(0.1 -0.1)">
       <defs>
        <path d="M 10.59375 35.5 
L 73.1875 35.5 
L 73.1875 27.203125 
L 10.59375 27.203125 
z
" id="DejaVuSans-8722"/>
       </defs>
       <use xlink:href="#DejaVuSans-8722"/>
       <use x="83.789062" xlink:href="#DejaVuSans-49"/>
       <use x="147.412109" xlink:href="#DejaVuSans-48"/>
       <use x="211.035156" xlink:href="#DejaVuSans-48"/>
       <use x="274.658203" xlink:href="#DejaVuSans-48"/>
      </g>
     </g>
    </g>
    <g id="ytick_2">
     <g id="line2d_9">
      <g>
       <use style="stroke:#000000;stroke-width:0.8;" x="57.6" xlink:href="#m309c6ca698" y="250.590114"/>
      </g>
     </g>
     <g id="text_9">
      <!-- 0 -->
      <g transform="translate(44.2375 254.389332)scale(0.1 -0.1)">
       <use xlink:href="#DejaVuSans-48"/>
      </g>
     </g>
    </g>
    <g id="ytick_3">
     <g id="line2d_10">
      <g>
       <use style="stroke:#000000;stroke-width:0.8;" x="57.6" xlink:href="#m309c6ca698" y="208.638809"/>
      </g>
     </g>
     <g id="text_10">
      <!-- 1000 -->
      <g transform="translate(25.15 212.438028)scale(0.1 -0.1)">
       <use xlink:href="#DejaVuSans-49"/>
       <use x="63.623047" xlink:href="#DejaVuSans-48"/>
       <use x="127.246094" xlink:href="#DejaVuSans-48"/>
       <use x="190.869141" xlink:href="#DejaVuSans-48"/>
      </g>
     </g>
    </g>
    <g id="ytick_4">
     <g id="line2d_11">
      <g>
       <use style="stroke:#000000;stroke-width:0.8;" x="57.6" xlink:href="#m309c6ca698" y="166.687504"/>
      </g>
     </g>
     <g id="text_11">
      <!-- 2000 -->
      <g transform="translate(25.15 170.486723)scale(0.1 -0.1)">
       <use xlink:href="#DejaVuSans-50"/>
       <use x="63.623047" xlink:href="#DejaVuSans-48"/>
       <use x="127.246094" xlink:href="#DejaVuSans-48"/>
       <use x="190.869141" xlink:href="#DejaVuSans-48"/>
      </g>
     </g>
    </g>
    <g id="ytick_5">
     <g id="line2d_12">
      <g>
       <use style="stroke:#000000;stroke-width:0.8;" x="57.6" xlink:href="#m309c6ca698" y="124.736199"/>
      </g>
     </g>
     <g id="text_12">
      <!-- 3000 -->
      <g transform="translate(25.15 128.535418)scale(0.1 -0.1)">
       <use xlink:href="#DejaVuSans-51"/>
       <use x="63.623047" xlink:href="#DejaVuSans-48"/>
       <use x="127.246094" xlink:href="#DejaVuSans-48"/>
       <use x="190.869141" xlink:href="#DejaVuSans-48"/>
      </g>
     </g>
    </g>
    <g id="ytick_6">
     <g id="line2d_13">
      <g>
       <use style="stroke:#000000;stroke-width:0.8;" x="57.6" xlink:href="#m309c6ca698" y="82.784895"/>
      </g>
     </g>
     <g id="text_13">
      <!-- 4000 -->
      <g transform="translate(25.15 86.584113)scale(0.1 -0.1)">
       <defs>
        <path d="M 37.796875 64.3125 
L 12.890625 25.390625 
L 37.796875 25.390625 
z
M 35.203125 72.90625 
L 47.609375 72.90625 
L 47.609375 25.390625 
L 58.015625 25.390625 
L 58.015625 17.1875 
L 47.609375 17.1875 
L 47.609375 0 
L 37.796875 0 
L 37.796875 17.1875 
L 4.890625 17.1875 
L 4.890625 26.703125 
z
" id="DejaVuSans-52"/>
       </defs>
       <use xlink:href="#DejaVuSans-52"/>
       <use x="63.623047" xlink:href="#DejaVuSans-48"/>
       <use x="127.246094" xlink:href="#DejaVuSans-48"/>
       <use x="190.869141" xlink:href="#DejaVuSans-48"/>
      </g>
     </g>
    </g>
   </g>
   <g id="line2d_14">
    <path clip-path="url(#p49700692f4)" d="M 73.832727 250.590114 
L 398.487273 250.590114 
L 398.487273 250.590114 
" style="fill:none;stroke:#1f77b4;stroke-dasharray:5.55,2.4;stroke-dashoffset:0;stroke-width:1.5;"/>
   </g>
   <g id="line2d_15">
    <path clip-path="url(#p49700692f4)" d="M 73.832727 250.590114 
L 74.638322 251.345505 
L 76.24951 250.105121 
L 77.055105 249.673571 
L 77.860699 248.018125 
L 78.666294 245.390057 
L 79.471888 243.81261 
L 80.277483 243.382346 
L 81.083077 241.914208 
L 81.888671 241.414263 
L 82.694266 240.603941 
L 83.49986 240.309509 
L 84.305455 237.900482 
L 85.111049 236.165769 
L 85.916643 235.230297 
L 86.722238 234.082203 
L 87.527832 233.337167 
L 88.333427 233.626255 
L 89.139021 234.247671 
L 89.944615 234.604552 
L 90.75021 235.310528 
L 91.555804 236.871892 
L 93.166993 239.584013 
L 93.972587 239.987938 
L 94.778182 239.452828 
L 95.583776 237.550719 
L 96.389371 236.504391 
L 97.194965 235.162877 
L 98.000559 234.834389 
L 98.806154 234.628477 
L 99.611748 234.785382 
L 100.417343 235.198461 
L 101.222937 236.091311 
L 102.028531 235.49479 
L 103.63972 234.102531 
L 104.445315 233.539843 
L 105.250909 232.429221 
L 106.056503 232.732694 
L 107.667692 231.133214 
L 108.473287 231.119652 
L 109.278881 230.94568 
L 111.695664 235.810255 
L 112.501259 235.954786 
L 113.306853 238.11627 
L 114.112448 239.921051 
L 115.723636 242.496161 
L 116.529231 242.550327 
L 117.334825 243.681001 
L 118.14042 245.807193 
L 118.946014 249.251137 
L 120.557203 254.387689 
L 121.362797 256.777683 
L 122.168392 258.587881 
L 122.973986 258.66253 
L 123.77958 259.146895 
L 124.585175 259.375531 
L 125.390769 258.517674 
L 126.196364 257.469829 
L 127.001958 257.32945 
L 128.613147 262.36963 
L 129.418741 264.15149 
L 130.224336 265.296662 
L 131.02993 276.188466 
L 132.641119 287.49103 
L 134.252308 294.28762 
L 135.057902 295.346571 
L 135.863497 295.488 
L 137.474685 289.605453 
L 138.28028 286.967415 
L 139.085874 285.721045 
L 142.308252 271.911293 
L 143.113846 270.531628 
L 143.919441 269.592907 
L 144.725035 269.883329 
L 146.336224 266.529432 
L 148.753007 260.111386 
L 149.558601 258.197225 
L 150.364196 256.908356 
L 151.16979 253.964894 
L 153.586573 248.692386 
L 155.197762 249.227405 
L 156.003357 249.338889 
L 157.614545 249.845627 
L 158.42014 250.772448 
L 159.225734 249.928238 
L 160.031329 249.551984 
L 160.836923 248.512059 
L 161.642517 248.133254 
L 162.448112 248.817151 
L 163.253706 249.323351 
L 164.059301 248.825284 
L 164.864895 247.288907 
L 168.087273 242.525018 
L 168.892867 241.762101 
L 169.698462 237.861825 
L 172.115245 230.820223 
L 172.920839 229.529963 
L 174.532028 228.121072 
L 175.337622 227.331308 
L 176.143217 224.243094 
L 176.948811 222.724494 
L 177.754406 222.643087 
L 179.365594 228.820224 
L 180.171189 230.813034 
L 180.976783 230.918851 
L 181.782378 229.652994 
L 182.587972 230.503707 
L 183.393566 231.17206 
L 184.199161 230.962344 
L 185.81035 230.822083 
L 186.615944 231.886134 
L 187.421538 234.389859 
L 189.032727 237.753169 
L 189.838322 240.646267 
L 191.44951 244.169142 
L 192.255105 244.343047 
L 193.060699 243.353938 
L 193.866294 243.13577 
L 194.671888 242.149737 
L 195.477483 242.282833 
L 196.283077 239.982368 
L 197.088671 240.488133 
L 197.894266 240.576921 
L 198.69986 240.381227 
L 199.505455 240.823772 
L 200.311049 241.131982 
L 202.727832 241.547661 
L 203.533427 241.438297 
L 204.339021 243.440281 
L 206.755804 246.539849 
L 207.561399 247.255733 
L 208.366993 247.464105 
L 209.172587 247.911633 
L 209.978182 248.532329 
L 210.783776 249.3104 
L 211.589371 249.77137 
L 212.394965 250.374375 
L 213.200559 249.584654 
L 214.006154 249.157078 
L 215.617343 250.603476 
L 216.422937 251.475602 
L 217.228531 252.656467 
L 218.034126 253.203842 
L 219.645315 253.632674 
L 220.450909 253.500252 
L 222.062098 254.115963 
L 222.867692 254.076567 
L 223.673287 254.197407 
L 224.478881 253.412116 
L 225.284476 252.993773 
L 226.09007 252.108827 
L 228.506853 251.698144 
L 229.312448 251.446152 
L 230.923636 251.417685 
L 231.729231 251.557109 
L 233.34042 251.97135 
L 234.146014 252.007923 
L 234.951608 251.897056 
L 235.757203 251.958292 
L 236.562797 251.273779 
L 238.173986 249.133701 
L 238.97958 248.528787 
L 239.785175 247.514308 
L 240.590769 246.004262 
L 241.396364 241.29485 
L 243.007552 234.917864 
L 244.618741 230.262938 
L 245.424336 227.120785 
L 246.22993 227.434888 
L 247.035524 227.320892 
L 247.841119 227.69447 
L 248.646713 226.421272 
L 249.452308 225.56273 
L 250.257902 225.66368 
L 251.063497 225.550766 
L 251.869091 226.020751 
L 252.674685 225.971827 
L 253.48028 227.862205 
L 254.285874 229.055064 
L 255.091469 229.533933 
L 255.897063 230.198127 
L 257.508252 231.063713 
L 258.313846 230.372463 
L 259.119441 231.194644 
L 259.925035 232.531707 
L 260.730629 233.574074 
L 261.536224 235.590234 
L 263.147413 238.230534 
L 263.953007 239.028379 
L 264.758601 241.211007 
L 266.36979 244.178583 
L 267.980979 245.671835 
L 268.786573 245.540313 
L 269.592168 245.634826 
L 270.397762 244.885465 
L 271.203357 246.060274 
L 272.008951 251.110559 
L 273.62014 257.463349 
L 274.425734 259.685936 
L 275.231329 260.946546 
L 276.036923 262.637695 
L 276.842517 263.539598 
L 277.648112 263.679745 
L 278.453706 263.500219 
L 279.259301 263.03635 
L 280.064895 262.892363 
L 280.87049 261.528704 
L 281.676084 259.928238 
L 282.481678 258.006727 
L 283.287273 256.500732 
L 284.092867 255.23214 
L 284.898462 253.697696 
L 285.704056 252.995826 
L 286.50965 254.049056 
L 287.315245 254.459623 
L 288.120839 255.742437 
L 288.926434 255.075089 
L 290.537622 254.119057 
L 291.343217 253.535547 
L 292.148811 253.337384 
L 292.954406 252.6632 
L 293.76 252.290761 
L 295.371189 252.773579 
L 296.176783 253.042123 
L 296.982378 252.825785 
L 297.787972 252.294622 
L 298.593566 252.373573 
L 299.399161 252.269352 
L 300.204755 251.304568 
L 301.01035 250.161507 
L 303.427133 245.0695 
L 304.232727 244.056256 
L 305.843916 242.667121 
L 307.455105 242.870467 
L 308.260699 242.527457 
L 309.066294 241.58084 
L 309.871888 240.373381 
L 311.483077 233.180054 
L 313.094266 228.68084 
L 313.89986 227.457476 
L 314.705455 226.617639 
L 315.511049 224.265359 
L 316.316643 223.978225 
L 317.927832 223.014685 
L 318.733427 222.22157 
L 319.539021 222.041732 
L 320.344615 222.889277 
L 321.15021 222.475641 
L 321.955804 221.884341 
L 322.761399 217.106995 
L 323.566993 213.65819 
L 324.372587 213.857661 
L 325.178182 212.28312 
L 325.983776 211.840961 
L 326.789371 212.127425 
L 327.594965 211.444026 
L 328.400559 209.426633 
L 329.206154 208.257315 
L 330.011748 208.583805 
L 330.817343 209.692829 
L 331.622937 208.569154 
L 332.428531 204.966344 
L 333.234126 202.236182 
L 334.03972 200.528204 
L 334.845315 196.937025 
L 335.650909 194.741755 
L 336.456503 194.540042 
L 337.262098 195.108506 
L 338.067692 193.795652 
L 338.873287 194.635099 
L 340.484476 206.810186 
L 341.29007 209.831208 
L 342.095664 211.152539 
L 342.901259 207.678904 
L 343.706853 208.485901 
L 345.318042 207.59415 
L 346.123636 210.119828 
L 346.929231 210.97725 
L 347.734825 211.357943 
L 348.54042 212.746081 
L 349.346014 217.115068 
L 350.151608 220.139786 
L 351.762797 227.894472 
L 352.568392 228.667892 
L 354.17958 228.112273 
L 354.985175 227.584455 
L 355.790769 221.112963 
L 357.401958 203.213639 
L 358.207552 194.957429 
L 359.013147 190.122069 
L 359.818741 189.564433 
L 360.624336 186.085183 
L 361.42993 186.060588 
L 362.235524 185.23531 
L 363.041119 182.18039 
L 363.846713 174.692558 
L 364.652308 170.207958 
L 365.457902 164.94466 
L 366.263497 160.854807 
L 367.069091 153.69386 
L 367.874685 148.678911 
L 368.68028 144.669917 
L 370.291469 122.963649 
L 371.097063 119.555077 
L 371.902657 111.781707 
L 372.708252 98.133544 
L 374.319441 62.82597 
L 375.125035 53.568 
L 375.930629 55.32042 
L 376.736224 67.791288 
L 377.541818 83.576847 
L 378.347413 88.967841 
L 379.153007 88.484098 
L 379.958601 97.46607 
L 381.56979 120.365586 
L 382.375385 128.235649 
L 383.986573 148.139499 
L 384.792168 172.361066 
L 386.403357 200.203313 
L 387.208951 211.273361 
L 388.014545 220.200968 
L 388.82014 227.000189 
L 389.625734 239.314654 
L 390.431329 239.342668 
L 391.236923 236.768321 
L 392.042517 235.034387 
L 392.848112 237.555838 
L 393.653706 238.42829 
L 394.459301 232.754101 
L 395.264895 221.858979 
L 396.07049 215.112243 
L 396.876084 207.185211 
L 397.681678 197.253677 
L 398.487273 191.38412 
L 398.487273 191.38412 
" style="fill:none;stroke:#0000ff;stroke-linecap:square;stroke-width:1.5;"/>
   </g>
   <g id="line2d_16">
    <path clip-path="url(#p49700692f4)" d="M 73.832727 250.590114 
L 74.638322 250.741192 
L 76.24951 250.602767 
L 77.055105 250.416928 
L 77.860699 249.937167 
L 80.277483 247.064244 
L 81.888671 245.110242 
L 84.305455 242.323366 
L 86.722238 238.75207 
L 87.527832 237.669089 
L 88.333427 236.860522 
L 89.139021 236.337952 
L 89.944615 235.991272 
L 90.75021 235.855123 
L 91.555804 236.058477 
L 92.361399 236.472236 
L 93.972587 237.673261 
L 94.778182 238.029174 
L 95.583776 237.933483 
L 96.389371 237.647665 
L 98.806154 236.27565 
L 99.611748 235.977597 
L 100.417343 235.82177 
L 101.222937 235.875678 
L 102.028531 235.7995 
L 103.63972 235.288726 
L 104.445315 234.938949 
L 105.250909 234.437004 
L 106.862098 233.654577 
L 108.473287 232.744174 
L 109.278881 232.384475 
L 110.084476 232.407382 
L 110.89007 232.694106 
L 113.306853 234.699115 
L 118.14042 241.041239 
L 119.751608 244.534771 
L 122.973986 252.184852 
L 123.77958 253.577261 
L 124.585175 254.736915 
L 125.390769 255.493067 
L 127.001958 256.176625 
L 127.807552 256.945852 
L 129.418741 259.254784 
L 130.224336 260.46316 
L 131.02993 263.608221 
L 132.641119 271.307913 
L 134.252308 279.048713 
L 135.057902 282.308285 
L 135.863497 284.944228 
L 136.669091 286.437156 
L 137.474685 287.070815 
L 138.28028 287.050135 
L 139.085874 286.784317 
L 139.891469 285.86121 
L 140.697063 284.314605 
L 142.308252 280.32285 
L 143.919441 276.610266 
L 146.336224 272.373505 
L 147.947413 268.987335 
L 151.16979 261.760179 
L 153.586573 256.037487 
L 154.392168 254.633431 
L 155.197762 253.552226 
L 156.003357 252.709558 
L 156.808951 252.095372 
L 157.614545 251.645423 
L 158.42014 251.470828 
L 160.031329 250.840245 
L 161.642517 249.926337 
L 162.448112 249.7045 
L 164.059301 249.467673 
L 164.864895 249.03192 
L 166.476084 247.757185 
L 168.892867 245.205246 
L 170.504056 242.075927 
L 173.726434 235.061529 
L 176.143217 230.772628 
L 176.948811 229.163001 
L 177.754406 227.859018 
L 178.56 227.414994 
L 179.365594 227.69604 
L 180.976783 228.839321 
L 181.782378 229.002056 
L 185.004755 230.125627 
L 185.81035 230.264918 
L 186.615944 230.589161 
L 187.421538 231.349301 
L 189.032727 233.403269 
L 192.255105 239.211292 
L 193.060699 240.039821 
L 193.866294 240.659011 
L 195.477483 241.222291 
L 196.283077 240.974307 
L 198.69986 240.729879 
L 200.311049 240.825322 
L 203.533427 241.174518 
L 205.144615 242.193698 
L 206.755804 243.56519 
L 208.366993 244.93546 
L 212.394965 247.969108 
L 213.200559 248.292218 
L 214.811748 248.743506 
L 216.422937 249.58752 
L 218.83972 251.317954 
L 220.450909 252.124769 
L 222.867692 253.049169 
L 223.673287 253.278817 
L 225.284476 253.243136 
L 229.312448 252.220856 
L 231.729231 251.860117 
L 236.562797 251.784576 
L 237.368392 251.470052 
L 238.97958 250.507983 
L 239.785175 249.909248 
L 240.590769 249.128251 
L 241.396364 247.56157 
L 243.007552 243.495536 
L 246.22993 234.866702 
L 247.035524 233.35754 
L 249.452308 229.963902 
L 251.063497 228.393239 
L 252.674685 227.529359 
L 253.48028 227.595928 
L 255.091469 228.216991 
L 257.508252 229.429202 
L 258.313846 229.617854 
L 259.119441 229.933212 
L 260.730629 231.077144 
L 262.341818 232.971956 
L 264.758601 236.261892 
L 267.980979 241.194308 
L 269.592168 242.777773 
L 270.397762 243.199311 
L 271.203357 243.771504 
L 272.008951 245.239315 
L 272.814545 247.018168 
L 275.231329 253.16767 
L 276.842517 256.757259 
L 277.648112 258.141757 
L 278.453706 259.213449 
L 279.259301 259.978029 
L 280.064895 260.560896 
L 280.87049 260.754458 
L 281.676084 260.589214 
L 282.481678 260.072716 
L 284.092867 258.533084 
L 285.704056 256.65197 
L 286.50965 256.131387 
L 287.315245 255.797034 
L 288.120839 255.786115 
L 289.732028 255.439829 
L 292.148811 254.545596 
L 294.565594 253.534409 
L 296.176783 253.314219 
L 297.787972 253.03215 
L 299.399161 252.774218 
L 300.204755 252.480288 
L 301.01035 252.016532 
L 301.815944 251.298371 
L 302.621538 250.403048 
L 305.038322 247.305827 
L 305.843916 246.378086 
L 306.64951 245.664058 
L 309.066294 243.987979 
L 309.871888 243.265059 
L 310.677483 241.937491 
L 312.288671 238.32886 
L 313.89986 234.6109 
L 316.316643 229.805941 
L 317.927832 227.429746 
L 319.539021 225.518835 
L 321.955804 223.968442 
L 322.761399 222.596153 
L 323.566993 220.80856 
L 325.983776 216.761255 
L 328.400559 213.850444 
L 329.206154 212.731818 
L 330.011748 211.902215 
L 330.817343 211.460338 
L 331.622937 210.882101 
L 332.428531 209.69895 
L 334.03972 206.670758 
L 336.456503 201.090056 
L 338.067692 198.674127 
L 338.873287 197.866322 
L 339.678881 198.508928 
L 340.484476 200.16918 
L 342.095664 203.911776 
L 343.706853 205.429341 
L 344.512448 205.961963 
L 345.318042 206.288401 
L 348.54042 209.383574 
L 349.346014 210.929873 
L 350.151608 212.771856 
L 350.957203 215.012521 
L 352.568392 219.804708 
L 353.373986 221.530264 
L 354.17958 222.846666 
L 354.985175 223.794224 
L 355.790769 223.257971 
L 356.596364 220.907255 
L 357.401958 217.368532 
L 359.013147 208.333463 
L 360.624336 200.880762 
L 361.42993 197.916727 
L 363.041119 192.740433 
L 364.652308 185.346278 
L 366.263497 177.183725 
L 368.68028 163.11349 
L 369.485874 157.168426 
L 371.097063 144.172992 
L 371.902657 137.694735 
L 372.708252 129.782497 
L 374.319441 108.354147 
L 375.125035 97.396918 
L 375.930629 88.981618 
L 376.736224 84.743552 
L 377.541818 84.510211 
L 378.347413 85.401737 
L 379.153007 86.018209 
L 379.958601 88.307781 
L 380.764196 92.44211 
L 382.375385 104.068574 
L 383.986573 118.286467 
L 385.597762 140.502121 
L 388.014545 175.407041 
L 390.431329 205.023308 
L 391.236923 211.37231 
L 392.848112 220.394948 
L 393.653706 224.001616 
L 394.459301 225.752113 
L 395.264895 224.973487 
L 396.07049 223.001238 
L 396.876084 219.838032 
L 398.487273 210.533753 
L 398.487273 210.533753 
" style="fill:none;stroke:#ff6347;stroke-linecap:square;stroke-width:1.5;"/>
   </g>
   <g id="patch_3">
    <path d="M 57.6 307.584 
L 57.6 41.472 
" style="fill:none;stroke:#000000;stroke-linecap:square;stroke-linejoin:miter;stroke-width:0.8;"/>
   </g>
   <g id="patch_4">
    <path d="M 414.72 307.584 
L 414.72 41.472 
" style="fill:none;stroke:#000000;stroke-linecap:square;stroke-linejoin:miter;stroke-width:0.8;"/>
   </g>
   <g id="patch_5">
    <path d="M 57.6 307.584 
L 414.72 307.584 
" style="fill:none;stroke:#000000;stroke-linecap:square;stroke-linejoin:miter;stroke-width:0.8;"/>
   </g>
   <g id="patch_6">
    <path d="M 57.6 41.472 
L 414.72 41.472 
" style="fill:none;stroke:#000000;stroke-linecap:square;stroke-linejoin:miter;stroke-width:0.8;"/>
   </g>
   <g id="text_14">
    <!-- Data source: nomics -->
    <g transform="translate(184.91625 35.472)scale(0.1 -0.1)">
     <defs>
      <path d="M 19.671875 64.796875 
L 19.671875 8.109375 
L 31.59375 8.109375 
Q 46.6875 8.109375 53.6875 14.9375 
Q 60.6875 21.78125 60.6875 36.53125 
Q 60.6875 51.171875 53.6875 57.984375 
Q 46.6875 64.796875 31.59375 64.796875 
z
M 9.8125 72.90625 
L 30.078125 72.90625 
Q 51.265625 72.90625 61.171875 64.09375 
Q 71.09375 55.28125 71.09375 36.53125 
Q 71.09375 17.671875 61.125 8.828125 
Q 51.171875 0 30.078125 0 
L 9.8125 0 
z
" id="DejaVuSans-68"/>
      <path d="M 34.28125 27.484375 
Q 23.390625 27.484375 19.1875 25 
Q 14.984375 22.515625 14.984375 16.5 
Q 14.984375 11.71875 18.140625 8.90625 
Q 21.296875 6.109375 26.703125 6.109375 
Q 34.1875 6.109375 38.703125 11.40625 
Q 43.21875 16.703125 43.21875 25.484375 
L 43.21875 27.484375 
z
M 52.203125 31.203125 
L 52.203125 0 
L 43.21875 0 
L 43.21875 8.296875 
Q 40.140625 3.328125 35.546875 0.953125 
Q 30.953125 -1.421875 24.3125 -1.421875 
Q 15.921875 -1.421875 10.953125 3.296875 
Q 6 8.015625 6 15.921875 
Q 6 25.140625 12.171875 29.828125 
Q 18.359375 34.515625 30.609375 34.515625 
L 43.21875 34.515625 
L 43.21875 35.40625 
Q 43.21875 41.609375 39.140625 45 
Q 35.0625 48.390625 27.6875 48.390625 
Q 23 48.390625 18.546875 47.265625 
Q 14.109375 46.140625 10.015625 43.890625 
L 10.015625 52.203125 
Q 14.9375 54.109375 19.578125 55.046875 
Q 24.21875 56 28.609375 56 
Q 40.484375 56 46.34375 49.84375 
Q 52.203125 43.703125 52.203125 31.203125 
z
" id="DejaVuSans-97"/>
      <path d="M 18.3125 70.21875 
L 18.3125 54.6875 
L 36.8125 54.6875 
L 36.8125 47.703125 
L 18.3125 47.703125 
L 18.3125 18.015625 
Q 18.3125 11.328125 20.140625 9.421875 
Q 21.96875 7.515625 27.59375 7.515625 
L 36.8125 7.515625 
L 36.8125 0 
L 27.59375 0 
Q 17.1875 0 13.234375 3.875 
Q 9.28125 7.765625 9.28125 18.015625 
L 9.28125 47.703125 
L 2.6875 47.703125 
L 2.6875 54.6875 
L 9.28125 54.6875 
L 9.28125 70.21875 
z
" id="DejaVuSans-116"/>
      <path id="DejaVuSans-32"/>
      <path d="M 44.28125 53.078125 
L 44.28125 44.578125 
Q 40.484375 46.53125 36.375 47.5 
Q 32.28125 48.484375 27.875 48.484375 
Q 21.1875 48.484375 17.84375 46.4375 
Q 14.5 44.390625 14.5 40.28125 
Q 14.5 37.15625 16.890625 35.375 
Q 19.28125 33.59375 26.515625 31.984375 
L 29.59375 31.296875 
Q 39.15625 29.25 43.1875 25.515625 
Q 47.21875 21.78125 47.21875 15.09375 
Q 47.21875 7.46875 41.1875 3.015625 
Q 35.15625 -1.421875 24.609375 -1.421875 
Q 20.21875 -1.421875 15.453125 -0.5625 
Q 10.6875 0.296875 5.421875 2 
L 5.421875 11.28125 
Q 10.40625 8.6875 15.234375 7.390625 
Q 20.0625 6.109375 24.8125 6.109375 
Q 31.15625 6.109375 34.5625 8.28125 
Q 37.984375 10.453125 37.984375 14.40625 
Q 37.984375 18.0625 35.515625 20.015625 
Q 33.0625 21.96875 24.703125 23.78125 
L 21.578125 24.515625 
Q 13.234375 26.265625 9.515625 29.90625 
Q 5.8125 33.546875 5.8125 39.890625 
Q 5.8125 47.609375 11.28125 51.796875 
Q 16.75 56 26.8125 56 
Q 31.78125 56 36.171875 55.265625 
Q 40.578125 54.546875 44.28125 53.078125 
z
" id="DejaVuSans-115"/>
      <path d="M 30.609375 48.390625 
Q 23.390625 48.390625 19.1875 42.75 
Q 14.984375 37.109375 14.984375 27.296875 
Q 14.984375 17.484375 19.15625 11.84375 
Q 23.34375 6.203125 30.609375 6.203125 
Q 37.796875 6.203125 41.984375 11.859375 
Q 46.1875 17.53125 46.1875 27.296875 
Q 46.1875 37.015625 41.984375 42.703125 
Q 37.796875 48.390625 30.609375 48.390625 
z
M 30.609375 56 
Q 42.328125 56 49.015625 48.375 
Q 55.71875 40.765625 55.71875 27.296875 
Q 55.71875 13.875 49.015625 6.21875 
Q 42.328125 -1.421875 30.609375 -1.421875 
Q 18.84375 -1.421875 12.171875 6.21875 
Q 5.515625 13.875 5.515625 27.296875 
Q 5.515625 40.765625 12.171875 48.375 
Q 18.84375 56 30.609375 56 
z
" id="DejaVuSans-111"/>
      <path d="M 8.5 21.578125 
L 8.5 54.6875 
L 17.484375 54.6875 
L 17.484375 21.921875 
Q 17.484375 14.15625 20.5 10.265625 
Q 23.53125 6.390625 29.59375 6.390625 
Q 36.859375 6.390625 41.078125 11.03125 
Q 45.3125 15.671875 45.3125 23.6875 
L 45.3125 54.6875 
L 54.296875 54.6875 
L 54.296875 0 
L 45.3125 0 
L 45.3125 8.40625 
Q 42.046875 3.421875 37.71875 1 
Q 33.40625 -1.421875 27.6875 -1.421875 
Q 18.265625 -1.421875 13.375 4.4375 
Q 8.5 10.296875 8.5 21.578125 
z
M 31.109375 56 
z
" id="DejaVuSans-117"/>
      <path d="M 41.109375 46.296875 
Q 39.59375 47.171875 37.8125 47.578125 
Q 36.03125 48 33.890625 48 
Q 26.265625 48 22.1875 43.046875 
Q 18.109375 38.09375 18.109375 28.8125 
L 18.109375 0 
L 9.078125 0 
L 9.078125 54.6875 
L 18.109375 54.6875 
L 18.109375 46.1875 
Q 20.953125 51.171875 25.484375 53.578125 
Q 30.03125 56 36.53125 56 
Q 37.453125 56 38.578125 55.875 
Q 39.703125 55.765625 41.0625 55.515625 
z
" id="DejaVuSans-114"/>
      <path d="M 48.78125 52.59375 
L 48.78125 44.1875 
Q 44.96875 46.296875 41.140625 47.34375 
Q 37.3125 48.390625 33.40625 48.390625 
Q 24.65625 48.390625 19.8125 42.84375 
Q 14.984375 37.3125 14.984375 27.296875 
Q 14.984375 17.28125 19.8125 11.734375 
Q 24.65625 6.203125 33.40625 6.203125 
Q 37.3125 6.203125 41.140625 7.25 
Q 44.96875 8.296875 48.78125 10.40625 
L 48.78125 2.09375 
Q 45.015625 0.34375 40.984375 -0.53125 
Q 36.96875 -1.421875 32.421875 -1.421875 
Q 20.0625 -1.421875 12.78125 6.34375 
Q 5.515625 14.109375 5.515625 27.296875 
Q 5.515625 40.671875 12.859375 48.328125 
Q 20.21875 56 33.015625 56 
Q 37.15625 56 41.109375 55.140625 
Q 45.0625 54.296875 48.78125 52.59375 
z
" id="DejaVuSans-99"/>
      <path d="M 56.203125 29.59375 
L 56.203125 25.203125 
L 14.890625 25.203125 
Q 15.484375 15.921875 20.484375 11.0625 
Q 25.484375 6.203125 34.421875 6.203125 
Q 39.59375 6.203125 44.453125 7.46875 
Q 49.3125 8.734375 54.109375 11.28125 
L 54.109375 2.78125 
Q 49.265625 0.734375 44.1875 -0.34375 
Q 39.109375 -1.421875 33.890625 -1.421875 
Q 20.796875 -1.421875 13.15625 6.1875 
Q 5.515625 13.8125 5.515625 26.8125 
Q 5.515625 40.234375 12.765625 48.109375 
Q 20.015625 56 32.328125 56 
Q 43.359375 56 49.78125 48.890625 
Q 56.203125 41.796875 56.203125 29.59375 
z
M 47.21875 32.234375 
Q 47.125 39.59375 43.09375 43.984375 
Q 39.0625 48.390625 32.421875 48.390625 
Q 24.90625 48.390625 20.390625 44.140625 
Q 15.875 39.890625 15.1875 32.171875 
z
" id="DejaVuSans-101"/>
      <path d="M 11.71875 12.40625 
L 22.015625 12.40625 
L 22.015625 0 
L 11.71875 0 
z
M 11.71875 51.703125 
L 22.015625 51.703125 
L 22.015625 39.3125 
L 11.71875 39.3125 
z
" id="DejaVuSans-58"/>
      <path d="M 54.890625 33.015625 
L 54.890625 0 
L 45.90625 0 
L 45.90625 32.71875 
Q 45.90625 40.484375 42.875 44.328125 
Q 39.84375 48.1875 33.796875 48.1875 
Q 26.515625 48.1875 22.3125 43.546875 
Q 18.109375 38.921875 18.109375 30.90625 
L 18.109375 0 
L 9.078125 0 
L 9.078125 54.6875 
L 18.109375 54.6875 
L 18.109375 46.1875 
Q 21.34375 51.125 25.703125 53.5625 
Q 30.078125 56 35.796875 56 
Q 45.21875 56 50.046875 50.171875 
Q 54.890625 44.34375 54.890625 33.015625 
z
" id="DejaVuSans-110"/>
      <path d="M 52 44.1875 
Q 55.375 50.25 60.0625 53.125 
Q 64.75 56 71.09375 56 
Q 79.640625 56 84.28125 50.015625 
Q 88.921875 44.046875 88.921875 33.015625 
L 88.921875 0 
L 79.890625 0 
L 79.890625 32.71875 
Q 79.890625 40.578125 77.09375 44.375 
Q 74.3125 48.1875 68.609375 48.1875 
Q 61.625 48.1875 57.5625 43.546875 
Q 53.515625 38.921875 53.515625 30.90625 
L 53.515625 0 
L 44.484375 0 
L 44.484375 32.71875 
Q 44.484375 40.625 41.703125 44.40625 
Q 38.921875 48.1875 33.109375 48.1875 
Q 26.21875 48.1875 22.15625 43.53125 
Q 18.109375 38.875 18.109375 30.90625 
L 18.109375 0 
L 9.078125 0 
L 9.078125 54.6875 
L 18.109375 54.6875 
L 18.109375 46.1875 
Q 21.1875 51.21875 25.484375 53.609375 
Q 29.78125 56 35.6875 56 
Q 41.65625 56 45.828125 52.96875 
Q 50 49.953125 52 44.1875 
z
" id="DejaVuSans-109"/>
      <path d="M 9.421875 54.6875 
L 18.40625 54.6875 
L 18.40625 0 
L 9.421875 0 
z
M 9.421875 75.984375 
L 18.40625 75.984375 
L 18.40625 64.59375 
L 9.421875 64.59375 
z
" id="DejaVuSans-105"/>
     </defs>
     <use xlink:href="#DejaVuSans-68"/>
     <use x="77.001953" xlink:href="#DejaVuSans-97"/>
     <use x="138.28125" xlink:href="#DejaVuSans-116"/>
     <use x="177.490234" xlink:href="#DejaVuSans-97"/>
     <use x="238.769531" xlink:href="#DejaVuSans-32"/>
     <use x="270.556641" xlink:href="#DejaVuSans-115"/>
     <use x="322.65625" xlink:href="#DejaVuSans-111"/>
     <use x="383.837891" xlink:href="#DejaVuSans-117"/>
     <use x="447.216797" xlink:href="#DejaVuSans-114"/>
     <use x="486.080078" xlink:href="#DejaVuSans-99"/>
     <use x="541.060547" xlink:href="#DejaVuSans-101"/>
     <use x="602.583984" xlink:href="#DejaVuSans-58"/>
     <use x="636.275391" xlink:href="#DejaVuSans-32"/>
     <use x="668.0625" xlink:href="#DejaVuSans-110"/>
     <use x="731.441406" xlink:href="#DejaVuSans-111"/>
     <use x="792.623047" xlink:href="#DejaVuSans-109"/>
     <use x="890.035156" xlink:href="#DejaVuSans-105"/>
     <use x="917.818359" xlink:href="#DejaVuSans-99"/>
     <use x="972.798828" xlink:href="#DejaVuSans-115"/>
    </g>
   </g>
   <g id="legend_1">
    <g id="patch_7">
     <path d="M 64.6 78.82825 
L 127.31875 78.82825 
Q 129.31875 78.82825 129.31875 76.82825 
L 129.31875 48.472 
Q 129.31875 46.472 127.31875 46.472 
L 64.6 46.472 
Q 62.6 46.472 62.6 48.472 
L 62.6 76.82825 
Q 62.6 78.82825 64.6 78.82825 
z
" style="fill:#ffffff;opacity:0.8;stroke:#cccccc;stroke-linejoin:miter;"/>
    </g>
    <g id="line2d_17">
     <path d="M 66.6 54.570437 
L 86.6 54.570437 
" style="fill:none;stroke:#0000ff;stroke-linecap:square;stroke-width:1.5;"/>
    </g>
    <g id="line2d_18"/>
    <g id="text_15">
     <!-- MACD -->
     <g transform="translate(94.6 58.070437)scale(0.1 -0.1)">
      <defs>
       <path d="M 9.8125 72.90625 
L 24.515625 72.90625 
L 43.109375 23.296875 
L 61.8125 72.90625 
L 76.515625 72.90625 
L 76.515625 0 
L 66.890625 0 
L 66.890625 64.015625 
L 48.09375 14.015625 
L 38.1875 14.015625 
L 19.390625 64.015625 
L 19.390625 0 
L 9.8125 0 
z
" id="DejaVuSans-77"/>
       <path d="M 34.1875 63.1875 
L 20.796875 26.90625 
L 47.609375 26.90625 
z
M 28.609375 72.90625 
L 39.796875 72.90625 
L 67.578125 0 
L 57.328125 0 
L 50.6875 18.703125 
L 17.828125 18.703125 
L 11.1875 0 
L 0.78125 0 
z
" id="DejaVuSans-65"/>
       <path d="M 64.40625 67.28125 
L 64.40625 56.890625 
Q 59.421875 61.53125 53.78125 63.8125 
Q 48.140625 66.109375 41.796875 66.109375 
Q 29.296875 66.109375 22.65625 58.46875 
Q 16.015625 50.828125 16.015625 36.375 
Q 16.015625 21.96875 22.65625 14.328125 
Q 29.296875 6.6875 41.796875 6.6875 
Q 48.140625 6.6875 53.78125 8.984375 
Q 59.421875 11.28125 64.40625 15.921875 
L 64.40625 5.609375 
Q 59.234375 2.09375 53.4375 0.328125 
Q 47.65625 -1.421875 41.21875 -1.421875 
Q 24.65625 -1.421875 15.125 8.703125 
Q 5.609375 18.84375 5.609375 36.375 
Q 5.609375 53.953125 15.125 64.078125 
Q 24.65625 74.21875 41.21875 74.21875 
Q 47.75 74.21875 53.53125 72.484375 
Q 59.328125 70.75 64.40625 67.28125 
z
" id="DejaVuSans-67"/>
      </defs>
      <use xlink:href="#DejaVuSans-77"/>
      <use x="86.279297" xlink:href="#DejaVuSans-65"/>
      <use x="152.9375" xlink:href="#DejaVuSans-67"/>
      <use x="222.761719" xlink:href="#DejaVuSans-68"/>
     </g>
    </g>
    <g id="line2d_19">
     <path d="M 66.6 69.248562 
L 86.6 69.248562 
" style="fill:none;stroke:#ff6347;stroke-linecap:square;stroke-width:1.5;"/>
    </g>
    <g id="line2d_20"/>
    <g id="text_16">
     <!-- Signal -->
     <g transform="translate(94.6 72.748562)scale(0.1 -0.1)">
      <defs>
       <path d="M 53.515625 70.515625 
L 53.515625 60.890625 
Q 47.90625 63.578125 42.921875 64.890625 
Q 37.9375 66.21875 33.296875 66.21875 
Q 25.25 66.21875 20.875 63.09375 
Q 16.5 59.96875 16.5 54.203125 
Q 16.5 49.359375 19.40625 46.890625 
Q 22.3125 44.4375 30.421875 42.921875 
L 36.375 41.703125 
Q 47.40625 39.59375 52.65625 34.296875 
Q 57.90625 29 57.90625 20.125 
Q 57.90625 9.515625 50.796875 4.046875 
Q 43.703125 -1.421875 29.984375 -1.421875 
Q 24.8125 -1.421875 18.96875 -0.25 
Q 13.140625 0.921875 6.890625 3.21875 
L 6.890625 13.375 
Q 12.890625 10.015625 18.65625 8.296875 
Q 24.421875 6.59375 29.984375 6.59375 
Q 38.421875 6.59375 43.015625 9.90625 
Q 47.609375 13.234375 47.609375 19.390625 
Q 47.609375 24.75 44.3125 27.78125 
Q 41.015625 30.8125 33.5 32.328125 
L 27.484375 33.5 
Q 16.453125 35.6875 11.515625 40.375 
Q 6.59375 45.0625 6.59375 53.421875 
Q 6.59375 63.09375 13.40625 68.65625 
Q 20.21875 74.21875 32.171875 74.21875 
Q 37.3125 74.21875 42.625 73.28125 
Q 47.953125 72.359375 53.515625 70.515625 
z
" id="DejaVuSans-83"/>
       <path d="M 45.40625 27.984375 
Q 45.40625 37.75 41.375 43.109375 
Q 37.359375 48.484375 30.078125 48.484375 
Q 22.859375 48.484375 18.828125 43.109375 
Q 14.796875 37.75 14.796875 27.984375 
Q 14.796875 18.265625 18.828125 12.890625 
Q 22.859375 7.515625 30.078125 7.515625 
Q 37.359375 7.515625 41.375 12.890625 
Q 45.40625 18.265625 45.40625 27.984375 
z
M 54.390625 6.78125 
Q 54.390625 -7.171875 48.1875 -13.984375 
Q 42 -20.796875 29.203125 -20.796875 
Q 24.46875 -20.796875 20.265625 -20.09375 
Q 16.0625 -19.390625 12.109375 -17.921875 
L 12.109375 -9.1875 
Q 16.0625 -11.328125 19.921875 -12.34375 
Q 23.78125 -13.375 27.78125 -13.375 
Q 36.625 -13.375 41.015625 -8.765625 
Q 45.40625 -4.15625 45.40625 5.171875 
L 45.40625 9.625 
Q 42.625 4.78125 38.28125 2.390625 
Q 33.9375 0 27.875 0 
Q 17.828125 0 11.671875 7.65625 
Q 5.515625 15.328125 5.515625 27.984375 
Q 5.515625 40.671875 11.671875 48.328125 
Q 17.828125 56 27.875 56 
Q 33.9375 56 38.28125 53.609375 
Q 42.625 51.21875 45.40625 46.390625 
L 45.40625 54.6875 
L 54.390625 54.6875 
z
" id="DejaVuSans-103"/>
       <path d="M 9.421875 75.984375 
L 18.40625 75.984375 
L 18.40625 0 
L 9.421875 0 
z
" id="DejaVuSans-108"/>
      </defs>
      <use xlink:href="#DejaVuSans-83"/>
      <use x="63.476562" xlink:href="#DejaVuSans-105"/>
      <use x="91.259766" xlink:href="#DejaVuSans-103"/>
      <use x="154.736328" xlink:href="#DejaVuSans-110"/>
      <use x="218.115234" xlink:href="#DejaVuSans-97"/>
      <use x="279.394531" xlink:href="#DejaVuSans-108"/>
     </g>
    </g>
   </g>
  </g>
  <g id="text_17">
   <!-- MACD -->
   <g transform="translate(206.41875 19.0695)scale(0.16 -0.16)">
    <use xlink:href="#DejaVuSans-77"/>
    <use x="86.279297" xlink:href="#DejaVuSans-65"/>
    <use x="152.9375" xlink:href="#DejaVuSans-67"/>
    <use x="222.761719" xlink:href="#DejaVuSans-68"/>
   </g>
  </g>
 </g>
 <defs>
  <clipPath id="p49700692f4">
   <rect height="266.112" width="357.12" x="57.6" y="41.472"/>
  </clipPath>
 </defs>
</svg>
