<?xml version="1.0" encoding="utf-8" standalone="no"?>
<!DOCTYPE svg PUBLIC "-//W3C//DTD SVG 1.1//EN"
  "http://www.w3.org/Graphics/SVG/1.1/DTD/svg11.dtd">
<!-- Created with matplotlib (https://matplotlib.org/) -->
<svg height="345.6pt" version="1.1" viewBox="0 0 460.8 345.6" width="460.8pt" xmlns="http://www.w3.org/2000/svg" xmlns:xlink="http://www.w3.org/1999/xlink">
 <metadata>
  <rdf:RDF xmlns:cc="http://creativecommons.org/ns#" xmlns:dc="http://purl.org/dc/elements/1.1/" xmlns:rdf="http://www.w3.org/1999/02/22-rdf-syntax-ns#">
   <cc:Work>
    <dc:type rdf:resource="http://purl.org/dc/dcmitype/StillImage"/>
    <dc:date>2021-01-02T19:00:06.616543</dc:date>
    <dc:format>image/svg+xml</dc:format>
    <dc:creator>
     <cc:Agent>
      <dc:title>Matplotlib v3.3.2, https://matplotlib.org/</dc:title>
     </cc:Agent>
    </dc:creator>
   </cc:Work>
  </rdf:RDF>
 </metadata>
 <defs>
  <style type="text/css">*{stroke-linecap:butt;stroke-linejoin:round;}</style>
 </defs>
 <g id="figure_1">
  <g id="patch_1">
   <path d="M 0 345.6 
L 460.8 345.6 
L 460.8 0 
L 0 0 
z
" style="fill:#ffffff;"/>
  </g>
  <g id="axes_1">
   <g id="patch_2">
    <path d="M 57.6 307.584 
L 414.72 307.584 
L 414.72 41.472 
L 57.6 41.472 
z
" style="fill:#ffffff;"/>
   </g>
   <g id="matplotlib.axis_1">
    <g id="xtick_1">
     <g id="line2d_1">
      <defs>
       <path d="M 0 0 
L 0 3.5 
" id="m2d40ab6923" style="stroke:#000000;stroke-width:0.8;"/>
      </defs>
      <g>
       <use style="stroke:#000000;stroke-width:0.8;" x="73.832727" xlink:href="#m2d40ab6923" y="307.584"/>
      </g>
     </g>
     <g id="text_1">
      <!-- 2020-01 -->
      <g transform="translate(52.941321 322.182437)scale(0.1 -0.1)">
       <defs>
        <path d="M 19.1875 8.296875 
L 53.609375 8.296875 
L 53.609375 0 
L 7.328125 0 
L 7.328125 8.296875 
Q 12.9375 14.109375 22.625 23.890625 
Q 32.328125 33.6875 34.8125 36.53125 
Q 39.546875 41.84375 41.421875 45.53125 
Q 43.3125 49.21875 43.3125 52.78125 
Q 43.3125 58.59375 39.234375 62.25 
Q 35.15625 65.921875 28.609375 65.921875 
Q 23.96875 65.921875 18.8125 64.3125 
Q 13.671875 62.703125 7.8125 59.421875 
L 7.8125 69.390625 
Q 13.765625 71.78125 18.9375 73 
Q 24.125 74.21875 28.421875 74.21875 
Q 39.75 74.21875 46.484375 68.546875 
Q 53.21875 62.890625 53.21875 53.421875 
Q 53.21875 48.921875 51.53125 44.890625 
Q 49.859375 40.875 45.40625 35.40625 
Q 44.1875 33.984375 37.640625 27.21875 
Q 31.109375 20.453125 19.1875 8.296875 
z
" id="DejaVuSans-50"/>
        <path d="M 31.78125 66.40625 
Q 24.171875 66.40625 20.328125 58.90625 
Q 16.5 51.421875 16.5 36.375 
Q 16.5 21.390625 20.328125 13.890625 
Q 24.171875 6.390625 31.78125 6.390625 
Q 39.453125 6.390625 43.28125 13.890625 
Q 47.125 21.390625 47.125 36.375 
Q 47.125 51.421875 43.28125 58.90625 
Q 39.453125 66.40625 31.78125 66.40625 
z
M 31.78125 74.21875 
Q 44.046875 74.21875 50.515625 64.515625 
Q 56.984375 54.828125 56.984375 36.375 
Q 56.984375 17.96875 50.515625 8.265625 
Q 44.046875 -1.421875 31.78125 -1.421875 
Q 19.53125 -1.421875 13.0625 8.265625 
Q 6.59375 17.96875 6.59375 36.375 
Q 6.59375 54.828125 13.0625 64.515625 
Q 19.53125 74.21875 31.78125 74.21875 
z
" id="DejaVuSans-48"/>
        <path d="M 4.890625 31.390625 
L 31.203125 31.390625 
L 31.203125 23.390625 
L 4.890625 23.390625 
z
" id="DejaVuSans-45"/>
        <path d="M 12.40625 8.296875 
L 28.515625 8.296875 
L 28.515625 63.921875 
L 10.984375 60.40625 
L 10.984375 69.390625 
L 28.421875 72.90625 
L 38.28125 72.90625 
L 38.28125 8.296875 
L 54.390625 8.296875 
L 54.390625 0 
L 12.40625 0 
z
" id="DejaVuSans-49"/>
       </defs>
       <use xlink:href="#DejaVuSans-50"/>
       <use x="63.623047" xlink:href="#DejaVuSans-48"/>
       <use x="127.246094" xlink:href="#DejaVuSans-50"/>
       <use x="190.869141" xlink:href="#DejaVuSans-48"/>
       <use x="254.492188" xlink:href="#DejaVuSans-45"/>
       <use x="290.576172" xlink:href="#DejaVuSans-48"/>
       <use x="354.199219" xlink:href="#DejaVuSans-49"/>
      </g>
     </g>
    </g>
    <g id="xtick_2">
     <g id="line2d_2">
      <g>
       <use style="stroke:#000000;stroke-width:0.8;" x="126.909765" xlink:href="#m2d40ab6923" y="307.584"/>
      </g>
     </g>
     <g id="text_2">
      <!-- 2020-03 -->
      <g transform="translate(106.018358 322.182437)scale(0.1 -0.1)">
       <defs>
        <path d="M 40.578125 39.3125 
Q 47.65625 37.796875 51.625 33 
Q 55.609375 28.21875 55.609375 21.1875 
Q 55.609375 10.40625 48.1875 4.484375 
Q 40.765625 -1.421875 27.09375 -1.421875 
Q 22.515625 -1.421875 17.65625 -0.515625 
Q 12.796875 0.390625 7.625 2.203125 
L 7.625 11.71875 
Q 11.71875 9.328125 16.59375 8.109375 
Q 21.484375 6.890625 26.8125 6.890625 
Q 36.078125 6.890625 40.9375 10.546875 
Q 45.796875 14.203125 45.796875 21.1875 
Q 45.796875 27.640625 41.28125 31.265625 
Q 36.765625 34.90625 28.71875 34.90625 
L 20.21875 34.90625 
L 20.21875 43.015625 
L 29.109375 43.015625 
Q 36.375 43.015625 40.234375 45.921875 
Q 44.09375 48.828125 44.09375 54.296875 
Q 44.09375 59.90625 40.109375 62.90625 
Q 36.140625 65.921875 28.71875 65.921875 
Q 24.65625 65.921875 20.015625 65.03125 
Q 15.375 64.15625 9.8125 62.3125 
L 9.8125 71.09375 
Q 15.4375 72.65625 20.34375 73.4375 
Q 25.25 74.21875 29.59375 74.21875 
Q 40.828125 74.21875 47.359375 69.109375 
Q 53.90625 64.015625 53.90625 55.328125 
Q 53.90625 49.265625 50.4375 45.09375 
Q 46.96875 40.921875 40.578125 39.3125 
z
" id="DejaVuSans-51"/>
       </defs>
       <use xlink:href="#DejaVuSans-50"/>
       <use x="63.623047" xlink:href="#DejaVuSans-48"/>
       <use x="127.246094" xlink:href="#DejaVuSans-50"/>
       <use x="190.869141" xlink:href="#DejaVuSans-48"/>
       <use x="254.492188" xlink:href="#DejaVuSans-45"/>
       <use x="290.576172" xlink:href="#DejaVuSans-48"/>
       <use x="354.199219" xlink:href="#DejaVuSans-51"/>
      </g>
     </g>
    </g>
    <g id="xtick_3">
     <g id="line2d_3">
      <g>
       <use style="stroke:#000000;stroke-width:0.8;" x="180.871419" xlink:href="#m2d40ab6923" y="307.584"/>
      </g>
     </g>
     <g id="text_3">
      <!-- 2020-05 -->
      <g transform="translate(159.980013 322.182437)scale(0.1 -0.1)">
       <defs>
        <path d="M 10.796875 72.90625 
L 49.515625 72.90625 
L 49.515625 64.59375 
L 19.828125 64.59375 
L 19.828125 46.734375 
Q 21.96875 47.46875 24.109375 47.828125 
Q 26.265625 48.1875 28.421875 48.1875 
Q 40.625 48.1875 47.75 41.5 
Q 54.890625 34.8125 54.890625 23.390625 
Q 54.890625 11.625 47.5625 5.09375 
Q 40.234375 -1.421875 26.90625 -1.421875 
Q 22.3125 -1.421875 17.546875 -0.640625 
Q 12.796875 0.140625 7.71875 1.703125 
L 7.71875 11.625 
Q 12.109375 9.234375 16.796875 8.0625 
Q 21.484375 6.890625 26.703125 6.890625 
Q 35.15625 6.890625 40.078125 11.328125 
Q 45.015625 15.765625 45.015625 23.390625 
Q 45.015625 31 40.078125 35.4375 
Q 35.15625 39.890625 26.703125 39.890625 
Q 22.75 39.890625 18.8125 39.015625 
Q 14.890625 38.140625 10.796875 36.28125 
z
" id="DejaVuSans-53"/>
       </defs>
       <use xlink:href="#DejaVuSans-50"/>
       <use x="63.623047" xlink:href="#DejaVuSans-48"/>
       <use x="127.246094" xlink:href="#DejaVuSans-50"/>
       <use x="190.869141" xlink:href="#DejaVuSans-48"/>
       <use x="254.492188" xlink:href="#DejaVuSans-45"/>
       <use x="290.576172" xlink:href="#DejaVuSans-48"/>
       <use x="354.199219" xlink:href="#DejaVuSans-53"/>
      </g>
     </g>
    </g>
    <g id="xtick_4">
     <g id="line2d_4">
      <g>
       <use style="stroke:#000000;stroke-width:0.8;" x="234.833074" xlink:href="#m2d40ab6923" y="307.584"/>
      </g>
     </g>
     <g id="text_4">
      <!-- 2020-07 -->
      <g transform="translate(213.941668 322.182437)scale(0.1 -0.1)">
       <defs>
        <path d="M 8.203125 72.90625 
L 55.078125 72.90625 
L 55.078125 68.703125 
L 28.609375 0 
L 18.3125 0 
L 43.21875 64.59375 
L 8.203125 64.59375 
z
" id="DejaVuSans-55"/>
       </defs>
       <use xlink:href="#DejaVuSans-50"/>
       <use x="63.623047" xlink:href="#DejaVuSans-48"/>
       <use x="127.246094" xlink:href="#DejaVuSans-50"/>
       <use x="190.869141" xlink:href="#DejaVuSans-48"/>
       <use x="254.492188" xlink:href="#DejaVuSans-45"/>
       <use x="290.576172" xlink:href="#DejaVuSans-48"/>
       <use x="354.199219" xlink:href="#DejaVuSans-55"/>
      </g>
     </g>
    </g>
    <g id="xtick_5">
     <g id="line2d_5">
      <g>
       <use style="stroke:#000000;stroke-width:0.8;" x="289.679346" xlink:href="#m2d40ab6923" y="307.584"/>
      </g>
     </g>
     <g id="text_5">
      <!-- 2020-09 -->
      <g transform="translate(268.78794 322.182437)scale(0.1 -0.1)">
       <defs>
        <path d="M 10.984375 1.515625 
L 10.984375 10.5 
Q 14.703125 8.734375 18.5 7.8125 
Q 22.3125 6.890625 25.984375 6.890625 
Q 35.75 6.890625 40.890625 13.453125 
Q 46.046875 20.015625 46.78125 33.40625 
Q 43.953125 29.203125 39.59375 26.953125 
Q 35.25 24.703125 29.984375 24.703125 
Q 19.046875 24.703125 12.671875 31.3125 
Q 6.296875 37.9375 6.296875 49.421875 
Q 6.296875 60.640625 12.9375 67.421875 
Q 19.578125 74.21875 30.609375 74.21875 
Q 43.265625 74.21875 49.921875 64.515625 
Q 56.59375 54.828125 56.59375 36.375 
Q 56.59375 19.140625 48.40625 8.859375 
Q 40.234375 -1.421875 26.421875 -1.421875 
Q 22.703125 -1.421875 18.890625 -0.6875 
Q 15.09375 0.046875 10.984375 1.515625 
z
M 30.609375 32.421875 
Q 37.25 32.421875 41.125 36.953125 
Q 45.015625 41.5 45.015625 49.421875 
Q 45.015625 57.28125 41.125 61.84375 
Q 37.25 66.40625 30.609375 66.40625 
Q 23.96875 66.40625 20.09375 61.84375 
Q 16.21875 57.28125 16.21875 49.421875 
Q 16.21875 41.5 20.09375 36.953125 
Q 23.96875 32.421875 30.609375 32.421875 
z
" id="DejaVuSans-57"/>
       </defs>
       <use xlink:href="#DejaVuSans-50"/>
       <use x="63.623047" xlink:href="#DejaVuSans-48"/>
       <use x="127.246094" xlink:href="#DejaVuSans-50"/>
       <use x="190.869141" xlink:href="#DejaVuSans-48"/>
       <use x="254.492188" xlink:href="#DejaVuSans-45"/>
       <use x="290.576172" xlink:href="#DejaVuSans-48"/>
       <use x="354.199219" xlink:href="#DejaVuSans-57"/>
      </g>
     </g>
    </g>
    <g id="xtick_6">
     <g id="line2d_6">
      <g>
       <use style="stroke:#000000;stroke-width:0.8;" x="343.641001" xlink:href="#m2d40ab6923" y="307.584"/>
      </g>
     </g>
     <g id="text_6">
      <!-- 2020-11 -->
      <g transform="translate(322.749594 322.182437)scale(0.1 -0.1)">
       <use xlink:href="#DejaVuSans-50"/>
       <use x="63.623047" xlink:href="#DejaVuSans-48"/>
       <use x="127.246094" xlink:href="#DejaVuSans-50"/>
       <use x="190.869141" xlink:href="#DejaVuSans-48"/>
       <use x="254.492188" xlink:href="#DejaVuSans-45"/>
       <use x="290.576172" xlink:href="#DejaVuSans-49"/>
       <use x="354.199219" xlink:href="#DejaVuSans-49"/>
      </g>
     </g>
    </g>
    <g id="xtick_7">
     <g id="line2d_7">
      <g>
       <use style="stroke:#000000;stroke-width:0.8;" x="397.602655" xlink:href="#m2d40ab6923" y="307.584"/>
      </g>
     </g>
     <g id="text_7">
      <!-- 2021-01 -->
      <g transform="translate(376.711249 322.182437)scale(0.1 -0.1)">
       <use xlink:href="#DejaVuSans-50"/>
       <use x="63.623047" xlink:href="#DejaVuSans-48"/>
       <use x="127.246094" xlink:href="#DejaVuSans-50"/>
       <use x="190.869141" xlink:href="#DejaVuSans-49"/>
       <use x="254.492188" xlink:href="#DejaVuSans-45"/>
       <use x="290.576172" xlink:href="#DejaVuSans-48"/>
       <use x="354.199219" xlink:href="#DejaVuSans-49"/>
      </g>
     </g>
    </g>
   </g>
   <g id="matplotlib.axis_2">
    <g id="ytick_1">
     <g id="line2d_8">
      <defs>
       <path d="M 0 0 
L -3.5 0 
" id="medff2c003d" style="stroke:#000000;stroke-width:0.8;"/>
      </defs>
      <g>
       <use style="stroke:#000000;stroke-width:0.8;" x="57.6" xlink:href="#medff2c003d" y="290.492301"/>
      </g>
     </g>
     <g id="text_8">
      <!-- −1000 -->
      <g transform="translate(16.770313 294.29152)scale(0.1 -0.1)">
       <defs>
        <path d="M 10.59375 35.5 
L 73.1875 35.5 
L 73.1875 27.203125 
L 10.59375 27.203125 
z
" id="DejaVuSans-8722"/>
       </defs>
       <use xlink:href="#DejaVuSans-8722"/>
       <use x="83.789062" xlink:href="#DejaVuSans-49"/>
       <use x="147.412109" xlink:href="#DejaVuSans-48"/>
       <use x="211.035156" xlink:href="#DejaVuSans-48"/>
       <use x="274.658203" xlink:href="#DejaVuSans-48"/>
      </g>
     </g>
    </g>
    <g id="ytick_2">
     <g id="line2d_9">
      <g>
       <use style="stroke:#000000;stroke-width:0.8;" x="57.6" xlink:href="#medff2c003d" y="259.260595"/>
      </g>
     </g>
     <g id="text_9">
      <!-- −500 -->
      <g transform="translate(23.132812 263.059814)scale(0.1 -0.1)">
       <use xlink:href="#DejaVuSans-8722"/>
       <use x="83.789062" xlink:href="#DejaVuSans-53"/>
       <use x="147.412109" xlink:href="#DejaVuSans-48"/>
       <use x="211.035156" xlink:href="#DejaVuSans-48"/>
      </g>
     </g>
    </g>
    <g id="ytick_3">
     <g id="line2d_10">
      <g>
       <use style="stroke:#000000;stroke-width:0.8;" x="57.6" xlink:href="#medff2c003d" y="228.02889"/>
      </g>
     </g>
     <g id="text_10">
      <!-- 0 -->
      <g transform="translate(44.2375 231.828109)scale(0.1 -0.1)">
       <use xlink:href="#DejaVuSans-48"/>
      </g>
     </g>
    </g>
    <g id="ytick_4">
     <g id="line2d_11">
      <g>
       <use style="stroke:#000000;stroke-width:0.8;" x="57.6" xlink:href="#medff2c003d" y="196.797185"/>
      </g>
     </g>
     <g id="text_11">
      <!-- 500 -->
      <g transform="translate(31.5125 200.596404)scale(0.1 -0.1)">
       <use xlink:href="#DejaVuSans-53"/>
       <use x="63.623047" xlink:href="#DejaVuSans-48"/>
       <use x="127.246094" xlink:href="#DejaVuSans-48"/>
      </g>
     </g>
    </g>
    <g id="ytick_5">
     <g id="line2d_12">
      <g>
       <use style="stroke:#000000;stroke-width:0.8;" x="57.6" xlink:href="#medff2c003d" y="165.565479"/>
      </g>
     </g>
     <g id="text_12">
      <!-- 1000 -->
      <g transform="translate(25.15 169.364698)scale(0.1 -0.1)">
       <use xlink:href="#DejaVuSans-49"/>
       <use x="63.623047" xlink:href="#DejaVuSans-48"/>
       <use x="127.246094" xlink:href="#DejaVuSans-48"/>
       <use x="190.869141" xlink:href="#DejaVuSans-48"/>
      </g>
     </g>
    </g>
    <g id="ytick_6">
     <g id="line2d_13">
      <g>
       <use style="stroke:#000000;stroke-width:0.8;" x="57.6" xlink:href="#medff2c003d" y="134.333774"/>
      </g>
     </g>
     <g id="text_13">
      <!-- 1500 -->
      <g transform="translate(25.15 138.132993)scale(0.1 -0.1)">
       <use xlink:href="#DejaVuSans-49"/>
       <use x="63.623047" xlink:href="#DejaVuSans-53"/>
       <use x="127.246094" xlink:href="#DejaVuSans-48"/>
       <use x="190.869141" xlink:href="#DejaVuSans-48"/>
      </g>
     </g>
    </g>
    <g id="ytick_7">
     <g id="line2d_14">
      <g>
       <use style="stroke:#000000;stroke-width:0.8;" x="57.6" xlink:href="#medff2c003d" y="103.102069"/>
      </g>
     </g>
     <g id="text_14">
      <!-- 2000 -->
      <g transform="translate(25.15 106.901288)scale(0.1 -0.1)">
       <use xlink:href="#DejaVuSans-50"/>
       <use x="63.623047" xlink:href="#DejaVuSans-48"/>
       <use x="127.246094" xlink:href="#DejaVuSans-48"/>
       <use x="190.869141" xlink:href="#DejaVuSans-48"/>
      </g>
     </g>
    </g>
    <g id="ytick_8">
     <g id="line2d_15">
      <g>
       <use style="stroke:#000000;stroke-width:0.8;" x="57.6" xlink:href="#medff2c003d" y="71.870364"/>
      </g>
     </g>
     <g id="text_15">
      <!-- 2500 -->
      <g transform="translate(25.15 75.669582)scale(0.1 -0.1)">
       <use xlink:href="#DejaVuSans-50"/>
       <use x="63.623047" xlink:href="#DejaVuSans-53"/>
       <use x="127.246094" xlink:href="#DejaVuSans-48"/>
       <use x="190.869141" xlink:href="#DejaVuSans-48"/>
      </g>
     </g>
    </g>
   </g>
   <g id="line2d_16">
    <path clip-path="url(#pa785801338)" d="M 73.832727 228.02889 
L 398.487273 228.02889 
L 398.487273 228.02889 
" style="fill:none;stroke:#1f77b4;stroke-dasharray:5.55,2.4;stroke-dashoffset:0;stroke-width:1.5;"/>
   </g>
   <g id="line2d_17">
    <path clip-path="url(#pa785801338)" d="M 73.832727 228.02889 
L 74.717345 229.159471 
L 75.601962 228.113919 
L 76.486579 227.24757 
L 77.371196 226.575434 
L 78.255814 224.04479 
L 79.140431 220.134606 
L 80.025048 217.733505 
L 80.909666 217.095499 
L 81.794283 214.864916 
L 82.6789 214.12855 
L 83.563517 212.900539 
L 84.448135 212.47659 
L 85.332752 208.823976 
L 86.217369 206.17582 
L 87.101987 204.806386 
L 87.986604 203.134404 
L 88.871221 202.053731 
L 89.755838 202.512578 
L 90.640456 203.49812 
L 91.525073 204.069899 
L 92.40969 205.122734 
L 93.294308 207.548354 
L 94.178925 209.461202 
L 95.063542 211.666704 
L 95.94816 212.257485 
L 96.832777 211.411382 
L 97.717394 208.487461 
L 98.602011 206.931636 
L 99.486629 204.865531 
L 100.371246 204.320926 
L 101.255863 203.952504 
L 102.140481 204.215184 
L 103.025098 204.898842 
L 103.909715 206.277597 
L 104.794332 205.422883 
L 105.67895 204.32749 
L 107.448184 202.59905 
L 108.332802 200.908452 
L 109.217419 201.430504 
L 110.986653 198.937564 
L 111.871271 198.959151 
L 112.755888 198.676126 
L 113.640505 201.049774 
L 114.525123 203.101431 
L 115.40974 206.08975 
L 116.294357 206.290295 
L 117.178974 209.646967 
L 118.063592 212.417406 
L 119.832826 216.115878 
L 120.717444 216.131932 
L 121.602061 217.81799 
L 122.486678 221.002886 
L 123.371296 226.188253 
L 125.14053 233.714867 
L 126.025147 237.334191 
L 126.909765 240.054541 
L 127.794382 240.125474 
L 128.678999 240.830841 
L 129.563617 241.23905 
L 130.448234 239.886628 
L 131.332851 238.234101 
L 132.217468 238.114639 
L 133.986703 245.713417 
L 134.87132 248.513222 
L 135.755938 250.214537 
L 136.640555 266.427945 
L 138.409789 283.63611 
L 140.179024 293.699019 
L 141.063641 295.340436 
L 141.948259 295.488 
L 144.60211 282.603173 
L 145.486728 280.778811 
L 146.371345 275.313809 
L 147.255962 269.128745 
L 149.025197 259.830548 
L 149.909814 256.093985 
L 150.794432 255.199469 
L 151.679049 255.905779 
L 152.563666 252.719267 
L 153.448283 250.533575 
L 156.102135 241.616062 
L 156.986753 238.911902 
L 157.87137 237.139141 
L 159.640604 229.494052 
L 160.525222 226.779591 
L 161.409839 224.797665 
L 162.294456 225.299745 
L 163.179074 226.202068 
L 164.063691 225.288488 
L 164.948308 226.499347 
L 165.832925 226.857375 
L 166.717543 227.938272 
L 168.486777 226.385053 
L 169.371395 225.109291 
L 170.256012 224.421873 
L 172.025246 226.200712 
L 172.909864 225.533549 
L 173.794481 222.950972 
L 175.563716 219.526164 
L 177.33295 217.001724 
L 178.217568 215.902448 
L 179.102185 212.442314 
L 179.986802 207.580528 
L 180.871419 203.850883 
L 181.756037 200.607024 
L 182.640654 198.738971 
L 184.409889 196.733535 
L 186.179123 192.672952 
L 187.06374 188.524559 
L 187.948358 186.949628 
L 188.832975 192.538782 
L 189.717592 195.370854 
L 190.60221 198.595265 
L 191.486827 199.617028 
L 192.371444 198.33272 
L 193.256061 197.958838 
L 194.140679 198.30031 
L 195.025296 197.36158 
L 195.909913 197.666088 
L 196.794531 197.487308 
L 197.679148 197.782714 
L 198.563765 200.536616 
L 199.448382 203.791584 
L 200.333 206.572977 
L 201.217617 208.915432 
L 202.102234 213.09513 
L 202.986852 216.068083 
L 203.871469 218.274518 
L 204.756086 218.694757 
L 205.640703 217.932428 
L 206.525321 216.939729 
L 207.409938 216.316573 
L 208.294555 215.86316 
L 209.179173 212.798622 
L 210.06379 213.272141 
L 210.948407 214.134686 
L 211.833025 213.437807 
L 212.717642 213.840678 
L 213.602259 214.608008 
L 214.486876 214.81993 
L 215.371494 215.442466 
L 216.256111 215.764258 
L 217.140728 215.825033 
L 218.909963 219.351286 
L 219.79458 220.863615 
L 220.679197 223.548483 
L 222.448432 224.376566 
L 223.333049 224.895374 
L 224.217667 226.190121 
L 225.102284 227.046819 
L 225.986901 227.594078 
L 226.871518 227.351252 
L 227.756136 226.586657 
L 228.640753 226.409728 
L 229.52537 227.466374 
L 230.409988 229.031008 
L 231.294605 230.062247 
L 232.179222 231.708135 
L 233.063839 232.434265 
L 233.948457 232.71262 
L 234.833074 232.829667 
L 235.717691 232.637825 
L 237.486926 233.209918 
L 238.371543 233.388681 
L 239.256161 232.830164 
L 241.025395 231.283695 
L 241.910012 230.044018 
L 242.79463 230.341024 
L 244.563864 229.49801 
L 245.448482 229.101856 
L 247.217716 229.27416 
L 248.102333 229.774893 
L 248.986951 230.117933 
L 249.871568 230.273012 
L 250.756185 230.289948 
L 252.52542 229.8783 
L 253.410037 228.907922 
L 255.179272 226.00561 
L 256.063889 224.675755 
L 256.948506 223.122301 
L 257.833124 219.029123 
L 258.717741 212.512474 
L 259.602358 207.597673 
L 260.486975 203.626098 
L 261.371593 200.932079 
L 262.25621 197.492534 
L 263.140827 195.409202 
L 264.910062 194.199635 
L 265.794679 194.372374 
L 266.679297 192.014583 
L 267.563914 190.426014 
L 268.448531 190.899316 
L 269.333148 191.205196 
L 270.217766 190.151241 
L 271.102383 190.642995 
L 271.987 193.898354 
L 272.871618 195.726205 
L 273.756235 196.557715 
L 274.640852 196.889531 
L 275.525469 197.441068 
L 276.410087 198.480023 
L 277.294704 197.283843 
L 278.179321 198.735016 
L 279.063939 200.627369 
L 279.948556 203.671738 
L 281.71779 208.174666 
L 282.602408 209.539512 
L 283.487025 212.639706 
L 284.371642 214.844899 
L 285.25626 217.503678 
L 286.140877 218.80928 
L 287.025494 219.773725 
L 288.794729 220.013547 
L 289.679346 218.756999 
L 290.563963 218.717838 
L 291.448581 221.248869 
L 292.333198 228.343241 
L 294.98705 242.337471 
L 295.871667 244.401332 
L 296.756284 247.247278 
L 297.640902 247.720709 
L 298.525519 247.670284 
L 299.410136 247.128772 
L 300.294754 247.101216 
L 301.179371 245.032436 
L 302.063988 242.474347 
L 302.948605 239.289634 
L 303.833223 237.14587 
L 304.71784 235.378231 
L 305.602457 233.336808 
L 306.487075 232.653396 
L 307.371692 233.693186 
L 308.256309 234.418563 
L 309.140926 236.265066 
L 310.025544 235.560366 
L 311.794778 233.786751 
L 312.679396 232.996267 
L 313.564013 231.768632 
L 314.44863 231.256404 
L 315.333247 230.931438 
L 316.217865 231.216678 
L 317.987099 232.096652 
L 318.871717 231.835616 
L 319.756334 231.110397 
L 320.640951 231.338117 
L 321.525568 231.199139 
L 322.410186 229.799245 
L 323.294803 227.855453 
L 325.948655 219.967887 
L 326.833272 218.502313 
L 328.602507 216.385687 
L 329.487124 216.59025 
L 330.371741 216.659678 
L 331.256359 216.110895 
L 332.140976 214.613 
L 333.025593 212.773004 
L 334.794828 201.975741 
L 336.564062 195.205446 
L 337.44868 193.426551 
L 338.333297 192.283578 
L 339.217914 188.950581 
L 340.102532 188.589911 
L 341.871766 187.182337 
L 342.756383 185.983112 
L 343.641001 185.692783 
L 344.525618 186.923154 
L 346.294853 185.198746 
L 347.17947 177.874184 
L 348.064087 172.729811 
L 348.948704 173.042012 
L 349.833322 170.6967 
L 350.717939 170.282909 
L 351.602556 170.723553 
L 352.487174 169.763104 
L 353.371791 166.712382 
L 354.256408 164.8749 
L 355.141026 165.42376 
L 356.025643 167.102724 
L 356.91026 165.36358 
L 357.794877 159.952892 
L 358.679495 155.946755 
L 359.564112 153.480946 
L 360.448729 148.111586 
L 361.333347 144.705539 
L 362.217964 144.351835 
L 363.102581 145.236567 
L 363.987198 142.988858 
L 364.871816 144.378044 
L 366.64105 162.687357 
L 367.525668 167.262754 
L 368.410285 169.25493 
L 369.294902 163.953734 
L 370.179519 165.079407 
L 371.064137 164.531 
L 371.948754 163.70857 
L 372.833371 167.747837 
L 373.717989 169.105534 
L 374.602606 169.700741 
L 375.487223 171.8349 
L 376.37184 178.446756 
L 377.256458 183.039161 
L 379.025692 194.544831 
L 379.91031 195.713542 
L 381.679544 194.669833 
L 382.564162 193.77729 
L 383.448779 183.974547 
L 384.333396 169.509304 
L 386.102631 144.942189 
L 386.987248 138.12634 
L 387.871865 137.501962 
L 388.756483 132.567879 
L 389.6411 132.721389 
L 390.525717 131.433203 
L 391.410334 126.650768 
L 392.294952 115.398244 
L 393.179569 108.850678 
L 394.064186 101.124646 
L 394.948804 94.962488 
L 395.833421 84.017 
L 396.718038 76.732717 
L 397.602655 70.579755 
L 398.487273 53.568 
L 398.487273 53.568 
" style="fill:none;stroke:#0000ff;stroke-linecap:square;stroke-width:1.5;"/>
   </g>
   <g id="line2d_18">
    <path clip-path="url(#pa785801338)" d="M 73.832727 228.02889 
L 74.717345 228.255006 
L 75.601962 228.226789 
L 77.371196 227.739843 
L 78.255814 227.000832 
L 79.140431 225.627587 
L 81.794283 221.099476 
L 83.563517 218.344341 
L 84.448135 217.170791 
L 86.217369 213.636306 
L 88.871221 208.509257 
L 89.755838 207.309921 
L 90.640456 206.547561 
L 91.525073 206.052029 
L 92.40969 205.86617 
L 93.294308 206.202607 
L 94.178925 206.854326 
L 95.94816 208.704938 
L 96.832777 209.246227 
L 97.717394 209.094474 
L 98.602011 208.661906 
L 100.371246 207.18629 
L 101.255863 206.539533 
L 102.140481 206.074663 
L 103.025098 205.839499 
L 103.909715 205.927119 
L 104.794332 205.826272 
L 106.563567 205.111237 
L 107.448184 204.6088 
L 108.332802 203.86873 
L 109.217419 203.381085 
L 112.755888 200.826071 
L 113.640505 200.870812 
L 114.525123 201.316935 
L 116.294357 203.075258 
L 117.178974 204.3896 
L 120.717444 210.708198 
L 121.602061 212.130156 
L 122.486678 213.904702 
L 124.255913 219.117124 
L 127.794382 230.495374 
L 128.678999 232.562468 
L 129.563617 234.297784 
L 130.448234 235.415553 
L 131.332851 235.979262 
L 132.217468 236.406338 
L 133.102086 237.559117 
L 133.986703 239.189977 
L 135.755938 242.886608 
L 136.640555 247.594875 
L 138.409789 259.20842 
L 140.179024 270.838421 
L 141.063641 275.738824 
L 141.948259 279.688659 
L 142.832876 281.951887 
L 143.717493 282.890188 
L 144.60211 282.832785 
L 145.486728 282.42199 
L 146.371345 281.000354 
L 147.255962 278.626032 
L 149.025197 272.560138 
L 149.909814 269.266907 
L 150.794432 266.45342 
L 152.563666 262.018966 
L 154.332901 257.269207 
L 159.640604 241.233932 
L 161.409839 235.633984 
L 162.294456 233.567136 
L 164.063691 230.732996 
L 164.948308 229.886266 
L 165.832925 229.280488 
L 167.60216 228.639323 
L 168.486777 228.188469 
L 170.256012 226.942481 
L 171.140629 226.612264 
L 172.025246 226.529954 
L 172.909864 226.330673 
L 173.794481 225.654733 
L 174.679098 224.774741 
L 177.33295 221.504142 
L 178.217568 220.383803 
L 179.102185 218.795505 
L 180.871419 214.012185 
L 182.640654 208.812716 
L 184.409889 204.618386 
L 186.179123 200.626033 
L 187.948358 195.954516 
L 188.832975 195.271369 
L 189.717592 195.291266 
L 191.486827 196.685058 
L 192.371444 197.01459 
L 194.140679 197.422814 
L 196.794531 197.466799 
L 197.679148 197.529982 
L 198.563765 198.131309 
L 199.448382 199.263364 
L 201.217617 202.363316 
L 202.986852 206.821359 
L 203.871469 209.111991 
L 204.756086 211.028544 
L 205.640703 212.409321 
L 206.525321 213.315403 
L 207.409938 213.915637 
L 208.294555 214.305141 
L 209.179173 214.003837 
L 210.06379 213.857498 
L 210.948407 213.912936 
L 212.717642 213.822464 
L 215.371494 214.406608 
L 217.140728 214.907517 
L 218.025346 215.448805 
L 219.79458 217.156164 
L 221.563815 219.536042 
L 225.102284 223.284514 
L 225.986901 224.146427 
L 226.871518 224.787392 
L 229.52537 225.813068 
L 231.294605 227.177774 
L 233.063839 228.95393 
L 234.833074 230.330468 
L 237.486926 231.622072 
L 238.371543 231.975394 
L 239.256161 232.146348 
L 240.140778 232.12274 
L 241.025395 231.954931 
L 241.910012 231.572748 
L 244.563864 230.729778 
L 246.333099 230.171144 
L 247.217716 229.991747 
L 248.986951 229.982288 
L 251.640803 230.098594 
L 252.52542 230.054535 
L 253.410037 229.825212 
L 254.294654 229.333807 
L 256.063889 227.869685 
L 256.948506 226.920208 
L 257.833124 225.341991 
L 258.717741 222.776088 
L 261.371593 213.400451 
L 263.140827 207.256934 
L 264.025445 204.771652 
L 264.910062 202.657249 
L 266.679297 199.203136 
L 267.563914 197.447711 
L 268.448531 196.138032 
L 270.217766 194.15142 
L 271.102383 193.449735 
L 271.987 193.539459 
L 274.640852 194.972298 
L 276.410087 196.068846 
L 277.294704 196.311846 
L 278.179321 196.79648 
L 279.063939 197.562657 
L 279.948556 198.784474 
L 281.71779 201.797579 
L 282.602408 203.345966 
L 284.371642 207.132751 
L 286.140877 211.127405 
L 287.025494 212.856669 
L 287.910111 214.268547 
L 288.794729 215.417547 
L 289.679346 216.085437 
L 290.563963 216.611917 
L 291.448581 217.539308 
L 292.333198 219.700094 
L 293.217815 222.393264 
L 296.756284 235.090159 
L 297.640902 237.616269 
L 298.525519 239.627072 
L 299.410136 241.127412 
L 300.294754 242.322173 
L 301.179371 242.864225 
L 302.063988 242.78625 
L 302.948605 242.086927 
L 304.71784 239.954618 
L 306.487075 237.435524 
L 307.371692 236.687057 
L 308.256309 236.233358 
L 309.140926 236.2397 
L 310.025544 236.103833 
L 311.794778 235.406654 
L 312.679396 234.924577 
L 315.333247 233.135081 
L 316.217865 232.7514 
L 317.102482 232.540953 
L 318.871717 232.328797 
L 320.640951 231.935717 
L 321.525568 231.788402 
L 322.410186 231.39057 
L 323.294803 230.683547 
L 324.17942 229.573608 
L 325.064038 228.193366 
L 327.71789 223.445388 
L 328.602507 222.033448 
L 329.487124 220.944808 
L 332.140976 218.356524 
L 333.025593 217.23982 
L 333.910211 215.207448 
L 335.679445 209.751552 
L 337.44868 204.159175 
L 340.102532 197.091871 
L 341.871766 193.630177 
L 342.756383 192.100764 
L 343.641001 190.819168 
L 346.294853 188.432636 
L 347.17947 186.320946 
L 348.064087 183.602719 
L 350.717939 177.522023 
L 353.371791 173.248464 
L 354.256408 171.573751 
L 355.141026 170.343753 
L 356.025643 169.695547 
L 356.91026 168.829154 
L 357.794877 167.053901 
L 359.564112 162.562167 
L 362.217964 154.213366 
L 363.987198 150.532176 
L 364.871816 149.30135 
L 365.756433 150.260796 
L 366.64105 152.746108 
L 368.410285 158.370536 
L 370.179519 160.605622 
L 371.064137 161.390697 
L 371.948754 161.854272 
L 375.487223 166.637495 
L 376.37184 168.999347 
L 377.256458 171.80731 
L 378.141075 175.172802 
L 379.025692 179.047208 
L 379.91031 182.380475 
L 380.794927 184.947409 
L 381.679544 186.891894 
L 382.564162 188.268973 
L 383.448779 187.410088 
L 384.333396 183.829931 
L 385.218013 178.512647 
L 386.987248 165.064112 
L 388.756483 154.154922 
L 389.6411 149.868215 
L 391.410334 142.275124 
L 393.179569 131.289934 
L 394.948804 119.197998 
L 397.602655 98.176737 
L 398.487273 89.25499 
L 398.487273 89.25499 
" style="fill:none;stroke:#ff6347;stroke-linecap:square;stroke-width:1.5;"/>
   </g>
   <g id="patch_3">
    <path d="M 57.6 307.584 
L 57.6 41.472 
" style="fill:none;stroke:#000000;stroke-linecap:square;stroke-linejoin:miter;stroke-width:0.8;"/>
   </g>
   <g id="patch_4">
    <path d="M 414.72 307.584 
L 414.72 41.472 
" style="fill:none;stroke:#000000;stroke-linecap:square;stroke-linejoin:miter;stroke-width:0.8;"/>
   </g>
   <g id="patch_5">
    <path d="M 57.6 307.584 
L 414.72 307.584 
" style="fill:none;stroke:#000000;stroke-linecap:square;stroke-linejoin:miter;stroke-width:0.8;"/>
   </g>
   <g id="patch_6">
    <path d="M 57.6 41.472 
L 414.72 41.472 
" style="fill:none;stroke:#000000;stroke-linecap:square;stroke-linejoin:miter;stroke-width:0.8;"/>
   </g>
   <g id="text_16">
    <!-- Data source: coindesk -->
    <g transform="translate(180.640469 35.472)scale(0.1 -0.1)">
     <defs>
      <path d="M 19.671875 64.796875 
L 19.671875 8.109375 
L 31.59375 8.109375 
Q 46.6875 8.109375 53.6875 14.9375 
Q 60.6875 21.78125 60.6875 36.53125 
Q 60.6875 51.171875 53.6875 57.984375 
Q 46.6875 64.796875 31.59375 64.796875 
z
M 9.8125 72.90625 
L 30.078125 72.90625 
Q 51.265625 72.90625 61.171875 64.09375 
Q 71.09375 55.28125 71.09375 36.53125 
Q 71.09375 17.671875 61.125 8.828125 
Q 51.171875 0 30.078125 0 
L 9.8125 0 
z
" id="DejaVuSans-68"/>
      <path d="M 34.28125 27.484375 
Q 23.390625 27.484375 19.1875 25 
Q 14.984375 22.515625 14.984375 16.5 
Q 14.984375 11.71875 18.140625 8.90625 
Q 21.296875 6.109375 26.703125 6.109375 
Q 34.1875 6.109375 38.703125 11.40625 
Q 43.21875 16.703125 43.21875 25.484375 
L 43.21875 27.484375 
z
M 52.203125 31.203125 
L 52.203125 0 
L 43.21875 0 
L 43.21875 8.296875 
Q 40.140625 3.328125 35.546875 0.953125 
Q 30.953125 -1.421875 24.3125 -1.421875 
Q 15.921875 -1.421875 10.953125 3.296875 
Q 6 8.015625 6 15.921875 
Q 6 25.140625 12.171875 29.828125 
Q 18.359375 34.515625 30.609375 34.515625 
L 43.21875 34.515625 
L 43.21875 35.40625 
Q 43.21875 41.609375 39.140625 45 
Q 35.0625 48.390625 27.6875 48.390625 
Q 23 48.390625 18.546875 47.265625 
Q 14.109375 46.140625 10.015625 43.890625 
L 10.015625 52.203125 
Q 14.9375 54.109375 19.578125 55.046875 
Q 24.21875 56 28.609375 56 
Q 40.484375 56 46.34375 49.84375 
Q 52.203125 43.703125 52.203125 31.203125 
z
" id="DejaVuSans-97"/>
      <path d="M 18.3125 70.21875 
L 18.3125 54.6875 
L 36.8125 54.6875 
L 36.8125 47.703125 
L 18.3125 47.703125 
L 18.3125 18.015625 
Q 18.3125 11.328125 20.140625 9.421875 
Q 21.96875 7.515625 27.59375 7.515625 
L 36.8125 7.515625 
L 36.8125 0 
L 27.59375 0 
Q 17.1875 0 13.234375 3.875 
Q 9.28125 7.765625 9.28125 18.015625 
L 9.28125 47.703125 
L 2.6875 47.703125 
L 2.6875 54.6875 
L 9.28125 54.6875 
L 9.28125 70.21875 
z
" id="DejaVuSans-116"/>
      <path id="DejaVuSans-32"/>
      <path d="M 44.28125 53.078125 
L 44.28125 44.578125 
Q 40.484375 46.53125 36.375 47.5 
Q 32.28125 48.484375 27.875 48.484375 
Q 21.1875 48.484375 17.84375 46.4375 
Q 14.5 44.390625 14.5 40.28125 
Q 14.5 37.15625 16.890625 35.375 
Q 19.28125 33.59375 26.515625 31.984375 
L 29.59375 31.296875 
Q 39.15625 29.25 43.1875 25.515625 
Q 47.21875 21.78125 47.21875 15.09375 
Q 47.21875 7.46875 41.1875 3.015625 
Q 35.15625 -1.421875 24.609375 -1.421875 
Q 20.21875 -1.421875 15.453125 -0.5625 
Q 10.6875 0.296875 5.421875 2 
L 5.421875 11.28125 
Q 10.40625 8.6875 15.234375 7.390625 
Q 20.0625 6.109375 24.8125 6.109375 
Q 31.15625 6.109375 34.5625 8.28125 
Q 37.984375 10.453125 37.984375 14.40625 
Q 37.984375 18.0625 35.515625 20.015625 
Q 33.0625 21.96875 24.703125 23.78125 
L 21.578125 24.515625 
Q 13.234375 26.265625 9.515625 29.90625 
Q 5.8125 33.546875 5.8125 39.890625 
Q 5.8125 47.609375 11.28125 51.796875 
Q 16.75 56 26.8125 56 
Q 31.78125 56 36.171875 55.265625 
Q 40.578125 54.546875 44.28125 53.078125 
z
" id="DejaVuSans-115"/>
      <path d="M 30.609375 48.390625 
Q 23.390625 48.390625 19.1875 42.75 
Q 14.984375 37.109375 14.984375 27.296875 
Q 14.984375 17.484375 19.15625 11.84375 
Q 23.34375 6.203125 30.609375 6.203125 
Q 37.796875 6.203125 41.984375 11.859375 
Q 46.1875 17.53125 46.1875 27.296875 
Q 46.1875 37.015625 41.984375 42.703125 
Q 37.796875 48.390625 30.609375 48.390625 
z
M 30.609375 56 
Q 42.328125 56 49.015625 48.375 
Q 55.71875 40.765625 55.71875 27.296875 
Q 55.71875 13.875 49.015625 6.21875 
Q 42.328125 -1.421875 30.609375 -1.421875 
Q 18.84375 -1.421875 12.171875 6.21875 
Q 5.515625 13.875 5.515625 27.296875 
Q 5.515625 40.765625 12.171875 48.375 
Q 18.84375 56 30.609375 56 
z
" id="DejaVuSans-111"/>
      <path d="M 8.5 21.578125 
L 8.5 54.6875 
L 17.484375 54.6875 
L 17.484375 21.921875 
Q 17.484375 14.15625 20.5 10.265625 
Q 23.53125 6.390625 29.59375 6.390625 
Q 36.859375 6.390625 41.078125 11.03125 
Q 45.3125 15.671875 45.3125 23.6875 
L 45.3125 54.6875 
L 54.296875 54.6875 
L 54.296875 0 
L 45.3125 0 
L 45.3125 8.40625 
Q 42.046875 3.421875 37.71875 1 
Q 33.40625 -1.421875 27.6875 -1.421875 
Q 18.265625 -1.421875 13.375 4.4375 
Q 8.5 10.296875 8.5 21.578125 
z
M 31.109375 56 
z
" id="DejaVuSans-117"/>
      <path d="M 41.109375 46.296875 
Q 39.59375 47.171875 37.8125 47.578125 
Q 36.03125 48 33.890625 48 
Q 26.265625 48 22.1875 43.046875 
Q 18.109375 38.09375 18.109375 28.8125 
L 18.109375 0 
L 9.078125 0 
L 9.078125 54.6875 
L 18.109375 54.6875 
L 18.109375 46.1875 
Q 20.953125 51.171875 25.484375 53.578125 
Q 30.03125 56 36.53125 56 
Q 37.453125 56 38.578125 55.875 
Q 39.703125 55.765625 41.0625 55.515625 
z
" id="DejaVuSans-114"/>
      <path d="M 48.78125 52.59375 
L 48.78125 44.1875 
Q 44.96875 46.296875 41.140625 47.34375 
Q 37.3125 48.390625 33.40625 48.390625 
Q 24.65625 48.390625 19.8125 42.84375 
Q 14.984375 37.3125 14.984375 27.296875 
Q 14.984375 17.28125 19.8125 11.734375 
Q 24.65625 6.203125 33.40625 6.203125 
Q 37.3125 6.203125 41.140625 7.25 
Q 44.96875 8.296875 48.78125 10.40625 
L 48.78125 2.09375 
Q 45.015625 0.34375 40.984375 -0.53125 
Q 36.96875 -1.421875 32.421875 -1.421875 
Q 20.0625 -1.421875 12.78125 6.34375 
Q 5.515625 14.109375 5.515625 27.296875 
Q 5.515625 40.671875 12.859375 48.328125 
Q 20.21875 56 33.015625 56 
Q 37.15625 56 41.109375 55.140625 
Q 45.0625 54.296875 48.78125 52.59375 
z
" id="DejaVuSans-99"/>
      <path d="M 56.203125 29.59375 
L 56.203125 25.203125 
L 14.890625 25.203125 
Q 15.484375 15.921875 20.484375 11.0625 
Q 25.484375 6.203125 34.421875 6.203125 
Q 39.59375 6.203125 44.453125 7.46875 
Q 49.3125 8.734375 54.109375 11.28125 
L 54.109375 2.78125 
Q 49.265625 0.734375 44.1875 -0.34375 
Q 39.109375 -1.421875 33.890625 -1.421875 
Q 20.796875 -1.421875 13.15625 6.1875 
Q 5.515625 13.8125 5.515625 26.8125 
Q 5.515625 40.234375 12.765625 48.109375 
Q 20.015625 56 32.328125 56 
Q 43.359375 56 49.78125 48.890625 
Q 56.203125 41.796875 56.203125 29.59375 
z
M 47.21875 32.234375 
Q 47.125 39.59375 43.09375 43.984375 
Q 39.0625 48.390625 32.421875 48.390625 
Q 24.90625 48.390625 20.390625 44.140625 
Q 15.875 39.890625 15.1875 32.171875 
z
" id="DejaVuSans-101"/>
      <path d="M 11.71875 12.40625 
L 22.015625 12.40625 
L 22.015625 0 
L 11.71875 0 
z
M 11.71875 51.703125 
L 22.015625 51.703125 
L 22.015625 39.3125 
L 11.71875 39.3125 
z
" id="DejaVuSans-58"/>
      <path d="M 9.421875 54.6875 
L 18.40625 54.6875 
L 18.40625 0 
L 9.421875 0 
z
M 9.421875 75.984375 
L 18.40625 75.984375 
L 18.40625 64.59375 
L 9.421875 64.59375 
z
" id="DejaVuSans-105"/>
      <path d="M 54.890625 33.015625 
L 54.890625 0 
L 45.90625 0 
L 45.90625 32.71875 
Q 45.90625 40.484375 42.875 44.328125 
Q 39.84375 48.1875 33.796875 48.1875 
Q 26.515625 48.1875 22.3125 43.546875 
Q 18.109375 38.921875 18.109375 30.90625 
L 18.109375 0 
L 9.078125 0 
L 9.078125 54.6875 
L 18.109375 54.6875 
L 18.109375 46.1875 
Q 21.34375 51.125 25.703125 53.5625 
Q 30.078125 56 35.796875 56 
Q 45.21875 56 50.046875 50.171875 
Q 54.890625 44.34375 54.890625 33.015625 
z
" id="DejaVuSans-110"/>
      <path d="M 45.40625 46.390625 
L 45.40625 75.984375 
L 54.390625 75.984375 
L 54.390625 0 
L 45.40625 0 
L 45.40625 8.203125 
Q 42.578125 3.328125 38.25 0.953125 
Q 33.9375 -1.421875 27.875 -1.421875 
Q 17.96875 -1.421875 11.734375 6.484375 
Q 5.515625 14.40625 5.515625 27.296875 
Q 5.515625 40.1875 11.734375 48.09375 
Q 17.96875 56 27.875 56 
Q 33.9375 56 38.25 53.625 
Q 42.578125 51.265625 45.40625 46.390625 
z
M 14.796875 27.296875 
Q 14.796875 17.390625 18.875 11.75 
Q 22.953125 6.109375 30.078125 6.109375 
Q 37.203125 6.109375 41.296875 11.75 
Q 45.40625 17.390625 45.40625 27.296875 
Q 45.40625 37.203125 41.296875 42.84375 
Q 37.203125 48.484375 30.078125 48.484375 
Q 22.953125 48.484375 18.875 42.84375 
Q 14.796875 37.203125 14.796875 27.296875 
z
" id="DejaVuSans-100"/>
      <path d="M 9.078125 75.984375 
L 18.109375 75.984375 
L 18.109375 31.109375 
L 44.921875 54.6875 
L 56.390625 54.6875 
L 27.390625 29.109375 
L 57.625 0 
L 45.90625 0 
L 18.109375 26.703125 
L 18.109375 0 
L 9.078125 0 
z
" id="DejaVuSans-107"/>
     </defs>
     <use xlink:href="#DejaVuSans-68"/>
     <use x="77.001953" xlink:href="#DejaVuSans-97"/>
     <use x="138.28125" xlink:href="#DejaVuSans-116"/>
     <use x="177.490234" xlink:href="#DejaVuSans-97"/>
     <use x="238.769531" xlink:href="#DejaVuSans-32"/>
     <use x="270.556641" xlink:href="#DejaVuSans-115"/>
     <use x="322.65625" xlink:href="#DejaVuSans-111"/>
     <use x="383.837891" xlink:href="#DejaVuSans-117"/>
     <use x="447.216797" xlink:href="#DejaVuSans-114"/>
     <use x="486.080078" xlink:href="#DejaVuSans-99"/>
     <use x="541.060547" xlink:href="#DejaVuSans-101"/>
     <use x="602.583984" xlink:href="#DejaVuSans-58"/>
     <use x="636.275391" xlink:href="#DejaVuSans-32"/>
     <use x="668.0625" xlink:href="#DejaVuSans-99"/>
     <use x="723.042969" xlink:href="#DejaVuSans-111"/>
     <use x="784.224609" xlink:href="#DejaVuSans-105"/>
     <use x="812.007812" xlink:href="#DejaVuSans-110"/>
     <use x="875.386719" xlink:href="#DejaVuSans-100"/>
     <use x="938.863281" xlink:href="#DejaVuSans-101"/>
     <use x="1000.386719" xlink:href="#DejaVuSans-115"/>
     <use x="1052.486328" xlink:href="#DejaVuSans-107"/>
    </g>
   </g>
   <g id="legend_1">
    <g id="patch_7">
     <path d="M 64.6 78.82825 
L 127.31875 78.82825 
Q 129.31875 78.82825 129.31875 76.82825 
L 129.31875 48.472 
Q 129.31875 46.472 127.31875 46.472 
L 64.6 46.472 
Q 62.6 46.472 62.6 48.472 
L 62.6 76.82825 
Q 62.6 78.82825 64.6 78.82825 
z
" style="fill:#ffffff;opacity:0.8;stroke:#cccccc;stroke-linejoin:miter;"/>
    </g>
    <g id="line2d_19">
     <path d="M 66.6 54.570437 
L 86.6 54.570437 
" style="fill:none;stroke:#0000ff;stroke-linecap:square;stroke-width:1.5;"/>
    </g>
    <g id="line2d_20"/>
    <g id="text_17">
     <!-- MACD -->
     <g transform="translate(94.6 58.070437)scale(0.1 -0.1)">
      <defs>
       <path d="M 9.8125 72.90625 
L 24.515625 72.90625 
L 43.109375 23.296875 
L 61.8125 72.90625 
L 76.515625 72.90625 
L 76.515625 0 
L 66.890625 0 
L 66.890625 64.015625 
L 48.09375 14.015625 
L 38.1875 14.015625 
L 19.390625 64.015625 
L 19.390625 0 
L 9.8125 0 
z
" id="DejaVuSans-77"/>
       <path d="M 34.1875 63.1875 
L 20.796875 26.90625 
L 47.609375 26.90625 
z
M 28.609375 72.90625 
L 39.796875 72.90625 
L 67.578125 0 
L 57.328125 0 
L 50.6875 18.703125 
L 17.828125 18.703125 
L 11.1875 0 
L 0.78125 0 
z
" id="DejaVuSans-65"/>
       <path d="M 64.40625 67.28125 
L 64.40625 56.890625 
Q 59.421875 61.53125 53.78125 63.8125 
Q 48.140625 66.109375 41.796875 66.109375 
Q 29.296875 66.109375 22.65625 58.46875 
Q 16.015625 50.828125 16.015625 36.375 
Q 16.015625 21.96875 22.65625 14.328125 
Q 29.296875 6.6875 41.796875 6.6875 
Q 48.140625 6.6875 53.78125 8.984375 
Q 59.421875 11.28125 64.40625 15.921875 
L 64.40625 5.609375 
Q 59.234375 2.09375 53.4375 0.328125 
Q 47.65625 -1.421875 41.21875 -1.421875 
Q 24.65625 -1.421875 15.125 8.703125 
Q 5.609375 18.84375 5.609375 36.375 
Q 5.609375 53.953125 15.125 64.078125 
Q 24.65625 74.21875 41.21875 74.21875 
Q 47.75 74.21875 53.53125 72.484375 
Q 59.328125 70.75 64.40625 67.28125 
z
" id="DejaVuSans-67"/>
      </defs>
      <use xlink:href="#DejaVuSans-77"/>
      <use x="86.279297" xlink:href="#DejaVuSans-65"/>
      <use x="152.9375" xlink:href="#DejaVuSans-67"/>
      <use x="222.761719" xlink:href="#DejaVuSans-68"/>
     </g>
    </g>
    <g id="line2d_21">
     <path d="M 66.6 69.248562 
L 86.6 69.248562 
" style="fill:none;stroke:#ff6347;stroke-linecap:square;stroke-width:1.5;"/>
    </g>
    <g id="line2d_22"/>
    <g id="text_18">
     <!-- Signal -->
     <g transform="translate(94.6 72.748562)scale(0.1 -0.1)">
      <defs>
       <path d="M 53.515625 70.515625 
L 53.515625 60.890625 
Q 47.90625 63.578125 42.921875 64.890625 
Q 37.9375 66.21875 33.296875 66.21875 
Q 25.25 66.21875 20.875 63.09375 
Q 16.5 59.96875 16.5 54.203125 
Q 16.5 49.359375 19.40625 46.890625 
Q 22.3125 44.4375 30.421875 42.921875 
L 36.375 41.703125 
Q 47.40625 39.59375 52.65625 34.296875 
Q 57.90625 29 57.90625 20.125 
Q 57.90625 9.515625 50.796875 4.046875 
Q 43.703125 -1.421875 29.984375 -1.421875 
Q 24.8125 -1.421875 18.96875 -0.25 
Q 13.140625 0.921875 6.890625 3.21875 
L 6.890625 13.375 
Q 12.890625 10.015625 18.65625 8.296875 
Q 24.421875 6.59375 29.984375 6.59375 
Q 38.421875 6.59375 43.015625 9.90625 
Q 47.609375 13.234375 47.609375 19.390625 
Q 47.609375 24.75 44.3125 27.78125 
Q 41.015625 30.8125 33.5 32.328125 
L 27.484375 33.5 
Q 16.453125 35.6875 11.515625 40.375 
Q 6.59375 45.0625 6.59375 53.421875 
Q 6.59375 63.09375 13.40625 68.65625 
Q 20.21875 74.21875 32.171875 74.21875 
Q 37.3125 74.21875 42.625 73.28125 
Q 47.953125 72.359375 53.515625 70.515625 
z
" id="DejaVuSans-83"/>
       <path d="M 45.40625 27.984375 
Q 45.40625 37.75 41.375 43.109375 
Q 37.359375 48.484375 30.078125 48.484375 
Q 22.859375 48.484375 18.828125 43.109375 
Q 14.796875 37.75 14.796875 27.984375 
Q 14.796875 18.265625 18.828125 12.890625 
Q 22.859375 7.515625 30.078125 7.515625 
Q 37.359375 7.515625 41.375 12.890625 
Q 45.40625 18.265625 45.40625 27.984375 
z
M 54.390625 6.78125 
Q 54.390625 -7.171875 48.1875 -13.984375 
Q 42 -20.796875 29.203125 -20.796875 
Q 24.46875 -20.796875 20.265625 -20.09375 
Q 16.0625 -19.390625 12.109375 -17.921875 
L 12.109375 -9.1875 
Q 16.0625 -11.328125 19.921875 -12.34375 
Q 23.78125 -13.375 27.78125 -13.375 
Q 36.625 -13.375 41.015625 -8.765625 
Q 45.40625 -4.15625 45.40625 5.171875 
L 45.40625 9.625 
Q 42.625 4.78125 38.28125 2.390625 
Q 33.9375 0 27.875 0 
Q 17.828125 0 11.671875 7.65625 
Q 5.515625 15.328125 5.515625 27.984375 
Q 5.515625 40.671875 11.671875 48.328125 
Q 17.828125 56 27.875 56 
Q 33.9375 56 38.28125 53.609375 
Q 42.625 51.21875 45.40625 46.390625 
L 45.40625 54.6875 
L 54.390625 54.6875 
z
" id="DejaVuSans-103"/>
       <path d="M 9.421875 75.984375 
L 18.40625 75.984375 
L 18.40625 0 
L 9.421875 0 
z
" id="DejaVuSans-108"/>
      </defs>
      <use xlink:href="#DejaVuSans-83"/>
      <use x="63.476562" xlink:href="#DejaVuSans-105"/>
      <use x="91.259766" xlink:href="#DejaVuSans-103"/>
      <use x="154.736328" xlink:href="#DejaVuSans-110"/>
      <use x="218.115234" xlink:href="#DejaVuSans-97"/>
      <use x="279.394531" xlink:href="#DejaVuSans-108"/>
     </g>
    </g>
   </g>
  </g>
  <g id="text_19">
   <!-- MACD -->
   <g transform="translate(206.41875 19.0695)scale(0.16 -0.16)">
    <use xlink:href="#DejaVuSans-77"/>
    <use x="86.279297" xlink:href="#DejaVuSans-65"/>
    <use x="152.9375" xlink:href="#DejaVuSans-67"/>
    <use x="222.761719" xlink:href="#DejaVuSans-68"/>
   </g>
  </g>
 </g>
 <defs>
  <clipPath id="pa785801338">
   <rect height="266.112" width="357.12" x="57.6" y="41.472"/>
  </clipPath>
 </defs>
</svg>
