<?xml version="1.0" encoding="utf-8" standalone="no"?>
<!DOCTYPE svg PUBLIC "-//W3C//DTD SVG 1.1//EN"
  "http://www.w3.org/Graphics/SVG/1.1/DTD/svg11.dtd">
<!-- Created with matplotlib (https://matplotlib.org/) -->
<svg height="345.6pt" version="1.1" viewBox="0 0 460.8 345.6" width="460.8pt" xmlns="http://www.w3.org/2000/svg" xmlns:xlink="http://www.w3.org/1999/xlink">
 <metadata>
  <rdf:RDF xmlns:cc="http://creativecommons.org/ns#" xmlns:dc="http://purl.org/dc/elements/1.1/" xmlns:rdf="http://www.w3.org/1999/02/22-rdf-syntax-ns#">
   <cc:Work>
    <dc:type rdf:resource="http://purl.org/dc/dcmitype/StillImage"/>
    <dc:date>2020-12-31T04:04:21.329935</dc:date>
    <dc:format>image/svg+xml</dc:format>
    <dc:creator>
     <cc:Agent>
      <dc:title>Matplotlib v3.3.2, https://matplotlib.org/</dc:title>
     </cc:Agent>
    </dc:creator>
   </cc:Work>
  </rdf:RDF>
 </metadata>
 <defs>
  <style type="text/css">*{stroke-linecap:butt;stroke-linejoin:round;}</style>
 </defs>
 <g id="figure_1">
  <g id="patch_1">
   <path d="M 0 345.6 
L 460.8 345.6 
L 460.8 0 
L 0 0 
z
" style="fill:#ffffff;"/>
  </g>
  <g id="axes_1">
   <g id="patch_2">
    <path d="M 57.6 307.584 
L 414.72 307.584 
L 414.72 41.472 
L 57.6 41.472 
z
" style="fill:#ffffff;"/>
   </g>
   <g id="matplotlib.axis_1">
    <g id="xtick_1">
     <g id="line2d_1">
      <defs>
       <path d="M 0 0 
L 0 3.5 
" id="md488cfbc02" style="stroke:#000000;stroke-width:0.8;"/>
      </defs>
      <g>
       <use style="stroke:#000000;stroke-width:0.8;" x="73.832727" xlink:href="#md488cfbc02" y="307.584"/>
      </g>
     </g>
     <g id="text_1">
      <!-- 2020-01 -->
      <g transform="translate(52.941321 322.182437)scale(0.1 -0.1)">
       <defs>
        <path d="M 19.1875 8.296875 
L 53.609375 8.296875 
L 53.609375 0 
L 7.328125 0 
L 7.328125 8.296875 
Q 12.9375 14.109375 22.625 23.890625 
Q 32.328125 33.6875 34.8125 36.53125 
Q 39.546875 41.84375 41.421875 45.53125 
Q 43.3125 49.21875 43.3125 52.78125 
Q 43.3125 58.59375 39.234375 62.25 
Q 35.15625 65.921875 28.609375 65.921875 
Q 23.96875 65.921875 18.8125 64.3125 
Q 13.671875 62.703125 7.8125 59.421875 
L 7.8125 69.390625 
Q 13.765625 71.78125 18.9375 73 
Q 24.125 74.21875 28.421875 74.21875 
Q 39.75 74.21875 46.484375 68.546875 
Q 53.21875 62.890625 53.21875 53.421875 
Q 53.21875 48.921875 51.53125 44.890625 
Q 49.859375 40.875 45.40625 35.40625 
Q 44.1875 33.984375 37.640625 27.21875 
Q 31.109375 20.453125 19.1875 8.296875 
z
" id="DejaVuSans-50"/>
        <path d="M 31.78125 66.40625 
Q 24.171875 66.40625 20.328125 58.90625 
Q 16.5 51.421875 16.5 36.375 
Q 16.5 21.390625 20.328125 13.890625 
Q 24.171875 6.390625 31.78125 6.390625 
Q 39.453125 6.390625 43.28125 13.890625 
Q 47.125 21.390625 47.125 36.375 
Q 47.125 51.421875 43.28125 58.90625 
Q 39.453125 66.40625 31.78125 66.40625 
z
M 31.78125 74.21875 
Q 44.046875 74.21875 50.515625 64.515625 
Q 56.984375 54.828125 56.984375 36.375 
Q 56.984375 17.96875 50.515625 8.265625 
Q 44.046875 -1.421875 31.78125 -1.421875 
Q 19.53125 -1.421875 13.0625 8.265625 
Q 6.59375 17.96875 6.59375 36.375 
Q 6.59375 54.828125 13.0625 64.515625 
Q 19.53125 74.21875 31.78125 74.21875 
z
" id="DejaVuSans-48"/>
        <path d="M 4.890625 31.390625 
L 31.203125 31.390625 
L 31.203125 23.390625 
L 4.890625 23.390625 
z
" id="DejaVuSans-45"/>
        <path d="M 12.40625 8.296875 
L 28.515625 8.296875 
L 28.515625 63.921875 
L 10.984375 60.40625 
L 10.984375 69.390625 
L 28.421875 72.90625 
L 38.28125 72.90625 
L 38.28125 8.296875 
L 54.390625 8.296875 
L 54.390625 0 
L 12.40625 0 
z
" id="DejaVuSans-49"/>
       </defs>
       <use xlink:href="#DejaVuSans-50"/>
       <use x="63.623047" xlink:href="#DejaVuSans-48"/>
       <use x="127.246094" xlink:href="#DejaVuSans-50"/>
       <use x="190.869141" xlink:href="#DejaVuSans-48"/>
       <use x="254.492188" xlink:href="#DejaVuSans-45"/>
       <use x="290.576172" xlink:href="#DejaVuSans-48"/>
       <use x="354.199219" xlink:href="#DejaVuSans-49"/>
      </g>
     </g>
    </g>
    <g id="xtick_2">
     <g id="line2d_2">
      <g>
       <use style="stroke:#000000;stroke-width:0.8;" x="127.347213" xlink:href="#md488cfbc02" y="307.584"/>
      </g>
     </g>
     <g id="text_2">
      <!-- 2020-03 -->
      <g transform="translate(106.455807 322.182437)scale(0.1 -0.1)">
       <defs>
        <path d="M 40.578125 39.3125 
Q 47.65625 37.796875 51.625 33 
Q 55.609375 28.21875 55.609375 21.1875 
Q 55.609375 10.40625 48.1875 4.484375 
Q 40.765625 -1.421875 27.09375 -1.421875 
Q 22.515625 -1.421875 17.65625 -0.515625 
Q 12.796875 0.390625 7.625 2.203125 
L 7.625 11.71875 
Q 11.71875 9.328125 16.59375 8.109375 
Q 21.484375 6.890625 26.8125 6.890625 
Q 36.078125 6.890625 40.9375 10.546875 
Q 45.796875 14.203125 45.796875 21.1875 
Q 45.796875 27.640625 41.28125 31.265625 
Q 36.765625 34.90625 28.71875 34.90625 
L 20.21875 34.90625 
L 20.21875 43.015625 
L 29.109375 43.015625 
Q 36.375 43.015625 40.234375 45.921875 
Q 44.09375 48.828125 44.09375 54.296875 
Q 44.09375 59.90625 40.109375 62.90625 
Q 36.140625 65.921875 28.71875 65.921875 
Q 24.65625 65.921875 20.015625 65.03125 
Q 15.375 64.15625 9.8125 62.3125 
L 9.8125 71.09375 
Q 15.4375 72.65625 20.34375 73.4375 
Q 25.25 74.21875 29.59375 74.21875 
Q 40.828125 74.21875 47.359375 69.109375 
Q 53.90625 64.015625 53.90625 55.328125 
Q 53.90625 49.265625 50.4375 45.09375 
Q 46.96875 40.921875 40.578125 39.3125 
z
" id="DejaVuSans-51"/>
       </defs>
       <use xlink:href="#DejaVuSans-50"/>
       <use x="63.623047" xlink:href="#DejaVuSans-48"/>
       <use x="127.246094" xlink:href="#DejaVuSans-50"/>
       <use x="190.869141" xlink:href="#DejaVuSans-48"/>
       <use x="254.492188" xlink:href="#DejaVuSans-45"/>
       <use x="290.576172" xlink:href="#DejaVuSans-48"/>
       <use x="354.199219" xlink:href="#DejaVuSans-51"/>
      </g>
     </g>
    </g>
    <g id="xtick_3">
     <g id="line2d_3">
      <g>
       <use style="stroke:#000000;stroke-width:0.8;" x="181.753606" xlink:href="#md488cfbc02" y="307.584"/>
      </g>
     </g>
     <g id="text_3">
      <!-- 2020-05 -->
      <g transform="translate(160.8622 322.182437)scale(0.1 -0.1)">
       <defs>
        <path d="M 10.796875 72.90625 
L 49.515625 72.90625 
L 49.515625 64.59375 
L 19.828125 64.59375 
L 19.828125 46.734375 
Q 21.96875 47.46875 24.109375 47.828125 
Q 26.265625 48.1875 28.421875 48.1875 
Q 40.625 48.1875 47.75 41.5 
Q 54.890625 34.8125 54.890625 23.390625 
Q 54.890625 11.625 47.5625 5.09375 
Q 40.234375 -1.421875 26.90625 -1.421875 
Q 22.3125 -1.421875 17.546875 -0.640625 
Q 12.796875 0.140625 7.71875 1.703125 
L 7.71875 11.625 
Q 12.109375 9.234375 16.796875 8.0625 
Q 21.484375 6.890625 26.703125 6.890625 
Q 35.15625 6.890625 40.078125 11.328125 
Q 45.015625 15.765625 45.015625 23.390625 
Q 45.015625 31 40.078125 35.4375 
Q 35.15625 39.890625 26.703125 39.890625 
Q 22.75 39.890625 18.8125 39.015625 
Q 14.890625 38.140625 10.796875 36.28125 
z
" id="DejaVuSans-53"/>
       </defs>
       <use xlink:href="#DejaVuSans-50"/>
       <use x="63.623047" xlink:href="#DejaVuSans-48"/>
       <use x="127.246094" xlink:href="#DejaVuSans-50"/>
       <use x="190.869141" xlink:href="#DejaVuSans-48"/>
       <use x="254.492188" xlink:href="#DejaVuSans-45"/>
       <use x="290.576172" xlink:href="#DejaVuSans-48"/>
       <use x="354.199219" xlink:href="#DejaVuSans-53"/>
      </g>
     </g>
    </g>
    <g id="xtick_4">
     <g id="line2d_4">
      <g>
       <use style="stroke:#000000;stroke-width:0.8;" x="236.16" xlink:href="#md488cfbc02" y="307.584"/>
      </g>
     </g>
     <g id="text_4">
      <!-- 2020-07 -->
      <g transform="translate(215.268594 322.182437)scale(0.1 -0.1)">
       <defs>
        <path d="M 8.203125 72.90625 
L 55.078125 72.90625 
L 55.078125 68.703125 
L 28.609375 0 
L 18.3125 0 
L 43.21875 64.59375 
L 8.203125 64.59375 
z
" id="DejaVuSans-55"/>
       </defs>
       <use xlink:href="#DejaVuSans-50"/>
       <use x="63.623047" xlink:href="#DejaVuSans-48"/>
       <use x="127.246094" xlink:href="#DejaVuSans-50"/>
       <use x="190.869141" xlink:href="#DejaVuSans-48"/>
       <use x="254.492188" xlink:href="#DejaVuSans-45"/>
       <use x="290.576172" xlink:href="#DejaVuSans-48"/>
       <use x="354.199219" xlink:href="#DejaVuSans-55"/>
      </g>
     </g>
    </g>
    <g id="xtick_5">
     <g id="line2d_5">
      <g>
       <use style="stroke:#000000;stroke-width:0.8;" x="291.458302" xlink:href="#md488cfbc02" y="307.584"/>
      </g>
     </g>
     <g id="text_5">
      <!-- 2020-09 -->
      <g transform="translate(270.566895 322.182437)scale(0.1 -0.1)">
       <defs>
        <path d="M 10.984375 1.515625 
L 10.984375 10.5 
Q 14.703125 8.734375 18.5 7.8125 
Q 22.3125 6.890625 25.984375 6.890625 
Q 35.75 6.890625 40.890625 13.453125 
Q 46.046875 20.015625 46.78125 33.40625 
Q 43.953125 29.203125 39.59375 26.953125 
Q 35.25 24.703125 29.984375 24.703125 
Q 19.046875 24.703125 12.671875 31.3125 
Q 6.296875 37.9375 6.296875 49.421875 
Q 6.296875 60.640625 12.9375 67.421875 
Q 19.578125 74.21875 30.609375 74.21875 
Q 43.265625 74.21875 49.921875 64.515625 
Q 56.59375 54.828125 56.59375 36.375 
Q 56.59375 19.140625 48.40625 8.859375 
Q 40.234375 -1.421875 26.421875 -1.421875 
Q 22.703125 -1.421875 18.890625 -0.6875 
Q 15.09375 0.046875 10.984375 1.515625 
z
M 30.609375 32.421875 
Q 37.25 32.421875 41.125 36.953125 
Q 45.015625 41.5 45.015625 49.421875 
Q 45.015625 57.28125 41.125 61.84375 
Q 37.25 66.40625 30.609375 66.40625 
Q 23.96875 66.40625 20.09375 61.84375 
Q 16.21875 57.28125 16.21875 49.421875 
Q 16.21875 41.5 20.09375 36.953125 
Q 23.96875 32.421875 30.609375 32.421875 
z
" id="DejaVuSans-57"/>
       </defs>
       <use xlink:href="#DejaVuSans-50"/>
       <use x="63.623047" xlink:href="#DejaVuSans-48"/>
       <use x="127.246094" xlink:href="#DejaVuSans-50"/>
       <use x="190.869141" xlink:href="#DejaVuSans-48"/>
       <use x="254.492188" xlink:href="#DejaVuSans-45"/>
       <use x="290.576172" xlink:href="#DejaVuSans-48"/>
       <use x="354.199219" xlink:href="#DejaVuSans-57"/>
      </g>
     </g>
    </g>
    <g id="xtick_6">
     <g id="line2d_6">
      <g>
       <use style="stroke:#000000;stroke-width:0.8;" x="345.864695" xlink:href="#md488cfbc02" y="307.584"/>
      </g>
     </g>
     <g id="text_6">
      <!-- 2020-11 -->
      <g transform="translate(324.973289 322.182437)scale(0.1 -0.1)">
       <use xlink:href="#DejaVuSans-50"/>
       <use x="63.623047" xlink:href="#DejaVuSans-48"/>
       <use x="127.246094" xlink:href="#DejaVuSans-50"/>
       <use x="190.869141" xlink:href="#DejaVuSans-48"/>
       <use x="254.492188" xlink:href="#DejaVuSans-45"/>
       <use x="290.576172" xlink:href="#DejaVuSans-49"/>
       <use x="354.199219" xlink:href="#DejaVuSans-49"/>
      </g>
     </g>
    </g>
    <g id="xtick_7">
     <g id="line2d_7">
      <g>
       <use style="stroke:#000000;stroke-width:0.8;" x="400.271089" xlink:href="#md488cfbc02" y="307.584"/>
      </g>
     </g>
     <g id="text_7">
      <!-- 2021-01 -->
      <g transform="translate(379.379683 322.182437)scale(0.1 -0.1)">
       <use xlink:href="#DejaVuSans-50"/>
       <use x="63.623047" xlink:href="#DejaVuSans-48"/>
       <use x="127.246094" xlink:href="#DejaVuSans-50"/>
       <use x="190.869141" xlink:href="#DejaVuSans-49"/>
       <use x="254.492188" xlink:href="#DejaVuSans-45"/>
       <use x="290.576172" xlink:href="#DejaVuSans-48"/>
       <use x="354.199219" xlink:href="#DejaVuSans-49"/>
      </g>
     </g>
    </g>
   </g>
   <g id="matplotlib.axis_2">
    <g id="ytick_1">
     <g id="line2d_8">
      <defs>
       <path d="M 0 0 
L -3.5 0 
" id="m6fdae753d9" style="stroke:#000000;stroke-width:0.8;"/>
      </defs>
      <g>
       <use style="stroke:#000000;stroke-width:0.8;" x="57.6" xlink:href="#m6fdae753d9" y="289.777004"/>
      </g>
     </g>
     <g id="text_8">
      <!-- −1000 -->
      <g transform="translate(16.770313 293.576223)scale(0.1 -0.1)">
       <defs>
        <path d="M 10.59375 35.5 
L 73.1875 35.5 
L 73.1875 27.203125 
L 10.59375 27.203125 
z
" id="DejaVuSans-8722"/>
       </defs>
       <use xlink:href="#DejaVuSans-8722"/>
       <use x="83.789062" xlink:href="#DejaVuSans-49"/>
       <use x="147.412109" xlink:href="#DejaVuSans-48"/>
       <use x="211.035156" xlink:href="#DejaVuSans-48"/>
       <use x="274.658203" xlink:href="#DejaVuSans-48"/>
      </g>
     </g>
    </g>
    <g id="ytick_2">
     <g id="line2d_9">
      <g>
       <use style="stroke:#000000;stroke-width:0.8;" x="57.6" xlink:href="#m6fdae753d9" y="254.073463"/>
      </g>
     </g>
     <g id="text_9">
      <!-- −500 -->
      <g transform="translate(23.132812 257.872682)scale(0.1 -0.1)">
       <use xlink:href="#DejaVuSans-8722"/>
       <use x="83.789062" xlink:href="#DejaVuSans-53"/>
       <use x="147.412109" xlink:href="#DejaVuSans-48"/>
       <use x="211.035156" xlink:href="#DejaVuSans-48"/>
      </g>
     </g>
    </g>
    <g id="ytick_3">
     <g id="line2d_10">
      <g>
       <use style="stroke:#000000;stroke-width:0.8;" x="57.6" xlink:href="#m6fdae753d9" y="218.369923"/>
      </g>
     </g>
     <g id="text_10">
      <!-- 0 -->
      <g transform="translate(44.2375 222.169141)scale(0.1 -0.1)">
       <use xlink:href="#DejaVuSans-48"/>
      </g>
     </g>
    </g>
    <g id="ytick_4">
     <g id="line2d_11">
      <g>
       <use style="stroke:#000000;stroke-width:0.8;" x="57.6" xlink:href="#m6fdae753d9" y="182.666382"/>
      </g>
     </g>
     <g id="text_11">
      <!-- 500 -->
      <g transform="translate(31.5125 186.465601)scale(0.1 -0.1)">
       <use xlink:href="#DejaVuSans-53"/>
       <use x="63.623047" xlink:href="#DejaVuSans-48"/>
       <use x="127.246094" xlink:href="#DejaVuSans-48"/>
      </g>
     </g>
    </g>
    <g id="ytick_5">
     <g id="line2d_12">
      <g>
       <use style="stroke:#000000;stroke-width:0.8;" x="57.6" xlink:href="#m6fdae753d9" y="146.962842"/>
      </g>
     </g>
     <g id="text_12">
      <!-- 1000 -->
      <g transform="translate(25.15 150.76206)scale(0.1 -0.1)">
       <use xlink:href="#DejaVuSans-49"/>
       <use x="63.623047" xlink:href="#DejaVuSans-48"/>
       <use x="127.246094" xlink:href="#DejaVuSans-48"/>
       <use x="190.869141" xlink:href="#DejaVuSans-48"/>
      </g>
     </g>
    </g>
    <g id="ytick_6">
     <g id="line2d_13">
      <g>
       <use style="stroke:#000000;stroke-width:0.8;" x="57.6" xlink:href="#m6fdae753d9" y="111.259301"/>
      </g>
     </g>
     <g id="text_13">
      <!-- 1500 -->
      <g transform="translate(25.15 115.05852)scale(0.1 -0.1)">
       <use xlink:href="#DejaVuSans-49"/>
       <use x="63.623047" xlink:href="#DejaVuSans-53"/>
       <use x="127.246094" xlink:href="#DejaVuSans-48"/>
       <use x="190.869141" xlink:href="#DejaVuSans-48"/>
      </g>
     </g>
    </g>
    <g id="ytick_7">
     <g id="line2d_14">
      <g>
       <use style="stroke:#000000;stroke-width:0.8;" x="57.6" xlink:href="#m6fdae753d9" y="75.555761"/>
      </g>
     </g>
     <g id="text_14">
      <!-- 2000 -->
      <g transform="translate(25.15 79.354979)scale(0.1 -0.1)">
       <use xlink:href="#DejaVuSans-50"/>
       <use x="63.623047" xlink:href="#DejaVuSans-48"/>
       <use x="127.246094" xlink:href="#DejaVuSans-48"/>
       <use x="190.869141" xlink:href="#DejaVuSans-48"/>
      </g>
     </g>
    </g>
   </g>
   <g id="line2d_15">
    <path clip-path="url(#p43118ccc5d)" d="M 73.832727 218.369923 
L 398.487273 218.369923 
L 398.487273 218.369923 
" style="fill:none;stroke:#1f77b4;stroke-dasharray:5.55,2.4;stroke-dashoffset:0;stroke-width:1.5;"/>
   </g>
   <g id="line2d_16">
    <path clip-path="url(#p43118ccc5d)" d="M 73.832727 218.369923 
L 74.724635 219.662383 
L 75.616543 218.467126 
L 76.508452 217.476731 
L 77.40036 216.708357 
L 78.292268 213.815369 
L 79.184176 209.345315 
L 80.076084 206.600418 
L 80.967992 205.871061 
L 81.8599 203.321097 
L 82.751808 202.479297 
L 83.643716 201.075456 
L 84.535624 200.590805 
L 85.427532 196.415201 
L 86.319441 193.387874 
L 87.211349 191.822362 
L 88.103257 189.910981 
L 88.995165 188.675575 
L 89.887073 189.20012 
L 90.778981 190.326774 
L 91.670889 190.980422 
L 92.562797 192.184005 
L 93.454705 194.956932 
L 94.346613 197.143665 
L 95.238521 199.664957 
L 96.13043 200.340328 
L 97.022338 199.373077 
L 97.914246 196.030502 
L 98.806154 194.25191 
L 99.698062 191.889975 
L 100.58997 191.267391 
L 101.481878 190.846219 
L 102.373786 191.14651 
L 103.265694 191.928055 
L 104.157602 193.504224 
L 105.04951 192.52713 
L 105.941419 191.274896 
L 107.725235 189.298973 
L 108.617143 187.366312 
L 109.509051 187.963112 
L 110.400959 186.422464 
L 111.292867 185.113226 
L 112.184775 185.137905 
L 113.076683 184.814355 
L 113.968591 187.527868 
L 114.8605 189.873286 
L 115.752408 193.28948 
L 116.644316 193.518741 
L 117.536224 197.356029 
L 118.428132 200.523147 
L 120.211948 204.751175 
L 121.103856 204.769528 
L 121.995764 206.697 
L 122.887672 210.337918 
L 123.77958 216.265739 
L 125.563397 224.870033 
L 126.455305 229.007581 
L 127.347213 232.117437 
L 128.239121 232.198526 
L 129.131029 233.00489 
L 130.022937 233.471547 
L 130.914845 231.925482 
L 131.806753 230.036342 
L 132.698661 229.899774 
L 134.482478 238.586565 
L 135.374386 241.787253 
L 136.266294 243.732167 
L 137.158202 262.267052 
L 138.942018 281.939126 
L 140.725834 293.442868 
L 141.617742 295.319307 
L 142.50965 295.488 
L 145.185375 280.75829 
L 146.077283 278.672712 
L 146.969191 272.425217 
L 147.861099 265.35456 
L 149.644915 254.725023 
L 150.536823 250.453449 
L 151.428731 249.430854 
L 152.320639 250.238295 
L 153.212547 246.59553 
L 154.104456 244.096886 
L 156.78018 233.902541 
L 157.672088 230.811192 
L 158.563996 228.784603 
L 160.347812 220.04487 
L 161.23972 216.941746 
L 162.131628 214.676042 
L 163.023536 215.250012 
L 163.915445 216.281531 
L 164.807353 215.237143 
L 165.699261 216.621376 
L 166.591169 217.030667 
L 167.483077 218.266329 
L 169.266893 216.490717 
L 170.158801 215.032288 
L 171.050709 214.246444 
L 172.834525 216.279982 
L 173.726434 215.517292 
L 174.618342 212.564936 
L 176.402158 208.649754 
L 178.185974 205.763858 
L 179.077882 204.507186 
L 179.96979 200.551621 
L 180.861698 194.993712 
L 181.753606 190.730047 
L 182.645514 187.021724 
L 183.537423 184.886198 
L 185.321239 182.593619 
L 187.105055 177.951631 
L 187.996963 173.20926 
L 188.888871 171.408827 
L 189.780779 177.79825 
L 190.672687 181.035825 
L 191.564595 184.721917 
L 192.456503 185.889977 
L 193.348412 184.421779 
L 194.24032 183.994364 
L 195.132228 184.384729 
L 196.024136 183.311588 
L 196.916044 183.659698 
L 197.807952 183.455319 
L 198.69986 183.793022 
L 199.591768 186.941235 
L 200.483676 190.662257 
L 201.375584 193.841898 
L 202.267493 196.519751 
L 203.159401 201.297909 
L 204.051309 204.696537 
L 204.943217 207.218895 
L 205.835125 207.699305 
L 206.727033 206.827823 
L 207.618941 205.692987 
L 208.510849 204.980607 
L 209.402757 204.462272 
L 210.294665 200.958946 
L 211.186573 201.500265 
L 212.078482 202.486311 
L 212.97039 201.689651 
L 213.862298 202.150206 
L 214.754206 203.027404 
L 215.646114 203.269669 
L 216.538022 203.981342 
L 217.42993 204.349209 
L 218.321838 204.418687 
L 220.105654 208.449837 
L 220.997562 210.178705 
L 221.889471 213.248 
L 223.673287 214.19465 
L 224.565195 214.787742 
L 225.457103 216.267874 
L 226.349011 217.247236 
L 227.240919 217.872853 
L 228.132827 217.595259 
L 229.024735 216.721187 
L 229.916643 216.518925 
L 230.808551 217.726864 
L 231.70046 219.515527 
L 232.592368 220.694421 
L 233.484276 222.575971 
L 234.376184 223.406071 
L 235.268092 223.724281 
L 236.16 223.858088 
L 237.051908 223.638777 
L 238.835724 224.292784 
L 239.727632 224.497142 
L 240.61954 223.858656 
L 242.403357 222.090759 
L 243.295265 220.673582 
L 244.187173 221.013113 
L 245.970989 220.049395 
L 246.862897 219.596518 
L 247.754805 219.753237 
L 248.646713 219.793494 
L 249.538621 220.365922 
L 250.430529 220.75808 
L 251.322438 220.935364 
L 252.214346 220.954725 
L 253.998162 220.484136 
L 254.89007 219.374816 
L 256.673886 216.056944 
L 257.565794 214.536677 
L 258.457702 212.760796 
L 259.34961 208.081546 
L 260.241518 200.631827 
L 261.133427 195.013312 
L 262.025335 190.473077 
L 262.917243 187.393322 
L 263.809151 183.461293 
L 264.701059 181.079665 
L 266.484875 179.696909 
L 267.376783 179.894381 
L 268.268691 177.198995 
L 269.160599 175.382971 
L 270.052507 175.924041 
L 270.944416 176.273718 
L 271.836324 175.068855 
L 272.728232 175.63102 
L 273.62014 179.35249 
L 274.512048 181.442057 
L 275.403956 182.392625 
L 276.295864 182.771951 
L 277.187772 183.402458 
L 278.07968 184.590174 
L 278.971588 183.222722 
L 279.863497 184.881677 
L 280.755405 187.044982 
L 281.647313 190.525252 
L 283.431129 195.67292 
L 284.323037 197.233189 
L 285.214945 200.777276 
L 286.106853 203.298214 
L 286.998761 206.337684 
L 287.890669 207.830226 
L 288.782577 208.932761 
L 290.566394 209.206922 
L 291.458302 207.770459 
L 292.35021 207.72569 
L 293.242118 210.619121 
L 294.134026 218.729284 
L 296.80975 234.727243 
L 297.701658 237.086613 
L 298.593566 240.340048 
L 299.485475 240.881267 
L 300.377383 240.823621 
L 301.269291 240.204574 
L 302.161199 240.173073 
L 303.053107 237.80808 
L 303.945015 234.883717 
L 304.836923 231.243009 
L 305.728831 228.792295 
L 306.620739 226.771561 
L 307.512647 224.437842 
L 308.404555 223.656577 
L 309.296464 224.845247 
L 310.188372 225.674486 
L 311.08028 227.785376 
L 311.972188 226.979774 
L 313.756004 224.952209 
L 314.647912 224.048541 
L 315.53982 222.645131 
L 316.431728 222.05956 
L 317.323636 221.688065 
L 318.215544 222.014146 
L 319.999361 223.020117 
L 320.891269 222.721706 
L 321.783177 221.892648 
L 322.675085 222.152973 
L 323.566993 221.994096 
L 324.458901 220.393762 
L 325.350809 218.171653 
L 328.026533 209.154725 
L 328.918442 207.479306 
L 330.702258 205.059616 
L 331.594166 205.293468 
L 332.486074 205.372838 
L 333.377982 204.745478 
L 334.26989 203.033112 
L 335.161798 200.92966 
L 336.945614 188.586417 
L 338.729431 180.846735 
L 339.621339 178.813133 
L 340.513247 177.506506 
L 341.405155 173.696282 
L 342.297063 173.28397 
L 344.080879 171.674856 
L 344.972787 170.303923 
L 345.864695 169.972024 
L 346.756603 171.378562 
L 348.54042 169.407249 
L 349.432328 161.033938 
L 350.324236 155.152981 
L 351.216144 155.509883 
L 352.108052 152.828763 
L 352.99996 152.355725 
L 353.891868 152.859462 
L 354.783776 151.761492 
L 355.675684 148.273961 
L 356.567592 146.173383 
L 357.4595 146.80083 
L 358.351409 148.720193 
L 359.243317 146.732034 
L 360.135225 140.54663 
L 361.027133 135.966884 
L 361.919041 133.148014 
L 362.810949 127.009855 
L 363.702857 123.116122 
L 364.594765 122.711774 
L 365.486673 123.723184 
L 366.378581 121.153642 
L 367.27049 122.741735 
L 369.054306 143.672622 
L 369.946214 148.903137 
L 370.838122 151.180557 
L 371.73003 145.120322 
L 372.621938 146.407172 
L 373.513846 145.780242 
L 374.405754 144.840056 
L 375.297662 149.457675 
L 376.18957 151.00977 
L 377.081479 151.690201 
L 377.973387 154.129934 
L 378.865295 161.688492 
L 379.757203 166.93845 
L 381.541019 180.09153 
L 382.432927 181.427581 
L 384.216743 180.234431 
L 385.108651 179.214092 
L 386.000559 168.007766 
L 386.892468 151.471353 
L 388.676284 123.386656 
L 389.568192 115.594896 
L 390.4601 114.881118 
L 391.352008 109.24056 
L 392.243916 109.41605 
L 393.135824 107.943419 
L 394.027732 102.476223 
L 394.91964 89.612534 
L 395.811548 82.12747 
L 396.703457 73.295205 
L 397.595365 66.250733 
L 398.487273 53.738043 
L 398.487273 53.738043 
" style="fill:none;stroke:#0000ff;stroke-linecap:square;stroke-width:1.5;"/>
   </g>
   <g id="line2d_17">
    <path clip-path="url(#p43118ccc5d)" d="M 73.832727 218.369923 
L 74.724635 218.628415 
L 75.616543 218.596157 
L 77.40036 218.039489 
L 78.292268 217.194665 
L 79.184176 215.624795 
L 81.8599 210.448338 
L 83.643716 207.298715 
L 84.535624 205.957133 
L 86.319441 201.916572 
L 88.995165 196.055419 
L 89.887073 194.684359 
L 90.778981 193.812842 
L 91.670889 193.246358 
L 92.562797 193.033887 
L 93.454705 193.418496 
L 94.346613 194.16353 
L 96.13043 196.279118 
L 97.022338 196.89791 
L 97.914246 196.724428 
L 98.806154 196.229925 
L 100.58997 194.543026 
L 101.481878 193.803665 
L 102.373786 193.272234 
L 103.265694 193.003398 
L 104.157602 193.103563 
L 105.04951 192.988277 
L 105.941419 192.6456 
L 107.725235 191.596484 
L 108.617143 190.75045 
L 109.509051 190.192982 
L 113.076683 187.272134 
L 113.968591 187.323281 
L 114.8605 187.833282 
L 116.644316 189.843366 
L 117.536224 191.345898 
L 121.103856 198.569209 
L 121.995764 200.194767 
L 122.887672 202.223398 
L 124.671489 208.182147 
L 128.239121 221.189564 
L 129.131029 223.552629 
L 130.022937 225.536413 
L 130.914845 226.814227 
L 131.806753 227.45865 
L 132.698661 227.946875 
L 133.590569 229.264712 
L 134.482478 231.129082 
L 136.266294 235.355007 
L 137.158202 240.737416 
L 138.942018 254.013817 
L 140.725834 267.309031 
L 141.617742 272.911086 
L 142.50965 277.426469 
L 143.401558 280.013752 
L 144.293467 281.086401 
L 145.185375 281.020779 
L 146.077283 280.551165 
L 146.969191 278.925976 
L 147.861099 276.211693 
L 149.644915 269.277268 
L 150.536823 265.512504 
L 151.428731 262.296174 
L 153.212547 257.226785 
L 154.996364 251.796943 
L 160.347812 233.465696 
L 162.131628 227.063933 
L 163.023536 224.701149 
L 164.807353 221.461209 
L 165.699261 220.493242 
L 166.591169 219.800727 
L 167.483077 219.493848 
L 169.266893 218.552351 
L 171.050709 217.127959 
L 171.942617 216.750461 
L 172.834525 216.656365 
L 173.726434 216.42855 
L 174.618342 215.655827 
L 175.51025 214.649837 
L 178.185974 210.910944 
L 179.077882 209.630193 
L 179.96979 207.814478 
L 180.861698 205.250325 
L 184.429331 193.860899 
L 187.105055 187.043454 
L 188.888871 181.703058 
L 189.780779 180.922096 
L 190.672687 180.944842 
L 192.456503 182.538201 
L 193.348412 182.914917 
L 195.132228 183.381591 
L 197.807952 183.431873 
L 198.69986 183.504103 
L 199.591768 184.191529 
L 200.483676 185.485675 
L 202.267493 189.029486 
L 204.051309 194.125844 
L 204.943217 196.744454 
L 205.835125 198.935424 
L 206.727033 200.513904 
L 207.618941 201.549721 
L 208.510849 202.235898 
L 209.402757 202.681173 
L 210.294665 202.336727 
L 211.186573 202.169435 
L 212.078482 202.23281 
L 212.97039 202.124178 
L 213.862298 202.129384 
L 215.646114 202.501124 
L 218.321838 203.369798 
L 219.213746 203.988589 
L 220.105654 204.880838 
L 220.997562 205.940412 
L 222.781379 208.661047 
L 226.349011 212.946235 
L 227.240919 213.931559 
L 228.132827 214.664299 
L 229.024735 215.075676 
L 229.916643 215.364326 
L 230.808551 215.836834 
L 232.592368 217.396942 
L 234.376184 219.427412 
L 236.16 221.001046 
L 238.835724 222.477586 
L 239.727632 222.881497 
L 240.61954 223.076929 
L 241.511449 223.04994 
L 242.403357 222.858104 
L 243.295265 222.4212 
L 245.079081 221.809564 
L 247.754805 220.81891 
L 248.646713 220.613827 
L 250.430529 220.603013 
L 253.106254 220.735972 
L 253.998162 220.685605 
L 254.89007 220.423447 
L 255.781978 219.861681 
L 256.673886 219.100734 
L 257.565794 218.187922 
L 258.457702 217.102497 
L 259.34961 215.298307 
L 260.241518 212.365011 
L 262.917243 201.646946 
L 264.701059 194.623785 
L 265.592967 191.782654 
L 266.484875 189.365505 
L 268.268691 185.416823 
L 269.160599 183.410053 
L 270.052507 181.91285 
L 271.836324 179.64179 
L 272.728232 178.839636 
L 273.62014 178.942207 
L 275.403956 180.032266 
L 277.187772 181.144654 
L 278.07968 181.833758 
L 278.971588 182.111551 
L 279.863497 182.665576 
L 280.755405 183.541457 
L 281.647313 184.938216 
L 283.431129 188.382746 
L 284.323037 190.152835 
L 286.106853 194.481821 
L 287.890669 199.04844 
L 288.782577 201.025304 
L 289.674486 202.639338 
L 290.566394 203.952855 
L 291.458302 204.716376 
L 292.35021 205.318239 
L 293.242118 206.378415 
L 294.134026 208.848589 
L 295.025934 211.927373 
L 298.593566 226.442242 
L 299.485475 229.330047 
L 300.377383 231.628762 
L 301.269291 233.343924 
L 302.161199 234.709754 
L 303.053107 235.329419 
L 303.945015 235.240279 
L 304.836923 234.440825 
L 306.620739 232.003207 
L 308.404555 229.123423 
L 309.296464 228.267788 
L 310.188372 227.749127 
L 311.08028 227.756377 
L 311.972188 227.601056 
L 312.864096 227.267015 
L 314.647912 226.252951 
L 317.323636 224.207231 
L 318.215544 223.768614 
L 319.107453 223.528034 
L 320.891269 223.285502 
L 322.675085 222.836139 
L 323.566993 222.667731 
L 324.458901 222.212937 
L 325.350809 221.40468 
L 326.242717 220.135817 
L 327.134625 218.557949 
L 329.81035 213.130143 
L 330.702258 211.516038 
L 331.594166 210.271524 
L 334.26989 207.312642 
L 335.161798 206.036046 
L 336.053706 203.712674 
L 337.837522 197.475589 
L 339.621339 191.082481 
L 342.297063 183.003262 
L 344.080879 179.045914 
L 344.972787 177.297516 
L 345.864695 175.832418 
L 348.54042 173.104176 
L 349.432328 170.690129 
L 350.324236 167.582699 
L 352.99996 160.631354 
L 355.675684 155.745895 
L 356.567592 153.831393 
L 357.4595 152.42528 
L 358.351409 151.684263 
L 359.243317 150.693817 
L 360.135225 148.66438 
L 361.919041 143.529507 
L 364.594765 133.985303 
L 366.378581 129.777032 
L 367.27049 128.369973 
L 368.162398 129.466795 
L 369.054306 132.30796 
L 370.838122 138.737708 
L 372.621938 141.292819 
L 373.513846 142.190304 
L 374.405754 142.720254 
L 377.973387 148.188351 
L 378.865295 150.88838 
L 379.757203 154.098394 
L 380.649111 157.945766 
L 381.541019 162.374919 
L 382.432927 166.185451 
L 383.324835 169.119926 
L 384.216743 171.342827 
L 385.108651 172.91708 
L 386.000559 171.935217 
L 386.892468 167.842444 
L 387.784376 161.763818 
L 389.568192 146.389688 
L 391.352008 133.918491 
L 392.243916 129.018003 
L 394.027732 120.337713 
L 395.811548 107.779636 
L 397.595365 93.956346 
L 398.487273 85.912686 
L 398.487273 85.912686 
" style="fill:none;stroke:#ff6347;stroke-linecap:square;stroke-width:1.5;"/>
   </g>
   <g id="line2d_18">
    <path clip-path="url(#p43118ccc5d)" d="M 73.832727 218.369923 
L 398.487273 218.369923 
L 398.487273 218.369923 
" style="fill:none;stroke:#ff7f0e;stroke-dasharray:5.55,2.4;stroke-dashoffset:0;stroke-width:1.5;"/>
   </g>
   <g id="line2d_19">
    <path clip-path="url(#p43118ccc5d)" d="M 73.832727 218.369923 
L 74.724635 219.656388 
L 75.616543 218.508804 
L 76.508452 217.544706 
L 77.40036 216.809469 
L 78.292268 213.991341 
L 79.184176 209.51723 
L 80.076084 206.832999 
L 80.967992 206.102797 
L 81.8599 203.602325 
L 82.751808 202.751234 
L 83.643716 201.371523 
L 84.535624 200.873154 
L 85.427532 196.770725 
L 86.319441 193.820383 
L 87.211349 192.227878 
L 88.103257 190.27303 
L 88.995165 189.004905 
L 89.887073 189.497562 
L 90.778981 190.558908 
L 91.670889 191.166484 
L 92.562797 192.367091 
L 93.454705 195.023455 
L 94.346613 197.161211 
L 95.238521 199.639811 
L 96.13043 200.325803 
L 97.022338 199.412621 
L 97.914246 196.171602 
L 98.806154 194.39259 
L 99.698062 192.107923 
L 100.58997 191.550663 
L 101.481878 191.199414 
L 102.373786 191.466957 
L 103.265694 192.169461 
L 104.157602 193.691132 
L 105.04951 192.674278 
L 105.941419 191.371457 
L 107.725235 189.348229 
L 108.617143 187.457219 
L 109.509051 187.974147 
L 111.292867 185.251872 
L 112.184775 185.228505 
L 113.076683 184.93095 
L 113.968591 187.576798 
L 114.8605 189.861886 
L 115.752408 193.215467 
L 116.644316 193.460887 
L 117.536224 197.142126 
L 118.428132 200.213964 
L 120.211948 204.595634 
L 121.103856 204.686389 
L 121.995764 206.610165 
L 122.887672 210.229431 
L 123.77958 216.09388 
L 125.563397 224.837612 
L 126.455305 228.904641 
L 127.347213 231.98504 
L 128.239121 232.112271 
L 129.131029 232.937144 
L 130.022937 233.326747 
L 130.914845 231.867174 
L 131.806753 230.082555 
L 132.698661 229.842142 
L 133.590569 234.42709 
L 134.482478 238.425603 
L 135.374386 241.455849 
L 136.266294 243.4076 
L 137.158202 261.949663 
L 138.942018 281.188537 
L 140.725834 292.755351 
L 141.617742 294.555694 
L 142.50965 294.794533 
L 144.293467 284.77876 
L 145.185375 280.287562 
L 146.077283 278.165908 
L 146.969191 272.117756 
L 147.861099 265.238052 
L 149.644915 254.654958 
L 150.536823 252.308259 
L 151.428731 250.710418 
L 152.320639 251.20553 
L 154.104456 245.493984 
L 155.888272 237.618305 
L 157.672088 231.308351 
L 158.563996 229.11508 
L 159.455904 224.102243 
L 161.23972 217.425926 
L 162.131628 215.130072 
L 163.023536 215.685769 
L 163.915445 216.045796 
L 164.807353 216.237359 
L 165.699261 216.750667 
L 166.591169 217.102974 
L 167.483077 218.682597 
L 168.374985 217.244527 
L 169.266893 216.604428 
L 170.158801 214.833054 
L 171.050709 214.187938 
L 171.942617 215.353778 
L 172.834525 216.215071 
L 173.726434 215.367143 
L 174.618342 212.748469 
L 178.185974 204.637626 
L 179.077882 203.336844 
L 179.96979 196.69516 
L 182.645514 184.713606 
L 183.537423 182.518621 
L 185.321239 180.12239 
L 186.213147 178.785025 
L 187.105055 173.530603 
L 187.996963 170.929642 
L 188.888871 170.780132 
L 190.672687 181.312571 
L 191.564595 184.706134 
L 192.456503 184.886439 
L 193.348412 182.72902 
L 194.24032 184.178271 
L 195.132228 185.316485 
L 196.024136 184.958846 
L 197.807952 184.721588 
L 198.69986 186.535167 
L 199.591768 190.796461 
L 201.375584 196.525455 
L 202.267493 201.452029 
L 204.051309 207.448087 
L 204.943217 207.743053 
L 205.835125 206.062713 
L 206.727033 205.689158 
L 207.618941 204.009345 
L 208.510849 204.235247 
L 209.402757 200.317618 
L 210.294665 201.176191 
L 211.186573 201.322979 
L 212.078482 200.992358 
L 212.97039 201.743487 
L 213.862298 202.27068 
L 216.538022 202.982198 
L 217.42993 202.7977 
L 218.321838 206.206029 
L 219.213746 207.939019 
L 220.105654 209.426768 
L 220.997562 211.480539 
L 221.889471 212.699839 
L 222.781379 213.054506 
L 223.673287 213.81451 
L 224.565195 214.875064 
L 225.457103 216.196971 
L 226.349011 216.979981 
L 227.240919 218.005353 
L 228.132827 216.658792 
L 229.024735 215.927801 
L 230.808551 218.393038 
L 231.70046 219.878179 
L 232.592368 221.887624 
L 233.484276 222.818646 
L 234.376184 223.121471 
L 235.268092 223.549637 
L 236.16 223.322398 
L 237.943816 224.373969 
L 238.835724 224.306388 
L 239.727632 224.511748 
L 240.61954 223.174743 
L 241.511449 222.462661 
L 242.403357 220.95441 
L 243.295265 220.730185 
L 244.187173 220.318793 
L 245.079081 220.256077 
L 245.970989 219.826579 
L 247.754805 219.779531 
L 248.646713 220.017897 
L 249.538621 220.456636 
L 250.430529 220.726037 
L 251.322438 220.786624 
L 252.214346 220.596386 
L 253.106254 220.700881 
L 253.998162 219.532764 
L 255.781978 215.890381 
L 256.673886 214.860777 
L 257.565794 213.132524 
L 258.457702 210.559625 
L 259.34961 202.535383 
L 261.133427 191.685445 
L 262.917243 183.765771 
L 263.809151 178.417272 
L 264.701059 178.954258 
L 265.592967 178.764535 
L 266.484875 179.400458 
L 267.376783 177.232023 
L 268.268691 175.773058 
L 269.160599 175.945655 
L 270.052507 175.751961 
L 270.944416 176.551101 
L 271.836324 176.469325 
L 272.728232 179.685502 
L 273.62014 181.717136 
L 274.512048 182.529517 
L 275.403956 183.660905 
L 277.187772 185.132787 
L 278.07968 183.958266 
L 278.971588 185.358372 
L 279.863497 187.63652 
L 280.755405 189.410758 
L 281.647313 192.843322 
L 283.431129 197.335149 
L 284.323037 198.692137 
L 285.214945 202.406067 
L 286.106853 204.767341 
L 286.998761 207.45763 
L 288.782577 209.997521 
L 289.674486 209.773122 
L 290.566394 209.936564 
L 291.458302 208.658935 
L 292.35021 210.659498 
L 293.242118 219.258574 
L 295.025934 230.071477 
L 295.917842 233.853864 
L 296.80975 235.998406 
L 297.701658 238.875083 
L 298.593566 240.404403 
L 299.485475 240.645264 
L 300.377383 240.342274 
L 301.269291 239.558184 
L 302.161199 239.30232 
L 303.053107 236.980375 
L 303.945015 234.254785 
L 304.836923 230.99333 
L 305.728831 228.435005 
L 306.620739 226.271899 
L 307.512647 223.665204 
L 308.404555 222.498238 
L 309.296464 224.282005 
L 310.188372 224.977366 
L 311.08028 227.142788 
L 311.972188 226.009298 
L 313.756004 224.377951 
L 314.647912 223.38266 
L 315.53982 223.047516 
L 316.431728 221.896985 
L 317.323636 221.26248 
L 319.107453 222.08478 
L 319.999361 222.540535 
L 320.891269 222.171303 
L 321.783177 221.264387 
L 322.675085 221.39391 
L 323.566993 221.223658 
L 324.458901 219.580735 
L 325.350809 217.633896 
L 328.026533 208.968239 
L 328.918442 207.245802 
L 330.702258 204.884381 
L 331.594166 205.124406 
L 332.486074 205.228734 
L 333.377982 204.643006 
L 334.26989 203.031074 
L 335.161798 200.975103 
L 336.945614 188.730945 
L 338.729431 181.07389 
L 339.621339 178.992689 
L 340.513247 177.566094 
L 341.405155 173.562607 
L 342.297063 173.076816 
L 343.188971 172.167793 
L 344.080879 171.434499 
L 344.972787 170.084125 
L 345.864695 169.777013 
L 346.756603 171.219205 
L 347.648511 170.510014 
L 348.54042 169.50546 
L 349.432328 161.370845 
L 350.324236 155.498608 
L 351.216144 155.841302 
L 352.108052 153.163851 
L 352.99996 152.411931 
L 353.891868 152.901531 
L 354.783776 151.739719 
L 355.675684 148.306673 
L 356.567592 146.31572 
L 357.4595 146.871395 
L 358.351409 148.758007 
L 359.243317 146.84473 
L 360.135225 140.710364 
L 361.027133 136.067068 
L 361.919041 133.159542 
L 362.810949 127.048791 
L 363.702857 123.311823 
L 364.594765 122.968476 
L 365.486673 123.939988 
L 366.378581 121.704867 
L 367.27049 123.133621 
L 369.054306 143.857511 
L 369.946214 148.998644 
L 370.838122 151.247939 
L 371.73003 145.331797 
L 372.621938 146.702505 
L 373.513846 146.032942 
L 374.405754 145.183076 
L 375.297662 149.484323 
L 376.18957 150.943387 
L 377.081479 151.590639 
L 377.973387 153.953343 
L 378.865295 161.391163 
L 379.757203 166.541593 
L 381.541019 179.736552 
L 382.432927 181.055737 
L 383.324835 180.653818 
L 384.216743 180.110015 
L 385.108651 179.195812 
L 386.000559 168.180949 
L 386.892468 151.825217 
L 388.676284 123.626324 
L 389.568192 115.406997 
L 390.4601 114.468993 
L 391.352008 108.552353 
L 392.243916 108.500033 
L 393.135824 107.139966 
L 394.027732 101.978784 
L 394.91964 89.283597 
L 395.811548 81.629072 
L 396.703457 72.668202 
L 397.595365 65.706689 
L 398.487273 53.568 
L 398.487273 53.568 
" style="fill:none;stroke:#0000ff;stroke-linecap:square;stroke-width:1.5;"/>
   </g>
   <g id="line2d_20">
    <path clip-path="url(#p43118ccc5d)" d="M 73.832727 218.369923 
L 74.724635 218.627216 
L 75.616543 218.603533 
L 77.40036 218.075308 
L 78.292268 217.258515 
L 79.184176 215.710258 
L 81.8599 210.615188 
L 83.643716 207.508222 
L 84.535624 206.181209 
L 86.319441 202.203366 
L 88.995165 196.377958 
L 89.887073 195.001879 
L 90.778981 194.113285 
L 91.670889 193.523924 
L 92.562797 193.292558 
L 93.454705 193.638737 
L 94.346613 194.343232 
L 96.13043 196.387199 
L 97.022338 196.992283 
L 97.914246 196.828147 
L 98.806154 196.341036 
L 100.58997 194.705663 
L 101.481878 194.004413 
L 102.373786 193.496922 
L 103.265694 193.23143 
L 104.157602 193.32337 
L 105.04951 193.193552 
L 105.941419 192.829133 
L 107.725235 191.729441 
L 108.617143 190.874996 
L 109.509051 190.294827 
L 113.076683 187.381057 
L 113.968591 187.420205 
L 114.8605 187.908542 
L 116.644316 189.868119 
L 117.536224 191.32292 
L 122.887672 202.118108 
L 124.671489 208.065335 
L 128.239121 221.086787 
L 129.131029 223.456859 
L 130.022937 225.430836 
L 130.914845 226.718104 
L 131.806753 227.390994 
L 132.698661 227.881224 
L 133.590569 229.190397 
L 135.374386 233.12112 
L 136.266294 235.178416 
L 137.158202 240.532666 
L 138.942018 253.640215 
L 140.725834 266.816384 
L 141.617742 272.364246 
L 142.50965 276.850303 
L 143.401558 279.390658 
L 144.293467 280.468278 
L 145.185375 280.432135 
L 146.077283 279.978889 
L 146.969191 278.406663 
L 147.861099 275.772941 
L 149.644915 268.976314 
L 151.428731 262.656246 
L 153.212547 257.931401 
L 154.996364 252.692612 
L 159.455904 237.373914 
L 162.131628 227.632172 
L 163.023536 225.242891 
L 163.915445 223.403472 
L 164.807353 221.97025 
L 165.699261 220.926333 
L 166.591169 220.161661 
L 167.483077 219.865848 
L 169.266893 218.794153 
L 171.050709 217.239134 
L 171.942617 216.862063 
L 172.834525 216.732664 
L 173.726434 216.45956 
L 174.618342 215.717342 
L 176.402158 213.545949 
L 178.185974 210.666332 
L 179.077882 209.200434 
L 180.861698 203.872626 
L 184.429331 191.933896 
L 187.105055 184.637545 
L 187.996963 181.895964 
L 188.888871 179.672798 
L 189.780779 178.914868 
L 190.672687 179.394409 
L 191.564595 180.456754 
L 192.456503 181.342691 
L 193.348412 181.619957 
L 196.024136 183.206643 
L 197.807952 183.771368 
L 198.69986 184.324128 
L 199.591768 185.618594 
L 201.375584 189.116927 
L 204.943217 199.006762 
L 205.835125 200.417952 
L 206.727033 201.472193 
L 208.510849 202.430748 
L 209.402757 202.008122 
L 212.078482 201.588859 
L 213.862298 201.749964 
L 217.42993 202.345708 
L 218.321838 203.117772 
L 220.105654 205.150971 
L 221.889471 207.673475 
L 226.349011 212.889995 
L 227.240919 213.913067 
L 228.132827 214.462212 
L 229.024735 214.75533 
L 229.916643 215.228721 
L 230.808551 215.861584 
L 231.70046 216.664903 
L 233.484276 218.731287 
L 235.268092 220.397386 
L 237.943816 222.119309 
L 239.727632 222.947729 
L 240.61954 222.993132 
L 241.511449 222.887038 
L 244.187173 221.780916 
L 247.754805 220.66129 
L 248.646713 220.532612 
L 250.430529 220.559141 
L 253.106254 220.622566 
L 253.998162 220.404606 
L 254.89007 219.868646 
L 256.673886 218.23055 
L 257.565794 217.210945 
L 258.457702 215.880681 
L 259.34961 213.211621 
L 261.133427 206.288501 
L 262.917243 198.850269 
L 263.809151 194.76367 
L 264.701059 191.601787 
L 265.592967 189.034337 
L 268.268691 183.260574 
L 269.160599 181.797591 
L 270.052507 180.588465 
L 271.836324 179.118659 
L 272.728232 179.232027 
L 274.512048 180.289143 
L 277.187772 182.351887 
L 278.07968 182.673163 
L 278.971588 183.210205 
L 279.863497 184.095468 
L 280.755405 185.158526 
L 282.539221 188.38461 
L 285.214945 193.983775 
L 288.782577 202.377954 
L 289.674486 203.856987 
L 290.566394 205.072903 
L 291.458302 205.790109 
L 292.35021 206.763987 
L 293.242118 209.262904 
L 294.134026 212.291309 
L 296.80975 222.758599 
L 298.593566 228.866397 
L 299.485475 231.22217 
L 300.377383 233.046191 
L 301.269291 234.34859 
L 302.161199 235.339336 
L 303.053107 235.667544 
L 303.945015 235.384992 
L 304.836923 234.50666 
L 305.728831 233.292329 
L 306.620739 231.888243 
L 308.404555 228.694556 
L 309.296464 227.812045 
L 310.188372 227.24511 
L 311.08028 227.224645 
L 312.864096 226.633387 
L 314.647912 225.622372 
L 316.431728 224.465317 
L 317.323636 223.82475 
L 318.215544 223.383001 
L 319.107453 223.123357 
L 320.891269 222.839695 
L 322.675085 222.298489 
L 323.566993 222.083522 
L 324.458901 221.582965 
L 325.350809 220.793151 
L 326.242717 219.570596 
L 327.134625 218.046614 
L 329.81035 212.775741 
L 330.702258 211.197469 
L 331.594166 209.982857 
L 334.26989 207.129596 
L 335.161798 205.898698 
L 336.053706 203.638606 
L 337.837522 197.496043 
L 339.621339 191.167828 
L 342.297063 182.991768 
L 344.080879 178.948478 
L 344.972787 177.175608 
L 345.864695 175.695889 
L 348.54042 173.055048 
L 349.432328 170.718207 
L 350.324236 167.674287 
L 352.99996 160.785524 
L 355.675684 155.833274 
L 356.567592 153.929763 
L 357.4595 152.518089 
L 358.351409 151.766073 
L 359.243317 150.781804 
L 360.135225 148.767516 
L 361.919041 143.61385 
L 363.702857 136.903035 
L 364.594765 134.116123 
L 366.378581 130.00569 
L 367.27049 128.631277 
L 368.162398 129.725879 
L 369.054306 132.552205 
L 370.838122 138.922782 
L 372.621938 141.504169 
L 373.513846 142.409924 
L 374.405754 142.964554 
L 377.973387 148.2314 
L 378.865295 150.863353 
L 379.757203 153.999001 
L 380.649111 157.811205 
L 381.541019 162.196274 
L 382.432927 165.968167 
L 383.324835 168.905297 
L 384.216743 171.146241 
L 385.108651 172.756155 
L 386.000559 171.841114 
L 386.892468 167.837934 
L 387.784376 161.814102 
L 389.568192 146.422636 
L 391.352008 133.735997 
L 392.243916 128.688804 
L 394.027732 119.898986 
L 395.811548 107.346541 
L 397.595365 93.470036 
L 398.487273 85.489629 
L 398.487273 85.489629 
" style="fill:none;stroke:#ff6347;stroke-linecap:square;stroke-width:1.5;"/>
   </g>
   <g id="patch_3">
    <path d="M 57.6 307.584 
L 57.6 41.472 
" style="fill:none;stroke:#000000;stroke-linecap:square;stroke-linejoin:miter;stroke-width:0.8;"/>
   </g>
   <g id="patch_4">
    <path d="M 414.72 307.584 
L 414.72 41.472 
" style="fill:none;stroke:#000000;stroke-linecap:square;stroke-linejoin:miter;stroke-width:0.8;"/>
   </g>
   <g id="patch_5">
    <path d="M 57.6 307.584 
L 414.72 307.584 
" style="fill:none;stroke:#000000;stroke-linecap:square;stroke-linejoin:miter;stroke-width:0.8;"/>
   </g>
   <g id="patch_6">
    <path d="M 57.6 41.472 
L 414.72 41.472 
" style="fill:none;stroke:#000000;stroke-linecap:square;stroke-linejoin:miter;stroke-width:0.8;"/>
   </g>
   <g id="text_15">
    <!-- Data source: nomics -->
    <g transform="translate(184.91625 35.472)scale(0.1 -0.1)">
     <defs>
      <path d="M 19.671875 64.796875 
L 19.671875 8.109375 
L 31.59375 8.109375 
Q 46.6875 8.109375 53.6875 14.9375 
Q 60.6875 21.78125 60.6875 36.53125 
Q 60.6875 51.171875 53.6875 57.984375 
Q 46.6875 64.796875 31.59375 64.796875 
z
M 9.8125 72.90625 
L 30.078125 72.90625 
Q 51.265625 72.90625 61.171875 64.09375 
Q 71.09375 55.28125 71.09375 36.53125 
Q 71.09375 17.671875 61.125 8.828125 
Q 51.171875 0 30.078125 0 
L 9.8125 0 
z
" id="DejaVuSans-68"/>
      <path d="M 34.28125 27.484375 
Q 23.390625 27.484375 19.1875 25 
Q 14.984375 22.515625 14.984375 16.5 
Q 14.984375 11.71875 18.140625 8.90625 
Q 21.296875 6.109375 26.703125 6.109375 
Q 34.1875 6.109375 38.703125 11.40625 
Q 43.21875 16.703125 43.21875 25.484375 
L 43.21875 27.484375 
z
M 52.203125 31.203125 
L 52.203125 0 
L 43.21875 0 
L 43.21875 8.296875 
Q 40.140625 3.328125 35.546875 0.953125 
Q 30.953125 -1.421875 24.3125 -1.421875 
Q 15.921875 -1.421875 10.953125 3.296875 
Q 6 8.015625 6 15.921875 
Q 6 25.140625 12.171875 29.828125 
Q 18.359375 34.515625 30.609375 34.515625 
L 43.21875 34.515625 
L 43.21875 35.40625 
Q 43.21875 41.609375 39.140625 45 
Q 35.0625 48.390625 27.6875 48.390625 
Q 23 48.390625 18.546875 47.265625 
Q 14.109375 46.140625 10.015625 43.890625 
L 10.015625 52.203125 
Q 14.9375 54.109375 19.578125 55.046875 
Q 24.21875 56 28.609375 56 
Q 40.484375 56 46.34375 49.84375 
Q 52.203125 43.703125 52.203125 31.203125 
z
" id="DejaVuSans-97"/>
      <path d="M 18.3125 70.21875 
L 18.3125 54.6875 
L 36.8125 54.6875 
L 36.8125 47.703125 
L 18.3125 47.703125 
L 18.3125 18.015625 
Q 18.3125 11.328125 20.140625 9.421875 
Q 21.96875 7.515625 27.59375 7.515625 
L 36.8125 7.515625 
L 36.8125 0 
L 27.59375 0 
Q 17.1875 0 13.234375 3.875 
Q 9.28125 7.765625 9.28125 18.015625 
L 9.28125 47.703125 
L 2.6875 47.703125 
L 2.6875 54.6875 
L 9.28125 54.6875 
L 9.28125 70.21875 
z
" id="DejaVuSans-116"/>
      <path id="DejaVuSans-32"/>
      <path d="M 44.28125 53.078125 
L 44.28125 44.578125 
Q 40.484375 46.53125 36.375 47.5 
Q 32.28125 48.484375 27.875 48.484375 
Q 21.1875 48.484375 17.84375 46.4375 
Q 14.5 44.390625 14.5 40.28125 
Q 14.5 37.15625 16.890625 35.375 
Q 19.28125 33.59375 26.515625 31.984375 
L 29.59375 31.296875 
Q 39.15625 29.25 43.1875 25.515625 
Q 47.21875 21.78125 47.21875 15.09375 
Q 47.21875 7.46875 41.1875 3.015625 
Q 35.15625 -1.421875 24.609375 -1.421875 
Q 20.21875 -1.421875 15.453125 -0.5625 
Q 10.6875 0.296875 5.421875 2 
L 5.421875 11.28125 
Q 10.40625 8.6875 15.234375 7.390625 
Q 20.0625 6.109375 24.8125 6.109375 
Q 31.15625 6.109375 34.5625 8.28125 
Q 37.984375 10.453125 37.984375 14.40625 
Q 37.984375 18.0625 35.515625 20.015625 
Q 33.0625 21.96875 24.703125 23.78125 
L 21.578125 24.515625 
Q 13.234375 26.265625 9.515625 29.90625 
Q 5.8125 33.546875 5.8125 39.890625 
Q 5.8125 47.609375 11.28125 51.796875 
Q 16.75 56 26.8125 56 
Q 31.78125 56 36.171875 55.265625 
Q 40.578125 54.546875 44.28125 53.078125 
z
" id="DejaVuSans-115"/>
      <path d="M 30.609375 48.390625 
Q 23.390625 48.390625 19.1875 42.75 
Q 14.984375 37.109375 14.984375 27.296875 
Q 14.984375 17.484375 19.15625 11.84375 
Q 23.34375 6.203125 30.609375 6.203125 
Q 37.796875 6.203125 41.984375 11.859375 
Q 46.1875 17.53125 46.1875 27.296875 
Q 46.1875 37.015625 41.984375 42.703125 
Q 37.796875 48.390625 30.609375 48.390625 
z
M 30.609375 56 
Q 42.328125 56 49.015625 48.375 
Q 55.71875 40.765625 55.71875 27.296875 
Q 55.71875 13.875 49.015625 6.21875 
Q 42.328125 -1.421875 30.609375 -1.421875 
Q 18.84375 -1.421875 12.171875 6.21875 
Q 5.515625 13.875 5.515625 27.296875 
Q 5.515625 40.765625 12.171875 48.375 
Q 18.84375 56 30.609375 56 
z
" id="DejaVuSans-111"/>
      <path d="M 8.5 21.578125 
L 8.5 54.6875 
L 17.484375 54.6875 
L 17.484375 21.921875 
Q 17.484375 14.15625 20.5 10.265625 
Q 23.53125 6.390625 29.59375 6.390625 
Q 36.859375 6.390625 41.078125 11.03125 
Q 45.3125 15.671875 45.3125 23.6875 
L 45.3125 54.6875 
L 54.296875 54.6875 
L 54.296875 0 
L 45.3125 0 
L 45.3125 8.40625 
Q 42.046875 3.421875 37.71875 1 
Q 33.40625 -1.421875 27.6875 -1.421875 
Q 18.265625 -1.421875 13.375 4.4375 
Q 8.5 10.296875 8.5 21.578125 
z
M 31.109375 56 
z
" id="DejaVuSans-117"/>
      <path d="M 41.109375 46.296875 
Q 39.59375 47.171875 37.8125 47.578125 
Q 36.03125 48 33.890625 48 
Q 26.265625 48 22.1875 43.046875 
Q 18.109375 38.09375 18.109375 28.8125 
L 18.109375 0 
L 9.078125 0 
L 9.078125 54.6875 
L 18.109375 54.6875 
L 18.109375 46.1875 
Q 20.953125 51.171875 25.484375 53.578125 
Q 30.03125 56 36.53125 56 
Q 37.453125 56 38.578125 55.875 
Q 39.703125 55.765625 41.0625 55.515625 
z
" id="DejaVuSans-114"/>
      <path d="M 48.78125 52.59375 
L 48.78125 44.1875 
Q 44.96875 46.296875 41.140625 47.34375 
Q 37.3125 48.390625 33.40625 48.390625 
Q 24.65625 48.390625 19.8125 42.84375 
Q 14.984375 37.3125 14.984375 27.296875 
Q 14.984375 17.28125 19.8125 11.734375 
Q 24.65625 6.203125 33.40625 6.203125 
Q 37.3125 6.203125 41.140625 7.25 
Q 44.96875 8.296875 48.78125 10.40625 
L 48.78125 2.09375 
Q 45.015625 0.34375 40.984375 -0.53125 
Q 36.96875 -1.421875 32.421875 -1.421875 
Q 20.0625 -1.421875 12.78125 6.34375 
Q 5.515625 14.109375 5.515625 27.296875 
Q 5.515625 40.671875 12.859375 48.328125 
Q 20.21875 56 33.015625 56 
Q 37.15625 56 41.109375 55.140625 
Q 45.0625 54.296875 48.78125 52.59375 
z
" id="DejaVuSans-99"/>
      <path d="M 56.203125 29.59375 
L 56.203125 25.203125 
L 14.890625 25.203125 
Q 15.484375 15.921875 20.484375 11.0625 
Q 25.484375 6.203125 34.421875 6.203125 
Q 39.59375 6.203125 44.453125 7.46875 
Q 49.3125 8.734375 54.109375 11.28125 
L 54.109375 2.78125 
Q 49.265625 0.734375 44.1875 -0.34375 
Q 39.109375 -1.421875 33.890625 -1.421875 
Q 20.796875 -1.421875 13.15625 6.1875 
Q 5.515625 13.8125 5.515625 26.8125 
Q 5.515625 40.234375 12.765625 48.109375 
Q 20.015625 56 32.328125 56 
Q 43.359375 56 49.78125 48.890625 
Q 56.203125 41.796875 56.203125 29.59375 
z
M 47.21875 32.234375 
Q 47.125 39.59375 43.09375 43.984375 
Q 39.0625 48.390625 32.421875 48.390625 
Q 24.90625 48.390625 20.390625 44.140625 
Q 15.875 39.890625 15.1875 32.171875 
z
" id="DejaVuSans-101"/>
      <path d="M 11.71875 12.40625 
L 22.015625 12.40625 
L 22.015625 0 
L 11.71875 0 
z
M 11.71875 51.703125 
L 22.015625 51.703125 
L 22.015625 39.3125 
L 11.71875 39.3125 
z
" id="DejaVuSans-58"/>
      <path d="M 54.890625 33.015625 
L 54.890625 0 
L 45.90625 0 
L 45.90625 32.71875 
Q 45.90625 40.484375 42.875 44.328125 
Q 39.84375 48.1875 33.796875 48.1875 
Q 26.515625 48.1875 22.3125 43.546875 
Q 18.109375 38.921875 18.109375 30.90625 
L 18.109375 0 
L 9.078125 0 
L 9.078125 54.6875 
L 18.109375 54.6875 
L 18.109375 46.1875 
Q 21.34375 51.125 25.703125 53.5625 
Q 30.078125 56 35.796875 56 
Q 45.21875 56 50.046875 50.171875 
Q 54.890625 44.34375 54.890625 33.015625 
z
" id="DejaVuSans-110"/>
      <path d="M 52 44.1875 
Q 55.375 50.25 60.0625 53.125 
Q 64.75 56 71.09375 56 
Q 79.640625 56 84.28125 50.015625 
Q 88.921875 44.046875 88.921875 33.015625 
L 88.921875 0 
L 79.890625 0 
L 79.890625 32.71875 
Q 79.890625 40.578125 77.09375 44.375 
Q 74.3125 48.1875 68.609375 48.1875 
Q 61.625 48.1875 57.5625 43.546875 
Q 53.515625 38.921875 53.515625 30.90625 
L 53.515625 0 
L 44.484375 0 
L 44.484375 32.71875 
Q 44.484375 40.625 41.703125 44.40625 
Q 38.921875 48.1875 33.109375 48.1875 
Q 26.21875 48.1875 22.15625 43.53125 
Q 18.109375 38.875 18.109375 30.90625 
L 18.109375 0 
L 9.078125 0 
L 9.078125 54.6875 
L 18.109375 54.6875 
L 18.109375 46.1875 
Q 21.1875 51.21875 25.484375 53.609375 
Q 29.78125 56 35.6875 56 
Q 41.65625 56 45.828125 52.96875 
Q 50 49.953125 52 44.1875 
z
" id="DejaVuSans-109"/>
      <path d="M 9.421875 54.6875 
L 18.40625 54.6875 
L 18.40625 0 
L 9.421875 0 
z
M 9.421875 75.984375 
L 18.40625 75.984375 
L 18.40625 64.59375 
L 9.421875 64.59375 
z
" id="DejaVuSans-105"/>
     </defs>
     <use xlink:href="#DejaVuSans-68"/>
     <use x="77.001953" xlink:href="#DejaVuSans-97"/>
     <use x="138.28125" xlink:href="#DejaVuSans-116"/>
     <use x="177.490234" xlink:href="#DejaVuSans-97"/>
     <use x="238.769531" xlink:href="#DejaVuSans-32"/>
     <use x="270.556641" xlink:href="#DejaVuSans-115"/>
     <use x="322.65625" xlink:href="#DejaVuSans-111"/>
     <use x="383.837891" xlink:href="#DejaVuSans-117"/>
     <use x="447.216797" xlink:href="#DejaVuSans-114"/>
     <use x="486.080078" xlink:href="#DejaVuSans-99"/>
     <use x="541.060547" xlink:href="#DejaVuSans-101"/>
     <use x="602.583984" xlink:href="#DejaVuSans-58"/>
     <use x="636.275391" xlink:href="#DejaVuSans-32"/>
     <use x="668.0625" xlink:href="#DejaVuSans-110"/>
     <use x="731.441406" xlink:href="#DejaVuSans-111"/>
     <use x="792.623047" xlink:href="#DejaVuSans-109"/>
     <use x="890.035156" xlink:href="#DejaVuSans-105"/>
     <use x="917.818359" xlink:href="#DejaVuSans-99"/>
     <use x="972.798828" xlink:href="#DejaVuSans-115"/>
    </g>
   </g>
   <g id="legend_1">
    <g id="patch_7">
     <path d="M 64.6 108.1845 
L 127.31875 108.1845 
Q 129.31875 108.1845 129.31875 106.1845 
L 129.31875 48.472 
Q 129.31875 46.472 127.31875 46.472 
L 64.6 46.472 
Q 62.6 46.472 62.6 48.472 
L 62.6 106.1845 
Q 62.6 108.1845 64.6 108.1845 
z
" style="fill:#ffffff;opacity:0.8;stroke:#cccccc;stroke-linejoin:miter;"/>
    </g>
    <g id="line2d_21">
     <path d="M 66.6 54.570438 
L 86.6 54.570438 
" style="fill:none;stroke:#0000ff;stroke-linecap:square;stroke-width:1.5;"/>
    </g>
    <g id="line2d_22"/>
    <g id="text_16">
     <!-- MACD -->
     <g transform="translate(94.6 58.070438)scale(0.1 -0.1)">
      <defs>
       <path d="M 9.8125 72.90625 
L 24.515625 72.90625 
L 43.109375 23.296875 
L 61.8125 72.90625 
L 76.515625 72.90625 
L 76.515625 0 
L 66.890625 0 
L 66.890625 64.015625 
L 48.09375 14.015625 
L 38.1875 14.015625 
L 19.390625 64.015625 
L 19.390625 0 
L 9.8125 0 
z
" id="DejaVuSans-77"/>
       <path d="M 34.1875 63.1875 
L 20.796875 26.90625 
L 47.609375 26.90625 
z
M 28.609375 72.90625 
L 39.796875 72.90625 
L 67.578125 0 
L 57.328125 0 
L 50.6875 18.703125 
L 17.828125 18.703125 
L 11.1875 0 
L 0.78125 0 
z
" id="DejaVuSans-65"/>
       <path d="M 64.40625 67.28125 
L 64.40625 56.890625 
Q 59.421875 61.53125 53.78125 63.8125 
Q 48.140625 66.109375 41.796875 66.109375 
Q 29.296875 66.109375 22.65625 58.46875 
Q 16.015625 50.828125 16.015625 36.375 
Q 16.015625 21.96875 22.65625 14.328125 
Q 29.296875 6.6875 41.796875 6.6875 
Q 48.140625 6.6875 53.78125 8.984375 
Q 59.421875 11.28125 64.40625 15.921875 
L 64.40625 5.609375 
Q 59.234375 2.09375 53.4375 0.328125 
Q 47.65625 -1.421875 41.21875 -1.421875 
Q 24.65625 -1.421875 15.125 8.703125 
Q 5.609375 18.84375 5.609375 36.375 
Q 5.609375 53.953125 15.125 64.078125 
Q 24.65625 74.21875 41.21875 74.21875 
Q 47.75 74.21875 53.53125 72.484375 
Q 59.328125 70.75 64.40625 67.28125 
z
" id="DejaVuSans-67"/>
      </defs>
      <use xlink:href="#DejaVuSans-77"/>
      <use x="86.279297" xlink:href="#DejaVuSans-65"/>
      <use x="152.9375" xlink:href="#DejaVuSans-67"/>
      <use x="222.761719" xlink:href="#DejaVuSans-68"/>
     </g>
    </g>
    <g id="line2d_23">
     <path d="M 66.6 69.248563 
L 86.6 69.248563 
" style="fill:none;stroke:#ff6347;stroke-linecap:square;stroke-width:1.5;"/>
    </g>
    <g id="line2d_24"/>
    <g id="text_17">
     <!-- Signal -->
     <g transform="translate(94.6 72.748563)scale(0.1 -0.1)">
      <defs>
       <path d="M 53.515625 70.515625 
L 53.515625 60.890625 
Q 47.90625 63.578125 42.921875 64.890625 
Q 37.9375 66.21875 33.296875 66.21875 
Q 25.25 66.21875 20.875 63.09375 
Q 16.5 59.96875 16.5 54.203125 
Q 16.5 49.359375 19.40625 46.890625 
Q 22.3125 44.4375 30.421875 42.921875 
L 36.375 41.703125 
Q 47.40625 39.59375 52.65625 34.296875 
Q 57.90625 29 57.90625 20.125 
Q 57.90625 9.515625 50.796875 4.046875 
Q 43.703125 -1.421875 29.984375 -1.421875 
Q 24.8125 -1.421875 18.96875 -0.25 
Q 13.140625 0.921875 6.890625 3.21875 
L 6.890625 13.375 
Q 12.890625 10.015625 18.65625 8.296875 
Q 24.421875 6.59375 29.984375 6.59375 
Q 38.421875 6.59375 43.015625 9.90625 
Q 47.609375 13.234375 47.609375 19.390625 
Q 47.609375 24.75 44.3125 27.78125 
Q 41.015625 30.8125 33.5 32.328125 
L 27.484375 33.5 
Q 16.453125 35.6875 11.515625 40.375 
Q 6.59375 45.0625 6.59375 53.421875 
Q 6.59375 63.09375 13.40625 68.65625 
Q 20.21875 74.21875 32.171875 74.21875 
Q 37.3125 74.21875 42.625 73.28125 
Q 47.953125 72.359375 53.515625 70.515625 
z
" id="DejaVuSans-83"/>
       <path d="M 45.40625 27.984375 
Q 45.40625 37.75 41.375 43.109375 
Q 37.359375 48.484375 30.078125 48.484375 
Q 22.859375 48.484375 18.828125 43.109375 
Q 14.796875 37.75 14.796875 27.984375 
Q 14.796875 18.265625 18.828125 12.890625 
Q 22.859375 7.515625 30.078125 7.515625 
Q 37.359375 7.515625 41.375 12.890625 
Q 45.40625 18.265625 45.40625 27.984375 
z
M 54.390625 6.78125 
Q 54.390625 -7.171875 48.1875 -13.984375 
Q 42 -20.796875 29.203125 -20.796875 
Q 24.46875 -20.796875 20.265625 -20.09375 
Q 16.0625 -19.390625 12.109375 -17.921875 
L 12.109375 -9.1875 
Q 16.0625 -11.328125 19.921875 -12.34375 
Q 23.78125 -13.375 27.78125 -13.375 
Q 36.625 -13.375 41.015625 -8.765625 
Q 45.40625 -4.15625 45.40625 5.171875 
L 45.40625 9.625 
Q 42.625 4.78125 38.28125 2.390625 
Q 33.9375 0 27.875 0 
Q 17.828125 0 11.671875 7.65625 
Q 5.515625 15.328125 5.515625 27.984375 
Q 5.515625 40.671875 11.671875 48.328125 
Q 17.828125 56 27.875 56 
Q 33.9375 56 38.28125 53.609375 
Q 42.625 51.21875 45.40625 46.390625 
L 45.40625 54.6875 
L 54.390625 54.6875 
z
" id="DejaVuSans-103"/>
       <path d="M 9.421875 75.984375 
L 18.40625 75.984375 
L 18.40625 0 
L 9.421875 0 
z
" id="DejaVuSans-108"/>
      </defs>
      <use xlink:href="#DejaVuSans-83"/>
      <use x="63.476562" xlink:href="#DejaVuSans-105"/>
      <use x="91.259766" xlink:href="#DejaVuSans-103"/>
      <use x="154.736328" xlink:href="#DejaVuSans-110"/>
      <use x="218.115234" xlink:href="#DejaVuSans-97"/>
      <use x="279.394531" xlink:href="#DejaVuSans-108"/>
     </g>
    </g>
    <g id="line2d_25">
     <path d="M 66.6 83.926688 
L 86.6 83.926688 
" style="fill:none;stroke:#0000ff;stroke-linecap:square;stroke-width:1.5;"/>
    </g>
    <g id="line2d_26"/>
    <g id="text_18">
     <!-- MACD -->
     <g transform="translate(94.6 87.426688)scale(0.1 -0.1)">
      <use xlink:href="#DejaVuSans-77"/>
      <use x="86.279297" xlink:href="#DejaVuSans-65"/>
      <use x="152.9375" xlink:href="#DejaVuSans-67"/>
      <use x="222.761719" xlink:href="#DejaVuSans-68"/>
     </g>
    </g>
    <g id="line2d_27">
     <path d="M 66.6 98.604813 
L 86.6 98.604813 
" style="fill:none;stroke:#ff6347;stroke-linecap:square;stroke-width:1.5;"/>
    </g>
    <g id="line2d_28"/>
    <g id="text_19">
     <!-- Signal -->
     <g transform="translate(94.6 102.104813)scale(0.1 -0.1)">
      <use xlink:href="#DejaVuSans-83"/>
      <use x="63.476562" xlink:href="#DejaVuSans-105"/>
      <use x="91.259766" xlink:href="#DejaVuSans-103"/>
      <use x="154.736328" xlink:href="#DejaVuSans-110"/>
      <use x="218.115234" xlink:href="#DejaVuSans-97"/>
      <use x="279.394531" xlink:href="#DejaVuSans-108"/>
     </g>
    </g>
   </g>
  </g>
  <g id="text_20">
   <!-- MACD -->
   <g transform="translate(206.41875 19.0695)scale(0.16 -0.16)">
    <use xlink:href="#DejaVuSans-77"/>
    <use x="86.279297" xlink:href="#DejaVuSans-65"/>
    <use x="152.9375" xlink:href="#DejaVuSans-67"/>
    <use x="222.761719" xlink:href="#DejaVuSans-68"/>
   </g>
  </g>
 </g>
 <defs>
  <clipPath id="p43118ccc5d">
   <rect height="266.112" width="357.12" x="57.6" y="41.472"/>
  </clipPath>
 </defs>
</svg>
