<?xml version="1.0" encoding="utf-8" standalone="no"?>
<!DOCTYPE svg PUBLIC "-//W3C//DTD SVG 1.1//EN"
  "http://www.w3.org/Graphics/SVG/1.1/DTD/svg11.dtd">
<!-- Created with matplotlib (https://matplotlib.org/) -->
<svg height="345.6pt" version="1.1" viewBox="0 0 460.8 345.6" width="460.8pt" xmlns="http://www.w3.org/2000/svg" xmlns:xlink="http://www.w3.org/1999/xlink">
 <metadata>
  <rdf:RDF xmlns:cc="http://creativecommons.org/ns#" xmlns:dc="http://purl.org/dc/elements/1.1/" xmlns:rdf="http://www.w3.org/1999/02/22-rdf-syntax-ns#">
   <cc:Work>
    <dc:type rdf:resource="http://purl.org/dc/dcmitype/StillImage"/>
    <dc:date>2021-03-11T19:00:09.840763</dc:date>
    <dc:format>image/svg+xml</dc:format>
    <dc:creator>
     <cc:Agent>
      <dc:title>Matplotlib v3.3.2, https://matplotlib.org/</dc:title>
     </cc:Agent>
    </dc:creator>
   </cc:Work>
  </rdf:RDF>
 </metadata>
 <defs>
  <style type="text/css">*{stroke-linecap:butt;stroke-linejoin:round;}</style>
 </defs>
 <g id="figure_1">
  <g id="patch_1">
   <path d="M 0 345.6 
L 460.8 345.6 
L 460.8 0 
L 0 0 
z
" style="fill:#ffffff;"/>
  </g>
  <g id="axes_1">
   <g id="patch_2">
    <path d="M 57.6 307.584 
L 414.72 307.584 
L 414.72 41.472 
L 57.6 41.472 
z
" style="fill:#ffffff;"/>
   </g>
   <g id="matplotlib.axis_1">
    <g id="xtick_1">
     <g id="line2d_1">
      <defs>
       <path d="M 0 0 
L 0 3.5 
" id="m663f5efd2b" style="stroke:#000000;stroke-width:0.8;"/>
      </defs>
      <g>
       <use style="stroke:#000000;stroke-width:0.8;" x="73.832727" xlink:href="#m663f5efd2b" y="307.584"/>
      </g>
     </g>
     <g id="text_1">
      <!-- 2020-01 -->
      <g transform="translate(52.941321 322.182437)scale(0.1 -0.1)">
       <defs>
        <path d="M 19.1875 8.296875 
L 53.609375 8.296875 
L 53.609375 0 
L 7.328125 0 
L 7.328125 8.296875 
Q 12.9375 14.109375 22.625 23.890625 
Q 32.328125 33.6875 34.8125 36.53125 
Q 39.546875 41.84375 41.421875 45.53125 
Q 43.3125 49.21875 43.3125 52.78125 
Q 43.3125 58.59375 39.234375 62.25 
Q 35.15625 65.921875 28.609375 65.921875 
Q 23.96875 65.921875 18.8125 64.3125 
Q 13.671875 62.703125 7.8125 59.421875 
L 7.8125 69.390625 
Q 13.765625 71.78125 18.9375 73 
Q 24.125 74.21875 28.421875 74.21875 
Q 39.75 74.21875 46.484375 68.546875 
Q 53.21875 62.890625 53.21875 53.421875 
Q 53.21875 48.921875 51.53125 44.890625 
Q 49.859375 40.875 45.40625 35.40625 
Q 44.1875 33.984375 37.640625 27.21875 
Q 31.109375 20.453125 19.1875 8.296875 
z
" id="DejaVuSans-50"/>
        <path d="M 31.78125 66.40625 
Q 24.171875 66.40625 20.328125 58.90625 
Q 16.5 51.421875 16.5 36.375 
Q 16.5 21.390625 20.328125 13.890625 
Q 24.171875 6.390625 31.78125 6.390625 
Q 39.453125 6.390625 43.28125 13.890625 
Q 47.125 21.390625 47.125 36.375 
Q 47.125 51.421875 43.28125 58.90625 
Q 39.453125 66.40625 31.78125 66.40625 
z
M 31.78125 74.21875 
Q 44.046875 74.21875 50.515625 64.515625 
Q 56.984375 54.828125 56.984375 36.375 
Q 56.984375 17.96875 50.515625 8.265625 
Q 44.046875 -1.421875 31.78125 -1.421875 
Q 19.53125 -1.421875 13.0625 8.265625 
Q 6.59375 17.96875 6.59375 36.375 
Q 6.59375 54.828125 13.0625 64.515625 
Q 19.53125 74.21875 31.78125 74.21875 
z
" id="DejaVuSans-48"/>
        <path d="M 4.890625 31.390625 
L 31.203125 31.390625 
L 31.203125 23.390625 
L 4.890625 23.390625 
z
" id="DejaVuSans-45"/>
        <path d="M 12.40625 8.296875 
L 28.515625 8.296875 
L 28.515625 63.921875 
L 10.984375 60.40625 
L 10.984375 69.390625 
L 28.421875 72.90625 
L 38.28125 72.90625 
L 38.28125 8.296875 
L 54.390625 8.296875 
L 54.390625 0 
L 12.40625 0 
z
" id="DejaVuSans-49"/>
       </defs>
       <use xlink:href="#DejaVuSans-50"/>
       <use x="63.623047" xlink:href="#DejaVuSans-48"/>
       <use x="127.246094" xlink:href="#DejaVuSans-50"/>
       <use x="190.869141" xlink:href="#DejaVuSans-48"/>
       <use x="254.492188" xlink:href="#DejaVuSans-45"/>
       <use x="290.576172" xlink:href="#DejaVuSans-48"/>
       <use x="354.199219" xlink:href="#DejaVuSans-49"/>
      </g>
     </g>
    </g>
    <g id="xtick_2">
     <g id="line2d_2">
      <g>
       <use style="stroke:#000000;stroke-width:0.8;" x="118.612665" xlink:href="#m663f5efd2b" y="307.584"/>
      </g>
     </g>
     <g id="text_2">
      <!-- 2020-03 -->
      <g transform="translate(97.721258 322.182437)scale(0.1 -0.1)">
       <defs>
        <path d="M 40.578125 39.3125 
Q 47.65625 37.796875 51.625 33 
Q 55.609375 28.21875 55.609375 21.1875 
Q 55.609375 10.40625 48.1875 4.484375 
Q 40.765625 -1.421875 27.09375 -1.421875 
Q 22.515625 -1.421875 17.65625 -0.515625 
Q 12.796875 0.390625 7.625 2.203125 
L 7.625 11.71875 
Q 11.71875 9.328125 16.59375 8.109375 
Q 21.484375 6.890625 26.8125 6.890625 
Q 36.078125 6.890625 40.9375 10.546875 
Q 45.796875 14.203125 45.796875 21.1875 
Q 45.796875 27.640625 41.28125 31.265625 
Q 36.765625 34.90625 28.71875 34.90625 
L 20.21875 34.90625 
L 20.21875 43.015625 
L 29.109375 43.015625 
Q 36.375 43.015625 40.234375 45.921875 
Q 44.09375 48.828125 44.09375 54.296875 
Q 44.09375 59.90625 40.109375 62.90625 
Q 36.140625 65.921875 28.71875 65.921875 
Q 24.65625 65.921875 20.015625 65.03125 
Q 15.375 64.15625 9.8125 62.3125 
L 9.8125 71.09375 
Q 15.4375 72.65625 20.34375 73.4375 
Q 25.25 74.21875 29.59375 74.21875 
Q 40.828125 74.21875 47.359375 69.109375 
Q 53.90625 64.015625 53.90625 55.328125 
Q 53.90625 49.265625 50.4375 45.09375 
Q 46.96875 40.921875 40.578125 39.3125 
z
" id="DejaVuSans-51"/>
       </defs>
       <use xlink:href="#DejaVuSans-50"/>
       <use x="63.623047" xlink:href="#DejaVuSans-48"/>
       <use x="127.246094" xlink:href="#DejaVuSans-50"/>
       <use x="190.869141" xlink:href="#DejaVuSans-48"/>
       <use x="254.492188" xlink:href="#DejaVuSans-45"/>
       <use x="290.576172" xlink:href="#DejaVuSans-48"/>
       <use x="354.199219" xlink:href="#DejaVuSans-51"/>
      </g>
     </g>
    </g>
    <g id="xtick_3">
     <g id="line2d_3">
      <g>
       <use style="stroke:#000000;stroke-width:0.8;" x="164.138934" xlink:href="#m663f5efd2b" y="307.584"/>
      </g>
     </g>
     <g id="text_3">
      <!-- 2020-05 -->
      <g transform="translate(143.247528 322.182437)scale(0.1 -0.1)">
       <defs>
        <path d="M 10.796875 72.90625 
L 49.515625 72.90625 
L 49.515625 64.59375 
L 19.828125 64.59375 
L 19.828125 46.734375 
Q 21.96875 47.46875 24.109375 47.828125 
Q 26.265625 48.1875 28.421875 48.1875 
Q 40.625 48.1875 47.75 41.5 
Q 54.890625 34.8125 54.890625 23.390625 
Q 54.890625 11.625 47.5625 5.09375 
Q 40.234375 -1.421875 26.90625 -1.421875 
Q 22.3125 -1.421875 17.546875 -0.640625 
Q 12.796875 0.140625 7.71875 1.703125 
L 7.71875 11.625 
Q 12.109375 9.234375 16.796875 8.0625 
Q 21.484375 6.890625 26.703125 6.890625 
Q 35.15625 6.890625 40.078125 11.328125 
Q 45.015625 15.765625 45.015625 23.390625 
Q 45.015625 31 40.078125 35.4375 
Q 35.15625 39.890625 26.703125 39.890625 
Q 22.75 39.890625 18.8125 39.015625 
Q 14.890625 38.140625 10.796875 36.28125 
z
" id="DejaVuSans-53"/>
       </defs>
       <use xlink:href="#DejaVuSans-50"/>
       <use x="63.623047" xlink:href="#DejaVuSans-48"/>
       <use x="127.246094" xlink:href="#DejaVuSans-50"/>
       <use x="190.869141" xlink:href="#DejaVuSans-48"/>
       <use x="254.492188" xlink:href="#DejaVuSans-45"/>
       <use x="290.576172" xlink:href="#DejaVuSans-48"/>
       <use x="354.199219" xlink:href="#DejaVuSans-53"/>
      </g>
     </g>
    </g>
    <g id="xtick_4">
     <g id="line2d_4">
      <g>
       <use style="stroke:#000000;stroke-width:0.8;" x="209.665204" xlink:href="#m663f5efd2b" y="307.584"/>
      </g>
     </g>
     <g id="text_4">
      <!-- 2020-07 -->
      <g transform="translate(188.773798 322.182437)scale(0.1 -0.1)">
       <defs>
        <path d="M 8.203125 72.90625 
L 55.078125 72.90625 
L 55.078125 68.703125 
L 28.609375 0 
L 18.3125 0 
L 43.21875 64.59375 
L 8.203125 64.59375 
z
" id="DejaVuSans-55"/>
       </defs>
       <use xlink:href="#DejaVuSans-50"/>
       <use x="63.623047" xlink:href="#DejaVuSans-48"/>
       <use x="127.246094" xlink:href="#DejaVuSans-50"/>
       <use x="190.869141" xlink:href="#DejaVuSans-48"/>
       <use x="254.492188" xlink:href="#DejaVuSans-45"/>
       <use x="290.576172" xlink:href="#DejaVuSans-48"/>
       <use x="354.199219" xlink:href="#DejaVuSans-55"/>
      </g>
     </g>
    </g>
    <g id="xtick_5">
     <g id="line2d_5">
      <g>
       <use style="stroke:#000000;stroke-width:0.8;" x="255.937806" xlink:href="#m663f5efd2b" y="307.584"/>
      </g>
     </g>
     <g id="text_5">
      <!-- 2020-09 -->
      <g transform="translate(235.046399 322.182437)scale(0.1 -0.1)">
       <defs>
        <path d="M 10.984375 1.515625 
L 10.984375 10.5 
Q 14.703125 8.734375 18.5 7.8125 
Q 22.3125 6.890625 25.984375 6.890625 
Q 35.75 6.890625 40.890625 13.453125 
Q 46.046875 20.015625 46.78125 33.40625 
Q 43.953125 29.203125 39.59375 26.953125 
Q 35.25 24.703125 29.984375 24.703125 
Q 19.046875 24.703125 12.671875 31.3125 
Q 6.296875 37.9375 6.296875 49.421875 
Q 6.296875 60.640625 12.9375 67.421875 
Q 19.578125 74.21875 30.609375 74.21875 
Q 43.265625 74.21875 49.921875 64.515625 
Q 56.59375 54.828125 56.59375 36.375 
Q 56.59375 19.140625 48.40625 8.859375 
Q 40.234375 -1.421875 26.421875 -1.421875 
Q 22.703125 -1.421875 18.890625 -0.6875 
Q 15.09375 0.046875 10.984375 1.515625 
z
M 30.609375 32.421875 
Q 37.25 32.421875 41.125 36.953125 
Q 45.015625 41.5 45.015625 49.421875 
Q 45.015625 57.28125 41.125 61.84375 
Q 37.25 66.40625 30.609375 66.40625 
Q 23.96875 66.40625 20.09375 61.84375 
Q 16.21875 57.28125 16.21875 49.421875 
Q 16.21875 41.5 20.09375 36.953125 
Q 23.96875 32.421875 30.609375 32.421875 
z
" id="DejaVuSans-57"/>
       </defs>
       <use xlink:href="#DejaVuSans-50"/>
       <use x="63.623047" xlink:href="#DejaVuSans-48"/>
       <use x="127.246094" xlink:href="#DejaVuSans-50"/>
       <use x="190.869141" xlink:href="#DejaVuSans-48"/>
       <use x="254.492188" xlink:href="#DejaVuSans-45"/>
       <use x="290.576172" xlink:href="#DejaVuSans-48"/>
       <use x="354.199219" xlink:href="#DejaVuSans-57"/>
      </g>
     </g>
    </g>
    <g id="xtick_6">
     <g id="line2d_6">
      <g>
       <use style="stroke:#000000;stroke-width:0.8;" x="301.464075" xlink:href="#m663f5efd2b" y="307.584"/>
      </g>
     </g>
     <g id="text_6">
      <!-- 2020-11 -->
      <g transform="translate(280.572669 322.182437)scale(0.1 -0.1)">
       <use xlink:href="#DejaVuSans-50"/>
       <use x="63.623047" xlink:href="#DejaVuSans-48"/>
       <use x="127.246094" xlink:href="#DejaVuSans-50"/>
       <use x="190.869141" xlink:href="#DejaVuSans-48"/>
       <use x="254.492188" xlink:href="#DejaVuSans-45"/>
       <use x="290.576172" xlink:href="#DejaVuSans-49"/>
       <use x="354.199219" xlink:href="#DejaVuSans-49"/>
      </g>
     </g>
    </g>
    <g id="xtick_7">
     <g id="line2d_7">
      <g>
       <use style="stroke:#000000;stroke-width:0.8;" x="346.990345" xlink:href="#m663f5efd2b" y="307.584"/>
      </g>
     </g>
     <g id="text_7">
      <!-- 2021-01 -->
      <g transform="translate(326.098939 322.182437)scale(0.1 -0.1)">
       <use xlink:href="#DejaVuSans-50"/>
       <use x="63.623047" xlink:href="#DejaVuSans-48"/>
       <use x="127.246094" xlink:href="#DejaVuSans-50"/>
       <use x="190.869141" xlink:href="#DejaVuSans-49"/>
       <use x="254.492188" xlink:href="#DejaVuSans-45"/>
       <use x="290.576172" xlink:href="#DejaVuSans-48"/>
       <use x="354.199219" xlink:href="#DejaVuSans-49"/>
      </g>
     </g>
    </g>
    <g id="xtick_8">
     <g id="line2d_8">
      <g>
       <use style="stroke:#000000;stroke-width:0.8;" x="391.02395" xlink:href="#m663f5efd2b" y="307.584"/>
      </g>
     </g>
     <g id="text_8">
      <!-- 2021-03 -->
      <g transform="translate(370.132544 322.182437)scale(0.1 -0.1)">
       <use xlink:href="#DejaVuSans-50"/>
       <use x="63.623047" xlink:href="#DejaVuSans-48"/>
       <use x="127.246094" xlink:href="#DejaVuSans-50"/>
       <use x="190.869141" xlink:href="#DejaVuSans-49"/>
       <use x="254.492188" xlink:href="#DejaVuSans-45"/>
       <use x="290.576172" xlink:href="#DejaVuSans-48"/>
       <use x="354.199219" xlink:href="#DejaVuSans-51"/>
      </g>
     </g>
    </g>
   </g>
   <g id="matplotlib.axis_2">
    <g id="ytick_1">
     <g id="line2d_9">
      <defs>
       <path d="M 0 0 
L -3.5 0 
" id="ma94ef056cc" style="stroke:#000000;stroke-width:0.8;"/>
      </defs>
      <g>
       <use style="stroke:#000000;stroke-width:0.8;" x="57.6" xlink:href="#ma94ef056cc" y="292.830176"/>
      </g>
     </g>
     <g id="text_9">
      <!-- −1000 -->
      <g transform="translate(16.770313 296.629395)scale(0.1 -0.1)">
       <defs>
        <path d="M 10.59375 35.5 
L 73.1875 35.5 
L 73.1875 27.203125 
L 10.59375 27.203125 
z
" id="DejaVuSans-8722"/>
       </defs>
       <use xlink:href="#DejaVuSans-8722"/>
       <use x="83.789062" xlink:href="#DejaVuSans-49"/>
       <use x="147.412109" xlink:href="#DejaVuSans-48"/>
       <use x="211.035156" xlink:href="#DejaVuSans-48"/>
       <use x="274.658203" xlink:href="#DejaVuSans-48"/>
      </g>
     </g>
    </g>
    <g id="ytick_2">
     <g id="line2d_10">
      <g>
       <use style="stroke:#000000;stroke-width:0.8;" x="57.6" xlink:href="#ma94ef056cc" y="254.953134"/>
      </g>
     </g>
     <g id="text_10">
      <!-- 0 -->
      <g transform="translate(44.2375 258.752353)scale(0.1 -0.1)">
       <use xlink:href="#DejaVuSans-48"/>
      </g>
     </g>
    </g>
    <g id="ytick_3">
     <g id="line2d_11">
      <g>
       <use style="stroke:#000000;stroke-width:0.8;" x="57.6" xlink:href="#ma94ef056cc" y="217.076092"/>
      </g>
     </g>
     <g id="text_11">
      <!-- 1000 -->
      <g transform="translate(25.15 220.87531)scale(0.1 -0.1)">
       <use xlink:href="#DejaVuSans-49"/>
       <use x="63.623047" xlink:href="#DejaVuSans-48"/>
       <use x="127.246094" xlink:href="#DejaVuSans-48"/>
       <use x="190.869141" xlink:href="#DejaVuSans-48"/>
      </g>
     </g>
    </g>
    <g id="ytick_4">
     <g id="line2d_12">
      <g>
       <use style="stroke:#000000;stroke-width:0.8;" x="57.6" xlink:href="#ma94ef056cc" y="179.199049"/>
      </g>
     </g>
     <g id="text_12">
      <!-- 2000 -->
      <g transform="translate(25.15 182.998268)scale(0.1 -0.1)">
       <use xlink:href="#DejaVuSans-50"/>
       <use x="63.623047" xlink:href="#DejaVuSans-48"/>
       <use x="127.246094" xlink:href="#DejaVuSans-48"/>
       <use x="190.869141" xlink:href="#DejaVuSans-48"/>
      </g>
     </g>
    </g>
    <g id="ytick_5">
     <g id="line2d_13">
      <g>
       <use style="stroke:#000000;stroke-width:0.8;" x="57.6" xlink:href="#ma94ef056cc" y="141.322007"/>
      </g>
     </g>
     <g id="text_13">
      <!-- 3000 -->
      <g transform="translate(25.15 145.121226)scale(0.1 -0.1)">
       <use xlink:href="#DejaVuSans-51"/>
       <use x="63.623047" xlink:href="#DejaVuSans-48"/>
       <use x="127.246094" xlink:href="#DejaVuSans-48"/>
       <use x="190.869141" xlink:href="#DejaVuSans-48"/>
      </g>
     </g>
    </g>
    <g id="ytick_6">
     <g id="line2d_14">
      <g>
       <use style="stroke:#000000;stroke-width:0.8;" x="57.6" xlink:href="#ma94ef056cc" y="103.444965"/>
      </g>
     </g>
     <g id="text_14">
      <!-- 4000 -->
      <g transform="translate(25.15 107.244184)scale(0.1 -0.1)">
       <defs>
        <path d="M 37.796875 64.3125 
L 12.890625 25.390625 
L 37.796875 25.390625 
z
M 35.203125 72.90625 
L 47.609375 72.90625 
L 47.609375 25.390625 
L 58.015625 25.390625 
L 58.015625 17.1875 
L 47.609375 17.1875 
L 47.609375 0 
L 37.796875 0 
L 37.796875 17.1875 
L 4.890625 17.1875 
L 4.890625 26.703125 
z
" id="DejaVuSans-52"/>
       </defs>
       <use xlink:href="#DejaVuSans-52"/>
       <use x="63.623047" xlink:href="#DejaVuSans-48"/>
       <use x="127.246094" xlink:href="#DejaVuSans-48"/>
       <use x="190.869141" xlink:href="#DejaVuSans-48"/>
      </g>
     </g>
    </g>
    <g id="ytick_7">
     <g id="line2d_15">
      <g>
       <use style="stroke:#000000;stroke-width:0.8;" x="57.6" xlink:href="#ma94ef056cc" y="65.567923"/>
      </g>
     </g>
     <g id="text_15">
      <!-- 5000 -->
      <g transform="translate(25.15 69.367142)scale(0.1 -0.1)">
       <use xlink:href="#DejaVuSans-53"/>
       <use x="63.623047" xlink:href="#DejaVuSans-48"/>
       <use x="127.246094" xlink:href="#DejaVuSans-48"/>
       <use x="190.869141" xlink:href="#DejaVuSans-48"/>
      </g>
     </g>
    </g>
   </g>
   <g id="line2d_16">
    <path clip-path="url(#pabcc0bed5e)" d="M 73.832727 254.953134 
L 398.487273 254.953134 
L 398.487273 254.953134 
" style="fill:none;stroke:#1f77b4;stroke-dasharray:5.55,2.4;stroke-dashoffset:0;stroke-width:1.5;"/>
   </g>
   <g id="line2d_17">
    <path clip-path="url(#pabcc0bed5e)" d="M 73.832727 254.953134 
L 74.57906 255.635768 
L 76.071724 254.516831 
L 76.818056 254.127851 
L 77.564389 252.633831 
L 78.310721 250.261433 
L 79.057053 248.837312 
L 79.803386 248.448957 
L 80.549718 247.123368 
L 81.29605 246.67209 
L 82.042382 245.940405 
L 82.788715 245.674503 
L 83.535047 243.499542 
L 84.281379 241.933289 
L 85.027712 241.088691 
L 85.774044 240.051949 
L 86.520376 239.379331 
L 87.266708 239.640058 
L 88.013041 240.20078 
L 88.759373 240.522708 
L 89.505705 241.15996 
L 90.252038 242.569346 
L 91.744702 245.017478 
L 92.491034 245.381923 
L 93.237367 244.898723 
L 93.983699 243.181365 
L 94.730031 242.236567 
L 95.476364 241.025327 
L 96.969028 240.54297 
L 97.715361 240.684495 
L 98.461693 241.057347 
L 99.208025 241.863272 
L 99.954357 241.324594 
L 101.447022 240.067594 
L 102.193354 239.559774 
L 102.939687 238.557048 
L 103.686019 238.830905 
L 105.178683 237.386743 
L 105.925016 237.374406 
L 106.671348 237.217377 
L 108.910345 241.609065 
L 109.656677 241.739507 
L 110.403009 243.690911 
L 111.149342 245.320142 
L 112.642006 247.64534 
L 113.388339 247.69439 
L 114.134671 248.715184 
L 114.881003 250.634774 
L 115.627335 253.744108 
L 117.12 258.381793 
L 117.866332 260.53957 
L 118.612665 262.173966 
L 119.358997 262.241352 
L 120.105329 262.678469 
L 120.851661 262.88467 
L 121.597994 262.110357 
L 122.344326 261.164518 
L 123.090658 261.037594 
L 124.583323 265.588066 
L 125.329655 267.196582 
L 126.075987 268.230532 
L 126.82232 278.063545 
L 128.314984 288.265754 
L 129.807649 294.403254 
L 130.553981 295.360003 
L 131.300313 295.488 
L 132.792978 290.178161 
L 133.53931 287.796635 
L 134.285643 286.671707 
L 137.270972 274.204962 
L 138.017304 272.95932 
L 138.763636 272.111624 
L 139.509969 272.373713 
L 141.748966 267.327765 
L 142.495298 265.170665 
L 143.987962 261.821931 
L 144.734295 260.658292 
L 145.480627 258.000379 
L 147.719624 253.240241 
L 149.212288 253.722978 
L 149.958621 253.823702 
L 151.451285 254.281321 
L 152.197618 255.117909 
L 152.94395 254.355745 
L 153.690282 254.016308 
L 154.436614 253.077416 
L 155.182947 252.735335 
L 155.929279 253.352762 
L 156.675611 253.809808 
L 157.421944 253.360078 
L 158.168276 251.972862 
L 161.153605 247.671752 
L 161.899937 246.982933 
L 162.64627 243.461419 
L 164.885266 237.103555 
L 165.631599 235.938476 
L 167.124263 234.666387 
L 167.870596 233.953232 
L 168.616928 231.164981 
L 169.36326 229.7939 
L 170.109592 229.720329 
L 171.602257 235.297701 
L 172.348589 237.096941 
L 173.094922 237.19246 
L 173.841254 236.049554 
L 174.587586 236.817485 
L 175.333918 237.421024 
L 176.080251 237.231717 
L 177.572915 237.10515 
L 178.319248 238.065852 
L 179.06558 240.32635 
L 180.558245 243.362959 
L 181.304577 245.975121 
L 182.797241 249.155784 
L 183.543574 249.312652 
L 184.289906 248.419502 
L 185.036238 248.222473 
L 185.782571 247.332195 
L 186.528903 247.452433 
L 187.275235 245.375321 
L 188.021567 245.831918 
L 188.7679 245.912041 
L 189.514232 245.735544 
L 191.006897 246.413346 
L 193.245893 246.788968 
L 193.992226 246.690186 
L 194.738558 248.498007 
L 196.977555 251.296362 
L 197.723887 251.942868 
L 198.470219 252.131029 
L 199.216552 252.533698 
L 199.962884 253.094363 
L 200.709216 253.797026 
L 201.455549 254.213449 
L 202.201881 254.75803 
L 202.948213 254.045297 
L 203.694545 253.659352 
L 205.18721 254.965396 
L 205.933542 255.752868 
L 206.679875 256.819045 
L 207.426207 257.313322 
L 208.918871 257.700631 
L 209.665204 257.58105 
L 211.157868 258.137046 
L 211.904201 258.101426 
L 212.650533 258.210488 
L 213.396865 257.50139 
L 214.143197 257.123589 
L 214.88953 256.324534 
L 217.128527 255.953422 
L 217.874859 255.725964 
L 220.113856 255.826299 
L 221.60652 256.200282 
L 222.352853 256.233258 
L 223.099185 256.133147 
L 223.845517 256.188416 
L 224.59185 255.570369 
L 226.084514 253.638128 
L 226.830846 253.091971 
L 227.577179 252.175885 
L 228.323511 250.812487 
L 229.069843 246.560457 
L 230.562508 240.802983 
L 232.055172 236.60024 
L 232.801505 233.763186 
L 233.547837 234.046719 
L 234.294169 233.94353 
L 235.040502 234.280897 
L 235.786834 233.131368 
L 236.533166 232.356294 
L 237.279498 232.447507 
L 238.025831 232.345568 
L 238.772163 232.769854 
L 239.518495 232.725668 
L 240.264828 234.432407 
L 241.01116 235.509538 
L 241.757492 235.941733 
L 242.503824 236.541472 
L 243.996489 237.323127 
L 244.742821 236.699195 
L 245.489154 237.441595 
L 246.235486 238.648613 
L 246.981818 239.589889 
L 247.72815 241.410212 
L 249.220815 243.794159 
L 249.967147 244.514531 
L 250.71348 246.485326 
L 252.206144 249.164393 
L 253.698809 250.512507 
L 254.445141 250.393769 
L 255.191473 250.478833 
L 255.937806 249.802284 
L 256.684138 250.863153 
L 257.43047 255.42297 
L 258.923135 261.158891 
L 259.669467 263.165598 
L 260.415799 264.303926 
L 261.162132 265.830929 
L 261.908464 266.645221 
L 262.654796 266.771838 
L 263.401129 266.609785 
L 264.147461 266.190982 
L 264.893793 266.060996 
L 266.386458 263.384757 
L 267.13279 261.649824 
L 269.371787 257.759465 
L 270.118119 257.125695 
L 270.864451 258.076588 
L 271.610784 258.447178 
L 272.357116 259.605423 
L 273.103448 259.002921 
L 274.596113 258.13978 
L 275.342445 257.612946 
L 276.088777 257.434136 
L 276.83511 256.825335 
L 277.581442 256.488847 
L 279.074107 256.924921 
L 279.820439 257.167284 
L 280.566771 256.972021 
L 281.313103 256.492468 
L 282.059436 256.56358 
L 282.805768 256.469403 
L 284.298433 254.5661 
L 286.537429 249.968375 
L 287.283762 249.053045 
L 288.776426 247.798748 
L 290.269091 247.982478 
L 291.015423 247.672855 
L 291.761755 246.818349 
L 292.508088 245.72821 
L 294.000752 239.233722 
L 295.493417 235.17143 
L 296.239749 234.066723 
L 296.986082 233.308375 
L 297.732414 231.184636 
L 298.478746 230.925592 
L 299.971411 230.055564 
L 300.717743 229.339452 
L 301.464075 229.177071 
L 302.210408 229.94242 
L 302.95674 229.568853 
L 303.703072 229.034787 
L 304.449404 224.720482 
L 305.195737 221.607103 
L 305.942069 221.787345 
L 306.688401 220.365962 
L 307.434734 219.966659 
L 308.181066 220.22549 
L 308.927398 219.608634 
L 309.67373 217.787267 
L 310.420063 216.731693 
L 311.166395 217.026484 
L 311.912727 218.027879 
L 312.65906 217.01319 
L 313.405392 213.760315 
L 314.151724 211.295297 
L 314.898056 209.753317 
L 315.644389 206.510906 
L 316.390721 204.528965 
L 317.137053 204.346865 
L 317.883386 204.860257 
L 318.629718 203.6751 
L 319.37605 204.432985 
L 320.868715 215.42523 
L 321.615047 218.152732 
L 322.361379 219.345604 
L 323.107712 216.209553 
L 323.854044 216.938028 
L 325.346708 216.132648 
L 326.093041 218.412933 
L 326.839373 219.187151 
L 327.585705 219.530649 
L 328.332038 220.784053 
L 329.07837 224.728897 
L 329.824702 227.459994 
L 331.317367 234.4615 
L 332.063699 235.159792 
L 333.556364 234.658556 
L 334.302696 234.181796 
L 335.049028 228.338932 
L 336.541693 212.177904 
L 337.288025 204.723616 
L 338.034357 200.357966 
L 338.78069 199.854755 
L 339.527022 196.713351 
L 340.273354 196.690719 
L 341.019687 195.945071 
L 341.766019 193.186928 
L 342.512351 186.426447 
L 343.258683 182.377188 
L 344.005016 177.624849 
L 344.751348 173.931574 
L 345.49768 167.465973 
L 346.244013 162.937491 
L 346.990345 159.318012 
L 348.483009 139.719092 
L 349.229342 136.638992 
L 349.975674 129.620986 
L 350.722006 117.299141 
L 352.214671 85.42093 
L 352.961003 77.06184 
L 353.707335 78.644502 
L 354.453668 89.90467 
L 355.2 104.156494 
L 355.946332 109.025011 
L 356.692665 108.588513 
L 357.438997 116.698534 
L 358.931661 137.374827 
L 359.677994 144.481176 
L 361.170658 162.452006 
L 361.916991 184.321217 
L 363.409655 209.460618 
L 364.155987 219.455324 
L 364.90232 227.515822 
L 365.648652 233.655691 
L 366.394984 244.773718 
L 367.141317 244.799023 
L 367.887649 242.474652 
L 368.633981 240.90954 
L 369.380313 243.219112 
L 370.126646 243.971068 
L 370.872978 238.795535 
L 371.61931 228.942258 
L 372.365643 222.902917 
L 373.111975 215.728835 
L 373.858307 206.758761 
L 374.604639 201.502721 
L 375.350972 175.464956 
L 376.097304 156.021449 
L 376.843636 146.037958 
L 377.589969 130.297406 
L 378.336301 120.785689 
L 379.082633 115.608845 
L 379.828966 109.010723 
L 380.575298 107.085938 
L 381.32163 103.178273 
L 382.067962 93.294664 
L 382.814295 88.822259 
L 383.560627 73.891609 
L 385.053292 53.568 
L 385.799624 58.100475 
L 390.277618 176.469665 
L 391.02395 179.207309 
L 391.770282 185.543679 
L 392.516614 185.922463 
L 393.262947 191.934396 
L 394.755611 201.478535 
L 395.501944 199.810768 
L 396.248276 194.171509 
L 397.74094 172.38334 
L 398.487273 159.457287 
L 398.487273 159.457287 
" style="fill:none;stroke:#0000ff;stroke-linecap:square;stroke-width:1.5;"/>
   </g>
   <g id="line2d_18">
    <path clip-path="url(#pabcc0bed5e)" d="M 73.832727 254.953134 
L 74.57906 255.089661 
L 76.071724 254.9651 
L 76.818056 254.79765 
L 77.564389 254.364886 
L 79.803386 251.772046 
L 81.29605 250.008267 
L 83.535047 247.492433 
L 85.774044 244.268167 
L 86.520376 243.2904 
L 87.266708 242.560331 
L 88.013041 242.088421 
L 88.759373 241.775278 
L 89.505705 241.652215 
L 90.252038 241.835641 
L 90.99837 242.209015 
L 92.491034 243.292951 
L 93.237367 243.614105 
L 93.983699 243.527557 
L 94.730031 243.269359 
L 96.969028 242.030344 
L 97.715361 241.761175 
L 98.461693 241.620409 
L 99.208025 241.668982 
L 99.954357 241.600104 
L 101.447022 241.138799 
L 102.193354 240.822994 
L 102.939687 240.369805 
L 104.432351 239.663335 
L 105.925016 238.841294 
L 106.671348 238.516511 
L 107.41768 238.53714 
L 108.164013 238.795972 
L 110.403009 240.606001 
L 114.881003 246.331843 
L 116.373668 249.48598 
L 119.358997 256.392923 
L 120.851661 258.69696 
L 121.597994 259.379639 
L 123.090658 259.996811 
L 123.836991 260.691282 
L 125.329655 262.775827 
L 126.075987 263.866768 
L 126.82232 266.706124 
L 128.314984 273.656879 
L 129.807649 280.64527 
L 130.553981 283.588216 
L 131.300313 285.968173 
L 132.046646 287.316192 
L 132.792978 287.888586 
L 133.53931 287.870196 
L 134.285643 287.630498 
L 135.031975 286.797368 
L 135.778307 285.401317 
L 138.763636 278.446537 
L 141.002633 274.621578 
L 142.495298 271.564385 
L 146.226959 263.297657 
L 147.719624 259.871976 
L 148.465956 258.604265 
L 149.212288 257.628008 
L 149.958621 256.867147 
L 150.704953 256.312594 
L 151.451285 255.906339 
L 152.197618 255.748653 
L 153.690282 255.179319 
L 155.182947 254.354217 
L 155.929279 254.153926 
L 157.421944 253.940098 
L 158.168276 253.546651 
L 159.66094 252.395727 
L 161.899937 250.091654 
L 163.392602 247.266257 
L 166.377931 240.932968 
L 168.616928 237.060491 
L 169.36326 235.607173 
L 170.109592 234.429804 
L 170.855925 234.028888 
L 171.602257 234.282651 
L 173.094922 235.314899 
L 173.841254 235.46183 
L 176.826583 236.476259 
L 177.572915 236.602037 
L 178.319248 236.8948 
L 179.06558 237.58111 
L 180.558245 239.435569 
L 183.543574 244.679453 
L 184.289906 245.427463 
L 185.036238 245.986465 
L 186.528903 246.494975 
L 187.275235 246.271044 
L 189.514232 246.050295 
L 191.006897 246.136465 
L 193.992226 246.451905 
L 195.48489 247.372212 
L 196.977555 248.610535 
L 198.470219 249.847807 
L 202.201881 252.58633 
L 202.948213 252.878123 
L 204.440878 253.285736 
L 205.933542 254.047908 
L 208.172539 255.610428 
L 209.665204 256.338985 
L 211.904201 257.173717 
L 212.650533 257.381071 
L 214.143197 257.348826 
L 217.874859 256.425603 
L 220.113856 256.099877 
L 224.59185 256.031612 
L 225.338182 255.747626 
L 226.830846 254.878975 
L 227.577179 254.338357 
L 228.323511 253.633183 
L 229.069843 252.218638 
L 230.562508 248.547518 
L 233.547837 240.756787 
L 234.294169 239.394135 
L 236.533166 236.33003 
L 238.025831 234.911934 
L 239.518495 234.131948 
L 240.264828 234.19204 
L 241.757492 234.752778 
L 243.996489 235.847281 
L 244.742821 236.017664 
L 245.489154 236.30245 
L 246.981818 237.335324 
L 248.474483 239.046167 
L 250.71348 242.01668 
L 253.698809 246.469994 
L 255.191473 247.899566 
L 255.937806 248.28011 
L 256.684138 248.796718 
L 257.43047 250.121969 
L 258.176803 251.728057 
L 261.162132 258.990493 
L 261.908464 260.521439 
L 262.654796 261.771519 
L 263.401129 262.739172 
L 264.147461 263.429534 
L 264.893793 263.955826 
L 265.640125 264.130635 
L 266.386458 263.981459 
L 267.13279 263.515132 
L 268.625455 262.125097 
L 270.118119 260.426715 
L 270.864451 259.95669 
L 271.610784 259.654787 
L 272.357116 259.644915 
L 273.849781 259.332252 
L 276.088777 258.524904 
L 278.327774 257.611865 
L 279.820439 257.413037 
L 282.059436 257.039405 
L 282.805768 256.925404 
L 283.5521 256.659956 
L 284.298433 256.241185 
L 285.044765 255.5927 
L 286.537429 253.82106 
L 288.030094 251.987529 
L 288.776426 251.149772 
L 290.269091 250.0005 
L 291.761755 248.991647 
L 292.508088 248.338959 
L 293.25442 247.140406 
L 295.493417 242.14015 
L 297.732414 237.502565 
L 299.225078 235.038332 
L 300.717743 233.101313 
L 301.464075 232.316465 
L 303.703072 230.916634 
L 304.449404 229.677403 
L 305.195737 228.063343 
L 307.434734 224.409098 
L 309.67373 221.781155 
L 310.420063 220.771263 
L 311.166395 220.022307 
L 312.65906 219.101375 
L 313.405392 218.033163 
L 314.898056 215.299135 
L 317.137053 210.260561 
L 318.629718 208.07942 
L 319.37605 207.350133 
L 320.122382 207.930363 
L 321.615047 211.174016 
L 322.361379 212.808333 
L 323.854044 214.178467 
L 324.600376 214.65926 
L 325.346708 214.953938 
L 328.332038 217.748287 
L 329.07837 219.144409 
L 329.824702 220.807526 
L 332.810031 228.715389 
L 333.556364 229.904022 
L 334.302696 230.759577 
L 335.049028 230.275448 
L 335.795361 228.153056 
L 336.541693 224.958026 
L 338.78069 213.411358 
L 339.527022 210.071756 
L 341.019687 205.105453 
L 341.766019 202.721748 
L 343.258683 196.045588 
L 345.49768 184.433568 
L 346.990345 175.971084 
L 347.736677 170.603247 
L 349.229342 158.868931 
L 349.975674 153.019342 
L 350.722006 145.875302 
L 352.214671 126.527817 
L 352.961003 116.634622 
L 353.707335 109.036598 
L 354.453668 105.210212 
L 355.2 104.999469 
L 355.946332 105.804577 
L 356.692665 106.361364 
L 357.438997 108.428798 
L 358.185329 112.161881 
L 359.677994 122.659811 
L 361.170658 135.49736 
L 362.663323 155.556054 
L 364.90232 187.071675 
L 367.141317 213.812226 
L 367.887649 219.544711 
L 369.380313 227.697964 
L 370.126646 230.952584 
L 370.872978 232.521174 
L 371.61931 231.805391 
L 372.365643 230.024896 
L 373.111975 227.165684 
L 374.604639 218.767984 
L 375.350972 210.107378 
L 379.828966 146.369422 
L 382.067962 123.815601 
L 382.814295 116.816932 
L 385.799624 83.756924 
L 386.545956 82.659859 
L 387.292288 85.233784 
L 388.038621 91.568203 
L 388.784953 100.983952 
L 391.770282 145.844769 
L 393.262947 161.475125 
L 394.755611 175.143495 
L 395.501944 180.076949 
L 396.248276 182.895861 
L 396.994608 182.989778 
L 397.74094 180.86849 
L 398.487273 176.586249 
L 398.487273 176.586249 
" style="fill:none;stroke:#ff6347;stroke-linecap:square;stroke-width:1.5;"/>
   </g>
   <g id="patch_3">
    <path d="M 57.6 307.584 
L 57.6 41.472 
" style="fill:none;stroke:#000000;stroke-linecap:square;stroke-linejoin:miter;stroke-width:0.8;"/>
   </g>
   <g id="patch_4">
    <path d="M 414.72 307.584 
L 414.72 41.472 
" style="fill:none;stroke:#000000;stroke-linecap:square;stroke-linejoin:miter;stroke-width:0.8;"/>
   </g>
   <g id="patch_5">
    <path d="M 57.6 307.584 
L 414.72 307.584 
" style="fill:none;stroke:#000000;stroke-linecap:square;stroke-linejoin:miter;stroke-width:0.8;"/>
   </g>
   <g id="patch_6">
    <path d="M 57.6 41.472 
L 414.72 41.472 
" style="fill:none;stroke:#000000;stroke-linecap:square;stroke-linejoin:miter;stroke-width:0.8;"/>
   </g>
   <g id="text_16">
    <!-- Data source: nomics -->
    <g transform="translate(184.91625 35.472)scale(0.1 -0.1)">
     <defs>
      <path d="M 19.671875 64.796875 
L 19.671875 8.109375 
L 31.59375 8.109375 
Q 46.6875 8.109375 53.6875 14.9375 
Q 60.6875 21.78125 60.6875 36.53125 
Q 60.6875 51.171875 53.6875 57.984375 
Q 46.6875 64.796875 31.59375 64.796875 
z
M 9.8125 72.90625 
L 30.078125 72.90625 
Q 51.265625 72.90625 61.171875 64.09375 
Q 71.09375 55.28125 71.09375 36.53125 
Q 71.09375 17.671875 61.125 8.828125 
Q 51.171875 0 30.078125 0 
L 9.8125 0 
z
" id="DejaVuSans-68"/>
      <path d="M 34.28125 27.484375 
Q 23.390625 27.484375 19.1875 25 
Q 14.984375 22.515625 14.984375 16.5 
Q 14.984375 11.71875 18.140625 8.90625 
Q 21.296875 6.109375 26.703125 6.109375 
Q 34.1875 6.109375 38.703125 11.40625 
Q 43.21875 16.703125 43.21875 25.484375 
L 43.21875 27.484375 
z
M 52.203125 31.203125 
L 52.203125 0 
L 43.21875 0 
L 43.21875 8.296875 
Q 40.140625 3.328125 35.546875 0.953125 
Q 30.953125 -1.421875 24.3125 -1.421875 
Q 15.921875 -1.421875 10.953125 3.296875 
Q 6 8.015625 6 15.921875 
Q 6 25.140625 12.171875 29.828125 
Q 18.359375 34.515625 30.609375 34.515625 
L 43.21875 34.515625 
L 43.21875 35.40625 
Q 43.21875 41.609375 39.140625 45 
Q 35.0625 48.390625 27.6875 48.390625 
Q 23 48.390625 18.546875 47.265625 
Q 14.109375 46.140625 10.015625 43.890625 
L 10.015625 52.203125 
Q 14.9375 54.109375 19.578125 55.046875 
Q 24.21875 56 28.609375 56 
Q 40.484375 56 46.34375 49.84375 
Q 52.203125 43.703125 52.203125 31.203125 
z
" id="DejaVuSans-97"/>
      <path d="M 18.3125 70.21875 
L 18.3125 54.6875 
L 36.8125 54.6875 
L 36.8125 47.703125 
L 18.3125 47.703125 
L 18.3125 18.015625 
Q 18.3125 11.328125 20.140625 9.421875 
Q 21.96875 7.515625 27.59375 7.515625 
L 36.8125 7.515625 
L 36.8125 0 
L 27.59375 0 
Q 17.1875 0 13.234375 3.875 
Q 9.28125 7.765625 9.28125 18.015625 
L 9.28125 47.703125 
L 2.6875 47.703125 
L 2.6875 54.6875 
L 9.28125 54.6875 
L 9.28125 70.21875 
z
" id="DejaVuSans-116"/>
      <path id="DejaVuSans-32"/>
      <path d="M 44.28125 53.078125 
L 44.28125 44.578125 
Q 40.484375 46.53125 36.375 47.5 
Q 32.28125 48.484375 27.875 48.484375 
Q 21.1875 48.484375 17.84375 46.4375 
Q 14.5 44.390625 14.5 40.28125 
Q 14.5 37.15625 16.890625 35.375 
Q 19.28125 33.59375 26.515625 31.984375 
L 29.59375 31.296875 
Q 39.15625 29.25 43.1875 25.515625 
Q 47.21875 21.78125 47.21875 15.09375 
Q 47.21875 7.46875 41.1875 3.015625 
Q 35.15625 -1.421875 24.609375 -1.421875 
Q 20.21875 -1.421875 15.453125 -0.5625 
Q 10.6875 0.296875 5.421875 2 
L 5.421875 11.28125 
Q 10.40625 8.6875 15.234375 7.390625 
Q 20.0625 6.109375 24.8125 6.109375 
Q 31.15625 6.109375 34.5625 8.28125 
Q 37.984375 10.453125 37.984375 14.40625 
Q 37.984375 18.0625 35.515625 20.015625 
Q 33.0625 21.96875 24.703125 23.78125 
L 21.578125 24.515625 
Q 13.234375 26.265625 9.515625 29.90625 
Q 5.8125 33.546875 5.8125 39.890625 
Q 5.8125 47.609375 11.28125 51.796875 
Q 16.75 56 26.8125 56 
Q 31.78125 56 36.171875 55.265625 
Q 40.578125 54.546875 44.28125 53.078125 
z
" id="DejaVuSans-115"/>
      <path d="M 30.609375 48.390625 
Q 23.390625 48.390625 19.1875 42.75 
Q 14.984375 37.109375 14.984375 27.296875 
Q 14.984375 17.484375 19.15625 11.84375 
Q 23.34375 6.203125 30.609375 6.203125 
Q 37.796875 6.203125 41.984375 11.859375 
Q 46.1875 17.53125 46.1875 27.296875 
Q 46.1875 37.015625 41.984375 42.703125 
Q 37.796875 48.390625 30.609375 48.390625 
z
M 30.609375 56 
Q 42.328125 56 49.015625 48.375 
Q 55.71875 40.765625 55.71875 27.296875 
Q 55.71875 13.875 49.015625 6.21875 
Q 42.328125 -1.421875 30.609375 -1.421875 
Q 18.84375 -1.421875 12.171875 6.21875 
Q 5.515625 13.875 5.515625 27.296875 
Q 5.515625 40.765625 12.171875 48.375 
Q 18.84375 56 30.609375 56 
z
" id="DejaVuSans-111"/>
      <path d="M 8.5 21.578125 
L 8.5 54.6875 
L 17.484375 54.6875 
L 17.484375 21.921875 
Q 17.484375 14.15625 20.5 10.265625 
Q 23.53125 6.390625 29.59375 6.390625 
Q 36.859375 6.390625 41.078125 11.03125 
Q 45.3125 15.671875 45.3125 23.6875 
L 45.3125 54.6875 
L 54.296875 54.6875 
L 54.296875 0 
L 45.3125 0 
L 45.3125 8.40625 
Q 42.046875 3.421875 37.71875 1 
Q 33.40625 -1.421875 27.6875 -1.421875 
Q 18.265625 -1.421875 13.375 4.4375 
Q 8.5 10.296875 8.5 21.578125 
z
M 31.109375 56 
z
" id="DejaVuSans-117"/>
      <path d="M 41.109375 46.296875 
Q 39.59375 47.171875 37.8125 47.578125 
Q 36.03125 48 33.890625 48 
Q 26.265625 48 22.1875 43.046875 
Q 18.109375 38.09375 18.109375 28.8125 
L 18.109375 0 
L 9.078125 0 
L 9.078125 54.6875 
L 18.109375 54.6875 
L 18.109375 46.1875 
Q 20.953125 51.171875 25.484375 53.578125 
Q 30.03125 56 36.53125 56 
Q 37.453125 56 38.578125 55.875 
Q 39.703125 55.765625 41.0625 55.515625 
z
" id="DejaVuSans-114"/>
      <path d="M 48.78125 52.59375 
L 48.78125 44.1875 
Q 44.96875 46.296875 41.140625 47.34375 
Q 37.3125 48.390625 33.40625 48.390625 
Q 24.65625 48.390625 19.8125 42.84375 
Q 14.984375 37.3125 14.984375 27.296875 
Q 14.984375 17.28125 19.8125 11.734375 
Q 24.65625 6.203125 33.40625 6.203125 
Q 37.3125 6.203125 41.140625 7.25 
Q 44.96875 8.296875 48.78125 10.40625 
L 48.78125 2.09375 
Q 45.015625 0.34375 40.984375 -0.53125 
Q 36.96875 -1.421875 32.421875 -1.421875 
Q 20.0625 -1.421875 12.78125 6.34375 
Q 5.515625 14.109375 5.515625 27.296875 
Q 5.515625 40.671875 12.859375 48.328125 
Q 20.21875 56 33.015625 56 
Q 37.15625 56 41.109375 55.140625 
Q 45.0625 54.296875 48.78125 52.59375 
z
" id="DejaVuSans-99"/>
      <path d="M 56.203125 29.59375 
L 56.203125 25.203125 
L 14.890625 25.203125 
Q 15.484375 15.921875 20.484375 11.0625 
Q 25.484375 6.203125 34.421875 6.203125 
Q 39.59375 6.203125 44.453125 7.46875 
Q 49.3125 8.734375 54.109375 11.28125 
L 54.109375 2.78125 
Q 49.265625 0.734375 44.1875 -0.34375 
Q 39.109375 -1.421875 33.890625 -1.421875 
Q 20.796875 -1.421875 13.15625 6.1875 
Q 5.515625 13.8125 5.515625 26.8125 
Q 5.515625 40.234375 12.765625 48.109375 
Q 20.015625 56 32.328125 56 
Q 43.359375 56 49.78125 48.890625 
Q 56.203125 41.796875 56.203125 29.59375 
z
M 47.21875 32.234375 
Q 47.125 39.59375 43.09375 43.984375 
Q 39.0625 48.390625 32.421875 48.390625 
Q 24.90625 48.390625 20.390625 44.140625 
Q 15.875 39.890625 15.1875 32.171875 
z
" id="DejaVuSans-101"/>
      <path d="M 11.71875 12.40625 
L 22.015625 12.40625 
L 22.015625 0 
L 11.71875 0 
z
M 11.71875 51.703125 
L 22.015625 51.703125 
L 22.015625 39.3125 
L 11.71875 39.3125 
z
" id="DejaVuSans-58"/>
      <path d="M 54.890625 33.015625 
L 54.890625 0 
L 45.90625 0 
L 45.90625 32.71875 
Q 45.90625 40.484375 42.875 44.328125 
Q 39.84375 48.1875 33.796875 48.1875 
Q 26.515625 48.1875 22.3125 43.546875 
Q 18.109375 38.921875 18.109375 30.90625 
L 18.109375 0 
L 9.078125 0 
L 9.078125 54.6875 
L 18.109375 54.6875 
L 18.109375 46.1875 
Q 21.34375 51.125 25.703125 53.5625 
Q 30.078125 56 35.796875 56 
Q 45.21875 56 50.046875 50.171875 
Q 54.890625 44.34375 54.890625 33.015625 
z
" id="DejaVuSans-110"/>
      <path d="M 52 44.1875 
Q 55.375 50.25 60.0625 53.125 
Q 64.75 56 71.09375 56 
Q 79.640625 56 84.28125 50.015625 
Q 88.921875 44.046875 88.921875 33.015625 
L 88.921875 0 
L 79.890625 0 
L 79.890625 32.71875 
Q 79.890625 40.578125 77.09375 44.375 
Q 74.3125 48.1875 68.609375 48.1875 
Q 61.625 48.1875 57.5625 43.546875 
Q 53.515625 38.921875 53.515625 30.90625 
L 53.515625 0 
L 44.484375 0 
L 44.484375 32.71875 
Q 44.484375 40.625 41.703125 44.40625 
Q 38.921875 48.1875 33.109375 48.1875 
Q 26.21875 48.1875 22.15625 43.53125 
Q 18.109375 38.875 18.109375 30.90625 
L 18.109375 0 
L 9.078125 0 
L 9.078125 54.6875 
L 18.109375 54.6875 
L 18.109375 46.1875 
Q 21.1875 51.21875 25.484375 53.609375 
Q 29.78125 56 35.6875 56 
Q 41.65625 56 45.828125 52.96875 
Q 50 49.953125 52 44.1875 
z
" id="DejaVuSans-109"/>
      <path d="M 9.421875 54.6875 
L 18.40625 54.6875 
L 18.40625 0 
L 9.421875 0 
z
M 9.421875 75.984375 
L 18.40625 75.984375 
L 18.40625 64.59375 
L 9.421875 64.59375 
z
" id="DejaVuSans-105"/>
     </defs>
     <use xlink:href="#DejaVuSans-68"/>
     <use x="77.001953" xlink:href="#DejaVuSans-97"/>
     <use x="138.28125" xlink:href="#DejaVuSans-116"/>
     <use x="177.490234" xlink:href="#DejaVuSans-97"/>
     <use x="238.769531" xlink:href="#DejaVuSans-32"/>
     <use x="270.556641" xlink:href="#DejaVuSans-115"/>
     <use x="322.65625" xlink:href="#DejaVuSans-111"/>
     <use x="383.837891" xlink:href="#DejaVuSans-117"/>
     <use x="447.216797" xlink:href="#DejaVuSans-114"/>
     <use x="486.080078" xlink:href="#DejaVuSans-99"/>
     <use x="541.060547" xlink:href="#DejaVuSans-101"/>
     <use x="602.583984" xlink:href="#DejaVuSans-58"/>
     <use x="636.275391" xlink:href="#DejaVuSans-32"/>
     <use x="668.0625" xlink:href="#DejaVuSans-110"/>
     <use x="731.441406" xlink:href="#DejaVuSans-111"/>
     <use x="792.623047" xlink:href="#DejaVuSans-109"/>
     <use x="890.035156" xlink:href="#DejaVuSans-105"/>
     <use x="917.818359" xlink:href="#DejaVuSans-99"/>
     <use x="972.798828" xlink:href="#DejaVuSans-115"/>
    </g>
   </g>
   <g id="legend_1">
    <g id="patch_7">
     <path d="M 64.6 78.82825 
L 127.31875 78.82825 
Q 129.31875 78.82825 129.31875 76.82825 
L 129.31875 48.472 
Q 129.31875 46.472 127.31875 46.472 
L 64.6 46.472 
Q 62.6 46.472 62.6 48.472 
L 62.6 76.82825 
Q 62.6 78.82825 64.6 78.82825 
z
" style="fill:#ffffff;opacity:0.8;stroke:#cccccc;stroke-linejoin:miter;"/>
    </g>
    <g id="line2d_19">
     <path d="M 66.6 54.570437 
L 86.6 54.570437 
" style="fill:none;stroke:#0000ff;stroke-linecap:square;stroke-width:1.5;"/>
    </g>
    <g id="line2d_20"/>
    <g id="text_17">
     <!-- MACD -->
     <g transform="translate(94.6 58.070437)scale(0.1 -0.1)">
      <defs>
       <path d="M 9.8125 72.90625 
L 24.515625 72.90625 
L 43.109375 23.296875 
L 61.8125 72.90625 
L 76.515625 72.90625 
L 76.515625 0 
L 66.890625 0 
L 66.890625 64.015625 
L 48.09375 14.015625 
L 38.1875 14.015625 
L 19.390625 64.015625 
L 19.390625 0 
L 9.8125 0 
z
" id="DejaVuSans-77"/>
       <path d="M 34.1875 63.1875 
L 20.796875 26.90625 
L 47.609375 26.90625 
z
M 28.609375 72.90625 
L 39.796875 72.90625 
L 67.578125 0 
L 57.328125 0 
L 50.6875 18.703125 
L 17.828125 18.703125 
L 11.1875 0 
L 0.78125 0 
z
" id="DejaVuSans-65"/>
       <path d="M 64.40625 67.28125 
L 64.40625 56.890625 
Q 59.421875 61.53125 53.78125 63.8125 
Q 48.140625 66.109375 41.796875 66.109375 
Q 29.296875 66.109375 22.65625 58.46875 
Q 16.015625 50.828125 16.015625 36.375 
Q 16.015625 21.96875 22.65625 14.328125 
Q 29.296875 6.6875 41.796875 6.6875 
Q 48.140625 6.6875 53.78125 8.984375 
Q 59.421875 11.28125 64.40625 15.921875 
L 64.40625 5.609375 
Q 59.234375 2.09375 53.4375 0.328125 
Q 47.65625 -1.421875 41.21875 -1.421875 
Q 24.65625 -1.421875 15.125 8.703125 
Q 5.609375 18.84375 5.609375 36.375 
Q 5.609375 53.953125 15.125 64.078125 
Q 24.65625 74.21875 41.21875 74.21875 
Q 47.75 74.21875 53.53125 72.484375 
Q 59.328125 70.75 64.40625 67.28125 
z
" id="DejaVuSans-67"/>
      </defs>
      <use xlink:href="#DejaVuSans-77"/>
      <use x="86.279297" xlink:href="#DejaVuSans-65"/>
      <use x="152.9375" xlink:href="#DejaVuSans-67"/>
      <use x="222.761719" xlink:href="#DejaVuSans-68"/>
     </g>
    </g>
    <g id="line2d_21">
     <path d="M 66.6 69.248562 
L 86.6 69.248562 
" style="fill:none;stroke:#ff6347;stroke-linecap:square;stroke-width:1.5;"/>
    </g>
    <g id="line2d_22"/>
    <g id="text_18">
     <!-- Signal -->
     <g transform="translate(94.6 72.748562)scale(0.1 -0.1)">
      <defs>
       <path d="M 53.515625 70.515625 
L 53.515625 60.890625 
Q 47.90625 63.578125 42.921875 64.890625 
Q 37.9375 66.21875 33.296875 66.21875 
Q 25.25 66.21875 20.875 63.09375 
Q 16.5 59.96875 16.5 54.203125 
Q 16.5 49.359375 19.40625 46.890625 
Q 22.3125 44.4375 30.421875 42.921875 
L 36.375 41.703125 
Q 47.40625 39.59375 52.65625 34.296875 
Q 57.90625 29 57.90625 20.125 
Q 57.90625 9.515625 50.796875 4.046875 
Q 43.703125 -1.421875 29.984375 -1.421875 
Q 24.8125 -1.421875 18.96875 -0.25 
Q 13.140625 0.921875 6.890625 3.21875 
L 6.890625 13.375 
Q 12.890625 10.015625 18.65625 8.296875 
Q 24.421875 6.59375 29.984375 6.59375 
Q 38.421875 6.59375 43.015625 9.90625 
Q 47.609375 13.234375 47.609375 19.390625 
Q 47.609375 24.75 44.3125 27.78125 
Q 41.015625 30.8125 33.5 32.328125 
L 27.484375 33.5 
Q 16.453125 35.6875 11.515625 40.375 
Q 6.59375 45.0625 6.59375 53.421875 
Q 6.59375 63.09375 13.40625 68.65625 
Q 20.21875 74.21875 32.171875 74.21875 
Q 37.3125 74.21875 42.625 73.28125 
Q 47.953125 72.359375 53.515625 70.515625 
z
" id="DejaVuSans-83"/>
       <path d="M 45.40625 27.984375 
Q 45.40625 37.75 41.375 43.109375 
Q 37.359375 48.484375 30.078125 48.484375 
Q 22.859375 48.484375 18.828125 43.109375 
Q 14.796875 37.75 14.796875 27.984375 
Q 14.796875 18.265625 18.828125 12.890625 
Q 22.859375 7.515625 30.078125 7.515625 
Q 37.359375 7.515625 41.375 12.890625 
Q 45.40625 18.265625 45.40625 27.984375 
z
M 54.390625 6.78125 
Q 54.390625 -7.171875 48.1875 -13.984375 
Q 42 -20.796875 29.203125 -20.796875 
Q 24.46875 -20.796875 20.265625 -20.09375 
Q 16.0625 -19.390625 12.109375 -17.921875 
L 12.109375 -9.1875 
Q 16.0625 -11.328125 19.921875 -12.34375 
Q 23.78125 -13.375 27.78125 -13.375 
Q 36.625 -13.375 41.015625 -8.765625 
Q 45.40625 -4.15625 45.40625 5.171875 
L 45.40625 9.625 
Q 42.625 4.78125 38.28125 2.390625 
Q 33.9375 0 27.875 0 
Q 17.828125 0 11.671875 7.65625 
Q 5.515625 15.328125 5.515625 27.984375 
Q 5.515625 40.671875 11.671875 48.328125 
Q 17.828125 56 27.875 56 
Q 33.9375 56 38.28125 53.609375 
Q 42.625 51.21875 45.40625 46.390625 
L 45.40625 54.6875 
L 54.390625 54.6875 
z
" id="DejaVuSans-103"/>
       <path d="M 9.421875 75.984375 
L 18.40625 75.984375 
L 18.40625 0 
L 9.421875 0 
z
" id="DejaVuSans-108"/>
      </defs>
      <use xlink:href="#DejaVuSans-83"/>
      <use x="63.476562" xlink:href="#DejaVuSans-105"/>
      <use x="91.259766" xlink:href="#DejaVuSans-103"/>
      <use x="154.736328" xlink:href="#DejaVuSans-110"/>
      <use x="218.115234" xlink:href="#DejaVuSans-97"/>
      <use x="279.394531" xlink:href="#DejaVuSans-108"/>
     </g>
    </g>
   </g>
  </g>
  <g id="text_19">
   <!-- MACD -->
   <g transform="translate(206.41875 19.0695)scale(0.16 -0.16)">
    <use xlink:href="#DejaVuSans-77"/>
    <use x="86.279297" xlink:href="#DejaVuSans-65"/>
    <use x="152.9375" xlink:href="#DejaVuSans-67"/>
    <use x="222.761719" xlink:href="#DejaVuSans-68"/>
   </g>
  </g>
 </g>
 <defs>
  <clipPath id="pabcc0bed5e">
   <rect height="266.112" width="357.12" x="57.6" y="41.472"/>
  </clipPath>
 </defs>
</svg>
