<?xml version="1.0" encoding="utf-8" standalone="no"?>
<!DOCTYPE svg PUBLIC "-//W3C//DTD SVG 1.1//EN"
  "http://www.w3.org/Graphics/SVG/1.1/DTD/svg11.dtd">
<!-- Created with matplotlib (https://matplotlib.org/) -->
<svg height="345.6pt" version="1.1" viewBox="0 0 460.8 345.6" width="460.8pt" xmlns="http://www.w3.org/2000/svg" xmlns:xlink="http://www.w3.org/1999/xlink">
 <metadata>
  <rdf:RDF xmlns:cc="http://creativecommons.org/ns#" xmlns:dc="http://purl.org/dc/elements/1.1/" xmlns:rdf="http://www.w3.org/1999/02/22-rdf-syntax-ns#">
   <cc:Work>
    <dc:type rdf:resource="http://purl.org/dc/dcmitype/StillImage"/>
    <dc:date>2021-01-17T16:05:55.010041</dc:date>
    <dc:format>image/svg+xml</dc:format>
    <dc:creator>
     <cc:Agent>
      <dc:title>Matplotlib v3.3.2, https://matplotlib.org/</dc:title>
     </cc:Agent>
    </dc:creator>
   </cc:Work>
  </rdf:RDF>
 </metadata>
 <defs>
  <style type="text/css">*{stroke-linecap:butt;stroke-linejoin:round;}</style>
 </defs>
 <g id="figure_1">
  <g id="patch_1">
   <path d="M 0 345.6 
L 460.8 345.6 
L 460.8 0 
L 0 0 
z
" style="fill:#ffffff;"/>
  </g>
  <g id="axes_1">
   <g id="patch_2">
    <path d="M 57.6 307.584 
L 414.72 307.584 
L 414.72 41.472 
L 57.6 41.472 
z
" style="fill:#ffffff;"/>
   </g>
   <g id="matplotlib.axis_1">
    <g id="xtick_1">
     <g id="line2d_1">
      <defs>
       <path d="M 0 0 
L 0 3.5 
" id="mcc3928ffcf" style="stroke:#000000;stroke-width:0.8;"/>
      </defs>
      <g>
       <use style="stroke:#000000;stroke-width:0.8;" x="73.832727" xlink:href="#mcc3928ffcf" y="307.584"/>
      </g>
     </g>
     <g id="text_1">
      <!-- 2020-01 -->
      <g transform="translate(52.941321 322.182437)scale(0.1 -0.1)">
       <defs>
        <path d="M 19.1875 8.296875 
L 53.609375 8.296875 
L 53.609375 0 
L 7.328125 0 
L 7.328125 8.296875 
Q 12.9375 14.109375 22.625 23.890625 
Q 32.328125 33.6875 34.8125 36.53125 
Q 39.546875 41.84375 41.421875 45.53125 
Q 43.3125 49.21875 43.3125 52.78125 
Q 43.3125 58.59375 39.234375 62.25 
Q 35.15625 65.921875 28.609375 65.921875 
Q 23.96875 65.921875 18.8125 64.3125 
Q 13.671875 62.703125 7.8125 59.421875 
L 7.8125 69.390625 
Q 13.765625 71.78125 18.9375 73 
Q 24.125 74.21875 28.421875 74.21875 
Q 39.75 74.21875 46.484375 68.546875 
Q 53.21875 62.890625 53.21875 53.421875 
Q 53.21875 48.921875 51.53125 44.890625 
Q 49.859375 40.875 45.40625 35.40625 
Q 44.1875 33.984375 37.640625 27.21875 
Q 31.109375 20.453125 19.1875 8.296875 
z
" id="DejaVuSans-50"/>
        <path d="M 31.78125 66.40625 
Q 24.171875 66.40625 20.328125 58.90625 
Q 16.5 51.421875 16.5 36.375 
Q 16.5 21.390625 20.328125 13.890625 
Q 24.171875 6.390625 31.78125 6.390625 
Q 39.453125 6.390625 43.28125 13.890625 
Q 47.125 21.390625 47.125 36.375 
Q 47.125 51.421875 43.28125 58.90625 
Q 39.453125 66.40625 31.78125 66.40625 
z
M 31.78125 74.21875 
Q 44.046875 74.21875 50.515625 64.515625 
Q 56.984375 54.828125 56.984375 36.375 
Q 56.984375 17.96875 50.515625 8.265625 
Q 44.046875 -1.421875 31.78125 -1.421875 
Q 19.53125 -1.421875 13.0625 8.265625 
Q 6.59375 17.96875 6.59375 36.375 
Q 6.59375 54.828125 13.0625 64.515625 
Q 19.53125 74.21875 31.78125 74.21875 
z
" id="DejaVuSans-48"/>
        <path d="M 4.890625 31.390625 
L 31.203125 31.390625 
L 31.203125 23.390625 
L 4.890625 23.390625 
z
" id="DejaVuSans-45"/>
        <path d="M 12.40625 8.296875 
L 28.515625 8.296875 
L 28.515625 63.921875 
L 10.984375 60.40625 
L 10.984375 69.390625 
L 28.421875 72.90625 
L 38.28125 72.90625 
L 38.28125 8.296875 
L 54.390625 8.296875 
L 54.390625 0 
L 12.40625 0 
z
" id="DejaVuSans-49"/>
       </defs>
       <use xlink:href="#DejaVuSans-50"/>
       <use x="63.623047" xlink:href="#DejaVuSans-48"/>
       <use x="127.246094" xlink:href="#DejaVuSans-50"/>
       <use x="190.869141" xlink:href="#DejaVuSans-48"/>
       <use x="254.492188" xlink:href="#DejaVuSans-45"/>
       <use x="290.576172" xlink:href="#DejaVuSans-48"/>
       <use x="354.199219" xlink:href="#DejaVuSans-49"/>
      </g>
     </g>
    </g>
    <g id="xtick_2">
     <g id="line2d_2">
      <g>
       <use style="stroke:#000000;stroke-width:0.8;" x="124.959427" xlink:href="#mcc3928ffcf" y="307.584"/>
      </g>
     </g>
     <g id="text_2">
      <!-- 2020-03 -->
      <g transform="translate(104.068021 322.182437)scale(0.1 -0.1)">
       <defs>
        <path d="M 40.578125 39.3125 
Q 47.65625 37.796875 51.625 33 
Q 55.609375 28.21875 55.609375 21.1875 
Q 55.609375 10.40625 48.1875 4.484375 
Q 40.765625 -1.421875 27.09375 -1.421875 
Q 22.515625 -1.421875 17.65625 -0.515625 
Q 12.796875 0.390625 7.625 2.203125 
L 7.625 11.71875 
Q 11.71875 9.328125 16.59375 8.109375 
Q 21.484375 6.890625 26.8125 6.890625 
Q 36.078125 6.890625 40.9375 10.546875 
Q 45.796875 14.203125 45.796875 21.1875 
Q 45.796875 27.640625 41.28125 31.265625 
Q 36.765625 34.90625 28.71875 34.90625 
L 20.21875 34.90625 
L 20.21875 43.015625 
L 29.109375 43.015625 
Q 36.375 43.015625 40.234375 45.921875 
Q 44.09375 48.828125 44.09375 54.296875 
Q 44.09375 59.90625 40.109375 62.90625 
Q 36.140625 65.921875 28.71875 65.921875 
Q 24.65625 65.921875 20.015625 65.03125 
Q 15.375 64.15625 9.8125 62.3125 
L 9.8125 71.09375 
Q 15.4375 72.65625 20.34375 73.4375 
Q 25.25 74.21875 29.59375 74.21875 
Q 40.828125 74.21875 47.359375 69.109375 
Q 53.90625 64.015625 53.90625 55.328125 
Q 53.90625 49.265625 50.4375 45.09375 
Q 46.96875 40.921875 40.578125 39.3125 
z
" id="DejaVuSans-51"/>
       </defs>
       <use xlink:href="#DejaVuSans-50"/>
       <use x="63.623047" xlink:href="#DejaVuSans-48"/>
       <use x="127.246094" xlink:href="#DejaVuSans-50"/>
       <use x="190.869141" xlink:href="#DejaVuSans-48"/>
       <use x="254.492188" xlink:href="#DejaVuSans-45"/>
       <use x="290.576172" xlink:href="#DejaVuSans-48"/>
       <use x="354.199219" xlink:href="#DejaVuSans-51"/>
      </g>
     </g>
    </g>
    <g id="xtick_3">
     <g id="line2d_3">
      <g>
       <use style="stroke:#000000;stroke-width:0.8;" x="176.938239" xlink:href="#mcc3928ffcf" y="307.584"/>
      </g>
     </g>
     <g id="text_3">
      <!-- 2020-05 -->
      <g transform="translate(156.046833 322.182437)scale(0.1 -0.1)">
       <defs>
        <path d="M 10.796875 72.90625 
L 49.515625 72.90625 
L 49.515625 64.59375 
L 19.828125 64.59375 
L 19.828125 46.734375 
Q 21.96875 47.46875 24.109375 47.828125 
Q 26.265625 48.1875 28.421875 48.1875 
Q 40.625 48.1875 47.75 41.5 
Q 54.890625 34.8125 54.890625 23.390625 
Q 54.890625 11.625 47.5625 5.09375 
Q 40.234375 -1.421875 26.90625 -1.421875 
Q 22.3125 -1.421875 17.546875 -0.640625 
Q 12.796875 0.140625 7.71875 1.703125 
L 7.71875 11.625 
Q 12.109375 9.234375 16.796875 8.0625 
Q 21.484375 6.890625 26.703125 6.890625 
Q 35.15625 6.890625 40.078125 11.328125 
Q 45.015625 15.765625 45.015625 23.390625 
Q 45.015625 31 40.078125 35.4375 
Q 35.15625 39.890625 26.703125 39.890625 
Q 22.75 39.890625 18.8125 39.015625 
Q 14.890625 38.140625 10.796875 36.28125 
z
" id="DejaVuSans-53"/>
       </defs>
       <use xlink:href="#DejaVuSans-50"/>
       <use x="63.623047" xlink:href="#DejaVuSans-48"/>
       <use x="127.246094" xlink:href="#DejaVuSans-50"/>
       <use x="190.869141" xlink:href="#DejaVuSans-48"/>
       <use x="254.492188" xlink:href="#DejaVuSans-45"/>
       <use x="290.576172" xlink:href="#DejaVuSans-48"/>
       <use x="354.199219" xlink:href="#DejaVuSans-53"/>
      </g>
     </g>
    </g>
    <g id="xtick_4">
     <g id="line2d_4">
      <g>
       <use style="stroke:#000000;stroke-width:0.8;" x="228.917051" xlink:href="#mcc3928ffcf" y="307.584"/>
      </g>
     </g>
     <g id="text_4">
      <!-- 2020-07 -->
      <g transform="translate(208.025645 322.182437)scale(0.1 -0.1)">
       <defs>
        <path d="M 8.203125 72.90625 
L 55.078125 72.90625 
L 55.078125 68.703125 
L 28.609375 0 
L 18.3125 0 
L 43.21875 64.59375 
L 8.203125 64.59375 
z
" id="DejaVuSans-55"/>
       </defs>
       <use xlink:href="#DejaVuSans-50"/>
       <use x="63.623047" xlink:href="#DejaVuSans-48"/>
       <use x="127.246094" xlink:href="#DejaVuSans-50"/>
       <use x="190.869141" xlink:href="#DejaVuSans-48"/>
       <use x="254.492188" xlink:href="#DejaVuSans-45"/>
       <use x="290.576172" xlink:href="#DejaVuSans-48"/>
       <use x="354.199219" xlink:href="#DejaVuSans-55"/>
      </g>
     </g>
    </g>
    <g id="xtick_5">
     <g id="line2d_5">
      <g>
       <use style="stroke:#000000;stroke-width:0.8;" x="281.747974" xlink:href="#mcc3928ffcf" y="307.584"/>
      </g>
     </g>
     <g id="text_5">
      <!-- 2020-09 -->
      <g transform="translate(260.856568 322.182437)scale(0.1 -0.1)">
       <defs>
        <path d="M 10.984375 1.515625 
L 10.984375 10.5 
Q 14.703125 8.734375 18.5 7.8125 
Q 22.3125 6.890625 25.984375 6.890625 
Q 35.75 6.890625 40.890625 13.453125 
Q 46.046875 20.015625 46.78125 33.40625 
Q 43.953125 29.203125 39.59375 26.953125 
Q 35.25 24.703125 29.984375 24.703125 
Q 19.046875 24.703125 12.671875 31.3125 
Q 6.296875 37.9375 6.296875 49.421875 
Q 6.296875 60.640625 12.9375 67.421875 
Q 19.578125 74.21875 30.609375 74.21875 
Q 43.265625 74.21875 49.921875 64.515625 
Q 56.59375 54.828125 56.59375 36.375 
Q 56.59375 19.140625 48.40625 8.859375 
Q 40.234375 -1.421875 26.421875 -1.421875 
Q 22.703125 -1.421875 18.890625 -0.6875 
Q 15.09375 0.046875 10.984375 1.515625 
z
M 30.609375 32.421875 
Q 37.25 32.421875 41.125 36.953125 
Q 45.015625 41.5 45.015625 49.421875 
Q 45.015625 57.28125 41.125 61.84375 
Q 37.25 66.40625 30.609375 66.40625 
Q 23.96875 66.40625 20.09375 61.84375 
Q 16.21875 57.28125 16.21875 49.421875 
Q 16.21875 41.5 20.09375 36.953125 
Q 23.96875 32.421875 30.609375 32.421875 
z
" id="DejaVuSans-57"/>
       </defs>
       <use xlink:href="#DejaVuSans-50"/>
       <use x="63.623047" xlink:href="#DejaVuSans-48"/>
       <use x="127.246094" xlink:href="#DejaVuSans-50"/>
       <use x="190.869141" xlink:href="#DejaVuSans-48"/>
       <use x="254.492188" xlink:href="#DejaVuSans-45"/>
       <use x="290.576172" xlink:href="#DejaVuSans-48"/>
       <use x="354.199219" xlink:href="#DejaVuSans-57"/>
      </g>
     </g>
    </g>
    <g id="xtick_6">
     <g id="line2d_6">
      <g>
       <use style="stroke:#000000;stroke-width:0.8;" x="333.726786" xlink:href="#mcc3928ffcf" y="307.584"/>
      </g>
     </g>
     <g id="text_6">
      <!-- 2020-11 -->
      <g transform="translate(312.83538 322.182437)scale(0.1 -0.1)">
       <use xlink:href="#DejaVuSans-50"/>
       <use x="63.623047" xlink:href="#DejaVuSans-48"/>
       <use x="127.246094" xlink:href="#DejaVuSans-50"/>
       <use x="190.869141" xlink:href="#DejaVuSans-48"/>
       <use x="254.492188" xlink:href="#DejaVuSans-45"/>
       <use x="290.576172" xlink:href="#DejaVuSans-49"/>
       <use x="354.199219" xlink:href="#DejaVuSans-49"/>
      </g>
     </g>
    </g>
    <g id="xtick_7">
     <g id="line2d_7">
      <g>
       <use style="stroke:#000000;stroke-width:0.8;" x="385.705598" xlink:href="#mcc3928ffcf" y="307.584"/>
      </g>
     </g>
     <g id="text_7">
      <!-- 2021-01 -->
      <g transform="translate(364.814191 322.182437)scale(0.1 -0.1)">
       <use xlink:href="#DejaVuSans-50"/>
       <use x="63.623047" xlink:href="#DejaVuSans-48"/>
       <use x="127.246094" xlink:href="#DejaVuSans-50"/>
       <use x="190.869141" xlink:href="#DejaVuSans-49"/>
       <use x="254.492188" xlink:href="#DejaVuSans-45"/>
       <use x="290.576172" xlink:href="#DejaVuSans-48"/>
       <use x="354.199219" xlink:href="#DejaVuSans-49"/>
      </g>
     </g>
    </g>
   </g>
   <g id="matplotlib.axis_2">
    <g id="ytick_1">
     <g id="line2d_8">
      <defs>
       <path d="M 0 0 
L -3.5 0 
" id="ma81b3e5a7e" style="stroke:#000000;stroke-width:0.8;"/>
      </defs>
      <g>
       <use style="stroke:#000000;stroke-width:0.8;" x="57.6" xlink:href="#ma81b3e5a7e" y="292.540199"/>
      </g>
     </g>
     <g id="text_8">
      <!-- −1000 -->
      <g transform="translate(16.770313 296.339418)scale(0.1 -0.1)">
       <defs>
        <path d="M 10.59375 35.5 
L 73.1875 35.5 
L 73.1875 27.203125 
L 10.59375 27.203125 
z
" id="DejaVuSans-8722"/>
       </defs>
       <use xlink:href="#DejaVuSans-8722"/>
       <use x="83.789062" xlink:href="#DejaVuSans-49"/>
       <use x="147.412109" xlink:href="#DejaVuSans-48"/>
       <use x="211.035156" xlink:href="#DejaVuSans-48"/>
       <use x="274.658203" xlink:href="#DejaVuSans-48"/>
      </g>
     </g>
    </g>
    <g id="ytick_2">
     <g id="line2d_9">
      <g>
       <use style="stroke:#000000;stroke-width:0.8;" x="57.6" xlink:href="#ma81b3e5a7e" y="250.588377"/>
      </g>
     </g>
     <g id="text_9">
      <!-- 0 -->
      <g transform="translate(44.2375 254.387596)scale(0.1 -0.1)">
       <use xlink:href="#DejaVuSans-48"/>
      </g>
     </g>
    </g>
    <g id="ytick_3">
     <g id="line2d_10">
      <g>
       <use style="stroke:#000000;stroke-width:0.8;" x="57.6" xlink:href="#ma81b3e5a7e" y="208.636555"/>
      </g>
     </g>
     <g id="text_10">
      <!-- 1000 -->
      <g transform="translate(25.15 212.435774)scale(0.1 -0.1)">
       <use xlink:href="#DejaVuSans-49"/>
       <use x="63.623047" xlink:href="#DejaVuSans-48"/>
       <use x="127.246094" xlink:href="#DejaVuSans-48"/>
       <use x="190.869141" xlink:href="#DejaVuSans-48"/>
      </g>
     </g>
    </g>
    <g id="ytick_4">
     <g id="line2d_11">
      <g>
       <use style="stroke:#000000;stroke-width:0.8;" x="57.6" xlink:href="#ma81b3e5a7e" y="166.684733"/>
      </g>
     </g>
     <g id="text_11">
      <!-- 2000 -->
      <g transform="translate(25.15 170.483952)scale(0.1 -0.1)">
       <use xlink:href="#DejaVuSans-50"/>
       <use x="63.623047" xlink:href="#DejaVuSans-48"/>
       <use x="127.246094" xlink:href="#DejaVuSans-48"/>
       <use x="190.869141" xlink:href="#DejaVuSans-48"/>
      </g>
     </g>
    </g>
    <g id="ytick_5">
     <g id="line2d_12">
      <g>
       <use style="stroke:#000000;stroke-width:0.8;" x="57.6" xlink:href="#ma81b3e5a7e" y="124.732911"/>
      </g>
     </g>
     <g id="text_12">
      <!-- 3000 -->
      <g transform="translate(25.15 128.53213)scale(0.1 -0.1)">
       <use xlink:href="#DejaVuSans-51"/>
       <use x="63.623047" xlink:href="#DejaVuSans-48"/>
       <use x="127.246094" xlink:href="#DejaVuSans-48"/>
       <use x="190.869141" xlink:href="#DejaVuSans-48"/>
      </g>
     </g>
    </g>
    <g id="ytick_6">
     <g id="line2d_13">
      <g>
       <use style="stroke:#000000;stroke-width:0.8;" x="57.6" xlink:href="#ma81b3e5a7e" y="82.781089"/>
      </g>
     </g>
     <g id="text_13">
      <!-- 4000 -->
      <g transform="translate(25.15 86.580307)scale(0.1 -0.1)">
       <defs>
        <path d="M 37.796875 64.3125 
L 12.890625 25.390625 
L 37.796875 25.390625 
z
M 35.203125 72.90625 
L 47.609375 72.90625 
L 47.609375 25.390625 
L 58.015625 25.390625 
L 58.015625 17.1875 
L 47.609375 17.1875 
L 47.609375 0 
L 37.796875 0 
L 37.796875 17.1875 
L 4.890625 17.1875 
L 4.890625 26.703125 
z
" id="DejaVuSans-52"/>
       </defs>
       <use xlink:href="#DejaVuSans-52"/>
       <use x="63.623047" xlink:href="#DejaVuSans-48"/>
       <use x="127.246094" xlink:href="#DejaVuSans-48"/>
       <use x="190.869141" xlink:href="#DejaVuSans-48"/>
      </g>
     </g>
    </g>
   </g>
   <g id="line2d_14">
    <path clip-path="url(#p7ded0ced56)" d="M 73.832727 250.588377 
L 398.487273 250.588377 
L 398.487273 250.588377 
" style="fill:none;stroke:#1f77b4;stroke-dasharray:5.55,2.4;stroke-dashoffset:0;stroke-width:1.5;"/>
   </g>
   <g id="line2d_15">
    <path clip-path="url(#p7ded0ced56)" d="M 73.832727 250.588377 
L 74.684839 251.344143 
L 76.389062 250.103587 
L 77.241174 249.671593 
L 78.093286 248.0159 
L 78.945397 245.387317 
L 79.797509 243.810309 
L 80.649621 243.381308 
L 81.501732 241.912265 
L 82.353844 241.41224 
L 83.205956 240.601653 
L 84.058067 240.308859 
L 84.910179 237.898669 
L 85.762291 236.165339 
L 86.614402 235.229742 
L 87.466514 234.081281 
L 88.318626 233.336256 
L 89.170737 233.625696 
L 90.022849 234.249242 
L 90.874961 234.606142 
L 91.727072 235.311519 
L 92.579184 236.872154 
L 93.431296 238.128103 
L 94.283407 239.584298 
L 95.135519 239.98733 
L 95.987631 239.450842 
L 96.839742 237.546743 
L 97.691854 236.501576 
L 98.543966 235.159331 
L 99.396077 234.83195 
L 100.248189 234.625595 
L 101.100301 234.782781 
L 101.952412 235.195508 
L 102.804524 236.089497 
L 103.656636 235.492095 
L 105.360859 234.101429 
L 106.212971 233.538041 
L 107.065082 232.427071 
L 107.917194 232.730769 
L 109.621417 231.13143 
L 110.473529 231.117705 
L 111.325641 230.942893 
L 113.881976 235.810087 
L 114.734087 235.954267 
L 115.586199 238.116999 
L 116.438311 239.921709 
L 118.142534 242.495945 
L 118.994646 242.549265 
L 119.846757 243.679486 
L 120.698869 245.805812 
L 121.550981 249.251189 
L 123.255204 254.38815 
L 124.107316 256.777539 
L 124.959427 258.587281 
L 125.811539 258.66203 
L 126.663651 259.146644 
L 127.515762 259.375537 
L 128.367874 258.518035 
L 129.219986 257.469567 
L 130.072097 257.32833 
L 131.776321 262.371119 
L 132.628432 264.151397 
L 133.480544 265.298057 
L 134.332656 276.191564 
L 136.036879 287.494457 
L 137.741102 294.289985 
L 138.593214 295.347685 
L 139.445326 295.488 
L 141.149549 289.603713 
L 142.001661 286.965125 
L 142.853772 285.71865 
L 143.705884 282.165347 
L 144.557996 278.123506 
L 146.262219 271.905915 
L 147.114331 270.527224 
L 147.966442 269.588489 
L 148.818554 269.879369 
L 150.522777 266.523823 
L 153.079112 260.103716 
L 153.931224 258.189732 
L 154.783336 256.901181 
L 155.635447 253.956128 
L 157.339671 250.033828 
L 158.191782 248.685025 
L 159.896006 249.223005 
L 160.748117 249.335534 
L 162.452341 249.844064 
L 163.304452 250.772087 
L 164.156564 249.927211 
L 165.008676 249.551145 
L 165.860787 248.510455 
L 166.712899 248.131445 
L 167.565011 248.816375 
L 168.417122 249.322385 
L 169.269234 248.824224 
L 170.121346 247.285746 
L 173.529792 242.520607 
L 174.381904 241.756395 
L 175.234016 237.854391 
L 177.790351 230.815203 
L 178.642462 229.525645 
L 180.346686 228.117853 
L 181.198797 227.332153 
L 182.050909 224.245144 
L 182.903021 222.71708 
L 183.755132 222.629249 
L 185.459356 228.817132 
L 186.311467 230.810849 
L 187.163579 230.916788 
L 188.015691 229.649292 
L 188.867802 230.500723 
L 189.719914 231.16942 
L 190.572026 230.959374 
L 192.276249 230.819946 
L 193.128361 231.885414 
L 193.980472 234.388923 
L 195.684696 237.754704 
L 196.536807 240.649072 
L 198.241031 244.171762 
L 199.093142 244.345053 
L 199.945254 243.357849 
L 200.797366 243.138383 
L 201.649477 242.151489 
L 202.501589 242.284206 
L 203.353701 239.982595 
L 204.205812 240.48701 
L 205.057924 240.573247 
L 205.910036 240.379005 
L 206.762147 240.820295 
L 207.614259 241.130021 
L 210.170594 241.54804 
L 211.022706 241.439647 
L 211.874817 243.442049 
L 214.431152 246.540837 
L 215.283264 247.257179 
L 216.135376 247.465547 
L 216.987487 247.912052 
L 217.839599 248.53513 
L 218.691711 249.311754 
L 219.543822 249.771775 
L 220.395934 250.374184 
L 221.248046 249.58308 
L 222.100157 249.153621 
L 223.804381 250.601953 
L 224.656492 251.474476 
L 225.508604 252.65503 
L 226.360716 253.202008 
L 228.064939 253.631467 
L 228.917051 253.497963 
L 230.621274 254.115764 
L 231.473386 254.07606 
L 232.325497 254.19671 
L 233.177609 253.411217 
L 234.029721 252.992867 
L 234.881832 252.106757 
L 237.438168 251.69649 
L 238.290279 251.444161 
L 239.994503 251.416522 
L 240.846614 251.556563 
L 242.550838 251.972599 
L 243.402949 252.008194 
L 244.255061 251.896429 
L 245.107173 251.95782 
L 245.959284 251.271549 
L 247.663508 249.131641 
L 248.515619 248.526751 
L 249.367731 247.511399 
L 250.219843 245.999814 
L 251.071954 241.285553 
L 252.776178 234.911188 
L 254.480401 230.258361 
L 255.332513 227.116105 
L 256.184624 227.431586 
L 257.036736 227.320124 
L 257.888848 227.693729 
L 258.740959 226.419769 
L 259.593071 225.562623 
L 260.445183 225.664024 
L 261.297294 225.550229 
L 262.149406 226.019725 
L 263.001518 225.971681 
L 263.853629 227.861192 
L 264.705741 229.054781 
L 265.557853 229.532057 
L 266.409964 230.19675 
L 268.114188 231.061484 
L 268.966299 230.37145 
L 269.818411 231.194016 
L 270.670523 232.532433 
L 271.522634 233.574811 
L 272.374746 235.591449 
L 274.078969 238.230406 
L 274.931081 239.02764 
L 275.783193 241.20958 
L 277.487416 244.177381 
L 279.191639 245.669572 
L 280.043751 245.537737 
L 280.895863 245.633759 
L 281.747974 244.883149 
L 282.600086 246.058484 
L 283.452198 251.11046 
L 285.156421 257.463065 
L 286.008533 259.685225 
L 286.860644 260.945149 
L 287.712756 262.635203 
L 288.564868 263.533682 
L 289.416979 263.675188 
L 290.269091 263.497181 
L 291.121203 263.036527 
L 291.973314 262.886206 
L 292.825426 261.522063 
L 293.677538 259.920771 
L 294.529649 258.004659 
L 295.381761 256.501642 
L 296.233873 255.230907 
L 297.085984 253.699478 
L 297.938096 253.013921 
L 298.790208 254.062417 
L 299.642319 254.4709 
L 300.494431 255.742986 
L 301.346543 255.076976 
L 303.050766 254.118371 
L 303.902878 253.533554 
L 304.754989 253.336649 
L 305.607101 252.660692 
L 306.459213 252.2879 
L 308.163436 252.770985 
L 309.015548 253.03879 
L 309.867659 252.821798 
L 310.719771 252.288923 
L 311.571883 252.365004 
L 312.423994 252.264991 
L 313.276106 251.299744 
L 314.128218 250.155937 
L 316.684553 245.064918 
L 317.536664 244.052997 
L 319.240888 242.665553 
L 320.945111 242.867941 
L 321.797223 242.523955 
L 322.649334 241.57685 
L 323.501446 240.368915 
L 325.205669 233.175417 
L 326.909893 228.676801 
L 327.762004 227.454053 
L 328.614116 226.615887 
L 329.466228 224.263808 
L 330.318339 223.978394 
L 332.022563 223.013507 
L 332.874674 222.220154 
L 333.726786 222.039733 
L 334.578898 222.887026 
L 335.431009 222.470379 
L 336.283121 221.880206 
L 337.135233 217.101107 
L 337.987344 213.651163 
L 338.839456 213.852504 
L 339.691568 212.279501 
L 340.543679 211.837756 
L 341.395791 212.125463 
L 342.247903 211.443045 
L 343.100014 209.426085 
L 343.952126 208.256365 
L 344.804238 208.582801 
L 345.656349 209.691172 
L 346.508461 208.567105 
L 347.360573 204.963141 
L 348.212684 202.235186 
L 349.064796 200.527006 
L 349.916908 196.936923 
L 350.769019 194.741444 
L 351.621131 194.539724 
L 352.473243 195.11049 
L 353.325354 193.797358 
L 354.177466 194.636757 
L 355.881689 206.812092 
L 356.733801 209.832523 
L 357.585913 211.153992 
L 358.438024 207.678241 
L 359.290136 208.483549 
L 360.994359 207.59091 
L 361.846471 210.117892 
L 362.698583 210.975107 
L 363.550694 211.355373 
L 364.402806 212.743484 
L 365.254918 217.113215 
L 366.107029 220.139116 
L 367.811253 227.891197 
L 368.663364 228.666198 
L 370.367588 228.110604 
L 371.219699 227.573485 
L 372.071811 221.102237 
L 372.923923 211.493218 
L 374.628146 194.926282 
L 375.480258 190.097399 
L 376.332369 189.546315 
L 377.184481 186.070276 
L 378.036593 186.067719 
L 378.888704 185.239645 
L 379.740816 182.184765 
L 380.592928 174.701138 
L 381.445039 170.222911 
L 382.297151 164.957738 
L 383.149263 160.864481 
L 384.001374 153.700963 
L 384.853486 148.684642 
L 385.705598 144.669847 
L 387.409821 122.971132 
L 388.261933 119.57099 
L 389.114044 111.774142 
L 389.966156 98.128506 
L 391.670379 62.82794 
L 392.522491 53.568 
L 393.374603 55.288366 
L 394.226714 67.757902 
L 395.078826 83.52404 
L 395.930938 89.037149 
L 396.783049 88.587066 
L 397.635161 97.436909 
L 398.487273 108.943586 
L 398.487273 108.943586 
" style="fill:none;stroke:#0000ff;stroke-linecap:square;stroke-width:1.5;"/>
   </g>
   <g id="line2d_16">
    <path clip-path="url(#p7ded0ced56)" d="M 73.832727 250.588377 
L 74.684839 250.73953 
L 76.389062 250.601225 
L 77.241174 250.415298 
L 78.093286 249.935419 
L 80.649621 247.062422 
L 82.353844 245.10836 
L 84.910179 242.321643 
L 87.466514 238.75086 
L 88.318626 237.667939 
L 89.170737 236.85949 
L 90.022849 236.337441 
L 90.874961 235.991181 
L 91.727072 235.855248 
L 92.579184 236.05863 
L 93.431296 236.472524 
L 95.135519 237.673369 
L 95.987631 238.028864 
L 96.839742 237.93244 
L 97.691854 237.646267 
L 100.248189 236.273514 
L 101.100301 235.975368 
L 101.952412 235.819396 
L 102.804524 235.873416 
L 103.656636 235.797152 
L 105.360859 235.286733 
L 106.212971 234.936995 
L 107.065082 234.43501 
L 108.769306 233.652523 
L 110.473529 232.742184 
L 111.325641 232.382326 
L 112.177752 232.405335 
L 113.029864 232.692239 
L 115.586199 234.6982 
L 120.698869 241.040394 
L 122.403092 244.534403 
L 125.811539 252.184534 
L 126.663651 253.576956 
L 127.515762 254.736672 
L 128.367874 255.492945 
L 130.072097 256.176281 
L 130.924209 256.945426 
L 132.628432 259.254731 
L 133.480544 260.463396 
L 134.332656 263.60903 
L 136.036879 271.309747 
L 137.741102 279.05078 
L 138.593214 282.310161 
L 139.445326 284.945729 
L 140.297437 286.438192 
L 141.149549 287.071296 
L 142.001661 287.050062 
L 142.853772 286.78378 
L 143.705884 285.860093 
L 144.557996 284.312776 
L 146.262219 280.319742 
L 147.966442 276.606689 
L 150.522777 272.369431 
L 152.227001 268.981795 
L 155.635447 261.753264 
L 158.191782 256.029991 
L 159.043894 254.626294 
L 159.896006 253.545636 
L 160.748117 252.703616 
L 161.600229 252.090311 
L 162.452341 251.641062 
L 163.304452 251.467267 
L 165.008676 250.837634 
L 166.712899 249.924047 
L 167.565011 249.702513 
L 169.269234 249.466035 
L 170.121346 249.029977 
L 171.825569 247.754274 
L 174.381904 245.201271 
L 176.086127 242.07117 
L 179.494574 235.057139 
L 182.050909 230.770514 
L 182.903021 229.159827 
L 183.755132 227.853712 
L 184.607244 227.408429 
L 185.459356 227.690169 
L 187.163579 228.834802 
L 188.015691 228.9977 
L 191.424137 230.122116 
L 192.276249 230.261682 
L 193.128361 230.586429 
L 193.980472 231.346928 
L 195.684696 233.402197 
L 199.093142 239.212479 
L 199.945254 240.041553 
L 200.797366 240.660919 
L 202.501589 241.224068 
L 203.353701 240.975773 
L 205.910036 240.729454 
L 207.614259 240.824102 
L 211.022706 241.174101 
L 212.726929 242.19419 
L 214.431152 243.565927 
L 216.135376 244.936452 
L 220.395934 247.969954 
L 221.248046 248.292579 
L 222.952269 248.742907 
L 224.656492 249.586668 
L 227.212827 251.316523 
L 228.917051 252.123202 
L 231.473386 253.048128 
L 232.325497 253.277845 
L 234.029721 253.242189 
L 238.290279 252.219366 
L 240.846614 251.858957 
L 245.959284 251.783756 
L 246.811396 251.468879 
L 248.515619 250.506496 
L 249.367731 249.907476 
L 250.219843 249.125944 
L 251.071954 247.557866 
L 252.776178 243.490517 
L 254.480401 239.120538 
L 255.332513 236.719652 
L 256.184624 234.862038 
L 257.036736 233.353655 
L 259.593071 229.961557 
L 261.297294 228.391686 
L 263.001518 227.528171 
L 263.853629 227.594775 
L 265.557853 228.215832 
L 268.114188 229.427699 
L 268.966299 229.61645 
L 269.818411 229.931963 
L 271.522634 231.076608 
L 273.226858 232.971941 
L 275.783193 236.261464 
L 279.191639 241.193061 
L 280.895863 242.776349 
L 281.747974 243.197709 
L 282.600086 243.769864 
L 283.452198 245.237983 
L 284.304309 247.017177 
L 286.860644 253.166733 
L 288.564868 256.755078 
L 289.416979 258.1391 
L 290.269091 259.210716 
L 291.121203 259.975878 
L 291.973314 260.557944 
L 292.825426 260.750768 
L 293.677538 260.584768 
L 294.529649 260.068746 
L 296.233873 258.530442 
L 297.938096 256.654183 
L 298.790208 256.13583 
L 299.642319 255.802844 
L 300.494431 255.790873 
L 302.198654 255.443531 
L 304.754989 254.546938 
L 307.311324 253.533791 
L 309.015548 253.312742 
L 310.719771 253.029427 
L 312.423994 252.770232 
L 313.276106 252.476135 
L 314.128218 252.012095 
L 314.980329 251.293828 
L 315.832441 250.39848 
L 318.388776 247.301834 
L 319.240888 246.374578 
L 320.092999 245.660988 
L 322.649334 243.984725 
L 323.501446 243.261563 
L 324.353558 241.933738 
L 326.057781 238.324944 
L 327.762004 234.607063 
L 330.318339 229.803538 
L 332.022563 227.428058 
L 333.726786 225.517129 
L 336.283121 223.965611 
L 337.135233 222.59271 
L 337.987344 220.804401 
L 340.543679 216.757245 
L 343.100014 213.847873 
L 343.952126 212.729571 
L 344.804238 211.900217 
L 345.656349 211.458408 
L 346.508461 210.880148 
L 347.360573 209.696746 
L 349.064796 206.668949 
L 351.621131 201.089004 
L 353.325354 198.674112 
L 354.177466 197.866641 
L 355.029578 198.509723 
L 355.881689 200.170197 
L 357.585913 203.912928 
L 359.290136 205.429502 
L 360.142248 205.96164 
L 360.994359 206.287494 
L 364.402806 209.3818 
L 365.254918 210.928083 
L 366.107029 212.77029 
L 366.959141 215.009975 
L 367.811253 217.586219 
L 368.663364 219.802215 
L 369.515476 221.527789 
L 370.367588 222.844352 
L 371.219699 223.790179 
L 372.071811 223.25259 
L 372.923923 220.900716 
L 373.776034 217.361696 
L 375.480258 208.319171 
L 377.184481 200.865735 
L 378.036593 197.906132 
L 379.740816 192.735221 
L 381.445039 185.347305 
L 383.149263 177.18841 
L 385.705598 163.117701 
L 386.557709 157.173163 
L 388.261933 144.180403 
L 389.114044 137.699151 
L 389.966156 129.785022 
L 390.818268 119.738199 
L 392.522491 97.398518 
L 393.374603 88.976488 
L 394.226714 84.73277 
L 395.078826 84.491024 
L 395.930938 85.400249 
L 396.783049 86.037613 
L 397.635161 88.317472 
L 398.487273 92.442695 
L 398.487273 92.442695 
" style="fill:none;stroke:#ff6347;stroke-linecap:square;stroke-width:1.5;"/>
   </g>
   <g id="patch_3">
    <path d="M 57.6 307.584 
L 57.6 41.472 
" style="fill:none;stroke:#000000;stroke-linecap:square;stroke-linejoin:miter;stroke-width:0.8;"/>
   </g>
   <g id="patch_4">
    <path d="M 414.72 307.584 
L 414.72 41.472 
" style="fill:none;stroke:#000000;stroke-linecap:square;stroke-linejoin:miter;stroke-width:0.8;"/>
   </g>
   <g id="patch_5">
    <path d="M 57.6 307.584 
L 414.72 307.584 
" style="fill:none;stroke:#000000;stroke-linecap:square;stroke-linejoin:miter;stroke-width:0.8;"/>
   </g>
   <g id="patch_6">
    <path d="M 57.6 41.472 
L 414.72 41.472 
" style="fill:none;stroke:#000000;stroke-linecap:square;stroke-linejoin:miter;stroke-width:0.8;"/>
   </g>
   <g id="text_14">
    <!-- Data source: nomics -->
    <g transform="translate(184.91625 35.472)scale(0.1 -0.1)">
     <defs>
      <path d="M 19.671875 64.796875 
L 19.671875 8.109375 
L 31.59375 8.109375 
Q 46.6875 8.109375 53.6875 14.9375 
Q 60.6875 21.78125 60.6875 36.53125 
Q 60.6875 51.171875 53.6875 57.984375 
Q 46.6875 64.796875 31.59375 64.796875 
z
M 9.8125 72.90625 
L 30.078125 72.90625 
Q 51.265625 72.90625 61.171875 64.09375 
Q 71.09375 55.28125 71.09375 36.53125 
Q 71.09375 17.671875 61.125 8.828125 
Q 51.171875 0 30.078125 0 
L 9.8125 0 
z
" id="DejaVuSans-68"/>
      <path d="M 34.28125 27.484375 
Q 23.390625 27.484375 19.1875 25 
Q 14.984375 22.515625 14.984375 16.5 
Q 14.984375 11.71875 18.140625 8.90625 
Q 21.296875 6.109375 26.703125 6.109375 
Q 34.1875 6.109375 38.703125 11.40625 
Q 43.21875 16.703125 43.21875 25.484375 
L 43.21875 27.484375 
z
M 52.203125 31.203125 
L 52.203125 0 
L 43.21875 0 
L 43.21875 8.296875 
Q 40.140625 3.328125 35.546875 0.953125 
Q 30.953125 -1.421875 24.3125 -1.421875 
Q 15.921875 -1.421875 10.953125 3.296875 
Q 6 8.015625 6 15.921875 
Q 6 25.140625 12.171875 29.828125 
Q 18.359375 34.515625 30.609375 34.515625 
L 43.21875 34.515625 
L 43.21875 35.40625 
Q 43.21875 41.609375 39.140625 45 
Q 35.0625 48.390625 27.6875 48.390625 
Q 23 48.390625 18.546875 47.265625 
Q 14.109375 46.140625 10.015625 43.890625 
L 10.015625 52.203125 
Q 14.9375 54.109375 19.578125 55.046875 
Q 24.21875 56 28.609375 56 
Q 40.484375 56 46.34375 49.84375 
Q 52.203125 43.703125 52.203125 31.203125 
z
" id="DejaVuSans-97"/>
      <path d="M 18.3125 70.21875 
L 18.3125 54.6875 
L 36.8125 54.6875 
L 36.8125 47.703125 
L 18.3125 47.703125 
L 18.3125 18.015625 
Q 18.3125 11.328125 20.140625 9.421875 
Q 21.96875 7.515625 27.59375 7.515625 
L 36.8125 7.515625 
L 36.8125 0 
L 27.59375 0 
Q 17.1875 0 13.234375 3.875 
Q 9.28125 7.765625 9.28125 18.015625 
L 9.28125 47.703125 
L 2.6875 47.703125 
L 2.6875 54.6875 
L 9.28125 54.6875 
L 9.28125 70.21875 
z
" id="DejaVuSans-116"/>
      <path id="DejaVuSans-32"/>
      <path d="M 44.28125 53.078125 
L 44.28125 44.578125 
Q 40.484375 46.53125 36.375 47.5 
Q 32.28125 48.484375 27.875 48.484375 
Q 21.1875 48.484375 17.84375 46.4375 
Q 14.5 44.390625 14.5 40.28125 
Q 14.5 37.15625 16.890625 35.375 
Q 19.28125 33.59375 26.515625 31.984375 
L 29.59375 31.296875 
Q 39.15625 29.25 43.1875 25.515625 
Q 47.21875 21.78125 47.21875 15.09375 
Q 47.21875 7.46875 41.1875 3.015625 
Q 35.15625 -1.421875 24.609375 -1.421875 
Q 20.21875 -1.421875 15.453125 -0.5625 
Q 10.6875 0.296875 5.421875 2 
L 5.421875 11.28125 
Q 10.40625 8.6875 15.234375 7.390625 
Q 20.0625 6.109375 24.8125 6.109375 
Q 31.15625 6.109375 34.5625 8.28125 
Q 37.984375 10.453125 37.984375 14.40625 
Q 37.984375 18.0625 35.515625 20.015625 
Q 33.0625 21.96875 24.703125 23.78125 
L 21.578125 24.515625 
Q 13.234375 26.265625 9.515625 29.90625 
Q 5.8125 33.546875 5.8125 39.890625 
Q 5.8125 47.609375 11.28125 51.796875 
Q 16.75 56 26.8125 56 
Q 31.78125 56 36.171875 55.265625 
Q 40.578125 54.546875 44.28125 53.078125 
z
" id="DejaVuSans-115"/>
      <path d="M 30.609375 48.390625 
Q 23.390625 48.390625 19.1875 42.75 
Q 14.984375 37.109375 14.984375 27.296875 
Q 14.984375 17.484375 19.15625 11.84375 
Q 23.34375 6.203125 30.609375 6.203125 
Q 37.796875 6.203125 41.984375 11.859375 
Q 46.1875 17.53125 46.1875 27.296875 
Q 46.1875 37.015625 41.984375 42.703125 
Q 37.796875 48.390625 30.609375 48.390625 
z
M 30.609375 56 
Q 42.328125 56 49.015625 48.375 
Q 55.71875 40.765625 55.71875 27.296875 
Q 55.71875 13.875 49.015625 6.21875 
Q 42.328125 -1.421875 30.609375 -1.421875 
Q 18.84375 -1.421875 12.171875 6.21875 
Q 5.515625 13.875 5.515625 27.296875 
Q 5.515625 40.765625 12.171875 48.375 
Q 18.84375 56 30.609375 56 
z
" id="DejaVuSans-111"/>
      <path d="M 8.5 21.578125 
L 8.5 54.6875 
L 17.484375 54.6875 
L 17.484375 21.921875 
Q 17.484375 14.15625 20.5 10.265625 
Q 23.53125 6.390625 29.59375 6.390625 
Q 36.859375 6.390625 41.078125 11.03125 
Q 45.3125 15.671875 45.3125 23.6875 
L 45.3125 54.6875 
L 54.296875 54.6875 
L 54.296875 0 
L 45.3125 0 
L 45.3125 8.40625 
Q 42.046875 3.421875 37.71875 1 
Q 33.40625 -1.421875 27.6875 -1.421875 
Q 18.265625 -1.421875 13.375 4.4375 
Q 8.5 10.296875 8.5 21.578125 
z
M 31.109375 56 
z
" id="DejaVuSans-117"/>
      <path d="M 41.109375 46.296875 
Q 39.59375 47.171875 37.8125 47.578125 
Q 36.03125 48 33.890625 48 
Q 26.265625 48 22.1875 43.046875 
Q 18.109375 38.09375 18.109375 28.8125 
L 18.109375 0 
L 9.078125 0 
L 9.078125 54.6875 
L 18.109375 54.6875 
L 18.109375 46.1875 
Q 20.953125 51.171875 25.484375 53.578125 
Q 30.03125 56 36.53125 56 
Q 37.453125 56 38.578125 55.875 
Q 39.703125 55.765625 41.0625 55.515625 
z
" id="DejaVuSans-114"/>
      <path d="M 48.78125 52.59375 
L 48.78125 44.1875 
Q 44.96875 46.296875 41.140625 47.34375 
Q 37.3125 48.390625 33.40625 48.390625 
Q 24.65625 48.390625 19.8125 42.84375 
Q 14.984375 37.3125 14.984375 27.296875 
Q 14.984375 17.28125 19.8125 11.734375 
Q 24.65625 6.203125 33.40625 6.203125 
Q 37.3125 6.203125 41.140625 7.25 
Q 44.96875 8.296875 48.78125 10.40625 
L 48.78125 2.09375 
Q 45.015625 0.34375 40.984375 -0.53125 
Q 36.96875 -1.421875 32.421875 -1.421875 
Q 20.0625 -1.421875 12.78125 6.34375 
Q 5.515625 14.109375 5.515625 27.296875 
Q 5.515625 40.671875 12.859375 48.328125 
Q 20.21875 56 33.015625 56 
Q 37.15625 56 41.109375 55.140625 
Q 45.0625 54.296875 48.78125 52.59375 
z
" id="DejaVuSans-99"/>
      <path d="M 56.203125 29.59375 
L 56.203125 25.203125 
L 14.890625 25.203125 
Q 15.484375 15.921875 20.484375 11.0625 
Q 25.484375 6.203125 34.421875 6.203125 
Q 39.59375 6.203125 44.453125 7.46875 
Q 49.3125 8.734375 54.109375 11.28125 
L 54.109375 2.78125 
Q 49.265625 0.734375 44.1875 -0.34375 
Q 39.109375 -1.421875 33.890625 -1.421875 
Q 20.796875 -1.421875 13.15625 6.1875 
Q 5.515625 13.8125 5.515625 26.8125 
Q 5.515625 40.234375 12.765625 48.109375 
Q 20.015625 56 32.328125 56 
Q 43.359375 56 49.78125 48.890625 
Q 56.203125 41.796875 56.203125 29.59375 
z
M 47.21875 32.234375 
Q 47.125 39.59375 43.09375 43.984375 
Q 39.0625 48.390625 32.421875 48.390625 
Q 24.90625 48.390625 20.390625 44.140625 
Q 15.875 39.890625 15.1875 32.171875 
z
" id="DejaVuSans-101"/>
      <path d="M 11.71875 12.40625 
L 22.015625 12.40625 
L 22.015625 0 
L 11.71875 0 
z
M 11.71875 51.703125 
L 22.015625 51.703125 
L 22.015625 39.3125 
L 11.71875 39.3125 
z
" id="DejaVuSans-58"/>
      <path d="M 54.890625 33.015625 
L 54.890625 0 
L 45.90625 0 
L 45.90625 32.71875 
Q 45.90625 40.484375 42.875 44.328125 
Q 39.84375 48.1875 33.796875 48.1875 
Q 26.515625 48.1875 22.3125 43.546875 
Q 18.109375 38.921875 18.109375 30.90625 
L 18.109375 0 
L 9.078125 0 
L 9.078125 54.6875 
L 18.109375 54.6875 
L 18.109375 46.1875 
Q 21.34375 51.125 25.703125 53.5625 
Q 30.078125 56 35.796875 56 
Q 45.21875 56 50.046875 50.171875 
Q 54.890625 44.34375 54.890625 33.015625 
z
" id="DejaVuSans-110"/>
      <path d="M 52 44.1875 
Q 55.375 50.25 60.0625 53.125 
Q 64.75 56 71.09375 56 
Q 79.640625 56 84.28125 50.015625 
Q 88.921875 44.046875 88.921875 33.015625 
L 88.921875 0 
L 79.890625 0 
L 79.890625 32.71875 
Q 79.890625 40.578125 77.09375 44.375 
Q 74.3125 48.1875 68.609375 48.1875 
Q 61.625 48.1875 57.5625 43.546875 
Q 53.515625 38.921875 53.515625 30.90625 
L 53.515625 0 
L 44.484375 0 
L 44.484375 32.71875 
Q 44.484375 40.625 41.703125 44.40625 
Q 38.921875 48.1875 33.109375 48.1875 
Q 26.21875 48.1875 22.15625 43.53125 
Q 18.109375 38.875 18.109375 30.90625 
L 18.109375 0 
L 9.078125 0 
L 9.078125 54.6875 
L 18.109375 54.6875 
L 18.109375 46.1875 
Q 21.1875 51.21875 25.484375 53.609375 
Q 29.78125 56 35.6875 56 
Q 41.65625 56 45.828125 52.96875 
Q 50 49.953125 52 44.1875 
z
" id="DejaVuSans-109"/>
      <path d="M 9.421875 54.6875 
L 18.40625 54.6875 
L 18.40625 0 
L 9.421875 0 
z
M 9.421875 75.984375 
L 18.40625 75.984375 
L 18.40625 64.59375 
L 9.421875 64.59375 
z
" id="DejaVuSans-105"/>
     </defs>
     <use xlink:href="#DejaVuSans-68"/>
     <use x="77.001953" xlink:href="#DejaVuSans-97"/>
     <use x="138.28125" xlink:href="#DejaVuSans-116"/>
     <use x="177.490234" xlink:href="#DejaVuSans-97"/>
     <use x="238.769531" xlink:href="#DejaVuSans-32"/>
     <use x="270.556641" xlink:href="#DejaVuSans-115"/>
     <use x="322.65625" xlink:href="#DejaVuSans-111"/>
     <use x="383.837891" xlink:href="#DejaVuSans-117"/>
     <use x="447.216797" xlink:href="#DejaVuSans-114"/>
     <use x="486.080078" xlink:href="#DejaVuSans-99"/>
     <use x="541.060547" xlink:href="#DejaVuSans-101"/>
     <use x="602.583984" xlink:href="#DejaVuSans-58"/>
     <use x="636.275391" xlink:href="#DejaVuSans-32"/>
     <use x="668.0625" xlink:href="#DejaVuSans-110"/>
     <use x="731.441406" xlink:href="#DejaVuSans-111"/>
     <use x="792.623047" xlink:href="#DejaVuSans-109"/>
     <use x="890.035156" xlink:href="#DejaVuSans-105"/>
     <use x="917.818359" xlink:href="#DejaVuSans-99"/>
     <use x="972.798828" xlink:href="#DejaVuSans-115"/>
    </g>
   </g>
   <g id="legend_1">
    <g id="patch_7">
     <path d="M 64.6 78.82825 
L 127.31875 78.82825 
Q 129.31875 78.82825 129.31875 76.82825 
L 129.31875 48.472 
Q 129.31875 46.472 127.31875 46.472 
L 64.6 46.472 
Q 62.6 46.472 62.6 48.472 
L 62.6 76.82825 
Q 62.6 78.82825 64.6 78.82825 
z
" style="fill:#ffffff;opacity:0.8;stroke:#cccccc;stroke-linejoin:miter;"/>
    </g>
    <g id="line2d_17">
     <path d="M 66.6 54.570437 
L 86.6 54.570437 
" style="fill:none;stroke:#0000ff;stroke-linecap:square;stroke-width:1.5;"/>
    </g>
    <g id="line2d_18"/>
    <g id="text_15">
     <!-- MACD -->
     <g transform="translate(94.6 58.070437)scale(0.1 -0.1)">
      <defs>
       <path d="M 9.8125 72.90625 
L 24.515625 72.90625 
L 43.109375 23.296875 
L 61.8125 72.90625 
L 76.515625 72.90625 
L 76.515625 0 
L 66.890625 0 
L 66.890625 64.015625 
L 48.09375 14.015625 
L 38.1875 14.015625 
L 19.390625 64.015625 
L 19.390625 0 
L 9.8125 0 
z
" id="DejaVuSans-77"/>
       <path d="M 34.1875 63.1875 
L 20.796875 26.90625 
L 47.609375 26.90625 
z
M 28.609375 72.90625 
L 39.796875 72.90625 
L 67.578125 0 
L 57.328125 0 
L 50.6875 18.703125 
L 17.828125 18.703125 
L 11.1875 0 
L 0.78125 0 
z
" id="DejaVuSans-65"/>
       <path d="M 64.40625 67.28125 
L 64.40625 56.890625 
Q 59.421875 61.53125 53.78125 63.8125 
Q 48.140625 66.109375 41.796875 66.109375 
Q 29.296875 66.109375 22.65625 58.46875 
Q 16.015625 50.828125 16.015625 36.375 
Q 16.015625 21.96875 22.65625 14.328125 
Q 29.296875 6.6875 41.796875 6.6875 
Q 48.140625 6.6875 53.78125 8.984375 
Q 59.421875 11.28125 64.40625 15.921875 
L 64.40625 5.609375 
Q 59.234375 2.09375 53.4375 0.328125 
Q 47.65625 -1.421875 41.21875 -1.421875 
Q 24.65625 -1.421875 15.125 8.703125 
Q 5.609375 18.84375 5.609375 36.375 
Q 5.609375 53.953125 15.125 64.078125 
Q 24.65625 74.21875 41.21875 74.21875 
Q 47.75 74.21875 53.53125 72.484375 
Q 59.328125 70.75 64.40625 67.28125 
z
" id="DejaVuSans-67"/>
      </defs>
      <use xlink:href="#DejaVuSans-77"/>
      <use x="86.279297" xlink:href="#DejaVuSans-65"/>
      <use x="152.9375" xlink:href="#DejaVuSans-67"/>
      <use x="222.761719" xlink:href="#DejaVuSans-68"/>
     </g>
    </g>
    <g id="line2d_19">
     <path d="M 66.6 69.248562 
L 86.6 69.248562 
" style="fill:none;stroke:#ff6347;stroke-linecap:square;stroke-width:1.5;"/>
    </g>
    <g id="line2d_20"/>
    <g id="text_16">
     <!-- Signal -->
     <g transform="translate(94.6 72.748562)scale(0.1 -0.1)">
      <defs>
       <path d="M 53.515625 70.515625 
L 53.515625 60.890625 
Q 47.90625 63.578125 42.921875 64.890625 
Q 37.9375 66.21875 33.296875 66.21875 
Q 25.25 66.21875 20.875 63.09375 
Q 16.5 59.96875 16.5 54.203125 
Q 16.5 49.359375 19.40625 46.890625 
Q 22.3125 44.4375 30.421875 42.921875 
L 36.375 41.703125 
Q 47.40625 39.59375 52.65625 34.296875 
Q 57.90625 29 57.90625 20.125 
Q 57.90625 9.515625 50.796875 4.046875 
Q 43.703125 -1.421875 29.984375 -1.421875 
Q 24.8125 -1.421875 18.96875 -0.25 
Q 13.140625 0.921875 6.890625 3.21875 
L 6.890625 13.375 
Q 12.890625 10.015625 18.65625 8.296875 
Q 24.421875 6.59375 29.984375 6.59375 
Q 38.421875 6.59375 43.015625 9.90625 
Q 47.609375 13.234375 47.609375 19.390625 
Q 47.609375 24.75 44.3125 27.78125 
Q 41.015625 30.8125 33.5 32.328125 
L 27.484375 33.5 
Q 16.453125 35.6875 11.515625 40.375 
Q 6.59375 45.0625 6.59375 53.421875 
Q 6.59375 63.09375 13.40625 68.65625 
Q 20.21875 74.21875 32.171875 74.21875 
Q 37.3125 74.21875 42.625 73.28125 
Q 47.953125 72.359375 53.515625 70.515625 
z
" id="DejaVuSans-83"/>
       <path d="M 45.40625 27.984375 
Q 45.40625 37.75 41.375 43.109375 
Q 37.359375 48.484375 30.078125 48.484375 
Q 22.859375 48.484375 18.828125 43.109375 
Q 14.796875 37.75 14.796875 27.984375 
Q 14.796875 18.265625 18.828125 12.890625 
Q 22.859375 7.515625 30.078125 7.515625 
Q 37.359375 7.515625 41.375 12.890625 
Q 45.40625 18.265625 45.40625 27.984375 
z
M 54.390625 6.78125 
Q 54.390625 -7.171875 48.1875 -13.984375 
Q 42 -20.796875 29.203125 -20.796875 
Q 24.46875 -20.796875 20.265625 -20.09375 
Q 16.0625 -19.390625 12.109375 -17.921875 
L 12.109375 -9.1875 
Q 16.0625 -11.328125 19.921875 -12.34375 
Q 23.78125 -13.375 27.78125 -13.375 
Q 36.625 -13.375 41.015625 -8.765625 
Q 45.40625 -4.15625 45.40625 5.171875 
L 45.40625 9.625 
Q 42.625 4.78125 38.28125 2.390625 
Q 33.9375 0 27.875 0 
Q 17.828125 0 11.671875 7.65625 
Q 5.515625 15.328125 5.515625 27.984375 
Q 5.515625 40.671875 11.671875 48.328125 
Q 17.828125 56 27.875 56 
Q 33.9375 56 38.28125 53.609375 
Q 42.625 51.21875 45.40625 46.390625 
L 45.40625 54.6875 
L 54.390625 54.6875 
z
" id="DejaVuSans-103"/>
       <path d="M 9.421875 75.984375 
L 18.40625 75.984375 
L 18.40625 0 
L 9.421875 0 
z
" id="DejaVuSans-108"/>
      </defs>
      <use xlink:href="#DejaVuSans-83"/>
      <use x="63.476562" xlink:href="#DejaVuSans-105"/>
      <use x="91.259766" xlink:href="#DejaVuSans-103"/>
      <use x="154.736328" xlink:href="#DejaVuSans-110"/>
      <use x="218.115234" xlink:href="#DejaVuSans-97"/>
      <use x="279.394531" xlink:href="#DejaVuSans-108"/>
     </g>
    </g>
   </g>
  </g>
  <g id="text_17">
   <!-- MACD -->
   <g transform="translate(206.41875 19.0695)scale(0.16 -0.16)">
    <use xlink:href="#DejaVuSans-77"/>
    <use x="86.279297" xlink:href="#DejaVuSans-65"/>
    <use x="152.9375" xlink:href="#DejaVuSans-67"/>
    <use x="222.761719" xlink:href="#DejaVuSans-68"/>
   </g>
  </g>
 </g>
 <defs>
  <clipPath id="p7ded0ced56">
   <rect height="266.112" width="357.12" x="57.6" y="41.472"/>
  </clipPath>
 </defs>
</svg>
