<?xml version="1.0" encoding="utf-8" standalone="no"?>
<!DOCTYPE svg PUBLIC "-//W3C//DTD SVG 1.1//EN"
  "http://www.w3.org/Graphics/SVG/1.1/DTD/svg11.dtd">
<!-- Created with matplotlib (https://matplotlib.org/) -->
<svg height="345.6pt" version="1.1" viewBox="0 0 460.8 345.6" width="460.8pt" xmlns="http://www.w3.org/2000/svg" xmlns:xlink="http://www.w3.org/1999/xlink">
 <metadata>
  <rdf:RDF xmlns:cc="http://creativecommons.org/ns#" xmlns:dc="http://purl.org/dc/elements/1.1/" xmlns:rdf="http://www.w3.org/1999/02/22-rdf-syntax-ns#">
   <cc:Work>
    <dc:type rdf:resource="http://purl.org/dc/dcmitype/StillImage"/>
    <dc:date>2021-01-25T19:00:09.062196</dc:date>
    <dc:format>image/svg+xml</dc:format>
    <dc:creator>
     <cc:Agent>
      <dc:title>Matplotlib v3.3.2, https://matplotlib.org/</dc:title>
     </cc:Agent>
    </dc:creator>
   </cc:Work>
  </rdf:RDF>
 </metadata>
 <defs>
  <style type="text/css">*{stroke-linecap:butt;stroke-linejoin:round;}</style>
 </defs>
 <g id="figure_1">
  <g id="patch_1">
   <path d="M 0 345.6 
L 460.8 345.6 
L 460.8 0 
L 0 0 
z
" style="fill:#ffffff;"/>
  </g>
  <g id="axes_1">
   <g id="patch_2">
    <path d="M 57.6 307.584 
L 414.72 307.584 
L 414.72 41.472 
L 57.6 41.472 
z
" style="fill:#ffffff;"/>
   </g>
   <g id="matplotlib.axis_1">
    <g id="xtick_1">
     <g id="line2d_1">
      <defs>
       <path d="M 0 0 
L 0 3.5 
" id="m59c34af282" style="stroke:#000000;stroke-width:0.8;"/>
      </defs>
      <g>
       <use style="stroke:#000000;stroke-width:0.8;" x="73.832727" xlink:href="#m59c34af282" y="307.584"/>
      </g>
     </g>
     <g id="text_1">
      <!-- 2020-01 -->
      <g transform="translate(52.941321 322.182437)scale(0.1 -0.1)">
       <defs>
        <path d="M 19.1875 8.296875 
L 53.609375 8.296875 
L 53.609375 0 
L 7.328125 0 
L 7.328125 8.296875 
Q 12.9375 14.109375 22.625 23.890625 
Q 32.328125 33.6875 34.8125 36.53125 
Q 39.546875 41.84375 41.421875 45.53125 
Q 43.3125 49.21875 43.3125 52.78125 
Q 43.3125 58.59375 39.234375 62.25 
Q 35.15625 65.921875 28.609375 65.921875 
Q 23.96875 65.921875 18.8125 64.3125 
Q 13.671875 62.703125 7.8125 59.421875 
L 7.8125 69.390625 
Q 13.765625 71.78125 18.9375 73 
Q 24.125 74.21875 28.421875 74.21875 
Q 39.75 74.21875 46.484375 68.546875 
Q 53.21875 62.890625 53.21875 53.421875 
Q 53.21875 48.921875 51.53125 44.890625 
Q 49.859375 40.875 45.40625 35.40625 
Q 44.1875 33.984375 37.640625 27.21875 
Q 31.109375 20.453125 19.1875 8.296875 
z
" id="DejaVuSans-50"/>
        <path d="M 31.78125 66.40625 
Q 24.171875 66.40625 20.328125 58.90625 
Q 16.5 51.421875 16.5 36.375 
Q 16.5 21.390625 20.328125 13.890625 
Q 24.171875 6.390625 31.78125 6.390625 
Q 39.453125 6.390625 43.28125 13.890625 
Q 47.125 21.390625 47.125 36.375 
Q 47.125 51.421875 43.28125 58.90625 
Q 39.453125 66.40625 31.78125 66.40625 
z
M 31.78125 74.21875 
Q 44.046875 74.21875 50.515625 64.515625 
Q 56.984375 54.828125 56.984375 36.375 
Q 56.984375 17.96875 50.515625 8.265625 
Q 44.046875 -1.421875 31.78125 -1.421875 
Q 19.53125 -1.421875 13.0625 8.265625 
Q 6.59375 17.96875 6.59375 36.375 
Q 6.59375 54.828125 13.0625 64.515625 
Q 19.53125 74.21875 31.78125 74.21875 
z
" id="DejaVuSans-48"/>
        <path d="M 4.890625 31.390625 
L 31.203125 31.390625 
L 31.203125 23.390625 
L 4.890625 23.390625 
z
" id="DejaVuSans-45"/>
        <path d="M 12.40625 8.296875 
L 28.515625 8.296875 
L 28.515625 63.921875 
L 10.984375 60.40625 
L 10.984375 69.390625 
L 28.421875 72.90625 
L 38.28125 72.90625 
L 38.28125 8.296875 
L 54.390625 8.296875 
L 54.390625 0 
L 12.40625 0 
z
" id="DejaVuSans-49"/>
       </defs>
       <use xlink:href="#DejaVuSans-50"/>
       <use x="63.623047" xlink:href="#DejaVuSans-48"/>
       <use x="127.246094" xlink:href="#DejaVuSans-50"/>
       <use x="190.869141" xlink:href="#DejaVuSans-48"/>
       <use x="254.492188" xlink:href="#DejaVuSans-45"/>
       <use x="290.576172" xlink:href="#DejaVuSans-48"/>
       <use x="354.199219" xlink:href="#DejaVuSans-49"/>
      </g>
     </g>
    </g>
    <g id="xtick_2">
     <g id="line2d_2">
      <g>
       <use style="stroke:#000000;stroke-width:0.8;" x="123.77958" xlink:href="#m59c34af282" y="307.584"/>
      </g>
     </g>
     <g id="text_2">
      <!-- 2020-03 -->
      <g transform="translate(102.888174 322.182437)scale(0.1 -0.1)">
       <defs>
        <path d="M 40.578125 39.3125 
Q 47.65625 37.796875 51.625 33 
Q 55.609375 28.21875 55.609375 21.1875 
Q 55.609375 10.40625 48.1875 4.484375 
Q 40.765625 -1.421875 27.09375 -1.421875 
Q 22.515625 -1.421875 17.65625 -0.515625 
Q 12.796875 0.390625 7.625 2.203125 
L 7.625 11.71875 
Q 11.71875 9.328125 16.59375 8.109375 
Q 21.484375 6.890625 26.8125 6.890625 
Q 36.078125 6.890625 40.9375 10.546875 
Q 45.796875 14.203125 45.796875 21.1875 
Q 45.796875 27.640625 41.28125 31.265625 
Q 36.765625 34.90625 28.71875 34.90625 
L 20.21875 34.90625 
L 20.21875 43.015625 
L 29.109375 43.015625 
Q 36.375 43.015625 40.234375 45.921875 
Q 44.09375 48.828125 44.09375 54.296875 
Q 44.09375 59.90625 40.109375 62.90625 
Q 36.140625 65.921875 28.71875 65.921875 
Q 24.65625 65.921875 20.015625 65.03125 
Q 15.375 64.15625 9.8125 62.3125 
L 9.8125 71.09375 
Q 15.4375 72.65625 20.34375 73.4375 
Q 25.25 74.21875 29.59375 74.21875 
Q 40.828125 74.21875 47.359375 69.109375 
Q 53.90625 64.015625 53.90625 55.328125 
Q 53.90625 49.265625 50.4375 45.09375 
Q 46.96875 40.921875 40.578125 39.3125 
z
" id="DejaVuSans-51"/>
       </defs>
       <use xlink:href="#DejaVuSans-50"/>
       <use x="63.623047" xlink:href="#DejaVuSans-48"/>
       <use x="127.246094" xlink:href="#DejaVuSans-50"/>
       <use x="190.869141" xlink:href="#DejaVuSans-48"/>
       <use x="254.492188" xlink:href="#DejaVuSans-45"/>
       <use x="290.576172" xlink:href="#DejaVuSans-48"/>
       <use x="354.199219" xlink:href="#DejaVuSans-51"/>
      </g>
     </g>
    </g>
    <g id="xtick_3">
     <g id="line2d_3">
      <g>
       <use style="stroke:#000000;stroke-width:0.8;" x="174.558881" xlink:href="#m59c34af282" y="307.584"/>
      </g>
     </g>
     <g id="text_3">
      <!-- 2020-05 -->
      <g transform="translate(153.667475 322.182437)scale(0.1 -0.1)">
       <defs>
        <path d="M 10.796875 72.90625 
L 49.515625 72.90625 
L 49.515625 64.59375 
L 19.828125 64.59375 
L 19.828125 46.734375 
Q 21.96875 47.46875 24.109375 47.828125 
Q 26.265625 48.1875 28.421875 48.1875 
Q 40.625 48.1875 47.75 41.5 
Q 54.890625 34.8125 54.890625 23.390625 
Q 54.890625 11.625 47.5625 5.09375 
Q 40.234375 -1.421875 26.90625 -1.421875 
Q 22.3125 -1.421875 17.546875 -0.640625 
Q 12.796875 0.140625 7.71875 1.703125 
L 7.71875 11.625 
Q 12.109375 9.234375 16.796875 8.0625 
Q 21.484375 6.890625 26.703125 6.890625 
Q 35.15625 6.890625 40.078125 11.328125 
Q 45.015625 15.765625 45.015625 23.390625 
Q 45.015625 31 40.078125 35.4375 
Q 35.15625 39.890625 26.703125 39.890625 
Q 22.75 39.890625 18.8125 39.015625 
Q 14.890625 38.140625 10.796875 36.28125 
z
" id="DejaVuSans-53"/>
       </defs>
       <use xlink:href="#DejaVuSans-50"/>
       <use x="63.623047" xlink:href="#DejaVuSans-48"/>
       <use x="127.246094" xlink:href="#DejaVuSans-50"/>
       <use x="190.869141" xlink:href="#DejaVuSans-48"/>
       <use x="254.492188" xlink:href="#DejaVuSans-45"/>
       <use x="290.576172" xlink:href="#DejaVuSans-48"/>
       <use x="354.199219" xlink:href="#DejaVuSans-53"/>
      </g>
     </g>
    </g>
    <g id="xtick_4">
     <g id="line2d_4">
      <g>
       <use style="stroke:#000000;stroke-width:0.8;" x="225.338182" xlink:href="#m59c34af282" y="307.584"/>
      </g>
     </g>
     <g id="text_4">
      <!-- 2020-07 -->
      <g transform="translate(204.446776 322.182437)scale(0.1 -0.1)">
       <defs>
        <path d="M 8.203125 72.90625 
L 55.078125 72.90625 
L 55.078125 68.703125 
L 28.609375 0 
L 18.3125 0 
L 43.21875 64.59375 
L 8.203125 64.59375 
z
" id="DejaVuSans-55"/>
       </defs>
       <use xlink:href="#DejaVuSans-50"/>
       <use x="63.623047" xlink:href="#DejaVuSans-48"/>
       <use x="127.246094" xlink:href="#DejaVuSans-50"/>
       <use x="190.869141" xlink:href="#DejaVuSans-48"/>
       <use x="254.492188" xlink:href="#DejaVuSans-45"/>
       <use x="290.576172" xlink:href="#DejaVuSans-48"/>
       <use x="354.199219" xlink:href="#DejaVuSans-55"/>
      </g>
     </g>
    </g>
    <g id="xtick_5">
     <g id="line2d_5">
      <g>
       <use style="stroke:#000000;stroke-width:0.8;" x="276.94993" xlink:href="#m59c34af282" y="307.584"/>
      </g>
     </g>
     <g id="text_5">
      <!-- 2020-09 -->
      <g transform="translate(256.058524 322.182437)scale(0.1 -0.1)">
       <defs>
        <path d="M 10.984375 1.515625 
L 10.984375 10.5 
Q 14.703125 8.734375 18.5 7.8125 
Q 22.3125 6.890625 25.984375 6.890625 
Q 35.75 6.890625 40.890625 13.453125 
Q 46.046875 20.015625 46.78125 33.40625 
Q 43.953125 29.203125 39.59375 26.953125 
Q 35.25 24.703125 29.984375 24.703125 
Q 19.046875 24.703125 12.671875 31.3125 
Q 6.296875 37.9375 6.296875 49.421875 
Q 6.296875 60.640625 12.9375 67.421875 
Q 19.578125 74.21875 30.609375 74.21875 
Q 43.265625 74.21875 49.921875 64.515625 
Q 56.59375 54.828125 56.59375 36.375 
Q 56.59375 19.140625 48.40625 8.859375 
Q 40.234375 -1.421875 26.421875 -1.421875 
Q 22.703125 -1.421875 18.890625 -0.6875 
Q 15.09375 0.046875 10.984375 1.515625 
z
M 30.609375 32.421875 
Q 37.25 32.421875 41.125 36.953125 
Q 45.015625 41.5 45.015625 49.421875 
Q 45.015625 57.28125 41.125 61.84375 
Q 37.25 66.40625 30.609375 66.40625 
Q 23.96875 66.40625 20.09375 61.84375 
Q 16.21875 57.28125 16.21875 49.421875 
Q 16.21875 41.5 20.09375 36.953125 
Q 23.96875 32.421875 30.609375 32.421875 
z
" id="DejaVuSans-57"/>
       </defs>
       <use xlink:href="#DejaVuSans-50"/>
       <use x="63.623047" xlink:href="#DejaVuSans-48"/>
       <use x="127.246094" xlink:href="#DejaVuSans-50"/>
       <use x="190.869141" xlink:href="#DejaVuSans-48"/>
       <use x="254.492188" xlink:href="#DejaVuSans-45"/>
       <use x="290.576172" xlink:href="#DejaVuSans-48"/>
       <use x="354.199219" xlink:href="#DejaVuSans-57"/>
      </g>
     </g>
    </g>
    <g id="xtick_6">
     <g id="line2d_6">
      <g>
       <use style="stroke:#000000;stroke-width:0.8;" x="327.729231" xlink:href="#m59c34af282" y="307.584"/>
      </g>
     </g>
     <g id="text_6">
      <!-- 2020-11 -->
      <g transform="translate(306.837825 322.182437)scale(0.1 -0.1)">
       <use xlink:href="#DejaVuSans-50"/>
       <use x="63.623047" xlink:href="#DejaVuSans-48"/>
       <use x="127.246094" xlink:href="#DejaVuSans-50"/>
       <use x="190.869141" xlink:href="#DejaVuSans-48"/>
       <use x="254.492188" xlink:href="#DejaVuSans-45"/>
       <use x="290.576172" xlink:href="#DejaVuSans-49"/>
       <use x="354.199219" xlink:href="#DejaVuSans-49"/>
      </g>
     </g>
    </g>
    <g id="xtick_7">
     <g id="line2d_7">
      <g>
       <use style="stroke:#000000;stroke-width:0.8;" x="378.508531" xlink:href="#m59c34af282" y="307.584"/>
      </g>
     </g>
     <g id="text_7">
      <!-- 2021-01 -->
      <g transform="translate(357.617125 322.182437)scale(0.1 -0.1)">
       <use xlink:href="#DejaVuSans-50"/>
       <use x="63.623047" xlink:href="#DejaVuSans-48"/>
       <use x="127.246094" xlink:href="#DejaVuSans-50"/>
       <use x="190.869141" xlink:href="#DejaVuSans-49"/>
       <use x="254.492188" xlink:href="#DejaVuSans-45"/>
       <use x="290.576172" xlink:href="#DejaVuSans-48"/>
       <use x="354.199219" xlink:href="#DejaVuSans-49"/>
      </g>
     </g>
    </g>
   </g>
   <g id="matplotlib.axis_2">
    <g id="ytick_1">
     <g id="line2d_8">
      <defs>
       <path d="M 0 0 
L -3.5 0 
" id="md0c4b6b629" style="stroke:#000000;stroke-width:0.8;"/>
      </defs>
      <g>
       <use style="stroke:#000000;stroke-width:0.8;" x="57.6" xlink:href="#md0c4b6b629" y="292.120971"/>
      </g>
     </g>
     <g id="text_8">
      <!-- −1000 -->
      <g transform="translate(16.770313 295.92019)scale(0.1 -0.1)">
       <defs>
        <path d="M 10.59375 35.5 
L 73.1875 35.5 
L 73.1875 27.203125 
L 10.59375 27.203125 
z
" id="DejaVuSans-8722"/>
       </defs>
       <use xlink:href="#DejaVuSans-8722"/>
       <use x="83.789062" xlink:href="#DejaVuSans-49"/>
       <use x="147.412109" xlink:href="#DejaVuSans-48"/>
       <use x="211.035156" xlink:href="#DejaVuSans-48"/>
       <use x="274.658203" xlink:href="#DejaVuSans-48"/>
      </g>
     </g>
    </g>
    <g id="ytick_2">
     <g id="line2d_9">
      <g>
       <use style="stroke:#000000;stroke-width:0.8;" x="57.6" xlink:href="#md0c4b6b629" y="250.021533"/>
      </g>
     </g>
     <g id="text_9">
      <!-- 0 -->
      <g transform="translate(44.2375 253.820752)scale(0.1 -0.1)">
       <use xlink:href="#DejaVuSans-48"/>
      </g>
     </g>
    </g>
    <g id="ytick_3">
     <g id="line2d_10">
      <g>
       <use style="stroke:#000000;stroke-width:0.8;" x="57.6" xlink:href="#md0c4b6b629" y="207.922095"/>
      </g>
     </g>
     <g id="text_10">
      <!-- 1000 -->
      <g transform="translate(25.15 211.721314)scale(0.1 -0.1)">
       <use xlink:href="#DejaVuSans-49"/>
       <use x="63.623047" xlink:href="#DejaVuSans-48"/>
       <use x="127.246094" xlink:href="#DejaVuSans-48"/>
       <use x="190.869141" xlink:href="#DejaVuSans-48"/>
      </g>
     </g>
    </g>
    <g id="ytick_4">
     <g id="line2d_11">
      <g>
       <use style="stroke:#000000;stroke-width:0.8;" x="57.6" xlink:href="#md0c4b6b629" y="165.822658"/>
      </g>
     </g>
     <g id="text_11">
      <!-- 2000 -->
      <g transform="translate(25.15 169.621877)scale(0.1 -0.1)">
       <use xlink:href="#DejaVuSans-50"/>
       <use x="63.623047" xlink:href="#DejaVuSans-48"/>
       <use x="127.246094" xlink:href="#DejaVuSans-48"/>
       <use x="190.869141" xlink:href="#DejaVuSans-48"/>
      </g>
     </g>
    </g>
    <g id="ytick_5">
     <g id="line2d_12">
      <g>
       <use style="stroke:#000000;stroke-width:0.8;" x="57.6" xlink:href="#md0c4b6b629" y="123.72322"/>
      </g>
     </g>
     <g id="text_12">
      <!-- 3000 -->
      <g transform="translate(25.15 127.522439)scale(0.1 -0.1)">
       <use xlink:href="#DejaVuSans-51"/>
       <use x="63.623047" xlink:href="#DejaVuSans-48"/>
       <use x="127.246094" xlink:href="#DejaVuSans-48"/>
       <use x="190.869141" xlink:href="#DejaVuSans-48"/>
      </g>
     </g>
    </g>
    <g id="ytick_6">
     <g id="line2d_13">
      <g>
       <use style="stroke:#000000;stroke-width:0.8;" x="57.6" xlink:href="#md0c4b6b629" y="81.623783"/>
      </g>
     </g>
     <g id="text_13">
      <!-- 4000 -->
      <g transform="translate(25.15 85.423001)scale(0.1 -0.1)">
       <defs>
        <path d="M 37.796875 64.3125 
L 12.890625 25.390625 
L 37.796875 25.390625 
z
M 35.203125 72.90625 
L 47.609375 72.90625 
L 47.609375 25.390625 
L 58.015625 25.390625 
L 58.015625 17.1875 
L 47.609375 17.1875 
L 47.609375 0 
L 37.796875 0 
L 37.796875 17.1875 
L 4.890625 17.1875 
L 4.890625 26.703125 
z
" id="DejaVuSans-52"/>
       </defs>
       <use xlink:href="#DejaVuSans-52"/>
       <use x="63.623047" xlink:href="#DejaVuSans-48"/>
       <use x="127.246094" xlink:href="#DejaVuSans-48"/>
       <use x="190.869141" xlink:href="#DejaVuSans-48"/>
      </g>
     </g>
    </g>
   </g>
   <g id="line2d_14">
    <path clip-path="url(#p5f2a235aa5)" d="M 73.832727 250.021533 
L 398.487273 250.021533 
L 398.487273 250.021533 
" style="fill:none;stroke:#1f77b4;stroke-dasharray:5.55,2.4;stroke-dashoffset:0;stroke-width:1.5;"/>
   </g>
   <g id="line2d_15">
    <path clip-path="url(#p5f2a235aa5)" d="M 73.832727 250.021533 
L 74.665175 250.783528 
L 76.33007 249.494934 
L 77.162517 249.041925 
L 77.994965 247.336307 
L 78.827413 244.7009 
L 79.65986 243.082592 
L 80.492308 242.652585 
L 81.324755 241.149205 
L 82.157203 240.652905 
L 82.98965 239.825243 
L 83.822098 239.539507 
L 84.654545 237.077698 
L 85.486993 235.292879 
L 86.319441 234.369901 
L 87.151888 233.243009 
L 87.984336 232.514651 
L 88.816783 232.823907 
L 89.649231 233.488148 
L 90.481678 233.873519 
L 91.314126 234.583114 
L 92.146573 236.217947 
L 93.811469 238.993656 
L 94.643916 239.391834 
L 95.476364 238.821572 
L 96.308811 236.850892 
L 97.141259 235.802289 
L 97.973706 234.409763 
L 99.638601 233.794396 
L 100.471049 233.971439 
L 101.303497 234.432214 
L 102.135944 235.361476 
L 102.968392 234.785411 
L 104.633287 233.4558 
L 105.465734 232.882188 
L 106.298182 231.742749 
L 107.130629 232.094604 
L 108.795524 230.414399 
L 109.627972 230.428949 
L 110.46042 230.238194 
L 112.957762 235.234869 
L 113.79021 235.370034 
L 114.622657 237.632382 
L 115.455105 239.499618 
L 117.12 241.992335 
L 117.952448 242.003155 
L 118.784895 243.139534 
L 119.617343 245.286108 
L 120.44979 248.780971 
L 122.114685 253.8538 
L 122.947133 256.293172 
L 123.77958 258.126648 
L 124.612028 258.174456 
L 125.444476 258.649864 
L 126.276923 258.92499 
L 127.109371 258.013478 
L 127.941818 256.899698 
L 128.774266 256.819182 
L 130.439161 261.940649 
L 131.271608 263.827677 
L 132.104056 264.974339 
L 132.936503 275.901942 
L 134.601399 287.499997 
L 136.266294 294.282252 
L 137.098741 295.388544 
L 137.931189 295.488 
L 140.428531 286.803812 
L 141.260979 285.574219 
L 143.758322 274.406101 
L 144.590769 271.455391 
L 145.423217 268.937002 
L 146.255664 268.334111 
L 147.088112 268.810154 
L 147.920559 266.662491 
L 148.753007 265.189366 
L 151.25035 259.179091 
L 152.082797 257.356526 
L 152.915245 256.161711 
L 154.58014 251.009031 
L 155.412587 249.179524 
L 156.245035 247.843734 
L 157.077483 248.182129 
L 157.90993 248.790281 
L 158.742378 248.174542 
L 159.574825 248.990643 
L 160.407273 249.231949 
L 161.23972 249.960458 
L 162.904615 248.913611 
L 163.737063 248.053765 
L 164.56951 247.590456 
L 166.234406 248.789368 
L 167.066853 248.339709 
L 167.899301 246.59909 
L 169.564196 244.290818 
L 172.061538 241.848486 
L 172.893986 239.516406 
L 173.726434 236.239632 
L 175.391329 231.539591 
L 176.223776 230.28055 
L 177.888671 228.928915 
L 179.553566 226.192141 
L 180.386014 223.396184 
L 181.218462 222.334703 
L 182.050909 226.101712 
L 183.715804 230.183695 
L 184.548252 230.872348 
L 185.380699 230.006743 
L 186.213147 229.754752 
L 187.045594 229.984899 
L 187.878042 229.352208 
L 188.71049 229.557443 
L 189.542937 229.436947 
L 190.375385 229.636047 
L 191.207832 231.492137 
L 192.04028 233.685938 
L 192.872727 235.560557 
L 193.705175 237.139338 
L 194.537622 239.956394 
L 195.37007 241.960122 
L 196.202517 243.447227 
L 197.034965 243.730462 
L 197.867413 243.216663 
L 198.69986 242.547598 
L 200.364755 241.822006 
L 201.197203 239.756552 
L 202.02965 240.075697 
L 202.862098 240.65704 
L 203.694545 240.187353 
L 204.526993 240.458883 
L 205.359441 240.976052 
L 206.191888 241.118884 
L 207.024336 241.538465 
L 207.856783 241.755348 
L 208.689231 241.79631 
L 210.354126 244.172953 
L 211.186573 245.192241 
L 212.019021 247.001803 
L 214.516364 247.909589 
L 215.348811 248.782229 
L 216.181259 249.359631 
L 217.013706 249.728476 
L 217.846154 249.564815 
L 218.678601 249.049489 
L 219.511049 248.930241 
L 220.343497 249.642405 
L 221.175944 250.696946 
L 222.008392 251.391986 
L 222.840839 252.501291 
L 223.673287 252.990692 
L 225.338182 253.257188 
L 226.170629 253.127889 
L 227.835524 253.513472 
L 228.667972 253.633955 
L 229.50042 253.257523 
L 231.165315 252.215225 
L 231.997762 251.3797 
L 232.83021 251.579878 
L 235.327552 250.744696 
L 236.992448 250.860827 
L 238.657343 251.429518 
L 240.322238 251.545454 
L 241.987133 251.268009 
L 242.81958 250.613988 
L 244.484476 248.657872 
L 246.149371 246.714563 
L 246.981818 243.95582 
L 247.814266 239.563693 
L 248.646713 236.251187 
L 249.479161 233.574403 
L 250.311608 231.758674 
L 251.144056 229.44047 
L 251.976503 228.036334 
L 253.641399 227.221103 
L 254.473846 227.337527 
L 255.306294 225.748409 
L 256.138741 224.677737 
L 257.803636 225.202895 
L 258.636084 224.492544 
L 259.468531 224.823979 
L 260.300979 227.018044 
L 261.133427 228.249989 
L 261.965874 228.810415 
L 262.798322 229.034054 
L 263.630769 229.405782 
L 264.463217 230.106023 
L 265.295664 229.299815 
L 266.128112 230.277885 
L 266.960559 231.553303 
L 267.793007 233.605164 
L 269.457902 236.640072 
L 270.29035 237.559959 
L 271.122797 239.649445 
L 271.955245 241.135713 
L 272.787692 242.927692 
L 273.62014 243.807649 
L 274.452587 244.457671 
L 276.117483 244.619308 
L 276.94993 243.772412 
L 277.782378 243.746018 
L 278.614825 245.451897 
L 279.447273 250.233401 
L 281.944615 259.66531 
L 282.777063 261.056323 
L 283.60951 262.974449 
L 284.441958 263.293535 
L 285.274406 263.259549 
L 286.106853 262.894578 
L 286.939301 262.876006 
L 287.771748 261.481678 
L 288.604196 259.757563 
L 289.436643 257.611112 
L 290.269091 256.166246 
L 291.933986 253.598993 
L 292.766434 253.138383 
L 293.598881 253.839187 
L 294.431329 254.328081 
L 295.263776 255.572597 
L 296.096224 255.097639 
L 299.426014 252.542066 
L 300.258462 252.196831 
L 301.090909 251.977809 
L 301.923357 252.170056 
L 303.588252 252.763146 
L 304.420699 252.587212 
L 305.253147 252.098424 
L 306.085594 252.251904 
L 306.918042 252.158235 
L 307.75049 251.214727 
L 308.582937 249.904639 
L 311.08028 244.588533 
L 311.912727 243.600758 
L 313.577622 242.174182 
L 315.242517 242.358848 
L 316.074965 241.988976 
L 316.907413 240.979417 
L 317.73986 239.739286 
L 319.404755 232.462087 
L 321.06965 227.899006 
L 321.902098 226.700056 
L 322.734545 225.929709 
L 323.566993 223.683317 
L 324.399441 223.44023 
L 326.064336 222.491546 
L 326.896783 221.683285 
L 327.729231 221.487608 
L 328.561678 222.31686 
L 330.226573 221.154634 
L 331.059021 216.217985 
L 331.891469 212.750752 
L 332.723916 212.961171 
L 333.556364 211.380464 
L 334.388811 211.101575 
L 335.221259 211.398563 
L 336.053706 210.751234 
L 336.886154 208.695091 
L 337.718601 207.456655 
L 338.551049 207.826578 
L 339.383497 208.958176 
L 340.215944 207.786018 
L 341.048392 204.139293 
L 341.880839 201.439214 
L 342.713287 199.777294 
L 343.545734 196.158423 
L 344.378182 193.862797 
L 345.210629 193.624405 
L 346.043077 194.220702 
L 346.875524 192.705778 
L 347.707972 193.642069 
L 349.372867 205.982283 
L 350.205315 209.066034 
L 351.037762 210.408732 
L 351.87021 206.835802 
L 352.702657 207.59449 
L 353.535105 207.224871 
L 354.367552 206.670566 
L 355.2 209.392973 
L 356.032448 210.308041 
L 356.864895 210.709202 
L 357.697343 212.147594 
L 358.52979 216.60389 
L 359.362238 219.699105 
L 361.027133 227.45376 
L 361.85958 228.241455 
L 363.524476 227.53801 
L 364.356923 226.936449 
L 365.189371 220.329541 
L 366.021818 210.580176 
L 367.686713 194.022295 
L 368.519161 189.428511 
L 369.351608 189.00769 
L 370.184056 185.682189 
L 371.016503 185.785652 
L 371.848951 184.917433 
L 372.681399 181.694141 
L 373.513846 174.110103 
L 374.346294 169.697137 
L 375.178741 164.489903 
L 376.011189 160.336698 
L 376.843636 152.959597 
L 377.676084 148.050095 
L 378.508531 143.903088 
L 380.173427 121.989619 
L 381.005874 118.675359 
L 381.838322 110.800244 
L 382.670769 96.840404 
L 384.335664 62.702905 
L 385.168112 53.568 
L 386.000559 55.488499 
L 386.833007 68.372885 
L 387.665455 85.250261 
L 388.497902 89.215061 
L 389.33035 88.235595 
L 390.162797 97.264624 
L 391.827692 119.653565 
L 392.66014 127.098011 
L 394.325035 147.053937 
L 395.157483 171.970942 
L 397.654825 210.073347 
L 398.487273 219.251942 
L 398.487273 219.251942 
" style="fill:none;stroke:#0000ff;stroke-linecap:square;stroke-width:1.5;"/>
   </g>
   <g id="line2d_16">
    <path clip-path="url(#p5f2a235aa5)" d="M 73.832727 250.021533 
L 74.665175 250.173932 
L 75.497622 250.154914 
L 77.162517 249.826719 
L 77.994965 249.328637 
L 80.492308 246.401709 
L 82.157203 244.411547 
L 84.654545 241.578204 
L 87.151888 237.953315 
L 87.984336 236.865582 
L 88.816783 236.057247 
L 89.649231 235.543427 
L 90.481678 235.209445 
L 91.314126 235.084179 
L 92.146573 235.310933 
L 92.979021 235.750182 
L 94.643916 236.997468 
L 95.476364 237.362289 
L 96.308811 237.26001 
L 97.141259 236.968465 
L 99.638601 235.538016 
L 100.471049 235.224701 
L 101.303497 235.066204 
L 102.135944 235.125258 
L 102.968392 235.057288 
L 104.633287 234.575366 
L 105.465734 234.23673 
L 106.298182 233.737934 
L 107.963077 232.964671 
L 109.627972 232.049483 
L 110.46042 231.687225 
L 111.292867 231.71738 
L 112.125315 232.018061 
L 113.79021 233.203145 
L 114.622657 234.088992 
L 117.952448 238.347636 
L 118.784895 239.306016 
L 119.617343 240.502034 
L 121.282238 244.015131 
L 124.612028 251.683908 
L 125.444476 253.077099 
L 126.276923 254.246677 
L 127.109371 255.000037 
L 128.774266 255.667812 
L 129.606713 256.444769 
L 131.271608 258.800691 
L 132.104056 260.035421 
L 132.936503 263.208725 
L 134.601399 271.036086 
L 136.266294 278.874539 
L 137.098741 282.17734 
L 137.931189 284.839472 
L 138.763636 286.364855 
L 139.596084 286.997256 
L 140.428531 286.958568 
L 141.260979 286.681698 
L 142.093427 285.723536 
L 142.925874 284.123277 
L 144.590769 280.034952 
L 145.423217 277.815362 
L 146.255664 275.919112 
L 147.920559 272.930354 
L 149.585455 269.729085 
L 155.412587 256.973137 
L 156.245035 255.147257 
L 157.077483 253.754231 
L 158.742378 251.844061 
L 159.574825 251.273378 
L 160.407273 250.865092 
L 162.072168 250.432956 
L 163.737063 249.714023 
L 164.56951 249.289309 
L 165.401958 249.066748 
L 167.066853 248.876959 
L 167.899301 248.421385 
L 169.564196 247.120791 
L 172.061538 244.868855 
L 172.893986 243.798365 
L 174.558881 240.574476 
L 176.223776 237.070109 
L 177.888671 234.243191 
L 179.553566 231.552403 
L 181.218462 228.403868 
L 182.050909 227.943436 
L 182.883357 227.956847 
L 184.548252 228.896243 
L 186.213147 229.245624 
L 187.045594 229.393479 
L 190.375385 229.465709 
L 191.207832 229.870995 
L 192.04028 230.633983 
L 193.705175 232.723306 
L 197.034965 238.563545 
L 197.867413 239.494169 
L 198.69986 240.104855 
L 199.532308 240.509404 
L 200.364755 240.771924 
L 202.02965 240.470219 
L 203.694545 240.443538 
L 205.359441 240.552496 
L 207.024336 240.840312 
L 208.689231 241.177917 
L 209.521678 241.542737 
L 211.186573 242.693473 
L 212.851469 244.297476 
L 216.181259 246.823892 
L 217.013706 247.404809 
L 217.846154 247.83681 
L 220.343497 248.528101 
L 222.008392 249.447893 
L 224.505734 251.151657 
L 226.170629 251.883788 
L 228.667972 252.68142 
L 229.50042 252.79664 
L 231.165315 252.667628 
L 232.83021 252.244009 
L 236.992448 251.34447 
L 238.657343 251.338095 
L 241.987133 251.386789 
L 242.81958 251.232228 
L 244.484476 250.452397 
L 246.149371 249.274298 
L 246.981818 248.210602 
L 247.814266 246.48122 
L 252.808951 234.34649 
L 253.641399 232.921413 
L 256.971189 228.527555 
L 258.636084 227.188607 
L 259.468531 226.715682 
L 260.300979 226.776154 
L 262.798322 227.741867 
L 266.960559 229.487732 
L 268.625455 231.267492 
L 271.122797 234.638368 
L 274.452587 239.795675 
L 275.285035 240.74726 
L 276.117483 241.52167 
L 278.614825 242.951706 
L 279.447273 244.408045 
L 280.27972 246.223202 
L 283.60951 254.780726 
L 284.441958 256.483288 
L 285.274406 257.83854 
L 286.106853 258.849748 
L 286.939301 259.654999 
L 287.771748 260.020335 
L 288.604196 259.967781 
L 289.436643 259.496447 
L 291.101538 258.059302 
L 292.766434 256.361469 
L 293.598881 255.857012 
L 294.431329 255.551226 
L 296.096224 255.463928 
L 297.761119 254.99404 
L 299.426014 254.243714 
L 301.090909 253.463032 
L 301.923357 253.204437 
L 303.588252 253.002708 
L 306.085594 252.654678 
L 306.918042 252.55539 
L 307.75049 252.287257 
L 308.582937 251.810734 
L 309.415385 251.062651 
L 310.247832 250.132388 
L 312.745175 246.932319 
L 313.577622 245.980692 
L 314.41007 245.246964 
L 316.907413 243.502498 
L 317.73986 242.749856 
L 318.572308 241.380066 
L 320.237203 237.702871 
L 321.902098 233.933689 
L 324.399441 229.170428 
L 326.064336 226.837297 
L 327.729231 224.942717 
L 330.226573 223.334229 
L 331.059021 221.91098 
L 331.891469 220.078935 
L 334.388811 215.980634 
L 336.886154 213.100316 
L 337.718601 211.971584 
L 338.551049 211.142583 
L 339.383497 210.705701 
L 340.215944 210.121765 
L 341.048392 208.92527 
L 342.713287 205.897906 
L 345.210629 200.270935 
L 346.875524 197.789866 
L 347.707972 196.960307 
L 348.54042 197.60696 
L 349.372867 199.282024 
L 351.037762 203.072807 
L 352.702657 204.579223 
L 353.535105 205.108353 
L 354.367552 205.420795 
L 357.697343 208.644619 
L 358.52979 210.236473 
L 359.362238 212.128999 
L 360.194685 214.397293 
L 361.85958 219.25516 
L 362.692028 220.985237 
L 363.524476 222.295791 
L 364.356923 223.223923 
L 365.189371 222.645046 
L 366.021818 220.232072 
L 366.854266 216.6483 
L 368.519161 207.584181 
L 370.184056 200.231544 
L 371.016503 197.342366 
L 372.681399 192.224732 
L 374.346294 184.820872 
L 376.011189 176.671082 
L 378.508531 162.503055 
L 379.340979 156.489926 
L 381.005874 143.406963 
L 381.838322 136.885619 
L 382.670769 128.876576 
L 384.335664 107.6222 
L 385.168112 96.81136 
L 386.000559 88.546788 
L 386.833007 84.512007 
L 387.665455 84.659658 
L 388.497902 85.570739 
L 389.33035 86.10371 
L 390.162797 88.335893 
L 390.995245 92.382214 
L 392.66014 103.68879 
L 394.325035 117.655723 
L 396.822378 151.68529 
L 398.487273 174.540709 
L 398.487273 174.540709 
" style="fill:none;stroke:#ff6347;stroke-linecap:square;stroke-width:1.5;"/>
   </g>
   <g id="patch_3">
    <path d="M 57.6 307.584 
L 57.6 41.472 
" style="fill:none;stroke:#000000;stroke-linecap:square;stroke-linejoin:miter;stroke-width:0.8;"/>
   </g>
   <g id="patch_4">
    <path d="M 414.72 307.584 
L 414.72 41.472 
" style="fill:none;stroke:#000000;stroke-linecap:square;stroke-linejoin:miter;stroke-width:0.8;"/>
   </g>
   <g id="patch_5">
    <path d="M 57.6 307.584 
L 414.72 307.584 
" style="fill:none;stroke:#000000;stroke-linecap:square;stroke-linejoin:miter;stroke-width:0.8;"/>
   </g>
   <g id="patch_6">
    <path d="M 57.6 41.472 
L 414.72 41.472 
" style="fill:none;stroke:#000000;stroke-linecap:square;stroke-linejoin:miter;stroke-width:0.8;"/>
   </g>
   <g id="text_14">
    <!-- Data source: coindesk -->
    <g transform="translate(180.640469 35.472)scale(0.1 -0.1)">
     <defs>
      <path d="M 19.671875 64.796875 
L 19.671875 8.109375 
L 31.59375 8.109375 
Q 46.6875 8.109375 53.6875 14.9375 
Q 60.6875 21.78125 60.6875 36.53125 
Q 60.6875 51.171875 53.6875 57.984375 
Q 46.6875 64.796875 31.59375 64.796875 
z
M 9.8125 72.90625 
L 30.078125 72.90625 
Q 51.265625 72.90625 61.171875 64.09375 
Q 71.09375 55.28125 71.09375 36.53125 
Q 71.09375 17.671875 61.125 8.828125 
Q 51.171875 0 30.078125 0 
L 9.8125 0 
z
" id="DejaVuSans-68"/>
      <path d="M 34.28125 27.484375 
Q 23.390625 27.484375 19.1875 25 
Q 14.984375 22.515625 14.984375 16.5 
Q 14.984375 11.71875 18.140625 8.90625 
Q 21.296875 6.109375 26.703125 6.109375 
Q 34.1875 6.109375 38.703125 11.40625 
Q 43.21875 16.703125 43.21875 25.484375 
L 43.21875 27.484375 
z
M 52.203125 31.203125 
L 52.203125 0 
L 43.21875 0 
L 43.21875 8.296875 
Q 40.140625 3.328125 35.546875 0.953125 
Q 30.953125 -1.421875 24.3125 -1.421875 
Q 15.921875 -1.421875 10.953125 3.296875 
Q 6 8.015625 6 15.921875 
Q 6 25.140625 12.171875 29.828125 
Q 18.359375 34.515625 30.609375 34.515625 
L 43.21875 34.515625 
L 43.21875 35.40625 
Q 43.21875 41.609375 39.140625 45 
Q 35.0625 48.390625 27.6875 48.390625 
Q 23 48.390625 18.546875 47.265625 
Q 14.109375 46.140625 10.015625 43.890625 
L 10.015625 52.203125 
Q 14.9375 54.109375 19.578125 55.046875 
Q 24.21875 56 28.609375 56 
Q 40.484375 56 46.34375 49.84375 
Q 52.203125 43.703125 52.203125 31.203125 
z
" id="DejaVuSans-97"/>
      <path d="M 18.3125 70.21875 
L 18.3125 54.6875 
L 36.8125 54.6875 
L 36.8125 47.703125 
L 18.3125 47.703125 
L 18.3125 18.015625 
Q 18.3125 11.328125 20.140625 9.421875 
Q 21.96875 7.515625 27.59375 7.515625 
L 36.8125 7.515625 
L 36.8125 0 
L 27.59375 0 
Q 17.1875 0 13.234375 3.875 
Q 9.28125 7.765625 9.28125 18.015625 
L 9.28125 47.703125 
L 2.6875 47.703125 
L 2.6875 54.6875 
L 9.28125 54.6875 
L 9.28125 70.21875 
z
" id="DejaVuSans-116"/>
      <path id="DejaVuSans-32"/>
      <path d="M 44.28125 53.078125 
L 44.28125 44.578125 
Q 40.484375 46.53125 36.375 47.5 
Q 32.28125 48.484375 27.875 48.484375 
Q 21.1875 48.484375 17.84375 46.4375 
Q 14.5 44.390625 14.5 40.28125 
Q 14.5 37.15625 16.890625 35.375 
Q 19.28125 33.59375 26.515625 31.984375 
L 29.59375 31.296875 
Q 39.15625 29.25 43.1875 25.515625 
Q 47.21875 21.78125 47.21875 15.09375 
Q 47.21875 7.46875 41.1875 3.015625 
Q 35.15625 -1.421875 24.609375 -1.421875 
Q 20.21875 -1.421875 15.453125 -0.5625 
Q 10.6875 0.296875 5.421875 2 
L 5.421875 11.28125 
Q 10.40625 8.6875 15.234375 7.390625 
Q 20.0625 6.109375 24.8125 6.109375 
Q 31.15625 6.109375 34.5625 8.28125 
Q 37.984375 10.453125 37.984375 14.40625 
Q 37.984375 18.0625 35.515625 20.015625 
Q 33.0625 21.96875 24.703125 23.78125 
L 21.578125 24.515625 
Q 13.234375 26.265625 9.515625 29.90625 
Q 5.8125 33.546875 5.8125 39.890625 
Q 5.8125 47.609375 11.28125 51.796875 
Q 16.75 56 26.8125 56 
Q 31.78125 56 36.171875 55.265625 
Q 40.578125 54.546875 44.28125 53.078125 
z
" id="DejaVuSans-115"/>
      <path d="M 30.609375 48.390625 
Q 23.390625 48.390625 19.1875 42.75 
Q 14.984375 37.109375 14.984375 27.296875 
Q 14.984375 17.484375 19.15625 11.84375 
Q 23.34375 6.203125 30.609375 6.203125 
Q 37.796875 6.203125 41.984375 11.859375 
Q 46.1875 17.53125 46.1875 27.296875 
Q 46.1875 37.015625 41.984375 42.703125 
Q 37.796875 48.390625 30.609375 48.390625 
z
M 30.609375 56 
Q 42.328125 56 49.015625 48.375 
Q 55.71875 40.765625 55.71875 27.296875 
Q 55.71875 13.875 49.015625 6.21875 
Q 42.328125 -1.421875 30.609375 -1.421875 
Q 18.84375 -1.421875 12.171875 6.21875 
Q 5.515625 13.875 5.515625 27.296875 
Q 5.515625 40.765625 12.171875 48.375 
Q 18.84375 56 30.609375 56 
z
" id="DejaVuSans-111"/>
      <path d="M 8.5 21.578125 
L 8.5 54.6875 
L 17.484375 54.6875 
L 17.484375 21.921875 
Q 17.484375 14.15625 20.5 10.265625 
Q 23.53125 6.390625 29.59375 6.390625 
Q 36.859375 6.390625 41.078125 11.03125 
Q 45.3125 15.671875 45.3125 23.6875 
L 45.3125 54.6875 
L 54.296875 54.6875 
L 54.296875 0 
L 45.3125 0 
L 45.3125 8.40625 
Q 42.046875 3.421875 37.71875 1 
Q 33.40625 -1.421875 27.6875 -1.421875 
Q 18.265625 -1.421875 13.375 4.4375 
Q 8.5 10.296875 8.5 21.578125 
z
M 31.109375 56 
z
" id="DejaVuSans-117"/>
      <path d="M 41.109375 46.296875 
Q 39.59375 47.171875 37.8125 47.578125 
Q 36.03125 48 33.890625 48 
Q 26.265625 48 22.1875 43.046875 
Q 18.109375 38.09375 18.109375 28.8125 
L 18.109375 0 
L 9.078125 0 
L 9.078125 54.6875 
L 18.109375 54.6875 
L 18.109375 46.1875 
Q 20.953125 51.171875 25.484375 53.578125 
Q 30.03125 56 36.53125 56 
Q 37.453125 56 38.578125 55.875 
Q 39.703125 55.765625 41.0625 55.515625 
z
" id="DejaVuSans-114"/>
      <path d="M 48.78125 52.59375 
L 48.78125 44.1875 
Q 44.96875 46.296875 41.140625 47.34375 
Q 37.3125 48.390625 33.40625 48.390625 
Q 24.65625 48.390625 19.8125 42.84375 
Q 14.984375 37.3125 14.984375 27.296875 
Q 14.984375 17.28125 19.8125 11.734375 
Q 24.65625 6.203125 33.40625 6.203125 
Q 37.3125 6.203125 41.140625 7.25 
Q 44.96875 8.296875 48.78125 10.40625 
L 48.78125 2.09375 
Q 45.015625 0.34375 40.984375 -0.53125 
Q 36.96875 -1.421875 32.421875 -1.421875 
Q 20.0625 -1.421875 12.78125 6.34375 
Q 5.515625 14.109375 5.515625 27.296875 
Q 5.515625 40.671875 12.859375 48.328125 
Q 20.21875 56 33.015625 56 
Q 37.15625 56 41.109375 55.140625 
Q 45.0625 54.296875 48.78125 52.59375 
z
" id="DejaVuSans-99"/>
      <path d="M 56.203125 29.59375 
L 56.203125 25.203125 
L 14.890625 25.203125 
Q 15.484375 15.921875 20.484375 11.0625 
Q 25.484375 6.203125 34.421875 6.203125 
Q 39.59375 6.203125 44.453125 7.46875 
Q 49.3125 8.734375 54.109375 11.28125 
L 54.109375 2.78125 
Q 49.265625 0.734375 44.1875 -0.34375 
Q 39.109375 -1.421875 33.890625 -1.421875 
Q 20.796875 -1.421875 13.15625 6.1875 
Q 5.515625 13.8125 5.515625 26.8125 
Q 5.515625 40.234375 12.765625 48.109375 
Q 20.015625 56 32.328125 56 
Q 43.359375 56 49.78125 48.890625 
Q 56.203125 41.796875 56.203125 29.59375 
z
M 47.21875 32.234375 
Q 47.125 39.59375 43.09375 43.984375 
Q 39.0625 48.390625 32.421875 48.390625 
Q 24.90625 48.390625 20.390625 44.140625 
Q 15.875 39.890625 15.1875 32.171875 
z
" id="DejaVuSans-101"/>
      <path d="M 11.71875 12.40625 
L 22.015625 12.40625 
L 22.015625 0 
L 11.71875 0 
z
M 11.71875 51.703125 
L 22.015625 51.703125 
L 22.015625 39.3125 
L 11.71875 39.3125 
z
" id="DejaVuSans-58"/>
      <path d="M 9.421875 54.6875 
L 18.40625 54.6875 
L 18.40625 0 
L 9.421875 0 
z
M 9.421875 75.984375 
L 18.40625 75.984375 
L 18.40625 64.59375 
L 9.421875 64.59375 
z
" id="DejaVuSans-105"/>
      <path d="M 54.890625 33.015625 
L 54.890625 0 
L 45.90625 0 
L 45.90625 32.71875 
Q 45.90625 40.484375 42.875 44.328125 
Q 39.84375 48.1875 33.796875 48.1875 
Q 26.515625 48.1875 22.3125 43.546875 
Q 18.109375 38.921875 18.109375 30.90625 
L 18.109375 0 
L 9.078125 0 
L 9.078125 54.6875 
L 18.109375 54.6875 
L 18.109375 46.1875 
Q 21.34375 51.125 25.703125 53.5625 
Q 30.078125 56 35.796875 56 
Q 45.21875 56 50.046875 50.171875 
Q 54.890625 44.34375 54.890625 33.015625 
z
" id="DejaVuSans-110"/>
      <path d="M 45.40625 46.390625 
L 45.40625 75.984375 
L 54.390625 75.984375 
L 54.390625 0 
L 45.40625 0 
L 45.40625 8.203125 
Q 42.578125 3.328125 38.25 0.953125 
Q 33.9375 -1.421875 27.875 -1.421875 
Q 17.96875 -1.421875 11.734375 6.484375 
Q 5.515625 14.40625 5.515625 27.296875 
Q 5.515625 40.1875 11.734375 48.09375 
Q 17.96875 56 27.875 56 
Q 33.9375 56 38.25 53.625 
Q 42.578125 51.265625 45.40625 46.390625 
z
M 14.796875 27.296875 
Q 14.796875 17.390625 18.875 11.75 
Q 22.953125 6.109375 30.078125 6.109375 
Q 37.203125 6.109375 41.296875 11.75 
Q 45.40625 17.390625 45.40625 27.296875 
Q 45.40625 37.203125 41.296875 42.84375 
Q 37.203125 48.484375 30.078125 48.484375 
Q 22.953125 48.484375 18.875 42.84375 
Q 14.796875 37.203125 14.796875 27.296875 
z
" id="DejaVuSans-100"/>
      <path d="M 9.078125 75.984375 
L 18.109375 75.984375 
L 18.109375 31.109375 
L 44.921875 54.6875 
L 56.390625 54.6875 
L 27.390625 29.109375 
L 57.625 0 
L 45.90625 0 
L 18.109375 26.703125 
L 18.109375 0 
L 9.078125 0 
z
" id="DejaVuSans-107"/>
     </defs>
     <use xlink:href="#DejaVuSans-68"/>
     <use x="77.001953" xlink:href="#DejaVuSans-97"/>
     <use x="138.28125" xlink:href="#DejaVuSans-116"/>
     <use x="177.490234" xlink:href="#DejaVuSans-97"/>
     <use x="238.769531" xlink:href="#DejaVuSans-32"/>
     <use x="270.556641" xlink:href="#DejaVuSans-115"/>
     <use x="322.65625" xlink:href="#DejaVuSans-111"/>
     <use x="383.837891" xlink:href="#DejaVuSans-117"/>
     <use x="447.216797" xlink:href="#DejaVuSans-114"/>
     <use x="486.080078" xlink:href="#DejaVuSans-99"/>
     <use x="541.060547" xlink:href="#DejaVuSans-101"/>
     <use x="602.583984" xlink:href="#DejaVuSans-58"/>
     <use x="636.275391" xlink:href="#DejaVuSans-32"/>
     <use x="668.0625" xlink:href="#DejaVuSans-99"/>
     <use x="723.042969" xlink:href="#DejaVuSans-111"/>
     <use x="784.224609" xlink:href="#DejaVuSans-105"/>
     <use x="812.007812" xlink:href="#DejaVuSans-110"/>
     <use x="875.386719" xlink:href="#DejaVuSans-100"/>
     <use x="938.863281" xlink:href="#DejaVuSans-101"/>
     <use x="1000.386719" xlink:href="#DejaVuSans-115"/>
     <use x="1052.486328" xlink:href="#DejaVuSans-107"/>
    </g>
   </g>
   <g id="legend_1">
    <g id="patch_7">
     <path d="M 64.6 78.82825 
L 127.31875 78.82825 
Q 129.31875 78.82825 129.31875 76.82825 
L 129.31875 48.472 
Q 129.31875 46.472 127.31875 46.472 
L 64.6 46.472 
Q 62.6 46.472 62.6 48.472 
L 62.6 76.82825 
Q 62.6 78.82825 64.6 78.82825 
z
" style="fill:#ffffff;opacity:0.8;stroke:#cccccc;stroke-linejoin:miter;"/>
    </g>
    <g id="line2d_17">
     <path d="M 66.6 54.570437 
L 86.6 54.570437 
" style="fill:none;stroke:#0000ff;stroke-linecap:square;stroke-width:1.5;"/>
    </g>
    <g id="line2d_18"/>
    <g id="text_15">
     <!-- MACD -->
     <g transform="translate(94.6 58.070437)scale(0.1 -0.1)">
      <defs>
       <path d="M 9.8125 72.90625 
L 24.515625 72.90625 
L 43.109375 23.296875 
L 61.8125 72.90625 
L 76.515625 72.90625 
L 76.515625 0 
L 66.890625 0 
L 66.890625 64.015625 
L 48.09375 14.015625 
L 38.1875 14.015625 
L 19.390625 64.015625 
L 19.390625 0 
L 9.8125 0 
z
" id="DejaVuSans-77"/>
       <path d="M 34.1875 63.1875 
L 20.796875 26.90625 
L 47.609375 26.90625 
z
M 28.609375 72.90625 
L 39.796875 72.90625 
L 67.578125 0 
L 57.328125 0 
L 50.6875 18.703125 
L 17.828125 18.703125 
L 11.1875 0 
L 0.78125 0 
z
" id="DejaVuSans-65"/>
       <path d="M 64.40625 67.28125 
L 64.40625 56.890625 
Q 59.421875 61.53125 53.78125 63.8125 
Q 48.140625 66.109375 41.796875 66.109375 
Q 29.296875 66.109375 22.65625 58.46875 
Q 16.015625 50.828125 16.015625 36.375 
Q 16.015625 21.96875 22.65625 14.328125 
Q 29.296875 6.6875 41.796875 6.6875 
Q 48.140625 6.6875 53.78125 8.984375 
Q 59.421875 11.28125 64.40625 15.921875 
L 64.40625 5.609375 
Q 59.234375 2.09375 53.4375 0.328125 
Q 47.65625 -1.421875 41.21875 -1.421875 
Q 24.65625 -1.421875 15.125 8.703125 
Q 5.609375 18.84375 5.609375 36.375 
Q 5.609375 53.953125 15.125 64.078125 
Q 24.65625 74.21875 41.21875 74.21875 
Q 47.75 74.21875 53.53125 72.484375 
Q 59.328125 70.75 64.40625 67.28125 
z
" id="DejaVuSans-67"/>
      </defs>
      <use xlink:href="#DejaVuSans-77"/>
      <use x="86.279297" xlink:href="#DejaVuSans-65"/>
      <use x="152.9375" xlink:href="#DejaVuSans-67"/>
      <use x="222.761719" xlink:href="#DejaVuSans-68"/>
     </g>
    </g>
    <g id="line2d_19">
     <path d="M 66.6 69.248562 
L 86.6 69.248562 
" style="fill:none;stroke:#ff6347;stroke-linecap:square;stroke-width:1.5;"/>
    </g>
    <g id="line2d_20"/>
    <g id="text_16">
     <!-- Signal -->
     <g transform="translate(94.6 72.748562)scale(0.1 -0.1)">
      <defs>
       <path d="M 53.515625 70.515625 
L 53.515625 60.890625 
Q 47.90625 63.578125 42.921875 64.890625 
Q 37.9375 66.21875 33.296875 66.21875 
Q 25.25 66.21875 20.875 63.09375 
Q 16.5 59.96875 16.5 54.203125 
Q 16.5 49.359375 19.40625 46.890625 
Q 22.3125 44.4375 30.421875 42.921875 
L 36.375 41.703125 
Q 47.40625 39.59375 52.65625 34.296875 
Q 57.90625 29 57.90625 20.125 
Q 57.90625 9.515625 50.796875 4.046875 
Q 43.703125 -1.421875 29.984375 -1.421875 
Q 24.8125 -1.421875 18.96875 -0.25 
Q 13.140625 0.921875 6.890625 3.21875 
L 6.890625 13.375 
Q 12.890625 10.015625 18.65625 8.296875 
Q 24.421875 6.59375 29.984375 6.59375 
Q 38.421875 6.59375 43.015625 9.90625 
Q 47.609375 13.234375 47.609375 19.390625 
Q 47.609375 24.75 44.3125 27.78125 
Q 41.015625 30.8125 33.5 32.328125 
L 27.484375 33.5 
Q 16.453125 35.6875 11.515625 40.375 
Q 6.59375 45.0625 6.59375 53.421875 
Q 6.59375 63.09375 13.40625 68.65625 
Q 20.21875 74.21875 32.171875 74.21875 
Q 37.3125 74.21875 42.625 73.28125 
Q 47.953125 72.359375 53.515625 70.515625 
z
" id="DejaVuSans-83"/>
       <path d="M 45.40625 27.984375 
Q 45.40625 37.75 41.375 43.109375 
Q 37.359375 48.484375 30.078125 48.484375 
Q 22.859375 48.484375 18.828125 43.109375 
Q 14.796875 37.75 14.796875 27.984375 
Q 14.796875 18.265625 18.828125 12.890625 
Q 22.859375 7.515625 30.078125 7.515625 
Q 37.359375 7.515625 41.375 12.890625 
Q 45.40625 18.265625 45.40625 27.984375 
z
M 54.390625 6.78125 
Q 54.390625 -7.171875 48.1875 -13.984375 
Q 42 -20.796875 29.203125 -20.796875 
Q 24.46875 -20.796875 20.265625 -20.09375 
Q 16.0625 -19.390625 12.109375 -17.921875 
L 12.109375 -9.1875 
Q 16.0625 -11.328125 19.921875 -12.34375 
Q 23.78125 -13.375 27.78125 -13.375 
Q 36.625 -13.375 41.015625 -8.765625 
Q 45.40625 -4.15625 45.40625 5.171875 
L 45.40625 9.625 
Q 42.625 4.78125 38.28125 2.390625 
Q 33.9375 0 27.875 0 
Q 17.828125 0 11.671875 7.65625 
Q 5.515625 15.328125 5.515625 27.984375 
Q 5.515625 40.671875 11.671875 48.328125 
Q 17.828125 56 27.875 56 
Q 33.9375 56 38.28125 53.609375 
Q 42.625 51.21875 45.40625 46.390625 
L 45.40625 54.6875 
L 54.390625 54.6875 
z
" id="DejaVuSans-103"/>
       <path d="M 9.421875 75.984375 
L 18.40625 75.984375 
L 18.40625 0 
L 9.421875 0 
z
" id="DejaVuSans-108"/>
      </defs>
      <use xlink:href="#DejaVuSans-83"/>
      <use x="63.476562" xlink:href="#DejaVuSans-105"/>
      <use x="91.259766" xlink:href="#DejaVuSans-103"/>
      <use x="154.736328" xlink:href="#DejaVuSans-110"/>
      <use x="218.115234" xlink:href="#DejaVuSans-97"/>
      <use x="279.394531" xlink:href="#DejaVuSans-108"/>
     </g>
    </g>
   </g>
  </g>
  <g id="text_17">
   <!-- MACD -->
   <g transform="translate(206.41875 19.0695)scale(0.16 -0.16)">
    <use xlink:href="#DejaVuSans-77"/>
    <use x="86.279297" xlink:href="#DejaVuSans-65"/>
    <use x="152.9375" xlink:href="#DejaVuSans-67"/>
    <use x="222.761719" xlink:href="#DejaVuSans-68"/>
   </g>
  </g>
 </g>
 <defs>
  <clipPath id="p5f2a235aa5">
   <rect height="266.112" width="357.12" x="57.6" y="41.472"/>
  </clipPath>
 </defs>
</svg>
