<?xml version="1.0" encoding="utf-8" standalone="no"?>
<!DOCTYPE svg PUBLIC "-//W3C//DTD SVG 1.1//EN"
  "http://www.w3.org/Graphics/SVG/1.1/DTD/svg11.dtd">
<!-- Created with matplotlib (https://matplotlib.org/) -->
<svg height="345.6pt" version="1.1" viewBox="0 0 460.8 345.6" width="460.8pt" xmlns="http://www.w3.org/2000/svg" xmlns:xlink="http://www.w3.org/1999/xlink">
 <metadata>
  <rdf:RDF xmlns:cc="http://creativecommons.org/ns#" xmlns:dc="http://purl.org/dc/elements/1.1/" xmlns:rdf="http://www.w3.org/1999/02/22-rdf-syntax-ns#">
   <cc:Work>
    <dc:type rdf:resource="http://purl.org/dc/dcmitype/StillImage"/>
    <dc:date>2021-02-26T19:13:36.223886</dc:date>
    <dc:format>image/svg+xml</dc:format>
    <dc:creator>
     <cc:Agent>
      <dc:title>Matplotlib v3.3.2, https://matplotlib.org/</dc:title>
     </cc:Agent>
    </dc:creator>
   </cc:Work>
  </rdf:RDF>
 </metadata>
 <defs>
  <style type="text/css">*{stroke-linecap:butt;stroke-linejoin:round;}</style>
 </defs>
 <g id="figure_1">
  <g id="patch_1">
   <path d="M 0 345.6 
L 460.8 345.6 
L 460.8 0 
L 0 0 
z
" style="fill:#ffffff;"/>
  </g>
  <g id="axes_1">
   <g id="patch_2">
    <path d="M 57.6 307.584 
L 414.72 307.584 
L 414.72 41.472 
L 57.6 41.472 
z
" style="fill:#ffffff;"/>
   </g>
   <g id="matplotlib.axis_1">
    <g id="xtick_1">
     <g id="line2d_1">
      <defs>
       <path d="M 0 0 
L 0 3.5 
" id="m5df4312b63" style="stroke:#000000;stroke-width:0.8;"/>
      </defs>
      <g>
       <use style="stroke:#000000;stroke-width:0.8;" x="73.832727" xlink:href="#m5df4312b63" y="307.584"/>
      </g>
     </g>
     <g id="text_1">
      <!-- 2020-01 -->
      <g transform="translate(52.941321 322.182437)scale(0.1 -0.1)">
       <defs>
        <path d="M 19.1875 8.296875 
L 53.609375 8.296875 
L 53.609375 0 
L 7.328125 0 
L 7.328125 8.296875 
Q 12.9375 14.109375 22.625 23.890625 
Q 32.328125 33.6875 34.8125 36.53125 
Q 39.546875 41.84375 41.421875 45.53125 
Q 43.3125 49.21875 43.3125 52.78125 
Q 43.3125 58.59375 39.234375 62.25 
Q 35.15625 65.921875 28.609375 65.921875 
Q 23.96875 65.921875 18.8125 64.3125 
Q 13.671875 62.703125 7.8125 59.421875 
L 7.8125 69.390625 
Q 13.765625 71.78125 18.9375 73 
Q 24.125 74.21875 28.421875 74.21875 
Q 39.75 74.21875 46.484375 68.546875 
Q 53.21875 62.890625 53.21875 53.421875 
Q 53.21875 48.921875 51.53125 44.890625 
Q 49.859375 40.875 45.40625 35.40625 
Q 44.1875 33.984375 37.640625 27.21875 
Q 31.109375 20.453125 19.1875 8.296875 
z
" id="DejaVuSans-50"/>
        <path d="M 31.78125 66.40625 
Q 24.171875 66.40625 20.328125 58.90625 
Q 16.5 51.421875 16.5 36.375 
Q 16.5 21.390625 20.328125 13.890625 
Q 24.171875 6.390625 31.78125 6.390625 
Q 39.453125 6.390625 43.28125 13.890625 
Q 47.125 21.390625 47.125 36.375 
Q 47.125 51.421875 43.28125 58.90625 
Q 39.453125 66.40625 31.78125 66.40625 
z
M 31.78125 74.21875 
Q 44.046875 74.21875 50.515625 64.515625 
Q 56.984375 54.828125 56.984375 36.375 
Q 56.984375 17.96875 50.515625 8.265625 
Q 44.046875 -1.421875 31.78125 -1.421875 
Q 19.53125 -1.421875 13.0625 8.265625 
Q 6.59375 17.96875 6.59375 36.375 
Q 6.59375 54.828125 13.0625 64.515625 
Q 19.53125 74.21875 31.78125 74.21875 
z
" id="DejaVuSans-48"/>
        <path d="M 4.890625 31.390625 
L 31.203125 31.390625 
L 31.203125 23.390625 
L 4.890625 23.390625 
z
" id="DejaVuSans-45"/>
        <path d="M 12.40625 8.296875 
L 28.515625 8.296875 
L 28.515625 63.921875 
L 10.984375 60.40625 
L 10.984375 69.390625 
L 28.421875 72.90625 
L 38.28125 72.90625 
L 38.28125 8.296875 
L 54.390625 8.296875 
L 54.390625 0 
L 12.40625 0 
z
" id="DejaVuSans-49"/>
       </defs>
       <use xlink:href="#DejaVuSans-50"/>
       <use x="63.623047" xlink:href="#DejaVuSans-48"/>
       <use x="127.246094" xlink:href="#DejaVuSans-50"/>
       <use x="190.869141" xlink:href="#DejaVuSans-48"/>
       <use x="254.492188" xlink:href="#DejaVuSans-45"/>
       <use x="290.576172" xlink:href="#DejaVuSans-48"/>
       <use x="354.199219" xlink:href="#DejaVuSans-49"/>
      </g>
     </g>
    </g>
    <g id="xtick_2">
     <g id="line2d_2">
      <g>
       <use style="stroke:#000000;stroke-width:0.8;" x="119.992141" xlink:href="#m5df4312b63" y="307.584"/>
      </g>
     </g>
     <g id="text_2">
      <!-- 2020-03 -->
      <g transform="translate(99.100735 322.182437)scale(0.1 -0.1)">
       <defs>
        <path d="M 40.578125 39.3125 
Q 47.65625 37.796875 51.625 33 
Q 55.609375 28.21875 55.609375 21.1875 
Q 55.609375 10.40625 48.1875 4.484375 
Q 40.765625 -1.421875 27.09375 -1.421875 
Q 22.515625 -1.421875 17.65625 -0.515625 
Q 12.796875 0.390625 7.625 2.203125 
L 7.625 11.71875 
Q 11.71875 9.328125 16.59375 8.109375 
Q 21.484375 6.890625 26.8125 6.890625 
Q 36.078125 6.890625 40.9375 10.546875 
Q 45.796875 14.203125 45.796875 21.1875 
Q 45.796875 27.640625 41.28125 31.265625 
Q 36.765625 34.90625 28.71875 34.90625 
L 20.21875 34.90625 
L 20.21875 43.015625 
L 29.109375 43.015625 
Q 36.375 43.015625 40.234375 45.921875 
Q 44.09375 48.828125 44.09375 54.296875 
Q 44.09375 59.90625 40.109375 62.90625 
Q 36.140625 65.921875 28.71875 65.921875 
Q 24.65625 65.921875 20.015625 65.03125 
Q 15.375 64.15625 9.8125 62.3125 
L 9.8125 71.09375 
Q 15.4375 72.65625 20.34375 73.4375 
Q 25.25 74.21875 29.59375 74.21875 
Q 40.828125 74.21875 47.359375 69.109375 
Q 53.90625 64.015625 53.90625 55.328125 
Q 53.90625 49.265625 50.4375 45.09375 
Q 46.96875 40.921875 40.578125 39.3125 
z
" id="DejaVuSans-51"/>
       </defs>
       <use xlink:href="#DejaVuSans-50"/>
       <use x="63.623047" xlink:href="#DejaVuSans-48"/>
       <use x="127.246094" xlink:href="#DejaVuSans-50"/>
       <use x="190.869141" xlink:href="#DejaVuSans-48"/>
       <use x="254.492188" xlink:href="#DejaVuSans-45"/>
       <use x="290.576172" xlink:href="#DejaVuSans-48"/>
       <use x="354.199219" xlink:href="#DejaVuSans-51"/>
      </g>
     </g>
    </g>
    <g id="xtick_3">
     <g id="line2d_3">
      <g>
       <use style="stroke:#000000;stroke-width:0.8;" x="166.920879" xlink:href="#m5df4312b63" y="307.584"/>
      </g>
     </g>
     <g id="text_3">
      <!-- 2020-05 -->
      <g transform="translate(146.029473 322.182437)scale(0.1 -0.1)">
       <defs>
        <path d="M 10.796875 72.90625 
L 49.515625 72.90625 
L 49.515625 64.59375 
L 19.828125 64.59375 
L 19.828125 46.734375 
Q 21.96875 47.46875 24.109375 47.828125 
Q 26.265625 48.1875 28.421875 48.1875 
Q 40.625 48.1875 47.75 41.5 
Q 54.890625 34.8125 54.890625 23.390625 
Q 54.890625 11.625 47.5625 5.09375 
Q 40.234375 -1.421875 26.90625 -1.421875 
Q 22.3125 -1.421875 17.546875 -0.640625 
Q 12.796875 0.140625 7.71875 1.703125 
L 7.71875 11.625 
Q 12.109375 9.234375 16.796875 8.0625 
Q 21.484375 6.890625 26.703125 6.890625 
Q 35.15625 6.890625 40.078125 11.328125 
Q 45.015625 15.765625 45.015625 23.390625 
Q 45.015625 31 40.078125 35.4375 
Q 35.15625 39.890625 26.703125 39.890625 
Q 22.75 39.890625 18.8125 39.015625 
Q 14.890625 38.140625 10.796875 36.28125 
z
" id="DejaVuSans-53"/>
       </defs>
       <use xlink:href="#DejaVuSans-50"/>
       <use x="63.623047" xlink:href="#DejaVuSans-48"/>
       <use x="127.246094" xlink:href="#DejaVuSans-50"/>
       <use x="190.869141" xlink:href="#DejaVuSans-48"/>
       <use x="254.492188" xlink:href="#DejaVuSans-45"/>
       <use x="290.576172" xlink:href="#DejaVuSans-48"/>
       <use x="354.199219" xlink:href="#DejaVuSans-53"/>
      </g>
     </g>
    </g>
    <g id="xtick_4">
     <g id="line2d_4">
      <g>
       <use style="stroke:#000000;stroke-width:0.8;" x="213.849617" xlink:href="#m5df4312b63" y="307.584"/>
      </g>
     </g>
     <g id="text_4">
      <!-- 2020-07 -->
      <g transform="translate(192.95821 322.182437)scale(0.1 -0.1)">
       <defs>
        <path d="M 8.203125 72.90625 
L 55.078125 72.90625 
L 55.078125 68.703125 
L 28.609375 0 
L 18.3125 0 
L 43.21875 64.59375 
L 8.203125 64.59375 
z
" id="DejaVuSans-55"/>
       </defs>
       <use xlink:href="#DejaVuSans-50"/>
       <use x="63.623047" xlink:href="#DejaVuSans-48"/>
       <use x="127.246094" xlink:href="#DejaVuSans-50"/>
       <use x="190.869141" xlink:href="#DejaVuSans-48"/>
       <use x="254.492188" xlink:href="#DejaVuSans-45"/>
       <use x="290.576172" xlink:href="#DejaVuSans-48"/>
       <use x="354.199219" xlink:href="#DejaVuSans-55"/>
      </g>
     </g>
    </g>
    <g id="xtick_5">
     <g id="line2d_5">
      <g>
       <use style="stroke:#000000;stroke-width:0.8;" x="261.547678" xlink:href="#m5df4312b63" y="307.584"/>
      </g>
     </g>
     <g id="text_5">
      <!-- 2020-09 -->
      <g transform="translate(240.656271 322.182437)scale(0.1 -0.1)">
       <defs>
        <path d="M 10.984375 1.515625 
L 10.984375 10.5 
Q 14.703125 8.734375 18.5 7.8125 
Q 22.3125 6.890625 25.984375 6.890625 
Q 35.75 6.890625 40.890625 13.453125 
Q 46.046875 20.015625 46.78125 33.40625 
Q 43.953125 29.203125 39.59375 26.953125 
Q 35.25 24.703125 29.984375 24.703125 
Q 19.046875 24.703125 12.671875 31.3125 
Q 6.296875 37.9375 6.296875 49.421875 
Q 6.296875 60.640625 12.9375 67.421875 
Q 19.578125 74.21875 30.609375 74.21875 
Q 43.265625 74.21875 49.921875 64.515625 
Q 56.59375 54.828125 56.59375 36.375 
Q 56.59375 19.140625 48.40625 8.859375 
Q 40.234375 -1.421875 26.421875 -1.421875 
Q 22.703125 -1.421875 18.890625 -0.6875 
Q 15.09375 0.046875 10.984375 1.515625 
z
M 30.609375 32.421875 
Q 37.25 32.421875 41.125 36.953125 
Q 45.015625 41.5 45.015625 49.421875 
Q 45.015625 57.28125 41.125 61.84375 
Q 37.25 66.40625 30.609375 66.40625 
Q 23.96875 66.40625 20.09375 61.84375 
Q 16.21875 57.28125 16.21875 49.421875 
Q 16.21875 41.5 20.09375 36.953125 
Q 23.96875 32.421875 30.609375 32.421875 
z
" id="DejaVuSans-57"/>
       </defs>
       <use xlink:href="#DejaVuSans-50"/>
       <use x="63.623047" xlink:href="#DejaVuSans-48"/>
       <use x="127.246094" xlink:href="#DejaVuSans-50"/>
       <use x="190.869141" xlink:href="#DejaVuSans-48"/>
       <use x="254.492188" xlink:href="#DejaVuSans-45"/>
       <use x="290.576172" xlink:href="#DejaVuSans-48"/>
       <use x="354.199219" xlink:href="#DejaVuSans-57"/>
      </g>
     </g>
    </g>
    <g id="xtick_6">
     <g id="line2d_6">
      <g>
       <use style="stroke:#000000;stroke-width:0.8;" x="308.476415" xlink:href="#m5df4312b63" y="307.584"/>
      </g>
     </g>
     <g id="text_6">
      <!-- 2020-11 -->
      <g transform="translate(287.585009 322.182437)scale(0.1 -0.1)">
       <use xlink:href="#DejaVuSans-50"/>
       <use x="63.623047" xlink:href="#DejaVuSans-48"/>
       <use x="127.246094" xlink:href="#DejaVuSans-50"/>
       <use x="190.869141" xlink:href="#DejaVuSans-48"/>
       <use x="254.492188" xlink:href="#DejaVuSans-45"/>
       <use x="290.576172" xlink:href="#DejaVuSans-49"/>
       <use x="354.199219" xlink:href="#DejaVuSans-49"/>
      </g>
     </g>
    </g>
    <g id="xtick_7">
     <g id="line2d_7">
      <g>
       <use style="stroke:#000000;stroke-width:0.8;" x="355.405153" xlink:href="#m5df4312b63" y="307.584"/>
      </g>
     </g>
     <g id="text_7">
      <!-- 2021-01 -->
      <g transform="translate(334.513747 322.182437)scale(0.1 -0.1)">
       <use xlink:href="#DejaVuSans-50"/>
       <use x="63.623047" xlink:href="#DejaVuSans-48"/>
       <use x="127.246094" xlink:href="#DejaVuSans-50"/>
       <use x="190.869141" xlink:href="#DejaVuSans-49"/>
       <use x="254.492188" xlink:href="#DejaVuSans-45"/>
       <use x="290.576172" xlink:href="#DejaVuSans-48"/>
       <use x="354.199219" xlink:href="#DejaVuSans-49"/>
      </g>
     </g>
    </g>
    <g id="xtick_8">
     <g id="line2d_8">
      <g>
       <use style="stroke:#000000;stroke-width:0.8;" x="400.795243" xlink:href="#m5df4312b63" y="307.584"/>
      </g>
     </g>
     <g id="text_8">
      <!-- 2021-03 -->
      <g transform="translate(379.903837 322.182437)scale(0.1 -0.1)">
       <use xlink:href="#DejaVuSans-50"/>
       <use x="63.623047" xlink:href="#DejaVuSans-48"/>
       <use x="127.246094" xlink:href="#DejaVuSans-50"/>
       <use x="190.869141" xlink:href="#DejaVuSans-49"/>
       <use x="254.492188" xlink:href="#DejaVuSans-45"/>
       <use x="290.576172" xlink:href="#DejaVuSans-48"/>
       <use x="354.199219" xlink:href="#DejaVuSans-51"/>
      </g>
     </g>
    </g>
   </g>
   <g id="matplotlib.axis_2">
    <g id="ytick_1">
     <g id="line2d_9">
      <defs>
       <path d="M 0 0 
L -3.5 0 
" id="mefa4c6d300" style="stroke:#000000;stroke-width:0.8;"/>
      </defs>
      <g>
       <use style="stroke:#000000;stroke-width:0.8;" x="57.6" xlink:href="#mefa4c6d300" y="292.826692"/>
      </g>
     </g>
     <g id="text_9">
      <!-- −1000 -->
      <g transform="translate(16.770313 296.62591)scale(0.1 -0.1)">
       <defs>
        <path d="M 10.59375 35.5 
L 73.1875 35.5 
L 73.1875 27.203125 
L 10.59375 27.203125 
z
" id="DejaVuSans-8722"/>
       </defs>
       <use xlink:href="#DejaVuSans-8722"/>
       <use x="83.789062" xlink:href="#DejaVuSans-49"/>
       <use x="147.412109" xlink:href="#DejaVuSans-48"/>
       <use x="211.035156" xlink:href="#DejaVuSans-48"/>
       <use x="274.658203" xlink:href="#DejaVuSans-48"/>
      </g>
     </g>
    </g>
    <g id="ytick_2">
     <g id="line2d_10">
      <g>
       <use style="stroke:#000000;stroke-width:0.8;" x="57.6" xlink:href="#mefa4c6d300" y="254.9369"/>
      </g>
     </g>
     <g id="text_10">
      <!-- 0 -->
      <g transform="translate(44.2375 258.736119)scale(0.1 -0.1)">
       <use xlink:href="#DejaVuSans-48"/>
      </g>
     </g>
    </g>
    <g id="ytick_3">
     <g id="line2d_11">
      <g>
       <use style="stroke:#000000;stroke-width:0.8;" x="57.6" xlink:href="#mefa4c6d300" y="217.047108"/>
      </g>
     </g>
     <g id="text_11">
      <!-- 1000 -->
      <g transform="translate(25.15 220.846327)scale(0.1 -0.1)">
       <use xlink:href="#DejaVuSans-49"/>
       <use x="63.623047" xlink:href="#DejaVuSans-48"/>
       <use x="127.246094" xlink:href="#DejaVuSans-48"/>
       <use x="190.869141" xlink:href="#DejaVuSans-48"/>
      </g>
     </g>
    </g>
    <g id="ytick_4">
     <g id="line2d_12">
      <g>
       <use style="stroke:#000000;stroke-width:0.8;" x="57.6" xlink:href="#mefa4c6d300" y="179.157317"/>
      </g>
     </g>
     <g id="text_12">
      <!-- 2000 -->
      <g transform="translate(25.15 182.956535)scale(0.1 -0.1)">
       <use xlink:href="#DejaVuSans-50"/>
       <use x="63.623047" xlink:href="#DejaVuSans-48"/>
       <use x="127.246094" xlink:href="#DejaVuSans-48"/>
       <use x="190.869141" xlink:href="#DejaVuSans-48"/>
      </g>
     </g>
    </g>
    <g id="ytick_5">
     <g id="line2d_13">
      <g>
       <use style="stroke:#000000;stroke-width:0.8;" x="57.6" xlink:href="#mefa4c6d300" y="141.267525"/>
      </g>
     </g>
     <g id="text_13">
      <!-- 3000 -->
      <g transform="translate(25.15 145.066744)scale(0.1 -0.1)">
       <use xlink:href="#DejaVuSans-51"/>
       <use x="63.623047" xlink:href="#DejaVuSans-48"/>
       <use x="127.246094" xlink:href="#DejaVuSans-48"/>
       <use x="190.869141" xlink:href="#DejaVuSans-48"/>
      </g>
     </g>
    </g>
    <g id="ytick_6">
     <g id="line2d_14">
      <g>
       <use style="stroke:#000000;stroke-width:0.8;" x="57.6" xlink:href="#mefa4c6d300" y="103.377733"/>
      </g>
     </g>
     <g id="text_14">
      <!-- 4000 -->
      <g transform="translate(25.15 107.176952)scale(0.1 -0.1)">
       <defs>
        <path d="M 37.796875 64.3125 
L 12.890625 25.390625 
L 37.796875 25.390625 
z
M 35.203125 72.90625 
L 47.609375 72.90625 
L 47.609375 25.390625 
L 58.015625 25.390625 
L 58.015625 17.1875 
L 47.609375 17.1875 
L 47.609375 0 
L 37.796875 0 
L 37.796875 17.1875 
L 4.890625 17.1875 
L 4.890625 26.703125 
z
" id="DejaVuSans-52"/>
       </defs>
       <use xlink:href="#DejaVuSans-52"/>
       <use x="63.623047" xlink:href="#DejaVuSans-48"/>
       <use x="127.246094" xlink:href="#DejaVuSans-48"/>
       <use x="190.869141" xlink:href="#DejaVuSans-48"/>
      </g>
     </g>
    </g>
    <g id="ytick_7">
     <g id="line2d_15">
      <g>
       <use style="stroke:#000000;stroke-width:0.8;" x="57.6" xlink:href="#mefa4c6d300" y="65.487941"/>
      </g>
     </g>
     <g id="text_15">
      <!-- 5000 -->
      <g transform="translate(25.15 69.28716)scale(0.1 -0.1)">
       <use xlink:href="#DejaVuSans-53"/>
       <use x="63.623047" xlink:href="#DejaVuSans-48"/>
       <use x="127.246094" xlink:href="#DejaVuSans-48"/>
       <use x="190.869141" xlink:href="#DejaVuSans-48"/>
      </g>
     </g>
    </g>
   </g>
   <g id="line2d_16">
    <path clip-path="url(#p49bf43b9ad)" d="M 73.832727 254.9369 
L 398.487273 254.9369 
L 398.487273 254.9369 
" style="fill:none;stroke:#1f77b4;stroke-dasharray:5.55,2.4;stroke-dashoffset:0;stroke-width:1.5;"/>
   </g>
   <g id="line2d_17">
    <path clip-path="url(#p49bf43b9ad)" d="M 73.832727 254.9369 
L 74.602051 255.619158 
L 76.140698 254.498862 
L 76.910022 254.109092 
L 77.679345 252.613918 
L 78.448669 250.240286 
L 79.217992 248.81556 
L 79.987316 248.426952 
L 80.756639 247.100952 
L 81.525963 246.649409 
L 82.295287 245.917538 
L 83.06461 245.651612 
L 83.833934 243.475814 
L 84.603257 241.909047 
L 85.372581 241.064143 
L 86.141904 240.027201 
L 86.911228 239.354296 
L 87.680551 239.615396 
L 88.449875 240.17665 
L 89.219199 240.49898 
L 89.988522 241.136606 
L 90.757846 242.546807 
L 92.296493 244.996355 
L 93.065816 245.361173 
L 93.83514 244.87787 
L 94.604464 243.159913 
L 95.373787 242.214885 
L 96.143111 241.00325 
L 97.681758 240.520588 
L 98.451081 240.662303 
L 99.220405 241.035389 
L 99.989729 241.841798 
L 100.759052 241.303029 
L 102.297699 240.045562 
L 103.067023 239.53735 
L 103.836346 238.534253 
L 104.60567 238.808346 
L 106.144317 237.363719 
L 106.913641 237.35147 
L 107.682964 237.194341 
L 109.990935 241.587952 
L 110.760259 241.71849 
L 111.529582 243.670711 
L 112.298906 245.300762 
L 113.837553 247.626563 
L 114.606876 247.675484 
L 115.3762 248.696693 
L 116.145523 250.617038 
L 116.914847 253.727556 
L 118.453494 258.366813 
L 119.222818 260.52542 
L 119.992141 262.160364 
L 120.761465 262.227785 
L 121.530788 262.665257 
L 122.300112 262.871758 
L 123.069436 262.096954 
L 123.838759 261.150556 
L 124.608083 261.023767 
L 126.14673 265.575983 
L 126.916053 267.185333 
L 127.685377 268.219635 
L 128.454701 278.056949 
L 129.993348 288.265256 
L 131.531995 294.403835 
L 132.301318 295.360263 
L 133.070642 295.488 
L 134.609289 290.174971 
L 135.378613 287.792335 
L 136.147936 286.666632 
L 139.225231 274.19387 
L 139.994554 272.947786 
L 140.763878 272.099951 
L 141.533201 272.362258 
L 143.841172 267.314738 
L 144.610495 265.156949 
L 146.149143 261.807541 
L 146.918466 260.643454 
L 147.68779 257.98495 
L 149.99576 253.222891 
L 151.534408 253.706111 
L 152.303731 253.806807 
L 153.842378 254.264484 
L 154.611702 255.101588 
L 155.381025 254.339102 
L 156.150349 253.999276 
L 156.919673 253.060028 
L 157.688996 252.717896 
L 158.45832 253.335587 
L 159.227643 253.792783 
L 159.996967 253.342929 
L 160.76629 251.95529 
L 163.843585 247.652607 
L 164.612908 246.963553 
L 165.382232 243.440876 
L 167.690202 237.081011 
L 168.459526 235.915664 
L 169.998173 234.643163 
L 170.767497 233.929866 
L 171.53682 231.140633 
L 172.306144 229.769054 
L 173.075467 229.695531 
L 174.614115 235.274642 
L 175.383438 237.074524 
L 176.152762 237.1701 
L 176.922085 236.026795 
L 177.691409 236.795147 
L 178.460732 237.398793 
L 179.230056 237.209379 
L 180.768703 237.082687 
L 181.538027 238.043718 
L 182.30735 240.305052 
L 183.845997 243.34275 
L 184.615321 245.955758 
L 186.153968 249.137463 
L 186.923292 249.294451 
L 187.692615 248.400973 
L 188.461939 248.203886 
L 189.231262 247.313264 
L 190.000586 247.433458 
L 190.76991 245.355617 
L 191.539233 245.812455 
L 192.308557 245.892651 
L 193.07788 245.716085 
L 194.616527 246.394271 
L 196.924498 246.769947 
L 197.693822 246.671093 
L 198.463145 248.479553 
L 200.771116 251.27897 
L 201.540439 251.925669 
L 202.309763 252.113956 
L 203.079087 252.518232 
L 203.84841 253.078784 
L 204.617734 253.781468 
L 205.387057 254.197794 
L 206.156381 254.742406 
L 206.925704 254.029058 
L 207.695028 253.642843 
L 209.233675 254.949249 
L 210.002999 255.736964 
L 210.772322 256.803485 
L 211.541646 257.297843 
L 213.080293 257.685227 
L 213.849617 257.565524 
L 215.388264 258.1216 
L 216.157587 258.085984 
L 216.926911 258.195097 
L 217.696234 257.485776 
L 218.465558 257.107846 
L 219.234882 256.308531 
L 221.542852 255.937606 
L 222.312176 255.71002 
L 224.620146 255.810255 
L 226.158794 256.184391 
L 226.928117 256.217382 
L 227.697441 256.117211 
L 228.466764 256.172502 
L 229.236088 255.554189 
L 230.774735 253.621275 
L 231.544059 253.074909 
L 232.313382 252.158542 
L 233.082706 250.794671 
L 233.852029 246.541127 
L 235.390676 240.781769 
L 236.929324 236.577738 
L 237.698647 233.739685 
L 238.467971 234.023252 
L 239.237294 233.920107 
L 240.006618 234.257589 
L 240.775941 233.107683 
L 241.545265 232.332378 
L 242.314589 232.423697 
L 243.083912 232.32174 
L 243.853236 232.746183 
L 244.622559 232.701988 
L 245.391883 234.409334 
L 246.161206 235.486809 
L 246.93053 235.919224 
L 247.699854 236.519127 
L 249.238501 237.300898 
L 250.007824 236.676718 
L 250.777148 237.419253 
L 251.546471 238.626881 
L 252.315795 239.568443 
L 253.085118 241.389501 
L 254.623766 243.7742 
L 255.393089 244.494812 
L 256.162413 246.466275 
L 257.70106 249.14633 
L 259.239707 250.494826 
L 260.009031 250.376038 
L 260.778354 250.461161 
L 261.547678 249.78439 
L 262.317001 250.845697 
L 263.086325 255.407053 
L 264.624972 261.145028 
L 265.394296 263.152557 
L 266.163619 264.29124 
L 266.932943 265.818742 
L 267.702266 266.633231 
L 268.47159 266.759828 
L 269.240913 266.597659 
L 270.010237 266.178704 
L 270.779561 266.04867 
L 271.548884 264.817061 
L 272.318208 263.371441 
L 273.087531 261.635907 
L 275.395502 257.744193 
L 276.164826 257.110234 
L 276.934149 258.061445 
L 277.703473 258.432221 
L 278.472796 259.590857 
L 279.24212 258.988094 
L 280.780767 258.124602 
L 281.55009 257.597546 
L 282.319414 257.418628 
L 283.088738 256.809609 
L 283.858061 256.47304 
L 285.396708 256.9093 
L 286.166032 257.15181 
L 286.935355 256.95648 
L 287.704679 256.476694 
L 288.474003 256.547889 
L 289.243326 256.453645 
L 290.781973 254.549613 
L 293.089944 249.950295 
L 293.859268 249.034713 
L 295.397915 247.780046 
L 296.936562 247.963903 
L 297.705885 247.654195 
L 298.475209 246.799347 
L 299.244533 245.708826 
L 300.78318 239.212027 
L 302.321827 235.148328 
L 303.09115 234.043281 
L 303.860474 233.284731 
L 304.629798 231.160299 
L 305.399121 230.901198 
L 306.937768 230.030952 
L 307.707092 229.314568 
L 308.476415 229.152159 
L 309.245739 229.917743 
L 310.015062 229.543934 
L 310.784386 229.009717 
L 311.55371 224.694929 
L 312.323033 221.580209 
L 313.092357 221.760363 
L 313.86168 220.33834 
L 314.631004 219.938907 
L 315.400327 220.197725 
L 316.169651 219.580576 
L 316.938975 217.758517 
L 317.708298 216.702475 
L 318.477622 216.997361 
L 319.246945 217.99906 
L 320.016269 216.983971 
L 320.785592 213.729983 
L 321.554916 211.264156 
L 322.32424 209.721628 
L 323.093563 206.478198 
L 323.862887 204.495545 
L 324.63221 204.313323 
L 325.401534 204.826847 
L 326.170857 203.64105 
L 326.940181 204.399205 
L 328.478828 215.39556 
L 329.248152 218.124029 
L 330.017475 219.31732 
L 330.786799 216.180205 
L 331.556122 216.908927 
L 333.094769 216.103223 
L 333.864093 218.384357 
L 334.633417 219.158842 
L 335.40274 219.502634 
L 336.172064 220.756442 
L 336.941387 224.702651 
L 337.710711 227.434687 
L 339.249358 234.438512 
L 340.018682 235.137076 
L 341.557329 234.63551 
L 342.326652 234.158567 
L 343.095976 228.313626 
L 344.634623 212.146989 
L 345.403947 204.690101 
L 346.17327 200.323179 
L 346.942594 199.819839 
L 347.711917 196.677562 
L 348.481241 196.654987 
L 349.250564 195.909116 
L 350.019888 193.150072 
L 350.789212 186.387276 
L 351.558535 182.336781 
L 352.327859 177.582902 
L 353.097182 173.888284 
L 353.866506 167.420404 
L 354.635829 162.890379 
L 355.405153 159.269657 
L 356.9438 139.664366 
L 357.713124 136.585391 
L 358.482447 129.564482 
L 359.251771 117.237734 
L 360.790418 85.348598 
L 361.559741 76.986556 
L 362.329065 78.569523 
L 363.098389 89.833366 
L 363.867712 104.090761 
L 364.637036 108.960201 
L 365.406359 108.523081 
L 366.175683 116.635784 
L 367.71433 137.318768 
L 368.483654 144.42731 
L 370.022301 162.404125 
L 370.791624 184.281158 
L 372.330271 209.428764 
L 373.099595 219.426757 
L 373.868919 227.49006 
L 374.638242 233.631508 
L 375.407566 244.753978 
L 376.176889 244.779228 
L 376.946213 242.45401 
L 377.715536 240.887895 
L 378.48486 243.198245 
L 379.254184 243.950113 
L 380.023507 238.772686 
L 380.792831 228.916087 
L 381.562154 222.87487 
L 382.331478 215.697707 
L 383.100801 206.724638 
L 383.870125 201.466579 
L 384.639449 175.420265 
L 385.408772 155.970063 
L 386.178096 145.983455 
L 386.947419 130.237796 
L 387.716743 120.723133 
L 388.486066 115.54472 
L 389.25539 108.943877 
L 390.024713 107.018845 
L 390.794037 103.110458 
L 391.563361 93.2236 
L 392.332684 88.74959 
L 393.102008 73.88316 
L 394.640655 53.568 
L 395.409978 58.052098 
L 398.487273 138.554795 
L 398.487273 138.554795 
" style="fill:none;stroke:#0000ff;stroke-linecap:square;stroke-width:1.5;"/>
   </g>
   <g id="line2d_18">
    <path clip-path="url(#p49bf43b9ad)" d="M 73.832727 254.9369 
L 74.602051 255.073352 
L 76.140698 254.948329 
L 76.910022 254.780481 
L 77.679345 254.347169 
L 79.987316 251.752387 
L 81.525963 249.987562 
L 83.833934 247.470497 
L 86.141904 244.244956 
L 86.911228 243.266824 
L 87.680551 242.536538 
L 88.449875 242.06456 
L 89.219199 241.751444 
L 89.988522 241.628477 
L 90.757846 241.812143 
L 91.527169 242.185844 
L 93.065816 243.270591 
L 93.83514 243.592047 
L 94.604464 243.50562 
L 95.373787 243.247473 
L 97.681758 242.00829 
L 98.451081 241.739093 
L 99.220405 241.598352 
L 99.989729 241.647041 
L 100.759052 241.578239 
L 102.297699 241.116915 
L 103.067023 240.801002 
L 103.836346 240.347652 
L 105.374994 239.640976 
L 106.913641 238.818714 
L 107.682964 238.493839 
L 108.452288 238.514528 
L 109.221611 238.773493 
L 111.529582 240.584387 
L 116.145523 246.312499 
L 117.684171 249.467805 
L 120.761465 256.377244 
L 122.300112 258.682229 
L 123.069436 259.365174 
L 124.608083 259.982554 
L 125.377406 260.677308 
L 126.916053 262.762701 
L 127.685377 263.854087 
L 128.454701 266.69466 
L 129.993348 273.648906 
L 131.531995 280.640282 
L 132.301318 283.584278 
L 133.070642 285.965022 
L 133.839966 287.313413 
L 134.609289 287.885724 
L 135.378613 287.867047 
L 136.147936 287.626964 
L 136.91726 286.793227 
L 137.686583 285.396356 
L 140.763878 278.437916 
L 143.071848 274.611342 
L 144.610495 271.553007 
L 148.457113 263.283703 
L 149.99576 259.856887 
L 150.765084 258.588762 
L 151.534408 257.612232 
L 152.303731 256.851147 
L 153.073055 256.296423 
L 153.842378 255.890035 
L 154.611702 255.732346 
L 156.150349 255.162813 
L 157.688996 254.337384 
L 158.45832 254.137024 
L 159.996967 253.923127 
L 160.76629 253.529559 
L 162.304938 252.378234 
L 164.612908 250.073355 
L 166.151555 247.246998 
L 169.22885 240.911695 
L 171.53682 237.038018 
L 172.306144 235.584225 
L 173.075467 234.406486 
L 173.844791 234.005451 
L 174.614115 234.259289 
L 176.152762 235.291889 
L 176.922085 235.43887 
L 179.99938 236.453665 
L 180.768703 236.579469 
L 181.538027 236.872319 
L 182.30735 237.558866 
L 183.845997 239.413982 
L 186.923292 244.659653 
L 187.692615 245.407917 
L 188.461939 245.967111 
L 190.000586 246.475765 
L 190.76991 246.251735 
L 193.07788 246.030924 
L 194.616527 246.117176 
L 197.693822 246.432747 
L 199.232469 247.353381 
L 200.771116 248.592161 
L 202.309763 249.829882 
L 206.156381 252.569973 
L 206.925704 252.86179 
L 208.464352 253.269377 
L 210.002999 254.031674 
L 212.310969 255.594555 
L 213.849617 256.323256 
L 216.157587 257.158114 
L 216.926911 257.36551 
L 218.465558 257.33322 
L 222.312176 256.409768 
L 224.620146 256.083943 
L 229.236088 256.015642 
L 230.005411 255.731544 
L 231.544059 254.862574 
L 232.313382 254.321768 
L 233.082706 253.616348 
L 233.852029 252.201304 
L 235.390676 248.528934 
L 238.467971 240.735599 
L 239.237294 239.3725 
L 241.545265 236.307396 
L 243.083912 234.888873 
L 244.622559 234.108666 
L 245.391883 234.168799 
L 246.93053 234.729766 
L 249.238501 235.824623 
L 250.007824 235.995042 
L 250.777148 236.279884 
L 252.315795 237.313116 
L 253.854442 239.024572 
L 256.162413 241.996104 
L 259.239707 246.450939 
L 260.778354 247.880999 
L 261.547678 248.261678 
L 262.317001 248.778481 
L 263.086325 250.104196 
L 263.855648 251.710844 
L 266.932943 258.975887 
L 267.702266 260.507355 
L 268.47159 261.75785 
L 269.240913 262.725812 
L 270.010237 263.41639 
L 270.779561 263.942846 
L 271.548884 264.117689 
L 272.318208 263.96844 
L 273.087531 263.501933 
L 274.626178 262.111379 
L 276.164826 260.412401 
L 276.934149 259.942209 
L 277.703473 259.640212 
L 278.472796 259.630341 
L 280.011443 259.317558 
L 282.319414 258.509872 
L 284.627385 257.59648 
L 286.166032 257.397597 
L 288.474003 257.023848 
L 289.243326 256.909807 
L 290.01265 256.644263 
L 290.781973 256.225333 
L 291.551297 255.576609 
L 293.089944 253.804342 
L 294.628591 251.970191 
L 295.397915 251.132162 
L 296.936562 249.982533 
L 298.475209 248.973361 
L 299.244533 248.320454 
L 300.013856 247.121475 
L 301.552503 243.86226 
L 303.09115 240.504235 
L 305.399121 236.164501 
L 306.937768 234.018428 
L 308.476415 232.292557 
L 310.784386 230.892233 
L 311.55371 229.652772 
L 312.323033 228.038259 
L 314.631004 224.382831 
L 316.938975 221.753914 
L 317.708298 220.743626 
L 318.477622 219.994373 
L 320.016269 219.073043 
L 320.785592 218.004431 
L 322.32424 215.269426 
L 324.63221 210.229108 
L 326.170857 208.047134 
L 326.940181 207.317548 
L 327.709505 207.897963 
L 328.478828 209.397483 
L 330.017475 212.777697 
L 331.556122 214.148344 
L 332.325446 214.629321 
L 333.094769 214.924102 
L 336.172064 217.719512 
L 336.941387 219.11614 
L 337.710711 220.779849 
L 340.788005 228.690428 
L 341.557329 229.879445 
L 342.326652 230.735269 
L 343.095976 230.25094 
L 343.865299 228.127774 
L 344.634623 224.931617 
L 346.942594 213.380997 
L 347.711917 210.04031 
L 349.250564 205.07242 
L 350.019888 202.68795 
L 351.558535 196.009608 
L 353.097182 188.637071 
L 355.405153 175.928384 
L 356.174477 170.558718 
L 357.713124 158.820956 
L 358.482447 152.969661 
L 359.251771 145.823276 
L 360.790418 126.469314 
L 361.559741 116.572762 
L 362.329065 108.972114 
L 363.098389 105.144364 
L 363.867712 104.933644 
L 364.637036 105.738955 
L 365.406359 106.29578 
L 366.175683 108.363781 
L 366.945006 112.097968 
L 368.483654 122.599165 
L 370.022301 135.440804 
L 371.560948 155.506174 
L 373.868919 187.032336 
L 376.176889 213.781871 
L 376.946213 219.516299 
L 378.48486 227.672143 
L 379.254184 230.927737 
L 380.023507 232.496727 
L 380.792831 231.780599 
L 381.562154 229.999453 
L 382.331478 227.139104 
L 383.870125 218.738285 
L 384.639449 210.074681 
L 389.25539 146.315278 
L 391.563361 123.754227 
L 392.332684 116.7533 
L 394.640655 90.132519 
L 395.409978 83.716435 
L 396.179302 82.610867 
L 396.948626 85.182148 
L 397.717949 91.50511 
L 398.487273 100.915047 
L 398.487273 100.915047 
" style="fill:none;stroke:#ff6347;stroke-linecap:square;stroke-width:1.5;"/>
   </g>
   <g id="patch_3">
    <path d="M 57.6 307.584 
L 57.6 41.472 
" style="fill:none;stroke:#000000;stroke-linecap:square;stroke-linejoin:miter;stroke-width:0.8;"/>
   </g>
   <g id="patch_4">
    <path d="M 414.72 307.584 
L 414.72 41.472 
" style="fill:none;stroke:#000000;stroke-linecap:square;stroke-linejoin:miter;stroke-width:0.8;"/>
   </g>
   <g id="patch_5">
    <path d="M 57.6 307.584 
L 414.72 307.584 
" style="fill:none;stroke:#000000;stroke-linecap:square;stroke-linejoin:miter;stroke-width:0.8;"/>
   </g>
   <g id="patch_6">
    <path d="M 57.6 41.472 
L 414.72 41.472 
" style="fill:none;stroke:#000000;stroke-linecap:square;stroke-linejoin:miter;stroke-width:0.8;"/>
   </g>
   <g id="text_16">
    <!-- Data source: nomics -->
    <g transform="translate(184.91625 35.472)scale(0.1 -0.1)">
     <defs>
      <path d="M 19.671875 64.796875 
L 19.671875 8.109375 
L 31.59375 8.109375 
Q 46.6875 8.109375 53.6875 14.9375 
Q 60.6875 21.78125 60.6875 36.53125 
Q 60.6875 51.171875 53.6875 57.984375 
Q 46.6875 64.796875 31.59375 64.796875 
z
M 9.8125 72.90625 
L 30.078125 72.90625 
Q 51.265625 72.90625 61.171875 64.09375 
Q 71.09375 55.28125 71.09375 36.53125 
Q 71.09375 17.671875 61.125 8.828125 
Q 51.171875 0 30.078125 0 
L 9.8125 0 
z
" id="DejaVuSans-68"/>
      <path d="M 34.28125 27.484375 
Q 23.390625 27.484375 19.1875 25 
Q 14.984375 22.515625 14.984375 16.5 
Q 14.984375 11.71875 18.140625 8.90625 
Q 21.296875 6.109375 26.703125 6.109375 
Q 34.1875 6.109375 38.703125 11.40625 
Q 43.21875 16.703125 43.21875 25.484375 
L 43.21875 27.484375 
z
M 52.203125 31.203125 
L 52.203125 0 
L 43.21875 0 
L 43.21875 8.296875 
Q 40.140625 3.328125 35.546875 0.953125 
Q 30.953125 -1.421875 24.3125 -1.421875 
Q 15.921875 -1.421875 10.953125 3.296875 
Q 6 8.015625 6 15.921875 
Q 6 25.140625 12.171875 29.828125 
Q 18.359375 34.515625 30.609375 34.515625 
L 43.21875 34.515625 
L 43.21875 35.40625 
Q 43.21875 41.609375 39.140625 45 
Q 35.0625 48.390625 27.6875 48.390625 
Q 23 48.390625 18.546875 47.265625 
Q 14.109375 46.140625 10.015625 43.890625 
L 10.015625 52.203125 
Q 14.9375 54.109375 19.578125 55.046875 
Q 24.21875 56 28.609375 56 
Q 40.484375 56 46.34375 49.84375 
Q 52.203125 43.703125 52.203125 31.203125 
z
" id="DejaVuSans-97"/>
      <path d="M 18.3125 70.21875 
L 18.3125 54.6875 
L 36.8125 54.6875 
L 36.8125 47.703125 
L 18.3125 47.703125 
L 18.3125 18.015625 
Q 18.3125 11.328125 20.140625 9.421875 
Q 21.96875 7.515625 27.59375 7.515625 
L 36.8125 7.515625 
L 36.8125 0 
L 27.59375 0 
Q 17.1875 0 13.234375 3.875 
Q 9.28125 7.765625 9.28125 18.015625 
L 9.28125 47.703125 
L 2.6875 47.703125 
L 2.6875 54.6875 
L 9.28125 54.6875 
L 9.28125 70.21875 
z
" id="DejaVuSans-116"/>
      <path id="DejaVuSans-32"/>
      <path d="M 44.28125 53.078125 
L 44.28125 44.578125 
Q 40.484375 46.53125 36.375 47.5 
Q 32.28125 48.484375 27.875 48.484375 
Q 21.1875 48.484375 17.84375 46.4375 
Q 14.5 44.390625 14.5 40.28125 
Q 14.5 37.15625 16.890625 35.375 
Q 19.28125 33.59375 26.515625 31.984375 
L 29.59375 31.296875 
Q 39.15625 29.25 43.1875 25.515625 
Q 47.21875 21.78125 47.21875 15.09375 
Q 47.21875 7.46875 41.1875 3.015625 
Q 35.15625 -1.421875 24.609375 -1.421875 
Q 20.21875 -1.421875 15.453125 -0.5625 
Q 10.6875 0.296875 5.421875 2 
L 5.421875 11.28125 
Q 10.40625 8.6875 15.234375 7.390625 
Q 20.0625 6.109375 24.8125 6.109375 
Q 31.15625 6.109375 34.5625 8.28125 
Q 37.984375 10.453125 37.984375 14.40625 
Q 37.984375 18.0625 35.515625 20.015625 
Q 33.0625 21.96875 24.703125 23.78125 
L 21.578125 24.515625 
Q 13.234375 26.265625 9.515625 29.90625 
Q 5.8125 33.546875 5.8125 39.890625 
Q 5.8125 47.609375 11.28125 51.796875 
Q 16.75 56 26.8125 56 
Q 31.78125 56 36.171875 55.265625 
Q 40.578125 54.546875 44.28125 53.078125 
z
" id="DejaVuSans-115"/>
      <path d="M 30.609375 48.390625 
Q 23.390625 48.390625 19.1875 42.75 
Q 14.984375 37.109375 14.984375 27.296875 
Q 14.984375 17.484375 19.15625 11.84375 
Q 23.34375 6.203125 30.609375 6.203125 
Q 37.796875 6.203125 41.984375 11.859375 
Q 46.1875 17.53125 46.1875 27.296875 
Q 46.1875 37.015625 41.984375 42.703125 
Q 37.796875 48.390625 30.609375 48.390625 
z
M 30.609375 56 
Q 42.328125 56 49.015625 48.375 
Q 55.71875 40.765625 55.71875 27.296875 
Q 55.71875 13.875 49.015625 6.21875 
Q 42.328125 -1.421875 30.609375 -1.421875 
Q 18.84375 -1.421875 12.171875 6.21875 
Q 5.515625 13.875 5.515625 27.296875 
Q 5.515625 40.765625 12.171875 48.375 
Q 18.84375 56 30.609375 56 
z
" id="DejaVuSans-111"/>
      <path d="M 8.5 21.578125 
L 8.5 54.6875 
L 17.484375 54.6875 
L 17.484375 21.921875 
Q 17.484375 14.15625 20.5 10.265625 
Q 23.53125 6.390625 29.59375 6.390625 
Q 36.859375 6.390625 41.078125 11.03125 
Q 45.3125 15.671875 45.3125 23.6875 
L 45.3125 54.6875 
L 54.296875 54.6875 
L 54.296875 0 
L 45.3125 0 
L 45.3125 8.40625 
Q 42.046875 3.421875 37.71875 1 
Q 33.40625 -1.421875 27.6875 -1.421875 
Q 18.265625 -1.421875 13.375 4.4375 
Q 8.5 10.296875 8.5 21.578125 
z
M 31.109375 56 
z
" id="DejaVuSans-117"/>
      <path d="M 41.109375 46.296875 
Q 39.59375 47.171875 37.8125 47.578125 
Q 36.03125 48 33.890625 48 
Q 26.265625 48 22.1875 43.046875 
Q 18.109375 38.09375 18.109375 28.8125 
L 18.109375 0 
L 9.078125 0 
L 9.078125 54.6875 
L 18.109375 54.6875 
L 18.109375 46.1875 
Q 20.953125 51.171875 25.484375 53.578125 
Q 30.03125 56 36.53125 56 
Q 37.453125 56 38.578125 55.875 
Q 39.703125 55.765625 41.0625 55.515625 
z
" id="DejaVuSans-114"/>
      <path d="M 48.78125 52.59375 
L 48.78125 44.1875 
Q 44.96875 46.296875 41.140625 47.34375 
Q 37.3125 48.390625 33.40625 48.390625 
Q 24.65625 48.390625 19.8125 42.84375 
Q 14.984375 37.3125 14.984375 27.296875 
Q 14.984375 17.28125 19.8125 11.734375 
Q 24.65625 6.203125 33.40625 6.203125 
Q 37.3125 6.203125 41.140625 7.25 
Q 44.96875 8.296875 48.78125 10.40625 
L 48.78125 2.09375 
Q 45.015625 0.34375 40.984375 -0.53125 
Q 36.96875 -1.421875 32.421875 -1.421875 
Q 20.0625 -1.421875 12.78125 6.34375 
Q 5.515625 14.109375 5.515625 27.296875 
Q 5.515625 40.671875 12.859375 48.328125 
Q 20.21875 56 33.015625 56 
Q 37.15625 56 41.109375 55.140625 
Q 45.0625 54.296875 48.78125 52.59375 
z
" id="DejaVuSans-99"/>
      <path d="M 56.203125 29.59375 
L 56.203125 25.203125 
L 14.890625 25.203125 
Q 15.484375 15.921875 20.484375 11.0625 
Q 25.484375 6.203125 34.421875 6.203125 
Q 39.59375 6.203125 44.453125 7.46875 
Q 49.3125 8.734375 54.109375 11.28125 
L 54.109375 2.78125 
Q 49.265625 0.734375 44.1875 -0.34375 
Q 39.109375 -1.421875 33.890625 -1.421875 
Q 20.796875 -1.421875 13.15625 6.1875 
Q 5.515625 13.8125 5.515625 26.8125 
Q 5.515625 40.234375 12.765625 48.109375 
Q 20.015625 56 32.328125 56 
Q 43.359375 56 49.78125 48.890625 
Q 56.203125 41.796875 56.203125 29.59375 
z
M 47.21875 32.234375 
Q 47.125 39.59375 43.09375 43.984375 
Q 39.0625 48.390625 32.421875 48.390625 
Q 24.90625 48.390625 20.390625 44.140625 
Q 15.875 39.890625 15.1875 32.171875 
z
" id="DejaVuSans-101"/>
      <path d="M 11.71875 12.40625 
L 22.015625 12.40625 
L 22.015625 0 
L 11.71875 0 
z
M 11.71875 51.703125 
L 22.015625 51.703125 
L 22.015625 39.3125 
L 11.71875 39.3125 
z
" id="DejaVuSans-58"/>
      <path d="M 54.890625 33.015625 
L 54.890625 0 
L 45.90625 0 
L 45.90625 32.71875 
Q 45.90625 40.484375 42.875 44.328125 
Q 39.84375 48.1875 33.796875 48.1875 
Q 26.515625 48.1875 22.3125 43.546875 
Q 18.109375 38.921875 18.109375 30.90625 
L 18.109375 0 
L 9.078125 0 
L 9.078125 54.6875 
L 18.109375 54.6875 
L 18.109375 46.1875 
Q 21.34375 51.125 25.703125 53.5625 
Q 30.078125 56 35.796875 56 
Q 45.21875 56 50.046875 50.171875 
Q 54.890625 44.34375 54.890625 33.015625 
z
" id="DejaVuSans-110"/>
      <path d="M 52 44.1875 
Q 55.375 50.25 60.0625 53.125 
Q 64.75 56 71.09375 56 
Q 79.640625 56 84.28125 50.015625 
Q 88.921875 44.046875 88.921875 33.015625 
L 88.921875 0 
L 79.890625 0 
L 79.890625 32.71875 
Q 79.890625 40.578125 77.09375 44.375 
Q 74.3125 48.1875 68.609375 48.1875 
Q 61.625 48.1875 57.5625 43.546875 
Q 53.515625 38.921875 53.515625 30.90625 
L 53.515625 0 
L 44.484375 0 
L 44.484375 32.71875 
Q 44.484375 40.625 41.703125 44.40625 
Q 38.921875 48.1875 33.109375 48.1875 
Q 26.21875 48.1875 22.15625 43.53125 
Q 18.109375 38.875 18.109375 30.90625 
L 18.109375 0 
L 9.078125 0 
L 9.078125 54.6875 
L 18.109375 54.6875 
L 18.109375 46.1875 
Q 21.1875 51.21875 25.484375 53.609375 
Q 29.78125 56 35.6875 56 
Q 41.65625 56 45.828125 52.96875 
Q 50 49.953125 52 44.1875 
z
" id="DejaVuSans-109"/>
      <path d="M 9.421875 54.6875 
L 18.40625 54.6875 
L 18.40625 0 
L 9.421875 0 
z
M 9.421875 75.984375 
L 18.40625 75.984375 
L 18.40625 64.59375 
L 9.421875 64.59375 
z
" id="DejaVuSans-105"/>
     </defs>
     <use xlink:href="#DejaVuSans-68"/>
     <use x="77.001953" xlink:href="#DejaVuSans-97"/>
     <use x="138.28125" xlink:href="#DejaVuSans-116"/>
     <use x="177.490234" xlink:href="#DejaVuSans-97"/>
     <use x="238.769531" xlink:href="#DejaVuSans-32"/>
     <use x="270.556641" xlink:href="#DejaVuSans-115"/>
     <use x="322.65625" xlink:href="#DejaVuSans-111"/>
     <use x="383.837891" xlink:href="#DejaVuSans-117"/>
     <use x="447.216797" xlink:href="#DejaVuSans-114"/>
     <use x="486.080078" xlink:href="#DejaVuSans-99"/>
     <use x="541.060547" xlink:href="#DejaVuSans-101"/>
     <use x="602.583984" xlink:href="#DejaVuSans-58"/>
     <use x="636.275391" xlink:href="#DejaVuSans-32"/>
     <use x="668.0625" xlink:href="#DejaVuSans-110"/>
     <use x="731.441406" xlink:href="#DejaVuSans-111"/>
     <use x="792.623047" xlink:href="#DejaVuSans-109"/>
     <use x="890.035156" xlink:href="#DejaVuSans-105"/>
     <use x="917.818359" xlink:href="#DejaVuSans-99"/>
     <use x="972.798828" xlink:href="#DejaVuSans-115"/>
    </g>
   </g>
   <g id="legend_1">
    <g id="patch_7">
     <path d="M 64.6 78.82825 
L 127.31875 78.82825 
Q 129.31875 78.82825 129.31875 76.82825 
L 129.31875 48.472 
Q 129.31875 46.472 127.31875 46.472 
L 64.6 46.472 
Q 62.6 46.472 62.6 48.472 
L 62.6 76.82825 
Q 62.6 78.82825 64.6 78.82825 
z
" style="fill:#ffffff;opacity:0.8;stroke:#cccccc;stroke-linejoin:miter;"/>
    </g>
    <g id="line2d_19">
     <path d="M 66.6 54.570437 
L 86.6 54.570437 
" style="fill:none;stroke:#0000ff;stroke-linecap:square;stroke-width:1.5;"/>
    </g>
    <g id="line2d_20"/>
    <g id="text_17">
     <!-- MACD -->
     <g transform="translate(94.6 58.070437)scale(0.1 -0.1)">
      <defs>
       <path d="M 9.8125 72.90625 
L 24.515625 72.90625 
L 43.109375 23.296875 
L 61.8125 72.90625 
L 76.515625 72.90625 
L 76.515625 0 
L 66.890625 0 
L 66.890625 64.015625 
L 48.09375 14.015625 
L 38.1875 14.015625 
L 19.390625 64.015625 
L 19.390625 0 
L 9.8125 0 
z
" id="DejaVuSans-77"/>
       <path d="M 34.1875 63.1875 
L 20.796875 26.90625 
L 47.609375 26.90625 
z
M 28.609375 72.90625 
L 39.796875 72.90625 
L 67.578125 0 
L 57.328125 0 
L 50.6875 18.703125 
L 17.828125 18.703125 
L 11.1875 0 
L 0.78125 0 
z
" id="DejaVuSans-65"/>
       <path d="M 64.40625 67.28125 
L 64.40625 56.890625 
Q 59.421875 61.53125 53.78125 63.8125 
Q 48.140625 66.109375 41.796875 66.109375 
Q 29.296875 66.109375 22.65625 58.46875 
Q 16.015625 50.828125 16.015625 36.375 
Q 16.015625 21.96875 22.65625 14.328125 
Q 29.296875 6.6875 41.796875 6.6875 
Q 48.140625 6.6875 53.78125 8.984375 
Q 59.421875 11.28125 64.40625 15.921875 
L 64.40625 5.609375 
Q 59.234375 2.09375 53.4375 0.328125 
Q 47.65625 -1.421875 41.21875 -1.421875 
Q 24.65625 -1.421875 15.125 8.703125 
Q 5.609375 18.84375 5.609375 36.375 
Q 5.609375 53.953125 15.125 64.078125 
Q 24.65625 74.21875 41.21875 74.21875 
Q 47.75 74.21875 53.53125 72.484375 
Q 59.328125 70.75 64.40625 67.28125 
z
" id="DejaVuSans-67"/>
      </defs>
      <use xlink:href="#DejaVuSans-77"/>
      <use x="86.279297" xlink:href="#DejaVuSans-65"/>
      <use x="152.9375" xlink:href="#DejaVuSans-67"/>
      <use x="222.761719" xlink:href="#DejaVuSans-68"/>
     </g>
    </g>
    <g id="line2d_21">
     <path d="M 66.6 69.248562 
L 86.6 69.248562 
" style="fill:none;stroke:#ff6347;stroke-linecap:square;stroke-width:1.5;"/>
    </g>
    <g id="line2d_22"/>
    <g id="text_18">
     <!-- Signal -->
     <g transform="translate(94.6 72.748562)scale(0.1 -0.1)">
      <defs>
       <path d="M 53.515625 70.515625 
L 53.515625 60.890625 
Q 47.90625 63.578125 42.921875 64.890625 
Q 37.9375 66.21875 33.296875 66.21875 
Q 25.25 66.21875 20.875 63.09375 
Q 16.5 59.96875 16.5 54.203125 
Q 16.5 49.359375 19.40625 46.890625 
Q 22.3125 44.4375 30.421875 42.921875 
L 36.375 41.703125 
Q 47.40625 39.59375 52.65625 34.296875 
Q 57.90625 29 57.90625 20.125 
Q 57.90625 9.515625 50.796875 4.046875 
Q 43.703125 -1.421875 29.984375 -1.421875 
Q 24.8125 -1.421875 18.96875 -0.25 
Q 13.140625 0.921875 6.890625 3.21875 
L 6.890625 13.375 
Q 12.890625 10.015625 18.65625 8.296875 
Q 24.421875 6.59375 29.984375 6.59375 
Q 38.421875 6.59375 43.015625 9.90625 
Q 47.609375 13.234375 47.609375 19.390625 
Q 47.609375 24.75 44.3125 27.78125 
Q 41.015625 30.8125 33.5 32.328125 
L 27.484375 33.5 
Q 16.453125 35.6875 11.515625 40.375 
Q 6.59375 45.0625 6.59375 53.421875 
Q 6.59375 63.09375 13.40625 68.65625 
Q 20.21875 74.21875 32.171875 74.21875 
Q 37.3125 74.21875 42.625 73.28125 
Q 47.953125 72.359375 53.515625 70.515625 
z
" id="DejaVuSans-83"/>
       <path d="M 45.40625 27.984375 
Q 45.40625 37.75 41.375 43.109375 
Q 37.359375 48.484375 30.078125 48.484375 
Q 22.859375 48.484375 18.828125 43.109375 
Q 14.796875 37.75 14.796875 27.984375 
Q 14.796875 18.265625 18.828125 12.890625 
Q 22.859375 7.515625 30.078125 7.515625 
Q 37.359375 7.515625 41.375 12.890625 
Q 45.40625 18.265625 45.40625 27.984375 
z
M 54.390625 6.78125 
Q 54.390625 -7.171875 48.1875 -13.984375 
Q 42 -20.796875 29.203125 -20.796875 
Q 24.46875 -20.796875 20.265625 -20.09375 
Q 16.0625 -19.390625 12.109375 -17.921875 
L 12.109375 -9.1875 
Q 16.0625 -11.328125 19.921875 -12.34375 
Q 23.78125 -13.375 27.78125 -13.375 
Q 36.625 -13.375 41.015625 -8.765625 
Q 45.40625 -4.15625 45.40625 5.171875 
L 45.40625 9.625 
Q 42.625 4.78125 38.28125 2.390625 
Q 33.9375 0 27.875 0 
Q 17.828125 0 11.671875 7.65625 
Q 5.515625 15.328125 5.515625 27.984375 
Q 5.515625 40.671875 11.671875 48.328125 
Q 17.828125 56 27.875 56 
Q 33.9375 56 38.28125 53.609375 
Q 42.625 51.21875 45.40625 46.390625 
L 45.40625 54.6875 
L 54.390625 54.6875 
z
" id="DejaVuSans-103"/>
       <path d="M 9.421875 75.984375 
L 18.40625 75.984375 
L 18.40625 0 
L 9.421875 0 
z
" id="DejaVuSans-108"/>
      </defs>
      <use xlink:href="#DejaVuSans-83"/>
      <use x="63.476562" xlink:href="#DejaVuSans-105"/>
      <use x="91.259766" xlink:href="#DejaVuSans-103"/>
      <use x="154.736328" xlink:href="#DejaVuSans-110"/>
      <use x="218.115234" xlink:href="#DejaVuSans-97"/>
      <use x="279.394531" xlink:href="#DejaVuSans-108"/>
     </g>
    </g>
   </g>
  </g>
  <g id="text_19">
   <!-- MACD -->
   <g transform="translate(206.41875 19.0695)scale(0.16 -0.16)">
    <use xlink:href="#DejaVuSans-77"/>
    <use x="86.279297" xlink:href="#DejaVuSans-65"/>
    <use x="152.9375" xlink:href="#DejaVuSans-67"/>
    <use x="222.761719" xlink:href="#DejaVuSans-68"/>
   </g>
  </g>
 </g>
 <defs>
  <clipPath id="p49bf43b9ad">
   <rect height="266.112" width="357.12" x="57.6" y="41.472"/>
  </clipPath>
 </defs>
</svg>
