<?xml version="1.0" encoding="utf-8" standalone="no"?>
<!DOCTYPE svg PUBLIC "-//W3C//DTD SVG 1.1//EN"
  "http://www.w3.org/Graphics/SVG/1.1/DTD/svg11.dtd">
<!-- Created with matplotlib (https://matplotlib.org/) -->
<svg height="345.6pt" version="1.1" viewBox="0 0 460.8 345.6" width="460.8pt" xmlns="http://www.w3.org/2000/svg" xmlns:xlink="http://www.w3.org/1999/xlink">
 <metadata>
  <rdf:RDF xmlns:cc="http://creativecommons.org/ns#" xmlns:dc="http://purl.org/dc/elements/1.1/" xmlns:rdf="http://www.w3.org/1999/02/22-rdf-syntax-ns#">
   <cc:Work>
    <dc:type rdf:resource="http://purl.org/dc/dcmitype/StillImage"/>
    <dc:date>2021-03-22T19:00:07.449627</dc:date>
    <dc:format>image/svg+xml</dc:format>
    <dc:creator>
     <cc:Agent>
      <dc:title>Matplotlib v3.3.2, https://matplotlib.org/</dc:title>
     </cc:Agent>
    </dc:creator>
   </cc:Work>
  </rdf:RDF>
 </metadata>
 <defs>
  <style type="text/css">*{stroke-linecap:butt;stroke-linejoin:round;}</style>
 </defs>
 <g id="figure_1">
  <g id="patch_1">
   <path d="M 0 345.6 
L 460.8 345.6 
L 460.8 0 
L 0 0 
z
" style="fill:#ffffff;"/>
  </g>
  <g id="axes_1">
   <g id="patch_2">
    <path d="M 57.6 307.584 
L 414.72 307.584 
L 414.72 41.472 
L 57.6 41.472 
z
" style="fill:#ffffff;"/>
   </g>
   <g id="matplotlib.axis_1">
    <g id="xtick_1">
     <g id="line2d_1">
      <defs>
       <path d="M 0 0 
L 0 3.5 
" id="mffb70434cf" style="stroke:#000000;stroke-width:0.8;"/>
      </defs>
      <g>
       <use style="stroke:#000000;stroke-width:0.8;" x="73.832727" xlink:href="#mffb70434cf" y="307.584"/>
      </g>
     </g>
     <g id="text_1">
      <!-- 2020-01 -->
      <g transform="translate(52.941321 322.182437)scale(0.1 -0.1)">
       <defs>
        <path d="M 19.1875 8.296875 
L 53.609375 8.296875 
L 53.609375 0 
L 7.328125 0 
L 7.328125 8.296875 
Q 12.9375 14.109375 22.625 23.890625 
Q 32.328125 33.6875 34.8125 36.53125 
Q 39.546875 41.84375 41.421875 45.53125 
Q 43.3125 49.21875 43.3125 52.78125 
Q 43.3125 58.59375 39.234375 62.25 
Q 35.15625 65.921875 28.609375 65.921875 
Q 23.96875 65.921875 18.8125 64.3125 
Q 13.671875 62.703125 7.8125 59.421875 
L 7.8125 69.390625 
Q 13.765625 71.78125 18.9375 73 
Q 24.125 74.21875 28.421875 74.21875 
Q 39.75 74.21875 46.484375 68.546875 
Q 53.21875 62.890625 53.21875 53.421875 
Q 53.21875 48.921875 51.53125 44.890625 
Q 49.859375 40.875 45.40625 35.40625 
Q 44.1875 33.984375 37.640625 27.21875 
Q 31.109375 20.453125 19.1875 8.296875 
z
" id="DejaVuSans-50"/>
        <path d="M 31.78125 66.40625 
Q 24.171875 66.40625 20.328125 58.90625 
Q 16.5 51.421875 16.5 36.375 
Q 16.5 21.390625 20.328125 13.890625 
Q 24.171875 6.390625 31.78125 6.390625 
Q 39.453125 6.390625 43.28125 13.890625 
Q 47.125 21.390625 47.125 36.375 
Q 47.125 51.421875 43.28125 58.90625 
Q 39.453125 66.40625 31.78125 66.40625 
z
M 31.78125 74.21875 
Q 44.046875 74.21875 50.515625 64.515625 
Q 56.984375 54.828125 56.984375 36.375 
Q 56.984375 17.96875 50.515625 8.265625 
Q 44.046875 -1.421875 31.78125 -1.421875 
Q 19.53125 -1.421875 13.0625 8.265625 
Q 6.59375 17.96875 6.59375 36.375 
Q 6.59375 54.828125 13.0625 64.515625 
Q 19.53125 74.21875 31.78125 74.21875 
z
" id="DejaVuSans-48"/>
        <path d="M 4.890625 31.390625 
L 31.203125 31.390625 
L 31.203125 23.390625 
L 4.890625 23.390625 
z
" id="DejaVuSans-45"/>
        <path d="M 12.40625 8.296875 
L 28.515625 8.296875 
L 28.515625 63.921875 
L 10.984375 60.40625 
L 10.984375 69.390625 
L 28.421875 72.90625 
L 38.28125 72.90625 
L 38.28125 8.296875 
L 54.390625 8.296875 
L 54.390625 0 
L 12.40625 0 
z
" id="DejaVuSans-49"/>
       </defs>
       <use xlink:href="#DejaVuSans-50"/>
       <use x="63.623047" xlink:href="#DejaVuSans-48"/>
       <use x="127.246094" xlink:href="#DejaVuSans-50"/>
       <use x="190.869141" xlink:href="#DejaVuSans-48"/>
       <use x="254.492188" xlink:href="#DejaVuSans-45"/>
       <use x="290.576172" xlink:href="#DejaVuSans-48"/>
       <use x="354.199219" xlink:href="#DejaVuSans-49"/>
      </g>
     </g>
    </g>
    <g id="xtick_2">
     <g id="line2d_2">
      <g>
       <use style="stroke:#000000;stroke-width:0.8;" x="117.606374" xlink:href="#mffb70434cf" y="307.584"/>
      </g>
     </g>
     <g id="text_2">
      <!-- 2020-03 -->
      <g transform="translate(96.714968 322.182437)scale(0.1 -0.1)">
       <defs>
        <path d="M 40.578125 39.3125 
Q 47.65625 37.796875 51.625 33 
Q 55.609375 28.21875 55.609375 21.1875 
Q 55.609375 10.40625 48.1875 4.484375 
Q 40.765625 -1.421875 27.09375 -1.421875 
Q 22.515625 -1.421875 17.65625 -0.515625 
Q 12.796875 0.390625 7.625 2.203125 
L 7.625 11.71875 
Q 11.71875 9.328125 16.59375 8.109375 
Q 21.484375 6.890625 26.8125 6.890625 
Q 36.078125 6.890625 40.9375 10.546875 
Q 45.796875 14.203125 45.796875 21.1875 
Q 45.796875 27.640625 41.28125 31.265625 
Q 36.765625 34.90625 28.71875 34.90625 
L 20.21875 34.90625 
L 20.21875 43.015625 
L 29.109375 43.015625 
Q 36.375 43.015625 40.234375 45.921875 
Q 44.09375 48.828125 44.09375 54.296875 
Q 44.09375 59.90625 40.109375 62.90625 
Q 36.140625 65.921875 28.71875 65.921875 
Q 24.65625 65.921875 20.015625 65.03125 
Q 15.375 64.15625 9.8125 62.3125 
L 9.8125 71.09375 
Q 15.4375 72.65625 20.34375 73.4375 
Q 25.25 74.21875 29.59375 74.21875 
Q 40.828125 74.21875 47.359375 69.109375 
Q 53.90625 64.015625 53.90625 55.328125 
Q 53.90625 49.265625 50.4375 45.09375 
Q 46.96875 40.921875 40.578125 39.3125 
z
" id="DejaVuSans-51"/>
       </defs>
       <use xlink:href="#DejaVuSans-50"/>
       <use x="63.623047" xlink:href="#DejaVuSans-48"/>
       <use x="127.246094" xlink:href="#DejaVuSans-50"/>
       <use x="190.869141" xlink:href="#DejaVuSans-48"/>
       <use x="254.492188" xlink:href="#DejaVuSans-45"/>
       <use x="290.576172" xlink:href="#DejaVuSans-48"/>
       <use x="354.199219" xlink:href="#DejaVuSans-51"/>
      </g>
     </g>
    </g>
    <g id="xtick_3">
     <g id="line2d_3">
      <g>
       <use style="stroke:#000000;stroke-width:0.8;" x="162.109581" xlink:href="#mffb70434cf" y="307.584"/>
      </g>
     </g>
     <g id="text_3">
      <!-- 2020-05 -->
      <g transform="translate(141.218175 322.182437)scale(0.1 -0.1)">
       <defs>
        <path d="M 10.796875 72.90625 
L 49.515625 72.90625 
L 49.515625 64.59375 
L 19.828125 64.59375 
L 19.828125 46.734375 
Q 21.96875 47.46875 24.109375 47.828125 
Q 26.265625 48.1875 28.421875 48.1875 
Q 40.625 48.1875 47.75 41.5 
Q 54.890625 34.8125 54.890625 23.390625 
Q 54.890625 11.625 47.5625 5.09375 
Q 40.234375 -1.421875 26.90625 -1.421875 
Q 22.3125 -1.421875 17.546875 -0.640625 
Q 12.796875 0.140625 7.71875 1.703125 
L 7.71875 11.625 
Q 12.109375 9.234375 16.796875 8.0625 
Q 21.484375 6.890625 26.703125 6.890625 
Q 35.15625 6.890625 40.078125 11.328125 
Q 45.015625 15.765625 45.015625 23.390625 
Q 45.015625 31 40.078125 35.4375 
Q 35.15625 39.890625 26.703125 39.890625 
Q 22.75 39.890625 18.8125 39.015625 
Q 14.890625 38.140625 10.796875 36.28125 
z
" id="DejaVuSans-53"/>
       </defs>
       <use xlink:href="#DejaVuSans-50"/>
       <use x="63.623047" xlink:href="#DejaVuSans-48"/>
       <use x="127.246094" xlink:href="#DejaVuSans-50"/>
       <use x="190.869141" xlink:href="#DejaVuSans-48"/>
       <use x="254.492188" xlink:href="#DejaVuSans-45"/>
       <use x="290.576172" xlink:href="#DejaVuSans-48"/>
       <use x="354.199219" xlink:href="#DejaVuSans-53"/>
      </g>
     </g>
    </g>
    <g id="xtick_4">
     <g id="line2d_4">
      <g>
       <use style="stroke:#000000;stroke-width:0.8;" x="206.612789" xlink:href="#mffb70434cf" y="307.584"/>
      </g>
     </g>
     <g id="text_4">
      <!-- 2020-07 -->
      <g transform="translate(185.721382 322.182437)scale(0.1 -0.1)">
       <defs>
        <path d="M 8.203125 72.90625 
L 55.078125 72.90625 
L 55.078125 68.703125 
L 28.609375 0 
L 18.3125 0 
L 43.21875 64.59375 
L 8.203125 64.59375 
z
" id="DejaVuSans-55"/>
       </defs>
       <use xlink:href="#DejaVuSans-50"/>
       <use x="63.623047" xlink:href="#DejaVuSans-48"/>
       <use x="127.246094" xlink:href="#DejaVuSans-50"/>
       <use x="190.869141" xlink:href="#DejaVuSans-48"/>
       <use x="254.492188" xlink:href="#DejaVuSans-45"/>
       <use x="290.576172" xlink:href="#DejaVuSans-48"/>
       <use x="354.199219" xlink:href="#DejaVuSans-55"/>
      </g>
     </g>
    </g>
    <g id="xtick_5">
     <g id="line2d_5">
      <g>
       <use style="stroke:#000000;stroke-width:0.8;" x="251.845557" xlink:href="#mffb70434cf" y="307.584"/>
      </g>
     </g>
     <g id="text_5">
      <!-- 2020-09 -->
      <g transform="translate(230.95415 322.182437)scale(0.1 -0.1)">
       <defs>
        <path d="M 10.984375 1.515625 
L 10.984375 10.5 
Q 14.703125 8.734375 18.5 7.8125 
Q 22.3125 6.890625 25.984375 6.890625 
Q 35.75 6.890625 40.890625 13.453125 
Q 46.046875 20.015625 46.78125 33.40625 
Q 43.953125 29.203125 39.59375 26.953125 
Q 35.25 24.703125 29.984375 24.703125 
Q 19.046875 24.703125 12.671875 31.3125 
Q 6.296875 37.9375 6.296875 49.421875 
Q 6.296875 60.640625 12.9375 67.421875 
Q 19.578125 74.21875 30.609375 74.21875 
Q 43.265625 74.21875 49.921875 64.515625 
Q 56.59375 54.828125 56.59375 36.375 
Q 56.59375 19.140625 48.40625 8.859375 
Q 40.234375 -1.421875 26.421875 -1.421875 
Q 22.703125 -1.421875 18.890625 -0.6875 
Q 15.09375 0.046875 10.984375 1.515625 
z
M 30.609375 32.421875 
Q 37.25 32.421875 41.125 36.953125 
Q 45.015625 41.5 45.015625 49.421875 
Q 45.015625 57.28125 41.125 61.84375 
Q 37.25 66.40625 30.609375 66.40625 
Q 23.96875 66.40625 20.09375 61.84375 
Q 16.21875 57.28125 16.21875 49.421875 
Q 16.21875 41.5 20.09375 36.953125 
Q 23.96875 32.421875 30.609375 32.421875 
z
" id="DejaVuSans-57"/>
       </defs>
       <use xlink:href="#DejaVuSans-50"/>
       <use x="63.623047" xlink:href="#DejaVuSans-48"/>
       <use x="127.246094" xlink:href="#DejaVuSans-50"/>
       <use x="190.869141" xlink:href="#DejaVuSans-48"/>
       <use x="254.492188" xlink:href="#DejaVuSans-45"/>
       <use x="290.576172" xlink:href="#DejaVuSans-48"/>
       <use x="354.199219" xlink:href="#DejaVuSans-57"/>
      </g>
     </g>
    </g>
    <g id="xtick_6">
     <g id="line2d_6">
      <g>
       <use style="stroke:#000000;stroke-width:0.8;" x="296.348764" xlink:href="#mffb70434cf" y="307.584"/>
      </g>
     </g>
     <g id="text_6">
      <!-- 2020-11 -->
      <g transform="translate(275.457358 322.182437)scale(0.1 -0.1)">
       <use xlink:href="#DejaVuSans-50"/>
       <use x="63.623047" xlink:href="#DejaVuSans-48"/>
       <use x="127.246094" xlink:href="#DejaVuSans-50"/>
       <use x="190.869141" xlink:href="#DejaVuSans-48"/>
       <use x="254.492188" xlink:href="#DejaVuSans-45"/>
       <use x="290.576172" xlink:href="#DejaVuSans-49"/>
       <use x="354.199219" xlink:href="#DejaVuSans-49"/>
      </g>
     </g>
    </g>
    <g id="xtick_7">
     <g id="line2d_7">
      <g>
       <use style="stroke:#000000;stroke-width:0.8;" x="340.851971" xlink:href="#mffb70434cf" y="307.584"/>
      </g>
     </g>
     <g id="text_7">
      <!-- 2021-01 -->
      <g transform="translate(319.960565 322.182437)scale(0.1 -0.1)">
       <use xlink:href="#DejaVuSans-50"/>
       <use x="63.623047" xlink:href="#DejaVuSans-48"/>
       <use x="127.246094" xlink:href="#DejaVuSans-50"/>
       <use x="190.869141" xlink:href="#DejaVuSans-49"/>
       <use x="254.492188" xlink:href="#DejaVuSans-45"/>
       <use x="290.576172" xlink:href="#DejaVuSans-48"/>
       <use x="354.199219" xlink:href="#DejaVuSans-49"/>
      </g>
     </g>
    </g>
    <g id="xtick_8">
     <g id="line2d_8">
      <g>
       <use style="stroke:#000000;stroke-width:0.8;" x="383.896057" xlink:href="#mffb70434cf" y="307.584"/>
      </g>
     </g>
     <g id="text_8">
      <!-- 2021-03 -->
      <g transform="translate(363.004651 322.182437)scale(0.1 -0.1)">
       <use xlink:href="#DejaVuSans-50"/>
       <use x="63.623047" xlink:href="#DejaVuSans-48"/>
       <use x="127.246094" xlink:href="#DejaVuSans-50"/>
       <use x="190.869141" xlink:href="#DejaVuSans-49"/>
       <use x="254.492188" xlink:href="#DejaVuSans-45"/>
       <use x="290.576172" xlink:href="#DejaVuSans-48"/>
       <use x="354.199219" xlink:href="#DejaVuSans-51"/>
      </g>
     </g>
    </g>
   </g>
   <g id="matplotlib.axis_2">
    <g id="ytick_1">
     <g id="line2d_9">
      <defs>
       <path d="M 0 0 
L -3.5 0 
" id="m0a43ef0638" style="stroke:#000000;stroke-width:0.8;"/>
      </defs>
      <g>
       <use style="stroke:#000000;stroke-width:0.8;" x="57.6" xlink:href="#m0a43ef0638" y="292.42934"/>
      </g>
     </g>
     <g id="text_9">
      <!-- −1000 -->
      <g transform="translate(16.770313 296.228559)scale(0.1 -0.1)">
       <defs>
        <path d="M 10.59375 35.5 
L 73.1875 35.5 
L 73.1875 27.203125 
L 10.59375 27.203125 
z
" id="DejaVuSans-8722"/>
       </defs>
       <use xlink:href="#DejaVuSans-8722"/>
       <use x="83.789062" xlink:href="#DejaVuSans-49"/>
       <use x="147.412109" xlink:href="#DejaVuSans-48"/>
       <use x="211.035156" xlink:href="#DejaVuSans-48"/>
       <use x="274.658203" xlink:href="#DejaVuSans-48"/>
      </g>
     </g>
    </g>
    <g id="ytick_2">
     <g id="line2d_10">
      <g>
       <use style="stroke:#000000;stroke-width:0.8;" x="57.6" xlink:href="#m0a43ef0638" y="254.185577"/>
      </g>
     </g>
     <g id="text_10">
      <!-- 0 -->
      <g transform="translate(44.2375 257.984796)scale(0.1 -0.1)">
       <use xlink:href="#DejaVuSans-48"/>
      </g>
     </g>
    </g>
    <g id="ytick_3">
     <g id="line2d_11">
      <g>
       <use style="stroke:#000000;stroke-width:0.8;" x="57.6" xlink:href="#m0a43ef0638" y="215.941814"/>
      </g>
     </g>
     <g id="text_11">
      <!-- 1000 -->
      <g transform="translate(25.15 219.741033)scale(0.1 -0.1)">
       <use xlink:href="#DejaVuSans-49"/>
       <use x="63.623047" xlink:href="#DejaVuSans-48"/>
       <use x="127.246094" xlink:href="#DejaVuSans-48"/>
       <use x="190.869141" xlink:href="#DejaVuSans-48"/>
      </g>
     </g>
    </g>
    <g id="ytick_4">
     <g id="line2d_12">
      <g>
       <use style="stroke:#000000;stroke-width:0.8;" x="57.6" xlink:href="#m0a43ef0638" y="177.698052"/>
      </g>
     </g>
     <g id="text_12">
      <!-- 2000 -->
      <g transform="translate(25.15 181.49727)scale(0.1 -0.1)">
       <use xlink:href="#DejaVuSans-50"/>
       <use x="63.623047" xlink:href="#DejaVuSans-48"/>
       <use x="127.246094" xlink:href="#DejaVuSans-48"/>
       <use x="190.869141" xlink:href="#DejaVuSans-48"/>
      </g>
     </g>
    </g>
    <g id="ytick_5">
     <g id="line2d_13">
      <g>
       <use style="stroke:#000000;stroke-width:0.8;" x="57.6" xlink:href="#m0a43ef0638" y="139.454289"/>
      </g>
     </g>
     <g id="text_13">
      <!-- 3000 -->
      <g transform="translate(25.15 143.253508)scale(0.1 -0.1)">
       <use xlink:href="#DejaVuSans-51"/>
       <use x="63.623047" xlink:href="#DejaVuSans-48"/>
       <use x="127.246094" xlink:href="#DejaVuSans-48"/>
       <use x="190.869141" xlink:href="#DejaVuSans-48"/>
      </g>
     </g>
    </g>
    <g id="ytick_6">
     <g id="line2d_14">
      <g>
       <use style="stroke:#000000;stroke-width:0.8;" x="57.6" xlink:href="#m0a43ef0638" y="101.210526"/>
      </g>
     </g>
     <g id="text_14">
      <!-- 4000 -->
      <g transform="translate(25.15 105.009745)scale(0.1 -0.1)">
       <defs>
        <path d="M 37.796875 64.3125 
L 12.890625 25.390625 
L 37.796875 25.390625 
z
M 35.203125 72.90625 
L 47.609375 72.90625 
L 47.609375 25.390625 
L 58.015625 25.390625 
L 58.015625 17.1875 
L 47.609375 17.1875 
L 47.609375 0 
L 37.796875 0 
L 37.796875 17.1875 
L 4.890625 17.1875 
L 4.890625 26.703125 
z
" id="DejaVuSans-52"/>
       </defs>
       <use xlink:href="#DejaVuSans-52"/>
       <use x="63.623047" xlink:href="#DejaVuSans-48"/>
       <use x="127.246094" xlink:href="#DejaVuSans-48"/>
       <use x="190.869141" xlink:href="#DejaVuSans-48"/>
      </g>
     </g>
    </g>
    <g id="ytick_7">
     <g id="line2d_15">
      <g>
       <use style="stroke:#000000;stroke-width:0.8;" x="57.6" xlink:href="#m0a43ef0638" y="62.966763"/>
      </g>
     </g>
     <g id="text_15">
      <!-- 5000 -->
      <g transform="translate(25.15 66.765982)scale(0.1 -0.1)">
       <use xlink:href="#DejaVuSans-53"/>
       <use x="63.623047" xlink:href="#DejaVuSans-48"/>
       <use x="127.246094" xlink:href="#DejaVuSans-48"/>
       <use x="190.869141" xlink:href="#DejaVuSans-48"/>
      </g>
     </g>
    </g>
   </g>
   <g id="line2d_16">
    <path clip-path="url(#pc6176a5045)" d="M 73.832727 254.185577 
L 398.487273 254.185577 
L 398.487273 254.185577 
" style="fill:none;stroke:#1f77b4;stroke-dasharray:5.55,2.4;stroke-dashoffset:0;stroke-width:1.5;"/>
   </g>
   <g id="line2d_17">
    <path clip-path="url(#pc6176a5045)" d="M 73.832727 254.185577 
L 74.562288 254.877785 
L 76.02141 253.707207 
L 76.75097 253.295686 
L 77.480531 251.746277 
L 78.210092 249.352234 
L 78.939653 247.882139 
L 79.669213 247.491514 
L 80.398774 246.12582 
L 81.128335 245.674974 
L 81.857896 244.923114 
L 82.587457 244.663547 
L 83.317017 242.427203 
L 84.046578 240.805846 
L 84.776139 239.967399 
L 85.5057 238.943713 
L 86.23526 238.282062 
L 86.964821 238.562995 
L 87.694382 239.166401 
L 88.423943 239.516478 
L 89.153504 240.161085 
L 89.883064 241.646192 
L 91.342186 244.167688 
L 92.071747 244.529398 
L 92.801307 244.011364 
L 93.530868 242.221169 
L 94.260429 241.268601 
L 94.98999 240.003611 
L 96.449111 239.444602 
L 97.178672 239.60543 
L 97.908233 240.024005 
L 98.637794 240.86816 
L 99.367354 240.344854 
L 100.826476 239.137016 
L 101.556037 238.615938 
L 102.285598 237.580855 
L 103.015158 237.900485 
L 104.47428 236.374161 
L 105.203841 236.387379 
L 105.933401 236.214094 
L 108.122084 240.753149 
L 108.851645 240.875935 
L 109.581205 242.931086 
L 110.310766 244.627311 
L 111.769888 246.891733 
L 112.499448 246.901562 
L 113.229009 247.933865 
L 113.95857 249.883846 
L 114.688131 253.058632 
L 116.147252 257.666866 
L 116.876813 259.882828 
L 117.606374 261.548386 
L 118.335935 261.591815 
L 119.065495 262.023682 
L 119.795056 262.273612 
L 120.524617 261.44558 
L 121.254178 260.433806 
L 121.983739 260.360664 
L 123.44286 265.013082 
L 124.172421 266.727286 
L 124.901982 267.768931 
L 125.631542 277.69573 
L 127.090664 288.231578 
L 128.549785 294.392681 
L 129.279346 295.397652 
L 130.008907 295.488 
L 132.197589 287.599153 
L 132.92715 286.482172 
L 135.115832 276.336886 
L 136.574954 271.368674 
L 137.304515 270.820999 
L 138.034076 271.253443 
L 138.763636 269.302474 
L 139.493197 267.964265 
L 141.681879 262.504441 
L 142.41144 260.848795 
L 143.141001 259.763407 
L 144.600123 255.082635 
L 145.329683 253.420683 
L 146.059244 252.207232 
L 146.788805 252.514634 
L 147.518366 253.06709 
L 148.247926 252.507743 
L 148.977487 253.249101 
L 149.707048 253.468307 
L 150.436609 254.130095 
L 151.89573 253.179124 
L 152.625291 252.398027 
L 153.354852 251.97715 
L 154.813973 253.06626 
L 155.543534 252.657783 
L 156.273095 251.076578 
L 157.732217 248.97971 
L 159.920899 246.761059 
L 160.65046 244.642561 
L 161.38002 241.665891 
L 162.839142 237.396303 
L 163.568703 236.252571 
L 165.027824 235.024726 
L 166.486946 232.538599 
L 167.216507 229.998709 
L 167.946067 229.034444 
L 168.675628 232.456452 
L 170.13475 236.164586 
L 170.864311 236.790169 
L 171.593871 236.00384 
L 172.323432 235.774928 
L 173.052993 235.983997 
L 173.782554 235.409251 
L 174.512114 235.59569 
L 175.241675 235.48623 
L 175.971236 235.667094 
L 176.700797 237.353195 
L 178.159918 241.049009 
L 178.889479 242.483197 
L 179.61904 245.042254 
L 180.348601 246.86247 
L 181.078161 248.213379 
L 181.807722 248.470674 
L 182.537283 248.003931 
L 183.266844 247.396142 
L 184.725965 246.737004 
L 185.455526 244.860714 
L 186.185087 245.15063 
L 186.914648 245.678731 
L 187.644208 245.25206 
L 188.373769 245.498722 
L 189.10333 245.968526 
L 189.832891 246.098277 
L 190.562451 246.47943 
L 191.292012 246.67645 
L 192.021573 246.71366 
L 193.480695 248.872639 
L 194.210255 249.798576 
L 194.939816 251.442409 
L 197.128498 252.267055 
L 197.858059 253.059775 
L 198.58762 253.584295 
L 199.317181 253.919359 
L 200.046742 253.770688 
L 200.776302 253.302558 
L 201.505863 253.194231 
L 202.235424 253.841172 
L 202.964985 254.799133 
L 203.694545 255.430518 
L 204.424106 256.438226 
L 205.153667 256.882806 
L 206.612789 257.124895 
L 207.342349 257.007437 
L 208.801471 257.357707 
L 209.531032 257.467155 
L 210.260592 257.125199 
L 211.719714 256.17836 
L 212.449275 255.419357 
L 213.178836 255.601201 
L 215.367518 254.84251 
L 216.826639 254.948005 
L 218.285761 255.464612 
L 219.744883 255.56993 
L 221.204004 255.317894 
L 221.933565 254.723772 
L 223.392686 252.946807 
L 224.851808 251.181476 
L 225.581369 248.675392 
L 226.31093 244.685517 
L 227.04049 241.676388 
L 227.770051 239.244757 
L 228.499612 237.595321 
L 229.229173 235.489429 
L 229.958733 234.213892 
L 231.417855 233.473324 
L 232.147416 233.579084 
L 232.876977 232.135506 
L 233.606537 231.162892 
L 235.065659 231.639953 
L 235.79522 230.994659 
L 236.52478 231.29574 
L 237.254341 233.288862 
L 237.983902 234.407979 
L 238.713463 234.917079 
L 239.443023 235.120236 
L 240.172584 235.457919 
L 240.902145 236.094028 
L 241.631706 235.361657 
L 242.361267 236.25015 
L 243.090827 237.408759 
L 243.820388 239.2727 
L 245.27951 242.029657 
L 246.00907 242.865296 
L 246.738631 244.763416 
L 247.468192 246.113565 
L 248.197753 247.741425 
L 248.927314 248.540791 
L 249.656874 249.131281 
L 251.115996 249.278114 
L 251.845557 248.508782 
L 252.575117 248.484805 
L 253.304678 250.034451 
L 254.034239 254.378041 
L 256.222921 262.946129 
L 256.952482 264.209746 
L 257.682043 265.952201 
L 258.411604 266.242064 
L 259.141164 266.21119 
L 259.870725 265.879645 
L 260.600286 265.862774 
L 261.329847 264.596145 
L 262.059408 263.029933 
L 262.788968 261.080065 
L 263.518529 259.767527 
L 264.977651 257.435396 
L 265.707211 257.016971 
L 266.436772 257.653592 
L 267.166333 258.09771 
L 267.895894 259.228247 
L 268.625455 258.796788 
L 271.543698 256.475267 
L 273.002819 255.962687 
L 273.73238 256.137328 
L 275.191502 256.676099 
L 275.921062 256.516278 
L 276.650623 256.072256 
L 277.380184 256.21168 
L 278.109745 256.12659 
L 278.839305 255.269492 
L 279.568866 254.079389 
L 281.757549 249.250159 
L 282.487109 248.352848 
L 283.946231 247.056925 
L 285.405352 247.224679 
L 286.134913 246.888682 
L 286.864474 245.971583 
L 287.594035 244.845029 
L 289.053156 238.234312 
L 290.512278 234.08914 
L 291.241839 232.999996 
L 291.971399 232.300201 
L 292.70096 230.259545 
L 293.430521 230.038721 
L 294.889642 229.176922 
L 295.619203 228.442687 
L 296.348764 228.26493 
L 297.078325 229.018235 
L 298.537446 227.962452 
L 299.267007 223.477925 
L 299.996568 220.328239 
L 300.726129 220.519386 
L 301.455689 219.083448 
L 302.18525 218.830101 
L 302.914811 219.09989 
L 303.644372 218.511846 
L 304.373933 216.644016 
L 305.103493 215.519001 
L 305.833054 215.855045 
L 306.562615 216.883006 
L 307.292176 215.8182 
L 308.021736 212.505459 
L 308.751297 210.052667 
L 309.480858 208.542955 
L 310.210419 205.255517 
L 310.93998 203.170136 
L 311.66954 202.953578 
L 312.399101 203.495262 
L 313.128662 202.119083 
L 313.858223 202.969624 
L 315.317344 214.179659 
L 316.046905 216.980986 
L 316.776466 218.200712 
L 317.506027 214.955009 
L 318.235587 215.644212 
L 318.965148 215.308445 
L 319.694709 214.804906 
L 320.42427 217.277982 
L 321.15383 218.109244 
L 321.883391 218.473664 
L 322.612952 219.780321 
L 323.342513 223.828487 
L 324.072074 226.640227 
L 325.531195 233.684673 
L 326.260756 234.400226 
L 327.719877 233.761206 
L 328.449438 233.214739 
L 329.178999 227.212925 
L 330.638121 210.846618 
L 331.367681 203.315027 
L 332.097242 199.141964 
L 332.826803 198.759683 
L 333.556364 195.738748 
L 334.285924 195.832736 
L 335.015485 195.044033 
L 335.745046 192.115946 
L 336.474607 185.226491 
L 337.204168 181.217687 
L 337.933728 176.487357 
L 338.663289 172.714523 
L 339.39285 166.013053 
L 340.122411 161.553188 
L 340.851971 157.785984 
L 342.311093 137.879459 
L 343.040654 134.868735 
L 343.770215 127.714862 
L 344.499775 115.033534 
L 345.958897 84.022516 
L 346.688458 75.724231 
L 347.418018 77.468842 
L 348.147579 89.173211 
L 348.87714 104.504874 
L 349.606701 108.106557 
L 350.336261 107.216796 
L 351.065822 115.418902 
L 352.524944 135.757353 
L 353.254505 142.52 
L 354.713626 160.648264 
L 355.443187 183.283245 
L 357.631869 217.896044 
L 358.36143 226.234017 
L 359.090991 232.282772 
L 359.820552 243.656615 
L 360.550112 243.551697 
L 361.279673 241.015925 
L 362.009234 238.995444 
L 362.738795 241.229803 
L 363.468355 241.864906 
L 364.197916 236.448497 
L 364.927477 225.826563 
L 365.657038 219.965089 
L 367.116159 202.825272 
L 367.84572 197.674857 
L 368.575281 171.177779 
L 369.304842 151.161946 
L 370.034402 141.67774 
L 370.763963 125.922203 
L 371.493524 116.85274 
L 372.223085 111.91838 
L 372.952646 105.336737 
L 373.682206 104.009368 
L 374.411767 100.862449 
L 375.141328 91.170024 
L 375.870889 87.12384 
L 376.600449 72.587523 
L 378.059571 53.568 
L 378.789132 58.33651 
L 379.518693 80.218772 
L 380.248253 96.802683 
L 381.707375 141.380768 
L 383.166496 178.772705 
L 383.896057 180.91147 
L 384.625618 186.829395 
L 385.355179 186.377984 
L 386.08474 193.072586 
L 387.543861 201.726278 
L 388.273422 199.039579 
L 389.002983 193.26933 
L 391.191665 156.830513 
L 391.921226 148.951081 
L 392.650787 131.98763 
L 393.380347 126.780905 
L 394.109908 134.34175 
L 394.839469 137.758295 
L 395.56903 135.725966 
L 396.29859 139.333392 
L 397.028151 142.153183 
L 397.757712 145.487107 
L 398.487273 151.614116 
L 398.487273 151.614116 
" style="fill:none;stroke:#0000ff;stroke-linecap:square;stroke-width:1.5;"/>
   </g>
   <g id="line2d_18">
    <path clip-path="url(#pc6176a5045)" d="M 73.832727 254.185577 
L 74.562288 254.324019 
L 76.02141 254.186835 
L 76.75097 254.008606 
L 77.480531 253.55614 
L 79.669213 250.897275 
L 81.128335 249.089382 
L 83.317017 246.51553 
L 85.5057 243.222626 
L 86.23526 242.234513 
L 86.964821 241.50021 
L 87.694382 241.033448 
L 88.423943 240.730054 
L 89.153504 240.61626 
L 89.883064 240.822247 
L 90.612625 241.221267 
L 92.071747 242.354321 
L 92.801307 242.685729 
L 93.530868 242.592817 
L 94.260429 242.327974 
L 96.449111 241.028533 
L 97.178672 240.743912 
L 97.908233 240.599931 
L 98.637794 240.653577 
L 99.367354 240.591832 
L 100.826476 240.154046 
L 101.556037 239.846425 
L 102.285598 239.393311 
L 103.744719 238.690867 
L 105.203841 237.859497 
L 105.933401 237.530416 
L 106.662962 237.557809 
L 107.392523 237.830952 
L 109.581205 239.712217 
L 113.95857 245.537921 
L 115.417692 248.729271 
L 118.335935 255.695703 
L 119.795056 258.023762 
L 120.524617 258.708125 
L 121.983739 259.314742 
L 122.713299 260.020541 
L 124.172421 262.160697 
L 124.901982 263.282343 
L 125.631542 266.165021 
L 127.090664 273.275513 
L 128.549785 280.396082 
L 129.279346 283.396396 
L 130.008907 285.814717 
L 130.738468 287.200398 
L 131.468029 287.774881 
L 132.197589 287.739735 
L 132.92715 287.488223 
L 133.656711 286.617814 
L 134.386272 285.164115 
L 135.845393 281.450218 
L 137.304515 277.711327 
L 138.763636 274.996295 
L 140.222758 272.088214 
L 145.329683 260.500519 
L 146.059244 258.841862 
L 146.788805 257.576416 
L 148.247926 255.841189 
L 148.977487 255.322772 
L 149.707048 254.951879 
L 151.16617 254.55932 
L 152.625291 253.90623 
L 153.354852 253.520414 
L 154.084413 253.318236 
L 155.543534 253.145829 
L 157.002656 252.193197 
L 159.920899 249.504807 
L 160.65046 248.532358 
L 162.109581 245.603728 
L 163.568703 242.420309 
L 165.027824 239.852294 
L 166.486946 237.407941 
L 167.946067 234.547764 
L 168.675628 234.129502 
L 169.405189 234.141684 
L 170.864311 234.995045 
L 172.323432 235.312429 
L 173.052993 235.446743 
L 175.971236 235.512357 
L 176.700797 235.880525 
L 177.430358 236.573635 
L 178.889479 238.471607 
L 181.807722 243.776969 
L 182.537283 244.622361 
L 183.266844 245.177117 
L 183.996404 245.544616 
L 184.725965 245.783093 
L 186.185087 245.50902 
L 187.644208 245.484782 
L 189.10333 245.583761 
L 190.562451 245.845217 
L 192.021573 246.151903 
L 192.751134 246.483311 
L 194.210255 247.528657 
L 195.669377 248.985758 
L 199.317181 251.808506 
L 200.046742 252.200942 
L 202.235424 252.828921 
L 203.694545 253.664474 
L 205.883228 255.212199 
L 207.342349 255.877278 
L 209.531032 256.601858 
L 210.260592 256.706526 
L 211.719714 256.58933 
L 213.178836 256.204508 
L 216.826639 255.387353 
L 219.015322 255.417161 
L 221.204004 255.425796 
L 221.933565 255.285391 
L 223.392686 254.576981 
L 224.851808 253.506777 
L 225.581369 252.5405 
L 226.31093 250.969504 
L 230.688294 239.946132 
L 231.417855 238.651571 
L 234.336098 234.660124 
L 235.79522 233.443804 
L 236.52478 233.014191 
L 237.254341 233.069125 
L 240.172584 234.248698 
L 240.902145 234.617764 
L 241.631706 234.766543 
L 242.361267 235.063264 
L 243.090827 235.532363 
L 244.549949 237.149124 
L 246.738631 240.211278 
L 249.656874 244.896254 
L 251.115996 246.464173 
L 253.304678 247.76324 
L 254.034239 249.0862 
L 254.7638 250.735116 
L 257.682043 258.5089 
L 258.411604 260.055533 
L 259.141164 261.286664 
L 259.870725 262.20526 
L 260.600286 262.936763 
L 261.329847 263.268639 
L 262.059408 263.220898 
L 262.788968 262.792732 
L 264.24809 261.487207 
L 265.707211 259.94487 
L 266.436772 259.486614 
L 267.166333 259.208834 
L 268.625455 259.129531 
L 270.084576 258.702677 
L 271.543698 258.02107 
L 273.002819 257.311886 
L 274.461941 256.948127 
L 275.921062 256.818233 
L 277.380184 256.577566 
L 278.109745 256.487371 
L 278.839305 256.243795 
L 279.568866 255.810914 
L 280.298427 255.131344 
L 281.757549 253.279055 
L 283.21667 251.379289 
L 283.946231 250.514816 
L 285.405352 249.323565 
L 286.864474 248.263587 
L 287.594035 247.579876 
L 288.323596 246.335539 
L 290.512278 241.213923 
L 292.70096 236.545469 
L 294.160082 234.111604 
L 295.619203 232.188272 
L 296.348764 231.403603 
L 298.537446 229.942429 
L 299.267007 228.649528 
L 299.996568 226.98527 
L 302.18525 223.262312 
L 304.373933 220.645788 
L 305.103493 219.620431 
L 305.833054 218.867354 
L 306.562615 218.470484 
L 307.292176 217.940027 
L 308.021736 216.853114 
L 309.480858 214.10301 
L 311.66954 208.991385 
L 313.128662 206.737545 
L 313.858223 205.983961 
L 314.587783 206.57139 
L 316.046905 209.870632 
L 316.776466 211.536648 
L 318.235587 212.905099 
L 318.965148 213.385768 
L 319.694709 213.669596 
L 322.612952 216.598165 
L 323.342513 218.04423 
L 324.072074 219.763429 
L 326.990317 227.808568 
L 327.719877 228.999096 
L 328.449438 229.842225 
L 329.178999 229.316365 
L 329.90856 227.124383 
L 330.638121 223.86883 
L 332.097242 215.634848 
L 333.556364 208.955602 
L 335.015485 204.07363 
L 335.745046 201.682093 
L 337.204168 194.956316 
L 338.663289 187.552924 
L 340.851971 174.682475 
L 342.311093 162.951938 
L 343.770215 151.411211 
L 344.499775 144.135675 
L 345.958897 124.82788 
L 346.688458 115.00715 
L 347.418018 107.499489 
L 348.147579 103.834233 
L 348.87714 103.968361 
L 349.606701 104.796 
L 350.336261 105.28016 
L 351.065822 107.307908 
L 351.795383 110.983647 
L 353.254505 121.254711 
L 354.713626 133.942484 
L 356.902308 164.855454 
L 358.36143 185.617661 
L 360.550112 212.463835 
L 361.279673 218.174253 
L 362.738795 226.116754 
L 363.468355 229.266384 
L 364.197916 230.702807 
L 364.927477 229.727558 
L 365.657038 227.775064 
L 366.386599 224.566236 
L 367.84572 215.709406 
L 368.575281 206.803081 
L 372.223085 151.854377 
L 372.952646 142.550849 
L 374.411767 128.046532 
L 376.600449 105.686906 
L 378.059571 88.488178 
L 378.789132 82.457845 
L 379.518693 82.01003 
L 380.248253 84.968561 
L 380.977814 91.897263 
L 381.707375 101.793964 
L 384.625618 147.288763 
L 386.8143 169.708948 
L 387.543861 176.112414 
L 388.273422 180.697847 
L 389.002983 183.212143 
L 389.732543 182.909077 
L 390.462104 180.434002 
L 391.921226 170.36086 
L 393.380347 155.505152 
L 394.109908 151.272471 
L 395.56903 146.000902 
L 396.29859 144.6674 
L 397.028151 144.164557 
L 397.757712 144.429067 
L 398.487273 145.866077 
L 398.487273 145.866077 
" style="fill:none;stroke:#ff6347;stroke-linecap:square;stroke-width:1.5;"/>
   </g>
   <g id="patch_3">
    <path d="M 57.6 307.584 
L 57.6 41.472 
" style="fill:none;stroke:#000000;stroke-linecap:square;stroke-linejoin:miter;stroke-width:0.8;"/>
   </g>
   <g id="patch_4">
    <path d="M 414.72 307.584 
L 414.72 41.472 
" style="fill:none;stroke:#000000;stroke-linecap:square;stroke-linejoin:miter;stroke-width:0.8;"/>
   </g>
   <g id="patch_5">
    <path d="M 57.6 307.584 
L 414.72 307.584 
" style="fill:none;stroke:#000000;stroke-linecap:square;stroke-linejoin:miter;stroke-width:0.8;"/>
   </g>
   <g id="patch_6">
    <path d="M 57.6 41.472 
L 414.72 41.472 
" style="fill:none;stroke:#000000;stroke-linecap:square;stroke-linejoin:miter;stroke-width:0.8;"/>
   </g>
   <g id="text_16">
    <!-- Data source: coindesk -->
    <g transform="translate(180.640469 35.472)scale(0.1 -0.1)">
     <defs>
      <path d="M 19.671875 64.796875 
L 19.671875 8.109375 
L 31.59375 8.109375 
Q 46.6875 8.109375 53.6875 14.9375 
Q 60.6875 21.78125 60.6875 36.53125 
Q 60.6875 51.171875 53.6875 57.984375 
Q 46.6875 64.796875 31.59375 64.796875 
z
M 9.8125 72.90625 
L 30.078125 72.90625 
Q 51.265625 72.90625 61.171875 64.09375 
Q 71.09375 55.28125 71.09375 36.53125 
Q 71.09375 17.671875 61.125 8.828125 
Q 51.171875 0 30.078125 0 
L 9.8125 0 
z
" id="DejaVuSans-68"/>
      <path d="M 34.28125 27.484375 
Q 23.390625 27.484375 19.1875 25 
Q 14.984375 22.515625 14.984375 16.5 
Q 14.984375 11.71875 18.140625 8.90625 
Q 21.296875 6.109375 26.703125 6.109375 
Q 34.1875 6.109375 38.703125 11.40625 
Q 43.21875 16.703125 43.21875 25.484375 
L 43.21875 27.484375 
z
M 52.203125 31.203125 
L 52.203125 0 
L 43.21875 0 
L 43.21875 8.296875 
Q 40.140625 3.328125 35.546875 0.953125 
Q 30.953125 -1.421875 24.3125 -1.421875 
Q 15.921875 -1.421875 10.953125 3.296875 
Q 6 8.015625 6 15.921875 
Q 6 25.140625 12.171875 29.828125 
Q 18.359375 34.515625 30.609375 34.515625 
L 43.21875 34.515625 
L 43.21875 35.40625 
Q 43.21875 41.609375 39.140625 45 
Q 35.0625 48.390625 27.6875 48.390625 
Q 23 48.390625 18.546875 47.265625 
Q 14.109375 46.140625 10.015625 43.890625 
L 10.015625 52.203125 
Q 14.9375 54.109375 19.578125 55.046875 
Q 24.21875 56 28.609375 56 
Q 40.484375 56 46.34375 49.84375 
Q 52.203125 43.703125 52.203125 31.203125 
z
" id="DejaVuSans-97"/>
      <path d="M 18.3125 70.21875 
L 18.3125 54.6875 
L 36.8125 54.6875 
L 36.8125 47.703125 
L 18.3125 47.703125 
L 18.3125 18.015625 
Q 18.3125 11.328125 20.140625 9.421875 
Q 21.96875 7.515625 27.59375 7.515625 
L 36.8125 7.515625 
L 36.8125 0 
L 27.59375 0 
Q 17.1875 0 13.234375 3.875 
Q 9.28125 7.765625 9.28125 18.015625 
L 9.28125 47.703125 
L 2.6875 47.703125 
L 2.6875 54.6875 
L 9.28125 54.6875 
L 9.28125 70.21875 
z
" id="DejaVuSans-116"/>
      <path id="DejaVuSans-32"/>
      <path d="M 44.28125 53.078125 
L 44.28125 44.578125 
Q 40.484375 46.53125 36.375 47.5 
Q 32.28125 48.484375 27.875 48.484375 
Q 21.1875 48.484375 17.84375 46.4375 
Q 14.5 44.390625 14.5 40.28125 
Q 14.5 37.15625 16.890625 35.375 
Q 19.28125 33.59375 26.515625 31.984375 
L 29.59375 31.296875 
Q 39.15625 29.25 43.1875 25.515625 
Q 47.21875 21.78125 47.21875 15.09375 
Q 47.21875 7.46875 41.1875 3.015625 
Q 35.15625 -1.421875 24.609375 -1.421875 
Q 20.21875 -1.421875 15.453125 -0.5625 
Q 10.6875 0.296875 5.421875 2 
L 5.421875 11.28125 
Q 10.40625 8.6875 15.234375 7.390625 
Q 20.0625 6.109375 24.8125 6.109375 
Q 31.15625 6.109375 34.5625 8.28125 
Q 37.984375 10.453125 37.984375 14.40625 
Q 37.984375 18.0625 35.515625 20.015625 
Q 33.0625 21.96875 24.703125 23.78125 
L 21.578125 24.515625 
Q 13.234375 26.265625 9.515625 29.90625 
Q 5.8125 33.546875 5.8125 39.890625 
Q 5.8125 47.609375 11.28125 51.796875 
Q 16.75 56 26.8125 56 
Q 31.78125 56 36.171875 55.265625 
Q 40.578125 54.546875 44.28125 53.078125 
z
" id="DejaVuSans-115"/>
      <path d="M 30.609375 48.390625 
Q 23.390625 48.390625 19.1875 42.75 
Q 14.984375 37.109375 14.984375 27.296875 
Q 14.984375 17.484375 19.15625 11.84375 
Q 23.34375 6.203125 30.609375 6.203125 
Q 37.796875 6.203125 41.984375 11.859375 
Q 46.1875 17.53125 46.1875 27.296875 
Q 46.1875 37.015625 41.984375 42.703125 
Q 37.796875 48.390625 30.609375 48.390625 
z
M 30.609375 56 
Q 42.328125 56 49.015625 48.375 
Q 55.71875 40.765625 55.71875 27.296875 
Q 55.71875 13.875 49.015625 6.21875 
Q 42.328125 -1.421875 30.609375 -1.421875 
Q 18.84375 -1.421875 12.171875 6.21875 
Q 5.515625 13.875 5.515625 27.296875 
Q 5.515625 40.765625 12.171875 48.375 
Q 18.84375 56 30.609375 56 
z
" id="DejaVuSans-111"/>
      <path d="M 8.5 21.578125 
L 8.5 54.6875 
L 17.484375 54.6875 
L 17.484375 21.921875 
Q 17.484375 14.15625 20.5 10.265625 
Q 23.53125 6.390625 29.59375 6.390625 
Q 36.859375 6.390625 41.078125 11.03125 
Q 45.3125 15.671875 45.3125 23.6875 
L 45.3125 54.6875 
L 54.296875 54.6875 
L 54.296875 0 
L 45.3125 0 
L 45.3125 8.40625 
Q 42.046875 3.421875 37.71875 1 
Q 33.40625 -1.421875 27.6875 -1.421875 
Q 18.265625 -1.421875 13.375 4.4375 
Q 8.5 10.296875 8.5 21.578125 
z
M 31.109375 56 
z
" id="DejaVuSans-117"/>
      <path d="M 41.109375 46.296875 
Q 39.59375 47.171875 37.8125 47.578125 
Q 36.03125 48 33.890625 48 
Q 26.265625 48 22.1875 43.046875 
Q 18.109375 38.09375 18.109375 28.8125 
L 18.109375 0 
L 9.078125 0 
L 9.078125 54.6875 
L 18.109375 54.6875 
L 18.109375 46.1875 
Q 20.953125 51.171875 25.484375 53.578125 
Q 30.03125 56 36.53125 56 
Q 37.453125 56 38.578125 55.875 
Q 39.703125 55.765625 41.0625 55.515625 
z
" id="DejaVuSans-114"/>
      <path d="M 48.78125 52.59375 
L 48.78125 44.1875 
Q 44.96875 46.296875 41.140625 47.34375 
Q 37.3125 48.390625 33.40625 48.390625 
Q 24.65625 48.390625 19.8125 42.84375 
Q 14.984375 37.3125 14.984375 27.296875 
Q 14.984375 17.28125 19.8125 11.734375 
Q 24.65625 6.203125 33.40625 6.203125 
Q 37.3125 6.203125 41.140625 7.25 
Q 44.96875 8.296875 48.78125 10.40625 
L 48.78125 2.09375 
Q 45.015625 0.34375 40.984375 -0.53125 
Q 36.96875 -1.421875 32.421875 -1.421875 
Q 20.0625 -1.421875 12.78125 6.34375 
Q 5.515625 14.109375 5.515625 27.296875 
Q 5.515625 40.671875 12.859375 48.328125 
Q 20.21875 56 33.015625 56 
Q 37.15625 56 41.109375 55.140625 
Q 45.0625 54.296875 48.78125 52.59375 
z
" id="DejaVuSans-99"/>
      <path d="M 56.203125 29.59375 
L 56.203125 25.203125 
L 14.890625 25.203125 
Q 15.484375 15.921875 20.484375 11.0625 
Q 25.484375 6.203125 34.421875 6.203125 
Q 39.59375 6.203125 44.453125 7.46875 
Q 49.3125 8.734375 54.109375 11.28125 
L 54.109375 2.78125 
Q 49.265625 0.734375 44.1875 -0.34375 
Q 39.109375 -1.421875 33.890625 -1.421875 
Q 20.796875 -1.421875 13.15625 6.1875 
Q 5.515625 13.8125 5.515625 26.8125 
Q 5.515625 40.234375 12.765625 48.109375 
Q 20.015625 56 32.328125 56 
Q 43.359375 56 49.78125 48.890625 
Q 56.203125 41.796875 56.203125 29.59375 
z
M 47.21875 32.234375 
Q 47.125 39.59375 43.09375 43.984375 
Q 39.0625 48.390625 32.421875 48.390625 
Q 24.90625 48.390625 20.390625 44.140625 
Q 15.875 39.890625 15.1875 32.171875 
z
" id="DejaVuSans-101"/>
      <path d="M 11.71875 12.40625 
L 22.015625 12.40625 
L 22.015625 0 
L 11.71875 0 
z
M 11.71875 51.703125 
L 22.015625 51.703125 
L 22.015625 39.3125 
L 11.71875 39.3125 
z
" id="DejaVuSans-58"/>
      <path d="M 9.421875 54.6875 
L 18.40625 54.6875 
L 18.40625 0 
L 9.421875 0 
z
M 9.421875 75.984375 
L 18.40625 75.984375 
L 18.40625 64.59375 
L 9.421875 64.59375 
z
" id="DejaVuSans-105"/>
      <path d="M 54.890625 33.015625 
L 54.890625 0 
L 45.90625 0 
L 45.90625 32.71875 
Q 45.90625 40.484375 42.875 44.328125 
Q 39.84375 48.1875 33.796875 48.1875 
Q 26.515625 48.1875 22.3125 43.546875 
Q 18.109375 38.921875 18.109375 30.90625 
L 18.109375 0 
L 9.078125 0 
L 9.078125 54.6875 
L 18.109375 54.6875 
L 18.109375 46.1875 
Q 21.34375 51.125 25.703125 53.5625 
Q 30.078125 56 35.796875 56 
Q 45.21875 56 50.046875 50.171875 
Q 54.890625 44.34375 54.890625 33.015625 
z
" id="DejaVuSans-110"/>
      <path d="M 45.40625 46.390625 
L 45.40625 75.984375 
L 54.390625 75.984375 
L 54.390625 0 
L 45.40625 0 
L 45.40625 8.203125 
Q 42.578125 3.328125 38.25 0.953125 
Q 33.9375 -1.421875 27.875 -1.421875 
Q 17.96875 -1.421875 11.734375 6.484375 
Q 5.515625 14.40625 5.515625 27.296875 
Q 5.515625 40.1875 11.734375 48.09375 
Q 17.96875 56 27.875 56 
Q 33.9375 56 38.25 53.625 
Q 42.578125 51.265625 45.40625 46.390625 
z
M 14.796875 27.296875 
Q 14.796875 17.390625 18.875 11.75 
Q 22.953125 6.109375 30.078125 6.109375 
Q 37.203125 6.109375 41.296875 11.75 
Q 45.40625 17.390625 45.40625 27.296875 
Q 45.40625 37.203125 41.296875 42.84375 
Q 37.203125 48.484375 30.078125 48.484375 
Q 22.953125 48.484375 18.875 42.84375 
Q 14.796875 37.203125 14.796875 27.296875 
z
" id="DejaVuSans-100"/>
      <path d="M 9.078125 75.984375 
L 18.109375 75.984375 
L 18.109375 31.109375 
L 44.921875 54.6875 
L 56.390625 54.6875 
L 27.390625 29.109375 
L 57.625 0 
L 45.90625 0 
L 18.109375 26.703125 
L 18.109375 0 
L 9.078125 0 
z
" id="DejaVuSans-107"/>
     </defs>
     <use xlink:href="#DejaVuSans-68"/>
     <use x="77.001953" xlink:href="#DejaVuSans-97"/>
     <use x="138.28125" xlink:href="#DejaVuSans-116"/>
     <use x="177.490234" xlink:href="#DejaVuSans-97"/>
     <use x="238.769531" xlink:href="#DejaVuSans-32"/>
     <use x="270.556641" xlink:href="#DejaVuSans-115"/>
     <use x="322.65625" xlink:href="#DejaVuSans-111"/>
     <use x="383.837891" xlink:href="#DejaVuSans-117"/>
     <use x="447.216797" xlink:href="#DejaVuSans-114"/>
     <use x="486.080078" xlink:href="#DejaVuSans-99"/>
     <use x="541.060547" xlink:href="#DejaVuSans-101"/>
     <use x="602.583984" xlink:href="#DejaVuSans-58"/>
     <use x="636.275391" xlink:href="#DejaVuSans-32"/>
     <use x="668.0625" xlink:href="#DejaVuSans-99"/>
     <use x="723.042969" xlink:href="#DejaVuSans-111"/>
     <use x="784.224609" xlink:href="#DejaVuSans-105"/>
     <use x="812.007812" xlink:href="#DejaVuSans-110"/>
     <use x="875.386719" xlink:href="#DejaVuSans-100"/>
     <use x="938.863281" xlink:href="#DejaVuSans-101"/>
     <use x="1000.386719" xlink:href="#DejaVuSans-115"/>
     <use x="1052.486328" xlink:href="#DejaVuSans-107"/>
    </g>
   </g>
   <g id="legend_1">
    <g id="patch_7">
     <path d="M 64.6 78.82825 
L 127.31875 78.82825 
Q 129.31875 78.82825 129.31875 76.82825 
L 129.31875 48.472 
Q 129.31875 46.472 127.31875 46.472 
L 64.6 46.472 
Q 62.6 46.472 62.6 48.472 
L 62.6 76.82825 
Q 62.6 78.82825 64.6 78.82825 
z
" style="fill:#ffffff;opacity:0.8;stroke:#cccccc;stroke-linejoin:miter;"/>
    </g>
    <g id="line2d_19">
     <path d="M 66.6 54.570437 
L 86.6 54.570437 
" style="fill:none;stroke:#0000ff;stroke-linecap:square;stroke-width:1.5;"/>
    </g>
    <g id="line2d_20"/>
    <g id="text_17">
     <!-- MACD -->
     <g transform="translate(94.6 58.070437)scale(0.1 -0.1)">
      <defs>
       <path d="M 9.8125 72.90625 
L 24.515625 72.90625 
L 43.109375 23.296875 
L 61.8125 72.90625 
L 76.515625 72.90625 
L 76.515625 0 
L 66.890625 0 
L 66.890625 64.015625 
L 48.09375 14.015625 
L 38.1875 14.015625 
L 19.390625 64.015625 
L 19.390625 0 
L 9.8125 0 
z
" id="DejaVuSans-77"/>
       <path d="M 34.1875 63.1875 
L 20.796875 26.90625 
L 47.609375 26.90625 
z
M 28.609375 72.90625 
L 39.796875 72.90625 
L 67.578125 0 
L 57.328125 0 
L 50.6875 18.703125 
L 17.828125 18.703125 
L 11.1875 0 
L 0.78125 0 
z
" id="DejaVuSans-65"/>
       <path d="M 64.40625 67.28125 
L 64.40625 56.890625 
Q 59.421875 61.53125 53.78125 63.8125 
Q 48.140625 66.109375 41.796875 66.109375 
Q 29.296875 66.109375 22.65625 58.46875 
Q 16.015625 50.828125 16.015625 36.375 
Q 16.015625 21.96875 22.65625 14.328125 
Q 29.296875 6.6875 41.796875 6.6875 
Q 48.140625 6.6875 53.78125 8.984375 
Q 59.421875 11.28125 64.40625 15.921875 
L 64.40625 5.609375 
Q 59.234375 2.09375 53.4375 0.328125 
Q 47.65625 -1.421875 41.21875 -1.421875 
Q 24.65625 -1.421875 15.125 8.703125 
Q 5.609375 18.84375 5.609375 36.375 
Q 5.609375 53.953125 15.125 64.078125 
Q 24.65625 74.21875 41.21875 74.21875 
Q 47.75 74.21875 53.53125 72.484375 
Q 59.328125 70.75 64.40625 67.28125 
z
" id="DejaVuSans-67"/>
      </defs>
      <use xlink:href="#DejaVuSans-77"/>
      <use x="86.279297" xlink:href="#DejaVuSans-65"/>
      <use x="152.9375" xlink:href="#DejaVuSans-67"/>
      <use x="222.761719" xlink:href="#DejaVuSans-68"/>
     </g>
    </g>
    <g id="line2d_21">
     <path d="M 66.6 69.248562 
L 86.6 69.248562 
" style="fill:none;stroke:#ff6347;stroke-linecap:square;stroke-width:1.5;"/>
    </g>
    <g id="line2d_22"/>
    <g id="text_18">
     <!-- Signal -->
     <g transform="translate(94.6 72.748562)scale(0.1 -0.1)">
      <defs>
       <path d="M 53.515625 70.515625 
L 53.515625 60.890625 
Q 47.90625 63.578125 42.921875 64.890625 
Q 37.9375 66.21875 33.296875 66.21875 
Q 25.25 66.21875 20.875 63.09375 
Q 16.5 59.96875 16.5 54.203125 
Q 16.5 49.359375 19.40625 46.890625 
Q 22.3125 44.4375 30.421875 42.921875 
L 36.375 41.703125 
Q 47.40625 39.59375 52.65625 34.296875 
Q 57.90625 29 57.90625 20.125 
Q 57.90625 9.515625 50.796875 4.046875 
Q 43.703125 -1.421875 29.984375 -1.421875 
Q 24.8125 -1.421875 18.96875 -0.25 
Q 13.140625 0.921875 6.890625 3.21875 
L 6.890625 13.375 
Q 12.890625 10.015625 18.65625 8.296875 
Q 24.421875 6.59375 29.984375 6.59375 
Q 38.421875 6.59375 43.015625 9.90625 
Q 47.609375 13.234375 47.609375 19.390625 
Q 47.609375 24.75 44.3125 27.78125 
Q 41.015625 30.8125 33.5 32.328125 
L 27.484375 33.5 
Q 16.453125 35.6875 11.515625 40.375 
Q 6.59375 45.0625 6.59375 53.421875 
Q 6.59375 63.09375 13.40625 68.65625 
Q 20.21875 74.21875 32.171875 74.21875 
Q 37.3125 74.21875 42.625 73.28125 
Q 47.953125 72.359375 53.515625 70.515625 
z
" id="DejaVuSans-83"/>
       <path d="M 45.40625 27.984375 
Q 45.40625 37.75 41.375 43.109375 
Q 37.359375 48.484375 30.078125 48.484375 
Q 22.859375 48.484375 18.828125 43.109375 
Q 14.796875 37.75 14.796875 27.984375 
Q 14.796875 18.265625 18.828125 12.890625 
Q 22.859375 7.515625 30.078125 7.515625 
Q 37.359375 7.515625 41.375 12.890625 
Q 45.40625 18.265625 45.40625 27.984375 
z
M 54.390625 6.78125 
Q 54.390625 -7.171875 48.1875 -13.984375 
Q 42 -20.796875 29.203125 -20.796875 
Q 24.46875 -20.796875 20.265625 -20.09375 
Q 16.0625 -19.390625 12.109375 -17.921875 
L 12.109375 -9.1875 
Q 16.0625 -11.328125 19.921875 -12.34375 
Q 23.78125 -13.375 27.78125 -13.375 
Q 36.625 -13.375 41.015625 -8.765625 
Q 45.40625 -4.15625 45.40625 5.171875 
L 45.40625 9.625 
Q 42.625 4.78125 38.28125 2.390625 
Q 33.9375 0 27.875 0 
Q 17.828125 0 11.671875 7.65625 
Q 5.515625 15.328125 5.515625 27.984375 
Q 5.515625 40.671875 11.671875 48.328125 
Q 17.828125 56 27.875 56 
Q 33.9375 56 38.28125 53.609375 
Q 42.625 51.21875 45.40625 46.390625 
L 45.40625 54.6875 
L 54.390625 54.6875 
z
" id="DejaVuSans-103"/>
       <path d="M 9.421875 75.984375 
L 18.40625 75.984375 
L 18.40625 0 
L 9.421875 0 
z
" id="DejaVuSans-108"/>
      </defs>
      <use xlink:href="#DejaVuSans-83"/>
      <use x="63.476562" xlink:href="#DejaVuSans-105"/>
      <use x="91.259766" xlink:href="#DejaVuSans-103"/>
      <use x="154.736328" xlink:href="#DejaVuSans-110"/>
      <use x="218.115234" xlink:href="#DejaVuSans-97"/>
      <use x="279.394531" xlink:href="#DejaVuSans-108"/>
     </g>
    </g>
   </g>
  </g>
  <g id="text_19">
   <!-- MACD -->
   <g transform="translate(206.41875 19.0695)scale(0.16 -0.16)">
    <use xlink:href="#DejaVuSans-77"/>
    <use x="86.279297" xlink:href="#DejaVuSans-65"/>
    <use x="152.9375" xlink:href="#DejaVuSans-67"/>
    <use x="222.761719" xlink:href="#DejaVuSans-68"/>
   </g>
  </g>
 </g>
 <defs>
  <clipPath id="pc6176a5045">
   <rect height="266.112" width="357.12" x="57.6" y="41.472"/>
  </clipPath>
 </defs>
</svg>
