<?xml version="1.0" encoding="utf-8" standalone="no"?>
<!DOCTYPE svg PUBLIC "-//W3C//DTD SVG 1.1//EN"
  "http://www.w3.org/Graphics/SVG/1.1/DTD/svg11.dtd">
<!-- Created with matplotlib (https://matplotlib.org/) -->
<svg height="345.6pt" version="1.1" viewBox="0 0 460.8 345.6" width="460.8pt" xmlns="http://www.w3.org/2000/svg" xmlns:xlink="http://www.w3.org/1999/xlink">
 <metadata>
  <rdf:RDF xmlns:cc="http://creativecommons.org/ns#" xmlns:dc="http://purl.org/dc/elements/1.1/" xmlns:rdf="http://www.w3.org/1999/02/22-rdf-syntax-ns#">
   <cc:Work>
    <dc:type rdf:resource="http://purl.org/dc/dcmitype/StillImage"/>
    <dc:date>2021-03-09T19:00:09.815628</dc:date>
    <dc:format>image/svg+xml</dc:format>
    <dc:creator>
     <cc:Agent>
      <dc:title>Matplotlib v3.3.2, https://matplotlib.org/</dc:title>
     </cc:Agent>
    </dc:creator>
   </cc:Work>
  </rdf:RDF>
 </metadata>
 <defs>
  <style type="text/css">*{stroke-linecap:butt;stroke-linejoin:round;}</style>
 </defs>
 <g id="figure_1">
  <g id="patch_1">
   <path d="M 0 345.6 
L 460.8 345.6 
L 460.8 0 
L 0 0 
z
" style="fill:#ffffff;"/>
  </g>
  <g id="axes_1">
   <g id="patch_2">
    <path d="M 57.6 307.584 
L 414.72 307.584 
L 414.72 41.472 
L 57.6 41.472 
z
" style="fill:#ffffff;"/>
   </g>
   <g id="matplotlib.axis_1">
    <g id="xtick_1">
     <g id="line2d_1">
      <defs>
       <path d="M 0 0 
L 0 3.5 
" id="m3fe3319514" style="stroke:#000000;stroke-width:0.8;"/>
      </defs>
      <g>
       <use style="stroke:#000000;stroke-width:0.8;" x="73.832727" xlink:href="#m3fe3319514" y="307.584"/>
      </g>
     </g>
     <g id="text_1">
      <!-- 2020-01 -->
      <g transform="translate(52.941321 322.182437)scale(0.1 -0.1)">
       <defs>
        <path d="M 19.1875 8.296875 
L 53.609375 8.296875 
L 53.609375 0 
L 7.328125 0 
L 7.328125 8.296875 
Q 12.9375 14.109375 22.625 23.890625 
Q 32.328125 33.6875 34.8125 36.53125 
Q 39.546875 41.84375 41.421875 45.53125 
Q 43.3125 49.21875 43.3125 52.78125 
Q 43.3125 58.59375 39.234375 62.25 
Q 35.15625 65.921875 28.609375 65.921875 
Q 23.96875 65.921875 18.8125 64.3125 
Q 13.671875 62.703125 7.8125 59.421875 
L 7.8125 69.390625 
Q 13.765625 71.78125 18.9375 73 
Q 24.125 74.21875 28.421875 74.21875 
Q 39.75 74.21875 46.484375 68.546875 
Q 53.21875 62.890625 53.21875 53.421875 
Q 53.21875 48.921875 51.53125 44.890625 
Q 49.859375 40.875 45.40625 35.40625 
Q 44.1875 33.984375 37.640625 27.21875 
Q 31.109375 20.453125 19.1875 8.296875 
z
" id="DejaVuSans-50"/>
        <path d="M 31.78125 66.40625 
Q 24.171875 66.40625 20.328125 58.90625 
Q 16.5 51.421875 16.5 36.375 
Q 16.5 21.390625 20.328125 13.890625 
Q 24.171875 6.390625 31.78125 6.390625 
Q 39.453125 6.390625 43.28125 13.890625 
Q 47.125 21.390625 47.125 36.375 
Q 47.125 51.421875 43.28125 58.90625 
Q 39.453125 66.40625 31.78125 66.40625 
z
M 31.78125 74.21875 
Q 44.046875 74.21875 50.515625 64.515625 
Q 56.984375 54.828125 56.984375 36.375 
Q 56.984375 17.96875 50.515625 8.265625 
Q 44.046875 -1.421875 31.78125 -1.421875 
Q 19.53125 -1.421875 13.0625 8.265625 
Q 6.59375 17.96875 6.59375 36.375 
Q 6.59375 54.828125 13.0625 64.515625 
Q 19.53125 74.21875 31.78125 74.21875 
z
" id="DejaVuSans-48"/>
        <path d="M 4.890625 31.390625 
L 31.203125 31.390625 
L 31.203125 23.390625 
L 4.890625 23.390625 
z
" id="DejaVuSans-45"/>
        <path d="M 12.40625 8.296875 
L 28.515625 8.296875 
L 28.515625 63.921875 
L 10.984375 60.40625 
L 10.984375 69.390625 
L 28.421875 72.90625 
L 38.28125 72.90625 
L 38.28125 8.296875 
L 54.390625 8.296875 
L 54.390625 0 
L 12.40625 0 
z
" id="DejaVuSans-49"/>
       </defs>
       <use xlink:href="#DejaVuSans-50"/>
       <use x="63.623047" xlink:href="#DejaVuSans-48"/>
       <use x="127.246094" xlink:href="#DejaVuSans-50"/>
       <use x="190.869141" xlink:href="#DejaVuSans-48"/>
       <use x="254.492188" xlink:href="#DejaVuSans-45"/>
       <use x="290.576172" xlink:href="#DejaVuSans-48"/>
       <use x="354.199219" xlink:href="#DejaVuSans-49"/>
      </g>
     </g>
    </g>
    <g id="xtick_2">
     <g id="line2d_2">
      <g>
       <use style="stroke:#000000;stroke-width:0.8;" x="118.8195" xlink:href="#m3fe3319514" y="307.584"/>
      </g>
     </g>
     <g id="text_2">
      <!-- 2020-03 -->
      <g transform="translate(97.928094 322.182437)scale(0.1 -0.1)">
       <defs>
        <path d="M 40.578125 39.3125 
Q 47.65625 37.796875 51.625 33 
Q 55.609375 28.21875 55.609375 21.1875 
Q 55.609375 10.40625 48.1875 4.484375 
Q 40.765625 -1.421875 27.09375 -1.421875 
Q 22.515625 -1.421875 17.65625 -0.515625 
Q 12.796875 0.390625 7.625 2.203125 
L 7.625 11.71875 
Q 11.71875 9.328125 16.59375 8.109375 
Q 21.484375 6.890625 26.8125 6.890625 
Q 36.078125 6.890625 40.9375 10.546875 
Q 45.796875 14.203125 45.796875 21.1875 
Q 45.796875 27.640625 41.28125 31.265625 
Q 36.765625 34.90625 28.71875 34.90625 
L 20.21875 34.90625 
L 20.21875 43.015625 
L 29.109375 43.015625 
Q 36.375 43.015625 40.234375 45.921875 
Q 44.09375 48.828125 44.09375 54.296875 
Q 44.09375 59.90625 40.109375 62.90625 
Q 36.140625 65.921875 28.71875 65.921875 
Q 24.65625 65.921875 20.015625 65.03125 
Q 15.375 64.15625 9.8125 62.3125 
L 9.8125 71.09375 
Q 15.4375 72.65625 20.34375 73.4375 
Q 25.25 74.21875 29.59375 74.21875 
Q 40.828125 74.21875 47.359375 69.109375 
Q 53.90625 64.015625 53.90625 55.328125 
Q 53.90625 49.265625 50.4375 45.09375 
Q 46.96875 40.921875 40.578125 39.3125 
z
" id="DejaVuSans-51"/>
       </defs>
       <use xlink:href="#DejaVuSans-50"/>
       <use x="63.623047" xlink:href="#DejaVuSans-48"/>
       <use x="127.246094" xlink:href="#DejaVuSans-50"/>
       <use x="190.869141" xlink:href="#DejaVuSans-48"/>
       <use x="254.492188" xlink:href="#DejaVuSans-45"/>
       <use x="290.576172" xlink:href="#DejaVuSans-48"/>
       <use x="354.199219" xlink:href="#DejaVuSans-51"/>
      </g>
     </g>
    </g>
    <g id="xtick_3">
     <g id="line2d_3">
      <g>
       <use style="stroke:#000000;stroke-width:0.8;" x="164.556053" xlink:href="#m3fe3319514" y="307.584"/>
      </g>
     </g>
     <g id="text_3">
      <!-- 2020-05 -->
      <g transform="translate(143.664647 322.182437)scale(0.1 -0.1)">
       <defs>
        <path d="M 10.796875 72.90625 
L 49.515625 72.90625 
L 49.515625 64.59375 
L 19.828125 64.59375 
L 19.828125 46.734375 
Q 21.96875 47.46875 24.109375 47.828125 
Q 26.265625 48.1875 28.421875 48.1875 
Q 40.625 48.1875 47.75 41.5 
Q 54.890625 34.8125 54.890625 23.390625 
Q 54.890625 11.625 47.5625 5.09375 
Q 40.234375 -1.421875 26.90625 -1.421875 
Q 22.3125 -1.421875 17.546875 -0.640625 
Q 12.796875 0.140625 7.71875 1.703125 
L 7.71875 11.625 
Q 12.109375 9.234375 16.796875 8.0625 
Q 21.484375 6.890625 26.703125 6.890625 
Q 35.15625 6.890625 40.078125 11.328125 
Q 45.015625 15.765625 45.015625 23.390625 
Q 45.015625 31 40.078125 35.4375 
Q 35.15625 39.890625 26.703125 39.890625 
Q 22.75 39.890625 18.8125 39.015625 
Q 14.890625 38.140625 10.796875 36.28125 
z
" id="DejaVuSans-53"/>
       </defs>
       <use xlink:href="#DejaVuSans-50"/>
       <use x="63.623047" xlink:href="#DejaVuSans-48"/>
       <use x="127.246094" xlink:href="#DejaVuSans-50"/>
       <use x="190.869141" xlink:href="#DejaVuSans-48"/>
       <use x="254.492188" xlink:href="#DejaVuSans-45"/>
       <use x="290.576172" xlink:href="#DejaVuSans-48"/>
       <use x="354.199219" xlink:href="#DejaVuSans-53"/>
      </g>
     </g>
    </g>
    <g id="xtick_4">
     <g id="line2d_4">
      <g>
       <use style="stroke:#000000;stroke-width:0.8;" x="210.292606" xlink:href="#m3fe3319514" y="307.584"/>
      </g>
     </g>
     <g id="text_4">
      <!-- 2020-07 -->
      <g transform="translate(189.401199 322.182437)scale(0.1 -0.1)">
       <defs>
        <path d="M 8.203125 72.90625 
L 55.078125 72.90625 
L 55.078125 68.703125 
L 28.609375 0 
L 18.3125 0 
L 43.21875 64.59375 
L 8.203125 64.59375 
z
" id="DejaVuSans-55"/>
       </defs>
       <use xlink:href="#DejaVuSans-50"/>
       <use x="63.623047" xlink:href="#DejaVuSans-48"/>
       <use x="127.246094" xlink:href="#DejaVuSans-50"/>
       <use x="190.869141" xlink:href="#DejaVuSans-48"/>
       <use x="254.492188" xlink:href="#DejaVuSans-45"/>
       <use x="290.576172" xlink:href="#DejaVuSans-48"/>
       <use x="354.199219" xlink:href="#DejaVuSans-55"/>
      </g>
     </g>
    </g>
    <g id="xtick_5">
     <g id="line2d_5">
      <g>
       <use style="stroke:#000000;stroke-width:0.8;" x="256.778938" xlink:href="#m3fe3319514" y="307.584"/>
      </g>
     </g>
     <g id="text_5">
      <!-- 2020-09 -->
      <g transform="translate(235.887531 322.182437)scale(0.1 -0.1)">
       <defs>
        <path d="M 10.984375 1.515625 
L 10.984375 10.5 
Q 14.703125 8.734375 18.5 7.8125 
Q 22.3125 6.890625 25.984375 6.890625 
Q 35.75 6.890625 40.890625 13.453125 
Q 46.046875 20.015625 46.78125 33.40625 
Q 43.953125 29.203125 39.59375 26.953125 
Q 35.25 24.703125 29.984375 24.703125 
Q 19.046875 24.703125 12.671875 31.3125 
Q 6.296875 37.9375 6.296875 49.421875 
Q 6.296875 60.640625 12.9375 67.421875 
Q 19.578125 74.21875 30.609375 74.21875 
Q 43.265625 74.21875 49.921875 64.515625 
Q 56.59375 54.828125 56.59375 36.375 
Q 56.59375 19.140625 48.40625 8.859375 
Q 40.234375 -1.421875 26.421875 -1.421875 
Q 22.703125 -1.421875 18.890625 -0.6875 
Q 15.09375 0.046875 10.984375 1.515625 
z
M 30.609375 32.421875 
Q 37.25 32.421875 41.125 36.953125 
Q 45.015625 41.5 45.015625 49.421875 
Q 45.015625 57.28125 41.125 61.84375 
Q 37.25 66.40625 30.609375 66.40625 
Q 23.96875 66.40625 20.09375 61.84375 
Q 16.21875 57.28125 16.21875 49.421875 
Q 16.21875 41.5 20.09375 36.953125 
Q 23.96875 32.421875 30.609375 32.421875 
z
" id="DejaVuSans-57"/>
       </defs>
       <use xlink:href="#DejaVuSans-50"/>
       <use x="63.623047" xlink:href="#DejaVuSans-48"/>
       <use x="127.246094" xlink:href="#DejaVuSans-50"/>
       <use x="190.869141" xlink:href="#DejaVuSans-48"/>
       <use x="254.492188" xlink:href="#DejaVuSans-45"/>
       <use x="290.576172" xlink:href="#DejaVuSans-48"/>
       <use x="354.199219" xlink:href="#DejaVuSans-57"/>
      </g>
     </g>
    </g>
    <g id="xtick_6">
     <g id="line2d_6">
      <g>
       <use style="stroke:#000000;stroke-width:0.8;" x="302.51549" xlink:href="#m3fe3319514" y="307.584"/>
      </g>
     </g>
     <g id="text_6">
      <!-- 2020-11 -->
      <g transform="translate(281.624084 322.182437)scale(0.1 -0.1)">
       <use xlink:href="#DejaVuSans-50"/>
       <use x="63.623047" xlink:href="#DejaVuSans-48"/>
       <use x="127.246094" xlink:href="#DejaVuSans-50"/>
       <use x="190.869141" xlink:href="#DejaVuSans-48"/>
       <use x="254.492188" xlink:href="#DejaVuSans-45"/>
       <use x="290.576172" xlink:href="#DejaVuSans-49"/>
       <use x="354.199219" xlink:href="#DejaVuSans-49"/>
      </g>
     </g>
    </g>
    <g id="xtick_7">
     <g id="line2d_7">
      <g>
       <use style="stroke:#000000;stroke-width:0.8;" x="348.252043" xlink:href="#m3fe3319514" y="307.584"/>
      </g>
     </g>
     <g id="text_7">
      <!-- 2021-01 -->
      <g transform="translate(327.360637 322.182437)scale(0.1 -0.1)">
       <use xlink:href="#DejaVuSans-50"/>
       <use x="63.623047" xlink:href="#DejaVuSans-48"/>
       <use x="127.246094" xlink:href="#DejaVuSans-50"/>
       <use x="190.869141" xlink:href="#DejaVuSans-49"/>
       <use x="254.492188" xlink:href="#DejaVuSans-45"/>
       <use x="290.576172" xlink:href="#DejaVuSans-48"/>
       <use x="354.199219" xlink:href="#DejaVuSans-49"/>
      </g>
     </g>
    </g>
    <g id="xtick_8">
     <g id="line2d_8">
      <g>
       <use style="stroke:#000000;stroke-width:0.8;" x="392.489036" xlink:href="#m3fe3319514" y="307.584"/>
      </g>
     </g>
     <g id="text_8">
      <!-- 2021-03 -->
      <g transform="translate(371.59763 322.182437)scale(0.1 -0.1)">
       <use xlink:href="#DejaVuSans-50"/>
       <use x="63.623047" xlink:href="#DejaVuSans-48"/>
       <use x="127.246094" xlink:href="#DejaVuSans-50"/>
       <use x="190.869141" xlink:href="#DejaVuSans-49"/>
       <use x="254.492188" xlink:href="#DejaVuSans-45"/>
       <use x="290.576172" xlink:href="#DejaVuSans-48"/>
       <use x="354.199219" xlink:href="#DejaVuSans-51"/>
      </g>
     </g>
    </g>
   </g>
   <g id="matplotlib.axis_2">
    <g id="ytick_1">
     <g id="line2d_9">
      <defs>
       <path d="M 0 0 
L -3.5 0 
" id="m729f7b6fc4" style="stroke:#000000;stroke-width:0.8;"/>
      </defs>
      <g>
       <use style="stroke:#000000;stroke-width:0.8;" x="57.6" xlink:href="#m729f7b6fc4" y="292.42934"/>
      </g>
     </g>
     <g id="text_9">
      <!-- −1000 -->
      <g transform="translate(16.770313 296.228559)scale(0.1 -0.1)">
       <defs>
        <path d="M 10.59375 35.5 
L 73.1875 35.5 
L 73.1875 27.203125 
L 10.59375 27.203125 
z
" id="DejaVuSans-8722"/>
       </defs>
       <use xlink:href="#DejaVuSans-8722"/>
       <use x="83.789062" xlink:href="#DejaVuSans-49"/>
       <use x="147.412109" xlink:href="#DejaVuSans-48"/>
       <use x="211.035156" xlink:href="#DejaVuSans-48"/>
       <use x="274.658203" xlink:href="#DejaVuSans-48"/>
      </g>
     </g>
    </g>
    <g id="ytick_2">
     <g id="line2d_10">
      <g>
       <use style="stroke:#000000;stroke-width:0.8;" x="57.6" xlink:href="#m729f7b6fc4" y="254.185577"/>
      </g>
     </g>
     <g id="text_10">
      <!-- 0 -->
      <g transform="translate(44.2375 257.984796)scale(0.1 -0.1)">
       <use xlink:href="#DejaVuSans-48"/>
      </g>
     </g>
    </g>
    <g id="ytick_3">
     <g id="line2d_11">
      <g>
       <use style="stroke:#000000;stroke-width:0.8;" x="57.6" xlink:href="#m729f7b6fc4" y="215.941814"/>
      </g>
     </g>
     <g id="text_11">
      <!-- 1000 -->
      <g transform="translate(25.15 219.741033)scale(0.1 -0.1)">
       <use xlink:href="#DejaVuSans-49"/>
       <use x="63.623047" xlink:href="#DejaVuSans-48"/>
       <use x="127.246094" xlink:href="#DejaVuSans-48"/>
       <use x="190.869141" xlink:href="#DejaVuSans-48"/>
      </g>
     </g>
    </g>
    <g id="ytick_4">
     <g id="line2d_12">
      <g>
       <use style="stroke:#000000;stroke-width:0.8;" x="57.6" xlink:href="#m729f7b6fc4" y="177.698052"/>
      </g>
     </g>
     <g id="text_12">
      <!-- 2000 -->
      <g transform="translate(25.15 181.49727)scale(0.1 -0.1)">
       <use xlink:href="#DejaVuSans-50"/>
       <use x="63.623047" xlink:href="#DejaVuSans-48"/>
       <use x="127.246094" xlink:href="#DejaVuSans-48"/>
       <use x="190.869141" xlink:href="#DejaVuSans-48"/>
      </g>
     </g>
    </g>
    <g id="ytick_5">
     <g id="line2d_13">
      <g>
       <use style="stroke:#000000;stroke-width:0.8;" x="57.6" xlink:href="#m729f7b6fc4" y="139.454289"/>
      </g>
     </g>
     <g id="text_13">
      <!-- 3000 -->
      <g transform="translate(25.15 143.253508)scale(0.1 -0.1)">
       <use xlink:href="#DejaVuSans-51"/>
       <use x="63.623047" xlink:href="#DejaVuSans-48"/>
       <use x="127.246094" xlink:href="#DejaVuSans-48"/>
       <use x="190.869141" xlink:href="#DejaVuSans-48"/>
      </g>
     </g>
    </g>
    <g id="ytick_6">
     <g id="line2d_14">
      <g>
       <use style="stroke:#000000;stroke-width:0.8;" x="57.6" xlink:href="#m729f7b6fc4" y="101.210526"/>
      </g>
     </g>
     <g id="text_14">
      <!-- 4000 -->
      <g transform="translate(25.15 105.009745)scale(0.1 -0.1)">
       <defs>
        <path d="M 37.796875 64.3125 
L 12.890625 25.390625 
L 37.796875 25.390625 
z
M 35.203125 72.90625 
L 47.609375 72.90625 
L 47.609375 25.390625 
L 58.015625 25.390625 
L 58.015625 17.1875 
L 47.609375 17.1875 
L 47.609375 0 
L 37.796875 0 
L 37.796875 17.1875 
L 4.890625 17.1875 
L 4.890625 26.703125 
z
" id="DejaVuSans-52"/>
       </defs>
       <use xlink:href="#DejaVuSans-52"/>
       <use x="63.623047" xlink:href="#DejaVuSans-48"/>
       <use x="127.246094" xlink:href="#DejaVuSans-48"/>
       <use x="190.869141" xlink:href="#DejaVuSans-48"/>
      </g>
     </g>
    </g>
    <g id="ytick_7">
     <g id="line2d_15">
      <g>
       <use style="stroke:#000000;stroke-width:0.8;" x="57.6" xlink:href="#m729f7b6fc4" y="62.966763"/>
      </g>
     </g>
     <g id="text_15">
      <!-- 5000 -->
      <g transform="translate(25.15 66.765982)scale(0.1 -0.1)">
       <use xlink:href="#DejaVuSans-53"/>
       <use x="63.623047" xlink:href="#DejaVuSans-48"/>
       <use x="127.246094" xlink:href="#DejaVuSans-48"/>
       <use x="190.869141" xlink:href="#DejaVuSans-48"/>
      </g>
     </g>
    </g>
   </g>
   <g id="line2d_16">
    <path clip-path="url(#p870e4d5848)" d="M 73.832727 254.185577 
L 398.487273 254.185577 
L 398.487273 254.185577 
" style="fill:none;stroke:#1f77b4;stroke-dasharray:5.55,2.4;stroke-dashoffset:0;stroke-width:1.5;"/>
   </g>
   <g id="line2d_17">
    <path clip-path="url(#p870e4d5848)" d="M 73.832727 254.185577 
L 74.582507 254.877785 
L 76.082066 253.707207 
L 76.831845 253.295686 
L 77.581625 251.746277 
L 78.331405 249.352234 
L 79.081184 247.882139 
L 79.830964 247.491514 
L 80.580743 246.12582 
L 81.330523 245.674974 
L 82.080302 244.923114 
L 82.830082 244.663547 
L 83.579861 242.427203 
L 84.329641 240.805846 
L 85.079421 239.967399 
L 85.8292 238.943713 
L 86.57898 238.282062 
L 87.328759 238.562995 
L 88.078539 239.166401 
L 88.828318 239.516478 
L 89.578098 240.161085 
L 90.327877 241.646192 
L 91.827436 244.167688 
L 92.577216 244.529398 
L 93.326996 244.011364 
L 94.076775 242.221169 
L 94.826555 241.268601 
L 95.576334 240.003611 
L 97.075893 239.444602 
L 97.825673 239.60543 
L 98.575452 240.024005 
L 99.325232 240.86816 
L 100.075012 240.344854 
L 101.574571 239.137016 
L 102.32435 238.615938 
L 103.07413 237.580855 
L 103.823909 237.900485 
L 105.323468 236.374161 
L 106.073248 236.387379 
L 106.823028 236.214094 
L 109.072366 240.753149 
L 109.822146 240.875935 
L 110.571925 242.931086 
L 111.321705 244.627311 
L 112.821264 246.891733 
L 113.571043 246.901562 
L 114.320823 247.933865 
L 115.070603 249.883846 
L 115.820382 253.058632 
L 117.319941 257.666866 
L 118.069721 259.882828 
L 118.8195 261.548386 
L 119.56928 261.591815 
L 120.319059 262.023682 
L 121.068839 262.273612 
L 121.818619 261.44558 
L 122.568398 260.433806 
L 123.318178 260.360664 
L 124.817737 265.013082 
L 125.567516 266.727286 
L 126.317296 267.768931 
L 127.067075 277.69573 
L 128.566634 288.231578 
L 130.066194 294.392681 
L 130.815973 295.397652 
L 131.565753 295.488 
L 133.815091 287.599153 
L 134.564871 286.482172 
L 136.81421 276.336886 
L 138.313769 271.368674 
L 139.063548 270.820999 
L 139.813328 271.253443 
L 140.563107 269.302474 
L 141.312887 267.964265 
L 143.562225 262.504441 
L 144.312005 260.848795 
L 145.061785 259.763407 
L 146.561344 255.082635 
L 147.311123 253.420683 
L 148.060903 252.207232 
L 148.810682 252.514634 
L 149.560462 253.06709 
L 150.310241 252.507743 
L 151.060021 253.249101 
L 151.809801 253.468307 
L 152.55958 254.130095 
L 154.059139 253.179124 
L 154.808919 252.398027 
L 155.558698 251.97715 
L 157.058257 253.06626 
L 157.808037 252.657783 
L 158.557817 251.076578 
L 160.057376 248.97971 
L 162.306714 246.761059 
L 163.056494 244.642561 
L 163.806273 241.665891 
L 165.305832 237.396303 
L 166.055612 236.252571 
L 167.555171 235.024726 
L 169.05473 232.538599 
L 169.80451 229.998709 
L 170.554289 229.034444 
L 171.304069 232.456452 
L 172.803628 236.164586 
L 173.553408 236.790169 
L 174.303187 236.00384 
L 175.052967 235.774928 
L 175.802746 235.983997 
L 176.552526 235.409251 
L 177.302305 235.59569 
L 178.052085 235.48623 
L 178.801864 235.667094 
L 179.551644 237.353195 
L 181.051203 241.049009 
L 181.800983 242.483197 
L 182.550762 245.042254 
L 183.300542 246.86247 
L 184.050321 248.213379 
L 184.800101 248.470674 
L 185.54988 248.003931 
L 186.29966 247.396142 
L 187.799219 246.737004 
L 188.548999 244.860714 
L 189.298778 245.15063 
L 190.048558 245.678731 
L 190.798337 245.25206 
L 191.548117 245.498722 
L 192.297896 245.968526 
L 193.047676 246.098277 
L 193.797455 246.47943 
L 194.547235 246.67645 
L 195.297014 246.71366 
L 196.796574 248.872639 
L 197.546353 249.798576 
L 198.296133 251.442409 
L 200.545471 252.267055 
L 201.295251 253.059775 
L 202.04503 253.584295 
L 202.79481 253.919359 
L 203.54459 253.770688 
L 204.294369 253.302558 
L 205.044149 253.194231 
L 205.793928 253.841172 
L 206.543708 254.799133 
L 207.293487 255.430518 
L 208.043267 256.438226 
L 208.793046 256.882806 
L 210.292606 257.124895 
L 211.042385 257.007437 
L 212.541944 257.357707 
L 213.291724 257.467155 
L 214.041503 257.125199 
L 215.541062 256.17836 
L 216.290842 255.419357 
L 217.040621 255.601201 
L 219.28996 254.84251 
L 220.789519 254.948005 
L 222.289078 255.464612 
L 223.788637 255.56993 
L 225.288197 255.317894 
L 226.037976 254.723772 
L 227.537535 252.946807 
L 229.037094 251.181476 
L 229.786874 248.675392 
L 230.536653 244.685517 
L 231.286433 241.676388 
L 232.036212 239.244757 
L 232.785992 237.595321 
L 233.535772 235.489429 
L 234.285551 234.213892 
L 235.78511 233.473324 
L 236.53489 233.579084 
L 237.284669 232.135506 
L 238.034449 231.162892 
L 239.534008 231.639953 
L 240.283788 230.994659 
L 241.033567 231.29574 
L 241.783347 233.288862 
L 242.533126 234.407979 
L 243.282906 234.917079 
L 244.032685 235.120236 
L 244.782465 235.457919 
L 245.532244 236.094028 
L 246.282024 235.361657 
L 247.031803 236.25015 
L 247.781583 237.408759 
L 248.531363 239.2727 
L 250.030922 242.029657 
L 250.780701 242.865296 
L 251.530481 244.763416 
L 252.28026 246.113565 
L 253.03004 247.741425 
L 253.779819 248.540791 
L 254.529599 249.131281 
L 256.029158 249.278114 
L 256.778938 248.508782 
L 257.528717 248.484805 
L 258.278497 250.034451 
L 259.028276 254.378041 
L 261.277615 262.946129 
L 262.027394 264.209746 
L 262.777174 265.952201 
L 263.526954 266.242064 
L 264.276733 266.21119 
L 265.026513 265.879645 
L 265.776292 265.862774 
L 266.526072 264.596145 
L 267.275851 263.029933 
L 268.025631 261.080065 
L 268.77541 259.767527 
L 270.27497 257.435396 
L 271.024749 257.016971 
L 271.774529 257.653592 
L 272.524308 258.09771 
L 273.274088 259.228247 
L 274.023867 258.796788 
L 277.022986 256.475267 
L 278.522545 255.962687 
L 279.272324 256.137328 
L 280.771883 256.676099 
L 281.521663 256.516278 
L 282.271442 256.072256 
L 283.021222 256.21168 
L 283.771001 256.12659 
L 284.520781 255.269492 
L 285.270561 254.079389 
L 287.519899 249.250159 
L 288.269679 248.352848 
L 289.769238 247.056925 
L 291.268797 247.224679 
L 292.018577 246.888682 
L 292.768356 245.971583 
L 293.518136 244.845029 
L 295.017695 238.234312 
L 296.517254 234.08914 
L 297.267033 232.999996 
L 298.016813 232.300201 
L 298.766592 230.259545 
L 299.516372 230.038721 
L 301.015931 229.176922 
L 301.765711 228.442687 
L 302.51549 228.26493 
L 303.26527 229.018235 
L 304.764829 227.962452 
L 305.514608 223.477925 
L 306.264388 220.328239 
L 307.014168 220.519386 
L 307.763947 219.083448 
L 308.513727 218.830101 
L 309.263506 219.09989 
L 310.013286 218.511846 
L 310.763065 216.644016 
L 311.512845 215.519001 
L 312.262624 215.855045 
L 313.012404 216.883006 
L 313.762183 215.8182 
L 314.511963 212.505459 
L 315.261743 210.052667 
L 316.011522 208.542955 
L 316.761302 205.255517 
L 317.511081 203.170136 
L 318.260861 202.953578 
L 319.01064 203.495262 
L 319.76042 202.119083 
L 320.510199 202.969624 
L 322.009759 214.179659 
L 322.759538 216.980986 
L 323.509318 218.200712 
L 324.259097 214.955009 
L 325.008877 215.644212 
L 325.758656 215.308445 
L 326.508436 214.804906 
L 327.258215 217.277982 
L 328.007995 218.109244 
L 328.757775 218.473664 
L 329.507554 219.780321 
L 330.257334 223.828487 
L 331.007113 226.640227 
L 332.506672 233.684673 
L 333.256452 234.400226 
L 334.756011 233.761206 
L 335.50579 233.214739 
L 336.25557 227.212925 
L 337.00535 218.356455 
L 338.504909 203.315027 
L 339.254688 199.141964 
L 340.004468 198.759683 
L 340.754247 195.738748 
L 341.504027 195.832736 
L 342.253806 195.044033 
L 343.003586 192.115946 
L 343.753366 185.226491 
L 344.503145 181.217687 
L 345.252925 176.487357 
L 346.002704 172.714523 
L 346.752484 166.013053 
L 347.502263 161.553188 
L 348.252043 157.785984 
L 349.751602 137.879459 
L 350.501381 134.868735 
L 351.251161 127.714862 
L 352.000941 115.033534 
L 353.5005 84.022516 
L 354.250279 75.724231 
L 355.000059 77.468842 
L 355.749838 89.173211 
L 356.499618 104.504874 
L 357.249397 108.106557 
L 357.999177 107.216796 
L 358.748957 115.418902 
L 360.248516 135.757353 
L 360.998295 142.52 
L 362.497854 160.648264 
L 363.247634 183.283245 
L 365.496972 217.896044 
L 366.246752 226.234017 
L 366.996532 232.282772 
L 367.746311 243.656615 
L 368.496091 243.551697 
L 369.24587 241.015925 
L 369.99565 238.995444 
L 370.745429 241.229803 
L 371.495209 241.864906 
L 372.244988 236.448497 
L 372.994768 225.826563 
L 373.744548 219.965089 
L 375.244107 202.825272 
L 375.993886 197.674857 
L 376.743666 171.177779 
L 377.493445 151.161946 
L 378.243225 141.67774 
L 378.993004 125.922203 
L 379.742784 116.85274 
L 380.492564 111.91838 
L 381.242343 105.336737 
L 381.992123 104.009368 
L 382.741902 100.862449 
L 383.491682 91.170024 
L 384.241461 87.12384 
L 384.991241 72.587523 
L 386.4908 53.568 
L 387.240579 58.33651 
L 387.990359 80.218772 
L 388.740139 96.802683 
L 390.239698 141.380768 
L 391.739257 178.772705 
L 392.489036 180.91147 
L 393.238816 186.829395 
L 393.988595 186.377984 
L 394.738375 193.072586 
L 396.237934 201.726278 
L 396.987714 199.039579 
L 397.737493 193.26933 
L 398.487273 181.696811 
L 398.487273 181.696811 
" style="fill:none;stroke:#0000ff;stroke-linecap:square;stroke-width:1.5;"/>
   </g>
   <g id="line2d_18">
    <path clip-path="url(#p870e4d5848)" d="M 73.832727 254.185577 
L 74.582507 254.324019 
L 76.082066 254.186835 
L 76.831845 254.008606 
L 77.581625 253.55614 
L 79.830964 250.897275 
L 81.330523 249.089382 
L 83.579861 246.51553 
L 85.8292 243.222626 
L 86.57898 242.234513 
L 87.328759 241.50021 
L 88.078539 241.033448 
L 88.828318 240.730054 
L 89.578098 240.61626 
L 90.327877 240.822247 
L 91.077657 241.221267 
L 92.577216 242.354321 
L 93.326996 242.685729 
L 94.076775 242.592817 
L 94.826555 242.327974 
L 97.075893 241.028533 
L 97.825673 240.743912 
L 98.575452 240.599931 
L 99.325232 240.653577 
L 100.075012 240.591832 
L 101.574571 240.154046 
L 102.32435 239.846425 
L 103.07413 239.393311 
L 104.573689 238.690867 
L 106.073248 237.859497 
L 106.823028 237.530416 
L 107.572807 237.557809 
L 108.322587 237.830952 
L 110.571925 239.712217 
L 115.070603 245.537921 
L 116.570162 248.729271 
L 119.56928 255.695703 
L 121.068839 258.023762 
L 121.818619 258.708125 
L 123.318178 259.314742 
L 124.067957 260.020541 
L 125.567516 262.160697 
L 126.317296 263.282343 
L 127.067075 266.165021 
L 128.566634 273.275513 
L 130.066194 280.396082 
L 130.815973 283.396396 
L 131.565753 285.814717 
L 132.315532 287.200398 
L 133.065312 287.774881 
L 133.815091 287.739735 
L 134.564871 287.488223 
L 135.31465 286.617814 
L 136.06443 285.164115 
L 137.563989 281.450218 
L 139.063548 277.711327 
L 140.563107 274.996295 
L 142.062666 272.088214 
L 147.311123 260.500519 
L 148.060903 258.841862 
L 148.810682 257.576416 
L 150.310241 255.841189 
L 151.060021 255.322772 
L 151.809801 254.951879 
L 153.30936 254.55932 
L 154.808919 253.90623 
L 155.558698 253.520414 
L 156.308478 253.318236 
L 157.808037 253.145829 
L 159.307596 252.193197 
L 162.306714 249.504807 
L 163.056494 248.532358 
L 164.556053 245.603728 
L 166.055612 242.420309 
L 167.555171 239.852294 
L 169.05473 237.407941 
L 170.554289 234.547764 
L 171.304069 234.129502 
L 172.053848 234.141684 
L 173.553408 234.995045 
L 175.052967 235.312429 
L 175.802746 235.446743 
L 178.801864 235.512357 
L 179.551644 235.880525 
L 180.301423 236.573635 
L 181.800983 238.471607 
L 184.800101 243.776969 
L 185.54988 244.622361 
L 186.29966 245.177117 
L 187.049439 245.544616 
L 187.799219 245.783093 
L 189.298778 245.50902 
L 190.798337 245.484782 
L 192.297896 245.583761 
L 193.797455 245.845217 
L 195.297014 246.151903 
L 196.046794 246.483311 
L 197.546353 247.528657 
L 199.045912 248.985758 
L 202.79481 251.808506 
L 203.54459 252.200942 
L 205.793928 252.828921 
L 207.293487 253.664474 
L 209.542826 255.212199 
L 211.042385 255.877278 
L 213.291724 256.601858 
L 214.041503 256.706526 
L 215.541062 256.58933 
L 217.040621 256.204508 
L 220.789519 255.387353 
L 223.038858 255.417161 
L 225.288197 255.425796 
L 226.037976 255.285391 
L 227.537535 254.576981 
L 229.037094 253.506777 
L 229.786874 252.5405 
L 230.536653 250.969504 
L 235.035331 239.946132 
L 235.78511 238.651571 
L 238.784228 234.660124 
L 240.283788 233.443804 
L 241.033567 233.014191 
L 241.783347 233.069125 
L 244.782465 234.248698 
L 245.532244 234.617764 
L 246.282024 234.766543 
L 247.031803 235.063264 
L 247.781583 235.532363 
L 249.281142 237.149124 
L 251.530481 240.211278 
L 254.529599 244.896254 
L 256.029158 246.464173 
L 258.278497 247.76324 
L 259.028276 249.0862 
L 259.778056 250.735116 
L 262.777174 258.5089 
L 263.526954 260.055533 
L 264.276733 261.286664 
L 265.026513 262.20526 
L 265.776292 262.936763 
L 266.526072 263.268639 
L 267.275851 263.220898 
L 268.025631 262.792732 
L 269.52519 261.487207 
L 271.024749 259.94487 
L 271.774529 259.486614 
L 272.524308 259.208834 
L 274.023867 259.129531 
L 275.523426 258.702677 
L 277.022986 258.02107 
L 278.522545 257.311886 
L 280.022104 256.948127 
L 281.521663 256.818233 
L 283.021222 256.577566 
L 283.771001 256.487371 
L 284.520781 256.243795 
L 285.270561 255.810914 
L 286.02034 255.131344 
L 287.519899 253.279055 
L 289.019458 251.379289 
L 289.769238 250.514816 
L 291.268797 249.323565 
L 292.768356 248.263587 
L 293.518136 247.579876 
L 294.267915 246.335539 
L 296.517254 241.213923 
L 298.766592 236.545469 
L 300.266152 234.111604 
L 301.765711 232.188272 
L 302.51549 231.403603 
L 304.764829 229.942429 
L 305.514608 228.649528 
L 306.264388 226.98527 
L 308.513727 223.262312 
L 310.763065 220.645788 
L 311.512845 219.620431 
L 312.262624 218.867354 
L 313.012404 218.470484 
L 313.762183 217.940027 
L 314.511963 216.853114 
L 316.011522 214.10301 
L 318.260861 208.991385 
L 319.76042 206.737545 
L 320.510199 205.983961 
L 321.259979 206.57139 
L 322.009759 208.093044 
L 323.509318 211.536648 
L 325.008877 212.905099 
L 325.758656 213.385768 
L 326.508436 213.669596 
L 329.507554 216.598165 
L 330.257334 218.04423 
L 331.007113 219.763429 
L 334.006231 227.808568 
L 334.756011 228.999096 
L 335.50579 229.842225 
L 336.25557 229.316365 
L 337.00535 227.124383 
L 337.755129 223.86883 
L 339.254688 215.634848 
L 340.754247 208.955602 
L 342.253806 204.07363 
L 343.003586 201.682093 
L 344.503145 194.956316 
L 346.002704 187.552924 
L 348.252043 174.682475 
L 349.751602 162.951938 
L 351.251161 151.411211 
L 352.000941 144.135675 
L 353.5005 124.82788 
L 354.250279 115.00715 
L 355.000059 107.499489 
L 355.749838 103.834233 
L 356.499618 103.968361 
L 357.249397 104.796 
L 357.999177 105.28016 
L 358.748957 107.307908 
L 359.498736 110.983647 
L 360.998295 121.254711 
L 362.497854 133.942484 
L 364.747193 164.855454 
L 366.246752 185.617661 
L 368.496091 212.463835 
L 369.24587 218.174253 
L 370.745429 226.116754 
L 371.495209 229.266384 
L 372.244988 230.702807 
L 372.994768 229.727558 
L 373.744548 227.775064 
L 374.494327 224.566236 
L 375.993886 215.709406 
L 376.743666 206.803081 
L 380.492564 151.854377 
L 381.242343 142.550849 
L 382.741902 128.046532 
L 384.991241 105.686906 
L 386.4908 88.488178 
L 387.240579 82.457845 
L 387.990359 82.01003 
L 388.740139 84.968561 
L 389.489918 91.897263 
L 390.239698 101.793964 
L 393.238816 147.288763 
L 395.488155 169.708948 
L 396.237934 176.112414 
L 396.987714 180.697847 
L 397.737493 183.212143 
L 398.487273 182.909077 
L 398.487273 182.909077 
" style="fill:none;stroke:#ff6347;stroke-linecap:square;stroke-width:1.5;"/>
   </g>
   <g id="patch_3">
    <path d="M 57.6 307.584 
L 57.6 41.472 
" style="fill:none;stroke:#000000;stroke-linecap:square;stroke-linejoin:miter;stroke-width:0.8;"/>
   </g>
   <g id="patch_4">
    <path d="M 414.72 307.584 
L 414.72 41.472 
" style="fill:none;stroke:#000000;stroke-linecap:square;stroke-linejoin:miter;stroke-width:0.8;"/>
   </g>
   <g id="patch_5">
    <path d="M 57.6 307.584 
L 414.72 307.584 
" style="fill:none;stroke:#000000;stroke-linecap:square;stroke-linejoin:miter;stroke-width:0.8;"/>
   </g>
   <g id="patch_6">
    <path d="M 57.6 41.472 
L 414.72 41.472 
" style="fill:none;stroke:#000000;stroke-linecap:square;stroke-linejoin:miter;stroke-width:0.8;"/>
   </g>
   <g id="text_16">
    <!-- Data source: coindesk -->
    <g transform="translate(180.640469 35.472)scale(0.1 -0.1)">
     <defs>
      <path d="M 19.671875 64.796875 
L 19.671875 8.109375 
L 31.59375 8.109375 
Q 46.6875 8.109375 53.6875 14.9375 
Q 60.6875 21.78125 60.6875 36.53125 
Q 60.6875 51.171875 53.6875 57.984375 
Q 46.6875 64.796875 31.59375 64.796875 
z
M 9.8125 72.90625 
L 30.078125 72.90625 
Q 51.265625 72.90625 61.171875 64.09375 
Q 71.09375 55.28125 71.09375 36.53125 
Q 71.09375 17.671875 61.125 8.828125 
Q 51.171875 0 30.078125 0 
L 9.8125 0 
z
" id="DejaVuSans-68"/>
      <path d="M 34.28125 27.484375 
Q 23.390625 27.484375 19.1875 25 
Q 14.984375 22.515625 14.984375 16.5 
Q 14.984375 11.71875 18.140625 8.90625 
Q 21.296875 6.109375 26.703125 6.109375 
Q 34.1875 6.109375 38.703125 11.40625 
Q 43.21875 16.703125 43.21875 25.484375 
L 43.21875 27.484375 
z
M 52.203125 31.203125 
L 52.203125 0 
L 43.21875 0 
L 43.21875 8.296875 
Q 40.140625 3.328125 35.546875 0.953125 
Q 30.953125 -1.421875 24.3125 -1.421875 
Q 15.921875 -1.421875 10.953125 3.296875 
Q 6 8.015625 6 15.921875 
Q 6 25.140625 12.171875 29.828125 
Q 18.359375 34.515625 30.609375 34.515625 
L 43.21875 34.515625 
L 43.21875 35.40625 
Q 43.21875 41.609375 39.140625 45 
Q 35.0625 48.390625 27.6875 48.390625 
Q 23 48.390625 18.546875 47.265625 
Q 14.109375 46.140625 10.015625 43.890625 
L 10.015625 52.203125 
Q 14.9375 54.109375 19.578125 55.046875 
Q 24.21875 56 28.609375 56 
Q 40.484375 56 46.34375 49.84375 
Q 52.203125 43.703125 52.203125 31.203125 
z
" id="DejaVuSans-97"/>
      <path d="M 18.3125 70.21875 
L 18.3125 54.6875 
L 36.8125 54.6875 
L 36.8125 47.703125 
L 18.3125 47.703125 
L 18.3125 18.015625 
Q 18.3125 11.328125 20.140625 9.421875 
Q 21.96875 7.515625 27.59375 7.515625 
L 36.8125 7.515625 
L 36.8125 0 
L 27.59375 0 
Q 17.1875 0 13.234375 3.875 
Q 9.28125 7.765625 9.28125 18.015625 
L 9.28125 47.703125 
L 2.6875 47.703125 
L 2.6875 54.6875 
L 9.28125 54.6875 
L 9.28125 70.21875 
z
" id="DejaVuSans-116"/>
      <path id="DejaVuSans-32"/>
      <path d="M 44.28125 53.078125 
L 44.28125 44.578125 
Q 40.484375 46.53125 36.375 47.5 
Q 32.28125 48.484375 27.875 48.484375 
Q 21.1875 48.484375 17.84375 46.4375 
Q 14.5 44.390625 14.5 40.28125 
Q 14.5 37.15625 16.890625 35.375 
Q 19.28125 33.59375 26.515625 31.984375 
L 29.59375 31.296875 
Q 39.15625 29.25 43.1875 25.515625 
Q 47.21875 21.78125 47.21875 15.09375 
Q 47.21875 7.46875 41.1875 3.015625 
Q 35.15625 -1.421875 24.609375 -1.421875 
Q 20.21875 -1.421875 15.453125 -0.5625 
Q 10.6875 0.296875 5.421875 2 
L 5.421875 11.28125 
Q 10.40625 8.6875 15.234375 7.390625 
Q 20.0625 6.109375 24.8125 6.109375 
Q 31.15625 6.109375 34.5625 8.28125 
Q 37.984375 10.453125 37.984375 14.40625 
Q 37.984375 18.0625 35.515625 20.015625 
Q 33.0625 21.96875 24.703125 23.78125 
L 21.578125 24.515625 
Q 13.234375 26.265625 9.515625 29.90625 
Q 5.8125 33.546875 5.8125 39.890625 
Q 5.8125 47.609375 11.28125 51.796875 
Q 16.75 56 26.8125 56 
Q 31.78125 56 36.171875 55.265625 
Q 40.578125 54.546875 44.28125 53.078125 
z
" id="DejaVuSans-115"/>
      <path d="M 30.609375 48.390625 
Q 23.390625 48.390625 19.1875 42.75 
Q 14.984375 37.109375 14.984375 27.296875 
Q 14.984375 17.484375 19.15625 11.84375 
Q 23.34375 6.203125 30.609375 6.203125 
Q 37.796875 6.203125 41.984375 11.859375 
Q 46.1875 17.53125 46.1875 27.296875 
Q 46.1875 37.015625 41.984375 42.703125 
Q 37.796875 48.390625 30.609375 48.390625 
z
M 30.609375 56 
Q 42.328125 56 49.015625 48.375 
Q 55.71875 40.765625 55.71875 27.296875 
Q 55.71875 13.875 49.015625 6.21875 
Q 42.328125 -1.421875 30.609375 -1.421875 
Q 18.84375 -1.421875 12.171875 6.21875 
Q 5.515625 13.875 5.515625 27.296875 
Q 5.515625 40.765625 12.171875 48.375 
Q 18.84375 56 30.609375 56 
z
" id="DejaVuSans-111"/>
      <path d="M 8.5 21.578125 
L 8.5 54.6875 
L 17.484375 54.6875 
L 17.484375 21.921875 
Q 17.484375 14.15625 20.5 10.265625 
Q 23.53125 6.390625 29.59375 6.390625 
Q 36.859375 6.390625 41.078125 11.03125 
Q 45.3125 15.671875 45.3125 23.6875 
L 45.3125 54.6875 
L 54.296875 54.6875 
L 54.296875 0 
L 45.3125 0 
L 45.3125 8.40625 
Q 42.046875 3.421875 37.71875 1 
Q 33.40625 -1.421875 27.6875 -1.421875 
Q 18.265625 -1.421875 13.375 4.4375 
Q 8.5 10.296875 8.5 21.578125 
z
M 31.109375 56 
z
" id="DejaVuSans-117"/>
      <path d="M 41.109375 46.296875 
Q 39.59375 47.171875 37.8125 47.578125 
Q 36.03125 48 33.890625 48 
Q 26.265625 48 22.1875 43.046875 
Q 18.109375 38.09375 18.109375 28.8125 
L 18.109375 0 
L 9.078125 0 
L 9.078125 54.6875 
L 18.109375 54.6875 
L 18.109375 46.1875 
Q 20.953125 51.171875 25.484375 53.578125 
Q 30.03125 56 36.53125 56 
Q 37.453125 56 38.578125 55.875 
Q 39.703125 55.765625 41.0625 55.515625 
z
" id="DejaVuSans-114"/>
      <path d="M 48.78125 52.59375 
L 48.78125 44.1875 
Q 44.96875 46.296875 41.140625 47.34375 
Q 37.3125 48.390625 33.40625 48.390625 
Q 24.65625 48.390625 19.8125 42.84375 
Q 14.984375 37.3125 14.984375 27.296875 
Q 14.984375 17.28125 19.8125 11.734375 
Q 24.65625 6.203125 33.40625 6.203125 
Q 37.3125 6.203125 41.140625 7.25 
Q 44.96875 8.296875 48.78125 10.40625 
L 48.78125 2.09375 
Q 45.015625 0.34375 40.984375 -0.53125 
Q 36.96875 -1.421875 32.421875 -1.421875 
Q 20.0625 -1.421875 12.78125 6.34375 
Q 5.515625 14.109375 5.515625 27.296875 
Q 5.515625 40.671875 12.859375 48.328125 
Q 20.21875 56 33.015625 56 
Q 37.15625 56 41.109375 55.140625 
Q 45.0625 54.296875 48.78125 52.59375 
z
" id="DejaVuSans-99"/>
      <path d="M 56.203125 29.59375 
L 56.203125 25.203125 
L 14.890625 25.203125 
Q 15.484375 15.921875 20.484375 11.0625 
Q 25.484375 6.203125 34.421875 6.203125 
Q 39.59375 6.203125 44.453125 7.46875 
Q 49.3125 8.734375 54.109375 11.28125 
L 54.109375 2.78125 
Q 49.265625 0.734375 44.1875 -0.34375 
Q 39.109375 -1.421875 33.890625 -1.421875 
Q 20.796875 -1.421875 13.15625 6.1875 
Q 5.515625 13.8125 5.515625 26.8125 
Q 5.515625 40.234375 12.765625 48.109375 
Q 20.015625 56 32.328125 56 
Q 43.359375 56 49.78125 48.890625 
Q 56.203125 41.796875 56.203125 29.59375 
z
M 47.21875 32.234375 
Q 47.125 39.59375 43.09375 43.984375 
Q 39.0625 48.390625 32.421875 48.390625 
Q 24.90625 48.390625 20.390625 44.140625 
Q 15.875 39.890625 15.1875 32.171875 
z
" id="DejaVuSans-101"/>
      <path d="M 11.71875 12.40625 
L 22.015625 12.40625 
L 22.015625 0 
L 11.71875 0 
z
M 11.71875 51.703125 
L 22.015625 51.703125 
L 22.015625 39.3125 
L 11.71875 39.3125 
z
" id="DejaVuSans-58"/>
      <path d="M 9.421875 54.6875 
L 18.40625 54.6875 
L 18.40625 0 
L 9.421875 0 
z
M 9.421875 75.984375 
L 18.40625 75.984375 
L 18.40625 64.59375 
L 9.421875 64.59375 
z
" id="DejaVuSans-105"/>
      <path d="M 54.890625 33.015625 
L 54.890625 0 
L 45.90625 0 
L 45.90625 32.71875 
Q 45.90625 40.484375 42.875 44.328125 
Q 39.84375 48.1875 33.796875 48.1875 
Q 26.515625 48.1875 22.3125 43.546875 
Q 18.109375 38.921875 18.109375 30.90625 
L 18.109375 0 
L 9.078125 0 
L 9.078125 54.6875 
L 18.109375 54.6875 
L 18.109375 46.1875 
Q 21.34375 51.125 25.703125 53.5625 
Q 30.078125 56 35.796875 56 
Q 45.21875 56 50.046875 50.171875 
Q 54.890625 44.34375 54.890625 33.015625 
z
" id="DejaVuSans-110"/>
      <path d="M 45.40625 46.390625 
L 45.40625 75.984375 
L 54.390625 75.984375 
L 54.390625 0 
L 45.40625 0 
L 45.40625 8.203125 
Q 42.578125 3.328125 38.25 0.953125 
Q 33.9375 -1.421875 27.875 -1.421875 
Q 17.96875 -1.421875 11.734375 6.484375 
Q 5.515625 14.40625 5.515625 27.296875 
Q 5.515625 40.1875 11.734375 48.09375 
Q 17.96875 56 27.875 56 
Q 33.9375 56 38.25 53.625 
Q 42.578125 51.265625 45.40625 46.390625 
z
M 14.796875 27.296875 
Q 14.796875 17.390625 18.875 11.75 
Q 22.953125 6.109375 30.078125 6.109375 
Q 37.203125 6.109375 41.296875 11.75 
Q 45.40625 17.390625 45.40625 27.296875 
Q 45.40625 37.203125 41.296875 42.84375 
Q 37.203125 48.484375 30.078125 48.484375 
Q 22.953125 48.484375 18.875 42.84375 
Q 14.796875 37.203125 14.796875 27.296875 
z
" id="DejaVuSans-100"/>
      <path d="M 9.078125 75.984375 
L 18.109375 75.984375 
L 18.109375 31.109375 
L 44.921875 54.6875 
L 56.390625 54.6875 
L 27.390625 29.109375 
L 57.625 0 
L 45.90625 0 
L 18.109375 26.703125 
L 18.109375 0 
L 9.078125 0 
z
" id="DejaVuSans-107"/>
     </defs>
     <use xlink:href="#DejaVuSans-68"/>
     <use x="77.001953" xlink:href="#DejaVuSans-97"/>
     <use x="138.28125" xlink:href="#DejaVuSans-116"/>
     <use x="177.490234" xlink:href="#DejaVuSans-97"/>
     <use x="238.769531" xlink:href="#DejaVuSans-32"/>
     <use x="270.556641" xlink:href="#DejaVuSans-115"/>
     <use x="322.65625" xlink:href="#DejaVuSans-111"/>
     <use x="383.837891" xlink:href="#DejaVuSans-117"/>
     <use x="447.216797" xlink:href="#DejaVuSans-114"/>
     <use x="486.080078" xlink:href="#DejaVuSans-99"/>
     <use x="541.060547" xlink:href="#DejaVuSans-101"/>
     <use x="602.583984" xlink:href="#DejaVuSans-58"/>
     <use x="636.275391" xlink:href="#DejaVuSans-32"/>
     <use x="668.0625" xlink:href="#DejaVuSans-99"/>
     <use x="723.042969" xlink:href="#DejaVuSans-111"/>
     <use x="784.224609" xlink:href="#DejaVuSans-105"/>
     <use x="812.007812" xlink:href="#DejaVuSans-110"/>
     <use x="875.386719" xlink:href="#DejaVuSans-100"/>
     <use x="938.863281" xlink:href="#DejaVuSans-101"/>
     <use x="1000.386719" xlink:href="#DejaVuSans-115"/>
     <use x="1052.486328" xlink:href="#DejaVuSans-107"/>
    </g>
   </g>
   <g id="legend_1">
    <g id="patch_7">
     <path d="M 64.6 78.82825 
L 127.31875 78.82825 
Q 129.31875 78.82825 129.31875 76.82825 
L 129.31875 48.472 
Q 129.31875 46.472 127.31875 46.472 
L 64.6 46.472 
Q 62.6 46.472 62.6 48.472 
L 62.6 76.82825 
Q 62.6 78.82825 64.6 78.82825 
z
" style="fill:#ffffff;opacity:0.8;stroke:#cccccc;stroke-linejoin:miter;"/>
    </g>
    <g id="line2d_19">
     <path d="M 66.6 54.570437 
L 86.6 54.570437 
" style="fill:none;stroke:#0000ff;stroke-linecap:square;stroke-width:1.5;"/>
    </g>
    <g id="line2d_20"/>
    <g id="text_17">
     <!-- MACD -->
     <g transform="translate(94.6 58.070437)scale(0.1 -0.1)">
      <defs>
       <path d="M 9.8125 72.90625 
L 24.515625 72.90625 
L 43.109375 23.296875 
L 61.8125 72.90625 
L 76.515625 72.90625 
L 76.515625 0 
L 66.890625 0 
L 66.890625 64.015625 
L 48.09375 14.015625 
L 38.1875 14.015625 
L 19.390625 64.015625 
L 19.390625 0 
L 9.8125 0 
z
" id="DejaVuSans-77"/>
       <path d="M 34.1875 63.1875 
L 20.796875 26.90625 
L 47.609375 26.90625 
z
M 28.609375 72.90625 
L 39.796875 72.90625 
L 67.578125 0 
L 57.328125 0 
L 50.6875 18.703125 
L 17.828125 18.703125 
L 11.1875 0 
L 0.78125 0 
z
" id="DejaVuSans-65"/>
       <path d="M 64.40625 67.28125 
L 64.40625 56.890625 
Q 59.421875 61.53125 53.78125 63.8125 
Q 48.140625 66.109375 41.796875 66.109375 
Q 29.296875 66.109375 22.65625 58.46875 
Q 16.015625 50.828125 16.015625 36.375 
Q 16.015625 21.96875 22.65625 14.328125 
Q 29.296875 6.6875 41.796875 6.6875 
Q 48.140625 6.6875 53.78125 8.984375 
Q 59.421875 11.28125 64.40625 15.921875 
L 64.40625 5.609375 
Q 59.234375 2.09375 53.4375 0.328125 
Q 47.65625 -1.421875 41.21875 -1.421875 
Q 24.65625 -1.421875 15.125 8.703125 
Q 5.609375 18.84375 5.609375 36.375 
Q 5.609375 53.953125 15.125 64.078125 
Q 24.65625 74.21875 41.21875 74.21875 
Q 47.75 74.21875 53.53125 72.484375 
Q 59.328125 70.75 64.40625 67.28125 
z
" id="DejaVuSans-67"/>
      </defs>
      <use xlink:href="#DejaVuSans-77"/>
      <use x="86.279297" xlink:href="#DejaVuSans-65"/>
      <use x="152.9375" xlink:href="#DejaVuSans-67"/>
      <use x="222.761719" xlink:href="#DejaVuSans-68"/>
     </g>
    </g>
    <g id="line2d_21">
     <path d="M 66.6 69.248562 
L 86.6 69.248562 
" style="fill:none;stroke:#ff6347;stroke-linecap:square;stroke-width:1.5;"/>
    </g>
    <g id="line2d_22"/>
    <g id="text_18">
     <!-- Signal -->
     <g transform="translate(94.6 72.748562)scale(0.1 -0.1)">
      <defs>
       <path d="M 53.515625 70.515625 
L 53.515625 60.890625 
Q 47.90625 63.578125 42.921875 64.890625 
Q 37.9375 66.21875 33.296875 66.21875 
Q 25.25 66.21875 20.875 63.09375 
Q 16.5 59.96875 16.5 54.203125 
Q 16.5 49.359375 19.40625 46.890625 
Q 22.3125 44.4375 30.421875 42.921875 
L 36.375 41.703125 
Q 47.40625 39.59375 52.65625 34.296875 
Q 57.90625 29 57.90625 20.125 
Q 57.90625 9.515625 50.796875 4.046875 
Q 43.703125 -1.421875 29.984375 -1.421875 
Q 24.8125 -1.421875 18.96875 -0.25 
Q 13.140625 0.921875 6.890625 3.21875 
L 6.890625 13.375 
Q 12.890625 10.015625 18.65625 8.296875 
Q 24.421875 6.59375 29.984375 6.59375 
Q 38.421875 6.59375 43.015625 9.90625 
Q 47.609375 13.234375 47.609375 19.390625 
Q 47.609375 24.75 44.3125 27.78125 
Q 41.015625 30.8125 33.5 32.328125 
L 27.484375 33.5 
Q 16.453125 35.6875 11.515625 40.375 
Q 6.59375 45.0625 6.59375 53.421875 
Q 6.59375 63.09375 13.40625 68.65625 
Q 20.21875 74.21875 32.171875 74.21875 
Q 37.3125 74.21875 42.625 73.28125 
Q 47.953125 72.359375 53.515625 70.515625 
z
" id="DejaVuSans-83"/>
       <path d="M 45.40625 27.984375 
Q 45.40625 37.75 41.375 43.109375 
Q 37.359375 48.484375 30.078125 48.484375 
Q 22.859375 48.484375 18.828125 43.109375 
Q 14.796875 37.75 14.796875 27.984375 
Q 14.796875 18.265625 18.828125 12.890625 
Q 22.859375 7.515625 30.078125 7.515625 
Q 37.359375 7.515625 41.375 12.890625 
Q 45.40625 18.265625 45.40625 27.984375 
z
M 54.390625 6.78125 
Q 54.390625 -7.171875 48.1875 -13.984375 
Q 42 -20.796875 29.203125 -20.796875 
Q 24.46875 -20.796875 20.265625 -20.09375 
Q 16.0625 -19.390625 12.109375 -17.921875 
L 12.109375 -9.1875 
Q 16.0625 -11.328125 19.921875 -12.34375 
Q 23.78125 -13.375 27.78125 -13.375 
Q 36.625 -13.375 41.015625 -8.765625 
Q 45.40625 -4.15625 45.40625 5.171875 
L 45.40625 9.625 
Q 42.625 4.78125 38.28125 2.390625 
Q 33.9375 0 27.875 0 
Q 17.828125 0 11.671875 7.65625 
Q 5.515625 15.328125 5.515625 27.984375 
Q 5.515625 40.671875 11.671875 48.328125 
Q 17.828125 56 27.875 56 
Q 33.9375 56 38.28125 53.609375 
Q 42.625 51.21875 45.40625 46.390625 
L 45.40625 54.6875 
L 54.390625 54.6875 
z
" id="DejaVuSans-103"/>
       <path d="M 9.421875 75.984375 
L 18.40625 75.984375 
L 18.40625 0 
L 9.421875 0 
z
" id="DejaVuSans-108"/>
      </defs>
      <use xlink:href="#DejaVuSans-83"/>
      <use x="63.476562" xlink:href="#DejaVuSans-105"/>
      <use x="91.259766" xlink:href="#DejaVuSans-103"/>
      <use x="154.736328" xlink:href="#DejaVuSans-110"/>
      <use x="218.115234" xlink:href="#DejaVuSans-97"/>
      <use x="279.394531" xlink:href="#DejaVuSans-108"/>
     </g>
    </g>
   </g>
  </g>
  <g id="text_19">
   <!-- MACD -->
   <g transform="translate(206.41875 19.0695)scale(0.16 -0.16)">
    <use xlink:href="#DejaVuSans-77"/>
    <use x="86.279297" xlink:href="#DejaVuSans-65"/>
    <use x="152.9375" xlink:href="#DejaVuSans-67"/>
    <use x="222.761719" xlink:href="#DejaVuSans-68"/>
   </g>
  </g>
 </g>
 <defs>
  <clipPath id="p870e4d5848">
   <rect height="266.112" width="357.12" x="57.6" y="41.472"/>
  </clipPath>
 </defs>
</svg>
