<?xml version="1.0" encoding="utf-8" standalone="no"?>
<!DOCTYPE svg PUBLIC "-//W3C//DTD SVG 1.1//EN"
  "http://www.w3.org/Graphics/SVG/1.1/DTD/svg11.dtd">
<!-- Created with matplotlib (https://matplotlib.org/) -->
<svg height="345.6pt" version="1.1" viewBox="0 0 460.8 345.6" width="460.8pt" xmlns="http://www.w3.org/2000/svg" xmlns:xlink="http://www.w3.org/1999/xlink">
 <metadata>
  <rdf:RDF xmlns:cc="http://creativecommons.org/ns#" xmlns:dc="http://purl.org/dc/elements/1.1/" xmlns:rdf="http://www.w3.org/1999/02/22-rdf-syntax-ns#">
   <cc:Work>
    <dc:type rdf:resource="http://purl.org/dc/dcmitype/StillImage"/>
    <dc:date>2021-01-03T19:00:06.108019</dc:date>
    <dc:format>image/svg+xml</dc:format>
    <dc:creator>
     <cc:Agent>
      <dc:title>Matplotlib v3.3.2, https://matplotlib.org/</dc:title>
     </cc:Agent>
    </dc:creator>
   </cc:Work>
  </rdf:RDF>
 </metadata>
 <defs>
  <style type="text/css">*{stroke-linecap:butt;stroke-linejoin:round;}</style>
 </defs>
 <g id="figure_1">
  <g id="patch_1">
   <path d="M 0 345.6 
L 460.8 345.6 
L 460.8 0 
L 0 0 
z
" style="fill:#ffffff;"/>
  </g>
  <g id="axes_1">
   <g id="patch_2">
    <path d="M 57.6 307.584 
L 414.72 307.584 
L 414.72 41.472 
L 57.6 41.472 
z
" style="fill:#ffffff;"/>
   </g>
   <g id="matplotlib.axis_1">
    <g id="xtick_1">
     <g id="line2d_1">
      <defs>
       <path d="M 0 0 
L 0 3.5 
" id="meab6197786" style="stroke:#000000;stroke-width:0.8;"/>
      </defs>
      <g>
       <use style="stroke:#000000;stroke-width:0.8;" x="73.832727" xlink:href="#meab6197786" y="307.584"/>
      </g>
     </g>
     <g id="text_1">
      <!-- 2020-01 -->
      <g transform="translate(52.941321 322.182437)scale(0.1 -0.1)">
       <defs>
        <path d="M 19.1875 8.296875 
L 53.609375 8.296875 
L 53.609375 0 
L 7.328125 0 
L 7.328125 8.296875 
Q 12.9375 14.109375 22.625 23.890625 
Q 32.328125 33.6875 34.8125 36.53125 
Q 39.546875 41.84375 41.421875 45.53125 
Q 43.3125 49.21875 43.3125 52.78125 
Q 43.3125 58.59375 39.234375 62.25 
Q 35.15625 65.921875 28.609375 65.921875 
Q 23.96875 65.921875 18.8125 64.3125 
Q 13.671875 62.703125 7.8125 59.421875 
L 7.8125 69.390625 
Q 13.765625 71.78125 18.9375 73 
Q 24.125 74.21875 28.421875 74.21875 
Q 39.75 74.21875 46.484375 68.546875 
Q 53.21875 62.890625 53.21875 53.421875 
Q 53.21875 48.921875 51.53125 44.890625 
Q 49.859375 40.875 45.40625 35.40625 
Q 44.1875 33.984375 37.640625 27.21875 
Q 31.109375 20.453125 19.1875 8.296875 
z
" id="DejaVuSans-50"/>
        <path d="M 31.78125 66.40625 
Q 24.171875 66.40625 20.328125 58.90625 
Q 16.5 51.421875 16.5 36.375 
Q 16.5 21.390625 20.328125 13.890625 
Q 24.171875 6.390625 31.78125 6.390625 
Q 39.453125 6.390625 43.28125 13.890625 
Q 47.125 21.390625 47.125 36.375 
Q 47.125 51.421875 43.28125 58.90625 
Q 39.453125 66.40625 31.78125 66.40625 
z
M 31.78125 74.21875 
Q 44.046875 74.21875 50.515625 64.515625 
Q 56.984375 54.828125 56.984375 36.375 
Q 56.984375 17.96875 50.515625 8.265625 
Q 44.046875 -1.421875 31.78125 -1.421875 
Q 19.53125 -1.421875 13.0625 8.265625 
Q 6.59375 17.96875 6.59375 36.375 
Q 6.59375 54.828125 13.0625 64.515625 
Q 19.53125 74.21875 31.78125 74.21875 
z
" id="DejaVuSans-48"/>
        <path d="M 4.890625 31.390625 
L 31.203125 31.390625 
L 31.203125 23.390625 
L 4.890625 23.390625 
z
" id="DejaVuSans-45"/>
        <path d="M 12.40625 8.296875 
L 28.515625 8.296875 
L 28.515625 63.921875 
L 10.984375 60.40625 
L 10.984375 69.390625 
L 28.421875 72.90625 
L 38.28125 72.90625 
L 38.28125 8.296875 
L 54.390625 8.296875 
L 54.390625 0 
L 12.40625 0 
z
" id="DejaVuSans-49"/>
       </defs>
       <use xlink:href="#DejaVuSans-50"/>
       <use x="63.623047" xlink:href="#DejaVuSans-48"/>
       <use x="127.246094" xlink:href="#DejaVuSans-50"/>
       <use x="190.869141" xlink:href="#DejaVuSans-48"/>
       <use x="254.492188" xlink:href="#DejaVuSans-45"/>
       <use x="290.576172" xlink:href="#DejaVuSans-48"/>
       <use x="354.199219" xlink:href="#DejaVuSans-49"/>
      </g>
     </g>
    </g>
    <g id="xtick_2">
     <g id="line2d_2">
      <g>
       <use style="stroke:#000000;stroke-width:0.8;" x="126.765534" xlink:href="#meab6197786" y="307.584"/>
      </g>
     </g>
     <g id="text_2">
      <!-- 2020-03 -->
      <g transform="translate(105.874127 322.182437)scale(0.1 -0.1)">
       <defs>
        <path d="M 40.578125 39.3125 
Q 47.65625 37.796875 51.625 33 
Q 55.609375 28.21875 55.609375 21.1875 
Q 55.609375 10.40625 48.1875 4.484375 
Q 40.765625 -1.421875 27.09375 -1.421875 
Q 22.515625 -1.421875 17.65625 -0.515625 
Q 12.796875 0.390625 7.625 2.203125 
L 7.625 11.71875 
Q 11.71875 9.328125 16.59375 8.109375 
Q 21.484375 6.890625 26.8125 6.890625 
Q 36.078125 6.890625 40.9375 10.546875 
Q 45.796875 14.203125 45.796875 21.1875 
Q 45.796875 27.640625 41.28125 31.265625 
Q 36.765625 34.90625 28.71875 34.90625 
L 20.21875 34.90625 
L 20.21875 43.015625 
L 29.109375 43.015625 
Q 36.375 43.015625 40.234375 45.921875 
Q 44.09375 48.828125 44.09375 54.296875 
Q 44.09375 59.90625 40.109375 62.90625 
Q 36.140625 65.921875 28.71875 65.921875 
Q 24.65625 65.921875 20.015625 65.03125 
Q 15.375 64.15625 9.8125 62.3125 
L 9.8125 71.09375 
Q 15.4375 72.65625 20.34375 73.4375 
Q 25.25 74.21875 29.59375 74.21875 
Q 40.828125 74.21875 47.359375 69.109375 
Q 53.90625 64.015625 53.90625 55.328125 
Q 53.90625 49.265625 50.4375 45.09375 
Q 46.96875 40.921875 40.578125 39.3125 
z
" id="DejaVuSans-51"/>
       </defs>
       <use xlink:href="#DejaVuSans-50"/>
       <use x="63.623047" xlink:href="#DejaVuSans-48"/>
       <use x="127.246094" xlink:href="#DejaVuSans-50"/>
       <use x="190.869141" xlink:href="#DejaVuSans-48"/>
       <use x="254.492188" xlink:href="#DejaVuSans-45"/>
       <use x="290.576172" xlink:href="#DejaVuSans-48"/>
       <use x="354.199219" xlink:href="#DejaVuSans-51"/>
      </g>
     </g>
    </g>
    <g id="xtick_3">
     <g id="line2d_3">
      <g>
       <use style="stroke:#000000;stroke-width:0.8;" x="180.580553" xlink:href="#meab6197786" y="307.584"/>
      </g>
     </g>
     <g id="text_3">
      <!-- 2020-05 -->
      <g transform="translate(159.689147 322.182437)scale(0.1 -0.1)">
       <defs>
        <path d="M 10.796875 72.90625 
L 49.515625 72.90625 
L 49.515625 64.59375 
L 19.828125 64.59375 
L 19.828125 46.734375 
Q 21.96875 47.46875 24.109375 47.828125 
Q 26.265625 48.1875 28.421875 48.1875 
Q 40.625 48.1875 47.75 41.5 
Q 54.890625 34.8125 54.890625 23.390625 
Q 54.890625 11.625 47.5625 5.09375 
Q 40.234375 -1.421875 26.90625 -1.421875 
Q 22.3125 -1.421875 17.546875 -0.640625 
Q 12.796875 0.140625 7.71875 1.703125 
L 7.71875 11.625 
Q 12.109375 9.234375 16.796875 8.0625 
Q 21.484375 6.890625 26.703125 6.890625 
Q 35.15625 6.890625 40.078125 11.328125 
Q 45.015625 15.765625 45.015625 23.390625 
Q 45.015625 31 40.078125 35.4375 
Q 35.15625 39.890625 26.703125 39.890625 
Q 22.75 39.890625 18.8125 39.015625 
Q 14.890625 38.140625 10.796875 36.28125 
z
" id="DejaVuSans-53"/>
       </defs>
       <use xlink:href="#DejaVuSans-50"/>
       <use x="63.623047" xlink:href="#DejaVuSans-48"/>
       <use x="127.246094" xlink:href="#DejaVuSans-50"/>
       <use x="190.869141" xlink:href="#DejaVuSans-48"/>
       <use x="254.492188" xlink:href="#DejaVuSans-45"/>
       <use x="290.576172" xlink:href="#DejaVuSans-48"/>
       <use x="354.199219" xlink:href="#DejaVuSans-53"/>
      </g>
     </g>
    </g>
    <g id="xtick_4">
     <g id="line2d_4">
      <g>
       <use style="stroke:#000000;stroke-width:0.8;" x="234.395573" xlink:href="#meab6197786" y="307.584"/>
      </g>
     </g>
     <g id="text_4">
      <!-- 2020-07 -->
      <g transform="translate(213.504167 322.182437)scale(0.1 -0.1)">
       <defs>
        <path d="M 8.203125 72.90625 
L 55.078125 72.90625 
L 55.078125 68.703125 
L 28.609375 0 
L 18.3125 0 
L 43.21875 64.59375 
L 8.203125 64.59375 
z
" id="DejaVuSans-55"/>
       </defs>
       <use xlink:href="#DejaVuSans-50"/>
       <use x="63.623047" xlink:href="#DejaVuSans-48"/>
       <use x="127.246094" xlink:href="#DejaVuSans-50"/>
       <use x="190.869141" xlink:href="#DejaVuSans-48"/>
       <use x="254.492188" xlink:href="#DejaVuSans-45"/>
       <use x="290.576172" xlink:href="#DejaVuSans-48"/>
       <use x="354.199219" xlink:href="#DejaVuSans-55"/>
      </g>
     </g>
    </g>
    <g id="xtick_5">
     <g id="line2d_5">
      <g>
       <use style="stroke:#000000;stroke-width:0.8;" x="289.092806" xlink:href="#meab6197786" y="307.584"/>
      </g>
     </g>
     <g id="text_5">
      <!-- 2020-09 -->
      <g transform="translate(268.2014 322.182437)scale(0.1 -0.1)">
       <defs>
        <path d="M 10.984375 1.515625 
L 10.984375 10.5 
Q 14.703125 8.734375 18.5 7.8125 
Q 22.3125 6.890625 25.984375 6.890625 
Q 35.75 6.890625 40.890625 13.453125 
Q 46.046875 20.015625 46.78125 33.40625 
Q 43.953125 29.203125 39.59375 26.953125 
Q 35.25 24.703125 29.984375 24.703125 
Q 19.046875 24.703125 12.671875 31.3125 
Q 6.296875 37.9375 6.296875 49.421875 
Q 6.296875 60.640625 12.9375 67.421875 
Q 19.578125 74.21875 30.609375 74.21875 
Q 43.265625 74.21875 49.921875 64.515625 
Q 56.59375 54.828125 56.59375 36.375 
Q 56.59375 19.140625 48.40625 8.859375 
Q 40.234375 -1.421875 26.421875 -1.421875 
Q 22.703125 -1.421875 18.890625 -0.6875 
Q 15.09375 0.046875 10.984375 1.515625 
z
M 30.609375 32.421875 
Q 37.25 32.421875 41.125 36.953125 
Q 45.015625 41.5 45.015625 49.421875 
Q 45.015625 57.28125 41.125 61.84375 
Q 37.25 66.40625 30.609375 66.40625 
Q 23.96875 66.40625 20.09375 61.84375 
Q 16.21875 57.28125 16.21875 49.421875 
Q 16.21875 41.5 20.09375 36.953125 
Q 23.96875 32.421875 30.609375 32.421875 
z
" id="DejaVuSans-57"/>
       </defs>
       <use xlink:href="#DejaVuSans-50"/>
       <use x="63.623047" xlink:href="#DejaVuSans-48"/>
       <use x="127.246094" xlink:href="#DejaVuSans-50"/>
       <use x="190.869141" xlink:href="#DejaVuSans-48"/>
       <use x="254.492188" xlink:href="#DejaVuSans-45"/>
       <use x="290.576172" xlink:href="#DejaVuSans-48"/>
       <use x="354.199219" xlink:href="#DejaVuSans-57"/>
      </g>
     </g>
    </g>
    <g id="xtick_6">
     <g id="line2d_6">
      <g>
       <use style="stroke:#000000;stroke-width:0.8;" x="342.907826" xlink:href="#meab6197786" y="307.584"/>
      </g>
     </g>
     <g id="text_6">
      <!-- 2020-11 -->
      <g transform="translate(322.01642 322.182437)scale(0.1 -0.1)">
       <use xlink:href="#DejaVuSans-50"/>
       <use x="63.623047" xlink:href="#DejaVuSans-48"/>
       <use x="127.246094" xlink:href="#DejaVuSans-50"/>
       <use x="190.869141" xlink:href="#DejaVuSans-48"/>
       <use x="254.492188" xlink:href="#DejaVuSans-45"/>
       <use x="290.576172" xlink:href="#DejaVuSans-49"/>
       <use x="354.199219" xlink:href="#DejaVuSans-49"/>
      </g>
     </g>
    </g>
    <g id="xtick_7">
     <g id="line2d_7">
      <g>
       <use style="stroke:#000000;stroke-width:0.8;" x="396.722846" xlink:href="#meab6197786" y="307.584"/>
      </g>
     </g>
     <g id="text_7">
      <!-- 2021-01 -->
      <g transform="translate(375.83144 322.182437)scale(0.1 -0.1)">
       <use xlink:href="#DejaVuSans-50"/>
       <use x="63.623047" xlink:href="#DejaVuSans-48"/>
       <use x="127.246094" xlink:href="#DejaVuSans-50"/>
       <use x="190.869141" xlink:href="#DejaVuSans-49"/>
       <use x="254.492188" xlink:href="#DejaVuSans-45"/>
       <use x="290.576172" xlink:href="#DejaVuSans-48"/>
       <use x="354.199219" xlink:href="#DejaVuSans-49"/>
      </g>
     </g>
    </g>
   </g>
   <g id="matplotlib.axis_2">
    <g id="ytick_1">
     <g id="line2d_8">
      <defs>
       <path d="M 0 0 
L -3.5 0 
" id="mfa29a05fe6" style="stroke:#000000;stroke-width:0.8;"/>
      </defs>
      <g>
       <use style="stroke:#000000;stroke-width:0.8;" x="57.6" xlink:href="#mfa29a05fe6" y="290.793134"/>
      </g>
     </g>
     <g id="text_8">
      <!-- −1000 -->
      <g transform="translate(16.770313 294.592352)scale(0.1 -0.1)">
       <defs>
        <path d="M 10.59375 35.5 
L 73.1875 35.5 
L 73.1875 27.203125 
L 10.59375 27.203125 
z
" id="DejaVuSans-8722"/>
       </defs>
       <use xlink:href="#DejaVuSans-8722"/>
       <use x="83.789062" xlink:href="#DejaVuSans-49"/>
       <use x="147.412109" xlink:href="#DejaVuSans-48"/>
       <use x="211.035156" xlink:href="#DejaVuSans-48"/>
       <use x="274.658203" xlink:href="#DejaVuSans-48"/>
      </g>
     </g>
    </g>
    <g id="ytick_2">
     <g id="line2d_9">
      <g>
       <use style="stroke:#000000;stroke-width:0.8;" x="57.6" xlink:href="#mfa29a05fe6" y="232.091168"/>
      </g>
     </g>
     <g id="text_9">
      <!-- 0 -->
      <g transform="translate(44.2375 235.890387)scale(0.1 -0.1)">
       <use xlink:href="#DejaVuSans-48"/>
      </g>
     </g>
    </g>
    <g id="ytick_3">
     <g id="line2d_10">
      <g>
       <use style="stroke:#000000;stroke-width:0.8;" x="57.6" xlink:href="#mfa29a05fe6" y="173.389203"/>
      </g>
     </g>
     <g id="text_10">
      <!-- 1000 -->
      <g transform="translate(25.15 177.188422)scale(0.1 -0.1)">
       <use xlink:href="#DejaVuSans-49"/>
       <use x="63.623047" xlink:href="#DejaVuSans-48"/>
       <use x="127.246094" xlink:href="#DejaVuSans-48"/>
       <use x="190.869141" xlink:href="#DejaVuSans-48"/>
      </g>
     </g>
    </g>
    <g id="ytick_4">
     <g id="line2d_11">
      <g>
       <use style="stroke:#000000;stroke-width:0.8;" x="57.6" xlink:href="#mfa29a05fe6" y="114.687238"/>
      </g>
     </g>
     <g id="text_11">
      <!-- 2000 -->
      <g transform="translate(25.15 118.486457)scale(0.1 -0.1)">
       <use xlink:href="#DejaVuSans-50"/>
       <use x="63.623047" xlink:href="#DejaVuSans-48"/>
       <use x="127.246094" xlink:href="#DejaVuSans-48"/>
       <use x="190.869141" xlink:href="#DejaVuSans-48"/>
      </g>
     </g>
    </g>
    <g id="ytick_5">
     <g id="line2d_12">
      <g>
       <use style="stroke:#000000;stroke-width:0.8;" x="57.6" xlink:href="#mfa29a05fe6" y="55.985273"/>
      </g>
     </g>
     <g id="text_12">
      <!-- 3000 -->
      <g transform="translate(25.15 59.784491)scale(0.1 -0.1)">
       <use xlink:href="#DejaVuSans-51"/>
       <use x="63.623047" xlink:href="#DejaVuSans-48"/>
       <use x="127.246094" xlink:href="#DejaVuSans-48"/>
       <use x="190.869141" xlink:href="#DejaVuSans-48"/>
      </g>
     </g>
    </g>
   </g>
   <g id="line2d_13">
    <path clip-path="url(#pbf341675e0)" d="M 73.832727 232.091168 
L 398.487273 232.091168 
L 398.487273 232.091168 
" style="fill:none;stroke:#1f77b4;stroke-dasharray:5.55,2.4;stroke-dashoffset:0;stroke-width:1.5;"/>
   </g>
   <g id="line2d_14">
    <path clip-path="url(#pbf341675e0)" d="M 73.832727 232.091168 
L 74.714941 233.153667 
L 75.597154 232.171077 
L 76.479368 231.356898 
L 77.361581 230.725237 
L 78.243794 228.346984 
L 79.126008 224.672265 
L 80.008221 222.415755 
L 80.890435 221.816169 
L 81.772648 219.719908 
L 82.654862 219.027884 
L 83.537075 217.873822 
L 84.419289 217.475403 
L 85.301502 214.042744 
L 86.183715 211.554055 
L 87.065929 210.267086 
L 87.948142 208.695788 
L 88.830356 207.680192 
L 89.712569 208.111407 
L 90.594783 209.037601 
L 91.476996 209.574949 
L 92.359209 210.564384 
L 93.241423 212.843937 
L 94.123636 214.641596 
L 95.00585 216.714287 
L 95.888063 217.269492 
L 96.770277 216.474339 
L 97.65249 213.726493 
L 98.534704 212.264357 
L 99.416917 210.322669 
L 100.29913 209.810859 
L 101.181344 209.464624 
L 102.063557 209.711486 
L 102.945771 210.353974 
L 103.827984 211.649703 
L 104.710198 210.846458 
L 105.592411 209.817028 
L 107.356838 208.192672 
L 108.239051 206.603879 
L 109.121265 207.094494 
L 110.885692 204.751674 
L 111.767905 204.771962 
L 112.650119 204.50598 
L 113.532332 206.736691 
L 114.414545 208.6648 
L 115.296759 211.473168 
L 116.178972 211.661637 
L 117.061186 214.816175 
L 117.943399 217.419783 
L 119.707826 220.895538 
L 120.59004 220.910626 
L 121.472253 222.495152 
L 122.354466 225.488259 
L 123.23668 230.361372 
L 125.001107 237.434745 
L 125.88332 240.836119 
L 126.765534 243.392654 
L 127.647747 243.459316 
L 128.52996 244.122207 
L 129.412174 244.505834 
L 130.294387 243.234853 
L 131.176601 241.681838 
L 132.058814 241.56957 
L 133.823241 248.710762 
L 134.705455 251.341967 
L 135.587668 252.940831 
L 136.469881 268.177894 
L 138.234308 284.349811 
L 139.998735 293.806748 
L 140.880949 295.349322 
L 141.763162 295.488 
L 144.409802 283.379076 
L 145.292016 281.664575 
L 146.174229 276.528667 
L 147.056443 270.716057 
L 148.82087 261.977782 
L 149.703083 258.466229 
L 150.585296 257.625579 
L 151.46751 258.289356 
L 152.349723 255.29473 
L 153.231937 253.240657 
L 155.878577 244.860143 
L 156.760791 242.318823 
L 157.643004 240.652815 
L 159.407431 233.4681 
L 160.289644 230.9171 
L 161.171858 229.054522 
L 162.054071 229.526368 
L 162.936285 230.374354 
L 163.818498 229.515789 
L 164.700711 230.653732 
L 165.582925 230.9902 
L 166.465138 232.006007 
L 168.229565 230.546321 
L 169.111779 229.347382 
L 169.993992 228.70136 
L 171.758419 230.373081 
L 172.640632 229.746092 
L 173.522846 227.319035 
L 175.287273 224.100462 
L 177.0517 221.72804 
L 177.933913 220.694961 
L 178.816126 217.443191 
L 179.69834 212.874174 
L 180.580553 209.369122 
L 181.462767 206.320603 
L 182.34498 204.56504 
L 184.109407 202.680369 
L 185.873834 198.864307 
L 186.756047 194.965724 
L 187.638261 193.485632 
L 188.520474 198.738217 
L 189.402688 201.399746 
L 190.284901 204.429989 
L 191.167115 205.390222 
L 192.049328 204.183253 
L 192.931542 203.831886 
L 193.813755 204.152795 
L 194.695968 203.270594 
L 195.578182 203.556765 
L 196.460395 203.388751 
L 197.342609 203.666368 
L 198.224822 206.254435 
L 199.107036 209.313394 
L 199.989249 211.927296 
L 200.871462 214.128692 
L 201.753676 218.056695 
L 202.635889 220.850622 
L 203.518103 222.924189 
L 204.400316 223.319122 
L 205.28253 222.602699 
L 206.164743 221.669778 
L 207.046957 221.084148 
L 207.92917 220.658038 
L 208.811383 217.778042 
L 209.693597 218.223047 
L 210.57581 219.033651 
L 211.458024 218.378736 
L 212.340237 218.757347 
L 213.222451 219.47847 
L 214.104664 219.67763 
L 214.986877 220.262678 
L 215.869091 220.565093 
L 216.751304 220.622208 
L 218.515731 223.936116 
L 219.397945 225.357375 
L 220.280158 227.880564 
L 222.044585 228.658781 
L 222.926798 229.146348 
L 223.809012 230.363127 
L 224.691225 231.168236 
L 225.573439 231.68254 
L 226.455652 231.454337 
L 227.337866 230.735784 
L 228.220079 230.56951 
L 229.102292 231.562526 
L 229.984506 233.032941 
L 230.866719 234.00208 
L 231.748933 235.548855 
L 232.631146 236.231259 
L 233.51336 236.492852 
L 234.395573 236.602851 
L 235.277787 236.422561 
L 237.042213 236.960204 
L 237.924427 237.128201 
L 238.80664 236.603318 
L 240.571067 235.149974 
L 241.453281 233.984948 
L 242.335494 234.264069 
L 244.099921 233.471821 
L 244.982134 233.099522 
L 246.746561 233.26145 
L 247.628775 233.732029 
L 248.510988 234.054412 
L 249.393202 234.200153 
L 250.275415 234.216069 
L 252.039842 233.82921 
L 252.922055 232.917266 
L 254.686482 230.189727 
L 255.568696 228.939953 
L 256.450909 227.480046 
L 257.333123 223.633353 
L 258.215336 217.509126 
L 259.097549 212.890286 
L 259.979763 209.157873 
L 260.861976 206.626084 
L 261.74419 203.393662 
L 262.626403 201.435785 
L 264.39083 200.299056 
L 265.273043 200.461393 
L 266.155257 198.245584 
L 267.03747 196.752677 
L 267.919684 197.197477 
L 268.801897 197.484938 
L 269.684111 196.49445 
L 270.566324 196.956591 
L 271.448538 200.015918 
L 272.330751 201.733699 
L 273.212964 202.515137 
L 274.095178 202.826971 
L 274.977391 203.345295 
L 275.859605 204.321687 
L 276.741818 203.197538 
L 277.624032 204.561324 
L 278.506245 206.339722 
L 279.388458 209.200765 
L 281.152885 213.432533 
L 282.035099 214.715191 
L 282.917312 217.628696 
L 283.799526 219.701096 
L 284.681739 222.199768 
L 285.563953 223.426748 
L 286.446166 224.333115 
L 288.210593 224.558496 
L 289.092806 223.377616 
L 289.97502 223.340813 
L 290.857233 225.719429 
L 291.739447 232.38659 
L 294.386087 245.53811 
L 295.2683 247.477689 
L 296.150514 250.152256 
L 297.032727 250.597178 
L 297.914941 250.549789 
L 298.797154 250.040886 
L 299.679368 250.01499 
L 300.561581 248.070788 
L 301.443794 245.666743 
L 302.326008 242.673809 
L 303.208221 240.659138 
L 304.090435 238.997944 
L 304.972648 237.079452 
L 305.854862 236.437194 
L 306.737075 237.41437 
L 307.619289 238.096066 
L 308.501502 239.831375 
L 309.383715 239.169111 
L 311.148142 237.5023 
L 312.030356 236.759418 
L 312.912569 235.60571 
L 313.794783 235.124326 
L 314.676996 234.81893 
L 315.559209 235.086993 
L 317.323636 235.913976 
L 318.20585 235.66866 
L 319.088063 234.987112 
L 319.970277 235.201119 
L 320.85249 235.07051 
L 321.734704 233.754915 
L 322.616917 231.928176 
L 325.263557 224.515586 
L 326.145771 223.138266 
L 327.910198 221.1491 
L 328.792411 221.341344 
L 329.674625 221.406592 
L 330.556838 220.890855 
L 331.439051 219.483162 
L 332.321265 217.753967 
L 334.085692 207.606898 
L 335.850119 201.244299 
L 336.732332 199.572526 
L 337.614545 198.498381 
L 338.496759 195.366092 
L 339.378972 195.02714 
L 341.143399 193.704329 
L 342.025613 192.577319 
L 342.907826 192.304473 
L 343.79004 193.460753 
L 345.554466 191.840186 
L 346.43668 184.956698 
L 347.318893 180.12211 
L 348.201107 180.415511 
L 349.08332 178.21143 
L 349.965534 177.822557 
L 350.847747 178.236666 
L 351.72996 177.334053 
L 352.612174 174.467041 
L 353.494387 172.740209 
L 354.376601 173.256017 
L 355.258814 174.833877 
L 356.141028 173.199462 
L 357.023241 168.114597 
L 357.905455 164.349703 
L 358.787668 162.032381 
L 359.669881 156.986355 
L 360.552095 153.785415 
L 361.434308 153.45301 
L 362.316522 154.284465 
L 363.198735 152.172109 
L 364.080949 153.47764 
L 365.845375 170.684397 
L 366.727589 174.984271 
L 367.609802 176.856481 
L 368.492016 171.874514 
L 369.374229 172.932401 
L 370.256443 172.417018 
L 371.138656 171.644114 
L 372.02087 175.440143 
L 372.903083 176.716081 
L 373.785296 177.275446 
L 374.66751 179.281089 
L 375.549723 185.49479 
L 376.431937 189.810648 
L 378.196364 200.623465 
L 379.078577 201.721798 
L 380.843004 200.74094 
L 381.725217 199.902144 
L 382.607431 190.689706 
L 383.489644 177.095537 
L 385.254071 154.007814 
L 386.136285 147.602404 
L 387.018498 147.015625 
L 387.900711 142.378664 
L 388.782925 142.52293 
L 389.665138 141.312317 
L 390.547352 136.817872 
L 391.429565 126.242957 
L 392.311779 120.089675 
L 393.193992 112.828892 
L 394.076206 107.037809 
L 394.958419 96.751441 
L 395.840632 89.905806 
L 396.722846 84.123365 
L 398.487273 53.568 
L 398.487273 53.568 
" style="fill:none;stroke:#0000ff;stroke-linecap:square;stroke-width:1.5;"/>
   </g>
   <g id="line2d_15">
    <path clip-path="url(#pbf341675e0)" d="M 73.832727 232.091168 
L 74.714941 232.303668 
L 75.597154 232.27715 
L 77.361581 231.819527 
L 78.243794 231.125018 
L 80.008221 228.350725 
L 85.301502 220.318089 
L 87.948142 215.263672 
L 88.830356 213.746976 
L 89.712569 212.619862 
L 90.594783 211.90341 
L 91.476996 211.437718 
L 92.359209 211.263051 
L 93.241423 211.579228 
L 94.123636 212.191702 
L 95.888063 213.930873 
L 96.770277 214.439567 
L 97.65249 214.296952 
L 98.534704 213.890433 
L 100.29913 212.503676 
L 101.181344 211.895865 
L 102.063557 211.458989 
L 102.945771 211.237986 
L 103.827984 211.32033 
L 104.710198 211.225555 
L 106.474625 210.553579 
L 107.356838 210.081398 
L 108.239051 209.385894 
L 109.121265 208.927614 
L 112.650119 206.526459 
L 113.532332 206.568505 
L 114.414545 206.987764 
L 116.178972 208.640203 
L 117.061186 209.875398 
L 120.59004 215.8135 
L 121.472253 217.14983 
L 122.354466 218.817516 
L 124.118893 223.716054 
L 127.647747 234.409125 
L 128.52996 236.351741 
L 129.412174 237.98256 
L 130.294387 239.033018 
L 132.058814 239.96414 
L 132.941028 241.0475 
L 134.705455 244.332516 
L 135.587668 246.054179 
L 136.469881 250.478922 
L 138.234308 261.393117 
L 139.998735 272.322779 
L 140.880949 276.928087 
L 141.763162 280.64007 
L 142.645375 282.76701 
L 143.527589 283.648808 
L 144.409802 283.594861 
L 145.292016 283.208804 
L 146.174229 281.872777 
L 147.056443 279.641433 
L 148.82087 273.940817 
L 149.703083 270.845899 
L 150.585296 268.201835 
L 152.349723 264.034417 
L 154.11415 259.570681 
L 159.407431 244.501024 
L 161.171858 239.238296 
L 162.054071 237.29591 
L 163.818498 234.632437 
L 164.700711 233.836696 
L 165.582925 233.267397 
L 167.347352 232.664842 
L 168.229565 232.241138 
L 169.993992 231.070182 
L 170.876206 230.759849 
L 172.640632 230.495215 
L 173.522846 229.859979 
L 174.405059 229.032979 
L 177.0517 225.95933 
L 177.933913 224.906456 
L 178.816126 223.413803 
L 180.580553 218.918526 
L 182.34498 214.032161 
L 184.109407 210.090407 
L 185.873834 206.338467 
L 187.638261 201.948261 
L 188.520474 201.306252 
L 189.402688 201.324951 
L 191.167115 202.634811 
L 192.049328 202.9445 
L 193.813755 203.328141 
L 196.460395 203.369477 
L 197.342609 203.428855 
L 198.224822 203.993971 
L 199.107036 205.057855 
L 200.871462 207.971133 
L 202.635889 212.160721 
L 203.518103 214.313414 
L 204.400316 216.114556 
L 205.28253 217.412184 
L 206.164743 218.263703 
L 207.046957 218.827792 
L 207.92917 219.193841 
L 208.811383 218.910682 
L 209.693597 218.773155 
L 210.57581 218.825254 
L 212.340237 218.74023 
L 214.986877 219.289198 
L 216.751304 219.759943 
L 217.633518 220.268635 
L 219.397945 221.87318 
L 221.162372 224.109746 
L 224.691225 227.632491 
L 225.573439 228.442501 
L 226.455652 229.044868 
L 229.102292 230.00878 
L 230.866719 231.291305 
L 232.631146 232.960504 
L 234.395573 234.254149 
L 237.042213 235.467975 
L 237.924427 235.80002 
L 238.80664 235.96068 
L 239.688854 235.938493 
L 240.571067 235.780789 
L 241.453281 235.421621 
L 244.099921 234.629413 
L 245.864348 234.104419 
L 246.746561 233.935825 
L 248.510988 233.926935 
L 251.157628 234.036238 
L 252.039842 233.994832 
L 252.922055 233.779319 
L 253.804269 233.317506 
L 255.568696 231.941551 
L 256.450909 231.04925 
L 257.333123 229.56607 
L 258.215336 227.154681 
L 260.861976 218.34363 
L 262.626403 212.570066 
L 263.508617 210.234444 
L 264.39083 208.247366 
L 267.919684 202.120726 
L 269.684111 200.253745 
L 270.566324 199.594314 
L 271.448538 199.678635 
L 274.095178 201.025191 
L 275.859605 202.055707 
L 276.741818 202.284073 
L 277.624032 202.739523 
L 278.506245 203.459563 
L 279.388458 204.607803 
L 281.152885 207.439465 
L 282.035099 208.89461 
L 283.799526 212.453361 
L 285.563953 216.207463 
L 286.446166 217.832594 
L 287.328379 219.159451 
L 288.210593 220.23926 
L 290.857233 222.233252 
L 291.739447 224.263919 
L 292.62166 226.79491 
L 296.150514 238.727219 
L 297.032727 241.101211 
L 297.914941 242.990926 
L 298.797154 244.400918 
L 299.679368 245.523733 
L 300.561581 246.033144 
L 301.443794 245.959864 
L 302.326008 245.302653 
L 304.090435 243.298749 
L 305.854862 240.93135 
L 306.737075 240.227954 
L 307.619289 239.801576 
L 308.501502 239.807536 
L 309.383715 239.679851 
L 311.148142 239.024656 
L 312.030356 238.571608 
L 314.676996 236.889872 
L 315.559209 236.529296 
L 316.441423 236.331522 
L 318.20585 236.132142 
L 319.970277 235.762733 
L 320.85249 235.624288 
L 321.734704 235.250414 
L 322.616917 234.585966 
L 323.49913 233.542866 
L 324.381344 232.24574 
L 327.027984 227.783678 
L 327.910198 226.456762 
L 328.792411 225.433678 
L 331.439051 223.001256 
L 332.321265 221.951799 
L 333.203478 220.041813 
L 334.967905 214.914462 
L 336.732332 209.658849 
L 339.378972 203.017126 
L 341.143399 199.76389 
L 342.025613 198.326576 
L 342.907826 197.122155 
L 345.554466 194.879337 
L 346.43668 192.894809 
L 347.318893 190.340269 
L 349.965534 184.625743 
L 352.612174 180.609531 
L 353.494387 179.035666 
L 354.376601 177.879736 
L 355.258814 177.270565 
L 356.141028 176.456344 
L 357.023241 174.787995 
L 358.787668 170.566745 
L 361.434308 162.720695 
L 363.198735 159.261181 
L 364.080949 158.104473 
L 364.963162 159.006143 
L 365.845375 161.341794 
L 367.609802 166.627527 
L 369.374229 168.72802 
L 370.256443 169.46582 
L 371.138656 169.901478 
L 374.66751 174.396664 
L 375.549723 176.616289 
L 376.431937 179.255161 
L 377.31415 182.417989 
L 378.196364 186.059084 
L 379.078577 189.191627 
L 379.960791 191.603984 
L 380.843004 193.431375 
L 381.725217 194.725529 
L 382.607431 193.918365 
L 383.489644 190.553799 
L 384.371858 185.556713 
L 386.136285 172.918028 
L 387.900711 162.665771 
L 388.782925 158.637202 
L 390.547352 151.501355 
L 392.311779 141.177675 
L 394.076206 129.813897 
L 396.722846 110.058501 
L 397.605059 101.674007 
L 398.487273 92.052806 
L 398.487273 92.052806 
" style="fill:none;stroke:#ff6347;stroke-linecap:square;stroke-width:1.5;"/>
   </g>
   <g id="patch_3">
    <path d="M 57.6 307.584 
L 57.6 41.472 
" style="fill:none;stroke:#000000;stroke-linecap:square;stroke-linejoin:miter;stroke-width:0.8;"/>
   </g>
   <g id="patch_4">
    <path d="M 414.72 307.584 
L 414.72 41.472 
" style="fill:none;stroke:#000000;stroke-linecap:square;stroke-linejoin:miter;stroke-width:0.8;"/>
   </g>
   <g id="patch_5">
    <path d="M 57.6 307.584 
L 414.72 307.584 
" style="fill:none;stroke:#000000;stroke-linecap:square;stroke-linejoin:miter;stroke-width:0.8;"/>
   </g>
   <g id="patch_6">
    <path d="M 57.6 41.472 
L 414.72 41.472 
" style="fill:none;stroke:#000000;stroke-linecap:square;stroke-linejoin:miter;stroke-width:0.8;"/>
   </g>
   <g id="text_13">
    <!-- Data source: coindesk -->
    <g transform="translate(180.640469 35.472)scale(0.1 -0.1)">
     <defs>
      <path d="M 19.671875 64.796875 
L 19.671875 8.109375 
L 31.59375 8.109375 
Q 46.6875 8.109375 53.6875 14.9375 
Q 60.6875 21.78125 60.6875 36.53125 
Q 60.6875 51.171875 53.6875 57.984375 
Q 46.6875 64.796875 31.59375 64.796875 
z
M 9.8125 72.90625 
L 30.078125 72.90625 
Q 51.265625 72.90625 61.171875 64.09375 
Q 71.09375 55.28125 71.09375 36.53125 
Q 71.09375 17.671875 61.125 8.828125 
Q 51.171875 0 30.078125 0 
L 9.8125 0 
z
" id="DejaVuSans-68"/>
      <path d="M 34.28125 27.484375 
Q 23.390625 27.484375 19.1875 25 
Q 14.984375 22.515625 14.984375 16.5 
Q 14.984375 11.71875 18.140625 8.90625 
Q 21.296875 6.109375 26.703125 6.109375 
Q 34.1875 6.109375 38.703125 11.40625 
Q 43.21875 16.703125 43.21875 25.484375 
L 43.21875 27.484375 
z
M 52.203125 31.203125 
L 52.203125 0 
L 43.21875 0 
L 43.21875 8.296875 
Q 40.140625 3.328125 35.546875 0.953125 
Q 30.953125 -1.421875 24.3125 -1.421875 
Q 15.921875 -1.421875 10.953125 3.296875 
Q 6 8.015625 6 15.921875 
Q 6 25.140625 12.171875 29.828125 
Q 18.359375 34.515625 30.609375 34.515625 
L 43.21875 34.515625 
L 43.21875 35.40625 
Q 43.21875 41.609375 39.140625 45 
Q 35.0625 48.390625 27.6875 48.390625 
Q 23 48.390625 18.546875 47.265625 
Q 14.109375 46.140625 10.015625 43.890625 
L 10.015625 52.203125 
Q 14.9375 54.109375 19.578125 55.046875 
Q 24.21875 56 28.609375 56 
Q 40.484375 56 46.34375 49.84375 
Q 52.203125 43.703125 52.203125 31.203125 
z
" id="DejaVuSans-97"/>
      <path d="M 18.3125 70.21875 
L 18.3125 54.6875 
L 36.8125 54.6875 
L 36.8125 47.703125 
L 18.3125 47.703125 
L 18.3125 18.015625 
Q 18.3125 11.328125 20.140625 9.421875 
Q 21.96875 7.515625 27.59375 7.515625 
L 36.8125 7.515625 
L 36.8125 0 
L 27.59375 0 
Q 17.1875 0 13.234375 3.875 
Q 9.28125 7.765625 9.28125 18.015625 
L 9.28125 47.703125 
L 2.6875 47.703125 
L 2.6875 54.6875 
L 9.28125 54.6875 
L 9.28125 70.21875 
z
" id="DejaVuSans-116"/>
      <path id="DejaVuSans-32"/>
      <path d="M 44.28125 53.078125 
L 44.28125 44.578125 
Q 40.484375 46.53125 36.375 47.5 
Q 32.28125 48.484375 27.875 48.484375 
Q 21.1875 48.484375 17.84375 46.4375 
Q 14.5 44.390625 14.5 40.28125 
Q 14.5 37.15625 16.890625 35.375 
Q 19.28125 33.59375 26.515625 31.984375 
L 29.59375 31.296875 
Q 39.15625 29.25 43.1875 25.515625 
Q 47.21875 21.78125 47.21875 15.09375 
Q 47.21875 7.46875 41.1875 3.015625 
Q 35.15625 -1.421875 24.609375 -1.421875 
Q 20.21875 -1.421875 15.453125 -0.5625 
Q 10.6875 0.296875 5.421875 2 
L 5.421875 11.28125 
Q 10.40625 8.6875 15.234375 7.390625 
Q 20.0625 6.109375 24.8125 6.109375 
Q 31.15625 6.109375 34.5625 8.28125 
Q 37.984375 10.453125 37.984375 14.40625 
Q 37.984375 18.0625 35.515625 20.015625 
Q 33.0625 21.96875 24.703125 23.78125 
L 21.578125 24.515625 
Q 13.234375 26.265625 9.515625 29.90625 
Q 5.8125 33.546875 5.8125 39.890625 
Q 5.8125 47.609375 11.28125 51.796875 
Q 16.75 56 26.8125 56 
Q 31.78125 56 36.171875 55.265625 
Q 40.578125 54.546875 44.28125 53.078125 
z
" id="DejaVuSans-115"/>
      <path d="M 30.609375 48.390625 
Q 23.390625 48.390625 19.1875 42.75 
Q 14.984375 37.109375 14.984375 27.296875 
Q 14.984375 17.484375 19.15625 11.84375 
Q 23.34375 6.203125 30.609375 6.203125 
Q 37.796875 6.203125 41.984375 11.859375 
Q 46.1875 17.53125 46.1875 27.296875 
Q 46.1875 37.015625 41.984375 42.703125 
Q 37.796875 48.390625 30.609375 48.390625 
z
M 30.609375 56 
Q 42.328125 56 49.015625 48.375 
Q 55.71875 40.765625 55.71875 27.296875 
Q 55.71875 13.875 49.015625 6.21875 
Q 42.328125 -1.421875 30.609375 -1.421875 
Q 18.84375 -1.421875 12.171875 6.21875 
Q 5.515625 13.875 5.515625 27.296875 
Q 5.515625 40.765625 12.171875 48.375 
Q 18.84375 56 30.609375 56 
z
" id="DejaVuSans-111"/>
      <path d="M 8.5 21.578125 
L 8.5 54.6875 
L 17.484375 54.6875 
L 17.484375 21.921875 
Q 17.484375 14.15625 20.5 10.265625 
Q 23.53125 6.390625 29.59375 6.390625 
Q 36.859375 6.390625 41.078125 11.03125 
Q 45.3125 15.671875 45.3125 23.6875 
L 45.3125 54.6875 
L 54.296875 54.6875 
L 54.296875 0 
L 45.3125 0 
L 45.3125 8.40625 
Q 42.046875 3.421875 37.71875 1 
Q 33.40625 -1.421875 27.6875 -1.421875 
Q 18.265625 -1.421875 13.375 4.4375 
Q 8.5 10.296875 8.5 21.578125 
z
M 31.109375 56 
z
" id="DejaVuSans-117"/>
      <path d="M 41.109375 46.296875 
Q 39.59375 47.171875 37.8125 47.578125 
Q 36.03125 48 33.890625 48 
Q 26.265625 48 22.1875 43.046875 
Q 18.109375 38.09375 18.109375 28.8125 
L 18.109375 0 
L 9.078125 0 
L 9.078125 54.6875 
L 18.109375 54.6875 
L 18.109375 46.1875 
Q 20.953125 51.171875 25.484375 53.578125 
Q 30.03125 56 36.53125 56 
Q 37.453125 56 38.578125 55.875 
Q 39.703125 55.765625 41.0625 55.515625 
z
" id="DejaVuSans-114"/>
      <path d="M 48.78125 52.59375 
L 48.78125 44.1875 
Q 44.96875 46.296875 41.140625 47.34375 
Q 37.3125 48.390625 33.40625 48.390625 
Q 24.65625 48.390625 19.8125 42.84375 
Q 14.984375 37.3125 14.984375 27.296875 
Q 14.984375 17.28125 19.8125 11.734375 
Q 24.65625 6.203125 33.40625 6.203125 
Q 37.3125 6.203125 41.140625 7.25 
Q 44.96875 8.296875 48.78125 10.40625 
L 48.78125 2.09375 
Q 45.015625 0.34375 40.984375 -0.53125 
Q 36.96875 -1.421875 32.421875 -1.421875 
Q 20.0625 -1.421875 12.78125 6.34375 
Q 5.515625 14.109375 5.515625 27.296875 
Q 5.515625 40.671875 12.859375 48.328125 
Q 20.21875 56 33.015625 56 
Q 37.15625 56 41.109375 55.140625 
Q 45.0625 54.296875 48.78125 52.59375 
z
" id="DejaVuSans-99"/>
      <path d="M 56.203125 29.59375 
L 56.203125 25.203125 
L 14.890625 25.203125 
Q 15.484375 15.921875 20.484375 11.0625 
Q 25.484375 6.203125 34.421875 6.203125 
Q 39.59375 6.203125 44.453125 7.46875 
Q 49.3125 8.734375 54.109375 11.28125 
L 54.109375 2.78125 
Q 49.265625 0.734375 44.1875 -0.34375 
Q 39.109375 -1.421875 33.890625 -1.421875 
Q 20.796875 -1.421875 13.15625 6.1875 
Q 5.515625 13.8125 5.515625 26.8125 
Q 5.515625 40.234375 12.765625 48.109375 
Q 20.015625 56 32.328125 56 
Q 43.359375 56 49.78125 48.890625 
Q 56.203125 41.796875 56.203125 29.59375 
z
M 47.21875 32.234375 
Q 47.125 39.59375 43.09375 43.984375 
Q 39.0625 48.390625 32.421875 48.390625 
Q 24.90625 48.390625 20.390625 44.140625 
Q 15.875 39.890625 15.1875 32.171875 
z
" id="DejaVuSans-101"/>
      <path d="M 11.71875 12.40625 
L 22.015625 12.40625 
L 22.015625 0 
L 11.71875 0 
z
M 11.71875 51.703125 
L 22.015625 51.703125 
L 22.015625 39.3125 
L 11.71875 39.3125 
z
" id="DejaVuSans-58"/>
      <path d="M 9.421875 54.6875 
L 18.40625 54.6875 
L 18.40625 0 
L 9.421875 0 
z
M 9.421875 75.984375 
L 18.40625 75.984375 
L 18.40625 64.59375 
L 9.421875 64.59375 
z
" id="DejaVuSans-105"/>
      <path d="M 54.890625 33.015625 
L 54.890625 0 
L 45.90625 0 
L 45.90625 32.71875 
Q 45.90625 40.484375 42.875 44.328125 
Q 39.84375 48.1875 33.796875 48.1875 
Q 26.515625 48.1875 22.3125 43.546875 
Q 18.109375 38.921875 18.109375 30.90625 
L 18.109375 0 
L 9.078125 0 
L 9.078125 54.6875 
L 18.109375 54.6875 
L 18.109375 46.1875 
Q 21.34375 51.125 25.703125 53.5625 
Q 30.078125 56 35.796875 56 
Q 45.21875 56 50.046875 50.171875 
Q 54.890625 44.34375 54.890625 33.015625 
z
" id="DejaVuSans-110"/>
      <path d="M 45.40625 46.390625 
L 45.40625 75.984375 
L 54.390625 75.984375 
L 54.390625 0 
L 45.40625 0 
L 45.40625 8.203125 
Q 42.578125 3.328125 38.25 0.953125 
Q 33.9375 -1.421875 27.875 -1.421875 
Q 17.96875 -1.421875 11.734375 6.484375 
Q 5.515625 14.40625 5.515625 27.296875 
Q 5.515625 40.1875 11.734375 48.09375 
Q 17.96875 56 27.875 56 
Q 33.9375 56 38.25 53.625 
Q 42.578125 51.265625 45.40625 46.390625 
z
M 14.796875 27.296875 
Q 14.796875 17.390625 18.875 11.75 
Q 22.953125 6.109375 30.078125 6.109375 
Q 37.203125 6.109375 41.296875 11.75 
Q 45.40625 17.390625 45.40625 27.296875 
Q 45.40625 37.203125 41.296875 42.84375 
Q 37.203125 48.484375 30.078125 48.484375 
Q 22.953125 48.484375 18.875 42.84375 
Q 14.796875 37.203125 14.796875 27.296875 
z
" id="DejaVuSans-100"/>
      <path d="M 9.078125 75.984375 
L 18.109375 75.984375 
L 18.109375 31.109375 
L 44.921875 54.6875 
L 56.390625 54.6875 
L 27.390625 29.109375 
L 57.625 0 
L 45.90625 0 
L 18.109375 26.703125 
L 18.109375 0 
L 9.078125 0 
z
" id="DejaVuSans-107"/>
     </defs>
     <use xlink:href="#DejaVuSans-68"/>
     <use x="77.001953" xlink:href="#DejaVuSans-97"/>
     <use x="138.28125" xlink:href="#DejaVuSans-116"/>
     <use x="177.490234" xlink:href="#DejaVuSans-97"/>
     <use x="238.769531" xlink:href="#DejaVuSans-32"/>
     <use x="270.556641" xlink:href="#DejaVuSans-115"/>
     <use x="322.65625" xlink:href="#DejaVuSans-111"/>
     <use x="383.837891" xlink:href="#DejaVuSans-117"/>
     <use x="447.216797" xlink:href="#DejaVuSans-114"/>
     <use x="486.080078" xlink:href="#DejaVuSans-99"/>
     <use x="541.060547" xlink:href="#DejaVuSans-101"/>
     <use x="602.583984" xlink:href="#DejaVuSans-58"/>
     <use x="636.275391" xlink:href="#DejaVuSans-32"/>
     <use x="668.0625" xlink:href="#DejaVuSans-99"/>
     <use x="723.042969" xlink:href="#DejaVuSans-111"/>
     <use x="784.224609" xlink:href="#DejaVuSans-105"/>
     <use x="812.007812" xlink:href="#DejaVuSans-110"/>
     <use x="875.386719" xlink:href="#DejaVuSans-100"/>
     <use x="938.863281" xlink:href="#DejaVuSans-101"/>
     <use x="1000.386719" xlink:href="#DejaVuSans-115"/>
     <use x="1052.486328" xlink:href="#DejaVuSans-107"/>
    </g>
   </g>
   <g id="legend_1">
    <g id="patch_7">
     <path d="M 64.6 78.82825 
L 127.31875 78.82825 
Q 129.31875 78.82825 129.31875 76.82825 
L 129.31875 48.472 
Q 129.31875 46.472 127.31875 46.472 
L 64.6 46.472 
Q 62.6 46.472 62.6 48.472 
L 62.6 76.82825 
Q 62.6 78.82825 64.6 78.82825 
z
" style="fill:#ffffff;opacity:0.8;stroke:#cccccc;stroke-linejoin:miter;"/>
    </g>
    <g id="line2d_16">
     <path d="M 66.6 54.570437 
L 86.6 54.570437 
" style="fill:none;stroke:#0000ff;stroke-linecap:square;stroke-width:1.5;"/>
    </g>
    <g id="line2d_17"/>
    <g id="text_14">
     <!-- MACD -->
     <g transform="translate(94.6 58.070437)scale(0.1 -0.1)">
      <defs>
       <path d="M 9.8125 72.90625 
L 24.515625 72.90625 
L 43.109375 23.296875 
L 61.8125 72.90625 
L 76.515625 72.90625 
L 76.515625 0 
L 66.890625 0 
L 66.890625 64.015625 
L 48.09375 14.015625 
L 38.1875 14.015625 
L 19.390625 64.015625 
L 19.390625 0 
L 9.8125 0 
z
" id="DejaVuSans-77"/>
       <path d="M 34.1875 63.1875 
L 20.796875 26.90625 
L 47.609375 26.90625 
z
M 28.609375 72.90625 
L 39.796875 72.90625 
L 67.578125 0 
L 57.328125 0 
L 50.6875 18.703125 
L 17.828125 18.703125 
L 11.1875 0 
L 0.78125 0 
z
" id="DejaVuSans-65"/>
       <path d="M 64.40625 67.28125 
L 64.40625 56.890625 
Q 59.421875 61.53125 53.78125 63.8125 
Q 48.140625 66.109375 41.796875 66.109375 
Q 29.296875 66.109375 22.65625 58.46875 
Q 16.015625 50.828125 16.015625 36.375 
Q 16.015625 21.96875 22.65625 14.328125 
Q 29.296875 6.6875 41.796875 6.6875 
Q 48.140625 6.6875 53.78125 8.984375 
Q 59.421875 11.28125 64.40625 15.921875 
L 64.40625 5.609375 
Q 59.234375 2.09375 53.4375 0.328125 
Q 47.65625 -1.421875 41.21875 -1.421875 
Q 24.65625 -1.421875 15.125 8.703125 
Q 5.609375 18.84375 5.609375 36.375 
Q 5.609375 53.953125 15.125 64.078125 
Q 24.65625 74.21875 41.21875 74.21875 
Q 47.75 74.21875 53.53125 72.484375 
Q 59.328125 70.75 64.40625 67.28125 
z
" id="DejaVuSans-67"/>
      </defs>
      <use xlink:href="#DejaVuSans-77"/>
      <use x="86.279297" xlink:href="#DejaVuSans-65"/>
      <use x="152.9375" xlink:href="#DejaVuSans-67"/>
      <use x="222.761719" xlink:href="#DejaVuSans-68"/>
     </g>
    </g>
    <g id="line2d_18">
     <path d="M 66.6 69.248562 
L 86.6 69.248562 
" style="fill:none;stroke:#ff6347;stroke-linecap:square;stroke-width:1.5;"/>
    </g>
    <g id="line2d_19"/>
    <g id="text_15">
     <!-- Signal -->
     <g transform="translate(94.6 72.748562)scale(0.1 -0.1)">
      <defs>
       <path d="M 53.515625 70.515625 
L 53.515625 60.890625 
Q 47.90625 63.578125 42.921875 64.890625 
Q 37.9375 66.21875 33.296875 66.21875 
Q 25.25 66.21875 20.875 63.09375 
Q 16.5 59.96875 16.5 54.203125 
Q 16.5 49.359375 19.40625 46.890625 
Q 22.3125 44.4375 30.421875 42.921875 
L 36.375 41.703125 
Q 47.40625 39.59375 52.65625 34.296875 
Q 57.90625 29 57.90625 20.125 
Q 57.90625 9.515625 50.796875 4.046875 
Q 43.703125 -1.421875 29.984375 -1.421875 
Q 24.8125 -1.421875 18.96875 -0.25 
Q 13.140625 0.921875 6.890625 3.21875 
L 6.890625 13.375 
Q 12.890625 10.015625 18.65625 8.296875 
Q 24.421875 6.59375 29.984375 6.59375 
Q 38.421875 6.59375 43.015625 9.90625 
Q 47.609375 13.234375 47.609375 19.390625 
Q 47.609375 24.75 44.3125 27.78125 
Q 41.015625 30.8125 33.5 32.328125 
L 27.484375 33.5 
Q 16.453125 35.6875 11.515625 40.375 
Q 6.59375 45.0625 6.59375 53.421875 
Q 6.59375 63.09375 13.40625 68.65625 
Q 20.21875 74.21875 32.171875 74.21875 
Q 37.3125 74.21875 42.625 73.28125 
Q 47.953125 72.359375 53.515625 70.515625 
z
" id="DejaVuSans-83"/>
       <path d="M 45.40625 27.984375 
Q 45.40625 37.75 41.375 43.109375 
Q 37.359375 48.484375 30.078125 48.484375 
Q 22.859375 48.484375 18.828125 43.109375 
Q 14.796875 37.75 14.796875 27.984375 
Q 14.796875 18.265625 18.828125 12.890625 
Q 22.859375 7.515625 30.078125 7.515625 
Q 37.359375 7.515625 41.375 12.890625 
Q 45.40625 18.265625 45.40625 27.984375 
z
M 54.390625 6.78125 
Q 54.390625 -7.171875 48.1875 -13.984375 
Q 42 -20.796875 29.203125 -20.796875 
Q 24.46875 -20.796875 20.265625 -20.09375 
Q 16.0625 -19.390625 12.109375 -17.921875 
L 12.109375 -9.1875 
Q 16.0625 -11.328125 19.921875 -12.34375 
Q 23.78125 -13.375 27.78125 -13.375 
Q 36.625 -13.375 41.015625 -8.765625 
Q 45.40625 -4.15625 45.40625 5.171875 
L 45.40625 9.625 
Q 42.625 4.78125 38.28125 2.390625 
Q 33.9375 0 27.875 0 
Q 17.828125 0 11.671875 7.65625 
Q 5.515625 15.328125 5.515625 27.984375 
Q 5.515625 40.671875 11.671875 48.328125 
Q 17.828125 56 27.875 56 
Q 33.9375 56 38.28125 53.609375 
Q 42.625 51.21875 45.40625 46.390625 
L 45.40625 54.6875 
L 54.390625 54.6875 
z
" id="DejaVuSans-103"/>
       <path d="M 9.421875 75.984375 
L 18.40625 75.984375 
L 18.40625 0 
L 9.421875 0 
z
" id="DejaVuSans-108"/>
      </defs>
      <use xlink:href="#DejaVuSans-83"/>
      <use x="63.476562" xlink:href="#DejaVuSans-105"/>
      <use x="91.259766" xlink:href="#DejaVuSans-103"/>
      <use x="154.736328" xlink:href="#DejaVuSans-110"/>
      <use x="218.115234" xlink:href="#DejaVuSans-97"/>
      <use x="279.394531" xlink:href="#DejaVuSans-108"/>
     </g>
    </g>
   </g>
  </g>
  <g id="text_16">
   <!-- MACD -->
   <g transform="translate(206.41875 19.0695)scale(0.16 -0.16)">
    <use xlink:href="#DejaVuSans-77"/>
    <use x="86.279297" xlink:href="#DejaVuSans-65"/>
    <use x="152.9375" xlink:href="#DejaVuSans-67"/>
    <use x="222.761719" xlink:href="#DejaVuSans-68"/>
   </g>
  </g>
 </g>
 <defs>
  <clipPath id="pbf341675e0">
   <rect height="266.112" width="357.12" x="57.6" y="41.472"/>
  </clipPath>
 </defs>
</svg>
