<?xml version="1.0" encoding="utf-8" standalone="no"?>
<!DOCTYPE svg PUBLIC "-//W3C//DTD SVG 1.1//EN"
  "http://www.w3.org/Graphics/SVG/1.1/DTD/svg11.dtd">
<!-- Created with matplotlib (https://matplotlib.org/) -->
<svg height="345.6pt" version="1.1" viewBox="0 0 460.8 345.6" width="460.8pt" xmlns="http://www.w3.org/2000/svg" xmlns:xlink="http://www.w3.org/1999/xlink">
 <metadata>
  <rdf:RDF xmlns:cc="http://creativecommons.org/ns#" xmlns:dc="http://purl.org/dc/elements/1.1/" xmlns:rdf="http://www.w3.org/1999/02/22-rdf-syntax-ns#">
   <cc:Work>
    <dc:type rdf:resource="http://purl.org/dc/dcmitype/StillImage"/>
    <dc:date>2021-04-06T19:00:07.040532</dc:date>
    <dc:format>image/svg+xml</dc:format>
    <dc:creator>
     <cc:Agent>
      <dc:title>Matplotlib v3.3.2, https://matplotlib.org/</dc:title>
     </cc:Agent>
    </dc:creator>
   </cc:Work>
  </rdf:RDF>
 </metadata>
 <defs>
  <style type="text/css">*{stroke-linecap:butt;stroke-linejoin:round;}</style>
 </defs>
 <g id="figure_1">
  <g id="patch_1">
   <path d="M 0 345.6 
L 460.8 345.6 
L 460.8 0 
L 0 0 
z
" style="fill:#ffffff;"/>
  </g>
  <g id="axes_1">
   <g id="patch_2">
    <path d="M 57.6 307.584 
L 414.72 307.584 
L 414.72 41.472 
L 57.6 41.472 
z
" style="fill:#ffffff;"/>
   </g>
   <g id="matplotlib.axis_1">
    <g id="xtick_1">
     <g id="line2d_1">
      <defs>
       <path d="M 0 0 
L 0 3.5 
" id="md9997bc074" style="stroke:#000000;stroke-width:0.8;"/>
      </defs>
      <g>
       <use style="stroke:#000000;stroke-width:0.8;" x="73.832727" xlink:href="#md9997bc074" y="307.584"/>
      </g>
     </g>
     <g id="text_1">
      <!-- 2020-01 -->
      <g transform="translate(52.941321 322.182437)scale(0.1 -0.1)">
       <defs>
        <path d="M 19.1875 8.296875 
L 53.609375 8.296875 
L 53.609375 0 
L 7.328125 0 
L 7.328125 8.296875 
Q 12.9375 14.109375 22.625 23.890625 
Q 32.328125 33.6875 34.8125 36.53125 
Q 39.546875 41.84375 41.421875 45.53125 
Q 43.3125 49.21875 43.3125 52.78125 
Q 43.3125 58.59375 39.234375 62.25 
Q 35.15625 65.921875 28.609375 65.921875 
Q 23.96875 65.921875 18.8125 64.3125 
Q 13.671875 62.703125 7.8125 59.421875 
L 7.8125 69.390625 
Q 13.765625 71.78125 18.9375 73 
Q 24.125 74.21875 28.421875 74.21875 
Q 39.75 74.21875 46.484375 68.546875 
Q 53.21875 62.890625 53.21875 53.421875 
Q 53.21875 48.921875 51.53125 44.890625 
Q 49.859375 40.875 45.40625 35.40625 
Q 44.1875 33.984375 37.640625 27.21875 
Q 31.109375 20.453125 19.1875 8.296875 
z
" id="DejaVuSans-50"/>
        <path d="M 31.78125 66.40625 
Q 24.171875 66.40625 20.328125 58.90625 
Q 16.5 51.421875 16.5 36.375 
Q 16.5 21.390625 20.328125 13.890625 
Q 24.171875 6.390625 31.78125 6.390625 
Q 39.453125 6.390625 43.28125 13.890625 
Q 47.125 21.390625 47.125 36.375 
Q 47.125 51.421875 43.28125 58.90625 
Q 39.453125 66.40625 31.78125 66.40625 
z
M 31.78125 74.21875 
Q 44.046875 74.21875 50.515625 64.515625 
Q 56.984375 54.828125 56.984375 36.375 
Q 56.984375 17.96875 50.515625 8.265625 
Q 44.046875 -1.421875 31.78125 -1.421875 
Q 19.53125 -1.421875 13.0625 8.265625 
Q 6.59375 17.96875 6.59375 36.375 
Q 6.59375 54.828125 13.0625 64.515625 
Q 19.53125 74.21875 31.78125 74.21875 
z
" id="DejaVuSans-48"/>
        <path d="M 4.890625 31.390625 
L 31.203125 31.390625 
L 31.203125 23.390625 
L 4.890625 23.390625 
z
" id="DejaVuSans-45"/>
        <path d="M 12.40625 8.296875 
L 28.515625 8.296875 
L 28.515625 63.921875 
L 10.984375 60.40625 
L 10.984375 69.390625 
L 28.421875 72.90625 
L 38.28125 72.90625 
L 38.28125 8.296875 
L 54.390625 8.296875 
L 54.390625 0 
L 12.40625 0 
z
" id="DejaVuSans-49"/>
       </defs>
       <use xlink:href="#DejaVuSans-50"/>
       <use x="63.623047" xlink:href="#DejaVuSans-48"/>
       <use x="127.246094" xlink:href="#DejaVuSans-50"/>
       <use x="190.869141" xlink:href="#DejaVuSans-48"/>
       <use x="254.492188" xlink:href="#DejaVuSans-45"/>
       <use x="290.576172" xlink:href="#DejaVuSans-48"/>
       <use x="354.199219" xlink:href="#DejaVuSans-49"/>
      </g>
     </g>
    </g>
    <g id="xtick_2">
     <g id="line2d_2">
      <g>
       <use style="stroke:#000000;stroke-width:0.8;" x="116.178972" xlink:href="#md9997bc074" y="307.584"/>
      </g>
     </g>
     <g id="text_2">
      <!-- 2020-03 -->
      <g transform="translate(95.287566 322.182437)scale(0.1 -0.1)">
       <defs>
        <path d="M 40.578125 39.3125 
Q 47.65625 37.796875 51.625 33 
Q 55.609375 28.21875 55.609375 21.1875 
Q 55.609375 10.40625 48.1875 4.484375 
Q 40.765625 -1.421875 27.09375 -1.421875 
Q 22.515625 -1.421875 17.65625 -0.515625 
Q 12.796875 0.390625 7.625 2.203125 
L 7.625 11.71875 
Q 11.71875 9.328125 16.59375 8.109375 
Q 21.484375 6.890625 26.8125 6.890625 
Q 36.078125 6.890625 40.9375 10.546875 
Q 45.796875 14.203125 45.796875 21.1875 
Q 45.796875 27.640625 41.28125 31.265625 
Q 36.765625 34.90625 28.71875 34.90625 
L 20.21875 34.90625 
L 20.21875 43.015625 
L 29.109375 43.015625 
Q 36.375 43.015625 40.234375 45.921875 
Q 44.09375 48.828125 44.09375 54.296875 
Q 44.09375 59.90625 40.109375 62.90625 
Q 36.140625 65.921875 28.71875 65.921875 
Q 24.65625 65.921875 20.015625 65.03125 
Q 15.375 64.15625 9.8125 62.3125 
L 9.8125 71.09375 
Q 15.4375 72.65625 20.34375 73.4375 
Q 25.25 74.21875 29.59375 74.21875 
Q 40.828125 74.21875 47.359375 69.109375 
Q 53.90625 64.015625 53.90625 55.328125 
Q 53.90625 49.265625 50.4375 45.09375 
Q 46.96875 40.921875 40.578125 39.3125 
z
" id="DejaVuSans-51"/>
       </defs>
       <use xlink:href="#DejaVuSans-50"/>
       <use x="63.623047" xlink:href="#DejaVuSans-48"/>
       <use x="127.246094" xlink:href="#DejaVuSans-50"/>
       <use x="190.869141" xlink:href="#DejaVuSans-48"/>
       <use x="254.492188" xlink:href="#DejaVuSans-45"/>
       <use x="290.576172" xlink:href="#DejaVuSans-48"/>
       <use x="354.199219" xlink:href="#DejaVuSans-51"/>
      </g>
     </g>
    </g>
    <g id="xtick_3">
     <g id="line2d_3">
      <g>
       <use style="stroke:#000000;stroke-width:0.8;" x="159.230988" xlink:href="#md9997bc074" y="307.584"/>
      </g>
     </g>
     <g id="text_3">
      <!-- 2020-05 -->
      <g transform="translate(138.339582 322.182437)scale(0.1 -0.1)">
       <defs>
        <path d="M 10.796875 72.90625 
L 49.515625 72.90625 
L 49.515625 64.59375 
L 19.828125 64.59375 
L 19.828125 46.734375 
Q 21.96875 47.46875 24.109375 47.828125 
Q 26.265625 48.1875 28.421875 48.1875 
Q 40.625 48.1875 47.75 41.5 
Q 54.890625 34.8125 54.890625 23.390625 
Q 54.890625 11.625 47.5625 5.09375 
Q 40.234375 -1.421875 26.90625 -1.421875 
Q 22.3125 -1.421875 17.546875 -0.640625 
Q 12.796875 0.140625 7.71875 1.703125 
L 7.71875 11.625 
Q 12.109375 9.234375 16.796875 8.0625 
Q 21.484375 6.890625 26.703125 6.890625 
Q 35.15625 6.890625 40.078125 11.328125 
Q 45.015625 15.765625 45.015625 23.390625 
Q 45.015625 31 40.078125 35.4375 
Q 35.15625 39.890625 26.703125 39.890625 
Q 22.75 39.890625 18.8125 39.015625 
Q 14.890625 38.140625 10.796875 36.28125 
z
" id="DejaVuSans-53"/>
       </defs>
       <use xlink:href="#DejaVuSans-50"/>
       <use x="63.623047" xlink:href="#DejaVuSans-48"/>
       <use x="127.246094" xlink:href="#DejaVuSans-50"/>
       <use x="190.869141" xlink:href="#DejaVuSans-48"/>
       <use x="254.492188" xlink:href="#DejaVuSans-45"/>
       <use x="290.576172" xlink:href="#DejaVuSans-48"/>
       <use x="354.199219" xlink:href="#DejaVuSans-53"/>
      </g>
     </g>
    </g>
    <g id="xtick_4">
     <g id="line2d_4">
      <g>
       <use style="stroke:#000000;stroke-width:0.8;" x="202.283004" xlink:href="#md9997bc074" y="307.584"/>
      </g>
     </g>
     <g id="text_4">
      <!-- 2020-07 -->
      <g transform="translate(181.391598 322.182437)scale(0.1 -0.1)">
       <defs>
        <path d="M 8.203125 72.90625 
L 55.078125 72.90625 
L 55.078125 68.703125 
L 28.609375 0 
L 18.3125 0 
L 43.21875 64.59375 
L 8.203125 64.59375 
z
" id="DejaVuSans-55"/>
       </defs>
       <use xlink:href="#DejaVuSans-50"/>
       <use x="63.623047" xlink:href="#DejaVuSans-48"/>
       <use x="127.246094" xlink:href="#DejaVuSans-50"/>
       <use x="190.869141" xlink:href="#DejaVuSans-48"/>
       <use x="254.492188" xlink:href="#DejaVuSans-45"/>
       <use x="290.576172" xlink:href="#DejaVuSans-48"/>
       <use x="354.199219" xlink:href="#DejaVuSans-55"/>
      </g>
     </g>
    </g>
    <g id="xtick_5">
     <g id="line2d_5">
      <g>
       <use style="stroke:#000000;stroke-width:0.8;" x="246.040791" xlink:href="#md9997bc074" y="307.584"/>
      </g>
     </g>
     <g id="text_5">
      <!-- 2020-09 -->
      <g transform="translate(225.149384 322.182437)scale(0.1 -0.1)">
       <defs>
        <path d="M 10.984375 1.515625 
L 10.984375 10.5 
Q 14.703125 8.734375 18.5 7.8125 
Q 22.3125 6.890625 25.984375 6.890625 
Q 35.75 6.890625 40.890625 13.453125 
Q 46.046875 20.015625 46.78125 33.40625 
Q 43.953125 29.203125 39.59375 26.953125 
Q 35.25 24.703125 29.984375 24.703125 
Q 19.046875 24.703125 12.671875 31.3125 
Q 6.296875 37.9375 6.296875 49.421875 
Q 6.296875 60.640625 12.9375 67.421875 
Q 19.578125 74.21875 30.609375 74.21875 
Q 43.265625 74.21875 49.921875 64.515625 
Q 56.59375 54.828125 56.59375 36.375 
Q 56.59375 19.140625 48.40625 8.859375 
Q 40.234375 -1.421875 26.421875 -1.421875 
Q 22.703125 -1.421875 18.890625 -0.6875 
Q 15.09375 0.046875 10.984375 1.515625 
z
M 30.609375 32.421875 
Q 37.25 32.421875 41.125 36.953125 
Q 45.015625 41.5 45.015625 49.421875 
Q 45.015625 57.28125 41.125 61.84375 
Q 37.25 66.40625 30.609375 66.40625 
Q 23.96875 66.40625 20.09375 61.84375 
Q 16.21875 57.28125 16.21875 49.421875 
Q 16.21875 41.5 20.09375 36.953125 
Q 23.96875 32.421875 30.609375 32.421875 
z
" id="DejaVuSans-57"/>
       </defs>
       <use xlink:href="#DejaVuSans-50"/>
       <use x="63.623047" xlink:href="#DejaVuSans-48"/>
       <use x="127.246094" xlink:href="#DejaVuSans-50"/>
       <use x="190.869141" xlink:href="#DejaVuSans-48"/>
       <use x="254.492188" xlink:href="#DejaVuSans-45"/>
       <use x="290.576172" xlink:href="#DejaVuSans-48"/>
       <use x="354.199219" xlink:href="#DejaVuSans-57"/>
      </g>
     </g>
    </g>
    <g id="xtick_6">
     <g id="line2d_6">
      <g>
       <use style="stroke:#000000;stroke-width:0.8;" x="289.092806" xlink:href="#md9997bc074" y="307.584"/>
      </g>
     </g>
     <g id="text_6">
      <!-- 2020-11 -->
      <g transform="translate(268.2014 322.182437)scale(0.1 -0.1)">
       <use xlink:href="#DejaVuSans-50"/>
       <use x="63.623047" xlink:href="#DejaVuSans-48"/>
       <use x="127.246094" xlink:href="#DejaVuSans-50"/>
       <use x="190.869141" xlink:href="#DejaVuSans-48"/>
       <use x="254.492188" xlink:href="#DejaVuSans-45"/>
       <use x="290.576172" xlink:href="#DejaVuSans-49"/>
       <use x="354.199219" xlink:href="#DejaVuSans-49"/>
      </g>
     </g>
    </g>
    <g id="xtick_7">
     <g id="line2d_7">
      <g>
       <use style="stroke:#000000;stroke-width:0.8;" x="332.144822" xlink:href="#md9997bc074" y="307.584"/>
      </g>
     </g>
     <g id="text_7">
      <!-- 2021-01 -->
      <g transform="translate(311.253416 322.182437)scale(0.1 -0.1)">
       <use xlink:href="#DejaVuSans-50"/>
       <use x="63.623047" xlink:href="#DejaVuSans-48"/>
       <use x="127.246094" xlink:href="#DejaVuSans-50"/>
       <use x="190.869141" xlink:href="#DejaVuSans-49"/>
       <use x="254.492188" xlink:href="#DejaVuSans-45"/>
       <use x="290.576172" xlink:href="#DejaVuSans-48"/>
       <use x="354.199219" xlink:href="#DejaVuSans-49"/>
      </g>
     </g>
    </g>
    <g id="xtick_8">
     <g id="line2d_8">
      <g>
       <use style="stroke:#000000;stroke-width:0.8;" x="373.785296" xlink:href="#md9997bc074" y="307.584"/>
      </g>
     </g>
     <g id="text_8">
      <!-- 2021-03 -->
      <g transform="translate(352.89389 322.182437)scale(0.1 -0.1)">
       <use xlink:href="#DejaVuSans-50"/>
       <use x="63.623047" xlink:href="#DejaVuSans-48"/>
       <use x="127.246094" xlink:href="#DejaVuSans-50"/>
       <use x="190.869141" xlink:href="#DejaVuSans-49"/>
       <use x="254.492188" xlink:href="#DejaVuSans-45"/>
       <use x="290.576172" xlink:href="#DejaVuSans-48"/>
       <use x="354.199219" xlink:href="#DejaVuSans-51"/>
      </g>
     </g>
    </g>
   </g>
   <g id="matplotlib.axis_2">
    <g id="ytick_1">
     <g id="line2d_9">
      <defs>
       <path d="M 0 0 
L -3.5 0 
" id="mfac8442e00" style="stroke:#000000;stroke-width:0.8;"/>
      </defs>
      <g>
       <use style="stroke:#000000;stroke-width:0.8;" x="57.6" xlink:href="#mfac8442e00" y="292.627135"/>
      </g>
     </g>
     <g id="text_9">
      <!-- −1000 -->
      <g transform="translate(16.770313 296.426354)scale(0.1 -0.1)">
       <defs>
        <path d="M 10.59375 35.5 
L 73.1875 35.5 
L 73.1875 27.203125 
L 10.59375 27.203125 
z
" id="DejaVuSans-8722"/>
       </defs>
       <use xlink:href="#DejaVuSans-8722"/>
       <use x="83.789062" xlink:href="#DejaVuSans-49"/>
       <use x="147.412109" xlink:href="#DejaVuSans-48"/>
       <use x="211.035156" xlink:href="#DejaVuSans-48"/>
       <use x="274.658203" xlink:href="#DejaVuSans-48"/>
      </g>
     </g>
    </g>
    <g id="ytick_2">
     <g id="line2d_10">
      <g>
       <use style="stroke:#000000;stroke-width:0.8;" x="57.6" xlink:href="#mfac8442e00" y="254.402168"/>
      </g>
     </g>
     <g id="text_10">
      <!-- 0 -->
      <g transform="translate(44.2375 258.201387)scale(0.1 -0.1)">
       <use xlink:href="#DejaVuSans-48"/>
      </g>
     </g>
    </g>
    <g id="ytick_3">
     <g id="line2d_11">
      <g>
       <use style="stroke:#000000;stroke-width:0.8;" x="57.6" xlink:href="#mfac8442e00" y="216.177202"/>
      </g>
     </g>
     <g id="text_11">
      <!-- 1000 -->
      <g transform="translate(25.15 219.97642)scale(0.1 -0.1)">
       <use xlink:href="#DejaVuSans-49"/>
       <use x="63.623047" xlink:href="#DejaVuSans-48"/>
       <use x="127.246094" xlink:href="#DejaVuSans-48"/>
       <use x="190.869141" xlink:href="#DejaVuSans-48"/>
      </g>
     </g>
    </g>
    <g id="ytick_4">
     <g id="line2d_12">
      <g>
       <use style="stroke:#000000;stroke-width:0.8;" x="57.6" xlink:href="#mfac8442e00" y="177.952235"/>
      </g>
     </g>
     <g id="text_12">
      <!-- 2000 -->
      <g transform="translate(25.15 181.751454)scale(0.1 -0.1)">
       <use xlink:href="#DejaVuSans-50"/>
       <use x="63.623047" xlink:href="#DejaVuSans-48"/>
       <use x="127.246094" xlink:href="#DejaVuSans-48"/>
       <use x="190.869141" xlink:href="#DejaVuSans-48"/>
      </g>
     </g>
    </g>
    <g id="ytick_5">
     <g id="line2d_13">
      <g>
       <use style="stroke:#000000;stroke-width:0.8;" x="57.6" xlink:href="#mfac8442e00" y="139.727268"/>
      </g>
     </g>
     <g id="text_13">
      <!-- 3000 -->
      <g transform="translate(25.15 143.526487)scale(0.1 -0.1)">
       <use xlink:href="#DejaVuSans-51"/>
       <use x="63.623047" xlink:href="#DejaVuSans-48"/>
       <use x="127.246094" xlink:href="#DejaVuSans-48"/>
       <use x="190.869141" xlink:href="#DejaVuSans-48"/>
      </g>
     </g>
    </g>
    <g id="ytick_6">
     <g id="line2d_14">
      <g>
       <use style="stroke:#000000;stroke-width:0.8;" x="57.6" xlink:href="#mfac8442e00" y="101.502302"/>
      </g>
     </g>
     <g id="text_14">
      <!-- 4000 -->
      <g transform="translate(25.15 105.301521)scale(0.1 -0.1)">
       <defs>
        <path d="M 37.796875 64.3125 
L 12.890625 25.390625 
L 37.796875 25.390625 
z
M 35.203125 72.90625 
L 47.609375 72.90625 
L 47.609375 25.390625 
L 58.015625 25.390625 
L 58.015625 17.1875 
L 47.609375 17.1875 
L 47.609375 0 
L 37.796875 0 
L 37.796875 17.1875 
L 4.890625 17.1875 
L 4.890625 26.703125 
z
" id="DejaVuSans-52"/>
       </defs>
       <use xlink:href="#DejaVuSans-52"/>
       <use x="63.623047" xlink:href="#DejaVuSans-48"/>
       <use x="127.246094" xlink:href="#DejaVuSans-48"/>
       <use x="190.869141" xlink:href="#DejaVuSans-48"/>
      </g>
     </g>
    </g>
    <g id="ytick_7">
     <g id="line2d_15">
      <g>
       <use style="stroke:#000000;stroke-width:0.8;" x="57.6" xlink:href="#mfac8442e00" y="63.277335"/>
      </g>
     </g>
     <g id="text_15">
      <!-- 5000 -->
      <g transform="translate(25.15 67.076554)scale(0.1 -0.1)">
       <use xlink:href="#DejaVuSans-53"/>
       <use x="63.623047" xlink:href="#DejaVuSans-48"/>
       <use x="127.246094" xlink:href="#DejaVuSans-48"/>
       <use x="190.869141" xlink:href="#DejaVuSans-48"/>
      </g>
     </g>
    </g>
   </g>
   <g id="line2d_16">
    <path clip-path="url(#pc8b9338248)" d="M 73.832727 254.402168 
L 398.487273 254.402168 
L 398.487273 254.402168 
" style="fill:none;stroke:#1f77b4;stroke-dasharray:5.55,2.4;stroke-dashoffset:0;stroke-width:1.5;"/>
   </g>
   <g id="line2d_17">
    <path clip-path="url(#pc8b9338248)" d="M 73.832727 254.402168 
L 74.538498 255.090499 
L 75.95004 253.943913 
L 76.65581 253.532269 
L 77.361581 251.999963 
L 78.067352 249.595037 
L 78.773123 248.100567 
L 79.478893 247.711286 
L 80.184664 246.353551 
L 80.890435 245.88902 
L 81.596206 245.143931 
L 82.301976 244.891938 
L 83.007747 242.654511 
L 83.713518 241.029957 
L 84.419289 240.194255 
L 85.125059 239.141001 
L 85.83083 238.470641 
L 86.536601 238.759664 
L 87.242372 239.361111 
L 87.948142 239.722402 
L 88.653913 240.376727 
L 89.359684 241.848754 
L 90.771225 244.391215 
L 91.476996 244.774257 
L 92.182767 244.262841 
L 92.888538 242.481802 
L 93.594308 241.520543 
L 94.300079 240.277239 
L 95.711621 239.749872 
L 96.417391 239.889507 
L 97.123162 240.276486 
L 97.828933 241.094705 
L 98.534704 240.562068 
L 99.946245 239.331513 
L 100.652016 238.821981 
L 101.357787 237.811078 
L 102.063557 238.104118 
L 103.475099 236.621114 
L 104.18087 236.610739 
L 104.88664 236.441611 
L 107.003953 240.973164 
L 107.709723 241.111003 
L 109.121265 244.792473 
L 110.532806 247.124877 
L 111.238577 247.156378 
L 111.944348 248.205941 
L 112.650119 250.15759 
L 113.355889 253.313877 
L 114.767431 258.011958 
L 115.473202 260.202307 
L 116.178972 261.863171 
L 116.884743 261.918752 
L 117.590514 262.360172 
L 118.296285 262.565223 
L 119.002055 261.780201 
L 119.707826 260.809693 
L 120.413597 260.68215 
L 121.825138 265.307067 
L 122.530909 266.911848 
L 123.23668 267.943181 
L 123.942451 277.94499 
L 125.353992 288.332844 
L 126.765534 294.48663 
L 127.471304 295.413728 
L 128.177075 295.488 
L 129.588617 290.014912 
L 130.294387 287.5765 
L 131.000158 286.42959 
L 133.823241 273.780915 
L 134.529012 272.545915 
L 135.234783 271.69562 
L 135.940553 271.963274 
L 138.057866 266.845556 
L 138.763636 264.635111 
L 140.175178 261.228336 
L 140.880949 260.049081 
L 141.586719 257.34961 
L 143.704032 252.577114 
L 145.115573 253.129552 
L 145.821344 253.251324 
L 147.232885 253.730787 
L 147.938656 254.5806 
L 148.644427 253.793185 
L 149.350198 253.43809 
L 150.055968 252.480777 
L 150.761739 252.14195 
L 151.46751 252.780026 
L 152.173281 253.25038 
L 152.879051 252.782671 
L 153.584822 251.367755 
L 156.407905 247.025713 
L 157.113676 246.337143 
L 157.819447 242.775309 
L 159.936759 236.376631 
L 160.64253 235.204536 
L 162.054071 233.921233 
L 162.759842 233.218051 
L 163.465613 230.401341 
L 164.171383 229.028984 
L 164.877154 228.99223 
L 166.288696 234.609053 
L 166.994466 236.406328 
L 167.700237 236.482347 
L 168.406008 235.298874 
L 169.111779 236.069322 
L 169.817549 236.648606 
L 170.52332 236.436568 
L 171.934862 236.286251 
L 172.640632 237.273787 
L 173.346403 239.578171 
L 174.757945 242.631833 
L 175.463715 245.279409 
L 176.875257 248.488109 
L 177.581028 248.650059 
L 178.286798 247.746981 
L 178.992569 247.548494 
L 179.69834 246.642696 
L 180.404111 246.772379 
L 181.109881 244.70541 
L 181.815652 245.224865 
L 182.521423 245.316721 
L 183.227194 245.134113 
L 184.638735 245.825519 
L 186.756047 246.21254 
L 187.461818 246.107664 
L 188.167589 247.939147 
L 190.284901 250.763584 
L 190.990672 251.417606 
L 191.696443 251.599236 
L 192.402213 252.006568 
L 193.107984 252.563714 
L 193.813755 253.274129 
L 195.225296 254.241989 
L 195.931067 253.511108 
L 196.636838 253.110791 
L 198.048379 254.434621 
L 198.75415 255.234122 
L 199.459921 256.312143 
L 200.165692 256.810944 
L 201.577233 257.197068 
L 202.283004 257.075298 
L 203.694545 257.631265 
L 204.400316 257.588088 
L 205.106087 257.695165 
L 205.811858 256.967696 
L 206.517628 256.586304 
L 207.223399 255.767444 
L 209.340711 255.384639 
L 210.046482 255.154293 
L 212.163794 255.254956 
L 213.575336 255.651942 
L 214.281107 255.679075 
L 214.986877 255.571422 
L 215.692648 255.629679 
L 216.398419 255.000859 
L 217.80996 253.048667 
L 218.515731 252.500475 
L 219.221502 251.571607 
L 219.927273 250.185193 
L 220.633043 245.880748 
L 222.044585 240.055775 
L 223.456126 235.834309 
L 224.161897 232.972376 
L 224.867668 233.248847 
L 225.573439 233.17024 
L 226.279209 233.527239 
L 226.98498 232.35197 
L 227.690751 231.577981 
L 228.396522 231.690726 
L 229.102292 231.582783 
L 229.808063 232.008259 
L 230.513834 231.955735 
L 231.219605 233.712103 
L 231.925375 234.809078 
L 232.631146 235.232041 
L 233.336917 235.828467 
L 234.748458 236.570144 
L 235.454229 235.908368 
L 236.16 236.669206 
L 236.865771 237.904194 
L 237.571542 238.873595 
L 238.277312 240.748228 
L 239.688854 243.151002 
L 240.394625 243.861294 
L 241.100395 245.869997 
L 242.511937 248.578586 
L 243.923478 249.930015 
L 244.629249 249.794403 
L 245.33502 249.89739 
L 246.040791 249.229037 
L 246.746561 250.315182 
L 247.452332 254.987211 
L 249.569644 262.830529 
L 250.275415 263.965574 
L 250.981186 265.495796 
L 251.686957 266.300586 
L 252.392727 266.422493 
L 253.098498 266.242219 
L 253.804269 265.80317 
L 254.51004 265.676054 
L 255.921581 262.962346 
L 256.627352 261.19943 
L 258.744664 257.25682 
L 259.450435 256.625622 
L 260.156206 257.593907 
L 260.861976 257.96646 
L 261.567747 259.128525 
L 262.273518 258.503868 
L 263.685059 257.60872 
L 264.39083 257.060087 
L 265.096601 256.8747 
L 265.802372 256.260728 
L 266.508142 255.923972 
L 268.625455 256.645959 
L 269.331225 256.447805 
L 270.036996 255.95898 
L 270.742767 256.041869 
L 271.448538 255.943586 
L 272.860079 254.004279 
L 274.977391 249.355329 
L 275.683162 248.43399 
L 277.094704 247.178727 
L 278.506245 247.388823 
L 279.212016 247.078664 
L 279.917787 246.211094 
L 280.623557 245.114257 
L 282.035099 238.522975 
L 283.44664 234.414468 
L 284.152411 233.302058 
L 284.858182 232.543767 
L 285.563953 230.388733 
L 286.269723 230.14293 
L 288.387036 228.534796 
L 289.092806 228.366951 
L 289.798577 229.144651 
L 290.504348 228.746026 
L 291.210119 228.210271 
L 291.915889 223.835082 
L 292.62166 220.694034 
L 293.327431 220.892689 
L 294.033202 219.460336 
L 294.738972 219.050815 
L 295.444743 219.317028 
L 296.150514 218.691153 
L 296.856285 216.84987 
L 297.562055 215.773124 
L 298.267826 216.086685 
L 298.973597 217.114922 
L 299.679368 216.07277 
L 300.385138 212.779323 
L 301.090909 210.319377 
L 301.79668 208.788546 
L 302.502451 205.498642 
L 303.208221 203.407479 
L 303.913992 203.208126 
L 304.619763 203.705182 
L 305.325534 202.470808 
L 306.031304 203.299448 
L 307.442846 214.51909 
L 308.148617 217.26648 
L 308.854387 218.47321 
L 309.560158 215.264737 
L 310.265929 216.039122 
L 311.67747 215.199173 
L 312.383241 217.549163 
L 313.089012 218.350108 
L 313.794783 218.70453 
L 314.500553 219.992603 
L 315.206324 223.997006 
L 315.912095 226.766417 
L 317.323636 233.832893 
L 318.029407 234.538413 
L 319.440949 233.986047 
L 320.146719 233.486737 
L 320.85249 227.538254 
L 322.264032 211.205714 
L 322.969802 203.6637 
L 323.675573 199.365582 
L 324.381344 198.960123 
L 325.087115 195.875096 
L 325.792885 195.962677 
L 326.498656 195.1997 
L 327.204427 192.331368 
L 327.910198 185.472288 
L 328.615968 181.467812 
L 329.321739 176.701106 
L 330.02751 172.986751 
L 330.733281 166.456696 
L 331.439051 161.877395 
L 332.144822 158.197193 
L 333.556364 139.064246 
L 334.262134 135.844358 
L 334.967905 128.777734 
L 335.673676 115.925788 
L 337.085217 84.436831 
L 337.790988 76.273835 
L 338.496759 77.962199 
L 339.20253 89.553227 
L 339.9083 104.921408 
L 340.614071 108.374559 
L 341.319842 107.418118 
L 342.025613 115.406865 
L 343.437154 135.777029 
L 344.142925 142.647119 
L 345.554466 160.77071 
L 346.260237 183.413435 
L 348.377549 217.970781 
L 349.08332 226.170645 
L 349.789091 232.328532 
L 350.494862 243.601067 
L 351.200632 243.503782 
L 351.906403 240.995423 
L 352.612174 239.043519 
L 353.317945 241.260055 
L 354.023715 241.863669 
L 354.729486 236.476448 
L 355.435257 225.988995 
L 356.141028 219.949605 
L 357.552569 203.031468 
L 358.25834 197.838636 
L 358.964111 171.444403 
L 359.669881 151.576518 
L 360.375652 141.990628 
L 361.081423 126.248252 
L 361.787194 117.08256 
L 362.492964 112.049557 
L 363.198735 105.354937 
L 363.904506 104.019318 
L 364.610277 100.763507 
L 365.316047 90.986557 
L 366.021818 87.088184 
L 366.727589 72.715141 
L 368.13913 53.568 
L 368.844901 58.462363 
L 369.550672 80.277263 
L 370.256443 96.854099 
L 371.667984 141.095845 
L 373.079526 178.715156 
L 373.785296 180.757081 
L 374.491067 186.849006 
L 375.196838 186.38284 
L 375.902609 192.756537 
L 377.31415 201.626116 
L 378.019921 199.212179 
L 378.725692 193.377055 
L 380.137233 171.20278 
L 380.843004 157.72982 
L 381.548775 149.641315 
L 382.254545 133.119453 
L 382.960316 127.639932 
L 383.666087 134.76851 
L 384.371858 138.131363 
L 385.077628 136.337205 
L 387.194941 145.334896 
L 387.900711 151.231506 
L 388.606482 167.107142 
L 389.312253 179.373302 
L 390.723794 213.08566 
L 391.429565 215.667213 
L 392.135336 215.850642 
L 392.841107 216.566688 
L 393.546877 212.108165 
L 394.252648 205.403035 
L 394.958419 200.869438 
L 396.36996 195.76987 
L 397.075731 200.169656 
L 397.781502 201.008566 
L 398.487273 199.867347 
L 398.487273 199.867347 
" style="fill:none;stroke:#0000ff;stroke-linecap:square;stroke-width:1.5;"/>
   </g>
   <g id="line2d_18">
    <path clip-path="url(#pc8b9338248)" d="M 73.832727 254.402168 
L 74.538498 254.539834 
L 75.95004 254.40984 
L 76.65581 254.234326 
L 77.361581 253.787453 
L 79.478893 251.125689 
L 80.890435 249.314813 
L 83.007747 246.74122 
L 85.125059 243.44262 
L 85.83083 242.448224 
L 86.536601 241.710512 
L 87.242372 241.240632 
L 87.948142 240.936986 
L 88.653913 240.824934 
L 89.359684 241.029698 
L 90.065455 241.429644 
L 91.476996 242.572418 
L 92.182767 242.910503 
L 92.888538 242.824762 
L 93.594308 242.563919 
L 95.711621 241.295045 
L 96.417391 241.013937 
L 97.123162 240.866447 
L 97.828933 240.912099 
L 98.534704 240.842093 
L 99.946245 240.384954 
L 100.652016 240.07236 
L 101.357787 239.620103 
L 102.769328 238.919927 
L 104.18087 238.090279 
L 104.88664 237.760545 
L 105.592411 237.784451 
L 106.298182 238.055726 
L 108.415494 239.92911 
L 112.650119 245.777962 
L 114.06166 248.983206 
L 116.884743 255.991699 
L 118.296285 258.325359 
L 119.002055 259.016328 
L 120.413597 259.636431 
L 121.119368 260.340004 
L 122.530909 262.449103 
L 123.23668 263.547918 
L 123.942451 266.427333 
L 125.353992 273.487148 
L 126.765534 280.567416 
L 127.471304 283.536678 
L 128.177075 285.926943 
L 128.882846 287.262757 
L 129.588617 287.813188 
L 130.294387 287.76585 
L 131.000158 287.498598 
L 131.705929 286.630744 
L 132.4117 285.192 
L 135.234783 278.116448 
L 137.352095 274.239915 
L 138.763636 271.135857 
L 142.29249 262.736147 
L 143.704032 259.272774 
L 144.409802 257.999652 
L 145.115573 257.025632 
L 145.821344 256.270771 
L 146.527115 255.723906 
L 147.232885 255.325282 
L 147.938656 255.176345 
L 149.350198 254.607389 
L 150.761739 253.774043 
L 151.46751 253.57524 
L 152.879051 253.364748 
L 153.584822 252.96535 
L 154.996364 251.795587 
L 157.113676 249.470282 
L 158.525217 246.620218 
L 161.3483 240.239708 
L 163.465613 236.339805 
L 164.171383 234.877641 
L 164.877154 233.700559 
L 165.582925 233.303493 
L 166.288696 233.564605 
L 167.700237 234.602829 
L 168.406008 234.742038 
L 171.229091 235.717212 
L 171.934862 235.83102 
L 172.640632 236.119573 
L 173.346403 236.811293 
L 174.757945 238.678674 
L 177.581028 243.971408 
L 178.286798 244.726523 
L 178.992569 245.290917 
L 180.404111 245.803494 
L 181.109881 245.583877 
L 183.227194 245.405226 
L 184.638735 245.5101 
L 187.461818 245.851967 
L 188.87336 246.789088 
L 190.284901 248.043473 
L 191.696443 249.294487 
L 195.225296 252.054182 
L 195.931067 252.345567 
L 197.342609 252.749235 
L 198.75415 253.515874 
L 200.871462 255.091228 
L 202.283004 255.824977 
L 204.400316 256.662175 
L 205.106087 256.868773 
L 206.517628 256.828107 
L 210.046482 255.875359 
L 212.163794 255.538545 
L 216.398419 255.470801 
L 217.10419 255.183699 
L 218.515731 254.305449 
L 219.221502 253.75868 
L 219.927273 253.043983 
L 220.633043 251.611336 
L 222.044585 247.893669 
L 224.867668 240.027384 
L 225.573439 238.655955 
L 227.690751 235.575247 
L 229.102292 234.155231 
L 230.513834 233.371816 
L 231.219605 233.439873 
L 233.336917 234.379597 
L 234.748458 235.111888 
L 235.454229 235.271184 
L 236.16 235.550788 
L 237.571542 236.591895 
L 238.983083 238.334244 
L 241.100395 241.342268 
L 243.923478 245.846793 
L 245.33502 247.28853 
L 246.040791 247.676631 
L 246.746561 248.204342 
L 247.452332 249.560915 
L 248.158103 251.19857 
L 250.981186 258.572659 
L 251.686957 260.118244 
L 252.392727 261.379094 
L 253.098498 262.351719 
L 253.804269 263.042009 
L 254.51004 263.568818 
L 255.21581 263.739333 
L 255.921581 263.583935 
L 256.627352 263.107034 
L 258.038893 261.690365 
L 259.450435 259.968049 
L 260.156206 259.493221 
L 260.861976 259.187869 
L 261.567747 259.176 
L 262.979289 258.849396 
L 265.096601 258.009361 
L 267.213913 257.07532 
L 268.625455 256.880091 
L 270.742767 256.509736 
L 271.448538 256.396506 
L 272.154308 256.128206 
L 272.860079 255.703421 
L 273.56585 255.046188 
L 274.977391 253.252532 
L 276.388933 251.401178 
L 277.094704 250.556688 
L 278.506245 249.405373 
L 279.917787 248.394244 
L 280.623557 247.738246 
L 281.329328 246.526964 
L 283.44664 241.465782 
L 285.563953 236.777893 
L 286.975494 234.290688 
L 288.387036 232.335403 
L 289.092806 231.541713 
L 291.210119 230.121291 
L 291.915889 228.864049 
L 292.62166 227.230046 
L 294.738972 223.539865 
L 296.856285 220.885549 
L 297.562055 219.863064 
L 298.267826 219.107788 
L 298.973597 218.709215 
L 299.679368 218.181926 
L 300.385138 217.101405 
L 301.79668 214.353709 
L 303.913992 209.239747 
L 305.325534 207.000429 
L 306.031304 206.260232 
L 306.737075 206.856523 
L 308.148617 210.164525 
L 308.854387 211.826262 
L 310.265929 213.21899 
L 310.9717 213.709141 
L 311.67747 214.007148 
L 314.500553 216.874421 
L 315.206324 218.298938 
L 315.912095 219.992434 
L 318.735178 228.005508 
L 319.440949 229.201616 
L 320.146719 230.05864 
L 320.85249 229.554563 
L 321.558261 227.396602 
L 322.264032 224.158424 
L 323.675573 215.9207 
L 325.087115 209.197887 
L 326.498656 204.280616 
L 327.204427 201.890766 
L 328.615968 195.179219 
L 330.733281 183.518721 
L 332.144822 174.991803 
L 334.262134 157.958844 
L 334.967905 152.122622 
L 335.673676 144.883256 
L 337.085217 125.48091 
L 337.790988 115.639495 
L 338.496759 108.104036 
L 339.20253 104.393874 
L 339.9083 104.499381 
L 340.614071 105.274416 
L 341.319842 105.703157 
L 342.025613 107.643898 
L 342.731383 111.248784 
L 344.142925 121.45297 
L 345.554466 134.115782 
L 347.671779 164.99028 
L 349.08332 185.703233 
L 351.200632 212.495035 
L 351.906403 218.195112 
L 353.317945 226.143846 
L 354.023715 229.287811 
L 354.729486 230.725538 
L 355.435257 229.778229 
L 356.141028 227.812504 
L 356.846798 224.641777 
L 358.25834 215.823499 
L 358.964111 206.94768 
L 362.492964 152.072502 
L 363.198735 142.728989 
L 365.316047 120.711187 
L 366.021818 113.986587 
L 368.13913 88.525711 
L 368.844901 82.513041 
L 369.550672 82.065885 
L 370.256443 85.023528 
L 370.962213 91.926425 
L 371.667984 101.760309 
L 374.491067 147.218071 
L 376.608379 169.558925 
L 377.31415 175.972363 
L 378.019921 180.620326 
L 378.725692 183.171672 
L 379.431462 182.990963 
L 380.137233 180.633326 
L 381.548775 170.770363 
L 382.960316 156.120131 
L 383.666087 151.849807 
L 385.077628 146.552336 
L 385.783399 145.136373 
L 386.48917 144.553162 
L 387.194941 144.709509 
L 387.900711 146.013908 
L 388.606482 150.232555 
L 389.312253 156.060704 
L 390.018024 164.095497 
L 391.429565 182.248266 
L 392.135336 188.968741 
L 392.841107 194.488331 
L 393.546877 198.012298 
L 394.252648 199.490445 
L 394.958419 199.766244 
L 395.66419 199.443605 
L 396.36996 198.708858 
L 398.487273 199.495491 
L 398.487273 199.495491 
" style="fill:none;stroke:#ff6347;stroke-linecap:square;stroke-width:1.5;"/>
   </g>
   <g id="patch_3">
    <path d="M 57.6 307.584 
L 57.6 41.472 
" style="fill:none;stroke:#000000;stroke-linecap:square;stroke-linejoin:miter;stroke-width:0.8;"/>
   </g>
   <g id="patch_4">
    <path d="M 414.72 307.584 
L 414.72 41.472 
" style="fill:none;stroke:#000000;stroke-linecap:square;stroke-linejoin:miter;stroke-width:0.8;"/>
   </g>
   <g id="patch_5">
    <path d="M 57.6 307.584 
L 414.72 307.584 
" style="fill:none;stroke:#000000;stroke-linecap:square;stroke-linejoin:miter;stroke-width:0.8;"/>
   </g>
   <g id="patch_6">
    <path d="M 57.6 41.472 
L 414.72 41.472 
" style="fill:none;stroke:#000000;stroke-linecap:square;stroke-linejoin:miter;stroke-width:0.8;"/>
   </g>
   <g id="text_16">
    <!-- Data source: nomics -->
    <g transform="translate(184.91625 35.472)scale(0.1 -0.1)">
     <defs>
      <path d="M 19.671875 64.796875 
L 19.671875 8.109375 
L 31.59375 8.109375 
Q 46.6875 8.109375 53.6875 14.9375 
Q 60.6875 21.78125 60.6875 36.53125 
Q 60.6875 51.171875 53.6875 57.984375 
Q 46.6875 64.796875 31.59375 64.796875 
z
M 9.8125 72.90625 
L 30.078125 72.90625 
Q 51.265625 72.90625 61.171875 64.09375 
Q 71.09375 55.28125 71.09375 36.53125 
Q 71.09375 17.671875 61.125 8.828125 
Q 51.171875 0 30.078125 0 
L 9.8125 0 
z
" id="DejaVuSans-68"/>
      <path d="M 34.28125 27.484375 
Q 23.390625 27.484375 19.1875 25 
Q 14.984375 22.515625 14.984375 16.5 
Q 14.984375 11.71875 18.140625 8.90625 
Q 21.296875 6.109375 26.703125 6.109375 
Q 34.1875 6.109375 38.703125 11.40625 
Q 43.21875 16.703125 43.21875 25.484375 
L 43.21875 27.484375 
z
M 52.203125 31.203125 
L 52.203125 0 
L 43.21875 0 
L 43.21875 8.296875 
Q 40.140625 3.328125 35.546875 0.953125 
Q 30.953125 -1.421875 24.3125 -1.421875 
Q 15.921875 -1.421875 10.953125 3.296875 
Q 6 8.015625 6 15.921875 
Q 6 25.140625 12.171875 29.828125 
Q 18.359375 34.515625 30.609375 34.515625 
L 43.21875 34.515625 
L 43.21875 35.40625 
Q 43.21875 41.609375 39.140625 45 
Q 35.0625 48.390625 27.6875 48.390625 
Q 23 48.390625 18.546875 47.265625 
Q 14.109375 46.140625 10.015625 43.890625 
L 10.015625 52.203125 
Q 14.9375 54.109375 19.578125 55.046875 
Q 24.21875 56 28.609375 56 
Q 40.484375 56 46.34375 49.84375 
Q 52.203125 43.703125 52.203125 31.203125 
z
" id="DejaVuSans-97"/>
      <path d="M 18.3125 70.21875 
L 18.3125 54.6875 
L 36.8125 54.6875 
L 36.8125 47.703125 
L 18.3125 47.703125 
L 18.3125 18.015625 
Q 18.3125 11.328125 20.140625 9.421875 
Q 21.96875 7.515625 27.59375 7.515625 
L 36.8125 7.515625 
L 36.8125 0 
L 27.59375 0 
Q 17.1875 0 13.234375 3.875 
Q 9.28125 7.765625 9.28125 18.015625 
L 9.28125 47.703125 
L 2.6875 47.703125 
L 2.6875 54.6875 
L 9.28125 54.6875 
L 9.28125 70.21875 
z
" id="DejaVuSans-116"/>
      <path id="DejaVuSans-32"/>
      <path d="M 44.28125 53.078125 
L 44.28125 44.578125 
Q 40.484375 46.53125 36.375 47.5 
Q 32.28125 48.484375 27.875 48.484375 
Q 21.1875 48.484375 17.84375 46.4375 
Q 14.5 44.390625 14.5 40.28125 
Q 14.5 37.15625 16.890625 35.375 
Q 19.28125 33.59375 26.515625 31.984375 
L 29.59375 31.296875 
Q 39.15625 29.25 43.1875 25.515625 
Q 47.21875 21.78125 47.21875 15.09375 
Q 47.21875 7.46875 41.1875 3.015625 
Q 35.15625 -1.421875 24.609375 -1.421875 
Q 20.21875 -1.421875 15.453125 -0.5625 
Q 10.6875 0.296875 5.421875 2 
L 5.421875 11.28125 
Q 10.40625 8.6875 15.234375 7.390625 
Q 20.0625 6.109375 24.8125 6.109375 
Q 31.15625 6.109375 34.5625 8.28125 
Q 37.984375 10.453125 37.984375 14.40625 
Q 37.984375 18.0625 35.515625 20.015625 
Q 33.0625 21.96875 24.703125 23.78125 
L 21.578125 24.515625 
Q 13.234375 26.265625 9.515625 29.90625 
Q 5.8125 33.546875 5.8125 39.890625 
Q 5.8125 47.609375 11.28125 51.796875 
Q 16.75 56 26.8125 56 
Q 31.78125 56 36.171875 55.265625 
Q 40.578125 54.546875 44.28125 53.078125 
z
" id="DejaVuSans-115"/>
      <path d="M 30.609375 48.390625 
Q 23.390625 48.390625 19.1875 42.75 
Q 14.984375 37.109375 14.984375 27.296875 
Q 14.984375 17.484375 19.15625 11.84375 
Q 23.34375 6.203125 30.609375 6.203125 
Q 37.796875 6.203125 41.984375 11.859375 
Q 46.1875 17.53125 46.1875 27.296875 
Q 46.1875 37.015625 41.984375 42.703125 
Q 37.796875 48.390625 30.609375 48.390625 
z
M 30.609375 56 
Q 42.328125 56 49.015625 48.375 
Q 55.71875 40.765625 55.71875 27.296875 
Q 55.71875 13.875 49.015625 6.21875 
Q 42.328125 -1.421875 30.609375 -1.421875 
Q 18.84375 -1.421875 12.171875 6.21875 
Q 5.515625 13.875 5.515625 27.296875 
Q 5.515625 40.765625 12.171875 48.375 
Q 18.84375 56 30.609375 56 
z
" id="DejaVuSans-111"/>
      <path d="M 8.5 21.578125 
L 8.5 54.6875 
L 17.484375 54.6875 
L 17.484375 21.921875 
Q 17.484375 14.15625 20.5 10.265625 
Q 23.53125 6.390625 29.59375 6.390625 
Q 36.859375 6.390625 41.078125 11.03125 
Q 45.3125 15.671875 45.3125 23.6875 
L 45.3125 54.6875 
L 54.296875 54.6875 
L 54.296875 0 
L 45.3125 0 
L 45.3125 8.40625 
Q 42.046875 3.421875 37.71875 1 
Q 33.40625 -1.421875 27.6875 -1.421875 
Q 18.265625 -1.421875 13.375 4.4375 
Q 8.5 10.296875 8.5 21.578125 
z
M 31.109375 56 
z
" id="DejaVuSans-117"/>
      <path d="M 41.109375 46.296875 
Q 39.59375 47.171875 37.8125 47.578125 
Q 36.03125 48 33.890625 48 
Q 26.265625 48 22.1875 43.046875 
Q 18.109375 38.09375 18.109375 28.8125 
L 18.109375 0 
L 9.078125 0 
L 9.078125 54.6875 
L 18.109375 54.6875 
L 18.109375 46.1875 
Q 20.953125 51.171875 25.484375 53.578125 
Q 30.03125 56 36.53125 56 
Q 37.453125 56 38.578125 55.875 
Q 39.703125 55.765625 41.0625 55.515625 
z
" id="DejaVuSans-114"/>
      <path d="M 48.78125 52.59375 
L 48.78125 44.1875 
Q 44.96875 46.296875 41.140625 47.34375 
Q 37.3125 48.390625 33.40625 48.390625 
Q 24.65625 48.390625 19.8125 42.84375 
Q 14.984375 37.3125 14.984375 27.296875 
Q 14.984375 17.28125 19.8125 11.734375 
Q 24.65625 6.203125 33.40625 6.203125 
Q 37.3125 6.203125 41.140625 7.25 
Q 44.96875 8.296875 48.78125 10.40625 
L 48.78125 2.09375 
Q 45.015625 0.34375 40.984375 -0.53125 
Q 36.96875 -1.421875 32.421875 -1.421875 
Q 20.0625 -1.421875 12.78125 6.34375 
Q 5.515625 14.109375 5.515625 27.296875 
Q 5.515625 40.671875 12.859375 48.328125 
Q 20.21875 56 33.015625 56 
Q 37.15625 56 41.109375 55.140625 
Q 45.0625 54.296875 48.78125 52.59375 
z
" id="DejaVuSans-99"/>
      <path d="M 56.203125 29.59375 
L 56.203125 25.203125 
L 14.890625 25.203125 
Q 15.484375 15.921875 20.484375 11.0625 
Q 25.484375 6.203125 34.421875 6.203125 
Q 39.59375 6.203125 44.453125 7.46875 
Q 49.3125 8.734375 54.109375 11.28125 
L 54.109375 2.78125 
Q 49.265625 0.734375 44.1875 -0.34375 
Q 39.109375 -1.421875 33.890625 -1.421875 
Q 20.796875 -1.421875 13.15625 6.1875 
Q 5.515625 13.8125 5.515625 26.8125 
Q 5.515625 40.234375 12.765625 48.109375 
Q 20.015625 56 32.328125 56 
Q 43.359375 56 49.78125 48.890625 
Q 56.203125 41.796875 56.203125 29.59375 
z
M 47.21875 32.234375 
Q 47.125 39.59375 43.09375 43.984375 
Q 39.0625 48.390625 32.421875 48.390625 
Q 24.90625 48.390625 20.390625 44.140625 
Q 15.875 39.890625 15.1875 32.171875 
z
" id="DejaVuSans-101"/>
      <path d="M 11.71875 12.40625 
L 22.015625 12.40625 
L 22.015625 0 
L 11.71875 0 
z
M 11.71875 51.703125 
L 22.015625 51.703125 
L 22.015625 39.3125 
L 11.71875 39.3125 
z
" id="DejaVuSans-58"/>
      <path d="M 54.890625 33.015625 
L 54.890625 0 
L 45.90625 0 
L 45.90625 32.71875 
Q 45.90625 40.484375 42.875 44.328125 
Q 39.84375 48.1875 33.796875 48.1875 
Q 26.515625 48.1875 22.3125 43.546875 
Q 18.109375 38.921875 18.109375 30.90625 
L 18.109375 0 
L 9.078125 0 
L 9.078125 54.6875 
L 18.109375 54.6875 
L 18.109375 46.1875 
Q 21.34375 51.125 25.703125 53.5625 
Q 30.078125 56 35.796875 56 
Q 45.21875 56 50.046875 50.171875 
Q 54.890625 44.34375 54.890625 33.015625 
z
" id="DejaVuSans-110"/>
      <path d="M 52 44.1875 
Q 55.375 50.25 60.0625 53.125 
Q 64.75 56 71.09375 56 
Q 79.640625 56 84.28125 50.015625 
Q 88.921875 44.046875 88.921875 33.015625 
L 88.921875 0 
L 79.890625 0 
L 79.890625 32.71875 
Q 79.890625 40.578125 77.09375 44.375 
Q 74.3125 48.1875 68.609375 48.1875 
Q 61.625 48.1875 57.5625 43.546875 
Q 53.515625 38.921875 53.515625 30.90625 
L 53.515625 0 
L 44.484375 0 
L 44.484375 32.71875 
Q 44.484375 40.625 41.703125 44.40625 
Q 38.921875 48.1875 33.109375 48.1875 
Q 26.21875 48.1875 22.15625 43.53125 
Q 18.109375 38.875 18.109375 30.90625 
L 18.109375 0 
L 9.078125 0 
L 9.078125 54.6875 
L 18.109375 54.6875 
L 18.109375 46.1875 
Q 21.1875 51.21875 25.484375 53.609375 
Q 29.78125 56 35.6875 56 
Q 41.65625 56 45.828125 52.96875 
Q 50 49.953125 52 44.1875 
z
" id="DejaVuSans-109"/>
      <path d="M 9.421875 54.6875 
L 18.40625 54.6875 
L 18.40625 0 
L 9.421875 0 
z
M 9.421875 75.984375 
L 18.40625 75.984375 
L 18.40625 64.59375 
L 9.421875 64.59375 
z
" id="DejaVuSans-105"/>
     </defs>
     <use xlink:href="#DejaVuSans-68"/>
     <use x="77.001953" xlink:href="#DejaVuSans-97"/>
     <use x="138.28125" xlink:href="#DejaVuSans-116"/>
     <use x="177.490234" xlink:href="#DejaVuSans-97"/>
     <use x="238.769531" xlink:href="#DejaVuSans-32"/>
     <use x="270.556641" xlink:href="#DejaVuSans-115"/>
     <use x="322.65625" xlink:href="#DejaVuSans-111"/>
     <use x="383.837891" xlink:href="#DejaVuSans-117"/>
     <use x="447.216797" xlink:href="#DejaVuSans-114"/>
     <use x="486.080078" xlink:href="#DejaVuSans-99"/>
     <use x="541.060547" xlink:href="#DejaVuSans-101"/>
     <use x="602.583984" xlink:href="#DejaVuSans-58"/>
     <use x="636.275391" xlink:href="#DejaVuSans-32"/>
     <use x="668.0625" xlink:href="#DejaVuSans-110"/>
     <use x="731.441406" xlink:href="#DejaVuSans-111"/>
     <use x="792.623047" xlink:href="#DejaVuSans-109"/>
     <use x="890.035156" xlink:href="#DejaVuSans-105"/>
     <use x="917.818359" xlink:href="#DejaVuSans-99"/>
     <use x="972.798828" xlink:href="#DejaVuSans-115"/>
    </g>
   </g>
   <g id="legend_1">
    <g id="patch_7">
     <path d="M 64.6 78.82825 
L 127.31875 78.82825 
Q 129.31875 78.82825 129.31875 76.82825 
L 129.31875 48.472 
Q 129.31875 46.472 127.31875 46.472 
L 64.6 46.472 
Q 62.6 46.472 62.6 48.472 
L 62.6 76.82825 
Q 62.6 78.82825 64.6 78.82825 
z
" style="fill:#ffffff;opacity:0.8;stroke:#cccccc;stroke-linejoin:miter;"/>
    </g>
    <g id="line2d_19">
     <path d="M 66.6 54.570437 
L 86.6 54.570437 
" style="fill:none;stroke:#0000ff;stroke-linecap:square;stroke-width:1.5;"/>
    </g>
    <g id="line2d_20"/>
    <g id="text_17">
     <!-- MACD -->
     <g transform="translate(94.6 58.070437)scale(0.1 -0.1)">
      <defs>
       <path d="M 9.8125 72.90625 
L 24.515625 72.90625 
L 43.109375 23.296875 
L 61.8125 72.90625 
L 76.515625 72.90625 
L 76.515625 0 
L 66.890625 0 
L 66.890625 64.015625 
L 48.09375 14.015625 
L 38.1875 14.015625 
L 19.390625 64.015625 
L 19.390625 0 
L 9.8125 0 
z
" id="DejaVuSans-77"/>
       <path d="M 34.1875 63.1875 
L 20.796875 26.90625 
L 47.609375 26.90625 
z
M 28.609375 72.90625 
L 39.796875 72.90625 
L 67.578125 0 
L 57.328125 0 
L 50.6875 18.703125 
L 17.828125 18.703125 
L 11.1875 0 
L 0.78125 0 
z
" id="DejaVuSans-65"/>
       <path d="M 64.40625 67.28125 
L 64.40625 56.890625 
Q 59.421875 61.53125 53.78125 63.8125 
Q 48.140625 66.109375 41.796875 66.109375 
Q 29.296875 66.109375 22.65625 58.46875 
Q 16.015625 50.828125 16.015625 36.375 
Q 16.015625 21.96875 22.65625 14.328125 
Q 29.296875 6.6875 41.796875 6.6875 
Q 48.140625 6.6875 53.78125 8.984375 
Q 59.421875 11.28125 64.40625 15.921875 
L 64.40625 5.609375 
Q 59.234375 2.09375 53.4375 0.328125 
Q 47.65625 -1.421875 41.21875 -1.421875 
Q 24.65625 -1.421875 15.125 8.703125 
Q 5.609375 18.84375 5.609375 36.375 
Q 5.609375 53.953125 15.125 64.078125 
Q 24.65625 74.21875 41.21875 74.21875 
Q 47.75 74.21875 53.53125 72.484375 
Q 59.328125 70.75 64.40625 67.28125 
z
" id="DejaVuSans-67"/>
      </defs>
      <use xlink:href="#DejaVuSans-77"/>
      <use x="86.279297" xlink:href="#DejaVuSans-65"/>
      <use x="152.9375" xlink:href="#DejaVuSans-67"/>
      <use x="222.761719" xlink:href="#DejaVuSans-68"/>
     </g>
    </g>
    <g id="line2d_21">
     <path d="M 66.6 69.248562 
L 86.6 69.248562 
" style="fill:none;stroke:#ff6347;stroke-linecap:square;stroke-width:1.5;"/>
    </g>
    <g id="line2d_22"/>
    <g id="text_18">
     <!-- Signal -->
     <g transform="translate(94.6 72.748562)scale(0.1 -0.1)">
      <defs>
       <path d="M 53.515625 70.515625 
L 53.515625 60.890625 
Q 47.90625 63.578125 42.921875 64.890625 
Q 37.9375 66.21875 33.296875 66.21875 
Q 25.25 66.21875 20.875 63.09375 
Q 16.5 59.96875 16.5 54.203125 
Q 16.5 49.359375 19.40625 46.890625 
Q 22.3125 44.4375 30.421875 42.921875 
L 36.375 41.703125 
Q 47.40625 39.59375 52.65625 34.296875 
Q 57.90625 29 57.90625 20.125 
Q 57.90625 9.515625 50.796875 4.046875 
Q 43.703125 -1.421875 29.984375 -1.421875 
Q 24.8125 -1.421875 18.96875 -0.25 
Q 13.140625 0.921875 6.890625 3.21875 
L 6.890625 13.375 
Q 12.890625 10.015625 18.65625 8.296875 
Q 24.421875 6.59375 29.984375 6.59375 
Q 38.421875 6.59375 43.015625 9.90625 
Q 47.609375 13.234375 47.609375 19.390625 
Q 47.609375 24.75 44.3125 27.78125 
Q 41.015625 30.8125 33.5 32.328125 
L 27.484375 33.5 
Q 16.453125 35.6875 11.515625 40.375 
Q 6.59375 45.0625 6.59375 53.421875 
Q 6.59375 63.09375 13.40625 68.65625 
Q 20.21875 74.21875 32.171875 74.21875 
Q 37.3125 74.21875 42.625 73.28125 
Q 47.953125 72.359375 53.515625 70.515625 
z
" id="DejaVuSans-83"/>
       <path d="M 45.40625 27.984375 
Q 45.40625 37.75 41.375 43.109375 
Q 37.359375 48.484375 30.078125 48.484375 
Q 22.859375 48.484375 18.828125 43.109375 
Q 14.796875 37.75 14.796875 27.984375 
Q 14.796875 18.265625 18.828125 12.890625 
Q 22.859375 7.515625 30.078125 7.515625 
Q 37.359375 7.515625 41.375 12.890625 
Q 45.40625 18.265625 45.40625 27.984375 
z
M 54.390625 6.78125 
Q 54.390625 -7.171875 48.1875 -13.984375 
Q 42 -20.796875 29.203125 -20.796875 
Q 24.46875 -20.796875 20.265625 -20.09375 
Q 16.0625 -19.390625 12.109375 -17.921875 
L 12.109375 -9.1875 
Q 16.0625 -11.328125 19.921875 -12.34375 
Q 23.78125 -13.375 27.78125 -13.375 
Q 36.625 -13.375 41.015625 -8.765625 
Q 45.40625 -4.15625 45.40625 5.171875 
L 45.40625 9.625 
Q 42.625 4.78125 38.28125 2.390625 
Q 33.9375 0 27.875 0 
Q 17.828125 0 11.671875 7.65625 
Q 5.515625 15.328125 5.515625 27.984375 
Q 5.515625 40.671875 11.671875 48.328125 
Q 17.828125 56 27.875 56 
Q 33.9375 56 38.28125 53.609375 
Q 42.625 51.21875 45.40625 46.390625 
L 45.40625 54.6875 
L 54.390625 54.6875 
z
" id="DejaVuSans-103"/>
       <path d="M 9.421875 75.984375 
L 18.40625 75.984375 
L 18.40625 0 
L 9.421875 0 
z
" id="DejaVuSans-108"/>
      </defs>
      <use xlink:href="#DejaVuSans-83"/>
      <use x="63.476562" xlink:href="#DejaVuSans-105"/>
      <use x="91.259766" xlink:href="#DejaVuSans-103"/>
      <use x="154.736328" xlink:href="#DejaVuSans-110"/>
      <use x="218.115234" xlink:href="#DejaVuSans-97"/>
      <use x="279.394531" xlink:href="#DejaVuSans-108"/>
     </g>
    </g>
   </g>
  </g>
  <g id="text_19">
   <!-- MACD -->
   <g transform="translate(206.41875 19.0695)scale(0.16 -0.16)">
    <use xlink:href="#DejaVuSans-77"/>
    <use x="86.279297" xlink:href="#DejaVuSans-65"/>
    <use x="152.9375" xlink:href="#DejaVuSans-67"/>
    <use x="222.761719" xlink:href="#DejaVuSans-68"/>
   </g>
  </g>
 </g>
 <defs>
  <clipPath id="pc8b9338248">
   <rect height="266.112" width="357.12" x="57.6" y="41.472"/>
  </clipPath>
 </defs>
</svg>
