<?xml version="1.0" encoding="utf-8" standalone="no"?>
<!DOCTYPE svg PUBLIC "-//W3C//DTD SVG 1.1//EN"
  "http://www.w3.org/Graphics/SVG/1.1/DTD/svg11.dtd">
<!-- Created with matplotlib (https://matplotlib.org/) -->
<svg height="345.6pt" version="1.1" viewBox="0 0 460.8 345.6" width="460.8pt" xmlns="http://www.w3.org/2000/svg" xmlns:xlink="http://www.w3.org/1999/xlink">
 <metadata>
  <rdf:RDF xmlns:cc="http://creativecommons.org/ns#" xmlns:dc="http://purl.org/dc/elements/1.1/" xmlns:rdf="http://www.w3.org/1999/02/22-rdf-syntax-ns#">
   <cc:Work>
    <dc:type rdf:resource="http://purl.org/dc/dcmitype/StillImage"/>
    <dc:date>2021-02-14T20:13:17.831482</dc:date>
    <dc:format>image/svg+xml</dc:format>
    <dc:creator>
     <cc:Agent>
      <dc:title>Matplotlib v3.3.2, https://matplotlib.org/</dc:title>
     </cc:Agent>
    </dc:creator>
   </cc:Work>
  </rdf:RDF>
 </metadata>
 <defs>
  <style type="text/css">*{stroke-linecap:butt;stroke-linejoin:round;}</style>
 </defs>
 <g id="figure_1">
  <g id="patch_1">
   <path d="M 0 345.6 
L 460.8 345.6 
L 460.8 0 
L 0 0 
z
" style="fill:#ffffff;"/>
  </g>
  <g id="axes_1">
   <g id="patch_2">
    <path d="M 57.6 307.584 
L 414.72 307.584 
L 414.72 41.472 
L 57.6 41.472 
z
" style="fill:#ffffff;"/>
   </g>
   <g id="matplotlib.axis_1">
    <g id="xtick_1">
     <g id="line2d_1">
      <defs>
       <path d="M 0 0 
L 0 3.5 
" id="mb4ff799d1b" style="stroke:#000000;stroke-width:0.8;"/>
      </defs>
      <g>
       <use style="stroke:#000000;stroke-width:0.8;" x="73.832727" xlink:href="#mb4ff799d1b" y="307.584"/>
      </g>
     </g>
     <g id="text_1">
      <!-- 2020-01 -->
      <g transform="translate(52.941321 322.182437)scale(0.1 -0.1)">
       <defs>
        <path d="M 19.1875 8.296875 
L 53.609375 8.296875 
L 53.609375 0 
L 7.328125 0 
L 7.328125 8.296875 
Q 12.9375 14.109375 22.625 23.890625 
Q 32.328125 33.6875 34.8125 36.53125 
Q 39.546875 41.84375 41.421875 45.53125 
Q 43.3125 49.21875 43.3125 52.78125 
Q 43.3125 58.59375 39.234375 62.25 
Q 35.15625 65.921875 28.609375 65.921875 
Q 23.96875 65.921875 18.8125 64.3125 
Q 13.671875 62.703125 7.8125 59.421875 
L 7.8125 69.390625 
Q 13.765625 71.78125 18.9375 73 
Q 24.125 74.21875 28.421875 74.21875 
Q 39.75 74.21875 46.484375 68.546875 
Q 53.21875 62.890625 53.21875 53.421875 
Q 53.21875 48.921875 51.53125 44.890625 
Q 49.859375 40.875 45.40625 35.40625 
Q 44.1875 33.984375 37.640625 27.21875 
Q 31.109375 20.453125 19.1875 8.296875 
z
" id="DejaVuSans-50"/>
        <path d="M 31.78125 66.40625 
Q 24.171875 66.40625 20.328125 58.90625 
Q 16.5 51.421875 16.5 36.375 
Q 16.5 21.390625 20.328125 13.890625 
Q 24.171875 6.390625 31.78125 6.390625 
Q 39.453125 6.390625 43.28125 13.890625 
Q 47.125 21.390625 47.125 36.375 
Q 47.125 51.421875 43.28125 58.90625 
Q 39.453125 66.40625 31.78125 66.40625 
z
M 31.78125 74.21875 
Q 44.046875 74.21875 50.515625 64.515625 
Q 56.984375 54.828125 56.984375 36.375 
Q 56.984375 17.96875 50.515625 8.265625 
Q 44.046875 -1.421875 31.78125 -1.421875 
Q 19.53125 -1.421875 13.0625 8.265625 
Q 6.59375 17.96875 6.59375 36.375 
Q 6.59375 54.828125 13.0625 64.515625 
Q 19.53125 74.21875 31.78125 74.21875 
z
" id="DejaVuSans-48"/>
        <path d="M 4.890625 31.390625 
L 31.203125 31.390625 
L 31.203125 23.390625 
L 4.890625 23.390625 
z
" id="DejaVuSans-45"/>
        <path d="M 12.40625 8.296875 
L 28.515625 8.296875 
L 28.515625 63.921875 
L 10.984375 60.40625 
L 10.984375 69.390625 
L 28.421875 72.90625 
L 38.28125 72.90625 
L 38.28125 8.296875 
L 54.390625 8.296875 
L 54.390625 0 
L 12.40625 0 
z
" id="DejaVuSans-49"/>
       </defs>
       <use xlink:href="#DejaVuSans-50"/>
       <use x="63.623047" xlink:href="#DejaVuSans-48"/>
       <use x="127.246094" xlink:href="#DejaVuSans-50"/>
       <use x="190.869141" xlink:href="#DejaVuSans-48"/>
       <use x="254.492188" xlink:href="#DejaVuSans-45"/>
       <use x="290.576172" xlink:href="#DejaVuSans-48"/>
       <use x="354.199219" xlink:href="#DejaVuSans-49"/>
      </g>
     </g>
    </g>
    <g id="xtick_2">
     <g id="line2d_2">
      <g>
       <use style="stroke:#000000;stroke-width:0.8;" x="121.343149" xlink:href="#mb4ff799d1b" y="307.584"/>
      </g>
     </g>
     <g id="text_2">
      <!-- 2020-03 -->
      <g transform="translate(100.451742 322.182437)scale(0.1 -0.1)">
       <defs>
        <path d="M 40.578125 39.3125 
Q 47.65625 37.796875 51.625 33 
Q 55.609375 28.21875 55.609375 21.1875 
Q 55.609375 10.40625 48.1875 4.484375 
Q 40.765625 -1.421875 27.09375 -1.421875 
Q 22.515625 -1.421875 17.65625 -0.515625 
Q 12.796875 0.390625 7.625 2.203125 
L 7.625 11.71875 
Q 11.71875 9.328125 16.59375 8.109375 
Q 21.484375 6.890625 26.8125 6.890625 
Q 36.078125 6.890625 40.9375 10.546875 
Q 45.796875 14.203125 45.796875 21.1875 
Q 45.796875 27.640625 41.28125 31.265625 
Q 36.765625 34.90625 28.71875 34.90625 
L 20.21875 34.90625 
L 20.21875 43.015625 
L 29.109375 43.015625 
Q 36.375 43.015625 40.234375 45.921875 
Q 44.09375 48.828125 44.09375 54.296875 
Q 44.09375 59.90625 40.109375 62.90625 
Q 36.140625 65.921875 28.71875 65.921875 
Q 24.65625 65.921875 20.015625 65.03125 
Q 15.375 64.15625 9.8125 62.3125 
L 9.8125 71.09375 
Q 15.4375 72.65625 20.34375 73.4375 
Q 25.25 74.21875 29.59375 74.21875 
Q 40.828125 74.21875 47.359375 69.109375 
Q 53.90625 64.015625 53.90625 55.328125 
Q 53.90625 49.265625 50.4375 45.09375 
Q 46.96875 40.921875 40.578125 39.3125 
z
" id="DejaVuSans-51"/>
       </defs>
       <use xlink:href="#DejaVuSans-50"/>
       <use x="63.623047" xlink:href="#DejaVuSans-48"/>
       <use x="127.246094" xlink:href="#DejaVuSans-50"/>
       <use x="190.869141" xlink:href="#DejaVuSans-48"/>
       <use x="254.492188" xlink:href="#DejaVuSans-45"/>
       <use x="290.576172" xlink:href="#DejaVuSans-48"/>
       <use x="354.199219" xlink:href="#DejaVuSans-51"/>
      </g>
     </g>
    </g>
    <g id="xtick_3">
     <g id="line2d_3">
      <g>
       <use style="stroke:#000000;stroke-width:0.8;" x="169.64541" xlink:href="#mb4ff799d1b" y="307.584"/>
      </g>
     </g>
     <g id="text_3">
      <!-- 2020-05 -->
      <g transform="translate(148.754004 322.182437)scale(0.1 -0.1)">
       <defs>
        <path d="M 10.796875 72.90625 
L 49.515625 72.90625 
L 49.515625 64.59375 
L 19.828125 64.59375 
L 19.828125 46.734375 
Q 21.96875 47.46875 24.109375 47.828125 
Q 26.265625 48.1875 28.421875 48.1875 
Q 40.625 48.1875 47.75 41.5 
Q 54.890625 34.8125 54.890625 23.390625 
Q 54.890625 11.625 47.5625 5.09375 
Q 40.234375 -1.421875 26.90625 -1.421875 
Q 22.3125 -1.421875 17.546875 -0.640625 
Q 12.796875 0.140625 7.71875 1.703125 
L 7.71875 11.625 
Q 12.109375 9.234375 16.796875 8.0625 
Q 21.484375 6.890625 26.703125 6.890625 
Q 35.15625 6.890625 40.078125 11.328125 
Q 45.015625 15.765625 45.015625 23.390625 
Q 45.015625 31 40.078125 35.4375 
Q 35.15625 39.890625 26.703125 39.890625 
Q 22.75 39.890625 18.8125 39.015625 
Q 14.890625 38.140625 10.796875 36.28125 
z
" id="DejaVuSans-53"/>
       </defs>
       <use xlink:href="#DejaVuSans-50"/>
       <use x="63.623047" xlink:href="#DejaVuSans-48"/>
       <use x="127.246094" xlink:href="#DejaVuSans-50"/>
       <use x="190.869141" xlink:href="#DejaVuSans-48"/>
       <use x="254.492188" xlink:href="#DejaVuSans-45"/>
       <use x="290.576172" xlink:href="#DejaVuSans-48"/>
       <use x="354.199219" xlink:href="#DejaVuSans-53"/>
      </g>
     </g>
    </g>
    <g id="xtick_4">
     <g id="line2d_4">
      <g>
       <use style="stroke:#000000;stroke-width:0.8;" x="217.947672" xlink:href="#mb4ff799d1b" y="307.584"/>
      </g>
     </g>
     <g id="text_4">
      <!-- 2020-07 -->
      <g transform="translate(197.056266 322.182437)scale(0.1 -0.1)">
       <defs>
        <path d="M 8.203125 72.90625 
L 55.078125 72.90625 
L 55.078125 68.703125 
L 28.609375 0 
L 18.3125 0 
L 43.21875 64.59375 
L 8.203125 64.59375 
z
" id="DejaVuSans-55"/>
       </defs>
       <use xlink:href="#DejaVuSans-50"/>
       <use x="63.623047" xlink:href="#DejaVuSans-48"/>
       <use x="127.246094" xlink:href="#DejaVuSans-50"/>
       <use x="190.869141" xlink:href="#DejaVuSans-48"/>
       <use x="254.492188" xlink:href="#DejaVuSans-45"/>
       <use x="290.576172" xlink:href="#DejaVuSans-48"/>
       <use x="354.199219" xlink:href="#DejaVuSans-55"/>
      </g>
     </g>
    </g>
    <g id="xtick_5">
     <g id="line2d_5">
      <g>
       <use style="stroke:#000000;stroke-width:0.8;" x="267.041774" xlink:href="#mb4ff799d1b" y="307.584"/>
      </g>
     </g>
     <g id="text_5">
      <!-- 2020-09 -->
      <g transform="translate(246.150368 322.182437)scale(0.1 -0.1)">
       <defs>
        <path d="M 10.984375 1.515625 
L 10.984375 10.5 
Q 14.703125 8.734375 18.5 7.8125 
Q 22.3125 6.890625 25.984375 6.890625 
Q 35.75 6.890625 40.890625 13.453125 
Q 46.046875 20.015625 46.78125 33.40625 
Q 43.953125 29.203125 39.59375 26.953125 
Q 35.25 24.703125 29.984375 24.703125 
Q 19.046875 24.703125 12.671875 31.3125 
Q 6.296875 37.9375 6.296875 49.421875 
Q 6.296875 60.640625 12.9375 67.421875 
Q 19.578125 74.21875 30.609375 74.21875 
Q 43.265625 74.21875 49.921875 64.515625 
Q 56.59375 54.828125 56.59375 36.375 
Q 56.59375 19.140625 48.40625 8.859375 
Q 40.234375 -1.421875 26.421875 -1.421875 
Q 22.703125 -1.421875 18.890625 -0.6875 
Q 15.09375 0.046875 10.984375 1.515625 
z
M 30.609375 32.421875 
Q 37.25 32.421875 41.125 36.953125 
Q 45.015625 41.5 45.015625 49.421875 
Q 45.015625 57.28125 41.125 61.84375 
Q 37.25 66.40625 30.609375 66.40625 
Q 23.96875 66.40625 20.09375 61.84375 
Q 16.21875 57.28125 16.21875 49.421875 
Q 16.21875 41.5 20.09375 36.953125 
Q 23.96875 32.421875 30.609375 32.421875 
z
" id="DejaVuSans-57"/>
       </defs>
       <use xlink:href="#DejaVuSans-50"/>
       <use x="63.623047" xlink:href="#DejaVuSans-48"/>
       <use x="127.246094" xlink:href="#DejaVuSans-50"/>
       <use x="190.869141" xlink:href="#DejaVuSans-48"/>
       <use x="254.492188" xlink:href="#DejaVuSans-45"/>
       <use x="290.576172" xlink:href="#DejaVuSans-48"/>
       <use x="354.199219" xlink:href="#DejaVuSans-57"/>
      </g>
     </g>
    </g>
    <g id="xtick_6">
     <g id="line2d_6">
      <g>
       <use style="stroke:#000000;stroke-width:0.8;" x="315.344035" xlink:href="#mb4ff799d1b" y="307.584"/>
      </g>
     </g>
     <g id="text_6">
      <!-- 2020-11 -->
      <g transform="translate(294.452629 322.182437)scale(0.1 -0.1)">
       <use xlink:href="#DejaVuSans-50"/>
       <use x="63.623047" xlink:href="#DejaVuSans-48"/>
       <use x="127.246094" xlink:href="#DejaVuSans-50"/>
       <use x="190.869141" xlink:href="#DejaVuSans-48"/>
       <use x="254.492188" xlink:href="#DejaVuSans-45"/>
       <use x="290.576172" xlink:href="#DejaVuSans-49"/>
       <use x="354.199219" xlink:href="#DejaVuSans-49"/>
      </g>
     </g>
    </g>
    <g id="xtick_7">
     <g id="line2d_7">
      <g>
       <use style="stroke:#000000;stroke-width:0.8;" x="363.646297" xlink:href="#mb4ff799d1b" y="307.584"/>
      </g>
     </g>
     <g id="text_7">
      <!-- 2021-01 -->
      <g transform="translate(342.754891 322.182437)scale(0.1 -0.1)">
       <use xlink:href="#DejaVuSans-50"/>
       <use x="63.623047" xlink:href="#DejaVuSans-48"/>
       <use x="127.246094" xlink:href="#DejaVuSans-50"/>
       <use x="190.869141" xlink:href="#DejaVuSans-49"/>
       <use x="254.492188" xlink:href="#DejaVuSans-45"/>
       <use x="290.576172" xlink:href="#DejaVuSans-48"/>
       <use x="354.199219" xlink:href="#DejaVuSans-49"/>
      </g>
     </g>
    </g>
    <g id="xtick_8">
     <g id="line2d_8">
      <g>
       <use style="stroke:#000000;stroke-width:0.8;" x="410.364878" xlink:href="#mb4ff799d1b" y="307.584"/>
      </g>
     </g>
     <g id="text_8">
      <!-- 2021-03 -->
      <g transform="translate(389.473472 322.182437)scale(0.1 -0.1)">
       <use xlink:href="#DejaVuSans-50"/>
       <use x="63.623047" xlink:href="#DejaVuSans-48"/>
       <use x="127.246094" xlink:href="#DejaVuSans-50"/>
       <use x="190.869141" xlink:href="#DejaVuSans-49"/>
       <use x="254.492188" xlink:href="#DejaVuSans-45"/>
       <use x="290.576172" xlink:href="#DejaVuSans-48"/>
       <use x="354.199219" xlink:href="#DejaVuSans-51"/>
      </g>
     </g>
    </g>
   </g>
   <g id="matplotlib.axis_2">
    <g id="ytick_1">
     <g id="line2d_9">
      <defs>
       <path d="M 0 0 
L -3.5 0 
" id="m00235f75aa" style="stroke:#000000;stroke-width:0.8;"/>
      </defs>
      <g>
       <use style="stroke:#000000;stroke-width:0.8;" x="57.6" xlink:href="#m00235f75aa" y="292.541418"/>
      </g>
     </g>
     <g id="text_9">
      <!-- −1000 -->
      <g transform="translate(16.770313 296.340637)scale(0.1 -0.1)">
       <defs>
        <path d="M 10.59375 35.5 
L 73.1875 35.5 
L 73.1875 27.203125 
L 10.59375 27.203125 
z
" id="DejaVuSans-8722"/>
       </defs>
       <use xlink:href="#DejaVuSans-8722"/>
       <use x="83.789062" xlink:href="#DejaVuSans-49"/>
       <use x="147.412109" xlink:href="#DejaVuSans-48"/>
       <use x="211.035156" xlink:href="#DejaVuSans-48"/>
       <use x="274.658203" xlink:href="#DejaVuSans-48"/>
      </g>
     </g>
    </g>
    <g id="ytick_2">
     <g id="line2d_10">
      <g>
       <use style="stroke:#000000;stroke-width:0.8;" x="57.6" xlink:href="#m00235f75aa" y="250.590113"/>
      </g>
     </g>
     <g id="text_10">
      <!-- 0 -->
      <g transform="translate(44.2375 254.389332)scale(0.1 -0.1)">
       <use xlink:href="#DejaVuSans-48"/>
      </g>
     </g>
    </g>
    <g id="ytick_3">
     <g id="line2d_11">
      <g>
       <use style="stroke:#000000;stroke-width:0.8;" x="57.6" xlink:href="#m00235f75aa" y="208.638808"/>
      </g>
     </g>
     <g id="text_11">
      <!-- 1000 -->
      <g transform="translate(25.15 212.438027)scale(0.1 -0.1)">
       <use xlink:href="#DejaVuSans-49"/>
       <use x="63.623047" xlink:href="#DejaVuSans-48"/>
       <use x="127.246094" xlink:href="#DejaVuSans-48"/>
       <use x="190.869141" xlink:href="#DejaVuSans-48"/>
      </g>
     </g>
    </g>
    <g id="ytick_4">
     <g id="line2d_12">
      <g>
       <use style="stroke:#000000;stroke-width:0.8;" x="57.6" xlink:href="#m00235f75aa" y="166.687503"/>
      </g>
     </g>
     <g id="text_12">
      <!-- 2000 -->
      <g transform="translate(25.15 170.486721)scale(0.1 -0.1)">
       <use xlink:href="#DejaVuSans-50"/>
       <use x="63.623047" xlink:href="#DejaVuSans-48"/>
       <use x="127.246094" xlink:href="#DejaVuSans-48"/>
       <use x="190.869141" xlink:href="#DejaVuSans-48"/>
      </g>
     </g>
    </g>
    <g id="ytick_5">
     <g id="line2d_13">
      <g>
       <use style="stroke:#000000;stroke-width:0.8;" x="57.6" xlink:href="#m00235f75aa" y="124.736197"/>
      </g>
     </g>
     <g id="text_13">
      <!-- 3000 -->
      <g transform="translate(25.15 128.535416)scale(0.1 -0.1)">
       <use xlink:href="#DejaVuSans-51"/>
       <use x="63.623047" xlink:href="#DejaVuSans-48"/>
       <use x="127.246094" xlink:href="#DejaVuSans-48"/>
       <use x="190.869141" xlink:href="#DejaVuSans-48"/>
      </g>
     </g>
    </g>
    <g id="ytick_6">
     <g id="line2d_14">
      <g>
       <use style="stroke:#000000;stroke-width:0.8;" x="57.6" xlink:href="#m00235f75aa" y="82.784892"/>
      </g>
     </g>
     <g id="text_14">
      <!-- 4000 -->
      <g transform="translate(25.15 86.584111)scale(0.1 -0.1)">
       <defs>
        <path d="M 37.796875 64.3125 
L 12.890625 25.390625 
L 37.796875 25.390625 
z
M 35.203125 72.90625 
L 47.609375 72.90625 
L 47.609375 25.390625 
L 58.015625 25.390625 
L 58.015625 17.1875 
L 47.609375 17.1875 
L 47.609375 0 
L 37.796875 0 
L 37.796875 17.1875 
L 4.890625 17.1875 
L 4.890625 26.703125 
z
" id="DejaVuSans-52"/>
       </defs>
       <use xlink:href="#DejaVuSans-52"/>
       <use x="63.623047" xlink:href="#DejaVuSans-48"/>
       <use x="127.246094" xlink:href="#DejaVuSans-48"/>
       <use x="190.869141" xlink:href="#DejaVuSans-48"/>
      </g>
     </g>
    </g>
   </g>
   <g id="line2d_15">
    <path clip-path="url(#p58e18b8402)" d="M 73.832727 250.590113 
L 398.487273 250.590113 
L 398.487273 250.590113 
" style="fill:none;stroke:#1f77b4;stroke-dasharray:5.55,2.4;stroke-dashoffset:0;stroke-width:1.5;"/>
   </g>
   <g id="line2d_16">
    <path clip-path="url(#p58e18b8402)" d="M 73.832727 250.590113 
L 74.624568 251.345505 
L 76.208248 250.10512 
L 77.000089 249.67357 
L 77.791929 248.018124 
L 78.583769 245.390056 
L 79.37561 243.812609 
L 80.16745 243.382346 
L 80.95929 241.914208 
L 81.751131 241.414263 
L 82.542971 240.60394 
L 83.334812 240.309509 
L 84.126652 237.900481 
L 84.918492 236.165768 
L 85.710333 235.230296 
L 86.502173 234.082202 
L 87.294013 233.337166 
L 88.085854 233.626254 
L 88.877694 234.24767 
L 89.669534 234.604552 
L 90.461375 235.310527 
L 91.253215 236.871891 
L 92.836896 239.584013 
L 93.628736 239.987937 
L 94.420576 239.452827 
L 95.212417 237.550718 
L 96.004257 236.50439 
L 96.796098 235.162877 
L 97.587938 234.834389 
L 98.379778 234.628476 
L 99.171619 234.785382 
L 99.963459 235.198461 
L 100.755299 236.09131 
L 101.54714 235.494789 
L 103.13082 234.102531 
L 103.922661 233.539843 
L 104.714501 232.429221 
L 105.506341 232.732694 
L 107.090022 231.133213 
L 107.881863 231.119651 
L 108.673703 230.945679 
L 111.049224 235.810254 
L 111.841064 235.954785 
L 112.632905 238.11627 
L 113.424745 239.92105 
L 115.008426 242.49616 
L 115.800266 242.550326 
L 116.592106 243.681 
L 117.383947 245.807193 
L 118.175787 249.251136 
L 119.759468 254.387688 
L 120.551308 256.777683 
L 121.343149 258.587881 
L 122.134989 258.662529 
L 122.926829 259.146895 
L 123.71867 259.375531 
L 124.51051 258.517673 
L 125.30235 257.469828 
L 126.094191 257.329449 
L 127.677871 262.36963 
L 128.469712 264.15149 
L 129.261552 265.296662 
L 130.053392 276.188466 
L 131.637073 287.49103 
L 133.220754 294.28762 
L 134.012594 295.346571 
L 134.804435 295.488 
L 136.388115 289.605453 
L 137.179956 286.967415 
L 137.971796 285.721045 
L 141.139157 271.911292 
L 141.930998 270.531627 
L 142.722838 269.592906 
L 143.514678 269.883329 
L 145.098359 266.529432 
L 147.47388 260.111386 
L 148.265721 258.197225 
L 149.057561 256.908356 
L 149.849401 253.964893 
L 152.224922 248.692386 
L 153.808603 249.227404 
L 154.600443 249.338888 
L 156.184124 249.845626 
L 156.975965 250.772448 
L 157.767805 249.928238 
L 158.559645 249.551984 
L 159.351486 248.512058 
L 160.143326 248.133253 
L 160.935166 248.81715 
L 161.727007 249.323351 
L 162.518847 248.825283 
L 163.310687 247.288907 
L 166.478049 242.525017 
L 167.269889 241.7621 
L 168.061729 237.861825 
L 170.437251 230.820223 
L 171.229091 229.529962 
L 172.812772 228.121071 
L 173.604612 227.331307 
L 174.396452 224.243093 
L 175.188293 222.724493 
L 175.980133 222.643086 
L 177.563814 228.820223 
L 178.355654 230.813034 
L 179.147494 230.91885 
L 179.939335 229.652993 
L 180.731175 230.503706 
L 181.523016 231.172059 
L 182.314856 230.962343 
L 183.898537 230.822082 
L 184.690377 231.886133 
L 185.482217 234.389858 
L 187.065898 237.753168 
L 187.857738 240.646267 
L 189.441419 244.169141 
L 190.233259 244.343047 
L 191.0251 243.353937 
L 191.81694 243.13577 
L 192.60878 242.149736 
L 193.400621 242.282833 
L 194.192461 239.982367 
L 194.984302 240.488133 
L 195.776142 240.57692 
L 196.567982 240.381227 
L 197.359823 240.823771 
L 198.151663 241.131981 
L 200.527184 241.547661 
L 201.319024 241.438296 
L 202.110865 243.44028 
L 204.486386 246.539848 
L 205.278226 247.255733 
L 206.070067 247.464105 
L 206.861907 247.911633 
L 207.653747 248.532328 
L 208.445588 249.310399 
L 209.237428 249.77137 
L 210.029268 250.374374 
L 210.821109 249.584654 
L 211.612949 249.157077 
L 213.19663 250.603476 
L 213.98847 251.475602 
L 214.78031 252.656466 
L 215.572151 253.203842 
L 217.155831 253.632674 
L 217.947672 253.500251 
L 219.531353 254.115962 
L 220.323193 254.076566 
L 221.115033 254.197407 
L 221.906874 253.412116 
L 222.698714 252.993773 
L 223.490554 252.108827 
L 225.866075 251.698144 
L 226.657916 251.446152 
L 228.241596 251.417684 
L 229.033437 251.557108 
L 230.617118 251.97135 
L 231.408958 252.007923 
L 232.200798 251.897056 
L 232.992639 251.958291 
L 233.784479 251.273778 
L 235.36816 249.1337 
L 236.16 248.528787 
L 236.95184 247.514307 
L 237.743681 246.004261 
L 238.535521 241.294849 
L 240.119202 234.917864 
L 241.702882 230.262936 
L 242.494723 227.120784 
L 243.286563 227.434887 
L 244.078404 227.32089 
L 244.870244 227.694468 
L 245.662084 226.421272 
L 246.453925 225.562731 
L 247.245765 225.663671 
L 248.037605 225.55076 
L 248.829446 226.020746 
L 249.621286 225.971823 
L 250.413126 227.862202 
L 251.204967 229.055061 
L 251.996807 229.53393 
L 252.788647 230.198127 
L 254.372328 231.063714 
L 255.164169 230.372461 
L 255.956009 231.194653 
L 256.747849 232.53171 
L 257.53969 233.574079 
L 258.33153 235.590231 
L 259.915211 238.230532 
L 260.707051 239.028375 
L 261.498891 241.211004 
L 263.082572 244.178585 
L 264.666253 245.671838 
L 265.458093 245.540315 
L 266.249933 245.634828 
L 267.041774 244.885468 
L 267.833614 246.060276 
L 268.625455 251.110559 
L 270.209135 257.46335 
L 271.000976 259.685937 
L 271.792816 260.946545 
L 272.584656 262.637681 
L 273.376497 263.539589 
L 274.168337 263.679738 
L 274.960177 263.500214 
L 275.752018 263.036346 
L 276.543858 262.89236 
L 277.335698 261.528702 
L 278.127539 259.928238 
L 278.919379 258.006728 
L 281.2949 253.697697 
L 282.086741 252.995827 
L 282.878581 254.049057 
L 283.670421 254.459623 
L 284.462262 255.742437 
L 285.254102 255.075091 
L 286.837783 254.11906 
L 287.629623 253.535549 
L 288.421463 253.337432 
L 289.213304 252.663234 
L 290.005144 252.290799 
L 291.588825 252.773671 
L 292.380665 253.042192 
L 293.172506 252.825835 
L 293.964346 252.294674 
L 294.756186 252.3736 
L 295.548027 252.269373 
L 296.339867 251.304596 
L 297.131707 250.161605 
L 299.507228 245.069608 
L 300.299069 244.055907 
L 301.882749 242.6667 
L 303.46643 242.870231 
L 304.258271 242.527286 
L 305.050111 241.58073 
L 305.841951 240.373306 
L 307.425632 233.180027 
L 309.009313 228.680845 
L 309.801153 227.457491 
L 310.592993 226.617662 
L 311.384834 224.26539 
L 312.176674 223.978258 
L 313.760355 223.014731 
L 314.552195 222.221616 
L 315.344035 222.041779 
L 316.135876 222.889327 
L 316.927716 222.47569 
L 317.719557 221.884295 
L 318.511397 217.107005 
L 319.303237 213.658206 
L 320.095078 213.857684 
L 320.886918 212.283146 
L 321.678758 211.840995 
L 322.470599 212.127486 
L 323.262439 211.444073 
L 324.054279 209.426664 
L 324.84612 208.257352 
L 325.63796 208.583835 
L 326.4298 209.692859 
L 327.221641 208.569181 
L 328.013481 204.966369 
L 328.805322 202.236206 
L 329.597162 200.528224 
L 330.389002 196.937047 
L 331.180843 194.741775 
L 331.972683 194.540059 
L 332.764523 195.108527 
L 333.556364 193.79567 
L 334.348204 194.635124 
L 335.931885 206.810204 
L 336.723725 209.831223 
L 337.515565 211.152554 
L 338.307406 207.678915 
L 339.099246 208.48592 
L 340.682927 207.594153 
L 341.474767 210.119824 
L 342.266608 210.977247 
L 343.058448 211.357942 
L 343.850288 212.74604 
L 344.642129 217.115048 
L 345.433969 220.139779 
L 347.01765 227.894494 
L 347.80949 228.667911 
L 349.393171 228.112316 
L 350.185011 227.584498 
L 350.976851 221.112994 
L 352.560532 203.21365 
L 353.352373 194.957436 
L 354.144213 190.122073 
L 354.936053 189.564479 
L 355.727894 186.085219 
L 356.519734 186.060675 
L 357.311574 185.235384 
L 358.103415 182.180429 
L 358.895255 174.692547 
L 359.687095 170.207935 
L 360.478936 164.944638 
L 361.270776 160.854779 
L 362.062616 153.693823 
L 362.854457 148.678868 
L 363.646297 144.669879 
L 365.229978 122.963564 
L 366.021818 119.554986 
L 366.813659 111.781641 
L 367.605499 98.13347 
L 369.18918 62.82592 
L 369.98102 53.568 
L 370.77286 55.320407 
L 371.564701 67.791301 
L 372.356541 83.576887 
L 373.148381 88.967868 
L 373.940222 88.484132 
L 374.732062 97.466089 
L 376.315743 120.365605 
L 377.107583 128.235662 
L 378.691264 148.139522 
L 379.483104 172.361091 
L 381.066785 200.203314 
L 381.858625 211.273354 
L 382.650466 220.200991 
L 383.442306 227.000192 
L 384.234146 239.314649 
L 385.025987 239.342643 
L 385.817827 236.768291 
L 386.609667 235.034355 
L 387.401508 237.592182 
L 388.193348 238.424502 
L 388.985188 232.692281 
L 389.777029 221.779076 
L 390.568869 215.090521 
L 391.36071 207.144133 
L 392.15255 197.208767 
L 392.94439 191.351336 
L 393.736231 162.623909 
L 394.528071 141.057728 
L 395.319911 129.92099 
L 396.111752 112.610736 
L 396.903592 102.035293 
L 397.695432 96.270142 
L 398.487273 88.984527 
L 398.487273 88.984527 
" style="fill:none;stroke:#0000ff;stroke-linecap:square;stroke-width:1.5;"/>
   </g>
   <g id="line2d_17">
    <path clip-path="url(#p58e18b8402)" d="M 73.832727 250.590113 
L 74.624568 250.741191 
L 76.208248 250.602767 
L 77.000089 250.416927 
L 77.791929 249.937167 
L 80.16745 247.064243 
L 81.751131 245.110241 
L 84.126652 242.323366 
L 86.502173 238.752069 
L 87.294013 237.669089 
L 88.085854 236.860522 
L 88.877694 236.337951 
L 89.669534 235.991271 
L 90.461375 235.855123 
L 91.253215 236.058476 
L 92.045055 236.472236 
L 93.628736 237.67326 
L 94.420576 238.029174 
L 95.212417 237.933483 
L 96.004257 237.647664 
L 98.379778 236.27565 
L 99.171619 235.977596 
L 99.963459 235.821769 
L 100.755299 235.875677 
L 101.54714 235.7995 
L 103.13082 235.288725 
L 103.922661 234.938948 
L 104.714501 234.437003 
L 106.298182 233.654576 
L 107.881863 232.744173 
L 108.673703 232.384474 
L 109.465543 232.407381 
L 110.257384 232.694105 
L 112.632905 234.699114 
L 117.383947 241.041239 
L 118.967627 244.534771 
L 122.134989 252.184852 
L 122.926829 253.57726 
L 123.71867 254.736914 
L 124.51051 255.493066 
L 126.094191 256.176625 
L 126.886031 256.945851 
L 128.469712 259.254784 
L 129.261552 260.463159 
L 130.053392 263.608221 
L 131.637073 271.307912 
L 133.220754 279.048713 
L 134.012594 282.308285 
L 134.804435 284.944228 
L 135.596275 286.437156 
L 136.388115 287.070815 
L 137.179956 287.050135 
L 137.971796 286.784317 
L 138.763636 285.86121 
L 139.555477 284.314605 
L 142.722838 276.610265 
L 145.098359 272.373504 
L 146.68204 268.987335 
L 149.849401 261.760179 
L 152.224922 256.037487 
L 153.016763 254.63343 
L 153.808603 253.552225 
L 154.600443 252.709558 
L 155.392284 252.095372 
L 156.184124 251.645423 
L 156.975965 251.470828 
L 158.559645 250.840244 
L 160.143326 249.926336 
L 160.935166 249.704499 
L 162.518847 249.467672 
L 163.310687 249.031919 
L 164.894368 247.757185 
L 167.269889 245.205245 
L 168.85357 242.075926 
L 172.020931 235.061528 
L 174.396452 230.772627 
L 175.188293 229.163 
L 175.980133 227.859017 
L 176.771973 227.414993 
L 177.563814 227.696039 
L 179.147494 228.839321 
L 179.939335 229.002055 
L 183.106696 230.125626 
L 183.898537 230.264917 
L 184.690377 230.58916 
L 185.482217 231.3493 
L 187.065898 233.403268 
L 190.233259 239.211291 
L 191.0251 240.03982 
L 191.81694 240.65901 
L 193.400621 241.222291 
L 194.192461 240.974306 
L 196.567982 240.729878 
L 198.151663 240.825322 
L 201.319024 241.174517 
L 202.902705 242.193697 
L 204.486386 243.56519 
L 206.070067 244.93546 
L 210.029268 247.969108 
L 210.821109 248.292217 
L 212.404789 248.743505 
L 213.98847 249.58752 
L 216.363991 251.317953 
L 217.947672 252.124768 
L 220.323193 253.049169 
L 221.115033 253.278816 
L 222.698714 253.243136 
L 226.657916 252.220855 
L 229.033437 251.860116 
L 233.784479 251.784575 
L 234.576319 251.470052 
L 236.16 250.507982 
L 236.95184 249.909247 
L 237.743681 249.12825 
L 238.535521 247.56157 
L 240.119202 243.495535 
L 243.286563 234.866701 
L 244.078404 233.357539 
L 246.453925 229.963902 
L 248.037605 228.393236 
L 249.621286 227.529355 
L 250.413126 227.595925 
L 251.996807 228.216988 
L 254.372328 229.429201 
L 255.164169 229.617853 
L 255.956009 229.933213 
L 257.53969 231.077146 
L 259.12337 232.971956 
L 261.498891 236.261891 
L 264.666253 241.194309 
L 266.249933 242.777774 
L 267.041774 243.199313 
L 267.833614 243.771505 
L 268.625455 245.239316 
L 269.417295 247.018169 
L 272.584656 255.061673 
L 273.376497 256.757256 
L 274.168337 258.141752 
L 274.960177 259.213444 
L 275.752018 259.978025 
L 276.543858 260.560892 
L 277.335698 260.754454 
L 278.127539 260.589211 
L 278.919379 260.072714 
L 280.50306 258.533083 
L 282.086741 256.65197 
L 282.878581 256.131387 
L 283.670421 255.797034 
L 284.462262 255.786115 
L 286.045942 255.439829 
L 288.421463 254.545607 
L 290.796984 253.534434 
L 292.380665 253.314264 
L 293.964346 253.032197 
L 295.548027 252.774257 
L 296.339867 252.480325 
L 297.131707 252.016581 
L 297.923548 251.298423 
L 298.715388 250.403093 
L 301.090909 247.305772 
L 301.882749 246.377957 
L 302.67459 245.663894 
L 305.050111 243.987815 
L 305.841951 243.264913 
L 306.633792 241.937367 
L 308.217472 238.328774 
L 309.801153 234.610849 
L 312.176674 229.80593 
L 313.760355 227.429753 
L 315.344035 225.518857 
L 317.719557 223.968458 
L 318.511397 222.596167 
L 319.303237 220.808575 
L 321.678758 216.761276 
L 324.054279 213.850476 
L 324.84612 212.731851 
L 325.63796 211.902248 
L 326.4298 211.46037 
L 327.221641 210.882133 
L 328.013481 209.69898 
L 329.597162 206.670785 
L 331.972683 201.09008 
L 333.556364 198.674149 
L 334.348204 197.866344 
L 335.140044 198.50895 
L 335.931885 200.169201 
L 337.515565 203.911795 
L 339.099246 205.429359 
L 339.891086 205.961979 
L 340.682927 206.288414 
L 343.850288 209.383571 
L 344.642129 210.929866 
L 345.433969 212.771849 
L 346.225809 215.012515 
L 347.80949 219.804711 
L 348.60133 221.530277 
L 349.393171 222.846685 
L 350.185011 223.794247 
L 350.976851 223.257997 
L 351.768692 220.90728 
L 352.560532 217.368554 
L 354.144213 208.333479 
L 355.727894 200.880787 
L 357.311574 195.380488 
L 358.103415 192.740476 
L 359.687095 185.3463 
L 361.270776 177.18373 
L 363.646297 163.113474 
L 364.438137 157.168405 
L 366.021818 144.172947 
L 366.813659 137.694685 
L 367.605499 129.782442 
L 369.18918 108.354089 
L 369.98102 97.396871 
L 370.77286 88.981579 
L 371.564701 84.743523 
L 372.356541 84.510196 
L 373.148381 85.40173 
L 373.940222 86.018211 
L 374.732062 88.307786 
L 375.523902 92.442118 
L 377.107583 104.068585 
L 378.691264 118.286484 
L 380.274945 140.502138 
L 382.650466 175.407053 
L 385.025987 205.023309 
L 385.817827 211.372305 
L 387.401508 220.402209 
L 388.193348 224.006667 
L 388.985188 225.74379 
L 389.777029 224.950847 
L 390.568869 222.978782 
L 391.36071 219.811852 
L 392.94439 210.503255 
L 393.736231 200.927386 
L 398.487273 130.351381 
L 398.487273 130.351381 
" style="fill:none;stroke:#ff6347;stroke-linecap:square;stroke-width:1.5;"/>
   </g>
   <g id="patch_3">
    <path d="M 57.6 307.584 
L 57.6 41.472 
" style="fill:none;stroke:#000000;stroke-linecap:square;stroke-linejoin:miter;stroke-width:0.8;"/>
   </g>
   <g id="patch_4">
    <path d="M 414.72 307.584 
L 414.72 41.472 
" style="fill:none;stroke:#000000;stroke-linecap:square;stroke-linejoin:miter;stroke-width:0.8;"/>
   </g>
   <g id="patch_5">
    <path d="M 57.6 307.584 
L 414.72 307.584 
" style="fill:none;stroke:#000000;stroke-linecap:square;stroke-linejoin:miter;stroke-width:0.8;"/>
   </g>
   <g id="patch_6">
    <path d="M 57.6 41.472 
L 414.72 41.472 
" style="fill:none;stroke:#000000;stroke-linecap:square;stroke-linejoin:miter;stroke-width:0.8;"/>
   </g>
   <g id="text_15">
    <!-- Data source: nomics -->
    <g transform="translate(184.91625 35.472)scale(0.1 -0.1)">
     <defs>
      <path d="M 19.671875 64.796875 
L 19.671875 8.109375 
L 31.59375 8.109375 
Q 46.6875 8.109375 53.6875 14.9375 
Q 60.6875 21.78125 60.6875 36.53125 
Q 60.6875 51.171875 53.6875 57.984375 
Q 46.6875 64.796875 31.59375 64.796875 
z
M 9.8125 72.90625 
L 30.078125 72.90625 
Q 51.265625 72.90625 61.171875 64.09375 
Q 71.09375 55.28125 71.09375 36.53125 
Q 71.09375 17.671875 61.125 8.828125 
Q 51.171875 0 30.078125 0 
L 9.8125 0 
z
" id="DejaVuSans-68"/>
      <path d="M 34.28125 27.484375 
Q 23.390625 27.484375 19.1875 25 
Q 14.984375 22.515625 14.984375 16.5 
Q 14.984375 11.71875 18.140625 8.90625 
Q 21.296875 6.109375 26.703125 6.109375 
Q 34.1875 6.109375 38.703125 11.40625 
Q 43.21875 16.703125 43.21875 25.484375 
L 43.21875 27.484375 
z
M 52.203125 31.203125 
L 52.203125 0 
L 43.21875 0 
L 43.21875 8.296875 
Q 40.140625 3.328125 35.546875 0.953125 
Q 30.953125 -1.421875 24.3125 -1.421875 
Q 15.921875 -1.421875 10.953125 3.296875 
Q 6 8.015625 6 15.921875 
Q 6 25.140625 12.171875 29.828125 
Q 18.359375 34.515625 30.609375 34.515625 
L 43.21875 34.515625 
L 43.21875 35.40625 
Q 43.21875 41.609375 39.140625 45 
Q 35.0625 48.390625 27.6875 48.390625 
Q 23 48.390625 18.546875 47.265625 
Q 14.109375 46.140625 10.015625 43.890625 
L 10.015625 52.203125 
Q 14.9375 54.109375 19.578125 55.046875 
Q 24.21875 56 28.609375 56 
Q 40.484375 56 46.34375 49.84375 
Q 52.203125 43.703125 52.203125 31.203125 
z
" id="DejaVuSans-97"/>
      <path d="M 18.3125 70.21875 
L 18.3125 54.6875 
L 36.8125 54.6875 
L 36.8125 47.703125 
L 18.3125 47.703125 
L 18.3125 18.015625 
Q 18.3125 11.328125 20.140625 9.421875 
Q 21.96875 7.515625 27.59375 7.515625 
L 36.8125 7.515625 
L 36.8125 0 
L 27.59375 0 
Q 17.1875 0 13.234375 3.875 
Q 9.28125 7.765625 9.28125 18.015625 
L 9.28125 47.703125 
L 2.6875 47.703125 
L 2.6875 54.6875 
L 9.28125 54.6875 
L 9.28125 70.21875 
z
" id="DejaVuSans-116"/>
      <path id="DejaVuSans-32"/>
      <path d="M 44.28125 53.078125 
L 44.28125 44.578125 
Q 40.484375 46.53125 36.375 47.5 
Q 32.28125 48.484375 27.875 48.484375 
Q 21.1875 48.484375 17.84375 46.4375 
Q 14.5 44.390625 14.5 40.28125 
Q 14.5 37.15625 16.890625 35.375 
Q 19.28125 33.59375 26.515625 31.984375 
L 29.59375 31.296875 
Q 39.15625 29.25 43.1875 25.515625 
Q 47.21875 21.78125 47.21875 15.09375 
Q 47.21875 7.46875 41.1875 3.015625 
Q 35.15625 -1.421875 24.609375 -1.421875 
Q 20.21875 -1.421875 15.453125 -0.5625 
Q 10.6875 0.296875 5.421875 2 
L 5.421875 11.28125 
Q 10.40625 8.6875 15.234375 7.390625 
Q 20.0625 6.109375 24.8125 6.109375 
Q 31.15625 6.109375 34.5625 8.28125 
Q 37.984375 10.453125 37.984375 14.40625 
Q 37.984375 18.0625 35.515625 20.015625 
Q 33.0625 21.96875 24.703125 23.78125 
L 21.578125 24.515625 
Q 13.234375 26.265625 9.515625 29.90625 
Q 5.8125 33.546875 5.8125 39.890625 
Q 5.8125 47.609375 11.28125 51.796875 
Q 16.75 56 26.8125 56 
Q 31.78125 56 36.171875 55.265625 
Q 40.578125 54.546875 44.28125 53.078125 
z
" id="DejaVuSans-115"/>
      <path d="M 30.609375 48.390625 
Q 23.390625 48.390625 19.1875 42.75 
Q 14.984375 37.109375 14.984375 27.296875 
Q 14.984375 17.484375 19.15625 11.84375 
Q 23.34375 6.203125 30.609375 6.203125 
Q 37.796875 6.203125 41.984375 11.859375 
Q 46.1875 17.53125 46.1875 27.296875 
Q 46.1875 37.015625 41.984375 42.703125 
Q 37.796875 48.390625 30.609375 48.390625 
z
M 30.609375 56 
Q 42.328125 56 49.015625 48.375 
Q 55.71875 40.765625 55.71875 27.296875 
Q 55.71875 13.875 49.015625 6.21875 
Q 42.328125 -1.421875 30.609375 -1.421875 
Q 18.84375 -1.421875 12.171875 6.21875 
Q 5.515625 13.875 5.515625 27.296875 
Q 5.515625 40.765625 12.171875 48.375 
Q 18.84375 56 30.609375 56 
z
" id="DejaVuSans-111"/>
      <path d="M 8.5 21.578125 
L 8.5 54.6875 
L 17.484375 54.6875 
L 17.484375 21.921875 
Q 17.484375 14.15625 20.5 10.265625 
Q 23.53125 6.390625 29.59375 6.390625 
Q 36.859375 6.390625 41.078125 11.03125 
Q 45.3125 15.671875 45.3125 23.6875 
L 45.3125 54.6875 
L 54.296875 54.6875 
L 54.296875 0 
L 45.3125 0 
L 45.3125 8.40625 
Q 42.046875 3.421875 37.71875 1 
Q 33.40625 -1.421875 27.6875 -1.421875 
Q 18.265625 -1.421875 13.375 4.4375 
Q 8.5 10.296875 8.5 21.578125 
z
M 31.109375 56 
z
" id="DejaVuSans-117"/>
      <path d="M 41.109375 46.296875 
Q 39.59375 47.171875 37.8125 47.578125 
Q 36.03125 48 33.890625 48 
Q 26.265625 48 22.1875 43.046875 
Q 18.109375 38.09375 18.109375 28.8125 
L 18.109375 0 
L 9.078125 0 
L 9.078125 54.6875 
L 18.109375 54.6875 
L 18.109375 46.1875 
Q 20.953125 51.171875 25.484375 53.578125 
Q 30.03125 56 36.53125 56 
Q 37.453125 56 38.578125 55.875 
Q 39.703125 55.765625 41.0625 55.515625 
z
" id="DejaVuSans-114"/>
      <path d="M 48.78125 52.59375 
L 48.78125 44.1875 
Q 44.96875 46.296875 41.140625 47.34375 
Q 37.3125 48.390625 33.40625 48.390625 
Q 24.65625 48.390625 19.8125 42.84375 
Q 14.984375 37.3125 14.984375 27.296875 
Q 14.984375 17.28125 19.8125 11.734375 
Q 24.65625 6.203125 33.40625 6.203125 
Q 37.3125 6.203125 41.140625 7.25 
Q 44.96875 8.296875 48.78125 10.40625 
L 48.78125 2.09375 
Q 45.015625 0.34375 40.984375 -0.53125 
Q 36.96875 -1.421875 32.421875 -1.421875 
Q 20.0625 -1.421875 12.78125 6.34375 
Q 5.515625 14.109375 5.515625 27.296875 
Q 5.515625 40.671875 12.859375 48.328125 
Q 20.21875 56 33.015625 56 
Q 37.15625 56 41.109375 55.140625 
Q 45.0625 54.296875 48.78125 52.59375 
z
" id="DejaVuSans-99"/>
      <path d="M 56.203125 29.59375 
L 56.203125 25.203125 
L 14.890625 25.203125 
Q 15.484375 15.921875 20.484375 11.0625 
Q 25.484375 6.203125 34.421875 6.203125 
Q 39.59375 6.203125 44.453125 7.46875 
Q 49.3125 8.734375 54.109375 11.28125 
L 54.109375 2.78125 
Q 49.265625 0.734375 44.1875 -0.34375 
Q 39.109375 -1.421875 33.890625 -1.421875 
Q 20.796875 -1.421875 13.15625 6.1875 
Q 5.515625 13.8125 5.515625 26.8125 
Q 5.515625 40.234375 12.765625 48.109375 
Q 20.015625 56 32.328125 56 
Q 43.359375 56 49.78125 48.890625 
Q 56.203125 41.796875 56.203125 29.59375 
z
M 47.21875 32.234375 
Q 47.125 39.59375 43.09375 43.984375 
Q 39.0625 48.390625 32.421875 48.390625 
Q 24.90625 48.390625 20.390625 44.140625 
Q 15.875 39.890625 15.1875 32.171875 
z
" id="DejaVuSans-101"/>
      <path d="M 11.71875 12.40625 
L 22.015625 12.40625 
L 22.015625 0 
L 11.71875 0 
z
M 11.71875 51.703125 
L 22.015625 51.703125 
L 22.015625 39.3125 
L 11.71875 39.3125 
z
" id="DejaVuSans-58"/>
      <path d="M 54.890625 33.015625 
L 54.890625 0 
L 45.90625 0 
L 45.90625 32.71875 
Q 45.90625 40.484375 42.875 44.328125 
Q 39.84375 48.1875 33.796875 48.1875 
Q 26.515625 48.1875 22.3125 43.546875 
Q 18.109375 38.921875 18.109375 30.90625 
L 18.109375 0 
L 9.078125 0 
L 9.078125 54.6875 
L 18.109375 54.6875 
L 18.109375 46.1875 
Q 21.34375 51.125 25.703125 53.5625 
Q 30.078125 56 35.796875 56 
Q 45.21875 56 50.046875 50.171875 
Q 54.890625 44.34375 54.890625 33.015625 
z
" id="DejaVuSans-110"/>
      <path d="M 52 44.1875 
Q 55.375 50.25 60.0625 53.125 
Q 64.75 56 71.09375 56 
Q 79.640625 56 84.28125 50.015625 
Q 88.921875 44.046875 88.921875 33.015625 
L 88.921875 0 
L 79.890625 0 
L 79.890625 32.71875 
Q 79.890625 40.578125 77.09375 44.375 
Q 74.3125 48.1875 68.609375 48.1875 
Q 61.625 48.1875 57.5625 43.546875 
Q 53.515625 38.921875 53.515625 30.90625 
L 53.515625 0 
L 44.484375 0 
L 44.484375 32.71875 
Q 44.484375 40.625 41.703125 44.40625 
Q 38.921875 48.1875 33.109375 48.1875 
Q 26.21875 48.1875 22.15625 43.53125 
Q 18.109375 38.875 18.109375 30.90625 
L 18.109375 0 
L 9.078125 0 
L 9.078125 54.6875 
L 18.109375 54.6875 
L 18.109375 46.1875 
Q 21.1875 51.21875 25.484375 53.609375 
Q 29.78125 56 35.6875 56 
Q 41.65625 56 45.828125 52.96875 
Q 50 49.953125 52 44.1875 
z
" id="DejaVuSans-109"/>
      <path d="M 9.421875 54.6875 
L 18.40625 54.6875 
L 18.40625 0 
L 9.421875 0 
z
M 9.421875 75.984375 
L 18.40625 75.984375 
L 18.40625 64.59375 
L 9.421875 64.59375 
z
" id="DejaVuSans-105"/>
     </defs>
     <use xlink:href="#DejaVuSans-68"/>
     <use x="77.001953" xlink:href="#DejaVuSans-97"/>
     <use x="138.28125" xlink:href="#DejaVuSans-116"/>
     <use x="177.490234" xlink:href="#DejaVuSans-97"/>
     <use x="238.769531" xlink:href="#DejaVuSans-32"/>
     <use x="270.556641" xlink:href="#DejaVuSans-115"/>
     <use x="322.65625" xlink:href="#DejaVuSans-111"/>
     <use x="383.837891" xlink:href="#DejaVuSans-117"/>
     <use x="447.216797" xlink:href="#DejaVuSans-114"/>
     <use x="486.080078" xlink:href="#DejaVuSans-99"/>
     <use x="541.060547" xlink:href="#DejaVuSans-101"/>
     <use x="602.583984" xlink:href="#DejaVuSans-58"/>
     <use x="636.275391" xlink:href="#DejaVuSans-32"/>
     <use x="668.0625" xlink:href="#DejaVuSans-110"/>
     <use x="731.441406" xlink:href="#DejaVuSans-111"/>
     <use x="792.623047" xlink:href="#DejaVuSans-109"/>
     <use x="890.035156" xlink:href="#DejaVuSans-105"/>
     <use x="917.818359" xlink:href="#DejaVuSans-99"/>
     <use x="972.798828" xlink:href="#DejaVuSans-115"/>
    </g>
   </g>
   <g id="legend_1">
    <g id="patch_7">
     <path d="M 64.6 78.82825 
L 127.31875 78.82825 
Q 129.31875 78.82825 129.31875 76.82825 
L 129.31875 48.472 
Q 129.31875 46.472 127.31875 46.472 
L 64.6 46.472 
Q 62.6 46.472 62.6 48.472 
L 62.6 76.82825 
Q 62.6 78.82825 64.6 78.82825 
z
" style="fill:#ffffff;opacity:0.8;stroke:#cccccc;stroke-linejoin:miter;"/>
    </g>
    <g id="line2d_18">
     <path d="M 66.6 54.570437 
L 86.6 54.570437 
" style="fill:none;stroke:#0000ff;stroke-linecap:square;stroke-width:1.5;"/>
    </g>
    <g id="line2d_19"/>
    <g id="text_16">
     <!-- MACD -->
     <g transform="translate(94.6 58.070437)scale(0.1 -0.1)">
      <defs>
       <path d="M 9.8125 72.90625 
L 24.515625 72.90625 
L 43.109375 23.296875 
L 61.8125 72.90625 
L 76.515625 72.90625 
L 76.515625 0 
L 66.890625 0 
L 66.890625 64.015625 
L 48.09375 14.015625 
L 38.1875 14.015625 
L 19.390625 64.015625 
L 19.390625 0 
L 9.8125 0 
z
" id="DejaVuSans-77"/>
       <path d="M 34.1875 63.1875 
L 20.796875 26.90625 
L 47.609375 26.90625 
z
M 28.609375 72.90625 
L 39.796875 72.90625 
L 67.578125 0 
L 57.328125 0 
L 50.6875 18.703125 
L 17.828125 18.703125 
L 11.1875 0 
L 0.78125 0 
z
" id="DejaVuSans-65"/>
       <path d="M 64.40625 67.28125 
L 64.40625 56.890625 
Q 59.421875 61.53125 53.78125 63.8125 
Q 48.140625 66.109375 41.796875 66.109375 
Q 29.296875 66.109375 22.65625 58.46875 
Q 16.015625 50.828125 16.015625 36.375 
Q 16.015625 21.96875 22.65625 14.328125 
Q 29.296875 6.6875 41.796875 6.6875 
Q 48.140625 6.6875 53.78125 8.984375 
Q 59.421875 11.28125 64.40625 15.921875 
L 64.40625 5.609375 
Q 59.234375 2.09375 53.4375 0.328125 
Q 47.65625 -1.421875 41.21875 -1.421875 
Q 24.65625 -1.421875 15.125 8.703125 
Q 5.609375 18.84375 5.609375 36.375 
Q 5.609375 53.953125 15.125 64.078125 
Q 24.65625 74.21875 41.21875 74.21875 
Q 47.75 74.21875 53.53125 72.484375 
Q 59.328125 70.75 64.40625 67.28125 
z
" id="DejaVuSans-67"/>
      </defs>
      <use xlink:href="#DejaVuSans-77"/>
      <use x="86.279297" xlink:href="#DejaVuSans-65"/>
      <use x="152.9375" xlink:href="#DejaVuSans-67"/>
      <use x="222.761719" xlink:href="#DejaVuSans-68"/>
     </g>
    </g>
    <g id="line2d_20">
     <path d="M 66.6 69.248562 
L 86.6 69.248562 
" style="fill:none;stroke:#ff6347;stroke-linecap:square;stroke-width:1.5;"/>
    </g>
    <g id="line2d_21"/>
    <g id="text_17">
     <!-- Signal -->
     <g transform="translate(94.6 72.748562)scale(0.1 -0.1)">
      <defs>
       <path d="M 53.515625 70.515625 
L 53.515625 60.890625 
Q 47.90625 63.578125 42.921875 64.890625 
Q 37.9375 66.21875 33.296875 66.21875 
Q 25.25 66.21875 20.875 63.09375 
Q 16.5 59.96875 16.5 54.203125 
Q 16.5 49.359375 19.40625 46.890625 
Q 22.3125 44.4375 30.421875 42.921875 
L 36.375 41.703125 
Q 47.40625 39.59375 52.65625 34.296875 
Q 57.90625 29 57.90625 20.125 
Q 57.90625 9.515625 50.796875 4.046875 
Q 43.703125 -1.421875 29.984375 -1.421875 
Q 24.8125 -1.421875 18.96875 -0.25 
Q 13.140625 0.921875 6.890625 3.21875 
L 6.890625 13.375 
Q 12.890625 10.015625 18.65625 8.296875 
Q 24.421875 6.59375 29.984375 6.59375 
Q 38.421875 6.59375 43.015625 9.90625 
Q 47.609375 13.234375 47.609375 19.390625 
Q 47.609375 24.75 44.3125 27.78125 
Q 41.015625 30.8125 33.5 32.328125 
L 27.484375 33.5 
Q 16.453125 35.6875 11.515625 40.375 
Q 6.59375 45.0625 6.59375 53.421875 
Q 6.59375 63.09375 13.40625 68.65625 
Q 20.21875 74.21875 32.171875 74.21875 
Q 37.3125 74.21875 42.625 73.28125 
Q 47.953125 72.359375 53.515625 70.515625 
z
" id="DejaVuSans-83"/>
       <path d="M 45.40625 27.984375 
Q 45.40625 37.75 41.375 43.109375 
Q 37.359375 48.484375 30.078125 48.484375 
Q 22.859375 48.484375 18.828125 43.109375 
Q 14.796875 37.75 14.796875 27.984375 
Q 14.796875 18.265625 18.828125 12.890625 
Q 22.859375 7.515625 30.078125 7.515625 
Q 37.359375 7.515625 41.375 12.890625 
Q 45.40625 18.265625 45.40625 27.984375 
z
M 54.390625 6.78125 
Q 54.390625 -7.171875 48.1875 -13.984375 
Q 42 -20.796875 29.203125 -20.796875 
Q 24.46875 -20.796875 20.265625 -20.09375 
Q 16.0625 -19.390625 12.109375 -17.921875 
L 12.109375 -9.1875 
Q 16.0625 -11.328125 19.921875 -12.34375 
Q 23.78125 -13.375 27.78125 -13.375 
Q 36.625 -13.375 41.015625 -8.765625 
Q 45.40625 -4.15625 45.40625 5.171875 
L 45.40625 9.625 
Q 42.625 4.78125 38.28125 2.390625 
Q 33.9375 0 27.875 0 
Q 17.828125 0 11.671875 7.65625 
Q 5.515625 15.328125 5.515625 27.984375 
Q 5.515625 40.671875 11.671875 48.328125 
Q 17.828125 56 27.875 56 
Q 33.9375 56 38.28125 53.609375 
Q 42.625 51.21875 45.40625 46.390625 
L 45.40625 54.6875 
L 54.390625 54.6875 
z
" id="DejaVuSans-103"/>
       <path d="M 9.421875 75.984375 
L 18.40625 75.984375 
L 18.40625 0 
L 9.421875 0 
z
" id="DejaVuSans-108"/>
      </defs>
      <use xlink:href="#DejaVuSans-83"/>
      <use x="63.476562" xlink:href="#DejaVuSans-105"/>
      <use x="91.259766" xlink:href="#DejaVuSans-103"/>
      <use x="154.736328" xlink:href="#DejaVuSans-110"/>
      <use x="218.115234" xlink:href="#DejaVuSans-97"/>
      <use x="279.394531" xlink:href="#DejaVuSans-108"/>
     </g>
    </g>
   </g>
  </g>
  <g id="text_18">
   <!-- MACD -->
   <g transform="translate(206.41875 19.0695)scale(0.16 -0.16)">
    <use xlink:href="#DejaVuSans-77"/>
    <use x="86.279297" xlink:href="#DejaVuSans-65"/>
    <use x="152.9375" xlink:href="#DejaVuSans-67"/>
    <use x="222.761719" xlink:href="#DejaVuSans-68"/>
   </g>
  </g>
 </g>
 <defs>
  <clipPath id="p58e18b8402">
   <rect height="266.112" width="357.12" x="57.6" y="41.472"/>
  </clipPath>
 </defs>
</svg>
