<?xml version="1.0" encoding="utf-8" standalone="no"?>
<!DOCTYPE svg PUBLIC "-//W3C//DTD SVG 1.1//EN"
  "http://www.w3.org/Graphics/SVG/1.1/DTD/svg11.dtd">
<!-- Created with matplotlib (https://matplotlib.org/) -->
<svg height="345.6pt" version="1.1" viewBox="0 0 460.8 345.6" width="460.8pt" xmlns="http://www.w3.org/2000/svg" xmlns:xlink="http://www.w3.org/1999/xlink">
 <metadata>
  <rdf:RDF xmlns:cc="http://creativecommons.org/ns#" xmlns:dc="http://purl.org/dc/elements/1.1/" xmlns:rdf="http://www.w3.org/1999/02/22-rdf-syntax-ns#">
   <cc:Work>
    <dc:type rdf:resource="http://purl.org/dc/dcmitype/StillImage"/>
    <dc:date>2020-12-30T13:13:04.833393</dc:date>
    <dc:format>image/svg+xml</dc:format>
    <dc:creator>
     <cc:Agent>
      <dc:title>Matplotlib v3.3.2, https://matplotlib.org/</dc:title>
     </cc:Agent>
    </dc:creator>
   </cc:Work>
  </rdf:RDF>
 </metadata>
 <defs>
  <style type="text/css">*{stroke-linecap:butt;stroke-linejoin:round;}</style>
 </defs>
 <g id="figure_1">
  <g id="patch_1">
   <path d="M 0 345.6 
L 460.8 345.6 
L 460.8 0 
L 0 0 
z
" style="fill:#ffffff;"/>
  </g>
  <g id="axes_1">
   <g id="patch_2">
    <path d="M 57.6 307.584 
L 414.72 307.584 
L 414.72 41.472 
L 57.6 41.472 
z
" style="fill:#ffffff;"/>
   </g>
   <g id="PolyCollection_1">
    <defs>
     <path d="M 73.832727 -231.475612 
L 73.832727 -120.927262 
L 74.727092 -120.927262 
L 75.621458 -120.927262 
L 76.515823 -120.927262 
L 77.410188 -120.927262 
L 78.304553 -120.927262 
L 79.198918 -120.927262 
L 80.093283 -120.927262 
L 80.987648 -120.927262 
L 81.882014 -120.927262 
L 82.776379 -120.927262 
L 83.670744 -120.927262 
L 84.565109 -120.927262 
L 85.459474 -120.927262 
L 86.353839 -120.927262 
L 87.248204 -120.927262 
L 88.142569 -120.927262 
L 89.036935 -120.927262 
L 89.9313 -120.927262 
L 90.825665 -120.927262 
L 91.72003 -120.927262 
L 92.614395 -120.927262 
L 93.50876 -120.927262 
L 94.403125 -120.927262 
L 95.297491 -120.927262 
L 96.191856 -120.927262 
L 97.086221 -120.927262 
L 97.980586 -120.927262 
L 98.874951 -120.927262 
L 99.769316 -120.927262 
L 100.663681 -120.927262 
L 101.558047 -120.927262 
L 102.452412 -120.927262 
L 103.346777 -120.927262 
L 104.241142 -120.927262 
L 105.135507 -120.927262 
L 106.029872 -120.927262 
L 106.924237 -120.927262 
L 107.818603 -120.927262 
L 108.712968 -120.927262 
L 109.607333 -120.927262 
L 110.501698 -120.927262 
L 111.396063 -120.927262 
L 112.290428 -120.927262 
L 113.184793 -120.927262 
L 114.079159 -120.927262 
L 114.973524 -120.927262 
L 115.867889 -120.927262 
L 116.762254 -120.927262 
L 117.656619 -120.927262 
L 118.550984 -120.927262 
L 119.445349 -120.927262 
L 120.339715 -120.927262 
L 121.23408 -120.927262 
L 122.128445 -120.927262 
L 123.02281 -120.927262 
L 123.917175 -120.927262 
L 124.81154 -120.927262 
L 125.705905 -120.927262 
L 126.60027 -120.927262 
L 127.494636 -120.927262 
L 128.389001 -120.927262 
L 129.283366 -120.927262 
L 130.177731 -120.927262 
L 131.072096 -120.927262 
L 131.966461 -120.927262 
L 132.860826 -120.927262 
L 133.755192 -120.927262 
L 134.649557 -120.927262 
L 135.543922 -120.927262 
L 136.438287 -120.927262 
L 137.332652 -120.927262 
L 138.227017 -120.927262 
L 139.121382 -120.927262 
L 140.015748 -120.927262 
L 140.910113 -120.927262 
L 141.804478 -120.927262 
L 142.698843 -120.927262 
L 143.593208 -120.927262 
L 144.487573 -120.927262 
L 145.381938 -120.927262 
L 146.276304 -120.927262 
L 147.170669 -120.927262 
L 148.065034 -120.927262 
L 148.959399 -120.927262 
L 149.853764 -120.927262 
L 150.748129 -120.927262 
L 151.642494 -120.927262 
L 152.53686 -120.927262 
L 153.431225 -120.927262 
L 154.32559 -120.927262 
L 155.219955 -120.927262 
L 156.11432 -120.927262 
L 157.008685 -120.927262 
L 157.90305 -120.927262 
L 158.797415 -120.927262 
L 159.691781 -120.927262 
L 160.586146 -120.927262 
L 161.480511 -120.927262 
L 162.374876 -120.927262 
L 163.269241 -120.927262 
L 164.163606 -120.927262 
L 165.057971 -120.927262 
L 165.952337 -120.927262 
L 166.846702 -120.927262 
L 167.741067 -120.927262 
L 168.635432 -120.927262 
L 169.529797 -120.927262 
L 170.424162 -120.927262 
L 171.318527 -120.927262 
L 172.212893 -120.927262 
L 173.107258 -120.927262 
L 174.001623 -120.927262 
L 174.895988 -120.927262 
L 175.790353 -120.927262 
L 176.684718 -120.927262 
L 177.579083 -120.927262 
L 178.473449 -120.927262 
L 179.367814 -120.927262 
L 180.262179 -120.927262 
L 181.156544 -120.927262 
L 182.050909 -120.927262 
L 182.945274 -120.927262 
L 183.839639 -120.927262 
L 184.734005 -120.927262 
L 185.62837 -120.927262 
L 186.522735 -120.927262 
L 187.4171 -120.927262 
L 188.311465 -120.927262 
L 189.20583 -120.927262 
L 190.100195 -120.927262 
L 190.99456 -120.927262 
L 191.888926 -120.927262 
L 192.783291 -120.927262 
L 193.677656 -120.927262 
L 194.572021 -120.927262 
L 195.466386 -120.927262 
L 196.360751 -120.927262 
L 197.255116 -120.927262 
L 198.149482 -120.927262 
L 199.043847 -120.927262 
L 199.938212 -120.927262 
L 200.832577 -120.927262 
L 201.726942 -120.927262 
L 202.621307 -120.927262 
L 203.515672 -120.927262 
L 204.410038 -120.927262 
L 205.304403 -120.927262 
L 206.198768 -120.927262 
L 207.093133 -120.927262 
L 207.987498 -120.927262 
L 208.881863 -120.927262 
L 209.776228 -120.927262 
L 210.670594 -120.927262 
L 211.564959 -120.927262 
L 212.459324 -120.927262 
L 213.353689 -120.927262 
L 214.248054 -120.927262 
L 215.142419 -120.927262 
L 216.036784 -120.927262 
L 216.93115 -120.927262 
L 217.825515 -120.927262 
L 218.71988 -120.927262 
L 219.614245 -120.927262 
L 220.50861 -120.927262 
L 221.402975 -120.927262 
L 222.29734 -120.927262 
L 223.191705 -120.927262 
L 224.086071 -120.927262 
L 224.980436 -120.927262 
L 225.874801 -120.927262 
L 226.769166 -120.927262 
L 227.663531 -120.927262 
L 228.557896 -120.927262 
L 229.452261 -120.927262 
L 230.346627 -120.927262 
L 231.240992 -120.927262 
L 232.135357 -120.927262 
L 233.029722 -120.927262 
L 233.924087 -120.927262 
L 234.818452 -120.927262 
L 235.712817 -120.927262 
L 236.607183 -120.927262 
L 237.501548 -120.927262 
L 238.395913 -120.927262 
L 239.290278 -120.927262 
L 240.184643 -120.927262 
L 241.079008 -120.927262 
L 241.973373 -120.927262 
L 242.867739 -120.927262 
L 243.762104 -120.927262 
L 244.656469 -120.927262 
L 245.550834 -120.927262 
L 246.445199 -120.927262 
L 247.339564 -120.927262 
L 248.233929 -120.927262 
L 249.128295 -120.927262 
L 250.02266 -120.927262 
L 250.917025 -120.927262 
L 251.81139 -120.927262 
L 252.705755 -120.927262 
L 253.60012 -120.927262 
L 254.494485 -120.927262 
L 255.38885 -120.927262 
L 256.283216 -120.927262 
L 257.177581 -120.927262 
L 258.071946 -120.927262 
L 258.966311 -120.927262 
L 259.860676 -120.927262 
L 260.755041 -120.927262 
L 261.649406 -120.927262 
L 262.543772 -120.927262 
L 263.438137 -120.927262 
L 264.332502 -120.927262 
L 265.226867 -120.927262 
L 266.121232 -120.927262 
L 267.015597 -120.927262 
L 267.909962 -120.927262 
L 268.804328 -120.927262 
L 269.698693 -120.927262 
L 270.593058 -120.927262 
L 271.487423 -120.927262 
L 272.381788 -120.927262 
L 273.276153 -120.927262 
L 274.170518 -120.927262 
L 275.064884 -120.927262 
L 275.959249 -120.927262 
L 276.853614 -120.927262 
L 277.747979 -120.927262 
L 278.642344 -120.927262 
L 279.536709 -120.927262 
L 280.431074 -120.927262 
L 281.32544 -120.927262 
L 282.219805 -120.927262 
L 283.11417 -120.927262 
L 284.008535 -120.927262 
L 284.9029 -120.927262 
L 285.797265 -120.927262 
L 286.69163 -120.927262 
L 287.585995 -120.927262 
L 288.480361 -120.927262 
L 289.374726 -120.927262 
L 290.269091 -120.927262 
L 291.163456 -120.927262 
L 292.057821 -120.927262 
L 292.952186 -120.927262 
L 293.846551 -120.927262 
L 294.740917 -120.927262 
L 295.635282 -120.927262 
L 296.529647 -120.927262 
L 297.424012 -120.927262 
L 298.318377 -120.927262 
L 299.212742 -120.927262 
L 300.107107 -120.927262 
L 301.001473 -120.927262 
L 301.895838 -120.927262 
L 302.790203 -120.927262 
L 303.684568 -120.927262 
L 304.578933 -120.927262 
L 305.473298 -120.927262 
L 306.367663 -120.927262 
L 307.262029 -120.927262 
L 308.156394 -120.927262 
L 309.050759 -120.927262 
L 309.945124 -120.927262 
L 310.839489 -120.927262 
L 311.733854 -120.927262 
L 312.628219 -120.927262 
L 313.522585 -120.927262 
L 314.41695 -120.927262 
L 315.311315 -120.927262 
L 316.20568 -120.927262 
L 317.100045 -120.927262 
L 317.99441 -120.927262 
L 318.888775 -120.927262 
L 319.78314 -120.927262 
L 320.677506 -120.927262 
L 321.571871 -120.927262 
L 322.466236 -120.927262 
L 323.360601 -120.927262 
L 324.254966 -120.927262 
L 325.149331 -120.927262 
L 326.043696 -120.927262 
L 326.938062 -120.927262 
L 327.832427 -120.927262 
L 328.726792 -120.927262 
L 329.621157 -120.927262 
L 330.515522 -120.927262 
L 331.409887 -120.927262 
L 332.304252 -120.927262 
L 333.198618 -120.927262 
L 334.092983 -120.927262 
L 334.987348 -120.927262 
L 335.881713 -120.927262 
L 336.776078 -120.927262 
L 337.670443 -120.927262 
L 338.564808 -120.927262 
L 339.459174 -120.927262 
L 340.353539 -120.927262 
L 341.247904 -120.927262 
L 342.142269 -120.927262 
L 343.036634 -120.927262 
L 343.930999 -120.927262 
L 344.825364 -120.927262 
L 345.71973 -120.927262 
L 346.614095 -120.927262 
L 347.50846 -120.927262 
L 348.402825 -120.927262 
L 349.29719 -120.927262 
L 350.191555 -120.927262 
L 351.08592 -120.927262 
L 351.980285 -120.927262 
L 352.874651 -120.927262 
L 353.769016 -120.927262 
L 354.663381 -120.927262 
L 355.557746 -120.927262 
L 356.452111 -120.927262 
L 357.346476 -120.927262 
L 358.240841 -120.927262 
L 359.135207 -120.927262 
L 360.029572 -120.927262 
L 360.923937 -120.927262 
L 361.818302 -120.927262 
L 362.712667 -120.927262 
L 363.607032 -120.927262 
L 364.501397 -120.927262 
L 365.395763 -120.927262 
L 366.290128 -120.927262 
L 367.184493 -120.927262 
L 368.078858 -120.927262 
L 368.973223 -120.927262 
L 369.867588 -120.927262 
L 370.761953 -120.927262 
L 371.656319 -120.927262 
L 372.550684 -120.927262 
L 373.445049 -120.927262 
L 374.339414 -120.927262 
L 375.233779 -120.927262 
L 376.128144 -120.927262 
L 377.022509 -120.927262 
L 377.916875 -120.927262 
L 378.81124 -120.927262 
L 379.705605 -120.927262 
L 380.59997 -120.927262 
L 381.494335 -120.927262 
L 382.3887 -120.927262 
L 383.283065 -120.927262 
L 384.177431 -120.927262 
L 385.071796 -120.927262 
L 385.966161 -120.927262 
L 386.860526 -120.927262 
L 387.754891 -120.927262 
L 388.649256 -120.927262 
L 389.543621 -120.927262 
L 390.437986 -120.927262 
L 391.332352 -120.927262 
L 392.226717 -120.927262 
L 393.121082 -120.927262 
L 394.015447 -120.927262 
L 394.909812 -120.927262 
L 395.804177 -120.927262 
L 396.698542 -120.927262 
L 397.592908 -120.927262 
L 398.487273 -120.927262 
L 398.487273 -231.475612 
L 398.487273 -231.475612 
L 397.592908 -231.475612 
L 396.698542 -231.475612 
L 395.804177 -231.475612 
L 394.909812 -231.475612 
L 394.015447 -231.475612 
L 393.121082 -231.475612 
L 392.226717 -231.475612 
L 391.332352 -231.475612 
L 390.437986 -231.475612 
L 389.543621 -231.475612 
L 388.649256 -231.475612 
L 387.754891 -231.475612 
L 386.860526 -231.475612 
L 385.966161 -231.475612 
L 385.071796 -231.475612 
L 384.177431 -231.475612 
L 383.283065 -231.475612 
L 382.3887 -231.475612 
L 381.494335 -231.475612 
L 380.59997 -231.475612 
L 379.705605 -231.475612 
L 378.81124 -231.475612 
L 377.916875 -231.475612 
L 377.022509 -231.475612 
L 376.128144 -231.475612 
L 375.233779 -231.475612 
L 374.339414 -231.475612 
L 373.445049 -231.475612 
L 372.550684 -231.475612 
L 371.656319 -231.475612 
L 370.761953 -231.475612 
L 369.867588 -231.475612 
L 368.973223 -231.475612 
L 368.078858 -231.475612 
L 367.184493 -231.475612 
L 366.290128 -231.475612 
L 365.395763 -231.475612 
L 364.501397 -231.475612 
L 363.607032 -231.475612 
L 362.712667 -231.475612 
L 361.818302 -231.475612 
L 360.923937 -231.475612 
L 360.029572 -231.475612 
L 359.135207 -231.475612 
L 358.240841 -231.475612 
L 357.346476 -231.475612 
L 356.452111 -231.475612 
L 355.557746 -231.475612 
L 354.663381 -231.475612 
L 353.769016 -231.475612 
L 352.874651 -231.475612 
L 351.980285 -231.475612 
L 351.08592 -231.475612 
L 350.191555 -231.475612 
L 349.29719 -231.475612 
L 348.402825 -231.475612 
L 347.50846 -231.475612 
L 346.614095 -231.475612 
L 345.71973 -231.475612 
L 344.825364 -231.475612 
L 343.930999 -231.475612 
L 343.036634 -231.475612 
L 342.142269 -231.475612 
L 341.247904 -231.475612 
L 340.353539 -231.475612 
L 339.459174 -231.475612 
L 338.564808 -231.475612 
L 337.670443 -231.475612 
L 336.776078 -231.475612 
L 335.881713 -231.475612 
L 334.987348 -231.475612 
L 334.092983 -231.475612 
L 333.198618 -231.475612 
L 332.304252 -231.475612 
L 331.409887 -231.475612 
L 330.515522 -231.475612 
L 329.621157 -231.475612 
L 328.726792 -231.475612 
L 327.832427 -231.475612 
L 326.938062 -231.475612 
L 326.043696 -231.475612 
L 325.149331 -231.475612 
L 324.254966 -231.475612 
L 323.360601 -231.475612 
L 322.466236 -231.475612 
L 321.571871 -231.475612 
L 320.677506 -231.475612 
L 319.78314 -231.475612 
L 318.888775 -231.475612 
L 317.99441 -231.475612 
L 317.100045 -231.475612 
L 316.20568 -231.475612 
L 315.311315 -231.475612 
L 314.41695 -231.475612 
L 313.522585 -231.475612 
L 312.628219 -231.475612 
L 311.733854 -231.475612 
L 310.839489 -231.475612 
L 309.945124 -231.475612 
L 309.050759 -231.475612 
L 308.156394 -231.475612 
L 307.262029 -231.475612 
L 306.367663 -231.475612 
L 305.473298 -231.475612 
L 304.578933 -231.475612 
L 303.684568 -231.475612 
L 302.790203 -231.475612 
L 301.895838 -231.475612 
L 301.001473 -231.475612 
L 300.107107 -231.475612 
L 299.212742 -231.475612 
L 298.318377 -231.475612 
L 297.424012 -231.475612 
L 296.529647 -231.475612 
L 295.635282 -231.475612 
L 294.740917 -231.475612 
L 293.846551 -231.475612 
L 292.952186 -231.475612 
L 292.057821 -231.475612 
L 291.163456 -231.475612 
L 290.269091 -231.475612 
L 289.374726 -231.475612 
L 288.480361 -231.475612 
L 287.585995 -231.475612 
L 286.69163 -231.475612 
L 285.797265 -231.475612 
L 284.9029 -231.475612 
L 284.008535 -231.475612 
L 283.11417 -231.475612 
L 282.219805 -231.475612 
L 281.32544 -231.475612 
L 280.431074 -231.475612 
L 279.536709 -231.475612 
L 278.642344 -231.475612 
L 277.747979 -231.475612 
L 276.853614 -231.475612 
L 275.959249 -231.475612 
L 275.064884 -231.475612 
L 274.170518 -231.475612 
L 273.276153 -231.475612 
L 272.381788 -231.475612 
L 271.487423 -231.475612 
L 270.593058 -231.475612 
L 269.698693 -231.475612 
L 268.804328 -231.475612 
L 267.909962 -231.475612 
L 267.015597 -231.475612 
L 266.121232 -231.475612 
L 265.226867 -231.475612 
L 264.332502 -231.475612 
L 263.438137 -231.475612 
L 262.543772 -231.475612 
L 261.649406 -231.475612 
L 260.755041 -231.475612 
L 259.860676 -231.475612 
L 258.966311 -231.475612 
L 258.071946 -231.475612 
L 257.177581 -231.475612 
L 256.283216 -231.475612 
L 255.38885 -231.475612 
L 254.494485 -231.475612 
L 253.60012 -231.475612 
L 252.705755 -231.475612 
L 251.81139 -231.475612 
L 250.917025 -231.475612 
L 250.02266 -231.475612 
L 249.128295 -231.475612 
L 248.233929 -231.475612 
L 247.339564 -231.475612 
L 246.445199 -231.475612 
L 245.550834 -231.475612 
L 244.656469 -231.475612 
L 243.762104 -231.475612 
L 242.867739 -231.475612 
L 241.973373 -231.475612 
L 241.079008 -231.475612 
L 240.184643 -231.475612 
L 239.290278 -231.475612 
L 238.395913 -231.475612 
L 237.501548 -231.475612 
L 236.607183 -231.475612 
L 235.712817 -231.475612 
L 234.818452 -231.475612 
L 233.924087 -231.475612 
L 233.029722 -231.475612 
L 232.135357 -231.475612 
L 231.240992 -231.475612 
L 230.346627 -231.475612 
L 229.452261 -231.475612 
L 228.557896 -231.475612 
L 227.663531 -231.475612 
L 226.769166 -231.475612 
L 225.874801 -231.475612 
L 224.980436 -231.475612 
L 224.086071 -231.475612 
L 223.191705 -231.475612 
L 222.29734 -231.475612 
L 221.402975 -231.475612 
L 220.50861 -231.475612 
L 219.614245 -231.475612 
L 218.71988 -231.475612 
L 217.825515 -231.475612 
L 216.93115 -231.475612 
L 216.036784 -231.475612 
L 215.142419 -231.475612 
L 214.248054 -231.475612 
L 213.353689 -231.475612 
L 212.459324 -231.475612 
L 211.564959 -231.475612 
L 210.670594 -231.475612 
L 209.776228 -231.475612 
L 208.881863 -231.475612 
L 207.987498 -231.475612 
L 207.093133 -231.475612 
L 206.198768 -231.475612 
L 205.304403 -231.475612 
L 204.410038 -231.475612 
L 203.515672 -231.475612 
L 202.621307 -231.475612 
L 201.726942 -231.475612 
L 200.832577 -231.475612 
L 199.938212 -231.475612 
L 199.043847 -231.475612 
L 198.149482 -231.475612 
L 197.255116 -231.475612 
L 196.360751 -231.475612 
L 195.466386 -231.475612 
L 194.572021 -231.475612 
L 193.677656 -231.475612 
L 192.783291 -231.475612 
L 191.888926 -231.475612 
L 190.99456 -231.475612 
L 190.100195 -231.475612 
L 189.20583 -231.475612 
L 188.311465 -231.475612 
L 187.4171 -231.475612 
L 186.522735 -231.475612 
L 185.62837 -231.475612 
L 184.734005 -231.475612 
L 183.839639 -231.475612 
L 182.945274 -231.475612 
L 182.050909 -231.475612 
L 181.156544 -231.475612 
L 180.262179 -231.475612 
L 179.367814 -231.475612 
L 178.473449 -231.475612 
L 177.579083 -231.475612 
L 176.684718 -231.475612 
L 175.790353 -231.475612 
L 174.895988 -231.475612 
L 174.001623 -231.475612 
L 173.107258 -231.475612 
L 172.212893 -231.475612 
L 171.318527 -231.475612 
L 170.424162 -231.475612 
L 169.529797 -231.475612 
L 168.635432 -231.475612 
L 167.741067 -231.475612 
L 166.846702 -231.475612 
L 165.952337 -231.475612 
L 165.057971 -231.475612 
L 164.163606 -231.475612 
L 163.269241 -231.475612 
L 162.374876 -231.475612 
L 161.480511 -231.475612 
L 160.586146 -231.475612 
L 159.691781 -231.475612 
L 158.797415 -231.475612 
L 157.90305 -231.475612 
L 157.008685 -231.475612 
L 156.11432 -231.475612 
L 155.219955 -231.475612 
L 154.32559 -231.475612 
L 153.431225 -231.475612 
L 152.53686 -231.475612 
L 151.642494 -231.475612 
L 150.748129 -231.475612 
L 149.853764 -231.475612 
L 148.959399 -231.475612 
L 148.065034 -231.475612 
L 147.170669 -231.475612 
L 146.276304 -231.475612 
L 145.381938 -231.475612 
L 144.487573 -231.475612 
L 143.593208 -231.475612 
L 142.698843 -231.475612 
L 141.804478 -231.475612 
L 140.910113 -231.475612 
L 140.015748 -231.475612 
L 139.121382 -231.475612 
L 138.227017 -231.475612 
L 137.332652 -231.475612 
L 136.438287 -231.475612 
L 135.543922 -231.475612 
L 134.649557 -231.475612 
L 133.755192 -231.475612 
L 132.860826 -231.475612 
L 131.966461 -231.475612 
L 131.072096 -231.475612 
L 130.177731 -231.475612 
L 129.283366 -231.475612 
L 128.389001 -231.475612 
L 127.494636 -231.475612 
L 126.60027 -231.475612 
L 125.705905 -231.475612 
L 124.81154 -231.475612 
L 123.917175 -231.475612 
L 123.02281 -231.475612 
L 122.128445 -231.475612 
L 121.23408 -231.475612 
L 120.339715 -231.475612 
L 119.445349 -231.475612 
L 118.550984 -231.475612 
L 117.656619 -231.475612 
L 116.762254 -231.475612 
L 115.867889 -231.475612 
L 114.973524 -231.475612 
L 114.079159 -231.475612 
L 113.184793 -231.475612 
L 112.290428 -231.475612 
L 111.396063 -231.475612 
L 110.501698 -231.475612 
L 109.607333 -231.475612 
L 108.712968 -231.475612 
L 107.818603 -231.475612 
L 106.924237 -231.475612 
L 106.029872 -231.475612 
L 105.135507 -231.475612 
L 104.241142 -231.475612 
L 103.346777 -231.475612 
L 102.452412 -231.475612 
L 101.558047 -231.475612 
L 100.663681 -231.475612 
L 99.769316 -231.475612 
L 98.874951 -231.475612 
L 97.980586 -231.475612 
L 97.086221 -231.475612 
L 96.191856 -231.475612 
L 95.297491 -231.475612 
L 94.403125 -231.475612 
L 93.50876 -231.475612 
L 92.614395 -231.475612 
L 91.72003 -231.475612 
L 90.825665 -231.475612 
L 89.9313 -231.475612 
L 89.036935 -231.475612 
L 88.142569 -231.475612 
L 87.248204 -231.475612 
L 86.353839 -231.475612 
L 85.459474 -231.475612 
L 84.565109 -231.475612 
L 83.670744 -231.475612 
L 82.776379 -231.475612 
L 81.882014 -231.475612 
L 80.987648 -231.475612 
L 80.093283 -231.475612 
L 79.198918 -231.475612 
L 78.304553 -231.475612 
L 77.410188 -231.475612 
L 76.515823 -231.475612 
L 75.621458 -231.475612 
L 74.727092 -231.475612 
L 73.832727 -231.475612 
z
" id="m80bd735ea9" style="stroke:#4b0082;stroke-opacity:0.3;"/>
    </defs>
    <g clip-path="url(#pc1f3f8de87)">
     <use style="fill:#4b0082;fill-opacity:0.3;stroke:#4b0082;stroke-opacity:0.3;" x="0" xlink:href="#m80bd735ea9" y="345.6"/>
    </g>
   </g>
   <g id="matplotlib.axis_1">
    <g id="xtick_1">
     <g id="line2d_1">
      <defs>
       <path d="M 0 0 
L 0 3.5 
" id="m0f964f5988" style="stroke:#000000;stroke-width:0.8;"/>
      </defs>
      <g>
       <use style="stroke:#000000;stroke-width:0.8;" x="73.832727" xlink:href="#m0f964f5988" y="307.584"/>
      </g>
     </g>
     <g id="text_1">
      <!-- 2020-01 -->
      <g transform="translate(52.941321 322.182437)scale(0.1 -0.1)">
       <defs>
        <path d="M 19.1875 8.296875 
L 53.609375 8.296875 
L 53.609375 0 
L 7.328125 0 
L 7.328125 8.296875 
Q 12.9375 14.109375 22.625 23.890625 
Q 32.328125 33.6875 34.8125 36.53125 
Q 39.546875 41.84375 41.421875 45.53125 
Q 43.3125 49.21875 43.3125 52.78125 
Q 43.3125 58.59375 39.234375 62.25 
Q 35.15625 65.921875 28.609375 65.921875 
Q 23.96875 65.921875 18.8125 64.3125 
Q 13.671875 62.703125 7.8125 59.421875 
L 7.8125 69.390625 
Q 13.765625 71.78125 18.9375 73 
Q 24.125 74.21875 28.421875 74.21875 
Q 39.75 74.21875 46.484375 68.546875 
Q 53.21875 62.890625 53.21875 53.421875 
Q 53.21875 48.921875 51.53125 44.890625 
Q 49.859375 40.875 45.40625 35.40625 
Q 44.1875 33.984375 37.640625 27.21875 
Q 31.109375 20.453125 19.1875 8.296875 
z
" id="DejaVuSans-50"/>
        <path d="M 31.78125 66.40625 
Q 24.171875 66.40625 20.328125 58.90625 
Q 16.5 51.421875 16.5 36.375 
Q 16.5 21.390625 20.328125 13.890625 
Q 24.171875 6.390625 31.78125 6.390625 
Q 39.453125 6.390625 43.28125 13.890625 
Q 47.125 21.390625 47.125 36.375 
Q 47.125 51.421875 43.28125 58.90625 
Q 39.453125 66.40625 31.78125 66.40625 
z
M 31.78125 74.21875 
Q 44.046875 74.21875 50.515625 64.515625 
Q 56.984375 54.828125 56.984375 36.375 
Q 56.984375 17.96875 50.515625 8.265625 
Q 44.046875 -1.421875 31.78125 -1.421875 
Q 19.53125 -1.421875 13.0625 8.265625 
Q 6.59375 17.96875 6.59375 36.375 
Q 6.59375 54.828125 13.0625 64.515625 
Q 19.53125 74.21875 31.78125 74.21875 
z
" id="DejaVuSans-48"/>
        <path d="M 4.890625 31.390625 
L 31.203125 31.390625 
L 31.203125 23.390625 
L 4.890625 23.390625 
z
" id="DejaVuSans-45"/>
        <path d="M 12.40625 8.296875 
L 28.515625 8.296875 
L 28.515625 63.921875 
L 10.984375 60.40625 
L 10.984375 69.390625 
L 28.421875 72.90625 
L 38.28125 72.90625 
L 38.28125 8.296875 
L 54.390625 8.296875 
L 54.390625 0 
L 12.40625 0 
z
" id="DejaVuSans-49"/>
       </defs>
       <use xlink:href="#DejaVuSans-50"/>
       <use x="63.623047" xlink:href="#DejaVuSans-48"/>
       <use x="127.246094" xlink:href="#DejaVuSans-50"/>
       <use x="190.869141" xlink:href="#DejaVuSans-48"/>
       <use x="254.492188" xlink:href="#DejaVuSans-45"/>
       <use x="290.576172" xlink:href="#DejaVuSans-48"/>
       <use x="354.199219" xlink:href="#DejaVuSans-49"/>
      </g>
     </g>
    </g>
    <g id="xtick_2">
     <g id="line2d_2">
      <g>
       <use style="stroke:#000000;stroke-width:0.8;" x="127.494636" xlink:href="#m0f964f5988" y="307.584"/>
      </g>
     </g>
     <g id="text_2">
      <!-- 2020-03 -->
      <g transform="translate(106.603229 322.182437)scale(0.1 -0.1)">
       <defs>
        <path d="M 40.578125 39.3125 
Q 47.65625 37.796875 51.625 33 
Q 55.609375 28.21875 55.609375 21.1875 
Q 55.609375 10.40625 48.1875 4.484375 
Q 40.765625 -1.421875 27.09375 -1.421875 
Q 22.515625 -1.421875 17.65625 -0.515625 
Q 12.796875 0.390625 7.625 2.203125 
L 7.625 11.71875 
Q 11.71875 9.328125 16.59375 8.109375 
Q 21.484375 6.890625 26.8125 6.890625 
Q 36.078125 6.890625 40.9375 10.546875 
Q 45.796875 14.203125 45.796875 21.1875 
Q 45.796875 27.640625 41.28125 31.265625 
Q 36.765625 34.90625 28.71875 34.90625 
L 20.21875 34.90625 
L 20.21875 43.015625 
L 29.109375 43.015625 
Q 36.375 43.015625 40.234375 45.921875 
Q 44.09375 48.828125 44.09375 54.296875 
Q 44.09375 59.90625 40.109375 62.90625 
Q 36.140625 65.921875 28.71875 65.921875 
Q 24.65625 65.921875 20.015625 65.03125 
Q 15.375 64.15625 9.8125 62.3125 
L 9.8125 71.09375 
Q 15.4375 72.65625 20.34375 73.4375 
Q 25.25 74.21875 29.59375 74.21875 
Q 40.828125 74.21875 47.359375 69.109375 
Q 53.90625 64.015625 53.90625 55.328125 
Q 53.90625 49.265625 50.4375 45.09375 
Q 46.96875 40.921875 40.578125 39.3125 
z
" id="DejaVuSans-51"/>
       </defs>
       <use xlink:href="#DejaVuSans-50"/>
       <use x="63.623047" xlink:href="#DejaVuSans-48"/>
       <use x="127.246094" xlink:href="#DejaVuSans-50"/>
       <use x="190.869141" xlink:href="#DejaVuSans-48"/>
       <use x="254.492188" xlink:href="#DejaVuSans-45"/>
       <use x="290.576172" xlink:href="#DejaVuSans-48"/>
       <use x="354.199219" xlink:href="#DejaVuSans-51"/>
      </g>
     </g>
    </g>
    <g id="xtick_3">
     <g id="line2d_3">
      <g>
       <use style="stroke:#000000;stroke-width:0.8;" x="182.050909" xlink:href="#m0f964f5988" y="307.584"/>
      </g>
     </g>
     <g id="text_3">
      <!-- 2020-05 -->
      <g transform="translate(161.159503 322.182437)scale(0.1 -0.1)">
       <defs>
        <path d="M 10.796875 72.90625 
L 49.515625 72.90625 
L 49.515625 64.59375 
L 19.828125 64.59375 
L 19.828125 46.734375 
Q 21.96875 47.46875 24.109375 47.828125 
Q 26.265625 48.1875 28.421875 48.1875 
Q 40.625 48.1875 47.75 41.5 
Q 54.890625 34.8125 54.890625 23.390625 
Q 54.890625 11.625 47.5625 5.09375 
Q 40.234375 -1.421875 26.90625 -1.421875 
Q 22.3125 -1.421875 17.546875 -0.640625 
Q 12.796875 0.140625 7.71875 1.703125 
L 7.71875 11.625 
Q 12.109375 9.234375 16.796875 8.0625 
Q 21.484375 6.890625 26.703125 6.890625 
Q 35.15625 6.890625 40.078125 11.328125 
Q 45.015625 15.765625 45.015625 23.390625 
Q 45.015625 31 40.078125 35.4375 
Q 35.15625 39.890625 26.703125 39.890625 
Q 22.75 39.890625 18.8125 39.015625 
Q 14.890625 38.140625 10.796875 36.28125 
z
" id="DejaVuSans-53"/>
       </defs>
       <use xlink:href="#DejaVuSans-50"/>
       <use x="63.623047" xlink:href="#DejaVuSans-48"/>
       <use x="127.246094" xlink:href="#DejaVuSans-50"/>
       <use x="190.869141" xlink:href="#DejaVuSans-48"/>
       <use x="254.492188" xlink:href="#DejaVuSans-45"/>
       <use x="290.576172" xlink:href="#DejaVuSans-48"/>
       <use x="354.199219" xlink:href="#DejaVuSans-53"/>
      </g>
     </g>
    </g>
    <g id="xtick_4">
     <g id="line2d_4">
      <g>
       <use style="stroke:#000000;stroke-width:0.8;" x="236.607183" xlink:href="#m0f964f5988" y="307.584"/>
      </g>
     </g>
     <g id="text_4">
      <!-- 2020-07 -->
      <g transform="translate(215.715776 322.182437)scale(0.1 -0.1)">
       <defs>
        <path d="M 8.203125 72.90625 
L 55.078125 72.90625 
L 55.078125 68.703125 
L 28.609375 0 
L 18.3125 0 
L 43.21875 64.59375 
L 8.203125 64.59375 
z
" id="DejaVuSans-55"/>
       </defs>
       <use xlink:href="#DejaVuSans-50"/>
       <use x="63.623047" xlink:href="#DejaVuSans-48"/>
       <use x="127.246094" xlink:href="#DejaVuSans-50"/>
       <use x="190.869141" xlink:href="#DejaVuSans-48"/>
       <use x="254.492188" xlink:href="#DejaVuSans-45"/>
       <use x="290.576172" xlink:href="#DejaVuSans-48"/>
       <use x="354.199219" xlink:href="#DejaVuSans-55"/>
      </g>
     </g>
    </g>
    <g id="xtick_5">
     <g id="line2d_5">
      <g>
       <use style="stroke:#000000;stroke-width:0.8;" x="292.057821" xlink:href="#m0f964f5988" y="307.584"/>
      </g>
     </g>
     <g id="text_5">
      <!-- 2020-09 -->
      <g transform="translate(271.166415 322.182437)scale(0.1 -0.1)">
       <defs>
        <path d="M 10.984375 1.515625 
L 10.984375 10.5 
Q 14.703125 8.734375 18.5 7.8125 
Q 22.3125 6.890625 25.984375 6.890625 
Q 35.75 6.890625 40.890625 13.453125 
Q 46.046875 20.015625 46.78125 33.40625 
Q 43.953125 29.203125 39.59375 26.953125 
Q 35.25 24.703125 29.984375 24.703125 
Q 19.046875 24.703125 12.671875 31.3125 
Q 6.296875 37.9375 6.296875 49.421875 
Q 6.296875 60.640625 12.9375 67.421875 
Q 19.578125 74.21875 30.609375 74.21875 
Q 43.265625 74.21875 49.921875 64.515625 
Q 56.59375 54.828125 56.59375 36.375 
Q 56.59375 19.140625 48.40625 8.859375 
Q 40.234375 -1.421875 26.421875 -1.421875 
Q 22.703125 -1.421875 18.890625 -0.6875 
Q 15.09375 0.046875 10.984375 1.515625 
z
M 30.609375 32.421875 
Q 37.25 32.421875 41.125 36.953125 
Q 45.015625 41.5 45.015625 49.421875 
Q 45.015625 57.28125 41.125 61.84375 
Q 37.25 66.40625 30.609375 66.40625 
Q 23.96875 66.40625 20.09375 61.84375 
Q 16.21875 57.28125 16.21875 49.421875 
Q 16.21875 41.5 20.09375 36.953125 
Q 23.96875 32.421875 30.609375 32.421875 
z
" id="DejaVuSans-57"/>
       </defs>
       <use xlink:href="#DejaVuSans-50"/>
       <use x="63.623047" xlink:href="#DejaVuSans-48"/>
       <use x="127.246094" xlink:href="#DejaVuSans-50"/>
       <use x="190.869141" xlink:href="#DejaVuSans-48"/>
       <use x="254.492188" xlink:href="#DejaVuSans-45"/>
       <use x="290.576172" xlink:href="#DejaVuSans-48"/>
       <use x="354.199219" xlink:href="#DejaVuSans-57"/>
      </g>
     </g>
    </g>
    <g id="xtick_6">
     <g id="line2d_6">
      <g>
       <use style="stroke:#000000;stroke-width:0.8;" x="346.614095" xlink:href="#m0f964f5988" y="307.584"/>
      </g>
     </g>
     <g id="text_6">
      <!-- 2020-11 -->
      <g transform="translate(325.722688 322.182437)scale(0.1 -0.1)">
       <use xlink:href="#DejaVuSans-50"/>
       <use x="63.623047" xlink:href="#DejaVuSans-48"/>
       <use x="127.246094" xlink:href="#DejaVuSans-50"/>
       <use x="190.869141" xlink:href="#DejaVuSans-48"/>
       <use x="254.492188" xlink:href="#DejaVuSans-45"/>
       <use x="290.576172" xlink:href="#DejaVuSans-49"/>
       <use x="354.199219" xlink:href="#DejaVuSans-49"/>
      </g>
     </g>
    </g>
    <g id="xtick_7">
     <g id="line2d_7">
      <g>
       <use style="stroke:#000000;stroke-width:0.8;" x="401.170368" xlink:href="#m0f964f5988" y="307.584"/>
      </g>
     </g>
     <g id="text_7">
      <!-- 2021-01 -->
      <g transform="translate(380.278962 322.182437)scale(0.1 -0.1)">
       <use xlink:href="#DejaVuSans-50"/>
       <use x="63.623047" xlink:href="#DejaVuSans-48"/>
       <use x="127.246094" xlink:href="#DejaVuSans-50"/>
       <use x="190.869141" xlink:href="#DejaVuSans-49"/>
       <use x="254.492188" xlink:href="#DejaVuSans-45"/>
       <use x="290.576172" xlink:href="#DejaVuSans-48"/>
       <use x="354.199219" xlink:href="#DejaVuSans-49"/>
      </g>
     </g>
    </g>
   </g>
   <g id="matplotlib.axis_2">
    <g id="ytick_1">
     <g id="line2d_8">
      <defs>
       <path d="M 0 0 
L -3.5 0 
" id="md352746614" style="stroke:#000000;stroke-width:0.8;"/>
      </defs>
      <g>
       <use style="stroke:#000000;stroke-width:0.8;" x="57.6" xlink:href="#md352746614" y="307.584"/>
      </g>
     </g>
     <g id="text_8">
      <!-- 0 -->
      <g transform="translate(44.2375 311.383219)scale(0.1 -0.1)">
       <use xlink:href="#DejaVuSans-48"/>
      </g>
     </g>
    </g>
    <g id="ytick_2">
     <g id="line2d_9">
      <g>
       <use style="stroke:#000000;stroke-width:0.8;" x="57.6" xlink:href="#md352746614" y="252.309825"/>
      </g>
     </g>
     <g id="text_9">
      <!-- 20 -->
      <g transform="translate(37.875 256.109044)scale(0.1 -0.1)">
       <use xlink:href="#DejaVuSans-50"/>
       <use x="63.623047" xlink:href="#DejaVuSans-48"/>
      </g>
     </g>
    </g>
    <g id="ytick_3">
     <g id="line2d_10">
      <g>
       <use style="stroke:#000000;stroke-width:0.8;" x="57.6" xlink:href="#md352746614" y="197.03565"/>
      </g>
     </g>
     <g id="text_10">
      <!-- 40 -->
      <g transform="translate(37.875 200.834869)scale(0.1 -0.1)">
       <defs>
        <path d="M 37.796875 64.3125 
L 12.890625 25.390625 
L 37.796875 25.390625 
z
M 35.203125 72.90625 
L 47.609375 72.90625 
L 47.609375 25.390625 
L 58.015625 25.390625 
L 58.015625 17.1875 
L 47.609375 17.1875 
L 47.609375 0 
L 37.796875 0 
L 37.796875 17.1875 
L 4.890625 17.1875 
L 4.890625 26.703125 
z
" id="DejaVuSans-52"/>
       </defs>
       <use xlink:href="#DejaVuSans-52"/>
       <use x="63.623047" xlink:href="#DejaVuSans-48"/>
      </g>
     </g>
    </g>
    <g id="ytick_4">
     <g id="line2d_11">
      <g>
       <use style="stroke:#000000;stroke-width:0.8;" x="57.6" xlink:href="#md352746614" y="141.761475"/>
      </g>
     </g>
     <g id="text_11">
      <!-- 60 -->
      <g transform="translate(37.875 145.560694)scale(0.1 -0.1)">
       <defs>
        <path d="M 33.015625 40.375 
Q 26.375 40.375 22.484375 35.828125 
Q 18.609375 31.296875 18.609375 23.390625 
Q 18.609375 15.53125 22.484375 10.953125 
Q 26.375 6.390625 33.015625 6.390625 
Q 39.65625 6.390625 43.53125 10.953125 
Q 47.40625 15.53125 47.40625 23.390625 
Q 47.40625 31.296875 43.53125 35.828125 
Q 39.65625 40.375 33.015625 40.375 
z
M 52.59375 71.296875 
L 52.59375 62.3125 
Q 48.875 64.0625 45.09375 64.984375 
Q 41.3125 65.921875 37.59375 65.921875 
Q 27.828125 65.921875 22.671875 59.328125 
Q 17.53125 52.734375 16.796875 39.40625 
Q 19.671875 43.65625 24.015625 45.921875 
Q 28.375 48.1875 33.59375 48.1875 
Q 44.578125 48.1875 50.953125 41.515625 
Q 57.328125 34.859375 57.328125 23.390625 
Q 57.328125 12.15625 50.6875 5.359375 
Q 44.046875 -1.421875 33.015625 -1.421875 
Q 20.359375 -1.421875 13.671875 8.265625 
Q 6.984375 17.96875 6.984375 36.375 
Q 6.984375 53.65625 15.1875 63.9375 
Q 23.390625 74.21875 37.203125 74.21875 
Q 40.921875 74.21875 44.703125 73.484375 
Q 48.484375 72.75 52.59375 71.296875 
z
" id="DejaVuSans-54"/>
       </defs>
       <use xlink:href="#DejaVuSans-54"/>
       <use x="63.623047" xlink:href="#DejaVuSans-48"/>
      </g>
     </g>
    </g>
    <g id="ytick_5">
     <g id="line2d_12">
      <g>
       <use style="stroke:#000000;stroke-width:0.8;" x="57.6" xlink:href="#md352746614" y="86.487301"/>
      </g>
     </g>
     <g id="text_12">
      <!-- 80 -->
      <g transform="translate(37.875 90.286519)scale(0.1 -0.1)">
       <defs>
        <path d="M 31.78125 34.625 
Q 24.75 34.625 20.71875 30.859375 
Q 16.703125 27.09375 16.703125 20.515625 
Q 16.703125 13.921875 20.71875 10.15625 
Q 24.75 6.390625 31.78125 6.390625 
Q 38.8125 6.390625 42.859375 10.171875 
Q 46.921875 13.96875 46.921875 20.515625 
Q 46.921875 27.09375 42.890625 30.859375 
Q 38.875 34.625 31.78125 34.625 
z
M 21.921875 38.8125 
Q 15.578125 40.375 12.03125 44.71875 
Q 8.5 49.078125 8.5 55.328125 
Q 8.5 64.0625 14.71875 69.140625 
Q 20.953125 74.21875 31.78125 74.21875 
Q 42.671875 74.21875 48.875 69.140625 
Q 55.078125 64.0625 55.078125 55.328125 
Q 55.078125 49.078125 51.53125 44.71875 
Q 48 40.375 41.703125 38.8125 
Q 48.828125 37.15625 52.796875 32.3125 
Q 56.78125 27.484375 56.78125 20.515625 
Q 56.78125 9.90625 50.3125 4.234375 
Q 43.84375 -1.421875 31.78125 -1.421875 
Q 19.734375 -1.421875 13.25 4.234375 
Q 6.78125 9.90625 6.78125 20.515625 
Q 6.78125 27.484375 10.78125 32.3125 
Q 14.796875 37.15625 21.921875 38.8125 
z
M 18.3125 54.390625 
Q 18.3125 48.734375 21.84375 45.5625 
Q 25.390625 42.390625 31.78125 42.390625 
Q 38.140625 42.390625 41.71875 45.5625 
Q 45.3125 48.734375 45.3125 54.390625 
Q 45.3125 60.0625 41.71875 63.234375 
Q 38.140625 66.40625 31.78125 66.40625 
Q 25.390625 66.40625 21.84375 63.234375 
Q 18.3125 60.0625 18.3125 54.390625 
z
" id="DejaVuSans-56"/>
       </defs>
       <use xlink:href="#DejaVuSans-56"/>
       <use x="63.623047" xlink:href="#DejaVuSans-48"/>
      </g>
     </g>
    </g>
   </g>
   <g id="line2d_13">
    <path clip-path="url(#pc1f3f8de87)" d="M 88.142569 95.611016 
L 89.036935 93.655241 
L 89.9313 99.694875 
L 90.825665 109.607849 
L 91.72003 123.547788 
L 92.614395 131.548004 
L 93.50876 135.049328 
L 95.297491 144.541081 
L 96.191856 146.444822 
L 97.086221 136.625536 
L 97.980586 131.486309 
L 98.874951 130.511135 
L 99.769316 130.758932 
L 100.663681 134.748552 
L 101.558047 135.98098 
L 102.452412 138.129682 
L 103.346777 132.809104 
L 104.241142 132.607481 
L 105.135507 128.595165 
L 106.029872 117.201723 
L 106.924237 100.938152 
L 107.818603 89.012517 
L 108.712968 85.241717 
L 109.607333 92.633001 
L 110.501698 104.737735 
L 111.396063 113.307098 
L 112.290428 116.404509 
L 113.184793 112.146311 
L 114.079159 123.205102 
L 114.973524 127.552915 
L 115.867889 141.911639 
L 116.762254 136.595705 
L 117.656619 147.320349 
L 118.550984 156.171585 
L 119.445349 172.980091 
L 120.339715 176.524355 
L 122.128445 178.465358 
L 123.02281 188.972863 
L 124.81154 222.911031 
L 125.705905 231.362092 
L 126.60027 231.305033 
L 127.494636 232.746103 
L 128.389001 221.6552 
L 129.283366 223.824847 
L 130.177731 219.34869 
L 131.072096 217.932981 
L 131.966461 204.847997 
L 132.860826 200.488863 
L 134.649557 231.21873 
L 135.543922 241.205385 
L 136.438287 231.616308 
L 137.332652 240.102444 
L 138.227017 240.936062 
L 139.121382 248.780567 
L 140.015748 238.163325 
L 140.910113 242.725792 
L 141.804478 242.315492 
L 142.698843 243.136188 
L 143.593208 233.874805 
L 145.381938 224.367568 
L 146.276304 222.206624 
L 147.170669 212.963704 
L 148.065034 202.425657 
L 148.959399 194.588014 
L 149.853764 165.434486 
L 150.748129 149.712655 
L 151.642494 128.164237 
L 152.53686 141.378998 
L 153.431225 133.781307 
L 154.32559 134.060104 
L 155.219955 125.481777 
L 156.11432 132.918534 
L 157.90305 144.060658 
L 159.691781 132.754252 
L 160.586146 134.904854 
L 161.480511 138.52817 
L 162.374876 143.132484 
L 163.269241 142.476253 
L 164.163606 143.179571 
L 165.057971 133.627929 
L 165.952337 131.854359 
L 166.846702 132.112311 
L 167.741067 150.718563 
L 168.635432 154.427636 
L 169.529797 158.785362 
L 170.424162 151.376011 
L 171.318527 150.822923 
L 173.107258 179.332573 
L 174.001623 190.260557 
L 174.895988 177.166327 
L 176.684718 139.187796 
L 177.579083 127.291544 
L 178.473449 122.367571 
L 179.367814 118.696536 
L 180.262179 103.146877 
L 181.156544 96.605065 
L 182.050909 85.795685 
L 182.945274 89.188769 
L 183.839639 84.684929 
L 186.522735 59.792619 
L 187.4171 58.326475 
L 188.311465 61.968855 
L 189.20583 70.819668 
L 190.99456 121.042748 
L 191.888926 137.377967 
L 192.783291 142.79392 
L 193.677656 138.91875 
L 194.572021 145.146821 
L 195.466386 147.581476 
L 196.360751 152.968722 
L 198.149482 146.311819 
L 199.043847 150.431084 
L 199.938212 168.56331 
L 200.832577 183.149031 
L 201.726942 191.169996 
L 202.621307 181.633372 
L 203.515672 170.616528 
L 204.410038 165.749924 
L 205.304403 166.903154 
L 206.198768 174.175632 
L 207.093133 172.546739 
L 207.987498 166.241843 
L 208.881863 166.250732 
L 209.776228 161.921343 
L 210.670594 169.117862 
L 211.564959 164.012414 
L 212.459324 161.604124 
L 213.353689 153.620908 
L 214.248054 149.458448 
L 215.142419 144.556382 
L 216.93115 130.815284 
L 217.825515 133.922083 
L 218.71988 149.66542 
L 220.50861 175.466672 
L 221.402975 173.339991 
L 222.29734 189.675521 
L 223.191705 186.52597 
L 224.086071 190.317339 
L 224.980436 185.519713 
L 225.874801 194.802839 
L 226.769166 198.492268 
L 227.663531 200.923289 
L 228.557896 194.149504 
L 229.452261 188.648781 
L 230.346627 187.497517 
L 231.240992 185.972185 
L 232.135357 191.505022 
L 233.029722 191.918432 
L 233.924087 196.860137 
L 234.818452 194.139026 
L 235.712817 193.122367 
L 236.607183 193.792047 
L 237.501548 195.400953 
L 238.395913 190.942407 
L 239.290278 190.494461 
L 240.184643 188.298661 
L 241.079008 191.651937 
L 241.973373 196.116277 
L 243.762104 176.211299 
L 244.656469 161.732336 
L 245.550834 157.913474 
L 246.445199 151.438933 
L 247.339564 153.440298 
L 248.233929 157.444049 
L 249.128295 165.355315 
L 250.02266 165.314564 
L 250.917025 165.395324 
L 251.81139 162.326661 
L 252.705755 158.434675 
L 253.60012 171.446393 
L 254.494485 167.658551 
L 255.38885 168.279002 
L 256.283216 140.041009 
L 257.177581 132.454595 
L 258.071946 116.374115 
L 258.966311 110.562712 
L 259.860676 86.426271 
L 261.649406 61.088457 
L 262.543772 59.648432 
L 263.438137 54.683834 
L 264.332502 51.343837 
L 267.015597 99.289898 
L 267.909962 97.394778 
L 268.804328 97.669947 
L 269.698693 96.945825 
L 270.593058 98.619071 
L 271.487423 102.827977 
L 272.381788 112.810169 
L 273.276153 129.658473 
L 274.170518 143.842077 
L 275.064884 148.638322 
L 275.959249 149.725655 
L 276.853614 155.237954 
L 277.747979 147.665142 
L 278.642344 134.678624 
L 279.536709 123.425225 
L 282.219805 168.04376 
L 283.11417 170.800677 
L 284.008535 172.958682 
L 284.9029 174.278319 
L 285.797265 174.000709 
L 286.69163 175.431645 
L 287.585995 181.661879 
L 288.480361 185.14008 
L 289.374726 190.242148 
L 290.269091 184.91102 
L 291.163456 192.561444 
L 292.057821 185.421989 
L 292.952186 188.691846 
L 293.846551 196.890578 
L 294.740917 210.391394 
L 295.635282 221.598683 
L 296.529647 217.162066 
L 297.424012 219.780593 
L 298.318377 216.54076 
L 299.212742 215.669931 
L 300.107107 211.843702 
L 301.001473 211.490513 
L 301.895838 209.372245 
L 302.790203 215.216339 
L 303.684568 213.071458 
L 304.578933 214.282267 
L 305.473298 202.636575 
L 308.156394 116.338962 
L 309.050759 115.244884 
L 309.945124 125.80689 
L 311.733854 158.081694 
L 312.628219 152.302739 
L 313.522585 156.387471 
L 314.41695 151.725258 
L 315.311315 150.510369 
L 316.20568 155.755212 
L 317.100045 160.168505 
L 317.99441 172.281544 
L 318.888775 178.974363 
L 320.677506 194.366666 
L 321.571871 193.282359 
L 322.466236 176.955978 
L 323.360601 163.747112 
L 324.254966 145.830544 
L 325.149331 147.970727 
L 326.043696 138.364936 
L 326.938062 134.637538 
L 327.832427 124.553523 
L 328.726792 113.089447 
L 329.621157 112.205876 
L 330.515522 110.694624 
L 331.409887 107.066049 
L 333.198618 100.685925 
L 334.092983 105.186433 
L 334.987348 101.685637 
L 335.881713 92.003515 
L 336.776078 78.201195 
L 337.670443 66.276512 
L 338.564808 64.582695 
L 339.459174 67.628156 
L 340.353539 73.327817 
L 341.247904 77.264031 
L 342.142269 75.261707 
L 343.036634 79.111518 
L 343.930999 81.65543 
L 344.825364 85.122899 
L 345.71973 79.0641 
L 346.614095 74.941957 
L 348.402825 86.762791 
L 349.29719 95.635071 
L 351.08592 88.164684 
L 351.980285 92.840936 
L 352.874651 99.968786 
L 353.769016 110.029978 
L 354.663381 111.094499 
L 355.557746 109.203331 
L 356.452111 104.008456 
L 357.346476 95.073198 
L 358.240841 97.864477 
L 359.135207 103.386425 
L 360.029572 102.844951 
L 360.923937 96.327446 
L 361.818302 88.947282 
L 362.712667 92.625209 
L 363.607032 94.564279 
L 365.395763 77.192367 
L 366.290128 71.126556 
L 367.184493 73.071734 
L 368.078858 75.566037 
L 368.973223 100.238585 
L 369.867588 128.270664 
L 370.761953 143.947113 
L 371.656319 135.550875 
L 372.550684 123.638741 
L 373.445049 128.794083 
L 374.339414 135.576274 
L 375.233779 144.663765 
L 376.128144 151.415137 
L 377.022509 157.154312 
L 377.916875 160.934913 
L 378.81124 156.556162 
L 380.59997 169.778634 
L 381.494335 167.488079 
L 382.3887 157.706361 
L 383.283065 150.206302 
L 384.177431 151.011144 
L 385.071796 159.881836 
L 385.966161 160.732635 
L 386.860526 152.248876 
L 388.649256 108.389484 
L 389.543621 95.292617 
L 390.437986 90.579368 
L 391.332352 98.150637 
L 392.226717 96.464685 
L 393.121082 96.569497 
L 394.015447 88.308764 
L 394.909812 86.723695 
L 395.804177 78.582879 
L 396.698542 75.55537 
L 397.592908 74.739176 
L 398.487273 75.154669 
L 398.487273 75.154669 
" style="fill:none;stroke:#ff6347;stroke-linecap:square;stroke-width:1.5;"/>
   </g>
   <g id="patch_3">
    <path d="M 57.6 307.584 
L 57.6 41.472 
" style="fill:none;stroke:#000000;stroke-linecap:square;stroke-linejoin:miter;stroke-width:0.8;"/>
   </g>
   <g id="patch_4">
    <path d="M 414.72 307.584 
L 414.72 41.472 
" style="fill:none;stroke:#000000;stroke-linecap:square;stroke-linejoin:miter;stroke-width:0.8;"/>
   </g>
   <g id="patch_5">
    <path d="M 57.6 307.584 
L 414.72 307.584 
" style="fill:none;stroke:#000000;stroke-linecap:square;stroke-linejoin:miter;stroke-width:0.8;"/>
   </g>
   <g id="patch_6">
    <path d="M 57.6 41.472 
L 414.72 41.472 
" style="fill:none;stroke:#000000;stroke-linecap:square;stroke-linejoin:miter;stroke-width:0.8;"/>
   </g>
   <g id="text_13">
    <!-- Data source: nomics -->
    <g transform="translate(184.91625 35.472)scale(0.1 -0.1)">
     <defs>
      <path d="M 19.671875 64.796875 
L 19.671875 8.109375 
L 31.59375 8.109375 
Q 46.6875 8.109375 53.6875 14.9375 
Q 60.6875 21.78125 60.6875 36.53125 
Q 60.6875 51.171875 53.6875 57.984375 
Q 46.6875 64.796875 31.59375 64.796875 
z
M 9.8125 72.90625 
L 30.078125 72.90625 
Q 51.265625 72.90625 61.171875 64.09375 
Q 71.09375 55.28125 71.09375 36.53125 
Q 71.09375 17.671875 61.125 8.828125 
Q 51.171875 0 30.078125 0 
L 9.8125 0 
z
" id="DejaVuSans-68"/>
      <path d="M 34.28125 27.484375 
Q 23.390625 27.484375 19.1875 25 
Q 14.984375 22.515625 14.984375 16.5 
Q 14.984375 11.71875 18.140625 8.90625 
Q 21.296875 6.109375 26.703125 6.109375 
Q 34.1875 6.109375 38.703125 11.40625 
Q 43.21875 16.703125 43.21875 25.484375 
L 43.21875 27.484375 
z
M 52.203125 31.203125 
L 52.203125 0 
L 43.21875 0 
L 43.21875 8.296875 
Q 40.140625 3.328125 35.546875 0.953125 
Q 30.953125 -1.421875 24.3125 -1.421875 
Q 15.921875 -1.421875 10.953125 3.296875 
Q 6 8.015625 6 15.921875 
Q 6 25.140625 12.171875 29.828125 
Q 18.359375 34.515625 30.609375 34.515625 
L 43.21875 34.515625 
L 43.21875 35.40625 
Q 43.21875 41.609375 39.140625 45 
Q 35.0625 48.390625 27.6875 48.390625 
Q 23 48.390625 18.546875 47.265625 
Q 14.109375 46.140625 10.015625 43.890625 
L 10.015625 52.203125 
Q 14.9375 54.109375 19.578125 55.046875 
Q 24.21875 56 28.609375 56 
Q 40.484375 56 46.34375 49.84375 
Q 52.203125 43.703125 52.203125 31.203125 
z
" id="DejaVuSans-97"/>
      <path d="M 18.3125 70.21875 
L 18.3125 54.6875 
L 36.8125 54.6875 
L 36.8125 47.703125 
L 18.3125 47.703125 
L 18.3125 18.015625 
Q 18.3125 11.328125 20.140625 9.421875 
Q 21.96875 7.515625 27.59375 7.515625 
L 36.8125 7.515625 
L 36.8125 0 
L 27.59375 0 
Q 17.1875 0 13.234375 3.875 
Q 9.28125 7.765625 9.28125 18.015625 
L 9.28125 47.703125 
L 2.6875 47.703125 
L 2.6875 54.6875 
L 9.28125 54.6875 
L 9.28125 70.21875 
z
" id="DejaVuSans-116"/>
      <path id="DejaVuSans-32"/>
      <path d="M 44.28125 53.078125 
L 44.28125 44.578125 
Q 40.484375 46.53125 36.375 47.5 
Q 32.28125 48.484375 27.875 48.484375 
Q 21.1875 48.484375 17.84375 46.4375 
Q 14.5 44.390625 14.5 40.28125 
Q 14.5 37.15625 16.890625 35.375 
Q 19.28125 33.59375 26.515625 31.984375 
L 29.59375 31.296875 
Q 39.15625 29.25 43.1875 25.515625 
Q 47.21875 21.78125 47.21875 15.09375 
Q 47.21875 7.46875 41.1875 3.015625 
Q 35.15625 -1.421875 24.609375 -1.421875 
Q 20.21875 -1.421875 15.453125 -0.5625 
Q 10.6875 0.296875 5.421875 2 
L 5.421875 11.28125 
Q 10.40625 8.6875 15.234375 7.390625 
Q 20.0625 6.109375 24.8125 6.109375 
Q 31.15625 6.109375 34.5625 8.28125 
Q 37.984375 10.453125 37.984375 14.40625 
Q 37.984375 18.0625 35.515625 20.015625 
Q 33.0625 21.96875 24.703125 23.78125 
L 21.578125 24.515625 
Q 13.234375 26.265625 9.515625 29.90625 
Q 5.8125 33.546875 5.8125 39.890625 
Q 5.8125 47.609375 11.28125 51.796875 
Q 16.75 56 26.8125 56 
Q 31.78125 56 36.171875 55.265625 
Q 40.578125 54.546875 44.28125 53.078125 
z
" id="DejaVuSans-115"/>
      <path d="M 30.609375 48.390625 
Q 23.390625 48.390625 19.1875 42.75 
Q 14.984375 37.109375 14.984375 27.296875 
Q 14.984375 17.484375 19.15625 11.84375 
Q 23.34375 6.203125 30.609375 6.203125 
Q 37.796875 6.203125 41.984375 11.859375 
Q 46.1875 17.53125 46.1875 27.296875 
Q 46.1875 37.015625 41.984375 42.703125 
Q 37.796875 48.390625 30.609375 48.390625 
z
M 30.609375 56 
Q 42.328125 56 49.015625 48.375 
Q 55.71875 40.765625 55.71875 27.296875 
Q 55.71875 13.875 49.015625 6.21875 
Q 42.328125 -1.421875 30.609375 -1.421875 
Q 18.84375 -1.421875 12.171875 6.21875 
Q 5.515625 13.875 5.515625 27.296875 
Q 5.515625 40.765625 12.171875 48.375 
Q 18.84375 56 30.609375 56 
z
" id="DejaVuSans-111"/>
      <path d="M 8.5 21.578125 
L 8.5 54.6875 
L 17.484375 54.6875 
L 17.484375 21.921875 
Q 17.484375 14.15625 20.5 10.265625 
Q 23.53125 6.390625 29.59375 6.390625 
Q 36.859375 6.390625 41.078125 11.03125 
Q 45.3125 15.671875 45.3125 23.6875 
L 45.3125 54.6875 
L 54.296875 54.6875 
L 54.296875 0 
L 45.3125 0 
L 45.3125 8.40625 
Q 42.046875 3.421875 37.71875 1 
Q 33.40625 -1.421875 27.6875 -1.421875 
Q 18.265625 -1.421875 13.375 4.4375 
Q 8.5 10.296875 8.5 21.578125 
z
M 31.109375 56 
z
" id="DejaVuSans-117"/>
      <path d="M 41.109375 46.296875 
Q 39.59375 47.171875 37.8125 47.578125 
Q 36.03125 48 33.890625 48 
Q 26.265625 48 22.1875 43.046875 
Q 18.109375 38.09375 18.109375 28.8125 
L 18.109375 0 
L 9.078125 0 
L 9.078125 54.6875 
L 18.109375 54.6875 
L 18.109375 46.1875 
Q 20.953125 51.171875 25.484375 53.578125 
Q 30.03125 56 36.53125 56 
Q 37.453125 56 38.578125 55.875 
Q 39.703125 55.765625 41.0625 55.515625 
z
" id="DejaVuSans-114"/>
      <path d="M 48.78125 52.59375 
L 48.78125 44.1875 
Q 44.96875 46.296875 41.140625 47.34375 
Q 37.3125 48.390625 33.40625 48.390625 
Q 24.65625 48.390625 19.8125 42.84375 
Q 14.984375 37.3125 14.984375 27.296875 
Q 14.984375 17.28125 19.8125 11.734375 
Q 24.65625 6.203125 33.40625 6.203125 
Q 37.3125 6.203125 41.140625 7.25 
Q 44.96875 8.296875 48.78125 10.40625 
L 48.78125 2.09375 
Q 45.015625 0.34375 40.984375 -0.53125 
Q 36.96875 -1.421875 32.421875 -1.421875 
Q 20.0625 -1.421875 12.78125 6.34375 
Q 5.515625 14.109375 5.515625 27.296875 
Q 5.515625 40.671875 12.859375 48.328125 
Q 20.21875 56 33.015625 56 
Q 37.15625 56 41.109375 55.140625 
Q 45.0625 54.296875 48.78125 52.59375 
z
" id="DejaVuSans-99"/>
      <path d="M 56.203125 29.59375 
L 56.203125 25.203125 
L 14.890625 25.203125 
Q 15.484375 15.921875 20.484375 11.0625 
Q 25.484375 6.203125 34.421875 6.203125 
Q 39.59375 6.203125 44.453125 7.46875 
Q 49.3125 8.734375 54.109375 11.28125 
L 54.109375 2.78125 
Q 49.265625 0.734375 44.1875 -0.34375 
Q 39.109375 -1.421875 33.890625 -1.421875 
Q 20.796875 -1.421875 13.15625 6.1875 
Q 5.515625 13.8125 5.515625 26.8125 
Q 5.515625 40.234375 12.765625 48.109375 
Q 20.015625 56 32.328125 56 
Q 43.359375 56 49.78125 48.890625 
Q 56.203125 41.796875 56.203125 29.59375 
z
M 47.21875 32.234375 
Q 47.125 39.59375 43.09375 43.984375 
Q 39.0625 48.390625 32.421875 48.390625 
Q 24.90625 48.390625 20.390625 44.140625 
Q 15.875 39.890625 15.1875 32.171875 
z
" id="DejaVuSans-101"/>
      <path d="M 11.71875 12.40625 
L 22.015625 12.40625 
L 22.015625 0 
L 11.71875 0 
z
M 11.71875 51.703125 
L 22.015625 51.703125 
L 22.015625 39.3125 
L 11.71875 39.3125 
z
" id="DejaVuSans-58"/>
      <path d="M 54.890625 33.015625 
L 54.890625 0 
L 45.90625 0 
L 45.90625 32.71875 
Q 45.90625 40.484375 42.875 44.328125 
Q 39.84375 48.1875 33.796875 48.1875 
Q 26.515625 48.1875 22.3125 43.546875 
Q 18.109375 38.921875 18.109375 30.90625 
L 18.109375 0 
L 9.078125 0 
L 9.078125 54.6875 
L 18.109375 54.6875 
L 18.109375 46.1875 
Q 21.34375 51.125 25.703125 53.5625 
Q 30.078125 56 35.796875 56 
Q 45.21875 56 50.046875 50.171875 
Q 54.890625 44.34375 54.890625 33.015625 
z
" id="DejaVuSans-110"/>
      <path d="M 52 44.1875 
Q 55.375 50.25 60.0625 53.125 
Q 64.75 56 71.09375 56 
Q 79.640625 56 84.28125 50.015625 
Q 88.921875 44.046875 88.921875 33.015625 
L 88.921875 0 
L 79.890625 0 
L 79.890625 32.71875 
Q 79.890625 40.578125 77.09375 44.375 
Q 74.3125 48.1875 68.609375 48.1875 
Q 61.625 48.1875 57.5625 43.546875 
Q 53.515625 38.921875 53.515625 30.90625 
L 53.515625 0 
L 44.484375 0 
L 44.484375 32.71875 
Q 44.484375 40.625 41.703125 44.40625 
Q 38.921875 48.1875 33.109375 48.1875 
Q 26.21875 48.1875 22.15625 43.53125 
Q 18.109375 38.875 18.109375 30.90625 
L 18.109375 0 
L 9.078125 0 
L 9.078125 54.6875 
L 18.109375 54.6875 
L 18.109375 46.1875 
Q 21.1875 51.21875 25.484375 53.609375 
Q 29.78125 56 35.6875 56 
Q 41.65625 56 45.828125 52.96875 
Q 50 49.953125 52 44.1875 
z
" id="DejaVuSans-109"/>
      <path d="M 9.421875 54.6875 
L 18.40625 54.6875 
L 18.40625 0 
L 9.421875 0 
z
M 9.421875 75.984375 
L 18.40625 75.984375 
L 18.40625 64.59375 
L 9.421875 64.59375 
z
" id="DejaVuSans-105"/>
     </defs>
     <use xlink:href="#DejaVuSans-68"/>
     <use x="77.001953" xlink:href="#DejaVuSans-97"/>
     <use x="138.28125" xlink:href="#DejaVuSans-116"/>
     <use x="177.490234" xlink:href="#DejaVuSans-97"/>
     <use x="238.769531" xlink:href="#DejaVuSans-32"/>
     <use x="270.556641" xlink:href="#DejaVuSans-115"/>
     <use x="322.65625" xlink:href="#DejaVuSans-111"/>
     <use x="383.837891" xlink:href="#DejaVuSans-117"/>
     <use x="447.216797" xlink:href="#DejaVuSans-114"/>
     <use x="486.080078" xlink:href="#DejaVuSans-99"/>
     <use x="541.060547" xlink:href="#DejaVuSans-101"/>
     <use x="602.583984" xlink:href="#DejaVuSans-58"/>
     <use x="636.275391" xlink:href="#DejaVuSans-32"/>
     <use x="668.0625" xlink:href="#DejaVuSans-110"/>
     <use x="731.441406" xlink:href="#DejaVuSans-111"/>
     <use x="792.623047" xlink:href="#DejaVuSans-109"/>
     <use x="890.035156" xlink:href="#DejaVuSans-105"/>
     <use x="917.818359" xlink:href="#DejaVuSans-99"/>
     <use x="972.798828" xlink:href="#DejaVuSans-115"/>
    </g>
   </g>
   <g id="legend_1">
    <g id="patch_7">
     <path d="M 359.473125 64.150125 
L 407.72 64.150125 
Q 409.72 64.150125 409.72 62.150125 
L 409.72 48.472 
Q 409.72 46.472 407.72 46.472 
L 359.473125 46.472 
Q 357.473125 46.472 357.473125 48.472 
L 357.473125 62.150125 
Q 357.473125 64.150125 359.473125 64.150125 
z
" style="fill:#ffffff;opacity:0.8;stroke:#cccccc;stroke-linejoin:miter;"/>
    </g>
    <g id="line2d_14">
     <path d="M 361.473125 54.570438 
L 381.473125 54.570438 
" style="fill:none;stroke:#ff6347;stroke-linecap:square;stroke-width:1.5;"/>
    </g>
    <g id="line2d_15"/>
    <g id="text_14">
     <!-- RSI -->
     <g transform="translate(389.473125 58.070438)scale(0.1 -0.1)">
      <defs>
       <path d="M 44.390625 34.1875 
Q 47.5625 33.109375 50.5625 29.59375 
Q 53.5625 26.078125 56.59375 19.921875 
L 66.609375 0 
L 56 0 
L 46.6875 18.703125 
Q 43.0625 26.03125 39.671875 28.421875 
Q 36.28125 30.8125 30.421875 30.8125 
L 19.671875 30.8125 
L 19.671875 0 
L 9.8125 0 
L 9.8125 72.90625 
L 32.078125 72.90625 
Q 44.578125 72.90625 50.734375 67.671875 
Q 56.890625 62.453125 56.890625 51.90625 
Q 56.890625 45.015625 53.6875 40.46875 
Q 50.484375 35.9375 44.390625 34.1875 
z
M 19.671875 64.796875 
L 19.671875 38.921875 
L 32.078125 38.921875 
Q 39.203125 38.921875 42.84375 42.21875 
Q 46.484375 45.515625 46.484375 51.90625 
Q 46.484375 58.296875 42.84375 61.546875 
Q 39.203125 64.796875 32.078125 64.796875 
z
" id="DejaVuSans-82"/>
       <path d="M 53.515625 70.515625 
L 53.515625 60.890625 
Q 47.90625 63.578125 42.921875 64.890625 
Q 37.9375 66.21875 33.296875 66.21875 
Q 25.25 66.21875 20.875 63.09375 
Q 16.5 59.96875 16.5 54.203125 
Q 16.5 49.359375 19.40625 46.890625 
Q 22.3125 44.4375 30.421875 42.921875 
L 36.375 41.703125 
Q 47.40625 39.59375 52.65625 34.296875 
Q 57.90625 29 57.90625 20.125 
Q 57.90625 9.515625 50.796875 4.046875 
Q 43.703125 -1.421875 29.984375 -1.421875 
Q 24.8125 -1.421875 18.96875 -0.25 
Q 13.140625 0.921875 6.890625 3.21875 
L 6.890625 13.375 
Q 12.890625 10.015625 18.65625 8.296875 
Q 24.421875 6.59375 29.984375 6.59375 
Q 38.421875 6.59375 43.015625 9.90625 
Q 47.609375 13.234375 47.609375 19.390625 
Q 47.609375 24.75 44.3125 27.78125 
Q 41.015625 30.8125 33.5 32.328125 
L 27.484375 33.5 
Q 16.453125 35.6875 11.515625 40.375 
Q 6.59375 45.0625 6.59375 53.421875 
Q 6.59375 63.09375 13.40625 68.65625 
Q 20.21875 74.21875 32.171875 74.21875 
Q 37.3125 74.21875 42.625 73.28125 
Q 47.953125 72.359375 53.515625 70.515625 
z
" id="DejaVuSans-83"/>
       <path d="M 9.8125 72.90625 
L 19.671875 72.90625 
L 19.671875 0 
L 9.8125 0 
z
" id="DejaVuSans-73"/>
      </defs>
      <use xlink:href="#DejaVuSans-82"/>
      <use x="69.482422" xlink:href="#DejaVuSans-83"/>
      <use x="132.958984" xlink:href="#DejaVuSans-73"/>
     </g>
    </g>
   </g>
  </g>
  <g id="text_15">
   <!-- RSI -->
   <g transform="translate(217.4025 19.0695)scale(0.16 -0.16)">
    <use xlink:href="#DejaVuSans-82"/>
    <use x="69.482422" xlink:href="#DejaVuSans-83"/>
    <use x="132.958984" xlink:href="#DejaVuSans-73"/>
   </g>
  </g>
 </g>
 <defs>
  <clipPath id="pc1f3f8de87">
   <rect height="266.112" width="357.12" x="57.6" y="41.472"/>
  </clipPath>
 </defs>
</svg>
