<?xml version="1.0" encoding="utf-8" standalone="no"?>
<!DOCTYPE svg PUBLIC "-//W3C//DTD SVG 1.1//EN"
  "http://www.w3.org/Graphics/SVG/1.1/DTD/svg11.dtd">
<!-- Created with matplotlib (https://matplotlib.org/) -->
<svg height="345.6pt" version="1.1" viewBox="0 0 460.8 345.6" width="460.8pt" xmlns="http://www.w3.org/2000/svg" xmlns:xlink="http://www.w3.org/1999/xlink">
 <metadata>
  <rdf:RDF xmlns:cc="http://creativecommons.org/ns#" xmlns:dc="http://purl.org/dc/elements/1.1/" xmlns:rdf="http://www.w3.org/1999/02/22-rdf-syntax-ns#">
   <cc:Work>
    <dc:type rdf:resource="http://purl.org/dc/dcmitype/StillImage"/>
    <dc:date>2021-04-04T20:09:23.054181</dc:date>
    <dc:format>image/svg+xml</dc:format>
    <dc:creator>
     <cc:Agent>
      <dc:title>Matplotlib v3.3.2, https://matplotlib.org/</dc:title>
     </cc:Agent>
    </dc:creator>
   </cc:Work>
  </rdf:RDF>
 </metadata>
 <defs>
  <style type="text/css">*{stroke-linecap:butt;stroke-linejoin:round;}</style>
 </defs>
 <g id="figure_1">
  <g id="patch_1">
   <path d="M 0 345.6 
L 460.8 345.6 
L 460.8 0 
L 0 0 
z
" style="fill:#ffffff;"/>
  </g>
  <g id="axes_1">
   <g id="patch_2">
    <path d="M 57.6 307.584 
L 414.72 307.584 
L 414.72 41.472 
L 57.6 41.472 
z
" style="fill:#ffffff;"/>
   </g>
   <g id="PolyCollection_1">
    <defs>
     <path d="M 73.832727 -219.118501 
L 73.832727 -115.631357 
L 74.54158 -115.631357 
L 75.250433 -115.631357 
L 75.959285 -115.631357 
L 76.668138 -115.631357 
L 77.376991 -115.631357 
L 78.085844 -115.631357 
L 78.794696 -115.631357 
L 79.503549 -115.631357 
L 80.212402 -115.631357 
L 80.921254 -115.631357 
L 81.630107 -115.631357 
L 82.33896 -115.631357 
L 83.047813 -115.631357 
L 83.756665 -115.631357 
L 84.465518 -115.631357 
L 85.174371 -115.631357 
L 85.883224 -115.631357 
L 86.592076 -115.631357 
L 87.300929 -115.631357 
L 88.009782 -115.631357 
L 88.718634 -115.631357 
L 89.427487 -115.631357 
L 90.13634 -115.631357 
L 90.845193 -115.631357 
L 91.554045 -115.631357 
L 92.262898 -115.631357 
L 92.971751 -115.631357 
L 93.680603 -115.631357 
L 94.389456 -115.631357 
L 95.098309 -115.631357 
L 95.807162 -115.631357 
L 96.516014 -115.631357 
L 97.224867 -115.631357 
L 97.93372 -115.631357 
L 98.642572 -115.631357 
L 99.351425 -115.631357 
L 100.060278 -115.631357 
L 100.769131 -115.631357 
L 101.477983 -115.631357 
L 102.186836 -115.631357 
L 102.895689 -115.631357 
L 103.604541 -115.631357 
L 104.313394 -115.631357 
L 105.022247 -115.631357 
L 105.7311 -115.631357 
L 106.439952 -115.631357 
L 107.148805 -115.631357 
L 107.857658 -115.631357 
L 108.566511 -115.631357 
L 109.275363 -115.631357 
L 109.984216 -115.631357 
L 110.693069 -115.631357 
L 111.401921 -115.631357 
L 112.110774 -115.631357 
L 112.819627 -115.631357 
L 113.52848 -115.631357 
L 114.237332 -115.631357 
L 114.946185 -115.631357 
L 115.655038 -115.631357 
L 116.36389 -115.631357 
L 117.072743 -115.631357 
L 117.781596 -115.631357 
L 118.490449 -115.631357 
L 119.199301 -115.631357 
L 119.908154 -115.631357 
L 120.617007 -115.631357 
L 121.325859 -115.631357 
L 122.034712 -115.631357 
L 122.743565 -115.631357 
L 123.452418 -115.631357 
L 124.16127 -115.631357 
L 124.870123 -115.631357 
L 125.578976 -115.631357 
L 126.287829 -115.631357 
L 126.996681 -115.631357 
L 127.705534 -115.631357 
L 128.414387 -115.631357 
L 129.123239 -115.631357 
L 129.832092 -115.631357 
L 130.540945 -115.631357 
L 131.249798 -115.631357 
L 131.95865 -115.631357 
L 132.667503 -115.631357 
L 133.376356 -115.631357 
L 134.085208 -115.631357 
L 134.794061 -115.631357 
L 135.502914 -115.631357 
L 136.211767 -115.631357 
L 136.920619 -115.631357 
L 137.629472 -115.631357 
L 138.338325 -115.631357 
L 139.047177 -115.631357 
L 139.75603 -115.631357 
L 140.464883 -115.631357 
L 141.173736 -115.631357 
L 141.882588 -115.631357 
L 142.591441 -115.631357 
L 143.300294 -115.631357 
L 144.009146 -115.631357 
L 144.717999 -115.631357 
L 145.426852 -115.631357 
L 146.135705 -115.631357 
L 146.844557 -115.631357 
L 147.55341 -115.631357 
L 148.262263 -115.631357 
L 148.971116 -115.631357 
L 149.679968 -115.631357 
L 150.388821 -115.631357 
L 151.097674 -115.631357 
L 151.806526 -115.631357 
L 152.515379 -115.631357 
L 153.224232 -115.631357 
L 153.933085 -115.631357 
L 154.641937 -115.631357 
L 155.35079 -115.631357 
L 156.059643 -115.631357 
L 156.768495 -115.631357 
L 157.477348 -115.631357 
L 158.186201 -115.631357 
L 158.895054 -115.631357 
L 159.603906 -115.631357 
L 160.312759 -115.631357 
L 161.021612 -115.631357 
L 161.730464 -115.631357 
L 162.439317 -115.631357 
L 163.14817 -115.631357 
L 163.857023 -115.631357 
L 164.565875 -115.631357 
L 165.274728 -115.631357 
L 165.983581 -115.631357 
L 166.692434 -115.631357 
L 167.401286 -115.631357 
L 168.110139 -115.631357 
L 168.818992 -115.631357 
L 169.527844 -115.631357 
L 170.236697 -115.631357 
L 170.94555 -115.631357 
L 171.654403 -115.631357 
L 172.363255 -115.631357 
L 173.072108 -115.631357 
L 173.780961 -115.631357 
L 174.489813 -115.631357 
L 175.198666 -115.631357 
L 175.907519 -115.631357 
L 176.616372 -115.631357 
L 177.325224 -115.631357 
L 178.034077 -115.631357 
L 178.74293 -115.631357 
L 179.451782 -115.631357 
L 180.160635 -115.631357 
L 180.869488 -115.631357 
L 181.578341 -115.631357 
L 182.287193 -115.631357 
L 182.996046 -115.631357 
L 183.704899 -115.631357 
L 184.413751 -115.631357 
L 185.122604 -115.631357 
L 185.831457 -115.631357 
L 186.54031 -115.631357 
L 187.249162 -115.631357 
L 187.958015 -115.631357 
L 188.666868 -115.631357 
L 189.375721 -115.631357 
L 190.084573 -115.631357 
L 190.793426 -115.631357 
L 191.502279 -115.631357 
L 192.211131 -115.631357 
L 192.919984 -115.631357 
L 193.628837 -115.631357 
L 194.33769 -115.631357 
L 195.046542 -115.631357 
L 195.755395 -115.631357 
L 196.464248 -115.631357 
L 197.1731 -115.631357 
L 197.881953 -115.631357 
L 198.590806 -115.631357 
L 199.299659 -115.631357 
L 200.008511 -115.631357 
L 200.717364 -115.631357 
L 201.426217 -115.631357 
L 202.135069 -115.631357 
L 202.843922 -115.631357 
L 203.552775 -115.631357 
L 204.261628 -115.631357 
L 204.97048 -115.631357 
L 205.679333 -115.631357 
L 206.388186 -115.631357 
L 207.097039 -115.631357 
L 207.805891 -115.631357 
L 208.514744 -115.631357 
L 209.223597 -115.631357 
L 209.932449 -115.631357 
L 210.641302 -115.631357 
L 211.350155 -115.631357 
L 212.059008 -115.631357 
L 212.76786 -115.631357 
L 213.476713 -115.631357 
L 214.185566 -115.631357 
L 214.894418 -115.631357 
L 215.603271 -115.631357 
L 216.312124 -115.631357 
L 217.020977 -115.631357 
L 217.729829 -115.631357 
L 218.438682 -115.631357 
L 219.147535 -115.631357 
L 219.856387 -115.631357 
L 220.56524 -115.631357 
L 221.274093 -115.631357 
L 221.982946 -115.631357 
L 222.691798 -115.631357 
L 223.400651 -115.631357 
L 224.109504 -115.631357 
L 224.818356 -115.631357 
L 225.527209 -115.631357 
L 226.236062 -115.631357 
L 226.944915 -115.631357 
L 227.653767 -115.631357 
L 228.36262 -115.631357 
L 229.071473 -115.631357 
L 229.780326 -115.631357 
L 230.489178 -115.631357 
L 231.198031 -115.631357 
L 231.906884 -115.631357 
L 232.615736 -115.631357 
L 233.324589 -115.631357 
L 234.033442 -115.631357 
L 234.742295 -115.631357 
L 235.451147 -115.631357 
L 236.16 -115.631357 
L 236.868853 -115.631357 
L 237.577705 -115.631357 
L 238.286558 -115.631357 
L 238.995411 -115.631357 
L 239.704264 -115.631357 
L 240.413116 -115.631357 
L 241.121969 -115.631357 
L 241.830822 -115.631357 
L 242.539674 -115.631357 
L 243.248527 -115.631357 
L 243.95738 -115.631357 
L 244.666233 -115.631357 
L 245.375085 -115.631357 
L 246.083938 -115.631357 
L 246.792791 -115.631357 
L 247.501644 -115.631357 
L 248.210496 -115.631357 
L 248.919349 -115.631357 
L 249.628202 -115.631357 
L 250.337054 -115.631357 
L 251.045907 -115.631357 
L 251.75476 -115.631357 
L 252.463613 -115.631357 
L 253.172465 -115.631357 
L 253.881318 -115.631357 
L 254.590171 -115.631357 
L 255.299023 -115.631357 
L 256.007876 -115.631357 
L 256.716729 -115.631357 
L 257.425582 -115.631357 
L 258.134434 -115.631357 
L 258.843287 -115.631357 
L 259.55214 -115.631357 
L 260.260992 -115.631357 
L 260.969845 -115.631357 
L 261.678698 -115.631357 
L 262.387551 -115.631357 
L 263.096403 -115.631357 
L 263.805256 -115.631357 
L 264.514109 -115.631357 
L 265.222961 -115.631357 
L 265.931814 -115.631357 
L 266.640667 -115.631357 
L 267.34952 -115.631357 
L 268.058372 -115.631357 
L 268.767225 -115.631357 
L 269.476078 -115.631357 
L 270.184931 -115.631357 
L 270.893783 -115.631357 
L 271.602636 -115.631357 
L 272.311489 -115.631357 
L 273.020341 -115.631357 
L 273.729194 -115.631357 
L 274.438047 -115.631357 
L 275.1469 -115.631357 
L 275.855752 -115.631357 
L 276.564605 -115.631357 
L 277.273458 -115.631357 
L 277.98231 -115.631357 
L 278.691163 -115.631357 
L 279.400016 -115.631357 
L 280.108869 -115.631357 
L 280.817721 -115.631357 
L 281.526574 -115.631357 
L 282.235427 -115.631357 
L 282.944279 -115.631357 
L 283.653132 -115.631357 
L 284.361985 -115.631357 
L 285.070838 -115.631357 
L 285.77969 -115.631357 
L 286.488543 -115.631357 
L 287.197396 -115.631357 
L 287.906249 -115.631357 
L 288.615101 -115.631357 
L 289.323954 -115.631357 
L 290.032807 -115.631357 
L 290.741659 -115.631357 
L 291.450512 -115.631357 
L 292.159365 -115.631357 
L 292.868218 -115.631357 
L 293.57707 -115.631357 
L 294.285923 -115.631357 
L 294.994776 -115.631357 
L 295.703628 -115.631357 
L 296.412481 -115.631357 
L 297.121334 -115.631357 
L 297.830187 -115.631357 
L 298.539039 -115.631357 
L 299.247892 -115.631357 
L 299.956745 -115.631357 
L 300.665597 -115.631357 
L 301.37445 -115.631357 
L 302.083303 -115.631357 
L 302.792156 -115.631357 
L 303.501008 -115.631357 
L 304.209861 -115.631357 
L 304.918714 -115.631357 
L 305.627566 -115.631357 
L 306.336419 -115.631357 
L 307.045272 -115.631357 
L 307.754125 -115.631357 
L 308.462977 -115.631357 
L 309.17183 -115.631357 
L 309.880683 -115.631357 
L 310.589536 -115.631357 
L 311.298388 -115.631357 
L 312.007241 -115.631357 
L 312.716094 -115.631357 
L 313.424946 -115.631357 
L 314.133799 -115.631357 
L 314.842652 -115.631357 
L 315.551505 -115.631357 
L 316.260357 -115.631357 
L 316.96921 -115.631357 
L 317.678063 -115.631357 
L 318.386915 -115.631357 
L 319.095768 -115.631357 
L 319.804621 -115.631357 
L 320.513474 -115.631357 
L 321.222326 -115.631357 
L 321.931179 -115.631357 
L 322.640032 -115.631357 
L 323.348884 -115.631357 
L 324.057737 -115.631357 
L 324.76659 -115.631357 
L 325.475443 -115.631357 
L 326.184295 -115.631357 
L 326.893148 -115.631357 
L 327.602001 -115.631357 
L 328.310854 -115.631357 
L 329.019706 -115.631357 
L 329.728559 -115.631357 
L 330.437412 -115.631357 
L 331.146264 -115.631357 
L 331.855117 -115.631357 
L 332.56397 -115.631357 
L 333.272823 -115.631357 
L 333.981675 -115.631357 
L 334.690528 -115.631357 
L 335.399381 -115.631357 
L 336.108233 -115.631357 
L 336.817086 -115.631357 
L 337.525939 -115.631357 
L 338.234792 -115.631357 
L 338.943644 -115.631357 
L 339.652497 -115.631357 
L 340.36135 -115.631357 
L 341.070202 -115.631357 
L 341.779055 -115.631357 
L 342.487908 -115.631357 
L 343.196761 -115.631357 
L 343.905613 -115.631357 
L 344.614466 -115.631357 
L 345.323319 -115.631357 
L 346.032171 -115.631357 
L 346.741024 -115.631357 
L 347.449877 -115.631357 
L 348.15873 -115.631357 
L 348.867582 -115.631357 
L 349.576435 -115.631357 
L 350.285288 -115.631357 
L 350.994141 -115.631357 
L 351.702993 -115.631357 
L 352.411846 -115.631357 
L 353.120699 -115.631357 
L 353.829551 -115.631357 
L 354.538404 -115.631357 
L 355.247257 -115.631357 
L 355.95611 -115.631357 
L 356.664962 -115.631357 
L 357.373815 -115.631357 
L 358.082668 -115.631357 
L 358.79152 -115.631357 
L 359.500373 -115.631357 
L 360.209226 -115.631357 
L 360.918079 -115.631357 
L 361.626931 -115.631357 
L 362.335784 -115.631357 
L 363.044637 -115.631357 
L 363.753489 -115.631357 
L 364.462342 -115.631357 
L 365.171195 -115.631357 
L 365.880048 -115.631357 
L 366.5889 -115.631357 
L 367.297753 -115.631357 
L 368.006606 -115.631357 
L 368.715459 -115.631357 
L 369.424311 -115.631357 
L 370.133164 -115.631357 
L 370.842017 -115.631357 
L 371.550869 -115.631357 
L 372.259722 -115.631357 
L 372.968575 -115.631357 
L 373.677428 -115.631357 
L 374.38628 -115.631357 
L 375.095133 -115.631357 
L 375.803986 -115.631357 
L 376.512838 -115.631357 
L 377.221691 -115.631357 
L 377.930544 -115.631357 
L 378.639397 -115.631357 
L 379.348249 -115.631357 
L 380.057102 -115.631357 
L 380.765955 -115.631357 
L 381.474807 -115.631357 
L 382.18366 -115.631357 
L 382.892513 -115.631357 
L 383.601366 -115.631357 
L 384.310218 -115.631357 
L 385.019071 -115.631357 
L 385.727924 -115.631357 
L 386.436776 -115.631357 
L 387.145629 -115.631357 
L 387.854482 -115.631357 
L 388.563335 -115.631357 
L 389.272187 -115.631357 
L 389.98104 -115.631357 
L 390.689893 -115.631357 
L 391.398746 -115.631357 
L 392.107598 -115.631357 
L 392.816451 -115.631357 
L 393.525304 -115.631357 
L 394.234156 -115.631357 
L 394.943009 -115.631357 
L 395.651862 -115.631357 
L 396.360715 -115.631357 
L 397.069567 -115.631357 
L 397.77842 -115.631357 
L 398.487273 -115.631357 
L 398.487273 -219.118501 
L 398.487273 -219.118501 
L 397.77842 -219.118501 
L 397.069567 -219.118501 
L 396.360715 -219.118501 
L 395.651862 -219.118501 
L 394.943009 -219.118501 
L 394.234156 -219.118501 
L 393.525304 -219.118501 
L 392.816451 -219.118501 
L 392.107598 -219.118501 
L 391.398746 -219.118501 
L 390.689893 -219.118501 
L 389.98104 -219.118501 
L 389.272187 -219.118501 
L 388.563335 -219.118501 
L 387.854482 -219.118501 
L 387.145629 -219.118501 
L 386.436776 -219.118501 
L 385.727924 -219.118501 
L 385.019071 -219.118501 
L 384.310218 -219.118501 
L 383.601366 -219.118501 
L 382.892513 -219.118501 
L 382.18366 -219.118501 
L 381.474807 -219.118501 
L 380.765955 -219.118501 
L 380.057102 -219.118501 
L 379.348249 -219.118501 
L 378.639397 -219.118501 
L 377.930544 -219.118501 
L 377.221691 -219.118501 
L 376.512838 -219.118501 
L 375.803986 -219.118501 
L 375.095133 -219.118501 
L 374.38628 -219.118501 
L 373.677428 -219.118501 
L 372.968575 -219.118501 
L 372.259722 -219.118501 
L 371.550869 -219.118501 
L 370.842017 -219.118501 
L 370.133164 -219.118501 
L 369.424311 -219.118501 
L 368.715459 -219.118501 
L 368.006606 -219.118501 
L 367.297753 -219.118501 
L 366.5889 -219.118501 
L 365.880048 -219.118501 
L 365.171195 -219.118501 
L 364.462342 -219.118501 
L 363.753489 -219.118501 
L 363.044637 -219.118501 
L 362.335784 -219.118501 
L 361.626931 -219.118501 
L 360.918079 -219.118501 
L 360.209226 -219.118501 
L 359.500373 -219.118501 
L 358.79152 -219.118501 
L 358.082668 -219.118501 
L 357.373815 -219.118501 
L 356.664962 -219.118501 
L 355.95611 -219.118501 
L 355.247257 -219.118501 
L 354.538404 -219.118501 
L 353.829551 -219.118501 
L 353.120699 -219.118501 
L 352.411846 -219.118501 
L 351.702993 -219.118501 
L 350.994141 -219.118501 
L 350.285288 -219.118501 
L 349.576435 -219.118501 
L 348.867582 -219.118501 
L 348.15873 -219.118501 
L 347.449877 -219.118501 
L 346.741024 -219.118501 
L 346.032171 -219.118501 
L 345.323319 -219.118501 
L 344.614466 -219.118501 
L 343.905613 -219.118501 
L 343.196761 -219.118501 
L 342.487908 -219.118501 
L 341.779055 -219.118501 
L 341.070202 -219.118501 
L 340.36135 -219.118501 
L 339.652497 -219.118501 
L 338.943644 -219.118501 
L 338.234792 -219.118501 
L 337.525939 -219.118501 
L 336.817086 -219.118501 
L 336.108233 -219.118501 
L 335.399381 -219.118501 
L 334.690528 -219.118501 
L 333.981675 -219.118501 
L 333.272823 -219.118501 
L 332.56397 -219.118501 
L 331.855117 -219.118501 
L 331.146264 -219.118501 
L 330.437412 -219.118501 
L 329.728559 -219.118501 
L 329.019706 -219.118501 
L 328.310854 -219.118501 
L 327.602001 -219.118501 
L 326.893148 -219.118501 
L 326.184295 -219.118501 
L 325.475443 -219.118501 
L 324.76659 -219.118501 
L 324.057737 -219.118501 
L 323.348884 -219.118501 
L 322.640032 -219.118501 
L 321.931179 -219.118501 
L 321.222326 -219.118501 
L 320.513474 -219.118501 
L 319.804621 -219.118501 
L 319.095768 -219.118501 
L 318.386915 -219.118501 
L 317.678063 -219.118501 
L 316.96921 -219.118501 
L 316.260357 -219.118501 
L 315.551505 -219.118501 
L 314.842652 -219.118501 
L 314.133799 -219.118501 
L 313.424946 -219.118501 
L 312.716094 -219.118501 
L 312.007241 -219.118501 
L 311.298388 -219.118501 
L 310.589536 -219.118501 
L 309.880683 -219.118501 
L 309.17183 -219.118501 
L 308.462977 -219.118501 
L 307.754125 -219.118501 
L 307.045272 -219.118501 
L 306.336419 -219.118501 
L 305.627566 -219.118501 
L 304.918714 -219.118501 
L 304.209861 -219.118501 
L 303.501008 -219.118501 
L 302.792156 -219.118501 
L 302.083303 -219.118501 
L 301.37445 -219.118501 
L 300.665597 -219.118501 
L 299.956745 -219.118501 
L 299.247892 -219.118501 
L 298.539039 -219.118501 
L 297.830187 -219.118501 
L 297.121334 -219.118501 
L 296.412481 -219.118501 
L 295.703628 -219.118501 
L 294.994776 -219.118501 
L 294.285923 -219.118501 
L 293.57707 -219.118501 
L 292.868218 -219.118501 
L 292.159365 -219.118501 
L 291.450512 -219.118501 
L 290.741659 -219.118501 
L 290.032807 -219.118501 
L 289.323954 -219.118501 
L 288.615101 -219.118501 
L 287.906249 -219.118501 
L 287.197396 -219.118501 
L 286.488543 -219.118501 
L 285.77969 -219.118501 
L 285.070838 -219.118501 
L 284.361985 -219.118501 
L 283.653132 -219.118501 
L 282.944279 -219.118501 
L 282.235427 -219.118501 
L 281.526574 -219.118501 
L 280.817721 -219.118501 
L 280.108869 -219.118501 
L 279.400016 -219.118501 
L 278.691163 -219.118501 
L 277.98231 -219.118501 
L 277.273458 -219.118501 
L 276.564605 -219.118501 
L 275.855752 -219.118501 
L 275.1469 -219.118501 
L 274.438047 -219.118501 
L 273.729194 -219.118501 
L 273.020341 -219.118501 
L 272.311489 -219.118501 
L 271.602636 -219.118501 
L 270.893783 -219.118501 
L 270.184931 -219.118501 
L 269.476078 -219.118501 
L 268.767225 -219.118501 
L 268.058372 -219.118501 
L 267.34952 -219.118501 
L 266.640667 -219.118501 
L 265.931814 -219.118501 
L 265.222961 -219.118501 
L 264.514109 -219.118501 
L 263.805256 -219.118501 
L 263.096403 -219.118501 
L 262.387551 -219.118501 
L 261.678698 -219.118501 
L 260.969845 -219.118501 
L 260.260992 -219.118501 
L 259.55214 -219.118501 
L 258.843287 -219.118501 
L 258.134434 -219.118501 
L 257.425582 -219.118501 
L 256.716729 -219.118501 
L 256.007876 -219.118501 
L 255.299023 -219.118501 
L 254.590171 -219.118501 
L 253.881318 -219.118501 
L 253.172465 -219.118501 
L 252.463613 -219.118501 
L 251.75476 -219.118501 
L 251.045907 -219.118501 
L 250.337054 -219.118501 
L 249.628202 -219.118501 
L 248.919349 -219.118501 
L 248.210496 -219.118501 
L 247.501644 -219.118501 
L 246.792791 -219.118501 
L 246.083938 -219.118501 
L 245.375085 -219.118501 
L 244.666233 -219.118501 
L 243.95738 -219.118501 
L 243.248527 -219.118501 
L 242.539674 -219.118501 
L 241.830822 -219.118501 
L 241.121969 -219.118501 
L 240.413116 -219.118501 
L 239.704264 -219.118501 
L 238.995411 -219.118501 
L 238.286558 -219.118501 
L 237.577705 -219.118501 
L 236.868853 -219.118501 
L 236.16 -219.118501 
L 235.451147 -219.118501 
L 234.742295 -219.118501 
L 234.033442 -219.118501 
L 233.324589 -219.118501 
L 232.615736 -219.118501 
L 231.906884 -219.118501 
L 231.198031 -219.118501 
L 230.489178 -219.118501 
L 229.780326 -219.118501 
L 229.071473 -219.118501 
L 228.36262 -219.118501 
L 227.653767 -219.118501 
L 226.944915 -219.118501 
L 226.236062 -219.118501 
L 225.527209 -219.118501 
L 224.818356 -219.118501 
L 224.109504 -219.118501 
L 223.400651 -219.118501 
L 222.691798 -219.118501 
L 221.982946 -219.118501 
L 221.274093 -219.118501 
L 220.56524 -219.118501 
L 219.856387 -219.118501 
L 219.147535 -219.118501 
L 218.438682 -219.118501 
L 217.729829 -219.118501 
L 217.020977 -219.118501 
L 216.312124 -219.118501 
L 215.603271 -219.118501 
L 214.894418 -219.118501 
L 214.185566 -219.118501 
L 213.476713 -219.118501 
L 212.76786 -219.118501 
L 212.059008 -219.118501 
L 211.350155 -219.118501 
L 210.641302 -219.118501 
L 209.932449 -219.118501 
L 209.223597 -219.118501 
L 208.514744 -219.118501 
L 207.805891 -219.118501 
L 207.097039 -219.118501 
L 206.388186 -219.118501 
L 205.679333 -219.118501 
L 204.97048 -219.118501 
L 204.261628 -219.118501 
L 203.552775 -219.118501 
L 202.843922 -219.118501 
L 202.135069 -219.118501 
L 201.426217 -219.118501 
L 200.717364 -219.118501 
L 200.008511 -219.118501 
L 199.299659 -219.118501 
L 198.590806 -219.118501 
L 197.881953 -219.118501 
L 197.1731 -219.118501 
L 196.464248 -219.118501 
L 195.755395 -219.118501 
L 195.046542 -219.118501 
L 194.33769 -219.118501 
L 193.628837 -219.118501 
L 192.919984 -219.118501 
L 192.211131 -219.118501 
L 191.502279 -219.118501 
L 190.793426 -219.118501 
L 190.084573 -219.118501 
L 189.375721 -219.118501 
L 188.666868 -219.118501 
L 187.958015 -219.118501 
L 187.249162 -219.118501 
L 186.54031 -219.118501 
L 185.831457 -219.118501 
L 185.122604 -219.118501 
L 184.413751 -219.118501 
L 183.704899 -219.118501 
L 182.996046 -219.118501 
L 182.287193 -219.118501 
L 181.578341 -219.118501 
L 180.869488 -219.118501 
L 180.160635 -219.118501 
L 179.451782 -219.118501 
L 178.74293 -219.118501 
L 178.034077 -219.118501 
L 177.325224 -219.118501 
L 176.616372 -219.118501 
L 175.907519 -219.118501 
L 175.198666 -219.118501 
L 174.489813 -219.118501 
L 173.780961 -219.118501 
L 173.072108 -219.118501 
L 172.363255 -219.118501 
L 171.654403 -219.118501 
L 170.94555 -219.118501 
L 170.236697 -219.118501 
L 169.527844 -219.118501 
L 168.818992 -219.118501 
L 168.110139 -219.118501 
L 167.401286 -219.118501 
L 166.692434 -219.118501 
L 165.983581 -219.118501 
L 165.274728 -219.118501 
L 164.565875 -219.118501 
L 163.857023 -219.118501 
L 163.14817 -219.118501 
L 162.439317 -219.118501 
L 161.730464 -219.118501 
L 161.021612 -219.118501 
L 160.312759 -219.118501 
L 159.603906 -219.118501 
L 158.895054 -219.118501 
L 158.186201 -219.118501 
L 157.477348 -219.118501 
L 156.768495 -219.118501 
L 156.059643 -219.118501 
L 155.35079 -219.118501 
L 154.641937 -219.118501 
L 153.933085 -219.118501 
L 153.224232 -219.118501 
L 152.515379 -219.118501 
L 151.806526 -219.118501 
L 151.097674 -219.118501 
L 150.388821 -219.118501 
L 149.679968 -219.118501 
L 148.971116 -219.118501 
L 148.262263 -219.118501 
L 147.55341 -219.118501 
L 146.844557 -219.118501 
L 146.135705 -219.118501 
L 145.426852 -219.118501 
L 144.717999 -219.118501 
L 144.009146 -219.118501 
L 143.300294 -219.118501 
L 142.591441 -219.118501 
L 141.882588 -219.118501 
L 141.173736 -219.118501 
L 140.464883 -219.118501 
L 139.75603 -219.118501 
L 139.047177 -219.118501 
L 138.338325 -219.118501 
L 137.629472 -219.118501 
L 136.920619 -219.118501 
L 136.211767 -219.118501 
L 135.502914 -219.118501 
L 134.794061 -219.118501 
L 134.085208 -219.118501 
L 133.376356 -219.118501 
L 132.667503 -219.118501 
L 131.95865 -219.118501 
L 131.249798 -219.118501 
L 130.540945 -219.118501 
L 129.832092 -219.118501 
L 129.123239 -219.118501 
L 128.414387 -219.118501 
L 127.705534 -219.118501 
L 126.996681 -219.118501 
L 126.287829 -219.118501 
L 125.578976 -219.118501 
L 124.870123 -219.118501 
L 124.16127 -219.118501 
L 123.452418 -219.118501 
L 122.743565 -219.118501 
L 122.034712 -219.118501 
L 121.325859 -219.118501 
L 120.617007 -219.118501 
L 119.908154 -219.118501 
L 119.199301 -219.118501 
L 118.490449 -219.118501 
L 117.781596 -219.118501 
L 117.072743 -219.118501 
L 116.36389 -219.118501 
L 115.655038 -219.118501 
L 114.946185 -219.118501 
L 114.237332 -219.118501 
L 113.52848 -219.118501 
L 112.819627 -219.118501 
L 112.110774 -219.118501 
L 111.401921 -219.118501 
L 110.693069 -219.118501 
L 109.984216 -219.118501 
L 109.275363 -219.118501 
L 108.566511 -219.118501 
L 107.857658 -219.118501 
L 107.148805 -219.118501 
L 106.439952 -219.118501 
L 105.7311 -219.118501 
L 105.022247 -219.118501 
L 104.313394 -219.118501 
L 103.604541 -219.118501 
L 102.895689 -219.118501 
L 102.186836 -219.118501 
L 101.477983 -219.118501 
L 100.769131 -219.118501 
L 100.060278 -219.118501 
L 99.351425 -219.118501 
L 98.642572 -219.118501 
L 97.93372 -219.118501 
L 97.224867 -219.118501 
L 96.516014 -219.118501 
L 95.807162 -219.118501 
L 95.098309 -219.118501 
L 94.389456 -219.118501 
L 93.680603 -219.118501 
L 92.971751 -219.118501 
L 92.262898 -219.118501 
L 91.554045 -219.118501 
L 90.845193 -219.118501 
L 90.13634 -219.118501 
L 89.427487 -219.118501 
L 88.718634 -219.118501 
L 88.009782 -219.118501 
L 87.300929 -219.118501 
L 86.592076 -219.118501 
L 85.883224 -219.118501 
L 85.174371 -219.118501 
L 84.465518 -219.118501 
L 83.756665 -219.118501 
L 83.047813 -219.118501 
L 82.33896 -219.118501 
L 81.630107 -219.118501 
L 80.921254 -219.118501 
L 80.212402 -219.118501 
L 79.503549 -219.118501 
L 78.794696 -219.118501 
L 78.085844 -219.118501 
L 77.376991 -219.118501 
L 76.668138 -219.118501 
L 75.959285 -219.118501 
L 75.250433 -219.118501 
L 74.54158 -219.118501 
L 73.832727 -219.118501 
z
" id="m647b01fcde" style="stroke:#4b0082;stroke-opacity:0.3;"/>
    </defs>
    <g clip-path="url(#p7cda973c36)">
     <use style="fill:#4b0082;fill-opacity:0.3;stroke:#4b0082;stroke-opacity:0.3;" x="0" xlink:href="#m647b01fcde" y="345.6"/>
    </g>
   </g>
   <g id="matplotlib.axis_1">
    <g id="xtick_1">
     <g id="line2d_1">
      <defs>
       <path d="M 0 0 
L 0 3.5 
" id="m7ea8b0718d" style="stroke:#000000;stroke-width:0.8;"/>
      </defs>
      <g>
       <use style="stroke:#000000;stroke-width:0.8;" x="73.832727" xlink:href="#m7ea8b0718d" y="307.584"/>
      </g>
     </g>
     <g id="text_1">
      <!-- 2020-01 -->
      <g transform="translate(52.941321 322.182437)scale(0.1 -0.1)">
       <defs>
        <path d="M 19.1875 8.296875 
L 53.609375 8.296875 
L 53.609375 0 
L 7.328125 0 
L 7.328125 8.296875 
Q 12.9375 14.109375 22.625 23.890625 
Q 32.328125 33.6875 34.8125 36.53125 
Q 39.546875 41.84375 41.421875 45.53125 
Q 43.3125 49.21875 43.3125 52.78125 
Q 43.3125 58.59375 39.234375 62.25 
Q 35.15625 65.921875 28.609375 65.921875 
Q 23.96875 65.921875 18.8125 64.3125 
Q 13.671875 62.703125 7.8125 59.421875 
L 7.8125 69.390625 
Q 13.765625 71.78125 18.9375 73 
Q 24.125 74.21875 28.421875 74.21875 
Q 39.75 74.21875 46.484375 68.546875 
Q 53.21875 62.890625 53.21875 53.421875 
Q 53.21875 48.921875 51.53125 44.890625 
Q 49.859375 40.875 45.40625 35.40625 
Q 44.1875 33.984375 37.640625 27.21875 
Q 31.109375 20.453125 19.1875 8.296875 
z
" id="DejaVuSans-50"/>
        <path d="M 31.78125 66.40625 
Q 24.171875 66.40625 20.328125 58.90625 
Q 16.5 51.421875 16.5 36.375 
Q 16.5 21.390625 20.328125 13.890625 
Q 24.171875 6.390625 31.78125 6.390625 
Q 39.453125 6.390625 43.28125 13.890625 
Q 47.125 21.390625 47.125 36.375 
Q 47.125 51.421875 43.28125 58.90625 
Q 39.453125 66.40625 31.78125 66.40625 
z
M 31.78125 74.21875 
Q 44.046875 74.21875 50.515625 64.515625 
Q 56.984375 54.828125 56.984375 36.375 
Q 56.984375 17.96875 50.515625 8.265625 
Q 44.046875 -1.421875 31.78125 -1.421875 
Q 19.53125 -1.421875 13.0625 8.265625 
Q 6.59375 17.96875 6.59375 36.375 
Q 6.59375 54.828125 13.0625 64.515625 
Q 19.53125 74.21875 31.78125 74.21875 
z
" id="DejaVuSans-48"/>
        <path d="M 4.890625 31.390625 
L 31.203125 31.390625 
L 31.203125 23.390625 
L 4.890625 23.390625 
z
" id="DejaVuSans-45"/>
        <path d="M 12.40625 8.296875 
L 28.515625 8.296875 
L 28.515625 63.921875 
L 10.984375 60.40625 
L 10.984375 69.390625 
L 28.421875 72.90625 
L 38.28125 72.90625 
L 38.28125 8.296875 
L 54.390625 8.296875 
L 54.390625 0 
L 12.40625 0 
z
" id="DejaVuSans-49"/>
       </defs>
       <use xlink:href="#DejaVuSans-50"/>
       <use x="63.623047" xlink:href="#DejaVuSans-48"/>
       <use x="127.246094" xlink:href="#DejaVuSans-50"/>
       <use x="190.869141" xlink:href="#DejaVuSans-48"/>
       <use x="254.492188" xlink:href="#DejaVuSans-45"/>
       <use x="290.576172" xlink:href="#DejaVuSans-48"/>
       <use x="354.199219" xlink:href="#DejaVuSans-49"/>
      </g>
     </g>
    </g>
    <g id="xtick_2">
     <g id="line2d_2">
      <g>
       <use style="stroke:#000000;stroke-width:0.8;" x="116.36389" xlink:href="#m7ea8b0718d" y="307.584"/>
      </g>
     </g>
     <g id="text_2">
      <!-- 2020-03 -->
      <g transform="translate(95.472484 322.182437)scale(0.1 -0.1)">
       <defs>
        <path d="M 40.578125 39.3125 
Q 47.65625 37.796875 51.625 33 
Q 55.609375 28.21875 55.609375 21.1875 
Q 55.609375 10.40625 48.1875 4.484375 
Q 40.765625 -1.421875 27.09375 -1.421875 
Q 22.515625 -1.421875 17.65625 -0.515625 
Q 12.796875 0.390625 7.625 2.203125 
L 7.625 11.71875 
Q 11.71875 9.328125 16.59375 8.109375 
Q 21.484375 6.890625 26.8125 6.890625 
Q 36.078125 6.890625 40.9375 10.546875 
Q 45.796875 14.203125 45.796875 21.1875 
Q 45.796875 27.640625 41.28125 31.265625 
Q 36.765625 34.90625 28.71875 34.90625 
L 20.21875 34.90625 
L 20.21875 43.015625 
L 29.109375 43.015625 
Q 36.375 43.015625 40.234375 45.921875 
Q 44.09375 48.828125 44.09375 54.296875 
Q 44.09375 59.90625 40.109375 62.90625 
Q 36.140625 65.921875 28.71875 65.921875 
Q 24.65625 65.921875 20.015625 65.03125 
Q 15.375 64.15625 9.8125 62.3125 
L 9.8125 71.09375 
Q 15.4375 72.65625 20.34375 73.4375 
Q 25.25 74.21875 29.59375 74.21875 
Q 40.828125 74.21875 47.359375 69.109375 
Q 53.90625 64.015625 53.90625 55.328125 
Q 53.90625 49.265625 50.4375 45.09375 
Q 46.96875 40.921875 40.578125 39.3125 
z
" id="DejaVuSans-51"/>
       </defs>
       <use xlink:href="#DejaVuSans-50"/>
       <use x="63.623047" xlink:href="#DejaVuSans-48"/>
       <use x="127.246094" xlink:href="#DejaVuSans-50"/>
       <use x="190.869141" xlink:href="#DejaVuSans-48"/>
       <use x="254.492188" xlink:href="#DejaVuSans-45"/>
       <use x="290.576172" xlink:href="#DejaVuSans-48"/>
       <use x="354.199219" xlink:href="#DejaVuSans-51"/>
      </g>
     </g>
    </g>
    <g id="xtick_3">
     <g id="line2d_3">
      <g>
       <use style="stroke:#000000;stroke-width:0.8;" x="159.603906" xlink:href="#m7ea8b0718d" y="307.584"/>
      </g>
     </g>
     <g id="text_3">
      <!-- 2020-05 -->
      <g transform="translate(138.7125 322.182437)scale(0.1 -0.1)">
       <defs>
        <path d="M 10.796875 72.90625 
L 49.515625 72.90625 
L 49.515625 64.59375 
L 19.828125 64.59375 
L 19.828125 46.734375 
Q 21.96875 47.46875 24.109375 47.828125 
Q 26.265625 48.1875 28.421875 48.1875 
Q 40.625 48.1875 47.75 41.5 
Q 54.890625 34.8125 54.890625 23.390625 
Q 54.890625 11.625 47.5625 5.09375 
Q 40.234375 -1.421875 26.90625 -1.421875 
Q 22.3125 -1.421875 17.546875 -0.640625 
Q 12.796875 0.140625 7.71875 1.703125 
L 7.71875 11.625 
Q 12.109375 9.234375 16.796875 8.0625 
Q 21.484375 6.890625 26.703125 6.890625 
Q 35.15625 6.890625 40.078125 11.328125 
Q 45.015625 15.765625 45.015625 23.390625 
Q 45.015625 31 40.078125 35.4375 
Q 35.15625 39.890625 26.703125 39.890625 
Q 22.75 39.890625 18.8125 39.015625 
Q 14.890625 38.140625 10.796875 36.28125 
z
" id="DejaVuSans-53"/>
       </defs>
       <use xlink:href="#DejaVuSans-50"/>
       <use x="63.623047" xlink:href="#DejaVuSans-48"/>
       <use x="127.246094" xlink:href="#DejaVuSans-50"/>
       <use x="190.869141" xlink:href="#DejaVuSans-48"/>
       <use x="254.492188" xlink:href="#DejaVuSans-45"/>
       <use x="290.576172" xlink:href="#DejaVuSans-48"/>
       <use x="354.199219" xlink:href="#DejaVuSans-53"/>
      </g>
     </g>
    </g>
    <g id="xtick_4">
     <g id="line2d_4">
      <g>
       <use style="stroke:#000000;stroke-width:0.8;" x="202.843922" xlink:href="#m7ea8b0718d" y="307.584"/>
      </g>
     </g>
     <g id="text_4">
      <!-- 2020-07 -->
      <g transform="translate(181.952516 322.182437)scale(0.1 -0.1)">
       <defs>
        <path d="M 8.203125 72.90625 
L 55.078125 72.90625 
L 55.078125 68.703125 
L 28.609375 0 
L 18.3125 0 
L 43.21875 64.59375 
L 8.203125 64.59375 
z
" id="DejaVuSans-55"/>
       </defs>
       <use xlink:href="#DejaVuSans-50"/>
       <use x="63.623047" xlink:href="#DejaVuSans-48"/>
       <use x="127.246094" xlink:href="#DejaVuSans-50"/>
       <use x="190.869141" xlink:href="#DejaVuSans-48"/>
       <use x="254.492188" xlink:href="#DejaVuSans-45"/>
       <use x="290.576172" xlink:href="#DejaVuSans-48"/>
       <use x="354.199219" xlink:href="#DejaVuSans-55"/>
      </g>
     </g>
    </g>
    <g id="xtick_5">
     <g id="line2d_5">
      <g>
       <use style="stroke:#000000;stroke-width:0.8;" x="246.792791" xlink:href="#m7ea8b0718d" y="307.584"/>
      </g>
     </g>
     <g id="text_5">
      <!-- 2020-09 -->
      <g transform="translate(225.901385 322.182437)scale(0.1 -0.1)">
       <defs>
        <path d="M 10.984375 1.515625 
L 10.984375 10.5 
Q 14.703125 8.734375 18.5 7.8125 
Q 22.3125 6.890625 25.984375 6.890625 
Q 35.75 6.890625 40.890625 13.453125 
Q 46.046875 20.015625 46.78125 33.40625 
Q 43.953125 29.203125 39.59375 26.953125 
Q 35.25 24.703125 29.984375 24.703125 
Q 19.046875 24.703125 12.671875 31.3125 
Q 6.296875 37.9375 6.296875 49.421875 
Q 6.296875 60.640625 12.9375 67.421875 
Q 19.578125 74.21875 30.609375 74.21875 
Q 43.265625 74.21875 49.921875 64.515625 
Q 56.59375 54.828125 56.59375 36.375 
Q 56.59375 19.140625 48.40625 8.859375 
Q 40.234375 -1.421875 26.421875 -1.421875 
Q 22.703125 -1.421875 18.890625 -0.6875 
Q 15.09375 0.046875 10.984375 1.515625 
z
M 30.609375 32.421875 
Q 37.25 32.421875 41.125 36.953125 
Q 45.015625 41.5 45.015625 49.421875 
Q 45.015625 57.28125 41.125 61.84375 
Q 37.25 66.40625 30.609375 66.40625 
Q 23.96875 66.40625 20.09375 61.84375 
Q 16.21875 57.28125 16.21875 49.421875 
Q 16.21875 41.5 20.09375 36.953125 
Q 23.96875 32.421875 30.609375 32.421875 
z
" id="DejaVuSans-57"/>
       </defs>
       <use xlink:href="#DejaVuSans-50"/>
       <use x="63.623047" xlink:href="#DejaVuSans-48"/>
       <use x="127.246094" xlink:href="#DejaVuSans-50"/>
       <use x="190.869141" xlink:href="#DejaVuSans-48"/>
       <use x="254.492188" xlink:href="#DejaVuSans-45"/>
       <use x="290.576172" xlink:href="#DejaVuSans-48"/>
       <use x="354.199219" xlink:href="#DejaVuSans-57"/>
      </g>
     </g>
    </g>
    <g id="xtick_6">
     <g id="line2d_6">
      <g>
       <use style="stroke:#000000;stroke-width:0.8;" x="290.032807" xlink:href="#m7ea8b0718d" y="307.584"/>
      </g>
     </g>
     <g id="text_6">
      <!-- 2020-11 -->
      <g transform="translate(269.1414 322.182437)scale(0.1 -0.1)">
       <use xlink:href="#DejaVuSans-50"/>
       <use x="63.623047" xlink:href="#DejaVuSans-48"/>
       <use x="127.246094" xlink:href="#DejaVuSans-50"/>
       <use x="190.869141" xlink:href="#DejaVuSans-48"/>
       <use x="254.492188" xlink:href="#DejaVuSans-45"/>
       <use x="290.576172" xlink:href="#DejaVuSans-49"/>
       <use x="354.199219" xlink:href="#DejaVuSans-49"/>
      </g>
     </g>
    </g>
    <g id="xtick_7">
     <g id="line2d_7">
      <g>
       <use style="stroke:#000000;stroke-width:0.8;" x="333.272823" xlink:href="#m7ea8b0718d" y="307.584"/>
      </g>
     </g>
     <g id="text_7">
      <!-- 2021-01 -->
      <g transform="translate(312.381416 322.182437)scale(0.1 -0.1)">
       <use xlink:href="#DejaVuSans-50"/>
       <use x="63.623047" xlink:href="#DejaVuSans-48"/>
       <use x="127.246094" xlink:href="#DejaVuSans-50"/>
       <use x="190.869141" xlink:href="#DejaVuSans-49"/>
       <use x="254.492188" xlink:href="#DejaVuSans-45"/>
       <use x="290.576172" xlink:href="#DejaVuSans-48"/>
       <use x="354.199219" xlink:href="#DejaVuSans-49"/>
      </g>
     </g>
    </g>
    <g id="xtick_8">
     <g id="line2d_8">
      <g>
       <use style="stroke:#000000;stroke-width:0.8;" x="375.095133" xlink:href="#m7ea8b0718d" y="307.584"/>
      </g>
     </g>
     <g id="text_8">
      <!-- 2021-03 -->
      <g transform="translate(354.203727 322.182437)scale(0.1 -0.1)">
       <use xlink:href="#DejaVuSans-50"/>
       <use x="63.623047" xlink:href="#DejaVuSans-48"/>
       <use x="127.246094" xlink:href="#DejaVuSans-50"/>
       <use x="190.869141" xlink:href="#DejaVuSans-49"/>
       <use x="254.492188" xlink:href="#DejaVuSans-45"/>
       <use x="290.576172" xlink:href="#DejaVuSans-48"/>
       <use x="354.199219" xlink:href="#DejaVuSans-51"/>
      </g>
     </g>
    </g>
   </g>
   <g id="matplotlib.axis_2">
    <g id="ytick_1">
     <g id="line2d_9">
      <defs>
       <path d="M 0 0 
L -3.5 0 
" id="mf5685ac3cc" style="stroke:#000000;stroke-width:0.8;"/>
      </defs>
      <g>
       <use style="stroke:#000000;stroke-width:0.8;" x="57.6" xlink:href="#mf5685ac3cc" y="307.584"/>
      </g>
     </g>
     <g id="text_9">
      <!-- 0 -->
      <g transform="translate(44.2375 311.383219)scale(0.1 -0.1)">
       <use xlink:href="#DejaVuSans-48"/>
      </g>
     </g>
    </g>
    <g id="ytick_2">
     <g id="line2d_10">
      <g>
       <use style="stroke:#000000;stroke-width:0.8;" x="57.6" xlink:href="#mf5685ac3cc" y="255.840428"/>
      </g>
     </g>
     <g id="text_10">
      <!-- 20 -->
      <g transform="translate(37.875 259.639647)scale(0.1 -0.1)">
       <use xlink:href="#DejaVuSans-50"/>
       <use x="63.623047" xlink:href="#DejaVuSans-48"/>
      </g>
     </g>
    </g>
    <g id="ytick_3">
     <g id="line2d_11">
      <g>
       <use style="stroke:#000000;stroke-width:0.8;" x="57.6" xlink:href="#mf5685ac3cc" y="204.096857"/>
      </g>
     </g>
     <g id="text_11">
      <!-- 40 -->
      <g transform="translate(37.875 207.896076)scale(0.1 -0.1)">
       <defs>
        <path d="M 37.796875 64.3125 
L 12.890625 25.390625 
L 37.796875 25.390625 
z
M 35.203125 72.90625 
L 47.609375 72.90625 
L 47.609375 25.390625 
L 58.015625 25.390625 
L 58.015625 17.1875 
L 47.609375 17.1875 
L 47.609375 0 
L 37.796875 0 
L 37.796875 17.1875 
L 4.890625 17.1875 
L 4.890625 26.703125 
z
" id="DejaVuSans-52"/>
       </defs>
       <use xlink:href="#DejaVuSans-52"/>
       <use x="63.623047" xlink:href="#DejaVuSans-48"/>
      </g>
     </g>
    </g>
    <g id="ytick_4">
     <g id="line2d_12">
      <g>
       <use style="stroke:#000000;stroke-width:0.8;" x="57.6" xlink:href="#mf5685ac3cc" y="152.353285"/>
      </g>
     </g>
     <g id="text_12">
      <!-- 60 -->
      <g transform="translate(37.875 156.152504)scale(0.1 -0.1)">
       <defs>
        <path d="M 33.015625 40.375 
Q 26.375 40.375 22.484375 35.828125 
Q 18.609375 31.296875 18.609375 23.390625 
Q 18.609375 15.53125 22.484375 10.953125 
Q 26.375 6.390625 33.015625 6.390625 
Q 39.65625 6.390625 43.53125 10.953125 
Q 47.40625 15.53125 47.40625 23.390625 
Q 47.40625 31.296875 43.53125 35.828125 
Q 39.65625 40.375 33.015625 40.375 
z
M 52.59375 71.296875 
L 52.59375 62.3125 
Q 48.875 64.0625 45.09375 64.984375 
Q 41.3125 65.921875 37.59375 65.921875 
Q 27.828125 65.921875 22.671875 59.328125 
Q 17.53125 52.734375 16.796875 39.40625 
Q 19.671875 43.65625 24.015625 45.921875 
Q 28.375 48.1875 33.59375 48.1875 
Q 44.578125 48.1875 50.953125 41.515625 
Q 57.328125 34.859375 57.328125 23.390625 
Q 57.328125 12.15625 50.6875 5.359375 
Q 44.046875 -1.421875 33.015625 -1.421875 
Q 20.359375 -1.421875 13.671875 8.265625 
Q 6.984375 17.96875 6.984375 36.375 
Q 6.984375 53.65625 15.1875 63.9375 
Q 23.390625 74.21875 37.203125 74.21875 
Q 40.921875 74.21875 44.703125 73.484375 
Q 48.484375 72.75 52.59375 71.296875 
z
" id="DejaVuSans-54"/>
       </defs>
       <use xlink:href="#DejaVuSans-54"/>
       <use x="63.623047" xlink:href="#DejaVuSans-48"/>
      </g>
     </g>
    </g>
    <g id="ytick_5">
     <g id="line2d_13">
      <g>
       <use style="stroke:#000000;stroke-width:0.8;" x="57.6" xlink:href="#mf5685ac3cc" y="100.609714"/>
      </g>
     </g>
     <g id="text_13">
      <!-- 80 -->
      <g transform="translate(37.875 104.408932)scale(0.1 -0.1)">
       <defs>
        <path d="M 31.78125 34.625 
Q 24.75 34.625 20.71875 30.859375 
Q 16.703125 27.09375 16.703125 20.515625 
Q 16.703125 13.921875 20.71875 10.15625 
Q 24.75 6.390625 31.78125 6.390625 
Q 38.8125 6.390625 42.859375 10.171875 
Q 46.921875 13.96875 46.921875 20.515625 
Q 46.921875 27.09375 42.890625 30.859375 
Q 38.875 34.625 31.78125 34.625 
z
M 21.921875 38.8125 
Q 15.578125 40.375 12.03125 44.71875 
Q 8.5 49.078125 8.5 55.328125 
Q 8.5 64.0625 14.71875 69.140625 
Q 20.953125 74.21875 31.78125 74.21875 
Q 42.671875 74.21875 48.875 69.140625 
Q 55.078125 64.0625 55.078125 55.328125 
Q 55.078125 49.078125 51.53125 44.71875 
Q 48 40.375 41.703125 38.8125 
Q 48.828125 37.15625 52.796875 32.3125 
Q 56.78125 27.484375 56.78125 20.515625 
Q 56.78125 9.90625 50.3125 4.234375 
Q 43.84375 -1.421875 31.78125 -1.421875 
Q 19.734375 -1.421875 13.25 4.234375 
Q 6.78125 9.90625 6.78125 20.515625 
Q 6.78125 27.484375 10.78125 32.3125 
Q 14.796875 37.15625 21.921875 38.8125 
z
M 18.3125 54.390625 
Q 18.3125 48.734375 21.84375 45.5625 
Q 25.390625 42.390625 31.78125 42.390625 
Q 38.140625 42.390625 41.71875 45.5625 
Q 45.3125 48.734375 45.3125 54.390625 
Q 45.3125 60.0625 41.71875 63.234375 
Q 38.140625 66.40625 31.78125 66.40625 
Q 25.390625 66.40625 21.84375 63.234375 
Q 18.3125 60.0625 18.3125 54.390625 
z
" id="DejaVuSans-56"/>
       </defs>
       <use xlink:href="#DejaVuSans-56"/>
       <use x="63.623047" xlink:href="#DejaVuSans-48"/>
      </g>
     </g>
    </g>
    <g id="ytick_6">
     <g id="line2d_14">
      <g>
       <use style="stroke:#000000;stroke-width:0.8;" x="57.6" xlink:href="#mf5685ac3cc" y="48.866142"/>
      </g>
     </g>
     <g id="text_14">
      <!-- 100 -->
      <g transform="translate(31.5125 52.665361)scale(0.1 -0.1)">
       <use xlink:href="#DejaVuSans-49"/>
       <use x="63.623047" xlink:href="#DejaVuSans-48"/>
       <use x="127.246094" xlink:href="#DejaVuSans-48"/>
      </g>
     </g>
    </g>
   </g>
   <g id="line2d_15">
    <path clip-path="url(#p7cda973c36)" d="M 85.174371 109.456246 
L 85.883224 108.007165 
L 86.592076 113.682392 
L 87.300929 123.075642 
L 88.009782 136.071545 
L 88.718634 143.692865 
L 89.427487 147.168069 
L 90.845193 156.440143 
L 91.554045 158.067917 
L 92.262898 148.694506 
L 92.971751 143.810456 
L 93.680603 143.144732 
L 94.389456 143.329311 
L 95.098309 146.721602 
L 95.807162 147.177543 
L 96.516014 149.366892 
L 97.224867 144.942928 
L 97.93372 145.114691 
L 98.642572 141.592445 
L 99.351425 130.927074 
L 100.060278 116.013097 
L 100.769131 104.807671 
L 101.477983 101.390263 
L 102.186836 108.552096 
L 102.895689 119.897928 
L 103.604541 127.81617 
L 104.313394 130.682775 
L 105.022247 127.032289 
L 105.7311 137.61426 
L 106.439952 141.403967 
L 107.148805 154.156785 
L 107.857658 148.797381 
L 108.566511 158.6351 
L 109.275363 166.815616 
L 109.984216 181.874853 
L 110.693069 184.705715 
L 111.401921 185.292996 
L 112.110774 186.296717 
L 112.819627 196.080495 
L 114.237332 226.802689 
L 114.946185 234.064675 
L 115.655038 233.740089 
L 116.36389 235.101983 
L 117.072743 224.909545 
L 117.781596 226.708614 
L 118.490449 222.550091 
L 119.199301 220.951465 
L 119.908154 209.256247 
L 120.617007 205.804933 
L 122.034712 234.759467 
L 122.743565 243.873993 
L 123.452418 234.588673 
L 124.16127 242.578197 
L 124.870123 243.991502 
L 125.578976 252.290879 
L 126.287829 242.777003 
L 126.996681 246.775078 
L 127.705534 246.450289 
L 128.414387 247.143834 
L 129.123239 238.881511 
L 130.540945 230.099956 
L 131.249798 227.859496 
L 133.376356 201.280792 
L 134.085208 174.33578 
L 135.502914 134.815286 
L 136.211767 146.915302 
L 136.920619 143.916972 
L 137.629472 144.311529 
L 138.338325 137.076963 
L 139.047177 144.924047 
L 140.464883 155.908112 
L 141.882588 147.256929 
L 142.591441 146.649353 
L 143.300294 149.490348 
L 144.009146 151.429202 
L 144.717999 157.192329 
L 145.426852 158.214465 
L 146.135705 148.679235 
L 146.844557 148.242563 
L 147.55341 149.69363 
L 148.262263 167.11449 
L 148.971116 166.791561 
L 149.679968 168.308783 
L 150.388821 163.600175 
L 151.097674 160.748632 
L 151.806526 173.405021 
L 152.515379 188.056658 
L 153.224232 197.666922 
L 153.933085 187.128983 
L 155.35079 152.889294 
L 156.059643 147.992431 
L 156.768495 138.491873 
L 157.477348 132.91438 
L 158.186201 113.370236 
L 159.603906 93.001681 
L 160.312759 92.281352 
L 161.021612 92.86379 
L 161.730464 85.399396 
L 163.14817 66.347122 
L 163.857023 65.276147 
L 164.565875 62.861699 
L 165.274728 67.976128 
L 166.692434 124.717557 
L 167.401286 147.867133 
L 168.110139 148.698179 
L 168.818992 151.869227 
L 170.236697 156.588421 
L 170.94555 155.878929 
L 171.654403 155.58419 
L 172.363255 153.192589 
L 173.072108 157.140982 
L 173.780961 165.271765 
L 174.489813 181.692139 
L 175.198666 192.849739 
L 175.907519 180.813684 
L 176.616372 173.816055 
L 177.325224 165.596834 
L 178.034077 180.403796 
L 178.74293 186.436928 
L 179.451782 190.018518 
L 180.160635 185.356085 
L 180.869488 182.70584 
L 181.578341 182.882752 
L 182.287193 178.259213 
L 182.996046 176.206032 
L 184.413751 167.196265 
L 185.122604 157.241794 
L 185.831457 154.318405 
L 187.249162 142.945968 
L 187.958015 135.638502 
L 188.666868 140.666463 
L 189.375721 153.534644 
L 190.084573 169.140905 
L 190.793426 182.094673 
L 191.502279 189.51345 
L 192.211131 198.779885 
L 192.919984 199.257282 
L 193.628837 194.213293 
L 194.33769 196.685694 
L 195.046542 203.770782 
L 195.755395 209.54051 
L 197.1731 194.687781 
L 197.881953 192.655411 
L 198.590806 197.966672 
L 199.299659 204.882794 
L 200.008511 206.137962 
L 200.717364 204.089456 
L 201.426217 196.248048 
L 202.135069 200.373741 
L 202.843922 200.539822 
L 203.552775 207.266367 
L 204.261628 202.257035 
L 204.97048 199.727357 
L 205.679333 200.967909 
L 206.388186 204.329895 
L 207.097039 208.376759 
L 207.805891 208.150879 
L 208.514744 193.294158 
L 209.932449 168.075781 
L 210.641302 161.819217 
L 211.350155 153.612193 
L 212.059008 155.132608 
L 212.76786 164.322028 
L 213.476713 176.570009 
L 214.185566 177.828911 
L 214.894418 177.868719 
L 215.603271 170.924628 
L 216.312124 173.018364 
L 217.020977 178.565703 
L 217.729829 178.694838 
L 218.438682 173.201101 
L 219.147535 148.074804 
L 220.56524 113.327672 
L 221.274093 104.137174 
L 221.982946 85.112173 
L 222.691798 69.360709 
L 223.400651 57.659375 
L 224.818356 51.510994 
L 225.527209 54.507085 
L 227.653767 74.18635 
L 228.36262 74.742322 
L 229.071473 75.588464 
L 229.780326 80.909295 
L 230.489178 87.764958 
L 231.198031 95.956271 
L 231.906884 107.806111 
L 233.324589 148.980224 
L 234.033442 154.768101 
L 234.742295 152.296074 
L 235.451147 150.674506 
L 236.16 150.147652 
L 236.868853 143.710409 
L 237.577705 144.227816 
L 238.286558 154.492799 
L 238.995411 172.301844 
L 239.704264 179.468345 
L 240.413116 180.794268 
L 241.121969 181.623883 
L 241.830822 189.705501 
L 242.539674 186.952819 
L 243.248527 187.372424 
L 243.95738 185.609151 
L 244.666233 194.461426 
L 245.375085 194.240386 
L 246.083938 192.525832 
L 246.792791 192.460243 
L 247.501644 190.72136 
L 248.210496 196.920259 
L 248.919349 207.362804 
L 249.628202 221.031869 
L 250.337054 229.998898 
L 251.045907 232.390733 
L 251.75476 230.225984 
L 252.463613 229.756841 
L 253.172465 221.583709 
L 253.881318 221.201517 
L 254.590171 216.732807 
L 255.299023 221.93768 
L 256.007876 219.511047 
L 256.716729 219.477522 
L 257.425582 211.631574 
L 258.134434 205.109924 
L 258.843287 179.864005 
L 260.260992 139.846907 
L 260.969845 145.353699 
L 261.678698 152.802861 
L 262.387551 163.366966 
L 263.096403 163.763548 
L 263.805256 161.52303 
L 264.514109 160.23639 
L 265.222961 157.778362 
L 265.931814 160.086595 
L 266.640667 167.178814 
L 267.34952 182.929709 
L 268.058372 194.55466 
L 268.767225 201.810611 
L 269.476078 207.023871 
L 270.184931 204.52098 
L 272.311489 156.995131 
L 273.020341 155.894985 
L 273.729194 146.289779 
L 274.438047 142.695686 
L 275.1469 133.832449 
L 275.855752 127.038772 
L 276.564605 125.579819 
L 277.273458 124.396033 
L 277.98231 118.437289 
L 279.400016 115.065446 
L 280.108869 118.403023 
L 280.817721 115.126626 
L 281.526574 105.479896 
L 282.944279 81.163107 
L 283.653132 79.446497 
L 284.361985 82.002777 
L 285.070838 87.223501 
L 285.77969 91.261687 
L 286.488543 89.121265 
L 287.197396 92.644038 
L 287.906249 94.731285 
L 288.615101 98.246655 
L 289.323954 92.452401 
L 290.032807 88.548919 
L 291.450512 99.57984 
L 292.159365 108.110126 
L 292.868218 104.336648 
L 293.57707 101.415668 
L 294.285923 105.963083 
L 294.994776 113.044314 
L 295.703628 122.883031 
L 296.412481 123.728774 
L 297.121334 122.20836 
L 297.830187 117.014918 
L 298.539039 108.863555 
L 299.247892 111.695353 
L 299.956745 117.088974 
L 300.665597 116.836123 
L 302.083303 104.008653 
L 302.792156 107.774346 
L 303.501008 109.499318 
L 304.918714 93.220832 
L 305.627566 87.210871 
L 306.336419 89.031958 
L 307.045272 91.999053 
L 308.462977 141.549712 
L 309.17183 155.342113 
L 309.880683 147.491273 
L 310.589536 136.357884 
L 311.298388 140.993695 
L 312.007241 147.123261 
L 312.716094 155.306656 
L 314.133799 167.287716 
L 314.842652 171.085252 
L 315.551505 166.971957 
L 316.96921 179.220116 
L 317.678063 176.862633 
L 318.386915 167.598731 
L 319.095768 160.683197 
L 319.804621 161.497713 
L 320.513474 169.654913 
L 321.222326 170.517267 
L 321.931179 162.740037 
L 323.348884 121.714129 
L 324.057737 109.305919 
L 324.76659 105.19351 
L 325.475443 112.60229 
L 326.184295 111.291761 
L 326.893148 111.173817 
L 327.602001 103.718059 
L 328.310854 102.246033 
L 329.019706 94.559326 
L 329.728559 91.849508 
L 330.437412 91.438408 
L 331.146264 92.132171 
L 331.855117 91.52515 
L 333.272823 96.136169 
L 333.981675 95.152871 
L 334.690528 89.085125 
L 335.399381 84.822441 
L 336.108233 82.579746 
L 336.817086 78.684972 
L 338.234792 66.865659 
L 338.943644 68.470013 
L 339.652497 78.474453 
L 341.070202 120.145569 
L 341.779055 132.012818 
L 342.487908 132.169604 
L 343.196761 133.731492 
L 343.905613 142.66364 
L 344.614466 155.058666 
L 346.032171 161.522993 
L 346.741024 169.207446 
L 347.449877 193.833582 
L 348.15873 211.17803 
L 348.867582 222.86618 
L 349.576435 217.797716 
L 350.285288 211.007549 
L 350.994141 200.150018 
L 352.411846 212.314853 
L 353.120699 215.067673 
L 353.829551 202.294593 
L 354.538404 195.764977 
L 355.247257 197.329854 
L 355.95611 193.792029 
L 356.664962 182.376964 
L 357.373815 157.950934 
L 358.79152 126.375708 
L 359.500373 124.572328 
L 360.209226 112.980727 
L 360.918079 106.793198 
L 361.626931 97.261393 
L 362.335784 95.908157 
L 363.044637 96.887546 
L 363.753489 99.915063 
L 365.880048 94.939389 
L 366.5889 97.369474 
L 367.297753 96.881073 
L 368.006606 94.043294 
L 368.715459 92.373291 
L 369.424311 89.18197 
L 370.133164 103.38817 
L 371.550869 151.103776 
L 372.259722 167.838932 
L 372.968575 173.490604 
L 373.677428 183.265437 
L 374.38628 187.523122 
L 375.095133 183.197839 
L 375.803986 182.507362 
L 376.512838 179.385057 
L 377.221691 186.63502 
L 377.930544 197.786945 
L 378.639397 207.0499 
L 379.348249 213.052017 
L 380.057102 203.971698 
L 382.18366 131.402448 
L 382.892513 120.684691 
L 383.601366 106.504203 
L 384.310218 105.646707 
L 385.727924 129.855194 
L 386.436776 138.238187 
L 387.145629 132.160854 
L 388.563335 128.288736 
L 389.272187 132.765049 
L 389.98104 146.445786 
L 392.107598 198.564261 
L 392.816451 201.165244 
L 393.525304 204.80738 
L 394.234156 199.136649 
L 394.943009 190.808629 
L 395.651862 176.16076 
L 396.360715 169.572634 
L 397.77842 172.881378 
L 398.487273 175.259837 
L 398.487273 175.259837 
" style="fill:none;stroke:#ff6347;stroke-linecap:square;stroke-width:1.5;"/>
   </g>
   <g id="patch_3">
    <path d="M 57.6 307.584 
L 57.6 41.472 
" style="fill:none;stroke:#000000;stroke-linecap:square;stroke-linejoin:miter;stroke-width:0.8;"/>
   </g>
   <g id="patch_4">
    <path d="M 414.72 307.584 
L 414.72 41.472 
" style="fill:none;stroke:#000000;stroke-linecap:square;stroke-linejoin:miter;stroke-width:0.8;"/>
   </g>
   <g id="patch_5">
    <path d="M 57.6 307.584 
L 414.72 307.584 
" style="fill:none;stroke:#000000;stroke-linecap:square;stroke-linejoin:miter;stroke-width:0.8;"/>
   </g>
   <g id="patch_6">
    <path d="M 57.6 41.472 
L 414.72 41.472 
" style="fill:none;stroke:#000000;stroke-linecap:square;stroke-linejoin:miter;stroke-width:0.8;"/>
   </g>
   <g id="text_15">
    <!-- Data source: coindesk -->
    <g transform="translate(180.640469 35.472)scale(0.1 -0.1)">
     <defs>
      <path d="M 19.671875 64.796875 
L 19.671875 8.109375 
L 31.59375 8.109375 
Q 46.6875 8.109375 53.6875 14.9375 
Q 60.6875 21.78125 60.6875 36.53125 
Q 60.6875 51.171875 53.6875 57.984375 
Q 46.6875 64.796875 31.59375 64.796875 
z
M 9.8125 72.90625 
L 30.078125 72.90625 
Q 51.265625 72.90625 61.171875 64.09375 
Q 71.09375 55.28125 71.09375 36.53125 
Q 71.09375 17.671875 61.125 8.828125 
Q 51.171875 0 30.078125 0 
L 9.8125 0 
z
" id="DejaVuSans-68"/>
      <path d="M 34.28125 27.484375 
Q 23.390625 27.484375 19.1875 25 
Q 14.984375 22.515625 14.984375 16.5 
Q 14.984375 11.71875 18.140625 8.90625 
Q 21.296875 6.109375 26.703125 6.109375 
Q 34.1875 6.109375 38.703125 11.40625 
Q 43.21875 16.703125 43.21875 25.484375 
L 43.21875 27.484375 
z
M 52.203125 31.203125 
L 52.203125 0 
L 43.21875 0 
L 43.21875 8.296875 
Q 40.140625 3.328125 35.546875 0.953125 
Q 30.953125 -1.421875 24.3125 -1.421875 
Q 15.921875 -1.421875 10.953125 3.296875 
Q 6 8.015625 6 15.921875 
Q 6 25.140625 12.171875 29.828125 
Q 18.359375 34.515625 30.609375 34.515625 
L 43.21875 34.515625 
L 43.21875 35.40625 
Q 43.21875 41.609375 39.140625 45 
Q 35.0625 48.390625 27.6875 48.390625 
Q 23 48.390625 18.546875 47.265625 
Q 14.109375 46.140625 10.015625 43.890625 
L 10.015625 52.203125 
Q 14.9375 54.109375 19.578125 55.046875 
Q 24.21875 56 28.609375 56 
Q 40.484375 56 46.34375 49.84375 
Q 52.203125 43.703125 52.203125 31.203125 
z
" id="DejaVuSans-97"/>
      <path d="M 18.3125 70.21875 
L 18.3125 54.6875 
L 36.8125 54.6875 
L 36.8125 47.703125 
L 18.3125 47.703125 
L 18.3125 18.015625 
Q 18.3125 11.328125 20.140625 9.421875 
Q 21.96875 7.515625 27.59375 7.515625 
L 36.8125 7.515625 
L 36.8125 0 
L 27.59375 0 
Q 17.1875 0 13.234375 3.875 
Q 9.28125 7.765625 9.28125 18.015625 
L 9.28125 47.703125 
L 2.6875 47.703125 
L 2.6875 54.6875 
L 9.28125 54.6875 
L 9.28125 70.21875 
z
" id="DejaVuSans-116"/>
      <path id="DejaVuSans-32"/>
      <path d="M 44.28125 53.078125 
L 44.28125 44.578125 
Q 40.484375 46.53125 36.375 47.5 
Q 32.28125 48.484375 27.875 48.484375 
Q 21.1875 48.484375 17.84375 46.4375 
Q 14.5 44.390625 14.5 40.28125 
Q 14.5 37.15625 16.890625 35.375 
Q 19.28125 33.59375 26.515625 31.984375 
L 29.59375 31.296875 
Q 39.15625 29.25 43.1875 25.515625 
Q 47.21875 21.78125 47.21875 15.09375 
Q 47.21875 7.46875 41.1875 3.015625 
Q 35.15625 -1.421875 24.609375 -1.421875 
Q 20.21875 -1.421875 15.453125 -0.5625 
Q 10.6875 0.296875 5.421875 2 
L 5.421875 11.28125 
Q 10.40625 8.6875 15.234375 7.390625 
Q 20.0625 6.109375 24.8125 6.109375 
Q 31.15625 6.109375 34.5625 8.28125 
Q 37.984375 10.453125 37.984375 14.40625 
Q 37.984375 18.0625 35.515625 20.015625 
Q 33.0625 21.96875 24.703125 23.78125 
L 21.578125 24.515625 
Q 13.234375 26.265625 9.515625 29.90625 
Q 5.8125 33.546875 5.8125 39.890625 
Q 5.8125 47.609375 11.28125 51.796875 
Q 16.75 56 26.8125 56 
Q 31.78125 56 36.171875 55.265625 
Q 40.578125 54.546875 44.28125 53.078125 
z
" id="DejaVuSans-115"/>
      <path d="M 30.609375 48.390625 
Q 23.390625 48.390625 19.1875 42.75 
Q 14.984375 37.109375 14.984375 27.296875 
Q 14.984375 17.484375 19.15625 11.84375 
Q 23.34375 6.203125 30.609375 6.203125 
Q 37.796875 6.203125 41.984375 11.859375 
Q 46.1875 17.53125 46.1875 27.296875 
Q 46.1875 37.015625 41.984375 42.703125 
Q 37.796875 48.390625 30.609375 48.390625 
z
M 30.609375 56 
Q 42.328125 56 49.015625 48.375 
Q 55.71875 40.765625 55.71875 27.296875 
Q 55.71875 13.875 49.015625 6.21875 
Q 42.328125 -1.421875 30.609375 -1.421875 
Q 18.84375 -1.421875 12.171875 6.21875 
Q 5.515625 13.875 5.515625 27.296875 
Q 5.515625 40.765625 12.171875 48.375 
Q 18.84375 56 30.609375 56 
z
" id="DejaVuSans-111"/>
      <path d="M 8.5 21.578125 
L 8.5 54.6875 
L 17.484375 54.6875 
L 17.484375 21.921875 
Q 17.484375 14.15625 20.5 10.265625 
Q 23.53125 6.390625 29.59375 6.390625 
Q 36.859375 6.390625 41.078125 11.03125 
Q 45.3125 15.671875 45.3125 23.6875 
L 45.3125 54.6875 
L 54.296875 54.6875 
L 54.296875 0 
L 45.3125 0 
L 45.3125 8.40625 
Q 42.046875 3.421875 37.71875 1 
Q 33.40625 -1.421875 27.6875 -1.421875 
Q 18.265625 -1.421875 13.375 4.4375 
Q 8.5 10.296875 8.5 21.578125 
z
M 31.109375 56 
z
" id="DejaVuSans-117"/>
      <path d="M 41.109375 46.296875 
Q 39.59375 47.171875 37.8125 47.578125 
Q 36.03125 48 33.890625 48 
Q 26.265625 48 22.1875 43.046875 
Q 18.109375 38.09375 18.109375 28.8125 
L 18.109375 0 
L 9.078125 0 
L 9.078125 54.6875 
L 18.109375 54.6875 
L 18.109375 46.1875 
Q 20.953125 51.171875 25.484375 53.578125 
Q 30.03125 56 36.53125 56 
Q 37.453125 56 38.578125 55.875 
Q 39.703125 55.765625 41.0625 55.515625 
z
" id="DejaVuSans-114"/>
      <path d="M 48.78125 52.59375 
L 48.78125 44.1875 
Q 44.96875 46.296875 41.140625 47.34375 
Q 37.3125 48.390625 33.40625 48.390625 
Q 24.65625 48.390625 19.8125 42.84375 
Q 14.984375 37.3125 14.984375 27.296875 
Q 14.984375 17.28125 19.8125 11.734375 
Q 24.65625 6.203125 33.40625 6.203125 
Q 37.3125 6.203125 41.140625 7.25 
Q 44.96875 8.296875 48.78125 10.40625 
L 48.78125 2.09375 
Q 45.015625 0.34375 40.984375 -0.53125 
Q 36.96875 -1.421875 32.421875 -1.421875 
Q 20.0625 -1.421875 12.78125 6.34375 
Q 5.515625 14.109375 5.515625 27.296875 
Q 5.515625 40.671875 12.859375 48.328125 
Q 20.21875 56 33.015625 56 
Q 37.15625 56 41.109375 55.140625 
Q 45.0625 54.296875 48.78125 52.59375 
z
" id="DejaVuSans-99"/>
      <path d="M 56.203125 29.59375 
L 56.203125 25.203125 
L 14.890625 25.203125 
Q 15.484375 15.921875 20.484375 11.0625 
Q 25.484375 6.203125 34.421875 6.203125 
Q 39.59375 6.203125 44.453125 7.46875 
Q 49.3125 8.734375 54.109375 11.28125 
L 54.109375 2.78125 
Q 49.265625 0.734375 44.1875 -0.34375 
Q 39.109375 -1.421875 33.890625 -1.421875 
Q 20.796875 -1.421875 13.15625 6.1875 
Q 5.515625 13.8125 5.515625 26.8125 
Q 5.515625 40.234375 12.765625 48.109375 
Q 20.015625 56 32.328125 56 
Q 43.359375 56 49.78125 48.890625 
Q 56.203125 41.796875 56.203125 29.59375 
z
M 47.21875 32.234375 
Q 47.125 39.59375 43.09375 43.984375 
Q 39.0625 48.390625 32.421875 48.390625 
Q 24.90625 48.390625 20.390625 44.140625 
Q 15.875 39.890625 15.1875 32.171875 
z
" id="DejaVuSans-101"/>
      <path d="M 11.71875 12.40625 
L 22.015625 12.40625 
L 22.015625 0 
L 11.71875 0 
z
M 11.71875 51.703125 
L 22.015625 51.703125 
L 22.015625 39.3125 
L 11.71875 39.3125 
z
" id="DejaVuSans-58"/>
      <path d="M 9.421875 54.6875 
L 18.40625 54.6875 
L 18.40625 0 
L 9.421875 0 
z
M 9.421875 75.984375 
L 18.40625 75.984375 
L 18.40625 64.59375 
L 9.421875 64.59375 
z
" id="DejaVuSans-105"/>
      <path d="M 54.890625 33.015625 
L 54.890625 0 
L 45.90625 0 
L 45.90625 32.71875 
Q 45.90625 40.484375 42.875 44.328125 
Q 39.84375 48.1875 33.796875 48.1875 
Q 26.515625 48.1875 22.3125 43.546875 
Q 18.109375 38.921875 18.109375 30.90625 
L 18.109375 0 
L 9.078125 0 
L 9.078125 54.6875 
L 18.109375 54.6875 
L 18.109375 46.1875 
Q 21.34375 51.125 25.703125 53.5625 
Q 30.078125 56 35.796875 56 
Q 45.21875 56 50.046875 50.171875 
Q 54.890625 44.34375 54.890625 33.015625 
z
" id="DejaVuSans-110"/>
      <path d="M 45.40625 46.390625 
L 45.40625 75.984375 
L 54.390625 75.984375 
L 54.390625 0 
L 45.40625 0 
L 45.40625 8.203125 
Q 42.578125 3.328125 38.25 0.953125 
Q 33.9375 -1.421875 27.875 -1.421875 
Q 17.96875 -1.421875 11.734375 6.484375 
Q 5.515625 14.40625 5.515625 27.296875 
Q 5.515625 40.1875 11.734375 48.09375 
Q 17.96875 56 27.875 56 
Q 33.9375 56 38.25 53.625 
Q 42.578125 51.265625 45.40625 46.390625 
z
M 14.796875 27.296875 
Q 14.796875 17.390625 18.875 11.75 
Q 22.953125 6.109375 30.078125 6.109375 
Q 37.203125 6.109375 41.296875 11.75 
Q 45.40625 17.390625 45.40625 27.296875 
Q 45.40625 37.203125 41.296875 42.84375 
Q 37.203125 48.484375 30.078125 48.484375 
Q 22.953125 48.484375 18.875 42.84375 
Q 14.796875 37.203125 14.796875 27.296875 
z
" id="DejaVuSans-100"/>
      <path d="M 9.078125 75.984375 
L 18.109375 75.984375 
L 18.109375 31.109375 
L 44.921875 54.6875 
L 56.390625 54.6875 
L 27.390625 29.109375 
L 57.625 0 
L 45.90625 0 
L 18.109375 26.703125 
L 18.109375 0 
L 9.078125 0 
z
" id="DejaVuSans-107"/>
     </defs>
     <use xlink:href="#DejaVuSans-68"/>
     <use x="77.001953" xlink:href="#DejaVuSans-97"/>
     <use x="138.28125" xlink:href="#DejaVuSans-116"/>
     <use x="177.490234" xlink:href="#DejaVuSans-97"/>
     <use x="238.769531" xlink:href="#DejaVuSans-32"/>
     <use x="270.556641" xlink:href="#DejaVuSans-115"/>
     <use x="322.65625" xlink:href="#DejaVuSans-111"/>
     <use x="383.837891" xlink:href="#DejaVuSans-117"/>
     <use x="447.216797" xlink:href="#DejaVuSans-114"/>
     <use x="486.080078" xlink:href="#DejaVuSans-99"/>
     <use x="541.060547" xlink:href="#DejaVuSans-101"/>
     <use x="602.583984" xlink:href="#DejaVuSans-58"/>
     <use x="636.275391" xlink:href="#DejaVuSans-32"/>
     <use x="668.0625" xlink:href="#DejaVuSans-99"/>
     <use x="723.042969" xlink:href="#DejaVuSans-111"/>
     <use x="784.224609" xlink:href="#DejaVuSans-105"/>
     <use x="812.007812" xlink:href="#DejaVuSans-110"/>
     <use x="875.386719" xlink:href="#DejaVuSans-100"/>
     <use x="938.863281" xlink:href="#DejaVuSans-101"/>
     <use x="1000.386719" xlink:href="#DejaVuSans-115"/>
     <use x="1052.486328" xlink:href="#DejaVuSans-107"/>
    </g>
   </g>
   <g id="legend_1">
    <g id="patch_7">
     <path d="M 359.473125 64.150125 
L 407.72 64.150125 
Q 409.72 64.150125 409.72 62.150125 
L 409.72 48.472 
Q 409.72 46.472 407.72 46.472 
L 359.473125 46.472 
Q 357.473125 46.472 357.473125 48.472 
L 357.473125 62.150125 
Q 357.473125 64.150125 359.473125 64.150125 
z
" style="fill:#ffffff;opacity:0.8;stroke:#cccccc;stroke-linejoin:miter;"/>
    </g>
    <g id="line2d_16">
     <path d="M 361.473125 54.570438 
L 381.473125 54.570438 
" style="fill:none;stroke:#ff6347;stroke-linecap:square;stroke-width:1.5;"/>
    </g>
    <g id="line2d_17"/>
    <g id="text_16">
     <!-- RSI -->
     <g transform="translate(389.473125 58.070438)scale(0.1 -0.1)">
      <defs>
       <path d="M 44.390625 34.1875 
Q 47.5625 33.109375 50.5625 29.59375 
Q 53.5625 26.078125 56.59375 19.921875 
L 66.609375 0 
L 56 0 
L 46.6875 18.703125 
Q 43.0625 26.03125 39.671875 28.421875 
Q 36.28125 30.8125 30.421875 30.8125 
L 19.671875 30.8125 
L 19.671875 0 
L 9.8125 0 
L 9.8125 72.90625 
L 32.078125 72.90625 
Q 44.578125 72.90625 50.734375 67.671875 
Q 56.890625 62.453125 56.890625 51.90625 
Q 56.890625 45.015625 53.6875 40.46875 
Q 50.484375 35.9375 44.390625 34.1875 
z
M 19.671875 64.796875 
L 19.671875 38.921875 
L 32.078125 38.921875 
Q 39.203125 38.921875 42.84375 42.21875 
Q 46.484375 45.515625 46.484375 51.90625 
Q 46.484375 58.296875 42.84375 61.546875 
Q 39.203125 64.796875 32.078125 64.796875 
z
" id="DejaVuSans-82"/>
       <path d="M 53.515625 70.515625 
L 53.515625 60.890625 
Q 47.90625 63.578125 42.921875 64.890625 
Q 37.9375 66.21875 33.296875 66.21875 
Q 25.25 66.21875 20.875 63.09375 
Q 16.5 59.96875 16.5 54.203125 
Q 16.5 49.359375 19.40625 46.890625 
Q 22.3125 44.4375 30.421875 42.921875 
L 36.375 41.703125 
Q 47.40625 39.59375 52.65625 34.296875 
Q 57.90625 29 57.90625 20.125 
Q 57.90625 9.515625 50.796875 4.046875 
Q 43.703125 -1.421875 29.984375 -1.421875 
Q 24.8125 -1.421875 18.96875 -0.25 
Q 13.140625 0.921875 6.890625 3.21875 
L 6.890625 13.375 
Q 12.890625 10.015625 18.65625 8.296875 
Q 24.421875 6.59375 29.984375 6.59375 
Q 38.421875 6.59375 43.015625 9.90625 
Q 47.609375 13.234375 47.609375 19.390625 
Q 47.609375 24.75 44.3125 27.78125 
Q 41.015625 30.8125 33.5 32.328125 
L 27.484375 33.5 
Q 16.453125 35.6875 11.515625 40.375 
Q 6.59375 45.0625 6.59375 53.421875 
Q 6.59375 63.09375 13.40625 68.65625 
Q 20.21875 74.21875 32.171875 74.21875 
Q 37.3125 74.21875 42.625 73.28125 
Q 47.953125 72.359375 53.515625 70.515625 
z
" id="DejaVuSans-83"/>
       <path d="M 9.8125 72.90625 
L 19.671875 72.90625 
L 19.671875 0 
L 9.8125 0 
z
" id="DejaVuSans-73"/>
      </defs>
      <use xlink:href="#DejaVuSans-82"/>
      <use x="69.482422" xlink:href="#DejaVuSans-83"/>
      <use x="132.958984" xlink:href="#DejaVuSans-73"/>
     </g>
    </g>
   </g>
  </g>
  <g id="text_17">
   <!-- RSI -->
   <g transform="translate(217.4025 19.0695)scale(0.16 -0.16)">
    <use xlink:href="#DejaVuSans-82"/>
    <use x="69.482422" xlink:href="#DejaVuSans-83"/>
    <use x="132.958984" xlink:href="#DejaVuSans-73"/>
   </g>
  </g>
 </g>
 <defs>
  <clipPath id="p7cda973c36">
   <rect height="266.112" width="357.12" x="57.6" y="41.472"/>
  </clipPath>
 </defs>
</svg>
