<?xml version="1.0" encoding="utf-8" standalone="no"?>
<!DOCTYPE svg PUBLIC "-//W3C//DTD SVG 1.1//EN"
  "http://www.w3.org/Graphics/SVG/1.1/DTD/svg11.dtd">
<!-- Created with matplotlib (https://matplotlib.org/) -->
<svg height="345.6pt" version="1.1" viewBox="0 0 460.8 345.6" width="460.8pt" xmlns="http://www.w3.org/2000/svg" xmlns:xlink="http://www.w3.org/1999/xlink">
 <metadata>
  <rdf:RDF xmlns:cc="http://creativecommons.org/ns#" xmlns:dc="http://purl.org/dc/elements/1.1/" xmlns:rdf="http://www.w3.org/1999/02/22-rdf-syntax-ns#">
   <cc:Work>
    <dc:type rdf:resource="http://purl.org/dc/dcmitype/StillImage"/>
    <dc:date>2021-02-14T20:13:18.783021</dc:date>
    <dc:format>image/svg+xml</dc:format>
    <dc:creator>
     <cc:Agent>
      <dc:title>Matplotlib v3.3.2, https://matplotlib.org/</dc:title>
     </cc:Agent>
    </dc:creator>
   </cc:Work>
  </rdf:RDF>
 </metadata>
 <defs>
  <style type="text/css">*{stroke-linecap:butt;stroke-linejoin:round;}</style>
 </defs>
 <g id="figure_1">
  <g id="patch_1">
   <path d="M 0 345.6 
L 460.8 345.6 
L 460.8 0 
L 0 0 
z
" style="fill:#ffffff;"/>
  </g>
  <g id="axes_1">
   <g id="patch_2">
    <path d="M 57.6 307.584 
L 414.72 307.584 
L 414.72 41.472 
L 57.6 41.472 
z
" style="fill:#ffffff;"/>
   </g>
   <g id="PolyCollection_1">
    <defs>
     <path d="M 73.832727 -219.118501 
L 73.832727 -115.631357 
L 74.624568 -115.631357 
L 75.416408 -115.631357 
L 76.208248 -115.631357 
L 77.000089 -115.631357 
L 77.791929 -115.631357 
L 78.583769 -115.631357 
L 79.37561 -115.631357 
L 80.16745 -115.631357 
L 80.95929 -115.631357 
L 81.751131 -115.631357 
L 82.542971 -115.631357 
L 83.334812 -115.631357 
L 84.126652 -115.631357 
L 84.918492 -115.631357 
L 85.710333 -115.631357 
L 86.502173 -115.631357 
L 87.294013 -115.631357 
L 88.085854 -115.631357 
L 88.877694 -115.631357 
L 89.669534 -115.631357 
L 90.461375 -115.631357 
L 91.253215 -115.631357 
L 92.045055 -115.631357 
L 92.836896 -115.631357 
L 93.628736 -115.631357 
L 94.420576 -115.631357 
L 95.212417 -115.631357 
L 96.004257 -115.631357 
L 96.796098 -115.631357 
L 97.587938 -115.631357 
L 98.379778 -115.631357 
L 99.171619 -115.631357 
L 99.963459 -115.631357 
L 100.755299 -115.631357 
L 101.54714 -115.631357 
L 102.33898 -115.631357 
L 103.13082 -115.631357 
L 103.922661 -115.631357 
L 104.714501 -115.631357 
L 105.506341 -115.631357 
L 106.298182 -115.631357 
L 107.090022 -115.631357 
L 107.881863 -115.631357 
L 108.673703 -115.631357 
L 109.465543 -115.631357 
L 110.257384 -115.631357 
L 111.049224 -115.631357 
L 111.841064 -115.631357 
L 112.632905 -115.631357 
L 113.424745 -115.631357 
L 114.216585 -115.631357 
L 115.008426 -115.631357 
L 115.800266 -115.631357 
L 116.592106 -115.631357 
L 117.383947 -115.631357 
L 118.175787 -115.631357 
L 118.967627 -115.631357 
L 119.759468 -115.631357 
L 120.551308 -115.631357 
L 121.343149 -115.631357 
L 122.134989 -115.631357 
L 122.926829 -115.631357 
L 123.71867 -115.631357 
L 124.51051 -115.631357 
L 125.30235 -115.631357 
L 126.094191 -115.631357 
L 126.886031 -115.631357 
L 127.677871 -115.631357 
L 128.469712 -115.631357 
L 129.261552 -115.631357 
L 130.053392 -115.631357 
L 130.845233 -115.631357 
L 131.637073 -115.631357 
L 132.428914 -115.631357 
L 133.220754 -115.631357 
L 134.012594 -115.631357 
L 134.804435 -115.631357 
L 135.596275 -115.631357 
L 136.388115 -115.631357 
L 137.179956 -115.631357 
L 137.971796 -115.631357 
L 138.763636 -115.631357 
L 139.555477 -115.631357 
L 140.347317 -115.631357 
L 141.139157 -115.631357 
L 141.930998 -115.631357 
L 142.722838 -115.631357 
L 143.514678 -115.631357 
L 144.306519 -115.631357 
L 145.098359 -115.631357 
L 145.8902 -115.631357 
L 146.68204 -115.631357 
L 147.47388 -115.631357 
L 148.265721 -115.631357 
L 149.057561 -115.631357 
L 149.849401 -115.631357 
L 150.641242 -115.631357 
L 151.433082 -115.631357 
L 152.224922 -115.631357 
L 153.016763 -115.631357 
L 153.808603 -115.631357 
L 154.600443 -115.631357 
L 155.392284 -115.631357 
L 156.184124 -115.631357 
L 156.975965 -115.631357 
L 157.767805 -115.631357 
L 158.559645 -115.631357 
L 159.351486 -115.631357 
L 160.143326 -115.631357 
L 160.935166 -115.631357 
L 161.727007 -115.631357 
L 162.518847 -115.631357 
L 163.310687 -115.631357 
L 164.102528 -115.631357 
L 164.894368 -115.631357 
L 165.686208 -115.631357 
L 166.478049 -115.631357 
L 167.269889 -115.631357 
L 168.061729 -115.631357 
L 168.85357 -115.631357 
L 169.64541 -115.631357 
L 170.437251 -115.631357 
L 171.229091 -115.631357 
L 172.020931 -115.631357 
L 172.812772 -115.631357 
L 173.604612 -115.631357 
L 174.396452 -115.631357 
L 175.188293 -115.631357 
L 175.980133 -115.631357 
L 176.771973 -115.631357 
L 177.563814 -115.631357 
L 178.355654 -115.631357 
L 179.147494 -115.631357 
L 179.939335 -115.631357 
L 180.731175 -115.631357 
L 181.523016 -115.631357 
L 182.314856 -115.631357 
L 183.106696 -115.631357 
L 183.898537 -115.631357 
L 184.690377 -115.631357 
L 185.482217 -115.631357 
L 186.274058 -115.631357 
L 187.065898 -115.631357 
L 187.857738 -115.631357 
L 188.649579 -115.631357 
L 189.441419 -115.631357 
L 190.233259 -115.631357 
L 191.0251 -115.631357 
L 191.81694 -115.631357 
L 192.60878 -115.631357 
L 193.400621 -115.631357 
L 194.192461 -115.631357 
L 194.984302 -115.631357 
L 195.776142 -115.631357 
L 196.567982 -115.631357 
L 197.359823 -115.631357 
L 198.151663 -115.631357 
L 198.943503 -115.631357 
L 199.735344 -115.631357 
L 200.527184 -115.631357 
L 201.319024 -115.631357 
L 202.110865 -115.631357 
L 202.902705 -115.631357 
L 203.694545 -115.631357 
L 204.486386 -115.631357 
L 205.278226 -115.631357 
L 206.070067 -115.631357 
L 206.861907 -115.631357 
L 207.653747 -115.631357 
L 208.445588 -115.631357 
L 209.237428 -115.631357 
L 210.029268 -115.631357 
L 210.821109 -115.631357 
L 211.612949 -115.631357 
L 212.404789 -115.631357 
L 213.19663 -115.631357 
L 213.98847 -115.631357 
L 214.78031 -115.631357 
L 215.572151 -115.631357 
L 216.363991 -115.631357 
L 217.155831 -115.631357 
L 217.947672 -115.631357 
L 218.739512 -115.631357 
L 219.531353 -115.631357 
L 220.323193 -115.631357 
L 221.115033 -115.631357 
L 221.906874 -115.631357 
L 222.698714 -115.631357 
L 223.490554 -115.631357 
L 224.282395 -115.631357 
L 225.074235 -115.631357 
L 225.866075 -115.631357 
L 226.657916 -115.631357 
L 227.449756 -115.631357 
L 228.241596 -115.631357 
L 229.033437 -115.631357 
L 229.825277 -115.631357 
L 230.617118 -115.631357 
L 231.408958 -115.631357 
L 232.200798 -115.631357 
L 232.992639 -115.631357 
L 233.784479 -115.631357 
L 234.576319 -115.631357 
L 235.36816 -115.631357 
L 236.16 -115.631357 
L 236.95184 -115.631357 
L 237.743681 -115.631357 
L 238.535521 -115.631357 
L 239.327361 -115.631357 
L 240.119202 -115.631357 
L 240.911042 -115.631357 
L 241.702882 -115.631357 
L 242.494723 -115.631357 
L 243.286563 -115.631357 
L 244.078404 -115.631357 
L 244.870244 -115.631357 
L 245.662084 -115.631357 
L 246.453925 -115.631357 
L 247.245765 -115.631357 
L 248.037605 -115.631357 
L 248.829446 -115.631357 
L 249.621286 -115.631357 
L 250.413126 -115.631357 
L 251.204967 -115.631357 
L 251.996807 -115.631357 
L 252.788647 -115.631357 
L 253.580488 -115.631357 
L 254.372328 -115.631357 
L 255.164169 -115.631357 
L 255.956009 -115.631357 
L 256.747849 -115.631357 
L 257.53969 -115.631357 
L 258.33153 -115.631357 
L 259.12337 -115.631357 
L 259.915211 -115.631357 
L 260.707051 -115.631357 
L 261.498891 -115.631357 
L 262.290732 -115.631357 
L 263.082572 -115.631357 
L 263.874412 -115.631357 
L 264.666253 -115.631357 
L 265.458093 -115.631357 
L 266.249933 -115.631357 
L 267.041774 -115.631357 
L 267.833614 -115.631357 
L 268.625455 -115.631357 
L 269.417295 -115.631357 
L 270.209135 -115.631357 
L 271.000976 -115.631357 
L 271.792816 -115.631357 
L 272.584656 -115.631357 
L 273.376497 -115.631357 
L 274.168337 -115.631357 
L 274.960177 -115.631357 
L 275.752018 -115.631357 
L 276.543858 -115.631357 
L 277.335698 -115.631357 
L 278.127539 -115.631357 
L 278.919379 -115.631357 
L 279.71122 -115.631357 
L 280.50306 -115.631357 
L 281.2949 -115.631357 
L 282.086741 -115.631357 
L 282.878581 -115.631357 
L 283.670421 -115.631357 
L 284.462262 -115.631357 
L 285.254102 -115.631357 
L 286.045942 -115.631357 
L 286.837783 -115.631357 
L 287.629623 -115.631357 
L 288.421463 -115.631357 
L 289.213304 -115.631357 
L 290.005144 -115.631357 
L 290.796984 -115.631357 
L 291.588825 -115.631357 
L 292.380665 -115.631357 
L 293.172506 -115.631357 
L 293.964346 -115.631357 
L 294.756186 -115.631357 
L 295.548027 -115.631357 
L 296.339867 -115.631357 
L 297.131707 -115.631357 
L 297.923548 -115.631357 
L 298.715388 -115.631357 
L 299.507228 -115.631357 
L 300.299069 -115.631357 
L 301.090909 -115.631357 
L 301.882749 -115.631357 
L 302.67459 -115.631357 
L 303.46643 -115.631357 
L 304.258271 -115.631357 
L 305.050111 -115.631357 
L 305.841951 -115.631357 
L 306.633792 -115.631357 
L 307.425632 -115.631357 
L 308.217472 -115.631357 
L 309.009313 -115.631357 
L 309.801153 -115.631357 
L 310.592993 -115.631357 
L 311.384834 -115.631357 
L 312.176674 -115.631357 
L 312.968514 -115.631357 
L 313.760355 -115.631357 
L 314.552195 -115.631357 
L 315.344035 -115.631357 
L 316.135876 -115.631357 
L 316.927716 -115.631357 
L 317.719557 -115.631357 
L 318.511397 -115.631357 
L 319.303237 -115.631357 
L 320.095078 -115.631357 
L 320.886918 -115.631357 
L 321.678758 -115.631357 
L 322.470599 -115.631357 
L 323.262439 -115.631357 
L 324.054279 -115.631357 
L 324.84612 -115.631357 
L 325.63796 -115.631357 
L 326.4298 -115.631357 
L 327.221641 -115.631357 
L 328.013481 -115.631357 
L 328.805322 -115.631357 
L 329.597162 -115.631357 
L 330.389002 -115.631357 
L 331.180843 -115.631357 
L 331.972683 -115.631357 
L 332.764523 -115.631357 
L 333.556364 -115.631357 
L 334.348204 -115.631357 
L 335.140044 -115.631357 
L 335.931885 -115.631357 
L 336.723725 -115.631357 
L 337.515565 -115.631357 
L 338.307406 -115.631357 
L 339.099246 -115.631357 
L 339.891086 -115.631357 
L 340.682927 -115.631357 
L 341.474767 -115.631357 
L 342.266608 -115.631357 
L 343.058448 -115.631357 
L 343.850288 -115.631357 
L 344.642129 -115.631357 
L 345.433969 -115.631357 
L 346.225809 -115.631357 
L 347.01765 -115.631357 
L 347.80949 -115.631357 
L 348.60133 -115.631357 
L 349.393171 -115.631357 
L 350.185011 -115.631357 
L 350.976851 -115.631357 
L 351.768692 -115.631357 
L 352.560532 -115.631357 
L 353.352373 -115.631357 
L 354.144213 -115.631357 
L 354.936053 -115.631357 
L 355.727894 -115.631357 
L 356.519734 -115.631357 
L 357.311574 -115.631357 
L 358.103415 -115.631357 
L 358.895255 -115.631357 
L 359.687095 -115.631357 
L 360.478936 -115.631357 
L 361.270776 -115.631357 
L 362.062616 -115.631357 
L 362.854457 -115.631357 
L 363.646297 -115.631357 
L 364.438137 -115.631357 
L 365.229978 -115.631357 
L 366.021818 -115.631357 
L 366.813659 -115.631357 
L 367.605499 -115.631357 
L 368.397339 -115.631357 
L 369.18918 -115.631357 
L 369.98102 -115.631357 
L 370.77286 -115.631357 
L 371.564701 -115.631357 
L 372.356541 -115.631357 
L 373.148381 -115.631357 
L 373.940222 -115.631357 
L 374.732062 -115.631357 
L 375.523902 -115.631357 
L 376.315743 -115.631357 
L 377.107583 -115.631357 
L 377.899424 -115.631357 
L 378.691264 -115.631357 
L 379.483104 -115.631357 
L 380.274945 -115.631357 
L 381.066785 -115.631357 
L 381.858625 -115.631357 
L 382.650466 -115.631357 
L 383.442306 -115.631357 
L 384.234146 -115.631357 
L 385.025987 -115.631357 
L 385.817827 -115.631357 
L 386.609667 -115.631357 
L 387.401508 -115.631357 
L 388.193348 -115.631357 
L 388.985188 -115.631357 
L 389.777029 -115.631357 
L 390.568869 -115.631357 
L 391.36071 -115.631357 
L 392.15255 -115.631357 
L 392.94439 -115.631357 
L 393.736231 -115.631357 
L 394.528071 -115.631357 
L 395.319911 -115.631357 
L 396.111752 -115.631357 
L 396.903592 -115.631357 
L 397.695432 -115.631357 
L 398.487273 -115.631357 
L 398.487273 -219.118501 
L 398.487273 -219.118501 
L 397.695432 -219.118501 
L 396.903592 -219.118501 
L 396.111752 -219.118501 
L 395.319911 -219.118501 
L 394.528071 -219.118501 
L 393.736231 -219.118501 
L 392.94439 -219.118501 
L 392.15255 -219.118501 
L 391.36071 -219.118501 
L 390.568869 -219.118501 
L 389.777029 -219.118501 
L 388.985188 -219.118501 
L 388.193348 -219.118501 
L 387.401508 -219.118501 
L 386.609667 -219.118501 
L 385.817827 -219.118501 
L 385.025987 -219.118501 
L 384.234146 -219.118501 
L 383.442306 -219.118501 
L 382.650466 -219.118501 
L 381.858625 -219.118501 
L 381.066785 -219.118501 
L 380.274945 -219.118501 
L 379.483104 -219.118501 
L 378.691264 -219.118501 
L 377.899424 -219.118501 
L 377.107583 -219.118501 
L 376.315743 -219.118501 
L 375.523902 -219.118501 
L 374.732062 -219.118501 
L 373.940222 -219.118501 
L 373.148381 -219.118501 
L 372.356541 -219.118501 
L 371.564701 -219.118501 
L 370.77286 -219.118501 
L 369.98102 -219.118501 
L 369.18918 -219.118501 
L 368.397339 -219.118501 
L 367.605499 -219.118501 
L 366.813659 -219.118501 
L 366.021818 -219.118501 
L 365.229978 -219.118501 
L 364.438137 -219.118501 
L 363.646297 -219.118501 
L 362.854457 -219.118501 
L 362.062616 -219.118501 
L 361.270776 -219.118501 
L 360.478936 -219.118501 
L 359.687095 -219.118501 
L 358.895255 -219.118501 
L 358.103415 -219.118501 
L 357.311574 -219.118501 
L 356.519734 -219.118501 
L 355.727894 -219.118501 
L 354.936053 -219.118501 
L 354.144213 -219.118501 
L 353.352373 -219.118501 
L 352.560532 -219.118501 
L 351.768692 -219.118501 
L 350.976851 -219.118501 
L 350.185011 -219.118501 
L 349.393171 -219.118501 
L 348.60133 -219.118501 
L 347.80949 -219.118501 
L 347.01765 -219.118501 
L 346.225809 -219.118501 
L 345.433969 -219.118501 
L 344.642129 -219.118501 
L 343.850288 -219.118501 
L 343.058448 -219.118501 
L 342.266608 -219.118501 
L 341.474767 -219.118501 
L 340.682927 -219.118501 
L 339.891086 -219.118501 
L 339.099246 -219.118501 
L 338.307406 -219.118501 
L 337.515565 -219.118501 
L 336.723725 -219.118501 
L 335.931885 -219.118501 
L 335.140044 -219.118501 
L 334.348204 -219.118501 
L 333.556364 -219.118501 
L 332.764523 -219.118501 
L 331.972683 -219.118501 
L 331.180843 -219.118501 
L 330.389002 -219.118501 
L 329.597162 -219.118501 
L 328.805322 -219.118501 
L 328.013481 -219.118501 
L 327.221641 -219.118501 
L 326.4298 -219.118501 
L 325.63796 -219.118501 
L 324.84612 -219.118501 
L 324.054279 -219.118501 
L 323.262439 -219.118501 
L 322.470599 -219.118501 
L 321.678758 -219.118501 
L 320.886918 -219.118501 
L 320.095078 -219.118501 
L 319.303237 -219.118501 
L 318.511397 -219.118501 
L 317.719557 -219.118501 
L 316.927716 -219.118501 
L 316.135876 -219.118501 
L 315.344035 -219.118501 
L 314.552195 -219.118501 
L 313.760355 -219.118501 
L 312.968514 -219.118501 
L 312.176674 -219.118501 
L 311.384834 -219.118501 
L 310.592993 -219.118501 
L 309.801153 -219.118501 
L 309.009313 -219.118501 
L 308.217472 -219.118501 
L 307.425632 -219.118501 
L 306.633792 -219.118501 
L 305.841951 -219.118501 
L 305.050111 -219.118501 
L 304.258271 -219.118501 
L 303.46643 -219.118501 
L 302.67459 -219.118501 
L 301.882749 -219.118501 
L 301.090909 -219.118501 
L 300.299069 -219.118501 
L 299.507228 -219.118501 
L 298.715388 -219.118501 
L 297.923548 -219.118501 
L 297.131707 -219.118501 
L 296.339867 -219.118501 
L 295.548027 -219.118501 
L 294.756186 -219.118501 
L 293.964346 -219.118501 
L 293.172506 -219.118501 
L 292.380665 -219.118501 
L 291.588825 -219.118501 
L 290.796984 -219.118501 
L 290.005144 -219.118501 
L 289.213304 -219.118501 
L 288.421463 -219.118501 
L 287.629623 -219.118501 
L 286.837783 -219.118501 
L 286.045942 -219.118501 
L 285.254102 -219.118501 
L 284.462262 -219.118501 
L 283.670421 -219.118501 
L 282.878581 -219.118501 
L 282.086741 -219.118501 
L 281.2949 -219.118501 
L 280.50306 -219.118501 
L 279.71122 -219.118501 
L 278.919379 -219.118501 
L 278.127539 -219.118501 
L 277.335698 -219.118501 
L 276.543858 -219.118501 
L 275.752018 -219.118501 
L 274.960177 -219.118501 
L 274.168337 -219.118501 
L 273.376497 -219.118501 
L 272.584656 -219.118501 
L 271.792816 -219.118501 
L 271.000976 -219.118501 
L 270.209135 -219.118501 
L 269.417295 -219.118501 
L 268.625455 -219.118501 
L 267.833614 -219.118501 
L 267.041774 -219.118501 
L 266.249933 -219.118501 
L 265.458093 -219.118501 
L 264.666253 -219.118501 
L 263.874412 -219.118501 
L 263.082572 -219.118501 
L 262.290732 -219.118501 
L 261.498891 -219.118501 
L 260.707051 -219.118501 
L 259.915211 -219.118501 
L 259.12337 -219.118501 
L 258.33153 -219.118501 
L 257.53969 -219.118501 
L 256.747849 -219.118501 
L 255.956009 -219.118501 
L 255.164169 -219.118501 
L 254.372328 -219.118501 
L 253.580488 -219.118501 
L 252.788647 -219.118501 
L 251.996807 -219.118501 
L 251.204967 -219.118501 
L 250.413126 -219.118501 
L 249.621286 -219.118501 
L 248.829446 -219.118501 
L 248.037605 -219.118501 
L 247.245765 -219.118501 
L 246.453925 -219.118501 
L 245.662084 -219.118501 
L 244.870244 -219.118501 
L 244.078404 -219.118501 
L 243.286563 -219.118501 
L 242.494723 -219.118501 
L 241.702882 -219.118501 
L 240.911042 -219.118501 
L 240.119202 -219.118501 
L 239.327361 -219.118501 
L 238.535521 -219.118501 
L 237.743681 -219.118501 
L 236.95184 -219.118501 
L 236.16 -219.118501 
L 235.36816 -219.118501 
L 234.576319 -219.118501 
L 233.784479 -219.118501 
L 232.992639 -219.118501 
L 232.200798 -219.118501 
L 231.408958 -219.118501 
L 230.617118 -219.118501 
L 229.825277 -219.118501 
L 229.033437 -219.118501 
L 228.241596 -219.118501 
L 227.449756 -219.118501 
L 226.657916 -219.118501 
L 225.866075 -219.118501 
L 225.074235 -219.118501 
L 224.282395 -219.118501 
L 223.490554 -219.118501 
L 222.698714 -219.118501 
L 221.906874 -219.118501 
L 221.115033 -219.118501 
L 220.323193 -219.118501 
L 219.531353 -219.118501 
L 218.739512 -219.118501 
L 217.947672 -219.118501 
L 217.155831 -219.118501 
L 216.363991 -219.118501 
L 215.572151 -219.118501 
L 214.78031 -219.118501 
L 213.98847 -219.118501 
L 213.19663 -219.118501 
L 212.404789 -219.118501 
L 211.612949 -219.118501 
L 210.821109 -219.118501 
L 210.029268 -219.118501 
L 209.237428 -219.118501 
L 208.445588 -219.118501 
L 207.653747 -219.118501 
L 206.861907 -219.118501 
L 206.070067 -219.118501 
L 205.278226 -219.118501 
L 204.486386 -219.118501 
L 203.694545 -219.118501 
L 202.902705 -219.118501 
L 202.110865 -219.118501 
L 201.319024 -219.118501 
L 200.527184 -219.118501 
L 199.735344 -219.118501 
L 198.943503 -219.118501 
L 198.151663 -219.118501 
L 197.359823 -219.118501 
L 196.567982 -219.118501 
L 195.776142 -219.118501 
L 194.984302 -219.118501 
L 194.192461 -219.118501 
L 193.400621 -219.118501 
L 192.60878 -219.118501 
L 191.81694 -219.118501 
L 191.0251 -219.118501 
L 190.233259 -219.118501 
L 189.441419 -219.118501 
L 188.649579 -219.118501 
L 187.857738 -219.118501 
L 187.065898 -219.118501 
L 186.274058 -219.118501 
L 185.482217 -219.118501 
L 184.690377 -219.118501 
L 183.898537 -219.118501 
L 183.106696 -219.118501 
L 182.314856 -219.118501 
L 181.523016 -219.118501 
L 180.731175 -219.118501 
L 179.939335 -219.118501 
L 179.147494 -219.118501 
L 178.355654 -219.118501 
L 177.563814 -219.118501 
L 176.771973 -219.118501 
L 175.980133 -219.118501 
L 175.188293 -219.118501 
L 174.396452 -219.118501 
L 173.604612 -219.118501 
L 172.812772 -219.118501 
L 172.020931 -219.118501 
L 171.229091 -219.118501 
L 170.437251 -219.118501 
L 169.64541 -219.118501 
L 168.85357 -219.118501 
L 168.061729 -219.118501 
L 167.269889 -219.118501 
L 166.478049 -219.118501 
L 165.686208 -219.118501 
L 164.894368 -219.118501 
L 164.102528 -219.118501 
L 163.310687 -219.118501 
L 162.518847 -219.118501 
L 161.727007 -219.118501 
L 160.935166 -219.118501 
L 160.143326 -219.118501 
L 159.351486 -219.118501 
L 158.559645 -219.118501 
L 157.767805 -219.118501 
L 156.975965 -219.118501 
L 156.184124 -219.118501 
L 155.392284 -219.118501 
L 154.600443 -219.118501 
L 153.808603 -219.118501 
L 153.016763 -219.118501 
L 152.224922 -219.118501 
L 151.433082 -219.118501 
L 150.641242 -219.118501 
L 149.849401 -219.118501 
L 149.057561 -219.118501 
L 148.265721 -219.118501 
L 147.47388 -219.118501 
L 146.68204 -219.118501 
L 145.8902 -219.118501 
L 145.098359 -219.118501 
L 144.306519 -219.118501 
L 143.514678 -219.118501 
L 142.722838 -219.118501 
L 141.930998 -219.118501 
L 141.139157 -219.118501 
L 140.347317 -219.118501 
L 139.555477 -219.118501 
L 138.763636 -219.118501 
L 137.971796 -219.118501 
L 137.179956 -219.118501 
L 136.388115 -219.118501 
L 135.596275 -219.118501 
L 134.804435 -219.118501 
L 134.012594 -219.118501 
L 133.220754 -219.118501 
L 132.428914 -219.118501 
L 131.637073 -219.118501 
L 130.845233 -219.118501 
L 130.053392 -219.118501 
L 129.261552 -219.118501 
L 128.469712 -219.118501 
L 127.677871 -219.118501 
L 126.886031 -219.118501 
L 126.094191 -219.118501 
L 125.30235 -219.118501 
L 124.51051 -219.118501 
L 123.71867 -219.118501 
L 122.926829 -219.118501 
L 122.134989 -219.118501 
L 121.343149 -219.118501 
L 120.551308 -219.118501 
L 119.759468 -219.118501 
L 118.967627 -219.118501 
L 118.175787 -219.118501 
L 117.383947 -219.118501 
L 116.592106 -219.118501 
L 115.800266 -219.118501 
L 115.008426 -219.118501 
L 114.216585 -219.118501 
L 113.424745 -219.118501 
L 112.632905 -219.118501 
L 111.841064 -219.118501 
L 111.049224 -219.118501 
L 110.257384 -219.118501 
L 109.465543 -219.118501 
L 108.673703 -219.118501 
L 107.881863 -219.118501 
L 107.090022 -219.118501 
L 106.298182 -219.118501 
L 105.506341 -219.118501 
L 104.714501 -219.118501 
L 103.922661 -219.118501 
L 103.13082 -219.118501 
L 102.33898 -219.118501 
L 101.54714 -219.118501 
L 100.755299 -219.118501 
L 99.963459 -219.118501 
L 99.171619 -219.118501 
L 98.379778 -219.118501 
L 97.587938 -219.118501 
L 96.796098 -219.118501 
L 96.004257 -219.118501 
L 95.212417 -219.118501 
L 94.420576 -219.118501 
L 93.628736 -219.118501 
L 92.836896 -219.118501 
L 92.045055 -219.118501 
L 91.253215 -219.118501 
L 90.461375 -219.118501 
L 89.669534 -219.118501 
L 88.877694 -219.118501 
L 88.085854 -219.118501 
L 87.294013 -219.118501 
L 86.502173 -219.118501 
L 85.710333 -219.118501 
L 84.918492 -219.118501 
L 84.126652 -219.118501 
L 83.334812 -219.118501 
L 82.542971 -219.118501 
L 81.751131 -219.118501 
L 80.95929 -219.118501 
L 80.16745 -219.118501 
L 79.37561 -219.118501 
L 78.583769 -219.118501 
L 77.791929 -219.118501 
L 77.000089 -219.118501 
L 76.208248 -219.118501 
L 75.416408 -219.118501 
L 74.624568 -219.118501 
L 73.832727 -219.118501 
z
" id="m4384fcd19f" style="stroke:#4b0082;stroke-opacity:0.3;"/>
    </defs>
    <g clip-path="url(#pf05f71581f)">
     <use style="fill:#4b0082;fill-opacity:0.3;stroke:#4b0082;stroke-opacity:0.3;" x="0" xlink:href="#m4384fcd19f" y="345.6"/>
    </g>
   </g>
   <g id="matplotlib.axis_1">
    <g id="xtick_1">
     <g id="line2d_1">
      <defs>
       <path d="M 0 0 
L 0 3.5 
" id="ma3aa89928f" style="stroke:#000000;stroke-width:0.8;"/>
      </defs>
      <g>
       <use style="stroke:#000000;stroke-width:0.8;" x="73.832727" xlink:href="#ma3aa89928f" y="307.584"/>
      </g>
     </g>
     <g id="text_1">
      <!-- 2020-01 -->
      <g transform="translate(52.941321 322.182437)scale(0.1 -0.1)">
       <defs>
        <path d="M 19.1875 8.296875 
L 53.609375 8.296875 
L 53.609375 0 
L 7.328125 0 
L 7.328125 8.296875 
Q 12.9375 14.109375 22.625 23.890625 
Q 32.328125 33.6875 34.8125 36.53125 
Q 39.546875 41.84375 41.421875 45.53125 
Q 43.3125 49.21875 43.3125 52.78125 
Q 43.3125 58.59375 39.234375 62.25 
Q 35.15625 65.921875 28.609375 65.921875 
Q 23.96875 65.921875 18.8125 64.3125 
Q 13.671875 62.703125 7.8125 59.421875 
L 7.8125 69.390625 
Q 13.765625 71.78125 18.9375 73 
Q 24.125 74.21875 28.421875 74.21875 
Q 39.75 74.21875 46.484375 68.546875 
Q 53.21875 62.890625 53.21875 53.421875 
Q 53.21875 48.921875 51.53125 44.890625 
Q 49.859375 40.875 45.40625 35.40625 
Q 44.1875 33.984375 37.640625 27.21875 
Q 31.109375 20.453125 19.1875 8.296875 
z
" id="DejaVuSans-50"/>
        <path d="M 31.78125 66.40625 
Q 24.171875 66.40625 20.328125 58.90625 
Q 16.5 51.421875 16.5 36.375 
Q 16.5 21.390625 20.328125 13.890625 
Q 24.171875 6.390625 31.78125 6.390625 
Q 39.453125 6.390625 43.28125 13.890625 
Q 47.125 21.390625 47.125 36.375 
Q 47.125 51.421875 43.28125 58.90625 
Q 39.453125 66.40625 31.78125 66.40625 
z
M 31.78125 74.21875 
Q 44.046875 74.21875 50.515625 64.515625 
Q 56.984375 54.828125 56.984375 36.375 
Q 56.984375 17.96875 50.515625 8.265625 
Q 44.046875 -1.421875 31.78125 -1.421875 
Q 19.53125 -1.421875 13.0625 8.265625 
Q 6.59375 17.96875 6.59375 36.375 
Q 6.59375 54.828125 13.0625 64.515625 
Q 19.53125 74.21875 31.78125 74.21875 
z
" id="DejaVuSans-48"/>
        <path d="M 4.890625 31.390625 
L 31.203125 31.390625 
L 31.203125 23.390625 
L 4.890625 23.390625 
z
" id="DejaVuSans-45"/>
        <path d="M 12.40625 8.296875 
L 28.515625 8.296875 
L 28.515625 63.921875 
L 10.984375 60.40625 
L 10.984375 69.390625 
L 28.421875 72.90625 
L 38.28125 72.90625 
L 38.28125 8.296875 
L 54.390625 8.296875 
L 54.390625 0 
L 12.40625 0 
z
" id="DejaVuSans-49"/>
       </defs>
       <use xlink:href="#DejaVuSans-50"/>
       <use x="63.623047" xlink:href="#DejaVuSans-48"/>
       <use x="127.246094" xlink:href="#DejaVuSans-50"/>
       <use x="190.869141" xlink:href="#DejaVuSans-48"/>
       <use x="254.492188" xlink:href="#DejaVuSans-45"/>
       <use x="290.576172" xlink:href="#DejaVuSans-48"/>
       <use x="354.199219" xlink:href="#DejaVuSans-49"/>
      </g>
     </g>
    </g>
    <g id="xtick_2">
     <g id="line2d_2">
      <g>
       <use style="stroke:#000000;stroke-width:0.8;" x="121.343149" xlink:href="#ma3aa89928f" y="307.584"/>
      </g>
     </g>
     <g id="text_2">
      <!-- 2020-03 -->
      <g transform="translate(100.451742 322.182437)scale(0.1 -0.1)">
       <defs>
        <path d="M 40.578125 39.3125 
Q 47.65625 37.796875 51.625 33 
Q 55.609375 28.21875 55.609375 21.1875 
Q 55.609375 10.40625 48.1875 4.484375 
Q 40.765625 -1.421875 27.09375 -1.421875 
Q 22.515625 -1.421875 17.65625 -0.515625 
Q 12.796875 0.390625 7.625 2.203125 
L 7.625 11.71875 
Q 11.71875 9.328125 16.59375 8.109375 
Q 21.484375 6.890625 26.8125 6.890625 
Q 36.078125 6.890625 40.9375 10.546875 
Q 45.796875 14.203125 45.796875 21.1875 
Q 45.796875 27.640625 41.28125 31.265625 
Q 36.765625 34.90625 28.71875 34.90625 
L 20.21875 34.90625 
L 20.21875 43.015625 
L 29.109375 43.015625 
Q 36.375 43.015625 40.234375 45.921875 
Q 44.09375 48.828125 44.09375 54.296875 
Q 44.09375 59.90625 40.109375 62.90625 
Q 36.140625 65.921875 28.71875 65.921875 
Q 24.65625 65.921875 20.015625 65.03125 
Q 15.375 64.15625 9.8125 62.3125 
L 9.8125 71.09375 
Q 15.4375 72.65625 20.34375 73.4375 
Q 25.25 74.21875 29.59375 74.21875 
Q 40.828125 74.21875 47.359375 69.109375 
Q 53.90625 64.015625 53.90625 55.328125 
Q 53.90625 49.265625 50.4375 45.09375 
Q 46.96875 40.921875 40.578125 39.3125 
z
" id="DejaVuSans-51"/>
       </defs>
       <use xlink:href="#DejaVuSans-50"/>
       <use x="63.623047" xlink:href="#DejaVuSans-48"/>
       <use x="127.246094" xlink:href="#DejaVuSans-50"/>
       <use x="190.869141" xlink:href="#DejaVuSans-48"/>
       <use x="254.492188" xlink:href="#DejaVuSans-45"/>
       <use x="290.576172" xlink:href="#DejaVuSans-48"/>
       <use x="354.199219" xlink:href="#DejaVuSans-51"/>
      </g>
     </g>
    </g>
    <g id="xtick_3">
     <g id="line2d_3">
      <g>
       <use style="stroke:#000000;stroke-width:0.8;" x="169.64541" xlink:href="#ma3aa89928f" y="307.584"/>
      </g>
     </g>
     <g id="text_3">
      <!-- 2020-05 -->
      <g transform="translate(148.754004 322.182437)scale(0.1 -0.1)">
       <defs>
        <path d="M 10.796875 72.90625 
L 49.515625 72.90625 
L 49.515625 64.59375 
L 19.828125 64.59375 
L 19.828125 46.734375 
Q 21.96875 47.46875 24.109375 47.828125 
Q 26.265625 48.1875 28.421875 48.1875 
Q 40.625 48.1875 47.75 41.5 
Q 54.890625 34.8125 54.890625 23.390625 
Q 54.890625 11.625 47.5625 5.09375 
Q 40.234375 -1.421875 26.90625 -1.421875 
Q 22.3125 -1.421875 17.546875 -0.640625 
Q 12.796875 0.140625 7.71875 1.703125 
L 7.71875 11.625 
Q 12.109375 9.234375 16.796875 8.0625 
Q 21.484375 6.890625 26.703125 6.890625 
Q 35.15625 6.890625 40.078125 11.328125 
Q 45.015625 15.765625 45.015625 23.390625 
Q 45.015625 31 40.078125 35.4375 
Q 35.15625 39.890625 26.703125 39.890625 
Q 22.75 39.890625 18.8125 39.015625 
Q 14.890625 38.140625 10.796875 36.28125 
z
" id="DejaVuSans-53"/>
       </defs>
       <use xlink:href="#DejaVuSans-50"/>
       <use x="63.623047" xlink:href="#DejaVuSans-48"/>
       <use x="127.246094" xlink:href="#DejaVuSans-50"/>
       <use x="190.869141" xlink:href="#DejaVuSans-48"/>
       <use x="254.492188" xlink:href="#DejaVuSans-45"/>
       <use x="290.576172" xlink:href="#DejaVuSans-48"/>
       <use x="354.199219" xlink:href="#DejaVuSans-53"/>
      </g>
     </g>
    </g>
    <g id="xtick_4">
     <g id="line2d_4">
      <g>
       <use style="stroke:#000000;stroke-width:0.8;" x="217.947672" xlink:href="#ma3aa89928f" y="307.584"/>
      </g>
     </g>
     <g id="text_4">
      <!-- 2020-07 -->
      <g transform="translate(197.056266 322.182437)scale(0.1 -0.1)">
       <defs>
        <path d="M 8.203125 72.90625 
L 55.078125 72.90625 
L 55.078125 68.703125 
L 28.609375 0 
L 18.3125 0 
L 43.21875 64.59375 
L 8.203125 64.59375 
z
" id="DejaVuSans-55"/>
       </defs>
       <use xlink:href="#DejaVuSans-50"/>
       <use x="63.623047" xlink:href="#DejaVuSans-48"/>
       <use x="127.246094" xlink:href="#DejaVuSans-50"/>
       <use x="190.869141" xlink:href="#DejaVuSans-48"/>
       <use x="254.492188" xlink:href="#DejaVuSans-45"/>
       <use x="290.576172" xlink:href="#DejaVuSans-48"/>
       <use x="354.199219" xlink:href="#DejaVuSans-55"/>
      </g>
     </g>
    </g>
    <g id="xtick_5">
     <g id="line2d_5">
      <g>
       <use style="stroke:#000000;stroke-width:0.8;" x="267.041774" xlink:href="#ma3aa89928f" y="307.584"/>
      </g>
     </g>
     <g id="text_5">
      <!-- 2020-09 -->
      <g transform="translate(246.150368 322.182437)scale(0.1 -0.1)">
       <defs>
        <path d="M 10.984375 1.515625 
L 10.984375 10.5 
Q 14.703125 8.734375 18.5 7.8125 
Q 22.3125 6.890625 25.984375 6.890625 
Q 35.75 6.890625 40.890625 13.453125 
Q 46.046875 20.015625 46.78125 33.40625 
Q 43.953125 29.203125 39.59375 26.953125 
Q 35.25 24.703125 29.984375 24.703125 
Q 19.046875 24.703125 12.671875 31.3125 
Q 6.296875 37.9375 6.296875 49.421875 
Q 6.296875 60.640625 12.9375 67.421875 
Q 19.578125 74.21875 30.609375 74.21875 
Q 43.265625 74.21875 49.921875 64.515625 
Q 56.59375 54.828125 56.59375 36.375 
Q 56.59375 19.140625 48.40625 8.859375 
Q 40.234375 -1.421875 26.421875 -1.421875 
Q 22.703125 -1.421875 18.890625 -0.6875 
Q 15.09375 0.046875 10.984375 1.515625 
z
M 30.609375 32.421875 
Q 37.25 32.421875 41.125 36.953125 
Q 45.015625 41.5 45.015625 49.421875 
Q 45.015625 57.28125 41.125 61.84375 
Q 37.25 66.40625 30.609375 66.40625 
Q 23.96875 66.40625 20.09375 61.84375 
Q 16.21875 57.28125 16.21875 49.421875 
Q 16.21875 41.5 20.09375 36.953125 
Q 23.96875 32.421875 30.609375 32.421875 
z
" id="DejaVuSans-57"/>
       </defs>
       <use xlink:href="#DejaVuSans-50"/>
       <use x="63.623047" xlink:href="#DejaVuSans-48"/>
       <use x="127.246094" xlink:href="#DejaVuSans-50"/>
       <use x="190.869141" xlink:href="#DejaVuSans-48"/>
       <use x="254.492188" xlink:href="#DejaVuSans-45"/>
       <use x="290.576172" xlink:href="#DejaVuSans-48"/>
       <use x="354.199219" xlink:href="#DejaVuSans-57"/>
      </g>
     </g>
    </g>
    <g id="xtick_6">
     <g id="line2d_6">
      <g>
       <use style="stroke:#000000;stroke-width:0.8;" x="315.344035" xlink:href="#ma3aa89928f" y="307.584"/>
      </g>
     </g>
     <g id="text_6">
      <!-- 2020-11 -->
      <g transform="translate(294.452629 322.182437)scale(0.1 -0.1)">
       <use xlink:href="#DejaVuSans-50"/>
       <use x="63.623047" xlink:href="#DejaVuSans-48"/>
       <use x="127.246094" xlink:href="#DejaVuSans-50"/>
       <use x="190.869141" xlink:href="#DejaVuSans-48"/>
       <use x="254.492188" xlink:href="#DejaVuSans-45"/>
       <use x="290.576172" xlink:href="#DejaVuSans-49"/>
       <use x="354.199219" xlink:href="#DejaVuSans-49"/>
      </g>
     </g>
    </g>
    <g id="xtick_7">
     <g id="line2d_7">
      <g>
       <use style="stroke:#000000;stroke-width:0.8;" x="363.646297" xlink:href="#ma3aa89928f" y="307.584"/>
      </g>
     </g>
     <g id="text_7">
      <!-- 2021-01 -->
      <g transform="translate(342.754891 322.182437)scale(0.1 -0.1)">
       <use xlink:href="#DejaVuSans-50"/>
       <use x="63.623047" xlink:href="#DejaVuSans-48"/>
       <use x="127.246094" xlink:href="#DejaVuSans-50"/>
       <use x="190.869141" xlink:href="#DejaVuSans-49"/>
       <use x="254.492188" xlink:href="#DejaVuSans-45"/>
       <use x="290.576172" xlink:href="#DejaVuSans-48"/>
       <use x="354.199219" xlink:href="#DejaVuSans-49"/>
      </g>
     </g>
    </g>
    <g id="xtick_8">
     <g id="line2d_8">
      <g>
       <use style="stroke:#000000;stroke-width:0.8;" x="410.364878" xlink:href="#ma3aa89928f" y="307.584"/>
      </g>
     </g>
     <g id="text_8">
      <!-- 2021-03 -->
      <g transform="translate(389.473472 322.182437)scale(0.1 -0.1)">
       <use xlink:href="#DejaVuSans-50"/>
       <use x="63.623047" xlink:href="#DejaVuSans-48"/>
       <use x="127.246094" xlink:href="#DejaVuSans-50"/>
       <use x="190.869141" xlink:href="#DejaVuSans-49"/>
       <use x="254.492188" xlink:href="#DejaVuSans-45"/>
       <use x="290.576172" xlink:href="#DejaVuSans-48"/>
       <use x="354.199219" xlink:href="#DejaVuSans-51"/>
      </g>
     </g>
    </g>
   </g>
   <g id="matplotlib.axis_2">
    <g id="ytick_1">
     <g id="line2d_9">
      <defs>
       <path d="M 0 0 
L -3.5 0 
" id="m6f559c73f2" style="stroke:#000000;stroke-width:0.8;"/>
      </defs>
      <g>
       <use style="stroke:#000000;stroke-width:0.8;" x="57.6" xlink:href="#m6f559c73f2" y="307.584"/>
      </g>
     </g>
     <g id="text_9">
      <!-- 0 -->
      <g transform="translate(44.2375 311.383219)scale(0.1 -0.1)">
       <use xlink:href="#DejaVuSans-48"/>
      </g>
     </g>
    </g>
    <g id="ytick_2">
     <g id="line2d_10">
      <g>
       <use style="stroke:#000000;stroke-width:0.8;" x="57.6" xlink:href="#m6f559c73f2" y="255.840428"/>
      </g>
     </g>
     <g id="text_10">
      <!-- 20 -->
      <g transform="translate(37.875 259.639647)scale(0.1 -0.1)">
       <use xlink:href="#DejaVuSans-50"/>
       <use x="63.623047" xlink:href="#DejaVuSans-48"/>
      </g>
     </g>
    </g>
    <g id="ytick_3">
     <g id="line2d_11">
      <g>
       <use style="stroke:#000000;stroke-width:0.8;" x="57.6" xlink:href="#m6f559c73f2" y="204.096857"/>
      </g>
     </g>
     <g id="text_11">
      <!-- 40 -->
      <g transform="translate(37.875 207.896076)scale(0.1 -0.1)">
       <defs>
        <path d="M 37.796875 64.3125 
L 12.890625 25.390625 
L 37.796875 25.390625 
z
M 35.203125 72.90625 
L 47.609375 72.90625 
L 47.609375 25.390625 
L 58.015625 25.390625 
L 58.015625 17.1875 
L 47.609375 17.1875 
L 47.609375 0 
L 37.796875 0 
L 37.796875 17.1875 
L 4.890625 17.1875 
L 4.890625 26.703125 
z
" id="DejaVuSans-52"/>
       </defs>
       <use xlink:href="#DejaVuSans-52"/>
       <use x="63.623047" xlink:href="#DejaVuSans-48"/>
      </g>
     </g>
    </g>
    <g id="ytick_4">
     <g id="line2d_12">
      <g>
       <use style="stroke:#000000;stroke-width:0.8;" x="57.6" xlink:href="#m6f559c73f2" y="152.353285"/>
      </g>
     </g>
     <g id="text_12">
      <!-- 60 -->
      <g transform="translate(37.875 156.152504)scale(0.1 -0.1)">
       <defs>
        <path d="M 33.015625 40.375 
Q 26.375 40.375 22.484375 35.828125 
Q 18.609375 31.296875 18.609375 23.390625 
Q 18.609375 15.53125 22.484375 10.953125 
Q 26.375 6.390625 33.015625 6.390625 
Q 39.65625 6.390625 43.53125 10.953125 
Q 47.40625 15.53125 47.40625 23.390625 
Q 47.40625 31.296875 43.53125 35.828125 
Q 39.65625 40.375 33.015625 40.375 
z
M 52.59375 71.296875 
L 52.59375 62.3125 
Q 48.875 64.0625 45.09375 64.984375 
Q 41.3125 65.921875 37.59375 65.921875 
Q 27.828125 65.921875 22.671875 59.328125 
Q 17.53125 52.734375 16.796875 39.40625 
Q 19.671875 43.65625 24.015625 45.921875 
Q 28.375 48.1875 33.59375 48.1875 
Q 44.578125 48.1875 50.953125 41.515625 
Q 57.328125 34.859375 57.328125 23.390625 
Q 57.328125 12.15625 50.6875 5.359375 
Q 44.046875 -1.421875 33.015625 -1.421875 
Q 20.359375 -1.421875 13.671875 8.265625 
Q 6.984375 17.96875 6.984375 36.375 
Q 6.984375 53.65625 15.1875 63.9375 
Q 23.390625 74.21875 37.203125 74.21875 
Q 40.921875 74.21875 44.703125 73.484375 
Q 48.484375 72.75 52.59375 71.296875 
z
" id="DejaVuSans-54"/>
       </defs>
       <use xlink:href="#DejaVuSans-54"/>
       <use x="63.623047" xlink:href="#DejaVuSans-48"/>
      </g>
     </g>
    </g>
    <g id="ytick_5">
     <g id="line2d_13">
      <g>
       <use style="stroke:#000000;stroke-width:0.8;" x="57.6" xlink:href="#m6f559c73f2" y="100.609714"/>
      </g>
     </g>
     <g id="text_13">
      <!-- 80 -->
      <g transform="translate(37.875 104.408932)scale(0.1 -0.1)">
       <defs>
        <path d="M 31.78125 34.625 
Q 24.75 34.625 20.71875 30.859375 
Q 16.703125 27.09375 16.703125 20.515625 
Q 16.703125 13.921875 20.71875 10.15625 
Q 24.75 6.390625 31.78125 6.390625 
Q 38.8125 6.390625 42.859375 10.171875 
Q 46.921875 13.96875 46.921875 20.515625 
Q 46.921875 27.09375 42.890625 30.859375 
Q 38.875 34.625 31.78125 34.625 
z
M 21.921875 38.8125 
Q 15.578125 40.375 12.03125 44.71875 
Q 8.5 49.078125 8.5 55.328125 
Q 8.5 64.0625 14.71875 69.140625 
Q 20.953125 74.21875 31.78125 74.21875 
Q 42.671875 74.21875 48.875 69.140625 
Q 55.078125 64.0625 55.078125 55.328125 
Q 55.078125 49.078125 51.53125 44.71875 
Q 48 40.375 41.703125 38.8125 
Q 48.828125 37.15625 52.796875 32.3125 
Q 56.78125 27.484375 56.78125 20.515625 
Q 56.78125 9.90625 50.3125 4.234375 
Q 43.84375 -1.421875 31.78125 -1.421875 
Q 19.734375 -1.421875 13.25 4.234375 
Q 6.78125 9.90625 6.78125 20.515625 
Q 6.78125 27.484375 10.78125 32.3125 
Q 14.796875 37.15625 21.921875 38.8125 
z
M 18.3125 54.390625 
Q 18.3125 48.734375 21.84375 45.5625 
Q 25.390625 42.390625 31.78125 42.390625 
Q 38.140625 42.390625 41.71875 45.5625 
Q 45.3125 48.734375 45.3125 54.390625 
Q 45.3125 60.0625 41.71875 63.234375 
Q 38.140625 66.40625 31.78125 66.40625 
Q 25.390625 66.40625 21.84375 63.234375 
Q 18.3125 60.0625 18.3125 54.390625 
z
" id="DejaVuSans-56"/>
       </defs>
       <use xlink:href="#DejaVuSans-56"/>
       <use x="63.623047" xlink:href="#DejaVuSans-48"/>
      </g>
     </g>
    </g>
    <g id="ytick_6">
     <g id="line2d_14">
      <g>
       <use style="stroke:#000000;stroke-width:0.8;" x="57.6" xlink:href="#m6f559c73f2" y="48.866142"/>
      </g>
     </g>
     <g id="text_14">
      <!-- 100 -->
      <g transform="translate(31.5125 52.665361)scale(0.1 -0.1)">
       <use xlink:href="#DejaVuSans-49"/>
       <use x="63.623047" xlink:href="#DejaVuSans-48"/>
       <use x="127.246094" xlink:href="#DejaVuSans-48"/>
      </g>
     </g>
    </g>
   </g>
   <g id="line2d_15">
    <path clip-path="url(#pf05f71581f)" d="M 86.502173 109.456246 
L 87.294013 108.007165 
L 88.085854 113.682392 
L 88.877694 123.075642 
L 89.669534 136.071545 
L 90.461375 143.692865 
L 91.253215 147.168069 
L 92.836896 156.440143 
L 93.628736 158.067917 
L 94.420576 148.694506 
L 95.212417 143.810456 
L 96.004257 143.144732 
L 96.796098 143.329311 
L 97.587938 146.721602 
L 98.379778 147.177543 
L 99.171619 149.366892 
L 99.963459 144.942928 
L 100.755299 145.114691 
L 101.54714 141.592445 
L 102.33898 130.927074 
L 103.13082 116.013097 
L 103.922661 104.807671 
L 104.714501 101.390263 
L 105.506341 108.552096 
L 106.298182 119.897928 
L 107.090022 127.81617 
L 107.881863 130.682775 
L 108.673703 127.032289 
L 109.465543 137.61426 
L 110.257384 141.403967 
L 111.049224 154.156785 
L 111.841064 148.797381 
L 112.632905 158.6351 
L 113.424745 166.815616 
L 114.216585 181.874853 
L 115.008426 184.705715 
L 115.800266 185.292996 
L 116.592106 186.296717 
L 117.383947 196.080495 
L 118.967627 226.802689 
L 119.759468 234.064675 
L 120.551308 233.740089 
L 121.343149 235.101983 
L 122.134989 224.909545 
L 122.926829 226.708614 
L 123.71867 222.550091 
L 124.51051 220.951465 
L 125.30235 209.256247 
L 126.094191 205.804933 
L 127.677871 234.759467 
L 128.469712 243.873993 
L 129.261552 234.588673 
L 130.053392 242.578197 
L 130.845233 243.991502 
L 131.637073 252.290879 
L 132.428914 242.777003 
L 133.220754 246.775078 
L 134.012594 246.450289 
L 134.804435 247.143834 
L 135.596275 238.881511 
L 137.179956 230.099956 
L 137.971796 227.859496 
L 138.763636 218.961451 
L 139.555477 208.808689 
L 140.347317 201.280792 
L 141.139157 174.33578 
L 142.722838 134.815286 
L 143.514678 146.915302 
L 144.306519 143.916972 
L 145.098359 144.311529 
L 145.8902 137.076963 
L 146.68204 144.924047 
L 148.265721 155.908112 
L 149.849401 147.256929 
L 150.641242 146.649353 
L 151.433082 149.490348 
L 152.224922 151.429202 
L 153.016763 157.192329 
L 153.808603 158.214465 
L 154.600443 148.679235 
L 155.392284 148.242563 
L 156.184124 149.69363 
L 156.975965 167.11449 
L 157.767805 166.791561 
L 158.559645 168.308783 
L 159.351486 163.600175 
L 160.143326 160.748632 
L 160.935166 173.405021 
L 161.727007 188.056658 
L 162.518847 197.666922 
L 163.310687 187.128983 
L 164.102528 168.66414 
L 164.894368 152.889294 
L 165.686208 147.992431 
L 166.478049 138.491873 
L 167.269889 132.91438 
L 168.061729 113.370236 
L 169.64541 93.001681 
L 170.437251 92.281352 
L 171.229091 92.86379 
L 172.020931 85.399396 
L 173.604612 66.347122 
L 174.396452 65.276147 
L 175.188293 62.861699 
L 175.980133 67.976128 
L 177.563814 124.717557 
L 178.355654 147.867133 
L 179.147494 148.698179 
L 179.939335 151.869227 
L 181.523016 156.588421 
L 182.314856 155.878929 
L 183.106696 155.58419 
L 183.898537 153.192589 
L 184.690377 157.140982 
L 185.482217 165.271765 
L 186.274058 181.692139 
L 187.065898 192.849739 
L 187.857738 180.813684 
L 188.649579 173.816055 
L 189.441419 165.596834 
L 190.233259 180.403796 
L 191.0251 186.436928 
L 191.81694 190.018518 
L 192.60878 185.356085 
L 193.400621 182.70584 
L 194.192461 182.882752 
L 194.984302 178.259213 
L 195.776142 176.206032 
L 197.359823 167.196265 
L 198.151663 157.241794 
L 198.943503 154.318405 
L 200.527184 142.945968 
L 201.319024 135.638502 
L 202.110865 140.666463 
L 202.902705 153.534644 
L 203.694545 169.140905 
L 204.486386 182.094673 
L 205.278226 189.51345 
L 206.070067 198.779885 
L 206.861907 199.257282 
L 207.653747 194.213293 
L 208.445588 196.685694 
L 209.237428 203.770782 
L 210.029268 209.54051 
L 211.612949 194.687781 
L 212.404789 192.655411 
L 213.19663 197.966672 
L 213.98847 204.882794 
L 214.78031 206.137962 
L 215.572151 204.089456 
L 216.363991 196.248048 
L 217.155831 200.373741 
L 217.947672 200.539822 
L 218.739512 207.266367 
L 219.531353 202.257035 
L 220.323193 199.727357 
L 221.115033 200.967909 
L 221.906874 204.329895 
L 222.698714 208.376759 
L 223.490554 208.150879 
L 224.282395 193.294158 
L 225.866075 168.075781 
L 226.657916 161.819217 
L 227.449756 153.612193 
L 228.241596 155.132608 
L 229.033437 164.322028 
L 229.825277 176.570009 
L 230.617118 177.828911 
L 231.408958 177.868719 
L 232.200798 170.924628 
L 232.992639 173.018364 
L 233.784479 178.565703 
L 234.576319 178.694838 
L 235.36816 173.201101 
L 236.16 148.074804 
L 237.743681 113.327672 
L 238.535521 104.137174 
L 239.327361 85.112173 
L 240.119202 69.360709 
L 240.911042 57.659375 
L 242.494723 51.510994 
L 243.286563 54.507085 
L 245.662084 74.18635 
L 246.453925 74.742322 
L 247.245765 75.588464 
L 248.037605 80.909295 
L 248.829446 87.764958 
L 249.621286 95.956271 
L 250.413126 107.806111 
L 251.204967 130.04332 
L 251.996807 148.980224 
L 252.788647 154.768101 
L 253.580488 152.296074 
L 254.372328 150.674506 
L 255.164169 150.147652 
L 255.956009 143.710409 
L 256.747849 144.227816 
L 257.53969 154.492799 
L 258.33153 172.301844 
L 259.12337 179.468345 
L 259.915211 180.794268 
L 260.707051 181.623883 
L 261.498891 189.705501 
L 262.290732 186.952819 
L 263.082572 187.372424 
L 263.874412 185.609151 
L 264.666253 194.461426 
L 265.458093 194.240386 
L 266.249933 192.525832 
L 267.041774 192.460243 
L 267.833614 190.72136 
L 268.625455 196.920259 
L 269.417295 207.362804 
L 270.209135 221.031869 
L 271.000976 229.998898 
L 271.792816 232.390733 
L 272.584656 230.225984 
L 273.376497 229.756841 
L 274.168337 221.583709 
L 274.960177 221.201517 
L 275.752018 216.732807 
L 276.543858 221.93768 
L 277.335698 219.511047 
L 278.127539 219.477522 
L 278.919379 211.631574 
L 279.71122 205.109924 
L 280.50306 179.864005 
L 282.086741 139.846907 
L 282.878581 145.353699 
L 283.670421 152.802861 
L 284.462262 163.366966 
L 285.254102 163.763548 
L 286.045942 161.52303 
L 286.837783 160.23639 
L 287.629623 157.778362 
L 288.421463 160.086595 
L 289.213304 167.178814 
L 290.005144 182.929709 
L 290.796984 194.55466 
L 291.588825 201.810611 
L 292.380665 207.023871 
L 293.172506 204.52098 
L 295.548027 156.995131 
L 296.339867 155.894985 
L 297.131707 146.289779 
L 297.923548 142.695686 
L 298.715388 133.832449 
L 299.507228 127.038772 
L 300.299069 125.579819 
L 301.090909 124.396033 
L 301.882749 118.437289 
L 302.67459 116.882163 
L 303.46643 115.065446 
L 304.258271 118.403023 
L 305.050111 115.126626 
L 305.841951 105.479896 
L 306.633792 92.343634 
L 307.425632 81.163107 
L 308.217472 79.446497 
L 309.009313 82.002777 
L 309.801153 87.223501 
L 310.592993 91.261687 
L 311.384834 89.121265 
L 312.176674 92.644038 
L 312.968514 94.731285 
L 313.760355 98.246655 
L 314.552195 92.452401 
L 315.344035 88.548919 
L 316.135876 94.511443 
L 316.927716 99.57984 
L 317.719557 108.110126 
L 318.511397 104.336648 
L 319.303237 101.415668 
L 320.095078 105.963083 
L 320.886918 113.044314 
L 321.678758 122.883031 
L 322.470599 123.728774 
L 323.262439 122.20836 
L 324.054279 117.014918 
L 324.84612 108.863555 
L 325.63796 111.695353 
L 326.4298 117.088974 
L 327.221641 116.836123 
L 328.805322 104.008653 
L 329.597162 107.774346 
L 330.389002 109.499318 
L 331.972683 93.220832 
L 332.764523 87.210871 
L 333.556364 89.031958 
L 334.348204 91.999053 
L 335.931885 141.549712 
L 336.723725 155.342113 
L 337.515565 147.491273 
L 338.307406 136.357884 
L 339.099246 140.993695 
L 339.891086 147.123261 
L 340.682927 155.306656 
L 341.474767 161.762899 
L 342.266608 167.287716 
L 343.058448 171.085252 
L 343.850288 166.971957 
L 345.433969 179.220116 
L 346.225809 176.862633 
L 347.01765 167.598731 
L 347.80949 160.683197 
L 348.60133 161.497713 
L 349.393171 169.654913 
L 350.185011 170.517267 
L 350.976851 162.740037 
L 352.560532 121.714129 
L 353.352373 109.305919 
L 354.144213 105.19351 
L 354.936053 112.60229 
L 355.727894 111.291761 
L 356.519734 111.173817 
L 357.311574 103.718059 
L 358.103415 102.246033 
L 358.895255 94.559326 
L 359.687095 91.849508 
L 360.478936 91.438408 
L 361.270776 92.132171 
L 362.062616 91.52515 
L 363.646297 96.136169 
L 364.438137 95.152871 
L 365.229978 89.085125 
L 366.021818 84.822441 
L 366.813659 82.579746 
L 367.605499 78.684972 
L 369.18918 66.865659 
L 369.98102 68.470013 
L 370.77286 78.474453 
L 372.356541 120.145569 
L 373.148381 132.012818 
L 373.940222 132.169604 
L 374.732062 133.731492 
L 375.523902 142.66364 
L 376.315743 155.058666 
L 377.899424 161.522993 
L 378.691264 169.207446 
L 379.483104 193.833582 
L 380.274945 211.17803 
L 381.066785 222.86618 
L 381.858625 217.797716 
L 382.650466 211.007549 
L 383.442306 200.150018 
L 385.025987 212.314853 
L 385.817827 215.067673 
L 386.609667 202.294593 
L 387.401508 195.764977 
L 388.193348 197.329854 
L 388.985188 193.792029 
L 389.777029 182.376964 
L 390.568869 157.950934 
L 392.15255 126.375708 
L 392.94439 124.572328 
L 393.736231 112.980727 
L 394.528071 106.793198 
L 395.319911 97.261393 
L 396.111752 95.908157 
L 396.903592 96.887546 
L 397.695432 99.915063 
L 398.487273 98.305046 
L 398.487273 98.305046 
" style="fill:none;stroke:#ff6347;stroke-linecap:square;stroke-width:1.5;"/>
   </g>
   <g id="patch_3">
    <path d="M 57.6 307.584 
L 57.6 41.472 
" style="fill:none;stroke:#000000;stroke-linecap:square;stroke-linejoin:miter;stroke-width:0.8;"/>
   </g>
   <g id="patch_4">
    <path d="M 414.72 307.584 
L 414.72 41.472 
" style="fill:none;stroke:#000000;stroke-linecap:square;stroke-linejoin:miter;stroke-width:0.8;"/>
   </g>
   <g id="patch_5">
    <path d="M 57.6 307.584 
L 414.72 307.584 
" style="fill:none;stroke:#000000;stroke-linecap:square;stroke-linejoin:miter;stroke-width:0.8;"/>
   </g>
   <g id="patch_6">
    <path d="M 57.6 41.472 
L 414.72 41.472 
" style="fill:none;stroke:#000000;stroke-linecap:square;stroke-linejoin:miter;stroke-width:0.8;"/>
   </g>
   <g id="text_15">
    <!-- Data source: coindesk -->
    <g transform="translate(180.640469 35.472)scale(0.1 -0.1)">
     <defs>
      <path d="M 19.671875 64.796875 
L 19.671875 8.109375 
L 31.59375 8.109375 
Q 46.6875 8.109375 53.6875 14.9375 
Q 60.6875 21.78125 60.6875 36.53125 
Q 60.6875 51.171875 53.6875 57.984375 
Q 46.6875 64.796875 31.59375 64.796875 
z
M 9.8125 72.90625 
L 30.078125 72.90625 
Q 51.265625 72.90625 61.171875 64.09375 
Q 71.09375 55.28125 71.09375 36.53125 
Q 71.09375 17.671875 61.125 8.828125 
Q 51.171875 0 30.078125 0 
L 9.8125 0 
z
" id="DejaVuSans-68"/>
      <path d="M 34.28125 27.484375 
Q 23.390625 27.484375 19.1875 25 
Q 14.984375 22.515625 14.984375 16.5 
Q 14.984375 11.71875 18.140625 8.90625 
Q 21.296875 6.109375 26.703125 6.109375 
Q 34.1875 6.109375 38.703125 11.40625 
Q 43.21875 16.703125 43.21875 25.484375 
L 43.21875 27.484375 
z
M 52.203125 31.203125 
L 52.203125 0 
L 43.21875 0 
L 43.21875 8.296875 
Q 40.140625 3.328125 35.546875 0.953125 
Q 30.953125 -1.421875 24.3125 -1.421875 
Q 15.921875 -1.421875 10.953125 3.296875 
Q 6 8.015625 6 15.921875 
Q 6 25.140625 12.171875 29.828125 
Q 18.359375 34.515625 30.609375 34.515625 
L 43.21875 34.515625 
L 43.21875 35.40625 
Q 43.21875 41.609375 39.140625 45 
Q 35.0625 48.390625 27.6875 48.390625 
Q 23 48.390625 18.546875 47.265625 
Q 14.109375 46.140625 10.015625 43.890625 
L 10.015625 52.203125 
Q 14.9375 54.109375 19.578125 55.046875 
Q 24.21875 56 28.609375 56 
Q 40.484375 56 46.34375 49.84375 
Q 52.203125 43.703125 52.203125 31.203125 
z
" id="DejaVuSans-97"/>
      <path d="M 18.3125 70.21875 
L 18.3125 54.6875 
L 36.8125 54.6875 
L 36.8125 47.703125 
L 18.3125 47.703125 
L 18.3125 18.015625 
Q 18.3125 11.328125 20.140625 9.421875 
Q 21.96875 7.515625 27.59375 7.515625 
L 36.8125 7.515625 
L 36.8125 0 
L 27.59375 0 
Q 17.1875 0 13.234375 3.875 
Q 9.28125 7.765625 9.28125 18.015625 
L 9.28125 47.703125 
L 2.6875 47.703125 
L 2.6875 54.6875 
L 9.28125 54.6875 
L 9.28125 70.21875 
z
" id="DejaVuSans-116"/>
      <path id="DejaVuSans-32"/>
      <path d="M 44.28125 53.078125 
L 44.28125 44.578125 
Q 40.484375 46.53125 36.375 47.5 
Q 32.28125 48.484375 27.875 48.484375 
Q 21.1875 48.484375 17.84375 46.4375 
Q 14.5 44.390625 14.5 40.28125 
Q 14.5 37.15625 16.890625 35.375 
Q 19.28125 33.59375 26.515625 31.984375 
L 29.59375 31.296875 
Q 39.15625 29.25 43.1875 25.515625 
Q 47.21875 21.78125 47.21875 15.09375 
Q 47.21875 7.46875 41.1875 3.015625 
Q 35.15625 -1.421875 24.609375 -1.421875 
Q 20.21875 -1.421875 15.453125 -0.5625 
Q 10.6875 0.296875 5.421875 2 
L 5.421875 11.28125 
Q 10.40625 8.6875 15.234375 7.390625 
Q 20.0625 6.109375 24.8125 6.109375 
Q 31.15625 6.109375 34.5625 8.28125 
Q 37.984375 10.453125 37.984375 14.40625 
Q 37.984375 18.0625 35.515625 20.015625 
Q 33.0625 21.96875 24.703125 23.78125 
L 21.578125 24.515625 
Q 13.234375 26.265625 9.515625 29.90625 
Q 5.8125 33.546875 5.8125 39.890625 
Q 5.8125 47.609375 11.28125 51.796875 
Q 16.75 56 26.8125 56 
Q 31.78125 56 36.171875 55.265625 
Q 40.578125 54.546875 44.28125 53.078125 
z
" id="DejaVuSans-115"/>
      <path d="M 30.609375 48.390625 
Q 23.390625 48.390625 19.1875 42.75 
Q 14.984375 37.109375 14.984375 27.296875 
Q 14.984375 17.484375 19.15625 11.84375 
Q 23.34375 6.203125 30.609375 6.203125 
Q 37.796875 6.203125 41.984375 11.859375 
Q 46.1875 17.53125 46.1875 27.296875 
Q 46.1875 37.015625 41.984375 42.703125 
Q 37.796875 48.390625 30.609375 48.390625 
z
M 30.609375 56 
Q 42.328125 56 49.015625 48.375 
Q 55.71875 40.765625 55.71875 27.296875 
Q 55.71875 13.875 49.015625 6.21875 
Q 42.328125 -1.421875 30.609375 -1.421875 
Q 18.84375 -1.421875 12.171875 6.21875 
Q 5.515625 13.875 5.515625 27.296875 
Q 5.515625 40.765625 12.171875 48.375 
Q 18.84375 56 30.609375 56 
z
" id="DejaVuSans-111"/>
      <path d="M 8.5 21.578125 
L 8.5 54.6875 
L 17.484375 54.6875 
L 17.484375 21.921875 
Q 17.484375 14.15625 20.5 10.265625 
Q 23.53125 6.390625 29.59375 6.390625 
Q 36.859375 6.390625 41.078125 11.03125 
Q 45.3125 15.671875 45.3125 23.6875 
L 45.3125 54.6875 
L 54.296875 54.6875 
L 54.296875 0 
L 45.3125 0 
L 45.3125 8.40625 
Q 42.046875 3.421875 37.71875 1 
Q 33.40625 -1.421875 27.6875 -1.421875 
Q 18.265625 -1.421875 13.375 4.4375 
Q 8.5 10.296875 8.5 21.578125 
z
M 31.109375 56 
z
" id="DejaVuSans-117"/>
      <path d="M 41.109375 46.296875 
Q 39.59375 47.171875 37.8125 47.578125 
Q 36.03125 48 33.890625 48 
Q 26.265625 48 22.1875 43.046875 
Q 18.109375 38.09375 18.109375 28.8125 
L 18.109375 0 
L 9.078125 0 
L 9.078125 54.6875 
L 18.109375 54.6875 
L 18.109375 46.1875 
Q 20.953125 51.171875 25.484375 53.578125 
Q 30.03125 56 36.53125 56 
Q 37.453125 56 38.578125 55.875 
Q 39.703125 55.765625 41.0625 55.515625 
z
" id="DejaVuSans-114"/>
      <path d="M 48.78125 52.59375 
L 48.78125 44.1875 
Q 44.96875 46.296875 41.140625 47.34375 
Q 37.3125 48.390625 33.40625 48.390625 
Q 24.65625 48.390625 19.8125 42.84375 
Q 14.984375 37.3125 14.984375 27.296875 
Q 14.984375 17.28125 19.8125 11.734375 
Q 24.65625 6.203125 33.40625 6.203125 
Q 37.3125 6.203125 41.140625 7.25 
Q 44.96875 8.296875 48.78125 10.40625 
L 48.78125 2.09375 
Q 45.015625 0.34375 40.984375 -0.53125 
Q 36.96875 -1.421875 32.421875 -1.421875 
Q 20.0625 -1.421875 12.78125 6.34375 
Q 5.515625 14.109375 5.515625 27.296875 
Q 5.515625 40.671875 12.859375 48.328125 
Q 20.21875 56 33.015625 56 
Q 37.15625 56 41.109375 55.140625 
Q 45.0625 54.296875 48.78125 52.59375 
z
" id="DejaVuSans-99"/>
      <path d="M 56.203125 29.59375 
L 56.203125 25.203125 
L 14.890625 25.203125 
Q 15.484375 15.921875 20.484375 11.0625 
Q 25.484375 6.203125 34.421875 6.203125 
Q 39.59375 6.203125 44.453125 7.46875 
Q 49.3125 8.734375 54.109375 11.28125 
L 54.109375 2.78125 
Q 49.265625 0.734375 44.1875 -0.34375 
Q 39.109375 -1.421875 33.890625 -1.421875 
Q 20.796875 -1.421875 13.15625 6.1875 
Q 5.515625 13.8125 5.515625 26.8125 
Q 5.515625 40.234375 12.765625 48.109375 
Q 20.015625 56 32.328125 56 
Q 43.359375 56 49.78125 48.890625 
Q 56.203125 41.796875 56.203125 29.59375 
z
M 47.21875 32.234375 
Q 47.125 39.59375 43.09375 43.984375 
Q 39.0625 48.390625 32.421875 48.390625 
Q 24.90625 48.390625 20.390625 44.140625 
Q 15.875 39.890625 15.1875 32.171875 
z
" id="DejaVuSans-101"/>
      <path d="M 11.71875 12.40625 
L 22.015625 12.40625 
L 22.015625 0 
L 11.71875 0 
z
M 11.71875 51.703125 
L 22.015625 51.703125 
L 22.015625 39.3125 
L 11.71875 39.3125 
z
" id="DejaVuSans-58"/>
      <path d="M 9.421875 54.6875 
L 18.40625 54.6875 
L 18.40625 0 
L 9.421875 0 
z
M 9.421875 75.984375 
L 18.40625 75.984375 
L 18.40625 64.59375 
L 9.421875 64.59375 
z
" id="DejaVuSans-105"/>
      <path d="M 54.890625 33.015625 
L 54.890625 0 
L 45.90625 0 
L 45.90625 32.71875 
Q 45.90625 40.484375 42.875 44.328125 
Q 39.84375 48.1875 33.796875 48.1875 
Q 26.515625 48.1875 22.3125 43.546875 
Q 18.109375 38.921875 18.109375 30.90625 
L 18.109375 0 
L 9.078125 0 
L 9.078125 54.6875 
L 18.109375 54.6875 
L 18.109375 46.1875 
Q 21.34375 51.125 25.703125 53.5625 
Q 30.078125 56 35.796875 56 
Q 45.21875 56 50.046875 50.171875 
Q 54.890625 44.34375 54.890625 33.015625 
z
" id="DejaVuSans-110"/>
      <path d="M 45.40625 46.390625 
L 45.40625 75.984375 
L 54.390625 75.984375 
L 54.390625 0 
L 45.40625 0 
L 45.40625 8.203125 
Q 42.578125 3.328125 38.25 0.953125 
Q 33.9375 -1.421875 27.875 -1.421875 
Q 17.96875 -1.421875 11.734375 6.484375 
Q 5.515625 14.40625 5.515625 27.296875 
Q 5.515625 40.1875 11.734375 48.09375 
Q 17.96875 56 27.875 56 
Q 33.9375 56 38.25 53.625 
Q 42.578125 51.265625 45.40625 46.390625 
z
M 14.796875 27.296875 
Q 14.796875 17.390625 18.875 11.75 
Q 22.953125 6.109375 30.078125 6.109375 
Q 37.203125 6.109375 41.296875 11.75 
Q 45.40625 17.390625 45.40625 27.296875 
Q 45.40625 37.203125 41.296875 42.84375 
Q 37.203125 48.484375 30.078125 48.484375 
Q 22.953125 48.484375 18.875 42.84375 
Q 14.796875 37.203125 14.796875 27.296875 
z
" id="DejaVuSans-100"/>
      <path d="M 9.078125 75.984375 
L 18.109375 75.984375 
L 18.109375 31.109375 
L 44.921875 54.6875 
L 56.390625 54.6875 
L 27.390625 29.109375 
L 57.625 0 
L 45.90625 0 
L 18.109375 26.703125 
L 18.109375 0 
L 9.078125 0 
z
" id="DejaVuSans-107"/>
     </defs>
     <use xlink:href="#DejaVuSans-68"/>
     <use x="77.001953" xlink:href="#DejaVuSans-97"/>
     <use x="138.28125" xlink:href="#DejaVuSans-116"/>
     <use x="177.490234" xlink:href="#DejaVuSans-97"/>
     <use x="238.769531" xlink:href="#DejaVuSans-32"/>
     <use x="270.556641" xlink:href="#DejaVuSans-115"/>
     <use x="322.65625" xlink:href="#DejaVuSans-111"/>
     <use x="383.837891" xlink:href="#DejaVuSans-117"/>
     <use x="447.216797" xlink:href="#DejaVuSans-114"/>
     <use x="486.080078" xlink:href="#DejaVuSans-99"/>
     <use x="541.060547" xlink:href="#DejaVuSans-101"/>
     <use x="602.583984" xlink:href="#DejaVuSans-58"/>
     <use x="636.275391" xlink:href="#DejaVuSans-32"/>
     <use x="668.0625" xlink:href="#DejaVuSans-99"/>
     <use x="723.042969" xlink:href="#DejaVuSans-111"/>
     <use x="784.224609" xlink:href="#DejaVuSans-105"/>
     <use x="812.007812" xlink:href="#DejaVuSans-110"/>
     <use x="875.386719" xlink:href="#DejaVuSans-100"/>
     <use x="938.863281" xlink:href="#DejaVuSans-101"/>
     <use x="1000.386719" xlink:href="#DejaVuSans-115"/>
     <use x="1052.486328" xlink:href="#DejaVuSans-107"/>
    </g>
   </g>
   <g id="legend_1">
    <g id="patch_7">
     <path d="M 359.473125 64.150125 
L 407.72 64.150125 
Q 409.72 64.150125 409.72 62.150125 
L 409.72 48.472 
Q 409.72 46.472 407.72 46.472 
L 359.473125 46.472 
Q 357.473125 46.472 357.473125 48.472 
L 357.473125 62.150125 
Q 357.473125 64.150125 359.473125 64.150125 
z
" style="fill:#ffffff;opacity:0.8;stroke:#cccccc;stroke-linejoin:miter;"/>
    </g>
    <g id="line2d_16">
     <path d="M 361.473125 54.570438 
L 381.473125 54.570438 
" style="fill:none;stroke:#ff6347;stroke-linecap:square;stroke-width:1.5;"/>
    </g>
    <g id="line2d_17"/>
    <g id="text_16">
     <!-- RSI -->
     <g transform="translate(389.473125 58.070438)scale(0.1 -0.1)">
      <defs>
       <path d="M 44.390625 34.1875 
Q 47.5625 33.109375 50.5625 29.59375 
Q 53.5625 26.078125 56.59375 19.921875 
L 66.609375 0 
L 56 0 
L 46.6875 18.703125 
Q 43.0625 26.03125 39.671875 28.421875 
Q 36.28125 30.8125 30.421875 30.8125 
L 19.671875 30.8125 
L 19.671875 0 
L 9.8125 0 
L 9.8125 72.90625 
L 32.078125 72.90625 
Q 44.578125 72.90625 50.734375 67.671875 
Q 56.890625 62.453125 56.890625 51.90625 
Q 56.890625 45.015625 53.6875 40.46875 
Q 50.484375 35.9375 44.390625 34.1875 
z
M 19.671875 64.796875 
L 19.671875 38.921875 
L 32.078125 38.921875 
Q 39.203125 38.921875 42.84375 42.21875 
Q 46.484375 45.515625 46.484375 51.90625 
Q 46.484375 58.296875 42.84375 61.546875 
Q 39.203125 64.796875 32.078125 64.796875 
z
" id="DejaVuSans-82"/>
       <path d="M 53.515625 70.515625 
L 53.515625 60.890625 
Q 47.90625 63.578125 42.921875 64.890625 
Q 37.9375 66.21875 33.296875 66.21875 
Q 25.25 66.21875 20.875 63.09375 
Q 16.5 59.96875 16.5 54.203125 
Q 16.5 49.359375 19.40625 46.890625 
Q 22.3125 44.4375 30.421875 42.921875 
L 36.375 41.703125 
Q 47.40625 39.59375 52.65625 34.296875 
Q 57.90625 29 57.90625 20.125 
Q 57.90625 9.515625 50.796875 4.046875 
Q 43.703125 -1.421875 29.984375 -1.421875 
Q 24.8125 -1.421875 18.96875 -0.25 
Q 13.140625 0.921875 6.890625 3.21875 
L 6.890625 13.375 
Q 12.890625 10.015625 18.65625 8.296875 
Q 24.421875 6.59375 29.984375 6.59375 
Q 38.421875 6.59375 43.015625 9.90625 
Q 47.609375 13.234375 47.609375 19.390625 
Q 47.609375 24.75 44.3125 27.78125 
Q 41.015625 30.8125 33.5 32.328125 
L 27.484375 33.5 
Q 16.453125 35.6875 11.515625 40.375 
Q 6.59375 45.0625 6.59375 53.421875 
Q 6.59375 63.09375 13.40625 68.65625 
Q 20.21875 74.21875 32.171875 74.21875 
Q 37.3125 74.21875 42.625 73.28125 
Q 47.953125 72.359375 53.515625 70.515625 
z
" id="DejaVuSans-83"/>
       <path d="M 9.8125 72.90625 
L 19.671875 72.90625 
L 19.671875 0 
L 9.8125 0 
z
" id="DejaVuSans-73"/>
      </defs>
      <use xlink:href="#DejaVuSans-82"/>
      <use x="69.482422" xlink:href="#DejaVuSans-83"/>
      <use x="132.958984" xlink:href="#DejaVuSans-73"/>
     </g>
    </g>
   </g>
  </g>
  <g id="text_17">
   <!-- RSI -->
   <g transform="translate(217.4025 19.0695)scale(0.16 -0.16)">
    <use xlink:href="#DejaVuSans-82"/>
    <use x="69.482422" xlink:href="#DejaVuSans-83"/>
    <use x="132.958984" xlink:href="#DejaVuSans-73"/>
   </g>
  </g>
 </g>
 <defs>
  <clipPath id="pf05f71581f">
   <rect height="266.112" width="357.12" x="57.6" y="41.472"/>
  </clipPath>
 </defs>
</svg>
