<?xml version="1.0" encoding="utf-8" standalone="no"?>
<!DOCTYPE svg PUBLIC "-//W3C//DTD SVG 1.1//EN"
  "http://www.w3.org/Graphics/SVG/1.1/DTD/svg11.dtd">
<!-- Created with matplotlib (https://matplotlib.org/) -->
<svg height="345.6pt" version="1.1" viewBox="0 0 460.8 345.6" width="460.8pt" xmlns="http://www.w3.org/2000/svg" xmlns:xlink="http://www.w3.org/1999/xlink">
 <metadata>
  <rdf:RDF xmlns:cc="http://creativecommons.org/ns#" xmlns:dc="http://purl.org/dc/elements/1.1/" xmlns:rdf="http://www.w3.org/1999/02/22-rdf-syntax-ns#">
   <cc:Work>
    <dc:type rdf:resource="http://purl.org/dc/dcmitype/StillImage"/>
    <dc:date>2021-03-07T19:00:15.805305</dc:date>
    <dc:format>image/svg+xml</dc:format>
    <dc:creator>
     <cc:Agent>
      <dc:title>Matplotlib v3.3.2, https://matplotlib.org/</dc:title>
     </cc:Agent>
    </dc:creator>
   </cc:Work>
  </rdf:RDF>
 </metadata>
 <defs>
  <style type="text/css">*{stroke-linecap:butt;stroke-linejoin:round;}</style>
 </defs>
 <g id="figure_1">
  <g id="patch_1">
   <path d="M 0 345.6 
L 460.8 345.6 
L 460.8 0 
L 0 0 
z
" style="fill:#ffffff;"/>
  </g>
  <g id="axes_1">
   <g id="patch_2">
    <path d="M 57.6 307.584 
L 414.72 307.584 
L 414.72 41.472 
L 57.6 41.472 
z
" style="fill:#ffffff;"/>
   </g>
   <g id="PolyCollection_1">
    <defs>
     <path d="M 73.832727 -229.977685 
L 73.832727 -120.285294 
L 74.585986 -120.285294 
L 75.339245 -120.285294 
L 76.092504 -120.285294 
L 76.845762 -120.285294 
L 77.599021 -120.285294 
L 78.35228 -120.285294 
L 79.105539 -120.285294 
L 79.858798 -120.285294 
L 80.612057 -120.285294 
L 81.365315 -120.285294 
L 82.118574 -120.285294 
L 82.871833 -120.285294 
L 83.625092 -120.285294 
L 84.378351 -120.285294 
L 85.131609 -120.285294 
L 85.884868 -120.285294 
L 86.638127 -120.285294 
L 87.391386 -120.285294 
L 88.144645 -120.285294 
L 88.897903 -120.285294 
L 89.651162 -120.285294 
L 90.404421 -120.285294 
L 91.15768 -120.285294 
L 91.910939 -120.285294 
L 92.664197 -120.285294 
L 93.417456 -120.285294 
L 94.170715 -120.285294 
L 94.923974 -120.285294 
L 95.677233 -120.285294 
L 96.430491 -120.285294 
L 97.18375 -120.285294 
L 97.937009 -120.285294 
L 98.690268 -120.285294 
L 99.443527 -120.285294 
L 100.196785 -120.285294 
L 100.950044 -120.285294 
L 101.703303 -120.285294 
L 102.456562 -120.285294 
L 103.209821 -120.285294 
L 103.96308 -120.285294 
L 104.716338 -120.285294 
L 105.469597 -120.285294 
L 106.222856 -120.285294 
L 106.976115 -120.285294 
L 107.729374 -120.285294 
L 108.482632 -120.285294 
L 109.235891 -120.285294 
L 109.98915 -120.285294 
L 110.742409 -120.285294 
L 111.495668 -120.285294 
L 112.248926 -120.285294 
L 113.002185 -120.285294 
L 113.755444 -120.285294 
L 114.508703 -120.285294 
L 115.261962 -120.285294 
L 116.01522 -120.285294 
L 116.768479 -120.285294 
L 117.521738 -120.285294 
L 118.274997 -120.285294 
L 119.028256 -120.285294 
L 119.781514 -120.285294 
L 120.534773 -120.285294 
L 121.288032 -120.285294 
L 122.041291 -120.285294 
L 122.79455 -120.285294 
L 123.547808 -120.285294 
L 124.301067 -120.285294 
L 125.054326 -120.285294 
L 125.807585 -120.285294 
L 126.560844 -120.285294 
L 127.314103 -120.285294 
L 128.067361 -120.285294 
L 128.82062 -120.285294 
L 129.573879 -120.285294 
L 130.327138 -120.285294 
L 131.080397 -120.285294 
L 131.833655 -120.285294 
L 132.586914 -120.285294 
L 133.340173 -120.285294 
L 134.093432 -120.285294 
L 134.846691 -120.285294 
L 135.599949 -120.285294 
L 136.353208 -120.285294 
L 137.106467 -120.285294 
L 137.859726 -120.285294 
L 138.612985 -120.285294 
L 139.366243 -120.285294 
L 140.119502 -120.285294 
L 140.872761 -120.285294 
L 141.62602 -120.285294 
L 142.379279 -120.285294 
L 143.132537 -120.285294 
L 143.885796 -120.285294 
L 144.639055 -120.285294 
L 145.392314 -120.285294 
L 146.145573 -120.285294 
L 146.898831 -120.285294 
L 147.65209 -120.285294 
L 148.405349 -120.285294 
L 149.158608 -120.285294 
L 149.911867 -120.285294 
L 150.665126 -120.285294 
L 151.418384 -120.285294 
L 152.171643 -120.285294 
L 152.924902 -120.285294 
L 153.678161 -120.285294 
L 154.43142 -120.285294 
L 155.184678 -120.285294 
L 155.937937 -120.285294 
L 156.691196 -120.285294 
L 157.444455 -120.285294 
L 158.197714 -120.285294 
L 158.950972 -120.285294 
L 159.704231 -120.285294 
L 160.45749 -120.285294 
L 161.210749 -120.285294 
L 161.964008 -120.285294 
L 162.717266 -120.285294 
L 163.470525 -120.285294 
L 164.223784 -120.285294 
L 164.977043 -120.285294 
L 165.730302 -120.285294 
L 166.48356 -120.285294 
L 167.236819 -120.285294 
L 167.990078 -120.285294 
L 168.743337 -120.285294 
L 169.496596 -120.285294 
L 170.249854 -120.285294 
L 171.003113 -120.285294 
L 171.756372 -120.285294 
L 172.509631 -120.285294 
L 173.26289 -120.285294 
L 174.016148 -120.285294 
L 174.769407 -120.285294 
L 175.522666 -120.285294 
L 176.275925 -120.285294 
L 177.029184 -120.285294 
L 177.782443 -120.285294 
L 178.535701 -120.285294 
L 179.28896 -120.285294 
L 180.042219 -120.285294 
L 180.795478 -120.285294 
L 181.548737 -120.285294 
L 182.301995 -120.285294 
L 183.055254 -120.285294 
L 183.808513 -120.285294 
L 184.561772 -120.285294 
L 185.315031 -120.285294 
L 186.068289 -120.285294 
L 186.821548 -120.285294 
L 187.574807 -120.285294 
L 188.328066 -120.285294 
L 189.081325 -120.285294 
L 189.834583 -120.285294 
L 190.587842 -120.285294 
L 191.341101 -120.285294 
L 192.09436 -120.285294 
L 192.847619 -120.285294 
L 193.600877 -120.285294 
L 194.354136 -120.285294 
L 195.107395 -120.285294 
L 195.860654 -120.285294 
L 196.613913 -120.285294 
L 197.367171 -120.285294 
L 198.12043 -120.285294 
L 198.873689 -120.285294 
L 199.626948 -120.285294 
L 200.380207 -120.285294 
L 201.133466 -120.285294 
L 201.886724 -120.285294 
L 202.639983 -120.285294 
L 203.393242 -120.285294 
L 204.146501 -120.285294 
L 204.89976 -120.285294 
L 205.653018 -120.285294 
L 206.406277 -120.285294 
L 207.159536 -120.285294 
L 207.912795 -120.285294 
L 208.666054 -120.285294 
L 209.419312 -120.285294 
L 210.172571 -120.285294 
L 210.92583 -120.285294 
L 211.679089 -120.285294 
L 212.432348 -120.285294 
L 213.185606 -120.285294 
L 213.938865 -120.285294 
L 214.692124 -120.285294 
L 215.445383 -120.285294 
L 216.198642 -120.285294 
L 216.9519 -120.285294 
L 217.705159 -120.285294 
L 218.458418 -120.285294 
L 219.211677 -120.285294 
L 219.964936 -120.285294 
L 220.718194 -120.285294 
L 221.471453 -120.285294 
L 222.224712 -120.285294 
L 222.977971 -120.285294 
L 223.73123 -120.285294 
L 224.484489 -120.285294 
L 225.237747 -120.285294 
L 225.991006 -120.285294 
L 226.744265 -120.285294 
L 227.497524 -120.285294 
L 228.250783 -120.285294 
L 229.004041 -120.285294 
L 229.7573 -120.285294 
L 230.510559 -120.285294 
L 231.263818 -120.285294 
L 232.017077 -120.285294 
L 232.770335 -120.285294 
L 233.523594 -120.285294 
L 234.276853 -120.285294 
L 235.030112 -120.285294 
L 235.783371 -120.285294 
L 236.536629 -120.285294 
L 237.289888 -120.285294 
L 238.043147 -120.285294 
L 238.796406 -120.285294 
L 239.549665 -120.285294 
L 240.302923 -120.285294 
L 241.056182 -120.285294 
L 241.809441 -120.285294 
L 242.5627 -120.285294 
L 243.315959 -120.285294 
L 244.069217 -120.285294 
L 244.822476 -120.285294 
L 245.575735 -120.285294 
L 246.328994 -120.285294 
L 247.082253 -120.285294 
L 247.835511 -120.285294 
L 248.58877 -120.285294 
L 249.342029 -120.285294 
L 250.095288 -120.285294 
L 250.848547 -120.285294 
L 251.601806 -120.285294 
L 252.355064 -120.285294 
L 253.108323 -120.285294 
L 253.861582 -120.285294 
L 254.614841 -120.285294 
L 255.3681 -120.285294 
L 256.121358 -120.285294 
L 256.874617 -120.285294 
L 257.627876 -120.285294 
L 258.381135 -120.285294 
L 259.134394 -120.285294 
L 259.887652 -120.285294 
L 260.640911 -120.285294 
L 261.39417 -120.285294 
L 262.147429 -120.285294 
L 262.900688 -120.285294 
L 263.653946 -120.285294 
L 264.407205 -120.285294 
L 265.160464 -120.285294 
L 265.913723 -120.285294 
L 266.666982 -120.285294 
L 267.42024 -120.285294 
L 268.173499 -120.285294 
L 268.926758 -120.285294 
L 269.680017 -120.285294 
L 270.433276 -120.285294 
L 271.186534 -120.285294 
L 271.939793 -120.285294 
L 272.693052 -120.285294 
L 273.446311 -120.285294 
L 274.19957 -120.285294 
L 274.952829 -120.285294 
L 275.706087 -120.285294 
L 276.459346 -120.285294 
L 277.212605 -120.285294 
L 277.965864 -120.285294 
L 278.719123 -120.285294 
L 279.472381 -120.285294 
L 280.22564 -120.285294 
L 280.978899 -120.285294 
L 281.732158 -120.285294 
L 282.485417 -120.285294 
L 283.238675 -120.285294 
L 283.991934 -120.285294 
L 284.745193 -120.285294 
L 285.498452 -120.285294 
L 286.251711 -120.285294 
L 287.004969 -120.285294 
L 287.758228 -120.285294 
L 288.511487 -120.285294 
L 289.264746 -120.285294 
L 290.018005 -120.285294 
L 290.771263 -120.285294 
L 291.524522 -120.285294 
L 292.277781 -120.285294 
L 293.03104 -120.285294 
L 293.784299 -120.285294 
L 294.537557 -120.285294 
L 295.290816 -120.285294 
L 296.044075 -120.285294 
L 296.797334 -120.285294 
L 297.550593 -120.285294 
L 298.303852 -120.285294 
L 299.05711 -120.285294 
L 299.810369 -120.285294 
L 300.563628 -120.285294 
L 301.316887 -120.285294 
L 302.070146 -120.285294 
L 302.823404 -120.285294 
L 303.576663 -120.285294 
L 304.329922 -120.285294 
L 305.083181 -120.285294 
L 305.83644 -120.285294 
L 306.589698 -120.285294 
L 307.342957 -120.285294 
L 308.096216 -120.285294 
L 308.849475 -120.285294 
L 309.602734 -120.285294 
L 310.355992 -120.285294 
L 311.109251 -120.285294 
L 311.86251 -120.285294 
L 312.615769 -120.285294 
L 313.369028 -120.285294 
L 314.122286 -120.285294 
L 314.875545 -120.285294 
L 315.628804 -120.285294 
L 316.382063 -120.285294 
L 317.135322 -120.285294 
L 317.88858 -120.285294 
L 318.641839 -120.285294 
L 319.395098 -120.285294 
L 320.148357 -120.285294 
L 320.901616 -120.285294 
L 321.654874 -120.285294 
L 322.408133 -120.285294 
L 323.161392 -120.285294 
L 323.914651 -120.285294 
L 324.66791 -120.285294 
L 325.421169 -120.285294 
L 326.174427 -120.285294 
L 326.927686 -120.285294 
L 327.680945 -120.285294 
L 328.434204 -120.285294 
L 329.187463 -120.285294 
L 329.940721 -120.285294 
L 330.69398 -120.285294 
L 331.447239 -120.285294 
L 332.200498 -120.285294 
L 332.953757 -120.285294 
L 333.707015 -120.285294 
L 334.460274 -120.285294 
L 335.213533 -120.285294 
L 335.966792 -120.285294 
L 336.720051 -120.285294 
L 337.473309 -120.285294 
L 338.226568 -120.285294 
L 338.979827 -120.285294 
L 339.733086 -120.285294 
L 340.486345 -120.285294 
L 341.239603 -120.285294 
L 341.992862 -120.285294 
L 342.746121 -120.285294 
L 343.49938 -120.285294 
L 344.252639 -120.285294 
L 345.005897 -120.285294 
L 345.759156 -120.285294 
L 346.512415 -120.285294 
L 347.265674 -120.285294 
L 348.018933 -120.285294 
L 348.772192 -120.285294 
L 349.52545 -120.285294 
L 350.278709 -120.285294 
L 351.031968 -120.285294 
L 351.785227 -120.285294 
L 352.538486 -120.285294 
L 353.291744 -120.285294 
L 354.045003 -120.285294 
L 354.798262 -120.285294 
L 355.551521 -120.285294 
L 356.30478 -120.285294 
L 357.058038 -120.285294 
L 357.811297 -120.285294 
L 358.564556 -120.285294 
L 359.317815 -120.285294 
L 360.071074 -120.285294 
L 360.824332 -120.285294 
L 361.577591 -120.285294 
L 362.33085 -120.285294 
L 363.084109 -120.285294 
L 363.837368 -120.285294 
L 364.590626 -120.285294 
L 365.343885 -120.285294 
L 366.097144 -120.285294 
L 366.850403 -120.285294 
L 367.603662 -120.285294 
L 368.35692 -120.285294 
L 369.110179 -120.285294 
L 369.863438 -120.285294 
L 370.616697 -120.285294 
L 371.369956 -120.285294 
L 372.123215 -120.285294 
L 372.876473 -120.285294 
L 373.629732 -120.285294 
L 374.382991 -120.285294 
L 375.13625 -120.285294 
L 375.889509 -120.285294 
L 376.642767 -120.285294 
L 377.396026 -120.285294 
L 378.149285 -120.285294 
L 378.902544 -120.285294 
L 379.655803 -120.285294 
L 380.409061 -120.285294 
L 381.16232 -120.285294 
L 381.915579 -120.285294 
L 382.668838 -120.285294 
L 383.422097 -120.285294 
L 384.175355 -120.285294 
L 384.928614 -120.285294 
L 385.681873 -120.285294 
L 386.435132 -120.285294 
L 387.188391 -120.285294 
L 387.941649 -120.285294 
L 388.694908 -120.285294 
L 389.448167 -120.285294 
L 390.201426 -120.285294 
L 390.954685 -120.285294 
L 391.707943 -120.285294 
L 392.461202 -120.285294 
L 393.214461 -120.285294 
L 393.96772 -120.285294 
L 394.720979 -120.285294 
L 395.474238 -120.285294 
L 396.227496 -120.285294 
L 396.980755 -120.285294 
L 397.734014 -120.285294 
L 398.487273 -120.285294 
L 398.487273 -229.977685 
L 398.487273 -229.977685 
L 397.734014 -229.977685 
L 396.980755 -229.977685 
L 396.227496 -229.977685 
L 395.474238 -229.977685 
L 394.720979 -229.977685 
L 393.96772 -229.977685 
L 393.214461 -229.977685 
L 392.461202 -229.977685 
L 391.707943 -229.977685 
L 390.954685 -229.977685 
L 390.201426 -229.977685 
L 389.448167 -229.977685 
L 388.694908 -229.977685 
L 387.941649 -229.977685 
L 387.188391 -229.977685 
L 386.435132 -229.977685 
L 385.681873 -229.977685 
L 384.928614 -229.977685 
L 384.175355 -229.977685 
L 383.422097 -229.977685 
L 382.668838 -229.977685 
L 381.915579 -229.977685 
L 381.16232 -229.977685 
L 380.409061 -229.977685 
L 379.655803 -229.977685 
L 378.902544 -229.977685 
L 378.149285 -229.977685 
L 377.396026 -229.977685 
L 376.642767 -229.977685 
L 375.889509 -229.977685 
L 375.13625 -229.977685 
L 374.382991 -229.977685 
L 373.629732 -229.977685 
L 372.876473 -229.977685 
L 372.123215 -229.977685 
L 371.369956 -229.977685 
L 370.616697 -229.977685 
L 369.863438 -229.977685 
L 369.110179 -229.977685 
L 368.35692 -229.977685 
L 367.603662 -229.977685 
L 366.850403 -229.977685 
L 366.097144 -229.977685 
L 365.343885 -229.977685 
L 364.590626 -229.977685 
L 363.837368 -229.977685 
L 363.084109 -229.977685 
L 362.33085 -229.977685 
L 361.577591 -229.977685 
L 360.824332 -229.977685 
L 360.071074 -229.977685 
L 359.317815 -229.977685 
L 358.564556 -229.977685 
L 357.811297 -229.977685 
L 357.058038 -229.977685 
L 356.30478 -229.977685 
L 355.551521 -229.977685 
L 354.798262 -229.977685 
L 354.045003 -229.977685 
L 353.291744 -229.977685 
L 352.538486 -229.977685 
L 351.785227 -229.977685 
L 351.031968 -229.977685 
L 350.278709 -229.977685 
L 349.52545 -229.977685 
L 348.772192 -229.977685 
L 348.018933 -229.977685 
L 347.265674 -229.977685 
L 346.512415 -229.977685 
L 345.759156 -229.977685 
L 345.005897 -229.977685 
L 344.252639 -229.977685 
L 343.49938 -229.977685 
L 342.746121 -229.977685 
L 341.992862 -229.977685 
L 341.239603 -229.977685 
L 340.486345 -229.977685 
L 339.733086 -229.977685 
L 338.979827 -229.977685 
L 338.226568 -229.977685 
L 337.473309 -229.977685 
L 336.720051 -229.977685 
L 335.966792 -229.977685 
L 335.213533 -229.977685 
L 334.460274 -229.977685 
L 333.707015 -229.977685 
L 332.953757 -229.977685 
L 332.200498 -229.977685 
L 331.447239 -229.977685 
L 330.69398 -229.977685 
L 329.940721 -229.977685 
L 329.187463 -229.977685 
L 328.434204 -229.977685 
L 327.680945 -229.977685 
L 326.927686 -229.977685 
L 326.174427 -229.977685 
L 325.421169 -229.977685 
L 324.66791 -229.977685 
L 323.914651 -229.977685 
L 323.161392 -229.977685 
L 322.408133 -229.977685 
L 321.654874 -229.977685 
L 320.901616 -229.977685 
L 320.148357 -229.977685 
L 319.395098 -229.977685 
L 318.641839 -229.977685 
L 317.88858 -229.977685 
L 317.135322 -229.977685 
L 316.382063 -229.977685 
L 315.628804 -229.977685 
L 314.875545 -229.977685 
L 314.122286 -229.977685 
L 313.369028 -229.977685 
L 312.615769 -229.977685 
L 311.86251 -229.977685 
L 311.109251 -229.977685 
L 310.355992 -229.977685 
L 309.602734 -229.977685 
L 308.849475 -229.977685 
L 308.096216 -229.977685 
L 307.342957 -229.977685 
L 306.589698 -229.977685 
L 305.83644 -229.977685 
L 305.083181 -229.977685 
L 304.329922 -229.977685 
L 303.576663 -229.977685 
L 302.823404 -229.977685 
L 302.070146 -229.977685 
L 301.316887 -229.977685 
L 300.563628 -229.977685 
L 299.810369 -229.977685 
L 299.05711 -229.977685 
L 298.303852 -229.977685 
L 297.550593 -229.977685 
L 296.797334 -229.977685 
L 296.044075 -229.977685 
L 295.290816 -229.977685 
L 294.537557 -229.977685 
L 293.784299 -229.977685 
L 293.03104 -229.977685 
L 292.277781 -229.977685 
L 291.524522 -229.977685 
L 290.771263 -229.977685 
L 290.018005 -229.977685 
L 289.264746 -229.977685 
L 288.511487 -229.977685 
L 287.758228 -229.977685 
L 287.004969 -229.977685 
L 286.251711 -229.977685 
L 285.498452 -229.977685 
L 284.745193 -229.977685 
L 283.991934 -229.977685 
L 283.238675 -229.977685 
L 282.485417 -229.977685 
L 281.732158 -229.977685 
L 280.978899 -229.977685 
L 280.22564 -229.977685 
L 279.472381 -229.977685 
L 278.719123 -229.977685 
L 277.965864 -229.977685 
L 277.212605 -229.977685 
L 276.459346 -229.977685 
L 275.706087 -229.977685 
L 274.952829 -229.977685 
L 274.19957 -229.977685 
L 273.446311 -229.977685 
L 272.693052 -229.977685 
L 271.939793 -229.977685 
L 271.186534 -229.977685 
L 270.433276 -229.977685 
L 269.680017 -229.977685 
L 268.926758 -229.977685 
L 268.173499 -229.977685 
L 267.42024 -229.977685 
L 266.666982 -229.977685 
L 265.913723 -229.977685 
L 265.160464 -229.977685 
L 264.407205 -229.977685 
L 263.653946 -229.977685 
L 262.900688 -229.977685 
L 262.147429 -229.977685 
L 261.39417 -229.977685 
L 260.640911 -229.977685 
L 259.887652 -229.977685 
L 259.134394 -229.977685 
L 258.381135 -229.977685 
L 257.627876 -229.977685 
L 256.874617 -229.977685 
L 256.121358 -229.977685 
L 255.3681 -229.977685 
L 254.614841 -229.977685 
L 253.861582 -229.977685 
L 253.108323 -229.977685 
L 252.355064 -229.977685 
L 251.601806 -229.977685 
L 250.848547 -229.977685 
L 250.095288 -229.977685 
L 249.342029 -229.977685 
L 248.58877 -229.977685 
L 247.835511 -229.977685 
L 247.082253 -229.977685 
L 246.328994 -229.977685 
L 245.575735 -229.977685 
L 244.822476 -229.977685 
L 244.069217 -229.977685 
L 243.315959 -229.977685 
L 242.5627 -229.977685 
L 241.809441 -229.977685 
L 241.056182 -229.977685 
L 240.302923 -229.977685 
L 239.549665 -229.977685 
L 238.796406 -229.977685 
L 238.043147 -229.977685 
L 237.289888 -229.977685 
L 236.536629 -229.977685 
L 235.783371 -229.977685 
L 235.030112 -229.977685 
L 234.276853 -229.977685 
L 233.523594 -229.977685 
L 232.770335 -229.977685 
L 232.017077 -229.977685 
L 231.263818 -229.977685 
L 230.510559 -229.977685 
L 229.7573 -229.977685 
L 229.004041 -229.977685 
L 228.250783 -229.977685 
L 227.497524 -229.977685 
L 226.744265 -229.977685 
L 225.991006 -229.977685 
L 225.237747 -229.977685 
L 224.484489 -229.977685 
L 223.73123 -229.977685 
L 222.977971 -229.977685 
L 222.224712 -229.977685 
L 221.471453 -229.977685 
L 220.718194 -229.977685 
L 219.964936 -229.977685 
L 219.211677 -229.977685 
L 218.458418 -229.977685 
L 217.705159 -229.977685 
L 216.9519 -229.977685 
L 216.198642 -229.977685 
L 215.445383 -229.977685 
L 214.692124 -229.977685 
L 213.938865 -229.977685 
L 213.185606 -229.977685 
L 212.432348 -229.977685 
L 211.679089 -229.977685 
L 210.92583 -229.977685 
L 210.172571 -229.977685 
L 209.419312 -229.977685 
L 208.666054 -229.977685 
L 207.912795 -229.977685 
L 207.159536 -229.977685 
L 206.406277 -229.977685 
L 205.653018 -229.977685 
L 204.89976 -229.977685 
L 204.146501 -229.977685 
L 203.393242 -229.977685 
L 202.639983 -229.977685 
L 201.886724 -229.977685 
L 201.133466 -229.977685 
L 200.380207 -229.977685 
L 199.626948 -229.977685 
L 198.873689 -229.977685 
L 198.12043 -229.977685 
L 197.367171 -229.977685 
L 196.613913 -229.977685 
L 195.860654 -229.977685 
L 195.107395 -229.977685 
L 194.354136 -229.977685 
L 193.600877 -229.977685 
L 192.847619 -229.977685 
L 192.09436 -229.977685 
L 191.341101 -229.977685 
L 190.587842 -229.977685 
L 189.834583 -229.977685 
L 189.081325 -229.977685 
L 188.328066 -229.977685 
L 187.574807 -229.977685 
L 186.821548 -229.977685 
L 186.068289 -229.977685 
L 185.315031 -229.977685 
L 184.561772 -229.977685 
L 183.808513 -229.977685 
L 183.055254 -229.977685 
L 182.301995 -229.977685 
L 181.548737 -229.977685 
L 180.795478 -229.977685 
L 180.042219 -229.977685 
L 179.28896 -229.977685 
L 178.535701 -229.977685 
L 177.782443 -229.977685 
L 177.029184 -229.977685 
L 176.275925 -229.977685 
L 175.522666 -229.977685 
L 174.769407 -229.977685 
L 174.016148 -229.977685 
L 173.26289 -229.977685 
L 172.509631 -229.977685 
L 171.756372 -229.977685 
L 171.003113 -229.977685 
L 170.249854 -229.977685 
L 169.496596 -229.977685 
L 168.743337 -229.977685 
L 167.990078 -229.977685 
L 167.236819 -229.977685 
L 166.48356 -229.977685 
L 165.730302 -229.977685 
L 164.977043 -229.977685 
L 164.223784 -229.977685 
L 163.470525 -229.977685 
L 162.717266 -229.977685 
L 161.964008 -229.977685 
L 161.210749 -229.977685 
L 160.45749 -229.977685 
L 159.704231 -229.977685 
L 158.950972 -229.977685 
L 158.197714 -229.977685 
L 157.444455 -229.977685 
L 156.691196 -229.977685 
L 155.937937 -229.977685 
L 155.184678 -229.977685 
L 154.43142 -229.977685 
L 153.678161 -229.977685 
L 152.924902 -229.977685 
L 152.171643 -229.977685 
L 151.418384 -229.977685 
L 150.665126 -229.977685 
L 149.911867 -229.977685 
L 149.158608 -229.977685 
L 148.405349 -229.977685 
L 147.65209 -229.977685 
L 146.898831 -229.977685 
L 146.145573 -229.977685 
L 145.392314 -229.977685 
L 144.639055 -229.977685 
L 143.885796 -229.977685 
L 143.132537 -229.977685 
L 142.379279 -229.977685 
L 141.62602 -229.977685 
L 140.872761 -229.977685 
L 140.119502 -229.977685 
L 139.366243 -229.977685 
L 138.612985 -229.977685 
L 137.859726 -229.977685 
L 137.106467 -229.977685 
L 136.353208 -229.977685 
L 135.599949 -229.977685 
L 134.846691 -229.977685 
L 134.093432 -229.977685 
L 133.340173 -229.977685 
L 132.586914 -229.977685 
L 131.833655 -229.977685 
L 131.080397 -229.977685 
L 130.327138 -229.977685 
L 129.573879 -229.977685 
L 128.82062 -229.977685 
L 128.067361 -229.977685 
L 127.314103 -229.977685 
L 126.560844 -229.977685 
L 125.807585 -229.977685 
L 125.054326 -229.977685 
L 124.301067 -229.977685 
L 123.547808 -229.977685 
L 122.79455 -229.977685 
L 122.041291 -229.977685 
L 121.288032 -229.977685 
L 120.534773 -229.977685 
L 119.781514 -229.977685 
L 119.028256 -229.977685 
L 118.274997 -229.977685 
L 117.521738 -229.977685 
L 116.768479 -229.977685 
L 116.01522 -229.977685 
L 115.261962 -229.977685 
L 114.508703 -229.977685 
L 113.755444 -229.977685 
L 113.002185 -229.977685 
L 112.248926 -229.977685 
L 111.495668 -229.977685 
L 110.742409 -229.977685 
L 109.98915 -229.977685 
L 109.235891 -229.977685 
L 108.482632 -229.977685 
L 107.729374 -229.977685 
L 106.976115 -229.977685 
L 106.222856 -229.977685 
L 105.469597 -229.977685 
L 104.716338 -229.977685 
L 103.96308 -229.977685 
L 103.209821 -229.977685 
L 102.456562 -229.977685 
L 101.703303 -229.977685 
L 100.950044 -229.977685 
L 100.196785 -229.977685 
L 99.443527 -229.977685 
L 98.690268 -229.977685 
L 97.937009 -229.977685 
L 97.18375 -229.977685 
L 96.430491 -229.977685 
L 95.677233 -229.977685 
L 94.923974 -229.977685 
L 94.170715 -229.977685 
L 93.417456 -229.977685 
L 92.664197 -229.977685 
L 91.910939 -229.977685 
L 91.15768 -229.977685 
L 90.404421 -229.977685 
L 89.651162 -229.977685 
L 88.897903 -229.977685 
L 88.144645 -229.977685 
L 87.391386 -229.977685 
L 86.638127 -229.977685 
L 85.884868 -229.977685 
L 85.131609 -229.977685 
L 84.378351 -229.977685 
L 83.625092 -229.977685 
L 82.871833 -229.977685 
L 82.118574 -229.977685 
L 81.365315 -229.977685 
L 80.612057 -229.977685 
L 79.858798 -229.977685 
L 79.105539 -229.977685 
L 78.35228 -229.977685 
L 77.599021 -229.977685 
L 76.845762 -229.977685 
L 76.092504 -229.977685 
L 75.339245 -229.977685 
L 74.585986 -229.977685 
L 73.832727 -229.977685 
z
" id="m1b0abd4193" style="stroke:#4b0082;stroke-opacity:0.3;"/>
    </defs>
    <g clip-path="url(#p931a1b7064)">
     <use style="fill:#4b0082;fill-opacity:0.3;stroke:#4b0082;stroke-opacity:0.3;" x="0" xlink:href="#m1b0abd4193" y="345.6"/>
    </g>
   </g>
   <g id="matplotlib.axis_1">
    <g id="xtick_1">
     <g id="line2d_1">
      <defs>
       <path d="M 0 0 
L 0 3.5 
" id="mede920a714" style="stroke:#000000;stroke-width:0.8;"/>
      </defs>
      <g>
       <use style="stroke:#000000;stroke-width:0.8;" x="73.832727" xlink:href="#mede920a714" y="307.584"/>
      </g>
     </g>
     <g id="text_1">
      <!-- 2020-01 -->
      <g transform="translate(52.941321 322.182437)scale(0.1 -0.1)">
       <defs>
        <path d="M 19.1875 8.296875 
L 53.609375 8.296875 
L 53.609375 0 
L 7.328125 0 
L 7.328125 8.296875 
Q 12.9375 14.109375 22.625 23.890625 
Q 32.328125 33.6875 34.8125 36.53125 
Q 39.546875 41.84375 41.421875 45.53125 
Q 43.3125 49.21875 43.3125 52.78125 
Q 43.3125 58.59375 39.234375 62.25 
Q 35.15625 65.921875 28.609375 65.921875 
Q 23.96875 65.921875 18.8125 64.3125 
Q 13.671875 62.703125 7.8125 59.421875 
L 7.8125 69.390625 
Q 13.765625 71.78125 18.9375 73 
Q 24.125 74.21875 28.421875 74.21875 
Q 39.75 74.21875 46.484375 68.546875 
Q 53.21875 62.890625 53.21875 53.421875 
Q 53.21875 48.921875 51.53125 44.890625 
Q 49.859375 40.875 45.40625 35.40625 
Q 44.1875 33.984375 37.640625 27.21875 
Q 31.109375 20.453125 19.1875 8.296875 
z
" id="DejaVuSans-50"/>
        <path d="M 31.78125 66.40625 
Q 24.171875 66.40625 20.328125 58.90625 
Q 16.5 51.421875 16.5 36.375 
Q 16.5 21.390625 20.328125 13.890625 
Q 24.171875 6.390625 31.78125 6.390625 
Q 39.453125 6.390625 43.28125 13.890625 
Q 47.125 21.390625 47.125 36.375 
Q 47.125 51.421875 43.28125 58.90625 
Q 39.453125 66.40625 31.78125 66.40625 
z
M 31.78125 74.21875 
Q 44.046875 74.21875 50.515625 64.515625 
Q 56.984375 54.828125 56.984375 36.375 
Q 56.984375 17.96875 50.515625 8.265625 
Q 44.046875 -1.421875 31.78125 -1.421875 
Q 19.53125 -1.421875 13.0625 8.265625 
Q 6.59375 17.96875 6.59375 36.375 
Q 6.59375 54.828125 13.0625 64.515625 
Q 19.53125 74.21875 31.78125 74.21875 
z
" id="DejaVuSans-48"/>
        <path d="M 4.890625 31.390625 
L 31.203125 31.390625 
L 31.203125 23.390625 
L 4.890625 23.390625 
z
" id="DejaVuSans-45"/>
        <path d="M 12.40625 8.296875 
L 28.515625 8.296875 
L 28.515625 63.921875 
L 10.984375 60.40625 
L 10.984375 69.390625 
L 28.421875 72.90625 
L 38.28125 72.90625 
L 38.28125 8.296875 
L 54.390625 8.296875 
L 54.390625 0 
L 12.40625 0 
z
" id="DejaVuSans-49"/>
       </defs>
       <use xlink:href="#DejaVuSans-50"/>
       <use x="63.623047" xlink:href="#DejaVuSans-48"/>
       <use x="127.246094" xlink:href="#DejaVuSans-50"/>
       <use x="190.869141" xlink:href="#DejaVuSans-48"/>
       <use x="254.492188" xlink:href="#DejaVuSans-45"/>
       <use x="290.576172" xlink:href="#DejaVuSans-48"/>
       <use x="354.199219" xlink:href="#DejaVuSans-49"/>
      </g>
     </g>
    </g>
    <g id="xtick_2">
     <g id="line2d_2">
      <g>
       <use style="stroke:#000000;stroke-width:0.8;" x="119.028256" xlink:href="#mede920a714" y="307.584"/>
      </g>
     </g>
     <g id="text_2">
      <!-- 2020-03 -->
      <g transform="translate(98.136849 322.182437)scale(0.1 -0.1)">
       <defs>
        <path d="M 40.578125 39.3125 
Q 47.65625 37.796875 51.625 33 
Q 55.609375 28.21875 55.609375 21.1875 
Q 55.609375 10.40625 48.1875 4.484375 
Q 40.765625 -1.421875 27.09375 -1.421875 
Q 22.515625 -1.421875 17.65625 -0.515625 
Q 12.796875 0.390625 7.625 2.203125 
L 7.625 11.71875 
Q 11.71875 9.328125 16.59375 8.109375 
Q 21.484375 6.890625 26.8125 6.890625 
Q 36.078125 6.890625 40.9375 10.546875 
Q 45.796875 14.203125 45.796875 21.1875 
Q 45.796875 27.640625 41.28125 31.265625 
Q 36.765625 34.90625 28.71875 34.90625 
L 20.21875 34.90625 
L 20.21875 43.015625 
L 29.109375 43.015625 
Q 36.375 43.015625 40.234375 45.921875 
Q 44.09375 48.828125 44.09375 54.296875 
Q 44.09375 59.90625 40.109375 62.90625 
Q 36.140625 65.921875 28.71875 65.921875 
Q 24.65625 65.921875 20.015625 65.03125 
Q 15.375 64.15625 9.8125 62.3125 
L 9.8125 71.09375 
Q 15.4375 72.65625 20.34375 73.4375 
Q 25.25 74.21875 29.59375 74.21875 
Q 40.828125 74.21875 47.359375 69.109375 
Q 53.90625 64.015625 53.90625 55.328125 
Q 53.90625 49.265625 50.4375 45.09375 
Q 46.96875 40.921875 40.578125 39.3125 
z
" id="DejaVuSans-51"/>
       </defs>
       <use xlink:href="#DejaVuSans-50"/>
       <use x="63.623047" xlink:href="#DejaVuSans-48"/>
       <use x="127.246094" xlink:href="#DejaVuSans-50"/>
       <use x="190.869141" xlink:href="#DejaVuSans-48"/>
       <use x="254.492188" xlink:href="#DejaVuSans-45"/>
       <use x="290.576172" xlink:href="#DejaVuSans-48"/>
       <use x="354.199219" xlink:href="#DejaVuSans-51"/>
      </g>
     </g>
    </g>
    <g id="xtick_3">
     <g id="line2d_3">
      <g>
       <use style="stroke:#000000;stroke-width:0.8;" x="164.977043" xlink:href="#mede920a714" y="307.584"/>
      </g>
     </g>
     <g id="text_3">
      <!-- 2020-05 -->
      <g transform="translate(144.085637 322.182437)scale(0.1 -0.1)">
       <defs>
        <path d="M 10.796875 72.90625 
L 49.515625 72.90625 
L 49.515625 64.59375 
L 19.828125 64.59375 
L 19.828125 46.734375 
Q 21.96875 47.46875 24.109375 47.828125 
Q 26.265625 48.1875 28.421875 48.1875 
Q 40.625 48.1875 47.75 41.5 
Q 54.890625 34.8125 54.890625 23.390625 
Q 54.890625 11.625 47.5625 5.09375 
Q 40.234375 -1.421875 26.90625 -1.421875 
Q 22.3125 -1.421875 17.546875 -0.640625 
Q 12.796875 0.140625 7.71875 1.703125 
L 7.71875 11.625 
Q 12.109375 9.234375 16.796875 8.0625 
Q 21.484375 6.890625 26.703125 6.890625 
Q 35.15625 6.890625 40.078125 11.328125 
Q 45.015625 15.765625 45.015625 23.390625 
Q 45.015625 31 40.078125 35.4375 
Q 35.15625 39.890625 26.703125 39.890625 
Q 22.75 39.890625 18.8125 39.015625 
Q 14.890625 38.140625 10.796875 36.28125 
z
" id="DejaVuSans-53"/>
       </defs>
       <use xlink:href="#DejaVuSans-50"/>
       <use x="63.623047" xlink:href="#DejaVuSans-48"/>
       <use x="127.246094" xlink:href="#DejaVuSans-50"/>
       <use x="190.869141" xlink:href="#DejaVuSans-48"/>
       <use x="254.492188" xlink:href="#DejaVuSans-45"/>
       <use x="290.576172" xlink:href="#DejaVuSans-48"/>
       <use x="354.199219" xlink:href="#DejaVuSans-53"/>
      </g>
     </g>
    </g>
    <g id="xtick_4">
     <g id="line2d_4">
      <g>
       <use style="stroke:#000000;stroke-width:0.8;" x="210.92583" xlink:href="#mede920a714" y="307.584"/>
      </g>
     </g>
     <g id="text_4">
      <!-- 2020-07 -->
      <g transform="translate(190.034424 322.182437)scale(0.1 -0.1)">
       <defs>
        <path d="M 8.203125 72.90625 
L 55.078125 72.90625 
L 55.078125 68.703125 
L 28.609375 0 
L 18.3125 0 
L 43.21875 64.59375 
L 8.203125 64.59375 
z
" id="DejaVuSans-55"/>
       </defs>
       <use xlink:href="#DejaVuSans-50"/>
       <use x="63.623047" xlink:href="#DejaVuSans-48"/>
       <use x="127.246094" xlink:href="#DejaVuSans-50"/>
       <use x="190.869141" xlink:href="#DejaVuSans-48"/>
       <use x="254.492188" xlink:href="#DejaVuSans-45"/>
       <use x="290.576172" xlink:href="#DejaVuSans-48"/>
       <use x="354.199219" xlink:href="#DejaVuSans-55"/>
      </g>
     </g>
    </g>
    <g id="xtick_5">
     <g id="line2d_5">
      <g>
       <use style="stroke:#000000;stroke-width:0.8;" x="257.627876" xlink:href="#mede920a714" y="307.584"/>
      </g>
     </g>
     <g id="text_5">
      <!-- 2020-09 -->
      <g transform="translate(236.73647 322.182437)scale(0.1 -0.1)">
       <defs>
        <path d="M 10.984375 1.515625 
L 10.984375 10.5 
Q 14.703125 8.734375 18.5 7.8125 
Q 22.3125 6.890625 25.984375 6.890625 
Q 35.75 6.890625 40.890625 13.453125 
Q 46.046875 20.015625 46.78125 33.40625 
Q 43.953125 29.203125 39.59375 26.953125 
Q 35.25 24.703125 29.984375 24.703125 
Q 19.046875 24.703125 12.671875 31.3125 
Q 6.296875 37.9375 6.296875 49.421875 
Q 6.296875 60.640625 12.9375 67.421875 
Q 19.578125 74.21875 30.609375 74.21875 
Q 43.265625 74.21875 49.921875 64.515625 
Q 56.59375 54.828125 56.59375 36.375 
Q 56.59375 19.140625 48.40625 8.859375 
Q 40.234375 -1.421875 26.421875 -1.421875 
Q 22.703125 -1.421875 18.890625 -0.6875 
Q 15.09375 0.046875 10.984375 1.515625 
z
M 30.609375 32.421875 
Q 37.25 32.421875 41.125 36.953125 
Q 45.015625 41.5 45.015625 49.421875 
Q 45.015625 57.28125 41.125 61.84375 
Q 37.25 66.40625 30.609375 66.40625 
Q 23.96875 66.40625 20.09375 61.84375 
Q 16.21875 57.28125 16.21875 49.421875 
Q 16.21875 41.5 20.09375 36.953125 
Q 23.96875 32.421875 30.609375 32.421875 
z
" id="DejaVuSans-57"/>
       </defs>
       <use xlink:href="#DejaVuSans-50"/>
       <use x="63.623047" xlink:href="#DejaVuSans-48"/>
       <use x="127.246094" xlink:href="#DejaVuSans-50"/>
       <use x="190.869141" xlink:href="#DejaVuSans-48"/>
       <use x="254.492188" xlink:href="#DejaVuSans-45"/>
       <use x="290.576172" xlink:href="#DejaVuSans-48"/>
       <use x="354.199219" xlink:href="#DejaVuSans-57"/>
      </g>
     </g>
    </g>
    <g id="xtick_6">
     <g id="line2d_6">
      <g>
       <use style="stroke:#000000;stroke-width:0.8;" x="303.576663" xlink:href="#mede920a714" y="307.584"/>
      </g>
     </g>
     <g id="text_6">
      <!-- 2020-11 -->
      <g transform="translate(282.685257 322.182437)scale(0.1 -0.1)">
       <use xlink:href="#DejaVuSans-50"/>
       <use x="63.623047" xlink:href="#DejaVuSans-48"/>
       <use x="127.246094" xlink:href="#DejaVuSans-50"/>
       <use x="190.869141" xlink:href="#DejaVuSans-48"/>
       <use x="254.492188" xlink:href="#DejaVuSans-45"/>
       <use x="290.576172" xlink:href="#DejaVuSans-49"/>
       <use x="354.199219" xlink:href="#DejaVuSans-49"/>
      </g>
     </g>
    </g>
    <g id="xtick_7">
     <g id="line2d_7">
      <g>
       <use style="stroke:#000000;stroke-width:0.8;" x="349.52545" xlink:href="#mede920a714" y="307.584"/>
      </g>
     </g>
     <g id="text_7">
      <!-- 2021-01 -->
      <g transform="translate(328.634044 322.182437)scale(0.1 -0.1)">
       <use xlink:href="#DejaVuSans-50"/>
       <use x="63.623047" xlink:href="#DejaVuSans-48"/>
       <use x="127.246094" xlink:href="#DejaVuSans-50"/>
       <use x="190.869141" xlink:href="#DejaVuSans-49"/>
       <use x="254.492188" xlink:href="#DejaVuSans-45"/>
       <use x="290.576172" xlink:href="#DejaVuSans-48"/>
       <use x="354.199219" xlink:href="#DejaVuSans-49"/>
      </g>
     </g>
    </g>
    <g id="xtick_8">
     <g id="line2d_8">
      <g>
       <use style="stroke:#000000;stroke-width:0.8;" x="393.96772" xlink:href="#mede920a714" y="307.584"/>
      </g>
     </g>
     <g id="text_8">
      <!-- 2021-03 -->
      <g transform="translate(373.076314 322.182437)scale(0.1 -0.1)">
       <use xlink:href="#DejaVuSans-50"/>
       <use x="63.623047" xlink:href="#DejaVuSans-48"/>
       <use x="127.246094" xlink:href="#DejaVuSans-50"/>
       <use x="190.869141" xlink:href="#DejaVuSans-49"/>
       <use x="254.492188" xlink:href="#DejaVuSans-45"/>
       <use x="290.576172" xlink:href="#DejaVuSans-48"/>
       <use x="354.199219" xlink:href="#DejaVuSans-51"/>
      </g>
     </g>
    </g>
   </g>
   <g id="matplotlib.axis_2">
    <g id="ytick_1">
     <g id="line2d_9">
      <defs>
       <path d="M 0 0 
L -3.5 0 
" id="mb76c4b9f62" style="stroke:#000000;stroke-width:0.8;"/>
      </defs>
      <g>
       <use style="stroke:#000000;stroke-width:0.8;" x="57.6" xlink:href="#mb76c4b9f62" y="307.584"/>
      </g>
     </g>
     <g id="text_9">
      <!-- 0 -->
      <g transform="translate(44.2375 311.383219)scale(0.1 -0.1)">
       <use xlink:href="#DejaVuSans-48"/>
      </g>
     </g>
    </g>
    <g id="ytick_2">
     <g id="line2d_10">
      <g>
       <use style="stroke:#000000;stroke-width:0.8;" x="57.6" xlink:href="#mb76c4b9f62" y="252.737804"/>
      </g>
     </g>
     <g id="text_10">
      <!-- 20 -->
      <g transform="translate(37.875 256.537023)scale(0.1 -0.1)">
       <use xlink:href="#DejaVuSans-50"/>
       <use x="63.623047" xlink:href="#DejaVuSans-48"/>
      </g>
     </g>
    </g>
    <g id="ytick_3">
     <g id="line2d_11">
      <g>
       <use style="stroke:#000000;stroke-width:0.8;" x="57.6" xlink:href="#mb76c4b9f62" y="197.891609"/>
      </g>
     </g>
     <g id="text_11">
      <!-- 40 -->
      <g transform="translate(37.875 201.690827)scale(0.1 -0.1)">
       <defs>
        <path d="M 37.796875 64.3125 
L 12.890625 25.390625 
L 37.796875 25.390625 
z
M 35.203125 72.90625 
L 47.609375 72.90625 
L 47.609375 25.390625 
L 58.015625 25.390625 
L 58.015625 17.1875 
L 47.609375 17.1875 
L 47.609375 0 
L 37.796875 0 
L 37.796875 17.1875 
L 4.890625 17.1875 
L 4.890625 26.703125 
z
" id="DejaVuSans-52"/>
       </defs>
       <use xlink:href="#DejaVuSans-52"/>
       <use x="63.623047" xlink:href="#DejaVuSans-48"/>
      </g>
     </g>
    </g>
    <g id="ytick_4">
     <g id="line2d_12">
      <g>
       <use style="stroke:#000000;stroke-width:0.8;" x="57.6" xlink:href="#mb76c4b9f62" y="143.045413"/>
      </g>
     </g>
     <g id="text_12">
      <!-- 60 -->
      <g transform="translate(37.875 146.844632)scale(0.1 -0.1)">
       <defs>
        <path d="M 33.015625 40.375 
Q 26.375 40.375 22.484375 35.828125 
Q 18.609375 31.296875 18.609375 23.390625 
Q 18.609375 15.53125 22.484375 10.953125 
Q 26.375 6.390625 33.015625 6.390625 
Q 39.65625 6.390625 43.53125 10.953125 
Q 47.40625 15.53125 47.40625 23.390625 
Q 47.40625 31.296875 43.53125 35.828125 
Q 39.65625 40.375 33.015625 40.375 
z
M 52.59375 71.296875 
L 52.59375 62.3125 
Q 48.875 64.0625 45.09375 64.984375 
Q 41.3125 65.921875 37.59375 65.921875 
Q 27.828125 65.921875 22.671875 59.328125 
Q 17.53125 52.734375 16.796875 39.40625 
Q 19.671875 43.65625 24.015625 45.921875 
Q 28.375 48.1875 33.59375 48.1875 
Q 44.578125 48.1875 50.953125 41.515625 
Q 57.328125 34.859375 57.328125 23.390625 
Q 57.328125 12.15625 50.6875 5.359375 
Q 44.046875 -1.421875 33.015625 -1.421875 
Q 20.359375 -1.421875 13.671875 8.265625 
Q 6.984375 17.96875 6.984375 36.375 
Q 6.984375 53.65625 15.1875 63.9375 
Q 23.390625 74.21875 37.203125 74.21875 
Q 40.921875 74.21875 44.703125 73.484375 
Q 48.484375 72.75 52.59375 71.296875 
z
" id="DejaVuSans-54"/>
       </defs>
       <use xlink:href="#DejaVuSans-54"/>
       <use x="63.623047" xlink:href="#DejaVuSans-48"/>
      </g>
     </g>
    </g>
    <g id="ytick_5">
     <g id="line2d_13">
      <g>
       <use style="stroke:#000000;stroke-width:0.8;" x="57.6" xlink:href="#mb76c4b9f62" y="88.199217"/>
      </g>
     </g>
     <g id="text_13">
      <!-- 80 -->
      <g transform="translate(37.875 91.998436)scale(0.1 -0.1)">
       <defs>
        <path d="M 31.78125 34.625 
Q 24.75 34.625 20.71875 30.859375 
Q 16.703125 27.09375 16.703125 20.515625 
Q 16.703125 13.921875 20.71875 10.15625 
Q 24.75 6.390625 31.78125 6.390625 
Q 38.8125 6.390625 42.859375 10.171875 
Q 46.921875 13.96875 46.921875 20.515625 
Q 46.921875 27.09375 42.890625 30.859375 
Q 38.875 34.625 31.78125 34.625 
z
M 21.921875 38.8125 
Q 15.578125 40.375 12.03125 44.71875 
Q 8.5 49.078125 8.5 55.328125 
Q 8.5 64.0625 14.71875 69.140625 
Q 20.953125 74.21875 31.78125 74.21875 
Q 42.671875 74.21875 48.875 69.140625 
Q 55.078125 64.0625 55.078125 55.328125 
Q 55.078125 49.078125 51.53125 44.71875 
Q 48 40.375 41.703125 38.8125 
Q 48.828125 37.15625 52.796875 32.3125 
Q 56.78125 27.484375 56.78125 20.515625 
Q 56.78125 9.90625 50.3125 4.234375 
Q 43.84375 -1.421875 31.78125 -1.421875 
Q 19.734375 -1.421875 13.25 4.234375 
Q 6.78125 9.90625 6.78125 20.515625 
Q 6.78125 27.484375 10.78125 32.3125 
Q 14.796875 37.15625 21.921875 38.8125 
z
M 18.3125 54.390625 
Q 18.3125 48.734375 21.84375 45.5625 
Q 25.390625 42.390625 31.78125 42.390625 
Q 38.140625 42.390625 41.71875 45.5625 
Q 45.3125 48.734375 45.3125 54.390625 
Q 45.3125 60.0625 41.71875 63.234375 
Q 38.140625 66.40625 31.78125 66.40625 
Q 25.390625 66.40625 21.84375 63.234375 
Q 18.3125 60.0625 18.3125 54.390625 
z
" id="DejaVuSans-56"/>
       </defs>
       <use xlink:href="#DejaVuSans-56"/>
       <use x="63.623047" xlink:href="#DejaVuSans-48"/>
      </g>
     </g>
    </g>
   </g>
   <g id="line2d_14">
    <path clip-path="url(#p931a1b7064)" d="M 85.884868 97.180857 
L 86.638127 95.240129 
L 87.391386 101.231011 
L 88.144645 111.05472 
L 88.897903 124.883952 
L 89.651162 132.829304 
L 90.404421 136.328362 
L 91.910939 145.760011 
L 92.664197 147.647684 
L 93.417456 137.92571 
L 94.170715 132.834745 
L 94.923974 131.873268 
L 95.677233 132.106165 
L 96.430491 136.051707 
L 97.18375 137.270218 
L 97.937009 139.395402 
L 98.690268 134.134065 
L 99.443527 133.931255 
L 100.196785 129.950441 
L 100.950044 118.609277 
L 101.703303 102.453165 
L 102.456562 90.596181 
L 103.209821 86.845899 
L 103.96308 94.176634 
L 104.716338 106.194791 
L 105.469597 114.721453 
L 106.222856 117.812477 
L 106.976115 113.617264 
L 107.729374 124.594831 
L 108.482632 128.917355 
L 109.235891 143.155932 
L 109.98915 137.89166 
L 110.742409 148.531446 
L 111.495668 157.329816 
L 112.248926 174.0161 
L 113.002185 177.542714 
L 114.508703 179.470375 
L 115.261962 189.903437 
L 116.768479 223.598127 
L 117.521738 231.990491 
L 118.274997 231.939126 
L 119.028256 233.370751 
L 119.781514 222.36098 
L 120.534773 224.501859 
L 121.288032 220.053869 
L 122.041291 218.642593 
L 122.79455 205.657371 
L 123.547808 201.326665 
L 125.054326 231.812584 
L 125.807585 241.72446 
L 126.560844 232.199611 
L 127.314103 240.612855 
L 128.067361 241.424569 
L 128.82062 249.208325 
L 129.573879 238.679876 
L 130.327138 243.215844 
L 131.080397 242.820369 
L 131.833655 243.64018 
L 132.586914 234.453335 
L 134.093432 225.013706 
L 134.846691 222.868614 
L 137.106467 195.479727 
L 137.859726 166.556102 
L 138.612985 150.963481 
L 139.366243 129.580226 
L 140.119502 142.683549 
L 140.872761 135.135511 
L 141.62602 135.41523 
L 142.379279 126.911744 
L 143.132537 134.302788 
L 144.639055 145.336331 
L 146.145573 134.113864 
L 146.898831 136.246777 
L 147.65209 139.838494 
L 148.405349 144.399737 
L 149.158608 143.747663 
L 149.911867 144.44097 
L 150.665126 134.959827 
L 151.418384 133.189474 
L 152.171643 133.429506 
L 152.924902 151.878275 
L 153.678161 155.552709 
L 154.43142 159.892933 
L 155.184678 152.555542 
L 155.937937 152.014381 
L 157.444455 180.312631 
L 158.197714 191.165923 
L 158.950972 178.180837 
L 160.45749 140.478895 
L 161.210749 128.6591 
L 161.964008 123.769376 
L 162.717266 120.135051 
L 163.470525 104.722435 
L 164.223784 98.219192 
L 164.977043 87.476194 
L 165.730302 90.820599 
L 166.48356 86.350918 
L 168.743337 61.629179 
L 169.496596 60.174111 
L 170.249854 63.866227 
L 171.003113 72.719846 
L 172.509631 122.501261 
L 173.26289 138.650567 
L 174.016148 144.010338 
L 174.769407 140.187376 
L 175.522666 146.379749 
L 176.275925 148.805714 
L 177.029184 154.150178 
L 178.535701 147.545668 
L 179.28896 151.641774 
L 180.042219 169.653119 
L 180.795478 184.111114 
L 181.548737 192.042823 
L 182.301995 182.555757 
L 183.055254 171.659491 
L 183.808513 166.855454 
L 184.561772 168.004731 
L 185.315031 175.185709 
L 186.068289 173.569367 
L 186.821548 167.319215 
L 187.574807 167.340014 
L 188.328066 163.045118 
L 189.081325 170.183775 
L 189.834583 165.139755 
L 190.587842 162.749529 
L 191.341101 154.842193 
L 192.09436 150.705417 
L 192.847619 145.855158 
L 194.354136 132.222689 
L 195.107395 135.288113 
L 195.860654 150.8913 
L 197.367171 176.488328 
L 198.12043 174.371026 
L 198.873689 190.570543 
L 199.626948 187.433689 
L 200.380207 191.163017 
L 201.133466 186.402032 
L 201.886724 195.615373 
L 202.639983 199.322442 
L 203.393242 201.767711 
L 204.146501 195.055017 
L 204.89976 189.606397 
L 205.653018 188.444761 
L 206.406277 186.937066 
L 207.159536 192.411936 
L 207.912795 192.826695 
L 208.666054 197.730495 
L 209.419312 195.03786 
L 210.172571 194.030465 
L 210.92583 194.714308 
L 211.679089 196.31705 
L 212.432348 191.890874 
L 213.185606 191.430189 
L 213.938865 189.238602 
L 214.692124 192.56974 
L 215.445383 196.991276 
L 216.9519 177.241904 
L 217.705159 162.869433 
L 218.458418 159.040805 
L 219.211677 152.605624 
L 219.964936 154.57206 
L 220.718194 158.568907 
L 221.471453 166.41794 
L 222.977971 166.463501 
L 223.73123 163.434644 
L 224.484489 159.557403 
L 225.237747 172.510475 
L 225.991006 168.758788 
L 226.744265 169.360896 
L 227.497524 141.290076 
L 228.250783 133.739622 
L 229.004041 117.780257 
L 229.7573 112.025191 
L 230.510559 88.091361 
L 232.017077 62.90448 
L 232.770335 61.433657 
L 233.523594 56.518673 
L 234.276853 53.210697 
L 236.536629 100.845054 
L 237.289888 98.978449 
L 238.043147 99.262369 
L 238.796406 98.546979 
L 239.549665 100.20794 
L 240.302923 104.384107 
L 241.056182 114.271701 
L 241.809441 131.001599 
L 242.5627 145.087777 
L 243.315959 149.878631 
L 244.069217 150.955117 
L 244.822476 156.422023 
L 245.575735 148.916936 
L 247.082253 124.880952 
L 249.342029 169.114022 
L 250.095288 171.86023 
L 250.848547 173.997245 
L 251.601806 175.316169 
L 252.355064 175.044294 
L 253.108323 176.462359 
L 253.861582 182.632423 
L 254.614841 186.092069 
L 255.3681 191.152721 
L 256.121358 185.866626 
L 256.874617 193.451999 
L 257.627876 186.380086 
L 258.381135 189.639024 
L 259.134394 197.779689 
L 259.887652 211.177282 
L 260.640911 222.29368 
L 261.39417 217.88952 
L 262.147429 220.48753 
L 262.900688 217.27265 
L 263.653946 216.432807 
L 264.407205 212.632897 
L 265.160464 212.273496 
L 265.913723 210.134888 
L 266.666982 215.940537 
L 267.42024 213.811854 
L 268.173499 215.005027 
L 268.926758 203.408394 
L 271.186534 118.018896 
L 271.939793 116.77981 
L 272.693052 127.205759 
L 274.19957 159.303368 
L 274.952829 153.590937 
L 275.706087 157.6467 
L 276.459346 153.041435 
L 277.212605 151.812259 
L 277.965864 156.968328 
L 278.719123 161.295227 
L 279.472381 173.322649 
L 280.22564 179.979954 
L 281.732158 195.199 
L 282.485417 194.213507 
L 283.238675 178.077206 
L 283.991934 165.018705 
L 284.745193 147.081675 
L 285.498452 149.200605 
L 286.251711 139.639379 
L 287.004969 135.995938 
L 288.511487 114.583609 
L 289.264746 113.703132 
L 290.018005 112.22298 
L 290.771263 108.61816 
L 292.277781 102.329301 
L 293.03104 106.799633 
L 293.784299 103.319209 
L 294.537557 93.694857 
L 296.044075 68.152525 
L 296.797334 66.469976 
L 297.550593 69.483504 
L 298.303852 75.127848 
L 299.05711 79.025421 
L 299.810369 77.046016 
L 300.563628 80.86348 
L 301.316887 83.39225 
L 302.070146 86.812126 
L 302.823404 80.794254 
L 303.576663 76.6971 
L 305.083181 88.437604 
L 305.83644 97.239817 
L 307.342957 89.831813 
L 308.096216 94.474408 
L 308.849475 101.546447 
L 309.602734 111.529424 
L 310.355992 112.589703 
L 311.109251 110.717172 
L 311.86251 105.561306 
L 312.615769 96.695685 
L 313.369028 99.464259 
L 314.122286 104.944694 
L 314.875545 104.408858 
L 316.382063 90.61557 
L 317.135322 94.26363 
L 317.88858 96.185229 
L 319.395098 78.976822 
L 320.148357 72.960344 
L 320.901616 74.880079 
L 321.654874 77.345387 
L 323.161392 129.647383 
L 323.914651 145.20544 
L 324.66791 136.874097 
L 325.421169 125.055757 
L 326.174427 130.17144 
L 326.927686 136.906205 
L 327.680945 145.923997 
L 328.434204 152.623986 
L 329.187463 158.317026 
L 329.940721 162.066938 
L 330.69398 157.725112 
L 332.200498 170.847515 
L 332.953757 168.58614 
L 333.707015 158.874969 
L 334.460274 151.429927 
L 335.213533 152.215503 
L 335.966792 161.019179 
L 336.720051 161.882571 
L 337.473309 153.461808 
L 338.979827 109.922325 
L 339.733086 96.942474 
L 340.486345 92.223142 
L 341.239603 99.701832 
L 341.992862 97.930515 
L 342.746121 98.152721 
L 343.49938 90.037809 
L 344.252639 88.615984 
L 345.005897 80.526389 
L 345.759156 77.605579 
L 346.512415 76.850151 
L 347.265674 77.318981 
L 348.018933 76.76641 
L 349.52545 81.534889 
L 350.278709 80.533255 
L 351.031968 74.766291 
L 351.785227 70.448381 
L 352.538486 68.29583 
L 353.291744 63.964902 
L 354.798262 51.364206 
L 355.551521 53.509591 
L 356.30478 64.617683 
L 357.811297 107.883064 
L 358.564556 120.226069 
L 359.317815 120.360065 
L 360.071074 122.469544 
L 360.824332 131.789248 
L 361.577591 145.126331 
L 362.33085 149.272974 
L 363.084109 152.494566 
L 363.837368 160.568016 
L 364.590626 187.274957 
L 365.343885 207.546394 
L 366.097144 221.41833 
L 366.850403 216.736368 
L 367.603662 208.855449 
L 368.35692 197.570845 
L 369.110179 202.699339 
L 369.863438 209.228779 
L 370.616697 211.439701 
L 371.369956 198.612205 
L 372.123215 191.503901 
L 372.876473 193.002806 
L 373.629732 188.911262 
L 374.382991 176.549063 
L 375.13625 149.18286 
L 376.642767 113.20132 
L 377.396026 111.200965 
L 378.149285 98.815243 
L 378.902544 92.574669 
L 379.655803 81.897548 
L 380.409061 79.729647 
L 381.16232 79.656204 
L 381.915579 82.590903 
L 383.422097 78.507719 
L 384.175355 76.089463 
L 384.928614 78.071318 
L 385.681873 77.95107 
L 386.435132 75.375903 
L 387.188391 73.957961 
L 387.941649 70.481698 
L 388.694908 85.821058 
L 390.201426 137.528173 
L 390.954685 155.36221 
L 391.707943 162.798047 
L 392.461202 173.150366 
L 393.214461 178.913161 
L 393.96772 174.592564 
L 394.720979 174.548913 
L 395.474238 171.647703 
L 396.227496 179.359414 
L 397.734014 203.842781 
L 398.487273 212.272105 
L 398.487273 212.272105 
" style="fill:none;stroke:#ff6347;stroke-linecap:square;stroke-width:1.5;"/>
   </g>
   <g id="patch_3">
    <path d="M 57.6 307.584 
L 57.6 41.472 
" style="fill:none;stroke:#000000;stroke-linecap:square;stroke-linejoin:miter;stroke-width:0.8;"/>
   </g>
   <g id="patch_4">
    <path d="M 414.72 307.584 
L 414.72 41.472 
" style="fill:none;stroke:#000000;stroke-linecap:square;stroke-linejoin:miter;stroke-width:0.8;"/>
   </g>
   <g id="patch_5">
    <path d="M 57.6 307.584 
L 414.72 307.584 
" style="fill:none;stroke:#000000;stroke-linecap:square;stroke-linejoin:miter;stroke-width:0.8;"/>
   </g>
   <g id="patch_6">
    <path d="M 57.6 41.472 
L 414.72 41.472 
" style="fill:none;stroke:#000000;stroke-linecap:square;stroke-linejoin:miter;stroke-width:0.8;"/>
   </g>
   <g id="text_14">
    <!-- Data source: nomics -->
    <g transform="translate(184.91625 35.472)scale(0.1 -0.1)">
     <defs>
      <path d="M 19.671875 64.796875 
L 19.671875 8.109375 
L 31.59375 8.109375 
Q 46.6875 8.109375 53.6875 14.9375 
Q 60.6875 21.78125 60.6875 36.53125 
Q 60.6875 51.171875 53.6875 57.984375 
Q 46.6875 64.796875 31.59375 64.796875 
z
M 9.8125 72.90625 
L 30.078125 72.90625 
Q 51.265625 72.90625 61.171875 64.09375 
Q 71.09375 55.28125 71.09375 36.53125 
Q 71.09375 17.671875 61.125 8.828125 
Q 51.171875 0 30.078125 0 
L 9.8125 0 
z
" id="DejaVuSans-68"/>
      <path d="M 34.28125 27.484375 
Q 23.390625 27.484375 19.1875 25 
Q 14.984375 22.515625 14.984375 16.5 
Q 14.984375 11.71875 18.140625 8.90625 
Q 21.296875 6.109375 26.703125 6.109375 
Q 34.1875 6.109375 38.703125 11.40625 
Q 43.21875 16.703125 43.21875 25.484375 
L 43.21875 27.484375 
z
M 52.203125 31.203125 
L 52.203125 0 
L 43.21875 0 
L 43.21875 8.296875 
Q 40.140625 3.328125 35.546875 0.953125 
Q 30.953125 -1.421875 24.3125 -1.421875 
Q 15.921875 -1.421875 10.953125 3.296875 
Q 6 8.015625 6 15.921875 
Q 6 25.140625 12.171875 29.828125 
Q 18.359375 34.515625 30.609375 34.515625 
L 43.21875 34.515625 
L 43.21875 35.40625 
Q 43.21875 41.609375 39.140625 45 
Q 35.0625 48.390625 27.6875 48.390625 
Q 23 48.390625 18.546875 47.265625 
Q 14.109375 46.140625 10.015625 43.890625 
L 10.015625 52.203125 
Q 14.9375 54.109375 19.578125 55.046875 
Q 24.21875 56 28.609375 56 
Q 40.484375 56 46.34375 49.84375 
Q 52.203125 43.703125 52.203125 31.203125 
z
" id="DejaVuSans-97"/>
      <path d="M 18.3125 70.21875 
L 18.3125 54.6875 
L 36.8125 54.6875 
L 36.8125 47.703125 
L 18.3125 47.703125 
L 18.3125 18.015625 
Q 18.3125 11.328125 20.140625 9.421875 
Q 21.96875 7.515625 27.59375 7.515625 
L 36.8125 7.515625 
L 36.8125 0 
L 27.59375 0 
Q 17.1875 0 13.234375 3.875 
Q 9.28125 7.765625 9.28125 18.015625 
L 9.28125 47.703125 
L 2.6875 47.703125 
L 2.6875 54.6875 
L 9.28125 54.6875 
L 9.28125 70.21875 
z
" id="DejaVuSans-116"/>
      <path id="DejaVuSans-32"/>
      <path d="M 44.28125 53.078125 
L 44.28125 44.578125 
Q 40.484375 46.53125 36.375 47.5 
Q 32.28125 48.484375 27.875 48.484375 
Q 21.1875 48.484375 17.84375 46.4375 
Q 14.5 44.390625 14.5 40.28125 
Q 14.5 37.15625 16.890625 35.375 
Q 19.28125 33.59375 26.515625 31.984375 
L 29.59375 31.296875 
Q 39.15625 29.25 43.1875 25.515625 
Q 47.21875 21.78125 47.21875 15.09375 
Q 47.21875 7.46875 41.1875 3.015625 
Q 35.15625 -1.421875 24.609375 -1.421875 
Q 20.21875 -1.421875 15.453125 -0.5625 
Q 10.6875 0.296875 5.421875 2 
L 5.421875 11.28125 
Q 10.40625 8.6875 15.234375 7.390625 
Q 20.0625 6.109375 24.8125 6.109375 
Q 31.15625 6.109375 34.5625 8.28125 
Q 37.984375 10.453125 37.984375 14.40625 
Q 37.984375 18.0625 35.515625 20.015625 
Q 33.0625 21.96875 24.703125 23.78125 
L 21.578125 24.515625 
Q 13.234375 26.265625 9.515625 29.90625 
Q 5.8125 33.546875 5.8125 39.890625 
Q 5.8125 47.609375 11.28125 51.796875 
Q 16.75 56 26.8125 56 
Q 31.78125 56 36.171875 55.265625 
Q 40.578125 54.546875 44.28125 53.078125 
z
" id="DejaVuSans-115"/>
      <path d="M 30.609375 48.390625 
Q 23.390625 48.390625 19.1875 42.75 
Q 14.984375 37.109375 14.984375 27.296875 
Q 14.984375 17.484375 19.15625 11.84375 
Q 23.34375 6.203125 30.609375 6.203125 
Q 37.796875 6.203125 41.984375 11.859375 
Q 46.1875 17.53125 46.1875 27.296875 
Q 46.1875 37.015625 41.984375 42.703125 
Q 37.796875 48.390625 30.609375 48.390625 
z
M 30.609375 56 
Q 42.328125 56 49.015625 48.375 
Q 55.71875 40.765625 55.71875 27.296875 
Q 55.71875 13.875 49.015625 6.21875 
Q 42.328125 -1.421875 30.609375 -1.421875 
Q 18.84375 -1.421875 12.171875 6.21875 
Q 5.515625 13.875 5.515625 27.296875 
Q 5.515625 40.765625 12.171875 48.375 
Q 18.84375 56 30.609375 56 
z
" id="DejaVuSans-111"/>
      <path d="M 8.5 21.578125 
L 8.5 54.6875 
L 17.484375 54.6875 
L 17.484375 21.921875 
Q 17.484375 14.15625 20.5 10.265625 
Q 23.53125 6.390625 29.59375 6.390625 
Q 36.859375 6.390625 41.078125 11.03125 
Q 45.3125 15.671875 45.3125 23.6875 
L 45.3125 54.6875 
L 54.296875 54.6875 
L 54.296875 0 
L 45.3125 0 
L 45.3125 8.40625 
Q 42.046875 3.421875 37.71875 1 
Q 33.40625 -1.421875 27.6875 -1.421875 
Q 18.265625 -1.421875 13.375 4.4375 
Q 8.5 10.296875 8.5 21.578125 
z
M 31.109375 56 
z
" id="DejaVuSans-117"/>
      <path d="M 41.109375 46.296875 
Q 39.59375 47.171875 37.8125 47.578125 
Q 36.03125 48 33.890625 48 
Q 26.265625 48 22.1875 43.046875 
Q 18.109375 38.09375 18.109375 28.8125 
L 18.109375 0 
L 9.078125 0 
L 9.078125 54.6875 
L 18.109375 54.6875 
L 18.109375 46.1875 
Q 20.953125 51.171875 25.484375 53.578125 
Q 30.03125 56 36.53125 56 
Q 37.453125 56 38.578125 55.875 
Q 39.703125 55.765625 41.0625 55.515625 
z
" id="DejaVuSans-114"/>
      <path d="M 48.78125 52.59375 
L 48.78125 44.1875 
Q 44.96875 46.296875 41.140625 47.34375 
Q 37.3125 48.390625 33.40625 48.390625 
Q 24.65625 48.390625 19.8125 42.84375 
Q 14.984375 37.3125 14.984375 27.296875 
Q 14.984375 17.28125 19.8125 11.734375 
Q 24.65625 6.203125 33.40625 6.203125 
Q 37.3125 6.203125 41.140625 7.25 
Q 44.96875 8.296875 48.78125 10.40625 
L 48.78125 2.09375 
Q 45.015625 0.34375 40.984375 -0.53125 
Q 36.96875 -1.421875 32.421875 -1.421875 
Q 20.0625 -1.421875 12.78125 6.34375 
Q 5.515625 14.109375 5.515625 27.296875 
Q 5.515625 40.671875 12.859375 48.328125 
Q 20.21875 56 33.015625 56 
Q 37.15625 56 41.109375 55.140625 
Q 45.0625 54.296875 48.78125 52.59375 
z
" id="DejaVuSans-99"/>
      <path d="M 56.203125 29.59375 
L 56.203125 25.203125 
L 14.890625 25.203125 
Q 15.484375 15.921875 20.484375 11.0625 
Q 25.484375 6.203125 34.421875 6.203125 
Q 39.59375 6.203125 44.453125 7.46875 
Q 49.3125 8.734375 54.109375 11.28125 
L 54.109375 2.78125 
Q 49.265625 0.734375 44.1875 -0.34375 
Q 39.109375 -1.421875 33.890625 -1.421875 
Q 20.796875 -1.421875 13.15625 6.1875 
Q 5.515625 13.8125 5.515625 26.8125 
Q 5.515625 40.234375 12.765625 48.109375 
Q 20.015625 56 32.328125 56 
Q 43.359375 56 49.78125 48.890625 
Q 56.203125 41.796875 56.203125 29.59375 
z
M 47.21875 32.234375 
Q 47.125 39.59375 43.09375 43.984375 
Q 39.0625 48.390625 32.421875 48.390625 
Q 24.90625 48.390625 20.390625 44.140625 
Q 15.875 39.890625 15.1875 32.171875 
z
" id="DejaVuSans-101"/>
      <path d="M 11.71875 12.40625 
L 22.015625 12.40625 
L 22.015625 0 
L 11.71875 0 
z
M 11.71875 51.703125 
L 22.015625 51.703125 
L 22.015625 39.3125 
L 11.71875 39.3125 
z
" id="DejaVuSans-58"/>
      <path d="M 54.890625 33.015625 
L 54.890625 0 
L 45.90625 0 
L 45.90625 32.71875 
Q 45.90625 40.484375 42.875 44.328125 
Q 39.84375 48.1875 33.796875 48.1875 
Q 26.515625 48.1875 22.3125 43.546875 
Q 18.109375 38.921875 18.109375 30.90625 
L 18.109375 0 
L 9.078125 0 
L 9.078125 54.6875 
L 18.109375 54.6875 
L 18.109375 46.1875 
Q 21.34375 51.125 25.703125 53.5625 
Q 30.078125 56 35.796875 56 
Q 45.21875 56 50.046875 50.171875 
Q 54.890625 44.34375 54.890625 33.015625 
z
" id="DejaVuSans-110"/>
      <path d="M 52 44.1875 
Q 55.375 50.25 60.0625 53.125 
Q 64.75 56 71.09375 56 
Q 79.640625 56 84.28125 50.015625 
Q 88.921875 44.046875 88.921875 33.015625 
L 88.921875 0 
L 79.890625 0 
L 79.890625 32.71875 
Q 79.890625 40.578125 77.09375 44.375 
Q 74.3125 48.1875 68.609375 48.1875 
Q 61.625 48.1875 57.5625 43.546875 
Q 53.515625 38.921875 53.515625 30.90625 
L 53.515625 0 
L 44.484375 0 
L 44.484375 32.71875 
Q 44.484375 40.625 41.703125 44.40625 
Q 38.921875 48.1875 33.109375 48.1875 
Q 26.21875 48.1875 22.15625 43.53125 
Q 18.109375 38.875 18.109375 30.90625 
L 18.109375 0 
L 9.078125 0 
L 9.078125 54.6875 
L 18.109375 54.6875 
L 18.109375 46.1875 
Q 21.1875 51.21875 25.484375 53.609375 
Q 29.78125 56 35.6875 56 
Q 41.65625 56 45.828125 52.96875 
Q 50 49.953125 52 44.1875 
z
" id="DejaVuSans-109"/>
      <path d="M 9.421875 54.6875 
L 18.40625 54.6875 
L 18.40625 0 
L 9.421875 0 
z
M 9.421875 75.984375 
L 18.40625 75.984375 
L 18.40625 64.59375 
L 9.421875 64.59375 
z
" id="DejaVuSans-105"/>
     </defs>
     <use xlink:href="#DejaVuSans-68"/>
     <use x="77.001953" xlink:href="#DejaVuSans-97"/>
     <use x="138.28125" xlink:href="#DejaVuSans-116"/>
     <use x="177.490234" xlink:href="#DejaVuSans-97"/>
     <use x="238.769531" xlink:href="#DejaVuSans-32"/>
     <use x="270.556641" xlink:href="#DejaVuSans-115"/>
     <use x="322.65625" xlink:href="#DejaVuSans-111"/>
     <use x="383.837891" xlink:href="#DejaVuSans-117"/>
     <use x="447.216797" xlink:href="#DejaVuSans-114"/>
     <use x="486.080078" xlink:href="#DejaVuSans-99"/>
     <use x="541.060547" xlink:href="#DejaVuSans-101"/>
     <use x="602.583984" xlink:href="#DejaVuSans-58"/>
     <use x="636.275391" xlink:href="#DejaVuSans-32"/>
     <use x="668.0625" xlink:href="#DejaVuSans-110"/>
     <use x="731.441406" xlink:href="#DejaVuSans-111"/>
     <use x="792.623047" xlink:href="#DejaVuSans-109"/>
     <use x="890.035156" xlink:href="#DejaVuSans-105"/>
     <use x="917.818359" xlink:href="#DejaVuSans-99"/>
     <use x="972.798828" xlink:href="#DejaVuSans-115"/>
    </g>
   </g>
   <g id="legend_1">
    <g id="patch_7">
     <path d="M 359.473125 64.150125 
L 407.72 64.150125 
Q 409.72 64.150125 409.72 62.150125 
L 409.72 48.472 
Q 409.72 46.472 407.72 46.472 
L 359.473125 46.472 
Q 357.473125 46.472 357.473125 48.472 
L 357.473125 62.150125 
Q 357.473125 64.150125 359.473125 64.150125 
z
" style="fill:#ffffff;opacity:0.8;stroke:#cccccc;stroke-linejoin:miter;"/>
    </g>
    <g id="line2d_15">
     <path d="M 361.473125 54.570438 
L 381.473125 54.570438 
" style="fill:none;stroke:#ff6347;stroke-linecap:square;stroke-width:1.5;"/>
    </g>
    <g id="line2d_16"/>
    <g id="text_15">
     <!-- RSI -->
     <g transform="translate(389.473125 58.070438)scale(0.1 -0.1)">
      <defs>
       <path d="M 44.390625 34.1875 
Q 47.5625 33.109375 50.5625 29.59375 
Q 53.5625 26.078125 56.59375 19.921875 
L 66.609375 0 
L 56 0 
L 46.6875 18.703125 
Q 43.0625 26.03125 39.671875 28.421875 
Q 36.28125 30.8125 30.421875 30.8125 
L 19.671875 30.8125 
L 19.671875 0 
L 9.8125 0 
L 9.8125 72.90625 
L 32.078125 72.90625 
Q 44.578125 72.90625 50.734375 67.671875 
Q 56.890625 62.453125 56.890625 51.90625 
Q 56.890625 45.015625 53.6875 40.46875 
Q 50.484375 35.9375 44.390625 34.1875 
z
M 19.671875 64.796875 
L 19.671875 38.921875 
L 32.078125 38.921875 
Q 39.203125 38.921875 42.84375 42.21875 
Q 46.484375 45.515625 46.484375 51.90625 
Q 46.484375 58.296875 42.84375 61.546875 
Q 39.203125 64.796875 32.078125 64.796875 
z
" id="DejaVuSans-82"/>
       <path d="M 53.515625 70.515625 
L 53.515625 60.890625 
Q 47.90625 63.578125 42.921875 64.890625 
Q 37.9375 66.21875 33.296875 66.21875 
Q 25.25 66.21875 20.875 63.09375 
Q 16.5 59.96875 16.5 54.203125 
Q 16.5 49.359375 19.40625 46.890625 
Q 22.3125 44.4375 30.421875 42.921875 
L 36.375 41.703125 
Q 47.40625 39.59375 52.65625 34.296875 
Q 57.90625 29 57.90625 20.125 
Q 57.90625 9.515625 50.796875 4.046875 
Q 43.703125 -1.421875 29.984375 -1.421875 
Q 24.8125 -1.421875 18.96875 -0.25 
Q 13.140625 0.921875 6.890625 3.21875 
L 6.890625 13.375 
Q 12.890625 10.015625 18.65625 8.296875 
Q 24.421875 6.59375 29.984375 6.59375 
Q 38.421875 6.59375 43.015625 9.90625 
Q 47.609375 13.234375 47.609375 19.390625 
Q 47.609375 24.75 44.3125 27.78125 
Q 41.015625 30.8125 33.5 32.328125 
L 27.484375 33.5 
Q 16.453125 35.6875 11.515625 40.375 
Q 6.59375 45.0625 6.59375 53.421875 
Q 6.59375 63.09375 13.40625 68.65625 
Q 20.21875 74.21875 32.171875 74.21875 
Q 37.3125 74.21875 42.625 73.28125 
Q 47.953125 72.359375 53.515625 70.515625 
z
" id="DejaVuSans-83"/>
       <path d="M 9.8125 72.90625 
L 19.671875 72.90625 
L 19.671875 0 
L 9.8125 0 
z
" id="DejaVuSans-73"/>
      </defs>
      <use xlink:href="#DejaVuSans-82"/>
      <use x="69.482422" xlink:href="#DejaVuSans-83"/>
      <use x="132.958984" xlink:href="#DejaVuSans-73"/>
     </g>
    </g>
   </g>
  </g>
  <g id="text_16">
   <!-- RSI -->
   <g transform="translate(217.4025 19.0695)scale(0.16 -0.16)">
    <use xlink:href="#DejaVuSans-82"/>
    <use x="69.482422" xlink:href="#DejaVuSans-83"/>
    <use x="132.958984" xlink:href="#DejaVuSans-73"/>
   </g>
  </g>
 </g>
 <defs>
  <clipPath id="p931a1b7064">
   <rect height="266.112" width="357.12" x="57.6" y="41.472"/>
  </clipPath>
 </defs>
</svg>
