<?xml version="1.0" encoding="utf-8" standalone="no"?>
<!DOCTYPE svg PUBLIC "-//W3C//DTD SVG 1.1//EN"
  "http://www.w3.org/Graphics/SVG/1.1/DTD/svg11.dtd">
<!-- Created with matplotlib (https://matplotlib.org/) -->
<svg height="345.6pt" version="1.1" viewBox="0 0 460.8 345.6" width="460.8pt" xmlns="http://www.w3.org/2000/svg" xmlns:xlink="http://www.w3.org/1999/xlink">
 <metadata>
  <rdf:RDF xmlns:cc="http://creativecommons.org/ns#" xmlns:dc="http://purl.org/dc/elements/1.1/" xmlns:rdf="http://www.w3.org/1999/02/22-rdf-syntax-ns#">
   <cc:Work>
    <dc:type rdf:resource="http://purl.org/dc/dcmitype/StillImage"/>
    <dc:date>2021-06-03T02:49:46.614410</dc:date>
    <dc:format>image/svg+xml</dc:format>
    <dc:creator>
     <cc:Agent>
      <dc:title>Matplotlib v3.3.2, https://matplotlib.org/</dc:title>
     </cc:Agent>
    </dc:creator>
   </cc:Work>
  </rdf:RDF>
 </metadata>
 <defs>
  <style type="text/css">*{stroke-linecap:butt;stroke-linejoin:round;}</style>
 </defs>
 <g id="figure_1">
  <g id="patch_1">
   <path d="M 0 345.6 
L 460.8 345.6 
L 460.8 0 
L 0 0 
z
" style="fill:#ffffff;"/>
  </g>
  <g id="axes_1">
   <g id="patch_2">
    <path d="M 57.6 307.584 
L 414.72 307.584 
L 414.72 41.472 
L 57.6 41.472 
z
" style="fill:#ffffff;"/>
   </g>
   <g id="PolyCollection_1">
    <defs>
     <path d="M 73.832727 -228.070136 
L 73.832727 -119.467773 
L 74.460686 -119.467773 
L 75.088644 -119.467773 
L 75.716603 -119.467773 
L 76.344561 -119.467773 
L 76.97252 -119.467773 
L 77.600478 -119.467773 
L 78.228437 -119.467773 
L 78.856395 -119.467773 
L 79.484354 -119.467773 
L 80.112312 -119.467773 
L 80.740271 -119.467773 
L 81.368229 -119.467773 
L 81.996188 -119.467773 
L 82.624146 -119.467773 
L 83.252105 -119.467773 
L 83.880063 -119.467773 
L 84.508022 -119.467773 
L 85.13598 -119.467773 
L 85.763939 -119.467773 
L 86.391897 -119.467773 
L 87.019856 -119.467773 
L 87.647814 -119.467773 
L 88.275773 -119.467773 
L 88.903731 -119.467773 
L 89.53169 -119.467773 
L 90.159648 -119.467773 
L 90.787607 -119.467773 
L 91.415565 -119.467773 
L 92.043524 -119.467773 
L 92.671482 -119.467773 
L 93.299441 -119.467773 
L 93.927399 -119.467773 
L 94.555358 -119.467773 
L 95.183316 -119.467773 
L 95.811275 -119.467773 
L 96.439233 -119.467773 
L 97.067192 -119.467773 
L 97.69515 -119.467773 
L 98.323109 -119.467773 
L 98.951067 -119.467773 
L 99.579026 -119.467773 
L 100.206984 -119.467773 
L 100.834943 -119.467773 
L 101.462901 -119.467773 
L 102.09086 -119.467773 
L 102.718818 -119.467773 
L 103.346777 -119.467773 
L 103.974735 -119.467773 
L 104.602694 -119.467773 
L 105.230652 -119.467773 
L 105.858611 -119.467773 
L 106.486569 -119.467773 
L 107.114528 -119.467773 
L 107.742486 -119.467773 
L 108.370445 -119.467773 
L 108.998403 -119.467773 
L 109.626362 -119.467773 
L 110.25432 -119.467773 
L 110.882279 -119.467773 
L 111.510237 -119.467773 
L 112.138196 -119.467773 
L 112.766154 -119.467773 
L 113.394113 -119.467773 
L 114.022071 -119.467773 
L 114.65003 -119.467773 
L 115.277988 -119.467773 
L 115.905947 -119.467773 
L 116.533905 -119.467773 
L 117.161864 -119.467773 
L 117.789822 -119.467773 
L 118.417781 -119.467773 
L 119.045739 -119.467773 
L 119.673698 -119.467773 
L 120.301656 -119.467773 
L 120.929615 -119.467773 
L 121.557573 -119.467773 
L 122.185532 -119.467773 
L 122.81349 -119.467773 
L 123.441449 -119.467773 
L 124.069407 -119.467773 
L 124.697366 -119.467773 
L 125.325324 -119.467773 
L 125.953283 -119.467773 
L 126.581241 -119.467773 
L 127.2092 -119.467773 
L 127.837158 -119.467773 
L 128.465117 -119.467773 
L 129.093075 -119.467773 
L 129.721034 -119.467773 
L 130.348992 -119.467773 
L 130.976951 -119.467773 
L 131.604909 -119.467773 
L 132.232868 -119.467773 
L 132.860826 -119.467773 
L 133.488785 -119.467773 
L 134.116743 -119.467773 
L 134.744702 -119.467773 
L 135.37266 -119.467773 
L 136.000619 -119.467773 
L 136.628577 -119.467773 
L 137.256536 -119.467773 
L 137.884494 -119.467773 
L 138.512453 -119.467773 
L 139.140411 -119.467773 
L 139.76837 -119.467773 
L 140.396328 -119.467773 
L 141.024287 -119.467773 
L 141.652245 -119.467773 
L 142.280204 -119.467773 
L 142.908162 -119.467773 
L 143.536121 -119.467773 
L 144.164079 -119.467773 
L 144.792038 -119.467773 
L 145.419996 -119.467773 
L 146.047955 -119.467773 
L 146.675913 -119.467773 
L 147.303872 -119.467773 
L 147.93183 -119.467773 
L 148.559789 -119.467773 
L 149.187747 -119.467773 
L 149.815706 -119.467773 
L 150.443664 -119.467773 
L 151.071623 -119.467773 
L 151.699582 -119.467773 
L 152.32754 -119.467773 
L 152.955499 -119.467773 
L 153.583457 -119.467773 
L 154.211416 -119.467773 
L 154.839374 -119.467773 
L 155.467333 -119.467773 
L 156.095291 -119.467773 
L 156.72325 -119.467773 
L 157.351208 -119.467773 
L 157.979167 -119.467773 
L 158.607125 -119.467773 
L 159.235084 -119.467773 
L 159.863042 -119.467773 
L 160.491001 -119.467773 
L 161.118959 -119.467773 
L 161.746918 -119.467773 
L 162.374876 -119.467773 
L 163.002835 -119.467773 
L 163.630793 -119.467773 
L 164.258752 -119.467773 
L 164.88671 -119.467773 
L 165.514669 -119.467773 
L 166.142627 -119.467773 
L 166.770586 -119.467773 
L 167.398544 -119.467773 
L 168.026503 -119.467773 
L 168.654461 -119.467773 
L 169.28242 -119.467773 
L 169.910378 -119.467773 
L 170.538337 -119.467773 
L 171.166295 -119.467773 
L 171.794254 -119.467773 
L 172.422212 -119.467773 
L 173.050171 -119.467773 
L 173.678129 -119.467773 
L 174.306088 -119.467773 
L 174.934046 -119.467773 
L 175.562005 -119.467773 
L 176.189963 -119.467773 
L 176.817922 -119.467773 
L 177.44588 -119.467773 
L 178.073839 -119.467773 
L 178.701797 -119.467773 
L 179.329756 -119.467773 
L 179.957714 -119.467773 
L 180.585673 -119.467773 
L 181.213631 -119.467773 
L 181.84159 -119.467773 
L 182.469548 -119.467773 
L 183.097507 -119.467773 
L 183.725465 -119.467773 
L 184.353424 -119.467773 
L 184.981382 -119.467773 
L 185.609341 -119.467773 
L 186.237299 -119.467773 
L 186.865258 -119.467773 
L 187.493216 -119.467773 
L 188.121175 -119.467773 
L 188.749133 -119.467773 
L 189.377092 -119.467773 
L 190.00505 -119.467773 
L 190.633009 -119.467773 
L 191.260967 -119.467773 
L 191.888926 -119.467773 
L 192.516884 -119.467773 
L 193.144843 -119.467773 
L 193.772801 -119.467773 
L 194.40076 -119.467773 
L 195.028718 -119.467773 
L 195.656677 -119.467773 
L 196.284635 -119.467773 
L 196.912594 -119.467773 
L 197.540552 -119.467773 
L 198.168511 -119.467773 
L 198.796469 -119.467773 
L 199.424428 -119.467773 
L 200.052386 -119.467773 
L 200.680345 -119.467773 
L 201.308303 -119.467773 
L 201.936262 -119.467773 
L 202.56422 -119.467773 
L 203.192179 -119.467773 
L 203.820137 -119.467773 
L 204.448096 -119.467773 
L 205.076054 -119.467773 
L 205.704013 -119.467773 
L 206.331971 -119.467773 
L 206.95993 -119.467773 
L 207.587888 -119.467773 
L 208.215847 -119.467773 
L 208.843805 -119.467773 
L 209.471764 -119.467773 
L 210.099722 -119.467773 
L 210.727681 -119.467773 
L 211.355639 -119.467773 
L 211.983598 -119.467773 
L 212.611556 -119.467773 
L 213.239515 -119.467773 
L 213.867473 -119.467773 
L 214.495432 -119.467773 
L 215.12339 -119.467773 
L 215.751349 -119.467773 
L 216.379307 -119.467773 
L 217.007266 -119.467773 
L 217.635224 -119.467773 
L 218.263183 -119.467773 
L 218.891141 -119.467773 
L 219.5191 -119.467773 
L 220.147058 -119.467773 
L 220.775017 -119.467773 
L 221.402975 -119.467773 
L 222.030934 -119.467773 
L 222.658892 -119.467773 
L 223.286851 -119.467773 
L 223.914809 -119.467773 
L 224.542768 -119.467773 
L 225.170726 -119.467773 
L 225.798685 -119.467773 
L 226.426643 -119.467773 
L 227.054602 -119.467773 
L 227.68256 -119.467773 
L 228.310519 -119.467773 
L 228.938477 -119.467773 
L 229.566436 -119.467773 
L 230.194394 -119.467773 
L 230.822353 -119.467773 
L 231.450311 -119.467773 
L 232.07827 -119.467773 
L 232.706228 -119.467773 
L 233.334187 -119.467773 
L 233.962145 -119.467773 
L 234.590104 -119.467773 
L 235.218062 -119.467773 
L 235.846021 -119.467773 
L 236.473979 -119.467773 
L 237.101938 -119.467773 
L 237.729896 -119.467773 
L 238.357855 -119.467773 
L 238.985813 -119.467773 
L 239.613772 -119.467773 
L 240.24173 -119.467773 
L 240.869689 -119.467773 
L 241.497647 -119.467773 
L 242.125606 -119.467773 
L 242.753564 -119.467773 
L 243.381523 -119.467773 
L 244.009481 -119.467773 
L 244.63744 -119.467773 
L 245.265398 -119.467773 
L 245.893357 -119.467773 
L 246.521315 -119.467773 
L 247.149274 -119.467773 
L 247.777232 -119.467773 
L 248.405191 -119.467773 
L 249.033149 -119.467773 
L 249.661108 -119.467773 
L 250.289066 -119.467773 
L 250.917025 -119.467773 
L 251.544983 -119.467773 
L 252.172942 -119.467773 
L 252.8009 -119.467773 
L 253.428859 -119.467773 
L 254.056817 -119.467773 
L 254.684776 -119.467773 
L 255.312734 -119.467773 
L 255.940693 -119.467773 
L 256.568651 -119.467773 
L 257.19661 -119.467773 
L 257.824568 -119.467773 
L 258.452527 -119.467773 
L 259.080485 -119.467773 
L 259.708444 -119.467773 
L 260.336402 -119.467773 
L 260.964361 -119.467773 
L 261.592319 -119.467773 
L 262.220278 -119.467773 
L 262.848236 -119.467773 
L 263.476195 -119.467773 
L 264.104153 -119.467773 
L 264.732112 -119.467773 
L 265.36007 -119.467773 
L 265.988029 -119.467773 
L 266.615987 -119.467773 
L 267.243946 -119.467773 
L 267.871904 -119.467773 
L 268.499863 -119.467773 
L 269.127821 -119.467773 
L 269.75578 -119.467773 
L 270.383738 -119.467773 
L 271.011697 -119.467773 
L 271.639655 -119.467773 
L 272.267614 -119.467773 
L 272.895572 -119.467773 
L 273.523531 -119.467773 
L 274.151489 -119.467773 
L 274.779448 -119.467773 
L 275.407406 -119.467773 
L 276.035365 -119.467773 
L 276.663323 -119.467773 
L 277.291282 -119.467773 
L 277.91924 -119.467773 
L 278.547199 -119.467773 
L 279.175157 -119.467773 
L 279.803116 -119.467773 
L 280.431074 -119.467773 
L 281.059033 -119.467773 
L 281.686991 -119.467773 
L 282.31495 -119.467773 
L 282.942908 -119.467773 
L 283.570867 -119.467773 
L 284.198825 -119.467773 
L 284.826784 -119.467773 
L 285.454742 -119.467773 
L 286.082701 -119.467773 
L 286.710659 -119.467773 
L 287.338618 -119.467773 
L 287.966576 -119.467773 
L 288.594535 -119.467773 
L 289.222493 -119.467773 
L 289.850452 -119.467773 
L 290.47841 -119.467773 
L 291.106369 -119.467773 
L 291.734327 -119.467773 
L 292.362286 -119.467773 
L 292.990244 -119.467773 
L 293.618203 -119.467773 
L 294.246161 -119.467773 
L 294.87412 -119.467773 
L 295.502078 -119.467773 
L 296.130037 -119.467773 
L 296.757995 -119.467773 
L 297.385954 -119.467773 
L 298.013912 -119.467773 
L 298.641871 -119.467773 
L 299.269829 -119.467773 
L 299.897788 -119.467773 
L 300.525746 -119.467773 
L 301.153705 -119.467773 
L 301.781663 -119.467773 
L 302.409622 -119.467773 
L 303.03758 -119.467773 
L 303.665539 -119.467773 
L 304.293497 -119.467773 
L 304.921456 -119.467773 
L 305.549414 -119.467773 
L 306.177373 -119.467773 
L 306.805331 -119.467773 
L 307.43329 -119.467773 
L 308.061248 -119.467773 
L 308.689207 -119.467773 
L 309.317165 -119.467773 
L 309.945124 -119.467773 
L 310.573082 -119.467773 
L 311.201041 -119.467773 
L 311.828999 -119.467773 
L 312.456958 -119.467773 
L 313.084916 -119.467773 
L 313.712875 -119.467773 
L 314.340833 -119.467773 
L 314.968792 -119.467773 
L 315.59675 -119.467773 
L 316.224709 -119.467773 
L 316.852667 -119.467773 
L 317.480626 -119.467773 
L 318.108584 -119.467773 
L 318.736543 -119.467773 
L 319.364501 -119.467773 
L 319.99246 -119.467773 
L 320.620418 -119.467773 
L 321.248377 -119.467773 
L 321.876336 -119.467773 
L 322.504294 -119.467773 
L 323.132253 -119.467773 
L 323.760211 -119.467773 
L 324.38817 -119.467773 
L 325.016128 -119.467773 
L 325.644087 -119.467773 
L 326.272045 -119.467773 
L 326.900004 -119.467773 
L 327.527962 -119.467773 
L 328.155921 -119.467773 
L 328.783879 -119.467773 
L 329.411838 -119.467773 
L 330.039796 -119.467773 
L 330.667755 -119.467773 
L 331.295713 -119.467773 
L 331.923672 -119.467773 
L 332.55163 -119.467773 
L 333.179589 -119.467773 
L 333.807547 -119.467773 
L 334.435506 -119.467773 
L 335.063464 -119.467773 
L 335.691423 -119.467773 
L 336.319381 -119.467773 
L 336.94734 -119.467773 
L 337.575298 -119.467773 
L 338.203257 -119.467773 
L 338.831215 -119.467773 
L 339.459174 -119.467773 
L 340.087132 -119.467773 
L 340.715091 -119.467773 
L 341.343049 -119.467773 
L 341.971008 -119.467773 
L 342.598966 -119.467773 
L 343.226925 -119.467773 
L 343.854883 -119.467773 
L 344.482842 -119.467773 
L 345.1108 -119.467773 
L 345.738759 -119.467773 
L 346.366717 -119.467773 
L 346.994676 -119.467773 
L 347.622634 -119.467773 
L 348.250593 -119.467773 
L 348.878551 -119.467773 
L 349.50651 -119.467773 
L 350.134468 -119.467773 
L 350.762427 -119.467773 
L 351.390385 -119.467773 
L 352.018344 -119.467773 
L 352.646302 -119.467773 
L 353.274261 -119.467773 
L 353.902219 -119.467773 
L 354.530178 -119.467773 
L 355.158136 -119.467773 
L 355.786095 -119.467773 
L 356.414053 -119.467773 
L 357.042012 -119.467773 
L 357.66997 -119.467773 
L 358.297929 -119.467773 
L 358.925887 -119.467773 
L 359.553846 -119.467773 
L 360.181804 -119.467773 
L 360.809763 -119.467773 
L 361.437721 -119.467773 
L 362.06568 -119.467773 
L 362.693638 -119.467773 
L 363.321597 -119.467773 
L 363.949555 -119.467773 
L 364.577514 -119.467773 
L 365.205472 -119.467773 
L 365.833431 -119.467773 
L 366.461389 -119.467773 
L 367.089348 -119.467773 
L 367.717306 -119.467773 
L 368.345265 -119.467773 
L 368.973223 -119.467773 
L 369.601182 -119.467773 
L 370.22914 -119.467773 
L 370.857099 -119.467773 
L 371.485057 -119.467773 
L 372.113016 -119.467773 
L 372.740974 -119.467773 
L 373.368933 -119.467773 
L 373.996891 -119.467773 
L 374.62485 -119.467773 
L 375.252808 -119.467773 
L 375.880767 -119.467773 
L 376.508725 -119.467773 
L 377.136684 -119.467773 
L 377.764642 -119.467773 
L 378.392601 -119.467773 
L 379.020559 -119.467773 
L 379.648518 -119.467773 
L 380.276476 -119.467773 
L 380.904435 -119.467773 
L 381.532393 -119.467773 
L 382.160352 -119.467773 
L 382.78831 -119.467773 
L 383.416269 -119.467773 
L 384.044227 -119.467773 
L 384.672186 -119.467773 
L 385.300144 -119.467773 
L 385.928103 -119.467773 
L 386.556061 -119.467773 
L 387.18402 -119.467773 
L 387.811978 -119.467773 
L 388.439937 -119.467773 
L 389.067895 -119.467773 
L 389.695854 -119.467773 
L 390.323812 -119.467773 
L 390.951771 -119.467773 
L 391.579729 -119.467773 
L 392.207688 -119.467773 
L 392.835646 -119.467773 
L 393.463605 -119.467773 
L 394.091563 -119.467773 
L 394.719522 -119.467773 
L 395.34748 -119.467773 
L 395.975439 -119.467773 
L 396.603397 -119.467773 
L 397.231356 -119.467773 
L 397.859314 -119.467773 
L 398.487273 -119.467773 
L 398.487273 -228.070136 
L 398.487273 -228.070136 
L 397.859314 -228.070136 
L 397.231356 -228.070136 
L 396.603397 -228.070136 
L 395.975439 -228.070136 
L 395.34748 -228.070136 
L 394.719522 -228.070136 
L 394.091563 -228.070136 
L 393.463605 -228.070136 
L 392.835646 -228.070136 
L 392.207688 -228.070136 
L 391.579729 -228.070136 
L 390.951771 -228.070136 
L 390.323812 -228.070136 
L 389.695854 -228.070136 
L 389.067895 -228.070136 
L 388.439937 -228.070136 
L 387.811978 -228.070136 
L 387.18402 -228.070136 
L 386.556061 -228.070136 
L 385.928103 -228.070136 
L 385.300144 -228.070136 
L 384.672186 -228.070136 
L 384.044227 -228.070136 
L 383.416269 -228.070136 
L 382.78831 -228.070136 
L 382.160352 -228.070136 
L 381.532393 -228.070136 
L 380.904435 -228.070136 
L 380.276476 -228.070136 
L 379.648518 -228.070136 
L 379.020559 -228.070136 
L 378.392601 -228.070136 
L 377.764642 -228.070136 
L 377.136684 -228.070136 
L 376.508725 -228.070136 
L 375.880767 -228.070136 
L 375.252808 -228.070136 
L 374.62485 -228.070136 
L 373.996891 -228.070136 
L 373.368933 -228.070136 
L 372.740974 -228.070136 
L 372.113016 -228.070136 
L 371.485057 -228.070136 
L 370.857099 -228.070136 
L 370.22914 -228.070136 
L 369.601182 -228.070136 
L 368.973223 -228.070136 
L 368.345265 -228.070136 
L 367.717306 -228.070136 
L 367.089348 -228.070136 
L 366.461389 -228.070136 
L 365.833431 -228.070136 
L 365.205472 -228.070136 
L 364.577514 -228.070136 
L 363.949555 -228.070136 
L 363.321597 -228.070136 
L 362.693638 -228.070136 
L 362.06568 -228.070136 
L 361.437721 -228.070136 
L 360.809763 -228.070136 
L 360.181804 -228.070136 
L 359.553846 -228.070136 
L 358.925887 -228.070136 
L 358.297929 -228.070136 
L 357.66997 -228.070136 
L 357.042012 -228.070136 
L 356.414053 -228.070136 
L 355.786095 -228.070136 
L 355.158136 -228.070136 
L 354.530178 -228.070136 
L 353.902219 -228.070136 
L 353.274261 -228.070136 
L 352.646302 -228.070136 
L 352.018344 -228.070136 
L 351.390385 -228.070136 
L 350.762427 -228.070136 
L 350.134468 -228.070136 
L 349.50651 -228.070136 
L 348.878551 -228.070136 
L 348.250593 -228.070136 
L 347.622634 -228.070136 
L 346.994676 -228.070136 
L 346.366717 -228.070136 
L 345.738759 -228.070136 
L 345.1108 -228.070136 
L 344.482842 -228.070136 
L 343.854883 -228.070136 
L 343.226925 -228.070136 
L 342.598966 -228.070136 
L 341.971008 -228.070136 
L 341.343049 -228.070136 
L 340.715091 -228.070136 
L 340.087132 -228.070136 
L 339.459174 -228.070136 
L 338.831215 -228.070136 
L 338.203257 -228.070136 
L 337.575298 -228.070136 
L 336.94734 -228.070136 
L 336.319381 -228.070136 
L 335.691423 -228.070136 
L 335.063464 -228.070136 
L 334.435506 -228.070136 
L 333.807547 -228.070136 
L 333.179589 -228.070136 
L 332.55163 -228.070136 
L 331.923672 -228.070136 
L 331.295713 -228.070136 
L 330.667755 -228.070136 
L 330.039796 -228.070136 
L 329.411838 -228.070136 
L 328.783879 -228.070136 
L 328.155921 -228.070136 
L 327.527962 -228.070136 
L 326.900004 -228.070136 
L 326.272045 -228.070136 
L 325.644087 -228.070136 
L 325.016128 -228.070136 
L 324.38817 -228.070136 
L 323.760211 -228.070136 
L 323.132253 -228.070136 
L 322.504294 -228.070136 
L 321.876336 -228.070136 
L 321.248377 -228.070136 
L 320.620418 -228.070136 
L 319.99246 -228.070136 
L 319.364501 -228.070136 
L 318.736543 -228.070136 
L 318.108584 -228.070136 
L 317.480626 -228.070136 
L 316.852667 -228.070136 
L 316.224709 -228.070136 
L 315.59675 -228.070136 
L 314.968792 -228.070136 
L 314.340833 -228.070136 
L 313.712875 -228.070136 
L 313.084916 -228.070136 
L 312.456958 -228.070136 
L 311.828999 -228.070136 
L 311.201041 -228.070136 
L 310.573082 -228.070136 
L 309.945124 -228.070136 
L 309.317165 -228.070136 
L 308.689207 -228.070136 
L 308.061248 -228.070136 
L 307.43329 -228.070136 
L 306.805331 -228.070136 
L 306.177373 -228.070136 
L 305.549414 -228.070136 
L 304.921456 -228.070136 
L 304.293497 -228.070136 
L 303.665539 -228.070136 
L 303.03758 -228.070136 
L 302.409622 -228.070136 
L 301.781663 -228.070136 
L 301.153705 -228.070136 
L 300.525746 -228.070136 
L 299.897788 -228.070136 
L 299.269829 -228.070136 
L 298.641871 -228.070136 
L 298.013912 -228.070136 
L 297.385954 -228.070136 
L 296.757995 -228.070136 
L 296.130037 -228.070136 
L 295.502078 -228.070136 
L 294.87412 -228.070136 
L 294.246161 -228.070136 
L 293.618203 -228.070136 
L 292.990244 -228.070136 
L 292.362286 -228.070136 
L 291.734327 -228.070136 
L 291.106369 -228.070136 
L 290.47841 -228.070136 
L 289.850452 -228.070136 
L 289.222493 -228.070136 
L 288.594535 -228.070136 
L 287.966576 -228.070136 
L 287.338618 -228.070136 
L 286.710659 -228.070136 
L 286.082701 -228.070136 
L 285.454742 -228.070136 
L 284.826784 -228.070136 
L 284.198825 -228.070136 
L 283.570867 -228.070136 
L 282.942908 -228.070136 
L 282.31495 -228.070136 
L 281.686991 -228.070136 
L 281.059033 -228.070136 
L 280.431074 -228.070136 
L 279.803116 -228.070136 
L 279.175157 -228.070136 
L 278.547199 -228.070136 
L 277.91924 -228.070136 
L 277.291282 -228.070136 
L 276.663323 -228.070136 
L 276.035365 -228.070136 
L 275.407406 -228.070136 
L 274.779448 -228.070136 
L 274.151489 -228.070136 
L 273.523531 -228.070136 
L 272.895572 -228.070136 
L 272.267614 -228.070136 
L 271.639655 -228.070136 
L 271.011697 -228.070136 
L 270.383738 -228.070136 
L 269.75578 -228.070136 
L 269.127821 -228.070136 
L 268.499863 -228.070136 
L 267.871904 -228.070136 
L 267.243946 -228.070136 
L 266.615987 -228.070136 
L 265.988029 -228.070136 
L 265.36007 -228.070136 
L 264.732112 -228.070136 
L 264.104153 -228.070136 
L 263.476195 -228.070136 
L 262.848236 -228.070136 
L 262.220278 -228.070136 
L 261.592319 -228.070136 
L 260.964361 -228.070136 
L 260.336402 -228.070136 
L 259.708444 -228.070136 
L 259.080485 -228.070136 
L 258.452527 -228.070136 
L 257.824568 -228.070136 
L 257.19661 -228.070136 
L 256.568651 -228.070136 
L 255.940693 -228.070136 
L 255.312734 -228.070136 
L 254.684776 -228.070136 
L 254.056817 -228.070136 
L 253.428859 -228.070136 
L 252.8009 -228.070136 
L 252.172942 -228.070136 
L 251.544983 -228.070136 
L 250.917025 -228.070136 
L 250.289066 -228.070136 
L 249.661108 -228.070136 
L 249.033149 -228.070136 
L 248.405191 -228.070136 
L 247.777232 -228.070136 
L 247.149274 -228.070136 
L 246.521315 -228.070136 
L 245.893357 -228.070136 
L 245.265398 -228.070136 
L 244.63744 -228.070136 
L 244.009481 -228.070136 
L 243.381523 -228.070136 
L 242.753564 -228.070136 
L 242.125606 -228.070136 
L 241.497647 -228.070136 
L 240.869689 -228.070136 
L 240.24173 -228.070136 
L 239.613772 -228.070136 
L 238.985813 -228.070136 
L 238.357855 -228.070136 
L 237.729896 -228.070136 
L 237.101938 -228.070136 
L 236.473979 -228.070136 
L 235.846021 -228.070136 
L 235.218062 -228.070136 
L 234.590104 -228.070136 
L 233.962145 -228.070136 
L 233.334187 -228.070136 
L 232.706228 -228.070136 
L 232.07827 -228.070136 
L 231.450311 -228.070136 
L 230.822353 -228.070136 
L 230.194394 -228.070136 
L 229.566436 -228.070136 
L 228.938477 -228.070136 
L 228.310519 -228.070136 
L 227.68256 -228.070136 
L 227.054602 -228.070136 
L 226.426643 -228.070136 
L 225.798685 -228.070136 
L 225.170726 -228.070136 
L 224.542768 -228.070136 
L 223.914809 -228.070136 
L 223.286851 -228.070136 
L 222.658892 -228.070136 
L 222.030934 -228.070136 
L 221.402975 -228.070136 
L 220.775017 -228.070136 
L 220.147058 -228.070136 
L 219.5191 -228.070136 
L 218.891141 -228.070136 
L 218.263183 -228.070136 
L 217.635224 -228.070136 
L 217.007266 -228.070136 
L 216.379307 -228.070136 
L 215.751349 -228.070136 
L 215.12339 -228.070136 
L 214.495432 -228.070136 
L 213.867473 -228.070136 
L 213.239515 -228.070136 
L 212.611556 -228.070136 
L 211.983598 -228.070136 
L 211.355639 -228.070136 
L 210.727681 -228.070136 
L 210.099722 -228.070136 
L 209.471764 -228.070136 
L 208.843805 -228.070136 
L 208.215847 -228.070136 
L 207.587888 -228.070136 
L 206.95993 -228.070136 
L 206.331971 -228.070136 
L 205.704013 -228.070136 
L 205.076054 -228.070136 
L 204.448096 -228.070136 
L 203.820137 -228.070136 
L 203.192179 -228.070136 
L 202.56422 -228.070136 
L 201.936262 -228.070136 
L 201.308303 -228.070136 
L 200.680345 -228.070136 
L 200.052386 -228.070136 
L 199.424428 -228.070136 
L 198.796469 -228.070136 
L 198.168511 -228.070136 
L 197.540552 -228.070136 
L 196.912594 -228.070136 
L 196.284635 -228.070136 
L 195.656677 -228.070136 
L 195.028718 -228.070136 
L 194.40076 -228.070136 
L 193.772801 -228.070136 
L 193.144843 -228.070136 
L 192.516884 -228.070136 
L 191.888926 -228.070136 
L 191.260967 -228.070136 
L 190.633009 -228.070136 
L 190.00505 -228.070136 
L 189.377092 -228.070136 
L 188.749133 -228.070136 
L 188.121175 -228.070136 
L 187.493216 -228.070136 
L 186.865258 -228.070136 
L 186.237299 -228.070136 
L 185.609341 -228.070136 
L 184.981382 -228.070136 
L 184.353424 -228.070136 
L 183.725465 -228.070136 
L 183.097507 -228.070136 
L 182.469548 -228.070136 
L 181.84159 -228.070136 
L 181.213631 -228.070136 
L 180.585673 -228.070136 
L 179.957714 -228.070136 
L 179.329756 -228.070136 
L 178.701797 -228.070136 
L 178.073839 -228.070136 
L 177.44588 -228.070136 
L 176.817922 -228.070136 
L 176.189963 -228.070136 
L 175.562005 -228.070136 
L 174.934046 -228.070136 
L 174.306088 -228.070136 
L 173.678129 -228.070136 
L 173.050171 -228.070136 
L 172.422212 -228.070136 
L 171.794254 -228.070136 
L 171.166295 -228.070136 
L 170.538337 -228.070136 
L 169.910378 -228.070136 
L 169.28242 -228.070136 
L 168.654461 -228.070136 
L 168.026503 -228.070136 
L 167.398544 -228.070136 
L 166.770586 -228.070136 
L 166.142627 -228.070136 
L 165.514669 -228.070136 
L 164.88671 -228.070136 
L 164.258752 -228.070136 
L 163.630793 -228.070136 
L 163.002835 -228.070136 
L 162.374876 -228.070136 
L 161.746918 -228.070136 
L 161.118959 -228.070136 
L 160.491001 -228.070136 
L 159.863042 -228.070136 
L 159.235084 -228.070136 
L 158.607125 -228.070136 
L 157.979167 -228.070136 
L 157.351208 -228.070136 
L 156.72325 -228.070136 
L 156.095291 -228.070136 
L 155.467333 -228.070136 
L 154.839374 -228.070136 
L 154.211416 -228.070136 
L 153.583457 -228.070136 
L 152.955499 -228.070136 
L 152.32754 -228.070136 
L 151.699582 -228.070136 
L 151.071623 -228.070136 
L 150.443664 -228.070136 
L 149.815706 -228.070136 
L 149.187747 -228.070136 
L 148.559789 -228.070136 
L 147.93183 -228.070136 
L 147.303872 -228.070136 
L 146.675913 -228.070136 
L 146.047955 -228.070136 
L 145.419996 -228.070136 
L 144.792038 -228.070136 
L 144.164079 -228.070136 
L 143.536121 -228.070136 
L 142.908162 -228.070136 
L 142.280204 -228.070136 
L 141.652245 -228.070136 
L 141.024287 -228.070136 
L 140.396328 -228.070136 
L 139.76837 -228.070136 
L 139.140411 -228.070136 
L 138.512453 -228.070136 
L 137.884494 -228.070136 
L 137.256536 -228.070136 
L 136.628577 -228.070136 
L 136.000619 -228.070136 
L 135.37266 -228.070136 
L 134.744702 -228.070136 
L 134.116743 -228.070136 
L 133.488785 -228.070136 
L 132.860826 -228.070136 
L 132.232868 -228.070136 
L 131.604909 -228.070136 
L 130.976951 -228.070136 
L 130.348992 -228.070136 
L 129.721034 -228.070136 
L 129.093075 -228.070136 
L 128.465117 -228.070136 
L 127.837158 -228.070136 
L 127.2092 -228.070136 
L 126.581241 -228.070136 
L 125.953283 -228.070136 
L 125.325324 -228.070136 
L 124.697366 -228.070136 
L 124.069407 -228.070136 
L 123.441449 -228.070136 
L 122.81349 -228.070136 
L 122.185532 -228.070136 
L 121.557573 -228.070136 
L 120.929615 -228.070136 
L 120.301656 -228.070136 
L 119.673698 -228.070136 
L 119.045739 -228.070136 
L 118.417781 -228.070136 
L 117.789822 -228.070136 
L 117.161864 -228.070136 
L 116.533905 -228.070136 
L 115.905947 -228.070136 
L 115.277988 -228.070136 
L 114.65003 -228.070136 
L 114.022071 -228.070136 
L 113.394113 -228.070136 
L 112.766154 -228.070136 
L 112.138196 -228.070136 
L 111.510237 -228.070136 
L 110.882279 -228.070136 
L 110.25432 -228.070136 
L 109.626362 -228.070136 
L 108.998403 -228.070136 
L 108.370445 -228.070136 
L 107.742486 -228.070136 
L 107.114528 -228.070136 
L 106.486569 -228.070136 
L 105.858611 -228.070136 
L 105.230652 -228.070136 
L 104.602694 -228.070136 
L 103.974735 -228.070136 
L 103.346777 -228.070136 
L 102.718818 -228.070136 
L 102.09086 -228.070136 
L 101.462901 -228.070136 
L 100.834943 -228.070136 
L 100.206984 -228.070136 
L 99.579026 -228.070136 
L 98.951067 -228.070136 
L 98.323109 -228.070136 
L 97.69515 -228.070136 
L 97.067192 -228.070136 
L 96.439233 -228.070136 
L 95.811275 -228.070136 
L 95.183316 -228.070136 
L 94.555358 -228.070136 
L 93.927399 -228.070136 
L 93.299441 -228.070136 
L 92.671482 -228.070136 
L 92.043524 -228.070136 
L 91.415565 -228.070136 
L 90.787607 -228.070136 
L 90.159648 -228.070136 
L 89.53169 -228.070136 
L 88.903731 -228.070136 
L 88.275773 -228.070136 
L 87.647814 -228.070136 
L 87.019856 -228.070136 
L 86.391897 -228.070136 
L 85.763939 -228.070136 
L 85.13598 -228.070136 
L 84.508022 -228.070136 
L 83.880063 -228.070136 
L 83.252105 -228.070136 
L 82.624146 -228.070136 
L 81.996188 -228.070136 
L 81.368229 -228.070136 
L 80.740271 -228.070136 
L 80.112312 -228.070136 
L 79.484354 -228.070136 
L 78.856395 -228.070136 
L 78.228437 -228.070136 
L 77.600478 -228.070136 
L 76.97252 -228.070136 
L 76.344561 -228.070136 
L 75.716603 -228.070136 
L 75.088644 -228.070136 
L 74.460686 -228.070136 
L 73.832727 -228.070136 
z
" id="m9f330f69d5" style="stroke:#4b0082;stroke-opacity:0.3;"/>
    </defs>
    <g clip-path="url(#p40f159ece9)">
     <use style="fill:#4b0082;fill-opacity:0.3;stroke:#4b0082;stroke-opacity:0.3;" x="0" xlink:href="#m9f330f69d5" y="345.6"/>
    </g>
   </g>
   <g id="matplotlib.axis_1">
    <g id="xtick_1">
     <g id="line2d_1">
      <defs>
       <path d="M 0 0 
L 0 3.5 
" id="m66bf509094" style="stroke:#000000;stroke-width:0.8;"/>
      </defs>
      <g>
       <use style="stroke:#000000;stroke-width:0.8;" x="73.832727" xlink:href="#m66bf509094" y="307.584"/>
      </g>
     </g>
     <g id="text_1">
      <!-- 2020-01 -->
      <g transform="translate(52.941321 322.182437)scale(0.1 -0.1)">
       <defs>
        <path d="M 19.1875 8.296875 
L 53.609375 8.296875 
L 53.609375 0 
L 7.328125 0 
L 7.328125 8.296875 
Q 12.9375 14.109375 22.625 23.890625 
Q 32.328125 33.6875 34.8125 36.53125 
Q 39.546875 41.84375 41.421875 45.53125 
Q 43.3125 49.21875 43.3125 52.78125 
Q 43.3125 58.59375 39.234375 62.25 
Q 35.15625 65.921875 28.609375 65.921875 
Q 23.96875 65.921875 18.8125 64.3125 
Q 13.671875 62.703125 7.8125 59.421875 
L 7.8125 69.390625 
Q 13.765625 71.78125 18.9375 73 
Q 24.125 74.21875 28.421875 74.21875 
Q 39.75 74.21875 46.484375 68.546875 
Q 53.21875 62.890625 53.21875 53.421875 
Q 53.21875 48.921875 51.53125 44.890625 
Q 49.859375 40.875 45.40625 35.40625 
Q 44.1875 33.984375 37.640625 27.21875 
Q 31.109375 20.453125 19.1875 8.296875 
z
" id="DejaVuSans-50"/>
        <path d="M 31.78125 66.40625 
Q 24.171875 66.40625 20.328125 58.90625 
Q 16.5 51.421875 16.5 36.375 
Q 16.5 21.390625 20.328125 13.890625 
Q 24.171875 6.390625 31.78125 6.390625 
Q 39.453125 6.390625 43.28125 13.890625 
Q 47.125 21.390625 47.125 36.375 
Q 47.125 51.421875 43.28125 58.90625 
Q 39.453125 66.40625 31.78125 66.40625 
z
M 31.78125 74.21875 
Q 44.046875 74.21875 50.515625 64.515625 
Q 56.984375 54.828125 56.984375 36.375 
Q 56.984375 17.96875 50.515625 8.265625 
Q 44.046875 -1.421875 31.78125 -1.421875 
Q 19.53125 -1.421875 13.0625 8.265625 
Q 6.59375 17.96875 6.59375 36.375 
Q 6.59375 54.828125 13.0625 64.515625 
Q 19.53125 74.21875 31.78125 74.21875 
z
" id="DejaVuSans-48"/>
        <path d="M 4.890625 31.390625 
L 31.203125 31.390625 
L 31.203125 23.390625 
L 4.890625 23.390625 
z
" id="DejaVuSans-45"/>
        <path d="M 12.40625 8.296875 
L 28.515625 8.296875 
L 28.515625 63.921875 
L 10.984375 60.40625 
L 10.984375 69.390625 
L 28.421875 72.90625 
L 38.28125 72.90625 
L 38.28125 8.296875 
L 54.390625 8.296875 
L 54.390625 0 
L 12.40625 0 
z
" id="DejaVuSans-49"/>
       </defs>
       <use xlink:href="#DejaVuSans-50"/>
       <use x="63.623047" xlink:href="#DejaVuSans-48"/>
       <use x="127.246094" xlink:href="#DejaVuSans-50"/>
       <use x="190.869141" xlink:href="#DejaVuSans-48"/>
       <use x="254.492188" xlink:href="#DejaVuSans-45"/>
       <use x="290.576172" xlink:href="#DejaVuSans-48"/>
       <use x="354.199219" xlink:href="#DejaVuSans-49"/>
      </g>
     </g>
    </g>
    <g id="xtick_2">
     <g id="line2d_2">
      <g>
       <use style="stroke:#000000;stroke-width:0.8;" x="111.510237" xlink:href="#m66bf509094" y="307.584"/>
      </g>
     </g>
     <g id="text_2">
      <!-- 2020-03 -->
      <g transform="translate(90.618831 322.182437)scale(0.1 -0.1)">
       <defs>
        <path d="M 40.578125 39.3125 
Q 47.65625 37.796875 51.625 33 
Q 55.609375 28.21875 55.609375 21.1875 
Q 55.609375 10.40625 48.1875 4.484375 
Q 40.765625 -1.421875 27.09375 -1.421875 
Q 22.515625 -1.421875 17.65625 -0.515625 
Q 12.796875 0.390625 7.625 2.203125 
L 7.625 11.71875 
Q 11.71875 9.328125 16.59375 8.109375 
Q 21.484375 6.890625 26.8125 6.890625 
Q 36.078125 6.890625 40.9375 10.546875 
Q 45.796875 14.203125 45.796875 21.1875 
Q 45.796875 27.640625 41.28125 31.265625 
Q 36.765625 34.90625 28.71875 34.90625 
L 20.21875 34.90625 
L 20.21875 43.015625 
L 29.109375 43.015625 
Q 36.375 43.015625 40.234375 45.921875 
Q 44.09375 48.828125 44.09375 54.296875 
Q 44.09375 59.90625 40.109375 62.90625 
Q 36.140625 65.921875 28.71875 65.921875 
Q 24.65625 65.921875 20.015625 65.03125 
Q 15.375 64.15625 9.8125 62.3125 
L 9.8125 71.09375 
Q 15.4375 72.65625 20.34375 73.4375 
Q 25.25 74.21875 29.59375 74.21875 
Q 40.828125 74.21875 47.359375 69.109375 
Q 53.90625 64.015625 53.90625 55.328125 
Q 53.90625 49.265625 50.4375 45.09375 
Q 46.96875 40.921875 40.578125 39.3125 
z
" id="DejaVuSans-51"/>
       </defs>
       <use xlink:href="#DejaVuSans-50"/>
       <use x="63.623047" xlink:href="#DejaVuSans-48"/>
       <use x="127.246094" xlink:href="#DejaVuSans-50"/>
       <use x="190.869141" xlink:href="#DejaVuSans-48"/>
       <use x="254.492188" xlink:href="#DejaVuSans-45"/>
       <use x="290.576172" xlink:href="#DejaVuSans-48"/>
       <use x="354.199219" xlink:href="#DejaVuSans-51"/>
      </g>
     </g>
    </g>
    <g id="xtick_3">
     <g id="line2d_3">
      <g>
       <use style="stroke:#000000;stroke-width:0.8;" x="149.815706" xlink:href="#m66bf509094" y="307.584"/>
      </g>
     </g>
     <g id="text_3">
      <!-- 2020-05 -->
      <g transform="translate(128.9243 322.182437)scale(0.1 -0.1)">
       <defs>
        <path d="M 10.796875 72.90625 
L 49.515625 72.90625 
L 49.515625 64.59375 
L 19.828125 64.59375 
L 19.828125 46.734375 
Q 21.96875 47.46875 24.109375 47.828125 
Q 26.265625 48.1875 28.421875 48.1875 
Q 40.625 48.1875 47.75 41.5 
Q 54.890625 34.8125 54.890625 23.390625 
Q 54.890625 11.625 47.5625 5.09375 
Q 40.234375 -1.421875 26.90625 -1.421875 
Q 22.3125 -1.421875 17.546875 -0.640625 
Q 12.796875 0.140625 7.71875 1.703125 
L 7.71875 11.625 
Q 12.109375 9.234375 16.796875 8.0625 
Q 21.484375 6.890625 26.703125 6.890625 
Q 35.15625 6.890625 40.078125 11.328125 
Q 45.015625 15.765625 45.015625 23.390625 
Q 45.015625 31 40.078125 35.4375 
Q 35.15625 39.890625 26.703125 39.890625 
Q 22.75 39.890625 18.8125 39.015625 
Q 14.890625 38.140625 10.796875 36.28125 
z
" id="DejaVuSans-53"/>
       </defs>
       <use xlink:href="#DejaVuSans-50"/>
       <use x="63.623047" xlink:href="#DejaVuSans-48"/>
       <use x="127.246094" xlink:href="#DejaVuSans-50"/>
       <use x="190.869141" xlink:href="#DejaVuSans-48"/>
       <use x="254.492188" xlink:href="#DejaVuSans-45"/>
       <use x="290.576172" xlink:href="#DejaVuSans-48"/>
       <use x="354.199219" xlink:href="#DejaVuSans-53"/>
      </g>
     </g>
    </g>
    <g id="xtick_4">
     <g id="line2d_4">
      <g>
       <use style="stroke:#000000;stroke-width:0.8;" x="188.121175" xlink:href="#m66bf509094" y="307.584"/>
      </g>
     </g>
     <g id="text_4">
      <!-- 2020-07 -->
      <g transform="translate(167.229768 322.182437)scale(0.1 -0.1)">
       <defs>
        <path d="M 8.203125 72.90625 
L 55.078125 72.90625 
L 55.078125 68.703125 
L 28.609375 0 
L 18.3125 0 
L 43.21875 64.59375 
L 8.203125 64.59375 
z
" id="DejaVuSans-55"/>
       </defs>
       <use xlink:href="#DejaVuSans-50"/>
       <use x="63.623047" xlink:href="#DejaVuSans-48"/>
       <use x="127.246094" xlink:href="#DejaVuSans-50"/>
       <use x="190.869141" xlink:href="#DejaVuSans-48"/>
       <use x="254.492188" xlink:href="#DejaVuSans-45"/>
       <use x="290.576172" xlink:href="#DejaVuSans-48"/>
       <use x="354.199219" xlink:href="#DejaVuSans-55"/>
      </g>
     </g>
    </g>
    <g id="xtick_5">
     <g id="line2d_5">
      <g>
       <use style="stroke:#000000;stroke-width:0.8;" x="227.054602" xlink:href="#m66bf509094" y="307.584"/>
      </g>
     </g>
     <g id="text_5">
      <!-- 2020-09 -->
      <g transform="translate(206.163195 322.182437)scale(0.1 -0.1)">
       <defs>
        <path d="M 10.984375 1.515625 
L 10.984375 10.5 
Q 14.703125 8.734375 18.5 7.8125 
Q 22.3125 6.890625 25.984375 6.890625 
Q 35.75 6.890625 40.890625 13.453125 
Q 46.046875 20.015625 46.78125 33.40625 
Q 43.953125 29.203125 39.59375 26.953125 
Q 35.25 24.703125 29.984375 24.703125 
Q 19.046875 24.703125 12.671875 31.3125 
Q 6.296875 37.9375 6.296875 49.421875 
Q 6.296875 60.640625 12.9375 67.421875 
Q 19.578125 74.21875 30.609375 74.21875 
Q 43.265625 74.21875 49.921875 64.515625 
Q 56.59375 54.828125 56.59375 36.375 
Q 56.59375 19.140625 48.40625 8.859375 
Q 40.234375 -1.421875 26.421875 -1.421875 
Q 22.703125 -1.421875 18.890625 -0.6875 
Q 15.09375 0.046875 10.984375 1.515625 
z
M 30.609375 32.421875 
Q 37.25 32.421875 41.125 36.953125 
Q 45.015625 41.5 45.015625 49.421875 
Q 45.015625 57.28125 41.125 61.84375 
Q 37.25 66.40625 30.609375 66.40625 
Q 23.96875 66.40625 20.09375 61.84375 
Q 16.21875 57.28125 16.21875 49.421875 
Q 16.21875 41.5 20.09375 36.953125 
Q 23.96875 32.421875 30.609375 32.421875 
z
" id="DejaVuSans-57"/>
       </defs>
       <use xlink:href="#DejaVuSans-50"/>
       <use x="63.623047" xlink:href="#DejaVuSans-48"/>
       <use x="127.246094" xlink:href="#DejaVuSans-50"/>
       <use x="190.869141" xlink:href="#DejaVuSans-48"/>
       <use x="254.492188" xlink:href="#DejaVuSans-45"/>
       <use x="290.576172" xlink:href="#DejaVuSans-48"/>
       <use x="354.199219" xlink:href="#DejaVuSans-57"/>
      </g>
     </g>
    </g>
    <g id="xtick_6">
     <g id="line2d_6">
      <g>
       <use style="stroke:#000000;stroke-width:0.8;" x="265.36007" xlink:href="#m66bf509094" y="307.584"/>
      </g>
     </g>
     <g id="text_6">
      <!-- 2020-11 -->
      <g transform="translate(244.468664 322.182437)scale(0.1 -0.1)">
       <use xlink:href="#DejaVuSans-50"/>
       <use x="63.623047" xlink:href="#DejaVuSans-48"/>
       <use x="127.246094" xlink:href="#DejaVuSans-50"/>
       <use x="190.869141" xlink:href="#DejaVuSans-48"/>
       <use x="254.492188" xlink:href="#DejaVuSans-45"/>
       <use x="290.576172" xlink:href="#DejaVuSans-49"/>
       <use x="354.199219" xlink:href="#DejaVuSans-49"/>
      </g>
     </g>
    </g>
    <g id="xtick_7">
     <g id="line2d_7">
      <g>
       <use style="stroke:#000000;stroke-width:0.8;" x="303.665539" xlink:href="#m66bf509094" y="307.584"/>
      </g>
     </g>
     <g id="text_7">
      <!-- 2021-01 -->
      <g transform="translate(282.774133 322.182437)scale(0.1 -0.1)">
       <use xlink:href="#DejaVuSans-50"/>
       <use x="63.623047" xlink:href="#DejaVuSans-48"/>
       <use x="127.246094" xlink:href="#DejaVuSans-50"/>
       <use x="190.869141" xlink:href="#DejaVuSans-49"/>
       <use x="254.492188" xlink:href="#DejaVuSans-45"/>
       <use x="290.576172" xlink:href="#DejaVuSans-48"/>
       <use x="354.199219" xlink:href="#DejaVuSans-49"/>
      </g>
     </g>
    </g>
    <g id="xtick_8">
     <g id="line2d_8">
      <g>
       <use style="stroke:#000000;stroke-width:0.8;" x="340.715091" xlink:href="#m66bf509094" y="307.584"/>
      </g>
     </g>
     <g id="text_8">
      <!-- 2021-03 -->
      <g transform="translate(319.823684 322.182437)scale(0.1 -0.1)">
       <use xlink:href="#DejaVuSans-50"/>
       <use x="63.623047" xlink:href="#DejaVuSans-48"/>
       <use x="127.246094" xlink:href="#DejaVuSans-50"/>
       <use x="190.869141" xlink:href="#DejaVuSans-49"/>
       <use x="254.492188" xlink:href="#DejaVuSans-45"/>
       <use x="290.576172" xlink:href="#DejaVuSans-48"/>
       <use x="354.199219" xlink:href="#DejaVuSans-51"/>
      </g>
     </g>
    </g>
    <g id="xtick_9">
     <g id="line2d_9">
      <g>
       <use style="stroke:#000000;stroke-width:0.8;" x="379.020559" xlink:href="#m66bf509094" y="307.584"/>
      </g>
     </g>
     <g id="text_9">
      <!-- 2021-05 -->
      <g transform="translate(358.129153 322.182437)scale(0.1 -0.1)">
       <use xlink:href="#DejaVuSans-50"/>
       <use x="63.623047" xlink:href="#DejaVuSans-48"/>
       <use x="127.246094" xlink:href="#DejaVuSans-50"/>
       <use x="190.869141" xlink:href="#DejaVuSans-49"/>
       <use x="254.492188" xlink:href="#DejaVuSans-45"/>
       <use x="290.576172" xlink:href="#DejaVuSans-48"/>
       <use x="354.199219" xlink:href="#DejaVuSans-53"/>
      </g>
     </g>
    </g>
   </g>
   <g id="matplotlib.axis_2">
    <g id="ytick_1">
     <g id="line2d_10">
      <defs>
       <path d="M 0 0 
L -3.5 0 
" id="m5f0a3b7459" style="stroke:#000000;stroke-width:0.8;"/>
      </defs>
      <g>
       <use style="stroke:#000000;stroke-width:0.8;" x="57.6" xlink:href="#m5f0a3b7459" y="307.584"/>
      </g>
     </g>
     <g id="text_10">
      <!-- 0 -->
      <g transform="translate(44.2375 311.383219)scale(0.1 -0.1)">
       <use xlink:href="#DejaVuSans-48"/>
      </g>
     </g>
    </g>
    <g id="ytick_2">
     <g id="line2d_11">
      <g>
       <use style="stroke:#000000;stroke-width:0.8;" x="57.6" xlink:href="#m5f0a3b7459" y="253.282818"/>
      </g>
     </g>
     <g id="text_11">
      <!-- 20 -->
      <g transform="translate(37.875 257.082037)scale(0.1 -0.1)">
       <use xlink:href="#DejaVuSans-50"/>
       <use x="63.623047" xlink:href="#DejaVuSans-48"/>
      </g>
     </g>
    </g>
    <g id="ytick_3">
     <g id="line2d_12">
      <g>
       <use style="stroke:#000000;stroke-width:0.8;" x="57.6" xlink:href="#m5f0a3b7459" y="198.981636"/>
      </g>
     </g>
     <g id="text_12">
      <!-- 40 -->
      <g transform="translate(37.875 202.780855)scale(0.1 -0.1)">
       <defs>
        <path d="M 37.796875 64.3125 
L 12.890625 25.390625 
L 37.796875 25.390625 
z
M 35.203125 72.90625 
L 47.609375 72.90625 
L 47.609375 25.390625 
L 58.015625 25.390625 
L 58.015625 17.1875 
L 47.609375 17.1875 
L 47.609375 0 
L 37.796875 0 
L 37.796875 17.1875 
L 4.890625 17.1875 
L 4.890625 26.703125 
z
" id="DejaVuSans-52"/>
       </defs>
       <use xlink:href="#DejaVuSans-52"/>
       <use x="63.623047" xlink:href="#DejaVuSans-48"/>
      </g>
     </g>
    </g>
    <g id="ytick_4">
     <g id="line2d_13">
      <g>
       <use style="stroke:#000000;stroke-width:0.8;" x="57.6" xlink:href="#m5f0a3b7459" y="144.680455"/>
      </g>
     </g>
     <g id="text_13">
      <!-- 60 -->
      <g transform="translate(37.875 148.479673)scale(0.1 -0.1)">
       <defs>
        <path d="M 33.015625 40.375 
Q 26.375 40.375 22.484375 35.828125 
Q 18.609375 31.296875 18.609375 23.390625 
Q 18.609375 15.53125 22.484375 10.953125 
Q 26.375 6.390625 33.015625 6.390625 
Q 39.65625 6.390625 43.53125 10.953125 
Q 47.40625 15.53125 47.40625 23.390625 
Q 47.40625 31.296875 43.53125 35.828125 
Q 39.65625 40.375 33.015625 40.375 
z
M 52.59375 71.296875 
L 52.59375 62.3125 
Q 48.875 64.0625 45.09375 64.984375 
Q 41.3125 65.921875 37.59375 65.921875 
Q 27.828125 65.921875 22.671875 59.328125 
Q 17.53125 52.734375 16.796875 39.40625 
Q 19.671875 43.65625 24.015625 45.921875 
Q 28.375 48.1875 33.59375 48.1875 
Q 44.578125 48.1875 50.953125 41.515625 
Q 57.328125 34.859375 57.328125 23.390625 
Q 57.328125 12.15625 50.6875 5.359375 
Q 44.046875 -1.421875 33.015625 -1.421875 
Q 20.359375 -1.421875 13.671875 8.265625 
Q 6.984375 17.96875 6.984375 36.375 
Q 6.984375 53.65625 15.1875 63.9375 
Q 23.390625 74.21875 37.203125 74.21875 
Q 40.921875 74.21875 44.703125 73.484375 
Q 48.484375 72.75 52.59375 71.296875 
z
" id="DejaVuSans-54"/>
       </defs>
       <use xlink:href="#DejaVuSans-54"/>
       <use x="63.623047" xlink:href="#DejaVuSans-48"/>
      </g>
     </g>
    </g>
    <g id="ytick_5">
     <g id="line2d_14">
      <g>
       <use style="stroke:#000000;stroke-width:0.8;" x="57.6" xlink:href="#m5f0a3b7459" y="90.379273"/>
      </g>
     </g>
     <g id="text_14">
      <!-- 80 -->
      <g transform="translate(37.875 94.178492)scale(0.1 -0.1)">
       <defs>
        <path d="M 31.78125 34.625 
Q 24.75 34.625 20.71875 30.859375 
Q 16.703125 27.09375 16.703125 20.515625 
Q 16.703125 13.921875 20.71875 10.15625 
Q 24.75 6.390625 31.78125 6.390625 
Q 38.8125 6.390625 42.859375 10.171875 
Q 46.921875 13.96875 46.921875 20.515625 
Q 46.921875 27.09375 42.890625 30.859375 
Q 38.875 34.625 31.78125 34.625 
z
M 21.921875 38.8125 
Q 15.578125 40.375 12.03125 44.71875 
Q 8.5 49.078125 8.5 55.328125 
Q 8.5 64.0625 14.71875 69.140625 
Q 20.953125 74.21875 31.78125 74.21875 
Q 42.671875 74.21875 48.875 69.140625 
Q 55.078125 64.0625 55.078125 55.328125 
Q 55.078125 49.078125 51.53125 44.71875 
Q 48 40.375 41.703125 38.8125 
Q 48.828125 37.15625 52.796875 32.3125 
Q 56.78125 27.484375 56.78125 20.515625 
Q 56.78125 9.90625 50.3125 4.234375 
Q 43.84375 -1.421875 31.78125 -1.421875 
Q 19.734375 -1.421875 13.25 4.234375 
Q 6.78125 9.90625 6.78125 20.515625 
Q 6.78125 27.484375 10.78125 32.3125 
Q 14.796875 37.15625 21.921875 38.8125 
z
M 18.3125 54.390625 
Q 18.3125 48.734375 21.84375 45.5625 
Q 25.390625 42.390625 31.78125 42.390625 
Q 38.140625 42.390625 41.71875 45.5625 
Q 45.3125 48.734375 45.3125 54.390625 
Q 45.3125 60.0625 41.71875 63.234375 
Q 38.140625 66.40625 31.78125 66.40625 
Q 25.390625 66.40625 21.84375 63.234375 
Q 18.3125 60.0625 18.3125 54.390625 
z
" id="DejaVuSans-56"/>
       </defs>
       <use xlink:href="#DejaVuSans-56"/>
       <use x="63.623047" xlink:href="#DejaVuSans-48"/>
      </g>
     </g>
    </g>
   </g>
   <g id="line2d_15">
    <path clip-path="url(#p40f159ece9)" d="M 83.880063 99.422415 
L 84.508022 97.894224 
L 85.13598 103.895116 
L 85.763939 113.799225 
L 86.391897 127.557736 
L 87.019856 135.69303 
L 87.647814 139.297648 
L 88.903731 148.886146 
L 89.53169 150.821516 
L 90.159648 141.041431 
L 90.787607 135.851879 
L 91.415565 135.026208 
L 92.043524 135.226017 
L 92.671482 139.107671 
L 93.299441 139.769035 
L 93.927399 141.930418 
L 94.555358 136.716874 
L 95.183316 136.547353 
L 95.811275 132.775387 
L 96.439233 121.631431 
L 97.067192 106.023397 
L 97.69515 94.282006 
L 98.323109 90.652695 
L 98.951067 97.89838 
L 99.579026 109.829146 
L 100.206984 118.027033 
L 100.834943 120.997373 
L 101.462901 116.647998 
L 102.09086 127.699818 
L 102.718818 131.949323 
L 103.346777 145.987532 
L 103.974735 140.588167 
L 105.230652 159.582761 
L 105.858611 175.785257 
L 106.486569 179.116382 
L 107.114528 179.804078 
L 107.742486 180.897124 
L 108.370445 191.14982 
L 109.626362 224.376954 
L 110.25432 232.721355 
L 110.882279 232.63626 
L 111.510237 233.934455 
L 112.138196 222.878856 
L 112.766154 224.871415 
L 113.394113 220.436461 
L 114.022071 219.027546 
L 114.65003 206.313924 
L 115.277988 202.239326 
L 116.533905 232.473909 
L 117.161864 242.115398 
L 117.789822 232.603081 
L 118.417781 240.9876 
L 119.045739 241.923767 
L 119.673698 249.736566 
L 120.301656 239.203329 
L 120.929615 243.557379 
L 121.557573 243.01475 
L 122.185532 243.745336 
L 122.81349 234.543459 
L 124.069407 225.144378 
L 124.697366 223.046663 
L 126.581241 196.091151 
L 127.2092 167.690871 
L 127.837158 152.3708 
L 128.465117 131.207378 
L 129.093075 144.057613 
L 129.721034 136.777193 
L 130.348992 137.25376 
L 130.976951 129.120026 
L 131.604909 136.413773 
L 132.860826 147.189018 
L 134.116743 136.139757 
L 134.744702 138.37409 
L 135.37266 141.8284 
L 136.000619 146.29477 
L 136.628577 145.505503 
L 137.256536 146.346615 
L 137.884494 137.178337 
L 138.512453 135.582976 
L 139.140411 135.921978 
L 139.76837 153.952457 
L 141.024287 161.69982 
L 141.652245 154.526535 
L 142.280204 153.990928 
L 143.536121 182.011004 
L 144.164079 192.507187 
L 144.792038 179.456271 
L 146.047955 141.965169 
L 146.675913 130.346875 
L 147.303872 125.638033 
L 147.93183 122.223159 
L 148.559789 107.072953 
L 149.187747 100.891327 
L 149.815706 90.483764 
L 150.443664 93.921976 
L 151.071623 89.499612 
L 152.955499 65.160108 
L 153.583457 63.703597 
L 154.211416 67.414329 
L 154.839374 76.302207 
L 156.095291 125.047965 
L 156.72325 140.565156 
L 157.351208 145.825347 
L 157.979167 141.90243 
L 158.607125 147.940977 
L 159.235084 150.262481 
L 159.863042 155.52906 
L 161.118959 148.969452 
L 161.746918 153.05033 
L 162.374876 170.854335 
L 163.002835 185.028326 
L 163.630793 192.632083 
L 164.88671 172.587262 
L 165.514669 168.067911 
L 166.142627 169.2344 
L 166.770586 176.381152 
L 167.398544 174.784009 
L 168.026503 168.706465 
L 168.654461 168.792074 
L 169.28242 164.772517 
L 169.910378 171.997455 
L 170.538337 167.025301 
L 171.166295 164.540647 
L 171.794254 156.602897 
L 172.422212 152.617767 
L 173.050171 147.912374 
L 174.306088 134.551409 
L 174.934046 137.604499 
L 175.562005 152.96276 
L 176.817922 178.147885 
L 177.44588 176.05355 
L 178.073839 191.742288 
L 178.701797 188.170541 
L 179.329756 191.706586 
L 179.957714 187.180803 
L 180.585673 196.676179 
L 181.213631 200.284985 
L 181.84159 202.644915 
L 182.469548 195.898988 
L 183.097507 190.486267 
L 183.725465 189.381627 
L 184.353424 187.918433 
L 184.981382 193.408302 
L 185.609341 193.806572 
L 186.237299 198.638968 
L 186.865258 195.897241 
L 187.493216 194.924627 
L 188.121175 195.590663 
L 188.749133 197.278829 
L 189.377092 192.841438 
L 190.00505 192.340471 
L 190.633009 190.108272 
L 191.260967 193.35454 
L 191.888926 197.791037 
L 193.144843 178.260072 
L 193.772801 164.035993 
L 194.40076 160.271172 
L 195.028718 153.916752 
L 195.656677 155.877659 
L 196.284635 159.785901 
L 196.912594 167.496431 
L 197.540552 167.534164 
L 198.168511 167.835397 
L 198.796469 164.8872 
L 199.424428 160.975137 
L 200.052386 173.62652 
L 200.680345 169.900277 
L 201.308303 170.724432 
L 201.936262 143.035228 
L 202.56422 135.734766 
L 203.192179 120.094694 
L 203.820137 114.615075 
L 204.448096 91.057784 
L 205.704013 65.808851 
L 206.331971 64.262016 
L 206.95993 59.387476 
L 207.587888 56.130388 
L 209.471764 102.877622 
L 210.099722 100.982558 
L 210.727681 101.241888 
L 211.355639 100.560401 
L 211.983598 102.26772 
L 212.611556 106.44346 
L 213.239515 116.23621 
L 214.495432 147.109275 
L 215.12339 151.866953 
L 215.751349 152.70613 
L 216.379307 157.92595 
L 217.007266 150.636971 
L 218.263183 127.105978 
L 220.147058 170.740542 
L 220.775017 173.30762 
L 221.402975 175.347886 
L 222.030934 176.497372 
L 222.658892 176.120014 
L 223.286851 177.374873 
L 223.914809 183.453509 
L 224.542768 186.892377 
L 225.170726 191.976352 
L 225.798685 186.875417 
L 226.426643 194.478556 
L 227.054602 187.696226 
L 227.68256 190.890525 
L 228.310519 198.823847 
L 229.566436 222.508591 
L 230.194394 218.117119 
L 230.822353 220.800197 
L 231.450311 217.566509 
L 232.07827 216.704853 
L 232.706228 212.990429 
L 233.334187 212.700252 
L 233.962145 210.618133 
L 234.590104 216.354167 
L 235.218062 214.235749 
L 235.846021 215.391759 
L 236.473979 203.911041 
L 238.357855 119.861392 
L 238.985813 118.902197 
L 239.613772 129.284313 
L 240.869689 160.942109 
L 241.497647 155.170304 
L 242.125606 159.105616 
L 242.753564 154.535505 
L 243.381523 153.227672 
L 244.63744 162.470089 
L 245.265398 174.487628 
L 245.893357 181.151876 
L 247.149274 196.311781 
L 247.777232 195.188633 
L 248.405191 179.117182 
L 249.033149 166.305931 
L 249.661108 148.868888 
L 250.289066 151.18004 
L 250.917025 141.848673 
L 251.544983 138.31688 
L 252.8009 117.362478 
L 253.428859 116.44577 
L 254.056817 114.962381 
L 254.684776 111.322119 
L 255.940693 105.091537 
L 256.568651 109.579591 
L 257.19661 106.166738 
L 257.824568 96.534111 
L 259.080485 70.951808 
L 259.708444 69.303177 
L 260.336402 72.352928 
L 260.964361 78.020767 
L 261.592319 81.905936 
L 262.220278 79.936643 
L 262.848236 83.74653 
L 263.476195 86.248327 
L 264.104153 89.647215 
L 264.732112 83.621072 
L 265.36007 79.543783 
L 266.615987 91.164561 
L 267.243946 99.924214 
L 268.499863 92.586234 
L 269.127821 97.093129 
L 269.75578 104.037724 
L 270.383738 113.813828 
L 271.011697 114.845669 
L 271.639655 112.913161 
L 272.267614 107.812454 
L 272.895572 98.956218 
L 273.523531 101.800446 
L 274.151489 107.305049 
L 274.779448 106.826168 
L 276.035365 93.14264 
L 276.663323 96.859854 
L 277.291282 98.752608 
L 278.547199 81.706319 
L 279.175157 75.938592 
L 279.803116 78.030139 
L 280.431074 80.764417 
L 281.686991 132.466839 
L 282.31495 147.439449 
L 282.942908 139.158652 
L 283.570867 127.418699 
L 284.198825 132.529228 
L 284.826784 139.103148 
L 285.454742 147.9272 
L 286.710659 160.242032 
L 287.338618 164.036429 
L 287.966576 159.849179 
L 289.222493 172.540908 
L 289.850452 170.163587 
L 290.47841 160.469727 
L 291.106369 153.232739 
L 291.734327 154.02607 
L 292.362286 162.773911 
L 292.990244 163.476678 
L 293.618203 155.121278 
L 294.87412 112.074897 
L 295.502078 99.150804 
L 296.130037 94.696297 
L 296.757995 102.400634 
L 297.385954 100.987732 
L 298.013912 101.274136 
L 298.641871 93.326385 
L 299.269829 91.946045 
L 299.897788 83.885284 
L 300.525746 81.227596 
L 301.153705 80.693988 
L 301.781663 81.370648 
L 302.409622 80.806059 
L 303.665539 85.624054 
L 304.293497 84.632886 
L 305.549414 73.244429 
L 306.177373 69.920195 
L 306.805331 64.39265 
L 308.061248 52.019449 
L 308.689207 54.217547 
L 309.317165 65.153328 
L 310.573082 109.861396 
L 311.201041 122.532022 
L 311.828999 122.837203 
L 312.456958 124.342376 
L 313.084916 133.804969 
L 313.712875 146.622049 
L 314.340833 150.635848 
L 314.968792 153.889194 
L 315.59675 162.309144 
L 316.224709 188.146539 
L 316.852667 206.452206 
L 317.480626 218.617091 
L 318.108584 213.164909 
L 318.736543 205.961276 
L 319.364501 194.688356 
L 320.620418 207.947399 
L 321.248377 211.06219 
L 321.876336 197.583808 
L 322.504294 190.630736 
L 323.132253 192.042648 
L 323.760211 188.196954 
L 324.38817 176.158329 
L 325.016128 149.922883 
L 326.272045 115.827341 
L 326.900004 113.936899 
L 327.527962 101.708089 
L 328.155921 95.403342 
L 328.783879 85.50643 
L 329.411838 83.98755 
L 330.039796 84.876897 
L 330.667755 87.961515 
L 332.55163 82.817569 
L 333.179589 85.448384 
L 333.807547 85.397002 
L 334.435506 82.856424 
L 335.063464 81.497154 
L 335.691423 78.043141 
L 336.319381 93.037407 
L 337.575298 143.241499 
L 338.203257 160.669352 
L 338.831215 166.610048 
L 339.459174 176.82075 
L 340.087132 181.501816 
L 340.715091 177.044825 
L 341.343049 176.447292 
L 341.971008 173.084838 
L 342.598966 180.485646 
L 343.854883 201.704807 
L 344.482842 208.418594 
L 345.1108 198.966261 
L 346.994676 123.382685 
L 347.622634 111.876604 
L 348.250593 96.853351 
L 348.878551 94.927226 
L 350.134468 119.22569 
L 350.762427 128.245068 
L 351.390385 121.384049 
L 352.646302 116.536905 
L 353.274261 121.180933 
L 353.902219 136.208815 
L 355.786095 192.382118 
L 357.042012 199.728201 
L 357.66997 193.893921 
L 358.297929 185.309092 
L 358.925887 169.872841 
L 359.553846 162.659816 
L 360.809763 166.637787 
L 361.437721 169.283533 
L 362.06568 170.104379 
L 363.321597 145.387697 
L 363.949555 136.785679 
L 364.577514 133.333432 
L 365.205472 132.470705 
L 365.833431 130.20443 
L 366.461389 134.696537 
L 367.089348 137.457186 
L 367.717306 136.03545 
L 368.345265 137.125535 
L 368.973223 131.963891 
L 369.601182 139.628206 
L 370.22914 143.813734 
L 370.857099 161.44566 
L 371.485057 175.955489 
L 372.113016 187.770581 
L 372.740974 188.43567 
L 373.368933 194.81489 
L 373.996891 207.185814 
L 374.62485 224.234389 
L 375.252808 233.963117 
L 376.508725 223.175978 
L 377.136684 215.627232 
L 377.764642 223.943707 
L 379.020559 201.191602 
L 379.648518 181.929274 
L 380.276476 172.372524 
L 380.904435 173.906622 
L 382.160352 163.047722 
L 382.78831 146.154562 
L 384.044227 129.243383 
L 384.672186 136.61167 
L 385.300144 148.667035 
L 385.928103 172.680398 
L 386.556061 182.564641 
L 387.18402 200.719107 
L 388.439937 222.240792 
L 389.067895 228.710522 
L 389.695854 228.895805 
L 390.323812 245.352772 
L 390.951771 247.67965 
L 391.579729 256.901158 
L 392.207688 254.429408 
L 392.835646 262.968423 
L 393.463605 257.599921 
L 394.091563 250.457134 
L 394.719522 234.837799 
L 395.975439 225.860212 
L 396.603397 227.721056 
L 397.231356 226.419928 
L 398.487273 207.307695 
L 398.487273 207.307695 
" style="fill:none;stroke:#ff6347;stroke-linecap:square;stroke-width:1.5;"/>
   </g>
   <g id="patch_3">
    <path d="M 57.6 307.584 
L 57.6 41.472 
" style="fill:none;stroke:#000000;stroke-linecap:square;stroke-linejoin:miter;stroke-width:0.8;"/>
   </g>
   <g id="patch_4">
    <path d="M 414.72 307.584 
L 414.72 41.472 
" style="fill:none;stroke:#000000;stroke-linecap:square;stroke-linejoin:miter;stroke-width:0.8;"/>
   </g>
   <g id="patch_5">
    <path d="M 57.6 307.584 
L 414.72 307.584 
" style="fill:none;stroke:#000000;stroke-linecap:square;stroke-linejoin:miter;stroke-width:0.8;"/>
   </g>
   <g id="patch_6">
    <path d="M 57.6 41.472 
L 414.72 41.472 
" style="fill:none;stroke:#000000;stroke-linecap:square;stroke-linejoin:miter;stroke-width:0.8;"/>
   </g>
   <g id="text_15">
    <!-- Data source: nomics -->
    <g transform="translate(184.91625 35.472)scale(0.1 -0.1)">
     <defs>
      <path d="M 19.671875 64.796875 
L 19.671875 8.109375 
L 31.59375 8.109375 
Q 46.6875 8.109375 53.6875 14.9375 
Q 60.6875 21.78125 60.6875 36.53125 
Q 60.6875 51.171875 53.6875 57.984375 
Q 46.6875 64.796875 31.59375 64.796875 
z
M 9.8125 72.90625 
L 30.078125 72.90625 
Q 51.265625 72.90625 61.171875 64.09375 
Q 71.09375 55.28125 71.09375 36.53125 
Q 71.09375 17.671875 61.125 8.828125 
Q 51.171875 0 30.078125 0 
L 9.8125 0 
z
" id="DejaVuSans-68"/>
      <path d="M 34.28125 27.484375 
Q 23.390625 27.484375 19.1875 25 
Q 14.984375 22.515625 14.984375 16.5 
Q 14.984375 11.71875 18.140625 8.90625 
Q 21.296875 6.109375 26.703125 6.109375 
Q 34.1875 6.109375 38.703125 11.40625 
Q 43.21875 16.703125 43.21875 25.484375 
L 43.21875 27.484375 
z
M 52.203125 31.203125 
L 52.203125 0 
L 43.21875 0 
L 43.21875 8.296875 
Q 40.140625 3.328125 35.546875 0.953125 
Q 30.953125 -1.421875 24.3125 -1.421875 
Q 15.921875 -1.421875 10.953125 3.296875 
Q 6 8.015625 6 15.921875 
Q 6 25.140625 12.171875 29.828125 
Q 18.359375 34.515625 30.609375 34.515625 
L 43.21875 34.515625 
L 43.21875 35.40625 
Q 43.21875 41.609375 39.140625 45 
Q 35.0625 48.390625 27.6875 48.390625 
Q 23 48.390625 18.546875 47.265625 
Q 14.109375 46.140625 10.015625 43.890625 
L 10.015625 52.203125 
Q 14.9375 54.109375 19.578125 55.046875 
Q 24.21875 56 28.609375 56 
Q 40.484375 56 46.34375 49.84375 
Q 52.203125 43.703125 52.203125 31.203125 
z
" id="DejaVuSans-97"/>
      <path d="M 18.3125 70.21875 
L 18.3125 54.6875 
L 36.8125 54.6875 
L 36.8125 47.703125 
L 18.3125 47.703125 
L 18.3125 18.015625 
Q 18.3125 11.328125 20.140625 9.421875 
Q 21.96875 7.515625 27.59375 7.515625 
L 36.8125 7.515625 
L 36.8125 0 
L 27.59375 0 
Q 17.1875 0 13.234375 3.875 
Q 9.28125 7.765625 9.28125 18.015625 
L 9.28125 47.703125 
L 2.6875 47.703125 
L 2.6875 54.6875 
L 9.28125 54.6875 
L 9.28125 70.21875 
z
" id="DejaVuSans-116"/>
      <path id="DejaVuSans-32"/>
      <path d="M 44.28125 53.078125 
L 44.28125 44.578125 
Q 40.484375 46.53125 36.375 47.5 
Q 32.28125 48.484375 27.875 48.484375 
Q 21.1875 48.484375 17.84375 46.4375 
Q 14.5 44.390625 14.5 40.28125 
Q 14.5 37.15625 16.890625 35.375 
Q 19.28125 33.59375 26.515625 31.984375 
L 29.59375 31.296875 
Q 39.15625 29.25 43.1875 25.515625 
Q 47.21875 21.78125 47.21875 15.09375 
Q 47.21875 7.46875 41.1875 3.015625 
Q 35.15625 -1.421875 24.609375 -1.421875 
Q 20.21875 -1.421875 15.453125 -0.5625 
Q 10.6875 0.296875 5.421875 2 
L 5.421875 11.28125 
Q 10.40625 8.6875 15.234375 7.390625 
Q 20.0625 6.109375 24.8125 6.109375 
Q 31.15625 6.109375 34.5625 8.28125 
Q 37.984375 10.453125 37.984375 14.40625 
Q 37.984375 18.0625 35.515625 20.015625 
Q 33.0625 21.96875 24.703125 23.78125 
L 21.578125 24.515625 
Q 13.234375 26.265625 9.515625 29.90625 
Q 5.8125 33.546875 5.8125 39.890625 
Q 5.8125 47.609375 11.28125 51.796875 
Q 16.75 56 26.8125 56 
Q 31.78125 56 36.171875 55.265625 
Q 40.578125 54.546875 44.28125 53.078125 
z
" id="DejaVuSans-115"/>
      <path d="M 30.609375 48.390625 
Q 23.390625 48.390625 19.1875 42.75 
Q 14.984375 37.109375 14.984375 27.296875 
Q 14.984375 17.484375 19.15625 11.84375 
Q 23.34375 6.203125 30.609375 6.203125 
Q 37.796875 6.203125 41.984375 11.859375 
Q 46.1875 17.53125 46.1875 27.296875 
Q 46.1875 37.015625 41.984375 42.703125 
Q 37.796875 48.390625 30.609375 48.390625 
z
M 30.609375 56 
Q 42.328125 56 49.015625 48.375 
Q 55.71875 40.765625 55.71875 27.296875 
Q 55.71875 13.875 49.015625 6.21875 
Q 42.328125 -1.421875 30.609375 -1.421875 
Q 18.84375 -1.421875 12.171875 6.21875 
Q 5.515625 13.875 5.515625 27.296875 
Q 5.515625 40.765625 12.171875 48.375 
Q 18.84375 56 30.609375 56 
z
" id="DejaVuSans-111"/>
      <path d="M 8.5 21.578125 
L 8.5 54.6875 
L 17.484375 54.6875 
L 17.484375 21.921875 
Q 17.484375 14.15625 20.5 10.265625 
Q 23.53125 6.390625 29.59375 6.390625 
Q 36.859375 6.390625 41.078125 11.03125 
Q 45.3125 15.671875 45.3125 23.6875 
L 45.3125 54.6875 
L 54.296875 54.6875 
L 54.296875 0 
L 45.3125 0 
L 45.3125 8.40625 
Q 42.046875 3.421875 37.71875 1 
Q 33.40625 -1.421875 27.6875 -1.421875 
Q 18.265625 -1.421875 13.375 4.4375 
Q 8.5 10.296875 8.5 21.578125 
z
M 31.109375 56 
z
" id="DejaVuSans-117"/>
      <path d="M 41.109375 46.296875 
Q 39.59375 47.171875 37.8125 47.578125 
Q 36.03125 48 33.890625 48 
Q 26.265625 48 22.1875 43.046875 
Q 18.109375 38.09375 18.109375 28.8125 
L 18.109375 0 
L 9.078125 0 
L 9.078125 54.6875 
L 18.109375 54.6875 
L 18.109375 46.1875 
Q 20.953125 51.171875 25.484375 53.578125 
Q 30.03125 56 36.53125 56 
Q 37.453125 56 38.578125 55.875 
Q 39.703125 55.765625 41.0625 55.515625 
z
" id="DejaVuSans-114"/>
      <path d="M 48.78125 52.59375 
L 48.78125 44.1875 
Q 44.96875 46.296875 41.140625 47.34375 
Q 37.3125 48.390625 33.40625 48.390625 
Q 24.65625 48.390625 19.8125 42.84375 
Q 14.984375 37.3125 14.984375 27.296875 
Q 14.984375 17.28125 19.8125 11.734375 
Q 24.65625 6.203125 33.40625 6.203125 
Q 37.3125 6.203125 41.140625 7.25 
Q 44.96875 8.296875 48.78125 10.40625 
L 48.78125 2.09375 
Q 45.015625 0.34375 40.984375 -0.53125 
Q 36.96875 -1.421875 32.421875 -1.421875 
Q 20.0625 -1.421875 12.78125 6.34375 
Q 5.515625 14.109375 5.515625 27.296875 
Q 5.515625 40.671875 12.859375 48.328125 
Q 20.21875 56 33.015625 56 
Q 37.15625 56 41.109375 55.140625 
Q 45.0625 54.296875 48.78125 52.59375 
z
" id="DejaVuSans-99"/>
      <path d="M 56.203125 29.59375 
L 56.203125 25.203125 
L 14.890625 25.203125 
Q 15.484375 15.921875 20.484375 11.0625 
Q 25.484375 6.203125 34.421875 6.203125 
Q 39.59375 6.203125 44.453125 7.46875 
Q 49.3125 8.734375 54.109375 11.28125 
L 54.109375 2.78125 
Q 49.265625 0.734375 44.1875 -0.34375 
Q 39.109375 -1.421875 33.890625 -1.421875 
Q 20.796875 -1.421875 13.15625 6.1875 
Q 5.515625 13.8125 5.515625 26.8125 
Q 5.515625 40.234375 12.765625 48.109375 
Q 20.015625 56 32.328125 56 
Q 43.359375 56 49.78125 48.890625 
Q 56.203125 41.796875 56.203125 29.59375 
z
M 47.21875 32.234375 
Q 47.125 39.59375 43.09375 43.984375 
Q 39.0625 48.390625 32.421875 48.390625 
Q 24.90625 48.390625 20.390625 44.140625 
Q 15.875 39.890625 15.1875 32.171875 
z
" id="DejaVuSans-101"/>
      <path d="M 11.71875 12.40625 
L 22.015625 12.40625 
L 22.015625 0 
L 11.71875 0 
z
M 11.71875 51.703125 
L 22.015625 51.703125 
L 22.015625 39.3125 
L 11.71875 39.3125 
z
" id="DejaVuSans-58"/>
      <path d="M 54.890625 33.015625 
L 54.890625 0 
L 45.90625 0 
L 45.90625 32.71875 
Q 45.90625 40.484375 42.875 44.328125 
Q 39.84375 48.1875 33.796875 48.1875 
Q 26.515625 48.1875 22.3125 43.546875 
Q 18.109375 38.921875 18.109375 30.90625 
L 18.109375 0 
L 9.078125 0 
L 9.078125 54.6875 
L 18.109375 54.6875 
L 18.109375 46.1875 
Q 21.34375 51.125 25.703125 53.5625 
Q 30.078125 56 35.796875 56 
Q 45.21875 56 50.046875 50.171875 
Q 54.890625 44.34375 54.890625 33.015625 
z
" id="DejaVuSans-110"/>
      <path d="M 52 44.1875 
Q 55.375 50.25 60.0625 53.125 
Q 64.75 56 71.09375 56 
Q 79.640625 56 84.28125 50.015625 
Q 88.921875 44.046875 88.921875 33.015625 
L 88.921875 0 
L 79.890625 0 
L 79.890625 32.71875 
Q 79.890625 40.578125 77.09375 44.375 
Q 74.3125 48.1875 68.609375 48.1875 
Q 61.625 48.1875 57.5625 43.546875 
Q 53.515625 38.921875 53.515625 30.90625 
L 53.515625 0 
L 44.484375 0 
L 44.484375 32.71875 
Q 44.484375 40.625 41.703125 44.40625 
Q 38.921875 48.1875 33.109375 48.1875 
Q 26.21875 48.1875 22.15625 43.53125 
Q 18.109375 38.875 18.109375 30.90625 
L 18.109375 0 
L 9.078125 0 
L 9.078125 54.6875 
L 18.109375 54.6875 
L 18.109375 46.1875 
Q 21.1875 51.21875 25.484375 53.609375 
Q 29.78125 56 35.6875 56 
Q 41.65625 56 45.828125 52.96875 
Q 50 49.953125 52 44.1875 
z
" id="DejaVuSans-109"/>
      <path d="M 9.421875 54.6875 
L 18.40625 54.6875 
L 18.40625 0 
L 9.421875 0 
z
M 9.421875 75.984375 
L 18.40625 75.984375 
L 18.40625 64.59375 
L 9.421875 64.59375 
z
" id="DejaVuSans-105"/>
     </defs>
     <use xlink:href="#DejaVuSans-68"/>
     <use x="77.001953" xlink:href="#DejaVuSans-97"/>
     <use x="138.28125" xlink:href="#DejaVuSans-116"/>
     <use x="177.490234" xlink:href="#DejaVuSans-97"/>
     <use x="238.769531" xlink:href="#DejaVuSans-32"/>
     <use x="270.556641" xlink:href="#DejaVuSans-115"/>
     <use x="322.65625" xlink:href="#DejaVuSans-111"/>
     <use x="383.837891" xlink:href="#DejaVuSans-117"/>
     <use x="447.216797" xlink:href="#DejaVuSans-114"/>
     <use x="486.080078" xlink:href="#DejaVuSans-99"/>
     <use x="541.060547" xlink:href="#DejaVuSans-101"/>
     <use x="602.583984" xlink:href="#DejaVuSans-58"/>
     <use x="636.275391" xlink:href="#DejaVuSans-32"/>
     <use x="668.0625" xlink:href="#DejaVuSans-110"/>
     <use x="731.441406" xlink:href="#DejaVuSans-111"/>
     <use x="792.623047" xlink:href="#DejaVuSans-109"/>
     <use x="890.035156" xlink:href="#DejaVuSans-105"/>
     <use x="917.818359" xlink:href="#DejaVuSans-99"/>
     <use x="972.798828" xlink:href="#DejaVuSans-115"/>
    </g>
   </g>
   <g id="legend_1">
    <g id="patch_7">
     <path d="M 359.473125 64.150125 
L 407.72 64.150125 
Q 409.72 64.150125 409.72 62.150125 
L 409.72 48.472 
Q 409.72 46.472 407.72 46.472 
L 359.473125 46.472 
Q 357.473125 46.472 357.473125 48.472 
L 357.473125 62.150125 
Q 357.473125 64.150125 359.473125 64.150125 
z
" style="fill:#ffffff;opacity:0.8;stroke:#cccccc;stroke-linejoin:miter;"/>
    </g>
    <g id="line2d_16">
     <path d="M 361.473125 54.570438 
L 381.473125 54.570438 
" style="fill:none;stroke:#ff6347;stroke-linecap:square;stroke-width:1.5;"/>
    </g>
    <g id="line2d_17"/>
    <g id="text_16">
     <!-- RSI -->
     <g transform="translate(389.473125 58.070438)scale(0.1 -0.1)">
      <defs>
       <path d="M 44.390625 34.1875 
Q 47.5625 33.109375 50.5625 29.59375 
Q 53.5625 26.078125 56.59375 19.921875 
L 66.609375 0 
L 56 0 
L 46.6875 18.703125 
Q 43.0625 26.03125 39.671875 28.421875 
Q 36.28125 30.8125 30.421875 30.8125 
L 19.671875 30.8125 
L 19.671875 0 
L 9.8125 0 
L 9.8125 72.90625 
L 32.078125 72.90625 
Q 44.578125 72.90625 50.734375 67.671875 
Q 56.890625 62.453125 56.890625 51.90625 
Q 56.890625 45.015625 53.6875 40.46875 
Q 50.484375 35.9375 44.390625 34.1875 
z
M 19.671875 64.796875 
L 19.671875 38.921875 
L 32.078125 38.921875 
Q 39.203125 38.921875 42.84375 42.21875 
Q 46.484375 45.515625 46.484375 51.90625 
Q 46.484375 58.296875 42.84375 61.546875 
Q 39.203125 64.796875 32.078125 64.796875 
z
" id="DejaVuSans-82"/>
       <path d="M 53.515625 70.515625 
L 53.515625 60.890625 
Q 47.90625 63.578125 42.921875 64.890625 
Q 37.9375 66.21875 33.296875 66.21875 
Q 25.25 66.21875 20.875 63.09375 
Q 16.5 59.96875 16.5 54.203125 
Q 16.5 49.359375 19.40625 46.890625 
Q 22.3125 44.4375 30.421875 42.921875 
L 36.375 41.703125 
Q 47.40625 39.59375 52.65625 34.296875 
Q 57.90625 29 57.90625 20.125 
Q 57.90625 9.515625 50.796875 4.046875 
Q 43.703125 -1.421875 29.984375 -1.421875 
Q 24.8125 -1.421875 18.96875 -0.25 
Q 13.140625 0.921875 6.890625 3.21875 
L 6.890625 13.375 
Q 12.890625 10.015625 18.65625 8.296875 
Q 24.421875 6.59375 29.984375 6.59375 
Q 38.421875 6.59375 43.015625 9.90625 
Q 47.609375 13.234375 47.609375 19.390625 
Q 47.609375 24.75 44.3125 27.78125 
Q 41.015625 30.8125 33.5 32.328125 
L 27.484375 33.5 
Q 16.453125 35.6875 11.515625 40.375 
Q 6.59375 45.0625 6.59375 53.421875 
Q 6.59375 63.09375 13.40625 68.65625 
Q 20.21875 74.21875 32.171875 74.21875 
Q 37.3125 74.21875 42.625 73.28125 
Q 47.953125 72.359375 53.515625 70.515625 
z
" id="DejaVuSans-83"/>
       <path d="M 9.8125 72.90625 
L 19.671875 72.90625 
L 19.671875 0 
L 9.8125 0 
z
" id="DejaVuSans-73"/>
      </defs>
      <use xlink:href="#DejaVuSans-82"/>
      <use x="69.482422" xlink:href="#DejaVuSans-83"/>
      <use x="132.958984" xlink:href="#DejaVuSans-73"/>
     </g>
    </g>
   </g>
  </g>
  <g id="text_17">
   <!-- RSI -->
   <g transform="translate(217.4025 19.0695)scale(0.16 -0.16)">
    <use xlink:href="#DejaVuSans-82"/>
    <use x="69.482422" xlink:href="#DejaVuSans-83"/>
    <use x="132.958984" xlink:href="#DejaVuSans-73"/>
   </g>
  </g>
 </g>
 <defs>
  <clipPath id="p40f159ece9">
   <rect height="266.112" width="357.12" x="57.6" y="41.472"/>
  </clipPath>
 </defs>
</svg>
