<?xml version="1.0" encoding="utf-8" standalone="no"?>
<!DOCTYPE svg PUBLIC "-//W3C//DTD SVG 1.1//EN"
  "http://www.w3.org/Graphics/SVG/1.1/DTD/svg11.dtd">
<!-- Created with matplotlib (https://matplotlib.org/) -->
<svg height="345.6pt" version="1.1" viewBox="0 0 460.8 345.6" width="460.8pt" xmlns="http://www.w3.org/2000/svg" xmlns:xlink="http://www.w3.org/1999/xlink">
 <metadata>
  <rdf:RDF xmlns:cc="http://creativecommons.org/ns#" xmlns:dc="http://purl.org/dc/elements/1.1/" xmlns:rdf="http://www.w3.org/1999/02/22-rdf-syntax-ns#">
   <cc:Work>
    <dc:type rdf:resource="http://purl.org/dc/dcmitype/StillImage"/>
    <dc:date>2021-02-09T19:08:37.584511</dc:date>
    <dc:format>image/svg+xml</dc:format>
    <dc:creator>
     <cc:Agent>
      <dc:title>Matplotlib v3.3.2, https://matplotlib.org/</dc:title>
     </cc:Agent>
    </dc:creator>
   </cc:Work>
  </rdf:RDF>
 </metadata>
 <defs>
  <style type="text/css">*{stroke-linecap:butt;stroke-linejoin:round;}</style>
 </defs>
 <g id="figure_1">
  <g id="patch_1">
   <path d="M 0 345.6 
L 460.8 345.6 
L 460.8 0 
L 0 0 
z
" style="fill:#ffffff;"/>
  </g>
  <g id="axes_1">
   <g id="patch_2">
    <path d="M 57.6 307.584 
L 414.72 307.584 
L 414.72 41.472 
L 57.6 41.472 
z
" style="fill:#ffffff;"/>
   </g>
   <g id="PolyCollection_1">
    <defs>
     <path d="M 73.832727 -219.118501 
L 73.832727 -115.631357 
L 74.634343 -115.631357 
L 75.43596 -115.631357 
L 76.237576 -115.631357 
L 77.039192 -115.631357 
L 77.840808 -115.631357 
L 78.642424 -115.631357 
L 79.44404 -115.631357 
L 80.245657 -115.631357 
L 81.047273 -115.631357 
L 81.848889 -115.631357 
L 82.650505 -115.631357 
L 83.452121 -115.631357 
L 84.253737 -115.631357 
L 85.055354 -115.631357 
L 85.85697 -115.631357 
L 86.658586 -115.631357 
L 87.460202 -115.631357 
L 88.261818 -115.631357 
L 89.063434 -115.631357 
L 89.865051 -115.631357 
L 90.666667 -115.631357 
L 91.468283 -115.631357 
L 92.269899 -115.631357 
L 93.071515 -115.631357 
L 93.873131 -115.631357 
L 94.674747 -115.631357 
L 95.476364 -115.631357 
L 96.27798 -115.631357 
L 97.079596 -115.631357 
L 97.881212 -115.631357 
L 98.682828 -115.631357 
L 99.484444 -115.631357 
L 100.286061 -115.631357 
L 101.087677 -115.631357 
L 101.889293 -115.631357 
L 102.690909 -115.631357 
L 103.492525 -115.631357 
L 104.294141 -115.631357 
L 105.095758 -115.631357 
L 105.897374 -115.631357 
L 106.69899 -115.631357 
L 107.500606 -115.631357 
L 108.302222 -115.631357 
L 109.103838 -115.631357 
L 109.905455 -115.631357 
L 110.707071 -115.631357 
L 111.508687 -115.631357 
L 112.310303 -115.631357 
L 113.111919 -115.631357 
L 113.913535 -115.631357 
L 114.715152 -115.631357 
L 115.516768 -115.631357 
L 116.318384 -115.631357 
L 117.12 -115.631357 
L 117.921616 -115.631357 
L 118.723232 -115.631357 
L 119.524848 -115.631357 
L 120.326465 -115.631357 
L 121.128081 -115.631357 
L 121.929697 -115.631357 
L 122.731313 -115.631357 
L 123.532929 -115.631357 
L 124.334545 -115.631357 
L 125.136162 -115.631357 
L 125.937778 -115.631357 
L 126.739394 -115.631357 
L 127.54101 -115.631357 
L 128.342626 -115.631357 
L 129.144242 -115.631357 
L 129.945859 -115.631357 
L 130.747475 -115.631357 
L 131.549091 -115.631357 
L 132.350707 -115.631357 
L 133.152323 -115.631357 
L 133.953939 -115.631357 
L 134.755556 -115.631357 
L 135.557172 -115.631357 
L 136.358788 -115.631357 
L 137.160404 -115.631357 
L 137.96202 -115.631357 
L 138.763636 -115.631357 
L 139.565253 -115.631357 
L 140.366869 -115.631357 
L 141.168485 -115.631357 
L 141.970101 -115.631357 
L 142.771717 -115.631357 
L 143.573333 -115.631357 
L 144.374949 -115.631357 
L 145.176566 -115.631357 
L 145.978182 -115.631357 
L 146.779798 -115.631357 
L 147.581414 -115.631357 
L 148.38303 -115.631357 
L 149.184646 -115.631357 
L 149.986263 -115.631357 
L 150.787879 -115.631357 
L 151.589495 -115.631357 
L 152.391111 -115.631357 
L 153.192727 -115.631357 
L 153.994343 -115.631357 
L 154.79596 -115.631357 
L 155.597576 -115.631357 
L 156.399192 -115.631357 
L 157.200808 -115.631357 
L 158.002424 -115.631357 
L 158.80404 -115.631357 
L 159.605657 -115.631357 
L 160.407273 -115.631357 
L 161.208889 -115.631357 
L 162.010505 -115.631357 
L 162.812121 -115.631357 
L 163.613737 -115.631357 
L 164.415354 -115.631357 
L 165.21697 -115.631357 
L 166.018586 -115.631357 
L 166.820202 -115.631357 
L 167.621818 -115.631357 
L 168.423434 -115.631357 
L 169.225051 -115.631357 
L 170.026667 -115.631357 
L 170.828283 -115.631357 
L 171.629899 -115.631357 
L 172.431515 -115.631357 
L 173.233131 -115.631357 
L 174.034747 -115.631357 
L 174.836364 -115.631357 
L 175.63798 -115.631357 
L 176.439596 -115.631357 
L 177.241212 -115.631357 
L 178.042828 -115.631357 
L 178.844444 -115.631357 
L 179.646061 -115.631357 
L 180.447677 -115.631357 
L 181.249293 -115.631357 
L 182.050909 -115.631357 
L 182.852525 -115.631357 
L 183.654141 -115.631357 
L 184.455758 -115.631357 
L 185.257374 -115.631357 
L 186.05899 -115.631357 
L 186.860606 -115.631357 
L 187.662222 -115.631357 
L 188.463838 -115.631357 
L 189.265455 -115.631357 
L 190.067071 -115.631357 
L 190.868687 -115.631357 
L 191.670303 -115.631357 
L 192.471919 -115.631357 
L 193.273535 -115.631357 
L 194.075152 -115.631357 
L 194.876768 -115.631357 
L 195.678384 -115.631357 
L 196.48 -115.631357 
L 197.281616 -115.631357 
L 198.083232 -115.631357 
L 198.884848 -115.631357 
L 199.686465 -115.631357 
L 200.488081 -115.631357 
L 201.289697 -115.631357 
L 202.091313 -115.631357 
L 202.892929 -115.631357 
L 203.694545 -115.631357 
L 204.496162 -115.631357 
L 205.297778 -115.631357 
L 206.099394 -115.631357 
L 206.90101 -115.631357 
L 207.702626 -115.631357 
L 208.504242 -115.631357 
L 209.305859 -115.631357 
L 210.107475 -115.631357 
L 210.909091 -115.631357 
L 211.710707 -115.631357 
L 212.512323 -115.631357 
L 213.313939 -115.631357 
L 214.115556 -115.631357 
L 214.917172 -115.631357 
L 215.718788 -115.631357 
L 216.520404 -115.631357 
L 217.32202 -115.631357 
L 218.123636 -115.631357 
L 218.925253 -115.631357 
L 219.726869 -115.631357 
L 220.528485 -115.631357 
L 221.330101 -115.631357 
L 222.131717 -115.631357 
L 222.933333 -115.631357 
L 223.734949 -115.631357 
L 224.536566 -115.631357 
L 225.338182 -115.631357 
L 226.139798 -115.631357 
L 226.941414 -115.631357 
L 227.74303 -115.631357 
L 228.544646 -115.631357 
L 229.346263 -115.631357 
L 230.147879 -115.631357 
L 230.949495 -115.631357 
L 231.751111 -115.631357 
L 232.552727 -115.631357 
L 233.354343 -115.631357 
L 234.15596 -115.631357 
L 234.957576 -115.631357 
L 235.759192 -115.631357 
L 236.560808 -115.631357 
L 237.362424 -115.631357 
L 238.16404 -115.631357 
L 238.965657 -115.631357 
L 239.767273 -115.631357 
L 240.568889 -115.631357 
L 241.370505 -115.631357 
L 242.172121 -115.631357 
L 242.973737 -115.631357 
L 243.775354 -115.631357 
L 244.57697 -115.631357 
L 245.378586 -115.631357 
L 246.180202 -115.631357 
L 246.981818 -115.631357 
L 247.783434 -115.631357 
L 248.585051 -115.631357 
L 249.386667 -115.631357 
L 250.188283 -115.631357 
L 250.989899 -115.631357 
L 251.791515 -115.631357 
L 252.593131 -115.631357 
L 253.394747 -115.631357 
L 254.196364 -115.631357 
L 254.99798 -115.631357 
L 255.799596 -115.631357 
L 256.601212 -115.631357 
L 257.402828 -115.631357 
L 258.204444 -115.631357 
L 259.006061 -115.631357 
L 259.807677 -115.631357 
L 260.609293 -115.631357 
L 261.410909 -115.631357 
L 262.212525 -115.631357 
L 263.014141 -115.631357 
L 263.815758 -115.631357 
L 264.617374 -115.631357 
L 265.41899 -115.631357 
L 266.220606 -115.631357 
L 267.022222 -115.631357 
L 267.823838 -115.631357 
L 268.625455 -115.631357 
L 269.427071 -115.631357 
L 270.228687 -115.631357 
L 271.030303 -115.631357 
L 271.831919 -115.631357 
L 272.633535 -115.631357 
L 273.435152 -115.631357 
L 274.236768 -115.631357 
L 275.038384 -115.631357 
L 275.84 -115.631357 
L 276.641616 -115.631357 
L 277.443232 -115.631357 
L 278.244848 -115.631357 
L 279.046465 -115.631357 
L 279.848081 -115.631357 
L 280.649697 -115.631357 
L 281.451313 -115.631357 
L 282.252929 -115.631357 
L 283.054545 -115.631357 
L 283.856162 -115.631357 
L 284.657778 -115.631357 
L 285.459394 -115.631357 
L 286.26101 -115.631357 
L 287.062626 -115.631357 
L 287.864242 -115.631357 
L 288.665859 -115.631357 
L 289.467475 -115.631357 
L 290.269091 -115.631357 
L 291.070707 -115.631357 
L 291.872323 -115.631357 
L 292.673939 -115.631357 
L 293.475556 -115.631357 
L 294.277172 -115.631357 
L 295.078788 -115.631357 
L 295.880404 -115.631357 
L 296.68202 -115.631357 
L 297.483636 -115.631357 
L 298.285253 -115.631357 
L 299.086869 -115.631357 
L 299.888485 -115.631357 
L 300.690101 -115.631357 
L 301.491717 -115.631357 
L 302.293333 -115.631357 
L 303.094949 -115.631357 
L 303.896566 -115.631357 
L 304.698182 -115.631357 
L 305.499798 -115.631357 
L 306.301414 -115.631357 
L 307.10303 -115.631357 
L 307.904646 -115.631357 
L 308.706263 -115.631357 
L 309.507879 -115.631357 
L 310.309495 -115.631357 
L 311.111111 -115.631357 
L 311.912727 -115.631357 
L 312.714343 -115.631357 
L 313.51596 -115.631357 
L 314.317576 -115.631357 
L 315.119192 -115.631357 
L 315.920808 -115.631357 
L 316.722424 -115.631357 
L 317.52404 -115.631357 
L 318.325657 -115.631357 
L 319.127273 -115.631357 
L 319.928889 -115.631357 
L 320.730505 -115.631357 
L 321.532121 -115.631357 
L 322.333737 -115.631357 
L 323.135354 -115.631357 
L 323.93697 -115.631357 
L 324.738586 -115.631357 
L 325.540202 -115.631357 
L 326.341818 -115.631357 
L 327.143434 -115.631357 
L 327.945051 -115.631357 
L 328.746667 -115.631357 
L 329.548283 -115.631357 
L 330.349899 -115.631357 
L 331.151515 -115.631357 
L 331.953131 -115.631357 
L 332.754747 -115.631357 
L 333.556364 -115.631357 
L 334.35798 -115.631357 
L 335.159596 -115.631357 
L 335.961212 -115.631357 
L 336.762828 -115.631357 
L 337.564444 -115.631357 
L 338.366061 -115.631357 
L 339.167677 -115.631357 
L 339.969293 -115.631357 
L 340.770909 -115.631357 
L 341.572525 -115.631357 
L 342.374141 -115.631357 
L 343.175758 -115.631357 
L 343.977374 -115.631357 
L 344.77899 -115.631357 
L 345.580606 -115.631357 
L 346.382222 -115.631357 
L 347.183838 -115.631357 
L 347.985455 -115.631357 
L 348.787071 -115.631357 
L 349.588687 -115.631357 
L 350.390303 -115.631357 
L 351.191919 -115.631357 
L 351.993535 -115.631357 
L 352.795152 -115.631357 
L 353.596768 -115.631357 
L 354.398384 -115.631357 
L 355.2 -115.631357 
L 356.001616 -115.631357 
L 356.803232 -115.631357 
L 357.604848 -115.631357 
L 358.406465 -115.631357 
L 359.208081 -115.631357 
L 360.009697 -115.631357 
L 360.811313 -115.631357 
L 361.612929 -115.631357 
L 362.414545 -115.631357 
L 363.216162 -115.631357 
L 364.017778 -115.631357 
L 364.819394 -115.631357 
L 365.62101 -115.631357 
L 366.422626 -115.631357 
L 367.224242 -115.631357 
L 368.025859 -115.631357 
L 368.827475 -115.631357 
L 369.629091 -115.631357 
L 370.430707 -115.631357 
L 371.232323 -115.631357 
L 372.033939 -115.631357 
L 372.835556 -115.631357 
L 373.637172 -115.631357 
L 374.438788 -115.631357 
L 375.240404 -115.631357 
L 376.04202 -115.631357 
L 376.843636 -115.631357 
L 377.645253 -115.631357 
L 378.446869 -115.631357 
L 379.248485 -115.631357 
L 380.050101 -115.631357 
L 380.851717 -115.631357 
L 381.653333 -115.631357 
L 382.454949 -115.631357 
L 383.256566 -115.631357 
L 384.058182 -115.631357 
L 384.859798 -115.631357 
L 385.661414 -115.631357 
L 386.46303 -115.631357 
L 387.264646 -115.631357 
L 388.066263 -115.631357 
L 388.867879 -115.631357 
L 389.669495 -115.631357 
L 390.471111 -115.631357 
L 391.272727 -115.631357 
L 392.074343 -115.631357 
L 392.87596 -115.631357 
L 393.677576 -115.631357 
L 394.479192 -115.631357 
L 395.280808 -115.631357 
L 396.082424 -115.631357 
L 396.88404 -115.631357 
L 397.685657 -115.631357 
L 398.487273 -115.631357 
L 398.487273 -219.118501 
L 398.487273 -219.118501 
L 397.685657 -219.118501 
L 396.88404 -219.118501 
L 396.082424 -219.118501 
L 395.280808 -219.118501 
L 394.479192 -219.118501 
L 393.677576 -219.118501 
L 392.87596 -219.118501 
L 392.074343 -219.118501 
L 391.272727 -219.118501 
L 390.471111 -219.118501 
L 389.669495 -219.118501 
L 388.867879 -219.118501 
L 388.066263 -219.118501 
L 387.264646 -219.118501 
L 386.46303 -219.118501 
L 385.661414 -219.118501 
L 384.859798 -219.118501 
L 384.058182 -219.118501 
L 383.256566 -219.118501 
L 382.454949 -219.118501 
L 381.653333 -219.118501 
L 380.851717 -219.118501 
L 380.050101 -219.118501 
L 379.248485 -219.118501 
L 378.446869 -219.118501 
L 377.645253 -219.118501 
L 376.843636 -219.118501 
L 376.04202 -219.118501 
L 375.240404 -219.118501 
L 374.438788 -219.118501 
L 373.637172 -219.118501 
L 372.835556 -219.118501 
L 372.033939 -219.118501 
L 371.232323 -219.118501 
L 370.430707 -219.118501 
L 369.629091 -219.118501 
L 368.827475 -219.118501 
L 368.025859 -219.118501 
L 367.224242 -219.118501 
L 366.422626 -219.118501 
L 365.62101 -219.118501 
L 364.819394 -219.118501 
L 364.017778 -219.118501 
L 363.216162 -219.118501 
L 362.414545 -219.118501 
L 361.612929 -219.118501 
L 360.811313 -219.118501 
L 360.009697 -219.118501 
L 359.208081 -219.118501 
L 358.406465 -219.118501 
L 357.604848 -219.118501 
L 356.803232 -219.118501 
L 356.001616 -219.118501 
L 355.2 -219.118501 
L 354.398384 -219.118501 
L 353.596768 -219.118501 
L 352.795152 -219.118501 
L 351.993535 -219.118501 
L 351.191919 -219.118501 
L 350.390303 -219.118501 
L 349.588687 -219.118501 
L 348.787071 -219.118501 
L 347.985455 -219.118501 
L 347.183838 -219.118501 
L 346.382222 -219.118501 
L 345.580606 -219.118501 
L 344.77899 -219.118501 
L 343.977374 -219.118501 
L 343.175758 -219.118501 
L 342.374141 -219.118501 
L 341.572525 -219.118501 
L 340.770909 -219.118501 
L 339.969293 -219.118501 
L 339.167677 -219.118501 
L 338.366061 -219.118501 
L 337.564444 -219.118501 
L 336.762828 -219.118501 
L 335.961212 -219.118501 
L 335.159596 -219.118501 
L 334.35798 -219.118501 
L 333.556364 -219.118501 
L 332.754747 -219.118501 
L 331.953131 -219.118501 
L 331.151515 -219.118501 
L 330.349899 -219.118501 
L 329.548283 -219.118501 
L 328.746667 -219.118501 
L 327.945051 -219.118501 
L 327.143434 -219.118501 
L 326.341818 -219.118501 
L 325.540202 -219.118501 
L 324.738586 -219.118501 
L 323.93697 -219.118501 
L 323.135354 -219.118501 
L 322.333737 -219.118501 
L 321.532121 -219.118501 
L 320.730505 -219.118501 
L 319.928889 -219.118501 
L 319.127273 -219.118501 
L 318.325657 -219.118501 
L 317.52404 -219.118501 
L 316.722424 -219.118501 
L 315.920808 -219.118501 
L 315.119192 -219.118501 
L 314.317576 -219.118501 
L 313.51596 -219.118501 
L 312.714343 -219.118501 
L 311.912727 -219.118501 
L 311.111111 -219.118501 
L 310.309495 -219.118501 
L 309.507879 -219.118501 
L 308.706263 -219.118501 
L 307.904646 -219.118501 
L 307.10303 -219.118501 
L 306.301414 -219.118501 
L 305.499798 -219.118501 
L 304.698182 -219.118501 
L 303.896566 -219.118501 
L 303.094949 -219.118501 
L 302.293333 -219.118501 
L 301.491717 -219.118501 
L 300.690101 -219.118501 
L 299.888485 -219.118501 
L 299.086869 -219.118501 
L 298.285253 -219.118501 
L 297.483636 -219.118501 
L 296.68202 -219.118501 
L 295.880404 -219.118501 
L 295.078788 -219.118501 
L 294.277172 -219.118501 
L 293.475556 -219.118501 
L 292.673939 -219.118501 
L 291.872323 -219.118501 
L 291.070707 -219.118501 
L 290.269091 -219.118501 
L 289.467475 -219.118501 
L 288.665859 -219.118501 
L 287.864242 -219.118501 
L 287.062626 -219.118501 
L 286.26101 -219.118501 
L 285.459394 -219.118501 
L 284.657778 -219.118501 
L 283.856162 -219.118501 
L 283.054545 -219.118501 
L 282.252929 -219.118501 
L 281.451313 -219.118501 
L 280.649697 -219.118501 
L 279.848081 -219.118501 
L 279.046465 -219.118501 
L 278.244848 -219.118501 
L 277.443232 -219.118501 
L 276.641616 -219.118501 
L 275.84 -219.118501 
L 275.038384 -219.118501 
L 274.236768 -219.118501 
L 273.435152 -219.118501 
L 272.633535 -219.118501 
L 271.831919 -219.118501 
L 271.030303 -219.118501 
L 270.228687 -219.118501 
L 269.427071 -219.118501 
L 268.625455 -219.118501 
L 267.823838 -219.118501 
L 267.022222 -219.118501 
L 266.220606 -219.118501 
L 265.41899 -219.118501 
L 264.617374 -219.118501 
L 263.815758 -219.118501 
L 263.014141 -219.118501 
L 262.212525 -219.118501 
L 261.410909 -219.118501 
L 260.609293 -219.118501 
L 259.807677 -219.118501 
L 259.006061 -219.118501 
L 258.204444 -219.118501 
L 257.402828 -219.118501 
L 256.601212 -219.118501 
L 255.799596 -219.118501 
L 254.99798 -219.118501 
L 254.196364 -219.118501 
L 253.394747 -219.118501 
L 252.593131 -219.118501 
L 251.791515 -219.118501 
L 250.989899 -219.118501 
L 250.188283 -219.118501 
L 249.386667 -219.118501 
L 248.585051 -219.118501 
L 247.783434 -219.118501 
L 246.981818 -219.118501 
L 246.180202 -219.118501 
L 245.378586 -219.118501 
L 244.57697 -219.118501 
L 243.775354 -219.118501 
L 242.973737 -219.118501 
L 242.172121 -219.118501 
L 241.370505 -219.118501 
L 240.568889 -219.118501 
L 239.767273 -219.118501 
L 238.965657 -219.118501 
L 238.16404 -219.118501 
L 237.362424 -219.118501 
L 236.560808 -219.118501 
L 235.759192 -219.118501 
L 234.957576 -219.118501 
L 234.15596 -219.118501 
L 233.354343 -219.118501 
L 232.552727 -219.118501 
L 231.751111 -219.118501 
L 230.949495 -219.118501 
L 230.147879 -219.118501 
L 229.346263 -219.118501 
L 228.544646 -219.118501 
L 227.74303 -219.118501 
L 226.941414 -219.118501 
L 226.139798 -219.118501 
L 225.338182 -219.118501 
L 224.536566 -219.118501 
L 223.734949 -219.118501 
L 222.933333 -219.118501 
L 222.131717 -219.118501 
L 221.330101 -219.118501 
L 220.528485 -219.118501 
L 219.726869 -219.118501 
L 218.925253 -219.118501 
L 218.123636 -219.118501 
L 217.32202 -219.118501 
L 216.520404 -219.118501 
L 215.718788 -219.118501 
L 214.917172 -219.118501 
L 214.115556 -219.118501 
L 213.313939 -219.118501 
L 212.512323 -219.118501 
L 211.710707 -219.118501 
L 210.909091 -219.118501 
L 210.107475 -219.118501 
L 209.305859 -219.118501 
L 208.504242 -219.118501 
L 207.702626 -219.118501 
L 206.90101 -219.118501 
L 206.099394 -219.118501 
L 205.297778 -219.118501 
L 204.496162 -219.118501 
L 203.694545 -219.118501 
L 202.892929 -219.118501 
L 202.091313 -219.118501 
L 201.289697 -219.118501 
L 200.488081 -219.118501 
L 199.686465 -219.118501 
L 198.884848 -219.118501 
L 198.083232 -219.118501 
L 197.281616 -219.118501 
L 196.48 -219.118501 
L 195.678384 -219.118501 
L 194.876768 -219.118501 
L 194.075152 -219.118501 
L 193.273535 -219.118501 
L 192.471919 -219.118501 
L 191.670303 -219.118501 
L 190.868687 -219.118501 
L 190.067071 -219.118501 
L 189.265455 -219.118501 
L 188.463838 -219.118501 
L 187.662222 -219.118501 
L 186.860606 -219.118501 
L 186.05899 -219.118501 
L 185.257374 -219.118501 
L 184.455758 -219.118501 
L 183.654141 -219.118501 
L 182.852525 -219.118501 
L 182.050909 -219.118501 
L 181.249293 -219.118501 
L 180.447677 -219.118501 
L 179.646061 -219.118501 
L 178.844444 -219.118501 
L 178.042828 -219.118501 
L 177.241212 -219.118501 
L 176.439596 -219.118501 
L 175.63798 -219.118501 
L 174.836364 -219.118501 
L 174.034747 -219.118501 
L 173.233131 -219.118501 
L 172.431515 -219.118501 
L 171.629899 -219.118501 
L 170.828283 -219.118501 
L 170.026667 -219.118501 
L 169.225051 -219.118501 
L 168.423434 -219.118501 
L 167.621818 -219.118501 
L 166.820202 -219.118501 
L 166.018586 -219.118501 
L 165.21697 -219.118501 
L 164.415354 -219.118501 
L 163.613737 -219.118501 
L 162.812121 -219.118501 
L 162.010505 -219.118501 
L 161.208889 -219.118501 
L 160.407273 -219.118501 
L 159.605657 -219.118501 
L 158.80404 -219.118501 
L 158.002424 -219.118501 
L 157.200808 -219.118501 
L 156.399192 -219.118501 
L 155.597576 -219.118501 
L 154.79596 -219.118501 
L 153.994343 -219.118501 
L 153.192727 -219.118501 
L 152.391111 -219.118501 
L 151.589495 -219.118501 
L 150.787879 -219.118501 
L 149.986263 -219.118501 
L 149.184646 -219.118501 
L 148.38303 -219.118501 
L 147.581414 -219.118501 
L 146.779798 -219.118501 
L 145.978182 -219.118501 
L 145.176566 -219.118501 
L 144.374949 -219.118501 
L 143.573333 -219.118501 
L 142.771717 -219.118501 
L 141.970101 -219.118501 
L 141.168485 -219.118501 
L 140.366869 -219.118501 
L 139.565253 -219.118501 
L 138.763636 -219.118501 
L 137.96202 -219.118501 
L 137.160404 -219.118501 
L 136.358788 -219.118501 
L 135.557172 -219.118501 
L 134.755556 -219.118501 
L 133.953939 -219.118501 
L 133.152323 -219.118501 
L 132.350707 -219.118501 
L 131.549091 -219.118501 
L 130.747475 -219.118501 
L 129.945859 -219.118501 
L 129.144242 -219.118501 
L 128.342626 -219.118501 
L 127.54101 -219.118501 
L 126.739394 -219.118501 
L 125.937778 -219.118501 
L 125.136162 -219.118501 
L 124.334545 -219.118501 
L 123.532929 -219.118501 
L 122.731313 -219.118501 
L 121.929697 -219.118501 
L 121.128081 -219.118501 
L 120.326465 -219.118501 
L 119.524848 -219.118501 
L 118.723232 -219.118501 
L 117.921616 -219.118501 
L 117.12 -219.118501 
L 116.318384 -219.118501 
L 115.516768 -219.118501 
L 114.715152 -219.118501 
L 113.913535 -219.118501 
L 113.111919 -219.118501 
L 112.310303 -219.118501 
L 111.508687 -219.118501 
L 110.707071 -219.118501 
L 109.905455 -219.118501 
L 109.103838 -219.118501 
L 108.302222 -219.118501 
L 107.500606 -219.118501 
L 106.69899 -219.118501 
L 105.897374 -219.118501 
L 105.095758 -219.118501 
L 104.294141 -219.118501 
L 103.492525 -219.118501 
L 102.690909 -219.118501 
L 101.889293 -219.118501 
L 101.087677 -219.118501 
L 100.286061 -219.118501 
L 99.484444 -219.118501 
L 98.682828 -219.118501 
L 97.881212 -219.118501 
L 97.079596 -219.118501 
L 96.27798 -219.118501 
L 95.476364 -219.118501 
L 94.674747 -219.118501 
L 93.873131 -219.118501 
L 93.071515 -219.118501 
L 92.269899 -219.118501 
L 91.468283 -219.118501 
L 90.666667 -219.118501 
L 89.865051 -219.118501 
L 89.063434 -219.118501 
L 88.261818 -219.118501 
L 87.460202 -219.118501 
L 86.658586 -219.118501 
L 85.85697 -219.118501 
L 85.055354 -219.118501 
L 84.253737 -219.118501 
L 83.452121 -219.118501 
L 82.650505 -219.118501 
L 81.848889 -219.118501 
L 81.047273 -219.118501 
L 80.245657 -219.118501 
L 79.44404 -219.118501 
L 78.642424 -219.118501 
L 77.840808 -219.118501 
L 77.039192 -219.118501 
L 76.237576 -219.118501 
L 75.43596 -219.118501 
L 74.634343 -219.118501 
L 73.832727 -219.118501 
z
" id="m9834b5464b" style="stroke:#4b0082;stroke-opacity:0.3;"/>
    </defs>
    <g clip-path="url(#p10a4fd1e2e)">
     <use style="fill:#4b0082;fill-opacity:0.3;stroke:#4b0082;stroke-opacity:0.3;" x="0" xlink:href="#m9834b5464b" y="345.6"/>
    </g>
   </g>
   <g id="matplotlib.axis_1">
    <g id="xtick_1">
     <g id="line2d_1">
      <defs>
       <path d="M 0 0 
L 0 3.5 
" id="m55217c5289" style="stroke:#000000;stroke-width:0.8;"/>
      </defs>
      <g>
       <use style="stroke:#000000;stroke-width:0.8;" x="73.832727" xlink:href="#m55217c5289" y="307.584"/>
      </g>
     </g>
     <g id="text_1">
      <!-- 2020-01 -->
      <g transform="translate(52.941321 322.182437)scale(0.1 -0.1)">
       <defs>
        <path d="M 19.1875 8.296875 
L 53.609375 8.296875 
L 53.609375 0 
L 7.328125 0 
L 7.328125 8.296875 
Q 12.9375 14.109375 22.625 23.890625 
Q 32.328125 33.6875 34.8125 36.53125 
Q 39.546875 41.84375 41.421875 45.53125 
Q 43.3125 49.21875 43.3125 52.78125 
Q 43.3125 58.59375 39.234375 62.25 
Q 35.15625 65.921875 28.609375 65.921875 
Q 23.96875 65.921875 18.8125 64.3125 
Q 13.671875 62.703125 7.8125 59.421875 
L 7.8125 69.390625 
Q 13.765625 71.78125 18.9375 73 
Q 24.125 74.21875 28.421875 74.21875 
Q 39.75 74.21875 46.484375 68.546875 
Q 53.21875 62.890625 53.21875 53.421875 
Q 53.21875 48.921875 51.53125 44.890625 
Q 49.859375 40.875 45.40625 35.40625 
Q 44.1875 33.984375 37.640625 27.21875 
Q 31.109375 20.453125 19.1875 8.296875 
z
" id="DejaVuSans-50"/>
        <path d="M 31.78125 66.40625 
Q 24.171875 66.40625 20.328125 58.90625 
Q 16.5 51.421875 16.5 36.375 
Q 16.5 21.390625 20.328125 13.890625 
Q 24.171875 6.390625 31.78125 6.390625 
Q 39.453125 6.390625 43.28125 13.890625 
Q 47.125 21.390625 47.125 36.375 
Q 47.125 51.421875 43.28125 58.90625 
Q 39.453125 66.40625 31.78125 66.40625 
z
M 31.78125 74.21875 
Q 44.046875 74.21875 50.515625 64.515625 
Q 56.984375 54.828125 56.984375 36.375 
Q 56.984375 17.96875 50.515625 8.265625 
Q 44.046875 -1.421875 31.78125 -1.421875 
Q 19.53125 -1.421875 13.0625 8.265625 
Q 6.59375 17.96875 6.59375 36.375 
Q 6.59375 54.828125 13.0625 64.515625 
Q 19.53125 74.21875 31.78125 74.21875 
z
" id="DejaVuSans-48"/>
        <path d="M 4.890625 31.390625 
L 31.203125 31.390625 
L 31.203125 23.390625 
L 4.890625 23.390625 
z
" id="DejaVuSans-45"/>
        <path d="M 12.40625 8.296875 
L 28.515625 8.296875 
L 28.515625 63.921875 
L 10.984375 60.40625 
L 10.984375 69.390625 
L 28.421875 72.90625 
L 38.28125 72.90625 
L 38.28125 8.296875 
L 54.390625 8.296875 
L 54.390625 0 
L 12.40625 0 
z
" id="DejaVuSans-49"/>
       </defs>
       <use xlink:href="#DejaVuSans-50"/>
       <use x="63.623047" xlink:href="#DejaVuSans-48"/>
       <use x="127.246094" xlink:href="#DejaVuSans-50"/>
       <use x="190.869141" xlink:href="#DejaVuSans-48"/>
       <use x="254.492188" xlink:href="#DejaVuSans-45"/>
       <use x="290.576172" xlink:href="#DejaVuSans-48"/>
       <use x="354.199219" xlink:href="#DejaVuSans-49"/>
      </g>
     </g>
    </g>
    <g id="xtick_2">
     <g id="line2d_2">
      <g>
       <use style="stroke:#000000;stroke-width:0.8;" x="121.929697" xlink:href="#m55217c5289" y="307.584"/>
      </g>
     </g>
     <g id="text_2">
      <!-- 2020-03 -->
      <g transform="translate(101.038291 322.182437)scale(0.1 -0.1)">
       <defs>
        <path d="M 40.578125 39.3125 
Q 47.65625 37.796875 51.625 33 
Q 55.609375 28.21875 55.609375 21.1875 
Q 55.609375 10.40625 48.1875 4.484375 
Q 40.765625 -1.421875 27.09375 -1.421875 
Q 22.515625 -1.421875 17.65625 -0.515625 
Q 12.796875 0.390625 7.625 2.203125 
L 7.625 11.71875 
Q 11.71875 9.328125 16.59375 8.109375 
Q 21.484375 6.890625 26.8125 6.890625 
Q 36.078125 6.890625 40.9375 10.546875 
Q 45.796875 14.203125 45.796875 21.1875 
Q 45.796875 27.640625 41.28125 31.265625 
Q 36.765625 34.90625 28.71875 34.90625 
L 20.21875 34.90625 
L 20.21875 43.015625 
L 29.109375 43.015625 
Q 36.375 43.015625 40.234375 45.921875 
Q 44.09375 48.828125 44.09375 54.296875 
Q 44.09375 59.90625 40.109375 62.90625 
Q 36.140625 65.921875 28.71875 65.921875 
Q 24.65625 65.921875 20.015625 65.03125 
Q 15.375 64.15625 9.8125 62.3125 
L 9.8125 71.09375 
Q 15.4375 72.65625 20.34375 73.4375 
Q 25.25 74.21875 29.59375 74.21875 
Q 40.828125 74.21875 47.359375 69.109375 
Q 53.90625 64.015625 53.90625 55.328125 
Q 53.90625 49.265625 50.4375 45.09375 
Q 46.96875 40.921875 40.578125 39.3125 
z
" id="DejaVuSans-51"/>
       </defs>
       <use xlink:href="#DejaVuSans-50"/>
       <use x="63.623047" xlink:href="#DejaVuSans-48"/>
       <use x="127.246094" xlink:href="#DejaVuSans-50"/>
       <use x="190.869141" xlink:href="#DejaVuSans-48"/>
       <use x="254.492188" xlink:href="#DejaVuSans-45"/>
       <use x="290.576172" xlink:href="#DejaVuSans-48"/>
       <use x="354.199219" xlink:href="#DejaVuSans-51"/>
      </g>
     </g>
    </g>
    <g id="xtick_3">
     <g id="line2d_3">
      <g>
       <use style="stroke:#000000;stroke-width:0.8;" x="170.828283" xlink:href="#m55217c5289" y="307.584"/>
      </g>
     </g>
     <g id="text_3">
      <!-- 2020-05 -->
      <g transform="translate(149.936877 322.182437)scale(0.1 -0.1)">
       <defs>
        <path d="M 10.796875 72.90625 
L 49.515625 72.90625 
L 49.515625 64.59375 
L 19.828125 64.59375 
L 19.828125 46.734375 
Q 21.96875 47.46875 24.109375 47.828125 
Q 26.265625 48.1875 28.421875 48.1875 
Q 40.625 48.1875 47.75 41.5 
Q 54.890625 34.8125 54.890625 23.390625 
Q 54.890625 11.625 47.5625 5.09375 
Q 40.234375 -1.421875 26.90625 -1.421875 
Q 22.3125 -1.421875 17.546875 -0.640625 
Q 12.796875 0.140625 7.71875 1.703125 
L 7.71875 11.625 
Q 12.109375 9.234375 16.796875 8.0625 
Q 21.484375 6.890625 26.703125 6.890625 
Q 35.15625 6.890625 40.078125 11.328125 
Q 45.015625 15.765625 45.015625 23.390625 
Q 45.015625 31 40.078125 35.4375 
Q 35.15625 39.890625 26.703125 39.890625 
Q 22.75 39.890625 18.8125 39.015625 
Q 14.890625 38.140625 10.796875 36.28125 
z
" id="DejaVuSans-53"/>
       </defs>
       <use xlink:href="#DejaVuSans-50"/>
       <use x="63.623047" xlink:href="#DejaVuSans-48"/>
       <use x="127.246094" xlink:href="#DejaVuSans-50"/>
       <use x="190.869141" xlink:href="#DejaVuSans-48"/>
       <use x="254.492188" xlink:href="#DejaVuSans-45"/>
       <use x="290.576172" xlink:href="#DejaVuSans-48"/>
       <use x="354.199219" xlink:href="#DejaVuSans-53"/>
      </g>
     </g>
    </g>
    <g id="xtick_4">
     <g id="line2d_4">
      <g>
       <use style="stroke:#000000;stroke-width:0.8;" x="219.726869" xlink:href="#m55217c5289" y="307.584"/>
      </g>
     </g>
     <g id="text_4">
      <!-- 2020-07 -->
      <g transform="translate(198.835462 322.182437)scale(0.1 -0.1)">
       <defs>
        <path d="M 8.203125 72.90625 
L 55.078125 72.90625 
L 55.078125 68.703125 
L 28.609375 0 
L 18.3125 0 
L 43.21875 64.59375 
L 8.203125 64.59375 
z
" id="DejaVuSans-55"/>
       </defs>
       <use xlink:href="#DejaVuSans-50"/>
       <use x="63.623047" xlink:href="#DejaVuSans-48"/>
       <use x="127.246094" xlink:href="#DejaVuSans-50"/>
       <use x="190.869141" xlink:href="#DejaVuSans-48"/>
       <use x="254.492188" xlink:href="#DejaVuSans-45"/>
       <use x="290.576172" xlink:href="#DejaVuSans-48"/>
       <use x="354.199219" xlink:href="#DejaVuSans-55"/>
      </g>
     </g>
    </g>
    <g id="xtick_5">
     <g id="line2d_5">
      <g>
       <use style="stroke:#000000;stroke-width:0.8;" x="269.427071" xlink:href="#m55217c5289" y="307.584"/>
      </g>
     </g>
     <g id="text_5">
      <!-- 2020-09 -->
      <g transform="translate(248.535664 322.182437)scale(0.1 -0.1)">
       <defs>
        <path d="M 10.984375 1.515625 
L 10.984375 10.5 
Q 14.703125 8.734375 18.5 7.8125 
Q 22.3125 6.890625 25.984375 6.890625 
Q 35.75 6.890625 40.890625 13.453125 
Q 46.046875 20.015625 46.78125 33.40625 
Q 43.953125 29.203125 39.59375 26.953125 
Q 35.25 24.703125 29.984375 24.703125 
Q 19.046875 24.703125 12.671875 31.3125 
Q 6.296875 37.9375 6.296875 49.421875 
Q 6.296875 60.640625 12.9375 67.421875 
Q 19.578125 74.21875 30.609375 74.21875 
Q 43.265625 74.21875 49.921875 64.515625 
Q 56.59375 54.828125 56.59375 36.375 
Q 56.59375 19.140625 48.40625 8.859375 
Q 40.234375 -1.421875 26.421875 -1.421875 
Q 22.703125 -1.421875 18.890625 -0.6875 
Q 15.09375 0.046875 10.984375 1.515625 
z
M 30.609375 32.421875 
Q 37.25 32.421875 41.125 36.953125 
Q 45.015625 41.5 45.015625 49.421875 
Q 45.015625 57.28125 41.125 61.84375 
Q 37.25 66.40625 30.609375 66.40625 
Q 23.96875 66.40625 20.09375 61.84375 
Q 16.21875 57.28125 16.21875 49.421875 
Q 16.21875 41.5 20.09375 36.953125 
Q 23.96875 32.421875 30.609375 32.421875 
z
" id="DejaVuSans-57"/>
       </defs>
       <use xlink:href="#DejaVuSans-50"/>
       <use x="63.623047" xlink:href="#DejaVuSans-48"/>
       <use x="127.246094" xlink:href="#DejaVuSans-50"/>
       <use x="190.869141" xlink:href="#DejaVuSans-48"/>
       <use x="254.492188" xlink:href="#DejaVuSans-45"/>
       <use x="290.576172" xlink:href="#DejaVuSans-48"/>
       <use x="354.199219" xlink:href="#DejaVuSans-57"/>
      </g>
     </g>
    </g>
    <g id="xtick_6">
     <g id="line2d_6">
      <g>
       <use style="stroke:#000000;stroke-width:0.8;" x="318.325657" xlink:href="#m55217c5289" y="307.584"/>
      </g>
     </g>
     <g id="text_6">
      <!-- 2020-11 -->
      <g transform="translate(297.43425 322.182437)scale(0.1 -0.1)">
       <use xlink:href="#DejaVuSans-50"/>
       <use x="63.623047" xlink:href="#DejaVuSans-48"/>
       <use x="127.246094" xlink:href="#DejaVuSans-50"/>
       <use x="190.869141" xlink:href="#DejaVuSans-48"/>
       <use x="254.492188" xlink:href="#DejaVuSans-45"/>
       <use x="290.576172" xlink:href="#DejaVuSans-49"/>
       <use x="354.199219" xlink:href="#DejaVuSans-49"/>
      </g>
     </g>
    </g>
    <g id="xtick_7">
     <g id="line2d_7">
      <g>
       <use style="stroke:#000000;stroke-width:0.8;" x="367.224242" xlink:href="#m55217c5289" y="307.584"/>
      </g>
     </g>
     <g id="text_7">
      <!-- 2021-01 -->
      <g transform="translate(346.332836 322.182437)scale(0.1 -0.1)">
       <use xlink:href="#DejaVuSans-50"/>
       <use x="63.623047" xlink:href="#DejaVuSans-48"/>
       <use x="127.246094" xlink:href="#DejaVuSans-50"/>
       <use x="190.869141" xlink:href="#DejaVuSans-49"/>
       <use x="254.492188" xlink:href="#DejaVuSans-45"/>
       <use x="290.576172" xlink:href="#DejaVuSans-48"/>
       <use x="354.199219" xlink:href="#DejaVuSans-49"/>
      </g>
     </g>
    </g>
    <g id="xtick_8">
     <g id="line2d_8">
      <g>
       <use style="stroke:#000000;stroke-width:0.8;" x="414.519596" xlink:href="#m55217c5289" y="307.584"/>
      </g>
     </g>
     <g id="text_8">
      <!-- 2021-03 -->
      <g transform="translate(393.62819 322.182437)scale(0.1 -0.1)">
       <use xlink:href="#DejaVuSans-50"/>
       <use x="63.623047" xlink:href="#DejaVuSans-48"/>
       <use x="127.246094" xlink:href="#DejaVuSans-50"/>
       <use x="190.869141" xlink:href="#DejaVuSans-49"/>
       <use x="254.492188" xlink:href="#DejaVuSans-45"/>
       <use x="290.576172" xlink:href="#DejaVuSans-48"/>
       <use x="354.199219" xlink:href="#DejaVuSans-51"/>
      </g>
     </g>
    </g>
   </g>
   <g id="matplotlib.axis_2">
    <g id="ytick_1">
     <g id="line2d_9">
      <defs>
       <path d="M 0 0 
L -3.5 0 
" id="md5a273b07b" style="stroke:#000000;stroke-width:0.8;"/>
      </defs>
      <g>
       <use style="stroke:#000000;stroke-width:0.8;" x="57.6" xlink:href="#md5a273b07b" y="307.584"/>
      </g>
     </g>
     <g id="text_9">
      <!-- 0 -->
      <g transform="translate(44.2375 311.383219)scale(0.1 -0.1)">
       <use xlink:href="#DejaVuSans-48"/>
      </g>
     </g>
    </g>
    <g id="ytick_2">
     <g id="line2d_10">
      <g>
       <use style="stroke:#000000;stroke-width:0.8;" x="57.6" xlink:href="#md5a273b07b" y="255.840428"/>
      </g>
     </g>
     <g id="text_10">
      <!-- 20 -->
      <g transform="translate(37.875 259.639647)scale(0.1 -0.1)">
       <use xlink:href="#DejaVuSans-50"/>
       <use x="63.623047" xlink:href="#DejaVuSans-48"/>
      </g>
     </g>
    </g>
    <g id="ytick_3">
     <g id="line2d_11">
      <g>
       <use style="stroke:#000000;stroke-width:0.8;" x="57.6" xlink:href="#md5a273b07b" y="204.096857"/>
      </g>
     </g>
     <g id="text_11">
      <!-- 40 -->
      <g transform="translate(37.875 207.896076)scale(0.1 -0.1)">
       <defs>
        <path d="M 37.796875 64.3125 
L 12.890625 25.390625 
L 37.796875 25.390625 
z
M 35.203125 72.90625 
L 47.609375 72.90625 
L 47.609375 25.390625 
L 58.015625 25.390625 
L 58.015625 17.1875 
L 47.609375 17.1875 
L 47.609375 0 
L 37.796875 0 
L 37.796875 17.1875 
L 4.890625 17.1875 
L 4.890625 26.703125 
z
" id="DejaVuSans-52"/>
       </defs>
       <use xlink:href="#DejaVuSans-52"/>
       <use x="63.623047" xlink:href="#DejaVuSans-48"/>
      </g>
     </g>
    </g>
    <g id="ytick_4">
     <g id="line2d_12">
      <g>
       <use style="stroke:#000000;stroke-width:0.8;" x="57.6" xlink:href="#md5a273b07b" y="152.353285"/>
      </g>
     </g>
     <g id="text_12">
      <!-- 60 -->
      <g transform="translate(37.875 156.152504)scale(0.1 -0.1)">
       <defs>
        <path d="M 33.015625 40.375 
Q 26.375 40.375 22.484375 35.828125 
Q 18.609375 31.296875 18.609375 23.390625 
Q 18.609375 15.53125 22.484375 10.953125 
Q 26.375 6.390625 33.015625 6.390625 
Q 39.65625 6.390625 43.53125 10.953125 
Q 47.40625 15.53125 47.40625 23.390625 
Q 47.40625 31.296875 43.53125 35.828125 
Q 39.65625 40.375 33.015625 40.375 
z
M 52.59375 71.296875 
L 52.59375 62.3125 
Q 48.875 64.0625 45.09375 64.984375 
Q 41.3125 65.921875 37.59375 65.921875 
Q 27.828125 65.921875 22.671875 59.328125 
Q 17.53125 52.734375 16.796875 39.40625 
Q 19.671875 43.65625 24.015625 45.921875 
Q 28.375 48.1875 33.59375 48.1875 
Q 44.578125 48.1875 50.953125 41.515625 
Q 57.328125 34.859375 57.328125 23.390625 
Q 57.328125 12.15625 50.6875 5.359375 
Q 44.046875 -1.421875 33.015625 -1.421875 
Q 20.359375 -1.421875 13.671875 8.265625 
Q 6.984375 17.96875 6.984375 36.375 
Q 6.984375 53.65625 15.1875 63.9375 
Q 23.390625 74.21875 37.203125 74.21875 
Q 40.921875 74.21875 44.703125 73.484375 
Q 48.484375 72.75 52.59375 71.296875 
z
" id="DejaVuSans-54"/>
       </defs>
       <use xlink:href="#DejaVuSans-54"/>
       <use x="63.623047" xlink:href="#DejaVuSans-48"/>
      </g>
     </g>
    </g>
    <g id="ytick_5">
     <g id="line2d_13">
      <g>
       <use style="stroke:#000000;stroke-width:0.8;" x="57.6" xlink:href="#md5a273b07b" y="100.609714"/>
      </g>
     </g>
     <g id="text_13">
      <!-- 80 -->
      <g transform="translate(37.875 104.408932)scale(0.1 -0.1)">
       <defs>
        <path d="M 31.78125 34.625 
Q 24.75 34.625 20.71875 30.859375 
Q 16.703125 27.09375 16.703125 20.515625 
Q 16.703125 13.921875 20.71875 10.15625 
Q 24.75 6.390625 31.78125 6.390625 
Q 38.8125 6.390625 42.859375 10.171875 
Q 46.921875 13.96875 46.921875 20.515625 
Q 46.921875 27.09375 42.890625 30.859375 
Q 38.875 34.625 31.78125 34.625 
z
M 21.921875 38.8125 
Q 15.578125 40.375 12.03125 44.71875 
Q 8.5 49.078125 8.5 55.328125 
Q 8.5 64.0625 14.71875 69.140625 
Q 20.953125 74.21875 31.78125 74.21875 
Q 42.671875 74.21875 48.875 69.140625 
Q 55.078125 64.0625 55.078125 55.328125 
Q 55.078125 49.078125 51.53125 44.71875 
Q 48 40.375 41.703125 38.8125 
Q 48.828125 37.15625 52.796875 32.3125 
Q 56.78125 27.484375 56.78125 20.515625 
Q 56.78125 9.90625 50.3125 4.234375 
Q 43.84375 -1.421875 31.78125 -1.421875 
Q 19.734375 -1.421875 13.25 4.234375 
Q 6.78125 9.90625 6.78125 20.515625 
Q 6.78125 27.484375 10.78125 32.3125 
Q 14.796875 37.15625 21.921875 38.8125 
z
M 18.3125 54.390625 
Q 18.3125 48.734375 21.84375 45.5625 
Q 25.390625 42.390625 31.78125 42.390625 
Q 38.140625 42.390625 41.71875 45.5625 
Q 45.3125 48.734375 45.3125 54.390625 
Q 45.3125 60.0625 41.71875 63.234375 
Q 38.140625 66.40625 31.78125 66.40625 
Q 25.390625 66.40625 21.84375 63.234375 
Q 18.3125 60.0625 18.3125 54.390625 
z
" id="DejaVuSans-56"/>
       </defs>
       <use xlink:href="#DejaVuSans-56"/>
       <use x="63.623047" xlink:href="#DejaVuSans-48"/>
      </g>
     </g>
    </g>
    <g id="ytick_6">
     <g id="line2d_14">
      <g>
       <use style="stroke:#000000;stroke-width:0.8;" x="57.6" xlink:href="#md5a273b07b" y="48.866142"/>
      </g>
     </g>
     <g id="text_14">
      <!-- 100 -->
      <g transform="translate(31.5125 52.665361)scale(0.1 -0.1)">
       <use xlink:href="#DejaVuSans-49"/>
       <use x="63.623047" xlink:href="#DejaVuSans-48"/>
       <use x="127.246094" xlink:href="#DejaVuSans-48"/>
      </g>
     </g>
    </g>
   </g>
   <g id="line2d_15">
    <path clip-path="url(#p10a4fd1e2e)" d="M 86.658586 109.456246 
L 87.460202 108.007165 
L 88.261818 113.682392 
L 89.063434 123.075642 
L 89.865051 136.071545 
L 90.666667 143.692865 
L 91.468283 147.168069 
L 93.071515 156.440143 
L 93.873131 158.067917 
L 94.674747 148.694506 
L 95.476364 143.810456 
L 96.27798 143.144732 
L 97.079596 143.329311 
L 97.881212 146.721602 
L 98.682828 147.177543 
L 99.484444 149.366892 
L 100.286061 144.942928 
L 101.087677 145.114691 
L 101.889293 141.592445 
L 102.690909 130.927074 
L 103.492525 116.013097 
L 104.294141 104.807671 
L 105.095758 101.390263 
L 105.897374 108.552096 
L 106.69899 119.897928 
L 107.500606 127.81617 
L 108.302222 130.682775 
L 109.103838 127.032289 
L 109.905455 137.61426 
L 110.707071 141.403967 
L 111.508687 154.156785 
L 112.310303 148.797381 
L 113.111919 158.6351 
L 113.913535 166.815616 
L 114.715152 181.874853 
L 115.516768 184.705715 
L 116.318384 185.292996 
L 117.12 186.296717 
L 117.921616 196.080495 
L 119.524848 226.802689 
L 120.326465 234.064675 
L 121.128081 233.740089 
L 121.929697 235.101983 
L 122.731313 224.909545 
L 123.532929 226.708614 
L 124.334545 222.550091 
L 125.136162 220.951465 
L 125.937778 209.256247 
L 126.739394 205.804933 
L 128.342626 234.759467 
L 129.144242 243.873993 
L 129.945859 234.588673 
L 130.747475 242.578197 
L 131.549091 243.991502 
L 132.350707 252.290879 
L 133.152323 242.777003 
L 133.953939 246.775078 
L 134.755556 246.450289 
L 135.557172 247.143834 
L 136.358788 238.881511 
L 137.96202 230.099956 
L 138.763636 227.859496 
L 139.565253 218.961451 
L 140.366869 208.808689 
L 141.168485 201.280792 
L 141.970101 174.33578 
L 143.573333 134.815286 
L 144.374949 146.915302 
L 145.176566 143.916972 
L 145.978182 144.311529 
L 146.779798 137.076963 
L 147.581414 144.924047 
L 149.184646 155.908112 
L 150.787879 147.256929 
L 151.589495 146.649353 
L 152.391111 149.490348 
L 153.192727 151.429202 
L 153.994343 157.192329 
L 154.79596 158.214465 
L 155.597576 148.679235 
L 156.399192 148.242563 
L 157.200808 149.69363 
L 158.002424 167.11449 
L 158.80404 166.791561 
L 159.605657 168.308783 
L 160.407273 163.600175 
L 161.208889 160.748632 
L 162.010505 173.405021 
L 162.812121 188.056658 
L 163.613737 197.666922 
L 164.415354 187.128983 
L 165.21697 168.66414 
L 166.018586 152.889294 
L 166.820202 147.992431 
L 167.621818 138.491873 
L 168.423434 132.91438 
L 169.225051 113.370236 
L 170.828283 93.001681 
L 171.629899 92.281352 
L 172.431515 92.86379 
L 173.233131 85.399396 
L 174.836364 66.347122 
L 175.63798 65.276147 
L 176.439596 62.861699 
L 177.241212 67.976128 
L 178.844444 124.717557 
L 179.646061 147.867133 
L 180.447677 148.698179 
L 181.249293 151.869227 
L 182.852525 156.588421 
L 183.654141 155.878929 
L 184.455758 155.58419 
L 185.257374 153.192589 
L 186.05899 157.140982 
L 186.860606 165.271765 
L 187.662222 181.692139 
L 188.463838 192.849739 
L 189.265455 180.813684 
L 190.067071 173.816055 
L 190.868687 165.596834 
L 191.670303 180.403796 
L 192.471919 186.436928 
L 193.273535 190.018518 
L 194.075152 185.356085 
L 194.876768 182.70584 
L 195.678384 182.882752 
L 196.48 178.259213 
L 197.281616 176.206032 
L 198.884848 167.196265 
L 199.686465 157.241794 
L 200.488081 154.318405 
L 202.091313 142.945968 
L 202.892929 135.638502 
L 203.694545 140.666463 
L 204.496162 153.534644 
L 205.297778 169.140905 
L 206.099394 182.094673 
L 206.90101 189.51345 
L 207.702626 198.779885 
L 208.504242 199.257282 
L 209.305859 194.213293 
L 210.107475 196.685694 
L 210.909091 203.770782 
L 211.710707 209.54051 
L 213.313939 194.687781 
L 214.115556 192.655411 
L 214.917172 197.966672 
L 215.718788 204.882794 
L 216.520404 206.137962 
L 217.32202 204.089456 
L 218.123636 196.248048 
L 218.925253 200.373741 
L 219.726869 200.539822 
L 220.528485 207.266367 
L 221.330101 202.257035 
L 222.131717 199.727357 
L 222.933333 200.967909 
L 223.734949 204.329895 
L 224.536566 208.376759 
L 225.338182 208.150879 
L 226.139798 193.294158 
L 227.74303 168.075781 
L 228.544646 161.819217 
L 229.346263 153.612193 
L 230.147879 155.132608 
L 230.949495 164.322028 
L 231.751111 176.570009 
L 232.552727 177.828911 
L 233.354343 177.868719 
L 234.15596 170.924628 
L 234.957576 173.018364 
L 235.759192 178.565703 
L 236.560808 178.694838 
L 237.362424 173.201101 
L 238.16404 148.074804 
L 239.767273 113.327672 
L 240.568889 104.137174 
L 241.370505 85.112173 
L 242.172121 69.360709 
L 242.973737 57.659375 
L 244.57697 51.510994 
L 245.378586 54.507085 
L 247.783434 74.18635 
L 248.585051 74.742322 
L 249.386667 75.588464 
L 250.188283 80.909295 
L 250.989899 87.764958 
L 251.791515 95.956271 
L 252.593131 107.806111 
L 253.394747 130.04332 
L 254.196364 148.980224 
L 254.99798 154.768101 
L 255.799596 152.296074 
L 256.601212 150.674506 
L 257.402828 150.147652 
L 258.204444 143.710409 
L 259.006061 144.227816 
L 259.807677 154.492799 
L 260.609293 172.301844 
L 261.410909 179.468345 
L 262.212525 180.794268 
L 263.014141 181.623883 
L 263.815758 189.705501 
L 264.617374 186.952819 
L 265.41899 187.372424 
L 266.220606 185.609151 
L 267.022222 194.461426 
L 267.823838 194.240386 
L 268.625455 192.525832 
L 269.427071 192.460243 
L 270.228687 190.72136 
L 271.030303 196.920259 
L 271.831919 207.362804 
L 272.633535 221.031869 
L 273.435152 229.998898 
L 274.236768 232.390733 
L 275.038384 230.225984 
L 275.84 229.756841 
L 276.641616 221.583709 
L 277.443232 221.201517 
L 278.244848 216.732807 
L 279.046465 221.93768 
L 279.848081 219.511047 
L 280.649697 219.477522 
L 281.451313 211.631574 
L 282.252929 205.109924 
L 283.054545 179.864005 
L 284.657778 139.846907 
L 285.459394 145.353699 
L 286.26101 152.802861 
L 287.062626 163.366966 
L 287.864242 163.763548 
L 288.665859 161.52303 
L 289.467475 160.23639 
L 290.269091 157.778362 
L 291.070707 160.086595 
L 291.872323 167.178814 
L 292.673939 182.929709 
L 293.475556 194.55466 
L 294.277172 201.810611 
L 295.078788 207.023871 
L 295.880404 204.52098 
L 298.285253 156.995131 
L 299.086869 155.894985 
L 299.888485 146.289779 
L 300.690101 142.695686 
L 301.491717 133.832449 
L 302.293333 127.038772 
L 303.094949 125.579819 
L 303.896566 124.396033 
L 304.698182 118.437289 
L 305.499798 116.882163 
L 306.301414 115.065446 
L 307.10303 118.403023 
L 307.904646 115.126626 
L 308.706263 105.479896 
L 309.507879 92.343634 
L 310.309495 81.163107 
L 311.111111 79.446497 
L 311.912727 82.002777 
L 312.714343 87.223501 
L 313.51596 91.261687 
L 314.317576 89.121265 
L 315.119192 92.644038 
L 315.920808 94.731285 
L 316.722424 98.246655 
L 317.52404 92.452401 
L 318.325657 88.548919 
L 319.127273 94.511443 
L 319.928889 99.57984 
L 320.730505 108.110126 
L 321.532121 104.336648 
L 322.333737 101.415668 
L 323.135354 105.963083 
L 323.93697 113.044314 
L 324.738586 122.883031 
L 325.540202 123.728774 
L 326.341818 122.20836 
L 327.143434 117.014918 
L 327.945051 108.863555 
L 328.746667 111.695353 
L 329.548283 117.088974 
L 330.349899 116.836123 
L 331.953131 104.008653 
L 332.754747 107.774346 
L 333.556364 109.499318 
L 335.159596 93.220832 
L 335.961212 87.210871 
L 336.762828 89.031958 
L 337.564444 91.999053 
L 339.167677 141.549712 
L 339.969293 155.342113 
L 340.770909 147.491273 
L 341.572525 136.357884 
L 342.374141 140.993695 
L 343.175758 147.123261 
L 343.977374 155.306656 
L 344.77899 161.762899 
L 345.580606 167.287716 
L 346.382222 171.085252 
L 347.183838 166.971957 
L 348.787071 179.220116 
L 349.588687 176.862633 
L 350.390303 167.598731 
L 351.191919 160.683197 
L 351.993535 161.497713 
L 352.795152 169.654913 
L 353.596768 170.517267 
L 354.398384 162.740037 
L 356.001616 121.714129 
L 356.803232 109.305919 
L 357.604848 105.19351 
L 358.406465 112.60229 
L 359.208081 111.291761 
L 360.009697 111.173817 
L 360.811313 103.718059 
L 361.612929 102.246033 
L 362.414545 94.559326 
L 363.216162 91.849508 
L 364.017778 91.438408 
L 364.819394 92.132171 
L 365.62101 91.52515 
L 367.224242 96.136169 
L 368.025859 95.152871 
L 368.827475 89.085125 
L 369.629091 84.822441 
L 370.430707 82.579746 
L 371.232323 78.684972 
L 372.835556 66.865659 
L 373.637172 68.470013 
L 374.438788 78.474453 
L 376.04202 120.145569 
L 376.843636 132.012818 
L 377.645253 132.169604 
L 378.446869 133.731492 
L 379.248485 142.66364 
L 380.050101 155.058666 
L 381.653333 161.522993 
L 382.454949 169.207446 
L 383.256566 193.833582 
L 384.058182 211.17803 
L 384.859798 222.86618 
L 385.661414 217.797716 
L 386.46303 211.007549 
L 387.264646 200.150018 
L 388.867879 212.314853 
L 389.669495 215.067673 
L 390.471111 202.294593 
L 391.272727 195.764977 
L 392.074343 197.329854 
L 392.87596 193.792029 
L 393.677576 182.376964 
L 394.479192 157.950934 
L 396.082424 126.375708 
L 396.88404 124.572328 
L 397.685657 112.980727 
L 398.487273 106.793198 
L 398.487273 106.793198 
" style="fill:none;stroke:#ff6347;stroke-linecap:square;stroke-width:1.5;"/>
   </g>
   <g id="patch_3">
    <path d="M 57.6 307.584 
L 57.6 41.472 
" style="fill:none;stroke:#000000;stroke-linecap:square;stroke-linejoin:miter;stroke-width:0.8;"/>
   </g>
   <g id="patch_4">
    <path d="M 414.72 307.584 
L 414.72 41.472 
" style="fill:none;stroke:#000000;stroke-linecap:square;stroke-linejoin:miter;stroke-width:0.8;"/>
   </g>
   <g id="patch_5">
    <path d="M 57.6 307.584 
L 414.72 307.584 
" style="fill:none;stroke:#000000;stroke-linecap:square;stroke-linejoin:miter;stroke-width:0.8;"/>
   </g>
   <g id="patch_6">
    <path d="M 57.6 41.472 
L 414.72 41.472 
" style="fill:none;stroke:#000000;stroke-linecap:square;stroke-linejoin:miter;stroke-width:0.8;"/>
   </g>
   <g id="text_15">
    <!-- Data source: coindesk -->
    <g transform="translate(180.640469 35.472)scale(0.1 -0.1)">
     <defs>
      <path d="M 19.671875 64.796875 
L 19.671875 8.109375 
L 31.59375 8.109375 
Q 46.6875 8.109375 53.6875 14.9375 
Q 60.6875 21.78125 60.6875 36.53125 
Q 60.6875 51.171875 53.6875 57.984375 
Q 46.6875 64.796875 31.59375 64.796875 
z
M 9.8125 72.90625 
L 30.078125 72.90625 
Q 51.265625 72.90625 61.171875 64.09375 
Q 71.09375 55.28125 71.09375 36.53125 
Q 71.09375 17.671875 61.125 8.828125 
Q 51.171875 0 30.078125 0 
L 9.8125 0 
z
" id="DejaVuSans-68"/>
      <path d="M 34.28125 27.484375 
Q 23.390625 27.484375 19.1875 25 
Q 14.984375 22.515625 14.984375 16.5 
Q 14.984375 11.71875 18.140625 8.90625 
Q 21.296875 6.109375 26.703125 6.109375 
Q 34.1875 6.109375 38.703125 11.40625 
Q 43.21875 16.703125 43.21875 25.484375 
L 43.21875 27.484375 
z
M 52.203125 31.203125 
L 52.203125 0 
L 43.21875 0 
L 43.21875 8.296875 
Q 40.140625 3.328125 35.546875 0.953125 
Q 30.953125 -1.421875 24.3125 -1.421875 
Q 15.921875 -1.421875 10.953125 3.296875 
Q 6 8.015625 6 15.921875 
Q 6 25.140625 12.171875 29.828125 
Q 18.359375 34.515625 30.609375 34.515625 
L 43.21875 34.515625 
L 43.21875 35.40625 
Q 43.21875 41.609375 39.140625 45 
Q 35.0625 48.390625 27.6875 48.390625 
Q 23 48.390625 18.546875 47.265625 
Q 14.109375 46.140625 10.015625 43.890625 
L 10.015625 52.203125 
Q 14.9375 54.109375 19.578125 55.046875 
Q 24.21875 56 28.609375 56 
Q 40.484375 56 46.34375 49.84375 
Q 52.203125 43.703125 52.203125 31.203125 
z
" id="DejaVuSans-97"/>
      <path d="M 18.3125 70.21875 
L 18.3125 54.6875 
L 36.8125 54.6875 
L 36.8125 47.703125 
L 18.3125 47.703125 
L 18.3125 18.015625 
Q 18.3125 11.328125 20.140625 9.421875 
Q 21.96875 7.515625 27.59375 7.515625 
L 36.8125 7.515625 
L 36.8125 0 
L 27.59375 0 
Q 17.1875 0 13.234375 3.875 
Q 9.28125 7.765625 9.28125 18.015625 
L 9.28125 47.703125 
L 2.6875 47.703125 
L 2.6875 54.6875 
L 9.28125 54.6875 
L 9.28125 70.21875 
z
" id="DejaVuSans-116"/>
      <path id="DejaVuSans-32"/>
      <path d="M 44.28125 53.078125 
L 44.28125 44.578125 
Q 40.484375 46.53125 36.375 47.5 
Q 32.28125 48.484375 27.875 48.484375 
Q 21.1875 48.484375 17.84375 46.4375 
Q 14.5 44.390625 14.5 40.28125 
Q 14.5 37.15625 16.890625 35.375 
Q 19.28125 33.59375 26.515625 31.984375 
L 29.59375 31.296875 
Q 39.15625 29.25 43.1875 25.515625 
Q 47.21875 21.78125 47.21875 15.09375 
Q 47.21875 7.46875 41.1875 3.015625 
Q 35.15625 -1.421875 24.609375 -1.421875 
Q 20.21875 -1.421875 15.453125 -0.5625 
Q 10.6875 0.296875 5.421875 2 
L 5.421875 11.28125 
Q 10.40625 8.6875 15.234375 7.390625 
Q 20.0625 6.109375 24.8125 6.109375 
Q 31.15625 6.109375 34.5625 8.28125 
Q 37.984375 10.453125 37.984375 14.40625 
Q 37.984375 18.0625 35.515625 20.015625 
Q 33.0625 21.96875 24.703125 23.78125 
L 21.578125 24.515625 
Q 13.234375 26.265625 9.515625 29.90625 
Q 5.8125 33.546875 5.8125 39.890625 
Q 5.8125 47.609375 11.28125 51.796875 
Q 16.75 56 26.8125 56 
Q 31.78125 56 36.171875 55.265625 
Q 40.578125 54.546875 44.28125 53.078125 
z
" id="DejaVuSans-115"/>
      <path d="M 30.609375 48.390625 
Q 23.390625 48.390625 19.1875 42.75 
Q 14.984375 37.109375 14.984375 27.296875 
Q 14.984375 17.484375 19.15625 11.84375 
Q 23.34375 6.203125 30.609375 6.203125 
Q 37.796875 6.203125 41.984375 11.859375 
Q 46.1875 17.53125 46.1875 27.296875 
Q 46.1875 37.015625 41.984375 42.703125 
Q 37.796875 48.390625 30.609375 48.390625 
z
M 30.609375 56 
Q 42.328125 56 49.015625 48.375 
Q 55.71875 40.765625 55.71875 27.296875 
Q 55.71875 13.875 49.015625 6.21875 
Q 42.328125 -1.421875 30.609375 -1.421875 
Q 18.84375 -1.421875 12.171875 6.21875 
Q 5.515625 13.875 5.515625 27.296875 
Q 5.515625 40.765625 12.171875 48.375 
Q 18.84375 56 30.609375 56 
z
" id="DejaVuSans-111"/>
      <path d="M 8.5 21.578125 
L 8.5 54.6875 
L 17.484375 54.6875 
L 17.484375 21.921875 
Q 17.484375 14.15625 20.5 10.265625 
Q 23.53125 6.390625 29.59375 6.390625 
Q 36.859375 6.390625 41.078125 11.03125 
Q 45.3125 15.671875 45.3125 23.6875 
L 45.3125 54.6875 
L 54.296875 54.6875 
L 54.296875 0 
L 45.3125 0 
L 45.3125 8.40625 
Q 42.046875 3.421875 37.71875 1 
Q 33.40625 -1.421875 27.6875 -1.421875 
Q 18.265625 -1.421875 13.375 4.4375 
Q 8.5 10.296875 8.5 21.578125 
z
M 31.109375 56 
z
" id="DejaVuSans-117"/>
      <path d="M 41.109375 46.296875 
Q 39.59375 47.171875 37.8125 47.578125 
Q 36.03125 48 33.890625 48 
Q 26.265625 48 22.1875 43.046875 
Q 18.109375 38.09375 18.109375 28.8125 
L 18.109375 0 
L 9.078125 0 
L 9.078125 54.6875 
L 18.109375 54.6875 
L 18.109375 46.1875 
Q 20.953125 51.171875 25.484375 53.578125 
Q 30.03125 56 36.53125 56 
Q 37.453125 56 38.578125 55.875 
Q 39.703125 55.765625 41.0625 55.515625 
z
" id="DejaVuSans-114"/>
      <path d="M 48.78125 52.59375 
L 48.78125 44.1875 
Q 44.96875 46.296875 41.140625 47.34375 
Q 37.3125 48.390625 33.40625 48.390625 
Q 24.65625 48.390625 19.8125 42.84375 
Q 14.984375 37.3125 14.984375 27.296875 
Q 14.984375 17.28125 19.8125 11.734375 
Q 24.65625 6.203125 33.40625 6.203125 
Q 37.3125 6.203125 41.140625 7.25 
Q 44.96875 8.296875 48.78125 10.40625 
L 48.78125 2.09375 
Q 45.015625 0.34375 40.984375 -0.53125 
Q 36.96875 -1.421875 32.421875 -1.421875 
Q 20.0625 -1.421875 12.78125 6.34375 
Q 5.515625 14.109375 5.515625 27.296875 
Q 5.515625 40.671875 12.859375 48.328125 
Q 20.21875 56 33.015625 56 
Q 37.15625 56 41.109375 55.140625 
Q 45.0625 54.296875 48.78125 52.59375 
z
" id="DejaVuSans-99"/>
      <path d="M 56.203125 29.59375 
L 56.203125 25.203125 
L 14.890625 25.203125 
Q 15.484375 15.921875 20.484375 11.0625 
Q 25.484375 6.203125 34.421875 6.203125 
Q 39.59375 6.203125 44.453125 7.46875 
Q 49.3125 8.734375 54.109375 11.28125 
L 54.109375 2.78125 
Q 49.265625 0.734375 44.1875 -0.34375 
Q 39.109375 -1.421875 33.890625 -1.421875 
Q 20.796875 -1.421875 13.15625 6.1875 
Q 5.515625 13.8125 5.515625 26.8125 
Q 5.515625 40.234375 12.765625 48.109375 
Q 20.015625 56 32.328125 56 
Q 43.359375 56 49.78125 48.890625 
Q 56.203125 41.796875 56.203125 29.59375 
z
M 47.21875 32.234375 
Q 47.125 39.59375 43.09375 43.984375 
Q 39.0625 48.390625 32.421875 48.390625 
Q 24.90625 48.390625 20.390625 44.140625 
Q 15.875 39.890625 15.1875 32.171875 
z
" id="DejaVuSans-101"/>
      <path d="M 11.71875 12.40625 
L 22.015625 12.40625 
L 22.015625 0 
L 11.71875 0 
z
M 11.71875 51.703125 
L 22.015625 51.703125 
L 22.015625 39.3125 
L 11.71875 39.3125 
z
" id="DejaVuSans-58"/>
      <path d="M 9.421875 54.6875 
L 18.40625 54.6875 
L 18.40625 0 
L 9.421875 0 
z
M 9.421875 75.984375 
L 18.40625 75.984375 
L 18.40625 64.59375 
L 9.421875 64.59375 
z
" id="DejaVuSans-105"/>
      <path d="M 54.890625 33.015625 
L 54.890625 0 
L 45.90625 0 
L 45.90625 32.71875 
Q 45.90625 40.484375 42.875 44.328125 
Q 39.84375 48.1875 33.796875 48.1875 
Q 26.515625 48.1875 22.3125 43.546875 
Q 18.109375 38.921875 18.109375 30.90625 
L 18.109375 0 
L 9.078125 0 
L 9.078125 54.6875 
L 18.109375 54.6875 
L 18.109375 46.1875 
Q 21.34375 51.125 25.703125 53.5625 
Q 30.078125 56 35.796875 56 
Q 45.21875 56 50.046875 50.171875 
Q 54.890625 44.34375 54.890625 33.015625 
z
" id="DejaVuSans-110"/>
      <path d="M 45.40625 46.390625 
L 45.40625 75.984375 
L 54.390625 75.984375 
L 54.390625 0 
L 45.40625 0 
L 45.40625 8.203125 
Q 42.578125 3.328125 38.25 0.953125 
Q 33.9375 -1.421875 27.875 -1.421875 
Q 17.96875 -1.421875 11.734375 6.484375 
Q 5.515625 14.40625 5.515625 27.296875 
Q 5.515625 40.1875 11.734375 48.09375 
Q 17.96875 56 27.875 56 
Q 33.9375 56 38.25 53.625 
Q 42.578125 51.265625 45.40625 46.390625 
z
M 14.796875 27.296875 
Q 14.796875 17.390625 18.875 11.75 
Q 22.953125 6.109375 30.078125 6.109375 
Q 37.203125 6.109375 41.296875 11.75 
Q 45.40625 17.390625 45.40625 27.296875 
Q 45.40625 37.203125 41.296875 42.84375 
Q 37.203125 48.484375 30.078125 48.484375 
Q 22.953125 48.484375 18.875 42.84375 
Q 14.796875 37.203125 14.796875 27.296875 
z
" id="DejaVuSans-100"/>
      <path d="M 9.078125 75.984375 
L 18.109375 75.984375 
L 18.109375 31.109375 
L 44.921875 54.6875 
L 56.390625 54.6875 
L 27.390625 29.109375 
L 57.625 0 
L 45.90625 0 
L 18.109375 26.703125 
L 18.109375 0 
L 9.078125 0 
z
" id="DejaVuSans-107"/>
     </defs>
     <use xlink:href="#DejaVuSans-68"/>
     <use x="77.001953" xlink:href="#DejaVuSans-97"/>
     <use x="138.28125" xlink:href="#DejaVuSans-116"/>
     <use x="177.490234" xlink:href="#DejaVuSans-97"/>
     <use x="238.769531" xlink:href="#DejaVuSans-32"/>
     <use x="270.556641" xlink:href="#DejaVuSans-115"/>
     <use x="322.65625" xlink:href="#DejaVuSans-111"/>
     <use x="383.837891" xlink:href="#DejaVuSans-117"/>
     <use x="447.216797" xlink:href="#DejaVuSans-114"/>
     <use x="486.080078" xlink:href="#DejaVuSans-99"/>
     <use x="541.060547" xlink:href="#DejaVuSans-101"/>
     <use x="602.583984" xlink:href="#DejaVuSans-58"/>
     <use x="636.275391" xlink:href="#DejaVuSans-32"/>
     <use x="668.0625" xlink:href="#DejaVuSans-99"/>
     <use x="723.042969" xlink:href="#DejaVuSans-111"/>
     <use x="784.224609" xlink:href="#DejaVuSans-105"/>
     <use x="812.007812" xlink:href="#DejaVuSans-110"/>
     <use x="875.386719" xlink:href="#DejaVuSans-100"/>
     <use x="938.863281" xlink:href="#DejaVuSans-101"/>
     <use x="1000.386719" xlink:href="#DejaVuSans-115"/>
     <use x="1052.486328" xlink:href="#DejaVuSans-107"/>
    </g>
   </g>
   <g id="legend_1">
    <g id="patch_7">
     <path d="M 359.473125 64.150125 
L 407.72 64.150125 
Q 409.72 64.150125 409.72 62.150125 
L 409.72 48.472 
Q 409.72 46.472 407.72 46.472 
L 359.473125 46.472 
Q 357.473125 46.472 357.473125 48.472 
L 357.473125 62.150125 
Q 357.473125 64.150125 359.473125 64.150125 
z
" style="fill:#ffffff;opacity:0.8;stroke:#cccccc;stroke-linejoin:miter;"/>
    </g>
    <g id="line2d_16">
     <path d="M 361.473125 54.570438 
L 381.473125 54.570438 
" style="fill:none;stroke:#ff6347;stroke-linecap:square;stroke-width:1.5;"/>
    </g>
    <g id="line2d_17"/>
    <g id="text_16">
     <!-- RSI -->
     <g transform="translate(389.473125 58.070438)scale(0.1 -0.1)">
      <defs>
       <path d="M 44.390625 34.1875 
Q 47.5625 33.109375 50.5625 29.59375 
Q 53.5625 26.078125 56.59375 19.921875 
L 66.609375 0 
L 56 0 
L 46.6875 18.703125 
Q 43.0625 26.03125 39.671875 28.421875 
Q 36.28125 30.8125 30.421875 30.8125 
L 19.671875 30.8125 
L 19.671875 0 
L 9.8125 0 
L 9.8125 72.90625 
L 32.078125 72.90625 
Q 44.578125 72.90625 50.734375 67.671875 
Q 56.890625 62.453125 56.890625 51.90625 
Q 56.890625 45.015625 53.6875 40.46875 
Q 50.484375 35.9375 44.390625 34.1875 
z
M 19.671875 64.796875 
L 19.671875 38.921875 
L 32.078125 38.921875 
Q 39.203125 38.921875 42.84375 42.21875 
Q 46.484375 45.515625 46.484375 51.90625 
Q 46.484375 58.296875 42.84375 61.546875 
Q 39.203125 64.796875 32.078125 64.796875 
z
" id="DejaVuSans-82"/>
       <path d="M 53.515625 70.515625 
L 53.515625 60.890625 
Q 47.90625 63.578125 42.921875 64.890625 
Q 37.9375 66.21875 33.296875 66.21875 
Q 25.25 66.21875 20.875 63.09375 
Q 16.5 59.96875 16.5 54.203125 
Q 16.5 49.359375 19.40625 46.890625 
Q 22.3125 44.4375 30.421875 42.921875 
L 36.375 41.703125 
Q 47.40625 39.59375 52.65625 34.296875 
Q 57.90625 29 57.90625 20.125 
Q 57.90625 9.515625 50.796875 4.046875 
Q 43.703125 -1.421875 29.984375 -1.421875 
Q 24.8125 -1.421875 18.96875 -0.25 
Q 13.140625 0.921875 6.890625 3.21875 
L 6.890625 13.375 
Q 12.890625 10.015625 18.65625 8.296875 
Q 24.421875 6.59375 29.984375 6.59375 
Q 38.421875 6.59375 43.015625 9.90625 
Q 47.609375 13.234375 47.609375 19.390625 
Q 47.609375 24.75 44.3125 27.78125 
Q 41.015625 30.8125 33.5 32.328125 
L 27.484375 33.5 
Q 16.453125 35.6875 11.515625 40.375 
Q 6.59375 45.0625 6.59375 53.421875 
Q 6.59375 63.09375 13.40625 68.65625 
Q 20.21875 74.21875 32.171875 74.21875 
Q 37.3125 74.21875 42.625 73.28125 
Q 47.953125 72.359375 53.515625 70.515625 
z
" id="DejaVuSans-83"/>
       <path d="M 9.8125 72.90625 
L 19.671875 72.90625 
L 19.671875 0 
L 9.8125 0 
z
" id="DejaVuSans-73"/>
      </defs>
      <use xlink:href="#DejaVuSans-82"/>
      <use x="69.482422" xlink:href="#DejaVuSans-83"/>
      <use x="132.958984" xlink:href="#DejaVuSans-73"/>
     </g>
    </g>
   </g>
  </g>
  <g id="text_17">
   <!-- RSI -->
   <g transform="translate(217.4025 19.0695)scale(0.16 -0.16)">
    <use xlink:href="#DejaVuSans-82"/>
    <use x="69.482422" xlink:href="#DejaVuSans-83"/>
    <use x="132.958984" xlink:href="#DejaVuSans-73"/>
   </g>
  </g>
 </g>
 <defs>
  <clipPath id="p10a4fd1e2e">
   <rect height="266.112" width="357.12" x="57.6" y="41.472"/>
  </clipPath>
 </defs>
</svg>
