<?xml version="1.0" encoding="utf-8" standalone="no"?>
<!DOCTYPE svg PUBLIC "-//W3C//DTD SVG 1.1//EN"
  "http://www.w3.org/Graphics/SVG/1.1/DTD/svg11.dtd">
<!-- Created with matplotlib (https://matplotlib.org/) -->
<svg height="345.6pt" version="1.1" viewBox="0 0 460.8 345.6" width="460.8pt" xmlns="http://www.w3.org/2000/svg" xmlns:xlink="http://www.w3.org/1999/xlink">
 <metadata>
  <rdf:RDF xmlns:cc="http://creativecommons.org/ns#" xmlns:dc="http://purl.org/dc/elements/1.1/" xmlns:rdf="http://www.w3.org/1999/02/22-rdf-syntax-ns#">
   <cc:Work>
    <dc:type rdf:resource="http://purl.org/dc/dcmitype/StillImage"/>
    <dc:date>2021-02-26T19:13:38.097252</dc:date>
    <dc:format>image/svg+xml</dc:format>
    <dc:creator>
     <cc:Agent>
      <dc:title>Matplotlib v3.3.2, https://matplotlib.org/</dc:title>
     </cc:Agent>
    </dc:creator>
   </cc:Work>
  </rdf:RDF>
 </metadata>
 <defs>
  <style type="text/css">*{stroke-linecap:butt;stroke-linejoin:round;}</style>
 </defs>
 <g id="figure_1">
  <g id="patch_1">
   <path d="M 0 345.6 
L 460.8 345.6 
L 460.8 0 
L 0 0 
z
" style="fill:#ffffff;"/>
  </g>
  <g id="axes_1">
   <g id="patch_2">
    <path d="M 57.6 307.584 
L 414.72 307.584 
L 414.72 41.472 
L 57.6 41.472 
z
" style="fill:#ffffff;"/>
   </g>
   <g id="PolyCollection_1">
    <defs>
     <path d="M 73.832727 -229.98475 
L 73.832727 -120.288322 
L 74.602051 -120.288322 
L 75.371374 -120.288322 
L 76.140698 -120.288322 
L 76.910022 -120.288322 
L 77.679345 -120.288322 
L 78.448669 -120.288322 
L 79.217992 -120.288322 
L 79.987316 -120.288322 
L 80.756639 -120.288322 
L 81.525963 -120.288322 
L 82.295287 -120.288322 
L 83.06461 -120.288322 
L 83.833934 -120.288322 
L 84.603257 -120.288322 
L 85.372581 -120.288322 
L 86.141904 -120.288322 
L 86.911228 -120.288322 
L 87.680551 -120.288322 
L 88.449875 -120.288322 
L 89.219199 -120.288322 
L 89.988522 -120.288322 
L 90.757846 -120.288322 
L 91.527169 -120.288322 
L 92.296493 -120.288322 
L 93.065816 -120.288322 
L 93.83514 -120.288322 
L 94.604464 -120.288322 
L 95.373787 -120.288322 
L 96.143111 -120.288322 
L 96.912434 -120.288322 
L 97.681758 -120.288322 
L 98.451081 -120.288322 
L 99.220405 -120.288322 
L 99.989729 -120.288322 
L 100.759052 -120.288322 
L 101.528376 -120.288322 
L 102.297699 -120.288322 
L 103.067023 -120.288322 
L 103.836346 -120.288322 
L 104.60567 -120.288322 
L 105.374994 -120.288322 
L 106.144317 -120.288322 
L 106.913641 -120.288322 
L 107.682964 -120.288322 
L 108.452288 -120.288322 
L 109.221611 -120.288322 
L 109.990935 -120.288322 
L 110.760259 -120.288322 
L 111.529582 -120.288322 
L 112.298906 -120.288322 
L 113.068229 -120.288322 
L 113.837553 -120.288322 
L 114.606876 -120.288322 
L 115.3762 -120.288322 
L 116.145523 -120.288322 
L 116.914847 -120.288322 
L 117.684171 -120.288322 
L 118.453494 -120.288322 
L 119.222818 -120.288322 
L 119.992141 -120.288322 
L 120.761465 -120.288322 
L 121.530788 -120.288322 
L 122.300112 -120.288322 
L 123.069436 -120.288322 
L 123.838759 -120.288322 
L 124.608083 -120.288322 
L 125.377406 -120.288322 
L 126.14673 -120.288322 
L 126.916053 -120.288322 
L 127.685377 -120.288322 
L 128.454701 -120.288322 
L 129.224024 -120.288322 
L 129.993348 -120.288322 
L 130.762671 -120.288322 
L 131.531995 -120.288322 
L 132.301318 -120.288322 
L 133.070642 -120.288322 
L 133.839966 -120.288322 
L 134.609289 -120.288322 
L 135.378613 -120.288322 
L 136.147936 -120.288322 
L 136.91726 -120.288322 
L 137.686583 -120.288322 
L 138.455907 -120.288322 
L 139.225231 -120.288322 
L 139.994554 -120.288322 
L 140.763878 -120.288322 
L 141.533201 -120.288322 
L 142.302525 -120.288322 
L 143.071848 -120.288322 
L 143.841172 -120.288322 
L 144.610495 -120.288322 
L 145.379819 -120.288322 
L 146.149143 -120.288322 
L 146.918466 -120.288322 
L 147.68779 -120.288322 
L 148.457113 -120.288322 
L 149.226437 -120.288322 
L 149.99576 -120.288322 
L 150.765084 -120.288322 
L 151.534408 -120.288322 
L 152.303731 -120.288322 
L 153.073055 -120.288322 
L 153.842378 -120.288322 
L 154.611702 -120.288322 
L 155.381025 -120.288322 
L 156.150349 -120.288322 
L 156.919673 -120.288322 
L 157.688996 -120.288322 
L 158.45832 -120.288322 
L 159.227643 -120.288322 
L 159.996967 -120.288322 
L 160.76629 -120.288322 
L 161.535614 -120.288322 
L 162.304938 -120.288322 
L 163.074261 -120.288322 
L 163.843585 -120.288322 
L 164.612908 -120.288322 
L 165.382232 -120.288322 
L 166.151555 -120.288322 
L 166.920879 -120.288322 
L 167.690202 -120.288322 
L 168.459526 -120.288322 
L 169.22885 -120.288322 
L 169.998173 -120.288322 
L 170.767497 -120.288322 
L 171.53682 -120.288322 
L 172.306144 -120.288322 
L 173.075467 -120.288322 
L 173.844791 -120.288322 
L 174.614115 -120.288322 
L 175.383438 -120.288322 
L 176.152762 -120.288322 
L 176.922085 -120.288322 
L 177.691409 -120.288322 
L 178.460732 -120.288322 
L 179.230056 -120.288322 
L 179.99938 -120.288322 
L 180.768703 -120.288322 
L 181.538027 -120.288322 
L 182.30735 -120.288322 
L 183.076674 -120.288322 
L 183.845997 -120.288322 
L 184.615321 -120.288322 
L 185.384645 -120.288322 
L 186.153968 -120.288322 
L 186.923292 -120.288322 
L 187.692615 -120.288322 
L 188.461939 -120.288322 
L 189.231262 -120.288322 
L 190.000586 -120.288322 
L 190.76991 -120.288322 
L 191.539233 -120.288322 
L 192.308557 -120.288322 
L 193.07788 -120.288322 
L 193.847204 -120.288322 
L 194.616527 -120.288322 
L 195.385851 -120.288322 
L 196.155174 -120.288322 
L 196.924498 -120.288322 
L 197.693822 -120.288322 
L 198.463145 -120.288322 
L 199.232469 -120.288322 
L 200.001792 -120.288322 
L 200.771116 -120.288322 
L 201.540439 -120.288322 
L 202.309763 -120.288322 
L 203.079087 -120.288322 
L 203.84841 -120.288322 
L 204.617734 -120.288322 
L 205.387057 -120.288322 
L 206.156381 -120.288322 
L 206.925704 -120.288322 
L 207.695028 -120.288322 
L 208.464352 -120.288322 
L 209.233675 -120.288322 
L 210.002999 -120.288322 
L 210.772322 -120.288322 
L 211.541646 -120.288322 
L 212.310969 -120.288322 
L 213.080293 -120.288322 
L 213.849617 -120.288322 
L 214.61894 -120.288322 
L 215.388264 -120.288322 
L 216.157587 -120.288322 
L 216.926911 -120.288322 
L 217.696234 -120.288322 
L 218.465558 -120.288322 
L 219.234882 -120.288322 
L 220.004205 -120.288322 
L 220.773529 -120.288322 
L 221.542852 -120.288322 
L 222.312176 -120.288322 
L 223.081499 -120.288322 
L 223.850823 -120.288322 
L 224.620146 -120.288322 
L 225.38947 -120.288322 
L 226.158794 -120.288322 
L 226.928117 -120.288322 
L 227.697441 -120.288322 
L 228.466764 -120.288322 
L 229.236088 -120.288322 
L 230.005411 -120.288322 
L 230.774735 -120.288322 
L 231.544059 -120.288322 
L 232.313382 -120.288322 
L 233.082706 -120.288322 
L 233.852029 -120.288322 
L 234.621353 -120.288322 
L 235.390676 -120.288322 
L 236.16 -120.288322 
L 236.929324 -120.288322 
L 237.698647 -120.288322 
L 238.467971 -120.288322 
L 239.237294 -120.288322 
L 240.006618 -120.288322 
L 240.775941 -120.288322 
L 241.545265 -120.288322 
L 242.314589 -120.288322 
L 243.083912 -120.288322 
L 243.853236 -120.288322 
L 244.622559 -120.288322 
L 245.391883 -120.288322 
L 246.161206 -120.288322 
L 246.93053 -120.288322 
L 247.699854 -120.288322 
L 248.469177 -120.288322 
L 249.238501 -120.288322 
L 250.007824 -120.288322 
L 250.777148 -120.288322 
L 251.546471 -120.288322 
L 252.315795 -120.288322 
L 253.085118 -120.288322 
L 253.854442 -120.288322 
L 254.623766 -120.288322 
L 255.393089 -120.288322 
L 256.162413 -120.288322 
L 256.931736 -120.288322 
L 257.70106 -120.288322 
L 258.470383 -120.288322 
L 259.239707 -120.288322 
L 260.009031 -120.288322 
L 260.778354 -120.288322 
L 261.547678 -120.288322 
L 262.317001 -120.288322 
L 263.086325 -120.288322 
L 263.855648 -120.288322 
L 264.624972 -120.288322 
L 265.394296 -120.288322 
L 266.163619 -120.288322 
L 266.932943 -120.288322 
L 267.702266 -120.288322 
L 268.47159 -120.288322 
L 269.240913 -120.288322 
L 270.010237 -120.288322 
L 270.779561 -120.288322 
L 271.548884 -120.288322 
L 272.318208 -120.288322 
L 273.087531 -120.288322 
L 273.856855 -120.288322 
L 274.626178 -120.288322 
L 275.395502 -120.288322 
L 276.164826 -120.288322 
L 276.934149 -120.288322 
L 277.703473 -120.288322 
L 278.472796 -120.288322 
L 279.24212 -120.288322 
L 280.011443 -120.288322 
L 280.780767 -120.288322 
L 281.55009 -120.288322 
L 282.319414 -120.288322 
L 283.088738 -120.288322 
L 283.858061 -120.288322 
L 284.627385 -120.288322 
L 285.396708 -120.288322 
L 286.166032 -120.288322 
L 286.935355 -120.288322 
L 287.704679 -120.288322 
L 288.474003 -120.288322 
L 289.243326 -120.288322 
L 290.01265 -120.288322 
L 290.781973 -120.288322 
L 291.551297 -120.288322 
L 292.32062 -120.288322 
L 293.089944 -120.288322 
L 293.859268 -120.288322 
L 294.628591 -120.288322 
L 295.397915 -120.288322 
L 296.167238 -120.288322 
L 296.936562 -120.288322 
L 297.705885 -120.288322 
L 298.475209 -120.288322 
L 299.244533 -120.288322 
L 300.013856 -120.288322 
L 300.78318 -120.288322 
L 301.552503 -120.288322 
L 302.321827 -120.288322 
L 303.09115 -120.288322 
L 303.860474 -120.288322 
L 304.629798 -120.288322 
L 305.399121 -120.288322 
L 306.168445 -120.288322 
L 306.937768 -120.288322 
L 307.707092 -120.288322 
L 308.476415 -120.288322 
L 309.245739 -120.288322 
L 310.015062 -120.288322 
L 310.784386 -120.288322 
L 311.55371 -120.288322 
L 312.323033 -120.288322 
L 313.092357 -120.288322 
L 313.86168 -120.288322 
L 314.631004 -120.288322 
L 315.400327 -120.288322 
L 316.169651 -120.288322 
L 316.938975 -120.288322 
L 317.708298 -120.288322 
L 318.477622 -120.288322 
L 319.246945 -120.288322 
L 320.016269 -120.288322 
L 320.785592 -120.288322 
L 321.554916 -120.288322 
L 322.32424 -120.288322 
L 323.093563 -120.288322 
L 323.862887 -120.288322 
L 324.63221 -120.288322 
L 325.401534 -120.288322 
L 326.170857 -120.288322 
L 326.940181 -120.288322 
L 327.709505 -120.288322 
L 328.478828 -120.288322 
L 329.248152 -120.288322 
L 330.017475 -120.288322 
L 330.786799 -120.288322 
L 331.556122 -120.288322 
L 332.325446 -120.288322 
L 333.094769 -120.288322 
L 333.864093 -120.288322 
L 334.633417 -120.288322 
L 335.40274 -120.288322 
L 336.172064 -120.288322 
L 336.941387 -120.288322 
L 337.710711 -120.288322 
L 338.480034 -120.288322 
L 339.249358 -120.288322 
L 340.018682 -120.288322 
L 340.788005 -120.288322 
L 341.557329 -120.288322 
L 342.326652 -120.288322 
L 343.095976 -120.288322 
L 343.865299 -120.288322 
L 344.634623 -120.288322 
L 345.403947 -120.288322 
L 346.17327 -120.288322 
L 346.942594 -120.288322 
L 347.711917 -120.288322 
L 348.481241 -120.288322 
L 349.250564 -120.288322 
L 350.019888 -120.288322 
L 350.789212 -120.288322 
L 351.558535 -120.288322 
L 352.327859 -120.288322 
L 353.097182 -120.288322 
L 353.866506 -120.288322 
L 354.635829 -120.288322 
L 355.405153 -120.288322 
L 356.174477 -120.288322 
L 356.9438 -120.288322 
L 357.713124 -120.288322 
L 358.482447 -120.288322 
L 359.251771 -120.288322 
L 360.021094 -120.288322 
L 360.790418 -120.288322 
L 361.559741 -120.288322 
L 362.329065 -120.288322 
L 363.098389 -120.288322 
L 363.867712 -120.288322 
L 364.637036 -120.288322 
L 365.406359 -120.288322 
L 366.175683 -120.288322 
L 366.945006 -120.288322 
L 367.71433 -120.288322 
L 368.483654 -120.288322 
L 369.252977 -120.288322 
L 370.022301 -120.288322 
L 370.791624 -120.288322 
L 371.560948 -120.288322 
L 372.330271 -120.288322 
L 373.099595 -120.288322 
L 373.868919 -120.288322 
L 374.638242 -120.288322 
L 375.407566 -120.288322 
L 376.176889 -120.288322 
L 376.946213 -120.288322 
L 377.715536 -120.288322 
L 378.48486 -120.288322 
L 379.254184 -120.288322 
L 380.023507 -120.288322 
L 380.792831 -120.288322 
L 381.562154 -120.288322 
L 382.331478 -120.288322 
L 383.100801 -120.288322 
L 383.870125 -120.288322 
L 384.639449 -120.288322 
L 385.408772 -120.288322 
L 386.178096 -120.288322 
L 386.947419 -120.288322 
L 387.716743 -120.288322 
L 388.486066 -120.288322 
L 389.25539 -120.288322 
L 390.024713 -120.288322 
L 390.794037 -120.288322 
L 391.563361 -120.288322 
L 392.332684 -120.288322 
L 393.102008 -120.288322 
L 393.871331 -120.288322 
L 394.640655 -120.288322 
L 395.409978 -120.288322 
L 396.179302 -120.288322 
L 396.948626 -120.288322 
L 397.717949 -120.288322 
L 398.487273 -120.288322 
L 398.487273 -229.98475 
L 398.487273 -229.98475 
L 397.717949 -229.98475 
L 396.948626 -229.98475 
L 396.179302 -229.98475 
L 395.409978 -229.98475 
L 394.640655 -229.98475 
L 393.871331 -229.98475 
L 393.102008 -229.98475 
L 392.332684 -229.98475 
L 391.563361 -229.98475 
L 390.794037 -229.98475 
L 390.024713 -229.98475 
L 389.25539 -229.98475 
L 388.486066 -229.98475 
L 387.716743 -229.98475 
L 386.947419 -229.98475 
L 386.178096 -229.98475 
L 385.408772 -229.98475 
L 384.639449 -229.98475 
L 383.870125 -229.98475 
L 383.100801 -229.98475 
L 382.331478 -229.98475 
L 381.562154 -229.98475 
L 380.792831 -229.98475 
L 380.023507 -229.98475 
L 379.254184 -229.98475 
L 378.48486 -229.98475 
L 377.715536 -229.98475 
L 376.946213 -229.98475 
L 376.176889 -229.98475 
L 375.407566 -229.98475 
L 374.638242 -229.98475 
L 373.868919 -229.98475 
L 373.099595 -229.98475 
L 372.330271 -229.98475 
L 371.560948 -229.98475 
L 370.791624 -229.98475 
L 370.022301 -229.98475 
L 369.252977 -229.98475 
L 368.483654 -229.98475 
L 367.71433 -229.98475 
L 366.945006 -229.98475 
L 366.175683 -229.98475 
L 365.406359 -229.98475 
L 364.637036 -229.98475 
L 363.867712 -229.98475 
L 363.098389 -229.98475 
L 362.329065 -229.98475 
L 361.559741 -229.98475 
L 360.790418 -229.98475 
L 360.021094 -229.98475 
L 359.251771 -229.98475 
L 358.482447 -229.98475 
L 357.713124 -229.98475 
L 356.9438 -229.98475 
L 356.174477 -229.98475 
L 355.405153 -229.98475 
L 354.635829 -229.98475 
L 353.866506 -229.98475 
L 353.097182 -229.98475 
L 352.327859 -229.98475 
L 351.558535 -229.98475 
L 350.789212 -229.98475 
L 350.019888 -229.98475 
L 349.250564 -229.98475 
L 348.481241 -229.98475 
L 347.711917 -229.98475 
L 346.942594 -229.98475 
L 346.17327 -229.98475 
L 345.403947 -229.98475 
L 344.634623 -229.98475 
L 343.865299 -229.98475 
L 343.095976 -229.98475 
L 342.326652 -229.98475 
L 341.557329 -229.98475 
L 340.788005 -229.98475 
L 340.018682 -229.98475 
L 339.249358 -229.98475 
L 338.480034 -229.98475 
L 337.710711 -229.98475 
L 336.941387 -229.98475 
L 336.172064 -229.98475 
L 335.40274 -229.98475 
L 334.633417 -229.98475 
L 333.864093 -229.98475 
L 333.094769 -229.98475 
L 332.325446 -229.98475 
L 331.556122 -229.98475 
L 330.786799 -229.98475 
L 330.017475 -229.98475 
L 329.248152 -229.98475 
L 328.478828 -229.98475 
L 327.709505 -229.98475 
L 326.940181 -229.98475 
L 326.170857 -229.98475 
L 325.401534 -229.98475 
L 324.63221 -229.98475 
L 323.862887 -229.98475 
L 323.093563 -229.98475 
L 322.32424 -229.98475 
L 321.554916 -229.98475 
L 320.785592 -229.98475 
L 320.016269 -229.98475 
L 319.246945 -229.98475 
L 318.477622 -229.98475 
L 317.708298 -229.98475 
L 316.938975 -229.98475 
L 316.169651 -229.98475 
L 315.400327 -229.98475 
L 314.631004 -229.98475 
L 313.86168 -229.98475 
L 313.092357 -229.98475 
L 312.323033 -229.98475 
L 311.55371 -229.98475 
L 310.784386 -229.98475 
L 310.015062 -229.98475 
L 309.245739 -229.98475 
L 308.476415 -229.98475 
L 307.707092 -229.98475 
L 306.937768 -229.98475 
L 306.168445 -229.98475 
L 305.399121 -229.98475 
L 304.629798 -229.98475 
L 303.860474 -229.98475 
L 303.09115 -229.98475 
L 302.321827 -229.98475 
L 301.552503 -229.98475 
L 300.78318 -229.98475 
L 300.013856 -229.98475 
L 299.244533 -229.98475 
L 298.475209 -229.98475 
L 297.705885 -229.98475 
L 296.936562 -229.98475 
L 296.167238 -229.98475 
L 295.397915 -229.98475 
L 294.628591 -229.98475 
L 293.859268 -229.98475 
L 293.089944 -229.98475 
L 292.32062 -229.98475 
L 291.551297 -229.98475 
L 290.781973 -229.98475 
L 290.01265 -229.98475 
L 289.243326 -229.98475 
L 288.474003 -229.98475 
L 287.704679 -229.98475 
L 286.935355 -229.98475 
L 286.166032 -229.98475 
L 285.396708 -229.98475 
L 284.627385 -229.98475 
L 283.858061 -229.98475 
L 283.088738 -229.98475 
L 282.319414 -229.98475 
L 281.55009 -229.98475 
L 280.780767 -229.98475 
L 280.011443 -229.98475 
L 279.24212 -229.98475 
L 278.472796 -229.98475 
L 277.703473 -229.98475 
L 276.934149 -229.98475 
L 276.164826 -229.98475 
L 275.395502 -229.98475 
L 274.626178 -229.98475 
L 273.856855 -229.98475 
L 273.087531 -229.98475 
L 272.318208 -229.98475 
L 271.548884 -229.98475 
L 270.779561 -229.98475 
L 270.010237 -229.98475 
L 269.240913 -229.98475 
L 268.47159 -229.98475 
L 267.702266 -229.98475 
L 266.932943 -229.98475 
L 266.163619 -229.98475 
L 265.394296 -229.98475 
L 264.624972 -229.98475 
L 263.855648 -229.98475 
L 263.086325 -229.98475 
L 262.317001 -229.98475 
L 261.547678 -229.98475 
L 260.778354 -229.98475 
L 260.009031 -229.98475 
L 259.239707 -229.98475 
L 258.470383 -229.98475 
L 257.70106 -229.98475 
L 256.931736 -229.98475 
L 256.162413 -229.98475 
L 255.393089 -229.98475 
L 254.623766 -229.98475 
L 253.854442 -229.98475 
L 253.085118 -229.98475 
L 252.315795 -229.98475 
L 251.546471 -229.98475 
L 250.777148 -229.98475 
L 250.007824 -229.98475 
L 249.238501 -229.98475 
L 248.469177 -229.98475 
L 247.699854 -229.98475 
L 246.93053 -229.98475 
L 246.161206 -229.98475 
L 245.391883 -229.98475 
L 244.622559 -229.98475 
L 243.853236 -229.98475 
L 243.083912 -229.98475 
L 242.314589 -229.98475 
L 241.545265 -229.98475 
L 240.775941 -229.98475 
L 240.006618 -229.98475 
L 239.237294 -229.98475 
L 238.467971 -229.98475 
L 237.698647 -229.98475 
L 236.929324 -229.98475 
L 236.16 -229.98475 
L 235.390676 -229.98475 
L 234.621353 -229.98475 
L 233.852029 -229.98475 
L 233.082706 -229.98475 
L 232.313382 -229.98475 
L 231.544059 -229.98475 
L 230.774735 -229.98475 
L 230.005411 -229.98475 
L 229.236088 -229.98475 
L 228.466764 -229.98475 
L 227.697441 -229.98475 
L 226.928117 -229.98475 
L 226.158794 -229.98475 
L 225.38947 -229.98475 
L 224.620146 -229.98475 
L 223.850823 -229.98475 
L 223.081499 -229.98475 
L 222.312176 -229.98475 
L 221.542852 -229.98475 
L 220.773529 -229.98475 
L 220.004205 -229.98475 
L 219.234882 -229.98475 
L 218.465558 -229.98475 
L 217.696234 -229.98475 
L 216.926911 -229.98475 
L 216.157587 -229.98475 
L 215.388264 -229.98475 
L 214.61894 -229.98475 
L 213.849617 -229.98475 
L 213.080293 -229.98475 
L 212.310969 -229.98475 
L 211.541646 -229.98475 
L 210.772322 -229.98475 
L 210.002999 -229.98475 
L 209.233675 -229.98475 
L 208.464352 -229.98475 
L 207.695028 -229.98475 
L 206.925704 -229.98475 
L 206.156381 -229.98475 
L 205.387057 -229.98475 
L 204.617734 -229.98475 
L 203.84841 -229.98475 
L 203.079087 -229.98475 
L 202.309763 -229.98475 
L 201.540439 -229.98475 
L 200.771116 -229.98475 
L 200.001792 -229.98475 
L 199.232469 -229.98475 
L 198.463145 -229.98475 
L 197.693822 -229.98475 
L 196.924498 -229.98475 
L 196.155174 -229.98475 
L 195.385851 -229.98475 
L 194.616527 -229.98475 
L 193.847204 -229.98475 
L 193.07788 -229.98475 
L 192.308557 -229.98475 
L 191.539233 -229.98475 
L 190.76991 -229.98475 
L 190.000586 -229.98475 
L 189.231262 -229.98475 
L 188.461939 -229.98475 
L 187.692615 -229.98475 
L 186.923292 -229.98475 
L 186.153968 -229.98475 
L 185.384645 -229.98475 
L 184.615321 -229.98475 
L 183.845997 -229.98475 
L 183.076674 -229.98475 
L 182.30735 -229.98475 
L 181.538027 -229.98475 
L 180.768703 -229.98475 
L 179.99938 -229.98475 
L 179.230056 -229.98475 
L 178.460732 -229.98475 
L 177.691409 -229.98475 
L 176.922085 -229.98475 
L 176.152762 -229.98475 
L 175.383438 -229.98475 
L 174.614115 -229.98475 
L 173.844791 -229.98475 
L 173.075467 -229.98475 
L 172.306144 -229.98475 
L 171.53682 -229.98475 
L 170.767497 -229.98475 
L 169.998173 -229.98475 
L 169.22885 -229.98475 
L 168.459526 -229.98475 
L 167.690202 -229.98475 
L 166.920879 -229.98475 
L 166.151555 -229.98475 
L 165.382232 -229.98475 
L 164.612908 -229.98475 
L 163.843585 -229.98475 
L 163.074261 -229.98475 
L 162.304938 -229.98475 
L 161.535614 -229.98475 
L 160.76629 -229.98475 
L 159.996967 -229.98475 
L 159.227643 -229.98475 
L 158.45832 -229.98475 
L 157.688996 -229.98475 
L 156.919673 -229.98475 
L 156.150349 -229.98475 
L 155.381025 -229.98475 
L 154.611702 -229.98475 
L 153.842378 -229.98475 
L 153.073055 -229.98475 
L 152.303731 -229.98475 
L 151.534408 -229.98475 
L 150.765084 -229.98475 
L 149.99576 -229.98475 
L 149.226437 -229.98475 
L 148.457113 -229.98475 
L 147.68779 -229.98475 
L 146.918466 -229.98475 
L 146.149143 -229.98475 
L 145.379819 -229.98475 
L 144.610495 -229.98475 
L 143.841172 -229.98475 
L 143.071848 -229.98475 
L 142.302525 -229.98475 
L 141.533201 -229.98475 
L 140.763878 -229.98475 
L 139.994554 -229.98475 
L 139.225231 -229.98475 
L 138.455907 -229.98475 
L 137.686583 -229.98475 
L 136.91726 -229.98475 
L 136.147936 -229.98475 
L 135.378613 -229.98475 
L 134.609289 -229.98475 
L 133.839966 -229.98475 
L 133.070642 -229.98475 
L 132.301318 -229.98475 
L 131.531995 -229.98475 
L 130.762671 -229.98475 
L 129.993348 -229.98475 
L 129.224024 -229.98475 
L 128.454701 -229.98475 
L 127.685377 -229.98475 
L 126.916053 -229.98475 
L 126.14673 -229.98475 
L 125.377406 -229.98475 
L 124.608083 -229.98475 
L 123.838759 -229.98475 
L 123.069436 -229.98475 
L 122.300112 -229.98475 
L 121.530788 -229.98475 
L 120.761465 -229.98475 
L 119.992141 -229.98475 
L 119.222818 -229.98475 
L 118.453494 -229.98475 
L 117.684171 -229.98475 
L 116.914847 -229.98475 
L 116.145523 -229.98475 
L 115.3762 -229.98475 
L 114.606876 -229.98475 
L 113.837553 -229.98475 
L 113.068229 -229.98475 
L 112.298906 -229.98475 
L 111.529582 -229.98475 
L 110.760259 -229.98475 
L 109.990935 -229.98475 
L 109.221611 -229.98475 
L 108.452288 -229.98475 
L 107.682964 -229.98475 
L 106.913641 -229.98475 
L 106.144317 -229.98475 
L 105.374994 -229.98475 
L 104.60567 -229.98475 
L 103.836346 -229.98475 
L 103.067023 -229.98475 
L 102.297699 -229.98475 
L 101.528376 -229.98475 
L 100.759052 -229.98475 
L 99.989729 -229.98475 
L 99.220405 -229.98475 
L 98.451081 -229.98475 
L 97.681758 -229.98475 
L 96.912434 -229.98475 
L 96.143111 -229.98475 
L 95.373787 -229.98475 
L 94.604464 -229.98475 
L 93.83514 -229.98475 
L 93.065816 -229.98475 
L 92.296493 -229.98475 
L 91.527169 -229.98475 
L 90.757846 -229.98475 
L 89.988522 -229.98475 
L 89.219199 -229.98475 
L 88.449875 -229.98475 
L 87.680551 -229.98475 
L 86.911228 -229.98475 
L 86.141904 -229.98475 
L 85.372581 -229.98475 
L 84.603257 -229.98475 
L 83.833934 -229.98475 
L 83.06461 -229.98475 
L 82.295287 -229.98475 
L 81.525963 -229.98475 
L 80.756639 -229.98475 
L 79.987316 -229.98475 
L 79.217992 -229.98475 
L 78.448669 -229.98475 
L 77.679345 -229.98475 
L 76.910022 -229.98475 
L 76.140698 -229.98475 
L 75.371374 -229.98475 
L 74.602051 -229.98475 
L 73.832727 -229.98475 
z
" id="m83aa1fd419" style="stroke:#4b0082;stroke-opacity:0.3;"/>
    </defs>
    <g clip-path="url(#p353f613c34)">
     <use style="fill:#4b0082;fill-opacity:0.3;stroke:#4b0082;stroke-opacity:0.3;" x="0" xlink:href="#m83aa1fd419" y="345.6"/>
    </g>
   </g>
   <g id="matplotlib.axis_1">
    <g id="xtick_1">
     <g id="line2d_1">
      <defs>
       <path d="M 0 0 
L 0 3.5 
" id="m835be56b47" style="stroke:#000000;stroke-width:0.8;"/>
      </defs>
      <g>
       <use style="stroke:#000000;stroke-width:0.8;" x="73.832727" xlink:href="#m835be56b47" y="307.584"/>
      </g>
     </g>
     <g id="text_1">
      <!-- 2020-01 -->
      <g transform="translate(52.941321 322.182437)scale(0.1 -0.1)">
       <defs>
        <path d="M 19.1875 8.296875 
L 53.609375 8.296875 
L 53.609375 0 
L 7.328125 0 
L 7.328125 8.296875 
Q 12.9375 14.109375 22.625 23.890625 
Q 32.328125 33.6875 34.8125 36.53125 
Q 39.546875 41.84375 41.421875 45.53125 
Q 43.3125 49.21875 43.3125 52.78125 
Q 43.3125 58.59375 39.234375 62.25 
Q 35.15625 65.921875 28.609375 65.921875 
Q 23.96875 65.921875 18.8125 64.3125 
Q 13.671875 62.703125 7.8125 59.421875 
L 7.8125 69.390625 
Q 13.765625 71.78125 18.9375 73 
Q 24.125 74.21875 28.421875 74.21875 
Q 39.75 74.21875 46.484375 68.546875 
Q 53.21875 62.890625 53.21875 53.421875 
Q 53.21875 48.921875 51.53125 44.890625 
Q 49.859375 40.875 45.40625 35.40625 
Q 44.1875 33.984375 37.640625 27.21875 
Q 31.109375 20.453125 19.1875 8.296875 
z
" id="DejaVuSans-50"/>
        <path d="M 31.78125 66.40625 
Q 24.171875 66.40625 20.328125 58.90625 
Q 16.5 51.421875 16.5 36.375 
Q 16.5 21.390625 20.328125 13.890625 
Q 24.171875 6.390625 31.78125 6.390625 
Q 39.453125 6.390625 43.28125 13.890625 
Q 47.125 21.390625 47.125 36.375 
Q 47.125 51.421875 43.28125 58.90625 
Q 39.453125 66.40625 31.78125 66.40625 
z
M 31.78125 74.21875 
Q 44.046875 74.21875 50.515625 64.515625 
Q 56.984375 54.828125 56.984375 36.375 
Q 56.984375 17.96875 50.515625 8.265625 
Q 44.046875 -1.421875 31.78125 -1.421875 
Q 19.53125 -1.421875 13.0625 8.265625 
Q 6.59375 17.96875 6.59375 36.375 
Q 6.59375 54.828125 13.0625 64.515625 
Q 19.53125 74.21875 31.78125 74.21875 
z
" id="DejaVuSans-48"/>
        <path d="M 4.890625 31.390625 
L 31.203125 31.390625 
L 31.203125 23.390625 
L 4.890625 23.390625 
z
" id="DejaVuSans-45"/>
        <path d="M 12.40625 8.296875 
L 28.515625 8.296875 
L 28.515625 63.921875 
L 10.984375 60.40625 
L 10.984375 69.390625 
L 28.421875 72.90625 
L 38.28125 72.90625 
L 38.28125 8.296875 
L 54.390625 8.296875 
L 54.390625 0 
L 12.40625 0 
z
" id="DejaVuSans-49"/>
       </defs>
       <use xlink:href="#DejaVuSans-50"/>
       <use x="63.623047" xlink:href="#DejaVuSans-48"/>
       <use x="127.246094" xlink:href="#DejaVuSans-50"/>
       <use x="190.869141" xlink:href="#DejaVuSans-48"/>
       <use x="254.492188" xlink:href="#DejaVuSans-45"/>
       <use x="290.576172" xlink:href="#DejaVuSans-48"/>
       <use x="354.199219" xlink:href="#DejaVuSans-49"/>
      </g>
     </g>
    </g>
    <g id="xtick_2">
     <g id="line2d_2">
      <g>
       <use style="stroke:#000000;stroke-width:0.8;" x="119.992141" xlink:href="#m835be56b47" y="307.584"/>
      </g>
     </g>
     <g id="text_2">
      <!-- 2020-03 -->
      <g transform="translate(99.100735 322.182437)scale(0.1 -0.1)">
       <defs>
        <path d="M 40.578125 39.3125 
Q 47.65625 37.796875 51.625 33 
Q 55.609375 28.21875 55.609375 21.1875 
Q 55.609375 10.40625 48.1875 4.484375 
Q 40.765625 -1.421875 27.09375 -1.421875 
Q 22.515625 -1.421875 17.65625 -0.515625 
Q 12.796875 0.390625 7.625 2.203125 
L 7.625 11.71875 
Q 11.71875 9.328125 16.59375 8.109375 
Q 21.484375 6.890625 26.8125 6.890625 
Q 36.078125 6.890625 40.9375 10.546875 
Q 45.796875 14.203125 45.796875 21.1875 
Q 45.796875 27.640625 41.28125 31.265625 
Q 36.765625 34.90625 28.71875 34.90625 
L 20.21875 34.90625 
L 20.21875 43.015625 
L 29.109375 43.015625 
Q 36.375 43.015625 40.234375 45.921875 
Q 44.09375 48.828125 44.09375 54.296875 
Q 44.09375 59.90625 40.109375 62.90625 
Q 36.140625 65.921875 28.71875 65.921875 
Q 24.65625 65.921875 20.015625 65.03125 
Q 15.375 64.15625 9.8125 62.3125 
L 9.8125 71.09375 
Q 15.4375 72.65625 20.34375 73.4375 
Q 25.25 74.21875 29.59375 74.21875 
Q 40.828125 74.21875 47.359375 69.109375 
Q 53.90625 64.015625 53.90625 55.328125 
Q 53.90625 49.265625 50.4375 45.09375 
Q 46.96875 40.921875 40.578125 39.3125 
z
" id="DejaVuSans-51"/>
       </defs>
       <use xlink:href="#DejaVuSans-50"/>
       <use x="63.623047" xlink:href="#DejaVuSans-48"/>
       <use x="127.246094" xlink:href="#DejaVuSans-50"/>
       <use x="190.869141" xlink:href="#DejaVuSans-48"/>
       <use x="254.492188" xlink:href="#DejaVuSans-45"/>
       <use x="290.576172" xlink:href="#DejaVuSans-48"/>
       <use x="354.199219" xlink:href="#DejaVuSans-51"/>
      </g>
     </g>
    </g>
    <g id="xtick_3">
     <g id="line2d_3">
      <g>
       <use style="stroke:#000000;stroke-width:0.8;" x="166.920879" xlink:href="#m835be56b47" y="307.584"/>
      </g>
     </g>
     <g id="text_3">
      <!-- 2020-05 -->
      <g transform="translate(146.029473 322.182437)scale(0.1 -0.1)">
       <defs>
        <path d="M 10.796875 72.90625 
L 49.515625 72.90625 
L 49.515625 64.59375 
L 19.828125 64.59375 
L 19.828125 46.734375 
Q 21.96875 47.46875 24.109375 47.828125 
Q 26.265625 48.1875 28.421875 48.1875 
Q 40.625 48.1875 47.75 41.5 
Q 54.890625 34.8125 54.890625 23.390625 
Q 54.890625 11.625 47.5625 5.09375 
Q 40.234375 -1.421875 26.90625 -1.421875 
Q 22.3125 -1.421875 17.546875 -0.640625 
Q 12.796875 0.140625 7.71875 1.703125 
L 7.71875 11.625 
Q 12.109375 9.234375 16.796875 8.0625 
Q 21.484375 6.890625 26.703125 6.890625 
Q 35.15625 6.890625 40.078125 11.328125 
Q 45.015625 15.765625 45.015625 23.390625 
Q 45.015625 31 40.078125 35.4375 
Q 35.15625 39.890625 26.703125 39.890625 
Q 22.75 39.890625 18.8125 39.015625 
Q 14.890625 38.140625 10.796875 36.28125 
z
" id="DejaVuSans-53"/>
       </defs>
       <use xlink:href="#DejaVuSans-50"/>
       <use x="63.623047" xlink:href="#DejaVuSans-48"/>
       <use x="127.246094" xlink:href="#DejaVuSans-50"/>
       <use x="190.869141" xlink:href="#DejaVuSans-48"/>
       <use x="254.492188" xlink:href="#DejaVuSans-45"/>
       <use x="290.576172" xlink:href="#DejaVuSans-48"/>
       <use x="354.199219" xlink:href="#DejaVuSans-53"/>
      </g>
     </g>
    </g>
    <g id="xtick_4">
     <g id="line2d_4">
      <g>
       <use style="stroke:#000000;stroke-width:0.8;" x="213.849617" xlink:href="#m835be56b47" y="307.584"/>
      </g>
     </g>
     <g id="text_4">
      <!-- 2020-07 -->
      <g transform="translate(192.95821 322.182437)scale(0.1 -0.1)">
       <defs>
        <path d="M 8.203125 72.90625 
L 55.078125 72.90625 
L 55.078125 68.703125 
L 28.609375 0 
L 18.3125 0 
L 43.21875 64.59375 
L 8.203125 64.59375 
z
" id="DejaVuSans-55"/>
       </defs>
       <use xlink:href="#DejaVuSans-50"/>
       <use x="63.623047" xlink:href="#DejaVuSans-48"/>
       <use x="127.246094" xlink:href="#DejaVuSans-50"/>
       <use x="190.869141" xlink:href="#DejaVuSans-48"/>
       <use x="254.492188" xlink:href="#DejaVuSans-45"/>
       <use x="290.576172" xlink:href="#DejaVuSans-48"/>
       <use x="354.199219" xlink:href="#DejaVuSans-55"/>
      </g>
     </g>
    </g>
    <g id="xtick_5">
     <g id="line2d_5">
      <g>
       <use style="stroke:#000000;stroke-width:0.8;" x="261.547678" xlink:href="#m835be56b47" y="307.584"/>
      </g>
     </g>
     <g id="text_5">
      <!-- 2020-09 -->
      <g transform="translate(240.656271 322.182437)scale(0.1 -0.1)">
       <defs>
        <path d="M 10.984375 1.515625 
L 10.984375 10.5 
Q 14.703125 8.734375 18.5 7.8125 
Q 22.3125 6.890625 25.984375 6.890625 
Q 35.75 6.890625 40.890625 13.453125 
Q 46.046875 20.015625 46.78125 33.40625 
Q 43.953125 29.203125 39.59375 26.953125 
Q 35.25 24.703125 29.984375 24.703125 
Q 19.046875 24.703125 12.671875 31.3125 
Q 6.296875 37.9375 6.296875 49.421875 
Q 6.296875 60.640625 12.9375 67.421875 
Q 19.578125 74.21875 30.609375 74.21875 
Q 43.265625 74.21875 49.921875 64.515625 
Q 56.59375 54.828125 56.59375 36.375 
Q 56.59375 19.140625 48.40625 8.859375 
Q 40.234375 -1.421875 26.421875 -1.421875 
Q 22.703125 -1.421875 18.890625 -0.6875 
Q 15.09375 0.046875 10.984375 1.515625 
z
M 30.609375 32.421875 
Q 37.25 32.421875 41.125 36.953125 
Q 45.015625 41.5 45.015625 49.421875 
Q 45.015625 57.28125 41.125 61.84375 
Q 37.25 66.40625 30.609375 66.40625 
Q 23.96875 66.40625 20.09375 61.84375 
Q 16.21875 57.28125 16.21875 49.421875 
Q 16.21875 41.5 20.09375 36.953125 
Q 23.96875 32.421875 30.609375 32.421875 
z
" id="DejaVuSans-57"/>
       </defs>
       <use xlink:href="#DejaVuSans-50"/>
       <use x="63.623047" xlink:href="#DejaVuSans-48"/>
       <use x="127.246094" xlink:href="#DejaVuSans-50"/>
       <use x="190.869141" xlink:href="#DejaVuSans-48"/>
       <use x="254.492188" xlink:href="#DejaVuSans-45"/>
       <use x="290.576172" xlink:href="#DejaVuSans-48"/>
       <use x="354.199219" xlink:href="#DejaVuSans-57"/>
      </g>
     </g>
    </g>
    <g id="xtick_6">
     <g id="line2d_6">
      <g>
       <use style="stroke:#000000;stroke-width:0.8;" x="308.476415" xlink:href="#m835be56b47" y="307.584"/>
      </g>
     </g>
     <g id="text_6">
      <!-- 2020-11 -->
      <g transform="translate(287.585009 322.182437)scale(0.1 -0.1)">
       <use xlink:href="#DejaVuSans-50"/>
       <use x="63.623047" xlink:href="#DejaVuSans-48"/>
       <use x="127.246094" xlink:href="#DejaVuSans-50"/>
       <use x="190.869141" xlink:href="#DejaVuSans-48"/>
       <use x="254.492188" xlink:href="#DejaVuSans-45"/>
       <use x="290.576172" xlink:href="#DejaVuSans-49"/>
       <use x="354.199219" xlink:href="#DejaVuSans-49"/>
      </g>
     </g>
    </g>
    <g id="xtick_7">
     <g id="line2d_7">
      <g>
       <use style="stroke:#000000;stroke-width:0.8;" x="355.405153" xlink:href="#m835be56b47" y="307.584"/>
      </g>
     </g>
     <g id="text_7">
      <!-- 2021-01 -->
      <g transform="translate(334.513747 322.182437)scale(0.1 -0.1)">
       <use xlink:href="#DejaVuSans-50"/>
       <use x="63.623047" xlink:href="#DejaVuSans-48"/>
       <use x="127.246094" xlink:href="#DejaVuSans-50"/>
       <use x="190.869141" xlink:href="#DejaVuSans-49"/>
       <use x="254.492188" xlink:href="#DejaVuSans-45"/>
       <use x="290.576172" xlink:href="#DejaVuSans-48"/>
       <use x="354.199219" xlink:href="#DejaVuSans-49"/>
      </g>
     </g>
    </g>
    <g id="xtick_8">
     <g id="line2d_8">
      <g>
       <use style="stroke:#000000;stroke-width:0.8;" x="400.795243" xlink:href="#m835be56b47" y="307.584"/>
      </g>
     </g>
     <g id="text_8">
      <!-- 2021-03 -->
      <g transform="translate(379.903837 322.182437)scale(0.1 -0.1)">
       <use xlink:href="#DejaVuSans-50"/>
       <use x="63.623047" xlink:href="#DejaVuSans-48"/>
       <use x="127.246094" xlink:href="#DejaVuSans-50"/>
       <use x="190.869141" xlink:href="#DejaVuSans-49"/>
       <use x="254.492188" xlink:href="#DejaVuSans-45"/>
       <use x="290.576172" xlink:href="#DejaVuSans-48"/>
       <use x="354.199219" xlink:href="#DejaVuSans-51"/>
      </g>
     </g>
    </g>
   </g>
   <g id="matplotlib.axis_2">
    <g id="ytick_1">
     <g id="line2d_9">
      <defs>
       <path d="M 0 0 
L -3.5 0 
" id="m71e0595377" style="stroke:#000000;stroke-width:0.8;"/>
      </defs>
      <g>
       <use style="stroke:#000000;stroke-width:0.8;" x="57.6" xlink:href="#m71e0595377" y="307.584"/>
      </g>
     </g>
     <g id="text_9">
      <!-- 0 -->
      <g transform="translate(44.2375 311.383219)scale(0.1 -0.1)">
       <use xlink:href="#DejaVuSans-48"/>
      </g>
     </g>
    </g>
    <g id="ytick_2">
     <g id="line2d_10">
      <g>
       <use style="stroke:#000000;stroke-width:0.8;" x="57.6" xlink:href="#m71e0595377" y="252.735786"/>
      </g>
     </g>
     <g id="text_10">
      <!-- 20 -->
      <g transform="translate(37.875 256.535004)scale(0.1 -0.1)">
       <use xlink:href="#DejaVuSans-50"/>
       <use x="63.623047" xlink:href="#DejaVuSans-48"/>
      </g>
     </g>
    </g>
    <g id="ytick_3">
     <g id="line2d_11">
      <g>
       <use style="stroke:#000000;stroke-width:0.8;" x="57.6" xlink:href="#m71e0595377" y="197.887571"/>
      </g>
     </g>
     <g id="text_11">
      <!-- 40 -->
      <g transform="translate(37.875 201.68679)scale(0.1 -0.1)">
       <defs>
        <path d="M 37.796875 64.3125 
L 12.890625 25.390625 
L 37.796875 25.390625 
z
M 35.203125 72.90625 
L 47.609375 72.90625 
L 47.609375 25.390625 
L 58.015625 25.390625 
L 58.015625 17.1875 
L 47.609375 17.1875 
L 47.609375 0 
L 37.796875 0 
L 37.796875 17.1875 
L 4.890625 17.1875 
L 4.890625 26.703125 
z
" id="DejaVuSans-52"/>
       </defs>
       <use xlink:href="#DejaVuSans-52"/>
       <use x="63.623047" xlink:href="#DejaVuSans-48"/>
      </g>
     </g>
    </g>
    <g id="ytick_4">
     <g id="line2d_12">
      <g>
       <use style="stroke:#000000;stroke-width:0.8;" x="57.6" xlink:href="#m71e0595377" y="143.039357"/>
      </g>
     </g>
     <g id="text_12">
      <!-- 60 -->
      <g transform="translate(37.875 146.838576)scale(0.1 -0.1)">
       <defs>
        <path d="M 33.015625 40.375 
Q 26.375 40.375 22.484375 35.828125 
Q 18.609375 31.296875 18.609375 23.390625 
Q 18.609375 15.53125 22.484375 10.953125 
Q 26.375 6.390625 33.015625 6.390625 
Q 39.65625 6.390625 43.53125 10.953125 
Q 47.40625 15.53125 47.40625 23.390625 
Q 47.40625 31.296875 43.53125 35.828125 
Q 39.65625 40.375 33.015625 40.375 
z
M 52.59375 71.296875 
L 52.59375 62.3125 
Q 48.875 64.0625 45.09375 64.984375 
Q 41.3125 65.921875 37.59375 65.921875 
Q 27.828125 65.921875 22.671875 59.328125 
Q 17.53125 52.734375 16.796875 39.40625 
Q 19.671875 43.65625 24.015625 45.921875 
Q 28.375 48.1875 33.59375 48.1875 
Q 44.578125 48.1875 50.953125 41.515625 
Q 57.328125 34.859375 57.328125 23.390625 
Q 57.328125 12.15625 50.6875 5.359375 
Q 44.046875 -1.421875 33.015625 -1.421875 
Q 20.359375 -1.421875 13.671875 8.265625 
Q 6.984375 17.96875 6.984375 36.375 
Q 6.984375 53.65625 15.1875 63.9375 
Q 23.390625 74.21875 37.203125 74.21875 
Q 40.921875 74.21875 44.703125 73.484375 
Q 48.484375 72.75 52.59375 71.296875 
z
" id="DejaVuSans-54"/>
       </defs>
       <use xlink:href="#DejaVuSans-54"/>
       <use x="63.623047" xlink:href="#DejaVuSans-48"/>
      </g>
     </g>
    </g>
    <g id="ytick_5">
     <g id="line2d_13">
      <g>
       <use style="stroke:#000000;stroke-width:0.8;" x="57.6" xlink:href="#m71e0595377" y="88.191142"/>
      </g>
     </g>
     <g id="text_13">
      <!-- 80 -->
      <g transform="translate(37.875 91.990361)scale(0.1 -0.1)">
       <defs>
        <path d="M 31.78125 34.625 
Q 24.75 34.625 20.71875 30.859375 
Q 16.703125 27.09375 16.703125 20.515625 
Q 16.703125 13.921875 20.71875 10.15625 
Q 24.75 6.390625 31.78125 6.390625 
Q 38.8125 6.390625 42.859375 10.171875 
Q 46.921875 13.96875 46.921875 20.515625 
Q 46.921875 27.09375 42.890625 30.859375 
Q 38.875 34.625 31.78125 34.625 
z
M 21.921875 38.8125 
Q 15.578125 40.375 12.03125 44.71875 
Q 8.5 49.078125 8.5 55.328125 
Q 8.5 64.0625 14.71875 69.140625 
Q 20.953125 74.21875 31.78125 74.21875 
Q 42.671875 74.21875 48.875 69.140625 
Q 55.078125 64.0625 55.078125 55.328125 
Q 55.078125 49.078125 51.53125 44.71875 
Q 48 40.375 41.703125 38.8125 
Q 48.828125 37.15625 52.796875 32.3125 
Q 56.78125 27.484375 56.78125 20.515625 
Q 56.78125 9.90625 50.3125 4.234375 
Q 43.84375 -1.421875 31.78125 -1.421875 
Q 19.734375 -1.421875 13.25 4.234375 
Q 6.78125 9.90625 6.78125 20.515625 
Q 6.78125 27.484375 10.78125 32.3125 
Q 14.796875 37.15625 21.921875 38.8125 
z
M 18.3125 54.390625 
Q 18.3125 48.734375 21.84375 45.5625 
Q 25.390625 42.390625 31.78125 42.390625 
Q 38.140625 42.390625 41.71875 45.5625 
Q 45.3125 48.734375 45.3125 54.390625 
Q 45.3125 60.0625 41.71875 63.234375 
Q 38.140625 66.40625 31.78125 66.40625 
Q 25.390625 66.40625 21.84375 63.234375 
Q 18.3125 60.0625 18.3125 54.390625 
z
" id="DejaVuSans-56"/>
       </defs>
       <use xlink:href="#DejaVuSans-56"/>
       <use x="63.623047" xlink:href="#DejaVuSans-48"/>
      </g>
     </g>
    </g>
   </g>
   <g id="line2d_14">
    <path clip-path="url(#p353f613c34)" d="M 86.141904 97.160576 
L 86.911228 95.223694 
L 87.680551 101.218367 
L 88.449875 111.047371 
L 89.219199 124.881299 
L 89.988522 132.825659 
L 90.757846 136.324477 
L 92.296493 145.759159 
L 93.065816 147.647863 
L 93.83514 137.927106 
L 94.604464 132.835781 
L 95.373787 131.874549 
L 96.143111 132.108566 
L 96.912434 136.053276 
L 97.681758 137.271217 
L 98.451081 139.395483 
L 99.220405 134.133887 
L 99.989729 133.93109 
L 100.759052 129.950976 
L 101.528376 118.610537 
L 102.297699 102.454366 
L 103.067023 90.595949 
L 103.836346 86.84528 
L 104.60567 94.176488 
L 105.374994 106.195136 
L 106.144317 114.721986 
L 106.913641 117.812616 
L 107.682964 113.617855 
L 108.452288 124.596438 
L 109.221611 128.917683 
L 109.990935 143.155566 
L 110.760259 137.889522 
L 111.529582 148.529137 
L 112.298906 157.327098 
L 113.068229 174.012606 
L 113.837553 177.539536 
L 115.3762 179.46548 
L 116.145523 189.897816 
L 117.684171 223.590263 
L 118.453494 231.981611 
L 119.222818 231.929794 
L 119.992141 233.362424 
L 120.761465 222.353102 
L 121.530788 224.495675 
L 122.300112 220.049116 
L 123.069436 218.635705 
L 123.838759 205.648945 
L 124.608083 201.3179 
L 126.14673 231.806308 
L 126.916053 241.717287 
L 127.685377 232.191061 
L 128.454701 240.605253 
L 129.224024 241.421214 
L 129.993348 249.210332 
L 130.762671 238.680722 
L 131.531995 243.211048 
L 132.301318 242.809592 
L 133.070642 243.628768 
L 133.839966 234.443507 
L 135.378613 225.006236 
L 136.147936 222.860249 
L 138.455907 195.471281 
L 139.225231 166.543432 
L 139.994554 150.945626 
L 140.763878 129.557847 
L 141.533201 142.664811 
L 142.302525 135.122214 
L 143.071848 135.405131 
L 143.841172 126.900469 
L 144.610495 134.290271 
L 146.149143 145.330649 
L 147.68779 134.107075 
L 148.457113 136.239115 
L 149.226437 139.831747 
L 149.99576 144.392942 
L 150.765084 143.740552 
L 151.534408 144.432826 
L 152.303731 134.946282 
L 153.073055 133.172407 
L 153.842378 133.412841 
L 154.611702 151.869063 
L 155.381025 155.547257 
L 156.150349 159.886831 
L 156.919673 152.544079 
L 157.688996 152.003551 
L 159.227643 180.305597 
L 159.996967 191.159073 
L 160.76629 178.176487 
L 162.304938 140.472385 
L 163.074261 128.651391 
L 163.843585 123.762337 
L 164.612908 120.129226 
L 165.382232 104.714409 
L 166.151555 98.20919 
L 166.920879 87.466093 
L 167.690202 90.812428 
L 168.459526 86.343923 
L 170.767497 61.617575 
L 171.53682 60.16255 
L 172.306144 63.855024 
L 173.075467 72.709965 
L 174.614115 122.494126 
L 175.383438 138.643692 
L 176.152762 144.003661 
L 176.922085 140.180869 
L 177.691409 146.374045 
L 178.460732 148.799806 
L 179.230056 154.144213 
L 180.768703 147.539217 
L 181.538027 151.635545 
L 182.30735 169.647639 
L 183.076674 184.106352 
L 183.845997 192.038301 
L 184.615321 182.550778 
L 185.384645 171.654606 
L 186.153968 166.850351 
L 186.923292 167.999909 
L 187.692615 175.180411 
L 188.461939 173.563587 
L 189.231262 167.313071 
L 190.000586 167.333719 
L 190.76991 163.039323 
L 191.539233 170.178575 
L 192.308557 165.134745 
L 193.07788 162.744189 
L 193.847204 154.836275 
L 194.616527 150.69948 
L 195.385851 145.849679 
L 196.924498 132.217157 
L 197.693822 135.282571 
L 198.463145 150.886357 
L 200.001792 176.48413 
L 200.771116 174.36732 
L 201.540439 190.566513 
L 202.309763 187.42947 
L 203.079087 191.16976 
L 203.84841 186.409683 
L 204.617734 195.623036 
L 205.387057 199.318409 
L 206.156381 201.764077 
L 206.925704 195.049969 
L 207.695028 189.601303 
L 208.464352 188.438757 
L 209.233675 186.932421 
L 210.002999 192.406945 
L 210.772322 192.820773 
L 211.541646 197.723569 
L 212.310969 195.031266 
L 213.080293 194.023012 
L 213.849617 194.694349 
L 214.61894 196.29506 
L 215.388264 191.868802 
L 216.157587 191.420509 
L 216.926911 189.229929 
L 217.696234 192.563919 
L 218.465558 196.986234 
L 220.004205 177.236113 
L 220.773529 162.863245 
L 221.542852 159.038152 
L 222.312176 152.60384 
L 223.081499 154.57085 
L 223.850823 158.564607 
L 224.620146 166.412951 
L 226.158794 166.461894 
L 226.928117 163.433199 
L 227.697441 159.5545 
L 228.466764 172.504351 
L 229.236088 168.752909 
L 230.005411 169.354963 
L 230.774735 141.290414 
L 231.544059 133.741366 
L 232.313382 117.779695 
L 233.082706 112.021034 
L 233.852029 88.084595 
L 235.390676 62.8999 
L 236.16 61.428913 
L 236.929324 56.512548 
L 237.698647 53.203649 
L 240.006618 100.837605 
L 240.775941 98.970764 
L 241.545265 99.25443 
L 242.314589 98.539428 
L 243.083912 100.20074 
L 243.853236 104.377421 
L 244.622559 114.265568 
L 245.391883 130.996004 
L 246.161206 145.082494 
L 246.93053 149.873434 
L 247.699854 150.949345 
L 248.469177 156.416276 
L 249.238501 148.910316 
L 250.777148 124.87274 
L 253.085118 169.110067 
L 253.854442 171.854972 
L 254.623766 173.992053 
L 255.393089 175.31055 
L 256.162413 175.038698 
L 256.931736 176.45666 
L 257.70106 182.626398 
L 258.470383 186.085427 
L 259.239707 191.146135 
L 260.009031 185.860422 
L 260.778354 193.445507 
L 261.547678 186.374909 
L 262.317001 189.632893 
L 263.086325 197.774217 
L 263.855648 211.170177 
L 264.624972 222.28799 
L 265.394296 217.885056 
L 266.163619 220.483551 
L 266.932943 217.268296 
L 267.702266 216.427574 
L 268.47159 212.627176 
L 269.240913 212.268174 
L 270.010237 210.130048 
L 270.779561 215.936751 
L 271.548884 213.80771 
L 272.318208 215.000854 
L 273.087531 203.403555 
L 275.395502 118.011498 
L 276.164826 116.771488 
L 276.934149 127.197412 
L 278.472796 159.297915 
L 279.24212 153.585259 
L 280.011443 157.641184 
L 280.780767 153.035165 
L 281.55009 151.80572 
L 282.319414 156.961773 
L 283.088738 161.288959 
L 283.858061 173.31738 
L 284.627385 179.975356 
L 286.166032 195.195244 
L 286.935355 194.209161 
L 287.704679 178.072024 
L 288.474003 165.012744 
L 289.243326 147.076118 
L 290.01265 149.196183 
L 290.781973 139.635077 
L 291.551297 135.991857 
L 293.089944 114.580788 
L 293.859268 113.701298 
L 294.628591 112.220956 
L 295.397915 108.61666 
L 296.936562 102.326439 
L 297.705885 106.795639 
L 298.475209 103.314909 
L 299.244533 93.689252 
L 300.78318 68.143873 
L 301.552503 66.46124 
L 302.321827 69.474802 
L 303.09115 75.119501 
L 303.860474 79.01766 
L 304.629798 77.037907 
L 305.399121 80.85536 
L 306.168445 83.383909 
L 306.937768 86.804418 
L 307.707092 80.7863 
L 308.476415 76.689383 
L 310.015062 88.430237 
L 310.784386 97.232775 
L 312.323033 89.826056 
L 313.092357 94.46877 
L 313.86168 101.539772 
L 314.631004 111.523599 
L 315.400327 112.583764 
L 316.169651 110.711303 
L 316.938975 105.55484 
L 317.708298 96.68889 
L 318.477622 99.457814 
L 319.246945 104.93837 
L 320.016269 104.402691 
L 321.554916 90.609124 
L 322.32424 94.255719 
L 323.093563 96.177486 
L 324.63221 78.968689 
L 325.401534 72.950274 
L 326.170857 74.869651 
L 326.940181 77.335642 
L 328.478828 129.642297 
L 329.248152 145.200983 
L 330.017475 136.86952 
L 330.786799 125.050526 
L 331.556122 130.166236 
L 332.325446 136.900958 
L 333.094769 145.918704 
L 333.864093 152.618718 
L 334.633417 158.311942 
L 335.40274 162.062465 
L 336.172064 157.720774 
L 337.710711 170.843555 
L 338.480034 168.581847 
L 339.249358 158.869511 
L 340.018682 151.424036 
L 340.788005 152.20953 
L 341.557329 161.013736 
L 342.326652 161.87708 
L 343.095976 153.4559 
L 344.634623 109.914341 
L 345.403947 96.933735 
L 346.17327 92.214529 
L 346.942594 99.694167 
L 347.711917 97.923524 
L 348.481241 98.145609 
L 349.250564 90.030287 
L 350.019888 88.608276 
L 350.789212 80.518418 
L 351.558535 77.597895 
L 352.327859 76.842766 
L 353.097182 77.31192 
L 353.866506 76.759256 
L 355.405153 81.528057 
L 356.174477 80.526393 
L 356.9438 74.758657 
L 357.713124 70.444319 
L 358.482447 68.294563 
L 359.251771 63.966889 
L 360.790418 51.364302 
L 361.559741 53.509329 
L 362.329065 64.616519 
L 363.867712 107.880323 
L 364.637036 120.223202 
L 365.406359 120.357368 
L 366.175683 122.466222 
L 366.945006 131.785594 
L 367.71433 145.122201 
L 368.483654 149.267029 
L 369.252977 152.488303 
L 370.022301 160.561873 
L 370.791624 187.270049 
L 371.560948 207.54081 
L 372.330271 221.41205 
L 373.099595 216.729497 
L 373.868919 208.848893 
L 374.638242 197.563212 
L 375.407566 202.69232 
L 376.176889 209.221551 
L 376.946213 211.433464 
L 377.715536 198.605323 
L 378.48486 191.497087 
L 379.254184 192.995685 
L 380.023507 188.904489 
L 380.792831 176.542843 
L 381.562154 149.17795 
L 383.100801 113.197269 
L 383.870125 111.196172 
L 384.639449 98.809596 
L 385.408772 92.568324 
L 386.178096 81.889951 
L 386.947419 79.721044 
L 387.716743 79.647021 
L 388.486066 82.582528 
L 390.024713 78.500079 
L 390.794037 76.082212 
L 391.563361 78.065039 
L 392.332684 77.944341 
L 393.102008 75.380247 
L 393.871331 73.961455 
L 394.640655 70.492242 
L 395.409978 85.765631 
L 396.948626 137.42861 
L 397.717949 155.286525 
L 398.487273 162.754756 
L 398.487273 162.754756 
" style="fill:none;stroke:#ff6347;stroke-linecap:square;stroke-width:1.5;"/>
   </g>
   <g id="patch_3">
    <path d="M 57.6 307.584 
L 57.6 41.472 
" style="fill:none;stroke:#000000;stroke-linecap:square;stroke-linejoin:miter;stroke-width:0.8;"/>
   </g>
   <g id="patch_4">
    <path d="M 414.72 307.584 
L 414.72 41.472 
" style="fill:none;stroke:#000000;stroke-linecap:square;stroke-linejoin:miter;stroke-width:0.8;"/>
   </g>
   <g id="patch_5">
    <path d="M 57.6 307.584 
L 414.72 307.584 
" style="fill:none;stroke:#000000;stroke-linecap:square;stroke-linejoin:miter;stroke-width:0.8;"/>
   </g>
   <g id="patch_6">
    <path d="M 57.6 41.472 
L 414.72 41.472 
" style="fill:none;stroke:#000000;stroke-linecap:square;stroke-linejoin:miter;stroke-width:0.8;"/>
   </g>
   <g id="text_14">
    <!-- Data source: nomics -->
    <g transform="translate(184.91625 35.472)scale(0.1 -0.1)">
     <defs>
      <path d="M 19.671875 64.796875 
L 19.671875 8.109375 
L 31.59375 8.109375 
Q 46.6875 8.109375 53.6875 14.9375 
Q 60.6875 21.78125 60.6875 36.53125 
Q 60.6875 51.171875 53.6875 57.984375 
Q 46.6875 64.796875 31.59375 64.796875 
z
M 9.8125 72.90625 
L 30.078125 72.90625 
Q 51.265625 72.90625 61.171875 64.09375 
Q 71.09375 55.28125 71.09375 36.53125 
Q 71.09375 17.671875 61.125 8.828125 
Q 51.171875 0 30.078125 0 
L 9.8125 0 
z
" id="DejaVuSans-68"/>
      <path d="M 34.28125 27.484375 
Q 23.390625 27.484375 19.1875 25 
Q 14.984375 22.515625 14.984375 16.5 
Q 14.984375 11.71875 18.140625 8.90625 
Q 21.296875 6.109375 26.703125 6.109375 
Q 34.1875 6.109375 38.703125 11.40625 
Q 43.21875 16.703125 43.21875 25.484375 
L 43.21875 27.484375 
z
M 52.203125 31.203125 
L 52.203125 0 
L 43.21875 0 
L 43.21875 8.296875 
Q 40.140625 3.328125 35.546875 0.953125 
Q 30.953125 -1.421875 24.3125 -1.421875 
Q 15.921875 -1.421875 10.953125 3.296875 
Q 6 8.015625 6 15.921875 
Q 6 25.140625 12.171875 29.828125 
Q 18.359375 34.515625 30.609375 34.515625 
L 43.21875 34.515625 
L 43.21875 35.40625 
Q 43.21875 41.609375 39.140625 45 
Q 35.0625 48.390625 27.6875 48.390625 
Q 23 48.390625 18.546875 47.265625 
Q 14.109375 46.140625 10.015625 43.890625 
L 10.015625 52.203125 
Q 14.9375 54.109375 19.578125 55.046875 
Q 24.21875 56 28.609375 56 
Q 40.484375 56 46.34375 49.84375 
Q 52.203125 43.703125 52.203125 31.203125 
z
" id="DejaVuSans-97"/>
      <path d="M 18.3125 70.21875 
L 18.3125 54.6875 
L 36.8125 54.6875 
L 36.8125 47.703125 
L 18.3125 47.703125 
L 18.3125 18.015625 
Q 18.3125 11.328125 20.140625 9.421875 
Q 21.96875 7.515625 27.59375 7.515625 
L 36.8125 7.515625 
L 36.8125 0 
L 27.59375 0 
Q 17.1875 0 13.234375 3.875 
Q 9.28125 7.765625 9.28125 18.015625 
L 9.28125 47.703125 
L 2.6875 47.703125 
L 2.6875 54.6875 
L 9.28125 54.6875 
L 9.28125 70.21875 
z
" id="DejaVuSans-116"/>
      <path id="DejaVuSans-32"/>
      <path d="M 44.28125 53.078125 
L 44.28125 44.578125 
Q 40.484375 46.53125 36.375 47.5 
Q 32.28125 48.484375 27.875 48.484375 
Q 21.1875 48.484375 17.84375 46.4375 
Q 14.5 44.390625 14.5 40.28125 
Q 14.5 37.15625 16.890625 35.375 
Q 19.28125 33.59375 26.515625 31.984375 
L 29.59375 31.296875 
Q 39.15625 29.25 43.1875 25.515625 
Q 47.21875 21.78125 47.21875 15.09375 
Q 47.21875 7.46875 41.1875 3.015625 
Q 35.15625 -1.421875 24.609375 -1.421875 
Q 20.21875 -1.421875 15.453125 -0.5625 
Q 10.6875 0.296875 5.421875 2 
L 5.421875 11.28125 
Q 10.40625 8.6875 15.234375 7.390625 
Q 20.0625 6.109375 24.8125 6.109375 
Q 31.15625 6.109375 34.5625 8.28125 
Q 37.984375 10.453125 37.984375 14.40625 
Q 37.984375 18.0625 35.515625 20.015625 
Q 33.0625 21.96875 24.703125 23.78125 
L 21.578125 24.515625 
Q 13.234375 26.265625 9.515625 29.90625 
Q 5.8125 33.546875 5.8125 39.890625 
Q 5.8125 47.609375 11.28125 51.796875 
Q 16.75 56 26.8125 56 
Q 31.78125 56 36.171875 55.265625 
Q 40.578125 54.546875 44.28125 53.078125 
z
" id="DejaVuSans-115"/>
      <path d="M 30.609375 48.390625 
Q 23.390625 48.390625 19.1875 42.75 
Q 14.984375 37.109375 14.984375 27.296875 
Q 14.984375 17.484375 19.15625 11.84375 
Q 23.34375 6.203125 30.609375 6.203125 
Q 37.796875 6.203125 41.984375 11.859375 
Q 46.1875 17.53125 46.1875 27.296875 
Q 46.1875 37.015625 41.984375 42.703125 
Q 37.796875 48.390625 30.609375 48.390625 
z
M 30.609375 56 
Q 42.328125 56 49.015625 48.375 
Q 55.71875 40.765625 55.71875 27.296875 
Q 55.71875 13.875 49.015625 6.21875 
Q 42.328125 -1.421875 30.609375 -1.421875 
Q 18.84375 -1.421875 12.171875 6.21875 
Q 5.515625 13.875 5.515625 27.296875 
Q 5.515625 40.765625 12.171875 48.375 
Q 18.84375 56 30.609375 56 
z
" id="DejaVuSans-111"/>
      <path d="M 8.5 21.578125 
L 8.5 54.6875 
L 17.484375 54.6875 
L 17.484375 21.921875 
Q 17.484375 14.15625 20.5 10.265625 
Q 23.53125 6.390625 29.59375 6.390625 
Q 36.859375 6.390625 41.078125 11.03125 
Q 45.3125 15.671875 45.3125 23.6875 
L 45.3125 54.6875 
L 54.296875 54.6875 
L 54.296875 0 
L 45.3125 0 
L 45.3125 8.40625 
Q 42.046875 3.421875 37.71875 1 
Q 33.40625 -1.421875 27.6875 -1.421875 
Q 18.265625 -1.421875 13.375 4.4375 
Q 8.5 10.296875 8.5 21.578125 
z
M 31.109375 56 
z
" id="DejaVuSans-117"/>
      <path d="M 41.109375 46.296875 
Q 39.59375 47.171875 37.8125 47.578125 
Q 36.03125 48 33.890625 48 
Q 26.265625 48 22.1875 43.046875 
Q 18.109375 38.09375 18.109375 28.8125 
L 18.109375 0 
L 9.078125 0 
L 9.078125 54.6875 
L 18.109375 54.6875 
L 18.109375 46.1875 
Q 20.953125 51.171875 25.484375 53.578125 
Q 30.03125 56 36.53125 56 
Q 37.453125 56 38.578125 55.875 
Q 39.703125 55.765625 41.0625 55.515625 
z
" id="DejaVuSans-114"/>
      <path d="M 48.78125 52.59375 
L 48.78125 44.1875 
Q 44.96875 46.296875 41.140625 47.34375 
Q 37.3125 48.390625 33.40625 48.390625 
Q 24.65625 48.390625 19.8125 42.84375 
Q 14.984375 37.3125 14.984375 27.296875 
Q 14.984375 17.28125 19.8125 11.734375 
Q 24.65625 6.203125 33.40625 6.203125 
Q 37.3125 6.203125 41.140625 7.25 
Q 44.96875 8.296875 48.78125 10.40625 
L 48.78125 2.09375 
Q 45.015625 0.34375 40.984375 -0.53125 
Q 36.96875 -1.421875 32.421875 -1.421875 
Q 20.0625 -1.421875 12.78125 6.34375 
Q 5.515625 14.109375 5.515625 27.296875 
Q 5.515625 40.671875 12.859375 48.328125 
Q 20.21875 56 33.015625 56 
Q 37.15625 56 41.109375 55.140625 
Q 45.0625 54.296875 48.78125 52.59375 
z
" id="DejaVuSans-99"/>
      <path d="M 56.203125 29.59375 
L 56.203125 25.203125 
L 14.890625 25.203125 
Q 15.484375 15.921875 20.484375 11.0625 
Q 25.484375 6.203125 34.421875 6.203125 
Q 39.59375 6.203125 44.453125 7.46875 
Q 49.3125 8.734375 54.109375 11.28125 
L 54.109375 2.78125 
Q 49.265625 0.734375 44.1875 -0.34375 
Q 39.109375 -1.421875 33.890625 -1.421875 
Q 20.796875 -1.421875 13.15625 6.1875 
Q 5.515625 13.8125 5.515625 26.8125 
Q 5.515625 40.234375 12.765625 48.109375 
Q 20.015625 56 32.328125 56 
Q 43.359375 56 49.78125 48.890625 
Q 56.203125 41.796875 56.203125 29.59375 
z
M 47.21875 32.234375 
Q 47.125 39.59375 43.09375 43.984375 
Q 39.0625 48.390625 32.421875 48.390625 
Q 24.90625 48.390625 20.390625 44.140625 
Q 15.875 39.890625 15.1875 32.171875 
z
" id="DejaVuSans-101"/>
      <path d="M 11.71875 12.40625 
L 22.015625 12.40625 
L 22.015625 0 
L 11.71875 0 
z
M 11.71875 51.703125 
L 22.015625 51.703125 
L 22.015625 39.3125 
L 11.71875 39.3125 
z
" id="DejaVuSans-58"/>
      <path d="M 54.890625 33.015625 
L 54.890625 0 
L 45.90625 0 
L 45.90625 32.71875 
Q 45.90625 40.484375 42.875 44.328125 
Q 39.84375 48.1875 33.796875 48.1875 
Q 26.515625 48.1875 22.3125 43.546875 
Q 18.109375 38.921875 18.109375 30.90625 
L 18.109375 0 
L 9.078125 0 
L 9.078125 54.6875 
L 18.109375 54.6875 
L 18.109375 46.1875 
Q 21.34375 51.125 25.703125 53.5625 
Q 30.078125 56 35.796875 56 
Q 45.21875 56 50.046875 50.171875 
Q 54.890625 44.34375 54.890625 33.015625 
z
" id="DejaVuSans-110"/>
      <path d="M 52 44.1875 
Q 55.375 50.25 60.0625 53.125 
Q 64.75 56 71.09375 56 
Q 79.640625 56 84.28125 50.015625 
Q 88.921875 44.046875 88.921875 33.015625 
L 88.921875 0 
L 79.890625 0 
L 79.890625 32.71875 
Q 79.890625 40.578125 77.09375 44.375 
Q 74.3125 48.1875 68.609375 48.1875 
Q 61.625 48.1875 57.5625 43.546875 
Q 53.515625 38.921875 53.515625 30.90625 
L 53.515625 0 
L 44.484375 0 
L 44.484375 32.71875 
Q 44.484375 40.625 41.703125 44.40625 
Q 38.921875 48.1875 33.109375 48.1875 
Q 26.21875 48.1875 22.15625 43.53125 
Q 18.109375 38.875 18.109375 30.90625 
L 18.109375 0 
L 9.078125 0 
L 9.078125 54.6875 
L 18.109375 54.6875 
L 18.109375 46.1875 
Q 21.1875 51.21875 25.484375 53.609375 
Q 29.78125 56 35.6875 56 
Q 41.65625 56 45.828125 52.96875 
Q 50 49.953125 52 44.1875 
z
" id="DejaVuSans-109"/>
      <path d="M 9.421875 54.6875 
L 18.40625 54.6875 
L 18.40625 0 
L 9.421875 0 
z
M 9.421875 75.984375 
L 18.40625 75.984375 
L 18.40625 64.59375 
L 9.421875 64.59375 
z
" id="DejaVuSans-105"/>
     </defs>
     <use xlink:href="#DejaVuSans-68"/>
     <use x="77.001953" xlink:href="#DejaVuSans-97"/>
     <use x="138.28125" xlink:href="#DejaVuSans-116"/>
     <use x="177.490234" xlink:href="#DejaVuSans-97"/>
     <use x="238.769531" xlink:href="#DejaVuSans-32"/>
     <use x="270.556641" xlink:href="#DejaVuSans-115"/>
     <use x="322.65625" xlink:href="#DejaVuSans-111"/>
     <use x="383.837891" xlink:href="#DejaVuSans-117"/>
     <use x="447.216797" xlink:href="#DejaVuSans-114"/>
     <use x="486.080078" xlink:href="#DejaVuSans-99"/>
     <use x="541.060547" xlink:href="#DejaVuSans-101"/>
     <use x="602.583984" xlink:href="#DejaVuSans-58"/>
     <use x="636.275391" xlink:href="#DejaVuSans-32"/>
     <use x="668.0625" xlink:href="#DejaVuSans-110"/>
     <use x="731.441406" xlink:href="#DejaVuSans-111"/>
     <use x="792.623047" xlink:href="#DejaVuSans-109"/>
     <use x="890.035156" xlink:href="#DejaVuSans-105"/>
     <use x="917.818359" xlink:href="#DejaVuSans-99"/>
     <use x="972.798828" xlink:href="#DejaVuSans-115"/>
    </g>
   </g>
   <g id="legend_1">
    <g id="patch_7">
     <path d="M 64.6 64.150125 
L 112.846875 64.150125 
Q 114.846875 64.150125 114.846875 62.150125 
L 114.846875 48.472 
Q 114.846875 46.472 112.846875 46.472 
L 64.6 46.472 
Q 62.6 46.472 62.6 48.472 
L 62.6 62.150125 
Q 62.6 64.150125 64.6 64.150125 
z
" style="fill:#ffffff;opacity:0.8;stroke:#cccccc;stroke-linejoin:miter;"/>
    </g>
    <g id="line2d_15">
     <path d="M 66.6 54.570438 
L 86.6 54.570438 
" style="fill:none;stroke:#ff6347;stroke-linecap:square;stroke-width:1.5;"/>
    </g>
    <g id="line2d_16"/>
    <g id="text_15">
     <!-- RSI -->
     <g transform="translate(94.6 58.070438)scale(0.1 -0.1)">
      <defs>
       <path d="M 44.390625 34.1875 
Q 47.5625 33.109375 50.5625 29.59375 
Q 53.5625 26.078125 56.59375 19.921875 
L 66.609375 0 
L 56 0 
L 46.6875 18.703125 
Q 43.0625 26.03125 39.671875 28.421875 
Q 36.28125 30.8125 30.421875 30.8125 
L 19.671875 30.8125 
L 19.671875 0 
L 9.8125 0 
L 9.8125 72.90625 
L 32.078125 72.90625 
Q 44.578125 72.90625 50.734375 67.671875 
Q 56.890625 62.453125 56.890625 51.90625 
Q 56.890625 45.015625 53.6875 40.46875 
Q 50.484375 35.9375 44.390625 34.1875 
z
M 19.671875 64.796875 
L 19.671875 38.921875 
L 32.078125 38.921875 
Q 39.203125 38.921875 42.84375 42.21875 
Q 46.484375 45.515625 46.484375 51.90625 
Q 46.484375 58.296875 42.84375 61.546875 
Q 39.203125 64.796875 32.078125 64.796875 
z
" id="DejaVuSans-82"/>
       <path d="M 53.515625 70.515625 
L 53.515625 60.890625 
Q 47.90625 63.578125 42.921875 64.890625 
Q 37.9375 66.21875 33.296875 66.21875 
Q 25.25 66.21875 20.875 63.09375 
Q 16.5 59.96875 16.5 54.203125 
Q 16.5 49.359375 19.40625 46.890625 
Q 22.3125 44.4375 30.421875 42.921875 
L 36.375 41.703125 
Q 47.40625 39.59375 52.65625 34.296875 
Q 57.90625 29 57.90625 20.125 
Q 57.90625 9.515625 50.796875 4.046875 
Q 43.703125 -1.421875 29.984375 -1.421875 
Q 24.8125 -1.421875 18.96875 -0.25 
Q 13.140625 0.921875 6.890625 3.21875 
L 6.890625 13.375 
Q 12.890625 10.015625 18.65625 8.296875 
Q 24.421875 6.59375 29.984375 6.59375 
Q 38.421875 6.59375 43.015625 9.90625 
Q 47.609375 13.234375 47.609375 19.390625 
Q 47.609375 24.75 44.3125 27.78125 
Q 41.015625 30.8125 33.5 32.328125 
L 27.484375 33.5 
Q 16.453125 35.6875 11.515625 40.375 
Q 6.59375 45.0625 6.59375 53.421875 
Q 6.59375 63.09375 13.40625 68.65625 
Q 20.21875 74.21875 32.171875 74.21875 
Q 37.3125 74.21875 42.625 73.28125 
Q 47.953125 72.359375 53.515625 70.515625 
z
" id="DejaVuSans-83"/>
       <path d="M 9.8125 72.90625 
L 19.671875 72.90625 
L 19.671875 0 
L 9.8125 0 
z
" id="DejaVuSans-73"/>
      </defs>
      <use xlink:href="#DejaVuSans-82"/>
      <use x="69.482422" xlink:href="#DejaVuSans-83"/>
      <use x="132.958984" xlink:href="#DejaVuSans-73"/>
     </g>
    </g>
   </g>
  </g>
  <g id="text_16">
   <!-- RSI -->
   <g transform="translate(217.4025 19.0695)scale(0.16 -0.16)">
    <use xlink:href="#DejaVuSans-82"/>
    <use x="69.482422" xlink:href="#DejaVuSans-83"/>
    <use x="132.958984" xlink:href="#DejaVuSans-73"/>
   </g>
  </g>
 </g>
 <defs>
  <clipPath id="p353f613c34">
   <rect height="266.112" width="357.12" x="57.6" y="41.472"/>
  </clipPath>
 </defs>
</svg>
