<?xml version="1.0" encoding="utf-8" standalone="no"?>
<!DOCTYPE svg PUBLIC "-//W3C//DTD SVG 1.1//EN"
  "http://www.w3.org/Graphics/SVG/1.1/DTD/svg11.dtd">
<!-- Created with matplotlib (https://matplotlib.org/) -->
<svg height="345.6pt" version="1.1" viewBox="0 0 460.8 345.6" width="460.8pt" xmlns="http://www.w3.org/2000/svg" xmlns:xlink="http://www.w3.org/1999/xlink">
 <metadata>
  <rdf:RDF xmlns:cc="http://creativecommons.org/ns#" xmlns:dc="http://purl.org/dc/elements/1.1/" xmlns:rdf="http://www.w3.org/1999/02/22-rdf-syntax-ns#">
   <cc:Work>
    <dc:type rdf:resource="http://purl.org/dc/dcmitype/StillImage"/>
    <dc:date>2021-02-06T11:19:57.975494</dc:date>
    <dc:format>image/svg+xml</dc:format>
    <dc:creator>
     <cc:Agent>
      <dc:title>Matplotlib v3.3.2, https://matplotlib.org/</dc:title>
     </cc:Agent>
    </dc:creator>
   </cc:Work>
  </rdf:RDF>
 </metadata>
 <defs>
  <style type="text/css">*{stroke-linecap:butt;stroke-linejoin:round;}</style>
 </defs>
 <g id="figure_1">
  <g id="patch_1">
   <path d="M 0 345.6 
L 460.8 345.6 
L 460.8 0 
L 0 0 
z
" style="fill:#ffffff;"/>
  </g>
  <g id="axes_1">
   <g id="patch_2">
    <path d="M 57.6 307.584 
L 414.72 307.584 
L 414.72 41.472 
L 57.6 41.472 
z
" style="fill:#ffffff;"/>
   </g>
   <g id="PolyCollection_1">
    <defs>
     <path d="M 73.832727 -219.118501 
L 73.832727 -115.631357 
L 74.64234 -115.631357 
L 75.451952 -115.631357 
L 76.261564 -115.631357 
L 77.071177 -115.631357 
L 77.880789 -115.631357 
L 78.690401 -115.631357 
L 79.500014 -115.631357 
L 80.309626 -115.631357 
L 81.119238 -115.631357 
L 81.928851 -115.631357 
L 82.738463 -115.631357 
L 83.548075 -115.631357 
L 84.357688 -115.631357 
L 85.1673 -115.631357 
L 85.976912 -115.631357 
L 86.786525 -115.631357 
L 87.596137 -115.631357 
L 88.405749 -115.631357 
L 89.215362 -115.631357 
L 90.024974 -115.631357 
L 90.834586 -115.631357 
L 91.644199 -115.631357 
L 92.453811 -115.631357 
L 93.263423 -115.631357 
L 94.073036 -115.631357 
L 94.882648 -115.631357 
L 95.69226 -115.631357 
L 96.501873 -115.631357 
L 97.311485 -115.631357 
L 98.121097 -115.631357 
L 98.93071 -115.631357 
L 99.740322 -115.631357 
L 100.549934 -115.631357 
L 101.359547 -115.631357 
L 102.169159 -115.631357 
L 102.978771 -115.631357 
L 103.788384 -115.631357 
L 104.597996 -115.631357 
L 105.407608 -115.631357 
L 106.217221 -115.631357 
L 107.026833 -115.631357 
L 107.836445 -115.631357 
L 108.646058 -115.631357 
L 109.45567 -115.631357 
L 110.265282 -115.631357 
L 111.074895 -115.631357 
L 111.884507 -115.631357 
L 112.694119 -115.631357 
L 113.503732 -115.631357 
L 114.313344 -115.631357 
L 115.122956 -115.631357 
L 115.932569 -115.631357 
L 116.742181 -115.631357 
L 117.551793 -115.631357 
L 118.361406 -115.631357 
L 119.171018 -115.631357 
L 119.98063 -115.631357 
L 120.790243 -115.631357 
L 121.599855 -115.631357 
L 122.409467 -115.631357 
L 123.21908 -115.631357 
L 124.028692 -115.631357 
L 124.838304 -115.631357 
L 125.647917 -115.631357 
L 126.457529 -115.631357 
L 127.267141 -115.631357 
L 128.076754 -115.631357 
L 128.886366 -115.631357 
L 129.695978 -115.631357 
L 130.505591 -115.631357 
L 131.315203 -115.631357 
L 132.124815 -115.631357 
L 132.934428 -115.631357 
L 133.74404 -115.631357 
L 134.553652 -115.631357 
L 135.363265 -115.631357 
L 136.172877 -115.631357 
L 136.982489 -115.631357 
L 137.792102 -115.631357 
L 138.601714 -115.631357 
L 139.411326 -115.631357 
L 140.220939 -115.631357 
L 141.030551 -115.631357 
L 141.840163 -115.631357 
L 142.649776 -115.631357 
L 143.459388 -115.631357 
L 144.269 -115.631357 
L 145.078613 -115.631357 
L 145.888225 -115.631357 
L 146.697837 -115.631357 
L 147.50745 -115.631357 
L 148.317062 -115.631357 
L 149.126674 -115.631357 
L 149.936287 -115.631357 
L 150.745899 -115.631357 
L 151.555511 -115.631357 
L 152.365124 -115.631357 
L 153.174736 -115.631357 
L 153.984348 -115.631357 
L 154.793961 -115.631357 
L 155.603573 -115.631357 
L 156.413185 -115.631357 
L 157.222798 -115.631357 
L 158.03241 -115.631357 
L 158.842022 -115.631357 
L 159.651635 -115.631357 
L 160.461247 -115.631357 
L 161.270859 -115.631357 
L 162.080472 -115.631357 
L 162.890084 -115.631357 
L 163.699696 -115.631357 
L 164.509309 -115.631357 
L 165.318921 -115.631357 
L 166.128533 -115.631357 
L 166.938146 -115.631357 
L 167.747758 -115.631357 
L 168.55737 -115.631357 
L 169.366983 -115.631357 
L 170.176595 -115.631357 
L 170.986207 -115.631357 
L 171.79582 -115.631357 
L 172.605432 -115.631357 
L 173.415044 -115.631357 
L 174.224657 -115.631357 
L 175.034269 -115.631357 
L 175.843881 -115.631357 
L 176.653494 -115.631357 
L 177.463106 -115.631357 
L 178.272718 -115.631357 
L 179.082331 -115.631357 
L 179.891943 -115.631357 
L 180.701555 -115.631357 
L 181.511168 -115.631357 
L 182.32078 -115.631357 
L 183.130392 -115.631357 
L 183.940005 -115.631357 
L 184.749617 -115.631357 
L 185.559229 -115.631357 
L 186.368842 -115.631357 
L 187.178454 -115.631357 
L 187.988066 -115.631357 
L 188.797679 -115.631357 
L 189.607291 -115.631357 
L 190.416903 -115.631357 
L 191.226516 -115.631357 
L 192.036128 -115.631357 
L 192.84574 -115.631357 
L 193.655353 -115.631357 
L 194.464965 -115.631357 
L 195.274577 -115.631357 
L 196.08419 -115.631357 
L 196.893802 -115.631357 
L 197.703414 -115.631357 
L 198.513027 -115.631357 
L 199.322639 -115.631357 
L 200.132251 -115.631357 
L 200.941864 -115.631357 
L 201.751476 -115.631357 
L 202.561088 -115.631357 
L 203.370701 -115.631357 
L 204.180313 -115.631357 
L 204.989925 -115.631357 
L 205.799538 -115.631357 
L 206.60915 -115.631357 
L 207.418762 -115.631357 
L 208.228375 -115.631357 
L 209.037987 -115.631357 
L 209.847599 -115.631357 
L 210.657212 -115.631357 
L 211.466824 -115.631357 
L 212.276436 -115.631357 
L 213.086049 -115.631357 
L 213.895661 -115.631357 
L 214.705273 -115.631357 
L 215.514886 -115.631357 
L 216.324498 -115.631357 
L 217.13411 -115.631357 
L 217.943723 -115.631357 
L 218.753335 -115.631357 
L 219.562947 -115.631357 
L 220.37256 -115.631357 
L 221.182172 -115.631357 
L 221.991784 -115.631357 
L 222.801397 -115.631357 
L 223.611009 -115.631357 
L 224.420621 -115.631357 
L 225.230234 -115.631357 
L 226.039846 -115.631357 
L 226.849458 -115.631357 
L 227.659071 -115.631357 
L 228.468683 -115.631357 
L 229.278295 -115.631357 
L 230.087908 -115.631357 
L 230.89752 -115.631357 
L 231.707132 -115.631357 
L 232.516745 -115.631357 
L 233.326357 -115.631357 
L 234.135969 -115.631357 
L 234.945582 -115.631357 
L 235.755194 -115.631357 
L 236.564806 -115.631357 
L 237.374418 -115.631357 
L 238.184031 -115.631357 
L 238.993643 -115.631357 
L 239.803255 -115.631357 
L 240.612868 -115.631357 
L 241.42248 -115.631357 
L 242.232092 -115.631357 
L 243.041705 -115.631357 
L 243.851317 -115.631357 
L 244.660929 -115.631357 
L 245.470542 -115.631357 
L 246.280154 -115.631357 
L 247.089766 -115.631357 
L 247.899379 -115.631357 
L 248.708991 -115.631357 
L 249.518603 -115.631357 
L 250.328216 -115.631357 
L 251.137828 -115.631357 
L 251.94744 -115.631357 
L 252.757053 -115.631357 
L 253.566665 -115.631357 
L 254.376277 -115.631357 
L 255.18589 -115.631357 
L 255.995502 -115.631357 
L 256.805114 -115.631357 
L 257.614727 -115.631357 
L 258.424339 -115.631357 
L 259.233951 -115.631357 
L 260.043564 -115.631357 
L 260.853176 -115.631357 
L 261.662788 -115.631357 
L 262.472401 -115.631357 
L 263.282013 -115.631357 
L 264.091625 -115.631357 
L 264.901238 -115.631357 
L 265.71085 -115.631357 
L 266.520462 -115.631357 
L 267.330075 -115.631357 
L 268.139687 -115.631357 
L 268.949299 -115.631357 
L 269.758912 -115.631357 
L 270.568524 -115.631357 
L 271.378136 -115.631357 
L 272.187749 -115.631357 
L 272.997361 -115.631357 
L 273.806973 -115.631357 
L 274.616586 -115.631357 
L 275.426198 -115.631357 
L 276.23581 -115.631357 
L 277.045423 -115.631357 
L 277.855035 -115.631357 
L 278.664647 -115.631357 
L 279.47426 -115.631357 
L 280.283872 -115.631357 
L 281.093484 -115.631357 
L 281.903097 -115.631357 
L 282.712709 -115.631357 
L 283.522321 -115.631357 
L 284.331934 -115.631357 
L 285.141546 -115.631357 
L 285.951158 -115.631357 
L 286.760771 -115.631357 
L 287.570383 -115.631357 
L 288.379995 -115.631357 
L 289.189608 -115.631357 
L 289.99922 -115.631357 
L 290.808832 -115.631357 
L 291.618445 -115.631357 
L 292.428057 -115.631357 
L 293.237669 -115.631357 
L 294.047282 -115.631357 
L 294.856894 -115.631357 
L 295.666506 -115.631357 
L 296.476119 -115.631357 
L 297.285731 -115.631357 
L 298.095343 -115.631357 
L 298.904956 -115.631357 
L 299.714568 -115.631357 
L 300.52418 -115.631357 
L 301.333793 -115.631357 
L 302.143405 -115.631357 
L 302.953017 -115.631357 
L 303.76263 -115.631357 
L 304.572242 -115.631357 
L 305.381854 -115.631357 
L 306.191467 -115.631357 
L 307.001079 -115.631357 
L 307.810691 -115.631357 
L 308.620304 -115.631357 
L 309.429916 -115.631357 
L 310.239528 -115.631357 
L 311.049141 -115.631357 
L 311.858753 -115.631357 
L 312.668365 -115.631357 
L 313.477978 -115.631357 
L 314.28759 -115.631357 
L 315.097202 -115.631357 
L 315.906815 -115.631357 
L 316.716427 -115.631357 
L 317.526039 -115.631357 
L 318.335652 -115.631357 
L 319.145264 -115.631357 
L 319.954876 -115.631357 
L 320.764489 -115.631357 
L 321.574101 -115.631357 
L 322.383713 -115.631357 
L 323.193326 -115.631357 
L 324.002938 -115.631357 
L 324.81255 -115.631357 
L 325.622163 -115.631357 
L 326.431775 -115.631357 
L 327.241387 -115.631357 
L 328.051 -115.631357 
L 328.860612 -115.631357 
L 329.670224 -115.631357 
L 330.479837 -115.631357 
L 331.289449 -115.631357 
L 332.099061 -115.631357 
L 332.908674 -115.631357 
L 333.718286 -115.631357 
L 334.527898 -115.631357 
L 335.337511 -115.631357 
L 336.147123 -115.631357 
L 336.956735 -115.631357 
L 337.766348 -115.631357 
L 338.57596 -115.631357 
L 339.385572 -115.631357 
L 340.195185 -115.631357 
L 341.004797 -115.631357 
L 341.814409 -115.631357 
L 342.624022 -115.631357 
L 343.433634 -115.631357 
L 344.243246 -115.631357 
L 345.052859 -115.631357 
L 345.862471 -115.631357 
L 346.672083 -115.631357 
L 347.481696 -115.631357 
L 348.291308 -115.631357 
L 349.10092 -115.631357 
L 349.910533 -115.631357 
L 350.720145 -115.631357 
L 351.529757 -115.631357 
L 352.33937 -115.631357 
L 353.148982 -115.631357 
L 353.958594 -115.631357 
L 354.768207 -115.631357 
L 355.577819 -115.631357 
L 356.387431 -115.631357 
L 357.197044 -115.631357 
L 358.006656 -115.631357 
L 358.816268 -115.631357 
L 359.625881 -115.631357 
L 360.435493 -115.631357 
L 361.245105 -115.631357 
L 362.054718 -115.631357 
L 362.86433 -115.631357 
L 363.673942 -115.631357 
L 364.483555 -115.631357 
L 365.293167 -115.631357 
L 366.102779 -115.631357 
L 366.912392 -115.631357 
L 367.722004 -115.631357 
L 368.531616 -115.631357 
L 369.341229 -115.631357 
L 370.150841 -115.631357 
L 370.960453 -115.631357 
L 371.770066 -115.631357 
L 372.579678 -115.631357 
L 373.38929 -115.631357 
L 374.198903 -115.631357 
L 375.008515 -115.631357 
L 375.818127 -115.631357 
L 376.62774 -115.631357 
L 377.437352 -115.631357 
L 378.246964 -115.631357 
L 379.056577 -115.631357 
L 379.866189 -115.631357 
L 380.675801 -115.631357 
L 381.485414 -115.631357 
L 382.295026 -115.631357 
L 383.104638 -115.631357 
L 383.914251 -115.631357 
L 384.723863 -115.631357 
L 385.533475 -115.631357 
L 386.343088 -115.631357 
L 387.1527 -115.631357 
L 387.962312 -115.631357 
L 388.771925 -115.631357 
L 389.581537 -115.631357 
L 390.391149 -115.631357 
L 391.200762 -115.631357 
L 392.010374 -115.631357 
L 392.819986 -115.631357 
L 393.629599 -115.631357 
L 394.439211 -115.631357 
L 395.248823 -115.631357 
L 396.058436 -115.631357 
L 396.868048 -115.631357 
L 397.67766 -115.631357 
L 398.487273 -115.631357 
L 398.487273 -219.118501 
L 398.487273 -219.118501 
L 397.67766 -219.118501 
L 396.868048 -219.118501 
L 396.058436 -219.118501 
L 395.248823 -219.118501 
L 394.439211 -219.118501 
L 393.629599 -219.118501 
L 392.819986 -219.118501 
L 392.010374 -219.118501 
L 391.200762 -219.118501 
L 390.391149 -219.118501 
L 389.581537 -219.118501 
L 388.771925 -219.118501 
L 387.962312 -219.118501 
L 387.1527 -219.118501 
L 386.343088 -219.118501 
L 385.533475 -219.118501 
L 384.723863 -219.118501 
L 383.914251 -219.118501 
L 383.104638 -219.118501 
L 382.295026 -219.118501 
L 381.485414 -219.118501 
L 380.675801 -219.118501 
L 379.866189 -219.118501 
L 379.056577 -219.118501 
L 378.246964 -219.118501 
L 377.437352 -219.118501 
L 376.62774 -219.118501 
L 375.818127 -219.118501 
L 375.008515 -219.118501 
L 374.198903 -219.118501 
L 373.38929 -219.118501 
L 372.579678 -219.118501 
L 371.770066 -219.118501 
L 370.960453 -219.118501 
L 370.150841 -219.118501 
L 369.341229 -219.118501 
L 368.531616 -219.118501 
L 367.722004 -219.118501 
L 366.912392 -219.118501 
L 366.102779 -219.118501 
L 365.293167 -219.118501 
L 364.483555 -219.118501 
L 363.673942 -219.118501 
L 362.86433 -219.118501 
L 362.054718 -219.118501 
L 361.245105 -219.118501 
L 360.435493 -219.118501 
L 359.625881 -219.118501 
L 358.816268 -219.118501 
L 358.006656 -219.118501 
L 357.197044 -219.118501 
L 356.387431 -219.118501 
L 355.577819 -219.118501 
L 354.768207 -219.118501 
L 353.958594 -219.118501 
L 353.148982 -219.118501 
L 352.33937 -219.118501 
L 351.529757 -219.118501 
L 350.720145 -219.118501 
L 349.910533 -219.118501 
L 349.10092 -219.118501 
L 348.291308 -219.118501 
L 347.481696 -219.118501 
L 346.672083 -219.118501 
L 345.862471 -219.118501 
L 345.052859 -219.118501 
L 344.243246 -219.118501 
L 343.433634 -219.118501 
L 342.624022 -219.118501 
L 341.814409 -219.118501 
L 341.004797 -219.118501 
L 340.195185 -219.118501 
L 339.385572 -219.118501 
L 338.57596 -219.118501 
L 337.766348 -219.118501 
L 336.956735 -219.118501 
L 336.147123 -219.118501 
L 335.337511 -219.118501 
L 334.527898 -219.118501 
L 333.718286 -219.118501 
L 332.908674 -219.118501 
L 332.099061 -219.118501 
L 331.289449 -219.118501 
L 330.479837 -219.118501 
L 329.670224 -219.118501 
L 328.860612 -219.118501 
L 328.051 -219.118501 
L 327.241387 -219.118501 
L 326.431775 -219.118501 
L 325.622163 -219.118501 
L 324.81255 -219.118501 
L 324.002938 -219.118501 
L 323.193326 -219.118501 
L 322.383713 -219.118501 
L 321.574101 -219.118501 
L 320.764489 -219.118501 
L 319.954876 -219.118501 
L 319.145264 -219.118501 
L 318.335652 -219.118501 
L 317.526039 -219.118501 
L 316.716427 -219.118501 
L 315.906815 -219.118501 
L 315.097202 -219.118501 
L 314.28759 -219.118501 
L 313.477978 -219.118501 
L 312.668365 -219.118501 
L 311.858753 -219.118501 
L 311.049141 -219.118501 
L 310.239528 -219.118501 
L 309.429916 -219.118501 
L 308.620304 -219.118501 
L 307.810691 -219.118501 
L 307.001079 -219.118501 
L 306.191467 -219.118501 
L 305.381854 -219.118501 
L 304.572242 -219.118501 
L 303.76263 -219.118501 
L 302.953017 -219.118501 
L 302.143405 -219.118501 
L 301.333793 -219.118501 
L 300.52418 -219.118501 
L 299.714568 -219.118501 
L 298.904956 -219.118501 
L 298.095343 -219.118501 
L 297.285731 -219.118501 
L 296.476119 -219.118501 
L 295.666506 -219.118501 
L 294.856894 -219.118501 
L 294.047282 -219.118501 
L 293.237669 -219.118501 
L 292.428057 -219.118501 
L 291.618445 -219.118501 
L 290.808832 -219.118501 
L 289.99922 -219.118501 
L 289.189608 -219.118501 
L 288.379995 -219.118501 
L 287.570383 -219.118501 
L 286.760771 -219.118501 
L 285.951158 -219.118501 
L 285.141546 -219.118501 
L 284.331934 -219.118501 
L 283.522321 -219.118501 
L 282.712709 -219.118501 
L 281.903097 -219.118501 
L 281.093484 -219.118501 
L 280.283872 -219.118501 
L 279.47426 -219.118501 
L 278.664647 -219.118501 
L 277.855035 -219.118501 
L 277.045423 -219.118501 
L 276.23581 -219.118501 
L 275.426198 -219.118501 
L 274.616586 -219.118501 
L 273.806973 -219.118501 
L 272.997361 -219.118501 
L 272.187749 -219.118501 
L 271.378136 -219.118501 
L 270.568524 -219.118501 
L 269.758912 -219.118501 
L 268.949299 -219.118501 
L 268.139687 -219.118501 
L 267.330075 -219.118501 
L 266.520462 -219.118501 
L 265.71085 -219.118501 
L 264.901238 -219.118501 
L 264.091625 -219.118501 
L 263.282013 -219.118501 
L 262.472401 -219.118501 
L 261.662788 -219.118501 
L 260.853176 -219.118501 
L 260.043564 -219.118501 
L 259.233951 -219.118501 
L 258.424339 -219.118501 
L 257.614727 -219.118501 
L 256.805114 -219.118501 
L 255.995502 -219.118501 
L 255.18589 -219.118501 
L 254.376277 -219.118501 
L 253.566665 -219.118501 
L 252.757053 -219.118501 
L 251.94744 -219.118501 
L 251.137828 -219.118501 
L 250.328216 -219.118501 
L 249.518603 -219.118501 
L 248.708991 -219.118501 
L 247.899379 -219.118501 
L 247.089766 -219.118501 
L 246.280154 -219.118501 
L 245.470542 -219.118501 
L 244.660929 -219.118501 
L 243.851317 -219.118501 
L 243.041705 -219.118501 
L 242.232092 -219.118501 
L 241.42248 -219.118501 
L 240.612868 -219.118501 
L 239.803255 -219.118501 
L 238.993643 -219.118501 
L 238.184031 -219.118501 
L 237.374418 -219.118501 
L 236.564806 -219.118501 
L 235.755194 -219.118501 
L 234.945582 -219.118501 
L 234.135969 -219.118501 
L 233.326357 -219.118501 
L 232.516745 -219.118501 
L 231.707132 -219.118501 
L 230.89752 -219.118501 
L 230.087908 -219.118501 
L 229.278295 -219.118501 
L 228.468683 -219.118501 
L 227.659071 -219.118501 
L 226.849458 -219.118501 
L 226.039846 -219.118501 
L 225.230234 -219.118501 
L 224.420621 -219.118501 
L 223.611009 -219.118501 
L 222.801397 -219.118501 
L 221.991784 -219.118501 
L 221.182172 -219.118501 
L 220.37256 -219.118501 
L 219.562947 -219.118501 
L 218.753335 -219.118501 
L 217.943723 -219.118501 
L 217.13411 -219.118501 
L 216.324498 -219.118501 
L 215.514886 -219.118501 
L 214.705273 -219.118501 
L 213.895661 -219.118501 
L 213.086049 -219.118501 
L 212.276436 -219.118501 
L 211.466824 -219.118501 
L 210.657212 -219.118501 
L 209.847599 -219.118501 
L 209.037987 -219.118501 
L 208.228375 -219.118501 
L 207.418762 -219.118501 
L 206.60915 -219.118501 
L 205.799538 -219.118501 
L 204.989925 -219.118501 
L 204.180313 -219.118501 
L 203.370701 -219.118501 
L 202.561088 -219.118501 
L 201.751476 -219.118501 
L 200.941864 -219.118501 
L 200.132251 -219.118501 
L 199.322639 -219.118501 
L 198.513027 -219.118501 
L 197.703414 -219.118501 
L 196.893802 -219.118501 
L 196.08419 -219.118501 
L 195.274577 -219.118501 
L 194.464965 -219.118501 
L 193.655353 -219.118501 
L 192.84574 -219.118501 
L 192.036128 -219.118501 
L 191.226516 -219.118501 
L 190.416903 -219.118501 
L 189.607291 -219.118501 
L 188.797679 -219.118501 
L 187.988066 -219.118501 
L 187.178454 -219.118501 
L 186.368842 -219.118501 
L 185.559229 -219.118501 
L 184.749617 -219.118501 
L 183.940005 -219.118501 
L 183.130392 -219.118501 
L 182.32078 -219.118501 
L 181.511168 -219.118501 
L 180.701555 -219.118501 
L 179.891943 -219.118501 
L 179.082331 -219.118501 
L 178.272718 -219.118501 
L 177.463106 -219.118501 
L 176.653494 -219.118501 
L 175.843881 -219.118501 
L 175.034269 -219.118501 
L 174.224657 -219.118501 
L 173.415044 -219.118501 
L 172.605432 -219.118501 
L 171.79582 -219.118501 
L 170.986207 -219.118501 
L 170.176595 -219.118501 
L 169.366983 -219.118501 
L 168.55737 -219.118501 
L 167.747758 -219.118501 
L 166.938146 -219.118501 
L 166.128533 -219.118501 
L 165.318921 -219.118501 
L 164.509309 -219.118501 
L 163.699696 -219.118501 
L 162.890084 -219.118501 
L 162.080472 -219.118501 
L 161.270859 -219.118501 
L 160.461247 -219.118501 
L 159.651635 -219.118501 
L 158.842022 -219.118501 
L 158.03241 -219.118501 
L 157.222798 -219.118501 
L 156.413185 -219.118501 
L 155.603573 -219.118501 
L 154.793961 -219.118501 
L 153.984348 -219.118501 
L 153.174736 -219.118501 
L 152.365124 -219.118501 
L 151.555511 -219.118501 
L 150.745899 -219.118501 
L 149.936287 -219.118501 
L 149.126674 -219.118501 
L 148.317062 -219.118501 
L 147.50745 -219.118501 
L 146.697837 -219.118501 
L 145.888225 -219.118501 
L 145.078613 -219.118501 
L 144.269 -219.118501 
L 143.459388 -219.118501 
L 142.649776 -219.118501 
L 141.840163 -219.118501 
L 141.030551 -219.118501 
L 140.220939 -219.118501 
L 139.411326 -219.118501 
L 138.601714 -219.118501 
L 137.792102 -219.118501 
L 136.982489 -219.118501 
L 136.172877 -219.118501 
L 135.363265 -219.118501 
L 134.553652 -219.118501 
L 133.74404 -219.118501 
L 132.934428 -219.118501 
L 132.124815 -219.118501 
L 131.315203 -219.118501 
L 130.505591 -219.118501 
L 129.695978 -219.118501 
L 128.886366 -219.118501 
L 128.076754 -219.118501 
L 127.267141 -219.118501 
L 126.457529 -219.118501 
L 125.647917 -219.118501 
L 124.838304 -219.118501 
L 124.028692 -219.118501 
L 123.21908 -219.118501 
L 122.409467 -219.118501 
L 121.599855 -219.118501 
L 120.790243 -219.118501 
L 119.98063 -219.118501 
L 119.171018 -219.118501 
L 118.361406 -219.118501 
L 117.551793 -219.118501 
L 116.742181 -219.118501 
L 115.932569 -219.118501 
L 115.122956 -219.118501 
L 114.313344 -219.118501 
L 113.503732 -219.118501 
L 112.694119 -219.118501 
L 111.884507 -219.118501 
L 111.074895 -219.118501 
L 110.265282 -219.118501 
L 109.45567 -219.118501 
L 108.646058 -219.118501 
L 107.836445 -219.118501 
L 107.026833 -219.118501 
L 106.217221 -219.118501 
L 105.407608 -219.118501 
L 104.597996 -219.118501 
L 103.788384 -219.118501 
L 102.978771 -219.118501 
L 102.169159 -219.118501 
L 101.359547 -219.118501 
L 100.549934 -219.118501 
L 99.740322 -219.118501 
L 98.93071 -219.118501 
L 98.121097 -219.118501 
L 97.311485 -219.118501 
L 96.501873 -219.118501 
L 95.69226 -219.118501 
L 94.882648 -219.118501 
L 94.073036 -219.118501 
L 93.263423 -219.118501 
L 92.453811 -219.118501 
L 91.644199 -219.118501 
L 90.834586 -219.118501 
L 90.024974 -219.118501 
L 89.215362 -219.118501 
L 88.405749 -219.118501 
L 87.596137 -219.118501 
L 86.786525 -219.118501 
L 85.976912 -219.118501 
L 85.1673 -219.118501 
L 84.357688 -219.118501 
L 83.548075 -219.118501 
L 82.738463 -219.118501 
L 81.928851 -219.118501 
L 81.119238 -219.118501 
L 80.309626 -219.118501 
L 79.500014 -219.118501 
L 78.690401 -219.118501 
L 77.880789 -219.118501 
L 77.071177 -219.118501 
L 76.261564 -219.118501 
L 75.451952 -219.118501 
L 74.64234 -219.118501 
L 73.832727 -219.118501 
z
" id="m1b7aa60f39" style="stroke:#4b0082;stroke-opacity:0.3;"/>
    </defs>
    <g clip-path="url(#p4ecda90880)">
     <use style="fill:#4b0082;fill-opacity:0.3;stroke:#4b0082;stroke-opacity:0.3;" x="0" xlink:href="#m1b7aa60f39" y="345.6"/>
    </g>
   </g>
   <g id="matplotlib.axis_1">
    <g id="xtick_1">
     <g id="line2d_1">
      <defs>
       <path d="M 0 0 
L 0 3.5 
" id="m816ac46def" style="stroke:#000000;stroke-width:0.8;"/>
      </defs>
      <g>
       <use style="stroke:#000000;stroke-width:0.8;" x="73.832727" xlink:href="#m816ac46def" y="307.584"/>
      </g>
     </g>
     <g id="text_1">
      <!-- 2020-01 -->
      <g transform="translate(52.941321 322.182437)scale(0.1 -0.1)">
       <defs>
        <path d="M 19.1875 8.296875 
L 53.609375 8.296875 
L 53.609375 0 
L 7.328125 0 
L 7.328125 8.296875 
Q 12.9375 14.109375 22.625 23.890625 
Q 32.328125 33.6875 34.8125 36.53125 
Q 39.546875 41.84375 41.421875 45.53125 
Q 43.3125 49.21875 43.3125 52.78125 
Q 43.3125 58.59375 39.234375 62.25 
Q 35.15625 65.921875 28.609375 65.921875 
Q 23.96875 65.921875 18.8125 64.3125 
Q 13.671875 62.703125 7.8125 59.421875 
L 7.8125 69.390625 
Q 13.765625 71.78125 18.9375 73 
Q 24.125 74.21875 28.421875 74.21875 
Q 39.75 74.21875 46.484375 68.546875 
Q 53.21875 62.890625 53.21875 53.421875 
Q 53.21875 48.921875 51.53125 44.890625 
Q 49.859375 40.875 45.40625 35.40625 
Q 44.1875 33.984375 37.640625 27.21875 
Q 31.109375 20.453125 19.1875 8.296875 
z
" id="DejaVuSans-50"/>
        <path d="M 31.78125 66.40625 
Q 24.171875 66.40625 20.328125 58.90625 
Q 16.5 51.421875 16.5 36.375 
Q 16.5 21.390625 20.328125 13.890625 
Q 24.171875 6.390625 31.78125 6.390625 
Q 39.453125 6.390625 43.28125 13.890625 
Q 47.125 21.390625 47.125 36.375 
Q 47.125 51.421875 43.28125 58.90625 
Q 39.453125 66.40625 31.78125 66.40625 
z
M 31.78125 74.21875 
Q 44.046875 74.21875 50.515625 64.515625 
Q 56.984375 54.828125 56.984375 36.375 
Q 56.984375 17.96875 50.515625 8.265625 
Q 44.046875 -1.421875 31.78125 -1.421875 
Q 19.53125 -1.421875 13.0625 8.265625 
Q 6.59375 17.96875 6.59375 36.375 
Q 6.59375 54.828125 13.0625 64.515625 
Q 19.53125 74.21875 31.78125 74.21875 
z
" id="DejaVuSans-48"/>
        <path d="M 4.890625 31.390625 
L 31.203125 31.390625 
L 31.203125 23.390625 
L 4.890625 23.390625 
z
" id="DejaVuSans-45"/>
        <path d="M 12.40625 8.296875 
L 28.515625 8.296875 
L 28.515625 63.921875 
L 10.984375 60.40625 
L 10.984375 69.390625 
L 28.421875 72.90625 
L 38.28125 72.90625 
L 38.28125 8.296875 
L 54.390625 8.296875 
L 54.390625 0 
L 12.40625 0 
z
" id="DejaVuSans-49"/>
       </defs>
       <use xlink:href="#DejaVuSans-50"/>
       <use x="63.623047" xlink:href="#DejaVuSans-48"/>
       <use x="127.246094" xlink:href="#DejaVuSans-50"/>
       <use x="190.869141" xlink:href="#DejaVuSans-48"/>
       <use x="254.492188" xlink:href="#DejaVuSans-45"/>
       <use x="290.576172" xlink:href="#DejaVuSans-48"/>
       <use x="354.199219" xlink:href="#DejaVuSans-49"/>
      </g>
     </g>
    </g>
    <g id="xtick_2">
     <g id="line2d_2">
      <g>
       <use style="stroke:#000000;stroke-width:0.8;" x="122.409467" xlink:href="#m816ac46def" y="307.584"/>
      </g>
     </g>
     <g id="text_2">
      <!-- 2020-03 -->
      <g transform="translate(101.518061 322.182437)scale(0.1 -0.1)">
       <defs>
        <path d="M 40.578125 39.3125 
Q 47.65625 37.796875 51.625 33 
Q 55.609375 28.21875 55.609375 21.1875 
Q 55.609375 10.40625 48.1875 4.484375 
Q 40.765625 -1.421875 27.09375 -1.421875 
Q 22.515625 -1.421875 17.65625 -0.515625 
Q 12.796875 0.390625 7.625 2.203125 
L 7.625 11.71875 
Q 11.71875 9.328125 16.59375 8.109375 
Q 21.484375 6.890625 26.8125 6.890625 
Q 36.078125 6.890625 40.9375 10.546875 
Q 45.796875 14.203125 45.796875 21.1875 
Q 45.796875 27.640625 41.28125 31.265625 
Q 36.765625 34.90625 28.71875 34.90625 
L 20.21875 34.90625 
L 20.21875 43.015625 
L 29.109375 43.015625 
Q 36.375 43.015625 40.234375 45.921875 
Q 44.09375 48.828125 44.09375 54.296875 
Q 44.09375 59.90625 40.109375 62.90625 
Q 36.140625 65.921875 28.71875 65.921875 
Q 24.65625 65.921875 20.015625 65.03125 
Q 15.375 64.15625 9.8125 62.3125 
L 9.8125 71.09375 
Q 15.4375 72.65625 20.34375 73.4375 
Q 25.25 74.21875 29.59375 74.21875 
Q 40.828125 74.21875 47.359375 69.109375 
Q 53.90625 64.015625 53.90625 55.328125 
Q 53.90625 49.265625 50.4375 45.09375 
Q 46.96875 40.921875 40.578125 39.3125 
z
" id="DejaVuSans-51"/>
       </defs>
       <use xlink:href="#DejaVuSans-50"/>
       <use x="63.623047" xlink:href="#DejaVuSans-48"/>
       <use x="127.246094" xlink:href="#DejaVuSans-50"/>
       <use x="190.869141" xlink:href="#DejaVuSans-48"/>
       <use x="254.492188" xlink:href="#DejaVuSans-45"/>
       <use x="290.576172" xlink:href="#DejaVuSans-48"/>
       <use x="354.199219" xlink:href="#DejaVuSans-51"/>
      </g>
     </g>
    </g>
    <g id="xtick_3">
     <g id="line2d_3">
      <g>
       <use style="stroke:#000000;stroke-width:0.8;" x="171.79582" xlink:href="#m816ac46def" y="307.584"/>
      </g>
     </g>
     <g id="text_3">
      <!-- 2020-05 -->
      <g transform="translate(150.904413 322.182437)scale(0.1 -0.1)">
       <defs>
        <path d="M 10.796875 72.90625 
L 49.515625 72.90625 
L 49.515625 64.59375 
L 19.828125 64.59375 
L 19.828125 46.734375 
Q 21.96875 47.46875 24.109375 47.828125 
Q 26.265625 48.1875 28.421875 48.1875 
Q 40.625 48.1875 47.75 41.5 
Q 54.890625 34.8125 54.890625 23.390625 
Q 54.890625 11.625 47.5625 5.09375 
Q 40.234375 -1.421875 26.90625 -1.421875 
Q 22.3125 -1.421875 17.546875 -0.640625 
Q 12.796875 0.140625 7.71875 1.703125 
L 7.71875 11.625 
Q 12.109375 9.234375 16.796875 8.0625 
Q 21.484375 6.890625 26.703125 6.890625 
Q 35.15625 6.890625 40.078125 11.328125 
Q 45.015625 15.765625 45.015625 23.390625 
Q 45.015625 31 40.078125 35.4375 
Q 35.15625 39.890625 26.703125 39.890625 
Q 22.75 39.890625 18.8125 39.015625 
Q 14.890625 38.140625 10.796875 36.28125 
z
" id="DejaVuSans-53"/>
       </defs>
       <use xlink:href="#DejaVuSans-50"/>
       <use x="63.623047" xlink:href="#DejaVuSans-48"/>
       <use x="127.246094" xlink:href="#DejaVuSans-50"/>
       <use x="190.869141" xlink:href="#DejaVuSans-48"/>
       <use x="254.492188" xlink:href="#DejaVuSans-45"/>
       <use x="290.576172" xlink:href="#DejaVuSans-48"/>
       <use x="354.199219" xlink:href="#DejaVuSans-53"/>
      </g>
     </g>
    </g>
    <g id="xtick_4">
     <g id="line2d_4">
      <g>
       <use style="stroke:#000000;stroke-width:0.8;" x="221.182172" xlink:href="#m816ac46def" y="307.584"/>
      </g>
     </g>
     <g id="text_4">
      <!-- 2020-07 -->
      <g transform="translate(200.290766 322.182437)scale(0.1 -0.1)">
       <defs>
        <path d="M 8.203125 72.90625 
L 55.078125 72.90625 
L 55.078125 68.703125 
L 28.609375 0 
L 18.3125 0 
L 43.21875 64.59375 
L 8.203125 64.59375 
z
" id="DejaVuSans-55"/>
       </defs>
       <use xlink:href="#DejaVuSans-50"/>
       <use x="63.623047" xlink:href="#DejaVuSans-48"/>
       <use x="127.246094" xlink:href="#DejaVuSans-50"/>
       <use x="190.869141" xlink:href="#DejaVuSans-48"/>
       <use x="254.492188" xlink:href="#DejaVuSans-45"/>
       <use x="290.576172" xlink:href="#DejaVuSans-48"/>
       <use x="354.199219" xlink:href="#DejaVuSans-55"/>
      </g>
     </g>
    </g>
    <g id="xtick_5">
     <g id="line2d_5">
      <g>
       <use style="stroke:#000000;stroke-width:0.8;" x="271.378136" xlink:href="#m816ac46def" y="307.584"/>
      </g>
     </g>
     <g id="text_5">
      <!-- 2020-09 -->
      <g transform="translate(250.48673 322.182437)scale(0.1 -0.1)">
       <defs>
        <path d="M 10.984375 1.515625 
L 10.984375 10.5 
Q 14.703125 8.734375 18.5 7.8125 
Q 22.3125 6.890625 25.984375 6.890625 
Q 35.75 6.890625 40.890625 13.453125 
Q 46.046875 20.015625 46.78125 33.40625 
Q 43.953125 29.203125 39.59375 26.953125 
Q 35.25 24.703125 29.984375 24.703125 
Q 19.046875 24.703125 12.671875 31.3125 
Q 6.296875 37.9375 6.296875 49.421875 
Q 6.296875 60.640625 12.9375 67.421875 
Q 19.578125 74.21875 30.609375 74.21875 
Q 43.265625 74.21875 49.921875 64.515625 
Q 56.59375 54.828125 56.59375 36.375 
Q 56.59375 19.140625 48.40625 8.859375 
Q 40.234375 -1.421875 26.421875 -1.421875 
Q 22.703125 -1.421875 18.890625 -0.6875 
Q 15.09375 0.046875 10.984375 1.515625 
z
M 30.609375 32.421875 
Q 37.25 32.421875 41.125 36.953125 
Q 45.015625 41.5 45.015625 49.421875 
Q 45.015625 57.28125 41.125 61.84375 
Q 37.25 66.40625 30.609375 66.40625 
Q 23.96875 66.40625 20.09375 61.84375 
Q 16.21875 57.28125 16.21875 49.421875 
Q 16.21875 41.5 20.09375 36.953125 
Q 23.96875 32.421875 30.609375 32.421875 
z
" id="DejaVuSans-57"/>
       </defs>
       <use xlink:href="#DejaVuSans-50"/>
       <use x="63.623047" xlink:href="#DejaVuSans-48"/>
       <use x="127.246094" xlink:href="#DejaVuSans-50"/>
       <use x="190.869141" xlink:href="#DejaVuSans-48"/>
       <use x="254.492188" xlink:href="#DejaVuSans-45"/>
       <use x="290.576172" xlink:href="#DejaVuSans-48"/>
       <use x="354.199219" xlink:href="#DejaVuSans-57"/>
      </g>
     </g>
    </g>
    <g id="xtick_6">
     <g id="line2d_6">
      <g>
       <use style="stroke:#000000;stroke-width:0.8;" x="320.764489" xlink:href="#m816ac46def" y="307.584"/>
      </g>
     </g>
     <g id="text_6">
      <!-- 2020-11 -->
      <g transform="translate(299.873083 322.182437)scale(0.1 -0.1)">
       <use xlink:href="#DejaVuSans-50"/>
       <use x="63.623047" xlink:href="#DejaVuSans-48"/>
       <use x="127.246094" xlink:href="#DejaVuSans-50"/>
       <use x="190.869141" xlink:href="#DejaVuSans-48"/>
       <use x="254.492188" xlink:href="#DejaVuSans-45"/>
       <use x="290.576172" xlink:href="#DejaVuSans-49"/>
       <use x="354.199219" xlink:href="#DejaVuSans-49"/>
      </g>
     </g>
    </g>
    <g id="xtick_7">
     <g id="line2d_7">
      <g>
       <use style="stroke:#000000;stroke-width:0.8;" x="370.150841" xlink:href="#m816ac46def" y="307.584"/>
      </g>
     </g>
     <g id="text_7">
      <!-- 2021-01 -->
      <g transform="translate(349.259435 322.182437)scale(0.1 -0.1)">
       <use xlink:href="#DejaVuSans-50"/>
       <use x="63.623047" xlink:href="#DejaVuSans-48"/>
       <use x="127.246094" xlink:href="#DejaVuSans-50"/>
       <use x="190.869141" xlink:href="#DejaVuSans-49"/>
       <use x="254.492188" xlink:href="#DejaVuSans-45"/>
       <use x="290.576172" xlink:href="#DejaVuSans-48"/>
       <use x="354.199219" xlink:href="#DejaVuSans-49"/>
      </g>
     </g>
    </g>
   </g>
   <g id="matplotlib.axis_2">
    <g id="ytick_1">
     <g id="line2d_8">
      <defs>
       <path d="M 0 0 
L -3.5 0 
" id="m29325a168b" style="stroke:#000000;stroke-width:0.8;"/>
      </defs>
      <g>
       <use style="stroke:#000000;stroke-width:0.8;" x="57.6" xlink:href="#m29325a168b" y="307.584"/>
      </g>
     </g>
     <g id="text_8">
      <!-- 0 -->
      <g transform="translate(44.2375 311.383219)scale(0.1 -0.1)">
       <use xlink:href="#DejaVuSans-48"/>
      </g>
     </g>
    </g>
    <g id="ytick_2">
     <g id="line2d_9">
      <g>
       <use style="stroke:#000000;stroke-width:0.8;" x="57.6" xlink:href="#m29325a168b" y="255.840428"/>
      </g>
     </g>
     <g id="text_9">
      <!-- 20 -->
      <g transform="translate(37.875 259.639647)scale(0.1 -0.1)">
       <use xlink:href="#DejaVuSans-50"/>
       <use x="63.623047" xlink:href="#DejaVuSans-48"/>
      </g>
     </g>
    </g>
    <g id="ytick_3">
     <g id="line2d_10">
      <g>
       <use style="stroke:#000000;stroke-width:0.8;" x="57.6" xlink:href="#m29325a168b" y="204.096857"/>
      </g>
     </g>
     <g id="text_10">
      <!-- 40 -->
      <g transform="translate(37.875 207.896076)scale(0.1 -0.1)">
       <defs>
        <path d="M 37.796875 64.3125 
L 12.890625 25.390625 
L 37.796875 25.390625 
z
M 35.203125 72.90625 
L 47.609375 72.90625 
L 47.609375 25.390625 
L 58.015625 25.390625 
L 58.015625 17.1875 
L 47.609375 17.1875 
L 47.609375 0 
L 37.796875 0 
L 37.796875 17.1875 
L 4.890625 17.1875 
L 4.890625 26.703125 
z
" id="DejaVuSans-52"/>
       </defs>
       <use xlink:href="#DejaVuSans-52"/>
       <use x="63.623047" xlink:href="#DejaVuSans-48"/>
      </g>
     </g>
    </g>
    <g id="ytick_4">
     <g id="line2d_11">
      <g>
       <use style="stroke:#000000;stroke-width:0.8;" x="57.6" xlink:href="#m29325a168b" y="152.353285"/>
      </g>
     </g>
     <g id="text_11">
      <!-- 60 -->
      <g transform="translate(37.875 156.152504)scale(0.1 -0.1)">
       <defs>
        <path d="M 33.015625 40.375 
Q 26.375 40.375 22.484375 35.828125 
Q 18.609375 31.296875 18.609375 23.390625 
Q 18.609375 15.53125 22.484375 10.953125 
Q 26.375 6.390625 33.015625 6.390625 
Q 39.65625 6.390625 43.53125 10.953125 
Q 47.40625 15.53125 47.40625 23.390625 
Q 47.40625 31.296875 43.53125 35.828125 
Q 39.65625 40.375 33.015625 40.375 
z
M 52.59375 71.296875 
L 52.59375 62.3125 
Q 48.875 64.0625 45.09375 64.984375 
Q 41.3125 65.921875 37.59375 65.921875 
Q 27.828125 65.921875 22.671875 59.328125 
Q 17.53125 52.734375 16.796875 39.40625 
Q 19.671875 43.65625 24.015625 45.921875 
Q 28.375 48.1875 33.59375 48.1875 
Q 44.578125 48.1875 50.953125 41.515625 
Q 57.328125 34.859375 57.328125 23.390625 
Q 57.328125 12.15625 50.6875 5.359375 
Q 44.046875 -1.421875 33.015625 -1.421875 
Q 20.359375 -1.421875 13.671875 8.265625 
Q 6.984375 17.96875 6.984375 36.375 
Q 6.984375 53.65625 15.1875 63.9375 
Q 23.390625 74.21875 37.203125 74.21875 
Q 40.921875 74.21875 44.703125 73.484375 
Q 48.484375 72.75 52.59375 71.296875 
z
" id="DejaVuSans-54"/>
       </defs>
       <use xlink:href="#DejaVuSans-54"/>
       <use x="63.623047" xlink:href="#DejaVuSans-48"/>
      </g>
     </g>
    </g>
    <g id="ytick_5">
     <g id="line2d_12">
      <g>
       <use style="stroke:#000000;stroke-width:0.8;" x="57.6" xlink:href="#m29325a168b" y="100.609714"/>
      </g>
     </g>
     <g id="text_12">
      <!-- 80 -->
      <g transform="translate(37.875 104.408932)scale(0.1 -0.1)">
       <defs>
        <path d="M 31.78125 34.625 
Q 24.75 34.625 20.71875 30.859375 
Q 16.703125 27.09375 16.703125 20.515625 
Q 16.703125 13.921875 20.71875 10.15625 
Q 24.75 6.390625 31.78125 6.390625 
Q 38.8125 6.390625 42.859375 10.171875 
Q 46.921875 13.96875 46.921875 20.515625 
Q 46.921875 27.09375 42.890625 30.859375 
Q 38.875 34.625 31.78125 34.625 
z
M 21.921875 38.8125 
Q 15.578125 40.375 12.03125 44.71875 
Q 8.5 49.078125 8.5 55.328125 
Q 8.5 64.0625 14.71875 69.140625 
Q 20.953125 74.21875 31.78125 74.21875 
Q 42.671875 74.21875 48.875 69.140625 
Q 55.078125 64.0625 55.078125 55.328125 
Q 55.078125 49.078125 51.53125 44.71875 
Q 48 40.375 41.703125 38.8125 
Q 48.828125 37.15625 52.796875 32.3125 
Q 56.78125 27.484375 56.78125 20.515625 
Q 56.78125 9.90625 50.3125 4.234375 
Q 43.84375 -1.421875 31.78125 -1.421875 
Q 19.734375 -1.421875 13.25 4.234375 
Q 6.78125 9.90625 6.78125 20.515625 
Q 6.78125 27.484375 10.78125 32.3125 
Q 14.796875 37.15625 21.921875 38.8125 
z
M 18.3125 54.390625 
Q 18.3125 48.734375 21.84375 45.5625 
Q 25.390625 42.390625 31.78125 42.390625 
Q 38.140625 42.390625 41.71875 45.5625 
Q 45.3125 48.734375 45.3125 54.390625 
Q 45.3125 60.0625 41.71875 63.234375 
Q 38.140625 66.40625 31.78125 66.40625 
Q 25.390625 66.40625 21.84375 63.234375 
Q 18.3125 60.0625 18.3125 54.390625 
z
" id="DejaVuSans-56"/>
       </defs>
       <use xlink:href="#DejaVuSans-56"/>
       <use x="63.623047" xlink:href="#DejaVuSans-48"/>
      </g>
     </g>
    </g>
    <g id="ytick_6">
     <g id="line2d_13">
      <g>
       <use style="stroke:#000000;stroke-width:0.8;" x="57.6" xlink:href="#m29325a168b" y="48.866142"/>
      </g>
     </g>
     <g id="text_13">
      <!-- 100 -->
      <g transform="translate(31.5125 52.665361)scale(0.1 -0.1)">
       <use xlink:href="#DejaVuSans-49"/>
       <use x="63.623047" xlink:href="#DejaVuSans-48"/>
       <use x="127.246094" xlink:href="#DejaVuSans-48"/>
      </g>
     </g>
    </g>
   </g>
   <g id="line2d_14">
    <path clip-path="url(#p4ecda90880)" d="M 86.786525 109.456246 
L 87.596137 108.007165 
L 88.405749 113.682392 
L 89.215362 123.075642 
L 90.024974 136.071545 
L 90.834586 143.692865 
L 91.644199 147.168069 
L 93.263423 156.440143 
L 94.073036 158.067917 
L 94.882648 148.694506 
L 95.69226 143.810456 
L 96.501873 143.144732 
L 97.311485 143.329311 
L 98.121097 146.721602 
L 98.93071 147.177543 
L 99.740322 149.366892 
L 100.549934 144.942928 
L 101.359547 145.114691 
L 102.169159 141.592445 
L 102.978771 130.927074 
L 103.788384 116.013097 
L 104.597996 104.807671 
L 105.407608 101.390263 
L 106.217221 108.552096 
L 107.026833 119.897928 
L 107.836445 127.81617 
L 108.646058 130.682775 
L 109.45567 127.032289 
L 110.265282 137.61426 
L 111.074895 141.403967 
L 111.884507 154.156785 
L 112.694119 148.797381 
L 113.503732 158.6351 
L 114.313344 166.815616 
L 115.122956 181.874853 
L 115.932569 184.705715 
L 116.742181 185.292996 
L 117.551793 186.296717 
L 118.361406 196.080495 
L 119.98063 226.802689 
L 120.790243 234.064675 
L 121.599855 233.740089 
L 122.409467 235.101983 
L 123.21908 224.909545 
L 124.028692 226.708614 
L 124.838304 222.550091 
L 125.647917 220.951465 
L 126.457529 209.256247 
L 127.267141 205.804933 
L 128.886366 234.759467 
L 129.695978 243.873993 
L 130.505591 234.588673 
L 131.315203 242.578197 
L 132.124815 243.991502 
L 132.934428 252.290879 
L 133.74404 242.777003 
L 134.553652 246.775078 
L 135.363265 246.450289 
L 136.172877 247.143834 
L 136.982489 238.881511 
L 138.601714 230.099956 
L 139.411326 227.859496 
L 140.220939 218.961451 
L 141.030551 208.808689 
L 141.840163 201.280792 
L 142.649776 174.33578 
L 144.269 134.815286 
L 145.078613 146.915302 
L 145.888225 143.916972 
L 146.697837 144.311529 
L 147.50745 137.076963 
L 148.317062 144.924047 
L 149.936287 155.908112 
L 151.555511 147.256929 
L 152.365124 146.649353 
L 153.174736 149.490348 
L 153.984348 151.429202 
L 154.793961 157.192329 
L 155.603573 158.214465 
L 156.413185 148.679235 
L 157.222798 148.242563 
L 158.03241 149.69363 
L 158.842022 167.11449 
L 159.651635 166.791561 
L 160.461247 168.308783 
L 161.270859 163.600175 
L 162.080472 160.748632 
L 162.890084 173.405021 
L 163.699696 188.056658 
L 164.509309 197.666922 
L 165.318921 187.128983 
L 166.128533 168.66414 
L 166.938146 152.889294 
L 167.747758 147.992431 
L 168.55737 138.491873 
L 169.366983 132.91438 
L 170.176595 113.370236 
L 171.79582 93.001681 
L 172.605432 92.281352 
L 173.415044 92.86379 
L 174.224657 85.399396 
L 175.843881 66.347122 
L 176.653494 65.276147 
L 177.463106 62.861699 
L 178.272718 67.976128 
L 179.891943 124.717557 
L 180.701555 147.867133 
L 181.511168 148.698179 
L 182.32078 151.869227 
L 183.940005 156.588421 
L 184.749617 155.878929 
L 185.559229 155.58419 
L 186.368842 153.192589 
L 187.178454 157.140982 
L 187.988066 165.271765 
L 188.797679 181.692139 
L 189.607291 192.849739 
L 190.416903 180.813684 
L 191.226516 173.816055 
L 192.036128 165.596834 
L 192.84574 180.403796 
L 193.655353 186.436928 
L 194.464965 190.018518 
L 195.274577 185.356085 
L 196.08419 182.70584 
L 196.893802 182.882752 
L 197.703414 178.259213 
L 198.513027 176.206032 
L 200.132251 167.196265 
L 200.941864 157.241794 
L 201.751476 154.318405 
L 203.370701 142.945968 
L 204.180313 135.638502 
L 204.989925 140.666463 
L 205.799538 153.534644 
L 206.60915 169.140905 
L 207.418762 182.094673 
L 208.228375 189.51345 
L 209.037987 198.779885 
L 209.847599 199.257282 
L 210.657212 194.213293 
L 211.466824 196.685694 
L 212.276436 203.770782 
L 213.086049 209.54051 
L 214.705273 194.687781 
L 215.514886 192.655411 
L 216.324498 197.966672 
L 217.13411 204.882794 
L 217.943723 206.137962 
L 218.753335 204.089456 
L 219.562947 196.248048 
L 220.37256 200.373741 
L 221.182172 200.539822 
L 221.991784 207.266367 
L 222.801397 202.257035 
L 223.611009 199.727357 
L 224.420621 200.967909 
L 225.230234 204.329895 
L 226.039846 208.376759 
L 226.849458 208.150879 
L 227.659071 193.294158 
L 229.278295 168.075781 
L 230.087908 161.819217 
L 230.89752 153.612193 
L 231.707132 155.132608 
L 232.516745 164.322028 
L 233.326357 176.570009 
L 234.135969 177.828911 
L 234.945582 177.868719 
L 235.755194 170.924628 
L 236.564806 173.018364 
L 237.374418 178.565703 
L 238.184031 178.694838 
L 238.993643 173.201101 
L 239.803255 148.074804 
L 241.42248 113.327672 
L 242.232092 104.137174 
L 243.041705 85.112173 
L 243.851317 69.360709 
L 244.660929 57.659375 
L 246.280154 51.510994 
L 247.089766 54.507085 
L 249.518603 74.18635 
L 250.328216 74.742322 
L 251.137828 75.588464 
L 251.94744 80.909295 
L 252.757053 87.764958 
L 253.566665 95.956271 
L 254.376277 107.806111 
L 255.18589 130.04332 
L 255.995502 148.980224 
L 256.805114 154.768101 
L 257.614727 152.296074 
L 258.424339 150.674506 
L 259.233951 150.147652 
L 260.043564 143.710409 
L 260.853176 144.227816 
L 261.662788 154.492799 
L 262.472401 172.301844 
L 263.282013 179.468345 
L 264.091625 180.794268 
L 264.901238 181.623883 
L 265.71085 189.705501 
L 266.520462 186.952819 
L 267.330075 187.372424 
L 268.139687 185.609151 
L 268.949299 194.461426 
L 269.758912 194.240386 
L 270.568524 192.525832 
L 271.378136 192.460243 
L 272.187749 190.72136 
L 272.997361 196.920259 
L 273.806973 207.362804 
L 274.616586 221.031869 
L 275.426198 229.998898 
L 276.23581 232.390733 
L 277.045423 230.225984 
L 277.855035 229.756841 
L 278.664647 221.583709 
L 279.47426 221.201517 
L 280.283872 216.732807 
L 281.093484 221.93768 
L 281.903097 219.511047 
L 282.712709 219.477522 
L 283.522321 211.631574 
L 284.331934 205.109924 
L 285.141546 179.864005 
L 286.760771 139.846907 
L 287.570383 145.353699 
L 288.379995 152.802861 
L 289.189608 163.366966 
L 289.99922 163.763548 
L 290.808832 161.52303 
L 291.618445 160.23639 
L 292.428057 157.778362 
L 293.237669 160.086595 
L 294.047282 167.178814 
L 294.856894 182.929709 
L 295.666506 194.55466 
L 296.476119 201.810611 
L 297.285731 207.023871 
L 298.095343 204.52098 
L 300.52418 156.995131 
L 301.333793 155.894985 
L 302.143405 146.289779 
L 302.953017 142.695686 
L 303.76263 133.832449 
L 304.572242 127.038772 
L 305.381854 125.579819 
L 306.191467 124.396033 
L 307.001079 118.437289 
L 307.810691 116.882163 
L 308.620304 115.065446 
L 309.429916 118.403023 
L 310.239528 115.126626 
L 311.049141 105.479896 
L 311.858753 92.343634 
L 312.668365 81.163107 
L 313.477978 79.446497 
L 314.28759 82.002777 
L 315.097202 87.223501 
L 315.906815 91.261687 
L 316.716427 89.121265 
L 317.526039 92.644038 
L 318.335652 94.731285 
L 319.145264 98.246655 
L 319.954876 92.452401 
L 320.764489 88.548919 
L 321.574101 94.511443 
L 322.383713 99.57984 
L 323.193326 108.110126 
L 324.002938 104.336648 
L 324.81255 101.415668 
L 325.622163 105.963083 
L 326.431775 113.044314 
L 327.241387 122.883031 
L 328.051 123.728774 
L 328.860612 122.20836 
L 329.670224 117.014918 
L 330.479837 108.863555 
L 331.289449 111.695353 
L 332.099061 117.088974 
L 332.908674 116.836123 
L 334.527898 104.008653 
L 335.337511 107.774346 
L 336.147123 109.499318 
L 337.766348 93.220832 
L 338.57596 87.210871 
L 339.385572 89.031958 
L 340.195185 91.999053 
L 341.814409 141.549712 
L 342.624022 155.342113 
L 343.433634 147.491273 
L 344.243246 136.357884 
L 345.052859 140.993695 
L 345.862471 147.123261 
L 346.672083 155.306656 
L 347.481696 161.762899 
L 348.291308 167.287716 
L 349.10092 171.085252 
L 349.910533 166.971957 
L 351.529757 179.220116 
L 352.33937 176.862633 
L 353.148982 167.598731 
L 353.958594 160.683197 
L 354.768207 161.497713 
L 355.577819 169.654913 
L 356.387431 170.517267 
L 357.197044 162.740037 
L 358.816268 121.714129 
L 359.625881 109.305919 
L 360.435493 105.19351 
L 361.245105 112.60229 
L 362.054718 111.291761 
L 362.86433 111.173817 
L 363.673942 103.718059 
L 364.483555 102.246033 
L 365.293167 94.559326 
L 366.102779 91.849508 
L 366.912392 91.438408 
L 367.722004 92.132171 
L 368.531616 91.52515 
L 370.150841 96.136169 
L 370.960453 95.152871 
L 371.770066 89.085125 
L 372.579678 84.822441 
L 373.38929 82.579746 
L 374.198903 78.684972 
L 375.818127 66.865659 
L 376.62774 68.470013 
L 377.437352 78.474453 
L 379.056577 120.145569 
L 379.866189 132.012818 
L 380.675801 132.169604 
L 381.485414 133.731492 
L 382.295026 142.66364 
L 383.104638 155.058666 
L 384.723863 161.522993 
L 385.533475 169.207446 
L 386.343088 193.833582 
L 387.1527 211.17803 
L 387.962312 222.86618 
L 388.771925 217.797716 
L 389.581537 211.007549 
L 390.391149 200.150018 
L 392.010374 212.314853 
L 392.819986 215.067673 
L 393.629599 202.294593 
L 394.439211 195.764977 
L 395.248823 197.329854 
L 396.058436 193.792029 
L 396.868048 182.376964 
L 397.67766 157.950934 
L 398.487273 141.976855 
L 398.487273 141.976855 
" style="fill:none;stroke:#ff6347;stroke-linecap:square;stroke-width:1.5;"/>
   </g>
   <g id="patch_3">
    <path d="M 57.6 307.584 
L 57.6 41.472 
" style="fill:none;stroke:#000000;stroke-linecap:square;stroke-linejoin:miter;stroke-width:0.8;"/>
   </g>
   <g id="patch_4">
    <path d="M 414.72 307.584 
L 414.72 41.472 
" style="fill:none;stroke:#000000;stroke-linecap:square;stroke-linejoin:miter;stroke-width:0.8;"/>
   </g>
   <g id="patch_5">
    <path d="M 57.6 307.584 
L 414.72 307.584 
" style="fill:none;stroke:#000000;stroke-linecap:square;stroke-linejoin:miter;stroke-width:0.8;"/>
   </g>
   <g id="patch_6">
    <path d="M 57.6 41.472 
L 414.72 41.472 
" style="fill:none;stroke:#000000;stroke-linecap:square;stroke-linejoin:miter;stroke-width:0.8;"/>
   </g>
   <g id="text_14">
    <!-- Data source: coindesk -->
    <g transform="translate(180.640469 35.472)scale(0.1 -0.1)">
     <defs>
      <path d="M 19.671875 64.796875 
L 19.671875 8.109375 
L 31.59375 8.109375 
Q 46.6875 8.109375 53.6875 14.9375 
Q 60.6875 21.78125 60.6875 36.53125 
Q 60.6875 51.171875 53.6875 57.984375 
Q 46.6875 64.796875 31.59375 64.796875 
z
M 9.8125 72.90625 
L 30.078125 72.90625 
Q 51.265625 72.90625 61.171875 64.09375 
Q 71.09375 55.28125 71.09375 36.53125 
Q 71.09375 17.671875 61.125 8.828125 
Q 51.171875 0 30.078125 0 
L 9.8125 0 
z
" id="DejaVuSans-68"/>
      <path d="M 34.28125 27.484375 
Q 23.390625 27.484375 19.1875 25 
Q 14.984375 22.515625 14.984375 16.5 
Q 14.984375 11.71875 18.140625 8.90625 
Q 21.296875 6.109375 26.703125 6.109375 
Q 34.1875 6.109375 38.703125 11.40625 
Q 43.21875 16.703125 43.21875 25.484375 
L 43.21875 27.484375 
z
M 52.203125 31.203125 
L 52.203125 0 
L 43.21875 0 
L 43.21875 8.296875 
Q 40.140625 3.328125 35.546875 0.953125 
Q 30.953125 -1.421875 24.3125 -1.421875 
Q 15.921875 -1.421875 10.953125 3.296875 
Q 6 8.015625 6 15.921875 
Q 6 25.140625 12.171875 29.828125 
Q 18.359375 34.515625 30.609375 34.515625 
L 43.21875 34.515625 
L 43.21875 35.40625 
Q 43.21875 41.609375 39.140625 45 
Q 35.0625 48.390625 27.6875 48.390625 
Q 23 48.390625 18.546875 47.265625 
Q 14.109375 46.140625 10.015625 43.890625 
L 10.015625 52.203125 
Q 14.9375 54.109375 19.578125 55.046875 
Q 24.21875 56 28.609375 56 
Q 40.484375 56 46.34375 49.84375 
Q 52.203125 43.703125 52.203125 31.203125 
z
" id="DejaVuSans-97"/>
      <path d="M 18.3125 70.21875 
L 18.3125 54.6875 
L 36.8125 54.6875 
L 36.8125 47.703125 
L 18.3125 47.703125 
L 18.3125 18.015625 
Q 18.3125 11.328125 20.140625 9.421875 
Q 21.96875 7.515625 27.59375 7.515625 
L 36.8125 7.515625 
L 36.8125 0 
L 27.59375 0 
Q 17.1875 0 13.234375 3.875 
Q 9.28125 7.765625 9.28125 18.015625 
L 9.28125 47.703125 
L 2.6875 47.703125 
L 2.6875 54.6875 
L 9.28125 54.6875 
L 9.28125 70.21875 
z
" id="DejaVuSans-116"/>
      <path id="DejaVuSans-32"/>
      <path d="M 44.28125 53.078125 
L 44.28125 44.578125 
Q 40.484375 46.53125 36.375 47.5 
Q 32.28125 48.484375 27.875 48.484375 
Q 21.1875 48.484375 17.84375 46.4375 
Q 14.5 44.390625 14.5 40.28125 
Q 14.5 37.15625 16.890625 35.375 
Q 19.28125 33.59375 26.515625 31.984375 
L 29.59375 31.296875 
Q 39.15625 29.25 43.1875 25.515625 
Q 47.21875 21.78125 47.21875 15.09375 
Q 47.21875 7.46875 41.1875 3.015625 
Q 35.15625 -1.421875 24.609375 -1.421875 
Q 20.21875 -1.421875 15.453125 -0.5625 
Q 10.6875 0.296875 5.421875 2 
L 5.421875 11.28125 
Q 10.40625 8.6875 15.234375 7.390625 
Q 20.0625 6.109375 24.8125 6.109375 
Q 31.15625 6.109375 34.5625 8.28125 
Q 37.984375 10.453125 37.984375 14.40625 
Q 37.984375 18.0625 35.515625 20.015625 
Q 33.0625 21.96875 24.703125 23.78125 
L 21.578125 24.515625 
Q 13.234375 26.265625 9.515625 29.90625 
Q 5.8125 33.546875 5.8125 39.890625 
Q 5.8125 47.609375 11.28125 51.796875 
Q 16.75 56 26.8125 56 
Q 31.78125 56 36.171875 55.265625 
Q 40.578125 54.546875 44.28125 53.078125 
z
" id="DejaVuSans-115"/>
      <path d="M 30.609375 48.390625 
Q 23.390625 48.390625 19.1875 42.75 
Q 14.984375 37.109375 14.984375 27.296875 
Q 14.984375 17.484375 19.15625 11.84375 
Q 23.34375 6.203125 30.609375 6.203125 
Q 37.796875 6.203125 41.984375 11.859375 
Q 46.1875 17.53125 46.1875 27.296875 
Q 46.1875 37.015625 41.984375 42.703125 
Q 37.796875 48.390625 30.609375 48.390625 
z
M 30.609375 56 
Q 42.328125 56 49.015625 48.375 
Q 55.71875 40.765625 55.71875 27.296875 
Q 55.71875 13.875 49.015625 6.21875 
Q 42.328125 -1.421875 30.609375 -1.421875 
Q 18.84375 -1.421875 12.171875 6.21875 
Q 5.515625 13.875 5.515625 27.296875 
Q 5.515625 40.765625 12.171875 48.375 
Q 18.84375 56 30.609375 56 
z
" id="DejaVuSans-111"/>
      <path d="M 8.5 21.578125 
L 8.5 54.6875 
L 17.484375 54.6875 
L 17.484375 21.921875 
Q 17.484375 14.15625 20.5 10.265625 
Q 23.53125 6.390625 29.59375 6.390625 
Q 36.859375 6.390625 41.078125 11.03125 
Q 45.3125 15.671875 45.3125 23.6875 
L 45.3125 54.6875 
L 54.296875 54.6875 
L 54.296875 0 
L 45.3125 0 
L 45.3125 8.40625 
Q 42.046875 3.421875 37.71875 1 
Q 33.40625 -1.421875 27.6875 -1.421875 
Q 18.265625 -1.421875 13.375 4.4375 
Q 8.5 10.296875 8.5 21.578125 
z
M 31.109375 56 
z
" id="DejaVuSans-117"/>
      <path d="M 41.109375 46.296875 
Q 39.59375 47.171875 37.8125 47.578125 
Q 36.03125 48 33.890625 48 
Q 26.265625 48 22.1875 43.046875 
Q 18.109375 38.09375 18.109375 28.8125 
L 18.109375 0 
L 9.078125 0 
L 9.078125 54.6875 
L 18.109375 54.6875 
L 18.109375 46.1875 
Q 20.953125 51.171875 25.484375 53.578125 
Q 30.03125 56 36.53125 56 
Q 37.453125 56 38.578125 55.875 
Q 39.703125 55.765625 41.0625 55.515625 
z
" id="DejaVuSans-114"/>
      <path d="M 48.78125 52.59375 
L 48.78125 44.1875 
Q 44.96875 46.296875 41.140625 47.34375 
Q 37.3125 48.390625 33.40625 48.390625 
Q 24.65625 48.390625 19.8125 42.84375 
Q 14.984375 37.3125 14.984375 27.296875 
Q 14.984375 17.28125 19.8125 11.734375 
Q 24.65625 6.203125 33.40625 6.203125 
Q 37.3125 6.203125 41.140625 7.25 
Q 44.96875 8.296875 48.78125 10.40625 
L 48.78125 2.09375 
Q 45.015625 0.34375 40.984375 -0.53125 
Q 36.96875 -1.421875 32.421875 -1.421875 
Q 20.0625 -1.421875 12.78125 6.34375 
Q 5.515625 14.109375 5.515625 27.296875 
Q 5.515625 40.671875 12.859375 48.328125 
Q 20.21875 56 33.015625 56 
Q 37.15625 56 41.109375 55.140625 
Q 45.0625 54.296875 48.78125 52.59375 
z
" id="DejaVuSans-99"/>
      <path d="M 56.203125 29.59375 
L 56.203125 25.203125 
L 14.890625 25.203125 
Q 15.484375 15.921875 20.484375 11.0625 
Q 25.484375 6.203125 34.421875 6.203125 
Q 39.59375 6.203125 44.453125 7.46875 
Q 49.3125 8.734375 54.109375 11.28125 
L 54.109375 2.78125 
Q 49.265625 0.734375 44.1875 -0.34375 
Q 39.109375 -1.421875 33.890625 -1.421875 
Q 20.796875 -1.421875 13.15625 6.1875 
Q 5.515625 13.8125 5.515625 26.8125 
Q 5.515625 40.234375 12.765625 48.109375 
Q 20.015625 56 32.328125 56 
Q 43.359375 56 49.78125 48.890625 
Q 56.203125 41.796875 56.203125 29.59375 
z
M 47.21875 32.234375 
Q 47.125 39.59375 43.09375 43.984375 
Q 39.0625 48.390625 32.421875 48.390625 
Q 24.90625 48.390625 20.390625 44.140625 
Q 15.875 39.890625 15.1875 32.171875 
z
" id="DejaVuSans-101"/>
      <path d="M 11.71875 12.40625 
L 22.015625 12.40625 
L 22.015625 0 
L 11.71875 0 
z
M 11.71875 51.703125 
L 22.015625 51.703125 
L 22.015625 39.3125 
L 11.71875 39.3125 
z
" id="DejaVuSans-58"/>
      <path d="M 9.421875 54.6875 
L 18.40625 54.6875 
L 18.40625 0 
L 9.421875 0 
z
M 9.421875 75.984375 
L 18.40625 75.984375 
L 18.40625 64.59375 
L 9.421875 64.59375 
z
" id="DejaVuSans-105"/>
      <path d="M 54.890625 33.015625 
L 54.890625 0 
L 45.90625 0 
L 45.90625 32.71875 
Q 45.90625 40.484375 42.875 44.328125 
Q 39.84375 48.1875 33.796875 48.1875 
Q 26.515625 48.1875 22.3125 43.546875 
Q 18.109375 38.921875 18.109375 30.90625 
L 18.109375 0 
L 9.078125 0 
L 9.078125 54.6875 
L 18.109375 54.6875 
L 18.109375 46.1875 
Q 21.34375 51.125 25.703125 53.5625 
Q 30.078125 56 35.796875 56 
Q 45.21875 56 50.046875 50.171875 
Q 54.890625 44.34375 54.890625 33.015625 
z
" id="DejaVuSans-110"/>
      <path d="M 45.40625 46.390625 
L 45.40625 75.984375 
L 54.390625 75.984375 
L 54.390625 0 
L 45.40625 0 
L 45.40625 8.203125 
Q 42.578125 3.328125 38.25 0.953125 
Q 33.9375 -1.421875 27.875 -1.421875 
Q 17.96875 -1.421875 11.734375 6.484375 
Q 5.515625 14.40625 5.515625 27.296875 
Q 5.515625 40.1875 11.734375 48.09375 
Q 17.96875 56 27.875 56 
Q 33.9375 56 38.25 53.625 
Q 42.578125 51.265625 45.40625 46.390625 
z
M 14.796875 27.296875 
Q 14.796875 17.390625 18.875 11.75 
Q 22.953125 6.109375 30.078125 6.109375 
Q 37.203125 6.109375 41.296875 11.75 
Q 45.40625 17.390625 45.40625 27.296875 
Q 45.40625 37.203125 41.296875 42.84375 
Q 37.203125 48.484375 30.078125 48.484375 
Q 22.953125 48.484375 18.875 42.84375 
Q 14.796875 37.203125 14.796875 27.296875 
z
" id="DejaVuSans-100"/>
      <path d="M 9.078125 75.984375 
L 18.109375 75.984375 
L 18.109375 31.109375 
L 44.921875 54.6875 
L 56.390625 54.6875 
L 27.390625 29.109375 
L 57.625 0 
L 45.90625 0 
L 18.109375 26.703125 
L 18.109375 0 
L 9.078125 0 
z
" id="DejaVuSans-107"/>
     </defs>
     <use xlink:href="#DejaVuSans-68"/>
     <use x="77.001953" xlink:href="#DejaVuSans-97"/>
     <use x="138.28125" xlink:href="#DejaVuSans-116"/>
     <use x="177.490234" xlink:href="#DejaVuSans-97"/>
     <use x="238.769531" xlink:href="#DejaVuSans-32"/>
     <use x="270.556641" xlink:href="#DejaVuSans-115"/>
     <use x="322.65625" xlink:href="#DejaVuSans-111"/>
     <use x="383.837891" xlink:href="#DejaVuSans-117"/>
     <use x="447.216797" xlink:href="#DejaVuSans-114"/>
     <use x="486.080078" xlink:href="#DejaVuSans-99"/>
     <use x="541.060547" xlink:href="#DejaVuSans-101"/>
     <use x="602.583984" xlink:href="#DejaVuSans-58"/>
     <use x="636.275391" xlink:href="#DejaVuSans-32"/>
     <use x="668.0625" xlink:href="#DejaVuSans-99"/>
     <use x="723.042969" xlink:href="#DejaVuSans-111"/>
     <use x="784.224609" xlink:href="#DejaVuSans-105"/>
     <use x="812.007812" xlink:href="#DejaVuSans-110"/>
     <use x="875.386719" xlink:href="#DejaVuSans-100"/>
     <use x="938.863281" xlink:href="#DejaVuSans-101"/>
     <use x="1000.386719" xlink:href="#DejaVuSans-115"/>
     <use x="1052.486328" xlink:href="#DejaVuSans-107"/>
    </g>
   </g>
   <g id="legend_1">
    <g id="patch_7">
     <path d="M 359.473125 64.150125 
L 407.72 64.150125 
Q 409.72 64.150125 409.72 62.150125 
L 409.72 48.472 
Q 409.72 46.472 407.72 46.472 
L 359.473125 46.472 
Q 357.473125 46.472 357.473125 48.472 
L 357.473125 62.150125 
Q 357.473125 64.150125 359.473125 64.150125 
z
" style="fill:#ffffff;opacity:0.8;stroke:#cccccc;stroke-linejoin:miter;"/>
    </g>
    <g id="line2d_15">
     <path d="M 361.473125 54.570438 
L 381.473125 54.570438 
" style="fill:none;stroke:#ff6347;stroke-linecap:square;stroke-width:1.5;"/>
    </g>
    <g id="line2d_16"/>
    <g id="text_15">
     <!-- RSI -->
     <g transform="translate(389.473125 58.070438)scale(0.1 -0.1)">
      <defs>
       <path d="M 44.390625 34.1875 
Q 47.5625 33.109375 50.5625 29.59375 
Q 53.5625 26.078125 56.59375 19.921875 
L 66.609375 0 
L 56 0 
L 46.6875 18.703125 
Q 43.0625 26.03125 39.671875 28.421875 
Q 36.28125 30.8125 30.421875 30.8125 
L 19.671875 30.8125 
L 19.671875 0 
L 9.8125 0 
L 9.8125 72.90625 
L 32.078125 72.90625 
Q 44.578125 72.90625 50.734375 67.671875 
Q 56.890625 62.453125 56.890625 51.90625 
Q 56.890625 45.015625 53.6875 40.46875 
Q 50.484375 35.9375 44.390625 34.1875 
z
M 19.671875 64.796875 
L 19.671875 38.921875 
L 32.078125 38.921875 
Q 39.203125 38.921875 42.84375 42.21875 
Q 46.484375 45.515625 46.484375 51.90625 
Q 46.484375 58.296875 42.84375 61.546875 
Q 39.203125 64.796875 32.078125 64.796875 
z
" id="DejaVuSans-82"/>
       <path d="M 53.515625 70.515625 
L 53.515625 60.890625 
Q 47.90625 63.578125 42.921875 64.890625 
Q 37.9375 66.21875 33.296875 66.21875 
Q 25.25 66.21875 20.875 63.09375 
Q 16.5 59.96875 16.5 54.203125 
Q 16.5 49.359375 19.40625 46.890625 
Q 22.3125 44.4375 30.421875 42.921875 
L 36.375 41.703125 
Q 47.40625 39.59375 52.65625 34.296875 
Q 57.90625 29 57.90625 20.125 
Q 57.90625 9.515625 50.796875 4.046875 
Q 43.703125 -1.421875 29.984375 -1.421875 
Q 24.8125 -1.421875 18.96875 -0.25 
Q 13.140625 0.921875 6.890625 3.21875 
L 6.890625 13.375 
Q 12.890625 10.015625 18.65625 8.296875 
Q 24.421875 6.59375 29.984375 6.59375 
Q 38.421875 6.59375 43.015625 9.90625 
Q 47.609375 13.234375 47.609375 19.390625 
Q 47.609375 24.75 44.3125 27.78125 
Q 41.015625 30.8125 33.5 32.328125 
L 27.484375 33.5 
Q 16.453125 35.6875 11.515625 40.375 
Q 6.59375 45.0625 6.59375 53.421875 
Q 6.59375 63.09375 13.40625 68.65625 
Q 20.21875 74.21875 32.171875 74.21875 
Q 37.3125 74.21875 42.625 73.28125 
Q 47.953125 72.359375 53.515625 70.515625 
z
" id="DejaVuSans-83"/>
       <path d="M 9.8125 72.90625 
L 19.671875 72.90625 
L 19.671875 0 
L 9.8125 0 
z
" id="DejaVuSans-73"/>
      </defs>
      <use xlink:href="#DejaVuSans-82"/>
      <use x="69.482422" xlink:href="#DejaVuSans-83"/>
      <use x="132.958984" xlink:href="#DejaVuSans-73"/>
     </g>
    </g>
   </g>
  </g>
  <g id="text_16">
   <!-- RSI -->
   <g transform="translate(217.4025 19.0695)scale(0.16 -0.16)">
    <use xlink:href="#DejaVuSans-82"/>
    <use x="69.482422" xlink:href="#DejaVuSans-83"/>
    <use x="132.958984" xlink:href="#DejaVuSans-73"/>
   </g>
  </g>
 </g>
 <defs>
  <clipPath id="p4ecda90880">
   <rect height="266.112" width="357.12" x="57.6" y="41.472"/>
  </clipPath>
 </defs>
</svg>
