<?xml version="1.0" encoding="utf-8" standalone="no"?>
<!DOCTYPE svg PUBLIC "-//W3C//DTD SVG 1.1//EN"
  "http://www.w3.org/Graphics/SVG/1.1/DTD/svg11.dtd">
<!-- Created with matplotlib (https://matplotlib.org/) -->
<svg height="345.6pt" version="1.1" viewBox="0 0 460.8 345.6" width="460.8pt" xmlns="http://www.w3.org/2000/svg" xmlns:xlink="http://www.w3.org/1999/xlink">
 <metadata>
  <rdf:RDF xmlns:cc="http://creativecommons.org/ns#" xmlns:dc="http://purl.org/dc/elements/1.1/" xmlns:rdf="http://www.w3.org/1999/02/22-rdf-syntax-ns#">
   <cc:Work>
    <dc:type rdf:resource="http://purl.org/dc/dcmitype/StillImage"/>
    <dc:date>2021-03-11T19:00:15.386647</dc:date>
    <dc:format>image/svg+xml</dc:format>
    <dc:creator>
     <cc:Agent>
      <dc:title>Matplotlib v3.3.2, https://matplotlib.org/</dc:title>
     </cc:Agent>
    </dc:creator>
   </cc:Work>
  </rdf:RDF>
 </metadata>
 <defs>
  <style type="text/css">*{stroke-linecap:butt;stroke-linejoin:round;}</style>
 </defs>
 <g id="figure_1">
  <g id="patch_1">
   <path d="M 0 345.6 
L 460.8 345.6 
L 460.8 0 
L 0 0 
z
" style="fill:#ffffff;"/>
  </g>
  <g id="axes_1">
   <g id="patch_2">
    <path d="M 57.6 307.584 
L 414.72 307.584 
L 414.72 41.472 
L 57.6 41.472 
z
" style="fill:#ffffff;"/>
   </g>
   <g id="PolyCollection_1">
    <defs>
     <path d="M 73.832727 -229.977685 
L 73.832727 -120.285294 
L 74.57906 -120.285294 
L 75.325392 -120.285294 
L 76.071724 -120.285294 
L 76.818056 -120.285294 
L 77.564389 -120.285294 
L 78.310721 -120.285294 
L 79.057053 -120.285294 
L 79.803386 -120.285294 
L 80.549718 -120.285294 
L 81.29605 -120.285294 
L 82.042382 -120.285294 
L 82.788715 -120.285294 
L 83.535047 -120.285294 
L 84.281379 -120.285294 
L 85.027712 -120.285294 
L 85.774044 -120.285294 
L 86.520376 -120.285294 
L 87.266708 -120.285294 
L 88.013041 -120.285294 
L 88.759373 -120.285294 
L 89.505705 -120.285294 
L 90.252038 -120.285294 
L 90.99837 -120.285294 
L 91.744702 -120.285294 
L 92.491034 -120.285294 
L 93.237367 -120.285294 
L 93.983699 -120.285294 
L 94.730031 -120.285294 
L 95.476364 -120.285294 
L 96.222696 -120.285294 
L 96.969028 -120.285294 
L 97.715361 -120.285294 
L 98.461693 -120.285294 
L 99.208025 -120.285294 
L 99.954357 -120.285294 
L 100.70069 -120.285294 
L 101.447022 -120.285294 
L 102.193354 -120.285294 
L 102.939687 -120.285294 
L 103.686019 -120.285294 
L 104.432351 -120.285294 
L 105.178683 -120.285294 
L 105.925016 -120.285294 
L 106.671348 -120.285294 
L 107.41768 -120.285294 
L 108.164013 -120.285294 
L 108.910345 -120.285294 
L 109.656677 -120.285294 
L 110.403009 -120.285294 
L 111.149342 -120.285294 
L 111.895674 -120.285294 
L 112.642006 -120.285294 
L 113.388339 -120.285294 
L 114.134671 -120.285294 
L 114.881003 -120.285294 
L 115.627335 -120.285294 
L 116.373668 -120.285294 
L 117.12 -120.285294 
L 117.866332 -120.285294 
L 118.612665 -120.285294 
L 119.358997 -120.285294 
L 120.105329 -120.285294 
L 120.851661 -120.285294 
L 121.597994 -120.285294 
L 122.344326 -120.285294 
L 123.090658 -120.285294 
L 123.836991 -120.285294 
L 124.583323 -120.285294 
L 125.329655 -120.285294 
L 126.075987 -120.285294 
L 126.82232 -120.285294 
L 127.568652 -120.285294 
L 128.314984 -120.285294 
L 129.061317 -120.285294 
L 129.807649 -120.285294 
L 130.553981 -120.285294 
L 131.300313 -120.285294 
L 132.046646 -120.285294 
L 132.792978 -120.285294 
L 133.53931 -120.285294 
L 134.285643 -120.285294 
L 135.031975 -120.285294 
L 135.778307 -120.285294 
L 136.524639 -120.285294 
L 137.270972 -120.285294 
L 138.017304 -120.285294 
L 138.763636 -120.285294 
L 139.509969 -120.285294 
L 140.256301 -120.285294 
L 141.002633 -120.285294 
L 141.748966 -120.285294 
L 142.495298 -120.285294 
L 143.24163 -120.285294 
L 143.987962 -120.285294 
L 144.734295 -120.285294 
L 145.480627 -120.285294 
L 146.226959 -120.285294 
L 146.973292 -120.285294 
L 147.719624 -120.285294 
L 148.465956 -120.285294 
L 149.212288 -120.285294 
L 149.958621 -120.285294 
L 150.704953 -120.285294 
L 151.451285 -120.285294 
L 152.197618 -120.285294 
L 152.94395 -120.285294 
L 153.690282 -120.285294 
L 154.436614 -120.285294 
L 155.182947 -120.285294 
L 155.929279 -120.285294 
L 156.675611 -120.285294 
L 157.421944 -120.285294 
L 158.168276 -120.285294 
L 158.914608 -120.285294 
L 159.66094 -120.285294 
L 160.407273 -120.285294 
L 161.153605 -120.285294 
L 161.899937 -120.285294 
L 162.64627 -120.285294 
L 163.392602 -120.285294 
L 164.138934 -120.285294 
L 164.885266 -120.285294 
L 165.631599 -120.285294 
L 166.377931 -120.285294 
L 167.124263 -120.285294 
L 167.870596 -120.285294 
L 168.616928 -120.285294 
L 169.36326 -120.285294 
L 170.109592 -120.285294 
L 170.855925 -120.285294 
L 171.602257 -120.285294 
L 172.348589 -120.285294 
L 173.094922 -120.285294 
L 173.841254 -120.285294 
L 174.587586 -120.285294 
L 175.333918 -120.285294 
L 176.080251 -120.285294 
L 176.826583 -120.285294 
L 177.572915 -120.285294 
L 178.319248 -120.285294 
L 179.06558 -120.285294 
L 179.811912 -120.285294 
L 180.558245 -120.285294 
L 181.304577 -120.285294 
L 182.050909 -120.285294 
L 182.797241 -120.285294 
L 183.543574 -120.285294 
L 184.289906 -120.285294 
L 185.036238 -120.285294 
L 185.782571 -120.285294 
L 186.528903 -120.285294 
L 187.275235 -120.285294 
L 188.021567 -120.285294 
L 188.7679 -120.285294 
L 189.514232 -120.285294 
L 190.260564 -120.285294 
L 191.006897 -120.285294 
L 191.753229 -120.285294 
L 192.499561 -120.285294 
L 193.245893 -120.285294 
L 193.992226 -120.285294 
L 194.738558 -120.285294 
L 195.48489 -120.285294 
L 196.231223 -120.285294 
L 196.977555 -120.285294 
L 197.723887 -120.285294 
L 198.470219 -120.285294 
L 199.216552 -120.285294 
L 199.962884 -120.285294 
L 200.709216 -120.285294 
L 201.455549 -120.285294 
L 202.201881 -120.285294 
L 202.948213 -120.285294 
L 203.694545 -120.285294 
L 204.440878 -120.285294 
L 205.18721 -120.285294 
L 205.933542 -120.285294 
L 206.679875 -120.285294 
L 207.426207 -120.285294 
L 208.172539 -120.285294 
L 208.918871 -120.285294 
L 209.665204 -120.285294 
L 210.411536 -120.285294 
L 211.157868 -120.285294 
L 211.904201 -120.285294 
L 212.650533 -120.285294 
L 213.396865 -120.285294 
L 214.143197 -120.285294 
L 214.88953 -120.285294 
L 215.635862 -120.285294 
L 216.382194 -120.285294 
L 217.128527 -120.285294 
L 217.874859 -120.285294 
L 218.621191 -120.285294 
L 219.367524 -120.285294 
L 220.113856 -120.285294 
L 220.860188 -120.285294 
L 221.60652 -120.285294 
L 222.352853 -120.285294 
L 223.099185 -120.285294 
L 223.845517 -120.285294 
L 224.59185 -120.285294 
L 225.338182 -120.285294 
L 226.084514 -120.285294 
L 226.830846 -120.285294 
L 227.577179 -120.285294 
L 228.323511 -120.285294 
L 229.069843 -120.285294 
L 229.816176 -120.285294 
L 230.562508 -120.285294 
L 231.30884 -120.285294 
L 232.055172 -120.285294 
L 232.801505 -120.285294 
L 233.547837 -120.285294 
L 234.294169 -120.285294 
L 235.040502 -120.285294 
L 235.786834 -120.285294 
L 236.533166 -120.285294 
L 237.279498 -120.285294 
L 238.025831 -120.285294 
L 238.772163 -120.285294 
L 239.518495 -120.285294 
L 240.264828 -120.285294 
L 241.01116 -120.285294 
L 241.757492 -120.285294 
L 242.503824 -120.285294 
L 243.250157 -120.285294 
L 243.996489 -120.285294 
L 244.742821 -120.285294 
L 245.489154 -120.285294 
L 246.235486 -120.285294 
L 246.981818 -120.285294 
L 247.72815 -120.285294 
L 248.474483 -120.285294 
L 249.220815 -120.285294 
L 249.967147 -120.285294 
L 250.71348 -120.285294 
L 251.459812 -120.285294 
L 252.206144 -120.285294 
L 252.952476 -120.285294 
L 253.698809 -120.285294 
L 254.445141 -120.285294 
L 255.191473 -120.285294 
L 255.937806 -120.285294 
L 256.684138 -120.285294 
L 257.43047 -120.285294 
L 258.176803 -120.285294 
L 258.923135 -120.285294 
L 259.669467 -120.285294 
L 260.415799 -120.285294 
L 261.162132 -120.285294 
L 261.908464 -120.285294 
L 262.654796 -120.285294 
L 263.401129 -120.285294 
L 264.147461 -120.285294 
L 264.893793 -120.285294 
L 265.640125 -120.285294 
L 266.386458 -120.285294 
L 267.13279 -120.285294 
L 267.879122 -120.285294 
L 268.625455 -120.285294 
L 269.371787 -120.285294 
L 270.118119 -120.285294 
L 270.864451 -120.285294 
L 271.610784 -120.285294 
L 272.357116 -120.285294 
L 273.103448 -120.285294 
L 273.849781 -120.285294 
L 274.596113 -120.285294 
L 275.342445 -120.285294 
L 276.088777 -120.285294 
L 276.83511 -120.285294 
L 277.581442 -120.285294 
L 278.327774 -120.285294 
L 279.074107 -120.285294 
L 279.820439 -120.285294 
L 280.566771 -120.285294 
L 281.313103 -120.285294 
L 282.059436 -120.285294 
L 282.805768 -120.285294 
L 283.5521 -120.285294 
L 284.298433 -120.285294 
L 285.044765 -120.285294 
L 285.791097 -120.285294 
L 286.537429 -120.285294 
L 287.283762 -120.285294 
L 288.030094 -120.285294 
L 288.776426 -120.285294 
L 289.522759 -120.285294 
L 290.269091 -120.285294 
L 291.015423 -120.285294 
L 291.761755 -120.285294 
L 292.508088 -120.285294 
L 293.25442 -120.285294 
L 294.000752 -120.285294 
L 294.747085 -120.285294 
L 295.493417 -120.285294 
L 296.239749 -120.285294 
L 296.986082 -120.285294 
L 297.732414 -120.285294 
L 298.478746 -120.285294 
L 299.225078 -120.285294 
L 299.971411 -120.285294 
L 300.717743 -120.285294 
L 301.464075 -120.285294 
L 302.210408 -120.285294 
L 302.95674 -120.285294 
L 303.703072 -120.285294 
L 304.449404 -120.285294 
L 305.195737 -120.285294 
L 305.942069 -120.285294 
L 306.688401 -120.285294 
L 307.434734 -120.285294 
L 308.181066 -120.285294 
L 308.927398 -120.285294 
L 309.67373 -120.285294 
L 310.420063 -120.285294 
L 311.166395 -120.285294 
L 311.912727 -120.285294 
L 312.65906 -120.285294 
L 313.405392 -120.285294 
L 314.151724 -120.285294 
L 314.898056 -120.285294 
L 315.644389 -120.285294 
L 316.390721 -120.285294 
L 317.137053 -120.285294 
L 317.883386 -120.285294 
L 318.629718 -120.285294 
L 319.37605 -120.285294 
L 320.122382 -120.285294 
L 320.868715 -120.285294 
L 321.615047 -120.285294 
L 322.361379 -120.285294 
L 323.107712 -120.285294 
L 323.854044 -120.285294 
L 324.600376 -120.285294 
L 325.346708 -120.285294 
L 326.093041 -120.285294 
L 326.839373 -120.285294 
L 327.585705 -120.285294 
L 328.332038 -120.285294 
L 329.07837 -120.285294 
L 329.824702 -120.285294 
L 330.571034 -120.285294 
L 331.317367 -120.285294 
L 332.063699 -120.285294 
L 332.810031 -120.285294 
L 333.556364 -120.285294 
L 334.302696 -120.285294 
L 335.049028 -120.285294 
L 335.795361 -120.285294 
L 336.541693 -120.285294 
L 337.288025 -120.285294 
L 338.034357 -120.285294 
L 338.78069 -120.285294 
L 339.527022 -120.285294 
L 340.273354 -120.285294 
L 341.019687 -120.285294 
L 341.766019 -120.285294 
L 342.512351 -120.285294 
L 343.258683 -120.285294 
L 344.005016 -120.285294 
L 344.751348 -120.285294 
L 345.49768 -120.285294 
L 346.244013 -120.285294 
L 346.990345 -120.285294 
L 347.736677 -120.285294 
L 348.483009 -120.285294 
L 349.229342 -120.285294 
L 349.975674 -120.285294 
L 350.722006 -120.285294 
L 351.468339 -120.285294 
L 352.214671 -120.285294 
L 352.961003 -120.285294 
L 353.707335 -120.285294 
L 354.453668 -120.285294 
L 355.2 -120.285294 
L 355.946332 -120.285294 
L 356.692665 -120.285294 
L 357.438997 -120.285294 
L 358.185329 -120.285294 
L 358.931661 -120.285294 
L 359.677994 -120.285294 
L 360.424326 -120.285294 
L 361.170658 -120.285294 
L 361.916991 -120.285294 
L 362.663323 -120.285294 
L 363.409655 -120.285294 
L 364.155987 -120.285294 
L 364.90232 -120.285294 
L 365.648652 -120.285294 
L 366.394984 -120.285294 
L 367.141317 -120.285294 
L 367.887649 -120.285294 
L 368.633981 -120.285294 
L 369.380313 -120.285294 
L 370.126646 -120.285294 
L 370.872978 -120.285294 
L 371.61931 -120.285294 
L 372.365643 -120.285294 
L 373.111975 -120.285294 
L 373.858307 -120.285294 
L 374.604639 -120.285294 
L 375.350972 -120.285294 
L 376.097304 -120.285294 
L 376.843636 -120.285294 
L 377.589969 -120.285294 
L 378.336301 -120.285294 
L 379.082633 -120.285294 
L 379.828966 -120.285294 
L 380.575298 -120.285294 
L 381.32163 -120.285294 
L 382.067962 -120.285294 
L 382.814295 -120.285294 
L 383.560627 -120.285294 
L 384.306959 -120.285294 
L 385.053292 -120.285294 
L 385.799624 -120.285294 
L 386.545956 -120.285294 
L 387.292288 -120.285294 
L 388.038621 -120.285294 
L 388.784953 -120.285294 
L 389.531285 -120.285294 
L 390.277618 -120.285294 
L 391.02395 -120.285294 
L 391.770282 -120.285294 
L 392.516614 -120.285294 
L 393.262947 -120.285294 
L 394.009279 -120.285294 
L 394.755611 -120.285294 
L 395.501944 -120.285294 
L 396.248276 -120.285294 
L 396.994608 -120.285294 
L 397.74094 -120.285294 
L 398.487273 -120.285294 
L 398.487273 -229.977685 
L 398.487273 -229.977685 
L 397.74094 -229.977685 
L 396.994608 -229.977685 
L 396.248276 -229.977685 
L 395.501944 -229.977685 
L 394.755611 -229.977685 
L 394.009279 -229.977685 
L 393.262947 -229.977685 
L 392.516614 -229.977685 
L 391.770282 -229.977685 
L 391.02395 -229.977685 
L 390.277618 -229.977685 
L 389.531285 -229.977685 
L 388.784953 -229.977685 
L 388.038621 -229.977685 
L 387.292288 -229.977685 
L 386.545956 -229.977685 
L 385.799624 -229.977685 
L 385.053292 -229.977685 
L 384.306959 -229.977685 
L 383.560627 -229.977685 
L 382.814295 -229.977685 
L 382.067962 -229.977685 
L 381.32163 -229.977685 
L 380.575298 -229.977685 
L 379.828966 -229.977685 
L 379.082633 -229.977685 
L 378.336301 -229.977685 
L 377.589969 -229.977685 
L 376.843636 -229.977685 
L 376.097304 -229.977685 
L 375.350972 -229.977685 
L 374.604639 -229.977685 
L 373.858307 -229.977685 
L 373.111975 -229.977685 
L 372.365643 -229.977685 
L 371.61931 -229.977685 
L 370.872978 -229.977685 
L 370.126646 -229.977685 
L 369.380313 -229.977685 
L 368.633981 -229.977685 
L 367.887649 -229.977685 
L 367.141317 -229.977685 
L 366.394984 -229.977685 
L 365.648652 -229.977685 
L 364.90232 -229.977685 
L 364.155987 -229.977685 
L 363.409655 -229.977685 
L 362.663323 -229.977685 
L 361.916991 -229.977685 
L 361.170658 -229.977685 
L 360.424326 -229.977685 
L 359.677994 -229.977685 
L 358.931661 -229.977685 
L 358.185329 -229.977685 
L 357.438997 -229.977685 
L 356.692665 -229.977685 
L 355.946332 -229.977685 
L 355.2 -229.977685 
L 354.453668 -229.977685 
L 353.707335 -229.977685 
L 352.961003 -229.977685 
L 352.214671 -229.977685 
L 351.468339 -229.977685 
L 350.722006 -229.977685 
L 349.975674 -229.977685 
L 349.229342 -229.977685 
L 348.483009 -229.977685 
L 347.736677 -229.977685 
L 346.990345 -229.977685 
L 346.244013 -229.977685 
L 345.49768 -229.977685 
L 344.751348 -229.977685 
L 344.005016 -229.977685 
L 343.258683 -229.977685 
L 342.512351 -229.977685 
L 341.766019 -229.977685 
L 341.019687 -229.977685 
L 340.273354 -229.977685 
L 339.527022 -229.977685 
L 338.78069 -229.977685 
L 338.034357 -229.977685 
L 337.288025 -229.977685 
L 336.541693 -229.977685 
L 335.795361 -229.977685 
L 335.049028 -229.977685 
L 334.302696 -229.977685 
L 333.556364 -229.977685 
L 332.810031 -229.977685 
L 332.063699 -229.977685 
L 331.317367 -229.977685 
L 330.571034 -229.977685 
L 329.824702 -229.977685 
L 329.07837 -229.977685 
L 328.332038 -229.977685 
L 327.585705 -229.977685 
L 326.839373 -229.977685 
L 326.093041 -229.977685 
L 325.346708 -229.977685 
L 324.600376 -229.977685 
L 323.854044 -229.977685 
L 323.107712 -229.977685 
L 322.361379 -229.977685 
L 321.615047 -229.977685 
L 320.868715 -229.977685 
L 320.122382 -229.977685 
L 319.37605 -229.977685 
L 318.629718 -229.977685 
L 317.883386 -229.977685 
L 317.137053 -229.977685 
L 316.390721 -229.977685 
L 315.644389 -229.977685 
L 314.898056 -229.977685 
L 314.151724 -229.977685 
L 313.405392 -229.977685 
L 312.65906 -229.977685 
L 311.912727 -229.977685 
L 311.166395 -229.977685 
L 310.420063 -229.977685 
L 309.67373 -229.977685 
L 308.927398 -229.977685 
L 308.181066 -229.977685 
L 307.434734 -229.977685 
L 306.688401 -229.977685 
L 305.942069 -229.977685 
L 305.195737 -229.977685 
L 304.449404 -229.977685 
L 303.703072 -229.977685 
L 302.95674 -229.977685 
L 302.210408 -229.977685 
L 301.464075 -229.977685 
L 300.717743 -229.977685 
L 299.971411 -229.977685 
L 299.225078 -229.977685 
L 298.478746 -229.977685 
L 297.732414 -229.977685 
L 296.986082 -229.977685 
L 296.239749 -229.977685 
L 295.493417 -229.977685 
L 294.747085 -229.977685 
L 294.000752 -229.977685 
L 293.25442 -229.977685 
L 292.508088 -229.977685 
L 291.761755 -229.977685 
L 291.015423 -229.977685 
L 290.269091 -229.977685 
L 289.522759 -229.977685 
L 288.776426 -229.977685 
L 288.030094 -229.977685 
L 287.283762 -229.977685 
L 286.537429 -229.977685 
L 285.791097 -229.977685 
L 285.044765 -229.977685 
L 284.298433 -229.977685 
L 283.5521 -229.977685 
L 282.805768 -229.977685 
L 282.059436 -229.977685 
L 281.313103 -229.977685 
L 280.566771 -229.977685 
L 279.820439 -229.977685 
L 279.074107 -229.977685 
L 278.327774 -229.977685 
L 277.581442 -229.977685 
L 276.83511 -229.977685 
L 276.088777 -229.977685 
L 275.342445 -229.977685 
L 274.596113 -229.977685 
L 273.849781 -229.977685 
L 273.103448 -229.977685 
L 272.357116 -229.977685 
L 271.610784 -229.977685 
L 270.864451 -229.977685 
L 270.118119 -229.977685 
L 269.371787 -229.977685 
L 268.625455 -229.977685 
L 267.879122 -229.977685 
L 267.13279 -229.977685 
L 266.386458 -229.977685 
L 265.640125 -229.977685 
L 264.893793 -229.977685 
L 264.147461 -229.977685 
L 263.401129 -229.977685 
L 262.654796 -229.977685 
L 261.908464 -229.977685 
L 261.162132 -229.977685 
L 260.415799 -229.977685 
L 259.669467 -229.977685 
L 258.923135 -229.977685 
L 258.176803 -229.977685 
L 257.43047 -229.977685 
L 256.684138 -229.977685 
L 255.937806 -229.977685 
L 255.191473 -229.977685 
L 254.445141 -229.977685 
L 253.698809 -229.977685 
L 252.952476 -229.977685 
L 252.206144 -229.977685 
L 251.459812 -229.977685 
L 250.71348 -229.977685 
L 249.967147 -229.977685 
L 249.220815 -229.977685 
L 248.474483 -229.977685 
L 247.72815 -229.977685 
L 246.981818 -229.977685 
L 246.235486 -229.977685 
L 245.489154 -229.977685 
L 244.742821 -229.977685 
L 243.996489 -229.977685 
L 243.250157 -229.977685 
L 242.503824 -229.977685 
L 241.757492 -229.977685 
L 241.01116 -229.977685 
L 240.264828 -229.977685 
L 239.518495 -229.977685 
L 238.772163 -229.977685 
L 238.025831 -229.977685 
L 237.279498 -229.977685 
L 236.533166 -229.977685 
L 235.786834 -229.977685 
L 235.040502 -229.977685 
L 234.294169 -229.977685 
L 233.547837 -229.977685 
L 232.801505 -229.977685 
L 232.055172 -229.977685 
L 231.30884 -229.977685 
L 230.562508 -229.977685 
L 229.816176 -229.977685 
L 229.069843 -229.977685 
L 228.323511 -229.977685 
L 227.577179 -229.977685 
L 226.830846 -229.977685 
L 226.084514 -229.977685 
L 225.338182 -229.977685 
L 224.59185 -229.977685 
L 223.845517 -229.977685 
L 223.099185 -229.977685 
L 222.352853 -229.977685 
L 221.60652 -229.977685 
L 220.860188 -229.977685 
L 220.113856 -229.977685 
L 219.367524 -229.977685 
L 218.621191 -229.977685 
L 217.874859 -229.977685 
L 217.128527 -229.977685 
L 216.382194 -229.977685 
L 215.635862 -229.977685 
L 214.88953 -229.977685 
L 214.143197 -229.977685 
L 213.396865 -229.977685 
L 212.650533 -229.977685 
L 211.904201 -229.977685 
L 211.157868 -229.977685 
L 210.411536 -229.977685 
L 209.665204 -229.977685 
L 208.918871 -229.977685 
L 208.172539 -229.977685 
L 207.426207 -229.977685 
L 206.679875 -229.977685 
L 205.933542 -229.977685 
L 205.18721 -229.977685 
L 204.440878 -229.977685 
L 203.694545 -229.977685 
L 202.948213 -229.977685 
L 202.201881 -229.977685 
L 201.455549 -229.977685 
L 200.709216 -229.977685 
L 199.962884 -229.977685 
L 199.216552 -229.977685 
L 198.470219 -229.977685 
L 197.723887 -229.977685 
L 196.977555 -229.977685 
L 196.231223 -229.977685 
L 195.48489 -229.977685 
L 194.738558 -229.977685 
L 193.992226 -229.977685 
L 193.245893 -229.977685 
L 192.499561 -229.977685 
L 191.753229 -229.977685 
L 191.006897 -229.977685 
L 190.260564 -229.977685 
L 189.514232 -229.977685 
L 188.7679 -229.977685 
L 188.021567 -229.977685 
L 187.275235 -229.977685 
L 186.528903 -229.977685 
L 185.782571 -229.977685 
L 185.036238 -229.977685 
L 184.289906 -229.977685 
L 183.543574 -229.977685 
L 182.797241 -229.977685 
L 182.050909 -229.977685 
L 181.304577 -229.977685 
L 180.558245 -229.977685 
L 179.811912 -229.977685 
L 179.06558 -229.977685 
L 178.319248 -229.977685 
L 177.572915 -229.977685 
L 176.826583 -229.977685 
L 176.080251 -229.977685 
L 175.333918 -229.977685 
L 174.587586 -229.977685 
L 173.841254 -229.977685 
L 173.094922 -229.977685 
L 172.348589 -229.977685 
L 171.602257 -229.977685 
L 170.855925 -229.977685 
L 170.109592 -229.977685 
L 169.36326 -229.977685 
L 168.616928 -229.977685 
L 167.870596 -229.977685 
L 167.124263 -229.977685 
L 166.377931 -229.977685 
L 165.631599 -229.977685 
L 164.885266 -229.977685 
L 164.138934 -229.977685 
L 163.392602 -229.977685 
L 162.64627 -229.977685 
L 161.899937 -229.977685 
L 161.153605 -229.977685 
L 160.407273 -229.977685 
L 159.66094 -229.977685 
L 158.914608 -229.977685 
L 158.168276 -229.977685 
L 157.421944 -229.977685 
L 156.675611 -229.977685 
L 155.929279 -229.977685 
L 155.182947 -229.977685 
L 154.436614 -229.977685 
L 153.690282 -229.977685 
L 152.94395 -229.977685 
L 152.197618 -229.977685 
L 151.451285 -229.977685 
L 150.704953 -229.977685 
L 149.958621 -229.977685 
L 149.212288 -229.977685 
L 148.465956 -229.977685 
L 147.719624 -229.977685 
L 146.973292 -229.977685 
L 146.226959 -229.977685 
L 145.480627 -229.977685 
L 144.734295 -229.977685 
L 143.987962 -229.977685 
L 143.24163 -229.977685 
L 142.495298 -229.977685 
L 141.748966 -229.977685 
L 141.002633 -229.977685 
L 140.256301 -229.977685 
L 139.509969 -229.977685 
L 138.763636 -229.977685 
L 138.017304 -229.977685 
L 137.270972 -229.977685 
L 136.524639 -229.977685 
L 135.778307 -229.977685 
L 135.031975 -229.977685 
L 134.285643 -229.977685 
L 133.53931 -229.977685 
L 132.792978 -229.977685 
L 132.046646 -229.977685 
L 131.300313 -229.977685 
L 130.553981 -229.977685 
L 129.807649 -229.977685 
L 129.061317 -229.977685 
L 128.314984 -229.977685 
L 127.568652 -229.977685 
L 126.82232 -229.977685 
L 126.075987 -229.977685 
L 125.329655 -229.977685 
L 124.583323 -229.977685 
L 123.836991 -229.977685 
L 123.090658 -229.977685 
L 122.344326 -229.977685 
L 121.597994 -229.977685 
L 120.851661 -229.977685 
L 120.105329 -229.977685 
L 119.358997 -229.977685 
L 118.612665 -229.977685 
L 117.866332 -229.977685 
L 117.12 -229.977685 
L 116.373668 -229.977685 
L 115.627335 -229.977685 
L 114.881003 -229.977685 
L 114.134671 -229.977685 
L 113.388339 -229.977685 
L 112.642006 -229.977685 
L 111.895674 -229.977685 
L 111.149342 -229.977685 
L 110.403009 -229.977685 
L 109.656677 -229.977685 
L 108.910345 -229.977685 
L 108.164013 -229.977685 
L 107.41768 -229.977685 
L 106.671348 -229.977685 
L 105.925016 -229.977685 
L 105.178683 -229.977685 
L 104.432351 -229.977685 
L 103.686019 -229.977685 
L 102.939687 -229.977685 
L 102.193354 -229.977685 
L 101.447022 -229.977685 
L 100.70069 -229.977685 
L 99.954357 -229.977685 
L 99.208025 -229.977685 
L 98.461693 -229.977685 
L 97.715361 -229.977685 
L 96.969028 -229.977685 
L 96.222696 -229.977685 
L 95.476364 -229.977685 
L 94.730031 -229.977685 
L 93.983699 -229.977685 
L 93.237367 -229.977685 
L 92.491034 -229.977685 
L 91.744702 -229.977685 
L 90.99837 -229.977685 
L 90.252038 -229.977685 
L 89.505705 -229.977685 
L 88.759373 -229.977685 
L 88.013041 -229.977685 
L 87.266708 -229.977685 
L 86.520376 -229.977685 
L 85.774044 -229.977685 
L 85.027712 -229.977685 
L 84.281379 -229.977685 
L 83.535047 -229.977685 
L 82.788715 -229.977685 
L 82.042382 -229.977685 
L 81.29605 -229.977685 
L 80.549718 -229.977685 
L 79.803386 -229.977685 
L 79.057053 -229.977685 
L 78.310721 -229.977685 
L 77.564389 -229.977685 
L 76.818056 -229.977685 
L 76.071724 -229.977685 
L 75.325392 -229.977685 
L 74.57906 -229.977685 
L 73.832727 -229.977685 
z
" id="m0153ad082f" style="stroke:#4b0082;stroke-opacity:0.3;"/>
    </defs>
    <g clip-path="url(#pd01b5db497)">
     <use style="fill:#4b0082;fill-opacity:0.3;stroke:#4b0082;stroke-opacity:0.3;" x="0" xlink:href="#m0153ad082f" y="345.6"/>
    </g>
   </g>
   <g id="matplotlib.axis_1">
    <g id="xtick_1">
     <g id="line2d_1">
      <defs>
       <path d="M 0 0 
L 0 3.5 
" id="m4fb51f0f6a" style="stroke:#000000;stroke-width:0.8;"/>
      </defs>
      <g>
       <use style="stroke:#000000;stroke-width:0.8;" x="73.832727" xlink:href="#m4fb51f0f6a" y="307.584"/>
      </g>
     </g>
     <g id="text_1">
      <!-- 2020-01 -->
      <g transform="translate(52.941321 322.182437)scale(0.1 -0.1)">
       <defs>
        <path d="M 19.1875 8.296875 
L 53.609375 8.296875 
L 53.609375 0 
L 7.328125 0 
L 7.328125 8.296875 
Q 12.9375 14.109375 22.625 23.890625 
Q 32.328125 33.6875 34.8125 36.53125 
Q 39.546875 41.84375 41.421875 45.53125 
Q 43.3125 49.21875 43.3125 52.78125 
Q 43.3125 58.59375 39.234375 62.25 
Q 35.15625 65.921875 28.609375 65.921875 
Q 23.96875 65.921875 18.8125 64.3125 
Q 13.671875 62.703125 7.8125 59.421875 
L 7.8125 69.390625 
Q 13.765625 71.78125 18.9375 73 
Q 24.125 74.21875 28.421875 74.21875 
Q 39.75 74.21875 46.484375 68.546875 
Q 53.21875 62.890625 53.21875 53.421875 
Q 53.21875 48.921875 51.53125 44.890625 
Q 49.859375 40.875 45.40625 35.40625 
Q 44.1875 33.984375 37.640625 27.21875 
Q 31.109375 20.453125 19.1875 8.296875 
z
" id="DejaVuSans-50"/>
        <path d="M 31.78125 66.40625 
Q 24.171875 66.40625 20.328125 58.90625 
Q 16.5 51.421875 16.5 36.375 
Q 16.5 21.390625 20.328125 13.890625 
Q 24.171875 6.390625 31.78125 6.390625 
Q 39.453125 6.390625 43.28125 13.890625 
Q 47.125 21.390625 47.125 36.375 
Q 47.125 51.421875 43.28125 58.90625 
Q 39.453125 66.40625 31.78125 66.40625 
z
M 31.78125 74.21875 
Q 44.046875 74.21875 50.515625 64.515625 
Q 56.984375 54.828125 56.984375 36.375 
Q 56.984375 17.96875 50.515625 8.265625 
Q 44.046875 -1.421875 31.78125 -1.421875 
Q 19.53125 -1.421875 13.0625 8.265625 
Q 6.59375 17.96875 6.59375 36.375 
Q 6.59375 54.828125 13.0625 64.515625 
Q 19.53125 74.21875 31.78125 74.21875 
z
" id="DejaVuSans-48"/>
        <path d="M 4.890625 31.390625 
L 31.203125 31.390625 
L 31.203125 23.390625 
L 4.890625 23.390625 
z
" id="DejaVuSans-45"/>
        <path d="M 12.40625 8.296875 
L 28.515625 8.296875 
L 28.515625 63.921875 
L 10.984375 60.40625 
L 10.984375 69.390625 
L 28.421875 72.90625 
L 38.28125 72.90625 
L 38.28125 8.296875 
L 54.390625 8.296875 
L 54.390625 0 
L 12.40625 0 
z
" id="DejaVuSans-49"/>
       </defs>
       <use xlink:href="#DejaVuSans-50"/>
       <use x="63.623047" xlink:href="#DejaVuSans-48"/>
       <use x="127.246094" xlink:href="#DejaVuSans-50"/>
       <use x="190.869141" xlink:href="#DejaVuSans-48"/>
       <use x="254.492188" xlink:href="#DejaVuSans-45"/>
       <use x="290.576172" xlink:href="#DejaVuSans-48"/>
       <use x="354.199219" xlink:href="#DejaVuSans-49"/>
      </g>
     </g>
    </g>
    <g id="xtick_2">
     <g id="line2d_2">
      <g>
       <use style="stroke:#000000;stroke-width:0.8;" x="118.612665" xlink:href="#m4fb51f0f6a" y="307.584"/>
      </g>
     </g>
     <g id="text_2">
      <!-- 2020-03 -->
      <g transform="translate(97.721258 322.182437)scale(0.1 -0.1)">
       <defs>
        <path d="M 40.578125 39.3125 
Q 47.65625 37.796875 51.625 33 
Q 55.609375 28.21875 55.609375 21.1875 
Q 55.609375 10.40625 48.1875 4.484375 
Q 40.765625 -1.421875 27.09375 -1.421875 
Q 22.515625 -1.421875 17.65625 -0.515625 
Q 12.796875 0.390625 7.625 2.203125 
L 7.625 11.71875 
Q 11.71875 9.328125 16.59375 8.109375 
Q 21.484375 6.890625 26.8125 6.890625 
Q 36.078125 6.890625 40.9375 10.546875 
Q 45.796875 14.203125 45.796875 21.1875 
Q 45.796875 27.640625 41.28125 31.265625 
Q 36.765625 34.90625 28.71875 34.90625 
L 20.21875 34.90625 
L 20.21875 43.015625 
L 29.109375 43.015625 
Q 36.375 43.015625 40.234375 45.921875 
Q 44.09375 48.828125 44.09375 54.296875 
Q 44.09375 59.90625 40.109375 62.90625 
Q 36.140625 65.921875 28.71875 65.921875 
Q 24.65625 65.921875 20.015625 65.03125 
Q 15.375 64.15625 9.8125 62.3125 
L 9.8125 71.09375 
Q 15.4375 72.65625 20.34375 73.4375 
Q 25.25 74.21875 29.59375 74.21875 
Q 40.828125 74.21875 47.359375 69.109375 
Q 53.90625 64.015625 53.90625 55.328125 
Q 53.90625 49.265625 50.4375 45.09375 
Q 46.96875 40.921875 40.578125 39.3125 
z
" id="DejaVuSans-51"/>
       </defs>
       <use xlink:href="#DejaVuSans-50"/>
       <use x="63.623047" xlink:href="#DejaVuSans-48"/>
       <use x="127.246094" xlink:href="#DejaVuSans-50"/>
       <use x="190.869141" xlink:href="#DejaVuSans-48"/>
       <use x="254.492188" xlink:href="#DejaVuSans-45"/>
       <use x="290.576172" xlink:href="#DejaVuSans-48"/>
       <use x="354.199219" xlink:href="#DejaVuSans-51"/>
      </g>
     </g>
    </g>
    <g id="xtick_3">
     <g id="line2d_3">
      <g>
       <use style="stroke:#000000;stroke-width:0.8;" x="164.138934" xlink:href="#m4fb51f0f6a" y="307.584"/>
      </g>
     </g>
     <g id="text_3">
      <!-- 2020-05 -->
      <g transform="translate(143.247528 322.182437)scale(0.1 -0.1)">
       <defs>
        <path d="M 10.796875 72.90625 
L 49.515625 72.90625 
L 49.515625 64.59375 
L 19.828125 64.59375 
L 19.828125 46.734375 
Q 21.96875 47.46875 24.109375 47.828125 
Q 26.265625 48.1875 28.421875 48.1875 
Q 40.625 48.1875 47.75 41.5 
Q 54.890625 34.8125 54.890625 23.390625 
Q 54.890625 11.625 47.5625 5.09375 
Q 40.234375 -1.421875 26.90625 -1.421875 
Q 22.3125 -1.421875 17.546875 -0.640625 
Q 12.796875 0.140625 7.71875 1.703125 
L 7.71875 11.625 
Q 12.109375 9.234375 16.796875 8.0625 
Q 21.484375 6.890625 26.703125 6.890625 
Q 35.15625 6.890625 40.078125 11.328125 
Q 45.015625 15.765625 45.015625 23.390625 
Q 45.015625 31 40.078125 35.4375 
Q 35.15625 39.890625 26.703125 39.890625 
Q 22.75 39.890625 18.8125 39.015625 
Q 14.890625 38.140625 10.796875 36.28125 
z
" id="DejaVuSans-53"/>
       </defs>
       <use xlink:href="#DejaVuSans-50"/>
       <use x="63.623047" xlink:href="#DejaVuSans-48"/>
       <use x="127.246094" xlink:href="#DejaVuSans-50"/>
       <use x="190.869141" xlink:href="#DejaVuSans-48"/>
       <use x="254.492188" xlink:href="#DejaVuSans-45"/>
       <use x="290.576172" xlink:href="#DejaVuSans-48"/>
       <use x="354.199219" xlink:href="#DejaVuSans-53"/>
      </g>
     </g>
    </g>
    <g id="xtick_4">
     <g id="line2d_4">
      <g>
       <use style="stroke:#000000;stroke-width:0.8;" x="209.665204" xlink:href="#m4fb51f0f6a" y="307.584"/>
      </g>
     </g>
     <g id="text_4">
      <!-- 2020-07 -->
      <g transform="translate(188.773798 322.182437)scale(0.1 -0.1)">
       <defs>
        <path d="M 8.203125 72.90625 
L 55.078125 72.90625 
L 55.078125 68.703125 
L 28.609375 0 
L 18.3125 0 
L 43.21875 64.59375 
L 8.203125 64.59375 
z
" id="DejaVuSans-55"/>
       </defs>
       <use xlink:href="#DejaVuSans-50"/>
       <use x="63.623047" xlink:href="#DejaVuSans-48"/>
       <use x="127.246094" xlink:href="#DejaVuSans-50"/>
       <use x="190.869141" xlink:href="#DejaVuSans-48"/>
       <use x="254.492188" xlink:href="#DejaVuSans-45"/>
       <use x="290.576172" xlink:href="#DejaVuSans-48"/>
       <use x="354.199219" xlink:href="#DejaVuSans-55"/>
      </g>
     </g>
    </g>
    <g id="xtick_5">
     <g id="line2d_5">
      <g>
       <use style="stroke:#000000;stroke-width:0.8;" x="255.937806" xlink:href="#m4fb51f0f6a" y="307.584"/>
      </g>
     </g>
     <g id="text_5">
      <!-- 2020-09 -->
      <g transform="translate(235.046399 322.182437)scale(0.1 -0.1)">
       <defs>
        <path d="M 10.984375 1.515625 
L 10.984375 10.5 
Q 14.703125 8.734375 18.5 7.8125 
Q 22.3125 6.890625 25.984375 6.890625 
Q 35.75 6.890625 40.890625 13.453125 
Q 46.046875 20.015625 46.78125 33.40625 
Q 43.953125 29.203125 39.59375 26.953125 
Q 35.25 24.703125 29.984375 24.703125 
Q 19.046875 24.703125 12.671875 31.3125 
Q 6.296875 37.9375 6.296875 49.421875 
Q 6.296875 60.640625 12.9375 67.421875 
Q 19.578125 74.21875 30.609375 74.21875 
Q 43.265625 74.21875 49.921875 64.515625 
Q 56.59375 54.828125 56.59375 36.375 
Q 56.59375 19.140625 48.40625 8.859375 
Q 40.234375 -1.421875 26.421875 -1.421875 
Q 22.703125 -1.421875 18.890625 -0.6875 
Q 15.09375 0.046875 10.984375 1.515625 
z
M 30.609375 32.421875 
Q 37.25 32.421875 41.125 36.953125 
Q 45.015625 41.5 45.015625 49.421875 
Q 45.015625 57.28125 41.125 61.84375 
Q 37.25 66.40625 30.609375 66.40625 
Q 23.96875 66.40625 20.09375 61.84375 
Q 16.21875 57.28125 16.21875 49.421875 
Q 16.21875 41.5 20.09375 36.953125 
Q 23.96875 32.421875 30.609375 32.421875 
z
" id="DejaVuSans-57"/>
       </defs>
       <use xlink:href="#DejaVuSans-50"/>
       <use x="63.623047" xlink:href="#DejaVuSans-48"/>
       <use x="127.246094" xlink:href="#DejaVuSans-50"/>
       <use x="190.869141" xlink:href="#DejaVuSans-48"/>
       <use x="254.492188" xlink:href="#DejaVuSans-45"/>
       <use x="290.576172" xlink:href="#DejaVuSans-48"/>
       <use x="354.199219" xlink:href="#DejaVuSans-57"/>
      </g>
     </g>
    </g>
    <g id="xtick_6">
     <g id="line2d_6">
      <g>
       <use style="stroke:#000000;stroke-width:0.8;" x="301.464075" xlink:href="#m4fb51f0f6a" y="307.584"/>
      </g>
     </g>
     <g id="text_6">
      <!-- 2020-11 -->
      <g transform="translate(280.572669 322.182437)scale(0.1 -0.1)">
       <use xlink:href="#DejaVuSans-50"/>
       <use x="63.623047" xlink:href="#DejaVuSans-48"/>
       <use x="127.246094" xlink:href="#DejaVuSans-50"/>
       <use x="190.869141" xlink:href="#DejaVuSans-48"/>
       <use x="254.492188" xlink:href="#DejaVuSans-45"/>
       <use x="290.576172" xlink:href="#DejaVuSans-49"/>
       <use x="354.199219" xlink:href="#DejaVuSans-49"/>
      </g>
     </g>
    </g>
    <g id="xtick_7">
     <g id="line2d_7">
      <g>
       <use style="stroke:#000000;stroke-width:0.8;" x="346.990345" xlink:href="#m4fb51f0f6a" y="307.584"/>
      </g>
     </g>
     <g id="text_7">
      <!-- 2021-01 -->
      <g transform="translate(326.098939 322.182437)scale(0.1 -0.1)">
       <use xlink:href="#DejaVuSans-50"/>
       <use x="63.623047" xlink:href="#DejaVuSans-48"/>
       <use x="127.246094" xlink:href="#DejaVuSans-50"/>
       <use x="190.869141" xlink:href="#DejaVuSans-49"/>
       <use x="254.492188" xlink:href="#DejaVuSans-45"/>
       <use x="290.576172" xlink:href="#DejaVuSans-48"/>
       <use x="354.199219" xlink:href="#DejaVuSans-49"/>
      </g>
     </g>
    </g>
    <g id="xtick_8">
     <g id="line2d_8">
      <g>
       <use style="stroke:#000000;stroke-width:0.8;" x="391.02395" xlink:href="#m4fb51f0f6a" y="307.584"/>
      </g>
     </g>
     <g id="text_8">
      <!-- 2021-03 -->
      <g transform="translate(370.132544 322.182437)scale(0.1 -0.1)">
       <use xlink:href="#DejaVuSans-50"/>
       <use x="63.623047" xlink:href="#DejaVuSans-48"/>
       <use x="127.246094" xlink:href="#DejaVuSans-50"/>
       <use x="190.869141" xlink:href="#DejaVuSans-49"/>
       <use x="254.492188" xlink:href="#DejaVuSans-45"/>
       <use x="290.576172" xlink:href="#DejaVuSans-48"/>
       <use x="354.199219" xlink:href="#DejaVuSans-51"/>
      </g>
     </g>
    </g>
   </g>
   <g id="matplotlib.axis_2">
    <g id="ytick_1">
     <g id="line2d_9">
      <defs>
       <path d="M 0 0 
L -3.5 0 
" id="m877607b39f" style="stroke:#000000;stroke-width:0.8;"/>
      </defs>
      <g>
       <use style="stroke:#000000;stroke-width:0.8;" x="57.6" xlink:href="#m877607b39f" y="307.584"/>
      </g>
     </g>
     <g id="text_9">
      <!-- 0 -->
      <g transform="translate(44.2375 311.383219)scale(0.1 -0.1)">
       <use xlink:href="#DejaVuSans-48"/>
      </g>
     </g>
    </g>
    <g id="ytick_2">
     <g id="line2d_10">
      <g>
       <use style="stroke:#000000;stroke-width:0.8;" x="57.6" xlink:href="#m877607b39f" y="252.737804"/>
      </g>
     </g>
     <g id="text_10">
      <!-- 20 -->
      <g transform="translate(37.875 256.537023)scale(0.1 -0.1)">
       <use xlink:href="#DejaVuSans-50"/>
       <use x="63.623047" xlink:href="#DejaVuSans-48"/>
      </g>
     </g>
    </g>
    <g id="ytick_3">
     <g id="line2d_11">
      <g>
       <use style="stroke:#000000;stroke-width:0.8;" x="57.6" xlink:href="#m877607b39f" y="197.891609"/>
      </g>
     </g>
     <g id="text_11">
      <!-- 40 -->
      <g transform="translate(37.875 201.690827)scale(0.1 -0.1)">
       <defs>
        <path d="M 37.796875 64.3125 
L 12.890625 25.390625 
L 37.796875 25.390625 
z
M 35.203125 72.90625 
L 47.609375 72.90625 
L 47.609375 25.390625 
L 58.015625 25.390625 
L 58.015625 17.1875 
L 47.609375 17.1875 
L 47.609375 0 
L 37.796875 0 
L 37.796875 17.1875 
L 4.890625 17.1875 
L 4.890625 26.703125 
z
" id="DejaVuSans-52"/>
       </defs>
       <use xlink:href="#DejaVuSans-52"/>
       <use x="63.623047" xlink:href="#DejaVuSans-48"/>
      </g>
     </g>
    </g>
    <g id="ytick_4">
     <g id="line2d_12">
      <g>
       <use style="stroke:#000000;stroke-width:0.8;" x="57.6" xlink:href="#m877607b39f" y="143.045413"/>
      </g>
     </g>
     <g id="text_12">
      <!-- 60 -->
      <g transform="translate(37.875 146.844632)scale(0.1 -0.1)">
       <defs>
        <path d="M 33.015625 40.375 
Q 26.375 40.375 22.484375 35.828125 
Q 18.609375 31.296875 18.609375 23.390625 
Q 18.609375 15.53125 22.484375 10.953125 
Q 26.375 6.390625 33.015625 6.390625 
Q 39.65625 6.390625 43.53125 10.953125 
Q 47.40625 15.53125 47.40625 23.390625 
Q 47.40625 31.296875 43.53125 35.828125 
Q 39.65625 40.375 33.015625 40.375 
z
M 52.59375 71.296875 
L 52.59375 62.3125 
Q 48.875 64.0625 45.09375 64.984375 
Q 41.3125 65.921875 37.59375 65.921875 
Q 27.828125 65.921875 22.671875 59.328125 
Q 17.53125 52.734375 16.796875 39.40625 
Q 19.671875 43.65625 24.015625 45.921875 
Q 28.375 48.1875 33.59375 48.1875 
Q 44.578125 48.1875 50.953125 41.515625 
Q 57.328125 34.859375 57.328125 23.390625 
Q 57.328125 12.15625 50.6875 5.359375 
Q 44.046875 -1.421875 33.015625 -1.421875 
Q 20.359375 -1.421875 13.671875 8.265625 
Q 6.984375 17.96875 6.984375 36.375 
Q 6.984375 53.65625 15.1875 63.9375 
Q 23.390625 74.21875 37.203125 74.21875 
Q 40.921875 74.21875 44.703125 73.484375 
Q 48.484375 72.75 52.59375 71.296875 
z
" id="DejaVuSans-54"/>
       </defs>
       <use xlink:href="#DejaVuSans-54"/>
       <use x="63.623047" xlink:href="#DejaVuSans-48"/>
      </g>
     </g>
    </g>
    <g id="ytick_5">
     <g id="line2d_13">
      <g>
       <use style="stroke:#000000;stroke-width:0.8;" x="57.6" xlink:href="#m877607b39f" y="88.199217"/>
      </g>
     </g>
     <g id="text_13">
      <!-- 80 -->
      <g transform="translate(37.875 91.998436)scale(0.1 -0.1)">
       <defs>
        <path d="M 31.78125 34.625 
Q 24.75 34.625 20.71875 30.859375 
Q 16.703125 27.09375 16.703125 20.515625 
Q 16.703125 13.921875 20.71875 10.15625 
Q 24.75 6.390625 31.78125 6.390625 
Q 38.8125 6.390625 42.859375 10.171875 
Q 46.921875 13.96875 46.921875 20.515625 
Q 46.921875 27.09375 42.890625 30.859375 
Q 38.875 34.625 31.78125 34.625 
z
M 21.921875 38.8125 
Q 15.578125 40.375 12.03125 44.71875 
Q 8.5 49.078125 8.5 55.328125 
Q 8.5 64.0625 14.71875 69.140625 
Q 20.953125 74.21875 31.78125 74.21875 
Q 42.671875 74.21875 48.875 69.140625 
Q 55.078125 64.0625 55.078125 55.328125 
Q 55.078125 49.078125 51.53125 44.71875 
Q 48 40.375 41.703125 38.8125 
Q 48.828125 37.15625 52.796875 32.3125 
Q 56.78125 27.484375 56.78125 20.515625 
Q 56.78125 9.90625 50.3125 4.234375 
Q 43.84375 -1.421875 31.78125 -1.421875 
Q 19.734375 -1.421875 13.25 4.234375 
Q 6.78125 9.90625 6.78125 20.515625 
Q 6.78125 27.484375 10.78125 32.3125 
Q 14.796875 37.15625 21.921875 38.8125 
z
M 18.3125 54.390625 
Q 18.3125 48.734375 21.84375 45.5625 
Q 25.390625 42.390625 31.78125 42.390625 
Q 38.140625 42.390625 41.71875 45.5625 
Q 45.3125 48.734375 45.3125 54.390625 
Q 45.3125 60.0625 41.71875 63.234375 
Q 38.140625 66.40625 31.78125 66.40625 
Q 25.390625 66.40625 21.84375 63.234375 
Q 18.3125 60.0625 18.3125 54.390625 
z
" id="DejaVuSans-56"/>
       </defs>
       <use xlink:href="#DejaVuSans-56"/>
       <use x="63.623047" xlink:href="#DejaVuSans-48"/>
      </g>
     </g>
    </g>
   </g>
   <g id="line2d_14">
    <path clip-path="url(#pd01b5db497)" d="M 85.774044 97.180857 
L 86.520376 95.240129 
L 87.266708 101.231011 
L 88.013041 111.05472 
L 88.759373 124.883952 
L 89.505705 132.829304 
L 90.252038 136.328362 
L 91.744702 145.760011 
L 92.491034 147.647684 
L 93.237367 137.92571 
L 93.983699 132.834745 
L 94.730031 131.873268 
L 95.476364 132.106165 
L 96.222696 136.051707 
L 96.969028 137.270218 
L 97.715361 139.395402 
L 98.461693 134.134065 
L 99.208025 133.931255 
L 99.954357 129.950441 
L 100.70069 118.609277 
L 101.447022 102.453165 
L 102.193354 90.596181 
L 102.939687 86.845899 
L 103.686019 94.176634 
L 104.432351 106.194791 
L 105.178683 114.721453 
L 105.925016 117.812477 
L 106.671348 113.617264 
L 107.41768 124.594831 
L 108.164013 128.917355 
L 108.910345 143.155932 
L 109.656677 137.89166 
L 110.403009 148.531446 
L 111.149342 157.329816 
L 111.895674 174.0161 
L 112.642006 177.542714 
L 114.134671 179.470375 
L 114.881003 189.903437 
L 116.373668 223.598127 
L 117.12 231.990491 
L 117.866332 231.939126 
L 118.612665 233.370751 
L 119.358997 222.36098 
L 120.105329 224.501859 
L 120.851661 220.053869 
L 121.597994 218.642593 
L 122.344326 205.657371 
L 123.090658 201.326665 
L 124.583323 231.812584 
L 125.329655 241.72446 
L 126.075987 232.199611 
L 126.82232 240.612855 
L 127.568652 241.424569 
L 128.314984 249.208325 
L 129.061317 238.679876 
L 129.807649 243.215844 
L 130.553981 242.820369 
L 131.300313 243.64018 
L 132.046646 234.453335 
L 133.53931 225.013706 
L 134.285643 222.868614 
L 136.524639 195.479727 
L 137.270972 166.556102 
L 138.017304 150.963481 
L 138.763636 129.580226 
L 139.509969 142.683549 
L 140.256301 135.135511 
L 141.002633 135.41523 
L 141.748966 126.911744 
L 142.495298 134.302788 
L 143.987962 145.336331 
L 145.480627 134.113864 
L 146.226959 136.246777 
L 146.973292 139.838494 
L 147.719624 144.399737 
L 148.465956 143.747663 
L 149.212288 144.44097 
L 149.958621 134.959827 
L 150.704953 133.189474 
L 151.451285 133.429506 
L 152.197618 151.878275 
L 152.94395 155.552709 
L 153.690282 159.892933 
L 154.436614 152.555542 
L 155.182947 152.014381 
L 156.675611 180.312631 
L 157.421944 191.165923 
L 158.168276 178.180837 
L 159.66094 140.478895 
L 160.407273 128.6591 
L 161.153605 123.769376 
L 161.899937 120.135051 
L 162.64627 104.722435 
L 163.392602 98.219192 
L 164.138934 87.476194 
L 164.885266 90.820599 
L 165.631599 86.350918 
L 167.870596 61.629179 
L 168.616928 60.174111 
L 169.36326 63.866227 
L 170.109592 72.719846 
L 171.602257 122.501261 
L 172.348589 138.650567 
L 173.094922 144.010338 
L 173.841254 140.187376 
L 174.587586 146.379749 
L 175.333918 148.805714 
L 176.080251 154.150178 
L 177.572915 147.545668 
L 178.319248 151.641774 
L 179.06558 169.653119 
L 179.811912 184.111114 
L 180.558245 192.042823 
L 182.050909 171.659491 
L 182.797241 166.855454 
L 183.543574 168.004731 
L 184.289906 175.185709 
L 185.036238 173.569367 
L 185.782571 167.319215 
L 186.528903 167.340014 
L 187.275235 163.045118 
L 188.021567 170.183775 
L 188.7679 165.139755 
L 189.514232 162.749529 
L 190.260564 154.842193 
L 191.006897 150.705417 
L 191.753229 145.855158 
L 193.245893 132.222689 
L 193.992226 135.288113 
L 194.738558 150.8913 
L 196.231223 176.488328 
L 196.977555 174.371026 
L 197.723887 190.570543 
L 198.470219 187.433689 
L 199.216552 191.163017 
L 199.962884 186.402032 
L 200.709216 195.615373 
L 201.455549 199.322442 
L 202.201881 201.767711 
L 202.948213 195.055017 
L 203.694545 189.606397 
L 204.440878 188.444761 
L 205.18721 186.937066 
L 205.933542 192.411936 
L 206.679875 192.826695 
L 207.426207 197.730495 
L 208.172539 195.03786 
L 208.918871 194.030465 
L 209.665204 194.714308 
L 210.411536 196.31705 
L 211.157868 191.890874 
L 211.904201 191.430189 
L 212.650533 189.238602 
L 213.396865 192.56974 
L 214.143197 196.991276 
L 215.635862 177.241904 
L 216.382194 162.869433 
L 217.128527 159.040805 
L 217.874859 152.605624 
L 218.621191 154.57206 
L 219.367524 158.568907 
L 220.113856 166.41794 
L 221.60652 166.463501 
L 222.352853 163.434644 
L 223.099185 159.557403 
L 223.845517 172.510475 
L 224.59185 168.758788 
L 225.338182 169.360896 
L 226.084514 141.290076 
L 226.830846 133.739622 
L 227.577179 117.780257 
L 228.323511 112.025191 
L 229.069843 88.091361 
L 230.562508 62.90448 
L 231.30884 61.433657 
L 232.055172 56.518673 
L 232.801505 53.210697 
L 235.040502 100.845054 
L 235.786834 98.978449 
L 236.533166 99.262369 
L 237.279498 98.546979 
L 238.025831 100.20794 
L 238.772163 104.384107 
L 239.518495 114.271701 
L 240.264828 131.001599 
L 241.01116 145.087777 
L 241.757492 149.878631 
L 242.503824 150.955117 
L 243.250157 156.422023 
L 243.996489 148.916936 
L 245.489154 124.880952 
L 247.72815 169.114022 
L 248.474483 171.86023 
L 249.220815 173.997245 
L 249.967147 175.316169 
L 250.71348 175.044294 
L 251.459812 176.462359 
L 252.206144 182.632423 
L 252.952476 186.092069 
L 253.698809 191.152721 
L 254.445141 185.866626 
L 255.191473 193.451999 
L 255.937806 186.380086 
L 256.684138 189.639024 
L 257.43047 197.779689 
L 258.176803 211.177282 
L 258.923135 222.29368 
L 259.669467 217.88952 
L 260.415799 220.48753 
L 261.162132 217.27265 
L 261.908464 216.432807 
L 262.654796 212.632897 
L 263.401129 212.273496 
L 264.147461 210.134888 
L 264.893793 215.940537 
L 265.640125 213.811854 
L 266.386458 215.005027 
L 267.13279 203.408394 
L 269.371787 118.018896 
L 270.118119 116.77981 
L 270.864451 127.205759 
L 272.357116 159.303368 
L 273.103448 153.590937 
L 273.849781 157.6467 
L 274.596113 153.041435 
L 275.342445 151.812259 
L 276.088777 156.968328 
L 276.83511 161.295227 
L 277.581442 173.322649 
L 278.327774 179.979954 
L 279.820439 195.199 
L 280.566771 194.213507 
L 281.313103 178.077206 
L 282.059436 165.018705 
L 282.805768 147.081675 
L 283.5521 149.200605 
L 284.298433 139.639379 
L 285.044765 135.995938 
L 286.537429 114.583609 
L 287.283762 113.703132 
L 288.030094 112.22298 
L 288.776426 108.61816 
L 290.269091 102.329301 
L 291.015423 106.799633 
L 291.761755 103.319209 
L 292.508088 93.694857 
L 294.000752 68.152525 
L 294.747085 66.469976 
L 295.493417 69.483504 
L 296.239749 75.127848 
L 296.986082 79.025421 
L 297.732414 77.046016 
L 298.478746 80.86348 
L 299.225078 83.39225 
L 299.971411 86.812126 
L 300.717743 80.794254 
L 301.464075 76.6971 
L 302.95674 88.437604 
L 303.703072 97.239817 
L 305.195737 89.831813 
L 305.942069 94.474408 
L 306.688401 101.546447 
L 307.434734 111.529424 
L 308.181066 112.589703 
L 308.927398 110.717172 
L 309.67373 105.561306 
L 310.420063 96.695685 
L 311.166395 99.464259 
L 311.912727 104.944694 
L 312.65906 104.408858 
L 314.151724 90.61557 
L 314.898056 94.26363 
L 315.644389 96.185229 
L 317.137053 78.976822 
L 317.883386 72.960344 
L 318.629718 74.880079 
L 319.37605 77.345387 
L 320.868715 129.647383 
L 321.615047 145.20544 
L 322.361379 136.874097 
L 323.107712 125.055757 
L 323.854044 130.17144 
L 324.600376 136.906205 
L 325.346708 145.923997 
L 326.093041 152.623986 
L 326.839373 158.317026 
L 327.585705 162.066938 
L 328.332038 157.725112 
L 329.824702 170.847515 
L 330.571034 168.58614 
L 331.317367 158.874969 
L 332.063699 151.429927 
L 332.810031 152.215503 
L 333.556364 161.019179 
L 334.302696 161.882571 
L 335.049028 153.461808 
L 336.541693 109.922325 
L 337.288025 96.942474 
L 338.034357 92.223142 
L 338.78069 99.701832 
L 339.527022 97.930515 
L 340.273354 98.152721 
L 341.019687 90.037809 
L 341.766019 88.615984 
L 342.512351 80.526389 
L 343.258683 77.605579 
L 344.005016 76.850151 
L 344.751348 77.318981 
L 345.49768 76.76641 
L 346.990345 81.534889 
L 347.736677 80.533255 
L 348.483009 74.766291 
L 349.229342 70.448381 
L 349.975674 68.29583 
L 350.722006 63.964902 
L 352.214671 51.364206 
L 352.961003 53.509591 
L 353.707335 64.617683 
L 355.2 107.883064 
L 355.946332 120.226069 
L 356.692665 120.360065 
L 357.438997 122.469544 
L 358.185329 131.789248 
L 358.931661 145.126331 
L 359.677994 149.272974 
L 360.424326 152.494566 
L 361.170658 160.568016 
L 361.916991 187.274957 
L 362.663323 207.546394 
L 363.409655 221.41833 
L 364.155987 216.736368 
L 364.90232 208.855449 
L 365.648652 197.570845 
L 366.394984 202.699339 
L 367.141317 209.228779 
L 367.887649 211.439701 
L 368.633981 198.612205 
L 369.380313 191.503901 
L 370.126646 193.002806 
L 370.872978 188.911262 
L 371.61931 176.549063 
L 372.365643 149.18286 
L 373.858307 113.20132 
L 374.604639 111.200965 
L 375.350972 98.815243 
L 376.097304 92.574669 
L 376.843636 81.897548 
L 377.589969 79.729647 
L 378.336301 79.656204 
L 379.082633 82.590903 
L 380.575298 78.507719 
L 381.32163 76.089463 
L 382.067962 78.071318 
L 382.814295 77.95107 
L 383.560627 75.375903 
L 384.306959 73.957961 
L 385.053292 70.481698 
L 385.799624 85.821058 
L 387.292288 137.528173 
L 388.038621 155.36221 
L 388.784953 162.798047 
L 389.531285 173.150366 
L 390.277618 178.9231 
L 391.02395 174.577733 
L 391.770282 174.542526 
L 392.516614 171.605024 
L 393.262947 179.326171 
L 394.755611 203.73176 
L 395.501944 212.133 
L 396.248276 201.907147 
L 398.487273 121.56738 
L 398.487273 121.56738 
" style="fill:none;stroke:#ff6347;stroke-linecap:square;stroke-width:1.5;"/>
   </g>
   <g id="patch_3">
    <path d="M 57.6 307.584 
L 57.6 41.472 
" style="fill:none;stroke:#000000;stroke-linecap:square;stroke-linejoin:miter;stroke-width:0.8;"/>
   </g>
   <g id="patch_4">
    <path d="M 414.72 307.584 
L 414.72 41.472 
" style="fill:none;stroke:#000000;stroke-linecap:square;stroke-linejoin:miter;stroke-width:0.8;"/>
   </g>
   <g id="patch_5">
    <path d="M 57.6 307.584 
L 414.72 307.584 
" style="fill:none;stroke:#000000;stroke-linecap:square;stroke-linejoin:miter;stroke-width:0.8;"/>
   </g>
   <g id="patch_6">
    <path d="M 57.6 41.472 
L 414.72 41.472 
" style="fill:none;stroke:#000000;stroke-linecap:square;stroke-linejoin:miter;stroke-width:0.8;"/>
   </g>
   <g id="text_14">
    <!-- Data source: nomics -->
    <g transform="translate(184.91625 35.472)scale(0.1 -0.1)">
     <defs>
      <path d="M 19.671875 64.796875 
L 19.671875 8.109375 
L 31.59375 8.109375 
Q 46.6875 8.109375 53.6875 14.9375 
Q 60.6875 21.78125 60.6875 36.53125 
Q 60.6875 51.171875 53.6875 57.984375 
Q 46.6875 64.796875 31.59375 64.796875 
z
M 9.8125 72.90625 
L 30.078125 72.90625 
Q 51.265625 72.90625 61.171875 64.09375 
Q 71.09375 55.28125 71.09375 36.53125 
Q 71.09375 17.671875 61.125 8.828125 
Q 51.171875 0 30.078125 0 
L 9.8125 0 
z
" id="DejaVuSans-68"/>
      <path d="M 34.28125 27.484375 
Q 23.390625 27.484375 19.1875 25 
Q 14.984375 22.515625 14.984375 16.5 
Q 14.984375 11.71875 18.140625 8.90625 
Q 21.296875 6.109375 26.703125 6.109375 
Q 34.1875 6.109375 38.703125 11.40625 
Q 43.21875 16.703125 43.21875 25.484375 
L 43.21875 27.484375 
z
M 52.203125 31.203125 
L 52.203125 0 
L 43.21875 0 
L 43.21875 8.296875 
Q 40.140625 3.328125 35.546875 0.953125 
Q 30.953125 -1.421875 24.3125 -1.421875 
Q 15.921875 -1.421875 10.953125 3.296875 
Q 6 8.015625 6 15.921875 
Q 6 25.140625 12.171875 29.828125 
Q 18.359375 34.515625 30.609375 34.515625 
L 43.21875 34.515625 
L 43.21875 35.40625 
Q 43.21875 41.609375 39.140625 45 
Q 35.0625 48.390625 27.6875 48.390625 
Q 23 48.390625 18.546875 47.265625 
Q 14.109375 46.140625 10.015625 43.890625 
L 10.015625 52.203125 
Q 14.9375 54.109375 19.578125 55.046875 
Q 24.21875 56 28.609375 56 
Q 40.484375 56 46.34375 49.84375 
Q 52.203125 43.703125 52.203125 31.203125 
z
" id="DejaVuSans-97"/>
      <path d="M 18.3125 70.21875 
L 18.3125 54.6875 
L 36.8125 54.6875 
L 36.8125 47.703125 
L 18.3125 47.703125 
L 18.3125 18.015625 
Q 18.3125 11.328125 20.140625 9.421875 
Q 21.96875 7.515625 27.59375 7.515625 
L 36.8125 7.515625 
L 36.8125 0 
L 27.59375 0 
Q 17.1875 0 13.234375 3.875 
Q 9.28125 7.765625 9.28125 18.015625 
L 9.28125 47.703125 
L 2.6875 47.703125 
L 2.6875 54.6875 
L 9.28125 54.6875 
L 9.28125 70.21875 
z
" id="DejaVuSans-116"/>
      <path id="DejaVuSans-32"/>
      <path d="M 44.28125 53.078125 
L 44.28125 44.578125 
Q 40.484375 46.53125 36.375 47.5 
Q 32.28125 48.484375 27.875 48.484375 
Q 21.1875 48.484375 17.84375 46.4375 
Q 14.5 44.390625 14.5 40.28125 
Q 14.5 37.15625 16.890625 35.375 
Q 19.28125 33.59375 26.515625 31.984375 
L 29.59375 31.296875 
Q 39.15625 29.25 43.1875 25.515625 
Q 47.21875 21.78125 47.21875 15.09375 
Q 47.21875 7.46875 41.1875 3.015625 
Q 35.15625 -1.421875 24.609375 -1.421875 
Q 20.21875 -1.421875 15.453125 -0.5625 
Q 10.6875 0.296875 5.421875 2 
L 5.421875 11.28125 
Q 10.40625 8.6875 15.234375 7.390625 
Q 20.0625 6.109375 24.8125 6.109375 
Q 31.15625 6.109375 34.5625 8.28125 
Q 37.984375 10.453125 37.984375 14.40625 
Q 37.984375 18.0625 35.515625 20.015625 
Q 33.0625 21.96875 24.703125 23.78125 
L 21.578125 24.515625 
Q 13.234375 26.265625 9.515625 29.90625 
Q 5.8125 33.546875 5.8125 39.890625 
Q 5.8125 47.609375 11.28125 51.796875 
Q 16.75 56 26.8125 56 
Q 31.78125 56 36.171875 55.265625 
Q 40.578125 54.546875 44.28125 53.078125 
z
" id="DejaVuSans-115"/>
      <path d="M 30.609375 48.390625 
Q 23.390625 48.390625 19.1875 42.75 
Q 14.984375 37.109375 14.984375 27.296875 
Q 14.984375 17.484375 19.15625 11.84375 
Q 23.34375 6.203125 30.609375 6.203125 
Q 37.796875 6.203125 41.984375 11.859375 
Q 46.1875 17.53125 46.1875 27.296875 
Q 46.1875 37.015625 41.984375 42.703125 
Q 37.796875 48.390625 30.609375 48.390625 
z
M 30.609375 56 
Q 42.328125 56 49.015625 48.375 
Q 55.71875 40.765625 55.71875 27.296875 
Q 55.71875 13.875 49.015625 6.21875 
Q 42.328125 -1.421875 30.609375 -1.421875 
Q 18.84375 -1.421875 12.171875 6.21875 
Q 5.515625 13.875 5.515625 27.296875 
Q 5.515625 40.765625 12.171875 48.375 
Q 18.84375 56 30.609375 56 
z
" id="DejaVuSans-111"/>
      <path d="M 8.5 21.578125 
L 8.5 54.6875 
L 17.484375 54.6875 
L 17.484375 21.921875 
Q 17.484375 14.15625 20.5 10.265625 
Q 23.53125 6.390625 29.59375 6.390625 
Q 36.859375 6.390625 41.078125 11.03125 
Q 45.3125 15.671875 45.3125 23.6875 
L 45.3125 54.6875 
L 54.296875 54.6875 
L 54.296875 0 
L 45.3125 0 
L 45.3125 8.40625 
Q 42.046875 3.421875 37.71875 1 
Q 33.40625 -1.421875 27.6875 -1.421875 
Q 18.265625 -1.421875 13.375 4.4375 
Q 8.5 10.296875 8.5 21.578125 
z
M 31.109375 56 
z
" id="DejaVuSans-117"/>
      <path d="M 41.109375 46.296875 
Q 39.59375 47.171875 37.8125 47.578125 
Q 36.03125 48 33.890625 48 
Q 26.265625 48 22.1875 43.046875 
Q 18.109375 38.09375 18.109375 28.8125 
L 18.109375 0 
L 9.078125 0 
L 9.078125 54.6875 
L 18.109375 54.6875 
L 18.109375 46.1875 
Q 20.953125 51.171875 25.484375 53.578125 
Q 30.03125 56 36.53125 56 
Q 37.453125 56 38.578125 55.875 
Q 39.703125 55.765625 41.0625 55.515625 
z
" id="DejaVuSans-114"/>
      <path d="M 48.78125 52.59375 
L 48.78125 44.1875 
Q 44.96875 46.296875 41.140625 47.34375 
Q 37.3125 48.390625 33.40625 48.390625 
Q 24.65625 48.390625 19.8125 42.84375 
Q 14.984375 37.3125 14.984375 27.296875 
Q 14.984375 17.28125 19.8125 11.734375 
Q 24.65625 6.203125 33.40625 6.203125 
Q 37.3125 6.203125 41.140625 7.25 
Q 44.96875 8.296875 48.78125 10.40625 
L 48.78125 2.09375 
Q 45.015625 0.34375 40.984375 -0.53125 
Q 36.96875 -1.421875 32.421875 -1.421875 
Q 20.0625 -1.421875 12.78125 6.34375 
Q 5.515625 14.109375 5.515625 27.296875 
Q 5.515625 40.671875 12.859375 48.328125 
Q 20.21875 56 33.015625 56 
Q 37.15625 56 41.109375 55.140625 
Q 45.0625 54.296875 48.78125 52.59375 
z
" id="DejaVuSans-99"/>
      <path d="M 56.203125 29.59375 
L 56.203125 25.203125 
L 14.890625 25.203125 
Q 15.484375 15.921875 20.484375 11.0625 
Q 25.484375 6.203125 34.421875 6.203125 
Q 39.59375 6.203125 44.453125 7.46875 
Q 49.3125 8.734375 54.109375 11.28125 
L 54.109375 2.78125 
Q 49.265625 0.734375 44.1875 -0.34375 
Q 39.109375 -1.421875 33.890625 -1.421875 
Q 20.796875 -1.421875 13.15625 6.1875 
Q 5.515625 13.8125 5.515625 26.8125 
Q 5.515625 40.234375 12.765625 48.109375 
Q 20.015625 56 32.328125 56 
Q 43.359375 56 49.78125 48.890625 
Q 56.203125 41.796875 56.203125 29.59375 
z
M 47.21875 32.234375 
Q 47.125 39.59375 43.09375 43.984375 
Q 39.0625 48.390625 32.421875 48.390625 
Q 24.90625 48.390625 20.390625 44.140625 
Q 15.875 39.890625 15.1875 32.171875 
z
" id="DejaVuSans-101"/>
      <path d="M 11.71875 12.40625 
L 22.015625 12.40625 
L 22.015625 0 
L 11.71875 0 
z
M 11.71875 51.703125 
L 22.015625 51.703125 
L 22.015625 39.3125 
L 11.71875 39.3125 
z
" id="DejaVuSans-58"/>
      <path d="M 54.890625 33.015625 
L 54.890625 0 
L 45.90625 0 
L 45.90625 32.71875 
Q 45.90625 40.484375 42.875 44.328125 
Q 39.84375 48.1875 33.796875 48.1875 
Q 26.515625 48.1875 22.3125 43.546875 
Q 18.109375 38.921875 18.109375 30.90625 
L 18.109375 0 
L 9.078125 0 
L 9.078125 54.6875 
L 18.109375 54.6875 
L 18.109375 46.1875 
Q 21.34375 51.125 25.703125 53.5625 
Q 30.078125 56 35.796875 56 
Q 45.21875 56 50.046875 50.171875 
Q 54.890625 44.34375 54.890625 33.015625 
z
" id="DejaVuSans-110"/>
      <path d="M 52 44.1875 
Q 55.375 50.25 60.0625 53.125 
Q 64.75 56 71.09375 56 
Q 79.640625 56 84.28125 50.015625 
Q 88.921875 44.046875 88.921875 33.015625 
L 88.921875 0 
L 79.890625 0 
L 79.890625 32.71875 
Q 79.890625 40.578125 77.09375 44.375 
Q 74.3125 48.1875 68.609375 48.1875 
Q 61.625 48.1875 57.5625 43.546875 
Q 53.515625 38.921875 53.515625 30.90625 
L 53.515625 0 
L 44.484375 0 
L 44.484375 32.71875 
Q 44.484375 40.625 41.703125 44.40625 
Q 38.921875 48.1875 33.109375 48.1875 
Q 26.21875 48.1875 22.15625 43.53125 
Q 18.109375 38.875 18.109375 30.90625 
L 18.109375 0 
L 9.078125 0 
L 9.078125 54.6875 
L 18.109375 54.6875 
L 18.109375 46.1875 
Q 21.1875 51.21875 25.484375 53.609375 
Q 29.78125 56 35.6875 56 
Q 41.65625 56 45.828125 52.96875 
Q 50 49.953125 52 44.1875 
z
" id="DejaVuSans-109"/>
      <path d="M 9.421875 54.6875 
L 18.40625 54.6875 
L 18.40625 0 
L 9.421875 0 
z
M 9.421875 75.984375 
L 18.40625 75.984375 
L 18.40625 64.59375 
L 9.421875 64.59375 
z
" id="DejaVuSans-105"/>
     </defs>
     <use xlink:href="#DejaVuSans-68"/>
     <use x="77.001953" xlink:href="#DejaVuSans-97"/>
     <use x="138.28125" xlink:href="#DejaVuSans-116"/>
     <use x="177.490234" xlink:href="#DejaVuSans-97"/>
     <use x="238.769531" xlink:href="#DejaVuSans-32"/>
     <use x="270.556641" xlink:href="#DejaVuSans-115"/>
     <use x="322.65625" xlink:href="#DejaVuSans-111"/>
     <use x="383.837891" xlink:href="#DejaVuSans-117"/>
     <use x="447.216797" xlink:href="#DejaVuSans-114"/>
     <use x="486.080078" xlink:href="#DejaVuSans-99"/>
     <use x="541.060547" xlink:href="#DejaVuSans-101"/>
     <use x="602.583984" xlink:href="#DejaVuSans-58"/>
     <use x="636.275391" xlink:href="#DejaVuSans-32"/>
     <use x="668.0625" xlink:href="#DejaVuSans-110"/>
     <use x="731.441406" xlink:href="#DejaVuSans-111"/>
     <use x="792.623047" xlink:href="#DejaVuSans-109"/>
     <use x="890.035156" xlink:href="#DejaVuSans-105"/>
     <use x="917.818359" xlink:href="#DejaVuSans-99"/>
     <use x="972.798828" xlink:href="#DejaVuSans-115"/>
    </g>
   </g>
   <g id="legend_1">
    <g id="patch_7">
     <path d="M 359.473125 64.150125 
L 407.72 64.150125 
Q 409.72 64.150125 409.72 62.150125 
L 409.72 48.472 
Q 409.72 46.472 407.72 46.472 
L 359.473125 46.472 
Q 357.473125 46.472 357.473125 48.472 
L 357.473125 62.150125 
Q 357.473125 64.150125 359.473125 64.150125 
z
" style="fill:#ffffff;opacity:0.8;stroke:#cccccc;stroke-linejoin:miter;"/>
    </g>
    <g id="line2d_15">
     <path d="M 361.473125 54.570438 
L 381.473125 54.570438 
" style="fill:none;stroke:#ff6347;stroke-linecap:square;stroke-width:1.5;"/>
    </g>
    <g id="line2d_16"/>
    <g id="text_15">
     <!-- RSI -->
     <g transform="translate(389.473125 58.070438)scale(0.1 -0.1)">
      <defs>
       <path d="M 44.390625 34.1875 
Q 47.5625 33.109375 50.5625 29.59375 
Q 53.5625 26.078125 56.59375 19.921875 
L 66.609375 0 
L 56 0 
L 46.6875 18.703125 
Q 43.0625 26.03125 39.671875 28.421875 
Q 36.28125 30.8125 30.421875 30.8125 
L 19.671875 30.8125 
L 19.671875 0 
L 9.8125 0 
L 9.8125 72.90625 
L 32.078125 72.90625 
Q 44.578125 72.90625 50.734375 67.671875 
Q 56.890625 62.453125 56.890625 51.90625 
Q 56.890625 45.015625 53.6875 40.46875 
Q 50.484375 35.9375 44.390625 34.1875 
z
M 19.671875 64.796875 
L 19.671875 38.921875 
L 32.078125 38.921875 
Q 39.203125 38.921875 42.84375 42.21875 
Q 46.484375 45.515625 46.484375 51.90625 
Q 46.484375 58.296875 42.84375 61.546875 
Q 39.203125 64.796875 32.078125 64.796875 
z
" id="DejaVuSans-82"/>
       <path d="M 53.515625 70.515625 
L 53.515625 60.890625 
Q 47.90625 63.578125 42.921875 64.890625 
Q 37.9375 66.21875 33.296875 66.21875 
Q 25.25 66.21875 20.875 63.09375 
Q 16.5 59.96875 16.5 54.203125 
Q 16.5 49.359375 19.40625 46.890625 
Q 22.3125 44.4375 30.421875 42.921875 
L 36.375 41.703125 
Q 47.40625 39.59375 52.65625 34.296875 
Q 57.90625 29 57.90625 20.125 
Q 57.90625 9.515625 50.796875 4.046875 
Q 43.703125 -1.421875 29.984375 -1.421875 
Q 24.8125 -1.421875 18.96875 -0.25 
Q 13.140625 0.921875 6.890625 3.21875 
L 6.890625 13.375 
Q 12.890625 10.015625 18.65625 8.296875 
Q 24.421875 6.59375 29.984375 6.59375 
Q 38.421875 6.59375 43.015625 9.90625 
Q 47.609375 13.234375 47.609375 19.390625 
Q 47.609375 24.75 44.3125 27.78125 
Q 41.015625 30.8125 33.5 32.328125 
L 27.484375 33.5 
Q 16.453125 35.6875 11.515625 40.375 
Q 6.59375 45.0625 6.59375 53.421875 
Q 6.59375 63.09375 13.40625 68.65625 
Q 20.21875 74.21875 32.171875 74.21875 
Q 37.3125 74.21875 42.625 73.28125 
Q 47.953125 72.359375 53.515625 70.515625 
z
" id="DejaVuSans-83"/>
       <path d="M 9.8125 72.90625 
L 19.671875 72.90625 
L 19.671875 0 
L 9.8125 0 
z
" id="DejaVuSans-73"/>
      </defs>
      <use xlink:href="#DejaVuSans-82"/>
      <use x="69.482422" xlink:href="#DejaVuSans-83"/>
      <use x="132.958984" xlink:href="#DejaVuSans-73"/>
     </g>
    </g>
   </g>
  </g>
  <g id="text_16">
   <!-- RSI -->
   <g transform="translate(217.4025 19.0695)scale(0.16 -0.16)">
    <use xlink:href="#DejaVuSans-82"/>
    <use x="69.482422" xlink:href="#DejaVuSans-83"/>
    <use x="132.958984" xlink:href="#DejaVuSans-73"/>
   </g>
  </g>
 </g>
 <defs>
  <clipPath id="pd01b5db497">
   <rect height="266.112" width="357.12" x="57.6" y="41.472"/>
  </clipPath>
 </defs>
</svg>
