<?xml version="1.0" encoding="utf-8" standalone="no"?>
<!DOCTYPE svg PUBLIC "-//W3C//DTD SVG 1.1//EN"
  "http://www.w3.org/Graphics/SVG/1.1/DTD/svg11.dtd">
<!-- Created with matplotlib (https://matplotlib.org/) -->
<svg height="345.6pt" version="1.1" viewBox="0 0 460.8 345.6" width="460.8pt" xmlns="http://www.w3.org/2000/svg" xmlns:xlink="http://www.w3.org/1999/xlink">
 <metadata>
  <rdf:RDF xmlns:cc="http://creativecommons.org/ns#" xmlns:dc="http://purl.org/dc/elements/1.1/" xmlns:rdf="http://www.w3.org/1999/02/22-rdf-syntax-ns#">
   <cc:Work>
    <dc:type rdf:resource="http://purl.org/dc/dcmitype/StillImage"/>
    <dc:date>2021-01-01T19:00:33.664409</dc:date>
    <dc:format>image/svg+xml</dc:format>
    <dc:creator>
     <cc:Agent>
      <dc:title>Matplotlib v3.3.2, https://matplotlib.org/</dc:title>
     </cc:Agent>
    </dc:creator>
   </cc:Work>
  </rdf:RDF>
 </metadata>
 <defs>
  <style type="text/css">*{stroke-linecap:butt;stroke-linejoin:round;}</style>
 </defs>
 <g id="figure_1">
  <g id="patch_1">
   <path d="M 0 345.6 
L 460.8 345.6 
L 460.8 0 
L 0 0 
z
" style="fill:#ffffff;"/>
  </g>
  <g id="axes_1">
   <g id="patch_2">
    <path d="M 57.6 307.584 
L 414.72 307.584 
L 414.72 41.472 
L 57.6 41.472 
z
" style="fill:#ffffff;"/>
   </g>
   <g id="PolyCollection_1">
    <defs>
     <path d="M 73.832727 -231.475612 
L 73.832727 -120.927262 
L 74.719762 -120.927262 
L 75.606796 -120.927262 
L 76.49383 -120.927262 
L 77.380864 -120.927262 
L 78.267899 -120.927262 
L 79.154933 -120.927262 
L 80.041967 -120.927262 
L 80.929001 -120.927262 
L 81.816036 -120.927262 
L 82.70307 -120.927262 
L 83.590104 -120.927262 
L 84.477139 -120.927262 
L 85.364173 -120.927262 
L 86.251207 -120.927262 
L 87.138241 -120.927262 
L 88.025276 -120.927262 
L 88.91231 -120.927262 
L 89.799344 -120.927262 
L 90.686379 -120.927262 
L 91.573413 -120.927262 
L 92.460447 -120.927262 
L 93.347481 -120.927262 
L 94.234516 -120.927262 
L 95.12155 -120.927262 
L 96.008584 -120.927262 
L 96.895618 -120.927262 
L 97.782653 -120.927262 
L 98.669687 -120.927262 
L 99.556721 -120.927262 
L 100.443756 -120.927262 
L 101.33079 -120.927262 
L 102.217824 -120.927262 
L 103.104858 -120.927262 
L 103.991893 -120.927262 
L 104.878927 -120.927262 
L 105.765961 -120.927262 
L 106.652996 -120.927262 
L 107.54003 -120.927262 
L 108.427064 -120.927262 
L 109.314098 -120.927262 
L 110.201133 -120.927262 
L 111.088167 -120.927262 
L 111.975201 -120.927262 
L 112.862235 -120.927262 
L 113.74927 -120.927262 
L 114.636304 -120.927262 
L 115.523338 -120.927262 
L 116.410373 -120.927262 
L 117.297407 -120.927262 
L 118.184441 -120.927262 
L 119.071475 -120.927262 
L 119.95851 -120.927262 
L 120.845544 -120.927262 
L 121.732578 -120.927262 
L 122.619613 -120.927262 
L 123.506647 -120.927262 
L 124.393681 -120.927262 
L 125.280715 -120.927262 
L 126.16775 -120.927262 
L 127.054784 -120.927262 
L 127.941818 -120.927262 
L 128.828852 -120.927262 
L 129.715887 -120.927262 
L 130.602921 -120.927262 
L 131.489955 -120.927262 
L 132.37699 -120.927262 
L 133.264024 -120.927262 
L 134.151058 -120.927262 
L 135.038092 -120.927262 
L 135.925127 -120.927262 
L 136.812161 -120.927262 
L 137.699195 -120.927262 
L 138.58623 -120.927262 
L 139.473264 -120.927262 
L 140.360298 -120.927262 
L 141.247332 -120.927262 
L 142.134367 -120.927262 
L 143.021401 -120.927262 
L 143.908435 -120.927262 
L 144.795469 -120.927262 
L 145.682504 -120.927262 
L 146.569538 -120.927262 
L 147.456572 -120.927262 
L 148.343607 -120.927262 
L 149.230641 -120.927262 
L 150.117675 -120.927262 
L 151.004709 -120.927262 
L 151.891744 -120.927262 
L 152.778778 -120.927262 
L 153.665812 -120.927262 
L 154.552846 -120.927262 
L 155.439881 -120.927262 
L 156.326915 -120.927262 
L 157.213949 -120.927262 
L 158.100984 -120.927262 
L 158.988018 -120.927262 
L 159.875052 -120.927262 
L 160.762086 -120.927262 
L 161.649121 -120.927262 
L 162.536155 -120.927262 
L 163.423189 -120.927262 
L 164.310224 -120.927262 
L 165.197258 -120.927262 
L 166.084292 -120.927262 
L 166.971326 -120.927262 
L 167.858361 -120.927262 
L 168.745395 -120.927262 
L 169.632429 -120.927262 
L 170.519463 -120.927262 
L 171.406498 -120.927262 
L 172.293532 -120.927262 
L 173.180566 -120.927262 
L 174.067601 -120.927262 
L 174.954635 -120.927262 
L 175.841669 -120.927262 
L 176.728703 -120.927262 
L 177.615738 -120.927262 
L 178.502772 -120.927262 
L 179.389806 -120.927262 
L 180.276841 -120.927262 
L 181.163875 -120.927262 
L 182.050909 -120.927262 
L 182.937943 -120.927262 
L 183.824978 -120.927262 
L 184.712012 -120.927262 
L 185.599046 -120.927262 
L 186.48608 -120.927262 
L 187.373115 -120.927262 
L 188.260149 -120.927262 
L 189.147183 -120.927262 
L 190.034218 -120.927262 
L 190.921252 -120.927262 
L 191.808286 -120.927262 
L 192.69532 -120.927262 
L 193.582355 -120.927262 
L 194.469389 -120.927262 
L 195.356423 -120.927262 
L 196.243458 -120.927262 
L 197.130492 -120.927262 
L 198.017526 -120.927262 
L 198.90456 -120.927262 
L 199.791595 -120.927262 
L 200.678629 -120.927262 
L 201.565663 -120.927262 
L 202.452697 -120.927262 
L 203.339732 -120.927262 
L 204.226766 -120.927262 
L 205.1138 -120.927262 
L 206.000835 -120.927262 
L 206.887869 -120.927262 
L 207.774903 -120.927262 
L 208.661937 -120.927262 
L 209.548972 -120.927262 
L 210.436006 -120.927262 
L 211.32304 -120.927262 
L 212.210075 -120.927262 
L 213.097109 -120.927262 
L 213.984143 -120.927262 
L 214.871177 -120.927262 
L 215.758212 -120.927262 
L 216.645246 -120.927262 
L 217.53228 -120.927262 
L 218.419314 -120.927262 
L 219.306349 -120.927262 
L 220.193383 -120.927262 
L 221.080417 -120.927262 
L 221.967452 -120.927262 
L 222.854486 -120.927262 
L 223.74152 -120.927262 
L 224.628554 -120.927262 
L 225.515589 -120.927262 
L 226.402623 -120.927262 
L 227.289657 -120.927262 
L 228.176692 -120.927262 
L 229.063726 -120.927262 
L 229.95076 -120.927262 
L 230.837794 -120.927262 
L 231.724829 -120.927262 
L 232.611863 -120.927262 
L 233.498897 -120.927262 
L 234.385931 -120.927262 
L 235.272966 -120.927262 
L 236.16 -120.927262 
L 237.047034 -120.927262 
L 237.934069 -120.927262 
L 238.821103 -120.927262 
L 239.708137 -120.927262 
L 240.595171 -120.927262 
L 241.482206 -120.927262 
L 242.36924 -120.927262 
L 243.256274 -120.927262 
L 244.143308 -120.927262 
L 245.030343 -120.927262 
L 245.917377 -120.927262 
L 246.804411 -120.927262 
L 247.691446 -120.927262 
L 248.57848 -120.927262 
L 249.465514 -120.927262 
L 250.352548 -120.927262 
L 251.239583 -120.927262 
L 252.126617 -120.927262 
L 253.013651 -120.927262 
L 253.900686 -120.927262 
L 254.78772 -120.927262 
L 255.674754 -120.927262 
L 256.561788 -120.927262 
L 257.448823 -120.927262 
L 258.335857 -120.927262 
L 259.222891 -120.927262 
L 260.109925 -120.927262 
L 260.99696 -120.927262 
L 261.883994 -120.927262 
L 262.771028 -120.927262 
L 263.658063 -120.927262 
L 264.545097 -120.927262 
L 265.432131 -120.927262 
L 266.319165 -120.927262 
L 267.2062 -120.927262 
L 268.093234 -120.927262 
L 268.980268 -120.927262 
L 269.867303 -120.927262 
L 270.754337 -120.927262 
L 271.641371 -120.927262 
L 272.528405 -120.927262 
L 273.41544 -120.927262 
L 274.302474 -120.927262 
L 275.189508 -120.927262 
L 276.076542 -120.927262 
L 276.963577 -120.927262 
L 277.850611 -120.927262 
L 278.737645 -120.927262 
L 279.62468 -120.927262 
L 280.511714 -120.927262 
L 281.398748 -120.927262 
L 282.285782 -120.927262 
L 283.172817 -120.927262 
L 284.059851 -120.927262 
L 284.946885 -120.927262 
L 285.83392 -120.927262 
L 286.720954 -120.927262 
L 287.607988 -120.927262 
L 288.495022 -120.927262 
L 289.382057 -120.927262 
L 290.269091 -120.927262 
L 291.156125 -120.927262 
L 292.043159 -120.927262 
L 292.930194 -120.927262 
L 293.817228 -120.927262 
L 294.704262 -120.927262 
L 295.591297 -120.927262 
L 296.478331 -120.927262 
L 297.365365 -120.927262 
L 298.252399 -120.927262 
L 299.139434 -120.927262 
L 300.026468 -120.927262 
L 300.913502 -120.927262 
L 301.800537 -120.927262 
L 302.687571 -120.927262 
L 303.574605 -120.927262 
L 304.461639 -120.927262 
L 305.348674 -120.927262 
L 306.235708 -120.927262 
L 307.122742 -120.927262 
L 308.009776 -120.927262 
L 308.896811 -120.927262 
L 309.783845 -120.927262 
L 310.670879 -120.927262 
L 311.557914 -120.927262 
L 312.444948 -120.927262 
L 313.331982 -120.927262 
L 314.219016 -120.927262 
L 315.106051 -120.927262 
L 315.993085 -120.927262 
L 316.880119 -120.927262 
L 317.767154 -120.927262 
L 318.654188 -120.927262 
L 319.541222 -120.927262 
L 320.428256 -120.927262 
L 321.315291 -120.927262 
L 322.202325 -120.927262 
L 323.089359 -120.927262 
L 323.976393 -120.927262 
L 324.863428 -120.927262 
L 325.750462 -120.927262 
L 326.637496 -120.927262 
L 327.524531 -120.927262 
L 328.411565 -120.927262 
L 329.298599 -120.927262 
L 330.185633 -120.927262 
L 331.072668 -120.927262 
L 331.959702 -120.927262 
L 332.846736 -120.927262 
L 333.73377 -120.927262 
L 334.620805 -120.927262 
L 335.507839 -120.927262 
L 336.394873 -120.927262 
L 337.281908 -120.927262 
L 338.168942 -120.927262 
L 339.055976 -120.927262 
L 339.94301 -120.927262 
L 340.830045 -120.927262 
L 341.717079 -120.927262 
L 342.604113 -120.927262 
L 343.491148 -120.927262 
L 344.378182 -120.927262 
L 345.265216 -120.927262 
L 346.15225 -120.927262 
L 347.039285 -120.927262 
L 347.926319 -120.927262 
L 348.813353 -120.927262 
L 349.700387 -120.927262 
L 350.587422 -120.927262 
L 351.474456 -120.927262 
L 352.36149 -120.927262 
L 353.248525 -120.927262 
L 354.135559 -120.927262 
L 355.022593 -120.927262 
L 355.909627 -120.927262 
L 356.796662 -120.927262 
L 357.683696 -120.927262 
L 358.57073 -120.927262 
L 359.457765 -120.927262 
L 360.344799 -120.927262 
L 361.231833 -120.927262 
L 362.118867 -120.927262 
L 363.005902 -120.927262 
L 363.892936 -120.927262 
L 364.77997 -120.927262 
L 365.667004 -120.927262 
L 366.554039 -120.927262 
L 367.441073 -120.927262 
L 368.328107 -120.927262 
L 369.215142 -120.927262 
L 370.102176 -120.927262 
L 370.98921 -120.927262 
L 371.876244 -120.927262 
L 372.763279 -120.927262 
L 373.650313 -120.927262 
L 374.537347 -120.927262 
L 375.424382 -120.927262 
L 376.311416 -120.927262 
L 377.19845 -120.927262 
L 378.085484 -120.927262 
L 378.972519 -120.927262 
L 379.859553 -120.927262 
L 380.746587 -120.927262 
L 381.633621 -120.927262 
L 382.520656 -120.927262 
L 383.40769 -120.927262 
L 384.294724 -120.927262 
L 385.181759 -120.927262 
L 386.068793 -120.927262 
L 386.955827 -120.927262 
L 387.842861 -120.927262 
L 388.729896 -120.927262 
L 389.61693 -120.927262 
L 390.503964 -120.927262 
L 391.390999 -120.927262 
L 392.278033 -120.927262 
L 393.165067 -120.927262 
L 394.052101 -120.927262 
L 394.939136 -120.927262 
L 395.82617 -120.927262 
L 396.713204 -120.927262 
L 397.600238 -120.927262 
L 398.487273 -120.927262 
L 398.487273 -231.475612 
L 398.487273 -231.475612 
L 397.600238 -231.475612 
L 396.713204 -231.475612 
L 395.82617 -231.475612 
L 394.939136 -231.475612 
L 394.052101 -231.475612 
L 393.165067 -231.475612 
L 392.278033 -231.475612 
L 391.390999 -231.475612 
L 390.503964 -231.475612 
L 389.61693 -231.475612 
L 388.729896 -231.475612 
L 387.842861 -231.475612 
L 386.955827 -231.475612 
L 386.068793 -231.475612 
L 385.181759 -231.475612 
L 384.294724 -231.475612 
L 383.40769 -231.475612 
L 382.520656 -231.475612 
L 381.633621 -231.475612 
L 380.746587 -231.475612 
L 379.859553 -231.475612 
L 378.972519 -231.475612 
L 378.085484 -231.475612 
L 377.19845 -231.475612 
L 376.311416 -231.475612 
L 375.424382 -231.475612 
L 374.537347 -231.475612 
L 373.650313 -231.475612 
L 372.763279 -231.475612 
L 371.876244 -231.475612 
L 370.98921 -231.475612 
L 370.102176 -231.475612 
L 369.215142 -231.475612 
L 368.328107 -231.475612 
L 367.441073 -231.475612 
L 366.554039 -231.475612 
L 365.667004 -231.475612 
L 364.77997 -231.475612 
L 363.892936 -231.475612 
L 363.005902 -231.475612 
L 362.118867 -231.475612 
L 361.231833 -231.475612 
L 360.344799 -231.475612 
L 359.457765 -231.475612 
L 358.57073 -231.475612 
L 357.683696 -231.475612 
L 356.796662 -231.475612 
L 355.909627 -231.475612 
L 355.022593 -231.475612 
L 354.135559 -231.475612 
L 353.248525 -231.475612 
L 352.36149 -231.475612 
L 351.474456 -231.475612 
L 350.587422 -231.475612 
L 349.700387 -231.475612 
L 348.813353 -231.475612 
L 347.926319 -231.475612 
L 347.039285 -231.475612 
L 346.15225 -231.475612 
L 345.265216 -231.475612 
L 344.378182 -231.475612 
L 343.491148 -231.475612 
L 342.604113 -231.475612 
L 341.717079 -231.475612 
L 340.830045 -231.475612 
L 339.94301 -231.475612 
L 339.055976 -231.475612 
L 338.168942 -231.475612 
L 337.281908 -231.475612 
L 336.394873 -231.475612 
L 335.507839 -231.475612 
L 334.620805 -231.475612 
L 333.73377 -231.475612 
L 332.846736 -231.475612 
L 331.959702 -231.475612 
L 331.072668 -231.475612 
L 330.185633 -231.475612 
L 329.298599 -231.475612 
L 328.411565 -231.475612 
L 327.524531 -231.475612 
L 326.637496 -231.475612 
L 325.750462 -231.475612 
L 324.863428 -231.475612 
L 323.976393 -231.475612 
L 323.089359 -231.475612 
L 322.202325 -231.475612 
L 321.315291 -231.475612 
L 320.428256 -231.475612 
L 319.541222 -231.475612 
L 318.654188 -231.475612 
L 317.767154 -231.475612 
L 316.880119 -231.475612 
L 315.993085 -231.475612 
L 315.106051 -231.475612 
L 314.219016 -231.475612 
L 313.331982 -231.475612 
L 312.444948 -231.475612 
L 311.557914 -231.475612 
L 310.670879 -231.475612 
L 309.783845 -231.475612 
L 308.896811 -231.475612 
L 308.009776 -231.475612 
L 307.122742 -231.475612 
L 306.235708 -231.475612 
L 305.348674 -231.475612 
L 304.461639 -231.475612 
L 303.574605 -231.475612 
L 302.687571 -231.475612 
L 301.800537 -231.475612 
L 300.913502 -231.475612 
L 300.026468 -231.475612 
L 299.139434 -231.475612 
L 298.252399 -231.475612 
L 297.365365 -231.475612 
L 296.478331 -231.475612 
L 295.591297 -231.475612 
L 294.704262 -231.475612 
L 293.817228 -231.475612 
L 292.930194 -231.475612 
L 292.043159 -231.475612 
L 291.156125 -231.475612 
L 290.269091 -231.475612 
L 289.382057 -231.475612 
L 288.495022 -231.475612 
L 287.607988 -231.475612 
L 286.720954 -231.475612 
L 285.83392 -231.475612 
L 284.946885 -231.475612 
L 284.059851 -231.475612 
L 283.172817 -231.475612 
L 282.285782 -231.475612 
L 281.398748 -231.475612 
L 280.511714 -231.475612 
L 279.62468 -231.475612 
L 278.737645 -231.475612 
L 277.850611 -231.475612 
L 276.963577 -231.475612 
L 276.076542 -231.475612 
L 275.189508 -231.475612 
L 274.302474 -231.475612 
L 273.41544 -231.475612 
L 272.528405 -231.475612 
L 271.641371 -231.475612 
L 270.754337 -231.475612 
L 269.867303 -231.475612 
L 268.980268 -231.475612 
L 268.093234 -231.475612 
L 267.2062 -231.475612 
L 266.319165 -231.475612 
L 265.432131 -231.475612 
L 264.545097 -231.475612 
L 263.658063 -231.475612 
L 262.771028 -231.475612 
L 261.883994 -231.475612 
L 260.99696 -231.475612 
L 260.109925 -231.475612 
L 259.222891 -231.475612 
L 258.335857 -231.475612 
L 257.448823 -231.475612 
L 256.561788 -231.475612 
L 255.674754 -231.475612 
L 254.78772 -231.475612 
L 253.900686 -231.475612 
L 253.013651 -231.475612 
L 252.126617 -231.475612 
L 251.239583 -231.475612 
L 250.352548 -231.475612 
L 249.465514 -231.475612 
L 248.57848 -231.475612 
L 247.691446 -231.475612 
L 246.804411 -231.475612 
L 245.917377 -231.475612 
L 245.030343 -231.475612 
L 244.143308 -231.475612 
L 243.256274 -231.475612 
L 242.36924 -231.475612 
L 241.482206 -231.475612 
L 240.595171 -231.475612 
L 239.708137 -231.475612 
L 238.821103 -231.475612 
L 237.934069 -231.475612 
L 237.047034 -231.475612 
L 236.16 -231.475612 
L 235.272966 -231.475612 
L 234.385931 -231.475612 
L 233.498897 -231.475612 
L 232.611863 -231.475612 
L 231.724829 -231.475612 
L 230.837794 -231.475612 
L 229.95076 -231.475612 
L 229.063726 -231.475612 
L 228.176692 -231.475612 
L 227.289657 -231.475612 
L 226.402623 -231.475612 
L 225.515589 -231.475612 
L 224.628554 -231.475612 
L 223.74152 -231.475612 
L 222.854486 -231.475612 
L 221.967452 -231.475612 
L 221.080417 -231.475612 
L 220.193383 -231.475612 
L 219.306349 -231.475612 
L 218.419314 -231.475612 
L 217.53228 -231.475612 
L 216.645246 -231.475612 
L 215.758212 -231.475612 
L 214.871177 -231.475612 
L 213.984143 -231.475612 
L 213.097109 -231.475612 
L 212.210075 -231.475612 
L 211.32304 -231.475612 
L 210.436006 -231.475612 
L 209.548972 -231.475612 
L 208.661937 -231.475612 
L 207.774903 -231.475612 
L 206.887869 -231.475612 
L 206.000835 -231.475612 
L 205.1138 -231.475612 
L 204.226766 -231.475612 
L 203.339732 -231.475612 
L 202.452697 -231.475612 
L 201.565663 -231.475612 
L 200.678629 -231.475612 
L 199.791595 -231.475612 
L 198.90456 -231.475612 
L 198.017526 -231.475612 
L 197.130492 -231.475612 
L 196.243458 -231.475612 
L 195.356423 -231.475612 
L 194.469389 -231.475612 
L 193.582355 -231.475612 
L 192.69532 -231.475612 
L 191.808286 -231.475612 
L 190.921252 -231.475612 
L 190.034218 -231.475612 
L 189.147183 -231.475612 
L 188.260149 -231.475612 
L 187.373115 -231.475612 
L 186.48608 -231.475612 
L 185.599046 -231.475612 
L 184.712012 -231.475612 
L 183.824978 -231.475612 
L 182.937943 -231.475612 
L 182.050909 -231.475612 
L 181.163875 -231.475612 
L 180.276841 -231.475612 
L 179.389806 -231.475612 
L 178.502772 -231.475612 
L 177.615738 -231.475612 
L 176.728703 -231.475612 
L 175.841669 -231.475612 
L 174.954635 -231.475612 
L 174.067601 -231.475612 
L 173.180566 -231.475612 
L 172.293532 -231.475612 
L 171.406498 -231.475612 
L 170.519463 -231.475612 
L 169.632429 -231.475612 
L 168.745395 -231.475612 
L 167.858361 -231.475612 
L 166.971326 -231.475612 
L 166.084292 -231.475612 
L 165.197258 -231.475612 
L 164.310224 -231.475612 
L 163.423189 -231.475612 
L 162.536155 -231.475612 
L 161.649121 -231.475612 
L 160.762086 -231.475612 
L 159.875052 -231.475612 
L 158.988018 -231.475612 
L 158.100984 -231.475612 
L 157.213949 -231.475612 
L 156.326915 -231.475612 
L 155.439881 -231.475612 
L 154.552846 -231.475612 
L 153.665812 -231.475612 
L 152.778778 -231.475612 
L 151.891744 -231.475612 
L 151.004709 -231.475612 
L 150.117675 -231.475612 
L 149.230641 -231.475612 
L 148.343607 -231.475612 
L 147.456572 -231.475612 
L 146.569538 -231.475612 
L 145.682504 -231.475612 
L 144.795469 -231.475612 
L 143.908435 -231.475612 
L 143.021401 -231.475612 
L 142.134367 -231.475612 
L 141.247332 -231.475612 
L 140.360298 -231.475612 
L 139.473264 -231.475612 
L 138.58623 -231.475612 
L 137.699195 -231.475612 
L 136.812161 -231.475612 
L 135.925127 -231.475612 
L 135.038092 -231.475612 
L 134.151058 -231.475612 
L 133.264024 -231.475612 
L 132.37699 -231.475612 
L 131.489955 -231.475612 
L 130.602921 -231.475612 
L 129.715887 -231.475612 
L 128.828852 -231.475612 
L 127.941818 -231.475612 
L 127.054784 -231.475612 
L 126.16775 -231.475612 
L 125.280715 -231.475612 
L 124.393681 -231.475612 
L 123.506647 -231.475612 
L 122.619613 -231.475612 
L 121.732578 -231.475612 
L 120.845544 -231.475612 
L 119.95851 -231.475612 
L 119.071475 -231.475612 
L 118.184441 -231.475612 
L 117.297407 -231.475612 
L 116.410373 -231.475612 
L 115.523338 -231.475612 
L 114.636304 -231.475612 
L 113.74927 -231.475612 
L 112.862235 -231.475612 
L 111.975201 -231.475612 
L 111.088167 -231.475612 
L 110.201133 -231.475612 
L 109.314098 -231.475612 
L 108.427064 -231.475612 
L 107.54003 -231.475612 
L 106.652996 -231.475612 
L 105.765961 -231.475612 
L 104.878927 -231.475612 
L 103.991893 -231.475612 
L 103.104858 -231.475612 
L 102.217824 -231.475612 
L 101.33079 -231.475612 
L 100.443756 -231.475612 
L 99.556721 -231.475612 
L 98.669687 -231.475612 
L 97.782653 -231.475612 
L 96.895618 -231.475612 
L 96.008584 -231.475612 
L 95.12155 -231.475612 
L 94.234516 -231.475612 
L 93.347481 -231.475612 
L 92.460447 -231.475612 
L 91.573413 -231.475612 
L 90.686379 -231.475612 
L 89.799344 -231.475612 
L 88.91231 -231.475612 
L 88.025276 -231.475612 
L 87.138241 -231.475612 
L 86.251207 -231.475612 
L 85.364173 -231.475612 
L 84.477139 -231.475612 
L 83.590104 -231.475612 
L 82.70307 -231.475612 
L 81.816036 -231.475612 
L 80.929001 -231.475612 
L 80.041967 -231.475612 
L 79.154933 -231.475612 
L 78.267899 -231.475612 
L 77.380864 -231.475612 
L 76.49383 -231.475612 
L 75.606796 -231.475612 
L 74.719762 -231.475612 
L 73.832727 -231.475612 
z
" id="m64916f4443" style="stroke:#4b0082;stroke-opacity:0.3;"/>
    </defs>
    <g clip-path="url(#p970bd49176)">
     <use style="fill:#4b0082;fill-opacity:0.3;stroke:#4b0082;stroke-opacity:0.3;" x="0" xlink:href="#m64916f4443" y="345.6"/>
    </g>
   </g>
   <g id="matplotlib.axis_1">
    <g id="xtick_1">
     <g id="line2d_1">
      <defs>
       <path d="M 0 0 
L 0 3.5 
" id="m3016705fea" style="stroke:#000000;stroke-width:0.8;"/>
      </defs>
      <g>
       <use style="stroke:#000000;stroke-width:0.8;" x="73.832727" xlink:href="#m3016705fea" y="307.584"/>
      </g>
     </g>
     <g id="text_1">
      <!-- 2020-01 -->
      <g transform="translate(52.941321 322.182437)scale(0.1 -0.1)">
       <defs>
        <path d="M 19.1875 8.296875 
L 53.609375 8.296875 
L 53.609375 0 
L 7.328125 0 
L 7.328125 8.296875 
Q 12.9375 14.109375 22.625 23.890625 
Q 32.328125 33.6875 34.8125 36.53125 
Q 39.546875 41.84375 41.421875 45.53125 
Q 43.3125 49.21875 43.3125 52.78125 
Q 43.3125 58.59375 39.234375 62.25 
Q 35.15625 65.921875 28.609375 65.921875 
Q 23.96875 65.921875 18.8125 64.3125 
Q 13.671875 62.703125 7.8125 59.421875 
L 7.8125 69.390625 
Q 13.765625 71.78125 18.9375 73 
Q 24.125 74.21875 28.421875 74.21875 
Q 39.75 74.21875 46.484375 68.546875 
Q 53.21875 62.890625 53.21875 53.421875 
Q 53.21875 48.921875 51.53125 44.890625 
Q 49.859375 40.875 45.40625 35.40625 
Q 44.1875 33.984375 37.640625 27.21875 
Q 31.109375 20.453125 19.1875 8.296875 
z
" id="DejaVuSans-50"/>
        <path d="M 31.78125 66.40625 
Q 24.171875 66.40625 20.328125 58.90625 
Q 16.5 51.421875 16.5 36.375 
Q 16.5 21.390625 20.328125 13.890625 
Q 24.171875 6.390625 31.78125 6.390625 
Q 39.453125 6.390625 43.28125 13.890625 
Q 47.125 21.390625 47.125 36.375 
Q 47.125 51.421875 43.28125 58.90625 
Q 39.453125 66.40625 31.78125 66.40625 
z
M 31.78125 74.21875 
Q 44.046875 74.21875 50.515625 64.515625 
Q 56.984375 54.828125 56.984375 36.375 
Q 56.984375 17.96875 50.515625 8.265625 
Q 44.046875 -1.421875 31.78125 -1.421875 
Q 19.53125 -1.421875 13.0625 8.265625 
Q 6.59375 17.96875 6.59375 36.375 
Q 6.59375 54.828125 13.0625 64.515625 
Q 19.53125 74.21875 31.78125 74.21875 
z
" id="DejaVuSans-48"/>
        <path d="M 4.890625 31.390625 
L 31.203125 31.390625 
L 31.203125 23.390625 
L 4.890625 23.390625 
z
" id="DejaVuSans-45"/>
        <path d="M 12.40625 8.296875 
L 28.515625 8.296875 
L 28.515625 63.921875 
L 10.984375 60.40625 
L 10.984375 69.390625 
L 28.421875 72.90625 
L 38.28125 72.90625 
L 38.28125 8.296875 
L 54.390625 8.296875 
L 54.390625 0 
L 12.40625 0 
z
" id="DejaVuSans-49"/>
       </defs>
       <use xlink:href="#DejaVuSans-50"/>
       <use x="63.623047" xlink:href="#DejaVuSans-48"/>
       <use x="127.246094" xlink:href="#DejaVuSans-50"/>
       <use x="190.869141" xlink:href="#DejaVuSans-48"/>
       <use x="254.492188" xlink:href="#DejaVuSans-45"/>
       <use x="290.576172" xlink:href="#DejaVuSans-48"/>
       <use x="354.199219" xlink:href="#DejaVuSans-49"/>
      </g>
     </g>
    </g>
    <g id="xtick_2">
     <g id="line2d_2">
      <g>
       <use style="stroke:#000000;stroke-width:0.8;" x="127.054784" xlink:href="#m3016705fea" y="307.584"/>
      </g>
     </g>
     <g id="text_2">
      <!-- 2020-03 -->
      <g transform="translate(106.163378 322.182437)scale(0.1 -0.1)">
       <defs>
        <path d="M 40.578125 39.3125 
Q 47.65625 37.796875 51.625 33 
Q 55.609375 28.21875 55.609375 21.1875 
Q 55.609375 10.40625 48.1875 4.484375 
Q 40.765625 -1.421875 27.09375 -1.421875 
Q 22.515625 -1.421875 17.65625 -0.515625 
Q 12.796875 0.390625 7.625 2.203125 
L 7.625 11.71875 
Q 11.71875 9.328125 16.59375 8.109375 
Q 21.484375 6.890625 26.8125 6.890625 
Q 36.078125 6.890625 40.9375 10.546875 
Q 45.796875 14.203125 45.796875 21.1875 
Q 45.796875 27.640625 41.28125 31.265625 
Q 36.765625 34.90625 28.71875 34.90625 
L 20.21875 34.90625 
L 20.21875 43.015625 
L 29.109375 43.015625 
Q 36.375 43.015625 40.234375 45.921875 
Q 44.09375 48.828125 44.09375 54.296875 
Q 44.09375 59.90625 40.109375 62.90625 
Q 36.140625 65.921875 28.71875 65.921875 
Q 24.65625 65.921875 20.015625 65.03125 
Q 15.375 64.15625 9.8125 62.3125 
L 9.8125 71.09375 
Q 15.4375 72.65625 20.34375 73.4375 
Q 25.25 74.21875 29.59375 74.21875 
Q 40.828125 74.21875 47.359375 69.109375 
Q 53.90625 64.015625 53.90625 55.328125 
Q 53.90625 49.265625 50.4375 45.09375 
Q 46.96875 40.921875 40.578125 39.3125 
z
" id="DejaVuSans-51"/>
       </defs>
       <use xlink:href="#DejaVuSans-50"/>
       <use x="63.623047" xlink:href="#DejaVuSans-48"/>
       <use x="127.246094" xlink:href="#DejaVuSans-50"/>
       <use x="190.869141" xlink:href="#DejaVuSans-48"/>
       <use x="254.492188" xlink:href="#DejaVuSans-45"/>
       <use x="290.576172" xlink:href="#DejaVuSans-48"/>
       <use x="354.199219" xlink:href="#DejaVuSans-51"/>
      </g>
     </g>
    </g>
    <g id="xtick_3">
     <g id="line2d_3">
      <g>
       <use style="stroke:#000000;stroke-width:0.8;" x="181.163875" xlink:href="#m3016705fea" y="307.584"/>
      </g>
     </g>
     <g id="text_3">
      <!-- 2020-05 -->
      <g transform="translate(160.272469 322.182437)scale(0.1 -0.1)">
       <defs>
        <path d="M 10.796875 72.90625 
L 49.515625 72.90625 
L 49.515625 64.59375 
L 19.828125 64.59375 
L 19.828125 46.734375 
Q 21.96875 47.46875 24.109375 47.828125 
Q 26.265625 48.1875 28.421875 48.1875 
Q 40.625 48.1875 47.75 41.5 
Q 54.890625 34.8125 54.890625 23.390625 
Q 54.890625 11.625 47.5625 5.09375 
Q 40.234375 -1.421875 26.90625 -1.421875 
Q 22.3125 -1.421875 17.546875 -0.640625 
Q 12.796875 0.140625 7.71875 1.703125 
L 7.71875 11.625 
Q 12.109375 9.234375 16.796875 8.0625 
Q 21.484375 6.890625 26.703125 6.890625 
Q 35.15625 6.890625 40.078125 11.328125 
Q 45.015625 15.765625 45.015625 23.390625 
Q 45.015625 31 40.078125 35.4375 
Q 35.15625 39.890625 26.703125 39.890625 
Q 22.75 39.890625 18.8125 39.015625 
Q 14.890625 38.140625 10.796875 36.28125 
z
" id="DejaVuSans-53"/>
       </defs>
       <use xlink:href="#DejaVuSans-50"/>
       <use x="63.623047" xlink:href="#DejaVuSans-48"/>
       <use x="127.246094" xlink:href="#DejaVuSans-50"/>
       <use x="190.869141" xlink:href="#DejaVuSans-48"/>
       <use x="254.492188" xlink:href="#DejaVuSans-45"/>
       <use x="290.576172" xlink:href="#DejaVuSans-48"/>
       <use x="354.199219" xlink:href="#DejaVuSans-53"/>
      </g>
     </g>
    </g>
    <g id="xtick_4">
     <g id="line2d_4">
      <g>
       <use style="stroke:#000000;stroke-width:0.8;" x="235.272966" xlink:href="#m3016705fea" y="307.584"/>
      </g>
     </g>
     <g id="text_4">
      <!-- 2020-07 -->
      <g transform="translate(214.381559 322.182437)scale(0.1 -0.1)">
       <defs>
        <path d="M 8.203125 72.90625 
L 55.078125 72.90625 
L 55.078125 68.703125 
L 28.609375 0 
L 18.3125 0 
L 43.21875 64.59375 
L 8.203125 64.59375 
z
" id="DejaVuSans-55"/>
       </defs>
       <use xlink:href="#DejaVuSans-50"/>
       <use x="63.623047" xlink:href="#DejaVuSans-48"/>
       <use x="127.246094" xlink:href="#DejaVuSans-50"/>
       <use x="190.869141" xlink:href="#DejaVuSans-48"/>
       <use x="254.492188" xlink:href="#DejaVuSans-45"/>
       <use x="290.576172" xlink:href="#DejaVuSans-48"/>
       <use x="354.199219" xlink:href="#DejaVuSans-55"/>
      </g>
     </g>
    </g>
    <g id="xtick_5">
     <g id="line2d_5">
      <g>
       <use style="stroke:#000000;stroke-width:0.8;" x="290.269091" xlink:href="#m3016705fea" y="307.584"/>
      </g>
     </g>
     <g id="text_5">
      <!-- 2020-09 -->
      <g transform="translate(269.377685 322.182437)scale(0.1 -0.1)">
       <defs>
        <path d="M 10.984375 1.515625 
L 10.984375 10.5 
Q 14.703125 8.734375 18.5 7.8125 
Q 22.3125 6.890625 25.984375 6.890625 
Q 35.75 6.890625 40.890625 13.453125 
Q 46.046875 20.015625 46.78125 33.40625 
Q 43.953125 29.203125 39.59375 26.953125 
Q 35.25 24.703125 29.984375 24.703125 
Q 19.046875 24.703125 12.671875 31.3125 
Q 6.296875 37.9375 6.296875 49.421875 
Q 6.296875 60.640625 12.9375 67.421875 
Q 19.578125 74.21875 30.609375 74.21875 
Q 43.265625 74.21875 49.921875 64.515625 
Q 56.59375 54.828125 56.59375 36.375 
Q 56.59375 19.140625 48.40625 8.859375 
Q 40.234375 -1.421875 26.421875 -1.421875 
Q 22.703125 -1.421875 18.890625 -0.6875 
Q 15.09375 0.046875 10.984375 1.515625 
z
M 30.609375 32.421875 
Q 37.25 32.421875 41.125 36.953125 
Q 45.015625 41.5 45.015625 49.421875 
Q 45.015625 57.28125 41.125 61.84375 
Q 37.25 66.40625 30.609375 66.40625 
Q 23.96875 66.40625 20.09375 61.84375 
Q 16.21875 57.28125 16.21875 49.421875 
Q 16.21875 41.5 20.09375 36.953125 
Q 23.96875 32.421875 30.609375 32.421875 
z
" id="DejaVuSans-57"/>
       </defs>
       <use xlink:href="#DejaVuSans-50"/>
       <use x="63.623047" xlink:href="#DejaVuSans-48"/>
       <use x="127.246094" xlink:href="#DejaVuSans-50"/>
       <use x="190.869141" xlink:href="#DejaVuSans-48"/>
       <use x="254.492188" xlink:href="#DejaVuSans-45"/>
       <use x="290.576172" xlink:href="#DejaVuSans-48"/>
       <use x="354.199219" xlink:href="#DejaVuSans-57"/>
      </g>
     </g>
    </g>
    <g id="xtick_6">
     <g id="line2d_6">
      <g>
       <use style="stroke:#000000;stroke-width:0.8;" x="344.378182" xlink:href="#m3016705fea" y="307.584"/>
      </g>
     </g>
     <g id="text_6">
      <!-- 2020-11 -->
      <g transform="translate(323.486776 322.182437)scale(0.1 -0.1)">
       <use xlink:href="#DejaVuSans-50"/>
       <use x="63.623047" xlink:href="#DejaVuSans-48"/>
       <use x="127.246094" xlink:href="#DejaVuSans-50"/>
       <use x="190.869141" xlink:href="#DejaVuSans-48"/>
       <use x="254.492188" xlink:href="#DejaVuSans-45"/>
       <use x="290.576172" xlink:href="#DejaVuSans-49"/>
       <use x="354.199219" xlink:href="#DejaVuSans-49"/>
      </g>
     </g>
    </g>
    <g id="xtick_7">
     <g id="line2d_7">
      <g>
       <use style="stroke:#000000;stroke-width:0.8;" x="398.487273" xlink:href="#m3016705fea" y="307.584"/>
      </g>
     </g>
     <g id="text_7">
      <!-- 2021-01 -->
      <g transform="translate(377.595866 322.182437)scale(0.1 -0.1)">
       <use xlink:href="#DejaVuSans-50"/>
       <use x="63.623047" xlink:href="#DejaVuSans-48"/>
       <use x="127.246094" xlink:href="#DejaVuSans-50"/>
       <use x="190.869141" xlink:href="#DejaVuSans-49"/>
       <use x="254.492188" xlink:href="#DejaVuSans-45"/>
       <use x="290.576172" xlink:href="#DejaVuSans-48"/>
       <use x="354.199219" xlink:href="#DejaVuSans-49"/>
      </g>
     </g>
    </g>
   </g>
   <g id="matplotlib.axis_2">
    <g id="ytick_1">
     <g id="line2d_8">
      <defs>
       <path d="M 0 0 
L -3.5 0 
" id="maaaa33d2bc" style="stroke:#000000;stroke-width:0.8;"/>
      </defs>
      <g>
       <use style="stroke:#000000;stroke-width:0.8;" x="57.6" xlink:href="#maaaa33d2bc" y="307.584"/>
      </g>
     </g>
     <g id="text_8">
      <!-- 0 -->
      <g transform="translate(44.2375 311.383219)scale(0.1 -0.1)">
       <use xlink:href="#DejaVuSans-48"/>
      </g>
     </g>
    </g>
    <g id="ytick_2">
     <g id="line2d_9">
      <g>
       <use style="stroke:#000000;stroke-width:0.8;" x="57.6" xlink:href="#maaaa33d2bc" y="252.309825"/>
      </g>
     </g>
     <g id="text_9">
      <!-- 20 -->
      <g transform="translate(37.875 256.109044)scale(0.1 -0.1)">
       <use xlink:href="#DejaVuSans-50"/>
       <use x="63.623047" xlink:href="#DejaVuSans-48"/>
      </g>
     </g>
    </g>
    <g id="ytick_3">
     <g id="line2d_10">
      <g>
       <use style="stroke:#000000;stroke-width:0.8;" x="57.6" xlink:href="#maaaa33d2bc" y="197.03565"/>
      </g>
     </g>
     <g id="text_10">
      <!-- 40 -->
      <g transform="translate(37.875 200.834869)scale(0.1 -0.1)">
       <defs>
        <path d="M 37.796875 64.3125 
L 12.890625 25.390625 
L 37.796875 25.390625 
z
M 35.203125 72.90625 
L 47.609375 72.90625 
L 47.609375 25.390625 
L 58.015625 25.390625 
L 58.015625 17.1875 
L 47.609375 17.1875 
L 47.609375 0 
L 37.796875 0 
L 37.796875 17.1875 
L 4.890625 17.1875 
L 4.890625 26.703125 
z
" id="DejaVuSans-52"/>
       </defs>
       <use xlink:href="#DejaVuSans-52"/>
       <use x="63.623047" xlink:href="#DejaVuSans-48"/>
      </g>
     </g>
    </g>
    <g id="ytick_4">
     <g id="line2d_11">
      <g>
       <use style="stroke:#000000;stroke-width:0.8;" x="57.6" xlink:href="#maaaa33d2bc" y="141.761475"/>
      </g>
     </g>
     <g id="text_11">
      <!-- 60 -->
      <g transform="translate(37.875 145.560694)scale(0.1 -0.1)">
       <defs>
        <path d="M 33.015625 40.375 
Q 26.375 40.375 22.484375 35.828125 
Q 18.609375 31.296875 18.609375 23.390625 
Q 18.609375 15.53125 22.484375 10.953125 
Q 26.375 6.390625 33.015625 6.390625 
Q 39.65625 6.390625 43.53125 10.953125 
Q 47.40625 15.53125 47.40625 23.390625 
Q 47.40625 31.296875 43.53125 35.828125 
Q 39.65625 40.375 33.015625 40.375 
z
M 52.59375 71.296875 
L 52.59375 62.3125 
Q 48.875 64.0625 45.09375 64.984375 
Q 41.3125 65.921875 37.59375 65.921875 
Q 27.828125 65.921875 22.671875 59.328125 
Q 17.53125 52.734375 16.796875 39.40625 
Q 19.671875 43.65625 24.015625 45.921875 
Q 28.375 48.1875 33.59375 48.1875 
Q 44.578125 48.1875 50.953125 41.515625 
Q 57.328125 34.859375 57.328125 23.390625 
Q 57.328125 12.15625 50.6875 5.359375 
Q 44.046875 -1.421875 33.015625 -1.421875 
Q 20.359375 -1.421875 13.671875 8.265625 
Q 6.984375 17.96875 6.984375 36.375 
Q 6.984375 53.65625 15.1875 63.9375 
Q 23.390625 74.21875 37.203125 74.21875 
Q 40.921875 74.21875 44.703125 73.484375 
Q 48.484375 72.75 52.59375 71.296875 
z
" id="DejaVuSans-54"/>
       </defs>
       <use xlink:href="#DejaVuSans-54"/>
       <use x="63.623047" xlink:href="#DejaVuSans-48"/>
      </g>
     </g>
    </g>
    <g id="ytick_5">
     <g id="line2d_12">
      <g>
       <use style="stroke:#000000;stroke-width:0.8;" x="57.6" xlink:href="#maaaa33d2bc" y="86.487301"/>
      </g>
     </g>
     <g id="text_12">
      <!-- 80 -->
      <g transform="translate(37.875 90.286519)scale(0.1 -0.1)">
       <defs>
        <path d="M 31.78125 34.625 
Q 24.75 34.625 20.71875 30.859375 
Q 16.703125 27.09375 16.703125 20.515625 
Q 16.703125 13.921875 20.71875 10.15625 
Q 24.75 6.390625 31.78125 6.390625 
Q 38.8125 6.390625 42.859375 10.171875 
Q 46.921875 13.96875 46.921875 20.515625 
Q 46.921875 27.09375 42.890625 30.859375 
Q 38.875 34.625 31.78125 34.625 
z
M 21.921875 38.8125 
Q 15.578125 40.375 12.03125 44.71875 
Q 8.5 49.078125 8.5 55.328125 
Q 8.5 64.0625 14.71875 69.140625 
Q 20.953125 74.21875 31.78125 74.21875 
Q 42.671875 74.21875 48.875 69.140625 
Q 55.078125 64.0625 55.078125 55.328125 
Q 55.078125 49.078125 51.53125 44.71875 
Q 48 40.375 41.703125 38.8125 
Q 48.828125 37.15625 52.796875 32.3125 
Q 56.78125 27.484375 56.78125 20.515625 
Q 56.78125 9.90625 50.3125 4.234375 
Q 43.84375 -1.421875 31.78125 -1.421875 
Q 19.734375 -1.421875 13.25 4.234375 
Q 6.78125 9.90625 6.78125 20.515625 
Q 6.78125 27.484375 10.78125 32.3125 
Q 14.796875 37.15625 21.921875 38.8125 
z
M 18.3125 54.390625 
Q 18.3125 48.734375 21.84375 45.5625 
Q 25.390625 42.390625 31.78125 42.390625 
Q 38.140625 42.390625 41.71875 45.5625 
Q 45.3125 48.734375 45.3125 54.390625 
Q 45.3125 60.0625 41.71875 63.234375 
Q 38.140625 66.40625 31.78125 66.40625 
Q 25.390625 66.40625 21.84375 63.234375 
Q 18.3125 60.0625 18.3125 54.390625 
z
" id="DejaVuSans-56"/>
       </defs>
       <use xlink:href="#DejaVuSans-56"/>
       <use x="63.623047" xlink:href="#DejaVuSans-48"/>
      </g>
     </g>
    </g>
   </g>
   <g id="line2d_13">
    <path clip-path="url(#p970bd49176)" d="M 88.025276 95.611016 
L 88.91231 93.655241 
L 89.799344 99.694875 
L 90.686379 109.607849 
L 91.573413 123.547788 
L 92.460447 131.548004 
L 93.347481 135.049328 
L 95.12155 144.541081 
L 96.008584 146.444822 
L 96.895618 136.625536 
L 97.782653 131.486309 
L 98.669687 130.511135 
L 99.556721 130.758932 
L 100.443756 134.748552 
L 101.33079 135.98098 
L 102.217824 138.129682 
L 103.104858 132.809104 
L 103.991893 132.607481 
L 104.878927 128.595165 
L 105.765961 117.201723 
L 106.652996 100.938152 
L 107.54003 89.012517 
L 108.427064 85.241717 
L 109.314098 92.633001 
L 110.201133 104.737735 
L 111.088167 113.307098 
L 111.975201 116.404509 
L 112.862235 112.146311 
L 113.74927 123.205102 
L 114.636304 127.552915 
L 115.523338 141.911639 
L 116.410373 136.595705 
L 117.297407 147.320349 
L 118.184441 156.171585 
L 119.071475 172.980091 
L 119.95851 176.524355 
L 121.732578 178.465358 
L 122.619613 188.972863 
L 124.393681 222.911031 
L 125.280715 231.362092 
L 126.16775 231.305033 
L 127.054784 232.746103 
L 127.941818 221.6552 
L 128.828852 223.824847 
L 129.715887 219.34869 
L 130.602921 217.932981 
L 131.489955 204.847997 
L 132.37699 200.488863 
L 134.151058 231.21873 
L 135.038092 241.205385 
L 135.925127 231.616308 
L 136.812161 240.102444 
L 137.699195 240.936062 
L 138.58623 248.780567 
L 139.473264 238.163325 
L 140.360298 242.725792 
L 141.247332 242.315492 
L 142.134367 243.136188 
L 143.021401 233.874805 
L 144.795469 224.367568 
L 145.682504 222.206624 
L 146.569538 212.963704 
L 147.456572 202.425657 
L 148.343607 194.588014 
L 149.230641 165.434486 
L 150.117675 149.712655 
L 151.004709 128.164237 
L 151.891744 141.378998 
L 152.778778 133.781307 
L 153.665812 134.060104 
L 154.552846 125.481777 
L 155.439881 132.918534 
L 157.213949 144.060658 
L 158.988018 132.754252 
L 159.875052 134.904854 
L 160.762086 138.52817 
L 161.649121 143.132484 
L 162.536155 142.476253 
L 163.423189 143.179571 
L 164.310224 133.627929 
L 165.197258 131.854359 
L 166.084292 132.112311 
L 166.971326 150.718563 
L 167.858361 154.427636 
L 168.745395 158.785362 
L 169.632429 151.376011 
L 170.519463 150.822923 
L 172.293532 179.332573 
L 173.180566 190.260557 
L 174.067601 177.166327 
L 175.841669 139.187796 
L 176.728703 127.291544 
L 177.615738 122.367571 
L 178.502772 118.696536 
L 179.389806 103.146877 
L 180.276841 96.605065 
L 181.163875 85.795685 
L 182.050909 89.188769 
L 182.937943 84.684929 
L 185.599046 59.792619 
L 186.48608 58.326475 
L 187.373115 61.968855 
L 188.260149 70.819668 
L 190.034218 121.042748 
L 190.921252 137.377967 
L 191.808286 142.79392 
L 192.69532 138.91875 
L 193.582355 145.146821 
L 194.469389 147.581476 
L 195.356423 152.968722 
L 197.130492 146.311819 
L 198.017526 150.431084 
L 198.90456 168.56331 
L 199.791595 183.149031 
L 200.678629 191.169996 
L 201.565663 181.633372 
L 202.452697 170.616528 
L 203.339732 165.749924 
L 204.226766 166.903154 
L 205.1138 174.175632 
L 206.000835 172.546739 
L 206.887869 166.241843 
L 207.774903 166.250732 
L 208.661937 161.921343 
L 209.548972 169.117862 
L 210.436006 164.012414 
L 211.32304 161.604124 
L 212.210075 153.620908 
L 213.097109 149.458448 
L 213.984143 144.556382 
L 215.758212 130.815284 
L 216.645246 133.922083 
L 217.53228 149.66542 
L 219.306349 175.466672 
L 220.193383 173.339991 
L 221.080417 189.675521 
L 221.967452 186.52597 
L 222.854486 190.317339 
L 223.74152 185.519713 
L 224.628554 194.802839 
L 225.515589 198.492268 
L 226.402623 200.923289 
L 227.289657 194.149504 
L 228.176692 188.648781 
L 229.063726 187.497517 
L 229.95076 185.972185 
L 230.837794 191.505022 
L 231.724829 191.918432 
L 232.611863 196.860137 
L 233.498897 194.139026 
L 234.385931 193.122367 
L 235.272966 193.792047 
L 236.16 195.400953 
L 237.047034 190.942407 
L 237.934069 190.494461 
L 238.821103 188.298661 
L 239.708137 191.651937 
L 240.595171 196.116277 
L 242.36924 176.211299 
L 243.256274 161.732336 
L 244.143308 157.913474 
L 245.030343 151.438933 
L 245.917377 153.440298 
L 246.804411 157.444049 
L 247.691446 165.355315 
L 248.57848 165.314564 
L 249.465514 165.395324 
L 250.352548 162.326661 
L 251.239583 158.434675 
L 252.126617 171.446393 
L 253.013651 167.658551 
L 253.900686 168.279002 
L 254.78772 140.041009 
L 255.674754 132.454595 
L 256.561788 116.374115 
L 257.448823 110.562712 
L 258.335857 86.426271 
L 260.109925 61.088457 
L 260.99696 59.648432 
L 261.883994 54.683834 
L 262.771028 51.343837 
L 265.432131 99.289898 
L 266.319165 97.394778 
L 267.2062 97.669947 
L 268.093234 96.945825 
L 268.980268 98.619071 
L 269.867303 102.827977 
L 270.754337 112.810169 
L 271.641371 129.658473 
L 272.528405 143.842077 
L 273.41544 148.638322 
L 274.302474 149.725655 
L 275.189508 155.237954 
L 276.076542 147.665142 
L 276.963577 134.678624 
L 277.850611 123.425225 
L 280.511714 168.04376 
L 281.398748 170.800677 
L 282.285782 172.958682 
L 283.172817 174.278319 
L 284.059851 174.000709 
L 284.946885 175.431645 
L 285.83392 181.661879 
L 286.720954 185.14008 
L 287.607988 190.242148 
L 288.495022 184.91102 
L 289.382057 192.561444 
L 290.269091 185.421989 
L 291.156125 188.691846 
L 292.043159 196.890578 
L 292.930194 210.391394 
L 293.817228 221.598683 
L 294.704262 217.162066 
L 295.591297 219.780593 
L 296.478331 216.54076 
L 297.365365 215.669931 
L 298.252399 211.843702 
L 299.139434 211.490513 
L 300.026468 209.372245 
L 300.913502 215.216339 
L 301.800537 213.071458 
L 302.687571 214.282267 
L 303.574605 202.636575 
L 306.235708 116.338962 
L 307.122742 115.244884 
L 308.009776 125.80689 
L 309.783845 158.081694 
L 310.670879 152.302739 
L 311.557914 156.387471 
L 312.444948 151.725258 
L 313.331982 150.510369 
L 314.219016 155.755212 
L 315.106051 160.168505 
L 315.993085 172.281544 
L 316.880119 178.974363 
L 318.654188 194.366666 
L 319.541222 193.282359 
L 320.428256 176.955978 
L 321.315291 163.747112 
L 322.202325 145.830544 
L 323.089359 147.970727 
L 323.976393 138.364936 
L 324.863428 134.637538 
L 325.750462 124.553523 
L 326.637496 113.089447 
L 327.524531 112.205876 
L 328.411565 110.694624 
L 329.298599 107.066049 
L 331.072668 100.685925 
L 331.959702 105.186433 
L 332.846736 101.685637 
L 333.73377 92.003515 
L 334.620805 78.201195 
L 335.507839 66.276512 
L 336.394873 64.582695 
L 337.281908 67.628156 
L 338.168942 73.327817 
L 339.055976 77.264031 
L 339.94301 75.261707 
L 340.830045 79.111518 
L 341.717079 81.65543 
L 342.604113 85.122899 
L 343.491148 79.0641 
L 344.378182 74.941957 
L 346.15225 86.762791 
L 347.039285 95.635071 
L 348.813353 88.164684 
L 349.700387 92.840936 
L 350.587422 99.968786 
L 351.474456 110.029978 
L 352.36149 111.094499 
L 353.248525 109.203331 
L 354.135559 104.008456 
L 355.022593 95.073198 
L 355.909627 97.864477 
L 356.796662 103.386425 
L 357.683696 102.844951 
L 358.57073 96.327446 
L 359.457765 88.947282 
L 360.344799 92.625209 
L 361.231833 94.564279 
L 363.005902 77.192367 
L 363.892936 71.126556 
L 364.77997 73.071734 
L 365.667004 75.566037 
L 366.554039 100.238585 
L 367.441073 128.270664 
L 368.328107 143.947113 
L 369.215142 135.550875 
L 370.102176 123.638741 
L 370.98921 128.794083 
L 371.876244 135.576274 
L 372.763279 144.663765 
L 373.650313 151.415137 
L 374.537347 157.154312 
L 375.424382 160.934913 
L 376.311416 156.556162 
L 378.085484 169.778637 
L 378.972519 167.488081 
L 379.859553 157.706362 
L 380.746587 150.206299 
L 381.633621 151.011141 
L 382.520656 159.881834 
L 383.40769 160.732634 
L 384.294724 152.248873 
L 386.068793 108.389474 
L 386.955827 95.292606 
L 387.842861 90.579357 
L 388.729896 98.150626 
L 389.61693 96.431257 
L 390.503964 96.693314 
L 391.390999 88.574303 
L 392.278033 87.182306 
L 393.165067 79.035975 
L 394.052101 76.01398 
L 394.939136 75.180739 
L 395.82617 75.586305 
L 396.713204 75.04575 
L 398.487273 79.842457 
L 398.487273 79.842457 
" style="fill:none;stroke:#ff6347;stroke-linecap:square;stroke-width:1.5;"/>
   </g>
   <g id="patch_3">
    <path d="M 57.6 307.584 
L 57.6 41.472 
" style="fill:none;stroke:#000000;stroke-linecap:square;stroke-linejoin:miter;stroke-width:0.8;"/>
   </g>
   <g id="patch_4">
    <path d="M 414.72 307.584 
L 414.72 41.472 
" style="fill:none;stroke:#000000;stroke-linecap:square;stroke-linejoin:miter;stroke-width:0.8;"/>
   </g>
   <g id="patch_5">
    <path d="M 57.6 307.584 
L 414.72 307.584 
" style="fill:none;stroke:#000000;stroke-linecap:square;stroke-linejoin:miter;stroke-width:0.8;"/>
   </g>
   <g id="patch_6">
    <path d="M 57.6 41.472 
L 414.72 41.472 
" style="fill:none;stroke:#000000;stroke-linecap:square;stroke-linejoin:miter;stroke-width:0.8;"/>
   </g>
   <g id="text_13">
    <!-- Data source: nomics -->
    <g transform="translate(184.91625 35.472)scale(0.1 -0.1)">
     <defs>
      <path d="M 19.671875 64.796875 
L 19.671875 8.109375 
L 31.59375 8.109375 
Q 46.6875 8.109375 53.6875 14.9375 
Q 60.6875 21.78125 60.6875 36.53125 
Q 60.6875 51.171875 53.6875 57.984375 
Q 46.6875 64.796875 31.59375 64.796875 
z
M 9.8125 72.90625 
L 30.078125 72.90625 
Q 51.265625 72.90625 61.171875 64.09375 
Q 71.09375 55.28125 71.09375 36.53125 
Q 71.09375 17.671875 61.125 8.828125 
Q 51.171875 0 30.078125 0 
L 9.8125 0 
z
" id="DejaVuSans-68"/>
      <path d="M 34.28125 27.484375 
Q 23.390625 27.484375 19.1875 25 
Q 14.984375 22.515625 14.984375 16.5 
Q 14.984375 11.71875 18.140625 8.90625 
Q 21.296875 6.109375 26.703125 6.109375 
Q 34.1875 6.109375 38.703125 11.40625 
Q 43.21875 16.703125 43.21875 25.484375 
L 43.21875 27.484375 
z
M 52.203125 31.203125 
L 52.203125 0 
L 43.21875 0 
L 43.21875 8.296875 
Q 40.140625 3.328125 35.546875 0.953125 
Q 30.953125 -1.421875 24.3125 -1.421875 
Q 15.921875 -1.421875 10.953125 3.296875 
Q 6 8.015625 6 15.921875 
Q 6 25.140625 12.171875 29.828125 
Q 18.359375 34.515625 30.609375 34.515625 
L 43.21875 34.515625 
L 43.21875 35.40625 
Q 43.21875 41.609375 39.140625 45 
Q 35.0625 48.390625 27.6875 48.390625 
Q 23 48.390625 18.546875 47.265625 
Q 14.109375 46.140625 10.015625 43.890625 
L 10.015625 52.203125 
Q 14.9375 54.109375 19.578125 55.046875 
Q 24.21875 56 28.609375 56 
Q 40.484375 56 46.34375 49.84375 
Q 52.203125 43.703125 52.203125 31.203125 
z
" id="DejaVuSans-97"/>
      <path d="M 18.3125 70.21875 
L 18.3125 54.6875 
L 36.8125 54.6875 
L 36.8125 47.703125 
L 18.3125 47.703125 
L 18.3125 18.015625 
Q 18.3125 11.328125 20.140625 9.421875 
Q 21.96875 7.515625 27.59375 7.515625 
L 36.8125 7.515625 
L 36.8125 0 
L 27.59375 0 
Q 17.1875 0 13.234375 3.875 
Q 9.28125 7.765625 9.28125 18.015625 
L 9.28125 47.703125 
L 2.6875 47.703125 
L 2.6875 54.6875 
L 9.28125 54.6875 
L 9.28125 70.21875 
z
" id="DejaVuSans-116"/>
      <path id="DejaVuSans-32"/>
      <path d="M 44.28125 53.078125 
L 44.28125 44.578125 
Q 40.484375 46.53125 36.375 47.5 
Q 32.28125 48.484375 27.875 48.484375 
Q 21.1875 48.484375 17.84375 46.4375 
Q 14.5 44.390625 14.5 40.28125 
Q 14.5 37.15625 16.890625 35.375 
Q 19.28125 33.59375 26.515625 31.984375 
L 29.59375 31.296875 
Q 39.15625 29.25 43.1875 25.515625 
Q 47.21875 21.78125 47.21875 15.09375 
Q 47.21875 7.46875 41.1875 3.015625 
Q 35.15625 -1.421875 24.609375 -1.421875 
Q 20.21875 -1.421875 15.453125 -0.5625 
Q 10.6875 0.296875 5.421875 2 
L 5.421875 11.28125 
Q 10.40625 8.6875 15.234375 7.390625 
Q 20.0625 6.109375 24.8125 6.109375 
Q 31.15625 6.109375 34.5625 8.28125 
Q 37.984375 10.453125 37.984375 14.40625 
Q 37.984375 18.0625 35.515625 20.015625 
Q 33.0625 21.96875 24.703125 23.78125 
L 21.578125 24.515625 
Q 13.234375 26.265625 9.515625 29.90625 
Q 5.8125 33.546875 5.8125 39.890625 
Q 5.8125 47.609375 11.28125 51.796875 
Q 16.75 56 26.8125 56 
Q 31.78125 56 36.171875 55.265625 
Q 40.578125 54.546875 44.28125 53.078125 
z
" id="DejaVuSans-115"/>
      <path d="M 30.609375 48.390625 
Q 23.390625 48.390625 19.1875 42.75 
Q 14.984375 37.109375 14.984375 27.296875 
Q 14.984375 17.484375 19.15625 11.84375 
Q 23.34375 6.203125 30.609375 6.203125 
Q 37.796875 6.203125 41.984375 11.859375 
Q 46.1875 17.53125 46.1875 27.296875 
Q 46.1875 37.015625 41.984375 42.703125 
Q 37.796875 48.390625 30.609375 48.390625 
z
M 30.609375 56 
Q 42.328125 56 49.015625 48.375 
Q 55.71875 40.765625 55.71875 27.296875 
Q 55.71875 13.875 49.015625 6.21875 
Q 42.328125 -1.421875 30.609375 -1.421875 
Q 18.84375 -1.421875 12.171875 6.21875 
Q 5.515625 13.875 5.515625 27.296875 
Q 5.515625 40.765625 12.171875 48.375 
Q 18.84375 56 30.609375 56 
z
" id="DejaVuSans-111"/>
      <path d="M 8.5 21.578125 
L 8.5 54.6875 
L 17.484375 54.6875 
L 17.484375 21.921875 
Q 17.484375 14.15625 20.5 10.265625 
Q 23.53125 6.390625 29.59375 6.390625 
Q 36.859375 6.390625 41.078125 11.03125 
Q 45.3125 15.671875 45.3125 23.6875 
L 45.3125 54.6875 
L 54.296875 54.6875 
L 54.296875 0 
L 45.3125 0 
L 45.3125 8.40625 
Q 42.046875 3.421875 37.71875 1 
Q 33.40625 -1.421875 27.6875 -1.421875 
Q 18.265625 -1.421875 13.375 4.4375 
Q 8.5 10.296875 8.5 21.578125 
z
M 31.109375 56 
z
" id="DejaVuSans-117"/>
      <path d="M 41.109375 46.296875 
Q 39.59375 47.171875 37.8125 47.578125 
Q 36.03125 48 33.890625 48 
Q 26.265625 48 22.1875 43.046875 
Q 18.109375 38.09375 18.109375 28.8125 
L 18.109375 0 
L 9.078125 0 
L 9.078125 54.6875 
L 18.109375 54.6875 
L 18.109375 46.1875 
Q 20.953125 51.171875 25.484375 53.578125 
Q 30.03125 56 36.53125 56 
Q 37.453125 56 38.578125 55.875 
Q 39.703125 55.765625 41.0625 55.515625 
z
" id="DejaVuSans-114"/>
      <path d="M 48.78125 52.59375 
L 48.78125 44.1875 
Q 44.96875 46.296875 41.140625 47.34375 
Q 37.3125 48.390625 33.40625 48.390625 
Q 24.65625 48.390625 19.8125 42.84375 
Q 14.984375 37.3125 14.984375 27.296875 
Q 14.984375 17.28125 19.8125 11.734375 
Q 24.65625 6.203125 33.40625 6.203125 
Q 37.3125 6.203125 41.140625 7.25 
Q 44.96875 8.296875 48.78125 10.40625 
L 48.78125 2.09375 
Q 45.015625 0.34375 40.984375 -0.53125 
Q 36.96875 -1.421875 32.421875 -1.421875 
Q 20.0625 -1.421875 12.78125 6.34375 
Q 5.515625 14.109375 5.515625 27.296875 
Q 5.515625 40.671875 12.859375 48.328125 
Q 20.21875 56 33.015625 56 
Q 37.15625 56 41.109375 55.140625 
Q 45.0625 54.296875 48.78125 52.59375 
z
" id="DejaVuSans-99"/>
      <path d="M 56.203125 29.59375 
L 56.203125 25.203125 
L 14.890625 25.203125 
Q 15.484375 15.921875 20.484375 11.0625 
Q 25.484375 6.203125 34.421875 6.203125 
Q 39.59375 6.203125 44.453125 7.46875 
Q 49.3125 8.734375 54.109375 11.28125 
L 54.109375 2.78125 
Q 49.265625 0.734375 44.1875 -0.34375 
Q 39.109375 -1.421875 33.890625 -1.421875 
Q 20.796875 -1.421875 13.15625 6.1875 
Q 5.515625 13.8125 5.515625 26.8125 
Q 5.515625 40.234375 12.765625 48.109375 
Q 20.015625 56 32.328125 56 
Q 43.359375 56 49.78125 48.890625 
Q 56.203125 41.796875 56.203125 29.59375 
z
M 47.21875 32.234375 
Q 47.125 39.59375 43.09375 43.984375 
Q 39.0625 48.390625 32.421875 48.390625 
Q 24.90625 48.390625 20.390625 44.140625 
Q 15.875 39.890625 15.1875 32.171875 
z
" id="DejaVuSans-101"/>
      <path d="M 11.71875 12.40625 
L 22.015625 12.40625 
L 22.015625 0 
L 11.71875 0 
z
M 11.71875 51.703125 
L 22.015625 51.703125 
L 22.015625 39.3125 
L 11.71875 39.3125 
z
" id="DejaVuSans-58"/>
      <path d="M 54.890625 33.015625 
L 54.890625 0 
L 45.90625 0 
L 45.90625 32.71875 
Q 45.90625 40.484375 42.875 44.328125 
Q 39.84375 48.1875 33.796875 48.1875 
Q 26.515625 48.1875 22.3125 43.546875 
Q 18.109375 38.921875 18.109375 30.90625 
L 18.109375 0 
L 9.078125 0 
L 9.078125 54.6875 
L 18.109375 54.6875 
L 18.109375 46.1875 
Q 21.34375 51.125 25.703125 53.5625 
Q 30.078125 56 35.796875 56 
Q 45.21875 56 50.046875 50.171875 
Q 54.890625 44.34375 54.890625 33.015625 
z
" id="DejaVuSans-110"/>
      <path d="M 52 44.1875 
Q 55.375 50.25 60.0625 53.125 
Q 64.75 56 71.09375 56 
Q 79.640625 56 84.28125 50.015625 
Q 88.921875 44.046875 88.921875 33.015625 
L 88.921875 0 
L 79.890625 0 
L 79.890625 32.71875 
Q 79.890625 40.578125 77.09375 44.375 
Q 74.3125 48.1875 68.609375 48.1875 
Q 61.625 48.1875 57.5625 43.546875 
Q 53.515625 38.921875 53.515625 30.90625 
L 53.515625 0 
L 44.484375 0 
L 44.484375 32.71875 
Q 44.484375 40.625 41.703125 44.40625 
Q 38.921875 48.1875 33.109375 48.1875 
Q 26.21875 48.1875 22.15625 43.53125 
Q 18.109375 38.875 18.109375 30.90625 
L 18.109375 0 
L 9.078125 0 
L 9.078125 54.6875 
L 18.109375 54.6875 
L 18.109375 46.1875 
Q 21.1875 51.21875 25.484375 53.609375 
Q 29.78125 56 35.6875 56 
Q 41.65625 56 45.828125 52.96875 
Q 50 49.953125 52 44.1875 
z
" id="DejaVuSans-109"/>
      <path d="M 9.421875 54.6875 
L 18.40625 54.6875 
L 18.40625 0 
L 9.421875 0 
z
M 9.421875 75.984375 
L 18.40625 75.984375 
L 18.40625 64.59375 
L 9.421875 64.59375 
z
" id="DejaVuSans-105"/>
     </defs>
     <use xlink:href="#DejaVuSans-68"/>
     <use x="77.001953" xlink:href="#DejaVuSans-97"/>
     <use x="138.28125" xlink:href="#DejaVuSans-116"/>
     <use x="177.490234" xlink:href="#DejaVuSans-97"/>
     <use x="238.769531" xlink:href="#DejaVuSans-32"/>
     <use x="270.556641" xlink:href="#DejaVuSans-115"/>
     <use x="322.65625" xlink:href="#DejaVuSans-111"/>
     <use x="383.837891" xlink:href="#DejaVuSans-117"/>
     <use x="447.216797" xlink:href="#DejaVuSans-114"/>
     <use x="486.080078" xlink:href="#DejaVuSans-99"/>
     <use x="541.060547" xlink:href="#DejaVuSans-101"/>
     <use x="602.583984" xlink:href="#DejaVuSans-58"/>
     <use x="636.275391" xlink:href="#DejaVuSans-32"/>
     <use x="668.0625" xlink:href="#DejaVuSans-110"/>
     <use x="731.441406" xlink:href="#DejaVuSans-111"/>
     <use x="792.623047" xlink:href="#DejaVuSans-109"/>
     <use x="890.035156" xlink:href="#DejaVuSans-105"/>
     <use x="917.818359" xlink:href="#DejaVuSans-99"/>
     <use x="972.798828" xlink:href="#DejaVuSans-115"/>
    </g>
   </g>
   <g id="legend_1">
    <g id="patch_7">
     <path d="M 359.473125 64.150125 
L 407.72 64.150125 
Q 409.72 64.150125 409.72 62.150125 
L 409.72 48.472 
Q 409.72 46.472 407.72 46.472 
L 359.473125 46.472 
Q 357.473125 46.472 357.473125 48.472 
L 357.473125 62.150125 
Q 357.473125 64.150125 359.473125 64.150125 
z
" style="fill:#ffffff;opacity:0.8;stroke:#cccccc;stroke-linejoin:miter;"/>
    </g>
    <g id="line2d_14">
     <path d="M 361.473125 54.570438 
L 381.473125 54.570438 
" style="fill:none;stroke:#ff6347;stroke-linecap:square;stroke-width:1.5;"/>
    </g>
    <g id="line2d_15"/>
    <g id="text_14">
     <!-- RSI -->
     <g transform="translate(389.473125 58.070438)scale(0.1 -0.1)">
      <defs>
       <path d="M 44.390625 34.1875 
Q 47.5625 33.109375 50.5625 29.59375 
Q 53.5625 26.078125 56.59375 19.921875 
L 66.609375 0 
L 56 0 
L 46.6875 18.703125 
Q 43.0625 26.03125 39.671875 28.421875 
Q 36.28125 30.8125 30.421875 30.8125 
L 19.671875 30.8125 
L 19.671875 0 
L 9.8125 0 
L 9.8125 72.90625 
L 32.078125 72.90625 
Q 44.578125 72.90625 50.734375 67.671875 
Q 56.890625 62.453125 56.890625 51.90625 
Q 56.890625 45.015625 53.6875 40.46875 
Q 50.484375 35.9375 44.390625 34.1875 
z
M 19.671875 64.796875 
L 19.671875 38.921875 
L 32.078125 38.921875 
Q 39.203125 38.921875 42.84375 42.21875 
Q 46.484375 45.515625 46.484375 51.90625 
Q 46.484375 58.296875 42.84375 61.546875 
Q 39.203125 64.796875 32.078125 64.796875 
z
" id="DejaVuSans-82"/>
       <path d="M 53.515625 70.515625 
L 53.515625 60.890625 
Q 47.90625 63.578125 42.921875 64.890625 
Q 37.9375 66.21875 33.296875 66.21875 
Q 25.25 66.21875 20.875 63.09375 
Q 16.5 59.96875 16.5 54.203125 
Q 16.5 49.359375 19.40625 46.890625 
Q 22.3125 44.4375 30.421875 42.921875 
L 36.375 41.703125 
Q 47.40625 39.59375 52.65625 34.296875 
Q 57.90625 29 57.90625 20.125 
Q 57.90625 9.515625 50.796875 4.046875 
Q 43.703125 -1.421875 29.984375 -1.421875 
Q 24.8125 -1.421875 18.96875 -0.25 
Q 13.140625 0.921875 6.890625 3.21875 
L 6.890625 13.375 
Q 12.890625 10.015625 18.65625 8.296875 
Q 24.421875 6.59375 29.984375 6.59375 
Q 38.421875 6.59375 43.015625 9.90625 
Q 47.609375 13.234375 47.609375 19.390625 
Q 47.609375 24.75 44.3125 27.78125 
Q 41.015625 30.8125 33.5 32.328125 
L 27.484375 33.5 
Q 16.453125 35.6875 11.515625 40.375 
Q 6.59375 45.0625 6.59375 53.421875 
Q 6.59375 63.09375 13.40625 68.65625 
Q 20.21875 74.21875 32.171875 74.21875 
Q 37.3125 74.21875 42.625 73.28125 
Q 47.953125 72.359375 53.515625 70.515625 
z
" id="DejaVuSans-83"/>
       <path d="M 9.8125 72.90625 
L 19.671875 72.90625 
L 19.671875 0 
L 9.8125 0 
z
" id="DejaVuSans-73"/>
      </defs>
      <use xlink:href="#DejaVuSans-82"/>
      <use x="69.482422" xlink:href="#DejaVuSans-83"/>
      <use x="132.958984" xlink:href="#DejaVuSans-73"/>
     </g>
    </g>
   </g>
  </g>
  <g id="text_15">
   <!-- RSI -->
   <g transform="translate(217.4025 19.0695)scale(0.16 -0.16)">
    <use xlink:href="#DejaVuSans-82"/>
    <use x="69.482422" xlink:href="#DejaVuSans-83"/>
    <use x="132.958984" xlink:href="#DejaVuSans-73"/>
   </g>
  </g>
 </g>
 <defs>
  <clipPath id="p970bd49176">
   <rect height="266.112" width="357.12" x="57.6" y="41.472"/>
  </clipPath>
 </defs>
</svg>
