<?xml version="1.0" encoding="utf-8" standalone="no"?>
<!DOCTYPE svg PUBLIC "-//W3C//DTD SVG 1.1//EN"
  "http://www.w3.org/Graphics/SVG/1.1/DTD/svg11.dtd">
<!-- Created with matplotlib (https://matplotlib.org/) -->
<svg height="345.6pt" version="1.1" viewBox="0 0 460.8 345.6" width="460.8pt" xmlns="http://www.w3.org/2000/svg" xmlns:xlink="http://www.w3.org/1999/xlink">
 <metadata>
  <rdf:RDF xmlns:cc="http://creativecommons.org/ns#" xmlns:dc="http://purl.org/dc/elements/1.1/" xmlns:rdf="http://www.w3.org/1999/02/22-rdf-syntax-ns#">
   <cc:Work>
    <dc:type rdf:resource="http://purl.org/dc/dcmitype/StillImage"/>
    <dc:date>2021-02-09T19:08:38.532578</dc:date>
    <dc:format>image/svg+xml</dc:format>
    <dc:creator>
     <cc:Agent>
      <dc:title>Matplotlib v3.3.2, https://matplotlib.org/</dc:title>
     </cc:Agent>
    </dc:creator>
   </cc:Work>
  </rdf:RDF>
 </metadata>
 <defs>
  <style type="text/css">*{stroke-linecap:butt;stroke-linejoin:round;}</style>
 </defs>
 <g id="figure_1">
  <g id="patch_1">
   <path d="M 0 345.6 
L 460.8 345.6 
L 460.8 0 
L 0 0 
z
" style="fill:#ffffff;"/>
  </g>
  <g id="axes_1">
   <g id="patch_2">
    <path d="M 57.6 307.584 
L 414.72 307.584 
L 414.72 41.472 
L 57.6 41.472 
z
" style="fill:#ffffff;"/>
   </g>
   <g id="PolyCollection_1">
    <defs>
     <path d="M 73.832727 -229.985802 
L 73.832727 -120.288772 
L 74.634343 -120.288772 
L 75.43596 -120.288772 
L 76.237576 -120.288772 
L 77.039192 -120.288772 
L 77.840808 -120.288772 
L 78.642424 -120.288772 
L 79.44404 -120.288772 
L 80.245657 -120.288772 
L 81.047273 -120.288772 
L 81.848889 -120.288772 
L 82.650505 -120.288772 
L 83.452121 -120.288772 
L 84.253737 -120.288772 
L 85.055354 -120.288772 
L 85.85697 -120.288772 
L 86.658586 -120.288772 
L 87.460202 -120.288772 
L 88.261818 -120.288772 
L 89.063434 -120.288772 
L 89.865051 -120.288772 
L 90.666667 -120.288772 
L 91.468283 -120.288772 
L 92.269899 -120.288772 
L 93.071515 -120.288772 
L 93.873131 -120.288772 
L 94.674747 -120.288772 
L 95.476364 -120.288772 
L 96.27798 -120.288772 
L 97.079596 -120.288772 
L 97.881212 -120.288772 
L 98.682828 -120.288772 
L 99.484444 -120.288772 
L 100.286061 -120.288772 
L 101.087677 -120.288772 
L 101.889293 -120.288772 
L 102.690909 -120.288772 
L 103.492525 -120.288772 
L 104.294141 -120.288772 
L 105.095758 -120.288772 
L 105.897374 -120.288772 
L 106.69899 -120.288772 
L 107.500606 -120.288772 
L 108.302222 -120.288772 
L 109.103838 -120.288772 
L 109.905455 -120.288772 
L 110.707071 -120.288772 
L 111.508687 -120.288772 
L 112.310303 -120.288772 
L 113.111919 -120.288772 
L 113.913535 -120.288772 
L 114.715152 -120.288772 
L 115.516768 -120.288772 
L 116.318384 -120.288772 
L 117.12 -120.288772 
L 117.921616 -120.288772 
L 118.723232 -120.288772 
L 119.524848 -120.288772 
L 120.326465 -120.288772 
L 121.128081 -120.288772 
L 121.929697 -120.288772 
L 122.731313 -120.288772 
L 123.532929 -120.288772 
L 124.334545 -120.288772 
L 125.136162 -120.288772 
L 125.937778 -120.288772 
L 126.739394 -120.288772 
L 127.54101 -120.288772 
L 128.342626 -120.288772 
L 129.144242 -120.288772 
L 129.945859 -120.288772 
L 130.747475 -120.288772 
L 131.549091 -120.288772 
L 132.350707 -120.288772 
L 133.152323 -120.288772 
L 133.953939 -120.288772 
L 134.755556 -120.288772 
L 135.557172 -120.288772 
L 136.358788 -120.288772 
L 137.160404 -120.288772 
L 137.96202 -120.288772 
L 138.763636 -120.288772 
L 139.565253 -120.288772 
L 140.366869 -120.288772 
L 141.168485 -120.288772 
L 141.970101 -120.288772 
L 142.771717 -120.288772 
L 143.573333 -120.288772 
L 144.374949 -120.288772 
L 145.176566 -120.288772 
L 145.978182 -120.288772 
L 146.779798 -120.288772 
L 147.581414 -120.288772 
L 148.38303 -120.288772 
L 149.184646 -120.288772 
L 149.986263 -120.288772 
L 150.787879 -120.288772 
L 151.589495 -120.288772 
L 152.391111 -120.288772 
L 153.192727 -120.288772 
L 153.994343 -120.288772 
L 154.79596 -120.288772 
L 155.597576 -120.288772 
L 156.399192 -120.288772 
L 157.200808 -120.288772 
L 158.002424 -120.288772 
L 158.80404 -120.288772 
L 159.605657 -120.288772 
L 160.407273 -120.288772 
L 161.208889 -120.288772 
L 162.010505 -120.288772 
L 162.812121 -120.288772 
L 163.613737 -120.288772 
L 164.415354 -120.288772 
L 165.21697 -120.288772 
L 166.018586 -120.288772 
L 166.820202 -120.288772 
L 167.621818 -120.288772 
L 168.423434 -120.288772 
L 169.225051 -120.288772 
L 170.026667 -120.288772 
L 170.828283 -120.288772 
L 171.629899 -120.288772 
L 172.431515 -120.288772 
L 173.233131 -120.288772 
L 174.034747 -120.288772 
L 174.836364 -120.288772 
L 175.63798 -120.288772 
L 176.439596 -120.288772 
L 177.241212 -120.288772 
L 178.042828 -120.288772 
L 178.844444 -120.288772 
L 179.646061 -120.288772 
L 180.447677 -120.288772 
L 181.249293 -120.288772 
L 182.050909 -120.288772 
L 182.852525 -120.288772 
L 183.654141 -120.288772 
L 184.455758 -120.288772 
L 185.257374 -120.288772 
L 186.05899 -120.288772 
L 186.860606 -120.288772 
L 187.662222 -120.288772 
L 188.463838 -120.288772 
L 189.265455 -120.288772 
L 190.067071 -120.288772 
L 190.868687 -120.288772 
L 191.670303 -120.288772 
L 192.471919 -120.288772 
L 193.273535 -120.288772 
L 194.075152 -120.288772 
L 194.876768 -120.288772 
L 195.678384 -120.288772 
L 196.48 -120.288772 
L 197.281616 -120.288772 
L 198.083232 -120.288772 
L 198.884848 -120.288772 
L 199.686465 -120.288772 
L 200.488081 -120.288772 
L 201.289697 -120.288772 
L 202.091313 -120.288772 
L 202.892929 -120.288772 
L 203.694545 -120.288772 
L 204.496162 -120.288772 
L 205.297778 -120.288772 
L 206.099394 -120.288772 
L 206.90101 -120.288772 
L 207.702626 -120.288772 
L 208.504242 -120.288772 
L 209.305859 -120.288772 
L 210.107475 -120.288772 
L 210.909091 -120.288772 
L 211.710707 -120.288772 
L 212.512323 -120.288772 
L 213.313939 -120.288772 
L 214.115556 -120.288772 
L 214.917172 -120.288772 
L 215.718788 -120.288772 
L 216.520404 -120.288772 
L 217.32202 -120.288772 
L 218.123636 -120.288772 
L 218.925253 -120.288772 
L 219.726869 -120.288772 
L 220.528485 -120.288772 
L 221.330101 -120.288772 
L 222.131717 -120.288772 
L 222.933333 -120.288772 
L 223.734949 -120.288772 
L 224.536566 -120.288772 
L 225.338182 -120.288772 
L 226.139798 -120.288772 
L 226.941414 -120.288772 
L 227.74303 -120.288772 
L 228.544646 -120.288772 
L 229.346263 -120.288772 
L 230.147879 -120.288772 
L 230.949495 -120.288772 
L 231.751111 -120.288772 
L 232.552727 -120.288772 
L 233.354343 -120.288772 
L 234.15596 -120.288772 
L 234.957576 -120.288772 
L 235.759192 -120.288772 
L 236.560808 -120.288772 
L 237.362424 -120.288772 
L 238.16404 -120.288772 
L 238.965657 -120.288772 
L 239.767273 -120.288772 
L 240.568889 -120.288772 
L 241.370505 -120.288772 
L 242.172121 -120.288772 
L 242.973737 -120.288772 
L 243.775354 -120.288772 
L 244.57697 -120.288772 
L 245.378586 -120.288772 
L 246.180202 -120.288772 
L 246.981818 -120.288772 
L 247.783434 -120.288772 
L 248.585051 -120.288772 
L 249.386667 -120.288772 
L 250.188283 -120.288772 
L 250.989899 -120.288772 
L 251.791515 -120.288772 
L 252.593131 -120.288772 
L 253.394747 -120.288772 
L 254.196364 -120.288772 
L 254.99798 -120.288772 
L 255.799596 -120.288772 
L 256.601212 -120.288772 
L 257.402828 -120.288772 
L 258.204444 -120.288772 
L 259.006061 -120.288772 
L 259.807677 -120.288772 
L 260.609293 -120.288772 
L 261.410909 -120.288772 
L 262.212525 -120.288772 
L 263.014141 -120.288772 
L 263.815758 -120.288772 
L 264.617374 -120.288772 
L 265.41899 -120.288772 
L 266.220606 -120.288772 
L 267.022222 -120.288772 
L 267.823838 -120.288772 
L 268.625455 -120.288772 
L 269.427071 -120.288772 
L 270.228687 -120.288772 
L 271.030303 -120.288772 
L 271.831919 -120.288772 
L 272.633535 -120.288772 
L 273.435152 -120.288772 
L 274.236768 -120.288772 
L 275.038384 -120.288772 
L 275.84 -120.288772 
L 276.641616 -120.288772 
L 277.443232 -120.288772 
L 278.244848 -120.288772 
L 279.046465 -120.288772 
L 279.848081 -120.288772 
L 280.649697 -120.288772 
L 281.451313 -120.288772 
L 282.252929 -120.288772 
L 283.054545 -120.288772 
L 283.856162 -120.288772 
L 284.657778 -120.288772 
L 285.459394 -120.288772 
L 286.26101 -120.288772 
L 287.062626 -120.288772 
L 287.864242 -120.288772 
L 288.665859 -120.288772 
L 289.467475 -120.288772 
L 290.269091 -120.288772 
L 291.070707 -120.288772 
L 291.872323 -120.288772 
L 292.673939 -120.288772 
L 293.475556 -120.288772 
L 294.277172 -120.288772 
L 295.078788 -120.288772 
L 295.880404 -120.288772 
L 296.68202 -120.288772 
L 297.483636 -120.288772 
L 298.285253 -120.288772 
L 299.086869 -120.288772 
L 299.888485 -120.288772 
L 300.690101 -120.288772 
L 301.491717 -120.288772 
L 302.293333 -120.288772 
L 303.094949 -120.288772 
L 303.896566 -120.288772 
L 304.698182 -120.288772 
L 305.499798 -120.288772 
L 306.301414 -120.288772 
L 307.10303 -120.288772 
L 307.904646 -120.288772 
L 308.706263 -120.288772 
L 309.507879 -120.288772 
L 310.309495 -120.288772 
L 311.111111 -120.288772 
L 311.912727 -120.288772 
L 312.714343 -120.288772 
L 313.51596 -120.288772 
L 314.317576 -120.288772 
L 315.119192 -120.288772 
L 315.920808 -120.288772 
L 316.722424 -120.288772 
L 317.52404 -120.288772 
L 318.325657 -120.288772 
L 319.127273 -120.288772 
L 319.928889 -120.288772 
L 320.730505 -120.288772 
L 321.532121 -120.288772 
L 322.333737 -120.288772 
L 323.135354 -120.288772 
L 323.93697 -120.288772 
L 324.738586 -120.288772 
L 325.540202 -120.288772 
L 326.341818 -120.288772 
L 327.143434 -120.288772 
L 327.945051 -120.288772 
L 328.746667 -120.288772 
L 329.548283 -120.288772 
L 330.349899 -120.288772 
L 331.151515 -120.288772 
L 331.953131 -120.288772 
L 332.754747 -120.288772 
L 333.556364 -120.288772 
L 334.35798 -120.288772 
L 335.159596 -120.288772 
L 335.961212 -120.288772 
L 336.762828 -120.288772 
L 337.564444 -120.288772 
L 338.366061 -120.288772 
L 339.167677 -120.288772 
L 339.969293 -120.288772 
L 340.770909 -120.288772 
L 341.572525 -120.288772 
L 342.374141 -120.288772 
L 343.175758 -120.288772 
L 343.977374 -120.288772 
L 344.77899 -120.288772 
L 345.580606 -120.288772 
L 346.382222 -120.288772 
L 347.183838 -120.288772 
L 347.985455 -120.288772 
L 348.787071 -120.288772 
L 349.588687 -120.288772 
L 350.390303 -120.288772 
L 351.191919 -120.288772 
L 351.993535 -120.288772 
L 352.795152 -120.288772 
L 353.596768 -120.288772 
L 354.398384 -120.288772 
L 355.2 -120.288772 
L 356.001616 -120.288772 
L 356.803232 -120.288772 
L 357.604848 -120.288772 
L 358.406465 -120.288772 
L 359.208081 -120.288772 
L 360.009697 -120.288772 
L 360.811313 -120.288772 
L 361.612929 -120.288772 
L 362.414545 -120.288772 
L 363.216162 -120.288772 
L 364.017778 -120.288772 
L 364.819394 -120.288772 
L 365.62101 -120.288772 
L 366.422626 -120.288772 
L 367.224242 -120.288772 
L 368.025859 -120.288772 
L 368.827475 -120.288772 
L 369.629091 -120.288772 
L 370.430707 -120.288772 
L 371.232323 -120.288772 
L 372.033939 -120.288772 
L 372.835556 -120.288772 
L 373.637172 -120.288772 
L 374.438788 -120.288772 
L 375.240404 -120.288772 
L 376.04202 -120.288772 
L 376.843636 -120.288772 
L 377.645253 -120.288772 
L 378.446869 -120.288772 
L 379.248485 -120.288772 
L 380.050101 -120.288772 
L 380.851717 -120.288772 
L 381.653333 -120.288772 
L 382.454949 -120.288772 
L 383.256566 -120.288772 
L 384.058182 -120.288772 
L 384.859798 -120.288772 
L 385.661414 -120.288772 
L 386.46303 -120.288772 
L 387.264646 -120.288772 
L 388.066263 -120.288772 
L 388.867879 -120.288772 
L 389.669495 -120.288772 
L 390.471111 -120.288772 
L 391.272727 -120.288772 
L 392.074343 -120.288772 
L 392.87596 -120.288772 
L 393.677576 -120.288772 
L 394.479192 -120.288772 
L 395.280808 -120.288772 
L 396.082424 -120.288772 
L 396.88404 -120.288772 
L 397.685657 -120.288772 
L 398.487273 -120.288772 
L 398.487273 -229.985802 
L 398.487273 -229.985802 
L 397.685657 -229.985802 
L 396.88404 -229.985802 
L 396.082424 -229.985802 
L 395.280808 -229.985802 
L 394.479192 -229.985802 
L 393.677576 -229.985802 
L 392.87596 -229.985802 
L 392.074343 -229.985802 
L 391.272727 -229.985802 
L 390.471111 -229.985802 
L 389.669495 -229.985802 
L 388.867879 -229.985802 
L 388.066263 -229.985802 
L 387.264646 -229.985802 
L 386.46303 -229.985802 
L 385.661414 -229.985802 
L 384.859798 -229.985802 
L 384.058182 -229.985802 
L 383.256566 -229.985802 
L 382.454949 -229.985802 
L 381.653333 -229.985802 
L 380.851717 -229.985802 
L 380.050101 -229.985802 
L 379.248485 -229.985802 
L 378.446869 -229.985802 
L 377.645253 -229.985802 
L 376.843636 -229.985802 
L 376.04202 -229.985802 
L 375.240404 -229.985802 
L 374.438788 -229.985802 
L 373.637172 -229.985802 
L 372.835556 -229.985802 
L 372.033939 -229.985802 
L 371.232323 -229.985802 
L 370.430707 -229.985802 
L 369.629091 -229.985802 
L 368.827475 -229.985802 
L 368.025859 -229.985802 
L 367.224242 -229.985802 
L 366.422626 -229.985802 
L 365.62101 -229.985802 
L 364.819394 -229.985802 
L 364.017778 -229.985802 
L 363.216162 -229.985802 
L 362.414545 -229.985802 
L 361.612929 -229.985802 
L 360.811313 -229.985802 
L 360.009697 -229.985802 
L 359.208081 -229.985802 
L 358.406465 -229.985802 
L 357.604848 -229.985802 
L 356.803232 -229.985802 
L 356.001616 -229.985802 
L 355.2 -229.985802 
L 354.398384 -229.985802 
L 353.596768 -229.985802 
L 352.795152 -229.985802 
L 351.993535 -229.985802 
L 351.191919 -229.985802 
L 350.390303 -229.985802 
L 349.588687 -229.985802 
L 348.787071 -229.985802 
L 347.985455 -229.985802 
L 347.183838 -229.985802 
L 346.382222 -229.985802 
L 345.580606 -229.985802 
L 344.77899 -229.985802 
L 343.977374 -229.985802 
L 343.175758 -229.985802 
L 342.374141 -229.985802 
L 341.572525 -229.985802 
L 340.770909 -229.985802 
L 339.969293 -229.985802 
L 339.167677 -229.985802 
L 338.366061 -229.985802 
L 337.564444 -229.985802 
L 336.762828 -229.985802 
L 335.961212 -229.985802 
L 335.159596 -229.985802 
L 334.35798 -229.985802 
L 333.556364 -229.985802 
L 332.754747 -229.985802 
L 331.953131 -229.985802 
L 331.151515 -229.985802 
L 330.349899 -229.985802 
L 329.548283 -229.985802 
L 328.746667 -229.985802 
L 327.945051 -229.985802 
L 327.143434 -229.985802 
L 326.341818 -229.985802 
L 325.540202 -229.985802 
L 324.738586 -229.985802 
L 323.93697 -229.985802 
L 323.135354 -229.985802 
L 322.333737 -229.985802 
L 321.532121 -229.985802 
L 320.730505 -229.985802 
L 319.928889 -229.985802 
L 319.127273 -229.985802 
L 318.325657 -229.985802 
L 317.52404 -229.985802 
L 316.722424 -229.985802 
L 315.920808 -229.985802 
L 315.119192 -229.985802 
L 314.317576 -229.985802 
L 313.51596 -229.985802 
L 312.714343 -229.985802 
L 311.912727 -229.985802 
L 311.111111 -229.985802 
L 310.309495 -229.985802 
L 309.507879 -229.985802 
L 308.706263 -229.985802 
L 307.904646 -229.985802 
L 307.10303 -229.985802 
L 306.301414 -229.985802 
L 305.499798 -229.985802 
L 304.698182 -229.985802 
L 303.896566 -229.985802 
L 303.094949 -229.985802 
L 302.293333 -229.985802 
L 301.491717 -229.985802 
L 300.690101 -229.985802 
L 299.888485 -229.985802 
L 299.086869 -229.985802 
L 298.285253 -229.985802 
L 297.483636 -229.985802 
L 296.68202 -229.985802 
L 295.880404 -229.985802 
L 295.078788 -229.985802 
L 294.277172 -229.985802 
L 293.475556 -229.985802 
L 292.673939 -229.985802 
L 291.872323 -229.985802 
L 291.070707 -229.985802 
L 290.269091 -229.985802 
L 289.467475 -229.985802 
L 288.665859 -229.985802 
L 287.864242 -229.985802 
L 287.062626 -229.985802 
L 286.26101 -229.985802 
L 285.459394 -229.985802 
L 284.657778 -229.985802 
L 283.856162 -229.985802 
L 283.054545 -229.985802 
L 282.252929 -229.985802 
L 281.451313 -229.985802 
L 280.649697 -229.985802 
L 279.848081 -229.985802 
L 279.046465 -229.985802 
L 278.244848 -229.985802 
L 277.443232 -229.985802 
L 276.641616 -229.985802 
L 275.84 -229.985802 
L 275.038384 -229.985802 
L 274.236768 -229.985802 
L 273.435152 -229.985802 
L 272.633535 -229.985802 
L 271.831919 -229.985802 
L 271.030303 -229.985802 
L 270.228687 -229.985802 
L 269.427071 -229.985802 
L 268.625455 -229.985802 
L 267.823838 -229.985802 
L 267.022222 -229.985802 
L 266.220606 -229.985802 
L 265.41899 -229.985802 
L 264.617374 -229.985802 
L 263.815758 -229.985802 
L 263.014141 -229.985802 
L 262.212525 -229.985802 
L 261.410909 -229.985802 
L 260.609293 -229.985802 
L 259.807677 -229.985802 
L 259.006061 -229.985802 
L 258.204444 -229.985802 
L 257.402828 -229.985802 
L 256.601212 -229.985802 
L 255.799596 -229.985802 
L 254.99798 -229.985802 
L 254.196364 -229.985802 
L 253.394747 -229.985802 
L 252.593131 -229.985802 
L 251.791515 -229.985802 
L 250.989899 -229.985802 
L 250.188283 -229.985802 
L 249.386667 -229.985802 
L 248.585051 -229.985802 
L 247.783434 -229.985802 
L 246.981818 -229.985802 
L 246.180202 -229.985802 
L 245.378586 -229.985802 
L 244.57697 -229.985802 
L 243.775354 -229.985802 
L 242.973737 -229.985802 
L 242.172121 -229.985802 
L 241.370505 -229.985802 
L 240.568889 -229.985802 
L 239.767273 -229.985802 
L 238.965657 -229.985802 
L 238.16404 -229.985802 
L 237.362424 -229.985802 
L 236.560808 -229.985802 
L 235.759192 -229.985802 
L 234.957576 -229.985802 
L 234.15596 -229.985802 
L 233.354343 -229.985802 
L 232.552727 -229.985802 
L 231.751111 -229.985802 
L 230.949495 -229.985802 
L 230.147879 -229.985802 
L 229.346263 -229.985802 
L 228.544646 -229.985802 
L 227.74303 -229.985802 
L 226.941414 -229.985802 
L 226.139798 -229.985802 
L 225.338182 -229.985802 
L 224.536566 -229.985802 
L 223.734949 -229.985802 
L 222.933333 -229.985802 
L 222.131717 -229.985802 
L 221.330101 -229.985802 
L 220.528485 -229.985802 
L 219.726869 -229.985802 
L 218.925253 -229.985802 
L 218.123636 -229.985802 
L 217.32202 -229.985802 
L 216.520404 -229.985802 
L 215.718788 -229.985802 
L 214.917172 -229.985802 
L 214.115556 -229.985802 
L 213.313939 -229.985802 
L 212.512323 -229.985802 
L 211.710707 -229.985802 
L 210.909091 -229.985802 
L 210.107475 -229.985802 
L 209.305859 -229.985802 
L 208.504242 -229.985802 
L 207.702626 -229.985802 
L 206.90101 -229.985802 
L 206.099394 -229.985802 
L 205.297778 -229.985802 
L 204.496162 -229.985802 
L 203.694545 -229.985802 
L 202.892929 -229.985802 
L 202.091313 -229.985802 
L 201.289697 -229.985802 
L 200.488081 -229.985802 
L 199.686465 -229.985802 
L 198.884848 -229.985802 
L 198.083232 -229.985802 
L 197.281616 -229.985802 
L 196.48 -229.985802 
L 195.678384 -229.985802 
L 194.876768 -229.985802 
L 194.075152 -229.985802 
L 193.273535 -229.985802 
L 192.471919 -229.985802 
L 191.670303 -229.985802 
L 190.868687 -229.985802 
L 190.067071 -229.985802 
L 189.265455 -229.985802 
L 188.463838 -229.985802 
L 187.662222 -229.985802 
L 186.860606 -229.985802 
L 186.05899 -229.985802 
L 185.257374 -229.985802 
L 184.455758 -229.985802 
L 183.654141 -229.985802 
L 182.852525 -229.985802 
L 182.050909 -229.985802 
L 181.249293 -229.985802 
L 180.447677 -229.985802 
L 179.646061 -229.985802 
L 178.844444 -229.985802 
L 178.042828 -229.985802 
L 177.241212 -229.985802 
L 176.439596 -229.985802 
L 175.63798 -229.985802 
L 174.836364 -229.985802 
L 174.034747 -229.985802 
L 173.233131 -229.985802 
L 172.431515 -229.985802 
L 171.629899 -229.985802 
L 170.828283 -229.985802 
L 170.026667 -229.985802 
L 169.225051 -229.985802 
L 168.423434 -229.985802 
L 167.621818 -229.985802 
L 166.820202 -229.985802 
L 166.018586 -229.985802 
L 165.21697 -229.985802 
L 164.415354 -229.985802 
L 163.613737 -229.985802 
L 162.812121 -229.985802 
L 162.010505 -229.985802 
L 161.208889 -229.985802 
L 160.407273 -229.985802 
L 159.605657 -229.985802 
L 158.80404 -229.985802 
L 158.002424 -229.985802 
L 157.200808 -229.985802 
L 156.399192 -229.985802 
L 155.597576 -229.985802 
L 154.79596 -229.985802 
L 153.994343 -229.985802 
L 153.192727 -229.985802 
L 152.391111 -229.985802 
L 151.589495 -229.985802 
L 150.787879 -229.985802 
L 149.986263 -229.985802 
L 149.184646 -229.985802 
L 148.38303 -229.985802 
L 147.581414 -229.985802 
L 146.779798 -229.985802 
L 145.978182 -229.985802 
L 145.176566 -229.985802 
L 144.374949 -229.985802 
L 143.573333 -229.985802 
L 142.771717 -229.985802 
L 141.970101 -229.985802 
L 141.168485 -229.985802 
L 140.366869 -229.985802 
L 139.565253 -229.985802 
L 138.763636 -229.985802 
L 137.96202 -229.985802 
L 137.160404 -229.985802 
L 136.358788 -229.985802 
L 135.557172 -229.985802 
L 134.755556 -229.985802 
L 133.953939 -229.985802 
L 133.152323 -229.985802 
L 132.350707 -229.985802 
L 131.549091 -229.985802 
L 130.747475 -229.985802 
L 129.945859 -229.985802 
L 129.144242 -229.985802 
L 128.342626 -229.985802 
L 127.54101 -229.985802 
L 126.739394 -229.985802 
L 125.937778 -229.985802 
L 125.136162 -229.985802 
L 124.334545 -229.985802 
L 123.532929 -229.985802 
L 122.731313 -229.985802 
L 121.929697 -229.985802 
L 121.128081 -229.985802 
L 120.326465 -229.985802 
L 119.524848 -229.985802 
L 118.723232 -229.985802 
L 117.921616 -229.985802 
L 117.12 -229.985802 
L 116.318384 -229.985802 
L 115.516768 -229.985802 
L 114.715152 -229.985802 
L 113.913535 -229.985802 
L 113.111919 -229.985802 
L 112.310303 -229.985802 
L 111.508687 -229.985802 
L 110.707071 -229.985802 
L 109.905455 -229.985802 
L 109.103838 -229.985802 
L 108.302222 -229.985802 
L 107.500606 -229.985802 
L 106.69899 -229.985802 
L 105.897374 -229.985802 
L 105.095758 -229.985802 
L 104.294141 -229.985802 
L 103.492525 -229.985802 
L 102.690909 -229.985802 
L 101.889293 -229.985802 
L 101.087677 -229.985802 
L 100.286061 -229.985802 
L 99.484444 -229.985802 
L 98.682828 -229.985802 
L 97.881212 -229.985802 
L 97.079596 -229.985802 
L 96.27798 -229.985802 
L 95.476364 -229.985802 
L 94.674747 -229.985802 
L 93.873131 -229.985802 
L 93.071515 -229.985802 
L 92.269899 -229.985802 
L 91.468283 -229.985802 
L 90.666667 -229.985802 
L 89.865051 -229.985802 
L 89.063434 -229.985802 
L 88.261818 -229.985802 
L 87.460202 -229.985802 
L 86.658586 -229.985802 
L 85.85697 -229.985802 
L 85.055354 -229.985802 
L 84.253737 -229.985802 
L 83.452121 -229.985802 
L 82.650505 -229.985802 
L 81.848889 -229.985802 
L 81.047273 -229.985802 
L 80.245657 -229.985802 
L 79.44404 -229.985802 
L 78.642424 -229.985802 
L 77.840808 -229.985802 
L 77.039192 -229.985802 
L 76.237576 -229.985802 
L 75.43596 -229.985802 
L 74.634343 -229.985802 
L 73.832727 -229.985802 
z
" id="m3ae3354cb8" style="stroke:#4b0082;stroke-opacity:0.3;"/>
    </defs>
    <g clip-path="url(#p8145d1ce14)">
     <use style="fill:#4b0082;fill-opacity:0.3;stroke:#4b0082;stroke-opacity:0.3;" x="0" xlink:href="#m3ae3354cb8" y="345.6"/>
    </g>
   </g>
   <g id="matplotlib.axis_1">
    <g id="xtick_1">
     <g id="line2d_1">
      <defs>
       <path d="M 0 0 
L 0 3.5 
" id="m9665c5db16" style="stroke:#000000;stroke-width:0.8;"/>
      </defs>
      <g>
       <use style="stroke:#000000;stroke-width:0.8;" x="73.832727" xlink:href="#m9665c5db16" y="307.584"/>
      </g>
     </g>
     <g id="text_1">
      <!-- 2020-01 -->
      <g transform="translate(52.941321 322.182437)scale(0.1 -0.1)">
       <defs>
        <path d="M 19.1875 8.296875 
L 53.609375 8.296875 
L 53.609375 0 
L 7.328125 0 
L 7.328125 8.296875 
Q 12.9375 14.109375 22.625 23.890625 
Q 32.328125 33.6875 34.8125 36.53125 
Q 39.546875 41.84375 41.421875 45.53125 
Q 43.3125 49.21875 43.3125 52.78125 
Q 43.3125 58.59375 39.234375 62.25 
Q 35.15625 65.921875 28.609375 65.921875 
Q 23.96875 65.921875 18.8125 64.3125 
Q 13.671875 62.703125 7.8125 59.421875 
L 7.8125 69.390625 
Q 13.765625 71.78125 18.9375 73 
Q 24.125 74.21875 28.421875 74.21875 
Q 39.75 74.21875 46.484375 68.546875 
Q 53.21875 62.890625 53.21875 53.421875 
Q 53.21875 48.921875 51.53125 44.890625 
Q 49.859375 40.875 45.40625 35.40625 
Q 44.1875 33.984375 37.640625 27.21875 
Q 31.109375 20.453125 19.1875 8.296875 
z
" id="DejaVuSans-50"/>
        <path d="M 31.78125 66.40625 
Q 24.171875 66.40625 20.328125 58.90625 
Q 16.5 51.421875 16.5 36.375 
Q 16.5 21.390625 20.328125 13.890625 
Q 24.171875 6.390625 31.78125 6.390625 
Q 39.453125 6.390625 43.28125 13.890625 
Q 47.125 21.390625 47.125 36.375 
Q 47.125 51.421875 43.28125 58.90625 
Q 39.453125 66.40625 31.78125 66.40625 
z
M 31.78125 74.21875 
Q 44.046875 74.21875 50.515625 64.515625 
Q 56.984375 54.828125 56.984375 36.375 
Q 56.984375 17.96875 50.515625 8.265625 
Q 44.046875 -1.421875 31.78125 -1.421875 
Q 19.53125 -1.421875 13.0625 8.265625 
Q 6.59375 17.96875 6.59375 36.375 
Q 6.59375 54.828125 13.0625 64.515625 
Q 19.53125 74.21875 31.78125 74.21875 
z
" id="DejaVuSans-48"/>
        <path d="M 4.890625 31.390625 
L 31.203125 31.390625 
L 31.203125 23.390625 
L 4.890625 23.390625 
z
" id="DejaVuSans-45"/>
        <path d="M 12.40625 8.296875 
L 28.515625 8.296875 
L 28.515625 63.921875 
L 10.984375 60.40625 
L 10.984375 69.390625 
L 28.421875 72.90625 
L 38.28125 72.90625 
L 38.28125 8.296875 
L 54.390625 8.296875 
L 54.390625 0 
L 12.40625 0 
z
" id="DejaVuSans-49"/>
       </defs>
       <use xlink:href="#DejaVuSans-50"/>
       <use x="63.623047" xlink:href="#DejaVuSans-48"/>
       <use x="127.246094" xlink:href="#DejaVuSans-50"/>
       <use x="190.869141" xlink:href="#DejaVuSans-48"/>
       <use x="254.492188" xlink:href="#DejaVuSans-45"/>
       <use x="290.576172" xlink:href="#DejaVuSans-48"/>
       <use x="354.199219" xlink:href="#DejaVuSans-49"/>
      </g>
     </g>
    </g>
    <g id="xtick_2">
     <g id="line2d_2">
      <g>
       <use style="stroke:#000000;stroke-width:0.8;" x="121.929697" xlink:href="#m9665c5db16" y="307.584"/>
      </g>
     </g>
     <g id="text_2">
      <!-- 2020-03 -->
      <g transform="translate(101.038291 322.182437)scale(0.1 -0.1)">
       <defs>
        <path d="M 40.578125 39.3125 
Q 47.65625 37.796875 51.625 33 
Q 55.609375 28.21875 55.609375 21.1875 
Q 55.609375 10.40625 48.1875 4.484375 
Q 40.765625 -1.421875 27.09375 -1.421875 
Q 22.515625 -1.421875 17.65625 -0.515625 
Q 12.796875 0.390625 7.625 2.203125 
L 7.625 11.71875 
Q 11.71875 9.328125 16.59375 8.109375 
Q 21.484375 6.890625 26.8125 6.890625 
Q 36.078125 6.890625 40.9375 10.546875 
Q 45.796875 14.203125 45.796875 21.1875 
Q 45.796875 27.640625 41.28125 31.265625 
Q 36.765625 34.90625 28.71875 34.90625 
L 20.21875 34.90625 
L 20.21875 43.015625 
L 29.109375 43.015625 
Q 36.375 43.015625 40.234375 45.921875 
Q 44.09375 48.828125 44.09375 54.296875 
Q 44.09375 59.90625 40.109375 62.90625 
Q 36.140625 65.921875 28.71875 65.921875 
Q 24.65625 65.921875 20.015625 65.03125 
Q 15.375 64.15625 9.8125 62.3125 
L 9.8125 71.09375 
Q 15.4375 72.65625 20.34375 73.4375 
Q 25.25 74.21875 29.59375 74.21875 
Q 40.828125 74.21875 47.359375 69.109375 
Q 53.90625 64.015625 53.90625 55.328125 
Q 53.90625 49.265625 50.4375 45.09375 
Q 46.96875 40.921875 40.578125 39.3125 
z
" id="DejaVuSans-51"/>
       </defs>
       <use xlink:href="#DejaVuSans-50"/>
       <use x="63.623047" xlink:href="#DejaVuSans-48"/>
       <use x="127.246094" xlink:href="#DejaVuSans-50"/>
       <use x="190.869141" xlink:href="#DejaVuSans-48"/>
       <use x="254.492188" xlink:href="#DejaVuSans-45"/>
       <use x="290.576172" xlink:href="#DejaVuSans-48"/>
       <use x="354.199219" xlink:href="#DejaVuSans-51"/>
      </g>
     </g>
    </g>
    <g id="xtick_3">
     <g id="line2d_3">
      <g>
       <use style="stroke:#000000;stroke-width:0.8;" x="170.828283" xlink:href="#m9665c5db16" y="307.584"/>
      </g>
     </g>
     <g id="text_3">
      <!-- 2020-05 -->
      <g transform="translate(149.936877 322.182437)scale(0.1 -0.1)">
       <defs>
        <path d="M 10.796875 72.90625 
L 49.515625 72.90625 
L 49.515625 64.59375 
L 19.828125 64.59375 
L 19.828125 46.734375 
Q 21.96875 47.46875 24.109375 47.828125 
Q 26.265625 48.1875 28.421875 48.1875 
Q 40.625 48.1875 47.75 41.5 
Q 54.890625 34.8125 54.890625 23.390625 
Q 54.890625 11.625 47.5625 5.09375 
Q 40.234375 -1.421875 26.90625 -1.421875 
Q 22.3125 -1.421875 17.546875 -0.640625 
Q 12.796875 0.140625 7.71875 1.703125 
L 7.71875 11.625 
Q 12.109375 9.234375 16.796875 8.0625 
Q 21.484375 6.890625 26.703125 6.890625 
Q 35.15625 6.890625 40.078125 11.328125 
Q 45.015625 15.765625 45.015625 23.390625 
Q 45.015625 31 40.078125 35.4375 
Q 35.15625 39.890625 26.703125 39.890625 
Q 22.75 39.890625 18.8125 39.015625 
Q 14.890625 38.140625 10.796875 36.28125 
z
" id="DejaVuSans-53"/>
       </defs>
       <use xlink:href="#DejaVuSans-50"/>
       <use x="63.623047" xlink:href="#DejaVuSans-48"/>
       <use x="127.246094" xlink:href="#DejaVuSans-50"/>
       <use x="190.869141" xlink:href="#DejaVuSans-48"/>
       <use x="254.492188" xlink:href="#DejaVuSans-45"/>
       <use x="290.576172" xlink:href="#DejaVuSans-48"/>
       <use x="354.199219" xlink:href="#DejaVuSans-53"/>
      </g>
     </g>
    </g>
    <g id="xtick_4">
     <g id="line2d_4">
      <g>
       <use style="stroke:#000000;stroke-width:0.8;" x="219.726869" xlink:href="#m9665c5db16" y="307.584"/>
      </g>
     </g>
     <g id="text_4">
      <!-- 2020-07 -->
      <g transform="translate(198.835462 322.182437)scale(0.1 -0.1)">
       <defs>
        <path d="M 8.203125 72.90625 
L 55.078125 72.90625 
L 55.078125 68.703125 
L 28.609375 0 
L 18.3125 0 
L 43.21875 64.59375 
L 8.203125 64.59375 
z
" id="DejaVuSans-55"/>
       </defs>
       <use xlink:href="#DejaVuSans-50"/>
       <use x="63.623047" xlink:href="#DejaVuSans-48"/>
       <use x="127.246094" xlink:href="#DejaVuSans-50"/>
       <use x="190.869141" xlink:href="#DejaVuSans-48"/>
       <use x="254.492188" xlink:href="#DejaVuSans-45"/>
       <use x="290.576172" xlink:href="#DejaVuSans-48"/>
       <use x="354.199219" xlink:href="#DejaVuSans-55"/>
      </g>
     </g>
    </g>
    <g id="xtick_5">
     <g id="line2d_5">
      <g>
       <use style="stroke:#000000;stroke-width:0.8;" x="269.427071" xlink:href="#m9665c5db16" y="307.584"/>
      </g>
     </g>
     <g id="text_5">
      <!-- 2020-09 -->
      <g transform="translate(248.535664 322.182437)scale(0.1 -0.1)">
       <defs>
        <path d="M 10.984375 1.515625 
L 10.984375 10.5 
Q 14.703125 8.734375 18.5 7.8125 
Q 22.3125 6.890625 25.984375 6.890625 
Q 35.75 6.890625 40.890625 13.453125 
Q 46.046875 20.015625 46.78125 33.40625 
Q 43.953125 29.203125 39.59375 26.953125 
Q 35.25 24.703125 29.984375 24.703125 
Q 19.046875 24.703125 12.671875 31.3125 
Q 6.296875 37.9375 6.296875 49.421875 
Q 6.296875 60.640625 12.9375 67.421875 
Q 19.578125 74.21875 30.609375 74.21875 
Q 43.265625 74.21875 49.921875 64.515625 
Q 56.59375 54.828125 56.59375 36.375 
Q 56.59375 19.140625 48.40625 8.859375 
Q 40.234375 -1.421875 26.421875 -1.421875 
Q 22.703125 -1.421875 18.890625 -0.6875 
Q 15.09375 0.046875 10.984375 1.515625 
z
M 30.609375 32.421875 
Q 37.25 32.421875 41.125 36.953125 
Q 45.015625 41.5 45.015625 49.421875 
Q 45.015625 57.28125 41.125 61.84375 
Q 37.25 66.40625 30.609375 66.40625 
Q 23.96875 66.40625 20.09375 61.84375 
Q 16.21875 57.28125 16.21875 49.421875 
Q 16.21875 41.5 20.09375 36.953125 
Q 23.96875 32.421875 30.609375 32.421875 
z
" id="DejaVuSans-57"/>
       </defs>
       <use xlink:href="#DejaVuSans-50"/>
       <use x="63.623047" xlink:href="#DejaVuSans-48"/>
       <use x="127.246094" xlink:href="#DejaVuSans-50"/>
       <use x="190.869141" xlink:href="#DejaVuSans-48"/>
       <use x="254.492188" xlink:href="#DejaVuSans-45"/>
       <use x="290.576172" xlink:href="#DejaVuSans-48"/>
       <use x="354.199219" xlink:href="#DejaVuSans-57"/>
      </g>
     </g>
    </g>
    <g id="xtick_6">
     <g id="line2d_6">
      <g>
       <use style="stroke:#000000;stroke-width:0.8;" x="318.325657" xlink:href="#m9665c5db16" y="307.584"/>
      </g>
     </g>
     <g id="text_6">
      <!-- 2020-11 -->
      <g transform="translate(297.43425 322.182437)scale(0.1 -0.1)">
       <use xlink:href="#DejaVuSans-50"/>
       <use x="63.623047" xlink:href="#DejaVuSans-48"/>
       <use x="127.246094" xlink:href="#DejaVuSans-50"/>
       <use x="190.869141" xlink:href="#DejaVuSans-48"/>
       <use x="254.492188" xlink:href="#DejaVuSans-45"/>
       <use x="290.576172" xlink:href="#DejaVuSans-49"/>
       <use x="354.199219" xlink:href="#DejaVuSans-49"/>
      </g>
     </g>
    </g>
    <g id="xtick_7">
     <g id="line2d_7">
      <g>
       <use style="stroke:#000000;stroke-width:0.8;" x="367.224242" xlink:href="#m9665c5db16" y="307.584"/>
      </g>
     </g>
     <g id="text_7">
      <!-- 2021-01 -->
      <g transform="translate(346.332836 322.182437)scale(0.1 -0.1)">
       <use xlink:href="#DejaVuSans-50"/>
       <use x="63.623047" xlink:href="#DejaVuSans-48"/>
       <use x="127.246094" xlink:href="#DejaVuSans-50"/>
       <use x="190.869141" xlink:href="#DejaVuSans-49"/>
       <use x="254.492188" xlink:href="#DejaVuSans-45"/>
       <use x="290.576172" xlink:href="#DejaVuSans-48"/>
       <use x="354.199219" xlink:href="#DejaVuSans-49"/>
      </g>
     </g>
    </g>
    <g id="xtick_8">
     <g id="line2d_8">
      <g>
       <use style="stroke:#000000;stroke-width:0.8;" x="414.519596" xlink:href="#m9665c5db16" y="307.584"/>
      </g>
     </g>
     <g id="text_8">
      <!-- 2021-03 -->
      <g transform="translate(393.62819 322.182437)scale(0.1 -0.1)">
       <use xlink:href="#DejaVuSans-50"/>
       <use x="63.623047" xlink:href="#DejaVuSans-48"/>
       <use x="127.246094" xlink:href="#DejaVuSans-50"/>
       <use x="190.869141" xlink:href="#DejaVuSans-49"/>
       <use x="254.492188" xlink:href="#DejaVuSans-45"/>
       <use x="290.576172" xlink:href="#DejaVuSans-48"/>
       <use x="354.199219" xlink:href="#DejaVuSans-51"/>
      </g>
     </g>
    </g>
   </g>
   <g id="matplotlib.axis_2">
    <g id="ytick_1">
     <g id="line2d_9">
      <defs>
       <path d="M 0 0 
L -3.5 0 
" id="m6b6ddeffd0" style="stroke:#000000;stroke-width:0.8;"/>
      </defs>
      <g>
       <use style="stroke:#000000;stroke-width:0.8;" x="57.6" xlink:href="#m6b6ddeffd0" y="307.584"/>
      </g>
     </g>
     <g id="text_9">
      <!-- 0 -->
      <g transform="translate(44.2375 311.383219)scale(0.1 -0.1)">
       <use xlink:href="#DejaVuSans-48"/>
      </g>
     </g>
    </g>
    <g id="ytick_2">
     <g id="line2d_10">
      <g>
       <use style="stroke:#000000;stroke-width:0.8;" x="57.6" xlink:href="#m6b6ddeffd0" y="252.735485"/>
      </g>
     </g>
     <g id="text_10">
      <!-- 20 -->
      <g transform="translate(37.875 256.534704)scale(0.1 -0.1)">
       <use xlink:href="#DejaVuSans-50"/>
       <use x="63.623047" xlink:href="#DejaVuSans-48"/>
      </g>
     </g>
    </g>
    <g id="ytick_3">
     <g id="line2d_11">
      <g>
       <use style="stroke:#000000;stroke-width:0.8;" x="57.6" xlink:href="#m6b6ddeffd0" y="197.88697"/>
      </g>
     </g>
     <g id="text_11">
      <!-- 40 -->
      <g transform="translate(37.875 201.686189)scale(0.1 -0.1)">
       <defs>
        <path d="M 37.796875 64.3125 
L 12.890625 25.390625 
L 37.796875 25.390625 
z
M 35.203125 72.90625 
L 47.609375 72.90625 
L 47.609375 25.390625 
L 58.015625 25.390625 
L 58.015625 17.1875 
L 47.609375 17.1875 
L 47.609375 0 
L 37.796875 0 
L 37.796875 17.1875 
L 4.890625 17.1875 
L 4.890625 26.703125 
z
" id="DejaVuSans-52"/>
       </defs>
       <use xlink:href="#DejaVuSans-52"/>
       <use x="63.623047" xlink:href="#DejaVuSans-48"/>
      </g>
     </g>
    </g>
    <g id="ytick_4">
     <g id="line2d_12">
      <g>
       <use style="stroke:#000000;stroke-width:0.8;" x="57.6" xlink:href="#m6b6ddeffd0" y="143.038455"/>
      </g>
     </g>
     <g id="text_12">
      <!-- 60 -->
      <g transform="translate(37.875 146.837674)scale(0.1 -0.1)">
       <defs>
        <path d="M 33.015625 40.375 
Q 26.375 40.375 22.484375 35.828125 
Q 18.609375 31.296875 18.609375 23.390625 
Q 18.609375 15.53125 22.484375 10.953125 
Q 26.375 6.390625 33.015625 6.390625 
Q 39.65625 6.390625 43.53125 10.953125 
Q 47.40625 15.53125 47.40625 23.390625 
Q 47.40625 31.296875 43.53125 35.828125 
Q 39.65625 40.375 33.015625 40.375 
z
M 52.59375 71.296875 
L 52.59375 62.3125 
Q 48.875 64.0625 45.09375 64.984375 
Q 41.3125 65.921875 37.59375 65.921875 
Q 27.828125 65.921875 22.671875 59.328125 
Q 17.53125 52.734375 16.796875 39.40625 
Q 19.671875 43.65625 24.015625 45.921875 
Q 28.375 48.1875 33.59375 48.1875 
Q 44.578125 48.1875 50.953125 41.515625 
Q 57.328125 34.859375 57.328125 23.390625 
Q 57.328125 12.15625 50.6875 5.359375 
Q 44.046875 -1.421875 33.015625 -1.421875 
Q 20.359375 -1.421875 13.671875 8.265625 
Q 6.984375 17.96875 6.984375 36.375 
Q 6.984375 53.65625 15.1875 63.9375 
Q 23.390625 74.21875 37.203125 74.21875 
Q 40.921875 74.21875 44.703125 73.484375 
Q 48.484375 72.75 52.59375 71.296875 
z
" id="DejaVuSans-54"/>
       </defs>
       <use xlink:href="#DejaVuSans-54"/>
       <use x="63.623047" xlink:href="#DejaVuSans-48"/>
      </g>
     </g>
    </g>
    <g id="ytick_5">
     <g id="line2d_13">
      <g>
       <use style="stroke:#000000;stroke-width:0.8;" x="57.6" xlink:href="#m6b6ddeffd0" y="88.18994"/>
      </g>
     </g>
     <g id="text_13">
      <!-- 80 -->
      <g transform="translate(37.875 91.989159)scale(0.1 -0.1)">
       <defs>
        <path d="M 31.78125 34.625 
Q 24.75 34.625 20.71875 30.859375 
Q 16.703125 27.09375 16.703125 20.515625 
Q 16.703125 13.921875 20.71875 10.15625 
Q 24.75 6.390625 31.78125 6.390625 
Q 38.8125 6.390625 42.859375 10.171875 
Q 46.921875 13.96875 46.921875 20.515625 
Q 46.921875 27.09375 42.890625 30.859375 
Q 38.875 34.625 31.78125 34.625 
z
M 21.921875 38.8125 
Q 15.578125 40.375 12.03125 44.71875 
Q 8.5 49.078125 8.5 55.328125 
Q 8.5 64.0625 14.71875 69.140625 
Q 20.953125 74.21875 31.78125 74.21875 
Q 42.671875 74.21875 48.875 69.140625 
Q 55.078125 64.0625 55.078125 55.328125 
Q 55.078125 49.078125 51.53125 44.71875 
Q 48 40.375 41.703125 38.8125 
Q 48.828125 37.15625 52.796875 32.3125 
Q 56.78125 27.484375 56.78125 20.515625 
Q 56.78125 9.90625 50.3125 4.234375 
Q 43.84375 -1.421875 31.78125 -1.421875 
Q 19.734375 -1.421875 13.25 4.234375 
Q 6.78125 9.90625 6.78125 20.515625 
Q 6.78125 27.484375 10.78125 32.3125 
Q 14.796875 37.15625 21.921875 38.8125 
z
M 18.3125 54.390625 
Q 18.3125 48.734375 21.84375 45.5625 
Q 25.390625 42.390625 31.78125 42.390625 
Q 38.140625 42.390625 41.71875 45.5625 
Q 45.3125 48.734375 45.3125 54.390625 
Q 45.3125 60.0625 41.71875 63.234375 
Q 38.140625 66.40625 31.78125 66.40625 
Q 25.390625 66.40625 21.84375 63.234375 
Q 18.3125 60.0625 18.3125 54.390625 
z
" id="DejaVuSans-56"/>
       </defs>
       <use xlink:href="#DejaVuSans-56"/>
       <use x="63.623047" xlink:href="#DejaVuSans-48"/>
      </g>
     </g>
    </g>
   </g>
   <g id="line2d_14">
    <path clip-path="url(#p8145d1ce14)" d="M 86.658586 97.159423 
L 87.460202 95.222531 
L 88.261818 101.217236 
L 89.063434 111.046295 
L 89.865051 124.880298 
L 90.666667 132.824701 
L 91.468283 136.323538 
L 93.071515 145.758273 
L 93.873131 147.646987 
L 94.674747 137.926176 
L 95.476364 132.834823 
L 96.27798 131.873587 
L 97.079596 132.107604 
L 97.881212 136.052336 
L 98.682828 137.270284 
L 99.484444 139.394561 
L 100.286061 134.132936 
L 101.087677 133.930138 
L 101.889293 129.950003 
L 102.690909 118.609501 
L 103.492525 102.453242 
L 104.294141 90.594761 
L 105.095758 86.84407 
L 105.897374 94.175319 
L 106.69899 106.194033 
L 107.500606 114.720929 
L 108.302222 117.811577 
L 109.103838 113.616792 
L 109.905455 124.595436 
L 110.707071 128.916704 
L 111.508687 143.154665 
L 112.310303 137.888592 
L 113.111919 148.528266 
L 113.913535 157.326275 
L 114.715152 174.011874 
L 115.516768 177.538824 
L 117.12 179.464778 
L 117.921616 189.897171 
L 119.524848 223.589803 
L 120.326465 231.981197 
L 121.128081 231.929379 
L 121.929697 233.362017 
L 122.731313 222.352635 
L 123.532929 224.49522 
L 124.334545 220.048637 
L 125.136162 218.635217 
L 125.937778 205.648386 
L 126.739394 201.317318 
L 128.342626 231.805893 
L 129.144242 241.716927 
L 129.945859 232.190648 
L 130.747475 240.604886 
L 131.549091 241.420852 
L 132.350707 249.210012 
L 133.152323 238.680345 
L 133.953939 243.210696 
L 134.755556 242.809237 
L 135.557172 243.628417 
L 136.358788 234.443107 
L 137.96202 225.005784 
L 138.763636 222.859785 
L 139.565253 213.694446 
L 140.366869 203.240394 
L 141.168485 195.470667 
L 141.970101 166.542659 
L 142.771717 150.944726 
L 143.573333 129.556802 
L 144.374949 142.663815 
L 145.176566 135.121191 
L 145.978182 135.40413 
L 146.779798 126.899419 
L 147.581414 134.289294 
L 149.184646 145.329728 
L 150.787879 134.106095 
L 151.589495 136.238163 
L 152.391111 139.830822 
L 153.192727 144.392019 
L 153.994343 143.739676 
L 154.79596 144.431983 
L 155.597576 134.945367 
L 156.399192 133.171473 
L 157.200808 133.411895 
L 158.002424 151.86822 
L 158.80404 155.546393 
L 159.605657 159.885969 
L 160.407273 152.543194 
L 161.208889 152.002666 
L 162.812121 180.30485 
L 163.613737 191.158451 
L 164.415354 178.175824 
L 166.018586 140.471333 
L 166.820202 128.650231 
L 167.621818 123.761101 
L 168.423434 120.127919 
L 169.225051 104.713019 
L 170.026667 98.207726 
L 170.828283 87.464564 
L 171.629899 90.810866 
L 172.431515 86.342374 
L 174.836364 61.61595 
L 175.63798 60.160917 
L 176.439596 63.853411 
L 177.241212 72.70843 
L 178.844444 122.492951 
L 179.646061 138.642647 
L 180.447677 144.002644 
L 181.249293 140.179866 
L 182.050909 146.373125 
L 182.852525 148.79893 
L 183.654141 154.143356 
L 185.257374 147.538308 
L 186.05899 151.634697 
L 186.860606 169.646882 
L 187.662222 184.105676 
L 188.463838 192.037647 
L 189.265455 182.550088 
L 190.067071 171.65388 
L 190.868687 166.850077 
L 191.670303 168.000121 
L 192.471919 175.181467 
L 193.273535 173.564772 
L 194.075152 167.314405 
L 194.876768 167.334865 
L 195.678384 163.040563 
L 196.48 170.179571 
L 197.281616 165.13551 
L 198.083232 162.743979 
L 198.884848 154.835934 
L 199.686465 150.698793 
L 200.488081 145.849197 
L 202.091313 132.215777 
L 202.892929 135.281121 
L 203.694545 150.883175 
L 205.297778 176.481003 
L 206.099394 174.365286 
L 206.90101 190.563792 
L 207.702626 187.425137 
L 208.504242 191.164179 
L 209.305859 186.4062 
L 210.107475 195.621847 
L 210.909091 199.31964 
L 211.710707 201.765751 
L 212.512323 195.051907 
L 213.313939 189.603035 
L 214.115556 188.438632 
L 214.917172 186.933776 
L 215.718788 192.406542 
L 216.520404 192.819953 
L 217.32202 197.720504 
L 218.123636 195.030463 
L 218.925253 194.022873 
L 219.726869 194.696178 
L 220.528485 196.296993 
L 221.330101 191.870714 
L 222.131717 191.421559 
L 222.933333 189.230994 
L 223.734949 192.566161 
L 224.536566 196.989345 
L 226.139798 177.239075 
L 226.941414 162.864862 
L 227.74303 159.037646 
L 228.544646 152.602276 
L 229.346263 154.568787 
L 230.147879 158.564384 
L 230.949495 166.413042 
L 232.552727 166.461714 
L 233.354343 163.433971 
L 234.15596 159.556604 
L 234.957576 172.505553 
L 235.759192 168.753661 
L 236.560808 169.354947 
L 237.362424 141.289475 
L 238.16404 133.740393 
L 238.965657 117.780053 
L 239.767273 112.02258 
L 240.568889 88.085947 
L 242.172121 62.894454 
L 242.973737 61.41991 
L 243.775354 56.502567 
L 244.57697 53.193625 
L 246.981818 100.833244 
L 247.783434 98.965414 
L 248.585051 99.247766 
L 249.386667 98.532556 
L 250.188283 100.193503 
L 250.989899 104.370573 
L 251.791515 114.259251 
L 252.593131 130.991999 
L 253.394747 145.079687 
L 254.196364 149.87274 
L 254.99798 150.948632 
L 255.799596 156.415784 
L 256.601212 148.907589 
L 258.204444 124.867886 
L 260.609293 169.108449 
L 261.410909 171.853175 
L 262.212525 173.990072 
L 263.014141 175.308046 
L 263.815758 175.035129 
L 264.617374 176.454417 
L 265.41899 182.624417 
L 266.220606 186.085143 
L 267.022222 191.145106 
L 267.823838 185.859587 
L 268.625455 193.446568 
L 269.427071 186.375583 
L 270.228687 189.632525 
L 271.030303 197.771936 
L 271.831919 211.168322 
L 272.633535 222.286841 
L 273.435152 217.883276 
L 274.236768 220.481186 
L 275.038384 217.266332 
L 275.84 216.425471 
L 276.641616 212.624536 
L 277.443232 212.264617 
L 278.244848 210.125857 
L 279.046465 215.932601 
L 279.848081 213.802965 
L 280.649697 214.997556 
L 281.451313 203.401752 
L 283.856162 118.004437 
L 284.657778 116.766325 
L 285.459394 127.195305 
L 287.062626 159.296527 
L 287.864242 153.583064 
L 288.665859 157.638354 
L 289.467475 153.032958 
L 290.269091 151.803568 
L 291.070707 156.95975 
L 291.872323 161.287067 
L 292.673939 173.31676 
L 293.475556 179.975473 
L 295.078788 195.19612 
L 295.880404 194.209346 
L 296.68202 178.070681 
L 297.483636 165.010857 
L 298.285253 147.074999 
L 299.086869 149.197575 
L 299.888485 139.636819 
L 300.690101 135.994165 
L 302.293333 114.582752 
L 303.094949 113.708808 
L 303.896566 112.225542 
L 304.698182 108.623738 
L 306.301414 102.328247 
L 307.10303 106.793459 
L 307.904646 103.310669 
L 308.706263 93.683254 
L 310.309495 68.134732 
L 311.111111 66.452169 
L 311.912727 69.46544 
L 312.714343 75.110551 
L 313.51596 79.009803 
L 314.317576 77.026356 
L 315.119192 80.84389 
L 315.920808 83.371831 
L 316.722424 86.798067 
L 317.52404 80.781253 
L 318.325657 76.685585 
L 319.928889 88.42586 
L 320.730505 97.229311 
L 322.333737 89.82232 
L 323.135354 94.465122 
L 323.93697 101.536829 
L 324.738586 111.521983 
L 325.540202 112.582052 
L 326.341818 110.710467 
L 327.143434 105.553869 
L 327.945051 96.688148 
L 328.746667 99.456902 
L 329.548283 104.93761 
L 330.349899 104.402707 
L 331.953131 90.609376 
L 332.754747 94.255498 
L 333.556364 96.177542 
L 335.159596 78.968263 
L 335.961212 72.948109 
L 336.762828 74.867529 
L 337.564444 77.332954 
L 339.167677 129.641076 
L 339.969293 145.200007 
L 340.770909 136.868957 
L 341.572525 125.049196 
L 342.374141 130.165271 
L 343.175758 136.900571 
L 343.977374 145.919261 
L 344.77899 152.619265 
L 345.580606 158.312037 
L 346.382222 162.0625 
L 347.183838 157.720806 
L 348.787071 170.842579 
L 349.588687 168.581207 
L 350.390303 158.86921 
L 351.191919 151.423977 
L 351.993535 152.208525 
L 352.795152 161.012777 
L 353.596768 161.876175 
L 354.398384 153.454583 
L 356.001616 109.912375 
L 356.803232 96.93208 
L 357.604848 92.211569 
L 358.406465 99.690585 
L 359.208081 97.919575 
L 360.009697 98.14352 
L 360.811313 90.029274 
L 361.612929 88.60803 
L 362.414545 80.517608 
L 363.216162 77.597517 
L 364.017778 76.842846 
L 364.819394 77.312594 
L 365.62101 76.76002 
L 367.224242 81.529057 
L 368.025859 80.527351 
L 368.827475 74.760044 
L 369.629091 70.44672 
L 370.430707 68.29781 
L 371.232323 63.96925 
L 372.835556 51.364286 
L 373.637172 53.510026 
L 374.438788 64.617079 
L 376.04202 107.879549 
L 376.843636 120.222336 
L 377.645253 120.35648 
L 378.446869 122.465312 
L 379.248485 131.784635 
L 380.050101 145.120993 
L 380.851717 149.265421 
L 381.653333 152.486786 
L 382.454949 160.560571 
L 383.256566 187.269289 
L 384.058182 207.5395 
L 384.859798 221.410334 
L 385.661414 216.727785 
L 386.46303 208.847612 
L 387.264646 197.561649 
L 388.066263 202.690185 
L 388.867879 209.218717 
L 389.669495 211.431038 
L 390.471111 198.603058 
L 391.272727 191.495097 
L 392.074343 192.993696 
L 392.87596 188.950658 
L 393.677576 176.610238 
L 394.479192 149.17073 
L 396.082424 113.027257 
L 396.88404 110.978859 
L 397.685657 98.553324 
L 398.487273 92.618029 
L 398.487273 92.618029 
" style="fill:none;stroke:#ff6347;stroke-linecap:square;stroke-width:1.5;"/>
   </g>
   <g id="patch_3">
    <path d="M 57.6 307.584 
L 57.6 41.472 
" style="fill:none;stroke:#000000;stroke-linecap:square;stroke-linejoin:miter;stroke-width:0.8;"/>
   </g>
   <g id="patch_4">
    <path d="M 414.72 307.584 
L 414.72 41.472 
" style="fill:none;stroke:#000000;stroke-linecap:square;stroke-linejoin:miter;stroke-width:0.8;"/>
   </g>
   <g id="patch_5">
    <path d="M 57.6 307.584 
L 414.72 307.584 
" style="fill:none;stroke:#000000;stroke-linecap:square;stroke-linejoin:miter;stroke-width:0.8;"/>
   </g>
   <g id="patch_6">
    <path d="M 57.6 41.472 
L 414.72 41.472 
" style="fill:none;stroke:#000000;stroke-linecap:square;stroke-linejoin:miter;stroke-width:0.8;"/>
   </g>
   <g id="text_14">
    <!-- Data source: nomics -->
    <g transform="translate(184.91625 35.472)scale(0.1 -0.1)">
     <defs>
      <path d="M 19.671875 64.796875 
L 19.671875 8.109375 
L 31.59375 8.109375 
Q 46.6875 8.109375 53.6875 14.9375 
Q 60.6875 21.78125 60.6875 36.53125 
Q 60.6875 51.171875 53.6875 57.984375 
Q 46.6875 64.796875 31.59375 64.796875 
z
M 9.8125 72.90625 
L 30.078125 72.90625 
Q 51.265625 72.90625 61.171875 64.09375 
Q 71.09375 55.28125 71.09375 36.53125 
Q 71.09375 17.671875 61.125 8.828125 
Q 51.171875 0 30.078125 0 
L 9.8125 0 
z
" id="DejaVuSans-68"/>
      <path d="M 34.28125 27.484375 
Q 23.390625 27.484375 19.1875 25 
Q 14.984375 22.515625 14.984375 16.5 
Q 14.984375 11.71875 18.140625 8.90625 
Q 21.296875 6.109375 26.703125 6.109375 
Q 34.1875 6.109375 38.703125 11.40625 
Q 43.21875 16.703125 43.21875 25.484375 
L 43.21875 27.484375 
z
M 52.203125 31.203125 
L 52.203125 0 
L 43.21875 0 
L 43.21875 8.296875 
Q 40.140625 3.328125 35.546875 0.953125 
Q 30.953125 -1.421875 24.3125 -1.421875 
Q 15.921875 -1.421875 10.953125 3.296875 
Q 6 8.015625 6 15.921875 
Q 6 25.140625 12.171875 29.828125 
Q 18.359375 34.515625 30.609375 34.515625 
L 43.21875 34.515625 
L 43.21875 35.40625 
Q 43.21875 41.609375 39.140625 45 
Q 35.0625 48.390625 27.6875 48.390625 
Q 23 48.390625 18.546875 47.265625 
Q 14.109375 46.140625 10.015625 43.890625 
L 10.015625 52.203125 
Q 14.9375 54.109375 19.578125 55.046875 
Q 24.21875 56 28.609375 56 
Q 40.484375 56 46.34375 49.84375 
Q 52.203125 43.703125 52.203125 31.203125 
z
" id="DejaVuSans-97"/>
      <path d="M 18.3125 70.21875 
L 18.3125 54.6875 
L 36.8125 54.6875 
L 36.8125 47.703125 
L 18.3125 47.703125 
L 18.3125 18.015625 
Q 18.3125 11.328125 20.140625 9.421875 
Q 21.96875 7.515625 27.59375 7.515625 
L 36.8125 7.515625 
L 36.8125 0 
L 27.59375 0 
Q 17.1875 0 13.234375 3.875 
Q 9.28125 7.765625 9.28125 18.015625 
L 9.28125 47.703125 
L 2.6875 47.703125 
L 2.6875 54.6875 
L 9.28125 54.6875 
L 9.28125 70.21875 
z
" id="DejaVuSans-116"/>
      <path id="DejaVuSans-32"/>
      <path d="M 44.28125 53.078125 
L 44.28125 44.578125 
Q 40.484375 46.53125 36.375 47.5 
Q 32.28125 48.484375 27.875 48.484375 
Q 21.1875 48.484375 17.84375 46.4375 
Q 14.5 44.390625 14.5 40.28125 
Q 14.5 37.15625 16.890625 35.375 
Q 19.28125 33.59375 26.515625 31.984375 
L 29.59375 31.296875 
Q 39.15625 29.25 43.1875 25.515625 
Q 47.21875 21.78125 47.21875 15.09375 
Q 47.21875 7.46875 41.1875 3.015625 
Q 35.15625 -1.421875 24.609375 -1.421875 
Q 20.21875 -1.421875 15.453125 -0.5625 
Q 10.6875 0.296875 5.421875 2 
L 5.421875 11.28125 
Q 10.40625 8.6875 15.234375 7.390625 
Q 20.0625 6.109375 24.8125 6.109375 
Q 31.15625 6.109375 34.5625 8.28125 
Q 37.984375 10.453125 37.984375 14.40625 
Q 37.984375 18.0625 35.515625 20.015625 
Q 33.0625 21.96875 24.703125 23.78125 
L 21.578125 24.515625 
Q 13.234375 26.265625 9.515625 29.90625 
Q 5.8125 33.546875 5.8125 39.890625 
Q 5.8125 47.609375 11.28125 51.796875 
Q 16.75 56 26.8125 56 
Q 31.78125 56 36.171875 55.265625 
Q 40.578125 54.546875 44.28125 53.078125 
z
" id="DejaVuSans-115"/>
      <path d="M 30.609375 48.390625 
Q 23.390625 48.390625 19.1875 42.75 
Q 14.984375 37.109375 14.984375 27.296875 
Q 14.984375 17.484375 19.15625 11.84375 
Q 23.34375 6.203125 30.609375 6.203125 
Q 37.796875 6.203125 41.984375 11.859375 
Q 46.1875 17.53125 46.1875 27.296875 
Q 46.1875 37.015625 41.984375 42.703125 
Q 37.796875 48.390625 30.609375 48.390625 
z
M 30.609375 56 
Q 42.328125 56 49.015625 48.375 
Q 55.71875 40.765625 55.71875 27.296875 
Q 55.71875 13.875 49.015625 6.21875 
Q 42.328125 -1.421875 30.609375 -1.421875 
Q 18.84375 -1.421875 12.171875 6.21875 
Q 5.515625 13.875 5.515625 27.296875 
Q 5.515625 40.765625 12.171875 48.375 
Q 18.84375 56 30.609375 56 
z
" id="DejaVuSans-111"/>
      <path d="M 8.5 21.578125 
L 8.5 54.6875 
L 17.484375 54.6875 
L 17.484375 21.921875 
Q 17.484375 14.15625 20.5 10.265625 
Q 23.53125 6.390625 29.59375 6.390625 
Q 36.859375 6.390625 41.078125 11.03125 
Q 45.3125 15.671875 45.3125 23.6875 
L 45.3125 54.6875 
L 54.296875 54.6875 
L 54.296875 0 
L 45.3125 0 
L 45.3125 8.40625 
Q 42.046875 3.421875 37.71875 1 
Q 33.40625 -1.421875 27.6875 -1.421875 
Q 18.265625 -1.421875 13.375 4.4375 
Q 8.5 10.296875 8.5 21.578125 
z
M 31.109375 56 
z
" id="DejaVuSans-117"/>
      <path d="M 41.109375 46.296875 
Q 39.59375 47.171875 37.8125 47.578125 
Q 36.03125 48 33.890625 48 
Q 26.265625 48 22.1875 43.046875 
Q 18.109375 38.09375 18.109375 28.8125 
L 18.109375 0 
L 9.078125 0 
L 9.078125 54.6875 
L 18.109375 54.6875 
L 18.109375 46.1875 
Q 20.953125 51.171875 25.484375 53.578125 
Q 30.03125 56 36.53125 56 
Q 37.453125 56 38.578125 55.875 
Q 39.703125 55.765625 41.0625 55.515625 
z
" id="DejaVuSans-114"/>
      <path d="M 48.78125 52.59375 
L 48.78125 44.1875 
Q 44.96875 46.296875 41.140625 47.34375 
Q 37.3125 48.390625 33.40625 48.390625 
Q 24.65625 48.390625 19.8125 42.84375 
Q 14.984375 37.3125 14.984375 27.296875 
Q 14.984375 17.28125 19.8125 11.734375 
Q 24.65625 6.203125 33.40625 6.203125 
Q 37.3125 6.203125 41.140625 7.25 
Q 44.96875 8.296875 48.78125 10.40625 
L 48.78125 2.09375 
Q 45.015625 0.34375 40.984375 -0.53125 
Q 36.96875 -1.421875 32.421875 -1.421875 
Q 20.0625 -1.421875 12.78125 6.34375 
Q 5.515625 14.109375 5.515625 27.296875 
Q 5.515625 40.671875 12.859375 48.328125 
Q 20.21875 56 33.015625 56 
Q 37.15625 56 41.109375 55.140625 
Q 45.0625 54.296875 48.78125 52.59375 
z
" id="DejaVuSans-99"/>
      <path d="M 56.203125 29.59375 
L 56.203125 25.203125 
L 14.890625 25.203125 
Q 15.484375 15.921875 20.484375 11.0625 
Q 25.484375 6.203125 34.421875 6.203125 
Q 39.59375 6.203125 44.453125 7.46875 
Q 49.3125 8.734375 54.109375 11.28125 
L 54.109375 2.78125 
Q 49.265625 0.734375 44.1875 -0.34375 
Q 39.109375 -1.421875 33.890625 -1.421875 
Q 20.796875 -1.421875 13.15625 6.1875 
Q 5.515625 13.8125 5.515625 26.8125 
Q 5.515625 40.234375 12.765625 48.109375 
Q 20.015625 56 32.328125 56 
Q 43.359375 56 49.78125 48.890625 
Q 56.203125 41.796875 56.203125 29.59375 
z
M 47.21875 32.234375 
Q 47.125 39.59375 43.09375 43.984375 
Q 39.0625 48.390625 32.421875 48.390625 
Q 24.90625 48.390625 20.390625 44.140625 
Q 15.875 39.890625 15.1875 32.171875 
z
" id="DejaVuSans-101"/>
      <path d="M 11.71875 12.40625 
L 22.015625 12.40625 
L 22.015625 0 
L 11.71875 0 
z
M 11.71875 51.703125 
L 22.015625 51.703125 
L 22.015625 39.3125 
L 11.71875 39.3125 
z
" id="DejaVuSans-58"/>
      <path d="M 54.890625 33.015625 
L 54.890625 0 
L 45.90625 0 
L 45.90625 32.71875 
Q 45.90625 40.484375 42.875 44.328125 
Q 39.84375 48.1875 33.796875 48.1875 
Q 26.515625 48.1875 22.3125 43.546875 
Q 18.109375 38.921875 18.109375 30.90625 
L 18.109375 0 
L 9.078125 0 
L 9.078125 54.6875 
L 18.109375 54.6875 
L 18.109375 46.1875 
Q 21.34375 51.125 25.703125 53.5625 
Q 30.078125 56 35.796875 56 
Q 45.21875 56 50.046875 50.171875 
Q 54.890625 44.34375 54.890625 33.015625 
z
" id="DejaVuSans-110"/>
      <path d="M 52 44.1875 
Q 55.375 50.25 60.0625 53.125 
Q 64.75 56 71.09375 56 
Q 79.640625 56 84.28125 50.015625 
Q 88.921875 44.046875 88.921875 33.015625 
L 88.921875 0 
L 79.890625 0 
L 79.890625 32.71875 
Q 79.890625 40.578125 77.09375 44.375 
Q 74.3125 48.1875 68.609375 48.1875 
Q 61.625 48.1875 57.5625 43.546875 
Q 53.515625 38.921875 53.515625 30.90625 
L 53.515625 0 
L 44.484375 0 
L 44.484375 32.71875 
Q 44.484375 40.625 41.703125 44.40625 
Q 38.921875 48.1875 33.109375 48.1875 
Q 26.21875 48.1875 22.15625 43.53125 
Q 18.109375 38.875 18.109375 30.90625 
L 18.109375 0 
L 9.078125 0 
L 9.078125 54.6875 
L 18.109375 54.6875 
L 18.109375 46.1875 
Q 21.1875 51.21875 25.484375 53.609375 
Q 29.78125 56 35.6875 56 
Q 41.65625 56 45.828125 52.96875 
Q 50 49.953125 52 44.1875 
z
" id="DejaVuSans-109"/>
      <path d="M 9.421875 54.6875 
L 18.40625 54.6875 
L 18.40625 0 
L 9.421875 0 
z
M 9.421875 75.984375 
L 18.40625 75.984375 
L 18.40625 64.59375 
L 9.421875 64.59375 
z
" id="DejaVuSans-105"/>
     </defs>
     <use xlink:href="#DejaVuSans-68"/>
     <use x="77.001953" xlink:href="#DejaVuSans-97"/>
     <use x="138.28125" xlink:href="#DejaVuSans-116"/>
     <use x="177.490234" xlink:href="#DejaVuSans-97"/>
     <use x="238.769531" xlink:href="#DejaVuSans-32"/>
     <use x="270.556641" xlink:href="#DejaVuSans-115"/>
     <use x="322.65625" xlink:href="#DejaVuSans-111"/>
     <use x="383.837891" xlink:href="#DejaVuSans-117"/>
     <use x="447.216797" xlink:href="#DejaVuSans-114"/>
     <use x="486.080078" xlink:href="#DejaVuSans-99"/>
     <use x="541.060547" xlink:href="#DejaVuSans-101"/>
     <use x="602.583984" xlink:href="#DejaVuSans-58"/>
     <use x="636.275391" xlink:href="#DejaVuSans-32"/>
     <use x="668.0625" xlink:href="#DejaVuSans-110"/>
     <use x="731.441406" xlink:href="#DejaVuSans-111"/>
     <use x="792.623047" xlink:href="#DejaVuSans-109"/>
     <use x="890.035156" xlink:href="#DejaVuSans-105"/>
     <use x="917.818359" xlink:href="#DejaVuSans-99"/>
     <use x="972.798828" xlink:href="#DejaVuSans-115"/>
    </g>
   </g>
   <g id="legend_1">
    <g id="patch_7">
     <path d="M 64.6 64.150125 
L 112.846875 64.150125 
Q 114.846875 64.150125 114.846875 62.150125 
L 114.846875 48.472 
Q 114.846875 46.472 112.846875 46.472 
L 64.6 46.472 
Q 62.6 46.472 62.6 48.472 
L 62.6 62.150125 
Q 62.6 64.150125 64.6 64.150125 
z
" style="fill:#ffffff;opacity:0.8;stroke:#cccccc;stroke-linejoin:miter;"/>
    </g>
    <g id="line2d_15">
     <path d="M 66.6 54.570438 
L 86.6 54.570438 
" style="fill:none;stroke:#ff6347;stroke-linecap:square;stroke-width:1.5;"/>
    </g>
    <g id="line2d_16"/>
    <g id="text_15">
     <!-- RSI -->
     <g transform="translate(94.6 58.070438)scale(0.1 -0.1)">
      <defs>
       <path d="M 44.390625 34.1875 
Q 47.5625 33.109375 50.5625 29.59375 
Q 53.5625 26.078125 56.59375 19.921875 
L 66.609375 0 
L 56 0 
L 46.6875 18.703125 
Q 43.0625 26.03125 39.671875 28.421875 
Q 36.28125 30.8125 30.421875 30.8125 
L 19.671875 30.8125 
L 19.671875 0 
L 9.8125 0 
L 9.8125 72.90625 
L 32.078125 72.90625 
Q 44.578125 72.90625 50.734375 67.671875 
Q 56.890625 62.453125 56.890625 51.90625 
Q 56.890625 45.015625 53.6875 40.46875 
Q 50.484375 35.9375 44.390625 34.1875 
z
M 19.671875 64.796875 
L 19.671875 38.921875 
L 32.078125 38.921875 
Q 39.203125 38.921875 42.84375 42.21875 
Q 46.484375 45.515625 46.484375 51.90625 
Q 46.484375 58.296875 42.84375 61.546875 
Q 39.203125 64.796875 32.078125 64.796875 
z
" id="DejaVuSans-82"/>
       <path d="M 53.515625 70.515625 
L 53.515625 60.890625 
Q 47.90625 63.578125 42.921875 64.890625 
Q 37.9375 66.21875 33.296875 66.21875 
Q 25.25 66.21875 20.875 63.09375 
Q 16.5 59.96875 16.5 54.203125 
Q 16.5 49.359375 19.40625 46.890625 
Q 22.3125 44.4375 30.421875 42.921875 
L 36.375 41.703125 
Q 47.40625 39.59375 52.65625 34.296875 
Q 57.90625 29 57.90625 20.125 
Q 57.90625 9.515625 50.796875 4.046875 
Q 43.703125 -1.421875 29.984375 -1.421875 
Q 24.8125 -1.421875 18.96875 -0.25 
Q 13.140625 0.921875 6.890625 3.21875 
L 6.890625 13.375 
Q 12.890625 10.015625 18.65625 8.296875 
Q 24.421875 6.59375 29.984375 6.59375 
Q 38.421875 6.59375 43.015625 9.90625 
Q 47.609375 13.234375 47.609375 19.390625 
Q 47.609375 24.75 44.3125 27.78125 
Q 41.015625 30.8125 33.5 32.328125 
L 27.484375 33.5 
Q 16.453125 35.6875 11.515625 40.375 
Q 6.59375 45.0625 6.59375 53.421875 
Q 6.59375 63.09375 13.40625 68.65625 
Q 20.21875 74.21875 32.171875 74.21875 
Q 37.3125 74.21875 42.625 73.28125 
Q 47.953125 72.359375 53.515625 70.515625 
z
" id="DejaVuSans-83"/>
       <path d="M 9.8125 72.90625 
L 19.671875 72.90625 
L 19.671875 0 
L 9.8125 0 
z
" id="DejaVuSans-73"/>
      </defs>
      <use xlink:href="#DejaVuSans-82"/>
      <use x="69.482422" xlink:href="#DejaVuSans-83"/>
      <use x="132.958984" xlink:href="#DejaVuSans-73"/>
     </g>
    </g>
   </g>
  </g>
  <g id="text_16">
   <!-- RSI -->
   <g transform="translate(217.4025 19.0695)scale(0.16 -0.16)">
    <use xlink:href="#DejaVuSans-82"/>
    <use x="69.482422" xlink:href="#DejaVuSans-83"/>
    <use x="132.958984" xlink:href="#DejaVuSans-73"/>
   </g>
  </g>
 </g>
 <defs>
  <clipPath id="p8145d1ce14">
   <rect height="266.112" width="357.12" x="57.6" y="41.472"/>
  </clipPath>
 </defs>
</svg>
