<?xml version="1.0" encoding="utf-8" standalone="no"?>
<!DOCTYPE svg PUBLIC "-//W3C//DTD SVG 1.1//EN"
  "http://www.w3.org/Graphics/SVG/1.1/DTD/svg11.dtd">
<!-- Created with matplotlib (https://matplotlib.org/) -->
<svg height="345.6pt" version="1.1" viewBox="0 0 460.8 345.6" width="460.8pt" xmlns="http://www.w3.org/2000/svg" xmlns:xlink="http://www.w3.org/1999/xlink">
 <metadata>
  <rdf:RDF xmlns:cc="http://creativecommons.org/ns#" xmlns:dc="http://purl.org/dc/elements/1.1/" xmlns:rdf="http://www.w3.org/1999/02/22-rdf-syntax-ns#">
   <cc:Work>
    <dc:type rdf:resource="http://purl.org/dc/dcmitype/StillImage"/>
    <dc:date>2021-01-17T16:05:55.963490</dc:date>
    <dc:format>image/svg+xml</dc:format>
    <dc:creator>
     <cc:Agent>
      <dc:title>Matplotlib v3.3.2, https://matplotlib.org/</dc:title>
     </cc:Agent>
    </dc:creator>
   </cc:Work>
  </rdf:RDF>
 </metadata>
 <defs>
  <style type="text/css">*{stroke-linecap:butt;stroke-linejoin:round;}</style>
 </defs>
 <g id="figure_1">
  <g id="patch_1">
   <path d="M 0 345.6 
L 460.8 345.6 
L 460.8 0 
L 0 0 
z
" style="fill:#ffffff;"/>
  </g>
  <g id="axes_1">
   <g id="patch_2">
    <path d="M 57.6 307.584 
L 414.72 307.584 
L 414.72 41.472 
L 57.6 41.472 
z
" style="fill:#ffffff;"/>
   </g>
   <g id="PolyCollection_1">
    <defs>
     <path d="M 73.832727 -219.118501 
L 73.832727 -115.631357 
L 74.684839 -115.631357 
L 75.536951 -115.631357 
L 76.389062 -115.631357 
L 77.241174 -115.631357 
L 78.093286 -115.631357 
L 78.945397 -115.631357 
L 79.797509 -115.631357 
L 80.649621 -115.631357 
L 81.501732 -115.631357 
L 82.353844 -115.631357 
L 83.205956 -115.631357 
L 84.058067 -115.631357 
L 84.910179 -115.631357 
L 85.762291 -115.631357 
L 86.614402 -115.631357 
L 87.466514 -115.631357 
L 88.318626 -115.631357 
L 89.170737 -115.631357 
L 90.022849 -115.631357 
L 90.874961 -115.631357 
L 91.727072 -115.631357 
L 92.579184 -115.631357 
L 93.431296 -115.631357 
L 94.283407 -115.631357 
L 95.135519 -115.631357 
L 95.987631 -115.631357 
L 96.839742 -115.631357 
L 97.691854 -115.631357 
L 98.543966 -115.631357 
L 99.396077 -115.631357 
L 100.248189 -115.631357 
L 101.100301 -115.631357 
L 101.952412 -115.631357 
L 102.804524 -115.631357 
L 103.656636 -115.631357 
L 104.508747 -115.631357 
L 105.360859 -115.631357 
L 106.212971 -115.631357 
L 107.065082 -115.631357 
L 107.917194 -115.631357 
L 108.769306 -115.631357 
L 109.621417 -115.631357 
L 110.473529 -115.631357 
L 111.325641 -115.631357 
L 112.177752 -115.631357 
L 113.029864 -115.631357 
L 113.881976 -115.631357 
L 114.734087 -115.631357 
L 115.586199 -115.631357 
L 116.438311 -115.631357 
L 117.290422 -115.631357 
L 118.142534 -115.631357 
L 118.994646 -115.631357 
L 119.846757 -115.631357 
L 120.698869 -115.631357 
L 121.550981 -115.631357 
L 122.403092 -115.631357 
L 123.255204 -115.631357 
L 124.107316 -115.631357 
L 124.959427 -115.631357 
L 125.811539 -115.631357 
L 126.663651 -115.631357 
L 127.515762 -115.631357 
L 128.367874 -115.631357 
L 129.219986 -115.631357 
L 130.072097 -115.631357 
L 130.924209 -115.631357 
L 131.776321 -115.631357 
L 132.628432 -115.631357 
L 133.480544 -115.631357 
L 134.332656 -115.631357 
L 135.184767 -115.631357 
L 136.036879 -115.631357 
L 136.888991 -115.631357 
L 137.741102 -115.631357 
L 138.593214 -115.631357 
L 139.445326 -115.631357 
L 140.297437 -115.631357 
L 141.149549 -115.631357 
L 142.001661 -115.631357 
L 142.853772 -115.631357 
L 143.705884 -115.631357 
L 144.557996 -115.631357 
L 145.410107 -115.631357 
L 146.262219 -115.631357 
L 147.114331 -115.631357 
L 147.966442 -115.631357 
L 148.818554 -115.631357 
L 149.670666 -115.631357 
L 150.522777 -115.631357 
L 151.374889 -115.631357 
L 152.227001 -115.631357 
L 153.079112 -115.631357 
L 153.931224 -115.631357 
L 154.783336 -115.631357 
L 155.635447 -115.631357 
L 156.487559 -115.631357 
L 157.339671 -115.631357 
L 158.191782 -115.631357 
L 159.043894 -115.631357 
L 159.896006 -115.631357 
L 160.748117 -115.631357 
L 161.600229 -115.631357 
L 162.452341 -115.631357 
L 163.304452 -115.631357 
L 164.156564 -115.631357 
L 165.008676 -115.631357 
L 165.860787 -115.631357 
L 166.712899 -115.631357 
L 167.565011 -115.631357 
L 168.417122 -115.631357 
L 169.269234 -115.631357 
L 170.121346 -115.631357 
L 170.973457 -115.631357 
L 171.825569 -115.631357 
L 172.677681 -115.631357 
L 173.529792 -115.631357 
L 174.381904 -115.631357 
L 175.234016 -115.631357 
L 176.086127 -115.631357 
L 176.938239 -115.631357 
L 177.790351 -115.631357 
L 178.642462 -115.631357 
L 179.494574 -115.631357 
L 180.346686 -115.631357 
L 181.198797 -115.631357 
L 182.050909 -115.631357 
L 182.903021 -115.631357 
L 183.755132 -115.631357 
L 184.607244 -115.631357 
L 185.459356 -115.631357 
L 186.311467 -115.631357 
L 187.163579 -115.631357 
L 188.015691 -115.631357 
L 188.867802 -115.631357 
L 189.719914 -115.631357 
L 190.572026 -115.631357 
L 191.424137 -115.631357 
L 192.276249 -115.631357 
L 193.128361 -115.631357 
L 193.980472 -115.631357 
L 194.832584 -115.631357 
L 195.684696 -115.631357 
L 196.536807 -115.631357 
L 197.388919 -115.631357 
L 198.241031 -115.631357 
L 199.093142 -115.631357 
L 199.945254 -115.631357 
L 200.797366 -115.631357 
L 201.649477 -115.631357 
L 202.501589 -115.631357 
L 203.353701 -115.631357 
L 204.205812 -115.631357 
L 205.057924 -115.631357 
L 205.910036 -115.631357 
L 206.762147 -115.631357 
L 207.614259 -115.631357 
L 208.466371 -115.631357 
L 209.318482 -115.631357 
L 210.170594 -115.631357 
L 211.022706 -115.631357 
L 211.874817 -115.631357 
L 212.726929 -115.631357 
L 213.579041 -115.631357 
L 214.431152 -115.631357 
L 215.283264 -115.631357 
L 216.135376 -115.631357 
L 216.987487 -115.631357 
L 217.839599 -115.631357 
L 218.691711 -115.631357 
L 219.543822 -115.631357 
L 220.395934 -115.631357 
L 221.248046 -115.631357 
L 222.100157 -115.631357 
L 222.952269 -115.631357 
L 223.804381 -115.631357 
L 224.656492 -115.631357 
L 225.508604 -115.631357 
L 226.360716 -115.631357 
L 227.212827 -115.631357 
L 228.064939 -115.631357 
L 228.917051 -115.631357 
L 229.769162 -115.631357 
L 230.621274 -115.631357 
L 231.473386 -115.631357 
L 232.325497 -115.631357 
L 233.177609 -115.631357 
L 234.029721 -115.631357 
L 234.881832 -115.631357 
L 235.733944 -115.631357 
L 236.586056 -115.631357 
L 237.438168 -115.631357 
L 238.290279 -115.631357 
L 239.142391 -115.631357 
L 239.994503 -115.631357 
L 240.846614 -115.631357 
L 241.698726 -115.631357 
L 242.550838 -115.631357 
L 243.402949 -115.631357 
L 244.255061 -115.631357 
L 245.107173 -115.631357 
L 245.959284 -115.631357 
L 246.811396 -115.631357 
L 247.663508 -115.631357 
L 248.515619 -115.631357 
L 249.367731 -115.631357 
L 250.219843 -115.631357 
L 251.071954 -115.631357 
L 251.924066 -115.631357 
L 252.776178 -115.631357 
L 253.628289 -115.631357 
L 254.480401 -115.631357 
L 255.332513 -115.631357 
L 256.184624 -115.631357 
L 257.036736 -115.631357 
L 257.888848 -115.631357 
L 258.740959 -115.631357 
L 259.593071 -115.631357 
L 260.445183 -115.631357 
L 261.297294 -115.631357 
L 262.149406 -115.631357 
L 263.001518 -115.631357 
L 263.853629 -115.631357 
L 264.705741 -115.631357 
L 265.557853 -115.631357 
L 266.409964 -115.631357 
L 267.262076 -115.631357 
L 268.114188 -115.631357 
L 268.966299 -115.631357 
L 269.818411 -115.631357 
L 270.670523 -115.631357 
L 271.522634 -115.631357 
L 272.374746 -115.631357 
L 273.226858 -115.631357 
L 274.078969 -115.631357 
L 274.931081 -115.631357 
L 275.783193 -115.631357 
L 276.635304 -115.631357 
L 277.487416 -115.631357 
L 278.339528 -115.631357 
L 279.191639 -115.631357 
L 280.043751 -115.631357 
L 280.895863 -115.631357 
L 281.747974 -115.631357 
L 282.600086 -115.631357 
L 283.452198 -115.631357 
L 284.304309 -115.631357 
L 285.156421 -115.631357 
L 286.008533 -115.631357 
L 286.860644 -115.631357 
L 287.712756 -115.631357 
L 288.564868 -115.631357 
L 289.416979 -115.631357 
L 290.269091 -115.631357 
L 291.121203 -115.631357 
L 291.973314 -115.631357 
L 292.825426 -115.631357 
L 293.677538 -115.631357 
L 294.529649 -115.631357 
L 295.381761 -115.631357 
L 296.233873 -115.631357 
L 297.085984 -115.631357 
L 297.938096 -115.631357 
L 298.790208 -115.631357 
L 299.642319 -115.631357 
L 300.494431 -115.631357 
L 301.346543 -115.631357 
L 302.198654 -115.631357 
L 303.050766 -115.631357 
L 303.902878 -115.631357 
L 304.754989 -115.631357 
L 305.607101 -115.631357 
L 306.459213 -115.631357 
L 307.311324 -115.631357 
L 308.163436 -115.631357 
L 309.015548 -115.631357 
L 309.867659 -115.631357 
L 310.719771 -115.631357 
L 311.571883 -115.631357 
L 312.423994 -115.631357 
L 313.276106 -115.631357 
L 314.128218 -115.631357 
L 314.980329 -115.631357 
L 315.832441 -115.631357 
L 316.684553 -115.631357 
L 317.536664 -115.631357 
L 318.388776 -115.631357 
L 319.240888 -115.631357 
L 320.092999 -115.631357 
L 320.945111 -115.631357 
L 321.797223 -115.631357 
L 322.649334 -115.631357 
L 323.501446 -115.631357 
L 324.353558 -115.631357 
L 325.205669 -115.631357 
L 326.057781 -115.631357 
L 326.909893 -115.631357 
L 327.762004 -115.631357 
L 328.614116 -115.631357 
L 329.466228 -115.631357 
L 330.318339 -115.631357 
L 331.170451 -115.631357 
L 332.022563 -115.631357 
L 332.874674 -115.631357 
L 333.726786 -115.631357 
L 334.578898 -115.631357 
L 335.431009 -115.631357 
L 336.283121 -115.631357 
L 337.135233 -115.631357 
L 337.987344 -115.631357 
L 338.839456 -115.631357 
L 339.691568 -115.631357 
L 340.543679 -115.631357 
L 341.395791 -115.631357 
L 342.247903 -115.631357 
L 343.100014 -115.631357 
L 343.952126 -115.631357 
L 344.804238 -115.631357 
L 345.656349 -115.631357 
L 346.508461 -115.631357 
L 347.360573 -115.631357 
L 348.212684 -115.631357 
L 349.064796 -115.631357 
L 349.916908 -115.631357 
L 350.769019 -115.631357 
L 351.621131 -115.631357 
L 352.473243 -115.631357 
L 353.325354 -115.631357 
L 354.177466 -115.631357 
L 355.029578 -115.631357 
L 355.881689 -115.631357 
L 356.733801 -115.631357 
L 357.585913 -115.631357 
L 358.438024 -115.631357 
L 359.290136 -115.631357 
L 360.142248 -115.631357 
L 360.994359 -115.631357 
L 361.846471 -115.631357 
L 362.698583 -115.631357 
L 363.550694 -115.631357 
L 364.402806 -115.631357 
L 365.254918 -115.631357 
L 366.107029 -115.631357 
L 366.959141 -115.631357 
L 367.811253 -115.631357 
L 368.663364 -115.631357 
L 369.515476 -115.631357 
L 370.367588 -115.631357 
L 371.219699 -115.631357 
L 372.071811 -115.631357 
L 372.923923 -115.631357 
L 373.776034 -115.631357 
L 374.628146 -115.631357 
L 375.480258 -115.631357 
L 376.332369 -115.631357 
L 377.184481 -115.631357 
L 378.036593 -115.631357 
L 378.888704 -115.631357 
L 379.740816 -115.631357 
L 380.592928 -115.631357 
L 381.445039 -115.631357 
L 382.297151 -115.631357 
L 383.149263 -115.631357 
L 384.001374 -115.631357 
L 384.853486 -115.631357 
L 385.705598 -115.631357 
L 386.557709 -115.631357 
L 387.409821 -115.631357 
L 388.261933 -115.631357 
L 389.114044 -115.631357 
L 389.966156 -115.631357 
L 390.818268 -115.631357 
L 391.670379 -115.631357 
L 392.522491 -115.631357 
L 393.374603 -115.631357 
L 394.226714 -115.631357 
L 395.078826 -115.631357 
L 395.930938 -115.631357 
L 396.783049 -115.631357 
L 397.635161 -115.631357 
L 398.487273 -115.631357 
L 398.487273 -219.118501 
L 398.487273 -219.118501 
L 397.635161 -219.118501 
L 396.783049 -219.118501 
L 395.930938 -219.118501 
L 395.078826 -219.118501 
L 394.226714 -219.118501 
L 393.374603 -219.118501 
L 392.522491 -219.118501 
L 391.670379 -219.118501 
L 390.818268 -219.118501 
L 389.966156 -219.118501 
L 389.114044 -219.118501 
L 388.261933 -219.118501 
L 387.409821 -219.118501 
L 386.557709 -219.118501 
L 385.705598 -219.118501 
L 384.853486 -219.118501 
L 384.001374 -219.118501 
L 383.149263 -219.118501 
L 382.297151 -219.118501 
L 381.445039 -219.118501 
L 380.592928 -219.118501 
L 379.740816 -219.118501 
L 378.888704 -219.118501 
L 378.036593 -219.118501 
L 377.184481 -219.118501 
L 376.332369 -219.118501 
L 375.480258 -219.118501 
L 374.628146 -219.118501 
L 373.776034 -219.118501 
L 372.923923 -219.118501 
L 372.071811 -219.118501 
L 371.219699 -219.118501 
L 370.367588 -219.118501 
L 369.515476 -219.118501 
L 368.663364 -219.118501 
L 367.811253 -219.118501 
L 366.959141 -219.118501 
L 366.107029 -219.118501 
L 365.254918 -219.118501 
L 364.402806 -219.118501 
L 363.550694 -219.118501 
L 362.698583 -219.118501 
L 361.846471 -219.118501 
L 360.994359 -219.118501 
L 360.142248 -219.118501 
L 359.290136 -219.118501 
L 358.438024 -219.118501 
L 357.585913 -219.118501 
L 356.733801 -219.118501 
L 355.881689 -219.118501 
L 355.029578 -219.118501 
L 354.177466 -219.118501 
L 353.325354 -219.118501 
L 352.473243 -219.118501 
L 351.621131 -219.118501 
L 350.769019 -219.118501 
L 349.916908 -219.118501 
L 349.064796 -219.118501 
L 348.212684 -219.118501 
L 347.360573 -219.118501 
L 346.508461 -219.118501 
L 345.656349 -219.118501 
L 344.804238 -219.118501 
L 343.952126 -219.118501 
L 343.100014 -219.118501 
L 342.247903 -219.118501 
L 341.395791 -219.118501 
L 340.543679 -219.118501 
L 339.691568 -219.118501 
L 338.839456 -219.118501 
L 337.987344 -219.118501 
L 337.135233 -219.118501 
L 336.283121 -219.118501 
L 335.431009 -219.118501 
L 334.578898 -219.118501 
L 333.726786 -219.118501 
L 332.874674 -219.118501 
L 332.022563 -219.118501 
L 331.170451 -219.118501 
L 330.318339 -219.118501 
L 329.466228 -219.118501 
L 328.614116 -219.118501 
L 327.762004 -219.118501 
L 326.909893 -219.118501 
L 326.057781 -219.118501 
L 325.205669 -219.118501 
L 324.353558 -219.118501 
L 323.501446 -219.118501 
L 322.649334 -219.118501 
L 321.797223 -219.118501 
L 320.945111 -219.118501 
L 320.092999 -219.118501 
L 319.240888 -219.118501 
L 318.388776 -219.118501 
L 317.536664 -219.118501 
L 316.684553 -219.118501 
L 315.832441 -219.118501 
L 314.980329 -219.118501 
L 314.128218 -219.118501 
L 313.276106 -219.118501 
L 312.423994 -219.118501 
L 311.571883 -219.118501 
L 310.719771 -219.118501 
L 309.867659 -219.118501 
L 309.015548 -219.118501 
L 308.163436 -219.118501 
L 307.311324 -219.118501 
L 306.459213 -219.118501 
L 305.607101 -219.118501 
L 304.754989 -219.118501 
L 303.902878 -219.118501 
L 303.050766 -219.118501 
L 302.198654 -219.118501 
L 301.346543 -219.118501 
L 300.494431 -219.118501 
L 299.642319 -219.118501 
L 298.790208 -219.118501 
L 297.938096 -219.118501 
L 297.085984 -219.118501 
L 296.233873 -219.118501 
L 295.381761 -219.118501 
L 294.529649 -219.118501 
L 293.677538 -219.118501 
L 292.825426 -219.118501 
L 291.973314 -219.118501 
L 291.121203 -219.118501 
L 290.269091 -219.118501 
L 289.416979 -219.118501 
L 288.564868 -219.118501 
L 287.712756 -219.118501 
L 286.860644 -219.118501 
L 286.008533 -219.118501 
L 285.156421 -219.118501 
L 284.304309 -219.118501 
L 283.452198 -219.118501 
L 282.600086 -219.118501 
L 281.747974 -219.118501 
L 280.895863 -219.118501 
L 280.043751 -219.118501 
L 279.191639 -219.118501 
L 278.339528 -219.118501 
L 277.487416 -219.118501 
L 276.635304 -219.118501 
L 275.783193 -219.118501 
L 274.931081 -219.118501 
L 274.078969 -219.118501 
L 273.226858 -219.118501 
L 272.374746 -219.118501 
L 271.522634 -219.118501 
L 270.670523 -219.118501 
L 269.818411 -219.118501 
L 268.966299 -219.118501 
L 268.114188 -219.118501 
L 267.262076 -219.118501 
L 266.409964 -219.118501 
L 265.557853 -219.118501 
L 264.705741 -219.118501 
L 263.853629 -219.118501 
L 263.001518 -219.118501 
L 262.149406 -219.118501 
L 261.297294 -219.118501 
L 260.445183 -219.118501 
L 259.593071 -219.118501 
L 258.740959 -219.118501 
L 257.888848 -219.118501 
L 257.036736 -219.118501 
L 256.184624 -219.118501 
L 255.332513 -219.118501 
L 254.480401 -219.118501 
L 253.628289 -219.118501 
L 252.776178 -219.118501 
L 251.924066 -219.118501 
L 251.071954 -219.118501 
L 250.219843 -219.118501 
L 249.367731 -219.118501 
L 248.515619 -219.118501 
L 247.663508 -219.118501 
L 246.811396 -219.118501 
L 245.959284 -219.118501 
L 245.107173 -219.118501 
L 244.255061 -219.118501 
L 243.402949 -219.118501 
L 242.550838 -219.118501 
L 241.698726 -219.118501 
L 240.846614 -219.118501 
L 239.994503 -219.118501 
L 239.142391 -219.118501 
L 238.290279 -219.118501 
L 237.438168 -219.118501 
L 236.586056 -219.118501 
L 235.733944 -219.118501 
L 234.881832 -219.118501 
L 234.029721 -219.118501 
L 233.177609 -219.118501 
L 232.325497 -219.118501 
L 231.473386 -219.118501 
L 230.621274 -219.118501 
L 229.769162 -219.118501 
L 228.917051 -219.118501 
L 228.064939 -219.118501 
L 227.212827 -219.118501 
L 226.360716 -219.118501 
L 225.508604 -219.118501 
L 224.656492 -219.118501 
L 223.804381 -219.118501 
L 222.952269 -219.118501 
L 222.100157 -219.118501 
L 221.248046 -219.118501 
L 220.395934 -219.118501 
L 219.543822 -219.118501 
L 218.691711 -219.118501 
L 217.839599 -219.118501 
L 216.987487 -219.118501 
L 216.135376 -219.118501 
L 215.283264 -219.118501 
L 214.431152 -219.118501 
L 213.579041 -219.118501 
L 212.726929 -219.118501 
L 211.874817 -219.118501 
L 211.022706 -219.118501 
L 210.170594 -219.118501 
L 209.318482 -219.118501 
L 208.466371 -219.118501 
L 207.614259 -219.118501 
L 206.762147 -219.118501 
L 205.910036 -219.118501 
L 205.057924 -219.118501 
L 204.205812 -219.118501 
L 203.353701 -219.118501 
L 202.501589 -219.118501 
L 201.649477 -219.118501 
L 200.797366 -219.118501 
L 199.945254 -219.118501 
L 199.093142 -219.118501 
L 198.241031 -219.118501 
L 197.388919 -219.118501 
L 196.536807 -219.118501 
L 195.684696 -219.118501 
L 194.832584 -219.118501 
L 193.980472 -219.118501 
L 193.128361 -219.118501 
L 192.276249 -219.118501 
L 191.424137 -219.118501 
L 190.572026 -219.118501 
L 189.719914 -219.118501 
L 188.867802 -219.118501 
L 188.015691 -219.118501 
L 187.163579 -219.118501 
L 186.311467 -219.118501 
L 185.459356 -219.118501 
L 184.607244 -219.118501 
L 183.755132 -219.118501 
L 182.903021 -219.118501 
L 182.050909 -219.118501 
L 181.198797 -219.118501 
L 180.346686 -219.118501 
L 179.494574 -219.118501 
L 178.642462 -219.118501 
L 177.790351 -219.118501 
L 176.938239 -219.118501 
L 176.086127 -219.118501 
L 175.234016 -219.118501 
L 174.381904 -219.118501 
L 173.529792 -219.118501 
L 172.677681 -219.118501 
L 171.825569 -219.118501 
L 170.973457 -219.118501 
L 170.121346 -219.118501 
L 169.269234 -219.118501 
L 168.417122 -219.118501 
L 167.565011 -219.118501 
L 166.712899 -219.118501 
L 165.860787 -219.118501 
L 165.008676 -219.118501 
L 164.156564 -219.118501 
L 163.304452 -219.118501 
L 162.452341 -219.118501 
L 161.600229 -219.118501 
L 160.748117 -219.118501 
L 159.896006 -219.118501 
L 159.043894 -219.118501 
L 158.191782 -219.118501 
L 157.339671 -219.118501 
L 156.487559 -219.118501 
L 155.635447 -219.118501 
L 154.783336 -219.118501 
L 153.931224 -219.118501 
L 153.079112 -219.118501 
L 152.227001 -219.118501 
L 151.374889 -219.118501 
L 150.522777 -219.118501 
L 149.670666 -219.118501 
L 148.818554 -219.118501 
L 147.966442 -219.118501 
L 147.114331 -219.118501 
L 146.262219 -219.118501 
L 145.410107 -219.118501 
L 144.557996 -219.118501 
L 143.705884 -219.118501 
L 142.853772 -219.118501 
L 142.001661 -219.118501 
L 141.149549 -219.118501 
L 140.297437 -219.118501 
L 139.445326 -219.118501 
L 138.593214 -219.118501 
L 137.741102 -219.118501 
L 136.888991 -219.118501 
L 136.036879 -219.118501 
L 135.184767 -219.118501 
L 134.332656 -219.118501 
L 133.480544 -219.118501 
L 132.628432 -219.118501 
L 131.776321 -219.118501 
L 130.924209 -219.118501 
L 130.072097 -219.118501 
L 129.219986 -219.118501 
L 128.367874 -219.118501 
L 127.515762 -219.118501 
L 126.663651 -219.118501 
L 125.811539 -219.118501 
L 124.959427 -219.118501 
L 124.107316 -219.118501 
L 123.255204 -219.118501 
L 122.403092 -219.118501 
L 121.550981 -219.118501 
L 120.698869 -219.118501 
L 119.846757 -219.118501 
L 118.994646 -219.118501 
L 118.142534 -219.118501 
L 117.290422 -219.118501 
L 116.438311 -219.118501 
L 115.586199 -219.118501 
L 114.734087 -219.118501 
L 113.881976 -219.118501 
L 113.029864 -219.118501 
L 112.177752 -219.118501 
L 111.325641 -219.118501 
L 110.473529 -219.118501 
L 109.621417 -219.118501 
L 108.769306 -219.118501 
L 107.917194 -219.118501 
L 107.065082 -219.118501 
L 106.212971 -219.118501 
L 105.360859 -219.118501 
L 104.508747 -219.118501 
L 103.656636 -219.118501 
L 102.804524 -219.118501 
L 101.952412 -219.118501 
L 101.100301 -219.118501 
L 100.248189 -219.118501 
L 99.396077 -219.118501 
L 98.543966 -219.118501 
L 97.691854 -219.118501 
L 96.839742 -219.118501 
L 95.987631 -219.118501 
L 95.135519 -219.118501 
L 94.283407 -219.118501 
L 93.431296 -219.118501 
L 92.579184 -219.118501 
L 91.727072 -219.118501 
L 90.874961 -219.118501 
L 90.022849 -219.118501 
L 89.170737 -219.118501 
L 88.318626 -219.118501 
L 87.466514 -219.118501 
L 86.614402 -219.118501 
L 85.762291 -219.118501 
L 84.910179 -219.118501 
L 84.058067 -219.118501 
L 83.205956 -219.118501 
L 82.353844 -219.118501 
L 81.501732 -219.118501 
L 80.649621 -219.118501 
L 79.797509 -219.118501 
L 78.945397 -219.118501 
L 78.093286 -219.118501 
L 77.241174 -219.118501 
L 76.389062 -219.118501 
L 75.536951 -219.118501 
L 74.684839 -219.118501 
L 73.832727 -219.118501 
z
" id="mf3748071fe" style="stroke:#4b0082;stroke-opacity:0.3;"/>
    </defs>
    <g clip-path="url(#pbbaf023a3e)">
     <use style="fill:#4b0082;fill-opacity:0.3;stroke:#4b0082;stroke-opacity:0.3;" x="0" xlink:href="#mf3748071fe" y="345.6"/>
    </g>
   </g>
   <g id="matplotlib.axis_1">
    <g id="xtick_1">
     <g id="line2d_1">
      <defs>
       <path d="M 0 0 
L 0 3.5 
" id="m2a8dfd9d83" style="stroke:#000000;stroke-width:0.8;"/>
      </defs>
      <g>
       <use style="stroke:#000000;stroke-width:0.8;" x="73.832727" xlink:href="#m2a8dfd9d83" y="307.584"/>
      </g>
     </g>
     <g id="text_1">
      <!-- 2020-01 -->
      <g transform="translate(52.941321 322.182437)scale(0.1 -0.1)">
       <defs>
        <path d="M 19.1875 8.296875 
L 53.609375 8.296875 
L 53.609375 0 
L 7.328125 0 
L 7.328125 8.296875 
Q 12.9375 14.109375 22.625 23.890625 
Q 32.328125 33.6875 34.8125 36.53125 
Q 39.546875 41.84375 41.421875 45.53125 
Q 43.3125 49.21875 43.3125 52.78125 
Q 43.3125 58.59375 39.234375 62.25 
Q 35.15625 65.921875 28.609375 65.921875 
Q 23.96875 65.921875 18.8125 64.3125 
Q 13.671875 62.703125 7.8125 59.421875 
L 7.8125 69.390625 
Q 13.765625 71.78125 18.9375 73 
Q 24.125 74.21875 28.421875 74.21875 
Q 39.75 74.21875 46.484375 68.546875 
Q 53.21875 62.890625 53.21875 53.421875 
Q 53.21875 48.921875 51.53125 44.890625 
Q 49.859375 40.875 45.40625 35.40625 
Q 44.1875 33.984375 37.640625 27.21875 
Q 31.109375 20.453125 19.1875 8.296875 
z
" id="DejaVuSans-50"/>
        <path d="M 31.78125 66.40625 
Q 24.171875 66.40625 20.328125 58.90625 
Q 16.5 51.421875 16.5 36.375 
Q 16.5 21.390625 20.328125 13.890625 
Q 24.171875 6.390625 31.78125 6.390625 
Q 39.453125 6.390625 43.28125 13.890625 
Q 47.125 21.390625 47.125 36.375 
Q 47.125 51.421875 43.28125 58.90625 
Q 39.453125 66.40625 31.78125 66.40625 
z
M 31.78125 74.21875 
Q 44.046875 74.21875 50.515625 64.515625 
Q 56.984375 54.828125 56.984375 36.375 
Q 56.984375 17.96875 50.515625 8.265625 
Q 44.046875 -1.421875 31.78125 -1.421875 
Q 19.53125 -1.421875 13.0625 8.265625 
Q 6.59375 17.96875 6.59375 36.375 
Q 6.59375 54.828125 13.0625 64.515625 
Q 19.53125 74.21875 31.78125 74.21875 
z
" id="DejaVuSans-48"/>
        <path d="M 4.890625 31.390625 
L 31.203125 31.390625 
L 31.203125 23.390625 
L 4.890625 23.390625 
z
" id="DejaVuSans-45"/>
        <path d="M 12.40625 8.296875 
L 28.515625 8.296875 
L 28.515625 63.921875 
L 10.984375 60.40625 
L 10.984375 69.390625 
L 28.421875 72.90625 
L 38.28125 72.90625 
L 38.28125 8.296875 
L 54.390625 8.296875 
L 54.390625 0 
L 12.40625 0 
z
" id="DejaVuSans-49"/>
       </defs>
       <use xlink:href="#DejaVuSans-50"/>
       <use x="63.623047" xlink:href="#DejaVuSans-48"/>
       <use x="127.246094" xlink:href="#DejaVuSans-50"/>
       <use x="190.869141" xlink:href="#DejaVuSans-48"/>
       <use x="254.492188" xlink:href="#DejaVuSans-45"/>
       <use x="290.576172" xlink:href="#DejaVuSans-48"/>
       <use x="354.199219" xlink:href="#DejaVuSans-49"/>
      </g>
     </g>
    </g>
    <g id="xtick_2">
     <g id="line2d_2">
      <g>
       <use style="stroke:#000000;stroke-width:0.8;" x="124.959427" xlink:href="#m2a8dfd9d83" y="307.584"/>
      </g>
     </g>
     <g id="text_2">
      <!-- 2020-03 -->
      <g transform="translate(104.068021 322.182437)scale(0.1 -0.1)">
       <defs>
        <path d="M 40.578125 39.3125 
Q 47.65625 37.796875 51.625 33 
Q 55.609375 28.21875 55.609375 21.1875 
Q 55.609375 10.40625 48.1875 4.484375 
Q 40.765625 -1.421875 27.09375 -1.421875 
Q 22.515625 -1.421875 17.65625 -0.515625 
Q 12.796875 0.390625 7.625 2.203125 
L 7.625 11.71875 
Q 11.71875 9.328125 16.59375 8.109375 
Q 21.484375 6.890625 26.8125 6.890625 
Q 36.078125 6.890625 40.9375 10.546875 
Q 45.796875 14.203125 45.796875 21.1875 
Q 45.796875 27.640625 41.28125 31.265625 
Q 36.765625 34.90625 28.71875 34.90625 
L 20.21875 34.90625 
L 20.21875 43.015625 
L 29.109375 43.015625 
Q 36.375 43.015625 40.234375 45.921875 
Q 44.09375 48.828125 44.09375 54.296875 
Q 44.09375 59.90625 40.109375 62.90625 
Q 36.140625 65.921875 28.71875 65.921875 
Q 24.65625 65.921875 20.015625 65.03125 
Q 15.375 64.15625 9.8125 62.3125 
L 9.8125 71.09375 
Q 15.4375 72.65625 20.34375 73.4375 
Q 25.25 74.21875 29.59375 74.21875 
Q 40.828125 74.21875 47.359375 69.109375 
Q 53.90625 64.015625 53.90625 55.328125 
Q 53.90625 49.265625 50.4375 45.09375 
Q 46.96875 40.921875 40.578125 39.3125 
z
" id="DejaVuSans-51"/>
       </defs>
       <use xlink:href="#DejaVuSans-50"/>
       <use x="63.623047" xlink:href="#DejaVuSans-48"/>
       <use x="127.246094" xlink:href="#DejaVuSans-50"/>
       <use x="190.869141" xlink:href="#DejaVuSans-48"/>
       <use x="254.492188" xlink:href="#DejaVuSans-45"/>
       <use x="290.576172" xlink:href="#DejaVuSans-48"/>
       <use x="354.199219" xlink:href="#DejaVuSans-51"/>
      </g>
     </g>
    </g>
    <g id="xtick_3">
     <g id="line2d_3">
      <g>
       <use style="stroke:#000000;stroke-width:0.8;" x="176.938239" xlink:href="#m2a8dfd9d83" y="307.584"/>
      </g>
     </g>
     <g id="text_3">
      <!-- 2020-05 -->
      <g transform="translate(156.046833 322.182437)scale(0.1 -0.1)">
       <defs>
        <path d="M 10.796875 72.90625 
L 49.515625 72.90625 
L 49.515625 64.59375 
L 19.828125 64.59375 
L 19.828125 46.734375 
Q 21.96875 47.46875 24.109375 47.828125 
Q 26.265625 48.1875 28.421875 48.1875 
Q 40.625 48.1875 47.75 41.5 
Q 54.890625 34.8125 54.890625 23.390625 
Q 54.890625 11.625 47.5625 5.09375 
Q 40.234375 -1.421875 26.90625 -1.421875 
Q 22.3125 -1.421875 17.546875 -0.640625 
Q 12.796875 0.140625 7.71875 1.703125 
L 7.71875 11.625 
Q 12.109375 9.234375 16.796875 8.0625 
Q 21.484375 6.890625 26.703125 6.890625 
Q 35.15625 6.890625 40.078125 11.328125 
Q 45.015625 15.765625 45.015625 23.390625 
Q 45.015625 31 40.078125 35.4375 
Q 35.15625 39.890625 26.703125 39.890625 
Q 22.75 39.890625 18.8125 39.015625 
Q 14.890625 38.140625 10.796875 36.28125 
z
" id="DejaVuSans-53"/>
       </defs>
       <use xlink:href="#DejaVuSans-50"/>
       <use x="63.623047" xlink:href="#DejaVuSans-48"/>
       <use x="127.246094" xlink:href="#DejaVuSans-50"/>
       <use x="190.869141" xlink:href="#DejaVuSans-48"/>
       <use x="254.492188" xlink:href="#DejaVuSans-45"/>
       <use x="290.576172" xlink:href="#DejaVuSans-48"/>
       <use x="354.199219" xlink:href="#DejaVuSans-53"/>
      </g>
     </g>
    </g>
    <g id="xtick_4">
     <g id="line2d_4">
      <g>
       <use style="stroke:#000000;stroke-width:0.8;" x="228.917051" xlink:href="#m2a8dfd9d83" y="307.584"/>
      </g>
     </g>
     <g id="text_4">
      <!-- 2020-07 -->
      <g transform="translate(208.025645 322.182437)scale(0.1 -0.1)">
       <defs>
        <path d="M 8.203125 72.90625 
L 55.078125 72.90625 
L 55.078125 68.703125 
L 28.609375 0 
L 18.3125 0 
L 43.21875 64.59375 
L 8.203125 64.59375 
z
" id="DejaVuSans-55"/>
       </defs>
       <use xlink:href="#DejaVuSans-50"/>
       <use x="63.623047" xlink:href="#DejaVuSans-48"/>
       <use x="127.246094" xlink:href="#DejaVuSans-50"/>
       <use x="190.869141" xlink:href="#DejaVuSans-48"/>
       <use x="254.492188" xlink:href="#DejaVuSans-45"/>
       <use x="290.576172" xlink:href="#DejaVuSans-48"/>
       <use x="354.199219" xlink:href="#DejaVuSans-55"/>
      </g>
     </g>
    </g>
    <g id="xtick_5">
     <g id="line2d_5">
      <g>
       <use style="stroke:#000000;stroke-width:0.8;" x="281.747974" xlink:href="#m2a8dfd9d83" y="307.584"/>
      </g>
     </g>
     <g id="text_5">
      <!-- 2020-09 -->
      <g transform="translate(260.856568 322.182437)scale(0.1 -0.1)">
       <defs>
        <path d="M 10.984375 1.515625 
L 10.984375 10.5 
Q 14.703125 8.734375 18.5 7.8125 
Q 22.3125 6.890625 25.984375 6.890625 
Q 35.75 6.890625 40.890625 13.453125 
Q 46.046875 20.015625 46.78125 33.40625 
Q 43.953125 29.203125 39.59375 26.953125 
Q 35.25 24.703125 29.984375 24.703125 
Q 19.046875 24.703125 12.671875 31.3125 
Q 6.296875 37.9375 6.296875 49.421875 
Q 6.296875 60.640625 12.9375 67.421875 
Q 19.578125 74.21875 30.609375 74.21875 
Q 43.265625 74.21875 49.921875 64.515625 
Q 56.59375 54.828125 56.59375 36.375 
Q 56.59375 19.140625 48.40625 8.859375 
Q 40.234375 -1.421875 26.421875 -1.421875 
Q 22.703125 -1.421875 18.890625 -0.6875 
Q 15.09375 0.046875 10.984375 1.515625 
z
M 30.609375 32.421875 
Q 37.25 32.421875 41.125 36.953125 
Q 45.015625 41.5 45.015625 49.421875 
Q 45.015625 57.28125 41.125 61.84375 
Q 37.25 66.40625 30.609375 66.40625 
Q 23.96875 66.40625 20.09375 61.84375 
Q 16.21875 57.28125 16.21875 49.421875 
Q 16.21875 41.5 20.09375 36.953125 
Q 23.96875 32.421875 30.609375 32.421875 
z
" id="DejaVuSans-57"/>
       </defs>
       <use xlink:href="#DejaVuSans-50"/>
       <use x="63.623047" xlink:href="#DejaVuSans-48"/>
       <use x="127.246094" xlink:href="#DejaVuSans-50"/>
       <use x="190.869141" xlink:href="#DejaVuSans-48"/>
       <use x="254.492188" xlink:href="#DejaVuSans-45"/>
       <use x="290.576172" xlink:href="#DejaVuSans-48"/>
       <use x="354.199219" xlink:href="#DejaVuSans-57"/>
      </g>
     </g>
    </g>
    <g id="xtick_6">
     <g id="line2d_6">
      <g>
       <use style="stroke:#000000;stroke-width:0.8;" x="333.726786" xlink:href="#m2a8dfd9d83" y="307.584"/>
      </g>
     </g>
     <g id="text_6">
      <!-- 2020-11 -->
      <g transform="translate(312.83538 322.182437)scale(0.1 -0.1)">
       <use xlink:href="#DejaVuSans-50"/>
       <use x="63.623047" xlink:href="#DejaVuSans-48"/>
       <use x="127.246094" xlink:href="#DejaVuSans-50"/>
       <use x="190.869141" xlink:href="#DejaVuSans-48"/>
       <use x="254.492188" xlink:href="#DejaVuSans-45"/>
       <use x="290.576172" xlink:href="#DejaVuSans-49"/>
       <use x="354.199219" xlink:href="#DejaVuSans-49"/>
      </g>
     </g>
    </g>
    <g id="xtick_7">
     <g id="line2d_7">
      <g>
       <use style="stroke:#000000;stroke-width:0.8;" x="385.705598" xlink:href="#m2a8dfd9d83" y="307.584"/>
      </g>
     </g>
     <g id="text_7">
      <!-- 2021-01 -->
      <g transform="translate(364.814191 322.182437)scale(0.1 -0.1)">
       <use xlink:href="#DejaVuSans-50"/>
       <use x="63.623047" xlink:href="#DejaVuSans-48"/>
       <use x="127.246094" xlink:href="#DejaVuSans-50"/>
       <use x="190.869141" xlink:href="#DejaVuSans-49"/>
       <use x="254.492188" xlink:href="#DejaVuSans-45"/>
       <use x="290.576172" xlink:href="#DejaVuSans-48"/>
       <use x="354.199219" xlink:href="#DejaVuSans-49"/>
      </g>
     </g>
    </g>
   </g>
   <g id="matplotlib.axis_2">
    <g id="ytick_1">
     <g id="line2d_8">
      <defs>
       <path d="M 0 0 
L -3.5 0 
" id="mfe0a791a5e" style="stroke:#000000;stroke-width:0.8;"/>
      </defs>
      <g>
       <use style="stroke:#000000;stroke-width:0.8;" x="57.6" xlink:href="#mfe0a791a5e" y="307.584"/>
      </g>
     </g>
     <g id="text_8">
      <!-- 0 -->
      <g transform="translate(44.2375 311.383219)scale(0.1 -0.1)">
       <use xlink:href="#DejaVuSans-48"/>
      </g>
     </g>
    </g>
    <g id="ytick_2">
     <g id="line2d_9">
      <g>
       <use style="stroke:#000000;stroke-width:0.8;" x="57.6" xlink:href="#mfe0a791a5e" y="255.840428"/>
      </g>
     </g>
     <g id="text_9">
      <!-- 20 -->
      <g transform="translate(37.875 259.639647)scale(0.1 -0.1)">
       <use xlink:href="#DejaVuSans-50"/>
       <use x="63.623047" xlink:href="#DejaVuSans-48"/>
      </g>
     </g>
    </g>
    <g id="ytick_3">
     <g id="line2d_10">
      <g>
       <use style="stroke:#000000;stroke-width:0.8;" x="57.6" xlink:href="#mfe0a791a5e" y="204.096857"/>
      </g>
     </g>
     <g id="text_10">
      <!-- 40 -->
      <g transform="translate(37.875 207.896076)scale(0.1 -0.1)">
       <defs>
        <path d="M 37.796875 64.3125 
L 12.890625 25.390625 
L 37.796875 25.390625 
z
M 35.203125 72.90625 
L 47.609375 72.90625 
L 47.609375 25.390625 
L 58.015625 25.390625 
L 58.015625 17.1875 
L 47.609375 17.1875 
L 47.609375 0 
L 37.796875 0 
L 37.796875 17.1875 
L 4.890625 17.1875 
L 4.890625 26.703125 
z
" id="DejaVuSans-52"/>
       </defs>
       <use xlink:href="#DejaVuSans-52"/>
       <use x="63.623047" xlink:href="#DejaVuSans-48"/>
      </g>
     </g>
    </g>
    <g id="ytick_4">
     <g id="line2d_11">
      <g>
       <use style="stroke:#000000;stroke-width:0.8;" x="57.6" xlink:href="#mfe0a791a5e" y="152.353285"/>
      </g>
     </g>
     <g id="text_11">
      <!-- 60 -->
      <g transform="translate(37.875 156.152504)scale(0.1 -0.1)">
       <defs>
        <path d="M 33.015625 40.375 
Q 26.375 40.375 22.484375 35.828125 
Q 18.609375 31.296875 18.609375 23.390625 
Q 18.609375 15.53125 22.484375 10.953125 
Q 26.375 6.390625 33.015625 6.390625 
Q 39.65625 6.390625 43.53125 10.953125 
Q 47.40625 15.53125 47.40625 23.390625 
Q 47.40625 31.296875 43.53125 35.828125 
Q 39.65625 40.375 33.015625 40.375 
z
M 52.59375 71.296875 
L 52.59375 62.3125 
Q 48.875 64.0625 45.09375 64.984375 
Q 41.3125 65.921875 37.59375 65.921875 
Q 27.828125 65.921875 22.671875 59.328125 
Q 17.53125 52.734375 16.796875 39.40625 
Q 19.671875 43.65625 24.015625 45.921875 
Q 28.375 48.1875 33.59375 48.1875 
Q 44.578125 48.1875 50.953125 41.515625 
Q 57.328125 34.859375 57.328125 23.390625 
Q 57.328125 12.15625 50.6875 5.359375 
Q 44.046875 -1.421875 33.015625 -1.421875 
Q 20.359375 -1.421875 13.671875 8.265625 
Q 6.984375 17.96875 6.984375 36.375 
Q 6.984375 53.65625 15.1875 63.9375 
Q 23.390625 74.21875 37.203125 74.21875 
Q 40.921875 74.21875 44.703125 73.484375 
Q 48.484375 72.75 52.59375 71.296875 
z
" id="DejaVuSans-54"/>
       </defs>
       <use xlink:href="#DejaVuSans-54"/>
       <use x="63.623047" xlink:href="#DejaVuSans-48"/>
      </g>
     </g>
    </g>
    <g id="ytick_5">
     <g id="line2d_12">
      <g>
       <use style="stroke:#000000;stroke-width:0.8;" x="57.6" xlink:href="#mfe0a791a5e" y="100.609714"/>
      </g>
     </g>
     <g id="text_12">
      <!-- 80 -->
      <g transform="translate(37.875 104.408932)scale(0.1 -0.1)">
       <defs>
        <path d="M 31.78125 34.625 
Q 24.75 34.625 20.71875 30.859375 
Q 16.703125 27.09375 16.703125 20.515625 
Q 16.703125 13.921875 20.71875 10.15625 
Q 24.75 6.390625 31.78125 6.390625 
Q 38.8125 6.390625 42.859375 10.171875 
Q 46.921875 13.96875 46.921875 20.515625 
Q 46.921875 27.09375 42.890625 30.859375 
Q 38.875 34.625 31.78125 34.625 
z
M 21.921875 38.8125 
Q 15.578125 40.375 12.03125 44.71875 
Q 8.5 49.078125 8.5 55.328125 
Q 8.5 64.0625 14.71875 69.140625 
Q 20.953125 74.21875 31.78125 74.21875 
Q 42.671875 74.21875 48.875 69.140625 
Q 55.078125 64.0625 55.078125 55.328125 
Q 55.078125 49.078125 51.53125 44.71875 
Q 48 40.375 41.703125 38.8125 
Q 48.828125 37.15625 52.796875 32.3125 
Q 56.78125 27.484375 56.78125 20.515625 
Q 56.78125 9.90625 50.3125 4.234375 
Q 43.84375 -1.421875 31.78125 -1.421875 
Q 19.734375 -1.421875 13.25 4.234375 
Q 6.78125 9.90625 6.78125 20.515625 
Q 6.78125 27.484375 10.78125 32.3125 
Q 14.796875 37.15625 21.921875 38.8125 
z
M 18.3125 54.390625 
Q 18.3125 48.734375 21.84375 45.5625 
Q 25.390625 42.390625 31.78125 42.390625 
Q 38.140625 42.390625 41.71875 45.5625 
Q 45.3125 48.734375 45.3125 54.390625 
Q 45.3125 60.0625 41.71875 63.234375 
Q 38.140625 66.40625 31.78125 66.40625 
Q 25.390625 66.40625 21.84375 63.234375 
Q 18.3125 60.0625 18.3125 54.390625 
z
" id="DejaVuSans-56"/>
       </defs>
       <use xlink:href="#DejaVuSans-56"/>
       <use x="63.623047" xlink:href="#DejaVuSans-48"/>
      </g>
     </g>
    </g>
    <g id="ytick_6">
     <g id="line2d_13">
      <g>
       <use style="stroke:#000000;stroke-width:0.8;" x="57.6" xlink:href="#mfe0a791a5e" y="48.866142"/>
      </g>
     </g>
     <g id="text_13">
      <!-- 100 -->
      <g transform="translate(31.5125 52.665361)scale(0.1 -0.1)">
       <use xlink:href="#DejaVuSans-49"/>
       <use x="63.623047" xlink:href="#DejaVuSans-48"/>
       <use x="127.246094" xlink:href="#DejaVuSans-48"/>
      </g>
     </g>
    </g>
   </g>
   <g id="line2d_14">
    <path clip-path="url(#pbbaf023a3e)" d="M 87.466514 109.456246 
L 88.318626 108.007165 
L 89.170737 113.682392 
L 90.022849 123.075642 
L 90.874961 136.071545 
L 91.727072 143.692865 
L 92.579184 147.168069 
L 94.283407 156.440143 
L 95.135519 158.067917 
L 95.987631 148.694506 
L 96.839742 143.810456 
L 97.691854 143.144732 
L 98.543966 143.329311 
L 99.396077 146.721602 
L 100.248189 147.177543 
L 101.100301 149.366892 
L 101.952412 144.942928 
L 102.804524 145.114691 
L 103.656636 141.592445 
L 104.508747 130.927074 
L 105.360859 116.013097 
L 106.212971 104.807671 
L 107.065082 101.390263 
L 107.917194 108.552096 
L 108.769306 119.897928 
L 109.621417 127.81617 
L 110.473529 130.682775 
L 111.325641 127.032289 
L 112.177752 137.61426 
L 113.029864 141.403967 
L 113.881976 154.156785 
L 114.734087 148.797381 
L 115.586199 158.6351 
L 116.438311 166.815616 
L 117.290422 181.874853 
L 118.142534 184.705715 
L 118.994646 185.292996 
L 119.846757 186.296717 
L 120.698869 196.080495 
L 122.403092 226.802689 
L 123.255204 234.064675 
L 124.107316 233.740089 
L 124.959427 235.101983 
L 125.811539 224.909545 
L 126.663651 226.708614 
L 127.515762 222.550091 
L 128.367874 220.951465 
L 129.219986 209.256247 
L 130.072097 205.804933 
L 131.776321 234.759467 
L 132.628432 243.873993 
L 133.480544 234.588673 
L 134.332656 242.578197 
L 135.184767 243.991502 
L 136.036879 252.290879 
L 136.888991 242.777003 
L 137.741102 246.775078 
L 138.593214 246.450289 
L 139.445326 247.143834 
L 140.297437 238.881511 
L 142.001661 230.099956 
L 142.853772 227.859496 
L 143.705884 218.961451 
L 144.557996 208.808689 
L 145.410107 201.280792 
L 146.262219 174.33578 
L 147.966442 134.815286 
L 148.818554 146.915302 
L 149.670666 143.916972 
L 150.522777 144.311529 
L 151.374889 137.076963 
L 152.227001 144.924047 
L 153.931224 155.908112 
L 155.635447 147.256929 
L 156.487559 146.649353 
L 157.339671 149.490348 
L 158.191782 151.429202 
L 159.043894 157.192329 
L 159.896006 158.214465 
L 160.748117 148.679235 
L 161.600229 148.242563 
L 162.452341 149.69363 
L 163.304452 167.11449 
L 164.156564 166.791561 
L 165.008676 168.308783 
L 165.860787 163.600175 
L 166.712899 160.748632 
L 167.565011 173.405021 
L 168.417122 188.056658 
L 169.269234 197.666922 
L 170.121346 187.128983 
L 170.973457 168.66414 
L 171.825569 152.889294 
L 172.677681 147.992431 
L 173.529792 138.491873 
L 174.381904 132.91438 
L 175.234016 113.370236 
L 176.938239 93.001681 
L 177.790351 92.281352 
L 178.642462 92.86379 
L 179.494574 85.399396 
L 181.198797 66.347122 
L 182.050909 65.276147 
L 182.903021 62.861699 
L 183.755132 67.976128 
L 185.459356 124.717557 
L 186.311467 147.867133 
L 187.163579 148.698179 
L 188.015691 151.869227 
L 189.719914 156.588421 
L 190.572026 155.878929 
L 191.424137 155.58419 
L 192.276249 153.192589 
L 193.128361 157.140982 
L 193.980472 165.271765 
L 194.832584 181.692139 
L 195.684696 192.849739 
L 196.536807 180.813684 
L 197.388919 173.816055 
L 198.241031 165.596834 
L 199.093142 180.403796 
L 199.945254 186.436928 
L 200.797366 190.018518 
L 201.649477 185.356085 
L 202.501589 182.70584 
L 203.353701 182.882752 
L 204.205812 178.259213 
L 205.057924 176.206032 
L 206.762147 167.196265 
L 207.614259 157.241794 
L 208.466371 154.318405 
L 210.170594 142.945968 
L 211.022706 135.638502 
L 211.874817 140.666463 
L 212.726929 153.534644 
L 213.579041 169.140905 
L 214.431152 182.094673 
L 215.283264 189.51345 
L 216.135376 198.779885 
L 216.987487 199.257282 
L 217.839599 194.213293 
L 218.691711 196.685694 
L 219.543822 203.770782 
L 220.395934 209.54051 
L 222.100157 194.687781 
L 222.952269 192.655411 
L 223.804381 197.966672 
L 224.656492 204.882794 
L 225.508604 206.137962 
L 226.360716 204.089456 
L 227.212827 196.248048 
L 228.064939 200.373741 
L 228.917051 200.539822 
L 229.769162 207.266367 
L 230.621274 202.257035 
L 231.473386 199.727357 
L 232.325497 200.967909 
L 233.177609 204.329895 
L 234.029721 208.376759 
L 234.881832 208.150879 
L 235.733944 193.294158 
L 237.438168 168.075781 
L 238.290279 161.819217 
L 239.142391 153.612193 
L 239.994503 155.132608 
L 240.846614 164.322028 
L 241.698726 176.570009 
L 242.550838 177.828911 
L 243.402949 177.868719 
L 244.255061 170.924628 
L 245.107173 173.018364 
L 245.959284 178.565703 
L 246.811396 178.694838 
L 247.663508 173.201101 
L 248.515619 148.074804 
L 250.219843 113.327672 
L 251.071954 104.137174 
L 251.924066 85.112173 
L 252.776178 69.360709 
L 253.628289 57.659375 
L 255.332513 51.510994 
L 256.184624 54.507085 
L 258.740959 74.18635 
L 259.593071 74.742322 
L 260.445183 75.588464 
L 261.297294 80.909295 
L 262.149406 87.764958 
L 263.001518 95.956271 
L 263.853629 107.806111 
L 264.705741 130.04332 
L 265.557853 148.980224 
L 266.409964 154.768101 
L 267.262076 152.296074 
L 268.114188 150.674506 
L 268.966299 150.147652 
L 269.818411 143.710409 
L 270.670523 144.227816 
L 271.522634 154.492799 
L 272.374746 172.301844 
L 273.226858 179.468345 
L 274.078969 180.794268 
L 274.931081 181.623883 
L 275.783193 189.705501 
L 276.635304 186.952819 
L 277.487416 187.372424 
L 278.339528 185.609151 
L 279.191639 194.461426 
L 280.043751 194.240386 
L 280.895863 192.525832 
L 281.747974 192.460243 
L 282.600086 190.72136 
L 283.452198 196.920259 
L 284.304309 207.362804 
L 285.156421 221.031869 
L 286.008533 229.998898 
L 286.860644 232.390733 
L 287.712756 230.225984 
L 288.564868 229.756841 
L 289.416979 221.583709 
L 290.269091 221.201517 
L 291.121203 216.732807 
L 291.973314 221.93768 
L 292.825426 219.511047 
L 293.677538 219.477522 
L 294.529649 211.631574 
L 295.381761 205.109924 
L 296.233873 179.864005 
L 297.938096 139.846907 
L 298.790208 145.353699 
L 299.642319 152.802861 
L 300.494431 163.366966 
L 301.346543 163.763548 
L 302.198654 161.52303 
L 303.050766 160.23639 
L 303.902878 157.778362 
L 304.754989 160.086595 
L 305.607101 167.178814 
L 306.459213 182.929709 
L 307.311324 194.55466 
L 308.163436 201.810611 
L 309.015548 207.023871 
L 309.867659 204.52098 
L 312.423994 156.995131 
L 313.276106 155.894985 
L 314.128218 146.289779 
L 314.980329 142.695686 
L 315.832441 133.832449 
L 316.684553 127.038772 
L 317.536664 125.579819 
L 318.388776 124.396033 
L 319.240888 118.437289 
L 320.092999 116.882163 
L 320.945111 115.065446 
L 321.797223 118.403023 
L 322.649334 115.126626 
L 323.501446 105.479896 
L 324.353558 92.343634 
L 325.205669 81.163107 
L 326.057781 79.446497 
L 326.909893 82.002777 
L 327.762004 87.223501 
L 328.614116 91.261687 
L 329.466228 89.121265 
L 330.318339 92.644038 
L 331.170451 94.731285 
L 332.022563 98.246655 
L 332.874674 92.452401 
L 333.726786 88.548919 
L 334.578898 94.511443 
L 335.431009 99.57984 
L 336.283121 108.110126 
L 337.135233 104.336648 
L 337.987344 101.415668 
L 338.839456 105.963083 
L 339.691568 113.044314 
L 340.543679 122.883031 
L 341.395791 123.728774 
L 342.247903 122.20836 
L 343.100014 117.014918 
L 343.952126 108.863555 
L 344.804238 111.695353 
L 345.656349 117.088974 
L 346.508461 116.836123 
L 347.360573 110.837211 
L 348.212684 104.008653 
L 349.064796 107.774346 
L 349.916908 109.499318 
L 351.621131 93.220832 
L 352.473243 87.210871 
L 353.325354 89.031958 
L 354.177466 91.999053 
L 355.881689 141.549712 
L 356.733801 155.342113 
L 357.585913 147.491273 
L 358.438024 136.357884 
L 359.290136 140.993695 
L 360.142248 147.123261 
L 360.994359 155.306656 
L 361.846471 161.762899 
L 362.698583 167.287716 
L 363.550694 171.085252 
L 364.402806 166.971957 
L 366.107029 179.220116 
L 366.959141 176.862633 
L 367.811253 167.598731 
L 368.663364 160.683197 
L 369.515476 161.497713 
L 370.367588 169.654913 
L 371.219699 170.517267 
L 372.071811 162.740037 
L 373.776034 121.714129 
L 374.628146 109.305919 
L 375.480258 105.19351 
L 376.332369 112.60229 
L 377.184481 111.291761 
L 378.036593 111.173817 
L 378.888704 103.718059 
L 379.740816 102.246033 
L 380.592928 94.559326 
L 381.445039 91.849508 
L 382.297151 91.438408 
L 383.149263 92.132171 
L 384.001374 91.52515 
L 385.705598 96.136169 
L 386.557709 95.152871 
L 387.409821 89.085125 
L 388.261933 84.822441 
L 389.114044 82.579746 
L 389.966156 78.684972 
L 391.670379 66.865659 
L 392.522491 68.470013 
L 393.374603 78.474453 
L 395.078826 120.145569 
L 395.930938 132.012818 
L 396.783049 132.169604 
L 397.635161 133.731492 
L 398.487273 142.66364 
L 398.487273 142.66364 
" style="fill:none;stroke:#ff6347;stroke-linecap:square;stroke-width:1.5;"/>
   </g>
   <g id="patch_3">
    <path d="M 57.6 307.584 
L 57.6 41.472 
" style="fill:none;stroke:#000000;stroke-linecap:square;stroke-linejoin:miter;stroke-width:0.8;"/>
   </g>
   <g id="patch_4">
    <path d="M 414.72 307.584 
L 414.72 41.472 
" style="fill:none;stroke:#000000;stroke-linecap:square;stroke-linejoin:miter;stroke-width:0.8;"/>
   </g>
   <g id="patch_5">
    <path d="M 57.6 307.584 
L 414.72 307.584 
" style="fill:none;stroke:#000000;stroke-linecap:square;stroke-linejoin:miter;stroke-width:0.8;"/>
   </g>
   <g id="patch_6">
    <path d="M 57.6 41.472 
L 414.72 41.472 
" style="fill:none;stroke:#000000;stroke-linecap:square;stroke-linejoin:miter;stroke-width:0.8;"/>
   </g>
   <g id="text_14">
    <!-- Data source: coindesk -->
    <g transform="translate(180.640469 35.472)scale(0.1 -0.1)">
     <defs>
      <path d="M 19.671875 64.796875 
L 19.671875 8.109375 
L 31.59375 8.109375 
Q 46.6875 8.109375 53.6875 14.9375 
Q 60.6875 21.78125 60.6875 36.53125 
Q 60.6875 51.171875 53.6875 57.984375 
Q 46.6875 64.796875 31.59375 64.796875 
z
M 9.8125 72.90625 
L 30.078125 72.90625 
Q 51.265625 72.90625 61.171875 64.09375 
Q 71.09375 55.28125 71.09375 36.53125 
Q 71.09375 17.671875 61.125 8.828125 
Q 51.171875 0 30.078125 0 
L 9.8125 0 
z
" id="DejaVuSans-68"/>
      <path d="M 34.28125 27.484375 
Q 23.390625 27.484375 19.1875 25 
Q 14.984375 22.515625 14.984375 16.5 
Q 14.984375 11.71875 18.140625 8.90625 
Q 21.296875 6.109375 26.703125 6.109375 
Q 34.1875 6.109375 38.703125 11.40625 
Q 43.21875 16.703125 43.21875 25.484375 
L 43.21875 27.484375 
z
M 52.203125 31.203125 
L 52.203125 0 
L 43.21875 0 
L 43.21875 8.296875 
Q 40.140625 3.328125 35.546875 0.953125 
Q 30.953125 -1.421875 24.3125 -1.421875 
Q 15.921875 -1.421875 10.953125 3.296875 
Q 6 8.015625 6 15.921875 
Q 6 25.140625 12.171875 29.828125 
Q 18.359375 34.515625 30.609375 34.515625 
L 43.21875 34.515625 
L 43.21875 35.40625 
Q 43.21875 41.609375 39.140625 45 
Q 35.0625 48.390625 27.6875 48.390625 
Q 23 48.390625 18.546875 47.265625 
Q 14.109375 46.140625 10.015625 43.890625 
L 10.015625 52.203125 
Q 14.9375 54.109375 19.578125 55.046875 
Q 24.21875 56 28.609375 56 
Q 40.484375 56 46.34375 49.84375 
Q 52.203125 43.703125 52.203125 31.203125 
z
" id="DejaVuSans-97"/>
      <path d="M 18.3125 70.21875 
L 18.3125 54.6875 
L 36.8125 54.6875 
L 36.8125 47.703125 
L 18.3125 47.703125 
L 18.3125 18.015625 
Q 18.3125 11.328125 20.140625 9.421875 
Q 21.96875 7.515625 27.59375 7.515625 
L 36.8125 7.515625 
L 36.8125 0 
L 27.59375 0 
Q 17.1875 0 13.234375 3.875 
Q 9.28125 7.765625 9.28125 18.015625 
L 9.28125 47.703125 
L 2.6875 47.703125 
L 2.6875 54.6875 
L 9.28125 54.6875 
L 9.28125 70.21875 
z
" id="DejaVuSans-116"/>
      <path id="DejaVuSans-32"/>
      <path d="M 44.28125 53.078125 
L 44.28125 44.578125 
Q 40.484375 46.53125 36.375 47.5 
Q 32.28125 48.484375 27.875 48.484375 
Q 21.1875 48.484375 17.84375 46.4375 
Q 14.5 44.390625 14.5 40.28125 
Q 14.5 37.15625 16.890625 35.375 
Q 19.28125 33.59375 26.515625 31.984375 
L 29.59375 31.296875 
Q 39.15625 29.25 43.1875 25.515625 
Q 47.21875 21.78125 47.21875 15.09375 
Q 47.21875 7.46875 41.1875 3.015625 
Q 35.15625 -1.421875 24.609375 -1.421875 
Q 20.21875 -1.421875 15.453125 -0.5625 
Q 10.6875 0.296875 5.421875 2 
L 5.421875 11.28125 
Q 10.40625 8.6875 15.234375 7.390625 
Q 20.0625 6.109375 24.8125 6.109375 
Q 31.15625 6.109375 34.5625 8.28125 
Q 37.984375 10.453125 37.984375 14.40625 
Q 37.984375 18.0625 35.515625 20.015625 
Q 33.0625 21.96875 24.703125 23.78125 
L 21.578125 24.515625 
Q 13.234375 26.265625 9.515625 29.90625 
Q 5.8125 33.546875 5.8125 39.890625 
Q 5.8125 47.609375 11.28125 51.796875 
Q 16.75 56 26.8125 56 
Q 31.78125 56 36.171875 55.265625 
Q 40.578125 54.546875 44.28125 53.078125 
z
" id="DejaVuSans-115"/>
      <path d="M 30.609375 48.390625 
Q 23.390625 48.390625 19.1875 42.75 
Q 14.984375 37.109375 14.984375 27.296875 
Q 14.984375 17.484375 19.15625 11.84375 
Q 23.34375 6.203125 30.609375 6.203125 
Q 37.796875 6.203125 41.984375 11.859375 
Q 46.1875 17.53125 46.1875 27.296875 
Q 46.1875 37.015625 41.984375 42.703125 
Q 37.796875 48.390625 30.609375 48.390625 
z
M 30.609375 56 
Q 42.328125 56 49.015625 48.375 
Q 55.71875 40.765625 55.71875 27.296875 
Q 55.71875 13.875 49.015625 6.21875 
Q 42.328125 -1.421875 30.609375 -1.421875 
Q 18.84375 -1.421875 12.171875 6.21875 
Q 5.515625 13.875 5.515625 27.296875 
Q 5.515625 40.765625 12.171875 48.375 
Q 18.84375 56 30.609375 56 
z
" id="DejaVuSans-111"/>
      <path d="M 8.5 21.578125 
L 8.5 54.6875 
L 17.484375 54.6875 
L 17.484375 21.921875 
Q 17.484375 14.15625 20.5 10.265625 
Q 23.53125 6.390625 29.59375 6.390625 
Q 36.859375 6.390625 41.078125 11.03125 
Q 45.3125 15.671875 45.3125 23.6875 
L 45.3125 54.6875 
L 54.296875 54.6875 
L 54.296875 0 
L 45.3125 0 
L 45.3125 8.40625 
Q 42.046875 3.421875 37.71875 1 
Q 33.40625 -1.421875 27.6875 -1.421875 
Q 18.265625 -1.421875 13.375 4.4375 
Q 8.5 10.296875 8.5 21.578125 
z
M 31.109375 56 
z
" id="DejaVuSans-117"/>
      <path d="M 41.109375 46.296875 
Q 39.59375 47.171875 37.8125 47.578125 
Q 36.03125 48 33.890625 48 
Q 26.265625 48 22.1875 43.046875 
Q 18.109375 38.09375 18.109375 28.8125 
L 18.109375 0 
L 9.078125 0 
L 9.078125 54.6875 
L 18.109375 54.6875 
L 18.109375 46.1875 
Q 20.953125 51.171875 25.484375 53.578125 
Q 30.03125 56 36.53125 56 
Q 37.453125 56 38.578125 55.875 
Q 39.703125 55.765625 41.0625 55.515625 
z
" id="DejaVuSans-114"/>
      <path d="M 48.78125 52.59375 
L 48.78125 44.1875 
Q 44.96875 46.296875 41.140625 47.34375 
Q 37.3125 48.390625 33.40625 48.390625 
Q 24.65625 48.390625 19.8125 42.84375 
Q 14.984375 37.3125 14.984375 27.296875 
Q 14.984375 17.28125 19.8125 11.734375 
Q 24.65625 6.203125 33.40625 6.203125 
Q 37.3125 6.203125 41.140625 7.25 
Q 44.96875 8.296875 48.78125 10.40625 
L 48.78125 2.09375 
Q 45.015625 0.34375 40.984375 -0.53125 
Q 36.96875 -1.421875 32.421875 -1.421875 
Q 20.0625 -1.421875 12.78125 6.34375 
Q 5.515625 14.109375 5.515625 27.296875 
Q 5.515625 40.671875 12.859375 48.328125 
Q 20.21875 56 33.015625 56 
Q 37.15625 56 41.109375 55.140625 
Q 45.0625 54.296875 48.78125 52.59375 
z
" id="DejaVuSans-99"/>
      <path d="M 56.203125 29.59375 
L 56.203125 25.203125 
L 14.890625 25.203125 
Q 15.484375 15.921875 20.484375 11.0625 
Q 25.484375 6.203125 34.421875 6.203125 
Q 39.59375 6.203125 44.453125 7.46875 
Q 49.3125 8.734375 54.109375 11.28125 
L 54.109375 2.78125 
Q 49.265625 0.734375 44.1875 -0.34375 
Q 39.109375 -1.421875 33.890625 -1.421875 
Q 20.796875 -1.421875 13.15625 6.1875 
Q 5.515625 13.8125 5.515625 26.8125 
Q 5.515625 40.234375 12.765625 48.109375 
Q 20.015625 56 32.328125 56 
Q 43.359375 56 49.78125 48.890625 
Q 56.203125 41.796875 56.203125 29.59375 
z
M 47.21875 32.234375 
Q 47.125 39.59375 43.09375 43.984375 
Q 39.0625 48.390625 32.421875 48.390625 
Q 24.90625 48.390625 20.390625 44.140625 
Q 15.875 39.890625 15.1875 32.171875 
z
" id="DejaVuSans-101"/>
      <path d="M 11.71875 12.40625 
L 22.015625 12.40625 
L 22.015625 0 
L 11.71875 0 
z
M 11.71875 51.703125 
L 22.015625 51.703125 
L 22.015625 39.3125 
L 11.71875 39.3125 
z
" id="DejaVuSans-58"/>
      <path d="M 9.421875 54.6875 
L 18.40625 54.6875 
L 18.40625 0 
L 9.421875 0 
z
M 9.421875 75.984375 
L 18.40625 75.984375 
L 18.40625 64.59375 
L 9.421875 64.59375 
z
" id="DejaVuSans-105"/>
      <path d="M 54.890625 33.015625 
L 54.890625 0 
L 45.90625 0 
L 45.90625 32.71875 
Q 45.90625 40.484375 42.875 44.328125 
Q 39.84375 48.1875 33.796875 48.1875 
Q 26.515625 48.1875 22.3125 43.546875 
Q 18.109375 38.921875 18.109375 30.90625 
L 18.109375 0 
L 9.078125 0 
L 9.078125 54.6875 
L 18.109375 54.6875 
L 18.109375 46.1875 
Q 21.34375 51.125 25.703125 53.5625 
Q 30.078125 56 35.796875 56 
Q 45.21875 56 50.046875 50.171875 
Q 54.890625 44.34375 54.890625 33.015625 
z
" id="DejaVuSans-110"/>
      <path d="M 45.40625 46.390625 
L 45.40625 75.984375 
L 54.390625 75.984375 
L 54.390625 0 
L 45.40625 0 
L 45.40625 8.203125 
Q 42.578125 3.328125 38.25 0.953125 
Q 33.9375 -1.421875 27.875 -1.421875 
Q 17.96875 -1.421875 11.734375 6.484375 
Q 5.515625 14.40625 5.515625 27.296875 
Q 5.515625 40.1875 11.734375 48.09375 
Q 17.96875 56 27.875 56 
Q 33.9375 56 38.25 53.625 
Q 42.578125 51.265625 45.40625 46.390625 
z
M 14.796875 27.296875 
Q 14.796875 17.390625 18.875 11.75 
Q 22.953125 6.109375 30.078125 6.109375 
Q 37.203125 6.109375 41.296875 11.75 
Q 45.40625 17.390625 45.40625 27.296875 
Q 45.40625 37.203125 41.296875 42.84375 
Q 37.203125 48.484375 30.078125 48.484375 
Q 22.953125 48.484375 18.875 42.84375 
Q 14.796875 37.203125 14.796875 27.296875 
z
" id="DejaVuSans-100"/>
      <path d="M 9.078125 75.984375 
L 18.109375 75.984375 
L 18.109375 31.109375 
L 44.921875 54.6875 
L 56.390625 54.6875 
L 27.390625 29.109375 
L 57.625 0 
L 45.90625 0 
L 18.109375 26.703125 
L 18.109375 0 
L 9.078125 0 
z
" id="DejaVuSans-107"/>
     </defs>
     <use xlink:href="#DejaVuSans-68"/>
     <use x="77.001953" xlink:href="#DejaVuSans-97"/>
     <use x="138.28125" xlink:href="#DejaVuSans-116"/>
     <use x="177.490234" xlink:href="#DejaVuSans-97"/>
     <use x="238.769531" xlink:href="#DejaVuSans-32"/>
     <use x="270.556641" xlink:href="#DejaVuSans-115"/>
     <use x="322.65625" xlink:href="#DejaVuSans-111"/>
     <use x="383.837891" xlink:href="#DejaVuSans-117"/>
     <use x="447.216797" xlink:href="#DejaVuSans-114"/>
     <use x="486.080078" xlink:href="#DejaVuSans-99"/>
     <use x="541.060547" xlink:href="#DejaVuSans-101"/>
     <use x="602.583984" xlink:href="#DejaVuSans-58"/>
     <use x="636.275391" xlink:href="#DejaVuSans-32"/>
     <use x="668.0625" xlink:href="#DejaVuSans-99"/>
     <use x="723.042969" xlink:href="#DejaVuSans-111"/>
     <use x="784.224609" xlink:href="#DejaVuSans-105"/>
     <use x="812.007812" xlink:href="#DejaVuSans-110"/>
     <use x="875.386719" xlink:href="#DejaVuSans-100"/>
     <use x="938.863281" xlink:href="#DejaVuSans-101"/>
     <use x="1000.386719" xlink:href="#DejaVuSans-115"/>
     <use x="1052.486328" xlink:href="#DejaVuSans-107"/>
    </g>
   </g>
   <g id="legend_1">
    <g id="patch_7">
     <path d="M 359.473125 64.150125 
L 407.72 64.150125 
Q 409.72 64.150125 409.72 62.150125 
L 409.72 48.472 
Q 409.72 46.472 407.72 46.472 
L 359.473125 46.472 
Q 357.473125 46.472 357.473125 48.472 
L 357.473125 62.150125 
Q 357.473125 64.150125 359.473125 64.150125 
z
" style="fill:#ffffff;opacity:0.8;stroke:#cccccc;stroke-linejoin:miter;"/>
    </g>
    <g id="line2d_15">
     <path d="M 361.473125 54.570438 
L 381.473125 54.570438 
" style="fill:none;stroke:#ff6347;stroke-linecap:square;stroke-width:1.5;"/>
    </g>
    <g id="line2d_16"/>
    <g id="text_15">
     <!-- RSI -->
     <g transform="translate(389.473125 58.070438)scale(0.1 -0.1)">
      <defs>
       <path d="M 44.390625 34.1875 
Q 47.5625 33.109375 50.5625 29.59375 
Q 53.5625 26.078125 56.59375 19.921875 
L 66.609375 0 
L 56 0 
L 46.6875 18.703125 
Q 43.0625 26.03125 39.671875 28.421875 
Q 36.28125 30.8125 30.421875 30.8125 
L 19.671875 30.8125 
L 19.671875 0 
L 9.8125 0 
L 9.8125 72.90625 
L 32.078125 72.90625 
Q 44.578125 72.90625 50.734375 67.671875 
Q 56.890625 62.453125 56.890625 51.90625 
Q 56.890625 45.015625 53.6875 40.46875 
Q 50.484375 35.9375 44.390625 34.1875 
z
M 19.671875 64.796875 
L 19.671875 38.921875 
L 32.078125 38.921875 
Q 39.203125 38.921875 42.84375 42.21875 
Q 46.484375 45.515625 46.484375 51.90625 
Q 46.484375 58.296875 42.84375 61.546875 
Q 39.203125 64.796875 32.078125 64.796875 
z
" id="DejaVuSans-82"/>
       <path d="M 53.515625 70.515625 
L 53.515625 60.890625 
Q 47.90625 63.578125 42.921875 64.890625 
Q 37.9375 66.21875 33.296875 66.21875 
Q 25.25 66.21875 20.875 63.09375 
Q 16.5 59.96875 16.5 54.203125 
Q 16.5 49.359375 19.40625 46.890625 
Q 22.3125 44.4375 30.421875 42.921875 
L 36.375 41.703125 
Q 47.40625 39.59375 52.65625 34.296875 
Q 57.90625 29 57.90625 20.125 
Q 57.90625 9.515625 50.796875 4.046875 
Q 43.703125 -1.421875 29.984375 -1.421875 
Q 24.8125 -1.421875 18.96875 -0.25 
Q 13.140625 0.921875 6.890625 3.21875 
L 6.890625 13.375 
Q 12.890625 10.015625 18.65625 8.296875 
Q 24.421875 6.59375 29.984375 6.59375 
Q 38.421875 6.59375 43.015625 9.90625 
Q 47.609375 13.234375 47.609375 19.390625 
Q 47.609375 24.75 44.3125 27.78125 
Q 41.015625 30.8125 33.5 32.328125 
L 27.484375 33.5 
Q 16.453125 35.6875 11.515625 40.375 
Q 6.59375 45.0625 6.59375 53.421875 
Q 6.59375 63.09375 13.40625 68.65625 
Q 20.21875 74.21875 32.171875 74.21875 
Q 37.3125 74.21875 42.625 73.28125 
Q 47.953125 72.359375 53.515625 70.515625 
z
" id="DejaVuSans-83"/>
       <path d="M 9.8125 72.90625 
L 19.671875 72.90625 
L 19.671875 0 
L 9.8125 0 
z
" id="DejaVuSans-73"/>
      </defs>
      <use xlink:href="#DejaVuSans-82"/>
      <use x="69.482422" xlink:href="#DejaVuSans-83"/>
      <use x="132.958984" xlink:href="#DejaVuSans-73"/>
     </g>
    </g>
   </g>
  </g>
  <g id="text_16">
   <!-- RSI -->
   <g transform="translate(217.4025 19.0695)scale(0.16 -0.16)">
    <use xlink:href="#DejaVuSans-82"/>
    <use x="69.482422" xlink:href="#DejaVuSans-83"/>
    <use x="132.958984" xlink:href="#DejaVuSans-73"/>
   </g>
  </g>
 </g>
 <defs>
  <clipPath id="pbbaf023a3e">
   <rect height="266.112" width="357.12" x="57.6" y="41.472"/>
  </clipPath>
 </defs>
</svg>
