<?xml version="1.0" encoding="utf-8" standalone="no"?>
<!DOCTYPE svg PUBLIC "-//W3C//DTD SVG 1.1//EN"
  "http://www.w3.org/Graphics/SVG/1.1/DTD/svg11.dtd">
<!-- Created with matplotlib (https://matplotlib.org/) -->
<svg height="345.6pt" version="1.1" viewBox="0 0 460.8 345.6" width="460.8pt" xmlns="http://www.w3.org/2000/svg" xmlns:xlink="http://www.w3.org/1999/xlink">
 <metadata>
  <rdf:RDF xmlns:cc="http://creativecommons.org/ns#" xmlns:dc="http://purl.org/dc/elements/1.1/" xmlns:rdf="http://www.w3.org/1999/02/22-rdf-syntax-ns#">
   <cc:Work>
    <dc:type rdf:resource="http://purl.org/dc/dcmitype/StillImage"/>
    <dc:date>2021-02-06T11:19:58.148033</dc:date>
    <dc:format>image/svg+xml</dc:format>
    <dc:creator>
     <cc:Agent>
      <dc:title>Matplotlib v3.3.2, https://matplotlib.org/</dc:title>
     </cc:Agent>
    </dc:creator>
   </cc:Work>
  </rdf:RDF>
 </metadata>
 <defs>
  <style type="text/css">*{stroke-linecap:butt;stroke-linejoin:round;}</style>
 </defs>
 <g id="figure_1">
  <g id="patch_1">
   <path d="M 0 345.6 
L 460.8 345.6 
L 460.8 0 
L 0 0 
z
" style="fill:#ffffff;"/>
  </g>
  <g id="axes_1">
   <g id="patch_2">
    <path d="M 57.6 307.584 
L 414.72 307.584 
L 414.72 41.472 
L 57.6 41.472 
z
" style="fill:#ffffff;"/>
   </g>
   <g id="PolyCollection_1">
    <defs>
     <path d="M 73.832727 -229.985749 
L 73.832727 -120.28875 
L 74.64234 -120.28875 
L 75.451952 -120.28875 
L 76.261564 -120.28875 
L 77.071177 -120.28875 
L 77.880789 -120.28875 
L 78.690401 -120.28875 
L 79.500014 -120.28875 
L 80.309626 -120.28875 
L 81.119238 -120.28875 
L 81.928851 -120.28875 
L 82.738463 -120.28875 
L 83.548075 -120.28875 
L 84.357688 -120.28875 
L 85.1673 -120.28875 
L 85.976912 -120.28875 
L 86.786525 -120.28875 
L 87.596137 -120.28875 
L 88.405749 -120.28875 
L 89.215362 -120.28875 
L 90.024974 -120.28875 
L 90.834586 -120.28875 
L 91.644199 -120.28875 
L 92.453811 -120.28875 
L 93.263423 -120.28875 
L 94.073036 -120.28875 
L 94.882648 -120.28875 
L 95.69226 -120.28875 
L 96.501873 -120.28875 
L 97.311485 -120.28875 
L 98.121097 -120.28875 
L 98.93071 -120.28875 
L 99.740322 -120.28875 
L 100.549934 -120.28875 
L 101.359547 -120.28875 
L 102.169159 -120.28875 
L 102.978771 -120.28875 
L 103.788384 -120.28875 
L 104.597996 -120.28875 
L 105.407608 -120.28875 
L 106.217221 -120.28875 
L 107.026833 -120.28875 
L 107.836445 -120.28875 
L 108.646058 -120.28875 
L 109.45567 -120.28875 
L 110.265282 -120.28875 
L 111.074895 -120.28875 
L 111.884507 -120.28875 
L 112.694119 -120.28875 
L 113.503732 -120.28875 
L 114.313344 -120.28875 
L 115.122956 -120.28875 
L 115.932569 -120.28875 
L 116.742181 -120.28875 
L 117.551793 -120.28875 
L 118.361406 -120.28875 
L 119.171018 -120.28875 
L 119.98063 -120.28875 
L 120.790243 -120.28875 
L 121.599855 -120.28875 
L 122.409467 -120.28875 
L 123.21908 -120.28875 
L 124.028692 -120.28875 
L 124.838304 -120.28875 
L 125.647917 -120.28875 
L 126.457529 -120.28875 
L 127.267141 -120.28875 
L 128.076754 -120.28875 
L 128.886366 -120.28875 
L 129.695978 -120.28875 
L 130.505591 -120.28875 
L 131.315203 -120.28875 
L 132.124815 -120.28875 
L 132.934428 -120.28875 
L 133.74404 -120.28875 
L 134.553652 -120.28875 
L 135.363265 -120.28875 
L 136.172877 -120.28875 
L 136.982489 -120.28875 
L 137.792102 -120.28875 
L 138.601714 -120.28875 
L 139.411326 -120.28875 
L 140.220939 -120.28875 
L 141.030551 -120.28875 
L 141.840163 -120.28875 
L 142.649776 -120.28875 
L 143.459388 -120.28875 
L 144.269 -120.28875 
L 145.078613 -120.28875 
L 145.888225 -120.28875 
L 146.697837 -120.28875 
L 147.50745 -120.28875 
L 148.317062 -120.28875 
L 149.126674 -120.28875 
L 149.936287 -120.28875 
L 150.745899 -120.28875 
L 151.555511 -120.28875 
L 152.365124 -120.28875 
L 153.174736 -120.28875 
L 153.984348 -120.28875 
L 154.793961 -120.28875 
L 155.603573 -120.28875 
L 156.413185 -120.28875 
L 157.222798 -120.28875 
L 158.03241 -120.28875 
L 158.842022 -120.28875 
L 159.651635 -120.28875 
L 160.461247 -120.28875 
L 161.270859 -120.28875 
L 162.080472 -120.28875 
L 162.890084 -120.28875 
L 163.699696 -120.28875 
L 164.509309 -120.28875 
L 165.318921 -120.28875 
L 166.128533 -120.28875 
L 166.938146 -120.28875 
L 167.747758 -120.28875 
L 168.55737 -120.28875 
L 169.366983 -120.28875 
L 170.176595 -120.28875 
L 170.986207 -120.28875 
L 171.79582 -120.28875 
L 172.605432 -120.28875 
L 173.415044 -120.28875 
L 174.224657 -120.28875 
L 175.034269 -120.28875 
L 175.843881 -120.28875 
L 176.653494 -120.28875 
L 177.463106 -120.28875 
L 178.272718 -120.28875 
L 179.082331 -120.28875 
L 179.891943 -120.28875 
L 180.701555 -120.28875 
L 181.511168 -120.28875 
L 182.32078 -120.28875 
L 183.130392 -120.28875 
L 183.940005 -120.28875 
L 184.749617 -120.28875 
L 185.559229 -120.28875 
L 186.368842 -120.28875 
L 187.178454 -120.28875 
L 187.988066 -120.28875 
L 188.797679 -120.28875 
L 189.607291 -120.28875 
L 190.416903 -120.28875 
L 191.226516 -120.28875 
L 192.036128 -120.28875 
L 192.84574 -120.28875 
L 193.655353 -120.28875 
L 194.464965 -120.28875 
L 195.274577 -120.28875 
L 196.08419 -120.28875 
L 196.893802 -120.28875 
L 197.703414 -120.28875 
L 198.513027 -120.28875 
L 199.322639 -120.28875 
L 200.132251 -120.28875 
L 200.941864 -120.28875 
L 201.751476 -120.28875 
L 202.561088 -120.28875 
L 203.370701 -120.28875 
L 204.180313 -120.28875 
L 204.989925 -120.28875 
L 205.799538 -120.28875 
L 206.60915 -120.28875 
L 207.418762 -120.28875 
L 208.228375 -120.28875 
L 209.037987 -120.28875 
L 209.847599 -120.28875 
L 210.657212 -120.28875 
L 211.466824 -120.28875 
L 212.276436 -120.28875 
L 213.086049 -120.28875 
L 213.895661 -120.28875 
L 214.705273 -120.28875 
L 215.514886 -120.28875 
L 216.324498 -120.28875 
L 217.13411 -120.28875 
L 217.943723 -120.28875 
L 218.753335 -120.28875 
L 219.562947 -120.28875 
L 220.37256 -120.28875 
L 221.182172 -120.28875 
L 221.991784 -120.28875 
L 222.801397 -120.28875 
L 223.611009 -120.28875 
L 224.420621 -120.28875 
L 225.230234 -120.28875 
L 226.039846 -120.28875 
L 226.849458 -120.28875 
L 227.659071 -120.28875 
L 228.468683 -120.28875 
L 229.278295 -120.28875 
L 230.087908 -120.28875 
L 230.89752 -120.28875 
L 231.707132 -120.28875 
L 232.516745 -120.28875 
L 233.326357 -120.28875 
L 234.135969 -120.28875 
L 234.945582 -120.28875 
L 235.755194 -120.28875 
L 236.564806 -120.28875 
L 237.374418 -120.28875 
L 238.184031 -120.28875 
L 238.993643 -120.28875 
L 239.803255 -120.28875 
L 240.612868 -120.28875 
L 241.42248 -120.28875 
L 242.232092 -120.28875 
L 243.041705 -120.28875 
L 243.851317 -120.28875 
L 244.660929 -120.28875 
L 245.470542 -120.28875 
L 246.280154 -120.28875 
L 247.089766 -120.28875 
L 247.899379 -120.28875 
L 248.708991 -120.28875 
L 249.518603 -120.28875 
L 250.328216 -120.28875 
L 251.137828 -120.28875 
L 251.94744 -120.28875 
L 252.757053 -120.28875 
L 253.566665 -120.28875 
L 254.376277 -120.28875 
L 255.18589 -120.28875 
L 255.995502 -120.28875 
L 256.805114 -120.28875 
L 257.614727 -120.28875 
L 258.424339 -120.28875 
L 259.233951 -120.28875 
L 260.043564 -120.28875 
L 260.853176 -120.28875 
L 261.662788 -120.28875 
L 262.472401 -120.28875 
L 263.282013 -120.28875 
L 264.091625 -120.28875 
L 264.901238 -120.28875 
L 265.71085 -120.28875 
L 266.520462 -120.28875 
L 267.330075 -120.28875 
L 268.139687 -120.28875 
L 268.949299 -120.28875 
L 269.758912 -120.28875 
L 270.568524 -120.28875 
L 271.378136 -120.28875 
L 272.187749 -120.28875 
L 272.997361 -120.28875 
L 273.806973 -120.28875 
L 274.616586 -120.28875 
L 275.426198 -120.28875 
L 276.23581 -120.28875 
L 277.045423 -120.28875 
L 277.855035 -120.28875 
L 278.664647 -120.28875 
L 279.47426 -120.28875 
L 280.283872 -120.28875 
L 281.093484 -120.28875 
L 281.903097 -120.28875 
L 282.712709 -120.28875 
L 283.522321 -120.28875 
L 284.331934 -120.28875 
L 285.141546 -120.28875 
L 285.951158 -120.28875 
L 286.760771 -120.28875 
L 287.570383 -120.28875 
L 288.379995 -120.28875 
L 289.189608 -120.28875 
L 289.99922 -120.28875 
L 290.808832 -120.28875 
L 291.618445 -120.28875 
L 292.428057 -120.28875 
L 293.237669 -120.28875 
L 294.047282 -120.28875 
L 294.856894 -120.28875 
L 295.666506 -120.28875 
L 296.476119 -120.28875 
L 297.285731 -120.28875 
L 298.095343 -120.28875 
L 298.904956 -120.28875 
L 299.714568 -120.28875 
L 300.52418 -120.28875 
L 301.333793 -120.28875 
L 302.143405 -120.28875 
L 302.953017 -120.28875 
L 303.76263 -120.28875 
L 304.572242 -120.28875 
L 305.381854 -120.28875 
L 306.191467 -120.28875 
L 307.001079 -120.28875 
L 307.810691 -120.28875 
L 308.620304 -120.28875 
L 309.429916 -120.28875 
L 310.239528 -120.28875 
L 311.049141 -120.28875 
L 311.858753 -120.28875 
L 312.668365 -120.28875 
L 313.477978 -120.28875 
L 314.28759 -120.28875 
L 315.097202 -120.28875 
L 315.906815 -120.28875 
L 316.716427 -120.28875 
L 317.526039 -120.28875 
L 318.335652 -120.28875 
L 319.145264 -120.28875 
L 319.954876 -120.28875 
L 320.764489 -120.28875 
L 321.574101 -120.28875 
L 322.383713 -120.28875 
L 323.193326 -120.28875 
L 324.002938 -120.28875 
L 324.81255 -120.28875 
L 325.622163 -120.28875 
L 326.431775 -120.28875 
L 327.241387 -120.28875 
L 328.051 -120.28875 
L 328.860612 -120.28875 
L 329.670224 -120.28875 
L 330.479837 -120.28875 
L 331.289449 -120.28875 
L 332.099061 -120.28875 
L 332.908674 -120.28875 
L 333.718286 -120.28875 
L 334.527898 -120.28875 
L 335.337511 -120.28875 
L 336.147123 -120.28875 
L 336.956735 -120.28875 
L 337.766348 -120.28875 
L 338.57596 -120.28875 
L 339.385572 -120.28875 
L 340.195185 -120.28875 
L 341.004797 -120.28875 
L 341.814409 -120.28875 
L 342.624022 -120.28875 
L 343.433634 -120.28875 
L 344.243246 -120.28875 
L 345.052859 -120.28875 
L 345.862471 -120.28875 
L 346.672083 -120.28875 
L 347.481696 -120.28875 
L 348.291308 -120.28875 
L 349.10092 -120.28875 
L 349.910533 -120.28875 
L 350.720145 -120.28875 
L 351.529757 -120.28875 
L 352.33937 -120.28875 
L 353.148982 -120.28875 
L 353.958594 -120.28875 
L 354.768207 -120.28875 
L 355.577819 -120.28875 
L 356.387431 -120.28875 
L 357.197044 -120.28875 
L 358.006656 -120.28875 
L 358.816268 -120.28875 
L 359.625881 -120.28875 
L 360.435493 -120.28875 
L 361.245105 -120.28875 
L 362.054718 -120.28875 
L 362.86433 -120.28875 
L 363.673942 -120.28875 
L 364.483555 -120.28875 
L 365.293167 -120.28875 
L 366.102779 -120.28875 
L 366.912392 -120.28875 
L 367.722004 -120.28875 
L 368.531616 -120.28875 
L 369.341229 -120.28875 
L 370.150841 -120.28875 
L 370.960453 -120.28875 
L 371.770066 -120.28875 
L 372.579678 -120.28875 
L 373.38929 -120.28875 
L 374.198903 -120.28875 
L 375.008515 -120.28875 
L 375.818127 -120.28875 
L 376.62774 -120.28875 
L 377.437352 -120.28875 
L 378.246964 -120.28875 
L 379.056577 -120.28875 
L 379.866189 -120.28875 
L 380.675801 -120.28875 
L 381.485414 -120.28875 
L 382.295026 -120.28875 
L 383.104638 -120.28875 
L 383.914251 -120.28875 
L 384.723863 -120.28875 
L 385.533475 -120.28875 
L 386.343088 -120.28875 
L 387.1527 -120.28875 
L 387.962312 -120.28875 
L 388.771925 -120.28875 
L 389.581537 -120.28875 
L 390.391149 -120.28875 
L 391.200762 -120.28875 
L 392.010374 -120.28875 
L 392.819986 -120.28875 
L 393.629599 -120.28875 
L 394.439211 -120.28875 
L 395.248823 -120.28875 
L 396.058436 -120.28875 
L 396.868048 -120.28875 
L 397.67766 -120.28875 
L 398.487273 -120.28875 
L 398.487273 -229.985749 
L 398.487273 -229.985749 
L 397.67766 -229.985749 
L 396.868048 -229.985749 
L 396.058436 -229.985749 
L 395.248823 -229.985749 
L 394.439211 -229.985749 
L 393.629599 -229.985749 
L 392.819986 -229.985749 
L 392.010374 -229.985749 
L 391.200762 -229.985749 
L 390.391149 -229.985749 
L 389.581537 -229.985749 
L 388.771925 -229.985749 
L 387.962312 -229.985749 
L 387.1527 -229.985749 
L 386.343088 -229.985749 
L 385.533475 -229.985749 
L 384.723863 -229.985749 
L 383.914251 -229.985749 
L 383.104638 -229.985749 
L 382.295026 -229.985749 
L 381.485414 -229.985749 
L 380.675801 -229.985749 
L 379.866189 -229.985749 
L 379.056577 -229.985749 
L 378.246964 -229.985749 
L 377.437352 -229.985749 
L 376.62774 -229.985749 
L 375.818127 -229.985749 
L 375.008515 -229.985749 
L 374.198903 -229.985749 
L 373.38929 -229.985749 
L 372.579678 -229.985749 
L 371.770066 -229.985749 
L 370.960453 -229.985749 
L 370.150841 -229.985749 
L 369.341229 -229.985749 
L 368.531616 -229.985749 
L 367.722004 -229.985749 
L 366.912392 -229.985749 
L 366.102779 -229.985749 
L 365.293167 -229.985749 
L 364.483555 -229.985749 
L 363.673942 -229.985749 
L 362.86433 -229.985749 
L 362.054718 -229.985749 
L 361.245105 -229.985749 
L 360.435493 -229.985749 
L 359.625881 -229.985749 
L 358.816268 -229.985749 
L 358.006656 -229.985749 
L 357.197044 -229.985749 
L 356.387431 -229.985749 
L 355.577819 -229.985749 
L 354.768207 -229.985749 
L 353.958594 -229.985749 
L 353.148982 -229.985749 
L 352.33937 -229.985749 
L 351.529757 -229.985749 
L 350.720145 -229.985749 
L 349.910533 -229.985749 
L 349.10092 -229.985749 
L 348.291308 -229.985749 
L 347.481696 -229.985749 
L 346.672083 -229.985749 
L 345.862471 -229.985749 
L 345.052859 -229.985749 
L 344.243246 -229.985749 
L 343.433634 -229.985749 
L 342.624022 -229.985749 
L 341.814409 -229.985749 
L 341.004797 -229.985749 
L 340.195185 -229.985749 
L 339.385572 -229.985749 
L 338.57596 -229.985749 
L 337.766348 -229.985749 
L 336.956735 -229.985749 
L 336.147123 -229.985749 
L 335.337511 -229.985749 
L 334.527898 -229.985749 
L 333.718286 -229.985749 
L 332.908674 -229.985749 
L 332.099061 -229.985749 
L 331.289449 -229.985749 
L 330.479837 -229.985749 
L 329.670224 -229.985749 
L 328.860612 -229.985749 
L 328.051 -229.985749 
L 327.241387 -229.985749 
L 326.431775 -229.985749 
L 325.622163 -229.985749 
L 324.81255 -229.985749 
L 324.002938 -229.985749 
L 323.193326 -229.985749 
L 322.383713 -229.985749 
L 321.574101 -229.985749 
L 320.764489 -229.985749 
L 319.954876 -229.985749 
L 319.145264 -229.985749 
L 318.335652 -229.985749 
L 317.526039 -229.985749 
L 316.716427 -229.985749 
L 315.906815 -229.985749 
L 315.097202 -229.985749 
L 314.28759 -229.985749 
L 313.477978 -229.985749 
L 312.668365 -229.985749 
L 311.858753 -229.985749 
L 311.049141 -229.985749 
L 310.239528 -229.985749 
L 309.429916 -229.985749 
L 308.620304 -229.985749 
L 307.810691 -229.985749 
L 307.001079 -229.985749 
L 306.191467 -229.985749 
L 305.381854 -229.985749 
L 304.572242 -229.985749 
L 303.76263 -229.985749 
L 302.953017 -229.985749 
L 302.143405 -229.985749 
L 301.333793 -229.985749 
L 300.52418 -229.985749 
L 299.714568 -229.985749 
L 298.904956 -229.985749 
L 298.095343 -229.985749 
L 297.285731 -229.985749 
L 296.476119 -229.985749 
L 295.666506 -229.985749 
L 294.856894 -229.985749 
L 294.047282 -229.985749 
L 293.237669 -229.985749 
L 292.428057 -229.985749 
L 291.618445 -229.985749 
L 290.808832 -229.985749 
L 289.99922 -229.985749 
L 289.189608 -229.985749 
L 288.379995 -229.985749 
L 287.570383 -229.985749 
L 286.760771 -229.985749 
L 285.951158 -229.985749 
L 285.141546 -229.985749 
L 284.331934 -229.985749 
L 283.522321 -229.985749 
L 282.712709 -229.985749 
L 281.903097 -229.985749 
L 281.093484 -229.985749 
L 280.283872 -229.985749 
L 279.47426 -229.985749 
L 278.664647 -229.985749 
L 277.855035 -229.985749 
L 277.045423 -229.985749 
L 276.23581 -229.985749 
L 275.426198 -229.985749 
L 274.616586 -229.985749 
L 273.806973 -229.985749 
L 272.997361 -229.985749 
L 272.187749 -229.985749 
L 271.378136 -229.985749 
L 270.568524 -229.985749 
L 269.758912 -229.985749 
L 268.949299 -229.985749 
L 268.139687 -229.985749 
L 267.330075 -229.985749 
L 266.520462 -229.985749 
L 265.71085 -229.985749 
L 264.901238 -229.985749 
L 264.091625 -229.985749 
L 263.282013 -229.985749 
L 262.472401 -229.985749 
L 261.662788 -229.985749 
L 260.853176 -229.985749 
L 260.043564 -229.985749 
L 259.233951 -229.985749 
L 258.424339 -229.985749 
L 257.614727 -229.985749 
L 256.805114 -229.985749 
L 255.995502 -229.985749 
L 255.18589 -229.985749 
L 254.376277 -229.985749 
L 253.566665 -229.985749 
L 252.757053 -229.985749 
L 251.94744 -229.985749 
L 251.137828 -229.985749 
L 250.328216 -229.985749 
L 249.518603 -229.985749 
L 248.708991 -229.985749 
L 247.899379 -229.985749 
L 247.089766 -229.985749 
L 246.280154 -229.985749 
L 245.470542 -229.985749 
L 244.660929 -229.985749 
L 243.851317 -229.985749 
L 243.041705 -229.985749 
L 242.232092 -229.985749 
L 241.42248 -229.985749 
L 240.612868 -229.985749 
L 239.803255 -229.985749 
L 238.993643 -229.985749 
L 238.184031 -229.985749 
L 237.374418 -229.985749 
L 236.564806 -229.985749 
L 235.755194 -229.985749 
L 234.945582 -229.985749 
L 234.135969 -229.985749 
L 233.326357 -229.985749 
L 232.516745 -229.985749 
L 231.707132 -229.985749 
L 230.89752 -229.985749 
L 230.087908 -229.985749 
L 229.278295 -229.985749 
L 228.468683 -229.985749 
L 227.659071 -229.985749 
L 226.849458 -229.985749 
L 226.039846 -229.985749 
L 225.230234 -229.985749 
L 224.420621 -229.985749 
L 223.611009 -229.985749 
L 222.801397 -229.985749 
L 221.991784 -229.985749 
L 221.182172 -229.985749 
L 220.37256 -229.985749 
L 219.562947 -229.985749 
L 218.753335 -229.985749 
L 217.943723 -229.985749 
L 217.13411 -229.985749 
L 216.324498 -229.985749 
L 215.514886 -229.985749 
L 214.705273 -229.985749 
L 213.895661 -229.985749 
L 213.086049 -229.985749 
L 212.276436 -229.985749 
L 211.466824 -229.985749 
L 210.657212 -229.985749 
L 209.847599 -229.985749 
L 209.037987 -229.985749 
L 208.228375 -229.985749 
L 207.418762 -229.985749 
L 206.60915 -229.985749 
L 205.799538 -229.985749 
L 204.989925 -229.985749 
L 204.180313 -229.985749 
L 203.370701 -229.985749 
L 202.561088 -229.985749 
L 201.751476 -229.985749 
L 200.941864 -229.985749 
L 200.132251 -229.985749 
L 199.322639 -229.985749 
L 198.513027 -229.985749 
L 197.703414 -229.985749 
L 196.893802 -229.985749 
L 196.08419 -229.985749 
L 195.274577 -229.985749 
L 194.464965 -229.985749 
L 193.655353 -229.985749 
L 192.84574 -229.985749 
L 192.036128 -229.985749 
L 191.226516 -229.985749 
L 190.416903 -229.985749 
L 189.607291 -229.985749 
L 188.797679 -229.985749 
L 187.988066 -229.985749 
L 187.178454 -229.985749 
L 186.368842 -229.985749 
L 185.559229 -229.985749 
L 184.749617 -229.985749 
L 183.940005 -229.985749 
L 183.130392 -229.985749 
L 182.32078 -229.985749 
L 181.511168 -229.985749 
L 180.701555 -229.985749 
L 179.891943 -229.985749 
L 179.082331 -229.985749 
L 178.272718 -229.985749 
L 177.463106 -229.985749 
L 176.653494 -229.985749 
L 175.843881 -229.985749 
L 175.034269 -229.985749 
L 174.224657 -229.985749 
L 173.415044 -229.985749 
L 172.605432 -229.985749 
L 171.79582 -229.985749 
L 170.986207 -229.985749 
L 170.176595 -229.985749 
L 169.366983 -229.985749 
L 168.55737 -229.985749 
L 167.747758 -229.985749 
L 166.938146 -229.985749 
L 166.128533 -229.985749 
L 165.318921 -229.985749 
L 164.509309 -229.985749 
L 163.699696 -229.985749 
L 162.890084 -229.985749 
L 162.080472 -229.985749 
L 161.270859 -229.985749 
L 160.461247 -229.985749 
L 159.651635 -229.985749 
L 158.842022 -229.985749 
L 158.03241 -229.985749 
L 157.222798 -229.985749 
L 156.413185 -229.985749 
L 155.603573 -229.985749 
L 154.793961 -229.985749 
L 153.984348 -229.985749 
L 153.174736 -229.985749 
L 152.365124 -229.985749 
L 151.555511 -229.985749 
L 150.745899 -229.985749 
L 149.936287 -229.985749 
L 149.126674 -229.985749 
L 148.317062 -229.985749 
L 147.50745 -229.985749 
L 146.697837 -229.985749 
L 145.888225 -229.985749 
L 145.078613 -229.985749 
L 144.269 -229.985749 
L 143.459388 -229.985749 
L 142.649776 -229.985749 
L 141.840163 -229.985749 
L 141.030551 -229.985749 
L 140.220939 -229.985749 
L 139.411326 -229.985749 
L 138.601714 -229.985749 
L 137.792102 -229.985749 
L 136.982489 -229.985749 
L 136.172877 -229.985749 
L 135.363265 -229.985749 
L 134.553652 -229.985749 
L 133.74404 -229.985749 
L 132.934428 -229.985749 
L 132.124815 -229.985749 
L 131.315203 -229.985749 
L 130.505591 -229.985749 
L 129.695978 -229.985749 
L 128.886366 -229.985749 
L 128.076754 -229.985749 
L 127.267141 -229.985749 
L 126.457529 -229.985749 
L 125.647917 -229.985749 
L 124.838304 -229.985749 
L 124.028692 -229.985749 
L 123.21908 -229.985749 
L 122.409467 -229.985749 
L 121.599855 -229.985749 
L 120.790243 -229.985749 
L 119.98063 -229.985749 
L 119.171018 -229.985749 
L 118.361406 -229.985749 
L 117.551793 -229.985749 
L 116.742181 -229.985749 
L 115.932569 -229.985749 
L 115.122956 -229.985749 
L 114.313344 -229.985749 
L 113.503732 -229.985749 
L 112.694119 -229.985749 
L 111.884507 -229.985749 
L 111.074895 -229.985749 
L 110.265282 -229.985749 
L 109.45567 -229.985749 
L 108.646058 -229.985749 
L 107.836445 -229.985749 
L 107.026833 -229.985749 
L 106.217221 -229.985749 
L 105.407608 -229.985749 
L 104.597996 -229.985749 
L 103.788384 -229.985749 
L 102.978771 -229.985749 
L 102.169159 -229.985749 
L 101.359547 -229.985749 
L 100.549934 -229.985749 
L 99.740322 -229.985749 
L 98.93071 -229.985749 
L 98.121097 -229.985749 
L 97.311485 -229.985749 
L 96.501873 -229.985749 
L 95.69226 -229.985749 
L 94.882648 -229.985749 
L 94.073036 -229.985749 
L 93.263423 -229.985749 
L 92.453811 -229.985749 
L 91.644199 -229.985749 
L 90.834586 -229.985749 
L 90.024974 -229.985749 
L 89.215362 -229.985749 
L 88.405749 -229.985749 
L 87.596137 -229.985749 
L 86.786525 -229.985749 
L 85.976912 -229.985749 
L 85.1673 -229.985749 
L 84.357688 -229.985749 
L 83.548075 -229.985749 
L 82.738463 -229.985749 
L 81.928851 -229.985749 
L 81.119238 -229.985749 
L 80.309626 -229.985749 
L 79.500014 -229.985749 
L 78.690401 -229.985749 
L 77.880789 -229.985749 
L 77.071177 -229.985749 
L 76.261564 -229.985749 
L 75.451952 -229.985749 
L 74.64234 -229.985749 
L 73.832727 -229.985749 
z
" id="mcebc5c92a7" style="stroke:#4b0082;stroke-opacity:0.3;"/>
    </defs>
    <g clip-path="url(#pa53d0bf39c)">
     <use style="fill:#4b0082;fill-opacity:0.3;stroke:#4b0082;stroke-opacity:0.3;" x="0" xlink:href="#mcebc5c92a7" y="345.6"/>
    </g>
   </g>
   <g id="matplotlib.axis_1">
    <g id="xtick_1">
     <g id="line2d_1">
      <defs>
       <path d="M 0 0 
L 0 3.5 
" id="mcb86340d4a" style="stroke:#000000;stroke-width:0.8;"/>
      </defs>
      <g>
       <use style="stroke:#000000;stroke-width:0.8;" x="73.832727" xlink:href="#mcb86340d4a" y="307.584"/>
      </g>
     </g>
     <g id="text_1">
      <!-- 2020-01 -->
      <g transform="translate(52.941321 322.182437)scale(0.1 -0.1)">
       <defs>
        <path d="M 19.1875 8.296875 
L 53.609375 8.296875 
L 53.609375 0 
L 7.328125 0 
L 7.328125 8.296875 
Q 12.9375 14.109375 22.625 23.890625 
Q 32.328125 33.6875 34.8125 36.53125 
Q 39.546875 41.84375 41.421875 45.53125 
Q 43.3125 49.21875 43.3125 52.78125 
Q 43.3125 58.59375 39.234375 62.25 
Q 35.15625 65.921875 28.609375 65.921875 
Q 23.96875 65.921875 18.8125 64.3125 
Q 13.671875 62.703125 7.8125 59.421875 
L 7.8125 69.390625 
Q 13.765625 71.78125 18.9375 73 
Q 24.125 74.21875 28.421875 74.21875 
Q 39.75 74.21875 46.484375 68.546875 
Q 53.21875 62.890625 53.21875 53.421875 
Q 53.21875 48.921875 51.53125 44.890625 
Q 49.859375 40.875 45.40625 35.40625 
Q 44.1875 33.984375 37.640625 27.21875 
Q 31.109375 20.453125 19.1875 8.296875 
z
" id="DejaVuSans-50"/>
        <path d="M 31.78125 66.40625 
Q 24.171875 66.40625 20.328125 58.90625 
Q 16.5 51.421875 16.5 36.375 
Q 16.5 21.390625 20.328125 13.890625 
Q 24.171875 6.390625 31.78125 6.390625 
Q 39.453125 6.390625 43.28125 13.890625 
Q 47.125 21.390625 47.125 36.375 
Q 47.125 51.421875 43.28125 58.90625 
Q 39.453125 66.40625 31.78125 66.40625 
z
M 31.78125 74.21875 
Q 44.046875 74.21875 50.515625 64.515625 
Q 56.984375 54.828125 56.984375 36.375 
Q 56.984375 17.96875 50.515625 8.265625 
Q 44.046875 -1.421875 31.78125 -1.421875 
Q 19.53125 -1.421875 13.0625 8.265625 
Q 6.59375 17.96875 6.59375 36.375 
Q 6.59375 54.828125 13.0625 64.515625 
Q 19.53125 74.21875 31.78125 74.21875 
z
" id="DejaVuSans-48"/>
        <path d="M 4.890625 31.390625 
L 31.203125 31.390625 
L 31.203125 23.390625 
L 4.890625 23.390625 
z
" id="DejaVuSans-45"/>
        <path d="M 12.40625 8.296875 
L 28.515625 8.296875 
L 28.515625 63.921875 
L 10.984375 60.40625 
L 10.984375 69.390625 
L 28.421875 72.90625 
L 38.28125 72.90625 
L 38.28125 8.296875 
L 54.390625 8.296875 
L 54.390625 0 
L 12.40625 0 
z
" id="DejaVuSans-49"/>
       </defs>
       <use xlink:href="#DejaVuSans-50"/>
       <use x="63.623047" xlink:href="#DejaVuSans-48"/>
       <use x="127.246094" xlink:href="#DejaVuSans-50"/>
       <use x="190.869141" xlink:href="#DejaVuSans-48"/>
       <use x="254.492188" xlink:href="#DejaVuSans-45"/>
       <use x="290.576172" xlink:href="#DejaVuSans-48"/>
       <use x="354.199219" xlink:href="#DejaVuSans-49"/>
      </g>
     </g>
    </g>
    <g id="xtick_2">
     <g id="line2d_2">
      <g>
       <use style="stroke:#000000;stroke-width:0.8;" x="122.409467" xlink:href="#mcb86340d4a" y="307.584"/>
      </g>
     </g>
     <g id="text_2">
      <!-- 2020-03 -->
      <g transform="translate(101.518061 322.182437)scale(0.1 -0.1)">
       <defs>
        <path d="M 40.578125 39.3125 
Q 47.65625 37.796875 51.625 33 
Q 55.609375 28.21875 55.609375 21.1875 
Q 55.609375 10.40625 48.1875 4.484375 
Q 40.765625 -1.421875 27.09375 -1.421875 
Q 22.515625 -1.421875 17.65625 -0.515625 
Q 12.796875 0.390625 7.625 2.203125 
L 7.625 11.71875 
Q 11.71875 9.328125 16.59375 8.109375 
Q 21.484375 6.890625 26.8125 6.890625 
Q 36.078125 6.890625 40.9375 10.546875 
Q 45.796875 14.203125 45.796875 21.1875 
Q 45.796875 27.640625 41.28125 31.265625 
Q 36.765625 34.90625 28.71875 34.90625 
L 20.21875 34.90625 
L 20.21875 43.015625 
L 29.109375 43.015625 
Q 36.375 43.015625 40.234375 45.921875 
Q 44.09375 48.828125 44.09375 54.296875 
Q 44.09375 59.90625 40.109375 62.90625 
Q 36.140625 65.921875 28.71875 65.921875 
Q 24.65625 65.921875 20.015625 65.03125 
Q 15.375 64.15625 9.8125 62.3125 
L 9.8125 71.09375 
Q 15.4375 72.65625 20.34375 73.4375 
Q 25.25 74.21875 29.59375 74.21875 
Q 40.828125 74.21875 47.359375 69.109375 
Q 53.90625 64.015625 53.90625 55.328125 
Q 53.90625 49.265625 50.4375 45.09375 
Q 46.96875 40.921875 40.578125 39.3125 
z
" id="DejaVuSans-51"/>
       </defs>
       <use xlink:href="#DejaVuSans-50"/>
       <use x="63.623047" xlink:href="#DejaVuSans-48"/>
       <use x="127.246094" xlink:href="#DejaVuSans-50"/>
       <use x="190.869141" xlink:href="#DejaVuSans-48"/>
       <use x="254.492188" xlink:href="#DejaVuSans-45"/>
       <use x="290.576172" xlink:href="#DejaVuSans-48"/>
       <use x="354.199219" xlink:href="#DejaVuSans-51"/>
      </g>
     </g>
    </g>
    <g id="xtick_3">
     <g id="line2d_3">
      <g>
       <use style="stroke:#000000;stroke-width:0.8;" x="171.79582" xlink:href="#mcb86340d4a" y="307.584"/>
      </g>
     </g>
     <g id="text_3">
      <!-- 2020-05 -->
      <g transform="translate(150.904413 322.182437)scale(0.1 -0.1)">
       <defs>
        <path d="M 10.796875 72.90625 
L 49.515625 72.90625 
L 49.515625 64.59375 
L 19.828125 64.59375 
L 19.828125 46.734375 
Q 21.96875 47.46875 24.109375 47.828125 
Q 26.265625 48.1875 28.421875 48.1875 
Q 40.625 48.1875 47.75 41.5 
Q 54.890625 34.8125 54.890625 23.390625 
Q 54.890625 11.625 47.5625 5.09375 
Q 40.234375 -1.421875 26.90625 -1.421875 
Q 22.3125 -1.421875 17.546875 -0.640625 
Q 12.796875 0.140625 7.71875 1.703125 
L 7.71875 11.625 
Q 12.109375 9.234375 16.796875 8.0625 
Q 21.484375 6.890625 26.703125 6.890625 
Q 35.15625 6.890625 40.078125 11.328125 
Q 45.015625 15.765625 45.015625 23.390625 
Q 45.015625 31 40.078125 35.4375 
Q 35.15625 39.890625 26.703125 39.890625 
Q 22.75 39.890625 18.8125 39.015625 
Q 14.890625 38.140625 10.796875 36.28125 
z
" id="DejaVuSans-53"/>
       </defs>
       <use xlink:href="#DejaVuSans-50"/>
       <use x="63.623047" xlink:href="#DejaVuSans-48"/>
       <use x="127.246094" xlink:href="#DejaVuSans-50"/>
       <use x="190.869141" xlink:href="#DejaVuSans-48"/>
       <use x="254.492188" xlink:href="#DejaVuSans-45"/>
       <use x="290.576172" xlink:href="#DejaVuSans-48"/>
       <use x="354.199219" xlink:href="#DejaVuSans-53"/>
      </g>
     </g>
    </g>
    <g id="xtick_4">
     <g id="line2d_4">
      <g>
       <use style="stroke:#000000;stroke-width:0.8;" x="221.182172" xlink:href="#mcb86340d4a" y="307.584"/>
      </g>
     </g>
     <g id="text_4">
      <!-- 2020-07 -->
      <g transform="translate(200.290766 322.182437)scale(0.1 -0.1)">
       <defs>
        <path d="M 8.203125 72.90625 
L 55.078125 72.90625 
L 55.078125 68.703125 
L 28.609375 0 
L 18.3125 0 
L 43.21875 64.59375 
L 8.203125 64.59375 
z
" id="DejaVuSans-55"/>
       </defs>
       <use xlink:href="#DejaVuSans-50"/>
       <use x="63.623047" xlink:href="#DejaVuSans-48"/>
       <use x="127.246094" xlink:href="#DejaVuSans-50"/>
       <use x="190.869141" xlink:href="#DejaVuSans-48"/>
       <use x="254.492188" xlink:href="#DejaVuSans-45"/>
       <use x="290.576172" xlink:href="#DejaVuSans-48"/>
       <use x="354.199219" xlink:href="#DejaVuSans-55"/>
      </g>
     </g>
    </g>
    <g id="xtick_5">
     <g id="line2d_5">
      <g>
       <use style="stroke:#000000;stroke-width:0.8;" x="271.378136" xlink:href="#mcb86340d4a" y="307.584"/>
      </g>
     </g>
     <g id="text_5">
      <!-- 2020-09 -->
      <g transform="translate(250.48673 322.182437)scale(0.1 -0.1)">
       <defs>
        <path d="M 10.984375 1.515625 
L 10.984375 10.5 
Q 14.703125 8.734375 18.5 7.8125 
Q 22.3125 6.890625 25.984375 6.890625 
Q 35.75 6.890625 40.890625 13.453125 
Q 46.046875 20.015625 46.78125 33.40625 
Q 43.953125 29.203125 39.59375 26.953125 
Q 35.25 24.703125 29.984375 24.703125 
Q 19.046875 24.703125 12.671875 31.3125 
Q 6.296875 37.9375 6.296875 49.421875 
Q 6.296875 60.640625 12.9375 67.421875 
Q 19.578125 74.21875 30.609375 74.21875 
Q 43.265625 74.21875 49.921875 64.515625 
Q 56.59375 54.828125 56.59375 36.375 
Q 56.59375 19.140625 48.40625 8.859375 
Q 40.234375 -1.421875 26.421875 -1.421875 
Q 22.703125 -1.421875 18.890625 -0.6875 
Q 15.09375 0.046875 10.984375 1.515625 
z
M 30.609375 32.421875 
Q 37.25 32.421875 41.125 36.953125 
Q 45.015625 41.5 45.015625 49.421875 
Q 45.015625 57.28125 41.125 61.84375 
Q 37.25 66.40625 30.609375 66.40625 
Q 23.96875 66.40625 20.09375 61.84375 
Q 16.21875 57.28125 16.21875 49.421875 
Q 16.21875 41.5 20.09375 36.953125 
Q 23.96875 32.421875 30.609375 32.421875 
z
" id="DejaVuSans-57"/>
       </defs>
       <use xlink:href="#DejaVuSans-50"/>
       <use x="63.623047" xlink:href="#DejaVuSans-48"/>
       <use x="127.246094" xlink:href="#DejaVuSans-50"/>
       <use x="190.869141" xlink:href="#DejaVuSans-48"/>
       <use x="254.492188" xlink:href="#DejaVuSans-45"/>
       <use x="290.576172" xlink:href="#DejaVuSans-48"/>
       <use x="354.199219" xlink:href="#DejaVuSans-57"/>
      </g>
     </g>
    </g>
    <g id="xtick_6">
     <g id="line2d_6">
      <g>
       <use style="stroke:#000000;stroke-width:0.8;" x="320.764489" xlink:href="#mcb86340d4a" y="307.584"/>
      </g>
     </g>
     <g id="text_6">
      <!-- 2020-11 -->
      <g transform="translate(299.873083 322.182437)scale(0.1 -0.1)">
       <use xlink:href="#DejaVuSans-50"/>
       <use x="63.623047" xlink:href="#DejaVuSans-48"/>
       <use x="127.246094" xlink:href="#DejaVuSans-50"/>
       <use x="190.869141" xlink:href="#DejaVuSans-48"/>
       <use x="254.492188" xlink:href="#DejaVuSans-45"/>
       <use x="290.576172" xlink:href="#DejaVuSans-49"/>
       <use x="354.199219" xlink:href="#DejaVuSans-49"/>
      </g>
     </g>
    </g>
    <g id="xtick_7">
     <g id="line2d_7">
      <g>
       <use style="stroke:#000000;stroke-width:0.8;" x="370.150841" xlink:href="#mcb86340d4a" y="307.584"/>
      </g>
     </g>
     <g id="text_7">
      <!-- 2021-01 -->
      <g transform="translate(349.259435 322.182437)scale(0.1 -0.1)">
       <use xlink:href="#DejaVuSans-50"/>
       <use x="63.623047" xlink:href="#DejaVuSans-48"/>
       <use x="127.246094" xlink:href="#DejaVuSans-50"/>
       <use x="190.869141" xlink:href="#DejaVuSans-49"/>
       <use x="254.492188" xlink:href="#DejaVuSans-45"/>
       <use x="290.576172" xlink:href="#DejaVuSans-48"/>
       <use x="354.199219" xlink:href="#DejaVuSans-49"/>
      </g>
     </g>
    </g>
   </g>
   <g id="matplotlib.axis_2">
    <g id="ytick_1">
     <g id="line2d_8">
      <defs>
       <path d="M 0 0 
L -3.5 0 
" id="m0f8cec6dcb" style="stroke:#000000;stroke-width:0.8;"/>
      </defs>
      <g>
       <use style="stroke:#000000;stroke-width:0.8;" x="57.6" xlink:href="#m0f8cec6dcb" y="307.584"/>
      </g>
     </g>
     <g id="text_8">
      <!-- 0 -->
      <g transform="translate(44.2375 311.383219)scale(0.1 -0.1)">
       <use xlink:href="#DejaVuSans-48"/>
      </g>
     </g>
    </g>
    <g id="ytick_2">
     <g id="line2d_9">
      <g>
       <use style="stroke:#000000;stroke-width:0.8;" x="57.6" xlink:href="#m0f8cec6dcb" y="252.7355"/>
      </g>
     </g>
     <g id="text_9">
      <!-- 20 -->
      <g transform="translate(37.875 256.534719)scale(0.1 -0.1)">
       <use xlink:href="#DejaVuSans-50"/>
       <use x="63.623047" xlink:href="#DejaVuSans-48"/>
      </g>
     </g>
    </g>
    <g id="ytick_3">
     <g id="line2d_10">
      <g>
       <use style="stroke:#000000;stroke-width:0.8;" x="57.6" xlink:href="#m0f8cec6dcb" y="197.887"/>
      </g>
     </g>
     <g id="text_10">
      <!-- 40 -->
      <g transform="translate(37.875 201.686219)scale(0.1 -0.1)">
       <defs>
        <path d="M 37.796875 64.3125 
L 12.890625 25.390625 
L 37.796875 25.390625 
z
M 35.203125 72.90625 
L 47.609375 72.90625 
L 47.609375 25.390625 
L 58.015625 25.390625 
L 58.015625 17.1875 
L 47.609375 17.1875 
L 47.609375 0 
L 37.796875 0 
L 37.796875 17.1875 
L 4.890625 17.1875 
L 4.890625 26.703125 
z
" id="DejaVuSans-52"/>
       </defs>
       <use xlink:href="#DejaVuSans-52"/>
       <use x="63.623047" xlink:href="#DejaVuSans-48"/>
      </g>
     </g>
    </g>
    <g id="ytick_4">
     <g id="line2d_11">
      <g>
       <use style="stroke:#000000;stroke-width:0.8;" x="57.6" xlink:href="#m0f8cec6dcb" y="143.038501"/>
      </g>
     </g>
     <g id="text_11">
      <!-- 60 -->
      <g transform="translate(37.875 146.837719)scale(0.1 -0.1)">
       <defs>
        <path d="M 33.015625 40.375 
Q 26.375 40.375 22.484375 35.828125 
Q 18.609375 31.296875 18.609375 23.390625 
Q 18.609375 15.53125 22.484375 10.953125 
Q 26.375 6.390625 33.015625 6.390625 
Q 39.65625 6.390625 43.53125 10.953125 
Q 47.40625 15.53125 47.40625 23.390625 
Q 47.40625 31.296875 43.53125 35.828125 
Q 39.65625 40.375 33.015625 40.375 
z
M 52.59375 71.296875 
L 52.59375 62.3125 
Q 48.875 64.0625 45.09375 64.984375 
Q 41.3125 65.921875 37.59375 65.921875 
Q 27.828125 65.921875 22.671875 59.328125 
Q 17.53125 52.734375 16.796875 39.40625 
Q 19.671875 43.65625 24.015625 45.921875 
Q 28.375 48.1875 33.59375 48.1875 
Q 44.578125 48.1875 50.953125 41.515625 
Q 57.328125 34.859375 57.328125 23.390625 
Q 57.328125 12.15625 50.6875 5.359375 
Q 44.046875 -1.421875 33.015625 -1.421875 
Q 20.359375 -1.421875 13.671875 8.265625 
Q 6.984375 17.96875 6.984375 36.375 
Q 6.984375 53.65625 15.1875 63.9375 
Q 23.390625 74.21875 37.203125 74.21875 
Q 40.921875 74.21875 44.703125 73.484375 
Q 48.484375 72.75 52.59375 71.296875 
z
" id="DejaVuSans-54"/>
       </defs>
       <use xlink:href="#DejaVuSans-54"/>
       <use x="63.623047" xlink:href="#DejaVuSans-48"/>
      </g>
     </g>
    </g>
    <g id="ytick_5">
     <g id="line2d_12">
      <g>
       <use style="stroke:#000000;stroke-width:0.8;" x="57.6" xlink:href="#m0f8cec6dcb" y="88.190001"/>
      </g>
     </g>
     <g id="text_12">
      <!-- 80 -->
      <g transform="translate(37.875 91.989219)scale(0.1 -0.1)">
       <defs>
        <path d="M 31.78125 34.625 
Q 24.75 34.625 20.71875 30.859375 
Q 16.703125 27.09375 16.703125 20.515625 
Q 16.703125 13.921875 20.71875 10.15625 
Q 24.75 6.390625 31.78125 6.390625 
Q 38.8125 6.390625 42.859375 10.171875 
Q 46.921875 13.96875 46.921875 20.515625 
Q 46.921875 27.09375 42.890625 30.859375 
Q 38.875 34.625 31.78125 34.625 
z
M 21.921875 38.8125 
Q 15.578125 40.375 12.03125 44.71875 
Q 8.5 49.078125 8.5 55.328125 
Q 8.5 64.0625 14.71875 69.140625 
Q 20.953125 74.21875 31.78125 74.21875 
Q 42.671875 74.21875 48.875 69.140625 
Q 55.078125 64.0625 55.078125 55.328125 
Q 55.078125 49.078125 51.53125 44.71875 
Q 48 40.375 41.703125 38.8125 
Q 48.828125 37.15625 52.796875 32.3125 
Q 56.78125 27.484375 56.78125 20.515625 
Q 56.78125 9.90625 50.3125 4.234375 
Q 43.84375 -1.421875 31.78125 -1.421875 
Q 19.734375 -1.421875 13.25 4.234375 
Q 6.78125 9.90625 6.78125 20.515625 
Q 6.78125 27.484375 10.78125 32.3125 
Q 14.796875 37.15625 21.921875 38.8125 
z
M 18.3125 54.390625 
Q 18.3125 48.734375 21.84375 45.5625 
Q 25.390625 42.390625 31.78125 42.390625 
Q 38.140625 42.390625 41.71875 45.5625 
Q 45.3125 48.734375 45.3125 54.390625 
Q 45.3125 60.0625 41.71875 63.234375 
Q 38.140625 66.40625 31.78125 66.40625 
Q 25.390625 66.40625 21.84375 63.234375 
Q 18.3125 60.0625 18.3125 54.390625 
z
" id="DejaVuSans-56"/>
       </defs>
       <use xlink:href="#DejaVuSans-56"/>
       <use x="63.623047" xlink:href="#DejaVuSans-48"/>
      </g>
     </g>
    </g>
   </g>
   <g id="line2d_13">
    <path clip-path="url(#pa53d0bf39c)" d="M 86.786525 97.159481 
L 87.596137 95.222589 
L 88.405749 101.217293 
L 89.215362 111.046349 
L 90.024974 124.880349 
L 90.834586 132.824749 
L 91.644199 136.323585 
L 93.263423 145.758317 
L 94.073036 147.647031 
L 94.882648 137.926223 
L 95.69226 132.834871 
L 96.501873 131.873635 
L 97.311485 132.107652 
L 98.121097 136.052383 
L 98.93071 137.270331 
L 99.740322 139.394607 
L 100.549934 134.132984 
L 101.359547 133.930186 
L 102.169159 129.950052 
L 102.978771 118.609553 
L 103.788384 102.453299 
L 104.597996 90.59482 
L 105.407608 86.844131 
L 106.217221 94.175377 
L 107.026833 106.194088 
L 107.836445 114.720982 
L 108.646058 117.811629 
L 109.45567 113.616846 
L 110.265282 124.595486 
L 111.074895 128.916753 
L 111.884507 143.15471 
L 112.694119 137.888639 
L 113.503732 148.52831 
L 114.313344 157.326316 
L 115.122956 174.011911 
L 115.932569 177.538859 
L 117.551793 179.464813 
L 118.361406 189.897203 
L 119.98063 223.589826 
L 120.790243 231.981218 
L 121.599855 231.9294 
L 122.409467 233.362037 
L 123.21908 222.352659 
L 124.028692 224.495243 
L 124.838304 220.048661 
L 125.647917 218.635242 
L 126.457529 205.648414 
L 127.267141 201.317347 
L 128.886366 231.805913 
L 129.695978 241.716945 
L 130.505591 232.190669 
L 131.315203 240.604904 
L 132.124815 241.42087 
L 132.934428 249.210029 
L 133.74404 238.680364 
L 134.553652 243.210713 
L 135.363265 242.809255 
L 136.172877 243.628435 
L 136.982489 234.443127 
L 138.601714 225.005806 
L 139.411326 222.859808 
L 140.220939 213.694472 
L 141.030551 203.240422 
L 141.840163 195.470698 
L 142.649776 166.542698 
L 143.459388 150.944769 
L 144.269 129.556851 
L 145.078613 142.66386 
L 145.888225 135.121238 
L 146.697837 135.404177 
L 147.50745 126.899469 
L 148.317062 134.289342 
L 149.936287 145.329773 
L 151.555511 134.106143 
L 152.365124 136.23821 
L 153.174736 139.830868 
L 153.984348 144.392064 
L 154.793961 143.739721 
L 155.603573 144.432028 
L 156.413185 134.945414 
L 157.222798 133.171521 
L 158.03241 133.411943 
L 158.842022 151.868263 
L 159.651635 155.546435 
L 160.461247 159.88601 
L 161.270859 152.543237 
L 162.080472 152.002708 
L 163.699696 180.304885 
L 164.509309 191.158483 
L 165.318921 178.175859 
L 166.938146 140.471379 
L 167.747758 128.65028 
L 168.55737 123.761151 
L 169.366983 120.127971 
L 170.176595 104.713075 
L 170.986207 98.207784 
L 171.79582 87.464624 
L 172.605432 90.810925 
L 173.415044 86.342435 
L 175.843881 61.616018 
L 176.653494 60.160985 
L 177.463106 63.853478 
L 178.272718 72.708495 
L 179.891943 122.493002 
L 180.701555 138.642693 
L 181.511168 144.002689 
L 182.32078 140.179912 
L 183.130392 146.373169 
L 183.940005 148.798974 
L 184.749617 154.143398 
L 186.368842 147.538352 
L 187.178454 151.63474 
L 187.988066 169.64692 
L 188.797679 184.10571 
L 189.607291 192.037679 
L 190.416903 182.550122 
L 191.226516 171.653918 
L 192.036128 166.850115 
L 192.84574 168.000159 
L 193.655353 175.181503 
L 194.464965 173.564808 
L 195.274577 167.314443 
L 196.08419 167.334904 
L 196.893802 163.040602 
L 197.703414 170.179608 
L 198.513027 165.135549 
L 199.322639 162.744019 
L 200.132251 154.835976 
L 200.941864 150.698836 
L 201.751476 145.849241 
L 203.370701 132.215825 
L 204.180313 135.281169 
L 204.989925 150.883218 
L 206.60915 176.481039 
L 207.418762 174.365322 
L 208.228375 190.563824 
L 209.037987 187.42517 
L 209.847599 191.164211 
L 210.657212 186.406233 
L 211.466824 195.621878 
L 212.276436 199.31967 
L 213.086049 201.76578 
L 213.895661 195.051938 
L 214.705273 189.603068 
L 215.514886 188.438665 
L 216.324498 186.933809 
L 217.13411 192.406573 
L 217.943723 192.819985 
L 218.753335 197.720534 
L 219.562947 195.030494 
L 220.37256 194.022904 
L 221.182172 194.696209 
L 221.991784 196.297023 
L 222.801397 191.870745 
L 223.611009 191.421591 
L 224.420621 189.231027 
L 225.230234 192.566193 
L 226.039846 196.989376 
L 227.659071 177.239111 
L 228.468683 162.864902 
L 229.278295 159.037687 
L 230.087908 152.602319 
L 230.89752 154.568829 
L 231.707132 158.564424 
L 232.516745 166.413081 
L 234.135969 166.461752 
L 234.945582 163.434011 
L 235.755194 159.556645 
L 236.564806 172.505591 
L 237.374418 168.753699 
L 238.184031 169.354985 
L 238.993643 141.289521 
L 239.803255 133.740441 
L 240.612868 117.780105 
L 241.42248 112.022634 
L 242.232092 88.086007 
L 243.851317 62.894521 
L 244.660929 61.419978 
L 245.470542 56.502636 
L 246.280154 53.193695 
L 248.708991 100.833301 
L 249.518603 98.965471 
L 250.328216 99.247823 
L 251.137828 98.532613 
L 251.94744 100.19356 
L 252.757053 104.370628 
L 253.566665 114.259305 
L 254.376277 130.992047 
L 255.18589 145.079732 
L 255.995502 149.872784 
L 256.805114 150.948675 
L 257.614727 156.415825 
L 258.424339 148.907632 
L 260.043564 124.867937 
L 262.472401 169.108487 
L 263.282013 171.853212 
L 264.091625 173.990109 
L 264.901238 175.308082 
L 265.71085 175.035165 
L 266.520462 176.454453 
L 267.330075 182.624451 
L 268.139687 186.085177 
L 268.949299 191.145138 
L 269.758912 185.859621 
L 270.568524 193.4466 
L 271.378136 186.375617 
L 272.187749 189.632557 
L 272.997361 197.771966 
L 273.806973 211.168349 
L 274.616586 222.286864 
L 275.426198 217.883301 
L 276.23581 220.48121 
L 277.045423 217.266357 
L 277.855035 216.425496 
L 278.664647 212.624562 
L 279.47426 212.264643 
L 280.283872 210.125884 
L 281.093484 215.932626 
L 281.903097 213.80299 
L 282.712709 214.997581 
L 283.522321 203.401781 
L 285.951158 118.004489 
L 286.760771 116.766377 
L 287.570383 127.195355 
L 289.189608 159.296567 
L 289.99922 153.583106 
L 290.808832 157.638395 
L 291.618445 153.033001 
L 292.428057 151.803611 
L 293.237669 156.959792 
L 294.047282 161.287107 
L 294.856894 173.316797 
L 295.666506 179.975508 
L 297.285731 195.19615 
L 298.095343 194.209377 
L 298.904956 178.070717 
L 299.714568 165.010896 
L 300.52418 147.075043 
L 301.333793 149.197618 
L 302.143405 139.636865 
L 302.953017 135.994212 
L 304.572242 114.582805 
L 305.381854 113.708861 
L 306.191467 112.225596 
L 307.001079 108.623793 
L 308.620304 102.328304 
L 309.429916 106.793514 
L 310.239528 103.310725 
L 311.049141 93.683313 
L 312.668365 68.134798 
L 313.477978 66.452236 
L 314.28759 69.465506 
L 315.097202 75.110615 
L 315.906815 79.009866 
L 316.716427 77.02642 
L 317.526039 80.843952 
L 318.335652 83.371892 
L 319.145264 86.798128 
L 319.954876 80.781315 
L 320.764489 76.685649 
L 322.383713 88.42592 
L 323.193326 97.229369 
L 324.81255 89.82238 
L 325.622163 94.465181 
L 326.431775 101.536886 
L 327.241387 111.522037 
L 328.051 112.582105 
L 328.860612 110.710521 
L 329.670224 105.553925 
L 330.479837 96.688206 
L 331.289449 99.456959 
L 332.099061 104.937666 
L 332.908674 104.402762 
L 334.527898 90.609435 
L 335.337511 94.255557 
L 336.147123 96.1776 
L 337.766348 78.968326 
L 338.57596 72.948174 
L 339.385572 74.867593 
L 340.195185 77.333017 
L 341.814409 129.641125 
L 342.624022 145.200052 
L 343.433634 136.869003 
L 344.243246 125.049246 
L 345.052859 130.16532 
L 345.862471 136.900618 
L 346.672083 145.919305 
L 347.481696 152.619307 
L 348.291308 158.312078 
L 349.10092 162.06254 
L 349.910533 157.720847 
L 351.529757 170.842613 
L 352.33937 168.581243 
L 353.148982 158.869249 
L 353.958594 151.424023 
L 354.768207 152.208571 
L 355.577819 161.012818 
L 356.387431 161.876217 
L 357.197044 153.454629 
L 358.816268 109.912439 
L 359.625881 96.932149 
L 360.435493 92.211639 
L 361.245105 99.690647 
L 362.054718 97.919633 
L 362.86433 98.143564 
L 363.673942 90.029313 
L 364.483555 88.608062 
L 365.293167 80.517654 
L 366.102779 77.597521 
L 366.912392 76.842804 
L 367.722004 77.312501 
L 368.531616 76.759931 
L 370.150841 81.528964 
L 370.960453 80.527254 
L 371.770066 74.759949 
L 372.579678 70.446654 
L 373.38929 68.297761 
L 374.198903 63.969228 
L 375.818127 51.364287 
L 376.62774 53.510013 
L 377.437352 64.617103 
L 379.056577 107.879641 
L 379.866189 120.222406 
L 380.675801 120.356548 
L 381.485414 122.465376 
L 382.295026 131.7847 
L 383.104638 145.121048 
L 383.914251 149.265459 
L 384.723863 152.486816 
L 385.533475 160.560605 
L 386.343088 187.269288 
L 387.1527 207.539488 
L 387.962312 221.410312 
L 388.771925 216.727789 
L 389.581537 208.847597 
L 390.391149 197.561638 
L 391.200762 202.69019 
L 392.010374 209.218762 
L 392.819986 211.412227 
L 393.629599 198.577343 
L 394.439211 191.438411 
L 395.248823 192.995476 
L 396.058436 188.960298 
L 396.868048 176.648328 
L 397.67766 149.156216 
L 398.487273 131.023082 
L 398.487273 131.023082 
" style="fill:none;stroke:#ff6347;stroke-linecap:square;stroke-width:1.5;"/>
   </g>
   <g id="patch_3">
    <path d="M 57.6 307.584 
L 57.6 41.472 
" style="fill:none;stroke:#000000;stroke-linecap:square;stroke-linejoin:miter;stroke-width:0.8;"/>
   </g>
   <g id="patch_4">
    <path d="M 414.72 307.584 
L 414.72 41.472 
" style="fill:none;stroke:#000000;stroke-linecap:square;stroke-linejoin:miter;stroke-width:0.8;"/>
   </g>
   <g id="patch_5">
    <path d="M 57.6 307.584 
L 414.72 307.584 
" style="fill:none;stroke:#000000;stroke-linecap:square;stroke-linejoin:miter;stroke-width:0.8;"/>
   </g>
   <g id="patch_6">
    <path d="M 57.6 41.472 
L 414.72 41.472 
" style="fill:none;stroke:#000000;stroke-linecap:square;stroke-linejoin:miter;stroke-width:0.8;"/>
   </g>
   <g id="text_13">
    <!-- Data source: nomics -->
    <g transform="translate(184.91625 35.472)scale(0.1 -0.1)">
     <defs>
      <path d="M 19.671875 64.796875 
L 19.671875 8.109375 
L 31.59375 8.109375 
Q 46.6875 8.109375 53.6875 14.9375 
Q 60.6875 21.78125 60.6875 36.53125 
Q 60.6875 51.171875 53.6875 57.984375 
Q 46.6875 64.796875 31.59375 64.796875 
z
M 9.8125 72.90625 
L 30.078125 72.90625 
Q 51.265625 72.90625 61.171875 64.09375 
Q 71.09375 55.28125 71.09375 36.53125 
Q 71.09375 17.671875 61.125 8.828125 
Q 51.171875 0 30.078125 0 
L 9.8125 0 
z
" id="DejaVuSans-68"/>
      <path d="M 34.28125 27.484375 
Q 23.390625 27.484375 19.1875 25 
Q 14.984375 22.515625 14.984375 16.5 
Q 14.984375 11.71875 18.140625 8.90625 
Q 21.296875 6.109375 26.703125 6.109375 
Q 34.1875 6.109375 38.703125 11.40625 
Q 43.21875 16.703125 43.21875 25.484375 
L 43.21875 27.484375 
z
M 52.203125 31.203125 
L 52.203125 0 
L 43.21875 0 
L 43.21875 8.296875 
Q 40.140625 3.328125 35.546875 0.953125 
Q 30.953125 -1.421875 24.3125 -1.421875 
Q 15.921875 -1.421875 10.953125 3.296875 
Q 6 8.015625 6 15.921875 
Q 6 25.140625 12.171875 29.828125 
Q 18.359375 34.515625 30.609375 34.515625 
L 43.21875 34.515625 
L 43.21875 35.40625 
Q 43.21875 41.609375 39.140625 45 
Q 35.0625 48.390625 27.6875 48.390625 
Q 23 48.390625 18.546875 47.265625 
Q 14.109375 46.140625 10.015625 43.890625 
L 10.015625 52.203125 
Q 14.9375 54.109375 19.578125 55.046875 
Q 24.21875 56 28.609375 56 
Q 40.484375 56 46.34375 49.84375 
Q 52.203125 43.703125 52.203125 31.203125 
z
" id="DejaVuSans-97"/>
      <path d="M 18.3125 70.21875 
L 18.3125 54.6875 
L 36.8125 54.6875 
L 36.8125 47.703125 
L 18.3125 47.703125 
L 18.3125 18.015625 
Q 18.3125 11.328125 20.140625 9.421875 
Q 21.96875 7.515625 27.59375 7.515625 
L 36.8125 7.515625 
L 36.8125 0 
L 27.59375 0 
Q 17.1875 0 13.234375 3.875 
Q 9.28125 7.765625 9.28125 18.015625 
L 9.28125 47.703125 
L 2.6875 47.703125 
L 2.6875 54.6875 
L 9.28125 54.6875 
L 9.28125 70.21875 
z
" id="DejaVuSans-116"/>
      <path id="DejaVuSans-32"/>
      <path d="M 44.28125 53.078125 
L 44.28125 44.578125 
Q 40.484375 46.53125 36.375 47.5 
Q 32.28125 48.484375 27.875 48.484375 
Q 21.1875 48.484375 17.84375 46.4375 
Q 14.5 44.390625 14.5 40.28125 
Q 14.5 37.15625 16.890625 35.375 
Q 19.28125 33.59375 26.515625 31.984375 
L 29.59375 31.296875 
Q 39.15625 29.25 43.1875 25.515625 
Q 47.21875 21.78125 47.21875 15.09375 
Q 47.21875 7.46875 41.1875 3.015625 
Q 35.15625 -1.421875 24.609375 -1.421875 
Q 20.21875 -1.421875 15.453125 -0.5625 
Q 10.6875 0.296875 5.421875 2 
L 5.421875 11.28125 
Q 10.40625 8.6875 15.234375 7.390625 
Q 20.0625 6.109375 24.8125 6.109375 
Q 31.15625 6.109375 34.5625 8.28125 
Q 37.984375 10.453125 37.984375 14.40625 
Q 37.984375 18.0625 35.515625 20.015625 
Q 33.0625 21.96875 24.703125 23.78125 
L 21.578125 24.515625 
Q 13.234375 26.265625 9.515625 29.90625 
Q 5.8125 33.546875 5.8125 39.890625 
Q 5.8125 47.609375 11.28125 51.796875 
Q 16.75 56 26.8125 56 
Q 31.78125 56 36.171875 55.265625 
Q 40.578125 54.546875 44.28125 53.078125 
z
" id="DejaVuSans-115"/>
      <path d="M 30.609375 48.390625 
Q 23.390625 48.390625 19.1875 42.75 
Q 14.984375 37.109375 14.984375 27.296875 
Q 14.984375 17.484375 19.15625 11.84375 
Q 23.34375 6.203125 30.609375 6.203125 
Q 37.796875 6.203125 41.984375 11.859375 
Q 46.1875 17.53125 46.1875 27.296875 
Q 46.1875 37.015625 41.984375 42.703125 
Q 37.796875 48.390625 30.609375 48.390625 
z
M 30.609375 56 
Q 42.328125 56 49.015625 48.375 
Q 55.71875 40.765625 55.71875 27.296875 
Q 55.71875 13.875 49.015625 6.21875 
Q 42.328125 -1.421875 30.609375 -1.421875 
Q 18.84375 -1.421875 12.171875 6.21875 
Q 5.515625 13.875 5.515625 27.296875 
Q 5.515625 40.765625 12.171875 48.375 
Q 18.84375 56 30.609375 56 
z
" id="DejaVuSans-111"/>
      <path d="M 8.5 21.578125 
L 8.5 54.6875 
L 17.484375 54.6875 
L 17.484375 21.921875 
Q 17.484375 14.15625 20.5 10.265625 
Q 23.53125 6.390625 29.59375 6.390625 
Q 36.859375 6.390625 41.078125 11.03125 
Q 45.3125 15.671875 45.3125 23.6875 
L 45.3125 54.6875 
L 54.296875 54.6875 
L 54.296875 0 
L 45.3125 0 
L 45.3125 8.40625 
Q 42.046875 3.421875 37.71875 1 
Q 33.40625 -1.421875 27.6875 -1.421875 
Q 18.265625 -1.421875 13.375 4.4375 
Q 8.5 10.296875 8.5 21.578125 
z
M 31.109375 56 
z
" id="DejaVuSans-117"/>
      <path d="M 41.109375 46.296875 
Q 39.59375 47.171875 37.8125 47.578125 
Q 36.03125 48 33.890625 48 
Q 26.265625 48 22.1875 43.046875 
Q 18.109375 38.09375 18.109375 28.8125 
L 18.109375 0 
L 9.078125 0 
L 9.078125 54.6875 
L 18.109375 54.6875 
L 18.109375 46.1875 
Q 20.953125 51.171875 25.484375 53.578125 
Q 30.03125 56 36.53125 56 
Q 37.453125 56 38.578125 55.875 
Q 39.703125 55.765625 41.0625 55.515625 
z
" id="DejaVuSans-114"/>
      <path d="M 48.78125 52.59375 
L 48.78125 44.1875 
Q 44.96875 46.296875 41.140625 47.34375 
Q 37.3125 48.390625 33.40625 48.390625 
Q 24.65625 48.390625 19.8125 42.84375 
Q 14.984375 37.3125 14.984375 27.296875 
Q 14.984375 17.28125 19.8125 11.734375 
Q 24.65625 6.203125 33.40625 6.203125 
Q 37.3125 6.203125 41.140625 7.25 
Q 44.96875 8.296875 48.78125 10.40625 
L 48.78125 2.09375 
Q 45.015625 0.34375 40.984375 -0.53125 
Q 36.96875 -1.421875 32.421875 -1.421875 
Q 20.0625 -1.421875 12.78125 6.34375 
Q 5.515625 14.109375 5.515625 27.296875 
Q 5.515625 40.671875 12.859375 48.328125 
Q 20.21875 56 33.015625 56 
Q 37.15625 56 41.109375 55.140625 
Q 45.0625 54.296875 48.78125 52.59375 
z
" id="DejaVuSans-99"/>
      <path d="M 56.203125 29.59375 
L 56.203125 25.203125 
L 14.890625 25.203125 
Q 15.484375 15.921875 20.484375 11.0625 
Q 25.484375 6.203125 34.421875 6.203125 
Q 39.59375 6.203125 44.453125 7.46875 
Q 49.3125 8.734375 54.109375 11.28125 
L 54.109375 2.78125 
Q 49.265625 0.734375 44.1875 -0.34375 
Q 39.109375 -1.421875 33.890625 -1.421875 
Q 20.796875 -1.421875 13.15625 6.1875 
Q 5.515625 13.8125 5.515625 26.8125 
Q 5.515625 40.234375 12.765625 48.109375 
Q 20.015625 56 32.328125 56 
Q 43.359375 56 49.78125 48.890625 
Q 56.203125 41.796875 56.203125 29.59375 
z
M 47.21875 32.234375 
Q 47.125 39.59375 43.09375 43.984375 
Q 39.0625 48.390625 32.421875 48.390625 
Q 24.90625 48.390625 20.390625 44.140625 
Q 15.875 39.890625 15.1875 32.171875 
z
" id="DejaVuSans-101"/>
      <path d="M 11.71875 12.40625 
L 22.015625 12.40625 
L 22.015625 0 
L 11.71875 0 
z
M 11.71875 51.703125 
L 22.015625 51.703125 
L 22.015625 39.3125 
L 11.71875 39.3125 
z
" id="DejaVuSans-58"/>
      <path d="M 54.890625 33.015625 
L 54.890625 0 
L 45.90625 0 
L 45.90625 32.71875 
Q 45.90625 40.484375 42.875 44.328125 
Q 39.84375 48.1875 33.796875 48.1875 
Q 26.515625 48.1875 22.3125 43.546875 
Q 18.109375 38.921875 18.109375 30.90625 
L 18.109375 0 
L 9.078125 0 
L 9.078125 54.6875 
L 18.109375 54.6875 
L 18.109375 46.1875 
Q 21.34375 51.125 25.703125 53.5625 
Q 30.078125 56 35.796875 56 
Q 45.21875 56 50.046875 50.171875 
Q 54.890625 44.34375 54.890625 33.015625 
z
" id="DejaVuSans-110"/>
      <path d="M 52 44.1875 
Q 55.375 50.25 60.0625 53.125 
Q 64.75 56 71.09375 56 
Q 79.640625 56 84.28125 50.015625 
Q 88.921875 44.046875 88.921875 33.015625 
L 88.921875 0 
L 79.890625 0 
L 79.890625 32.71875 
Q 79.890625 40.578125 77.09375 44.375 
Q 74.3125 48.1875 68.609375 48.1875 
Q 61.625 48.1875 57.5625 43.546875 
Q 53.515625 38.921875 53.515625 30.90625 
L 53.515625 0 
L 44.484375 0 
L 44.484375 32.71875 
Q 44.484375 40.625 41.703125 44.40625 
Q 38.921875 48.1875 33.109375 48.1875 
Q 26.21875 48.1875 22.15625 43.53125 
Q 18.109375 38.875 18.109375 30.90625 
L 18.109375 0 
L 9.078125 0 
L 9.078125 54.6875 
L 18.109375 54.6875 
L 18.109375 46.1875 
Q 21.1875 51.21875 25.484375 53.609375 
Q 29.78125 56 35.6875 56 
Q 41.65625 56 45.828125 52.96875 
Q 50 49.953125 52 44.1875 
z
" id="DejaVuSans-109"/>
      <path d="M 9.421875 54.6875 
L 18.40625 54.6875 
L 18.40625 0 
L 9.421875 0 
z
M 9.421875 75.984375 
L 18.40625 75.984375 
L 18.40625 64.59375 
L 9.421875 64.59375 
z
" id="DejaVuSans-105"/>
     </defs>
     <use xlink:href="#DejaVuSans-68"/>
     <use x="77.001953" xlink:href="#DejaVuSans-97"/>
     <use x="138.28125" xlink:href="#DejaVuSans-116"/>
     <use x="177.490234" xlink:href="#DejaVuSans-97"/>
     <use x="238.769531" xlink:href="#DejaVuSans-32"/>
     <use x="270.556641" xlink:href="#DejaVuSans-115"/>
     <use x="322.65625" xlink:href="#DejaVuSans-111"/>
     <use x="383.837891" xlink:href="#DejaVuSans-117"/>
     <use x="447.216797" xlink:href="#DejaVuSans-114"/>
     <use x="486.080078" xlink:href="#DejaVuSans-99"/>
     <use x="541.060547" xlink:href="#DejaVuSans-101"/>
     <use x="602.583984" xlink:href="#DejaVuSans-58"/>
     <use x="636.275391" xlink:href="#DejaVuSans-32"/>
     <use x="668.0625" xlink:href="#DejaVuSans-110"/>
     <use x="731.441406" xlink:href="#DejaVuSans-111"/>
     <use x="792.623047" xlink:href="#DejaVuSans-109"/>
     <use x="890.035156" xlink:href="#DejaVuSans-105"/>
     <use x="917.818359" xlink:href="#DejaVuSans-99"/>
     <use x="972.798828" xlink:href="#DejaVuSans-115"/>
    </g>
   </g>
   <g id="legend_1">
    <g id="patch_7">
     <path d="M 64.6 64.150125 
L 112.846875 64.150125 
Q 114.846875 64.150125 114.846875 62.150125 
L 114.846875 48.472 
Q 114.846875 46.472 112.846875 46.472 
L 64.6 46.472 
Q 62.6 46.472 62.6 48.472 
L 62.6 62.150125 
Q 62.6 64.150125 64.6 64.150125 
z
" style="fill:#ffffff;opacity:0.8;stroke:#cccccc;stroke-linejoin:miter;"/>
    </g>
    <g id="line2d_14">
     <path d="M 66.6 54.570438 
L 86.6 54.570438 
" style="fill:none;stroke:#ff6347;stroke-linecap:square;stroke-width:1.5;"/>
    </g>
    <g id="line2d_15"/>
    <g id="text_14">
     <!-- RSI -->
     <g transform="translate(94.6 58.070438)scale(0.1 -0.1)">
      <defs>
       <path d="M 44.390625 34.1875 
Q 47.5625 33.109375 50.5625 29.59375 
Q 53.5625 26.078125 56.59375 19.921875 
L 66.609375 0 
L 56 0 
L 46.6875 18.703125 
Q 43.0625 26.03125 39.671875 28.421875 
Q 36.28125 30.8125 30.421875 30.8125 
L 19.671875 30.8125 
L 19.671875 0 
L 9.8125 0 
L 9.8125 72.90625 
L 32.078125 72.90625 
Q 44.578125 72.90625 50.734375 67.671875 
Q 56.890625 62.453125 56.890625 51.90625 
Q 56.890625 45.015625 53.6875 40.46875 
Q 50.484375 35.9375 44.390625 34.1875 
z
M 19.671875 64.796875 
L 19.671875 38.921875 
L 32.078125 38.921875 
Q 39.203125 38.921875 42.84375 42.21875 
Q 46.484375 45.515625 46.484375 51.90625 
Q 46.484375 58.296875 42.84375 61.546875 
Q 39.203125 64.796875 32.078125 64.796875 
z
" id="DejaVuSans-82"/>
       <path d="M 53.515625 70.515625 
L 53.515625 60.890625 
Q 47.90625 63.578125 42.921875 64.890625 
Q 37.9375 66.21875 33.296875 66.21875 
Q 25.25 66.21875 20.875 63.09375 
Q 16.5 59.96875 16.5 54.203125 
Q 16.5 49.359375 19.40625 46.890625 
Q 22.3125 44.4375 30.421875 42.921875 
L 36.375 41.703125 
Q 47.40625 39.59375 52.65625 34.296875 
Q 57.90625 29 57.90625 20.125 
Q 57.90625 9.515625 50.796875 4.046875 
Q 43.703125 -1.421875 29.984375 -1.421875 
Q 24.8125 -1.421875 18.96875 -0.25 
Q 13.140625 0.921875 6.890625 3.21875 
L 6.890625 13.375 
Q 12.890625 10.015625 18.65625 8.296875 
Q 24.421875 6.59375 29.984375 6.59375 
Q 38.421875 6.59375 43.015625 9.90625 
Q 47.609375 13.234375 47.609375 19.390625 
Q 47.609375 24.75 44.3125 27.78125 
Q 41.015625 30.8125 33.5 32.328125 
L 27.484375 33.5 
Q 16.453125 35.6875 11.515625 40.375 
Q 6.59375 45.0625 6.59375 53.421875 
Q 6.59375 63.09375 13.40625 68.65625 
Q 20.21875 74.21875 32.171875 74.21875 
Q 37.3125 74.21875 42.625 73.28125 
Q 47.953125 72.359375 53.515625 70.515625 
z
" id="DejaVuSans-83"/>
       <path d="M 9.8125 72.90625 
L 19.671875 72.90625 
L 19.671875 0 
L 9.8125 0 
z
" id="DejaVuSans-73"/>
      </defs>
      <use xlink:href="#DejaVuSans-82"/>
      <use x="69.482422" xlink:href="#DejaVuSans-83"/>
      <use x="132.958984" xlink:href="#DejaVuSans-73"/>
     </g>
    </g>
   </g>
  </g>
  <g id="text_15">
   <!-- RSI -->
   <g transform="translate(217.4025 19.0695)scale(0.16 -0.16)">
    <use xlink:href="#DejaVuSans-82"/>
    <use x="69.482422" xlink:href="#DejaVuSans-83"/>
    <use x="132.958984" xlink:href="#DejaVuSans-73"/>
   </g>
  </g>
 </g>
 <defs>
  <clipPath id="pa53d0bf39c">
   <rect height="266.112" width="357.12" x="57.6" y="41.472"/>
  </clipPath>
 </defs>
</svg>
