<?xml version="1.0" encoding="utf-8" standalone="no"?>
<!DOCTYPE svg PUBLIC "-//W3C//DTD SVG 1.1//EN"
  "http://www.w3.org/Graphics/SVG/1.1/DTD/svg11.dtd">
<!-- Created with matplotlib (https://matplotlib.org/) -->
<svg height="345.6pt" version="1.1" viewBox="0 0 460.8 345.6" width="460.8pt" xmlns="http://www.w3.org/2000/svg" xmlns:xlink="http://www.w3.org/1999/xlink">
 <metadata>
  <rdf:RDF xmlns:cc="http://creativecommons.org/ns#" xmlns:dc="http://purl.org/dc/elements/1.1/" xmlns:rdf="http://www.w3.org/1999/02/22-rdf-syntax-ns#">
   <cc:Work>
    <dc:type rdf:resource="http://purl.org/dc/dcmitype/StillImage"/>
    <dc:date>2021-04-18T07:36:09.215957</dc:date>
    <dc:format>image/svg+xml</dc:format>
    <dc:creator>
     <cc:Agent>
      <dc:title>Matplotlib v3.3.2, https://matplotlib.org/</dc:title>
     </cc:Agent>
    </dc:creator>
   </cc:Work>
  </rdf:RDF>
 </metadata>
 <defs>
  <style type="text/css">*{stroke-linecap:butt;stroke-linejoin:round;}</style>
 </defs>
 <g id="figure_1">
  <g id="patch_1">
   <path d="M 0 345.6 
L 460.8 345.6 
L 460.8 0 
L 0 0 
z
" style="fill:#ffffff;"/>
  </g>
  <g id="axes_1">
   <g id="patch_2">
    <path d="M 57.6 307.584 
L 414.72 307.584 
L 414.72 41.472 
L 57.6 41.472 
z
" style="fill:#ffffff;"/>
   </g>
   <g id="PolyCollection_1">
    <defs>
     <path d="M 73.832727 -219.118501 
L 73.832727 -115.631357 
L 74.522015 -115.631357 
L 75.211303 -115.631357 
L 75.900591 -115.631357 
L 76.589878 -115.631357 
L 77.279166 -115.631357 
L 77.968454 -115.631357 
L 78.657742 -115.631357 
L 79.34703 -115.631357 
L 80.036317 -115.631357 
L 80.725605 -115.631357 
L 81.414893 -115.631357 
L 82.104181 -115.631357 
L 82.793468 -115.631357 
L 83.482756 -115.631357 
L 84.172044 -115.631357 
L 84.861332 -115.631357 
L 85.55062 -115.631357 
L 86.239907 -115.631357 
L 86.929195 -115.631357 
L 87.618483 -115.631357 
L 88.307771 -115.631357 
L 88.997058 -115.631357 
L 89.686346 -115.631357 
L 90.375634 -115.631357 
L 91.064922 -115.631357 
L 91.75421 -115.631357 
L 92.443497 -115.631357 
L 93.132785 -115.631357 
L 93.822073 -115.631357 
L 94.511361 -115.631357 
L 95.200649 -115.631357 
L 95.889936 -115.631357 
L 96.579224 -115.631357 
L 97.268512 -115.631357 
L 97.9578 -115.631357 
L 98.647087 -115.631357 
L 99.336375 -115.631357 
L 100.025663 -115.631357 
L 100.714951 -115.631357 
L 101.404239 -115.631357 
L 102.093526 -115.631357 
L 102.782814 -115.631357 
L 103.472102 -115.631357 
L 104.16139 -115.631357 
L 104.850677 -115.631357 
L 105.539965 -115.631357 
L 106.229253 -115.631357 
L 106.918541 -115.631357 
L 107.607829 -115.631357 
L 108.297116 -115.631357 
L 108.986404 -115.631357 
L 109.675692 -115.631357 
L 110.36498 -115.631357 
L 111.054268 -115.631357 
L 111.743555 -115.631357 
L 112.432843 -115.631357 
L 113.122131 -115.631357 
L 113.811419 -115.631357 
L 114.500706 -115.631357 
L 115.189994 -115.631357 
L 115.879282 -115.631357 
L 116.56857 -115.631357 
L 117.257858 -115.631357 
L 117.947145 -115.631357 
L 118.636433 -115.631357 
L 119.325721 -115.631357 
L 120.015009 -115.631357 
L 120.704296 -115.631357 
L 121.393584 -115.631357 
L 122.082872 -115.631357 
L 122.77216 -115.631357 
L 123.461448 -115.631357 
L 124.150735 -115.631357 
L 124.840023 -115.631357 
L 125.529311 -115.631357 
L 126.218599 -115.631357 
L 126.907887 -115.631357 
L 127.597174 -115.631357 
L 128.286462 -115.631357 
L 128.97575 -115.631357 
L 129.665038 -115.631357 
L 130.354325 -115.631357 
L 131.043613 -115.631357 
L 131.732901 -115.631357 
L 132.422189 -115.631357 
L 133.111477 -115.631357 
L 133.800764 -115.631357 
L 134.490052 -115.631357 
L 135.17934 -115.631357 
L 135.868628 -115.631357 
L 136.557915 -115.631357 
L 137.247203 -115.631357 
L 137.936491 -115.631357 
L 138.625779 -115.631357 
L 139.315067 -115.631357 
L 140.004354 -115.631357 
L 140.693642 -115.631357 
L 141.38293 -115.631357 
L 142.072218 -115.631357 
L 142.761506 -115.631357 
L 143.450793 -115.631357 
L 144.140081 -115.631357 
L 144.829369 -115.631357 
L 145.518657 -115.631357 
L 146.207944 -115.631357 
L 146.897232 -115.631357 
L 147.58652 -115.631357 
L 148.275808 -115.631357 
L 148.965096 -115.631357 
L 149.654383 -115.631357 
L 150.343671 -115.631357 
L 151.032959 -115.631357 
L 151.722247 -115.631357 
L 152.411534 -115.631357 
L 153.100822 -115.631357 
L 153.79011 -115.631357 
L 154.479398 -115.631357 
L 155.168686 -115.631357 
L 155.857973 -115.631357 
L 156.547261 -115.631357 
L 157.236549 -115.631357 
L 157.925837 -115.631357 
L 158.615124 -115.631357 
L 159.304412 -115.631357 
L 159.9937 -115.631357 
L 160.682988 -115.631357 
L 161.372276 -115.631357 
L 162.061563 -115.631357 
L 162.750851 -115.631357 
L 163.440139 -115.631357 
L 164.129427 -115.631357 
L 164.818715 -115.631357 
L 165.508002 -115.631357 
L 166.19729 -115.631357 
L 166.886578 -115.631357 
L 167.575866 -115.631357 
L 168.265153 -115.631357 
L 168.954441 -115.631357 
L 169.643729 -115.631357 
L 170.333017 -115.631357 
L 171.022305 -115.631357 
L 171.711592 -115.631357 
L 172.40088 -115.631357 
L 173.090168 -115.631357 
L 173.779456 -115.631357 
L 174.468743 -115.631357 
L 175.158031 -115.631357 
L 175.847319 -115.631357 
L 176.536607 -115.631357 
L 177.225895 -115.631357 
L 177.915182 -115.631357 
L 178.60447 -115.631357 
L 179.293758 -115.631357 
L 179.983046 -115.631357 
L 180.672334 -115.631357 
L 181.361621 -115.631357 
L 182.050909 -115.631357 
L 182.740197 -115.631357 
L 183.429485 -115.631357 
L 184.118772 -115.631357 
L 184.80806 -115.631357 
L 185.497348 -115.631357 
L 186.186636 -115.631357 
L 186.875924 -115.631357 
L 187.565211 -115.631357 
L 188.254499 -115.631357 
L 188.943787 -115.631357 
L 189.633075 -115.631357 
L 190.322362 -115.631357 
L 191.01165 -115.631357 
L 191.700938 -115.631357 
L 192.390226 -115.631357 
L 193.079514 -115.631357 
L 193.768801 -115.631357 
L 194.458089 -115.631357 
L 195.147377 -115.631357 
L 195.836665 -115.631357 
L 196.525953 -115.631357 
L 197.21524 -115.631357 
L 197.904528 -115.631357 
L 198.593816 -115.631357 
L 199.283104 -115.631357 
L 199.972391 -115.631357 
L 200.661679 -115.631357 
L 201.350967 -115.631357 
L 202.040255 -115.631357 
L 202.729543 -115.631357 
L 203.41883 -115.631357 
L 204.108118 -115.631357 
L 204.797406 -115.631357 
L 205.486694 -115.631357 
L 206.175981 -115.631357 
L 206.865269 -115.631357 
L 207.554557 -115.631357 
L 208.243845 -115.631357 
L 208.933133 -115.631357 
L 209.62242 -115.631357 
L 210.311708 -115.631357 
L 211.000996 -115.631357 
L 211.690284 -115.631357 
L 212.379572 -115.631357 
L 213.068859 -115.631357 
L 213.758147 -115.631357 
L 214.447435 -115.631357 
L 215.136723 -115.631357 
L 215.82601 -115.631357 
L 216.515298 -115.631357 
L 217.204586 -115.631357 
L 217.893874 -115.631357 
L 218.583162 -115.631357 
L 219.272449 -115.631357 
L 219.961737 -115.631357 
L 220.651025 -115.631357 
L 221.340313 -115.631357 
L 222.0296 -115.631357 
L 222.718888 -115.631357 
L 223.408176 -115.631357 
L 224.097464 -115.631357 
L 224.786752 -115.631357 
L 225.476039 -115.631357 
L 226.165327 -115.631357 
L 226.854615 -115.631357 
L 227.543903 -115.631357 
L 228.233191 -115.631357 
L 228.922478 -115.631357 
L 229.611766 -115.631357 
L 230.301054 -115.631357 
L 230.990342 -115.631357 
L 231.679629 -115.631357 
L 232.368917 -115.631357 
L 233.058205 -115.631357 
L 233.747493 -115.631357 
L 234.436781 -115.631357 
L 235.126068 -115.631357 
L 235.815356 -115.631357 
L 236.504644 -115.631357 
L 237.193932 -115.631357 
L 237.883219 -115.631357 
L 238.572507 -115.631357 
L 239.261795 -115.631357 
L 239.951083 -115.631357 
L 240.640371 -115.631357 
L 241.329658 -115.631357 
L 242.018946 -115.631357 
L 242.708234 -115.631357 
L 243.397522 -115.631357 
L 244.086809 -115.631357 
L 244.776097 -115.631357 
L 245.465385 -115.631357 
L 246.154673 -115.631357 
L 246.843961 -115.631357 
L 247.533248 -115.631357 
L 248.222536 -115.631357 
L 248.911824 -115.631357 
L 249.601112 -115.631357 
L 250.2904 -115.631357 
L 250.979687 -115.631357 
L 251.668975 -115.631357 
L 252.358263 -115.631357 
L 253.047551 -115.631357 
L 253.736838 -115.631357 
L 254.426126 -115.631357 
L 255.115414 -115.631357 
L 255.804702 -115.631357 
L 256.49399 -115.631357 
L 257.183277 -115.631357 
L 257.872565 -115.631357 
L 258.561853 -115.631357 
L 259.251141 -115.631357 
L 259.940428 -115.631357 
L 260.629716 -115.631357 
L 261.319004 -115.631357 
L 262.008292 -115.631357 
L 262.69758 -115.631357 
L 263.386867 -115.631357 
L 264.076155 -115.631357 
L 264.765443 -115.631357 
L 265.454731 -115.631357 
L 266.144019 -115.631357 
L 266.833306 -115.631357 
L 267.522594 -115.631357 
L 268.211882 -115.631357 
L 268.90117 -115.631357 
L 269.590457 -115.631357 
L 270.279745 -115.631357 
L 270.969033 -115.631357 
L 271.658321 -115.631357 
L 272.347609 -115.631357 
L 273.036896 -115.631357 
L 273.726184 -115.631357 
L 274.415472 -115.631357 
L 275.10476 -115.631357 
L 275.794047 -115.631357 
L 276.483335 -115.631357 
L 277.172623 -115.631357 
L 277.861911 -115.631357 
L 278.551199 -115.631357 
L 279.240486 -115.631357 
L 279.929774 -115.631357 
L 280.619062 -115.631357 
L 281.30835 -115.631357 
L 281.997638 -115.631357 
L 282.686925 -115.631357 
L 283.376213 -115.631357 
L 284.065501 -115.631357 
L 284.754789 -115.631357 
L 285.444076 -115.631357 
L 286.133364 -115.631357 
L 286.822652 -115.631357 
L 287.51194 -115.631357 
L 288.201228 -115.631357 
L 288.890515 -115.631357 
L 289.579803 -115.631357 
L 290.269091 -115.631357 
L 290.958379 -115.631357 
L 291.647666 -115.631357 
L 292.336954 -115.631357 
L 293.026242 -115.631357 
L 293.71553 -115.631357 
L 294.404818 -115.631357 
L 295.094105 -115.631357 
L 295.783393 -115.631357 
L 296.472681 -115.631357 
L 297.161969 -115.631357 
L 297.851257 -115.631357 
L 298.540544 -115.631357 
L 299.229832 -115.631357 
L 299.91912 -115.631357 
L 300.608408 -115.631357 
L 301.297695 -115.631357 
L 301.986983 -115.631357 
L 302.676271 -115.631357 
L 303.365559 -115.631357 
L 304.054847 -115.631357 
L 304.744134 -115.631357 
L 305.433422 -115.631357 
L 306.12271 -115.631357 
L 306.811998 -115.631357 
L 307.501285 -115.631357 
L 308.190573 -115.631357 
L 308.879861 -115.631357 
L 309.569149 -115.631357 
L 310.258437 -115.631357 
L 310.947724 -115.631357 
L 311.637012 -115.631357 
L 312.3263 -115.631357 
L 313.015588 -115.631357 
L 313.704876 -115.631357 
L 314.394163 -115.631357 
L 315.083451 -115.631357 
L 315.772739 -115.631357 
L 316.462027 -115.631357 
L 317.151314 -115.631357 
L 317.840602 -115.631357 
L 318.52989 -115.631357 
L 319.219178 -115.631357 
L 319.908466 -115.631357 
L 320.597753 -115.631357 
L 321.287041 -115.631357 
L 321.976329 -115.631357 
L 322.665617 -115.631357 
L 323.354904 -115.631357 
L 324.044192 -115.631357 
L 324.73348 -115.631357 
L 325.422768 -115.631357 
L 326.112056 -115.631357 
L 326.801343 -115.631357 
L 327.490631 -115.631357 
L 328.179919 -115.631357 
L 328.869207 -115.631357 
L 329.558494 -115.631357 
L 330.247782 -115.631357 
L 330.93707 -115.631357 
L 331.626358 -115.631357 
L 332.315646 -115.631357 
L 333.004933 -115.631357 
L 333.694221 -115.631357 
L 334.383509 -115.631357 
L 335.072797 -115.631357 
L 335.762085 -115.631357 
L 336.451372 -115.631357 
L 337.14066 -115.631357 
L 337.829948 -115.631357 
L 338.519236 -115.631357 
L 339.208523 -115.631357 
L 339.897811 -115.631357 
L 340.587099 -115.631357 
L 341.276387 -115.631357 
L 341.965675 -115.631357 
L 342.654962 -115.631357 
L 343.34425 -115.631357 
L 344.033538 -115.631357 
L 344.722826 -115.631357 
L 345.412113 -115.631357 
L 346.101401 -115.631357 
L 346.790689 -115.631357 
L 347.479977 -115.631357 
L 348.169265 -115.631357 
L 348.858552 -115.631357 
L 349.54784 -115.631357 
L 350.237128 -115.631357 
L 350.926416 -115.631357 
L 351.615704 -115.631357 
L 352.304991 -115.631357 
L 352.994279 -115.631357 
L 353.683567 -115.631357 
L 354.372855 -115.631357 
L 355.062142 -115.631357 
L 355.75143 -115.631357 
L 356.440718 -115.631357 
L 357.130006 -115.631357 
L 357.819294 -115.631357 
L 358.508581 -115.631357 
L 359.197869 -115.631357 
L 359.887157 -115.631357 
L 360.576445 -115.631357 
L 361.265732 -115.631357 
L 361.95502 -115.631357 
L 362.644308 -115.631357 
L 363.333596 -115.631357 
L 364.022884 -115.631357 
L 364.712171 -115.631357 
L 365.401459 -115.631357 
L 366.090747 -115.631357 
L 366.780035 -115.631357 
L 367.469323 -115.631357 
L 368.15861 -115.631357 
L 368.847898 -115.631357 
L 369.537186 -115.631357 
L 370.226474 -115.631357 
L 370.915761 -115.631357 
L 371.605049 -115.631357 
L 372.294337 -115.631357 
L 372.983625 -115.631357 
L 373.672913 -115.631357 
L 374.3622 -115.631357 
L 375.051488 -115.631357 
L 375.740776 -115.631357 
L 376.430064 -115.631357 
L 377.119351 -115.631357 
L 377.808639 -115.631357 
L 378.497927 -115.631357 
L 379.187215 -115.631357 
L 379.876503 -115.631357 
L 380.56579 -115.631357 
L 381.255078 -115.631357 
L 381.944366 -115.631357 
L 382.633654 -115.631357 
L 383.322942 -115.631357 
L 384.012229 -115.631357 
L 384.701517 -115.631357 
L 385.390805 -115.631357 
L 386.080093 -115.631357 
L 386.76938 -115.631357 
L 387.458668 -115.631357 
L 388.147956 -115.631357 
L 388.837244 -115.631357 
L 389.526532 -115.631357 
L 390.215819 -115.631357 
L 390.905107 -115.631357 
L 391.594395 -115.631357 
L 392.283683 -115.631357 
L 392.97297 -115.631357 
L 393.662258 -115.631357 
L 394.351546 -115.631357 
L 395.040834 -115.631357 
L 395.730122 -115.631357 
L 396.419409 -115.631357 
L 397.108697 -115.631357 
L 397.797985 -115.631357 
L 398.487273 -115.631357 
L 398.487273 -219.118501 
L 398.487273 -219.118501 
L 397.797985 -219.118501 
L 397.108697 -219.118501 
L 396.419409 -219.118501 
L 395.730122 -219.118501 
L 395.040834 -219.118501 
L 394.351546 -219.118501 
L 393.662258 -219.118501 
L 392.97297 -219.118501 
L 392.283683 -219.118501 
L 391.594395 -219.118501 
L 390.905107 -219.118501 
L 390.215819 -219.118501 
L 389.526532 -219.118501 
L 388.837244 -219.118501 
L 388.147956 -219.118501 
L 387.458668 -219.118501 
L 386.76938 -219.118501 
L 386.080093 -219.118501 
L 385.390805 -219.118501 
L 384.701517 -219.118501 
L 384.012229 -219.118501 
L 383.322942 -219.118501 
L 382.633654 -219.118501 
L 381.944366 -219.118501 
L 381.255078 -219.118501 
L 380.56579 -219.118501 
L 379.876503 -219.118501 
L 379.187215 -219.118501 
L 378.497927 -219.118501 
L 377.808639 -219.118501 
L 377.119351 -219.118501 
L 376.430064 -219.118501 
L 375.740776 -219.118501 
L 375.051488 -219.118501 
L 374.3622 -219.118501 
L 373.672913 -219.118501 
L 372.983625 -219.118501 
L 372.294337 -219.118501 
L 371.605049 -219.118501 
L 370.915761 -219.118501 
L 370.226474 -219.118501 
L 369.537186 -219.118501 
L 368.847898 -219.118501 
L 368.15861 -219.118501 
L 367.469323 -219.118501 
L 366.780035 -219.118501 
L 366.090747 -219.118501 
L 365.401459 -219.118501 
L 364.712171 -219.118501 
L 364.022884 -219.118501 
L 363.333596 -219.118501 
L 362.644308 -219.118501 
L 361.95502 -219.118501 
L 361.265732 -219.118501 
L 360.576445 -219.118501 
L 359.887157 -219.118501 
L 359.197869 -219.118501 
L 358.508581 -219.118501 
L 357.819294 -219.118501 
L 357.130006 -219.118501 
L 356.440718 -219.118501 
L 355.75143 -219.118501 
L 355.062142 -219.118501 
L 354.372855 -219.118501 
L 353.683567 -219.118501 
L 352.994279 -219.118501 
L 352.304991 -219.118501 
L 351.615704 -219.118501 
L 350.926416 -219.118501 
L 350.237128 -219.118501 
L 349.54784 -219.118501 
L 348.858552 -219.118501 
L 348.169265 -219.118501 
L 347.479977 -219.118501 
L 346.790689 -219.118501 
L 346.101401 -219.118501 
L 345.412113 -219.118501 
L 344.722826 -219.118501 
L 344.033538 -219.118501 
L 343.34425 -219.118501 
L 342.654962 -219.118501 
L 341.965675 -219.118501 
L 341.276387 -219.118501 
L 340.587099 -219.118501 
L 339.897811 -219.118501 
L 339.208523 -219.118501 
L 338.519236 -219.118501 
L 337.829948 -219.118501 
L 337.14066 -219.118501 
L 336.451372 -219.118501 
L 335.762085 -219.118501 
L 335.072797 -219.118501 
L 334.383509 -219.118501 
L 333.694221 -219.118501 
L 333.004933 -219.118501 
L 332.315646 -219.118501 
L 331.626358 -219.118501 
L 330.93707 -219.118501 
L 330.247782 -219.118501 
L 329.558494 -219.118501 
L 328.869207 -219.118501 
L 328.179919 -219.118501 
L 327.490631 -219.118501 
L 326.801343 -219.118501 
L 326.112056 -219.118501 
L 325.422768 -219.118501 
L 324.73348 -219.118501 
L 324.044192 -219.118501 
L 323.354904 -219.118501 
L 322.665617 -219.118501 
L 321.976329 -219.118501 
L 321.287041 -219.118501 
L 320.597753 -219.118501 
L 319.908466 -219.118501 
L 319.219178 -219.118501 
L 318.52989 -219.118501 
L 317.840602 -219.118501 
L 317.151314 -219.118501 
L 316.462027 -219.118501 
L 315.772739 -219.118501 
L 315.083451 -219.118501 
L 314.394163 -219.118501 
L 313.704876 -219.118501 
L 313.015588 -219.118501 
L 312.3263 -219.118501 
L 311.637012 -219.118501 
L 310.947724 -219.118501 
L 310.258437 -219.118501 
L 309.569149 -219.118501 
L 308.879861 -219.118501 
L 308.190573 -219.118501 
L 307.501285 -219.118501 
L 306.811998 -219.118501 
L 306.12271 -219.118501 
L 305.433422 -219.118501 
L 304.744134 -219.118501 
L 304.054847 -219.118501 
L 303.365559 -219.118501 
L 302.676271 -219.118501 
L 301.986983 -219.118501 
L 301.297695 -219.118501 
L 300.608408 -219.118501 
L 299.91912 -219.118501 
L 299.229832 -219.118501 
L 298.540544 -219.118501 
L 297.851257 -219.118501 
L 297.161969 -219.118501 
L 296.472681 -219.118501 
L 295.783393 -219.118501 
L 295.094105 -219.118501 
L 294.404818 -219.118501 
L 293.71553 -219.118501 
L 293.026242 -219.118501 
L 292.336954 -219.118501 
L 291.647666 -219.118501 
L 290.958379 -219.118501 
L 290.269091 -219.118501 
L 289.579803 -219.118501 
L 288.890515 -219.118501 
L 288.201228 -219.118501 
L 287.51194 -219.118501 
L 286.822652 -219.118501 
L 286.133364 -219.118501 
L 285.444076 -219.118501 
L 284.754789 -219.118501 
L 284.065501 -219.118501 
L 283.376213 -219.118501 
L 282.686925 -219.118501 
L 281.997638 -219.118501 
L 281.30835 -219.118501 
L 280.619062 -219.118501 
L 279.929774 -219.118501 
L 279.240486 -219.118501 
L 278.551199 -219.118501 
L 277.861911 -219.118501 
L 277.172623 -219.118501 
L 276.483335 -219.118501 
L 275.794047 -219.118501 
L 275.10476 -219.118501 
L 274.415472 -219.118501 
L 273.726184 -219.118501 
L 273.036896 -219.118501 
L 272.347609 -219.118501 
L 271.658321 -219.118501 
L 270.969033 -219.118501 
L 270.279745 -219.118501 
L 269.590457 -219.118501 
L 268.90117 -219.118501 
L 268.211882 -219.118501 
L 267.522594 -219.118501 
L 266.833306 -219.118501 
L 266.144019 -219.118501 
L 265.454731 -219.118501 
L 264.765443 -219.118501 
L 264.076155 -219.118501 
L 263.386867 -219.118501 
L 262.69758 -219.118501 
L 262.008292 -219.118501 
L 261.319004 -219.118501 
L 260.629716 -219.118501 
L 259.940428 -219.118501 
L 259.251141 -219.118501 
L 258.561853 -219.118501 
L 257.872565 -219.118501 
L 257.183277 -219.118501 
L 256.49399 -219.118501 
L 255.804702 -219.118501 
L 255.115414 -219.118501 
L 254.426126 -219.118501 
L 253.736838 -219.118501 
L 253.047551 -219.118501 
L 252.358263 -219.118501 
L 251.668975 -219.118501 
L 250.979687 -219.118501 
L 250.2904 -219.118501 
L 249.601112 -219.118501 
L 248.911824 -219.118501 
L 248.222536 -219.118501 
L 247.533248 -219.118501 
L 246.843961 -219.118501 
L 246.154673 -219.118501 
L 245.465385 -219.118501 
L 244.776097 -219.118501 
L 244.086809 -219.118501 
L 243.397522 -219.118501 
L 242.708234 -219.118501 
L 242.018946 -219.118501 
L 241.329658 -219.118501 
L 240.640371 -219.118501 
L 239.951083 -219.118501 
L 239.261795 -219.118501 
L 238.572507 -219.118501 
L 237.883219 -219.118501 
L 237.193932 -219.118501 
L 236.504644 -219.118501 
L 235.815356 -219.118501 
L 235.126068 -219.118501 
L 234.436781 -219.118501 
L 233.747493 -219.118501 
L 233.058205 -219.118501 
L 232.368917 -219.118501 
L 231.679629 -219.118501 
L 230.990342 -219.118501 
L 230.301054 -219.118501 
L 229.611766 -219.118501 
L 228.922478 -219.118501 
L 228.233191 -219.118501 
L 227.543903 -219.118501 
L 226.854615 -219.118501 
L 226.165327 -219.118501 
L 225.476039 -219.118501 
L 224.786752 -219.118501 
L 224.097464 -219.118501 
L 223.408176 -219.118501 
L 222.718888 -219.118501 
L 222.0296 -219.118501 
L 221.340313 -219.118501 
L 220.651025 -219.118501 
L 219.961737 -219.118501 
L 219.272449 -219.118501 
L 218.583162 -219.118501 
L 217.893874 -219.118501 
L 217.204586 -219.118501 
L 216.515298 -219.118501 
L 215.82601 -219.118501 
L 215.136723 -219.118501 
L 214.447435 -219.118501 
L 213.758147 -219.118501 
L 213.068859 -219.118501 
L 212.379572 -219.118501 
L 211.690284 -219.118501 
L 211.000996 -219.118501 
L 210.311708 -219.118501 
L 209.62242 -219.118501 
L 208.933133 -219.118501 
L 208.243845 -219.118501 
L 207.554557 -219.118501 
L 206.865269 -219.118501 
L 206.175981 -219.118501 
L 205.486694 -219.118501 
L 204.797406 -219.118501 
L 204.108118 -219.118501 
L 203.41883 -219.118501 
L 202.729543 -219.118501 
L 202.040255 -219.118501 
L 201.350967 -219.118501 
L 200.661679 -219.118501 
L 199.972391 -219.118501 
L 199.283104 -219.118501 
L 198.593816 -219.118501 
L 197.904528 -219.118501 
L 197.21524 -219.118501 
L 196.525953 -219.118501 
L 195.836665 -219.118501 
L 195.147377 -219.118501 
L 194.458089 -219.118501 
L 193.768801 -219.118501 
L 193.079514 -219.118501 
L 192.390226 -219.118501 
L 191.700938 -219.118501 
L 191.01165 -219.118501 
L 190.322362 -219.118501 
L 189.633075 -219.118501 
L 188.943787 -219.118501 
L 188.254499 -219.118501 
L 187.565211 -219.118501 
L 186.875924 -219.118501 
L 186.186636 -219.118501 
L 185.497348 -219.118501 
L 184.80806 -219.118501 
L 184.118772 -219.118501 
L 183.429485 -219.118501 
L 182.740197 -219.118501 
L 182.050909 -219.118501 
L 181.361621 -219.118501 
L 180.672334 -219.118501 
L 179.983046 -219.118501 
L 179.293758 -219.118501 
L 178.60447 -219.118501 
L 177.915182 -219.118501 
L 177.225895 -219.118501 
L 176.536607 -219.118501 
L 175.847319 -219.118501 
L 175.158031 -219.118501 
L 174.468743 -219.118501 
L 173.779456 -219.118501 
L 173.090168 -219.118501 
L 172.40088 -219.118501 
L 171.711592 -219.118501 
L 171.022305 -219.118501 
L 170.333017 -219.118501 
L 169.643729 -219.118501 
L 168.954441 -219.118501 
L 168.265153 -219.118501 
L 167.575866 -219.118501 
L 166.886578 -219.118501 
L 166.19729 -219.118501 
L 165.508002 -219.118501 
L 164.818715 -219.118501 
L 164.129427 -219.118501 
L 163.440139 -219.118501 
L 162.750851 -219.118501 
L 162.061563 -219.118501 
L 161.372276 -219.118501 
L 160.682988 -219.118501 
L 159.9937 -219.118501 
L 159.304412 -219.118501 
L 158.615124 -219.118501 
L 157.925837 -219.118501 
L 157.236549 -219.118501 
L 156.547261 -219.118501 
L 155.857973 -219.118501 
L 155.168686 -219.118501 
L 154.479398 -219.118501 
L 153.79011 -219.118501 
L 153.100822 -219.118501 
L 152.411534 -219.118501 
L 151.722247 -219.118501 
L 151.032959 -219.118501 
L 150.343671 -219.118501 
L 149.654383 -219.118501 
L 148.965096 -219.118501 
L 148.275808 -219.118501 
L 147.58652 -219.118501 
L 146.897232 -219.118501 
L 146.207944 -219.118501 
L 145.518657 -219.118501 
L 144.829369 -219.118501 
L 144.140081 -219.118501 
L 143.450793 -219.118501 
L 142.761506 -219.118501 
L 142.072218 -219.118501 
L 141.38293 -219.118501 
L 140.693642 -219.118501 
L 140.004354 -219.118501 
L 139.315067 -219.118501 
L 138.625779 -219.118501 
L 137.936491 -219.118501 
L 137.247203 -219.118501 
L 136.557915 -219.118501 
L 135.868628 -219.118501 
L 135.17934 -219.118501 
L 134.490052 -219.118501 
L 133.800764 -219.118501 
L 133.111477 -219.118501 
L 132.422189 -219.118501 
L 131.732901 -219.118501 
L 131.043613 -219.118501 
L 130.354325 -219.118501 
L 129.665038 -219.118501 
L 128.97575 -219.118501 
L 128.286462 -219.118501 
L 127.597174 -219.118501 
L 126.907887 -219.118501 
L 126.218599 -219.118501 
L 125.529311 -219.118501 
L 124.840023 -219.118501 
L 124.150735 -219.118501 
L 123.461448 -219.118501 
L 122.77216 -219.118501 
L 122.082872 -219.118501 
L 121.393584 -219.118501 
L 120.704296 -219.118501 
L 120.015009 -219.118501 
L 119.325721 -219.118501 
L 118.636433 -219.118501 
L 117.947145 -219.118501 
L 117.257858 -219.118501 
L 116.56857 -219.118501 
L 115.879282 -219.118501 
L 115.189994 -219.118501 
L 114.500706 -219.118501 
L 113.811419 -219.118501 
L 113.122131 -219.118501 
L 112.432843 -219.118501 
L 111.743555 -219.118501 
L 111.054268 -219.118501 
L 110.36498 -219.118501 
L 109.675692 -219.118501 
L 108.986404 -219.118501 
L 108.297116 -219.118501 
L 107.607829 -219.118501 
L 106.918541 -219.118501 
L 106.229253 -219.118501 
L 105.539965 -219.118501 
L 104.850677 -219.118501 
L 104.16139 -219.118501 
L 103.472102 -219.118501 
L 102.782814 -219.118501 
L 102.093526 -219.118501 
L 101.404239 -219.118501 
L 100.714951 -219.118501 
L 100.025663 -219.118501 
L 99.336375 -219.118501 
L 98.647087 -219.118501 
L 97.9578 -219.118501 
L 97.268512 -219.118501 
L 96.579224 -219.118501 
L 95.889936 -219.118501 
L 95.200649 -219.118501 
L 94.511361 -219.118501 
L 93.822073 -219.118501 
L 93.132785 -219.118501 
L 92.443497 -219.118501 
L 91.75421 -219.118501 
L 91.064922 -219.118501 
L 90.375634 -219.118501 
L 89.686346 -219.118501 
L 88.997058 -219.118501 
L 88.307771 -219.118501 
L 87.618483 -219.118501 
L 86.929195 -219.118501 
L 86.239907 -219.118501 
L 85.55062 -219.118501 
L 84.861332 -219.118501 
L 84.172044 -219.118501 
L 83.482756 -219.118501 
L 82.793468 -219.118501 
L 82.104181 -219.118501 
L 81.414893 -219.118501 
L 80.725605 -219.118501 
L 80.036317 -219.118501 
L 79.34703 -219.118501 
L 78.657742 -219.118501 
L 77.968454 -219.118501 
L 77.279166 -219.118501 
L 76.589878 -219.118501 
L 75.900591 -219.118501 
L 75.211303 -219.118501 
L 74.522015 -219.118501 
L 73.832727 -219.118501 
z
" id="m55f2f1d72b" style="stroke:#4b0082;stroke-opacity:0.3;"/>
    </defs>
    <g clip-path="url(#p712b368307)">
     <use style="fill:#4b0082;fill-opacity:0.3;stroke:#4b0082;stroke-opacity:0.3;" x="0" xlink:href="#m55f2f1d72b" y="345.6"/>
    </g>
   </g>
   <g id="matplotlib.axis_1">
    <g id="xtick_1">
     <g id="line2d_1">
      <defs>
       <path d="M 0 0 
L 0 3.5 
" id="m42d7e0a109" style="stroke:#000000;stroke-width:0.8;"/>
      </defs>
      <g>
       <use style="stroke:#000000;stroke-width:0.8;" x="73.832727" xlink:href="#m42d7e0a109" y="307.584"/>
      </g>
     </g>
     <g id="text_1">
      <!-- 2020-01 -->
      <g transform="translate(52.941321 322.182437)scale(0.1 -0.1)">
       <defs>
        <path d="M 19.1875 8.296875 
L 53.609375 8.296875 
L 53.609375 0 
L 7.328125 0 
L 7.328125 8.296875 
Q 12.9375 14.109375 22.625 23.890625 
Q 32.328125 33.6875 34.8125 36.53125 
Q 39.546875 41.84375 41.421875 45.53125 
Q 43.3125 49.21875 43.3125 52.78125 
Q 43.3125 58.59375 39.234375 62.25 
Q 35.15625 65.921875 28.609375 65.921875 
Q 23.96875 65.921875 18.8125 64.3125 
Q 13.671875 62.703125 7.8125 59.421875 
L 7.8125 69.390625 
Q 13.765625 71.78125 18.9375 73 
Q 24.125 74.21875 28.421875 74.21875 
Q 39.75 74.21875 46.484375 68.546875 
Q 53.21875 62.890625 53.21875 53.421875 
Q 53.21875 48.921875 51.53125 44.890625 
Q 49.859375 40.875 45.40625 35.40625 
Q 44.1875 33.984375 37.640625 27.21875 
Q 31.109375 20.453125 19.1875 8.296875 
z
" id="DejaVuSans-50"/>
        <path d="M 31.78125 66.40625 
Q 24.171875 66.40625 20.328125 58.90625 
Q 16.5 51.421875 16.5 36.375 
Q 16.5 21.390625 20.328125 13.890625 
Q 24.171875 6.390625 31.78125 6.390625 
Q 39.453125 6.390625 43.28125 13.890625 
Q 47.125 21.390625 47.125 36.375 
Q 47.125 51.421875 43.28125 58.90625 
Q 39.453125 66.40625 31.78125 66.40625 
z
M 31.78125 74.21875 
Q 44.046875 74.21875 50.515625 64.515625 
Q 56.984375 54.828125 56.984375 36.375 
Q 56.984375 17.96875 50.515625 8.265625 
Q 44.046875 -1.421875 31.78125 -1.421875 
Q 19.53125 -1.421875 13.0625 8.265625 
Q 6.59375 17.96875 6.59375 36.375 
Q 6.59375 54.828125 13.0625 64.515625 
Q 19.53125 74.21875 31.78125 74.21875 
z
" id="DejaVuSans-48"/>
        <path d="M 4.890625 31.390625 
L 31.203125 31.390625 
L 31.203125 23.390625 
L 4.890625 23.390625 
z
" id="DejaVuSans-45"/>
        <path d="M 12.40625 8.296875 
L 28.515625 8.296875 
L 28.515625 63.921875 
L 10.984375 60.40625 
L 10.984375 69.390625 
L 28.421875 72.90625 
L 38.28125 72.90625 
L 38.28125 8.296875 
L 54.390625 8.296875 
L 54.390625 0 
L 12.40625 0 
z
" id="DejaVuSans-49"/>
       </defs>
       <use xlink:href="#DejaVuSans-50"/>
       <use x="63.623047" xlink:href="#DejaVuSans-48"/>
       <use x="127.246094" xlink:href="#DejaVuSans-50"/>
       <use x="190.869141" xlink:href="#DejaVuSans-48"/>
       <use x="254.492188" xlink:href="#DejaVuSans-45"/>
       <use x="290.576172" xlink:href="#DejaVuSans-48"/>
       <use x="354.199219" xlink:href="#DejaVuSans-49"/>
      </g>
     </g>
    </g>
    <g id="xtick_2">
     <g id="line2d_2">
      <g>
       <use style="stroke:#000000;stroke-width:0.8;" x="115.189994" xlink:href="#m42d7e0a109" y="307.584"/>
      </g>
     </g>
     <g id="text_2">
      <!-- 2020-03 -->
      <g transform="translate(94.298588 322.182437)scale(0.1 -0.1)">
       <defs>
        <path d="M 40.578125 39.3125 
Q 47.65625 37.796875 51.625 33 
Q 55.609375 28.21875 55.609375 21.1875 
Q 55.609375 10.40625 48.1875 4.484375 
Q 40.765625 -1.421875 27.09375 -1.421875 
Q 22.515625 -1.421875 17.65625 -0.515625 
Q 12.796875 0.390625 7.625 2.203125 
L 7.625 11.71875 
Q 11.71875 9.328125 16.59375 8.109375 
Q 21.484375 6.890625 26.8125 6.890625 
Q 36.078125 6.890625 40.9375 10.546875 
Q 45.796875 14.203125 45.796875 21.1875 
Q 45.796875 27.640625 41.28125 31.265625 
Q 36.765625 34.90625 28.71875 34.90625 
L 20.21875 34.90625 
L 20.21875 43.015625 
L 29.109375 43.015625 
Q 36.375 43.015625 40.234375 45.921875 
Q 44.09375 48.828125 44.09375 54.296875 
Q 44.09375 59.90625 40.109375 62.90625 
Q 36.140625 65.921875 28.71875 65.921875 
Q 24.65625 65.921875 20.015625 65.03125 
Q 15.375 64.15625 9.8125 62.3125 
L 9.8125 71.09375 
Q 15.4375 72.65625 20.34375 73.4375 
Q 25.25 74.21875 29.59375 74.21875 
Q 40.828125 74.21875 47.359375 69.109375 
Q 53.90625 64.015625 53.90625 55.328125 
Q 53.90625 49.265625 50.4375 45.09375 
Q 46.96875 40.921875 40.578125 39.3125 
z
" id="DejaVuSans-51"/>
       </defs>
       <use xlink:href="#DejaVuSans-50"/>
       <use x="63.623047" xlink:href="#DejaVuSans-48"/>
       <use x="127.246094" xlink:href="#DejaVuSans-50"/>
       <use x="190.869141" xlink:href="#DejaVuSans-48"/>
       <use x="254.492188" xlink:href="#DejaVuSans-45"/>
       <use x="290.576172" xlink:href="#DejaVuSans-48"/>
       <use x="354.199219" xlink:href="#DejaVuSans-51"/>
      </g>
     </g>
    </g>
    <g id="xtick_3">
     <g id="line2d_3">
      <g>
       <use style="stroke:#000000;stroke-width:0.8;" x="157.236549" xlink:href="#m42d7e0a109" y="307.584"/>
      </g>
     </g>
     <g id="text_3">
      <!-- 2020-05 -->
      <g transform="translate(136.345143 322.182437)scale(0.1 -0.1)">
       <defs>
        <path d="M 10.796875 72.90625 
L 49.515625 72.90625 
L 49.515625 64.59375 
L 19.828125 64.59375 
L 19.828125 46.734375 
Q 21.96875 47.46875 24.109375 47.828125 
Q 26.265625 48.1875 28.421875 48.1875 
Q 40.625 48.1875 47.75 41.5 
Q 54.890625 34.8125 54.890625 23.390625 
Q 54.890625 11.625 47.5625 5.09375 
Q 40.234375 -1.421875 26.90625 -1.421875 
Q 22.3125 -1.421875 17.546875 -0.640625 
Q 12.796875 0.140625 7.71875 1.703125 
L 7.71875 11.625 
Q 12.109375 9.234375 16.796875 8.0625 
Q 21.484375 6.890625 26.703125 6.890625 
Q 35.15625 6.890625 40.078125 11.328125 
Q 45.015625 15.765625 45.015625 23.390625 
Q 45.015625 31 40.078125 35.4375 
Q 35.15625 39.890625 26.703125 39.890625 
Q 22.75 39.890625 18.8125 39.015625 
Q 14.890625 38.140625 10.796875 36.28125 
z
" id="DejaVuSans-53"/>
       </defs>
       <use xlink:href="#DejaVuSans-50"/>
       <use x="63.623047" xlink:href="#DejaVuSans-48"/>
       <use x="127.246094" xlink:href="#DejaVuSans-50"/>
       <use x="190.869141" xlink:href="#DejaVuSans-48"/>
       <use x="254.492188" xlink:href="#DejaVuSans-45"/>
       <use x="290.576172" xlink:href="#DejaVuSans-48"/>
       <use x="354.199219" xlink:href="#DejaVuSans-53"/>
      </g>
     </g>
    </g>
    <g id="xtick_4">
     <g id="line2d_4">
      <g>
       <use style="stroke:#000000;stroke-width:0.8;" x="199.283104" xlink:href="#m42d7e0a109" y="307.584"/>
      </g>
     </g>
     <g id="text_4">
      <!-- 2020-07 -->
      <g transform="translate(178.391697 322.182437)scale(0.1 -0.1)">
       <defs>
        <path d="M 8.203125 72.90625 
L 55.078125 72.90625 
L 55.078125 68.703125 
L 28.609375 0 
L 18.3125 0 
L 43.21875 64.59375 
L 8.203125 64.59375 
z
" id="DejaVuSans-55"/>
       </defs>
       <use xlink:href="#DejaVuSans-50"/>
       <use x="63.623047" xlink:href="#DejaVuSans-48"/>
       <use x="127.246094" xlink:href="#DejaVuSans-50"/>
       <use x="190.869141" xlink:href="#DejaVuSans-48"/>
       <use x="254.492188" xlink:href="#DejaVuSans-45"/>
       <use x="290.576172" xlink:href="#DejaVuSans-48"/>
       <use x="354.199219" xlink:href="#DejaVuSans-55"/>
      </g>
     </g>
    </g>
    <g id="xtick_5">
     <g id="line2d_5">
      <g>
       <use style="stroke:#000000;stroke-width:0.8;" x="242.018946" xlink:href="#m42d7e0a109" y="307.584"/>
      </g>
     </g>
     <g id="text_5">
      <!-- 2020-09 -->
      <g transform="translate(221.12754 322.182437)scale(0.1 -0.1)">
       <defs>
        <path d="M 10.984375 1.515625 
L 10.984375 10.5 
Q 14.703125 8.734375 18.5 7.8125 
Q 22.3125 6.890625 25.984375 6.890625 
Q 35.75 6.890625 40.890625 13.453125 
Q 46.046875 20.015625 46.78125 33.40625 
Q 43.953125 29.203125 39.59375 26.953125 
Q 35.25 24.703125 29.984375 24.703125 
Q 19.046875 24.703125 12.671875 31.3125 
Q 6.296875 37.9375 6.296875 49.421875 
Q 6.296875 60.640625 12.9375 67.421875 
Q 19.578125 74.21875 30.609375 74.21875 
Q 43.265625 74.21875 49.921875 64.515625 
Q 56.59375 54.828125 56.59375 36.375 
Q 56.59375 19.140625 48.40625 8.859375 
Q 40.234375 -1.421875 26.421875 -1.421875 
Q 22.703125 -1.421875 18.890625 -0.6875 
Q 15.09375 0.046875 10.984375 1.515625 
z
M 30.609375 32.421875 
Q 37.25 32.421875 41.125 36.953125 
Q 45.015625 41.5 45.015625 49.421875 
Q 45.015625 57.28125 41.125 61.84375 
Q 37.25 66.40625 30.609375 66.40625 
Q 23.96875 66.40625 20.09375 61.84375 
Q 16.21875 57.28125 16.21875 49.421875 
Q 16.21875 41.5 20.09375 36.953125 
Q 23.96875 32.421875 30.609375 32.421875 
z
" id="DejaVuSans-57"/>
       </defs>
       <use xlink:href="#DejaVuSans-50"/>
       <use x="63.623047" xlink:href="#DejaVuSans-48"/>
       <use x="127.246094" xlink:href="#DejaVuSans-50"/>
       <use x="190.869141" xlink:href="#DejaVuSans-48"/>
       <use x="254.492188" xlink:href="#DejaVuSans-45"/>
       <use x="290.576172" xlink:href="#DejaVuSans-48"/>
       <use x="354.199219" xlink:href="#DejaVuSans-57"/>
      </g>
     </g>
    </g>
    <g id="xtick_6">
     <g id="line2d_6">
      <g>
       <use style="stroke:#000000;stroke-width:0.8;" x="284.065501" xlink:href="#m42d7e0a109" y="307.584"/>
      </g>
     </g>
     <g id="text_6">
      <!-- 2020-11 -->
      <g transform="translate(263.174095 322.182437)scale(0.1 -0.1)">
       <use xlink:href="#DejaVuSans-50"/>
       <use x="63.623047" xlink:href="#DejaVuSans-48"/>
       <use x="127.246094" xlink:href="#DejaVuSans-50"/>
       <use x="190.869141" xlink:href="#DejaVuSans-48"/>
       <use x="254.492188" xlink:href="#DejaVuSans-45"/>
       <use x="290.576172" xlink:href="#DejaVuSans-49"/>
       <use x="354.199219" xlink:href="#DejaVuSans-49"/>
      </g>
     </g>
    </g>
    <g id="xtick_7">
     <g id="line2d_7">
      <g>
       <use style="stroke:#000000;stroke-width:0.8;" x="326.112056" xlink:href="#m42d7e0a109" y="307.584"/>
      </g>
     </g>
     <g id="text_7">
      <!-- 2021-01 -->
      <g transform="translate(305.220649 322.182437)scale(0.1 -0.1)">
       <use xlink:href="#DejaVuSans-50"/>
       <use x="63.623047" xlink:href="#DejaVuSans-48"/>
       <use x="127.246094" xlink:href="#DejaVuSans-50"/>
       <use x="190.869141" xlink:href="#DejaVuSans-49"/>
       <use x="254.492188" xlink:href="#DejaVuSans-45"/>
       <use x="290.576172" xlink:href="#DejaVuSans-48"/>
       <use x="354.199219" xlink:href="#DejaVuSans-49"/>
      </g>
     </g>
    </g>
    <g id="xtick_8">
     <g id="line2d_8">
      <g>
       <use style="stroke:#000000;stroke-width:0.8;" x="366.780035" xlink:href="#m42d7e0a109" y="307.584"/>
      </g>
     </g>
     <g id="text_8">
      <!-- 2021-03 -->
      <g transform="translate(345.888628 322.182437)scale(0.1 -0.1)">
       <use xlink:href="#DejaVuSans-50"/>
       <use x="63.623047" xlink:href="#DejaVuSans-48"/>
       <use x="127.246094" xlink:href="#DejaVuSans-50"/>
       <use x="190.869141" xlink:href="#DejaVuSans-49"/>
       <use x="254.492188" xlink:href="#DejaVuSans-45"/>
       <use x="290.576172" xlink:href="#DejaVuSans-48"/>
       <use x="354.199219" xlink:href="#DejaVuSans-51"/>
      </g>
     </g>
    </g>
    <g id="xtick_9">
     <g id="line2d_9">
      <g>
       <use style="stroke:#000000;stroke-width:0.8;" x="408.826589" xlink:href="#m42d7e0a109" y="307.584"/>
      </g>
     </g>
     <g id="text_9">
      <!-- 2021-05 -->
      <g transform="translate(387.935183 322.182437)scale(0.1 -0.1)">
       <use xlink:href="#DejaVuSans-50"/>
       <use x="63.623047" xlink:href="#DejaVuSans-48"/>
       <use x="127.246094" xlink:href="#DejaVuSans-50"/>
       <use x="190.869141" xlink:href="#DejaVuSans-49"/>
       <use x="254.492188" xlink:href="#DejaVuSans-45"/>
       <use x="290.576172" xlink:href="#DejaVuSans-48"/>
       <use x="354.199219" xlink:href="#DejaVuSans-53"/>
      </g>
     </g>
    </g>
   </g>
   <g id="matplotlib.axis_2">
    <g id="ytick_1">
     <g id="line2d_10">
      <defs>
       <path d="M 0 0 
L -3.5 0 
" id="m59815c2ef2" style="stroke:#000000;stroke-width:0.8;"/>
      </defs>
      <g>
       <use style="stroke:#000000;stroke-width:0.8;" x="57.6" xlink:href="#m59815c2ef2" y="307.584"/>
      </g>
     </g>
     <g id="text_10">
      <!-- 0 -->
      <g transform="translate(44.2375 311.383219)scale(0.1 -0.1)">
       <use xlink:href="#DejaVuSans-48"/>
      </g>
     </g>
    </g>
    <g id="ytick_2">
     <g id="line2d_11">
      <g>
       <use style="stroke:#000000;stroke-width:0.8;" x="57.6" xlink:href="#m59815c2ef2" y="255.840428"/>
      </g>
     </g>
     <g id="text_11">
      <!-- 20 -->
      <g transform="translate(37.875 259.639647)scale(0.1 -0.1)">
       <use xlink:href="#DejaVuSans-50"/>
       <use x="63.623047" xlink:href="#DejaVuSans-48"/>
      </g>
     </g>
    </g>
    <g id="ytick_3">
     <g id="line2d_12">
      <g>
       <use style="stroke:#000000;stroke-width:0.8;" x="57.6" xlink:href="#m59815c2ef2" y="204.096857"/>
      </g>
     </g>
     <g id="text_12">
      <!-- 40 -->
      <g transform="translate(37.875 207.896076)scale(0.1 -0.1)">
       <defs>
        <path d="M 37.796875 64.3125 
L 12.890625 25.390625 
L 37.796875 25.390625 
z
M 35.203125 72.90625 
L 47.609375 72.90625 
L 47.609375 25.390625 
L 58.015625 25.390625 
L 58.015625 17.1875 
L 47.609375 17.1875 
L 47.609375 0 
L 37.796875 0 
L 37.796875 17.1875 
L 4.890625 17.1875 
L 4.890625 26.703125 
z
" id="DejaVuSans-52"/>
       </defs>
       <use xlink:href="#DejaVuSans-52"/>
       <use x="63.623047" xlink:href="#DejaVuSans-48"/>
      </g>
     </g>
    </g>
    <g id="ytick_4">
     <g id="line2d_13">
      <g>
       <use style="stroke:#000000;stroke-width:0.8;" x="57.6" xlink:href="#m59815c2ef2" y="152.353285"/>
      </g>
     </g>
     <g id="text_13">
      <!-- 60 -->
      <g transform="translate(37.875 156.152504)scale(0.1 -0.1)">
       <defs>
        <path d="M 33.015625 40.375 
Q 26.375 40.375 22.484375 35.828125 
Q 18.609375 31.296875 18.609375 23.390625 
Q 18.609375 15.53125 22.484375 10.953125 
Q 26.375 6.390625 33.015625 6.390625 
Q 39.65625 6.390625 43.53125 10.953125 
Q 47.40625 15.53125 47.40625 23.390625 
Q 47.40625 31.296875 43.53125 35.828125 
Q 39.65625 40.375 33.015625 40.375 
z
M 52.59375 71.296875 
L 52.59375 62.3125 
Q 48.875 64.0625 45.09375 64.984375 
Q 41.3125 65.921875 37.59375 65.921875 
Q 27.828125 65.921875 22.671875 59.328125 
Q 17.53125 52.734375 16.796875 39.40625 
Q 19.671875 43.65625 24.015625 45.921875 
Q 28.375 48.1875 33.59375 48.1875 
Q 44.578125 48.1875 50.953125 41.515625 
Q 57.328125 34.859375 57.328125 23.390625 
Q 57.328125 12.15625 50.6875 5.359375 
Q 44.046875 -1.421875 33.015625 -1.421875 
Q 20.359375 -1.421875 13.671875 8.265625 
Q 6.984375 17.96875 6.984375 36.375 
Q 6.984375 53.65625 15.1875 63.9375 
Q 23.390625 74.21875 37.203125 74.21875 
Q 40.921875 74.21875 44.703125 73.484375 
Q 48.484375 72.75 52.59375 71.296875 
z
" id="DejaVuSans-54"/>
       </defs>
       <use xlink:href="#DejaVuSans-54"/>
       <use x="63.623047" xlink:href="#DejaVuSans-48"/>
      </g>
     </g>
    </g>
    <g id="ytick_5">
     <g id="line2d_14">
      <g>
       <use style="stroke:#000000;stroke-width:0.8;" x="57.6" xlink:href="#m59815c2ef2" y="100.609714"/>
      </g>
     </g>
     <g id="text_14">
      <!-- 80 -->
      <g transform="translate(37.875 104.408932)scale(0.1 -0.1)">
       <defs>
        <path d="M 31.78125 34.625 
Q 24.75 34.625 20.71875 30.859375 
Q 16.703125 27.09375 16.703125 20.515625 
Q 16.703125 13.921875 20.71875 10.15625 
Q 24.75 6.390625 31.78125 6.390625 
Q 38.8125 6.390625 42.859375 10.171875 
Q 46.921875 13.96875 46.921875 20.515625 
Q 46.921875 27.09375 42.890625 30.859375 
Q 38.875 34.625 31.78125 34.625 
z
M 21.921875 38.8125 
Q 15.578125 40.375 12.03125 44.71875 
Q 8.5 49.078125 8.5 55.328125 
Q 8.5 64.0625 14.71875 69.140625 
Q 20.953125 74.21875 31.78125 74.21875 
Q 42.671875 74.21875 48.875 69.140625 
Q 55.078125 64.0625 55.078125 55.328125 
Q 55.078125 49.078125 51.53125 44.71875 
Q 48 40.375 41.703125 38.8125 
Q 48.828125 37.15625 52.796875 32.3125 
Q 56.78125 27.484375 56.78125 20.515625 
Q 56.78125 9.90625 50.3125 4.234375 
Q 43.84375 -1.421875 31.78125 -1.421875 
Q 19.734375 -1.421875 13.25 4.234375 
Q 6.78125 9.90625 6.78125 20.515625 
Q 6.78125 27.484375 10.78125 32.3125 
Q 14.796875 37.15625 21.921875 38.8125 
z
M 18.3125 54.390625 
Q 18.3125 48.734375 21.84375 45.5625 
Q 25.390625 42.390625 31.78125 42.390625 
Q 38.140625 42.390625 41.71875 45.5625 
Q 45.3125 48.734375 45.3125 54.390625 
Q 45.3125 60.0625 41.71875 63.234375 
Q 38.140625 66.40625 31.78125 66.40625 
Q 25.390625 66.40625 21.84375 63.234375 
Q 18.3125 60.0625 18.3125 54.390625 
z
" id="DejaVuSans-56"/>
       </defs>
       <use xlink:href="#DejaVuSans-56"/>
       <use x="63.623047" xlink:href="#DejaVuSans-48"/>
      </g>
     </g>
    </g>
    <g id="ytick_6">
     <g id="line2d_15">
      <g>
       <use style="stroke:#000000;stroke-width:0.8;" x="57.6" xlink:href="#m59815c2ef2" y="48.866142"/>
      </g>
     </g>
     <g id="text_15">
      <!-- 100 -->
      <g transform="translate(31.5125 52.665361)scale(0.1 -0.1)">
       <use xlink:href="#DejaVuSans-49"/>
       <use x="63.623047" xlink:href="#DejaVuSans-48"/>
       <use x="127.246094" xlink:href="#DejaVuSans-48"/>
      </g>
     </g>
    </g>
   </g>
   <g id="line2d_16">
    <path clip-path="url(#p712b368307)" d="M 84.861332 109.456246 
L 85.55062 108.007165 
L 86.239907 113.682392 
L 86.929195 123.075642 
L 87.618483 136.071545 
L 88.307771 143.692865 
L 88.997058 147.168069 
L 90.375634 156.440143 
L 91.064922 158.067917 
L 91.75421 148.694506 
L 92.443497 143.810456 
L 93.132785 143.144732 
L 93.822073 143.329311 
L 94.511361 146.721602 
L 95.200649 147.177543 
L 95.889936 149.366892 
L 96.579224 144.942928 
L 97.268512 145.114691 
L 97.9578 141.592445 
L 98.647087 130.927074 
L 99.336375 116.013097 
L 100.025663 104.807671 
L 100.714951 101.390263 
L 101.404239 108.552096 
L 102.093526 119.897928 
L 102.782814 127.81617 
L 103.472102 130.682775 
L 104.16139 127.032289 
L 104.850677 137.61426 
L 105.539965 141.403967 
L 106.229253 154.156785 
L 106.918541 148.797381 
L 107.607829 158.6351 
L 108.297116 166.815616 
L 108.986404 181.874853 
L 109.675692 184.705715 
L 110.36498 185.292996 
L 111.054268 186.296717 
L 111.743555 196.080495 
L 113.122131 226.802689 
L 113.811419 234.064675 
L 114.500706 233.740089 
L 115.189994 235.101983 
L 115.879282 224.909545 
L 116.56857 226.708614 
L 117.257858 222.550091 
L 117.947145 220.951465 
L 118.636433 209.256247 
L 119.325721 205.804933 
L 120.704296 234.759467 
L 121.393584 243.873993 
L 122.082872 234.588673 
L 122.77216 242.578197 
L 123.461448 243.991502 
L 124.150735 252.290879 
L 124.840023 242.777003 
L 125.529311 246.775078 
L 126.218599 246.450289 
L 126.907887 247.143834 
L 127.597174 238.881511 
L 128.97575 230.099956 
L 129.665038 227.859496 
L 131.732901 201.280792 
L 132.422189 174.33578 
L 133.800764 134.815286 
L 134.490052 146.915302 
L 135.17934 143.916972 
L 135.868628 144.311529 
L 136.557915 137.076963 
L 137.247203 144.924047 
L 138.625779 155.908112 
L 140.004354 147.256929 
L 140.693642 146.649353 
L 141.38293 149.490348 
L 142.072218 151.429202 
L 142.761506 157.192329 
L 143.450793 158.214465 
L 144.140081 148.679235 
L 144.829369 148.242563 
L 145.518657 149.69363 
L 146.207944 167.11449 
L 146.897232 166.791561 
L 147.58652 168.308783 
L 148.275808 163.600175 
L 148.965096 160.748632 
L 151.032959 197.666922 
L 151.722247 187.128983 
L 153.100822 152.889294 
L 153.79011 147.992431 
L 154.479398 138.491873 
L 155.168686 132.91438 
L 155.857973 113.370236 
L 157.236549 93.001681 
L 157.925837 92.281352 
L 158.615124 92.86379 
L 159.304412 85.399396 
L 160.682988 66.347122 
L 161.372276 65.276147 
L 162.061563 62.861699 
L 162.750851 67.976128 
L 164.818715 147.867133 
L 165.508002 148.698179 
L 166.19729 151.869227 
L 167.575866 156.588421 
L 168.265153 155.878929 
L 168.954441 155.58419 
L 169.643729 153.192589 
L 170.333017 157.140982 
L 171.022305 165.271765 
L 171.711592 181.692139 
L 172.40088 192.849739 
L 173.090168 180.813684 
L 173.779456 173.816055 
L 174.468743 165.596834 
L 175.158031 180.403796 
L 175.847319 186.436928 
L 176.536607 190.018518 
L 177.225895 185.356085 
L 177.915182 182.70584 
L 178.60447 182.882752 
L 179.293758 178.259213 
L 179.983046 176.206032 
L 181.361621 167.196265 
L 182.050909 157.241794 
L 182.740197 154.318405 
L 184.118772 142.945968 
L 184.80806 135.638502 
L 185.497348 140.666463 
L 186.186636 153.534644 
L 186.875924 169.140905 
L 187.565211 182.094673 
L 188.254499 189.51345 
L 188.943787 198.779885 
L 189.633075 199.257282 
L 190.322362 194.213293 
L 191.01165 196.685694 
L 191.700938 203.770782 
L 192.390226 209.54051 
L 193.768801 194.687781 
L 194.458089 192.655411 
L 195.147377 197.966672 
L 195.836665 204.882794 
L 196.525953 206.137962 
L 197.21524 204.089456 
L 197.904528 196.248048 
L 198.593816 200.373741 
L 199.283104 200.539822 
L 199.972391 207.266367 
L 200.661679 202.257035 
L 201.350967 199.727357 
L 202.040255 200.967909 
L 202.729543 204.329895 
L 203.41883 208.376759 
L 204.108118 208.150879 
L 204.797406 193.294158 
L 206.175981 168.075781 
L 206.865269 161.819217 
L 207.554557 153.612193 
L 208.243845 155.132608 
L 208.933133 164.322028 
L 209.62242 176.570009 
L 210.311708 177.828911 
L 211.000996 177.868719 
L 211.690284 170.924628 
L 212.379572 173.018364 
L 213.068859 178.565703 
L 213.758147 178.694838 
L 214.447435 173.201101 
L 215.136723 148.074804 
L 216.515298 113.327672 
L 217.204586 104.137174 
L 217.893874 85.112173 
L 218.583162 69.360709 
L 219.272449 57.659375 
L 220.651025 51.510994 
L 221.340313 54.507085 
L 223.408176 74.18635 
L 224.097464 74.742322 
L 224.786752 75.588464 
L 225.476039 80.909295 
L 226.165327 87.764958 
L 226.854615 95.956271 
L 227.543903 107.806111 
L 228.922478 148.980224 
L 229.611766 154.768101 
L 230.301054 152.296074 
L 230.990342 150.674506 
L 231.679629 150.147652 
L 232.368917 143.710409 
L 233.058205 144.227816 
L 233.747493 154.492799 
L 234.436781 172.301844 
L 235.126068 179.468345 
L 235.815356 180.794268 
L 236.504644 181.623883 
L 237.193932 189.705501 
L 237.883219 186.952819 
L 238.572507 187.372424 
L 239.261795 185.609151 
L 239.951083 194.461426 
L 240.640371 194.240386 
L 241.329658 192.525832 
L 242.018946 192.460243 
L 242.708234 190.72136 
L 243.397522 196.920259 
L 244.086809 207.362804 
L 244.776097 221.031869 
L 245.465385 229.998898 
L 246.154673 232.390733 
L 246.843961 230.225984 
L 247.533248 229.756841 
L 248.222536 221.583709 
L 248.911824 221.201517 
L 249.601112 216.732807 
L 250.2904 221.93768 
L 250.979687 219.511047 
L 251.668975 219.477522 
L 252.358263 211.631574 
L 253.047551 205.109924 
L 253.736838 179.864005 
L 255.115414 139.846907 
L 255.804702 145.353699 
L 256.49399 152.802861 
L 257.183277 163.366966 
L 257.872565 163.763548 
L 258.561853 161.52303 
L 259.251141 160.23639 
L 259.940428 157.778362 
L 260.629716 160.086595 
L 261.319004 167.178814 
L 262.008292 182.929709 
L 262.69758 194.55466 
L 263.386867 201.810611 
L 264.076155 207.023871 
L 264.765443 204.52098 
L 266.833306 156.995131 
L 267.522594 155.894985 
L 268.211882 146.289779 
L 268.90117 142.695686 
L 269.590457 133.832449 
L 270.279745 127.038772 
L 270.969033 125.579819 
L 271.658321 124.396033 
L 272.347609 118.437289 
L 273.726184 115.065446 
L 274.415472 118.403023 
L 275.10476 115.126626 
L 275.794047 105.479896 
L 277.172623 81.163107 
L 277.861911 79.446497 
L 278.551199 82.002777 
L 279.240486 87.223501 
L 279.929774 91.261687 
L 280.619062 89.121265 
L 281.30835 92.644038 
L 281.997638 94.731285 
L 282.686925 98.246655 
L 283.376213 92.452401 
L 284.065501 88.548919 
L 285.444076 99.57984 
L 286.133364 108.110126 
L 286.822652 104.336648 
L 287.51194 101.415668 
L 288.201228 105.963083 
L 288.890515 113.044314 
L 289.579803 122.883031 
L 290.269091 123.728774 
L 290.958379 122.20836 
L 291.647666 117.014918 
L 292.336954 108.863555 
L 293.026242 111.695353 
L 293.71553 117.088974 
L 294.404818 116.836123 
L 295.783393 104.008653 
L 296.472681 107.774346 
L 297.161969 109.499318 
L 298.540544 93.220832 
L 299.229832 87.210871 
L 299.91912 89.031958 
L 300.608408 91.999053 
L 301.986983 141.549712 
L 302.676271 155.342113 
L 303.365559 147.491273 
L 304.054847 136.357884 
L 304.744134 140.993695 
L 305.433422 147.123261 
L 306.12271 155.306656 
L 307.501285 167.287716 
L 308.190573 171.085252 
L 308.879861 166.971957 
L 310.258437 179.220116 
L 310.947724 176.862633 
L 311.637012 167.598731 
L 312.3263 160.683197 
L 313.015588 161.497713 
L 313.704876 169.654913 
L 314.394163 170.517267 
L 315.083451 162.740037 
L 316.462027 121.714129 
L 317.151314 109.305919 
L 317.840602 105.19351 
L 318.52989 112.60229 
L 319.219178 111.291761 
L 319.908466 111.173817 
L 320.597753 103.718059 
L 321.287041 102.246033 
L 321.976329 94.559326 
L 322.665617 91.849508 
L 323.354904 91.438408 
L 324.044192 92.132171 
L 324.73348 91.52515 
L 326.112056 96.136169 
L 326.801343 95.152871 
L 327.490631 89.085125 
L 328.179919 84.822441 
L 328.869207 82.579746 
L 329.558494 78.684972 
L 330.93707 66.865659 
L 331.626358 68.470013 
L 332.315646 78.474453 
L 333.694221 120.145569 
L 334.383509 132.012818 
L 335.072797 132.169604 
L 335.762085 133.731492 
L 336.451372 142.66364 
L 337.14066 155.058666 
L 338.519236 161.522993 
L 339.208523 169.207446 
L 339.897811 193.833582 
L 340.587099 211.17803 
L 341.276387 222.86618 
L 341.965675 217.797716 
L 342.654962 211.007549 
L 343.34425 200.150018 
L 344.722826 212.314853 
L 345.412113 215.067673 
L 346.101401 202.294593 
L 346.790689 195.764977 
L 347.479977 197.329854 
L 348.169265 193.792029 
L 348.858552 182.376964 
L 349.54784 157.950934 
L 350.926416 126.375708 
L 351.615704 124.572328 
L 352.304991 112.980727 
L 352.994279 106.793198 
L 353.683567 97.261393 
L 354.372855 95.908157 
L 355.062142 96.887546 
L 355.75143 99.915063 
L 357.819294 94.939389 
L 358.508581 97.369474 
L 359.197869 96.881073 
L 359.887157 94.043294 
L 360.576445 92.373291 
L 361.265732 89.18197 
L 361.95502 103.38817 
L 363.333596 151.103776 
L 364.022884 167.838932 
L 364.712171 173.490604 
L 365.401459 183.265437 
L 366.090747 187.523122 
L 366.780035 183.197839 
L 367.469323 182.507362 
L 368.15861 179.385057 
L 368.847898 186.63502 
L 369.537186 197.786945 
L 370.226474 207.0499 
L 370.915761 213.052017 
L 371.605049 203.971698 
L 373.672913 131.402448 
L 374.3622 120.684691 
L 375.051488 106.504203 
L 375.740776 105.646707 
L 377.119351 129.855194 
L 377.808639 138.238187 
L 378.497927 132.160854 
L 379.876503 128.288736 
L 380.56579 132.765049 
L 381.255078 146.445786 
L 383.322942 198.564261 
L 384.012229 201.165244 
L 384.701517 204.80738 
L 385.390805 199.136649 
L 386.080093 190.808629 
L 386.76938 176.16076 
L 387.458668 169.572634 
L 388.837244 172.881378 
L 389.526532 175.259837 
L 390.215819 176.213893 
L 391.594395 151.930794 
L 392.283683 144.191923 
L 392.97297 141.682928 
L 393.662258 141.776696 
L 394.351546 139.843927 
L 395.040834 144.227675 
L 395.730122 146.546733 
L 396.419409 144.941557 
L 397.108697 146.200788 
L 397.797985 141.671612 
L 398.487273 149.179279 
L 398.487273 149.179279 
" style="fill:none;stroke:#ff6347;stroke-linecap:square;stroke-width:1.5;"/>
   </g>
   <g id="patch_3">
    <path d="M 57.6 307.584 
L 57.6 41.472 
" style="fill:none;stroke:#000000;stroke-linecap:square;stroke-linejoin:miter;stroke-width:0.8;"/>
   </g>
   <g id="patch_4">
    <path d="M 414.72 307.584 
L 414.72 41.472 
" style="fill:none;stroke:#000000;stroke-linecap:square;stroke-linejoin:miter;stroke-width:0.8;"/>
   </g>
   <g id="patch_5">
    <path d="M 57.6 307.584 
L 414.72 307.584 
" style="fill:none;stroke:#000000;stroke-linecap:square;stroke-linejoin:miter;stroke-width:0.8;"/>
   </g>
   <g id="patch_6">
    <path d="M 57.6 41.472 
L 414.72 41.472 
" style="fill:none;stroke:#000000;stroke-linecap:square;stroke-linejoin:miter;stroke-width:0.8;"/>
   </g>
   <g id="text_16">
    <!-- Data source: coindesk -->
    <g transform="translate(180.640469 35.472)scale(0.1 -0.1)">
     <defs>
      <path d="M 19.671875 64.796875 
L 19.671875 8.109375 
L 31.59375 8.109375 
Q 46.6875 8.109375 53.6875 14.9375 
Q 60.6875 21.78125 60.6875 36.53125 
Q 60.6875 51.171875 53.6875 57.984375 
Q 46.6875 64.796875 31.59375 64.796875 
z
M 9.8125 72.90625 
L 30.078125 72.90625 
Q 51.265625 72.90625 61.171875 64.09375 
Q 71.09375 55.28125 71.09375 36.53125 
Q 71.09375 17.671875 61.125 8.828125 
Q 51.171875 0 30.078125 0 
L 9.8125 0 
z
" id="DejaVuSans-68"/>
      <path d="M 34.28125 27.484375 
Q 23.390625 27.484375 19.1875 25 
Q 14.984375 22.515625 14.984375 16.5 
Q 14.984375 11.71875 18.140625 8.90625 
Q 21.296875 6.109375 26.703125 6.109375 
Q 34.1875 6.109375 38.703125 11.40625 
Q 43.21875 16.703125 43.21875 25.484375 
L 43.21875 27.484375 
z
M 52.203125 31.203125 
L 52.203125 0 
L 43.21875 0 
L 43.21875 8.296875 
Q 40.140625 3.328125 35.546875 0.953125 
Q 30.953125 -1.421875 24.3125 -1.421875 
Q 15.921875 -1.421875 10.953125 3.296875 
Q 6 8.015625 6 15.921875 
Q 6 25.140625 12.171875 29.828125 
Q 18.359375 34.515625 30.609375 34.515625 
L 43.21875 34.515625 
L 43.21875 35.40625 
Q 43.21875 41.609375 39.140625 45 
Q 35.0625 48.390625 27.6875 48.390625 
Q 23 48.390625 18.546875 47.265625 
Q 14.109375 46.140625 10.015625 43.890625 
L 10.015625 52.203125 
Q 14.9375 54.109375 19.578125 55.046875 
Q 24.21875 56 28.609375 56 
Q 40.484375 56 46.34375 49.84375 
Q 52.203125 43.703125 52.203125 31.203125 
z
" id="DejaVuSans-97"/>
      <path d="M 18.3125 70.21875 
L 18.3125 54.6875 
L 36.8125 54.6875 
L 36.8125 47.703125 
L 18.3125 47.703125 
L 18.3125 18.015625 
Q 18.3125 11.328125 20.140625 9.421875 
Q 21.96875 7.515625 27.59375 7.515625 
L 36.8125 7.515625 
L 36.8125 0 
L 27.59375 0 
Q 17.1875 0 13.234375 3.875 
Q 9.28125 7.765625 9.28125 18.015625 
L 9.28125 47.703125 
L 2.6875 47.703125 
L 2.6875 54.6875 
L 9.28125 54.6875 
L 9.28125 70.21875 
z
" id="DejaVuSans-116"/>
      <path id="DejaVuSans-32"/>
      <path d="M 44.28125 53.078125 
L 44.28125 44.578125 
Q 40.484375 46.53125 36.375 47.5 
Q 32.28125 48.484375 27.875 48.484375 
Q 21.1875 48.484375 17.84375 46.4375 
Q 14.5 44.390625 14.5 40.28125 
Q 14.5 37.15625 16.890625 35.375 
Q 19.28125 33.59375 26.515625 31.984375 
L 29.59375 31.296875 
Q 39.15625 29.25 43.1875 25.515625 
Q 47.21875 21.78125 47.21875 15.09375 
Q 47.21875 7.46875 41.1875 3.015625 
Q 35.15625 -1.421875 24.609375 -1.421875 
Q 20.21875 -1.421875 15.453125 -0.5625 
Q 10.6875 0.296875 5.421875 2 
L 5.421875 11.28125 
Q 10.40625 8.6875 15.234375 7.390625 
Q 20.0625 6.109375 24.8125 6.109375 
Q 31.15625 6.109375 34.5625 8.28125 
Q 37.984375 10.453125 37.984375 14.40625 
Q 37.984375 18.0625 35.515625 20.015625 
Q 33.0625 21.96875 24.703125 23.78125 
L 21.578125 24.515625 
Q 13.234375 26.265625 9.515625 29.90625 
Q 5.8125 33.546875 5.8125 39.890625 
Q 5.8125 47.609375 11.28125 51.796875 
Q 16.75 56 26.8125 56 
Q 31.78125 56 36.171875 55.265625 
Q 40.578125 54.546875 44.28125 53.078125 
z
" id="DejaVuSans-115"/>
      <path d="M 30.609375 48.390625 
Q 23.390625 48.390625 19.1875 42.75 
Q 14.984375 37.109375 14.984375 27.296875 
Q 14.984375 17.484375 19.15625 11.84375 
Q 23.34375 6.203125 30.609375 6.203125 
Q 37.796875 6.203125 41.984375 11.859375 
Q 46.1875 17.53125 46.1875 27.296875 
Q 46.1875 37.015625 41.984375 42.703125 
Q 37.796875 48.390625 30.609375 48.390625 
z
M 30.609375 56 
Q 42.328125 56 49.015625 48.375 
Q 55.71875 40.765625 55.71875 27.296875 
Q 55.71875 13.875 49.015625 6.21875 
Q 42.328125 -1.421875 30.609375 -1.421875 
Q 18.84375 -1.421875 12.171875 6.21875 
Q 5.515625 13.875 5.515625 27.296875 
Q 5.515625 40.765625 12.171875 48.375 
Q 18.84375 56 30.609375 56 
z
" id="DejaVuSans-111"/>
      <path d="M 8.5 21.578125 
L 8.5 54.6875 
L 17.484375 54.6875 
L 17.484375 21.921875 
Q 17.484375 14.15625 20.5 10.265625 
Q 23.53125 6.390625 29.59375 6.390625 
Q 36.859375 6.390625 41.078125 11.03125 
Q 45.3125 15.671875 45.3125 23.6875 
L 45.3125 54.6875 
L 54.296875 54.6875 
L 54.296875 0 
L 45.3125 0 
L 45.3125 8.40625 
Q 42.046875 3.421875 37.71875 1 
Q 33.40625 -1.421875 27.6875 -1.421875 
Q 18.265625 -1.421875 13.375 4.4375 
Q 8.5 10.296875 8.5 21.578125 
z
M 31.109375 56 
z
" id="DejaVuSans-117"/>
      <path d="M 41.109375 46.296875 
Q 39.59375 47.171875 37.8125 47.578125 
Q 36.03125 48 33.890625 48 
Q 26.265625 48 22.1875 43.046875 
Q 18.109375 38.09375 18.109375 28.8125 
L 18.109375 0 
L 9.078125 0 
L 9.078125 54.6875 
L 18.109375 54.6875 
L 18.109375 46.1875 
Q 20.953125 51.171875 25.484375 53.578125 
Q 30.03125 56 36.53125 56 
Q 37.453125 56 38.578125 55.875 
Q 39.703125 55.765625 41.0625 55.515625 
z
" id="DejaVuSans-114"/>
      <path d="M 48.78125 52.59375 
L 48.78125 44.1875 
Q 44.96875 46.296875 41.140625 47.34375 
Q 37.3125 48.390625 33.40625 48.390625 
Q 24.65625 48.390625 19.8125 42.84375 
Q 14.984375 37.3125 14.984375 27.296875 
Q 14.984375 17.28125 19.8125 11.734375 
Q 24.65625 6.203125 33.40625 6.203125 
Q 37.3125 6.203125 41.140625 7.25 
Q 44.96875 8.296875 48.78125 10.40625 
L 48.78125 2.09375 
Q 45.015625 0.34375 40.984375 -0.53125 
Q 36.96875 -1.421875 32.421875 -1.421875 
Q 20.0625 -1.421875 12.78125 6.34375 
Q 5.515625 14.109375 5.515625 27.296875 
Q 5.515625 40.671875 12.859375 48.328125 
Q 20.21875 56 33.015625 56 
Q 37.15625 56 41.109375 55.140625 
Q 45.0625 54.296875 48.78125 52.59375 
z
" id="DejaVuSans-99"/>
      <path d="M 56.203125 29.59375 
L 56.203125 25.203125 
L 14.890625 25.203125 
Q 15.484375 15.921875 20.484375 11.0625 
Q 25.484375 6.203125 34.421875 6.203125 
Q 39.59375 6.203125 44.453125 7.46875 
Q 49.3125 8.734375 54.109375 11.28125 
L 54.109375 2.78125 
Q 49.265625 0.734375 44.1875 -0.34375 
Q 39.109375 -1.421875 33.890625 -1.421875 
Q 20.796875 -1.421875 13.15625 6.1875 
Q 5.515625 13.8125 5.515625 26.8125 
Q 5.515625 40.234375 12.765625 48.109375 
Q 20.015625 56 32.328125 56 
Q 43.359375 56 49.78125 48.890625 
Q 56.203125 41.796875 56.203125 29.59375 
z
M 47.21875 32.234375 
Q 47.125 39.59375 43.09375 43.984375 
Q 39.0625 48.390625 32.421875 48.390625 
Q 24.90625 48.390625 20.390625 44.140625 
Q 15.875 39.890625 15.1875 32.171875 
z
" id="DejaVuSans-101"/>
      <path d="M 11.71875 12.40625 
L 22.015625 12.40625 
L 22.015625 0 
L 11.71875 0 
z
M 11.71875 51.703125 
L 22.015625 51.703125 
L 22.015625 39.3125 
L 11.71875 39.3125 
z
" id="DejaVuSans-58"/>
      <path d="M 9.421875 54.6875 
L 18.40625 54.6875 
L 18.40625 0 
L 9.421875 0 
z
M 9.421875 75.984375 
L 18.40625 75.984375 
L 18.40625 64.59375 
L 9.421875 64.59375 
z
" id="DejaVuSans-105"/>
      <path d="M 54.890625 33.015625 
L 54.890625 0 
L 45.90625 0 
L 45.90625 32.71875 
Q 45.90625 40.484375 42.875 44.328125 
Q 39.84375 48.1875 33.796875 48.1875 
Q 26.515625 48.1875 22.3125 43.546875 
Q 18.109375 38.921875 18.109375 30.90625 
L 18.109375 0 
L 9.078125 0 
L 9.078125 54.6875 
L 18.109375 54.6875 
L 18.109375 46.1875 
Q 21.34375 51.125 25.703125 53.5625 
Q 30.078125 56 35.796875 56 
Q 45.21875 56 50.046875 50.171875 
Q 54.890625 44.34375 54.890625 33.015625 
z
" id="DejaVuSans-110"/>
      <path d="M 45.40625 46.390625 
L 45.40625 75.984375 
L 54.390625 75.984375 
L 54.390625 0 
L 45.40625 0 
L 45.40625 8.203125 
Q 42.578125 3.328125 38.25 0.953125 
Q 33.9375 -1.421875 27.875 -1.421875 
Q 17.96875 -1.421875 11.734375 6.484375 
Q 5.515625 14.40625 5.515625 27.296875 
Q 5.515625 40.1875 11.734375 48.09375 
Q 17.96875 56 27.875 56 
Q 33.9375 56 38.25 53.625 
Q 42.578125 51.265625 45.40625 46.390625 
z
M 14.796875 27.296875 
Q 14.796875 17.390625 18.875 11.75 
Q 22.953125 6.109375 30.078125 6.109375 
Q 37.203125 6.109375 41.296875 11.75 
Q 45.40625 17.390625 45.40625 27.296875 
Q 45.40625 37.203125 41.296875 42.84375 
Q 37.203125 48.484375 30.078125 48.484375 
Q 22.953125 48.484375 18.875 42.84375 
Q 14.796875 37.203125 14.796875 27.296875 
z
" id="DejaVuSans-100"/>
      <path d="M 9.078125 75.984375 
L 18.109375 75.984375 
L 18.109375 31.109375 
L 44.921875 54.6875 
L 56.390625 54.6875 
L 27.390625 29.109375 
L 57.625 0 
L 45.90625 0 
L 18.109375 26.703125 
L 18.109375 0 
L 9.078125 0 
z
" id="DejaVuSans-107"/>
     </defs>
     <use xlink:href="#DejaVuSans-68"/>
     <use x="77.001953" xlink:href="#DejaVuSans-97"/>
     <use x="138.28125" xlink:href="#DejaVuSans-116"/>
     <use x="177.490234" xlink:href="#DejaVuSans-97"/>
     <use x="238.769531" xlink:href="#DejaVuSans-32"/>
     <use x="270.556641" xlink:href="#DejaVuSans-115"/>
     <use x="322.65625" xlink:href="#DejaVuSans-111"/>
     <use x="383.837891" xlink:href="#DejaVuSans-117"/>
     <use x="447.216797" xlink:href="#DejaVuSans-114"/>
     <use x="486.080078" xlink:href="#DejaVuSans-99"/>
     <use x="541.060547" xlink:href="#DejaVuSans-101"/>
     <use x="602.583984" xlink:href="#DejaVuSans-58"/>
     <use x="636.275391" xlink:href="#DejaVuSans-32"/>
     <use x="668.0625" xlink:href="#DejaVuSans-99"/>
     <use x="723.042969" xlink:href="#DejaVuSans-111"/>
     <use x="784.224609" xlink:href="#DejaVuSans-105"/>
     <use x="812.007812" xlink:href="#DejaVuSans-110"/>
     <use x="875.386719" xlink:href="#DejaVuSans-100"/>
     <use x="938.863281" xlink:href="#DejaVuSans-101"/>
     <use x="1000.386719" xlink:href="#DejaVuSans-115"/>
     <use x="1052.486328" xlink:href="#DejaVuSans-107"/>
    </g>
   </g>
   <g id="legend_1">
    <g id="patch_7">
     <path d="M 359.473125 64.150125 
L 407.72 64.150125 
Q 409.72 64.150125 409.72 62.150125 
L 409.72 48.472 
Q 409.72 46.472 407.72 46.472 
L 359.473125 46.472 
Q 357.473125 46.472 357.473125 48.472 
L 357.473125 62.150125 
Q 357.473125 64.150125 359.473125 64.150125 
z
" style="fill:#ffffff;opacity:0.8;stroke:#cccccc;stroke-linejoin:miter;"/>
    </g>
    <g id="line2d_17">
     <path d="M 361.473125 54.570438 
L 381.473125 54.570438 
" style="fill:none;stroke:#ff6347;stroke-linecap:square;stroke-width:1.5;"/>
    </g>
    <g id="line2d_18"/>
    <g id="text_17">
     <!-- RSI -->
     <g transform="translate(389.473125 58.070438)scale(0.1 -0.1)">
      <defs>
       <path d="M 44.390625 34.1875 
Q 47.5625 33.109375 50.5625 29.59375 
Q 53.5625 26.078125 56.59375 19.921875 
L 66.609375 0 
L 56 0 
L 46.6875 18.703125 
Q 43.0625 26.03125 39.671875 28.421875 
Q 36.28125 30.8125 30.421875 30.8125 
L 19.671875 30.8125 
L 19.671875 0 
L 9.8125 0 
L 9.8125 72.90625 
L 32.078125 72.90625 
Q 44.578125 72.90625 50.734375 67.671875 
Q 56.890625 62.453125 56.890625 51.90625 
Q 56.890625 45.015625 53.6875 40.46875 
Q 50.484375 35.9375 44.390625 34.1875 
z
M 19.671875 64.796875 
L 19.671875 38.921875 
L 32.078125 38.921875 
Q 39.203125 38.921875 42.84375 42.21875 
Q 46.484375 45.515625 46.484375 51.90625 
Q 46.484375 58.296875 42.84375 61.546875 
Q 39.203125 64.796875 32.078125 64.796875 
z
" id="DejaVuSans-82"/>
       <path d="M 53.515625 70.515625 
L 53.515625 60.890625 
Q 47.90625 63.578125 42.921875 64.890625 
Q 37.9375 66.21875 33.296875 66.21875 
Q 25.25 66.21875 20.875 63.09375 
Q 16.5 59.96875 16.5 54.203125 
Q 16.5 49.359375 19.40625 46.890625 
Q 22.3125 44.4375 30.421875 42.921875 
L 36.375 41.703125 
Q 47.40625 39.59375 52.65625 34.296875 
Q 57.90625 29 57.90625 20.125 
Q 57.90625 9.515625 50.796875 4.046875 
Q 43.703125 -1.421875 29.984375 -1.421875 
Q 24.8125 -1.421875 18.96875 -0.25 
Q 13.140625 0.921875 6.890625 3.21875 
L 6.890625 13.375 
Q 12.890625 10.015625 18.65625 8.296875 
Q 24.421875 6.59375 29.984375 6.59375 
Q 38.421875 6.59375 43.015625 9.90625 
Q 47.609375 13.234375 47.609375 19.390625 
Q 47.609375 24.75 44.3125 27.78125 
Q 41.015625 30.8125 33.5 32.328125 
L 27.484375 33.5 
Q 16.453125 35.6875 11.515625 40.375 
Q 6.59375 45.0625 6.59375 53.421875 
Q 6.59375 63.09375 13.40625 68.65625 
Q 20.21875 74.21875 32.171875 74.21875 
Q 37.3125 74.21875 42.625 73.28125 
Q 47.953125 72.359375 53.515625 70.515625 
z
" id="DejaVuSans-83"/>
       <path d="M 9.8125 72.90625 
L 19.671875 72.90625 
L 19.671875 0 
L 9.8125 0 
z
" id="DejaVuSans-73"/>
      </defs>
      <use xlink:href="#DejaVuSans-82"/>
      <use x="69.482422" xlink:href="#DejaVuSans-83"/>
      <use x="132.958984" xlink:href="#DejaVuSans-73"/>
     </g>
    </g>
   </g>
  </g>
  <g id="text_18">
   <!-- RSI -->
   <g transform="translate(217.4025 19.0695)scale(0.16 -0.16)">
    <use xlink:href="#DejaVuSans-82"/>
    <use x="69.482422" xlink:href="#DejaVuSans-83"/>
    <use x="132.958984" xlink:href="#DejaVuSans-73"/>
   </g>
  </g>
 </g>
 <defs>
  <clipPath id="p712b368307">
   <rect height="266.112" width="357.12" x="57.6" y="41.472"/>
  </clipPath>
 </defs>
</svg>
