<?xml version="1.0" encoding="utf-8" standalone="no"?>
<!DOCTYPE svg PUBLIC "-//W3C//DTD SVG 1.1//EN"
  "http://www.w3.org/Graphics/SVG/1.1/DTD/svg11.dtd">
<!-- Created with matplotlib (https://matplotlib.org/) -->
<svg height="345.6pt" version="1.1" viewBox="0 0 460.8 345.6" width="460.8pt" xmlns="http://www.w3.org/2000/svg" xmlns:xlink="http://www.w3.org/1999/xlink">
 <metadata>
  <rdf:RDF xmlns:cc="http://creativecommons.org/ns#" xmlns:dc="http://purl.org/dc/elements/1.1/" xmlns:rdf="http://www.w3.org/1999/02/22-rdf-syntax-ns#">
   <cc:Work>
    <dc:type rdf:resource="http://purl.org/dc/dcmitype/StillImage"/>
    <dc:date>2021-02-16T19:06:16.129317</dc:date>
    <dc:format>image/svg+xml</dc:format>
    <dc:creator>
     <cc:Agent>
      <dc:title>Matplotlib v3.3.2, https://matplotlib.org/</dc:title>
     </cc:Agent>
    </dc:creator>
   </cc:Work>
  </rdf:RDF>
 </metadata>
 <defs>
  <style type="text/css">*{stroke-linecap:butt;stroke-linejoin:round;}</style>
 </defs>
 <g id="figure_1">
  <g id="patch_1">
   <path d="M 0 345.6 
L 460.8 345.6 
L 460.8 0 
L 0 0 
z
" style="fill:#ffffff;"/>
  </g>
  <g id="axes_1">
   <g id="patch_2">
    <path d="M 57.6 307.584 
L 414.72 307.584 
L 414.72 41.472 
L 57.6 41.472 
z
" style="fill:#ffffff;"/>
   </g>
   <g id="PolyCollection_1">
    <defs>
     <path d="M 73.832727 -219.118501 
L 73.832727 -115.631357 
L 74.620724 -115.631357 
L 75.40872 -115.631357 
L 76.196717 -115.631357 
L 76.984713 -115.631357 
L 77.77271 -115.631357 
L 78.560706 -115.631357 
L 79.348703 -115.631357 
L 80.136699 -115.631357 
L 80.924695 -115.631357 
L 81.712692 -115.631357 
L 82.500688 -115.631357 
L 83.288685 -115.631357 
L 84.076681 -115.631357 
L 84.864678 -115.631357 
L 85.652674 -115.631357 
L 86.440671 -115.631357 
L 87.228667 -115.631357 
L 88.016664 -115.631357 
L 88.80466 -115.631357 
L 89.592657 -115.631357 
L 90.380653 -115.631357 
L 91.16865 -115.631357 
L 91.956646 -115.631357 
L 92.744643 -115.631357 
L 93.532639 -115.631357 
L 94.320635 -115.631357 
L 95.108632 -115.631357 
L 95.896628 -115.631357 
L 96.684625 -115.631357 
L 97.472621 -115.631357 
L 98.260618 -115.631357 
L 99.048614 -115.631357 
L 99.836611 -115.631357 
L 100.624607 -115.631357 
L 101.412604 -115.631357 
L 102.2006 -115.631357 
L 102.988597 -115.631357 
L 103.776593 -115.631357 
L 104.56459 -115.631357 
L 105.352586 -115.631357 
L 106.140583 -115.631357 
L 106.928579 -115.631357 
L 107.716575 -115.631357 
L 108.504572 -115.631357 
L 109.292568 -115.631357 
L 110.080565 -115.631357 
L 110.868561 -115.631357 
L 111.656558 -115.631357 
L 112.444554 -115.631357 
L 113.232551 -115.631357 
L 114.020547 -115.631357 
L 114.808544 -115.631357 
L 115.59654 -115.631357 
L 116.384537 -115.631357 
L 117.172533 -115.631357 
L 117.96053 -115.631357 
L 118.748526 -115.631357 
L 119.536523 -115.631357 
L 120.324519 -115.631357 
L 121.112515 -115.631357 
L 121.900512 -115.631357 
L 122.688508 -115.631357 
L 123.476505 -115.631357 
L 124.264501 -115.631357 
L 125.052498 -115.631357 
L 125.840494 -115.631357 
L 126.628491 -115.631357 
L 127.416487 -115.631357 
L 128.204484 -115.631357 
L 128.99248 -115.631357 
L 129.780477 -115.631357 
L 130.568473 -115.631357 
L 131.35647 -115.631357 
L 132.144466 -115.631357 
L 132.932462 -115.631357 
L 133.720459 -115.631357 
L 134.508455 -115.631357 
L 135.296452 -115.631357 
L 136.084448 -115.631357 
L 136.872445 -115.631357 
L 137.660441 -115.631357 
L 138.448438 -115.631357 
L 139.236434 -115.631357 
L 140.024431 -115.631357 
L 140.812427 -115.631357 
L 141.600424 -115.631357 
L 142.38842 -115.631357 
L 143.176417 -115.631357 
L 143.964413 -115.631357 
L 144.75241 -115.631357 
L 145.540406 -115.631357 
L 146.328402 -115.631357 
L 147.116399 -115.631357 
L 147.904395 -115.631357 
L 148.692392 -115.631357 
L 149.480388 -115.631357 
L 150.268385 -115.631357 
L 151.056381 -115.631357 
L 151.844378 -115.631357 
L 152.632374 -115.631357 
L 153.420371 -115.631357 
L 154.208367 -115.631357 
L 154.996364 -115.631357 
L 155.78436 -115.631357 
L 156.572357 -115.631357 
L 157.360353 -115.631357 
L 158.14835 -115.631357 
L 158.936346 -115.631357 
L 159.724342 -115.631357 
L 160.512339 -115.631357 
L 161.300335 -115.631357 
L 162.088332 -115.631357 
L 162.876328 -115.631357 
L 163.664325 -115.631357 
L 164.452321 -115.631357 
L 165.240318 -115.631357 
L 166.028314 -115.631357 
L 166.816311 -115.631357 
L 167.604307 -115.631357 
L 168.392304 -115.631357 
L 169.1803 -115.631357 
L 169.968297 -115.631357 
L 170.756293 -115.631357 
L 171.544289 -115.631357 
L 172.332286 -115.631357 
L 173.120282 -115.631357 
L 173.908279 -115.631357 
L 174.696275 -115.631357 
L 175.484272 -115.631357 
L 176.272268 -115.631357 
L 177.060265 -115.631357 
L 177.848261 -115.631357 
L 178.636258 -115.631357 
L 179.424254 -115.631357 
L 180.212251 -115.631357 
L 181.000247 -115.631357 
L 181.788244 -115.631357 
L 182.57624 -115.631357 
L 183.364237 -115.631357 
L 184.152233 -115.631357 
L 184.940229 -115.631357 
L 185.728226 -115.631357 
L 186.516222 -115.631357 
L 187.304219 -115.631357 
L 188.092215 -115.631357 
L 188.880212 -115.631357 
L 189.668208 -115.631357 
L 190.456205 -115.631357 
L 191.244201 -115.631357 
L 192.032198 -115.631357 
L 192.820194 -115.631357 
L 193.608191 -115.631357 
L 194.396187 -115.631357 
L 195.184184 -115.631357 
L 195.97218 -115.631357 
L 196.760177 -115.631357 
L 197.548173 -115.631357 
L 198.336169 -115.631357 
L 199.124166 -115.631357 
L 199.912162 -115.631357 
L 200.700159 -115.631357 
L 201.488155 -115.631357 
L 202.276152 -115.631357 
L 203.064148 -115.631357 
L 203.852145 -115.631357 
L 204.640141 -115.631357 
L 205.428138 -115.631357 
L 206.216134 -115.631357 
L 207.004131 -115.631357 
L 207.792127 -115.631357 
L 208.580124 -115.631357 
L 209.36812 -115.631357 
L 210.156117 -115.631357 
L 210.944113 -115.631357 
L 211.732109 -115.631357 
L 212.520106 -115.631357 
L 213.308102 -115.631357 
L 214.096099 -115.631357 
L 214.884095 -115.631357 
L 215.672092 -115.631357 
L 216.460088 -115.631357 
L 217.248085 -115.631357 
L 218.036081 -115.631357 
L 218.824078 -115.631357 
L 219.612074 -115.631357 
L 220.400071 -115.631357 
L 221.188067 -115.631357 
L 221.976064 -115.631357 
L 222.76406 -115.631357 
L 223.552056 -115.631357 
L 224.340053 -115.631357 
L 225.128049 -115.631357 
L 225.916046 -115.631357 
L 226.704042 -115.631357 
L 227.492039 -115.631357 
L 228.280035 -115.631357 
L 229.068032 -115.631357 
L 229.856028 -115.631357 
L 230.644025 -115.631357 
L 231.432021 -115.631357 
L 232.220018 -115.631357 
L 233.008014 -115.631357 
L 233.796011 -115.631357 
L 234.584007 -115.631357 
L 235.372004 -115.631357 
L 236.16 -115.631357 
L 236.947996 -115.631357 
L 237.735993 -115.631357 
L 238.523989 -115.631357 
L 239.311986 -115.631357 
L 240.099982 -115.631357 
L 240.887979 -115.631357 
L 241.675975 -115.631357 
L 242.463972 -115.631357 
L 243.251968 -115.631357 
L 244.039965 -115.631357 
L 244.827961 -115.631357 
L 245.615958 -115.631357 
L 246.403954 -115.631357 
L 247.191951 -115.631357 
L 247.979947 -115.631357 
L 248.767944 -115.631357 
L 249.55594 -115.631357 
L 250.343936 -115.631357 
L 251.131933 -115.631357 
L 251.919929 -115.631357 
L 252.707926 -115.631357 
L 253.495922 -115.631357 
L 254.283919 -115.631357 
L 255.071915 -115.631357 
L 255.859912 -115.631357 
L 256.647908 -115.631357 
L 257.435905 -115.631357 
L 258.223901 -115.631357 
L 259.011898 -115.631357 
L 259.799894 -115.631357 
L 260.587891 -115.631357 
L 261.375887 -115.631357 
L 262.163883 -115.631357 
L 262.95188 -115.631357 
L 263.739876 -115.631357 
L 264.527873 -115.631357 
L 265.315869 -115.631357 
L 266.103866 -115.631357 
L 266.891862 -115.631357 
L 267.679859 -115.631357 
L 268.467855 -115.631357 
L 269.255852 -115.631357 
L 270.043848 -115.631357 
L 270.831845 -115.631357 
L 271.619841 -115.631357 
L 272.407838 -115.631357 
L 273.195834 -115.631357 
L 273.983831 -115.631357 
L 274.771827 -115.631357 
L 275.559823 -115.631357 
L 276.34782 -115.631357 
L 277.135816 -115.631357 
L 277.923813 -115.631357 
L 278.711809 -115.631357 
L 279.499806 -115.631357 
L 280.287802 -115.631357 
L 281.075799 -115.631357 
L 281.863795 -115.631357 
L 282.651792 -115.631357 
L 283.439788 -115.631357 
L 284.227785 -115.631357 
L 285.015781 -115.631357 
L 285.803778 -115.631357 
L 286.591774 -115.631357 
L 287.379771 -115.631357 
L 288.167767 -115.631357 
L 288.955763 -115.631357 
L 289.74376 -115.631357 
L 290.531756 -115.631357 
L 291.319753 -115.631357 
L 292.107749 -115.631357 
L 292.895746 -115.631357 
L 293.683742 -115.631357 
L 294.471739 -115.631357 
L 295.259735 -115.631357 
L 296.047732 -115.631357 
L 296.835728 -115.631357 
L 297.623725 -115.631357 
L 298.411721 -115.631357 
L 299.199718 -115.631357 
L 299.987714 -115.631357 
L 300.775711 -115.631357 
L 301.563707 -115.631357 
L 302.351703 -115.631357 
L 303.1397 -115.631357 
L 303.927696 -115.631357 
L 304.715693 -115.631357 
L 305.503689 -115.631357 
L 306.291686 -115.631357 
L 307.079682 -115.631357 
L 307.867679 -115.631357 
L 308.655675 -115.631357 
L 309.443672 -115.631357 
L 310.231668 -115.631357 
L 311.019665 -115.631357 
L 311.807661 -115.631357 
L 312.595658 -115.631357 
L 313.383654 -115.631357 
L 314.17165 -115.631357 
L 314.959647 -115.631357 
L 315.747643 -115.631357 
L 316.53564 -115.631357 
L 317.323636 -115.631357 
L 318.111633 -115.631357 
L 318.899629 -115.631357 
L 319.687626 -115.631357 
L 320.475622 -115.631357 
L 321.263619 -115.631357 
L 322.051615 -115.631357 
L 322.839612 -115.631357 
L 323.627608 -115.631357 
L 324.415605 -115.631357 
L 325.203601 -115.631357 
L 325.991598 -115.631357 
L 326.779594 -115.631357 
L 327.56759 -115.631357 
L 328.355587 -115.631357 
L 329.143583 -115.631357 
L 329.93158 -115.631357 
L 330.719576 -115.631357 
L 331.507573 -115.631357 
L 332.295569 -115.631357 
L 333.083566 -115.631357 
L 333.871562 -115.631357 
L 334.659559 -115.631357 
L 335.447555 -115.631357 
L 336.235552 -115.631357 
L 337.023548 -115.631357 
L 337.811545 -115.631357 
L 338.599541 -115.631357 
L 339.387538 -115.631357 
L 340.175534 -115.631357 
L 340.96353 -115.631357 
L 341.751527 -115.631357 
L 342.539523 -115.631357 
L 343.32752 -115.631357 
L 344.115516 -115.631357 
L 344.903513 -115.631357 
L 345.691509 -115.631357 
L 346.479506 -115.631357 
L 347.267502 -115.631357 
L 348.055499 -115.631357 
L 348.843495 -115.631357 
L 349.631492 -115.631357 
L 350.419488 -115.631357 
L 351.207485 -115.631357 
L 351.995481 -115.631357 
L 352.783477 -115.631357 
L 353.571474 -115.631357 
L 354.35947 -115.631357 
L 355.147467 -115.631357 
L 355.935463 -115.631357 
L 356.72346 -115.631357 
L 357.511456 -115.631357 
L 358.299453 -115.631357 
L 359.087449 -115.631357 
L 359.875446 -115.631357 
L 360.663442 -115.631357 
L 361.451439 -115.631357 
L 362.239435 -115.631357 
L 363.027432 -115.631357 
L 363.815428 -115.631357 
L 364.603425 -115.631357 
L 365.391421 -115.631357 
L 366.179417 -115.631357 
L 366.967414 -115.631357 
L 367.75541 -115.631357 
L 368.543407 -115.631357 
L 369.331403 -115.631357 
L 370.1194 -115.631357 
L 370.907396 -115.631357 
L 371.695393 -115.631357 
L 372.483389 -115.631357 
L 373.271386 -115.631357 
L 374.059382 -115.631357 
L 374.847379 -115.631357 
L 375.635375 -115.631357 
L 376.423372 -115.631357 
L 377.211368 -115.631357 
L 377.999365 -115.631357 
L 378.787361 -115.631357 
L 379.575357 -115.631357 
L 380.363354 -115.631357 
L 381.15135 -115.631357 
L 381.939347 -115.631357 
L 382.727343 -115.631357 
L 383.51534 -115.631357 
L 384.303336 -115.631357 
L 385.091333 -115.631357 
L 385.879329 -115.631357 
L 386.667326 -115.631357 
L 387.455322 -115.631357 
L 388.243319 -115.631357 
L 389.031315 -115.631357 
L 389.819312 -115.631357 
L 390.607308 -115.631357 
L 391.395305 -115.631357 
L 392.183301 -115.631357 
L 392.971297 -115.631357 
L 393.759294 -115.631357 
L 394.54729 -115.631357 
L 395.335287 -115.631357 
L 396.123283 -115.631357 
L 396.91128 -115.631357 
L 397.699276 -115.631357 
L 398.487273 -115.631357 
L 398.487273 -219.118501 
L 398.487273 -219.118501 
L 397.699276 -219.118501 
L 396.91128 -219.118501 
L 396.123283 -219.118501 
L 395.335287 -219.118501 
L 394.54729 -219.118501 
L 393.759294 -219.118501 
L 392.971297 -219.118501 
L 392.183301 -219.118501 
L 391.395305 -219.118501 
L 390.607308 -219.118501 
L 389.819312 -219.118501 
L 389.031315 -219.118501 
L 388.243319 -219.118501 
L 387.455322 -219.118501 
L 386.667326 -219.118501 
L 385.879329 -219.118501 
L 385.091333 -219.118501 
L 384.303336 -219.118501 
L 383.51534 -219.118501 
L 382.727343 -219.118501 
L 381.939347 -219.118501 
L 381.15135 -219.118501 
L 380.363354 -219.118501 
L 379.575357 -219.118501 
L 378.787361 -219.118501 
L 377.999365 -219.118501 
L 377.211368 -219.118501 
L 376.423372 -219.118501 
L 375.635375 -219.118501 
L 374.847379 -219.118501 
L 374.059382 -219.118501 
L 373.271386 -219.118501 
L 372.483389 -219.118501 
L 371.695393 -219.118501 
L 370.907396 -219.118501 
L 370.1194 -219.118501 
L 369.331403 -219.118501 
L 368.543407 -219.118501 
L 367.75541 -219.118501 
L 366.967414 -219.118501 
L 366.179417 -219.118501 
L 365.391421 -219.118501 
L 364.603425 -219.118501 
L 363.815428 -219.118501 
L 363.027432 -219.118501 
L 362.239435 -219.118501 
L 361.451439 -219.118501 
L 360.663442 -219.118501 
L 359.875446 -219.118501 
L 359.087449 -219.118501 
L 358.299453 -219.118501 
L 357.511456 -219.118501 
L 356.72346 -219.118501 
L 355.935463 -219.118501 
L 355.147467 -219.118501 
L 354.35947 -219.118501 
L 353.571474 -219.118501 
L 352.783477 -219.118501 
L 351.995481 -219.118501 
L 351.207485 -219.118501 
L 350.419488 -219.118501 
L 349.631492 -219.118501 
L 348.843495 -219.118501 
L 348.055499 -219.118501 
L 347.267502 -219.118501 
L 346.479506 -219.118501 
L 345.691509 -219.118501 
L 344.903513 -219.118501 
L 344.115516 -219.118501 
L 343.32752 -219.118501 
L 342.539523 -219.118501 
L 341.751527 -219.118501 
L 340.96353 -219.118501 
L 340.175534 -219.118501 
L 339.387538 -219.118501 
L 338.599541 -219.118501 
L 337.811545 -219.118501 
L 337.023548 -219.118501 
L 336.235552 -219.118501 
L 335.447555 -219.118501 
L 334.659559 -219.118501 
L 333.871562 -219.118501 
L 333.083566 -219.118501 
L 332.295569 -219.118501 
L 331.507573 -219.118501 
L 330.719576 -219.118501 
L 329.93158 -219.118501 
L 329.143583 -219.118501 
L 328.355587 -219.118501 
L 327.56759 -219.118501 
L 326.779594 -219.118501 
L 325.991598 -219.118501 
L 325.203601 -219.118501 
L 324.415605 -219.118501 
L 323.627608 -219.118501 
L 322.839612 -219.118501 
L 322.051615 -219.118501 
L 321.263619 -219.118501 
L 320.475622 -219.118501 
L 319.687626 -219.118501 
L 318.899629 -219.118501 
L 318.111633 -219.118501 
L 317.323636 -219.118501 
L 316.53564 -219.118501 
L 315.747643 -219.118501 
L 314.959647 -219.118501 
L 314.17165 -219.118501 
L 313.383654 -219.118501 
L 312.595658 -219.118501 
L 311.807661 -219.118501 
L 311.019665 -219.118501 
L 310.231668 -219.118501 
L 309.443672 -219.118501 
L 308.655675 -219.118501 
L 307.867679 -219.118501 
L 307.079682 -219.118501 
L 306.291686 -219.118501 
L 305.503689 -219.118501 
L 304.715693 -219.118501 
L 303.927696 -219.118501 
L 303.1397 -219.118501 
L 302.351703 -219.118501 
L 301.563707 -219.118501 
L 300.775711 -219.118501 
L 299.987714 -219.118501 
L 299.199718 -219.118501 
L 298.411721 -219.118501 
L 297.623725 -219.118501 
L 296.835728 -219.118501 
L 296.047732 -219.118501 
L 295.259735 -219.118501 
L 294.471739 -219.118501 
L 293.683742 -219.118501 
L 292.895746 -219.118501 
L 292.107749 -219.118501 
L 291.319753 -219.118501 
L 290.531756 -219.118501 
L 289.74376 -219.118501 
L 288.955763 -219.118501 
L 288.167767 -219.118501 
L 287.379771 -219.118501 
L 286.591774 -219.118501 
L 285.803778 -219.118501 
L 285.015781 -219.118501 
L 284.227785 -219.118501 
L 283.439788 -219.118501 
L 282.651792 -219.118501 
L 281.863795 -219.118501 
L 281.075799 -219.118501 
L 280.287802 -219.118501 
L 279.499806 -219.118501 
L 278.711809 -219.118501 
L 277.923813 -219.118501 
L 277.135816 -219.118501 
L 276.34782 -219.118501 
L 275.559823 -219.118501 
L 274.771827 -219.118501 
L 273.983831 -219.118501 
L 273.195834 -219.118501 
L 272.407838 -219.118501 
L 271.619841 -219.118501 
L 270.831845 -219.118501 
L 270.043848 -219.118501 
L 269.255852 -219.118501 
L 268.467855 -219.118501 
L 267.679859 -219.118501 
L 266.891862 -219.118501 
L 266.103866 -219.118501 
L 265.315869 -219.118501 
L 264.527873 -219.118501 
L 263.739876 -219.118501 
L 262.95188 -219.118501 
L 262.163883 -219.118501 
L 261.375887 -219.118501 
L 260.587891 -219.118501 
L 259.799894 -219.118501 
L 259.011898 -219.118501 
L 258.223901 -219.118501 
L 257.435905 -219.118501 
L 256.647908 -219.118501 
L 255.859912 -219.118501 
L 255.071915 -219.118501 
L 254.283919 -219.118501 
L 253.495922 -219.118501 
L 252.707926 -219.118501 
L 251.919929 -219.118501 
L 251.131933 -219.118501 
L 250.343936 -219.118501 
L 249.55594 -219.118501 
L 248.767944 -219.118501 
L 247.979947 -219.118501 
L 247.191951 -219.118501 
L 246.403954 -219.118501 
L 245.615958 -219.118501 
L 244.827961 -219.118501 
L 244.039965 -219.118501 
L 243.251968 -219.118501 
L 242.463972 -219.118501 
L 241.675975 -219.118501 
L 240.887979 -219.118501 
L 240.099982 -219.118501 
L 239.311986 -219.118501 
L 238.523989 -219.118501 
L 237.735993 -219.118501 
L 236.947996 -219.118501 
L 236.16 -219.118501 
L 235.372004 -219.118501 
L 234.584007 -219.118501 
L 233.796011 -219.118501 
L 233.008014 -219.118501 
L 232.220018 -219.118501 
L 231.432021 -219.118501 
L 230.644025 -219.118501 
L 229.856028 -219.118501 
L 229.068032 -219.118501 
L 228.280035 -219.118501 
L 227.492039 -219.118501 
L 226.704042 -219.118501 
L 225.916046 -219.118501 
L 225.128049 -219.118501 
L 224.340053 -219.118501 
L 223.552056 -219.118501 
L 222.76406 -219.118501 
L 221.976064 -219.118501 
L 221.188067 -219.118501 
L 220.400071 -219.118501 
L 219.612074 -219.118501 
L 218.824078 -219.118501 
L 218.036081 -219.118501 
L 217.248085 -219.118501 
L 216.460088 -219.118501 
L 215.672092 -219.118501 
L 214.884095 -219.118501 
L 214.096099 -219.118501 
L 213.308102 -219.118501 
L 212.520106 -219.118501 
L 211.732109 -219.118501 
L 210.944113 -219.118501 
L 210.156117 -219.118501 
L 209.36812 -219.118501 
L 208.580124 -219.118501 
L 207.792127 -219.118501 
L 207.004131 -219.118501 
L 206.216134 -219.118501 
L 205.428138 -219.118501 
L 204.640141 -219.118501 
L 203.852145 -219.118501 
L 203.064148 -219.118501 
L 202.276152 -219.118501 
L 201.488155 -219.118501 
L 200.700159 -219.118501 
L 199.912162 -219.118501 
L 199.124166 -219.118501 
L 198.336169 -219.118501 
L 197.548173 -219.118501 
L 196.760177 -219.118501 
L 195.97218 -219.118501 
L 195.184184 -219.118501 
L 194.396187 -219.118501 
L 193.608191 -219.118501 
L 192.820194 -219.118501 
L 192.032198 -219.118501 
L 191.244201 -219.118501 
L 190.456205 -219.118501 
L 189.668208 -219.118501 
L 188.880212 -219.118501 
L 188.092215 -219.118501 
L 187.304219 -219.118501 
L 186.516222 -219.118501 
L 185.728226 -219.118501 
L 184.940229 -219.118501 
L 184.152233 -219.118501 
L 183.364237 -219.118501 
L 182.57624 -219.118501 
L 181.788244 -219.118501 
L 181.000247 -219.118501 
L 180.212251 -219.118501 
L 179.424254 -219.118501 
L 178.636258 -219.118501 
L 177.848261 -219.118501 
L 177.060265 -219.118501 
L 176.272268 -219.118501 
L 175.484272 -219.118501 
L 174.696275 -219.118501 
L 173.908279 -219.118501 
L 173.120282 -219.118501 
L 172.332286 -219.118501 
L 171.544289 -219.118501 
L 170.756293 -219.118501 
L 169.968297 -219.118501 
L 169.1803 -219.118501 
L 168.392304 -219.118501 
L 167.604307 -219.118501 
L 166.816311 -219.118501 
L 166.028314 -219.118501 
L 165.240318 -219.118501 
L 164.452321 -219.118501 
L 163.664325 -219.118501 
L 162.876328 -219.118501 
L 162.088332 -219.118501 
L 161.300335 -219.118501 
L 160.512339 -219.118501 
L 159.724342 -219.118501 
L 158.936346 -219.118501 
L 158.14835 -219.118501 
L 157.360353 -219.118501 
L 156.572357 -219.118501 
L 155.78436 -219.118501 
L 154.996364 -219.118501 
L 154.208367 -219.118501 
L 153.420371 -219.118501 
L 152.632374 -219.118501 
L 151.844378 -219.118501 
L 151.056381 -219.118501 
L 150.268385 -219.118501 
L 149.480388 -219.118501 
L 148.692392 -219.118501 
L 147.904395 -219.118501 
L 147.116399 -219.118501 
L 146.328402 -219.118501 
L 145.540406 -219.118501 
L 144.75241 -219.118501 
L 143.964413 -219.118501 
L 143.176417 -219.118501 
L 142.38842 -219.118501 
L 141.600424 -219.118501 
L 140.812427 -219.118501 
L 140.024431 -219.118501 
L 139.236434 -219.118501 
L 138.448438 -219.118501 
L 137.660441 -219.118501 
L 136.872445 -219.118501 
L 136.084448 -219.118501 
L 135.296452 -219.118501 
L 134.508455 -219.118501 
L 133.720459 -219.118501 
L 132.932462 -219.118501 
L 132.144466 -219.118501 
L 131.35647 -219.118501 
L 130.568473 -219.118501 
L 129.780477 -219.118501 
L 128.99248 -219.118501 
L 128.204484 -219.118501 
L 127.416487 -219.118501 
L 126.628491 -219.118501 
L 125.840494 -219.118501 
L 125.052498 -219.118501 
L 124.264501 -219.118501 
L 123.476505 -219.118501 
L 122.688508 -219.118501 
L 121.900512 -219.118501 
L 121.112515 -219.118501 
L 120.324519 -219.118501 
L 119.536523 -219.118501 
L 118.748526 -219.118501 
L 117.96053 -219.118501 
L 117.172533 -219.118501 
L 116.384537 -219.118501 
L 115.59654 -219.118501 
L 114.808544 -219.118501 
L 114.020547 -219.118501 
L 113.232551 -219.118501 
L 112.444554 -219.118501 
L 111.656558 -219.118501 
L 110.868561 -219.118501 
L 110.080565 -219.118501 
L 109.292568 -219.118501 
L 108.504572 -219.118501 
L 107.716575 -219.118501 
L 106.928579 -219.118501 
L 106.140583 -219.118501 
L 105.352586 -219.118501 
L 104.56459 -219.118501 
L 103.776593 -219.118501 
L 102.988597 -219.118501 
L 102.2006 -219.118501 
L 101.412604 -219.118501 
L 100.624607 -219.118501 
L 99.836611 -219.118501 
L 99.048614 -219.118501 
L 98.260618 -219.118501 
L 97.472621 -219.118501 
L 96.684625 -219.118501 
L 95.896628 -219.118501 
L 95.108632 -219.118501 
L 94.320635 -219.118501 
L 93.532639 -219.118501 
L 92.744643 -219.118501 
L 91.956646 -219.118501 
L 91.16865 -219.118501 
L 90.380653 -219.118501 
L 89.592657 -219.118501 
L 88.80466 -219.118501 
L 88.016664 -219.118501 
L 87.228667 -219.118501 
L 86.440671 -219.118501 
L 85.652674 -219.118501 
L 84.864678 -219.118501 
L 84.076681 -219.118501 
L 83.288685 -219.118501 
L 82.500688 -219.118501 
L 81.712692 -219.118501 
L 80.924695 -219.118501 
L 80.136699 -219.118501 
L 79.348703 -219.118501 
L 78.560706 -219.118501 
L 77.77271 -219.118501 
L 76.984713 -219.118501 
L 76.196717 -219.118501 
L 75.40872 -219.118501 
L 74.620724 -219.118501 
L 73.832727 -219.118501 
z
" id="m5bb2f8e2be" style="stroke:#4b0082;stroke-opacity:0.3;"/>
    </defs>
    <g clip-path="url(#p41e1d1b531)">
     <use style="fill:#4b0082;fill-opacity:0.3;stroke:#4b0082;stroke-opacity:0.3;" x="0" xlink:href="#m5bb2f8e2be" y="345.6"/>
    </g>
   </g>
   <g id="matplotlib.axis_1">
    <g id="xtick_1">
     <g id="line2d_1">
      <defs>
       <path d="M 0 0 
L 0 3.5 
" id="m1d6a48b489" style="stroke:#000000;stroke-width:0.8;"/>
      </defs>
      <g>
       <use style="stroke:#000000;stroke-width:0.8;" x="73.832727" xlink:href="#m1d6a48b489" y="307.584"/>
      </g>
     </g>
     <g id="text_1">
      <!-- 2020-01 -->
      <g transform="translate(52.941321 322.182437)scale(0.1 -0.1)">
       <defs>
        <path d="M 19.1875 8.296875 
L 53.609375 8.296875 
L 53.609375 0 
L 7.328125 0 
L 7.328125 8.296875 
Q 12.9375 14.109375 22.625 23.890625 
Q 32.328125 33.6875 34.8125 36.53125 
Q 39.546875 41.84375 41.421875 45.53125 
Q 43.3125 49.21875 43.3125 52.78125 
Q 43.3125 58.59375 39.234375 62.25 
Q 35.15625 65.921875 28.609375 65.921875 
Q 23.96875 65.921875 18.8125 64.3125 
Q 13.671875 62.703125 7.8125 59.421875 
L 7.8125 69.390625 
Q 13.765625 71.78125 18.9375 73 
Q 24.125 74.21875 28.421875 74.21875 
Q 39.75 74.21875 46.484375 68.546875 
Q 53.21875 62.890625 53.21875 53.421875 
Q 53.21875 48.921875 51.53125 44.890625 
Q 49.859375 40.875 45.40625 35.40625 
Q 44.1875 33.984375 37.640625 27.21875 
Q 31.109375 20.453125 19.1875 8.296875 
z
" id="DejaVuSans-50"/>
        <path d="M 31.78125 66.40625 
Q 24.171875 66.40625 20.328125 58.90625 
Q 16.5 51.421875 16.5 36.375 
Q 16.5 21.390625 20.328125 13.890625 
Q 24.171875 6.390625 31.78125 6.390625 
Q 39.453125 6.390625 43.28125 13.890625 
Q 47.125 21.390625 47.125 36.375 
Q 47.125 51.421875 43.28125 58.90625 
Q 39.453125 66.40625 31.78125 66.40625 
z
M 31.78125 74.21875 
Q 44.046875 74.21875 50.515625 64.515625 
Q 56.984375 54.828125 56.984375 36.375 
Q 56.984375 17.96875 50.515625 8.265625 
Q 44.046875 -1.421875 31.78125 -1.421875 
Q 19.53125 -1.421875 13.0625 8.265625 
Q 6.59375 17.96875 6.59375 36.375 
Q 6.59375 54.828125 13.0625 64.515625 
Q 19.53125 74.21875 31.78125 74.21875 
z
" id="DejaVuSans-48"/>
        <path d="M 4.890625 31.390625 
L 31.203125 31.390625 
L 31.203125 23.390625 
L 4.890625 23.390625 
z
" id="DejaVuSans-45"/>
        <path d="M 12.40625 8.296875 
L 28.515625 8.296875 
L 28.515625 63.921875 
L 10.984375 60.40625 
L 10.984375 69.390625 
L 28.421875 72.90625 
L 38.28125 72.90625 
L 38.28125 8.296875 
L 54.390625 8.296875 
L 54.390625 0 
L 12.40625 0 
z
" id="DejaVuSans-49"/>
       </defs>
       <use xlink:href="#DejaVuSans-50"/>
       <use x="63.623047" xlink:href="#DejaVuSans-48"/>
       <use x="127.246094" xlink:href="#DejaVuSans-50"/>
       <use x="190.869141" xlink:href="#DejaVuSans-48"/>
       <use x="254.492188" xlink:href="#DejaVuSans-45"/>
       <use x="290.576172" xlink:href="#DejaVuSans-48"/>
       <use x="354.199219" xlink:href="#DejaVuSans-49"/>
      </g>
     </g>
    </g>
    <g id="xtick_2">
     <g id="line2d_2">
      <g>
       <use style="stroke:#000000;stroke-width:0.8;" x="121.112515" xlink:href="#m1d6a48b489" y="307.584"/>
      </g>
     </g>
     <g id="text_2">
      <!-- 2020-03 -->
      <g transform="translate(100.221109 322.182437)scale(0.1 -0.1)">
       <defs>
        <path d="M 40.578125 39.3125 
Q 47.65625 37.796875 51.625 33 
Q 55.609375 28.21875 55.609375 21.1875 
Q 55.609375 10.40625 48.1875 4.484375 
Q 40.765625 -1.421875 27.09375 -1.421875 
Q 22.515625 -1.421875 17.65625 -0.515625 
Q 12.796875 0.390625 7.625 2.203125 
L 7.625 11.71875 
Q 11.71875 9.328125 16.59375 8.109375 
Q 21.484375 6.890625 26.8125 6.890625 
Q 36.078125 6.890625 40.9375 10.546875 
Q 45.796875 14.203125 45.796875 21.1875 
Q 45.796875 27.640625 41.28125 31.265625 
Q 36.765625 34.90625 28.71875 34.90625 
L 20.21875 34.90625 
L 20.21875 43.015625 
L 29.109375 43.015625 
Q 36.375 43.015625 40.234375 45.921875 
Q 44.09375 48.828125 44.09375 54.296875 
Q 44.09375 59.90625 40.109375 62.90625 
Q 36.140625 65.921875 28.71875 65.921875 
Q 24.65625 65.921875 20.015625 65.03125 
Q 15.375 64.15625 9.8125 62.3125 
L 9.8125 71.09375 
Q 15.4375 72.65625 20.34375 73.4375 
Q 25.25 74.21875 29.59375 74.21875 
Q 40.828125 74.21875 47.359375 69.109375 
Q 53.90625 64.015625 53.90625 55.328125 
Q 53.90625 49.265625 50.4375 45.09375 
Q 46.96875 40.921875 40.578125 39.3125 
z
" id="DejaVuSans-51"/>
       </defs>
       <use xlink:href="#DejaVuSans-50"/>
       <use x="63.623047" xlink:href="#DejaVuSans-48"/>
       <use x="127.246094" xlink:href="#DejaVuSans-50"/>
       <use x="190.869141" xlink:href="#DejaVuSans-48"/>
       <use x="254.492188" xlink:href="#DejaVuSans-45"/>
       <use x="290.576172" xlink:href="#DejaVuSans-48"/>
       <use x="354.199219" xlink:href="#DejaVuSans-51"/>
      </g>
     </g>
    </g>
    <g id="xtick_3">
     <g id="line2d_3">
      <g>
       <use style="stroke:#000000;stroke-width:0.8;" x="169.1803" xlink:href="#m1d6a48b489" y="307.584"/>
      </g>
     </g>
     <g id="text_3">
      <!-- 2020-05 -->
      <g transform="translate(148.288894 322.182437)scale(0.1 -0.1)">
       <defs>
        <path d="M 10.796875 72.90625 
L 49.515625 72.90625 
L 49.515625 64.59375 
L 19.828125 64.59375 
L 19.828125 46.734375 
Q 21.96875 47.46875 24.109375 47.828125 
Q 26.265625 48.1875 28.421875 48.1875 
Q 40.625 48.1875 47.75 41.5 
Q 54.890625 34.8125 54.890625 23.390625 
Q 54.890625 11.625 47.5625 5.09375 
Q 40.234375 -1.421875 26.90625 -1.421875 
Q 22.3125 -1.421875 17.546875 -0.640625 
Q 12.796875 0.140625 7.71875 1.703125 
L 7.71875 11.625 
Q 12.109375 9.234375 16.796875 8.0625 
Q 21.484375 6.890625 26.703125 6.890625 
Q 35.15625 6.890625 40.078125 11.328125 
Q 45.015625 15.765625 45.015625 23.390625 
Q 45.015625 31 40.078125 35.4375 
Q 35.15625 39.890625 26.703125 39.890625 
Q 22.75 39.890625 18.8125 39.015625 
Q 14.890625 38.140625 10.796875 36.28125 
z
" id="DejaVuSans-53"/>
       </defs>
       <use xlink:href="#DejaVuSans-50"/>
       <use x="63.623047" xlink:href="#DejaVuSans-48"/>
       <use x="127.246094" xlink:href="#DejaVuSans-50"/>
       <use x="190.869141" xlink:href="#DejaVuSans-48"/>
       <use x="254.492188" xlink:href="#DejaVuSans-45"/>
       <use x="290.576172" xlink:href="#DejaVuSans-48"/>
       <use x="354.199219" xlink:href="#DejaVuSans-53"/>
      </g>
     </g>
    </g>
    <g id="xtick_4">
     <g id="line2d_4">
      <g>
       <use style="stroke:#000000;stroke-width:0.8;" x="217.248085" xlink:href="#m1d6a48b489" y="307.584"/>
      </g>
     </g>
     <g id="text_4">
      <!-- 2020-07 -->
      <g transform="translate(196.356678 322.182437)scale(0.1 -0.1)">
       <defs>
        <path d="M 8.203125 72.90625 
L 55.078125 72.90625 
L 55.078125 68.703125 
L 28.609375 0 
L 18.3125 0 
L 43.21875 64.59375 
L 8.203125 64.59375 
z
" id="DejaVuSans-55"/>
       </defs>
       <use xlink:href="#DejaVuSans-50"/>
       <use x="63.623047" xlink:href="#DejaVuSans-48"/>
       <use x="127.246094" xlink:href="#DejaVuSans-50"/>
       <use x="190.869141" xlink:href="#DejaVuSans-48"/>
       <use x="254.492188" xlink:href="#DejaVuSans-45"/>
       <use x="290.576172" xlink:href="#DejaVuSans-48"/>
       <use x="354.199219" xlink:href="#DejaVuSans-55"/>
      </g>
     </g>
    </g>
    <g id="xtick_5">
     <g id="line2d_5">
      <g>
       <use style="stroke:#000000;stroke-width:0.8;" x="266.103866" xlink:href="#m1d6a48b489" y="307.584"/>
      </g>
     </g>
     <g id="text_5">
      <!-- 2020-09 -->
      <g transform="translate(245.21246 322.182437)scale(0.1 -0.1)">
       <defs>
        <path d="M 10.984375 1.515625 
L 10.984375 10.5 
Q 14.703125 8.734375 18.5 7.8125 
Q 22.3125 6.890625 25.984375 6.890625 
Q 35.75 6.890625 40.890625 13.453125 
Q 46.046875 20.015625 46.78125 33.40625 
Q 43.953125 29.203125 39.59375 26.953125 
Q 35.25 24.703125 29.984375 24.703125 
Q 19.046875 24.703125 12.671875 31.3125 
Q 6.296875 37.9375 6.296875 49.421875 
Q 6.296875 60.640625 12.9375 67.421875 
Q 19.578125 74.21875 30.609375 74.21875 
Q 43.265625 74.21875 49.921875 64.515625 
Q 56.59375 54.828125 56.59375 36.375 
Q 56.59375 19.140625 48.40625 8.859375 
Q 40.234375 -1.421875 26.421875 -1.421875 
Q 22.703125 -1.421875 18.890625 -0.6875 
Q 15.09375 0.046875 10.984375 1.515625 
z
M 30.609375 32.421875 
Q 37.25 32.421875 41.125 36.953125 
Q 45.015625 41.5 45.015625 49.421875 
Q 45.015625 57.28125 41.125 61.84375 
Q 37.25 66.40625 30.609375 66.40625 
Q 23.96875 66.40625 20.09375 61.84375 
Q 16.21875 57.28125 16.21875 49.421875 
Q 16.21875 41.5 20.09375 36.953125 
Q 23.96875 32.421875 30.609375 32.421875 
z
" id="DejaVuSans-57"/>
       </defs>
       <use xlink:href="#DejaVuSans-50"/>
       <use x="63.623047" xlink:href="#DejaVuSans-48"/>
       <use x="127.246094" xlink:href="#DejaVuSans-50"/>
       <use x="190.869141" xlink:href="#DejaVuSans-48"/>
       <use x="254.492188" xlink:href="#DejaVuSans-45"/>
       <use x="290.576172" xlink:href="#DejaVuSans-48"/>
       <use x="354.199219" xlink:href="#DejaVuSans-57"/>
      </g>
     </g>
    </g>
    <g id="xtick_6">
     <g id="line2d_6">
      <g>
       <use style="stroke:#000000;stroke-width:0.8;" x="314.17165" xlink:href="#m1d6a48b489" y="307.584"/>
      </g>
     </g>
     <g id="text_6">
      <!-- 2020-11 -->
      <g transform="translate(293.280244 322.182437)scale(0.1 -0.1)">
       <use xlink:href="#DejaVuSans-50"/>
       <use x="63.623047" xlink:href="#DejaVuSans-48"/>
       <use x="127.246094" xlink:href="#DejaVuSans-50"/>
       <use x="190.869141" xlink:href="#DejaVuSans-48"/>
       <use x="254.492188" xlink:href="#DejaVuSans-45"/>
       <use x="290.576172" xlink:href="#DejaVuSans-49"/>
       <use x="354.199219" xlink:href="#DejaVuSans-49"/>
      </g>
     </g>
    </g>
    <g id="xtick_7">
     <g id="line2d_7">
      <g>
       <use style="stroke:#000000;stroke-width:0.8;" x="362.239435" xlink:href="#m1d6a48b489" y="307.584"/>
      </g>
     </g>
     <g id="text_7">
      <!-- 2021-01 -->
      <g transform="translate(341.348029 322.182437)scale(0.1 -0.1)">
       <use xlink:href="#DejaVuSans-50"/>
       <use x="63.623047" xlink:href="#DejaVuSans-48"/>
       <use x="127.246094" xlink:href="#DejaVuSans-50"/>
       <use x="190.869141" xlink:href="#DejaVuSans-49"/>
       <use x="254.492188" xlink:href="#DejaVuSans-45"/>
       <use x="290.576172" xlink:href="#DejaVuSans-48"/>
       <use x="354.199219" xlink:href="#DejaVuSans-49"/>
      </g>
     </g>
    </g>
    <g id="xtick_8">
     <g id="line2d_8">
      <g>
       <use style="stroke:#000000;stroke-width:0.8;" x="408.731227" xlink:href="#m1d6a48b489" y="307.584"/>
      </g>
     </g>
     <g id="text_8">
      <!-- 2021-03 -->
      <g transform="translate(387.839821 322.182437)scale(0.1 -0.1)">
       <use xlink:href="#DejaVuSans-50"/>
       <use x="63.623047" xlink:href="#DejaVuSans-48"/>
       <use x="127.246094" xlink:href="#DejaVuSans-50"/>
       <use x="190.869141" xlink:href="#DejaVuSans-49"/>
       <use x="254.492188" xlink:href="#DejaVuSans-45"/>
       <use x="290.576172" xlink:href="#DejaVuSans-48"/>
       <use x="354.199219" xlink:href="#DejaVuSans-51"/>
      </g>
     </g>
    </g>
   </g>
   <g id="matplotlib.axis_2">
    <g id="ytick_1">
     <g id="line2d_9">
      <defs>
       <path d="M 0 0 
L -3.5 0 
" id="m6c8dbf4ccf" style="stroke:#000000;stroke-width:0.8;"/>
      </defs>
      <g>
       <use style="stroke:#000000;stroke-width:0.8;" x="57.6" xlink:href="#m6c8dbf4ccf" y="307.584"/>
      </g>
     </g>
     <g id="text_9">
      <!-- 0 -->
      <g transform="translate(44.2375 311.383219)scale(0.1 -0.1)">
       <use xlink:href="#DejaVuSans-48"/>
      </g>
     </g>
    </g>
    <g id="ytick_2">
     <g id="line2d_10">
      <g>
       <use style="stroke:#000000;stroke-width:0.8;" x="57.6" xlink:href="#m6c8dbf4ccf" y="255.840428"/>
      </g>
     </g>
     <g id="text_10">
      <!-- 20 -->
      <g transform="translate(37.875 259.639647)scale(0.1 -0.1)">
       <use xlink:href="#DejaVuSans-50"/>
       <use x="63.623047" xlink:href="#DejaVuSans-48"/>
      </g>
     </g>
    </g>
    <g id="ytick_3">
     <g id="line2d_11">
      <g>
       <use style="stroke:#000000;stroke-width:0.8;" x="57.6" xlink:href="#m6c8dbf4ccf" y="204.096857"/>
      </g>
     </g>
     <g id="text_11">
      <!-- 40 -->
      <g transform="translate(37.875 207.896076)scale(0.1 -0.1)">
       <defs>
        <path d="M 37.796875 64.3125 
L 12.890625 25.390625 
L 37.796875 25.390625 
z
M 35.203125 72.90625 
L 47.609375 72.90625 
L 47.609375 25.390625 
L 58.015625 25.390625 
L 58.015625 17.1875 
L 47.609375 17.1875 
L 47.609375 0 
L 37.796875 0 
L 37.796875 17.1875 
L 4.890625 17.1875 
L 4.890625 26.703125 
z
" id="DejaVuSans-52"/>
       </defs>
       <use xlink:href="#DejaVuSans-52"/>
       <use x="63.623047" xlink:href="#DejaVuSans-48"/>
      </g>
     </g>
    </g>
    <g id="ytick_4">
     <g id="line2d_12">
      <g>
       <use style="stroke:#000000;stroke-width:0.8;" x="57.6" xlink:href="#m6c8dbf4ccf" y="152.353285"/>
      </g>
     </g>
     <g id="text_12">
      <!-- 60 -->
      <g transform="translate(37.875 156.152504)scale(0.1 -0.1)">
       <defs>
        <path d="M 33.015625 40.375 
Q 26.375 40.375 22.484375 35.828125 
Q 18.609375 31.296875 18.609375 23.390625 
Q 18.609375 15.53125 22.484375 10.953125 
Q 26.375 6.390625 33.015625 6.390625 
Q 39.65625 6.390625 43.53125 10.953125 
Q 47.40625 15.53125 47.40625 23.390625 
Q 47.40625 31.296875 43.53125 35.828125 
Q 39.65625 40.375 33.015625 40.375 
z
M 52.59375 71.296875 
L 52.59375 62.3125 
Q 48.875 64.0625 45.09375 64.984375 
Q 41.3125 65.921875 37.59375 65.921875 
Q 27.828125 65.921875 22.671875 59.328125 
Q 17.53125 52.734375 16.796875 39.40625 
Q 19.671875 43.65625 24.015625 45.921875 
Q 28.375 48.1875 33.59375 48.1875 
Q 44.578125 48.1875 50.953125 41.515625 
Q 57.328125 34.859375 57.328125 23.390625 
Q 57.328125 12.15625 50.6875 5.359375 
Q 44.046875 -1.421875 33.015625 -1.421875 
Q 20.359375 -1.421875 13.671875 8.265625 
Q 6.984375 17.96875 6.984375 36.375 
Q 6.984375 53.65625 15.1875 63.9375 
Q 23.390625 74.21875 37.203125 74.21875 
Q 40.921875 74.21875 44.703125 73.484375 
Q 48.484375 72.75 52.59375 71.296875 
z
" id="DejaVuSans-54"/>
       </defs>
       <use xlink:href="#DejaVuSans-54"/>
       <use x="63.623047" xlink:href="#DejaVuSans-48"/>
      </g>
     </g>
    </g>
    <g id="ytick_5">
     <g id="line2d_13">
      <g>
       <use style="stroke:#000000;stroke-width:0.8;" x="57.6" xlink:href="#m6c8dbf4ccf" y="100.609714"/>
      </g>
     </g>
     <g id="text_13">
      <!-- 80 -->
      <g transform="translate(37.875 104.408932)scale(0.1 -0.1)">
       <defs>
        <path d="M 31.78125 34.625 
Q 24.75 34.625 20.71875 30.859375 
Q 16.703125 27.09375 16.703125 20.515625 
Q 16.703125 13.921875 20.71875 10.15625 
Q 24.75 6.390625 31.78125 6.390625 
Q 38.8125 6.390625 42.859375 10.171875 
Q 46.921875 13.96875 46.921875 20.515625 
Q 46.921875 27.09375 42.890625 30.859375 
Q 38.875 34.625 31.78125 34.625 
z
M 21.921875 38.8125 
Q 15.578125 40.375 12.03125 44.71875 
Q 8.5 49.078125 8.5 55.328125 
Q 8.5 64.0625 14.71875 69.140625 
Q 20.953125 74.21875 31.78125 74.21875 
Q 42.671875 74.21875 48.875 69.140625 
Q 55.078125 64.0625 55.078125 55.328125 
Q 55.078125 49.078125 51.53125 44.71875 
Q 48 40.375 41.703125 38.8125 
Q 48.828125 37.15625 52.796875 32.3125 
Q 56.78125 27.484375 56.78125 20.515625 
Q 56.78125 9.90625 50.3125 4.234375 
Q 43.84375 -1.421875 31.78125 -1.421875 
Q 19.734375 -1.421875 13.25 4.234375 
Q 6.78125 9.90625 6.78125 20.515625 
Q 6.78125 27.484375 10.78125 32.3125 
Q 14.796875 37.15625 21.921875 38.8125 
z
M 18.3125 54.390625 
Q 18.3125 48.734375 21.84375 45.5625 
Q 25.390625 42.390625 31.78125 42.390625 
Q 38.140625 42.390625 41.71875 45.5625 
Q 45.3125 48.734375 45.3125 54.390625 
Q 45.3125 60.0625 41.71875 63.234375 
Q 38.140625 66.40625 31.78125 66.40625 
Q 25.390625 66.40625 21.84375 63.234375 
Q 18.3125 60.0625 18.3125 54.390625 
z
" id="DejaVuSans-56"/>
       </defs>
       <use xlink:href="#DejaVuSans-56"/>
       <use x="63.623047" xlink:href="#DejaVuSans-48"/>
      </g>
     </g>
    </g>
    <g id="ytick_6">
     <g id="line2d_14">
      <g>
       <use style="stroke:#000000;stroke-width:0.8;" x="57.6" xlink:href="#m6c8dbf4ccf" y="48.866142"/>
      </g>
     </g>
     <g id="text_14">
      <!-- 100 -->
      <g transform="translate(31.5125 52.665361)scale(0.1 -0.1)">
       <use xlink:href="#DejaVuSans-49"/>
       <use x="63.623047" xlink:href="#DejaVuSans-48"/>
       <use x="127.246094" xlink:href="#DejaVuSans-48"/>
      </g>
     </g>
    </g>
   </g>
   <g id="line2d_15">
    <path clip-path="url(#p41e1d1b531)" d="M 86.440671 109.456246 
L 87.228667 108.007165 
L 88.016664 113.682392 
L 88.80466 123.075642 
L 89.592657 136.071545 
L 90.380653 143.692865 
L 91.16865 147.168069 
L 92.744643 156.440143 
L 93.532639 158.067917 
L 94.320635 148.694506 
L 95.108632 143.810456 
L 95.896628 143.144732 
L 96.684625 143.329311 
L 97.472621 146.721602 
L 98.260618 147.177543 
L 99.048614 149.366892 
L 99.836611 144.942928 
L 100.624607 145.114691 
L 101.412604 141.592445 
L 102.2006 130.927074 
L 102.988597 116.013097 
L 103.776593 104.807671 
L 104.56459 101.390263 
L 105.352586 108.552096 
L 106.140583 119.897928 
L 106.928579 127.81617 
L 107.716575 130.682775 
L 108.504572 127.032289 
L 109.292568 137.61426 
L 110.080565 141.403967 
L 110.868561 154.156785 
L 111.656558 148.797381 
L 112.444554 158.6351 
L 113.232551 166.815616 
L 114.020547 181.874853 
L 114.808544 184.705715 
L 115.59654 185.292996 
L 116.384537 186.296717 
L 117.172533 196.080495 
L 118.748526 226.802689 
L 119.536523 234.064675 
L 120.324519 233.740089 
L 121.112515 235.101983 
L 121.900512 224.909545 
L 122.688508 226.708614 
L 123.476505 222.550091 
L 124.264501 220.951465 
L 125.052498 209.256247 
L 125.840494 205.804933 
L 127.416487 234.759467 
L 128.204484 243.873993 
L 128.99248 234.588673 
L 129.780477 242.578197 
L 130.568473 243.991502 
L 131.35647 252.290879 
L 132.144466 242.777003 
L 132.932462 246.775078 
L 133.720459 246.450289 
L 134.508455 247.143834 
L 135.296452 238.881511 
L 136.872445 230.099956 
L 137.660441 227.859496 
L 140.024431 201.280792 
L 140.812427 174.33578 
L 142.38842 134.815286 
L 143.176417 146.915302 
L 143.964413 143.916972 
L 144.75241 144.311529 
L 145.540406 137.076963 
L 146.328402 144.924047 
L 147.904395 155.908112 
L 149.480388 147.256929 
L 150.268385 146.649353 
L 151.056381 149.490348 
L 151.844378 151.429202 
L 152.632374 157.192329 
L 153.420371 158.214465 
L 154.208367 148.679235 
L 154.996364 148.242563 
L 155.78436 149.69363 
L 156.572357 167.11449 
L 157.360353 166.791561 
L 158.14835 168.308783 
L 158.936346 163.600175 
L 159.724342 160.748632 
L 160.512339 173.405021 
L 161.300335 188.056658 
L 162.088332 197.666922 
L 162.876328 187.128983 
L 163.664325 168.66414 
L 164.452321 152.889294 
L 165.240318 147.992431 
L 166.028314 138.491873 
L 166.816311 132.91438 
L 167.604307 113.370236 
L 169.1803 93.001681 
L 169.968297 92.281352 
L 170.756293 92.86379 
L 171.544289 85.399396 
L 173.120282 66.347122 
L 173.908279 65.276147 
L 174.696275 62.861699 
L 175.484272 67.976128 
L 177.060265 124.717557 
L 177.848261 147.867133 
L 178.636258 148.698179 
L 179.424254 151.869227 
L 181.000247 156.588421 
L 181.788244 155.878929 
L 182.57624 155.58419 
L 183.364237 153.192589 
L 184.152233 157.140982 
L 184.940229 165.271765 
L 185.728226 181.692139 
L 186.516222 192.849739 
L 187.304219 180.813684 
L 188.092215 173.816055 
L 188.880212 165.596834 
L 189.668208 180.403796 
L 190.456205 186.436928 
L 191.244201 190.018518 
L 192.032198 185.356085 
L 192.820194 182.70584 
L 193.608191 182.882752 
L 194.396187 178.259213 
L 195.184184 176.206032 
L 196.760177 167.196265 
L 197.548173 157.241794 
L 198.336169 154.318405 
L 199.912162 142.945968 
L 200.700159 135.638502 
L 201.488155 140.666463 
L 202.276152 153.534644 
L 203.064148 169.140905 
L 203.852145 182.094673 
L 204.640141 189.51345 
L 205.428138 198.779885 
L 206.216134 199.257282 
L 207.004131 194.213293 
L 207.792127 196.685694 
L 208.580124 203.770782 
L 209.36812 209.54051 
L 210.944113 194.687781 
L 211.732109 192.655411 
L 212.520106 197.966672 
L 213.308102 204.882794 
L 214.096099 206.137962 
L 214.884095 204.089456 
L 215.672092 196.248048 
L 216.460088 200.373741 
L 217.248085 200.539822 
L 218.036081 207.266367 
L 218.824078 202.257035 
L 219.612074 199.727357 
L 220.400071 200.967909 
L 221.188067 204.329895 
L 221.976064 208.376759 
L 222.76406 208.150879 
L 223.552056 193.294158 
L 225.128049 168.075781 
L 225.916046 161.819217 
L 226.704042 153.612193 
L 227.492039 155.132608 
L 228.280035 164.322028 
L 229.068032 176.570009 
L 229.856028 177.828911 
L 230.644025 177.868719 
L 231.432021 170.924628 
L 232.220018 173.018364 
L 233.008014 178.565703 
L 233.796011 178.694838 
L 234.584007 173.201101 
L 235.372004 148.074804 
L 236.947996 113.327672 
L 237.735993 104.137174 
L 238.523989 85.112173 
L 239.311986 69.360709 
L 240.099982 57.659375 
L 241.675975 51.510994 
L 242.463972 54.507085 
L 244.827961 74.18635 
L 245.615958 74.742322 
L 246.403954 75.588464 
L 247.191951 80.909295 
L 247.979947 87.764958 
L 248.767944 95.956271 
L 249.55594 107.806111 
L 250.343936 130.04332 
L 251.131933 148.980224 
L 251.919929 154.768101 
L 252.707926 152.296074 
L 253.495922 150.674506 
L 254.283919 150.147652 
L 255.071915 143.710409 
L 255.859912 144.227816 
L 256.647908 154.492799 
L 257.435905 172.301844 
L 258.223901 179.468345 
L 259.011898 180.794268 
L 259.799894 181.623883 
L 260.587891 189.705501 
L 261.375887 186.952819 
L 262.163883 187.372424 
L 262.95188 185.609151 
L 263.739876 194.461426 
L 264.527873 194.240386 
L 265.315869 192.525832 
L 266.103866 192.460243 
L 266.891862 190.72136 
L 267.679859 196.920259 
L 268.467855 207.362804 
L 269.255852 221.031869 
L 270.043848 229.998898 
L 270.831845 232.390733 
L 271.619841 230.225984 
L 272.407838 229.756841 
L 273.195834 221.583709 
L 273.983831 221.201517 
L 274.771827 216.732807 
L 275.559823 221.93768 
L 276.34782 219.511047 
L 277.135816 219.477522 
L 277.923813 211.631574 
L 278.711809 205.109924 
L 279.499806 179.864005 
L 281.075799 139.846907 
L 281.863795 145.353699 
L 282.651792 152.802861 
L 283.439788 163.366966 
L 284.227785 163.763548 
L 285.015781 161.52303 
L 285.803778 160.23639 
L 286.591774 157.778362 
L 287.379771 160.086595 
L 288.167767 167.178814 
L 288.955763 182.929709 
L 289.74376 194.55466 
L 290.531756 201.810611 
L 291.319753 207.023871 
L 292.107749 204.52098 
L 294.471739 156.995131 
L 295.259735 155.894985 
L 296.047732 146.289779 
L 296.835728 142.695686 
L 297.623725 133.832449 
L 298.411721 127.038772 
L 299.199718 125.579819 
L 299.987714 124.396033 
L 300.775711 118.437289 
L 301.563707 116.882163 
L 302.351703 115.065446 
L 303.1397 118.403023 
L 303.927696 115.126626 
L 304.715693 105.479896 
L 305.503689 92.343634 
L 306.291686 81.163107 
L 307.079682 79.446497 
L 307.867679 82.002777 
L 308.655675 87.223501 
L 309.443672 91.261687 
L 310.231668 89.121265 
L 311.019665 92.644038 
L 311.807661 94.731285 
L 312.595658 98.246655 
L 313.383654 92.452401 
L 314.17165 88.548919 
L 314.959647 94.511443 
L 315.747643 99.57984 
L 316.53564 108.110126 
L 317.323636 104.336648 
L 318.111633 101.415668 
L 318.899629 105.963083 
L 319.687626 113.044314 
L 320.475622 122.883031 
L 321.263619 123.728774 
L 322.051615 122.20836 
L 322.839612 117.014918 
L 323.627608 108.863555 
L 324.415605 111.695353 
L 325.203601 117.088974 
L 325.991598 116.836123 
L 327.56759 104.008653 
L 328.355587 107.774346 
L 329.143583 109.499318 
L 330.719576 93.220832 
L 331.507573 87.210871 
L 332.295569 89.031958 
L 333.083566 91.999053 
L 334.659559 141.549712 
L 335.447555 155.342113 
L 336.235552 147.491273 
L 337.023548 136.357884 
L 337.811545 140.993695 
L 338.599541 147.123261 
L 339.387538 155.306656 
L 340.175534 161.762899 
L 340.96353 167.287716 
L 341.751527 171.085252 
L 342.539523 166.971957 
L 344.115516 179.220116 
L 344.903513 176.862633 
L 345.691509 167.598731 
L 346.479506 160.683197 
L 347.267502 161.497713 
L 348.055499 169.654913 
L 348.843495 170.517267 
L 349.631492 162.740037 
L 351.207485 121.714129 
L 351.995481 109.305919 
L 352.783477 105.19351 
L 353.571474 112.60229 
L 354.35947 111.291761 
L 355.147467 111.173817 
L 355.935463 103.718059 
L 356.72346 102.246033 
L 357.511456 94.559326 
L 358.299453 91.849508 
L 359.087449 91.438408 
L 359.875446 92.132171 
L 360.663442 91.52515 
L 362.239435 96.136169 
L 363.027432 95.152871 
L 363.815428 89.085125 
L 364.603425 84.822441 
L 365.391421 82.579746 
L 366.179417 78.684972 
L 367.75541 66.865659 
L 368.543407 68.470013 
L 369.331403 78.474453 
L 370.907396 120.145569 
L 371.695393 132.012818 
L 372.483389 132.169604 
L 373.271386 133.731492 
L 374.059382 142.66364 
L 374.847379 155.058666 
L 376.423372 161.522993 
L 377.211368 169.207446 
L 377.999365 193.833582 
L 378.787361 211.17803 
L 379.575357 222.86618 
L 380.363354 217.797716 
L 381.15135 211.007549 
L 381.939347 200.150018 
L 383.51534 212.314853 
L 384.303336 215.067673 
L 385.091333 202.294593 
L 385.879329 195.764977 
L 386.667326 197.329854 
L 387.455322 193.792029 
L 388.243319 182.376964 
L 389.031315 157.950934 
L 390.607308 126.375708 
L 391.395305 124.572328 
L 392.183301 112.980727 
L 392.971297 106.793198 
L 393.759294 97.261393 
L 394.54729 95.908157 
L 395.335287 96.887546 
L 396.123283 99.915063 
L 398.487273 94.939389 
L 398.487273 94.939389 
" style="fill:none;stroke:#ff6347;stroke-linecap:square;stroke-width:1.5;"/>
   </g>
   <g id="patch_3">
    <path d="M 57.6 307.584 
L 57.6 41.472 
" style="fill:none;stroke:#000000;stroke-linecap:square;stroke-linejoin:miter;stroke-width:0.8;"/>
   </g>
   <g id="patch_4">
    <path d="M 414.72 307.584 
L 414.72 41.472 
" style="fill:none;stroke:#000000;stroke-linecap:square;stroke-linejoin:miter;stroke-width:0.8;"/>
   </g>
   <g id="patch_5">
    <path d="M 57.6 307.584 
L 414.72 307.584 
" style="fill:none;stroke:#000000;stroke-linecap:square;stroke-linejoin:miter;stroke-width:0.8;"/>
   </g>
   <g id="patch_6">
    <path d="M 57.6 41.472 
L 414.72 41.472 
" style="fill:none;stroke:#000000;stroke-linecap:square;stroke-linejoin:miter;stroke-width:0.8;"/>
   </g>
   <g id="text_15">
    <!-- Data source: coindesk -->
    <g transform="translate(180.640469 35.472)scale(0.1 -0.1)">
     <defs>
      <path d="M 19.671875 64.796875 
L 19.671875 8.109375 
L 31.59375 8.109375 
Q 46.6875 8.109375 53.6875 14.9375 
Q 60.6875 21.78125 60.6875 36.53125 
Q 60.6875 51.171875 53.6875 57.984375 
Q 46.6875 64.796875 31.59375 64.796875 
z
M 9.8125 72.90625 
L 30.078125 72.90625 
Q 51.265625 72.90625 61.171875 64.09375 
Q 71.09375 55.28125 71.09375 36.53125 
Q 71.09375 17.671875 61.125 8.828125 
Q 51.171875 0 30.078125 0 
L 9.8125 0 
z
" id="DejaVuSans-68"/>
      <path d="M 34.28125 27.484375 
Q 23.390625 27.484375 19.1875 25 
Q 14.984375 22.515625 14.984375 16.5 
Q 14.984375 11.71875 18.140625 8.90625 
Q 21.296875 6.109375 26.703125 6.109375 
Q 34.1875 6.109375 38.703125 11.40625 
Q 43.21875 16.703125 43.21875 25.484375 
L 43.21875 27.484375 
z
M 52.203125 31.203125 
L 52.203125 0 
L 43.21875 0 
L 43.21875 8.296875 
Q 40.140625 3.328125 35.546875 0.953125 
Q 30.953125 -1.421875 24.3125 -1.421875 
Q 15.921875 -1.421875 10.953125 3.296875 
Q 6 8.015625 6 15.921875 
Q 6 25.140625 12.171875 29.828125 
Q 18.359375 34.515625 30.609375 34.515625 
L 43.21875 34.515625 
L 43.21875 35.40625 
Q 43.21875 41.609375 39.140625 45 
Q 35.0625 48.390625 27.6875 48.390625 
Q 23 48.390625 18.546875 47.265625 
Q 14.109375 46.140625 10.015625 43.890625 
L 10.015625 52.203125 
Q 14.9375 54.109375 19.578125 55.046875 
Q 24.21875 56 28.609375 56 
Q 40.484375 56 46.34375 49.84375 
Q 52.203125 43.703125 52.203125 31.203125 
z
" id="DejaVuSans-97"/>
      <path d="M 18.3125 70.21875 
L 18.3125 54.6875 
L 36.8125 54.6875 
L 36.8125 47.703125 
L 18.3125 47.703125 
L 18.3125 18.015625 
Q 18.3125 11.328125 20.140625 9.421875 
Q 21.96875 7.515625 27.59375 7.515625 
L 36.8125 7.515625 
L 36.8125 0 
L 27.59375 0 
Q 17.1875 0 13.234375 3.875 
Q 9.28125 7.765625 9.28125 18.015625 
L 9.28125 47.703125 
L 2.6875 47.703125 
L 2.6875 54.6875 
L 9.28125 54.6875 
L 9.28125 70.21875 
z
" id="DejaVuSans-116"/>
      <path id="DejaVuSans-32"/>
      <path d="M 44.28125 53.078125 
L 44.28125 44.578125 
Q 40.484375 46.53125 36.375 47.5 
Q 32.28125 48.484375 27.875 48.484375 
Q 21.1875 48.484375 17.84375 46.4375 
Q 14.5 44.390625 14.5 40.28125 
Q 14.5 37.15625 16.890625 35.375 
Q 19.28125 33.59375 26.515625 31.984375 
L 29.59375 31.296875 
Q 39.15625 29.25 43.1875 25.515625 
Q 47.21875 21.78125 47.21875 15.09375 
Q 47.21875 7.46875 41.1875 3.015625 
Q 35.15625 -1.421875 24.609375 -1.421875 
Q 20.21875 -1.421875 15.453125 -0.5625 
Q 10.6875 0.296875 5.421875 2 
L 5.421875 11.28125 
Q 10.40625 8.6875 15.234375 7.390625 
Q 20.0625 6.109375 24.8125 6.109375 
Q 31.15625 6.109375 34.5625 8.28125 
Q 37.984375 10.453125 37.984375 14.40625 
Q 37.984375 18.0625 35.515625 20.015625 
Q 33.0625 21.96875 24.703125 23.78125 
L 21.578125 24.515625 
Q 13.234375 26.265625 9.515625 29.90625 
Q 5.8125 33.546875 5.8125 39.890625 
Q 5.8125 47.609375 11.28125 51.796875 
Q 16.75 56 26.8125 56 
Q 31.78125 56 36.171875 55.265625 
Q 40.578125 54.546875 44.28125 53.078125 
z
" id="DejaVuSans-115"/>
      <path d="M 30.609375 48.390625 
Q 23.390625 48.390625 19.1875 42.75 
Q 14.984375 37.109375 14.984375 27.296875 
Q 14.984375 17.484375 19.15625 11.84375 
Q 23.34375 6.203125 30.609375 6.203125 
Q 37.796875 6.203125 41.984375 11.859375 
Q 46.1875 17.53125 46.1875 27.296875 
Q 46.1875 37.015625 41.984375 42.703125 
Q 37.796875 48.390625 30.609375 48.390625 
z
M 30.609375 56 
Q 42.328125 56 49.015625 48.375 
Q 55.71875 40.765625 55.71875 27.296875 
Q 55.71875 13.875 49.015625 6.21875 
Q 42.328125 -1.421875 30.609375 -1.421875 
Q 18.84375 -1.421875 12.171875 6.21875 
Q 5.515625 13.875 5.515625 27.296875 
Q 5.515625 40.765625 12.171875 48.375 
Q 18.84375 56 30.609375 56 
z
" id="DejaVuSans-111"/>
      <path d="M 8.5 21.578125 
L 8.5 54.6875 
L 17.484375 54.6875 
L 17.484375 21.921875 
Q 17.484375 14.15625 20.5 10.265625 
Q 23.53125 6.390625 29.59375 6.390625 
Q 36.859375 6.390625 41.078125 11.03125 
Q 45.3125 15.671875 45.3125 23.6875 
L 45.3125 54.6875 
L 54.296875 54.6875 
L 54.296875 0 
L 45.3125 0 
L 45.3125 8.40625 
Q 42.046875 3.421875 37.71875 1 
Q 33.40625 -1.421875 27.6875 -1.421875 
Q 18.265625 -1.421875 13.375 4.4375 
Q 8.5 10.296875 8.5 21.578125 
z
M 31.109375 56 
z
" id="DejaVuSans-117"/>
      <path d="M 41.109375 46.296875 
Q 39.59375 47.171875 37.8125 47.578125 
Q 36.03125 48 33.890625 48 
Q 26.265625 48 22.1875 43.046875 
Q 18.109375 38.09375 18.109375 28.8125 
L 18.109375 0 
L 9.078125 0 
L 9.078125 54.6875 
L 18.109375 54.6875 
L 18.109375 46.1875 
Q 20.953125 51.171875 25.484375 53.578125 
Q 30.03125 56 36.53125 56 
Q 37.453125 56 38.578125 55.875 
Q 39.703125 55.765625 41.0625 55.515625 
z
" id="DejaVuSans-114"/>
      <path d="M 48.78125 52.59375 
L 48.78125 44.1875 
Q 44.96875 46.296875 41.140625 47.34375 
Q 37.3125 48.390625 33.40625 48.390625 
Q 24.65625 48.390625 19.8125 42.84375 
Q 14.984375 37.3125 14.984375 27.296875 
Q 14.984375 17.28125 19.8125 11.734375 
Q 24.65625 6.203125 33.40625 6.203125 
Q 37.3125 6.203125 41.140625 7.25 
Q 44.96875 8.296875 48.78125 10.40625 
L 48.78125 2.09375 
Q 45.015625 0.34375 40.984375 -0.53125 
Q 36.96875 -1.421875 32.421875 -1.421875 
Q 20.0625 -1.421875 12.78125 6.34375 
Q 5.515625 14.109375 5.515625 27.296875 
Q 5.515625 40.671875 12.859375 48.328125 
Q 20.21875 56 33.015625 56 
Q 37.15625 56 41.109375 55.140625 
Q 45.0625 54.296875 48.78125 52.59375 
z
" id="DejaVuSans-99"/>
      <path d="M 56.203125 29.59375 
L 56.203125 25.203125 
L 14.890625 25.203125 
Q 15.484375 15.921875 20.484375 11.0625 
Q 25.484375 6.203125 34.421875 6.203125 
Q 39.59375 6.203125 44.453125 7.46875 
Q 49.3125 8.734375 54.109375 11.28125 
L 54.109375 2.78125 
Q 49.265625 0.734375 44.1875 -0.34375 
Q 39.109375 -1.421875 33.890625 -1.421875 
Q 20.796875 -1.421875 13.15625 6.1875 
Q 5.515625 13.8125 5.515625 26.8125 
Q 5.515625 40.234375 12.765625 48.109375 
Q 20.015625 56 32.328125 56 
Q 43.359375 56 49.78125 48.890625 
Q 56.203125 41.796875 56.203125 29.59375 
z
M 47.21875 32.234375 
Q 47.125 39.59375 43.09375 43.984375 
Q 39.0625 48.390625 32.421875 48.390625 
Q 24.90625 48.390625 20.390625 44.140625 
Q 15.875 39.890625 15.1875 32.171875 
z
" id="DejaVuSans-101"/>
      <path d="M 11.71875 12.40625 
L 22.015625 12.40625 
L 22.015625 0 
L 11.71875 0 
z
M 11.71875 51.703125 
L 22.015625 51.703125 
L 22.015625 39.3125 
L 11.71875 39.3125 
z
" id="DejaVuSans-58"/>
      <path d="M 9.421875 54.6875 
L 18.40625 54.6875 
L 18.40625 0 
L 9.421875 0 
z
M 9.421875 75.984375 
L 18.40625 75.984375 
L 18.40625 64.59375 
L 9.421875 64.59375 
z
" id="DejaVuSans-105"/>
      <path d="M 54.890625 33.015625 
L 54.890625 0 
L 45.90625 0 
L 45.90625 32.71875 
Q 45.90625 40.484375 42.875 44.328125 
Q 39.84375 48.1875 33.796875 48.1875 
Q 26.515625 48.1875 22.3125 43.546875 
Q 18.109375 38.921875 18.109375 30.90625 
L 18.109375 0 
L 9.078125 0 
L 9.078125 54.6875 
L 18.109375 54.6875 
L 18.109375 46.1875 
Q 21.34375 51.125 25.703125 53.5625 
Q 30.078125 56 35.796875 56 
Q 45.21875 56 50.046875 50.171875 
Q 54.890625 44.34375 54.890625 33.015625 
z
" id="DejaVuSans-110"/>
      <path d="M 45.40625 46.390625 
L 45.40625 75.984375 
L 54.390625 75.984375 
L 54.390625 0 
L 45.40625 0 
L 45.40625 8.203125 
Q 42.578125 3.328125 38.25 0.953125 
Q 33.9375 -1.421875 27.875 -1.421875 
Q 17.96875 -1.421875 11.734375 6.484375 
Q 5.515625 14.40625 5.515625 27.296875 
Q 5.515625 40.1875 11.734375 48.09375 
Q 17.96875 56 27.875 56 
Q 33.9375 56 38.25 53.625 
Q 42.578125 51.265625 45.40625 46.390625 
z
M 14.796875 27.296875 
Q 14.796875 17.390625 18.875 11.75 
Q 22.953125 6.109375 30.078125 6.109375 
Q 37.203125 6.109375 41.296875 11.75 
Q 45.40625 17.390625 45.40625 27.296875 
Q 45.40625 37.203125 41.296875 42.84375 
Q 37.203125 48.484375 30.078125 48.484375 
Q 22.953125 48.484375 18.875 42.84375 
Q 14.796875 37.203125 14.796875 27.296875 
z
" id="DejaVuSans-100"/>
      <path d="M 9.078125 75.984375 
L 18.109375 75.984375 
L 18.109375 31.109375 
L 44.921875 54.6875 
L 56.390625 54.6875 
L 27.390625 29.109375 
L 57.625 0 
L 45.90625 0 
L 18.109375 26.703125 
L 18.109375 0 
L 9.078125 0 
z
" id="DejaVuSans-107"/>
     </defs>
     <use xlink:href="#DejaVuSans-68"/>
     <use x="77.001953" xlink:href="#DejaVuSans-97"/>
     <use x="138.28125" xlink:href="#DejaVuSans-116"/>
     <use x="177.490234" xlink:href="#DejaVuSans-97"/>
     <use x="238.769531" xlink:href="#DejaVuSans-32"/>
     <use x="270.556641" xlink:href="#DejaVuSans-115"/>
     <use x="322.65625" xlink:href="#DejaVuSans-111"/>
     <use x="383.837891" xlink:href="#DejaVuSans-117"/>
     <use x="447.216797" xlink:href="#DejaVuSans-114"/>
     <use x="486.080078" xlink:href="#DejaVuSans-99"/>
     <use x="541.060547" xlink:href="#DejaVuSans-101"/>
     <use x="602.583984" xlink:href="#DejaVuSans-58"/>
     <use x="636.275391" xlink:href="#DejaVuSans-32"/>
     <use x="668.0625" xlink:href="#DejaVuSans-99"/>
     <use x="723.042969" xlink:href="#DejaVuSans-111"/>
     <use x="784.224609" xlink:href="#DejaVuSans-105"/>
     <use x="812.007812" xlink:href="#DejaVuSans-110"/>
     <use x="875.386719" xlink:href="#DejaVuSans-100"/>
     <use x="938.863281" xlink:href="#DejaVuSans-101"/>
     <use x="1000.386719" xlink:href="#DejaVuSans-115"/>
     <use x="1052.486328" xlink:href="#DejaVuSans-107"/>
    </g>
   </g>
   <g id="legend_1">
    <g id="patch_7">
     <path d="M 359.473125 64.150125 
L 407.72 64.150125 
Q 409.72 64.150125 409.72 62.150125 
L 409.72 48.472 
Q 409.72 46.472 407.72 46.472 
L 359.473125 46.472 
Q 357.473125 46.472 357.473125 48.472 
L 357.473125 62.150125 
Q 357.473125 64.150125 359.473125 64.150125 
z
" style="fill:#ffffff;opacity:0.8;stroke:#cccccc;stroke-linejoin:miter;"/>
    </g>
    <g id="line2d_16">
     <path d="M 361.473125 54.570438 
L 381.473125 54.570438 
" style="fill:none;stroke:#ff6347;stroke-linecap:square;stroke-width:1.5;"/>
    </g>
    <g id="line2d_17"/>
    <g id="text_16">
     <!-- RSI -->
     <g transform="translate(389.473125 58.070438)scale(0.1 -0.1)">
      <defs>
       <path d="M 44.390625 34.1875 
Q 47.5625 33.109375 50.5625 29.59375 
Q 53.5625 26.078125 56.59375 19.921875 
L 66.609375 0 
L 56 0 
L 46.6875 18.703125 
Q 43.0625 26.03125 39.671875 28.421875 
Q 36.28125 30.8125 30.421875 30.8125 
L 19.671875 30.8125 
L 19.671875 0 
L 9.8125 0 
L 9.8125 72.90625 
L 32.078125 72.90625 
Q 44.578125 72.90625 50.734375 67.671875 
Q 56.890625 62.453125 56.890625 51.90625 
Q 56.890625 45.015625 53.6875 40.46875 
Q 50.484375 35.9375 44.390625 34.1875 
z
M 19.671875 64.796875 
L 19.671875 38.921875 
L 32.078125 38.921875 
Q 39.203125 38.921875 42.84375 42.21875 
Q 46.484375 45.515625 46.484375 51.90625 
Q 46.484375 58.296875 42.84375 61.546875 
Q 39.203125 64.796875 32.078125 64.796875 
z
" id="DejaVuSans-82"/>
       <path d="M 53.515625 70.515625 
L 53.515625 60.890625 
Q 47.90625 63.578125 42.921875 64.890625 
Q 37.9375 66.21875 33.296875 66.21875 
Q 25.25 66.21875 20.875 63.09375 
Q 16.5 59.96875 16.5 54.203125 
Q 16.5 49.359375 19.40625 46.890625 
Q 22.3125 44.4375 30.421875 42.921875 
L 36.375 41.703125 
Q 47.40625 39.59375 52.65625 34.296875 
Q 57.90625 29 57.90625 20.125 
Q 57.90625 9.515625 50.796875 4.046875 
Q 43.703125 -1.421875 29.984375 -1.421875 
Q 24.8125 -1.421875 18.96875 -0.25 
Q 13.140625 0.921875 6.890625 3.21875 
L 6.890625 13.375 
Q 12.890625 10.015625 18.65625 8.296875 
Q 24.421875 6.59375 29.984375 6.59375 
Q 38.421875 6.59375 43.015625 9.90625 
Q 47.609375 13.234375 47.609375 19.390625 
Q 47.609375 24.75 44.3125 27.78125 
Q 41.015625 30.8125 33.5 32.328125 
L 27.484375 33.5 
Q 16.453125 35.6875 11.515625 40.375 
Q 6.59375 45.0625 6.59375 53.421875 
Q 6.59375 63.09375 13.40625 68.65625 
Q 20.21875 74.21875 32.171875 74.21875 
Q 37.3125 74.21875 42.625 73.28125 
Q 47.953125 72.359375 53.515625 70.515625 
z
" id="DejaVuSans-83"/>
       <path d="M 9.8125 72.90625 
L 19.671875 72.90625 
L 19.671875 0 
L 9.8125 0 
z
" id="DejaVuSans-73"/>
      </defs>
      <use xlink:href="#DejaVuSans-82"/>
      <use x="69.482422" xlink:href="#DejaVuSans-83"/>
      <use x="132.958984" xlink:href="#DejaVuSans-73"/>
     </g>
    </g>
   </g>
  </g>
  <g id="text_17">
   <!-- RSI -->
   <g transform="translate(217.4025 19.0695)scale(0.16 -0.16)">
    <use xlink:href="#DejaVuSans-82"/>
    <use x="69.482422" xlink:href="#DejaVuSans-83"/>
    <use x="132.958984" xlink:href="#DejaVuSans-73"/>
   </g>
  </g>
 </g>
 <defs>
  <clipPath id="p41e1d1b531">
   <rect height="266.112" width="357.12" x="57.6" y="41.472"/>
  </clipPath>
 </defs>
</svg>
