<?xml version="1.0" encoding="utf-8" standalone="no"?>
<!DOCTYPE svg PUBLIC "-//W3C//DTD SVG 1.1//EN"
  "http://www.w3.org/Graphics/SVG/1.1/DTD/svg11.dtd">
<!-- Created with matplotlib (https://matplotlib.org/) -->
<svg height="345.6pt" version="1.1" viewBox="0 0 460.8 345.6" width="460.8pt" xmlns="http://www.w3.org/2000/svg" xmlns:xlink="http://www.w3.org/1999/xlink">
 <metadata>
  <rdf:RDF xmlns:cc="http://creativecommons.org/ns#" xmlns:dc="http://purl.org/dc/elements/1.1/" xmlns:rdf="http://www.w3.org/1999/02/22-rdf-syntax-ns#">
   <cc:Work>
    <dc:type rdf:resource="http://purl.org/dc/dcmitype/StillImage"/>
    <dc:date>2021-02-16T19:06:17.057362</dc:date>
    <dc:format>image/svg+xml</dc:format>
    <dc:creator>
     <cc:Agent>
      <dc:title>Matplotlib v3.3.2, https://matplotlib.org/</dc:title>
     </cc:Agent>
    </dc:creator>
   </cc:Work>
  </rdf:RDF>
 </metadata>
 <defs>
  <style type="text/css">*{stroke-linecap:butt;stroke-linejoin:round;}</style>
 </defs>
 <g id="figure_1">
  <g id="patch_1">
   <path d="M 0 345.6 
L 460.8 345.6 
L 460.8 0 
L 0 0 
z
" style="fill:#ffffff;"/>
  </g>
  <g id="axes_1">
   <g id="patch_2">
    <path d="M 57.6 307.584 
L 414.72 307.584 
L 414.72 41.472 
L 57.6 41.472 
z
" style="fill:#ffffff;"/>
   </g>
   <g id="PolyCollection_1">
    <defs>
     <path d="M 73.832727 -229.985914 
L 73.832727 -120.28882 
L 74.620724 -120.28882 
L 75.40872 -120.28882 
L 76.196717 -120.28882 
L 76.984713 -120.28882 
L 77.77271 -120.28882 
L 78.560706 -120.28882 
L 79.348703 -120.28882 
L 80.136699 -120.28882 
L 80.924695 -120.28882 
L 81.712692 -120.28882 
L 82.500688 -120.28882 
L 83.288685 -120.28882 
L 84.076681 -120.28882 
L 84.864678 -120.28882 
L 85.652674 -120.28882 
L 86.440671 -120.28882 
L 87.228667 -120.28882 
L 88.016664 -120.28882 
L 88.80466 -120.28882 
L 89.592657 -120.28882 
L 90.380653 -120.28882 
L 91.16865 -120.28882 
L 91.956646 -120.28882 
L 92.744643 -120.28882 
L 93.532639 -120.28882 
L 94.320635 -120.28882 
L 95.108632 -120.28882 
L 95.896628 -120.28882 
L 96.684625 -120.28882 
L 97.472621 -120.28882 
L 98.260618 -120.28882 
L 99.048614 -120.28882 
L 99.836611 -120.28882 
L 100.624607 -120.28882 
L 101.412604 -120.28882 
L 102.2006 -120.28882 
L 102.988597 -120.28882 
L 103.776593 -120.28882 
L 104.56459 -120.28882 
L 105.352586 -120.28882 
L 106.140583 -120.28882 
L 106.928579 -120.28882 
L 107.716575 -120.28882 
L 108.504572 -120.28882 
L 109.292568 -120.28882 
L 110.080565 -120.28882 
L 110.868561 -120.28882 
L 111.656558 -120.28882 
L 112.444554 -120.28882 
L 113.232551 -120.28882 
L 114.020547 -120.28882 
L 114.808544 -120.28882 
L 115.59654 -120.28882 
L 116.384537 -120.28882 
L 117.172533 -120.28882 
L 117.96053 -120.28882 
L 118.748526 -120.28882 
L 119.536523 -120.28882 
L 120.324519 -120.28882 
L 121.112515 -120.28882 
L 121.900512 -120.28882 
L 122.688508 -120.28882 
L 123.476505 -120.28882 
L 124.264501 -120.28882 
L 125.052498 -120.28882 
L 125.840494 -120.28882 
L 126.628491 -120.28882 
L 127.416487 -120.28882 
L 128.204484 -120.28882 
L 128.99248 -120.28882 
L 129.780477 -120.28882 
L 130.568473 -120.28882 
L 131.35647 -120.28882 
L 132.144466 -120.28882 
L 132.932462 -120.28882 
L 133.720459 -120.28882 
L 134.508455 -120.28882 
L 135.296452 -120.28882 
L 136.084448 -120.28882 
L 136.872445 -120.28882 
L 137.660441 -120.28882 
L 138.448438 -120.28882 
L 139.236434 -120.28882 
L 140.024431 -120.28882 
L 140.812427 -120.28882 
L 141.600424 -120.28882 
L 142.38842 -120.28882 
L 143.176417 -120.28882 
L 143.964413 -120.28882 
L 144.75241 -120.28882 
L 145.540406 -120.28882 
L 146.328402 -120.28882 
L 147.116399 -120.28882 
L 147.904395 -120.28882 
L 148.692392 -120.28882 
L 149.480388 -120.28882 
L 150.268385 -120.28882 
L 151.056381 -120.28882 
L 151.844378 -120.28882 
L 152.632374 -120.28882 
L 153.420371 -120.28882 
L 154.208367 -120.28882 
L 154.996364 -120.28882 
L 155.78436 -120.28882 
L 156.572357 -120.28882 
L 157.360353 -120.28882 
L 158.14835 -120.28882 
L 158.936346 -120.28882 
L 159.724342 -120.28882 
L 160.512339 -120.28882 
L 161.300335 -120.28882 
L 162.088332 -120.28882 
L 162.876328 -120.28882 
L 163.664325 -120.28882 
L 164.452321 -120.28882 
L 165.240318 -120.28882 
L 166.028314 -120.28882 
L 166.816311 -120.28882 
L 167.604307 -120.28882 
L 168.392304 -120.28882 
L 169.1803 -120.28882 
L 169.968297 -120.28882 
L 170.756293 -120.28882 
L 171.544289 -120.28882 
L 172.332286 -120.28882 
L 173.120282 -120.28882 
L 173.908279 -120.28882 
L 174.696275 -120.28882 
L 175.484272 -120.28882 
L 176.272268 -120.28882 
L 177.060265 -120.28882 
L 177.848261 -120.28882 
L 178.636258 -120.28882 
L 179.424254 -120.28882 
L 180.212251 -120.28882 
L 181.000247 -120.28882 
L 181.788244 -120.28882 
L 182.57624 -120.28882 
L 183.364237 -120.28882 
L 184.152233 -120.28882 
L 184.940229 -120.28882 
L 185.728226 -120.28882 
L 186.516222 -120.28882 
L 187.304219 -120.28882 
L 188.092215 -120.28882 
L 188.880212 -120.28882 
L 189.668208 -120.28882 
L 190.456205 -120.28882 
L 191.244201 -120.28882 
L 192.032198 -120.28882 
L 192.820194 -120.28882 
L 193.608191 -120.28882 
L 194.396187 -120.28882 
L 195.184184 -120.28882 
L 195.97218 -120.28882 
L 196.760177 -120.28882 
L 197.548173 -120.28882 
L 198.336169 -120.28882 
L 199.124166 -120.28882 
L 199.912162 -120.28882 
L 200.700159 -120.28882 
L 201.488155 -120.28882 
L 202.276152 -120.28882 
L 203.064148 -120.28882 
L 203.852145 -120.28882 
L 204.640141 -120.28882 
L 205.428138 -120.28882 
L 206.216134 -120.28882 
L 207.004131 -120.28882 
L 207.792127 -120.28882 
L 208.580124 -120.28882 
L 209.36812 -120.28882 
L 210.156117 -120.28882 
L 210.944113 -120.28882 
L 211.732109 -120.28882 
L 212.520106 -120.28882 
L 213.308102 -120.28882 
L 214.096099 -120.28882 
L 214.884095 -120.28882 
L 215.672092 -120.28882 
L 216.460088 -120.28882 
L 217.248085 -120.28882 
L 218.036081 -120.28882 
L 218.824078 -120.28882 
L 219.612074 -120.28882 
L 220.400071 -120.28882 
L 221.188067 -120.28882 
L 221.976064 -120.28882 
L 222.76406 -120.28882 
L 223.552056 -120.28882 
L 224.340053 -120.28882 
L 225.128049 -120.28882 
L 225.916046 -120.28882 
L 226.704042 -120.28882 
L 227.492039 -120.28882 
L 228.280035 -120.28882 
L 229.068032 -120.28882 
L 229.856028 -120.28882 
L 230.644025 -120.28882 
L 231.432021 -120.28882 
L 232.220018 -120.28882 
L 233.008014 -120.28882 
L 233.796011 -120.28882 
L 234.584007 -120.28882 
L 235.372004 -120.28882 
L 236.16 -120.28882 
L 236.947996 -120.28882 
L 237.735993 -120.28882 
L 238.523989 -120.28882 
L 239.311986 -120.28882 
L 240.099982 -120.28882 
L 240.887979 -120.28882 
L 241.675975 -120.28882 
L 242.463972 -120.28882 
L 243.251968 -120.28882 
L 244.039965 -120.28882 
L 244.827961 -120.28882 
L 245.615958 -120.28882 
L 246.403954 -120.28882 
L 247.191951 -120.28882 
L 247.979947 -120.28882 
L 248.767944 -120.28882 
L 249.55594 -120.28882 
L 250.343936 -120.28882 
L 251.131933 -120.28882 
L 251.919929 -120.28882 
L 252.707926 -120.28882 
L 253.495922 -120.28882 
L 254.283919 -120.28882 
L 255.071915 -120.28882 
L 255.859912 -120.28882 
L 256.647908 -120.28882 
L 257.435905 -120.28882 
L 258.223901 -120.28882 
L 259.011898 -120.28882 
L 259.799894 -120.28882 
L 260.587891 -120.28882 
L 261.375887 -120.28882 
L 262.163883 -120.28882 
L 262.95188 -120.28882 
L 263.739876 -120.28882 
L 264.527873 -120.28882 
L 265.315869 -120.28882 
L 266.103866 -120.28882 
L 266.891862 -120.28882 
L 267.679859 -120.28882 
L 268.467855 -120.28882 
L 269.255852 -120.28882 
L 270.043848 -120.28882 
L 270.831845 -120.28882 
L 271.619841 -120.28882 
L 272.407838 -120.28882 
L 273.195834 -120.28882 
L 273.983831 -120.28882 
L 274.771827 -120.28882 
L 275.559823 -120.28882 
L 276.34782 -120.28882 
L 277.135816 -120.28882 
L 277.923813 -120.28882 
L 278.711809 -120.28882 
L 279.499806 -120.28882 
L 280.287802 -120.28882 
L 281.075799 -120.28882 
L 281.863795 -120.28882 
L 282.651792 -120.28882 
L 283.439788 -120.28882 
L 284.227785 -120.28882 
L 285.015781 -120.28882 
L 285.803778 -120.28882 
L 286.591774 -120.28882 
L 287.379771 -120.28882 
L 288.167767 -120.28882 
L 288.955763 -120.28882 
L 289.74376 -120.28882 
L 290.531756 -120.28882 
L 291.319753 -120.28882 
L 292.107749 -120.28882 
L 292.895746 -120.28882 
L 293.683742 -120.28882 
L 294.471739 -120.28882 
L 295.259735 -120.28882 
L 296.047732 -120.28882 
L 296.835728 -120.28882 
L 297.623725 -120.28882 
L 298.411721 -120.28882 
L 299.199718 -120.28882 
L 299.987714 -120.28882 
L 300.775711 -120.28882 
L 301.563707 -120.28882 
L 302.351703 -120.28882 
L 303.1397 -120.28882 
L 303.927696 -120.28882 
L 304.715693 -120.28882 
L 305.503689 -120.28882 
L 306.291686 -120.28882 
L 307.079682 -120.28882 
L 307.867679 -120.28882 
L 308.655675 -120.28882 
L 309.443672 -120.28882 
L 310.231668 -120.28882 
L 311.019665 -120.28882 
L 311.807661 -120.28882 
L 312.595658 -120.28882 
L 313.383654 -120.28882 
L 314.17165 -120.28882 
L 314.959647 -120.28882 
L 315.747643 -120.28882 
L 316.53564 -120.28882 
L 317.323636 -120.28882 
L 318.111633 -120.28882 
L 318.899629 -120.28882 
L 319.687626 -120.28882 
L 320.475622 -120.28882 
L 321.263619 -120.28882 
L 322.051615 -120.28882 
L 322.839612 -120.28882 
L 323.627608 -120.28882 
L 324.415605 -120.28882 
L 325.203601 -120.28882 
L 325.991598 -120.28882 
L 326.779594 -120.28882 
L 327.56759 -120.28882 
L 328.355587 -120.28882 
L 329.143583 -120.28882 
L 329.93158 -120.28882 
L 330.719576 -120.28882 
L 331.507573 -120.28882 
L 332.295569 -120.28882 
L 333.083566 -120.28882 
L 333.871562 -120.28882 
L 334.659559 -120.28882 
L 335.447555 -120.28882 
L 336.235552 -120.28882 
L 337.023548 -120.28882 
L 337.811545 -120.28882 
L 338.599541 -120.28882 
L 339.387538 -120.28882 
L 340.175534 -120.28882 
L 340.96353 -120.28882 
L 341.751527 -120.28882 
L 342.539523 -120.28882 
L 343.32752 -120.28882 
L 344.115516 -120.28882 
L 344.903513 -120.28882 
L 345.691509 -120.28882 
L 346.479506 -120.28882 
L 347.267502 -120.28882 
L 348.055499 -120.28882 
L 348.843495 -120.28882 
L 349.631492 -120.28882 
L 350.419488 -120.28882 
L 351.207485 -120.28882 
L 351.995481 -120.28882 
L 352.783477 -120.28882 
L 353.571474 -120.28882 
L 354.35947 -120.28882 
L 355.147467 -120.28882 
L 355.935463 -120.28882 
L 356.72346 -120.28882 
L 357.511456 -120.28882 
L 358.299453 -120.28882 
L 359.087449 -120.28882 
L 359.875446 -120.28882 
L 360.663442 -120.28882 
L 361.451439 -120.28882 
L 362.239435 -120.28882 
L 363.027432 -120.28882 
L 363.815428 -120.28882 
L 364.603425 -120.28882 
L 365.391421 -120.28882 
L 366.179417 -120.28882 
L 366.967414 -120.28882 
L 367.75541 -120.28882 
L 368.543407 -120.28882 
L 369.331403 -120.28882 
L 370.1194 -120.28882 
L 370.907396 -120.28882 
L 371.695393 -120.28882 
L 372.483389 -120.28882 
L 373.271386 -120.28882 
L 374.059382 -120.28882 
L 374.847379 -120.28882 
L 375.635375 -120.28882 
L 376.423372 -120.28882 
L 377.211368 -120.28882 
L 377.999365 -120.28882 
L 378.787361 -120.28882 
L 379.575357 -120.28882 
L 380.363354 -120.28882 
L 381.15135 -120.28882 
L 381.939347 -120.28882 
L 382.727343 -120.28882 
L 383.51534 -120.28882 
L 384.303336 -120.28882 
L 385.091333 -120.28882 
L 385.879329 -120.28882 
L 386.667326 -120.28882 
L 387.455322 -120.28882 
L 388.243319 -120.28882 
L 389.031315 -120.28882 
L 389.819312 -120.28882 
L 390.607308 -120.28882 
L 391.395305 -120.28882 
L 392.183301 -120.28882 
L 392.971297 -120.28882 
L 393.759294 -120.28882 
L 394.54729 -120.28882 
L 395.335287 -120.28882 
L 396.123283 -120.28882 
L 396.91128 -120.28882 
L 397.699276 -120.28882 
L 398.487273 -120.28882 
L 398.487273 -229.985914 
L 398.487273 -229.985914 
L 397.699276 -229.985914 
L 396.91128 -229.985914 
L 396.123283 -229.985914 
L 395.335287 -229.985914 
L 394.54729 -229.985914 
L 393.759294 -229.985914 
L 392.971297 -229.985914 
L 392.183301 -229.985914 
L 391.395305 -229.985914 
L 390.607308 -229.985914 
L 389.819312 -229.985914 
L 389.031315 -229.985914 
L 388.243319 -229.985914 
L 387.455322 -229.985914 
L 386.667326 -229.985914 
L 385.879329 -229.985914 
L 385.091333 -229.985914 
L 384.303336 -229.985914 
L 383.51534 -229.985914 
L 382.727343 -229.985914 
L 381.939347 -229.985914 
L 381.15135 -229.985914 
L 380.363354 -229.985914 
L 379.575357 -229.985914 
L 378.787361 -229.985914 
L 377.999365 -229.985914 
L 377.211368 -229.985914 
L 376.423372 -229.985914 
L 375.635375 -229.985914 
L 374.847379 -229.985914 
L 374.059382 -229.985914 
L 373.271386 -229.985914 
L 372.483389 -229.985914 
L 371.695393 -229.985914 
L 370.907396 -229.985914 
L 370.1194 -229.985914 
L 369.331403 -229.985914 
L 368.543407 -229.985914 
L 367.75541 -229.985914 
L 366.967414 -229.985914 
L 366.179417 -229.985914 
L 365.391421 -229.985914 
L 364.603425 -229.985914 
L 363.815428 -229.985914 
L 363.027432 -229.985914 
L 362.239435 -229.985914 
L 361.451439 -229.985914 
L 360.663442 -229.985914 
L 359.875446 -229.985914 
L 359.087449 -229.985914 
L 358.299453 -229.985914 
L 357.511456 -229.985914 
L 356.72346 -229.985914 
L 355.935463 -229.985914 
L 355.147467 -229.985914 
L 354.35947 -229.985914 
L 353.571474 -229.985914 
L 352.783477 -229.985914 
L 351.995481 -229.985914 
L 351.207485 -229.985914 
L 350.419488 -229.985914 
L 349.631492 -229.985914 
L 348.843495 -229.985914 
L 348.055499 -229.985914 
L 347.267502 -229.985914 
L 346.479506 -229.985914 
L 345.691509 -229.985914 
L 344.903513 -229.985914 
L 344.115516 -229.985914 
L 343.32752 -229.985914 
L 342.539523 -229.985914 
L 341.751527 -229.985914 
L 340.96353 -229.985914 
L 340.175534 -229.985914 
L 339.387538 -229.985914 
L 338.599541 -229.985914 
L 337.811545 -229.985914 
L 337.023548 -229.985914 
L 336.235552 -229.985914 
L 335.447555 -229.985914 
L 334.659559 -229.985914 
L 333.871562 -229.985914 
L 333.083566 -229.985914 
L 332.295569 -229.985914 
L 331.507573 -229.985914 
L 330.719576 -229.985914 
L 329.93158 -229.985914 
L 329.143583 -229.985914 
L 328.355587 -229.985914 
L 327.56759 -229.985914 
L 326.779594 -229.985914 
L 325.991598 -229.985914 
L 325.203601 -229.985914 
L 324.415605 -229.985914 
L 323.627608 -229.985914 
L 322.839612 -229.985914 
L 322.051615 -229.985914 
L 321.263619 -229.985914 
L 320.475622 -229.985914 
L 319.687626 -229.985914 
L 318.899629 -229.985914 
L 318.111633 -229.985914 
L 317.323636 -229.985914 
L 316.53564 -229.985914 
L 315.747643 -229.985914 
L 314.959647 -229.985914 
L 314.17165 -229.985914 
L 313.383654 -229.985914 
L 312.595658 -229.985914 
L 311.807661 -229.985914 
L 311.019665 -229.985914 
L 310.231668 -229.985914 
L 309.443672 -229.985914 
L 308.655675 -229.985914 
L 307.867679 -229.985914 
L 307.079682 -229.985914 
L 306.291686 -229.985914 
L 305.503689 -229.985914 
L 304.715693 -229.985914 
L 303.927696 -229.985914 
L 303.1397 -229.985914 
L 302.351703 -229.985914 
L 301.563707 -229.985914 
L 300.775711 -229.985914 
L 299.987714 -229.985914 
L 299.199718 -229.985914 
L 298.411721 -229.985914 
L 297.623725 -229.985914 
L 296.835728 -229.985914 
L 296.047732 -229.985914 
L 295.259735 -229.985914 
L 294.471739 -229.985914 
L 293.683742 -229.985914 
L 292.895746 -229.985914 
L 292.107749 -229.985914 
L 291.319753 -229.985914 
L 290.531756 -229.985914 
L 289.74376 -229.985914 
L 288.955763 -229.985914 
L 288.167767 -229.985914 
L 287.379771 -229.985914 
L 286.591774 -229.985914 
L 285.803778 -229.985914 
L 285.015781 -229.985914 
L 284.227785 -229.985914 
L 283.439788 -229.985914 
L 282.651792 -229.985914 
L 281.863795 -229.985914 
L 281.075799 -229.985914 
L 280.287802 -229.985914 
L 279.499806 -229.985914 
L 278.711809 -229.985914 
L 277.923813 -229.985914 
L 277.135816 -229.985914 
L 276.34782 -229.985914 
L 275.559823 -229.985914 
L 274.771827 -229.985914 
L 273.983831 -229.985914 
L 273.195834 -229.985914 
L 272.407838 -229.985914 
L 271.619841 -229.985914 
L 270.831845 -229.985914 
L 270.043848 -229.985914 
L 269.255852 -229.985914 
L 268.467855 -229.985914 
L 267.679859 -229.985914 
L 266.891862 -229.985914 
L 266.103866 -229.985914 
L 265.315869 -229.985914 
L 264.527873 -229.985914 
L 263.739876 -229.985914 
L 262.95188 -229.985914 
L 262.163883 -229.985914 
L 261.375887 -229.985914 
L 260.587891 -229.985914 
L 259.799894 -229.985914 
L 259.011898 -229.985914 
L 258.223901 -229.985914 
L 257.435905 -229.985914 
L 256.647908 -229.985914 
L 255.859912 -229.985914 
L 255.071915 -229.985914 
L 254.283919 -229.985914 
L 253.495922 -229.985914 
L 252.707926 -229.985914 
L 251.919929 -229.985914 
L 251.131933 -229.985914 
L 250.343936 -229.985914 
L 249.55594 -229.985914 
L 248.767944 -229.985914 
L 247.979947 -229.985914 
L 247.191951 -229.985914 
L 246.403954 -229.985914 
L 245.615958 -229.985914 
L 244.827961 -229.985914 
L 244.039965 -229.985914 
L 243.251968 -229.985914 
L 242.463972 -229.985914 
L 241.675975 -229.985914 
L 240.887979 -229.985914 
L 240.099982 -229.985914 
L 239.311986 -229.985914 
L 238.523989 -229.985914 
L 237.735993 -229.985914 
L 236.947996 -229.985914 
L 236.16 -229.985914 
L 235.372004 -229.985914 
L 234.584007 -229.985914 
L 233.796011 -229.985914 
L 233.008014 -229.985914 
L 232.220018 -229.985914 
L 231.432021 -229.985914 
L 230.644025 -229.985914 
L 229.856028 -229.985914 
L 229.068032 -229.985914 
L 228.280035 -229.985914 
L 227.492039 -229.985914 
L 226.704042 -229.985914 
L 225.916046 -229.985914 
L 225.128049 -229.985914 
L 224.340053 -229.985914 
L 223.552056 -229.985914 
L 222.76406 -229.985914 
L 221.976064 -229.985914 
L 221.188067 -229.985914 
L 220.400071 -229.985914 
L 219.612074 -229.985914 
L 218.824078 -229.985914 
L 218.036081 -229.985914 
L 217.248085 -229.985914 
L 216.460088 -229.985914 
L 215.672092 -229.985914 
L 214.884095 -229.985914 
L 214.096099 -229.985914 
L 213.308102 -229.985914 
L 212.520106 -229.985914 
L 211.732109 -229.985914 
L 210.944113 -229.985914 
L 210.156117 -229.985914 
L 209.36812 -229.985914 
L 208.580124 -229.985914 
L 207.792127 -229.985914 
L 207.004131 -229.985914 
L 206.216134 -229.985914 
L 205.428138 -229.985914 
L 204.640141 -229.985914 
L 203.852145 -229.985914 
L 203.064148 -229.985914 
L 202.276152 -229.985914 
L 201.488155 -229.985914 
L 200.700159 -229.985914 
L 199.912162 -229.985914 
L 199.124166 -229.985914 
L 198.336169 -229.985914 
L 197.548173 -229.985914 
L 196.760177 -229.985914 
L 195.97218 -229.985914 
L 195.184184 -229.985914 
L 194.396187 -229.985914 
L 193.608191 -229.985914 
L 192.820194 -229.985914 
L 192.032198 -229.985914 
L 191.244201 -229.985914 
L 190.456205 -229.985914 
L 189.668208 -229.985914 
L 188.880212 -229.985914 
L 188.092215 -229.985914 
L 187.304219 -229.985914 
L 186.516222 -229.985914 
L 185.728226 -229.985914 
L 184.940229 -229.985914 
L 184.152233 -229.985914 
L 183.364237 -229.985914 
L 182.57624 -229.985914 
L 181.788244 -229.985914 
L 181.000247 -229.985914 
L 180.212251 -229.985914 
L 179.424254 -229.985914 
L 178.636258 -229.985914 
L 177.848261 -229.985914 
L 177.060265 -229.985914 
L 176.272268 -229.985914 
L 175.484272 -229.985914 
L 174.696275 -229.985914 
L 173.908279 -229.985914 
L 173.120282 -229.985914 
L 172.332286 -229.985914 
L 171.544289 -229.985914 
L 170.756293 -229.985914 
L 169.968297 -229.985914 
L 169.1803 -229.985914 
L 168.392304 -229.985914 
L 167.604307 -229.985914 
L 166.816311 -229.985914 
L 166.028314 -229.985914 
L 165.240318 -229.985914 
L 164.452321 -229.985914 
L 163.664325 -229.985914 
L 162.876328 -229.985914 
L 162.088332 -229.985914 
L 161.300335 -229.985914 
L 160.512339 -229.985914 
L 159.724342 -229.985914 
L 158.936346 -229.985914 
L 158.14835 -229.985914 
L 157.360353 -229.985914 
L 156.572357 -229.985914 
L 155.78436 -229.985914 
L 154.996364 -229.985914 
L 154.208367 -229.985914 
L 153.420371 -229.985914 
L 152.632374 -229.985914 
L 151.844378 -229.985914 
L 151.056381 -229.985914 
L 150.268385 -229.985914 
L 149.480388 -229.985914 
L 148.692392 -229.985914 
L 147.904395 -229.985914 
L 147.116399 -229.985914 
L 146.328402 -229.985914 
L 145.540406 -229.985914 
L 144.75241 -229.985914 
L 143.964413 -229.985914 
L 143.176417 -229.985914 
L 142.38842 -229.985914 
L 141.600424 -229.985914 
L 140.812427 -229.985914 
L 140.024431 -229.985914 
L 139.236434 -229.985914 
L 138.448438 -229.985914 
L 137.660441 -229.985914 
L 136.872445 -229.985914 
L 136.084448 -229.985914 
L 135.296452 -229.985914 
L 134.508455 -229.985914 
L 133.720459 -229.985914 
L 132.932462 -229.985914 
L 132.144466 -229.985914 
L 131.35647 -229.985914 
L 130.568473 -229.985914 
L 129.780477 -229.985914 
L 128.99248 -229.985914 
L 128.204484 -229.985914 
L 127.416487 -229.985914 
L 126.628491 -229.985914 
L 125.840494 -229.985914 
L 125.052498 -229.985914 
L 124.264501 -229.985914 
L 123.476505 -229.985914 
L 122.688508 -229.985914 
L 121.900512 -229.985914 
L 121.112515 -229.985914 
L 120.324519 -229.985914 
L 119.536523 -229.985914 
L 118.748526 -229.985914 
L 117.96053 -229.985914 
L 117.172533 -229.985914 
L 116.384537 -229.985914 
L 115.59654 -229.985914 
L 114.808544 -229.985914 
L 114.020547 -229.985914 
L 113.232551 -229.985914 
L 112.444554 -229.985914 
L 111.656558 -229.985914 
L 110.868561 -229.985914 
L 110.080565 -229.985914 
L 109.292568 -229.985914 
L 108.504572 -229.985914 
L 107.716575 -229.985914 
L 106.928579 -229.985914 
L 106.140583 -229.985914 
L 105.352586 -229.985914 
L 104.56459 -229.985914 
L 103.776593 -229.985914 
L 102.988597 -229.985914 
L 102.2006 -229.985914 
L 101.412604 -229.985914 
L 100.624607 -229.985914 
L 99.836611 -229.985914 
L 99.048614 -229.985914 
L 98.260618 -229.985914 
L 97.472621 -229.985914 
L 96.684625 -229.985914 
L 95.896628 -229.985914 
L 95.108632 -229.985914 
L 94.320635 -229.985914 
L 93.532639 -229.985914 
L 92.744643 -229.985914 
L 91.956646 -229.985914 
L 91.16865 -229.985914 
L 90.380653 -229.985914 
L 89.592657 -229.985914 
L 88.80466 -229.985914 
L 88.016664 -229.985914 
L 87.228667 -229.985914 
L 86.440671 -229.985914 
L 85.652674 -229.985914 
L 84.864678 -229.985914 
L 84.076681 -229.985914 
L 83.288685 -229.985914 
L 82.500688 -229.985914 
L 81.712692 -229.985914 
L 80.924695 -229.985914 
L 80.136699 -229.985914 
L 79.348703 -229.985914 
L 78.560706 -229.985914 
L 77.77271 -229.985914 
L 76.984713 -229.985914 
L 76.196717 -229.985914 
L 75.40872 -229.985914 
L 74.620724 -229.985914 
L 73.832727 -229.985914 
z
" id="m71176fe3ff" style="stroke:#4b0082;stroke-opacity:0.3;"/>
    </defs>
    <g clip-path="url(#p394cac451a)">
     <use style="fill:#4b0082;fill-opacity:0.3;stroke:#4b0082;stroke-opacity:0.3;" x="0" xlink:href="#m71176fe3ff" y="345.6"/>
    </g>
   </g>
   <g id="matplotlib.axis_1">
    <g id="xtick_1">
     <g id="line2d_1">
      <defs>
       <path d="M 0 0 
L 0 3.5 
" id="m429a0a46c9" style="stroke:#000000;stroke-width:0.8;"/>
      </defs>
      <g>
       <use style="stroke:#000000;stroke-width:0.8;" x="73.832727" xlink:href="#m429a0a46c9" y="307.584"/>
      </g>
     </g>
     <g id="text_1">
      <!-- 2020-01 -->
      <g transform="translate(52.941321 322.182437)scale(0.1 -0.1)">
       <defs>
        <path d="M 19.1875 8.296875 
L 53.609375 8.296875 
L 53.609375 0 
L 7.328125 0 
L 7.328125 8.296875 
Q 12.9375 14.109375 22.625 23.890625 
Q 32.328125 33.6875 34.8125 36.53125 
Q 39.546875 41.84375 41.421875 45.53125 
Q 43.3125 49.21875 43.3125 52.78125 
Q 43.3125 58.59375 39.234375 62.25 
Q 35.15625 65.921875 28.609375 65.921875 
Q 23.96875 65.921875 18.8125 64.3125 
Q 13.671875 62.703125 7.8125 59.421875 
L 7.8125 69.390625 
Q 13.765625 71.78125 18.9375 73 
Q 24.125 74.21875 28.421875 74.21875 
Q 39.75 74.21875 46.484375 68.546875 
Q 53.21875 62.890625 53.21875 53.421875 
Q 53.21875 48.921875 51.53125 44.890625 
Q 49.859375 40.875 45.40625 35.40625 
Q 44.1875 33.984375 37.640625 27.21875 
Q 31.109375 20.453125 19.1875 8.296875 
z
" id="DejaVuSans-50"/>
        <path d="M 31.78125 66.40625 
Q 24.171875 66.40625 20.328125 58.90625 
Q 16.5 51.421875 16.5 36.375 
Q 16.5 21.390625 20.328125 13.890625 
Q 24.171875 6.390625 31.78125 6.390625 
Q 39.453125 6.390625 43.28125 13.890625 
Q 47.125 21.390625 47.125 36.375 
Q 47.125 51.421875 43.28125 58.90625 
Q 39.453125 66.40625 31.78125 66.40625 
z
M 31.78125 74.21875 
Q 44.046875 74.21875 50.515625 64.515625 
Q 56.984375 54.828125 56.984375 36.375 
Q 56.984375 17.96875 50.515625 8.265625 
Q 44.046875 -1.421875 31.78125 -1.421875 
Q 19.53125 -1.421875 13.0625 8.265625 
Q 6.59375 17.96875 6.59375 36.375 
Q 6.59375 54.828125 13.0625 64.515625 
Q 19.53125 74.21875 31.78125 74.21875 
z
" id="DejaVuSans-48"/>
        <path d="M 4.890625 31.390625 
L 31.203125 31.390625 
L 31.203125 23.390625 
L 4.890625 23.390625 
z
" id="DejaVuSans-45"/>
        <path d="M 12.40625 8.296875 
L 28.515625 8.296875 
L 28.515625 63.921875 
L 10.984375 60.40625 
L 10.984375 69.390625 
L 28.421875 72.90625 
L 38.28125 72.90625 
L 38.28125 8.296875 
L 54.390625 8.296875 
L 54.390625 0 
L 12.40625 0 
z
" id="DejaVuSans-49"/>
       </defs>
       <use xlink:href="#DejaVuSans-50"/>
       <use x="63.623047" xlink:href="#DejaVuSans-48"/>
       <use x="127.246094" xlink:href="#DejaVuSans-50"/>
       <use x="190.869141" xlink:href="#DejaVuSans-48"/>
       <use x="254.492188" xlink:href="#DejaVuSans-45"/>
       <use x="290.576172" xlink:href="#DejaVuSans-48"/>
       <use x="354.199219" xlink:href="#DejaVuSans-49"/>
      </g>
     </g>
    </g>
    <g id="xtick_2">
     <g id="line2d_2">
      <g>
       <use style="stroke:#000000;stroke-width:0.8;" x="121.112515" xlink:href="#m429a0a46c9" y="307.584"/>
      </g>
     </g>
     <g id="text_2">
      <!-- 2020-03 -->
      <g transform="translate(100.221109 322.182437)scale(0.1 -0.1)">
       <defs>
        <path d="M 40.578125 39.3125 
Q 47.65625 37.796875 51.625 33 
Q 55.609375 28.21875 55.609375 21.1875 
Q 55.609375 10.40625 48.1875 4.484375 
Q 40.765625 -1.421875 27.09375 -1.421875 
Q 22.515625 -1.421875 17.65625 -0.515625 
Q 12.796875 0.390625 7.625 2.203125 
L 7.625 11.71875 
Q 11.71875 9.328125 16.59375 8.109375 
Q 21.484375 6.890625 26.8125 6.890625 
Q 36.078125 6.890625 40.9375 10.546875 
Q 45.796875 14.203125 45.796875 21.1875 
Q 45.796875 27.640625 41.28125 31.265625 
Q 36.765625 34.90625 28.71875 34.90625 
L 20.21875 34.90625 
L 20.21875 43.015625 
L 29.109375 43.015625 
Q 36.375 43.015625 40.234375 45.921875 
Q 44.09375 48.828125 44.09375 54.296875 
Q 44.09375 59.90625 40.109375 62.90625 
Q 36.140625 65.921875 28.71875 65.921875 
Q 24.65625 65.921875 20.015625 65.03125 
Q 15.375 64.15625 9.8125 62.3125 
L 9.8125 71.09375 
Q 15.4375 72.65625 20.34375 73.4375 
Q 25.25 74.21875 29.59375 74.21875 
Q 40.828125 74.21875 47.359375 69.109375 
Q 53.90625 64.015625 53.90625 55.328125 
Q 53.90625 49.265625 50.4375 45.09375 
Q 46.96875 40.921875 40.578125 39.3125 
z
" id="DejaVuSans-51"/>
       </defs>
       <use xlink:href="#DejaVuSans-50"/>
       <use x="63.623047" xlink:href="#DejaVuSans-48"/>
       <use x="127.246094" xlink:href="#DejaVuSans-50"/>
       <use x="190.869141" xlink:href="#DejaVuSans-48"/>
       <use x="254.492188" xlink:href="#DejaVuSans-45"/>
       <use x="290.576172" xlink:href="#DejaVuSans-48"/>
       <use x="354.199219" xlink:href="#DejaVuSans-51"/>
      </g>
     </g>
    </g>
    <g id="xtick_3">
     <g id="line2d_3">
      <g>
       <use style="stroke:#000000;stroke-width:0.8;" x="169.1803" xlink:href="#m429a0a46c9" y="307.584"/>
      </g>
     </g>
     <g id="text_3">
      <!-- 2020-05 -->
      <g transform="translate(148.288894 322.182437)scale(0.1 -0.1)">
       <defs>
        <path d="M 10.796875 72.90625 
L 49.515625 72.90625 
L 49.515625 64.59375 
L 19.828125 64.59375 
L 19.828125 46.734375 
Q 21.96875 47.46875 24.109375 47.828125 
Q 26.265625 48.1875 28.421875 48.1875 
Q 40.625 48.1875 47.75 41.5 
Q 54.890625 34.8125 54.890625 23.390625 
Q 54.890625 11.625 47.5625 5.09375 
Q 40.234375 -1.421875 26.90625 -1.421875 
Q 22.3125 -1.421875 17.546875 -0.640625 
Q 12.796875 0.140625 7.71875 1.703125 
L 7.71875 11.625 
Q 12.109375 9.234375 16.796875 8.0625 
Q 21.484375 6.890625 26.703125 6.890625 
Q 35.15625 6.890625 40.078125 11.328125 
Q 45.015625 15.765625 45.015625 23.390625 
Q 45.015625 31 40.078125 35.4375 
Q 35.15625 39.890625 26.703125 39.890625 
Q 22.75 39.890625 18.8125 39.015625 
Q 14.890625 38.140625 10.796875 36.28125 
z
" id="DejaVuSans-53"/>
       </defs>
       <use xlink:href="#DejaVuSans-50"/>
       <use x="63.623047" xlink:href="#DejaVuSans-48"/>
       <use x="127.246094" xlink:href="#DejaVuSans-50"/>
       <use x="190.869141" xlink:href="#DejaVuSans-48"/>
       <use x="254.492188" xlink:href="#DejaVuSans-45"/>
       <use x="290.576172" xlink:href="#DejaVuSans-48"/>
       <use x="354.199219" xlink:href="#DejaVuSans-53"/>
      </g>
     </g>
    </g>
    <g id="xtick_4">
     <g id="line2d_4">
      <g>
       <use style="stroke:#000000;stroke-width:0.8;" x="217.248085" xlink:href="#m429a0a46c9" y="307.584"/>
      </g>
     </g>
     <g id="text_4">
      <!-- 2020-07 -->
      <g transform="translate(196.356678 322.182437)scale(0.1 -0.1)">
       <defs>
        <path d="M 8.203125 72.90625 
L 55.078125 72.90625 
L 55.078125 68.703125 
L 28.609375 0 
L 18.3125 0 
L 43.21875 64.59375 
L 8.203125 64.59375 
z
" id="DejaVuSans-55"/>
       </defs>
       <use xlink:href="#DejaVuSans-50"/>
       <use x="63.623047" xlink:href="#DejaVuSans-48"/>
       <use x="127.246094" xlink:href="#DejaVuSans-50"/>
       <use x="190.869141" xlink:href="#DejaVuSans-48"/>
       <use x="254.492188" xlink:href="#DejaVuSans-45"/>
       <use x="290.576172" xlink:href="#DejaVuSans-48"/>
       <use x="354.199219" xlink:href="#DejaVuSans-55"/>
      </g>
     </g>
    </g>
    <g id="xtick_5">
     <g id="line2d_5">
      <g>
       <use style="stroke:#000000;stroke-width:0.8;" x="266.103866" xlink:href="#m429a0a46c9" y="307.584"/>
      </g>
     </g>
     <g id="text_5">
      <!-- 2020-09 -->
      <g transform="translate(245.21246 322.182437)scale(0.1 -0.1)">
       <defs>
        <path d="M 10.984375 1.515625 
L 10.984375 10.5 
Q 14.703125 8.734375 18.5 7.8125 
Q 22.3125 6.890625 25.984375 6.890625 
Q 35.75 6.890625 40.890625 13.453125 
Q 46.046875 20.015625 46.78125 33.40625 
Q 43.953125 29.203125 39.59375 26.953125 
Q 35.25 24.703125 29.984375 24.703125 
Q 19.046875 24.703125 12.671875 31.3125 
Q 6.296875 37.9375 6.296875 49.421875 
Q 6.296875 60.640625 12.9375 67.421875 
Q 19.578125 74.21875 30.609375 74.21875 
Q 43.265625 74.21875 49.921875 64.515625 
Q 56.59375 54.828125 56.59375 36.375 
Q 56.59375 19.140625 48.40625 8.859375 
Q 40.234375 -1.421875 26.421875 -1.421875 
Q 22.703125 -1.421875 18.890625 -0.6875 
Q 15.09375 0.046875 10.984375 1.515625 
z
M 30.609375 32.421875 
Q 37.25 32.421875 41.125 36.953125 
Q 45.015625 41.5 45.015625 49.421875 
Q 45.015625 57.28125 41.125 61.84375 
Q 37.25 66.40625 30.609375 66.40625 
Q 23.96875 66.40625 20.09375 61.84375 
Q 16.21875 57.28125 16.21875 49.421875 
Q 16.21875 41.5 20.09375 36.953125 
Q 23.96875 32.421875 30.609375 32.421875 
z
" id="DejaVuSans-57"/>
       </defs>
       <use xlink:href="#DejaVuSans-50"/>
       <use x="63.623047" xlink:href="#DejaVuSans-48"/>
       <use x="127.246094" xlink:href="#DejaVuSans-50"/>
       <use x="190.869141" xlink:href="#DejaVuSans-48"/>
       <use x="254.492188" xlink:href="#DejaVuSans-45"/>
       <use x="290.576172" xlink:href="#DejaVuSans-48"/>
       <use x="354.199219" xlink:href="#DejaVuSans-57"/>
      </g>
     </g>
    </g>
    <g id="xtick_6">
     <g id="line2d_6">
      <g>
       <use style="stroke:#000000;stroke-width:0.8;" x="314.17165" xlink:href="#m429a0a46c9" y="307.584"/>
      </g>
     </g>
     <g id="text_6">
      <!-- 2020-11 -->
      <g transform="translate(293.280244 322.182437)scale(0.1 -0.1)">
       <use xlink:href="#DejaVuSans-50"/>
       <use x="63.623047" xlink:href="#DejaVuSans-48"/>
       <use x="127.246094" xlink:href="#DejaVuSans-50"/>
       <use x="190.869141" xlink:href="#DejaVuSans-48"/>
       <use x="254.492188" xlink:href="#DejaVuSans-45"/>
       <use x="290.576172" xlink:href="#DejaVuSans-49"/>
       <use x="354.199219" xlink:href="#DejaVuSans-49"/>
      </g>
     </g>
    </g>
    <g id="xtick_7">
     <g id="line2d_7">
      <g>
       <use style="stroke:#000000;stroke-width:0.8;" x="362.239435" xlink:href="#m429a0a46c9" y="307.584"/>
      </g>
     </g>
     <g id="text_7">
      <!-- 2021-01 -->
      <g transform="translate(341.348029 322.182437)scale(0.1 -0.1)">
       <use xlink:href="#DejaVuSans-50"/>
       <use x="63.623047" xlink:href="#DejaVuSans-48"/>
       <use x="127.246094" xlink:href="#DejaVuSans-50"/>
       <use x="190.869141" xlink:href="#DejaVuSans-49"/>
       <use x="254.492188" xlink:href="#DejaVuSans-45"/>
       <use x="290.576172" xlink:href="#DejaVuSans-48"/>
       <use x="354.199219" xlink:href="#DejaVuSans-49"/>
      </g>
     </g>
    </g>
    <g id="xtick_8">
     <g id="line2d_8">
      <g>
       <use style="stroke:#000000;stroke-width:0.8;" x="408.731227" xlink:href="#m429a0a46c9" y="307.584"/>
      </g>
     </g>
     <g id="text_8">
      <!-- 2021-03 -->
      <g transform="translate(387.839821 322.182437)scale(0.1 -0.1)">
       <use xlink:href="#DejaVuSans-50"/>
       <use x="63.623047" xlink:href="#DejaVuSans-48"/>
       <use x="127.246094" xlink:href="#DejaVuSans-50"/>
       <use x="190.869141" xlink:href="#DejaVuSans-49"/>
       <use x="254.492188" xlink:href="#DejaVuSans-45"/>
       <use x="290.576172" xlink:href="#DejaVuSans-48"/>
       <use x="354.199219" xlink:href="#DejaVuSans-51"/>
      </g>
     </g>
    </g>
   </g>
   <g id="matplotlib.axis_2">
    <g id="ytick_1">
     <g id="line2d_9">
      <defs>
       <path d="M 0 0 
L -3.5 0 
" id="m44b28854bb" style="stroke:#000000;stroke-width:0.8;"/>
      </defs>
      <g>
       <use style="stroke:#000000;stroke-width:0.8;" x="57.6" xlink:href="#m44b28854bb" y="307.584"/>
      </g>
     </g>
     <g id="text_9">
      <!-- 0 -->
      <g transform="translate(44.2375 311.383219)scale(0.1 -0.1)">
       <use xlink:href="#DejaVuSans-48"/>
      </g>
     </g>
    </g>
    <g id="ytick_2">
     <g id="line2d_10">
      <g>
       <use style="stroke:#000000;stroke-width:0.8;" x="57.6" xlink:href="#m44b28854bb" y="252.735453"/>
      </g>
     </g>
     <g id="text_10">
      <!-- 20 -->
      <g transform="translate(37.875 256.534672)scale(0.1 -0.1)">
       <use xlink:href="#DejaVuSans-50"/>
       <use x="63.623047" xlink:href="#DejaVuSans-48"/>
      </g>
     </g>
    </g>
    <g id="ytick_3">
     <g id="line2d_11">
      <g>
       <use style="stroke:#000000;stroke-width:0.8;" x="57.6" xlink:href="#m44b28854bb" y="197.886907"/>
      </g>
     </g>
     <g id="text_11">
      <!-- 40 -->
      <g transform="translate(37.875 201.686125)scale(0.1 -0.1)">
       <defs>
        <path d="M 37.796875 64.3125 
L 12.890625 25.390625 
L 37.796875 25.390625 
z
M 35.203125 72.90625 
L 47.609375 72.90625 
L 47.609375 25.390625 
L 58.015625 25.390625 
L 58.015625 17.1875 
L 47.609375 17.1875 
L 47.609375 0 
L 37.796875 0 
L 37.796875 17.1875 
L 4.890625 17.1875 
L 4.890625 26.703125 
z
" id="DejaVuSans-52"/>
       </defs>
       <use xlink:href="#DejaVuSans-52"/>
       <use x="63.623047" xlink:href="#DejaVuSans-48"/>
      </g>
     </g>
    </g>
    <g id="ytick_4">
     <g id="line2d_12">
      <g>
       <use style="stroke:#000000;stroke-width:0.8;" x="57.6" xlink:href="#m44b28854bb" y="143.03836"/>
      </g>
     </g>
     <g id="text_12">
      <!-- 60 -->
      <g transform="translate(37.875 146.837579)scale(0.1 -0.1)">
       <defs>
        <path d="M 33.015625 40.375 
Q 26.375 40.375 22.484375 35.828125 
Q 18.609375 31.296875 18.609375 23.390625 
Q 18.609375 15.53125 22.484375 10.953125 
Q 26.375 6.390625 33.015625 6.390625 
Q 39.65625 6.390625 43.53125 10.953125 
Q 47.40625 15.53125 47.40625 23.390625 
Q 47.40625 31.296875 43.53125 35.828125 
Q 39.65625 40.375 33.015625 40.375 
z
M 52.59375 71.296875 
L 52.59375 62.3125 
Q 48.875 64.0625 45.09375 64.984375 
Q 41.3125 65.921875 37.59375 65.921875 
Q 27.828125 65.921875 22.671875 59.328125 
Q 17.53125 52.734375 16.796875 39.40625 
Q 19.671875 43.65625 24.015625 45.921875 
Q 28.375 48.1875 33.59375 48.1875 
Q 44.578125 48.1875 50.953125 41.515625 
Q 57.328125 34.859375 57.328125 23.390625 
Q 57.328125 12.15625 50.6875 5.359375 
Q 44.046875 -1.421875 33.015625 -1.421875 
Q 20.359375 -1.421875 13.671875 8.265625 
Q 6.984375 17.96875 6.984375 36.375 
Q 6.984375 53.65625 15.1875 63.9375 
Q 23.390625 74.21875 37.203125 74.21875 
Q 40.921875 74.21875 44.703125 73.484375 
Q 48.484375 72.75 52.59375 71.296875 
z
" id="DejaVuSans-54"/>
       </defs>
       <use xlink:href="#DejaVuSans-54"/>
       <use x="63.623047" xlink:href="#DejaVuSans-48"/>
      </g>
     </g>
    </g>
    <g id="ytick_5">
     <g id="line2d_13">
      <g>
       <use style="stroke:#000000;stroke-width:0.8;" x="57.6" xlink:href="#m44b28854bb" y="88.189813"/>
      </g>
     </g>
     <g id="text_13">
      <!-- 80 -->
      <g transform="translate(37.875 91.989032)scale(0.1 -0.1)">
       <defs>
        <path d="M 31.78125 34.625 
Q 24.75 34.625 20.71875 30.859375 
Q 16.703125 27.09375 16.703125 20.515625 
Q 16.703125 13.921875 20.71875 10.15625 
Q 24.75 6.390625 31.78125 6.390625 
Q 38.8125 6.390625 42.859375 10.171875 
Q 46.921875 13.96875 46.921875 20.515625 
Q 46.921875 27.09375 42.890625 30.859375 
Q 38.875 34.625 31.78125 34.625 
z
M 21.921875 38.8125 
Q 15.578125 40.375 12.03125 44.71875 
Q 8.5 49.078125 8.5 55.328125 
Q 8.5 64.0625 14.71875 69.140625 
Q 20.953125 74.21875 31.78125 74.21875 
Q 42.671875 74.21875 48.875 69.140625 
Q 55.078125 64.0625 55.078125 55.328125 
Q 55.078125 49.078125 51.53125 44.71875 
Q 48 40.375 41.703125 38.8125 
Q 48.828125 37.15625 52.796875 32.3125 
Q 56.78125 27.484375 56.78125 20.515625 
Q 56.78125 9.90625 50.3125 4.234375 
Q 43.84375 -1.421875 31.78125 -1.421875 
Q 19.734375 -1.421875 13.25 4.234375 
Q 6.78125 9.90625 6.78125 20.515625 
Q 6.78125 27.484375 10.78125 32.3125 
Q 14.796875 37.15625 21.921875 38.8125 
z
M 18.3125 54.390625 
Q 18.3125 48.734375 21.84375 45.5625 
Q 25.390625 42.390625 31.78125 42.390625 
Q 38.140625 42.390625 41.71875 45.5625 
Q 45.3125 48.734375 45.3125 54.390625 
Q 45.3125 60.0625 41.71875 63.234375 
Q 38.140625 66.40625 31.78125 66.40625 
Q 25.390625 66.40625 21.84375 63.234375 
Q 18.3125 60.0625 18.3125 54.390625 
z
" id="DejaVuSans-56"/>
       </defs>
       <use xlink:href="#DejaVuSans-56"/>
       <use x="63.623047" xlink:href="#DejaVuSans-48"/>
      </g>
     </g>
    </g>
   </g>
   <g id="line2d_14">
    <path clip-path="url(#p394cac451a)" d="M 86.440671 97.159301 
L 87.228667 95.222408 
L 88.016664 101.217116 
L 88.80466 111.04618 
L 89.592657 124.880192 
L 90.380653 132.8246 
L 91.16865 136.323439 
L 92.744643 145.758179 
L 93.532639 147.646894 
L 94.320635 137.926078 
L 95.108632 132.834722 
L 95.896628 131.873485 
L 96.684625 132.107502 
L 97.472621 136.052236 
L 98.260618 137.270185 
L 99.048614 139.394464 
L 99.836611 134.132836 
L 100.624607 133.930037 
L 101.412604 129.9499 
L 102.2006 118.609392 
L 102.988597 102.453123 
L 103.776593 90.594635 
L 104.56459 86.843942 
L 105.352586 94.175195 
L 106.140583 106.193916 
L 106.928579 114.720818 
L 107.716575 117.811467 
L 108.504572 113.61668 
L 109.292568 124.59533 
L 110.080565 128.9166 
L 110.868561 143.15457 
L 111.656558 137.888493 
L 112.444554 148.528174 
L 113.232551 157.326188 
L 114.020547 174.011796 
L 114.808544 177.538748 
L 116.384537 179.464704 
L 117.172533 189.897103 
L 118.748526 223.589754 
L 119.536523 231.981153 
L 120.324519 231.929335 
L 121.112515 233.361974 
L 121.900512 222.352586 
L 122.688508 224.495172 
L 123.476505 220.048586 
L 124.264501 218.635166 
L 125.052498 205.648327 
L 125.840494 201.317256 
L 127.416487 231.805849 
L 128.204484 241.716888 
L 128.99248 232.190605 
L 129.780477 240.604847 
L 130.568473 241.420814 
L 131.35647 249.209979 
L 132.144466 238.680305 
L 132.932462 243.210658 
L 133.720459 242.8092 
L 134.508455 243.62838 
L 135.296452 234.443064 
L 136.872445 225.005736 
L 137.660441 222.859735 
L 140.024431 195.470602 
L 140.812427 166.542577 
L 141.600424 150.944635 
L 142.38842 129.556699 
L 143.176417 142.663719 
L 143.964413 135.121091 
L 144.75241 135.40403 
L 145.540406 126.899315 
L 146.328402 134.289194 
L 147.904395 145.329634 
L 149.480388 134.105994 
L 150.268385 136.238063 
L 151.056381 139.830724 
L 151.844378 144.391924 
L 152.632374 143.739581 
L 153.420371 144.431889 
L 154.208367 134.945267 
L 154.996364 133.171372 
L 155.78436 133.411794 
L 156.572357 151.86813 
L 157.360353 155.546305 
L 158.14835 159.885883 
L 158.936346 152.543104 
L 159.724342 152.002575 
L 161.300335 180.304776 
L 162.088332 191.158383 
L 162.876328 178.175749 
L 164.452321 140.471236 
L 165.240318 128.650127 
L 166.028314 123.760994 
L 166.816311 120.12781 
L 167.604307 104.712901 
L 168.392304 98.207605 
L 169.1803 87.464436 
L 169.968297 90.81074 
L 170.756293 86.342246 
L 173.120282 61.615807 
L 173.908279 60.160773 
L 174.696275 63.85327 
L 175.484272 72.708294 
L 177.060265 122.492843 
L 177.848261 138.642548 
L 178.636258 144.002549 
L 179.424254 140.179769 
L 180.212251 146.373031 
L 181.000247 148.798838 
L 181.788244 154.143267 
L 183.364237 147.538215 
L 184.152233 151.634607 
L 184.940229 169.646802 
L 185.728226 184.105604 
L 186.516222 192.03758 
L 187.304219 182.550015 
L 188.092215 171.653801 
L 188.880212 166.849995 
L 189.668208 168.00004 
L 190.456205 175.18139 
L 191.244201 173.564694 
L 192.032198 167.314323 
L 192.820194 167.334784 
L 193.608191 163.040479 
L 194.396187 170.179491 
L 195.184184 165.135428 
L 195.97218 162.743895 
L 196.760177 154.835845 
L 197.548173 150.698702 
L 198.336169 145.849103 
L 199.912162 132.215675 
L 200.700159 135.281021 
L 201.488155 150.883084 
L 203.064148 176.480927 
L 203.852145 174.365209 
L 204.640141 190.563724 
L 205.428138 187.425067 
L 206.216134 191.164112 
L 207.004131 186.406129 
L 207.792127 195.621782 
L 208.580124 199.319577 
L 209.36812 201.765689 
L 210.156117 195.051841 
L 210.944113 189.602967 
L 211.732109 188.438563 
L 212.520106 186.933706 
L 213.308102 192.406475 
L 214.096099 192.819887 
L 214.884095 197.72044 
L 215.672092 195.030397 
L 216.460088 194.022807 
L 217.248085 194.696113 
L 218.036081 196.296928 
L 218.824078 191.870647 
L 219.612074 191.421492 
L 220.400071 189.230926 
L 221.188067 192.566095 
L 221.976064 196.989281 
L 223.552056 177.239 
L 224.340053 162.864778 
L 225.128049 159.03756 
L 225.916046 152.602186 
L 226.704042 154.568699 
L 227.492039 158.564297 
L 228.280035 166.41296 
L 229.856028 166.461632 
L 230.644025 163.433888 
L 231.432021 159.556518 
L 232.220018 172.505475 
L 233.008014 168.75358 
L 233.796011 169.354867 
L 234.584007 141.289379 
L 235.372004 133.740292 
L 236.16 117.779942 
L 236.947996 112.022467 
L 237.735993 88.085819 
L 239.311986 62.894312 
L 240.099982 61.419786 
L 240.887979 56.502453 
L 241.675975 53.193522 
L 244.039965 100.833146 
L 244.827961 98.965317 
L 245.615958 99.247674 
L 246.403954 98.532408 
L 247.191951 100.193316 
L 247.979947 104.370348 
L 248.767944 114.259056 
L 249.55594 130.991833 
L 250.343936 145.079548 
L 251.131933 149.872602 
L 251.919929 150.948511 
L 252.707926 156.415676 
L 253.495922 148.90747 
L 255.071915 124.867748 
L 257.435905 169.108364 
L 258.223901 171.853118 
L 259.011898 173.990016 
L 259.799894 175.307956 
L 260.587891 175.035043 
L 261.375887 176.454359 
L 262.163883 182.624404 
L 262.95188 186.085144 
L 263.739876 191.145104 
L 264.527873 185.859559 
L 265.315869 193.446593 
L 266.103866 186.375529 
L 266.891862 189.632506 
L 267.679859 197.771885 
L 268.467855 211.168377 
L 269.255852 222.286879 
L 270.043848 217.883296 
L 270.831845 220.481188 
L 271.619841 217.266303 
L 272.407838 216.425466 
L 273.195834 212.624535 
L 273.983831 212.264662 
L 274.771827 210.125897 
L 275.559823 215.932661 
L 276.34782 213.803021 
L 277.135816 214.997609 
L 277.923813 203.40178 
L 280.287802 118.004066 
L 281.075799 116.765934 
L 281.863795 127.194978 
L 283.439788 159.296486 
L 284.227785 153.583028 
L 285.015781 157.638262 
L 285.803778 153.032875 
L 286.591774 151.803474 
L 287.379771 156.959949 
L 288.167767 161.287254 
L 288.955763 173.316963 
L 289.74376 179.9754 
L 291.319753 195.196103 
L 292.107749 194.209243 
L 292.895746 178.070641 
L 293.683742 165.010914 
L 294.471739 147.075276 
L 295.259735 149.197796 
L 296.047732 139.63781 
L 296.835728 135.995123 
L 298.411721 114.582797 
L 299.199718 113.703094 
L 299.987714 112.219977 
L 300.775711 108.616498 
L 302.351703 102.329817 
L 303.1397 106.798681 
L 303.927696 103.316568 
L 304.715693 93.690068 
L 306.291686 68.142117 
L 307.079682 66.458795 
L 307.867679 69.472079 
L 308.655675 75.117056 
L 309.443672 79.016086 
L 310.231668 77.03668 
L 311.019665 80.853294 
L 311.807661 83.381185 
L 312.595658 86.801075 
L 313.383654 80.783037 
L 314.17165 76.685504 
L 315.747643 88.425803 
L 316.53564 97.229017 
L 318.111633 89.822052 
L 318.899629 94.46508 
L 319.687626 101.536698 
L 320.475622 111.521889 
L 321.263619 112.582057 
L 322.051615 110.710563 
L 322.839612 105.554025 
L 323.627608 96.688289 
L 324.415605 99.457001 
L 325.203601 104.937685 
L 325.991598 104.402746 
L 327.56759 90.609505 
L 328.355587 94.255577 
L 329.143583 96.177627 
L 330.719576 78.968338 
L 331.507573 72.948193 
L 332.295569 74.8675 
L 333.083566 77.332898 
L 334.659559 129.641014 
L 335.447555 145.19993 
L 336.235552 136.868858 
L 337.023548 125.049111 
L 337.811545 130.165198 
L 338.599541 136.900497 
L 339.387538 145.919195 
L 340.175534 152.619164 
L 340.96353 158.311943 
L 341.751527 162.062412 
L 342.539523 157.720656 
L 344.115516 170.842429 
L 344.903513 168.581144 
L 345.691509 158.869184 
L 346.479506 151.423977 
L 347.267502 152.208584 
L 348.055499 161.012782 
L 348.843495 161.876179 
L 349.631492 153.45455 
L 351.207485 109.912406 
L 351.995481 96.932123 
L 352.783477 92.211609 
L 353.571474 99.690799 
L 354.35947 97.919845 
L 355.147467 98.14396 
L 355.935463 90.029696 
L 356.72346 88.608498 
L 357.511456 80.518022 
L 358.299453 77.597863 
L 359.087449 76.843185 
L 359.875446 77.312922 
L 360.663442 76.760363 
L 362.239435 81.529437 
L 363.027432 80.52772 
L 363.815428 74.760392 
L 364.603425 70.44702 
L 365.391421 68.298091 
L 366.179417 63.969421 
L 367.75541 51.364285 
L 368.543407 53.510053 
L 369.331403 64.617081 
L 370.907396 107.879526 
L 371.695393 120.222324 
L 372.483389 120.356465 
L 373.271386 122.465268 
L 374.059382 131.78459 
L 374.847379 145.120955 
L 375.635375 149.265376 
L 376.423372 152.48674 
L 377.211368 160.560517 
L 377.999365 187.269234 
L 378.787361 207.53941 
L 379.575357 221.410199 
L 380.363354 216.727637 
L 381.15135 208.84747 
L 381.939347 197.561496 
L 382.727343 202.690055 
L 383.51534 209.218589 
L 384.303336 211.430941 
L 385.091333 198.602938 
L 385.879329 191.49499 
L 386.667326 192.993588 
L 387.455322 188.902335 
L 388.243319 176.540953 
L 389.031315 149.177042 
L 390.607308 113.197768 
L 391.395305 111.194971 
L 392.183301 98.807085 
L 392.971297 92.55067 
L 393.759294 81.79722 
L 394.54729 79.591009 
L 395.335287 79.355958 
L 396.123283 82.198095 
L 397.699276 77.913963 
L 398.487273 75.446054 
L 398.487273 75.446054 
" style="fill:none;stroke:#ff6347;stroke-linecap:square;stroke-width:1.5;"/>
   </g>
   <g id="patch_3">
    <path d="M 57.6 307.584 
L 57.6 41.472 
" style="fill:none;stroke:#000000;stroke-linecap:square;stroke-linejoin:miter;stroke-width:0.8;"/>
   </g>
   <g id="patch_4">
    <path d="M 414.72 307.584 
L 414.72 41.472 
" style="fill:none;stroke:#000000;stroke-linecap:square;stroke-linejoin:miter;stroke-width:0.8;"/>
   </g>
   <g id="patch_5">
    <path d="M 57.6 307.584 
L 414.72 307.584 
" style="fill:none;stroke:#000000;stroke-linecap:square;stroke-linejoin:miter;stroke-width:0.8;"/>
   </g>
   <g id="patch_6">
    <path d="M 57.6 41.472 
L 414.72 41.472 
" style="fill:none;stroke:#000000;stroke-linecap:square;stroke-linejoin:miter;stroke-width:0.8;"/>
   </g>
   <g id="text_14">
    <!-- Data source: nomics -->
    <g transform="translate(184.91625 35.472)scale(0.1 -0.1)">
     <defs>
      <path d="M 19.671875 64.796875 
L 19.671875 8.109375 
L 31.59375 8.109375 
Q 46.6875 8.109375 53.6875 14.9375 
Q 60.6875 21.78125 60.6875 36.53125 
Q 60.6875 51.171875 53.6875 57.984375 
Q 46.6875 64.796875 31.59375 64.796875 
z
M 9.8125 72.90625 
L 30.078125 72.90625 
Q 51.265625 72.90625 61.171875 64.09375 
Q 71.09375 55.28125 71.09375 36.53125 
Q 71.09375 17.671875 61.125 8.828125 
Q 51.171875 0 30.078125 0 
L 9.8125 0 
z
" id="DejaVuSans-68"/>
      <path d="M 34.28125 27.484375 
Q 23.390625 27.484375 19.1875 25 
Q 14.984375 22.515625 14.984375 16.5 
Q 14.984375 11.71875 18.140625 8.90625 
Q 21.296875 6.109375 26.703125 6.109375 
Q 34.1875 6.109375 38.703125 11.40625 
Q 43.21875 16.703125 43.21875 25.484375 
L 43.21875 27.484375 
z
M 52.203125 31.203125 
L 52.203125 0 
L 43.21875 0 
L 43.21875 8.296875 
Q 40.140625 3.328125 35.546875 0.953125 
Q 30.953125 -1.421875 24.3125 -1.421875 
Q 15.921875 -1.421875 10.953125 3.296875 
Q 6 8.015625 6 15.921875 
Q 6 25.140625 12.171875 29.828125 
Q 18.359375 34.515625 30.609375 34.515625 
L 43.21875 34.515625 
L 43.21875 35.40625 
Q 43.21875 41.609375 39.140625 45 
Q 35.0625 48.390625 27.6875 48.390625 
Q 23 48.390625 18.546875 47.265625 
Q 14.109375 46.140625 10.015625 43.890625 
L 10.015625 52.203125 
Q 14.9375 54.109375 19.578125 55.046875 
Q 24.21875 56 28.609375 56 
Q 40.484375 56 46.34375 49.84375 
Q 52.203125 43.703125 52.203125 31.203125 
z
" id="DejaVuSans-97"/>
      <path d="M 18.3125 70.21875 
L 18.3125 54.6875 
L 36.8125 54.6875 
L 36.8125 47.703125 
L 18.3125 47.703125 
L 18.3125 18.015625 
Q 18.3125 11.328125 20.140625 9.421875 
Q 21.96875 7.515625 27.59375 7.515625 
L 36.8125 7.515625 
L 36.8125 0 
L 27.59375 0 
Q 17.1875 0 13.234375 3.875 
Q 9.28125 7.765625 9.28125 18.015625 
L 9.28125 47.703125 
L 2.6875 47.703125 
L 2.6875 54.6875 
L 9.28125 54.6875 
L 9.28125 70.21875 
z
" id="DejaVuSans-116"/>
      <path id="DejaVuSans-32"/>
      <path d="M 44.28125 53.078125 
L 44.28125 44.578125 
Q 40.484375 46.53125 36.375 47.5 
Q 32.28125 48.484375 27.875 48.484375 
Q 21.1875 48.484375 17.84375 46.4375 
Q 14.5 44.390625 14.5 40.28125 
Q 14.5 37.15625 16.890625 35.375 
Q 19.28125 33.59375 26.515625 31.984375 
L 29.59375 31.296875 
Q 39.15625 29.25 43.1875 25.515625 
Q 47.21875 21.78125 47.21875 15.09375 
Q 47.21875 7.46875 41.1875 3.015625 
Q 35.15625 -1.421875 24.609375 -1.421875 
Q 20.21875 -1.421875 15.453125 -0.5625 
Q 10.6875 0.296875 5.421875 2 
L 5.421875 11.28125 
Q 10.40625 8.6875 15.234375 7.390625 
Q 20.0625 6.109375 24.8125 6.109375 
Q 31.15625 6.109375 34.5625 8.28125 
Q 37.984375 10.453125 37.984375 14.40625 
Q 37.984375 18.0625 35.515625 20.015625 
Q 33.0625 21.96875 24.703125 23.78125 
L 21.578125 24.515625 
Q 13.234375 26.265625 9.515625 29.90625 
Q 5.8125 33.546875 5.8125 39.890625 
Q 5.8125 47.609375 11.28125 51.796875 
Q 16.75 56 26.8125 56 
Q 31.78125 56 36.171875 55.265625 
Q 40.578125 54.546875 44.28125 53.078125 
z
" id="DejaVuSans-115"/>
      <path d="M 30.609375 48.390625 
Q 23.390625 48.390625 19.1875 42.75 
Q 14.984375 37.109375 14.984375 27.296875 
Q 14.984375 17.484375 19.15625 11.84375 
Q 23.34375 6.203125 30.609375 6.203125 
Q 37.796875 6.203125 41.984375 11.859375 
Q 46.1875 17.53125 46.1875 27.296875 
Q 46.1875 37.015625 41.984375 42.703125 
Q 37.796875 48.390625 30.609375 48.390625 
z
M 30.609375 56 
Q 42.328125 56 49.015625 48.375 
Q 55.71875 40.765625 55.71875 27.296875 
Q 55.71875 13.875 49.015625 6.21875 
Q 42.328125 -1.421875 30.609375 -1.421875 
Q 18.84375 -1.421875 12.171875 6.21875 
Q 5.515625 13.875 5.515625 27.296875 
Q 5.515625 40.765625 12.171875 48.375 
Q 18.84375 56 30.609375 56 
z
" id="DejaVuSans-111"/>
      <path d="M 8.5 21.578125 
L 8.5 54.6875 
L 17.484375 54.6875 
L 17.484375 21.921875 
Q 17.484375 14.15625 20.5 10.265625 
Q 23.53125 6.390625 29.59375 6.390625 
Q 36.859375 6.390625 41.078125 11.03125 
Q 45.3125 15.671875 45.3125 23.6875 
L 45.3125 54.6875 
L 54.296875 54.6875 
L 54.296875 0 
L 45.3125 0 
L 45.3125 8.40625 
Q 42.046875 3.421875 37.71875 1 
Q 33.40625 -1.421875 27.6875 -1.421875 
Q 18.265625 -1.421875 13.375 4.4375 
Q 8.5 10.296875 8.5 21.578125 
z
M 31.109375 56 
z
" id="DejaVuSans-117"/>
      <path d="M 41.109375 46.296875 
Q 39.59375 47.171875 37.8125 47.578125 
Q 36.03125 48 33.890625 48 
Q 26.265625 48 22.1875 43.046875 
Q 18.109375 38.09375 18.109375 28.8125 
L 18.109375 0 
L 9.078125 0 
L 9.078125 54.6875 
L 18.109375 54.6875 
L 18.109375 46.1875 
Q 20.953125 51.171875 25.484375 53.578125 
Q 30.03125 56 36.53125 56 
Q 37.453125 56 38.578125 55.875 
Q 39.703125 55.765625 41.0625 55.515625 
z
" id="DejaVuSans-114"/>
      <path d="M 48.78125 52.59375 
L 48.78125 44.1875 
Q 44.96875 46.296875 41.140625 47.34375 
Q 37.3125 48.390625 33.40625 48.390625 
Q 24.65625 48.390625 19.8125 42.84375 
Q 14.984375 37.3125 14.984375 27.296875 
Q 14.984375 17.28125 19.8125 11.734375 
Q 24.65625 6.203125 33.40625 6.203125 
Q 37.3125 6.203125 41.140625 7.25 
Q 44.96875 8.296875 48.78125 10.40625 
L 48.78125 2.09375 
Q 45.015625 0.34375 40.984375 -0.53125 
Q 36.96875 -1.421875 32.421875 -1.421875 
Q 20.0625 -1.421875 12.78125 6.34375 
Q 5.515625 14.109375 5.515625 27.296875 
Q 5.515625 40.671875 12.859375 48.328125 
Q 20.21875 56 33.015625 56 
Q 37.15625 56 41.109375 55.140625 
Q 45.0625 54.296875 48.78125 52.59375 
z
" id="DejaVuSans-99"/>
      <path d="M 56.203125 29.59375 
L 56.203125 25.203125 
L 14.890625 25.203125 
Q 15.484375 15.921875 20.484375 11.0625 
Q 25.484375 6.203125 34.421875 6.203125 
Q 39.59375 6.203125 44.453125 7.46875 
Q 49.3125 8.734375 54.109375 11.28125 
L 54.109375 2.78125 
Q 49.265625 0.734375 44.1875 -0.34375 
Q 39.109375 -1.421875 33.890625 -1.421875 
Q 20.796875 -1.421875 13.15625 6.1875 
Q 5.515625 13.8125 5.515625 26.8125 
Q 5.515625 40.234375 12.765625 48.109375 
Q 20.015625 56 32.328125 56 
Q 43.359375 56 49.78125 48.890625 
Q 56.203125 41.796875 56.203125 29.59375 
z
M 47.21875 32.234375 
Q 47.125 39.59375 43.09375 43.984375 
Q 39.0625 48.390625 32.421875 48.390625 
Q 24.90625 48.390625 20.390625 44.140625 
Q 15.875 39.890625 15.1875 32.171875 
z
" id="DejaVuSans-101"/>
      <path d="M 11.71875 12.40625 
L 22.015625 12.40625 
L 22.015625 0 
L 11.71875 0 
z
M 11.71875 51.703125 
L 22.015625 51.703125 
L 22.015625 39.3125 
L 11.71875 39.3125 
z
" id="DejaVuSans-58"/>
      <path d="M 54.890625 33.015625 
L 54.890625 0 
L 45.90625 0 
L 45.90625 32.71875 
Q 45.90625 40.484375 42.875 44.328125 
Q 39.84375 48.1875 33.796875 48.1875 
Q 26.515625 48.1875 22.3125 43.546875 
Q 18.109375 38.921875 18.109375 30.90625 
L 18.109375 0 
L 9.078125 0 
L 9.078125 54.6875 
L 18.109375 54.6875 
L 18.109375 46.1875 
Q 21.34375 51.125 25.703125 53.5625 
Q 30.078125 56 35.796875 56 
Q 45.21875 56 50.046875 50.171875 
Q 54.890625 44.34375 54.890625 33.015625 
z
" id="DejaVuSans-110"/>
      <path d="M 52 44.1875 
Q 55.375 50.25 60.0625 53.125 
Q 64.75 56 71.09375 56 
Q 79.640625 56 84.28125 50.015625 
Q 88.921875 44.046875 88.921875 33.015625 
L 88.921875 0 
L 79.890625 0 
L 79.890625 32.71875 
Q 79.890625 40.578125 77.09375 44.375 
Q 74.3125 48.1875 68.609375 48.1875 
Q 61.625 48.1875 57.5625 43.546875 
Q 53.515625 38.921875 53.515625 30.90625 
L 53.515625 0 
L 44.484375 0 
L 44.484375 32.71875 
Q 44.484375 40.625 41.703125 44.40625 
Q 38.921875 48.1875 33.109375 48.1875 
Q 26.21875 48.1875 22.15625 43.53125 
Q 18.109375 38.875 18.109375 30.90625 
L 18.109375 0 
L 9.078125 0 
L 9.078125 54.6875 
L 18.109375 54.6875 
L 18.109375 46.1875 
Q 21.1875 51.21875 25.484375 53.609375 
Q 29.78125 56 35.6875 56 
Q 41.65625 56 45.828125 52.96875 
Q 50 49.953125 52 44.1875 
z
" id="DejaVuSans-109"/>
      <path d="M 9.421875 54.6875 
L 18.40625 54.6875 
L 18.40625 0 
L 9.421875 0 
z
M 9.421875 75.984375 
L 18.40625 75.984375 
L 18.40625 64.59375 
L 9.421875 64.59375 
z
" id="DejaVuSans-105"/>
     </defs>
     <use xlink:href="#DejaVuSans-68"/>
     <use x="77.001953" xlink:href="#DejaVuSans-97"/>
     <use x="138.28125" xlink:href="#DejaVuSans-116"/>
     <use x="177.490234" xlink:href="#DejaVuSans-97"/>
     <use x="238.769531" xlink:href="#DejaVuSans-32"/>
     <use x="270.556641" xlink:href="#DejaVuSans-115"/>
     <use x="322.65625" xlink:href="#DejaVuSans-111"/>
     <use x="383.837891" xlink:href="#DejaVuSans-117"/>
     <use x="447.216797" xlink:href="#DejaVuSans-114"/>
     <use x="486.080078" xlink:href="#DejaVuSans-99"/>
     <use x="541.060547" xlink:href="#DejaVuSans-101"/>
     <use x="602.583984" xlink:href="#DejaVuSans-58"/>
     <use x="636.275391" xlink:href="#DejaVuSans-32"/>
     <use x="668.0625" xlink:href="#DejaVuSans-110"/>
     <use x="731.441406" xlink:href="#DejaVuSans-111"/>
     <use x="792.623047" xlink:href="#DejaVuSans-109"/>
     <use x="890.035156" xlink:href="#DejaVuSans-105"/>
     <use x="917.818359" xlink:href="#DejaVuSans-99"/>
     <use x="972.798828" xlink:href="#DejaVuSans-115"/>
    </g>
   </g>
   <g id="legend_1">
    <g id="patch_7">
     <path d="M 64.6 64.150125 
L 112.846875 64.150125 
Q 114.846875 64.150125 114.846875 62.150125 
L 114.846875 48.472 
Q 114.846875 46.472 112.846875 46.472 
L 64.6 46.472 
Q 62.6 46.472 62.6 48.472 
L 62.6 62.150125 
Q 62.6 64.150125 64.6 64.150125 
z
" style="fill:#ffffff;opacity:0.8;stroke:#cccccc;stroke-linejoin:miter;"/>
    </g>
    <g id="line2d_15">
     <path d="M 66.6 54.570438 
L 86.6 54.570438 
" style="fill:none;stroke:#ff6347;stroke-linecap:square;stroke-width:1.5;"/>
    </g>
    <g id="line2d_16"/>
    <g id="text_15">
     <!-- RSI -->
     <g transform="translate(94.6 58.070438)scale(0.1 -0.1)">
      <defs>
       <path d="M 44.390625 34.1875 
Q 47.5625 33.109375 50.5625 29.59375 
Q 53.5625 26.078125 56.59375 19.921875 
L 66.609375 0 
L 56 0 
L 46.6875 18.703125 
Q 43.0625 26.03125 39.671875 28.421875 
Q 36.28125 30.8125 30.421875 30.8125 
L 19.671875 30.8125 
L 19.671875 0 
L 9.8125 0 
L 9.8125 72.90625 
L 32.078125 72.90625 
Q 44.578125 72.90625 50.734375 67.671875 
Q 56.890625 62.453125 56.890625 51.90625 
Q 56.890625 45.015625 53.6875 40.46875 
Q 50.484375 35.9375 44.390625 34.1875 
z
M 19.671875 64.796875 
L 19.671875 38.921875 
L 32.078125 38.921875 
Q 39.203125 38.921875 42.84375 42.21875 
Q 46.484375 45.515625 46.484375 51.90625 
Q 46.484375 58.296875 42.84375 61.546875 
Q 39.203125 64.796875 32.078125 64.796875 
z
" id="DejaVuSans-82"/>
       <path d="M 53.515625 70.515625 
L 53.515625 60.890625 
Q 47.90625 63.578125 42.921875 64.890625 
Q 37.9375 66.21875 33.296875 66.21875 
Q 25.25 66.21875 20.875 63.09375 
Q 16.5 59.96875 16.5 54.203125 
Q 16.5 49.359375 19.40625 46.890625 
Q 22.3125 44.4375 30.421875 42.921875 
L 36.375 41.703125 
Q 47.40625 39.59375 52.65625 34.296875 
Q 57.90625 29 57.90625 20.125 
Q 57.90625 9.515625 50.796875 4.046875 
Q 43.703125 -1.421875 29.984375 -1.421875 
Q 24.8125 -1.421875 18.96875 -0.25 
Q 13.140625 0.921875 6.890625 3.21875 
L 6.890625 13.375 
Q 12.890625 10.015625 18.65625 8.296875 
Q 24.421875 6.59375 29.984375 6.59375 
Q 38.421875 6.59375 43.015625 9.90625 
Q 47.609375 13.234375 47.609375 19.390625 
Q 47.609375 24.75 44.3125 27.78125 
Q 41.015625 30.8125 33.5 32.328125 
L 27.484375 33.5 
Q 16.453125 35.6875 11.515625 40.375 
Q 6.59375 45.0625 6.59375 53.421875 
Q 6.59375 63.09375 13.40625 68.65625 
Q 20.21875 74.21875 32.171875 74.21875 
Q 37.3125 74.21875 42.625 73.28125 
Q 47.953125 72.359375 53.515625 70.515625 
z
" id="DejaVuSans-83"/>
       <path d="M 9.8125 72.90625 
L 19.671875 72.90625 
L 19.671875 0 
L 9.8125 0 
z
" id="DejaVuSans-73"/>
      </defs>
      <use xlink:href="#DejaVuSans-82"/>
      <use x="69.482422" xlink:href="#DejaVuSans-83"/>
      <use x="132.958984" xlink:href="#DejaVuSans-73"/>
     </g>
    </g>
   </g>
  </g>
  <g id="text_16">
   <!-- RSI -->
   <g transform="translate(217.4025 19.0695)scale(0.16 -0.16)">
    <use xlink:href="#DejaVuSans-82"/>
    <use x="69.482422" xlink:href="#DejaVuSans-83"/>
    <use x="132.958984" xlink:href="#DejaVuSans-73"/>
   </g>
  </g>
 </g>
 <defs>
  <clipPath id="p394cac451a">
   <rect height="266.112" width="357.12" x="57.6" y="41.472"/>
  </clipPath>
 </defs>
</svg>
