<?xml version="1.0" encoding="utf-8" standalone="no"?>
<!DOCTYPE svg PUBLIC "-//W3C//DTD SVG 1.1//EN"
  "http://www.w3.org/Graphics/SVG/1.1/DTD/svg11.dtd">
<!-- Created with matplotlib (https://matplotlib.org/) -->
<svg height="345.6pt" version="1.1" viewBox="0 0 460.8 345.6" width="460.8pt" xmlns="http://www.w3.org/2000/svg" xmlns:xlink="http://www.w3.org/1999/xlink">
 <metadata>
  <rdf:RDF xmlns:cc="http://creativecommons.org/ns#" xmlns:dc="http://purl.org/dc/elements/1.1/" xmlns:rdf="http://www.w3.org/1999/02/22-rdf-syntax-ns#">
   <cc:Work>
    <dc:type rdf:resource="http://purl.org/dc/dcmitype/StillImage"/>
    <dc:date>2021-01-21T08:39:32.522015</dc:date>
    <dc:format>image/svg+xml</dc:format>
    <dc:creator>
     <cc:Agent>
      <dc:title>Matplotlib v3.3.2, https://matplotlib.org/</dc:title>
     </cc:Agent>
    </dc:creator>
   </cc:Work>
  </rdf:RDF>
 </metadata>
 <defs>
  <style type="text/css">*{stroke-linecap:butt;stroke-linejoin:round;}</style>
 </defs>
 <g id="figure_1">
  <g id="patch_1">
   <path d="M 0 345.6 
L 460.8 345.6 
L 460.8 0 
L 0 0 
z
" style="fill:#ffffff;"/>
  </g>
  <g id="axes_1">
   <g id="patch_2">
    <path d="M 57.6 307.584 
L 414.72 307.584 
L 414.72 41.472 
L 57.6 41.472 
z
" style="fill:#ffffff;"/>
   </g>
   <g id="PolyCollection_1">
    <defs>
     <path d="M 73.832727 -230.006574 
L 73.832727 -120.297675 
L 74.675986 -120.297675 
L 75.519244 -120.297675 
L 76.362503 -120.297675 
L 77.205762 -120.297675 
L 78.04902 -120.297675 
L 78.892279 -120.297675 
L 79.735537 -120.297675 
L 80.578796 -120.297675 
L 81.422054 -120.297675 
L 82.265313 -120.297675 
L 83.108571 -120.297675 
L 83.95183 -120.297675 
L 84.795089 -120.297675 
L 85.638347 -120.297675 
L 86.481606 -120.297675 
L 87.324864 -120.297675 
L 88.168123 -120.297675 
L 89.011381 -120.297675 
L 89.85464 -120.297675 
L 90.697898 -120.297675 
L 91.541157 -120.297675 
L 92.384416 -120.297675 
L 93.227674 -120.297675 
L 94.070933 -120.297675 
L 94.914191 -120.297675 
L 95.75745 -120.297675 
L 96.600708 -120.297675 
L 97.443967 -120.297675 
L 98.287226 -120.297675 
L 99.130484 -120.297675 
L 99.973743 -120.297675 
L 100.817001 -120.297675 
L 101.66026 -120.297675 
L 102.503518 -120.297675 
L 103.346777 -120.297675 
L 104.190035 -120.297675 
L 105.033294 -120.297675 
L 105.876553 -120.297675 
L 106.719811 -120.297675 
L 107.56307 -120.297675 
L 108.406328 -120.297675 
L 109.249587 -120.297675 
L 110.092845 -120.297675 
L 110.936104 -120.297675 
L 111.779362 -120.297675 
L 112.622621 -120.297675 
L 113.46588 -120.297675 
L 114.309138 -120.297675 
L 115.152397 -120.297675 
L 115.995655 -120.297675 
L 116.838914 -120.297675 
L 117.682172 -120.297675 
L 118.525431 -120.297675 
L 119.368689 -120.297675 
L 120.211948 -120.297675 
L 121.055207 -120.297675 
L 121.898465 -120.297675 
L 122.741724 -120.297675 
L 123.584982 -120.297675 
L 124.428241 -120.297675 
L 125.271499 -120.297675 
L 126.114758 -120.297675 
L 126.958017 -120.297675 
L 127.801275 -120.297675 
L 128.644534 -120.297675 
L 129.487792 -120.297675 
L 130.331051 -120.297675 
L 131.174309 -120.297675 
L 132.017568 -120.297675 
L 132.860826 -120.297675 
L 133.704085 -120.297675 
L 134.547344 -120.297675 
L 135.390602 -120.297675 
L 136.233861 -120.297675 
L 137.077119 -120.297675 
L 137.920378 -120.297675 
L 138.763636 -120.297675 
L 139.606895 -120.297675 
L 140.450153 -120.297675 
L 141.293412 -120.297675 
L 142.136671 -120.297675 
L 142.979929 -120.297675 
L 143.823188 -120.297675 
L 144.666446 -120.297675 
L 145.509705 -120.297675 
L 146.352963 -120.297675 
L 147.196222 -120.297675 
L 148.039481 -120.297675 
L 148.882739 -120.297675 
L 149.725998 -120.297675 
L 150.569256 -120.297675 
L 151.412515 -120.297675 
L 152.255773 -120.297675 
L 153.099032 -120.297675 
L 153.94229 -120.297675 
L 154.785549 -120.297675 
L 155.628808 -120.297675 
L 156.472066 -120.297675 
L 157.315325 -120.297675 
L 158.158583 -120.297675 
L 159.001842 -120.297675 
L 159.8451 -120.297675 
L 160.688359 -120.297675 
L 161.531617 -120.297675 
L 162.374876 -120.297675 
L 163.218135 -120.297675 
L 164.061393 -120.297675 
L 164.904652 -120.297675 
L 165.74791 -120.297675 
L 166.591169 -120.297675 
L 167.434427 -120.297675 
L 168.277686 -120.297675 
L 169.120945 -120.297675 
L 169.964203 -120.297675 
L 170.807462 -120.297675 
L 171.65072 -120.297675 
L 172.493979 -120.297675 
L 173.337237 -120.297675 
L 174.180496 -120.297675 
L 175.023754 -120.297675 
L 175.867013 -120.297675 
L 176.710272 -120.297675 
L 177.55353 -120.297675 
L 178.396789 -120.297675 
L 179.240047 -120.297675 
L 180.083306 -120.297675 
L 180.926564 -120.297675 
L 181.769823 -120.297675 
L 182.613081 -120.297675 
L 183.45634 -120.297675 
L 184.299599 -120.297675 
L 185.142857 -120.297675 
L 185.986116 -120.297675 
L 186.829374 -120.297675 
L 187.672633 -120.297675 
L 188.515891 -120.297675 
L 189.35915 -120.297675 
L 190.202409 -120.297675 
L 191.045667 -120.297675 
L 191.888926 -120.297675 
L 192.732184 -120.297675 
L 193.575443 -120.297675 
L 194.418701 -120.297675 
L 195.26196 -120.297675 
L 196.105218 -120.297675 
L 196.948477 -120.297675 
L 197.791736 -120.297675 
L 198.634994 -120.297675 
L 199.478253 -120.297675 
L 200.321511 -120.297675 
L 201.16477 -120.297675 
L 202.008028 -120.297675 
L 202.851287 -120.297675 
L 203.694545 -120.297675 
L 204.537804 -120.297675 
L 205.381063 -120.297675 
L 206.224321 -120.297675 
L 207.06758 -120.297675 
L 207.910838 -120.297675 
L 208.754097 -120.297675 
L 209.597355 -120.297675 
L 210.440614 -120.297675 
L 211.283872 -120.297675 
L 212.127131 -120.297675 
L 212.97039 -120.297675 
L 213.813648 -120.297675 
L 214.656907 -120.297675 
L 215.500165 -120.297675 
L 216.343424 -120.297675 
L 217.186682 -120.297675 
L 218.029941 -120.297675 
L 218.8732 -120.297675 
L 219.716458 -120.297675 
L 220.559717 -120.297675 
L 221.402975 -120.297675 
L 222.246234 -120.297675 
L 223.089492 -120.297675 
L 223.932751 -120.297675 
L 224.776009 -120.297675 
L 225.619268 -120.297675 
L 226.462527 -120.297675 
L 227.305785 -120.297675 
L 228.149044 -120.297675 
L 228.992302 -120.297675 
L 229.835561 -120.297675 
L 230.678819 -120.297675 
L 231.522078 -120.297675 
L 232.365336 -120.297675 
L 233.208595 -120.297675 
L 234.051854 -120.297675 
L 234.895112 -120.297675 
L 235.738371 -120.297675 
L 236.581629 -120.297675 
L 237.424888 -120.297675 
L 238.268146 -120.297675 
L 239.111405 -120.297675 
L 239.954664 -120.297675 
L 240.797922 -120.297675 
L 241.641181 -120.297675 
L 242.484439 -120.297675 
L 243.327698 -120.297675 
L 244.170956 -120.297675 
L 245.014215 -120.297675 
L 245.857473 -120.297675 
L 246.700732 -120.297675 
L 247.543991 -120.297675 
L 248.387249 -120.297675 
L 249.230508 -120.297675 
L 250.073766 -120.297675 
L 250.917025 -120.297675 
L 251.760283 -120.297675 
L 252.603542 -120.297675 
L 253.4468 -120.297675 
L 254.290059 -120.297675 
L 255.133318 -120.297675 
L 255.976576 -120.297675 
L 256.819835 -120.297675 
L 257.663093 -120.297675 
L 258.506352 -120.297675 
L 259.34961 -120.297675 
L 260.192869 -120.297675 
L 261.036128 -120.297675 
L 261.879386 -120.297675 
L 262.722645 -120.297675 
L 263.565903 -120.297675 
L 264.409162 -120.297675 
L 265.25242 -120.297675 
L 266.095679 -120.297675 
L 266.938937 -120.297675 
L 267.782196 -120.297675 
L 268.625455 -120.297675 
L 269.468713 -120.297675 
L 270.311972 -120.297675 
L 271.15523 -120.297675 
L 271.998489 -120.297675 
L 272.841747 -120.297675 
L 273.685006 -120.297675 
L 274.528264 -120.297675 
L 275.371523 -120.297675 
L 276.214782 -120.297675 
L 277.05804 -120.297675 
L 277.901299 -120.297675 
L 278.744557 -120.297675 
L 279.587816 -120.297675 
L 280.431074 -120.297675 
L 281.274333 -120.297675 
L 282.117591 -120.297675 
L 282.96085 -120.297675 
L 283.804109 -120.297675 
L 284.647367 -120.297675 
L 285.490626 -120.297675 
L 286.333884 -120.297675 
L 287.177143 -120.297675 
L 288.020401 -120.297675 
L 288.86366 -120.297675 
L 289.706919 -120.297675 
L 290.550177 -120.297675 
L 291.393436 -120.297675 
L 292.236694 -120.297675 
L 293.079953 -120.297675 
L 293.923211 -120.297675 
L 294.76647 -120.297675 
L 295.609728 -120.297675 
L 296.452987 -120.297675 
L 297.296246 -120.297675 
L 298.139504 -120.297675 
L 298.982763 -120.297675 
L 299.826021 -120.297675 
L 300.66928 -120.297675 
L 301.512538 -120.297675 
L 302.355797 -120.297675 
L 303.199055 -120.297675 
L 304.042314 -120.297675 
L 304.885573 -120.297675 
L 305.728831 -120.297675 
L 306.57209 -120.297675 
L 307.415348 -120.297675 
L 308.258607 -120.297675 
L 309.101865 -120.297675 
L 309.945124 -120.297675 
L 310.788383 -120.297675 
L 311.631641 -120.297675 
L 312.4749 -120.297675 
L 313.318158 -120.297675 
L 314.161417 -120.297675 
L 315.004675 -120.297675 
L 315.847934 -120.297675 
L 316.691192 -120.297675 
L 317.534451 -120.297675 
L 318.37771 -120.297675 
L 319.220968 -120.297675 
L 320.064227 -120.297675 
L 320.907485 -120.297675 
L 321.750744 -120.297675 
L 322.594002 -120.297675 
L 323.437261 -120.297675 
L 324.280519 -120.297675 
L 325.123778 -120.297675 
L 325.967037 -120.297675 
L 326.810295 -120.297675 
L 327.653554 -120.297675 
L 328.496812 -120.297675 
L 329.340071 -120.297675 
L 330.183329 -120.297675 
L 331.026588 -120.297675 
L 331.869847 -120.297675 
L 332.713105 -120.297675 
L 333.556364 -120.297675 
L 334.399622 -120.297675 
L 335.242881 -120.297675 
L 336.086139 -120.297675 
L 336.929398 -120.297675 
L 337.772656 -120.297675 
L 338.615915 -120.297675 
L 339.459174 -120.297675 
L 340.302432 -120.297675 
L 341.145691 -120.297675 
L 341.988949 -120.297675 
L 342.832208 -120.297675 
L 343.675466 -120.297675 
L 344.518725 -120.297675 
L 345.361983 -120.297675 
L 346.205242 -120.297675 
L 347.048501 -120.297675 
L 347.891759 -120.297675 
L 348.735018 -120.297675 
L 349.578276 -120.297675 
L 350.421535 -120.297675 
L 351.264793 -120.297675 
L 352.108052 -120.297675 
L 352.951311 -120.297675 
L 353.794569 -120.297675 
L 354.637828 -120.297675 
L 355.481086 -120.297675 
L 356.324345 -120.297675 
L 357.167603 -120.297675 
L 358.010862 -120.297675 
L 358.85412 -120.297675 
L 359.697379 -120.297675 
L 360.540638 -120.297675 
L 361.383896 -120.297675 
L 362.227155 -120.297675 
L 363.070413 -120.297675 
L 363.913672 -120.297675 
L 364.75693 -120.297675 
L 365.600189 -120.297675 
L 366.443447 -120.297675 
L 367.286706 -120.297675 
L 368.129965 -120.297675 
L 368.973223 -120.297675 
L 369.816482 -120.297675 
L 370.65974 -120.297675 
L 371.502999 -120.297675 
L 372.346257 -120.297675 
L 373.189516 -120.297675 
L 374.032774 -120.297675 
L 374.876033 -120.297675 
L 375.719292 -120.297675 
L 376.56255 -120.297675 
L 377.405809 -120.297675 
L 378.249067 -120.297675 
L 379.092326 -120.297675 
L 379.935584 -120.297675 
L 380.778843 -120.297675 
L 381.622102 -120.297675 
L 382.46536 -120.297675 
L 383.308619 -120.297675 
L 384.151877 -120.297675 
L 384.995136 -120.297675 
L 385.838394 -120.297675 
L 386.681653 -120.297675 
L 387.524911 -120.297675 
L 388.36817 -120.297675 
L 389.211429 -120.297675 
L 390.054687 -120.297675 
L 390.897946 -120.297675 
L 391.741204 -120.297675 
L 392.584463 -120.297675 
L 393.427721 -120.297675 
L 394.27098 -120.297675 
L 395.114238 -120.297675 
L 395.957497 -120.297675 
L 396.800756 -120.297675 
L 397.644014 -120.297675 
L 398.487273 -120.297675 
L 398.487273 -230.006574 
L 398.487273 -230.006574 
L 397.644014 -230.006574 
L 396.800756 -230.006574 
L 395.957497 -230.006574 
L 395.114238 -230.006574 
L 394.27098 -230.006574 
L 393.427721 -230.006574 
L 392.584463 -230.006574 
L 391.741204 -230.006574 
L 390.897946 -230.006574 
L 390.054687 -230.006574 
L 389.211429 -230.006574 
L 388.36817 -230.006574 
L 387.524911 -230.006574 
L 386.681653 -230.006574 
L 385.838394 -230.006574 
L 384.995136 -230.006574 
L 384.151877 -230.006574 
L 383.308619 -230.006574 
L 382.46536 -230.006574 
L 381.622102 -230.006574 
L 380.778843 -230.006574 
L 379.935584 -230.006574 
L 379.092326 -230.006574 
L 378.249067 -230.006574 
L 377.405809 -230.006574 
L 376.56255 -230.006574 
L 375.719292 -230.006574 
L 374.876033 -230.006574 
L 374.032774 -230.006574 
L 373.189516 -230.006574 
L 372.346257 -230.006574 
L 371.502999 -230.006574 
L 370.65974 -230.006574 
L 369.816482 -230.006574 
L 368.973223 -230.006574 
L 368.129965 -230.006574 
L 367.286706 -230.006574 
L 366.443447 -230.006574 
L 365.600189 -230.006574 
L 364.75693 -230.006574 
L 363.913672 -230.006574 
L 363.070413 -230.006574 
L 362.227155 -230.006574 
L 361.383896 -230.006574 
L 360.540638 -230.006574 
L 359.697379 -230.006574 
L 358.85412 -230.006574 
L 358.010862 -230.006574 
L 357.167603 -230.006574 
L 356.324345 -230.006574 
L 355.481086 -230.006574 
L 354.637828 -230.006574 
L 353.794569 -230.006574 
L 352.951311 -230.006574 
L 352.108052 -230.006574 
L 351.264793 -230.006574 
L 350.421535 -230.006574 
L 349.578276 -230.006574 
L 348.735018 -230.006574 
L 347.891759 -230.006574 
L 347.048501 -230.006574 
L 346.205242 -230.006574 
L 345.361983 -230.006574 
L 344.518725 -230.006574 
L 343.675466 -230.006574 
L 342.832208 -230.006574 
L 341.988949 -230.006574 
L 341.145691 -230.006574 
L 340.302432 -230.006574 
L 339.459174 -230.006574 
L 338.615915 -230.006574 
L 337.772656 -230.006574 
L 336.929398 -230.006574 
L 336.086139 -230.006574 
L 335.242881 -230.006574 
L 334.399622 -230.006574 
L 333.556364 -230.006574 
L 332.713105 -230.006574 
L 331.869847 -230.006574 
L 331.026588 -230.006574 
L 330.183329 -230.006574 
L 329.340071 -230.006574 
L 328.496812 -230.006574 
L 327.653554 -230.006574 
L 326.810295 -230.006574 
L 325.967037 -230.006574 
L 325.123778 -230.006574 
L 324.280519 -230.006574 
L 323.437261 -230.006574 
L 322.594002 -230.006574 
L 321.750744 -230.006574 
L 320.907485 -230.006574 
L 320.064227 -230.006574 
L 319.220968 -230.006574 
L 318.37771 -230.006574 
L 317.534451 -230.006574 
L 316.691192 -230.006574 
L 315.847934 -230.006574 
L 315.004675 -230.006574 
L 314.161417 -230.006574 
L 313.318158 -230.006574 
L 312.4749 -230.006574 
L 311.631641 -230.006574 
L 310.788383 -230.006574 
L 309.945124 -230.006574 
L 309.101865 -230.006574 
L 308.258607 -230.006574 
L 307.415348 -230.006574 
L 306.57209 -230.006574 
L 305.728831 -230.006574 
L 304.885573 -230.006574 
L 304.042314 -230.006574 
L 303.199055 -230.006574 
L 302.355797 -230.006574 
L 301.512538 -230.006574 
L 300.66928 -230.006574 
L 299.826021 -230.006574 
L 298.982763 -230.006574 
L 298.139504 -230.006574 
L 297.296246 -230.006574 
L 296.452987 -230.006574 
L 295.609728 -230.006574 
L 294.76647 -230.006574 
L 293.923211 -230.006574 
L 293.079953 -230.006574 
L 292.236694 -230.006574 
L 291.393436 -230.006574 
L 290.550177 -230.006574 
L 289.706919 -230.006574 
L 288.86366 -230.006574 
L 288.020401 -230.006574 
L 287.177143 -230.006574 
L 286.333884 -230.006574 
L 285.490626 -230.006574 
L 284.647367 -230.006574 
L 283.804109 -230.006574 
L 282.96085 -230.006574 
L 282.117591 -230.006574 
L 281.274333 -230.006574 
L 280.431074 -230.006574 
L 279.587816 -230.006574 
L 278.744557 -230.006574 
L 277.901299 -230.006574 
L 277.05804 -230.006574 
L 276.214782 -230.006574 
L 275.371523 -230.006574 
L 274.528264 -230.006574 
L 273.685006 -230.006574 
L 272.841747 -230.006574 
L 271.998489 -230.006574 
L 271.15523 -230.006574 
L 270.311972 -230.006574 
L 269.468713 -230.006574 
L 268.625455 -230.006574 
L 267.782196 -230.006574 
L 266.938937 -230.006574 
L 266.095679 -230.006574 
L 265.25242 -230.006574 
L 264.409162 -230.006574 
L 263.565903 -230.006574 
L 262.722645 -230.006574 
L 261.879386 -230.006574 
L 261.036128 -230.006574 
L 260.192869 -230.006574 
L 259.34961 -230.006574 
L 258.506352 -230.006574 
L 257.663093 -230.006574 
L 256.819835 -230.006574 
L 255.976576 -230.006574 
L 255.133318 -230.006574 
L 254.290059 -230.006574 
L 253.4468 -230.006574 
L 252.603542 -230.006574 
L 251.760283 -230.006574 
L 250.917025 -230.006574 
L 250.073766 -230.006574 
L 249.230508 -230.006574 
L 248.387249 -230.006574 
L 247.543991 -230.006574 
L 246.700732 -230.006574 
L 245.857473 -230.006574 
L 245.014215 -230.006574 
L 244.170956 -230.006574 
L 243.327698 -230.006574 
L 242.484439 -230.006574 
L 241.641181 -230.006574 
L 240.797922 -230.006574 
L 239.954664 -230.006574 
L 239.111405 -230.006574 
L 238.268146 -230.006574 
L 237.424888 -230.006574 
L 236.581629 -230.006574 
L 235.738371 -230.006574 
L 234.895112 -230.006574 
L 234.051854 -230.006574 
L 233.208595 -230.006574 
L 232.365336 -230.006574 
L 231.522078 -230.006574 
L 230.678819 -230.006574 
L 229.835561 -230.006574 
L 228.992302 -230.006574 
L 228.149044 -230.006574 
L 227.305785 -230.006574 
L 226.462527 -230.006574 
L 225.619268 -230.006574 
L 224.776009 -230.006574 
L 223.932751 -230.006574 
L 223.089492 -230.006574 
L 222.246234 -230.006574 
L 221.402975 -230.006574 
L 220.559717 -230.006574 
L 219.716458 -230.006574 
L 218.8732 -230.006574 
L 218.029941 -230.006574 
L 217.186682 -230.006574 
L 216.343424 -230.006574 
L 215.500165 -230.006574 
L 214.656907 -230.006574 
L 213.813648 -230.006574 
L 212.97039 -230.006574 
L 212.127131 -230.006574 
L 211.283872 -230.006574 
L 210.440614 -230.006574 
L 209.597355 -230.006574 
L 208.754097 -230.006574 
L 207.910838 -230.006574 
L 207.06758 -230.006574 
L 206.224321 -230.006574 
L 205.381063 -230.006574 
L 204.537804 -230.006574 
L 203.694545 -230.006574 
L 202.851287 -230.006574 
L 202.008028 -230.006574 
L 201.16477 -230.006574 
L 200.321511 -230.006574 
L 199.478253 -230.006574 
L 198.634994 -230.006574 
L 197.791736 -230.006574 
L 196.948477 -230.006574 
L 196.105218 -230.006574 
L 195.26196 -230.006574 
L 194.418701 -230.006574 
L 193.575443 -230.006574 
L 192.732184 -230.006574 
L 191.888926 -230.006574 
L 191.045667 -230.006574 
L 190.202409 -230.006574 
L 189.35915 -230.006574 
L 188.515891 -230.006574 
L 187.672633 -230.006574 
L 186.829374 -230.006574 
L 185.986116 -230.006574 
L 185.142857 -230.006574 
L 184.299599 -230.006574 
L 183.45634 -230.006574 
L 182.613081 -230.006574 
L 181.769823 -230.006574 
L 180.926564 -230.006574 
L 180.083306 -230.006574 
L 179.240047 -230.006574 
L 178.396789 -230.006574 
L 177.55353 -230.006574 
L 176.710272 -230.006574 
L 175.867013 -230.006574 
L 175.023754 -230.006574 
L 174.180496 -230.006574 
L 173.337237 -230.006574 
L 172.493979 -230.006574 
L 171.65072 -230.006574 
L 170.807462 -230.006574 
L 169.964203 -230.006574 
L 169.120945 -230.006574 
L 168.277686 -230.006574 
L 167.434427 -230.006574 
L 166.591169 -230.006574 
L 165.74791 -230.006574 
L 164.904652 -230.006574 
L 164.061393 -230.006574 
L 163.218135 -230.006574 
L 162.374876 -230.006574 
L 161.531617 -230.006574 
L 160.688359 -230.006574 
L 159.8451 -230.006574 
L 159.001842 -230.006574 
L 158.158583 -230.006574 
L 157.315325 -230.006574 
L 156.472066 -230.006574 
L 155.628808 -230.006574 
L 154.785549 -230.006574 
L 153.94229 -230.006574 
L 153.099032 -230.006574 
L 152.255773 -230.006574 
L 151.412515 -230.006574 
L 150.569256 -230.006574 
L 149.725998 -230.006574 
L 148.882739 -230.006574 
L 148.039481 -230.006574 
L 147.196222 -230.006574 
L 146.352963 -230.006574 
L 145.509705 -230.006574 
L 144.666446 -230.006574 
L 143.823188 -230.006574 
L 142.979929 -230.006574 
L 142.136671 -230.006574 
L 141.293412 -230.006574 
L 140.450153 -230.006574 
L 139.606895 -230.006574 
L 138.763636 -230.006574 
L 137.920378 -230.006574 
L 137.077119 -230.006574 
L 136.233861 -230.006574 
L 135.390602 -230.006574 
L 134.547344 -230.006574 
L 133.704085 -230.006574 
L 132.860826 -230.006574 
L 132.017568 -230.006574 
L 131.174309 -230.006574 
L 130.331051 -230.006574 
L 129.487792 -230.006574 
L 128.644534 -230.006574 
L 127.801275 -230.006574 
L 126.958017 -230.006574 
L 126.114758 -230.006574 
L 125.271499 -230.006574 
L 124.428241 -230.006574 
L 123.584982 -230.006574 
L 122.741724 -230.006574 
L 121.898465 -230.006574 
L 121.055207 -230.006574 
L 120.211948 -230.006574 
L 119.368689 -230.006574 
L 118.525431 -230.006574 
L 117.682172 -230.006574 
L 116.838914 -230.006574 
L 115.995655 -230.006574 
L 115.152397 -230.006574 
L 114.309138 -230.006574 
L 113.46588 -230.006574 
L 112.622621 -230.006574 
L 111.779362 -230.006574 
L 110.936104 -230.006574 
L 110.092845 -230.006574 
L 109.249587 -230.006574 
L 108.406328 -230.006574 
L 107.56307 -230.006574 
L 106.719811 -230.006574 
L 105.876553 -230.006574 
L 105.033294 -230.006574 
L 104.190035 -230.006574 
L 103.346777 -230.006574 
L 102.503518 -230.006574 
L 101.66026 -230.006574 
L 100.817001 -230.006574 
L 99.973743 -230.006574 
L 99.130484 -230.006574 
L 98.287226 -230.006574 
L 97.443967 -230.006574 
L 96.600708 -230.006574 
L 95.75745 -230.006574 
L 94.914191 -230.006574 
L 94.070933 -230.006574 
L 93.227674 -230.006574 
L 92.384416 -230.006574 
L 91.541157 -230.006574 
L 90.697898 -230.006574 
L 89.85464 -230.006574 
L 89.011381 -230.006574 
L 88.168123 -230.006574 
L 87.324864 -230.006574 
L 86.481606 -230.006574 
L 85.638347 -230.006574 
L 84.795089 -230.006574 
L 83.95183 -230.006574 
L 83.108571 -230.006574 
L 82.265313 -230.006574 
L 81.422054 -230.006574 
L 80.578796 -230.006574 
L 79.735537 -230.006574 
L 78.892279 -230.006574 
L 78.04902 -230.006574 
L 77.205762 -230.006574 
L 76.362503 -230.006574 
L 75.519244 -230.006574 
L 74.675986 -230.006574 
L 73.832727 -230.006574 
z
" id="m679b843776" style="stroke:#4b0082;stroke-opacity:0.3;"/>
    </defs>
    <g clip-path="url(#p13dea3d9dc)">
     <use style="fill:#4b0082;fill-opacity:0.3;stroke:#4b0082;stroke-opacity:0.3;" x="0" xlink:href="#m679b843776" y="345.6"/>
    </g>
   </g>
   <g id="matplotlib.axis_1">
    <g id="xtick_1">
     <g id="line2d_1">
      <defs>
       <path d="M 0 0 
L 0 3.5 
" id="m597e0f73a4" style="stroke:#000000;stroke-width:0.8;"/>
      </defs>
      <g>
       <use style="stroke:#000000;stroke-width:0.8;" x="73.832727" xlink:href="#m597e0f73a4" y="307.584"/>
      </g>
     </g>
     <g id="text_1">
      <!-- 2020-01 -->
      <g transform="translate(52.941321 322.182437)scale(0.1 -0.1)">
       <defs>
        <path d="M 19.1875 8.296875 
L 53.609375 8.296875 
L 53.609375 0 
L 7.328125 0 
L 7.328125 8.296875 
Q 12.9375 14.109375 22.625 23.890625 
Q 32.328125 33.6875 34.8125 36.53125 
Q 39.546875 41.84375 41.421875 45.53125 
Q 43.3125 49.21875 43.3125 52.78125 
Q 43.3125 58.59375 39.234375 62.25 
Q 35.15625 65.921875 28.609375 65.921875 
Q 23.96875 65.921875 18.8125 64.3125 
Q 13.671875 62.703125 7.8125 59.421875 
L 7.8125 69.390625 
Q 13.765625 71.78125 18.9375 73 
Q 24.125 74.21875 28.421875 74.21875 
Q 39.75 74.21875 46.484375 68.546875 
Q 53.21875 62.890625 53.21875 53.421875 
Q 53.21875 48.921875 51.53125 44.890625 
Q 49.859375 40.875 45.40625 35.40625 
Q 44.1875 33.984375 37.640625 27.21875 
Q 31.109375 20.453125 19.1875 8.296875 
z
" id="DejaVuSans-50"/>
        <path d="M 31.78125 66.40625 
Q 24.171875 66.40625 20.328125 58.90625 
Q 16.5 51.421875 16.5 36.375 
Q 16.5 21.390625 20.328125 13.890625 
Q 24.171875 6.390625 31.78125 6.390625 
Q 39.453125 6.390625 43.28125 13.890625 
Q 47.125 21.390625 47.125 36.375 
Q 47.125 51.421875 43.28125 58.90625 
Q 39.453125 66.40625 31.78125 66.40625 
z
M 31.78125 74.21875 
Q 44.046875 74.21875 50.515625 64.515625 
Q 56.984375 54.828125 56.984375 36.375 
Q 56.984375 17.96875 50.515625 8.265625 
Q 44.046875 -1.421875 31.78125 -1.421875 
Q 19.53125 -1.421875 13.0625 8.265625 
Q 6.59375 17.96875 6.59375 36.375 
Q 6.59375 54.828125 13.0625 64.515625 
Q 19.53125 74.21875 31.78125 74.21875 
z
" id="DejaVuSans-48"/>
        <path d="M 4.890625 31.390625 
L 31.203125 31.390625 
L 31.203125 23.390625 
L 4.890625 23.390625 
z
" id="DejaVuSans-45"/>
        <path d="M 12.40625 8.296875 
L 28.515625 8.296875 
L 28.515625 63.921875 
L 10.984375 60.40625 
L 10.984375 69.390625 
L 28.421875 72.90625 
L 38.28125 72.90625 
L 38.28125 8.296875 
L 54.390625 8.296875 
L 54.390625 0 
L 12.40625 0 
z
" id="DejaVuSans-49"/>
       </defs>
       <use xlink:href="#DejaVuSans-50"/>
       <use x="63.623047" xlink:href="#DejaVuSans-48"/>
       <use x="127.246094" xlink:href="#DejaVuSans-50"/>
       <use x="190.869141" xlink:href="#DejaVuSans-48"/>
       <use x="254.492188" xlink:href="#DejaVuSans-45"/>
       <use x="290.576172" xlink:href="#DejaVuSans-48"/>
       <use x="354.199219" xlink:href="#DejaVuSans-49"/>
      </g>
     </g>
    </g>
    <g id="xtick_2">
     <g id="line2d_2">
      <g>
       <use style="stroke:#000000;stroke-width:0.8;" x="124.428241" xlink:href="#m597e0f73a4" y="307.584"/>
      </g>
     </g>
     <g id="text_2">
      <!-- 2020-03 -->
      <g transform="translate(103.536835 322.182437)scale(0.1 -0.1)">
       <defs>
        <path d="M 40.578125 39.3125 
Q 47.65625 37.796875 51.625 33 
Q 55.609375 28.21875 55.609375 21.1875 
Q 55.609375 10.40625 48.1875 4.484375 
Q 40.765625 -1.421875 27.09375 -1.421875 
Q 22.515625 -1.421875 17.65625 -0.515625 
Q 12.796875 0.390625 7.625 2.203125 
L 7.625 11.71875 
Q 11.71875 9.328125 16.59375 8.109375 
Q 21.484375 6.890625 26.8125 6.890625 
Q 36.078125 6.890625 40.9375 10.546875 
Q 45.796875 14.203125 45.796875 21.1875 
Q 45.796875 27.640625 41.28125 31.265625 
Q 36.765625 34.90625 28.71875 34.90625 
L 20.21875 34.90625 
L 20.21875 43.015625 
L 29.109375 43.015625 
Q 36.375 43.015625 40.234375 45.921875 
Q 44.09375 48.828125 44.09375 54.296875 
Q 44.09375 59.90625 40.109375 62.90625 
Q 36.140625 65.921875 28.71875 65.921875 
Q 24.65625 65.921875 20.015625 65.03125 
Q 15.375 64.15625 9.8125 62.3125 
L 9.8125 71.09375 
Q 15.4375 72.65625 20.34375 73.4375 
Q 25.25 74.21875 29.59375 74.21875 
Q 40.828125 74.21875 47.359375 69.109375 
Q 53.90625 64.015625 53.90625 55.328125 
Q 53.90625 49.265625 50.4375 45.09375 
Q 46.96875 40.921875 40.578125 39.3125 
z
" id="DejaVuSans-51"/>
       </defs>
       <use xlink:href="#DejaVuSans-50"/>
       <use x="63.623047" xlink:href="#DejaVuSans-48"/>
       <use x="127.246094" xlink:href="#DejaVuSans-50"/>
       <use x="190.869141" xlink:href="#DejaVuSans-48"/>
       <use x="254.492188" xlink:href="#DejaVuSans-45"/>
       <use x="290.576172" xlink:href="#DejaVuSans-48"/>
       <use x="354.199219" xlink:href="#DejaVuSans-51"/>
      </g>
     </g>
    </g>
    <g id="xtick_3">
     <g id="line2d_3">
      <g>
       <use style="stroke:#000000;stroke-width:0.8;" x="175.867013" xlink:href="#m597e0f73a4" y="307.584"/>
      </g>
     </g>
     <g id="text_3">
      <!-- 2020-05 -->
      <g transform="translate(154.975607 322.182437)scale(0.1 -0.1)">
       <defs>
        <path d="M 10.796875 72.90625 
L 49.515625 72.90625 
L 49.515625 64.59375 
L 19.828125 64.59375 
L 19.828125 46.734375 
Q 21.96875 47.46875 24.109375 47.828125 
Q 26.265625 48.1875 28.421875 48.1875 
Q 40.625 48.1875 47.75 41.5 
Q 54.890625 34.8125 54.890625 23.390625 
Q 54.890625 11.625 47.5625 5.09375 
Q 40.234375 -1.421875 26.90625 -1.421875 
Q 22.3125 -1.421875 17.546875 -0.640625 
Q 12.796875 0.140625 7.71875 1.703125 
L 7.71875 11.625 
Q 12.109375 9.234375 16.796875 8.0625 
Q 21.484375 6.890625 26.703125 6.890625 
Q 35.15625 6.890625 40.078125 11.328125 
Q 45.015625 15.765625 45.015625 23.390625 
Q 45.015625 31 40.078125 35.4375 
Q 35.15625 39.890625 26.703125 39.890625 
Q 22.75 39.890625 18.8125 39.015625 
Q 14.890625 38.140625 10.796875 36.28125 
z
" id="DejaVuSans-53"/>
       </defs>
       <use xlink:href="#DejaVuSans-50"/>
       <use x="63.623047" xlink:href="#DejaVuSans-48"/>
       <use x="127.246094" xlink:href="#DejaVuSans-50"/>
       <use x="190.869141" xlink:href="#DejaVuSans-48"/>
       <use x="254.492188" xlink:href="#DejaVuSans-45"/>
       <use x="290.576172" xlink:href="#DejaVuSans-48"/>
       <use x="354.199219" xlink:href="#DejaVuSans-53"/>
      </g>
     </g>
    </g>
    <g id="xtick_4">
     <g id="line2d_4">
      <g>
       <use style="stroke:#000000;stroke-width:0.8;" x="227.305785" xlink:href="#m597e0f73a4" y="307.584"/>
      </g>
     </g>
     <g id="text_4">
      <!-- 2020-07 -->
      <g transform="translate(206.414379 322.182437)scale(0.1 -0.1)">
       <defs>
        <path d="M 8.203125 72.90625 
L 55.078125 72.90625 
L 55.078125 68.703125 
L 28.609375 0 
L 18.3125 0 
L 43.21875 64.59375 
L 8.203125 64.59375 
z
" id="DejaVuSans-55"/>
       </defs>
       <use xlink:href="#DejaVuSans-50"/>
       <use x="63.623047" xlink:href="#DejaVuSans-48"/>
       <use x="127.246094" xlink:href="#DejaVuSans-50"/>
       <use x="190.869141" xlink:href="#DejaVuSans-48"/>
       <use x="254.492188" xlink:href="#DejaVuSans-45"/>
       <use x="290.576172" xlink:href="#DejaVuSans-48"/>
       <use x="354.199219" xlink:href="#DejaVuSans-55"/>
      </g>
     </g>
    </g>
    <g id="xtick_5">
     <g id="line2d_5">
      <g>
       <use style="stroke:#000000;stroke-width:0.8;" x="279.587816" xlink:href="#m597e0f73a4" y="307.584"/>
      </g>
     </g>
     <g id="text_5">
      <!-- 2020-09 -->
      <g transform="translate(258.69641 322.182437)scale(0.1 -0.1)">
       <defs>
        <path d="M 10.984375 1.515625 
L 10.984375 10.5 
Q 14.703125 8.734375 18.5 7.8125 
Q 22.3125 6.890625 25.984375 6.890625 
Q 35.75 6.890625 40.890625 13.453125 
Q 46.046875 20.015625 46.78125 33.40625 
Q 43.953125 29.203125 39.59375 26.953125 
Q 35.25 24.703125 29.984375 24.703125 
Q 19.046875 24.703125 12.671875 31.3125 
Q 6.296875 37.9375 6.296875 49.421875 
Q 6.296875 60.640625 12.9375 67.421875 
Q 19.578125 74.21875 30.609375 74.21875 
Q 43.265625 74.21875 49.921875 64.515625 
Q 56.59375 54.828125 56.59375 36.375 
Q 56.59375 19.140625 48.40625 8.859375 
Q 40.234375 -1.421875 26.421875 -1.421875 
Q 22.703125 -1.421875 18.890625 -0.6875 
Q 15.09375 0.046875 10.984375 1.515625 
z
M 30.609375 32.421875 
Q 37.25 32.421875 41.125 36.953125 
Q 45.015625 41.5 45.015625 49.421875 
Q 45.015625 57.28125 41.125 61.84375 
Q 37.25 66.40625 30.609375 66.40625 
Q 23.96875 66.40625 20.09375 61.84375 
Q 16.21875 57.28125 16.21875 49.421875 
Q 16.21875 41.5 20.09375 36.953125 
Q 23.96875 32.421875 30.609375 32.421875 
z
" id="DejaVuSans-57"/>
       </defs>
       <use xlink:href="#DejaVuSans-50"/>
       <use x="63.623047" xlink:href="#DejaVuSans-48"/>
       <use x="127.246094" xlink:href="#DejaVuSans-50"/>
       <use x="190.869141" xlink:href="#DejaVuSans-48"/>
       <use x="254.492188" xlink:href="#DejaVuSans-45"/>
       <use x="290.576172" xlink:href="#DejaVuSans-48"/>
       <use x="354.199219" xlink:href="#DejaVuSans-57"/>
      </g>
     </g>
    </g>
    <g id="xtick_6">
     <g id="line2d_6">
      <g>
       <use style="stroke:#000000;stroke-width:0.8;" x="331.026588" xlink:href="#m597e0f73a4" y="307.584"/>
      </g>
     </g>
     <g id="text_6">
      <!-- 2020-11 -->
      <g transform="translate(310.135182 322.182437)scale(0.1 -0.1)">
       <use xlink:href="#DejaVuSans-50"/>
       <use x="63.623047" xlink:href="#DejaVuSans-48"/>
       <use x="127.246094" xlink:href="#DejaVuSans-50"/>
       <use x="190.869141" xlink:href="#DejaVuSans-48"/>
       <use x="254.492188" xlink:href="#DejaVuSans-45"/>
       <use x="290.576172" xlink:href="#DejaVuSans-49"/>
       <use x="354.199219" xlink:href="#DejaVuSans-49"/>
      </g>
     </g>
    </g>
    <g id="xtick_7">
     <g id="line2d_7">
      <g>
       <use style="stroke:#000000;stroke-width:0.8;" x="382.46536" xlink:href="#m597e0f73a4" y="307.584"/>
      </g>
     </g>
     <g id="text_7">
      <!-- 2021-01 -->
      <g transform="translate(361.573954 322.182437)scale(0.1 -0.1)">
       <use xlink:href="#DejaVuSans-50"/>
       <use x="63.623047" xlink:href="#DejaVuSans-48"/>
       <use x="127.246094" xlink:href="#DejaVuSans-50"/>
       <use x="190.869141" xlink:href="#DejaVuSans-49"/>
       <use x="254.492188" xlink:href="#DejaVuSans-45"/>
       <use x="290.576172" xlink:href="#DejaVuSans-48"/>
       <use x="354.199219" xlink:href="#DejaVuSans-49"/>
      </g>
     </g>
    </g>
   </g>
   <g id="matplotlib.axis_2">
    <g id="ytick_1">
     <g id="line2d_8">
      <defs>
       <path d="M 0 0 
L -3.5 0 
" id="me8be92f485" style="stroke:#000000;stroke-width:0.8;"/>
      </defs>
      <g>
       <use style="stroke:#000000;stroke-width:0.8;" x="57.6" xlink:href="#me8be92f485" y="307.584"/>
      </g>
     </g>
     <g id="text_8">
      <!-- 0 -->
      <g transform="translate(44.2375 311.383219)scale(0.1 -0.1)">
       <use xlink:href="#DejaVuSans-48"/>
      </g>
     </g>
    </g>
    <g id="ytick_2">
     <g id="line2d_9">
      <g>
       <use style="stroke:#000000;stroke-width:0.8;" x="57.6" xlink:href="#me8be92f485" y="252.72955"/>
      </g>
     </g>
     <g id="text_9">
      <!-- 20 -->
      <g transform="translate(37.875 256.528769)scale(0.1 -0.1)">
       <use xlink:href="#DejaVuSans-50"/>
       <use x="63.623047" xlink:href="#DejaVuSans-48"/>
      </g>
     </g>
    </g>
    <g id="ytick_3">
     <g id="line2d_10">
      <g>
       <use style="stroke:#000000;stroke-width:0.8;" x="57.6" xlink:href="#me8be92f485" y="197.875101"/>
      </g>
     </g>
     <g id="text_10">
      <!-- 40 -->
      <g transform="translate(37.875 201.674319)scale(0.1 -0.1)">
       <defs>
        <path d="M 37.796875 64.3125 
L 12.890625 25.390625 
L 37.796875 25.390625 
z
M 35.203125 72.90625 
L 47.609375 72.90625 
L 47.609375 25.390625 
L 58.015625 25.390625 
L 58.015625 17.1875 
L 47.609375 17.1875 
L 47.609375 0 
L 37.796875 0 
L 37.796875 17.1875 
L 4.890625 17.1875 
L 4.890625 26.703125 
z
" id="DejaVuSans-52"/>
       </defs>
       <use xlink:href="#DejaVuSans-52"/>
       <use x="63.623047" xlink:href="#DejaVuSans-48"/>
      </g>
     </g>
    </g>
    <g id="ytick_4">
     <g id="line2d_11">
      <g>
       <use style="stroke:#000000;stroke-width:0.8;" x="57.6" xlink:href="#me8be92f485" y="143.020651"/>
      </g>
     </g>
     <g id="text_11">
      <!-- 60 -->
      <g transform="translate(37.875 146.81987)scale(0.1 -0.1)">
       <defs>
        <path d="M 33.015625 40.375 
Q 26.375 40.375 22.484375 35.828125 
Q 18.609375 31.296875 18.609375 23.390625 
Q 18.609375 15.53125 22.484375 10.953125 
Q 26.375 6.390625 33.015625 6.390625 
Q 39.65625 6.390625 43.53125 10.953125 
Q 47.40625 15.53125 47.40625 23.390625 
Q 47.40625 31.296875 43.53125 35.828125 
Q 39.65625 40.375 33.015625 40.375 
z
M 52.59375 71.296875 
L 52.59375 62.3125 
Q 48.875 64.0625 45.09375 64.984375 
Q 41.3125 65.921875 37.59375 65.921875 
Q 27.828125 65.921875 22.671875 59.328125 
Q 17.53125 52.734375 16.796875 39.40625 
Q 19.671875 43.65625 24.015625 45.921875 
Q 28.375 48.1875 33.59375 48.1875 
Q 44.578125 48.1875 50.953125 41.515625 
Q 57.328125 34.859375 57.328125 23.390625 
Q 57.328125 12.15625 50.6875 5.359375 
Q 44.046875 -1.421875 33.015625 -1.421875 
Q 20.359375 -1.421875 13.671875 8.265625 
Q 6.984375 17.96875 6.984375 36.375 
Q 6.984375 53.65625 15.1875 63.9375 
Q 23.390625 74.21875 37.203125 74.21875 
Q 40.921875 74.21875 44.703125 73.484375 
Q 48.484375 72.75 52.59375 71.296875 
z
" id="DejaVuSans-54"/>
       </defs>
       <use xlink:href="#DejaVuSans-54"/>
       <use x="63.623047" xlink:href="#DejaVuSans-48"/>
      </g>
     </g>
    </g>
    <g id="ytick_5">
     <g id="line2d_12">
      <g>
       <use style="stroke:#000000;stroke-width:0.8;" x="57.6" xlink:href="#me8be92f485" y="88.166201"/>
      </g>
     </g>
     <g id="text_12">
      <!-- 80 -->
      <g transform="translate(37.875 91.96542)scale(0.1 -0.1)">
       <defs>
        <path d="M 31.78125 34.625 
Q 24.75 34.625 20.71875 30.859375 
Q 16.703125 27.09375 16.703125 20.515625 
Q 16.703125 13.921875 20.71875 10.15625 
Q 24.75 6.390625 31.78125 6.390625 
Q 38.8125 6.390625 42.859375 10.171875 
Q 46.921875 13.96875 46.921875 20.515625 
Q 46.921875 27.09375 42.890625 30.859375 
Q 38.875 34.625 31.78125 34.625 
z
M 21.921875 38.8125 
Q 15.578125 40.375 12.03125 44.71875 
Q 8.5 49.078125 8.5 55.328125 
Q 8.5 64.0625 14.71875 69.140625 
Q 20.953125 74.21875 31.78125 74.21875 
Q 42.671875 74.21875 48.875 69.140625 
Q 55.078125 64.0625 55.078125 55.328125 
Q 55.078125 49.078125 51.53125 44.71875 
Q 48 40.375 41.703125 38.8125 
Q 48.828125 37.15625 52.796875 32.3125 
Q 56.78125 27.484375 56.78125 20.515625 
Q 56.78125 9.90625 50.3125 4.234375 
Q 43.84375 -1.421875 31.78125 -1.421875 
Q 19.734375 -1.421875 13.25 4.234375 
Q 6.78125 9.90625 6.78125 20.515625 
Q 6.78125 27.484375 10.78125 32.3125 
Q 14.796875 37.15625 21.921875 38.8125 
z
M 18.3125 54.390625 
Q 18.3125 48.734375 21.84375 45.5625 
Q 25.390625 42.390625 31.78125 42.390625 
Q 38.140625 42.390625 41.71875 45.5625 
Q 45.3125 48.734375 45.3125 54.390625 
Q 45.3125 60.0625 41.71875 63.234375 
Q 38.140625 66.40625 31.78125 66.40625 
Q 25.390625 66.40625 21.84375 63.234375 
Q 18.3125 60.0625 18.3125 54.390625 
z
" id="DejaVuSans-56"/>
       </defs>
       <use xlink:href="#DejaVuSans-56"/>
       <use x="63.623047" xlink:href="#DejaVuSans-48"/>
      </g>
     </g>
    </g>
   </g>
   <g id="line2d_13">
    <path clip-path="url(#p13dea3d9dc)" d="M 87.324864 97.136654 
L 88.168123 95.199553 
L 89.011381 101.194906 
L 89.85464 111.025028 
L 90.697898 124.860529 
L 91.541157 132.805791 
L 92.384416 136.305007 
L 94.070933 145.740762 
L 94.914191 147.629681 
L 95.75745 137.907819 
L 96.600708 132.815915 
L 97.443967 131.854574 
L 98.287226 132.088617 
L 99.130484 136.033775 
L 99.973743 137.251855 
L 100.817001 139.376362 
L 101.66026 134.114168 
L 102.503518 133.911348 
L 103.346777 129.930782 
L 104.190035 118.589053 
L 105.033294 102.431046 
L 105.876553 90.571281 
L 106.719811 86.820185 
L 107.56307 94.152227 
L 108.406328 106.172242 
L 109.249587 114.700061 
L 110.092845 117.791042 
L 110.936104 113.595804 
L 111.779362 124.575636 
L 112.622621 128.897371 
L 113.46588 143.136873 
L 114.309138 137.87023 
L 115.152397 148.511055 
L 115.995655 157.310016 
L 116.838914 173.997421 
L 117.682172 177.524752 
L 119.368689 179.450915 
L 120.211948 189.884437 
L 121.898465 223.580715 
L 122.741724 231.973016 
L 123.584982 231.921193 
L 124.428241 233.353986 
L 125.271499 222.343413 
L 126.114758 224.486229 
L 126.958017 220.039165 
L 127.801275 218.625593 
L 128.644534 205.637356 
L 129.487792 201.305819 
L 131.174309 231.797693 
L 132.017568 241.709799 
L 132.860826 232.18249 
L 133.704085 240.597638 
L 134.547344 241.413693 
L 135.390602 249.203696 
L 136.233861 238.672889 
L 137.077119 243.20373 
L 137.920378 242.802228 
L 138.763636 243.621497 
L 139.606895 234.435193 
L 141.293412 224.996848 
L 142.136671 222.850617 
L 142.979929 213.684286 
L 143.823188 203.229103 
L 144.666446 195.458536 
L 145.509705 166.527398 
L 146.352963 150.927777 
L 147.196222 129.537539 
L 148.039481 142.64597 
L 148.882739 135.10253 
L 149.725998 135.385499 
L 150.569256 126.879869 
L 151.412515 134.270543 
L 153.099032 145.312172 
L 154.785549 134.087324 
L 155.628808 136.219622 
L 156.472066 139.81267 
L 157.315325 144.374361 
L 158.158583 143.721947 
L 159.001842 144.41433 
L 159.8451 134.926687 
L 160.688359 133.152601 
L 161.531617 133.393049 
L 162.374876 151.851371 
L 163.218135 155.529942 
L 164.061393 159.869988 
L 164.904652 152.526418 
L 165.74791 151.985831 
L 167.434427 180.291077 
L 168.277686 191.145853 
L 169.120945 178.161821 
L 170.807462 140.453251 
L 171.65072 128.630869 
L 172.493979 123.74121 
L 173.337237 120.107636 
L 174.180496 104.691067 
L 175.023754 98.185071 
L 175.867013 87.440746 
L 176.710272 90.78741 
L 177.55353 86.318435 
L 180.083306 61.589335 
L 180.926564 60.134144 
L 181.769823 63.827039 
L 182.613081 72.683016 
L 184.299599 122.472923 
L 185.142857 138.624366 
L 185.986116 143.984944 
L 186.829374 140.161753 
L 187.672633 146.355681 
L 188.515891 148.781749 
L 189.35915 154.126753 
L 191.045667 147.52099 
L 191.888926 151.617823 
L 192.732184 169.631957 
L 193.575443 184.092315 
L 194.418701 192.025144 
L 195.26196 182.536558 
L 196.105218 171.639172 
L 196.948477 166.834849 
L 197.791736 167.985017 
L 198.634994 175.16714 
L 199.478253 173.55027 
L 200.321511 167.299227 
L 201.16477 167.31969 
L 202.008028 163.024923 
L 202.851287 170.164703 
L 203.694545 165.120097 
L 204.537804 162.728306 
L 205.381063 154.819406 
L 206.224321 150.681817 
L 207.06758 145.831697 
L 208.754097 132.196801 
L 209.597355 135.262478 
L 210.440614 150.86622 
L 212.127131 176.466817 
L 212.97039 174.350871 
L 213.813648 190.55113 
L 214.656907 187.412135 
L 215.500165 191.151582 
L 216.343424 186.393088 
L 217.186682 195.609732 
L 218.029941 199.307926 
L 218.8732 201.754301 
L 219.716458 195.03973 
L 220.559717 189.590269 
L 221.402975 188.42574 
L 222.246234 186.920721 
L 223.089492 192.394079 
L 223.932751 192.807535 
L 224.776009 197.708616 
L 225.619268 195.018284 
L 226.462527 194.010585 
L 227.305785 194.683963 
L 228.149044 196.284951 
L 228.992302 191.858193 
L 229.835561 191.40899 
L 230.678819 189.218188 
L 231.522078 192.553716 
L 232.365336 196.977378 
L 234.051854 177.224971 
L 234.895112 162.849203 
L 235.738371 159.021573 
L 236.581629 152.585506 
L 237.424888 154.552231 
L 238.268146 158.548259 
L 239.111405 166.397767 
L 240.797922 166.446444 
L 241.641181 163.418374 
L 242.484439 159.540587 
L 243.327698 172.490937 
L 244.170956 168.738639 
L 245.014215 169.33999 
L 245.857473 141.271482 
L 246.700732 133.721583 
L 247.543991 117.759515 
L 248.387249 112.00142 
L 249.230508 88.062196 
L 250.917025 62.867977 
L 251.760283 61.393274 
L 252.603542 56.475399 
L 253.4468 53.166099 
L 255.976576 100.810873 
L 256.819835 98.942841 
L 257.663093 99.225223 
L 258.506352 98.509935 
L 259.34961 100.171063 
L 260.192869 104.348584 
L 261.036128 114.238333 
L 261.879386 130.972891 
L 262.722645 145.062103 
L 263.565903 149.855675 
L 264.409162 150.931683 
L 265.25242 156.399427 
L 266.095679 148.890419 
L 266.938937 136.013831 
L 267.782196 124.848116 
L 270.311972 169.092026 
L 271.15523 171.836952 
L 271.998489 173.975409 
L 272.841747 175.293438 
L 273.685006 175.0205 
L 274.528264 176.439846 
L 275.371523 182.610081 
L 276.214782 186.070963 
L 277.05804 191.131142 
L 277.901299 185.845433 
L 278.744557 193.432675 
L 279.587816 186.361387 
L 280.431074 189.618477 
L 281.274333 197.760168 
L 282.117591 211.158008 
L 282.96085 222.278144 
L 283.804109 217.873569 
L 284.647367 220.471759 
L 285.490626 217.25381 
L 286.333884 216.398063 
L 287.177143 212.600059 
L 288.020401 212.247785 
L 288.86366 210.14196 
L 289.706919 215.945896 
L 290.550177 213.824374 
L 291.393436 215.010858 
L 292.236694 203.443964 
L 294.76647 117.777564 
L 295.609728 116.683009 
L 296.452987 127.166464 
L 298.139504 159.196561 
L 298.982763 153.466433 
L 299.826021 157.517196 
L 300.66928 152.897031 
L 301.512538 151.681752 
L 302.355797 156.882594 
L 303.199055 161.27743 
L 304.042314 173.316821 
L 304.885573 179.986812 
L 306.57209 195.285861 
L 307.415348 194.204398 
L 308.258607 177.971507 
L 309.101865 164.839028 
L 309.945124 147.021879 
L 310.788383 149.129068 
L 311.631641 139.584679 
L 312.4749 135.8836 
L 313.318158 125.873165 
L 314.161417 114.501125 
L 315.004675 113.631085 
L 315.847934 112.142475 
L 316.691192 108.533691 
L 318.37771 102.195015 
L 319.220968 106.655042 
L 320.064227 103.173144 
L 320.907485 93.575689 
L 321.750744 79.892722 
L 322.594002 68.075065 
L 323.437261 66.39101 
L 324.280519 69.405962 
L 325.123778 75.053254 
L 325.967037 78.955821 
L 326.810295 76.966816 
L 327.653554 80.797002 
L 328.496812 83.333463 
L 329.340071 86.787513 
L 330.183329 80.7775 
L 331.026588 76.687615 
L 332.713105 88.417793 
L 333.556364 97.22438 
L 335.242881 89.818287 
L 336.086139 94.455475 
L 336.929398 101.526589 
L 337.772656 111.507387 
L 338.615915 112.56703 
L 339.459174 110.690167 
L 340.302432 105.530809 
L 341.145691 96.660429 
L 341.988949 99.430966 
L 342.832208 104.913132 
L 343.675466 104.377989 
L 344.518725 97.911642 
L 345.361983 90.584426 
L 346.205242 94.231354 
L 347.048501 96.150721 
L 348.735018 78.937589 
L 349.578276 72.919242 
L 350.421535 74.841664 
L 351.264793 77.310848 
L 352.108052 101.799785 
L 352.951311 129.618611 
L 353.794569 145.177945 
L 354.637828 136.847792 
L 355.481086 125.027232 
L 356.324345 130.144891 
L 357.167603 136.879572 
L 358.010862 145.899606 
L 358.85412 152.601088 
L 359.697379 158.294624 
L 360.540638 162.046755 
L 361.383896 157.703509 
L 363.070413 170.824627 
L 363.913672 168.558302 
L 364.75693 158.848484 
L 365.600189 151.403101 
L 366.443447 152.192187 
L 367.286706 160.995467 
L 368.129965 161.839583 
L 368.973223 153.419733 
L 370.65974 109.894267 
L 371.502999 96.895244 
L 372.346257 92.217064 
L 373.189516 99.72816 
L 374.032774 98.020281 
L 374.876033 98.277262 
L 375.719292 90.209097 
L 376.56255 88.814884 
L 377.405809 80.717529 
L 378.249067 77.798818 
L 379.092326 77.04431 
L 379.935584 77.521794 
L 380.778843 76.965046 
L 382.46536 81.741919 
L 383.308619 80.747738 
L 384.151877 74.935734 
L 384.995136 70.581893 
L 385.838394 68.381823 
L 386.681653 64.023923 
L 388.36817 51.363986 
L 389.211429 53.511737 
L 390.054687 64.611701 
L 391.741204 107.85209 
L 392.584463 120.23355 
L 393.427721 120.379333 
L 394.27098 122.403593 
L 395.114238 131.662333 
L 395.957497 144.966587 
L 396.800756 149.19167 
L 397.644014 152.434744 
L 398.487273 160.524592 
L 398.487273 160.524592 
" style="fill:none;stroke:#ff6347;stroke-linecap:square;stroke-width:1.5;"/>
   </g>
   <g id="patch_3">
    <path d="M 57.6 307.584 
L 57.6 41.472 
" style="fill:none;stroke:#000000;stroke-linecap:square;stroke-linejoin:miter;stroke-width:0.8;"/>
   </g>
   <g id="patch_4">
    <path d="M 414.72 307.584 
L 414.72 41.472 
" style="fill:none;stroke:#000000;stroke-linecap:square;stroke-linejoin:miter;stroke-width:0.8;"/>
   </g>
   <g id="patch_5">
    <path d="M 57.6 307.584 
L 414.72 307.584 
" style="fill:none;stroke:#000000;stroke-linecap:square;stroke-linejoin:miter;stroke-width:0.8;"/>
   </g>
   <g id="patch_6">
    <path d="M 57.6 41.472 
L 414.72 41.472 
" style="fill:none;stroke:#000000;stroke-linecap:square;stroke-linejoin:miter;stroke-width:0.8;"/>
   </g>
   <g id="text_13">
    <!-- Data source: nomics -->
    <g transform="translate(184.91625 35.472)scale(0.1 -0.1)">
     <defs>
      <path d="M 19.671875 64.796875 
L 19.671875 8.109375 
L 31.59375 8.109375 
Q 46.6875 8.109375 53.6875 14.9375 
Q 60.6875 21.78125 60.6875 36.53125 
Q 60.6875 51.171875 53.6875 57.984375 
Q 46.6875 64.796875 31.59375 64.796875 
z
M 9.8125 72.90625 
L 30.078125 72.90625 
Q 51.265625 72.90625 61.171875 64.09375 
Q 71.09375 55.28125 71.09375 36.53125 
Q 71.09375 17.671875 61.125 8.828125 
Q 51.171875 0 30.078125 0 
L 9.8125 0 
z
" id="DejaVuSans-68"/>
      <path d="M 34.28125 27.484375 
Q 23.390625 27.484375 19.1875 25 
Q 14.984375 22.515625 14.984375 16.5 
Q 14.984375 11.71875 18.140625 8.90625 
Q 21.296875 6.109375 26.703125 6.109375 
Q 34.1875 6.109375 38.703125 11.40625 
Q 43.21875 16.703125 43.21875 25.484375 
L 43.21875 27.484375 
z
M 52.203125 31.203125 
L 52.203125 0 
L 43.21875 0 
L 43.21875 8.296875 
Q 40.140625 3.328125 35.546875 0.953125 
Q 30.953125 -1.421875 24.3125 -1.421875 
Q 15.921875 -1.421875 10.953125 3.296875 
Q 6 8.015625 6 15.921875 
Q 6 25.140625 12.171875 29.828125 
Q 18.359375 34.515625 30.609375 34.515625 
L 43.21875 34.515625 
L 43.21875 35.40625 
Q 43.21875 41.609375 39.140625 45 
Q 35.0625 48.390625 27.6875 48.390625 
Q 23 48.390625 18.546875 47.265625 
Q 14.109375 46.140625 10.015625 43.890625 
L 10.015625 52.203125 
Q 14.9375 54.109375 19.578125 55.046875 
Q 24.21875 56 28.609375 56 
Q 40.484375 56 46.34375 49.84375 
Q 52.203125 43.703125 52.203125 31.203125 
z
" id="DejaVuSans-97"/>
      <path d="M 18.3125 70.21875 
L 18.3125 54.6875 
L 36.8125 54.6875 
L 36.8125 47.703125 
L 18.3125 47.703125 
L 18.3125 18.015625 
Q 18.3125 11.328125 20.140625 9.421875 
Q 21.96875 7.515625 27.59375 7.515625 
L 36.8125 7.515625 
L 36.8125 0 
L 27.59375 0 
Q 17.1875 0 13.234375 3.875 
Q 9.28125 7.765625 9.28125 18.015625 
L 9.28125 47.703125 
L 2.6875 47.703125 
L 2.6875 54.6875 
L 9.28125 54.6875 
L 9.28125 70.21875 
z
" id="DejaVuSans-116"/>
      <path id="DejaVuSans-32"/>
      <path d="M 44.28125 53.078125 
L 44.28125 44.578125 
Q 40.484375 46.53125 36.375 47.5 
Q 32.28125 48.484375 27.875 48.484375 
Q 21.1875 48.484375 17.84375 46.4375 
Q 14.5 44.390625 14.5 40.28125 
Q 14.5 37.15625 16.890625 35.375 
Q 19.28125 33.59375 26.515625 31.984375 
L 29.59375 31.296875 
Q 39.15625 29.25 43.1875 25.515625 
Q 47.21875 21.78125 47.21875 15.09375 
Q 47.21875 7.46875 41.1875 3.015625 
Q 35.15625 -1.421875 24.609375 -1.421875 
Q 20.21875 -1.421875 15.453125 -0.5625 
Q 10.6875 0.296875 5.421875 2 
L 5.421875 11.28125 
Q 10.40625 8.6875 15.234375 7.390625 
Q 20.0625 6.109375 24.8125 6.109375 
Q 31.15625 6.109375 34.5625 8.28125 
Q 37.984375 10.453125 37.984375 14.40625 
Q 37.984375 18.0625 35.515625 20.015625 
Q 33.0625 21.96875 24.703125 23.78125 
L 21.578125 24.515625 
Q 13.234375 26.265625 9.515625 29.90625 
Q 5.8125 33.546875 5.8125 39.890625 
Q 5.8125 47.609375 11.28125 51.796875 
Q 16.75 56 26.8125 56 
Q 31.78125 56 36.171875 55.265625 
Q 40.578125 54.546875 44.28125 53.078125 
z
" id="DejaVuSans-115"/>
      <path d="M 30.609375 48.390625 
Q 23.390625 48.390625 19.1875 42.75 
Q 14.984375 37.109375 14.984375 27.296875 
Q 14.984375 17.484375 19.15625 11.84375 
Q 23.34375 6.203125 30.609375 6.203125 
Q 37.796875 6.203125 41.984375 11.859375 
Q 46.1875 17.53125 46.1875 27.296875 
Q 46.1875 37.015625 41.984375 42.703125 
Q 37.796875 48.390625 30.609375 48.390625 
z
M 30.609375 56 
Q 42.328125 56 49.015625 48.375 
Q 55.71875 40.765625 55.71875 27.296875 
Q 55.71875 13.875 49.015625 6.21875 
Q 42.328125 -1.421875 30.609375 -1.421875 
Q 18.84375 -1.421875 12.171875 6.21875 
Q 5.515625 13.875 5.515625 27.296875 
Q 5.515625 40.765625 12.171875 48.375 
Q 18.84375 56 30.609375 56 
z
" id="DejaVuSans-111"/>
      <path d="M 8.5 21.578125 
L 8.5 54.6875 
L 17.484375 54.6875 
L 17.484375 21.921875 
Q 17.484375 14.15625 20.5 10.265625 
Q 23.53125 6.390625 29.59375 6.390625 
Q 36.859375 6.390625 41.078125 11.03125 
Q 45.3125 15.671875 45.3125 23.6875 
L 45.3125 54.6875 
L 54.296875 54.6875 
L 54.296875 0 
L 45.3125 0 
L 45.3125 8.40625 
Q 42.046875 3.421875 37.71875 1 
Q 33.40625 -1.421875 27.6875 -1.421875 
Q 18.265625 -1.421875 13.375 4.4375 
Q 8.5 10.296875 8.5 21.578125 
z
M 31.109375 56 
z
" id="DejaVuSans-117"/>
      <path d="M 41.109375 46.296875 
Q 39.59375 47.171875 37.8125 47.578125 
Q 36.03125 48 33.890625 48 
Q 26.265625 48 22.1875 43.046875 
Q 18.109375 38.09375 18.109375 28.8125 
L 18.109375 0 
L 9.078125 0 
L 9.078125 54.6875 
L 18.109375 54.6875 
L 18.109375 46.1875 
Q 20.953125 51.171875 25.484375 53.578125 
Q 30.03125 56 36.53125 56 
Q 37.453125 56 38.578125 55.875 
Q 39.703125 55.765625 41.0625 55.515625 
z
" id="DejaVuSans-114"/>
      <path d="M 48.78125 52.59375 
L 48.78125 44.1875 
Q 44.96875 46.296875 41.140625 47.34375 
Q 37.3125 48.390625 33.40625 48.390625 
Q 24.65625 48.390625 19.8125 42.84375 
Q 14.984375 37.3125 14.984375 27.296875 
Q 14.984375 17.28125 19.8125 11.734375 
Q 24.65625 6.203125 33.40625 6.203125 
Q 37.3125 6.203125 41.140625 7.25 
Q 44.96875 8.296875 48.78125 10.40625 
L 48.78125 2.09375 
Q 45.015625 0.34375 40.984375 -0.53125 
Q 36.96875 -1.421875 32.421875 -1.421875 
Q 20.0625 -1.421875 12.78125 6.34375 
Q 5.515625 14.109375 5.515625 27.296875 
Q 5.515625 40.671875 12.859375 48.328125 
Q 20.21875 56 33.015625 56 
Q 37.15625 56 41.109375 55.140625 
Q 45.0625 54.296875 48.78125 52.59375 
z
" id="DejaVuSans-99"/>
      <path d="M 56.203125 29.59375 
L 56.203125 25.203125 
L 14.890625 25.203125 
Q 15.484375 15.921875 20.484375 11.0625 
Q 25.484375 6.203125 34.421875 6.203125 
Q 39.59375 6.203125 44.453125 7.46875 
Q 49.3125 8.734375 54.109375 11.28125 
L 54.109375 2.78125 
Q 49.265625 0.734375 44.1875 -0.34375 
Q 39.109375 -1.421875 33.890625 -1.421875 
Q 20.796875 -1.421875 13.15625 6.1875 
Q 5.515625 13.8125 5.515625 26.8125 
Q 5.515625 40.234375 12.765625 48.109375 
Q 20.015625 56 32.328125 56 
Q 43.359375 56 49.78125 48.890625 
Q 56.203125 41.796875 56.203125 29.59375 
z
M 47.21875 32.234375 
Q 47.125 39.59375 43.09375 43.984375 
Q 39.0625 48.390625 32.421875 48.390625 
Q 24.90625 48.390625 20.390625 44.140625 
Q 15.875 39.890625 15.1875 32.171875 
z
" id="DejaVuSans-101"/>
      <path d="M 11.71875 12.40625 
L 22.015625 12.40625 
L 22.015625 0 
L 11.71875 0 
z
M 11.71875 51.703125 
L 22.015625 51.703125 
L 22.015625 39.3125 
L 11.71875 39.3125 
z
" id="DejaVuSans-58"/>
      <path d="M 54.890625 33.015625 
L 54.890625 0 
L 45.90625 0 
L 45.90625 32.71875 
Q 45.90625 40.484375 42.875 44.328125 
Q 39.84375 48.1875 33.796875 48.1875 
Q 26.515625 48.1875 22.3125 43.546875 
Q 18.109375 38.921875 18.109375 30.90625 
L 18.109375 0 
L 9.078125 0 
L 9.078125 54.6875 
L 18.109375 54.6875 
L 18.109375 46.1875 
Q 21.34375 51.125 25.703125 53.5625 
Q 30.078125 56 35.796875 56 
Q 45.21875 56 50.046875 50.171875 
Q 54.890625 44.34375 54.890625 33.015625 
z
" id="DejaVuSans-110"/>
      <path d="M 52 44.1875 
Q 55.375 50.25 60.0625 53.125 
Q 64.75 56 71.09375 56 
Q 79.640625 56 84.28125 50.015625 
Q 88.921875 44.046875 88.921875 33.015625 
L 88.921875 0 
L 79.890625 0 
L 79.890625 32.71875 
Q 79.890625 40.578125 77.09375 44.375 
Q 74.3125 48.1875 68.609375 48.1875 
Q 61.625 48.1875 57.5625 43.546875 
Q 53.515625 38.921875 53.515625 30.90625 
L 53.515625 0 
L 44.484375 0 
L 44.484375 32.71875 
Q 44.484375 40.625 41.703125 44.40625 
Q 38.921875 48.1875 33.109375 48.1875 
Q 26.21875 48.1875 22.15625 43.53125 
Q 18.109375 38.875 18.109375 30.90625 
L 18.109375 0 
L 9.078125 0 
L 9.078125 54.6875 
L 18.109375 54.6875 
L 18.109375 46.1875 
Q 21.1875 51.21875 25.484375 53.609375 
Q 29.78125 56 35.6875 56 
Q 41.65625 56 45.828125 52.96875 
Q 50 49.953125 52 44.1875 
z
" id="DejaVuSans-109"/>
      <path d="M 9.421875 54.6875 
L 18.40625 54.6875 
L 18.40625 0 
L 9.421875 0 
z
M 9.421875 75.984375 
L 18.40625 75.984375 
L 18.40625 64.59375 
L 9.421875 64.59375 
z
" id="DejaVuSans-105"/>
     </defs>
     <use xlink:href="#DejaVuSans-68"/>
     <use x="77.001953" xlink:href="#DejaVuSans-97"/>
     <use x="138.28125" xlink:href="#DejaVuSans-116"/>
     <use x="177.490234" xlink:href="#DejaVuSans-97"/>
     <use x="238.769531" xlink:href="#DejaVuSans-32"/>
     <use x="270.556641" xlink:href="#DejaVuSans-115"/>
     <use x="322.65625" xlink:href="#DejaVuSans-111"/>
     <use x="383.837891" xlink:href="#DejaVuSans-117"/>
     <use x="447.216797" xlink:href="#DejaVuSans-114"/>
     <use x="486.080078" xlink:href="#DejaVuSans-99"/>
     <use x="541.060547" xlink:href="#DejaVuSans-101"/>
     <use x="602.583984" xlink:href="#DejaVuSans-58"/>
     <use x="636.275391" xlink:href="#DejaVuSans-32"/>
     <use x="668.0625" xlink:href="#DejaVuSans-110"/>
     <use x="731.441406" xlink:href="#DejaVuSans-111"/>
     <use x="792.623047" xlink:href="#DejaVuSans-109"/>
     <use x="890.035156" xlink:href="#DejaVuSans-105"/>
     <use x="917.818359" xlink:href="#DejaVuSans-99"/>
     <use x="972.798828" xlink:href="#DejaVuSans-115"/>
    </g>
   </g>
   <g id="legend_1">
    <g id="patch_7">
     <path d="M 64.6 64.150125 
L 112.846875 64.150125 
Q 114.846875 64.150125 114.846875 62.150125 
L 114.846875 48.472 
Q 114.846875 46.472 112.846875 46.472 
L 64.6 46.472 
Q 62.6 46.472 62.6 48.472 
L 62.6 62.150125 
Q 62.6 64.150125 64.6 64.150125 
z
" style="fill:#ffffff;opacity:0.8;stroke:#cccccc;stroke-linejoin:miter;"/>
    </g>
    <g id="line2d_14">
     <path d="M 66.6 54.570438 
L 86.6 54.570438 
" style="fill:none;stroke:#ff6347;stroke-linecap:square;stroke-width:1.5;"/>
    </g>
    <g id="line2d_15"/>
    <g id="text_14">
     <!-- RSI -->
     <g transform="translate(94.6 58.070438)scale(0.1 -0.1)">
      <defs>
       <path d="M 44.390625 34.1875 
Q 47.5625 33.109375 50.5625 29.59375 
Q 53.5625 26.078125 56.59375 19.921875 
L 66.609375 0 
L 56 0 
L 46.6875 18.703125 
Q 43.0625 26.03125 39.671875 28.421875 
Q 36.28125 30.8125 30.421875 30.8125 
L 19.671875 30.8125 
L 19.671875 0 
L 9.8125 0 
L 9.8125 72.90625 
L 32.078125 72.90625 
Q 44.578125 72.90625 50.734375 67.671875 
Q 56.890625 62.453125 56.890625 51.90625 
Q 56.890625 45.015625 53.6875 40.46875 
Q 50.484375 35.9375 44.390625 34.1875 
z
M 19.671875 64.796875 
L 19.671875 38.921875 
L 32.078125 38.921875 
Q 39.203125 38.921875 42.84375 42.21875 
Q 46.484375 45.515625 46.484375 51.90625 
Q 46.484375 58.296875 42.84375 61.546875 
Q 39.203125 64.796875 32.078125 64.796875 
z
" id="DejaVuSans-82"/>
       <path d="M 53.515625 70.515625 
L 53.515625 60.890625 
Q 47.90625 63.578125 42.921875 64.890625 
Q 37.9375 66.21875 33.296875 66.21875 
Q 25.25 66.21875 20.875 63.09375 
Q 16.5 59.96875 16.5 54.203125 
Q 16.5 49.359375 19.40625 46.890625 
Q 22.3125 44.4375 30.421875 42.921875 
L 36.375 41.703125 
Q 47.40625 39.59375 52.65625 34.296875 
Q 57.90625 29 57.90625 20.125 
Q 57.90625 9.515625 50.796875 4.046875 
Q 43.703125 -1.421875 29.984375 -1.421875 
Q 24.8125 -1.421875 18.96875 -0.25 
Q 13.140625 0.921875 6.890625 3.21875 
L 6.890625 13.375 
Q 12.890625 10.015625 18.65625 8.296875 
Q 24.421875 6.59375 29.984375 6.59375 
Q 38.421875 6.59375 43.015625 9.90625 
Q 47.609375 13.234375 47.609375 19.390625 
Q 47.609375 24.75 44.3125 27.78125 
Q 41.015625 30.8125 33.5 32.328125 
L 27.484375 33.5 
Q 16.453125 35.6875 11.515625 40.375 
Q 6.59375 45.0625 6.59375 53.421875 
Q 6.59375 63.09375 13.40625 68.65625 
Q 20.21875 74.21875 32.171875 74.21875 
Q 37.3125 74.21875 42.625 73.28125 
Q 47.953125 72.359375 53.515625 70.515625 
z
" id="DejaVuSans-83"/>
       <path d="M 9.8125 72.90625 
L 19.671875 72.90625 
L 19.671875 0 
L 9.8125 0 
z
" id="DejaVuSans-73"/>
      </defs>
      <use xlink:href="#DejaVuSans-82"/>
      <use x="69.482422" xlink:href="#DejaVuSans-83"/>
      <use x="132.958984" xlink:href="#DejaVuSans-73"/>
     </g>
    </g>
   </g>
  </g>
  <g id="text_15">
   <!-- RSI -->
   <g transform="translate(217.4025 19.0695)scale(0.16 -0.16)">
    <use xlink:href="#DejaVuSans-82"/>
    <use x="69.482422" xlink:href="#DejaVuSans-83"/>
    <use x="132.958984" xlink:href="#DejaVuSans-73"/>
   </g>
  </g>
 </g>
 <defs>
  <clipPath id="p13dea3d9dc">
   <rect height="266.112" width="357.12" x="57.6" y="41.472"/>
  </clipPath>
 </defs>
</svg>
